<svg xmlns="http://www.w3.org/2000/svg" viewBox="0 0 734.62 509.17"><defs><style>.cls-1{fill:#fff;}.cls-2{opacity:0.35;}.cls-3{opacity:0.25;}</style></defs><g id="Layer_2" data-name="Layer 2"><g id="Layer_2-2" data-name="Layer 2"><path class="cls-1" d="M102.15,265.64H50.5A2.37,2.37,0,0,0,48.13,268V350.6A2.37,2.37,0,0,0,50.5,353h51.65a2.37,2.37,0,0,0,2.37-2.37V337a2.38,2.38,0,0,0-.15-.75,2.33,2.33,0,0,0-2.22-1.62H67.59V317.79H96a2.37,2.37,0,0,0,2.37-2.37v-13.6a2.34,2.34,0,0,0-.61-1.5,2.39,2.39,0,0,0-1.76-.87H67.59V284h34.56a2.32,2.32,0,0,0,2.22-1.62,2.38,2.38,0,0,0,.15-.75V268a2.37,2.37,0,0,0-2.37-2.37"/><path class="cls-1" d="M428.33,265.64H412.11a2.31,2.31,0,0,0-2,1.12l-10.57,15.6-6.77,10-6.77-10-10.57-15.6a2.49,2.49,0,0,0-2-1.12H357.22a2.31,2.31,0,0,0-2,3.62l8.67,13.1,11.88,18,7,10.61V350.6a2.37,2.37,0,0,0,2.37,2.37H400a2.46,2.46,0,0,0,2.37-2.37V310.8l7.05-10.48,12.08-18,8.81-13.1a2.31,2.31,0,0,0-2-3.62"/><path class="cls-1" d="M556.47,265.64h-55.4A2.37,2.37,0,0,0,498.7,268v13.6a2.38,2.38,0,0,0,.15.75,2.34,2.34,0,0,0,2.22,1.62h17.84V350.6a2.46,2.46,0,0,0,2.37,2.37h15a2.46,2.46,0,0,0,2.37-2.37V284h17.84a2.34,2.34,0,0,0,2.22-1.62,2.38,2.38,0,0,0,.15-.75V268a2.37,2.37,0,0,0-2.37-2.37"/><path class="cls-1" d="M623.05,265.64H571.4A2.37,2.37,0,0,0,569,268V350.6A2.37,2.37,0,0,0,571.4,353h51.65a2.36,2.36,0,0,0,2.37-2.37V337a2.13,2.13,0,0,0-.15-.75,2.32,2.32,0,0,0-2.22-1.62H588.49V317.79h28.45a2.37,2.37,0,0,0,2.37-2.37v-13.6a2.34,2.34,0,0,0-.61-1.5,2.39,2.39,0,0,0-1.76-.87H588.49V284h34.56a2.32,2.32,0,0,0,2.22-1.62,2.13,2.13,0,0,0,.15-.75V268a2.36,2.36,0,0,0-2.37-2.37"/><path class="cls-1" d="M159.24,283.23a24.56,24.56,0,0,1,16.84,6.36,2.17,2.17,0,0,0,3.12,0l7-7.23,2.76-2.87a2.33,2.33,0,0,0-.12-3.5c-8.49-7.73-17.72-11.6-30.19-11.6a45.16,45.16,0,0,0-44.13,35.93,45.55,45.55,0,0,0-.91,9.11,46.06,46.06,0,0,0,.87,8.86,44.32,44.32,0,0,0,8.07,18,44.93,44.93,0,0,0,36.08,18h0a42.88,42.88,0,0,0,30.3-12.1,2.5,2.5,0,0,0,.12-3.37l-2.34-2.5-7.39-7.86a2.46,2.46,0,0,0-3.24-.12,25,25,0,0,1-39.59-10,26.62,26.62,0,0,1-1.7-9.36,27.26,27.26,0,0,1,1.4-8.61c3.26-9.86,12-17.09,23.05-17.09"/><path class="cls-1" d="M239.27,334.26a25,25,0,0,1-23.14-16,24.49,24.49,0,0,1-1.69-8.86,24.89,24.89,0,0,1,49.78,0,24.28,24.28,0,0,1-1.69,8.86,25.06,25.06,0,0,1-23.26,16m35.9-51.9a44.83,44.83,0,0,0-79.79,18,46.05,46.05,0,0,0,0,18,44.63,44.63,0,0,0,43.9,35.93h0a44.75,44.75,0,0,0,44-35.93,45.8,45.8,0,0,0,0-18,44.63,44.63,0,0,0-8.1-18"/><path class="cls-1" d="M326.74,300.32,326,300c-8.73-4.24-13.6-7.49-13.6-11.61a6.42,6.42,0,0,1,3.6-6,8.84,8.84,0,0,1,4-.88,18.63,18.63,0,0,1,5.32.88,43.46,43.46,0,0,1,11.53,5.86c2.49,1.5,4.61.5,5.49-.87l3.3-5,3.06-4.62c.5-.87.75-3.12-.75-4-3.74-2.75-13.72-9.36-26.7-9.36-15.62,0-24.89,8.25-27.81,18a23.89,23.89,0,0,0-1,6.86,22.34,22.34,0,0,0,2.78,11.1c4.26,7.68,12.83,12.31,21.43,16.47,1,.51,2,1,3,1.5,6.37,3.38,9.89,6.53,9.89,11.1a7.21,7.21,0,0,1-5,6.86,10.34,10.34,0,0,1-3.6.63,21.49,21.49,0,0,1-5-.63c-5.53-1.3-10-4.4-12.7-6.24a2.94,2.94,0,0,0-4.24.75l-3.12,5.49-2.62,4.62a2.81,2.81,0,0,0,.5,3.74c2.87,2.87,11.85,9.6,28.06,9.61h0c14.54,0,24.5-8.18,28-18a23.15,23.15,0,0,0,1.41-7.86,24.3,24.3,0,0,0-2.07-10.1c-4.21-9.34-14.06-13.94-22.36-18"/><path class="cls-1" d="M467.57,300.32l-.77-.37c-8.73-4.24-13.6-7.49-13.6-11.61a6.42,6.42,0,0,1,3.59-6,8.88,8.88,0,0,1,4-.88,18.63,18.63,0,0,1,5.32.88,43.21,43.21,0,0,1,11.52,5.86c2.5,1.5,4.62.5,5.49-.87l3.31-5,3.06-4.62c.5-.87.75-3.12-.75-4-3.74-2.75-13.73-9.36-26.7-9.36-15.62,0-24.89,8.25-27.81,18a23.89,23.89,0,0,0-1,6.86,22.34,22.34,0,0,0,2.78,11.1c4.26,7.68,12.83,12.31,21.42,16.47,1.05.51,2,1,3,1.5,6.37,3.38,9.89,6.53,9.89,11.1a7.2,7.2,0,0,1-5,6.86,10.34,10.34,0,0,1-3.6.63,21.49,21.49,0,0,1-5-.63c-5.53-1.3-10-4.4-12.7-6.24a2.94,2.94,0,0,0-4.24.75l-3.12,5.49L434,340.87a2.81,2.81,0,0,0,.5,3.74c2.87,2.87,11.85,9.6,28.05,9.61h0c14.54,0,24.5-8.18,28-18a23.4,23.4,0,0,0,1.41-7.86,24.14,24.14,0,0,0-2.08-10.1c-4.2-9.34-14.05-13.94-22.35-18"/><path class="cls-1" d="M732.24,336.25l-3-18-3-18-3-18-2.68-16a2.39,2.39,0,0,0-2.25-2h-2a2.74,2.74,0,0,0-2.12,1.25l-9,16.72-9.65,18-9.65,18-.67,1.24h-.25l-.67-1.24-9.65-18-9.64-18-9-16.72a2.77,2.77,0,0,0-2.12-1.25h-2a2.39,2.39,0,0,0-2.25,2l-2.68,16-3,18-3,18-3,18-2.35,14A2.28,2.28,0,0,0,637.9,353h14.72a2.43,2.43,0,0,0,2.37-2l2.1-14.72,2.55-18,.84-5.87h.25l3.06,5.87,9.37,18,8.65,16.6a2.76,2.76,0,0,0,2.12,1.37h2.25a3,3,0,0,0,2.12-1.37l8.6-16.6,9.32-18,3-5.87h.25l.85,5.87,2.62,18L715.12,351a2.55,2.55,0,0,0,2.37,2h14.73a2.28,2.28,0,0,0,2.36-2.74Z"/><path class="cls-1" d="M65.47,161.31h-15a2.45,2.45,0,0,0-2.37,2.37v82.59a2.45,2.45,0,0,0,2.37,2.37h15a2.45,2.45,0,0,0,2.37-2.37V163.68a2.45,2.45,0,0,0-2.37-2.37"/><path class="cls-1" d="M230.74,161.31H179.09a2.37,2.37,0,0,0-2.37,2.37v82.59a2.37,2.37,0,0,0,2.37,2.37h51.65a2.37,2.37,0,0,0,2.37-2.37v-13.6a2.13,2.13,0,0,0-.15-.75,2.32,2.32,0,0,0-2.22-1.62H196.18V213.46h28.45a2.37,2.37,0,0,0,2.37-2.37v-13.6a2.34,2.34,0,0,0-.61-1.5,2.39,2.39,0,0,0-1.76-.87H196.18V179.65h34.56A2.32,2.32,0,0,0,233,178a2.13,2.13,0,0,0,.15-.75v-13.6a2.37,2.37,0,0,0-2.37-2.37"/><path class="cls-1" d="M119.11,230.18H106V179.65h13.1c11,0,18.88,6.73,21.88,16.34a30.36,30.36,0,0,1-.06,18c-3,9.57-10.93,16.22-21.82,16.22M153.62,178a43.84,43.84,0,0,0-34.39-16.72H88.79a2.34,2.34,0,0,0-2.24,2.37v82.59a2.34,2.34,0,0,0,2.24,2.37h30.44A43.85,43.85,0,0,0,163,204.85,43,43,0,0,0,153.62,178"/><path class="cls-1" d="M385.78,214c-4.2-9.34-14-13.94-22.35-18l-.77-.37c-8.73-4.24-13.6-7.49-13.6-11.61a6.41,6.41,0,0,1,3.59-6,8.88,8.88,0,0,1,4-.88A18.69,18.69,0,0,1,362,178a43.37,43.37,0,0,1,11.52,5.86c2.5,1.5,4.62.5,5.49-.87l3.31-5,3.06-4.62c.49-.87.74-3.12-.75-4-3.74-2.75-13.73-9.36-26.7-9.36-15.62,0-24.89,8.25-27.81,18a23.89,23.89,0,0,0-1,6.86,22.34,22.34,0,0,0,2.78,11.1c4.26,7.68,12.83,12.31,21.42,16.47,1.05.51,2,1,3,1.5,6.37,3.38,9.89,6.53,9.89,11.1a7.2,7.2,0,0,1-5,6.86,10.35,10.35,0,0,1-3.61.63,21.63,21.63,0,0,1-5-.63c-5.52-1.3-10-4.4-12.69-6.24a2.94,2.94,0,0,0-4.24.75l-3.12,5.49-2.62,4.62a2.79,2.79,0,0,0,.5,3.74c2.86,2.87,11.84,9.6,28,9.61h0c14.54,0,24.5-8.18,28-18a23.4,23.4,0,0,0,1.41-7.86,24.14,24.14,0,0,0-2.08-10.1"/><path class="cls-1" d="M281.72,198.11h.12l7.3,15.85,2.18,4.74h-19l2.16-4.74Zm35.65,33.81L309,214l-8.35-18-8.36-18-7.71-16.6a2.54,2.54,0,0,0-2.12-1.37h-1.25a2.53,2.53,0,0,0-2.12,1.37L271.38,178,263,196l-8.36,18-8.36,18-6.26,13.48a2.2,2.2,0,0,0,2.12,3.24h13.72a4.64,4.64,0,0,0,4.49-3l4.5-10h33.93l4.49,9.86c1.12,2.37,2.12,3.12,4.37,3.12h13.85a2.2,2.2,0,0,0,2.12-3.24Z"/><g class="cls-2"><path class="cls-1" d="M262.47,372.54a24.7,24.7,0,0,1,1.75,9.11,24.23,24.23,0,0,1-1.69,8.85,24.84,24.84,0,0,1-46.4,0,24.44,24.44,0,0,1-1.69-8.85,24.9,24.9,0,0,1,1.75-9.11h-20.8a45.75,45.75,0,0,0,0,18,44.6,44.6,0,0,0,43.9,35.93h0a44.73,44.73,0,0,0,44-35.93,45.75,45.75,0,0,0,0-18Z"/><path class="cls-1" d="M326.74,372.54H295.19c4.26,7.68,12.83,12.3,21.43,16.47,1,.51,2,1,3,1.49,6.37,3.39,9.89,6.54,9.89,11.11a7.21,7.21,0,0,1-5,6.86,10.34,10.34,0,0,1-3.6.62,22,22,0,0,1-5-.62c-5.53-1.3-10-4.4-12.7-6.24a2.94,2.94,0,0,0-4.24.75l-3.12,5.49-2.62,4.62a2.81,2.81,0,0,0,.5,3.74c2.87,2.87,11.85,9.6,28.06,9.6h0c14.54,0,24.5-8.17,28-18a23.15,23.15,0,0,0,1.41-7.86,24.38,24.38,0,0,0-2.07-10.11c-4.21-9.33-14.06-13.93-22.36-18"/><path class="cls-1" d="M402.38,390.5V383l7.05-10.48H375.77l7,10.6v39.68a2.37,2.37,0,0,0,2.37,2.37H400a2.46,2.46,0,0,0,2.37-2.37"/><path class="cls-1" d="M467.57,372.54H436c4.26,7.68,12.83,12.3,21.42,16.47,1.05.51,2,1,3,1.49,6.37,3.39,9.89,6.54,9.89,11.11a7.2,7.2,0,0,1-5,6.86,10.34,10.34,0,0,1-3.6.62,22,22,0,0,1-5-.62c-5.53-1.3-10-4.4-12.7-6.24a2.94,2.94,0,0,0-4.24.75l-3.12,5.49L434,413.09a2.81,2.81,0,0,0,.5,3.74c2.87,2.87,11.85,9.6,28.05,9.6h0c14.54,0,24.5-8.17,28-18a23.4,23.4,0,0,0,1.41-7.86,24.22,24.22,0,0,0-2.08-10.11c-4.2-9.33-14.05-13.93-22.35-18"/><path class="cls-1" d="M518.91,390.5v32.32a2.46,2.46,0,0,0,2.37,2.37h15a2.46,2.46,0,0,0,2.37-2.37V372.54H518.91Z"/><path class="cls-1" d="M102.15,406.85H67.59V390H96a2.37,2.37,0,0,0,2.37-2.37V374a2.34,2.34,0,0,0-.61-1.5H48.13v50.28a2.37,2.37,0,0,0,2.37,2.37h51.65a2.37,2.37,0,0,0,2.37-2.37v-13.6a2.38,2.38,0,0,0-.15-.75,2.33,2.33,0,0,0-2.22-1.62"/><path class="cls-1" d="M186.71,408.47l-7.38-7.86a2.48,2.48,0,0,0-3.25-.12,25,25,0,0,1-39.59-10,26.57,26.57,0,0,1-1.7-9.35,27.26,27.26,0,0,1,1.4-8.61h-21.7a45.75,45.75,0,0,0,0,18,44.3,44.3,0,0,0,8.07,18,44.89,44.89,0,0,0,36.08,18h0a42.8,42.8,0,0,0,30.3-12.1,2.49,2.49,0,0,0,.13-3.36Z"/></g><g class="cls-3"><path class="cls-1" d="M102.15,456.48H67.59V440.13H48.13v32.32a2.37,2.37,0,0,0,2.37,2.37h51.65a2.37,2.37,0,0,0,2.37-2.37v-13.6a2.38,2.38,0,0,0-.15-.75,2.33,2.33,0,0,0-2.22-1.62"/><path class="cls-1" d="M319.58,440.13c6.37,3.38,9.89,6.53,9.89,11.11a7.22,7.22,0,0,1-5,6.86,10.34,10.34,0,0,1-3.6.62,22,22,0,0,1-5-.62c-5.53-1.31-10-4.4-12.7-6.24a2.94,2.94,0,0,0-4.24.75l-3.12,5.49-2.62,4.61a2.82,2.82,0,0,0,.5,3.75c2.87,2.87,11.85,9.6,28.06,9.6h0c14.54,0,24.5-8.17,28-18a23.2,23.2,0,0,0,1.41-7.86,24.35,24.35,0,0,0-2.07-10.11Z"/><path class="cls-1" d="M382.79,458.1v14.35a2.37,2.37,0,0,0,2.37,2.37H400a2.46,2.46,0,0,0,2.37-2.37V440.13H382.79Z"/><path class="cls-1" d="M460.4,440.13c6.37,3.38,9.9,6.53,9.9,11.11a7.22,7.22,0,0,1-5,6.86,10.34,10.34,0,0,1-3.6.62,22,22,0,0,1-5-.62c-5.53-1.31-10-4.4-12.7-6.24a2.94,2.94,0,0,0-4.24.75l-3.12,5.49L434,462.71a2.82,2.82,0,0,0,.5,3.75c2.87,2.87,11.85,9.6,28.05,9.6h0c14.54,0,24.5-8.17,28-18a23.44,23.44,0,0,0,1.41-7.86,24.19,24.19,0,0,0-2.08-10.11Z"/><path class="cls-1" d="M518.91,458.1v14.35a2.46,2.46,0,0,0,2.37,2.37h15a2.46,2.46,0,0,0,2.37-2.37V440.13H518.91Z"/><path class="cls-1" d="M623.05,456.48H588.49V440.13H569v32.32a2.37,2.37,0,0,0,2.37,2.37h51.65a2.37,2.37,0,0,0,2.37-2.37v-13.6a2.13,2.13,0,0,0-.15-.75,2.32,2.32,0,0,0-2.22-1.62"/><path class="cls-1" d="M637.88,458.1l-2.35,14a2.29,2.29,0,0,0,2.37,2.75h14.72a2.43,2.43,0,0,0,2.37-2l2.1-14.72,2.55-18H640.9Z"/><path class="cls-1" d="M186.71,458.1l-7.38-7.86a2.49,2.49,0,0,0-3.25-.13,25,25,0,0,1-39.59-10h-22a44.3,44.3,0,0,0,8.07,18,44.89,44.89,0,0,0,36.08,18h0a42.8,42.8,0,0,0,30.3-12.1,2.51,2.51,0,0,0,.13-3.37Z"/></g><g class="cls-3"><path class="cls-1" d="M239.27,509.17h0"/><path class="cls-1" d="M321.73,509.17h0"/><path class="cls-1" d="M462.56,509.17h0"/><polyline class="cls-1" points="683.93 509.17 686.18 509.17 686.18 509.17 683.93 509.17 683.93 509.17"/><path class="cls-1" d="M275.29,491.21h-72a44.5,44.5,0,0,0,35.92,18h0a44.71,44.71,0,0,0,36-18"/><path class="cls-1" d="M382.79,505.55a2.37,2.37,0,0,0,2.37,2.37H400a2.46,2.46,0,0,0,2.37-2.37V491.21H382.79Z"/><path class="cls-1" d="M490.59,491.21h-25.3a10.57,10.57,0,0,1-3.6.62,22,22,0,0,1-5-.62H436.61L434,495.82a2.82,2.82,0,0,0,.5,3.75c2.87,2.86,11.85,9.6,28.05,9.6h0c14.54,0,24.5-8.17,28-18"/><path class="cls-1" d="M518.91,505.55a2.46,2.46,0,0,0,2.37,2.37h15a2.46,2.46,0,0,0,2.37-2.37V491.21H518.91Z"/><path class="cls-1" d="M688.3,507.8l8.6-16.59H673.16l8.65,16.59a2.71,2.71,0,0,0,2.12,1.37h2.25a2.89,2.89,0,0,0,2.12-1.37"/><path class="cls-1" d="M715.12,505.93a2.54,2.54,0,0,0,2.37,2h14.73a2.28,2.28,0,0,0,2.36-2.74l-2.34-14H713Z"/></g><g class="cls-2"><path class="cls-1" d="M65.47,90.59h-15A2.46,2.46,0,0,0,48.13,93v50.28H67.84V93a2.46,2.46,0,0,0-2.37-2.37"/><path class="cls-1" d="M230.74,90.59H179.09A2.37,2.37,0,0,0,176.72,93v50.28h19.46v-.5h28.45a2.37,2.37,0,0,0,2.37-2.37v-13.6a2.34,2.34,0,0,0-.61-1.5,2.39,2.39,0,0,0-1.76-.87H196.18V108.93h34.56a2.32,2.32,0,0,0,2.22-1.62,2.13,2.13,0,0,0,.15-.75V93a2.37,2.37,0,0,0-2.37-2.37"/><path class="cls-1" d="M153.62,107.31a43.84,43.84,0,0,0-34.39-16.72H88.79A2.35,2.35,0,0,0,86.55,93v50.28H106V108.93h13.1c11,0,18.88,6.73,21.88,16.34a30.36,30.36,0,0,1-.06,18h21.13a44.06,44.06,0,0,0,1-9.11,43,43,0,0,0-9.41-26.82"/><path class="cls-1" d="M292.3,107.31l-7.71-16.59a2.55,2.55,0,0,0-2.12-1.38h-1.25a2.54,2.54,0,0,0-2.12,1.38l-7.72,16.59-8.35,18-8.36,18h19.85l7.2-15.84h.12l7.3,15.84H309l-8.35-18Z"/></g><g class="cls-3"><path class="cls-1" d="M65.47,41h-15a2.45,2.45,0,0,0-2.37,2.37V75.65H67.84V43.34A2.45,2.45,0,0,0,65.47,41"/><path class="cls-1" d="M230.74,41H179.09a2.37,2.37,0,0,0-2.37,2.37V75.65h49.67a2.35,2.35,0,0,0-1.76-.87H196.18V59.31h34.56A2.32,2.32,0,0,0,233,57.68a2.08,2.08,0,0,0,.15-.74V43.34A2.37,2.37,0,0,0,230.74,41"/><path class="cls-1" d="M384.62,49.08c-3.74-2.75-13.73-9.36-26.7-9.36-15.62,0-24.89,8.24-27.81,18a24,24,0,0,0-1,6.87,22.4,22.4,0,0,0,2.78,11.1h31.55l-.77-.37c-8.73-4.25-13.6-7.49-13.6-11.61a6.42,6.42,0,0,1,3.59-6,9,9,0,0,1,4-.87,19,19,0,0,1,5.32.87,43.35,43.35,0,0,1,11.52,5.87c2.5,1.5,4.62.5,5.49-.87l3.31-5,3.06-4.61c.5-.87.75-3.12-.75-4"/></g><g class="cls-3"><path class="cls-1" d="M284.59,1.37A2.54,2.54,0,0,0,282.47,0h-1.25a2.51,2.51,0,0,0-2.12,1.37L271.38,18H292.3ZM233.11,17.22V3.62a2.37,2.37,0,0,0-2.37-2.37H179.09a2.37,2.37,0,0,0-2.37,2.37V18H233a2.08,2.08,0,0,0,.15-.74m-113.88-16H88.79a2.34,2.34,0,0,0-2.24,2.37V18h67.07A43.87,43.87,0,0,0,119.23,1.25"/></g><path class="cls-1" d="M0,138.52a.27.27,0,0,1,.28-.38H1.78a.35.35,0,0,1,.29.22l1.66,6.39h.06l2.55-6.6a.26.26,0,0,1,.27-.17H6.9a.26.26,0,0,1,.27.17l2.56,6.6H9.8l1.63-6.39a.33.33,0,0,1,.29-.22h1.47a.28.28,0,0,1,.29.38l-3,10.76a.3.3,0,0,1-.29.22H9.91a.27.27,0,0,1-.27-.17l-2.87-7.26H6.69l-2.83,7.26a.27.27,0,0,1-.27.17H3.33a.3.3,0,0,1-.29-.22Z"/><path class="cls-1" d="M22.07,138.44a.29.29,0,0,1,.3-.3h6.51a.3.3,0,0,1,.31.3v1.31a.31.31,0,0,1-.31.31H24.15v2.62h4a.32.32,0,0,1,.3.31v1.32a.3.3,0,0,1-.3.31h-4v2.8h4.73a.3.3,0,0,1,.31.3V149a.3.3,0,0,1-.31.3H22.37a.29.29,0,0,1-.3-.3Z"/><path class="cls-1" d="M48.66,140.06H46.21a.31.31,0,0,1-.31-.31v-1.31a.3.3,0,0,1,.31-.3h7a.3.3,0,0,1,.31.3v1.31a.31.31,0,0,1-.31.31H50.75v9a.31.31,0,0,1-.3.3H49a.31.31,0,0,1-.3-.3Z"/><path class="cls-1" d="M62.14,138.44a.3.3,0,0,1,.31-.3H67a3.46,3.46,0,0,1,3.49,3.44,3.54,3.54,0,0,1-2.37,3.23l2.19,4.07a.3.3,0,0,1-.27.46H68.39a.28.28,0,0,1-.26-.14L66,145H64.23V149a.32.32,0,0,1-.31.3H62.45a.3.3,0,0,1-.31-.3Zm4.71,4.8a1.63,1.63,0,0,0,1.59-1.63,1.59,1.59,0,0,0-1.59-1.55H64.24v3.18Z"/><path class="cls-1" d="M78.26,148.93l5-10.78a.3.3,0,0,1,.28-.17h.16a.27.27,0,0,1,.27.17l4.93,10.78a.28.28,0,0,1-.27.41H87.2a.45.45,0,0,1-.46-.32L86,147.29H81.17L80.38,149a.47.47,0,0,1-.46.32H78.53A.28.28,0,0,1,78.26,148.93Zm6.91-3.41L83.57,142h0L82,145.52Z"/><path class="cls-1" d="M97.14,138.27a.29.29,0,0,1,.3-.29h.24a.35.35,0,0,1,.27.11l6.53,7h0v-6.61a.29.29,0,0,1,.3-.3h1.47a.32.32,0,0,1,.31.3v10.77a.31.31,0,0,1-.31.29h-.22a.35.35,0,0,1-.27-.11l-6.57-7.24h0V149a.3.3,0,0,1-.3.3H97.44a.31.31,0,0,1-.3-.3Z"/><path class="cls-1" d="M115.73,148.25c-.16-.13-.23-.22-.08-.48l.57-1a.38.38,0,0,1,.55-.11,3.89,3.89,0,0,0,2.42,1,1.33,1.33,0,0,0,1.45-1.23c0-.82-.69-1.38-2-1.92-1.51-.61-3-1.57-3-3.46,0-1.42,1.06-3.07,3.6-3.07a5.64,5.64,0,0,1,3.2,1.07.4.4,0,0,1,.1.53l-.61.91a.42.42,0,0,1-.56.19,4.13,4.13,0,0,0-2.22-.88c-.92,0-1.41.51-1.41,1.12s.59,1.27,1.89,1.79c1.55.63,3.34,1.56,3.34,3.62a3.38,3.38,0,0,1-3.68,3.17A5,5,0,0,1,115.73,148.25Z"/><path class="cls-1" d="M131.79,138.44a.3.3,0,0,1,.31-.3h6.51a.29.29,0,0,1,.3.3v1.31a.3.3,0,0,1-.3.31h-4.74v3h4a.31.31,0,0,1,.3.3v1.31a.32.32,0,0,1-.3.31h-4v4a.31.31,0,0,1-.3.3H132.1a.3.3,0,0,1-.31-.3Z"/><path class="cls-1" d="M152.67,138a5.76,5.76,0,1,1-5.74,5.78A5.75,5.75,0,0,1,152.67,138Zm0,9.44a3.68,3.68,0,1,0-3.66-3.66A3.69,3.69,0,0,0,152.67,147.42Z"/><path class="cls-1" d="M167.38,138.44a.29.29,0,0,1,.3-.3h4.58a3.46,3.46,0,0,1,3.49,3.44,3.54,3.54,0,0,1-2.37,3.23l2.19,4.07a.3.3,0,0,1-.27.46h-1.68a.28.28,0,0,1-.26-.14L171.23,145h-1.77V149a.32.32,0,0,1-.31.3h-1.47a.29.29,0,0,1-.3-.3Zm4.7,4.8a1.63,1.63,0,0,0,1.59-1.63,1.59,1.59,0,0,0-1.59-1.55h-2.61v3.18Z"/><path class="cls-1" d="M186.11,138.22a.27.27,0,0,1,.29-.24h.26a.29.29,0,0,1,.27.16l3.52,7.55h.05l3.52-7.55a.27.27,0,0,1,.27-.16h.26a.28.28,0,0,1,.29.24L196.72,149a.28.28,0,0,1-.28.37H195a.35.35,0,0,1-.3-.24l-1-6.07h0l-2.8,6.3a.27.27,0,0,1-.27.17h-.29a.3.3,0,0,1-.27-.17l-2.83-6.3h-.05l-.93,6.07a.31.31,0,0,1-.29.24h-1.44a.29.29,0,0,1-.3-.37Z"/><path class="cls-1" d="M403.62,236.18a.31.31,0,0,1,.3-.3h1.49a.31.31,0,0,1,.3.3v10.6a.31.31,0,0,1-.3.3h-1.49a.31.31,0,0,1-.3-.3Z"/><path class="cls-1" d="M415.31,236a.31.31,0,0,1,.31-.29h.24a.35.35,0,0,1,.27.11l6.53,7h0v-6.61a.3.3,0,0,1,.31-.3h1.47a.31.31,0,0,1,.3.3V247a.29.29,0,0,1-.3.28h-.23a.35.35,0,0,1-.27-.11l-6.56-7.23h0v6.88a.3.3,0,0,1-.31.3h-1.45a.32.32,0,0,1-.31-.3Z"/><path class="cls-1" d="M436.18,237.8h-2.45a.3.3,0,0,1-.31-.3v-1.32a.3.3,0,0,1,.31-.3h7a.3.3,0,0,1,.31.3v1.32a.3.3,0,0,1-.31.3h-2.44v9a.32.32,0,0,1-.31.3h-1.49a.31.31,0,0,1-.3-.3Z"/><path class="cls-1" d="M454.47,235.72a5.76,5.76,0,1,1-5.75,5.78A5.75,5.75,0,0,1,454.47,235.72Zm0,9.44a3.68,3.68,0,1,0-3.67-3.66A3.69,3.69,0,0,0,454.47,245.16Z"/><path class="cls-1" d="M478,246.67l5-10.77a.29.29,0,0,1,.27-.18h.16a.27.27,0,0,1,.27.18l4.93,10.77a.28.28,0,0,1-.27.41H487a.47.47,0,0,1-.47-.32L485.7,245h-4.79l-.78,1.72a.49.49,0,0,1-.47.32h-1.39A.28.28,0,0,1,478,246.67Zm6.91-3.41-1.6-3.52h0l-1.57,3.52Z"/><path class="cls-1" d="M496.9,236a.3.3,0,0,1,.3-.29h.24a.35.35,0,0,1,.27.11l6.53,7h0v-6.61a.29.29,0,0,1,.3-.3h1.47a.32.32,0,0,1,.31.3V247a.3.3,0,0,1-.31.28h-.22a.35.35,0,0,1-.27-.11L499,239.9h0v6.88a.3.3,0,0,1-.3.3H497.2a.31.31,0,0,1-.3-.3Z"/></g></g></svg>