<?xml version="1.0" encoding="utf-8"?>
<!-- Generator: Adobe Illustrator 26.0.3, SVG Export Plug-In . SVG Version: 6.00 Build 0)  -->
<svg version="1.1" id="Capa_1" xmlns="http://www.w3.org/2000/svg" xmlns:xlink="http://www.w3.org/1999/xlink" x="0px" y="0px"
	 viewBox="0 0 669 325.8" style="enable-background:new 0 0 669 325.8;" xml:space="preserve">
<style type="text/css">
	.st0{opacity:0.5;}
	.st1{fill:#FFFFFF;}
	.st2{fill:none;stroke:#FFFFFF;stroke-miterlimit:10;}
	.st3{opacity:0.5;fill:none;stroke:#FFFFFF;stroke-miterlimit:10;}
</style>
<g id="Layer_2" class="st0">
	<g id="Layer_1-2">
		<path class="st1" d="M620.1,228.7v-38.3h9.6c10.9,0,18.9,7.7,18.9,19.1c0,11.4-8,19.2-18.9,19.2H620.1z M609.2,237.3
			c0,0.8,0.7,1.5,1.5,1.6h19.9c16.2,0,29.4-13.1,29.4-29.4s-13.1-29.4-29.4-29.4l0,0h-19.9c-0.9,0-1.5,0.7-1.5,1.6V237.3z
			 M561.5,218.8l8.2-18.5h0.3l8.4,18.5H561.5z M543.5,238.9h7.3c1.1,0,2.1-0.7,2.4-1.7l4.1-9.1h25.1l4.1,9.1c0.3,1,1.3,1.7,2.4,1.7
			h7.3c0.8,0.1,1.5-0.5,1.6-1.4c0-0.3,0-0.6-0.2-0.8l-25.8-56.4c-0.2-0.6-0.8-1-1.4-0.9h-0.8c-0.6,0-1.2,0.4-1.4,0.9l-26.1,56.4
			c-0.4,0.7-0.1,1.6,0.6,2C542.9,238.9,543.2,238.9,543.5,238.9 M495.4,228.7v-38.3h9.6c10.9,0,18.9,7.7,18.9,19.1
			c0,11.4-8,19.2-18.9,19.2H495.4z M484.5,237.3c0,0.9,0.7,1.6,1.5,1.6h19.9c16.2,0,29.4-13.1,29.4-29.4s-13.1-29.4-29.4-29.4h-19.8
			c-0.9,0-1.5,0.7-1.5,1.6L484.5,237.3z M455.1,237.3c0,0.9,0.7,1.6,1.6,1.6h7.8c0.9,0,1.6-0.7,1.6-1.6v-55.5c0-0.9-0.7-1.5-1.6-1.6
			h-7.8c-0.9,0-1.6,0.7-1.6,1.6V237.3z M414,238.8c0.2,0.6,0.8,0.9,1.4,0.9h0.8c0.6,0,1.2-0.4,1.4-0.9l26-56.4
			c0.4-0.7,0.1-1.6-0.6-2c-0.2-0.1-0.5-0.2-0.8-0.2h-8.6c-0.6,0-1.2,0.4-1.4,0.9L416,217.2h-0.4l-16.2-36.1
			c-0.3-0.6-0.8-0.9-1.4-0.9h-8.5c-0.8-0.1-1.5,0.5-1.6,1.3c0,0.3,0,0.6,0.2,0.8L414,238.8z M365.6,237.3c0,0.9,0.7,1.6,1.6,1.6h7.8
			c0.9,0,1.6-0.7,1.6-1.6v-55.5c0-0.8-0.7-1.5-1.5-1.6h-7.8c-0.9,0-1.6,0.7-1.6,1.6L365.6,237.3z M326.7,237.3
			c0,0.9,0.7,1.6,1.6,1.6h7.8c0.9,0,1.6-0.7,1.6-1.6v-47.1h12.8c0.9,0.1,1.6-0.6,1.7-1.5v-0.1v-6.9c0-0.9-0.7-1.6-1.6-1.6H314
			c-0.9,0-1.6,0.7-1.6,1.6v6.9c0,0.9,0.7,1.6,1.6,1.6h12.8L326.7,237.3z M251.9,209.7c0,16.6,13.5,30.1,30.1,30c0.1,0,0.2,0,0.3,0
			c7.6,0.1,14.9-2.8,20.4-8.1c0.6-0.6,0.7-1.6,0.1-2.3l0,0l-5.2-5.4c-0.6-0.6-1.5-0.6-2.1,0c-3.6,3-8.1,4.7-12.8,4.8
			c-10.7,0-18.7-8.9-18.7-19.4s8-19.5,18.7-19.5c4.8,0,9.3,1.8,12.9,4.9c0.5,0.6,1.3,0.7,1.9,0.2c0.1-0.1,0.1-0.1,0.2-0.2l5.1-5.3
			c0.6-0.6,0.7-1.6,0.1-2.2c0-0.1-0.1-0.1-0.2-0.1c-5.5-5.2-12.8-8-20.4-7.8c-16.7,0-30.2,13.5-30.3,30.2
			C252,209.5,252,209.6,251.9,209.7 M203.9,237.3c0,0.9,0.7,1.6,1.6,1.6h34.1c0.9,0,1.6-0.7,1.6-1.6v-6.9c0-0.9-0.7-1.6-1.6-1.6
			h-24.8v-14.7h20.7c0.9,0,1.6-0.7,1.6-1.6l0,0v-7c0-0.9-0.7-1.5-1.6-1.6h-20.7v-13.8h24.8c0.9,0,1.6-0.7,1.6-1.6v-6.9
			c0-0.9-0.7-1.6-1.6-1.6h-34.1c-0.9,0-1.6,0.7-1.6,1.6V237.3z M135.9,237.3c0,0.9,0.7,1.6,1.6,1.6h7.6c0.9,0,1.6-0.7,1.6-1.6v-36.1
			h0.2l34.4,37.9c0.4,0.4,0.9,0.6,1.4,0.6h1.2c0.9,0,1.6-0.7,1.6-1.5v-56.4c0-0.9-0.7-1.6-1.6-1.6h-7.7c-0.9,0-1.6,0.7-1.6,1.6v34.6
			h-0.2l-34.2-36.5c-0.4-0.4-0.9-0.6-1.4-0.6h-1.3c-0.9,0-1.6,0.7-1.6,1.5L135.9,237.3z M71.5,209.7c0-10.6,8.5-19.3,19.2-19.3
			c10.6,0,19.3,8.5,19.3,19.2c0,10.6-8.5,19.3-19.2,19.3h-0.1C80.1,228.7,71.6,220.2,71.5,209.7 M60.6,209.6
			c0.3,16.6,14,29.9,30.7,29.6c16.2-0.3,29.3-13.4,29.6-29.6c0.3-16.6-13-30.4-29.6-30.7s-30.4,13-30.7,29.6
			C60.5,208.9,60.5,209.3,60.6,209.6 M0,209.6c0,16.6,13.4,30.1,30,30.1c0.1,0,0.2,0,0.2,0c7.6,0.1,14.9-2.8,20.4-8.1
			c0.6-0.6,0.7-1.6,0.1-2.2l0,0l-5.2-5.4c-0.6-0.6-1.5-0.6-2.1,0c-3.6,3-8.1,4.7-12.8,4.8c-10.7,0-18.7-8.9-18.7-19.4
			s8-19.5,18.7-19.5c4.8,0,9.3,1.8,12.9,4.9c0.5,0.6,1.3,0.7,1.9,0.2c0.1-0.1,0.1-0.1,0.2-0.2l5.1-5.3c0.6-0.6,0.7-1.6,0.1-2.2
			c0-0.1-0.1-0.1-0.2-0.1c-5.5-5.2-12.8-8-20.4-7.8C13.6,179.3,0,192.8,0,209.5V209.6"/>
	</g>
</g>
<g id="Layer_2_00000142888510098237343850000007363193837930719626_" class="st0">
	<g id="Layer_1-2_00000114072747921134604920000004107500738549652616_">
		<path class="st2" d="M620.1,81.7V43.3h9.6c10.9,0,18.9,7.7,18.9,19.1s-8,19.2-18.9,19.2L620.1,81.7L620.1,81.7z M609.2,90.3
			c0,0.8,0.7,1.5,1.5,1.6h19.9c16.2,0,29.4-13.1,29.4-29.4s-13.1-29.4-29.4-29.4l0,0h-19.9c-0.9,0-1.5,0.7-1.5,1.6V90.3z
			 M561.5,71.8l8.2-18.5h0.3l8.4,18.5H561.5z M543.5,91.9h7.3c1.1,0,2.1-0.7,2.4-1.7l4.1-9.1h25.1l4.1,9.1c0.3,1,1.3,1.7,2.4,1.7
			h7.3c0.8,0.1,1.5-0.5,1.6-1.4c0-0.3,0-0.6-0.2-0.8l-25.8-56.4c-0.2-0.6-0.8-1-1.4-0.9h-0.8c-0.6,0-1.2,0.4-1.4,0.9l-26.1,56.4
			c-0.4,0.7-0.1,1.6,0.6,2C542.9,91.9,543.2,91.9,543.5,91.9 M495.4,81.7V43.3h9.6c10.9,0,18.9,7.7,18.9,19.1s-8,19.2-18.9,19.2
			L495.4,81.7L495.4,81.7z M484.5,90.3c0,0.9,0.7,1.6,1.5,1.6h19.9c16.2,0,29.4-13.1,29.4-29.4s-13.1-29.4-29.4-29.4h-19.8
			c-0.9,0-1.5,0.7-1.5,1.6L484.5,90.3z M455.1,90.3c0,0.9,0.7,1.6,1.6,1.6h7.8c0.9,0,1.6-0.7,1.6-1.6V34.8c0-0.9-0.7-1.5-1.6-1.6
			h-7.8c-0.9,0-1.6,0.7-1.6,1.6V90.3z M414,91.8c0.2,0.6,0.8,0.9,1.4,0.9h0.8c0.6,0,1.2-0.4,1.4-0.9l26-56.4c0.4-0.7,0.1-1.6-0.6-2
			c-0.2-0.1-0.5-0.2-0.8-0.2h-8.6c-0.6,0-1.2,0.4-1.4,0.9L416,70.2h-0.4l-16.2-36.1c-0.3-0.6-0.8-0.9-1.4-0.9h-8.5
			c-0.8-0.1-1.5,0.5-1.6,1.3c0,0.3,0,0.6,0.2,0.8L414,91.8z M365.6,90.3c0,0.9,0.7,1.6,1.6,1.6h7.8c0.9,0,1.6-0.7,1.6-1.6V34.8
			c0-0.8-0.7-1.5-1.5-1.6h-7.8c-0.9,0-1.6,0.7-1.6,1.6L365.6,90.3z M326.7,90.3c0,0.9,0.7,1.6,1.6,1.6h7.8c0.9,0,1.6-0.7,1.6-1.6
			v-47h12.8c0.9,0.1,1.6-0.6,1.7-1.5v-0.1v-6.9c0-0.9-0.7-1.6-1.6-1.6H314c-0.9,0-1.6,0.7-1.6,1.6v6.9c0,0.9,0.7,1.6,1.6,1.6h12.8
			L326.7,90.3z M251.9,62.7c0,16.6,13.5,30.1,30.1,30c0.1,0,0.2,0,0.3,0c7.6,0.1,14.9-2.8,20.4-8.1c0.6-0.6,0.7-1.6,0.1-2.3l0,0
			l-5.2-5.4c-0.6-0.6-1.5-0.6-2.1,0c-3.6,3-8.1,4.7-12.8,4.8c-10.7,0-18.7-8.9-18.7-19.4s8-19.5,18.7-19.5c4.8,0,9.3,1.8,12.9,4.9
			c0.5,0.6,1.3,0.7,1.9,0.2c0.1-0.1,0.1-0.1,0.2-0.2l5.1-5.3c0.6-0.6,0.7-1.6,0.1-2.2c0-0.1-0.1-0.1-0.2-0.1
			c-5.5-5.2-12.8-8-20.4-7.8c-16.7,0-30.2,13.5-30.3,30.2C252,62.5,252,62.6,251.9,62.7 M203.9,90.3c0,0.9,0.7,1.6,1.6,1.6h34.1
			c0.9,0,1.6-0.7,1.6-1.6v-6.9c0-0.9-0.7-1.6-1.6-1.6h-24.8V67.1h20.7c0.9,0,1.6-0.7,1.6-1.6l0,0v-7c0-0.9-0.7-1.5-1.6-1.6h-20.7
			V43.3h24.8c0.9,0,1.6-0.7,1.6-1.6v-6.9c0-0.9-0.7-1.6-1.6-1.6h-34.1c-0.9,0-1.6,0.7-1.6,1.6V90.3z M135.9,90.3
			c0,0.9,0.7,1.6,1.6,1.6h7.6c0.9,0,1.6-0.7,1.6-1.6V54.2h0.2l34.4,37.9c0.4,0.4,0.9,0.6,1.4,0.6h1.2c0.9,0,1.6-0.7,1.6-1.5V34.8
			c0-0.9-0.7-1.6-1.6-1.6h-7.7c-0.9,0-1.6,0.7-1.6,1.6v34.6h-0.2l-34.2-36.5c-0.4-0.4-0.9-0.6-1.4-0.6h-1.3c-0.9,0-1.6,0.7-1.6,1.5
			L135.9,90.3z M71.5,62.7c0-10.6,8.5-19.3,19.2-19.3c10.6,0,19.3,8.5,19.3,19.2c0,10.6-8.5,19.3-19.2,19.3h-0.1
			C80.1,81.7,71.6,73.2,71.5,62.7 M60.6,62.6c0.3,16.6,14,29.9,30.7,29.6c16.2-0.3,29.3-13.4,29.6-29.6c0.3-16.6-13-30.4-29.6-30.7
			s-30.4,13-30.7,29.6C60.5,61.9,60.5,62.3,60.6,62.6 M0,62.6c0,16.6,13.4,30.1,30,30.1c0.1,0,0.2,0,0.2,0
			c7.6,0.1,14.9-2.8,20.4-8.1c0.6-0.6,0.7-1.6,0.1-2.2l0,0L45.5,77c-0.6-0.6-1.5-0.6-2.1,0c-3.6,3-8.1,4.7-12.8,4.8
			c-10.7,0-18.7-8.9-18.7-19.4s8-19.5,18.7-19.5c4.8,0,9.3,1.8,12.9,4.9c0.5,0.6,1.3,0.7,1.9,0.2c0.1-0.1,0.1-0.1,0.2-0.2l5.1-5.3
			c0.6-0.6,0.7-1.6,0.1-2.2c0-0.1-0.1-0.1-0.2-0.1c-5.5-5.2-12.8-8-20.4-7.8C13.6,32.3,0,45.8,0,62.6L0,62.6"/>
	</g>
</g>
<g id="Layer_1-2_00000114075256296761680430000008396079816307426698_" class="st0">
	<path class="st2" d="M312.4,151.7v-38.3h9.6c10.9,0,18.9,7.7,18.9,19.1s-8,19.2-18.9,19.2H312.4z M301.5,160.4
		c0,0.8,0.7,1.5,1.5,1.6h19.9c16.2,0,29.4-13.1,29.4-29.4s-13.1-29.4-29.4-29.4l0,0H303c-0.9,0-1.5,0.7-1.5,1.6V160.4z M253.7,141.9
		l8.2-18.5h0.3l8.4,18.5H253.7z M235.8,161.9h7.3c1.1,0,2.1-0.7,2.4-1.7l4.1-9.1h25.1l4.1,9.1c0.3,1,1.3,1.7,2.4,1.7h7.3
		c0.8,0.1,1.5-0.5,1.6-1.4c0-0.3,0-0.6-0.2-0.8l-25.8-56.4c-0.2-0.6-0.8-1-1.4-0.9h-0.8c-0.6,0-1.2,0.4-1.4,0.9l-26.1,56.4
		c-0.4,0.7-0.1,1.6,0.6,2C235.2,161.9,235.5,162,235.8,161.9 M187.6,151.7v-38.3h9.6c10.9,0,18.9,7.7,18.9,19.1s-8,19.2-18.9,19.2
		H187.6z M176.8,160.4c0,0.9,0.7,1.6,1.5,1.6h19.9c16.2,0,29.4-13.1,29.4-29.4s-13.1-29.4-29.4-29.4h-19.8c-0.9,0-1.5,0.7-1.5,1.6
		L176.8,160.4z M147.4,160.4c0,0.9,0.7,1.6,1.6,1.6h7.8c0.9,0,1.6-0.7,1.6-1.6v-55.5c0-0.9-0.7-1.5-1.6-1.6H149
		c-0.9,0-1.6,0.7-1.6,1.6V160.4z M106.3,161.9c0.2,0.6,0.8,0.9,1.4,0.9h0.8c0.6,0,1.2-0.4,1.4-0.9l26-56.4c0.4-0.7,0.1-1.6-0.6-2
		c-0.2-0.1-0.5-0.2-0.8-0.2H126c-0.6,0-1.2,0.4-1.4,0.9l-16.2,36.1H108l-16.2-36.1c-0.3-0.6-0.8-0.9-1.4-0.9h-8.5
		c-0.8-0.1-1.5,0.5-1.6,1.3c0,0.3,0,0.6,0.2,0.8L106.3,161.9z M57.9,160.4c0,0.9,0.7,1.6,1.6,1.6h7.8c0.9,0,1.6-0.7,1.6-1.6v-55.5
		c0-0.8-0.7-1.5-1.5-1.6h-7.8c-0.9,0-1.6,0.7-1.6,1.6L57.9,160.4z M19,160.4c0,0.9,0.7,1.6,1.6,1.6h7.8c0.9,0,1.6-0.7,1.6-1.6v-47.1
		h12.8c0.9,0.1,1.6-0.6,1.7-1.5v-0.1v-6.9c0-0.9-0.7-1.6-1.6-1.6H6.3c-0.9,0-1.6,0.7-1.6,1.6v6.9c0,0.9,0.7,1.6,1.6,1.6h12.8
		L19,160.4z"/>
</g>
<path class="st3" d="M617.6,132.5c0,16.6,13.5,30.1,30.1,30c0.1,0,0.2,0,0.3,0c7.6,0.1,14.9-2.8,20.4-8.1c0.6-0.6,0.7-1.6,0.1-2.3
	l0,0l-5.2-5.4c-0.6-0.6-1.5-0.6-2.1,0c-3.6,3-8.1,4.7-12.8,4.8c-10.7,0-18.7-8.9-18.7-19.4s8-19.5,18.7-19.5c4.8,0,9.3,1.8,12.9,4.9
	c0.5,0.6,1.3,0.7,1.9,0.2c0.1-0.1,0.1-0.1,0.2-0.2l5.1-5.3c0.6-0.6,0.7-1.6,0.1-2.2c0-0.1-0.1-0.1-0.2-0.1c-5.5-5.2-12.8-8-20.4-7.8
	c-16.7,0-30.2,13.5-30.3,30.2C617.7,132.3,617.7,132.4,617.6,132.5 M569.5,160.1c0,0.9,0.7,1.6,1.6,1.6h34.1c0.9,0,1.6-0.7,1.6-1.6
	v-6.9c0-0.9-0.7-1.6-1.6-1.6h-24.8v-14.7h20.7c0.9,0,1.6-0.7,1.6-1.6l0,0v-7c0-0.9-0.7-1.5-1.6-1.6h-20.7V113h24.8
	c0.9,0,1.6-0.7,1.6-1.6v-6.9c0-0.9-0.7-1.6-1.6-1.6h-34.1c-0.9,0-1.6,0.7-1.6,1.6V160.1z M501.5,160.1c0,0.9,0.7,1.6,1.6,1.6h7.6
	c0.9,0,1.6-0.7,1.6-1.6V124h0.2l34.4,37.9c0.4,0.4,0.9,0.6,1.4,0.6h1.2c0.9,0,1.6-0.7,1.6-1.5v-56.4c0-0.9-0.7-1.6-1.6-1.6h-7.7
	c-0.9,0-1.6,0.7-1.6,1.6v34.6H540l-34.2-36.5c-0.4-0.4-0.9-0.6-1.4-0.6h-1.3c-0.9,0-1.6,0.7-1.6,1.5V160.1z M437.1,132.5
	c0-10.6,8.5-19.3,19.2-19.3c10.6,0,19.3,8.5,19.3,19.2c0,10.6-8.5,19.3-19.2,19.3h-0.1C445.7,151.5,437.2,143,437.1,132.5
	 M426.2,132.4c0.3,16.6,14,29.9,30.7,29.6c16.2-0.3,29.3-13.4,29.6-29.6c0.3-16.6-13-30.4-29.6-30.7c-16.6-0.3-30.4,13-30.7,29.6
	C426.2,131.7,426.2,132,426.2,132.4 M365.6,132.4c0,16.6,13.4,30.1,30,30.1c0.1,0,0.2,0,0.2,0c7.6,0.1,14.9-2.8,20.4-8.1
	c0.6-0.6,0.7-1.6,0.1-2.2l0,0l-5.2-5.4c-0.6-0.6-1.5-0.6-2.1,0c-3.6,3-8.1,4.7-12.8,4.8c-10.7,0-18.7-8.9-18.7-19.4
	s8-19.5,18.7-19.5c4.8,0,9.3,1.8,12.9,4.9c0.5,0.6,1.3,0.7,1.9,0.2c0.1-0.1,0.1-0.1,0.2-0.2l5.1-5.3c0.6-0.6,0.7-1.6,0.1-2.2
	c0-0.1-0.1-0.1-0.2-0.1c-5.5-5.2-12.8-8-20.4-7.8C379.1,102.2,365.6,115.7,365.6,132.4C365.6,132.3,365.6,132.4,365.6,132.4"/>
<g id="Layer_1-2_00000107559554944054878610000002754434160942873259_" class="st0">
	<path class="st2" d="M312.4,305.9v-38.3h9.6c10.9,0,18.9,7.7,18.9,19.1s-8,19.2-18.9,19.2L312.4,305.9L312.4,305.9z M301.5,314.5
		c0,0.8,0.7,1.5,1.5,1.6h19.9c16.2,0,29.4-13.1,29.4-29.4c0-16.2-13.1-29.4-29.4-29.4l0,0H303c-0.9,0-1.5,0.7-1.5,1.6V314.5z
		 M253.7,296l8.2-18.5h0.3l8.4,18.5H253.7z M235.8,316.1h7.3c1.1,0,2.1-0.7,2.4-1.7l4.1-9.1h25.1l4.1,9.1c0.3,1,1.3,1.7,2.4,1.7h7.3
		c0.8,0.1,1.5-0.5,1.6-1.4c0-0.3,0-0.6-0.2-0.8l-25.8-56.4c-0.2-0.6-0.8-1-1.4-0.9h-0.8c-0.6,0-1.2,0.4-1.4,0.9l-26.1,56.4
		c-0.4,0.7-0.1,1.6,0.6,2C235.2,316.1,235.5,316.1,235.8,316.1 M187.6,305.9v-38.3h9.6c10.9,0,18.9,7.7,18.9,19.1s-8,19.2-18.9,19.2
		L187.6,305.9L187.6,305.9z M176.8,314.5c0,0.9,0.7,1.6,1.5,1.6h19.9c16.2,0,29.4-13.1,29.4-29.4c0-16.2-13.1-29.4-29.4-29.4h-19.8
		c-0.9,0-1.5,0.7-1.5,1.6L176.8,314.5z M147.4,314.5c0,0.9,0.7,1.6,1.6,1.6h7.8c0.9,0,1.6-0.7,1.6-1.6V259c0-0.9-0.7-1.5-1.6-1.6
		H149c-0.9,0-1.6,0.7-1.6,1.6V314.5z M106.3,316.1c0.2,0.6,0.8,0.9,1.4,0.9h0.8c0.6,0,1.2-0.4,1.4-0.9l26-56.4
		c0.4-0.7,0.1-1.6-0.6-2c-0.2-0.1-0.5-0.2-0.8-0.2H126c-0.6,0-1.2,0.4-1.4,0.9l-16.2,36.1H108l-16.2-36.1c-0.3-0.6-0.8-0.9-1.4-0.9
		h-8.5c-0.8-0.1-1.5,0.5-1.6,1.3c0,0.3,0,0.6,0.2,0.8L106.3,316.1z M57.9,314.5c0,0.9,0.7,1.6,1.6,1.6h7.8c0.9,0,1.6-0.7,1.6-1.6
		V259c0-0.8-0.7-1.5-1.5-1.6h-7.8c-0.9,0-1.6,0.7-1.6,1.6L57.9,314.5z M19,314.5c0,0.9,0.7,1.6,1.6,1.6h7.8c0.9,0,1.6-0.7,1.6-1.6
		v-47.1h12.8c0.9,0.1,1.6-0.6,1.7-1.5v-0.1V259c0-0.9-0.7-1.6-1.6-1.6H6.3c-0.9,0-1.6,0.7-1.6,1.6v6.9c0,0.9,0.7,1.6,1.6,1.6h12.8
		L19,314.5z"/>
</g>
<path class="st3" d="M617.6,286.7c0,16.6,13.5,30.1,30.1,30c0.1,0,0.2,0,0.3,0c7.6,0.1,14.9-2.8,20.4-8.1c0.6-0.6,0.7-1.6,0.1-2.3
	l0,0l-5.2-5.4c-0.6-0.6-1.5-0.6-2.1,0c-3.6,3-8.1,4.7-12.8,4.8c-10.7,0-18.7-8.9-18.7-19.4s8-19.5,18.7-19.5c4.8,0,9.3,1.8,12.9,4.9
	c0.5,0.6,1.3,0.7,1.9,0.2c0.1-0.1,0.1-0.1,0.2-0.2l5.1-5.3c0.6-0.6,0.7-1.6,0.1-2.2c0-0.1-0.1-0.1-0.2-0.1c-5.5-5.2-12.8-8-20.4-7.8
	c-16.7,0-30.2,13.5-30.3,30.2C617.7,286.5,617.7,286.5,617.6,286.7 M569.5,314.3c0,0.9,0.7,1.6,1.6,1.6h34.1c0.9,0,1.6-0.7,1.6-1.6
	v-6.9c0-0.9-0.7-1.6-1.6-1.6h-24.8v-14.7h20.7c0.9,0,1.6-0.7,1.6-1.6l0,0v-7c0-0.9-0.7-1.5-1.6-1.6h-20.7v-13.8h24.8
	c0.9,0,1.6-0.7,1.6-1.6v-6.9c0-0.9-0.7-1.6-1.6-1.6h-34.1c-0.9,0-1.6,0.7-1.6,1.6V314.3z M501.5,314.3c0,0.9,0.7,1.6,1.6,1.6h7.6
	c0.9,0,1.6-0.7,1.6-1.6v-36.1h0.2l34.4,37.9c0.4,0.4,0.9,0.6,1.4,0.6h1.2c0.9,0,1.6-0.7,1.6-1.5v-56.4c0-0.9-0.7-1.6-1.6-1.6h-7.7
	c-0.9,0-1.6,0.7-1.6,1.6v34.6H540l-34.2-36.5c-0.4-0.4-0.9-0.6-1.4-0.6h-1.3c-0.9,0-1.6,0.7-1.6,1.5V314.3z M437.1,286.6
	c0-10.6,8.5-19.3,19.2-19.3c10.6,0,19.3,8.5,19.3,19.2s-8.5,19.3-19.2,19.3h-0.1C445.7,305.7,437.2,297.1,437.1,286.6 M426.2,286.6
	c0.3,16.6,14,29.9,30.7,29.6c16.2-0.3,29.3-13.4,29.6-29.6c0.3-16.6-13-30.4-29.6-30.7s-30.4,13-30.7,29.6
	C426.2,285.9,426.2,286.2,426.2,286.6 M365.6,286.6c0,16.6,13.4,30.1,30,30.1c0.1,0,0.2,0,0.2,0c7.6,0.1,14.9-2.8,20.4-8.1
	c0.6-0.6,0.7-1.6,0.1-2.2l0,0l-5.2-5.4c-0.6-0.6-1.5-0.6-2.1,0c-3.6,3-8.1,4.7-12.8,4.8c-10.7,0-18.7-8.9-18.7-19.4
	s8-19.5,18.7-19.5c4.8,0,9.3,1.8,12.9,4.9c0.5,0.6,1.3,0.7,1.9,0.2c0.1-0.1,0.1-0.1,0.2-0.2l5.1-5.3c0.6-0.6,0.7-1.6,0.1-2.2
	c0-0.1-0.1-0.1-0.2-0.1c-5.5-5.2-12.8-8-20.4-7.8C379.1,256.4,365.6,269.9,365.6,286.6C365.6,286.5,365.6,286.5,365.6,286.6"/>
</svg>
