<svg xmlns="http://www.w3.org/2000/svg" viewBox="0 0 542.51 542.5"><g id="Layer_2" data-name="Layer 2"><g id="Layer_1-2" data-name="Layer 1"><path d="M411.25,140V35a8.74,8.74,0,0,0-8.75-8.75H315v17.5h78.75v87.5H315v17.5h87.5A8.74,8.74,0,0,0,411.25,140Z"/><path d="M131.25,35V140a8.74,8.74,0,0,0,8.75,8.75h78.75v-17.5h-70V43.75h70V26.25H140A8.74,8.74,0,0,0,131.25,35Z"/><path d="M113.75,175h315a8.74,8.74,0,0,0,8.75-8.75V8.75A8.74,8.74,0,0,0,428.75,0h-315A8.74,8.74,0,0,0,105,8.75v157.5A8.74,8.74,0,0,0,113.75,175ZM420,157.5H280v-10a34.93,34.93,0,0,0-8.75-68.76,17.5,17.5,0,1,1,17.5-17.5h17.5A35,35,0,0,0,280,27.49v-10H420ZM122.5,17.5h140v10a34.93,34.93,0,0,0,8.75,68.76,17.5,17.5,0,1,1-17.5,17.5h-17.5a35,35,0,0,0,26.25,33.76v10h-140Z"/><path d="M183.75,367.5H87.5V288.75A8.74,8.74,0,0,0,78.75,280h-35A8.74,8.74,0,0,0,35,288.75V402.5H8.75A8.74,8.74,0,0,0,0,411.25V472.5a8.74,8.74,0,0,0,2.56,6.19L35,511.12V525H17.5v17.5h175V525H175V509.57l16.58-33.16a8.81,8.81,0,0,0,.92-3.91V376.25a8.74,8.74,0,0,0-8.75-8.75ZM175,470.43l-16.58,33.15a8.86,8.86,0,0,0-.92,3.92V525H52.5V507.5a8.74,8.74,0,0,0-2.56-6.19L17.5,468.87V420H35v26.25H52.5V297.5H70V428.75H87.5V385H105v43.75h17.5V385H140v43.75h17.5V385H175Z"/><path d="M20.41,325.65l11.68-13a43.75,43.75,0,1,1,58.32,0l11.68,13a61.25,61.25,0,1,0-81.68,0Z"/><path d="M288.75,218.75h17.5v17.5h-17.5Z"/><path d="M253.75,218.75h17.5v17.5h-17.5Z"/><path d="M218.75,218.75h17.5v17.5h-17.5Z"/><path d="M183.75,218.75h17.5v17.5h-17.5Z"/><path d="M148.75,218.75h17.5v17.5h-17.5Z"/><path d="M288.75,306.25h17.5v17.5h-17.5Z"/><path d="M253.75,306.25h17.5v17.5h-17.5Z"/><path d="M218.75,306.25h17.5v17.5h-17.5Z"/><path d="M183.75,306.25h17.5v17.5h-17.5Z"/><path d="M148.75,306.25h17.5v17.5h-17.5Z"/><path d="M539.94,265.06l-78.75-78.75a8.75,8.75,0,0,0-14.94,6.19v26.25H323.75v17.5H455a8.74,8.74,0,0,0,8.75-8.75V213.62l57.63,57.63-57.63,57.63V315a8.74,8.74,0,0,0-8.75-8.75H323.75v17.5h122.5V350a8.74,8.74,0,0,0,5.4,8.08,8.56,8.56,0,0,0,3.35.67,8.72,8.72,0,0,0,6.19-2.57l78.75-78.75a8.74,8.74,0,0,0,0-12.37Z"/></g></g></svg>