<svg xmlns="http://www.w3.org/2000/svg" viewBox="0 0 527.06 526.44"><g id="Layer_2" data-name="Layer 2"><g id="Layer_1-2" data-name="Layer 1"><path d="M524.49,424.88l-29.75-29.75-17.86-41.77a8.81,8.81,0,0,0-1.86-2.74L407,282.56a26.87,26.87,0,0,0-37.12,0,26.06,26.06,0,0,0-6.61,11.59,25.83,25.83,0,0,0-30.73,17.72V43.75A43.8,43.8,0,0,0,288.75,0h-245A43.8,43.8,0,0,0,0,43.75v437.5A43.8,43.8,0,0,0,43.75,525h245a43.8,43.8,0,0,0,43.75-43.75v-.87l6.37,6.37a8.77,8.77,0,0,0,5.25,2.51l52.63,5.85,28.77,28.77h0a8.74,8.74,0,0,0,12.38,0l86.63-86.62a8.74,8.74,0,0,0,0-12.37ZM105,17.5h122.5V35H105ZM315,481.25a26.26,26.26,0,0,1-26.25,26.25h-245a26.24,26.24,0,0,1-26.25-26.25V43.75A26.24,26.24,0,0,1,43.76,17.5H87.51V35A17.5,17.5,0,0,0,105,52.5h122.5A17.51,17.51,0,0,0,245,35V17.5h43.75A26.26,26.26,0,0,1,315,43.75v271A24.37,24.37,0,0,0,302.9,327l-44.44-44.44a26,26,0,0,0-17.9-7.58,43.75,43.75,0,1,0-.71,63.25l38.28,38.28a26,26,0,0,0-7.31,42.16L315,462.87ZM221.32,319.7l6.12,6.12a26.25,26.25,0,1,1-6.12-43.24,26.24,26.24,0,0,0,0,37.12ZM431.68,505.31l-24.75-24.76a8.71,8.71,0,0,0-5.25-2.5l-52.63-5.86-65.89-65.88h0a8.75,8.75,0,0,1,12.33-12.4l37.18,37.18,12.37-12.37L233.7,307.33a8.75,8.75,0,0,1,0-12.39,8.93,8.93,0,0,1,12.39,0l80.41,80.44,6.2,6.19,12.37-12.37-24.81-24.8a8.75,8.75,0,0,1,12.4-12.34l24.74,24.75,12.37-12.37-18.56-18.56h0A8.75,8.75,0,1,1,363.6,313.5l6.12,6.17L382.09,332l12.37-12.37L382.17,307.3a8.75,8.75,0,0,1,0-12.36,9,9,0,0,1,12.38,0l66.86,66.86,17.9,41.77h0a9.16,9.16,0,0,0,1.86,2.74l24.75,24.75Z"/><path d="M119.83,245h92.85a26.17,26.17,0,0,0,25.89-21.94l15.06-90.37h0A8.75,8.75,0,0,0,245,122.5H220.33l7-42.31-17.26-2.88-7.53,45.19H129.91l-7.53-45.2-17.26,2.89,7.06,42.31H87.5a8.76,8.76,0,0,0-8.63,10.19l15.06,90.38h0A26.17,26.17,0,0,0,119.83,245ZM234.67,140l-13.36,80.18h0a8.76,8.76,0,0,1-8.63,7.32H119.82a8.76,8.76,0,0,1-8.63-7.32L97.83,140Z"/><path d="M157.51,157.5H175V210h-17.5Z"/><path d="M192.51,157.5H210V210h-17.5Z"/><path d="M122.51,157.5H140V210h-17.5Z"/><path d="M52.51,262.5H70V280H52.51Z"/><path d="M87.51,262.5H140V280H87.51Z"/><path d="M52.51,297.5H140V315H52.51Z"/><path d="M52.51,332.5H140V350H52.51Z"/><path d="M52.51,385h105v17.5h-105Z"/><path d="M175,385h17.5v17.5H175Z"/><path d="M210,385h17.5v17.5H210Z"/><path d="M52.51,420h175v17.5h-175Z"/></g></g></svg>