<svg xmlns="http://www.w3.org/2000/svg" viewBox="0 0 48.23 61.75"><defs><style>.cls-1{fill:#fdb71a;}</style></defs><g id="Layer_2" data-name="Layer 2"><g id="Layer_1-2" data-name="Layer 1"><path class="cls-1" d="M8.81,61.75l-1.89-.64,16-47.36.95.32.95-.31L40.1,61.12l-1.9.62L34.53,50.36H12.66Zm4.53-13.39H33.88L29.22,33.93h-11Zm5.55-16.43h9.69L23.84,17.26ZM7.65,31.62C7.34,31.44,0,27.1,0,15.5,0,4.4,7.35.17,7.67,0l1,1.75L8.15.87l.49.88C8.37,1.9,2,5.62,2,15.5,2,25.89,8.38,29.73,8.65,29.89Zm32.93,0-1-1.74c.27-.15,6.65-4,6.65-14.38,0-9.94-6.57-13.72-6.63-13.75l1-1.75c.31.17,7.66,4.4,7.66,15.5C48.23,27.1,40.89,31.44,40.58,31.62ZM13,26.49c-.2-.12-4.84-2.84-4.84-10.12S12.9,6.7,13.1,6.6l.84,1.82-.42-.91.43.91c-.15.07-3.76,1.89-3.76,8s3.68,8.29,3.83,8.38Zm22.17,0-1-1.74c.15-.09,3.82-2.31,3.82-8.38s-3.71-7.93-3.75-8l.84-1.82C35.33,6.7,40,9,40,16.37S35.4,26.37,35.2,26.49Z"/></g></g></svg>