<svg xmlns="http://www.w3.org/2000/svg" viewBox="0 0 56.76 53.89"><defs><style>.cls-1{fill:#fdb71a;}</style></defs><g id="Layer_2" data-name="Layer 2"><g id="Layer_1-2" data-name="Layer 1"><path class="cls-1" d="M51.36,39.52H13.12L7,2H0V0H7A2,2,0,0,1,9,1.69l5.82,35.83H51.36Z"/><path class="cls-1" d="M43,53.89a5.23,5.23,0,1,1,5.27-5.23A5.26,5.26,0,0,1,43,53.89Zm0-8.46a3.23,3.23,0,1,0,3.27,3.23A3.26,3.26,0,0,0,43,45.43ZM23.27,53.89a5.23,5.23,0,1,1,5.27-5.23A5.25,5.25,0,0,1,23.27,53.89Zm0-8.46a3.23,3.23,0,1,0,3.27,3.23A3.26,3.26,0,0,0,23.27,45.43Zm27.13-12H12.48L8,5.56H54.83a1.93,1.93,0,0,1,1.47.68,1.88,1.88,0,0,1,.44,1.54L53.17,31.07A2.77,2.77,0,0,1,50.4,33.43Zm-36.21-2H50.4a.8.8,0,0,0,.8-.66L54.75,7.56H10.37Z"/></g></g></svg>