<svg xmlns="http://www.w3.org/2000/svg" viewBox="0 0 361.66 536.67"><g id="Layer_2" data-name="Layer 2"><g id="Layer_1-2" data-name="Layer 1"><path d="M326.67,0H128.33a35,35,0,0,0-35,35v88.5L40.42,176.43h0a58,58,0,0,0-17.1,41.24V443.33H11.67A11.67,11.67,0,0,0,0,455v70a11.68,11.68,0,0,0,11.67,11.67H233.33A11.68,11.68,0,0,0,245,525V455a11.68,11.68,0,0,0-11.67-11.67H210v-1.16A58.41,58.41,0,0,0,256.66,385V350h70a35,35,0,0,0,35-35V35a35,35,0,0,0-35-35Zm-35,23.33V326.66H280V23.33Zm-163.34,0H256.67V326.66h-105v-6.83l53.75-53.75h0a58.82,58.82,0,0,0,16.15-30.54v-.18h0a59.12,59.12,0,0,0-16.19-51.82l-8.17-8.17h0a23.41,23.41,0,0,0-33.07,0l-46.26,46.29h-1.22V35a11.67,11.67,0,0,1,11.67-11.67Zm93.33,490H23.33V466.66H221.67ZM233.33,385a35,35,0,0,1-35,35,11.66,11.66,0,0,0-11.66,11.67v11.66h-140V217.66a35.2,35.2,0,0,1,10.25-24.74L93.33,156.5V245h29.4a11.66,11.66,0,0,0,8.25-3.42l49.77-49.69,8.17,8.17h0a35.66,35.66,0,0,1,9.79,31.11A35.17,35.17,0,0,1,189,249.64L131.8,306.81a11.67,11.67,0,0,0-3.47,8.19v35a35,35,0,0,1-35,35v23.33A58.4,58.4,0,0,0,151.67,350h81.67Zm105-70a11.66,11.66,0,0,1-11.66,11.67H315V23.34h11.67A11.64,11.64,0,0,1,338.33,35Z"/></g></g></svg>