<svg xmlns="http://www.w3.org/2000/svg" viewBox="0 0 53.29 53.89"><defs><style>.cls-1{fill:#fdb71a;}</style></defs><g id="Layer_2" data-name="Layer 2"><g id="Layer_1-2" data-name="Layer 1"><path class="cls-1" d="M51.49,33.9l-18,18.18a.4.4,0,0,1-.29.13.42.42,0,0,1-.3-.13L24.15,43.3a17.74,17.74,0,0,0-1-33.12V2.53A.84.84,0,0,1,24,1.69H42.29a.85.85,0,0,1,.84.84v29a1.68,1.68,0,0,0,1.67,1.68h6.39a.41.41,0,0,1,.39.26A.43.43,0,0,1,51.49,33.9Zm-49.81-7a15.86,15.86,0,1,1,15.86,16,15.94,15.94,0,0,1-15.86-16m51.45,5.87a2.1,2.1,0,0,0-1.94-1.3H44.81v-29A2.53,2.53,0,0,0,42.29,0H24a2.53,2.53,0,0,0-2.51,2.53V9.7a17.39,17.39,0,0,0-4-.46,17.68,17.68,0,0,0,0,35.36,17.28,17.28,0,0,0,4.85-.69l9.29,9.36a2.08,2.08,0,0,0,3,0l18-18.18a2.11,2.11,0,0,0,.46-2.3Z"/><path class="cls-1" d="M16.79,21.72h1.5a1.78,1.78,0,0,1,1.77,1.79.84.84,0,0,0,1.68,0A3.47,3.47,0,0,0,18.37,20v-.81a.84.84,0,1,0-1.67,0V20a3.47,3.47,0,0,0-3.36,3.48v.78a3.46,3.46,0,0,0,3.45,3.47h1.5a1.78,1.78,0,0,1,1.77,1.79v.78a1.78,1.78,0,0,1-1.77,1.79h-1.5A1.79,1.79,0,0,1,15,30.33v-.07a.84.84,0,1,0-1.67,0v.07a3.47,3.47,0,0,0,3.36,3.48v.81a.84.84,0,1,0,1.67,0v-.81a3.47,3.47,0,0,0,3.37-3.48v-.78a3.47,3.47,0,0,0-3.45-3.48h-1.5A1.78,1.78,0,0,1,15,24.29v-.78a1.79,1.79,0,0,1,1.78-1.79"/><path class="cls-1" d="M17.54,38.47A11.55,11.55,0,1,1,29,26.92,11.51,11.51,0,0,1,17.54,38.47m0-24.79A13.24,13.24,0,1,0,30.67,26.92,13.2,13.2,0,0,0,17.54,13.68"/></g></g></svg>