<svg xmlns="http://www.w3.org/2000/svg" viewBox="0 0 538.28 531.66"><g id="Layer_2" data-name="Layer 2"><g id="Layer_1-2" data-name="Layer 1"><path d="M530.27,168.73,447.61,87.36V26.43A26.43,26.43,0,0,0,421.18,0H116.93A26.43,26.43,0,0,0,90.5,26.43V87.59L8,168.73a26.91,26.91,0,0,0-8,19.15v59.69a63.66,63.66,0,0,0,63.67,63.67h2.69a63.54,63.54,0,0,0,49.67-24,63.54,63.54,0,0,0,49.67,24h2.64a63.54,63.54,0,0,0,49.67-24,63.54,63.54,0,0,0,49.67,24h2.69a63.54,63.54,0,0,0,49.67-24,63.55,63.55,0,0,0,49.9,24h2.68a63.56,63.56,0,0,0,49.68-24,63.53,63.53,0,0,0,49.67,24h2.69a63.66,63.66,0,0,0,63.61-63.67V187.88a26.9,26.9,0,0,0-8-19.15ZM118.45,28H419.62V79.46H118.45ZM102,247.57a35.73,35.73,0,0,1-35.67,35.67H63.68A35.71,35.71,0,0,1,28,247.57V196.5h74Zm102,0h0a35.71,35.71,0,0,1-35.73,35.67h-2.69A35.73,35.73,0,0,1,130,247.57V196.5h74.15Zm102,0h0a35.71,35.71,0,0,1-35.67,35.67h-2.69a35.71,35.71,0,0,1-35.67-35.67V196.5h74.09Zm102,0h0a35.71,35.71,0,0,1-35.67,35.67h-2.52a35.71,35.71,0,0,1-35.67-35.67V196.5h74Zm14-79.07h-374l62.05-61.1H428.08l62,61.1Zm88.15,79.07a35.68,35.68,0,0,1-35.68,35.67h-2.68a35.68,35.68,0,0,1-35.68-35.67V196.5h74ZM414.74,464.63a14,14,0,0,0,14-14v-84a14,14,0,0,0-14-14H302.07a14,14,0,0,0-14,14v84a14,14,0,0,0,14,14Zm-98.95-84H401v56H316.07Zm208.27,123.2H488.11V342.66a14,14,0,1,0-28,0v161H252.91v-137a14,14,0,0,0-14-14H132.12a14,14,0,0,0-14.17,14v137H78.18v-161a14,14,0,0,0-28,0v161H14a14,14,0,0,0,0,28H524.28a14,14,0,1,0,0-28Zm-299.1,0h-79V380.63h79.24Z"/></g></g></svg>