<?xml version="1.0" encoding="utf-8"?>
<!-- Generator: Adobe Illustrator 26.0.3, SVG Export Plug-In . SVG Version: 6.00 Build 0)  -->
<svg version="1.1" id="Capa_1" xmlns="http://www.w3.org/2000/svg" xmlns:xlink="http://www.w3.org/1999/xlink" x="0px" y="0px"
	 viewBox="0 0 56.8 53.9" style="enable-background:new 0 0 56.8 53.9;" xml:space="preserve">
<style type="text/css">
	.st0{fill:#FFFFFF;}
</style>
<g id="Layer_2">
	<g id="Layer_1-2">
		<path class="st0" d="M51.4,39.5H13.1L7,2H0V0h7c1,0,1.8,0.7,2,1.7l5.8,35.8h36.5V39.5z"/>
		<path class="st0" d="M43,53.9c-2.9,0-5.2-2.4-5.2-5.3c0-2.9,2.4-5.2,5.3-5.2c2.9,0,5.2,2.4,5.2,5.2C48.3,51.6,45.9,53.9,43,53.9z
			 M43,45.4c-1.8,0-3.2,1.5-3.2,3.3c0,1.8,1.5,3.2,3.3,3.2c1.8,0,3.2-1.5,3.2-3.2C46.3,46.9,44.8,45.4,43,45.4z M23.3,53.9
			c-2.9,0-5.2-2.4-5.2-5.3c0-2.9,2.4-5.2,5.3-5.2c2.9,0,5.2,2.4,5.2,5.2C28.5,51.6,26.2,53.9,23.3,53.9
			C23.3,53.9,23.3,53.9,23.3,53.9z M23.3,45.4c-1.8,0-3.2,1.5-3.2,3.3c0,1.8,1.5,3.2,3.3,3.2c1.8,0,3.2-1.5,3.2-3.2
			C26.5,46.9,25.1,45.4,23.3,45.4z M50.4,33.4H12.5L8,5.6h46.8c0.6,0,1.1,0.2,1.5,0.7c0.4,0.4,0.5,1,0.4,1.5l-3.6,23.3
			C53,32.4,51.8,33.4,50.4,33.4z M14.2,31.4h36.2c0.4,0,0.7-0.3,0.8-0.7l3.5-23.2H10.4L14.2,31.4z"/>
	</g>
</g>
</svg>
