<?xml version="1.0" encoding="utf-8"?>
<!-- Generator: Adobe Illustrator 26.0.3, SVG Export Plug-In . SVG Version: 6.00 Build 0)  -->
<svg version="1.1" id="Capa_1" xmlns="http://www.w3.org/2000/svg" xmlns:xlink="http://www.w3.org/1999/xlink" x="0px" y="0px"
	 viewBox="0 0 361.7 536.7" style="enable-background:new 0 0 361.7 536.7;" xml:space="preserve">
<style type="text/css">
	.st0{fill:#FFFFFF;}
</style>
<g id="Layer_2">
	<g id="Layer_1-2">
		<path class="st0" d="M326.7,0H128.3c-19.3,0-35,15.7-35,35v88.5l-52.9,52.9l0,0c-11,10.9-17.1,25.8-17.1,41.2v225.7H11.7
			C5.2,443.3,0,448.6,0,455c0,0,0,0,0,0v70c0,6.4,5.2,11.7,11.7,11.7h221.7c6.4,0,11.7-5.2,11.7-11.7v-70c0-6.4-5.2-11.7-11.7-11.7
			H210v-1.2c27.1-5.6,46.6-29.5,46.7-57.2v-35h70c19.3,0,35-15.7,35-35V35C361.7,15.7,346,0,326.7,0L326.7,0z M291.7,23.3v303.3H280
			V23.3H291.7z M128.3,23.3h128.3v303.3h-105v-6.8l53.8-53.8l0,0c8.3-8.3,13.9-19,16.1-30.5v-0.2l0,0c3.3-18.9-2.7-38.2-16.2-51.8
			l-8.2-8.2l0,0c-9.1-9.1-23.9-9.1-33.1,0l-46.3,46.3h-1.2V35C116.7,28.6,121.9,23.3,128.3,23.3z M221.7,513.3H23.3v-46.7h198.3
			L221.7,513.3z M233.3,385c0,19.3-15.7,35-35,35l0,0c-6.4,0-11.7,5.2-11.7,11.7c0,0,0,0,0,0v11.7h-140V217.7
			c0-9.3,3.7-18.2,10.2-24.7l36.4-36.4V245h29.4c3.1,0,6.1-1.2,8.3-3.4l49.8-49.7l8.2,8.2l0,0c8.1,8.2,11.7,19.8,9.8,31.1
			c-1.3,7-4.7,13.4-9.7,18.5l-57.2,57.2c-2.2,2.2-3.4,5.1-3.5,8.2v35c0,19.3-15.7,35-35,35l0,0v23.3c32.2,0,58.3-26.1,58.3-58.3
			h81.7L233.3,385z M338.3,315c0,6.4-5.2,11.7-11.6,11.7c0,0,0,0,0,0H315V23.3h11.7c6.4,0,11.6,5.2,11.7,11.6c0,0,0,0,0,0L338.3,315
			z"/>
	</g>
</g>
</svg>
