<svg xmlns="http://www.w3.org/2000/svg" viewBox="0 0 19.69 10.91"><defs><style>.cls-1{fill:#a6a5a7;}</style></defs><g id="Layer_2" data-name="Layer 2"><g id="Layer_1-2" data-name="Layer 1"><path class="cls-1" d="M12.92,5.45a1,1,0,0,1,1-1h0a1,1,0,0,1,1,1h0a1,1,0,0,1-1,1h0A1,1,0,0,1,12.92,5.45Zm-4.31,0a1,1,0,0,1,1-1h0a1,1,0,0,1,1,1h0a1,1,0,0,1-1,1h0A1,1,0,0,1,8.61,5.45Zm-4.31,0a1,1,0,0,1,1-1h0a1,1,0,0,1,1,1h0a1,1,0,0,1-1,1h0A1,1,0,0,1,4.3,5.45ZM0,5.45a1,1,0,0,1,1-1H1a1,1,0,0,1,1,1H2a1,1,0,0,1-1,1H1A1,1,0,0,1,0,5.45Z"/><polygon class="cls-1" points="13.82 10.91 12.46 9.45 16.76 5.46 12.46 1.47 13.82 0 19.69 5.46 13.82 10.91"/></g></g></svg>