<svg xmlns="http://www.w3.org/2000/svg" viewBox="0 0 560.05 559.99"><g id="Layer_2" data-name="Layer 2"><g id="Layer_1-2" data-name="Layer 1"><path d="M430.15,307l-92-77.44a8.75,8.75,0,0,0-11.82.51l-7.81,7.82a59.56,59.56,0,0,0,0,84.24l42.25,42.26A8.75,8.75,0,0,0,373.18,352l-42.25-42.26a42.08,42.08,0,0,1,0-59.5l2.13-2.14,85.78,72.23c41,34.9,48.28,91.66,16.26,129.73l-37.56,52.38a96.11,96.11,0,0,1-78,40H259.2a95.34,95.34,0,0,1-67.84-28.1l-21.84-21.84a8.75,8.75,0,0,0-12.37,12.38L179,526.77A112.67,112.67,0,0,0,259.2,560h60.38a113.67,113.67,0,0,0,92.18-47.33l37.14-51.85c37.89-45,29.67-112.55-18.75-153.83Z"/><path d="M375.75,446.25v-52.5a8.75,8.75,0,0,0-17.5,0v8.75H130.75V26.25a8.77,8.77,0,0,1,8.75-8.75H192v8.75A26.29,26.29,0,0,0,218.25,52.5h52.5A26.28,26.28,0,0,0,297,26.25V17.5h52.5a8.76,8.76,0,0,1,8.75,8.75V227.5a8.75,8.75,0,0,0,17.5,0V26.25A26.28,26.28,0,0,0,349.5,0h-210a26.29,26.29,0,0,0-26.25,26.25V141.86c-13-6.9-29-5.7-40,4.25a34.68,34.68,0,0,0-11,19.55c-12.7-6-27.89-4.33-38.47,5.2A34.78,34.78,0,0,0,12.12,196a35.21,35.21,0,0,0,10.24,25.68l3.3,3.29a34.72,34.72,0,0,0-17,10.43C-3.75,249.2-2.72,270.8,11.05,284.56l14.62,14.62a34.84,34.84,0,0,0-17,10.43C-3.74,323.44-2.72,345,11.05,358.81l70.34,70.34a8.75,8.75,0,0,0,12.38-12.38L23.43,346.43c-7.06-7.05-7.83-18.31-1.71-25.11a17.52,17.52,0,0,1,25.38-.73l66.19,66.2v59.46a26.28,26.28,0,0,0,26.25,26.25h210a26.27,26.27,0,0,0,26.21-26.25Zm-96.25-420A8.76,8.76,0,0,1,270.75,35h-52.5a8.77,8.77,0,0,1-8.75-8.75V17.5h70ZM84.9,159.12C91.69,153,103,153.76,110,160.83l3.23,3.23v49.5l-29-29h0a17.52,17.52,0,0,1,.68-25.41ZM35.42,183.87c6.79-6.11,18.07-5.34,25.1,1.7l52.73,52.73v49.5L34.72,209.28a17.52,17.52,0,0,1,.7-25.41Zm24,124.4L23.41,272.19c-7.07-7.05-7.84-18.31-1.71-25.12a17.34,17.34,0,0,1,12.57-5.8,17.57,17.57,0,0,1,12.8,5.08l66.2,66.19V362Zm71.29,138V420h227.5v26.25a8.77,8.77,0,0,1-8.75,8.75h-210a8.75,8.75,0,0,1-8.75-8.75Z"/><path d="M245.31,183.75h-18a8.75,8.75,0,0,0,0,17.5h9V210a8.75,8.75,0,0,0,17.5,0V199.72a26.18,26.18,0,0,0-9-51,8.75,8.75,0,1,1,0-17.5h18a8.75,8.75,0,0,0,0-17.5h-9V105a8.75,8.75,0,0,0-17.5,0v10.28a26.19,26.19,0,0,0,9,51,8.75,8.75,0,0,1,0,17.5Z"/><path d="M148.81,297.5a43.8,43.8,0,0,0,43.75,43.75h105a8.75,8.75,0,0,0,0-17.5h-105a26.25,26.25,0,0,1,0-52.5h87.5a8.75,8.75,0,0,0,0-17.5h-87.5a43.8,43.8,0,0,0-43.75,43.75Z"/><path d="M481.3,140a78.75,78.75,0,1,0,78.75,78.75A78.84,78.84,0,0,0,481.3,140Zm0,140a61.25,61.25,0,1,1,61.25-61.25A61.33,61.33,0,0,1,481.3,280Z"/><path d="M501.36,195.06l-28.81,28.82-11.31-11.32a8.75,8.75,0,0,0-12.37,12.37l17.5,17.5a8.73,8.73,0,0,0,12.37,0l35-35a8.75,8.75,0,0,0-12.37-12.37Z"/><path d="M280.05,288.75h-70a8.75,8.75,0,0,0,0,17.5h70a8.75,8.75,0,0,0,0-17.5Z"/></g></g></svg>