<?xml version="1.0" encoding="utf-8"?>
<!-- Generator: Adobe Illustrator 26.0.3, SVG Export Plug-In . SVG Version: 6.00 Build 0)  -->
<svg version="1.1" id="Capa_1" xmlns="http://www.w3.org/2000/svg" xmlns:xlink="http://www.w3.org/1999/xlink" x="0px" y="0px"
	 viewBox="0 0 547.9 61.2" style="enable-background:new 0 0 547.9 61.2;" xml:space="preserve">
<style type="text/css">
	.st0{opacity:0.5;}
	.st1{fill:#FFFFFF;}
</style>
<g id="Layer_2" class="st0">
	<g id="Layer_1-2">
		<path class="st1" d="M511,40l8.3-18.7h0.2L528,40H511z M492.8,60.3h7.4c1.1,0,2.1-0.7,2.5-1.7l4.2-9.2h25.4l4.2,9.2
			c0.3,1.1,1.4,1.8,2.5,1.7h7.4c0.8,0.1,1.6-0.5,1.6-1.4c0-0.3,0-0.6-0.2-0.8L521.5,0.9c-0.2-0.6-0.8-1-1.5-0.9h-0.8
			c-0.6,0-1.2,0.4-1.4,0.9l-26.4,57.2c-0.4,0.7-0.1,1.6,0.6,2C492.2,60.3,492.5,60.4,492.8,60.3 M416.5,58.3
			c-0.2,0.8,0.2,1.7,1.1,1.9c0.2,0.1,0.4,0.1,0.6,0.1h7.6c0.7,0,1.4-0.6,1.5-1.3l4.9-32.2h0.3l15,33.4c0.2,0.6,0.8,1,1.5,0.9h1.5
			c0.6,0,1.2-0.3,1.4-0.9l14.9-33.4h0.2l5,32.2c0.2,0.7,0.9,1.2,1.6,1.3h7.7c0.8,0.1,1.5-0.5,1.6-1.3c0-0.2,0-0.5-0.1-0.7l-10-57.1
			c-0.1-0.7-0.8-1.3-1.5-1.2H470c-0.6,0-1.2,0.3-1.5,0.9L449.9,41h-0.2L430.9,0.9c-0.3-0.5-0.8-0.9-1.5-0.9H428
			c-0.8-0.1-1.4,0.5-1.5,1.3L416.5,58.3z M366.5,58.7c0,0.9,0.7,1.6,1.6,1.6h34.6c0.9,0,1.6-0.7,1.6-1.6v-7c0-0.9-0.7-1.6-1.6-1.6
			l0,0h-25.1V35.3h21c0.9,0,1.6-0.7,1.6-1.6v-7.1c0-0.9-0.7-1.6-1.6-1.6h-21V11.1h25.2c0.9,0,1.6-0.7,1.6-1.6v-7
			c0-0.9-0.7-1.6-1.6-1.6h-34.6c-0.9,0-1.6,0.7-1.6,1.6L366.5,58.7z M327,58.7c0,0.9,0.7,1.6,1.6,1.6h7.9c0.9,0,1.6-0.7,1.6-1.6
			V11.1h13c0.9,0,1.6-0.7,1.6-1.6v-7c0-0.9-0.7-1.6-1.6-1.6H314c-0.9,0-1.6,0.7-1.6,1.6v7c0,0.9,0.7,1.6,1.6,1.6h13V58.7z
			 M283.1,61.2c12,0,19.5-8.1,19.5-16.8c0-11-9.5-15.9-17.8-19.2c-6.9-2.8-10-5.5-10-9.5c0-3.2,2.6-6,7.5-6c4.7,0,8.2,2.4,11.8,4.7
			c1,0.7,2.3,0,3-1l3.2-4.9c0.6-0.9,0.4-2.1-0.5-2.8c-5-3.6-10.9-5.6-17-5.7c-13.5,0-19.1,8.8-19.1,16.3c0,10,8,15.1,16,18.4
			c7.1,2.9,10.8,5.9,10.8,10.2c0,3.7-3.3,6.5-7.7,6.5c-5.5,0-9.4-2.6-12.8-5.3c-0.9-0.6-2.1-0.4-2.8,0.5l-0.1,0.1L264,52
			c-0.8,1.4-0.4,1.9,0.4,2.5C266.9,56.7,272.4,61.2,283.1,61.2 M237.1,58.7c0,0.9,0.7,1.6,1.6,1.6h7.9c0.9,0,1.6-0.7,1.6-1.6V2.5
			c0-0.9-0.7-1.6-1.6-1.6h-7.9c-0.9,0-1.6,0.7-1.6,1.6V58.7z M202.7,61.2c12,0,19.6-8.1,19.6-16.8c0-11-9.5-15.9-17.8-19.2
			c-6.9-2.8-10-5.5-10-9.5c0-3.2,2.6-6,7.5-6c4.7,0,8.2,2.4,11.8,4.7c1,0.7,2.3,0,3-1l3.2-4.8c0.6-0.9,0.4-2.1-0.5-2.8
			c-5-3.6-10.9-5.6-17-5.7c-13.5,0-19.2,8.8-19.2,16.3c0,10,8,15.1,16,18.4c7.1,2.9,10.8,5.9,10.8,10.2c0,3.7-3.3,6.5-7.7,6.5
			c-5.5,0-9.4-2.6-12.8-5.3c-0.9-0.6-2.1-0.4-2.8,0.5l-0.1,0.1l-3.1,5.2c-0.8,1.4-0.4,1.9,0.4,2.5C186.5,56.7,192,61.2,202.7,61.2
			 M121.2,30.7c0-10.8,8.7-19.5,19.5-19.5s19.5,8.7,19.5,19.5s-8.7,19.5-19.5,19.5h-0.1C130,50,121.3,41.4,121.2,30.7 M110.2,30.7
			c0.3,16.9,14.2,30.3,31.1,30c16.4-0.3,29.7-13.6,30-30c0.3-16.9-13.1-30.8-30-31.1s-30.8,13.1-31.1,30
			C110.2,29.9,110.2,30.3,110.2,30.7 M48.8,30.7c0,16.8,13.6,30.5,30.4,30.5c0.1,0,0.1,0,0.2,0c7.7,0.1,15.1-2.8,20.7-8.2
			c0.7-0.6,0.7-1.6,0.1-2.3l0,0l-5.3-5.4c-0.6-0.6-1.5-0.6-2.1,0c-3.6,3.1-8.2,4.8-13,4.8c-10.9,0-19-9-19-19.6s8.1-19.8,19-19.8
			c4.8,0,9.5,1.8,13.1,5c0.5,0.6,1.3,0.7,1.9,0.2c0.1-0.1,0.1-0.1,0.2-0.2l5.2-5.4c0.6-0.6,0.6-1.6,0-2.2C100.1,8,100.1,8,100,7.9
			C94.5,2.7,87.1-0.2,79.5,0C62.6,0,48.8,13.6,48.8,30.6C48.8,30.6,48.8,30.6,48.8,30.7 M0,58.7c0,0.9,0.7,1.6,1.6,1.6h34.6
			c0.9,0,1.6-0.7,1.6-1.6v-7c0-0.9-0.7-1.6-1.6-1.6l0,0H11.1V35.3h21c0.9,0,1.6-0.7,1.6-1.6l0,0v-7.1c0-0.9-0.7-1.6-1.6-1.6H11V11.1
			h25.2c0.9,0,1.6-0.7,1.6-1.6v-7c0-0.9-0.7-1.6-1.6-1.6H1.6C0.7,0.9,0,1.6,0,2.5l0,0V58.7z"/>
	</g>
</g>
</svg>
