<svg xmlns="http://www.w3.org/2000/svg" viewBox="0 0 560.61 61.5"><defs><style>.cls-1{fill:#231f20;}</style></defs><g id="Layer_2" data-name="Layer 2"><g id="Layer_1-2" data-name="Layer 1"><path class="cls-1" d="M540.91,61.5c-11.07,0-16.69-4.84-18.8-6.67-.93-.74-1.24-1.34-.46-2.73l3.06-5.28a2,2,0,0,1,1.4-1,2.17,2.17,0,0,1,1.72.38c3.65,2.76,7.37,5.24,12.74,5.24,4.25,0,7.58-2.81,7.58-6.4,0-4-3.2-7-10.7-10.06-6.9-2.79-16.07-7.74-16.07-18.5,0-7.93,6-16.47,19.27-16.47a30.16,30.16,0,0,1,17.09,5.73A1.92,1.92,0,0,1,558.58,7a2.29,2.29,0,0,1-.29,1.72l-3.23,4.84a3.27,3.27,0,0,1-1.43,1.2,1.83,1.83,0,0,1-1.75-.14l-.64-.4c-3.46-2.18-6.74-4.25-11.1-4.25-5.06,0-7.33,2.91-7.33,5.8,0,3.79,2.88,6.51,9.94,9.38,4,1.59,8.49,3.64,12,6.76a16.07,16.07,0,0,1,5.84,12.59C560.61,52.75,553.7,61.5,540.91,61.5ZM526.54,46.06a2.21,2.21,0,0,0-.37,0A1.74,1.74,0,0,0,525,47l-3.06,5.28c-.71,1.27-.41,1.71.39,2.35,2.1,1.81,7.65,6.6,18.61,6.6,12.6,0,19.4-8.59,19.4-16.68,0-5.92-2.1-12.81-17.67-19.07-7.19-2.93-10.13-5.73-10.13-9.66,0-3,2.36-6.1,7.63-6.1,4.45,0,7.76,2.09,11.26,4.3l.64.4a1.56,1.56,0,0,0,1.48.11,2.91,2.91,0,0,0,1.29-1.09L558,8.57a2,2,0,0,0,.25-1.49A1.71,1.71,0,0,0,557.58,6,30,30,0,0,0,540.65.3c-9.14,0-19,5.06-19,16.17,0,10.58,9.06,15.46,15.88,18.22,7.64,3.09,10.89,6.18,10.89,10.34,0,3.75-3.46,6.7-7.88,6.7-5.47,0-9.23-2.51-12.93-5.31A1.83,1.83,0,0,0,526.54,46.06Zm-75,15.44h-1.19a2,2,0,0,1-1.55-.64L414.07,22.54V58.89a1.76,1.76,0,0,1-1.76,1.76h-7.74a1.8,1.8,0,0,1-1.76-1.76V1.68A1.74,1.74,0,0,1,404.57,0h1.28a2,2,0,0,1,1.55.64L442,37.52V2.62A1.77,1.77,0,0,1,443.76.85h7.82a1.8,1.8,0,0,1,1.76,1.77v57.2A1.75,1.75,0,0,1,451.58,61.5ZM413.77,22.19h.39l0,0,34.85,38.42a1.72,1.72,0,0,0,1.34.55h1.19A1.44,1.44,0,0,0,453,59.82V2.62a1.53,1.53,0,0,0-1.46-1.47h-7.82a1.47,1.47,0,0,0-1.47,1.47V37.87h-.38l-.05,0L407.18.85A1.7,1.7,0,0,0,405.85.3h-1.28a1.44,1.44,0,0,0-1.46,1.38V58.89a1.52,1.52,0,0,0,1.46,1.46h7.74a1.47,1.47,0,0,0,1.46-1.46ZM357.14,61.5a30.47,30.47,0,0,1-30.66-30.67A30.78,30.78,0,0,1,335.4,9a30.73,30.73,0,0,1,52.49,21.82A30.56,30.56,0,0,1,357.14,61.5Zm0-61.2a30.1,30.1,0,0,0-21.52,8.92,30.47,30.47,0,0,0-8.84,21.61,30.41,30.41,0,1,0,60.81,0A30.39,30.39,0,0,0,357.14.3ZM264.75,61.5a30.74,30.74,0,0,1-21.82-8.93,30.83,30.83,0,0,1,0-43.56,30.64,30.64,0,0,1,21.82-9,29,29,0,0,1,20.67,7.94,1.76,1.76,0,0,1,.63,1.29,1.72,1.72,0,0,1-.54,1.31l-5.18,5.35a1.48,1.48,0,0,1-1.09.56A1.66,1.66,0,0,1,278,15.9a19.93,19.93,0,0,0-13-5c-10.55,0-18.81,8.64-18.81,19.66a19.79,19.79,0,0,0,5.4,13.7,18.42,18.42,0,0,0,13.49,5.78A20.15,20.15,0,0,0,278,45.25a1.73,1.73,0,0,1,2.33,0l5.27,5.45a1.41,1.41,0,0,1,.48,1.06,2,2,0,0,1-.57,1.44A29.21,29.21,0,0,1,264.75,61.5Zm0-61.2a30.46,30.46,0,0,0-30.53,30.53,30.06,30.06,0,0,0,8.92,21.53,30.46,30.46,0,0,0,21.61,8.84A28.93,28.93,0,0,0,285.3,53a1.72,1.72,0,0,0,.48-1.22,1.17,1.17,0,0,0-.39-.86l-5.28-5.45a1.42,1.42,0,0,0-1.92,0,20.46,20.46,0,0,1-13.1,4.88,18.73,18.73,0,0,1-13.71-5.87,20.13,20.13,0,0,1-5.48-13.91c0-11.19,8.39-20,19.11-20a20.29,20.29,0,0,1,13.19,5.06,1.38,1.38,0,0,0,1,.47,1.22,1.22,0,0,0,.88-.46l5.19-5.36a1.43,1.43,0,0,0,.45-1.09,1.48,1.48,0,0,0-.53-1.07A28.7,28.7,0,0,0,264.75.3Zm-69,61.2A24.26,24.26,0,0,1,178.81,55,22.36,22.36,0,0,1,172,38.66v-36A1.81,1.81,0,0,1,173.72.85h8.07a1.77,1.77,0,0,1,1.77,1.77V38.06c0,7.23,4.89,12.09,12.17,12.09S208,45.21,208,38.15V2.62A1.77,1.77,0,0,1,209.76.85h8.07a1.81,1.81,0,0,1,1.77,1.77v36C219.6,51.68,209.34,61.5,195.73,61.5Zm-22-60.35a1.53,1.53,0,0,0-1.47,1.47v36c0,12.85,10.1,22.54,23.48,22.54s23.57-9.69,23.57-22.54v-36a1.53,1.53,0,0,0-1.47-1.47h-8.07a1.47,1.47,0,0,0-1.47,1.47V38.15c0,7.24-5.16,12.3-12.56,12.3s-12.47-5-12.47-12.39V2.62a1.47,1.47,0,0,0-1.47-1.47ZM81.07,61.5A30.47,30.47,0,0,1,50.41,30.83,30.78,30.78,0,0,1,59.33,9a30.78,30.78,0,0,1,43.52,0A30.71,30.71,0,0,1,81.07,61.5Zm0-61.2A30.12,30.12,0,0,0,59.54,9.22a30.46,30.46,0,0,0-8.83,21.61,30.41,30.41,0,1,0,60.81,0A30.39,30.39,0,0,0,81.07.3ZM19.7,61.5C8.64,61.5,3,56.66.9,54.83,0,54.09-.34,53.49.45,52.1l3.06-5.28a2,2,0,0,1,1.39-1,2.16,2.16,0,0,1,1.72.38C10.27,49,14,51.43,19.36,51.43c4.25,0,7.59-2.81,7.59-6.4,0-4-3.2-7-10.7-10.06C9.34,32.18.17,27.23.17,16.47.17,8.54,6.2,0,19.45,0A30.19,30.19,0,0,1,36.54,5.73,2,2,0,0,1,37.38,7a2.24,2.24,0,0,1-.3,1.72l-3.23,4.84a3.22,3.22,0,0,1-1.43,1.2,1.83,1.83,0,0,1-1.75-.14l-.63-.4C26.57,12.06,23.3,10,18.94,10c-5.07,0-7.33,2.91-7.33,5.8,0,3.79,2.87,6.51,9.93,9.38,4,1.59,8.49,3.64,12,6.76A16.07,16.07,0,0,1,39.4,44.52C39.4,52.75,32.5,61.5,19.7,61.5ZM5.33,46.06a2.33,2.33,0,0,0-.37,0A1.73,1.73,0,0,0,3.77,47L.71,52.25C0,53.52.29,54,1.09,54.6c2.1,1.81,7.66,6.6,18.61,6.6,12.6,0,19.4-8.59,19.4-16.68,0-5.92-2.1-12.81-17.67-19.07-7.19-2.93-10.12-5.73-10.12-9.66,0-3,2.36-6.1,7.63-6.1,4.44,0,7.75,2.09,11.26,4.3l.63.4c1,.63,2.14,0,2.77-1l3.23-4.84a1.93,1.93,0,0,0,.25-1.49A1.66,1.66,0,0,0,36.37,6,30,30,0,0,0,19.45.3C10.31.3.47,5.36.47,16.47c0,10.58,9.07,15.46,15.89,18.22C24,37.78,27.25,40.87,27.25,45c0,3.75-3.47,6.7-7.89,6.7-5.46,0-9.23-2.51-12.92-5.31A1.86,1.86,0,0,0,5.33,46.06ZM508.1,60.65H473.5a1.76,1.76,0,0,1-1.76-1.76V2.62A1.76,1.76,0,0,1,473.5.85h34.6a1.76,1.76,0,0,1,1.76,1.77v7a1.76,1.76,0,0,1-1.76,1.77h-25V25h20.84a1.81,1.81,0,0,1,1.77,1.76v7.06a1.77,1.77,0,0,1-1.77,1.77H483.09V50.15h25a1.76,1.76,0,0,1,1.76,1.77v7A1.76,1.76,0,0,1,508.1,60.65ZM473.5,1.15A1.47,1.47,0,0,0,472,2.62V58.89a1.47,1.47,0,0,0,1.46,1.46h34.6a1.46,1.46,0,0,0,1.46-1.46v-7a1.46,1.46,0,0,0-1.46-1.47H482.79V35.28h21.14a1.47,1.47,0,0,0,1.47-1.47V26.75a1.53,1.53,0,0,0-1.47-1.46H482.79V11.05H508.1a1.46,1.46,0,0,0,1.46-1.47v-7a1.46,1.46,0,0,0-1.46-1.47ZM309.8,60.65h-7.91a1.8,1.8,0,0,1-1.76-1.76V2.62A1.8,1.8,0,0,1,301.89.85h7.91a1.8,1.8,0,0,1,1.76,1.77V58.89A1.8,1.8,0,0,1,309.8,60.65Zm-7.91-59.5a1.53,1.53,0,0,0-1.46,1.47V58.89a1.52,1.52,0,0,0,1.46,1.46h7.91a1.52,1.52,0,0,0,1.46-1.46V2.62a1.52,1.52,0,0,0-1.46-1.47ZM159.61,60.65H128.5a1.76,1.76,0,0,1-1.77-1.76V2.62A1.77,1.77,0,0,1,128.5.85h7.82a1.8,1.8,0,0,1,1.76,1.77V50.15h21.53a1.76,1.76,0,0,1,1.76,1.77v7A1.76,1.76,0,0,1,159.61,60.65ZM128.5,1.15A1.47,1.47,0,0,0,127,2.62V58.89a1.47,1.47,0,0,0,1.47,1.46h31.11a1.46,1.46,0,0,0,1.46-1.46v-7a1.46,1.46,0,0,0-1.46-1.47H137.78V2.62a1.53,1.53,0,0,0-1.46-1.47Zm228.64,49.3a19.62,19.62,0,1,1,19.7-19.62A19.64,19.64,0,0,1,357.14,50.45Zm0-39.1a19.58,19.58,0,1,0,13.69,5.76A19.17,19.17,0,0,0,357.14,11.35ZM81.07,50.45a19.62,19.62,0,1,1,19.7-19.62A19.63,19.63,0,0,1,81.07,50.45Zm0-39.1a19.6,19.6,0,1,0,13.68,5.76A19.17,19.17,0,0,0,81.07,11.35Z"/></g></g></svg>