<svg xmlns="http://www.w3.org/2000/svg" viewBox="0 0 425.92 61.2"><defs><style>.cls-1{fill:#231f20;}</style></defs><g id="Layer_2" data-name="Layer 2"><g id="Layer_1-2" data-name="Layer 1"><path class="cls-1" d="M400.17,58.73a1.67,1.67,0,0,0,1.62,1.62h7.9a1.67,1.67,0,0,0,1.61-1.62V11.05h13a1.62,1.62,0,0,0,1.61-1.62v-7A1.61,1.61,0,0,0,424.31.85H387.17a1.61,1.61,0,0,0-1.62,1.62v7a1.62,1.62,0,0,0,1.62,1.62h13Zm-75.82-28A30.48,30.48,0,0,0,355,61.2,29.17,29.17,0,0,0,375.69,53a1.61,1.61,0,0,0,.09-2.29l-5.27-5.44a1.57,1.57,0,0,0-2.13,0,20.38,20.38,0,0,1-13,4.84c-10.88,0-19-9-19-19.63s8.07-19.81,19-19.81a20.09,20.09,0,0,1,13.09,5,1.37,1.37,0,0,0,2.13,0l5.18-5.36a1.58,1.58,0,0,0-.08-2.38A28.79,28.79,0,0,0,355,0a30.62,30.62,0,0,0-30.69,30.68M275.56,58.73a1.62,1.62,0,0,0,1.62,1.62h34.59a1.62,1.62,0,0,0,1.62-1.62v-7a1.61,1.61,0,0,0-1.62-1.61H286.61V35.27h21a1.61,1.61,0,0,0,1.61-1.61V26.6A1.67,1.67,0,0,0,307.61,25h-21V11.05h25.16a1.62,1.62,0,0,0,1.62-1.62v-7A1.61,1.61,0,0,0,311.77.85H277.18a1.61,1.61,0,0,0-1.62,1.62Zm-68.93,0a1.68,1.68,0,0,0,1.61,1.62H216a1.63,1.63,0,0,0,1.62-1.62V22.18h.16L252.62,60.6a1.83,1.83,0,0,0,1.44.6h1.19a1.59,1.59,0,0,0,1.61-1.53V2.47A1.66,1.66,0,0,0,255.25.85h-7.82a1.6,1.6,0,0,0-1.61,1.62v35.1h-.17L211,.59A1.85,1.85,0,0,0,209.52,0h-1.28a1.6,1.6,0,0,0-1.61,1.53Zm-68.93,0a1.67,1.67,0,0,0,1.61,1.62h7.74a1.62,1.62,0,0,0,1.61-1.62V22.18h.17L183.68,60.6a1.86,1.86,0,0,0,1.45.6h1.19a1.59,1.59,0,0,0,1.61-1.53V2.47A1.66,1.66,0,0,0,186.32.85H178.5a1.61,1.61,0,0,0-1.62,1.62v35.1h-.17L142,.59A1.87,1.87,0,0,0,140.59,0h-1.28a1.59,1.59,0,0,0-1.61,1.53Zm-65.28-28A19.51,19.51,0,1,1,91.88,50.15,19.65,19.65,0,0,1,72.42,30.68m-11.05,0a30.56,30.56,0,0,0,61.11,0,30.56,30.56,0,1,0-61.11,0M0,30.68A30.48,30.48,0,0,0,30.68,61.2,29.18,29.18,0,0,0,51.34,53a1.61,1.61,0,0,0,.08-2.29l-5.27-5.44a1.55,1.55,0,0,0-2.12,0,20.41,20.41,0,0,1-13,4.84c-10.87,0-19-9-19-19.63s8.08-19.81,19-19.81a20.09,20.09,0,0,1,13.09,5,1.36,1.36,0,0,0,2.12,0l5.19-5.36a1.58,1.58,0,0,0-.08-2.38A28.82,28.82,0,0,0,30.68,0,30.62,30.62,0,0,0,0,30.68"/></g></g></svg>