<svg xmlns="http://www.w3.org/2000/svg" viewBox="0 0 815.3 100"><defs><style>.cls-1{fill:#fff;}</style></defs><g id="Layer_2" data-name="Layer 2"><g id="Layer_1-2" data-name="Layer 1"><path class="cls-1" d="M0,4A2.64,2.64,0,0,1,2.64,1.39H59.17A2.64,2.64,0,0,1,61.81,4V15.42a2.64,2.64,0,0,1-2.64,2.64H18.06V40.83h34.3A2.73,2.73,0,0,1,55,43.47V55a2.64,2.64,0,0,1-2.64,2.64H18.06v24.3H59.17a2.64,2.64,0,0,1,2.64,2.64V96a2.64,2.64,0,0,1-2.64,2.64H2.64A2.64,2.64,0,0,1,0,96Z"/><path class="cls-1" d="M122.08,0c14,0,24.17,4.44,33.62,12.92a2.58,2.58,0,0,1,.14,3.89l-8.48,8.75a2.22,2.22,0,0,1-3.47,0,32.85,32.85,0,0,0-21.39-8.2c-17.78,0-31,14.86-31,32.36s13.33,32.09,31.11,32.09a33.35,33.35,0,0,0,21.25-7.92,2.56,2.56,0,0,1,3.47,0L156,82.78a2.65,2.65,0,0,1-.13,3.75A47.71,47.71,0,0,1,122.08,100a50,50,0,1,1,0-100Z"/><path class="cls-1" d="M215,0a50,50,0,1,1,0,100,49.56,49.56,0,0,1-49.86-49.86A49.8,49.8,0,0,1,215,0Zm0,81.94a31.94,31.94,0,1,0,0-63.88c-17.5,0-31.8,14.58-31.8,32.08A31.88,31.88,0,0,0,215,81.94Z"/><path class="cls-1" d="M276.54,89.17c-1.39-1.11-2-2-.7-4.17l5-8.61a3.21,3.21,0,0,1,4.72-1c5.7,4.3,11.95,8.61,21,8.61,7.22,0,12.63-4.72,12.63-10.7,0-7.08-6-11.94-17.63-16.66-13.06-5.28-26.12-13.61-26.12-30C275.42,14.31,284.59,0,306.67,0c14.17,0,25,7.22,27.78,9.31a3.44,3.44,0,0,1,.84,4.58L330,21.81c-1.11,1.66-3.2,2.77-4.86,1.66-6-3.75-11.67-7.64-19.31-7.64-7.92,0-12.22,4.45-12.22,9.73,0,6.52,5.14,11,16.39,15.55,13.47,5.42,29,13.47,29,31.39,0,14.31-12.37,27.5-32,27.5C289.59,100,280.56,92.64,276.54,89.17Z"/><path class="cls-1" d="M353.9,4a2.73,2.73,0,0,1,2.64-2.64h12.92A2.73,2.73,0,0,1,372.09,4V96a2.73,2.73,0,0,1-2.63,2.64H356.54A2.73,2.73,0,0,1,353.9,96Z"/><path class="cls-1" d="M389.32,89.17c-1.39-1.11-1.95-2-.7-4.17l5-8.61a3.22,3.22,0,0,1,4.73-1c5.69,4.3,11.94,8.61,21,8.61,7.22,0,12.64-4.72,12.64-10.7,0-7.08-6-11.94-17.64-16.66-13.06-5.28-26.11-13.61-26.11-30C388.21,14.31,397.37,0,419.46,0c14.16,0,25,7.22,27.77,9.31a3.44,3.44,0,0,1,.84,4.58l-5.28,7.92c-1.11,1.66-3.19,2.77-4.86,1.66-6-3.75-11.67-7.64-19.31-7.64-7.91,0-12.22,4.45-12.22,9.73,0,6.52,5.14,11,16.39,15.55,13.47,5.42,29,13.47,29,31.39,0,14.31-12.36,27.5-31.95,27.5C402.37,100,393.35,92.64,389.32,89.17Z"/><path class="cls-1" d="M482.38,18.06H461.13a2.64,2.64,0,0,1-2.64-2.64V4a2.64,2.64,0,0,1,2.64-2.64h60.69A2.64,2.64,0,0,1,524.46,4V15.42a2.64,2.64,0,0,1-2.64,2.64H500.57V96a2.73,2.73,0,0,1-2.64,2.64H485A2.73,2.73,0,0,1,482.38,96Z"/><path class="cls-1" d="M537.52,4a2.64,2.64,0,0,1,2.64-2.64h56.52A2.64,2.64,0,0,1,599.32,4V15.42a2.64,2.64,0,0,1-2.64,2.64H555.57V40.83h34.31a2.73,2.73,0,0,1,2.64,2.64V55a2.64,2.64,0,0,1-2.64,2.64H555.57v24.3h41.11a2.64,2.64,0,0,1,2.64,2.64V96a2.64,2.64,0,0,1-2.64,2.64H540.16A2.64,2.64,0,0,1,537.52,96Z"/><path class="cls-1" d="M626.41,2.08A2.34,2.34,0,0,1,628.91,0h2.22a2.54,2.54,0,0,1,2.36,1.39L664.05,67h.41L695,1.39A2.4,2.4,0,0,1,697.38,0h2.22a2.34,2.34,0,0,1,2.5,2.08l16.39,93.34a2.41,2.41,0,0,1-2.5,3.19H703.35a3,3,0,0,1-2.64-2.08l-8.19-52.64h-.42L667.8,98.47a2.35,2.35,0,0,1-2.36,1.53h-2.5a2.5,2.5,0,0,1-2.37-1.53L636,43.89h-.42l-8.05,52.64a2.69,2.69,0,0,1-2.5,2.08h-12.5a2.54,2.54,0,0,1-2.64-3.19Z"/><path class="cls-1" d="M722.94,95,766.13,1.53A2.5,2.5,0,0,1,768.5,0h1.38a2.37,2.37,0,0,1,2.37,1.53L815,95a2.45,2.45,0,0,1-2.36,3.61H800.58c-2.08,0-3.06-.83-4-2.78l-6.8-15H748.22l-6.81,15a4.18,4.18,0,0,1-4,2.78H725.3A2.45,2.45,0,0,1,722.94,95Zm60-29.58L769.05,34.86h-.42L755,65.42Z"/></g></g></svg>