<svg id="Layer_1" data-name="Layer 1" xmlns="http://www.w3.org/2000/svg" viewBox="0 0 815.75 100.93"><defs><style>.cls-1{fill:#fff;}</style></defs><path class="cls-1" d="M59.63,99.54H3.14A3.14,3.14,0,0,1,0,96.41V4.53A3.14,3.14,0,0,1,3.14,1.39H59.63a3.13,3.13,0,0,1,3.13,3.14V15.91A3.13,3.13,0,0,1,59.63,19H19V40.81H52.83A3.21,3.21,0,0,1,56,43.94V55.46a3.14,3.14,0,0,1-3.13,3.14H19V81.89H59.63A3.14,3.14,0,0,1,62.76,85V96.41A3.13,3.13,0,0,1,59.63,99.54ZM3.14,2.39A2.14,2.14,0,0,0,1,4.53V96.41a2.14,2.14,0,0,0,2.14,2.13H59.63a2.14,2.14,0,0,0,2.13-2.13V85a2.14,2.14,0,0,0-2.13-2.14H18V57.6H52.83A2.14,2.14,0,0,0,55,55.46V43.94a2.21,2.21,0,0,0-2.13-2.13H18V18H59.63a2.14,2.14,0,0,0,2.13-2.13V4.53a2.14,2.14,0,0,0-2.13-2.14Z"/><path class="cls-1" d="M122.5,100.93A50.47,50.47,0,0,1,86.69,86.28,49.86,49.86,0,0,1,71.9,50.6,50.66,50.66,0,0,1,122.5,0c13.41,0,23.87,4,33.92,13a3.16,3.16,0,0,1,1.12,2.29,3.11,3.11,0,0,1-1,2.32l-8.46,8.74a2.73,2.73,0,0,1-2,1,3,3,0,0,1-2.22-1,32.34,32.34,0,0,0-21-8c-17.08,0-30.45,14-30.45,31.84,0,17.7,13.43,31.56,30.59,31.56,7.49,0,14.52-2.62,20.92-7.8a3,3,0,0,1,4.14,0l8.61,8.88a2.63,2.63,0,0,1,.85,1.92,3.43,3.43,0,0,1-1,2.53A47.91,47.91,0,0,1,122.5,100.93ZM122.5,1A49.66,49.66,0,0,0,72.9,50.6a48.86,48.86,0,0,0,14.49,35A49.48,49.48,0,0,0,122.5,99.93a46.93,46.93,0,0,0,33.38-13.32,2.52,2.52,0,0,0,.71-1.79A1.7,1.7,0,0,0,156,83.6l-8.64-8.91a2.05,2.05,0,0,0-2.78,0c-6.59,5.34-13.84,8-21.56,8-17.72,0-31.59-14.3-31.59-32.56,0-18.42,13.81-32.84,31.45-32.84a33.35,33.35,0,0,1,21.7,8.31,2.14,2.14,0,0,0,1.51.71,1.77,1.77,0,0,0,1.26-.66L155.87,17a2.1,2.1,0,0,0-.11-3.17C145.9,4.94,135.65,1,122.5,1Z"/><path class="cls-1" d="M215.36,100.93A49.79,49.79,0,0,1,165,50.6a50.47,50.47,0,0,1,14.65-35.81A49.86,49.86,0,0,1,215.36,0a50.59,50.59,0,0,1,50.46,50.6,50.14,50.14,0,0,1-50.46,50.33Zm0-99.93a48.87,48.87,0,0,0-35,14.5A49.46,49.46,0,0,0,166,50.6a49.4,49.4,0,1,0,98.79,0A49.59,49.59,0,0,0,215.36,1Zm0,81.89a32.43,32.43,0,0,1,0-64.85C232.93,18,247.78,33,247.78,50.6A32.39,32.39,0,0,1,215.36,82.89Zm0-63.85A31.43,31.43,0,1,0,246.78,50.6C246.78,33.5,232.39,19,215.36,19Z"/><path class="cls-1" d="M307.38,100.93C289.23,100.93,280,93,276.53,90c-1.61-1.28-2.17-2.38-.81-4.79l5-8.61a3.58,3.58,0,0,1,2.45-1.79,3.83,3.83,0,0,1,3,.67c5.92,4.48,12,8.5,20.65,8.5C313.63,84,319,79.5,319,73.78c0-6.43-5.18-11.28-17.32-16.19-11.33-4.58-26.4-12.72-26.4-30.44C275.24,14.07,285.17,0,307,0c14.78,0,26,7.83,28.06,9.4a3.4,3.4,0,0,1,1.47,2.26,3.92,3.92,0,0,1-.52,3l-5.27,7.9a5.67,5.67,0,0,1-2.45,2.06,3.29,3.29,0,0,1-3.1-.26l-1-.64c-5.63-3.55-10.95-6.91-18-6.91-8.09,0-11.71,4.63-11.71,9.22,0,6.06,4.65,10.43,16.06,15.08C325,47,339.8,55.29,339.8,73,339.8,86.51,328.44,100.93,307.38,100.93Zm-23.47-25.2a2.62,2.62,0,0,0-2.33,1.35l-5,8.61c-1.09,1.93-.71,2.5.57,3.53h0c3.4,2.93,12.42,10.7,30.21,10.7,20.41,0,31.42-13.9,31.42-27,0-17.07-14.5-25.2-28.69-30.9-11.86-4.83-16.69-9.47-16.69-16,0-5.09,3.93-10.22,12.71-10.22,7.34,0,12.77,3.43,18.53,7.06l1,.65a2.3,2.3,0,0,0,2.19.17,4.5,4.5,0,0,0,2-1.69l5.27-7.91a2.86,2.86,0,0,0,.37-2.23,2.45,2.45,0,0,0-1-1.64C332.38,8.66,321.43,1,307,1c-14.79,0-30.72,8.18-30.72,26.15,0,17.11,14.71,25,25.78,29.51C314.59,61.75,320,66.87,320,73.78,320,80.06,314.19,85,306.83,85c-9,0-15.2-4.12-21.26-8.71A2.79,2.79,0,0,0,283.91,75.73Z"/><path class="cls-1" d="M369.7,99.54H356.79a3.21,3.21,0,0,1-3.13-3.13V4.53a3.21,3.21,0,0,1,3.13-3.14H369.7a3.22,3.22,0,0,1,3.14,3.14V96.41A3.22,3.22,0,0,1,369.7,99.54ZM356.79,2.39a2.22,2.22,0,0,0-2.13,2.14V96.41a2.21,2.21,0,0,0,2.13,2.13H369.7a2.22,2.22,0,0,0,2.14-2.13V4.53a2.22,2.22,0,0,0-2.14-2.14Z"/><path class="cls-1" d="M420.09,100.93c-18.15,0-27.38-7.94-30.86-10.94-1.6-1.28-2.17-2.38-.81-4.79l5-8.61a3.58,3.58,0,0,1,2.45-1.79,3.82,3.82,0,0,1,3,.67c5.92,4.48,12,8.5,20.65,8.5,6.8,0,12.13-4.47,12.13-10.19,0-6.43-5.18-11.28-17.31-16.19C403,53,387.94,44.87,387.94,27.15,387.94,14.07,397.87,0,419.67,0c14.78,0,26,7.83,28.06,9.4a3.42,3.42,0,0,1,1.46,2.26,3.87,3.87,0,0,1-.52,3l-5.27,7.9c-1.23,1.85-3.59,3.11-5.55,1.8l-1-.64c-5.63-3.55-10.95-6.91-18-6.91-8.09,0-11.72,4.63-11.72,9.22,0,6.06,4.66,10.43,16.07,15.08C437.69,47,452.51,55.29,452.51,73,452.51,86.51,441.15,100.93,420.09,100.93Zm-23.47-25.2a2.5,2.5,0,0,0-.55,0,2.62,2.62,0,0,0-1.78,1.3l-5,8.61c-1.09,1.93-.71,2.5.57,3.53h0c3.39,2.93,12.41,10.7,30.21,10.7,20.41,0,31.42-13.9,31.42-27,0-17.07-14.51-25.2-28.7-30.9-11.85-4.83-16.69-9.47-16.69-16,0-5.09,3.93-10.22,12.72-10.22,7.33,0,12.77,3.43,18.52,7.06l1,.65c1.43.95,3.22-.07,4.18-1.52l5.28-7.91a3,3,0,0,0,.37-2.24,2.47,2.47,0,0,0-1.05-1.63c-2.09-1.57-13-9.23-27.5-9.23-14.8,0-30.73,8.18-30.73,26.15,0,17.11,14.71,25,25.78,29.51,12.58,5.09,17.94,10.21,17.94,17.12,0,6.28-5.77,11.19-13.13,11.19-9,0-15.19-4.12-21.26-8.71A2.78,2.78,0,0,0,396.62,75.73Z"/><path class="cls-1" d="M498.09,99.54H485.18a3.21,3.21,0,0,1-3.13-3.13V19H461.31a3.14,3.14,0,0,1-3.14-3.13V4.53a3.14,3.14,0,0,1,3.14-3.14H522a3.14,3.14,0,0,1,3.14,3.14V15.91A3.14,3.14,0,0,1,522,19H501.23V96.41A3.22,3.22,0,0,1,498.09,99.54ZM461.31,2.39a2.14,2.14,0,0,0-2.14,2.14V15.91A2.14,2.14,0,0,0,461.31,18h21.74V96.41a2.21,2.21,0,0,0,2.13,2.13h12.91a2.22,2.22,0,0,0,2.14-2.13V18H522a2.14,2.14,0,0,0,2.14-2.13V4.53A2.14,2.14,0,0,0,522,2.39Z"/><path class="cls-1" d="M596.78,99.54H540.29a3.14,3.14,0,0,1-3.14-3.13V4.53a3.14,3.14,0,0,1,3.14-3.14h56.49a3.13,3.13,0,0,1,3.13,3.14V15.91A3.13,3.13,0,0,1,596.78,19H556.19V40.81H590a3.21,3.21,0,0,1,3.14,3.13V55.46A3.15,3.15,0,0,1,590,58.6H556.19V81.89h40.59A3.14,3.14,0,0,1,599.91,85V96.41A3.13,3.13,0,0,1,596.78,99.54ZM540.29,2.39a2.14,2.14,0,0,0-2.14,2.14V96.41a2.14,2.14,0,0,0,2.14,2.13h56.49a2.14,2.14,0,0,0,2.13-2.13V85a2.14,2.14,0,0,0-2.13-2.14H555.19V57.6H590a2.14,2.14,0,0,0,2.14-2.14V43.94A2.22,2.22,0,0,0,590,41.81H555.19V18h41.59a2.14,2.14,0,0,0,2.13-2.13V4.53a2.14,2.14,0,0,0-2.13-2.14Z"/><path class="cls-1" d="M665.48,100.93H663a3,3,0,0,1-2.8-1.8L636,45.42,628.08,97a3.18,3.18,0,0,1-3,2.5H612.6a3.19,3.19,0,0,1-2.46-1,3.33,3.33,0,0,1-.67-2.75L626,2.51A2.81,2.81,0,0,1,629,0h2.22A3,3,0,0,1,634,1.66l30.3,65,30.29-65A2.91,2.91,0,0,1,697.4,0h2.22a2.83,2.83,0,0,1,3,2.52L719,95.76a3.2,3.2,0,0,1-.51,2.73A3.1,3.1,0,0,1,716,99.54H703.37a3.5,3.5,0,0,1-3.12-2.44l-8-51.68L668.3,99.11A2.86,2.86,0,0,1,665.48,100.93ZM635.21,43.86h1.17l24.7,54.84a2,2,0,0,0,1.9,1.23h2.5a1.87,1.87,0,0,0,1.89-1.18L691.8,43.86H693l8.26,53a2.49,2.49,0,0,0,2.14,1.66H716a2.13,2.13,0,0,0,1.7-.68A2.21,2.21,0,0,0,718,96L701.63,2.67a1.86,1.86,0,0,0-2-1.67H697.4a1.91,1.91,0,0,0-1.91,1.11L664.83,67.9h-1.06L633.1,2.1A2,2,0,0,0,631.2,1H629a1.84,1.84,0,0,0-2,1.64v0L610.46,95.94a2.31,2.31,0,0,0,.44,1.93,2.16,2.16,0,0,0,1.7.67h12.49a2.18,2.18,0,0,0,2-1.65Z"/><path class="cls-1" d="M812.61,99.54H800.53c-2.45,0-3.53-1.16-4.47-3.05l-6.68-14.71H748.53l-6.67,14.7a4.69,4.69,0,0,1-4.48,3.06H725.31a3.09,3.09,0,0,1-2.7-1.36,3,3,0,0,1-.12-3h0L765.66,1.82A3,3,0,0,1,768.47,0h1.39a2.83,2.83,0,0,1,2.8,1.8l42.76,93.43a3,3,0,0,1-.12,3A3.07,3.07,0,0,1,812.61,99.54ZM747.88,80.78H790L797,96.06c.94,1.88,1.81,2.48,3.57,2.48h12.08a2.11,2.11,0,0,0,1.85-.9,2,2,0,0,0,0-2L771.76,2.24A1.86,1.86,0,0,0,769.86,1h-1.39a2,2,0,0,0-1.91,1.25L723.4,95.65a2,2,0,0,0,.05,2,2.11,2.11,0,0,0,1.86.9h12.07a3.68,3.68,0,0,0,3.56-2.46Zm35.8-14.41H754.24l14-31.53h1.07Zm-27.9-1h26.35L768.82,36.09Z"/></svg>