<?xml version="1.0" encoding="utf-8"?>
<!-- Generator: Adobe Illustrator 26.0.3, SVG Export Plug-In . SVG Version: 6.00 Build 0)  -->
<svg version="1.1" id="Layer_1" xmlns="http://www.w3.org/2000/svg" xmlns:xlink="http://www.w3.org/1999/xlink" x="0px" y="0px"
	 viewBox="0 0 824.4 100" style="enable-background:new 0 0 824.4 100;" xml:space="preserve">
<style type="text/css">
	.st0{fill:#007DC3;}
</style>
<g id="Layer_2_00000098904759817169897770000009022362648772012693_">
	<g id="Layer_2-2">
		<path class="st0" d="M59.2,2.4c0.9,0,1.6,0.7,1.6,1.6v11.4c0,0.9-0.7,1.6-1.6,1.6H17.1v24.8h35.3c0.9,0,1.6,0.8,1.6,1.6V55
			c0,0.9-0.7,1.6-1.6,1.6H17.1v26.3h42.1c0.9,0,1.6,0.7,1.6,1.6V96c0,0.9-0.7,1.6-1.6,1.6H2.6C1.7,97.6,1,96.9,1,96V4
			c0-0.9,0.7-1.6,1.6-1.6H59.2 M59.2,1.4H2.6C1.2,1.4,0,2.6,0,4v92c0,1.5,1.2,2.6,2.6,2.6h56.5c1.5,0,2.6-1.2,2.6-2.6l0,0V84.6
			c0-1.5-1.2-2.6-2.6-2.6H18.1V57.6h34.3c1.5,0,2.6-1.2,2.6-2.6V43.5c0-1.4-1.2-2.6-2.6-2.6H18.1V18h41.1c1.5,0,2.6-1.2,2.6-2.6
			c0,0,0,0,0,0V4C61.8,2.5,60.6,1.4,59.2,1.4L59.2,1.4z"/>
		<path class="st0" d="M122.1,1c13,0,23.2,3.9,32.9,12.7c0.7,0.5,0.8,1.5,0.3,2.2c-0.1,0.1-0.1,0.2-0.2,0.2l-8.5,8.8l0,0l0,0
			c-0.2,0.3-0.6,0.5-0.9,0.5c-0.4,0-0.8-0.2-1.1-0.5l0,0l0,0c-6.1-5.4-13.9-8.3-22-8.4c-8.7-0.1-17.1,3.5-23,9.9
			c-5.9,6.4-9.2,14.7-9.1,23.4c-0.1,8.7,3.2,17,9.2,23.3c6,6.3,14.3,9.9,23,9.8c7.9,0,15.2-2.7,21.9-8.2c0.3-0.3,0.7-0.4,1.1-0.4
			c0.4,0,0.7,0.1,1,0.4l8.6,8.9l0,0l0,0c0.2,0.2,0.4,0.5,0.4,0.9c0,0.5-0.2,1-0.6,1.4c-8.8,8.6-20.7,13.4-33.1,13.2
			c-13,0.1-25.5-5-34.8-14.2c-19.1-19.2-19.1-50.2,0-69.4C96.5,6.1,109,1,122.1,1 M122.1,0c-27.6,0-50,22.4-50,50s22.4,50,50,50l0,0
			c12.6,0.1,24.7-4.7,33.8-13.5c1.1-1,1.1-2.7,0.1-3.7c0,0,0,0,0,0l-8.6-8.9c-0.5-0.4-1.1-0.7-1.7-0.7c-0.7,0-1.3,0.2-1.8,0.7
			c-5.9,5-13.5,7.8-21.2,7.9c-17.8,0-31.1-14.7-31.1-32.1s13.2-32.4,31-32.4c7.9,0.1,15.5,3,21.4,8.2c0.5,0.5,1.1,0.8,1.8,0.8
			c0.7,0,1.3-0.3,1.7-0.8l8.5-8.8c1-1,1.1-2.6,0.1-3.6c-0.1-0.1-0.2-0.2-0.3-0.2C146.3,4.4,136.1,0,122.1,0z"/>
		<path class="st0" d="M213.2,1c27,0,49,21.8,49,48.8c0,0.1,0,0.2,0,0.3c0,27-21.9,48.9-48.9,48.9c-27,0-48.9-21.9-48.9-48.9
			c0,0,0,0,0,0c-0.1-13,5.1-25.5,14.2-34.8C187.7,6.1,200.2,0.9,213.2,1 M213.2,82.9c18.2-0.3,32.7-15.3,32.4-33.5
			c-0.3-17.7-14.6-32.1-32.4-32.4c-8.7,0-17.1,3.5-23.2,9.8c-12.8,12.8-12.8,33.7,0,46.5C196.2,79.5,204.5,82.9,213.2,82.9 M213.2,0
			c-27.5,0-49.8,22.2-49.9,49.7c0,0.1,0,0.3,0,0.4c0,27.6,22.4,49.9,50,49.9c27.6,0,49.9-22.3,49.9-49.9c0.1-27.6-22.1-50-49.7-50.1
			C213.4,0,213.3,0,213.2,0z M213.2,81.9c-17.5,0-31.8-14.3-31.8-31.8c0-17.5,14.3-32.1,31.8-32.1c17.6-0.3,32.2,13.7,32.5,31.4
			s-13.7,32.2-31.4,32.5C213.9,81.9,213.5,81.9,213.2,81.9z"/>
		<path class="st0" d="M305.3,1c14.3,0,25.1,7.6,27.2,9.1l0,0l0,0c0.4,0.3,0.7,0.8,0.8,1.3c0.2,0.6,0.1,1.3-0.3,1.9l-5.3,7.9
			c-0.5,0.9-1.5,1.5-2.6,1.7c-0.3,0-0.7-0.1-0.9-0.3l-1-0.6c-5.6-3.5-11.3-7.1-18.8-7.1c-9.1,0-13.2,5.4-13.2,10.7
			c0,6.8,4.9,11.6,17,16.5c14,5.6,28.4,13.7,28.4,30.5c0,12.8-10.9,26.5-31,26.5c-17.6,0-26.5-7.7-29.9-10.6c-1-0.8-1.4-1.1-0.5-2.9
			l5-8.6c0.4-0.7,1.1-1.1,1.9-1.1c0.5,0,1,0.1,1.4,0.4c6.2,4.7,12.5,8.8,21.7,8.8c7.6,0,13.6-5.1,13.6-11.7
			c0-7.2-5.5-12.4-18.3-17.6c-10.9-4.4-25.5-12.2-25.5-29c0-6.5,2.6-12.7,7.1-17.3C287.5,3.9,295.5,1,305.3,1 M305.3,0
			C283.2,0,274,14.3,274,26.7c0,16.4,13.1,24.7,26.1,30c11.7,4.7,17.6,9.6,17.6,16.7c0,6-5.4,10.7-12.6,10.7c-9,0-15.3-4.3-21-8.6
			c-0.6-0.4-1.2-0.7-2-0.6c-1.1,0-2.2,0.6-2.8,1.6l-5,8.6c-1.2,2.2-0.7,3.1,0.7,4.2c4,3.5,13,10.8,30.5,10.8c19.6,0,32-13.2,32-27.5
			c0-17.9-15.6-26-29-31.4c-11.2-4.6-16.4-9-16.4-15.6c0-5.3,4.3-9.7,12.2-9.7c7.6,0,13.3,3.9,19.3,7.6c0.4,0.3,0.9,0.5,1.5,0.5
			c1.4-0.1,2.7-0.9,3.4-2.1l5.3-7.9c0.9-1.5,0.6-3.5-0.9-4.6C330.3,7.2,319.4,0,305.3,0L305.3,0z"/>
		<path class="st0" d="M369.8,2.4c0.9,0,1.6,0.7,1.6,1.6v92c0,0.9-0.7,1.6-1.6,1.6h-12.9c-0.9,0-1.6-0.8-1.6-1.6V4
			c0-0.9,0.8-1.6,1.6-1.6L369.8,2.4 M369.8,1.4h-12.9c-1.4,0-2.6,1.2-2.6,2.6v92c0,1.4,1.2,2.6,2.6,2.6h12.9
			c1.4-0.1,2.6-1.2,2.6-2.6V4C372.4,2.6,371.2,1.4,369.8,1.4L369.8,1.4z"/>
		<path class="st0" d="M421.5,1c14.3,0,25.1,7.6,27.2,9.1l0,0l0,0c0.4,0.3,0.7,0.8,0.8,1.3c0.1,0.6,0,1.3-0.3,1.9l-5.2,8
			c-0.5,0.9-1.5,1.5-2.6,1.7c-0.3,0-0.7-0.1-0.9-0.3l-1-0.6c-5.6-3.5-11.3-7.1-18.8-7.1c-6.4,0-13.2,3.4-13.2,10.7
			c0,6.8,4.9,11.6,17,16.5c14,5.6,28.4,13.7,28.4,30.5c0,12.8-10.9,26.5-31,26.5c-17.6,0-26.5-7.7-29.9-10.6c-1-0.8-1.4-1.1-0.5-2.9
			l5-8.6c0.4-0.7,1.1-1.1,1.9-1.1c0.5,0,1,0.1,1.4,0.4c6.1,4.6,12.4,8.8,21.6,8.8c7.6,0,13.6-5.1,13.6-11.7
			c0-7.2-5.5-12.4-18.3-17.6c-10.9-4.4-25.5-12.2-25.5-29.1c0-6.5,2.5-12.7,7-17.3C403.7,3.9,411.8,1,421.5,1 M421.5,0
			c-22.1,0-31.2,14.3-31.2,26.7c0,16.4,13,24.7,26.1,30C428,61.4,434,66.2,434,73.3c0,6-5.4,10.7-12.6,10.7c-9,0-15.3-4.3-21-8.6
			c-0.6-0.4-1.3-0.7-2-0.6c-1.1,0-2.2,0.6-2.8,1.6l-5,8.6c-1.2,2.2-0.7,3.1,0.7,4.2c4,3.5,13,10.8,30.5,10.8c19.6,0,32-13.2,32-27.5
			c0-17.9-15.6-26-29-31.4c-11.2-4.6-16.4-9-16.4-15.6c0-5.3,4.3-9.7,12.2-9.7c7.6,0,13.3,3.9,19.3,7.6c0.4,0.3,0.9,0.4,1.5,0.5
			c1.4-0.1,2.7-0.9,3.4-2.1l5.3-7.9c1-1.5,0.6-3.5-0.8-4.6C446.5,7.2,435.7,0,421.5,0z"/>
		<path class="st0" d="M525.3,2.4c0.9,0,1.7,0.7,1.7,1.6c0,0,0,0,0,0v11.4c0,0.9-0.7,1.6-1.6,1.6h-22.3V96c0,0.9-0.8,1.6-1.6,1.6
			h-12.9c-0.9,0-1.6-0.8-1.6-1.6V17h-22.2c-0.9,0-1.6-0.7-1.6-1.6V4c0-0.9,0.7-1.6,1.6-1.6L525.3,2.4 M525.3,1.4h-60.7
			c-1.5,0-2.6,1.2-2.6,2.6v11.4c0,1.5,1.2,2.6,2.6,2.6h0h21.2V96c0,1.4,1.2,2.6,2.6,2.6h12.9c1.4-0.1,2.6-1.2,2.6-2.6V18h21.2
			c1.5,0,2.6-1.1,2.7-2.6c0,0,0,0,0,0V4C528,2.5,526.8,1.4,525.3,1.4L525.3,1.4L525.3,1.4z"/>
		<path class="st0" d="M600,2.4c0.9,0,1.6,0.7,1.7,1.6v11.4c0,0.9-0.7,1.6-1.6,1.6c0,0,0,0,0,0h-42.1v24.8h35.3
			c0.9,0,1.6,0.7,1.7,1.6V55c0,0.9-0.7,1.6-1.7,1.6h-35.3v26.3H600c0.9,0,1.6,0.7,1.6,1.6c0,0,0,0,0,0V96c0,0.9-0.7,1.6-1.6,1.6
			h-56.5c-0.9,0-1.6-0.7-1.6-1.6V4c0-0.9,0.7-1.6,1.6-1.6l0,0L600,2.4 M600,1.4h-56.5c-1.5,0-2.6,1.2-2.6,2.6c0,0,0,0,0,0v92
			c0,1.5,1.2,2.6,2.6,2.6l0,0H600c1.5,0,2.6-1.2,2.7-2.6c0,0,0,0,0,0V84.6c0-1.5-1.2-2.6-2.6-2.6c0,0,0,0,0,0h-41.1V57.6h34.3
			c1.5,0,2.6-1.2,2.7-2.6c0,0,0,0,0,0V43.5c0-1.4-1.2-2.6-2.7-2.6h-34.3V18H600c1.5,0,2.6-1.2,2.6-2.6c0,0,0,0,0,0V4
			C602.6,2.6,601.4,1.4,600,1.4L600,1.4z"/>
		<path class="st0" d="M704.1,1c0.8-0.1,1.4,0.5,1.5,1.2c0,0,0,0,0,0L722,95.6c0.2,0.5,0.1,1-0.2,1.5c-0.3,0.4-0.8,0.5-1.3,0.5
			h-12.7c-0.8-0.1-1.4-0.6-1.7-1.3L698,43.7l-0.1-0.8H696l-0.3,0.6l-24.3,54.6l0,0l0,0c-0.2,0.6-0.8,0.9-1.4,0.8h-2.5
			c-0.6,0-1.2-0.3-1.5-0.9l-24.7-54.5l-0.3-0.6h-1.9l-0.1,0.8l-8,52.7c-0.2,0.7-0.8,1.2-1.5,1.2H617c-0.5,0-1-0.2-1.3-0.5
			c-0.3-0.4-0.4-1-0.3-1.5l16.5-93.3l0,0c0-0.7,0.7-1.3,1.4-1.3c0,0,0.1,0,0.1,0h2.2c0.6,0,1.2,0.3,1.5,0.8l30.6,65.6l0.3,0.6h1.7
			l0.3-0.6l30.5-65.5c0.2-0.6,0.8-0.9,1.5-0.8H704.1 M704.1,0h-2.2c-1-0.1-1.9,0.5-2.4,1.4l-30.6,65.6h-0.4L638,1.4
			c-0.5-0.9-1.4-1.4-2.4-1.4h-2.2c-1.3-0.1-2.4,0.8-2.5,2.1l-16.5,93.3c-0.4,1.4,0.4,2.7,1.8,3.1c0.3,0.1,0.6,0.1,0.9,0.1h12.5
			c1.2-0.1,2.2-0.9,2.5-2.1l8-52.6h0.4L665,98.5c0.4,0.9,1.3,1.6,2.4,1.5h2.5c1,0.1,2-0.6,2.4-1.5l24.3-54.6h0.5l8.2,52.6
			c0.4,1.2,1.4,2,2.6,2.1h12.6c1.3,0.1,2.5-0.9,2.6-2.2c0-0.3,0-0.7-0.1-1L706.6,2.1C706.4,0.8,705.3-0.1,704.1,0z"/>
		<path class="st0" d="M779,1c0.6-0.1,1.3,0.3,1.5,0.9l42.8,93.5c0.3,0.5,0.3,1,0,1.5c-0.3,0.5-0.9,0.7-1.4,0.7h-12.1
			c-1.6,0-2.3-0.5-3.1-2.2l-6.8-15l-0.3-0.6h-42.8l-0.3,0.6l-6.8,15c-0.5,1.3-1.7,2.2-3.1,2.2h-12.1c-0.6,0-1.1-0.2-1.4-0.7
			c-0.3-0.5-0.3-1,0-1.5L776.2,2c0.2-0.6,0.8-1,1.5-1H779 M762.6,66.4h31L793,65l-13.9-30.5l-0.3-0.6h-1.7l-0.3,0.6L763.2,65
			L762.6,66.4 M779,0h-1.4c-1,0-2,0.6-2.4,1.5L732.1,95c-0.6,1.2-0.2,2.7,1,3.3c0.4,0.2,0.9,0.3,1.4,0.3h12.1c1.8,0,3.4-1.1,4-2.8
			l6.8-15h41.5l6.8,15c1,2,1.9,2.8,4,2.8h12.1c1.3,0.1,2.6-0.8,2.7-2.2c0.1-0.5,0-1-0.3-1.4L781.4,1.5C781,0.5,780-0.1,779,0z
			 M764.2,65.4l13.6-30.6h0.4l13.9,30.6H764.2z"/>
	</g>
</g>
</svg>
