<?xml version="1.0" encoding="utf-8"?>
<!-- Generator: Adobe Illustrator 26.0.3, SVG Export Plug-In . SVG Version: 6.00 Build 0)  -->
<svg version="1.1" id="Layer_1" xmlns="http://www.w3.org/2000/svg" xmlns:xlink="http://www.w3.org/1999/xlink" x="0px" y="0px"
	 viewBox="0 0 824.4 100" style="enable-background:new 0 0 824.4 100;" xml:space="preserve">
<style type="text/css">
	.st0{fill:#007DC3;}
</style>
<g id="Layer_2_00000074416283309156667010000006920875676671250089_">
	<g id="Layer_2-2">
		<path class="st0" d="M0,4c0-1.4,1.2-2.6,2.6-2.6h56.5c1.4,0,2.6,1.2,2.6,2.6v11.4c0,1.5-1.2,2.6-2.6,2.6c0,0,0,0,0,0H18.1v22.8
			h34.3c1.4,0,2.6,1.2,2.6,2.6V55c0,1.5-1.2,2.6-2.6,2.6H18.1v24.3h41.1c1.5,0,2.6,1.2,2.6,2.6V96c0,1.5-1.2,2.6-2.6,2.6H2.6
			C1.2,98.6,0,97.5,0,96V4z"/>
		<path class="st0" d="M122.1,0c14,0,24.2,4.4,33.6,12.9c1.1,0.9,1.3,2.5,0.4,3.6c-0.1,0.1-0.2,0.2-0.2,0.3l-8.5,8.8
			c-0.8,1-2.1,1.1-3.1,0.4c-0.1-0.1-0.3-0.2-0.4-0.4c-5.9-5.2-13.5-8.1-21.4-8.2c-17.8,0-31,14.9-31,32.4s13.4,32.1,31.1,32.1
			c7.8-0.1,15.3-2.9,21.2-7.9c1-0.9,2.5-0.9,3.5,0l8.6,8.9c1,1.1,0.9,2.7-0.1,3.7c0,0,0,0,0,0c-9,8.8-21.2,13.6-33.8,13.5
			c-27.6,0-50-22.4-50-50S94.5,0,122.1,0L122.1,0z"/>
		<path class="st0" d="M213.2,0c27.6,0,50,22.4,50,50s-22.4,50-50,50c-27.4,0.2-49.7-21.9-49.9-49.3c0-0.2,0-0.4,0-0.6
			c-0.2-27.5,22-50,49.5-50.1C212.9,0,213,0,213.2,0z M213.2,81.9c17.6,0.3,32.2-13.7,32.5-31.4s-13.7-32.2-31.4-32.5
			c-0.4,0-0.8,0-1.1,0c-17.5,0-31.8,14.6-31.8,32.1C181.4,67.7,195.6,81.9,213.2,81.9z"/>
		<path class="st0" d="M275.1,89.2c-1.4-1.1-2-2-0.7-4.2l5-8.6c0.9-1.5,2.8-2.1,4.4-1.2c0.1,0.1,0.2,0.1,0.3,0.2
			c5.7,4.3,12,8.6,21,8.6c7.2,0,12.6-4.7,12.6-10.7c0-7.1-6-11.9-17.6-16.7c-13.1-5.3-26.2-13.6-26.2-30C274,14.3,283.2,0,305.3,0
			c14.2,0,25,7.2,27.8,9.3c1.4,1.1,1.8,3.1,0.8,4.6l-5.3,7.9c-1.1,1.7-3.2,2.8-4.9,1.7c-6-3.8-11.7-7.6-19.3-7.6
			c-7.9,0-12.2,4.5-12.2,9.7c0,6.5,5.1,11,16.4,15.6c13.5,5.4,29,13.5,29,31.4c0,14.3-12.4,27.5-32,27.5
			C288.2,100,279.1,92.6,275.1,89.2z"/>
		<path class="st0" d="M354.2,4c0-1.4,1.2-2.6,2.6-2.6h12.9c1.4,0.1,2.6,1.2,2.6,2.6v92c0,1.4-1.2,2.6-2.6,2.6h-12.9
			c-1.4,0-2.6-1.2-2.6-2.6V4z"/>
		<path class="st0" d="M391.4,89.2c-1.4-1.1-2-2-0.7-4.2l5-8.6c0.9-1.5,2.8-2.1,4.4-1.2c0.1,0.1,0.2,0.1,0.3,0.2
			c5.7,4.3,11.9,8.6,21,8.6c7.2,0,12.6-4.7,12.6-10.7c0-7.1-6-11.9-17.6-16.7c-13.1-5.3-26.1-13.6-26.1-30
			c0-12.3,9.1-26.6,31.2-26.6c14.2,0,25,7.2,27.8,9.3c1.4,1.1,1.8,3.1,0.8,4.6l-5.3,7.9c-1.1,1.7-3.2,2.8-4.9,1.7
			c-6-3.8-11.7-7.6-19.3-7.6c-7.9,0-12.2,4.5-12.2,9.7c0,6.5,5.1,11,16.4,15.6c13.5,5.4,29,13.5,29,31.4c0,14.3-12.4,27.5-32,27.5
			C404.4,100,395.4,92.6,391.4,89.2z"/>
		<path class="st0" d="M485.9,18h-21.2c-1.5,0-2.6-1.2-2.6-2.6V4c0-1.5,1.2-2.6,2.6-2.6h60.7c1.5,0,2.6,1.2,2.7,2.6c0,0,0,0,0,0
			v11.4c0,1.5-1.2,2.6-2.6,2.6c0,0,0,0,0,0h-21.3V96c0,1.4-1.2,2.6-2.6,2.6h-12.9c-1.4,0-2.6-1.2-2.6-2.6V18z"/>
		<path class="st0" d="M540.8,4c0-1.5,1.2-2.6,2.6-2.6l0,0H600c1.5,0,2.6,1.2,2.7,2.6c0,0,0,0,0,0v11.4c0,1.5-1.2,2.6-2.6,2.6
			c0,0,0,0,0,0h-41.1v22.8h34.3c1.4,0,2.6,1.2,2.6,2.6V55c0,1.5-1.2,2.6-2.6,2.6c0,0,0,0,0,0h-34.3v24.3H600c1.5,0,2.6,1.2,2.6,2.6
			c0,0,0,0,0,0V96c0,1.4-1.2,2.6-2.6,2.6h-56.5c-1.4,0-2.6-1.2-2.6-2.6V4z"/>
		<path class="st0" d="M630.9,2.1c0.1-1.3,1.2-2.2,2.5-2.1h2.2c1-0.1,2,0.5,2.4,1.4l30.5,65.6h0.4l30.5-65.6
			c0.4-0.9,1.4-1.5,2.4-1.4h2.2c1.3-0.1,2.4,0.8,2.5,2.1L723,95.4c0.4,1.3-0.2,2.6-1.5,3.1c-0.3,0.1-0.7,0.2-1,0.1h-12.7
			c-1.2-0.1-2.3-0.9-2.6-2.1L697,43.9h-0.4l-24.3,54.6c-0.4,1-1.3,1.6-2.4,1.5h-2.5c-1,0-2-0.6-2.4-1.5l-24.5-54.6H640l-8,52.6
			c-0.3,1.2-1.3,2-2.5,2.1H617c-1.4,0.1-2.6-1-2.7-2.4c0-0.3,0-0.6,0.1-0.8L630.9,2.1z"/>
		<path class="st0" d="M732.1,95l43.2-93.5c0.4-0.9,1.3-1.6,2.4-1.5h1.4c1-0.1,2,0.6,2.4,1.5L824.2,95c0.6,1.2,0.2,2.7-1,3.3
			c-0.4,0.2-0.9,0.3-1.4,0.3h-12.1c-2.1,0-3.1-0.8-4-2.8l-6.8-15h-41.6l-6.8,15c-0.6,1.7-2.2,2.8-4,2.8h-12.1
			c-1.3,0.1-2.5-0.9-2.6-2.2C731.7,95.9,731.8,95.4,732.1,95z M792.1,65.4l-13.9-30.6h-0.4l-13.6,30.6H792.1z"/>
	</g>
</g>
</svg>
