<svg xmlns="http://www.w3.org/2000/svg" viewBox="0 0 815.6 100.3"><defs><style>.cls-1{fill:#fff;}</style></defs><g id="Layer_2" data-name="Layer 2"><g id="Layer_1-2" data-name="Layer 1"><path class="cls-1" d="M59.32,98.91H2.79A2.79,2.79,0,0,1,0,96.12V4.18A2.79,2.79,0,0,1,2.79,1.39H59.32a2.8,2.8,0,0,1,2.79,2.79V15.57a2.8,2.8,0,0,1-2.79,2.79h-41V40.83H52.51a2.9,2.9,0,0,1,2.79,2.79V55.15a2.79,2.79,0,0,1-2.79,2.79H18.36v24h41a2.8,2.8,0,0,1,2.79,2.79V96.12A2.8,2.8,0,0,1,59.32,98.91ZM2.79,1.69A2.5,2.5,0,0,0,.3,4.18V96.12a2.49,2.49,0,0,0,2.49,2.49H59.32a2.49,2.49,0,0,0,2.49-2.49V84.73a2.49,2.49,0,0,0-2.49-2.48H18.06V57.64H52.51A2.5,2.5,0,0,0,55,55.15V43.62a2.59,2.59,0,0,0-2.49-2.49H18.06V18.06H59.32a2.5,2.5,0,0,0,2.49-2.49V4.18a2.5,2.5,0,0,0-2.49-2.49Z"/><path class="cls-1" d="M122.23,100.3A50.16,50.16,0,0,1,86.64,85.74a50.29,50.29,0,0,1,0-71A50,50,0,0,1,122.23,0C135.56,0,146,4,156,13a2.84,2.84,0,0,1,1,2,2.78,2.78,0,0,1-.86,2.06l-8.47,8.75a2.38,2.38,0,0,1-1.72.88,2.64,2.64,0,0,1-2-.88,32.65,32.65,0,0,0-21.28-8.15,29.89,29.89,0,0,0-22,9.57,33,33,0,0,0-8.78,22.64,32.4,32.4,0,0,0,8.85,22.45,30.19,30.19,0,0,0,22.11,9.49c7.58,0,14.69-2.66,21.16-7.89a2.7,2.7,0,0,1,3.67,0l8.61,8.89a2.29,2.29,0,0,1,.76,1.69,3.19,3.19,0,0,1-.9,2.28A47.64,47.64,0,0,1,122.23,100.3Zm0-100a49.87,49.87,0,0,0-50,50,49.26,49.26,0,0,0,14.6,35.24A49.89,49.89,0,0,0,122.23,100a47.32,47.32,0,0,0,33.65-13.43,2.8,2.8,0,0,0,.81-2A2,2,0,0,0,156,83l-8.61-8.9a2.42,2.42,0,0,0-3.27,0c-6.52,5.28-13.7,8-21.35,8a30.48,30.48,0,0,1-22.33-9.58,32.72,32.72,0,0,1-8.93-22.66A33.27,33.27,0,0,1,100.39,27a30.17,30.17,0,0,1,22.26-9.67,33,33,0,0,1,21.49,8.23,2.36,2.36,0,0,0,1.75.8,2.1,2.1,0,0,0,1.51-.78l8.48-8.76a2.49,2.49,0,0,0,.77-1.84,2.56,2.56,0,0,0-.9-1.83C145.82,4.27,135.48.3,122.23.3Z"/><path class="cls-1" d="M215.15,100.3a49.71,49.71,0,0,1-50-50A50.16,50.16,0,0,1,179.7,14.7a50.19,50.19,0,0,1,71,0,50.08,50.08,0,0,1-35.53,85.6Zm0-100a49.29,49.29,0,0,0-35.24,14.61,49.87,49.87,0,0,0-14.47,35.38,49.78,49.78,0,1,0,99.56,0A49.76,49.76,0,0,0,215.15.3Zm0,82a32,32,0,0,1-22.57-54.67,31.61,31.61,0,0,1,45.22,0,32.08,32.08,0,0,1,9.45,22.71,32.18,32.18,0,0,1-32.1,32Zm0-63.89a31.26,31.26,0,0,0-22.35,9.43,31.69,31.69,0,1,0,44.78,44.86A31.37,31.37,0,0,0,247,50.29a32.1,32.1,0,0,0-31.8-31.93Z"/><path class="cls-1" d="M307.24,100.3c-18,0-27.2-7.89-30.65-10.87-1.52-1.21-2-2.13-.73-4.35l5-8.62a3.3,3.3,0,0,1,2.22-1.62,3.52,3.52,0,0,1,2.73.61c6,4.52,12.07,8.58,20.88,8.58,7,0,12.48-4.63,12.48-10.55,0-6.6-5.24-11.55-17.54-16.52-11.25-4.55-26.21-12.62-26.21-30.14a26,26,0,0,1,7.39-18.08C288.45,3,296.76,0,306.82,0c14.68,0,25.79,7.78,27.87,9.34A3.11,3.11,0,0,1,336,11.39a3.6,3.6,0,0,1-.47,2.74L330.28,22A5.16,5.16,0,0,1,328,24a2.9,2.9,0,0,1-2.78-.22l-1-.65c-5.68-3.58-11-7-18.19-7-8.34,0-12.07,4.81-12.07,9.58,0,6.23,4.72,10.7,16.29,15.41,14.4,5.79,29.13,14.07,29.13,31.53a26,26,0,0,1-8.68,19.23C324.74,97.31,316.43,100.3,307.24,100.3ZM283.76,75.08a3.18,3.18,0,0,0-.62.06,2.93,2.93,0,0,0-2,1.47l-5,8.62c-1.2,2.14-.7,2.88.66,4h0c3.43,3,12.53,10.8,30.46,10.8,9.11,0,17.36-3,23.22-8.35a25.66,25.66,0,0,0,8.58-19c0-17.28-14.63-25.5-28.94-31.25-11.71-4.77-16.48-9.32-16.48-15.69,0-4.92,3.82-9.88,12.37-9.88,7.24,0,12.64,3.41,18.35,7l1,.66a2.64,2.64,0,0,0,2.5.19A4.85,4.85,0,0,0,330,21.87L335.31,14a3.24,3.24,0,0,0,.42-2.51,2.77,2.77,0,0,0-1.2-1.86C332.45,8,321.41.3,306.82.3c-10,0-18.21,3-23.8,8.65a25.68,25.68,0,0,0-7.3,17.87c0,17.34,14.85,25.34,26,29.86,12.43,5,17.73,10.05,17.73,16.8,0,6.08-5.61,10.85-12.78,10.85-8.9,0-15-4.09-21.07-8.64A3,3,0,0,0,283.76,75.08Z"/><path class="cls-1" d="M369.61,98.91H356.69a2.9,2.9,0,0,1-2.79-2.79V4.18a2.9,2.9,0,0,1,2.79-2.79h12.92a2.9,2.9,0,0,1,2.78,2.79V96.12A2.9,2.9,0,0,1,369.61,98.91ZM356.69,1.69a2.59,2.59,0,0,0-2.49,2.49V96.12a2.59,2.59,0,0,0,2.49,2.49h12.92a2.58,2.58,0,0,0,2.48-2.49V4.18a2.58,2.58,0,0,0-2.48-2.49Z"/><path class="cls-1" d="M420,100.3c-18,0-27.2-7.89-30.65-10.87-1.51-1.21-2-2.13-.73-4.35l5-8.62a3.3,3.3,0,0,1,2.22-1.62,3.52,3.52,0,0,1,2.73.61c6,4.52,12.07,8.58,20.88,8.58,7,0,12.49-4.63,12.49-10.55,0-6.6-5.25-11.55-17.55-16.52-11.25-4.55-26.2-12.62-26.2-30.14a25.94,25.94,0,0,1,7.38-18.08c5.65-5.72,14-8.74,24-8.74,14.68,0,25.79,7.78,27.86,9.34a3.09,3.09,0,0,1,1.34,2.05,3.56,3.56,0,0,1-.47,2.74L443.06,22c-1.13,1.71-3.3,2.88-5.07,1.71l-1-.65c-5.67-3.58-11-7-18.19-7-8.34,0-12.07,4.81-12.07,9.58,0,6.23,4.72,10.7,16.3,15.41,14.4,5.79,29.12,14.07,29.12,31.53a25.94,25.94,0,0,1-8.68,19.23C437.53,97.31,429.21,100.3,420,100.3ZM396.54,75.08a3.18,3.18,0,0,0-.62.06,3,3,0,0,0-2,1.47l-5,8.62c-1.2,2.14-.7,2.89.66,4h0C393,92.16,402.09,100,420,100c9.11,0,17.36-3,23.22-8.35a25.66,25.66,0,0,0,8.58-19c0-17.28-14.63-25.5-28.94-31.25-11.7-4.77-16.48-9.32-16.48-15.69,0-4.92,3.83-9.88,12.37-9.88,7.24,0,12.64,3.41,18.35,7l1,.66c1.61,1.07,3.6,0,4.65-1.63L448.09,14a3.29,3.29,0,0,0,.43-2.51,2.82,2.82,0,0,0-1.21-1.86C445.23,8,434.19.3,419.61.3c-10,0-18.22,3-23.8,8.65a25.64,25.64,0,0,0-7.3,17.87c0,17.34,14.84,25.34,26,29.86,12.43,5,17.74,10.05,17.74,16.8,0,6.08-5.62,10.85-12.79,10.85-8.9,0-15-4.09-21.07-8.64A3,3,0,0,0,396.54,75.08Z"/><path class="cls-1" d="M498.08,98.91H485.16a2.89,2.89,0,0,1-2.78-2.79V18.36h-21.1a2.79,2.79,0,0,1-2.79-2.79V4.18a2.79,2.79,0,0,1,2.79-2.79H522a2.79,2.79,0,0,1,2.79,2.79V15.57A2.79,2.79,0,0,1,522,18.36h-21.1V96.12A2.9,2.9,0,0,1,498.08,98.91ZM461.28,1.69a2.49,2.49,0,0,0-2.49,2.49V15.57a2.49,2.49,0,0,0,2.49,2.49h21.4V96.12a2.58,2.58,0,0,0,2.48,2.49h12.92a2.59,2.59,0,0,0,2.49-2.49V18.06H522a2.5,2.5,0,0,0,2.49-2.49V4.18A2.5,2.5,0,0,0,522,1.69Z"/><path class="cls-1" d="M596.83,98.91H540.31a2.79,2.79,0,0,1-2.79-2.79V4.18a2.79,2.79,0,0,1,2.79-2.79h56.52a2.79,2.79,0,0,1,2.79,2.79V15.57a2.79,2.79,0,0,1-2.79,2.79h-41V40.83H590a2.9,2.9,0,0,1,2.79,2.79V55.15A2.79,2.79,0,0,1,590,57.94H555.87v24h41a2.8,2.8,0,0,1,2.79,2.79V96.12A2.79,2.79,0,0,1,596.83,98.91ZM540.31,1.69a2.49,2.49,0,0,0-2.49,2.49V96.12a2.48,2.48,0,0,0,2.49,2.49h56.52a2.48,2.48,0,0,0,2.49-2.49V84.73a2.48,2.48,0,0,0-2.49-2.48H555.57V57.64H590a2.5,2.5,0,0,0,2.49-2.49V43.62A2.59,2.59,0,0,0,590,41.13H555.57V18.06h41.26a2.49,2.49,0,0,0,2.49-2.49V4.18a2.49,2.49,0,0,0-2.49-2.49Z"/><path class="cls-1" d="M665.59,100.3h-2.51a2.63,2.63,0,0,1-2.49-1.61L636,44.19h-.19l-8,52.51a2.84,2.84,0,0,1-2.65,2.21h-12.5a2.8,2.8,0,0,1-2.2-.9,3,3,0,0,1-.59-2.46L626.41,2.21A2.49,2.49,0,0,1,629.06,0h2.22a2.66,2.66,0,0,1,2.49,1.47L664.29,67h.23L695,1.48A2.56,2.56,0,0,1,697.53,0h2.22a2.5,2.5,0,0,1,2.65,2.22l16.39,93.32a2.82,2.82,0,0,1-.45,2.44,2.73,2.73,0,0,1-2.2.93H703.5a3.16,3.16,0,0,1-2.78-2.19l-8.18-52.53h-.19L668.08,98.68A2.51,2.51,0,0,1,665.59,100.3Zm-30-56.41h.64l0,.09,24.58,54.58a2.32,2.32,0,0,0,2.22,1.44h2.51a2.2,2.2,0,0,0,2.21-1.42l24.35-54.69h.65L701,96.66a2.85,2.85,0,0,0,2.49,2h12.64a2.43,2.43,0,0,0,2-.82,2.53,2.53,0,0,0,.38-2.19L702.1,2.26a2.17,2.17,0,0,0-2.35-2h-2.22a2.25,2.25,0,0,0-2.23,1.31L664.71,67.25h-.61L633.5,1.6A2.38,2.38,0,0,0,631.28.3h-2.22a2.17,2.17,0,0,0-2.35,2h0L610.18,95.59a2.74,2.74,0,0,0,.52,2.23,2.5,2.5,0,0,0,2,.79h12.5a2.54,2.54,0,0,0,2.35-2Z"/><path class="cls-1" d="M812.81,98.91H800.73c-2.29,0-3.26-1-4.16-2.86L789.8,81.13H748.46L741.7,96.05a4.37,4.37,0,0,1-4.17,2.86H725.45a2.76,2.76,0,0,1-2.4-1.2,2.7,2.7,0,0,1-.1-2.62l43.2-93.47A2.63,2.63,0,0,1,768.65,0H770a2.51,2.51,0,0,1,2.5,1.61l42.78,93.48a2.67,2.67,0,0,1-.1,2.62A2.75,2.75,0,0,1,812.81,98.91ZM748.27,80.83H790l0,.09,6.81,15c1,2,2,2.69,3.89,2.69h12.08A2.47,2.47,0,0,0,815,97.55a2.42,2.42,0,0,0,.08-2.34L772.26,1.74A2.22,2.22,0,0,0,770,.3h-1.38a2.32,2.32,0,0,0-2.23,1.45L723.23,95.21a2.42,2.42,0,0,0,.07,2.34,2.48,2.48,0,0,0,2.15,1.06h12.08a4.06,4.06,0,0,0,3.89-2.68Zm35.05-15.11H754.94l.1-.21,13.65-30.65h.61l0,.09Zm-27.92-.3h27.46L769.1,35.16h-.22Z"/></g></g></svg>