<?xml version="1.0" encoding="utf-8"?>
<!-- Generator: Adobe Illustrator 26.0.3, SVG Export Plug-In . SVG Version: 6.00 Build 0)  -->
<svg version="1.1" id="Capa_1" xmlns="http://www.w3.org/2000/svg" xmlns:xlink="http://www.w3.org/1999/xlink" x="0px" y="0px"
	 viewBox="0 0 560.3 61.2" style="enable-background:new 0 0 560.3 61.2;" xml:space="preserve">
<style type="text/css">
	.st0{fill:#FFFFFF;}
</style>
<g id="Layer_2">
	<g id="Layer_1-2">
		<path class="st0" d="M540.8,61.2c12,0,19.5-8.1,19.5-16.8c0-11-9.5-15.9-17.8-19.2c-6.9-2.8-10-5.5-10-9.5c0-3.2,2.6-6,7.5-6
			c4.7,0,8.2,2.4,11.8,4.7c1,0.7,2.3,0,3-1l3.2-4.8c0.6-0.9,0.4-2.1-0.5-2.8c-5-3.6-10.9-5.6-17-5.7c-13.5,0-19.1,8.8-19.1,16.3
			c0,10,8,15.1,16,18.4c7.1,2.9,10.8,5.9,10.8,10.2c0,3.7-3.3,6.5-7.7,6.5c-5.5,0-9.3-2.6-12.8-5.3c-0.9-0.6-2.1-0.5-2.8,0.4
			c0,0-0.1,0.1-0.1,0.1l-3.1,5.2c-0.8,1.4-0.4,1.9,0.4,2.5C524.5,56.7,530.1,61.2,540.8,61.2 M471.8,58.7c0,0.9,0.7,1.6,1.6,1.6H508
			c0.9,0,1.6-0.7,1.6-1.6v-7c0-0.9-0.7-1.6-1.6-1.6h-25.2V35.3h21c0.9,0,1.6-0.7,1.6-1.6v-7.1c0-0.9-0.8-1.6-1.6-1.6h-21V11.1H508
			c0.9,0,1.6-0.7,1.6-1.6v-7c0-0.9-0.7-1.6-1.6-1.6h-34.6c-0.9,0-1.6,0.7-1.6,1.6L471.8,58.7z M402.8,58.7c0,0.9,0.7,1.6,1.6,1.6
			h7.7c0.9,0,1.6-0.7,1.6-1.6V22.2h0.2l34.9,38.4c0.4,0.4,0.9,0.6,1.5,0.6h1.2c0.8,0,1.5-0.7,1.5-1.5V2.5c0-0.9-0.7-1.6-1.6-1.6
			h-7.8c-0.9,0-1.6,0.7-1.6,1.6v35.1h-0.2l-34.7-37c-0.4-0.4-0.9-0.6-1.4-0.6h-1.3c-0.9,0-1.6,0.7-1.6,1.5L402.8,58.7z M337.6,30.7
			c0-10.8,8.7-19.5,19.4-19.6s19.5,8.7,19.6,19.4s-8.7,19.5-19.4,19.6c0,0-0.1,0-0.1,0C346.3,50,337.6,41.4,337.6,30.7 M326.5,30.7
			c0.3,16.9,14.2,30.3,31.1,30c16.4-0.3,29.7-13.6,30-30c0.3-16.9-13.1-30.8-30-31.1s-30.8,13.1-31.1,30
			C326.5,30,326.5,30.3,326.5,30.7 M300.1,58.7c0,0.9,0.7,1.6,1.6,1.6h7.9c0.9,0,1.6-0.7,1.6-1.6V2.5c0-0.9-0.7-1.6-1.6-1.6h-7.9
			c-0.9,0-1.6,0.7-1.6,1.6V58.7z M233.9,30.7c0,16.8,13.6,30.5,30.5,30.5c0.1,0,0.1,0,0.2,0c7.7,0.1,15.1-2.8,20.7-8.2
			c0.7-0.6,0.7-1.6,0.1-2.3l-5.3-5.4c-0.6-0.6-1.5-0.6-2.1,0c-3.6,3.1-8.2,4.8-13,4.8c-10.9,0-19-9-19-19.6s8.1-19.8,19-19.8
			c4.8,0,9.5,1.8,13.1,5c0.5,0.6,1.3,0.7,1.9,0.2c0.1-0.1,0.1-0.1,0.2-0.2l5.2-5.4c0.6-0.6,0.7-1.6,0.1-2.2
			c-0.1-0.1-0.1-0.1-0.2-0.2c-5.6-5.3-13-8.2-20.7-7.9c-16.9,0-30.6,13.6-30.7,30.6C233.9,30.6,233.9,30.6,233.9,30.7 M171.9,38.5
			c0,12.9,10.3,22.7,23.6,22.7s23.7-9.8,23.7-22.7v-36c0-0.9-0.7-1.6-1.6-1.7h-8.1c-0.9,0-1.6,0.7-1.6,1.6V38
			c0,7.1-5,12.2-12.4,12.2s-12.3-5-12.3-12.2V2.5c0-0.9-0.7-1.6-1.6-1.6c0,0,0,0,0,0h-8.1c-0.9,0.1-1.5,0.8-1.6,1.6L171.9,38.5z
			 M126.7,58.7c0,0.9,0.7,1.6,1.6,1.6c0,0,0,0,0,0h31.1c0.9,0,1.6-0.7,1.6-1.6l0,0v-7c0-0.9-0.7-1.6-1.6-1.6h-21.7V2.5
			c0-0.9-0.7-1.6-1.6-1.6h-7.8c-0.9,0-1.6,0.7-1.6,1.6c0,0,0,0,0,0L126.7,58.7z M61.5,30.7C61.4,20,70.1,11.2,80.9,11.1
			s19.6,8.6,19.6,19.4c0.1,10.8-8.6,19.6-19.4,19.6c0,0-0.1,0-0.1,0C70.2,50,61.6,41.4,61.5,30.7 M50.4,30.7
			c0.3,16.9,14.2,30.3,31.1,30c16.4-0.3,29.7-13.6,30-30c0.3-16.9-13.1-30.8-30-31.1s-30.8,13.1-31.1,30
			C50.4,30,50.4,30.3,50.4,30.7 M19.5,61.2c12,0,19.5-8.1,19.5-16.8c0-11-9.5-15.9-17.8-19.2c-6.9-2.8-10-5.5-10-9.5
			c0-3.2,2.6-6,7.5-6c4.7,0,8.2,2.4,11.8,4.7c1,0.7,2.3,0,3-1l3.2-4.8c0.6-0.9,0.4-2.1-0.5-2.8c-5-3.6-10.9-5.6-17-5.7
			C5.8,0,0.2,8.8,0.2,16.3c0,10,8,15.1,16,18.4C23.3,37.6,27,40.5,27,44.9c0,3.7-3.3,6.5-7.7,6.5c-5.5,0-9.4-2.6-12.8-5.3
			c-0.9-0.6-2.1-0.5-2.8,0.4c0,0-0.1,0.1-0.1,0.1L0.4,52c-0.8,1.4-0.4,1.9,0.4,2.5C3.3,56.7,8.9,61.2,19.5,61.2"/>
	</g>
</g>
</svg>
