<?xml version="1.0" encoding="utf-8"?>
<!-- Generator: Adobe Illustrator 25.4.1, SVG Export Plug-In . SVG Version: 6.00 Build 0)  -->
<svg version="1.1" id="Layer_1" xmlns="http://www.w3.org/2000/svg" xmlns:xlink="http://www.w3.org/1999/xlink" x="0px" y="0px"
	 viewBox="0 0 520.5 520.5" style="enable-background:new 0 0 520.5 520.5;" xml:space="preserve">
<style type="text/css">
	.st0{fill:#76BC21;}
	.st1{fill:#EB7423;}
	.st2{fill:#FFB71B;}
	.st3{fill:#007DC3;}
	.st4{fill:#FFFFFF;}
	.st5{fill:#9169C9;}
	.st6{fill:none;stroke:#FFFFFF;stroke-miterlimit:10;}
</style>
<g>
	<g>
		<path class="st0" d="M192.9,511.7c20,5.4,40.1,8.2,59.9,8.8V412.4c-10.6-0.5-21.3-2.2-31.9-5c-65.6-17.6-109.6-75.3-112.8-139.7
			l-108,0C3.2,379.8,79.1,481.2,192.9,511.7"/>
		<path class="st1" d="M511.7,327.6c5.4-20,8.2-40.1,8.8-59.9H412.4c-0.5,10.6-2.2,21.3-5,31.9c-17.6,65.6-75.3,109.6-139.7,112.8
			v108C379.8,517.3,481.2,441.4,511.7,327.6"/>
		<path class="st2" d="M327.6,8.8c-20-5.4-40.1-8.2-59.9-8.8v108.1c10.6,0.5,21.3,2.2,31.9,5c65.6,17.6,109.6,75.3,112.8,139.7h108
			C517.3,140.7,441.4,39.3,327.6,8.8"/>
		<path class="st3" d="M8.8,192.9c-5.4,20-8.2,40.1-8.8,59.9h108.1c0.5-10.6,2.2-21.3,5-31.9c17.6-65.6,75.3-109.6,139.7-112.8
			l0-108C140.7,3.2,39.3,79.1,8.8,192.9"/>
	</g>
	<g>
		<path class="st4" d="M329.6,53.5l-2.7-0.8c-0.2-0.1-0.2-0.2-0.2-0.4l0.1-0.4c0-0.2,0.2-0.3,0.4-0.2l6.5,2c0.2,0.1,0.2,0.2,0.2,0.4
			l-0.1,0.4c0,0.2-0.2,0.3-0.4,0.2l-2.7-0.8l-2.8,9.4c0,0.2-0.2,0.2-0.4,0.2l-0.6-0.2c-0.2,0-0.2-0.2-0.2-0.4L329.6,53.5z"/>
	</g>
	<g>
		<path class="st4" d="M331,64l8.2-8.5c0.1-0.1,0.2-0.1,0.3-0.1l0.2,0.1c0.1,0,0.2,0.1,0.2,0.3l1,11.8c0,0.2-0.2,0.4-0.4,0.3
			l-0.6-0.2c-0.1,0-0.2-0.2-0.2-0.3l-0.2-2.9l-5.4-1.9l-2,2.1c-0.1,0.1-0.2,0.1-0.3,0.1l-0.6-0.2C330.9,64.4,330.9,64.2,331,64z
			 M339.3,63.4c-0.2-1.9-0.3-3.8-0.5-5.7l-0.1,0l-4,4.2L339.3,63.4z"/>
	</g>
	<g>
		<path class="st4" d="M346.6,58.6c0.1-0.1,0.2-0.2,0.4-0.2l0.6,0.2c0.1,0.1,0.2,0.2,0.2,0.4l-3.7,9.1l4.3,1.7
			c0.2,0.1,0.2,0.2,0.2,0.4l-0.2,0.4c-0.1,0.1-0.2,0.2-0.4,0.2l-5.1-2.1c-0.2-0.1-0.2-0.2-0.2-0.4L346.6,58.6z"/>
	</g>
	<g>
		<path class="st4" d="M354.6,61.9c0.1-0.1,0.2-0.2,0.4-0.1l5.7,2.7c0.2,0.1,0.2,0.3,0.1,0.4l-0.2,0.4c-0.1,0.1-0.2,0.2-0.4,0.1
			l-4.9-2.3l-1.6,3.5l4.2,1.9c0.1,0.1,0.2,0.3,0.1,0.4l-0.2,0.4c-0.1,0.2-0.3,0.2-0.4,0.1l-4.2-1.9l-1.7,3.7l4.9,2.3
			c0.2,0.1,0.2,0.3,0.1,0.4l-0.2,0.4c-0.1,0.1-0.2,0.2-0.4,0.1l-5.7-2.7c-0.2-0.1-0.2-0.3-0.1-0.4L354.6,61.9z"/>
	</g>
	<g>
		<path class="st4" d="M363.8,66.1c0.1-0.1,0.3-0.2,0.4-0.1l0.2,0.1c0.1,0.1,0.2,0.1,0.2,0.2l2.1,11.2c0,0,0,0,0,0l4-7.5
			c0.1-0.1,0.3-0.2,0.4-0.1l0.5,0.3c0.1,0.1,0.2,0.3,0.1,0.4l-5.1,9.5c-0.1,0.1-0.3,0.2-0.4,0.1l-0.1-0.1c-0.1-0.1-0.2-0.1-0.2-0.2
			l-2.1-11.4l0,0l-4.1,7.7c-0.1,0.1-0.3,0.2-0.4,0.1l-0.5-0.3c-0.1-0.1-0.2-0.3-0.1-0.4L363.8,66.1z"/>
	</g>
	<g>
		<path class="st4" d="M376.4,74.2l-2.4-1.4c-0.2-0.1-0.2-0.3-0.1-0.4l0.2-0.4c0.1-0.1,0.3-0.2,0.4-0.1l5.8,3.5
			c0.2,0.1,0.2,0.3,0.1,0.4l-0.2,0.4c-0.1,0.1-0.3,0.2-0.4,0.1l-2.4-1.4l-5.1,8.4c-0.1,0.1-0.3,0.2-0.4,0.1l-0.5-0.3
			c-0.1-0.1-0.2-0.3-0.1-0.4L376.4,74.2z"/>
	</g>
	<g>
		<path class="st4" d="M385.7,79.1c0.1-0.2,0.3-0.3,0.5-0.1l0.5,0.4c0.1,0.1,0.1,0.2,0.1,0.4l-3,8l0.1,0l7.1-5.3
			c0.1-0.1,0.2-0.1,0.3,0l0.2,0.2c0.1,0.1,0.1,0.2,0.1,0.3l-2.8,8.5l0.1,0l6.6-5.5c0.1-0.1,0.3-0.1,0.4,0l0.5,0.4
			c0.2,0.1,0.2,0.3,0,0.5l-8.7,7c-0.1,0.1-0.3,0.1-0.4,0l-0.2-0.1c-0.1-0.1-0.1-0.2-0.1-0.3l2.8-8.6l-0.1,0l-7.3,5.4
			c-0.1,0-0.2,0.1-0.3,0l-0.2-0.1c-0.1-0.1-0.2-0.2-0.1-0.4L385.7,79.1z"/>
	</g>
	<g>
		<path class="st4" d="M398.6,88.6c0.1-0.1,0.3-0.1,0.4,0l0.5,0.4c0.1,0.1,0.1,0.3,0,0.4l-6.6,8.3c-0.1,0.1-0.3,0.1-0.4,0l-0.5-0.4
			c-0.1-0.1-0.1-0.3,0-0.4L398.6,88.6z"/>
	</g>
	<g>
		<path class="st4" d="M403.5,93.6l-2.1-1.8c-0.1-0.1-0.1-0.3,0-0.4l0.3-0.4c0.1-0.1,0.3-0.1,0.4,0l5.2,4.4c0.1,0.1,0.1,0.3,0,0.4
			l-0.3,0.4c-0.1,0.1-0.3,0.1-0.4,0l-2.1-1.8l-6.4,7.5c-0.1,0.1-0.3,0.1-0.4,0l-0.5-0.4c-0.1-0.1-0.1-0.3,0-0.4L403.5,93.6z"/>
	</g>
	<g>
		<path class="st4" d="M409.3,97.6c0.1-0.1,0.3-0.1,0.4,0l0.5,0.4c0.1,0.1,0.1,0.3,0,0.4l-3.2,3.4l4.7,4.5l3.2-3.4
			c0.1-0.1,0.3-0.1,0.4,0l0.5,0.4c0.1,0.1,0.1,0.3,0,0.4l-7.3,7.7c-0.1,0.1-0.3,0.1-0.4,0l-0.5-0.4c-0.1-0.1-0.1-0.3,0-0.4l3.3-3.5
			l-4.7-4.5l-3.3,3.5c-0.1,0.1-0.3,0.1-0.4,0l-0.5-0.4c-0.1-0.1-0.1-0.3,0-0.4L409.3,97.6z"/>
	</g>
	<g>
		<path class="st4" d="M421.6,109.8c0.1-0.1,0.3-0.1,0.4,0l2.4,2.7c2.1,2.3,1.9,5.9-0.4,7.9c-2.3,2.1-5.9,1.9-7.9-0.4l-2.4-2.7
			c-0.1-0.1-0.1-0.3,0-0.4L421.6,109.8z M416.8,119.1c1.7,2,4.4,2.1,6.3,0.3c2-1.7,2.1-4.4,0.4-6.3l-1.7-1.9l-6.7,6L416.8,119.1z"/>
	</g>
	<g>
		<path class="st4" d="M429.9,119.3c0.1-0.1,0.3-0.1,0.4,0l0.4,0.5c0.1,0.1,0.1,0.3,0,0.4l-8.2,6.7c-0.1,0.1-0.3,0.1-0.4,0l-0.4-0.5
			c-0.1-0.1-0.1-0.3,0-0.4L429.9,119.3z"/>
	</g>
	<g>
		<path class="st4" d="M425.4,128.3l0.4,0c0.3,0,0.4,0.1,0.4,0.3c0,0.1-0.1,1.8,0.7,2.9c0.8,1,2,1.2,2.8,0.6
			c0.9-0.7,0.8-1.8,0.3-3.8c-0.5-1.9-0.6-3.1,0.9-4.2c0.9-0.7,2.8-1,4.3,1c1,1.2,1,2.7,1,2.7c0,0.1,0,0.4-0.4,0.4l-0.3,0
			c-0.3,0-0.4-0.1-0.4-0.4c-0.1-0.8-0.2-1.4-0.8-2.1c-1-1.3-2.2-1.1-2.7-0.7c-0.9,0.7-0.8,1.6-0.4,3c0.6,2.2,0.8,3.9-0.7,5
			c-1.3,1-3.3,0.5-4.4-1c-1.1-1.5-1-3.2-1-3.5C425,128.5,425,128.2,425.4,128.3z"/>
	</g>
	<g>
		<path class="st4" d="M429.2,135.4l11.6-2.1c0.1,0,0.2,0,0.3,0.1l0.1,0.1c0.1,0.1,0.1,0.2,0,0.3l-6.1,10.1c-0.1,0.2-0.4,0.2-0.5,0
			l-0.4-0.5c-0.1-0.1-0.1-0.3,0-0.3l1.5-2.5l-3.2-4.7l-2.8,0.5c-0.1,0-0.2,0-0.3-0.1l-0.4-0.5C428.9,135.6,429,135.4,429.2,135.4z
			 M436.3,139.7c1-1.6,2-3.3,3-4.9l-0.1-0.1l-5.6,1L436.3,139.7z"/>
	</g>
	<g>
		<path class="st4" d="M443.5,147.6c0.1,0.9,0,2.2-1.2,3c-1.5,0.9-3.4,0.4-4.4-1.3l-2-3.2c-0.1-0.2,0-0.3,0.1-0.4l9-5.5
			c0.1-0.1,0.3,0,0.4,0.1l1.8,3c1,1.7,0.6,3.4-0.8,4.3C445.4,148.2,444.3,147.9,443.5,147.6L443.5,147.6z M438.8,148.6
			c0.7,1.1,1.9,1.3,2.8,0.7c1-0.6,1.2-1.8,0.5-2.9l-1.4-2.3l-3.4,2.1L438.8,148.6z M442.9,145.7c0.7,1.1,1.8,1.3,2.8,0.7
			c1-0.6,1.2-1.7,0.5-2.8l-1.3-2.1l-3.3,2L442.9,145.7z"/>
	</g>
	<g>
		<path class="st4" d="M450.5,149.3c0.1-0.1,0.3,0,0.4,0.1l0.3,0.6c0.1,0.1,0,0.3-0.1,0.4l-9.2,5.2c-0.1,0.1-0.3,0-0.4-0.1l-0.3-0.6
			c-0.1-0.1,0-0.3,0.1-0.4L450.5,149.3z"/>
	</g>
	<g>
		<path class="st4" d="M452.9,153.6c0.1-0.1,0.3,0,0.4,0.1l0.3,0.6c0.1,0.1,0,0.3-0.1,0.4l-8.7,4.5l2.1,4.1c0.1,0.2,0,0.3-0.1,0.4
			l-0.4,0.2c-0.1,0.1-0.3,0-0.4-0.1l-2.5-4.9c-0.1-0.2,0-0.3,0.1-0.4L452.9,153.6z"/>
	</g>
	<g>
		<path class="st4" d="M456.8,161.3c0.1-0.1,0.3,0,0.4,0.1l0.3,0.6c0.1,0.1,0,0.3-0.1,0.4l-9.6,4.6c-0.1,0.1-0.3,0-0.4-0.1l-0.3-0.6
			c-0.1-0.1,0-0.3,0.1-0.4L456.8,161.3z"/>
	</g>
	<g>
		<path class="st4" d="M459,167.9l-1.1-2.6c-0.1-0.2,0-0.3,0.2-0.4l0.4-0.2c0.1-0.1,0.3,0,0.4,0.2l2.7,6.2c0.1,0.2,0,0.3-0.2,0.4
			l-0.4,0.2c-0.1,0.1-0.3,0-0.4-0.2l-1.1-2.6l-9,3.9c-0.1,0.1-0.3,0-0.4-0.2l-0.2-0.6c-0.1-0.1,0-0.3,0.2-0.4L459,167.9z"/>
	</g>
	<g>
		<path class="st4" d="M462.3,173.9c0.1-0.1,0.3,0,0.4,0.2l0.2,0.6c0.1,0.1,0,0.3-0.2,0.4l-9.8,3.9c-0.1,0.1-0.3,0-0.4-0.2l-0.2-0.6
			c-0.1-0.1,0-0.3,0.2-0.4L462.3,173.9z"/>
	</g>
	<g>
		<path class="st4" d="M464.1,178.6c0.2-0.1,0.3,0,0.4,0.2l2.1,5.9c0.1,0.2,0,0.3-0.2,0.4l-0.4,0.2c-0.2,0.1-0.3,0-0.4-0.2l-1.8-5.1
			l-3.7,1.3l1.5,4.3c0.1,0.2,0,0.3-0.2,0.4l-0.4,0.2c-0.2,0.1-0.3,0-0.4-0.2l-1.5-4.3l-3.8,1.4l1.8,5.1c0.1,0.2,0,0.3-0.2,0.4
			l-0.4,0.2c-0.2,0.1-0.3,0-0.4-0.2l-2.1-5.9c-0.1-0.2,0-0.3,0.2-0.4L464.1,178.6z"/>
	</g>
	<g>
		<path class="st4" d="M458.4,190l0.4,0.1c0.2,0.1,0.4,0.2,0.2,0.5c-0.1,0.1-0.7,1.6-0.3,3c0.4,1.2,1.4,1.8,2.4,1.5
			c1.1-0.3,1.4-1.4,1.6-3.4c0.2-1.9,0.5-3.1,2.3-3.6c1-0.3,3,0,3.7,2.4c0.5,1.5,0,2.9,0,2.9c0,0.1-0.2,0.3-0.5,0.2l-0.3-0.1
			c-0.3-0.1-0.3-0.2-0.2-0.5c0.2-0.8,0.3-1.4,0-2.2c-0.5-1.6-1.7-1.8-2.3-1.6c-1.1,0.3-1.3,1.3-1.5,2.7c-0.2,2.3-0.6,3.9-2.4,4.4
			c-1.6,0.5-3.3-0.7-3.8-2.5c-0.5-1.8,0.1-3.4,0.3-3.6C458,190.1,458,189.9,458.4,190z"/>
	</g>
	<g>
		<path class="st4" d="M71.2,162.3c0.7-1.5,1.7-2.3,3-2.9c0.2-0.1,0.4,0,0.4,0.2c0.1,0.2,0.1,0.4,0.2,0.6c0.1,0.2,0,0.3-0.2,0.4
			c-1,0.4-2,1.2-2.4,2.2c-1.1,2.3,0,4.9,2.2,6c2.2,1.1,5,0.2,6.1-2c0.8-1.6,0.6-2.9,0.6-2.9l-2-1l-0.8,1.7c-0.1,0.2-0.2,0.2-0.4,0.2
			l-0.5-0.3c-0.2-0.1-0.2-0.2-0.1-0.4l1.2-2.5c0.1-0.1,0.3-0.2,0.4-0.1l3.3,1.6c0.1,0,0.2,0.1,0.2,0.2c0,0,0.3,1.9-0.7,4
			c-1.4,2.9-4.8,4.1-7.7,2.8C71.1,168.7,69.8,165.2,71.2,162.3z"/>
	</g>
	<g>
		<path class="st4" d="M75,155.8c-0.1-0.1-0.2-0.3-0.1-0.4l3-5.5c0.1-0.2,0.3-0.2,0.4-0.1l0.4,0.2c0.1,0.1,0.2,0.3,0.1,0.4l-2.6,4.7
			l3.4,1.9l2.2-4c0.1-0.1,0.3-0.2,0.4-0.1l0.4,0.2c0.2,0.1,0.2,0.3,0.1,0.4l-2.2,4l3.6,2l2.6-4.7c0.1-0.2,0.3-0.2,0.4-0.1l0.4,0.2
			c0.1,0.1,0.2,0.3,0.1,0.4l-3,5.5c-0.1,0.2-0.3,0.2-0.4,0.1L75,155.8z"/>
	</g>
	<g>
		<path class="st4" d="M79.7,146.9c-0.1-0.1-0.2-0.3-0.1-0.4l0.1-0.2c0.1-0.1,0.1-0.1,0.2-0.1l11.3-1.4c0,0,0,0,0,0l-7.2-4.5
			c-0.1-0.1-0.2-0.3-0.1-0.4l0.3-0.5c0.1-0.1,0.3-0.2,0.4-0.1l9.2,5.7c0.1,0.1,0.2,0.3,0.1,0.4l-0.1,0.1c-0.1,0.1-0.1,0.1-0.2,0.1
			L82.1,147l0,0l7.4,4.6c0.1,0.1,0.2,0.3,0.1,0.4l-0.3,0.5c-0.1,0.1-0.3,0.2-0.4,0.1L79.7,146.9z"/>
	</g>
	<g>
		<path class="st4" d="M86.9,135.9c-0.1-0.1-0.2-0.3-0.1-0.4l2.1-2.9c1.8-2.5,5.3-3.1,7.8-1.3c2.5,1.8,3.1,5.3,1.3,7.8L96,142
			c-0.1,0.1-0.3,0.2-0.4,0.1L86.9,135.9z M97,138.5c1.5-2.1,1.1-4.7-1.1-6.3c-2.1-1.5-4.7-1.1-6.2,1l-1.5,2l7.3,5.2L97,138.5z"/>
	</g>
	<g>
		<path class="st4" d="M94.4,125.6c-0.1-0.1-0.2-0.3,0-0.4l3.9-4.9c0.1-0.1,0.3-0.1,0.4,0l0.4,0.3c0.1,0.1,0.2,0.3,0,0.4l-3.3,4.2
			l3.1,2.4l2.9-3.6c0.1-0.1,0.3-0.1,0.4,0l0.4,0.3c0.1,0.1,0.1,0.3,0,0.4l-2.9,3.6l3.2,2.5l3.3-4.2c0.1-0.1,0.3-0.1,0.4,0l0.4,0.3
			c0.1,0.1,0.2,0.3,0,0.4l-3.9,4.9c-0.1,0.1-0.3,0.1-0.4,0L94.4,125.6z"/>
	</g>
	<g>
		<path class="st4" d="M100.7,117.8c-0.1-0.1-0.1-0.3,0-0.4l2.7-3.1c1.3-1.4,3.4-1.6,4.9-0.4c1.1,1,1.4,2.5,0.9,3.9l4.5,1
			c0.2,0.1,0.3,0.3,0.2,0.5l-0.5,0.6c-0.1,0.1-0.2,0.2-0.4,0.1l-4.5-1.2l-2,2.3l3.1,2.7c0.1,0.1,0.1,0.3,0,0.4l-0.4,0.5
			c-0.1,0.1-0.3,0.1-0.4,0L100.7,117.8z M107.7,118.1c0.8-0.9,0.8-2.4-0.2-3.3c-0.9-0.8-2.4-0.7-3.2,0.2l-2.1,2.3l3.4,3L107.7,118.1
			z"/>
	</g>
	<g>
		<path class="st4" d="M111.3,106.3c-0.1-0.1-0.1-0.3,0-0.4l4.5-4.4c0.1-0.1,0.3-0.1,0.4,0l0.3,0.3c0.1,0.1,0.1,0.3,0,0.4l-3.8,3.8
			l2.7,2.8l3.3-3.2c0.1-0.1,0.3-0.1,0.4,0l0.3,0.3c0.1,0.1,0.1,0.3,0,0.4l-3.3,3.2l2.9,2.9l3.8-3.8c0.1-0.1,0.3-0.1,0.4,0l0.3,0.3
			c0.1,0.1,0.1,0.3,0,0.4l-4.5,4.4c-0.1,0.1-0.3,0.1-0.4,0L111.3,106.3z"/>
	</g>
	<g>
		<path class="st4" d="M121.8,95.8c2.4-2.1,6-1.8,8.1,0.6c1.1,1.3,1.6,2.9,1.4,4.4l2.2,0.3c0.3,0,0.3,0.3,0.2,0.4l-0.6,0.5
			c-0.1,0.1-0.2,0.1-0.4,0.1l-1.6-0.2c-0.3,1-0.9,1.8-1.7,2.5c-2.4,2.1-6,1.9-8.1-0.5C119.2,101.5,119.4,97.9,121.8,95.8z
			 M128.7,103.6c0.6-0.5,1-1.2,1.3-1.9l-2.7-0.4c-0.3-0.1-0.4-0.3-0.2-0.5l0.6-0.5c0.1-0.1,0.2-0.1,0.4-0.1l2.2,0.3
			c0.1-1.2-0.2-2.5-1.1-3.5c-1.7-1.9-4.6-2.1-6.6-0.5c-1.9,1.7-2.1,4.6-0.4,6.5C123.8,105.1,126.8,105.3,128.7,103.6z"/>
	</g>
	<g>
		<path class="st4" d="M129,90.4c-0.1-0.1-0.1-0.3,0.1-0.4l0.5-0.4c0.1-0.1,0.3-0.1,0.4,0.1l4.1,5.3c1.1,1.4,2.8,1.8,4.3,0.7
			c1.5-1.1,1.6-2.9,0.5-4.4l-4.1-5.4c-0.1-0.1-0.1-0.3,0.1-0.4l0.5-0.4c0.1-0.1,0.3-0.1,0.4,0.1l4.2,5.4c1.5,1.9,1.2,4.4-0.8,5.9
			c-2,1.5-4.4,1.1-5.9-0.8L129,90.4z"/>
	</g>
	<g>
		<path class="st4" d="M143.4,92.5l-2-11.6c0-0.1,0-0.2,0.1-0.3l0.1-0.1c0.1-0.1,0.2-0.1,0.3,0l10.1,6.2c0.2,0.1,0.2,0.4,0,0.5
			l-0.5,0.4c-0.1,0.1-0.3,0.1-0.3,0l-2.5-1.5l-4.7,3.2l0.5,2.8c0,0.1,0,0.2-0.1,0.3l-0.5,0.4C143.6,92.9,143.4,92.8,143.4,92.5z
			 M147.8,85.5c-1.6-1-3.3-2-4.9-3l-0.1,0.1l1,5.7L147.8,85.5z"/>
	</g>
	<g>
		<path class="st4" d="M148.2,76.8c-0.1-0.1,0-0.3,0.1-0.4l0.5-0.3c0.1-0.1,0.3,0,0.4,0.1l5.1,8.4l3.9-2.4c0.2-0.1,0.3,0,0.4,0.1
			l0.2,0.4c0.1,0.1,0.1,0.3-0.1,0.4l-4.7,2.9c-0.2,0.1-0.3,0-0.4-0.1L148.2,76.8z"/>
	</g>
	<g>
		<path class="st4" d="M155.5,72.4c-0.1-0.1,0-0.3,0.1-0.4l0.6-0.3c0.1-0.1,0.3,0,0.4,0.1l5.2,9.2c0.1,0.1,0,0.3-0.1,0.4l-0.6,0.3
			c-0.1,0.1-0.3,0-0.4-0.1L155.5,72.4z"/>
	</g>
	<g>
		<path class="st4" d="M161.9,69.7l-2.5,1.3c-0.2,0.1-0.3,0-0.4-0.1l-0.2-0.4c-0.1-0.1,0-0.3,0.1-0.4l6-3.2c0.2-0.1,0.3,0,0.4,0.1
			l0.2,0.4c0.1,0.1,0,0.3-0.1,0.4l-2.5,1.3l4.6,8.7c0.1,0.1,0,0.3-0.1,0.4l-0.5,0.3c-0.1,0.1-0.3,0-0.4-0.1L161.9,69.7z"/>
	</g>
	<g>
		<path class="st4" d="M172.4,69.8l-5.8-3.2c-0.2-0.1-0.2-0.4,0-0.5l0.7-0.3c0.1,0,0.2,0,0.3,0l4.8,2.7l1-5.4c0-0.1,0.1-0.2,0.2-0.2
			l0.7-0.3c0.2-0.1,0.5,0.1,0.4,0.3l-1.3,6.5l2.2,4.6c0.1,0.1,0,0.3-0.1,0.4l-0.6,0.3c-0.2,0.1-0.3,0-0.4-0.1L172.4,69.8z"/>
	</g>
	<g>
		<path class="st4" d="M69.4,331.5c0.2-0.1,0.3,0,0.4,0.2l0.1,0.2c0,0.1,0,0.2,0,0.3l-5.8,9.8c0,0,0,0,0,0l8-3
			c0.2-0.1,0.3,0,0.4,0.2l0.2,0.5c0.1,0.1,0,0.3-0.2,0.4l-10.1,3.8c-0.1,0.1-0.3,0-0.4-0.2l0-0.1c0-0.1,0-0.2,0-0.3l5.9-10l0,0
			l-8.2,3c-0.1,0.1-0.3,0-0.4-0.2l-0.2-0.5c-0.1-0.1,0-0.3,0.2-0.4L69.4,331.5z"/>
	</g>
	<g>
		<path class="st4" d="M76.1,347.3c1.3,2.9,0,6.3-2.9,7.6c-2.9,1.3-6.3,0-7.6-2.9c-1.3-2.9,0-6.3,2.9-7.6
			C71.4,343.1,74.8,344.4,76.1,347.3z M66.6,351.6c1,2.3,3.8,3.4,6.1,2.3c2.3-1,3.4-3.8,2.3-6.1c-1-2.3-3.8-3.4-6.1-2.3
			C66.6,346.5,65.6,349.3,66.6,351.6z"/>
	</g>
	<g>
		<path class="st4" d="M79.3,354.8c0.1-0.1,0.3,0,0.4,0.1l0.1,0.2c0.1,0.1,0.1,0.2,0,0.3l-4.5,10.4c0,0,0,0,0,0l7.5-4
			c0.1-0.1,0.3,0,0.4,0.1l0.3,0.5c0.1,0.1,0,0.3-0.1,0.4l-9.5,5c-0.1,0.1-0.3,0-0.4-0.1l-0.1-0.1c-0.1-0.1-0.1-0.2,0-0.3l4.6-10.6
			l0,0l-7.7,4.1c-0.1,0.1-0.3,0-0.4-0.1l-0.3-0.5c-0.1-0.1,0-0.3,0.1-0.4L79.3,354.8z"/>
	</g>
	<g>
		<path class="st4" d="M78.6,368.8l0.3-0.2c0.2-0.1,0.3,0,0.4,0.1l1.7,2.9c0.1,0.2,0,0.3-0.1,0.4l-0.3,0.2c-0.1,0.1-0.3,0-0.4-0.1
			l-1.7-2.9C78.4,369.1,78.5,368.9,78.6,368.8z"/>
	</g>
	<g>
		<path class="st4" d="M88.1,371c0.1-0.1,0.3-0.1,0.4,0.1l2,3c1.7,2.6,1,6.1-1.6,7.8c-2.6,1.7-6.1,0.9-7.8-1.6l-2-3
			c-0.1-0.1,0-0.3,0.1-0.4L88.1,371z M81.9,379.4c1.4,2.2,4,2.7,6.2,1.3c2.2-1.4,2.8-4,1.3-6.2l-1.4-2.1l-7.5,4.9L81.9,379.4z"/>
	</g>
	<g>
		<path class="st4" d="M94.7,380.9c0.1-0.1,0.3-0.1,0.4,0.1l0.4,0.5c0.1,0.1,0.1,0.3-0.1,0.4l-8.6,6.1c-0.1,0.1-0.3,0.1-0.4-0.1
			l-0.4-0.5c-0.1-0.1-0.1-0.3,0.1-0.4L94.7,380.9z"/>
	</g>
	<g>
		<path class="st4" d="M89.6,389.7l0.4,0c0.3,0,0.4,0.1,0.4,0.4c0,0.1-0.1,1.8,0.7,2.9c0.8,1,1.9,1.2,2.7,0.6
			c0.9-0.7,0.8-1.8,0.3-3.8c-0.5-1.9-0.6-3.1,0.9-4.2c0.9-0.7,2.8-1,4.3,1c1,1.2,1,2.7,1,2.7c0,0.1,0,0.4-0.4,0.4l-0.3,0
			c-0.3,0-0.4-0.1-0.4-0.4c-0.1-0.8-0.2-1.4-0.8-2.1c-1-1.3-2.2-1.1-2.7-0.7c-0.9,0.7-0.8,1.6-0.4,3c0.6,2.3,0.8,3.9-0.7,5
			c-1.3,1-3.3,0.5-4.4-1c-1.1-1.5-1-3.2-1-3.5C89.3,389.9,89.3,389.6,89.6,389.7z"/>
	</g>
	<g>
		<path class="st4" d="M106.2,394.9c1,1.2,1.4,2.5,1.4,3.9c0,0.2-0.2,0.3-0.3,0.3l-0.6-0.1c-0.2,0-0.3-0.1-0.3-0.3
			c0-1.1-0.3-2.2-1.1-3.1c-1.6-1.9-4.5-2-6.4-0.4c-1.9,1.6-2.3,4.4-0.6,6.4c0.9,1.1,1.8,1.4,2.9,1.6c0.2,0,0.3,0.1,0.3,0.3l0,0.5
			c0,0.2-0.2,0.3-0.3,0.3c-1.4-0.2-2.7-0.8-3.6-1.9c-2.1-2.4-1.8-6.1,0.7-8.1C100.5,392.2,104.1,392.5,106.2,394.9z"/>
	</g>
	<g>
		<path class="st4" d="M109.9,399.9c0.1-0.1,0.3-0.1,0.4,0l2.8,3c1.3,1.4,1.3,3.6-0.1,4.9c-1.1,1-2.6,1.1-4,0.5l-1.5,4.4
			c-0.1,0.2-0.3,0.3-0.5,0.1l-0.5-0.6c-0.1-0.1-0.1-0.3-0.1-0.4l1.6-4.4l-2.1-2.2l-3,2.8c-0.1,0.1-0.3,0.1-0.4,0l-0.4-0.5
			c-0.1-0.1-0.1-0.3,0-0.4L109.9,399.9z M109,406.9c0.8,0.9,2.3,1,3.3,0.1c0.9-0.8,0.9-2.3,0.1-3.2l-2.1-2.3l-3.3,3.1L109,406.9z"/>
	</g>
	<g>
		<path class="st4" d="M117.2,407.5c0.1-0.1,0.3-0.1,0.4,0l0.5,0.5c0.1,0.1,0.1,0.3,0,0.4l-7.4,7.5c-0.1,0.1-0.3,0.1-0.4,0l-0.5-0.4
			c-0.1-0.1-0.1-0.3,0-0.4L117.2,407.5z"/>
	</g>
	<g>
		<path class="st4" d="M121.5,411.3c0.1-0.1,0.3-0.1,0.4,0l0.2,0.2c0.1,0.1,0.1,0.2,0.1,0.3l-3.5,8.7c0,0,0,0,0.1,0.1l8.2-4.5
			c0.1-0.1,0.2,0,0.3,0.1l0.2,0.2c0.1,0.1,0.1,0.2,0.1,0.4l-5.7,9.4c-0.1,0.2-0.3,0.3-0.5,0.1l-0.5-0.4c-0.1-0.1-0.1-0.3-0.1-0.4
			l4.5-7.1c0,0,0,0,0,0l-7.8,4.3c-0.1,0-0.2,0-0.3-0.1l-0.2-0.2c-0.1-0.1-0.1-0.2-0.1-0.3l3.4-8.3c0,0,0,0,0,0l-6.5,5.2
			c-0.1,0.1-0.3,0.1-0.4,0l-0.5-0.4c-0.2-0.2-0.1-0.3,0-0.5L121.5,411.3z"/>
	</g>
	<g>
		<path class="st4" d="M130.8,419.8c0.1-0.1,0.3-0.1,0.4,0l0.5,0.4c0.1,0.1,0.1,0.3,0,0.4l-6.7,8.2c-0.1,0.1-0.3,0.1-0.4,0l-0.5-0.4
			c-0.1-0.1-0.1-0.3,0-0.4L130.8,419.8z"/>
	</g>
	<g>
		<path class="st4" d="M134.3,422.4c0.1-0.1,0.3-0.1,0.4,0l0.2,0.1c0.1,0.1,0.1,0.1,0.1,0.3l0.4,11.4c0,0,0,0,0,0l5.1-6.8
			c0.1-0.1,0.3-0.2,0.4-0.1l0.4,0.3c0.1,0.1,0.2,0.3,0.1,0.4l-6.5,8.6c-0.1,0.1-0.3,0.1-0.4,0l-0.1-0.1c-0.1-0.1-0.1-0.1-0.1-0.3
			l-0.4-11.6l0,0l-5.2,7c-0.1,0.1-0.3,0.2-0.4,0.1l-0.4-0.3c-0.1-0.1-0.2-0.3-0.1-0.4L134.3,422.4z"/>
	</g>
	<g>
		<path class="st4" d="M137,437.8l10-6.3c0.1-0.1,0.2-0.1,0.3,0l0.1,0.1c0.1,0.1,0.1,0.2,0.1,0.3l-2,11.6c0,0.2-0.3,0.3-0.5,0.2
			l-0.5-0.4c-0.1-0.1-0.1-0.2-0.1-0.3l0.5-2.9l-4.7-3.2l-2.4,1.5c-0.1,0-0.2,0.1-0.3,0l-0.5-0.4C136.8,438.1,136.8,437.9,137,437.8z
			 M145.2,439.1c0.3-1.9,0.7-3.8,1-5.7l-0.1-0.1l-4.9,3.1L145.2,439.1z"/>
	</g>
	<g>
		<path class="st4" d="M153.7,437l-2.4-1.4c-0.2-0.1-0.2-0.3-0.1-0.4l0.2-0.4c0.1-0.1,0.3-0.2,0.4-0.1l5.8,3.5
			c0.2,0.1,0.2,0.3,0.1,0.4l-0.2,0.4c-0.1,0.1-0.3,0.2-0.4,0.1l-2.4-1.4l-5.1,8.4c-0.1,0.1-0.3,0.2-0.4,0.1l-0.5-0.3
			c-0.1-0.1-0.2-0.3-0.1-0.4L153.7,437z"/>
	</g>
	<g>
		<path class="st4" d="M159.6,439.6c0.1-0.1,0.3-0.2,0.4-0.1l0.6,0.3c0.1,0.1,0.2,0.3,0.1,0.4l-5.2,9.2c-0.1,0.1-0.3,0.2-0.4,0.1
			l-0.6-0.3c-0.1-0.1-0.2-0.3-0.1-0.4L159.6,439.6z"/>
	</g>
	<g>
		<path class="st4" d="M168.1,443.6c2.9,1.4,4,4.9,2.5,7.7c-1.4,2.9-4.9,4-7.7,2.5c-2.9-1.4-4-4.9-2.5-7.7S165.3,442.2,168.1,443.6z
			 M163.5,452.9c2.3,1.1,5.1,0.2,6.2-2c1.1-2.3,0.2-5.1-2-6.2c-2.3-1.1-5.1-0.2-6.2,2.1C160.3,449,161.2,451.8,163.5,452.9z"/>
	</g>
	<g>
		<path class="st4" d="M175.3,447.4c0.1-0.1,0.2-0.2,0.4-0.1l0.2,0.1c0.1,0,0.2,0.1,0.2,0.2l3.1,10.9c0,0,0,0,0,0l3.3-7.8
			c0.1-0.1,0.2-0.2,0.4-0.2l0.5,0.2c0.1,0.1,0.2,0.3,0.2,0.4l-4.2,9.9c-0.1,0.1-0.2,0.2-0.4,0.1l-0.1-0.1c-0.1,0-0.2-0.1-0.2-0.2
			l-3.1-11.2l0,0l-3.4,8c-0.1,0.1-0.2,0.2-0.4,0.2l-0.5-0.2c-0.1-0.1-0.2-0.3-0.2-0.4L175.3,447.4z"/>
	</g>
	<g>
		<path class="st4" d="M297.3,470.7l0.2-0.3c0.1-0.2,0.2-0.3,0.5-0.2c0.1,0.1,1.5,0.9,2.9,0.7c1.3-0.2,2-1.2,1.8-2.2
			c-0.2-1.1-1.3-1.5-3.2-2c-1.9-0.4-3-0.9-3.3-2.7c-0.2-1.1,0.3-3,2.9-3.4c1.5-0.3,2.8,0.3,2.8,0.3c0.1,0,0.3,0.2,0.2,0.5l-0.1,0.3
			c-0.1,0.2-0.3,0.3-0.5,0.2c-0.7-0.3-1.3-0.4-2.2-0.3c-1.7,0.3-2,1.5-1.9,2.1c0.2,1.1,1.1,1.5,2.5,1.8c2.3,0.5,3.8,1,4.1,2.9
			c0.3,1.6-1,3.2-2.9,3.5c-1.9,0.3-3.3-0.5-3.6-0.7C297.4,471.1,297.1,471,297.3,470.7z"/>
	</g>
	<g>
		<path class="st4" d="M304.7,459.9c0-0.2,0.1-0.3,0.2-0.4l6.1-1.4c0.2,0,0.3,0.1,0.4,0.2l0.1,0.5c0,0.2-0.1,0.3-0.2,0.4l-5.2,1.2
			l0.9,3.8l4.5-1c0.2,0,0.3,0.1,0.4,0.2l0.1,0.5c0,0.2-0.1,0.3-0.2,0.4l-4.5,1l0.9,4l5.2-1.2c0.2,0,0.3,0.1,0.4,0.2l0.1,0.5
			c0,0.2-0.1,0.3-0.2,0.4l-6.1,1.4c-0.2,0-0.3-0.1-0.4-0.2L304.7,459.9z"/>
	</g>
	<g>
		<path class="st4" d="M317.3,462.2l-4.3-4c-0.2-0.2-0.1-0.4,0.1-0.5l0.8-0.2c0.1,0,0.2,0,0.3,0.1l3.5,3.4l0,0l1.3-4.8
			c0-0.1,0.1-0.2,0.2-0.2l0.8-0.2c0.3-0.1,0.4,0.1,0.4,0.4l-1.7,5.7l4.5,4.2c0.2,0.2,0.1,0.4-0.1,0.5l-0.7,0.2c-0.1,0-0.3,0-0.3-0.1
			l-3.8-3.6l0,0l-1.4,5.1c0,0.1-0.1,0.2-0.2,0.2l-0.7,0.2c-0.3,0.1-0.5-0.1-0.4-0.4L317.3,462.2z"/>
	</g>
	<g>
		<path class="st4" d="M322.5,455.3c-0.1-0.2,0-0.3,0.2-0.4l0.6-0.2c0.2-0.1,0.3,0,0.4,0.2l2.1,6.4c0.6,1.7,2.1,2.7,3.9,2.1
			c1.8-0.6,2.5-2.2,1.9-4l-2.1-6.4c-0.1-0.2,0-0.3,0.2-0.4l0.6-0.2c0.2-0.1,0.3,0,0.4,0.2l2.2,6.5c0.8,2.3-0.3,4.6-2.7,5.4
			c-2.4,0.8-4.6-0.4-5.3-2.7L322.5,455.3z"/>
	</g>
	<g>
		<path class="st4" d="M335.7,462l0.6-11.8c0-0.1,0.1-0.2,0.2-0.3l0.1-0.1c0.1-0.1,0.2,0,0.3,0.1l8.4,8.2c0.2,0.2,0.1,0.4-0.1,0.5
			l-0.6,0.2c-0.1,0.1-0.3,0-0.3-0.1l-2.1-2l-5.3,2.1l-0.1,2.9c0,0.1-0.1,0.2-0.2,0.3l-0.6,0.2C335.8,462.3,335.6,462.2,335.7,462z
			 M341.5,456c-1.4-1.3-2.7-2.7-4.1-4l-0.1,0l-0.2,5.7L341.5,456z"/>
	</g>
	<g>
		<path class="st4" d="M343.1,447.7c-0.1-0.1,0-0.3,0.2-0.4l0.6-0.3c0.1-0.1,0.3,0,0.4,0.2l4,9l4.2-1.9c0.2-0.1,0.3,0,0.4,0.2
			l0.2,0.4c0.1,0.1,0,0.3-0.2,0.4l-5,2.3c-0.2,0.1-0.3,0-0.4-0.2L343.1,447.7z"/>
	</g>
	<g>
		<path class="st4" d="M357.6,452.5l-0.8-11.8c0-0.1,0-0.2,0.2-0.3l0.1-0.1c0.1-0.1,0.2,0,0.3,0l9.3,7.2c0.2,0.1,0.2,0.4,0,0.5
			l-0.6,0.3c-0.1,0.1-0.3,0-0.3,0l-2.3-1.8l-5,2.7l0.2,2.9c0,0.1,0,0.2-0.2,0.3l-0.6,0.3C357.8,452.8,357.6,452.7,357.6,452.5z
			 M362.7,445.9c-1.5-1.2-3-2.4-4.5-3.5l-0.1,0.1l0.4,5.7L362.7,445.9z"/>
	</g>
	<g>
		<path class="st4" d="M363.2,437.3c-0.1-0.1,0-0.3,0.1-0.4l0.2-0.1c0.1-0.1,0.2-0.1,0.3,0l10.7,3.9c0,0,0,0,0,0l-4.4-7.3
			c-0.1-0.1,0-0.3,0.1-0.4l0.5-0.3c0.1-0.1,0.3,0,0.4,0.1l5.6,9.2c0.1,0.1,0,0.3-0.1,0.4l-0.1,0.1c-0.1,0.1-0.2,0.1-0.3,0l-10.9-3.9
			l0,0l4.5,7.4c0.1,0.1,0,0.3-0.1,0.4l-0.5,0.3c-0.1,0.1-0.3,0-0.4-0.1L363.2,437.3z"/>
	</g>
	<g>
		<path class="st4" d="M373.6,431.1c-0.1-0.1-0.1-0.3,0.1-0.4l2.9-2c2.5-1.8,6-1.1,7.8,1.4c1.8,2.5,1.1,6.1-1.4,7.8l-2.9,2
			c-0.1,0.1-0.3,0-0.4-0.1L373.6,431.1z M382.3,437c2.2-1.5,2.6-4.1,1.1-6.3c-1.5-2.2-4.1-2.6-6.2-1.1l-2.1,1.4l5.1,7.4L382.3,437z"
			/>
	</g>
	<g>
		<path class="st4" d="M390.2,418.1c1.2-1,2.5-1.3,3.9-1.3c0.2,0,0.3,0.2,0.3,0.3c0,0.2-0.1,0.4-0.1,0.6c0,0.2-0.1,0.3-0.3,0.3
			c-1.1,0-2.3,0.3-3.1,1c-2,1.6-2.1,4.5-0.5,6.4c1.6,1.9,4.4,2.4,6.4,0.8c1.4-1.1,1.8-2.3,1.8-2.3l-1.4-1.7l-1.4,1.2
			c-0.1,0.1-0.3,0.1-0.4,0l-0.4-0.5c-0.1-0.1-0.1-0.3,0-0.4l2.1-1.8c0.1-0.1,0.3-0.1,0.4,0.1l2.3,2.8c0.1,0.1,0.1,0.2,0.1,0.3
			c0,0-0.6,1.9-2.4,3.3c-2.5,2-6.1,1.7-8.1-0.8C387.3,423.8,387.7,420.2,390.2,418.1z"/>
	</g>
	<g>
		<path class="st4" d="M395.6,414.2c-0.1-0.1-0.1-0.3,0-0.4l4.7-4.3c0.1-0.1,0.3-0.1,0.4,0l0.3,0.3c0.1,0.1,0.1,0.3,0,0.4l-4,3.6
			l2.6,2.9l3.4-3.1c0.1-0.1,0.3-0.1,0.4,0l0.3,0.3c0.1,0.1,0.1,0.3,0,0.4l-3.4,3.1l2.7,3l4-3.6c0.1-0.1,0.3-0.1,0.4,0l0.3,0.3
			c0.1,0.1,0.1,0.3,0,0.4l-4.7,4.3c-0.1,0.1-0.3,0.1-0.4,0L395.6,414.2z"/>
	</g>
	<g>
		<path class="st4" d="M402.3,407.8c-0.1-0.1-0.1-0.3,0-0.4l0.2-0.2c0.1-0.1,0.2-0.1,0.3-0.1l11.3,1.1c0,0,0,0,0,0l-6.1-6
			c-0.1-0.1-0.1-0.3,0-0.4l0.4-0.4c0.1-0.1,0.3-0.1,0.4,0l7.7,7.6c0.1,0.1,0.1,0.3,0,0.4l-0.1,0.1c-0.1,0.1-0.2,0.1-0.3,0.1
			l-11.5-1.2l0,0l6.2,6.1c0.1,0.1,0.1,0.3,0,0.4l-0.4,0.4c-0.1,0.1-0.3,0.1-0.4,0L402.3,407.8z"/>
	</g>
	<g>
		<path class="st4" d="M410.8,399.1c-0.1-0.1-0.1-0.3,0-0.4l2.4-2.7c2-2.3,5.6-2.6,7.9-0.6c2.3,2,2.6,5.6,0.5,7.9l-2.4,2.7
			c-0.1,0.1-0.3,0.1-0.4,0L410.8,399.1z M420.7,402.8c1.7-2,1.5-4.6-0.5-6.3c-2-1.7-4.6-1.6-6.3,0.4l-1.7,1.9l6.8,5.9L420.7,402.8z"
			/>
	</g>
	<g>
		<path class="st4" d="M418.6,390.1c-0.1-0.1-0.2-0.3-0.1-0.4l3.9-5c0.1-0.1,0.3-0.2,0.4-0.1l0.4,0.3c0.1,0.1,0.2,0.3,0.1,0.4
			l-3.3,4.2l3.1,2.4l2.8-3.6c0.1-0.1,0.3-0.1,0.4-0.1l0.4,0.3c0.1,0.1,0.1,0.3,0.1,0.4l-2.8,3.6l3.2,2.5l3.3-4.2
			c0.1-0.1,0.3-0.2,0.4-0.1l0.4,0.3c0.1,0.1,0.2,0.3,0.1,0.4l-3.9,5c-0.1,0.1-0.3,0.1-0.4,0.1L418.6,390.1z"/>
	</g>
	<g>
		<path class="st4" d="M424.3,382.7c-0.1-0.1-0.2-0.3-0.1-0.4l2.4-3.4c1.1-1.6,3.2-2,4.8-0.9c1.2,0.8,1.6,2.4,1.3,3.8l4.6,0.6
			c0.2,0,0.4,0.3,0.2,0.5l-0.4,0.6c-0.1,0.2-0.2,0.2-0.4,0.1L432,383l-1.8,2.5l3.3,2.4c0.1,0.1,0.2,0.3,0.1,0.4l-0.4,0.5
			c-0.1,0.1-0.3,0.2-0.4,0.1L424.3,382.7z M431.2,382.3c0.7-1,0.5-2.5-0.6-3.2c-1-0.7-2.5-0.4-3.2,0.6l-1.8,2.5l3.8,2.6L431.2,382.3
			z"/>
	</g>
	<g>
		<path class="st4" d="M432.4,370.8c-0.1-0.1-0.2-0.3-0.1-0.4l1.8-3.1c1.6-2.6,5-3.5,7.7-2c2.7,1.6,3.5,5.1,1.9,7.7l-1.8,3.1
			c-0.1,0.1-0.3,0.2-0.4,0.1L432.4,370.8z M442.7,372.6c1.3-2.3,0.7-4.8-1.6-6.1c-2.3-1.3-4.8-0.7-6.1,1.5l-1.3,2.2l7.7,4.6
			L442.7,372.6z"/>
	</g>
	<g>
		<path class="st4" d="M438.4,360.5c-0.1-0.1-0.2-0.3-0.1-0.4l0.3-0.6c0.1-0.1,0.3-0.2,0.4-0.1l9.3,5.1c0.1,0.1,0.2,0.3,0.1,0.4
			l-0.3,0.6c-0.1,0.1-0.3,0.2-0.4,0.1L438.4,360.5z"/>
	</g>
	<g>
		<path class="st4" d="M440,357.9c-0.2,0-0.4-0.2-0.3-0.4l0.3-0.6c0.1-0.1,0.2-0.2,0.3-0.2l9.8,0.4l0-0.1l-6.3-7.5
			c-0.1-0.1-0.1-0.2,0-0.3l0.3-0.6c0.1-0.2,0.3-0.2,0.5-0.1l7.5,9.1c0.1,0.1,0.1,0.2,0,0.3l-0.1,0.1c0,0.1-0.2,0.2-0.3,0.2
			L440,357.9z"/>
	</g>
	<g>
		<path class="st4" d="M445.2,347c-0.1-0.1-0.2-0.2-0.2-0.4l2.5-5.8c0.1-0.2,0.3-0.2,0.4-0.2l0.4,0.2c0.1,0.1,0.2,0.2,0.2,0.4
			l-2.1,4.9l3.6,1.6l1.8-4.2c0.1-0.1,0.3-0.2,0.4-0.2l0.4,0.2c0.2,0.1,0.2,0.3,0.2,0.4l-1.8,4.2l3.7,1.6l2.1-4.9
			c0.1-0.2,0.3-0.2,0.4-0.2l0.4,0.2c0.1,0.1,0.2,0.2,0.2,0.4l-2.5,5.8c-0.1,0.2-0.3,0.2-0.4,0.2L445.2,347z"/>
	</g>
	<g>
		<path class="st4" d="M448.8,338.4c-0.1-0.1-0.2-0.2-0.2-0.4l1.5-3.9c0.7-1.8,2.6-2.7,4.4-2.1c1.4,0.5,2.2,1.9,2.2,3.4l4.6-0.6
			c0.2,0,0.4,0.2,0.3,0.4l-0.3,0.7c-0.1,0.2-0.2,0.2-0.3,0.2l-4.6,0.5l-1.1,2.9l3.8,1.4c0.1,0.1,0.2,0.2,0.2,0.4l-0.2,0.6
			c-0.1,0.2-0.2,0.2-0.4,0.2L448.8,338.4z M455.4,336.3c0.4-1.2-0.1-2.5-1.4-3c-1.1-0.4-2.5,0.2-2.9,1.4l-1.1,2.9l4.3,1.6
			L455.4,336.3z"/>
	</g>
	<g>
		<path class="st4" d="M461,332l-0.2-0.3c-0.1-0.2-0.2-0.4,0.1-0.5c0.1-0.1,1.5-0.9,2-2.3c0.4-1.2-0.1-2.3-1.1-2.6
			c-1.1-0.3-2,0.4-3.3,1.9c-1.3,1.4-2.2,2.2-4,1.7c-1-0.3-2.4-1.7-1.7-4.1c0.5-1.5,1.6-2.4,1.6-2.4c0.1-0.1,0.3-0.2,0.5,0.1l0.2,0.2
			c0.2,0.2,0.1,0.4-0.1,0.6c-0.6,0.5-1,1-1.3,1.8c-0.5,1.6,0.4,2.4,1,2.6c1.1,0.3,1.8-0.3,2.7-1.4c1.5-1.8,2.7-2.9,4.5-2.3
			c1.6,0.5,2.3,2.4,1.7,4.2c-0.6,1.8-2,2.7-2.3,2.8C461.4,332.2,461.2,332.3,461,332z"/>
	</g>
	<g>
		<path class="st4" d="M454.9,320.4c-0.2,0-0.3-0.2-0.2-0.4l0.2-0.6c0-0.2,0.2-0.3,0.4-0.2l10.2,2.9c0.2,0,0.3,0.2,0.2,0.4l-0.2,0.6
			c0,0.2-0.2,0.3-0.4,0.2L454.9,320.4z"/>
	</g>
	<g>
		<path class="st4" d="M457.4,314.3l-0.7,2.7c0,0.2-0.2,0.3-0.4,0.2l-0.4-0.1c-0.2,0-0.3-0.2-0.2-0.4l1.6-6.6c0-0.2,0.2-0.3,0.4-0.2
			l0.4,0.1c0.2,0,0.3,0.2,0.2,0.4l-0.7,2.7l9.5,2.4c0.2,0,0.3,0.2,0.2,0.4l-0.1,0.6c0,0.2-0.2,0.3-0.4,0.2L457.4,314.3z"/>
	</g>
	<g>
		<path class="st4" d="M464,306.7l-6,2.7c-0.2,0.1-0.5-0.1-0.4-0.3l0.1-0.7c0-0.1,0.1-0.2,0.2-0.2l5-2.3l-3.7-4.1
			c-0.1-0.1-0.1-0.2-0.1-0.3l0.1-0.7c0.1-0.2,0.3-0.3,0.5-0.2l4.4,4.9l5,1c0.2,0,0.3,0.2,0.2,0.4l-0.1,0.6c0,0.2-0.2,0.3-0.4,0.2
			L464,306.7z"/>
	</g>
	<g>
		<path class="st5" d="M260.2,383.3c68,0,123-55.1,123-123c0-68-55.1-123-123-123c-68,0-123,55.1-123,123
			C137.2,328.2,192.3,383.3,260.2,383.3"/>
	</g>
	<g>
		<line class="st6" x1="201.6" y1="300.5" x2="318.9" y2="300.5"/>
		<g>
			<g>
				<path class="st4" d="M180.4,226.8c3.5,0,6.4,2.9,6.4,6.4c0,3.5-2.8,6.4-6.4,6.4s-6.4-2.8-6.4-6.4
					C174,229.6,176.8,226.8,180.4,226.8z M180.4,237.2c2.2,0,4.1-1.8,4.1-4.1c0-2.2-1.8-4.1-4.1-4.1c-2.2,0-4.1,1.9-4.1,4.1
					C176.3,235.4,178.1,237.2,180.4,237.2z"/>
				<path class="st4" d="M188.6,231.6c0-0.2,0.2-0.4,0.4-0.4h1.4c0.2,0,0.4,0.2,0.4,0.4v4.3c0,1.1,0.4,1.6,1.4,1.6
					c0.9,0,1.3-0.8,1.5-1.5v-4.5c0-0.3,0.1-0.4,0.4-0.4h1.4c0.2,0,0.4,0.2,0.4,0.4v7.5c0,0.2-0.1,0.4-0.4,0.4c-0.7,0-1.2-0.4-1.3-1
					c-0.4,0.4-1.3,1.1-2.5,1.1c-2.5,0-3.1-1.6-3.1-3.7V231.6z"/>
				<path class="st4" d="M198.1,231.5c0-0.2,0.1-0.4,0.4-0.4c0.8,0,1.2,0.5,1.3,1.1c0.3-0.4,1-1.2,2.3-1.2c1,0,1.8,0.3,1.5,0.8
					l-0.5,1.2c-0.1,0.2-0.3,0.3-0.5,0.2c-0.2-0.1-0.4-0.2-0.8-0.2c-0.9,0-1.4,0.6-1.6,0.9v5.1c0,0.3-0.2,0.4-0.5,0.4h-1.4
					c-0.2,0-0.4-0.2-0.4-0.4V231.5z"/>
				<path class="st4" d="M212.8,231c0.8,0,1.6,0.2,2,0.3v-4c0-0.2,0.2-0.4,0.4-0.4h1.4c0.2,0,0.4,0.2,0.4,0.4v11.7
					c0,0.2-0.1,0.4-0.4,0.4c-0.7,0-1.2-0.4-1.3-1c-0.5,0.5-1.3,1.2-2.6,1.2c-2.2,0-3.9-1.8-3.9-4.3C208.7,232.9,210.3,231,212.8,231
					z M214.7,233.5c0,0-0.7-0.5-1.7-0.5c-1.3,0-2,1.1-2,2.3c0,1.2,0.7,2.3,1.9,2.3c1.1,0,1.6-0.7,1.8-1.1V233.5z"/>
				<path class="st4" d="M218.8,228.4c0-0.8,0.6-1.4,1.4-1.4c0.8,0,1.4,0.6,1.4,1.4s-0.6,1.4-1.4,1.4
					C219.4,229.8,218.8,229.1,218.8,228.4z M219.2,231.6c0-0.2,0.2-0.4,0.4-0.4h1.4c0.2,0,0.4,0.2,0.4,0.4v7.4
					c0,0.2-0.2,0.4-0.4,0.4h-1.4c-0.2,0-0.4-0.2-0.4-0.4V231.6z"/>
				<path class="st4" d="M222.7,231.7c-0.1-0.2,0-0.5,0.3-0.5h1.7c0.2,0,0.3,0.1,0.4,0.2l1.7,4c0,0,0,0,0,0l1.8-4
					c0.1-0.2,0.3-0.2,0.5-0.2h1.5c0.3,0,0.4,0.2,0.3,0.5l-3.7,7.7c-0.1,0.1-0.2,0.2-0.4,0.2h-0.1c-0.2,0-0.3-0.1-0.4-0.2
					L222.7,231.7z"/>
				<path class="st4" d="M235.5,231c2.1,0,3.8,1.6,3.8,3.8c0,0.1,0,0.4,0,0.5c0,0.2-0.2,0.4-0.4,0.4h-5.2c0,1,0.9,1.9,2,1.9
					c0.8,0,1.4-0.3,1.8-0.6c0.2-0.2,0.4-0.2,0.5,0l0.7,0.9c0.1,0.2,0.2,0.4,0,0.5c-0.7,0.6-1.7,1.1-3.1,1.1c-2.4,0-4.2-2-4.2-4.3
					C231.4,233,233.1,231,235.5,231z M237,234.2c0-0.8-0.7-1.4-1.6-1.4c-1,0-1.6,0.6-1.7,1.4H237z"/>
				<path class="st4" d="M240.9,231.5c0-0.2,0.1-0.4,0.4-0.4c0.8,0,1.2,0.5,1.3,1.1c0.3-0.4,1-1.2,2.3-1.2c1,0,1.8,0.3,1.5,0.8
					L246,233c-0.1,0.2-0.3,0.3-0.5,0.2c-0.2-0.1-0.4-0.2-0.8-0.2c-0.9,0-1.4,0.6-1.6,0.9v5.1c0,0.3-0.2,0.4-0.5,0.4h-1.4
					c-0.2,0-0.4-0.2-0.4-0.4V231.5z"/>
				<path class="st4" d="M247.6,238.8c-0.1-0.1-0.2-0.3-0.1-0.4l0.5-1.1c0.1-0.2,0.3-0.3,0.5-0.1c0.4,0.2,1,0.5,1.8,0.5
					c0.6,0,0.9-0.2,0.9-0.6c0-0.4-0.5-0.7-1.5-1.1c-1.6-0.6-2.3-1.3-2.3-2.6c0-1.2,0.9-2.4,2.9-2.4c1.2,0,2,0.3,2.4,0.6
					c0.2,0.1,0.3,0.4,0.2,0.6l-0.5,0.9c-0.1,0.2-0.3,0.2-0.5,0.2c-0.4-0.2-1-0.4-1.6-0.4c-0.5,0-0.8,0.3-0.8,0.5
					c0,0.4,0.4,0.6,1.2,0.9c1.6,0.6,2.7,1.2,2.7,2.8c0,1.3-1.1,2.4-3.2,2.4C248.9,239.6,248,239.1,247.6,238.8z"/>
				<path class="st4" d="M254.7,228.4c0-0.8,0.6-1.4,1.4-1.4s1.4,0.6,1.4,1.4s-0.6,1.4-1.4,1.4S254.7,229.1,254.7,228.4z M255,231.6
					c0-0.2,0.2-0.4,0.4-0.4h1.4c0.2,0,0.4,0.2,0.4,0.4v7.4c0,0.2-0.2,0.4-0.4,0.4h-1.4c-0.2,0-0.4-0.2-0.4-0.4V231.6z"/>
				<path class="st4" d="M259,233.2c-0.2,0-0.4-0.2-0.4-0.4v-1.2c0-0.2,0.2-0.4,0.4-0.4h0.8v-2.3c0-0.2,0.2-0.4,0.4-0.4h1.5
					c0.2,0,0.4,0.2,0.4,0.4v2.3h1.9c0.2,0,0.4,0.2,0.4,0.4v1.2c0,0.2-0.2,0.4-0.4,0.4H262v3.3c0,0.8,0.4,1.1,0.9,1.1
					c0.4,0,0.8-0.1,1-0.2c0.2-0.1,0.4,0,0.5,0.2l0.2,1.1c0.1,0.2,0,0.4-0.2,0.5c-0.3,0.2-1,0.4-1.9,0.4c-1.7,0-2.7-1.1-2.7-2.9v-3.5
					H259z"/>
				<path class="st4" d="M266.6,243l1.6-3.9l-2.8-7.4c-0.1-0.3,0-0.5,0.4-0.5h1.7c0.2,0,0.3,0.1,0.3,0.2l1.5,5.1h0l1.9-5.1
					c0.1-0.2,0.3-0.2,0.5-0.2h1.4c0.3,0,0.5,0.3,0.4,0.5l-4.8,11.6c-0.1,0.1-0.2,0.2-0.4,0.2H267C266.6,243.6,266.5,243.3,266.6,243
					z"/>
				<path class="st4" d="M275.3,236.6c0.9,0,1.6,0.7,1.6,2.1c0,1.6-0.7,2.4-1.5,3.2c-0.1,0.1-0.2,0.1-0.4-0.1l-0.4-0.4
					c-0.1-0.1,0-0.3,0.1-0.4c0.5-0.5,1-1.1,1-1.7c0-0.1,0-0.2-0.1-0.3c-0.2,0.1-0.4,0.2-0.6,0.2c-0.7,0-1.1-0.6-1.1-1.3
					C273.9,237.2,274.5,236.6,275.3,236.6z"/>
				<path class="st4" d="M286.8,231c2.1,0,3.8,1.6,3.8,3.8c0,0.1,0,0.4,0,0.5c0,0.2-0.2,0.4-0.4,0.4h-5.2c0,1,0.9,1.9,2,1.9
					c0.8,0,1.4-0.3,1.8-0.6c0.2-0.2,0.4-0.2,0.5,0l0.7,0.9c0.1,0.2,0.2,0.4,0,0.5c-0.7,0.6-1.7,1.1-3.1,1.1c-2.4,0-4.2-2-4.2-4.3
					C282.7,233,284.4,231,286.8,231z M288.4,234.2c0-0.8-0.7-1.4-1.6-1.4c-1,0-1.6,0.6-1.7,1.4H288.4z"/>
				<path class="st4" d="M295.7,231c1.3,0,2.2,0.7,2.6,1.2c0.1-0.6,0.5-1.1,1.3-1.1c0.3,0,0.4,0.2,0.4,0.4v11.7
					c0,0.2-0.2,0.4-0.4,0.4h-1.4c-0.2,0-0.4-0.2-0.4-0.4v-4c-0.4,0.1-1.2,0.3-2,0.3c-2.4,0-4.1-1.9-4.1-4.3
					C291.8,232.8,293.5,231,295.7,231z M297.8,234.2c-0.2-0.5-0.7-1.1-1.8-1.1c-1.3,0-1.9,1.1-1.9,2.3c0,1.2,0.7,2.3,2,2.3
					c1,0,1.7-0.5,1.7-0.5V234.2z"/>
				<path class="st4" d="M302.2,231.6c0-0.2,0.2-0.4,0.4-0.4h1.4c0.2,0,0.4,0.2,0.4,0.4v4.3c0,1.1,0.4,1.6,1.4,1.6
					c0.9,0,1.3-0.8,1.5-1.5v-4.5c0-0.3,0.1-0.4,0.4-0.4h1.4c0.2,0,0.4,0.2,0.4,0.4v7.5c0,0.2-0.1,0.4-0.4,0.4c-0.7,0-1.2-0.4-1.3-1
					c-0.4,0.4-1.3,1.1-2.5,1.1c-2.5,0-3.1-1.6-3.1-3.7V231.6z"/>
				<path class="st4" d="M314.4,234.2c0.8,0,1.6,0.2,1.6,0.2c0-1-0.7-1.5-1.5-1.5c-0.7,0-1.4,0.2-1.9,0.3c-0.3,0.1-0.4-0.1-0.5-0.4
					l-0.2-0.9c-0.1-0.3,0.1-0.4,0.3-0.5c0.2-0.1,1.3-0.4,2.4-0.4c2.4,0,3.5,1.3,3.5,3.6v4.5c0,0.2-0.1,0.4-0.4,0.4
					c-0.7,0-1.1-0.4-1.2-0.8c-0.5,0.4-1.3,1-2.5,1c-1.6,0-2.8-1-2.8-2.8C311.1,235.3,312.3,234.2,314.4,234.2z M314.4,237.9
					c0.7,0,1.4-0.6,1.5-0.9v-1.2c0,0-0.5-0.2-1.2-0.2c-0.9,0-1.5,0.4-1.5,1.2C313.2,237.5,313.7,237.9,314.4,237.9z"/>
				<path class="st4" d="M320.2,227.3c0-0.2,0.2-0.4,0.4-0.4h1.4c0.2,0,0.4,0.2,0.4,0.4V239c0,0.2-0.2,0.4-0.4,0.4h-1.4
					c-0.2,0-0.4-0.2-0.4-0.4V227.3z"/>
				<path class="st4" d="M324.3,228.4c0-0.8,0.6-1.4,1.4-1.4s1.4,0.6,1.4,1.4s-0.6,1.4-1.4,1.4S324.3,229.1,324.3,228.4z
					 M324.6,231.6c0-0.2,0.2-0.4,0.4-0.4h1.4c0.2,0,0.4,0.2,0.4,0.4v7.4c0,0.2-0.2,0.4-0.4,0.4H325c-0.2,0-0.4-0.2-0.4-0.4V231.6z"
					/>
				<path class="st4" d="M328.6,233.2c-0.2,0-0.4-0.2-0.4-0.4v-1.2c0-0.2,0.2-0.4,0.4-0.4h0.8v-2.3c0-0.2,0.2-0.4,0.4-0.4h1.5
					c0.2,0,0.4,0.2,0.4,0.4v2.3h1.9c0.2,0,0.4,0.2,0.4,0.4v1.2c0,0.2-0.2,0.4-0.4,0.4h-1.9v3.3c0,0.8,0.4,1.1,0.9,1.1
					c0.4,0,0.8-0.1,1-0.2c0.2-0.1,0.4,0,0.5,0.2l0.2,1.1c0.1,0.2,0,0.4-0.2,0.5c-0.3,0.2-1,0.4-1.9,0.4c-1.7,0-2.7-1.1-2.7-2.9v-3.5
					H328.6z"/>
				<path class="st4" d="M336.2,243l1.6-3.9l-2.8-7.4c-0.1-0.3,0-0.5,0.4-0.5h1.7c0.2,0,0.3,0.1,0.3,0.2l1.5,5.1h0l1.9-5.1
					c0.1-0.2,0.3-0.2,0.5-0.2h1.4c0.3,0,0.5,0.3,0.4,0.5l-4.8,11.6c-0.1,0.1-0.2,0.2-0.4,0.2h-1.5
					C336.2,243.6,336.1,243.3,336.2,243z"/>
				<path class="st4" d="M344.9,236.6c0.9,0,1.6,0.7,1.6,2.1c0,1.6-0.7,2.4-1.5,3.2c-0.1,0.1-0.2,0.1-0.4-0.1l-0.4-0.4
					c-0.1-0.1,0-0.3,0.1-0.4c0.5-0.5,1-1.1,1-1.7c0-0.1,0-0.2-0.1-0.3c-0.2,0.1-0.4,0.2-0.6,0.2c-0.7,0-1.1-0.6-1.1-1.3
					C343.5,237.2,344.1,236.6,344.9,236.6z"/>
			</g>
			<g>
				<path class="st4" d="M180.2,262.2c0.8,0,1.6,0.2,1.6,0.2c0-1-0.7-1.5-1.5-1.5c-0.7,0-1.4,0.2-1.9,0.3c-0.3,0.1-0.4-0.1-0.5-0.4
					l-0.2-0.9c-0.1-0.3,0.1-0.4,0.3-0.5c0.2-0.1,1.3-0.4,2.4-0.4c2.4,0,3.5,1.3,3.5,3.6v4.5c0,0.2-0.1,0.4-0.4,0.4
					c-0.7,0-1.1-0.4-1.2-0.8c-0.5,0.4-1.3,1-2.5,1c-1.6,0-2.8-1-2.8-2.8C176.9,263.3,178.1,262.2,180.2,262.2z M180.2,265.9
					c0.7,0,1.4-0.6,1.5-0.9v-1.2c0,0-0.5-0.2-1.2-0.2c-0.9,0-1.5,0.4-1.5,1.2C179.1,265.5,179.5,265.9,180.2,265.9z"/>
				<path class="st4" d="M186,259.5c0-0.2,0.1-0.4,0.4-0.4c0.7,0,1.2,0.5,1.3,1.1c0.5-0.5,1.2-1.2,2.6-1.2c2.6,0,3.3,1.8,3.3,3.7
					v4.2c0,0.2-0.2,0.4-0.4,0.4h-1.4c-0.2,0-0.4-0.2-0.4-0.4v-4.2c0-1.1-0.4-1.7-1.4-1.7c-1.1,0-1.6,0.7-1.8,1.3v4.7
					c0,0.3-0.1,0.4-0.5,0.4h-1.3c-0.2,0-0.4-0.2-0.4-0.4V259.5z"/>
				<path class="st4" d="M199.3,259c0.8,0,1.6,0.2,2,0.3v-4c0-0.2,0.2-0.4,0.4-0.4h1.4c0.2,0,0.4,0.2,0.4,0.4v11.7
					c0,0.2-0.1,0.4-0.4,0.4c-0.7,0-1.2-0.4-1.3-1c-0.5,0.5-1.3,1.2-2.6,1.2c-2.2,0-3.9-1.8-3.9-4.3C195.3,260.9,196.9,259,199.3,259
					z M201.3,261.5c0,0-0.7-0.5-1.7-0.5c-1.3,0-2,1.1-2,2.3c0,1.2,0.7,2.3,1.9,2.3c1.1,0,1.6-0.7,1.8-1.1V261.5z"/>
				<path class="st4" d="M209.7,256.4c0-0.8,0.6-1.4,1.4-1.4s1.4,0.6,1.4,1.4c0,0.8-0.6,1.4-1.4,1.4S209.7,257.2,209.7,256.4z
					 M210,259.6c0-0.2,0.2-0.4,0.4-0.4h1.4c0.2,0,0.4,0.2,0.4,0.4v7.4c0,0.2-0.2,0.4-0.4,0.4h-1.4c-0.2,0-0.4-0.2-0.4-0.4V259.6z"/>
				<path class="st4" d="M214.5,259.5c0-0.2,0.1-0.4,0.4-0.4c0.7,0,1.2,0.5,1.3,1.1c0.5-0.5,1.2-1.2,2.6-1.2c2.6,0,3.3,1.8,3.3,3.7
					v4.2c0,0.2-0.2,0.4-0.4,0.4h-1.4c-0.2,0-0.4-0.2-0.4-0.4v-4.2c0-1.1-0.4-1.7-1.4-1.7c-1.1,0-1.6,0.7-1.8,1.3v4.7
					c0,0.3-0.1,0.4-0.5,0.4h-1.3c-0.2,0-0.4-0.2-0.4-0.4V259.5z"/>
				<path class="st4" d="M228.1,259c1.3,0,2.3,0.5,3.1,1.4c0.2,0.2,0.1,0.4-0.1,0.6l-0.7,0.8c-0.2,0.2-0.4,0.1-0.5-0.1
					c-0.4-0.4-0.9-0.7-1.6-0.7c-1.3,0-2.2,1-2.2,2.3c0,1.3,0.9,2.3,2.1,2.3c0.9,0,1.4-0.5,1.7-0.9c0.1-0.1,0.4-0.2,0.5-0.1l0.8,0.7
					c0.2,0.2,0.3,0.4,0.1,0.6c-0.7,1.1-1.8,1.7-3.2,1.7c-2.4,0-4.3-1.8-4.3-4.3C223.7,260.9,225.6,259,228.1,259z"/>
				<path class="st4" d="M232.9,255.4c0-0.2,0.2-0.4,0.4-0.4h1.4c0.2,0,0.4,0.2,0.4,0.4V267c0,0.2-0.2,0.4-0.4,0.4h-1.4
					c-0.2,0-0.4-0.2-0.4-0.4V255.4z"/>
				<path class="st4" d="M237.2,259.6c0-0.2,0.2-0.4,0.4-0.4h1.4c0.2,0,0.4,0.2,0.4,0.4v4.3c0,1.1,0.4,1.6,1.4,1.6
					c0.9,0,1.3-0.8,1.5-1.5v-4.5c0-0.3,0.1-0.4,0.4-0.4h1.4c0.2,0,0.4,0.2,0.4,0.4v7.5c0,0.2-0.1,0.4-0.4,0.4c-0.7,0-1.2-0.4-1.3-1
					c-0.4,0.4-1.3,1.1-2.5,1.1c-2.5,0-3.1-1.6-3.1-3.7V259.6z"/>
				<path class="st4" d="M246.5,266.8c-0.1-0.1-0.2-0.3-0.1-0.4l0.5-1.1c0.1-0.2,0.3-0.3,0.5-0.1c0.4,0.2,1,0.5,1.8,0.5
					c0.6,0,0.9-0.2,0.9-0.6c0-0.4-0.5-0.7-1.5-1.1c-1.6-0.6-2.3-1.3-2.3-2.6c0-1.2,0.9-2.4,2.9-2.4c1.2,0,2,0.3,2.4,0.6
					c0.2,0.1,0.3,0.4,0.2,0.6l-0.5,0.9c-0.1,0.2-0.3,0.2-0.5,0.2c-0.4-0.2-1-0.4-1.6-0.4c-0.5,0-0.8,0.3-0.8,0.5
					c0,0.4,0.4,0.6,1.2,0.9c1.6,0.6,2.7,1.2,2.7,2.8c0,1.3-1.1,2.4-3.2,2.4C247.8,267.6,247,267.2,246.5,266.8z"/>
				<path class="st4" d="M253.6,256.4c0-0.8,0.6-1.4,1.4-1.4c0.8,0,1.4,0.6,1.4,1.4c0,0.8-0.6,1.4-1.4,1.4
					C254.2,257.8,253.6,257.2,253.6,256.4z M254,259.6c0-0.2,0.2-0.4,0.4-0.4h1.4c0.2,0,0.4,0.2,0.4,0.4v7.4c0,0.2-0.2,0.4-0.4,0.4
					h-1.4c-0.2,0-0.4-0.2-0.4-0.4V259.6z"/>
				<path class="st4" d="M262,259c2.3,0,4.2,2,4.2,4.3c0,2.3-1.9,4.3-4.2,4.3c-2.3,0-4.2-2-4.2-4.3C257.8,261,259.7,259,262,259z
					 M262,265.6c1.2,0,2.1-1,2.1-2.3c0-1.2-1-2.2-2.1-2.2c-1.2,0-2.1,1-2.1,2.2C259.9,264.5,260.8,265.6,262,265.6z"/>
				<path class="st4" d="M267.9,259.5c0-0.2,0.1-0.4,0.4-0.4c0.7,0,1.2,0.5,1.3,1.1c0.5-0.5,1.2-1.2,2.6-1.2c2.6,0,3.3,1.8,3.3,3.7
					v4.2c0,0.2-0.2,0.4-0.4,0.4h-1.4c-0.2,0-0.4-0.2-0.4-0.4v-4.2c0-1.1-0.4-1.7-1.4-1.7c-1.1,0-1.6,0.7-1.8,1.3v4.7
					c0,0.3-0.1,0.4-0.5,0.4h-1.3c-0.2,0-0.4-0.2-0.4-0.4V259.5z"/>
				<path class="st4" d="M281.8,266.8c-0.1-0.1-0.2-0.3-0.1-0.4l0.5-1.1c0.1-0.2,0.3-0.3,0.5-0.1c0.4,0.2,1,0.5,1.8,0.5
					c0.6,0,0.9-0.2,0.9-0.6c0-0.4-0.5-0.7-1.5-1.1c-1.6-0.6-2.3-1.3-2.3-2.6c0-1.2,0.9-2.4,2.9-2.4c1.2,0,2,0.3,2.4,0.6
					c0.2,0.1,0.3,0.4,0.2,0.6l-0.5,0.9c-0.1,0.2-0.3,0.2-0.5,0.2c-0.4-0.2-1-0.4-1.6-0.4c-0.5,0-0.8,0.3-0.8,0.5
					c0,0.4,0.4,0.6,1.2,0.9c1.6,0.6,2.7,1.2,2.7,2.8c0,1.3-1.1,2.4-3.2,2.4C283.1,267.6,282.2,267.2,281.8,266.8z"/>
				<path class="st4" d="M288.9,261.2c-0.2,0-0.4-0.2-0.4-0.4v-1.2c0-0.2,0.2-0.4,0.4-0.4h0.8v-2.3c0-0.2,0.2-0.4,0.4-0.4h1.5
					c0.2,0,0.4,0.2,0.4,0.4v2.3h1.9c0.2,0,0.4,0.2,0.4,0.4v1.2c0,0.2-0.2,0.4-0.4,0.4h-1.9v3.3c0,0.8,0.4,1.1,0.9,1.1
					c0.4,0,0.8-0.1,1-0.2c0.2-0.1,0.4,0,0.5,0.2l0.2,1.1c0.1,0.2,0,0.4-0.2,0.5c-0.3,0.2-1,0.4-1.9,0.4c-1.7,0-2.7-1.1-2.7-2.9v-3.5
					H288.9z"/>
				<path class="st4" d="M296,259.5c0-0.2,0.1-0.4,0.4-0.4c0.8,0,1.2,0.5,1.3,1.1c0.3-0.4,1-1.2,2.3-1.2c1,0,1.8,0.3,1.5,0.8
					L301,261c-0.1,0.2-0.3,0.3-0.5,0.2c-0.2-0.1-0.4-0.2-0.8-0.2c-0.9,0-1.4,0.6-1.6,0.9v5.1c0,0.3-0.2,0.4-0.5,0.4h-1.4
					c-0.2,0-0.4-0.2-0.4-0.4V259.5z"/>
				<path class="st4" d="M305.4,262.2c0.8,0,1.6,0.2,1.6,0.2c0-1-0.7-1.5-1.5-1.5c-0.7,0-1.4,0.2-1.9,0.3c-0.3,0.1-0.4-0.1-0.5-0.4
					l-0.2-0.9c-0.1-0.3,0.1-0.4,0.3-0.5c0.2-0.1,1.3-0.4,2.4-0.4c2.4,0,3.5,1.3,3.5,3.6v4.5c0,0.2-0.1,0.4-0.4,0.4
					c-0.7,0-1.1-0.4-1.2-0.8c-0.5,0.4-1.3,1-2.5,1c-1.6,0-2.8-1-2.8-2.8C302.1,263.3,303.3,262.2,305.4,262.2z M305.5,265.9
					c0.7,0,1.4-0.6,1.5-0.9v-1.2c0,0-0.5-0.2-1.2-0.2c-0.9,0-1.5,0.4-1.5,1.2C304.3,265.5,304.7,265.9,305.5,265.9z"/>
				<path class="st4" d="M310.7,261.2c-0.2,0-0.4-0.2-0.4-0.4v-1.2c0-0.2,0.2-0.4,0.4-0.4h0.8v-2.3c0-0.2,0.2-0.4,0.4-0.4h1.5
					c0.2,0,0.4,0.2,0.4,0.4v2.3h1.9c0.2,0,0.4,0.2,0.4,0.4v1.2c0,0.2-0.2,0.4-0.4,0.4h-1.9v3.3c0,0.8,0.4,1.1,0.9,1.1
					c0.4,0,0.8-0.1,1-0.2c0.2-0.1,0.4,0,0.5,0.2l0.2,1.1c0.1,0.2,0,0.4-0.2,0.5c-0.3,0.2-1,0.4-1.9,0.4c-1.7,0-2.7-1.1-2.7-2.9v-3.5
					H310.7z"/>
				<path class="st4" d="M321.3,259c2.1,0,3.8,1.6,3.8,3.8c0,0.1,0,0.4,0,0.5c0,0.2-0.2,0.4-0.4,0.4h-5.2c0,1,0.9,1.9,2,1.9
					c0.8,0,1.4-0.3,1.8-0.6c0.2-0.2,0.4-0.2,0.5,0l0.7,0.9c0.1,0.2,0.2,0.4,0,0.5c-0.7,0.6-1.7,1.1-3.1,1.1c-2.4,0-4.2-2-4.2-4.3
					C317.2,261,318.9,259,321.3,259z M322.8,262.3c0-0.8-0.7-1.4-1.6-1.4c-1,0-1.6,0.6-1.7,1.4H322.8z"/>
				<path class="st4" d="M330.4,271.4c-1.3,0-2.6-0.6-2.9-0.9c-0.1-0.1-0.2-0.3-0.1-0.5l0.5-1.2c0.1-0.2,0.3-0.2,0.5-0.1
					c0.3,0.2,1.1,0.6,2,0.6c1.3,0,1.9-0.4,1.9-2v-0.2c-0.4,0.1-1.2,0.3-2,0.3c-2.4,0-4.1-1.9-4.1-4.3c0-2.5,1.7-4.3,3.9-4.3
					c1.3,0,2.1,0.7,2.6,1.2c0.1-0.6,0.5-1,1.3-1c0.3,0,0.4,0.2,0.4,0.4v8C334.5,270.1,332.6,271.4,330.4,271.4z M332.3,262.2
					c-0.2-0.5-0.7-1.1-1.8-1.1c-1.3,0-1.9,1.1-1.9,2.3c0,1.2,0.7,2.3,2,2.3c1,0,1.7-0.5,1.7-0.5V262.2z"/>
				<path class="st4" d="M337,271.1l1.6-3.9l-2.8-7.4c-0.1-0.3,0-0.5,0.4-0.5h1.7c0.2,0,0.3,0.1,0.3,0.2l1.5,5.1h0l1.9-5.1
					c0.1-0.2,0.3-0.2,0.5-0.2h1.4c0.3,0,0.5,0.3,0.4,0.5l-4.8,11.6c-0.1,0.1-0.2,0.2-0.4,0.2h-1.5C337,271.6,336.9,271.3,337,271.1z
					"/>
			</g>
			<g>
				<path class="st4" d="M202.7,283.4c0-0.2,0.2-0.4,0.4-0.4h1.4c0.2,0,0.4,0.2,0.4,0.4v4.3c0.4-0.4,1.1-0.7,2.1-0.7
					c2.6,0,3.3,1.8,3.3,3.9v4.1c0,0.2-0.2,0.4-0.4,0.4h-1.4c-0.2,0-0.4-0.2-0.4-0.4v-4.1c0-1.1-0.5-1.8-1.5-1.8
					c-1,0-1.5,0.6-1.7,1.4v4.5c0,0.2-0.1,0.4-0.4,0.4h-1.4c-0.2,0-0.4-0.2-0.4-0.4V283.4z"/>
				<path class="st4" d="M215.2,290.2c0.8,0,1.6,0.2,1.6,0.2c0-1-0.7-1.5-1.5-1.5c-0.7,0-1.4,0.2-1.9,0.3c-0.3,0.1-0.4-0.1-0.5-0.4
					l-0.2-0.9c-0.1-0.3,0.1-0.4,0.3-0.5c0.2-0.1,1.3-0.4,2.4-0.4c2.4,0,3.5,1.3,3.5,3.6v4.5c0,0.2-0.1,0.4-0.4,0.4
					c-0.7,0-1.1-0.4-1.2-0.8c-0.5,0.4-1.3,1-2.5,1c-1.6,0-2.8-1-2.8-2.8C211.9,291.3,213.1,290.2,215.2,290.2z M215.2,293.9
					c0.7,0,1.4-0.6,1.5-0.9v-1.2c0,0-0.5-0.2-1.2-0.2c-0.9,0-1.5,0.4-1.5,1.2C214,293.5,214.4,293.9,215.2,293.9z"/>
				<path class="st4" d="M220.7,294.8c-0.1-0.1-0.2-0.3-0.1-0.4l0.5-1.1c0.1-0.2,0.3-0.3,0.5-0.1c0.4,0.2,1,0.5,1.8,0.5
					c0.6,0,0.9-0.2,0.9-0.6c0-0.4-0.5-0.7-1.5-1.1c-1.6-0.6-2.3-1.3-2.3-2.6c0-1.2,0.9-2.4,2.9-2.4c1.2,0,2,0.3,2.4,0.6
					c0.2,0.1,0.3,0.4,0.2,0.6l-0.5,0.9c-0.1,0.2-0.3,0.2-0.5,0.2c-0.4-0.2-1-0.4-1.6-0.4c-0.5,0-0.8,0.3-0.8,0.5
					c0,0.4,0.4,0.6,1.2,0.9c1.6,0.6,2.7,1.2,2.7,2.8c0,1.3-1.1,2.4-3.2,2.4C222,295.6,221.2,295.2,220.7,294.8z"/>
				<path class="st4" d="M233.2,289.2h-0.9c-0.2,0-0.4-0.2-0.4-0.4v-1.2c0-0.2,0.2-0.4,0.4-0.4h0.9v-1c0-2.2,1.2-3.4,3.3-3.4
					c1.1,0,2,0.5,2.4,0.8c0.1,0.1,0.2,0.3,0.1,0.5l-0.6,1.1c-0.1,0.2-0.3,0.2-0.5,0.1c-0.3-0.2-0.8-0.4-1.3-0.4
					c-1,0-1.2,0.5-1.2,1.4v1h2.2c0.2,0,0.4,0.2,0.4,0.4v1.2c0,0.2-0.2,0.4-0.4,0.4h-2.2v5.8c0,0.2-0.2,0.4-0.4,0.4h-1.4
					c-0.2,0-0.4-0.2-0.4-0.4V289.2z"/>
				<path class="st4" d="M243.1,287c2.3,0,4.2,2,4.2,4.3c0,2.3-1.9,4.3-4.2,4.3c-2.3,0-4.2-2-4.2-4.3C238.9,289,240.8,287,243.1,287
					z M243.1,293.6c1.2,0,2.1-1,2.1-2.3c0-1.2-1-2.2-2.1-2.2c-1.2,0-2.1,1-2.1,2.2C240.9,292.5,241.9,293.6,243.1,293.6z"/>
				<path class="st4" d="M248.9,287.6c0-0.2,0.2-0.4,0.4-0.4h1.4c0.2,0,0.4,0.2,0.4,0.4v4.3c0,1.1,0.4,1.6,1.4,1.6
					c0.9,0,1.3-0.8,1.5-1.5v-4.5c0-0.3,0.1-0.4,0.4-0.4h1.4c0.2,0,0.4,0.2,0.4,0.4v7.5c0,0.2-0.1,0.4-0.4,0.4c-0.7,0-1.2-0.4-1.3-1
					c-0.4,0.4-1.3,1.1-2.5,1.1c-2.5,0-3.1-1.6-3.1-3.7V287.6z"/>
				<path class="st4" d="M258.4,287.5c0-0.2,0.1-0.4,0.4-0.4c0.8,0,1.2,0.5,1.3,1.1c0.3-0.4,1-1.2,2.3-1.2c1,0,1.8,0.3,1.5,0.8
					l-0.5,1.2c-0.1,0.2-0.3,0.3-0.5,0.2c-0.2-0.1-0.4-0.2-0.8-0.2c-0.9,0-1.4,0.6-1.6,0.9v5.1c0,0.3-0.2,0.4-0.5,0.4h-1.4
					c-0.2,0-0.4-0.2-0.4-0.4V287.5z"/>
				<path class="st4" d="M273.7,295.6c-0.8,0-1.6-0.2-2-0.3v4c0,0.2-0.2,0.4-0.4,0.4h-1.4c-0.2,0-0.4-0.2-0.4-0.4v-11.7
					c0-0.2,0.1-0.4,0.4-0.4c0.7,0,1.2,0.4,1.3,1c0.5-0.5,1.3-1.2,2.6-1.2c2.2,0,3.9,1.8,3.9,4.3
					C277.7,293.7,276.1,295.6,273.7,295.6z M271.7,293.1c0,0,0.7,0.5,1.7,0.5c1.3,0,2-1.1,2-2.3c0-1.2-0.7-2.3-1.9-2.3
					c-1.1,0-1.6,0.7-1.8,1.1V293.1z"/>
				<path class="st4" d="M279.1,284.4c0-0.8,0.6-1.4,1.4-1.4s1.4,0.6,1.4,1.4c0,0.8-0.6,1.4-1.4,1.4S279.1,285.2,279.1,284.4z
					 M279.5,287.6c0-0.2,0.2-0.4,0.4-0.4h1.4c0.2,0,0.4,0.2,0.4,0.4v7.4c0,0.2-0.2,0.4-0.4,0.4h-1.4c-0.2,0-0.4-0.2-0.4-0.4V287.6z"
					/>
				<path class="st4" d="M283.9,283.4c0-0.2,0.2-0.4,0.4-0.4h1.4c0.2,0,0.4,0.2,0.4,0.4V295c0,0.2-0.2,0.4-0.4,0.4h-1.4
					c-0.2,0-0.4-0.2-0.4-0.4V283.4z"/>
				<path class="st4" d="M288.3,283.4c0-0.2,0.2-0.4,0.4-0.4h1.4c0.2,0,0.4,0.2,0.4,0.4V295c0,0.2-0.2,0.4-0.4,0.4h-1.4
					c-0.2,0-0.4-0.2-0.4-0.4V283.4z"/>
				<path class="st4" d="M295.5,290.2c0.8,0,1.6,0.2,1.6,0.2c0-1-0.7-1.5-1.5-1.5c-0.7,0-1.4,0.2-1.9,0.3c-0.3,0.1-0.4-0.1-0.5-0.4
					l-0.2-0.9c-0.1-0.3,0.1-0.4,0.3-0.5c0.2-0.1,1.3-0.4,2.4-0.4c2.4,0,3.5,1.3,3.5,3.6v4.5c0,0.2-0.1,0.4-0.4,0.4
					c-0.7,0-1.1-0.4-1.2-0.8c-0.5,0.4-1.3,1-2.5,1c-1.6,0-2.8-1-2.8-2.8C292.2,291.3,293.4,290.2,295.5,290.2z M295.5,293.9
					c0.7,0,1.4-0.6,1.5-0.9v-1.2c0,0-0.5-0.2-1.2-0.2c-0.9,0-1.5,0.4-1.5,1.2C294.3,293.5,294.7,293.9,295.5,293.9z"/>
				<path class="st4" d="M301.3,287.5c0-0.2,0.1-0.4,0.4-0.4c0.8,0,1.2,0.5,1.3,1.1c0.3-0.4,1-1.2,2.3-1.2c1,0,1.8,0.3,1.5,0.8
					l-0.5,1.2c-0.1,0.2-0.3,0.3-0.5,0.2c-0.2-0.1-0.4-0.2-0.8-0.2c-0.9,0-1.4,0.6-1.6,0.9v5.1c0,0.3-0.2,0.4-0.5,0.4h-1.4
					c-0.2,0-0.4-0.2-0.4-0.4V287.5z"/>
				<path class="st4" d="M307.9,294.8c-0.1-0.1-0.2-0.3-0.1-0.4l0.5-1.1c0.1-0.2,0.3-0.3,0.5-0.1c0.4,0.2,1,0.5,1.8,0.5
					c0.6,0,0.9-0.2,0.9-0.6c0-0.4-0.5-0.7-1.5-1.1c-1.6-0.6-2.3-1.3-2.3-2.6c0-1.2,0.9-2.4,2.9-2.4c1.2,0,2,0.3,2.4,0.6
					c0.2,0.1,0.3,0.4,0.2,0.6l-0.5,0.9c-0.1,0.2-0.3,0.2-0.5,0.2c-0.4-0.2-1-0.4-1.6-0.4c-0.5,0-0.8,0.3-0.8,0.5
					c0,0.4,0.4,0.6,1.2,0.9c1.6,0.6,2.7,1.2,2.7,2.8c0,1.3-1.1,2.4-3.2,2.4C309.2,295.6,308.3,295.2,307.9,294.8z"/>
				<path class="st4" d="M315.2,288.3c0-0.7,0.6-1.3,1.3-1.3c0.7,0,1.3,0.5,1.3,1.3c0,0.7-0.6,1.3-1.3,1.3
					C315.8,289.6,315.2,289,315.2,288.3z M316.5,293c0.7,0,1.3,0.5,1.3,1.3c0,0.7-0.6,1.3-1.3,1.3c-0.7,0-1.3-0.6-1.3-1.3
					C315.2,293.6,315.8,293,316.5,293z"/>
			</g>
		</g>
	</g>
</g>
</svg>
