<?xml version="1.0" encoding="utf-8"?>
<!-- Generator: Adobe Illustrator 25.4.1, SVG Export Plug-In . SVG Version: 6.00 Build 0)  -->
<svg version="1.1" id="Layer_1" xmlns="http://www.w3.org/2000/svg" xmlns:xlink="http://www.w3.org/1999/xlink" x="0px" y="0px"
	 viewBox="0 0 674.9 325.9" style="enable-background:new 0 0 674.9 325.9;" xml:space="preserve">
<style type="text/css">
	.st0{fill:#007DC3;}
	.st1{fill:#FDB71A;}
	.st2{fill:none;stroke:#FFFFFF;stroke-miterlimit:10;}
	.st3{fill:#FFFFFF;}
</style>
<g>
	<rect x="263.2" y="29.7" class="st0" width="411.7" height="25"/>
	<rect x="0" y="29.7" class="st1" width="263.2" height="25"/>
	<rect x="297" y="67.4" class="st0" width="378" height="25"/>
	<rect x="0" y="67.4" class="st1" width="297" height="25"/>
	<rect x="310.5" y="105.2" class="st0" width="364.5" height="25"/>
	<rect x="0" y="105.2" class="st1" width="310.5" height="25"/>
	<rect x="330.7" y="142.9" class="st0" width="344.2" height="25"/>
	<rect x="0" y="142.9" class="st1" width="330.7" height="25"/>
	<rect x="337.5" y="180.6" class="st0" width="337.5" height="25"/>
	<rect x="0" y="180.6" class="st1" width="337.5" height="25"/>
	<rect x="303.7" y="300.9" class="st0" width="371.2" height="25"/>
	<rect x="0" y="300.9" class="st1" width="303.7" height="25"/>
	<rect x="336.8" y="263.1" class="st0" width="338.1" height="25"/>
	<rect x="0" y="263.1" class="st1" width="336.8" height="25"/>
	<line class="st2" x1="0" y1="248.4" x2="190.3" y2="248.4"/>
	<g>
		<path class="st3" d="M5.6,233c2.8,0,5,2.3,5,5.1s-2.2,5-5,5c-2.8,0-5-2.2-5-5S2.8,233,5.6,233z M5.6,241.3c1.8,0,3.2-1.4,3.2-3.2
			s-1.5-3.2-3.2-3.2s-3.2,1.5-3.2,3.2S3.9,241.3,5.6,241.3z"/>
		<path class="st3" d="M15.6,243.1c-0.6,0-1.3-0.2-1.6-0.3v3.1c0,0.2-0.2,0.3-0.3,0.3h-1.1c-0.2,0-0.3-0.2-0.3-0.3v-9.3
			c0-0.2,0.1-0.3,0.3-0.3c0.6,0,0.9,0.3,1,0.8c0.4-0.4,1.1-0.9,2.1-0.9c1.8,0,3.1,1.4,3.1,3.4C18.8,241.6,17.5,243.1,15.6,243.1z
			 M14,241.1c0,0,0.5,0.4,1.3,0.4c1.1,0,1.6-0.9,1.6-1.8s-0.5-1.8-1.5-1.8c-0.8,0-1.3,0.5-1.4,0.9V241.1z"/>
		<path class="st3" d="M23.1,236.3c1.7,0,3,1.2,3,3c0,0.1,0,0.3,0,0.4c0,0.2-0.2,0.3-0.3,0.3h-4.1c0,0.8,0.7,1.5,1.6,1.5
			c0.6,0,1.1-0.2,1.4-0.5c0.2-0.1,0.3-0.1,0.4,0l0.5,0.7c0.1,0.1,0.1,0.3,0,0.4c-0.6,0.5-1.4,0.9-2.4,0.9c-1.9,0-3.3-1.5-3.3-3.4
			C19.8,237.9,21.1,236.3,23.1,236.3z M24.3,238.9c0-0.6-0.5-1.1-1.2-1.1c-0.8,0-1.3,0.5-1.4,1.1H24.3z"/>
		<path class="st3" d="M27.4,236.7c0-0.2,0.1-0.3,0.3-0.3c0.6,0,0.9,0.4,1,0.9c0.2-0.3,0.8-1,1.8-1c0.8,0,1.4,0.2,1.2,0.6l-0.4,1
			c-0.1,0.2-0.2,0.2-0.4,0.1s-0.3-0.1-0.6-0.1c-0.7,0-1.1,0.4-1.2,0.7v4c0,0.2-0.2,0.3-0.4,0.3h-1.1c-0.2,0-0.3-0.1-0.3-0.3V236.7z"
			/>
		<path class="st3" d="M34.8,238.9c0.7,0,1.2,0.2,1.2,0.2c0-0.8-0.5-1.2-1.2-1.2c-0.6,0-1.1,0.1-1.5,0.2c-0.2,0.1-0.3-0.1-0.4-0.3
			l-0.1-0.7c-0.1-0.2,0.1-0.3,0.2-0.4c0.1-0.1,1-0.3,1.9-0.3c1.9,0,2.8,1.1,2.8,2.8v3.6c0,0.2-0.1,0.3-0.3,0.3c-0.5,0-0.8-0.3-1-0.7
			c-0.4,0.4-1,0.8-2,0.8c-1.3,0-2.2-0.8-2.2-2.2C32.2,239.7,33.2,238.9,34.8,238.9z M34.9,241.8c0.6,0,1.1-0.4,1.2-0.7v-1
			c0,0-0.4-0.2-1-0.2c-0.7,0-1.1,0.3-1.1,0.9C33.9,241.4,34.3,241.8,34.9,241.8z"/>
		<path class="st3" d="M39,238c-0.2,0-0.3-0.2-0.3-0.3v-1c0-0.2,0.1-0.3,0.3-0.3h0.6v-1.8c0-0.2,0.2-0.3,0.3-0.3h1.1
			c0.2,0,0.3,0.1,0.3,0.3v1.8h1.5c0.2,0,0.3,0.1,0.3,0.3v1c0,0.2-0.1,0.3-0.3,0.3h-1.5v2.6c0,0.6,0.3,0.9,0.7,0.9
			c0.3,0,0.7-0.1,0.8-0.2c0.2-0.1,0.3,0,0.4,0.2l0.2,0.8c0,0.2,0,0.3-0.2,0.4c-0.2,0.1-0.8,0.3-1.5,0.3c-1.3,0-2.1-0.9-2.1-2.3V238
			H39z"/>
		<path class="st3" d="M44.4,234.2c0-0.6,0.5-1.1,1.1-1.1s1.1,0.5,1.1,1.1c0,0.6-0.5,1.1-1.1,1.1S44.4,234.9,44.4,234.2z
			 M44.6,236.8c0-0.2,0.2-0.3,0.3-0.3h1.1c0.2,0,0.3,0.1,0.3,0.3v5.9c0,0.2-0.2,0.3-0.3,0.3h-1.1c-0.2,0-0.3-0.1-0.3-0.3V236.8z"/>
		<path class="st3" d="M51,236.3c1.8,0,3.3,1.5,3.3,3.4c0,1.8-1.5,3.4-3.3,3.4c-1.8,0-3.3-1.6-3.3-3.4
			C47.7,237.9,49.2,236.3,51,236.3z M51,241.5c0.9,0,1.7-0.8,1.7-1.8c0-1-0.8-1.8-1.7-1.8s-1.7,0.8-1.7,1.8
			C49.3,240.7,50.1,241.5,51,241.5z"/>
		<path class="st3" d="M55.7,236.7c0-0.2,0.1-0.3,0.3-0.3c0.6,0,0.9,0.4,1,0.8c0.4-0.4,1-0.9,2.1-0.9c2.1,0,2.6,1.4,2.6,3v3.3
			c0,0.2-0.2,0.3-0.3,0.3h-1.1c-0.2,0-0.3-0.1-0.3-0.3v-3.3c0-0.8-0.3-1.4-1.1-1.4c-0.8,0-1.2,0.6-1.4,1v3.7c0,0.2-0.1,0.3-0.4,0.3
			h-1c-0.2,0-0.3-0.1-0.3-0.3V236.7z"/>
		<path class="st3" d="M63.2,242.5c-0.1-0.1-0.2-0.2-0.1-0.3l0.4-0.8c0.1-0.2,0.2-0.2,0.4-0.1c0.3,0.2,0.8,0.4,1.4,0.4
			c0.5,0,0.7-0.2,0.7-0.5c0-0.3-0.4-0.6-1.2-0.9c-1.2-0.5-1.8-1.1-1.8-2s0.7-1.9,2.3-1.9c1,0,1.6,0.3,1.9,0.5
			c0.1,0.1,0.2,0.3,0.1,0.4l-0.4,0.7c-0.1,0.2-0.3,0.2-0.4,0.1c-0.3-0.1-0.8-0.3-1.3-0.3c-0.4,0-0.6,0.2-0.6,0.4
			c0,0.3,0.3,0.4,0.9,0.7c1.2,0.5,2.1,1,2.1,2.2c0,1-0.9,1.9-2.5,1.9C64.3,243.1,63.6,242.8,63.2,242.5z"/>
		<path class="st3" d="M74.7,238.9c0.7,0,1.2,0.2,1.2,0.2c0-0.8-0.5-1.2-1.2-1.2c-0.6,0-1.1,0.1-1.5,0.2c-0.2,0.1-0.3-0.1-0.4-0.3
			l-0.1-0.7c-0.1-0.2,0.1-0.3,0.2-0.4c0.1-0.1,1-0.3,1.9-0.3c1.9,0,2.8,1.1,2.8,2.8v3.6c0,0.2-0.1,0.3-0.3,0.3c-0.5,0-0.8-0.3-1-0.7
			c-0.4,0.4-1,0.8-2,0.8c-1.3,0-2.2-0.8-2.2-2.2C72.1,239.7,73,238.9,74.7,238.9z M74.7,241.8c0.6,0,1.1-0.4,1.2-0.7v-1
			c0,0-0.4-0.2-1-0.2c-0.7,0-1.1,0.3-1.1,0.9C73.8,241.4,74.1,241.8,74.7,241.8z"/>
		<path class="st3" d="M79.3,236.7c0-0.2,0.1-0.3,0.3-0.3c0.6,0,0.9,0.4,1,0.8c0.4-0.4,1-0.9,2.1-0.9c2.1,0,2.6,1.4,2.6,3v3.3
			c0,0.2-0.2,0.3-0.3,0.3h-1.1c-0.2,0-0.3-0.1-0.3-0.3v-3.3c0-0.8-0.3-1.4-1.1-1.4c-0.8,0-1.2,0.6-1.4,1v3.7c0,0.2-0.1,0.3-0.4,0.3
			h-1c-0.2,0-0.3-0.1-0.3-0.3V236.7z"/>
		<path class="st3" d="M89.8,236.3c0.6,0,1.3,0.2,1.6,0.3v-3.2c0-0.2,0.2-0.3,0.3-0.3h1.1c0.2,0,0.3,0.2,0.3,0.3v9.3
			c0,0.2-0.1,0.3-0.3,0.3c-0.6,0-0.9-0.3-1-0.8c-0.4,0.4-1.1,0.9-2.1,0.9c-1.8,0-3.1-1.4-3.1-3.4C86.6,237.8,87.9,236.3,89.8,236.3z
			 M91.4,238.3c0,0-0.5-0.4-1.3-0.4c-1.1,0-1.6,0.9-1.6,1.8c0,0.9,0.5,1.8,1.5,1.8c0.8,0,1.3-0.5,1.4-0.9V238.3z"/>
		<path class="st3" d="M98.1,242.5c-0.1-0.1-0.2-0.2-0.1-0.3l0.4-0.8c0.1-0.2,0.2-0.2,0.4-0.1c0.3,0.2,0.8,0.4,1.4,0.4
			c0.5,0,0.7-0.2,0.7-0.5c0-0.3-0.4-0.6-1.2-0.9c-1.2-0.5-1.8-1.1-1.8-2s0.7-1.9,2.3-1.9c1,0,1.6,0.3,1.9,0.5
			c0.1,0.1,0.2,0.3,0.1,0.4l-0.4,0.7c-0.1,0.2-0.3,0.2-0.4,0.1c-0.3-0.1-0.8-0.3-1.3-0.3c-0.4,0-0.6,0.2-0.6,0.4
			c0,0.3,0.3,0.4,0.9,0.7c1.2,0.5,2.1,1,2.1,2.2c0,1-0.9,1.9-2.5,1.9C99.1,243.1,98.5,242.8,98.1,242.5z"/>
		<path class="st3" d="M103.7,238c-0.2,0-0.3-0.2-0.3-0.3v-1c0-0.2,0.1-0.3,0.3-0.3h0.6v-1.8c0-0.2,0.2-0.3,0.3-0.3h1.1
			c0.2,0,0.3,0.1,0.3,0.3v1.8h1.5c0.2,0,0.3,0.1,0.3,0.3v1c0,0.2-0.1,0.3-0.3,0.3h-1.5v2.6c0,0.6,0.3,0.9,0.7,0.9
			c0.3,0,0.7-0.1,0.8-0.2c0.2-0.1,0.3,0,0.4,0.2l0.2,0.8c0,0.2,0,0.3-0.2,0.4c-0.2,0.1-0.8,0.3-1.5,0.3c-1.3,0-2.1-0.9-2.1-2.3V238
			H103.7z"/>
		<path class="st3" d="M111.5,238.9c0.7,0,1.2,0.2,1.2,0.2c0-0.8-0.5-1.2-1.2-1.2c-0.6,0-1.1,0.1-1.5,0.2c-0.2,0.1-0.3-0.1-0.4-0.3
			l-0.1-0.7c-0.1-0.2,0.1-0.3,0.2-0.4c0.1-0.1,1-0.3,1.9-0.3c1.9,0,2.8,1.1,2.8,2.8v3.6c0,0.2-0.1,0.3-0.3,0.3c-0.5,0-0.8-0.3-1-0.7
			c-0.4,0.4-1,0.8-2,0.8c-1.3,0-2.2-0.8-2.2-2.2C108.9,239.7,109.9,238.9,111.5,238.9z M111.6,241.8c0.6,0,1.1-0.4,1.2-0.7v-1
			c0,0-0.4-0.2-1-0.2c-0.7,0-1.1,0.3-1.1,0.9C110.6,241.4,111,241.8,111.6,241.8z"/>
		<path class="st3" d="M116.5,238h-0.7c-0.2,0-0.3-0.2-0.3-0.3v-1c0-0.2,0.1-0.3,0.3-0.3h0.7v-0.8c0-1.7,0.9-2.7,2.6-2.7
			c0.9,0,1.6,0.4,1.9,0.6c0.1,0.1,0.1,0.3,0.1,0.4l-0.5,0.9c-0.1,0.1-0.3,0.2-0.4,0.1c-0.2-0.1-0.7-0.3-1-0.3c-0.8,0-1,0.4-1,1.1
			v0.8h1.8c0.2,0,0.3,0.1,0.3,0.3v1c0,0.2-0.1,0.3-0.3,0.3h-1.8v4.6c0,0.2-0.1,0.3-0.3,0.3h-1.1c-0.2,0-0.3-0.1-0.3-0.3V238z"/>
		<path class="st3" d="M122.1,238h-0.7c-0.2,0-0.3-0.2-0.3-0.3v-1c0-0.2,0.1-0.3,0.3-0.3h0.7v-0.8c0-1.7,0.9-2.7,2.6-2.7
			c0.9,0,1.6,0.4,1.9,0.6c0.1,0.1,0.1,0.3,0.1,0.4l-0.5,0.9c-0.1,0.1-0.3,0.2-0.4,0.1c-0.2-0.1-0.7-0.3-1-0.3c-0.8,0-1,0.4-1,1.1
			v0.8h1.8c0.2,0,0.3,0.1,0.3,0.3v1c0,0.2-0.1,0.3-0.3,0.3h-1.8v4.6c0,0.2-0.1,0.3-0.3,0.3h-1.1c-0.2,0-0.3-0.1-0.3-0.3V238z"/>
		<path class="st3" d="M132.6,238.9c0.7,0,1.2,0.2,1.2,0.2c0-0.8-0.5-1.2-1.2-1.2c-0.6,0-1.1,0.1-1.5,0.2c-0.2,0.1-0.3-0.1-0.4-0.3
			l-0.1-0.7c-0.1-0.2,0.1-0.3,0.2-0.4c0.1-0.1,1-0.3,1.9-0.3c1.9,0,2.8,1.1,2.8,2.8v3.6c0,0.2-0.1,0.3-0.3,0.3c-0.5,0-0.8-0.3-1-0.7
			c-0.4,0.4-1,0.8-2,0.8c-1.3,0-2.2-0.8-2.2-2.2C130,239.7,130.9,238.9,132.6,238.9z M132.6,241.8c0.6,0,1.1-0.4,1.2-0.7v-1
			c0,0-0.4-0.2-1-0.2c-0.7,0-1.1,0.3-1.1,0.9C131.7,241.4,132,241.8,132.6,241.8z"/>
		<path class="st3" d="M137,242.5c-0.1-0.1-0.2-0.2-0.1-0.3l0.4-0.8c0.1-0.2,0.2-0.2,0.4-0.1c0.3,0.2,0.8,0.4,1.4,0.4
			c0.5,0,0.7-0.2,0.7-0.5c0-0.3-0.4-0.6-1.2-0.9c-1.2-0.5-1.8-1.1-1.8-2s0.7-1.9,2.3-1.9c1,0,1.6,0.3,1.9,0.5
			c0.1,0.1,0.2,0.3,0.1,0.4l-0.4,0.7c-0.1,0.2-0.3,0.2-0.4,0.1c-0.3-0.1-0.8-0.3-1.3-0.3c-0.4,0-0.6,0.2-0.6,0.4
			c0,0.3,0.3,0.4,0.9,0.7c1.2,0.5,2.1,1,2.1,2.2c0,1-0.9,1.9-2.5,1.9C138,243.1,137.3,242.8,137,242.5z"/>
		<path class="st3" d="M142.7,242.5c-0.1-0.1-0.2-0.2-0.1-0.3l0.4-0.8c0.1-0.2,0.2-0.2,0.4-0.1c0.3,0.2,0.8,0.4,1.4,0.4
			c0.5,0,0.7-0.2,0.7-0.5c0-0.3-0.4-0.6-1.2-0.9c-1.2-0.5-1.8-1.1-1.8-2s0.7-1.9,2.3-1.9c1,0,1.6,0.3,1.9,0.5
			c0.1,0.1,0.2,0.3,0.1,0.4l-0.4,0.7c-0.1,0.2-0.3,0.2-0.4,0.1c-0.3-0.1-0.8-0.3-1.3-0.3c-0.4,0-0.6,0.2-0.6,0.4
			c0,0.3,0.3,0.4,0.9,0.7c1.2,0.5,2.1,1,2.1,2.2c0,1-0.9,1.9-2.5,1.9C143.7,243.1,143,242.8,142.7,242.5z"/>
		<path class="st3" d="M151.5,236.3c1.8,0,3.3,1.5,3.3,3.4c0,1.8-1.5,3.4-3.3,3.4c-1.8,0-3.3-1.6-3.3-3.4
			C148.2,237.9,149.7,236.3,151.5,236.3z M151.5,241.5c0.9,0,1.7-0.8,1.7-1.8c0-1-0.8-1.8-1.7-1.8s-1.7,0.8-1.7,1.8
			C149.8,240.7,150.6,241.5,151.5,241.5z"/>
		<path class="st3" d="M159.2,236.3c1,0,1.8,0.4,2.4,1.1c0.1,0.1,0.1,0.3-0.1,0.5l-0.6,0.6c-0.1,0.2-0.3,0.1-0.4,0
			c-0.3-0.3-0.7-0.6-1.3-0.6c-1,0-1.7,0.8-1.7,1.8c0,1,0.7,1.8,1.7,1.8c0.7,0,1.1-0.4,1.4-0.7c0.1-0.1,0.3-0.1,0.4,0l0.6,0.5
			c0.2,0.1,0.2,0.3,0.1,0.5c-0.5,0.9-1.4,1.4-2.6,1.4c-1.9,0-3.4-1.4-3.4-3.4C155.8,237.8,157.3,236.3,159.2,236.3z"/>
		<path class="st3" d="M162.8,234.2c0-0.6,0.5-1.1,1.1-1.1s1.1,0.5,1.1,1.1c0,0.6-0.5,1.1-1.1,1.1S162.8,234.9,162.8,234.2z
			 M163,236.8c0-0.2,0.2-0.3,0.3-0.3h1.1c0.2,0,0.3,0.1,0.3,0.3v5.9c0,0.2-0.2,0.3-0.3,0.3h-1.1c-0.2,0-0.3-0.1-0.3-0.3V236.8z"/>
		<path class="st3" d="M168.7,238.9c0.7,0,1.2,0.2,1.2,0.2c0-0.8-0.5-1.2-1.2-1.2c-0.6,0-1.1,0.1-1.5,0.2c-0.2,0.1-0.3-0.1-0.4-0.3
			l-0.1-0.7c-0.1-0.2,0.1-0.3,0.2-0.4c0.1-0.1,1-0.3,1.9-0.3c1.9,0,2.8,1.1,2.8,2.8v3.6c0,0.2-0.1,0.3-0.3,0.3c-0.5,0-0.8-0.3-1-0.7
			c-0.4,0.4-1,0.8-2,0.8c-1.3,0-2.2-0.8-2.2-2.2C166.1,239.7,167,238.9,168.7,238.9z M168.7,241.8c0.6,0,1.1-0.4,1.2-0.7v-1
			c0,0-0.4-0.2-1-0.2c-0.7,0-1.1,0.3-1.1,0.9C167.8,241.4,168.1,241.8,168.7,241.8z"/>
		<path class="st3" d="M172.9,238c-0.2,0-0.3-0.2-0.3-0.3v-1c0-0.2,0.1-0.3,0.3-0.3h0.6v-1.8c0-0.2,0.2-0.3,0.3-0.3h1.1
			c0.2,0,0.3,0.1,0.3,0.3v1.8h1.5c0.2,0,0.3,0.1,0.3,0.3v1c0,0.2-0.1,0.3-0.3,0.3h-1.5v2.6c0,0.6,0.3,0.9,0.7,0.9
			c0.3,0,0.7-0.1,0.8-0.2c0.2-0.1,0.3,0,0.4,0.2l0.2,0.8c0,0.2,0,0.3-0.2,0.4c-0.2,0.1-0.8,0.3-1.5,0.3c-1.3,0-2.1-0.9-2.1-2.3V238
			H172.9z"/>
		<path class="st3" d="M181.3,236.3c1.7,0,3,1.2,3,3c0,0.1,0,0.3,0,0.4c0,0.2-0.2,0.3-0.3,0.3h-4.1c0,0.8,0.7,1.5,1.6,1.5
			c0.6,0,1.1-0.2,1.4-0.5c0.2-0.1,0.3-0.1,0.4,0l0.5,0.7c0.1,0.1,0.1,0.3,0,0.4c-0.6,0.5-1.4,0.9-2.4,0.9c-1.9,0-3.3-1.5-3.3-3.4
			C178,237.9,179.3,236.3,181.3,236.3z M182.5,238.9c0-0.6-0.5-1.1-1.2-1.1c-0.8,0-1.3,0.5-1.4,1.1H182.5z"/>
		<path class="st3" d="M185.3,242.5c-0.1-0.1-0.2-0.2-0.1-0.3l0.4-0.8c0.1-0.2,0.2-0.2,0.4-0.1c0.3,0.2,0.8,0.4,1.4,0.4
			c0.5,0,0.7-0.2,0.7-0.5c0-0.3-0.4-0.6-1.2-0.9c-1.2-0.5-1.8-1.1-1.8-2s0.7-1.9,2.3-1.9c1,0,1.6,0.3,1.9,0.5
			c0.1,0.1,0.2,0.3,0.1,0.4l-0.4,0.7c-0.1,0.2-0.3,0.2-0.4,0.1c-0.3-0.1-0.8-0.3-1.3-0.3c-0.4,0-0.6,0.2-0.6,0.4
			c0,0.3,0.3,0.4,0.9,0.7c1.2,0.5,2.1,1,2.1,2.2c0,1-0.9,1.9-2.5,1.9C186.4,243.1,185.7,242.8,185.3,242.5z"/>
	</g>
	<g>
		<path class="st3" d="M20.9,280.1l1.1-1.2c0.1-0.1,0.4-0.1,0.5,0c0.7,0.6,1.3,0.9,2.2,0.9c1,0,1.8-0.7,1.8-1.8
			c0-1.1-0.7-1.8-1.9-1.8h-2.8c-0.4,0-0.6-0.4-0.6-0.7v-5.7c0-0.2,0.1-0.3,0.3-0.3h6c0.2,0,0.4,0.2,0.4,0.3v1.6
			c0,0.2-0.2,0.3-0.4,0.3h-3.8v2H25c2.6,0,4.2,1.6,4.2,4.1c0,2.4-2,4.4-4.6,4.4c-1.9,0-3.2-1-3.7-1.5
			C20.7,280.5,20.7,280.4,20.9,280.1z"/>
		<path class="st3" d="M30.6,275.8c0-4.1,1.7-6.5,4.7-6.5s4.8,2.4,4.8,6.5c0,4.1-1.7,6.5-4.8,6.5S30.6,279.9,30.6,275.8z
			 M37.2,275.8c0-2.4-0.8-3.9-1.9-3.9c-1.1,0-1.9,1.4-1.9,3.9c0,2.4,0.8,3.9,1.9,3.9C36.4,279.7,37.2,278.3,37.2,275.8z"/>
		<path class="st3" d="M41.6,271.8c0-1.4,1.1-2.4,2.4-2.4c1.3,0,2.4,1.1,2.4,2.4s-1.1,2.4-2.4,2.4C42.7,274.2,41.6,273.1,41.6,271.8
			z M49.1,269.7c0.1-0.1,0.2-0.2,0.3-0.2h1.4c0.3,0,0.4,0.3,0.3,0.5l-6.2,11.9c-0.1,0.1-0.2,0.2-0.3,0.2h-1.3
			c-0.3,0-0.4-0.3-0.3-0.5L49.1,269.7z M44.7,271.8c0-0.3-0.3-0.6-0.6-0.6c-0.3,0-0.6,0.3-0.6,0.6c0,0.3,0.3,0.6,0.6,0.6
			C44.4,272.4,44.7,272.1,44.7,271.8z M50.1,277.4c1.4,0,2.4,1.1,2.4,2.4c0,1.3-1.1,2.4-2.4,2.4c-1.3,0-2.4-1.1-2.4-2.4
			C47.6,278.5,48.7,277.4,50.1,277.4z M50.1,280.5c0.3,0,0.6-0.3,0.6-0.6c0-0.3-0.3-0.6-0.6-0.6c-0.3,0-0.6,0.3-0.6,0.6
			C49.5,280.2,49.8,280.5,50.1,280.5z"/>
	</g>
	<g>
		<g>
			<path class="st3" d="M21.2,317.3c-0.2,0-0.4-0.2-0.4-0.4v-1.6c0-0.2,0-0.4,0.3-0.7l6.2-7.4c0.1-0.1,0.1-0.1,0.3-0.1h1.3
				c0.2,0,0.4,0.2,0.4,0.4v7.5h1.5c0.2,0,0.4,0.1,0.4,0.3v1.6c0,0.2-0.1,0.4-0.4,0.4h-1.5v2.2c0,0.2-0.2,0.4-0.3,0.4h-2
				c-0.2,0-0.3-0.2-0.3-0.4v-2.2H21.2z M26.6,315.1v-3.5h0l-2.9,3.5v0H26.6z"/>
			<path class="st3" d="M32.6,317.9l1.1-1.2c0.1-0.1,0.4-0.1,0.5,0c0.7,0.6,1.3,0.9,2.2,0.9c1,0,1.8-0.7,1.8-1.8
				c0-1.1-0.7-1.8-1.9-1.8h-2.8c-0.4,0-0.6-0.4-0.6-0.7v-5.7c0-0.2,0.1-0.3,0.3-0.3h6c0.2,0,0.4,0.2,0.4,0.3v1.6
				c0,0.2-0.2,0.3-0.4,0.3h-3.8v2h1.3c2.6,0,4.2,1.6,4.2,4.1c0,2.4-2,4.4-4.6,4.4c-1.9,0-3.2-1-3.7-1.5
				C32.4,318.3,32.4,318.2,32.6,317.9z"/>
			<path class="st3" d="M42.4,309.5c0-1.4,1.1-2.4,2.4-2.4c1.3,0,2.4,1.1,2.4,2.4s-1.1,2.4-2.4,2.4C43.5,312,42.4,310.9,42.4,309.5z
				 M49.9,307.5c0.1-0.1,0.2-0.2,0.3-0.2h1.4c0.3,0,0.4,0.3,0.3,0.5l-6.2,11.9c-0.1,0.1-0.2,0.2-0.3,0.2H44c-0.3,0-0.4-0.3-0.3-0.5
				L49.9,307.5z M45.4,309.5c0-0.3-0.3-0.6-0.6-0.6c-0.3,0-0.6,0.3-0.6,0.6c0,0.3,0.3,0.6,0.6,0.6C45.1,310.2,45.4,309.9,45.4,309.5
				z M50.8,315.2c1.4,0,2.4,1.1,2.4,2.4c0,1.3-1.1,2.4-2.4,2.4c-1.3,0-2.4-1.1-2.4-2.4C48.4,316.3,49.5,315.2,50.8,315.2z
				 M50.8,318.3c0.3,0,0.6-0.3,0.6-0.6c0-0.3-0.3-0.6-0.6-0.6c-0.3,0-0.6,0.3-0.6,0.6C50.2,318,50.5,318.3,50.8,318.3z"/>
		</g>
	</g>
	<line class="st2" x1="0" y1="15.4" x2="106.8" y2="15.4"/>
	<g>
		<path class="st3" d="M0,9.6l4.4-9.4C4.4,0.1,4.5,0,4.6,0h0.1C4.9,0,5,0.1,5,0.2l4.3,9.4c0.1,0.2,0,0.4-0.2,0.4H7.9
			c-0.2,0-0.3-0.1-0.4-0.3L6.8,8.1H2.6L1.9,9.7C1.8,9.8,1.7,9.9,1.5,9.9H0.3C0.1,9.9-0.1,9.8,0,9.6z M6.1,6.6L4.7,3.5h0L3.3,6.6H6.1
			z"/>
		<path class="st3" d="M10.3,9.5c-0.1-0.1-0.2-0.2-0.1-0.4l0.4-0.8c0.1-0.2,0.2-0.2,0.4-0.1c0.3,0.2,0.8,0.4,1.4,0.4
			c0.5,0,0.7-0.2,0.7-0.5c0-0.3-0.4-0.6-1.2-0.9c-1.2-0.5-1.8-1.1-1.8-2s0.7-1.9,2.3-1.9c1,0,1.6,0.3,1.9,0.5
			c0.1,0.1,0.2,0.3,0.1,0.4L14.1,5c-0.1,0.2-0.3,0.2-0.4,0.1C13.4,5,13,4.8,12.4,4.8c-0.4,0-0.6,0.2-0.6,0.4c0,0.3,0.3,0.4,0.9,0.7
			c1.2,0.5,2.1,1,2.1,2.2c0,1-0.9,1.9-2.5,1.9C11.3,10.1,10.7,9.8,10.3,9.5z"/>
		<path class="st3" d="M16,9.5c-0.1-0.1-0.2-0.2-0.1-0.4l0.4-0.8c0.1-0.2,0.2-0.2,0.4-0.1c0.3,0.2,0.8,0.4,1.4,0.4
			c0.5,0,0.7-0.2,0.7-0.5c0-0.3-0.4-0.6-1.2-0.9c-1.2-0.5-1.8-1.1-1.8-2s0.7-1.9,2.3-1.9c1,0,1.6,0.3,1.9,0.5
			c0.1,0.1,0.2,0.3,0.1,0.4L19.8,5c-0.1,0.2-0.3,0.2-0.4,0.1c-0.3-0.1-0.8-0.3-1.3-0.3c-0.4,0-0.6,0.2-0.6,0.4
			c0,0.3,0.3,0.4,0.9,0.7c1.2,0.5,2.1,1,2.1,2.2c0,1-0.9,1.9-2.5,1.9C17,10.1,16.4,9.8,16,9.5z"/>
		<path class="st3" d="M24.8,3.3c1.8,0,3.3,1.5,3.3,3.4c0,1.8-1.5,3.4-3.3,3.4c-1.8,0-3.3-1.6-3.3-3.4C21.5,4.9,23,3.3,24.8,3.3z
			 M24.8,8.5c0.9,0,1.7-0.8,1.7-1.8c0-1-0.8-1.8-1.7-1.8s-1.7,0.8-1.7,1.8C23.1,7.7,23.9,8.5,24.8,8.5z"/>
		<path class="st3" d="M32.5,3.3c1,0,1.8,0.4,2.4,1.1c0.1,0.1,0.1,0.3-0.1,0.5l-0.6,0.6c-0.1,0.2-0.3,0.1-0.4,0
			c-0.3-0.3-0.7-0.6-1.3-0.6c-1,0-1.7,0.8-1.7,1.8c0,1,0.7,1.8,1.7,1.8c0.7,0,1.1-0.4,1.4-0.7c0.1-0.1,0.3-0.1,0.4,0L35,8.3
			c0.2,0.1,0.2,0.3,0.1,0.5c-0.5,0.9-1.4,1.4-2.6,1.4c-1.9,0-3.4-1.4-3.4-3.4C29.1,4.8,30.6,3.3,32.5,3.3z"/>
		<path class="st3" d="M36.1,1.2c0-0.6,0.5-1.1,1.1-1.1s1.1,0.5,1.1,1.1s-0.5,1.1-1.1,1.1S36.1,1.9,36.1,1.2z M36.4,3.8
			c0-0.2,0.2-0.3,0.3-0.3h1.1c0.2,0,0.3,0.1,0.3,0.3v5.9c0,0.2-0.2,0.3-0.3,0.3h-1.1c-0.2,0-0.3-0.1-0.3-0.3V3.8z"/>
		<path class="st3" d="M42,5.9c0.7,0,1.2,0.2,1.2,0.2c0-0.8-0.5-1.2-1.2-1.2c-0.6,0-1.1,0.1-1.5,0.2c-0.2,0.1-0.3-0.1-0.4-0.3L40,4
			c-0.1-0.2,0.1-0.4,0.2-0.4c0.1-0.1,1-0.3,1.9-0.3c1.9,0,2.8,1.1,2.8,2.8v3.6c0,0.2-0.1,0.3-0.3,0.3c-0.5,0-0.8-0.3-1-0.7
			c-0.4,0.4-1,0.8-2,0.8c-1.3,0-2.2-0.8-2.2-2.2C39.4,6.7,40.3,5.9,42,5.9z M42,8.8c0.6,0,1.1-0.4,1.2-0.7v-1c0,0-0.4-0.2-1-0.2
			c-0.7,0-1.1,0.4-1.1,0.9C41.1,8.4,41.4,8.8,42,8.8z"/>
		<path class="st3" d="M46.2,5c-0.2,0-0.3-0.2-0.3-0.3v-1c0-0.2,0.1-0.3,0.3-0.3h0.6V1.7c0-0.2,0.2-0.3,0.3-0.3h1.1
			c0.2,0,0.3,0.1,0.3,0.3v1.8h1.5c0.2,0,0.3,0.1,0.3,0.3v1c0,0.2-0.1,0.3-0.3,0.3h-1.5v2.6c0,0.6,0.3,0.9,0.7,0.9
			c0.3,0,0.7-0.1,0.8-0.2c0.2-0.1,0.3,0,0.4,0.2l0.2,0.8c0,0.2,0,0.3-0.2,0.4c-0.2,0.1-0.8,0.3-1.5,0.3c-1.3,0-2.1-0.9-2.1-2.3V5
			H46.2z"/>
		<path class="st3" d="M54.6,3.3c1.7,0,3,1.2,3,3c0,0.1,0,0.3,0,0.4c0,0.2-0.2,0.3-0.3,0.3h-4.1c0,0.8,0.7,1.5,1.6,1.5
			c0.6,0,1.1-0.2,1.4-0.5c0.2-0.1,0.3-0.1,0.4,0L57,8.8c0.1,0.1,0.1,0.3,0,0.4c-0.6,0.5-1.4,0.9-2.4,0.9c-1.9,0-3.3-1.5-3.3-3.4
			C51.3,4.9,52.7,3.3,54.6,3.3z M55.8,5.9c0-0.6-0.5-1.1-1.2-1.1c-0.8,0-1.3,0.5-1.4,1.1H55.8z"/>
		<path class="st3" d="M58.7,9.5c-0.1-0.1-0.2-0.2-0.1-0.4L59,8.3c0.1-0.2,0.2-0.2,0.4-0.1c0.3,0.2,0.8,0.4,1.4,0.4
			c0.5,0,0.7-0.2,0.7-0.5c0-0.3-0.4-0.6-1.2-0.9c-1.2-0.5-1.8-1.1-1.8-2s0.7-1.9,2.3-1.9c1,0,1.6,0.3,1.9,0.5
			c0.1,0.1,0.2,0.3,0.1,0.4L62.5,5c-0.1,0.2-0.3,0.2-0.4,0.1c-0.3-0.1-0.8-0.3-1.3-0.3c-0.4,0-0.6,0.2-0.6,0.4
			c0,0.3,0.3,0.4,0.9,0.7c1.2,0.5,2.1,1,2.1,2.2c0,1-0.9,1.9-2.5,1.9C59.7,10.1,59,9.8,58.7,9.5z"/>
		<path class="st3" d="M68,0.4c0-0.2,0.2-0.3,0.3-0.3h1.1c0.2,0,0.3,0.2,0.3,0.3v3.2c0.3-0.1,0.9-0.3,1.6-0.3c1.9,0,3.1,1.5,3.1,3.4
			c0,1.8-1.3,3.4-3,3.4c-1.1,0-1.7-0.5-2.1-0.9c-0.1,0.4-0.4,0.8-1,0.8C68.1,10,68,9.9,68,9.7V0.4z M69.7,7.6
			c0.1,0.4,0.6,0.9,1.4,0.9c1,0,1.5-0.9,1.5-1.8c0-0.9-0.5-1.8-1.6-1.8c-0.8,0-1.3,0.4-1.3,0.4V7.6z"/>
		<path class="st3" d="M75.9,12.8l1.3-3.1L75,3.9c-0.1-0.2,0-0.4,0.3-0.4h1.3c0.1,0,0.2,0.1,0.3,0.2l1.2,4h0l1.5-4
			c0.1-0.2,0.2-0.2,0.4-0.2h1.1c0.3,0,0.4,0.2,0.3,0.4l-3.8,9.2c0,0.1-0.2,0.2-0.3,0.2h-1.2C76,13.3,75.8,13.1,75.9,12.8z"/>
		<path class="st3" d="M88.1,5.9c0.7,0,1.2,0.2,1.2,0.2c0-0.8-0.5-1.2-1.2-1.2c-0.6,0-1.1,0.1-1.5,0.2c-0.2,0.1-0.3-0.1-0.4-0.3
			L86.1,4c-0.1-0.2,0.1-0.4,0.2-0.4c0.1-0.1,1-0.3,1.9-0.3c1.9,0,2.8,1.1,2.8,2.8v3.6c0,0.2-0.1,0.3-0.3,0.3c-0.5,0-0.8-0.3-1-0.7
			c-0.4,0.4-1,0.8-2,0.8c-1.3,0-2.2-0.8-2.2-2.2C85.5,6.7,86.4,5.9,88.1,5.9z M88.1,8.8c0.6,0,1.1-0.4,1.2-0.7v-1c0,0-0.4-0.2-1-0.2
			c-0.7,0-1.1,0.4-1.1,0.9C87.2,8.4,87.5,8.8,88.1,8.8z"/>
		<path class="st3" d="M95.6,13.1c-1.1,0-2-0.5-2.3-0.7c-0.1-0.1-0.1-0.3-0.1-0.4l0.4-0.9c0.1-0.1,0.2-0.2,0.4-0.1
			c0.2,0.1,0.9,0.5,1.5,0.5c1,0,1.5-0.3,1.5-1.5V9.8c-0.3,0.1-0.9,0.3-1.6,0.3c-1.9,0-3.2-1.5-3.2-3.4c0-2,1.3-3.4,3.1-3.4
			c1,0,1.7,0.5,2.1,0.9c0.1-0.5,0.4-0.8,1-0.8c0.2,0,0.3,0.1,0.3,0.3V10C98.8,12.1,97.3,13.1,95.6,13.1z M97,5.8
			c-0.1-0.4-0.6-0.9-1.4-0.9c-1,0-1.5,0.9-1.5,1.8s0.5,1.8,1.6,1.8c0.8,0,1.3-0.4,1.3-0.4V5.8z"/>
		<path class="st3" d="M103.4,3.3c1.7,0,3,1.2,3,3c0,0.1,0,0.3,0,0.4c0,0.2-0.2,0.3-0.3,0.3h-4.1c0,0.8,0.7,1.5,1.6,1.5
			c0.6,0,1.1-0.2,1.4-0.5c0.2-0.1,0.3-0.1,0.4,0l0.5,0.7c0.1,0.1,0.1,0.3,0,0.4c-0.6,0.5-1.4,0.9-2.4,0.9c-1.9,0-3.3-1.5-3.3-3.4
			C100.2,4.9,101.5,3.3,103.4,3.3z M104.6,5.9c0-0.6-0.5-1.1-1.2-1.1c-0.8,0-1.3,0.5-1.4,1.1H104.6z"/>
	</g>
	<g>
		<path class="st3" d="M20.6,47.3l1.1-1.2c0.1-0.1,0.3-0.2,0.5,0c0.5,0.4,1.1,0.8,2,0.8c0.9,0,1.6-0.6,1.6-1.5
			c0-0.9-0.8-1.5-2.2-1.5h-1c-0.2,0-0.3-0.2-0.3-0.3V42c0-0.2,0.2-0.3,0.3-0.3h1c1.3,0,2-0.6,2-1.4c0-0.8-0.5-1.4-1.5-1.4
			c-0.8,0-1.3,0.4-1.6,0.7c-0.1,0.2-0.3,0.2-0.5,0l-1.1-1.1c-0.1-0.1-0.1-0.4,0-0.5c0.6-0.7,1.8-1.6,3.5-1.6c2.2,0,4,1.3,4,3.4
			c0,1.4-1.1,2.5-1.9,2.8v0.1c1,0.3,2.2,1.3,2.2,3c0,2-1.8,3.7-4.3,3.7c-2.3,0-3.4-1.1-3.8-1.6C20.4,47.6,20.4,47.4,20.6,47.3z"/>
		<path class="st3" d="M31.2,47.8c-0.1-0.2,0-0.4,0.4-0.5c0.9-0.3,3.3-1.1,3.7-3c-0.5,0.2-1.3,0.4-1.8,0.4c-1.7,0-3.7-1.3-3.7-4
			c0-2.3,1.9-4.2,4.2-4.2c2.9,0,4.5,2.2,4.5,5c0,5.5-4.3,7.5-6.2,8.1c-0.3,0.1-0.5,0-0.6-0.3L31.2,47.8z M35.9,40.7
			c0-1-0.8-1.8-1.8-1.8c-1,0-1.8,0.8-1.8,1.8c0,1,0.8,1.8,1.8,1.8C35.1,42.5,35.9,41.7,35.9,40.7z"/>
	</g>
	<g>
		<path class="st3" d="M40.1,38.8c0-1.4,1.1-2.4,2.4-2.4c1.3,0,2.4,1.1,2.4,2.4s-1.1,2.4-2.4,2.4C41.2,41.2,40.1,40.2,40.1,38.8z
			 M47.6,36.7c0.1-0.1,0.2-0.2,0.3-0.2h1.4c0.3,0,0.4,0.3,0.3,0.5L43.4,49c-0.1,0.1-0.2,0.2-0.3,0.2h-1.3c-0.3,0-0.4-0.3-0.3-0.5
			L47.6,36.7z M43.1,38.8c0-0.3-0.3-0.6-0.6-0.6c-0.3,0-0.6,0.3-0.6,0.6c0,0.3,0.3,0.6,0.6,0.6C42.8,39.4,43.1,39.1,43.1,38.8z
			 M48.5,44.5c1.4,0,2.4,1.1,2.4,2.4c0,1.3-1.1,2.4-2.4,2.4c-1.3,0-2.4-1.1-2.4-2.4C46.1,45.6,47.2,44.5,48.5,44.5z M48.5,47.5
			c0.3,0,0.6-0.3,0.6-0.6c0-0.3-0.3-0.6-0.6-0.6c-0.3,0-0.6,0.3-0.6,0.6C47.9,47.2,48.2,47.5,48.5,47.5z"/>
	</g>
	<g>
		<path class="st3" d="M21.2,83.2c-0.2,0-0.4-0.2-0.4-0.4v-1.6c0-0.2,0-0.4,0.3-0.7l6.2-7.4c0.1-0.1,0.1-0.1,0.3-0.1h1.3
			c0.2,0,0.4,0.2,0.4,0.4v7.5h1.5c0.2,0,0.4,0.1,0.4,0.3v1.6c0,0.2-0.1,0.4-0.4,0.4h-1.5v2.2c0,0.2-0.2,0.4-0.3,0.4h-2
			c-0.2,0-0.3-0.2-0.3-0.4v-2.2H21.2z M26.6,81v-3.5h0L23.7,81v0H26.6z"/>
		<path class="st3" d="M32.9,83.2c-0.2,0-0.4-0.2-0.4-0.4v-1.6c0-0.2,0-0.4,0.3-0.7l6.2-7.4c0.1-0.1,0.1-0.1,0.3-0.1h1.3
			c0.2,0,0.4,0.2,0.4,0.4v7.5h1.5c0.2,0,0.4,0.1,0.4,0.3v1.6c0,0.2-0.1,0.4-0.4,0.4h-1.5v2.2c0,0.2-0.2,0.4-0.3,0.4h-2
			c-0.2,0-0.3-0.2-0.3-0.4v-2.2H32.9z M38.3,81v-3.5h0L35.4,81v0H38.3z"/>
	</g>
	<g>
		<path class="st3" d="M44.2,75.5c0-1.4,1.1-2.4,2.4-2.4c1.3,0,2.4,1.1,2.4,2.4s-1.1,2.4-2.4,2.4C45.3,77.9,44.2,76.8,44.2,75.5z
			 M51.7,73.4c0.1-0.1,0.2-0.2,0.3-0.2h1.4c0.3,0,0.4,0.3,0.3,0.5l-6.2,11.9c-0.1,0.1-0.2,0.2-0.3,0.2h-1.3c-0.3,0-0.4-0.3-0.3-0.5
			L51.7,73.4z M47.3,75.5c0-0.3-0.3-0.6-0.6-0.6c-0.3,0-0.6,0.3-0.6,0.6c0,0.3,0.3,0.6,0.6,0.6C47,76.1,47.3,75.8,47.3,75.5z
			 M52.7,81.2c1.4,0,2.4,1.1,2.4,2.4c0,1.3-1.1,2.4-2.4,2.4c-1.3,0-2.4-1.1-2.4-2.4C50.2,82.2,51.3,81.2,52.7,81.2z M52.7,84.2
			c0.3,0,0.6-0.3,0.6-0.6c0-0.3-0.3-0.6-0.6-0.6c-0.3,0-0.6,0.3-0.6,0.6C52.1,83.9,52.3,84.2,52.7,84.2z"/>
	</g>
	<g>
		<path class="st3" d="M21.2,121.6c-0.2,0-0.4-0.2-0.4-0.4v-1.6c0-0.2,0-0.4,0.3-0.7l6.2-7.4c0.1-0.1,0.1-0.1,0.3-0.1h1.3
			c0.2,0,0.4,0.2,0.4,0.4v7.5h1.5c0.2,0,0.4,0.1,0.4,0.3v1.6c0,0.2-0.1,0.4-0.4,0.4h-1.5v2.2c0,0.2-0.2,0.4-0.3,0.4h-2
			c-0.2,0-0.3-0.2-0.3-0.4v-2.2H21.2z M26.6,119.4v-3.5h0l-2.9,3.5v0H26.6z"/>
		<path class="st3" d="M38.6,111.3c0.3-0.1,0.5,0,0.6,0.3l0.5,1.4c0.1,0.2,0,0.4-0.4,0.5c-0.9,0.3-3.3,1.2-3.7,3
			c0.5-0.2,1.3-0.4,1.8-0.4c1.7,0,3.7,1.3,3.7,4c0,2.3-1.9,4.2-4.2,4.2c-2.9,0-4.5-2.1-4.5-5C32.4,114,36.9,111.8,38.6,111.3z
			 M36.8,121.9c1,0,1.8-0.8,1.8-1.8c0-1-0.8-1.8-1.8-1.8c-1,0-1.8,0.8-1.8,1.8C35,121.1,35.9,121.9,36.8,121.9z"/>
	</g>
	<g>
		<path class="st3" d="M42.6,113.9c0-1.4,1.1-2.4,2.4-2.4c1.3,0,2.4,1.1,2.4,2.4s-1.1,2.4-2.4,2.4C43.7,116.3,42.6,115.2,42.6,113.9
			z M50.1,111.8c0.1-0.1,0.2-0.2,0.3-0.2h1.4c0.3,0,0.4,0.3,0.3,0.5l-6.2,11.9c-0.1,0.1-0.2,0.2-0.3,0.2h-1.3
			c-0.3,0-0.4-0.3-0.3-0.5L50.1,111.8z M45.7,113.9c0-0.3-0.3-0.6-0.6-0.6c-0.3,0-0.6,0.3-0.6,0.6c0,0.3,0.3,0.6,0.6,0.6
			C45.4,114.5,45.7,114.2,45.7,113.9z M51.1,119.6c1.4,0,2.4,1.1,2.4,2.4c0,1.3-1.1,2.4-2.4,2.4c-1.3,0-2.4-1.1-2.4-2.4
			C48.7,120.6,49.8,119.6,51.1,119.6z M51.1,122.6c0.3,0,0.6-0.3,0.6-0.6c0-0.3-0.3-0.6-0.6-0.6c-0.3,0-0.6,0.3-0.6,0.6
			C50.5,122.3,50.8,122.6,51.1,122.6z"/>
	</g>
	<g>
		<path class="st3" d="M21.2,159.6c-0.2,0-0.4-0.2-0.4-0.4v-1.6c0-0.2,0-0.4,0.3-0.7l6.2-7.4c0.1-0.1,0.1-0.1,0.3-0.1h1.3
			c0.2,0,0.4,0.2,0.4,0.4v7.5h1.5c0.2,0,0.4,0.1,0.4,0.3v1.6c0,0.2-0.1,0.4-0.4,0.4h-1.5v2.2c0,0.2-0.2,0.4-0.3,0.4h-2
			c-0.2,0-0.3-0.2-0.3-0.4v-2.2H21.2z M26.6,157.4v-3.5h0l-2.9,3.5v0H26.6z"/>
		<path class="st3" d="M33.3,160.8c-0.1-0.2,0-0.4,0.4-0.5c0.9-0.3,3.3-1.1,3.7-3c-0.5,0.2-1.3,0.4-1.8,0.4c-1.7,0-3.7-1.3-3.7-4
			c0-2.3,1.9-4.2,4.2-4.2c2.9,0,4.5,2.2,4.5,5c0,5.5-4.3,7.5-6.2,8.1c-0.3,0.1-0.5,0-0.6-0.3L33.3,160.8z M38,153.8
			c0-1-0.8-1.8-1.8-1.8c-1,0-1.8,0.8-1.8,1.8c0,1,0.8,1.8,1.8,1.8C37.2,155.6,38,154.8,38,153.8z"/>
	</g>
	<g>
		<path class="st3" d="M42.2,151.9c0-1.4,1.1-2.4,2.4-2.4c1.3,0,2.4,1.1,2.4,2.4s-1.1,2.4-2.4,2.4C43.3,154.3,42.2,153.2,42.2,151.9
			z M49.7,149.8c0.1-0.1,0.2-0.2,0.3-0.2h1.4c0.3,0,0.4,0.3,0.3,0.5l-6.2,11.9c-0.1,0.1-0.2,0.2-0.3,0.2h-1.3
			c-0.3,0-0.4-0.3-0.3-0.5L49.7,149.8z M45.2,151.9c0-0.3-0.3-0.6-0.6-0.6c-0.3,0-0.6,0.3-0.6,0.6c0,0.3,0.3,0.6,0.6,0.6
			C44.9,152.5,45.2,152.2,45.2,151.9z M50.7,157.5c1.4,0,2.4,1.1,2.4,2.4c0,1.3-1.1,2.4-2.4,2.4c-1.3,0-2.4-1.1-2.4-2.4
			C48.2,158.6,49.3,157.5,50.7,157.5z M50.7,160.6c0.3,0,0.6-0.3,0.6-0.6c0-0.3-0.3-0.6-0.6-0.6c-0.3,0-0.6,0.3-0.6,0.6
			C50,160.3,50.3,160.6,50.7,160.6z"/>
	</g>
	<g>
		<path class="st3" d="M20.9,197.7l1.1-1.2c0.1-0.1,0.4-0.1,0.5,0c0.7,0.6,1.3,0.9,2.2,0.9c1,0,1.8-0.7,1.8-1.8
			c0-1.1-0.7-1.8-1.9-1.8h-2.8c-0.4,0-0.6-0.4-0.6-0.7v-5.7c0-0.2,0.1-0.3,0.3-0.3h6c0.2,0,0.4,0.2,0.4,0.3v1.6
			c0,0.2-0.2,0.3-0.4,0.3h-3.8v2H25c2.6,0,4.2,1.6,4.2,4.1c0,2.4-2,4.4-4.6,4.4c-1.9,0-3.2-1-3.7-1.5
			C20.7,198,20.7,197.9,20.9,197.7z"/>
		<path class="st3" d="M30.6,193.3c0-4.1,1.7-6.5,4.7-6.5s4.8,2.4,4.8,6.5c0,4.1-1.7,6.5-4.8,6.5S30.6,197.4,30.6,193.3z
			 M37.2,193.3c0-2.4-0.8-3.9-1.9-3.9c-1.1,0-1.9,1.4-1.9,3.9c0,2.4,0.8,3.9,1.9,3.9C36.4,197.2,37.2,195.8,37.2,193.3z"/>
	</g>
	<g>
		<path class="st3" d="M41.6,189.3c0-1.4,1.1-2.4,2.4-2.4c1.3,0,2.4,1.1,2.4,2.4s-1.1,2.4-2.4,2.4C42.7,191.7,41.6,190.6,41.6,189.3
			z M49.1,187.2c0.1-0.1,0.2-0.2,0.3-0.2h1.4c0.3,0,0.4,0.3,0.3,0.5l-6.2,11.9c-0.1,0.1-0.2,0.2-0.3,0.2h-1.3
			c-0.3,0-0.4-0.3-0.3-0.5L49.1,187.2z M44.7,189.3c0-0.3-0.3-0.6-0.6-0.6c-0.3,0-0.6,0.3-0.6,0.6c0,0.3,0.3,0.6,0.6,0.6
			C44.4,189.9,44.7,189.6,44.7,189.3z M50.1,195c1.4,0,2.4,1.1,2.4,2.4c0,1.3-1.1,2.4-2.4,2.4c-1.3,0-2.4-1.1-2.4-2.4
			C47.6,196,48.7,195,50.1,195z M50.1,198c0.3,0,0.6-0.3,0.6-0.6c0-0.3-0.3-0.6-0.6-0.6c-0.3,0-0.6,0.3-0.6,0.6
			C49.5,197.7,49.8,198,50.1,198z"/>
	</g>
	<g>
		<path class="st3" d="M639,256.9c0,0-0.1-0.1,0-0.2l0.2-0.5c0-0.1,0.1-0.1,0.2-0.1c0.2,0.1,0.4,0.2,0.8,0.2c0.3,0,0.4-0.1,0.4-0.3
			c0-0.2-0.2-0.3-0.7-0.5c-0.7-0.3-1-0.6-1-1.2s0.4-1.1,1.3-1.1c0.5,0,0.9,0.1,1.1,0.3c0.1,0.1,0.1,0.2,0.1,0.3l-0.2,0.4
			c-0.1,0.1-0.2,0.1-0.2,0.1c-0.2-0.1-0.4-0.2-0.7-0.2c-0.2,0-0.4,0.1-0.4,0.2c0,0.2,0.2,0.3,0.5,0.4c0.7,0.3,1.2,0.5,1.2,1.3
			c0,0.6-0.5,1.1-1.4,1.1C639.6,257.2,639.2,257,639,256.9z"/>
		<path class="st3" d="M642.3,254.3c-0.1,0-0.2-0.1-0.2-0.2v-0.5c0-0.1,0.1-0.2,0.2-0.2h0.4v-1c0-0.1,0.1-0.2,0.2-0.2h0.7
			c0.1,0,0.2,0.1,0.2,0.2v1h0.9c0.1,0,0.2,0.1,0.2,0.2v0.5c0,0.1-0.1,0.2-0.2,0.2h-0.9v1.5c0,0.4,0.2,0.5,0.4,0.5
			c0.2,0,0.4,0,0.5-0.1c0.1,0,0.2,0,0.2,0.1l0.1,0.5c0,0.1,0,0.2-0.1,0.2c-0.1,0.1-0.5,0.2-0.8,0.2c-0.8,0-1.2-0.5-1.2-1.3v-1.6
			H642.3z"/>
		<path class="st3" d="M646.8,254.8c0.4,0,0.7,0.1,0.7,0.1c0-0.5-0.3-0.7-0.7-0.7c-0.3,0-0.6,0.1-0.9,0.1c-0.1,0-0.2,0-0.2-0.2
			l-0.1-0.4c0-0.1,0-0.2,0.1-0.2c0.1,0,0.6-0.2,1.1-0.2c1.1,0,1.6,0.6,1.6,1.6v2c0,0.1-0.1,0.2-0.2,0.2c-0.3,0-0.5-0.2-0.6-0.4
			c-0.2,0.2-0.6,0.4-1.1,0.4c-0.7,0-1.2-0.5-1.2-1.3C645.3,255.3,645.8,254.8,646.8,254.8z M646.8,256.5c0.3,0,0.6-0.3,0.7-0.4v-0.5
			c0,0-0.2-0.1-0.5-0.1c-0.4,0-0.7,0.2-0.7,0.5C646.2,256.3,646.4,256.5,646.8,256.5z"/>
		<path class="st3" d="M649.7,254.3h-0.4c-0.1,0-0.2-0.1-0.2-0.2v-0.5c0-0.1,0.1-0.2,0.2-0.2h0.4V253c0-1,0.5-1.5,1.5-1.5
			c0.5,0,0.9,0.2,1.1,0.4c0.1,0,0.1,0.1,0,0.2l-0.3,0.5c0,0.1-0.1,0.1-0.2,0c-0.1-0.1-0.4-0.2-0.6-0.2c-0.5,0-0.5,0.2-0.5,0.6v0.4h1
			c0.1,0,0.2,0.1,0.2,0.2v0.5c0,0.1-0.1,0.2-0.2,0.2h-1v2.6c0,0.1-0.1,0.2-0.2,0.2h-0.6c-0.1,0-0.2-0.1-0.2-0.2V254.3z"/>
		<path class="st3" d="M652.9,254.3h-0.4c-0.1,0-0.2-0.1-0.2-0.2v-0.5c0-0.1,0.1-0.2,0.2-0.2h0.4V253c0-1,0.5-1.5,1.5-1.5
			c0.5,0,0.9,0.2,1.1,0.4c0.1,0,0.1,0.1,0,0.2l-0.3,0.5c0,0.1-0.1,0.1-0.2,0c-0.1-0.1-0.4-0.2-0.6-0.2c-0.5,0-0.5,0.2-0.5,0.6v0.4h1
			c0.1,0,0.2,0.1,0.2,0.2v0.5c0,0.1-0.1,0.2-0.2,0.2h-1v2.6c0,0.1-0.1,0.2-0.2,0.2H653c-0.1,0-0.2-0.1-0.2-0.2V254.3z"/>
	</g>
	<g>
		<path class="st3" d="M620,293.1c1,0,1.9,0.9,1.9,1.9c0,1.1-0.8,1.9-1.9,1.9c-1,0-1.9-0.9-1.9-1.9C618.1,294,619,293.1,620,293.1z
			 M620,296.1c0.5,0,1-0.5,1-1c0-0.6-0.4-1-1-1s-1,0.4-1,1C619.1,295.6,619.5,296.1,620,296.1z"/>
		<path class="st3" d="M624.6,297c-0.4,0-0.7-0.1-0.9-0.2v1.8c0,0.1-0.1,0.2-0.2,0.2h-0.6c-0.1,0-0.2-0.1-0.2-0.2v-5.3
			c0-0.1,0.1-0.2,0.2-0.2c0.3,0,0.5,0.2,0.6,0.5c0.2-0.2,0.6-0.5,1.2-0.5c1,0,1.8,0.8,1.8,1.9C626.4,296.2,625.7,297,624.6,297z
			 M623.7,295.9c0,0,0.3,0.2,0.8,0.2c0.6,0,0.9-0.5,0.9-1s-0.3-1-0.9-1c-0.5,0-0.7,0.3-0.8,0.5V295.9z"/>
		<path class="st3" d="M628.9,293.1c1,0,1.7,0.7,1.7,1.7c0,0.1,0,0.2,0,0.2c0,0.1-0.1,0.2-0.2,0.2H628c0,0.5,0.4,0.9,0.9,0.9
			c0.4,0,0.6-0.1,0.8-0.3c0.1-0.1,0.2-0.1,0.2,0l0.3,0.4c0.1,0.1,0.1,0.2,0,0.2c-0.3,0.3-0.8,0.5-1.4,0.5c-1.1,0-1.9-0.9-1.9-1.9
			C627,294,627.8,293.1,628.9,293.1z M629.6,294.6c0-0.4-0.3-0.6-0.7-0.6c-0.4,0-0.7,0.3-0.8,0.6H629.6z"/>
		<path class="st3" d="M631.3,293.4c0-0.1,0.1-0.2,0.2-0.2c0.3,0,0.5,0.2,0.6,0.5c0.1-0.2,0.5-0.6,1-0.6c0.4,0,0.8,0.1,0.7,0.4
			l-0.2,0.5c0,0.1-0.1,0.1-0.2,0.1c-0.1,0-0.2-0.1-0.3-0.1c-0.4,0-0.6,0.3-0.7,0.4v2.3c0,0.1-0.1,0.2-0.2,0.2h-0.6
			c-0.1,0-0.2-0.1-0.2-0.2V293.4z"/>
		<path class="st3" d="M635.6,294.6c0.4,0,0.7,0.1,0.7,0.1c0-0.5-0.3-0.7-0.7-0.7c-0.3,0-0.6,0.1-0.9,0.1c-0.1,0-0.2,0-0.2-0.2
			l-0.1-0.4c0-0.1,0-0.2,0.1-0.2c0.1,0,0.6-0.2,1.1-0.2c1.1,0,1.6,0.6,1.6,1.6v2c0,0.1-0.1,0.2-0.2,0.2c-0.3,0-0.5-0.2-0.6-0.4
			c-0.2,0.2-0.6,0.4-1.1,0.4c-0.7,0-1.2-0.5-1.2-1.3C634.1,295.1,634.6,294.6,635.6,294.6z M635.6,296.3c0.3,0,0.6-0.3,0.7-0.4v-0.5
			c0,0-0.2-0.1-0.5-0.1c-0.4,0-0.7,0.2-0.7,0.5C635.1,296.1,635.3,296.3,635.6,296.3z"/>
		<path class="st3" d="M638.1,294.1c-0.1,0-0.2-0.1-0.2-0.2v-0.5c0-0.1,0.1-0.2,0.2-0.2h0.4v-1c0-0.1,0.1-0.2,0.2-0.2h0.7
			c0.1,0,0.2,0.1,0.2,0.2v1h0.9c0.1,0,0.2,0.1,0.2,0.2v0.5c0,0.1-0.1,0.2-0.2,0.2h-0.9v1.5c0,0.4,0.2,0.5,0.4,0.5
			c0.2,0,0.4,0,0.5-0.1c0.1,0,0.2,0,0.2,0.1l0.1,0.5c0,0.1,0,0.2-0.1,0.2c-0.1,0.1-0.5,0.2-0.8,0.2c-0.8,0-1.2-0.5-1.2-1.3v-1.6
			H638.1z"/>
		<path class="st3" d="M641.2,292c0-0.4,0.3-0.6,0.6-0.6c0.4,0,0.6,0.3,0.6,0.6c0,0.4-0.3,0.6-0.6,0.6
			C641.5,292.6,641.2,292.3,641.2,292z M641.3,293.4c0-0.1,0.1-0.2,0.2-0.2h0.6c0.1,0,0.2,0.1,0.2,0.2v3.3c0,0.1-0.1,0.2-0.2,0.2
			h-0.6c-0.1,0-0.2-0.1-0.2-0.2V293.4z"/>
		<path class="st3" d="M645,293.1c1,0,1.9,0.9,1.9,1.9c0,1.1-0.8,1.9-1.9,1.9c-1,0-1.9-0.9-1.9-1.9C643.1,294,644,293.1,645,293.1z
			 M645,296.1c0.5,0,1-0.5,1-1c0-0.6-0.4-1-1-1s-1,0.4-1,1C644.1,295.6,644.5,296.1,645,296.1z"/>
		<path class="st3" d="M647.7,293.4c0-0.1,0.1-0.2,0.2-0.2c0.3,0,0.5,0.2,0.6,0.5c0.2-0.2,0.6-0.5,1.2-0.5c1.2,0,1.5,0.8,1.5,1.7
			v1.9c0,0.1-0.1,0.2-0.2,0.2h-0.6c-0.1,0-0.2-0.1-0.2-0.2v-1.9c0-0.5-0.2-0.8-0.6-0.8c-0.5,0-0.7,0.3-0.8,0.6v2.1
			c0,0.1-0.1,0.2-0.2,0.2h-0.6c-0.1,0-0.2-0.1-0.2-0.2V293.4z"/>
		<path class="st3" d="M652,296.7c0,0-0.1-0.1,0-0.2l0.2-0.5c0-0.1,0.1-0.1,0.2-0.1c0.2,0.1,0.4,0.2,0.8,0.2c0.3,0,0.4-0.1,0.4-0.3
			c0-0.2-0.2-0.3-0.7-0.5c-0.7-0.3-1-0.6-1-1.2s0.4-1.1,1.3-1.1c0.5,0,0.9,0.1,1.1,0.3c0.1,0.1,0.1,0.2,0.1,0.3l-0.2,0.4
			c-0.1,0.1-0.2,0.1-0.2,0.1c-0.2-0.1-0.4-0.2-0.7-0.2c-0.2,0-0.4,0.1-0.4,0.2c0,0.2,0.2,0.3,0.5,0.4c0.7,0.3,1.2,0.5,1.2,1.3
			c0,0.6-0.5,1.1-1.4,1.1C652.6,297,652.2,296.8,652,296.7z"/>
	</g>
	<g>
		<path class="st3" d="M622.5,280.1l1.1-1.2c0.1-0.1,0.4-0.1,0.5,0c0.7,0.6,1.3,0.9,2.2,0.9c1,0,1.8-0.7,1.8-1.8
			c0-1.1-0.7-1.8-1.9-1.8h-2.8c-0.4,0-0.6-0.4-0.6-0.7v-5.7c0-0.2,0.1-0.3,0.3-0.3h6c0.2,0,0.4,0.2,0.4,0.3v1.6
			c0,0.2-0.2,0.3-0.4,0.3h-3.8v2h1.3c2.6,0,4.2,1.6,4.2,4.1c0,2.4-2,4.4-4.6,4.4c-1.9,0-3.2-1-3.7-1.5
			C622.3,280.5,622.3,280.4,622.5,280.1z"/>
		<path class="st3" d="M632.1,275.8c0-4.1,1.7-6.5,4.7-6.5c3,0,4.8,2.4,4.8,6.5c0,4.1-1.7,6.5-4.8,6.5
			C633.8,282.3,632.1,279.9,632.1,275.8z M638.8,275.8c0-2.4-0.8-3.9-1.9-3.9c-1.1,0-1.9,1.4-1.9,3.9c0,2.4,0.8,3.9,1.9,3.9
			C638,279.7,638.8,278.3,638.8,275.8z"/>
		<path class="st3" d="M643.2,271.8c0-1.4,1.1-2.4,2.4-2.4c1.3,0,2.4,1.1,2.4,2.4s-1.1,2.4-2.4,2.4
			C644.3,274.2,643.2,273.1,643.2,271.8z M650.7,269.7c0.1-0.1,0.2-0.2,0.3-0.2h1.4c0.3,0,0.4,0.3,0.3,0.5l-6.2,11.9
			c-0.1,0.1-0.2,0.2-0.3,0.2h-1.3c-0.3,0-0.4-0.3-0.3-0.5L650.7,269.7z M646.2,271.8c0-0.3-0.3-0.6-0.6-0.6c-0.3,0-0.6,0.3-0.6,0.6
			c0,0.3,0.3,0.6,0.6,0.6C645.9,272.4,646.2,272.1,646.2,271.8z M651.6,277.4c1.4,0,2.4,1.1,2.4,2.4c0,1.3-1.1,2.4-2.4,2.4
			c-1.3,0-2.4-1.1-2.4-2.4C649.2,278.5,650.3,277.4,651.6,277.4z M651.6,280.5c0.3,0,0.6-0.3,0.6-0.6c0-0.3-0.3-0.6-0.6-0.6
			c-0.3,0-0.6,0.3-0.6,0.6C651,280.2,651.3,280.5,651.6,280.5z"/>
	</g>
	<g>
		<g>
			<path class="st3" d="M623.6,317.9l1.1-1.2c0.1-0.1,0.4-0.1,0.5,0c0.7,0.6,1.3,0.9,2.2,0.9c1,0,1.8-0.7,1.8-1.8
				c0-1.1-0.7-1.8-1.9-1.8h-2.8c-0.4,0-0.6-0.4-0.6-0.7v-5.7c0-0.2,0.1-0.3,0.3-0.3h6c0.2,0,0.4,0.2,0.4,0.3v1.6
				c0,0.2-0.2,0.3-0.4,0.3h-3.8v2h1.3c2.6,0,4.2,1.6,4.2,4.1c0,2.4-2,4.4-4.6,4.4c-1.9,0-3.2-1-3.7-1.5
				C623.4,318.3,623.4,318.2,623.6,317.9z"/>
			<path class="st3" d="M633.4,317.9l1.1-1.2c0.1-0.1,0.4-0.1,0.5,0c0.7,0.6,1.3,0.9,2.2,0.9c1,0,1.8-0.7,1.8-1.8
				c0-1.1-0.7-1.8-1.9-1.8h-2.8c-0.4,0-0.6-0.4-0.6-0.7v-5.7c0-0.2,0.1-0.3,0.3-0.3h6c0.2,0,0.4,0.2,0.4,0.3v1.6
				c0,0.2-0.2,0.3-0.4,0.3h-3.8v2h1.3c2.6,0,4.2,1.6,4.2,4.1c0,2.4-2,4.4-4.6,4.4c-1.9,0-3.2-1-3.7-1.5
				C633.2,318.3,633.2,318.2,633.4,317.9z"/>
			<path class="st3" d="M643.2,309.5c0-1.4,1.1-2.4,2.4-2.4c1.3,0,2.4,1.1,2.4,2.4s-1.1,2.4-2.4,2.4
				C644.3,312,643.2,310.9,643.2,309.5z M650.7,307.5c0.1-0.1,0.2-0.2,0.3-0.2h1.4c0.3,0,0.4,0.3,0.3,0.5l-6.2,11.9
				c-0.1,0.1-0.2,0.2-0.3,0.2h-1.3c-0.3,0-0.4-0.3-0.3-0.5L650.7,307.5z M646.2,309.5c0-0.3-0.3-0.6-0.6-0.6c-0.3,0-0.6,0.3-0.6,0.6
				c0,0.3,0.3,0.6,0.6,0.6C645.9,310.2,646.2,309.9,646.2,309.5z M651.6,315.2c1.4,0,2.4,1.1,2.4,2.4c0,1.3-1.1,2.4-2.4,2.4
				c-1.3,0-2.4-1.1-2.4-2.4C649.2,316.3,650.3,315.2,651.6,315.2z M651.6,318.3c0.3,0,0.6-0.3,0.6-0.6c0-0.3-0.3-0.6-0.6-0.6
				c-0.3,0-0.6,0.3-0.6,0.6C651,318,651.3,318.3,651.6,318.3z"/>
		</g>
	</g>
	<g>
		<path class="st3" d="M637.7,21.9v-0.4c0-0.1,0.1-0.2,0.2-0.2h2.6c0.1,0,0.2,0.1,0.2,0.2v0.4c0,0.1-0.1,0.2-0.2,0.2h-2.6
			C637.7,22,637.7,22,637.7,21.9z M637.7,23.6v-0.5c0-0.1,0.1-0.2,0.2-0.2h2.6c0.1,0,0.2,0.1,0.2,0.2v0.5c0,0.1-0.1,0.2-0.2,0.2
			h-2.6C637.7,23.7,637.7,23.7,637.7,23.6z"/>
		<path class="st3" d="M642.3,22.9L642.3,22.9c0-0.1,0-0.2,0.1-0.2l2.8-1.7c0.1-0.1,0.2,0,0.2,0.1v0.6c0,0.1,0,0.1-0.1,0.1l-1.7,1
			l1.7,1c0,0,0.1,0.1,0.1,0.1v0.6c0,0.1-0.1,0.2-0.2,0.1l-2.8-1.6C642.3,23,642.3,23,642.3,22.9z"/>
		<path class="st3" d="M650,23.9c0.1,0,0.2,0.1,0.2,0.2v0.6c0,0.1-0.1,0.2-0.2,0.2h-3.2c-0.1,0-0.2-0.1-0.2-0.2v-0.1
			c0-0.1,0-0.2,0.1-0.2c0.6-0.7,1.5-2,2.1-2.7c0.3-0.3,0.4-0.6,0.4-0.9c0-0.4-0.3-0.7-0.9-0.7c-0.4,0-0.7,0.3-0.9,0.5
			c-0.1,0.1-0.2,0.1-0.2,0l-0.4-0.4c0,0-0.1-0.2,0-0.2c0,0,0.6-0.8,1.6-0.8c1.2,0,1.8,0.8,1.8,1.6c0,0.5-0.2,0.9-0.6,1.3
			c-0.3,0.5-1,1.3-1.4,1.8v0H650z"/>
		<path class="st3" d="M651,23.9l0.4-0.4c0.1,0,0.1-0.1,0.2,0c0.2,0.2,0.6,0.5,1.1,0.5c0.6,0,1-0.5,1-1c0-0.5-0.3-0.9-1-0.9h-1.3
			c-0.2,0-0.3-0.2-0.3-0.3v-2.4c0-0.1,0.1-0.2,0.2-0.2h2.6c0.1,0,0.2,0.1,0.2,0.2v0.6c0,0.1-0.1,0.2-0.2,0.2h-1.8v1.1h0.7
			c1.2,0,1.9,0.8,1.9,1.8c0,1-0.9,1.9-2,1.9c-0.9,0-1.4-0.4-1.6-0.7C650.9,24,650.9,24,651,23.9z"/>
	</g>
	<g>
		<path class="st3" d="M637.9,61.6c0.1,0,0.2,0.1,0.2,0.2v0.6c0,0.1-0.1,0.2-0.2,0.2h-3.2c-0.1,0-0.2-0.1-0.2-0.2v-0.1
			c0-0.1,0-0.2,0.1-0.2c0.6-0.7,1.5-2,2.1-2.7c0.3-0.3,0.4-0.6,0.4-0.9c0-0.4-0.3-0.7-0.9-0.7c-0.4,0-0.7,0.3-0.9,0.5
			c-0.1,0.1-0.2,0.1-0.2,0l-0.4-0.4c0,0-0.1-0.2,0-0.2c0,0,0.6-0.8,1.6-0.8c1.2,0,1.8,0.8,1.8,1.6c0,0.5-0.2,0.9-0.6,1.3
			c-0.3,0.5-1,1.3-1.4,1.8v0H637.9z"/>
		<path class="st3" d="M641.6,56.7c0.1,0,0.2,0,0.2,0.1l0.2,0.5c0,0.1,0,0.2-0.2,0.2c-0.4,0.1-1.6,0.6-1.8,1.5
			c0.1-0.1,0.6-0.2,0.9-0.2c0.8,0,1.7,0.6,1.7,1.8c0,1-0.8,1.9-1.9,1.9c-1.3,0-2-1-2-2.3C638.8,57.9,640.9,57,641.6,56.7z
			 M641.7,60.7c0-0.6-0.4-1-1-1c-0.5,0-0.9,0.4-1,0.7c0,0.6,0.3,1.2,1,1.2C641.3,61.6,641.7,61.2,641.7,60.7z"/>
		<path class="st3" d="M643.4,60.8v-0.5c0-0.1,0.1-0.2,0.2-0.2h1.8c0.1,0,0.2,0.1,0.2,0.2v0.5c0,0.1-0.1,0.1-0.2,0.1h-1.8
			C643.4,60.9,643.4,60.9,643.4,60.8z"/>
		<path class="st3" d="M646.2,61.6l0.4-0.4c0.1-0.1,0.1-0.1,0.2,0c0.2,0.2,0.5,0.4,1,0.4s0.9-0.3,0.9-0.7c0-0.5-0.4-0.8-1.1-0.8
			h-0.5c-0.1,0-0.2-0.1-0.2-0.2v-0.5c0-0.1,0.1-0.2,0.2-0.2h0.5c0.7,0,1-0.3,1-0.8c0-0.4-0.4-0.8-0.8-0.8c-0.4,0-0.7,0.2-0.8,0.4
			c-0.1,0.1-0.2,0.1-0.2,0l-0.4-0.4c-0.1-0.1-0.1-0.2,0-0.2c0.2-0.3,0.8-0.7,1.5-0.7c1,0,1.8,0.6,1.8,1.5c0,0.7-0.5,1.1-0.8,1.3v0
			c0.4,0.2,1,0.6,1,1.3c0,0.9-0.8,1.6-1.9,1.6c-1,0-1.5-0.5-1.7-0.7C646.1,61.8,646.1,61.7,646.2,61.6z"/>
		<path class="st3" d="M650.4,59.7c0-1.8,0.8-2.9,2.1-2.9c1.3,0,2.1,1.1,2.1,2.9c0,1.8-0.8,2.9-2.1,2.9
			C651.2,62.6,650.4,61.5,650.4,59.7z M653.6,59.7c0-1.2-0.4-1.9-1-1.9c-0.6,0-1,0.7-1,1.9c0,1.2,0.4,1.9,1,1.9
			C653.2,61.6,653.6,60.9,653.6,59.7z"/>
	</g>
	<g>
		<path class="st3" d="M636.7,99.3l0.4-0.4c0.1-0.1,0.1-0.1,0.2,0c0.2,0.2,0.5,0.4,1,0.4s0.9-0.3,0.9-0.7c0-0.5-0.4-0.8-1.1-0.8
			h-0.5c-0.1,0-0.2-0.1-0.2-0.2v-0.5c0-0.1,0.1-0.2,0.2-0.2h0.5c0.7,0,1-0.3,1-0.8c0-0.4-0.4-0.8-0.8-0.8c-0.4,0-0.7,0.2-0.8,0.4
			c-0.1,0.1-0.2,0.1-0.2,0l-0.4-0.4c-0.1-0.1-0.1-0.2,0-0.2c0.2-0.3,0.8-0.7,1.5-0.7c1,0,1.8,0.6,1.8,1.5c0,0.7-0.5,1.1-0.8,1.3v0
			c0.4,0.2,1,0.6,1,1.3c0,0.9-0.8,1.6-1.9,1.6c-1,0-1.5-0.5-1.7-0.7C636.6,99.5,636.6,99.4,636.7,99.3z"/>
		<path class="st3" d="M641,96.3c-0.1,0-0.2,0-0.2-0.1l0-0.4c0-0.1,0-0.1,0.1-0.2l1-0.9c0.1-0.1,0.2-0.1,0.3-0.1h0.4
			c0.1,0,0.2,0.1,0.2,0.2v5.3c0,0.1-0.1,0.2-0.2,0.2h-0.7c-0.1,0-0.2-0.1-0.2-0.2v-3.9L641,96.3z"/>
		<path class="st3" d="M643.8,98.5V98c0-0.1,0.1-0.2,0.2-0.2h1.8c0.1,0,0.2,0.1,0.2,0.2v0.5c0,0.1-0.1,0.1-0.2,0.1H644
			C643.9,98.7,643.8,98.6,643.8,98.5z"/>
		<path class="st3" d="M646.6,99.3l0.4-0.4c0.1-0.1,0.1-0.1,0.2,0c0.2,0.2,0.5,0.4,1,0.4s0.9-0.3,0.9-0.7c0-0.5-0.4-0.8-1.1-0.8
			h-0.5c-0.1,0-0.2-0.1-0.2-0.2v-0.5c0-0.1,0.1-0.2,0.2-0.2h0.5c0.7,0,1-0.3,1-0.8c0-0.4-0.4-0.8-0.8-0.8c-0.4,0-0.7,0.2-0.8,0.4
			c-0.1,0.1-0.2,0.1-0.2,0l-0.4-0.4c-0.1-0.1-0.1-0.2,0-0.2c0.2-0.3,0.8-0.7,1.5-0.7c1,0,1.8,0.6,1.8,1.5c0,0.7-0.5,1.1-0.8,1.3v0
			c0.4,0.2,1,0.6,1,1.3c0,0.9-0.8,1.6-1.9,1.6c-1,0-1.5-0.5-1.7-0.7C646.6,99.5,646.6,99.4,646.6,99.3z"/>
		<path class="st3" d="M651,99.3l0.4-0.4c0.1,0,0.1-0.1,0.2,0c0.2,0.2,0.6,0.5,1.1,0.5c0.6,0,1-0.5,1-1c0-0.5-0.3-0.9-1-0.9h-1.3
			c-0.2,0-0.3-0.2-0.3-0.3v-2.4c0-0.1,0.1-0.2,0.2-0.2h2.6c0.1,0,0.2,0.1,0.2,0.2v0.6c0,0.1-0.1,0.2-0.2,0.2h-1.8v1.1h0.7
			c1.2,0,1.9,0.8,1.9,1.8c0,1-0.9,1.9-2,1.9c-0.9,0-1.4-0.4-1.6-0.7C650.9,99.5,650.9,99.4,651,99.3z"/>
	</g>
	<g>
		<path class="st3" d="M633.7,137.1l0.4-0.4c0.1-0.1,0.1-0.1,0.2,0c0.2,0.2,0.5,0.4,1,0.4s0.9-0.3,0.9-0.7c0-0.5-0.4-0.8-1.1-0.8
			h-0.5c-0.1,0-0.2-0.1-0.2-0.2v-0.5c0-0.1,0.1-0.2,0.2-0.2h0.5c0.7,0,1-0.3,1-0.8c0-0.4-0.4-0.8-0.8-0.8c-0.4,0-0.7,0.2-0.8,0.4
			c-0.1,0.1-0.2,0.1-0.2,0l-0.4-0.4c-0.1-0.1-0.1-0.2,0-0.2c0.2-0.3,0.8-0.7,1.5-0.7c1,0,1.8,0.6,1.8,1.5c0,0.7-0.5,1.1-0.8,1.3v0
			c0.4,0.2,1,0.6,1,1.3c0,0.9-0.8,1.6-1.9,1.6c-1,0-1.5-0.5-1.7-0.7C633.7,137.2,633.7,137.1,633.7,137.1z"/>
		<path class="st3" d="M640.7,132.2c0.1,0,0.2,0,0.2,0.1l0.2,0.5c0,0.1,0,0.2-0.2,0.2c-0.4,0.1-1.6,0.6-1.8,1.5
			c0.1-0.1,0.6-0.2,0.9-0.2c0.8,0,1.7,0.6,1.7,1.8c0,1-0.8,1.9-1.9,1.9c-1.3,0-2-1-2-2.3C638,133.3,640,132.4,640.7,132.2z
			 M640.9,136.1c0-0.6-0.4-1-1-1c-0.5,0-0.9,0.4-1,0.7c0,0.6,0.3,1.2,1,1.2C640.5,137.1,640.9,136.7,640.9,136.1z"/>
		<path class="st3" d="M642.5,136.3v-0.5c0-0.1,0.1-0.2,0.2-0.2h1.8c0.1,0,0.2,0.1,0.2,0.2v0.5c0,0.1-0.1,0.1-0.2,0.1h-1.8
			C642.6,136.4,642.5,136.3,642.5,136.3z"/>
		<path class="st3" d="M645.5,136.7c-0.1,0-0.2-0.1-0.2-0.2v-0.5c0-0.1,0-0.2,0.1-0.3l2.8-3.4c0.1-0.1,0.1-0.1,0.2-0.1h0.4
			c0.1,0,0.2,0.1,0.2,0.2v3.5h0.7c0.1,0,0.2,0.1,0.2,0.1v0.6c0,0.1-0.1,0.2-0.2,0.2H649l0,1c0,0.1-0.1,0.2-0.2,0.2h-0.7
			c-0.1,0-0.2-0.1-0.2-0.2v-1H645.5z M648,135.9v-2h0l-1.6,2v0H648z"/>
		<path class="st3" d="M650.4,135.1c0-1.8,0.8-2.9,2.1-2.9c1.3,0,2.1,1.1,2.1,2.9c0,1.8-0.8,2.9-2.1,2.9
			C651.2,138,650.4,136.9,650.4,135.1z M653.6,135.1c0-1.2-0.4-1.9-1-1.9c-0.6,0-1,0.7-1,1.9c0,1.2,0.4,1.9,1,1.9
			C653.2,137.1,653.6,136.4,653.6,135.1z"/>
	</g>
	<g>
		<path class="st3" d="M638.7,174.9c0-0.1,0-0.1,0.1-0.1l1.7-1l-1.7-1c0,0-0.1-0.1-0.1-0.1v-0.6c0-0.1,0.1-0.2,0.2-0.1l2.8,1.7
			c0,0,0.1,0.1,0.1,0.1v0c0,0,0,0.1-0.1,0.1l-2.8,1.6c-0.1,0.1-0.2,0-0.2-0.1V174.9z"/>
		<path class="st3" d="M643.5,172.8v-0.4c0-0.1,0.1-0.2,0.2-0.2h2.6c0.1,0,0.2,0.1,0.2,0.2v0.4c0,0.1-0.1,0.2-0.2,0.2h-2.6
			C643.5,173,643.5,172.9,643.5,172.8z M643.5,174.5V174c0-0.1,0.1-0.2,0.2-0.2h2.6c0.1,0,0.2,0.1,0.2,0.2v0.5
			c0,0.1-0.1,0.2-0.2,0.2h-2.6C643.5,174.6,643.5,174.6,643.5,174.5z"/>
		<path class="st3" d="M647.7,174.5c-0.1,0-0.2-0.1-0.2-0.2v-0.5c0-0.1,0-0.2,0.1-0.3l2.8-3.4c0.1-0.1,0.1-0.1,0.2-0.1h0.4
			c0.1,0,0.2,0.1,0.2,0.2v3.5h0.7c0.1,0,0.2,0.1,0.2,0.1v0.6c0,0.1-0.1,0.2-0.2,0.2h-0.7l0,1c0,0.1-0.1,0.2-0.2,0.2h-0.7
			c-0.1,0-0.2-0.1-0.2-0.2v-1H647.7z M650.3,173.6v-2h0l-1.6,2v0H650.3z"/>
		<path class="st3" d="M652.5,171.7c-0.1,0-0.2,0-0.2-0.1l0-0.4c0-0.1,0-0.1,0.1-0.2l1-0.9c0.1-0.1,0.2-0.1,0.3-0.1h0.4
			c0.1,0,0.2,0.1,0.2,0.2v5.3c0,0.1-0.1,0.2-0.2,0.2h-0.7c-0.1,0-0.2-0.1-0.2-0.2v-3.9L652.5,171.7z"/>
	</g>
	<g>
		<path class="st3" d="M632.8,36.2c0.3-0.1,0.5,0,0.6,0.3L634,38c0.1,0.2,0,0.4-0.4,0.5c-0.9,0.3-3.3,1.2-3.7,3
			c0.5-0.2,1.3-0.4,1.8-0.4c1.7,0,3.7,1.3,3.7,4c0,2.3-1.9,4.2-4.2,4.2c-2.9,0-4.5-2.1-4.5-5C626.6,38.9,631.1,36.7,632.8,36.2z
			 M631,46.8c1,0,1.8-0.8,1.8-1.8c0-1-0.8-1.8-1.8-1.8c-1,0-1.8,0.8-1.8,1.8C629.3,46,630.1,46.8,631,46.8z"/>
		<path class="st3" d="M636.4,40.5c-0.2,0-0.3-0.2-0.3-0.4v-1.2c0-0.1,0.1-0.2,0.1-0.3l2.4-1.9c0.2-0.1,0.4-0.2,0.6-0.2h1.3
			c0.2,0,0.3,0.2,0.3,0.3v11.9c0,0.2-0.2,0.4-0.3,0.4h-2.1c-0.2,0-0.4-0.2-0.4-0.4v-8.3H636.4z"/>
	</g>
	<g>
		<path class="st3" d="M643.2,38.8c0-1.4,1.1-2.4,2.4-2.4c1.3,0,2.4,1.1,2.4,2.4s-1.1,2.4-2.4,2.4C644.3,41.2,643.2,40.2,643.2,38.8
			z M650.7,36.7c0.1-0.1,0.2-0.2,0.3-0.2h1.4c0.3,0,0.4,0.3,0.3,0.5L646.5,49c-0.1,0.1-0.2,0.2-0.3,0.2h-1.3c-0.3,0-0.4-0.3-0.3-0.5
			L650.7,36.7z M646.2,38.8c0-0.3-0.3-0.6-0.6-0.6c-0.3,0-0.6,0.3-0.6,0.6c0,0.3,0.3,0.6,0.6,0.6C645.9,39.4,646.2,39.1,646.2,38.8z
			 M651.6,44.5c1.4,0,2.4,1.1,2.4,2.4c0,1.3-1.1,2.4-2.4,2.4c-1.3,0-2.4-1.1-2.4-2.4C649.2,45.6,650.3,44.5,651.6,44.5z M651.6,47.5
			c0.3,0,0.6-0.3,0.6-0.6c0-0.3-0.3-0.6-0.6-0.6c-0.3,0-0.6,0.3-0.6,0.6C651,47.2,651.3,47.5,651.6,47.5z"/>
	</g>
	<g>
		<path class="st3" d="M623.3,83.9l1.1-1.2c0.1-0.1,0.4-0.1,0.5,0c0.7,0.6,1.3,0.9,2.2,0.9c1,0,1.8-0.7,1.8-1.8
			c0-1.1-0.7-1.8-1.9-1.8h-2.8c-0.4,0-0.6-0.4-0.6-0.7v-5.7c0-0.2,0.1-0.3,0.3-0.3h6c0.2,0,0.4,0.2,0.4,0.3v1.6
			c0,0.2-0.2,0.3-0.4,0.3h-3.8v2h1.3c2.6,0,4.2,1.6,4.2,4.1c0,2.4-2,4.4-4.6,4.4c-1.9,0-3.2-1-3.7-1.5
			C623.1,84.2,623.1,84.1,623.3,83.9z"/>
		<path class="st3" d="M639.2,72.9c0.3-0.1,0.5,0,0.6,0.3l0.5,1.4c0.1,0.2,0,0.4-0.4,0.5c-0.9,0.3-3.3,1.2-3.7,3
			c0.5-0.2,1.3-0.4,1.8-0.4c1.7,0,3.7,1.3,3.7,4c0,2.3-1.9,4.2-4.2,4.2c-2.9,0-4.5-2.1-4.5-5C633,75.5,637.5,73.4,639.2,72.9z
			 M637.4,83.5c1,0,1.8-0.8,1.8-1.8c0-1-0.8-1.8-1.8-1.8c-1,0-1.8,0.8-1.8,1.8C635.6,82.7,636.4,83.5,637.4,83.5z"/>
	</g>
	<g>
		<path class="st3" d="M643.2,75.5c0-1.4,1.1-2.4,2.4-2.4c1.3,0,2.4,1.1,2.4,2.4s-1.1,2.4-2.4,2.4C644.3,77.9,643.2,76.8,643.2,75.5
			z M650.7,73.4c0.1-0.1,0.2-0.2,0.3-0.2h1.4c0.3,0,0.4,0.3,0.3,0.5l-6.2,11.9c-0.1,0.1-0.2,0.2-0.3,0.2h-1.3
			c-0.3,0-0.4-0.3-0.3-0.5L650.7,73.4z M646.2,75.5c0-0.3-0.3-0.6-0.6-0.6c-0.3,0-0.6,0.3-0.6,0.6c0,0.3,0.3,0.6,0.6,0.6
			C645.9,76.1,646.2,75.8,646.2,75.5z M651.6,81.2c1.4,0,2.4,1.1,2.4,2.4c0,1.3-1.1,2.4-2.4,2.4c-1.3,0-2.4-1.1-2.4-2.4
			C649.2,82.2,650.3,81.2,651.6,81.2z M651.6,84.2c0.3,0,0.6-0.3,0.6-0.6c0-0.3-0.3-0.6-0.6-0.6c-0.3,0-0.6,0.3-0.6,0.6
			C651,83.9,651.3,84.2,651.6,84.2z"/>
	</g>
	<g>
		<path class="st3" d="M621.7,122.3l1.1-1.2c0.1-0.1,0.4-0.1,0.5,0c0.7,0.6,1.3,0.9,2.2,0.9c1,0,1.8-0.7,1.8-1.8
			c0-1.1-0.7-1.8-1.9-1.8h-2.8c-0.4,0-0.6-0.4-0.6-0.7V112c0-0.2,0.1-0.3,0.3-0.3h6c0.2,0,0.4,0.2,0.4,0.3v1.6
			c0,0.2-0.2,0.3-0.4,0.3h-3.8v2h1.3c2.6,0,4.2,1.6,4.2,4.1c0,2.4-2,4.4-4.6,4.4c-1.9,0-3.2-1-3.7-1.5
			C621.5,122.6,621.5,122.5,621.7,122.3z"/>
		<path class="st3" d="M631.8,121.6c-0.2,0-0.4-0.2-0.4-0.4v-1.6c0-0.2,0-0.4,0.3-0.7l6.2-7.4c0.1-0.1,0.1-0.1,0.3-0.1h1.3
			c0.2,0,0.4,0.2,0.4,0.4v7.5h1.5c0.2,0,0.4,0.1,0.4,0.3v1.6c0,0.2-0.1,0.4-0.4,0.4h-1.5v2.2c0,0.2-0.2,0.4-0.3,0.4h-2
			c-0.2,0-0.3-0.2-0.3-0.4v-2.2H631.8z M637.3,119.4v-3.5h0l-2.9,3.5v0H637.3z"/>
	</g>
	<g>
		<path class="st3" d="M643.2,113.9c0-1.4,1.1-2.4,2.4-2.4c1.3,0,2.4,1.1,2.4,2.4s-1.1,2.4-2.4,2.4
			C644.3,116.3,643.2,115.2,643.2,113.9z M650.7,111.8c0.1-0.1,0.2-0.2,0.3-0.2h1.4c0.3,0,0.4,0.3,0.3,0.5l-6.2,11.9
			c-0.1,0.1-0.2,0.2-0.3,0.2h-1.3c-0.3,0-0.4-0.3-0.3-0.5L650.7,111.8z M646.2,113.9c0-0.3-0.3-0.6-0.6-0.6c-0.3,0-0.6,0.3-0.6,0.6
			c0,0.3,0.3,0.6,0.6,0.6C645.9,114.5,646.2,114.2,646.2,113.9z M651.6,119.6c1.4,0,2.4,1.1,2.4,2.4c0,1.3-1.1,2.4-2.4,2.4
			c-1.3,0-2.4-1.1-2.4-2.4C649.2,120.6,650.3,119.6,651.6,119.6z M651.6,122.6c0.3,0,0.6-0.3,0.6-0.6c0-0.3-0.3-0.6-0.6-0.6
			c-0.3,0-0.6,0.3-0.6,0.6C651,122.3,651.3,122.6,651.6,122.6z"/>
	</g>
	<g>
		<path class="st3" d="M626.9,160.3l1.1-1.2c0.1-0.1,0.4-0.1,0.5,0c0.7,0.6,1.3,0.9,2.2,0.9c1,0,1.8-0.7,1.8-1.8
			c0-1.1-0.7-1.8-1.9-1.8h-2.8c-0.4,0-0.6-0.4-0.6-0.7V150c0-0.2,0.1-0.3,0.3-0.3h6c0.2,0,0.4,0.2,0.4,0.3v1.6
			c0,0.2-0.2,0.3-0.4,0.3h-3.8v2h1.3c2.6,0,4.2,1.6,4.2,4.1c0,2.4-2,4.4-4.6,4.4c-1.9,0-3.2-1-3.7-1.5
			C626.7,160.6,626.7,160.5,626.9,160.3z"/>
		<path class="st3" d="M636.4,153.5c-0.2,0-0.3-0.2-0.3-0.4V152c0-0.1,0.1-0.2,0.1-0.3l2.4-1.9c0.2-0.1,0.4-0.2,0.6-0.2h1.3
			c0.2,0,0.3,0.2,0.3,0.3v11.9c0,0.2-0.2,0.4-0.3,0.4h-2.1c-0.2,0-0.4-0.2-0.4-0.4v-8.3H636.4z"/>
	</g>
	<g>
		<path class="st3" d="M643.2,151.9c0-1.4,1.1-2.4,2.4-2.4c1.3,0,2.4,1.1,2.4,2.4s-1.1,2.4-2.4,2.4
			C644.3,154.3,643.2,153.2,643.2,151.9z M650.7,149.8c0.1-0.1,0.2-0.2,0.3-0.2h1.4c0.3,0,0.4,0.3,0.3,0.5l-6.2,11.9
			c-0.1,0.1-0.2,0.2-0.3,0.2h-1.3c-0.3,0-0.4-0.3-0.3-0.5L650.7,149.8z M646.2,151.9c0-0.3-0.3-0.6-0.6-0.6c-0.3,0-0.6,0.3-0.6,0.6
			c0,0.3,0.3,0.6,0.6,0.6C645.9,152.5,646.2,152.2,646.2,151.9z M651.6,157.5c1.4,0,2.4,1.1,2.4,2.4c0,1.3-1.1,2.4-2.4,2.4
			c-1.3,0-2.4-1.1-2.4-2.4C649.2,158.6,650.3,157.5,651.6,157.5z M651.6,160.6c0.3,0,0.6-0.3,0.6-0.6c0-0.3-0.3-0.6-0.6-0.6
			c-0.3,0-0.6,0.3-0.6,0.6C651,160.3,651.3,160.6,651.6,160.6z"/>
	</g>
	<g>
		<path class="st3" d="M622.5,197.7l1.1-1.2c0.1-0.1,0.4-0.1,0.5,0c0.7,0.6,1.3,0.9,2.2,0.9c1,0,1.8-0.7,1.8-1.8
			c0-1.1-0.7-1.8-1.9-1.8h-2.8c-0.4,0-0.6-0.4-0.6-0.7v-5.7c0-0.2,0.1-0.3,0.3-0.3h6c0.2,0,0.4,0.2,0.4,0.3v1.6
			c0,0.2-0.2,0.3-0.4,0.3h-3.8v2h1.3c2.6,0,4.2,1.6,4.2,4.1c0,2.4-2,4.4-4.6,4.4c-1.9,0-3.2-1-3.7-1.5
			C622.3,198,622.3,197.9,622.5,197.7z"/>
		<path class="st3" d="M632.1,193.3c0-4.1,1.7-6.5,4.7-6.5c3,0,4.8,2.4,4.8,6.5c0,4.1-1.7,6.5-4.8,6.5
			C633.8,199.8,632.1,197.4,632.1,193.3z M638.8,193.3c0-2.4-0.8-3.9-1.9-3.9c-1.1,0-1.9,1.4-1.9,3.9c0,2.4,0.8,3.9,1.9,3.9
			C638,197.2,638.8,195.8,638.8,193.3z"/>
	</g>
	<g>
		<path class="st3" d="M643.2,189.3c0-1.4,1.1-2.4,2.4-2.4c1.3,0,2.4,1.1,2.4,2.4s-1.1,2.4-2.4,2.4
			C644.3,191.7,643.2,190.6,643.2,189.3z M650.7,187.2c0.1-0.1,0.2-0.2,0.3-0.2h1.4c0.3,0,0.4,0.3,0.3,0.5l-6.2,11.9
			c-0.1,0.1-0.2,0.2-0.3,0.2h-1.3c-0.3,0-0.4-0.3-0.3-0.5L650.7,187.2z M646.2,189.3c0-0.3-0.3-0.6-0.6-0.6c-0.3,0-0.6,0.3-0.6,0.6
			c0,0.3,0.3,0.6,0.6,0.6C645.9,189.9,646.2,189.6,646.2,189.3z M651.6,195c1.4,0,2.4,1.1,2.4,2.4c0,1.3-1.1,2.4-2.4,2.4
			c-1.3,0-2.4-1.1-2.4-2.4C649.2,196,650.3,195,651.6,195z M651.6,198c0.3,0,0.6-0.3,0.6-0.6c0-0.3-0.3-0.6-0.6-0.6
			c-0.3,0-0.6,0.3-0.6,0.6C651,197.7,651.3,198,651.6,198z"/>
	</g>
</g>
</svg>
