<svg xmlns="http://www.w3.org/2000/svg" viewBox="0 0 281.1 228.31"><defs><style>.cls-1{fill:#007dc3;}.cls-2{fill:#fdb71a;}.cls-3{fill:#fff;}</style></defs><g id="Layer_2" data-name="Layer 2"><g id="Layer_1-2" data-name="Layer 1"><rect class="cls-1" y="206.71" width="21.59" height="21.59"/><rect class="cls-1" x="22.97" y="206.71" width="21.59" height="21.59"/><rect class="cls-1" x="45.94" y="206.71" width="21.59" height="21.59"/><rect class="cls-1" x="68.9" y="206.71" width="21.59" height="21.59"/><rect class="cls-1" x="91.87" y="206.71" width="21.59" height="21.59"/><rect class="cls-1" x="114.84" y="206.71" width="21.59" height="21.59"/><rect class="cls-1" x="137.81" y="206.71" width="21.59" height="21.59"/><rect class="cls-1" x="160.78" y="206.71" width="21.59" height="21.59"/><rect class="cls-1" x="183.74" y="206.71" width="21.59" height="21.59"/><rect class="cls-1" x="206.71" y="206.71" width="21.59" height="21.59"/><rect class="cls-1" y="183.75" width="21.59" height="21.59"/><rect class="cls-1" x="22.97" y="183.74" width="21.59" height="21.59"/><rect class="cls-1" x="45.94" y="183.74" width="21.59" height="21.59"/><rect class="cls-1" x="68.9" y="183.74" width="21.59" height="21.59"/><rect class="cls-1" x="91.87" y="183.74" width="21.59" height="21.59"/><rect class="cls-1" x="114.84" y="183.74" width="21.59" height="21.59"/><rect class="cls-1" x="137.81" y="183.74" width="21.59" height="21.59"/><rect class="cls-1" x="160.78" y="183.74" width="21.59" height="21.59"/><rect class="cls-1" x="183.74" y="183.74" width="21.59" height="21.59"/><rect class="cls-1" x="206.71" y="183.74" width="21.59" height="21.59"/><rect class="cls-1" y="160.78" width="21.59" height="21.59"/><rect class="cls-1" x="22.97" y="160.78" width="21.59" height="21.59"/><rect class="cls-1" x="45.94" y="160.78" width="21.59" height="21.59"/><rect class="cls-1" x="68.9" y="160.78" width="21.59" height="21.59"/><rect class="cls-1" x="91.87" y="160.78" width="21.59" height="21.59"/><rect class="cls-1" x="114.84" y="160.78" width="21.59" height="21.59"/><rect class="cls-1" x="137.81" y="160.78" width="21.59" height="21.59"/><rect class="cls-1" x="160.78" y="160.78" width="21.59" height="21.59"/><rect class="cls-1" x="183.74" y="160.78" width="21.59" height="21.59"/><rect class="cls-1" x="206.71" y="160.78" width="21.59" height="21.59"/><rect class="cls-1" y="137.81" width="21.59" height="21.59"/><rect class="cls-1" x="22.97" y="137.81" width="21.59" height="21.59"/><rect class="cls-1" x="45.94" y="137.81" width="21.59" height="21.59"/><rect class="cls-1" x="68.9" y="137.81" width="21.59" height="21.59"/><rect class="cls-1" x="91.87" y="137.81" width="21.59" height="21.59"/><rect class="cls-1" x="114.84" y="137.81" width="21.59" height="21.59"/><rect class="cls-1" x="137.81" y="137.81" width="21.59" height="21.59"/><rect class="cls-1" x="160.78" y="137.81" width="21.59" height="21.59"/><rect class="cls-1" x="183.74" y="137.81" width="21.59" height="21.59"/><rect class="cls-1" x="206.71" y="137.81" width="21.59" height="21.59"/><rect class="cls-1" y="114.84" width="21.59" height="21.59"/><rect class="cls-1" x="22.97" y="114.84" width="21.59" height="21.59"/><rect class="cls-1" x="45.94" y="114.84" width="21.59" height="21.59"/><rect class="cls-1" x="68.9" y="114.84" width="21.59" height="21.59"/><rect class="cls-1" x="91.87" y="114.84" width="21.59" height="21.59"/><rect class="cls-2" x="114.84" y="114.84" width="21.59" height="21.59"/><rect class="cls-2" x="137.81" y="114.84" width="21.59" height="21.59"/><rect class="cls-2" x="160.78" y="114.84" width="21.59" height="21.59"/><rect class="cls-2" x="183.74" y="114.84" width="21.59" height="21.59"/><rect class="cls-2" x="206.71" y="114.84" width="21.59" height="21.59"/><rect class="cls-2" y="91.87" width="21.59" height="21.59"/><rect class="cls-2" x="22.97" y="91.87" width="21.59" height="21.59"/><rect class="cls-2" x="45.94" y="91.87" width="21.59" height="21.59"/><rect class="cls-2" x="68.9" y="91.87" width="21.59" height="21.59"/><rect class="cls-2" x="91.87" y="91.87" width="21.59" height="21.59"/><rect class="cls-2" x="114.84" y="91.87" width="21.59" height="21.59"/><rect class="cls-2" x="137.81" y="91.87" width="21.59" height="21.59"/><rect class="cls-2" x="160.78" y="91.87" width="21.59" height="21.59"/><rect class="cls-2" x="183.74" y="91.87" width="21.59" height="21.59"/><rect class="cls-2" x="206.71" y="91.87" width="21.59" height="21.59"/><rect class="cls-2" y="68.9" width="21.59" height="21.6"/><rect class="cls-2" x="22.97" y="68.91" width="21.59" height="21.59"/><rect class="cls-2" x="45.94" y="68.91" width="21.59" height="21.59"/><rect class="cls-2" x="68.9" y="68.91" width="21.59" height="21.59"/><rect class="cls-2" x="91.87" y="68.91" width="21.59" height="21.59"/><rect class="cls-2" x="114.84" y="68.91" width="21.59" height="21.59"/><rect class="cls-2" x="137.81" y="68.91" width="21.59" height="21.59"/><rect class="cls-2" x="160.78" y="68.91" width="21.59" height="21.59"/><rect class="cls-2" x="183.74" y="68.91" width="21.59" height="21.59"/><rect class="cls-2" x="206.71" y="68.91" width="21.59" height="21.59"/><rect class="cls-2" y="45.93" width="21.59" height="21.6"/><rect class="cls-2" x="22.97" y="45.93" width="21.59" height="21.59"/><rect class="cls-2" x="45.94" y="45.93" width="21.59" height="21.59"/><rect class="cls-2" x="68.9" y="45.93" width="21.59" height="21.59"/><rect class="cls-2" x="91.87" y="45.93" width="21.59" height="21.59"/><rect class="cls-2" x="114.84" y="45.93" width="21.59" height="21.59"/><rect class="cls-2" x="137.81" y="45.93" width="21.59" height="21.59"/><rect class="cls-2" x="160.78" y="45.93" width="21.59" height="21.59"/><rect class="cls-2" x="183.74" y="45.93" width="21.59" height="21.59"/><rect class="cls-2" x="206.71" y="45.93" width="21.59" height="21.59"/><rect class="cls-2" y="22.97" width="21.59" height="21.59"/><rect class="cls-2" x="22.97" y="22.97" width="21.59" height="21.59"/><rect class="cls-2" x="45.94" y="22.97" width="21.59" height="21.59"/><rect class="cls-2" x="68.9" y="22.97" width="21.59" height="21.59"/><rect class="cls-2" x="91.87" y="22.97" width="21.59" height="21.59"/><rect class="cls-2" x="114.84" y="22.97" width="21.59" height="21.59"/><rect class="cls-2" x="137.81" y="22.97" width="21.59" height="21.59"/><rect class="cls-2" x="160.78" y="22.97" width="21.59" height="21.59"/><rect class="cls-2" x="183.74" y="22.97" width="21.59" height="21.59"/><rect class="cls-2" x="206.71" y="22.97" width="21.59" height="21.59"/><rect class="cls-2" width="21.59" height="21.59"/><rect class="cls-2" x="22.97" width="21.59" height="21.59"/><rect class="cls-2" x="45.94" width="21.59" height="21.59"/><rect class="cls-2" x="68.9" width="21.59" height="21.59"/><rect class="cls-2" x="91.87" width="21.59" height="21.59"/><rect class="cls-2" x="114.84" width="21.59" height="21.59"/><rect class="cls-2" x="137.81" width="21.59" height="21.59"/><rect class="cls-2" x="160.78" width="21.59" height="21.59"/><rect class="cls-2" x="183.74" width="21.59" height="21.59"/><rect class="cls-2" x="206.71" width="21.59" height="21.59"/><path class="cls-3" d="M239.38,65.08l1.13-1.19a.38.38,0,0,1,.49,0,3.19,3.19,0,0,0,2.21.88A1.72,1.72,0,0,0,245,63a1.7,1.7,0,0,0-1.92-1.79H240.2a.61.61,0,0,1-.57-.66V54.79a.34.34,0,0,1,.34-.34h6a.36.36,0,0,1,.36.34v1.64a.36.36,0,0,1-.36.34h-3.82v2h1.31a3.92,3.92,0,0,1,4.23,4.11,4.42,4.42,0,0,1-4.59,4.36,4.85,4.85,0,0,1-3.65-1.53C239.18,65.42,239.16,65.29,239.38,65.08Z"/><path class="cls-3" d="M249.22,65.08l1.13-1.19a.38.38,0,0,1,.49,0,3.22,3.22,0,0,0,2.22.88,1.78,1.78,0,1,0-.17-3.55h-2.84a.62.62,0,0,1-.58-.66V54.79a.34.34,0,0,1,.34-.34h6a.35.35,0,0,1,.36.34v1.64a.35.35,0,0,1-.36.34H252v2h1.32a3.92,3.92,0,0,1,4.23,4.11,4.42,4.42,0,0,1-4.59,4.36,4.85,4.85,0,0,1-3.66-1.53C249,65.42,249,65.29,249.22,65.08Z"/><path class="cls-3" d="M259,56.69a2.43,2.43,0,0,1,4.86,0,2.43,2.43,0,0,1-4.86,0Zm7.5-2.06a.41.41,0,0,1,.31-.18h1.37a.32.32,0,0,1,.3.49l-6.21,11.94a.52.52,0,0,1-.3.18h-1.33a.33.33,0,0,1-.31-.49ZM262,56.69a.62.62,0,1,0-.61.62A.63.63,0,0,0,262,56.69Zm5.42,5.68A2.44,2.44,0,1,1,265,64.81,2.44,2.44,0,0,1,267.44,62.37Zm0,3.05a.62.62,0,1,0,0-1.24.62.62,0,0,0,0,1.24Z"/><path class="cls-3" d="M239.28,77.63a.13.13,0,0,1-.21,0l-.17-.19a.13.13,0,0,1,0-.21l2.18-1.87a.38.38,0,0,1,.26-.08h.08c.11,0,.21.06.21.17v9.45a.19.19,0,0,1-.18.19h-.3a.2.2,0,0,1-.18-.19V76.23h0Z"/><path class="cls-3" d="M243.73,80.14c0-3.17,1.29-5,3.54-5s3.53,1.86,3.53,5-1.28,5.07-3.53,5.07S243.73,83.29,243.73,80.14Zm6.39,0c0-2.82-1-4.43-2.85-4.43s-2.85,1.61-2.85,4.43,1,4.47,2.85,4.47S250.12,83,250.12,80.14Z"/><path class="cls-3" d="M251.79,75.85c-.15,0-.18-.08-.18-.21v-.21a.17.17,0,0,1,.18-.18h6c.14,0,.21.08.21.17a.27.27,0,0,1,0,.15l-4.2,9.26c-.09.18-.11.23-.28.23h-.34c-.15,0-.15-.14-.1-.23l4.09-9v0Z"/><path class="cls-3" d="M258.09,86.81c-.07-.06-.12-.13,0-.21a1.9,1.9,0,0,0,.56-1.29,1,1,0,0,0,0-.31.48.48,0,0,1-.38.15.5.5,0,0,1-.5-.53.56.56,0,0,1,.59-.56c.54,0,.82.56.82,1.16a2.77,2.77,0,0,1-.65,1.67c-.05.06-.13.11-.21,0Z"/><path class="cls-3" d="M260.77,83.67l.21-.18a.15.15,0,0,1,.24,0,3,3,0,0,0,2.38,1.09,2.7,2.7,0,0,0,2.72-2.73c0-1.45-.91-2.4-2.72-2.4h-2.4a.29.29,0,0,1-.28-.29V75.43a.19.19,0,0,1,.2-.18h4.52a.2.2,0,0,1,.2.18v.23a.2.2,0,0,1-.2.19h-4.1v3h2.06c2.21,0,3.37,1.09,3.37,3a3.3,3.3,0,0,1-3.39,3.32,3.49,3.49,0,0,1-2.8-1.21C260.67,83.84,260.64,83.77,260.77,83.67Z"/><path class="cls-3" d="M268,75.85c-.15,0-.18-.08-.18-.21v-.21a.17.17,0,0,1,.18-.18h6c.14,0,.21.08.21.17a.27.27,0,0,1,0,.15l-4.21,9.26c-.08.18-.11.23-.28.23h-.33c-.16,0-.16-.14-.1-.23l4.09-9v0Z"/><path class="cls-3" d="M279.24,75a.16.16,0,0,1,.21.1l.1.22c0,.11,0,.21-.16.27-.84.29-3.66,1.66-4.12,4.3A3.72,3.72,0,0,1,278,78.73a3.07,3.07,0,0,1,3.12,3.15,3.29,3.29,0,0,1-3.21,3.32c-2.25,0-3.37-1.81-3.37-4.11C274.52,77.17,278,75.49,279.24,75Zm-1.35,9.62a2.66,2.66,0,0,0,2.58-2.72,2.54,2.54,0,0,0-2.55-2.59,3.56,3.56,0,0,0-2.76,1.45c0,.14,0,.28,0,.43C275.13,83,276,84.62,277.89,84.62Z"/><path class="cls-3" d="M239.61,178.7a.36.36,0,0,1-.36-.36v-1.61a.83.83,0,0,1,.25-.66l6.23-7.44a.33.33,0,0,1,.27-.11h1.33a.36.36,0,0,1,.36.36v7.51h1.48a.33.33,0,0,1,.36.34v1.61a.36.36,0,0,1-.36.36h-1.48V181a.36.36,0,0,1-.34.36h-2a.36.36,0,0,1-.34-.36V178.7Zm5.45-2.24V173h0l-2.88,3.48v0Z"/><path class="cls-3" d="M251.06,179.33l1.13-1.19a.38.38,0,0,1,.49,0,3.19,3.19,0,0,0,2.21.88,1.73,1.73,0,0,0,1.77-1.76,1.7,1.7,0,0,0-1.93-1.79h-2.85a.62.62,0,0,1-.57-.66V169a.34.34,0,0,1,.34-.34h6a.35.35,0,0,1,.36.34v1.64a.35.35,0,0,1-.36.34h-3.82v2h1.32a3.92,3.92,0,0,1,4.23,4.11,4.42,4.42,0,0,1-4.59,4.36,4.85,4.85,0,0,1-3.66-1.53C250.86,179.67,250.84,179.54,251.06,179.33Z"/><path class="cls-3" d="M260.81,170.94a2.43,2.43,0,1,1,2.43,2.43A2.41,2.41,0,0,1,260.81,170.94Zm7.51-2.06a.39.39,0,0,1,.31-.18H270a.32.32,0,0,1,.3.49l-6.21,11.94a.55.55,0,0,1-.31.18h-1.33a.33.33,0,0,1-.31-.49Zm-4.46,2.06a.63.63,0,1,0-.62.62A.63.63,0,0,0,263.86,170.94Zm5.41,5.68a2.44,2.44,0,1,1-2.43,2.44A2.43,2.43,0,0,1,269.27,176.62Zm0,3a.62.62,0,1,0,0-1.24.62.62,0,0,0,0,1.24Z"/><path class="cls-3" d="M241.3,194.29v0a2.49,2.49,0,0,1-1.91-2.29,2.64,2.64,0,0,1,3-2.61c1.93,0,3,1.18,3,2.61a2.48,2.48,0,0,1-1.9,2.29v0a2.61,2.61,0,0,1,2.16,2.45c0,1.71-1.32,2.71-3.25,2.71s-3.21-1-3.21-2.71A2.64,2.64,0,0,1,241.3,194.29Zm1,4.61c1.45,0,2.59-.69,2.59-2.1,0-1.08-1-2-2.57-2.16-1.61.14-2.57,1-2.57,2.16C239.8,198.2,241,198.9,242.35,198.9Zm2.34-6.92a2.11,2.11,0,0,0-2.36-2.07,2.06,2.06,0,0,0-2.28,2.07c0,1.11.88,1.86,2.32,2C243.8,193.84,244.69,193.09,244.69,192Z"/><path class="cls-3" d="M251.77,189.25a.16.16,0,0,1,.21.1l.1.22c0,.11,0,.21-.16.27-.84.29-3.65,1.66-4.12,4.3a3.72,3.72,0,0,1,2.71-1.16,3.06,3.06,0,0,1,3.12,3.15,3.29,3.29,0,0,1-3.21,3.32c-2.25,0-3.37-1.81-3.37-4.11C247.05,191.42,250.49,189.74,251.77,189.25Zm-1.35,9.62a2.66,2.66,0,0,0,2.58-2.72,2.53,2.53,0,0,0-2.55-2.59,3.6,3.6,0,0,0-2.76,1.45c0,.14,0,.28,0,.43C247.67,197.2,248.58,198.87,250.42,198.87Z"/><path class="cls-3" d="M255.51,201.06c-.08-.06-.13-.13,0-.21a1.9,1.9,0,0,0,.56-1.29,1,1,0,0,0,0-.31.48.48,0,0,1-.38.15.5.5,0,0,1-.5-.53.56.56,0,0,1,.59-.56c.54,0,.82.56.82,1.16a2.72,2.72,0,0,1-.66,1.67.14.14,0,0,1-.21,0Z"/><path class="cls-3" d="M258,197.92l.23-.18c.1-.09.18-.06.26,0a2.86,2.86,0,0,0,2.46,1.09,2.26,2.26,0,0,0,2.55-2.16,2.34,2.34,0,0,0-2.6-2.11h-1.34c-.16,0-.2,0-.2-.18v-.27c0-.11.07-.17.21-.17h1.33a2.08,2.08,0,0,0,2.33-2,2,2,0,0,0-2.19-2,3,3,0,0,0-2.27,1.06.15.15,0,0,1-.23,0l-.23-.18a.16.16,0,0,1,0-.24,3.71,3.71,0,0,1,2.74-1.29,2.62,2.62,0,0,1,2.88,2.56,2.58,2.58,0,0,1-1.64,2.32v0a2.65,2.65,0,0,1,1.89,2.39c0,1.59-1.25,2.78-3.25,2.78a3.62,3.62,0,0,1-2.92-1.28C257.87,198.07,257.87,198,258,197.92Z"/><path class="cls-3" d="M271.3,198.72a.19.19,0,0,1,.2.18v.22a.2.2,0,0,1-.2.19h-5.65a.18.18,0,0,1-.19-.17V199a.31.31,0,0,1,.1-.24l3.72-3.74a4.28,4.28,0,0,0,1.6-2.84,2.2,2.2,0,0,0-2.42-2.2,2.87,2.87,0,0,0-2.19,1.16.2.2,0,0,1-.29,0l-.17-.14a.2.2,0,0,1,0-.27,3.33,3.33,0,0,1,2.68-1.43,2.82,2.82,0,0,1,3.11,2.82c0,1.27-.79,2.22-1.83,3.26l-3.27,3.26v0Z"/><path class="cls-3" d="M277.82,189.25a.15.15,0,0,1,.21.1l.1.22c0,.11,0,.21-.15.27-.84.29-3.66,1.66-4.12,4.3a3.69,3.69,0,0,1,2.7-1.16,3.07,3.07,0,0,1,3.13,3.15,3.3,3.3,0,0,1-3.21,3.32c-2.26,0-3.38-1.81-3.38-4.11C273.1,191.42,276.55,189.74,277.82,189.25Zm-1.34,9.62a2.66,2.66,0,0,0,2.57-2.72,2.53,2.53,0,0,0-2.54-2.59,3.56,3.56,0,0,0-2.76,1.45,3,3,0,0,0,0,.43C273.72,197.2,274.63,198.87,276.48,198.87Z"/></g></g></svg>