<svg xmlns="http://www.w3.org/2000/svg" viewBox="0 0 72.47 72.47"><defs><style>.cls-1{fill:#fff;}.cls-2{fill:#fdb71a;}</style></defs><g id="Layer_2" data-name="Layer 2"><g id="Layer_1-2" data-name="Layer 1"><path class="cls-1" d="M36.24,72.47A36.24,36.24,0,1,0,0,36.24,36.23,36.23,0,0,0,36.24,72.47"/><path class="cls-2" d="M52.64,35.6,33.72,54.52a2,2,0,0,1-1.36.55A1.91,1.91,0,0,1,31,54.52L17.94,41.47a1.94,1.94,0,0,1,0-2.73L36.86,19.82a.32.32,0,0,1,.26-.1h.13l11.43,3.81a.37.37,0,0,1,.23.24l.91,2.7a3.3,3.3,0,0,1-1.82.38,3.39,3.39,0,0,1-1.73-.67,1.17,1.17,0,0,0-1.61,0,1.15,1.15,0,0,0,0,1.6,4.77,4.77,0,0,0,3.45,1.33,7.47,7.47,0,0,0,2.47-.48l2.18,6.54a.35.35,0,0,1-.09.4ZM47.9,19.66c2.18-2.21,5.26-3,6.54-1.64s.57,4.36-1.63,6.55a11.71,11.71,0,0,1-.92.8l-.77-2.31a2.79,2.79,0,0,0-1.71-1.71l-2.31-.77A11.19,11.19,0,0,1,47.9,19.66Zm4.74,8a10.77,10.77,0,0,0,1.8-1.43c3.2-3.22,3.91-7.53,1.63-9.81s-6.59-1.54-9.8,1.63h0a12.35,12.35,0,0,0-1.44,1.8L38,17.55a2.71,2.71,0,0,0-2.76.64L16.31,37.11a4.24,4.24,0,0,0,0,6l13.06,13a4.2,4.2,0,0,0,6,0L54.27,37.24a2.68,2.68,0,0,0,.65-2.76Zm-11.3,7-14,4.83h0a.83.83,0,0,0-.3.18.92.92,0,0,0-.27.68,1,1,0,0,0,.31.76,1,1,0,0,0,.43.24.66.66,0,0,0,.48,0l14-4.83a.84.84,0,0,0,.31-.19.87.87,0,0,0,.26-.75,1.28,1.28,0,0,0-.34-.71.8.8,0,0,0-.88-.21m-9.16-1.43,1.87-1.87h0a.85.85,0,0,1,.65-.3,1.14,1.14,0,0,1,.94,1,.84.84,0,0,1-.29.65l-1.86,1.8a.86.86,0,0,1-.65.29,1.17,1.17,0,0,1-1-.94A.82.82,0,0,1,32.18,33.16ZM31.06,35.5a4.15,4.15,0,0,0,1.17.81,2.09,2.09,0,0,0,1.26.16,2.7,2.7,0,0,0,1.29-.79l1.87-1.85a2.52,2.52,0,0,0,.77-1.29,2.09,2.09,0,0,0-.16-1.26,3.67,3.67,0,0,0-.81-1.17,3.29,3.29,0,0,0-1.76-1,2.22,2.22,0,0,0-1.92.8l-1.85,1.86a2.21,2.21,0,0,0-.85,1.92A3.38,3.38,0,0,0,31.06,35.5Zm6.06,7.23-1.84,1.85a.9.9,0,0,1-.66.31,1,1,0,0,1-.64-.33.9.9,0,0,1-.3-.63.82.82,0,0,1,.29-.65l1.86-1.84a.83.83,0,0,1,.65-.31.94.94,0,0,1,.61.32,1.06,1.06,0,0,1,.34.62A.85.85,0,0,1,37.12,42.73Zm1.11-2.42a3.4,3.4,0,0,0-1.8-1,2.21,2.21,0,0,0-1.92.8L32.66,42h0a2.14,2.14,0,0,0-.8,2,3.34,3.34,0,0,0,1,1.79,4.16,4.16,0,0,0,1.17.83,2.05,2.05,0,0,0,1.27.14,2.46,2.46,0,0,0,1.29-.77l1.86-1.85a2.62,2.62,0,0,0,.77-1.31,2,2,0,0,0-.14-1.26,4.05,4.05,0,0,0-.83-1.19"/></g></g></svg>