<?xml version="1.0" encoding="utf-8"?>
<!-- Generator: Adobe Illustrator 25.4.1, SVG Export Plug-In . SVG Version: 6.00 Build 0)  -->
<svg version="1.1" id="Layer_1" xmlns="http://www.w3.org/2000/svg" xmlns:xlink="http://www.w3.org/1999/xlink" x="0px" y="0px"
	 viewBox="0 0 181.4 181.4" style="enable-background:new 0 0 181.4 181.4;" xml:space="preserve">
<style type="text/css">
	.st0{fill:#FFFFFF;}
	.st1{fill:none;stroke:#4B5B6D;stroke-width:0.51;}
	.st2{fill:#007DC3;}
</style>
<path class="st0" d="M90.7,0.3C40.7,0.3,0.3,40.7,0.3,90.7s40.5,90.4,90.4,90.4s90.4-40.5,90.4-90.4S140.6,0.3,90.7,0.3
	C90.7,0.3,90.7,0.3,90.7,0.3"/>
<circle class="st1" cx="90.7" cy="90.7" r="90.4"/>
<g>
	<g>
		<path class="st2" d="M34.8,74.5v-0.2c-2.2-1.2-4.2-3.1-4.2-6.3c0-4.6,4.1-7.6,9.1-7.6c5.2,0,9.4,2.9,9.4,7.6
			c0,3.1-2.2,5.2-4.2,6.3v0.2c2.4,1,5,3.4,5,6.9c0,4.9-4,7.8-10.2,7.8c-6,0-9.9-3-9.9-7.8C29.8,77.8,32.8,75.3,34.8,74.5z
			 M39.9,84.2c2,0,3.3-1.3,3.3-3.1c0-1.5-1.2-3-3.4-3.8c-2.1,0.7-3.3,2.2-3.3,3.8C36.5,83,37.7,84.2,39.9,84.2z M42.7,68.3
			c0-1.4-1.1-2.7-3-2.7c-1.7,0-2.9,1.3-2.9,2.7c0,1.5,1,2.6,2.9,3.4C41.7,71,42.7,69.7,42.7,68.3z"/>
		<path class="st2" d="M66.9,60.1c0.6-0.2,1.1,0.1,1.3,0.6l1.2,3.2c0.2,0.5,0,0.9-0.8,1.2c-1.9,0.6-7.3,2.7-8.3,6.6
			c1.1-0.5,2.8-0.8,3.9-0.8c3.9,0,8.2,2.8,8.2,8.9c0,5.2-4.3,9.4-9.4,9.4c-6.4,0-9.9-4.8-9.9-11.2C53.1,66,63.1,61.2,66.9,60.1z
			 M62.9,83.6c2.2,0,4-1.8,4-4c0-2.2-1.8-4-4-4c-2.2,0-4,1.8-4,4C58.9,81.8,60.7,83.6,62.9,83.6z"/>
		<path class="st2" d="M79.1,81.9c2.2,0,4.2,1.6,4.2,5.2c0,3.4-1.7,6.1-3.3,8.2c-0.3,0.3-0.7,0.3-1,0l-1.3-1.2
			c-0.3-0.3-0.2-0.7,0.1-1c1-1.2,2.1-2.8,2.1-4.2c0-0.1,0-0.2,0-0.4c-0.4,0.3-1,0.4-1.5,0.4c-2,0-3-1.6-3-3.5
			C75.3,83.4,76.9,81.9,79.1,81.9z"/>
		<path class="st2" d="M103.5,83.6c0.4,0,0.8,0.4,0.8,0.8v3.7c0,0.4-0.4,0.8-0.8,0.8H87c-0.4,0-0.8-0.4-0.8-0.8v-0.3
			c0-0.4,0-0.5,0.5-1.2c2.6-3.5,8.1-11,10.4-14.4c0.5-0.8,1-2,1-3.1c0-1.6-1.3-3-3.6-3c-1.7,0-2.9,1-4,2.1c-0.3,0.3-0.8,0.3-1.2,0
			l-2.5-2.6c-0.3-0.2-0.3-0.8,0-1.1c1.6-1.7,4.2-4,8.2-4c5.9,0,9.4,3.8,9.4,8.3c0,2.2-0.6,3.4-1.6,5.3c-1.3,2.3-4.6,6.7-6.6,9.4v0.1
			H103.5z"/>
		<path class="st2" d="M121.9,60.1c0.6-0.2,1.1,0.1,1.3,0.6l1.2,3.2c0.2,0.5,0,0.9-0.8,1.2c-1.9,0.6-7.3,2.7-8.3,6.6
			c1.1-0.5,2.8-0.8,3.9-0.8c3.9,0,8.2,2.8,8.2,8.9c0,5.2-4.3,9.4-9.4,9.4c-6.4,0-9.9-4.8-9.9-11.2C108.1,66,118.1,61.2,121.9,60.1z
			 M117.9,83.6c2.2,0,4-1.8,4-4c0-2.2-1.8-4-4-4c-2.2,0-4,1.8-4,4C113.9,81.8,115.7,83.6,117.9,83.6z"/>
		<path class="st2" d="M130.5,74.9c0-9,3.8-14.4,10.5-14.4c6.7,0,10.6,5.4,10.6,14.4c0,9-3.8,14.4-10.6,14.4
			C134.3,89.3,130.5,83.9,130.5,74.9z M145.3,74.9c0-5.4-1.8-8.6-4.3-8.6c-2.5,0-4.2,3.2-4.2,8.6c0,5.4,1.8,8.6,4.2,8.6
			C143.5,83.5,145.3,80.3,145.3,74.9z"/>
	</g>
	<g>
		<path class="st2" d="M69.2,103.1c-0.1-0.1-0.2-0.2-0.1-0.3l0.4-0.7c0.1-0.2,0.3-0.2,0.4-0.1c0.5,0.3,0.9,0.7,1.7,0.7
			c0.6,0,1-0.4,1-0.8c0-0.6-0.5-0.9-1.4-1.3c-1-0.4-2.1-1.1-2.1-2.4c0-1,0.7-2.1,2.5-2.1c1.1,0,2,0.6,2.2,0.7
			c0.1,0.1,0.1,0.3,0.1,0.4l-0.4,0.6c-0.1,0.1-0.3,0.2-0.4,0.1c-0.5-0.3-0.9-0.6-1.5-0.6c-0.6,0-1,0.4-1,0.8c0,0.5,0.4,0.9,1.3,1.2
			c1.1,0.4,2.3,1.1,2.3,2.5c0,1.1-1,2.2-2.5,2.2C70.2,104,69.5,103.4,69.2,103.1z"/>
		<path class="st2" d="M75.1,99c0-0.1,0.1-0.2,0.2-0.2h0.9c0.1,0,0.2,0.1,0.2,0.2v2.7c0,0.7,0.2,1,0.9,1c0.6,0,0.8-0.5,0.9-0.9V99
			c0-0.2,0.1-0.2,0.3-0.2h0.9c0.1,0,0.2,0.1,0.2,0.2v4.7c0,0.1-0.1,0.2-0.3,0.2c-0.5,0-0.7-0.3-0.8-0.6c-0.3,0.3-0.8,0.7-1.5,0.7
			c-1.6,0-1.9-1-1.9-2.3V99z"/>
		<path class="st2" d="M83.6,104c-0.5,0-1-0.1-1.2-0.2v2.5c0,0.1-0.1,0.2-0.2,0.2h-0.9c-0.1,0-0.2-0.1-0.2-0.2V99
			c0-0.1,0.1-0.2,0.3-0.2c0.5,0,0.7,0.3,0.8,0.6c0.3-0.3,0.8-0.7,1.6-0.7c1.4,0,2.4,1.1,2.4,2.7C86.1,102.8,85.1,104,83.6,104z
			 M82.4,102.5c0,0,0.4,0.3,1.1,0.3c0.8,0,1.3-0.7,1.3-1.4s-0.4-1.4-1.2-1.4c-0.7,0-1,0.4-1.1,0.7V102.5z"/>
		<path class="st2" d="M89.8,104c-0.5,0-1-0.1-1.2-0.2v2.5c0,0.1-0.1,0.2-0.2,0.2h-0.9c-0.1,0-0.2-0.1-0.2-0.2V99
			c0-0.1,0.1-0.2,0.3-0.2c0.5,0,0.7,0.3,0.8,0.6c0.3-0.3,0.8-0.7,1.6-0.7c1.4,0,2.4,1.1,2.4,2.7C92.4,102.8,91.4,104,89.8,104z
			 M88.6,102.5c0,0,0.4,0.3,1.1,0.3c0.8,0,1.3-0.7,1.3-1.4s-0.4-1.4-1.2-1.4c-0.7,0-1,0.4-1.1,0.7V102.5z"/>
		<path class="st2" d="M93.5,96.4c0-0.1,0.1-0.2,0.2-0.2h0.9c0.1,0,0.2,0.1,0.2,0.2v7.2c0,0.1-0.1,0.2-0.2,0.2h-0.9
			c-0.1,0-0.2-0.1-0.2-0.2V96.4z"/>
		<path class="st2" d="M96.1,97.1c0-0.5,0.4-0.9,0.9-0.9s0.9,0.4,0.9,0.9s-0.4,0.9-0.9,0.9S96.1,97.5,96.1,97.1z M96.3,99
			c0-0.1,0.1-0.2,0.2-0.2h0.9c0.1,0,0.2,0.1,0.2,0.2v4.6c0,0.1-0.1,0.2-0.2,0.2h-0.9c-0.1,0-0.2-0.1-0.2-0.2V99z"/>
		<path class="st2" d="M101.3,98.7c1.3,0,2.3,1,2.3,2.4c0,0.1,0,0.3,0,0.3c0,0.1-0.1,0.2-0.2,0.2h-3.3c0,0.6,0.5,1.2,1.3,1.2
			c0.5,0,0.9-0.2,1.1-0.4c0.1-0.1,0.3-0.1,0.3,0l0.4,0.6c0.1,0.1,0.1,0.2,0,0.3c-0.4,0.4-1.1,0.7-1.9,0.7c-1.5,0-2.6-1.2-2.6-2.7
			C98.7,99.9,99.8,98.7,101.3,98.7z M102.3,100.7c0-0.5-0.4-0.9-1-0.9c-0.6,0-1,0.4-1.1,0.9H102.3z"/>
		<path class="st2" d="M104.7,99c0-0.1,0.1-0.2,0.3-0.2c0.5,0,0.7,0.3,0.8,0.7c0.2-0.3,0.6-0.8,1.4-0.8c0.6,0,1.1,0.2,1,0.5
			l-0.3,0.7c-0.1,0.1-0.2,0.2-0.3,0.1c-0.1-0.1-0.2-0.1-0.5-0.1c-0.5,0-0.9,0.4-1,0.5v3.2c0,0.2-0.1,0.2-0.3,0.2h-0.8
			c-0.1,0-0.2-0.1-0.2-0.2V99z"/>
		<path class="st2" d="M108.8,103.5c-0.1,0-0.1-0.2-0.1-0.3l0.3-0.7c0.1-0.1,0.2-0.2,0.3-0.1c0.2,0.1,0.6,0.3,1.1,0.3
			c0.4,0,0.6-0.1,0.6-0.4c0-0.2-0.3-0.4-1-0.7c-1-0.4-1.4-0.8-1.4-1.6c0-0.8,0.6-1.5,1.8-1.5c0.7,0,1.2,0.2,1.5,0.4
			c0.1,0.1,0.2,0.2,0.1,0.4l-0.3,0.6c-0.1,0.1-0.2,0.1-0.3,0.1c-0.2-0.1-0.6-0.3-1-0.3c-0.3,0-0.5,0.2-0.5,0.3
			c0,0.2,0.3,0.4,0.7,0.6c1,0.4,1.7,0.7,1.7,1.8c0,0.8-0.7,1.5-2,1.5C109.6,104,109.1,103.7,108.8,103.5z"/>
	</g>
	<g>
		<path class="st2" d="M61.5,112c0-0.2,0.2-0.4,0.4-0.4c0.2,0,0.4,0.2,0.4,0.4c0,0.2-0.2,0.4-0.4,0.4
			C61.7,112.4,61.5,112.2,61.5,112z M61.7,114c0-0.1,0.1-0.2,0.2-0.2H62c0.1,0,0.2,0.1,0.2,0.2v4.8c0,0.1-0.1,0.2-0.2,0.2h-0.2
			c-0.1,0-0.1-0.1-0.1-0.2V114z"/>
		<path class="st2" d="M64,113.9c0-0.1,0-0.2,0.1-0.2c0.2,0,0.3,0.2,0.3,0.6v0.1c0.2-0.2,0.8-0.8,1.8-0.8c1.4,0,1.9,0.9,1.9,2.2v2.8
			c0,0.1-0.1,0.2-0.2,0.2h-0.2c-0.1,0-0.2-0.1-0.2-0.2v-2.8c0-1.2-0.5-1.8-1.5-1.8c-1,0-1.7,0.8-1.7,0.9v3.7c0,0.1-0.1,0.2-0.2,0.2
			h-0.2c-0.1,0-0.1-0.1-0.1-0.2V113.9z"/>
		<path class="st2" d="M72.2,114.3c-0.1,0-0.2-0.1-0.2-0.2v-0.2c0-0.1,0.1-0.1,0.2-0.1h0.6v-1.4c0-0.1,0.1-0.2,0.2-0.2l0.1,0
			c0.1,0,0.2,0.1,0.2,0.2v1.4h1.8c0.1,0,0.2,0.1,0.2,0.2v0.1c0,0.1-0.1,0.2-0.2,0.2h-1.8v3.2c0,0.7,0.2,1,0.9,1c0.4,0,0.8-0.2,1-0.4
			c0.1-0.1,0.2,0,0.2,0l0.1,0.2c0,0.1,0,0.1,0,0.2c-0.2,0.2-0.7,0.4-1.2,0.4c-1,0-1.3-0.7-1.3-1.5v-3.2H72.2z"/>
		<path class="st2" d="M76.6,111.4c0-0.1,0.1-0.2,0.2-0.2h0.1c0.1,0,0.2,0.1,0.2,0.2v3.1c0.2-0.2,0.8-0.8,1.7-0.8
			c1.3,0,1.9,0.8,1.9,2.2v2.8c0,0.1-0.1,0.2-0.2,0.2h-0.2c-0.1,0-0.2-0.1-0.2-0.2v-2.8c0-1.2-0.5-1.8-1.4-1.8c-1,0-1.6,0.8-1.7,0.9
			v3.6c0,0.1-0.1,0.2-0.2,0.2h-0.2c-0.1,0-0.1-0.1-0.1-0.2V111.4z"/>
		<path class="st2" d="M84.6,113.7c1.3,0,2.3,1,2.3,2.3c0,0.2,0,0.5-0.2,0.5h-4.1c0,1.1,0.9,2,2,2c0.7,0,1.3-0.3,1.6-0.5
			c0.1-0.1,0.2-0.1,0.2,0l0.1,0.2c0,0,0,0.1-0.1,0.2c-0.3,0.2-1,0.6-1.8,0.6c-1.5,0-2.5-1.2-2.5-2.7
			C82.2,114.9,83.1,113.7,84.6,113.7z M86.4,116c0-1-0.6-1.9-1.8-1.9c-1.1,0-1.9,0.8-2,1.9H86.4z"/>
		<path class="st2" d="M91,113.9c0-0.1,0-0.2,0.1-0.2c0.2,0,0.3,0.2,0.3,0.6v0.1c0.2-0.2,0.7-0.7,1.6-0.7c0.4,0,0.7,0.1,0.8,0.1
			c0.1,0,0.2,0.1,0.1,0.2l-0.1,0.2c0,0.1-0.1,0.1-0.2,0.1c-0.1,0-0.3-0.2-0.7-0.2c-1,0-1.5,0.8-1.5,0.9v3.7c0,0.1-0.1,0.2-0.2,0.2
			h-0.2c-0.1,0-0.1-0.1-0.1-0.2V113.9z"/>
		<path class="st2" d="M97.2,113.7c1.3,0,2.3,1,2.3,2.3c0,0.2,0,0.5-0.2,0.5h-4.1c0,1.1,0.9,2,2,2c0.7,0,1.3-0.3,1.6-0.5
			c0.1-0.1,0.2-0.1,0.2,0l0.1,0.2c0,0,0,0.1-0.1,0.2c-0.3,0.2-1,0.6-1.8,0.6c-1.5,0-2.5-1.2-2.5-2.7
			C94.7,114.9,95.7,113.7,97.2,113.7z M99,116c0-1-0.6-1.9-1.8-1.9c-1.1,0-1.9,0.8-2,1.9H99z"/>
		<path class="st2" d="M102.9,121.3c-0.8,0-1.5-0.5-1.7-0.7c-0.1-0.1-0.1-0.1,0-0.2l0.1-0.1c0.1-0.1,0.1-0.1,0.2,0
			c0.2,0.2,0.8,0.5,1.4,0.5c1,0,1.8-0.6,1.8-1.8v-0.5c-0.1,0.1-0.7,0.5-1.5,0.5c-1.5,0-2.5-1.2-2.5-2.7c0-1.5,1-2.6,2.4-2.6
			c0.9,0,1.5,0.4,1.7,0.6c0-0.3,0.2-0.5,0.3-0.5c0.1,0,0.1,0.1,0.1,0.2v5.1C105.1,120.5,104.1,121.3,102.9,121.3z M104.6,114.8
			c-0.1-0.1-0.7-0.7-1.6-0.7c-1.2,0-1.9,1-1.9,2.2c0,1.2,0.8,2.2,2.1,2.2c0.9,0,1.5-0.6,1.5-0.6V114.8z"/>
		<path class="st2" d="M106.8,112c0-0.2,0.2-0.4,0.4-0.4c0.2,0,0.4,0.2,0.4,0.4c0,0.2-0.2,0.4-0.4,0.4
			C107,112.4,106.8,112.2,106.8,112z M107,114c0-0.1,0.1-0.2,0.2-0.2h0.2c0.1,0,0.2,0.1,0.2,0.2v4.8c0,0.1-0.1,0.2-0.2,0.2h-0.2
			c-0.1,0-0.1-0.1-0.1-0.2V114z"/>
		<path class="st2" d="M111.5,113.7c1.4,0,2.6,1.2,2.6,2.6c0,1.5-1.1,2.7-2.6,2.7c-1.5,0-2.6-1.2-2.6-2.7
			C108.9,114.9,110,113.7,111.5,113.7z M111.5,118.5c1.1,0,2-1,2-2.2c0-1.2-0.9-2.2-2-2.2c-1.2,0-2.1,1-2.1,2.2
			C109.4,117.6,110.3,118.5,111.5,118.5z"/>
		<path class="st2" d="M115.5,113.9c0-0.1,0-0.2,0.1-0.2c0.2,0,0.3,0.2,0.3,0.6v0.1c0.2-0.2,0.8-0.8,1.8-0.8c1.4,0,1.9,0.9,1.9,2.2
			v2.8c0,0.1-0.1,0.2-0.2,0.2h-0.2c-0.1,0-0.2-0.1-0.2-0.2v-2.8c0-1.2-0.5-1.8-1.5-1.8c-1,0-1.7,0.8-1.7,0.9v3.7
			c0,0.1-0.1,0.2-0.2,0.2h-0.2c-0.1,0-0.1-0.1-0.1-0.2V113.9z"/>
	</g>
</g>
</svg>
