<?xml version="1.0" encoding="utf-8"?>
<!-- Generator: Adobe Illustrator 25.4.1, SVG Export Plug-In . SVG Version: 6.00 Build 0)  -->
<svg version="1.1" id="Layer_1" xmlns="http://www.w3.org/2000/svg" xmlns:xlink="http://www.w3.org/1999/xlink" x="0px" y="0px"
	 viewBox="0 0 443.5 101" style="enable-background:new 0 0 443.5 101;" xml:space="preserve">
<style type="text/css">
	.st0{fill:#FFFFFF;}
</style>
<g>
	<path class="st0" d="M59.9,100.7h-1.4c-1.1,0-2-0.5-2.5-1.6L13.1,5.6c-0.4-0.9-0.4-1.9,0.1-2.6c0.5-0.8,1.4-1.2,2.4-1.2h14.2
		c1.3,0,2.2,0.8,2.5,1.6L59.1,63h0.5L86.3,3.4c0.3-0.8,1.2-1.6,2.5-1.6H103c1,0,1.9,0.4,2.4,1.2c0.5,0.8,0.5,1.7,0.1,2.6L62.4,99
		C61.9,100.1,61,100.7,59.9,100.7z M15.6,2c-0.9,0-1.7,0.4-2.1,1.1C13,3.8,13,4.6,13.4,5.4v0l42.9,93.5c0.5,1,1.2,1.4,2.2,1.4h1.4
		c1,0,1.7-0.5,2.2-1.4l43.1-93.5c0.4-0.8,0.3-1.7-0.1-2.3C104.7,2.4,103.9,2,103,2H88.8c-1.1,0-1.9,0.7-2.2,1.4L59.7,63.3h-0.9
		l0-0.1L32,3.5C31.7,2.8,30.9,2,29.8,2H15.6z"/>
	<path class="st0" d="M187.1,99.3H175c-2.3,0-3.3-1.1-4.2-2.9L164,81.5h-41.3l-6.8,14.9c-0.3,0.9-1.4,2.9-4.2,2.9H99.7
		c-1,0-1.9-0.4-2.4-1.2c-0.5-0.8-0.5-1.7-0.1-2.6L140.4,2c0.5-1.1,1.4-1.6,2.5-1.6h1.4c1.5,0,2.1,0.8,2.5,1.6l42.8,93.5
		c0.4,0.9,0.4,1.9-0.1,2.6C189,98.8,188.1,99.3,187.1,99.3z M122.5,81.2h41.7l0,0.1l6.8,15c1,2,2,2.7,3.9,2.7h12.1
		c0.9,0,1.7-0.4,2.2-1.1c0.4-0.7,0.5-1.5,0.1-2.3L146.5,2.1c-0.4-0.9-1-1.4-2.2-1.4h-1.4c-1,0-1.7,0.5-2.2,1.4L97.5,95.6
		c-0.4,0.8-0.3,1.7,0.1,2.3c0.4,0.7,1.2,1.1,2.2,1.1h12.1c2.5,0,3.6-1.9,3.9-2.7L122.5,81.2z M157.6,66.1h-28.4l0.1-0.2l13.7-30.6
		h0.6l0,0.1L157.6,66.1z M129.7,65.8h27.5l-13.8-30.3h-0.2L129.7,65.8z"/>
	<path class="st0" d="M255.2,99.3h-50.8c-1.5,0-2.8-1.2-2.8-2.8V4.5c0-1.5,1.3-2.8,2.8-2.8h12.8c1.5,0,2.8,1.3,2.8,2.8v77.8h35.3
		c1.5,0,2.8,1.3,2.8,2.8v11.4C258,98,256.7,99.3,255.2,99.3z M204.3,2c-1.4,0-2.5,1.1-2.5,2.5v91.9c0,1.4,1.1,2.5,2.5,2.5h50.8
		c1.4,0,2.5-1.1,2.5-2.5V85.1c0-1.4-1.1-2.5-2.5-2.5h-35.6V4.5c0-1.3-1.2-2.5-2.5-2.5H204.3z"/>
	<path class="st0" d="M307.3,100.7c-10.6,0-20.4-3.8-27.6-10.7c-7.2-6.9-11.2-16.3-11.2-26.6V4.5c0-1.5,1.3-2.8,2.8-2.8h13.2
		c1.5,0,2.8,1.3,2.8,2.8v57.9c0,11.9,8,19.8,20,19.8c11.9,0,20.1-8.1,20.1-19.7V4.5c0-1.5,1.3-2.8,2.8-2.8h13.2
		c1.5,0,2.8,1.3,2.8,2.8v58.9c0,10.2-4,19.7-11.2,26.6C327.8,96.9,317.9,100.7,307.3,100.7z M271.3,2c-1.3,0-2.5,1.2-2.5,2.5v58.9
		c0,10.1,3.9,19.5,11.1,26.3c7.1,6.8,16.9,10.6,27.4,10.6c10.6,0,20.4-3.8,27.5-10.6c7.2-6.8,11.1-16.2,11.1-26.3V4.5
		c0-1.3-1.2-2.5-2.5-2.5h-13.2c-1.4,0-2.5,1.1-2.5,2.5v58.1c0,11.8-8.4,20-20.4,20c-12.1,0-20.3-8.1-20.3-20.1V4.5
		c0-1.4-1.1-2.5-2.5-2.5H271.3z"/>
	<path class="st0" d="M427.9,99.3h-56.5c-1.5,0-2.8-1.2-2.8-2.8V4.5c0-1.5,1.3-2.8,2.8-2.8h56.5c1.5,0,2.8,1.3,2.8,2.8v11.4
		c0,1.5-1.3,2.8-2.8,2.8h-41v22.5h34.2c1.5,0,2.8,1.3,2.8,2.8v11.5c0,1.5-1.3,2.8-2.8,2.8h-34.2v24h41c1.5,0,2.8,1.3,2.8,2.8v11.4
		C430.7,98,429.4,99.3,427.9,99.3z M371.4,2c-1.4,0-2.5,1.1-2.5,2.5v91.9c0,1.4,1.1,2.5,2.5,2.5h56.5c1.4,0,2.5-1.1,2.5-2.5V85.1
		c0-1.4-1.1-2.5-2.5-2.5h-41.3V58h34.5c1.4,0,2.5-1.1,2.5-2.5V44c0-1.3-1.2-2.5-2.5-2.5h-34.5V18.4h41.3c1.4,0,2.5-1.1,2.5-2.5V4.5
		c0-1.4-1.1-2.5-2.5-2.5H371.4z"/>
</g>
</svg>
