<?xml version="1.0" encoding="utf-8"?>
<!-- Generator: Adobe Illustrator 25.4.1, SVG Export Plug-In . SVG Version: 6.00 Build 0)  -->
<svg version="1.1" id="Layer_1" xmlns="http://www.w3.org/2000/svg" xmlns:xlink="http://www.w3.org/1999/xlink" x="0px" y="0px"
	 viewBox="0 0 859.2 100" style="enable-background:new 0 0 859.2 100;" xml:space="preserve">
<style type="text/css">
	.st0{fill:#FFFFFF;}
</style>
<g>
	<path class="st0" d="M211.5,18.1h-21.4c-1.5,0-2.6-1.3-2.6-2.7V4c0-1.4,1.1-2.7,2.6-2.7h61c1.5,0,2.7,1.3,2.7,2.7v11.4
		c0,1.4-1.1,2.7-2.7,2.7h-21.4v78.3c0,1.4-1.3,2.7-2.7,2.7h-13c-1.4,0-2.7-1.3-2.7-2.7V18.1z"/>
	<path class="st0" d="M251.6,95.5L295,1.5c0.4-0.8,1.1-1.5,2.4-1.5h1.4c1.4,0,2,0.7,2.4,1.5l43,93.9c0.8,1.8-0.3,3.6-2.4,3.6h-12.1
		c-2.1,0-3.1-0.8-4.1-2.8l-6.8-15.1H277l-6.8,15.1c-0.6,1.4-1.8,2.8-4,2.8h-12.1C251.8,99.1,250.7,97.3,251.6,95.5z M311.8,65.7
		l-14-30.7h-0.4l-13.7,30.7H311.8z"/>
	<path class="st0" d="M356.4,4c0-1.4,1.1-2.7,2.7-2.7h12.8c1.4,0,2.7,1.3,2.7,2.7v78.3h35.6c1.5,0,2.7,1.3,2.7,2.7v11.4
		c0,1.4-1.1,2.7-2.7,2.7h-51.1c-1.5,0-2.7-1.3-2.7-2.7V4z"/>
	<path class="st0" d="M427,4c0-1.4,1.1-2.7,2.6-2.7h56.8c1.5,0,2.7,1.3,2.7,2.7v11.4c0,1.4-1.1,2.7-2.7,2.7h-41.3V41h34.5
		c1.4,0,2.7,1.3,2.7,2.7v11.6c0,1.5-1.3,2.7-2.7,2.7h-34.5v24.4h41.3c1.5,0,2.7,1.3,2.7,2.7v11.4c0,1.4-1.1,2.7-2.7,2.7h-56.8
		c-1.5,0-2.6-1.3-2.6-2.7V4z"/>
	<path class="st0" d="M507.4,2.5c0-1.4,1.3-2.5,2.7-2.5h2.1c1,0,1.7,0.3,2.4,1l56.9,60.7h0.3V4c0-1.4,1.1-2.7,2.7-2.7h12.8
		c1.4,0,2.6,1.3,2.6,2.7V98c0,1.4-1.3,2.5-2.6,2.5h-2c-1,0-1.7-0.3-2.4-1l-57.2-63.1h-0.3v60c0,1.4-1.1,2.7-2.6,2.7h-12.7
		c-1.4,0-2.7-1.3-2.7-2.7V2.5z"/>
	<path class="st0" d="M629.4,18.1h-21.4c-1.5,0-2.6-1.3-2.6-2.7V4c0-1.4,1.1-2.7,2.6-2.7h61c1.5,0,2.7,1.3,2.7,2.7v11.4
		c0,1.4-1.1,2.7-2.7,2.7h-21.4v78.3c0,1.4-1.3,2.7-2.7,2.7h-13c-1.4,0-2.7-1.3-2.7-2.7V18.1z"/>
</g>
</svg>
