<?xml version="1.0" encoding="utf-8"?>
<!-- Generator: Adobe Illustrator 25.4.1, SVG Export Plug-In . SVG Version: 6.00 Build 0)  -->
<svg version="1.1" id="Layer_1" xmlns="http://www.w3.org/2000/svg" xmlns:xlink="http://www.w3.org/1999/xlink" x="0px" y="0px"
	 viewBox="0 0 392.2 101" style="enable-background:new 0 0 392.2 101;" xml:space="preserve">
<style type="text/css">
	.st0{fill:#FFFFFF;}
</style>
<g id="Layer_2_00000006677816729342228990000003427352805903478205_">
	<g id="Layer_1-2">
		<path class="st0" d="M42.9,101H41c-1,0-1.9-0.5-2.2-1.4L20.4,58.9l-6,39c-0.2,1.1-1.2,2-2.4,2H2.5c-0.8,0-1.5-0.3-2-0.8
			C0,98.5-0.2,97.7,0,96.9l12.6-71.2c0.2-1.2,1.2-2.1,2.4-2h1.7c1,0,1.9,0.5,2.3,1.3l23,49.4l23-49.3c0.4-0.9,1.3-1.4,2.2-1.4h1.7
			c1.2-0.1,2.3,0.8,2.4,2l12.5,71.2c0.2,0.7,0,1.5-0.4,2.2c-0.5,0.6-1.2,0.9-2,0.8h-9.6c-1.2-0.1-2.2-0.9-2.5-2l-6.1-39L45.2,99.5
			C44.8,100.5,43.9,101.1,42.9,101z M19.7,57.2h1.1l18.9,41.9c0.2,0.5,0.8,0.9,1.4,0.9h1.9c0.6,0,1.1-0.3,1.3-0.8l18.7-42H64
			l0.1,0.4l6.2,40.1c0.2,0.6,0.8,1.1,1.5,1.2h9.6c0.5,0,0.9-0.1,1.2-0.5c0.3-0.4,0.4-0.9,0.2-1.3L70.4,25.9
			c-0.1-0.7-0.7-1.2-1.4-1.2c0,0,0,0,0,0h-1.7c-0.6-0.1-1.1,0.3-1.3,0.8L42.5,75.8h-1L18.1,25.5c-0.3-0.5-0.8-0.8-1.3-0.8H15
			c-0.7-0.1-1.3,0.4-1.4,1.1l0,0L1,97.1c-0.1,0.5,0,1,0.3,1.4c0.3,0.3,0.7,0.5,1.2,0.5h9.5c0.7,0,1.2-0.5,1.4-1.2L19.7,57.2z"/>
		<path class="st0" d="M140.6,99.9H97.5c-1.4,0-2.5-1.1-2.5-2.5c0,0,0,0,0,0V27.3c0-1.4,1.1-2.5,2.5-2.5h43.1c1.4,0,2.5,1.1,2.5,2.5
			V36c0,1.4-1.1,2.5-2.5,2.5l0,0h-30.8v16.4h25.6c1.4,0,2.5,1.1,2.6,2.5v8.8c0,1.4-1.1,2.5-2.5,2.5h-25.7v17.5h30.8
			c1.4,0,2.5,1.1,2.5,2.5v8.7C143.2,98.8,142,99.9,140.6,99.9z M97.5,25.8c-0.8,0-1.5,0.6-1.5,1.5c0,0,0,0,0,0v70.1
			c0,0.8,0.7,1.5,1.5,1.5h43.1c0.8,0,1.5-0.7,1.5-1.5v-8.7c0-0.8-0.7-1.5-1.5-1.5h-31.8V67.7h26.6c0.8,0,1.5-0.7,1.5-1.5
			c0,0,0,0,0,0v-8.8c0-0.8-0.7-1.5-1.5-1.5h-26.7V37.5h31.8c0.8,0,1.5-0.7,1.5-1.5v0v-8.7c0-0.8-0.7-1.5-1.5-1.5H97.5z"/>
		<path class="st0" d="M207.1,99.9h-11.4c-0.9,0-1.8-0.5-2.2-1.2l-14.9-23.9L164,98.8c-0.5,0.7-1.3,1.2-2.2,1.2h-11.5
			c-1,0.1-1.9-0.4-2.4-1.3c-0.4-0.8-0.4-1.7,0.1-2.5l21.9-34.8l-21-32.9c-0.5-0.7-0.5-1.7-0.1-2.5c0.5-0.8,1.4-1.3,2.3-1.3h12.3
			c0.9,0,1.6,0.5,2.1,1.2l13.2,22.1L192,26c0.4-0.7,1.3-1.2,2.1-1.2h12.3c1,0,1.8,0.4,2.3,1.2c0.4,0.8,0.4,1.7-0.1,2.5l-21.1,32.9
			l21.9,34.8c0.5,0.8,0.5,1.7,0.1,2.5C209,99.5,208.1,100,207.1,99.9z M178.1,73.7h1l15.3,24.5c0.3,0.5,0.8,0.7,1.4,0.7h11.4
			c0.6,0,1.1-0.2,1.5-0.7c0.2-0.5,0.2-1.1-0.1-1.5l-22.2-35.3L207.8,28c0.3-0.4,0.3-1,0.1-1.5c-0.3-0.5-0.9-0.8-1.5-0.7h-12.3
			c-0.5,0-1,0.3-1.2,0.7l-13.8,22.7h-1l-13.5-22.7c-0.3-0.4-0.7-0.7-1.3-0.7H151c-0.6,0-1.1,0.2-1.5,0.7c-0.2,0.5-0.2,1,0.1,1.5
			L171,61.4l-22.2,35.3c-0.3,0.4-0.3,1-0.1,1.4c0.3,0.5,1,0.8,1.6,0.8h11.4c0.6,0,1.1-0.3,1.4-0.8L178.1,73.7z"/>
		<path class="st0" d="M230.7,99.9h-9.9c-1.4,0-2.5-1.1-2.5-2.5V27.3c0-1.4,1.1-2.5,2.5-2.5h9.9c1.4,0,2.5,1.1,2.5,2.5v70.1
			C233.1,98.8,232,99.9,230.7,99.9z M220.8,25.8c-0.8,0-1.5,0.7-1.5,1.5v70.1c0,0.8,0.7,1.5,1.5,1.5h9.9c0.8,0,1.5-0.7,1.5-1.5V27.3
			c0-0.8-0.7-1.5-1.5-1.5L220.8,25.8z"/>
		<path class="st0" d="M282.8,101c-21.3,0.3-38.9-16.7-39.2-38c-0.3-21.3,16.7-38.9,38-39.2c0.4,0,0.8,0,1.2,0
			c10.3,0,18.3,3.1,26,10c0.5,0.5,0.9,1.1,0.9,1.8c0,0.7-0.3,1.4-0.8,1.9l-6.5,6.7c-0.4,0.5-1,0.8-1.6,0.8c-0.7,0-1.3-0.3-1.8-0.8
			c-4.4-3.9-10.1-6.1-16-6.1c-13,0-23.1,10.6-23.1,24.1s10.2,24,23.2,24c5.8-0.1,11.5-2.2,15.9-5.9c0.9-0.9,2.4-0.9,3.3,0L309,87
			c0.4,0.4,0.7,1,0.7,1.5c0,0.7-0.3,1.5-0.8,2C301.9,97.4,292.5,101.1,282.8,101z M282.8,24.8c-20.8-0.3-37.9,16.2-38.2,37
			s16.2,37.9,37,38.2c0.4,0,0.8,0,1.2,0c9.5,0.1,18.6-3.5,25.4-10.1c0.3-0.3,0.5-0.8,0.5-1.3c0-0.3-0.1-0.6-0.4-0.8l-6.6-6.8
			c-0.6-0.5-1.4-0.5-2,0c-4.6,3.9-10.5,6.1-16.5,6.2c-13.6,0-24.2-11-24.2-25S269.6,37,283.1,37c6.1,0.1,12,2.3,16.6,6.4
			c0.3,0.3,0.7,0.5,1.1,0.5c0.3,0,0.7-0.2,0.9-0.5l6.5-6.7c0.6-0.6,0.6-1.5,0.1-2.1c-0.1-0.1-0.1-0.1-0.2-0.2
			C301.3,28,292.2,24.5,282.8,24.8z"/>
		<path class="st0" d="M353.6,101c-21,0.2-38.3-16.6-38.5-37.7c0-0.3,0-0.5,0-0.8c0-21.3,17.2-38.6,38.5-38.6
			c21.3,0,38.6,17.2,38.6,38.5c0,0,0,0,0,0c0.2,21.1-16.7,38.3-37.8,38.5C354.2,101,353.9,101,353.6,101z M353.6,24.8
			c-20.8,0.1-37.6,17-37.5,37.7c0,20.7,16.8,37.6,37.6,37.5c20.7,0,37.5-16.8,37.5-37.5C391.2,41.7,374.4,24.8,353.6,24.8z
			 M353.6,87.2c-13.7,0-24.9-11.1-24.9-24.9s11.1-24.9,24.9-24.9s24.9,11.1,24.9,24.9c0,0,0,0.1,0,0.1
			C378.5,76.2,367.4,87.2,353.6,87.2C353.7,87.2,353.6,87.2,353.6,87.2z M353.6,38.5c-13.2,0-23.9,10.7-23.9,23.9
			c0,13.2,10.7,23.9,23.9,23.9c13.1,0,23.8-10.6,23.9-23.7C377.4,49.4,366.8,38.7,353.6,38.5z"/>
	</g>
</g>
</svg>
