<?xml version="1.0" encoding="utf-8"?>
<!-- Generator: Adobe Illustrator 25.4.1, SVG Export Plug-In . SVG Version: 6.00 Build 0)  -->
<svg version="1.1" id="Layer_1" xmlns="http://www.w3.org/2000/svg" xmlns:xlink="http://www.w3.org/1999/xlink" x="0px" y="0px"
	 viewBox="0 0 584.2 101" style="enable-background:new 0 0 584.2 101;" xml:space="preserve">
<style type="text/css">
	.st0{fill:#FFFFFF;}
</style>
<g id="Layer_2_00000149349140713156526670000011512486960355746198_">
	<g id="Layer_1-2">
		<path class="st0" d="M93.5,99.6H80.6c-1.7,0-3.1-1.4-3.1-3.1V19.1H56.7c-1.7,0-3.1-1.4-3.1-3.1V4.5c0-1.7,1.4-3.1,3.1-3.1h60.7
			c1.7,0,3.2,1.4,3.2,3.1c0,0,0,0,0,0v11.4c0,1.7-1.4,3.1-3.1,3.1H96.7v77.4C96.6,98.2,95.3,99.6,93.5,99.6z M56.7,2.4
			c-1.2,0-2.1,1-2.1,2.1l0,0v11.4c0,1.2,1,2.1,2.1,2.1h21.8v78.4c0,1.2,1,2.1,2.1,2.1h12.9c1.2,0,2.1-1,2.1-2.1V18.1h21.8
			c1.2,0,2.2-0.9,2.2-2.1c0,0,0,0,0,0V4.5c0-1.2-1-2.1-2.1-2.1H56.7z"/>
		<path class="st0" d="M211.3,99.6h-12.1c-2.4,0-3.5-1.2-4.5-3l-6.7-14.7h-40.9l-6.7,14.7c-0.7,1.9-2.5,3.1-4.5,3.1H124
			c-1.1,0-2.1-0.5-2.7-1.4c-0.6-0.9-0.6-2.1-0.1-3l0,0l43.2-93.4c0.5-1.1,1.6-1.8,2.8-1.8h1.4c1.2-0.1,2.4,0.7,2.8,1.8l42.8,93.5
			c0.5,0.9,0.5,2.1-0.1,3C213.5,99.2,212.4,99.7,211.3,99.6z M146.6,80.8h42.2l6.9,15.3c0.9,1.9,1.8,2.5,3.6,2.5h12.1
			c0.7,0,1.4-0.3,1.9-0.9c0.4-0.6,0.4-1.4,0-2L170.5,2.2c-0.3-0.8-1-1.3-1.9-1.2h-1.4c-0.8,0-1.6,0.5-1.9,1.3l-43.2,93.5
			c-0.3,0.6-0.3,1.4,0.1,2c0.4,0.6,1.1,0.9,1.8,0.9h12.1c1.6,0,3-1,3.6-2.5L146.6,80.8z M182.4,66.4h-29.5L167,34.9h1.1L182.4,66.4z
			 M154.5,65.4h26.4l-13.3-29.3L154.5,65.4z"/>
		<path class="st0" d="M277,99.6h-50.8c-1.7,0-3.1-1.4-3.1-3.1V4.5c0-1.7,1.4-3.1,3.1-3.1H239c1.7,0,3.1,1.4,3.1,3.1v77.4H277
			c1.7,0,3.1,1.4,3.1,3.1v11.4C280.2,98.2,278.8,99.6,277,99.6z M226.2,2.4c-1.2,0-2.1,1-2.1,2.1v91.9c0,1.2,1,2.1,2.1,2.1H277
			c1.2,0,2.1-1,2.1-2.1V85.1c0-1.2-1-2.1-2.1-2.1h-35.9V4.5c0-1.2-1-2.1-2.1-2.1H226.2z"/>
		<path class="st0" d="M350.5,99.6H294c-1.7,0-3.1-1.4-3.1-3.1V4.5c0-1.7,1.4-3.1,3.1-3.1h56.5c1.7,0,3.1,1.4,3.1,3.1v11.4
			c0,1.7-1.4,3.1-3.1,3.1h-40.6v21.8h33.8c1.7,0,3.1,1.4,3.1,3.2v11.5c0,1.7-1.4,3.1-3.1,3.1h-33.8v23.3h40.6c1.7,0,3.1,1.4,3.1,3.1
			v11.4C353.6,98.2,352.2,99.6,350.5,99.6z M294,2.4c-1.2,0-2.1,1-2.1,2.1v91.9c0,1.2,1,2.1,2.1,2.1h56.5c1.2,0,2.1-1,2.1-2.1V85.1
			c0-1.2-1-2.1-2.1-2.1l0,0h-41.6V57.6h34.8c1.2,0,2.1-1,2.1-2.1c0,0,0,0,0,0V44c0-1.2-1-2.1-2.1-2.1h-34.8V18.1h41.6
			c1.2,0,2.1-1,2.1-2.1V4.5c0-1.2-1-2.1-2.1-2.1l0,0H294z"/>
		<path class="st0" d="M448.4,101h-2c-1,0-2-0.4-2.7-1.1l-56.4-62.1v58.7c0,1.7-1.4,3.1-3.1,3.1h-12.6c-1.7,0-3.1-1.4-3.1-3.1V3
			c0.1-1.7,1.5-3,3.1-3h2.1c1,0,2,0.4,2.7,1.1l56.1,59.8V4.5c0-1.7,1.4-3.1,3.1-3.1h12.8c1.7,0,3.2,1.4,3.2,3.1V98
			C451.6,99.7,450.1,101,448.4,101z M386.4,36.3h1l0.1,0.2l57,62.8c0.5,0.6,1.2,0.9,2,0.8h2c1.1,0,2.1-0.9,2.1-2V4.5
			c0-1.2-1-2.1-2.1-2.1h-12.9c-1.2,0-2.1,1-2.1,2.1c0,0,0,0,0,0v57.9h-1l-0.1-0.2L375.7,1.8c-0.5-0.6-1.2-0.8-2-0.8h-2.1
			c-1.1,0-2.1,0.9-2.1,2v93.5c0,1.2,1,2.1,2.1,2.1h12.6c1.2,0,2.1-1,2.1-2.1c0,0,0,0,0,0L386.4,36.3z"/>
		<path class="st0" d="M503.6,99.6h-13c-1.7,0-3.1-1.4-3.1-3.1V19.1h-20.7c-1.7,0-3.1-1.4-3.1-3.1V4.5c0-1.7,1.4-3.1,3.1-3.1h60.7
			c1.7,0,3.2,1.4,3.2,3.1c0,0,0,0,0,0v11.4c0,1.7-1.4,3.1-3.1,3.1l0,0h-20.8v77.4C506.7,98.2,505.3,99.5,503.6,99.6z M466.8,2.4
			c-1.2,0-2.1,0.9-2.1,2.1c0,0,0,0,0,0v11.4c0,1.2,1,2.1,2.1,2.1l0,0h21.8v78.4c0,1.1,1,2.1,2.1,2.1h13c1.2,0,2.1-1,2.1-2.1V18.1
			h21.7c1.2,0,2.1-1,2.1-2.1V4.5c0-1.2-1-2.1-2.1-2.1l0,0H466.8z"/>
	</g>
</g>
</svg>
