<?xml version="1.0" encoding="utf-8"?>
<!-- Generator: Adobe Illustrator 25.4.1, SVG Export Plug-In . SVG Version: 6.00 Build 0)  -->
<svg version="1.1" id="Layer_1" xmlns="http://www.w3.org/2000/svg" xmlns:xlink="http://www.w3.org/1999/xlink" x="0px" y="0px"
	 viewBox="0 0 391.2 100" style="enable-background:new 0 0 391.2 100;" xml:space="preserve">
<style type="text/css">
	.st0{fill:#FFFFFF;}
</style>
<g id="Layer_2_00000180342708451261073310000008264156613364713875_">
	<g id="Layer_1-2">
		<path class="st0" d="M12.6,25.3c0.1-1,1-1.7,1.9-1.6h1.7c0.7,0,1.4,0.4,1.8,1.1l23.3,50h0.3l23.3-50c0.3-0.7,1-1.1,1.8-1.1h1.7
			c1-0.1,1.8,0.6,1.9,1.6l12.5,71.2c0.3,1-0.2,2-1.1,2.3c-0.2,0.1-0.5,0.1-0.8,0.1h-9.6c-0.9-0.1-1.7-0.7-2-1.6L63,57.2h-0.3
			L44.2,98.8c-0.3,0.7-1,1.2-1.8,1.2h-1.9c-0.8,0-1.5-0.4-1.8-1.2L19.9,57.2h-0.3l-6.1,40.1c-0.2,0.9-1,1.6-1.9,1.6H2
			c-1.1,0.1-2-0.7-2.1-1.8c0-0.2,0-0.4,0.1-0.6L12.6,25.3z"/>
		<path class="st0" d="M95,26.8c0-1.1,0.9-2,2-2h43.1c1.1,0,2,0.9,2,2v8.7c0,1.1-0.9,2-2,2h-31.3v17.4H135c1.1,0,2,0.9,2,2v8.8
			c0,1.1-0.9,2-2,2h-26.2v18.6h31.3c1.1,0,2,0.9,2,2v8.7c0,1.1-0.9,2-2,2H97c-1.1,0-2-0.9-2-2V26.8z"/>
		<path class="st0" d="M169.9,60.9l-21.2-33.1c-0.6-0.9-0.4-2.1,0.5-2.7c0.4-0.3,0.9-0.4,1.3-0.3h12.3c0.7,0,1.3,0.4,1.7,1
			l13.4,22.5h0.4l13.7-22.5c0.3-0.6,1-1,1.7-1h12.3c1-0.1,2,0.6,2.1,1.7c0.1,0.5-0.1,1-0.3,1.3l-21.3,33.1l22,35.1
			c0.6,0.8,0.5,2-0.4,2.6c-0.4,0.3-0.9,0.4-1.4,0.4h-11.4c-0.7,0-1.4-0.4-1.8-1l-15.1-24.2h-0.4L163,98c-0.4,0.6-1.1,1-1.8,1h-11.4
			c-1.9,0-2.8-1.6-1.9-3L169.9,60.9z"/>
		<path class="st0" d="M218.3,26.8c0-1.1,0.9-2,2-2h9.9c1.1,0,2,0.9,2,2v70.1c0,1.1-0.9,2-2,2h-9.9c-1.1,0-2-0.9-2-2V26.8z"/>
		<path class="st0" d="M282.3,23.8c10.7,0,18.4,3.4,25.6,9.8c0.9,0.7,1,2,0.3,2.8c-0.1,0.1-0.1,0.1-0.2,0.2l-6.5,6.7
			c-0.6,0.7-1.7,0.8-2.4,0.2c-0.1-0.1-0.2-0.2-0.2-0.2c-4.5-4-10.3-6.2-16.3-6.3C269,37,259,48.3,259,61.7s10.2,24.5,23.7,24.5
			c5.9,0,11.7-2.2,16.2-6c0.8-0.7,1.9-0.7,2.6,0l6.6,6.8c0.8,0.8,0.7,2.1-0.1,2.8c0,0,0,0,0,0c-6.9,6.7-16.2,10.4-25.8,10.2
			c-21.1,0.3-38.4-16.5-38.7-37.5C243.2,41.4,260,24.1,281,23.8C281.4,23.7,281.9,23.7,282.3,23.8z"/>
		<path class="st0" d="M353.1,23.8c21.1-0.1,38.2,17,38.2,38c0.1,21.1-17,38.2-38,38.2c-21.1,0.1-38.2-17-38.2-38
			c-0.1-21,16.8-38.1,37.8-38.2C353,23.8,353.1,23.8,353.1,23.8z M353.1,86.2c13.5,0.1,24.4-10.8,24.5-24.3s-10.8-24.4-24.3-24.5
			c-13.5-0.1-24.4,10.8-24.5,24.3c0,0.1,0,0.2,0,0.2C329,75.4,339.8,86.2,353.1,86.2z"/>
	</g>
</g>
</svg>
