<?xml version="1.0" encoding="utf-8"?>
<!-- Generator: Adobe Illustrator 26.0.3, SVG Export Plug-In . SVG Version: 6.00 Build 0)  -->
<svg version="1.1" id="Layer_1" xmlns="http://www.w3.org/2000/svg" xmlns:xlink="http://www.w3.org/1999/xlink" x="0px" y="0px"
	 viewBox="0 0 450 100" style="enable-background:new 0 0 450 100;" xml:space="preserve">
<style type="text/css">
	.st0{fill:#FFFFFF;}
</style>
<g>
	<path class="st0" d="M106.2,2.4c0.6,0,1.2,0.2,1.4,0.7c0.3,0.4,0.3,1,0,1.5L64.6,98c-0.3,0.7-0.8,1-1.5,1h-1.4
		c-0.7,0-1.1-0.3-1.5-0.9L17.4,4.6c-0.3-0.5-0.2-1.1,0-1.5c0.3-0.4,0.8-0.7,1.4-0.7H33c0.8,0,1.3,0.5,1.4,0.9L61.3,63l0.3,0.6h0.6
		h0.7h0.6l0.3-0.6L90.6,3.3c0.1-0.4,0.6-0.9,1.4-0.9H106.2 M106.2,1.4H92.1c-1.2,0-2.1,0.8-2.4,1.5L62.9,62.6h-0.7L35.4,2.9
		c-0.3-0.7-1.1-1.5-2.4-1.5H18.9c-2.1,0-3.2,1.8-2.4,3.6l42.9,93.5c0.4,0.8,1.1,1.5,2.4,1.5h1.4c1.2,0,1.9-0.7,2.4-1.5L108.6,5
		C109.4,3.2,108.3,1.4,106.2,1.4L106.2,1.4z"/>
	<path class="st0" d="M147.5,1c0.8,0,1.1,0.3,1.5,0.9l42.8,93.5c0.3,0.6,0.2,1.1,0,1.5c-0.3,0.4-0.8,0.7-1.4,0.7h-12.1
		c-1.6,0-2.3-0.5-3.1-2.2l-6.8-15l-0.3-0.6h-0.6h-41.5h-0.6l-0.3,0.6l-6.8,15c-0.3,0.8-1.1,2.1-3.1,2.1h-12.1
		c-0.6,0-1.2-0.2-1.4-0.7c-0.3-0.4-0.3-1,0-1.5L144.7,2c0.3-0.7,0.8-1,1.5-1H147.5 M131.1,66.4h1.5h27.9h1.6l-0.6-1.4l-13.9-30.6
		l-0.3-0.6h-0.6h-0.4h-0.6l-0.3,0.6L131.7,65L131.1,66.4 M147.5,0h-1.4c-1.2,0-1.9,0.7-2.4,1.5L100.6,95c-0.8,1.8,0.3,3.6,2.4,3.6
		H115c2.2,0,3.5-1.4,4-2.8l6.8-15h41.5l6.8,15c1,1.9,1.9,2.8,4,2.8h12.1c2.1,0,3.2-1.8,2.4-3.6L149.9,1.5C149.5,0.7,148.9,0,147.5,0
		L147.5,0z M132.7,65.4l13.6-30.6h0.4l13.9,30.6H132.7L132.7,65.4z"/>
	<path class="st0" d="M220.4,2.4c0.8,0,1.6,0.8,1.6,1.6v77.9v1h1h35.4c1,0,1.6,0.9,1.6,1.6V96c0,0.8-0.6,1.6-1.6,1.6h-50.8
		c-1,0-1.6-0.9-1.6-1.6V4c0-0.8,0.6-1.6,1.6-1.6H220.4 M220.4,1.4h-12.8c-1.5,0-2.6,1.2-2.6,2.6V96c0,1.4,1.1,2.6,2.6,2.6h50.8
		c1.5,0,2.6-1.2,2.6-2.6V84.6c0-1.4-1.1-2.6-2.6-2.6H223V4C223,2.6,221.7,1.4,220.4,1.4L220.4,1.4z"/>
	<path class="st0" d="M346.6,2.4c0.8,0,1.6,0.8,1.6,1.6v58.9c0,20.6-16.2,36.1-37.8,36.1c-10.3,0-19.8-3.7-26.8-10.3
		c-7-6.7-10.8-15.8-10.8-25.7V4c0-0.8,0.8-1.6,1.6-1.6h13.2c1,0,1.6,0.9,1.6,1.6v57.9c0,12.4,8.7,21,21.1,21
		c12.5,0,21.3-8.6,21.3-20.9V4c0-0.8,0.6-1.6,1.6-1.6H346.6 M346.6,1.4h-13.2c-1.5,0-2.6,1.2-2.6,2.6v58.1
		c0,11.7-8.2,19.9-20.3,19.9s-20.1-8.2-20.1-20V4c0-1.4-1.1-2.6-2.6-2.6h-13.2c-1.4,0-2.6,1.2-2.6,2.6v58.9
		c0,21.1,16.8,37.1,38.6,37.1c21.9,0,38.8-16,38.8-37.1V4C349.3,2.6,348,1.4,346.6,1.4L346.6,1.4z"/>
	<path class="st0" d="M431.1,2.4c1,0,1.6,0.9,1.6,1.6v11.4c0,0.8-0.6,1.6-1.6,1.6H390h-1v1v22.8v1h1h34.3c0.8,0,1.6,0.8,1.6,1.6V55
		c0,1-0.9,1.6-1.6,1.6H390h-1v1v24.3v1h1h41.1c1,0,1.6,0.9,1.6,1.6V96c0,0.8-0.6,1.6-1.6,1.6h-56.5c-1,0-1.6-0.9-1.6-1.6V4
		c0-0.8,0.6-1.6,1.6-1.6H431.1 M431.1,1.4h-56.5c-1.5,0-2.6,1.2-2.6,2.6V96c0,1.4,1.1,2.6,2.6,2.6h56.5c1.5,0,2.6-1.2,2.6-2.6V84.6
		c0-1.4-1.1-2.6-2.6-2.6H390V57.6h34.3c1.4,0,2.6-1.1,2.6-2.6V43.5c0-1.4-1.3-2.6-2.6-2.6H390V18.1h41.1c1.5,0,2.6-1.2,2.6-2.6V4
		C433.8,2.6,432.7,1.4,431.1,1.4L431.1,1.4z"/>
</g>
</svg>
