<?xml version="1.0" encoding="utf-8"?>
<!-- Generator: Adobe Illustrator 25.4.1, SVG Export Plug-In . SVG Version: 6.00 Build 0)  -->
<svg version="1.1" id="Layer_1" xmlns="http://www.w3.org/2000/svg" xmlns:xlink="http://www.w3.org/1999/xlink" x="0px" y="0px"
	 viewBox="0 0 697.8 80.3" style="enable-background:new 0 0 697.8 80.3;" xml:space="preserve">
<style type="text/css">
	.st0{fill:#FFFFFF;}
</style>
<g>
	<path class="st0" d="M28.5,22.9c8,0,13.8,2.6,19.3,7.4c0.7,0.6,0.7,1.6,0.1,2.2l-4.8,5c-0.6,0.6-1.4,0.6-2,0
		c-3.4-3-7.8-4.7-12.2-4.7c-10.2,0-17.8,8.5-17.8,18.6c0,10,7.6,18.4,17.8,18.4c4.7,0,8.8-1.8,12.1-4.5c0.6-0.6,1.5-0.5,2,0l4.9,5.1
		c0.6,0.6,0.5,1.6-0.1,2.2c-5.5,5.1-12.3,7.6-19.4,7.6c-15.9,0-28.8-12.6-28.8-28.5S12.6,22.9,28.5,22.9z"/>
	<path class="st0" d="M57.8,25.3c0-0.8,0.6-1.5,1.5-1.5h32.4c0.9,0,1.5,0.7,1.5,1.5v6.5c0,0.8-0.6,1.5-1.5,1.5H68.1v13h19.7
		c0.8,0,1.5,0.7,1.5,1.5v6.6c0,0.9-0.7,1.5-1.5,1.5H68.1v13.9h23.5c0.9,0,1.5,0.7,1.5,1.5v6.5c0,0.8-0.6,1.5-1.5,1.5H59.3
		c-0.9,0-1.5-0.7-1.5-1.5V25.3z"/>
	<path class="st0" d="M103.6,24.4c0-0.8,0.7-1.4,1.5-1.4h1.2c0.6,0,1,0.2,1.4,0.6l32.5,34.6h0.2V25.3c0-0.8,0.6-1.5,1.5-1.5h7.3
		c0.8,0,1.5,0.7,1.5,1.5v53.5c0,0.8-0.7,1.4-1.5,1.4h-1.1c-0.6,0-1-0.2-1.4-0.6l-32.6-35.9h-0.2V78c0,0.8-0.6,1.5-1.5,1.5h-7.2
		c-0.8,0-1.5-0.7-1.5-1.5V24.4z"/>
	<path class="st0" d="M173.1,33.3H161c-0.9,0-1.5-0.7-1.5-1.5v-6.5c0-0.8,0.6-1.5,1.5-1.5h34.8c0.9,0,1.5,0.7,1.5,1.5v6.5
		c0,0.8-0.6,1.5-1.5,1.5h-12.1v44.6c0,0.8-0.7,1.5-1.5,1.5h-7.4c-0.8,0-1.5-0.7-1.5-1.5L173.1,33.3L173.1,33.3z"/>
	<path class="st0" d="M206.1,25.3c0-0.8,0.6-1.5,1.5-1.5h22.7c9.6,0,17.4,7.6,17.4,17.1c0,7.3-4.8,13.3-11.8,16.1l10.9,20.2
		c0.6,1,0,2.3-1.4,2.3h-8.4c-0.7,0-1.1-0.4-1.3-0.7l-10.6-21h-8.8v20.2c0,0.8-0.7,1.5-1.5,1.5h-7.3c-0.9,0-1.5-0.7-1.5-1.5
		L206.1,25.3L206.1,25.3z M229.5,49.1c4.2,0,7.9-3.7,7.9-8.1c0-4.2-3.7-7.7-7.9-7.7h-12.9v15.8H229.5z"/>
	<path class="st0" d="M252,77.3l24.7-53.5c0.2-0.5,0.6-0.9,1.4-0.9h0.8c0.8,0,1.1,0.4,1.4,0.9l24.5,53.5c0.5,1-0.2,2.1-1.4,2.1h-6.9
		c-1.2,0-1.8-0.5-2.3-1.6l-3.9-8.6h-23.8l-3.9,8.6c-0.3,0.8-1,1.6-2.3,1.6h-6.9C252.2,79.4,251.5,78.4,252,77.3z M286.4,60.5
		l-8-17.5h-0.2l-7.8,17.5H286.4z"/>
	<path class="st0" d="M311.8,25.3c0-0.8,0.6-1.5,1.5-1.5h7.3c0.8,0,1.5,0.7,1.5,1.5v44.6h20.2c0.9,0,1.5,0.7,1.5,1.5v6.5
		c0,0.8-0.6,1.5-1.5,1.5h-29.1c-0.9,0-1.5-0.7-1.5-1.5V25.3z"/>
	<path class="st0" d="M345.4,77.3l24.7-53.5c0.2-0.5,0.6-0.9,1.4-0.9h0.8c0.8,0,1.1,0.4,1.4,0.9l24.5,53.5c0.5,1-0.2,2.1-1.4,2.1
		h-6.9c-1.2,0-1.8-0.5-2.3-1.6l-3.9-8.6h-23.8l-3.9,8.6c-0.3,0.8-1,1.6-2.3,1.6h-6.9C345.5,79.4,344.9,78.4,345.4,77.3z M379.7,60.5
		l-8-17.5h-0.2l-7.8,17.5H379.7z"/>
	<path class="st0" d="M411.5,24.2c0.1-0.6,0.6-1.2,1.4-1.2h1.3c0.6,0,1.1,0.3,1.4,0.8l17.5,37.5c0.2,0,0.2,0,0.2,0l17.5-37.5
		c0.2-0.5,0.6-0.8,1.4-0.8h1.3c0.9,0,1.4,0.6,1.4,1.2l9.4,53.4c0.2,1.1-0.4,1.8-1.4,1.8h-7.2c-0.7,0-1.4-0.6-1.5-1.2l-4.8-30.1
		c-0.1,0-0.2,0-0.2,0l-13.9,31.2c-0.2,0.5-0.6,0.9-1.4,0.9h-1.4c-0.7,0-1.1-0.4-1.4-0.9L417,48.1c0,0-0.2,0-0.2,0l-4.6,30.1
		c-0.1,0.6-0.7,1.2-1.4,1.2h-7.1c-1,0-1.7-0.7-1.5-1.8L411.5,24.2z"/>
	<path class="st0" d="M474.8,25.3c0-0.8,0.6-1.5,1.5-1.5h32.4c0.9,0,1.5,0.7,1.5,1.5v6.5c0,0.8-0.6,1.5-1.5,1.5h-23.5v13h19.7
		c0.8,0,1.5,0.7,1.5,1.5v6.6c0,0.9-0.7,1.5-1.5,1.5h-19.7v13.9h23.5c0.9,0,1.5,0.7,1.5,1.5v6.5c0,0.8-0.6,1.5-1.5,1.5h-32.4
		c-0.9,0-1.5-0.7-1.5-1.5V25.3z"/>
	<path class="st0" d="M520.6,25.3c0-0.8,0.6-1.5,1.5-1.5h22.7c9.6,0,17.4,7.6,17.4,17.1c0,7.3-4.8,13.3-11.8,16.1l10.9,20.2
		c0.6,1,0,2.3-1.4,2.3h-8.4c-0.7,0-1.1-0.4-1.3-0.7l-10.6-21h-8.8v20.2c0,0.8-0.7,1.5-1.5,1.5h-7.3c-0.9,0-1.5-0.7-1.5-1.5
		L520.6,25.3L520.6,25.3z M544,49.1c4.2,0,7.9-3.7,7.9-8.1c0-4.2-3.7-7.7-7.9-7.7h-12.9v15.8H544z"/>
	<path class="st0" d="M573.2,25.3c0-0.8,0.7-1.5,1.5-1.5h7.4c0.8,0,1.5,0.7,1.5,1.5v52.6c0,0.8-0.7,1.5-1.5,1.5h-7.4
		c-0.8,0-1.5-0.7-1.5-1.5V25.3z"/>
	<path class="st0" d="M622.6,22.9c8,0,13.8,2.6,19.3,7.4c0.7,0.6,0.7,1.6,0.1,2.2l-4.8,5c-0.6,0.6-1.4,0.6-2,0
		c-3.4-3-7.8-4.7-12.2-4.7c-10.2,0-17.8,8.5-17.8,18.6c0,10,7.6,18.4,17.8,18.4c4.7,0,8.8-1.8,12.1-4.5c0.6-0.6,1.5-0.5,2,0l4.9,5.1
		c0.6,0.6,0.5,1.6-0.1,2.2c-5.4,5.2-12.2,7.7-19.4,7.7c-15.9,0-28.7-12.6-28.7-28.5C593.8,35.8,606.6,22.9,622.6,22.9z"/>
	<path class="st0" d="M645.2,77.3L670,23.8c0.2-0.5,0.6-0.9,1.4-0.9h0.8c0.8,0,1.1,0.4,1.4,0.9l24.4,53.5c0.5,1-0.2,2.1-1.4,2.1
		h-6.9c-1.2,0-1.8-0.5-2.3-1.6l-3.9-8.6h-23.8l-3.9,8.6c-0.3,0.8-1,1.6-2.3,1.6h-6.9C645.4,79.4,644.7,78.4,645.2,77.3z M679.6,60.5
		l-8-17.5h-0.2l-7.8,17.5H679.6z"/>
</g>
</svg>
