<?xml version="1.0" encoding="utf-8"?>
<!-- Generator: Adobe Illustrator 26.0.3, SVG Export Plug-In . SVG Version: 6.00 Build 0)  -->
<svg version="1.1" id="Layer_1" xmlns="http://www.w3.org/2000/svg" xmlns:xlink="http://www.w3.org/1999/xlink" x="0px" y="0px"
	 viewBox="0 0 1037.8 100" style="enable-background:new 0 0 1037.8 100;" xml:space="preserve">
<style type="text/css">
	.st0{fill:#FFFFFF;}
</style>
<g>
	<path class="st0" d="M64.6,2.4c26.3,0,47.8,21.3,47.8,47.5c0,26.3-21.4,47.7-47.8,47.7H31.7c-0.8,0-1.5-0.8-1.5-1.6V4
		c0-0.9,0.7-1.6,1.5-1.6H64.6 M46.1,82.7h1h15.8c19,0,32.3-13.5,32.3-32.8c0-19.2-13.3-32.7-32.3-32.7H47.1h-1v1v63.5V82.7
		 M64.6,1.4H31.7c-1.4,0-2.5,1.2-2.5,2.6V96c0,1.4,1.1,2.6,2.5,2.6h32.9c26.8,0,48.8-21.8,48.8-48.7C113.3,23.2,91.4,1.4,64.6,1.4
		L64.6,1.4z M47.1,81.7V18.2h15.8C81,18.2,94.2,31,94.2,49.9c0,19-13.2,31.8-31.3,31.8H47.1L47.1,81.7z"/>
	<path class="st0" d="M190.5,2.4c1,0,1.6,0.9,1.6,1.6v11.4c0,0.8-0.6,1.6-1.6,1.6h-41.1h-1v1v22.8v1h1h34.3c0.8,0,1.6,0.8,1.6,1.6
		V55c0,1-0.9,1.6-1.6,1.6h-34.3h-1v1v24.3v1h1h41.1c1,0,1.6,0.9,1.6,1.6V96c0,0.8-0.6,1.6-1.6,1.6h-56.5c-1,0-1.6-0.9-1.6-1.6V4
		c0-0.8,0.6-1.6,1.6-1.6H190.5 M190.5,1.4h-56.5c-1.5,0-2.6,1.2-2.6,2.6V96c0,1.4,1.1,2.6,2.6,2.6h56.5c1.5,0,2.6-1.2,2.6-2.6V84.6
		c0-1.4-1.1-2.6-2.6-2.6h-41.1V57.6h34.3c1.4,0,2.6-1.1,2.6-2.6V43.5c0-1.4-1.3-2.6-2.6-2.6h-34.3V18.1h41.1c1.5,0,2.6-1.2,2.6-2.6
		V4C193.1,2.6,192,1.4,190.5,1.4L190.5,1.4z"/>
	<path class="st0" d="M289.4,2.4c0.6,0,1.2,0.2,1.4,0.7c0.3,0.4,0.3,1,0,1.5l-43,93.4c-0.3,0.7-0.8,1-1.5,1h-1.4
		c-0.7,0-1.1-0.3-1.5-0.9L200.6,4.6c-0.3-0.5-0.2-1.1,0-1.5c0.3-0.4,0.8-0.7,1.4-0.7h14.2c0.8,0,1.3,0.5,1.4,0.9L244.4,63l0.3,0.6
		h0.6h0.7h0.6L247,63l26.8-59.8c0.1-0.4,0.6-0.9,1.4-0.9H289.4 M289.4,1.4h-14.2c-1.2,0-2.1,0.8-2.4,1.5l-26.8,59.7h-0.7L218.6,2.9
		c-0.3-0.7-1.1-1.5-2.4-1.5H202c-2.1,0-3.2,1.8-2.4,3.6l42.9,93.5c0.4,0.8,1.1,1.5,2.4,1.5h1.4c1.2,0,1.9-0.7,2.4-1.5L291.8,5
		C292.6,3.2,291.5,1.4,289.4,1.4L289.4,1.4z"/>
	<path class="st0" d="M362.9,2.4c1,0,1.6,0.9,1.6,1.6v11.4c0,0.8-0.6,1.6-1.6,1.6h-41.1h-1v1v22.8v1h1h34.3c0.8,0,1.6,0.8,1.6,1.6
		V55c0,1-0.9,1.6-1.6,1.6h-34.3h-1v1v24.3v1h1h41.1c1,0,1.6,0.9,1.6,1.6V96c0,0.8-0.6,1.6-1.6,1.6h-56.5c-1,0-1.6-0.9-1.6-1.6V4
		c0-0.8,0.6-1.6,1.6-1.6H362.9 M362.9,1.4h-56.5c-1.5,0-2.6,1.2-2.6,2.6V96c0,1.4,1.1,2.6,2.6,2.6h56.5c1.5,0,2.6-1.2,2.6-2.6V84.6
		c0-1.4-1.1-2.6-2.6-2.6h-41.1V57.6h34.3c1.4,0,2.6-1.1,2.6-2.6V43.5c0-1.4-1.3-2.6-2.6-2.6h-34.3V18.1h41.1c1.5,0,2.6-1.2,2.6-2.6
		V4C365.6,2.6,364.4,1.4,362.9,1.4L362.9,1.4z"/>
	<path class="st0" d="M399.2,2.4c0.8,0,1.6,0.8,1.6,1.6v77.9v1h1h35.4c1,0,1.6,0.9,1.6,1.6V96c0,0.8-0.6,1.6-1.6,1.6h-50.8
		c-1,0-1.6-0.9-1.6-1.6V4c0-0.8,0.6-1.6,1.6-1.6H399.2 M399.2,1.4h-12.8c-1.5,0-2.6,1.2-2.6,2.6V96c0,1.4,1.1,2.6,2.6,2.6h50.8
		c1.5,0,2.6-1.2,2.6-2.6V84.6c0-1.4-1.1-2.6-2.6-2.6h-35.4V4C401.8,2.6,400.6,1.4,399.2,1.4L399.2,1.4z"/>
	<path class="st0" d="M495.6,1c13.2,0,25.5,5.1,34.7,14.4c9.2,9.3,14.3,21.6,14.3,34.8c0,13.2-5.1,25.5-14.3,34.6
		c-9.2,9.2-21.5,14.2-34.7,14.2c-13.2,0-25.5-5.1-34.6-14.2c-9.2-9.2-14.2-21.5-14.2-34.6c0-13.2,5.1-25.5,14.2-34.8
		C470.2,6.1,482.5,1,495.6,1 M495.6,82.9c18.2,0,32.9-14.7,32.9-32.8c0-8.7-3.4-17-9.7-23.3c-6.3-6.3-14.5-9.8-23.2-9.8
		c-8.7,0-16.9,3.5-23.2,9.8c-6.2,6.3-9.6,14.6-9.6,23.3C462.8,68.2,477.5,82.9,495.6,82.9 M495.6,0c-27.8,0-49.9,22.4-49.9,50.1
		c0,27.8,22.1,49.9,49.9,49.9c27.8,0,50-22.1,50-49.9C545.6,22.4,523.4,0,495.6,0L495.6,0z M495.6,81.9c-17.5,0-31.8-14.3-31.8-31.8
		s14.3-32.1,31.8-32.1c17.5,0,31.9,14.6,31.9,32.1S513.1,81.9,495.6,81.9L495.6,81.9z"/>
	<path class="st0" d="M598.9,2.4c16.6,0,30.1,13.3,30.1,29.7c0,16.7-13.4,30.2-30,30.2h-17.4h-1v1V96c0,0.8-0.8,1.6-1.6,1.6h-12.8
		c-1,0-1.6-0.9-1.6-1.6V4c0-0.8,0.6-1.6,1.6-1.6H598.9 M580.7,47.4h1h16.7c8.4,0,14.8-6.6,14.8-15.4c0-8.1-6.5-14.5-14.8-14.5h-16.7
		h-1v1v27.9V47.4 M598.9,1.4h-32.6c-1.5,0-2.6,1.2-2.6,2.6V96c0,1.4,1.1,2.6,2.6,2.6H579c1.4,0,2.6-1.2,2.6-2.6V63.3H599
		c16.9,0,31-14,31-31.2C630,15.3,616,1.4,598.9,1.4L598.9,1.4z M581.7,46.4V18.5h16.7c7.8,0,13.8,5.8,13.8,13.5
		c0,8.2-6,14.4-13.8,14.4H581.7L581.7,46.4z"/>
	<path class="st0" d="M727.8,1c1.2,0,1.5,0.8,1.5,1.2l0,0l0,0l16.4,93.4c0.1,0.4,0.1,1.1-0.2,1.5c-0.3,0.3-0.7,0.5-1.3,0.5h-12.6
		c-0.8,0-1.5-0.8-1.7-1.3l-8.2-52.6l-0.1-0.8h-0.9h-0.4h-0.6l-0.3,0.6l-24.3,54.6l0,0l0,0.1c-0.1,0.4-0.6,0.8-1.4,0.8h-2.5
		c-0.7,0-1.1-0.3-1.5-0.9l-24.6-54.6l-0.3-0.6h-0.6h-0.4h-0.9l-0.1,0.8l-8.1,52.7c-0.1,0.5-0.8,1.2-1.5,1.2h-12.5
		c-0.4,0-1-0.1-1.3-0.5c-0.3-0.4-0.4-0.9-0.3-1.5l16.5-93.3l0,0l0,0c0-0.4,0.3-1.2,1.5-1.2h2.2c0.7,0,1.2,0.3,1.5,0.8l30.6,65.6
		l0.3,0.6h0.6h0.4h0.6l0.3-0.6l30.5-65.5c0.2-0.4,0.5-0.8,1.5-0.8H727.8 M727.8,0h-2.2c-1.2,0-1.9,0.6-2.4,1.4l-30.6,65.6
		c-0.1,0-0.1,0-0.4,0L661.7,1.4c-0.4-0.8-1.3-1.4-2.4-1.4h-2.2c-1.5,0-2.4,1-2.5,2.1l-16.5,93.3c-0.3,1.9,0.8,3.2,2.6,3.2h12.5
		c1.2,0,2.4-1.1,2.5-2.1l8.1-52.6c0.1,0,0.4,0,0.4,0l24.6,54.6c0.4,0.8,1.1,1.5,2.4,1.5h2.5c1.2,0,2.1-0.7,2.4-1.5l24.3-54.6
		c0,0,0.3,0,0.4,0l8.2,52.6c0.3,1,1.4,2.1,2.6,2.1h12.6c1.8,0,2.9-1.2,2.5-3.2L730.3,2.1C730.2,1,729.3,0,727.8,0L727.8,0z"/>
	<path class="st0" d="M824.3,2.4c1,0,1.6,0.9,1.6,1.6v11.4c0,0.8-0.6,1.6-1.6,1.6h-41.1h-1v1v22.8v1h1h34.3c0.8,0,1.6,0.8,1.6,1.6
		V55c0,1-0.8,1.6-1.6,1.6h-34.3h-1v1v24.3v1h1h41.1c1,0,1.6,0.9,1.6,1.6V96c0,0.8-0.6,1.6-1.6,1.6h-56.5c-1,0-1.6-0.9-1.6-1.6V4
		c0-0.8,0.6-1.6,1.6-1.6H824.3 M824.3,1.4h-56.5c-1.5,0-2.6,1.2-2.6,2.6V96c0,1.4,1.1,2.6,2.6,2.6h56.5c1.5,0,2.6-1.2,2.6-2.6V84.6
		c0-1.4-1.1-2.6-2.6-2.6h-41.1V57.6h34.3c1.4,0,2.6-1.1,2.6-2.6V43.5c0-1.4-1.2-2.6-2.6-2.6h-34.3V18.1h41.1c1.5,0,2.6-1.2,2.6-2.6
		V4C826.9,2.6,825.8,1.4,824.3,1.4L824.3,1.4z"/>
	<path class="st0" d="M849.9,1c0.7,0,1.2,0.2,1.6,0.7l56.7,60.4l0.3,0.3h0.4h0.3h1v-1V4c0-0.8,0.6-1.6,1.6-1.6h12.8
		c0.8,0,1.6,0.8,1.6,1.6v93.5c0,0.8-0.8,1.5-1.6,1.5h-1.9c-0.7,0-1.2-0.2-1.6-0.6l-56.9-62.8l-0.3-0.3h-0.4h-0.3h-1v1V96
		c0,0.8-0.6,1.6-1.6,1.6h-12.6c-0.8,0-1.6-0.8-1.6-1.6V2.5c0-0.8,0.8-1.5,1.6-1.5H849.9 M849.9,0h-2.1c-1.4,0-2.6,1.1-2.6,2.5V96
		c0,1.4,1.2,2.6,2.6,2.6h12.6c1.5,0,2.6-1.2,2.6-2.6V36.2h0.3L920.3,99c0.7,0.7,1.4,1,2.4,1h1.9c1.4,0,2.6-1.1,2.6-2.5V4
		c0-1.4-1.2-2.6-2.6-2.6h-12.8c-1.5,0-2.6,1.2-2.6,2.6v57.4h-0.3L852.2,1C851.5,0.3,850.8,0,849.9,0L849.9,0z"/>
	<path class="st0" d="M1006,2.4c1,0,1.6,0.9,1.6,1.6v11.4c0,0.8-0.6,1.6-1.6,1.6h-21.2h-1v1V96c0,0.8-0.8,1.6-1.6,1.6h-12.9
		c-0.8,0-1.6-0.8-1.6-1.6V18.1v-1h-1h-21.2c-1,0-1.6-0.9-1.6-1.6V4c0-0.8,0.6-1.6,1.6-1.6H1006 M1006,1.4h-60.7
		c-1.5,0-2.6,1.2-2.6,2.6v11.4c0,1.4,1.1,2.6,2.6,2.6h21.2V96c0,1.4,1.2,2.6,2.6,2.6h12.9c1.4,0,2.6-1.2,2.6-2.6V18.1h21.2
		c1.5,0,2.6-1.2,2.6-2.6V4C1008.7,2.6,1007.6,1.4,1006,1.4L1006,1.4z"/>
</g>
</svg>
