<?xml version="1.0" encoding="utf-8"?>
<!-- Generator: Adobe Illustrator 25.4.1, SVG Export Plug-In . SVG Version: 6.00 Build 0)  -->
<svg version="1.1" id="Layer_1" xmlns="http://www.w3.org/2000/svg" xmlns:xlink="http://www.w3.org/1999/xlink" x="0px" y="0px"
	 viewBox="0 0 583.2 100" style="enable-background:new 0 0 583.2 100;" xml:space="preserve">
<style type="text/css">
	.st0{fill:#FFFFFF;}
</style>
<g id="Layer_2_00000148640641291374113980000005356435758652598199_">
	<g id="Layer_1-2">
		<path class="st0" d="M77.5,18.1H56.2c-1.5,0-2.6-1.2-2.6-2.6V4c0-1.4,1.2-2.6,2.6-2.6h60.7c1.5,0,2.7,1.2,2.7,2.6c0,0,0,0,0,0
			v11.4c0,1.5-1.2,2.6-2.6,2.6H95.7V96c0,1.4-1.2,2.6-2.6,2.6H80.1c-1.4,0-2.6-1.2-2.6-2.6V18.1z"/>
		<path class="st0" d="M121.1,95l43.2-93.5c0.4-0.9,1.3-1.6,2.4-1.5h1.4c1-0.1,2,0.6,2.4,1.5L213.2,95c0.6,1.2,0.2,2.7-1,3.3
			c-0.4,0.2-0.9,0.3-1.4,0.3h-12.1c-2.1,0-3-0.8-4-2.8l-6.8-15h-41.6l-6.8,15c-0.6,1.7-2.2,2.8-4,2.8h-12.1
			c-1.3,0.1-2.5-0.9-2.6-2.2C120.8,95.9,120.9,95.4,121.1,95z M181.1,65.4l-13.9-30.6h-0.4l-13.6,30.6H181.1z"/>
		<path class="st0" d="M223.1,4c0-1.5,1.2-2.6,2.6-2.6h12.8c1.4,0,2.6,1.2,2.6,2.6v77.9h35.4c1.5,0,2.6,1.2,2.6,2.6V96
			c0,1.5-1.2,2.6-2.6,2.6h-50.8c-1.5,0-2.6-1.2-2.6-2.6V4z"/>
		<path class="st0" d="M290.8,4c0-1.5,1.2-2.6,2.6-2.6H350c1.4,0,2.6,1.2,2.6,2.6v11.4c0,1.5-1.2,2.6-2.6,2.6l0,0h-41.1v22.8h34.3
			c1.4,0,2.6,1.2,2.6,2.6V55c0,1.5-1.2,2.6-2.6,2.6l0,0h-34.3v24.3H350c1.4,0,2.6,1.2,2.6,2.6V96c0,1.5-1.2,2.6-2.6,2.6l0,0h-56.5
			c-1.5,0-2.6-1.2-2.6-2.6V4z"/>
		<path class="st0" d="M368.5,2.5c0.1-1.4,1.2-2.5,2.6-2.5h2.1c0.9,0,1.8,0.3,2.4,1l56.7,60.4h0.3V4c0-1.5,1.2-2.6,2.6-2.6l0,0H448
			c1.4,0.1,2.6,1.2,2.6,2.6v93.5c-0.1,1.4-1.2,2.5-2.6,2.5h-2c-0.9,0-1.8-0.3-2.4-1l-56.9-62.8h-0.3V96c0,1.5-1.2,2.6-2.6,2.6l0,0
			h-12.6c-1.4,0-2.6-1.2-2.6-2.6V2.5z"/>
		<path class="st0" d="M487.5,18.1h-21.2c-1.5,0-2.6-1.2-2.6-2.6c0,0,0,0,0,0V4c0-1.5,1.2-2.6,2.6-2.6l0,0h60.7
			c1.5,0,2.6,1.1,2.7,2.6c0,0,0,0,0,0v11.4c0,1.5-1.2,2.6-2.6,2.6c0,0,0,0,0,0h-21.3V96c0,1.4-1.2,2.6-2.6,2.6h-12.9
			c-1.4,0-2.6-1.2-2.6-2.6V18.1z"/>
	</g>
</g>
</svg>
