<?xml version="1.0" encoding="utf-8"?>
<!-- Generator: Adobe Illustrator 25.4.1, SVG Export Plug-In . SVG Version: 6.00 Build 0)  -->
<svg version="1.1" id="Layer_1" xmlns="http://www.w3.org/2000/svg" xmlns:xlink="http://www.w3.org/1999/xlink" x="0px" y="0px"
	 viewBox="0 0 978.5 100" style="enable-background:new 0 0 978.5 100;" xml:space="preserve">
<style type="text/css">
	.st0{fill:#FFFFFF;}
</style>
<g>
	<path class="st0" d="M64.7,0c27.8,0,50,22.3,50,50.1c0,27.8-22.2,49.8-50,49.8c-27.8,0-49.8-22.1-49.8-49.8
		C14.8,22.3,36.9,0,64.7,0z M64.7,81.9c17.5,0,31.9-14.3,31.9-31.8C96.6,32.6,82.2,18,64.7,18S32.9,32.6,32.9,50.1
		C32.9,67.6,47.2,81.9,64.7,81.9z"/>
	<path class="st0" d="M132.6,4c0-1.4,1.1-2.6,2.6-2.6h32.6c17.1,0,31.1,13.9,31.1,30.7c0,17.2-14,31.2-31,31.2h-17.3v32.6
		c0,1.4-1.2,2.6-2.6,2.6h-12.8c-1.5,0-2.6-1.3-2.6-2.6V4z M167.3,46.4c7.8,0,13.7-6.2,13.7-14.4c0-7.6-6-13.5-13.7-13.5h-16.7v27.9
		H167.3z"/>
	<path class="st0" d="M214.4,4c0-1.4,1.1-2.6,2.6-2.6h32.6c17.1,0,31.1,13.9,31.1,30.7c0,17.2-14,31.2-31,31.2h-17.3v32.6
		c0,1.4-1.2,2.6-2.6,2.6H217c-1.5,0-2.6-1.3-2.6-2.6V4z M249.1,46.4c7.8,0,13.7-6.2,13.7-14.4c0-7.6-6-13.5-13.7-13.5h-16.7v27.9
		H249.1z"/>
	<path class="st0" d="M340.4,0c27.8,0,50,22.3,50,50.1c0,27.8-22.2,49.8-50,49.8c-27.8,0-49.8-22.1-49.8-49.8
		C290.5,22.3,312.6,0,340.4,0z M340.4,81.9c17.5,0,31.9-14.3,31.9-31.8c0-17.5-14.4-32.1-31.9-32.1c-17.5,0-31.8,14.6-31.8,32.1
		C308.6,67.6,322.9,81.9,340.4,81.9z"/>
	<path class="st0" d="M408.3,4c0-1.4,1.1-2.6,2.6-2.6h39.7c16.7,0,30.3,13.3,30.3,29.8c0,12.8-8.5,23.2-20.5,28l19,35.3
		c1,1.8,0,4-2.4,4h-14.6c-1.2,0-1.9-0.7-2.2-1.3l-18.5-36.8h-15.4v35.4c0,1.4-1.2,2.6-2.6,2.6h-12.8c-1.5,0-2.6-1.3-2.6-2.6V4z
		 M449.1,45.7c7.4,0,13.7-6.4,13.7-14.2c0-7.4-6.4-13.5-13.7-13.5h-22.6v27.6H449.1z"/>
	<path class="st0" d="M515.6,18h-21.2c-1.5,0-2.6-1.2-2.6-2.6V4c0-1.4,1.1-2.6,2.6-2.6h60.7c1.5,0,2.6,1.2,2.6,2.6v11.4
		c0,1.4-1.1,2.6-2.6,2.6h-21.2v77.9c0,1.4-1.2,2.6-2.6,2.6h-12.9c-1.4,0-2.6-1.3-2.6-2.6V18z"/>
	<path class="st0" d="M572.2,4c0-1.4,1.2-2.6,2.6-2.6H588c1.5,0,2.6,1.2,2.6,2.6v57.9c0,11.8,8,20,20.1,20
		c12.1,0,20.3-8.2,20.3-19.8V4c0-1.4,1.1-2.6,2.6-2.6h13.2c1.4,0,2.6,1.2,2.6,2.6v58.9c0,21.1-16.8,37.1-38.7,37.1
		c-21.8,0-38.6-16-38.6-37.1V4z"/>
	<path class="st0" d="M672.2,2.5c0-1.4,1.2-2.5,2.6-2.5h2.1c1,0,1.7,0.3,2.4,1l56.6,60.4h0.3V4c0-1.4,1.1-2.6,2.6-2.6h12.8
		c1.4,0,2.6,1.2,2.6,2.6v93.4c0,1.4-1.2,2.5-2.6,2.5h-1.9c-1,0-1.7-0.3-2.4-1l-56.9-62.7h-0.3v59.7c0,1.4-1.1,2.6-2.6,2.6h-12.6
		c-1.4,0-2.6-1.3-2.6-2.6V2.5z"/>
	<path class="st0" d="M777.9,4c0-1.4,1.2-2.6,2.6-2.6h12.9c1.4,0,2.6,1.2,2.6,2.6v91.9c0,1.4-1.2,2.6-2.6,2.6h-12.9
		c-1.4,0-2.6-1.3-2.6-2.6V4z"/>
	<path class="st0" d="M835.3,18h-21.2c-1.5,0-2.6-1.2-2.6-2.6V4c0-1.4,1.1-2.6,2.6-2.6h60.7c1.5,0,2.6,1.2,2.6,2.6v11.4
		c0,1.4-1.1,2.6-2.6,2.6h-21.2v77.9c0,1.4-1.2,2.6-2.6,2.6H838c-1.4,0-2.6-1.3-2.6-2.6V18z"/>
	<path class="st0" d="M913.1,51.8L881.5,5.4c-1.1-1.8,0-4,2.2-4h14.2c1.1,0,1.8,0.7,2.2,1.2l22.2,31.9l22.2-31.9
		c0.4-0.6,1.1-1.2,2.2-1.2H961c2.2,0,3.3,2.2,2.2,4l-32.1,46.2v44.3c0,1.4-1.2,2.6-2.6,2.6h-12.8c-1.5,0-2.6-1.3-2.6-2.6V51.8z"/>
</g>
</svg>
