<?xml version="1.0" encoding="utf-8"?>
<!-- Generator: Adobe Illustrator 26.0.3, SVG Export Plug-In . SVG Version: 6.00 Build 0)  -->
<svg version="1.1" id="Layer_1" xmlns="http://www.w3.org/2000/svg" xmlns:xlink="http://www.w3.org/1999/xlink" x="0px" y="0px"
	 viewBox="0 0 880.2 100" style="enable-background:new 0 0 880.2 100;" xml:space="preserve">
<style type="text/css">
	.st0{fill:#FFFFFF;}
</style>
<g>
	<path class="st0" d="M40.7,29.3c9.3,0,16.6,2.8,23.5,9.1c0.3,0.2,0.4,0.6,0.4,0.9c0,0.3-0.1,0.6-0.4,0.9l-6.1,6.3l0,0l0,0
		c-0.1,0.1-0.4,0.4-0.6,0.4s-0.5-0.1-0.8-0.4l0,0l0,0c-4.4-3.9-10.1-6-15.7-6c-6.3,0-12.1,2.5-16.4,7.1c-4.2,4.5-6.5,10.4-6.5,16.7
		c0,6.3,2.4,12.1,6.6,16.6c4.3,4.5,10.1,7,16.4,7c5.6,0,10.9-1.9,15.6-5.9c0.3-0.3,0.6-0.3,0.8-0.3c0.3,0,0.6,0.1,0.7,0.3l6.1,6.4
		l0,0l0,0c0.1,0.1,0.3,0.4,0.3,0.6c0,0.4-0.1,0.8-0.4,1C58,96,49.8,99.3,40.7,99.3c-9.4,0-18.2-3.6-24.8-10.1
		C9.2,82.6,5.6,73.8,5.6,64.4c0-9.4,3.6-18.2,10.3-24.8C22.5,33,31.3,29.3,40.7,29.3 M40.7,28.6c-19.8,0-35.8,16-35.8,35.8
		c0,19.8,16,35.6,35.8,35.6c8.9,0,17.4-3.1,24.1-9.6c0.7-0.7,0.9-2,0.1-2.7l-6.1-6.4c-0.3-0.3-0.8-0.5-1.2-0.5s-0.9,0.1-1.3,0.5
		C52,84.6,47,86.9,41,86.9c-12.7,0-22.2-10.5-22.2-22.9c0-12.5,9.4-23.1,22.1-23.1c5.6,0,11.1,2.2,15.3,5.9c0.4,0.4,0.9,0.6,1.3,0.6
		c0.4,0,0.9-0.2,1.2-0.6l6.1-6.3c0.8-0.8,0.8-2-0.1-2.8C58,31.7,50.7,28.6,40.7,28.6L40.7,28.6z"/>
	<path class="st0" d="M119.4,30.3c0.7,0,1.1,0.6,1.1,1.1v8.1c0,0.6-0.4,1.1-1.1,1.1H90.1h-0.7v0.7v16.3v0.7h0.7h24.5
		c0.6,0,1.1,0.6,1.1,1.1v8.3c0,0.7-0.6,1.1-1.1,1.1H90.1h-0.7v0.7v17.4v0.7h0.7h29.3c0.7,0,1.1,0.6,1.1,1.1v8.2
		c0,0.6-0.4,1.1-1.1,1.1H79.1c-0.7,0-1.1-0.6-1.1-1.1V31.5c0-0.6,0.4-1.1,1.1-1.1H119.4 M119.4,29.6H79.1c-1.1,0-1.9,0.9-1.9,1.9
		v65.7c0,1,0.8,1.9,1.9,1.9h40.3c1.1,0,1.9-0.9,1.9-1.9V89c0-1-0.8-1.9-1.9-1.9H90.1V69.7h24.5c1,0,1.9-0.8,1.9-1.9v-8.2
		c0-1-0.9-1.9-1.9-1.9H90.1V41.5h29.3c1.1,0,1.9-0.9,1.9-1.9v-8.2C121.3,30.5,120.5,29.6,119.4,29.6L119.4,29.6z"/>
	<path class="st0" d="M137.7,29.3c0.5,0,0.9,0.1,1.1,0.5l40.5,43.1l0.2,0.2h0.3h0.2h0.7v-0.7v-41c0-0.6,0.4-1.1,1.1-1.1h9.1
		c0.6,0,1.1,0.6,1.1,1.1v66.8c0,0.6-0.6,1.1-1.1,1.1h-1.4c-0.5,0-0.9-0.1-1.1-0.4L147.9,54l-0.2-0.2h-0.3h-0.2h-0.7v0.7v42.6
		c0,0.6-0.4,1.1-1.1,1.1h-9c-0.6,0-1.1-0.6-1.1-1.1V30.4c0-0.6,0.6-1.1,1.1-1.1H137.7 M137.7,28.6h-1.5c-1,0-1.9,0.8-1.9,1.8v66.8
		c0,1,0.9,1.9,1.9,1.9h9c1.1,0,1.9-0.9,1.9-1.9V54.4h0.2l40.7,44.8c0.5,0.5,1,0.7,1.7,0.7h1.4c1,0,1.9-0.8,1.9-1.8V31.5
		c0-1-0.9-1.9-1.9-1.9h-9.1c-1.1,0-1.9,0.9-1.9,1.9v41h-0.2l-40.4-43.1C138.9,28.8,138.4,28.6,137.7,28.6L137.7,28.6z"/>
	<path class="st0" d="M249.1,30.3c0.7,0,1.1,0.6,1.1,1.1v8.1c0,0.6-0.4,1.1-1.1,1.1h-15.2h-0.7v0.7v55.7c0,0.6-0.6,1.1-1.1,1.1h-9.2
		c-0.6,0-1.1-0.6-1.1-1.1V41.5v-0.7H221h-15.2c-0.7,0-1.1-0.6-1.1-1.1v-8.2c0-0.6,0.4-1.1,1.1-1.1H249.1 M249.1,29.6h-43.3
		c-1.1,0-1.9,0.9-1.9,1.9v8.1c0,1,0.8,1.9,1.9,1.9H221v55.7c0,1,0.9,1.9,1.9,1.9h9.3c1,0,1.9-0.9,1.9-1.9V41.5h15.2
		c1.1,0,1.9-0.9,1.9-1.9v-8.2C251,30.5,250.3,29.6,249.1,29.6L249.1,29.6z"/>
	<path class="st0" d="M292.3,30.3c11.5,0,20.9,9.2,20.9,20.6c0,8.4-5.4,15.9-14.2,19.3l-0.7,0.3l0.4,0.7l13.6,25.2
		c0.2,0.4,0.2,0.9,0,1.3c-0.2,0.4-0.6,0.5-1.1,0.5h-10.4c-0.6,0-0.9-0.4-0.9-0.5l-13.2-26.3l-0.2-0.4H286h-11h-0.7v0.7v25.3
		c0,0.6-0.6,1.1-1.1,1.1H264c-0.7,0-1.1-0.6-1.1-1.1V31.5c0-0.6,0.4-1.1,1.1-1.1H292.3 M274.3,61.9h0.7h16.1
		c5.7,0,10.6-4.9,10.6-10.9c0-5.6-4.9-10.4-10.6-10.4H275h-0.7v0.7v19.7V61.9 M292.3,29.6H264c-1.1,0-1.9,0.9-1.9,1.9v65.7
		c0,1,0.8,1.9,1.9,1.9h9.1c1,0,1.9-0.9,1.9-1.9V71.9h11l13.2,26.3c0.2,0.4,0.7,0.9,1.6,0.9h10.4c1.7,0,2.4-1.6,1.7-2.9l-13.6-25.2
		C307.9,67.4,314,60,314,50.9C313.9,39.1,304.2,29.6,292.3,29.6L292.3,29.6z M275,61.2V41.5h16.1c5.3,0,9.9,4.4,9.9,9.6
		c0,5.6-4.6,10.1-9.9,10.1L275,61.2L275,61.2z"/>
	<path class="st0" d="M352.8,29.3c0.6,0,0.8,0.2,1.1,0.6l30.6,66.8c0.2,0.4,0.1,0.8,0,1.1c-0.2,0.3-0.6,0.5-1,0.5h-8.6
		c-1.1,0-1.6-0.4-2.2-1.6L367.7,86l-0.2-0.4h-0.4h-29.6H337l-0.2,0.4l-4.9,10.7c-0.2,0.6-0.9,1.6-2.2,1.6h-8.6c-0.4,0-0.9-0.1-1-0.5
		c-0.2-0.3-0.2-0.7,0-1.1L350.7,30c0.2-0.5,0.6-0.7,1.1-0.7H352.8 M341.1,76h1.1h19.9h1.1l-0.4-1l-9.9-21.8l-0.2-0.4h-0.4h-0.3h-0.4
		l-0.2,0.4L341.5,75L341.1,76 M352.8,28.6h-1c-0.9,0-1.4,0.5-1.7,1.1l-30.8,66.8c-0.6,1.3,0.2,2.6,1.7,2.6h8.6c1.6,0,2.5-1,2.9-2
		l4.9-10.7h29.6l4.9,10.7c0.7,1.4,1.4,2,2.9,2h8.6c1.5,0,2.3-1.3,1.7-2.6l-30.5-66.8C354.1,29.1,353.8,28.6,352.8,28.6L352.8,28.6z
		 M342.1,75.3l9.7-21.8h0.3l9.9,21.8H342.1L342.1,75.3z"/>
	<path class="st0" d="M404.8,30.3c0.6,0,1.1,0.6,1.1,1.1v55.6v0.7h0.7h25.3c0.7,0,1.1,0.6,1.1,1.1v8.2c0,0.6-0.4,1.1-1.1,1.1h-36.3
		c-0.7,0-1.1-0.6-1.1-1.1V31.5c0-0.6,0.4-1.1,1.1-1.1H404.8 M404.8,29.6h-9.1c-1.1,0-1.9,0.9-1.9,1.9v65.7c0,1,0.8,1.9,1.9,1.9h36.3
		c1.1,0,1.9-0.9,1.9-1.9V89c0-1-0.8-1.9-1.9-1.9h-25.3V31.5C406.6,30.5,405.8,29.6,404.8,29.6L404.8,29.6z"/>
	<path class="st0" d="M469.1,29.3c0.6,0,0.8,0.2,1.1,0.6l30.6,66.8c0.2,0.4,0.1,0.8,0,1.1c-0.2,0.3-0.6,0.5-1,0.5h-8.6
		c-1.1,0-1.6-0.4-2.2-1.6L484,86l-0.2-0.4h-0.4h-29.6h-0.4l-0.2,0.4l-4.9,10.7c-0.2,0.6-0.8,1.5-2.2,1.5h-8.6c-0.4,0-0.9-0.1-1-0.5
		c-0.2-0.3-0.2-0.7,0-1.1L467.1,30c0.2-0.5,0.6-0.7,1.1-0.7H469.1 M457.4,76h1.1h20h1.1l-0.4-1l-10-21.8l-0.2-0.4h-0.4h-0.3h-0.5
		l-0.2,0.4L457.8,75L457.4,76 M469.1,28.6h-1c-0.9,0-1.4,0.5-1.7,1.1l-30.8,66.8c-0.6,1.3,0.2,2.6,1.7,2.6h8.6c1.6,0,2.5-1,2.9-2
		l4.9-10.7h29.6l4.9,10.7c0.7,1.4,1.4,2,2.9,2h8.6c1.5,0,2.3-1.3,1.7-2.6l-30.6-66.8C470.5,29.1,470.1,28.6,469.1,28.6L469.1,28.6z
		 M458.5,75.3l9.7-21.8h0.3l9.9,21.8H458.5L458.5,75.3z"/>
	<path class="st0" d="M570.3,29.3c0.9,0,1.1,0.6,1.1,0.9l11.7,66.7c0.1,0.3,0.1,0.8-0.1,1.1c-0.2,0.2-0.5,0.4-0.9,0.4h-9
		c-0.6,0-1.1-0.6-1.2-0.9L566,59.9l-0.1-0.6h-0.6H565h-0.4l-0.2,0.4L547,98.6l0,0l0,0c-0.1,0.3-0.4,0.6-1,0.6h-1.8
		c-0.5,0-0.8-0.2-1-0.6l-17.6-38.9l-0.2-0.4h-0.4h-0.3H524l-0.1,0.6l-5.8,37.6c-0.1,0.4-0.6,0.9-1.1,0.9h-8.9
		c-0.3,0-0.7-0.1-0.9-0.4c-0.2-0.3-0.3-0.6-0.2-1.1l11.8-66.6l0,0l0,0c0-0.3,0.2-0.9,1.1-0.9h1.6c0.5,0,0.9,0.2,1.1,0.6l21.8,46.8
		l0.2,0.4h0.4h0.3h0.4l0.2-0.4l21.8-46.8c0.1-0.4,0.4-0.6,1.1-0.6H570.3 M570.3,28.6h-1.6c-0.9,0-1.4,0.4-1.7,1l-21.8,46.8
		c-0.1,0-0.1,0-0.3,0l-21.8-46.8c-0.3-0.6-0.9-1-1.7-1h-1.6c-1.1,0-1.7,0.7-1.8,1.5l-11.8,66.6c-0.2,1.4,0.6,2.3,1.9,2.3h8.9
		c0.9,0,1.7-0.8,1.8-1.5l5.8-37.6c0.1,0,0.3,0,0.3,0l17.6,39c0.3,0.6,0.8,1.1,1.7,1.1h1.8c0.9,0,1.5-0.5,1.7-1.1l17.4-39
		c0,0,0.2,0,0.3,0l5.9,37.6c0.2,0.7,1,1.5,1.9,1.5h9c1.3,0,2.1-0.9,1.8-2.3l-11.7-66.6C572.1,29.3,571.5,28.6,570.3,28.6L570.3,28.6
		z"/>
	<path class="st0" d="M639.2,30.3c0.7,0,1.1,0.6,1.1,1.1v8.1c0,0.6-0.4,1.1-1.1,1.1h-29.3h-0.7v0.7v16.3v0.7h0.7h24.5
		c0.6,0,1.1,0.6,1.1,1.1v8.3c0,0.7-0.6,1.1-1.1,1.1h-24.5h-0.7v0.7v17.4v0.7h0.7h29.3c0.7,0,1.1,0.6,1.1,1.1v8.2
		c0,0.6-0.4,1.1-1.1,1.1h-40.3c-0.7,0-1.1-0.6-1.1-1.1V31.5c0-0.6,0.4-1.1,1.1-1.1H639.2 M639.2,29.6h-40.3c-1.1,0-1.9,0.9-1.9,1.9
		v65.7c0,1,0.8,1.9,1.9,1.9h40.3c1.1,0,1.9-0.9,1.9-1.9V89c0-1-0.8-1.9-1.9-1.9h-29.3V69.7h24.5c1,0,1.9-0.8,1.9-1.9v-8.2
		c0-1-0.9-1.9-1.9-1.9h-24.5V41.5h29.3c1.1,0,1.9-0.9,1.9-1.9v-8.2C641.1,30.5,640.3,29.6,639.2,29.6L639.2,29.6z"/>
	<path class="st0" d="M684.3,30.3c11.5,0,20.9,9.2,20.9,20.6c0,8.4-5.4,15.9-14.2,19.3l-0.7,0.3l0.4,0.7l13.6,25.2
		c0.2,0.4,0.2,0.9,0,1.3c-0.2,0.4-0.6,0.5-1.1,0.5h-10.4c-0.6,0-0.9-0.4-0.9-0.5l-13.2-26.3l-0.2-0.4h-0.4h-11h-0.7v0.7v25.3
		c0,0.6-0.6,1.1-1.1,1.1h-9.1c-0.7,0-1.1-0.6-1.1-1.1V31.5c0-0.6,0.4-1.1,1.1-1.1H684.3 M666.4,61.9h0.7h16.1
		c5.7,0,10.5-4.9,10.5-10.9c0-5.6-4.9-10.4-10.5-10.4h-16.1h-0.7v0.7v19.7V61.9 M684.3,29.6h-28.3c-1.1,0-1.9,0.9-1.9,1.9v65.7
		c0,1,0.8,1.9,1.9,1.9h9.1c1,0,1.9-0.9,1.9-1.9V71.9h11l13.2,26.3c0.2,0.4,0.7,0.9,1.6,0.9h10.4c1.7,0,2.4-1.6,1.7-2.9l-13.6-25.2
		C699.9,67.4,706,60,706,50.9C705.9,39.1,696.2,29.6,684.3,29.6L684.3,29.6z M667.1,61.2V41.5h16.1c5.3,0,9.8,4.4,9.8,9.6
		c0,5.6-4.6,10.1-9.8,10.1L667.1,61.2L667.1,61.2z"/>
	<path class="st0" d="M730.6,30.3c0.6,0,1.1,0.6,1.1,1.1v65.7c0,0.6-0.6,1.1-1.1,1.1h-9.2c-0.6,0-1.1-0.6-1.1-1.1V31.5
		c0-0.6,0.6-1.1,1.1-1.1H730.6 M730.6,29.6h-9.2c-1,0-1.9,0.9-1.9,1.9v65.7c0,1,0.9,1.9,1.9,1.9h9.2c1,0,1.9-0.9,1.9-1.9V31.5
		C732.5,30.5,731.6,29.6,730.6,29.6L730.6,29.6z"/>
	<path class="st0" d="M781.1,29.3c9.3,0,16.6,2.8,23.5,9.1c0.3,0.2,0.4,0.6,0.4,0.9c0,0.3-0.1,0.6-0.4,0.9l-6.1,6.3l0,0l0,0
		c-0.1,0.1-0.4,0.4-0.6,0.4c-0.3,0-0.5-0.1-0.8-0.4l0,0l0,0c-4.4-3.9-10.1-6-15.7-6c-6.3,0-12.1,2.5-16.4,7.1
		c-4.2,4.5-6.5,10.4-6.5,16.7c0,6.3,2.4,12.1,6.6,16.6c4.3,4.5,10.1,7,16.4,7c5.6,0,10.9-1.9,15.6-5.9c0.3-0.3,0.6-0.3,0.8-0.3
		c0.3,0,0.6,0.1,0.7,0.3l6.1,6.4l0,0l0,0c0.1,0.1,0.3,0.4,0.3,0.6c0,0.4-0.1,0.8-0.4,1c-6.4,6.1-14.5,9.4-23.6,9.4
		c-9.4,0-18.2-3.6-24.8-10.1c-6.6-6.6-10.3-15.4-10.3-24.7c0-9.4,3.6-18.2,10.3-24.8C762.9,33,771.7,29.3,781.1,29.3 M781.1,28.6
		c-19.8,0-35.8,16-35.8,35.8c0,19.8,16,35.6,35.8,35.6c8.9,0,17.4-3.1,24.1-9.6c0.7-0.7,0.9-2,0.1-2.7l-6.1-6.4
		c-0.3-0.3-0.8-0.5-1.2-0.5s-0.9,0.1-1.3,0.5c-4.1,3.4-9.2,5.6-15.2,5.6c-12.7,0-22.2-10.5-22.2-22.9c0-12.5,9.4-23.1,22.1-23.1
		c5.6,0,11.1,2.2,15.3,5.9c0.4,0.4,0.9,0.6,1.3,0.6c0.4,0,0.9-0.2,1.2-0.6l6.1-6.3c0.8-0.8,0.8-2-0.1-2.8
		C798.4,31.7,791.1,28.6,781.1,28.6L781.1,28.6z"/>
	<path class="st0" d="M842.9,29.3c0.6,0,0.8,0.2,1.1,0.6l30.6,66.8c0.2,0.4,0.1,0.8,0,1.1c-0.2,0.3-0.6,0.5-1,0.5h-8.6
		c-1.1,0-1.6-0.4-2.2-1.6L857.8,86l-0.2-0.4h-0.4h-29.6h-0.4l-0.2,0.4L822,96.7c-0.2,0.6-0.8,1.5-2.2,1.5h-8.6c-0.4,0-0.9-0.1-1-0.5
		c-0.2-0.3-0.2-0.7,0-1.1L840.9,30c0.2-0.5,0.6-0.7,1.1-0.7H842.9 M831.2,76h1.1h19.9h1.1l-0.4-1l-9.9-21.8l-0.2-0.4h-0.4H842h-0.4
		l-0.2,0.4L831.6,75L831.2,76 M842.9,28.6h-1c-0.9,0-1.4,0.5-1.7,1.1l-30.8,66.8c-0.6,1.3,0.2,2.6,1.7,2.6h8.6c1.6,0,2.5-1,2.9-2
		l4.9-10.7h29.6l4.9,10.7c0.7,1.4,1.4,2,2.9,2h8.6c1.5,0,2.3-1.3,1.7-2.6l-30.6-66.8C844.3,29.1,843.9,28.6,842.9,28.6L842.9,28.6z
		 M832.3,75.3l9.7-21.8h0.3l9.9,21.8H832.3L832.3,75.3z"/>
</g>
</svg>
