<?xml version="1.0" encoding="utf-8"?>
<!-- Generator: Adobe Illustrator 25.4.1, SVG Export Plug-In . SVG Version: 6.00 Build 0)  -->
<svg version="1.1" id="Layer_1" xmlns="http://www.w3.org/2000/svg" xmlns:xlink="http://www.w3.org/1999/xlink" x="0px" y="0px"
	 viewBox="0 0 869.2 100" style="enable-background:new 0 0 869.2 100;" xml:space="preserve">
<style type="text/css">
	.st0{fill:#FFFFFF;}
</style>
<g>
	<path class="st0" d="M35.7,28.7c10,0,17.2,3.2,24,9.2c0.9,0.8,0.9,2,0.1,2.8l-6,6.2c-0.7,0.8-1.7,0.8-2.5,0
		c-4.2-3.7-9.7-5.8-15.2-5.8c-12.7,0-22.1,10.6-22.1,23.1c0,12.4,9.5,22.9,22.2,22.9c5.9,0,11-2.3,15.1-5.6c0.8-0.7,1.9-0.6,2.5,0
		l6.1,6.3c0.8,0.7,0.6,2-0.1,2.7C53,96.9,44.5,100,35.7,100C15.9,100-0.1,84.3-0.1,64.5C-0.1,44.7,15.9,28.7,35.7,28.7z"/>
	<path class="st0" d="M72.1,31.6c0-1,0.8-1.9,1.9-1.9h40.3c1.1,0,1.9,0.9,1.9,1.9v8.1c0,1-0.8,1.9-1.9,1.9H85v16.2h24.5
		c1,0,1.9,0.9,1.9,1.9v8.2c0,1.1-0.9,1.9-1.9,1.9H85v17.3h29.3c1.1,0,1.9,0.9,1.9,1.9v8.1c0,1-0.8,1.9-1.9,1.9H74
		c-1.1,0-1.9-0.9-1.9-1.9V31.6z"/>
	<path class="st0" d="M129.2,30.5c0-1,0.9-1.8,1.9-1.8h1.5c0.7,0,1.2,0.2,1.7,0.7l40.4,43.1h0.2V31.6c0-1,0.8-1.9,1.9-1.9h9.1
		c1,0,1.9,0.9,1.9,1.9v66.6c0,1-0.9,1.8-1.9,1.8h-1.4c-0.7,0-1.2-0.2-1.7-0.7l-40.6-44.7h-0.2v42.6c0,1-0.8,1.9-1.9,1.9h-9
		c-1,0-1.9-0.9-1.9-1.9V30.5z"/>
	<path class="st0" d="M215.7,41.6h-15.1c-1.1,0-1.9-0.9-1.9-1.9v-8.1c0-1,0.8-1.9,1.9-1.9h43.3c1.1,0,1.9,0.9,1.9,1.9v8.1
		c0,1-0.8,1.9-1.9,1.9h-15.1v55.5c0,1-0.9,1.9-1.9,1.9h-9.2c-1,0-1.9-0.9-1.9-1.9V41.6z"/>
	<path class="st0" d="M256.7,31.6c0-1,0.8-1.9,1.9-1.9h28.3c11.9,0,21.6,9.5,21.6,21.3c0,9.1-6,16.5-14.7,20l13.6,25.1
		c0.7,1.3,0,2.9-1.7,2.9h-10.4c-0.9,0-1.4-0.5-1.6-0.9l-13.2-26.2h-11v25.2c0,1-0.9,1.9-1.9,1.9h-9.1c-1.1,0-1.9-0.9-1.9-1.9V31.6z
		 M285.9,61.3c5.2,0,9.8-4.6,9.8-10.1c0-5.2-4.6-9.6-9.8-9.6h-16.1v19.7H285.9z"/>
	<path class="st0" d="M313.9,96.4l30.8-66.6c0.3-0.6,0.8-1.1,1.7-1.1h1c1,0,1.4,0.5,1.7,1.1l30.5,66.6c0.6,1.3-0.2,2.6-1.7,2.6h-8.6
		c-1.5,0-2.2-0.6-2.9-2l-4.8-10.7h-29.6L327.1,97c-0.4,1-1.3,2-2.9,2h-8.6C314.1,99,313.3,97.7,313.9,96.4z M356.7,75.4l-9.9-21.8
		h-0.3l-9.7,21.8H356.7z"/>
	<path class="st0" d="M388.3,31.6c0-1,0.8-1.9,1.9-1.9h9.1c1,0,1.9,0.9,1.9,1.9v55.5h25.2c1.1,0,1.9,0.9,1.9,1.9v8.1
		c0,1-0.8,1.9-1.9,1.9h-36.2c-1.1,0-1.9-0.9-1.9-1.9V31.6z"/>
	<path class="st0" d="M430.1,96.4l30.8-66.6c0.3-0.6,0.8-1.1,1.7-1.1h1c1,0,1.4,0.5,1.7,1.1l30.5,66.6c0.6,1.3-0.2,2.6-1.7,2.6h-8.6
		c-1.5,0-2.2-0.6-2.9-2l-4.8-10.7h-29.6L443.3,97c-0.4,1-1.3,2-2.9,2h-8.6C430.3,99,429.5,97.7,430.1,96.4z M472.9,75.4L463,53.6
		h-0.3L453,75.4H472.9z"/>
	<path class="st0" d="M512.5,30.2c0.1-0.8,0.7-1.5,1.8-1.5h1.6c0.8,0,1.4,0.4,1.7,1l21.8,46.7c0.2,0,0.2,0,0.3,0l21.8-46.7
		c0.3-0.6,0.8-1,1.7-1h1.6c1.1,0,1.7,0.7,1.8,1.5l11.7,66.5c0.3,1.4-0.5,2.3-1.8,2.3h-9c-0.9,0-1.7-0.8-1.9-1.5L559.6,60
		c-0.1,0-0.3,0-0.3,0L542,98.9c-0.2,0.6-0.8,1.1-1.7,1.1h-1.8c-0.9,0-1.4-0.5-1.7-1.1L519.3,60c0,0-0.2,0-0.3,0l-5.7,37.5
		c-0.1,0.7-0.9,1.5-1.8,1.5h-8.9c-1.3,0-2.1-0.9-1.9-2.3L512.5,30.2z"/>
	<path class="st0" d="M591.2,31.6c0-1,0.8-1.9,1.9-1.9h40.3c1.1,0,1.9,0.9,1.9,1.9v8.1c0,1-0.8,1.9-1.9,1.9h-29.3v16.2h24.5
		c1,0,1.9,0.9,1.9,1.9v8.2c0,1.1-0.9,1.9-1.9,1.9h-24.5v17.3h29.3c1.1,0,1.9,0.9,1.9,1.9v8.1c0,1-0.8,1.9-1.9,1.9h-40.3
		c-1.1,0-1.9-0.9-1.9-1.9V31.6z"/>
	<path class="st0" d="M648.3,31.6c0-1,0.8-1.9,1.9-1.9h28.3c11.9,0,21.6,9.5,21.6,21.3c0,9.1-6,16.5-14.7,20L699,96.1
		c0.7,1.3,0,2.9-1.7,2.9h-10.4c-0.9,0-1.4-0.5-1.6-0.9l-13.2-26.2h-11v25.2c0,1-0.9,1.9-1.9,1.9h-9.1c-1.1,0-1.9-0.9-1.9-1.9V31.6z
		 M677.4,61.3c5.2,0,9.8-4.6,9.8-10.1c0-5.2-4.6-9.6-9.8-9.6h-16.1v19.7H677.4z"/>
	<path class="st0" d="M713.7,31.6c0-1,0.9-1.9,1.9-1.9h9.2c1,0,1.9,0.9,1.9,1.9v65.5c0,1-0.9,1.9-1.9,1.9h-9.2c-1,0-1.9-0.9-1.9-1.9
		V31.6z"/>
	<path class="st0" d="M775.2,28.7c10,0,17.2,3.2,24,9.2c0.9,0.8,0.9,2,0.1,2.8l-6,6.2c-0.7,0.8-1.7,0.8-2.5,0
		c-4.2-3.7-9.7-5.8-15.2-5.8c-12.7,0-22.1,10.6-22.1,23.1c0,12.4,9.5,22.9,22.2,22.9c5.9,0,11-2.3,15.1-5.6c0.8-0.7,1.9-0.6,2.5,0
		l6.1,6.3c0.8,0.7,0.6,2-0.1,2.7c-6.7,6.5-15.2,9.6-24.1,9.6c-19.8,0-35.7-15.7-35.7-35.5C739.4,44.7,755.3,28.7,775.2,28.7z"/>
	<path class="st0" d="M803.4,96.4l30.8-66.6c0.3-0.6,0.8-1.1,1.7-1.1h1c1,0,1.4,0.5,1.7,1.1L869,96.4c0.6,1.3-0.2,2.6-1.7,2.6h-8.6
		c-1.5,0-2.2-0.6-2.9-2L851,86.3h-29.6L816.6,97c-0.4,1-1.3,2-2.9,2h-8.6C803.6,99,802.8,97.7,803.4,96.4z M846.2,75.4l-9.9-21.8
		H836l-9.7,21.8H846.2z"/>
</g>
</svg>
