<?xml version="1.0" encoding="utf-8"?>
<!-- Generator: Adobe Illustrator 25.4.1, SVG Export Plug-In . SVG Version: 6.00 Build 0)  -->
<svg version="1.1" id="Layer_1" xmlns="http://www.w3.org/2000/svg" xmlns:xlink="http://www.w3.org/1999/xlink" x="0px" y="0px"
	 viewBox="0 0 698.2 80.6" style="enable-background:new 0 0 698.2 80.6;" xml:space="preserve">
<style type="text/css">
	.st0{fill:#FFFFFF;}
</style>
<g>
	<path class="st0" d="M28.7,80.8c-7.7,0-15-3-20.4-8.4C2.8,67-0.1,59.8-0.1,52.1c0-7.7,3-15,8.4-20.4c5.4-5.4,12.7-8.4,20.4-8.4
		c7.6,0,13.6,2.3,19.3,7.4c0.4,0.3,0.6,0.8,0.6,1.2c0,0.5-0.2,0.9-0.5,1.2l-4.8,5c-0.3,0.3-0.6,0.5-1,0.5c-0.4,0-0.8-0.2-1.2-0.5
		c-3.4-3-7.8-4.6-12.1-4.6c-9.9,0-17.6,8.1-17.6,18.4c0,4.8,1.8,9.4,5,12.8C19.7,68.1,24.2,70,29,70c4.3,0,8.4-1.5,12.1-4.5
		c0.7-0.6,1.7-0.5,2.2,0l4.9,5.1c0.3,0.2,0.4,0.6,0.5,1c0,0.5-0.2,1-0.5,1.4C42.9,78.1,36.2,80.8,28.7,80.8z M28.7,23.5
		c-7.7,0-14.8,3-20.2,8.3c-5.4,5.4-8.3,12.6-8.3,20.2c0,7.6,3,14.8,8.3,20.1c5.4,5.3,12.5,8.3,20.2,8.3c7.4,0,14-2.7,19.2-7.7
		c0.3-0.3,0.5-0.7,0.4-1.1c0-0.2-0.1-0.5-0.4-0.8l-4.9-5.1c-0.4-0.4-1.2-0.5-1.8,0c-3.7,3-7.9,4.6-12.3,4.6c-4.9,0-9.5-2-12.8-5.5
		c-3.3-3.5-5.1-8.1-5.1-13c0-10.5,7.9-18.7,17.9-18.7c4.4,0,8.9,1.7,12.3,4.7c0.3,0.3,0.6,0.5,1,0.4c0.3,0,0.6-0.2,0.8-0.4l4.9-5
		c0.3-0.3,0.4-0.6,0.4-1c0-0.4-0.2-0.7-0.5-1C42.2,25.8,36.3,23.5,28.7,23.5z"/>
	<path class="st0" d="M91.9,80H59.5c-0.9,0-1.7-0.7-1.7-1.7V25.7c0-0.9,0.7-1.7,1.7-1.7h32.4c0.9,0,1.7,0.7,1.7,1.7v6.5
		c0,0.9-0.7,1.7-1.7,1.7H68.5v12.7H88c0.9,0,1.7,0.8,1.7,1.7v6.6c0,0.9-0.7,1.7-1.7,1.7H68.5v13.6h23.4c0.9,0,1.7,0.7,1.7,1.7v6.5
		C93.5,79.2,92.8,80,91.9,80z M59.5,24.3c-0.7,0-1.4,0.6-1.4,1.4v52.6c0,0.7,0.6,1.4,1.4,1.4h32.4c0.8,0,1.4-0.6,1.4-1.4v-6.5
		c0-0.8-0.6-1.4-1.4-1.4H68.2V56.2H88c0.8,0,1.4-0.6,1.4-1.4v-6.6c0-0.7-0.6-1.4-1.4-1.4H68.2V33.6h23.7c0.8,0,1.4-0.6,1.4-1.4v-6.5
		c0-0.8-0.6-1.4-1.4-1.4H59.5z"/>
	<path class="st0" d="M149.3,80.8h-1.1c-0.6,0-1-0.2-1.5-0.6l-32.5-35.8v34c0,0.9-0.7,1.7-1.7,1.7h-7.2c-0.9,0-1.7-0.8-1.7-1.7V24.8
		c0-0.9,0.8-1.6,1.7-1.6h1.2c0.6,0,1,0.2,1.5,0.6l32.3,34.5V25.7c0-0.9,0.7-1.7,1.7-1.7h7.3c0.9,0,1.7,0.8,1.7,1.7v53.5
		C150.9,80,150.2,80.8,149.3,80.8z M113.9,44h0.4l0,0L146.9,80c0.4,0.4,0.7,0.5,1.2,0.5h1.1c0.7,0,1.4-0.6,1.4-1.3V25.7
		c0-0.7-0.6-1.4-1.4-1.4H142c-0.8,0-1.4,0.6-1.4,1.4v33h-0.4l0,0L107.8,24c-0.4-0.4-0.7-0.5-1.2-0.5h-1.2c-0.7,0-1.4,0.6-1.4,1.3
		v53.5c0,0.7,0.6,1.4,1.4,1.4h7.2c0.7,0,1.4-0.6,1.4-1.4V44z"/>
	<path class="st0" d="M182.2,80h-7.4c-0.9,0-1.7-0.8-1.7-1.7V33.9h-12c-0.9,0-1.7-0.7-1.7-1.7v-6.5c0-0.9,0.7-1.7,1.7-1.7h34.7
		c0.9,0,1.7,0.7,1.7,1.7v6.5c0,0.9-0.7,1.7-1.7,1.7h-12v44.5C183.9,79.2,183.1,80,182.2,80z M161.2,24.3c-0.7,0-1.4,0.6-1.4,1.4v6.5
		c0,0.8,0.6,1.4,1.4,1.4h12.3v44.8c0,0.7,0.6,1.4,1.4,1.4h7.4c0.7,0,1.4-0.6,1.4-1.4V33.6h12.3c0.8,0,1.4-0.6,1.4-1.4v-6.5
		c0-0.8-0.6-1.4-1.4-1.4H161.2z"/>
	<path class="st0" d="M245.6,80h-8.3c-0.9,0-1.3-0.6-1.4-0.8l-10.5-21h-8.6v20.1c0,0.9-0.8,1.7-1.7,1.7h-7.3c-0.9,0-1.7-0.7-1.7-1.7
		V25.7c0-0.9,0.7-1.7,1.7-1.7h22.7c9.6,0,17.5,7.7,17.5,17.2c0,7-4.5,13.2-11.7,16.1l10.8,20c0.3,0.6,0.3,1.2,0,1.7
		C246.8,79.7,246.3,80,245.6,80z M216.4,57.9h9.1l0,0.1L236.1,79c0.1,0.2,0.4,0.6,1.1,0.6h8.3c0.5,0,1-0.2,1.2-0.6
		c0.3-0.4,0.2-1,0-1.5l-11-20.3l0.2-0.1c7.2-2.9,11.7-9,11.7-15.9c0-9.3-7.7-16.9-17.2-16.9h-22.7c-0.8,0-1.4,0.6-1.4,1.4v52.6
		c0,0.7,0.6,1.4,1.4,1.4h7.3c0.7,0,1.4-0.6,1.4-1.4V57.9z M229.6,49.7h-13.1V33.6h13.1c4.3,0,8,3.6,8,7.9
		C237.7,45.9,234,49.7,229.6,49.7z M216.8,49.4h12.8c4.2,0,7.7-3.6,7.7-8c0-4.1-3.5-7.6-7.7-7.6h-12.8V49.4z"/>
	<path class="st0" d="M303.5,80h-6.9c-1.3,0-1.9-0.6-2.4-1.7l-3.9-8.5h-23.6l-3.9,8.5c-0.2,0.5-0.8,1.7-2.4,1.7h-6.9
		c-0.6,0-1.1-0.3-1.4-0.7c-0.3-0.5-0.3-1-0.1-1.6l24.7-53.5c0.3-0.6,0.8-1,1.5-1h0.8c0.9,0,1.2,0.5,1.5,1L305,77.7
		c0.3,0.5,0.2,1.1-0.1,1.6C304.7,79.7,304.1,80,303.5,80z M266.5,69.5h24l0,0.1l3.9,8.6c0.6,1.1,1.1,1.5,2.2,1.5h6.9
		c0.5,0,0.9-0.2,1.2-0.6c0.2-0.4,0.2-0.8,0-1.3l-24.5-53.5c-0.2-0.5-0.5-0.8-1.2-0.8h-0.8c-0.6,0-1,0.3-1.2,0.8l-24.7,53.5l-0.1-0.1
		l0.1,0.1c-0.2,0.4-0.2,0.9,0,1.3c0.2,0.4,0.7,0.6,1.2,0.6h6.9c1.4,0,2-1,2.2-1.5L266.5,69.5z M286.7,61h-16.4l7.9-17.8h0.4
		L286.7,61z M270.8,60.7h15.5l-7.8-17.2h0L270.8,60.7z"/>
	<path class="st0" d="M342.5,80h-29.1c-0.9,0-1.7-0.7-1.7-1.7V25.7c0-0.9,0.7-1.7,1.7-1.7h7.3c0.9,0,1.7,0.8,1.7,1.7v44.4h20.1
		c0.9,0,1.7,0.7,1.7,1.7v6.5C344.2,79.2,343.4,80,342.5,80z M313.4,24.3c-0.7,0-1.4,0.6-1.4,1.4v52.6c0,0.7,0.6,1.4,1.4,1.4h29.1
		c0.8,0,1.4-0.6,1.4-1.4v-6.5c0-0.8-0.6-1.4-1.4-1.4h-20.4V25.7c0-0.7-0.6-1.4-1.4-1.4H313.4z"/>
	<path class="st0" d="M396.8,80h-6.9c-1.3,0-1.9-0.6-2.4-1.7l-3.9-8.5H360l-3.9,8.5c-0.2,0.5-0.8,1.7-2.4,1.7h-6.9
		c-0.6,0-1.1-0.3-1.4-0.7c-0.3-0.5-0.3-1-0.1-1.6l24.7-53.5c0.3-0.6,0.8-1,1.5-1h0.8c0.9,0,1.2,0.5,1.5,1l24.5,53.5
		c0.2,0.5,0.2,1.1-0.1,1.6C398,79.7,397.5,80,396.8,80z M359.8,69.5h24l0,0.1l3.9,8.6c0.6,1.1,1.1,1.5,2.2,1.5h6.9
		c0.5,0,0.9-0.2,1.2-0.6c0.2-0.4,0.2-0.8,0-1.3l-24.5-53.5c-0.2-0.5-0.5-0.8-1.2-0.8h-0.8c-0.6,0-1,0.3-1.2,0.8l-24.7,53.5
		c-0.2,0.4-0.2,0.9,0,1.3c0.2,0.4,0.7,0.6,1.2,0.6h6.9c1.4,0,2-1,2.2-1.5L359.8,69.5z M380.1,61h-16.4l0.1-0.2l7.8-17.6h0.4
		L380.1,61z M364.1,60.7h15.5l-7.8-17.2h0L364.1,60.7z"/>
	<path class="st0" d="M434,80.8h-1.4c-0.7,0-1.2-0.3-1.5-1l-14-31.2l-4.6,30c-0.1,0.6-0.8,1.3-1.6,1.3h-7.2c-0.5,0-1-0.2-1.3-0.5
		c-0.3-0.4-0.4-0.9-0.4-1.5l9.5-53.4c0.1-0.6,0.5-1.3,1.6-1.3h1.3c0.7,0,1.2,0.3,1.5,0.9l17.5,37.4h0l17.5-37.4
		c0.3-0.6,0.8-0.9,1.5-0.9h1.3c1,0,1.5,0.7,1.6,1.3l9.4,53.4c0.1,0.6,0,1.1-0.3,1.4c-0.3,0.4-0.8,0.6-1.3,0.6h-7.2
		c-0.8,0-1.5-0.7-1.7-1.3l-4.7-30l-13.9,31.2C435.3,80.4,434.7,80.8,434,80.8z M416.8,48.3h0.5l14.1,31.3c0.3,0.5,0.7,0.8,1.2,0.8
		h1.4c0.7,0,1.1-0.4,1.2-0.8l14-31.4h0.5l0,0.1l4.7,30.1c0.1,0.5,0.7,1.1,1.4,1.1h7.2c0.5,0,0.8-0.2,1.1-0.4
		c0.2-0.3,0.3-0.7,0.2-1.2l-9.4-53.4c-0.1-0.5-0.4-1.1-1.3-1.1h-1.3c-0.6,0-1,0.2-1.2,0.7l-17.5,37.6h-0.4l0-0.1l-17.5-37.5
		c-0.2-0.4-0.7-0.7-1.2-0.7h-1.3c-0.8,0-1.2,0.5-1.3,1.1l0,0L402.3,78c-0.1,0.5,0,0.9,0.3,1.2c0.2,0.3,0.6,0.4,1.1,0.4h7.2
		c0.6,0,1.2-0.6,1.3-1.1L416.8,48.3z"/>
	<path class="st0" d="M508.8,80h-32.4c-0.9,0-1.7-0.7-1.7-1.7V25.7c0-0.9,0.7-1.7,1.7-1.7h32.4c0.9,0,1.7,0.7,1.7,1.7v6.5
		c0,0.9-0.7,1.7-1.7,1.7h-23.4v12.7h19.5c0.9,0,1.7,0.8,1.7,1.7v6.6c0,0.9-0.7,1.7-1.7,1.7h-19.5v13.6h23.4c0.9,0,1.7,0.7,1.7,1.7
		v6.5C510.4,79.2,509.7,80,508.8,80z M476.4,24.3c-0.8,0-1.4,0.6-1.4,1.4v52.6c0,0.7,0.6,1.4,1.4,1.4h32.4c0.8,0,1.4-0.6,1.4-1.4
		v-6.5c0-0.8-0.6-1.4-1.4-1.4h-23.7V56.2h19.8c0.8,0,1.4-0.6,1.4-1.4v-6.6c0-0.7-0.6-1.4-1.4-1.4h-19.8V33.6h23.7
		c0.8,0,1.4-0.6,1.4-1.4v-6.5c0-0.8-0.6-1.4-1.4-1.4H476.4z"/>
	<path class="st0" d="M560.1,80h-8.3c-0.9,0-1.3-0.6-1.4-0.8l-10.5-21h-8.6v20.1c0,0.9-0.8,1.7-1.7,1.7h-7.3c-0.9,0-1.7-0.7-1.7-1.7
		V25.7c0-0.9,0.7-1.7,1.7-1.7H545c9.6,0,17.5,7.7,17.5,17.2c0,7-4.5,13.2-11.7,16.1l10.8,20c0.3,0.6,0.3,1.2,0,1.7
		C561.3,79.7,560.7,80,560.1,80z M530.9,57.9h9.1l0,0.1L550.6,79c0.1,0.2,0.4,0.6,1.1,0.6h8.3c0.5,0,1-0.2,1.2-0.6
		c0.2-0.4,0.2-1,0-1.5l-11-20.3l0.2-0.1c7.2-2.9,11.7-9,11.7-15.9c0-9.3-7.7-16.9-17.2-16.9h-22.7c-0.8,0-1.4,0.6-1.4,1.4v52.6
		c0,0.7,0.6,1.4,1.4,1.4h7.3c0.7,0,1.4-0.6,1.4-1.4V57.9z M544.1,49.7H531V33.6h13.1c4.3,0,8,3.6,8,7.9
		C552.1,45.9,548.4,49.7,544.1,49.7z M531.3,49.4h12.8c4.2,0,7.7-3.6,7.7-8c0-4.1-3.5-7.6-7.7-7.6h-12.8V49.4z"/>
	<path class="st0" d="M582.1,80h-7.4c-0.9,0-1.7-0.8-1.7-1.7V25.7c0-0.9,0.8-1.7,1.7-1.7h7.4c0.9,0,1.7,0.8,1.7,1.7v52.6
		C583.8,79.2,583,80,582.1,80z M574.7,24.3c-0.7,0-1.4,0.6-1.4,1.4v52.6c0,0.7,0.6,1.4,1.4,1.4h7.4c0.7,0,1.4-0.6,1.4-1.4V25.7
		c0-0.7-0.6-1.4-1.4-1.4H574.7z"/>
	<path class="st0" d="M622.6,80.8c-7.7,0-15-3-20.4-8.4c-5.4-5.4-8.4-12.6-8.4-20.3c0-7.7,3-15,8.4-20.4c5.4-5.4,12.7-8.4,20.4-8.4
		c7.6,0,13.6,2.3,19.3,7.4c0.4,0.3,0.6,0.8,0.6,1.2c0,0.5-0.2,0.9-0.5,1.2l-4.8,5c-0.3,0.3-0.6,0.5-1,0.5c-0.4,0-0.8-0.2-1.2-0.5
		c-3.4-3-7.8-4.6-12.1-4.6c-9.9,0-17.6,8.1-17.6,18.4c0,4.8,1.8,9.4,5,12.8c3.3,3.5,7.8,5.4,12.6,5.4c4.3,0,8.4-1.5,12.1-4.5
		c0.7-0.6,1.7-0.5,2.2,0l4.9,5.1c0.3,0.2,0.4,0.6,0.5,1c0,0.5-0.2,1-0.5,1.4C636.8,78.1,630.1,80.8,622.6,80.8z M622.6,23.5
		c-7.7,0-14.8,3-20.2,8.3c-5.4,5.4-8.3,12.6-8.3,20.2c0,7.6,3,14.8,8.3,20.1c5.4,5.3,12.5,8.3,20.2,8.3c7.4,0,14-2.7,19.2-7.7
		c0.3-0.3,0.5-0.7,0.4-1.1c0-0.2-0.1-0.5-0.4-0.8l-4.9-5.1c-0.4-0.4-1.2-0.5-1.8,0c-3.7,3-7.9,4.6-12.3,4.6c-4.9,0-9.5-2-12.8-5.5
		c-3.3-3.5-5.1-8.1-5.1-13c0-10.5,7.9-18.7,17.9-18.7c4.4,0,8.9,1.7,12.3,4.7c0.3,0.3,0.6,0.4,0.9,0.4c0,0,0,0,0,0
		c0.3,0,0.6-0.2,0.8-0.4l4.9-5c0.3-0.3,0.4-0.6,0.4-1c0-0.4-0.2-0.7-0.5-1C636.1,25.8,630.2,23.5,622.6,23.5z"/>
	<path class="st0" d="M696.6,80h-6.9c-1.3,0-1.9-0.6-2.4-1.7l-3.9-8.5h-23.6l-3.9,8.5c-0.2,0.5-0.8,1.7-2.4,1.7h-6.9
		c-0.6,0-1.1-0.3-1.4-0.7c-0.3-0.5-0.3-1-0.1-1.6l24.7-53.5c0.3-0.6,0.8-1,1.5-1h0.8c0.9,0,1.2,0.5,1.5,1l24.5,53.5
		c0.2,0.5,0.2,1.1-0.1,1.6C697.8,79.7,697.3,80,696.6,80z M659.7,69.5h24l0,0.1l3.9,8.6c0.6,1.1,1.1,1.5,2.2,1.5h6.9
		c0.5,0,0.9-0.2,1.2-0.6c0.2-0.4,0.2-0.8,0-1.3l-24.5-53.5c-0.2-0.5-0.5-0.8-1.2-0.8h-0.8c-0.6,0-1,0.3-1.2,0.8l-24.7,53.5l-0.1-0.1
		l0.1,0.1c-0.2,0.4-0.2,0.9,0,1.3c0.2,0.4,0.7,0.6,1.2,0.6h6.9c1.4,0,2-1,2.2-1.5L659.7,69.5z M679.9,61h-16.4l0.1-0.2l7.8-17.6h0.4
		L679.9,61z M663.9,60.7h15.5l-7.8-17.2h0L663.9,60.7z"/>
</g>
</svg>
