<?xml version="1.0" encoding="utf-8"?>
<!-- Generator: Adobe Illustrator 25.4.1, SVG Export Plug-In . SVG Version: 6.00 Build 0)  -->
<svg version="1.1" id="Layer_1" xmlns="http://www.w3.org/2000/svg" xmlns:xlink="http://www.w3.org/1999/xlink" x="0px" y="0px"
	 viewBox="0 0 538.6 101" style="enable-background:new 0 0 538.6 101;" xml:space="preserve">
<style type="text/css">
	.st0{fill:#FFFFFF;}
</style>
<g id="Layer_2_00000116225864594373735970000013857903605075855799_">
	<g id="Layer_1-2">
		<path class="st0" d="M12.4,99.9H2.5c-1.4,0-2.5-1.1-2.5-2.5V27.3c0-1.4,1.1-2.5,2.5-2.5h9.9c1.4,0,2.5,1.1,2.5,2.5v70.1
			C14.8,98.8,13.7,99.9,12.4,99.9z M2.5,25.8c-0.8,0-1.5,0.7-1.5,1.5v70.1c0,0.8,0.7,1.5,1.5,1.5h9.9c0.8,0,1.5-0.7,1.5-1.5V27.3
			c0-0.8-0.7-1.5-1.5-1.5H2.5z"/>
		<path class="st0" d="M91.2,101h-1.5c-0.8,0-1.6-0.3-2.2-0.9L44.7,53v44.4c0,1.4-1.1,2.5-2.5,2.5h-9.6c-1.4,0-2.5-1.1-2.5-2.5V26.2
			c0-1.4,1.2-2.4,2.5-2.4h1.6c0.8,0,1.6,0.3,2.2,0.9L78.9,70V27.3c0-1.4,1.1-2.5,2.5-2.5l0,0h9.7c1.4,0,2.5,1.1,2.5,2.5v71.3
			C93.6,99.9,92.5,101,91.2,101z M43.7,51.4h0.9l0.2,0.2l43.4,47.9c0.4,0.4,0.9,0.6,1.4,0.6h1.5c0.8,0,1.5-0.6,1.5-1.4V27.3
			c0-0.8-0.7-1.5-1.5-1.5h-9.7c-0.8,0-1.5,0.7-1.5,1.5v0v44.2H79l-0.2-0.2L35.6,25.3c-0.4-0.4-0.9-0.6-1.4-0.6h-1.6
			c-0.8,0-1.5,0.6-1.5,1.4v71.3c0,0.8,0.7,1.5,1.5,1.5h9.6c0.8,0,1.5-0.7,1.5-1.5L43.7,51.4z"/>
		<path class="st0" d="M143.3,101c-21.3,0.3-38.9-16.7-39.2-38s16.7-38.9,38-39.2c0.4,0,0.8,0,1.2,0c10.3,0,18.3,3.1,26,10
			c1,0.9,1.2,2.4,0.3,3.5c-0.1,0.1-0.1,0.1-0.2,0.2l-6.4,6.7c-0.4,0.5-1,0.8-1.6,0.8c-0.7,0-1.3-0.3-1.8-0.8
			c-4.4-3.9-10.1-6.1-16-6.1c-13,0-23.1,10.6-23.1,24.2s10.2,24,23.2,24c5.8-0.1,11.5-2.2,15.9-5.9c0.9-0.9,2.4-0.9,3.3,0l6.6,6.8
			c0.4,0.4,0.7,1,0.7,1.5c0,0.7-0.3,1.5-0.8,2C162.4,97.4,153,101.1,143.3,101z M143.3,24.8c-20.8-0.3-37.9,16.2-38.2,37
			c-0.3,20.8,16.2,37.9,37,38.2c0.4,0,0.8,0,1.2,0c9.5,0.1,18.6-3.5,25.4-10.1c0.3-0.3,0.5-0.8,0.5-1.3c0-0.3-0.1-0.6-0.4-0.8
			l-6.6-6.8c-0.6-0.5-1.4-0.5-2,0c-4.6,3.9-10.5,6.1-16.5,6.2c-13.6,0-24.2-11-24.2-25S130.1,37,143.6,37c6.1,0.1,12,2.3,16.6,6.4
			c0.3,0.3,0.7,0.5,1.1,0.5c0.3,0,0.7-0.2,0.9-0.5l6.5-6.7c0.3-0.3,0.5-0.7,0.5-1.1c0-0.4-0.2-0.8-0.6-1.1
			C161.7,28,152.6,24.5,143.3,24.8z"/>
		<path class="st0" d="M221.2,99.9h-38.8c-1.4,0-2.5-1.1-2.5-2.5V27.3c0-1.4,1.1-2.5,2.5-2.5h9.8c1.4,0,2.5,1.1,2.5,2.5v58.9h26.5
			c1.4,0,2.5,1.1,2.5,2.5v8.7C223.7,98.8,222.6,99.9,221.2,99.9z M182.4,25.8c-0.8,0-1.5,0.7-1.5,1.5v70.1c0,0.8,0.7,1.5,1.5,1.5
			h38.8c0.8,0,1.5-0.7,1.5-1.5v-8.7c0-0.8-0.7-1.5-1.5-1.5h-27.5V27.3c0-0.8-0.7-1.5-1.5-1.5H182.4z"/>
		<path class="st0" d="M260.8,101c-17.1,0-29.9-12.4-29.9-28.8V27.3c0-1.4,1.1-2.5,2.5-2.5h10.1c1.4,0,2.5,1.1,2.6,2.5c0,0,0,0,0,0
			v44.2c0,8.8,6,14.8,14.9,14.8s15-6,15-14.6V27.3c0-1.4,1.1-2.5,2.5-2.5h10.1c1.4,0,2.5,1.1,2.5,2.5v44.9
			C290.9,88.6,277.9,101,260.8,101z M233.4,25.8c-0.8,0-1.5,0.7-1.5,1.5v44.9c0,15.8,12.4,27.8,28.9,27.8s29-11.9,29-27.8V27.3
			c0-0.8-0.7-1.5-1.5-1.5h-10.1c-0.8,0-1.5,0.7-1.5,1.5v44.3c0,9.2-6.6,15.6-16,15.6S245,80.9,245,71.5V27.3c0-0.8-0.7-1.5-1.5-1.5
			H233.4z"/>
		<path class="st0" d="M326,101c-13.9,0-21-6.1-23.6-8.4c-1.2-1-1.7-1.9-0.6-3.8l3.8-6.6c0.4-0.7,1.1-1.3,2-1.4
			c0.8-0.2,1.7,0,2.4,0.5c4.5,3.4,9.1,6.5,15.7,6.5c5.1,0,9.1-3.4,9.1-7.7c0-4.9-3.9-8.5-13.1-12.2c-8.6-3.5-20.2-9.7-20.2-23.3
			c0-10,7.6-20.8,24.3-20.8c7.7,0.2,15.2,2.7,21.5,7.2c0.6,0.4,1,1.1,1.2,1.8c0.2,0.8,0,1.7-0.4,2.4l-4,6c-1,1.5-2.8,2.5-4.4,1.4
			l-0.8-0.5c-4.3-2.7-8.3-5.2-13.7-5.2c-6.1,0-8.8,3.5-8.8,6.9c0,4.6,3.5,7.9,12.2,11.4c11.1,4.5,22.5,10.8,22.5,24.4
			C350.9,89.9,342.2,101,326,101z M308.1,81.8c-0.1,0-0.3,0-0.4,0c-0.5,0.1-1,0.4-1.3,0.9l-3.8,6.6c-0.8,1.5-0.5,1.8,0.4,2.5l0,0
			c2.6,2.2,9.4,8.1,23,8.1c15.5,0,23.9-10.6,23.9-20.5c0-13-11-19.1-21.8-23.5c-9.1-3.7-12.8-7.3-12.8-12.3c0-3.9,3-7.9,9.8-7.9
			c5.6,0,10,2.8,14.2,5.4l0.8,0.5c1,0.7,2.3-0.1,3-1.1l4-6c0.3-0.5,0.4-1,0.3-1.5c-0.1-0.5-0.4-0.9-0.8-1.2
			c-6.1-4.4-13.4-6.8-20.9-7c-11.2,0-23.3,6.2-23.3,19.8c0,13,11.2,19,19.6,22.4c9.6,3.9,13.8,7.8,13.8,13.2c0,4.8-4.5,8.7-10.1,8.7
			c-6.9,0-11.6-3.2-16.3-6.7C309,81.9,308.6,81.8,308.1,81.8z"/>
		<path class="st0" d="M373.6,99.9h-9.9c-1.4,0-2.5-1.1-2.5-2.5V27.3c0-1.4,1.1-2.5,2.5-2.5h9.9c1.4,0,2.5,1.1,2.5,2.5v70.1
			C376.1,98.8,375,99.9,373.6,99.9z M363.8,25.8c-0.8,0-1.5,0.7-1.5,1.5v70.1c0,0.8,0.7,1.5,1.5,1.5h9.9c0.8,0,1.5-0.7,1.5-1.5V27.3
			c0-0.8-0.7-1.5-1.5-1.5L363.8,25.8z"/>
		<path class="st0" d="M425.5,101c-21,0.2-38.3-16.7-38.5-37.7c0-0.3,0-0.5,0-0.8c-0.3-21.3,16.6-38.9,38-39.2s38.9,16.6,39.2,38
			c0,0.4,0,0.8,0,1.2c0.2,21.1-16.7,38.3-37.8,38.5C426.1,101,425.8,101,425.5,101z M425.5,24.8c-20.8,0.1-37.5,17-37.5,37.7
			c0.3,20.8,17.4,37.3,38.2,37c20.3-0.3,36.6-16.7,37-37C463.2,41.7,446.3,24.8,425.5,24.8z M425.5,87.2
			c-13.7,0-24.9-11.1-24.9-24.9s11.1-24.9,24.9-24.9s24.9,11.1,24.9,24.9c0,0,0,0.1,0,0.1C450.3,76.2,439.2,87.2,425.5,87.2
			C425.5,87.2,425.5,87.2,425.5,87.2z M425.5,38.5c-13.2,0-23.9,10.7-23.9,23.9c0,13.2,10.7,23.9,23.9,23.9
			c13.1,0,23.8-10.6,23.9-23.7C449.2,49.4,438.6,38.7,425.5,38.5z"/>
		<path class="st0" d="M536.1,101h-1.5c-0.8,0-1.6-0.3-2.2-0.9L489.6,53v44.4c0,1.4-1.1,2.5-2.5,2.5l0,0h-9.6
			c-1.4,0-2.5-1.1-2.5-2.5V26.2c0-1.4,1.2-2.4,2.5-2.4h1.6c0.8,0,1.6,0.3,2.2,0.9L523.8,70V27.3c0-1.4,1.1-2.5,2.5-2.5h9.8
			c1.4,0,2.5,1.1,2.5,2.5v71.3C538.5,99.9,537.4,101,536.1,101z M488.6,51.4h0.9l0.1,0.2l43.4,47.9c0.4,0.4,0.9,0.6,1.4,0.6h1.5
			c0.8,0,1.5-0.6,1.5-1.4V27.3c0-0.8-0.7-1.5-1.5-1.5h-9.8c-0.8,0-1.5,0.7-1.5,1.5c0,0,0,0,0,0v44.2h-0.9l-0.1-0.2l-43.2-46.1
			c-0.4-0.4-0.9-0.6-1.4-0.6h-1.6c-0.8,0-1.4,0.6-1.5,1.4v71.3c0,0.8,0.7,1.5,1.5,1.5h9.6c0.8,0,1.5-0.7,1.5-1.5L488.6,51.4z"/>
	</g>
</g>
</svg>
