<?xml version="1.0" encoding="utf-8"?>
<!-- Generator: Adobe Illustrator 25.4.1, SVG Export Plug-In . SVG Version: 6.00 Build 0)  -->
<svg version="1.1" id="Layer_1" xmlns="http://www.w3.org/2000/svg" xmlns:xlink="http://www.w3.org/1999/xlink" x="0px" y="0px"
	 viewBox="0 0 442.5 100" style="enable-background:new 0 0 442.5 100;" xml:space="preserve">
<style type="text/css">
	.st0{fill:#FFFFFF;}
</style>
<g>
	<path class="st0" d="M12.8,5c-0.8-1.8,0.3-3.6,2.4-3.6h14.2c1.2,0,2.1,0.8,2.4,1.5l26.8,59.7h0.7L86,2.9c0.3-0.7,1.1-1.5,2.4-1.5
		h14.2c2.1,0,3.2,1.8,2.4,3.6L61.8,98.5c-0.4,0.8-1.1,1.5-2.4,1.5H58c-1.2,0-1.9-0.7-2.4-1.5L12.8,5z"/>
	<path class="st0" d="M96.8,95L140,1.5c0.4-0.8,1.1-1.5,2.4-1.5h1.4c1.4,0,1.9,0.7,2.4,1.5L188.9,95c0.8,1.8-0.3,3.6-2.4,3.6h-12.1
		c-2.1,0-3.1-0.8-4-2.8l-6.8-15h-41.5l-6.8,15c-0.6,1.4-1.8,2.8-4,2.8H99.2C97.1,98.6,96,96.8,96.8,95z M156.8,65.4l-13.9-30.6h-0.4
		l-13.6,30.6H156.8z"/>
	<path class="st0" d="M201.2,4c0-1.4,1.1-2.6,2.6-2.6h12.8c1.4,0,2.6,1.2,2.6,2.6v77.9h35.4c1.5,0,2.6,1.3,2.6,2.6V96
		c0,1.4-1.1,2.6-2.6,2.6h-50.8c-1.5,0-2.6-1.3-2.6-2.6V4z"/>
	<path class="st0" d="M268.2,4c0-1.4,1.2-2.6,2.6-2.6H284c1.5,0,2.6,1.2,2.6,2.6v57.9c0,11.8,8.1,20,20.1,20s20.3-8.2,20.3-19.9V4
		c0-1.4,1.1-2.6,2.6-2.6h13.2c1.4,0,2.6,1.2,2.6,2.6v58.9c0,21.1-16.8,37.1-38.8,37.1c-21.8,0-38.6-16-38.6-37.1V4z"/>
	<path class="st0" d="M368.2,4c0-1.4,1.1-2.6,2.6-2.6h56.5c1.5,0,2.6,1.2,2.6,2.6v11.4c0,1.4-1.1,2.6-2.6,2.6h-41.1v22.8h34.3
		c1.4,0,2.6,1.3,2.6,2.6V55c0,1.5-1.3,2.6-2.6,2.6h-34.3v24.3h41.1c1.5,0,2.6,1.3,2.6,2.6V96c0,1.4-1.1,2.6-2.6,2.6h-56.5
		c-1.5,0-2.6-1.3-2.6-2.6V4z"/>
</g>
</svg>
