<?xml version="1.0" encoding="utf-8"?>
<!-- Generator: Adobe Illustrator 26.0.3, SVG Export Plug-In . SVG Version: 6.00 Build 0)  -->
<svg version="1.1" id="Layer_1" xmlns="http://www.w3.org/2000/svg" xmlns:xlink="http://www.w3.org/1999/xlink" x="0px" y="0px"
	 viewBox="0 0 972.9 100" style="enable-background:new 0 0 972.9 100;" xml:space="preserve">
<style type="text/css">
	.st0{fill:#FFFFFF;}
</style>
<g>
	<path class="st0" d="M61.8,1C75,1,87.3,6.1,96.5,15.4c9.2,9.3,14.3,21.6,14.3,34.8c0,13.2-5.1,25.5-14.3,34.6
		C87.3,93.9,75,99,61.8,99c-13.2,0-25.5-5.1-34.6-14.2C18,75.6,13,63.3,13,50.1C13,37,18,24.6,27.2,15.4C36.4,6.1,48.7,1,61.8,1
		 M61.8,82.9c18.2,0,32.9-14.7,32.9-32.8c0-8.7-3.4-17-9.7-23.3c-6.3-6.3-14.5-9.8-23.2-9.8c-8.7,0-16.9,3.5-23.2,9.8
		C32.5,33.1,29,41.4,29,50.1C29,68.2,43.7,82.9,61.8,82.9 M61.8,0C34.1,0,12,22.4,12,50.1C12,77.9,34.1,100,61.8,100
		s50-22.1,50-49.9C111.8,22.4,89.6,0,61.8,0L61.8,0z M61.8,81.9C44.3,81.9,30,67.6,30,50.1s14.3-32.1,31.8-32.1s31.9,14.6,31.9,32.1
		S79.3,81.9,61.8,81.9L61.8,81.9z"/>
	<path class="st0" d="M165,2.4c8,0,15.5,3.1,21.3,8.8c5.7,5.6,8.9,13.1,8.9,20.9c0,16.7-13.4,30.2-30,30.2h-17.4h-1v1V96
		c0,0.8-0.8,1.6-1.6,1.6h-12.8c-1,0-1.6-0.9-1.6-1.6V4c0-0.8,0.6-1.6,1.6-1.6H165 M146.8,47.4h1h16.7c8.4,0,14.7-6.6,14.7-15.4
		c0-8.1-6.5-14.5-14.7-14.5h-16.7h-1v1v27.9V47.4 M165,1.4h-32.6c-1.5,0-2.6,1.3-2.6,2.6V96c0,1.4,1.1,2.6,2.6,2.6h12.8
		c1.4,0,2.6-1.2,2.6-2.6V63.3h17.4c16.9,0,31-14,31-31.2C196.1,15.3,182.1,1.4,165,1.4L165,1.4z M147.8,46.4V18.5h16.7
		c7.8,0,13.7,5.8,13.7,13.5c0,8.2-6,14.4-13.7,14.4H147.8L147.8,46.4z"/>
	<path class="st0" d="M246.8,2.4c8,0,15.5,3.1,21.3,8.8c5.7,5.6,8.9,13.1,8.9,20.9c0,16.7-13.4,30.2-30,30.2h-17.4h-1v1V96
		c0,0.8-0.8,1.6-1.6,1.6h-12.8c-1,0-1.6-0.9-1.6-1.6V4c0-0.8,0.6-1.6,1.6-1.6H246.8 M228.6,47.4h1h16.7c8.4,0,14.7-6.6,14.7-15.4
		c0-8.1-6.5-14.5-14.7-14.5h-16.7h-1v1v27.9V47.4 M246.8,1.4h-32.6c-1.5,0-2.6,1.3-2.6,2.6V96c0,1.4,1.1,2.6,2.6,2.6H227
		c1.4,0,2.6-1.2,2.6-2.6V63.3H247c16.9,0,31-14,31-31.2C278,15.3,263.9,1.4,246.8,1.4L246.8,1.4z M229.6,46.4V18.5h16.7
		c7.8,0,13.7,5.8,13.7,13.5c0,8.2-6,14.4-13.7,14.4H229.6L229.6,46.4z"/>
	<path class="st0" d="M337.5,1c13.2,0,25.5,5.1,34.7,14.4c9.2,9.3,14.3,21.6,14.3,34.8c0,13.2-5.1,25.5-14.3,34.6
		C363,93.9,350.7,99,337.5,99c-13.2,0-25.5-5.1-34.6-14.2c-9.2-9.2-14.2-21.5-14.2-34.6c0-13.2,5.1-25.5,14.2-34.8
		C312.1,6.1,324.4,1,337.5,1 M337.5,82.9c18.2,0,32.9-14.7,32.9-32.8c0-8.7-3.4-17-9.7-23.3c-6.3-6.3-14.5-9.8-23.2-9.8
		c-8.7,0-16.9,3.5-23.2,9.8c-6.2,6.3-9.6,14.6-9.6,23.3C304.7,68.2,319.4,82.9,337.5,82.9 M337.5,0c-27.8,0-49.9,22.4-49.9,50.1
		c0,27.8,22.1,49.9,49.9,49.9s50-22.1,50-49.9C387.5,22.4,365.3,0,337.5,0L337.5,0z M337.5,81.9c-17.5,0-31.8-14.3-31.8-31.8
		s14.3-32.1,31.8-32.1c17.5,0,31.9,14.6,31.9,32.1S355,81.9,337.5,81.9L337.5,81.9z"/>
	<path class="st0" d="M447.8,2.4c16.1,0,29.3,12.9,29.3,28.9c0,11.8-7.6,22.2-19.9,27.1l-1,0.4l0.5,1l19,35.3c0.3,0.6,0.3,1.3,0,1.8
		c-0.3,0.5-0.8,0.7-1.5,0.7h-14.6c-0.9,0-1.2-0.5-1.3-0.7l-18.5-36.8l-0.3-0.6h-0.6h-15.4h-1v1V96c0,0.8-0.8,1.6-1.6,1.6h-12.8
		c-1,0-1.6-0.9-1.6-1.6V4c0-0.8,0.6-1.6,1.6-1.6H447.8 M422.7,46.7h1h22.6c8,0,14.7-6.9,14.7-15.2c0-7.8-6.8-14.5-14.7-14.5h-22.6
		h-1v1v27.6V46.7 M447.8,1.4h-39.7c-1.5,0-2.6,1.3-2.6,2.6V96c0,1.4,1.1,2.6,2.6,2.6h12.8c1.4,0,2.6-1.2,2.6-2.6V60.6h15.4
		l18.5,36.8c0.3,0.6,1,1.2,2.2,1.2h14.6c2.4,0,3.3-2.2,2.4-4l-19-35.3c12.1-4.9,20.6-15.3,20.6-28.1C478.1,14.7,464.5,1.4,447.8,1.4
		L447.8,1.4z M423.7,45.7V18.1h22.6c7.4,0,13.7,6.1,13.7,13.5c0,7.8-6.4,14.2-13.7,14.2H423.7L423.7,45.7z"/>
	<path class="st0" d="M552.3,2.4c1,0,1.6,0.9,1.6,1.6v11.4c0,0.8-0.6,1.6-1.6,1.6H531h-1v1V96c0,0.8-0.8,1.6-1.6,1.6h-12.9
		c-0.8,0-1.6-0.8-1.6-1.6V18.1v-1h-1h-21.2c-1,0-1.6-0.9-1.6-1.6V4c0-0.8,0.6-1.6,1.6-1.6H552.3 M552.3,1.4h-60.7
		c-1.5,0-2.6,1.3-2.6,2.6v11.4c0,1.4,1.1,2.6,2.6,2.6h21.2V96c0,1.4,1.3,2.6,2.6,2.6h12.9c1.4,0,2.6-1.2,2.6-2.6V18.1h21.3
		c1.5,0,2.6-1.3,2.6-2.6V4C554.9,2.6,553.8,1.4,552.3,1.4L552.3,1.4z"/>
	<path class="st0" d="M644.1,2.4c0.8,0,1.6,0.8,1.6,1.6v58.9c0,20.6-16.2,36.1-37.7,36.1c-10.3,0-19.8-3.7-26.8-10.3
		c-7-6.7-10.8-15.8-10.8-25.7V4c0-0.8,0.8-1.6,1.6-1.6h13.2c1,0,1.6,0.9,1.6,1.6v57.9c0,12.4,8.7,21,21.1,21
		c12.5,0,21.3-8.6,21.3-20.9V4c0-0.8,0.6-1.6,1.6-1.6H644.1 M644.1,1.4h-13.2c-1.5,0-2.6,1.3-2.6,2.6v58.1
		c0,11.7-8.2,19.9-20.3,19.9c-12.1,0-20.1-8.2-20.1-20V4c0-1.4-1.1-2.6-2.6-2.6H572c-1.4,0-2.6,1.3-2.6,2.6v58.9
		c0,21.1,16.8,37.1,38.6,37.1c21.9,0,38.7-16,38.7-37.1V4C646.7,2.6,645.5,1.4,644.1,1.4L644.1,1.4z"/>
	<path class="st0" d="M674.1,1c0.7,0,1.2,0.2,1.6,0.7l56.7,60.4l0.3,0.3h0.4h0.3h1v-1V4c0-0.8,0.6-1.6,1.6-1.6h12.8
		c0.8,0,1.6,0.8,1.6,1.6v93.5c0,0.8-0.8,1.5-1.6,1.5h-1.9c-0.7,0-1.2-0.2-1.6-0.6l-56.9-62.8l-0.3-0.3h-0.4h-0.3h-1v1V96
		c0,0.8-0.6,1.6-1.6,1.6H672c-0.8,0-1.6-0.8-1.6-1.6V2.5c0-0.8,0.8-1.5,1.6-1.5H674.1 M674.1,0H672c-1.4,0-2.6,1.1-2.6,2.5V96
		c0,1.4,1.2,2.6,2.6,2.6h12.6c1.5,0,2.6-1.2,2.6-2.6V36.2h0.3L744.5,99c0.7,0.7,1.4,1,2.4,1h1.9c1.4,0,2.6-1.1,2.6-2.5V4
		c0-1.4-1.2-2.6-2.6-2.6H736c-1.5,0-2.6,1.3-2.6,2.6v57.4h-0.3L676.4,1C675.7,0.3,675,0,674.1,0L674.1,0z"/>
	<path class="st0" d="M790.6,2.4c0.8,0,1.6,0.8,1.6,1.6V96c0,0.8-0.8,1.6-1.6,1.6h-12.9c-0.8,0-1.6-0.8-1.6-1.6V4
		c0-0.8,0.8-1.6,1.6-1.6H790.6 M790.6,1.4h-12.9c-1.4,0-2.6,1.3-2.6,2.6V96c0,1.4,1.2,2.6,2.6,2.6h12.9c1.4,0,2.6-1.2,2.6-2.6V4
		C793.2,2.6,792,1.4,790.6,1.4L790.6,1.4z"/>
	<path class="st0" d="M872,2.4c1,0,1.6,0.9,1.6,1.6v11.4c0,0.8-0.6,1.6-1.6,1.6h-21.3h-1v1V96c0,0.8-0.8,1.6-1.6,1.6h-12.9
		c-0.8,0-1.6-0.8-1.6-1.6V18.1v-1h-1h-21.2c-1,0-1.6-0.9-1.6-1.6V4c0-0.8,0.6-1.6,1.6-1.6H872 M872,1.4h-60.7
		c-1.5,0-2.6,1.3-2.6,2.6v11.4c0,1.4,1.1,2.6,2.6,2.6h21.2V96c0,1.4,1.3,2.6,2.6,2.6h12.9c1.4,0,2.6-1.2,2.6-2.6V18.1H872
		c1.5,0,2.6-1.3,2.6-2.6V4C874.6,2.6,873.5,1.4,872,1.4L872,1.4z"/>
	<path class="st0" d="M958.2,2.4c0.7,0,1.2,0.3,1.5,0.8c0.3,0.5,0.3,1.1-0.1,1.7l-32.1,46.2l-0.2,0.3v0.3V96c0,0.8-0.8,1.6-1.6,1.6
		H913c-1,0-1.6-0.9-1.6-1.6V51.8v-0.3l-0.2-0.3L879.5,4.9c-0.3-0.6-0.4-1.2-0.1-1.7c0.3-0.5,0.8-0.8,1.5-0.8h14.2
		c0.5,0,1,0.3,1.4,0.8l22.2,31.9l0.8,1.2l0.8-1.2l22.2-31.9c0.4-0.6,0.9-0.9,1.4-0.9H958.2 M958.2,1.4h-14.3c-1.1,0-1.8,0.7-2.2,1.3
		l-22.2,31.9L897.3,2.6c-0.4-0.6-1.1-1.3-2.2-1.3h-14.2c-2.2,0-3.3,2.2-2.2,4l31.7,46.4V96c0,1.4,1.1,2.6,2.6,2.6h12.8
		c1.4,0,2.6-1.2,2.6-2.6V51.7l32.1-46.3C961.6,3.6,960.5,1.4,958.2,1.4L958.2,1.4z"/>
</g>
</svg>
