<?xml version="1.0" encoding="utf-8"?>
<!-- Generator: Adobe Illustrator 26.0.3, SVG Export Plug-In . SVG Version: 6.00 Build 0)  -->
<svg version="1.1" id="Layer_1" xmlns="http://www.w3.org/2000/svg" xmlns:xlink="http://www.w3.org/1999/xlink" x="0px" y="0px"
	 viewBox="0 0 488.2 101" style="enable-background:new 0 0 488.2 101;" xml:space="preserve">
<style type="text/css">
	.st0{fill:#FFFFFF;}
</style>
<g>
	<path class="st0" d="M41.6,99.5h-13c-1.5,0-2.8-1.3-2.8-2.8V18.5H4.6c-1.5,0-2.8-1.3-2.8-2.8V4.3c0-1.5,1.3-2.8,2.8-2.8h61
		c1.5,0,2.8,1.3,2.8,2.8v11.4c0,1.5-1.3,2.8-2.8,2.8H44.4v78.2C44.4,98.2,43.1,99.5,41.6,99.5z M4.6,1.8c-1.4,0-2.5,1.1-2.5,2.5
		v11.4c0,1.4,1.1,2.5,2.5,2.5h21.5v78.5c0,1.3,1.2,2.5,2.5,2.5h13c1.3,0,2.5-1.2,2.5-2.5V18.2h21.5c1.4,0,2.5-1.1,2.5-2.5V4.3
		c0-1.4-1.1-2.5-2.5-2.5C65.6,1.8,4.6,1.8,4.6,1.8z"/>
	<path class="st0" d="M156.2,99.5h-12.1c-2.3,0-3.3-1.1-4.2-2.9l-6.8-15H91.6l-6.8,15c-0.3,0.9-1.4,2.9-4.2,2.9H68.5
		c-1,0-1.9-0.4-2.4-1.2c-0.5-0.8-0.5-1.7-0.1-2.6l43.4-93.9c0.5-1.1,1.4-1.6,2.5-1.6h1.4c1.5,0,2.1,0.8,2.5,1.6l43,93.9
		c0.4,0.9,0.4,1.9-0.1,2.6C158.1,99.1,157.3,99.5,156.2,99.5z M91.4,81.3h41.9v0.1l6.8,15.1c1,2,2,2.7,3.9,2.7h12.1
		c0.9,0,1.7-0.4,2.2-1.1c0.4-0.7,0.5-1.5,0.1-2.4l-43-93.9c-0.4-0.9-1-1.4-2.2-1.4h-1.4c-1,0-1.8,0.5-2.2,1.5L66.2,95.8
		c-0.4,0.8-0.4,1.7,0.1,2.4c0.4,0.7,1.2,1.1,2.2,1.1h12.1c2.6,0,3.6-1.9,3.9-2.7L91.4,81.3z M126.6,66.1H98.1l0.1-0.2l13.7-30.8h0.6
		v0.1L126.6,66.1z M98.5,65.8h27.6l-13.8-30.4h-0.2L98.5,65.8z"/>
	<path class="st0" d="M224.7,99.5h-51.1c-1.5,0-2.8-1.3-2.8-2.8V4.3c0-1.5,1.3-2.8,2.8-2.8h12.8c1.5,0,2.8,1.3,2.8,2.8v78.2h35.4
		c1.5,0,2.8,1.3,2.8,2.8v11.4C227.5,98.2,226.2,99.5,224.7,99.5z M173.6,1.8c-1.4,0-2.5,1.1-2.5,2.5v92.4c0,1.4,1.1,2.5,2.5,2.5
		h51.1c1.4,0,2.5-1.1,2.5-2.5V85.3c0-1.4-1.1-2.5-2.5-2.5H189V4.3c0-1.3-1.2-2.5-2.5-2.5C186.5,1.8,173.6,1.8,173.6,1.8z"/>
	<path class="st0" d="M300.9,99.5h-56.8c-1.5,0-2.8-1.3-2.8-2.8V4.3c0-1.5,1.3-2.8,2.8-2.8h56.8c1.5,0,2.8,1.3,2.8,2.8v11.4
		c0,1.5-1.3,2.8-2.8,2.8h-41.2v22.6H294c1.5,0,2.8,1.3,2.8,2.8v11.6c0,1.5-1.3,2.8-2.8,2.8h-34.3v24.1h41.2c1.5,0,2.8,1.3,2.8,2.8
		v11.4C303.7,98.2,302.5,99.5,300.9,99.5z M244.1,1.8c-1.4,0-2.5,1.1-2.5,2.5v92.4c0,1.4,1.1,2.5,2.5,2.5h56.8
		c1.4,0,2.5-1.1,2.5-2.5V85.3c0-1.4-1.1-2.5-2.5-2.5h-41.5V58H294c1.4,0,2.5-1.1,2.5-2.5V43.9c0-1.3-1.2-2.5-2.5-2.5h-34.6V18.2
		h41.5c1.4,0,2.5-1.1,2.5-2.5V4.3c0-1.4-1.1-2.5-2.5-2.5C300.9,1.8,244.1,1.8,244.1,1.8z"/>
	<path class="st0" d="M401.7,100.9h-2c-1,0-1.8-0.3-2.5-1L340,36.8l0,0v59.9c0,1.5-1.3,2.8-2.8,2.8h-12.7c-1.5,0-2.8-1.3-2.8-2.8
		V2.8c0-1.4,1.3-2.7,2.8-2.7h2.1c1,0,1.8,0.3,2.5,1L386,61.8h0.1V4.3c0-1.5,1.3-2.8,2.8-2.8h12.8c1.5,0,2.8,1.3,2.8,2.8v93.9
		C404.5,99.7,403.3,100.9,401.7,100.9z M339.7,36.5h0.5l0,0l57.2,63.1c0.7,0.7,1.3,0.9,2.3,0.9h2c1.4,0,2.5-1.1,2.5-2.4V4.3
		c0-1.3-1.2-2.5-2.5-2.5h-12.8c-1.4,0-2.5,1.1-2.5,2.5v57.8h-0.5l0,0l-57-60.8c-0.7-0.7-1.3-0.9-2.3-0.9h-2.1
		c-1.4,0-2.5,1.1-2.5,2.4v93.9c0,1.3,1.2,2.5,2.5,2.5h12.7c1.4,0,2.5-1.1,2.5-2.5V36.5z"/>
	<path class="st0" d="M459.6,99.5h-13c-1.5,0-2.8-1.3-2.8-2.8V18.5h-21.2c-1.5,0-2.8-1.3-2.8-2.8V4.3c0-1.5,1.3-2.8,2.8-2.8h61
		c1.5,0,2.8,1.3,2.8,2.8v11.4c0,1.5-1.3,2.8-2.8,2.8h-21.2v78.2C462.4,98.2,461.1,99.5,459.6,99.5z M422.6,1.8
		c-1.4,0-2.5,1.1-2.5,2.5v11.4c0,1.4,1.1,2.5,2.5,2.5h21.5v78.5c0,1.3,1.2,2.5,2.5,2.5h13c1.3,0,2.5-1.2,2.5-2.5V18.2h21.5
		c1.4,0,2.5-1.1,2.5-2.5V4.3c0-1.4-1.1-2.5-2.5-2.5C483.6,1.8,422.6,1.8,422.6,1.8z"/>
</g>
</svg>
