<?xml version="1.0" encoding="utf-8"?>
<!-- Generator: Adobe Illustrator 25.4.1, SVG Export Plug-In . SVG Version: 6.00 Build 0)  -->
<svg version="1.1" id="Layer_1" xmlns="http://www.w3.org/2000/svg" xmlns:xlink="http://www.w3.org/1999/xlink" x="0px" y="0px"
	 viewBox="0 0 979.5 101" style="enable-background:new 0 0 979.5 101;" xml:space="preserve">
<style type="text/css">
	.st0{fill:#FFFFFF;}
</style>
<g>
	<path class="st0" d="M65.2,100.6c-13.5,0-26.1-5.2-35.4-14.6c-9.4-9.4-14.5-22-14.5-35.4c0-13.5,5.2-26.1,14.5-35.6
		c9.4-9.5,22-14.7,35.4-14.7c13.5,0,26.1,5.2,35.5,14.7c9.4,9.5,14.6,22.1,14.6,35.6c0,13.5-5.2,26-14.6,35.4
		C91.2,95.5,78.6,100.6,65.2,100.6z M65.2,0.7c-13.4,0-25.9,5.2-35.2,14.6c-9.3,9.4-14.5,22-14.5,35.4c0,13.4,5.1,25.9,14.5,35.2
		c9.3,9.3,21.8,14.5,35.2,14.5c13.4,0,25.9-5.1,35.3-14.5C109.8,76.5,115,64,115,50.6c0-13.4-5.2-26-14.5-35.4
		C91.1,5.9,78.5,0.7,65.2,0.7z M65.2,82.6c-17.6,0-31.9-14.3-31.9-31.9c0-8.5,3.3-16.6,9.4-22.7c6.1-6.1,14.1-9.5,22.6-9.5
		c8.5,0,16.5,3.4,22.6,9.5c6.1,6.1,9.4,14.2,9.4,22.7c0,8.5-3.4,16.5-9.4,22.6C81.7,79.2,73.7,82.6,65.2,82.6z M65.2,18.7
		c-8.4,0-16.3,3.3-22.3,9.4c-6,6.1-9.3,14-9.3,22.5c0,17.4,14.2,31.6,31.6,31.6c8.4,0,16.4-3.3,22.4-9.3c6-6,9.4-13.9,9.4-22.3
		c0-8.4-3.3-16.4-9.4-22.5C81.5,22.1,73.6,18.7,65.2,18.7z"/>
	<path class="st0" d="M148.5,99.2h-12.8c-1.5,0-2.8-1.2-2.8-2.8V4.6c0-1.5,1.3-2.8,2.8-2.8h32.6c8.3,0,16.1,3.2,22.1,9.1
		c5.9,5.9,9.2,13.6,9.2,21.7c0,8.3-3.3,16.2-9.2,22.2c-5.9,5.9-13.7,9.2-21.9,9.2h-17.2v32.5C151.3,97.9,150,99.2,148.5,99.2z
		 M135.7,2.1c-1.4,0-2.5,1.1-2.5,2.5v91.9c0,1.4,1.1,2.5,2.5,2.5h12.8c1.3,0,2.5-1.2,2.5-2.5V63.7h17.5c8.2,0,15.9-3.2,21.7-9.1
		c5.9-5.9,9.1-13.7,9.1-22c0-8.1-3.2-15.7-9.1-21.5c-5.9-5.8-13.6-9-21.8-9H135.7z M167.8,47H151V18.8h16.8
		c7.9,0,13.9,5.9,13.9,13.6C181.7,40.8,175.7,47,167.8,47z M151.3,46.7h16.5c7.8,0,13.6-6.1,13.6-14.3c0-7.6-5.8-13.3-13.6-13.3
		h-16.5V46.7z"/>
	<path class="st0" d="M230.3,99.2h-12.8c-1.5,0-2.8-1.2-2.8-2.8V4.6c0-1.5,1.2-2.8,2.8-2.8h32.6c8.3,0,16.1,3.2,22.1,9.1
		c5.9,5.9,9.2,13.6,9.2,21.7c0,8.3-3.3,16.2-9.2,22.2c-5.9,5.9-13.7,9.2-21.9,9.2h-17.2v32.5C233.1,97.9,231.8,99.2,230.3,99.2z
		 M217.5,2.1c-1.4,0-2.5,1.1-2.5,2.5v91.9c0,1.4,1.1,2.5,2.5,2.5h12.8c1.3,0,2.5-1.2,2.5-2.5V63.7h17.5c8.2,0,15.9-3.2,21.7-9.1
		c5.9-5.9,9.1-13.7,9.1-22c0-8.1-3.2-15.7-9.1-21.5c-5.9-5.8-13.6-9-21.8-9H217.5z M249.6,47h-16.8V18.8h16.8
		c7.9,0,13.9,5.9,13.9,13.6C263.5,40.8,257.5,47,249.6,47z M233.1,46.7h16.5c7.8,0,13.6-6.1,13.6-14.3c0-7.6-5.8-13.3-13.6-13.3
		h-16.5V46.7z"/>
	<path class="st0" d="M340.9,100.6c-13.5,0-26.1-5.2-35.4-14.6c-9.4-9.4-14.5-22-14.5-35.4c0-13.5,5.2-26.1,14.5-35.6
		c9.4-9.5,22-14.7,35.4-14.7c13.5,0,26.1,5.2,35.5,14.7c9.4,9.5,14.6,22.1,14.6,35.6c0,13.5-5.2,26-14.6,35.4
		C366.9,95.5,354.3,100.6,340.9,100.6z M340.9,0.7c-13.4,0-25.9,5.2-35.2,14.6c-9.3,9.4-14.5,22-14.5,35.4
		c0,13.4,5.1,25.9,14.5,35.2c9.3,9.3,21.8,14.5,35.2,14.5c13.4,0,25.9-5.1,35.3-14.5c9.4-9.3,14.5-21.8,14.5-35.2
		c0-13.4-5.2-26-14.5-35.4C366.8,5.9,354.2,0.7,340.9,0.7z M340.9,82.6c-17.6,0-31.9-14.3-31.9-31.9c0-8.5,3.3-16.6,9.4-22.7
		c6.1-6.1,14.1-9.5,22.6-9.5c8.5,0,16.5,3.4,22.6,9.5c6.1,6.1,9.4,14.2,9.4,22.7c0,8.5-3.4,16.5-9.4,22.6
		C357.4,79.2,349.4,82.6,340.9,82.6z M340.9,18.7c-8.4,0-16.3,3.3-22.3,9.4c-6,6.1-9.3,14-9.3,22.5c0,17.4,14.2,31.6,31.6,31.6
		c8.4,0,16.4-3.3,22.4-9.3c6-6,9.4-13.9,9.4-22.3c0-8.4-3.3-16.4-9.4-22.5C357.2,22.1,349.3,18.7,340.9,18.7z"/>
	<path class="st0" d="M477.5,99.2h-14.6c-1.6,0-2.2-1-2.4-1.3l-18.4-36.7H427v35.2c0,1.5-1.3,2.8-2.8,2.8h-12.8
		c-1.5,0-2.8-1.2-2.8-2.8V4.6c0-1.5,1.3-2.8,2.8-2.8h39.7c16.8,0,30.4,13.5,30.4,30c0,12.2-7.8,23-20.5,28.1L480,95
		c0.5,1,0.5,2.1,0,2.9C479.5,98.8,478.6,99.2,477.5,99.2z M426.7,60.9h15.6l0,0.1l18.5,36.8c0.1,0.3,0.7,1.2,2.1,1.2h14.6
		c1,0,1.8-0.4,2.2-1.2c0.5-0.8,0.5-1.8,0-2.6l-19.1-35.4l0.2-0.1c12.6-5.1,20.4-15.8,20.4-27.9c0-16.4-13.5-29.7-30.1-29.7h-39.7
		c-1.4,0-2.5,1.1-2.5,2.5v91.9c0,1.4,1.1,2.5,2.5,2.5h12.8c1.3,0,2.5-1.2,2.5-2.5V60.9z M449.6,46.3h-22.8V18.4h22.8
		c7.5,0,13.9,6.2,13.9,13.6C463.5,39.8,457.1,46.3,449.6,46.3z M427.1,46h22.5c7.4,0,13.6-6.4,13.6-14c0-7.2-6.2-13.3-13.6-13.3
		h-22.5V46z"/>
	<path class="st0" d="M531.7,99.2h-12.9c-1.5,0-2.8-1.3-2.8-2.8V18.7h-21.1c-1.5,0-2.8-1.3-2.8-2.8V4.6c0-1.5,1.2-2.8,2.8-2.8h60.7
		c1.5,0,2.8,1.3,2.8,2.8v11.4c0,1.5-1.3,2.8-2.8,2.8h-21.1v77.7C534.5,97.9,533.1,99.2,531.7,99.2z M494.9,2.1
		c-1.4,0-2.5,1.1-2.5,2.5v11.4c0,1.4,1.1,2.5,2.5,2.5h21.4v78c0,1.3,1.2,2.5,2.5,2.5h12.9c1.3,0,2.5-1.2,2.5-2.5v-78h21.4
		c1.4,0,2.5-1.1,2.5-2.5V4.6c0-1.4-1.1-2.5-2.5-2.5H494.9z"/>
	<path class="st0" d="M611.3,100.6c-10.6,0-20.4-3.8-27.6-10.7c-7.2-6.9-11.2-16.3-11.2-26.5V4.6c0-1.5,1.3-2.8,2.8-2.8h13.2
		c1.5,0,2.8,1.3,2.8,2.8v57.9c0,11.9,8,19.8,20,19.8c11.8,0,20.1-8.1,20.1-19.7v-58c0-1.5,1.3-2.8,2.8-2.8h13.2
		c1.5,0,2.8,1.3,2.8,2.8v58.9c0,10.2-4,19.7-11.2,26.5C631.7,96.8,621.9,100.6,611.3,100.6z M575.3,2.1c-1.3,0-2.5,1.2-2.5,2.5v58.9
		c0,10.1,3.9,19.5,11.1,26.3c7.1,6.8,16.8,10.6,27.4,10.6c10.6,0,20.3-3.8,27.5-10.6c7.2-6.8,11.1-16.2,11.1-26.3V4.6
		c0-1.3-1.2-2.5-2.5-2.5h-13.2c-1.4,0-2.5,1.1-2.5,2.5v58c0,11.8-8.4,20-20.4,20c-12.1,0-20.3-8.1-20.3-20.1V4.6
		c0-1.4-1.1-2.5-2.5-2.5H575.3z"/>
	<path class="st0" d="M752.1,100.6h-1.9c-1,0-1.8-0.3-2.5-1l-56.9-62.7h-0.1v59.5c0,1.5-1.2,2.8-2.8,2.8h-12.6
		c-1.5,0-2.8-1.3-2.8-2.8V3c0-1.4,1.3-2.6,2.8-2.6h2.1c1,0,1.8,0.3,2.5,1l56.6,60.3h0.1V4.6c0-1.5,1.3-2.8,2.8-2.8h12.8
		c1.5,0,2.8,1.3,2.8,2.8V98C754.9,99.4,753.6,100.6,752.1,100.6z M690.4,36.6h0.5l0,0l56.9,62.7c0.7,0.7,1.3,0.9,2.3,0.9h1.9
		c1.3,0,2.5-1.1,2.5-2.3V4.6c0-1.3-1.2-2.5-2.5-2.5h-12.8c-1.4,0-2.5,1.1-2.5,2.5V62h-0.5l0,0L679.6,1.6c-0.7-0.7-1.3-0.9-2.3-0.9
		h-2.1c-1.3,0-2.5,1.1-2.5,2.3v93.4c0,1.3,1.2,2.5,2.5,2.5h12.6c1.4,0,2.5-1.1,2.5-2.5V36.6z"/>
	<path class="st0" d="M793.9,99.2H781c-1.5,0-2.8-1.3-2.8-2.8V4.6c0-1.5,1.3-2.8,2.8-2.8h12.9c1.5,0,2.8,1.3,2.8,2.8v91.9
		C796.7,97.9,795.4,99.2,793.9,99.2z M781,2.1c-1.3,0-2.5,1.2-2.5,2.5v91.9c0,1.3,1.2,2.5,2.5,2.5h12.9c1.3,0,2.5-1.2,2.5-2.5V4.6
		c0-1.3-1.2-2.5-2.5-2.5H781z"/>
	<path class="st0" d="M851.4,99.2h-12.9c-1.5,0-2.8-1.3-2.8-2.8V18.7h-21.1c-1.5,0-2.8-1.3-2.8-2.8V4.6c0-1.5,1.2-2.8,2.8-2.8h60.7
		c1.5,0,2.8,1.3,2.8,2.8v11.4c0,1.5-1.3,2.8-2.8,2.8h-21.1v77.7C854.2,97.9,852.8,99.2,851.4,99.2z M814.6,2.1
		c-1.4,0-2.5,1.1-2.5,2.5v11.4c0,1.4,1.1,2.5,2.5,2.5H836v78c0,1.3,1.2,2.5,2.5,2.5h12.9c1.3,0,2.5-1.2,2.5-2.5v-78h21.4
		c1.4,0,2.5-1.1,2.5-2.5V4.6c0-1.4-1.1-2.5-2.5-2.5H814.6z"/>
	<path class="st0" d="M929,99.2h-12.8c-1.5,0-2.8-1.2-2.8-2.8V52.3L881.8,6c-0.6-0.9-0.6-2-0.1-2.9c0.5-0.9,1.4-1.4,2.5-1.4h14.2
		c0.9,0,1.7,0.4,2.3,1.3l22.1,31.8l22.1-31.8c0.7-0.9,1.4-1.3,2.3-1.3h14.3c1.1,0,2,0.5,2.5,1.4c0.5,0.9,0.4,2-0.1,2.9l-32,46.2
		v44.2C931.8,97.9,930.5,99.2,929,99.2z M884.2,2.1c-1,0-1.8,0.4-2.2,1.2c-0.4,0.8-0.4,1.8,0.1,2.6l31.7,46.4v44.2
		c0,1.4,1.1,2.5,2.5,2.5H929c1.3,0,2.5-1.2,2.5-2.5V52.1l0,0l32.1-46.2c0.5-0.8,0.5-1.8,0.1-2.6c-0.4-0.8-1.2-1.2-2.2-1.2h-14.3
		c-0.8,0-1.5,0.4-2.1,1.2l-22.3,32.1l-0.1-0.2L900.4,3.2c-0.6-0.8-1.3-1.2-2.1-1.2H884.2z"/>
</g>
</svg>
