<?xml version="1.0" encoding="utf-8"?>
<!-- Generator: Adobe Illustrator 25.4.1, SVG Export Plug-In . SVG Version: 6.00 Build 0)  -->
<svg version="1.1" id="Layer_1" xmlns="http://www.w3.org/2000/svg" xmlns:xlink="http://www.w3.org/1999/xlink" x="0px" y="0px"
	 viewBox="0 0 537.6 100" style="enable-background:new 0 0 537.6 100;" xml:space="preserve">
<style type="text/css">
	.st0{fill:#FFFFFF;}
</style>
<g id="Layer_2_00000155843056645336236740000010768652927267241399_">
	<g id="Layer_1-2">
		<path class="st0" d="M0,26.8c0-1.1,0.9-2,2-2h9.9c1.1,0,2,0.9,2,2v70.1c0,1.1-0.9,2-2,2H2c-1.1,0-2-0.9-2-2V26.8z"/>
		<path class="st0" d="M30.1,25.7c0-1.1,0.9-1.9,2-1.9h1.6c0.7,0,1.3,0.2,1.8,0.7l43.2,46.1h0.2V26.8c0-1.1,0.9-2,2-2h9.7
			c1.1,0,2,0.9,2,2v71.3c0,1.1-0.9,1.9-2,1.9h-1.5c-0.7,0-1.3-0.2-1.8-0.7L44,51.4h-0.2v45.5c0,1.1-0.9,2-2,2h-9.7c-1.1,0-2-0.9-2-2
			L30.1,25.7z"/>
		<path class="st0" d="M142.8,23.8c10.7,0,18.4,3.4,25.6,9.8c0.9,0.7,1,2,0.3,2.8c-0.1,0.1-0.1,0.1-0.2,0.2l-6.5,6.6
			c-0.6,0.7-1.7,0.8-2.4,0.2c-0.1-0.1-0.2-0.2-0.2-0.2c-4.5-4-10.3-6.2-16.3-6.2c-13.6,0-23.6,11.3-23.6,24.7s10.2,24.5,23.7,24.5
			c5.9,0,11.7-2.2,16.2-6c0.8-0.7,1.9-0.7,2.6,0l6.6,6.8c0.8,0.8,0.7,2.1-0.1,2.8c0,0,0,0,0,0c-6.9,6.7-16.1,10.3-25.7,10.2
			c-21.1,0.3-38.4-16.5-38.7-37.5c-0.3-21.1,16.5-38.4,37.5-38.7C141.9,23.7,142.3,23.7,142.8,23.8z"/>
		<path class="st0" d="M179.9,26.8c0-1.1,0.9-2,2-2h9.8c1.1,0,2,0.9,2,2v59.4h27c1.1,0,2,0.9,2,2v8.7c0,1.1-0.9,2-2,2h-38.7
			c-1.1,0-2-0.9-2-2L179.9,26.8z"/>
		<path class="st0" d="M230.9,26.8c0-1.1,0.9-2,2-2h10.1c1.1,0,2,0.9,2,2V71c0,9,6.1,15.2,15.4,15.2c9.2,0,15.5-6.2,15.5-15.2V26.8
			c0-1.1,0.9-2,2-2h10.1c1.1,0,2,0.9,2,2v44.9c0,16.1-12.8,28.3-29.5,28.3s-29.4-12.2-29.4-28.3L230.9,26.8z"/>
		<path class="st0" d="M302.2,91.7c-1.1-0.8-1.5-1.5-0.5-3.2l3.8-6.6c0.7-1.2,2.2-1.6,3.3-0.9c0.1,0.1,0.2,0.1,0.3,0.2
			c4.4,3.3,9.1,6.6,16,6.6c5.5,0,9.6-3.6,9.6-8.2c0-5.4-4.5-9.1-13.5-12.7c-10-4-19.9-10.4-19.9-22.9c0-9.4,7-20.3,23.8-20.3
			c7.6,0.1,15,2.6,21.2,7.1c1.1,0.8,1.4,2.3,0.6,3.5l-4,6c-0.8,1.3-2.4,2.1-3.7,1.3c-4.6-2.9-8.9-5.8-14.7-5.8c-6,0-9.3,3.4-9.3,7.4
			c0,5,3.9,8.4,12.5,11.9c10.3,4.1,22.1,10.3,22.1,23.9c0,10.9-9.4,21-24.4,21C312.2,100,305.3,94.4,302.2,91.7z"/>
		<path class="st0" d="M361.2,26.8c0-1.1,0.9-2,2-2h9.9c1.1,0,2,0.9,2,2v70.1c0,1.1-0.9,2-2,2h-9.9c-1.1,0-2-0.9-2-2V26.8z"/>
		<path class="st0" d="M425,23.8c21.1-0.1,38.2,16.9,38.3,38c0.1,21.1-16.9,38.2-38,38.3c-21.1,0.1-38.2-16.9-38.3-38c0,0,0,0,0,0
			c-0.1-21,16.8-38.1,37.9-38.2C424.9,23.8,425,23.8,425,23.8z M425,86.2c13.5,0.1,24.4-10.8,24.5-24.3s-10.8-24.4-24.3-24.5
			c-13.5-0.1-24.4,10.8-24.5,24.3c0,0.1,0,0.2,0,0.2C400.8,75.4,411.6,86.2,425,86.2z"/>
		<path class="st0" d="M475,25.7c0-1.1,0.9-1.9,2-1.9h1.6c0.7,0,1.3,0.2,1.8,0.7l43.2,46.1h0.2V26.8c0-1.1,0.9-2,2-2h9.8
			c1.1,0,2,0.9,2,2v71.3c0,1.1-0.9,1.9-2,1.9h-1.5c-0.7,0-1.3-0.2-1.8-0.7l-43.4-47.9h-0.2v45.5c0,1.1-0.9,2-2,2H477
			c-1.1,0-2-0.9-2-2V25.7z"/>
	</g>
</g>
</svg>
