<?xml version="1.0" encoding="utf-8"?>
<!-- Generator: Adobe Illustrator 26.0.3, SVG Export Plug-In . SVG Version: 6.00 Build 0)  -->
<svg version="1.1" id="Layer_1" xmlns="http://www.w3.org/2000/svg" xmlns:xlink="http://www.w3.org/1999/xlink" x="0px" y="0px"
	 viewBox="0 0 506 100" style="enable-background:new 0 0 506 100;" xml:space="preserve">
<style type="text/css">
	.st0{fill:#FFFFFF;}
</style>
<g>
	<path class="st0" d="M75.4,2.4c1,0,1.6,0.8,1.6,1.6v11.4c0,0.8-0.6,1.6-1.6,1.6H54.1h-1v1v78c0,0.8-0.8,1.6-1.6,1.6H38.6
		c-0.8,0-1.6-0.8-1.6-1.6V18.1v-1h-1H14.7c-1,0-1.6-0.8-1.6-1.6V4c0-0.8,0.6-1.6,1.6-1.6H75.4 M75.4,1.4H14.7
		c-1.5,0-2.6,1.3-2.6,2.6v11.4c0,1.4,1.1,2.6,2.6,2.6H36v78c0,1.4,1.2,2.6,2.6,2.6h12.9c1.4,0,2.6-1.3,2.6-2.6V18.1h21.2
		c1.5,0,2.6-1.3,2.6-2.6V4C78,2.6,76.9,1.4,75.4,1.4L75.4,1.4z"/>
	<path class="st0" d="M122.8,1c0.8,0,1.1,0.3,1.5,0.9L167,95.4c0.3,0.5,0.2,1.1,0,1.5c-0.3,0.4-0.8,0.7-1.4,0.7h-12.1
		c-1.6,0-2.3-0.5-3.1-2.2l-6.8-15l-0.3-0.6h-0.6h-41.5h-0.6l-0.3,0.6l-6.8,15c-0.3,0.8-1.1,2.2-3.1,2.2H78.2c-0.6,0-1.2-0.2-1.4-0.7
		c-0.3-0.4-0.3-1,0-1.5L119.9,2c0.3-0.7,0.8-1,1.5-1H122.8 M106.4,66.4h1.5h27.9h1.6l-0.6-1.4l-13.9-30.6l-0.3-0.6H122h-0.4H121
		l-0.3,0.6L107,65L106.4,66.4 M122.8,0h-1.4c-1.2,0-1.9,0.7-2.4,1.5L75.8,95c-0.8,1.8,0.3,3.6,2.4,3.6h12.1c2.2,0,3.5-1.4,4-2.8
		l6.8-15h41.5l6.8,15c1,1.9,1.9,2.8,4,2.8h12.1c2.1,0,3.2-1.8,2.4-3.6L125.2,1.5C124.7,0.7,124.2,0,122.8,0L122.8,0z M107.9,65.4
		l13.6-30.6h0.4l13.9,30.6H107.9L107.9,65.4z"/>
	<path class="st0" d="M195.6,2.4c0.8,0,1.6,0.8,1.6,1.6v77.9v1h1h35.4c1,0,1.6,0.9,1.6,1.6V96c0,0.8-0.6,1.6-1.6,1.6h-50.8
		c-1,0-1.6-0.8-1.6-1.6V4c0-0.8,0.6-1.6,1.6-1.6H195.6 M195.6,1.4h-12.8c-1.5,0-2.6,1.3-2.6,2.6v92c0,1.4,1.1,2.6,2.6,2.6h50.8
		c1.5,0,2.6-1.3,2.6-2.6V84.6c0-1.4-1.1-2.6-2.6-2.6h-35.4V4C198.3,2.6,197,1.4,195.6,1.4L195.6,1.4z"/>
	<path class="st0" d="M309.5,2.4c1,0,1.6,0.8,1.6,1.6v11.4c0,0.8-0.6,1.6-1.6,1.6h-41.1h-1v1v22.8v1h1h34.3c0.8,0,1.6,0.8,1.6,1.6
		V55c0,1-0.9,1.6-1.6,1.6h-34.3h-1v1v24.3v1h1h41.1c1,0,1.6,0.9,1.6,1.6V96c0,0.8-0.6,1.6-1.6,1.6H253c-1,0-1.6-0.8-1.6-1.6V4
		c0-0.8,0.6-1.6,1.6-1.6H309.5 M309.5,1.4H253c-1.5,0-2.6,1.3-2.6,2.6v92c0,1.4,1.1,2.6,2.6,2.6h56.5c1.5,0,2.6-1.3,2.6-2.6V84.6
		c0-1.4-1.1-2.6-2.6-2.6h-41.1V57.6h34.3c1.4,0,2.6-1.1,2.6-2.6V43.5c0-1.4-1.2-2.6-2.6-2.6h-34.3V18.1h41.1c1.5,0,2.6-1.3,2.6-2.6
		V4C312.2,2.6,311.1,1.4,309.5,1.4L309.5,1.4z"/>
	<path class="st0" d="M335.1,1c0.7,0,1.2,0.2,1.6,0.7l56.7,60.4l0.3,0.3h0.4h0.3h1v-1V4c0-0.8,0.6-1.6,1.6-1.6h12.8
		c0.8,0,1.6,0.8,1.6,1.6v93.5c0,0.8-0.8,1.5-1.6,1.5h-1.9c-0.7,0-1.1-0.2-1.6-0.7l-56.9-62.8l-0.3-0.3h-0.4h-0.3h-1v1V96
		c0,0.8-0.6,1.6-1.6,1.6h-12.6c-0.8,0-1.6-0.8-1.6-1.6V2.5c0-0.8,0.8-1.5,1.6-1.5H335.1 M335.1,0H333c-1.4,0-2.6,1.1-2.6,2.5V96
		c0,1.4,1.2,2.6,2.6,2.6h12.6c1.5,0,2.6-1.3,2.6-2.6V36.3h0.3l57,62.7c0.7,0.7,1.4,1,2.4,1h1.9c1.4,0,2.6-1.1,2.6-2.5V4
		c0-1.4-1.2-2.6-2.6-2.6H397c-1.5,0-2.6,1.3-2.6,2.6v57.4h-0.3L337.5,1C336.8,0.3,336.1,0,335.1,0L335.1,0z"/>
	<path class="st0" d="M491.3,2.4c1,0,1.6,0.8,1.6,1.6v11.4c0,0.8-0.6,1.6-1.6,1.6H470h-1v1v78c0,0.8-0.8,1.6-1.6,1.6h-12.9
		c-0.8,0-1.6-0.8-1.6-1.6V18.1v-1h-1h-21.2c-1,0-1.6-0.8-1.6-1.6V4c0-0.8,0.6-1.6,1.6-1.6H491.3 M491.3,1.4h-60.7
		c-1.5,0-2.6,1.3-2.6,2.6v11.4c0,1.4,1.1,2.6,2.6,2.6h21.2v78c0,1.4,1.2,2.6,2.6,2.6h12.9c1.4,0,2.6-1.3,2.6-2.6V18.1h21.2
		c1.5,0,2.6-1.3,2.6-2.6V4C493.9,2.6,492.8,1.4,491.3,1.4L491.3,1.4z"/>
</g>
<g>
	<path class="st0" d="M75.4,2.4c1,0,1.6,0.8,1.6,1.6v11.4c0,0.8-0.6,1.6-1.6,1.6H54.1h-1v1V96c0,0.8-0.8,1.6-1.6,1.6H38.6
		c-0.8,0-1.6-0.8-1.6-1.6V18.1v-1h-1H14.7c-1,0-1.6-0.8-1.6-1.6V4c0-0.8,0.6-1.6,1.6-1.6H75.4 M75.4,1.4H14.7
		c-1.5,0-2.6,1.3-2.6,2.6v11.4c0,1.4,1.1,2.6,2.6,2.6h21.2V96c0,1.4,1.2,2.6,2.6,2.6h12.9c1.4,0,2.6-1.3,2.6-2.6V18.1h21.2
		c1.5,0,2.6-1.3,2.6-2.6V4C78,2.6,76.9,1.4,75.4,1.4L75.4,1.4z"/>
	<path class="st0" d="M122.8,1c0.8,0,1.1,0.3,1.5,0.9L167,95.4c0.3,0.5,0.2,1.1,0,1.5c-0.3,0.4-0.8,0.7-1.4,0.7h-12.1
		c-1.6,0-2.3-0.5-3.1-2.2l-6.8-15l-0.3-0.6h-0.6h-41.5h-0.6l-0.3,0.6l-6.8,15c-0.3,0.8-1.1,2.2-3.1,2.2H78.2c-0.6,0-1.2-0.2-1.4-0.7
		c-0.3-0.4-0.3-1,0-1.5L119.9,2c0.3-0.7,0.8-1,1.5-1H122.8 M106.4,66.4h1.5h27.9h1.6l-0.6-1.4l-13.9-30.6l-0.3-0.6H122h-0.4h-0.6
		l-0.3,0.6L107,65L106.4,66.4 M122.8,0h-1.4c-1.2,0-1.9,0.7-2.4,1.5L75.8,95c-0.8,1.8,0.3,3.6,2.4,3.6h12.1c2.2,0,3.5-1.4,4-2.8
		l6.8-15h41.5l6.8,15c1,1.9,1.9,2.8,4,2.8h12.1c2.1,0,3.2-1.8,2.4-3.6L125.2,1.5C124.7,0.7,124.2,0,122.8,0L122.8,0z M107.9,65.4
		l13.6-30.6h0.4l13.9,30.6H107.9L107.9,65.4z"/>
	<path class="st0" d="M195.6,2.4c0.8,0,1.6,0.8,1.6,1.6v77.9v1h1h35.4c1,0,1.6,0.9,1.6,1.6V96c0,0.8-0.6,1.6-1.6,1.6h-50.8
		c-1,0-1.6-0.8-1.6-1.6V4c0-0.8,0.6-1.6,1.6-1.6H195.6 M195.6,1.4h-12.8c-1.5,0-2.6,1.3-2.6,2.6V96c0,1.4,1.1,2.6,2.6,2.6h50.8
		c1.5,0,2.6-1.3,2.6-2.6V84.6c0-1.4-1.1-2.6-2.6-2.6h-35.4V4C198.3,2.6,197,1.4,195.6,1.4L195.6,1.4z"/>
	<path class="st0" d="M309.5,2.4c1,0,1.6,0.8,1.6,1.6v11.4c0,0.8-0.6,1.6-1.6,1.6h-41.1h-1v1v22.8v1h1h34.3c0.8,0,1.6,0.8,1.6,1.6
		V55c0,1-0.8,1.6-1.6,1.6h-34.3h-1v1v24.3v1h1h41.1c1,0,1.6,0.9,1.6,1.6V96c0,0.8-0.6,1.6-1.6,1.6H253c-1,0-1.6-0.8-1.6-1.6V4
		c0-0.8,0.6-1.6,1.6-1.6H309.5 M309.5,1.4H253c-1.5,0-2.6,1.3-2.6,2.6V96c0,1.4,1.1,2.6,2.6,2.6h56.5c1.5,0,2.6-1.3,2.6-2.6V84.6
		c0-1.4-1.1-2.6-2.6-2.6h-41.1V57.6h34.3c1.4,0,2.6-1.1,2.6-2.6V43.5c0-1.4-1.2-2.6-2.6-2.6h-34.3V18.1h41.1c1.5,0,2.6-1.3,2.6-2.6
		V4C312.2,2.6,311.1,1.4,309.5,1.4L309.5,1.4z"/>
	<path class="st0" d="M335.1,1c0.7,0,1.2,0.2,1.6,0.7l56.7,60.4l0.3,0.3h0.4h0.3h1v-1V4c0-0.8,0.6-1.6,1.6-1.6h12.8
		c0.8,0,1.6,0.8,1.6,1.6v93.5c0,0.8-0.8,1.5-1.6,1.5h-1.9c-0.7,0-1.2-0.2-1.6-0.6l-56.9-62.8l-0.3-0.3h-0.4h-0.3h-1v1V96
		c0,0.8-0.6,1.6-1.6,1.6H333c-0.8,0-1.6-0.8-1.6-1.6V2.5c0-0.8,0.8-1.5,1.6-1.5H335.1 M335.1,0H333c-1.4,0-2.6,1.1-2.6,2.5V96
		c0,1.4,1.2,2.6,2.6,2.6h12.6c1.5,0,2.6-1.3,2.6-2.6V36.3h0.3L405.5,99c0.7,0.7,1.4,1,2.4,1h1.9c1.4,0,2.6-1.1,2.6-2.5V4
		c0-1.4-1.2-2.6-2.6-2.6h-12.8c-1.5,0-2.6,1.3-2.6,2.6v57.4h-0.3L337.5,1C336.8,0.3,336.1,0,335.1,0L335.1,0z"/>
	<path class="st0" d="M491.3,2.4c1,0,1.6,0.8,1.6,1.6v11.4c0,0.8-0.6,1.6-1.6,1.6h-21.2h-1v1V96c0,0.8-0.8,1.6-1.6,1.6h-12.9
		c-0.8,0-1.6-0.8-1.6-1.6V18.1v-1h-1h-21.2c-1,0-1.6-0.8-1.6-1.6V4c0-0.8,0.6-1.6,1.6-1.6H491.3 M491.3,1.4h-60.7
		c-1.5,0-2.6,1.3-2.6,2.6v11.4c0,1.4,1.1,2.6,2.6,2.6h21.2V96c0,1.4,1.2,2.6,2.6,2.6h12.9c1.4,0,2.6-1.3,2.6-2.6V18.1h21.2
		c1.5,0,2.6-1.3,2.6-2.6V4C493.9,2.6,492.8,1.4,491.3,1.4L491.3,1.4z"/>
</g>
</svg>
