<?xml version="1.0" encoding="utf-8"?>
<!-- Generator: Adobe Illustrator 26.0.3, SVG Export Plug-In . SVG Version: 6.00 Build 0)  -->
<svg version="1.1" id="Layer_1" xmlns="http://www.w3.org/2000/svg" xmlns:xlink="http://www.w3.org/1999/xlink" x="0px" y="0px"
	 viewBox="0 0 1037.8 100" style="enable-background:new 0 0 1037.8 100;" xml:space="preserve">
<style type="text/css">
	.st0{fill:#FFFFFF;}
</style>
<g>
	<path class="st0" d="M29.2,4c0-1.4,1.1-2.6,2.5-2.6h32.9c26.8,0,48.8,21.8,48.8,48.5c0,26.9-21.9,48.7-48.8,48.7H31.7
		c-1.4,0-2.5-1.2-2.5-2.6V4z M62.9,81.7c18.1,0,31.3-12.8,31.3-31.8C94.2,31,81,18.2,62.9,18.2H47.1v63.5H62.9z"/>
	<path class="st0" d="M131.3,4c0-1.4,1.1-2.6,2.6-2.6h56.5c1.5,0,2.6,1.2,2.6,2.6v11.4c0,1.4-1.1,2.6-2.6,2.6h-41.1v22.8h34.3
		c1.4,0,2.6,1.2,2.6,2.6V55c0,1.5-1.3,2.6-2.6,2.6h-34.3v24.3h41.1c1.5,0,2.6,1.3,2.6,2.6V96c0,1.4-1.1,2.6-2.6,2.6h-56.5
		c-1.5,0-2.6-1.2-2.6-2.6V4z"/>
	<path class="st0" d="M199.7,5c-0.8-1.8,0.3-3.6,2.4-3.6h14.2c1.2,0,2.1,0.8,2.4,1.5l26.8,59.7h0.7l26.8-59.7
		c0.3-0.7,1.1-1.5,2.4-1.5h14.2c2.1,0,3.2,1.8,2.4,3.6l-43.1,93.5c-0.4,0.8-1.1,1.5-2.4,1.5h-1.4c-1.2,0-1.9-0.7-2.4-1.5L199.7,5z"
		/>
	<path class="st0" d="M303.7,4c0-1.4,1.1-2.6,2.6-2.6h56.5c1.5,0,2.6,1.2,2.6,2.6v11.4c0,1.4-1.1,2.6-2.6,2.6h-41.1v22.8h34.3
		c1.4,0,2.6,1.2,2.6,2.6V55c0,1.5-1.3,2.6-2.6,2.6h-34.3v24.3h41.1c1.5,0,2.6,1.3,2.6,2.6V96c0,1.4-1.1,2.6-2.6,2.6h-56.5
		c-1.5,0-2.6-1.2-2.6-2.6V4z"/>
	<path class="st0" d="M383.8,4c0-1.4,1.1-2.6,2.6-2.6h12.8c1.4,0,2.6,1.2,2.6,2.6v77.9h35.4c1.5,0,2.6,1.3,2.6,2.6V96
		c0,1.4-1.1,2.6-2.6,2.6h-50.8c-1.5,0-2.6-1.2-2.6-2.6V4z"/>
	<path class="st0" d="M495.6,0c27.8,0,50,22.4,50,50.1c0,27.8-22.2,49.9-50,49.9c-27.8,0-49.9-22.1-49.9-49.9
		C445.8,22.4,467.9,0,495.6,0z M495.6,81.9c17.5,0,31.9-14.3,31.9-31.8s-14.4-32.1-31.9-32.1c-17.5,0-31.8,14.6-31.8,32.1
		S478.1,81.9,495.6,81.9z"/>
	<path class="st0" d="M563.6,4c0-1.4,1.1-2.6,2.6-2.6h32.6C616,1.4,630,15.3,630,32.1c0,17.2-14,31.2-31,31.2h-17.4V96
		c0,1.4-1.2,2.6-2.6,2.6h-12.8c-1.5,0-2.6-1.2-2.6-2.6V4z M598.3,46.4c7.8,0,13.8-6.2,13.8-14.4c0-7.6-6-13.5-13.8-13.5h-16.7v27.9
		H598.3z"/>
	<path class="st0" d="M654.6,2.1c0.1-1.1,1-2.1,2.5-2.1h2.2c1.1,0,1.9,0.6,2.4,1.4l30.6,65.6c0.3,0,0.3,0,0.4,0l30.6-65.6
		c0.4-0.8,1.1-1.4,2.4-1.4h2.2c1.5,0,2.4,1,2.5,2.1l16.4,93.3c0.4,1.9-0.7,3.2-2.5,3.2h-12.6c-1.2,0-2.4-1.1-2.6-2.1l-8.2-52.6
		c-0.1,0-0.4,0-0.4,0L696,98.5c-0.3,0.8-1.1,1.5-2.4,1.5h-2.5c-1.3,0-1.9-0.7-2.4-1.5l-24.6-54.6c0,0-0.3,0-0.4,0l-8.1,52.6
		c-0.1,1-1.3,2.1-2.5,2.1h-12.5c-1.8,0-2.9-1.2-2.6-3.2L654.6,2.1z"/>
	<path class="st0" d="M765.1,4c0-1.4,1.1-2.6,2.6-2.6h56.5c1.5,0,2.6,1.2,2.6,2.6v11.4c0,1.4-1.1,2.6-2.6,2.6h-41.1v22.8h34.3
		c1.4,0,2.6,1.2,2.6,2.6V55c0,1.5-1.2,2.6-2.6,2.6h-34.3v24.3h41.1c1.5,0,2.6,1.3,2.6,2.6V96c0,1.4-1.1,2.6-2.6,2.6h-56.5
		c-1.5,0-2.6-1.2-2.6-2.6V4z"/>
	<path class="st0" d="M845.1,2.5c0-1.4,1.2-2.5,2.6-2.5h2.1c1,0,1.7,0.3,2.4,1l56.7,60.4h0.3V4c0-1.4,1.1-2.6,2.6-2.6h12.8
		c1.4,0,2.6,1.2,2.6,2.6v93.5c0,1.4-1.2,2.5-2.6,2.5h-1.9c-1,0-1.7-0.3-2.4-1l-56.9-62.8h-0.3V96c0,1.4-1.1,2.6-2.6,2.6h-12.6
		c-1.4,0-2.6-1.2-2.6-2.6V2.5z"/>
	<path class="st0" d="M966.6,18.1h-21.2c-1.5,0-2.6-1.2-2.6-2.6V4c0-1.4,1.1-2.6,2.6-2.6h60.7c1.5,0,2.6,1.2,2.6,2.6v11.4
		c0,1.4-1.1,2.6-2.6,2.6h-21.2V96c0,1.4-1.3,2.6-2.6,2.6h-12.9c-1.4,0-2.6-1.2-2.6-2.6V18.1z"/>
</g>
</svg>
