<svg xmlns="http://www.w3.org/2000/svg" viewBox="0 0 910.33 101"><defs><style>.cls-1{fill:#fff;}</style></defs><g id="Layer_2" data-name="Layer 2"><g id="Layer_1-2" data-name="Layer 1"><path class="cls-1" d="M69.25,99.61H54.67A2.86,2.86,0,0,1,52,98.08L33.66,61.56H19.06V96.47a3.23,3.23,0,0,1-3.14,3.14H3.14A3.15,3.15,0,0,1,0,96.47V4.53A3.15,3.15,0,0,1,3.14,1.39H42.86A30.61,30.61,0,0,1,73.64,31.75c0,12.25-7.78,23-20.35,28.31L72.05,94.85a3.33,3.33,0,0,1,0,3.29A3.16,3.16,0,0,1,69.25,99.61Zm-51.19-39H34.28l.14.27L52.89,97.64a1.88,1.88,0,0,0,1.78,1H69.25a2.14,2.14,0,0,0,1.94-1,2.33,2.33,0,0,0,0-2.3L51.88,59.55l.52-.21c12.48-5,20.24-15.59,20.24-27.59A29.61,29.61,0,0,0,42.86,2.39H3.14A2.14,2.14,0,0,0,1,4.53V96.47a2.14,2.14,0,0,0,2.14,2.14H15.92a2.22,2.22,0,0,0,2.14-2.14ZM41.33,46.69H18.19V18.06H41.33A14.3,14.3,0,0,1,55.58,32C55.58,40,49.06,46.69,41.33,46.69Zm-22.14-1H41.33c7.19,0,13.25-6.25,13.25-13.66a13.28,13.28,0,0,0-13.25-13H19.19Z"/><path class="cls-1" d="M149,99.61H92.45a3.15,3.15,0,0,1-3.14-3.14V4.53a3.15,3.15,0,0,1,3.14-3.14H149a3.14,3.14,0,0,1,3.14,3.14V15.92A3.14,3.14,0,0,1,149,19.06H108.36V40.83h33.81A3.23,3.23,0,0,1,145.31,44V55.5a3.15,3.15,0,0,1-3.14,3.14H108.36V82H149a3.13,3.13,0,0,1,3.14,3.13V96.47A3.14,3.14,0,0,1,149,99.61ZM92.45,2.39a2.14,2.14,0,0,0-2.14,2.14V96.47a2.14,2.14,0,0,0,2.14,2.14H149a2.14,2.14,0,0,0,2.14-2.14V85.08A2.13,2.13,0,0,0,149,83H107.36V57.64h34.81a2.14,2.14,0,0,0,2.14-2.14V44a2.22,2.22,0,0,0-2.14-2.14H107.36V18.06H149a2.14,2.14,0,0,0,2.14-2.14V4.53A2.14,2.14,0,0,0,149,2.39Z"/><path class="cls-1" d="M194,101c-18.17,0-27.4-8-30.88-11-1.6-1.28-2.17-2.38-.81-4.79l5-8.62a3.62,3.62,0,0,1,2.46-1.79,3.82,3.82,0,0,1,3,.67c5.92,4.48,12,8.51,20.66,8.51,6.81,0,12.14-4.48,12.14-10.2,0-6.44-5.18-11.28-17.33-16.2C176.89,53,161.81,44.9,161.81,27.17,161.81,14.08,171.75,0,193.56,0c14.79,0,26,7.84,28.08,9.41a3.45,3.45,0,0,1,1.47,2.25,3.93,3.93,0,0,1-.53,3l-5.27,7.9c-1.23,1.85-3.6,3.11-5.55,1.81l-1-.64c-5.63-3.56-10.95-6.92-18-6.92-8.1,0-11.73,4.64-11.73,9.23,0,6.06,4.66,10.44,16.08,15.09C211.59,47,226.42,55.33,226.42,73,226.42,86.57,215.05,101,194,101ZM170.49,75.78a3.41,3.41,0,0,0-.55,0,2.61,2.61,0,0,0-1.78,1.31l-5,8.61c-1.09,1.93-.71,2.5.57,3.53h0C167.15,92.22,176.17,100,194,100c20.42,0,31.44-13.91,31.44-27,0-17.08-14.51-25.22-28.71-30.92C184.84,37.24,180,32.6,180,26.06c0-5.09,3.94-10.23,12.73-10.23,7.34,0,12.78,3.44,18.54,7.07l1,.65c1.43.95,3.21-.08,4.18-1.52l5.28-7.92a2.92,2.92,0,0,0,.37-2.24,2.47,2.47,0,0,0-1-1.63C219,8.67,208,1,193.56,1c-14.81,0-30.75,8.19-30.75,26.17,0,17.12,14.72,25.06,25.8,29.53,12.58,5.1,17.95,10.22,17.95,17.13,0,6.28-5.77,11.2-13.14,11.2-9,0-15.2-4.12-21.27-8.71A2.73,2.73,0,0,0,170.49,75.78Z"/><path class="cls-1" d="M256.2,99.61H243.42a3.14,3.14,0,0,1-3.13-3.14V4.53a3.14,3.14,0,0,1,3.13-3.14h32.64a31.47,31.47,0,1,1,.14,62.94H259.34V96.47A3.23,3.23,0,0,1,256.2,99.61ZM243.42,2.39a2.14,2.14,0,0,0-2.13,2.14V96.47a2.14,2.14,0,0,0,2.13,2.14H256.2a2.22,2.22,0,0,0,2.14-2.14V63.33H276.2a30.47,30.47,0,1,0-.14-60.94Zm32.09,45H258.34V18.47h17.17c8.12,0,14.25,6,14.25,14C289.76,41,283.63,47.39,275.51,47.39Zm-16.17-1h16.17c7.55,0,13.25-6,13.25-13.94,0-7.4-5.7-13-13.25-13H259.34Z"/><path class="cls-1" d="M364.4,101A49.82,49.82,0,0,1,314,50.64,50.49,50.49,0,0,1,328.7,14.8,49.93,49.93,0,0,1,364.4,0a50.63,50.63,0,0,1,50.5,50.64A50.17,50.17,0,0,1,364.4,101Zm0-100a48.93,48.93,0,0,0-35,14.5A49.52,49.52,0,0,0,315,50.64a49.43,49.43,0,1,0,98.86,0A49.63,49.63,0,0,0,364.4,1Zm0,82a32.45,32.45,0,0,1,0-64.89c17.59,0,32.44,14.92,32.44,32.58A32.41,32.41,0,0,1,364.4,83Zm0-63.89a31.45,31.45,0,1,0,31.44,31.58C395.84,33.52,381.44,19.06,364.4,19.06Z"/><path class="cls-1" d="M509.4,101h-1.94a3.53,3.53,0,0,1-2.72-1.12L448.38,37.74V96.47a3.15,3.15,0,0,1-3.14,3.14H432.6a3.22,3.22,0,0,1-3.14-3.14V3a3.11,3.11,0,0,1,3.14-3h2.08a3.49,3.49,0,0,1,2.71,1.12l56.1,59.8V4.53a3.14,3.14,0,0,1,3.13-3.14H509.4a3.22,3.22,0,0,1,3.14,3.14V98A3.11,3.11,0,0,1,509.4,101Zm-62-64.75h1l.15.17,57,62.77a2.51,2.51,0,0,0,2,.81h1.94a2.1,2.1,0,0,0,2.14-2V4.53a2.22,2.22,0,0,0-2.14-2.14H496.62a2.14,2.14,0,0,0-2.13,2.14V62.39h-1l-.15-.16L436.68,1.81a2.56,2.56,0,0,0-2-.81H432.6a2.1,2.1,0,0,0-2.14,2V96.47a2.22,2.22,0,0,0,2.14,2.14h12.64a2.14,2.14,0,0,0,2.14-2.14Z"/><path class="cls-1" d="M559.82,101c-18.16,0-27.39-8-30.87-11-1.61-1.28-2.17-2.38-.81-4.79l5-8.62a3.61,3.61,0,0,1,2.45-1.79,3.83,3.83,0,0,1,3,.67c5.93,4.48,12,8.51,20.67,8.51,6.8,0,12.13-4.48,12.13-10.2,0-6.44-5.18-11.28-17.32-16.2C542.73,53,527.65,44.9,527.65,27.17,527.65,14.08,537.59,0,559.4,0c14.79,0,26,7.84,28.08,9.41A3.45,3.45,0,0,1,589,11.66a3.93,3.93,0,0,1-.52,3l-5.28,7.9c-1.23,1.85-3.6,3.11-5.55,1.81l-1-.65c-5.64-3.55-11-6.91-18-6.91-8.1,0-11.72,4.64-11.72,9.23,0,6.06,4.66,10.44,16.08,15.09C577.43,47,592.27,55.33,592.27,73,592.27,86.57,580.89,101,559.82,101ZM536.34,75.78a3.31,3.31,0,0,0-.55,0A2.57,2.57,0,0,0,534,77.14l-5,8.61c-1.08,1.93-.7,2.5.58,3.53h0C533,92.22,542,100,559.82,100c20.43,0,31.45-13.91,31.45-27,0-17.08-14.52-25.22-28.72-30.92-11.86-4.84-16.7-9.48-16.7-16,0-5.09,3.93-10.23,12.72-10.23,7.34,0,12.78,3.44,18.54,7.07l1,.65c1.43.95,3.22-.08,4.18-1.52l5.28-7.92a2.88,2.88,0,0,0,.37-2.24,2.49,2.49,0,0,0-1-1.63C584.83,8.67,573.88,1,559.4,1c-14.81,0-30.75,8.19-30.75,26.17,0,17.12,14.73,25.06,25.8,29.53C567,61.8,572.4,66.92,572.4,73.83c0,6.28-5.77,11.2-13.13,11.2-9,0-15.21-4.12-21.28-8.71A2.72,2.72,0,0,0,536.34,75.78Z"/><path class="cls-1" d="M684.82,99.61H672.74c-2.45,0-3.53-1.17-4.47-3l-6.69-14.73H620.7L614,96.54a4.69,4.69,0,0,1-4.48,3.07H597.46a3.07,3.07,0,0,1-2.69-1.36,3,3,0,0,1-.12-3L637.84,1.82A3,3,0,0,1,640.66,0h1.39a2.83,2.83,0,0,1,2.8,1.8l42.79,93.49a3,3,0,0,1-.12,3A3.09,3.09,0,0,1,684.82,99.61ZM620.06,80.83h42.17l6.94,15.3c.94,1.87,1.81,2.48,3.57,2.48h12.08a2.13,2.13,0,0,0,1.86-.9,2,2,0,0,0,.05-2L644,2.24A1.86,1.86,0,0,0,642.05,1h-1.39a2,2,0,0,0-1.92,1.25L595.56,95.71a2,2,0,0,0,.05,2,2.12,2.12,0,0,0,1.85.9h12.09a3.68,3.68,0,0,0,3.56-2.46Zm35.82-14.41H626.41l14.06-31.56h1.07Zm-27.92-1h26.37L641,36.12Z"/><path class="cls-1" d="M733.3,99.61H699.69a3.15,3.15,0,0,1-3.14-3.14V4.53a3.15,3.15,0,0,1,3.14-3.14h31.8c17,0,29.81,11.26,29.81,26.19,0,10.94-7.12,18.49-13.89,22v0c6.38,2.28,16.67,8.21,16.67,22.72C764.08,87.87,750.85,99.61,733.3,99.61ZM699.69,2.39a2.14,2.14,0,0,0-2.14,2.14V96.47a2.14,2.14,0,0,0,2.14,2.14H733.3c17,0,29.78-11.31,29.78-26.3,0-14.15-10.23-19.79-16.33-21.89l-.34-.12V48.94l.28-.14c6.58-3.29,13.61-10.59,13.61-21.22,0-14.36-12.38-25.19-28.81-25.19Zm32.36,80.83H714.47V57.5h17.58a12.37,12.37,0,0,1,12.72,12.58C744.77,77.57,739.3,83.22,732.05,83.22Zm-16.58-1h16.58c6.68,0,11.72-5.22,11.72-12.14A11.4,11.4,0,0,0,732.05,58.5H715.47Zm14.64-39H714.47V17.92h15.64c7.27,0,12.16,4.94,12.16,12.3C742.27,37.75,737.16,43.22,730.11,43.22Zm-14.64-1h14.64c6.47,0,11.16-5,11.16-12,0-6.76-4.48-11.3-11.16-11.3H715.47Z"/><path class="cls-1" d="M833.72,99.61H782.89a3.15,3.15,0,0,1-3.14-3.14V4.53a3.15,3.15,0,0,1,3.14-3.14h12.78a3.22,3.22,0,0,1,3.13,3.14V82h34.92a3.14,3.14,0,0,1,3.14,3.13V96.47A3.15,3.15,0,0,1,833.72,99.61ZM782.89,2.39a2.14,2.14,0,0,0-2.14,2.14V96.47a2.14,2.14,0,0,0,2.14,2.14h50.83a2.14,2.14,0,0,0,2.14-2.14V85.08A2.13,2.13,0,0,0,833.72,83H797.8V4.53a2.22,2.22,0,0,0-2.13-2.14Z"/><path class="cls-1" d="M907.19,99.61H850.67a3.15,3.15,0,0,1-3.14-3.14V4.53a3.15,3.15,0,0,1,3.14-3.14h56.52a3.15,3.15,0,0,1,3.14,3.14V15.92a3.15,3.15,0,0,1-3.14,3.14H866.58V40.83h33.81A3.23,3.23,0,0,1,903.53,44V55.5a3.15,3.15,0,0,1-3.14,3.14H866.58V82h40.61a3.14,3.14,0,0,1,3.14,3.13V96.47A3.15,3.15,0,0,1,907.19,99.61ZM850.67,2.39a2.14,2.14,0,0,0-2.14,2.14V96.47a2.14,2.14,0,0,0,2.14,2.14h56.52a2.14,2.14,0,0,0,2.14-2.14V85.08A2.13,2.13,0,0,0,907.19,83H865.58V57.64h34.81a2.14,2.14,0,0,0,2.14-2.14V44a2.22,2.22,0,0,0-2.14-2.14H865.58V18.06h41.61a2.14,2.14,0,0,0,2.14-2.14V4.53a2.14,2.14,0,0,0-2.14-2.14Z"/></g></g></svg>