<svg xmlns="http://www.w3.org/2000/svg" viewBox="0 0 361.3 61.23"><defs><style>.cls-1{fill:#fff;}</style></defs><g id="Layer_2" data-name="Layer 2"><g id="Layer_1-2" data-name="Layer 1"><path class="cls-1" d="M30.53,30.27C35.46,32,40.73,36,40.73,44c0,9.53-8.16,16.42-18.54,16.42H1.62A1.62,1.62,0,0,1,0,58.76V2.47A1.62,1.62,0,0,1,1.62.85H21.09C31.21.85,39,7.65,39,16.58a15,15,0,0,1-8.5,13.27ZM20.24,25.85c4.34,0,7.14-3.4,7.14-7.65S24.58,11,20.24,11H11V25.85Zm1.19,24.49a7.44,7.44,0,0,0,7.48-7.74,7.26,7.26,0,0,0-7.48-7.39H11V50.34Z"/><path class="cls-1" d="M43.88,58.17,70.32.93A1.53,1.53,0,0,1,71.77,0h.85a1.43,1.43,0,0,1,1.44.93l26.19,57.24a1.5,1.5,0,0,1-1.44,2.21h-7.4A2.43,2.43,0,0,1,89,58.67l-4.17-9.18H59.35l-4.16,9.18a2.57,2.57,0,0,1-2.47,1.71h-7.4A1.5,1.5,0,0,1,43.88,58.17ZM80.61,40.05l-8.5-18.71h-.26L63.52,40.05Z"/><path class="cls-1" d="M106.29,2.47A1.62,1.62,0,0,1,107.9.85h7.83a1.67,1.67,0,0,1,1.61,1.62v47.7H139a1.62,1.62,0,0,1,1.61,1.62v7A1.62,1.62,0,0,1,139,60.38H107.9a1.62,1.62,0,0,1-1.61-1.62Z"/><path class="cls-1" d="M140.73,58.17,167.17.93A1.53,1.53,0,0,1,168.62,0h.85a1.43,1.43,0,0,1,1.44.93l26.2,57.24a1.5,1.5,0,0,1-1.45,2.21h-7.4a2.45,2.45,0,0,1-2.47-1.71l-4.16-9.18H156.2L152,58.67a2.56,2.56,0,0,1-2.47,1.71h-7.4A1.5,1.5,0,0,1,140.73,58.17Zm36.73-18.12L169,21.34h-.26l-8.33,18.71Z"/><path class="cls-1" d="M203.14,1.53A1.59,1.59,0,0,1,204.75,0H206a1.89,1.89,0,0,1,1.45.59l34.69,37h.17V2.47A1.62,1.62,0,0,1,244,.85h7.82a1.68,1.68,0,0,1,1.62,1.62V59.7a1.6,1.6,0,0,1-1.62,1.53h-1.19a1.86,1.86,0,0,1-1.45-.6L214.28,22.19h-.17V58.76a1.62,1.62,0,0,1-1.62,1.62h-7.74a1.67,1.67,0,0,1-1.61-1.62Z"/><path class="cls-1" d="M293.61,0a28.77,28.77,0,0,1,20.58,7.91,1.58,1.58,0,0,1,.09,2.38l-5.19,5.36a1.37,1.37,0,0,1-2.13,0,20.09,20.09,0,0,0-13.09-5c-10.89,0-19,9.1-19,19.81s8.16,19.65,19,19.65a20.4,20.4,0,0,0,13-4.85,1.57,1.57,0,0,1,2.13,0l5.27,5.44a1.63,1.63,0,0,1-.08,2.3,29.2,29.2,0,0,1-20.67,8.25,30.62,30.62,0,1,1,0-61.23Z"/><path class="cls-1" d="M323.46,2.47A1.62,1.62,0,0,1,325.07.85h34.61a1.62,1.62,0,0,1,1.62,1.62v7a1.61,1.61,0,0,1-1.62,1.61H334.51V25h21a1.67,1.67,0,0,1,1.61,1.62v7.05a1.61,1.61,0,0,1-1.61,1.62h-21V50.17h25.17a1.62,1.62,0,0,1,1.62,1.62v7a1.62,1.62,0,0,1-1.62,1.62H325.07a1.62,1.62,0,0,1-1.61-1.62Z"/></g></g></svg>