<?xml version="1.0" encoding="utf-8"?>
<!-- Generator: Adobe Illustrator 25.4.1, SVG Export Plug-In . SVG Version: 6.00 Build 0)  -->
<svg version="1.1" id="Layer_1" xmlns="http://www.w3.org/2000/svg" xmlns:xlink="http://www.w3.org/1999/xlink" x="0px" y="0px"
	 viewBox="0 0 870.2 101" style="enable-background:new 0 0 870.2 101;" xml:space="preserve">
<style type="text/css">
	.st0{fill:#FFFFFF;}
</style>
<g>
	<path class="st0" d="M36.2,101.2c-9.6,0-18.6-3.7-25.4-10.4C4,84,0.3,75.1,0.3,65.5c0-9.6,3.7-18.6,10.5-25.4
		c6.8-6.8,15.8-10.5,25.4-10.5c9.5,0,16.9,2.9,24.1,9.2c0.5,0.4,0.7,0.9,0.7,1.5c0,0.6-0.2,1.1-0.6,1.5l-6,6.2
		c-0.4,0.4-0.8,0.6-1.3,0.6c-0.5,0-1-0.2-1.4-0.6c-4.2-3.7-9.7-5.8-15.1-5.8c-6,0-11.6,2.4-15.7,6.8c-4,4.3-6.2,10-6.2,16.1
		c0,6,2.2,11.7,6.3,16c4.1,4.4,9.7,6.7,15.7,6.7c5.4,0,10.5-1.9,15.1-5.6c0.9-0.8,2.1-0.6,2.7,0l6.1,6.3c0.3,0.3,0.5,0.7,0.6,1.2
		c0,0.6-0.2,1.2-0.7,1.7C53.8,97.8,45.5,101.2,36.2,101.2z M36.2,29.9c-9.5,0-18.5,3.7-25.2,10.4C4.3,47,0.6,55.9,0.6,65.5
		C0.6,75,4.3,83.9,11,90.5c6.7,6.6,15.6,10.3,25.2,10.3c9.2,0,17.5-3.3,23.9-9.6c0.4-0.4,0.6-0.9,0.6-1.4c0-0.3-0.1-0.7-0.5-1
		l-6.1-6.3c-0.5-0.5-1.5-0.7-2.3,0c-4.7,3.8-9.8,5.7-15.2,5.7c-6.1,0-11.8-2.4-15.9-6.8c-4.1-4.3-6.4-10.1-6.4-16.2
		c0-6.2,2.2-12,6.3-16.3c4.2-4.5,9.8-6.9,15.9-6.9c5.5,0,11.1,2.1,15.3,5.9c0.4,0.4,0.8,0.6,1.2,0.6c0.4,0,0.7-0.2,1-0.5l6-6.2
		c0.4-0.4,0.6-0.8,0.5-1.3c0-0.5-0.2-0.9-0.6-1.3C52.9,32.7,45.6,29.9,36.2,29.9z"/>
	<path class="st0" d="M114.8,100.2H74.5c-1.1,0-2-0.9-2-2V32.6c0-1.1,0.9-2,2-2h40.3c1.1,0,2,0.9,2,2v8.1c0,1.1-0.9,2-2,2H85.6v15.9
		h24.3c1.1,0,2,1,2,2v8.2c0,1.1-0.9,2-2,2H85.6v17h29.2c1.1,0,2,0.9,2,2v8.1C116.8,99.2,115.9,100.2,114.8,100.2z M74.5,30.9
		c-1,0-1.7,0.8-1.7,1.7v65.5c0,1,0.8,1.7,1.7,1.7h40.3c1,0,1.7-0.8,1.7-1.7V90c0-1-0.8-1.7-1.7-1.7H85.3V70.7h24.6
		c1,0,1.7-0.8,1.7-1.7v-8.2c0-0.9-0.8-1.7-1.7-1.7H85.3V42.4h29.5c1,0,1.7-0.8,1.7-1.7v-8.1c0-1-0.8-1.7-1.7-1.7H74.5z"/>
	<path class="st0" d="M186.3,101.2h-1.4c-0.7,0-1.3-0.2-1.8-0.7l-40.5-44.7v42.4c0,1.1-0.9,2-2,2h-9c-1.1,0-2-1-2-2V31.5
		c0-1,0.9-1.9,2-1.9h1.5c0.7,0,1.3,0.2,1.8,0.7l40.3,43V32.6c0-1.1,0.9-2,2-2h9.1c1.1,0,2,0.9,2,2v66.6
		C188.3,100.3,187.4,101.2,186.3,101.2z M142.3,55.4h0.4l0,0l40.6,44.7c0.5,0.5,0.9,0.6,1.6,0.6h1.4c0.9,0,1.7-0.7,1.7-1.6V32.6
		c0-0.9-0.8-1.7-1.7-1.7h-9.1c-1,0-1.7,0.8-1.7,1.7v41h-0.4l0,0l-40.4-43.1c-0.5-0.5-0.9-0.6-1.6-0.6h-1.5c-0.9,0-1.7,0.7-1.7,1.6
		v66.6c0,0.9,0.8,1.7,1.7,1.7h9c1,0,1.7-0.8,1.7-1.7V55.4z"/>
	<path class="st0" d="M227.3,100.2h-9.2c-1.1,0-2-1-2-2V42.7h-15c-1.1,0-2-0.9-2-2v-8.1c0-1.1,0.9-2,2-2h43.3c1.1,0,2,0.9,2,2v8.1
		c0,1.1-0.9,2-2,2h-15v55.4C229.4,99.2,228.4,100.2,227.3,100.2z M201.1,30.9c-1,0-1.7,0.8-1.7,1.7v8.1c0,1,0.8,1.7,1.7,1.7h15.3
		v55.7c0,0.9,0.8,1.7,1.7,1.7h9.2c0.9,0,1.7-0.8,1.7-1.7V42.4h15.3c1,0,1.7-0.8,1.7-1.7v-8.1c0-1-0.8-1.7-1.7-1.7H201.1z"/>
	<path class="st0" d="M306.3,100.2h-10.4c-1.1,0-1.6-0.7-1.7-1L281,73h-10.7v25.1c0,1.1-0.9,2-2,2h-9.1c-1.1,0-2-0.9-2-2V32.6
		c0-1.1,0.9-2,2-2h28.3c12,0,21.7,9.6,21.7,21.4c0,8.7-5.6,16.4-14.6,20.1l13.5,25c0.4,0.7,0.4,1.5,0,2.1
		C307.7,99.8,307,100.2,306.3,100.2z M270,72.7h11.2l0,0.1l13.2,26.2c0.1,0.2,0.5,0.8,1.4,0.8h10.4c0.7,0,1.3-0.3,1.6-0.8
		c0.3-0.5,0.3-1.2,0-1.8l-13.6-25.3l0.2-0.1c9-3.6,14.6-11.2,14.6-19.9c0-11.7-9.6-21.1-21.4-21.1h-28.3c-1,0-1.7,0.8-1.7,1.7v65.5
		c0,1,0.8,1.7,1.7,1.7h9.1c0.9,0,1.7-0.8,1.7-1.7V72.7z M286.4,62.4h-16.3v-20h16.3c5.4,0,10,4.5,10,9.8
		C296.3,57.7,291.8,62.4,286.4,62.4z M270.4,62.1h16c5.2,0,9.7-4.6,9.7-10c0-5.1-4.4-9.5-9.7-9.5h-16V62.1z"/>
	<path class="st0" d="M378.4,100.2h-8.6c-1.7,0-2.4-0.8-3-2.1l-4.8-10.6h-29.4l-4.8,10.6c-0.2,0.6-1,2.1-3,2.1h-8.6
		c-0.8,0-1.4-0.3-1.7-0.9c-0.4-0.5-0.4-1.2-0.1-1.9l30.8-66.6c0.4-0.8,1-1.2,1.8-1.2h1c1.1,0,1.5,0.6,1.8,1.2l30.5,66.6
		c0.3,0.7,0.3,1.4-0.1,1.9C379.8,99.8,379.1,100.2,378.4,100.2z M332.3,87.2h29.8l0,0.1L367,98c0.7,1.4,1.4,1.9,2.7,1.9h8.6
		c0.6,0,1.2-0.3,1.5-0.7c0.3-0.5,0.3-1.1,0.1-1.6l-30.5-66.6c-0.3-0.6-0.7-1-1.5-1h-1c-0.7,0-1.2,0.3-1.6,1l-30.8,66.6
		c-0.3,0.6-0.2,1.2,0.1,1.6c0.3,0.5,0.8,0.7,1.5,0.7h8.6c1.8,0,2.5-1.3,2.7-1.9L332.3,87.2z M357.4,76.5H337l0.1-0.2l9.7-21.9h0.5
		l0,0.1L357.4,76.5z M337.5,76.2h19.4l-9.8-21.5h-0.1L337.5,76.2z"/>
	<path class="st0" d="M426.9,100.2h-36.2c-1.1,0-2-0.9-2-2V32.6c0-1.1,0.9-2,2-2h9.1c1.1,0,2,0.9,2,2V88h25.1c1.1,0,2,0.9,2,2v8.1
		C428.9,99.2,428,100.2,426.9,100.2z M390.7,30.9c-1,0-1.7,0.8-1.7,1.7v65.5c0,1,0.8,1.7,1.7,1.7h36.2c1,0,1.7-0.8,1.7-1.7V90
		c0-1-0.8-1.7-1.7-1.7h-25.4V32.6c0-0.9-0.8-1.7-1.7-1.7H390.7z"/>
	<path class="st0" d="M494.5,100.2h-8.6c-1.7,0-2.4-0.8-3-2.1l-4.8-10.6h-29.4l-4.8,10.6c-0.2,0.6-1,2.1-3,2.1h-8.6
		c-0.8,0-1.4-0.3-1.7-0.9c-0.4-0.5-0.4-1.2-0.1-1.9l30.8-66.6c0.4-0.8,1-1.2,1.8-1.2h1c1.1,0,1.5,0.6,1.8,1.2l30.5,66.6
		c0.3,0.7,0.3,1.4-0.1,1.9C495.9,99.8,495.3,100.2,494.5,100.2z M448.5,87.2h29.8l0,0.1l4.8,10.7c0.7,1.4,1.4,1.9,2.7,1.9h8.6
		c0.7,0,1.2-0.3,1.5-0.7c0.3-0.5,0.3-1.1,0.1-1.6l-30.5-66.6c-0.3-0.6-0.7-1-1.5-1h-1c-0.7,0-1.2,0.3-1.6,1l-30.8,66.6
		c-0.3,0.6-0.2,1.2,0.1,1.6c0.3,0.5,0.8,0.7,1.5,0.7h8.6c1.8,0,2.5-1.3,2.7-1.9L448.5,87.2z M473.6,76.5h-20.4l0.1-0.2l9.7-21.9h0.5
		l0,0.1L473.6,76.5z M453.7,76.2h19.4l-9.8-21.5h-0.1L453.7,76.2z"/>
	<path class="st0" d="M540.8,101.2H539c-0.8,0-1.4-0.4-1.8-1.2l-17.5-38.8h-0.1l-5.7,37.4c-0.1,0.8-1,1.6-1.9,1.6h-8.9
		c-0.7,0-1.2-0.2-1.6-0.7c-0.4-0.4-0.5-1.1-0.4-1.8l11.8-66.5c0.1-0.7,0.7-1.6,1.9-1.6h1.6c0.8,0,1.5,0.4,1.8,1.1l21.7,46.6h0.1
		l21.7-46.6c0.4-0.7,1-1.1,1.8-1.1h1.6c1.3,0,1.8,0.9,1.9,1.6l11.7,66.5c0.2,0.7,0,1.3-0.3,1.8c-0.4,0.4-0.9,0.7-1.6,0.7h-9
		c-0.9,0-1.8-0.8-2-1.6L560,61.2h-0.1L542.6,100C542.4,100.7,541.7,101.2,540.8,101.2z M519.4,60.9h0.5l17.6,39c0.3,0.7,0.8,1,1.5,1
		h1.8c0.9,0,1.4-0.5,1.5-1l17.4-39h0.5l0,0.1l5.8,37.5c0.2,0.6,0.9,1.4,1.7,1.4h9c0.6,0,1.1-0.2,1.4-0.6c0.3-0.4,0.4-0.9,0.3-1.5
		l-11.7-66.5c-0.1-0.7-0.6-1.4-1.6-1.4h-1.6c-0.7,0-1.2,0.3-1.6,0.9l-21.8,46.8h-0.5l0-0.1l-21.8-46.7c-0.3-0.6-0.9-0.9-1.5-0.9
		h-1.6c-1.1,0-1.5,0.7-1.6,1.4l0,0l-11.8,66.5c-0.1,0.6,0,1.2,0.4,1.5c0.3,0.4,0.8,0.6,1.4,0.6h8.9c0.8,0,1.5-0.7,1.6-1.4
		L519.4,60.9z"/>
	<path class="st0" d="M633.9,100.2h-40.3c-1.1,0-2-0.9-2-2V32.6c0-1.1,0.9-2,2-2h40.3c1.1,0,2,0.9,2,2v8.1c0,1.1-0.9,2-2,2h-29.1
		v15.9h24.3c1.1,0,2,1,2,2v8.2c0,1.1-0.9,2-2,2h-24.3v17h29.1c1.1,0,2,0.9,2,2v8.1C635.9,99.2,635,100.2,633.9,100.2z M593.6,30.9
		c-1,0-1.7,0.8-1.7,1.7v65.5c0,1,0.8,1.7,1.7,1.7h40.3c1,0,1.7-0.8,1.7-1.7V90c0-1-0.8-1.7-1.7-1.7h-29.5V70.7h24.6
		c1,0,1.7-0.8,1.7-1.7v-8.2c0-0.9-0.8-1.7-1.7-1.7h-24.6V42.4h29.5c1,0,1.7-0.8,1.7-1.7v-8.1c0-1-0.8-1.7-1.7-1.7H593.6z"/>
	<path class="st0" d="M697.8,100.2h-10.4c-1.1,0-1.6-0.7-1.7-1L672.6,73h-10.7v25.1c0,1.1-1,2-2,2h-9.1c-1.1,0-2-0.9-2-2V32.6
		c0-1.1,0.9-2,2-2H679c12,0,21.7,9.6,21.7,21.4c0,8.7-5.6,16.4-14.6,20.1l13.5,25c0.4,0.7,0.4,1.5,0,2.1
		C699.3,99.8,698.6,100.2,697.8,100.2z M661.5,72.7h11.2l0,0.1l13.2,26.2c0.1,0.2,0.5,0.8,1.5,0.8h10.4c0.7,0,1.3-0.3,1.6-0.8
		c0.3-0.5,0.3-1.2,0-1.8l-13.6-25.3l0.2-0.1c9-3.6,14.6-11.2,14.6-19.9c0-11.7-9.6-21.1-21.4-21.1h-28.3c-1,0-1.7,0.8-1.7,1.7v65.5
		c0,1,0.8,1.7,1.7,1.7h9.1c0.9,0,1.7-0.8,1.7-1.7V72.7z M677.9,62.4h-16.3v-20h16.3c5.4,0,10,4.5,10,9.8
		C687.8,57.7,683.3,62.4,677.9,62.4z M661.9,62.1h16c5.2,0,9.7-4.6,9.7-10c0-5.1-4.4-9.5-9.7-9.5h-16V62.1z"/>
	<path class="st0" d="M725.3,100.2H716c-1.1,0-2-1-2-2V32.6c0-1.1,1-2,2-2h9.2c1.1,0,2,0.9,2,2v65.5
		C727.3,99.2,726.3,100.2,725.3,100.2z M716,30.9c-0.9,0-1.7,0.8-1.7,1.7v65.5c0,0.9,0.8,1.7,1.7,1.7h9.2c0.9,0,1.7-0.8,1.7-1.7
		V32.6c0-0.9-0.8-1.7-1.7-1.7H716z"/>
	<path class="st0" d="M775.7,101.2c-9.6,0-18.6-3.7-25.4-10.4c-6.8-6.7-10.5-15.7-10.5-25.3c0-9.6,3.7-18.6,10.5-25.4
		c6.8-6.8,15.8-10.5,25.4-10.5c9.5,0,16.9,2.9,24.1,9.2c0.5,0.4,0.7,0.9,0.7,1.5c0,0.6-0.2,1.1-0.6,1.5l-6,6.2
		c-0.3,0.4-0.8,0.6-1.3,0.6c-0.5,0-1-0.2-1.4-0.6c-4.2-3.7-9.7-5.8-15.1-5.8c-6,0-11.6,2.4-15.7,6.8c-4,4.3-6.2,10-6.2,16.1
		c0,6,2.2,11.7,6.3,16c4.1,4.4,9.7,6.7,15.7,6.7c5.4,0,10.5-1.9,15.1-5.6c0.9-0.8,2.1-0.6,2.7,0l6.1,6.3c0.3,0.3,0.5,0.7,0.6,1.2
		c0,0.6-0.2,1.2-0.7,1.7C793.3,97.8,785,101.2,775.7,101.2z M775.7,29.9c-9.5,0-18.5,3.7-25.2,10.4c-6.7,6.7-10.4,15.7-10.4,25.2
		c0,9.5,3.7,18.4,10.4,25.1c6.7,6.6,15.6,10.3,25.2,10.3c9.2,0,17.5-3.3,23.9-9.6c0.4-0.4,0.6-0.9,0.6-1.4c0-0.3-0.1-0.7-0.5-1
		l-6.1-6.3c-0.5-0.5-1.5-0.7-2.3,0c-4.7,3.8-9.8,5.7-15.2,5.7c-6.1,0-11.8-2.4-15.9-6.8c-4.1-4.3-6.4-10.1-6.4-16.2
		c0-6.2,2.2-12,6.3-16.3c4.2-4.5,9.8-6.9,15.9-6.9c5.5,0,11.1,2.1,15.3,5.9c0.4,0.4,0.8,0.6,1.2,0.6c0.4,0,0.7-0.2,1-0.5l6-6.2
		c0.4-0.4,0.6-0.8,0.5-1.3c0-0.5-0.2-0.9-0.6-1.3C792.4,32.7,785.1,29.9,775.7,29.9z"/>
	<path class="st0" d="M867.9,100.2h-8.6c-1.7,0-2.4-0.8-3-2.1l-4.8-10.6H822l-4.8,10.6c-0.2,0.6-1,2.1-3,2.1h-8.6
		c-0.8,0-1.4-0.3-1.7-0.9c-0.4-0.5-0.4-1.2-0.1-1.9h0l30.8-66.6c0.4-0.8,1-1.2,1.8-1.2h1c1.1,0,1.5,0.6,1.8,1.2l30.5,66.6
		c0.3,0.7,0.3,1.4-0.1,1.9C869.2,99.8,868.6,100.2,867.9,100.2z M821.8,87.2h29.8l0,0.1l4.8,10.7c0.7,1.4,1.4,1.9,2.7,1.9h8.6
		c0.7,0,1.2-0.3,1.5-0.7c0.3-0.5,0.3-1.1,0.1-1.6l-30.5-66.6c-0.3-0.6-0.7-1-1.5-1h-1c-0.7,0-1.2,0.3-1.6,1L804,97.5
		c-0.3,0.6-0.2,1.2,0.1,1.6c0.3,0.5,0.8,0.7,1.5,0.7h8.6c1.8,0,2.5-1.3,2.7-1.9L821.8,87.2z M846.9,76.5h-20.4l0.1-0.2l9.7-21.9h0.5
		l0,0.1L846.9,76.5z M827,76.2h19.4l-9.8-21.5h-0.1L827,76.2z"/>
</g>
</svg>
