<svg xmlns="http://www.w3.org/2000/svg" viewBox="0 0 909.33 100"><defs><style>.cls-1{fill:#fff;}</style></defs><g id="Layer_2" data-name="Layer 2"><g id="Layer_1-2" data-name="Layer 1"><path class="cls-1" d="M0,4A2.64,2.64,0,0,1,2.64,1.39H42.36A30.08,30.08,0,0,1,72.64,31.25c0,12.78-8.47,23.19-20.56,28.06l19,35.27a2.63,2.63,0,0,1-2.36,4H54.17a2.39,2.39,0,0,1-2.23-1.25L33.47,60.56H18.06V96a2.73,2.73,0,0,1-2.64,2.64H2.64A2.64,2.64,0,0,1,0,96ZM40.83,45.69c7.37,0,13.75-6.38,13.75-14.16A13.81,13.81,0,0,0,40.83,18.06H18.19V45.69Z"/><path class="cls-1" d="M89.31,4A2.64,2.64,0,0,1,92,1.39h56.52A2.64,2.64,0,0,1,151.11,4V15.42a2.64,2.64,0,0,1-2.64,2.64H107.36V40.83h34.31a2.73,2.73,0,0,1,2.64,2.64V55a2.64,2.64,0,0,1-2.64,2.64H107.36v24.3h41.11a2.64,2.64,0,0,1,2.64,2.64V96a2.64,2.64,0,0,1-2.64,2.64H92A2.64,2.64,0,0,1,89.31,96Z"/><path class="cls-1" d="M162.92,89.17c-1.39-1.11-1.94-2-.69-4.17l5-8.61a3.21,3.21,0,0,1,4.72-1c5.69,4.3,11.94,8.61,21,8.61,7.22,0,12.64-4.72,12.64-10.7,0-7.08-6-11.94-17.64-16.66-13-5.28-26.11-13.61-26.11-30C161.81,14.31,171,0,193.06,0c14.17,0,25,7.22,27.78,9.31a3.43,3.43,0,0,1,.83,4.58l-5.28,7.92c-1.11,1.66-3.19,2.77-4.86,1.66-6-3.75-11.66-7.64-19.3-7.64-7.92,0-12.23,4.45-12.23,9.73,0,6.52,5.14,11,16.39,15.55,13.48,5.42,29,13.47,29,31.39,0,14.31-12.36,27.5-31.94,27.5C176,100,167,92.64,162.92,89.17Z"/><path class="cls-1" d="M240.29,4a2.63,2.63,0,0,1,2.63-2.64h32.64c17.09,0,31.11,13.89,31.11,30.69a31.23,31.23,0,0,1-31,31.25H258.34V96a2.73,2.73,0,0,1-2.64,2.64H242.92A2.63,2.63,0,0,1,240.29,96ZM275,46.39c7.78,0,13.75-6.25,13.75-14.45A13.38,13.38,0,0,0,275,18.47H258.34V46.39Z"/><path class="cls-1" d="M363.9,0a50,50,0,1,1,0,100A49.55,49.55,0,0,1,314,50.14,49.79,49.79,0,0,1,363.9,0Zm0,81.94a31.94,31.94,0,1,0,0-63.88c-17.5,0-31.81,14.58-31.81,32.08A31.89,31.89,0,0,0,363.9,81.94Z"/><path class="cls-1" d="M429.46,2.5A2.61,2.61,0,0,1,432.1,0h2.08a3.05,3.05,0,0,1,2.36,1l56.67,60.42h.27V4a2.64,2.64,0,0,1,2.64-2.64H508.9A2.73,2.73,0,0,1,511.54,4V97.5a2.61,2.61,0,0,1-2.64,2.5H507a3,3,0,0,1-2.36-1l-57-62.78h-.28V96a2.63,2.63,0,0,1-2.63,2.64H432.1A2.73,2.73,0,0,1,429.46,96Z"/><path class="cls-1" d="M528.77,89.17c-1.39-1.11-1.95-2-.7-4.17l5-8.61a3.21,3.21,0,0,1,4.72-1c5.7,4.3,12,8.61,21,8.61,7.23,0,12.64-4.72,12.64-10.7,0-7.08-6-11.94-17.63-16.66-13.06-5.28-26.12-13.61-26.12-30C527.65,14.31,536.82,0,558.9,0c14.17,0,25,7.22,27.78,9.31a3.42,3.42,0,0,1,.83,4.58l-5.27,7.92c-1.11,1.66-3.2,2.77-4.86,1.66-6-3.75-11.67-7.64-19.31-7.64-7.92,0-12.22,4.45-12.22,9.73,0,6.52,5.14,11,16.39,15.55,13.47,5.42,29,13.47,29,31.39,0,14.31-12.37,27.5-31.95,27.5C541.82,100,532.79,92.64,528.77,89.17Z"/><path class="cls-1" d="M594.6,95,637.8,1.53A2.48,2.48,0,0,1,640.16,0h1.39a2.36,2.36,0,0,1,2.36,1.53L686.68,95a2.45,2.45,0,0,1-2.36,3.61H672.24c-2.08,0-3.06-.83-4-2.78l-6.8-15H619.88l-6.81,15a4.17,4.17,0,0,1-4,2.78H597A2.45,2.45,0,0,1,594.6,95Zm60-29.58L640.71,34.86h-.41L626.68,65.42Z"/><path class="cls-1" d="M746.41,49.44c8.06,2.78,16.67,9.31,16.67,22.37,0,15.55-13.34,26.8-30.28,26.8H699.19A2.64,2.64,0,0,1,696.55,96V4a2.64,2.64,0,0,1,2.64-2.64H731c16.53,0,29.31,11.11,29.31,25.69,0,10.42-6.67,18.06-13.89,21.67Zm-16.8-7.22c7.08,0,11.66-5.55,11.66-12.5s-4.58-11.8-11.66-11.8H714.47v24.3Zm1.94,40c7,0,12.22-5.41,12.22-12.64A11.86,11.86,0,0,0,731.55,57.5H714.47V82.22Z"/><path class="cls-1" d="M779.75,4a2.64,2.64,0,0,1,2.64-2.64h12.77A2.73,2.73,0,0,1,797.8,4V81.94h35.42a2.64,2.64,0,0,1,2.64,2.64V96a2.64,2.64,0,0,1-2.64,2.64H782.39A2.64,2.64,0,0,1,779.75,96Z"/><path class="cls-1" d="M847.53,4a2.64,2.64,0,0,1,2.64-2.64h56.52A2.64,2.64,0,0,1,909.33,4V15.42a2.64,2.64,0,0,1-2.64,2.64H865.58V40.83h34.31a2.73,2.73,0,0,1,2.64,2.64V55a2.64,2.64,0,0,1-2.64,2.64H865.58v24.3h41.11a2.64,2.64,0,0,1,2.64,2.64V96a2.64,2.64,0,0,1-2.64,2.64H850.17A2.64,2.64,0,0,1,847.53,96Z"/></g></g></svg>