<?xml version="1.0" encoding="utf-8"?>
<!-- Generator: Adobe Illustrator 26.0.3, SVG Export Plug-In . SVG Version: 6.00 Build 0)  -->
<svg version="1.1" id="Layer_1" xmlns="http://www.w3.org/2000/svg" xmlns:xlink="http://www.w3.org/1999/xlink" x="0px" y="0px"
	 viewBox="0 0 506 100" style="enable-background:new 0 0 506 100;" xml:space="preserve">
<style type="text/css">
	.st0{fill:#FFFFFF;}
</style>
<g id="Layer_2_00000148640641291374113980000005356435758652598199_">
	<g id="Layer_1-2">
		<path class="st0" d="M38.9,18.1H17.6c-1.5,0-2.6-1.2-2.6-2.6V4c0-1.4,1.2-2.6,2.6-2.6h60.7C79.8,1.4,81,2.6,81,4l0,0v11.4
			c0,1.5-1.2,2.6-2.6,2.6H57.1v78c0,1.4-1.2,2.6-2.6,2.6h-13c-1.4,0-2.6-1.2-2.6-2.6V18.1z"/>
		<path class="st0" d="M82.5,95l43.2-93.5c0.4-0.9,1.3-1.6,2.4-1.5h1.4c1-0.1,2,0.6,2.4,1.5L174.6,95c0.6,1.2,0.2,2.7-1,3.3
			c-0.4,0.2-0.9,0.3-1.4,0.3h-12.1c-2.1,0-3-0.8-4-2.8l-6.8-15h-41.6l-6.8,15c-0.6,1.7-2.2,2.8-4,2.8H84.8c-1.3,0.1-2.5-0.9-2.6-2.2
			C82.2,95.9,82.3,95.4,82.5,95z M142.5,65.4l-13.9-30.6h-0.4l-13.6,30.6H142.5z"/>
		<path class="st0" d="M184.5,4c0-1.5,1.2-2.6,2.6-2.6h12.8c1.4,0,2.6,1.2,2.6,2.6v77.9h35.4c1.5,0,2.6,1.2,2.6,2.6V96
			c0,1.5-1.2,2.6-2.6,2.6h-50.8c-1.5,0-2.6-1.2-2.6-2.6L184.5,4L184.5,4z"/>
		<path class="st0" d="M252.2,4c0-1.5,1.2-2.6,2.6-2.6h56.6c1.4,0,2.6,1.2,2.6,2.6v11.4c0,1.5-1.2,2.6-2.6,2.6l0,0h-41.1v22.8h34.3
			c1.4,0,2.6,1.2,2.6,2.6V55c0,1.5-1.2,2.6-2.6,2.6l0,0h-34.3v24.3h41.1c1.4,0,2.6,1.2,2.6,2.6V96c0,1.5-1.2,2.6-2.6,2.6l0,0h-56.5
			c-1.5,0-2.6-1.2-2.6-2.6V4H252.2z"/>
		<path class="st0" d="M329.8,2.5c0.1-1.4,1.2-2.5,2.6-2.5h2.1c0.9,0,1.8,0.3,2.4,1l56.7,60.4h0.3V4c0-1.5,1.2-2.6,2.6-2.6l0,0h12.8
			c1.4,0.1,2.6,1.2,2.6,2.6v93.5c-0.1,1.4-1.2,2.5-2.6,2.5h-2c-0.9,0-1.8-0.3-2.4-1L348,36.2h-0.3V96c0,1.5-1.2,2.6-2.6,2.6l0,0
			h-12.6c-1.4,0-2.6-1.2-2.6-2.6L329.8,2.5L329.8,2.5z"/>
		<path class="st0" d="M448.8,18.1h-21.2c-1.5,0-2.6-1.2-2.6-2.6l0,0V4c0-1.5,1.2-2.6,2.6-2.6l0,0h60.7c1.5,0,2.6,1.1,2.7,2.6l0,0
			v11.4c0,1.5-1.2,2.6-2.6,2.6l0,0h-21.3v78c0,1.4-1.2,2.6-2.6,2.6h-12.9c-1.4,0-2.6-1.2-2.6-2.6V18.1H448.8z"/>
	</g>
</g>
</svg>
