<?xml version="1.0" encoding="utf-8"?>
<!-- Generator: Adobe Illustrator 25.4.1, SVG Export Plug-In . SVG Version: 6.00 Build 0)  -->
<svg version="1.1" id="Layer_1" xmlns="http://www.w3.org/2000/svg" xmlns:xlink="http://www.w3.org/1999/xlink" x="0px" y="0px"
	 viewBox="0 0 172.5 79" style="enable-background:new 0 0 172.5 79;" xml:space="preserve">
<style type="text/css">
	.st0{opacity:0.25;}
	.st1{filter:url(#Adobe_OpacityMaskFilter);}
	.st2{fill:url(#SVGID_00000106105107166747931590000014130013314153639304_);}
	.st3{mask:url(#SVGID_1_);}
	.st4{fill:#FFFFFF;}
	.st5{fill:none;stroke:#FFFFFF;stroke-width:0.5;}
</style>
<g>
	<g>
		<g class="st0">
			<g>
				<defs>
					<filter id="Adobe_OpacityMaskFilter" filterUnits="userSpaceOnUse" x="0.3" y="-0.1" width="172" height="78.9">
						<feFlood  style="flood-color:white;flood-opacity:1" result="back"/>
						<feBlend  in="SourceGraphic" in2="back" mode="normal"/>
					</filter>
				</defs>
				<mask maskUnits="userSpaceOnUse" x="0.3" y="-0.1" width="172" height="78.9" id="SVGID_1_">
					<g class="st1">
						
							<linearGradient id="SVGID_00000010292804530514349720000001011230704613614477_" gradientUnits="userSpaceOnUse" x1="-305.5688" y1="342.0593" x2="-304.5688" y2="342.0593" gradientTransform="matrix(0 -77.8513 -77.8513 0 26716.0625 -23710.3848)">
							<stop  offset="0" style="stop-color:#FFFFFF"/>
							<stop  offset="1" style="stop-color:#000000"/>
						</linearGradient>
						
							<rect x="-8.7" y="-7.1" style="fill:url(#SVGID_00000010292804530514349720000001011230704613614477_);" width="190" height="86.9"/>
					</g>
				</mask>
				<g class="st3">
					<g>
						<rect x="0.3" y="-0.1" class="st4" width="172" height="78.9"/>
					</g>
				</g>
			</g>
		</g>
		<rect x="0.3" y="0.1" class="st5" width="172" height="78.5"/>
	</g>
	<g>
		<path class="st4" d="M20.6,33.2c0.2,0,0.4,0.2,0.4,0.4v1.7c0,0.2-0.2,0.4-0.4,0.4h-7.4c-0.2,0-0.3-0.2-0.3-0.4V35
			c0-0.2,0-0.2,0.2-0.5c1.2-1.6,3.7-4.9,4.7-6.5c0.2-0.4,0.5-0.9,0.5-1.4c0-0.7-0.6-1.3-1.6-1.3c-0.8,0-1.3,0.5-1.8,0.9
			c-0.1,0.1-0.4,0.1-0.5,0l-1.1-1.2c-0.1-0.1-0.1-0.3,0-0.5c0.7-0.8,1.9-1.8,3.7-1.8c2.6,0,4.2,1.7,4.2,3.7c0,1-0.3,1.5-0.7,2.4
			c-0.6,1-2.1,3-3,4.2v0H20.6z"/>
		<path class="st4" d="M24.5,32.4c1,0,1.9,0.7,1.9,2.3c0,1.5-0.8,2.7-1.5,3.7c-0.1,0.1-0.3,0.1-0.5,0l-0.6-0.5
			c-0.1-0.1-0.1-0.3,0.1-0.5c0.5-0.6,0.9-1.3,0.9-1.9c0-0.1,0-0.1,0-0.2c-0.2,0.1-0.4,0.2-0.7,0.2c-0.9,0-1.4-0.7-1.4-1.6
			C22.8,33.1,23.5,32.4,24.5,32.4z"/>
		<path class="st4" d="M28.1,33.7l1.1-1.2c0.1-0.1,0.3-0.2,0.5,0c0.5,0.4,1.1,0.8,2,0.8c0.9,0,1.6-0.6,1.6-1.5
			c0-0.9-0.8-1.5-2.2-1.5h-1c-0.2,0-0.3-0.2-0.3-0.3v-1.5c0-0.2,0.2-0.3,0.3-0.3h1c1.3,0,2-0.6,2-1.4c0-0.8-0.5-1.4-1.5-1.4
			c-0.8,0-1.3,0.4-1.6,0.7c-0.1,0.2-0.3,0.2-0.5,0l-1.1-1.1c-0.1-0.1-0.1-0.4,0-0.5c0.6-0.7,1.8-1.6,3.5-1.6c2.2,0,4,1.3,4,3.4
			c0,1.4-1.1,2.5-1.9,2.8v0.1c1,0.3,2.2,1.3,2.2,3c0,2-1.8,3.7-4.3,3.7c-2.3,0-3.4-1.1-3.8-1.6C28,34,28,33.8,28.1,33.7z"/>
		<path class="st4" d="M37.7,29.2c0-4.1,1.7-6.5,4.7-6.5s4.8,2.4,4.8,6.5c0,4.1-1.7,6.5-4.8,6.5S37.7,33.3,37.7,29.2z M44.3,29.2
			c0-2.4-0.8-3.9-1.9-3.9c-1.1,0-1.9,1.4-1.9,3.9c0,2.4,0.8,3.9,1.9,3.9C43.5,33.1,44.3,31.7,44.3,29.2z"/>
		<path class="st4" d="M54.8,22.6c0.3-0.1,0.5,0,0.6,0.3l0.5,1.4c0.1,0.2,0,0.4-0.4,0.5c-0.9,0.3-3.3,1.2-3.7,3
			c0.5-0.2,1.3-0.4,1.8-0.4c1.7,0,3.7,1.3,3.7,4c0,2.3-1.9,4.2-4.2,4.2c-2.9,0-4.5-2.1-4.5-5C48.6,25.3,53.1,23.1,54.8,22.6z
			 M53,33.2c1,0,1.8-0.8,1.8-1.8c0-1-0.8-1.8-1.8-1.8c-1,0-1.8,0.8-1.8,1.8C51.2,32.4,52,33.2,53,33.2z"/>
	</g>
	<g>
		<path class="st4" d="M13.1,56.8l0.1-0.2c0.1-0.1,0.2-0.1,0.3,0c0.2,0.1,0.8,0.6,1.7,0.6c0.9,0,1.6-0.5,1.6-1.1
			c0-0.7-0.8-1.1-1.8-1.4c-1.1-0.4-1.9-0.8-1.9-1.8c0-0.7,0.6-1.6,2-1.6c0.8,0,1.4,0.3,1.8,0.5c0.1,0.1,0.1,0.2,0.1,0.3l-0.1,0.1
			c-0.1,0.1-0.2,0.1-0.3,0.1c-0.1-0.1-0.8-0.4-1.5-0.4c-1,0-1.4,0.6-1.4,1c0,0.6,0.6,1,1.5,1.3c1.2,0.4,2.1,0.8,2.1,2
			c0,0.9-0.9,1.7-2.1,1.7c-1.1,0-1.7-0.4-2-0.7C13.1,57,13.1,56.9,13.1,56.8z"/>
		<path class="st4" d="M18.6,51.9c-0.2,0-0.2-0.1-0.2-0.2v-0.2c0-0.1,0.1-0.2,0.2-0.2h0.8v-1.7c0-0.1,0.1-0.2,0.2-0.2l0.2,0
			c0.1,0,0.2,0.1,0.2,0.2v1.7h2.2c0.1,0,0.2,0.1,0.2,0.2v0.2c0,0.1-0.1,0.2-0.2,0.2H20v4c0,0.8,0.3,1.3,1.1,1.3c0.5,0,1-0.3,1.2-0.4
			c0.1-0.1,0.2,0,0.2,0.1l0.1,0.2c0.1,0.1,0,0.2-0.1,0.2c-0.2,0.2-0.9,0.5-1.5,0.5c-1.3,0-1.6-0.8-1.6-1.8v-4H18.6z"/>
		<path class="st4" d="M26.2,53.5c0.7,0,1.4,0.2,1.6,0.3c0-1.3-0.3-2.1-1.7-2.1c-0.8,0-1.5,0.4-1.6,0.4c-0.1,0.1-0.2,0-0.2-0.1
			l-0.1-0.2c-0.1-0.1,0-0.2,0.1-0.2c0,0,0.8-0.5,1.9-0.5c1.9,0,2.2,1.2,2.2,2.7v3.5c0,0.1-0.1,0.2-0.2,0.2c-0.2,0-0.4-0.3-0.4-0.7
			v-0.1l0,0c-0.4,0.4-1.2,0.9-2.2,0.9c-1.2,0-2-0.8-2-2.1C23.6,54.4,24.5,53.5,26.2,53.5z M25.7,57.1c0.9,0,1.8-0.6,2.1-0.9v-1.8
			c-0.2-0.1-0.9-0.3-1.6-0.3c-1.2,0-2,0.6-2,1.6C24.2,56.5,24.8,57.1,25.7,57.1z"/>
		<path class="st4" d="M30.8,51.9h-1c-0.1,0-0.2-0.1-0.2-0.2v-0.2c0-0.1,0.1-0.2,0.2-0.2h1v-1c0-1.5,0.7-2.4,2-2.4
			c0.8,0,1.5,0.4,1.7,0.7c0.1,0.1,0.1,0.2,0,0.3L34.5,49c-0.1,0.1-0.2,0.1-0.3,0c-0.4-0.3-0.8-0.5-1.4-0.5c-1,0-1.4,0.6-1.4,1.8v1
			h2.3c0.1,0,0.2,0.1,0.2,0.2v0.2c0,0.1-0.1,0.2-0.2,0.2h-2.3v5.5c0,0.1-0.1,0.2-0.2,0.2H31c-0.1,0-0.2-0.1-0.2-0.2V51.9z"/>
		<path class="st4" d="M36.1,51.9h-1c-0.1,0-0.2-0.1-0.2-0.2v-0.2c0-0.1,0.1-0.2,0.2-0.2h1v-1c0-1.5,0.7-2.4,2-2.4
			c0.8,0,1.5,0.4,1.7,0.7c0.1,0.1,0.1,0.2,0,0.3L39.8,49c-0.1,0.1-0.2,0.1-0.3,0c-0.4-0.3-0.8-0.5-1.4-0.5c-1,0-1.4,0.6-1.4,1.8v1
			H39c0.1,0,0.2,0.1,0.2,0.2v0.2c0,0.1-0.1,0.2-0.2,0.2h-2.3v5.5c0,0.1-0.1,0.2-0.2,0.2h-0.2c-0.1,0-0.2-0.1-0.2-0.2V51.9z"/>
		<path class="st4" d="M46,53.5c0.7,0,1.4,0.2,1.6,0.3c0-1.3-0.3-2.1-1.7-2.1c-0.8,0-1.5,0.4-1.6,0.4c-0.1,0.1-0.2,0-0.2-0.1
			L44,51.9c-0.1-0.1,0-0.2,0.1-0.2c0,0,0.8-0.5,1.9-0.5c1.9,0,2.2,1.2,2.2,2.7v3.5c0,0.1-0.1,0.2-0.2,0.2c-0.2,0-0.4-0.3-0.4-0.7
			v-0.1l0,0c-0.4,0.4-1.2,0.9-2.2,0.9c-1.2,0-2-0.8-2-2.1C43.4,54.4,44.3,53.5,46,53.5z M45.5,57.1c0.9,0,1.8-0.6,2.1-0.9v-1.8
			c-0.2-0.1-0.9-0.3-1.6-0.3c-1.2,0-2,0.6-2,1.6C43.9,56.5,44.6,57.1,45.5,57.1z"/>
		<path class="st4" d="M49.8,56.8l0.1-0.2c0.1-0.1,0.2-0.1,0.3,0c0.2,0.1,0.8,0.6,1.7,0.6c0.9,0,1.6-0.5,1.6-1.1
			c0-0.7-0.8-1.1-1.8-1.4c-1.1-0.4-1.9-0.8-1.9-1.8c0-0.7,0.6-1.6,2-1.6c0.8,0,1.4,0.3,1.8,0.5c0.1,0.1,0.1,0.2,0.1,0.3l-0.1,0.1
			c-0.1,0.1-0.2,0.1-0.3,0.1c-0.1-0.1-0.8-0.4-1.5-0.4c-1,0-1.4,0.6-1.4,1c0,0.6,0.6,1,1.5,1.3c1.2,0.4,2.1,0.8,2.1,2
			c0,0.9-0.9,1.7-2.1,1.7c-1.1,0-1.7-0.4-2-0.7C49.8,57,49.8,56.9,49.8,56.8z"/>
		<path class="st4" d="M55.4,56.8l0.1-0.2c0.1-0.1,0.2-0.1,0.3,0c0.2,0.1,0.8,0.6,1.7,0.6c0.9,0,1.6-0.5,1.6-1.1
			c0-0.7-0.8-1.1-1.8-1.4c-1.1-0.4-1.9-0.8-1.9-1.8c0-0.7,0.6-1.6,2-1.6c0.8,0,1.4,0.3,1.8,0.5c0.1,0.1,0.1,0.2,0.1,0.3l-0.1,0.1
			c-0.1,0.1-0.2,0.1-0.3,0.1c-0.1-0.1-0.8-0.4-1.5-0.4c-1,0-1.4,0.6-1.4,1c0,0.6,0.6,1,1.5,1.3c1.2,0.4,2.1,0.8,2.1,2
			c0,0.9-0.9,1.7-2.1,1.7c-1.1,0-1.7-0.4-2-0.7C55.4,57,55.4,56.9,55.4,56.8z"/>
		<path class="st4" d="M64.1,51.2c1.7,0,3.1,1.5,3.1,3.2c0,1.8-1.4,3.3-3.1,3.3c-1.8,0-3.1-1.5-3.1-3.3
			C60.9,52.6,62.3,51.2,64.1,51.2z M64.1,57.1c1.4,0,2.5-1.2,2.5-2.7c0-1.5-1.1-2.7-2.5-2.7c-1.4,0-2.5,1.2-2.5,2.7
			C61.5,55.9,62.7,57.1,64.1,57.1z"/>
		<path class="st4" d="M71.8,51.2c1.2,0,2,0.6,2.3,1c0.1,0.1,0.1,0.2,0,0.3L74,52.5c-0.1,0.1-0.2,0.1-0.3,0
			c-0.1-0.2-0.9-0.7-1.8-0.7c-1.4,0-2.6,1.2-2.6,2.7c0,1.5,1.2,2.7,2.6,2.7c1.1,0,1.8-0.8,2-1c0.1-0.1,0.2-0.1,0.3,0l0.1,0.1
			c0.1,0.1,0.1,0.2,0,0.2c-0.3,0.4-1.1,1.2-2.4,1.2c-1.8,0-3.2-1.4-3.2-3.3C68.6,52.6,70.1,51.2,71.8,51.2z"/>
		<path class="st4" d="M75.6,49.1c0-0.3,0.2-0.5,0.5-0.5c0.3,0,0.5,0.2,0.5,0.5c0,0.3-0.2,0.5-0.5,0.5
			C75.8,49.6,75.6,49.4,75.6,49.1z M75.9,51.5c0-0.1,0.1-0.2,0.2-0.2h0.2c0.1,0,0.2,0.1,0.2,0.2v5.8c0,0.1-0.1,0.2-0.2,0.2H76
			c-0.1,0-0.2-0.1-0.2-0.2V51.5z"/>
		<path class="st4" d="M80.7,53.5c0.7,0,1.4,0.2,1.6,0.3c0-1.3-0.3-2.1-1.7-2.1c-0.8,0-1.5,0.4-1.6,0.4c-0.1,0.1-0.2,0-0.2-0.1
			l-0.1-0.2c-0.1-0.1,0-0.2,0.1-0.2c0,0,0.8-0.5,1.9-0.5c1.9,0,2.2,1.2,2.2,2.7v3.5c0,0.1-0.1,0.2-0.2,0.2c-0.2,0-0.4-0.3-0.4-0.7
			v-0.1l0,0c-0.4,0.4-1.2,0.9-2.2,0.9c-1.2,0-2-0.8-2-2.1C78.1,54.4,79,53.5,80.7,53.5z M80.2,57.1c0.9,0,1.8-0.6,2.1-0.9v-1.8
			c-0.2-0.1-0.9-0.3-1.6-0.3c-1.2,0-2,0.6-2,1.6C78.7,56.5,79.3,57.1,80.2,57.1z"/>
		<path class="st4" d="M84.4,51.9c-0.2,0-0.2-0.1-0.2-0.2v-0.2c0-0.1,0.1-0.2,0.2-0.2h0.8v-1.7c0-0.1,0.1-0.2,0.2-0.2l0.2,0
			c0.1,0,0.2,0.1,0.2,0.2v1.7H88c0.1,0,0.2,0.1,0.2,0.2v0.2c0,0.1-0.1,0.2-0.2,0.2h-2.2v4c0,0.8,0.3,1.3,1.1,1.3
			c0.5,0,1-0.3,1.2-0.4c0.1-0.1,0.2,0,0.2,0.1l0.1,0.2c0.1,0.1,0,0.2-0.1,0.2c-0.2,0.2-0.9,0.5-1.5,0.5c-1.3,0-1.6-0.8-1.6-1.8v-4
			H84.4z"/>
		<path class="st4" d="M92.2,51.2c1.6,0,2.8,1.2,2.8,2.8c0,0.2,0,0.6-0.2,0.6h-5c0,1.4,1.1,2.5,2.4,2.5c0.9,0,1.5-0.4,1.9-0.6
			c0.1-0.1,0.2-0.1,0.3,0l0.1,0.2c0.1,0.1,0,0.2-0.1,0.2c-0.4,0.3-1.3,0.7-2.3,0.7c-1.8,0-3-1.5-3-3.3
			C89.2,52.6,90.4,51.2,92.2,51.2z M94.4,54.1c0-1.2-0.8-2.3-2.2-2.3c-1.4,0-2.3,1-2.4,2.3H94.4z"/>
		<path class="st4" d="M96.3,56.8l0.1-0.2c0.1-0.1,0.2-0.1,0.3,0c0.2,0.1,0.8,0.6,1.7,0.6c0.9,0,1.6-0.5,1.6-1.1
			c0-0.7-0.8-1.1-1.8-1.4c-1.1-0.4-1.9-0.8-1.9-1.8c0-0.7,0.6-1.6,2-1.6c0.8,0,1.4,0.3,1.8,0.5c0.1,0.1,0.1,0.2,0.1,0.3l-0.1,0.1
			c-0.1,0.1-0.2,0.1-0.3,0.1c-0.1-0.1-0.8-0.4-1.5-0.4c-1,0-1.4,0.6-1.4,1c0,0.6,0.6,1,1.5,1.3c1.2,0.4,2.1,0.8,2.1,2
			c0,0.9-0.9,1.7-2.1,1.7c-1.1,0-1.7-0.4-2-0.7C96.3,57,96.3,56.9,96.3,56.8z"/>
	</g>
</g>
</svg>
