<?xml version="1.0" encoding="utf-8"?>
<!-- Generator: Adobe Illustrator 25.4.1, SVG Export Plug-In . SVG Version: 6.00 Build 0)  -->
<svg version="1.1" id="Layer_1" xmlns="http://www.w3.org/2000/svg" xmlns:xlink="http://www.w3.org/1999/xlink" x="0px" y="0px"
	 viewBox="0 0 172.5 79" style="enable-background:new 0 0 172.5 79;" xml:space="preserve">
<style type="text/css">
	.st0{opacity:0.25;}
	.st1{filter:url(#Adobe_OpacityMaskFilter);}
	.st2{fill:url(#SVGID_00000052786177918436926010000016438949993503802274_);}
	.st3{mask:url(#SVGID_1_);}
	.st4{fill:#FFFFFF;}
	.st5{fill:none;stroke:#FFFFFF;stroke-width:0.5;}
</style>
<g>
	<g>
		<g class="st0">
			<g>
				<defs>
					<filter id="Adobe_OpacityMaskFilter" filterUnits="userSpaceOnUse" x="0.3" y="0" width="172" height="78.9">
						<feFlood  style="flood-color:white;flood-opacity:1" result="back"/>
						<feBlend  in="SourceGraphic" in2="back" mode="normal"/>
					</filter>
				</defs>
				<mask maskUnits="userSpaceOnUse" x="0.3" y="0" width="172" height="78.9" id="SVGID_1_">
					<g class="st1">
						
							<linearGradient id="SVGID_00000006692149062938508450000010152294416545823635_" gradientUnits="userSpaceOnUse" x1="-305.5704" y1="342.0597" x2="-304.5704" y2="342.0597" gradientTransform="matrix(0 -77.8513 -77.8513 0 26716.0625 -23710.3848)">
							<stop  offset="0" style="stop-color:#FFFFFF"/>
							<stop  offset="1" style="stop-color:#000000"/>
						</linearGradient>
						
							<rect x="-8.7" y="-7" style="fill:url(#SVGID_00000006692149062938508450000010152294416545823635_);" width="190" height="86.9"/>
					</g>
				</mask>
				<g class="st3">
					<g>
						<rect x="0.3" y="0" class="st4" width="172" height="78.9"/>
					</g>
				</g>
			</g>
		</g>
		<rect x="0.3" y="0.3" class="st5" width="172" height="78.5"/>
	</g>
	<g>
		<path class="st4" d="M13.1,27c-0.2,0-0.3-0.2-0.3-0.4v-1.2c0-0.1,0.1-0.2,0.1-0.3l2.4-1.9c0.2-0.1,0.4-0.2,0.6-0.2h1.4
			c0.2,0,0.3,0.2,0.3,0.3v11.9c0,0.2-0.2,0.4-0.3,0.4h-2.1c-0.2,0-0.4-0.2-0.4-0.4V27H13.1z"/>
		<path class="st4" d="M22,29.2L22,29.2c-1-0.6-1.9-1.5-1.9-2.9c0-2.1,1.9-3.4,4.1-3.4c2.4,0,4.2,1.3,4.2,3.4c0,1.4-1,2.3-1.9,2.8
			v0.1c1.1,0.5,2.3,1.5,2.3,3.1c0,2.2-1.8,3.5-4.6,3.5c-2.7,0-4.5-1.3-4.5-3.5C19.8,30.7,21.1,29.6,22,29.2z M24.3,33.6
			c0.9,0,1.5-0.6,1.5-1.4c0-0.7-0.5-1.4-1.5-1.7c-1,0.3-1.5,1-1.5,1.7C22.8,33,23.4,33.6,24.3,33.6z M25.6,26.4
			c0-0.6-0.5-1.2-1.3-1.2c-0.8,0-1.3,0.6-1.3,1.2c0,0.7,0.4,1.2,1.3,1.5C25.2,27.6,25.6,27,25.6,26.4z"/>
		<path class="st4" d="M30.7,33.1c-0.2,0-0.4-0.2-0.4-0.4v-1.6c0-0.2,0-0.4,0.3-0.7l6.2-7.4c0.1-0.1,0.1-0.1,0.3-0.1h1.3
			c0.2,0,0.4,0.2,0.4,0.4v7.5h1.5c0.2,0,0.4,0.1,0.4,0.3v1.6c0,0.2-0.1,0.4-0.4,0.4h-1.5v2.2c0,0.2-0.2,0.4-0.3,0.4h-2
			c-0.2,0-0.3-0.2-0.3-0.4v-2.2H30.7z M36.2,30.8v-3.5h0l-2.9,3.5v0H36.2z"/>
		<path class="st4" d="M43.7,32.5c1,0,1.9,0.7,1.9,2.3c0,1.5-0.8,2.7-1.5,3.7c-0.1,0.1-0.3,0.1-0.5,0L43.1,38
			c-0.1-0.1-0.1-0.3,0.1-0.5c0.5-0.6,0.9-1.3,0.9-1.9c0-0.1,0-0.1,0-0.2c-0.2,0.1-0.4,0.2-0.7,0.2c-0.9,0-1.4-0.7-1.4-1.6
			C42,33.2,42.7,32.5,43.7,32.5z"/>
		<path class="st4" d="M47.4,33.7l1.1-1.2c0.1-0.1,0.4-0.1,0.5,0c0.7,0.6,1.3,0.9,2.2,0.9c1,0,1.8-0.7,1.8-1.8
			c0-1.1-0.7-1.8-1.9-1.8h-2.8c-0.4,0-0.6-0.4-0.6-0.7v-5.7c0-0.2,0.1-0.3,0.3-0.3h6c0.2,0,0.4,0.2,0.4,0.3v1.6
			c0,0.2-0.2,0.3-0.4,0.3h-3.8v2h1.3c2.6,0,4.2,1.6,4.2,4.1c0,2.4-2,4.4-4.6,4.4c-1.9,0-3.2-1-3.7-1.5C47.2,34,47.1,33.9,47.4,33.7z
			"/>
		<path class="st4" d="M57.9,34.3c-0.1-0.2,0-0.4,0.4-0.5c0.9-0.3,3.3-1.1,3.7-3c-0.5,0.2-1.3,0.4-1.8,0.4c-1.7,0-3.7-1.3-3.7-4
			c0-2.3,1.9-4.2,4.2-4.2c2.9,0,4.5,2.2,4.5,5c0,5.5-4.3,7.5-6.2,8.1c-0.3,0.1-0.5,0-0.6-0.3L57.9,34.3z M62.6,27.2
			c0-1-0.8-1.8-1.8-1.8c-1,0-1.8,0.8-1.8,1.8c0,1,0.8,1.8,1.8,1.8C61.7,29,62.6,28.2,62.6,27.2z"/>
		<path class="st4" d="M67.9,34.3c-0.1-0.2,0-0.4,0.4-0.5c0.9-0.3,3.3-1.1,3.7-3c-0.5,0.2-1.3,0.4-1.8,0.4c-1.7,0-3.7-1.3-3.7-4
			c0-2.3,1.9-4.2,4.2-4.2c2.9,0,4.5,2.2,4.5,5c0,5.5-4.3,7.5-6.2,8.1c-0.3,0.1-0.5,0-0.6-0.3L67.9,34.3z M72.6,27.2
			c0-1-0.8-1.8-1.8-1.8c-1,0-1.8,0.8-1.8,1.8c0,1,0.8,1.8,1.8,1.8C71.8,29,72.6,28.2,72.6,27.2z"/>
	</g>
	<g>
		<path class="st4" d="M16.2,51.3c1.7,0,3.1,1.5,3.1,3.2c0,1.8-1.4,3.3-3.1,3.3c-1.8,0-3.1-1.5-3.1-3.3
			C13.1,52.8,14.4,51.3,16.2,51.3z M16.2,57.2c1.4,0,2.5-1.2,2.5-2.7c0-1.5-1.1-2.7-2.5-2.7c-1.4,0-2.5,1.2-2.5,2.7
			C13.7,56,14.8,57.2,16.2,57.2z"/>
		<path class="st4" d="M21.7,60.7c0,0.1-0.1,0.2-0.2,0.2h-0.2c-0.1,0-0.2-0.1-0.2-0.2v-9.1c0-0.1,0.1-0.2,0.2-0.2
			c0.2,0,0.4,0.2,0.4,0.6c0.2-0.2,1-0.7,2.1-0.7c1.7,0,3,1.4,3,3.2c0,1.8-1.3,3.3-3.1,3.3c-1,0-1.7-0.5-1.9-0.6V60.7z M21.7,56.5
			c0.1,0.1,0.8,0.8,1.9,0.8c1.5,0,2.5-1.2,2.5-2.7c0-1.4-1-2.6-2.4-2.6c-1.2,0-1.9,0.7-2,0.8V56.5z"/>
		<path class="st4" d="M31.2,51.3c1.6,0,2.8,1.2,2.8,2.8c0,0.2,0,0.6-0.2,0.6h-5c0,1.4,1.1,2.5,2.4,2.5c0.9,0,1.5-0.4,1.9-0.6
			c0.1-0.1,0.2-0.1,0.3,0l0.1,0.2c0.1,0.1,0,0.2-0.1,0.2c-0.4,0.3-1.3,0.7-2.3,0.7c-1.8,0-3-1.5-3-3.3
			C28.1,52.8,29.3,51.3,31.2,51.3z M33.4,54.2c0-1.2-0.8-2.3-2.2-2.3c-1.4,0-2.3,1-2.4,2.3H33.4z"/>
		<path class="st4" d="M35.7,51.6c0-0.1,0.1-0.2,0.2-0.2c0.2,0,0.4,0.3,0.4,0.7v0.1c0.2-0.2,0.9-0.9,2-0.9c0.5,0,0.9,0.1,1,0.2
			c0.1,0,0.2,0.2,0.2,0.3L39.3,52c0,0.1-0.1,0.1-0.3,0.1c-0.1,0-0.4-0.2-0.8-0.2c-1.2,0-1.9,1-1.9,1.1v4.5c0,0.1-0.1,0.2-0.2,0.2
			h-0.2c-0.1,0-0.2-0.1-0.2-0.2V51.6z"/>
		<path class="st4" d="M42.8,53.7c0.7,0,1.4,0.2,1.6,0.3c0-1.3-0.3-2.1-1.7-2.1c-0.8,0-1.5,0.4-1.6,0.4c-0.1,0.1-0.2,0-0.2-0.1
			L40.8,52c-0.1-0.1,0-0.2,0.1-0.2c0,0,0.8-0.5,1.9-0.5c1.9,0,2.2,1.2,2.2,2.7v3.5c0,0.1-0.1,0.2-0.2,0.2c-0.2,0-0.4-0.3-0.4-0.7
			v-0.1l0,0c-0.4,0.4-1.2,0.9-2.2,0.9c-1.2,0-2-0.8-2-2.1C40.2,54.6,41.1,53.7,42.8,53.7z M42.3,57.2c0.9,0,1.8-0.6,2.1-0.9v-1.8
			c-0.2-0.1-0.9-0.3-1.6-0.3c-1.2,0-2,0.6-2,1.6C40.8,56.6,41.4,57.2,42.3,57.2z"/>
		<path class="st4" d="M46.5,52c-0.2,0-0.2-0.1-0.2-0.2v-0.2c0-0.1,0.1-0.2,0.2-0.2h0.8v-1.7c0-0.1,0.1-0.2,0.2-0.2l0.2,0
			c0.1,0,0.2,0.1,0.2,0.2v1.7H50c0.1,0,0.2,0.1,0.2,0.2v0.2c0,0.1-0.1,0.2-0.2,0.2h-2.2v4c0,0.8,0.3,1.3,1.1,1.3
			c0.5,0,1-0.3,1.2-0.4c0.1-0.1,0.2,0,0.2,0.1l0.1,0.2c0.1,0.1,0,0.2-0.1,0.2c-0.2,0.2-0.9,0.5-1.5,0.5c-1.3,0-1.6-0.8-1.6-1.8v-4
			H46.5z"/>
		<path class="st4" d="M51.6,49.2c0-0.3,0.2-0.5,0.5-0.5c0.3,0,0.5,0.2,0.5,0.5c0,0.3-0.2,0.5-0.5,0.5
			C51.9,49.7,51.6,49.5,51.6,49.2z M51.9,51.6c0-0.1,0.1-0.2,0.2-0.2h0.2c0.1,0,0.2,0.1,0.2,0.2v5.8c0,0.1-0.1,0.2-0.2,0.2H52
			c-0.1,0-0.2-0.1-0.2-0.2V51.6z"/>
		<path class="st4" d="M57.3,51.3c1.7,0,3.1,1.5,3.1,3.2c0,1.8-1.4,3.3-3.1,3.3c-1.8,0-3.1-1.5-3.1-3.3
			C54.2,52.8,55.6,51.3,57.3,51.3z M57.3,57.2c1.4,0,2.5-1.2,2.5-2.7c0-1.5-1.1-2.7-2.5-2.7c-1.4,0-2.5,1.2-2.5,2.7
			C54.8,56,55.9,57.2,57.3,57.2z"/>
		<path class="st4" d="M62.3,51.6c0-0.1,0.1-0.2,0.2-0.2c0.2,0,0.4,0.3,0.4,0.7v0.2c0.2-0.3,1-0.9,2.2-0.9c1.8,0,2.4,1.1,2.4,2.7
			v3.4c0,0.1-0.1,0.2-0.2,0.2H67c-0.1,0-0.2-0.1-0.2-0.2v-3.4c0-1.4-0.6-2.2-1.8-2.2c-1.3,0-2.1,1-2.1,1.1v4.5
			c0,0.1-0.1,0.2-0.2,0.2h-0.2c-0.1,0-0.2-0.1-0.2-0.2V51.6z"/>
		<path class="st4" d="M69,56.9l0.1-0.2c0.1-0.1,0.2-0.1,0.3,0c0.2,0.1,0.8,0.6,1.7,0.6c0.9,0,1.6-0.5,1.6-1.1
			c0-0.7-0.8-1.1-1.8-1.4c-1.1-0.4-1.9-0.8-1.9-1.8c0-0.7,0.6-1.6,2-1.6c0.8,0,1.4,0.3,1.8,0.5c0.1,0.1,0.1,0.2,0.1,0.3l-0.1,0.1
			c-0.1,0.1-0.2,0.1-0.3,0.1c-0.1-0.1-0.8-0.4-1.5-0.4c-1,0-1.4,0.6-1.4,1c0,0.6,0.6,1,1.5,1.3c1.2,0.4,2.1,0.8,2.1,2
			c0,0.9-0.9,1.7-2.1,1.7c-1.1,0-1.7-0.4-2-0.7C69,57.1,69,57,69,56.9z"/>
		<path class="st4" d="M80.3,53.7c0.7,0,1.4,0.2,1.6,0.3c0-1.3-0.3-2.1-1.7-2.1c-0.8,0-1.5,0.4-1.6,0.4c-0.1,0.1-0.2,0-0.2-0.1
			L78.3,52c-0.1-0.1,0-0.2,0.1-0.2c0,0,0.8-0.5,1.9-0.5c1.9,0,2.2,1.2,2.2,2.7v3.5c0,0.1-0.1,0.2-0.2,0.2c-0.2,0-0.4-0.3-0.4-0.7
			v-0.1l0,0c-0.4,0.4-1.2,0.9-2.2,0.9c-1.2,0-2-0.8-2-2.1C77.7,54.6,78.7,53.7,80.3,53.7z M79.8,57.2c0.9,0,1.8-0.6,2.1-0.9v-1.8
			c-0.2-0.1-0.9-0.3-1.6-0.3c-1.2,0-2,0.6-2,1.6C78.3,56.6,78.9,57.2,79.8,57.2z"/>
		<path class="st4" d="M84.2,56.9l0.1-0.2c0.1-0.1,0.2-0.1,0.3,0c0.2,0.1,0.8,0.6,1.7,0.6c0.9,0,1.6-0.5,1.6-1.1
			c0-0.7-0.8-1.1-1.8-1.4c-1.1-0.4-1.9-0.8-1.9-1.8c0-0.7,0.6-1.6,2-1.6c0.8,0,1.4,0.3,1.8,0.5c0.1,0.1,0.1,0.2,0.1,0.3l-0.1,0.1
			c-0.1,0.1-0.2,0.1-0.3,0.1c-0.1-0.1-0.8-0.4-1.5-0.4c-1,0-1.4,0.6-1.4,1c0,0.6,0.6,1,1.5,1.3c1.2,0.4,2.1,0.8,2.1,2
			c0,0.9-0.9,1.7-2.1,1.7c-1.1,0-1.7-0.4-2-0.7C84.2,57.1,84.1,57,84.2,56.9z"/>
		<path class="st4" d="M89.8,56.9l0.1-0.2c0.1-0.1,0.2-0.1,0.3,0c0.2,0.1,0.8,0.6,1.7,0.6c0.9,0,1.6-0.5,1.6-1.1
			c0-0.7-0.8-1.1-1.8-1.4c-1.1-0.4-1.9-0.8-1.9-1.8c0-0.7,0.6-1.6,2-1.6c0.8,0,1.4,0.3,1.8,0.5c0.1,0.1,0.1,0.2,0.1,0.3l-0.1,0.1
			c-0.1,0.1-0.2,0.1-0.3,0.1c-0.1-0.1-0.8-0.4-1.5-0.4c-1,0-1.4,0.6-1.4,1c0,0.6,0.6,1,1.5,1.3c1.2,0.4,2.1,0.8,2.1,2
			c0,0.9-0.9,1.7-2.1,1.7c-1.1,0-1.7-0.4-2-0.7C89.8,57.1,89.7,57,89.8,56.9z"/>
		<path class="st4" d="M98.4,51.3c1.7,0,3.1,1.5,3.1,3.2c0,1.8-1.4,3.3-3.1,3.3c-1.8,0-3.1-1.5-3.1-3.3
			C95.3,52.8,96.6,51.3,98.4,51.3z M98.4,57.2c1.4,0,2.5-1.2,2.5-2.7c0-1.5-1.1-2.7-2.5-2.7c-1.4,0-2.5,1.2-2.5,2.7
			C95.9,56,97,57.2,98.4,57.2z"/>
		<path class="st4" d="M106.2,51.3c1.2,0,2,0.6,2.3,1c0.1,0.1,0.1,0.2,0,0.3l-0.1,0.1c-0.1,0.1-0.2,0.1-0.3,0
			c-0.1-0.2-0.9-0.7-1.8-0.7c-1.4,0-2.6,1.2-2.6,2.7c0,1.5,1.2,2.7,2.6,2.7c1.1,0,1.8-0.8,2-1c0.1-0.1,0.2-0.1,0.3,0l0.1,0.1
			c0.1,0.1,0.1,0.2,0,0.2c-0.3,0.4-1.1,1.2-2.4,1.2c-1.8,0-3.2-1.4-3.2-3.3C103,52.7,104.4,51.3,106.2,51.3z"/>
		<path class="st4" d="M109.9,49.2c0-0.3,0.2-0.5,0.5-0.5s0.5,0.2,0.5,0.5c0,0.3-0.2,0.5-0.5,0.5S109.9,49.5,109.9,49.2z
			 M110.2,51.6c0-0.1,0.1-0.2,0.2-0.2h0.2c0.1,0,0.2,0.1,0.2,0.2v5.8c0,0.1-0.1,0.2-0.2,0.2h-0.2c-0.1,0-0.2-0.1-0.2-0.2V51.6z"/>
		<path class="st4" d="M115,53.7c0.7,0,1.4,0.2,1.6,0.3c0-1.3-0.3-2.1-1.7-2.1c-0.8,0-1.5,0.4-1.6,0.4c-0.1,0.1-0.2,0-0.2-0.1
			L113,52c-0.1-0.1,0-0.2,0.1-0.2c0,0,0.8-0.5,1.9-0.5c1.9,0,2.2,1.2,2.2,2.7v3.5c0,0.1-0.1,0.2-0.2,0.2c-0.2,0-0.4-0.3-0.4-0.7
			v-0.1l0,0c-0.4,0.4-1.2,0.9-2.2,0.9c-1.2,0-2-0.8-2-2.1C112.4,54.6,113.4,53.7,115,53.7z M114.5,57.2c0.9,0,1.8-0.6,2.1-0.9v-1.8
			c-0.2-0.1-0.9-0.3-1.6-0.3c-1.2,0-2,0.6-2,1.6C113,56.6,113.7,57.2,114.5,57.2z"/>
		<path class="st4" d="M118.7,52c-0.2,0-0.2-0.1-0.2-0.2v-0.2c0-0.1,0.1-0.2,0.2-0.2h0.8v-1.7c0-0.1,0.1-0.2,0.2-0.2l0.2,0
			c0.1,0,0.2,0.1,0.2,0.2v1.7h2.2c0.1,0,0.2,0.1,0.2,0.2v0.2c0,0.1-0.1,0.2-0.2,0.2h-2.2v4c0,0.8,0.3,1.3,1.1,1.3
			c0.5,0,1-0.3,1.2-0.4c0.1-0.1,0.2,0,0.2,0.1l0.1,0.2c0.1,0.1,0,0.2-0.1,0.2c-0.2,0.2-0.9,0.5-1.5,0.5c-1.3,0-1.6-0.8-1.6-1.8v-4
			H118.7z"/>
		<path class="st4" d="M126.6,51.3c1.6,0,2.8,1.2,2.8,2.8c0,0.2,0,0.6-0.2,0.6h-5c0,1.4,1.1,2.5,2.4,2.5c0.9,0,1.5-0.4,1.9-0.6
			c0.1-0.1,0.2-0.1,0.3,0l0.1,0.2c0.1,0.1,0,0.2-0.1,0.2c-0.4,0.3-1.3,0.7-2.3,0.7c-1.8,0-3-1.5-3-3.3
			C123.6,52.8,124.7,51.3,126.6,51.3z M128.8,54.2c0-1.2-0.8-2.3-2.2-2.3c-1.4,0-2.3,1-2.4,2.3H128.8z"/>
		<path class="st4" d="M130.7,56.9l0.1-0.2c0.1-0.1,0.2-0.1,0.3,0c0.2,0.1,0.8,0.6,1.7,0.6c0.9,0,1.6-0.5,1.6-1.1
			c0-0.7-0.8-1.1-1.8-1.4c-1.1-0.4-1.9-0.8-1.9-1.8c0-0.7,0.6-1.6,2-1.6c0.8,0,1.4,0.3,1.8,0.5c0.1,0.1,0.1,0.2,0.1,0.3l-0.1,0.1
			c-0.1,0.1-0.2,0.1-0.3,0.1c-0.1-0.1-0.8-0.4-1.5-0.4c-1,0-1.4,0.6-1.4,1c0,0.6,0.6,1,1.5,1.3c1.2,0.4,2.1,0.8,2.1,2
			c0,0.9-0.9,1.7-2.1,1.7c-1.1,0-1.7-0.4-2-0.7C130.7,57.1,130.6,57,130.7,56.9z"/>
	</g>
</g>
</svg>
