<?xml version="1.0" encoding="utf-8"?>
<!-- Generator: Adobe Illustrator 25.4.1, SVG Export Plug-In . SVG Version: 6.00 Build 0)  -->
<svg version="1.1" id="Layer_1" xmlns="http://www.w3.org/2000/svg" xmlns:xlink="http://www.w3.org/1999/xlink" x="0px" y="0px"
	 viewBox="0 0 220.9 79" style="enable-background:new 0 0 220.9 79;" xml:space="preserve">
<style type="text/css">
	.st0{opacity:0.25;}
	.st1{filter:url(#Adobe_OpacityMaskFilter);}
	.st2{fill:url(#SVGID_00000174561517632128135350000008071128886486944415_);}
	.st3{mask:url(#SVGID_1_);}
	.st4{fill:#FFFFFF;}
	.st5{fill:none;stroke:#FFFFFF;stroke-width:0.5;}
</style>
<g>
	<g>
		<g class="st0">
			<g>
				<defs>
					<filter id="Adobe_OpacityMaskFilter" filterUnits="userSpaceOnUse" x="0.3" y="0" width="220.3" height="78.9">
						<feFlood  style="flood-color:white;flood-opacity:1" result="back"/>
						<feBlend  in="SourceGraphic" in2="back" mode="normal"/>
					</filter>
				</defs>
				<mask maskUnits="userSpaceOnUse" x="0.3" y="0" width="220.3" height="78.9" id="SVGID_1_">
					<g class="st1">
						
							<linearGradient id="SVGID_00000037692471206862733840000007373510873708100528_" gradientUnits="userSpaceOnUse" x1="-281.5704" y1="342.376" x2="-280.5704" y2="342.376" gradientTransform="matrix(0 -77.8513 -77.8513 0 26764.8965 -21841.9531)">
							<stop  offset="0" style="stop-color:#FFFFFF"/>
							<stop  offset="1" style="stop-color:#000000"/>
						</linearGradient>
						
							<rect x="-8.7" y="-7" style="fill:url(#SVGID_00000037692471206862733840000007373510873708100528_);" width="238.3" height="86.9"/>
					</g>
				</mask>
				<g class="st3">
					<g>
						<rect x="0.3" y="0" class="st4" width="220.3" height="78.9"/>
					</g>
				</g>
			</g>
		</g>
		<rect x="0.2" y="0.3" class="st5" width="220.4" height="78.5"/>
	</g>
	<g>
		<path class="st4" d="M13.1,39.9l2.4-2.7c0.3-0.3,0.7-0.4,1-0.1c1,0.8,2.4,1.9,4.5,1.9c2,0,3.6-1.2,3.6-3.3c0-2-1.8-3.4-4.9-3.4
			h-2.3c-0.4,0-0.8-0.4-0.8-0.8v-3.4c0-0.4,0.4-0.8,0.8-0.8h2.3c2.9,0,4.4-1.4,4.4-3.1c0-1.8-1.2-3.1-3.3-3.1c-1.8,0-3,1-3.6,1.6
			c-0.3,0.4-0.8,0.4-1.1,0.1l-2.5-2.5c-0.3-0.3-0.3-0.8,0-1.1c1.4-1.5,3.9-3.6,7.9-3.6c4.8,0,8.9,2.9,8.9,7.6c0,3.2-2.4,5.5-4.2,6.3
			v0.2c2.2,0.8,5,2.8,5,6.6c0,4.5-3.9,8.1-9.6,8.1c-5.2,0-7.6-2.5-8.5-3.6C12.8,40.6,12.8,40.2,13.1,39.9z"/>
		<path class="st4" d="M34.9,21.3c-0.4,0-0.8-0.4-0.8-0.8v-3.7c0-0.4,0.4-0.8,0.8-0.8h17.5c0.4,0,0.7,0.2,0.7,0.6v0.2
			c0,0.2,0,0.3-0.2,0.6L40.7,42.9c-0.5,1-1.1,1.2-1.7,1.2H35c-0.5,0-0.8-0.3-0.8-0.8c0-0.4,0.1-0.6,0.2-1l10-20.9v-0.1H34.9z"/>
		<path class="st4" d="M53.9,37.1c2.2,0,4.2,1.6,4.2,5.2c0,3.4-1.7,6.1-3.3,8.2c-0.3,0.3-0.7,0.3-1,0l-1.3-1.2
			c-0.3-0.3-0.2-0.7,0.1-1c1-1.2,2.1-2.8,2.1-4.2c0-0.1,0-0.2,0-0.4c-0.4,0.3-1,0.4-1.5,0.4c-2,0-3-1.6-3-3.5
			C50.1,38.6,51.7,37.1,53.9,37.1z"/>
		<path class="st4" d="M62,39.9l2.4-2.7c0.3-0.3,0.7-0.4,1-0.1c1,0.8,2.4,1.9,4.5,1.9c2,0,3.6-1.2,3.6-3.3c0-2-1.8-3.4-4.9-3.4h-2.3
			c-0.4,0-0.8-0.4-0.8-0.8v-3.4c0-0.4,0.4-0.8,0.8-0.8h2.3c2.9,0,4.4-1.4,4.4-3.1c0-1.8-1.2-3.1-3.3-3.1c-1.8,0-3,1-3.6,1.6
			c-0.3,0.4-0.8,0.4-1.1,0.1l-2.5-2.5c-0.3-0.3-0.3-0.8,0-1.1c1.4-1.5,3.9-3.6,7.9-3.6c4.8,0,8.9,2.9,8.9,7.6c0,3.2-2.4,5.5-4.2,6.3
			v0.2c2.2,0.8,5,2.8,5,6.6c0,4.5-3.9,8.1-9.6,8.1c-5.2,0-7.6-2.5-8.5-3.6C61.7,40.6,61.8,40.2,62,39.9z"/>
		<path class="st4" d="M83.7,39.7l2.5-2.6c0.3-0.3,0.8-0.3,1.1,0c1.6,1.3,2.9,2,4.9,2c2.2,0,3.9-1.6,3.9-3.9c0-2.5-1.6-4-4.3-4h-6.3
			c-0.8,0-1.3-0.8-1.3-1.5V16.8c0-0.4,0.3-0.8,0.8-0.8h13.3c0.4,0,0.8,0.4,0.8,0.8v3.6c0,0.4-0.4,0.8-0.8,0.8h-8.5v4.4h2.9
			c5.7,0,9.4,3.6,9.4,9.1c0,5.4-4.4,9.7-10.2,9.7c-4.3,0-7.1-2.2-8.1-3.4C83.3,40.4,83.2,40.2,83.7,39.7z"/>
		<path class="st4" d="M105.2,21.3c-0.4,0-0.8-0.4-0.8-0.8v-3.7c0-0.4,0.4-0.8,0.8-0.8h17.5c0.4,0,0.7,0.2,0.7,0.6v0.2
			c0,0.2,0,0.3-0.2,0.6L111,42.9c-0.5,1-1.1,1.2-1.7,1.2h-4.1c-0.5,0-0.8-0.3-0.8-0.8c0-0.4,0.1-0.6,0.2-1l10-20.9v-0.1H105.2z"/>
	</g>
	<g>
		<path class="st4" d="M12.5,57.4c-0.2,0-0.2-0.1-0.2-0.2V57c0-0.1,0.1-0.2,0.2-0.2h0.8v-1.7c0-0.1,0.1-0.2,0.2-0.2l0.2,0
			c0.1,0,0.2,0.1,0.2,0.2v1.7h2.2c0.1,0,0.2,0.1,0.2,0.2v0.2c0,0.1-0.1,0.2-0.2,0.2h-2.2v4c0,0.8,0.3,1.3,1.1,1.3
			c0.5,0,1-0.3,1.2-0.4c0.1-0.1,0.2,0,0.2,0.1l0.1,0.2c0.1,0.1,0,0.2-0.1,0.2c-0.2,0.2-0.9,0.5-1.5,0.5c-1.3,0-1.6-0.8-1.6-1.8v-4
			H12.5z"/>
		<path class="st4" d="M20.4,56.7c1.7,0,3.1,1.5,3.1,3.2c0,1.8-1.4,3.3-3.1,3.3c-1.8,0-3.1-1.5-3.1-3.3
			C17.3,58.2,18.6,56.7,20.4,56.7z M20.4,62.6c1.4,0,2.5-1.2,2.5-2.7c0-1.5-1.1-2.7-2.5-2.7c-1.4,0-2.5,1.2-2.5,2.7
			C17.9,61.4,19,62.6,20.4,62.6z"/>
		<path class="st4" d="M24.7,57.4c-0.2,0-0.2-0.1-0.2-0.2V57c0-0.1,0.1-0.2,0.2-0.2h0.8v-1.7c0-0.1,0.1-0.2,0.2-0.2l0.2,0
			c0.1,0,0.2,0.1,0.2,0.2v1.7h2.2c0.1,0,0.2,0.1,0.2,0.2v0.2c0,0.1-0.1,0.2-0.2,0.2H26v4c0,0.8,0.3,1.3,1.1,1.3c0.5,0,1-0.3,1.2-0.4
			c0.1-0.1,0.2,0,0.2,0.1l0.1,0.2c0.1,0.1,0,0.2-0.1,0.2c-0.2,0.2-0.9,0.5-1.5,0.5c-1.3,0-1.6-0.8-1.6-1.8v-4H24.7z"/>
		<path class="st4" d="M32.3,59.1c0.7,0,1.4,0.2,1.6,0.3c0-1.3-0.3-2.1-1.7-2.1c-0.8,0-1.5,0.4-1.6,0.4c-0.1,0.1-0.2,0-0.2-0.1
			l-0.1-0.2c-0.1-0.1,0-0.2,0.1-0.2c0,0,0.8-0.5,1.9-0.5c1.9,0,2.2,1.2,2.2,2.7v3.5c0,0.1-0.1,0.2-0.2,0.2c-0.2,0-0.4-0.3-0.4-0.7
			v-0.1l0,0c-0.4,0.4-1.2,0.9-2.2,0.9c-1.2,0-2-0.8-2-2.1C29.7,60,30.6,59.1,32.3,59.1z M31.8,62.6c0.9,0,1.8-0.6,2.1-0.9v-1.8
			c-0.2-0.1-0.9-0.3-1.6-0.3c-1.2,0-2,0.6-2,1.6C30.2,62,30.9,62.6,31.8,62.6z"/>
		<path class="st4" d="M36.6,53.8c0-0.1,0.1-0.2,0.2-0.2H37c0.1,0,0.2,0.1,0.2,0.2v9c0,0.1-0.1,0.2-0.2,0.2h-0.2
			c-0.1,0-0.2-0.1-0.2-0.2V53.8z"/>
		<path class="st4" d="M44.9,59.1c0.7,0,1.4,0.2,1.6,0.3c0-1.3-0.3-2.1-1.7-2.1c-0.8,0-1.5,0.4-1.6,0.4c-0.1,0.1-0.2,0-0.2-0.1
			l-0.1-0.2c-0.1-0.1,0-0.2,0.1-0.2c0,0,0.8-0.5,1.9-0.5c1.9,0,2.2,1.2,2.2,2.7v3.5c0,0.1-0.1,0.2-0.2,0.2c-0.2,0-0.4-0.3-0.4-0.7
			v-0.1l0,0c-0.4,0.4-1.2,0.9-2.2,0.9c-1.2,0-2-0.8-2-2.1C42.3,60,43.2,59.1,44.9,59.1z M44.4,62.6c0.9,0,1.8-0.6,2.1-0.9v-1.8
			c-0.2-0.1-0.9-0.3-1.6-0.3c-1.2,0-2,0.6-2,1.6C42.9,62,43.5,62.6,44.4,62.6z"/>
		<path class="st4" d="M48.8,62.3l0.1-0.2c0.1-0.1,0.2-0.1,0.3,0c0.2,0.1,0.8,0.6,1.7,0.6c0.9,0,1.6-0.5,1.6-1.1
			c0-0.7-0.8-1.1-1.8-1.4c-1.1-0.4-1.9-0.8-1.9-1.8c0-0.7,0.6-1.6,2-1.6c0.8,0,1.4,0.3,1.8,0.5c0.1,0.1,0.1,0.2,0.1,0.3l-0.1,0.1
			c-0.1,0.1-0.2,0.1-0.3,0.1c-0.1-0.1-0.8-0.4-1.5-0.4c-1,0-1.4,0.6-1.4,1c0,0.6,0.6,1,1.5,1.3c1.2,0.4,2.1,0.8,2.1,2
			c0,0.9-0.9,1.7-2.1,1.7c-1.1,0-1.7-0.4-2-0.7C48.8,62.5,48.7,62.4,48.8,62.3z"/>
		<path class="st4" d="M54.3,62.3l0.1-0.2c0.1-0.1,0.2-0.1,0.3,0c0.2,0.1,0.8,0.6,1.7,0.6c0.9,0,1.6-0.5,1.6-1.1
			c0-0.7-0.8-1.1-1.8-1.4c-1.1-0.4-1.9-0.8-1.9-1.8c0-0.7,0.6-1.6,2-1.6c0.8,0,1.4,0.3,1.8,0.5c0.1,0.1,0.1,0.2,0.1,0.3l-0.1,0.1
			c-0.1,0.1-0.2,0.1-0.3,0.1c-0.1-0.1-0.8-0.4-1.5-0.4c-1,0-1.4,0.6-1.4,1c0,0.6,0.6,1,1.5,1.3c1.2,0.4,2.1,0.8,2.1,2
			c0,0.9-0.9,1.7-2.1,1.7c-1.1,0-1.7-0.4-2-0.7C54.3,62.5,54.3,62.4,54.3,62.3z"/>
		<path class="st4" d="M63,56.7c1.7,0,3.1,1.5,3.1,3.2c0,1.8-1.4,3.3-3.1,3.3c-1.8,0-3.1-1.5-3.1-3.3C59.8,58.2,61.2,56.7,63,56.7z
			 M63,62.6c1.4,0,2.5-1.2,2.5-2.7c0-1.5-1.1-2.7-2.5-2.7c-1.4,0-2.5,1.2-2.5,2.7C60.4,61.4,61.6,62.6,63,62.6z"/>
		<path class="st4" d="M70.7,56.7c1.2,0,2,0.6,2.3,1c0.1,0.1,0.1,0.2,0,0.3l-0.1,0.1c-0.1,0.1-0.2,0.1-0.3,0
			c-0.1-0.2-0.9-0.7-1.8-0.7c-1.4,0-2.6,1.2-2.6,2.7c0,1.5,1.2,2.7,2.6,2.7c1.1,0,1.8-0.8,2-1c0.1-0.1,0.2-0.1,0.3,0l0.1,0.1
			c0.1,0.1,0.1,0.2,0,0.2c-0.3,0.4-1.1,1.2-2.4,1.2c-1.8,0-3.2-1.4-3.2-3.3C67.5,58.1,69,56.7,70.7,56.7z"/>
		<path class="st4" d="M74.5,54.6c0-0.3,0.2-0.5,0.5-0.5c0.3,0,0.5,0.2,0.5,0.5c0,0.3-0.2,0.5-0.5,0.5
			C74.8,55.1,74.5,54.9,74.5,54.6z M74.8,57c0-0.1,0.1-0.2,0.2-0.2h0.2c0.1,0,0.2,0.1,0.2,0.2v5.8c0,0.1-0.1,0.2-0.2,0.2h-0.2
			c-0.1,0-0.2-0.1-0.2-0.2V57z"/>
		<path class="st4" d="M79.6,59.1c0.7,0,1.4,0.2,1.6,0.3c0-1.3-0.3-2.1-1.7-2.1c-0.8,0-1.5,0.4-1.6,0.4c-0.1,0.1-0.2,0-0.2-0.1
			l-0.1-0.2c-0.1-0.1,0-0.2,0.1-0.2c0,0,0.8-0.5,1.9-0.5c1.9,0,2.2,1.2,2.2,2.7v3.5c0,0.1-0.1,0.2-0.2,0.2c-0.2,0-0.4-0.3-0.4-0.7
			v-0.1l0,0c-0.4,0.4-1.2,0.9-2.2,0.9c-1.2,0-2-0.8-2-2.1C77,60,78,59.1,79.6,59.1z M79.1,62.6c0.9,0,1.8-0.6,2.1-0.9v-1.8
			c-0.2-0.1-0.9-0.3-1.6-0.3c-1.2,0-2,0.6-2,1.6C77.6,62,78.2,62.6,79.1,62.6z"/>
		<path class="st4" d="M83.3,57.4c-0.2,0-0.2-0.1-0.2-0.2V57c0-0.1,0.1-0.2,0.2-0.2h0.8v-1.7c0-0.1,0.1-0.2,0.2-0.2l0.2,0
			c0.1,0,0.2,0.1,0.2,0.2v1.7h2.2c0.1,0,0.2,0.1,0.2,0.2v0.2c0,0.1-0.1,0.2-0.2,0.2h-2.2v4c0,0.8,0.3,1.3,1.1,1.3
			c0.5,0,1-0.3,1.2-0.4c0.1-0.1,0.2,0,0.2,0.1l0.1,0.2c0.1,0.1,0,0.2-0.1,0.2c-0.2,0.2-0.9,0.5-1.5,0.5c-1.3,0-1.6-0.8-1.6-1.8v-4
			H83.3z"/>
		<path class="st4" d="M91.1,56.7c1.6,0,2.8,1.2,2.8,2.8c0,0.2,0,0.6-0.2,0.6h-5c0,1.4,1.1,2.5,2.4,2.5c0.9,0,1.5-0.4,1.9-0.6
			c0.1-0.1,0.2-0.1,0.3,0l0.1,0.2c0.1,0.1,0,0.2-0.1,0.2c-0.4,0.3-1.3,0.7-2.3,0.7c-1.8,0-3-1.5-3-3.3
			C88.1,58.2,89.3,56.7,91.1,56.7z M93.3,59.6c0-1.2-0.8-2.3-2.2-2.3c-1.4,0-2.3,1-2.4,2.3H93.3z"/>
		<path class="st4" d="M95.3,62.3l0.1-0.2c0.1-0.1,0.2-0.1,0.3,0c0.2,0.1,0.8,0.6,1.7,0.6c0.9,0,1.6-0.5,1.6-1.1
			c0-0.7-0.8-1.1-1.8-1.4c-1.1-0.4-1.9-0.8-1.9-1.8c0-0.7,0.6-1.6,2-1.6c0.8,0,1.4,0.3,1.8,0.5c0.1,0.1,0.1,0.2,0.1,0.3L99,57.6
			c-0.1,0.1-0.2,0.1-0.3,0.1c-0.1-0.1-0.8-0.4-1.5-0.4c-1,0-1.4,0.6-1.4,1c0,0.6,0.6,1,1.5,1.3c1.2,0.4,2.1,0.8,2.1,2
			c0,0.9-0.9,1.7-2.1,1.7c-1.1,0-1.7-0.4-2-0.7C95.3,62.5,95.2,62.4,95.3,62.3z"/>
	</g>
</g>
</svg>
