<?xml version="1.0" encoding="utf-8"?>
<!-- Generator: Adobe Illustrator 25.4.1, SVG Export Plug-In . SVG Version: 6.00 Build 0)  -->
<svg version="1.1" id="Layer_1" xmlns="http://www.w3.org/2000/svg" xmlns:xlink="http://www.w3.org/1999/xlink" x="0px" y="0px"
	 viewBox="0 0 220.9 79" style="enable-background:new 0 0 220.9 79;" xml:space="preserve">
<style type="text/css">
	.st0{opacity:0.25;}
	.st1{filter:url(#Adobe_OpacityMaskFilter);}
	.st2{fill:url(#SVGID_00000007399981011463876300000007821700829270476719_);}
	.st3{mask:url(#SVGID_1_);}
	.st4{fill:#FFFFFF;}
	.st5{fill:none;stroke:#FFFFFF;stroke-width:0.5;}
</style>
<g>
	<g>
		<g class="st0">
			<g>
				<defs>
					<filter id="Adobe_OpacityMaskFilter" filterUnits="userSpaceOnUse" x="-0.1" y="0" width="220.3" height="78.9">
						<feFlood  style="flood-color:white;flood-opacity:1" result="back"/>
						<feBlend  in="SourceGraphic" in2="back" mode="normal"/>
					</filter>
				</defs>
				<mask maskUnits="userSpaceOnUse" x="-0.1" y="0" width="220.3" height="78.9" id="SVGID_1_">
					<g class="st1">
						
							<linearGradient id="SVGID_00000148630755450214048290000013122576608406801794_" gradientUnits="userSpaceOnUse" x1="-281.5704" y1="342.381" x2="-280.5704" y2="342.381" gradientTransform="matrix(0 -77.8513 -77.8513 0 26764.8965 -21841.9531)">
							<stop  offset="0" style="stop-color:#FFFFFF"/>
							<stop  offset="1" style="stop-color:#000000"/>
						</linearGradient>
						
							<rect x="-9.1" y="-7" style="fill:url(#SVGID_00000148630755450214048290000013122576608406801794_);" width="238.3" height="86.9"/>
					</g>
				</mask>
				<g class="st3">
					<g>
						<rect x="-0.1" y="0" class="st4" width="220.3" height="78.9"/>
					</g>
				</g>
			</g>
		</g>
		<rect x="-0.1" y="0.3" class="st5" width="220.4" height="78.5"/>
	</g>
	<g>
		<path class="st4" d="M13.1,24.8c-0.4,0-0.7-0.4-0.7-0.8v-2.6c0-0.3,0.1-0.5,0.2-0.6l5.4-4.2c0.4-0.3,0.9-0.5,1.4-0.5h3
			c0.4,0,0.8,0.4,0.8,0.8v26.4c0,0.4-0.4,0.8-0.8,0.8h-4.6c-0.5,0-0.8-0.4-0.8-0.8V24.8H13.1z"/>
		<path class="st4" d="M30.7,41c-0.2-0.5,0-1,0.8-1.2c1.9-0.6,7.3-2.4,8.3-6.6c-1.1,0.4-2.8,0.8-3.9,0.8c-3.9,0-8.2-2.9-8.2-9
			c0-5.2,4.3-9.4,9.4-9.4c6.4,0,9.9,4.8,9.9,11.2c0,12.1-9.5,16.7-13.8,17.9c-0.6,0.2-1.1-0.1-1.3-0.6L30.7,41z M41.1,25.3
			c0-2.1-1.8-4-4-4c-2.2,0-4,1.8-4,4c0,2.2,1.8,4,4,4C39.3,29.3,41.1,27.5,41.1,25.3z"/>
		<path class="st4" d="M49.1,39.9l2.4-2.7c0.3-0.3,0.7-0.4,1-0.1c1,0.8,2.4,1.9,4.5,1.9c2,0,3.6-1.2,3.6-3.3c0-2-1.8-3.4-4.9-3.4
			h-2.3c-0.4,0-0.8-0.4-0.8-0.8v-3.4c0-0.4,0.4-0.8,0.8-0.8h2.3c2.9,0,4.4-1.4,4.4-3.1c0-1.8-1.2-3.1-3.3-3.1c-1.8,0-3,1-3.6,1.6
			c-0.3,0.4-0.8,0.4-1.1,0.1l-2.5-2.5c-0.3-0.3-0.3-0.8,0-1.1c1.4-1.5,3.9-3.6,7.9-3.6c4.8,0,8.9,2.9,8.9,7.6c0,3.2-2.4,5.5-4.2,6.3
			v0.2c2.2,0.8,5,2.8,5,6.6c0,4.5-3.9,8.1-9.6,8.1c-5.2,0-7.6-2.5-8.5-3.6C48.8,40.6,48.9,40.2,49.1,39.9z"/>
		<path class="st4" d="M73.9,37.1c2.2,0,4.2,1.6,4.2,5.2c0,3.4-1.7,6.1-3.3,8.2c-0.3,0.3-0.7,0.3-1,0l-1.3-1.2
			c-0.3-0.3-0.2-0.7,0.1-1c1-1.2,2.1-2.8,2.1-4.2c0-0.1,0-0.2,0-0.4c-0.4,0.3-1,0.4-1.5,0.4c-2,0-3-1.6-3-3.5
			C70.1,38.6,71.7,37.1,73.9,37.1z"/>
		<path class="st4" d="M83.2,41c-0.2-0.5,0-1,0.8-1.2c1.9-0.6,7.3-2.4,8.3-6.6c-1.1,0.4-2.8,0.8-3.9,0.8c-3.9,0-8.2-2.9-8.2-9
			c0-5.2,4.3-9.4,9.4-9.4c6.4,0,9.9,4.8,9.9,11.2c0,12.1-9.5,16.7-13.8,17.9c-0.6,0.2-1.1-0.1-1.3-0.6L83.2,41z M93.6,25.3
			c0-2.1-1.8-4-4-4c-2.2,0-4,1.8-4,4c0,2.2,1.8,4,4,4C91.9,29.3,93.6,27.5,93.6,25.3z"/>
		<path class="st4" d="M102.8,30.1c0-9,3.8-14.4,10.5-14.4c6.7,0,10.6,5.4,10.6,14.4c0,9-3.8,14.4-10.6,14.4
			C106.6,44.5,102.8,39.1,102.8,30.1z M117.6,30.1c0-5.4-1.8-8.6-4.3-8.6c-2.5,0-4.2,3.2-4.2,8.6c0,5.4,1.8,8.6,4.2,8.6
			C115.8,38.7,117.6,35.5,117.6,30.1z"/>
		<path class="st4" d="M143,38.8c0.4,0,0.8,0.4,0.8,0.8v3.7c0,0.4-0.4,0.8-0.8,0.8h-16.5c-0.4,0-0.8-0.4-0.8-0.8V43
			c0-0.4,0-0.5,0.5-1.2c2.6-3.5,8.1-11,10.4-14.4c0.5-0.8,1-2,1-3.1c0-1.6-1.3-3-3.6-3c-1.7,0-2.9,1-4,2.1c-0.3,0.3-0.8,0.3-1.2,0
			l-2.5-2.6c-0.3-0.2-0.3-0.8,0-1.1c1.6-1.7,4.2-4,8.2-4c5.9,0,9.4,3.8,9.4,8.3c0,2.2-0.6,3.4-1.6,5.3c-1.3,2.3-4.6,6.7-6.6,9.4v0.1
			H143z"/>
	</g>
	<g>
		<path class="st4" d="M12.1,57.4c-0.2,0-0.2-0.1-0.2-0.2V57c0-0.1,0.1-0.2,0.2-0.2h0.8v-1.7c0-0.1,0.1-0.2,0.2-0.2l0.2,0
			c0.1,0,0.2,0.1,0.2,0.2v1.7h2.2c0.1,0,0.2,0.1,0.2,0.2v0.2c0,0.1-0.1,0.2-0.2,0.2h-2.2v4c0,0.8,0.3,1.3,1.1,1.3
			c0.5,0,1-0.3,1.2-0.4c0.1-0.1,0.2,0,0.2,0.1l0.1,0.2c0.1,0.1,0,0.2-0.1,0.2c-0.2,0.2-0.9,0.5-1.5,0.5c-1.3,0-1.6-0.8-1.6-1.8v-4
			H12.1z"/>
		<path class="st4" d="M20,56.7c1.7,0,3.1,1.5,3.1,3.2c0,1.8-1.4,3.3-3.1,3.3c-1.8,0-3.1-1.5-3.1-3.3C16.9,58.2,18.2,56.7,20,56.7z
			 M20,62.6c1.4,0,2.5-1.2,2.5-2.7c0-1.5-1.1-2.7-2.5-2.7c-1.4,0-2.5,1.2-2.5,2.7C17.5,61.4,18.6,62.6,20,62.6z"/>
		<path class="st4" d="M24.3,57.4c-0.2,0-0.2-0.1-0.2-0.2V57c0-0.1,0.1-0.2,0.2-0.2H25v-1.7c0-0.1,0.1-0.2,0.2-0.2l0.2,0
			c0.1,0,0.2,0.1,0.2,0.2v1.7h2.2c0.1,0,0.2,0.1,0.2,0.2v0.2c0,0.1-0.1,0.2-0.2,0.2h-2.2v4c0,0.8,0.3,1.3,1.1,1.3
			c0.5,0,1-0.3,1.2-0.4c0.1-0.1,0.2,0,0.2,0.1l0.1,0.2c0.1,0.1,0,0.2-0.1,0.2c-0.2,0.2-0.9,0.5-1.5,0.5c-1.3,0-1.6-0.8-1.6-1.8v-4
			H24.3z"/>
		<path class="st4" d="M31.9,59.1c0.7,0,1.4,0.2,1.6,0.3c0-1.3-0.3-2.1-1.7-2.1c-0.8,0-1.5,0.4-1.6,0.4c-0.1,0.1-0.2,0-0.2-0.1
			l-0.1-0.2c-0.1-0.1,0-0.2,0.1-0.2c0,0,0.8-0.5,1.9-0.5c1.9,0,2.2,1.2,2.2,2.7v3.5c0,0.1-0.1,0.2-0.2,0.2c-0.2,0-0.4-0.3-0.4-0.7
			v-0.1l0,0c-0.4,0.4-1.2,0.9-2.2,0.9c-1.2,0-2-0.8-2-2.1C29.3,60,30.2,59.1,31.9,59.1z M31.4,62.6c0.9,0,1.8-0.6,2.1-0.9v-1.8
			c-0.2-0.1-0.9-0.3-1.6-0.3c-1.2,0-2,0.6-2,1.6C29.9,62,30.5,62.6,31.4,62.6z"/>
		<path class="st4" d="M36.3,53.8c0-0.1,0.1-0.2,0.2-0.2h0.2c0.1,0,0.2,0.1,0.2,0.2v9c0,0.1-0.1,0.2-0.2,0.2h-0.2
			c-0.1,0-0.2-0.1-0.2-0.2V53.8z"/>
		<path class="st4" d="M44.5,59.1c0.7,0,1.4,0.2,1.6,0.3c0-1.3-0.3-2.1-1.7-2.1c-0.8,0-1.5,0.4-1.6,0.4c-0.1,0.1-0.2,0-0.2-0.1
			l-0.1-0.2c-0.1-0.1,0-0.2,0.1-0.2c0,0,0.8-0.5,1.9-0.5c1.9,0,2.2,1.2,2.2,2.7v3.5c0,0.1-0.1,0.2-0.2,0.2c-0.2,0-0.4-0.3-0.4-0.7
			v-0.1l0,0c-0.4,0.4-1.2,0.9-2.2,0.9c-1.2,0-2-0.8-2-2.1C41.9,60,42.9,59.1,44.5,59.1z M44,62.6c0.9,0,1.8-0.6,2.1-0.9v-1.8
			c-0.2-0.1-0.9-0.3-1.6-0.3c-1.2,0-2,0.6-2,1.6C42.5,62,43.1,62.6,44,62.6z"/>
		<path class="st4" d="M48.4,62.3l0.1-0.2c0.1-0.1,0.2-0.1,0.3,0c0.2,0.1,0.8,0.6,1.7,0.6c0.9,0,1.6-0.5,1.6-1.1
			c0-0.7-0.8-1.1-1.8-1.4c-1.1-0.4-1.9-0.8-1.9-1.8c0-0.7,0.6-1.6,2-1.6c0.8,0,1.4,0.3,1.8,0.5c0.1,0.1,0.1,0.2,0.1,0.3l-0.1,0.1
			c-0.1,0.1-0.2,0.1-0.3,0.1c-0.1-0.1-0.8-0.4-1.5-0.4c-1,0-1.4,0.6-1.4,1c0,0.6,0.6,1,1.5,1.3c1.2,0.4,2.1,0.8,2.1,2
			c0,0.9-0.9,1.7-2.1,1.7c-1.1,0-1.7-0.4-2-0.7C48.4,62.5,48.3,62.4,48.4,62.3z"/>
		<path class="st4" d="M54,62.3l0.1-0.2c0.1-0.1,0.2-0.1,0.3,0c0.2,0.1,0.8,0.6,1.7,0.6c0.9,0,1.6-0.5,1.6-1.1
			c0-0.7-0.8-1.1-1.8-1.4c-1.1-0.4-1.9-0.8-1.9-1.8c0-0.7,0.6-1.6,2-1.6c0.8,0,1.4,0.3,1.8,0.5c0.1,0.1,0.1,0.2,0.1,0.3l-0.1,0.1
			c-0.1,0.1-0.2,0.1-0.3,0.1c-0.1-0.1-0.8-0.4-1.5-0.4c-1,0-1.4,0.6-1.4,1c0,0.6,0.6,1,1.5,1.3c1.2,0.4,2.1,0.8,2.1,2
			c0,0.9-0.9,1.7-2.1,1.7c-1.1,0-1.7-0.4-2-0.7C54,62.5,53.9,62.4,54,62.3z"/>
		<path class="st4" d="M62.6,56.7c1.7,0,3.1,1.5,3.1,3.2c0,1.8-1.4,3.3-3.1,3.3c-1.8,0-3.1-1.5-3.1-3.3
			C59.5,58.2,60.8,56.7,62.6,56.7z M62.6,62.6c1.4,0,2.5-1.2,2.5-2.7c0-1.5-1.1-2.7-2.5-2.7c-1.4,0-2.5,1.2-2.5,2.7
			C60.1,61.4,61.2,62.6,62.6,62.6z"/>
		<path class="st4" d="M70.4,56.7c1.2,0,2,0.6,2.3,1c0.1,0.1,0.1,0.2,0,0.3l-0.1,0.1c-0.1,0.1-0.2,0.1-0.3,0
			c-0.1-0.2-0.9-0.7-1.8-0.7c-1.4,0-2.6,1.2-2.6,2.7c0,1.5,1.2,2.7,2.6,2.7c1.1,0,1.8-0.8,2-1c0.1-0.1,0.2-0.1,0.3,0l0.1,0.1
			c0.1,0.1,0.1,0.2,0,0.2c-0.3,0.4-1.1,1.2-2.4,1.2c-1.8,0-3.2-1.4-3.2-3.3C67.1,58.1,68.6,56.7,70.4,56.7z"/>
		<path class="st4" d="M74.1,54.6c0-0.3,0.2-0.5,0.5-0.5c0.3,0,0.5,0.2,0.5,0.5c0,0.3-0.2,0.5-0.5,0.5
			C74.4,55.1,74.1,54.9,74.1,54.6z M74.4,57c0-0.1,0.1-0.2,0.2-0.2h0.2c0.1,0,0.2,0.1,0.2,0.2v5.8c0,0.1-0.1,0.2-0.2,0.2h-0.2
			c-0.1,0-0.2-0.1-0.2-0.2V57z"/>
		<path class="st4" d="M79.2,59.1c0.7,0,1.4,0.2,1.6,0.3c0-1.3-0.3-2.1-1.7-2.1c-0.8,0-1.5,0.4-1.6,0.4c-0.1,0.1-0.2,0-0.2-0.1
			l-0.1-0.2c-0.1-0.1,0-0.2,0.1-0.2c0,0,0.8-0.5,1.9-0.5c1.9,0,2.2,1.2,2.2,2.7v3.5c0,0.1-0.1,0.2-0.2,0.2c-0.2,0-0.4-0.3-0.4-0.7
			v-0.1l0,0c-0.4,0.4-1.2,0.9-2.2,0.9c-1.2,0-2-0.8-2-2.1C76.6,60,77.6,59.1,79.2,59.1z M78.7,62.6c0.9,0,1.8-0.6,2.1-0.9v-1.8
			c-0.2-0.1-0.9-0.3-1.6-0.3c-1.2,0-2,0.6-2,1.6C77.2,62,77.8,62.6,78.7,62.6z"/>
		<path class="st4" d="M82.9,57.4c-0.2,0-0.2-0.1-0.2-0.2V57c0-0.1,0.1-0.2,0.2-0.2h0.8v-1.7c0-0.1,0.1-0.2,0.2-0.2l0.2,0
			c0.1,0,0.2,0.1,0.2,0.2v1.7h2.2c0.1,0,0.2,0.1,0.2,0.2v0.2c0,0.1-0.1,0.2-0.2,0.2h-2.2v4c0,0.8,0.3,1.3,1.1,1.3
			c0.5,0,1-0.3,1.2-0.4c0.1-0.1,0.2,0,0.2,0.1l0.1,0.2c0.1,0.1,0,0.2-0.1,0.2c-0.2,0.2-0.9,0.5-1.5,0.5c-1.3,0-1.6-0.8-1.6-1.8v-4
			H82.9z"/>
		<path class="st4" d="M90.8,56.7c1.6,0,2.8,1.2,2.8,2.8c0,0.2,0,0.6-0.2,0.6h-5c0,1.4,1.1,2.5,2.4,2.5c0.9,0,1.5-0.4,1.9-0.6
			c0.1-0.1,0.2-0.1,0.3,0l0.1,0.2c0.1,0.1,0,0.2-0.1,0.2c-0.4,0.3-1.3,0.7-2.3,0.7c-1.8,0-3-1.5-3-3.3
			C87.7,58.2,88.9,56.7,90.8,56.7z M93,59.6c0-1.2-0.8-2.3-2.2-2.3c-1.4,0-2.3,1-2.4,2.3H93z"/>
		<path class="st4" d="M94.9,62.3l0.1-0.2c0.1-0.1,0.2-0.1,0.3,0c0.2,0.1,0.8,0.6,1.7,0.6c0.9,0,1.6-0.5,1.6-1.1
			c0-0.7-0.8-1.1-1.8-1.4c-1.1-0.4-1.9-0.8-1.9-1.8c0-0.7,0.6-1.6,2-1.6c0.8,0,1.4,0.3,1.8,0.5c0.1,0.1,0.1,0.2,0.1,0.3l-0.1,0.1
			c-0.1,0.1-0.2,0.1-0.3,0.1c-0.1-0.1-0.8-0.4-1.5-0.4c-1,0-1.4,0.6-1.4,1c0,0.6,0.6,1,1.5,1.3c1.2,0.4,2.1,0.8,2.1,2
			c0,0.9-0.9,1.7-2.1,1.7c-1.1,0-1.7-0.4-2-0.7C94.9,62.5,94.8,62.4,94.9,62.3z"/>
	</g>
</g>
</svg>
