<?xml version="1.0" encoding="utf-8"?>
<!-- Generator: Adobe Illustrator 25.4.1, SVG Export Plug-In . SVG Version: 6.00 Build 0)  -->
<svg version="1.1" id="Layer_1" xmlns="http://www.w3.org/2000/svg" xmlns:xlink="http://www.w3.org/1999/xlink" x="0px" y="0px"
	 viewBox="0 0 172.5 79" style="enable-background:new 0 0 172.5 79;" xml:space="preserve">
<style type="text/css">
	.st0{opacity:0.25;}
	.st1{filter:url(#Adobe_OpacityMaskFilter);}
	.st2{fill:url(#SVGID_00000085222765914383296990000011686019894612076417_);}
	.st3{mask:url(#SVGID_1_);}
	.st4{fill:#FFFFFF;}
	.st5{fill:none;stroke:#FFFFFF;stroke-width:0.5;}
</style>
<g>
	<g>
		<g class="st0">
			<g>
				<defs>
					<filter id="Adobe_OpacityMaskFilter" filterUnits="userSpaceOnUse" x="0.4" y="0" width="172" height="78.9">
						<feFlood  style="flood-color:white;flood-opacity:1" result="back"/>
						<feBlend  in="SourceGraphic" in2="back" mode="normal"/>
					</filter>
				</defs>
				<mask maskUnits="userSpaceOnUse" x="0.4" y="0" width="172" height="78.9" id="SVGID_1_">
					<g class="st1">
						
							<linearGradient id="SVGID_00000110468493407657090680000000738873355248546978_" gradientUnits="userSpaceOnUse" x1="-305.5704" y1="342.0581" x2="-304.5704" y2="342.0581" gradientTransform="matrix(0 -77.8513 -77.8513 0 26716.0625 -23710.3848)">
							<stop  offset="0" style="stop-color:#FFFFFF"/>
							<stop  offset="1" style="stop-color:#000000"/>
						</linearGradient>
						
							<rect x="-8.6" y="-7" style="fill:url(#SVGID_00000110468493407657090680000000738873355248546978_);" width="190" height="86.9"/>
					</g>
				</mask>
				<g class="st3">
					<g>
						<rect x="0.4" y="0" class="st4" width="172" height="78.9"/>
					</g>
				</g>
			</g>
		</g>
		<rect x="0.4" y="0.3" class="st5" width="172" height="78.5"/>
	</g>
	<g>
		<path class="st4" d="M14.4,34.3c-0.1-0.2,0-0.4,0.4-0.5c0.9-0.3,3.3-1.1,3.7-3c-0.5,0.2-1.3,0.4-1.8,0.4c-1.7,0-3.7-1.3-3.7-4
			c0-2.3,1.9-4.2,4.2-4.2c2.9,0,4.5,2.2,4.5,5c0,5.5-4.3,7.5-6.2,8.1c-0.3,0.1-0.5,0-0.6-0.3L14.4,34.3z M19.1,27.2
			c0-1-0.8-1.8-1.8-1.8c-1,0-1.8,0.8-1.8,1.8c0,1,0.8,1.8,1.8,1.8C18.3,29,19.1,28.2,19.1,27.2z"/>
		<path class="st4" d="M24.1,32.5c1,0,1.9,0.7,1.9,2.3c0,1.5-0.8,2.7-1.5,3.7c-0.1,0.1-0.3,0.1-0.5,0L23.5,38
			c-0.1-0.1-0.1-0.3,0.1-0.5c0.5-0.6,0.9-1.3,0.9-1.9c0-0.1,0-0.1,0-0.2c-0.2,0.1-0.4,0.2-0.7,0.2c-0.9,0-1.3-0.7-1.3-1.6
			C22.4,33.2,23.1,32.5,24.1,32.5z"/>
		<path class="st4" d="M27.7,33.8l1.1-1.2c0.1-0.1,0.3-0.2,0.5,0c0.5,0.4,1.1,0.8,2,0.8c0.9,0,1.6-0.6,1.6-1.5
			c0-0.9-0.8-1.5-2.2-1.5h-1c-0.2,0-0.3-0.2-0.3-0.3v-1.5c0-0.2,0.2-0.3,0.3-0.3h1c1.3,0,2-0.6,2-1.4c0-0.8-0.5-1.4-1.5-1.4
			c-0.8,0-1.3,0.4-1.6,0.7c-0.1,0.2-0.3,0.2-0.5,0L28,25c-0.1-0.1-0.1-0.4,0-0.5c0.6-0.7,1.8-1.6,3.5-1.6c2.2,0,4,1.3,4,3.4
			c0,1.4-1.1,2.5-1.9,2.8v0.1c1,0.3,2.2,1.3,2.2,3c0,2-1.8,3.7-4.3,3.7c-2.3,0-3.4-1.1-3.8-1.6C27.6,34.1,27.6,33.9,27.7,33.8z"/>
		<path class="st4" d="M37.3,29.4c0-4.1,1.7-6.5,4.7-6.5c3,0,4.8,2.4,4.8,6.5c0,4.1-1.7,6.5-4.8,6.5C39,35.9,37.3,33.4,37.3,29.4z
			 M44,29.4c0-2.4-0.8-3.9-1.9-3.9c-1.1,0-1.9,1.4-1.9,3.9c0,2.4,0.8,3.9,1.9,3.9C43.2,33.2,44,31.8,44,29.4z"/>
		<path class="st4" d="M47.7,33.8l1.1-1.2c0.1-0.1,0.3-0.2,0.5,0c0.5,0.4,1.1,0.8,2,0.8c0.9,0,1.6-0.6,1.6-1.5
			c0-0.9-0.8-1.5-2.2-1.5h-1c-0.2,0-0.3-0.2-0.3-0.3v-1.5c0-0.2,0.2-0.3,0.3-0.3h1c1.3,0,2-0.6,2-1.4c0-0.8-0.5-1.4-1.5-1.4
			c-0.8,0-1.3,0.4-1.6,0.7c-0.1,0.2-0.3,0.2-0.5,0L48,25c-0.1-0.1-0.1-0.4,0-0.5c0.6-0.7,1.8-1.6,3.5-1.6c2.2,0,4,1.3,4,3.4
			c0,1.4-1.1,2.5-1.9,2.8v0.1c1,0.3,2.2,1.3,2.2,3c0,2-1.8,3.7-4.3,3.7c-2.3,0-3.4-1.1-3.8-1.6C47.6,34.1,47.6,33.9,47.7,33.8z"/>
	</g>
	<g>
		<path class="st4" d="M13.2,56.9l0.1-0.2c0.1-0.1,0.2-0.1,0.3,0c0.2,0.1,0.8,0.6,1.7,0.6c0.9,0,1.6-0.5,1.6-1.1
			c0-0.7-0.8-1.1-1.8-1.4c-1.1-0.4-1.9-0.8-1.9-1.8c0-0.7,0.6-1.6,2-1.6c0.8,0,1.4,0.3,1.8,0.5c0.1,0.1,0.1,0.2,0.1,0.3L17,52.2
			c-0.1,0.1-0.2,0.1-0.3,0.1c-0.1-0.1-0.8-0.4-1.5-0.4c-1,0-1.4,0.6-1.4,1c0,0.6,0.6,1,1.5,1.3c1.2,0.4,2.1,0.8,2.1,2
			c0,0.9-0.9,1.7-2.1,1.7c-1.1,0-1.7-0.4-2-0.7C13.2,57.1,13.2,57,13.2,56.9z"/>
		<path class="st4" d="M18.7,52c-0.2,0-0.2-0.1-0.2-0.2v-0.2c0-0.1,0.1-0.2,0.2-0.2h0.8v-1.7c0-0.1,0.1-0.2,0.2-0.2l0.2,0
			c0.1,0,0.2,0.1,0.2,0.2v1.7h2.2c0.1,0,0.2,0.1,0.2,0.2v0.2c0,0.1-0.1,0.2-0.2,0.2h-2.2v4c0,0.8,0.3,1.3,1.1,1.3
			c0.5,0,1-0.3,1.2-0.4c0.1-0.1,0.2,0,0.2,0.1l0.1,0.2c0.1,0.1,0,0.2-0.1,0.2c-0.2,0.2-0.9,0.5-1.5,0.5c-1.3,0-1.6-0.8-1.6-1.8v-4
			H18.7z"/>
		<path class="st4" d="M26.3,53.7c0.7,0,1.4,0.2,1.6,0.3c0-1.3-0.3-2.1-1.7-2.1c-0.8,0-1.5,0.4-1.6,0.4c-0.1,0.1-0.2,0-0.2-0.1
			L24.3,52c-0.1-0.1,0-0.2,0.1-0.2c0,0,0.8-0.5,1.9-0.5c1.9,0,2.2,1.2,2.2,2.7v3.5c0,0.1-0.1,0.2-0.2,0.2c-0.2,0-0.4-0.3-0.4-0.7
			v-0.1l0,0c-0.4,0.4-1.2,0.9-2.2,0.9c-1.2,0-2-0.8-2-2.1C23.7,54.6,24.6,53.7,26.3,53.7z M25.8,57.2c0.9,0,1.8-0.6,2.1-0.9v-1.8
			c-0.2-0.1-0.9-0.3-1.6-0.3c-1.2,0-2,0.6-2,1.6C24.3,56.6,24.9,57.2,25.8,57.2z"/>
		<path class="st4" d="M30.9,52h-1c-0.1,0-0.2-0.1-0.2-0.2v-0.2c0-0.1,0.1-0.2,0.2-0.2h1v-1c0-1.5,0.7-2.4,2-2.4
			c0.8,0,1.5,0.4,1.7,0.7c0.1,0.1,0.1,0.2,0,0.3l-0.1,0.2c-0.1,0.1-0.2,0.1-0.3,0c-0.4-0.3-0.8-0.5-1.4-0.5c-1,0-1.4,0.6-1.4,1.8v1
			h2.3c0.1,0,0.2,0.1,0.2,0.2v0.2c0,0.1-0.1,0.2-0.2,0.2h-2.3v5.5c0,0.1-0.1,0.2-0.2,0.2h-0.2c-0.1,0-0.2-0.1-0.2-0.2V52z"/>
		<path class="st4" d="M36.2,52h-1c-0.1,0-0.2-0.1-0.2-0.2v-0.2c0-0.1,0.1-0.2,0.2-0.2h1v-1c0-1.5,0.7-2.4,2-2.4
			c0.8,0,1.5,0.4,1.7,0.7c0.1,0.1,0.1,0.2,0,0.3l-0.1,0.2c-0.1,0.1-0.2,0.1-0.3,0c-0.4-0.3-0.8-0.5-1.4-0.5c-1,0-1.4,0.6-1.4,1.8v1
			h2.3c0.1,0,0.2,0.1,0.2,0.2v0.2c0,0.1-0.1,0.2-0.2,0.2h-2.3v5.5c0,0.1-0.1,0.2-0.2,0.2h-0.2c-0.1,0-0.2-0.1-0.2-0.2V52z"/>
		<path class="st4" d="M46.1,53.7c0.7,0,1.4,0.2,1.6,0.3c0-1.3-0.3-2.1-1.7-2.1c-0.8,0-1.5,0.4-1.6,0.4c-0.1,0.1-0.2,0-0.2-0.1
			L44.1,52c-0.1-0.1,0-0.2,0.1-0.2c0,0,0.8-0.5,1.9-0.5c1.9,0,2.2,1.2,2.2,2.7v3.5c0,0.1-0.1,0.2-0.2,0.2c-0.2,0-0.4-0.3-0.4-0.7
			v-0.1l0,0c-0.4,0.4-1.2,0.9-2.2,0.9c-1.2,0-2-0.8-2-2.1C43.5,54.6,44.4,53.7,46.1,53.7z M45.6,57.2c0.9,0,1.8-0.6,2.1-0.9v-1.8
			c-0.2-0.1-0.9-0.3-1.6-0.3c-1.2,0-2,0.6-2,1.6C44,56.6,44.7,57.2,45.6,57.2z"/>
		<path class="st4" d="M49.9,56.9l0.1-0.2c0.1-0.1,0.2-0.1,0.3,0c0.2,0.1,0.8,0.6,1.7,0.6c0.9,0,1.6-0.5,1.6-1.1
			c0-0.7-0.8-1.1-1.8-1.4c-1.1-0.4-1.9-0.8-1.9-1.8c0-0.7,0.6-1.6,2-1.6c0.8,0,1.4,0.3,1.8,0.5c0.1,0.1,0.1,0.2,0.1,0.3l-0.1,0.1
			c-0.1,0.1-0.2,0.1-0.3,0.1c-0.1-0.1-0.8-0.4-1.5-0.4c-1,0-1.4,0.6-1.4,1c0,0.6,0.6,1,1.5,1.3c1.2,0.4,2.1,0.8,2.1,2
			c0,0.9-0.9,1.7-2.1,1.7c-1.1,0-1.7-0.4-2-0.7C49.9,57.1,49.9,57,49.9,56.9z"/>
		<path class="st4" d="M55.5,56.9l0.1-0.2c0.1-0.1,0.2-0.1,0.3,0c0.2,0.1,0.8,0.6,1.7,0.6c0.9,0,1.6-0.5,1.6-1.1
			c0-0.7-0.8-1.1-1.8-1.4c-1.1-0.4-1.9-0.8-1.9-1.8c0-0.7,0.6-1.6,2-1.6c0.8,0,1.4,0.3,1.8,0.5c0.1,0.1,0.1,0.2,0.1,0.3l-0.1,0.1
			c-0.1,0.1-0.2,0.1-0.3,0.1c-0.1-0.1-0.8-0.4-1.5-0.4c-1,0-1.4,0.6-1.4,1c0,0.6,0.6,1,1.5,1.3c1.2,0.4,2.1,0.8,2.1,2
			c0,0.9-0.9,1.7-2.1,1.7c-1.1,0-1.7-0.4-2-0.7C55.5,57.1,55.5,57,55.5,56.9z"/>
		<path class="st4" d="M64.2,51.3c1.7,0,3.1,1.5,3.1,3.2c0,1.8-1.4,3.3-3.1,3.3c-1.8,0-3.1-1.5-3.1-3.3C61,52.8,62.4,51.3,64.2,51.3
			z M64.2,57.2c1.4,0,2.5-1.2,2.5-2.7c0-1.5-1.1-2.7-2.5-2.7c-1.4,0-2.5,1.2-2.5,2.7C61.6,56,62.8,57.2,64.2,57.2z"/>
		<path class="st4" d="M71.9,51.3c1.2,0,2,0.6,2.3,1c0.1,0.1,0.1,0.2,0,0.3l-0.1,0.1c-0.1,0.1-0.2,0.1-0.3,0
			c-0.1-0.2-0.9-0.7-1.8-0.7c-1.4,0-2.6,1.2-2.6,2.7c0,1.5,1.2,2.7,2.6,2.7c1.1,0,1.8-0.8,2-1c0.1-0.1,0.2-0.1,0.3,0l0.1,0.1
			c0.1,0.1,0.1,0.2,0,0.2c-0.3,0.4-1.1,1.2-2.4,1.2c-1.8,0-3.2-1.4-3.2-3.3C68.7,52.7,70.2,51.3,71.9,51.3z"/>
		<path class="st4" d="M75.7,49.2c0-0.3,0.2-0.5,0.5-0.5s0.5,0.2,0.5,0.5c0,0.3-0.2,0.5-0.5,0.5S75.7,49.5,75.7,49.2z M76,51.6
			c0-0.1,0.1-0.2,0.2-0.2h0.2c0.1,0,0.2,0.1,0.2,0.2v5.8c0,0.1-0.1,0.2-0.2,0.2h-0.2c-0.1,0-0.2-0.1-0.2-0.2V51.6z"/>
		<path class="st4" d="M80.8,53.7c0.7,0,1.4,0.2,1.6,0.3c0-1.3-0.3-2.1-1.7-2.1c-0.8,0-1.5,0.4-1.6,0.4c-0.1,0.1-0.2,0-0.2-0.1
			L78.8,52c-0.1-0.1,0-0.2,0.1-0.2c0,0,0.8-0.5,1.9-0.5c1.9,0,2.2,1.2,2.2,2.7v3.5c0,0.1-0.1,0.2-0.2,0.2c-0.2,0-0.4-0.3-0.4-0.7
			v-0.1l0,0c-0.4,0.4-1.2,0.9-2.2,0.9c-1.2,0-2-0.8-2-2.1C78.2,54.6,79.1,53.7,80.8,53.7z M80.3,57.2c0.9,0,1.8-0.6,2.1-0.9v-1.8
			c-0.2-0.1-0.9-0.3-1.6-0.3c-1.2,0-2,0.6-2,1.6C78.8,56.6,79.4,57.2,80.3,57.2z"/>
		<path class="st4" d="M84.5,52c-0.2,0-0.2-0.1-0.2-0.2v-0.2c0-0.1,0.1-0.2,0.2-0.2h0.8v-1.7c0-0.1,0.1-0.2,0.2-0.2l0.2,0
			c0.1,0,0.2,0.1,0.2,0.2v1.7h2.2c0.1,0,0.2,0.1,0.2,0.2v0.2c0,0.1-0.1,0.2-0.2,0.2h-2.2v4c0,0.8,0.3,1.3,1.1,1.3
			c0.5,0,1-0.3,1.2-0.4c0.1-0.1,0.2,0,0.2,0.1l0.1,0.2c0.1,0.1,0,0.2-0.1,0.2c-0.2,0.2-0.9,0.5-1.5,0.5c-1.3,0-1.6-0.8-1.6-1.8v-4
			H84.5z"/>
		<path class="st4" d="M92.3,51.3c1.6,0,2.8,1.2,2.8,2.8c0,0.2,0,0.6-0.2,0.6h-5c0,1.4,1.1,2.5,2.4,2.5c0.9,0,1.5-0.4,1.9-0.6
			c0.1-0.1,0.2-0.1,0.3,0l0.1,0.2c0.1,0.1,0,0.2-0.1,0.2c-0.4,0.3-1.3,0.7-2.3,0.7c-1.8,0-3-1.5-3-3.3
			C89.3,52.8,90.5,51.3,92.3,51.3z M94.5,54.2c0-1.2-0.8-2.3-2.2-2.3c-1.4,0-2.3,1-2.4,2.3H94.5z"/>
		<path class="st4" d="M96.4,56.9l0.1-0.2c0.1-0.1,0.2-0.1,0.3,0c0.2,0.1,0.8,0.6,1.7,0.6c0.9,0,1.6-0.5,1.6-1.1
			c0-0.7-0.8-1.1-1.8-1.4c-1.1-0.4-1.9-0.8-1.9-1.8c0-0.7,0.6-1.6,2-1.6c0.8,0,1.4,0.3,1.8,0.5c0.1,0.1,0.1,0.2,0.1,0.3l-0.1,0.1
			c-0.1,0.1-0.2,0.1-0.3,0.1c-0.1-0.1-0.8-0.4-1.5-0.4c-1,0-1.4,0.6-1.4,1c0,0.6,0.6,1,1.5,1.3c1.2,0.4,2.1,0.8,2.1,2
			c0,0.9-0.9,1.7-2.1,1.7c-1.1,0-1.7-0.4-2-0.7C96.4,57.1,96.4,57,96.4,56.9z"/>
	</g>
</g>
</svg>
