<?xml version="1.0" encoding="utf-8"?>
<!-- Generator: Adobe Illustrator 25.4.1, SVG Export Plug-In . SVG Version: 6.00 Build 0)  -->
<svg version="1.1" id="Layer_1" xmlns="http://www.w3.org/2000/svg" xmlns:xlink="http://www.w3.org/1999/xlink" x="0px" y="0px"
	 viewBox="0 0 172.5 79" style="enable-background:new 0 0 172.5 79;" xml:space="preserve">
<style type="text/css">
	.st0{opacity:0.25;}
	.st1{filter:url(#Adobe_OpacityMaskFilter);}
	.st2{fill:url(#SVGID_00000070113913632969796980000012610558685646545561_);}
	.st3{mask:url(#SVGID_1_);}
	.st4{fill:#FFFFFF;}
	.st5{fill:none;stroke:#FFFFFF;stroke-width:0.5;}
</style>
<g>
	<g class="st0">
		<g>
			<defs>
				<filter id="Adobe_OpacityMaskFilter" filterUnits="userSpaceOnUse" x="0.2" y="0" width="172" height="78.9">
					<feFlood  style="flood-color:white;flood-opacity:1" result="back"/>
					<feBlend  in="SourceGraphic" in2="back" mode="normal"/>
				</filter>
			</defs>
			<mask maskUnits="userSpaceOnUse" x="0.2" y="0" width="172" height="78.9" id="SVGID_1_">
				<g class="st1">
					
						<linearGradient id="SVGID_00000112606799334357342100000002075131082760832652_" gradientUnits="userSpaceOnUse" x1="-305.5704" y1="342.06" x2="-304.5704" y2="342.06" gradientTransform="matrix(0 -77.8513 -77.8513 0 26716.0625 -23710.3848)">
						<stop  offset="0" style="stop-color:#FFFFFF"/>
						<stop  offset="1" style="stop-color:#000000"/>
					</linearGradient>
					
						<rect x="-8.8" y="-7" style="fill:url(#SVGID_00000112606799334357342100000002075131082760832652_);" width="190" height="86.9"/>
				</g>
			</mask>
			<g class="st3">
				<g>
					<rect x="0.2" y="0" class="st4" width="172" height="78.9"/>
				</g>
			</g>
		</g>
	</g>
	<rect x="0.2" y="0.3" class="st5" width="172" height="78.5"/>
</g>
<g>
	<path class="st4" d="M12.9,33.8l1.1-1.2c0.1-0.1,0.3-0.2,0.5,0c0.5,0.4,1.1,0.8,2,0.8c0.9,0,1.6-0.6,1.6-1.5c0-0.9-0.8-1.5-2.2-1.5
		h-1c-0.2,0-0.3-0.2-0.3-0.3v-1.5c0-0.2,0.2-0.3,0.3-0.3h1c1.3,0,2-0.6,2-1.4c0-0.8-0.5-1.4-1.5-1.4c-0.8,0-1.3,0.4-1.6,0.7
		c-0.1,0.2-0.3,0.2-0.5,0L13.1,25c-0.1-0.1-0.1-0.4,0-0.5c0.6-0.7,1.8-1.6,3.5-1.6c2.2,0,4,1.3,4,3.4c0,1.4-1.1,2.5-1.9,2.8v0.1
		c1,0.3,2.2,1.3,2.2,3c0,2-1.8,3.7-4.3,3.7c-2.3,0-3.4-1.1-3.8-1.6C12.8,34.1,12.8,33.9,12.9,33.8z"/>
	<path class="st4" d="M22.7,33.7l1.1-1.2c0.1-0.1,0.4-0.1,0.5,0c0.7,0.6,1.3,0.9,2.2,0.9c1,0,1.8-0.7,1.8-1.8c0-1.1-0.7-1.8-1.9-1.8
		h-2.8c-0.4,0-0.6-0.4-0.6-0.7v-5.7c0-0.2,0.1-0.3,0.3-0.3h6c0.2,0,0.4,0.2,0.4,0.3v1.6c0,0.2-0.2,0.3-0.4,0.3h-3.8v2h1.3
		c2.6,0,4.2,1.6,4.2,4.1c0,2.4-2,4.4-4.6,4.4c-1.9,0-3.2-1-3.7-1.5C22.5,34,22.4,33.9,22.7,33.7z"/>
	<path class="st4" d="M33.9,32.5c1,0,1.9,0.7,1.9,2.3c0,1.5-0.8,2.7-1.5,3.7c-0.1,0.1-0.3,0.1-0.5,0L33.2,38
		c-0.1-0.1-0.1-0.3,0.1-0.5c0.5-0.6,0.9-1.3,0.9-1.9c0-0.1,0-0.1,0-0.2c-0.2,0.1-0.4,0.2-0.7,0.2c-0.9,0-1.4-0.7-1.4-1.6
		C32.2,33.2,32.9,32.5,33.9,32.5z"/>
	<path class="st4" d="M37.3,29.4c0-4.1,1.7-6.5,4.7-6.5s4.8,2.4,4.8,6.5c0,4.1-1.7,6.5-4.8,6.5S37.3,33.4,37.3,29.4z M44,29.4
		c0-2.4-0.8-3.9-1.9-3.9c-1.1,0-1.9,1.4-1.9,3.9c0,2.4,0.8,3.9,1.9,3.9C43.2,33.2,44,31.8,44,29.4z"/>
	<path class="st4" d="M48.5,33.7l1.1-1.2c0.1-0.1,0.4-0.1,0.5,0c0.7,0.6,1.3,0.9,2.2,0.9c1,0,1.8-0.7,1.8-1.8c0-1.1-0.7-1.8-1.9-1.8
		h-2.8c-0.4,0-0.6-0.4-0.6-0.7v-5.7c0-0.2,0.1-0.3,0.3-0.3h6c0.2,0,0.4,0.2,0.4,0.3v1.6c0,0.2-0.2,0.3-0.4,0.3h-3.8v2h1.3
		c2.6,0,4.2,1.6,4.2,4.1c0,2.4-2,4.4-4.6,4.4c-1.9,0-3.2-1-3.7-1.5C48.3,34,48.3,33.9,48.5,33.7z"/>
	<path class="st4" d="M57.9,27c-0.2,0-0.3-0.2-0.3-0.4v-1.2c0-0.1,0.1-0.2,0.1-0.3l2.4-1.9c0.2-0.1,0.4-0.2,0.6-0.2h1.4
		c0.2,0,0.3,0.2,0.3,0.3v11.9c0,0.2-0.2,0.4-0.3,0.4h-2.1c-0.2,0-0.4-0.2-0.4-0.4V27H57.9z"/>
</g>
<g>
	<path class="st4" d="M16.2,51.3c1.7,0,3.1,1.5,3.1,3.2c0,1.8-1.4,3.3-3.1,3.3c-1.8,0-3.1-1.5-3.1-3.3C13,52.8,14.4,51.3,16.2,51.3z
		 M16.2,57.2c1.4,0,2.5-1.2,2.5-2.7c0-1.5-1.1-2.7-2.5-2.7c-1.4,0-2.5,1.2-2.5,2.7C13.6,56,14.7,57.2,16.2,57.2z"/>
	<path class="st4" d="M21.7,60.7c0,0.1-0.1,0.2-0.2,0.2h-0.2c-0.1,0-0.2-0.1-0.2-0.2v-9.1c0-0.1,0.1-0.2,0.2-0.2
		c0.2,0,0.4,0.2,0.4,0.6c0.2-0.2,1-0.7,2.1-0.7c1.7,0,3,1.4,3,3.2c0,1.8-1.3,3.3-3.1,3.3c-1,0-1.7-0.5-1.9-0.6V60.7z M21.7,56.5
		c0.1,0.1,0.8,0.8,1.9,0.8c1.5,0,2.5-1.2,2.5-2.7c0-1.4-1-2.6-2.4-2.6c-1.2,0-1.9,0.7-2,0.8V56.5z"/>
	<path class="st4" d="M31.1,51.3c1.6,0,2.8,1.2,2.8,2.8c0,0.2,0,0.6-0.2,0.6h-5c0,1.4,1.1,2.5,2.4,2.5c0.9,0,1.5-0.4,1.9-0.6
		c0.1-0.1,0.2-0.1,0.3,0l0.1,0.2c0.1,0.1,0,0.2-0.1,0.2c-0.4,0.3-1.3,0.7-2.3,0.7c-1.8,0-3-1.5-3-3.3C28.1,52.8,29.3,51.3,31.1,51.3
		z M33.3,54.2c0-1.2-0.8-2.3-2.2-2.3c-1.4,0-2.3,1-2.4,2.3H33.3z"/>
	<path class="st4" d="M35.7,51.6c0-0.1,0.1-0.2,0.2-0.2c0.2,0,0.4,0.3,0.4,0.7v0.1c0.2-0.2,0.9-0.9,2-0.9c0.5,0,0.9,0.1,1,0.2
		c0.1,0,0.2,0.2,0.2,0.3L39.2,52c0,0.1-0.1,0.1-0.3,0.1c-0.1,0-0.4-0.2-0.8-0.2c-1.2,0-1.9,1-1.9,1.1v4.5c0,0.1-0.1,0.2-0.2,0.2
		h-0.2c-0.1,0-0.2-0.1-0.2-0.2V51.6z"/>
	<path class="st4" d="M42.7,53.7c0.7,0,1.4,0.2,1.6,0.3c0-1.3-0.3-2.1-1.7-2.1c-0.8,0-1.5,0.4-1.6,0.4c-0.1,0.1-0.2,0-0.2-0.1
		L40.8,52c-0.1-0.1,0-0.2,0.1-0.2c0,0,0.8-0.5,1.9-0.5c1.9,0,2.2,1.2,2.2,2.7v3.5c0,0.1-0.1,0.2-0.2,0.2c-0.2,0-0.4-0.3-0.4-0.7
		v-0.1l0,0c-0.4,0.4-1.2,0.9-2.2,0.9c-1.2,0-2-0.8-2-2.1C40.2,54.6,41.1,53.7,42.7,53.7z M42.2,57.2c0.9,0,1.8-0.6,2.1-0.9v-1.8
		c-0.2-0.1-0.9-0.3-1.6-0.3c-1.2,0-2,0.6-2,1.6C40.7,56.6,41.4,57.2,42.2,57.2z"/>
	<path class="st4" d="M46.5,52c-0.2,0-0.2-0.1-0.2-0.2v-0.2c0-0.1,0.1-0.2,0.2-0.2h0.8v-1.7c0-0.1,0.1-0.2,0.2-0.2l0.2,0
		c0.1,0,0.2,0.1,0.2,0.2v1.7H50c0.1,0,0.2,0.1,0.2,0.2v0.2c0,0.1-0.1,0.2-0.2,0.2h-2.2v4c0,0.8,0.3,1.3,1.1,1.3c0.5,0,1-0.3,1.2-0.4
		c0.1-0.1,0.2,0,0.2,0.1l0.1,0.2c0.1,0.1,0,0.2-0.1,0.2c-0.2,0.2-0.9,0.5-1.5,0.5c-1.3,0-1.6-0.8-1.6-1.8v-4H46.5z"/>
	<path class="st4" d="M51.6,49.2c0-0.3,0.2-0.5,0.5-0.5c0.3,0,0.5,0.2,0.5,0.5c0,0.3-0.2,0.5-0.5,0.5C51.8,49.7,51.6,49.5,51.6,49.2
		z M51.8,51.6c0-0.1,0.1-0.2,0.2-0.2h0.2c0.1,0,0.2,0.1,0.2,0.2v5.8c0,0.1-0.1,0.2-0.2,0.2H52c-0.1,0-0.2-0.1-0.2-0.2V51.6z"/>
	<path class="st4" d="M57.3,51.3c1.7,0,3.1,1.5,3.1,3.2c0,1.8-1.4,3.3-3.1,3.3c-1.8,0-3.1-1.5-3.1-3.3
		C54.2,52.8,55.5,51.3,57.3,51.3z M57.3,57.2c1.4,0,2.5-1.2,2.5-2.7c0-1.5-1.1-2.7-2.5-2.7c-1.4,0-2.5,1.2-2.5,2.7
		C54.8,56,55.9,57.2,57.3,57.2z"/>
	<path class="st4" d="M62.3,51.6c0-0.1,0.1-0.2,0.2-0.2c0.2,0,0.4,0.3,0.4,0.7v0.2c0.2-0.3,1-0.9,2.2-0.9c1.8,0,2.4,1.1,2.4,2.7v3.4
		c0,0.1-0.1,0.2-0.2,0.2H67c-0.1,0-0.2-0.1-0.2-0.2v-3.4c0-1.4-0.6-2.2-1.8-2.2c-1.3,0-2.1,1-2.1,1.1v4.5c0,0.1-0.1,0.2-0.2,0.2
		h-0.2c-0.1,0-0.2-0.1-0.2-0.2V51.6z"/>
	<path class="st4" d="M69,56.9l0.1-0.2c0.1-0.1,0.2-0.1,0.3,0c0.2,0.1,0.8,0.6,1.7,0.6c0.9,0,1.6-0.5,1.6-1.1c0-0.7-0.8-1.1-1.8-1.4
		c-1.1-0.4-1.9-0.8-1.9-1.8c0-0.7,0.6-1.6,2-1.6c0.8,0,1.4,0.3,1.8,0.5c0.1,0.1,0.1,0.2,0.1,0.3l-0.1,0.1c-0.1,0.1-0.2,0.1-0.3,0.1
		c-0.1-0.1-0.8-0.4-1.5-0.4c-1,0-1.4,0.6-1.4,1c0,0.6,0.6,1,1.5,1.3c1.2,0.4,2.1,0.8,2.1,2c0,0.9-0.9,1.7-2.1,1.7
		c-1.1,0-1.7-0.4-2-0.7C69,57.1,68.9,57,69,56.9z"/>
	<path class="st4" d="M80.3,53.7c0.7,0,1.4,0.2,1.6,0.3c0-1.3-0.3-2.1-1.7-2.1c-0.8,0-1.5,0.4-1.6,0.4c-0.1,0.1-0.2,0-0.2-0.1
		L78.3,52c-0.1-0.1,0-0.2,0.1-0.2c0,0,0.8-0.5,1.9-0.5c1.9,0,2.2,1.2,2.2,2.7v3.5c0,0.1-0.1,0.2-0.2,0.2c-0.2,0-0.4-0.3-0.4-0.7
		v-0.1l0,0c-0.4,0.4-1.2,0.9-2.2,0.9c-1.2,0-2-0.8-2-2.1C77.7,54.6,78.6,53.7,80.3,53.7z M79.8,57.2c0.9,0,1.8-0.6,2.1-0.9v-1.8
		c-0.2-0.1-0.9-0.3-1.6-0.3c-1.2,0-2,0.6-2,1.6C78.3,56.6,78.9,57.2,79.8,57.2z"/>
	<path class="st4" d="M84.2,56.9l0.1-0.2c0.1-0.1,0.2-0.1,0.3,0c0.2,0.1,0.8,0.6,1.7,0.6c0.9,0,1.6-0.5,1.6-1.1
		c0-0.7-0.8-1.1-1.8-1.4c-1.1-0.4-1.9-0.8-1.9-1.8c0-0.7,0.6-1.6,2-1.6c0.8,0,1.4,0.3,1.8,0.5C88,51.8,88,52,88,52.1l-0.1,0.1
		c-0.1,0.1-0.2,0.1-0.3,0.1c-0.1-0.1-0.8-0.4-1.5-0.4c-1,0-1.4,0.6-1.4,1c0,0.6,0.6,1,1.5,1.3c1.2,0.4,2.1,0.8,2.1,2
		c0,0.9-0.9,1.7-2.1,1.7c-1.1,0-1.7-0.4-2-0.7C84.2,57.1,84.1,57,84.2,56.9z"/>
	<path class="st4" d="M89.7,56.9l0.1-0.2c0.1-0.1,0.2-0.1,0.3,0c0.2,0.1,0.8,0.6,1.7,0.6c0.9,0,1.6-0.5,1.6-1.1
		c0-0.7-0.8-1.1-1.8-1.4c-1.1-0.4-1.9-0.8-1.9-1.8c0-0.7,0.6-1.6,2-1.6c0.8,0,1.4,0.3,1.8,0.5c0.1,0.1,0.1,0.2,0.1,0.3l-0.1,0.1
		c-0.1,0.1-0.2,0.1-0.3,0.1c-0.1-0.1-0.8-0.4-1.5-0.4c-1,0-1.4,0.6-1.4,1c0,0.6,0.6,1,1.5,1.3c1.2,0.4,2.1,0.8,2.1,2
		c0,0.9-0.9,1.7-2.1,1.7c-1.1,0-1.7-0.4-2-0.7C89.7,57.1,89.7,57,89.7,56.9z"/>
	<path class="st4" d="M98.4,51.3c1.7,0,3.1,1.5,3.1,3.2c0,1.8-1.4,3.3-3.1,3.3c-1.8,0-3.1-1.5-3.1-3.3
		C95.3,52.8,96.6,51.3,98.4,51.3z M98.4,57.2c1.4,0,2.5-1.2,2.5-2.7c0-1.5-1.1-2.7-2.5-2.7c-1.4,0-2.5,1.2-2.5,2.7
		C95.9,56,97,57.2,98.4,57.2z"/>
	<path class="st4" d="M106.2,51.3c1.2,0,2,0.6,2.3,1c0.1,0.1,0.1,0.2,0,0.3l-0.1,0.1c-0.1,0.1-0.2,0.1-0.3,0
		c-0.1-0.2-0.9-0.7-1.8-0.7c-1.4,0-2.6,1.2-2.6,2.7c0,1.5,1.2,2.7,2.6,2.7c1.1,0,1.8-0.8,2-1c0.1-0.1,0.2-0.1,0.3,0l0.1,0.1
		c0.1,0.1,0.1,0.2,0,0.2c-0.3,0.4-1.1,1.2-2.4,1.2c-1.8,0-3.2-1.4-3.2-3.3C102.9,52.7,104.4,51.3,106.2,51.3z"/>
	<path class="st4" d="M109.9,49.2c0-0.3,0.2-0.5,0.5-0.5s0.5,0.2,0.5,0.5c0,0.3-0.2,0.5-0.5,0.5S109.9,49.5,109.9,49.2z M110.2,51.6
		c0-0.1,0.1-0.2,0.2-0.2h0.2c0.1,0,0.2,0.1,0.2,0.2v5.8c0,0.1-0.1,0.2-0.2,0.2h-0.2c-0.1,0-0.2-0.1-0.2-0.2V51.6z"/>
	<path class="st4" d="M115,53.7c0.7,0,1.4,0.2,1.6,0.3c0-1.3-0.3-2.1-1.7-2.1c-0.8,0-1.5,0.4-1.6,0.4c-0.1,0.1-0.2,0-0.2-0.1L113,52
		c-0.1-0.1,0-0.2,0.1-0.2c0,0,0.8-0.5,1.9-0.5c1.9,0,2.2,1.2,2.2,2.7v3.5c0,0.1-0.1,0.2-0.2,0.2c-0.2,0-0.4-0.3-0.4-0.7v-0.1l0,0
		c-0.4,0.4-1.2,0.9-2.2,0.9c-1.2,0-2-0.8-2-2.1C112.4,54.6,113.4,53.7,115,53.7z M114.5,57.2c0.9,0,1.8-0.6,2.1-0.9v-1.8
		c-0.2-0.1-0.9-0.3-1.6-0.3c-1.2,0-2,0.6-2,1.6C113,56.6,113.6,57.2,114.5,57.2z"/>
	<path class="st4" d="M118.7,52c-0.2,0-0.2-0.1-0.2-0.2v-0.2c0-0.1,0.1-0.2,0.2-0.2h0.8v-1.7c0-0.1,0.1-0.2,0.2-0.2l0.2,0
		c0.1,0,0.2,0.1,0.2,0.2v1.7h2.2c0.1,0,0.2,0.1,0.2,0.2v0.2c0,0.1-0.1,0.2-0.2,0.2h-2.2v4c0,0.8,0.3,1.3,1.1,1.3
		c0.5,0,1-0.3,1.2-0.4c0.1-0.1,0.2,0,0.2,0.1l0.1,0.2c0.1,0.1,0,0.2-0.1,0.2c-0.2,0.2-0.9,0.5-1.5,0.5c-1.3,0-1.6-0.8-1.6-1.8v-4
		H118.7z"/>
	<path class="st4" d="M126.5,51.3c1.6,0,2.8,1.2,2.8,2.8c0,0.2,0,0.6-0.2,0.6h-5c0,1.4,1.1,2.5,2.4,2.5c0.9,0,1.5-0.4,1.9-0.6
		c0.1-0.1,0.2-0.1,0.3,0l0.1,0.2c0.1,0.1,0,0.2-0.1,0.2c-0.4,0.3-1.3,0.7-2.3,0.7c-1.8,0-3-1.5-3-3.3
		C123.5,52.8,124.7,51.3,126.5,51.3z M128.7,54.2c0-1.2-0.8-2.3-2.2-2.3c-1.4,0-2.3,1-2.4,2.3H128.7z"/>
	<path class="st4" d="M130.7,56.9l0.1-0.2c0.1-0.1,0.2-0.1,0.3,0c0.2,0.1,0.8,0.6,1.7,0.6c0.9,0,1.6-0.5,1.6-1.1
		c0-0.7-0.8-1.1-1.8-1.4c-1.1-0.4-1.9-0.8-1.9-1.8c0-0.7,0.6-1.6,2-1.6c0.8,0,1.4,0.3,1.8,0.5c0.1,0.1,0.1,0.2,0.1,0.3l-0.1,0.1
		c-0.1,0.1-0.2,0.1-0.3,0.1c-0.1-0.1-0.8-0.4-1.5-0.4c-1,0-1.4,0.6-1.4,1c0,0.6,0.6,1,1.5,1.3c1.2,0.4,2.1,0.8,2.1,2
		c0,0.9-0.9,1.7-2.1,1.7c-1.1,0-1.7-0.4-2-0.7C130.7,57.1,130.6,57,130.7,56.9z"/>
</g>
</svg>
