<svg id="Capa_1" data-name="Capa 1" xmlns="http://www.w3.org/2000/svg" viewBox="0 0 24.95 27.65"><defs><style>.cls-1{fill:#fdb71a;}</style></defs><path class="cls-1" d="M4,21.14a2.06,2.06,0,0,1-2.81-.77h0a2.06,2.06,0,0,1,.8-2.8H2a2,2,0,0,1,1-.28,2.1,2.1,0,0,1,1.79,1A2.14,2.14,0,0,1,4,21.14M3,6.31a2,2,0,0,1,1,.28A2.06,2.06,0,0,1,4.81,9.4h0a2.15,2.15,0,0,1-1.25,1A2.07,2.07,0,0,1,2,10.2,2,2,0,0,1,1,8.92a2,2,0,0,1,.2-1.56,2,2,0,0,1,1.26-1A2,2,0,0,1,3,6.31m18,.28h0a2,2,0,0,1,1-.28,2,2,0,0,1,2.08,1.91A2.06,2.06,0,0,1,20.28,9.4a2.12,2.12,0,0,1,.77-2.81M14.58,24.84a2.07,2.07,0,0,1-3.49,1.41,1.91,1.91,0,0,1-.6-1.38,2,2,0,0,1,2-2h0a2,2,0,0,1,2,2M11,4.31a2,2,0,0,1-.6-1.42A1.9,1.9,0,0,1,11,1.48,2,2,0,0,1,12.48.91a2,2,0,0,1,2,1.95v.05a1.82,1.82,0,0,1-.6,1.38,2.12,2.12,0,0,1-2.89,0m2.8,14.49A5.09,5.09,0,0,1,11.2,9a5.18,5.18,0,0,1,1.3-.14h0a5.08,5.08,0,0,1,4.42,7.58v0a5.17,5.17,0,0,1-3.07,2.37m8.2-1.5a2,2,0,0,1,1,.28,2,2,0,0,1,1,1.24,2.23,2.23,0,0,1-.23,1.54,2,2,0,1,1-2.29-3,2.24,2.24,0,0,1,.52-.06m2.83,1.27a2.91,2.91,0,0,0-1.38-1.8,2.94,2.94,0,0,0-3.78.73l-1.8-1a5.87,5.87,0,0,0,.37-4.16,5.76,5.76,0,0,0-.39-1l1.77-1.05A2.92,2.92,0,0,0,24.49,7,3,3,0,0,0,19,7.68a3,3,0,0,0,.1,1.84l-1.77,1a6,6,0,0,0-1.92-1.84,6,6,0,0,0-2.55-.77v-2A2.65,2.65,0,0,0,14.53,5a2.93,2.93,0,0,0,.87-2A2.81,2.81,0,0,0,14.58.87a2.94,2.94,0,0,0-4.11,4.21A3,3,0,0,0,12,5.87v2a8.51,8.51,0,0,0-1.11.17,5.93,5.93,0,0,0-3.39,2.41l-1.81-1a3,3,0,0,0,.11-1.81A2.93,2.93,0,0,0,4.44,5.84a3.09,3.09,0,0,0-2.25-.29A2.91,2.91,0,0,0,.39,6.93,3,3,0,0,0,.1,9.18,2.87,2.87,0,0,0,1.48,11a3,3,0,0,0,2.25.29,3,3,0,0,0,1.53-1l1.8,1a6,6,0,0,0,0,5.19l-1.77,1a3,3,0,0,0-3.78-.7,2.94,2.94,0,0,0-1.07,4v0a3,3,0,0,0,1.8,1.38A3,3,0,0,0,4.5,21.9a2.93,2.93,0,0,0,1.27-3.63l1.78-1.05a6.11,6.11,0,0,0,2,1.82,6,6,0,0,0,2.55.77v2.07a3,3,0,0,0-2.5,2.94,2.83,2.83,0,0,0,.87,2,2.95,2.95,0,1,0,2.54-5v-2a8.8,8.8,0,0,0,1-.14,6,6,0,0,0,3.39-2.41l1.81,1a3,3,0,0,0,5.33,2.53,3.17,3.17,0,0,0,.28-2.3" transform="translate(0 -0.03)"/><path class="cls-1" d="M11.41,16.1a.19.19,0,0,1-.17.21h0a.19.19,0,0,1-.21-.17v0a.19.19,0,0,1,.18-.2h0a.18.18,0,0,1,.2.16v0m-.2-.7a.71.71,0,1,0,.7.72v0a.7.7,0,0,0-.7-.7" transform="translate(0 -0.03)"/><path class="cls-1" d="M14.15,16.1a.19.19,0,0,1-.17.21h0a.19.19,0,0,1-.2-.18v0a.18.18,0,0,1,.16-.2h0a.19.19,0,0,1,.21.17v0m-.21-.7a.71.71,0,1,0,.17,0h-.17" transform="translate(0 -0.03)"/><path class="cls-1" d="M15,12.26l-.46,1.62h-3.7l-.27-1.62Zm0,1.93.6-2.13V12a.24.24,0,0,0-.23-.25H10.46a.87.87,0,0,0-.83-.61H9.54a.24.24,0,0,0-.25.23v0a.24.24,0,0,0,.23.25h.11A.37.37,0,0,1,10,12l.36,2.22.06.39a.88.88,0,0,0,.86.72H14.7a.24.24,0,0,0,.25-.23v0a.24.24,0,0,0-.23-.25H11.27a.37.37,0,0,1-.36-.31v-.1h3.8a.31.31,0,0,0,.25-.19" transform="translate(0 -0.03)"/></svg>