<svg id="Capa_1" data-name="Capa 1" xmlns="http://www.w3.org/2000/svg" viewBox="0 0 23.88 27.66"><defs><style>.cls-1{fill:#fff;}</style></defs><path class="cls-1" d="M21.71,7.27c-.16-.27-.44-.41-.63-.3L19.27,8.24a.37.37,0,0,0,0,.45.34.34,0,0,0,.39.21l2-.93c.19-.11.21-.42.05-.7" transform="translate(-1.51 -0.37)"/><path class="cls-1" d="M21.66,10.79l-2-.93a.34.34,0,0,0-.39.21.37.37,0,0,0,0,.45l1.81,1.27c.19.11.47,0,.63-.3a.52.52,0,0,0-.05-.7" transform="translate(-1.51 -0.37)"/><path class="cls-1" d="M18.06,5.17c-.32,0-.57.18-.57.39l.19,2.21c0,.13.19.23.38.23a.38.38,0,0,0,.39-.23l.19-2.21c0-.21-.25-.39-.58-.39" transform="translate(-1.51 -0.37)"/><path class="cls-1" d="M6,19.68a.51.51,0,0,1-.51-.51.51.51,0,1,1,1,0,.51.51,0,0,1-.51.51m7.46-1a.51.51,0,0,1,.51.51.52.52,0,0,1-1,0,.51.51,0,0,1,.52-.51m-1.07-.31a1.37,1.37,0,0,0-.28.82,1.35,1.35,0,1,0,1.76-1.28.41.41,0,0,0-.41-.38H5.61l.84-1h7.6a.41.41,0,0,0,.38-.25l2.49-5.91a.39.39,0,0,0,0-.39.41.41,0,0,0-.35-.19H6.28a.42.42,0,0,0,0,.84H15.9l-2.13,5.07H5.15V8.92a.42.42,0,0,0-.42-.42H1.93a.42.42,0,1,0,0,.84H4.31v6.73a.41.41,0,0,0,.42.41h.64l-1,1.18a.43.43,0,0,0-.05.45.41.41,0,0,0,.38.24H4.9a1.37,1.37,0,0,0-.28.82,1.35,1.35,0,0,0,2.7,0A1.32,1.32,0,0,0,7,18.35Z" transform="translate(-1.51 -0.37)"/><path class="cls-1" d="M13.63,25.39a.42.42,0,0,0,.42.42H20A.42.42,0,0,0,20,25h-5.9a.42.42,0,0,0-.42.42" transform="translate(-1.51 -0.37)"/><path class="cls-1" d="M18.09,2.28H15.6a.42.42,0,0,0,0,.84h2.49a.42.42,0,1,0,0-.84" transform="translate(-1.51 -0.37)"/><path class="cls-1" d="M20,2.28h-.62a.42.42,0,1,0,0,.84H20a.42.42,0,1,0,0-.84" transform="translate(-1.51 -0.37)"/><path class="cls-1" d="M22.44.37H11.25A3,3,0,0,0,8.3,3.32V6.87a.47.47,0,1,0,.93,0V3.32a2,2,0,0,1,2-2H22.44a2,2,0,0,1,2,2V25.08a2,2,0,0,1-2,2H11.25a2,2,0,0,1-2-2V20.37a.47.47,0,0,0-.93,0v4.71a3,3,0,0,0,2.95,3H22.44a3,3,0,0,0,2.95-3V3.32A3,3,0,0,0,22.44.37" transform="translate(-1.51 -0.37)"/></svg>