<svg id="Capa_1" data-name="Capa 1" xmlns="http://www.w3.org/2000/svg" xmlns:xlink="http://www.w3.org/1999/xlink" viewBox="0 0 88.5 38.49"><defs><style>.cls-1{fill:none;}.cls-2{clip-path:url(#clip-path);}.cls-3{fill:#fff;}.cls-4{opacity:0.4;}.cls-5{clip-path:url(#clip-path-2);}.cls-6{opacity:0.2;}.cls-7{clip-path:url(#clip-path-3);}</style><clipPath id="clip-path" transform="translate(0 0)"><rect class="cls-1" width="88.5" height="38.49"/></clipPath><clipPath id="clip-path-2" transform="translate(0 0)"><rect class="cls-1" x="18.18" y="-26.55" width="46.69" height="91.59"/></clipPath><clipPath id="clip-path-3" transform="translate(0 0)"><rect class="cls-1" x="-2.95" y="-26.17" width="38.99" height="90.81"/></clipPath></defs><rect class="cls-1" width="88.5" height="38.49"/><g class="cls-2"><path class="cls-3" d="M69.25,0A19.94,19.94,0,0,1,73.1.38a19.26,19.26,0,0,1,0,37.72,19.57,19.57,0,0,1-7.7,0A19.26,19.26,0,0,1,65.4.38,19.94,19.94,0,0,1,69.25,0" transform="translate(0 0)"/><g class="cls-4"><g class="cls-5"><path class="cls-3" d="M40.37,0a19.48,19.48,0,0,1,3.88.38V38.1a19.57,19.57,0,0,1-7.7,0,19.26,19.26,0,0,1,0-37.72A19.94,19.94,0,0,1,40.4,0" transform="translate(0 0)"/></g></g><g class="cls-6"><g class="cls-7"><path class="cls-3" d="M15.39.38V38.1a19.26,19.26,0,0,1,0-37.72" transform="translate(0 0)"/></g></g></g></svg>