<svg id="Capa_1" data-name="Capa 1" xmlns="http://www.w3.org/2000/svg" xmlns:xlink="http://www.w3.org/1999/xlink" viewBox="0 0 88.5 38.49"><defs><style>.cls-1{fill:none;}.cls-2{clip-path:url(#clip-path);}.cls-3{fill:#0078bf;}.cls-4{opacity:0.4;}.cls-5{clip-path:url(#clip-path-3);}.cls-6{opacity:0.2;}.cls-7{clip-path:url(#clip-path-4);}</style><clipPath id="clip-path" transform="translate(0)"><rect class="cls-1" width="88.5" height="38.49"/></clipPath><clipPath id="clip-path-3" transform="translate(0)"><rect class="cls-1" x="19.65" y="-13.28" width="34.89" height="65.04"/></clipPath><clipPath id="clip-path-4" transform="translate(0)"><rect class="cls-1" x="-1.48" y="-12.89" width="27.19" height="64.27"/></clipPath></defs><g class="cls-2"><g class="cls-2"><path class="cls-3" d="M69.26,0A18.66,18.66,0,0,1,73.1.39a19,19,0,0,1,7.7,3.49A19.26,19.26,0,0,1,73.1,38.1a19.15,19.15,0,0,1-7.69,0,19.22,19.22,0,0,1-7.7-34.22A19,19,0,0,1,65.41.39,18.76,18.76,0,0,1,69.26,0" transform="translate(0)"/><g class="cls-4"><g class="cls-5"><path class="cls-3" d="M40.37,0a18.76,18.76,0,0,1,3.85.39V38.1a19.2,19.2,0,0,1-7.7,0A19.22,19.22,0,0,1,28.83,3.88,19.06,19.06,0,0,1,40.37,0" transform="translate(0)"/></g></g><g class="cls-6"><g class="cls-7"><path class="cls-3" d="M15.39.39V38.1A19.22,19.22,0,0,1,7.7,3.88,18.93,18.93,0,0,1,15.39.39" transform="translate(0)"/></g></g></g></g></svg>