<svg id="Capa_1" data-name="Capa 1" xmlns="http://www.w3.org/2000/svg" viewBox="0 0 24.38 27.69"><defs><style>.cls-1{fill:#fdb71a;}</style></defs><path class="cls-1" d="M10.91,5.35a.41.41,0,0,0,.32-.23l1.21-2.44,1.2,2.44a.41.41,0,0,0,.32.23l2.7.39L14.74,7.62a.45.45,0,0,0-.13.38l.46,2.68L12.63,9.44a.32.32,0,0,0-.19,0,.35.35,0,0,0-.2,0L9.83,10.7,10.29,8a.44.44,0,0,0-.12-.4L8.22,5.74Zm-4,0A.41.41,0,0,0,7,5.78l2.4,2.35-.57,3.31a.45.45,0,0,0,.17.42.44.44,0,0,0,.25.08h.2l3-1.57,3,1.57a.43.43,0,0,0,.58-.19.46.46,0,0,0,0-.26l-.57-3.31,2.41-2.35A.42.42,0,0,0,18,5.4a.41.41,0,0,0-.34-.29l-3.32-.49-1.49-3a.43.43,0,0,0-.77,0l-1.48,3L7.24,5a.41.41,0,0,0-.34.29" transform="translate(0 0)"/><path class="cls-1" d="M8.63,3.42a.43.43,0,0,0,.6,0,.41.41,0,0,0,0-.59h0L6.68.26a.43.43,0,0,0-.6,0,.41.41,0,0,0,0,.59h0Z" transform="translate(0 0)"/><path class="cls-1" d="M15.17,3.26a.39.39,0,0,0,.3-.13L17.88.72a.43.43,0,0,0,0-.6.44.44,0,0,0-.6,0L14.87,2.53a.41.41,0,0,0,0,.59h0a.39.39,0,0,0,.3.13" transform="translate(0 0)"/><path class="cls-1" d="M17.42,8.77a.41.41,0,0,0,0,.59h0l2.13,2.13a.42.42,0,0,0,.3.12.47.47,0,0,0,.3-.12.43.43,0,0,0,0-.6L18,8.77a.41.41,0,0,0-.59,0h0" transform="translate(0 0)"/><path class="cls-1" d="M5.67,11.91a.43.43,0,0,0,.3-.13L8.1,9.62A.43.43,0,0,0,7.49,9h0L5.37,11.18a.41.41,0,0,0,0,.59h0a.43.43,0,0,0,.3.13" transform="translate(0 0)"/><path class="cls-1" d="M7.82,14.46h8.62V26.51H7.82ZM24,17.72H17.29V14.46H19a.44.44,0,0,0,.36-.49.42.42,0,0,0-.36-.36H5.39a.43.43,0,1,0-.13.85H7v3H.42a.42.42,0,0,0-.42.42H0v8.74a.42.42,0,0,0,.41.43H5.24a.43.43,0,1,0,.13-.85H.85V18.29H7v8.65a.42.42,0,0,0,.41.43h9.49a.42.42,0,0,0,.42-.42h0V18.62h6.24v8.22H19.42a.44.44,0,0,0-.36.49.42.42,0,0,0,.36.36H24a.42.42,0,0,0,.42-.42h0V18.14a.42.42,0,0,0-.42-.42h0" transform="translate(0 0)"/><path class="cls-1" d="M12.47,17.62H10.74a.44.44,0,0,0-.36.49.42.42,0,0,0,.36.36H12V24a.44.44,0,0,0,.49.36.42.42,0,0,0,.36-.36V18a.42.42,0,0,0-.42-.42h0" transform="translate(0 0)"/></svg>