<svg id="Capa_1" data-name="Capa 1" xmlns="http://www.w3.org/2000/svg" viewBox="0 0 71.43 79.38"><defs><style>.cls-1{fill:#fdb71a;}</style></defs><path class="cls-1" d="M53.46,43.72c3.15,3.5,3.58,8.29,3.6,10.59H33.5a1.5,1.5,0,0,0,0,3h25A1.5,1.5,0,0,0,60,56c0-.35.88-8.48-4.28-14.24-3.22-3.6-8-5.43-14.21-5.43C21.23,36.31,21,57.6,21,57.81a1.5,1.5,0,0,0,3,0,24.31,24.31,0,0,1,2.28-9.36c2.88-6.06,8-9.14,15.27-9.14C46.8,39.31,50.83,40.79,53.46,43.72Z" transform="translate(-5.29 -1.31)"/><path class="cls-1" d="M41,35.31a17,17,0,1,0-17-17h0A17,17,0,0,0,41,35.31Zm0-31a14,14,0,1,1-14,14,14,14,0,0,1,14-14Z" transform="translate(-5.29 -1.31)"/><path class="cls-1" d="M41.5,28.23a11.44,11.44,0,0,0,8.13-3.36,1.5,1.5,0,0,0-2.12-2.12,8.53,8.53,0,0,1-12,0,1.5,1.5,0,0,0-2.12,2.12A11.46,11.46,0,0,0,41.5,28.23Z" transform="translate(-5.29 -1.31)"/><path class="cls-1" d="M24.65,67.66l-5.55-.81-2.48-5a1.25,1.25,0,0,0-1.68-.56,1.22,1.22,0,0,0-.56.56l-2.48,5-5.55.81a1.25,1.25,0,0,0-.68,2.13l4,3.91-.95,5.53a1.25,1.25,0,0,0,1,1.44,1.24,1.24,0,0,0,.78-.12l5-2.61,5,2.61a1.3,1.3,0,0,0,.58.14,1.24,1.24,0,0,0,1.18-1.3s0-.11,0-.16l-.94-5.53,4-3.91a1.26,1.26,0,0,0,0-1.77A1.27,1.27,0,0,0,24.65,67.66Zm-5.54,4.71a1.24,1.24,0,0,0-.36,1.11l.63,3.68-3.3-1.74a1.25,1.25,0,0,0-1.16,0l-3.3,1.74.66-3.68a1.3,1.3,0,0,0-.36-1.11l-2.7-2.6,3.69-.54a1.27,1.27,0,0,0,.94-.68l1.65-3.34,1.65,3.34a1.23,1.23,0,0,0,.94.68l3.69.54Z" transform="translate(-5.29 -1.31)"/><path class="cls-1" d="M50.65,67.66l-5.55-.81-2.48-5a1.25,1.25,0,0,0-1.68-.56,1.22,1.22,0,0,0-.56.56l-2.48,5-5.55.81a1.25,1.25,0,0,0-.68,2.13l4,3.91-1,5.53a1.25,1.25,0,0,0,1,1.44,1.24,1.24,0,0,0,.78-.12l5-2.61,5,2.61a1.3,1.3,0,0,0,.58.14,1.24,1.24,0,0,0,1.18-1.3s0-.11,0-.16l-.94-5.53,4-3.91a1.26,1.26,0,0,0,0-1.77A1.27,1.27,0,0,0,50.65,67.66Zm-5.54,4.71a1.24,1.24,0,0,0-.36,1.11l.63,3.68-3.3-1.74a1.25,1.25,0,0,0-1.16,0l-3.3,1.74.66-3.68a1.3,1.3,0,0,0-.36-1.11l-2.67-2.6,3.69-.54a1.27,1.27,0,0,0,.94-.68l1.65-3.34,1.65,3.34a1.23,1.23,0,0,0,.94.68l3.69.54Z" transform="translate(-5.29 -1.31)"/><path class="cls-1" d="M76.66,68.51a1.26,1.26,0,0,0-1-.85l-5.55-.81-2.48-5A1.25,1.25,0,0,0,66,61.29a1.22,1.22,0,0,0-.56.56l-2.48,5-5.55.81a1.25,1.25,0,0,0-.68,2.13l4,3.91-1,5.53a1.25,1.25,0,0,0,1,1.44,1.24,1.24,0,0,0,.78-.12l5-2.61,5,2.61a1.3,1.3,0,0,0,.58.14,1.25,1.25,0,0,0,1.22-1.26,1.36,1.36,0,0,0,0-.2l-.94-5.53,4-3.91A1.29,1.29,0,0,0,76.66,68.51Zm-6.55,3.86a1.24,1.24,0,0,0-.36,1.11l.63,3.68-3.3-1.74a1.25,1.25,0,0,0-1.16,0l-3.3,1.74.66-3.68a1.3,1.3,0,0,0-.36-1.11l-2.67-2.6,3.69-.54a1.27,1.27,0,0,0,.94-.68l1.65-3.34,1.65,3.34a1.23,1.23,0,0,0,.94.68l3.69.54Z" transform="translate(-5.29 -1.31)"/></svg>