<svg xmlns="http://www.w3.org/2000/svg" viewBox="0 0 323.47 82.83"><defs><style>.cls-1{fill:#fdb71a;}</style></defs><g id="Layer_2" data-name="Layer 2"><g id="Layer_1-2" data-name="Layer 1"><path class="cls-1" d="M48.18,45.65c3.15,3.5,3.58,8.29,3.6,10.59H28.22a1.5,1.5,0,0,0,0,3h25a1.5,1.5,0,0,0,1.49-1.33c0-.35.88-8.48-4.28-14.24-3.22-3.6-8-5.43-14.21-5.43-20.27,0-20.5,21.29-20.5,21.5a1.5,1.5,0,0,0,3,0A24.45,24.45,0,0,1,21,50.38c2.88-6.06,8-9.14,15.27-9.14C41.52,41.24,45.55,42.72,48.18,45.65Z"/><path class="cls-1" d="M35.72,37.24a17,17,0,1,0-17-17A17,17,0,0,0,35.72,37.24Zm0-31a14,14,0,1,1-14,14A14,14,0,0,1,35.72,6.24Z"/><path class="cls-1" d="M36.22,30.16a11.47,11.47,0,0,0,8.13-3.36,1.5,1.5,0,0,0-2.12-2.12,8.52,8.52,0,0,1-12,0,1.5,1.5,0,0,0-2.12,2.12A11.45,11.45,0,0,0,36.22,30.16Z"/><path class="cls-1" d="M19.37,69.59l-5.55-.81-2.48-5a1.25,1.25,0,0,0-2.24,0l-2.48,5-5.55.81a1.26,1.26,0,0,0-1,.85,1.24,1.24,0,0,0,.32,1.28l4,3.91-.95,5.53a1.26,1.26,0,0,0,1.82,1.32l5-2.61,5,2.61a1.3,1.3,0,0,0,.58.14A1.24,1.24,0,0,0,17,81.16l-.94-5.53,4-3.91a1.25,1.25,0,0,0-.69-2.13ZM13.83,74.3a1.27,1.27,0,0,0-.36,1.11l.63,3.68-3.3-1.74a1.27,1.27,0,0,0-1.16,0l-3.3,1.74L7,75.41a1.27,1.27,0,0,0-.36-1.11L3.94,71.7l3.69-.54a1.25,1.25,0,0,0,.94-.68l1.65-3.34,1.65,3.34a1.23,1.23,0,0,0,.94.68l3.69.54Z"/><path class="cls-1" d="M45.37,69.59l-5.55-.81-2.48-5a1.25,1.25,0,0,0-2.24,0l-2.48,5-5.55.81a1.26,1.26,0,0,0-1,.85,1.24,1.24,0,0,0,.32,1.28l4,3.91-.95,5.53a1.26,1.26,0,0,0,1.82,1.32l5-2.61,5,2.61a1.3,1.3,0,0,0,.58.14A1.24,1.24,0,0,0,43,81.16l-.94-5.53,4-3.91a1.25,1.25,0,0,0-.69-2.13ZM39.83,74.3a1.27,1.27,0,0,0-.36,1.11l.63,3.68-3.3-1.74a1.27,1.27,0,0,0-1.16,0l-3.3,1.74L33,75.41a1.27,1.27,0,0,0-.36-1.11l-2.67-2.6,3.69-.54a1.25,1.25,0,0,0,.94-.68l1.65-3.34,1.65,3.34a1.23,1.23,0,0,0,.94.68l3.69.54Z"/><path class="cls-1" d="M71.38,70.44a1.26,1.26,0,0,0-1-.85l-5.55-.81-2.48-5a1.25,1.25,0,0,0-2.24,0l-2.48,5-5.55.81a1.26,1.26,0,0,0-1,.85,1.24,1.24,0,0,0,.32,1.28l4,3.91-1,5.53a1.26,1.26,0,0,0,1.82,1.32l5-2.61,5,2.61a1.3,1.3,0,0,0,.58.14A1.24,1.24,0,0,0,68,81.16l-.94-5.53,4-3.91A1.27,1.27,0,0,0,71.38,70.44ZM64.83,74.3a1.27,1.27,0,0,0-.36,1.11l.63,3.68-3.3-1.74a1.27,1.27,0,0,0-1.16,0l-3.3,1.74L58,75.41a1.27,1.27,0,0,0-.36-1.11l-2.67-2.6,3.69-.54a1.25,1.25,0,0,0,.94-.68l1.65-3.34,1.65,3.34a1.23,1.23,0,0,0,.94.68l3.69.54Z"/><path class="cls-1" d="M292.24,69.81c.31.53.86.79,1.22.58L297,67.93a.82.82,0,0,0-.74-1.28l-3.88,1.81C292,68.67,291.93,69.27,292.24,69.81Z"/><path class="cls-1" d="M302.38,64.8,306.27,63a1,1,0,0,0,.11-1.34c-.32-.54-.86-.8-1.23-.59l-3.51,2.47a.82.82,0,0,0,.74,1.27Z"/><path class="cls-1" d="M296.23,64.8a.7.7,0,0,0,.77-.41.69.69,0,0,0,0-.86l-3.51-2.47c-.36-.21-.91,0-1.22.59s-.26,1.13.11,1.34Z"/><path class="cls-1" d="M301.64,67.93l3.51,2.46c.37.21.91,0,1.23-.58s.25-1.14-.11-1.35l-3.89-1.81a.7.7,0,0,0-.76.41A.71.71,0,0,0,301.64,67.93Z"/><path class="cls-1" d="M299.31,68.39a.7.7,0,0,0-.74.46l-.38,4.27c0,.42.5.77,1.12.77s1.11-.35,1.11-.77l-.37-4.27A.71.71,0,0,0,299.31,68.39Z"/><path class="cls-1" d="M299.31,57.56c-.62,0-1.12.35-1.12.77l.38,4.27a.7.7,0,0,0,.74.46.71.71,0,0,0,.74-.46l.37-4.27C300.42,57.91,299.93,57.56,299.31,57.56Z"/><path class="cls-1" d="M315.12,5.18H283.49a8.35,8.35,0,0,0-8.34,8.35V72.39a8.35,8.35,0,0,0,8.34,8.35h31.63a8.35,8.35,0,0,0,8.35-8.35V13.53A8.35,8.35,0,0,0,315.12,5.18Zm5.71,67.21a5.72,5.72,0,0,1-5.71,5.72H283.49a5.72,5.72,0,0,1-5.71-5.72V13.53a5.71,5.71,0,0,1,5.71-5.71h31.63a5.71,5.71,0,0,1,5.71,5.71Z"/><path class="cls-1" d="M309.41,17.48H289.2a4,4,0,0,0-3.95,3.95V48.67a4,4,0,0,0,3.95,4h20.21a4,4,0,0,0,4-4V21.43A4,4,0,0,0,309.41,17.48Zm1.32,31.19A1.32,1.32,0,0,1,309.41,50H289.2a1.32,1.32,0,0,1-1.31-1.32V21.43a1.31,1.31,0,0,1,1.31-1.31h20.21a1.32,1.32,0,0,1,1.32,1.31Z"/><path class="cls-1" d="M297.11,14h4.39a1.32,1.32,0,0,0,0-2.64h-4.39a1.32,1.32,0,1,0,0,2.64Z"/><path class="cls-1" d="M299.59,39.45a8.05,8.05,0,0,0-6.17,2.31,8.5,8.5,0,0,0-2,5.82.88.88,0,0,0,.88.82h.05a.88.88,0,0,0,.83-.93A6.73,6.73,0,0,1,294.71,43a6.42,6.42,0,0,1,4.88-1.75A6.89,6.89,0,0,1,304.76,43a5.52,5.52,0,0,1,1.4,3.68.88.88,0,0,0,.83.93.89.89,0,0,0,.92-.83,7.2,7.2,0,0,0-1.86-5C304.59,40.23,302.41,39.45,299.59,39.45Z"/><path class="cls-1" d="M299.85,38.55a7.24,7.24,0,1,0-7.24-7.24A7.24,7.24,0,0,0,299.85,38.55Zm0-12.72a5.48,5.48,0,1,1-5.48,5.48A5.49,5.49,0,0,1,299.85,25.83Z"/><path class="cls-1" d="M300.06,35.65a5,5,0,0,0,3.52-1.46A.88.88,0,0,0,302.34,33a3.3,3.3,0,0,1-4.56,0,.88.88,0,1,0-1.24,1.24A5,5,0,0,0,300.06,35.65Z"/><path class="cls-1" d="M92,36.7h10.68a1.8,1.8,0,0,0,0-3.6H92a1.8,1.8,0,0,0,0,3.6Z"/><path class="cls-1" d="M98.4,43.38a1.81,1.81,0,0,0-1.8-1.8H88.67a1.8,1.8,0,0,0,0,3.6H96.6A1.8,1.8,0,0,0,98.4,43.38Z"/><path class="cls-1" d="M165.31,56.61l-6.7-6.36-6-15.26a5.67,5.67,0,0,0-5.31-3.61h-2.65V31a5.7,5.7,0,0,0-5.09-5.66L142,19.39a9.64,9.64,0,0,0-17.83-7.32l-3.34,8.13a11.84,11.84,0,0,0-10.48-6.34,12.81,12.81,0,0,0-1.65.12,3.24,3.24,0,0,0,.67-2.44l-.41-3-2.9,1.52a3.24,3.24,0,0,0-1.71,3.32l.19,1.35-1-.92a3.25,3.25,0,0,0-3.7-.49l-2.9,1.52,2.21,2a3.24,3.24,0,0,0,2.47.84,11.78,11.78,0,0,0-3.09,7.53H96.6a1.8,1.8,0,1,0,0,3.6H139a2.11,2.11,0,0,1,2.1,2.1V51.28a1.81,1.81,0,0,0,1.8,1.8h13.51l5.9,5.61V70h-5a9.88,9.88,0,0,0-19.15,1.16H121.75a9.88,9.88,0,0,0-19.44,0H93.84v-19a1.8,1.8,0,1,0-3.6,0V72.94a1.8,1.8,0,0,0,1.8,1.8h10.27a9.88,9.88,0,0,0,19.44,0h16.39a9.89,9.89,0,0,0,19.59-1.16h6.34a1.81,1.81,0,0,0,1.8-1.8V57.91A1.79,1.79,0,0,0,165.31,56.61ZM127.49,13.44a6.07,6.07,0,0,1,7.88-3.3A6.06,6.06,0,0,1,138.66,18l-3,7.24h-13Zm-17.15,4a8.25,8.25,0,0,1,8.22,7.8H102.11A8.25,8.25,0,0,1,110.34,17.46Zm34.32,32V35h2.65a2.09,2.09,0,0,1,2,1.33l5.17,13.17ZM112,79.23a6.29,6.29,0,1,1,6.29-6.29A6.29,6.29,0,0,1,112,79.23Zm35.83,0A6.29,6.29,0,1,1,154,71.77h0a2.25,2.25,0,0,0,.07.52,4.49,4.49,0,0,1,0,.64A6.29,6.29,0,0,1,147.86,79.23Z"/><path class="cls-1" d="M111.92,53.09c.47.83,1.32,1.22,1.88.89l5.39-3.78a1.06,1.06,0,0,0,0-1.33,1.07,1.07,0,0,0-1.17-.64l-6,2.78C111.52,51.34,111.44,52.26,111.92,53.09Z"/><path class="cls-1" d="M127.51,45.4l6-2.78c.56-.33.65-1.25.17-2.08s-1.32-1.22-1.88-.89l-5.4,3.78a1.27,1.27,0,0,0,1.14,2Z"/><path class="cls-1" d="M118.06,45.4a1.27,1.27,0,0,0,1.13-2l-5.39-3.78c-.56-.33-1.41.06-1.88.89s-.4,1.75.16,2.08Z"/><path class="cls-1" d="M126.37,50.2l5.4,3.78c.56.33,1.4-.06,1.88-.89s.39-1.75-.17-2.08l-6-2.78a1.09,1.09,0,0,0-1.18.64A1.07,1.07,0,0,0,126.37,50.2Z"/><path class="cls-1" d="M122.78,50.92c-.59,0-1.07.3-1.13.7l-.58,6.56c0,.65.76,1.18,1.71,1.18s1.72-.53,1.72-1.18l-.58-6.56A1.07,1.07,0,0,0,122.78,50.92Z"/><path class="cls-1" d="M122.78,34.27c-1,0-1.71.53-1.71,1.18l.58,6.57a1.07,1.07,0,0,0,1.13.7,1.09,1.09,0,0,0,1.14-.7l.58-6.57C124.5,34.8,123.74,34.27,122.78,34.27Z"/><path class="cls-1" d="M219.86,8.27l3.88-6c.33-.62-.13-1.51-1-2s-1.91-.36-2.23.26L217.7,7.12a1.14,1.14,0,0,0,.73,1.24A1.15,1.15,0,0,0,219.86,8.27Z"/><path class="cls-1" d="M221.58,13.31l7.11.37c.7,0,1.24-.87,1.21-1.9s-.64-1.83-1.35-1.8l-7.06.88a1.16,1.16,0,0,0-.71,1.25A1.15,1.15,0,0,0,221.58,13.31Z"/><path class="cls-1" d="M209.15.78c-.87.55-1.26,1.48-.89,2.07l4.3,5.68a1.16,1.16,0,0,0,1.44,0,1.16,1.16,0,0,0,.64-1.29L211.4.88C211,.29,210,.24,209.15.78Z"/><path class="cls-1" d="M211.12,51.24a1.34,1.34,0,0,0,1.35,1.35h11a1.34,1.34,0,0,0,1.35-1.35v-11a1.35,1.35,0,0,0-1.35-1.35h-11a1.35,1.35,0,0,0-1.35,1.35Zm2.7-9.65h8.3v8.3h-8.3Z"/><path class="cls-1" d="M245,34.89a5.87,5.87,0,0,0-5.69,4.5h-7.46V32.24a1.35,1.35,0,0,0-1.35-1.35h-5v-7.3h14.43a5.84,5.84,0,1,0-.75-2.85c0,.05,0,.1,0,.15h-15a1.36,1.36,0,0,0-1.35,1.35v8.65h-9.92V22.52a5.83,5.83,0,1,0-2.7-.23v8.6h-4.65a1.35,1.35,0,0,0-1.35,1.35v2.65h-11.8V22.43a5.85,5.85,0,1,0-2.7,0V36.24A1.34,1.34,0,0,0,191,37.59h13.15v8.49a1.33,1.33,0,0,0-.65-.19h-8.72a5.83,5.83,0,1,0-.23,2.7h8.95a1.33,1.33,0,0,0,.65-.19V59.24a1.34,1.34,0,0,0,1.35,1.35h5.23v7.3H194.75a5.83,5.83,0,1,0-.23,2.7h17.53a1.34,1.34,0,0,0,1.35-1.35V60.59h9.34V67.9a5.87,5.87,0,1,0,2.7.55V60.59h5a1.34,1.34,0,0,0,1.35-1.35V56.59h6.3v9a5.84,5.84,0,1,0,2.85-.75h-.15V55.24a1.35,1.35,0,0,0-1.35-1.35h-7.65V42.09h7.46a5.85,5.85,0,1,0,5.69-7.2Zm0-17.3a3.15,3.15,0,1,1-3.15,3.15A3.15,3.15,0,0,1,245,17.59Zm-36.15-.85A3.15,3.15,0,1,1,212,19.89,3.15,3.15,0,0,1,208.82,16.74Zm-21,0A3.15,3.15,0,1,1,191,19.89,3.15,3.15,0,0,1,187.82,16.74ZM189,49.89a3.15,3.15,0,1,1,3.15-3.15A3.15,3.15,0,0,1,189,49.89Zm0,22a3.15,3.15,0,1,1,3.15-3.15A3.15,3.15,0,0,1,189,71.89Zm34,5a3.15,3.15,0,1,1,3.15-3.15A3.15,3.15,0,0,1,223,76.89Zm21.15-6.15A3.15,3.15,0,1,1,241,67.59,3.15,3.15,0,0,1,244.12,70.74Zm-15-12.85h-22.3V33.59h22.3Zm15.85-14a3.15,3.15,0,1,1,3.15-3.15A3.15,3.15,0,0,1,245,43.89Z"/></g></g></svg>