<svg id="Capa_1" data-name="Capa 1" xmlns="http://www.w3.org/2000/svg" viewBox="0 0 77.26 74.86"><defs><style>.cls-1{fill:#fdb71a;}</style></defs><path class="cls-1" d="M7.38,33.29H17.83a1.76,1.76,0,1,0,0-3.52H7.38a1.76,1.76,0,1,0,0,3.52Z" transform="translate(-2.37 -3.57)"/><path class="cls-1" d="M13.64,39.83a1.76,1.76,0,0,0-1.76-1.76H4.13a1.76,1.76,0,1,0,0,3.52h7.75a1.76,1.76,0,0,0,1.76-1.76Z" transform="translate(-2.37 -3.57)"/><path class="cls-1" d="M79.08,52.77l-6.55-6.22L66.66,31.62a5.54,5.54,0,0,0-5.19-3.53H58.88v-.37a5.59,5.59,0,0,0-5-5.54l2.39-5.82A9.43,9.43,0,0,0,38.85,9.2l-3.27,8A11.59,11.59,0,0,0,25.33,11a14.35,14.35,0,0,0-1.61.12,3.13,3.13,0,0,0,.65-2.38L24,5.75,21.14,7.24a3.18,3.18,0,0,0-1.68,3.25l.19,1.32-1-.9a3.17,3.17,0,0,0-3.62-.48l-2.83,1.48,2.16,2a3.14,3.14,0,0,0,2.41.82,11.53,11.53,0,0,0-3,7.37H11.88a1.76,1.76,0,0,0,0,3.52H53.35a2.07,2.07,0,0,1,2.06,2.05V47.55a1.76,1.76,0,0,0,1.76,1.76H70.38l5.77,5.49V65.86H71.26A9.66,9.66,0,0,0,52.53,67H36.48a9.66,9.66,0,0,0-19,0H9.18V48.41a1.76,1.76,0,0,0-3.52,0h0V68.74A1.76,1.76,0,0,0,7.42,70.5h10a9.66,9.66,0,0,0,19,0h16a9.67,9.67,0,0,0,19.16-1.14h6.2a1.76,1.76,0,0,0,1.76-1.76V54A1.75,1.75,0,0,0,79.08,52.77Zm-37-42.23A5.9,5.9,0,0,1,53,15l-2.93,7.08H37.37ZM25.32,14.46a8.06,8.06,0,0,1,8,7.62H17.27a8.07,8.07,0,0,1,8.05-7.6ZM58.89,45.75V31.63h2.59a2.06,2.06,0,0,1,2,1.3l5,12.88ZM26.94,74.89a6.15,6.15,0,1,1,6.16-6.15,6.15,6.15,0,0,1-6.16,6.15Zm35.05,0a6.15,6.15,0,1,1,6-7.3h0a2.73,2.73,0,0,0,.07.51,3.32,3.32,0,0,1,0,.63A6.14,6.14,0,0,1,62,74.89Z" transform="translate(-2.37 -3.57)"/><path class="cls-1" d="M26.87,49.32c.46.82,1.29,1.2,1.84.87L34,46.5a1.28,1.28,0,0,0-1.15-1.93L27,47.29A1.57,1.57,0,0,0,26.87,49.32Z" transform="translate(-2.37 -3.57)"/><path class="cls-1" d="M42.11,41.8,48,39.08c.55-.32.64-1.22.17-2s-1.29-1.19-1.84-.87L41,39.88a1.24,1.24,0,0,0,.29,1.73,1.2,1.2,0,0,0,.82.22Z" transform="translate(-2.37 -3.57)"/><path class="cls-1" d="M32.87,41.8a1.24,1.24,0,0,0,1.33-1.15,1.26,1.26,0,0,0-.22-.8l-5.27-3.7c-.55-.32-1.38.06-1.84.87s-.39,1.71.15,2Z" transform="translate(-2.37 -3.57)"/><path class="cls-1" d="M41,46.5l5.28,3.69c.55.33,1.37,0,1.84-.87s.38-1.71-.17-2l-5.87-2.72a1.07,1.07,0,0,0-1.15.63A1.05,1.05,0,0,0,41,46.5Z" transform="translate(-2.37 -3.57)"/><path class="cls-1" d="M37.49,47.2c-.58,0-1.05.29-1.11.69l-.56,6.41c0,.64.74,1.16,1.67,1.16s1.68-.52,1.68-1.16l-.57-6.41A1,1,0,0,0,37.49,47.2Z" transform="translate(-2.37 -3.57)"/><path class="cls-1" d="M37.49,30.92c-1,0-1.67.52-1.67,1.15l.56,6.43a1.06,1.06,0,0,0,1.11.68,1.07,1.07,0,0,0,1.11-.68l.57-6.43C39.17,31.44,38.43,30.92,37.49,30.92Z" transform="translate(-2.37 -3.57)"/></svg>