<?xml version="1.0" encoding="utf-8"?>
<!-- Generator: Adobe Illustrator 25.4.1, SVG Export Plug-In . SVG Version: 6.00 Build 0)  -->
<svg version="1.1" id="Layer_1" xmlns="http://www.w3.org/2000/svg" xmlns:xlink="http://www.w3.org/1999/xlink" x="0px" y="0px"
	 viewBox="0 0 796.9 373.4" style="enable-background:new 0 0 796.9 373.4;" xml:space="preserve">
<style type="text/css">
	.st0{fill:#FFFFFF;}
	.st1{opacity:0.3;}
	.st2{opacity:0.15;}
</style>
<g>
	<g>
		<path class="st0" d="M163.2,194.8H152c-1,0-1.7,0.8-1.7,1.7v10.5v13.2v13.2v1.3c0,6.7-4.8,10.4-11.4,10.4
			c-6.5,0-11.3-3.8-11.3-10.4v-1.3v-13.2v-13.2v-10.5c0-0.9-0.7-1.7-1.7-1.7h-11.3c-0.9,0-1.7,0.8-1.7,1.7v10.5v13.2v13.2v2
			c0,4.1,1,7.9,2.8,11.2c4.3,8,13,13.2,23.2,13.2c0,0,0,0,0,0c0,0,0,0,0,0c10.2,0,19-5.2,23.3-13.2c1.8-3.3,2.8-7.1,2.8-11.2v-2
			v-13.2v-13.2v-10.5C165,195.6,164.1,194.8,163.2,194.8"/>
		<path class="st0" d="M343.7,194.8h-11c-0.9,0-1.7,0.8-1.7,1.7v10.5v13.2v13.2v13.2v10.5c0,0.9,0.8,1.7,1.7,1.7h11
			c0.9,0,1.7-0.8,1.7-1.7v-10.5v-13.2v-13.2v-13.2v-10.5C345.4,195.6,344.6,194.8,343.7,194.8"/>
		<path class="st0" d="M412.4,194.8h-11c-1,0-1.7,0.8-1.7,1.7v10.5v13.2v8.8h-0.1l-9.1-8.8l-13.7-13.2l-12.3-11.8
			c-0.7-0.7-1.4-1.4-2.3-1.4h-1.4c-0.9,0-1.7,0.7-1.7,1.6l0,11.5l0,13.2l0,13.2l0,13.2l0,10.5c0,0.9,0.8,1.7,1.7,1.7h10.9
			c1,0,1.7-0.8,1.7-1.7v-10.5v-13.2V223h0.1l10.4,10.4l13.1,13.2l12.1,12.2c0.7,0.7,1.4,1,2.3,1c0,0,0,0,0,0h0.9c0,0,0,0,0,0
			c0.9,0,1.7-0.6,1.7-1.6v-11.5v-13.2v-13.2v-13.2v-10.5C414.1,195.6,413.3,194.8,412.4,194.8"/>
		<path class="st0" d="M556.5,194.8h-11c-0.9,0-1.7,0.8-1.7,1.7v10.5v13.2v13.2v13.2v10.5c0,0.9,0.8,1.7,1.7,1.7h11
			c0.9,0,1.7-0.8,1.7-1.7v-10.5v-13.2v-13.2v-13.2v-10.5C558.3,195.6,557.4,194.8,556.5,194.8"/>
		<path class="st0" d="M629.7,194.8h-11c-0.9,0-1.7,0.8-1.7,1.7v10.5v13.2v13.2v13.2v10.5c0,0.9,0.8,1.7,1.7,1.7h11
			c0.9,0,1.7-0.8,1.7-1.7v-10.5v-13.2v-13.2v-13.2v-10.5C631.4,195.6,630.6,194.8,629.7,194.8"/>
		<path class="st0" d="M681.2,194.8h-40.6c-1,0-1.7,0.8-1.7,1.7v10c0,0.2,0,0.4,0.1,0.5c0.2,0.7,0.8,1.2,1.6,1.2h13.1v12v13.2v13.2
			v10.5c0,0.9,0.8,1.7,1.7,1.7h11c0.9,0,1.7-0.8,1.7-1.7v-10.5v-13.2v-13.2v-12h13.1c0.8,0,1.4-0.5,1.6-1.2c0.1-0.2,0.1-0.4,0.1-0.5
			v-10C682.9,195.6,682.2,194.8,681.2,194.8"/>
		<path class="st0" d="M740.8,194.8h-11.9c-0.8,0-1.2,0.5-1.5,0.8l-7.8,11.4l-5,7.3l-5-7.3l-7.8-11.4c-0.3-0.4-0.7-0.8-1.5-0.8
			h-11.9c-1.5,0-2.2,1.5-1.5,2.7l6.4,9.6l8.7,13.2l5.1,7.8v5.4v13.2v10.5c0,0.9,0.7,1.7,1.7,1.7H720c0.9,0,1.7-0.8,1.7-1.7v-10.5
			v-13.2v-5.5l5.2-7.7l8.9-13.2l6.5-9.6C743,196.3,742.3,194.8,740.8,194.8"/>
		<path class="st0" d="M266.7,207.1c0.1-0.2,0.1-0.4,0.1-0.5v-10c0-0.9-0.7-1.7-1.7-1.7h-40.6c-1,0-1.7,0.8-1.7,1.7v10
			c0,0.2,0.1,0.4,0.1,0.5c0.2,0.7,0.8,1.2,1.6,1.2h13.1v12v13.2v13.2v10.5c0,0.9,0.8,1.7,1.7,1.7h11c0.9,0,1.7-0.8,1.7-1.7v-10.5
			v-13.2v-13.2v-12h13.1C265.9,208.3,266.5,207.7,266.7,207.1"/>
		<path class="st0" d="M85.7,220.3c-0.2-0.1-0.4-0.2-0.6-0.3c-6.4-3.1-10-5.5-10-8.5c0-1.8,0.9-3.5,2.6-4.4c0.8-0.4,1.8-0.6,2.9-0.6
			c1.3,0,2.6,0.3,3.9,0.6c3.6,1.1,6.9,3.2,8.5,4.3c1.8,1.1,3.4,0.4,4-0.6l2.4-3.7l2.2-3.4c0.4-0.6,0.5-2.3-0.5-2.9
			c-2.7-2-10.1-6.9-19.6-6.9c-11.5,0-18.3,6-20.4,13.2c-0.5,1.6-0.7,3.3-0.7,5c0,3.2,0.8,5.8,2,8.1c3.1,5.6,9.4,9,15.7,12.1
			c0.8,0.4,1.5,0.7,2.2,1.1c4.7,2.5,7.3,4.8,7.3,8.1c0,2.4-1.4,4.2-3.7,5c-0.8,0.3-1.7,0.5-2.6,0.5c-1.3,0-2.5-0.2-3.7-0.5
			c-4.1-1-7.3-3.2-9.3-4.6c-0.9-0.6-2.4-0.6-3.1,0.5l-2.3,4L61,250c-0.6,1.2-0.4,2,0.4,2.7c2.1,2.1,8.7,7,20.6,7c0,0,0,0,0,0
			c0,0,0,0,0,0c10.7,0,18-6,20.5-13.2c0.7-1.9,1-3.8,1-5.8c0-2.9-0.6-5.3-1.5-7.4C99,226.6,91.7,223.2,85.7,220.3"/>
		<path class="st0" d="M199.9,220.3c-0.2-0.1-0.4-0.2-0.6-0.3c-6.4-3.1-10-5.5-10-8.5c0-1.8,0.9-3.5,2.6-4.4
			c0.8-0.4,1.8-0.6,2.9-0.6c1.3,0,2.6,0.3,3.9,0.6c3.6,1.1,6.9,3.2,8.5,4.3c1.8,1.1,3.4,0.4,4-0.6l2.4-3.7l2.2-3.4
			c0.4-0.6,0.5-2.3-0.5-2.9c-2.7-2-10.1-6.9-19.6-6.9c-11.5,0-18.3,6-20.4,13.2c-0.5,1.6-0.7,3.3-0.7,5c0,3.2,0.8,5.8,2,8.1
			c3.1,5.6,9.4,9,15.7,12.1c0.8,0.4,1.5,0.7,2.2,1.1c4.7,2.5,7.3,4.8,7.3,8.1c0,2.4-1.4,4.2-3.7,5c-0.8,0.3-1.7,0.5-2.6,0.5
			c-1.3,0-2.5-0.2-3.7-0.5c-4.1-1-7.3-3.2-9.3-4.6c-0.9-0.6-2.4-0.6-3.1,0.5l-2.3,4l-1.9,3.4c-0.6,1.2-0.4,2,0.4,2.7
			c2.1,2.1,8.7,7,20.6,7c0,0,0,0,0,0c0,0,0,0,0,0c10.7,0,18-6,20.5-13.2c0.7-1.9,1-3.8,1-5.8c0-2.9-0.6-5.3-1.5-7.4
			C213.2,226.6,205.9,223.2,199.9,220.3"/>
		<path class="st0" d="M502.7,232.7h8c1.3,0,2.5,0.3,3.4,0.7c2.3,1.1,3.5,3.2,3.5,5.8c0,4.3-2.6,6.6-7.1,6.6h-7.8v-12.4V232.7z
			 M502.7,208h7.6c3.5,0,5.9,2.6,5.9,6.2c0,2.7-1.4,5-3.5,6c-0.7,0.4-1.6,0.5-2.5,0.5h-7.6v-0.5V208z M520.8,226.3L520.8,226.3
			c2.9-1.2,5.7-3.3,7.7-6c1.7-2.3,2.8-5.1,2.8-8.4c0-1.7-0.3-3.3-0.8-4.8c-2.4-7.2-10-12.3-18.9-12.3h-21.3c-1,0-1.7,0.8-1.7,1.7
			v10.5v13.2v13.2v13.2v10.5c0,0.9,0.7,1.7,1.7,1.7h22.7c8.9,0,16.6-4.6,19.1-12.3c0.5-1.7,0.8-3.5,0.8-5.4c0-3.1-0.8-5.7-2.1-7.8
			C528.3,229.7,524.4,227.5,520.8,226.3"/>
		<path class="st0" d="M608.1,245.4h-21.8v-12v-13.2v-13.2v-10.5c0-0.9-0.8-1.7-1.7-1.7h-10.9c-1,0-1.7,0.8-1.7,1.7v10.5v13.2v13.2
			v13.2v10.5c0,0.9,0.7,1.7,1.7,1.7h34.4c1,0,1.7-0.8,1.7-1.7v-10c0-0.2,0-0.4-0.1-0.5C609.5,245.9,608.9,245.4,608.1,245.4"/>
		<path class="st0" d="M293.7,221.8L293.7,221.8l5.4,11.6l1.6,3.5h-13.9l1.6-3.5L293.7,221.8z M319.9,246.6l-6.1-13.2l-6.1-13.2
			l-6.1-13.2l-5.7-12.2c-0.3-0.5-0.9-1-1.6-1h-0.9c-0.6,0-1.3,0.5-1.6,1l-5.7,12.2l-6.1,13.2l-6.1,13.2l-6.1,13.2l-4.6,9.9
			c-0.5,1.2,0.2,2.4,1.6,2.4h10.1c1.8,0,2.8-1.1,3.3-2.2l3.3-7.3h24.9l3.3,7.2c0.8,1.7,1.6,2.3,3.2,2.3h10.2c1.4,0,2.1-1.2,1.6-2.4
			L319.9,246.6z"/>
		<path class="st0" d="M451.2,221.8L451.2,221.8l5.4,11.6l1.6,3.5h-13.9l1.6-3.5L451.2,221.8z M477.4,246.6l-6.1-13.2l-6.1-13.2
			l-6.1-13.2l-5.7-12.2c-0.3-0.5-0.9-1-1.6-1h-0.9c-0.6,0-1.3,0.5-1.6,1l-5.7,12.2l-6.1,13.2l-6.1,13.2l-6.1,13.2l-4.6,9.9
			c-0.5,1.2,0.2,2.4,1.6,2.4h10.1c1.8,0,2.8-1.1,3.3-2.2l3.3-7.3h24.9l3.3,7.2c0.8,1.7,1.6,2.3,3.2,2.3h10.2c1.4,0,2.1-1.2,1.6-2.4
			L477.4,246.6z"/>
		<path class="st0" d="M365.8,118.3h-11c-0.9,0-1.7,0.8-1.7,1.7v10.5v13.2v13.2v13.2v10.5c0,0.9,0.8,1.7,1.7,1.7h11
			c0.9,0,1.7-0.8,1.7-1.7v-10.5v-13.2v-13.2v-13.2V120C367.6,119.1,366.7,118.3,365.8,118.3"/>
		<path class="st0" d="M417.3,118.3h-40.6c-1,0-1.7,0.8-1.7,1.7v10c0,0.2,0,0.4,0.1,0.5c0.2,0.7,0.8,1.2,1.6,1.2h13.1v12v13.2v13.2
			v10.5c0,0.9,0.8,1.7,1.7,1.7h11c0.9,0,1.7-0.8,1.7-1.7v-10.5v-13.2v-13.2v-12h13.1c0.8,0,1.4-0.5,1.6-1.2c0.1-0.2,0.1-0.4,0.1-0.5
			v-10C419,119.1,418.3,118.3,417.3,118.3"/>
		<path class="st0" d="M542.9,118.3h-37.9c-1,0-1.7,0.8-1.7,1.7v10.5v13.2v13.2v13.2v10.5c0,0.9,0.7,1.7,1.7,1.7h37.9
			c1,0,1.7-0.8,1.7-1.7v-10c0-0.2-0.1-0.4-0.1-0.5c-0.2-0.7-0.8-1.2-1.6-1.2h-25.3v-12v-0.4h20.9c0.9,0,1.7-0.7,1.7-1.7v-10
			c0-0.4-0.2-0.8-0.4-1.1c-0.3-0.4-0.8-0.6-1.3-0.6h-20.9v-11.3h25.3c0.8,0,1.4-0.5,1.6-1.2c0.1-0.2,0.1-0.4,0.1-0.5v-10
			C544.7,119.1,544,118.3,542.9,118.3"/>
		<path class="st0" d="M609.5,118.3h-11c-1,0-1.7,0.8-1.7,1.7v10.5v13.2v8.8h-0.1l-9.1-8.8l-13.7-13.2l-12.3-11.8
			c-0.7-0.7-1.4-1.4-2.3-1.4h-1.4c-0.9,0-1.7,0.7-1.7,1.6l0,11.5l0,13.2l0,13.2l0,13.2l0,10.5c0,0.9,0.8,1.7,1.7,1.7h10.9
			c1,0,1.7-0.8,1.7-1.7v-10.5v-13.2v-10.4h0.1l10.4,10.4l13.1,13.2l12.1,12.2c0.7,0.7,1.4,1,2.3,1c0,0,0,0,0,0h0.9c0,0,0,0,0,0
			c0.9,0,1.7-0.6,1.7-1.6v-11.5v-13.2v-13.2v-13.2V120C611.2,119.1,610.4,118.3,609.5,118.3"/>
		<path class="st0" d="M661.1,118.3h-40.6c-1,0-1.7,0.8-1.7,1.7v10c0,0.2,0.1,0.4,0.1,0.5c0.2,0.7,0.8,1.2,1.6,1.2h13.1v12v13.2
			v13.2v10.5c0,0.9,0.8,1.7,1.7,1.7h11c0.9,0,1.7-0.8,1.7-1.7v-10.5v-13.2v-13.2v-12h13.1c0.8,0,1.4-0.5,1.6-1.2
			c0.1-0.2,0.1-0.4,0.1-0.5v-10C662.8,119.1,662.1,118.3,661.1,118.3"/>
		<path class="st0" d="M94,131.2c4.5,0,8.6,1.4,12.4,4.7c0.6,0.6,1.6,0.6,2.3,0l5.1-5.3l2-2.1c0.7-0.7,0.7-1.8-0.1-2.6
			c-6.2-5.7-13-8.5-22.1-8.5c-10.8,0-20.4,5.2-26.4,13.2c-2.9,3.8-5,8.3-6,13.2c-0.4,2.2-0.7,4.4-0.7,6.7c0,2.2,0.2,4.4,0.6,6.5
			c1,4.9,3,9.3,5.9,13.2c6,8,15.6,13.2,26.5,13.2c0,0,0,0,0,0c0,0,0,0,0,0c8.1,0,16-2.8,22.2-8.9c0.6-0.6,0.7-1.8,0.1-2.5l-1.7-1.8
			l-5.4-5.8c-0.5-0.6-1.7-0.6-2.4-0.1c-3.3,2.8-7.2,4.4-12.3,4.4c-7.9,0-14.2-4.9-16.8-11.7c-0.8-2.1-1.3-4.4-1.3-6.9
			c0-2.2,0.4-4.3,1-6.3C79.5,136.5,85.9,131.2,94,131.2"/>
		<path class="st0" d="M152.7,168.6c-7.7,0-14.3-4.9-17-11.7c-0.8-2-1.2-4.2-1.2-6.5c0-2.4,0.5-4.6,1.3-6.7
			c2.7-6.8,9.3-11.7,16.9-11.7c7.7,0,14.3,4.9,17,11.7c0.8,2.1,1.3,4.3,1.3,6.7c0,2.3-0.4,4.5-1.2,6.5
			C167.1,163.7,160.4,168.6,152.7,168.6 M179,130.6c-6-8-15.5-13.2-26.3-13.2c-10.8,0-20.3,5.2-26.3,13.2c-2.9,3.8-4.9,8.3-5.9,13.2
			c-0.4,2.2-0.7,4.4-0.7,6.7c0,2.2,0.2,4.4,0.6,6.5c1,4.9,3,9.3,5.9,13.2c6,8,15.5,13.2,26.3,13.2c0,0,0,0,0,0s0,0,0,0
			c10.9,0,20.4-5.2,26.4-13.2c2.9-3.8,4.9-8.3,5.9-13.2c0.4-2.1,0.6-4.3,0.6-6.5c0-2.3-0.2-4.5-0.7-6.7
			C183.9,138.9,181.9,134.4,179,130.6"/>
		<path class="st0" d="M259.7,156.9l-2.2-13.2l-2.2-13.2l-2-11.7c-0.1-0.8-0.9-1.5-1.6-1.5h-1.5c-0.5,0-1.3,0.4-1.6,0.9l-6.6,12.3
			l-7.1,13.2l-7.1,13.2l-0.5,0.9h-0.2l-0.5-0.9l-7.1-13.2l-7.1-13.2l-6.6-12.3c-0.3-0.5-1.1-0.9-1.6-0.9H203c-0.7,0-1.6,0.6-1.6,1.5
			l-2,11.7l-2.2,13.2l-2.2,13.2l-2.2,13.2l-1.7,10.2c-0.2,1.2,0.6,2,1.7,2h10.8c0.9,0,1.6-0.7,1.7-1.5l1.5-10.8l1.9-13.2l0.6-4.3
			h0.2l2.2,4.3l6.9,13.2l6.3,12.2c0.3,0.5,1,1,1.6,1c0,0,0,0,0,0h1.6c0,0,0,0,0,0c0.5,0,1.3-0.5,1.6-1l6.3-12.2l6.8-13.2l2.2-4.3
			h0.2l0.6,4.3l1.9,13.2l1.6,10.8c0.1,0.7,0.9,1.5,1.7,1.5h10.8c1.1,0,1.9-0.8,1.7-2l-1.7-10.2L259.7,156.9z"/>
		<path class="st0" d="M339.1,156.9l-2.2-13.2l-2.2-13.2l-2-11.7c-0.1-0.8-0.9-1.5-1.6-1.5h-1.5c-0.5,0-1.3,0.4-1.6,0.9l-6.6,12.3
			l-7.1,13.2l-7.1,13.2l-0.5,0.9h-0.2l-0.5-0.9l-7.1-13.2l-7.1-13.2l-6.6-12.3c-0.3-0.5-1.1-0.9-1.6-0.9h-1.5
			c-0.7,0-1.6,0.6-1.6,1.5l-2,11.7l-2.2,13.2l-2.2,13.2l-2.2,13.2l-1.7,10.2c-0.2,1.2,0.6,2,1.7,2h10.8c0.9,0,1.6-0.7,1.7-1.5
			l1.5-10.8l1.9-13.2l0.6-4.3h0.2l2.2,4.3l6.9,13.2l6.3,12.2c0.3,0.5,1,1,1.6,1c0,0,0,0,0,0h1.6c0,0,0,0,0,0c0.5,0,1.3-0.5,1.6-1
			l6.3-12.2l6.8-13.2l2.2-4.3h0.2l0.6,4.3l1.9,13.2l1.6,10.8c0.1,0.7,0.9,1.5,1.7,1.5h10.8c1.1,0,1.9-0.8,1.7-2l-1.7-10.2
			L339.1,156.9z"/>
		<path class="st0" d="M489.3,156.9l-2.2-13.2l-2.2-13.2l-2-11.7c-0.1-0.8-0.9-1.5-1.6-1.5h-1.5c-0.5,0-1.3,0.4-1.6,0.9l-6.6,12.3
			l-7.1,13.2l-7.1,13.2l-0.5,0.9h-0.2l-0.5-0.9l-7.1-13.2l-7.1-13.2l-6.6-12.3c-0.3-0.5-1.1-0.9-1.6-0.9h-1.5
			c-0.7,0-1.6,0.6-1.6,1.5l-2,11.7l-2.2,13.2l-2.2,13.2l-2.2,13.2l-1.7,10.2c-0.2,1.2,0.6,2,1.7,2h10.8c0.9,0,1.6-0.7,1.7-1.5
			l1.5-10.8l1.9-13.2l0.6-4.3h0.2l2.2,4.3l6.9,13.2l6.3,12.2c0.3,0.5,1,1,1.6,1c0,0,0,0,0,0h1.6c0,0,0,0,0,0c0.5,0,1.3-0.5,1.6-1
			l6.3-12.2l6.8-13.2l2.2-4.3h0.2l0.6,4.3l1.9,13.2l1.6,10.8c0.1,0.7,0.9,1.5,1.7,1.5h10.8c1.1,0,1.9-0.8,1.7-2l-1.7-10.2
			L489.3,156.9z"/>
		<g class="st1">
			<g>
				<path class="st0" d="M85.7,273.2H62.5c3.1,5.6,9.4,9,15.7,12.1c0.8,0.4,1.5,0.7,2.2,1.1c4.7,2.5,7.3,4.8,7.3,8.1
					c0,2.4-1.4,4.2-3.7,5c-0.8,0.3-1.7,0.5-2.6,0.5c-1.3,0-2.5-0.2-3.7-0.5c-4.1-1-7.3-3.2-9.3-4.6c-0.9-0.6-2.4-0.6-3.1,0.5l-2.3,4
					L61,303c-0.6,1.2-0.4,2,0.4,2.7c2.1,2.1,8.7,7,20.6,7c0,0,0,0,0,0c0,0,0,0,0,0c10.7,0,18-6,20.5-13.2c0.7-1.9,1-3.8,1-5.8
					c0-2.9-0.6-5.3-1.5-7.4C99,279.6,91.7,276.2,85.7,273.2"/>
				<path class="st0" d="M150.2,286.4v1.3c0,6.7-4.8,10.4-11.4,10.4c-6.5,0-11.3-3.8-11.3-10.4v-1.3v-13.2h-14.7v13.2v2
					c0,4.1,1,7.9,2.8,11.2c4.3,8,13,13.2,23.2,13.2c0,0,0,0,0,0s0,0,0,0c10.2,0,19-5.2,23.3-13.2c1.8-3.3,2.8-7.1,2.8-11.2v-2v-13.2
					h-14.7V286.4z"/>
				<path class="st0" d="M199.9,273.2h-23.1c3.1,5.6,9.4,9,15.7,12.1c0.8,0.4,1.5,0.7,2.2,1.1c4.7,2.5,7.3,4.8,7.3,8.1
					c0,2.4-1.4,4.2-3.7,5c-0.8,0.3-1.7,0.5-2.6,0.5c-1.3,0-2.5-0.2-3.7-0.5c-4.1-1-7.3-3.2-9.3-4.6c-0.9-0.6-2.4-0.6-3.1,0.5l-2.3,4
					l-1.9,3.4c-0.6,1.2-0.4,2,0.4,2.7c2.1,2.1,8.7,7,20.6,7c0,0,0,0,0,0c0,0,0,0,0,0c10.7,0,18-6,20.5-13.2c0.7-1.9,1-3.8,1-5.8
					c0-2.9-0.6-5.3-1.5-7.4C213.2,279.6,205.9,276.2,199.9,273.2"/>
				<path class="st0" d="M330.9,286.4v13.2v10.5c0,0.9,0.8,1.7,1.7,1.7h11c0.9,0,1.7-0.8,1.7-1.7v-10.5v-13.2v-13.2h-14.5V286.4z"/>
				<path class="st0" d="M399.7,282L399.7,282l-9.2-8.8h-31.4l0,13.2l0,13.2l0,10.5c0,0.9,0.8,1.7,1.7,1.7h10.9c1,0,1.7-0.8,1.7-1.7
					v-10.5v-13.2V276h0.1l10.4,10.4l13.1,13.2l12.1,12.2c0.7,0.7,1.4,1,2.3,1c0,0,0,0,0,0h0.9c0,0,0,0,0,0c0.9,0,1.7-0.6,1.7-1.6
					v-11.5v-13.2v-13.2h-14.5V282z"/>
				<path class="st0" d="M502.7,285.7h8c1.3,0,2.5,0.3,3.4,0.7c2.3,1.1,3.5,3.2,3.5,5.8c0,4.3-2.6,6.6-7.1,6.6h-7.8v-12.4V285.7z
					 M520.8,279.3L520.8,279.3c2.9-1.2,5.7-3.3,7.7-6h-15.6c-0.7,0.4-1.6,0.5-2.5,0.5h-7.6v-0.5h-14.3v13.2v13.2v10.5
					c0,0.9,0.7,1.7,1.7,1.7h22.7c8.9,0,16.6-4.6,19.1-12.3c0.5-1.7,0.8-3.5,0.8-5.4c0-3.2-0.8-5.7-2.1-7.8
					C528.3,282.6,524.4,280.4,520.8,279.3"/>
				<path class="st0" d="M617,286.4v13.2v10.5c0,0.9,0.8,1.7,1.7,1.7h11c0.9,0,1.7-0.8,1.7-1.7v-10.5v-13.2v-13.2H617V286.4z"/>
				<path class="st0" d="M293.7,274.8L293.7,274.8l5.4,11.6l1.6,3.5h-13.9l1.6-3.5L293.7,274.8z M319.9,299.6l-6.1-13.2l-6.1-13.2
					H280l-6.1,13.2l-6.1,13.2l-4.6,9.9c-0.5,1.2,0.2,2.4,1.6,2.4h10.1c1.8,0,2.8-1.1,3.3-2.2l3.3-7.3h24.9l3.3,7.2
					c0.8,1.7,1.6,2.3,3.2,2.3h10.2c1.4,0,2.1-1.2,1.6-2.4L319.9,299.6z"/>
			</g>
		</g>
		<g class="st2">
			<g>
				<path class="st0" d="M80.4,322.8c4.7,2.5,7.3,4.8,7.3,8.1c0,2.4-1.4,4.2-3.7,5c-0.8,0.3-1.7,0.5-2.6,0.5c-1.3,0-2.5-0.2-3.7-0.5
					c-4.1-1-7.3-3.2-9.3-4.6c-0.9-0.6-2.4-0.6-3.1,0.5l-2.3,4l-1.9,3.4c-0.6,1.2-0.4,2,0.4,2.7c2.1,2.1,8.7,7,20.6,7c0,0,0,0,0,0
					s0,0,0,0c10.7,0,18-6,20.5-13.2c0.7-1.9,1-3.8,1-5.8c0-2.9-0.6-5.3-1.5-7.4H80.4z"/>
				<path class="st0" d="M150.2,324.1c0,6.7-4.8,10.4-11.4,10.4c-6.5,0-11.3-3.8-11.3-10.4v-1.3h-14.7v2c0,4.1,1,7.9,2.8,11.2
					c4.3,8,13,13.2,23.2,13.2c0,0,0,0,0,0s0,0,0,0c10.2,0,19-5.2,23.3-13.2c1.8-3.3,2.8-7.1,2.8-11.2v-2h-14.7V324.1z"/>
				<path class="st0" d="M194.6,322.8c4.7,2.5,7.3,4.8,7.3,8.1c0,2.4-1.4,4.2-3.7,5c-0.8,0.3-1.7,0.5-2.6,0.5
					c-1.3,0-2.5-0.2-3.7-0.5c-4.1-1-7.3-3.2-9.3-4.6c-0.9-0.6-2.4-0.6-3.1,0.5l-2.3,4l-1.9,3.4c-0.6,1.2-0.4,2,0.4,2.7
					c2.1,2.1,8.7,7,20.6,7c0,0,0,0,0,0c0,0,0,0,0,0c10.7,0,18-6,20.5-13.2c0.7-1.9,1-3.8,1-5.8c0-2.9-0.6-5.3-1.5-7.4H194.6z"/>
				<path class="st0" d="M397.1,336l12.1,12.2c0.7,0.7,1.4,1,2.3,1c0,0,0,0,0,0h0.9c0,0,0,0,0,0c0.9,0,1.7-0.6,1.7-1.6V336v-13.2
					H384L397.1,336z"/>
				<path class="st0" d="M543.8,336v10.5c0,0.9,0.8,1.7,1.7,1.7h11c0.9,0,1.7-0.8,1.7-1.7V336v-13.2h-14.5V336z"/>
				<path class="st0" d="M608.1,334.8h-21.8v-12H572V336v10.5c0,0.9,0.7,1.7,1.7,1.7h34.4c1,0,1.7-0.8,1.7-1.7v-10
					c0-0.2,0-0.4-0.1-0.6C609.5,335.3,608.9,334.8,608.1,334.8"/>
				<path class="st0" d="M653.6,336v10.5c0,0.9,0.8,1.7,1.7,1.7h11c0.9,0,1.7-0.8,1.7-1.7V336v-13.2h-14.5V336z"/>
				<path class="st0" d="M707.4,322.8V336v10.5c0,0.9,0.7,1.7,1.7,1.7H720c0.9,0,1.7-0.8,1.7-1.7V336v-13.2H707.4z"/>
				<path class="st0" d="M319.9,336l-6.1-13.2h-14.6l1.6,3.5h-13.9l1.6-3.5h-14.6l-6.1,13.2l-4.6,9.9c-0.5,1.2,0.2,2.4,1.6,2.4h10.1
					c1.8,0,2.8-1.1,3.3-2.2l3.3-7.3h24.9l3.3,7.2c0.8,1.7,1.6,2.3,3.2,2.3h10.2c1.4,0,2.1-1.2,1.6-2.4L319.9,336z"/>
			</g>
		</g>
		<path class="st0" d="M82,373.4C82,373.4,82,373.4,82,373.4L82,373.4C82,373.4,82,373.4,82,373.4"/>
		<g class="st2">
			<g>
				<path class="st0" d="M138.8,373.4C138.8,373.4,138.8,373.4,138.8,373.4L138.8,373.4C138.8,373.4,138.8,373.4,138.8,373.4"/>
				<path class="st0" d="M196.2,373.4C196.2,373.4,196.2,373.4,196.2,373.4L196.2,373.4C196.2,373.4,196.2,373.4,196.2,373.4"/>
				<polyline class="st0" points="411.5,373.4 412.4,373.4 412.4,373.4 411.5,373.4 411.5,373.4 				"/>
				<path class="st0" d="M162.1,360.3h-46.5c4.3,8,13,13.2,23.2,13.2h0C149,373.4,157.8,368.2,162.1,360.3"/>
				<path class="st0" d="M237.5,370.8c0,0.9,0.8,1.7,1.7,1.7h11c0.9,0,1.7-0.8,1.7-1.7v-10.5h-14.5V370.8z"/>
				<path class="st0" d="M263.2,370.1c-0.5,1.2,0.2,2.4,1.6,2.4h10.1c1.8,0,2.8-1.1,3.3-2.2l3.3-7.3h24.9l3.3,7.2
					c0.8,1.7,1.6,2.3,3.2,2.3h10.2c1.4,0,2.1-1.2,1.6-2.4l-4.6-9.9h-52.1L263.2,370.1z"/>
				<path class="st0" d="M359.1,370.8c0,0.9,0.8,1.7,1.7,1.7h10.9c1,0,1.7-0.8,1.7-1.7v-10.5h-14.4L359.1,370.8z"/>
				<path class="st0" d="M420.7,370.1c-0.5,1.2,0.2,2.4,1.6,2.4h10.1c1.8,0,2.8-1.1,3.3-2.2l3.3-7.3h24.9l3.3,7.2
					c0.8,1.7,1.6,2.3,3.2,2.3h10.2c1.4,0,2.1-1.2,1.6-2.4l-4.6-9.9h-52.1L420.7,370.1z"/>
				<path class="st0" d="M572,370.8c0,0.9,0.7,1.7,1.7,1.7h34.4c1,0,1.7-0.8,1.7-1.7v-10c0-0.2,0-0.4-0.1-0.6H572V370.8z"/>
				<path class="st0" d="M617,370.8c0,0.9,0.8,1.7,1.7,1.7h11c0.9,0,1.7-0.8,1.7-1.7v-10.5H617V370.8z"/>
				<path class="st0" d="M707.4,370.8c0,0.9,0.7,1.7,1.7,1.7H720c0.9,0,1.7-0.8,1.7-1.7v-10.5h-14.4V370.8z"/>
			</g>
		</g>
		<g class="st1">
			<g>
				<path class="st0" d="M365.8,66.4h-11c-0.9,0-1.7,0.8-1.7,1.7v10.5v13.2v13.2h14.5V91.9V78.7V68.2
					C367.6,67.3,366.7,66.4,365.8,66.4"/>
				<path class="st0" d="M417.3,66.4h-40.6c-1,0-1.7,0.8-1.7,1.7v10c0,0.2,0,0.4,0.1,0.5c0.2,0.7,0.8,1.2,1.6,1.2h13.1v12v13.2h14.5
					V91.9v-12h13.1c0.8,0,1.4-0.5,1.6-1.2c0.1-0.2,0.1-0.4,0.1-0.5v-10C419,67.3,418.3,66.4,417.3,66.4"/>
				<path class="st0" d="M609.5,66.4h-11c-1,0-1.7,0.8-1.7,1.7v10.5v13.2v8.8h-0.1l-9.1-8.8l-13.7-13.2l-12.3-11.8
					c-0.7-0.7-1.4-1.4-2.3-1.4h-1.4c-0.9,0-1.7,0.7-1.7,1.6l0,11.5l0,13.2l0,13.2h14.4V94.6h0.1l10.4,10.4h30.2V91.9V78.7V68.2
					C611.2,67.3,610.4,66.4,609.5,66.4"/>
				<path class="st0" d="M661.1,66.4h-40.6c-1,0-1.7,0.8-1.7,1.7v10c0,0.2,0.1,0.4,0.1,0.5c0.2,0.7,0.8,1.2,1.6,1.2h13.1v12v13.2
					H648V91.9v-12h13.1c0.8,0,1.4-0.5,1.6-1.2c0.1-0.2,0.1-0.4,0.1-0.5v-10C662.8,67.3,662.1,66.4,661.1,66.4"/>
				<path class="st0" d="M179,78.7c-6-8-15.5-13.2-26.3-13.2c-10.8,0-20.3,5.2-26.3,13.2c-2.9,3.8-4.9,8.3-5.9,13.2
					c-0.4,2.2-0.7,4.4-0.7,6.7c0,2.2,0.2,4.4,0.6,6.5h15.2c-0.8-2-1.2-4.2-1.2-6.5c0-2.4,0.5-4.6,1.3-6.7
					c2.7-6.8,9.3-11.7,16.9-11.7c7.7,0,14.3,4.9,17,11.7c0.8,2.1,1.3,4.3,1.3,6.7c0,2.3-0.4,4.5-1.2,6.5H185
					c0.4-2.1,0.6-4.3,0.6-6.5c0-2.3-0.2-4.5-0.7-6.7C183.9,87,181.9,82.5,179,78.7"/>
				<path class="st0" d="M212.6,78.7L206,66.4c-0.3-0.5-1.1-0.9-1.6-0.9H203c-0.7,0-1.6,0.6-1.6,1.5l-2,11.7l-2.2,13.2l-2.2,13.2
					h13.7l0.6-4.3h0.2l2.2,4.3h15l-7.1-13.2L212.6,78.7z"/>
				<path class="st0" d="M255.3,78.7l-2-11.7c-0.1-0.8-0.9-1.5-1.6-1.5h-1.5c-0.5,0-1.3,0.4-1.6,0.9l-6.6,12.3L235,91.9l-7.1,13.2
					h14.9l2.2-4.3h0.2l0.6,4.3h13.8l-2.2-13.2L255.3,78.7z"/>
				<path class="st0" d="M292,78.7l-6.6-12.3c-0.3-0.5-1.1-0.9-1.6-0.9h-1.5c-0.7,0-1.6,0.6-1.6,1.5l-2,11.7l-2.2,13.2l-2.2,13.2
					h13.7l0.6-4.3h0.2l2.2,4.3h15L299,91.9L292,78.7z"/>
				<path class="st0" d="M334.7,78.7l-2-11.7c-0.1-0.8-0.9-1.5-1.6-1.5h-1.5c-0.5,0-1.3,0.4-1.6,0.9l-6.6,12.3l-7.1,13.2l-7.1,13.2
					h14.9l2.2-4.3h0.2l0.6,4.3h13.8l-2.2-13.2L334.7,78.7z"/>
				<path class="st0" d="M484.9,78.7l-2-11.7c-0.1-0.8-0.9-1.5-1.6-1.5h-1.5c-0.5,0-1.3,0.4-1.6,0.9l-6.6,12.3l-7.1,13.2l-7.1,13.2
					h14.9l2.2-4.3h0.2l0.6,4.3h13.8l-2.2-13.2L484.9,78.7z"/>
				<path class="st0" d="M442.2,78.7l-6.6-12.3c-0.3-0.5-1.1-0.9-1.6-0.9h-1.5c-0.7,0-1.6,0.6-1.6,1.5l-2,11.7l-2.2,13.2l-2.2,13.2
					h13.7l0.6-4.3h0.2l2.2,4.3h15l-7.1-13.2L442.2,78.7z"/>
			</g>
		</g>
		<g class="st2">
			<g>
				<path class="st0" d="M93.5,29.1c-10.8,0-20.4,5.2-26.4,13.2c-2.9,3.8-5,8.3-6,13.2h15.9c2.4-7.2,8.8-12.5,16.9-12.5
					c4.5,0,8.6,1.4,12.4,4.7c0.6,0.6,1.6,0.6,2.3,0l5.1-5.3l2-2.1c0.7-0.7,0.7-1.8-0.1-2.6C109.4,32,102.7,29.1,93.5,29.1"/>
				<path class="st0" d="M152.7,29.1c-10.8,0-20.3,5.2-26.3,13.2c-2.9,3.8-4.9,8.3-5.9,13.2h15.3c2.7-6.8,9.3-11.7,16.9-11.7
					c7.7,0,14.3,4.9,17,11.7h15.3c-1-4.9-3.1-9.3-5.9-13.2C173,34.3,163.5,29.1,152.7,29.1"/>
				<path class="st0" d="M206,30c-0.3-0.5-1.1-0.9-1.6-0.9H203c-0.7,0-1.6,0.6-1.6,1.5l-2,11.7l-2.2,13.2h22.5l-7.1-13.2L206,30z"/>
				<path class="st0" d="M332.7,30.6c-0.1-0.8-0.9-1.5-1.6-1.5h-1.5c-0.5,0-1.3,0.4-1.6,0.9l-6.6,12.3l-7.1,13.2h22.5l-2.2-13.2
					L332.7,30.6z"/>
				<path class="st0" d="M285.4,30c-0.3-0.5-1.1-0.9-1.6-0.9h-1.5c-0.7,0-1.6,0.6-1.6,1.5l-2,11.7l-2.2,13.2H299L292,42.3L285.4,30z
					"/>
				<path class="st0" d="M365.8,30h-11c-0.9,0-1.7,0.8-1.7,1.7v10.5v13.2h14.5V42.3V31.8C367.6,30.9,366.7,30,365.8,30"/>
				<path class="st0" d="M417.3,30h-40.6c-1,0-1.7,0.8-1.7,1.7v10c0,0.2,0,0.4,0.1,0.5c0.2,0.7,0.8,1.2,1.6,1.2h13.1v12h14.5v-12
					h13.1c0.8,0,1.4-0.5,1.6-1.2c0.1-0.2,0.1-0.4,0.1-0.5v-10C419,30.9,418.3,30,417.3,30"/>
				<path class="st0" d="M482.9,30.6c-0.1-0.8-0.9-1.5-1.6-1.5h-1.5c-0.5,0-1.3,0.4-1.6,0.9l-6.6,12.3l-7.1,13.2h22.5l-2.2-13.2
					L482.9,30.6z"/>
				<path class="st0" d="M542.9,30h-37.9c-1,0-1.7,0.8-1.7,1.7v10.5v13.2h36.4c-0.3-0.4-0.8-0.6-1.3-0.6h-20.9V43.5h25.3
					c0.8,0,1.4-0.5,1.6-1.2c0.1-0.2,0.1-0.4,0.1-0.5v-10C544.7,30.9,544,30,542.9,30"/>
				<path class="st0" d="M609.5,30h-11c-1,0-1.7,0.8-1.7,1.7v10.5v13.2h14.5V42.3V31.8C611.2,30.9,610.4,30,609.5,30"/>
				<path class="st0" d="M661.1,30h-40.6c-1,0-1.7,0.8-1.7,1.7v10c0,0.2,0.1,0.4,0.1,0.5c0.2,0.7,0.8,1.2,1.6,1.2h13.1v12H648v-12
					h13.1c0.8,0,1.4-0.5,1.6-1.2c0.1-0.2,0.1-0.4,0.1-0.5v-10C662.8,30.9,662.1,30,661.1,30"/>
			</g>
		</g>
		<g class="st2">
			<g>
				<path class="st0" d="M561.5,1.4c-0.7-0.7-1.4-1.4-2.3-1.4h-1.4c-0.9,0-1.7,0.7-1.7,1.6l0,11.5h17.7L561.5,1.4z M611.2,2.7
					c0-0.9-0.8-1.7-1.7-1.7h-11c-1,0-1.7,0.8-1.7,1.7v10.5h14.5V2.7z M544.7,12.6v-10c0-0.9-0.7-1.7-1.7-1.7h-37.9
					c-1,0-1.7,0.8-1.7,1.7v10.5h41.2C544.6,13,544.7,12.8,544.7,12.6 M482.9,1.5C482.8,0.6,482,0,481.3,0h-1.5
					c-0.5,0-1.3,0.4-1.6,0.9l-6.6,12.3h13.2L482.9,1.5z M367.6,2.7c0-0.9-0.8-1.7-1.7-1.7h-11c-0.9,0-1.7,0.8-1.7,1.7v10.5h14.5V2.7
					z M285.4,0.9c-0.3-0.5-1.1-0.9-1.6-0.9h-1.5c-0.7,0-1.6,0.6-1.6,1.5l-2,11.7H292L285.4,0.9z M332.7,1.5C332.6,0.6,331.8,0,331,0
					h-1.5c-0.5,0-1.3,0.4-1.6,0.9l-6.6,12.3h13.2L332.7,1.5z M206,0.9c-0.3-0.5-1.1-0.9-1.6-0.9H203c-0.7,0-1.6,0.6-1.6,1.5l-2,11.7
					h13.2L206,0.9z M113.7,13.2H67.1C73.1,5.2,82.7,0,93.5,0c9.1,0,15.9,2.8,22.1,8.5c0.8,0.7,0.8,1.8,0.1,2.6L113.7,13.2z"/>
			</g>
		</g>
	</g>
	<g>
		<path class="st0" d="M6.8,97.9c0-0.1,0.1-0.2,0.3-0.2h0.2c0.1,0,0.2,0.1,0.3,0.2l3.3,7.1c0,0,0,0,0,0l3.3-7.1
			c0-0.1,0.1-0.2,0.3-0.2h0.2c0.2,0,0.3,0.1,0.3,0.2l1.8,10.2c0,0.2-0.1,0.3-0.3,0.3h-1.4c-0.1,0-0.3-0.1-0.3-0.2l-0.9-5.7
			c0,0,0,0,0,0l-2.6,5.9c0,0.1-0.1,0.2-0.3,0.2h-0.3c-0.1,0-0.2-0.1-0.3-0.2l-2.7-5.9c0,0,0,0,0,0l-0.9,5.7c0,0.1-0.1,0.2-0.3,0.2
			H5.3c-0.2,0-0.3-0.1-0.3-0.3L6.8,97.9z"/>
		<path class="st0" d="M27.1,97.7c3,0,5.4,2.4,5.4,5.5c0,3-2.4,5.4-5.4,5.4s-5.4-2.4-5.4-5.4C21.6,100.1,24,97.7,27.1,97.7z
			 M27.1,106.6c1.9,0,3.5-1.6,3.5-3.5c0-1.9-1.6-3.5-3.5-3.5c-1.9,0-3.5,1.6-3.5,3.5C23.6,105.1,25.2,106.6,27.1,106.6z"/>
		<path class="st0" d="M38,98.1c0-0.2,0.1-0.3,0.3-0.3h4.3c1.8,0,3.3,1.5,3.3,3.2c0,1.4-0.9,2.5-2.2,3.1l2.1,3.8
			c0.1,0.2,0,0.4-0.3,0.4h-1.6c-0.1,0-0.2-0.1-0.2-0.1l-2-4H40v3.9c0,0.2-0.1,0.3-0.3,0.3h-1.4c-0.2,0-0.3-0.1-0.3-0.3V98.1z
			 M42.4,102.7c0.8,0,1.5-0.7,1.5-1.5c0-0.8-0.7-1.5-1.5-1.5H40v3H42.4z"/>
		<path class="st0" d="M51.5,98.1c0-0.2,0.1-0.3,0.3-0.3h6.1c0.2,0,0.3,0.1,0.3,0.3v1.2c0,0.2-0.1,0.3-0.3,0.3h-4.5v2.5h3.7
			c0.2,0,0.3,0.1,0.3,0.3v1.3c0,0.2-0.1,0.3-0.3,0.3h-3.7v2.6h4.5c0.2,0,0.3,0.1,0.3,0.3v1.2c0,0.2-0.1,0.3-0.3,0.3h-6.1
			c-0.2,0-0.3-0.1-0.3-0.3V98.1z"/>
		<path class="st0" d="M71.7,99.7h-2.3c-0.2,0-0.3-0.1-0.3-0.3v-1.2c0-0.2,0.1-0.3,0.3-0.3H76c0.2,0,0.3,0.1,0.3,0.3v1.2
			c0,0.2-0.1,0.3-0.3,0.3h-2.3v8.5c0,0.2-0.1,0.3-0.3,0.3H72c-0.2,0-0.3-0.1-0.3-0.3V99.7z"/>
		<path class="st0" d="M81.5,98.1c0-0.2,0.1-0.3,0.3-0.3h1.4c0.2,0,0.3,0.1,0.3,0.3v4h4.9v-4c0-0.2,0.1-0.3,0.3-0.3h1.4
			c0.2,0,0.3,0.1,0.3,0.3v10c0,0.2-0.1,0.3-0.3,0.3h-1.4c-0.2,0-0.3-0.1-0.3-0.3V104h-4.9v4.2c0,0.2-0.1,0.3-0.3,0.3h-1.4
			c-0.2,0-0.3-0.1-0.3-0.3V98.1z"/>
		<path class="st0" d="M95.2,108l4.7-10.2c0-0.1,0.1-0.2,0.3-0.2h0.2c0.2,0,0.2,0.1,0.3,0.2l4.7,10.2c0.1,0.2,0,0.4-0.3,0.4h-1.3
			c-0.2,0-0.3-0.1-0.4-0.3l-0.7-1.6h-4.5l-0.7,1.6c-0.1,0.2-0.2,0.3-0.4,0.3h-1.3C95.2,108.4,95.1,108.2,95.2,108z M101.7,104.8
			l-1.5-3.3h0l-1.5,3.3H101.7z"/>
		<path class="st0" d="M110.1,98c0-0.2,0.1-0.3,0.3-0.3h0.2c0.1,0,0.2,0,0.3,0.1l6.2,6.6h0v-6.2c0-0.2,0.1-0.3,0.3-0.3h1.4
			c0.2,0,0.3,0.1,0.3,0.3v10.2c0,0.2-0.1,0.3-0.3,0.3h-0.2c-0.1,0-0.2,0-0.3-0.1l-6.2-6.8h0v6.5c0,0.2-0.1,0.3-0.3,0.3h-1.4
			c-0.2,0-0.3-0.1-0.3-0.3V98z"/>
	</g>
	<g>
		<path class="st0" d="M10.8,192.7c0-0.2,0.1-0.3,0.3-0.3h1.4c0.2,0,0.3,0.1,0.3,0.3v10c0,0.2-0.1,0.3-0.3,0.3h-1.4
			c-0.2,0-0.3-0.1-0.3-0.3V192.7z"/>
		<path class="st0" d="M20.6,194.2h-2.3c-0.2,0-0.3-0.1-0.3-0.3v-1.2c0-0.2,0.1-0.3,0.3-0.3h6.6c0.2,0,0.3,0.1,0.3,0.3v1.2
			c0,0.2-0.1,0.3-0.3,0.3h-2.3v8.5c0,0.2-0.1,0.3-0.3,0.3h-1.4c-0.2,0-0.3-0.1-0.3-0.3V194.2z"/>
		<path class="st0" d="M30.7,192.3c0.7,0,1.3,0.6,1.3,1.7c0,1.1-0.5,1.8-1.1,2.5c-0.1,0.1-0.2,0.1-0.3,0l-0.4-0.3
			c-0.1-0.1,0-0.2,0-0.3c0.3-0.4,0.7-0.9,0.7-1.4c0-0.1,0-0.2,0-0.3c-0.1,0.1-0.3,0.2-0.5,0.2c-0.6,0-0.9-0.5-0.9-1
			C29.6,192.7,30,192.3,30.7,192.3z"/>
		<path class="st0" d="M37.2,192.7c0-0.2,0.1-0.3,0.3-0.3h1.4c0.2,0,0.3,0.1,0.3,0.3v10c0,0.2-0.1,0.3-0.3,0.3h-1.4
			c-0.2,0-0.3-0.1-0.3-0.3V192.7z"/>
		<path class="st0" d="M44.9,202c-0.2-0.1-0.2-0.2-0.1-0.5l0.5-0.9c0.1-0.2,0.4-0.2,0.5-0.1c0.6,0.5,1.3,0.9,2.3,0.9
			c0.8,0,1.4-0.5,1.4-1.2c0-0.8-0.6-1.3-1.9-1.8c-1.4-0.6-2.8-1.5-2.8-3.3c0-1.3,1-2.9,3.4-2.9c1.5,0,2.7,0.8,3,1
			c0.2,0.1,0.2,0.3,0.1,0.5l-0.6,0.9c-0.1,0.2-0.3,0.3-0.5,0.2c-0.6-0.4-1.3-0.8-2.1-0.8c-0.9,0-1.3,0.5-1.3,1.1
			c0,0.7,0.6,1.2,1.8,1.7c1.5,0.6,3.2,1.5,3.2,3.4c0,1.6-1.3,3-3.5,3C46.3,203.2,45.3,202.4,44.9,202z"/>
	</g>
</g>
</svg>
