<?xml version="1.0" encoding="utf-8"?>
<!-- Generator: Adobe Illustrator 25.4.1, SVG Export Plug-In . SVG Version: 6.00 Build 0)  -->
<svg version="1.1" id="Layer_1" xmlns="http://www.w3.org/2000/svg" xmlns:xlink="http://www.w3.org/1999/xlink" x="0px" y="0px"
	 viewBox="0 0 665.5 448" style="enable-background:new 0 0 665.5 448;" xml:space="preserve">
<style type="text/css">
	.st0{fill:#FFFFFF;}
	.st1{opacity:0.3;}
	.st2{opacity:0.15;}
</style>
<g>
	<g>
		<path class="st0" d="M111.1,239.4H98.3c-1.1,0-2,1-2,2v12.3v15.4v15.4v15.4v12.3c0,1.1,1,2,2,2h12.8c1.1,0,2-1,2-2v-12.3v-15.4
			v-15.4v-15.4v-12.3C113.2,240.4,112.2,239.4,111.1,239.4"/>
		<path class="st0" d="M191.4,239.4h-12.8c-1.2,0-2,1-2,2v12.3v15.4v10.3h-0.1l-10.7-10.3l-16-15.4l-14.3-13.8
			c-0.9-0.9-1.6-1.6-2.7-1.6h-1.6c-1.1,0-2,0.9-2,1.9l0,13.5l0,15.4l0,15.4l0,15.4l0,12.3c0,1.1,1,2,2,2H144c1.2,0,2-1,2-2v-12.3
			v-15.4v-12.2h0.1l12.1,12.2l15.3,15.4l14.1,14.2c0.9,0.9,1.6,1.2,2.7,1.2c0,0,0,0,0,0h1.1c0,0,0,0,0,0c1.1,0,2-0.6,2-1.9v-13.5
			v-15.4v-15.4v-15.4v-12.3C193.5,240.4,192.5,239.4,191.4,239.4"/>
		<path class="st0" d="M251.7,239.4h-47.4c-1.2,0-2,1-2,2v11.6c0,0.2,0.1,0.4,0.1,0.6c0.3,0.8,1,1.4,1.9,1.4h15.3v14v15.4v15.4v12.3
			c0,1.1,1,2,2,2h12.8c1.1,0,2-1,2-2v-12.3v-15.4v-15.4v-14h15.3c0.9,0,1.6-0.6,1.9-1.4c0.1-0.2,0.1-0.4,0.1-0.6v-11.6
			C253.8,240.4,252.9,239.4,251.7,239.4"/>
		<path class="st0" d="M308.8,239.4h-44.2c-1.2,0-2,1-2,2v12.3v15.4v15.4v15.4v12.3c0,1.1,0.9,2,2,2h44.2c1.2,0,2-1,2-2v-11.6
			c0-0.2-0.1-0.4-0.1-0.6c-0.3-0.8-1-1.4-1.9-1.4h-29.6v-14v-0.4h24.4c1.1,0,2-0.9,2-2v-11.6c0-0.5-0.2-0.9-0.5-1.3
			c-0.4-0.4-0.9-0.7-1.5-0.7h-24.4v-13.3h29.6c0.9,0,1.6-0.6,1.9-1.4c0.1-0.2,0.1-0.4,0.1-0.6v-11.6
			C310.8,240.4,309.9,239.4,308.8,239.4"/>
		<path class="st0" d="M483.1,239.4h-12.8c-1.1,0-2,1-2,2v12.3v15.4v15.4v15.4v12.3c0,1.1,1,2,2,2h12.8c1.1,0,2-1,2-2v-12.3v-15.4
			v-15.4v-15.4v-12.3C485.1,240.4,484.2,239.4,483.1,239.4"/>
		<path class="st0" d="M543.3,239.4h-47.4c-1.2,0-2,1-2,2v11.6c0,0.2,0.1,0.4,0.1,0.6c0.3,0.8,1,1.4,1.9,1.4h15.3v14v15.4v15.4v12.3
			c0,1.1,1,2,2,2h12.8c1.1,0,2-1,2-2v-12.3v-15.4v-15.4v-14h15.3c0.9,0,1.6-0.6,1.9-1.4c0.1-0.2,0.1-0.4,0.1-0.6v-11.6
			C545.3,240.4,544.4,239.4,543.3,239.4"/>
		<path class="st0" d="M612.9,239.4H599c-1,0-1.4,0.5-1.7,1l-9.1,13.4l-5.8,8.6l-5.8-8.6l-9.1-13.4c-0.3-0.4-0.9-1-1.7-1H552
			c-1.7,0-2.6,1.7-1.7,3.1l7.4,11.2l10.2,15.4l6,9.1v6.3v15.4v12.3c0,1.1,0.9,2,2,2h12.7c1.1,0,2-1,2-2v-12.3v-15.4v-6.4l6-9
			l10.4-15.4l7.5-11.2C615.5,241.1,614.6,239.4,612.9,239.4"/>
		<path class="st0" d="M415.2,254.7H431c4.4,0,8.1,3.1,8.1,8.1c0,2.6-1,4.8-2.6,6.3c-1.5,1.4-3.4,2.2-5.5,2.2h-15.8v-2.2V254.7z
			 M454.7,269.1c0.6-2.1,1-4.3,1-6.6c0-3.1-0.6-6.1-1.7-8.8c-3.3-8.4-11.4-14.3-21.6-14.3h-32c-1.2,0-2,1-2,2v12.3v15.4v15.4v15.4
			v12.3c0,1.1,0.9,2,2,2h12.7c1.1,0,2-1,2-2v-12.3v-15h7.4l7.5,15l6.7,13.4c0.2,0.4,0.9,1,1.7,1h14.2c1.8,0,2.6-1.7,1.8-3.1
			l-6.1-11.2l-8.3-15.4l-0.3-0.5C447.5,281.1,452.7,275.8,454.7,269.1"/>
		<path class="st0" d="M384.2,284.5l0-6.7c0-1.1-0.9-2-1.9-2h-21.5c-1.2,0-2,0.9-2,2v6.7v3.8c0,1.1,0.9,1.9,2,1.9h6.7v6.2
			c-3.2,1.3-6.4,1.7-9.5,1.7c-9,0-16.7-5.7-19.7-13.7c-0.9-2.4-1.4-4.9-1.4-7.6c0-2.7,0.5-5.4,1.5-7.8c3.1-8,10.7-13.8,19.6-13.8
			c5.2,0,9.9,1.4,14,5.1c0.9,0.6,2,0.6,2.9-0.1l6.2-6.6l2.2-2.3c0.9-0.9,0.7-2.1-0.2-2.9c-7.3-6.3-17.1-10-26.1-10
			c-12.6,0-23.6,6-30.6,15.3c-3.4,4.5-5.8,9.7-7,15.4c-0.5,2.5-0.8,5.1-0.8,7.8c0,2.6,0.3,5.1,0.7,7.6c1.1,5.7,3.5,10.9,6.9,15.4
			c7,9.3,18.1,15.3,30.7,15.3c15.5,0,26.5-6.9,26.5-6.9c0.4-0.3,0.9-0.7,0.9-1.7l0-6.6L384.2,284.5z"/>
		<path class="st0" d="M219.8,138.2h-44.2c-1.2,0-2,1-2,2v12.3v15.4v15.4v15.4V211c0,1.1,0.9,2,2,2h44.2c1.2,0,2-1,2-2v-11.6
			c0-0.2-0.1-0.4-0.1-0.6c-0.3-0.8-1-1.4-1.9-1.4h-29.6v-14v-0.4h24.4c1.1,0,2-0.9,2-2v-11.6c0-0.5-0.2-0.9-0.5-1.3
			c-0.4-0.4-0.9-0.7-1.5-0.7h-24.4v-13.3h29.6c0.9,0,1.6-0.6,1.9-1.4c0.1-0.2,0.1-0.4,0.1-0.6v-11.6
			C221.8,139.1,221,138.2,219.8,138.2"/>
		<path class="st0" d="M319.7,138.2h-12.8c-1.1,0-2,1-2,2v12.3v15.4v15.4v15.4V211c0,1.1,1,2,2,2h12.8c1.1,0,2-1,2-2v-12.3v-15.4
			v-15.4v-15.4v-12.3C321.7,139.1,320.7,138.2,319.7,138.2"/>
		<path class="st0" d="M411,138.2h-12.8c-1.1,0-2,1-2,2v12.3v15.4v15.4v15.4V211c0,1.1,1,2,2,2H411c1.1,0,2-1,2-2v-12.3v-15.4v-15.4
			v-15.4v-12.3C413,139.1,412,138.2,411,138.2"/>
		<path class="st0" d="M575.4,138.2h-12.8c-1.2,0-2,1-2,2v12.3v15.4v10.3h-0.1l-10.7-10.3l-16-15.4l-14.3-13.8
			c-0.9-0.9-1.6-1.6-2.7-1.6h-1.6c-1.1,0-2,0.9-2,1.9l0,13.5l0,15.4l0,15.4l0,15.4l0,12.3c0,1.1,1,2,2,2h12.7c1.2,0,2-1,2-2v-12.3
			v-15.4v-12.2h0.1l12.1,12.2l15.3,15.4l14.1,14.2c0.9,0.9,1.6,1.2,2.7,1.2c0,0,0,0,0,0h1.1c0,0,0,0,0,0c1.1,0,2-0.6,2-1.9v-13.5
			v-15.4v-15.4v-15.4v-12.3C577.4,139.1,576.4,138.2,575.4,138.2"/>
		<path class="st0" d="M124.2,197.2H113v-13.9v-15.4v-14h11.2c9.4,0,16.2,5.8,18.7,14c0.7,2.4,1.1,4.9,1.1,7.6
			c0,2.8-0.4,5.4-1.2,7.8C140.3,191.5,133.5,197.2,124.2,197.2 M153.7,152.5c-6.9-8.7-17.5-14.3-29.5-14.3H98.2c-1.1,0-1.9,1-1.9,2
			v12.3v15.4v15.4v15.4V211c0,1.1,0.9,2,1.9,2h26.1c11.9,0,22.5-5.6,29.4-14.3c3.5-4.4,6-9.7,7.3-15.4c0.5-2.5,0.8-5.1,0.8-7.8
			c0-2.6-0.3-5.1-0.8-7.6C159.8,162.2,157.3,156.9,153.7,152.5"/>
		<path class="st0" d="M268.7,153.2c5.2,0,10,1.6,14.4,5.4c0.7,0.7,1.9,0.7,2.7,0l6-6.2l2.4-2.5c0.9-0.9,0.9-2.1-0.1-3
			c-7.3-6.6-15.2-9.9-25.9-9.9c-12.6,0-23.8,6-30.8,15.4c-3.4,4.5-5.8,9.7-7,15.4c-0.5,2.5-0.8,5.1-0.8,7.8c0,2.6,0.3,5.1,0.8,7.6
			c1.1,5.7,3.6,10.9,6.9,15.4c7,9.4,18.2,15.4,30.9,15.4c0,0,0,0,0,0c0,0,0,0,0,0c9.5,0,18.7-3.3,26-10.4c0.7-0.7,0.9-2.1,0.1-2.9
			l-2-2.1l-6.3-6.7c-0.6-0.7-2-0.7-2.8-0.1c-3.8,3.3-8.4,5.1-14.3,5.1c-9.2,0-16.6-5.7-19.6-13.7c-0.9-2.5-1.5-5.2-1.5-8
			c0-2.6,0.4-5.1,1.2-7.4C251.8,159.4,259.2,153.2,268.7,153.2"/>
		<path class="st0" d="M462.9,197c-9,0-16.7-5.7-19.8-13.7c-0.9-2.4-1.4-4.9-1.4-7.6c0-2.7,0.5-5.4,1.5-7.8
			c3.1-8,10.8-13.7,19.8-13.7c9,0,16.7,5.7,19.9,13.7c1,2.4,1.5,5.1,1.5,7.8c0,2.7-0.5,5.2-1.4,7.6C479.7,191.2,472,197,462.9,197
			 M493.6,152.5c-7-9.3-18.1-15.4-30.8-15.4c-12.6,0-23.7,6-30.7,15.4c-3.3,4.5-5.8,9.7-6.9,15.4c-0.5,2.5-0.8,5.1-0.8,7.8
			c0,2.6,0.3,5.1,0.7,7.6c1.1,5.7,3.5,10.9,6.8,15.4c7,9.4,18.1,15.4,30.8,15.4c0,0,0,0,0,0c0,0,0,0,0,0c12.7,0,23.9-6,30.8-15.4
			c3.3-4.5,5.7-9.7,6.9-15.4c0.5-2.5,0.7-5,0.7-7.6c0-2.7-0.3-5.3-0.8-7.8C499.4,162.2,497,157,493.6,152.5"/>
		<path class="st0" d="M363.3,167.9c-0.2-0.1-0.4-0.2-0.7-0.3c-7.5-3.6-11.6-6.4-11.6-9.9c0-2.1,1-4.1,3.1-5.1
			c0.9-0.5,2.1-0.7,3.4-0.7c1.5,0,3,0.3,4.6,0.7c4.2,1.3,8.1,3.8,9.9,5c2.1,1.3,4,0.4,4.7-0.7l2.8-4.3l2.6-4
			c0.4-0.7,0.6-2.7-0.6-3.4c-3.2-2.4-11.8-8-22.9-8c-13.4,0-21.3,7.1-23.8,15.4c-0.6,1.9-0.9,3.9-0.9,5.9c0,3.7,0.9,6.8,2.4,9.5
			c3.6,6.6,11,10.5,18.4,14.1c0.9,0.4,1.7,0.9,2.5,1.3c5.5,2.9,8.5,5.6,8.5,9.5c0,2.8-1.7,4.9-4.3,5.9c-0.9,0.3-2,0.5-3.1,0.5
			c-1.5,0-2.9-0.2-4.3-0.5c-4.7-1.1-8.6-3.8-10.9-5.3c-1.1-0.7-2.8-0.7-3.6,0.6l-2.7,4.7l-2.2,4c-0.7,1.4-0.4,2.4,0.4,3.2
			c2.5,2.5,10.1,8.2,24,8.2c0,0,0,0,0,0c0,0,0,0,0,0c12.5,0,21-7,24-15.4c0.8-2.2,1.2-4.5,1.2-6.7c0-3.4-0.7-6.2-1.8-8.7
			C378.9,175.3,370.4,171.3,363.3,167.9"/>
		<g class="st1">
			<g>
				<path class="st0" d="M96.3,346.4v15.4v12.3c0,1.1,1,2,2,2h12.8c1.1,0,2-1,2-2v-12.3v-15.4V331H96.3V346.4z"/>
				<path class="st0" d="M176.6,341.2h-0.1L165.8,331h-36.6l0,15.4l0,15.4l0,12.3c0,1.1,1,2,2,2H144c1.2,0,2-1,2-2v-12.3v-15.4
					v-12.2h0.1l12.1,12.2l15.3,15.4l14.1,14.2c0.9,0.9,1.6,1.2,2.7,1.2c0,0,0,0,0,0h1.1c0,0,0,0,0,0c1.1,0,2-0.6,2-1.9v-13.5v-15.4
					V331h-16.9V341.2z"/>
				<path class="st0" d="M511.1,346.4v15.4v12.3c0,1.1,1,2,2,2h12.8c1.1,0,2-1,2-2v-12.3v-15.4V331h-16.9V346.4z"/>
				<path class="st0" d="M308.8,360.4h-29.6v-14V346h24.4c1.1,0,2-0.9,2-2v-11.6c0-0.5-0.2-0.9-0.5-1.3h-42.5v15.4v15.4v12.3
					c0,1.1,0.9,2,2,2h44.2c1.2,0,2-1,2-2v-11.6c0-0.2-0.1-0.4-0.1-0.6C310.4,361,309.7,360.4,308.8,360.4"/>
				<path class="st0" d="M384.2,346.4l0-6.7c0-1.1-0.9-2-1.9-2h-21.5c-1.2,0-2,0.9-2,2v6.7v3.8c0,1.1,0.9,1.9,2,1.9h6.7v6.2
					c-3.2,1.3-6.4,1.7-9.5,1.7c-9,0-16.7-5.7-19.7-13.7c-0.9-2.4-1.4-4.9-1.4-7.6c0-2.7,0.5-5.4,1.5-7.8h-19
					c-0.5,2.5-0.8,5.1-0.8,7.8c0,2.6,0.3,5.1,0.7,7.6c1.1,5.7,3.5,10.9,6.9,15.4c7,9.3,18.1,15.3,30.7,15.3
					c15.5,0,26.5-6.9,26.5-6.9c0.4-0.3,0.9-0.7,0.9-1.7l0-6.6L384.2,346.4z"/>
				<path class="st0" d="M448.5,361.8l-8.3-15.4l-0.3-0.5c7.6-2.9,12.8-8.1,14.8-14.9h-18.2c-1.5,1.4-3.4,2.2-5.5,2.2h-15.8V331
					h-16.8v15.4v15.4v12.3c0,1.1,0.9,2,2,2h12.7c1.1,0,2-1,2-2v-12.3v-15h7.4l7.5,15l6.7,13.4c0.2,0.4,0.9,1,1.7,1h14.2
					c1.8,0,2.6-1.7,1.8-3.1L448.5,361.8z"/>
			</g>
		</g>
		<g class="st2">
			<g>
				<path class="st0" d="M96.3,404.3v12.3c0,1.1,1,2,2,2h12.8c1.1,0,2-1,2-2v-12.3v-15.4H96.3V404.3z"/>
				<path class="st0" d="M173.6,404.3l14.1,14.2c0.9,0.9,1.6,1.2,2.7,1.2c0,0,0,0,0,0h1.1c0,0,0,0,0,0c1.1,0,2-0.6,2-1.9v-13.5
					v-15.4h-35.2L173.6,404.3z"/>
				<path class="st0" d="M219.6,404.3v12.3c0,1.1,1,2,2,2h12.8c1.1,0,2-1,2-2v-12.3v-15.4h-16.9V404.3z"/>
				<path class="st0" d="M308.8,402.9h-29.6v-14h-16.7v15.4v12.3c0,1.1,0.9,2,2,2h44.2c1.2,0,2-1,2-2v-11.6c0-0.2-0.1-0.4-0.1-0.6
					C310.4,403.5,309.7,402.9,308.8,402.9"/>
				<path class="st0" d="M384.2,388.9h-25.5v3.8c0,1.1,0.9,1.9,2,1.9h6.7v6.2c-3.2,1.3-6.4,1.7-9.5,1.7c-9,0-16.7-5.7-19.7-13.7h-19
					c1.1,5.7,3.5,10.9,6.9,15.4c7,9.3,18.1,15.3,30.7,15.3c15.5,0,26.5-6.9,26.5-6.9c0.4-0.3,0.9-0.7,0.9-1.7l0-6.6L384.2,388.9z"/>
				<path class="st0" d="M468.3,404.3v12.3c0,1.1,1,2,2,2h12.8c1.1,0,2-1,2-2v-12.3v-15.4h-16.9V404.3z"/>
				<path class="st0" d="M511.1,404.3v12.3c0,1.1,1,2,2,2h12.8c1.1,0,2-1,2-2v-12.3v-15.4h-16.9V404.3z"/>
				<path class="st0" d="M573.9,388.9v15.4v12.3c0,1.1,0.9,2,2,2h12.7c1.1,0,2-1,2-2v-12.3v-15.4H573.9z"/>
				<path class="st0" d="M448.5,404.3l-8.3-15.4h-41.8v15.4v12.3c0,1.1,0.9,2,2,2h12.7c1.1,0,2-1,2-2v-12.3v-15h7.4l7.5,15l6.7,13.4
					c0.2,0.4,0.9,1,1.7,1h14.2c1.8,0,2.6-1.7,1.8-3.1L448.5,404.3z"/>
			</g>
		</g>
		<g class="st2">
			<g>
				<polyline class="st0" points="190.4,448 191.4,448 191.4,448 190.4,448 190.4,448 				"/>
				<path class="st0" d="M98.3,447h12.8c1.1,0,2-1,2-2v-12.3H96.3v12.3C96.3,446,97.3,447,98.3,447"/>
				<path class="st0" d="M193.5,446.1v-13.5h-19.9l14.1,14.2c0.9,0.9,1.6,1.2,2.7,1.2h1.1C192.5,448,193.5,447.4,193.5,446.1"/>
				<path class="st0" d="M236.4,444.9v-12.3h-16.9v12.3c0,1.1,1,2,2,2"/>
				<path class="st0" d="M262.5,444.9c0,1.1,0.9,2,2,2h44.2c1.2,0,2-1,2-2v-11.6c0-0.2-0.1-0.4-0.1-0.6h-48.2V444.9z"/>
				<path class="st0" d="M398.4,444.9c0,1.1,0.9,2,2,2h12.7c1.1,0,2-1,2-2v-12.3h-16.8V444.9z"/>
				<path class="st0" d="M436.8,446c0.2,0.4,0.9,1,1.7,1h14.2c1.8,0,2.6-1.7,1.8-3.1l-6.1-11.2h-18.4L436.8,446z"/>
			</g>
		</g>
		<g class="st1">
			<g>
				<path class="st0" d="M219.8,77.6h-44.2c-1.2,0-2,1-2,2v12.3v15.4v15.4h16.7v-0.4h24.4c1.1,0,2-0.9,2-2v-11.6
					c0-0.5-0.2-0.9-0.5-1.3c-0.4-0.4-0.9-0.7-1.5-0.7h-24.4V93.3h29.6c0.9,0,1.6-0.6,1.9-1.4c0.1-0.2,0.1-0.4,0.1-0.6V79.6
					C221.8,78.6,221,77.6,219.8,77.6"/>
				<path class="st0" d="M268.2,76.5c-12.6,0-23.8,6-30.8,15.4c-3.4,4.5-5.8,9.7-7,15.4c-0.5,2.5-0.8,5.1-0.8,7.8
					c0,2.6,0.3,5.1,0.8,7.6h18.9c-0.9-2.5-1.5-5.2-1.5-8c0-2.6,0.4-5.1,1.2-7.4c2.8-8.4,10.3-14.6,19.7-14.6c5.2,0,10,1.6,14.4,5.4
					c0.7,0.7,1.9,0.7,2.7,0l6-6.2l2.4-2.5c0.9-0.9,0.9-2.1-0.1-3C286.8,79.8,278.9,76.5,268.2,76.5"/>
				<path class="st0" d="M319.7,77.6h-12.8c-1.1,0-2,1-2,2v12.3v15.4v15.4h16.9v-15.4V91.9V79.6C321.7,78.6,320.7,77.6,319.7,77.6"
					/>
				<path class="st0" d="M411,77.6h-12.8c-1.1,0-2,1-2,2v12.3v15.4v15.4H413v-15.4V91.9V79.6C413,78.6,412,77.6,411,77.6"/>
				<path class="st0" d="M575.4,77.6h-12.8c-1.2,0-2,1-2,2v12.3v15.4v10.3h-0.1l-10.7-10.3l-16-15.4l-14.3-13.8
					c-0.9-0.9-1.6-1.6-2.7-1.6h-1.6c-1.1,0-2,0.9-2,1.9l0,13.5l0,15.4l0,15.4h16.8v-12.2h0.1l12.1,12.2h35.2v-15.4V91.9V79.6
					C577.4,78.6,576.4,77.6,575.4,77.6"/>
				<path class="st0" d="M153.7,91.9c-6.9-8.7-17.5-14.3-29.5-14.3H98.2c-1.1,0-1.9,1-1.9,2v12.3v15.4v15.4H113v-15.4v-14h11.2
					c9.4,0,16.2,5.8,18.7,14c0.7,2.4,1.1,4.9,1.1,7.6c0,2.8-0.4,5.4-1.2,7.8H161c0.5-2.5,0.8-5.1,0.8-7.8c0-2.6-0.3-5.1-0.8-7.6
					C159.8,101.6,157.3,96.4,153.7,91.9"/>
				<path class="st0" d="M363.3,107.3c-0.2-0.1-0.4-0.2-0.7-0.3c-7.5-3.6-11.6-6.4-11.6-9.9c0-2.1,1-4.1,3.1-5.1
					c0.9-0.5,2.1-0.7,3.4-0.7c1.5,0,3,0.3,4.6,0.7c4.2,1.3,8.1,3.8,9.9,5c2.1,1.3,4,0.4,4.7-0.7l2.8-4.3l2.6-4
					c0.4-0.7,0.6-2.7-0.6-3.4c-3.2-2.4-11.8-8-22.9-8c-13.4,0-21.3,7.1-23.8,15.4c-0.6,1.9-0.9,3.9-0.9,5.9c0,3.7,0.9,6.8,2.4,9.5
					c3.6,6.6,11,10.5,18.4,14.1c0.9,0.4,1.7,0.9,2.5,1.3h25.3C378.9,114.7,370.4,110.8,363.3,107.3"/>
			</g>
		</g>
		<g class="st2">
			<g>
				<path class="st0" d="M124.3,35.1H98.2c-1.1,0-1.9,1-1.9,2v12.3v15.4H113v-14h11.2c9.4,0,16.2,5.8,18.7,14H161
					c-1.2-5.7-3.8-10.9-7.3-15.4C146.9,40.7,136.2,35.1,124.3,35.1"/>
				<path class="st0" d="M268.2,34c-12.6,0-23.8,6-30.8,15.4c-3.4,4.5-5.8,9.7-7,15.4H249c2.8-8.4,10.3-14.6,19.7-14.6
					c5.2,0,10,1.6,14.4,5.4c0.7,0.7,1.9,0.7,2.7,0l6-6.2l2.4-2.5c0.9-0.9,0.9-2.1-0.1-3C286.8,37.3,278.9,34,268.2,34"/>
				<path class="st0" d="M319.7,35.1h-12.8c-1.1,0-2,1-2,2v12.3v15.4h16.9V49.4V37.1C321.7,36.1,320.7,35.1,319.7,35.1"/>
				<path class="st0" d="M358.6,34c-13.4,0-21.3,7.1-23.8,15.4c-0.6,1.9-0.9,3.9-0.9,5.9c0,3.7,0.9,6.8,2.4,9.5h27
					c-0.2-0.1-0.4-0.2-0.7-0.3c-7.5-3.6-11.6-6.4-11.6-9.9c0-2.1,1-4.1,3.1-5.1c0.9-0.5,2.1-0.7,3.4-0.7c1.5,0,3,0.3,4.6,0.7
					c4.2,1.3,8.1,3.8,9.9,5c2.1,1.3,4,0.4,4.7-0.7l2.8-4.3l2.6-4c0.4-0.7,0.6-2.7-0.6-3.4C378.3,39.7,369.7,34,358.6,34"/>
				<path class="st0" d="M462.9,34c-12.6,0-23.7,6-30.7,15.4c-3.3,4.5-5.8,9.7-6.9,15.4h17.8c3.1-8,10.8-13.7,19.8-13.7
					c9,0,16.7,5.7,19.9,13.7h17.8c-1.2-5.7-3.6-10.9-6.9-15.4C486.6,40.1,475.5,34,462.9,34"/>
				<path class="st0" d="M575.4,35.1h-12.8c-1.2,0-2,1-2,2v12.3v15.4h16.9V49.4V37.1C577.4,36.1,576.4,35.1,575.4,35.1"/>
			</g>
		</g>
		<g class="st2">
			<g>
				<path class="st0" d="M519.4,1.6c-0.9-0.9-1.6-1.6-2.7-1.6h-1.6c-1.1,0-2,0.9-2,1.9l0,13.5h20.6L519.4,1.6z M462.9,0
					c-12.6,0-23.7,6-30.7,15.4h61.4C486.6,6,475.5,0,462.9,0 M413,3.1c0-1.1-1-2-2-2h-12.8c-1.1,0-2,1-2,2v12.3H413V3.1z M321.7,3.1
					c0-1.1-1-2-2-2h-12.8c-1.1,0-2,1-2,2v12.3h16.9V3.1z M294.1,12.9c0.9-0.9,0.9-2.1-0.1-3C286.8,3.3,278.9,0,268.2,0
					c-12.6,0-23.8,6-30.8,15.4h54.4L294.1,12.9z M221.8,14.7V3.1c0-1.1-0.9-2-2-2h-44.2c-1.2,0-2,1-2,2v12.3h48.2
					C221.8,15.2,221.8,15,221.8,14.7"/>
			</g>
		</g>
		<g>
			<path class="st0" d="M52.3,115.5c0-0.1,0.1-0.2,0.3-0.2h0.2c0.1,0,0.2,0.1,0.2,0.1l3.2,6.9c0,0,0,0,0,0l3.2-6.9
				c0-0.1,0.1-0.1,0.2-0.1H60c0.2,0,0.2,0.1,0.3,0.2l1.7,9.8c0,0.2-0.1,0.3-0.3,0.3h-1.3c-0.1,0-0.2-0.1-0.3-0.2l-0.9-5.5
				c0,0,0,0,0,0l-2.6,5.7c0,0.1-0.1,0.2-0.2,0.2h-0.3c-0.1,0-0.2-0.1-0.2-0.2l-2.6-5.7c0,0,0,0,0,0l-0.8,5.5c0,0.1-0.1,0.2-0.3,0.2
				h-1.3c-0.2,0-0.3-0.1-0.3-0.3L52.3,115.5z"/>
			<path class="st0" d="M74.8,115.2c2.9,0,5.3,2.4,5.3,5.3s-2.3,5.2-5.3,5.2s-5.2-2.3-5.2-5.2S71.9,115.2,74.8,115.2z M74.8,123.9
				c1.8,0,3.4-1.5,3.4-3.3c0-1.8-1.5-3.4-3.4-3.4c-1.8,0-3.3,1.5-3.3,3.4C71.4,122.4,72.9,123.9,74.8,123.9z"/>
			<path class="st0" d="M88.2,115.7c0-0.1,0.1-0.3,0.3-0.3h4.2c1.8,0,3.2,1.4,3.2,3.1c0,1.3-0.9,2.4-2.2,3l2,3.7
				c0.1,0.2,0,0.4-0.2,0.4h-1.5c-0.1,0-0.2-0.1-0.2-0.1l-1.9-3.9h-1.6v3.7c0,0.1-0.1,0.3-0.3,0.3h-1.3c-0.2,0-0.3-0.1-0.3-0.3V115.7
				z M92.5,120c0.8,0,1.4-0.7,1.4-1.5c0-0.8-0.7-1.4-1.4-1.4h-2.4v2.9H92.5z"/>
			<path class="st0" d="M104.1,115.7c0-0.1,0.1-0.3,0.3-0.3h5.9c0.2,0,0.3,0.1,0.3,0.3v1.2c0,0.1-0.1,0.3-0.3,0.3H106v2.4h3.6
				c0.1,0,0.3,0.1,0.3,0.3v1.2c0,0.2-0.1,0.3-0.3,0.3H106v2.6h4.3c0.2,0,0.3,0.1,0.3,0.3v1.2c0,0.1-0.1,0.3-0.3,0.3h-5.9
				c-0.2,0-0.3-0.1-0.3-0.3V115.7z"/>
			<path class="st0" d="M129.4,117.1h-2.2c-0.2,0-0.3-0.1-0.3-0.3v-1.2c0-0.1,0.1-0.3,0.3-0.3h6.4c0.2,0,0.3,0.1,0.3,0.3v1.2
				c0,0.1-0.1,0.3-0.3,0.3h-2.2v8.2c0,0.1-0.1,0.3-0.3,0.3h-1.4c-0.1,0-0.3-0.1-0.3-0.3V117.1z"/>
			<path class="st0" d="M141.7,115.7c0-0.1,0.1-0.3,0.3-0.3h1.4c0.2,0,0.3,0.1,0.3,0.3v3.9h4.8v-3.9c0-0.1,0.1-0.3,0.3-0.3h1.3
				c0.1,0,0.3,0.1,0.3,0.3v9.7c0,0.1-0.1,0.3-0.3,0.3h-1.3c-0.2,0-0.3-0.1-0.3-0.3v-4h-4.8v4c0,0.1-0.1,0.3-0.3,0.3h-1.4
				c-0.1,0-0.3-0.1-0.3-0.3V115.7z"/>
			<path class="st0" d="M157.8,125.2l4.5-9.8c0-0.1,0.1-0.2,0.2-0.2h0.1c0.1,0,0.2,0.1,0.2,0.2l4.5,9.8c0.1,0.2,0,0.4-0.2,0.4H166
				c-0.2,0-0.3-0.1-0.4-0.3l-0.7-1.6h-4.4l-0.7,1.6c-0.1,0.1-0.2,0.3-0.4,0.3H158C157.8,125.6,157.7,125.4,157.8,125.2z
				 M164.1,122.1l-1.5-3.2h0l-1.4,3.2H164.1z"/>
			<path class="st0" d="M175,115.5c0-0.1,0.1-0.3,0.3-0.3h0.2c0.1,0,0.2,0,0.2,0.1l6,6.4h0v-6c0-0.1,0.1-0.3,0.3-0.3h1.3
				c0.1,0,0.3,0.1,0.3,0.3v9.8c0,0.1-0.1,0.3-0.3,0.3h-0.2c-0.1,0-0.2,0-0.2-0.1l-6-6.6h0v6.3c0,0.1-0.1,0.3-0.3,0.3h-1.3
				c-0.1,0-0.3-0.1-0.3-0.3V115.5z"/>
			<path class="st0" d="M200.5,125.2l4.5-9.8c0-0.1,0.1-0.2,0.2-0.2h0.1c0.1,0,0.2,0.1,0.2,0.2l4.5,9.8c0.1,0.2,0,0.4-0.2,0.4h-1.3
				c-0.2,0-0.3-0.1-0.4-0.3l-0.7-1.6h-4.4l-0.7,1.6c-0.1,0.1-0.2,0.3-0.4,0.3h-1.3C200.6,125.6,200.5,125.4,200.5,125.2z
				 M206.9,122.1l-1.5-3.2h0l-1.4,3.2H206.9z"/>
		</g>
		<g>
			<path class="st0" d="M51.1,221.8c0-0.1,0.1-0.3,0.3-0.3h1.4c0.1,0,0.3,0.1,0.3,0.3v9.7c0,0.1-0.1,0.3-0.3,0.3h-1.4
				c-0.1,0-0.3-0.1-0.3-0.3V221.8z"/>
			<path class="st0" d="M63.5,223.3h-2.2c-0.2,0-0.3-0.1-0.3-0.3v-1.2c0-0.1,0.1-0.3,0.3-0.3h6.4c0.2,0,0.3,0.1,0.3,0.3v1.2
				c0,0.1-0.1,0.3-0.3,0.3h-2.2v8.2c0,0.1-0.1,0.3-0.3,0.3h-1.4c-0.1,0-0.3-0.1-0.3-0.3V223.3z"/>
			<path class="st0" d="M76,221.4c0.7,0,1.3,0.6,1.3,1.7c0,1.1-0.5,1.7-1,2.4c-0.1,0.1-0.2,0.1-0.3,0l-0.4-0.3c-0.1-0.1,0-0.2,0-0.3
				c0.3-0.4,0.7-0.9,0.7-1.3c0-0.1,0-0.2,0-0.3c-0.1,0.1-0.3,0.1-0.5,0.1c-0.6,0-0.9-0.4-0.9-1C74.9,221.8,75.4,221.4,76,221.4z"/>
			<path class="st0" d="M84.8,230.7c-0.1-0.1-0.2-0.2-0.1-0.4l0.5-0.9c0.1-0.2,0.4-0.2,0.5-0.1c0.6,0.5,1.3,0.9,2.2,0.9
				c0.8,0,1.3-0.5,1.3-1.1c0-0.7-0.6-1.3-1.9-1.8c-1.4-0.6-2.7-1.4-2.7-3.2c0-1.3,1-2.8,3.3-2.8c1.5,0,2.6,0.8,2.9,1
				c0.1,0.1,0.2,0.3,0.1,0.5l-0.6,0.8c-0.1,0.2-0.3,0.3-0.5,0.2c-0.6-0.4-1.2-0.8-2-0.8c-0.8,0-1.3,0.5-1.3,1c0,0.7,0.5,1.2,1.7,1.6
				c1.4,0.6,3.1,1.4,3.1,3.3c0,1.5-1.3,2.9-3.4,2.9C86.2,231.9,85.2,231.1,84.8,230.7z"/>
			<path class="st0" d="M107.6,231.3l4.5-9.8c0-0.1,0.1-0.2,0.2-0.2h0.1c0.1,0,0.2,0.1,0.2,0.2l4.5,9.8c0.1,0.2,0,0.4-0.2,0.4h-1.3
				c-0.2,0-0.3-0.1-0.4-0.3l-0.7-1.6h-4.4l-0.7,1.6c-0.1,0.1-0.2,0.3-0.4,0.3h-1.3C107.6,231.7,107.5,231.5,107.6,231.3z
				 M113.9,228.2l-1.5-3.2h0l-1.4,3.2H113.9z"/>
			<path class="st0" d="M129.2,221.4c1.5,0,2.5,0.5,3.5,1.4c0.1,0.1,0.1,0.3,0,0.4l-0.9,0.9c-0.1,0.1-0.2,0.1-0.4,0
				c-0.6-0.5-1.4-0.9-2.3-0.9c-1.9,0-3.3,1.6-3.3,3.4c0,1.8,1.4,3.4,3.3,3.4c0.9,0,1.6-0.3,2.2-0.8c0.1-0.1,0.3-0.1,0.4,0l0.9,0.9
				c0.1,0.1,0.1,0.3,0,0.4c-1,1-2.3,1.4-3.6,1.4c-2.9,0-5.3-2.3-5.3-5.2C124,223.7,126.3,221.4,129.2,221.4z"/>
			<path class="st0" d="M142.5,223.3h-2.2c-0.2,0-0.3-0.1-0.3-0.3v-1.2c0-0.1,0.1-0.3,0.3-0.3h6.4c0.2,0,0.3,0.1,0.3,0.3v1.2
				c0,0.1-0.1,0.3-0.3,0.3h-2.2v8.2c0,0.1-0.1,0.3-0.3,0.3h-1.4c-0.1,0-0.3-0.1-0.3-0.3V223.3z"/>
			<path class="st0" d="M154.8,221.8c0-0.1,0.1-0.3,0.3-0.3h1.4c0.1,0,0.3,0.1,0.3,0.3v9.7c0,0.1-0.1,0.3-0.3,0.3h-1.4
				c-0.1,0-0.3-0.1-0.3-0.3V221.8z"/>
			<path class="st0" d="M165.5,221.6c0-0.1,0.1-0.3,0.3-0.3h0.2c0.1,0,0.2,0,0.2,0.1l6,6.4h0v-6c0-0.1,0.1-0.3,0.3-0.3h1.3
				c0.1,0,0.3,0.1,0.3,0.3v9.8c0,0.1-0.1,0.3-0.3,0.3h-0.2c-0.1,0-0.2,0-0.2-0.1l-6-6.6h0v6.3c0,0.1-0.1,0.3-0.3,0.3h-1.3
				c-0.1,0-0.3-0.1-0.3-0.3V221.6z"/>
			<path class="st0" d="M187.5,221.4c1.3,0,2.6,0.5,3.6,1.4c0.1,0.1,0.1,0.3,0,0.4l-0.9,0.9c-0.1,0.1-0.2,0.1-0.4,0
				c-0.6-0.6-1.4-0.8-2.2-0.8c-1.8,0-3.3,1.6-3.3,3.4c0,1.8,1.4,3.3,3.3,3.3c0.8,0,1.4-0.2,1.7-0.4v-1.2h-1.2
				c-0.2,0-0.3-0.1-0.3-0.3v-1.2c0-0.2,0.1-0.3,0.3-0.3h2.8c0.1,0,0.3,0.1,0.3,0.3v3.7c0,0.1-0.1,0.2-0.1,0.2c0,0-1.5,1-3.6,1
				c-2.9,0-5.2-2.3-5.2-5.2C182.3,223.7,184.6,221.4,187.5,221.4z"/>
			<path class="st0" d="M208.1,221.8c-0.1-0.2,0.1-0.4,0.3-0.4h1.3c0.1,0,0.2,0.1,0.3,0.2l1.5,5.8h0.1l2.3-6c0-0.1,0.1-0.2,0.2-0.2
				h0.3c0.1,0,0.2,0.1,0.2,0.2l2.3,6h0.1l1.5-5.8c0-0.1,0.1-0.2,0.3-0.2h1.3c0.2,0,0.3,0.1,0.3,0.4l-2.8,9.8c0,0.1-0.1,0.2-0.3,0.2
				h-0.2c-0.1,0-0.2-0.1-0.2-0.2l-2.6-6.6h-0.1l-2.6,6.6c0,0.1-0.1,0.2-0.2,0.2h-0.2c-0.1,0-0.2-0.1-0.3-0.2L208.1,221.8z"/>
			<path class="st0" d="M228.2,221.8c0-0.1,0.1-0.3,0.3-0.3h1.4c0.1,0,0.3,0.1,0.3,0.3v9.7c0,0.1-0.1,0.3-0.3,0.3h-1.4
				c-0.1,0-0.3-0.1-0.3-0.3V221.8z"/>
			<path class="st0" d="M240.5,223.3h-2.2c-0.2,0-0.3-0.1-0.3-0.3v-1.2c0-0.1,0.1-0.3,0.3-0.3h6.4c0.2,0,0.3,0.1,0.3,0.3v1.2
				c0,0.1-0.1,0.3-0.3,0.3h-2.2v8.2c0,0.1-0.1,0.3-0.3,0.3h-1.4c-0.1,0-0.3-0.1-0.3-0.3V223.3z"/>
			<path class="st0" d="M252.9,221.8c0-0.1,0.1-0.3,0.3-0.3h1.4c0.2,0,0.3,0.1,0.3,0.3v3.9h4.8v-3.9c0-0.1,0.1-0.3,0.3-0.3h1.3
				c0.1,0,0.3,0.1,0.3,0.3v9.7c0,0.1-0.1,0.3-0.3,0.3h-1.3c-0.2,0-0.3-0.1-0.3-0.3v-4h-4.8v4c0,0.1-0.1,0.3-0.3,0.3h-1.4
				c-0.1,0-0.3-0.1-0.3-0.3V221.8z"/>
		</g>
	</g>
</g>
</svg>
