<?xml version="1.0" encoding="utf-8"?>
<!-- Generator: Adobe Illustrator 25.4.1, SVG Export Plug-In . SVG Version: 6.00 Build 0)  -->
<svg version="1.1" id="Capa_1" xmlns="http://www.w3.org/2000/svg" xmlns:xlink="http://www.w3.org/1999/xlink" x="0px" y="0px"
	 viewBox="0 0 820 430" style="enable-background:new 0 0 820 430;" xml:space="preserve">
<style type="text/css">
	.st0{fill:#FFFFFF;}
	.st1{opacity:0.3;}
	.st2{opacity:0.15;}
</style>
<g>
	<g>
		<path class="st0" d="M6.4,113.9c-0.1-0.2,0.1-0.4,0.3-0.4H8c0.1,0,0.2,0.1,0.3,0.2l1.5,5.9h0.1l2.4-6.1c0-0.1,0.1-0.2,0.3-0.2h0.3
			c0.1,0,0.2,0.1,0.3,0.2l2.4,6.1h0.1l1.5-5.9c0-0.1,0.1-0.2,0.3-0.2h1.4c0.2,0,0.3,0.1,0.3,0.4l-2.8,10c0,0.1-0.1,0.2-0.3,0.2h-0.2
			c-0.1,0-0.2-0.1-0.3-0.2l-2.7-6.7h-0.1l-2.6,6.7c0,0.1-0.1,0.2-0.3,0.2H9.4c-0.1,0-0.2-0.1-0.3-0.2L6.4,113.9z"/>
		<path class="st0" d="M26.8,113.9c0-0.1,0.1-0.3,0.3-0.3h6c0.2,0,0.3,0.1,0.3,0.3v1.2c0,0.1-0.1,0.3-0.3,0.3h-4.4v2.4h3.7
			c0.1,0,0.3,0.1,0.3,0.3v1.2c0,0.2-0.1,0.3-0.3,0.3h-3.7v2.6h4.4c0.2,0,0.3,0.1,0.3,0.3v1.2c0,0.1-0.1,0.3-0.3,0.3h-6
			c-0.2,0-0.3-0.1-0.3-0.3V113.9z"/>
		<path class="st0" d="M50.5,113.9c0-0.1,0.1-0.3,0.3-0.3h6c0.2,0,0.3,0.1,0.3,0.3v1.2c0,0.1-0.1,0.3-0.3,0.3h-4.4v2.4h3.7
			c0.1,0,0.3,0.1,0.3,0.3v1.2c0,0.2-0.1,0.3-0.3,0.3h-3.7v2.6h4.4c0.2,0,0.3,0.1,0.3,0.3v1.2c0,0.1-0.1,0.3-0.3,0.3h-6
			c-0.2,0-0.3-0.1-0.3-0.3V113.9z"/>
		<path class="st0" d="M64.2,114c-0.1-0.2,0-0.4,0.3-0.4h1.5c0.1,0,0.2,0.1,0.3,0.2l2.9,6.4h0.1l2.9-6.4c0-0.1,0.1-0.2,0.3-0.2h1.5
			c0.2,0,0.3,0.2,0.3,0.4l-4.6,10c0,0.1-0.1,0.2-0.3,0.2H69c-0.1,0-0.2-0.1-0.3-0.2L64.2,114z"/>
		<path class="st0" d="M86.1,113.4c3,0,5.3,2.4,5.3,5.4s-2.4,5.3-5.3,5.3c-3,0-5.3-2.4-5.3-5.3S83.1,113.4,86.1,113.4z M86.1,122.2
			c1.9,0,3.4-1.5,3.4-3.4c0-1.9-1.5-3.4-3.4-3.4c-1.9,0-3.4,1.6-3.4,3.4C82.7,120.6,84.2,122.2,86.1,122.2z"/>
		<path class="st0" d="M99.7,113.9c0-0.1,0.1-0.3,0.3-0.3h1.4c0.1,0,0.3,0.1,0.3,0.3v8.3h3.8c0.2,0,0.3,0.1,0.3,0.3v1.2
			c0,0.1-0.1,0.3-0.3,0.3H100c-0.2,0-0.3-0.1-0.3-0.3V113.9z"/>
		<path class="st0" d="M111.1,114c-0.1-0.2,0-0.4,0.3-0.4h1.5c0.1,0,0.2,0.1,0.3,0.2l2.9,6.4h0.1l2.9-6.4c0-0.1,0.1-0.2,0.3-0.2h1.5
			c0.2,0,0.3,0.2,0.3,0.4l-4.6,10c0,0.1-0.1,0.2-0.3,0.2h-0.1c-0.1,0-0.2-0.1-0.3-0.2L111.1,114z"/>
		<path class="st0" d="M128.6,113.9c0-0.1,0.1-0.3,0.3-0.3h6c0.2,0,0.3,0.1,0.3,0.3v1.2c0,0.1-0.1,0.3-0.3,0.3h-4.4v2.4h3.7
			c0.1,0,0.3,0.1,0.3,0.3v1.2c0,0.2-0.1,0.3-0.3,0.3h-3.7v2.6h4.4c0.2,0,0.3,0.1,0.3,0.3v1.2c0,0.1-0.1,0.3-0.3,0.3h-6
			c-0.2,0-0.3-0.1-0.3-0.3V113.9z"/>
		<path class="st0" d="M143.5,113.9c0-0.1,0.1-0.3,0.3-0.3h3.5c2.9,0,5.2,2.3,5.2,5.2c0,2.9-2.3,5.2-5.2,5.2h-3.5
			c-0.1,0-0.3-0.1-0.3-0.3V113.9z M147.1,122.1c1.9,0,3.3-1.4,3.3-3.4c0-2-1.4-3.4-3.3-3.4h-1.7v6.8H147.1z"/>
	</g>
	<g>
		<path class="st0" d="M8.8,233c0-0.1,0.1-0.3,0.3-0.3h1.4c0.1,0,0.3,0.1,0.3,0.3v9.8c0,0.1-0.1,0.3-0.3,0.3H9.1
			c-0.1,0-0.3-0.1-0.3-0.3V233z"/>
		<path class="st0" d="M19.7,232.8c0-0.1,0.1-0.3,0.3-0.3h0.2c0.1,0,0.2,0,0.3,0.1l6,6.4h0V233c0-0.1,0.1-0.3,0.3-0.3h1.4
			c0.1,0,0.3,0.1,0.3,0.3v10c0,0.1-0.1,0.3-0.3,0.3h-0.2c-0.1,0-0.2,0-0.3-0.1l-6.1-6.7h0v6.4c0,0.1-0.1,0.3-0.3,0.3h-1.3
			c-0.1,0-0.3-0.1-0.3-0.3V232.8z"/>
		<path class="st0" d="M39,234.5h-2.3c-0.2,0-0.3-0.1-0.3-0.3V233c0-0.1,0.1-0.3,0.3-0.3h6.5c0.2,0,0.3,0.1,0.3,0.3v1.2
			c0,0.1-0.1,0.3-0.3,0.3h-2.3v8.3c0,0.1-0.1,0.3-0.3,0.3h-1.4c-0.1,0-0.3-0.1-0.3-0.3V234.5z"/>
		<path class="st0" d="M55.9,232.5c3,0,5.3,2.4,5.3,5.4c0,3-2.4,5.3-5.3,5.3s-5.3-2.4-5.3-5.3C50.6,234.9,53,232.5,55.9,232.5z
			 M55.9,241.3c1.9,0,3.4-1.5,3.4-3.4c0-1.9-1.5-3.4-3.4-3.4c-1.9,0-3.4,1.6-3.4,3.4C52.5,239.8,54.1,241.3,55.9,241.3z"/>
	</g>
	<g>
		<path class="st0" d="M478.2,430C478.2,430,478.2,430,478.2,430L478.2,430C478.2,430,478.2,430,478.2,430"/>
		<path class="st0" d="M413.2,136.2h-12.6c-1.1,0-2,0.9-2,2v12.1v15.2v15.2v15.2V208c0,1.1,0.9,2,2,2h12.6c1.1,0,2-0.9,2-2v-12.1
			v-15.2v-15.2v-15.2v-12.1C415.2,137.2,414.3,136.2,413.2,136.2"/>
		<path class="st0" d="M472.5,136.2h-46.8c-1.2,0-2,0.9-2,2v11.5c0,0.2,0.1,0.4,0.1,0.6c0.3,0.8,1,1.4,1.9,1.4h15.1v13.8v15.2v15.2
			V208c0,1.1,0.9,2,2,2h12.6c1.1,0,2-0.9,2-2v-12.1v-15.2v-15.2v-13.8h15.1c0.9,0,1.6-0.6,1.9-1.4c0.1-0.2,0.1-0.4,0.1-0.6v-11.5
			C474.5,137.2,473.7,136.2,472.5,136.2"/>
		<path class="st0" d="M497.8,136.2h-12.6c-1.1,0-2,0.9-2,2v12.1v15.2v15.2v15.2V208c0,1.1,0.9,2,2,2h12.6c1.1,0,2-0.9,2-2v-12.1
			v-15.2v-15.2v-15.2v-12.1C499.8,137.2,498.8,136.2,497.8,136.2"/>
		<path class="st0" d="M561.2,136.2h-43.6c-1.2,0-2,0.9-2,2v12.1v15.2v15.2v15.2V208c0,1.1,0.8,2,2,2h43.6c1.2,0,2-0.9,2-2v-11.5
			c0-0.2-0.1-0.4-0.1-0.6c-0.3-0.8-1-1.4-1.9-1.4H532v-13.8v-0.4h24c1.1,0,2-0.8,2-2v-11.5c0-0.5-0.2-0.9-0.5-1.3
			c-0.4-0.4-0.9-0.7-1.5-0.7h-24v-13.1h29.2c0.9,0,1.6-0.6,1.9-1.4c0.1-0.2,0.1-0.4,0.1-0.6v-11.5
			C563.2,137.2,562.4,136.2,561.2,136.2"/>
		<path class="st0" d="M100.8,151.1c5.2,0,9.9,1.6,14.2,5.4c0.7,0.7,1.9,0.7,2.6,0l5.9-6.1l2.3-2.4c0.8-0.8,0.8-2.1-0.1-2.9
			c-7.2-6.5-15-9.8-25.5-9.8c-12.5,0-23.5,6-30.4,15.2c-3.3,4.4-5.7,9.5-6.9,15.2c-0.5,2.5-0.8,5.1-0.8,7.7c0,2.6,0.3,5.1,0.7,7.5
			c1.1,5.6,3.5,10.8,6.8,15.2c6.9,9.2,18,15.2,30.5,15.2c0,0,0,0,0,0c0,0,0,0,0,0c9.4,0,18.4-3.3,25.6-10.2c0.7-0.7,0.8-2.1,0.1-2.8
			l-2-2.1l-6.2-6.6c-0.6-0.7-2-0.7-2.7-0.1c-3.8,3.3-8.3,5.1-14.1,5.1c-9.1,0-16.4-5.6-19.3-13.5c-0.9-2.5-1.4-5.1-1.4-7.9
			c0-2.5,0.4-5,1.2-7.3C84.1,157.2,91.5,151.1,100.8,151.1"/>
		<path class="st0" d="M235.2,167.8h-10.6v-2.3v-13.8h10.6c4.5,0,7.7,3.4,7.7,7.8c0,2.4-0.8,4.5-2.2,6
			C239.3,167,237.4,167.8,235.2,167.8 M259.1,159.5c0-3.2-0.6-6.3-1.8-9.2c-3.4-8.3-11.4-14.1-21.8-14.1h-25.4c-1.2,0-2,0.9-2,2
			v12.1v15.2v15.2v15.2V208c0,1.1,0.8,2,2,2h12.4c1.1,0,2-0.9,2-2v-12.1v-12.6h11.1c4,0,7.7-0.9,10.9-2.5c6-3,10.3-8.5,11.9-15.2
			C258.8,163.6,259.1,161.6,259.1,159.5"/>
		<path class="st0" d="M363,151.1c5.2,0,9.9,1.6,14.2,5.4c0.7,0.7,1.9,0.7,2.6,0l5.9-6.1l2.3-2.4c0.8-0.8,0.8-2.1-0.1-2.9
			c-7.2-6.5-15-9.8-25.5-9.8c-12.5,0-23.5,6-30.4,15.2c-3.3,4.4-5.7,9.5-6.9,15.2c-0.5,2.5-0.8,5.1-0.8,7.7c0,2.6,0.3,5.1,0.7,7.5
			c1.1,5.6,3.5,10.8,6.8,15.2c6.9,9.2,18,15.2,30.5,15.2c0,0,0,0,0,0c0,0,0,0,0,0c9.4,0,18.4-3.3,25.6-10.2c0.7-0.7,0.8-2.1,0.1-2.8
			l-2-2.1l-6.2-6.6c-0.6-0.7-2-0.7-2.7-0.1c-3.8,3.3-8.3,5.1-14.1,5.1c-9.1,0-16.4-5.6-19.3-13.5c-0.9-2.5-1.4-5.1-1.4-7.9
			c0-2.5,0.4-5,1.2-7.3C346.3,157.2,353.7,151.1,363,151.1"/>
		<path class="st0" d="M620.2,180.7c-3.5-7.9-11.9-11.8-18.9-15.2c-0.2-0.1-0.4-0.2-0.6-0.3c-7.4-3.6-11.5-6.3-11.5-9.8
			c0-2.1,1-4,3-5.1c0.9-0.5,2-0.7,3.4-0.7c1.5,0,3,0.3,4.5,0.7c4.1,1.2,8,3.7,9.7,5c2.1,1.3,3.9,0.4,4.6-0.7l2.8-4.2l2.6-3.9
			c0.4-0.7,0.6-2.6-0.6-3.4c-3.2-2.3-11.6-7.9-22.5-7.9c-13.2,0-21,7-23.5,15.2c-0.6,1.9-0.9,3.8-0.9,5.8c0,3.7,0.9,6.7,2.3,9.4
			c3.6,6.5,10.8,10.4,18.1,13.9c0.9,0.4,1.7,0.8,2.5,1.3c5.4,2.9,8.4,5.5,8.4,9.4c0,2.7-1.7,4.9-4.2,5.8c-0.9,0.3-1.9,0.5-3,0.5
			c-1.5,0-2.9-0.2-4.2-0.5c-4.7-1.1-8.4-3.7-10.7-5.3c-1.1-0.7-2.7-0.7-3.6,0.6l-2.6,4.6l-2.2,3.9c-0.7,1.4-0.4,2.3,0.4,3.2
			c2.4,2.4,10,8.1,23.7,8.1c0,0,0,0,0,0c0,0,0,0,0,0c12.3,0,20.7-6.9,23.7-15.2c0.8-2.2,1.2-4.4,1.2-6.6
			C621.9,185.9,621.3,183.1,620.2,180.7"/>
		<path class="st0" d="M165.3,167.3h0.1l6.2,13.4l1.8,4h-16l1.8-4L165.3,167.3z M195.4,195.9l-7.1-15.2l-7.1-15.2l-7.1-15.2l-6.5-14
			c-0.3-0.6-1.1-1.2-1.8-1.2h-1.1c-0.7,0-1.5,0.5-1.8,1.2l-6.5,14l-7.1,15.2l-7.1,15.2l-7.1,15.2l-5.3,11.4
			c-0.6,1.4,0.2,2.7,1.8,2.7h11.6c2.1,0,3.3-1.3,3.8-2.5l3.8-8.4h28.7l3.8,8.3c0.9,2,1.8,2.6,3.7,2.6h11.7c1.6,0,2.4-1.4,1.8-2.7
			L195.4,195.9z"/>
		<path class="st0" d="M289.4,167.3h0.1l6.2,13.4l1.8,4h-16l1.8-4L289.4,167.3z M319.5,195.9l-7.1-15.2l-7.1-15.2l-7.1-15.2l-6.5-14
			c-0.3-0.6-1.1-1.2-1.8-1.2H289c-0.7,0-1.5,0.5-1.8,1.2l-6.5,14l-7.1,15.2l-7.1,15.2l-7.1,15.2l-5.3,11.4c-0.6,1.4,0.2,2.7,1.8,2.7
			h11.6c2.1,0,3.3-1.3,3.8-2.5l3.8-8.4h28.7l3.8,8.3c0.9,2,1.8,2.6,3.7,2.6H323c1.6,0,2.4-1.4,1.8-2.7L319.5,195.9z"/>
		<path class="st0" d="M251.9,224.3h-46.8c-1.2,0-2,0.9-2,2v11.5c0,0.2,0.1,0.4,0.1,0.6c0.3,0.8,1,1.4,1.9,1.4h15.1v13.8v15.2V284
			v12.1c0,1.1,0.9,2,2,2h12.6c1.1,0,2-0.9,2-2V284v-15.2v-15.2v-13.8h15.1c0.9,0,1.6-0.6,1.9-1.4c0.1-0.2,0.1-0.4,0.1-0.6v-11.5
			C253.9,225.3,253.1,224.3,251.9,224.3"/>
		<path class="st0" d="M277.2,224.3h-12.6c-1.1,0-2,0.9-2,2v12.1v15.2v15.2V284v12.1c0,1.1,0.9,2,2,2h12.6c1.1,0,2-0.9,2-2V284
			v-15.2v-15.2v-15.2v-12.1C279.2,225.3,278.2,224.3,277.2,224.3"/>
		<path class="st0" d="M439.2,224.3h-12.6c-1.2,0-2,0.9-2,2v12.1v15.2v10.1h-0.1l-10.5-10.1l-15.8-15.2L384,224.9
			c-0.8-0.8-1.6-1.6-2.6-1.6h-1.6c-1.1,0-2,0.8-2,1.9l0,13.3l0,15.2l0,15.2l0,15.2l0,12.1c0,1.1,0.9,2,2,2h12.5c1.2,0,2-0.9,2-2V284
			v-15.2v-12h0.1l11.9,12l15.1,15.2l13.9,14c0.8,0.8,1.6,1.2,2.6,1.2c0,0,0,0,0,0h1.1c0,0,0,0,0,0c1.1,0,2-0.6,2-1.9V284v-15.2
			v-15.2v-15.2v-12.1C441.2,225.3,440.3,224.3,439.2,224.3"/>
		<path class="st0" d="M171.2,239.2c5.2,0,9.9,1.6,14.2,5.4c0.7,0.7,1.9,0.7,2.6,0l5.9-6.1l2.3-2.4c0.8-0.8,0.8-2.1-0.1-2.9
			c-7.2-6.5-15-9.8-25.5-9.8c-12.5,0-23.5,6-30.4,15.2c-3.3,4.4-5.7,9.5-6.9,15.2c-0.5,2.5-0.8,5.1-0.8,7.7c0,2.6,0.3,5.1,0.7,7.5
			c1.1,5.6,3.5,10.8,6.8,15.2c6.9,9.2,18,15.2,30.5,15.2c0,0,0,0,0,0c0,0,0,0,0,0c9.4,0,18.4-3.3,25.6-10.2c0.7-0.7,0.8-2.1,0.1-2.8
			l-2-2.1l-6.2-6.6c-0.6-0.7-2-0.7-2.7-0.1c-3.8,3.3-8.3,5.1-14.1,5.1c-9.1,0-16.4-5.6-19.3-13.5c-0.9-2.5-1.4-5.1-1.4-7.9
			c0-2.5,0.4-5,1.2-7.3C154.5,245.3,161.9,239.2,171.2,239.2"/>
		<path class="st0" d="M328.3,282.3c-8.9,0-16.5-5.6-19.5-13.5c-0.9-2.3-1.4-4.8-1.4-7.5c0-2.7,0.5-5.3,1.5-7.7
			c3.1-7.8,10.7-13.5,19.5-13.5c8.9,0,16.5,5.6,19.6,13.5c0.9,2.4,1.5,5,1.5,7.7c0,2.6-0.5,5.1-1.4,7.5
			C344.9,276.6,337.3,282.3,328.3,282.3 M358.7,238.5c-6.9-9.2-17.9-15.2-30.3-15.2s-23.4,6-30.2,15.2c-3.3,4.4-5.7,9.5-6.8,15.2
			c-0.5,2.5-0.8,5.1-0.8,7.7c0,2.6,0.3,5.1,0.7,7.5c1.1,5.6,3.5,10.8,6.7,15.2c6.9,9.2,17.8,15.2,30.3,15.2c0,0,0,0,0,0c0,0,0,0,0,0
			c12.5,0,23.5-5.9,30.4-15.2c3.3-4.4,5.7-9.5,6.8-15.2c0.5-2.4,0.7-4.9,0.7-7.5c0-2.6-0.3-5.2-0.8-7.7
			C364.4,248,362,242.9,358.7,238.5"/>
		<path class="st0" d="M501.3,268.8c-3.5-7.9-11.9-11.8-18.9-15.2c-0.2-0.1-0.4-0.2-0.6-0.3c-7.4-3.6-11.5-6.3-11.5-9.8
			c0-2.1,1-4,3-5.1c0.9-0.5,2-0.7,3.4-0.7c1.5,0,3,0.3,4.5,0.7c4.1,1.2,8,3.7,9.7,5c2.1,1.3,3.9,0.4,4.6-0.7l2.8-4.2l2.6-3.9
			c0.4-0.7,0.6-2.6-0.6-3.4c-3.2-2.3-11.6-7.9-22.5-7.9c-13.2,0-21,7-23.5,15.2c-0.6,1.9-0.9,3.8-0.9,5.8c0,3.7,0.9,6.7,2.3,9.4
			c3.6,6.5,10.8,10.4,18.1,13.9c0.9,0.4,1.7,0.8,2.5,1.3c5.4,2.9,8.4,5.5,8.4,9.4c0,2.7-1.7,4.9-4.2,5.8c-0.9,0.3-1.9,0.5-3,0.5
			c-1.5,0-2.9-0.2-4.2-0.5c-4.7-1.1-8.4-3.7-10.7-5.3c-1.1-0.7-2.7-0.7-3.6,0.6l-2.6,4.6l-2.2,3.9c-0.7,1.4-0.4,2.3,0.4,3.2
			c2.4,2.4,10,8.1,23.7,8.1c0,0,0,0,0,0c0,0,0,0,0,0c12.3,0,20.7-6.9,23.7-15.2c0.8-2.2,1.2-4.4,1.2-6.6
			C503.1,274,502.4,271.2,501.3,268.8"/>
		<path class="st0" d="M97.6,255.4h0.1l6.2,13.4l1.8,4h-16l1.8-4L97.6,255.4z M127.7,284l-7.1-15.2l-7.1-15.2l-7.1-15.2l-6.5-14
			c-0.3-0.6-1.1-1.2-1.8-1.2h-1.1c-0.7,0-1.5,0.5-1.8,1.2l-6.5,14l-7.1,15.2l-7.1,15.2L67.7,284l-5.3,11.4c-0.6,1.4,0.2,2.7,1.8,2.7
			h11.6c2.1,0,3.3-1.3,3.8-2.5l3.8-8.4h28.7l3.8,8.3c0.9,2,1.8,2.6,3.7,2.6h11.7c1.6,0,2.4-1.4,1.8-2.7L127.7,284z"/>
		<g class="st1">
			<g>
				<path class="st0" d="M220.2,329.8V345v12.1c0,1.1,0.9,2,2,2h12.6c1.1,0,2-0.9,2-2V345v-15.2v-15.2h-16.6V329.8z"/>
				<path class="st0" d="M347.9,314.6c0.9,2.4,1.5,5,1.5,7.7c0,2.6-0.5,5.1-1.4,7.5c-3.1,7.8-10.7,13.5-19.6,13.5
					c-8.9,0-16.5-5.6-19.5-13.5c-0.9-2.3-1.4-4.8-1.4-7.5c0-2.7,0.5-5.3,1.5-7.7h-17.6c-0.5,2.5-0.8,5.1-0.8,7.7
					c0,2.6,0.3,5.1,0.7,7.5c1.1,5.6,3.5,10.8,6.7,15.2c6.9,9.2,17.8,15.2,30.3,15.2c0,0,0,0,0,0c0,0,0,0,0,0
					c12.5,0,23.5-5.9,30.4-15.2c3.3-4.4,5.7-9.5,6.8-15.2c0.5-2.4,0.7-4.9,0.7-7.5c0-2.6-0.3-5.2-0.8-7.7H347.9z"/>
				<path class="st0" d="M424.6,324.7h-0.1l-10.5-10.1h-36.1l0,15.2l0,15.2l0,12.1c0,1.1,0.9,2,2,2h12.5c1.2,0,2-0.9,2-2V345v-15.2
					v-12h0.1l11.9,12l15.1,15.2l13.9,14c0.8,0.8,1.6,1.2,2.6,1.2c0,0,0,0,0,0h1.1c0,0,0,0,0,0c1.1,0,2-0.6,2-1.9V345v-15.2v-15.2
					h-16.6V324.7z"/>
				<path class="st0" d="M501.3,329.8c-3.5-7.9-11.9-11.8-18.9-15.2h-26.6c3.6,6.5,10.8,10.4,18.1,13.9c0.9,0.4,1.7,0.8,2.5,1.3
					c5.4,2.9,8.4,5.5,8.4,9.4c0,2.7-1.7,4.9-4.2,5.8c-0.9,0.3-1.9,0.5-3,0.5c-1.5,0-2.9-0.2-4.2-0.5c-4.7-1.1-8.4-3.7-10.7-5.3
					c-1.1-0.7-2.7-0.7-3.6,0.6l-2.6,4.6l-2.2,3.9c-0.7,1.4-0.4,2.3,0.4,3.2c2.4,2.4,10,8.1,23.7,8.1c0,0,0,0,0,0c0,0,0,0,0,0
					c12.3,0,20.7-6.9,23.7-15.2c0.8-2.2,1.2-4.4,1.2-6.6C503.1,335,502.4,332.2,501.3,329.8"/>
				<path class="st0" d="M97.6,316.4h0.1l6.2,13.4l1.8,4h-16l1.8-4L97.6,316.4z M127.7,345l-7.1-15.2l-7.1-15.2H81.8l-7.1,15.2
					L67.7,345l-5.3,11.4c-0.6,1.4,0.2,2.7,1.8,2.7h11.6c2.1,0,3.3-1.3,3.8-2.5l3.8-8.4h28.7l3.8,8.3c0.9,2,1.8,2.6,3.7,2.6h11.7
					c1.6,0,2.4-1.4,1.8-2.7L127.7,345z"/>
				<path class="st0" d="M194.4,345l-6.2-6.6c-0.6-0.7-2-0.7-2.7-0.1c-3.8,3.3-8.3,5.1-14.1,5.1c-9.1,0-16.4-5.6-19.3-13.5
					c-0.9-2.5-1.4-5.1-1.4-7.9c0-2.5,0.4-5,1.2-7.3h-18.3c-0.5,2.5-0.8,5.1-0.8,7.7c0,2.6,0.3,5.1,0.7,7.5
					c1.1,5.6,3.5,10.8,6.8,15.2c6.9,9.2,18,15.2,30.5,15.2c0,0,0,0,0,0c0,0,0,0,0,0c9.4,0,18.4-3.3,25.6-10.2
					c0.7-0.7,0.8-2.1,0.1-2.8L194.4,345z"/>
			</g>
		</g>
		<g class="st2">
			<g>
				<path class="st0" d="M262.5,386.9V399c0,1.1,0.9,2,2,2h12.6c1.1,0,2-0.9,2-2v-12.1v-15.2h-16.6V386.9z"/>
				<path class="st0" d="M328.3,385.2c-8.9,0-16.5-5.6-19.5-13.5h-17.5c1.1,5.6,3.5,10.8,6.7,15.2c6.9,9.2,17.8,15.2,30.3,15.2
					c0,0,0,0,0,0s0,0,0,0c12.5,0,23.5-5.9,30.4-15.2c3.3-4.4,5.7-9.5,6.8-15.2H348C344.9,379.5,337.3,385.2,328.3,385.2"/>
				<path class="st0" d="M377.9,386.9l0,12.1c0,1.1,0.9,2,2,2h12.5c1.2,0,2-0.9,2-2v-12.1v-15.2h-16.6L377.9,386.9z"/>
				<path class="st0" d="M127.7,386.9l-7.1-15.2h-16.8l1.8,4h-16l1.8-4H74.8l-7.1,15.2l-5.3,11.4c-0.6,1.4,0.2,2.7,1.8,2.7h11.6
					c2.1,0,3.3-1.3,3.8-2.5l3.8-8.4h28.7l3.8,8.3c0.9,2,1.8,2.6,3.7,2.6h11.7c1.6,0,2.4-1.4,1.8-2.7L127.7,386.9z"/>
				<path class="st0" d="M194.4,386.9l-6.2-6.6c-0.6-0.7-2-0.7-2.7-0.1c-3.8,3.3-8.3,5.1-14.1,5.1c-9.1,0-16.4-5.6-19.3-13.5h-18.6
					c1.1,5.6,3.5,10.8,6.8,15.2c6.9,9.2,18,15.2,30.5,15.2c0,0,0,0,0,0c0,0,0,0,0,0c9.4,0,18.4-3.3,25.6-10.2
					c0.7-0.7,0.8-2.1,0.1-2.8L194.4,386.9z"/>
			</g>
		</g>
		<g class="st2">
			<g>
				<polyline class="st0" points="328.3,430 328.4,430 328.3,430 328.3,430 				"/>
				<polyline class="st0" points="438.2,430 439.2,430 439.2,430 438.2,430 438.2,430 				"/>
				<path class="st0" d="M62.4,426.2c-0.6,1.4,0.2,2.7,1.8,2.7h11.6c2.1,0,3.3-1.3,3.8-2.5l3.8-8.4h28.7l3.8,8.3
					c0.9,2,1.8,2.6,3.7,2.6h11.7c1.6,0,2.4-1.4,1.8-2.7l-5.3-11.4h-60L62.4,426.2z"/>
				<path class="st0" d="M220.2,426.9c0,1.1,0.9,2,2,2h12.6c1.1,0,2-0.9,2-2v-12.1h-16.6V426.9z"/>
				<path class="st0" d="M262.5,426.9c0,1.1,0.9,2,2,2h12.6c1.1,0,2-0.9,2-2v-12.1h-16.6V426.9z"/>
				<path class="st0" d="M441.2,428.1v-13.3h-19.6l13.9,14c0.8,0.8,1.6,1.2,2.6,1.2h1.1C440.3,430,441.2,429.4,441.2,428.1"/>
				<path class="st0" d="M377.9,426.9c0,1.1,0.9,2,2,2h12.5c1.2,0,2-0.9,2-2v-12.1h-16.6L377.9,426.9z"/>
			</g>
		</g>
		<g class="st1">
			<g>
				<path class="st0" d="M100.3,75.5c-12.5,0-23.5,6-30.4,15.2c-3.3,4.4-5.7,9.5-6.9,15.2c-0.5,2.5-0.8,5.1-0.8,7.7
					c0,2.6,0.3,5.1,0.7,7.5h18.6c-0.9-2.5-1.4-5.1-1.4-7.9c0-2.5,0.4-5,1.2-7.3c2.8-8.3,10.1-14.4,19.5-14.4c5.2,0,9.9,1.6,14.2,5.4
					c0.7,0.7,1.9,0.7,2.6,0l5.9-6.1l2.3-2.4c0.8-0.8,0.8-2.1-0.1-2.9C118.6,78.7,110.8,75.5,100.3,75.5"/>
				<path class="st0" d="M235.2,108.1h-10.6v-2.3V92h10.6c4.5,0,7.7,3.4,7.7,7.8c0,2.4-0.8,4.5-2.2,6
					C239.3,107.2,237.4,108.1,235.2,108.1 M235.5,76.5h-25.4c-1.2,0-2,0.9-2,2v12.1v15.2V121h38.4c6-3,10.3-8.5,11.9-15.2
					c0.5-1.9,0.7-3.9,0.7-6c0-3.2-0.6-6.3-1.8-9.2C253.9,82.4,245.9,76.5,235.5,76.5"/>
				<path class="st0" d="M362.5,75.5c-12.5,0-23.5,6-30.4,15.2c-3.3,4.4-5.7,9.5-6.9,15.2c-0.5,2.5-0.8,5.1-0.8,7.7
					c0,2.6,0.3,5.1,0.7,7.5h18.6c-0.9-2.5-1.4-5.1-1.4-7.9c0-2.5,0.4-5,1.2-7.3c2.8-8.3,10.1-14.4,19.5-14.4c5.2,0,9.9,1.6,14.2,5.4
					c0.7,0.7,1.9,0.7,2.6,0l5.9-6.1l2.3-2.4c0.8-0.8,0.8-2.1-0.1-2.9C380.8,78.7,373,75.5,362.5,75.5"/>
				<path class="st0" d="M413.2,76.5h-12.6c-1.1,0-2,0.9-2,2v12.1v15.2V121h16.6v-15.2V90.6V78.5C415.2,77.5,414.3,76.5,413.2,76.5"
					/>
				<path class="st0" d="M472.5,76.5h-46.8c-1.2,0-2,0.9-2,2V90c0,0.2,0.1,0.4,0.1,0.6c0.3,0.8,1,1.4,1.9,1.4h15.1v13.8V121h16.6
					v-15.2V92h15.1c0.9,0,1.6-0.6,1.9-1.4c0.1-0.2,0.1-0.4,0.1-0.6V78.5C474.5,77.5,473.7,76.5,472.5,76.5"/>
				<path class="st0" d="M497.8,76.5h-12.6c-1.1,0-2,0.9-2,2v12.1v15.2V121h16.6v-15.2V90.6V78.5C499.8,77.5,498.8,76.5,497.8,76.5"
					/>
				<path class="st0" d="M561.2,76.5h-43.6c-1.2,0-2,0.9-2,2v12.1v15.2V121H532v-0.4h24c1.1,0,2-0.8,2-2v-11.5
					c0-0.5-0.2-0.9-0.5-1.3c-0.4-0.4-0.9-0.7-1.5-0.7h-24V92h29.2c0.9,0,1.6-0.6,1.9-1.4c0.1-0.2,0.1-0.4,0.1-0.6V78.5
					C563.2,77.5,562.4,76.5,561.2,76.5"/>
				<path class="st0" d="M174.2,90.6l-6.5-14c-0.3-0.6-1.1-1.2-1.8-1.2h-1.1c-0.7,0-1.5,0.5-1.8,1.2l-6.5,14l-7.1,15.2l-7.1,15.2
					h16.8l6.1-13.4h0.1l6.2,13.4h16.8l-7.1-15.2L174.2,90.6z"/>
				<path class="st0" d="M298.4,90.6l-6.5-14c-0.3-0.6-1.1-1.2-1.8-1.2H289c-0.7,0-1.5,0.5-1.8,1.2l-6.5,14l-7.1,15.2l-7.1,15.2
					h16.8l6.1-13.4h0.1l6.2,13.4h16.8l-7.1-15.2L298.4,90.6z"/>
				<path class="st0" d="M601.3,105.8c-0.2-0.1-0.4-0.2-0.6-0.3c-7.4-3.6-11.5-6.3-11.5-9.8c0-2.1,1-4,3-5.1c0.9-0.5,2-0.7,3.4-0.7
					c1.5,0,3,0.3,4.5,0.7c4.1,1.2,8,3.7,9.7,5c2.1,1.3,3.9,0.4,4.6-0.7l2.8-4.2l2.6-3.9c0.4-0.7,0.6-2.6-0.6-3.4
					c-3.2-2.3-11.6-7.9-22.5-7.9c-13.2,0-21,7-23.5,15.2c-0.6,1.9-0.9,3.8-0.9,5.8c0,3.7,0.9,6.7,2.3,9.4
					c3.6,6.5,10.8,10.4,18.1,13.9c0.9,0.4,1.7,0.8,2.5,1.3h24.9C616.6,113.1,608.3,109.2,601.3,105.8"/>
			</g>
		</g>
		<g class="st2">
			<g>
				<path class="st0" d="M100.3,33.5c-12.5,0-23.5,6-30.4,15.2c-3.3,4.4-5.7,9.5-6.9,15.2h18.3c2.8-8.3,10.1-14.4,19.5-14.4
					c5.2,0,9.9,1.6,14.2,5.4c0.7,0.7,1.9,0.7,2.6,0l5.9-6.1l2.3-2.4c0.8-0.8,0.8-2.1-0.1-2.9C118.6,36.8,110.8,33.5,100.3,33.5"/>
				<path class="st0" d="M235.5,34.6h-25.4c-1.2,0-2,0.9-2,2v12.1v15.2h16.4V50.1h10.6c4.5,0,7.7,3.4,7.7,7.8c0,2.4-0.8,4.5-2.2,6
					h17.7c0.5-1.9,0.7-3.9,0.7-6c0-3.2-0.6-6.3-1.8-9.2C253.9,40.5,245.9,34.6,235.5,34.6"/>
				<path class="st0" d="M291.8,34.7c-0.3-0.6-1.1-1.2-1.8-1.2H289c-0.7,0-1.5,0.5-1.8,1.2l-6.5,14l-7.1,15.2h31.8l-7.1-15.2
					L291.8,34.7z"/>
				<path class="st0" d="M362.5,33.5c-12.5,0-23.5,6-30.4,15.2c-3.3,4.4-5.7,9.5-6.9,15.2h18.3c2.8-8.3,10.1-14.4,19.5-14.4
					c5.2,0,9.9,1.6,14.2,5.4c0.7,0.7,1.9,0.7,2.6,0l5.9-6.1l2.3-2.4c0.8-0.8,0.8-2.1-0.1-2.9C380.8,36.8,373,33.5,362.5,33.5"/>
				<path class="st0" d="M413.2,34.6h-12.6c-1.1,0-2,0.9-2,2v12.1v15.2h16.6V48.7V36.6C415.2,35.5,414.3,34.6,413.2,34.6"/>
				<path class="st0" d="M472.5,34.6h-46.8c-1.2,0-2,0.9-2,2v11.5c0,0.2,0.1,0.4,0.1,0.6c0.3,0.8,1,1.4,1.9,1.4h15.1v13.8h16.6V50.1
					h15.1c0.9,0,1.6-0.6,1.9-1.4c0.1-0.2,0.1-0.4,0.1-0.6V36.6C474.5,35.5,473.7,34.6,472.5,34.6"/>
				<path class="st0" d="M497.8,34.6h-12.6c-1.1,0-2,0.9-2,2v12.1v15.2h16.6V48.7V36.6C499.8,35.5,498.8,34.6,497.8,34.6"/>
				<path class="st0" d="M561.2,34.6h-43.6c-1.2,0-2,0.9-2,2v12.1v15.2h41.9c-0.4-0.4-0.9-0.7-1.5-0.7h-24V50.1h29.2
					c0.9,0,1.6-0.6,1.9-1.4c0.1-0.2,0.1-0.4,0.1-0.6V36.6C563.2,35.5,562.4,34.6,561.2,34.6"/>
			</g>
		</g>
		<g class="st2">
			<g>
				<path class="st0" d="M563.2,14.5V3.1c0-1.1-0.8-2-2-2h-43.6c-1.2,0-2,0.9-2,2v12.1h47.5C563.1,15,563.2,14.8,563.2,14.5
					 M415.2,3.1c0-1.1-0.9-2-2-2h-12.6c-1.1,0-2,0.9-2,2v12.1h16.6V3.1z M388.1,12.7c0.8-0.8,0.8-2.1-0.1-2.9
					C380.8,3.3,373,0,362.5,0C350,0,339,6,332.1,15.2h53.7L388.1,12.7z M235.5,1.1h-25.4c-1.2,0-2,0.9-2,2v12.1h49.2
					C253.9,6.9,245.9,1.1,235.5,1.1 M167.7,1.2c-0.3-0.6-1.1-1.2-1.8-1.2h-1.1c-0.7,0-1.5,0.5-1.8,1.2l-6.5,14h17.7L167.7,1.2z"/>
			</g>
		</g>
	</g>
</g>
</svg>
