<?xml version="1.0" encoding="utf-8"?>
<!-- Generator: Adobe Illustrator 25.4.1, SVG Export Plug-In . SVG Version: 6.00 Build 0)  -->
<svg version="1.1" id="Capa_1" xmlns="http://www.w3.org/2000/svg" xmlns:xlink="http://www.w3.org/1999/xlink" x="0px" y="0px"
	 viewBox="0 0 820 430" style="enable-background:new 0 0 820 430;" xml:space="preserve">
<style type="text/css">
	.st0{fill:#FFFFFF;}
	.st1{opacity:0.3;}
	.st2{opacity:0.15;}
	.st3{opacity:0.2;}
</style>
<g>
	<g>
		<path class="st0" d="M112.9,224.5H69.3c-1.2,0-2,0.9-2,2v12.1v15.2V269v15.2v12.1c0,1.1,0.8,2,2,2h43.6c1.2,0,2-0.9,2-2v-11.5
			c0-0.2-0.1-0.4-0.1-0.6c-0.3-0.8-1-1.4-1.9-1.4H83.8V269v-0.4h24c1.1,0,2-0.8,2-2v-11.5c0-0.5-0.2-0.9-0.5-1.3
			c-0.4-0.4-0.9-0.7-1.5-0.7h-24V240h29.2c0.9,0,1.6-0.6,1.9-1.4c0.1-0.2,0.1-0.4,0.1-0.6v-11.5
			C114.9,225.4,114.1,224.5,112.9,224.5"/>
		<path class="st0" d="M221.3,256.1h-10.6v-2.3V240h10.6c4.5,0,7.7,3.4,7.7,7.8c0,2.4-0.8,4.5-2.2,6
			C225.4,255.2,223.6,256.1,221.3,256.1 M221.6,224.5h-25.4c-1.2,0-2,0.9-2,2v12.1v15.2V269v15.2v12.1c0,1.1,0.8,2,2,2h12.4
			c1.1,0,2-0.9,2-2v-12.1v-12.6h11.1c4,0,7.7-0.9,10.9-2.5c6-3,10.3-8.5,11.9-15.2c0.5-1.9,0.7-3.9,0.7-6c0-3.2-0.6-6.3-1.8-9.2
			C240,230.4,232,224.5,221.6,224.5"/>
		<path class="st0" d="M299.6,224.5H256c-1.2,0-2,0.9-2,2v12.1v15.2V269v15.2v12.1c0,1.1,0.8,2,2,2h43.6c1.2,0,2-0.9,2-2v-11.5
			c0-0.2-0.1-0.4-0.1-0.6c-0.3-0.8-1-1.4-1.9-1.4h-29.2V269v-0.4h24c1.1,0,2-0.8,2-2v-11.5c0-0.5-0.2-0.9-0.5-1.3
			c-0.4-0.4-0.9-0.7-1.5-0.7h-24V240h29.2c0.9,0,1.6-0.6,1.9-1.4c0.1-0.2,0.1-0.4,0.1-0.6v-11.5
			C301.6,225.4,300.7,224.5,299.6,224.5"/>
		<path class="st0" d="M398.4,224.5h-12.6c-1.1,0-2,0.9-2,2v12.1v15.2V269v15.2v12.1c0,1.1,0.9,2,2,2h12.6c1.1,0,2-0.9,2-2v-12.1
			V269v-15.2v-15.2v-12.1C400.4,225.4,399.5,224.5,398.4,224.5"/>
		<path class="st0" d="M461.9,224.5h-43.6c-1.2,0-2,0.9-2,2v12.1v15.2V269v15.2v12.1c0,1.1,0.8,2,2,2h43.6c1.2,0,2-0.9,2-2v-11.5
			c0-0.2-0.1-0.4-0.1-0.6c-0.3-0.8-1-1.4-1.9-1.4h-29.2V269v-0.4h24c1.1,0,2-0.8,2-2v-11.5c0-0.5-0.2-0.9-0.5-1.3
			c-0.4-0.4-0.9-0.7-1.5-0.7h-24V240h29.2c0.9,0,1.6-0.6,1.9-1.4c0.1-0.2,0.1-0.4,0.1-0.6v-11.5C463.9,225.4,463,224.5,461.9,224.5"
			/>
		<path class="st0" d="M538.4,224.5h-12.6c-1.2,0-2,0.9-2,2v12.1v15.2v10.1h-0.1l-10.5-10.1l-15.8-15.2L483.2,225
			c-0.8-0.8-1.6-1.6-2.6-1.6H479c-1.1,0-2,0.8-2,1.9l0,13.3l0,15.2l0,15.2l0,15.2l0,12.1c0,1.1,0.9,2,2,2h12.5c1.2,0,2-0.9,2-2
			v-12.1V269v-12h0.1l11.9,12l15.1,15.2l13.9,14c0.8,0.8,1.6,1.2,2.6,1.2c0,0,0,0,0,0h1.1c0,0,0,0,0,0c1.1,0,2-0.6,2-1.9v-13.3V269
			v-15.2v-15.2v-12.1C540.4,225.4,539.5,224.5,538.4,224.5"/>
		<path class="st0" d="M590.5,239.4c5.2,0,9.9,1.6,14.2,5.4c0.7,0.7,1.9,0.7,2.6,0l5.9-6.1l2.3-2.4c0.8-0.8,0.8-2.1-0.1-3
			c-7.2-6.5-15-9.8-25.5-9.8c-12.5,0-23.5,6-30.4,15.2c-3.3,4.4-5.7,9.5-6.9,15.2c-0.5,2.5-0.8,5.1-0.8,7.7c0,2.6,0.3,5.1,0.7,7.5
			c1.1,5.6,3.5,10.8,6.8,15.2c6.9,9.2,18,15.2,30.5,15.2c0,0,0,0,0,0c0,0,0,0,0,0c9.4,0,18.4-3.3,25.6-10.2c0.7-0.7,0.8-2.1,0.1-2.8
			l-2-2.1l-6.2-6.6c-0.6-0.7-2-0.7-2.7-0.1c-3.8,3.3-8.3,5.1-14.1,5.1c-9.1,0-16.4-5.6-19.3-13.5c-0.9-2.5-1.4-5.1-1.4-7.9
			c0-2.5,0.4-5,1.2-7.3C573.8,245.5,581.2,239.4,590.5,239.4"/>
		<path class="st0" d="M671.7,240c0.9,0,1.6-0.6,1.9-1.4c0.1-0.2,0.1-0.4,0.1-0.6v-11.5c0-1.1-0.8-2-2-2h-43.6c-1.2,0-2,0.9-2,2
			v12.1v15.2V269v15.2v12.1c0,1.1,0.8,2,2,2h43.6c1.2,0,2-0.9,2-2v-11.5c0-0.2-0.1-0.4-0.1-0.6c-0.3-0.8-1-1.4-1.9-1.4h-29.2V269
			v-0.4h24c1.1,0,2-0.8,2-2v-11.5c0-0.5-0.2-0.9-0.5-1.3c-0.4-0.4-0.9-0.7-1.5-0.7h-24V240H671.7z"/>
		<path class="st0" d="M331.5,239.6h15.6c4.3,0,8,3.1,8,8c0,2.6-1,4.7-2.6,6.2c-1.4,1.4-3.4,2.2-5.5,2.2h-15.6v-2.2V239.6z
			 M370.4,253.8c0.6-2.1,1-4.2,1-6.5c0-3.1-0.6-6-1.6-8.6c-3.3-8.3-11.2-14.1-21.3-14.1H317c-1.2,0-2,0.9-2,2v12.1v15.2V269v15.2
			v12.1c0,1.1,0.8,2,2,2h12.5c1.1,0,2-0.9,2-2v-12.1v-14.7h7.3l7.4,14.7l6.6,13.2c0.2,0.4,0.8,0.9,1.7,0.9h14c1.8,0,2.5-1.7,1.8-3.1
			l-6-11.1l-8.2-15.2l-0.3-0.5C363.3,265.6,368.4,260.4,370.4,253.8"/>
		<path class="st0" d="M178.6,284.1L169,269l-5.4-8.5l4.3-6.6l9.8-15.2l7.2-11.2c0.9-1.4,0-3-1.8-3h-15.4c-0.7,0-1.5,0.5-1.7,0.9
			l-8.3,13.2l-4,6.4h-0.1l-4-6.4l-8.1-13.2c-0.3-0.4-0.9-0.9-1.7-0.9h-15.4c-1.8,0-2.6,1.6-1.8,3l7.2,11.2l9.8,15.2l4.3,6.6
			l-5.4,8.5l-9.6,15.2l-7.1,11.2c-0.9,1.4,0,3,1.8,3h14.6c0.8,0,1.5-0.5,1.8-0.9l8.3-13.2l5.1-8.1h0.2l5.3,8.1l8.5,13.2
			c0.3,0.5,1.2,0.9,1.8,0.9H184c1.7,0,2.6-1.5,1.7-3L178.6,284.1z"/>
		<path class="st0" d="M174.3,136.4h-43.6c-1.2,0-2,0.9-2,2v12.1v15.2v15.2V196v12.1c0,1.1,0.8,2,2,2h43.6c1.2,0,2-0.9,2-2v-11.5
			c0-0.2-0.1-0.4-0.1-0.6c-0.3-0.8-1-1.4-1.9-1.4h-29.2v-13.8v-0.4h24c1.1,0,2-0.8,2-2v-11.5c0-0.5-0.2-0.9-0.5-1.3
			c-0.4-0.4-0.9-0.7-1.5-0.7h-24v-13.1h29.2c0.9,0,1.6-0.6,1.9-1.4c0.1-0.2,0.1-0.4,0.1-0.6v-11.5
			C176.3,137.3,175.4,136.4,174.3,136.4"/>
		<path class="st0" d="M317.6,136.4h-14c-0.8,0-1.6,0.6-1.8,1.2l-5.9,13l-6.9,15.2l-4.7,10.3h-0.6l-4.7-10.3l-6.9-15.2l-5.9-13
			c-0.2-0.5-0.9-1.2-1.8-1.2h-14c-1.6,0-2.4,1.4-1.8,2.7l5.3,11.4l7,15.2l7,15.2l7,15.2l6.5,14c0.3,0.6,0.9,1.2,1.8,1.2c0,0,0,0,0,0
			h1.1c0,0,0,0,0,0c0.8,0,1.5-0.5,1.8-1.2l6.5-14l7.1-15.2l7.1-15.2l7.1-15.2l5.3-11.4C320,137.8,319.1,136.4,317.6,136.4"/>
		<path class="st0" d="M341.4,136.4h-12.6c-1.1,0-2,0.9-2,2v12.1v15.2v15.2V196v12.1c0,1.1,0.9,2,2,2h12.6c1.1,0,2-0.9,2-2V196
			v-15.2v-15.2v-15.2v-12.1C343.4,137.3,342.5,136.4,341.4,136.4"/>
		<path class="st0" d="M393.3,151.2c5.2,0,9.9,1.6,14.2,5.4c0.7,0.7,1.9,0.7,2.6,0l5.9-6.1l2.3-2.4c0.8-0.8,0.8-2.1-0.1-3
			c-7.2-6.5-15-9.8-25.5-9.8c-12.5,0-23.5,6-30.4,15.2c-3.3,4.4-5.7,9.5-6.9,15.2c-0.5,2.5-0.8,5.1-0.8,7.7c0,2.6,0.3,5.1,0.7,7.5
			c1.1,5.6,3.5,10.8,6.8,15.2c6.9,9.2,18,15.2,30.5,15.2c0,0,0,0,0,0c0,0,0,0,0,0c9.4,0,18.4-3.3,25.6-10.2c0.7-0.7,0.8-2.1,0.1-2.8
			l-2-2.1l-6.2-6.6c-0.6-0.7-2-0.7-2.7-0.1c-3.8,3.3-8.3,5.1-14.1,5.1c-9.1,0-16.4-5.6-19.3-13.5c-0.9-2.5-1.4-5.1-1.4-7.9
			c0-2.5,0.4-5,1.2-7.3C376.6,157.4,384,151.2,393.3,151.2"/>
		<path class="st0" d="M474.5,151.9c0.9,0,1.6-0.6,1.9-1.4c0.1-0.2,0.1-0.4,0.1-0.6v-11.5c0-1.1-0.8-2-2-2h-43.6c-1.2,0-2,0.9-2,2
			v12.1v15.2v15.2V196v12.1c0,1.1,0.8,2,2,2h43.6c1.2,0,2-0.9,2-2v-11.5c0-0.2-0.1-0.4-0.1-0.6c-0.3-0.8-1-1.4-1.9-1.4h-29.2v-13.8
			v-0.4h24c1.1,0,2-0.8,2-2v-11.5c0-0.5-0.2-0.9-0.5-1.3c-0.4-0.4-0.9-0.7-1.5-0.7h-24v-13.1H474.5z"/>
		<path class="st0" d="M96.3,165.7c-0.2-0.1-0.4-0.2-0.6-0.3c-7.4-3.6-11.5-6.3-11.5-9.8c0-2.1,1-4,3-5.1c0.9-0.5,2-0.7,3.4-0.7
			c1.5,0,3,0.3,4.5,0.7c4.1,1.2,8,3.7,9.7,5c2.1,1.3,3.9,0.4,4.6-0.7l2.8-4.2l2.6-3.9c0.4-0.7,0.6-2.6-0.6-3.4
			c-3.2-2.3-11.6-7.9-22.5-7.9c-13.2,0-21,7-23.5,15.2c-0.6,1.9-0.9,3.8-0.9,5.8c0,3.7,0.9,6.7,2.3,9.4c3.6,6.5,10.8,10.4,18.1,13.9
			c0.9,0.4,1.7,0.8,2.5,1.3c5.4,2.9,8.4,5.5,8.4,9.4c0,2.7-1.7,4.9-4.2,5.8c-0.9,0.3-1.9,0.5-3,0.5c-1.5,0-2.9-0.2-4.2-0.5
			c-4.7-1.1-8.4-3.7-10.7-5.3c-1.1-0.7-2.7-0.7-3.6,0.6l-2.6,4.6l-2.2,3.9c-0.7,1.4-0.4,2.3,0.4,3.2c2.4,2.4,10,8.1,23.7,8.1
			c0,0,0,0,0,0c0,0,0,0,0,0c12.3,0,20.7-6.9,23.7-15.2c0.8-2.2,1.2-4.4,1.2-6.6c0-3.3-0.7-6.1-1.8-8.5
			C111.6,173,103.3,169.1,96.3,165.7"/>
		<path class="st0" d="M206.2,151.5h15.6c4.3,0,8,3.1,8,8c0,2.6-1,4.7-2.6,6.2c-1.4,1.4-3.4,2.2-5.5,2.2h-15.6v-2.2V151.5z
			 M245.1,165.7c0.6-2.1,1-4.2,1-6.5c0-3.1-0.6-6-1.6-8.6c-3.3-8.3-11.2-14.1-21.3-14.1h-31.5c-1.2,0-2,0.9-2,2v12.1v15.2v15.2V196
			v12.1c0,1.1,0.8,2,2,2h12.5c1.1,0,2-0.9,2-2V196v-14.7h7.3l7.4,14.7l6.6,13.2c0.2,0.4,0.8,0.9,1.7,0.9h14c1.8,0,2.5-1.7,1.8-3.1
			l-6-11.1l-8.2-15.2l-0.3-0.5C238,177.5,243.1,172.3,245.1,165.7"/>
		<g class="st1">
			<g>
				<path class="st0" d="M221.3,317.1h-10.6v-2.3h-16.4v15.2v15.2v12.1c0,1.1,0.8,2,2,2h12.4c1.1,0,2-0.9,2-2v-12.1v-12.6h11.1
					c4,0,7.7-0.9,10.9-2.5c6-3,10.3-8.5,11.9-15.2h-17.7C225.4,316.2,223.6,317.1,221.3,317.1"/>
				<path class="st0" d="M383.8,329.9v15.2v12.1c0,1.1,0.9,2,2,2h12.6c1.1,0,2-0.9,2-2v-12.1v-15.2v-15.2h-16.6V329.9z"/>
				<path class="st0" d="M523.8,324.9h-0.1l-10.5-10.1h-36.1l0,15.2l0,15.2l0,12.1c0,1.1,0.9,2,2,2h12.5c1.2,0,2-0.9,2-2v-12.1V330
					v-12h0.1l11.9,12l15.1,15.2l13.9,14c0.8,0.8,1.6,1.2,2.6,1.2c0,0,0,0,0,0h1.1c0,0,0,0,0,0c1.1,0,2-0.6,2-1.9v-13.3V330v-15.2
					h-16.6V324.9z"/>
				<path class="st0" d="M112.9,343.8H83.8V330v-0.4h24c1.1,0,2-0.8,2-2V316c0-0.5-0.2-0.9-0.5-1.3H67.3V330v15.2v12.1
					c0,1.1,0.8,2,2,2h43.6c1.2,0,2-0.9,2-2v-11.5c0-0.2-0.1-0.4-0.1-0.6C114.6,344.4,113.9,343.8,112.9,343.8"/>
				<path class="st0" d="M299.6,343.8h-29.2V330v-0.4h24c1.1,0,2-0.8,2-2V316c0-0.5-0.2-0.9-0.5-1.3H254V330v15.2v12.1
					c0,1.1,0.8,2,2,2h43.6c1.2,0,2-0.9,2-2v-11.5c0-0.2-0.1-0.4-0.1-0.6C301.2,344.4,300.5,343.8,299.6,343.8"/>
				<path class="st0" d="M461.9,343.8h-29.2V330v-0.4h24c1.1,0,2-0.8,2-2V316c0-0.5-0.2-0.9-0.5-1.3h-41.9V330v15.2v12.1
					c0,1.1,0.8,2,2,2h43.6c1.2,0,2-0.9,2-2v-11.5c0-0.2-0.1-0.4-0.1-0.6C463.5,344.4,462.8,343.8,461.9,343.8"/>
				<path class="st0" d="M178.6,345.1L169,330l-5.4-8.5l4.3-6.6h-28.2l4.3,6.6l-5.4,8.5l-9.6,15.2l-7.1,11.2c-0.9,1.4,0,3,1.8,3
					h14.6c0.8,0,1.5-0.5,1.8-0.9l8.3-13.2l5.1-8.1h0.2l5.3,8.1l8.5,13.2c0.3,0.5,1.2,0.9,1.8,0.9H184c1.7,0,2.6-1.5,1.7-3
					L178.6,345.1z"/>
				<path class="st0" d="M364.3,345.1l-8.2-15.2l-0.3-0.5c7.5-2.8,12.6-8,14.6-14.6h-17.9c-1.4,1.4-3.4,2.2-5.5,2.2h-15.6v-2.2H315
					V330v15.2v12.1c0,1.1,0.8,2,2,2h12.5c1.1,0,2-0.9,2-2v-12.1v-14.8h7.3l7.4,14.8l6.6,13.2c0.2,0.4,0.8,0.9,1.7,0.9h14
					c1.8,0,2.5-1.7,1.8-3.1L364.3,345.1z"/>
				<path class="st0" d="M673.6,345.1c-0.3-0.8-1-1.4-1.9-1.4h-29.2V330v-0.4h24c1.1,0,2-0.8,2-2V316c0-0.5-0.2-0.9-0.5-1.3h-41.9
					V330v15.2v12.1c0,1.1,0.8,2,2,2h43.6c1.2,0,2-0.9,2-2v-11.5C673.7,345.5,673.7,345.3,673.6,345.1"/>
			</g>
		</g>
		<g class="st2">
			<g>
				<path class="st0" d="M112.9,385.7H83.8v-13.8H67.3V387v12.1c0,1.1,0.8,2,2,2h43.6c1.2,0,2-0.9,2-2v-11.5c0-0.2-0.1-0.4-0.1-0.6
					C114.6,386.3,113.9,385.7,112.9,385.7"/>
				<path class="st0" d="M299.6,385.7h-29.2v-13.8H254V387v12.1c0,1.1,0.8,2,2,2h43.6c1.2,0,2-0.9,2-2v-11.5c0-0.2-0.1-0.4-0.1-0.6
					C301.2,386.3,300.5,385.7,299.6,385.7"/>
				<path class="st0" d="M383.8,387v12.1c0,1.1,0.9,2,2,2h12.6c1.1,0,2-0.9,2-2V387v-15.2h-16.6V387z"/>
				<path class="st0" d="M461.9,385.7h-29.2v-13.8h-16.4V387v12.1c0,1.1,0.8,2,2,2h43.6c1.2,0,2-0.9,2-2v-11.5
					c0-0.2-0.1-0.4-0.1-0.6C463.5,386.3,462.8,385.7,461.9,385.7"/>
				<path class="st0" d="M520.8,387l13.9,14c0.8,0.8,1.6,1.2,2.6,1.2c0,0,0,0,0,0h1.1c0,0,0,0,0,0c1.1,0,2-0.6,2-1.9V387v-15.2
					h-34.7L520.8,387z"/>
				<path class="st0" d="M178.6,387l-9.6-15.2h-30.4l-9.6,15.2l-7.1,11.2c-0.9,1.4,0,3,1.8,3h14.6c0.8,0,1.5-0.5,1.8-0.9l8.3-13.2
					l5.1-8.1h0.2l5.3,8.1l8.5,13.2c0.3,0.5,1.2,0.9,1.8,0.9H184c1.7,0,2.6-1.5,1.7-3L178.6,387z"/>
				<path class="st0" d="M673.6,387c-0.3-0.8-1-1.4-1.9-1.4h-29.2v-13.8h-16.4V387v12.1c0,1.1,0.8,2,2,2h43.6c1.2,0,2-0.9,2-2v-11.5
					C673.7,387.4,673.7,387.2,673.6,387"/>
			</g>
		</g>
		<g class="st2">
			<g>
				<path class="st0" d="M590,430.2C590,430.2,590,430.2,590,430.2L590,430.2C590,430.2,590,430.2,590,430.2"/>
				<path class="st0" d="M167.5,428.2c0.3,0.5,1.2,0.9,1.8,0.9H184c1.7,0,2.6-1.5,1.7-3l-7.1-11.2H159L167.5,428.2z"/>
				<path class="st0" d="M194.3,427.1c0,1.1,0.8,2,2,2h12.4c1.1,0,2-0.9,2-2V415h-16.4V427.1z"/>
				<path class="st0" d="M314.9,427.1c0,1.1,0.8,2,2,2h12.5c1.1,0,2-0.9,2-2V415h-16.5V427.1z"/>
				<path class="st0" d="M383.8,427.1c0,1.1,0.9,2,2,2h12.6c1.1,0,2-0.9,2-2V415h-16.6V427.1z"/>
				<path class="st0" d="M416.2,427.1c0,1.1,0.8,2,2,2h43.6c1.2,0,2-0.9,2-2v-11.5c0-0.2-0.1-0.4-0.1-0.6h-47.5V427.1z"/>
				<path class="st0" d="M615.7,417.1l-2-2.1h-54.2c6.9,9.2,18,15.2,30.5,15.2h0c9.4,0,18.4-3.3,25.6-10.2
					C616.3,419.2,616.4,417.8,615.7,417.1"/>
			</g>
		</g>
		<g class="st1">
			<g>
				<path class="st0" d="M174.3,76.7h-43.6c-1.2,0-2,0.9-2,2v12.1V106v15.2h16.4v-0.4h24c1.1,0,2-0.8,2-2v-11.5
					c0-0.5-0.2-0.9-0.5-1.3c-0.4-0.4-0.9-0.7-1.5-0.7h-24V92.2h29.2c0.9,0,1.6-0.6,1.9-1.4c0.1-0.2,0.1-0.4,0.1-0.6V78.7
					C176.3,77.6,175.4,76.7,174.3,76.7"/>
				<path class="st0" d="M221.8,108.2h-15.6V106V91.7h15.6c4.3,0,8,3.1,8,8c0,2.6-1,4.7-2.6,6.2
					C225.8,107.4,223.8,108.2,221.8,108.2 M223.1,76.7h-31.5c-1.2,0-2,0.9-2,2v12.1V106v15.2h41.2l-0.3-0.5
					c7.5-2.8,12.6-8,14.6-14.6c0.6-2.1,1-4.2,1-6.5c0-3.1-0.6-6-1.6-8.6C241.2,82.5,233.2,76.7,223.1,76.7"/>
				<path class="st0" d="M317.6,76.7h-14c-0.8,0-1.6,0.6-1.8,1.2l-5.9,13L289,106l-4.7,10.3h-0.6l-4.7-10.3l-6.9-15.2l-5.9-13
					c-0.2-0.5-0.9-1.2-1.8-1.2h-14c-1.6,0-2.4,1.4-1.8,2.7l5.3,11.4l7,15.2l7,15.2h31.8L307,106l7.1-15.2l5.3-11.4
					C320,78,319.1,76.7,317.6,76.7"/>
				<path class="st0" d="M341.4,76.7h-12.6c-1.1,0-2,0.9-2,2v12.1V106v15.2h16.6V106V90.8V78.7C343.4,77.6,342.5,76.7,341.4,76.7"/>
				<path class="st0" d="M392.8,75.6c-12.5,0-23.5,6-30.4,15.2c-3.3,4.4-5.7,9.5-6.9,15.2c-0.5,2.5-0.8,5.1-0.8,7.7
					c0,2.6,0.3,5.1,0.7,7.5h18.6c-0.9-2.5-1.4-5.1-1.4-7.9c0-2.5,0.4-5,1.2-7.3c2.8-8.3,10.1-14.4,19.5-14.4c5.2,0,9.9,1.6,14.2,5.4
					c0.7,0.7,1.9,0.7,2.6,0l5.9-6.1l2.3-2.4c0.8-0.8,0.8-2.1-0.1-2.9C411.1,78.9,403.3,75.6,392.8,75.6"/>
				<path class="st0" d="M474.5,76.7h-43.6c-1.2,0-2,0.9-2,2v12.1V106v15.2h16.4v-0.4h24c1.1,0,2-0.8,2-2v-11.5
					c0-0.5-0.2-0.9-0.5-1.3c-0.4-0.4-0.9-0.7-1.5-0.7h-24V92.2h29.2c0.9,0,1.6-0.6,1.9-1.4c0.1-0.2,0.1-0.4,0.1-0.6V78.7
					C476.5,77.6,475.7,76.7,474.5,76.7"/>
				<path class="st0" d="M96.3,106c-0.2-0.1-0.4-0.2-0.6-0.3c-7.4-3.6-11.5-6.3-11.5-9.8c0-2.1,1-4,3-5.1c0.9-0.5,2-0.7,3.4-0.7
					c1.5,0,3,0.3,4.5,0.7c4.1,1.2,8,3.7,9.7,5c2.1,1.3,3.9,0.4,4.6-0.7l2.8-4.2l2.6-3.9c0.4-0.7,0.6-2.6-0.6-3.4
					c-3.2-2.3-11.6-7.9-22.5-7.9c-13.2,0-21,7-23.5,15.2c-0.6,1.9-0.9,3.8-0.9,5.8c0,3.7,0.9,6.7,2.3,9.4
					c3.6,6.5,10.8,10.4,18.1,13.9c0.9,0.4,1.7,0.8,2.5,1.3h24.9C111.6,113.3,103.3,109.4,96.3,106"/>
			</g>
		</g>
		<g class="st2">
			<g>
				<path class="st0" d="M91.7,33.7c-13.2,0-21,7-23.5,15.2c-0.6,1.9-0.9,3.8-0.9,5.8c0,3.7,0.9,6.7,2.3,9.4h26.6
					c-0.2-0.1-0.4-0.2-0.6-0.3c-7.4-3.6-11.5-6.3-11.5-9.8c0-2.1,1-4,3-5.1c0.9-0.5,2-0.7,3.4-0.7c1.5,0,3,0.3,4.5,0.7
					c4.1,1.2,8,3.7,9.7,5c2.1,1.3,3.9,0.4,4.6-0.7l2.8-4.2l2.6-3.9c0.4-0.7,0.6-2.6-0.6-3.4C111.1,39.3,102.6,33.7,91.7,33.7"/>
				<path class="st0" d="M223.1,34.8h-31.5c-1.2,0-2,0.9-2,2v12.1v15.2h16.5V49.8h15.6c4.3,0,8,3.1,8,8c0,2.6-1,4.7-2.6,6.2h17.9
					c0.6-2.1,1-4.2,1-6.5c0-3.1-0.6-6-1.6-8.6C241.2,40.6,233.2,34.8,223.1,34.8"/>
				<path class="st0" d="M266.3,35.9c-0.2-0.5-0.9-1.2-1.8-1.2h-14c-1.6,0-2.4,1.4-1.8,2.7l5.3,11.4l7,15.2h18l-6.9-15.2L266.3,35.9
					z"/>
				<path class="st0" d="M317.6,34.8h-14c-0.8,0-1.6,0.6-1.8,1.2l-5.9,13L289,64.1H307l7.1-15.2l5.3-11.4
					C320,36.1,319.1,34.8,317.6,34.8"/>
				<path class="st0" d="M341.4,34.8h-12.6c-1.1,0-2,0.9-2,2v12.1v15.2h16.6V48.9V36.8C343.4,35.7,342.5,34.8,341.4,34.8"/>
				<path class="st0" d="M392.8,33.7c-12.5,0-23.5,6-30.4,15.2c-3.3,4.4-5.7,9.5-6.9,15.2h18.3c2.8-8.3,10.1-14.4,19.5-14.4
					c5.2,0,9.9,1.6,14.2,5.4c0.7,0.7,1.9,0.7,2.6,0l5.9-6.1l2.3-2.4c0.8-0.8,0.8-2.1-0.1-2.9C411.1,37,403.3,33.7,392.8,33.7"/>
				<path class="st0" d="M474.5,34.8h-43.6c-1.2,0-2,0.9-2,2v12.1v15.2h41.9c-0.4-0.4-0.9-0.7-1.5-0.7h-24V50.3h29.2
					c0.9,0,1.6-0.6,1.9-1.4c0.1-0.2,0.1-0.4,0.1-0.6V36.8C476.5,35.7,475.7,34.8,474.5,34.8"/>
			</g>
		</g>
		<g class="st2">
			<g>
				<path class="st0" d="M418.4,12.9c0.8-0.8,0.8-2.1-0.1-2.9c-7.2-6.5-15-9.8-25.5-9.8c-12.5,0-23.5,6-30.4,15.2h53.7L418.4,12.9z
					 M343.4,3.2c0-1.1-0.9-2-2-2h-12.6c-1.1,0-2,0.9-2,2v12.1h16.6V3.2z M319.3,4c0.6-1.4-0.2-2.7-1.8-2.7h-14
					c-0.8,0-1.6,0.6-1.8,1.2l-5.9,13H314L319.3,4z M266.3,2.4c-0.2-0.5-0.9-1.2-1.8-1.2h-14c-1.6,0-2.4,1.4-1.8,2.7l5.3,11.4h18.2
					L266.3,2.4z M176.3,14.7V3.2c0-1.1-0.8-2-2-2h-43.6c-1.2,0-2,0.9-2,2v12.1h47.5C176.2,15.1,176.3,14.9,176.3,14.7"/>
			</g>
		</g>
	</g>
	<g>
		<path class="st0" d="M5.9,227.7c0-0.1,0.1-0.3,0.3-0.3h1.3c0.1,0,0.3,0.1,0.3,0.3v9.1c0,0.1-0.1,0.3-0.3,0.3H6.1
			c-0.1,0-0.3-0.1-0.3-0.3V227.7z"/>
		<path class="st0" d="M15.9,227.6c0-0.1,0.1-0.2,0.3-0.2h0.2c0.1,0,0.2,0,0.2,0.1l5.6,6h0v-5.7c0-0.1,0.1-0.3,0.3-0.3h1.3
			c0.1,0,0.3,0.1,0.3,0.3v9.3c0,0.1-0.1,0.2-0.3,0.2h-0.2c-0.1,0-0.2,0-0.2-0.1l-5.6-6.2h0v5.9c0,0.1-0.1,0.3-0.3,0.3h-1.3
			c-0.1,0-0.3-0.1-0.3-0.3V227.6z"/>
		<path class="st0" d="M33.9,229.1h-2.1c-0.2,0-0.3-0.1-0.3-0.3v-1.1c0-0.1,0.1-0.3,0.3-0.3h6c0.2,0,0.3,0.1,0.3,0.3v1.1
			c0,0.1-0.1,0.3-0.3,0.3h-2.1v7.7c0,0.1-0.1,0.3-0.3,0.3h-1.3c-0.1,0-0.3-0.1-0.3-0.3V229.1z"/>
		<path class="st0" d="M49.6,227.4c2.8,0,5,2.2,5,5c0,2.8-2.2,4.9-5,4.9s-4.9-2.2-4.9-4.9C44.7,229.6,46.9,227.4,49.6,227.4z
			 M49.6,235.5c1.7,0,3.2-1.4,3.2-3.2c0-1.7-1.4-3.2-3.2-3.2c-1.7,0-3.2,1.4-3.2,3.2C46.5,234.1,47.9,235.5,49.6,235.5z"/>
	</g>
	<g>
		<path class="st0" d="M5,118c-0.1-0.2,0.1-0.3,0.2-0.3h1.3c0.1,0,0.2,0.1,0.2,0.2l1.4,5.5h0.1l2.2-5.7c0-0.1,0.1-0.2,0.2-0.2h0.2
			c0.1,0,0.2,0.1,0.2,0.2l2.2,5.7h0.1l1.4-5.5c0-0.1,0.1-0.2,0.2-0.2h1.3c0.2,0,0.3,0.1,0.2,0.3l-2.6,9.3c0,0.1-0.1,0.2-0.2,0.2
			h-0.2c-0.1,0-0.2-0.1-0.2-0.2l-2.5-6.2h-0.1l-2.4,6.2c0,0.1-0.1,0.2-0.2,0.2H7.9c-0.1,0-0.2-0.1-0.2-0.2L5,118z"/>
		<path class="st0" d="M24,117.9c0-0.1,0.1-0.3,0.3-0.3h5.6c0.2,0,0.3,0.1,0.3,0.3v1.1c0,0.1-0.1,0.3-0.3,0.3h-4.1v2.3h3.4
			c0.1,0,0.3,0.1,0.3,0.3v1.1c0,0.2-0.1,0.3-0.3,0.3h-3.4v2.4h4.1c0.2,0,0.3,0.1,0.3,0.3v1.1c0,0.1-0.1,0.3-0.3,0.3h-5.6
			c-0.2,0-0.3-0.1-0.3-0.3V117.9z"/>
		<path class="st0" d="M45.8,117.9c0-0.1,0.1-0.3,0.3-0.3h5.6c0.2,0,0.3,0.1,0.3,0.3v1.1c0,0.1-0.1,0.3-0.3,0.3h-4.1v2.3H51
			c0.1,0,0.3,0.1,0.3,0.3v1.1c0,0.2-0.1,0.3-0.3,0.3h-3.4v2.4h4.1c0.2,0,0.3,0.1,0.3,0.3v1.1c0,0.1-0.1,0.3-0.3,0.3h-5.6
			c-0.2,0-0.3-0.1-0.3-0.3V117.9z"/>
		<path class="st0" d="M58.5,118c-0.1-0.2,0-0.4,0.2-0.4h1.4c0.1,0,0.2,0.1,0.2,0.2l2.7,5.9h0.1l2.7-5.9c0-0.1,0.1-0.2,0.2-0.2h1.4
			c0.2,0,0.3,0.2,0.2,0.4l-4.3,9.3c0,0.1-0.1,0.2-0.2,0.2H63c-0.1,0-0.2-0.1-0.2-0.2L58.5,118z"/>
		<path class="st0" d="M78.9,117.5c2.8,0,5,2.2,5,5s-2.2,4.9-5,4.9s-4.9-2.2-4.9-4.9S76.2,117.5,78.9,117.5z M78.9,125.6
			c1.7,0,3.2-1.4,3.2-3.2c0-1.7-1.4-3.2-3.2-3.2c-1.7,0-3.2,1.4-3.2,3.2C75.8,124.2,77.2,125.6,78.9,125.6z"/>
		<path class="st0" d="M91.6,117.9c0-0.1,0.1-0.3,0.3-0.3h1.3c0.1,0,0.3,0.1,0.3,0.3v7.7h3.5c0.2,0,0.3,0.1,0.3,0.3v1.1
			c0,0.1-0.1,0.3-0.3,0.3h-5c-0.2,0-0.3-0.1-0.3-0.3V117.9z"/>
		<path class="st0" d="M102.2,118c-0.1-0.2,0-0.4,0.2-0.4h1.4c0.1,0,0.2,0.1,0.2,0.2l2.7,5.9h0.1l2.7-5.9c0-0.1,0.1-0.2,0.2-0.2h1.4
			c0.2,0,0.3,0.2,0.2,0.4l-4.3,9.3c0,0.1-0.1,0.2-0.2,0.2h-0.1c-0.1,0-0.2-0.1-0.2-0.2L102.2,118z"/>
		<path class="st0" d="M118.4,117.9c0-0.1,0.1-0.3,0.3-0.3h5.6c0.2,0,0.3,0.1,0.3,0.3v1.1c0,0.1-0.1,0.3-0.3,0.3h-4.1v2.3h3.4
			c0.1,0,0.3,0.1,0.3,0.3v1.1c0,0.2-0.1,0.3-0.3,0.3h-3.4v2.4h4.1c0.2,0,0.3,0.1,0.3,0.3v1.1c0,0.1-0.1,0.3-0.3,0.3h-5.6
			c-0.2,0-0.3-0.1-0.3-0.3V117.9z"/>
		<path class="st0" d="M132.2,117.9c0-0.1,0.1-0.3,0.2-0.3h3.3c2.7,0,4.8,2.2,4.8,4.8c0,2.7-2.2,4.8-4.8,4.8h-3.3
			c-0.1,0-0.2-0.1-0.2-0.3V117.9z M135.6,125.6c1.8,0,3.1-1.3,3.1-3.2c0-1.9-1.3-3.1-3.1-3.1H134v6.3H135.6z"/>
	</g>
	<g>
		<g class="st1">
			<g>
				<rect x="69.7" y="312.6" class="st0" width="39.5" height="0"/>
			</g>
		</g>
		<g class="st1">
			<g>
				<rect x="138" y="312.6" class="st0" width="26.5" height="0"/>
			</g>
		</g>
		<g class="st1">
			<g>
				<polygon class="st0" points="236.9,312.6 236.9,312.6 220.2,312.6 220.2,312.6 				"/>
			</g>
		</g>
		<g class="st1">
			<g>
				<rect x="189.6" y="312.6" class="st0" width="15.5" height="0"/>
			</g>
		</g>
		<g class="st1">
			<g>
				<rect x="246" y="312.6" class="st0" width="39.5" height="0"/>
			</g>
		</g>
		<g class="st1">
			<g>
				<rect x="500.9" y="312.6" class="st0" width="15.7" height="0"/>
			</g>
		</g>
		<g class="st1">
			<g>
				<rect x="638.6" y="312.6" class="st0" width="29.9" height="0"/>
			</g>
		</g>
		<g class="st3">
			<g>
				<rect x="136.9" y="369.2" class="st0" width="28.7" height="0"/>
			</g>
		</g>
	</g>
</g>
</svg>
