<?xml version="1.0" encoding="utf-8"?>
<!-- Generator: Adobe Illustrator 25.4.1, SVG Export Plug-In . SVG Version: 6.00 Build 0)  -->
<svg version="1.1" id="Capa_1" xmlns="http://www.w3.org/2000/svg" xmlns:xlink="http://www.w3.org/1999/xlink" x="0px" y="0px"
	 viewBox="0 0 820 430" style="enable-background:new 0 0 820 430;" xml:space="preserve">
<style type="text/css">
	.st0{opacity:0.15;}
	.st1{fill:#FFFFFF;}
	.st2{opacity:0.25;}
	.st3{opacity:0.14;}
	.st4{opacity:0.1;}
</style>
<g>
	<g>
		<g class="st0">
			<g>
				<path class="st1" d="M701.2,404.7h-66.8c7.5,10.1,19.6,16.7,33.4,16.7C681.5,421.4,693.7,414.9,701.2,404.7"/>
			</g>
		</g>
	</g>
	<g>
		<path class="st1" d="M29.9,110.8h-2.4c-0.2,0-0.3-0.1-0.3-0.3v-1.3c0-0.2,0.1-0.3,0.3-0.3h6.9c0.2,0,0.3,0.1,0.3,0.3v1.3
			c0,0.2-0.1,0.3-0.3,0.3H32v8.8c0,0.2-0.1,0.3-0.3,0.3h-1.5c-0.2,0-0.3-0.1-0.3-0.3V110.8z"/>
		<path class="st1" d="M43.2,109.2c0-0.2,0.1-0.3,0.3-0.3H48c1.9,0,3.4,1.5,3.4,3.4c0,1.4-1,2.6-2.3,3.2l2.2,4
			c0.1,0.2,0,0.5-0.3,0.5h-1.7c-0.1,0-0.2-0.1-0.3-0.1l-2.1-4.2h-1.7v4c0,0.2-0.1,0.3-0.3,0.3h-1.4c-0.2,0-0.3-0.1-0.3-0.3V109.2z
			 M47.8,113.9c0.8,0,1.6-0.7,1.6-1.6c0-0.8-0.7-1.5-1.6-1.5h-2.6v3.1H47.8z"/>
		<path class="st1" d="M59.1,119.5l4.9-10.6c0-0.1,0.1-0.2,0.3-0.2h0.2c0.2,0,0.2,0.1,0.3,0.2l4.9,10.6c0.1,0.2,0,0.4-0.3,0.4h-1.4
			c-0.2,0-0.3-0.1-0.5-0.3l-0.8-1.7h-4.7l-0.8,1.7c-0.1,0.2-0.2,0.3-0.5,0.3h-1.4C59.1,119.9,59,119.7,59.1,119.5z M65.9,116.2
			l-1.6-3.5h0l-1.5,3.5H65.9z"/>
		<path class="st1" d="M77.6,109c0-0.2,0.1-0.3,0.3-0.3h0.2c0.1,0,0.2,0,0.3,0.1l6.4,6.9h0v-6.5c0-0.2,0.1-0.3,0.3-0.3h1.4
			c0.2,0,0.3,0.1,0.3,0.3v10.6c0,0.2-0.1,0.3-0.3,0.3h-0.2c-0.1,0-0.2,0-0.3-0.1l-6.5-7.1h0v6.8c0,0.2-0.1,0.3-0.3,0.3h-1.4
			c-0.2,0-0.3-0.1-0.3-0.3V109z"/>
		<path class="st1" d="M95.9,118.9c-0.2-0.1-0.2-0.2-0.1-0.5l0.6-1c0.1-0.2,0.4-0.2,0.5-0.1c0.6,0.5,1.4,1,2.4,1
			c0.8,0,1.4-0.5,1.4-1.2c0-0.8-0.7-1.4-2-1.9c-1.5-0.6-3-1.5-3-3.4c0-1.4,1-3,3.5-3c1.6,0,2.8,0.8,3.2,1.1c0.2,0.1,0.2,0.4,0.1,0.5
			l-0.6,0.9c-0.1,0.2-0.4,0.3-0.6,0.2c-0.7-0.4-1.3-0.9-2.2-0.9c-0.9,0-1.4,0.5-1.4,1.1c0,0.7,0.6,1.2,1.9,1.8
			c1.5,0.6,3.3,1.5,3.3,3.6c0,1.6-1.4,3.1-3.6,3.1C97.4,120.1,96.4,119.2,95.9,118.9z"/>
		<path class="st1" d="M111.7,109.2c0-0.2,0.1-0.3,0.3-0.3h6.4c0.2,0,0.3,0.1,0.3,0.3v1.3c0,0.2-0.1,0.3-0.3,0.3h-4.7v3h3.9
			c0.2,0,0.3,0.1,0.3,0.3v1.3c0,0.2-0.1,0.3-0.3,0.3h-3.9v4c0,0.2-0.1,0.3-0.3,0.3H112c-0.2,0-0.3-0.1-0.3-0.3V109.2z"/>
		<path class="st1" d="M132.3,108.7c3.2,0,5.7,2.5,5.7,5.7c0,3.2-2.5,5.7-5.7,5.7c-3.2,0-5.7-2.5-5.7-5.7
			C126.6,111.3,129.1,108.7,132.3,108.7z M132.3,118c2,0,3.6-1.6,3.6-3.6c0-2-1.6-3.6-3.6-3.6c-2,0-3.6,1.7-3.6,3.6
			C128.7,116.4,130.3,118,132.3,118z"/>
		<path class="st1" d="M146.7,109.2c0-0.2,0.1-0.3,0.3-0.3h4.5c1.9,0,3.4,1.5,3.4,3.4c0,1.4-1,2.6-2.3,3.2l2.2,4
			c0.1,0.2,0,0.5-0.3,0.5h-1.7c-0.1,0-0.2-0.1-0.3-0.1l-2.1-4.2h-1.7v4c0,0.2-0.1,0.3-0.3,0.3H147c-0.2,0-0.3-0.1-0.3-0.3V109.2z
			 M151.4,113.9c0.8,0,1.6-0.7,1.6-1.6c0-0.8-0.7-1.5-1.6-1.5h-2.6v3.1H151.4z"/>
		<path class="st1" d="M165.2,109c0-0.1,0.1-0.2,0.3-0.2h0.3c0.1,0,0.2,0.1,0.3,0.2l3.5,7.4c0,0,0,0,0,0l3.5-7.4
			c0-0.1,0.1-0.2,0.3-0.2h0.3c0.2,0,0.3,0.1,0.3,0.2l1.9,10.6c0,0.2-0.1,0.4-0.3,0.4h-1.4c-0.1,0-0.3-0.1-0.3-0.2l-0.9-6
			c0,0,0,0,0,0l-2.8,6.2c0,0.1-0.1,0.2-0.3,0.2h-0.3c-0.1,0-0.2-0.1-0.3-0.2l-2.8-6.2c0,0,0,0,0,0l-0.9,6c0,0.1-0.1,0.2-0.3,0.2
			h-1.4c-0.2,0-0.3-0.1-0.3-0.4L165.2,109z"/>
		<path class="st1" d="M184.5,109.2c0-0.2,0.1-0.3,0.3-0.3h1.5c0.2,0,0.3,0.1,0.3,0.3v10.4c0,0.2-0.1,0.3-0.3,0.3h-1.5
			c-0.2,0-0.3-0.1-0.3-0.3V109.2z"/>
		<path class="st1" d="M196,109c0-0.2,0.1-0.3,0.3-0.3h0.2c0.1,0,0.2,0,0.3,0.1l6.4,6.9h0v-6.5c0-0.2,0.1-0.3,0.3-0.3h1.4
			c0.2,0,0.3,0.1,0.3,0.3v10.6c0,0.2-0.1,0.3-0.3,0.3h-0.2c-0.1,0-0.2,0-0.3-0.1l-6.5-7.1h0v6.8c0,0.2-0.1,0.3-0.3,0.3h-1.4
			c-0.2,0-0.3-0.1-0.3-0.3V109z"/>
		<path class="st1" d="M219.7,108.7c1.4,0,2.8,0.6,3.8,1.5c0.1,0.1,0.1,0.3,0,0.4l-1,1c-0.1,0.1-0.3,0.1-0.4,0
			c-0.7-0.6-1.5-0.9-2.4-0.9c-2,0-3.5,1.7-3.5,3.7c0,2,1.6,3.6,3.5,3.6c0.9,0,1.6-0.3,1.9-0.4v-1.3h-1.3c-0.2,0-0.3-0.1-0.3-0.3
			v-1.2c0-0.2,0.1-0.3,0.3-0.3h3c0.2,0,0.3,0.1,0.3,0.3v4c0,0.1-0.1,0.2-0.1,0.3c0,0-1.6,1-3.9,1c-3.1,0-5.7-2.5-5.7-5.6
			C214.1,111.3,216.6,108.7,219.7,108.7z"/>
	</g>
	<g>
		<path class="st1" d="M6.7,226.3c0-0.2,0.1-0.3,0.3-0.3h1.5c0.2,0,0.3,0.1,0.3,0.3v10.4c0,0.2-0.1,0.3-0.3,0.3H7
			c-0.2,0-0.3-0.1-0.3-0.3V226.3z"/>
		<path class="st1" d="M18.2,226.1c0-0.2,0.1-0.3,0.3-0.3h0.2c0.1,0,0.2,0,0.3,0.1l6.4,6.9h0v-6.5c0-0.2,0.1-0.3,0.3-0.3h1.4
			c0.2,0,0.3,0.1,0.3,0.3v10.6c0,0.2-0.1,0.3-0.3,0.3H27c-0.1,0-0.2,0-0.3-0.1l-6.5-7.1h0v6.8c0,0.2-0.1,0.3-0.3,0.3h-1.4
			c-0.2,0-0.3-0.1-0.3-0.3V226.1z"/>
		<path class="st1" d="M38.7,227.9h-2.4c-0.2,0-0.3-0.1-0.3-0.3v-1.3c0-0.2,0.1-0.3,0.3-0.3h6.9c0.2,0,0.3,0.1,0.3,0.3v1.3
			c0,0.2-0.1,0.3-0.3,0.3h-2.4v8.8c0,0.2-0.1,0.3-0.3,0.3H39c-0.2,0-0.3-0.1-0.3-0.3V227.9z"/>
		<path class="st1" d="M56.7,225.8c3.2,0,5.7,2.5,5.7,5.7c0,3.2-2.5,5.7-5.7,5.7c-3.2,0-5.7-2.5-5.7-5.7
			C51.1,228.4,53.6,225.8,56.7,225.8z M56.7,235.1c2,0,3.6-1.6,3.6-3.6c0-2-1.6-3.6-3.6-3.6c-2,0-3.6,1.7-3.6,3.6
			C53.1,233.5,54.7,235.1,56.7,235.1z"/>
	</g>
	<g>
		<path class="st1" d="M191.3,224.3h-43.6c-1.2,0-2,0.9-2,2v12.1v15.2v15.2V284v12.1c0,1.1,0.8,2,2,2h43.6c1.2,0,2-0.9,2-2v-11.5
			c0-0.2-0.1-0.4-0.1-0.6c-0.3-0.8-1-1.4-1.9-1.4h-29.2v-13.8v-0.4h24c1.1,0,2-0.8,2-2v-11.5c0-0.5-0.2-0.9-0.5-1.3
			c-0.4-0.4-0.9-0.7-1.5-0.7h-24v-13.1h29.2c0.9,0,1.6-0.6,1.9-1.4c0.1-0.2,0.1-0.4,0.1-0.6v-11.5
			C193.3,225.3,192.4,224.3,191.3,224.3"/>
		<path class="st1" d="M320.7,224.3h-13c-1.2,0-2,0.9-2,2v12.1v15.2v15.2v1.5c0,7.7-5.6,12-13.2,12c-7.5,0-13-4.3-13-12v-1.5v-15.2
			v-15.2v-12.1c0-1.1-0.8-2-2-2h-13c-1.1,0-2,0.9-2,2v12.1v15.2v15.2v2.3c0,4.7,1.2,9,3.2,12.9c4.9,9.2,15,15.2,26.7,15.2
			c11.8,0,21.9-6,26.9-15.2c2.1-3.8,3.3-8.2,3.3-12.9v-2.3v-15.2v-15.2v-12.1C322.7,225.3,321.7,224.3,320.7,224.3"/>
		<path class="st1" d="M426.9,224.3h-46.8c-1.2,0-2,0.9-2,2v11.5c0,0.2,0.1,0.4,0.1,0.6c0.3,0.8,1,1.4,1.9,1.4h15.1v13.8v15.2V284
			v12.1c0,1.1,0.9,2,2,2h12.6c1.1,0,2-0.9,2-2V284v-15.2v-15.2v-13.8h15.1c0.9,0,1.6-0.6,1.9-1.4c0.1-0.2,0.1-0.4,0.1-0.6v-11.5
			C428.9,225.3,428.1,224.3,426.9,224.3"/>
		<path class="st1" d="M93.4,239.4H109c4.3,0,8,3.1,8,8c0,2.6-1,4.7-2.6,6.2c-1.4,1.4-3.4,2.2-5.4,2.2H93.4v-2.2V239.4z
			 M132.3,253.6c0.6-2.1,1-4.2,1-6.5c0-3.1-0.6-6-1.6-8.6c-3.3-8.3-11.2-14.1-21.3-14.1H78.8c-1.2,0-2,0.9-2,2v12.1v15.2v15.2V284
			v12.1c0,1.1,0.8,2,2,2h12.5c1.1,0,2-0.9,2-2V284v-14.7h7.3L108,284l6.6,13.2c0.2,0.4,0.8,0.9,1.7,0.9h14c1.8,0,2.5-1.7,1.8-3.1
			l-6-11.1l-8.2-15.2l-0.3-0.5C125.2,265.5,130.3,260.2,132.3,253.6"/>
		<path class="st1" d="M231.4,253.6c-0.2-0.1-0.4-0.2-0.7-0.3c-7.4-3.6-11.5-6.3-11.5-9.8c0-2.1,1-4,3-5.1c0.9-0.5,2-0.7,3.4-0.7
			c1.5,0,3,0.3,4.5,0.7c4.1,1.2,8,3.7,9.7,5c2.1,1.3,3.9,0.4,4.6-0.7l2.8-4.2l2.6-3.9c0.4-0.7,0.6-2.6-0.6-3.4
			c-3.2-2.3-11.6-7.9-22.5-7.9c-13.2,0-21,7-23.5,15.2c-0.6,1.9-0.9,3.8-0.9,5.8c0,3.7,0.9,6.7,2.3,9.4c3.6,6.5,10.8,10.4,18.1,13.9
			c0.9,0.4,1.7,0.8,2.5,1.3c5.4,2.9,8.4,5.5,8.4,9.4c0,2.7-1.7,4.9-4.2,5.8c-0.9,0.3-1.9,0.5-3,0.5c-1.5,0-2.9-0.2-4.2-0.5
			c-4.7-1.1-8.4-3.7-10.7-5.3c-1.1-0.7-2.7-0.7-3.6,0.6l-2.6,4.6l-2.2,3.9c-0.7,1.4-0.4,2.3,0.4,3.2c2.4,2.4,10,8.1,23.7,8.1
			c12.3,0,20.7-6.9,23.7-15.2c0.8-2.2,1.2-4.4,1.2-6.6c0-3.3-0.7-6.1-1.8-8.5C246.7,260.9,238.4,257,231.4,253.6"/>
		<path class="st1" d="M379.6,282.6h-25.1v-13.8v-15.2v-15.2v-12.1c0-1.1-0.9-2-2-2H340c-1.2,0-2,0.9-2,2v12.1v15.2v15.2V284v12.1
			c0,1.1,0.8,2,2,2h39.6c1.2,0,2-0.9,2-2v-11.5c0-0.2-0.1-0.4-0.1-0.6C381.3,283.2,380.6,282.6,379.6,282.6"/>
		<path class="st1" d="M483.4,268.8c-3.5-7.9-11.9-11.8-18.9-15.2c-0.2-0.1-0.4-0.2-0.6-0.3c-7.4-3.6-11.5-6.3-11.5-9.8
			c0-2.1,1-4,3-5.1c0.9-0.5,2-0.7,3.4-0.7c1.5,0,3,0.3,4.5,0.7c4.1,1.2,8,3.7,9.7,5c2.1,1.3,3.9,0.4,4.6-0.7l2.8-4.2l2.6-3.9
			c0.4-0.7,0.6-2.6-0.6-3.4c-3.2-2.3-11.6-7.9-22.5-7.9c-13.2,0-21,7-23.5,15.2c-0.6,1.9-0.9,3.8-0.9,5.8c0,3.7,0.9,6.7,2.3,9.4
			c3.6,6.5,10.8,10.4,18.1,13.9c0.9,0.4,1.7,0.8,2.5,1.3c5.4,2.9,8.4,5.5,8.4,9.4c0,2.7-1.7,4.9-4.2,5.8c-0.9,0.3-1.9,0.5-3,0.5
			c-1.5,0-2.9-0.2-4.2-0.5c-4.7-1.1-8.4-3.7-10.7-5.3c-1.1-0.7-2.7-0.7-3.6,0.6l-2.6,4.6l-2.2,3.9c-0.7,1.4-0.4,2.3,0.4,3.2
			c2.4,2.4,10,8.1,23.7,8.1c12.3,0,20.7-6.9,23.7-15.2c0.8-2.2,1.2-4.4,1.2-6.6C485.1,274,484.5,271.2,483.4,268.8"/>
		<path class="st1" d="M91.5,136.2H78.8c-1.1,0-2,0.9-2,2v12.1v15.2v15.2v15.2V208c0,1.1,0.9,2,2,2h12.6c1.1,0,2-0.9,2-2v-12.1
			v-15.2v-15.2v-15.2v-12.1C93.5,137.2,92.5,136.2,91.5,136.2"/>
		<path class="st1" d="M170.6,136.2H158c-1.2,0-2,0.9-2,2v12.1v15.2v10.1h-0.1l-10.5-10.1l-15.8-15.2l-14.1-13.6
			c-0.8-0.8-1.6-1.6-2.6-1.6h0h-1.6h0c-1.1,0-2,0.8-2,1.9l0,13.3l0,15.2l0,15.2l0,15.2l0,12.1c0,1.1,0.9,2,2,2h12.5c1.2,0,2-0.9,2-2
			v-12.1v-15.2v-12h0.1l12,12l15.1,15.2l13.9,14c0.8,0.8,1.6,1.2,2.6,1.2h1.1c1.1,0,2-0.6,2-1.9v-13.3v-15.2v-15.2v-15.2v-12.1
			C172.6,137.2,171.7,136.2,170.6,136.2"/>
		<path class="st1" d="M248.9,136.2h-14c-0.8,0-1.6,0.6-1.8,1.2l-5.9,13l-6.9,15.2l-4.7,10.3h-0.6l-4.7-10.3l-6.9-15.2l-5.9-13
			c-0.2-0.5-0.9-1.2-1.8-1.2h-14c-1.6,0-2.4,1.4-1.8,2.7l5.3,11.4l7,15.2l7,15.2l7,15.2l6.5,14c0.3,0.6,0.9,1.2,1.8,1.2h1.1
			c0.8,0,1.5-0.5,1.8-1.2l6.5-14l7.1-15.2l7.1-15.2l7.1-15.2l5.3-11.4C251.4,137.6,250.5,136.2,248.9,136.2"/>
		<path class="st1" d="M303.8,136.2h-43.6c-1.2,0-2,0.9-2,2v12.1v15.2v15.2v15.2V208c0,1.1,0.8,2,2,2h43.6c1.2,0,2-0.9,2-2v-11.5
			c0-0.2-0.1-0.4-0.1-0.6c-0.3-0.8-1-1.4-1.9-1.4h-29.2v-13.8v-0.4h24c1.1,0,2-0.8,2-2v-11.5c0-0.5-0.2-0.9-0.5-1.3
			c-0.4-0.4-0.9-0.7-1.5-0.7h-24v-13.1h29.2c0.9,0,1.6-0.6,1.9-1.4c0.1-0.2,0.1-0.4,0.1-0.6v-11.5
			C305.8,137.2,304.9,136.2,303.8,136.2"/>
		<path class="st1" d="M418.9,136.2h-46.8c-1.2,0-2,0.9-2,2v11.5c0,0.2,0.1,0.4,0.1,0.6c0.3,0.8,1,1.4,1.9,1.4h15.1v13.8v15.2v15.2
			V208c0,1.1,0.9,2,2,2h12.6c1.1,0,2-0.9,2-2v-12.1v-15.2v-15.2v-13.8h15.1c0.9,0,1.6-0.6,1.9-1.4c0.1-0.2,0.1-0.4,0.1-0.6v-11.5
			C420.9,137.2,420.1,136.2,418.9,136.2"/>
		<path class="st1" d="M563.6,136.2H520c-1.2,0-2,0.9-2,2v12.1v15.2v15.2v15.2V208c0,1.1,0.8,2,2,2h43.6c1.2,0,2-0.9,2-2v-11.5
			c0-0.2-0.1-0.4-0.1-0.6c-0.3-0.8-1-1.4-1.9-1.4h-29.2v-13.8v-0.4h24c1.1,0,2-0.8,2-2v-11.5c0-0.5-0.2-0.9-0.5-1.3
			c-0.4-0.4-0.9-0.7-1.5-0.7h-24v-13.1h29.2c0.9,0,1.6-0.6,1.9-1.4c0.1-0.2,0.1-0.4,0.1-0.6v-11.5
			C565.6,137.2,564.8,136.2,563.6,136.2"/>
		<path class="st1" d="M640.2,136.2h-12.6c-1.2,0-2,0.9-2,2v12.1v15.2v10.1h-0.1l-10.5-10.1l-15.8-15.2L585,136.8
			c-0.8-0.8-1.6-1.6-2.6-1.6h0h-1.6h0c-1.1,0-2,0.8-2,1.9l0,13.3l0,15.2l0,15.2l0,15.2l0,12.1c0,1.1,0.9,2,2,2h12.5c1.2,0,2-0.9,2-2
			v-12.1v-15.2v-12h0.1l12,12l15.1,15.2l13.9,14c0.8,0.8,1.6,1.2,2.6,1.2h1.1c1.1,0,2-0.6,2-1.9v-13.3v-15.2v-15.2v-15.2v-12.1
			C642.2,137.2,641.2,136.2,640.2,136.2"/>
		<path class="st1" d="M699.6,136.2h-46.8c-1.2,0-2,0.9-2,2v11.5c0,0.2,0.1,0.4,0.1,0.6c0.3,0.8,1,1.4,1.9,1.4h15.1v13.8v15.2v15.2
			V208c0,1.1,0.9,2,2,2h12.6c1.1,0,2-0.9,2-2v-12.1v-15.2v-15.2v-13.8h15.1c0.9,0,1.6-0.6,1.9-1.4c0.1-0.2,0.1-0.4,0.1-0.6v-11.5
			C701.6,137.2,700.8,136.2,699.6,136.2"/>
		<path class="st1" d="M343.9,165.5c-0.2-0.1-0.4-0.2-0.7-0.3c-7.4-3.6-11.5-6.3-11.5-9.8c0-2.1,1-4,3-5.1c0.9-0.5,2-0.7,3.4-0.7
			c1.5,0,3,0.3,4.5,0.7c4.1,1.2,8,3.7,9.7,5c2.1,1.3,3.9,0.4,4.6-0.7l2.8-4.2l2.6-3.9c0.4-0.7,0.6-2.6-0.6-3.4
			c-3.2-2.3-11.6-7.9-22.5-7.9h0h0c-13.2,0-21,7-23.5,15.2c-0.6,1.9-0.9,3.8-0.9,5.8c0,3.7,0.9,6.7,2.3,9.4
			c3.6,6.5,10.8,10.4,18.1,13.9c0.9,0.4,1.7,0.8,2.5,1.3c5.4,2.9,8.4,5.5,8.4,9.4c0,2.7-1.7,4.9-4.2,5.8c-0.9,0.3-1.9,0.5-3,0.5
			c-1.5,0-2.9-0.2-4.2-0.5c-4.7-1.1-8.4-3.7-10.7-5.3c-1.1-0.7-2.7-0.7-3.6,0.6l-2.6,4.6l-2.2,3.9c-0.7,1.4-0.4,2.3,0.4,3.2
			c2.4,2.4,10,8.1,23.7,8.1c12.3,0,20.7-6.9,23.7-15.2c0.8-2.2,1.2-4.4,1.2-6.6c0-3.3-0.7-6.1-1.8-8.5
			C359.2,172.8,350.9,168.9,343.9,165.5"/>
		<path class="st1" d="M501.8,180.7l-2.5-15.2l-2.6-15.2l-2.3-13.5c-0.1-0.9-1.1-1.7-1.9-1.7h0h-1.7h0c-0.5,0-1.5,0.4-1.8,1.1
			l-7.6,14.1l-8.1,15.2l-8.1,15.2l-0.6,1.1h-0.2l-0.6-1.1l-8.1-15.2l-8.1-15.2l-7.6-14.1c-0.3-0.6-1.3-1.1-1.8-1.1h0h-1.7h0
			c-0.8,0-1.8,0.7-1.9,1.7l-2.3,13.5l-2.6,15.2l-2.6,15.2l-2.6,15.2l-2,11.8c-0.2,1.4,0.7,2.3,2,2.3h12.4c1.1,0,1.9-0.8,2-1.7
			l1.8-12.4l2.2-15.2l0.7-5h0.2l2.6,5l7.9,15.2l7.3,14c0.3,0.6,1.2,1.2,1.8,1.2h1.9c0.5,0,1.5-0.5,1.8-1.2l7.3-14l7.9-15.2l2.6-5
			h0.2l0.7,5l2.2,15.2l1.8,12.4c0.1,0.8,1.1,1.7,2,1.7h12.4c1.3,0,2.2-0.9,2-2.3l-2-11.8L501.8,180.7z"/>
		<g class="st2">
			<g>
				<path class="st1" d="M231.4,314.6h-26.6c3.6,6.5,10.8,10.4,18.1,13.9c0.9,0.4,1.7,0.8,2.5,1.3c5.4,2.9,8.4,5.5,8.4,9.4
					c0,2.7-1.7,4.9-4.2,5.8c-0.9,0.3-1.9,0.5-3,0.5c-1.5,0-2.9-0.2-4.2-0.5c-4.7-1.1-8.4-3.7-10.7-5.3c-1.1-0.7-2.7-0.7-3.6,0.6
					l-2.6,4.6l-2.2,3.9c-0.7,1.4-0.4,2.3,0.4,3.2c2.4,2.4,10,8.1,23.7,8.1c12.3,0,20.7-6.9,23.7-15.2c0.8-2.2,1.2-4.4,1.2-6.6
					c0-3.3-0.7-6.1-1.8-8.5C246.7,321.9,238.4,318,231.4,314.6"/>
			</g>
		</g>
		<g class="st2">
			<g>
				<path class="st1" d="M305.7,329.8v1.5c0,7.7-5.6,12-13.2,12c-7.5,0-13-4.3-13-12v-1.5v-15.2h-17v15.2v2.3c0,4.7,1.2,9,3.2,12.9
					c4.9,9.2,15,15.2,26.7,15.2c11.8,0,21.9-6,26.9-15.2c2.1-3.8,3.3-8.2,3.3-12.9v-2.3v-15.2h-17V329.8z"/>
			</g>
		</g>
		<g class="st2">
			<g>
				<path class="st1" d="M395.2,329.8V345v12.1c0,1.1,0.9,2,2,2h12.6c1.1,0,2-0.9,2-2V345v-15.2v-15.2h-16.6V329.8z"/>
			</g>
		</g>
		<g class="st2">
			<g>
				<path class="st1" d="M191.3,343.6h-29.2v-13.8v-0.4h24c1.1,0,2-0.8,2-2v-11.5c0-0.5-0.2-0.9-0.5-1.3h-41.9v15.2V345v12.1
					c0,1.1,0.8,2,2,2h43.6c1.2,0,2-0.9,2-2v-11.5c0-0.2-0.1-0.4-0.1-0.6C192.9,344.2,192.2,343.6,191.3,343.6"/>
			</g>
		</g>
		<g class="st2">
			<g>
				<path class="st1" d="M379.6,343.6h-25.1v-13.8v-15.2H338v15.2V345v12.1c0,1.1,0.8,2,2,2h39.6c1.2,0,2-0.9,2-2v-11.5
					c0-0.2-0.1-0.4-0.1-0.6C381.3,344.2,380.6,343.6,379.6,343.6"/>
			</g>
		</g>
		<g class="st2">
			<g>
				<path class="st1" d="M483.4,329.8c-3.5-7.9-11.9-11.8-18.9-15.2h-26.6c3.6,6.5,10.8,10.4,18.1,13.9c0.9,0.4,1.7,0.8,2.5,1.3
					c5.4,2.9,8.4,5.5,8.4,9.4c0,2.7-1.7,4.9-4.2,5.8c-0.9,0.3-1.9,0.5-3,0.5c-1.5,0-2.9-0.2-4.2-0.5c-4.7-1.1-8.4-3.7-10.7-5.3
					c-1.1-0.7-2.7-0.7-3.6,0.6l-2.6,4.6l-2.2,3.9c-0.7,1.4-0.4,2.3,0.4,3.2c2.4,2.4,10,8.1,23.7,8.1c12.3,0,20.7-6.9,23.7-15.2
					c0.8-2.2,1.2-4.4,1.2-6.6C485.1,335,484.5,332.2,483.4,329.8"/>
			</g>
		</g>
		<g class="st2">
			<g>
				<path class="st1" d="M126.2,345l-8.2-15.2l-0.3-0.5c7.5-2.8,12.6-8,14.6-14.6h-17.9c-1.4,1.4-3.4,2.2-5.4,2.2H93.4v-2.2H76.8
					v15.2V345v12.1c0,1.1,0.8,2,2,2h12.5c1.1,0,2-0.9,2-2V345v-14.8h7.3L108,345l6.6,13.2c0.2,0.4,0.8,0.9,1.7,0.9h14
					c1.8,0,2.5-1.7,1.8-3.1L126.2,345z"/>
			</g>
		</g>
		<g class="st3">
			<g>
				<path class="st1" d="M191.3,385.5h-29.2v-13.8h-16.4v15.2V399c0,1.1,0.8,2,2,2h43.6c1.2,0,2-0.9,2-2v-11.5
					c0-0.2-0.1-0.4-0.1-0.6C192.9,386.1,192.2,385.5,191.3,385.5"/>
			</g>
		</g>
		<g class="st3">
			<g>
				<path class="st1" d="M225.3,371.7c5.4,2.9,8.4,5.5,8.4,9.4c0,2.7-1.7,4.9-4.2,5.8c-0.9,0.3-1.9,0.5-3,0.5
					c-1.5,0-2.9-0.2-4.2-0.5c-4.7-1.1-8.4-3.7-10.7-5.3c-1.1-0.7-2.7-0.7-3.6,0.6l-2.6,4.6l-2.2,3.9c-0.7,1.4-0.4,2.3,0.4,3.2
					c2.4,2.4,10,8.1,23.7,8.1c12.3,0,20.7-6.9,23.7-15.2c0.8-2.2,1.2-4.4,1.2-6.6c0-3.3-0.7-6.1-1.8-8.5H225.3z"/>
			</g>
		</g>
		<g class="st3">
			<g>
				<path class="st1" d="M305.7,373.2c0,7.7-5.6,12-13.2,12c-7.5,0-13-4.3-13-12v-1.5h-17v2.3c0,4.7,1.2,9,3.2,12.9
					c4.9,9.2,15,15.2,26.7,15.2c11.8,0,21.9-6,26.9-15.2c2.1-3.8,3.3-8.2,3.3-12.9v-2.3h-17V373.2z"/>
			</g>
		</g>
		<g class="st3">
			<g>
				<path class="st1" d="M379.6,385.5h-25.1v-13.8H338v15.2V399c0,1.1,0.8,2,2,2h39.6c1.2,0,2-0.9,2-2v-11.5c0-0.2-0.1-0.4-0.1-0.6
					C381.3,386.1,380.6,385.5,379.6,385.5"/>
			</g>
		</g>
		<g class="st3">
			<g>
				<path class="st1" d="M395.2,386.9V399c0,1.1,0.9,2,2,2h12.6c1.1,0,2-0.9,2-2v-12.1v-15.2h-16.6V386.9z"/>
			</g>
		</g>
		<g class="st3">
			<g>
				<path class="st1" d="M483.4,371.7h-24.9c5.4,2.9,8.4,5.5,8.4,9.4c0,2.7-1.7,4.9-4.2,5.8c-0.9,0.3-1.9,0.5-3,0.5
					c-1.5,0-2.9-0.2-4.2-0.5c-4.7-1.1-8.4-3.7-10.7-5.3c-1.1-0.7-2.7-0.7-3.6,0.6l-2.6,4.6l-2.2,3.9c-0.7,1.4-0.4,2.3,0.4,3.2
					c2.4,2.4,10,8.1,23.7,8.1c12.3,0,20.7-6.9,23.7-15.2c0.8-2.2,1.2-4.4,1.2-6.6C485.1,376.9,484.5,374.1,483.4,371.7"/>
			</g>
		</g>
		<g class="st3">
			<g>
				<path class="st1" d="M126.2,386.9l-8.2-15.2H76.8v15.2V399c0,1.1,0.8,2,2,2h12.5c1.1,0,2-0.9,2-2v-12.1v-14.8h7.3l7.4,14.8
					l6.6,13.2c0.2,0.4,0.8,0.9,1.7,0.9h14c1.8,0,2.5-1.7,1.8-3.1L126.2,386.9z"/>
			</g>
		</g>
		<g class="st4">
			<g>
				<path class="st1" d="M78.8,428.9h12.5c1.1,0,2-0.9,2-2v-12.1H76.8v12.1C76.8,428,77.7,428.9,78.8,428.9"/>
			</g>
		</g>
		<g class="st4">
			<g>
				<path class="st1" d="M114.6,428c0.2,0.4,0.8,0.9,1.7,0.9h14c1.8,0,2.5-1.7,1.8-3.1l-6-11.1H108L114.6,428z"/>
			</g>
		</g>
		<g class="st4">
			<g>
				<path class="st1" d="M145.7,426.9c0,1.1,0.8,2,2,2h43.6c1.2,0,2-0.9,2-2v-11.5c0-0.2-0.1-0.4-0.1-0.6h-47.5V426.9z"/>
			</g>
		</g>
		<g class="st4">
			<g>
				<path class="st1" d="M250.8,414.8h-21.4c-0.9,0.3-1.9,0.5-3,0.5c-1.5,0-2.9-0.2-4.2-0.5h-16.9l-2.2,3.9
					c-0.7,1.4-0.4,2.3,0.4,3.2c2.4,2.4,10,8.1,23.7,8.1C239.4,430,247.8,423.1,250.8,414.8"/>
			</g>
		</g>
		<g class="st4">
			<g>
				<path class="st1" d="M319.4,414.8h-53.6c4.9,9.2,15,15.2,26.7,15.2C304.3,430,314.5,424,319.4,414.8"/>
			</g>
		</g>
		<g class="st4">
			<g>
				<path class="st1" d="M338,426.9c0,1.1,0.8,2,2,2h39.6c1.2,0,2-0.9,2-2v-11.5c0-0.2-0.1-0.4-0.1-0.6H338V426.9z"/>
			</g>
		</g>
		<g class="st4">
			<g>
				<path class="st1" d="M395.2,426.9c0,1.1,0.9,2,2,2h12.6c1.1,0,2-0.9,2-2v-12.1h-16.6V426.9z"/>
			</g>
		</g>
		<g class="st4">
			<g>
				<path class="st1" d="M484,414.8h-21.4c-0.9,0.3-1.9,0.5-3,0.5c-1.5,0-2.9-0.2-4.2-0.5h-16.9l-2.2,3.9c-0.7,1.4-0.4,2.3,0.4,3.2
					c2.4,2.4,10,8.1,23.7,8.1C472.6,430,481,423.1,484,414.8"/>
			</g>
		</g>
		<g class="st2">
			<g>
				<path class="st1" d="M91.5,76.5H78.8c-1.1,0-2,0.9-2,2v12.1v15.2V121h16.6v-15.2V90.6V78.5C93.5,77.5,92.5,76.5,91.5,76.5"/>
			</g>
		</g>
		<g class="st2">
			<g>
				<path class="st1" d="M170.6,76.5H158c-1.2,0-2,0.9-2,2v12.1v15.2v10.1h-0.1l-10.5-10.1l-15.8-15.2L115.4,77
					c-0.8-0.8-1.6-1.6-2.6-1.6h0h-1.6h0c-1.1,0-2,0.8-2,1.9l0,13.3l0,15.2l0,15.2h16.6v-12h0.1l12,12h34.7v-15.2V90.6V78.5
					C172.6,77.5,171.7,76.5,170.6,76.5"/>
			</g>
		</g>
		<g class="st2">
			<g>
				<path class="st1" d="M248.9,76.5h-14c-0.8,0-1.6,0.6-1.8,1.2l-5.9,13l-6.9,15.2l-4.7,10.3h-0.6l-4.7-10.3l-6.9-15.2l-5.9-13
					c-0.2-0.5-0.9-1.2-1.8-1.2h-14c-1.6,0-2.4,1.4-1.8,2.7l5.3,11.4l7,15.2l7,15.2h31.8l7.1-15.2l7.1-15.2l5.3-11.4
					C251.4,77.9,250.5,76.5,248.9,76.5"/>
			</g>
		</g>
		<g class="st2">
			<g>
				<path class="st1" d="M303.8,76.5h-43.6c-1.2,0-2,0.9-2,2v12.1v15.2V121h16.4v-0.4h24c1.1,0,2-0.8,2-2v-11.5
					c0-0.5-0.2-0.9-0.5-1.3c-0.4-0.4-0.9-0.7-1.5-0.7h-24V92h29.2c0.9,0,1.6-0.6,1.9-1.4c0.1-0.2,0.1-0.4,0.1-0.6V78.5
					C305.8,77.5,304.9,76.5,303.8,76.5"/>
			</g>
		</g>
		<g class="st2">
			<g>
				<path class="st1" d="M418.9,76.5h-46.8c-1.2,0-2,0.9-2,2V90c0,0.2,0.1,0.4,0.1,0.6c0.3,0.8,1,1.4,1.9,1.4h15.1v13.8V121h16.6
					v-15.2V92h15.1c0.9,0,1.6-0.6,1.9-1.4c0.1-0.2,0.1-0.4,0.1-0.6V78.5C420.9,77.5,420.1,76.5,418.9,76.5"/>
			</g>
		</g>
		<g class="st2">
			<g>
				<path class="st1" d="M563.6,76.5H520c-1.2,0-2,0.9-2,2v12.1v15.2V121h16.4v-0.4h24c1.1,0,2-0.8,2-2v-11.5c0-0.5-0.2-0.9-0.5-1.3
					c-0.4-0.4-0.9-0.7-1.5-0.7h-24V92h29.2c0.9,0,1.6-0.6,1.9-1.4c0.1-0.2,0.1-0.4,0.1-0.6V78.5C565.6,77.5,564.8,76.5,563.6,76.5"
					/>
			</g>
		</g>
		<g class="st2">
			<g>
				<path class="st1" d="M640.2,76.5h-12.6c-1.2,0-2,0.9-2,2v12.1v15.2v10.1h-0.1l-10.5-10.1l-15.8-15.2L585,77
					c-0.8-0.8-1.6-1.6-2.6-1.6h0h-1.6h0c-1.1,0-2,0.8-2,1.9l0,13.3l0,15.2l0,15.2h16.6v-12h0.1l12,12h34.7v-15.2V90.6V78.5
					C642.2,77.5,641.2,76.5,640.2,76.5"/>
			</g>
		</g>
		<g class="st2">
			<g>
				<path class="st1" d="M699.6,76.5h-46.8c-1.2,0-2,0.9-2,2V90c0,0.2,0.1,0.4,0.1,0.6c0.3,0.8,1,1.4,1.9,1.4h15.1v13.8V121h16.6
					v-15.2V92h15.1c0.9,0,1.6-0.6,1.9-1.4c0.1-0.2,0.1-0.4,0.1-0.6V78.5C701.6,77.5,700.8,76.5,699.6,76.5"/>
			</g>
		</g>
		<g class="st2">
			<g>
				<path class="st1" d="M496.7,90.6l-2.3-13.5c-0.1-0.9-1.1-1.7-1.9-1.7h0h-1.7h0c-0.5,0-1.5,0.4-1.8,1.1l-7.6,14.1l-8.1,15.2
					l-8.1,15.2h17.2l2.6-5h0.2l0.7,5h15.9l-2.5-15.2L496.7,90.6z"/>
			</g>
		</g>
		<g class="st2">
			<g>
				<path class="st1" d="M447.6,90.6L440,76.5c-0.3-0.6-1.3-1.1-1.8-1.1h0h-1.7h0c-0.8,0-1.8,0.7-1.9,1.7l-2.3,13.5l-2.6,15.2
					l-2.5,15.2h15.8l0.7-5h0.2l2.6,5h17.3l-8.1-15.2L447.6,90.6z"/>
			</g>
		</g>
		<g class="st2">
			<g>
				<path class="st1" d="M343.9,105.8c-0.2-0.1-0.4-0.2-0.7-0.3c-7.4-3.6-11.5-6.3-11.5-9.8c0-2.1,1-4,3-5.1c0.9-0.5,2-0.7,3.4-0.7
					c1.5,0,3,0.3,4.5,0.7c4.1,1.2,8,3.7,9.7,5c2.1,1.3,3.9,0.4,4.6-0.7l2.8-4.2l2.6-3.9c0.4-0.7,0.6-2.6-0.6-3.4
					c-3.2-2.3-11.6-7.9-22.5-7.9h0h0c-13.2,0-21,7-23.5,15.2c-0.6,1.9-0.9,3.8-0.9,5.8c0,3.7,0.9,6.7,2.3,9.4
					c3.6,6.5,10.8,10.4,18.1,13.9c0.9,0.4,1.7,0.8,2.5,1.3h24.9C359.2,113.1,350.9,109.2,343.9,105.8"/>
			</g>
		</g>
		<g class="st3">
			<g>
				<path class="st1" d="M91.5,34.6H78.8c-1.1,0-2,0.9-2,2v12.1v15.2h16.6V48.7V36.6C93.5,35.5,92.5,34.6,91.5,34.6"/>
			</g>
		</g>
		<g class="st3">
			<g>
				<path class="st1" d="M115.4,35.1c-0.8-0.8-1.6-1.6-2.6-1.6h0h-1.6h0c-1.1,0-2,0.8-2,1.9l0,13.3l0,15.2h36.1l-15.8-15.2
					L115.4,35.1z"/>
			</g>
		</g>
		<g class="st3">
			<g>
				<path class="st1" d="M170.6,34.6H158c-1.2,0-2,0.9-2,2v12.1v15.2h16.6V48.7V36.6C172.6,35.5,171.7,34.6,170.6,34.6"/>
			</g>
		</g>
		<g class="st3">
			<g>
				<path class="st1" d="M248.9,34.6h-14c-0.8,0-1.6,0.6-1.8,1.2l-5.9,13l-6.9,15.2h17.9l7.1-15.2l5.3-11.4
					C251.4,36,250.5,34.6,248.9,34.6"/>
			</g>
		</g>
		<g class="st3">
			<g>
				<path class="st1" d="M197.7,35.8c-0.2-0.5-0.9-1.2-1.8-1.2h-14c-1.6,0-2.4,1.4-1.8,2.7l5.3,11.4l7,15.2h18l-6.9-15.2L197.7,35.8
					z"/>
			</g>
		</g>
		<g class="st3">
			<g>
				<path class="st1" d="M303.8,34.6h-43.6c-1.2,0-2,0.9-2,2v12.1v15.2h41.9c-0.4-0.4-0.9-0.7-1.5-0.7h-24V50.1h29.2
					c0.9,0,1.6-0.6,1.9-1.4c0.1-0.2,0.1-0.4,0.1-0.6V36.6C305.8,35.5,304.9,34.6,303.8,34.6"/>
			</g>
		</g>
		<g class="st3">
			<g>
				<path class="st1" d="M339.2,33.5L339.2,33.5L339.2,33.5c-13.2,0-21,7-23.5,15.2c-0.6,1.9-0.9,3.8-0.9,5.8c0,3.7,0.9,6.7,2.3,9.4
					h26.6c-0.2-0.1-0.4-0.2-0.7-0.3c-7.4-3.6-11.5-6.3-11.5-9.8c0-2.1,1-4,3-5.1c0.9-0.5,2-0.7,3.4-0.7c1.5,0,3,0.3,4.5,0.7
					c4.1,1.2,8,3.7,9.7,5c2.1,1.3,3.9,0.4,4.6-0.7l2.8-4.2l2.6-3.9c0.4-0.7,0.6-2.6-0.6-3.4C358.6,39.1,350.2,33.5,339.2,33.5"/>
			</g>
		</g>
		<g class="st3">
			<g>
				<path class="st1" d="M418.9,34.6h-46.8c-1.2,0-2,0.9-2,2v11.5c0,0.2,0.1,0.4,0.1,0.6c0.3,0.8,1,1.4,1.9,1.4h15.1v13.8h16.6V50.1
					h15.1c0.9,0,1.6-0.6,1.9-1.4c0.1-0.2,0.1-0.4,0.1-0.6V36.6C420.9,35.5,420.1,34.6,418.9,34.6"/>
			</g>
		</g>
		<g class="st3">
			<g>
				<path class="st1" d="M440,34.6c-0.3-0.6-1.3-1.1-1.8-1.1h0h-1.7h0c-0.8,0-1.8,0.7-1.9,1.7l-2.3,13.5l-2.6,15.2h25.9l-8.1-15.2
					L440,34.6z"/>
			</g>
		</g>
		<g class="st3">
			<g>
				<path class="st1" d="M494.5,35.2c-0.1-0.9-1.1-1.7-1.9-1.7h0h-1.7h0c-0.5,0-1.5,0.4-1.8,1.1l-7.6,14.1l-8.1,15.2h25.9l-2.6-15.2
					L494.5,35.2z"/>
			</g>
		</g>
		<g class="st3">
			<g>
				<path class="st1" d="M563.6,34.6H520c-1.2,0-2,0.9-2,2v12.1v15.2h41.9c-0.4-0.4-0.9-0.7-1.5-0.7h-24V50.1h29.2
					c0.9,0,1.6-0.6,1.9-1.4c0.1-0.2,0.1-0.4,0.1-0.6V36.6C565.6,35.5,564.8,34.6,563.6,34.6"/>
			</g>
		</g>
		<g class="st3">
			<g>
				<path class="st1" d="M640.2,34.6h-12.6c-1.2,0-2,0.9-2,2v12.1v15.2h16.6V48.7V36.6C642.2,35.5,641.2,34.6,640.2,34.6"/>
			</g>
		</g>
		<g class="st3">
			<g>
				<path class="st1" d="M585,35.1c-0.8-0.8-1.6-1.6-2.6-1.6h0h-1.6h0c-1.1,0-2,0.8-2,1.9l0,13.3l0,15.2h36.1l-15.8-15.2L585,35.1z"
					/>
			</g>
		</g>
		<g class="st3">
			<g>
				<path class="st1" d="M699.6,34.6h-46.8c-1.2,0-2,0.9-2,2v11.5c0,0.2,0.1,0.4,0.1,0.6c0.3,0.8,1,1.4,1.9,1.4h15.1v13.8h16.6V50.1
					h15.1c0.9,0,1.6-0.6,1.9-1.4c0.1-0.2,0.1-0.4,0.1-0.6V36.6C701.6,35.5,700.8,34.6,699.6,34.6"/>
			</g>
		</g>
		<g class="st4">
			<g>
				<path class="st1" d="M699.6,1.1h-46.8c-1.2,0-2,0.9-2,2v11.5c0,0.2,0.1,0.4,0.1,0.6h50.5c0.1-0.2,0.1-0.4,0.1-0.6V3.1
					C701.6,2,700.8,1.1,699.6,1.1 M578.8,1.9l0,13.3h20.3L585,1.6c-0.8-0.8-1.6-1.6-2.6-1.6h-1.6C579.7,0,578.8,0.8,578.8,1.9
					 M642.2,3.1c0-1.1-0.9-2-2-2h-12.6c-1.2,0-2,0.9-2,2v12.1h16.6V3.1z M565.6,14.5V3.1c0-1.1-0.8-2-2-2H520c-1.2,0-2,0.9-2,2v12.1
					h47.5C565.5,15,565.6,14.8,565.6,14.5 M489.1,1.1l-7.6,14.1h15.2l-2.3-13.5c-0.1-0.9-1.1-1.7-1.9-1.7h-1.7
					C490.4,0,489.4,0.4,489.1,1.1 M434.6,1.7l-2.3,13.5h15.2L440,1.1c-0.3-0.6-1.3-1.1-1.8-1.1h-1.7C435.7,0,434.7,0.7,434.6,1.7
					 M420.9,14.5V3.1c0-1.1-0.8-2-2-2h-46.8c-1.2,0-2,0.9-2,2v11.5c0,0.2,0.1,0.4,0.1,0.6h50.5C420.9,15,420.9,14.8,420.9,14.5
					 M315.7,15.2h19c0.9-0.5,2-0.7,3.4-0.7c1.5,0,3,0.3,4.5,0.7h17.2l2.6-3.9c0.4-0.7,0.6-2.6-0.6-3.4C358.6,5.6,350.2,0,339.2,0h0
					C326,0,318.2,7,315.7,15.2 M305.8,14.5V3.1c0-1.1-0.8-2-2-2h-43.6c-1.2,0-2,0.9-2,2v12.1h47.5C305.7,15,305.8,14.8,305.8,14.5
					 M197.7,2.2c-0.2-0.5-0.9-1.2-1.8-1.2h-14c-1.6,0-2.4,1.4-1.8,2.7l5.3,11.4h18.2L197.7,2.2z M250.7,3.8c0.6-1.4-0.2-2.7-1.8-2.7
					h-14c-0.8,0-1.6,0.6-1.8,1.2l-5.9,13h18.1L250.7,3.8z M172.6,3.1c0-1.1-0.9-2-2-2H158c-1.2,0-2,0.9-2,2v12.1h16.6V3.1z
					 M109.2,1.9l0,13.3h20.3L115.4,1.6c-0.8-0.8-1.6-1.6-2.6-1.6h-1.6C110.1,0,109.2,0.8,109.2,1.9 M93.5,3.1c0-1.1-0.9-2-2-2H78.8
					c-1.1,0-2,0.9-2,2v12.1h16.6V3.1z M582.3,0h-1.6h0H582.3L582.3,0z M438.2,0h-1.7h0H438.2L438.2,0z M492.6,0h-1.7h0H492.6
					L492.6,0z M339.2,0L339.2,0L339.2,0L339.2,0z M112.8,0h-1.6h0H112.8L112.8,0z"/>
			</g>
		</g>
	</g>
</g>
</svg>
