<?xml version="1.0" encoding="utf-8"?>
<!-- Generator: Adobe Illustrator 25.4.1, SVG Export Plug-In . SVG Version: 6.00 Build 0)  -->
<svg version="1.1" id="Capa_1" xmlns="http://www.w3.org/2000/svg" xmlns:xlink="http://www.w3.org/1999/xlink" x="0px" y="0px"
	 viewBox="0 0 820 430" style="enable-background:new 0 0 820 430;" xml:space="preserve">
<style type="text/css">
	.st0{fill:#FFFFFF;}
	.st1{opacity:0.3;}
	.st2{opacity:0.15;}
</style>
<g>
	<g>
		<path class="st0" d="M469.4,223.6h-12c-1.1,0-1.8,0.9-1.8,1.8v11.2v14v14v1.4c0,7.1-5.2,11.1-12.1,11.1s-12-4-12-11.1v-1.4v-14
			v-14v-11.2c0-1-0.8-1.8-1.8-1.8h-12c-1,0-1.8,0.9-1.8,1.8v11.2v14v14v2.1c0,4.3,1.1,8.3,3,11.9c4.5,8.5,13.8,14,24.6,14
			c10.8,0,20.2-5.5,24.8-14c1.9-3.5,3-7.5,3-11.9v-2.1v-14v-14v-11.2C471.3,224.5,470.4,223.6,469.4,223.6"/>
		<path class="st0" d="M542,223.6h-11.7c-1.1,0-1.8,0.9-1.8,1.8v11.2v14v9.3h-0.1l-9.7-9.3l-14.6-14l-13-12.5
			c-0.8-0.8-1.5-1.5-2.4-1.5h-1.5c-1,0-1.8,0.8-1.8,1.7v12.2v14v14v14v11.2c0,1,0.9,1.8,1.8,1.8h11.7c1.1,0,1.8-0.9,1.8-1.8v-11.2
			v-14v-11.1h0.1l11,11.1l13.9,14l12.9,12.9c0.8,0.8,1.5,1.1,2.4,1.1h1c1,0,1.8-0.6,1.8-1.7v-12.2v-14v-14v-14v-11.2
			C543.9,224.5,543,223.6,542,223.6"/>
		<path class="st0" d="M572.1,223.6h-11.7c-1,0-1.8,0.9-1.8,1.8v11.2v14v14v14v11.2c0,1,0.9,1.8,1.8,1.8h11.7c1,0,1.8-0.9,1.8-1.8
			v-11.2v-14v-14v-14v-11.2C573.9,224.5,573.1,223.6,572.1,223.6"/>
		<path class="st0" d="M626.8,223.6h-43.1c-1.1,0-1.8,0.9-1.8,1.8V236c0,0.2,0.1,0.4,0.1,0.6c0.2,0.7,0.9,1.3,1.7,1.3h13.9v12.7v14
			v14v11.2c0,1,0.9,1.8,1.8,1.8h11.7c1,0,1.8-0.9,1.8-1.8v-11.2v-14v-14v-12.7h13.9c0.8,0,1.5-0.6,1.7-1.3c0.1-0.2,0.1-0.4,0.1-0.6
			v-10.6C628.6,224.5,627.8,223.6,626.8,223.6"/>
		<path class="st0" d="M650.1,223.6h-11.7c-1,0-1.8,0.9-1.8,1.8v11.2v14v14v14v11.2c0,1,0.9,1.8,1.8,1.8h11.7c1,0,1.8-0.9,1.8-1.8
			v-11.2v-14v-14v-14v-11.2C651.9,224.5,651,223.6,650.1,223.6"/>
		<path class="st0" d="M708.6,223.6h-40.2c-1.1,0-1.8,0.9-1.8,1.8v11.2v14v14v14v11.2c0,1,0.8,1.8,1.8,1.8h40.2
			c1.1,0,1.8-0.9,1.8-1.8v-10.6c0-0.2-0.1-0.4-0.1-0.6c-0.2-0.7-0.9-1.3-1.7-1.3h-26.9v-12.7v-0.4h22.2c1,0,1.8-0.8,1.8-1.8v-10.6
			c0-0.4-0.2-0.8-0.5-1.2s-0.8-0.7-1.4-0.7h-22.2v-12h26.9c0.8,0,1.5-0.6,1.7-1.3c0.1-0.2,0.1-0.4,0.1-0.6v-10.6
			C710.4,224.5,709.6,223.6,708.6,223.6"/>
		<path class="st0" d="M142,237.3c4.8,0,9.1,1.5,13.1,5c0.7,0.7,1.7,0.7,2.4,0l5.4-5.6l2.2-2.2c0.8-0.8,0.8-1.9-0.1-2.7
			c-6.6-6-13.8-9-23.5-9c-11.5,0-21.6,5.5-28,14c-3.1,4.1-5.3,8.8-6.3,14c-0.5,2.3-0.7,4.7-0.7,7.1s0.2,4.7,0.7,6.9
			c1,5.2,3.2,9.9,6.3,14c6.4,8.5,16.6,14,28.1,14c8.7,0,17-3,23.6-9.4c0.7-0.7,0.8-1.9,0.1-2.6l-1.8-1.9l-5.8-6.1
			c-0.6-0.7-1.8-0.7-2.5-0.1c-3.5,3-7.7,4.7-13,4.7c-8.4,0-15.1-5.2-17.8-12.4c-0.9-2.3-1.3-4.7-1.3-7.3c0-2.3,0.4-4.6,1.1-6.7
			C126.5,243,133.3,237.3,142,237.3"/>
		<path class="st0" d="M204.3,277.1c-8.2,0-15.2-5.2-18-12.4c-0.8-2.2-1.3-4.5-1.3-6.9c0-2.5,0.5-4.9,1.4-7.1
			c2.8-7.2,9.9-12.4,18-12.4c8.2,0,15.2,5.2,18.1,12.4c0.9,2.2,1.4,4.6,1.4,7.1c0,2.4-0.5,4.7-1.3,6.9
			C219.6,271.9,212.5,277.1,204.3,277.1 M232.3,236.6c-6.4-8.5-16.5-14-28-14s-21.6,5.5-27.9,14c-3,4.1-5.2,8.8-6.3,14
			c-0.5,2.3-0.7,4.7-0.7,7.1s0.2,4.7,0.7,6.9c1,5.2,3.2,9.9,6.2,14c6.3,8.5,16.4,14,28,14s21.7-5.5,28.1-14c3-4.1,5.2-8.8,6.2-14
			c0.4-2.2,0.7-4.5,0.7-6.9c0-2.4-0.2-4.8-0.7-7.1C237.5,245.4,235.3,240.7,232.3,236.6"/>
		<path class="st0" d="M318,264.6l-2.4-14l-2.4-14l-2.1-12.4c-0.1-0.9-1-1.6-1.7-1.6h-1.5c-0.5,0-1.4,0.4-1.7,1l-7,13l-7.5,14
			l-7.5,14l-0.5,1h-0.2l-0.5-1l-7.5-14l-7.5-14l-7-13c-0.3-0.6-1.2-1-1.7-1h-1.6c-0.8,0-1.7,0.7-1.7,1.6l-2.1,12.4l-2.4,14l-2.4,14
			l-2.4,14l-1.8,10.9c-0.2,1.3,0.7,2.1,1.8,2.1h11.5c1,0,1.7-0.8,1.8-1.6l1.6-11.5l2-14l0.7-4.6h0.2l2.4,4.6l7.3,14l6.7,12.9
			c0.3,0.6,1.1,1.1,1.7,1.1h1.7c0.5,0,1.4-0.5,1.7-1.1l6.7-12.9l7.3-14l2.4-4.6h0.2l0.7,4.6l2,14L307,290c0.1,0.8,1,1.6,1.8,1.6
			h11.5c1.2,0,2-0.9,1.8-2.1l-1.8-10.9L318,264.6z"/>
		<path class="st0" d="M402.3,264.6l-2.4-14l-2.4-14l-2.1-12.4c-0.1-0.9-1-1.6-1.7-1.6h-1.6c-0.5,0-1.4,0.4-1.7,1l-7,13l-7.5,14
			l-7.5,14l-0.5,1h-0.2l-0.5-1l-7.5-14l-7.5-14l-7-13c-0.3-0.6-1.2-1-1.7-1h-1.6c-0.8,0-1.7,0.7-1.7,1.6l-2.1,12.4l-2.4,14l-2.4,14
			l-2.4,14l-1.8,10.9c-0.2,1.3,0.7,2.1,1.8,2.1h11.5c1,0,1.8-0.8,1.8-1.6l1.6-11.5l2-14l0.6-4.6h0.2l2.4,4.6l7.3,14l6.7,12.9
			c0.3,0.6,1.1,1.1,1.7,1.1h1.7c0.5,0,1.4-0.5,1.7-1.1l6.7-12.9l7.3-14l2.4-4.6h0.2l0.7,4.6l2,14l1.7,11.5c0.1,0.8,1,1.6,1.8,1.6
			h11.5c1.2,0,2-0.9,1.8-2.1l-1.8-10.9L402.3,264.6z"/>
		<path class="st0" d="M763,264.6c-3.3-7.3-10.9-10.9-17.4-14c-0.2-0.1-0.4-0.2-0.6-0.3c-6.8-3.3-10.6-5.8-10.6-9
			c0-1.9,0.9-3.7,2.8-4.7c0.8-0.4,1.9-0.7,3.1-0.7c1.4,0,2.8,0.3,4.1,0.7c3.8,1.1,7.3,3.4,9,4.6c1.9,1.2,3.6,0.4,4.3-0.7l2.6-3.9
			l2.4-3.6c0.4-0.7,0.6-2.4-0.6-3.1c-2.9-2.1-10.7-7.3-20.8-7.3c-12.2,0-19.4,6.4-21.7,14c-0.5,1.7-0.8,3.5-0.8,5.3
			c0,3.4,0.8,6.2,2.2,8.6c3.3,6,10,9.6,16.7,12.8c0.8,0.4,1.6,0.8,2.3,1.2c5,2.6,7.7,5.1,7.7,8.6c0,2.5-1.5,4.5-3.9,5.3
			c-0.8,0.3-1.8,0.5-2.8,0.5c-1.4,0-2.7-0.2-3.9-0.5c-4.3-1-7.8-3.4-9.9-4.9c-1-0.7-2.5-0.7-3.3,0.6l-2.4,4.3l-2,3.6
			c-0.7,1.3-0.4,2.1,0.4,2.9c2.2,2.2,9.2,7.5,21.9,7.5c11.3,0,19.1-6.4,21.8-14c0.7-2,1.1-4.1,1.1-6.1
			C764.6,269.5,764,266.9,763,264.6"/>
		<path class="st0" d="M119.9,142.4h-11.7c-1,0-1.8,0.9-1.8,1.8v11.2v14v14v14v11.2c0,1,0.9,1.8,1.8,1.8h11.7c1,0,1.8-0.9,1.8-1.8
			v-11.2v-14v-14v-14v-11.2C121.7,143.2,120.9,142.4,119.9,142.4"/>
		<path class="st0" d="M192.9,142.4h-11.7c-1.1,0-1.8,0.9-1.8,1.8v11.2v14v9.3h-0.1l-9.7-9.3l-14.6-14l-13-12.5
			c-0.8-0.8-1.5-1.5-2.4-1.5l0,0h-1.5l0,0c-1,0-1.8,0.8-1.8,1.7v12.2v14v14v14v11.2c0,1,0.9,1.8,1.8,1.8h11.6c1.1,0,1.8-0.9,1.8-1.8
			v-11.2v-14v-11.1h0.1l11,11.1l13.9,14l12.9,12.9c0.8,0.8,1.5,1.1,2.4,1.1h1c1,0,1.8-0.6,1.8-1.7v-12.2v-14v-14v-14v-11.2
			C194.7,143.2,193.9,142.4,192.9,142.4"/>
		<path class="st0" d="M223,142.4h-11.7c-1,0-1.8,0.9-1.8,1.8v11.2v14v14v14v11.2c0,1,0.9,1.8,1.8,1.8H223c1,0,1.8-0.9,1.8-1.8
			v-11.2v-14v-14v-14v-11.2C224.8,143.2,223.9,142.4,223,142.4"/>
		<path class="st0" d="M277.7,142.4h-43.1c-1.1,0-1.8,0.9-1.8,1.8v10.6c0,0.2,0.1,0.4,0.1,0.6c0.2,0.7,0.9,1.3,1.7,1.3h13.9v12.7v14
			v14v11.2c0,1,0.9,1.8,1.8,1.8h11.6c1,0,1.8-0.9,1.8-1.8v-11.2v-14v-14v-12.7h13.9c0.8,0,1.5-0.6,1.7-1.3c0.1-0.2,0.1-0.4,0.1-0.6
			v-10.6C279.5,143.2,278.7,142.4,277.7,142.4"/>
		<path class="st0" d="M301,142.4h-11.7c-1,0-1.8,0.9-1.8,1.8v11.2v14v14v14v11.2c0,1,0.9,1.8,1.8,1.8H301c1,0,1.8-0.9,1.8-1.8
			v-11.2v-14v-14v-14v-11.2C302.8,143.2,301.9,142.4,301,142.4"/>
		<path class="st0" d="M415.8,142.4h-43.1c-1.1,0-1.8,0.9-1.8,1.8v10.6c0,0.2,0.1,0.4,0.1,0.6c0.2,0.7,0.9,1.3,1.7,1.3h13.9v12.7v14
			v14v11.2c0,1,0.9,1.8,1.8,1.8h11.7c1,0,1.8-0.9,1.8-1.8v-11.2v-14v-14v-12.7h13.9c0.8,0,1.5-0.6,1.7-1.3c0.1-0.2,0.1-0.4,0.1-0.6
			v-10.6C417.7,143.2,416.9,142.4,415.8,142.4"/>
		<path class="st0" d="M439.1,142.4h-11.7c-1,0-1.8,0.9-1.8,1.8v11.2v14v14v14v11.2c0,1,0.9,1.8,1.8,1.8h11.7c1,0,1.8-0.9,1.8-1.8
			v-11.2v-14v-14v-14v-11.2C441,143.2,440.1,142.4,439.1,142.4"/>
		<path class="st0" d="M511.2,142.4h-12.9c-0.8,0-1.5,0.6-1.7,1.1l-5.4,12l-6.3,14l-4.3,9.5H480l-4.3-9.5l-6.3-14l-5.4-12
			c-0.2-0.5-0.9-1.1-1.7-1.1h-12.9c-1.5,0-2.2,1.3-1.7,2.5l4.9,10.5l6.5,14l6.5,14l6.5,14l6,12.9c0.3,0.6,0.9,1.1,1.7,1.1h1
			c0.8,0,1.4-0.5,1.7-1.1l6-12.9l6.5-14l6.5-14l6.5-14l4.9-10.5C513.5,143.6,512.7,142.4,511.2,142.4"/>
		<path class="st0" d="M561.8,142.4h-40.2c-1.1,0-1.8,0.9-1.8,1.8v11.2v14v14v14v11.2c0,1,0.8,1.8,1.8,1.8h40.2
			c1.1,0,1.8-0.9,1.8-1.8V198c0-0.2-0.1-0.4-0.1-0.6c-0.2-0.7-0.9-1.3-1.7-1.3h-26.9v-12.7V183h22.2c1,0,1.8-0.8,1.8-1.8v-10.6
			c0-0.4-0.2-0.8-0.5-1.2s-0.8-0.7-1.4-0.7h-22.1v-12.1h26.9c0.8,0,1.5-0.6,1.7-1.3c0.1-0.2,0.1-0.4,0.1-0.6v-10.6
			C563.6,143.2,562.9,142.4,561.8,142.4"/>
		<path class="st0" d="M616.2,183.4c-3.3-7.3-10.9-10.9-17.4-14c-0.2-0.1-0.4-0.2-0.6-0.3c-6.8-3.3-10.6-5.8-10.6-9
			c0-1.9,0.9-3.7,2.8-4.7c0.8-0.4,1.9-0.7,3.1-0.7c1.4,0,2.8,0.3,4.1,0.7c3.8,1.1,7.3,3.4,9,4.6c1.9,1.2,3.6,0.4,4.3-0.7l2.6-3.9
			l2.4-3.6c0.4-0.7,0.6-2.4-0.6-3.1c-2.9-2.1-10.7-7.3-20.8-7.3l0,0l0,0c-12.2,0-19.4,6.4-21.7,14c-0.5,1.7-0.8,3.5-0.8,5.3
			c0,3.4,0.8,6.2,2.2,8.6c3.3,6,10,9.6,16.7,12.8c0.8,0.4,1.6,0.8,2.3,1.2c5,2.6,7.7,5.1,7.7,8.6c0,2.5-1.5,4.5-3.9,5.3
			c-0.8,0.3-1.8,0.5-2.8,0.5c-1.4,0-2.7-0.2-3.9-0.5c-4.3-1-7.8-3.4-9.9-4.9c-1-0.7-2.5-0.7-3.3,0.6l-2.4,4.3l-2,3.6
			c-0.7,1.3-0.4,2.1,0.4,2.9c2.2,2.2,9.2,7.5,21.9,7.5c11.3,0,19.1-6.4,21.8-14c0.7-2,1.1-4.1,1.1-6.1
			C617.8,188.2,617.2,185.6,616.2,183.4"/>
		<path class="st0" d="M342,171L342,171l5.8,12.3l1.7,3.7h-14.8l1.7-3.7L342,171z M369.8,197.4l-6.5-14l-6.5-14l-6.5-14l-6-12.9
			c-0.3-0.6-1-1.1-1.7-1.1l0,0h-1l0,0c-0.7,0-1.4,0.5-1.7,1.1l-6,12.9l-6.5,14l-6.5,14l-6.5,14l-4.9,10.5c-0.6,1.3,0.2,2.5,1.7,2.5
			h10.7c1.9,0,3-1.2,3.5-2.3l3.5-7.8h26.4l3.5,7.7c0.9,1.8,1.7,2.4,3.4,2.4H373c1.5,0,2.2-1.3,1.7-2.5L369.8,197.4z"/>
		<g class="st1">
			<g>
				<path class="st0" d="M222.4,306.9c0.9,2.2,1.4,4.6,1.4,7.1c0,2.4-0.5,4.7-1.3,6.9c-2.8,7.2-9.9,12.4-18.1,12.4
					c-8.2,0-15.2-5.2-18-12.4c-0.8-2.2-1.3-4.5-1.3-6.9c0-2.5,0.5-4.9,1.4-7.1h-16.2c-0.5,2.3-0.7,4.7-0.7,7.1s0.2,4.7,0.7,6.9
					c1,5.2,3.2,9.9,6.2,14c6.3,8.5,16.4,14,28,14s21.7-5.5,28.1-14c3-4.1,5.2-8.8,6.2-14c0.4-2.2,0.7-4.5,0.7-6.9s-0.2-4.8-0.7-7.1
					H222.4z"/>
				<path class="st0" d="M455.6,320.9v1.4c0,7.1-5.2,11.1-12.1,11.1s-12-4-12-11.1v-1.4v-14h-15.6v14v2.1c0,4.3,1.1,8.3,3,11.9
					c4.5,8.5,13.8,14,24.6,14c10.8,0,20.2-5.5,24.8-14c1.9-3.5,3-7.5,3-11.9v-2.1v-14h-15.6L455.6,320.9L455.6,320.9z"/>
				<path class="st0" d="M528.5,316.2L528.5,316.2l-9.8-9.3h-33.3v14v14v11.2c0,1,0.9,1.8,1.8,1.8h11.7c1.1,0,1.8-0.9,1.8-1.8v-11.2
					v-14v-11.1h0.1l11,11.1l13.9,14l12.9,12.9c0.8,0.8,1.5,1.1,2.4,1.1h1c1,0,1.8-0.6,1.8-1.7V335v-14v-14h-15.4v9.2H528.5z"/>
				<path class="st0" d="M597.5,320.9v14v11.2c0,1,0.9,1.8,1.8,1.8H611c1,0,1.8-0.9,1.8-1.8v-11.2v-14v-14h-15.4v14H597.5z"/>
				<path class="st0" d="M636.6,320.9v14v11.2c0,1,0.9,1.8,1.8,1.8h11.7c1,0,1.8-0.9,1.8-1.8v-11.2v-14v-14h-15.4v14H636.6z"/>
				<path class="st0" d="M318,320.9l-2.4-14h-23.9l-7.5,14l-0.5,1h-0.2l-0.5-1l-7.5-14h-23.9l-2.4,14l-2.4,14l-1.8,10.9
					c-0.2,1.3,0.7,2.1,1.8,2.1h11.5c1,0,1.7-0.8,1.8-1.6l1.6-11.5l2-14l0.7-4.6h0.2l2.4,4.6l7.3,14l6.7,12.9
					c0.3,0.6,1.1,1.1,1.7,1.1h1.7c0.5,0,1.4-0.5,1.7-1.1l6.7-12.9l7.3-14l2.4-4.6h0.2l0.7,4.6l2,14l1.7,11.5c0.1,0.8,1,1.6,1.8,1.6
					h11.5c1.2,0,2-0.9,1.8-2.1l-1.8-10.9L318,320.9z"/>
				<path class="st0" d="M402.3,320.9l-2.4-14H376l-7.5,14l-0.5,1h-0.2l-0.5-1l-7.5-14h-23.9l-2.4,14l-2.4,14l-1.8,10.9
					c-0.2,1.3,0.7,2.1,1.8,2.1h11.5c1,0,1.8-0.8,1.8-1.6l1.6-11.5l2-14l0.6-4.6h0.2l2.4,4.6l7.3,14l6.7,12.9
					c0.3,0.6,1.1,1.1,1.7,1.1h1.7c0.5,0,1.4-0.5,1.7-1.1l6.7-12.9l7.3-14l2.4-4.6h0.2l0.7,4.6l2,14l1.7,11.5c0.1,0.8,1,1.6,1.8,1.6
					h11.5c1.2,0,2-0.9,1.8-2.1l-1.8-10.9L402.3,320.9z"/>
				<path class="st0" d="M763,320.9c-3.3-7.3-10.9-10.9-17.4-14H721c3.3,6,10,9.6,16.7,12.8c0.8,0.4,1.6,0.8,2.3,1.2
					c5,2.6,7.7,5.1,7.7,8.6c0,2.5-1.5,4.5-3.9,5.3c-0.8,0.3-1.8,0.5-2.8,0.5c-1.4,0-2.7-0.2-3.9-0.5c-4.3-1-7.8-3.4-9.9-4.9
					c-1-0.7-2.5-0.7-3.3,0.6l-2.4,4.3l-2,3.6c-0.7,1.3-0.4,2.1,0.4,2.9c2.2,2.2,9.2,7.5,21.9,7.5c11.3,0,19.1-6.4,21.8-14
					c0.7-2,1.1-4.1,1.1-6.1C764.6,325.7,764,323.1,763,320.9"/>
				<path class="st0" d="M163.4,334.9l-5.8-6.1c-0.6-0.7-1.8-0.7-2.5-0.1c-3.5,3-7.7,4.7-13,4.7c-8.4,0-15.1-5.2-17.8-12.4
					c-0.9-2.3-1.3-4.7-1.3-7.3c0-2.3,0.4-4.6,1.1-6.7h-17c-0.5,2.3-0.7,4.7-0.7,7.1s0.2,4.7,0.7,6.9c1,5.2,3.2,9.9,6.3,14
					c6.4,8.5,16.6,14,28.1,14c8.6,0,17-3,23.6-9.4c0.7-0.7,0.8-1.9,0.1-2.6L163.4,334.9z"/>
			</g>
		</g>
		<g class="st2">
			<g>
				<path class="st0" d="M204.3,372c-8.2,0-15.2-5.2-18-12.4h-16.2c1,5.2,3.2,9.9,6.2,14c6.3,8.5,16.4,14,28,14s21.7-5.5,28.1-14
					c3-4.1,5.2-8.8,6.2-14h-16.2C219.6,366.8,212.5,372,204.3,372"/>
				<path class="st0" d="M283.7,360.5h-0.2l-0.5-1h-15.9l7.3,14l6.7,12.9c0.3,0.6,1.1,1.1,1.7,1.1h1.7c0.5,0,1.4-0.5,1.7-1.1
					l6.7-12.9l7.3-14h-15.9L283.7,360.5z"/>
				<path class="st0" d="M245,384.4c-0.2,1.3,0.7,2.1,1.8,2.1h11.5c1,0,1.7-0.8,1.8-1.6l1.6-11.5l2-14h-14.6"/>
				<path class="st0" d="M318,359.5h-14.7l2,14L307,385c0.1,0.8,1,1.6,1.8,1.6h11.5c1.2,0,2-0.9,1.8-2.1l-1.8-10.9L318,359.5z"/>
				<path class="st0" d="M402.3,359.5h-14.7l2,14l1.7,11.5c0.1,0.8,1,1.6,1.8,1.6h11.5c1.2,0,2-0.9,1.8-2.1l-1.8-10.9L402.3,359.5z"
					/>
				<path class="st0" d="M455.6,360.9c0,7.1-5.2,11.1-12.1,11.1s-12-4-12-11.1v-1.4h-15.6v2.1c0,4.3,1.1,8.3,3,11.9
					c4.5,8.5,13.8,14,24.6,14c10.8,0,20.2-5.5,24.8-14c1.9-3.5,3-7.5,3-11.9v-2.1h-15.6L455.6,360.9L455.6,360.9z"/>
				<path class="st0" d="M525.8,373.5l12.9,12.9c0.8,0.8,1.5,1.1,2.4,1.1h1c1,0,1.8-0.6,1.8-1.7v-12.2v-14h-32L525.8,373.5z"/>
				<path class="st0" d="M558.6,373.5v11.2c0,1,0.9,1.8,1.8,1.8h11.7c1,0,1.8-0.9,1.8-1.8v-11.2v-14h-15.4v14H558.6z"/>
				<path class="st0" d="M636.6,373.5v11.2c0,1,0.9,1.8,1.8,1.8h11.7c1,0,1.8-0.9,1.8-1.8v-11.2v-14h-15.4v14H636.6z"/>
				<path class="st0" d="M708.6,372.3h-26.9v-12.7h-15.2v14v11.1c0,1,0.8,1.8,1.8,1.8h40.2c1.1,0,1.8-0.9,1.8-1.8v-10.6
					c0-0.2-0.1-0.4-0.1-0.6C710.1,372.8,709.4,372.3,708.6,372.3"/>
			</g>
		</g>
		<g class="st2">
			<g>
				<path class="st0" d="M232.4,399.3h-56.1c6.3,8.5,16.4,14,28,14C215.8,413.3,226,407.8,232.4,399.3"/>
				<path class="st0" d="M245,410.2c-0.2,1.3,0.7,2.1,1.8,2.1h11.5c1,0,1.7-0.8,1.8-1.6l1.6-11.5h-15L245,410.2z"/>
				<path class="st0" d="M307,410.8c0.1,0.8,1,1.6,1.8,1.6h11.5c1.2,0,2-0.9,1.8-2.1l-1.8-10.9h-15L307,410.8z"/>
				<path class="st0" d="M286.2,412.3l6.7-12.9h-18.5l6.7,12.9c0.3,0.6,1.1,1.1,1.7,1.1h1.7C285,413.3,285.9,412.8,286.2,412.3"/>
				<path class="st0" d="M391.3,410.8c0.1,0.8,1,1.6,1.8,1.6h11.5c1.2,0,2-0.9,1.8-2.1l-1.8-10.9h-15L391.3,410.8z"/>
				<path class="st0" d="M329.3,410.2c-0.2,1.3,0.7,2.1,1.8,2.1h11.5c1,0,1.8-0.8,1.8-1.6l1.6-11.5h-15L329.3,410.2z"/>
				<path class="st0" d="M370.4,412.3l6.7-12.9h-18.5l6.7,12.9c0.3,0.6,1.1,1.1,1.7,1.1h1.7C369.3,413.3,370.1,412.8,370.4,412.3"/>
				<path class="st0" d="M543.9,411.6v-12.2h-18.1l12.9,12.9c0.8,0.8,1.5,1.1,2.4,1.1h1C543,413.3,543.9,412.7,543.9,411.6"/>
				<path class="st0" d="M485.5,410.5c0,1,0.9,1.8,1.8,1.8h11.6c1.1,0,1.8-0.9,1.8-1.8v-11.2h-15.3L485.5,410.5z"/>
				<path class="st0" d="M597.5,410.5c0,1,0.9,1.8,1.8,1.8H611c1,0,1.8-0.9,1.8-1.8v-11.2h-15.4v11.2H597.5z"/>
				<path class="st0" d="M763.5,399.3h-19.7c-0.8,0.3-1.8,0.5-2.8,0.5c-1.4,0-2.7-0.2-3.9-0.5h-15.6l-2,3.6
					c-0.7,1.3-0.4,2.1,0.4,2.9c2.2,2.2,9.2,7.5,21.9,7.5C753,413.3,760.7,407,763.5,399.3"/>
			</g>
		</g>
		<g class="st1">
			<g>
				<path class="st0" d="M119.9,87.3h-11.7c-1,0-1.8,0.9-1.8,1.8v11.2v14v14h15.4v-14v-14V89.1C121.7,88.1,120.9,87.3,119.9,87.3"/>
				<path class="st0" d="M192.9,87.3h-11.7c-1.1,0-1.8,0.9-1.8,1.8v11.2v14v9.3h-0.1l-9.7-9.3l-14.6-14l-13-12.5
					c-0.8-0.8-1.5-1.5-2.4-1.5l0,0h-1.5l0,0c-1,0-1.8,0.8-1.8,1.7v12.2v14v14h15.3v-11.1h0.1l11,11.1h32v-14v-14V89.1
					C194.7,88.1,193.9,87.3,192.9,87.3"/>
				<path class="st0" d="M277.7,87.3h-43.1c-1.1,0-1.8,0.9-1.8,1.8v10.6c0,0.2,0.1,0.4,0.1,0.6c0.2,0.7,0.9,1.3,1.7,1.3h13.9v12.7
					v14h15.4v-14v-12.7h13.9c0.8,0,1.5-0.6,1.7-1.3c0.1-0.2,0.1-0.4,0.1-0.6V89.1C279.5,88.1,278.7,87.3,277.7,87.3"/>
				<path class="st0" d="M301,87.3h-11.7c-1,0-1.8,0.9-1.8,1.8v11.2v14v14h15.4v-14v-14V89.1C302.8,88.1,301.9,87.3,301,87.3"/>
				<path class="st0" d="M415.8,87.3h-43.1c-1.1,0-1.8,0.9-1.8,1.8v10.6c0,0.2,0.1,0.4,0.1,0.6c0.2,0.7,0.9,1.3,1.7,1.3h13.9v12.7
					v14h15.3v-14v-12.7h13.9c0.8,0,1.5-0.6,1.7-1.3c0.1-0.2,0.1-0.4,0.1-0.6V89.1C417.7,88.1,416.9,87.3,415.8,87.3"/>
				<path class="st0" d="M511.2,87.3h-12.9c-0.8,0-1.5,0.6-1.7,1.1l-5.4,12l-6.3,14l-4.3,9.5H480l-4.3-9.5l-6.3-14l-5.4-12
					c-0.2-0.5-0.9-1.1-1.7-1.1h-12.9c-1.5,0-2.2,1.3-1.7,2.5l4.9,10.5l6.5,14l6.5,14h29.3l6.5-14l6.5-14l4.9-10.5
					C513.5,88.5,512.7,87.3,511.2,87.3"/>
				<path class="st0" d="M561.8,87.3h-40.2c-1.1,0-1.8,0.9-1.8,1.8v11.2v14v14h15.1v-0.4h22.2c1,0,1.8-0.8,1.8-1.8v-10.7
					c0-0.4-0.2-0.8-0.5-1.2c-0.3-0.4-0.8-0.7-1.4-0.7h-22.1v-11.9h26.9c0.8,0,1.5-0.6,1.7-1.3c0.1-0.2,0.1-0.4,0.1-0.6V89.1
					C563.6,88.1,562.9,87.3,561.8,87.3"/>
				<path class="st0" d="M350.3,100.3l-6-12.9c-0.3-0.6-1-1.1-1.7-1.1l0,0h-1l0,0c-0.7,0-1.4,0.5-1.7,1.1l-6,12.9l-6.5,14l-6.5,14
					h15.5L342,116h0.1l5.7,12.3h15.5l-6.5-14L350.3,100.3z"/>
				<path class="st0" d="M598.8,114.3c-0.2-0.1-0.4-0.2-0.6-0.3c-6.8-3.3-10.6-5.8-10.6-9c0-1.9,0.9-3.7,2.8-4.7
					c0.8-0.4,1.9-0.7,3.1-0.7c1.4,0,2.8,0.3,4.1,0.7c3.8,1.1,7.3,3.4,9,4.6c1.9,1.2,3.6,0.4,4.3-0.7l2.6-3.9l2.4-3.6
					c0.4-0.7,0.6-2.4-0.6-3.1c-2.9-2.1-10.7-7.3-20.8-7.3l0,0l0,0c-12.2,0-19.4,6.4-21.7,14c-0.5,1.7-0.8,3.5-0.8,5.3
					c0,3.4,0.8,6.2,2.2,8.6c3.3,6,10,9.6,16.7,12.8c0.8,0.4,1.6,0.8,2.3,1.2h23C612.9,121,605.2,117.4,598.8,114.3"/>
			</g>
		</g>
		<g class="st2">
			<g>
				<path class="st0" d="M119.9,48.6h-11.7c-1,0-1.8,0.9-1.8,1.8v11.2v14h15.4v-14V50.5C121.7,49.5,120.9,48.6,119.9,48.6"/>
				<path class="st0" d="M142,49.1c-0.8-0.8-1.5-1.5-2.4-1.5l0,0h-1.5l0,0c-1,0-1.8,0.8-1.8,1.8v12.2v14h33.3l-14.6-14L142,49.1z"/>
				<path class="st0" d="M192.9,48.6h-11.7c-1.1,0-1.8,0.9-1.8,1.8v11.2v14h15.4v-14V50.5C194.7,49.5,193.9,48.6,192.9,48.6"/>
				<path class="st0" d="M277.7,48.6h-43.1c-1.1,0-1.8,0.9-1.8,1.8V61c0,0.2,0.1,0.4,0.1,0.6c0.2,0.7,0.9,1.3,1.7,1.3h13.9v12.7
					h15.4V62.9h13.9c0.8,0,1.5-0.6,1.7-1.3c0.1-0.2,0.1-0.4,0.1-0.6V50.5C279.5,49.5,278.7,48.6,277.7,48.6"/>
				<path class="st0" d="M301,48.6h-11.7c-1,0-1.8,0.9-1.8,1.8v11.2v14h15.4v-14V50.5C302.8,49.5,301.9,48.6,301,48.6"/>
				<path class="st0" d="M344.3,48.7c-0.3-0.6-1-1.1-1.7-1.1l0,0h-1l0,0c-0.7,0-1.4,0.5-1.7,1.1l-6,12.9l-6.5,14h29.3l-6.5-14
					L344.3,48.7z"/>
				<path class="st0" d="M439.1,48.6h-11.7c-1,0-1.8,0.9-1.8,1.8v11.2v14H441v-14V50.5C441,49.5,440.1,48.6,439.1,48.6"/>
				<path class="st0" d="M464,49.7c-0.2-0.5-0.9-1.1-1.7-1.1h-12.9c-1.5,0-2.2,1.3-1.7,2.5l4.9,10.5l6.5,14h16.6l-6.3-14L464,49.7z"
					/>
				<path class="st0" d="M615.3,54.9c-2.9-2.1-10.7-7.3-20.8-7.3l0,0l0,0c-12.2,0-19.4,6.4-21.7,14c-0.5,1.7-0.8,3.5-0.8,5.3
					c0,3.4,0.8,6.2,2.2,8.6h24.6c-0.2-0.1-0.4-0.2-0.6-0.3c-6.8-3.3-10.6-5.8-10.6-9c0-1.9,0.9-3.7,2.8-4.7c0.8-0.4,1.9-0.7,3.1-0.7
					c1.4,0,2.8,0.3,4.1,0.7c3.8,1.1,7.3,3.4,9,4.6c1.9,1.2,3.6,0.4,4.3-0.7l2.6-3.9l2.4-3.6C616.3,57.4,616.4,55.6,615.3,54.9"/>
			</g>
		</g>
		<g class="st2">
			<g>
				<path class="st0" d="M572.8,30.7h17.6c0.8-0.4,1.9-0.7,3.1-0.7c1.4,0,2.8,0.3,4.1,0.7h15.8l2.4-3.6c0.4-0.7,0.6-2.4-0.6-3.1
					c-2.8-2.2-10.6-7.3-20.7-7.3l0,0C582.3,16.7,575.1,23.1,572.8,30.7 M512.9,20.2c0.6-1.3-0.2-2.5-1.7-2.5h-12.9
					c-0.8,0-1.5,0.6-1.7,1.1l-5.4,12h16.7L512.9,20.2z M464,18.7c-0.2-0.5-0.9-1.1-1.7-1.1h-12.9c-1.5,0-2.2,1.3-1.7,2.5l4.9,10.5
					h16.8L464,18.7z M340,17.8l-6,12.9h16.3l-6-12.9c-0.3-0.6-1-1.1-1.7-1.1h-1C341,16.7,340.3,17.2,340,17.8 M302.8,19.5
					c0-1-0.9-1.8-1.8-1.8h-11.7c-1,0-1.8,0.9-1.8,1.8v11.2h15.4V19.5H302.8z M279.5,30.1V19.5c0-1-0.8-1.8-1.8-1.8h-43.1
					c-1.1,0-1.8,0.9-1.8,1.8v10.6c0,0.2,0.1,0.4,0.1,0.6h46.6C279.5,30.5,279.5,30.3,279.5,30.1 M136.2,18.4v12.2H155l-13-12.5
					c-0.8-0.8-1.5-1.5-2.4-1.5h-1.5C137.1,16.7,136.2,17.5,136.2,18.4 M121.7,19.5c0-1-0.8-1.8-1.8-1.8h-11.7c-1,0-1.8,0.9-1.8,1.8
					v11.2h15.4L121.7,19.5L121.7,19.5z M594.5,16.7L594.5,16.7L594.5,16.7L594.5,16.7z M342.6,16.7h-1l0,0H342.6L342.6,16.7z
					 M139.6,16.7h-1.5l0,0H139.6L139.6,16.7z"/>
			</g>
		</g>
		<g>
			<path class="st0" d="M55.3,118.1c-0.1-0.2,0.1-0.4,0.3-0.4h1.3c0.1,0,0.2,0.1,0.3,0.2l1.6,6h0.1l2.4-6.2c0-0.1,0.1-0.2,0.3-0.2
				h0.3c0.2,0,0.2,0.1,0.3,0.2l2.4,6.2h0.1l1.5-6c0-0.1,0.2-0.2,0.3-0.2h1.4c0.2,0,0.3,0.1,0.3,0.4l-2.8,10.1c0,0.1-0.2,0.2-0.3,0.2
				h-0.2c-0.1,0-0.2-0.1-0.3-0.2l-2.7-6.8h-0.1l-2.7,6.8c0,0.1-0.1,0.2-0.3,0.2h-0.2c-0.1,0-0.2-0.1-0.3-0.2L55.3,118.1z"/>
			<path class="st0" d="M76,118c0-0.2,0.1-0.3,0.3-0.3h6.1c0.2,0,0.3,0.1,0.3,0.3v1.2c0,0.2-0.1,0.3-0.3,0.3h-4.5v2.5h3.7
				c0.2,0,0.3,0.1,0.3,0.3v1.2c0,0.2-0.1,0.3-0.3,0.3h-3.7v2.6h4.4c0.2,0,0.3,0.1,0.3,0.3v1.2c0,0.1-0.1,0.3-0.3,0.3h-6.1
				c-0.2,0-0.3-0.1-0.3-0.3L76,118L76,118z"/>
			<path class="st0" d="M100.8,119.5h-2.3c-0.2,0-0.3-0.1-0.3-0.3V118c0-0.2,0.1-0.3,0.3-0.3h6.6c0.2,0,0.3,0.1,0.3,0.3v1.2
				c0,0.2-0.1,0.3-0.3,0.3h-2.3v8.4c0,0.1-0.1,0.3-0.3,0.3h-1.4c-0.2,0-0.3-0.1-0.3-0.3C100.8,127.9,100.8,119.5,100.8,119.5z"/>
			<path class="st0" d="M113.5,118c0-0.2,0.1-0.3,0.3-0.3h4.3c1.8,0,3.3,1.4,3.3,3.2c0,1.4-0.9,2.5-2.2,3l2.1,3.8
				c0.1,0.2,0,0.4-0.3,0.4h-1.6c-0.1,0-0.2-0.1-0.2-0.1l-2-4h-1.7v3.8c0,0.1-0.1,0.3-0.3,0.3h-1.4c-0.2,0-0.3-0.1-0.3-0.3
				C113.5,127.8,113.5,118,113.5,118z M117.9,122.5c0.8,0,1.5-0.7,1.5-1.5s-0.7-1.5-1.5-1.5h-2.4v3H117.9z"/>
			<path class="st0" d="M128.6,127.8l4.7-10.1c0-0.1,0.1-0.2,0.3-0.2h0.2c0.1,0,0.2,0.1,0.3,0.2l4.6,10.1c0.1,0.2,0,0.4-0.3,0.4
				h-1.3c-0.2,0-0.3-0.1-0.4-0.3l-0.7-1.6h-4.5l-0.7,1.6c-0.1,0.2-0.2,0.3-0.4,0.3h-1.5C128.6,128.2,128.5,128,128.6,127.8z
				 M135.1,124.6l-1.5-3.3l0,0l-1.5,3.3H135.1z"/>
			<path class="st0" d="M146.3,117.8c0-0.2,0.1-0.3,0.3-0.3h0.2c0.1,0,0.2,0,0.3,0.1l6.1,6.5l0,0v-6.2c0-0.2,0.1-0.3,0.3-0.3h1.4
				c0.2,0,0.3,0.1,0.3,0.3V128c0,0.2-0.1,0.3-0.3,0.3h-0.2c-0.1,0-0.2,0-0.3-0.1l-6.2-6.8l0,0v6.5c0,0.1-0.1,0.3-0.3,0.3h-1.4
				c-0.2,0-0.3-0.1-0.3-0.3v-10.1H146.3z"/>
			<path class="st0" d="M163.8,127.2c-0.2-0.1-0.2-0.2-0.1-0.5l0.5-0.9c0.1-0.2,0.4-0.2,0.5-0.1c0.6,0.5,1.3,0.9,2.3,0.9
				c0.8,0,1.4-0.5,1.4-1.2c0-0.8-0.6-1.3-1.9-1.8c-1.4-0.6-2.8-1.5-2.8-3.2c0-1.3,1-2.9,3.4-2.9c1.5,0,2.7,0.8,3,1
				c0.1,0.1,0.2,0.3,0.1,0.5l-0.6,0.9c-0.1,0.2-0.3,0.3-0.5,0.2c-0.6-0.4-1.3-0.8-2.1-0.8c-0.9,0-1.3,0.5-1.3,1.1
				c0,0.7,0.6,1.2,1.8,1.7c1.5,0.6,3.1,1.5,3.1,3.4c0,1.5-1.3,3-3.5,3C165.2,128.4,164.2,127.6,163.8,127.2z"/>
			<path class="st0" d="M178.9,118c0-0.2,0.1-0.3,0.3-0.3h6.1c0.2,0,0.3,0.1,0.3,0.3v1.2c0,0.2-0.1,0.3-0.3,0.3h-4.4v2.8h3.7
				c0.2,0,0.3,0.1,0.3,0.3v1.2c0,0.2-0.1,0.3-0.3,0.3h-3.7v3.8c0,0.1-0.1,0.3-0.3,0.3h-1.4c-0.2,0-0.3-0.1-0.3-0.3L178.9,118
				L178.9,118z"/>
			<path class="st0" d="M198.5,117.6c3,0,5.4,2.4,5.4,5.4s-2.4,5.4-5.4,5.4s-5.4-2.4-5.4-5.4S195.5,117.6,198.5,117.6z M198.5,126.4
				c1.9,0,3.5-1.5,3.5-3.4s-1.6-3.5-3.5-3.5s-3.4,1.6-3.4,3.5C195,124.9,196.6,126.4,198.5,126.4z"/>
			<path class="st0" d="M212.3,118c0-0.2,0.1-0.3,0.3-0.3h4.3c1.8,0,3.3,1.4,3.3,3.2c0,1.4-0.9,2.5-2.2,3l2.1,3.8
				c0.1,0.2,0,0.4-0.3,0.4h-1.6c-0.1,0-0.2-0.1-0.2-0.1l-2-4h-1.7v3.8c0,0.1-0.1,0.3-0.3,0.3h-1.4c-0.2,0-0.3-0.1-0.3-0.3L212.3,118
				L212.3,118z M216.7,122.5c0.8,0,1.5-0.7,1.5-1.5s-0.7-1.5-1.5-1.5h-2.4v3H216.7z"/>
			<path class="st0" d="M229.9,117.8c0-0.1,0.1-0.2,0.3-0.2h0.2c0.1,0,0.2,0.1,0.3,0.2l3.3,7.1l0,0l3.3-7.1c0-0.1,0.1-0.2,0.3-0.2
				h0.2c0.2,0,0.3,0.1,0.3,0.2l1.8,10.1c0,0.2-0.1,0.3-0.3,0.3h-1.4c-0.1,0-0.3-0.1-0.3-0.2l-0.9-5.7l0,0l-2.6,5.9
				c0,0.1-0.1,0.2-0.3,0.2h-0.3c-0.1,0-0.2-0.1-0.3-0.2l-2.7-5.9l0,0l-0.9,5.7c0,0.1-0.1,0.2-0.3,0.2h-1.4c-0.2,0-0.3-0.1-0.3-0.3
				L229.9,117.8z"/>
		</g>
		<g>
			<path class="st0" d="M56.2,220c0-0.2,0.1-0.3,0.3-0.3h1.4c0.2,0,0.3,0.1,0.3,0.3v9.9c0,0.1-0.1,0.3-0.3,0.3h-1.4
				c-0.2,0-0.3-0.1-0.3-0.3C56.2,229.9,56.2,220,56.2,220z"/>
			<path class="st0" d="M67.2,219.8c0-0.2,0.1-0.3,0.3-0.3h0.2c0.1,0,0.2,0,0.3,0.1l6.1,6.5l0,0v-6.2c0-0.2,0.1-0.3,0.3-0.3h1.4
				c0.2,0,0.3,0.1,0.3,0.3V230c0,0.2-0.1,0.3-0.3,0.3h-0.2c-0.1,0-0.2,0-0.3-0.1l-6.2-6.8l0,0v6.5c0,0.1-0.1,0.3-0.3,0.3h-1.4
				c-0.2,0-0.3-0.1-0.3-0.3L67.2,219.8L67.2,219.8z"/>
			<path class="st0" d="M86.8,221.5h-2.3c-0.2,0-0.3-0.1-0.3-0.3V220c0-0.2,0.1-0.3,0.3-0.3h6.6c0.2,0,0.3,0.1,0.3,0.3v1.2
				c0,0.2-0.1,0.3-0.3,0.3h-2.3v8.4c0,0.1-0.1,0.3-0.3,0.3h-1.4c-0.2,0-0.3-0.1-0.3-0.3V221.5z"/>
			<path class="st0" d="M104,219.5c3,0,5.4,2.4,5.4,5.4s-2.4,5.4-5.4,5.4s-5.4-2.4-5.4-5.4S100.9,219.5,104,219.5z M104,228.4
				c1.9,0,3.5-1.5,3.5-3.4s-1.6-3.5-3.5-3.5s-3.4,1.6-3.4,3.5C100.5,226.9,102.1,228.4,104,228.4z"/>
		</g>
	</g>
</g>
</svg>
