<?xml version="1.0" encoding="utf-8"?>
<!-- Generator: Adobe Illustrator 25.4.1, SVG Export Plug-In . SVG Version: 6.00 Build 0)  -->
<svg version="1.1" id="Capa_1" xmlns="http://www.w3.org/2000/svg" xmlns:xlink="http://www.w3.org/1999/xlink" x="0px" y="0px"
	 viewBox="0 0 820 430" style="enable-background:new 0 0 820 430;" xml:space="preserve">
<style type="text/css">
	.st0{fill:#FFFFFF;}
	.st1{opacity:0.3;}
	.st2{opacity:0.15;}
</style>
<g>
	<g>
		<path class="st0" d="M169.8,254.3h-10.2v-2.2v-13.3h10.2c4.4,0,7.4,3.2,7.4,7.5c0,2.3-0.8,4.3-2.1,5.8
			C173.8,253.5,172,254.3,169.8,254.3 M170.1,224h-24.4c-1.1,0-1.9,0.9-1.9,1.9v11.6v14.6v14.6v14.6v11.6c0,1,0.8,1.9,1.9,1.9h11.9
			c1,0,1.9-0.9,1.9-1.9v-11.6v-12.1h10.6c3.9,0,7.4-0.9,10.4-2.4c5.8-2.9,9.9-8.2,11.4-14.6c0.5-1.8,0.7-3.8,0.7-5.8
			c0-3.1-0.6-6.1-1.7-8.8C187.8,229.6,180.1,224,170.1,224"/>
		<path class="st0" d="M227.2,254.3H217v-2.2v-13.3h10.2c4.4,0,7.4,3.2,7.4,7.5c0,2.3-0.8,4.3-2.1,5.8
			C231.1,253.5,229.3,254.3,227.2,254.3 M227.5,224h-24.4c-1.1,0-1.9,0.9-1.9,1.9v11.6v14.6v14.6v14.6v11.6c0,1,0.8,1.9,1.9,1.9
			h11.9c1,0,1.9-0.9,1.9-1.9v-11.6v-12.1h10.6c3.9,0,7.4-0.9,10.4-2.4c5.8-2.9,9.9-8.2,11.4-14.6c0.4-1.8,0.7-3.8,0.7-5.8
			c0-3.1-0.6-6.1-1.7-8.8C245.2,229.6,237.5,224,227.5,224"/>
		<path class="st0" d="M447,224h-44.9c-1.1,0-1.9,0.9-1.9,1.9v11c0,0.2,0.1,0.4,0.1,0.6c0.2,0.7,0.9,1.3,1.8,1.3h14.5v13.3v14.6
			v14.6v11.6c0,1,0.9,1.9,1.9,1.9h12.1c1,0,1.9-0.9,1.9-1.9v-11.6v-14.6v-14.6v-13.3H447c0.9,0,1.6-0.6,1.8-1.3
			c0.1-0.2,0.1-0.4,0.1-0.6v-11C449,224.9,448.2,224,447,224"/>
		<path class="st0" d="M512.7,224h-12.4c-1.1,0-1.9,0.9-1.9,1.9v11.6v14.6v14.6v1.4c0,7.4-5.4,11.5-12.6,11.5
			c-7.2,0-12.4-4.1-12.4-11.5v-1.4v-14.6v-14.6v-11.6c0-1-0.8-1.9-1.9-1.9h-12.4c-1,0-1.9,0.9-1.9,1.9v11.6v14.6v14.6v2.2
			c0,4.5,1.1,8.7,3.1,12.3c4.7,8.8,14.4,14.6,25.6,14.6c11.3,0,21-5.8,25.8-14.6c2-3.7,3.1-7.8,3.1-12.3v-2.2v-14.6v-14.6v-11.6
			C514.6,224.9,513.7,224,512.7,224"/>
		<path class="st0" d="M588.3,224h-12.1c-1.1,0-1.9,0.9-1.9,1.9v11.6v14.6v9.7h-0.1l-10.1-9.7l-15.2-14.6l-13.6-13.1
			c-0.8-0.8-1.5-1.5-2.5-1.5h-1.5c-1,0-1.9,0.8-1.9,1.8l0,12.7l0,14.6l0,14.6l0,14.6l0,11.6c0,1,0.9,1.9,1.9,1.9h12
			c1.1,0,1.9-0.9,1.9-1.9v-11.6v-14.6v-11.5h0.1l11.5,11.5l14.5,14.6l13.4,13.5c0.8,0.8,1.5,1.1,2.5,1.1h1c1,0,1.9-0.6,1.9-1.8
			v-12.8v-14.6v-14.6v-14.6v-11.6C590.2,224.9,589.3,224,588.3,224"/>
		<path class="st0" d="M619.6,224h-12.1c-1,0-1.9,0.9-1.9,1.9v11.6v14.6v14.6v14.6v11.6c0,1,0.9,1.9,1.9,1.9h12.1
			c1,0,1.9-0.9,1.9-1.9v-11.6v-14.6v-14.6v-14.6v-11.6C621.5,224.9,620.6,224,619.6,224"/>
		<path class="st0" d="M676.5,224h-44.9c-1.1,0-1.9,0.9-1.9,1.9v11c0,0.2,0.1,0.4,0.1,0.6c0.2,0.7,0.9,1.3,1.8,1.3H646v13.3v14.6
			v14.6v11.6c0,1,0.9,1.9,1.9,1.9h12.1c1,0,1.9-0.9,1.9-1.9v-11.6v-14.6v-14.6v-13.3h14.5c0.9,0,1.6-0.6,1.8-1.3
			c0.1-0.2,0.1-0.4,0.1-0.6v-11C678.4,224.9,677.6,224,676.5,224"/>
		<path class="st0" d="M700.8,224h-12.1c-1,0-1.9,0.9-1.9,1.9v11.6v14.6v14.6v14.6v11.6c0,1,0.9,1.9,1.9,1.9h12.1
			c1,0,1.9-0.9,1.9-1.9v-11.6v-14.6v-14.6v-14.6v-11.6C702.7,224.9,701.8,224,700.8,224"/>
		<path class="st0" d="M761.7,224h-41.9c-1.1,0-1.9,0.9-1.9,1.9v11.6v14.6v14.6v14.6v11.6c0,1,0.8,1.9,1.9,1.9h41.9
			c1.1,0,1.9-0.9,1.9-1.9v-11c0-0.2-0.1-0.4-0.1-0.6c-0.2-0.7-0.9-1.3-1.8-1.3h-28v-13.3v-0.4h23.1c1,0,1.9-0.8,1.9-1.9v-11
			c0-0.5-0.2-0.9-0.5-1.2c-0.4-0.4-0.9-0.7-1.4-0.7h-23.1v-12.5h28c0.9,0,1.6-0.6,1.8-1.3c0.1-0.2,0.1-0.4,0.1-0.6v-11
			C763.6,224.9,762.8,224,761.7,224"/>
		<path class="st0" d="M96.3,279.6c-8.5,0-15.8-5.4-18.8-13c-0.9-2.2-1.4-4.7-1.4-7.2c0-2.6,0.5-5.1,1.4-7.4c3-7.5,10.3-13,18.7-13
			c8.5,0,15.9,5.4,18.8,13c0.9,2.3,1.4,4.8,1.4,7.4c0,2.5-0.5,4.9-1.4,7.2C112.2,274.2,104.9,279.6,96.3,279.6 M125.4,237.5
			c-6.6-8.8-17.1-14.6-29.1-14.6c-12,0-22.5,5.7-29.1,14.6c-3.2,4.2-5.5,9.2-6.5,14.6c-0.5,2.4-0.7,4.9-0.7,7.4
			c0,2.5,0.2,4.9,0.7,7.2c1.1,5.4,3.3,10.3,6.5,14.6c6.6,8.9,17.1,14.6,29.2,14.6c12,0,22.6-5.7,29.2-14.6c3.2-4.2,5.4-9.2,6.5-14.6
			c0.5-2.3,0.7-4.7,0.7-7.2c0-2.5-0.3-5-0.7-7.4C130.9,246.7,128.6,241.8,125.4,237.5"/>
		<path class="st0" d="M292.2,279.6c-8.5,0-15.8-5.4-18.8-13c-0.9-2.2-1.4-4.7-1.4-7.2c0-2.6,0.5-5.1,1.4-7.4c3-7.5,10.3-13,18.7-13
			c8.5,0,15.9,5.4,18.8,13c0.9,2.3,1.4,4.8,1.4,7.4c0,2.5-0.5,4.9-1.4,7.2C308.1,274.2,300.7,279.6,292.2,279.6 M321.3,237.5
			c-6.6-8.8-17.1-14.6-29.1-14.6c-12,0-22.5,5.7-29.1,14.6c-3.2,4.2-5.5,9.2-6.5,14.6c-0.5,2.4-0.7,4.9-0.7,7.4
			c0,2.5,0.2,4.9,0.7,7.2c1.1,5.4,3.3,10.3,6.5,14.6c6.6,8.9,17.1,14.6,29.2,14.6c12,0,22.6-5.7,29.2-14.6c3.2-4.2,5.4-9.2,6.5-14.6
			c0.5-2.3,0.7-4.7,0.7-7.2c0-2.5-0.3-5-0.7-7.4C326.8,246.7,324.5,241.8,321.3,237.5"/>
		<path class="st0" d="M355.6,238.4h15c4.1,0,7.7,2.9,7.7,7.7c0,2.5-1,4.5-2.5,6c-1.4,1.3-3.2,2.1-5.2,2.1h-15v-2.1V238.4z
			 M393,252.1c0.6-2,0.9-4.1,0.9-6.3c0-2.9-0.6-5.7-1.6-8.3c-3.1-7.9-10.8-13.6-20.5-13.6h-30.3c-1.1,0-1.9,0.9-1.9,1.9v11.6v14.6
			v14.6v14.6v11.6c0,1,0.8,1.9,1.9,1.9h12c1,0,1.9-0.9,1.9-1.9v-11.6v-14.2h7l7.1,14.2l6.3,12.6c0.2,0.4,0.8,0.9,1.6,0.9h13.5
			c1.7,0,2.4-1.6,1.7-2.9l-5.7-10.6l-7.9-14.6l-0.3-0.5C386.1,263.5,391.1,258.4,393,252.1"/>
		<path class="st0" d="M818.3,266.7c-3.4-7.6-11.4-11.3-18.1-14.6c-0.2-0.1-0.4-0.2-0.6-0.3c-7.1-3.4-11-6.1-11-9.4
			c0-2,0.9-3.9,2.9-4.9c0.9-0.4,1.9-0.7,3.3-0.7c1.4,0,2.9,0.3,4.3,0.7c4,1.2,7.6,3.6,9.3,4.8c2,1.2,3.7,0.4,4.5-0.7l2.7-4l2.5-3.7
			c0.4-0.7,0.6-2.5-0.6-3.2c-3-2.2-11.1-7.6-21.7-7.6c-12.7,0-20.2,6.7-22.6,14.6c-0.5,1.8-0.8,3.7-0.8,5.6c0,3.5,0.8,6.5,2.3,9
			c3.5,6.2,10.4,10,17.4,13.4c0.8,0.4,1.6,0.8,2.4,1.2c5.2,2.7,8,5.3,8,9c0,2.6-1.6,4.7-4.1,5.6c-0.9,0.3-1.9,0.5-2.9,0.5
			c-1.4,0-2.8-0.2-4.1-0.5c-4.5-1.1-8.1-3.6-10.3-5.1c-1-0.7-2.6-0.7-3.4,0.6l-2.5,4.5l-2.1,3.7c-0.7,1.3-0.4,2.2,0.4,3
			c2.3,2.3,9.6,7.8,22.8,7.8c11.8,0,19.9-6.6,22.7-14.6c0.7-2.1,1.1-4.2,1.1-6.4v0v0C820,271.7,819.4,269,818.3,266.7"/>
		<path class="st0" d="M159.9,139.3H115c-1.1,0-1.9,0.9-1.9,1.9v11c0,0.2,0.1,0.4,0.1,0.6c0.2,0.7,0.9,1.3,1.8,1.3h14.5v13.3V182
			v14.6v11.6c0,1,0.9,1.9,1.9,1.9h12.1c1,0,1.9-0.9,1.9-1.9v-11.6V182v-14.6v-13.3h14.5c0.9,0,1.6-0.6,1.8-1.3
			c0.1-0.2,0.1-0.4,0.1-0.6v-11C161.8,140.3,161,139.3,159.9,139.3"/>
		<path class="st0" d="M280,139.3h-41.9c-1.1,0-1.9,0.9-1.9,1.9v11.6v14.6V182v14.6v11.6c0,1,0.8,1.9,1.9,1.9H280
			c1.1,0,1.9-0.9,1.9-1.9v-11c0-0.2-0.1-0.4-0.1-0.6c-0.2-0.7-0.9-1.3-1.8-1.3h-28V182v-0.4h23.1c1,0,1.9-0.8,1.9-1.9v-11
			c0-0.5-0.2-0.9-0.5-1.2c-0.4-0.4-0.9-0.7-1.4-0.7H252v-12.5h28c0.9,0,1.6-0.6,1.8-1.3c0.1-0.2,0.1-0.4,0.1-0.6v-11
			C282,140.3,281.1,139.3,280,139.3"/>
		<path class="st0" d="M353.6,139.3h-12.1c-1.1,0-1.9,0.9-1.9,1.9v11.6v14.6v9.7h-0.1l-10.1-9.7l-15.2-14.6l-13.6-13.1
			c-0.8-0.8-1.5-1.5-2.5-1.5h0h-1.5c-1,0-1.9,0.8-1.9,1.8l0,12.7l0,14.6l0,14.6l0,14.6l0,11.6c0,1,0.9,1.9,1.9,1.9h12
			c1.1,0,1.9-0.9,1.9-1.9v-11.6V182v-11.5h0.1l11.5,11.5l14.5,14.6l13.4,13.5c0.8,0.8,1.5,1.1,2.5,1.1h1c1,0,1.9-0.6,1.9-1.8v-12.8
			V182v-14.6v-14.6v-11.6C355.5,140.3,354.6,139.3,353.6,139.3"/>
		<path class="st0" d="M482.6,139.3h-44.9c-1.1,0-1.9,0.9-1.9,1.9v11c0,0.2,0.1,0.4,0.1,0.6c0.2,0.7,0.9,1.3,1.8,1.3h14.5v13.3V182
			v14.6v11.6c0,1,0.9,1.9,1.9,1.9h12.1c1,0,1.9-0.9,1.9-1.9v-11.6V182v-14.6v-13.3h14.5c0.9,0,1.6-0.6,1.8-1.3
			c0.1-0.2,0.1-0.4,0.1-0.6v-11C484.5,140.3,483.7,139.3,482.6,139.3"/>
		<path class="st0" d="M551.6,139.3h-12c-1.1,0-1.9,0.9-1.9,1.9v11.6v13.9h-28.9v-13.9v-11.6c0-1-0.8-1.9-1.9-1.9h-12
			c-1,0-1.9,0.9-1.9,1.9v11.6v14.6V182v14.6v11.6c0,1,0.9,1.9,1.9,1.9h12c1.1,0,1.9-0.9,1.9-1.9v-11.6V182v-0.4h28.9v0.4v14.6v11.6
			c0,1,0.8,1.9,1.9,1.9h12c1,0,1.9-0.9,1.9-1.9v-11.6V182v-14.6v-14.6v-11.6C553.5,140.3,552.6,139.3,551.6,139.3"/>
		<path class="st0" d="M87.8,167.5c-0.2-0.1-0.4-0.2-0.6-0.3c-7.1-3.4-11-6.1-11-9.4c0-2,0.9-3.9,2.9-4.9c0.9-0.4,1.9-0.7,3.3-0.7
			c1.4,0,2.9,0.3,4.3,0.7c4,1.2,7.6,3.6,9.3,4.8c2,1.2,3.7,0.4,4.5-0.7l2.7-4l2.5-3.7c0.4-0.7,0.6-2.5-0.6-3.2
			c-3-2.2-11.1-7.6-21.7-7.6h0h0c-12.7,0-20.2,6.7-22.6,14.6c-0.5,1.8-0.8,3.7-0.8,5.6c0,3.5,0.8,6.5,2.3,9
			c3.5,6.2,10.4,10,17.4,13.4c0.8,0.4,1.6,0.8,2.4,1.2c5.2,2.7,8,5.3,8,9c0,2.6-1.6,4.7-4.1,5.6c-0.9,0.3-1.9,0.5-2.9,0.5
			c-1.4,0-2.8-0.2-4.1-0.5c-4.5-1.1-8.1-3.6-10.3-5.1c-1-0.7-2.6-0.7-3.4,0.6l-2.5,4.5l-2.1,3.7c-0.7,1.3-0.4,2.2,0.4,3
			c2.3,2.3,9.6,7.8,22.8,7.8c11.8,0,19.9-6.6,22.7-14.6c0.7-2.1,1.1-4.2,1.1-6.4c0-3.2-0.6-5.9-1.7-8.2
			C102.5,174.5,94.5,170.7,87.8,167.5"/>
		<path class="st0" d="M186,153.8h15c4.1,0,7.7,2.9,7.7,7.7c0,2.5-1,4.5-2.5,6c-1.4,1.3-3.2,2.1-5.2,2.1h-15v-2.1V153.8z
			 M223.4,167.5c0.6-2,0.9-4.1,0.9-6.3c0-2.9-0.6-5.7-1.6-8.3c-3.1-7.9-10.8-13.6-20.5-13.6H172c-1.1,0-1.9,0.9-1.9,1.9v11.6v14.6
			V182v14.6v11.6c0,1,0.8,1.9,1.9,1.9h12c1,0,1.9-0.9,1.9-1.9v-11.6v-14.2h7l7.1,14.2l6.3,12.6c0.2,0.4,0.8,0.9,1.6,0.9h13.5
			c1.7,0,2.4-1.6,1.7-2.9l-5.7-10.6l-7.9-14.6l-0.3-0.5C216.5,178.8,221.5,173.8,223.4,167.5"/>
		<path class="st0" d="M428.7,182l0-6.4c0-1-0.8-1.9-1.8-1.9h-20.3c-1.1,0-1.9,0.8-1.9,1.9v6.4v3.6c0,1,0.8,1.8,1.9,1.8h6.4v5.9
			c-3,1.2-6.1,1.6-9,1.6c-8.5,0-15.8-5.4-18.7-13c-0.9-2.2-1.4-4.7-1.4-7.2c0-2.6,0.5-5.1,1.4-7.4c2.9-7.6,10.1-13.1,18.6-13.1
			c5,0,9.4,1.3,13.3,4.9c0.8,0.6,1.9,0.6,2.7-0.1l5.9-6.3l2.1-2.2c0.8-0.8,0.7-2-0.2-2.7c-6.9-6-16.2-9.5-24.7-9.5
			c-11.9,0-22.4,5.7-29,14.5c-3.2,4.2-5.5,9.2-6.6,14.6c-0.5,2.4-0.7,4.9-0.7,7.4c0,2.5,0.2,4.9,0.7,7.2c1.1,5.4,3.4,10.3,6.5,14.6
			c6.6,8.8,17.1,14.5,29.1,14.5c14.7,0,25.1-6.6,25.1-6.6c0.4-0.3,0.8-0.7,0.8-1.6l0-6.3L428.7,182z"/>
		<path class="st0" d="M611.2,182c-3.4-7.6-11.4-11.3-18.1-14.6c-0.2-0.1-0.4-0.2-0.6-0.3c-7.1-3.4-11-6.1-11-9.4
			c0-2,0.9-3.9,2.9-4.9c0.9-0.4,1.9-0.7,3.3-0.7c1.4,0,2.9,0.3,4.3,0.7c4,1.2,7.6,3.6,9.3,4.8c2,1.2,3.7,0.4,4.5-0.7l2.7-4l2.5-3.7
			c0.4-0.7,0.6-2.5-0.6-3.2c-3-2.2-11.1-7.6-21.7-7.6h0h0c-12.7,0-20.2,6.7-22.6,14.6c-0.5,1.8-0.8,3.7-0.8,5.6c0,3.5,0.8,6.5,2.3,9
			c3.5,6.2,10.4,10,17.4,13.4c0.8,0.4,1.6,0.8,2.4,1.2c5.2,2.7,8,5.3,8,9c0,2.6-1.6,4.7-4.1,5.6c-0.9,0.3-1.9,0.5-2.9,0.5
			c-1.4,0-2.8-0.2-4.1-0.5c-4.5-1.1-8.1-3.6-10.3-5.1c-1-0.7-2.6-0.7-3.4,0.6l-2.5,4.5l-2.1,3.7c-0.7,1.3-0.4,2.2,0.4,3
			c2.3,2.3,9.6,7.8,22.8,7.8c11.8,0,19.9-6.6,22.7-14.6c0.7-2.1,1.1-4.2,1.1-6.4C612.9,187.1,612.3,184.4,611.2,182"/>
		<g class="st1">
			<g>
				<path class="st0" d="M115.1,310.7c0.9,2.3,1.4,4.8,1.4,7.4c0,2.5-0.5,4.9-1.4,7.2c-2.9,7.5-10.3,13-18.9,13
					c-8.5,0-15.8-5.4-18.8-13c-0.9-2.2-1.4-4.7-1.4-7.2c0-2.6,0.5-5.1,1.4-7.4H60.7c-0.5,2.4-0.7,4.9-0.7,7.4c0,2.5,0.2,4.9,0.7,7.2
					c1.1,5.4,3.3,10.3,6.5,14.6c6.6,8.9,17.1,14.6,29.2,14.6c12,0,22.6-5.7,29.2-14.6c3.2-4.2,5.4-9.2,6.5-14.6
					c0.5-2.3,0.7-4.7,0.7-7.2c0-2.5-0.3-5-0.7-7.4H115.1z"/>
				<path class="st0" d="M169.8,312.9h-10.2v-2.2h-15.8v14.6v14.6v11.6c0,1,0.8,1.9,1.9,1.9h11.9c1,0,1.9-0.9,1.9-1.9v-11.6v-12.1
					h10.6c3.9,0,7.4-0.9,10.4-2.4c5.8-2.9,9.9-8.2,11.4-14.6h-17C173.8,312.1,172,312.9,169.8,312.9"/>
				<path class="st0" d="M227.2,312.9H217v-2.2h-15.8v14.6v14.6v11.6c0,1,0.8,1.9,1.9,1.9h11.9c1,0,1.9-0.9,1.9-1.9v-11.6v-12.1
					h10.6c3.9,0,7.4-0.9,10.4-2.4c5.8-2.9,9.9-8.2,11.4-14.6h-17C231.1,312.1,229.3,312.9,227.2,312.9"/>
				<path class="st0" d="M311,310.7c0.9,2.3,1.4,4.8,1.4,7.4c0,2.5-0.5,4.9-1.4,7.2c-2.9,7.5-10.3,13-18.9,13
					c-8.5,0-15.8-5.4-18.8-13c-0.9-2.2-1.4-4.7-1.4-7.2c0-2.6,0.5-5.1,1.4-7.4h-16.9c-0.5,2.4-0.7,4.9-0.7,7.4
					c0,2.5,0.2,4.9,0.7,7.2c1.1,5.4,3.3,10.3,6.5,14.6c6.6,8.9,17.1,14.6,29.2,14.6c12,0,22.6-5.7,29.2-14.6
					c3.2-4.2,5.4-9.2,6.5-14.6c0.5-2.3,0.7-4.7,0.7-7.2c0-2.5-0.3-5-0.7-7.4H311z"/>
				<path class="st0" d="M432.6,325.2v-14.6h-16v14.6v14.6v11.6c0,1,0.9,1.9,1.9,1.9h12.1c1,0,1.9-0.9,1.9-1.9"/>
				<path class="st0" d="M498.3,325.2v1.4c0,7.4-5.4,11.5-12.6,11.5c-7.2,0-12.4-4.1-12.4-11.5v-1.4v-14.6h-16.3v14.6v2.2
					c0,4.5,1.1,8.7,3.1,12.3c4.7,8.8,14.4,14.6,25.6,14.6c11.3,0,21-5.8,25.8-14.6c2-3.7,3.1-7.8,3.1-12.3v-2.2v-14.6h-16.3V325.2z"
					/>
				<path class="st0" d="M574.2,320.4h-0.1l-10.1-9.7h-34.7l0,14.6l0,14.6l0,11.6c0,1,0.9,1.9,1.9,1.9h12c1.1,0,1.9-0.9,1.9-1.9
					v-11.6v-14.6v-11.5h0.1l11.5,11.5l14.5,14.6l13.4,13.5c0.8,0.8,1.5,1.1,2.5,1.1h1c1,0,1.9-0.6,1.9-1.8v-12.8v-14.6v-14.6h-16
					V320.4z"/>
				<path class="st0" d="M646,325.2v14.6v11.6c0,1,0.9,1.9,1.9,1.9h12.1c1,0,1.9-0.9,1.9-1.9v-11.6v-14.6v-14.6h-16V325.2z"/>
				<path class="st0" d="M761.7,338.5h-28v-13.3v-0.4h23.1c1,0,1.9-0.8,1.9-1.9v-11c0-0.5-0.2-0.9-0.5-1.2h-40.3v14.6v14.6v11.6
					c0,1,0.8,1.9,1.9,1.9h41.9c1.1,0,1.9-0.9,1.9-1.9v-11c0-0.2-0.1-0.4-0.1-0.6C763.2,339.1,762.6,338.5,761.7,338.5"/>
				<path class="st0" d="M818.3,325.2c-3.4-7.6-11.4-11.3-18.1-14.6h-25.6c3.5,6.2,10.4,10,17.4,13.4c0.8,0.4,1.6,0.8,2.4,1.2
					c5.2,2.7,8,5.3,8,9c0,2.6-1.6,4.7-4.1,5.6c-0.9,0.3-1.9,0.5-2.9,0.5c-1.4,0-2.8-0.2-4.1-0.5c-4.5-1.1-8.1-3.6-10.3-5.1
					c-1-0.7-2.6-0.7-3.4,0.6l-2.5,4.5l-2.1,3.7c-0.7,1.3-0.4,2.2,0.4,3c2.3,2.3,9.6,7.8,22.8,7.8c11.8,0,19.9-6.6,22.7-14.6
					c0.7-2.1,1.1-4.2,1.1-6.4v0v0C820,330.3,819.4,327.6,818.3,325.2"/>
				<path class="st0" d="M387.1,339.8l-7.9-14.6l-0.3-0.5c7.2-2.7,12.1-7.7,14-14.1h-17.2c-1.4,1.3-3.2,2.1-5.2,2.1h-15v-2.1h-15.9
					v14.6v14.6v11.6c0,1,0.8,1.9,1.9,1.9h12c1,0,1.9-0.9,1.9-1.9v-11.6v-14.2h7l7.1,14.2l6.3,12.6c0.2,0.4,0.8,0.9,1.6,0.9h13.5
					c1.7,0,2.4-1.6,1.7-2.9L387.1,339.8z"/>
			</g>
		</g>
		<g class="st2">
			<g>
				<path class="st0" d="M96.3,378.5c-8.5,0-15.8-5.4-18.8-13H60.7c1.1,5.4,3.3,10.3,6.5,14.6c6.6,8.9,17.1,14.6,29.1,14.6
					c12,0,22.6-5.7,29.2-14.6c3.2-4.2,5.4-9.2,6.5-14.6h-16.9C112.2,373,104.9,378.5,96.3,378.5"/>
				<path class="st0" d="M143.8,380.1v11.6c0,1,0.8,1.9,1.9,1.9h11.9c1,0,1.9-0.9,1.9-1.9v-11.6v-12.1h10.6c3.9,0,7.4-0.9,10.4-2.4
					h-36.8V380.1z"/>
				<path class="st0" d="M201.2,380.1v11.6c0,1,0.8,1.9,1.9,1.9h11.9c1,0,1.9-0.9,1.9-1.9v-11.6v-12.1h10.6c3.9,0,7.4-0.9,10.4-2.4
					h-36.8V380.1z"/>
				<path class="st0" d="M292.2,378.5c-8.5,0-15.8-5.4-18.8-13h-16.9c1.1,5.4,3.3,10.3,6.5,14.6c6.6,8.9,17.1,14.6,29.1,14.6
					c12,0,22.6-5.7,29.2-14.6c3.2-4.2,5.4-9.2,6.5-14.6H311C308.1,373,300.7,378.5,292.2,378.5"/>
				<path class="st0" d="M416.6,380.1v11.6c0,1,0.9,1.9,1.9,1.9h12.1c1,0,1.9-0.9,1.9-1.9v-11.6v-14.6h-16V380.1z"/>
				<path class="st0" d="M498.3,366.9c0,7.4-5.4,11.5-12.6,11.5c-7.2,0-12.4-4.1-12.4-11.5v-1.4h-16.3v2.2c0,4.5,1.1,8.7,3.1,12.3
					c4.7,8.8,14.4,14.6,25.6,14.6c11.3,0,21-5.8,25.8-14.6c2-3.7,3.1-7.8,3.1-12.3v-2.2h-16.3V366.9z"/>
				<path class="st0" d="M571.3,380.1l13.4,13.5c0.8,0.8,1.5,1.1,2.5,1.1h1c1,0,1.9-0.6,1.9-1.8v-12.8v-14.6h-33.4L571.3,380.1z"/>
				<path class="st0" d="M529.3,380.1l0,11.6c0,1,0.9,1.9,1.9,1.9h12c1.1,0,1.9-0.9,1.9-1.9v-11.6v-14.6h-15.9L529.3,380.1z"/>
				<path class="st0" d="M605.5,380.1v11.6c0,1,0.9,1.9,1.9,1.9h12.1c1,0,1.9-0.9,1.9-1.9v-11.6v-14.6h-16V380.1z"/>
				<path class="st0" d="M686.7,380.1v11.6c0,1,0.9,1.9,1.9,1.9h12.1c1,0,1.9-0.9,1.9-1.9v-11.6v-14.6h-16V380.1z"/>
				<path class="st0" d="M818.3,365.5h-23.9c5.2,2.7,8,5.3,8,9c0,2.6-1.6,4.7-4.1,5.6c-0.9,0.3-1.9,0.5-2.9,0.5
					c-1.4,0-2.8-0.2-4.1-0.5c-4.5-1.1-8.1-3.6-10.3-5.1c-1-0.7-2.6-0.7-3.4,0.6l-2.5,4.5l-2.1,3.7c-0.7,1.3-0.4,2.2,0.4,3
					c2.3,2.3,9.6,7.8,22.8,7.8c11.8,0,19.9-6.6,22.7-14.6c0.7-2.1,1.1-4.2,1.1-6.4v0v0C820,370.5,819.4,367.8,818.3,365.5"/>
				<path class="st0" d="M387.1,380.1l-7.9-14.6h-39.5v14.6v11.6c0,1,0.8,1.9,1.9,1.9h12c1,0,1.9-0.9,1.9-1.9v-11.6v-14.2h7
					l7.1,14.2l6.3,12.6c0.2,0.4,0.8,0.9,1.6,0.9h13.5c1.7,0,2.4-1.6,1.7-2.9L387.1,380.1z"/>
			</g>
		</g>
		<g class="st2">
			<g>
				<path class="st0" d="M143.8,418.6c0,1,0.8,1.9,1.9,1.9h11.9c1,0,1.9-0.9,1.9-1.9v-11.6h-15.8V418.6z"/>
				<path class="st0" d="M321.4,406.9H263c6.6,8.9,17.1,14.6,29.1,14.6C304.2,421.5,314.8,415.8,321.4,406.9"/>
				<path class="st0" d="M339.7,418.6c0,1,0.8,1.9,1.9,1.9h12c1,0,1.9-0.9,1.9-1.9v-11.6h-15.9V418.6z"/>
				<path class="st0" d="M416.6,418.6c0,1,0.9,1.9,1.9,1.9h12.1c1,0,1.9-0.9,1.9-1.9v-11.6h-16V418.6z"/>
				<path class="st0" d="M590.2,419.7v-12.8h-18.9l13.4,13.5c0.8,0.8,1.5,1.1,2.5,1.1h1C589.3,421.5,590.2,420.9,590.2,419.7"/>
				<path class="st0" d="M529.4,418.6c0,1,0.9,1.9,1.9,1.9h12c1.1,0,1.9-0.9,1.9-1.9v-11.6h-15.9L529.4,418.6z"/>
				<path class="st0" d="M605.5,418.6c0,1,0.9,1.9,1.9,1.9h12.1c1,0,1.9-0.9,1.9-1.9v-11.6h-16V418.6z"/>
				<path class="st0" d="M646,418.6c0,1,0.9,1.9,1.9,1.9h12.1c1,0,1.9-0.9,1.9-1.9v-11.6h-16V418.6z"/>
				<path class="st0" d="M686.7,418.6c0,1,0.9,1.9,1.9,1.9h12.1c1,0,1.9-0.9,1.9-1.9v-11.6h-16V418.6z"/>
				<path class="st0" d="M717.9,418.6c0,1,0.8,1.9,1.9,1.9h41.9c1.1,0,1.9-0.9,1.9-1.9v-11c0-0.2-0.1-0.4-0.1-0.6h-45.6V418.6z"/>
				<path class="st0" d="M818.9,406.9h-20.5c-0.9,0.3-1.9,0.5-2.9,0.5c-1.4,0-2.8-0.2-4.1-0.5h-16.3l-2.1,3.7
					c-0.7,1.3-0.4,2.2,0.4,3c2.3,2.3,9.6,7.8,22.8,7.8C807.9,421.5,816,414.9,818.9,406.9"/>
			</g>
		</g>
		<g class="st1">
			<g>
				<path class="st0" d="M426.9,116.4h-20.3c-1.1,0-1.9,0.8-1.9,1.9v6.4h24.1l0-6.4C428.7,117.3,427.9,116.4,426.9,116.4"/>
			</g>
		</g>
		<g class="st1">
			<g>
				<path class="st0" d="M159.9,82H115c-1.1,0-1.9,0.9-1.9,1.9v11c0,0.2,0.1,0.4,0.1,0.6c0.2,0.7,0.9,1.3,1.8,1.3h14.5v13.3v14.6h16
					v-14.6V96.9h14.5c0.9,0,1.6-0.6,1.8-1.3c0.1-0.2,0.1-0.4,0.1-0.6v-11C161.8,82.9,161,82,159.9,82"/>
				<path class="st0" d="M201,112.2h-15v-2.1V96.5h15c4.1,0,7.7,2.9,7.7,7.7c0,2.5-1,4.5-2.5,6C204.8,111.5,203,112.2,201,112.2
					 M202.3,82H172c-1.1,0-1.9,0.9-1.9,1.9v11.6v14.6v14.6h39.5l-0.3-0.5c7.2-2.7,12.1-7.7,14-14.1c0.6-2,0.9-4.1,0.9-6.3
					c0-2.9-0.6-5.7-1.6-8.3C219.6,87.6,212,82,202.3,82"/>
				<path class="st0" d="M280,82h-41.9c-1.1,0-1.9,0.9-1.9,1.9v11.6v14.6v14.6H252v-0.4h23.1c1,0,1.9-0.8,1.9-1.9v-11
					c0-0.5-0.2-0.9-0.5-1.2c-0.4-0.4-0.9-0.7-1.4-0.7H252V96.9h28c0.9,0,1.6-0.6,1.8-1.3c0.1-0.2,0.1-0.4,0.1-0.6v-11
					C282,82.9,281.1,82,280,82"/>
				<path class="st0" d="M353.6,82h-12.1c-1.1,0-1.9,0.9-1.9,1.9v11.6v14.6v9.7h-0.1l-10.1-9.7l-15.2-14.6l-13.6-13.1
					c-0.8-0.8-1.5-1.5-2.5-1.5h0h-1.5c-1,0-1.9,0.8-1.9,1.8l0,12.8l0,14.6l0,14.6h15.9v-11.5h0.1l11.5,11.5h33.4v-14.6V95.5V83.9
					C355.5,82.9,354.6,82,353.6,82"/>
				<path class="st0" d="M482.6,82h-44.9c-1.1,0-1.9,0.9-1.9,1.9v11c0,0.2,0.1,0.4,0.1,0.6c0.2,0.7,0.9,1.3,1.8,1.3h14.5v13.3v14.6
					h16v-14.6V96.9h14.5c0.9,0,1.6-0.6,1.8-1.3c0.1-0.2,0.1-0.4,0.1-0.6v-11C484.5,82.9,483.7,82,482.6,82"/>
				<path class="st0" d="M419.8,101.8l5.9-6.3l2.1-2.2c0.8-0.8,0.7-2-0.2-2.7c-6.9-6-16.2-9.5-24.7-9.5c-11.9,0-22.4,5.7-29,14.5
					c-3.2,4.2-5.5,9.2-6.6,14.6c-0.5,2.4-0.7,4.9-0.7,7.4c0,2.5,0.2,4.9,0.7,7.2h18c-0.9-2.2-1.4-4.7-1.4-7.2c0-2.6,0.5-5.1,1.4-7.4
					c2.9-7.6,10.1-13.1,18.6-13.1c5,0,9.4,1.3,13.3,4.9C417.9,102.5,419,102.5,419.8,101.8"/>
				<path class="st0" d="M87.8,110.1c-0.2-0.1-0.4-0.2-0.6-0.3c-7.1-3.4-11-6.1-11-9.4c0-2,0.9-3.9,2.9-4.9c0.9-0.4,1.9-0.7,3.3-0.7
					c1.4,0,2.9,0.3,4.3,0.7c4,1.2,7.6,3.6,9.3,4.8c2,1.2,3.7,0.4,4.5-0.7l2.7-4l2.5-3.7c0.4-0.7,0.6-2.5-0.6-3.2
					c-3-2.2-11.1-7.6-21.7-7.6h0h0c-12.7,0-20.2,6.7-22.6,14.6c-0.5,1.8-0.8,3.7-0.8,5.6c0,3.5,0.8,6.5,2.3,9
					c3.5,6.2,10.4,10,17.4,13.4c0.8,0.4,1.6,0.8,2.4,1.2h23.9C102.5,117.1,94.5,113.4,87.8,110.1"/>
				<path class="st0" d="M593.1,110.1c-0.2-0.1-0.4-0.2-0.6-0.3c-7.1-3.4-11-6.1-11-9.4c0-2,0.9-3.9,2.9-4.9
					c0.9-0.4,1.9-0.7,3.3-0.7c1.4,0,2.9,0.3,4.3,0.7c4,1.2,7.6,3.6,9.3,4.8c2,1.2,3.7,0.4,4.5-0.7l2.7-4l2.5-3.7
					c0.4-0.7,0.6-2.5-0.6-3.2c-3-2.2-11.1-7.6-21.7-7.6h0h0c-12.7,0-20.2,6.7-22.6,14.6c-0.5,1.8-0.8,3.7-0.8,5.6
					c0,3.5,0.8,6.5,2.3,9c3.5,6.2,10.4,10,17.4,13.4c0.8,0.4,1.6,0.8,2.4,1.2h23.9C607.8,117.1,599.8,113.4,593.1,110.1"/>
			</g>
		</g>
		<g class="st2">
			<g>
				<path class="st0" d="M83.3,40.7L83.3,40.7L83.3,40.7c-12.7,0-20.2,6.7-22.6,14.6C60.2,57.1,60,59,60,60.9c0,3.5,0.8,6.5,2.3,9
					h25.6c-0.2-0.1-0.4-0.2-0.6-0.3c-7.1-3.4-11-6.1-11-9.4c0-2,0.9-3.9,2.9-4.9c0.9-0.4,1.9-0.7,3.3-0.7c1.4,0,2.9,0.3,4.3,0.7
					c4,1.2,7.6,3.6,9.3,4.8c2,1.2,3.7,0.4,4.5-0.7l2.7-4l2.5-3.7c0.4-0.7,0.6-2.5-0.6-3.2C102,46.1,93.9,40.7,83.3,40.7"/>
				<path class="st0" d="M159.9,41.7H115c-1.1,0-1.9,0.9-1.9,1.9v11c0,0.2,0.1,0.4,0.1,0.6c0.2,0.7,0.9,1.3,1.8,1.3h14.5v13.3h16
					V56.6h14.5c0.9,0,1.6-0.6,1.8-1.3c0.1-0.2,0.1-0.4,0.1-0.6v-11C161.8,42.6,161,41.7,159.9,41.7"/>
				<path class="st0" d="M202.3,41.7H172c-1.1,0-1.9,0.9-1.9,1.9v11.6v14.6H186V56.2h15c4.1,0,7.7,2.9,7.7,7.7c0,2.5-1,4.5-2.5,6
					h17.2c0.6-2,0.9-4.1,0.9-6.3c0-2.9-0.6-5.7-1.6-8.3C219.6,47.3,212,41.7,202.3,41.7"/>
				<path class="st0" d="M280,41.7h-41.9c-1.1,0-1.9,0.9-1.9,1.9v11.6v14.6h40.3c-0.4-0.4-0.9-0.7-1.4-0.7H252V56.6h28
					c0.9,0,1.6-0.6,1.8-1.3c0.1-0.2,0.1-0.4,0.1-0.6v-11C282,42.6,281.1,41.7,280,41.7"/>
				<path class="st0" d="M300.6,42.2c-0.8-0.8-1.5-1.5-2.5-1.5h0h-1.5c-1,0-1.9,0.8-1.9,1.8l0,12.8l0,14.6h34.7l-15.2-14.6
					L300.6,42.2z"/>
				<path class="st0" d="M482.6,41.7h-44.9c-1.1,0-1.9,0.9-1.9,1.9v11c0,0.2,0.1,0.4,0.1,0.6c0.2,0.7,0.9,1.3,1.8,1.3h14.5v13.3h16
					V56.6h14.5c0.9,0,1.6-0.6,1.8-1.3c0.1-0.2,0.1-0.4,0.1-0.6v-11C484.5,42.6,483.7,41.7,482.6,41.7"/>
				<path class="st0" d="M610.3,48.3c-3-2.2-11.1-7.6-21.7-7.6h0h0c-12.7,0-20.2,6.7-22.6,14.6c-0.5,1.8-0.8,3.7-0.8,5.6
					c0,3.5,0.8,6.5,2.3,9h25.6c-0.2-0.1-0.4-0.2-0.6-0.3c-7.1-3.4-11-6.1-11-9.4c0-2,0.9-3.9,2.9-4.9c0.9-0.4,1.9-0.7,3.3-0.7
					c1.4,0,2.9,0.3,4.3,0.7c4,1.2,7.6,3.6,9.3,4.8c2,1.2,3.7,0.4,4.5-0.7l2.7-4l2.5-3.7C611.3,50.8,611.5,49,610.3,48.3"/>
			</g>
		</g>
		<g class="st2">
			<g>
				<path class="st0" d="M508.7,11.4c0-1-0.8-1.9-1.9-1.9h-12c-1,0-1.9,0.9-1.9,1.9v11.6h15.9V11.4z M553.5,11.4
					c0-1-0.9-1.9-1.9-1.9h-12c-1.1,0-1.9,0.9-1.9,1.9v11.6h15.9V11.4z M484.5,22.5v-11c0-1-0.8-1.9-1.9-1.9h-44.9
					c-1.1,0-1.9,0.9-1.9,1.9v11c0,0.2,0.1,0.4,0.1,0.6h48.5C484.5,22.9,484.5,22.7,484.5,22.5 M425.7,23.1l2.1-2.2
					c0.8-0.8,0.7-2-0.2-2.7 M355.5,11.4c0-1-0.9-1.9-1.9-1.9h-12.1c-1.1,0-1.9,0.9-1.9,1.9v11.6h16V11.4z M294.6,10.3l0,12.7h19.5
					L300.6,10c-0.8-0.8-1.5-1.5-2.5-1.5h-1.5C295.5,8.5,294.6,9.3,294.6,10.3 M282,22.5v-11c0-1-0.8-1.9-1.9-1.9h-41.9
					c-1.1,0-1.9,0.9-1.9,1.9v11.6h45.6C281.9,22.9,282,22.7,282,22.5 M202.3,9.5H172c-1.1,0-1.9,0.9-1.9,1.9v11.6h52.7
					C219.6,15.1,212,9.5,202.3,9.5 M298,8.5h-1.5H298L298,8.5z"/>
			</g>
		</g>
	</g>
	<g>
		<path class="st0" d="M3.1,225.8H0.7c-0.2,0-0.3-0.1-0.3-0.3v-1.3c0-0.2,0.1-0.3,0.3-0.3h6.8c0.2,0,0.3,0.1,0.3,0.3v1.3
			c0,0.2-0.1,0.3-0.3,0.3H5.1v8.7c0,0.2-0.1,0.3-0.3,0.3H3.4c-0.2,0-0.3-0.1-0.3-0.3V225.8z"/>
		<path class="st0" d="M16.2,224.2c0-0.2,0.1-0.3,0.3-0.3H18c0.2,0,0.3,0.1,0.3,0.3v4.1h5.1v-4.1c0-0.2,0.1-0.3,0.3-0.3H25
			c0.2,0,0.3,0.1,0.3,0.3v10.3c0,0.2-0.1,0.3-0.3,0.3h-1.4c-0.2,0-0.3-0.1-0.3-0.3v-4.3h-5.1v4.3c0,0.2-0.1,0.3-0.3,0.3h-1.4
			c-0.2,0-0.3-0.1-0.3-0.3V224.2z"/>
		<path class="st0" d="M34.7,224.2c0-0.2,0.1-0.3,0.3-0.3h6.3c0.2,0,0.3,0.1,0.3,0.3v1.3c0,0.2-0.1,0.3-0.3,0.3h-4.6v2.6h3.8
			c0.2,0,0.3,0.1,0.3,0.3v1.3c0,0.2-0.1,0.3-0.3,0.3h-3.8v2.7h4.6c0.2,0,0.3,0.1,0.3,0.3v1.3c0,0.2-0.1,0.3-0.3,0.3H35
			c-0.2,0-0.3-0.1-0.3-0.3V224.2z"/>
		<path class="st0" d="M52.6,229.6l-3.5-5.2c-0.1-0.2,0-0.5,0.2-0.5h1.6c0.1,0,0.2,0.1,0.2,0.1l2.5,3.6l2.5-3.6
			c0-0.1,0.1-0.1,0.2-0.1H58c0.2,0,0.4,0.2,0.2,0.5l-3.6,5.2v5c0,0.2-0.1,0.3-0.3,0.3h-1.4c-0.2,0-0.3-0.1-0.3-0.3V229.6z"/>
	</g>
	<g>
		<path class="st0" d="M0,257.8l4.8-10.5c0-0.1,0.1-0.2,0.3-0.2h0.2c0.2,0,0.2,0.1,0.3,0.2l4.8,10.5c0.1,0.2,0,0.4-0.3,0.4H8.7
			c-0.2,0-0.3-0.1-0.5-0.3l-0.8-1.7H2.9l-0.8,1.7c-0.1,0.2-0.2,0.3-0.5,0.3H0.3C0.1,258.2-0.1,258,0,257.8z M6.8,254.4L5.2,251h0
			l-1.5,3.4H6.8z"/>
		<path class="st0" d="M18.4,247.6c0-0.2,0.1-0.3,0.3-0.3h4.5c1.9,0,3.4,1.5,3.4,3.3c0,1.4-0.9,2.6-2.3,3.1l2.1,4
			c0.1,0.2,0,0.5-0.3,0.5h-1.6c-0.1,0-0.2-0.1-0.2-0.1l-2.1-4.1h-1.7v4c0,0.2-0.1,0.3-0.3,0.3h-1.4c-0.2,0-0.3-0.1-0.3-0.3V247.6z
			 M23,252.2c0.8,0,1.5-0.7,1.5-1.6c0-0.8-0.7-1.5-1.5-1.5h-2.5v3.1H23z"/>
		<path class="st0" d="M35.4,247.6c0-0.2,0.1-0.3,0.3-0.3H42c0.2,0,0.3,0.1,0.3,0.3v1.3c0,0.2-0.1,0.3-0.3,0.3h-4.6v2.6h3.8
			c0.2,0,0.3,0.1,0.3,0.3v1.3c0,0.2-0.1,0.3-0.3,0.3h-3.8v2.7H42c0.2,0,0.3,0.1,0.3,0.3v1.3c0,0.2-0.1,0.3-0.3,0.3h-6.3
			c-0.2,0-0.3-0.1-0.3-0.3V247.6z"/>
	</g>
	<g>
		<path class="st0" d="M2.6,118.4c0-0.1,0.1-0.2,0.3-0.2h0.2c0.1,0,0.2,0.1,0.3,0.2l3.4,7.3c0,0,0,0,0,0l3.4-7.3
			c0-0.1,0.1-0.2,0.3-0.2h0.2c0.2,0,0.3,0.1,0.3,0.2l1.8,10.5c0,0.2-0.1,0.4-0.3,0.4h-1.4c-0.1,0-0.3-0.1-0.3-0.2l-0.9-5.9
			c0,0,0,0,0,0l-2.7,6.1c0,0.1-0.1,0.2-0.3,0.2H6.7c-0.1,0-0.2-0.1-0.3-0.2l-2.8-6.1c0,0,0,0,0,0L2.7,129c0,0.1-0.1,0.2-0.3,0.2H1
			c-0.2,0-0.3-0.1-0.3-0.4L2.6,118.4z"/>
		<path class="st0" d="M26.5,118.2c3.1,0,5.6,2.5,5.6,5.6s-2.5,5.6-5.6,5.6s-5.6-2.5-5.6-5.6S23.4,118.2,26.5,118.2z M26.5,127.3
			c2,0,3.6-1.6,3.6-3.6c0-2-1.6-3.6-3.6-3.6c-2,0-3.6,1.6-3.6,3.6C22.9,125.7,24.5,127.3,26.5,127.3z"/>
		<path class="st0" d="M40.8,118.6c0-0.2,0.1-0.3,0.3-0.3h4.5c1.9,0,3.4,1.5,3.4,3.3c0,1.4-0.9,2.6-2.3,3.1l2.1,4
			c0.1,0.2,0,0.5-0.3,0.5h-1.6c-0.1,0-0.2-0.1-0.2-0.1l-2.1-4.1h-1.7v4c0,0.2-0.1,0.3-0.3,0.3h-1.4c-0.2,0-0.3-0.1-0.3-0.3V118.6z
			 M45.4,123.3c0.8,0,1.5-0.7,1.5-1.6c0-0.8-0.7-1.5-1.5-1.5h-2.5v3.1H45.4z"/>
		<path class="st0" d="M57.7,118.6c0-0.2,0.1-0.3,0.3-0.3h6.3c0.2,0,0.3,0.1,0.3,0.3v1.3c0,0.2-0.1,0.3-0.3,0.3h-4.6v2.6h3.8
			c0.2,0,0.3,0.1,0.3,0.3v1.3c0,0.2-0.1,0.3-0.3,0.3h-3.8v2.7h4.6c0.2,0,0.3,0.1,0.3,0.3v1.3c0,0.2-0.1,0.3-0.3,0.3H58
			c-0.2,0-0.3-0.1-0.3-0.3V118.6z"/>
		<path class="st0" d="M84.4,120.2H82c-0.2,0-0.3-0.1-0.3-0.3v-1.3c0-0.2,0.1-0.3,0.3-0.3h6.8c0.2,0,0.3,0.1,0.3,0.3v1.3
			c0,0.2-0.1,0.3-0.3,0.3h-2.4v8.7c0,0.2-0.1,0.3-0.3,0.3h-1.4c-0.2,0-0.3-0.1-0.3-0.3V120.2z"/>
		<path class="st0" d="M97.5,118.6c0-0.2,0.1-0.3,0.3-0.3h1.4c0.2,0,0.3,0.1,0.3,0.3v4.1h5.1v-4.1c0-0.2,0.1-0.3,0.3-0.3h1.4
			c0.2,0,0.3,0.1,0.3,0.3v10.3c0,0.2-0.1,0.3-0.3,0.3h-1.4c-0.2,0-0.3-0.1-0.3-0.3v-4.3h-5.1v4.3c0,0.2-0.1,0.3-0.3,0.3h-1.4
			c-0.2,0-0.3-0.1-0.3-0.3V118.6z"/>
		<path class="st0" d="M114.7,128.8l4.8-10.5c0-0.1,0.1-0.2,0.3-0.2h0.2c0.2,0,0.2,0.1,0.3,0.2l4.8,10.5c0.1,0.2,0,0.4-0.3,0.4h-1.4
			c-0.2,0-0.3-0.1-0.5-0.3l-0.8-1.7h-4.7l-0.8,1.7c-0.1,0.2-0.2,0.3-0.5,0.3H115C114.7,129.2,114.6,129,114.7,128.8z M121.4,125.5
			l-1.6-3.4h0l-1.5,3.4H121.4z"/>
		<path class="st0" d="M133.1,118.4c0-0.2,0.1-0.3,0.3-0.3h0.2c0.1,0,0.2,0,0.3,0.1l6.3,6.8h0v-6.4c0-0.2,0.1-0.3,0.3-0.3h1.4
			c0.2,0,0.3,0.1,0.3,0.3v10.5c0,0.2-0.1,0.3-0.3,0.3h-0.2c-0.1,0-0.2,0-0.3-0.1l-6.4-7h0v6.7c0,0.2-0.1,0.3-0.3,0.3h-1.4
			c-0.2,0-0.3-0.1-0.3-0.3V118.4z"/>
	</g>
</g>
</svg>
