<?xml version="1.0" encoding="utf-8"?>
<!-- Generator: Adobe Illustrator 25.4.1, SVG Export Plug-In . SVG Version: 6.00 Build 0)  -->
<svg version="1.1" id="Capa_1" xmlns="http://www.w3.org/2000/svg" xmlns:xlink="http://www.w3.org/1999/xlink" x="0px" y="0px"
	 viewBox="0 0 820 430" style="enable-background:new 0 0 820 430;" xml:space="preserve">
<style type="text/css">
	.st0{fill:#FFFFFF;}
	.st1{opacity:0.3;}
	.st2{opacity:0.15;}
</style>
<g>
	<g>
		<path class="st0" d="M113.4,224.3H70.1c-1.1,0-2,0.9-2,2v12.1v15.2v15.2V284v12.1c0,1.1,0.8,2,2,2h43.3c1.1,0,2-0.9,2-2v-11.5
			c0-0.2-0.1-0.4-0.1-0.6c-0.3-0.8-1-1.4-1.9-1.4h-29v-13.8v-0.4h23.8c1,0,2-0.8,2-2v-11.5c0-0.5-0.2-0.9-0.5-1.3
			c-0.4-0.4-0.9-0.7-1.5-0.7H84.4v-13.1h29c0.9,0,1.6-0.6,1.9-1.4c0.1-0.2,0.1-0.4,0.1-0.6v-11.5
			C115.4,225.3,114.5,224.3,113.4,224.3"/>
		<path class="st0" d="M189.4,224.3h-13.9c-0.8,0-1.6,0.6-1.8,1.2l-5.8,13l-6.8,15.2l-4.6,10.3h-0.6l-4.6-10.3l-6.8-15.2l-5.8-13
			c-0.2-0.5-0.9-1.2-1.8-1.2H123c-1.6,0-2.4,1.4-1.8,2.7l5.2,11.4l7,15.2l7,15.2l7,15.2l6.4,14c0.3,0.6,0.9,1.2,1.8,1.2h1
			c0.8,0,1.5-0.5,1.8-1.2l6.5-14l7-15.2l7-15.2l7-15.2l5.3-11.4C191.8,225.7,191,224.3,189.4,224.3"/>
		<path class="st0" d="M384.8,224.3h-12.9c-1.1,0-2,0.9-2,2v12.1v15.2v15.2v1.5c0,7.7-5.5,12-13.1,12c-7.4,0-12.9-4.3-12.9-12v-1.5
			v-15.2v-15.2v-12.1c0-1.1-0.8-2-2-2h-12.9c-1,0-2,0.9-2,2v12.1v15.2v15.2v2.3c0,4.7,1.2,9,3.2,12.9c4.9,9.2,14.9,15.2,26.5,15.2
			c11.7,0,21.7-6,26.7-15.2c2-3.8,3.2-8.2,3.2-12.9v-2.3v-15.2v-15.2v-12.1C386.7,225.3,385.8,224.3,384.8,224.3"/>
		<path class="st0" d="M443.4,224.3H397c-1.2,0-2,0.9-2,2v11.5c0,0.2,0.1,0.4,0.1,0.6c0.3,0.8,1,1.4,1.9,1.4h14.9v13.8v15.2V284
			v12.1c0,1.1,0.9,2,2,2h12.5c1,0,2-0.9,2-2V284v-15.2v-15.2v-13.8h14.9c0.9,0,1.6-0.6,1.9-1.4c0.1-0.2,0.1-0.4,0.1-0.6v-11.5
			C445.4,225.3,444.5,224.3,443.4,224.3"/>
		<path class="st0" d="M468.4,224.3h-12.5c-1,0-2,0.9-2,2v12.1v15.2v15.2V284v12.1c0,1.1,0.9,2,2,2h12.5c1,0,2-0.9,2-2V284v-15.2
			v-15.2v-15.2v-12.1C470.4,225.3,469.5,224.3,468.4,224.3"/>
		<path class="st0" d="M629.2,224.3h-12.5c-1.1,0-2,0.9-2,2v12.1v15.2v10.1h-0.1l-10.4-10.1l-15.7-15.2l-14-13.6
			c-0.8-0.8-1.6-1.6-2.6-1.6h-1.6c-1,0-2,0.8-2,1.9l0,13.3l0,15.2l0,15.2l0,15.2l0,12.1c0,1.1,0.9,2,2,2h12.4c1.1,0,2-0.9,2-2V284
			v-15.2v-12h0.1l11.9,12l15,15.2l13.8,14c0.8,0.8,1.6,1.2,2.6,1.2h1c1,0,2-0.6,2-1.9V284v-15.2v-15.2v-15.2v-12.1
			C631.2,225.3,630.2,224.3,629.2,224.3"/>
		<path class="st0" d="M247.8,268.8c-3,7.8-10.6,13.5-19.5,13.5c-8.8,0-16.4-5.6-19.4-13.5c-0.9-2.3-1.4-4.8-1.4-7.5
			c0-2.7,0.5-5.3,1.5-7.7c3.1-7.8,10.6-13.5,19.3-13.5c8.8,0,16.4,5.6,19.4,13.5c0.9,2.4,1.5,5,1.5,7.7
			C249.2,263.9,248.7,266.5,247.8,268.8 M258.4,238.5c-6.8-9.2-17.7-15.2-30.1-15.2c-12.4,0-23.2,6-30,15.2
			c-3.3,4.4-5.6,9.5-6.8,15.2c-0.5,2.5-0.8,5.1-0.8,7.7c0,2.6,0.3,5.1,0.7,7.5c1.1,5.6,3.4,10.8,6.7,15.2
			c6.8,9.2,17.7,15.2,30.1,15.2c12.4,0,23.3-5.9,30.2-15.2c3.3-4.4,5.6-9.5,6.7-15.2c0.5-2.4,0.7-4.9,0.7-7.5c0-2.6-0.3-5.2-0.8-7.7
			C264,248,261.7,242.9,258.4,238.5"/>
		<path class="st0" d="M538.7,268.8c-3,7.8-10.6,13.5-19.5,13.5c-8.8,0-16.4-5.6-19.4-13.5c-0.9-2.3-1.4-4.8-1.4-7.5
			c0-2.7,0.5-5.3,1.5-7.7c3.1-7.8,10.6-13.5,19.3-13.5c8.8,0,16.4,5.6,19.4,13.5c0.9,2.4,1.5,5,1.5,7.7
			C540.1,263.9,539.6,266.5,538.7,268.8 M549.3,238.5c-6.8-9.2-17.7-15.2-30.1-15.2c-12.4,0-23.2,6-30,15.2
			c-3.3,4.4-5.6,9.5-6.8,15.2c-0.5,2.5-0.8,5.1-0.8,7.7c0,2.6,0.3,5.1,0.7,7.5c1.1,5.6,3.4,10.8,6.7,15.2
			c6.8,9.2,17.7,15.2,30.1,15.2c12.4,0,23.3-5.9,30.2-15.2c3.3-4.4,5.6-9.5,6.7-15.2c0.5-2.4,0.7-4.9,0.7-7.5c0-2.6-0.3-5.2-0.8-7.7
			C554.9,248,552.6,242.9,549.3,238.5"/>
		<path class="st0" d="M318.7,282.6h-24.9v-13.8v-15.2v-15.2v-12.1c0-1.1-0.9-2-2-2h-12.4c-1.2,0-2,0.9-2,2v12.1v15.2v15.2V284v12.1
			c0,1.1,0.8,2,2,2h39.3c1.1,0,2-0.9,2-2v-11.5c0-0.2-0.1-0.4-0.1-0.6C320.3,283.2,319.6,282.6,318.7,282.6"/>
		<g class="st1">
			<g>
				<path class="st0" d="M156.5,324.9h-0.6l-4.6-10.3h-17.9l7,15.2l7,15.2l6.4,14c0.3,0.6,0.9,1.2,1.8,1.2h1c0.8,0,1.5-0.5,1.8-1.2
					l6.5-14l7-15.2l7-15.2h-17.8L156.5,324.9z"/>
				<path class="st0" d="M247.7,314.6c0.9,2.4,1.5,5,1.5,7.7c0,2.6-0.5,5.1-1.4,7.5c-3,7.8-10.6,13.5-19.5,13.5
					c-8.8,0-16.4-5.6-19.4-13.5c-0.9-2.3-1.4-4.8-1.4-7.5c0-2.7,0.5-5.3,1.5-7.7h-17.4c-0.5,2.5-0.8,5.1-0.8,7.7
					c0,2.6,0.3,5.1,0.7,7.5c1.1,5.6,3.4,10.8,6.7,15.2c6.8,9.2,17.7,15.2,30.1,15.2c12.4,0,23.3-5.9,30.2-15.2
					c3.3-4.4,5.6-9.5,6.7-15.2c0.5-2.4,0.7-4.9,0.7-7.5c0-2.6-0.3-5.2-0.8-7.7H247.7z"/>
				<path class="st0" d="M369.9,329.8v1.5c0,7.7-5.5,12-13.1,12c-7.4,0-12.9-4.3-12.9-12v-1.5v-15.2h-16.8v15.2v2.3
					c0,4.7,1.2,9,3.2,12.9c4.9,9.2,14.9,15.2,26.5,15.2c11.7,0,21.7-6,26.7-15.2c2-3.8,3.2-8.2,3.2-12.9v-2.3v-15.2h-16.8V329.8z"/>
				<path class="st0" d="M453.9,329.8V345v12.1c0,1.1,0.9,2,2,2h12.5c1,0,2-0.9,2-2V345v-15.2v-15.2h-16.5V329.8z"/>
				<path class="st0" d="M538.7,314.6c0.9,2.4,1.5,5,1.5,7.7c0,2.6-0.5,5.1-1.4,7.5c-3,7.8-10.6,13.5-19.5,13.5
					c-8.8,0-16.4-5.6-19.4-13.5c-0.9-2.3-1.4-4.8-1.4-7.5c0-2.7,0.5-5.3,1.5-7.7h-17.4c-0.5,2.5-0.8,5.1-0.8,7.7
					c0,2.6,0.3,5.1,0.7,7.5c1.1,5.6,3.4,10.8,6.7,15.2c6.8,9.2,17.7,15.2,30.1,15.2c12.4,0,23.3-5.9,30.2-15.2
					c3.3-4.4,5.6-9.5,6.7-15.2c0.5-2.4,0.7-4.9,0.7-7.5c0-2.6-0.3-5.2-0.8-7.7H538.7z"/>
				<path class="st0" d="M614.7,314.6v10.1h-0.1l-10.4-10.1h-35.8l0,15.2l0,15.2l0,12.1c0,1.1,0.9,2,2,2h12.4c1.1,0,2-0.9,2-2V345
					v-15.2v-12h0.1l11.9,12l15,15.2l13.8,14c0.8,0.8,1.6,1.2,2.6,1.2h1c1,0,2-0.6,2-1.9V345v-15.2v-15.2H614.7z"/>
				<path class="st0" d="M113.4,343.6h-29v-13.8v-0.4h23.8c1,0,2-0.8,2-2v-11.5c0-0.5-0.2-0.9-0.5-1.3H68.1v15.2V345v12.1
					c0,1.1,0.8,2,2,2h43.3c1.1,0,2-0.9,2-2v-11.5c0-0.2-0.1-0.4-0.1-0.6C115,344.2,114.3,343.6,113.4,343.6"/>
				<path class="st0" d="M318.7,343.6h-24.9v-13.8v-15.2h-16.4v15.2V345v12.1c0,1.1,0.8,2,2,2h39.3c1.1,0,2-0.9,2-2v-11.5
					c0-0.2-0.1-0.4-0.1-0.6C320.3,344.2,319.6,343.6,318.7,343.6"/>
			</g>
		</g>
		<g class="st2">
			<g>
				<path class="st0" d="M147.4,386.9l6.4,14c0.3,0.6,0.9,1.2,1.8,1.2h1c0.8,0,1.5-0.5,1.8-1.2l6.5-14l7-15.2h-31.5L147.4,386.9z"/>
			</g>
		</g>
		<g class="st2">
			<g>
				<path class="st0" d="M228.3,385.2c-8.8,0-16.4-5.6-19.4-13.5h-17.4c1.1,5.6,3.4,10.8,6.7,15.2c6.8,9.2,17.7,15.2,30.1,15.2
					c12.4,0,23.3-5.9,30.2-15.2c3.3-4.4,5.6-9.5,6.7-15.2h-17.4C244.8,379.5,237.2,385.2,228.3,385.2"/>
			</g>
		</g>
		<g class="st2">
			<g>
				<path class="st0" d="M318.7,385.5h-24.9v-13.8h-16.4v15.2V399c0,1.1,0.8,2,2,2h39.3c1.1,0,2-0.9,2-2v-11.5
					c0-0.2-0.1-0.4-0.1-0.6C320.3,386.1,319.6,385.5,318.7,385.5"/>
			</g>
		</g>
		<g class="st2">
			<g>
				<path class="st0" d="M369.9,373.2c0,7.7-5.5,12-13.1,12c-7.4,0-12.9-4.3-12.9-12v-1.5h-16.8v2.3c0,4.7,1.2,9,3.2,12.9
					c4.9,9.2,14.9,15.2,26.5,15.2c11.7,0,21.7-6,26.7-15.2c2-3.8,3.2-8.2,3.2-12.9v-2.3h-16.8V373.2z"/>
			</g>
		</g>
		<g class="st2">
			<g>
				<path class="st0" d="M519.2,385.2c-8.8,0-16.4-5.6-19.4-13.5h-17.4c1.1,5.6,3.4,10.8,6.7,15.2c6.8,9.2,17.7,15.2,30.1,15.2
					c12.4,0,23.3-5.9,30.2-15.2c3.3-4.4,5.6-9.5,6.7-15.2h-17.4C535.7,379.5,528.1,385.2,519.2,385.2"/>
			</g>
		</g>
		<g class="st2">
			<g>
				<path class="st0" d="M596.7,371.7l15,15.2l13.8,14c0.8,0.8,1.6,1.2,2.6,1.2h1c1,0,2-0.6,2-1.9v-13.3v-15.2H596.7z"/>
			</g>
		</g>
		<g class="st2">
			<g>
				<path class="st0" d="M258.5,414.8h-60.3c6.8,9.2,17.7,15.2,30.1,15.2C240.7,430,251.6,424.1,258.5,414.8"/>
			</g>
		</g>
		<g class="st2">
			<g>
				<path class="st0" d="M383.5,414.8h-53.1c4.9,9.2,14.9,15.2,26.5,15.2C368.5,430,378.6,424,383.5,414.8"/>
			</g>
		</g>
		<g class="st2">
			<g>
				<path class="st0" d="M453.9,426.9c0,1.1,0.9,2,2,2h12.5c1,0,2-0.9,2-2v-12.1h-16.5V426.9z"/>
			</g>
		</g>
		<g class="st2">
			<g>
				<path class="st0" d="M549.4,414.8h-60.3c6.8,9.2,17.7,15.2,30.1,15.2C531.6,430,542.6,424.1,549.4,414.8"/>
			</g>
		</g>
		<g class="st2">
			<g>
				<path class="st0" d="M631.2,428.1v-13.3h-19.5l13.8,14c0.8,0.8,1.6,1.2,2.6,1.2h1C630.2,430,631.2,429.4,631.2,428.1"/>
			</g>
		</g>
		<path class="st0" d="M202.4,136.2H190c-1.1,0-2,0.9-2,2v12.1v14.4h-29.9v-14.4v-12.1c0-1.1-0.8-2-2-2h-12.4c-1,0-2,0.9-2,2v12.1
			v15.2v15.2v15.2V208c0,1.1,0.9,2,2,2h12.4c1.1,0,2-0.9,2-2v-12.1v-15.2v-0.4H188v0.4v15.2V208c0,1.1,0.8,2,2,2h12.4c1,0,2-0.9,2-2
			v-12.1v-15.2v-15.2v-15.2v-12.1C204.4,137.2,203.5,136.2,202.4,136.2"/>
		<path class="st0" d="M350.1,136.2h-12.5c-1.2,0-2,0.9-2,2v12.1v15.2v10.1h-0.1l-10.4-10.1l-15.7-15.2l-14-13.6
			c-0.8-0.8-1.6-1.6-2.6-1.6h0h-1.6h0c-1,0-2,0.8-2,1.9l0,13.3l0,15.2l0,15.2l0,15.2l0,12.1c0,1.1,0.9,2,2,2h12.4c1.2,0,2-0.9,2-2
			v-12.1v-15.2v-12h0.1l11.9,12l15,15.2l13.8,14c0.8,0.8,1.6,1.2,2.6,1.2h1c1,0,2-0.6,2-1.9v-13.3v-15.2v-15.2v-15.2v-12.1
			C352.1,137.2,351.2,136.2,350.1,136.2"/>
		<path class="st0" d="M106.4,151.1c5.1,0,9.8,1.6,14.1,5.4c0.7,0.7,1.9,0.7,2.6,0l5.8-6.1l2.3-2.4c0.8-0.8,0.8-2.1-0.1-3
			c-7.1-6.5-14.8-9.8-25.3-9.8h0h0c-12.4,0-23.3,6-30.1,15.2c-3.3,4.4-5.7,9.5-6.8,15.2c-0.5,2.5-0.8,5.1-0.8,7.7
			c0,2.6,0.3,5.1,0.7,7.5c1.1,5.6,3.5,10.8,6.8,15.2c6.9,9.2,17.8,15.2,30.2,15.2c9.3,0,18.3-3.3,25.4-10.2c0.7-0.7,0.8-2.1,0.1-2.8
			l-2-2.1l-6.2-6.6c-0.6-0.7-2-0.7-2.7-0.1c-3.8,3.3-8.3,5.1-14,5.1c-9,0-16.2-5.6-19.2-13.5c-0.9-2.5-1.4-5.1-1.4-7.9
			c0-2.5,0.4-5,1.2-7.3C89.8,157.2,97.1,151.1,106.4,151.1"/>
		<path class="st0" d="M486.9,151.7c0.9,0,1.6-0.6,1.9-1.4c0.1-0.2,0.1-0.4,0.1-0.6v-11.5c0-1.1-0.8-2-2-2h-43.3c-1.1,0-2,0.9-2,2
			v12.1v15.2v15.2v15.2V208c0,1.1,0.8,2,2,2h43.3c1.2,0,2-0.9,2-2v-11.5c0-0.2-0.1-0.4-0.1-0.6c-0.3-0.8-1-1.4-1.9-1.4h-29v-13.8
			v-0.4h23.8c1,0,2-0.8,2-2v-11.5c0-0.5-0.2-0.9-0.5-1.3c-0.4-0.4-0.9-0.7-1.5-0.7H458v-13.1H486.9z"/>
		<path class="st0" d="M427.7,180.7l0-6.6c0-1.1-0.8-2-1.9-2h-21c-1.1,0-2,0.8-2,2v6.6v3.8c0,1.1,0.8,1.9,2,1.9h6.6v6.1
			c-3.1,1.3-6.3,1.7-9.3,1.7c-8.8,0-16.3-5.6-19.3-13.5c-0.9-2.3-1.4-4.8-1.4-7.5c0-2.7,0.5-5.3,1.4-7.7c3-7.9,10.4-13.6,19.2-13.6
			c5.1,0,9.7,1.4,13.7,5.1c0.8,0.6,2,0.6,2.8-0.1l6.1-6.5l2.2-2.3c0.8-0.8,0.7-2.1-0.2-2.8c-7.1-6.2-16.7-9.9-25.5-9.9
			c-12.3,0-23.1,5.9-29.9,15.1c-3.3,4.4-5.7,9.5-6.8,15.2c-0.5,2.5-0.8,5.1-0.8,7.7c0,2.6,0.3,5.1,0.7,7.5
			c1.1,5.6,3.5,10.8,6.7,15.2c6.8,9.2,17.7,15.1,30,15.1c15.2,0,25.9-6.8,25.9-6.8c0.4-0.3,0.8-0.7,0.8-1.7l0-6.5L427.7,180.7z"/>
		<path class="st0" d="M246.8,167.3h0.1l6.1,13.4l1.8,4h-15.9l1.8-4L246.8,167.3z M276.6,195.9l-7-15.2l-7-15.2l-7-15.2l-6.5-14
			c-0.3-0.6-1-1.2-1.8-1.2h-1c-0.7,0-1.5,0.5-1.8,1.2l-6.5,14l-7,15.2l-7,15.2l-7,15.2l-5.2,11.4c-0.6,1.4,0.2,2.7,1.8,2.7h11.5
			c2.1,0,3.2-1.3,3.8-2.5l3.8-8.4h28.4l3.8,8.3c0.9,2,1.8,2.6,3.7,2.6h11.6c1.6,0,2.4-1.4,1.8-2.7L276.6,195.9z"/>
		<g class="st1">
			<g>
				<path class="st0" d="M105.9,75.5L105.9,75.5L105.9,75.5c-12.4,0-23.3,6-30.1,15.2c-3.3,4.4-5.7,9.5-6.8,15.2
					c-0.5,2.5-0.8,5.1-0.8,7.7c0,2.6,0.3,5.1,0.7,7.5h18.5c-0.9-2.5-1.4-5.1-1.4-7.9c0-2.5,0.4-5,1.2-7.3c2.7-8.3,10-14.4,19.3-14.4
					c5.1,0,9.8,1.6,14.1,5.4c0.7,0.7,1.9,0.7,2.6,0l5.8-6.1l2.3-2.4c0.8-0.8,0.8-2.1-0.1-2.9C124.1,78.7,116.3,75.5,105.9,75.5"/>
				<path class="st0" d="M202.4,76.5H190c-1.1,0-2,0.9-2,2v12.1v14.4h-29.9V90.6V78.5c0-1.1-0.8-2-2-2h-12.4c-1,0-2,0.9-2,2v12.1
					v15.2V121h16.4v-0.4H188v0.4h16.4v-15.2V90.6V78.5C204.4,77.5,203.5,76.5,202.4,76.5"/>
				<path class="st0" d="M350.1,76.5h-12.5c-1.2,0-2,0.9-2,2v12.1v15.2v10.1h-0.1l-10.4-10.1l-15.7-15.2l-14-13.6
					c-0.8-0.8-1.6-1.6-2.6-1.6h0h-1.6h0c-1,0-2,0.8-2,1.9l0,13.3l0,15.2l0,15.2h16.4v-12h0.1l11.9,12h34.4v-15.2V90.6V78.5
					C352.1,77.5,351.2,76.5,350.1,76.5"/>
				<path class="st0" d="M486.9,76.5h-43.3c-1.1,0-2,0.9-2,2v12.1v15.2V121H458v-0.4h23.8c1,0,2-0.8,2-2v-11.5
					c0-0.5-0.2-0.9-0.5-1.3c-0.4-0.4-0.9-0.7-1.5-0.7H458V92h29c0.9,0,1.6-0.6,1.9-1.4c0.1-0.2,0.1-0.4,0.1-0.6V78.5
					C488.9,77.5,488.1,76.5,486.9,76.5"/>
				<path class="st0" d="M255.6,90.6l-6.5-14c-0.3-0.6-1-1.2-1.8-1.2h-1c-0.7,0-1.5,0.5-1.8,1.2l-6.5,14l-7,15.2l-7,15.2h16.6
					l6-13.4h0.1L253,121h16.6l-7-15.2L255.6,90.6z"/>
				<path class="st0" d="M418.5,97.2l6.1-6.5l2.2-2.3c0.8-0.8,0.7-2.1-0.2-2.8c-7.1-6.2-16.7-9.9-25.5-9.9
					c-12.3,0-23.1,5.9-29.9,15.1c-3.3,4.4-5.7,9.5-6.8,15.2c-0.5,2.5-0.8,5.1-0.8,7.7c0,2.6,0.3,5.1,0.7,7.5h18.5
					c-0.9-2.3-1.4-4.8-1.4-7.5c0-2.7,0.5-5.3,1.4-7.7c3-7.9,10.4-13.6,19.2-13.6c5.1,0,9.7,1.4,13.7,5.1
					C416.5,97.9,417.7,97.9,418.5,97.2"/>
			</g>
		</g>
		<g class="st1">
			<g>
				<path class="st0" d="M425.8,112.3h-21c-1.1,0-2,0.8-2,2v6.6h24.9l0-6.6C427.7,113.3,426.9,112.3,425.8,112.3"/>
			</g>
		</g>
		<g class="st2">
			<g>
				<path class="st0" d="M105.9,33.5L105.9,33.5L105.9,33.5c-12.4,0-23.3,6-30.1,15.2c-3.3,4.4-5.7,9.5-6.8,15.2h18.2
					c2.7-8.3,10-14.4,19.3-14.4c5.1,0,9.8,1.6,14.1,5.4c0.7,0.7,1.9,0.7,2.6,0l5.8-6.1l2.3-2.4c0.8-0.8,0.8-2.1-0.1-2.9
					C124.1,36.8,116.3,33.5,105.9,33.5"/>
				<path class="st0" d="M202.4,34.6H190c-1.1,0-2,0.9-2,2v12.1v14.4h-29.9V48.7V36.6c0-1.1-0.8-2-2-2h-12.4c-1,0-2,0.9-2,2v12.1
					v15.2h62.7V48.7V36.6C204.4,35.5,203.5,34.6,202.4,34.6"/>
				<path class="st0" d="M249.2,34.7c-0.3-0.6-1-1.2-1.8-1.2h-1c-0.7,0-1.5,0.5-1.8,1.2l-6.5,14l-7,15.2h31.5l-7-15.2L249.2,34.7z"
					/>
				<path class="st0" d="M295.4,35.1c-0.8-0.8-1.6-1.6-2.6-1.6h0h-1.6h0c-1,0-2,0.8-2,1.9l0,13.3l0,15.2h35.8l-15.7-15.2L295.4,35.1
					z"/>
				<path class="st0" d="M350.1,34.6h-12.5c-1.2,0-2,0.9-2,2v12.1v15.2h16.5V48.7V36.6C352.1,35.5,351.2,34.6,350.1,34.6"/>
				<path class="st0" d="M401,33.6c-12.3,0-23.1,5.9-29.9,15.1c-3.3,4.4-5.7,9.5-6.8,15.2h18.5c3-7.9,10.4-13.6,19.2-13.6
					c5.1,0,9.7,1.4,13.7,5.1c0.8,0.6,2,0.6,2.8-0.1l6.1-6.5l2.2-2.3c0.8-0.8,0.7-2.1-0.2-2.8C419.4,37.3,409.8,33.6,401,33.6"/>
				<path class="st0" d="M486.9,34.6h-43.3c-1.1,0-2,0.9-2,2v12.1v15.2h41.6c-0.4-0.4-0.9-0.7-1.5-0.7H458V50.1h29
					c0.9,0,1.6-0.6,1.9-1.4c0.1-0.2,0.1-0.4,0.1-0.6V36.6C488.9,35.5,488.1,34.6,486.9,34.6"/>
			</g>
		</g>
		<g class="st2">
			<g>
				<path class="st0" d="M486.9,1.1h-43.3c-1.1,0-2,0.9-2,2v12.1h47.1c0.1-0.2,0.1-0.4,0.1-0.6V3.1C488.9,2,488.1,1.1,486.9,1.1
					 M426.8,12.9c0.8-0.8,0.7-2.1-0.2-2.8c-7.1-6.2-16.7-9.9-25.5-9.9c-12.3,0-23.1,5.9-29.9,15.1h53.5L426.8,12.9z M289.2,1.9
					l0,13.3h20.2l-14-13.6c-0.8-0.8-1.6-1.6-2.6-1.6h-1.6C290.1,0,289.2,0.8,289.2,1.9 M244.6,1.2l-6.5,14h17.5l-6.5-14
					c-0.3-0.6-1-1.2-1.8-1.2h-1C245.6,0,244.9,0.5,244.6,1.2 M158.1,3.1c0-1.1-0.8-2-2-2h-12.4c-1,0-2,0.9-2,2v12.1h16.4V3.1z
					 M204.4,3.1c0-1.1-0.9-2-2-2H190c-1.1,0-2,0.9-2,2v12.1h16.4V3.1z M292.7,0h-1.6h0H292.7L292.7,0z M247.4,0h-1H247.4z"/>
			</g>
		</g>
	</g>
	<g>
		<path class="st0" d="M10.5,110.9c0-0.1,0.1-0.2,0.3-0.2H11c0.1,0,0.2,0.1,0.2,0.1l3.2,6.8c0,0,0,0,0,0l3.2-6.8
			c0-0.1,0.1-0.1,0.2-0.1h0.2c0.2,0,0.2,0.1,0.3,0.2l1.7,9.7c0,0.2-0.1,0.3-0.3,0.3h-1.3c-0.1,0-0.2-0.1-0.3-0.2l-0.9-5.5
			c0,0,0,0,0,0l-2.5,5.7c0,0.1-0.1,0.2-0.2,0.2h-0.3c-0.1,0-0.2-0.1-0.2-0.2l-2.6-5.7c0,0,0,0,0,0l-0.8,5.5c0,0.1-0.1,0.2-0.3,0.2
			H9.1c-0.2,0-0.3-0.1-0.3-0.3L10.5,110.9z"/>
		<path class="st0" d="M32.7,110.7c2.9,0,5.2,2.3,5.2,5.2c0,2.9-2.3,5.2-5.2,5.2c-2.9,0-5.2-2.3-5.2-5.2
			C27.5,113,29.8,110.7,32.7,110.7z M32.7,119.2c1.8,0,3.3-1.5,3.3-3.3c0-1.8-1.5-3.3-3.3-3.3c-1.8,0-3.3,1.5-3.3,3.3
			C29.4,117.7,30.9,119.2,32.7,119.2z"/>
		<path class="st0" d="M46,111.1c0-0.1,0.1-0.3,0.3-0.3h4.1c1.7,0,3.2,1.4,3.2,3.1c0,1.3-0.9,2.4-2.1,2.9l2,3.7
			c0.1,0.2,0,0.4-0.2,0.4h-1.5c-0.1,0-0.2-0.1-0.2-0.1l-1.9-3.8h-1.6v3.7c0,0.1-0.1,0.3-0.3,0.3h-1.3c-0.2,0-0.3-0.1-0.3-0.3V111.1z
			 M50.3,115.4c0.8,0,1.4-0.7,1.4-1.5c0-0.8-0.7-1.4-1.4-1.4h-2.4v2.9H50.3z"/>
		<path class="st0" d="M61.8,111.1c0-0.1,0.1-0.3,0.3-0.3h5.9c0.2,0,0.3,0.1,0.3,0.3v1.2c0,0.1-0.1,0.3-0.3,0.3h-4.3v2.4h3.6
			c0.1,0,0.3,0.1,0.3,0.3v1.2c0,0.2-0.1,0.3-0.3,0.3h-3.6v2.5h4.3c0.2,0,0.3,0.1,0.3,0.3v1.2c0,0.1-0.1,0.3-0.3,0.3H62
			c-0.2,0-0.3-0.1-0.3-0.3V111.1z"/>
		<path class="st0" d="M86.5,112.5h-2.2c-0.2,0-0.3-0.1-0.3-0.3v-1.2c0-0.1,0.1-0.3,0.3-0.3h6.3c0.2,0,0.3,0.1,0.3,0.3v1.2
			c0,0.1-0.1,0.3-0.3,0.3h-2.2v8.1c0,0.1-0.1,0.3-0.3,0.3h-1.3c-0.1,0-0.3-0.1-0.3-0.3V112.5z"/>
		<path class="st0" d="M98.7,111.1c0-0.1,0.1-0.3,0.3-0.3h1.3c0.2,0,0.3,0.1,0.3,0.3v3.8h4.7v-3.8c0-0.1,0.1-0.3,0.3-0.3h1.3
			c0.1,0,0.3,0.1,0.3,0.3v9.6c0,0.1-0.1,0.3-0.3,0.3h-1.3c-0.2,0-0.3-0.1-0.3-0.3v-4h-4.7v4c0,0.1-0.1,0.3-0.3,0.3H99
			c-0.1,0-0.3-0.1-0.3-0.3V111.1z"/>
		<path class="st0" d="M114.7,120.5l4.5-9.7c0-0.1,0.1-0.2,0.2-0.2h0.1c0.1,0,0.2,0.1,0.2,0.2l4.5,9.7c0.1,0.2,0,0.4-0.2,0.4h-1.3
			c-0.2,0-0.3-0.1-0.4-0.3l-0.7-1.6h-4.3l-0.7,1.6c-0.1,0.1-0.2,0.3-0.4,0.3h-1.3C114.7,120.9,114.6,120.7,114.7,120.5z
			 M120.9,117.5l-1.4-3.2h0l-1.4,3.2H120.9z"/>
		<path class="st0" d="M131.7,110.9c0-0.1,0.1-0.3,0.3-0.3h0.2c0.1,0,0.2,0,0.2,0.1l5.9,6.3h0v-6c0-0.1,0.1-0.3,0.3-0.3h1.3
			c0.1,0,0.3,0.1,0.3,0.3v9.7c0,0.1-0.1,0.3-0.3,0.3h-0.2c-0.1,0-0.2,0-0.2-0.1l-5.9-6.5h0v6.2c0,0.1-0.1,0.3-0.3,0.3H132
			c-0.1,0-0.3-0.1-0.3-0.3V110.9z"/>
	</g>
	<g>
		<path class="st0" d="M9.4,224.6c0-0.1,0.1-0.3,0.3-0.3H11c0.1,0,0.3,0.1,0.3,0.3v9.6c0,0.1-0.1,0.3-0.3,0.3H9.6
			c-0.1,0-0.3-0.1-0.3-0.3V224.6z"/>
		<path class="st0" d="M21.5,226.1h-2.2c-0.2,0-0.3-0.1-0.3-0.3v-1.2c0-0.1,0.1-0.3,0.3-0.3h6.3c0.2,0,0.3,0.1,0.3,0.3v1.2
			c0,0.1-0.1,0.3-0.3,0.3h-2.2v8.1c0,0.1-0.1,0.3-0.3,0.3h-1.3c-0.1,0-0.3-0.1-0.3-0.3V226.1z"/>
		<path class="st0" d="M34,224.2c0.7,0,1.2,0.6,1.2,1.6c0,1.1-0.5,1.7-1,2.4c-0.1,0.1-0.2,0.1-0.3,0l-0.3-0.3c-0.1-0.1,0-0.2,0-0.3
			c0.3-0.4,0.7-0.9,0.7-1.3c0-0.1,0-0.2,0-0.3c-0.1,0.1-0.3,0.1-0.5,0.1c-0.5,0-0.9-0.4-0.9-1C32.9,224.6,33.4,224.2,34,224.2z"/>
		<path class="st0" d="M42.7,233.5c-0.1-0.1-0.2-0.2-0.1-0.4l0.5-0.9c0.1-0.2,0.4-0.2,0.5-0.1c0.6,0.4,1.2,0.9,2.2,0.9
			c0.8,0,1.3-0.5,1.3-1.1c0-0.7-0.6-1.2-1.8-1.7c-1.4-0.5-2.7-1.4-2.7-3.1c0-1.3,1-2.8,3.3-2.8c1.5,0,2.6,0.8,2.9,1
			c0.1,0.1,0.2,0.3,0.1,0.5l-0.5,0.8c-0.1,0.2-0.3,0.3-0.5,0.2c-0.6-0.4-1.2-0.8-2-0.8c-0.8,0-1.3,0.5-1.3,1c0,0.7,0.5,1.1,1.7,1.6
			c1.4,0.6,3,1.4,3,3.3c0,1.5-1.3,2.9-3.3,2.9C44,234.6,43.1,233.8,42.7,233.5z"/>
	</g>
</g>
</svg>
