<?xml version="1.0" encoding="utf-8"?>
<!-- Generator: Adobe Illustrator 25.4.1, SVG Export Plug-In . SVG Version: 6.00 Build 0)  -->
<svg version="1.1" id="Capa_1" xmlns="http://www.w3.org/2000/svg" xmlns:xlink="http://www.w3.org/1999/xlink" x="0px" y="0px"
	 viewBox="0 0 820 430" style="enable-background:new 0 0 820 430;" xml:space="preserve">
<style type="text/css">
	.st0{fill:#FFFFFF;}
	.st1{opacity:0.3;}
	.st2{opacity:0.15;}
</style>
<g>
	<g>
		<path class="st0" d="M61.6,229.8H49.3c-1.1,0-1.9,1-1.9,1.9v11.8v14.8v14.8v14.8v11.8c0,1.1,1,1.9,1.9,1.9h12.3
			c1.1,0,1.9-1,1.9-1.9v-11.8v-14.8v-14.8v-14.8v-11.8C63.6,230.7,62.6,229.8,61.6,229.8"/>
		<path class="st0" d="M138.7,229.8h-12.3c-1.2,0-1.9,1-1.9,1.9v11.8v14.8v9.9h-0.1l-10.3-9.9l-15.4-14.8L85,230.3
			c-0.9-0.9-1.5-1.5-2.6-1.5h-1.5c-1.1,0-1.9,0.9-1.9,1.8v13v14.8v14.8v14.8v11.8c0,1.1,1,1.9,1.9,1.9h12.3c1.2,0,1.9-1,1.9-1.9
			v-11.8v-14.8v-11.7h0.1l11.6,11.7l14.7,14.8l13.5,13.6c0.9,0.9,1.5,1.2,2.6,1.2l0,0h1.1l0,0c1.1,0,1.9-0.6,1.9-1.8v-13v-14.8
			v-14.8v-14.8v-11.8C140.7,230.7,139.7,229.8,138.7,229.8"/>
		<path class="st0" d="M196.5,229.8H151c-1.2,0-1.9,1-1.9,1.9v11.1c0,0.2,0.1,0.4,0.1,0.6c0.3,0.8,1,1.3,1.8,1.3h14.7v13.4V273v14.8
			v11.8c0,1.1,1,1.9,1.9,1.9h12.3c1.1,0,1.9-1,1.9-1.9v-11.8V273v-14.8v-13.4h14.7c0.9,0,1.5-0.6,1.8-1.3c0.1-0.2,0.1-0.4,0.1-0.6
			v-11.1C198.6,230.7,197.7,229.8,196.5,229.8"/>
		<path class="st0" d="M251.3,229.8h-42.4c-1.2,0-1.9,1-1.9,1.9v11.8v14.8v14.8v14.8v11.8c0,1.1,0.9,1.9,1.9,1.9h42.4
			c1.2,0,1.9-1,1.9-1.9v-11.1c0-0.2-0.1-0.4-0.1-0.6c-0.3-0.8-1-1.3-1.8-1.3h-28.4v-13.4v-0.4h23.4c1.1,0,1.9-0.9,1.9-1.9v-11.1
			c0-0.5-0.2-0.9-0.5-1.2c-0.4-0.4-0.9-0.7-1.4-0.7h-23.4V245h28.4c0.9,0,1.5-0.6,1.8-1.3c0.1-0.2,0.1-0.4,0.1-0.6V232
			C253.3,230.7,252.4,229.8,251.3,229.8"/>
		<path class="st0" d="M418.6,229.8h-12.3c-1.1,0-1.9,1-1.9,1.9v11.8v14.8v14.8v14.8v11.8c0,1.1,1,1.9,1.9,1.9h12.3
			c1.1,0,1.9-1,1.9-1.9v-11.8v-14.8v-14.8v-14.8v-11.8C420.6,230.7,419.7,229.8,418.6,229.8"/>
		<path class="st0" d="M476.4,229.8h-45.5c-1.2,0-1.9,1-1.9,1.9v11.1c0,0.2,0.1,0.4,0.1,0.6c0.3,0.8,1,1.3,1.8,1.3h14.7v13.4V273
			v14.8v11.8c0,1.1,1,1.9,1.9,1.9h12.3c1.1,0,1.9-1,1.9-1.9v-11.8V273v-14.8v-13.4h14.7c0.9,0,1.5-0.6,1.8-1.3
			c0.1-0.2,0.1-0.4,0.1-0.6v-11.1C478.3,230.7,477.5,229.8,476.4,229.8"/>
		<path class="st0" d="M543.2,229.8h-13.3c-1,0-1.3,0.5-1.6,1l-8.7,12.9l-5.6,8.3l-5.6-8.3l-8.7-12.9c-0.3-0.4-0.9-1-1.6-1h-13.2
			c-1.6,0-2.5,1.6-1.6,3l7.1,10.8l9.8,14.8l5.8,8.7v6v14.8v11.8c0,1.1,0.9,1.9,1.9,1.9h12.2c1.1,0,1.9-1,1.9-1.9v-11.8v-14.8v-6.1
			l5.8-8.6l10-14.8l7.2-10.8C545.7,231.4,544.9,229.8,543.2,229.8"/>
		<path class="st0" d="M353.5,244.5h15.2c4.2,0,7.8,3,7.8,7.8c0,2.5-1,4.6-2.5,6c-1.4,1.3-3.3,2.1-5.3,2.1h-15.2v-2.1V244.5z
			 M391.4,258.3c0.6-2,1-4.1,1-6.3c0-3-0.6-5.9-1.6-8.4c-3.2-8.1-10.9-13.7-20.7-13.7h-30.7c-1.2,0-1.9,1-1.9,1.9v11.8v14.8v14.8
			v14.8v11.8c0,1.1,0.9,1.9,1.9,1.9h12.2c1.1,0,1.9-1,1.9-1.9v-11.8v-14.4h7.1l7.2,14.4l6.4,12.9c0.2,0.4,0.9,1,1.6,1h13.6
			c1.7,0,2.5-1.6,1.7-3l-5.9-10.8l-8-14.8l-0.3-0.5C384.5,269.8,389.5,264.7,391.4,258.3"/>
		<path class="st0" d="M323.7,273.1v-6.4c0-1.1-0.9-1.9-1.8-1.9h-20.6c-1.2,0-1.9,0.9-1.9,1.9v6.4v3.6c0,1.1,0.9,1.8,1.9,1.8h6.4v6
			c-3.1,1.2-6.1,1.6-9.1,1.6c-8.6,0-16-5.5-18.9-13.1c-0.9-2.3-1.3-4.7-1.3-7.3c0-2.6,0.5-5.2,1.4-7.5c3-7.7,10.3-13.2,18.8-13.2
			c5,0,9.5,1.3,13.4,4.9c0.9,0.6,1.9,0.6,2.8-0.1l6-6.3l2.1-2.2c0.9-0.9,0.7-2-0.2-2.8c-7-6-16.4-9.6-25.1-9.6
			c-12.1,0-22.7,5.8-29.4,14.7c-3.3,4.3-5.6,9.3-6.7,14.8c-0.5,2.4-0.8,4.9-0.8,7.5c0,2.5,0.3,4.9,0.7,7.3
			c1.1,5.5,3.4,10.5,6.6,14.8c6.7,8.9,17.4,14.7,29.5,14.7c14.9,0,25.4-6.6,25.4-6.6c0.4-0.3,0.9-0.7,0.9-1.6v-6.3L323.7,273.1z"/>
		<path class="st0" d="M165.9,132.6h-42.4c-1.2,0-1.9,1-1.9,1.9v11.8v14.8v14.8v14.8v11.8c0,1.1,0.9,1.9,1.9,1.9h42.4
			c1.2,0,1.9-1,1.9-1.9v-11.1c0-0.2-0.1-0.4-0.1-0.6c-0.3-0.8-1-1.3-1.8-1.3h-28.4V176v-0.4h23.4c1.1,0,1.9-0.9,1.9-1.9v-11.1
			c0-0.5-0.2-0.9-0.5-1.2c-0.4-0.4-0.9-0.7-1.4-0.7h-23.4v-12.8h28.4c0.9,0,1.5-0.6,1.8-1.3c0.1-0.2,0.1-0.4,0.1-0.6v-11.1
			C167.8,133.5,167.1,132.6,165.9,132.6"/>
		<path class="st0" d="M261.8,132.6h-12.3c-1.1,0-1.9,1-1.9,1.9v11.8v14.8v14.8v14.8v11.8c0,1.1,1,1.9,1.9,1.9h12.3
			c1.1,0,1.9-1,1.9-1.9v-11.8v-14.8v-14.8v-14.8v-11.8C263.7,133.5,262.8,132.6,261.8,132.6"/>
		<path class="st0" d="M349.4,132.6h-12.3c-1.1,0-1.9,1-1.9,1.9v11.8v14.8v14.8v14.8v11.8c0,1.1,1,1.9,1.9,1.9h12.3
			c1.1,0,1.9-1,1.9-1.9v-11.8v-14.8v-14.8v-14.8v-11.8C351.4,133.5,350.4,132.6,349.4,132.6"/>
		<path class="st0" d="M507.2,132.6h-12.3c-1.2,0-1.9,1-1.9,1.9v11.8v14.8v9.9h-0.1l-10.3-9.9l-15.4-14.8l-13.7-13.2
			c-0.9-0.9-1.5-1.5-2.6-1.5h-1.5c-1.1,0-1.9,0.9-1.9,1.8v13v14.8v14.8v14.8v11.8c0,1.1,1,1.9,1.9,1.9h12.2c1.2,0,1.9-1,1.9-1.9
			v-11.8v-14.8v-11.7h0.1l11.6,11.7l14.7,14.8l13.5,13.6c0.9,0.9,1.5,1.2,2.6,1.2l0,0h1.1l0,0c1.1,0,1.9-0.6,1.9-1.8v-13v-14.8
			v-14.8v-14.8v-11.8C509.2,133.5,508.2,132.6,507.2,132.6"/>
		<path class="st0" d="M74.2,189.3H63.4v-13.3v-14.8v-13.4h10.7c9,0,15.5,5.6,17.9,13.4c0.7,2.3,1.1,4.7,1.1,7.3
			c0,2.7-0.4,5.2-1.2,7.5C89.6,183.8,83.1,189.3,74.2,189.3 M102.5,146.4c-6.6-8.4-16.8-13.7-28.3-13.7h-25c-1.1,0-1.8,1-1.8,1.9
			v11.8v14.8v14.8v14.8v11.8c0,1.1,0.9,1.9,1.8,1.9h25.1c11.4,0,21.6-5.4,28.2-13.7c3.4-4.2,5.8-9.3,7-14.8c0.5-2.4,0.8-4.9,0.8-7.5
			c0-2.5-0.3-4.9-0.8-7.3C108.3,155.7,105.9,150.6,102.5,146.4"/>
		<path class="st0" d="M212.9,147c5,0,9.6,1.5,13.8,5.2c0.7,0.7,1.8,0.7,2.6,0l5.8-6l2.3-2.4c0.9-0.9,0.9-2-0.1-2.9
			c-7-6.3-14.6-9.5-24.9-9.5c-12.1,0-22.8,5.8-29.6,14.8c-3.3,4.3-5.6,9.3-6.7,14.8c-0.5,2.4-0.8,4.9-0.8,7.5c0,2.5,0.3,4.9,0.8,7.3
			c1.1,5.5,3.5,10.5,6.6,14.8c6.7,9,17.5,14.8,29.7,14.8l0,0l0,0c9.1,0,17.9-3.2,25-10c0.7-0.7,0.9-2,0.1-2.8l-1.9-2l-6-6.4
			c-0.6-0.7-1.9-0.7-2.7-0.1c-3.6,3.2-8.1,4.9-13.7,4.9c-8.8,0-15.9-5.5-18.8-13.1c-0.9-2.4-1.4-5-1.4-7.7c0-2.5,0.4-4.9,1.2-7.1
			C196.6,153,203.7,147,212.9,147"/>
		<path class="st0" d="M399.3,189.1c-8.6,0-16-5.5-19-13.1c-0.9-2.3-1.3-4.7-1.3-7.3c0-2.6,0.5-5.2,1.4-7.5c3-7.7,10.4-13.1,19-13.1
			s16,5.5,19.1,13.1c1,2.3,1.4,4.9,1.4,7.5c0,2.6-0.5,5-1.3,7.3C415.4,183.5,408,189.1,399.3,189.1 M428.7,146.4
			c-6.7-8.9-17.4-14.8-29.6-14.8c-12.1,0-22.7,5.8-29.5,14.8c-3.2,4.3-5.6,9.3-6.6,14.8c-0.5,2.4-0.8,4.9-0.8,7.5
			c0,2.5,0.3,4.9,0.7,7.3c1.1,5.5,3.4,10.5,6.5,14.8c6.7,9,17.4,14.8,29.6,14.8l0,0l0,0c12.2,0,22.9-5.8,29.6-14.8
			c3.2-4.3,5.5-9.3,6.6-14.8c0.5-2.4,0.7-4.8,0.7-7.3c0-2.6-0.3-5.1-0.8-7.5C434.3,155.7,432,150.7,428.7,146.4"/>
		<path class="st0" d="M303.7,161.2c-0.2-0.1-0.4-0.2-0.7-0.3c-7.2-3.5-11.1-6.1-11.1-9.5c0-2,1-3.9,3-4.9c0.9-0.5,2-0.7,3.3-0.7
			c1.4,0,2.9,0.3,4.4,0.7c4,1.2,7.8,3.6,9.5,4.8c2,1.2,3.8,0.4,4.5-0.7l2.7-4.1l2.5-3.8c0.4-0.7,0.6-2.6-0.6-3.3
			c-3.1-2.3-11.3-7.7-22-7.7c-12.9,0-20.4,6.8-22.8,14.8c-0.6,1.8-0.9,3.7-0.9,5.7c0,3.6,0.9,6.5,2.3,9.1
			c3.5,6.3,10.6,10.1,17.7,13.5c0.9,0.4,1.6,0.9,2.4,1.2c5.3,2.8,8.2,5.4,8.2,9.1c0,2.7-1.6,4.7-4.1,5.7c-0.9,0.3-1.9,0.5-3,0.5
			c-1.4,0-2.8-0.2-4.1-0.5c-4.5-1.1-8.3-3.6-10.5-5.1c-1.1-0.7-2.7-0.7-3.5,0.6l-2.6,4.5l-2.1,3.8c-0.7,1.3-0.4,2.3,0.4,3.1
			c2.4,2.4,9.7,7.9,23,7.9l0,0l0,0c12,0,20.2-6.7,23-14.8c0.8-2.1,1.2-4.3,1.2-6.4c0-3.3-0.7-6-1.7-8.4
			C318.6,168.3,310.5,164.4,303.7,161.2"/>
		<g class="st1">
			<g>
				<path class="st0" d="M47.4,332.5v14.8v11.8c0,1.1,1,1.9,1.9,1.9h12.3c1.1,0,1.9-1,1.9-1.9v-11.8v-14.8v-14.8H47.4V332.5z"/>
				<path class="st0" d="M124.5,327.5L124.5,327.5l-10.4-9.8H79v14.8v14.8v11.8c0,1.1,1,1.9,1.9,1.9h12.3c1.2,0,1.9-1,1.9-1.9v-11.8
					v-14.8v-11.7h0.1l11.6,11.7l14.7,14.8l13.5,13.6c0.9,0.9,1.5,1.2,2.6,1.2l0,0h1.1l0,0c1.1,0,1.9-0.6,1.9-1.8v-13v-14.8v-14.8
					h-16.2L124.5,327.5L124.5,327.5z"/>
				<path class="st0" d="M445.5,332.5v14.8v11.8c0,1.1,1,1.9,1.9,1.9h12.3c1.1,0,1.9-1,1.9-1.9v-11.8v-14.8v-14.8h-16.2L445.5,332.5
					L445.5,332.5z"/>
				<path class="st0" d="M251.3,345.9h-28.4v-13.4v-0.4h23.4c1.1,0,1.9-0.9,1.9-1.9V319c0-0.5-0.2-0.9-0.5-1.2H207v14.8v14.8v11.8
					c0,1.1,0.9,1.9,1.9,1.9h42.4c1.2,0,1.9-1,1.9-1.9V348c0-0.2-0.1-0.4-0.1-0.6C252.9,346.5,252.2,345.9,251.3,345.9"/>
				<path class="st0" d="M323.7,332.5v-6.4c0-1.1-0.9-1.9-1.8-1.9h-20.6c-1.2,0-1.9,0.9-1.9,1.9v6.4v3.6c0,1.1,0.9,1.8,1.9,1.8h6.4
					v6c-3.1,1.2-6.1,1.6-9.1,1.6c-8.6,0-16-5.5-18.9-13.1c-0.9-2.3-1.3-4.7-1.3-7.3c0-2.6,0.5-5.2,1.4-7.5h-18.2
					c-0.5,2.4-0.8,4.9-0.8,7.5c0,2.5,0.3,4.9,0.7,7.3c1.1,5.5,3.4,10.5,6.6,14.8c6.7,8.9,17.4,14.7,29.5,14.7
					c14.9,0,25.4-6.6,25.4-6.6c0.4-0.3,0.9-0.7,0.9-1.6v-6.3L323.7,332.5z"/>
				<path class="st0" d="M385.4,347.3l-8-14.8l-0.3-0.5c7.3-2.8,12.3-7.8,14.2-14.3h-17.5c-1.4,1.3-3.3,2.1-5.3,2.1h-15.2v-2.1
					h-16.1v14.8v14.8v11.8c0,1.1,0.9,1.9,1.9,1.9h12.2c1.1,0,1.9-1,1.9-1.9v-11.8v-14.4h7.1l7.2,14.4l6.4,12.9c0.2,0.4,0.9,1,1.6,1
					h13.6c1.7,0,2.5-1.6,1.7-3L385.4,347.3z"/>
			</g>
		</g>
		<g class="st2">
			<g>
				<path class="st0" d="M47.4,388.1v11.8c0,1.1,1,1.9,1.9,1.9h12.3c1.1,0,1.9-1,1.9-1.9v-11.8v-14.8H47.4V388.1z"/>
				<path class="st0" d="M121.6,388.1l13.5,13.6c0.9,0.9,1.5,1.2,2.6,1.2l0,0h1.1l0,0c1.1,0,1.9-0.6,1.9-1.8v-13v-14.8h-33.8
					L121.6,388.1z"/>
				<path class="st0" d="M165.7,388.1v11.8c0,1.1,1,1.9,1.9,1.9h12.3c1.1,0,1.9-1,1.9-1.9v-11.8v-14.8h-16.2L165.7,388.1
					L165.7,388.1z"/>
				<path class="st0" d="M251.3,386.7h-28.4v-13.4h-16v14.8v11.8c0,1.1,0.9,1.9,1.9,1.9h42.4c1.2,0,1.9-1,1.9-1.9v-11.1
					c0-0.2-0.1-0.4-0.1-0.6C252.9,387.3,252.2,386.7,251.3,386.7"/>
				<path class="st0" d="M323.7,373.3h-24.5v3.6c0,1.1,0.9,1.8,1.9,1.8h6.4v6c-3.1,1.2-6.1,1.6-9.1,1.6c-8.6,0-16-5.5-18.9-13.1
					h-18.2c1.1,5.5,3.4,10.5,6.6,14.8c6.7,8.9,17.4,14.7,29.5,14.7c14.9,0,25.4-6.6,25.4-6.6c0.4-0.3,0.9-0.7,0.9-1.6v-6.3V373.3z"
					/>
				<path class="st0" d="M404.4,388.1v11.8c0,1.1,1,1.9,1.9,1.9h12.3c1.1,0,1.9-1,1.9-1.9v-11.8v-14.8h-16.2L404.4,388.1
					L404.4,388.1z"/>
				<path class="st0" d="M445.5,388.1v11.8c0,1.1,1,1.9,1.9,1.9h12.3c1.1,0,1.9-1,1.9-1.9v-11.8v-14.8h-16.2L445.5,388.1
					L445.5,388.1z"/>
				<path class="st0" d="M505.8,373.3v14.8v11.8c0,1.1,0.9,1.9,1.9,1.9h12.2c1.1,0,1.9-1,1.9-1.9v-11.8v-14.8H505.8z"/>
				<path class="st0" d="M385.4,388.1l-8-14.8h-40.1v14.8v11.8c0,1.1,0.9,1.9,1.9,1.9h12.2c1.1,0,1.9-1,1.9-1.9v-11.8v-14.4h7.1
					l7.2,14.4l6.4,12.9c0.2,0.4,0.9,1,1.6,1h13.6c1.7,0,2.5-1.6,1.7-3L385.4,388.1z"/>
			</g>
		</g>
		<g class="st2">
			<g>
				<polyline class="st0" points="137.7,430 138.7,430 138.7,430 137.7,430 137.7,430 				"/>
				<path class="st0" d="M49.3,429h12.3c1.1,0,1.9-1,1.9-1.9v-11.8H47.4v11.8C47.4,428.1,48.3,429,49.3,429"/>
				<path class="st0" d="M140.7,428.2v-13h-19.1l13.5,13.6c0.9,0.9,1.5,1.2,2.6,1.2h1.1C139.7,430,140.7,429.4,140.7,428.2"/>
				<path class="st0" d="M181.9,427v-11.8h-16.2V427c0,1.1,1,1.9,1.9,1.9"/>
				<path class="st0" d="M206.9,427c0,1.1,0.9,1.9,1.9,1.9h42.4c1.2,0,1.9-1,1.9-1.9v-11.1c0-0.2-0.1-0.4-0.1-0.6h-46.3L206.9,427
					L206.9,427z"/>
				<path class="st0" d="M337.3,427c0,1.1,0.9,1.9,1.9,1.9h12.2c1.1,0,1.9-1,1.9-1.9v-11.8h-16.1L337.3,427L337.3,427z"/>
				<path class="st0" d="M374.2,428.1c0.2,0.4,0.9,1,1.6,1h13.6c1.7,0,2.5-1.6,1.7-3l-5.9-10.8h-17.7L374.2,428.1z"/>
			</g>
		</g>
		<g class="st1">
			<g>
				<path class="st0" d="M165.9,74.5h-42.4c-1.2,0-1.9,1-1.9,1.9v11.8V103v14.8h16v-0.4H161c1.1,0,1.9-0.9,1.9-1.9v-11.1
					c0-0.5-0.2-0.9-0.5-1.2c-0.4-0.4-0.9-0.7-1.4-0.7h-23.4V89.6H166c0.9,0,1.5-0.6,1.8-1.3c0.1-0.2,0.1-0.4,0.1-0.6V76.4
					C167.8,75.4,167.1,74.5,165.9,74.5"/>
				<path class="st0" d="M212.4,73.4c-12.1,0-22.8,5.8-29.6,14.8c-3.3,4.3-5.6,9.3-6.7,14.8c-0.5,2.4-0.8,4.9-0.8,7.5
					c0,2.5,0.3,4.9,0.8,7.3h18.1c-0.9-2.4-1.4-5-1.4-7.7c0-2.5,0.4-4.9,1.2-7.1c2.7-8.1,9.9-14,18.9-14c5,0,9.6,1.5,13.8,5.2
					c0.7,0.7,1.8,0.7,2.6,0l5.8-6l2.3-2.4c0.9-0.9,0.9-2-0.1-2.9C230.2,76.6,222.6,73.4,212.4,73.4"/>
				<path class="st0" d="M261.8,74.5h-12.3c-1.1,0-1.9,1-1.9,1.9v11.8V103v14.8h16.2V103V88.2V76.4
					C263.7,75.4,262.8,74.5,261.8,74.5"/>
				<path class="st0" d="M349.4,74.5h-12.3c-1.1,0-1.9,1-1.9,1.9v11.8V103v14.8h16.1V103V88.2V76.4
					C351.4,75.4,350.4,74.5,349.4,74.5"/>
				<path class="st0" d="M507.2,74.5h-12.3c-1.2,0-1.9,1-1.9,1.9v11.8V103v9.9h-0.1l-10.3-9.9l-15.4-14.8L453.6,75
					c-0.9-0.9-1.5-1.5-2.6-1.5h-1.5c-1.1,0-1.9,0.9-1.9,1.8v13V103v14.8h16.1v-11.7h0.1l11.6,11.7h33.8V103V88.2V76.4
					C509.2,75.4,508.2,74.5,507.2,74.5"/>
				<path class="st0" d="M102.5,88.2c-6.6-8.4-16.8-13.7-28.3-13.7h-25c-1.1,0-1.8,1-1.8,1.9v11.8V103v14.8h16V103V89.6h10.7
					c9,0,15.5,5.6,17.9,13.4c0.7,2.3,1.1,4.7,1.1,7.3c0,2.7-0.4,5.2-1.2,7.5h17.5c0.5-2.4,0.8-4.9,0.8-7.5c0-2.5-0.3-4.9-0.8-7.3
					C108.3,97.5,105.9,92.5,102.5,88.2"/>
				<path class="st0" d="M303.7,103c-0.2-0.1-0.4-0.2-0.7-0.3c-7.2-3.5-11.1-6.1-11.1-9.5c0-2,1-3.9,3-4.9c0.9-0.5,2-0.7,3.3-0.7
					c1.4,0,2.9,0.3,4.4,0.7c4,1.2,7.8,3.6,9.5,4.8c2,1.2,3.8,0.4,4.5-0.7l2.7-4.1l2.5-3.8c0.4-0.7,0.6-2.6-0.6-3.3
					c-3.1-2.3-11.3-7.7-22-7.7c-12.9,0-20.4,6.8-22.8,14.8c-0.6,1.8-0.9,3.7-0.9,5.7c0,3.6,0.9,6.5,2.3,9.1
					c3.5,6.3,10.6,10.1,17.7,13.5c0.9,0.4,1.6,0.9,2.4,1.2h24.3C318.6,110.1,310.5,106.3,303.7,103"/>
			</g>
		</g>
		<g class="st2">
			<g>
				<path class="st0" d="M74.3,33.7H49.2c-1.1,0-1.8,1-1.8,1.9v11.8v14.8h16V48.8h10.7c9,0,15.5,5.6,17.9,13.4h17.4
					c-1.2-5.5-3.6-10.5-7-14.8C96,39.1,85.7,33.7,74.3,33.7"/>
				<path class="st0" d="M212.4,32.6c-12.1,0-22.8,5.8-29.6,14.8c-3.3,4.3-5.6,9.3-6.7,14.8h17.9c2.7-8.1,9.9-14,18.9-14
					c5,0,9.6,1.5,13.8,5.2c0.7,0.7,1.8,0.7,2.6,0l5.8-6l2.3-2.4c0.9-0.9,0.9-2-0.1-2.9C230.2,35.8,222.6,32.6,212.4,32.6"/>
				<path class="st0" d="M261.8,33.7h-12.3c-1.1,0-1.9,1-1.9,1.9v11.8v14.8h16.2V47.4V35.6C263.7,34.6,262.8,33.7,261.8,33.7"/>
				<path class="st0" d="M299.1,32.6c-12.9,0-20.4,6.8-22.8,14.8c-0.6,1.8-0.9,3.7-0.9,5.7c0,3.6,0.9,6.5,2.3,9.1h25.9
					c-0.2-0.1-0.4-0.2-0.7-0.3c-7.2-3.5-11.1-6.1-11.1-9.5c0-2,1-3.9,3-4.9c0.9-0.5,2-0.7,3.3-0.7c1.4,0,2.9,0.3,4.4,0.7
					c4,1.2,7.8,3.6,9.5,4.8c2,1.2,3.8,0.4,4.5-0.7l2.7-4.1l2.5-3.8c0.4-0.7,0.6-2.6-0.6-3.3C318.1,38.1,309.8,32.6,299.1,32.6"/>
				<path class="st0" d="M399.3,32.6c-12.1,0-22.7,5.8-29.5,14.8c-3.2,4.3-5.6,9.3-6.6,14.8h17.1c3-7.7,10.4-13.1,19-13.1
					c8.6,0,16,5.5,19.1,13.1h17.1c-1.2-5.5-3.5-10.5-6.6-14.8C422,38.5,411.3,32.6,399.3,32.6"/>
				<path class="st0" d="M507.2,33.7h-12.3c-1.2,0-1.9,1-1.9,1.9v11.8v14.8h16.2V47.4V35.6C509.2,34.6,508.2,33.7,507.2,33.7"/>
			</g>
		</g>
		<g class="st2">
			<g>
				<path class="st0" d="M453.5,1.5c-0.9-0.9-1.5-1.5-2.6-1.5h-1.5c-1.1,0-1.9,0.9-1.9,1.8v13h19.8L453.5,1.5z M399.3,0
					c-12.1,0-22.7,5.8-29.5,14.8h58.9C422,5.8,411.3,0,399.3,0 M351.4,3c0-1.1-1-1.9-1.9-1.9h-12.3c-1.1,0-1.9,1-1.9,1.9v11.8h16.1
					V3z M263.7,3c0-1.1-1-1.9-1.9-1.9h-12.3c-1.1,0-1.9,1-1.9,1.9v11.8h16.2L263.7,3L263.7,3z M237.2,12.4c0.9-0.9,0.9-2-0.1-2.9
					C230.2,3.2,222.6,0,212.4,0c-12.1,0-22.8,5.8-29.6,14.8H235L237.2,12.4z M167.8,14.1V3c0-1.1-0.9-1.9-1.9-1.9h-42.4
					c-1.2,0-1.9,1-1.9,1.9v11.8h46.3C167.8,14.6,167.8,14.4,167.8,14.1"/>
			</g>
		</g>
		<g>
			<path class="st0" d="M5.2,110.9c0-0.1,0.1-0.2,0.3-0.2h0.2c0.1,0,0.2,0.1,0.2,0.1l3.1,6.6l0,0l3.1-6.6c0-0.1,0.1-0.1,0.2-0.1h0.4
				c0.2,0,0.2,0.1,0.3,0.2l1.6,9.4c0,0.2-0.1,0.3-0.3,0.3h-1.2c-0.1,0-0.2-0.1-0.3-0.2l-0.9-5.3l0,0l-2.5,5.5c0,0.1-0.1,0.2-0.2,0.2
				H8.8c-0.1,0-0.2-0.1-0.2-0.2l-2.5-5.5l0,0l-0.8,5.3c0,0.1-0.1,0.2-0.3,0.2H3.8c-0.2,0-0.3-0.1-0.3-0.3L5.2,110.9z"/>
			<path class="st0" d="M26.7,110.6c2.8,0,5.1,2.3,5.1,5.1c0,2.8-2.2,5-5.1,5s-5-2.2-5-5C21.8,112.9,24,110.6,26.7,110.6z
				 M26.7,118.9c1.7,0,3.3-1.4,3.3-3.2s-1.4-3.3-3.3-3.3c-1.7,0-3.2,1.4-3.2,3.3C23.5,117.5,24.9,118.9,26.7,118.9z"/>
			<path class="st0" d="M39.6,111.1c0-0.1,0.1-0.3,0.3-0.3h4c1.7,0,3.1,1.3,3.1,3c0,1.2-0.9,2.3-2.1,2.9l1.9,3.6
				c0.1,0.2,0,0.4-0.2,0.4h-1.4c-0.1,0-0.2-0.1-0.2-0.1l-1.8-3.7h-1.5v3.6c0,0.1-0.1,0.3-0.3,0.3h-1.2c-0.2,0-0.3-0.1-0.3-0.3v-9.2
				H39.6z M43.7,115.2c0.8,0,1.3-0.7,1.3-1.4s-0.7-1.3-1.3-1.3h-2.3v2.8H43.7z"/>
			<path class="st0" d="M54.9,111.1c0-0.1,0.1-0.3,0.3-0.3h5.7c0.2,0,0.3,0.1,0.3,0.3v1.2c0,0.1-0.1,0.3-0.3,0.3h-4.1v2.3h3.5
				c0.1,0,0.3,0.1,0.3,0.3v1.2c0,0.2-0.1,0.3-0.3,0.3h-3.5v2.5h4.1c0.2,0,0.3,0.1,0.3,0.3v1.2c0,0.1-0.1,0.3-0.3,0.3h-5.7
				c-0.2,0-0.3-0.1-0.3-0.3V111.1z"/>
			<path class="st0" d="M79.2,112.4H77c-0.2,0-0.3-0.1-0.3-0.3V111c0-0.1,0.1-0.3,0.3-0.3h6.1c0.2,0,0.3,0.1,0.3,0.3v1.2
				c0,0.1-0.1,0.3-0.3,0.3h-2.1v7.9c0,0.1-0.1,0.3-0.3,0.3h-1.3c-0.1,0-0.3-0.1-0.3-0.3V112.4z"/>
			<path class="st0" d="M91,111.1c0-0.1,0.1-0.3,0.3-0.3h1.3c0.2,0,0.3,0.1,0.3,0.3v3.7h4.6v-3.7c0-0.1,0.1-0.3,0.3-0.3H99
				c0.1,0,0.3,0.1,0.3,0.3v9.3c0,0.1-0.1,0.3-0.3,0.3h-1.2c-0.2,0-0.3-0.1-0.3-0.3v-3.8h-4.6v3.8c0,0.1-0.1,0.3-0.3,0.3h-1.3
				c-0.1,0-0.3-0.1-0.3-0.3V111.1z"/>
			<path class="st0" d="M106.4,120.2l4.3-9.4c0-0.1,0.1-0.2,0.2-0.2h0.1c0.1,0,0.2,0.1,0.2,0.2l4.3,9.4c0.1,0.2,0,0.4-0.2,0.4h-1.1
				c-0.2,0-0.3-0.1-0.4-0.3l-0.7-1.5H109l-0.7,1.5c-0.1,0.1-0.2,0.3-0.4,0.3h-1.3C106.4,120.6,106.3,120.4,106.4,120.2z
				 M112.5,117.2l-1.4-3.1l0,0l-1.3,3.1H112.5z"/>
			<path class="st0" d="M122.9,110.9c0-0.1,0.1-0.3,0.3-0.3h0.2c0.1,0,0.2,0,0.2,0.1l5.8,6.1l0,0v-5.8c0-0.1,0.1-0.3,0.3-0.3h1.2
				c0.1,0,0.3,0.1,0.3,0.3v9.4c0,0.1-0.1,0.3-0.3,0.3h-0.2c-0.1,0-0.2,0-0.2-0.1l-5.8-6.3l0,0v6c0,0.1-0.1,0.3-0.3,0.3h-1.2
				c-0.1,0-0.3-0.1-0.3-0.3V110.9z"/>
			<path class="st0" d="M147.4,120.2l4.3-9.4c0-0.1,0.1-0.2,0.2-0.2h0.1c0.1,0,0.2,0.1,0.2,0.2l4.3,9.4c0.1,0.2,0,0.4-0.2,0.4h-1.2
				c-0.2,0-0.3-0.1-0.4-0.3l-0.7-1.5h-4.2l-0.7,1.5c-0.1,0.1-0.2,0.3-0.4,0.3h-1.2C147.5,120.6,147.4,120.4,147.4,120.2z
				 M153.5,117.2l-1.4-3.1l0,0l-1.3,3.1H153.5z"/>
		</g>
		<g>
			<path class="st0" d="M4,212.9c0-0.1,0.1-0.3,0.3-0.3h1.3c0.1,0,0.3,0.1,0.3,0.3v9.3c0,0.1-0.1,0.3-0.3,0.3H4.3
				c-0.1,0-0.3-0.1-0.3-0.3V212.9z"/>
			<path class="st0" d="M15.9,214.3h-2.1c-0.2,0-0.3-0.1-0.3-0.3v-1.2c0-0.1,0.1-0.3,0.3-0.3h6.1c0.2,0,0.3,0.1,0.3,0.3v1.2
				c0,0.1-0.1,0.3-0.3,0.3h-2.1v7.9c0,0.1-0.1,0.3-0.3,0.3h-1.3c-0.1,0-0.3-0.1-0.3-0.3C15.9,222.2,15.9,214.3,15.9,214.3z"/>
			<path class="st0" d="M27.9,212.5c0.7,0,1.2,0.6,1.2,1.6s-0.5,1.6-1,2.3c-0.1,0.1-0.2,0.1-0.3,0l-0.4-0.3c-0.1-0.1,0-0.2,0-0.3
				c0.3-0.4,0.7-0.9,0.7-1.2c0-0.1,0-0.2,0-0.3c-0.1,0.1-0.3,0.1-0.5,0.1c-0.6,0-0.9-0.4-0.9-1C26.8,212.9,27.3,212.5,27.9,212.5z"
				/>
			<path class="st0" d="M36.3,221.4c-0.1-0.1-0.2-0.2-0.1-0.4l0.5-0.9c0.1-0.2,0.4-0.2,0.5-0.1c0.6,0.5,1.2,0.9,2.1,0.9
				c0.8,0,1.2-0.5,1.2-1.1c0-0.7-0.6-1.2-1.8-1.7c-1.3-0.6-2.6-1.3-2.6-3.1c0-1.2,1-2.7,3.2-2.7c1.4,0,2.5,0.8,2.8,1
				c0.1,0.1,0.2,0.3,0.1,0.5l-0.6,0.8c-0.1,0.2-0.3,0.3-0.5,0.2c-0.6-0.4-1.2-0.8-1.9-0.8s-1.2,0.5-1.2,1c0,0.7,0.5,1.2,1.6,1.5
				c1.3,0.6,3,1.3,3,3.2c0,1.4-1.2,2.8-3.3,2.8C37.7,222.6,36.7,221.8,36.3,221.4z"/>
			<path class="st0" d="M58.2,222l4.3-9.4c0-0.1,0.1-0.2,0.2-0.2h0.1c0.1,0,0.2,0.1,0.2,0.2l4.3,9.4c0.1,0.2,0,0.4-0.2,0.4h-1.2
				c-0.2,0-0.3-0.1-0.4-0.3l-0.7-1.5h-4.2l-0.7,1.5c-0.1,0.1-0.2,0.3-0.4,0.3h-1.2C58.2,222.4,58.1,222.2,58.2,222z M64.3,219
				l-1.4-3.1l0,0l-1.3,3.1H64.3z"/>
			<path class="st0" d="M79,212.5c1.4,0,2.4,0.5,3.4,1.3c0.1,0.1,0.1,0.3,0,0.4l-0.9,0.9c-0.1,0.1-0.2,0.1-0.4,0
				c-0.6-0.5-1.3-0.9-2.2-0.9c-1.8,0-3.2,1.5-3.2,3.3c0,1.7,1.3,3.3,3.2,3.3c0.9,0,1.5-0.3,2.1-0.8c0.1-0.1,0.3-0.1,0.4,0l0.9,0.9
				c0.1,0.1,0.1,0.3,0,0.4c-1,1-2.2,1.3-3.5,1.3c-2.8,0-5.1-2.2-5.1-5C74,214.7,76.2,212.5,79,212.5z"/>
			<path class="st0" d="M91.7,214.3h-2.1c-0.2,0-0.3-0.1-0.3-0.3v-1.2c0-0.1,0.1-0.3,0.3-0.3h6.1c0.2,0,0.3,0.1,0.3,0.3v1.2
				c0,0.1-0.1,0.3-0.3,0.3h-2.1v7.9c0,0.1-0.1,0.3-0.3,0.3H92c-0.1,0-0.3-0.1-0.3-0.3V214.3z"/>
			<path class="st0" d="M103.5,212.9c0-0.1,0.1-0.3,0.3-0.3h1.3c0.1,0,0.3,0.1,0.3,0.3v9.3c0,0.1-0.1,0.3-0.3,0.3h-1.3
				c-0.1,0-0.3-0.1-0.3-0.3V212.9z"/>
			<path class="st0" d="M113.8,212.7c0-0.1,0.1-0.3,0.3-0.3h0.2c0.1,0,0.2,0,0.2,0.1l5.8,6.1l0,0v-5.8c0-0.1,0.1-0.3,0.3-0.3h1.2
				c0.1,0,0.3,0.1,0.3,0.3v9.4c0,0.1-0.1,0.3-0.3,0.3h-0.2c-0.1,0-0.2,0-0.2-0.1l-5.8-6.3l0,0v6c0,0.1-0.1,0.3-0.3,0.3h-1.2
				c-0.1,0-0.3-0.1-0.3-0.3V212.7z"/>
			<path class="st0" d="M134.9,212.5c1.2,0,2.5,0.5,3.5,1.3c0.1,0.1,0.1,0.3,0,0.4l-0.9,0.9c-0.1,0.1-0.2,0.1-0.4,0
				c-0.6-0.6-1.3-0.8-2.1-0.8c-1.7,0-3.2,1.5-3.2,3.3s1.3,3.2,3.2,3.2c0.8,0,1.3-0.2,1.6-0.4v-1.2h-1.2c-0.2,0-0.3-0.1-0.3-0.3v-1.2
				c0-0.2,0.1-0.3,0.3-0.3h2.7c0.1,0,0.3,0.1,0.3,0.3v3.6c0,0.1-0.1,0.2-0.1,0.2s-1.4,1-3.5,1c-2.8,0-5-2.2-5-5
				C129.9,214.7,132.1,212.5,134.9,212.5z"/>
			<path class="st0" d="M154.7,212.9c-0.1-0.2,0.1-0.4,0.3-0.4h1.2c0.1,0,0.2,0.1,0.3,0.2l1.4,5.6h0.1l2.2-5.8
				c0-0.1,0.1-0.2,0.2-0.2h0.3c0.1,0,0.2,0.1,0.2,0.2l2.2,5.8h0.1l1.4-5.6c0-0.1,0.1-0.2,0.3-0.2h1.2c0.2,0,0.3,0.1,0.3,0.4
				l-2.7,9.4c0,0.1-0.1,0.2-0.3,0.2h-0.2c-0.1,0-0.2-0.1-0.2-0.2l-2.5-6.3h-0.1l-2.5,6.3c0,0.1-0.1,0.2-0.2,0.2h-0.2
				c-0.1,0-0.2-0.1-0.3-0.2L154.7,212.9z"/>
			<path class="st0" d="M174,212.9c0-0.1,0.1-0.3,0.3-0.3h1.3c0.1,0,0.3,0.1,0.3,0.3v9.3c0,0.1-0.1,0.3-0.3,0.3h-1.3
				c-0.1,0-0.3-0.1-0.3-0.3V212.9z"/>
			<path class="st0" d="M185.8,214.3h-2.1c-0.2,0-0.3-0.1-0.3-0.3v-1.2c0-0.1,0.1-0.3,0.3-0.3h6.1c0.2,0,0.3,0.1,0.3,0.3v1.2
				c0,0.1-0.1,0.3-0.3,0.3h-2.1v7.9c0,0.1-0.1,0.3-0.3,0.3h-1.3c-0.1,0-0.3-0.1-0.3-0.3V214.3z"/>
			<path class="st0" d="M197.7,212.9c0-0.1,0.1-0.3,0.3-0.3h1.3c0.2,0,0.3,0.1,0.3,0.3v3.7h4.6v-3.7c0-0.1,0.1-0.3,0.3-0.3h1.2
				c0.1,0,0.3,0.1,0.3,0.3v9.3c0,0.1-0.1,0.3-0.3,0.3h-1.2c-0.2,0-0.3-0.1-0.3-0.3v-3.8h-4.6v3.8c0,0.1-0.1,0.3-0.3,0.3H198
				c-0.1,0-0.3-0.1-0.3-0.3L197.7,212.9L197.7,212.9z"/>
		</g>
	</g>
</g>
</svg>
