<?xml version="1.0" encoding="utf-8"?>
<!-- Generator: Adobe Illustrator 25.4.1, SVG Export Plug-In . SVG Version: 6.00 Build 0)  -->
<svg version="1.1" id="Capa_1" xmlns="http://www.w3.org/2000/svg" xmlns:xlink="http://www.w3.org/1999/xlink" x="0px" y="0px"
	 viewBox="0 0 820 430" style="enable-background:new 0 0 820 430;" xml:space="preserve">
<style type="text/css">
	.st0{fill:#FFFFFF;}
	.st1{opacity:0.35;}
	.st2{opacity:0.25;}
</style>
<g>
	<path class="st0" d="M8.5,226c0-0.1,0.1-0.3,0.3-0.3h5.7c0.2,0,0.3,0.1,0.3,0.3v1.1c0,0.1-0.1,0.3-0.3,0.3h-4.1v2.3h3.4
		c0.1,0,0.3,0.1,0.3,0.3v1.2c0,0.2-0.1,0.3-0.3,0.3h-3.4v2.4h4.1c0.2,0,0.3,0.1,0.3,0.3v1.1c0,0.1-0.1,0.3-0.3,0.3H8.8
		c-0.2,0-0.3-0.1-0.3-0.3V226z"/>
	<path class="st0" d="M22.4,225.9c0-0.1,0.1-0.2,0.3-0.2h0.2c0.1,0,0.2,0,0.2,0.1l5.7,6l0,0V226c0-0.1,0.1-0.3,0.3-0.3h1.3
		c0.1,0,0.3,0.1,0.3,0.3v9.3c0,0.1-0.1,0.2-0.3,0.2h-0.2c-0.1,0-0.2,0-0.2-0.1l-5.7-6.3l0,0v6c0,0.1-0.1,0.3-0.3,0.3h-1.3
		c-0.1,0-0.3-0.1-0.3-0.3C22.4,235.1,22.4,225.9,22.4,225.9z"/>
</g>
<g>
	<g>
		<path class="st0" d="M92.6,224.3H48.9c-1.2,0-2,1-2,2v12.2v15.1v15.1v15.1V296c0,1.1,0.8,2,2,2h43.7c1.2,0,2-1,2-2v-11.5
			c0-0.2-0.1-0.4-0.1-0.6c-0.3-0.8-1-1.3-1.9-1.3H63.3v-13.8v-0.4h24c1.1,0,2-0.8,2-2v-11.5c0-0.4-0.2-0.9-0.5-1.3
			c-0.4-0.4-0.9-0.7-1.5-0.7H63.3v-13.1h29.2c0.9,0,1.6-0.6,1.9-1.3c0.1-0.2,0.1-0.4,0.1-0.6v-11.5
			C94.5,225.3,93.7,224.3,92.6,224.3"/>
		<path class="st0" d="M367.9,224.3h-13.7c-1,0-1.3,0.5-1.7,1l-9,13.2l-5.7,8.4l-5.7-8.4l-9-13.2c-0.4-0.4-0.8-1-1.7-1h-13.7
			c-1.7,0-2.5,1.7-1.7,3l7.4,11l10,15.1l5.9,9v6.2v15.1v12.1c0,1.1,0.8,2,2,2h12.5c1.1,0,2-1,2-2v-12.1v-15.1v-6.4l5.9-8.9l10.5-15
			l7.4-11C370.5,226,369.6,224.3,367.9,224.3"/>
		<path class="st0" d="M476.1,224.3h-46.7c-1.2,0-2,1-2,2v11.5c0,0.2,0.1,0.4,0.1,0.6c0.3,0.8,1,1.3,1.9,1.3h15.1v13.8v15.1v15.1
			v12.1c0,1.1,1,2,2,2h12.6c1.1,0,2-1,2-2v-12.1v-15.1v-15.1v-13.8h15.1c0.9,0,1.6-0.6,1.9-1.3c0.1-0.2,0.1-0.4,0.1-0.6v-11.5
			C478.2,225.3,477.3,224.3,476.1,224.3"/>
		<path class="st0" d="M532.4,224.3h-43.7c-1.2,0-2,1-2,2v12.2v15.1v15.1v15.1V296c0,1.1,0.8,2,2,2h43.7c1.2,0,2-1,2-2v-11.5
			c0-0.2-0.1-0.4-0.1-0.6c-0.3-0.8-1-1.3-1.9-1.3h-29.2v-13.8v-0.4h24c1.1,0,2-0.8,2-2v-11.5c0-0.4-0.2-0.9-0.5-1.3
			c-0.4-0.4-0.9-0.7-1.5-0.7h-24v-13.1h29.2c0.9,0,1.6-0.6,1.9-1.3c0.1-0.2,0.1-0.4,0.1-0.6v-11.5
			C534.4,225.3,533.6,224.3,532.4,224.3"/>
		<path class="st0" d="M140.7,239.2c5.2,0,9.9,1.6,14.3,5.4c0.7,0.7,1.9,0.7,2.6,0l5.9-6.1l2.3-2.4c0.8-0.8,0.8-2.2-0.1-3
			c-7.2-6.5-15-9.8-25.5-9.8c-12.5,0-23.5,6-30.4,15.1c-3.3,4.4-5.7,9.6-6.9,15.1c-0.5,2.5-0.8,5-0.8,7.7c0,2.6,0.3,5,0.7,7.4
			c1.1,5.6,3.5,10.8,6.8,15.1c6.9,9.2,17.9,15.1,30.5,15.1l0,0l0,0c9.4,0,18.5-3.2,25.5-10.2c0.7-0.7,0.8-2.2,0.1-2.9l-2-2.2
			l-6.3-6.6c-0.6-0.7-2-0.7-2.8-0.1c-3.8,3.2-8.3,5-14.1,5c-9.1,0-16.3-5.6-19.3-13.4c-0.9-2.4-1.4-5.1-1.4-7.9c0-2.5,0.4-5,1.2-7.3
			C124,245.3,131.4,239.2,140.7,239.2"/>
		<path class="st0" d="M208.3,282.3c-8.9,0-16.5-5.6-19.5-13.4c-0.9-2.3-1.4-4.8-1.4-7.4c0-2.7,0.5-5.3,1.4-7.7
			c3-7.9,10.7-13.4,19.5-13.4c8.9,0,16.5,5.6,19.6,13.4c0.9,2.4,1.4,5,1.4,7.7c0,2.6-0.5,5.1-1.4,7.4
			C224.9,276.6,217.2,282.3,208.3,282.3 M238.7,238.4c-6.9-9.2-17.8-15.1-30.3-15.1c-12.5,0-23.4,5.9-30.2,15.1
			c-3.3,4.4-5.6,9.6-6.8,15.1c-0.5,2.5-0.8,5-0.8,7.7c0,2.6,0.3,5,0.7,7.4c1.1,5.6,3.5,10.8,6.7,15.1c6.9,9.2,17.8,15.1,30.3,15.1
			l0,0l0,0c12.5,0,23.5-5.9,30.4-15.1c3.3-4.4,5.6-9.5,6.8-15.1c0.4-2.4,0.7-4.9,0.7-7.4c0-2.6-0.3-5.2-0.8-7.7
			C244.3,247.9,241.9,242.8,238.7,238.4"/>
		<path class="st0" d="M282.1,253.6c-0.2-0.1-0.4-0.2-0.6-0.4c-7.4-3.6-11.5-6.4-11.5-9.8c0-2.2,1-4,3-5c0.9-0.4,2.1-0.7,3.4-0.7
			c1.5,0,3,0.3,4.5,0.7c4.1,1.3,8,3.7,9.8,4.9c2.2,1.3,3.9,0.4,4.7-0.7l2.8-4.2l2.6-3.9c0.4-0.7,0.6-2.6-0.6-3.4
			c-3.1-2.3-11.6-7.9-22.6-7.9c-13.2,0-21,7-23.5,15.1c-0.5,1.9-0.9,3.9-0.9,5.8c0,3.7,0.9,6.7,2.3,9.4c3.6,6.5,10.8,10.4,18.1,13.9
			c0.9,0.4,1.7,0.8,2.5,1.3c5.4,2.9,8.3,5.6,8.3,9.4c0,2.7-1.7,4.8-4.2,5.8c-0.9,0.4-2,0.5-3,0.5c-1.5,0-2.9-0.2-4.2-0.5
			c-4.7-1.1-8.4-3.7-10.8-5.3c-1.1-0.7-2.8-0.7-3.6,0.6l-2.6,4.7l-2.2,3.9c-0.7,1.3-0.4,2.3,0.4,3.1c2.4,2.4,10,8.1,23.7,8.1l0,0
			l0,0c12.3,0,20.7-6.9,23.7-15.1c0.8-2.2,1.2-4.4,1.2-6.6c0-3.3-0.6-6.1-1.8-8.5C297.5,260.9,289.2,257,282.1,253.6"/>
		<path class="st0" d="M401.1,253.6c-0.2-0.1-0.4-0.2-0.6-0.4c-7.4-3.6-11.5-6.4-11.5-9.8c0-2.2,1-4,3-5c0.9-0.4,2.1-0.7,3.4-0.7
			c1.5,0,3,0.3,4.5,0.7c4.1,1.3,8,3.7,9.8,4.9c2.2,1.3,3.9,0.4,4.7-0.7l2.8-4.2l2.6-3.9c0.4-0.7,0.6-2.6-0.6-3.4
			c-3.1-2.3-11.6-7.9-22.6-7.9c-13.2,0-21,7-23.5,15.1c-0.5,1.9-0.9,3.9-0.9,5.8c0,3.7,0.9,6.7,2.3,9.4c3.6,6.5,10.8,10.4,18.1,13.9
			c0.9,0.4,1.7,0.8,2.5,1.3c5.4,2.9,8.3,5.6,8.3,9.4c0,2.7-1.7,4.8-4.2,5.8c-0.9,0.4-2,0.5-3,0.5c-1.5,0-2.9-0.2-4.2-0.5
			c-4.7-1.1-8.4-3.7-10.8-5.3c-1.1-0.7-2.8-0.7-3.6,0.6l-2.6,4.7l-2.2,3.9c-0.7,1.3-0.4,2.3,0.4,3.1c2.4,2.4,10,8.1,23.7,8.1l0,0
			l0,0c12.3,0,20.7-6.9,23.7-15.1c0.8-2.2,1.2-4.4,1.2-6.6c0-3.3-0.6-6.1-1.8-8.5C416.4,260.9,408.1,257,401.1,253.6"/>
		<path class="st0" d="M624.6,284l-2.5-15.1l-2.5-15.1l-2.5-15.1l-2.2-13.4c-0.1-1-1.1-1.7-1.9-1.7h-1.7c-0.5,0-1.4,0.4-1.8,1.1
			l-7.6,14.1l-8.2,15.1l-8.2,15.1l-0.5,1.1h-0.2l-0.5-1.1l-8.2-15.1l-8.2-15.1l-7.6-14.1c-0.4-0.6-1.3-1.1-1.8-1.1h-1.8
			c-0.8,0-1.8,0.7-1.9,1.7l-2.2,13.4l-2.5,15.1l-2.5,15.1l-2.5,15.1l-2,11.8c-0.2,1.3,0.7,2.3,2,2.3h12.5c1.1,0,1.9-0.8,2-1.7
			l1.8-12.5l2.2-15.1l0.7-4.9h0.2l2.6,4.9l7.9,15.1l7.4,14c0.4,0.6,1.2,1.2,1.8,1.2l0,0h1.9l0,0c0.5,0,1.4-0.5,1.8-1.2l7.3-14
			l7.9-15.1l2.6-4.9h0.2l0.7,4.9l2.2,15.1l1.8,12.5c0.1,0.8,1.1,1.7,2,1.7h12.5c1.3,0,2.2-1,2-2.3L624.6,284z"/>
		<path class="st0" d="M61.5,136.3H48.9c-1.1,0-2,1-2,2v12.1v15.1v15.1v15.1V208c0,1.1,1,2,2,2h12.6c1.1,0,2-1,2-2v-12.1v-15.1
			v-15.1v-15.1v-12.1C63.5,137.1,62.6,136.3,61.5,136.3"/>
		<path class="st0" d="M201.1,136.3h-43.7c-1.2,0-2,1-2,2v12.1v15.1v15.1v15.1V208c0,1.1,0.8,2,2,2h43.7c1.2,0,2-1,2-2v-11.5
			c0-0.2-0.1-0.4-0.1-0.6c-0.3-0.8-1-1.3-1.9-1.3h-29.2v-13.8v-0.4h24c1.1,0,2-0.8,2-2v-11.6c0-0.4-0.2-0.9-0.5-1.3
			c-0.4-0.4-0.9-0.7-1.5-0.7h-24v-13.1H201c0.9,0,1.6-0.6,1.9-1.3c0.1-0.2,0.1-0.4,0.1-0.6v-11.5
			C203.1,137.1,202.3,136.3,201.1,136.3"/>
		<path class="st0" d="M106.8,194.3h-11v-13.7v-15.1v-13.8h11c9.2,0,16,5.6,18.5,13.8c0.7,2.3,1.2,4.8,1.2,7.4
			c0,2.7-0.4,5.3-1.2,7.7C122.7,188.8,116,194.3,106.8,194.3 M135.9,150.3c-6.8-8.6-17.3-14.1-29-14.1H81.2c-1.1,0-1.9,1-1.9,2v12.1
			v15.1v15.1v15.1V208c0,1.1,0.8,2,1.9,2h25.7c11.7,0,22.2-5.6,29-14.1c3.5-4.4,5.9-9.5,7.2-15.1c0.5-2.5,0.8-5,0.8-7.7
			c0-2.6-0.3-5-0.8-7.4C142,159.8,139.4,154.7,135.9,150.3"/>
		<path class="st0" d="M332.1,180.7c-3.6-7.9-11.8-11.7-18.9-15.1c-0.2-0.1-0.4-0.2-0.6-0.4c-7.4-3.6-11.5-6.4-11.5-9.8
			c0-2.2,1-4,3-5c0.9-0.4,2.1-0.7,3.4-0.7c1.5,0,3,0.3,4.5,0.7c4.1,1.3,8,3.7,9.8,4.9c2.2,1.3,3.9,0.4,4.7-0.7l2.8-4.2l2.6-3.9
			c0.4-0.7,0.6-2.6-0.6-3.4c-3.1-2.3-11.6-7.9-22.6-7.9c-13.2,0-21,7-23.5,15.1c-0.5,1.9-0.9,3.9-0.9,5.8c0,3.7,0.9,6.7,2.3,9.4
			c3.6,6.5,10.8,10.4,18.1,13.9c0.9,0.4,1.7,0.8,2.5,1.3c5.4,2.9,8.3,5.6,8.3,9.4c0,2.7-1.7,4.8-4.2,5.8c-0.9,0.4-2,0.5-3,0.5
			c-1.5,0-2.9-0.2-4.2-0.5c-4.7-1.1-8.4-3.7-10.8-5.3c-1.1-0.7-2.8-0.7-3.6,0.6l-2.6,4.7l-2.2,3.9c-0.7,1.3-0.4,2.3,0.4,3.1
			c2.4,2.4,10,8.1,23.7,8.1l0,0l0,0c12.3,0,20.7-6.9,23.7-15.1c0.8-2.2,1.2-4.4,1.2-6.6C333.8,185.9,333.2,183.1,332.1,180.7"/>
		<path class="st0" d="M244.1,167.3L244.1,167.3l6.3,13.4l1.9,4h-16l1.8-4L244.1,167.3z M274.3,195.9l-7.1-15.1l-7.1-15.1l-7.1-15.1
			l-6.5-14c-0.4-0.6-1.1-1.2-1.8-1.2h-1.1c-0.7,0-1.4,0.5-1.8,1.2l-6.5,14l-7.1,15.1l-7.1,15.1l-7.1,15.1l-5.3,11.4
			c-0.6,1.3,0.2,2.8,1.8,2.8h11.8c2.2,0,3.2-1.3,3.8-2.5l3.8-8.4h28.7l3.8,8.3c1,2,1.8,2.6,3.7,2.6h11.7c1.6,0,2.4-1.3,1.8-2.8
			L274.3,195.9z"/>
		<g class="st1">
			<g>
				<path class="st0" d="M227.9,314.5c1,2.4,1.4,5,1.4,7.7c0,2.6-0.5,5.1-1.4,7.4c-3,7.8-10.8,13.4-19.6,13.4
					c-8.9,0-16.5-5.6-19.5-13.4c-0.9-2.3-1.4-4.8-1.4-7.4c0-2.7,0.5-5.3,1.4-7.7h-17.5c-0.5,2.5-0.8,5-0.8,7.7c0,2.6,0.3,5,0.7,7.4
					c1.1,5.6,3.5,10.8,6.7,15.1c6.9,9.2,17.8,15.1,30.3,15.1l0,0l0,0c12.5,0,23.5-5.9,30.4-15.1c3.3-4.4,5.6-9.5,6.8-15.1
					c0.4-2.4,0.7-4.9,0.7-7.4c0-2.6-0.3-5.2-0.8-7.7H227.9z"/>
				<path class="st0" d="M282.1,314.5h-26.6c3.6,6.5,10.8,10.4,18.1,13.9c0.9,0.4,1.7,0.8,2.5,1.3c5.4,2.9,8.3,5.6,8.3,9.4
					c0,2.7-1.7,4.8-4.2,5.8c-0.9,0.4-2,0.5-3,0.5c-1.5,0-2.9-0.2-4.2-0.5c-4.7-1.1-8.4-3.7-10.8-5.3c-1.1-0.7-2.8-0.7-3.6,0.6
					l-2.6,4.7l-2.2,3.9c-0.7,1.3-0.4,2.3,0.4,3.1c2.4,2.4,10,8.1,23.7,8.1l0,0l0,0c12.3,0,20.7-6.9,23.7-15.1
					c0.8-2.2,1.2-4.4,1.2-6.6c0-3.3-0.6-6.1-1.8-8.5C297.5,321.9,289.2,318,282.1,314.5"/>
				<path class="st0" d="M346.1,329.8v-6.4l5.9-8.9h-28.4l5.9,9v6.2v15.1v12.1c0,1.1,0.8,2,2,2H344c1.1,0,2-1,2-2"/>
				<path class="st0" d="M401.1,314.5h-26.6c3.6,6.5,10.8,10.4,18.1,13.9c0.9,0.4,1.7,0.8,2.5,1.3c5.4,2.9,8.3,5.6,8.3,9.4
					c0,2.7-1.7,4.8-4.2,5.8c-0.9,0.4-2,0.5-3,0.5c-1.5,0-2.9-0.2-4.2-0.5c-4.7-1.1-8.4-3.7-10.8-5.3c-1.1-0.7-2.8-0.7-3.6,0.6
					l-2.6,4.7l-2.2,3.9c-0.7,1.3-0.4,2.3,0.4,3.1c2.4,2.4,10,8.1,23.7,8.1l0,0l0,0c12.3,0,20.7-6.9,23.7-15.1
					c0.8-2.2,1.2-4.4,1.2-6.6c0-3.3-0.6-6.1-1.8-8.5C416.4,321.9,408.1,318,401.1,314.5"/>
				<path class="st0" d="M444.5,329.8v15.1V357c0,1.1,1,2,2,2h12.6c1.1,0,2-1,2-2v-12.1v-15.1v-15.1h-16.7L444.5,329.8L444.5,329.8z
					"/>
				<path class="st0" d="M92.6,343.6H63.3v-13.8v-0.4h24c1.1,0,2-0.8,2-2v-11.5c0-0.4-0.2-0.9-0.5-1.3H46.9v15.1v15.1V357
					c0,1.1,0.8,2,2,2h43.7c1.2,0,2-1,2-2v-11.5c0-0.2-0.1-0.4-0.1-0.6C94.2,344.1,93.5,343.6,92.6,343.6"/>
				<path class="st0" d="M163.9,344.9l-6.3-6.6c-0.6-0.7-2-0.7-2.8-0.1c-3.8,3.2-8.3,5-14.1,5c-9.1,0-16.3-5.6-19.3-13.4
					c-0.9-2.4-1.4-5.1-1.4-7.9c0-2.5,0.4-5,1.2-7.3H103c-0.5,2.5-0.8,5-0.8,7.7c0,2.6,0.3,5,0.7,7.4c1.1,5.6,3.5,10.8,6.8,15.1
					c6.9,9.2,17.9,15.1,30.5,15.1l0,0l0,0c9.4,0,18.5-3.2,25.5-10.2c0.7-0.7,0.8-2.2,0.1-2.9L163.9,344.9z"/>
			</g>
		</g>
		<g class="st2">
			<g>
				<path class="st0" d="M92.6,385.4H63.3v-13.8H46.9v15.1v12.1c0,1.1,0.8,2,2,2h43.7c1.2,0,2-1,2-2v-11.5c0-0.2-0.1-0.4-0.1-0.6
					C94.2,386.1,93.5,385.4,92.6,385.4"/>
				<path class="st0" d="M276.1,371.6c5.4,2.9,8.3,5.6,8.3,9.4c0,2.7-1.7,4.8-4.2,5.8c-0.9,0.4-2,0.5-3,0.5c-1.5,0-2.9-0.2-4.2-0.5
					c-4.7-1.1-8.4-3.7-10.8-5.3c-1.1-0.7-2.8-0.7-3.6,0.6l-2.6,4.7l-2.2,3.9c-0.7,1.3-0.4,2.3,0.4,3.1c2.4,2.4,10,8.1,23.7,8.1l0,0
					l0,0c12.3,0,20.7-6.9,23.7-15.1c0.8-2.2,1.2-4.4,1.2-6.6c0-3.3-0.6-6.1-1.8-8.5L276.1,371.6L276.1,371.6z"/>
				<path class="st0" d="M329.5,386.8v12.1c0,1.1,0.8,2,2,2H344c1.1,0,2-1,2-2v-12.1v-15.1h-16.6L329.5,386.8L329.5,386.8z"/>
				<path class="st0" d="M395,371.6c5.4,2.9,8.3,5.6,8.3,9.4c0,2.7-1.7,4.8-4.2,5.8c-0.9,0.4-2,0.5-3,0.5c-1.5,0-2.9-0.2-4.2-0.5
					c-4.7-1.1-8.4-3.7-10.8-5.3c-1.1-0.7-2.8-0.7-3.6,0.6l-2.6,4.7l-2.2,3.9c-0.7,1.3-0.4,2.3,0.4,3.1c2.4,2.4,10,8.1,23.7,8.1l0,0
					l0,0c12.3,0,20.7-6.9,23.7-15.1c0.8-2.2,1.2-4.4,1.2-6.6c0-3.3-0.6-6.1-1.8-8.5L395,371.6L395,371.6z"/>
				<path class="st0" d="M444.5,386.8v12.1c0,1.1,1,2,2,2h12.6c1.1,0,2-1,2-2v-12.1v-15.1h-16.7L444.5,386.8L444.5,386.8z"/>
				<path class="st0" d="M532.4,385.4h-29.2v-13.8h-16.4v15.1v12.1c0,1.1,0.8,2,2,2h43.7c1.2,0,2-1,2-2v-11.5c0-0.2-0.1-0.4-0.1-0.6
					C534,386.1,533.3,385.4,532.4,385.4"/>
				<path class="st0" d="M544.9,386.8l-2,11.8c-0.2,1.3,0.7,2.3,2,2.3h12.5c1.1,0,1.9-0.8,2-1.7l1.8-12.5l2.2-15.1h-15.9
					L544.9,386.8z"/>
				<path class="st0" d="M163.9,386.8l-6.3-6.6c-0.6-0.7-2-0.7-2.8-0.1c-3.8,3.2-8.3,5-14.1,5c-9.1,0-16.3-5.6-19.3-13.4h-18.6
					c1.1,5.6,3.5,10.8,6.8,15.1c6.9,9.2,17.9,15.1,30.5,15.1l0,0l0,0c9.4,0,18.5-3.2,25.5-10.2c0.7-0.7,0.8-2.2,0.1-2.9L163.9,386.8
					z"/>
			</g>
		</g>
		<g class="st2">
			<g>
				<path class="st0" d="M208.3,430L208.3,430L208.3,430L208.3,430"/>
				<path class="st0" d="M277.9,430L277.9,430L277.9,430L277.9,430"/>
				<path class="st0" d="M396.9,430L396.9,430L396.9,430L396.9,430"/>
				<polyline class="st0" points="583.8,430 585.7,430 585.7,430 583.8,430 583.8,430 				"/>
				<path class="st0" d="M238.8,414.8H178c6.9,9.2,17.8,15.1,30.3,15.1l0,0C220.8,430,231.9,424,238.8,414.8"/>
				<path class="st0" d="M329.5,427c0,1.1,0.8,2,2,2H344c1.1,0,2-1,2-2v-12.1h-16.6L329.5,427L329.5,427z"/>
				<path class="st0" d="M420.6,414.8h-21.3c-0.9,0.4-2,0.5-3,0.5c-1.5,0-2.9-0.2-4.2-0.5H375l-2.2,3.9c-0.7,1.3-0.4,2.3,0.4,3.1
					c2.4,2.4,10,8.1,23.7,8.1l0,0C409.2,430,417.6,423.1,420.6,414.8"/>
				<path class="st0" d="M444.5,427c0,1.1,1,2,2,2h12.6c1.1,0,2-1,2-2v-12.1h-16.7L444.5,427L444.5,427z"/>
				<path class="st0" d="M587.5,428.8l7.3-14h-20.1l7.4,14c0.4,0.6,1.2,1.2,1.8,1.2h1.9C586.2,430,587.2,429.5,587.5,428.8"/>
				<path class="st0" d="M610.1,427.2c0.1,0.8,1.1,1.7,2,1.7h12.5c1.3,0,2.2-1,2-2.3l-2-11.8h-16.2L610.1,427.2z"/>
			</g>
		</g>
		<g class="st1">
			<g>
				<path class="st0" d="M61.5,76.5H48.9c-1.1,0-2,1-2,2v12.1v15.2v15.1h16.7v-15.1V90.6V78.5C63.5,77.4,62.6,76.5,61.5,76.5"/>
				<path class="st0" d="M201.1,76.5h-43.7c-1.2,0-2,1-2,2v12.1v15.2v15.1h16.4v-0.4h24c1.1,0,2-0.8,2-2V107c0-0.4-0.2-0.9-0.5-1.3
					c-0.4-0.4-0.9-0.7-1.5-0.7h-24V92H201c0.9,0,1.6-0.6,1.9-1.3c0.1-0.2,0.1-0.4,0.1-0.6V78.5C203.1,77.4,202.3,76.5,201.1,76.5"/>
				<path class="st0" d="M135.9,90.6c-6.8-8.6-17.3-14.1-29-14.1H81.2c-1.1,0-1.9,1-1.9,2v12.1v15.1v15.1h16.4v-15.1V92h11
					c9.2,0,16,5.6,18.5,13.8c0.7,2.3,1.2,4.8,1.2,7.4c0,2.7-0.4,5.3-1.2,7.7H143c0.5-2.5,0.8-5,0.8-7.7c0-2.6-0.3-5-0.8-7.4
					C142,100.1,139.4,95,135.9,90.6"/>
				<path class="st0" d="M253.1,90.6l-6.5-14c-0.4-0.6-1.1-1.2-1.8-1.2h-1.1c-0.7,0-1.4,0.5-1.8,1.2l-6.5,14l-7.1,15.1l-7.1,15.1
					H238l6.1-13.4h0.1l6.2,13.4h16.9l-7.1-15.1L253.1,90.6z"/>
			</g>
		</g>
		<g class="st2">
			<g>
				<path class="st0" d="M61.5,34.6H48.9c-1.1,0-2,1-2,2v12.1v15.1h16.7V48.7V36.6C63.5,35.6,62.6,34.6,61.5,34.6"/>
				<path class="st0" d="M201.1,34.6h-43.7c-1.2,0-2,1-2,2v12.1v15.1h42c-0.4-0.4-0.9-0.7-1.5-0.7h-24v-13h29.2
					c0.9,0,1.6-0.6,1.9-1.3c0.1-0.2,0.1-0.4,0.1-0.6V36.6C203.1,35.6,202.3,34.6,201.1,34.6"/>
				<path class="st0" d="M331.1,41.4c-3.1-2.3-11.6-7.9-22.6-7.9c-13.2,0-21,7-23.5,15.1c-0.5,1.9-0.9,3.9-0.9,5.8
					c0,3.7,0.9,6.7,2.3,9.4h26.6c-0.2-0.1-0.4-0.2-0.6-0.4c-7.4-3.6-11.5-6.4-11.5-9.8c0-2.2,1-4,3-5c0.9-0.4,2.1-0.7,3.4-0.7
					c1.5,0,3,0.3,4.5,0.7c4.1,1.3,8,3.7,9.8,4.9c2.2,1.3,3.9,0.4,4.7-0.7l2.8-4.2l2.6-3.9C332.1,44.1,332.3,42.2,331.1,41.4"/>
			</g>
		</g>
		<g class="st2">
			<g>
				<path class="st0" d="M246.6,1.2c-0.4-0.6-1.1-1.2-1.8-1.2h-1.1c-0.7,0-1.4,0.5-1.8,1.2l-6.5,14H253L246.6,1.2z M203.1,14.5V3
					c0-1.1-0.8-2-2-2h-43.7c-1.2,0-2,1-2,2v12.1H203C203.1,15,203.1,14.8,203.1,14.5 M107,1.1H81.3c-1.1,0-1.9,1-1.9,2v12.1H136
					C129.2,6.6,118.7,1.1,107,1.1"/>
			</g>
		</g>
	</g>
	<g>
		<path class="st0" d="M6.2,117c-0.1-0.2,0.1-0.4,0.3-0.4h1.3c0.1,0,0.2,0.1,0.3,0.2l1.4,5.4h0.1l2.2-5.6c0-0.1,0.1-0.2,0.3-0.2h0.3
			c0.2,0,0.2,0.1,0.3,0.2l2.2,5.6h0.1l1.3-5.4c0-0.1,0.2-0.2,0.3-0.2h1.3c0.2,0,0.3,0.1,0.3,0.4l-2.5,9.1c0,0.1-0.2,0.2-0.3,0.2
			h-0.2c-0.1,0-0.2-0.1-0.3-0.2l-2.4-6.1h-0.1L9.7,126c0,0.1-0.1,0.2-0.3,0.2H9.3c-0.1,0-0.2-0.1-0.3-0.2L6.2,117z"/>
		<path class="st0" d="M24.9,116.9c0-0.2,0.1-0.3,0.3-0.3h5.5c0.2,0,0.3,0.1,0.3,0.3v1.1c0,0.2-0.1,0.3-0.3,0.3h-4v2.2h3.3
			c0.2,0,0.3,0.1,0.3,0.3v1.2c0,0.2-0.1,0.3-0.3,0.3h-3.3v2.3h4c0.2,0,0.3,0.1,0.3,0.3v1.1c0,0.1-0.1,0.3-0.3,0.3h-5.5
			c-0.2,0-0.3-0.1-0.3-0.3V116.9z"/>
		<path class="st0" d="M47.4,118.2h-2.1c-0.2,0-0.3-0.1-0.3-0.3v-1.1c0-0.2,0.1-0.3,0.3-0.3h5.9c0.2,0,0.3,0.1,0.3,0.3v1.1
			c0,0.2-0.1,0.3-0.3,0.3h-2.1v7.6c0,0.1-0.1,0.3-0.3,0.3h-1.3c-0.2,0-0.3-0.1-0.3-0.3L47.4,118.2L47.4,118.2z"/>
		<path class="st0" d="M58.8,116.9c0-0.2,0.1-0.3,0.3-0.3h3.9c1.6,0,3,1.3,3,2.9c0,1.3-0.8,2.2-2,2.7l1.9,3.4c0.1,0.2,0,0.4-0.3,0.4
			h-1.4c-0.1,0-0.2-0.1-0.2-0.1l-1.8-3.6h-1.5v3.4c0,0.1-0.1,0.3-0.3,0.3H59c-0.2,0-0.3-0.1-0.3-0.3
			C58.8,125.7,58.8,116.9,58.8,116.9z M62.7,120.9c0.7,0,1.3-0.6,1.3-1.3s-0.6-1.3-1.3-1.3h-2.2v2.7H62.7z"/>
		<path class="st0" d="M72.4,125.8l4.2-9.1c0-0.1,0.1-0.2,0.3-0.2h0.2c0.2,0,0.2,0.1,0.3,0.2l4.1,9.1c0.1,0.2,0,0.4-0.3,0.4H80
			c-0.2,0-0.3-0.1-0.4-0.3l-0.6-1.4h-4l-0.6,1.4c-0.1,0.2-0.2,0.3-0.4,0.3h-1.2C72.4,126.1,72.3,125.9,72.4,125.8z M78.2,122.9
			l-1.3-3l0,0l-1.3,3H78.2z"/>
		<path class="st0" d="M88.3,116.8c0-0.2,0.1-0.3,0.3-0.3h0.2c0.1,0,0.2,0,0.3,0.1l5.6,5.9l0,0V117c0-0.2,0.1-0.3,0.3-0.3h1.3
			c0.2,0,0.3,0.1,0.3,0.3v9.1c0,0.2-0.1,0.3-0.3,0.3h-0.2c-0.1,0-0.2,0-0.3-0.1l-5.6-6.1l0,0v5.8c0,0.1-0.1,0.3-0.3,0.3h-1.3
			c-0.2,0-0.3-0.1-0.3-0.3V116.8z"/>
		<path class="st0" d="M104,125.2c-0.2-0.1-0.2-0.2-0.1-0.4l0.4-0.8c0.1-0.2,0.4-0.2,0.4-0.1c0.5,0.4,1.2,0.8,2.1,0.8
			c0.7,0,1.3-0.4,1.3-1.1c0-0.7-0.5-1.2-1.7-1.6c-1.3-0.5-2.5-1.3-2.5-3c0-1.2,0.9-2.6,3-2.6c1.3,0,2.4,0.7,2.7,0.9
			c0.2,0.1,0.2,0.3,0.1,0.4l-0.5,0.8c-0.1,0.2-0.3,0.3-0.4,0.2c-0.5-0.4-1.2-0.7-1.9-0.7c-0.8,0-1.2,0.4-1.2,1
			c0,0.6,0.5,1.1,1.6,1.5c1.3,0.5,2.9,1.3,2.9,3c0,1.4-1.2,2.7-3.1,2.7C105.3,126.2,104.4,125.5,104,125.2z"/>
		<path class="st0" d="M117.6,116.9c0-0.2,0.1-0.3,0.3-0.3h5.5c0.2,0,0.3,0.1,0.3,0.3v1.1c0,0.2-0.1,0.3-0.3,0.3h-4v2.5h3.3
			c0.2,0,0.3,0.1,0.3,0.3v1.1c0,0.2-0.1,0.3-0.3,0.3h-3.3v3.4c0,0.1-0.1,0.3-0.3,0.3h-1.3c-0.2,0-0.3-0.1-0.3-0.3L117.6,116.9
			L117.6,116.9z"/>
		<path class="st0" d="M135.2,116.5c2.7,0,4.8,2.2,4.8,4.8s-2.2,4.8-4.8,4.8c-2.7,0-4.8-2.2-4.8-4.8S132.5,116.5,135.2,116.5z
			 M135.2,124.5c1.7,0,3.1-1.4,3.1-3.1s-1.4-3.1-3.1-3.1s-3.1,1.4-3.1,3.1C132.1,123.1,133.5,124.5,135.2,124.5z"/>
		<path class="st0" d="M147.6,116.9c0-0.2,0.1-0.3,0.3-0.3h3.9c1.6,0,3,1.3,3,2.9c0,1.3-0.8,2.2-2,2.7l1.9,3.4
			c0.1,0.2,0,0.4-0.3,0.4h-1.4c-0.1,0-0.2-0.1-0.2-0.1l-1.8-3.6h-1.5v3.4c0,0.1-0.1,0.3-0.3,0.3h-1.3c-0.2,0-0.3-0.1-0.3-0.3
			L147.6,116.9L147.6,116.9z M151.5,120.9c0.7,0,1.3-0.6,1.3-1.3s-0.6-1.3-1.3-1.3h-2.2v2.7H151.5z"/>
		<path class="st0" d="M163.5,116.7c0-0.1,0.1-0.2,0.3-0.2h0.2c0.1,0,0.2,0.1,0.3,0.2l3,6.4l0,0l3-6.4c0-0.1,0.1-0.2,0.3-0.2h0.2
			c0.2,0,0.3,0.1,0.3,0.2l1.6,9.1c0,0.2-0.1,0.3-0.3,0.3h-1.3c-0.1,0-0.3-0.1-0.3-0.2l-0.8-5.1l0,0l-2.3,5.3c0,0.1-0.1,0.2-0.3,0.2
			H167c-0.1,0-0.2-0.1-0.3-0.2l-2.4-5.3l0,0l-0.8,5.1c0,0.1-0.1,0.2-0.3,0.2h-1.3c-0.2,0-0.3-0.1-0.3-0.3L163.5,116.7z"/>
	</g>
	<g>
		<path class="st0" d="M347.1,199.4c0-0.2,0.1-0.3,0.3-0.3h1.3c0.2,0,0.3,0.1,0.3,0.3v9c0,0.1-0.1,0.3-0.3,0.3h-1.3
			c-0.2,0-0.3-0.1-0.3-0.3V199.4z"/>
		<path class="st0" d="M357,199.3c0-0.2,0.1-0.3,0.3-0.3h0.2c0.1,0,0.2,0,0.3,0.1l5.6,5.9l0,0v-5.6c0-0.2,0.1-0.3,0.3-0.3h1.3
			c0.2,0,0.3,0.1,0.3,0.3v9.1c0,0.2-0.1,0.3-0.3,0.3h-0.2c-0.1,0-0.2,0-0.3-0.1l-5.6-6.1l0,0v5.8c0,0.1-0.1,0.3-0.3,0.3h-1.3
			c-0.2,0-0.3-0.1-0.3-0.3V199.3z"/>
		<path class="st0" d="M374.6,200.8h-2.1c-0.2,0-0.3-0.1-0.3-0.3v-1.1c0-0.2,0.1-0.3,0.3-0.3h5.9c0.2,0,0.3,0.1,0.3,0.3v1.1
			c0,0.2-0.1,0.3-0.3,0.3h-2.1v7.6c0,0.1-0.1,0.3-0.3,0.3h-1.3c-0.2,0-0.3-0.1-0.3-0.3L374.6,200.8L374.6,200.8z"/>
		<path class="st0" d="M390.1,199.1c2.7,0,4.8,2.2,4.8,4.8s-2.2,4.8-4.8,4.8s-4.8-2.2-4.8-4.8S387.3,199.1,390.1,199.1z
			 M390.1,207.1c1.7,0,3.1-1.4,3.1-3.1s-1.4-3.1-3.1-3.1c-1.7,0-3.1,1.4-3.1,3.1S388.4,207.1,390.1,207.1z"/>
		<path class="st0" d="M409.9,208.3l4.2-9.1c0-0.1,0.1-0.2,0.3-0.2h0.2c0.2,0,0.2,0.1,0.3,0.2l4.1,9.1c0.1,0.2,0,0.4-0.3,0.4h-1.2
			c-0.2,0-0.3-0.1-0.4-0.3l-0.6-1.4h-4.1l-0.6,1.4c-0.1,0.2-0.2,0.3-0.4,0.3h-1.2C410,208.7,409.8,208.5,409.9,208.3z M415.7,205.5
			l-1.3-3l0,0l-1.3,3H415.7z"/>
		<path class="st0" d="M425.8,199.3c0-0.2,0.1-0.3,0.3-0.3h0.2c0.1,0,0.2,0,0.3,0.1l5.6,5.9l0,0v-5.6c0-0.2,0.1-0.3,0.3-0.3h1.3
			c0.2,0,0.3,0.1,0.3,0.3v9.1c0,0.2-0.1,0.3-0.3,0.3h-0.2c-0.1,0-0.2,0-0.3-0.1l-5.6-6.1l0,0v5.8c0,0.1-0.1,0.3-0.3,0.3h-1.3
			c-0.2,0-0.3-0.1-0.3-0.3L425.8,199.3L425.8,199.3z"/>
	</g>
</g>
</svg>
