<?xml version="1.0" encoding="utf-8"?>
<!-- Generator: Adobe Illustrator 25.4.1, SVG Export Plug-In . SVG Version: 6.00 Build 0)  -->
<svg version="1.1" id="Capa_1" xmlns="http://www.w3.org/2000/svg" xmlns:xlink="http://www.w3.org/1999/xlink" x="0px" y="0px"
	 viewBox="0 0 820 430" style="enable-background:new 0 0 820 430;" xml:space="preserve">
<style type="text/css">
	.st0{fill:#FFFFFF;}
	.st1{opacity:0.3;}
	.st2{opacity:0.15;}
</style>
<g>
	<g>
		<path class="st0" d="M99.3,220.8h-7.6c-0.5,0-1,0.5-1.2,0.9l-2,7.8l-2.4,9.4l-1.2,4.9h-0.3l-2.2-4.9l-4.1-9.4l-3.8-8.7
			c-0.1-0.4-0.5-0.7-1.1-0.7h-1.2c-0.5,0-0.9,0.3-1.1,0.7l-3.8,8.7l-4.1,9.4l-2.2,4.9h-0.3l-1.2-4.9l-2.4-9.4l-2-7.8
			c-0.1-0.5-0.7-0.9-1.2-0.9h-7.6c-0.9,0-1.4,0.7-1.2,1.6l2,7.2l2.6,9.4l2.6,9.4l2.6,9.4l2.4,8.5c0.1,0.5,0.6,0.9,1.2,0.9
			c0,0,0,0,0,0h1c0,0,0,0,0,0c0.5,0,0.9-0.3,1.1-0.7l3.9-8.7l4.2-9.4l3.8-8.6H73l3.8,8.6l4.2,9.4l3.9,8.7c0.2,0.4,0.6,0.7,1.1,0.7
			c0,0,0,0,0,0h1c0,0,0,0,0,0c0.5,0,1-0.4,1.2-0.9l2.4-8.5l2.6-9.4l2.6-9.4l2.6-9.4l2-7.2C100.8,221.4,100.3,220.8,99.3,220.8"/>
		<path class="st0" d="M134,220.8h-27c-0.7,0-1.2,0.6-1.2,1.2v7.5v9.4v9.4v9.4v7.5c0,0.7,0.5,1.2,1.2,1.2h27c0.7,0,1.2-0.6,1.2-1.2
			v-7.1c0-0.1,0-0.3-0.1-0.4c-0.2-0.5-0.6-0.8-1.2-0.8H116v-8.5V248h14.9c0.7,0,1.2-0.5,1.2-1.2v-7.1c0-0.3-0.1-0.6-0.3-0.8
			c-0.2-0.3-0.6-0.5-0.9-0.5H116v-8.1H134c0.6,0,1-0.4,1.2-0.8c0-0.1,0.1-0.3,0.1-0.4V222C135.3,221.4,134.8,220.8,134,220.8"/>
		<path class="st0" d="M297.1,220.8h-27c-0.7,0-1.2,0.6-1.2,1.2v7.5v9.4v9.4v9.4v7.5c0,0.7,0.5,1.2,1.2,1.2h27
			c0.7,0,1.2-0.6,1.2-1.2v-7.1c0-0.1,0-0.3-0.1-0.4c-0.2-0.5-0.6-0.8-1.2-0.8h-18.1v-8.5V248h14.9c0.7,0,1.2-0.5,1.2-1.2v-7.1
			c0-0.3-0.1-0.6-0.3-0.8c-0.2-0.3-0.6-0.5-0.9-0.5h-14.9v-8.1h18.1c0.6,0,1-0.4,1.2-0.8c0-0.1,0.1-0.3,0.1-0.4V222
			C298.3,221.4,297.8,220.8,297.1,220.8"/>
		<path class="st0" d="M315.7,220.8h-7.8c-0.7,0-1.2,0.6-1.2,1.2v7.5v9.4v9.4v9.4v7.5c0,0.7,0.6,1.2,1.2,1.2h7.8
			c0.7,0,1.2-0.6,1.2-1.2v-7.5v-9.4v-9.4v-9.4V222C316.9,221.4,316.3,220.8,315.7,220.8"/>
		<path class="st0" d="M364.6,220.8h-7.8c-0.7,0-1.2,0.6-1.2,1.2v7.5v9.4v6.3h-0.1l-6.5-6.3l-9.8-9.4l-8.7-8.4c-0.5-0.5-1-1-1.6-1
			h-1c-0.7,0-1.2,0.5-1.2,1.2l0,8.2l0,9.4l0,9.4l0,9.4l0,7.5c0,0.7,0.6,1.2,1.2,1.2h7.8c0.7,0,1.2-0.6,1.2-1.2v-7.5v-9.4v-7.4h0.1
			l7.4,7.4l9.3,9.4l8.6,8.7c0.5,0.5,1,0.7,1.6,0.7c0,0,0,0,0,0h0.7c0,0,0,0,0,0c0.6,0,1.2-0.4,1.2-1.2v-8.2v-9.4v-9.4v-9.4V222
			C365.9,221.4,365.3,220.8,364.6,220.8"/>
		<path class="st0" d="M518.5,220.8h-7.8c-0.7,0-1.2,0.6-1.2,1.2v7.5v9.4v6.3h-0.1l-6.5-6.3l-9.8-9.4l-8.7-8.4c-0.5-0.5-1-1-1.6-1
			h-1c-0.7,0-1.2,0.5-1.2,1.2l0,8.2l0,9.4l0,9.4l0,9.4l0,7.5c0,0.7,0.6,1.2,1.2,1.2h7.8c0.7,0,1.2-0.6,1.2-1.2v-7.5v-9.4v-7.4h0.1
			l7.4,7.4l9.3,9.4l8.6,8.7c0.5,0.5,1,0.7,1.6,0.7c0,0,0,0,0,0h0.7c0,0,0,0,0,0c0.7,0,1.2-0.4,1.2-1.2v-8.2v-9.4v-9.4v-9.4V222
			C519.7,221.4,519.2,220.8,518.5,220.8"/>
		<path class="st0" d="M747.3,220.8h-27c-0.7,0-1.2,0.6-1.2,1.2v7.5v9.4v9.4v9.4v7.5c0,0.7,0.5,1.2,1.2,1.2h27
			c0.7,0,1.2-0.6,1.2-1.2v-7.1c0-0.1,0-0.3-0.1-0.4c-0.2-0.5-0.6-0.8-1.2-0.8h-18.1v-8.5V248h14.9c0.7,0,1.2-0.5,1.2-1.2v-7.1
			c0-0.3-0.1-0.6-0.3-0.8c-0.2-0.3-0.6-0.5-0.9-0.5h-14.9v-8.1h18.1c0.6,0,1-0.4,1.2-0.8c0-0.1,0.1-0.3,0.1-0.4V222
			C748.5,221.4,748,220.8,747.3,220.8"/>
		<path class="st0" d="M546.6,256.7h-6.8v-8.5v-9.4v-8.5h6.8c5.7,0,9.9,3.5,11.4,8.5c0.4,1.4,0.7,3,0.7,4.6c0,1.7-0.3,3.3-0.7,4.8
			C556.4,253.3,552.3,256.7,546.6,256.7 M564.6,229.5c-4.2-5.3-10.7-8.7-18-8.7h-15.9c-0.7,0-1.2,0.6-1.2,1.2v7.5v9.4v9.4v9.4v7.5
			c0,0.7,0.5,1.2,1.2,1.2h15.9c7.3,0,13.7-3.4,17.9-8.7c2.1-2.7,3.7-5.9,4.4-9.4c0.3-1.5,0.5-3.1,0.5-4.8c0-1.6-0.2-3.1-0.5-4.6
			C568.3,235.4,566.8,232.2,564.6,229.5"/>
		<path class="st0" d="M655.1,230c3.2,0,6.1,1,8.8,3.3c0.5,0.5,1.2,0.5,1.6,0l3.6-3.8l1.4-1.5c0.5-0.5,0.5-1.3-0.1-1.8
			c-4.4-4-9.3-6.1-15.8-6.1c-7.7,0-14.5,3.7-18.8,9.4c-2.1,2.7-3.5,5.9-4.3,9.4c-0.3,1.5-0.5,3.1-0.5,4.8c0,1.6,0.2,3.1,0.5,4.6
			c0.7,3.5,2.2,6.7,4.2,9.4c4.3,5.7,11.1,9.4,18.8,9.4c0,0,0,0,0,0c0,0,0,0,0,0c5.8,0,11.4-2,15.8-6.3c0.5-0.5,0.5-1.3,0.1-1.8
			l-1.2-1.3l-3.9-4.1c-0.4-0.5-1.2-0.5-1.7-0.1c-2.3,2-5.1,3.1-8.7,3.1c-5.6,0-10.1-3.5-11.9-8.3c-0.6-1.5-0.9-3.2-0.9-4.9
			c0-1.6,0.3-3.1,0.7-4.5C644.7,233.7,649.3,230,655.1,230"/>
		<path class="st0" d="M697.1,230c3.2,0,6.1,1,8.8,3.3c0.5,0.5,1.2,0.5,1.6,0l3.6-3.8l1.4-1.5c0.5-0.5,0.5-1.3-0.1-1.8
			c-4.4-4-9.3-6.1-15.8-6.1c-7.7,0-14.5,3.7-18.8,9.4c-2.1,2.7-3.5,5.9-4.3,9.4c-0.3,1.5-0.5,3.1-0.5,4.8c0,1.6,0.2,3.1,0.5,4.6
			c0.7,3.5,2.2,6.7,4.2,9.4c4.3,5.7,11.1,9.4,18.8,9.4c0,0,0,0,0,0c0,0,0,0,0,0c5.8,0,11.4-2,15.8-6.3c0.5-0.5,0.5-1.3,0.1-1.8
			l-1.2-1.3l-3.9-4.1c-0.4-0.5-1.2-0.5-1.7-0.1c-2.3,2-5.1,3.1-8.7,3.1c-5.6,0-10.1-3.5-11.9-8.3c-0.6-1.5-0.9-3.2-0.9-4.9
			c0-1.6,0.3-3.1,0.7-4.5C686.7,233.7,691.3,230,697.1,230"/>
		<path class="st0" d="M219.7,240.6h-14.9c-0.7,0-1.2,0.5-1.2,1.2v5.9c0,0.2,0.1,0.4,0.1,0.5c0.2,0.4,0.6,0.7,1.1,0.7h14.9
			c0.5,0,0.9-0.3,1.1-0.7c0.1-0.2,0.1-0.3,0.1-0.5v-5.9C220.9,241.1,220.4,240.6,219.7,240.6"/>
		<path class="st0" d="M239.6,247.8h5.7c1,0,1.8,0.2,2.5,0.5c1.6,0.8,2.5,2.3,2.5,4.1c0,3.1-1.8,4.7-5.1,4.7h-5.5v-8.8V247.8z
			 M239.6,230.2h5.4c2.5,0,4.2,1.8,4.2,4.4c0,1.9-1,3.6-2.5,4.3c-0.5,0.2-1.1,0.4-1.7,0.4h-5.4v-0.4V230.2z M252.5,243.2
			L252.5,243.2c2-0.9,4-2.3,5.5-4.3c1.2-1.6,2-3.6,2-6c0-1.2-0.2-2.3-0.6-3.4c-1.7-5.1-7.1-8.7-13.5-8.7h-15.2
			c-0.7,0-1.2,0.6-1.2,1.2v7.5v9.4v9.4v9.4v7.5c0,0.7,0.5,1.2,1.2,1.2h16.2c6.4,0,11.8-3.3,13.6-8.7c0.4-1.2,0.6-2.5,0.6-3.8
			c0-2.2-0.6-4.1-1.5-5.5C257.9,245.6,255,244,252.5,243.2"/>
		<path class="st0" d="M772.1,238.9c-0.1-0.1-0.3-0.1-0.4-0.2c-4.6-2.2-7.1-3.9-7.1-6.1c0-1.3,0.6-2.5,1.9-3.1
			c0.6-0.3,1.3-0.5,2.1-0.5c0.9,0,1.9,0.2,2.8,0.5c2.5,0.8,4.9,2.3,6,3.1c1.3,0.8,2.4,0.3,2.9-0.5l1.7-2.6l1.6-2.4
			c0.3-0.5,0.4-1.6-0.4-2.1c-2-1.4-7.2-4.9-13.9-4.9c-8.2,0-13,4.3-14.5,9.4c-0.4,1.2-0.5,2.4-0.5,3.6c0,2.3,0.5,4.2,1.5,5.8
			c2.2,4,6.7,6.4,11.2,8.6c0.5,0.3,1.1,0.5,1.5,0.8c3.3,1.8,5.2,3.4,5.2,5.8c0,1.7-1,3-2.6,3.6c-0.6,0.2-1.2,0.3-1.9,0.3
			c-0.9,0-1.8-0.1-2.6-0.3c-2.9-0.7-5.2-2.3-6.6-3.3c-0.7-0.5-1.7-0.5-2.2,0.4l-1.6,2.9l-1.4,2.4c-0.5,0.8-0.3,1.4,0.3,2
			c1.5,1.5,6.2,5,14.7,5c0,0,0,0,0,0c0,0,0,0,0,0c7.6,0,12.8-4.3,14.6-9.4c0.5-1.3,0.7-2.7,0.7-4.1c0-2-0.4-3.8-1.1-5.3
			C781.6,243.4,776.4,241,772.1,238.9"/>
		<path class="st0" d="M169.3,256.8h-15.5v-8.5v-9.4v-9.4V222c0-0.7-0.6-1.2-1.2-1.2h-7.8c-0.7,0-1.2,0.6-1.2,1.2v7.5v9.4v9.4v9.4
			v7.5c0,0.7,0.5,1.2,1.2,1.2h24.5c0.7,0,1.2-0.6,1.2-1.2v-7.1c0-0.1,0-0.3-0.1-0.4C170.3,257.2,169.9,256.8,169.3,256.8"/>
		<path class="st0" d="M201.3,256.8h-15.5v-8.5v-9.4v-9.4V222c0-0.7-0.6-1.2-1.2-1.2h-7.8c-0.7,0-1.2,0.6-1.2,1.2v7.5v9.4v9.4v9.4
			v7.5c0,0.7,0.5,1.2,1.2,1.2h24.5c0.7,0,1.2-0.6,1.2-1.2v-7.1c0-0.1,0-0.3-0.1-0.4C202.3,257.2,201.9,256.8,201.3,256.8"/>
		<path class="st0" d="M413,248.3l0-4.1c0-0.7-0.5-1.2-1.2-1.2h-13.1c-0.7,0-1.2,0.5-1.2,1.2v4.1v2.3c0,0.7,0.5,1.2,1.2,1.2h4.1v3.8
			c-2,0.8-3.9,1-5.8,1c-5.5,0-10.2-3.5-12-8.3c-0.6-1.4-0.9-3-0.9-4.6c0-1.7,0.3-3.3,0.9-4.8c1.9-4.9,6.5-8.4,11.9-8.4
			c3.2,0,6.1,0.8,8.5,3.1c0.5,0.4,1.2,0.4,1.8-0.1l3.8-4l1.3-1.4c0.5-0.5,0.5-1.3-0.1-1.8c-4.4-3.8-10.4-6.1-15.9-6.1
			c-7.7,0-14.4,3.7-18.7,9.3c-2.1,2.7-3.5,5.9-4.2,9.4c-0.3,1.5-0.5,3.1-0.5,4.8c0,1.6,0.2,3.1,0.5,4.6c0.7,3.5,2.2,6.7,4.2,9.4
			c4.3,5.7,11,9.3,18.7,9.3c9.5,0,16.2-4.2,16.2-4.2c0.3-0.2,0.5-0.5,0.5-1l0-4L413,248.3z"/>
		<path class="st0" d="M818.9,248.3c-2.2-4.9-7.3-7.3-11.7-9.4c-0.1-0.1-0.3-0.1-0.4-0.2c-4.6-2.2-7.1-3.9-7.1-6.1
			c0-1.3,0.6-2.5,1.9-3.1c0.6-0.3,1.3-0.5,2.1-0.5c0.9,0,1.9,0.2,2.8,0.5c2.5,0.8,4.9,2.3,6,3.1c1.3,0.8,2.4,0.3,2.9-0.5l1.7-2.6
			l1.6-2.4c0.3-0.5,0.4-1.6-0.4-2.1c-2-1.4-7.2-4.9-13.9-4.9c-8.2,0-13,4.3-14.5,9.4c-0.4,1.2-0.5,2.4-0.5,3.6
			c0,2.3,0.5,4.2,1.5,5.8c2.2,4,6.7,6.4,11.2,8.6c0.5,0.3,1.1,0.5,1.5,0.8c3.3,1.8,5.2,3.4,5.2,5.8c0,1.7-1,3-2.6,3.6
			c-0.6,0.2-1.2,0.3-1.9,0.3c-0.9,0-1.8-0.1-2.6-0.3c-2.9-0.7-5.2-2.3-6.6-3.3c-0.7-0.5-1.7-0.5-2.2,0.4l-1.6,2.9l-1.4,2.4
			c-0.5,0.8-0.3,1.4,0.3,2c1.5,1.5,6.2,5,14.7,5c0,0,0,0,0,0c0,0,0,0,0,0c7.6,0,12.8-4.3,14.6-9.4c0.5-1.3,0.7-2.7,0.7-4.1
			C820,251.5,819.6,249.8,818.9,248.3"/>
		<path class="st0" d="M454.1,240L454.1,240l3.9,8.3l1.1,2.5h-9.9l1.1-2.5L454.1,240z M472.7,257.7l-4.4-9.4l-4.4-9.4l-4.4-9.4
			l-4-8.7c-0.2-0.4-0.7-0.7-1.1-0.7h-0.7c-0.5,0-0.9,0.3-1.1,0.7l-4,8.7l-4.4,9.4l-4.4,9.4l-4.4,9.4l-3.3,7
			c-0.4,0.8,0.1,1.7,1.1,1.7h7.2c1.3,0,2-0.8,2.3-1.6l2.3-5.2H463l2.3,5.1c0.6,1.2,1.1,1.6,2.3,1.6h7.2c1,0,1.5-0.8,1.1-1.7
			L472.7,257.7z"/>
		<path class="st0" d="M609.6,240L609.6,240l3.9,8.3l1.1,2.5h-9.9l1.1-2.5L609.6,240z M628.2,257.7l-4.4-9.4l-4.4-9.4l-4.4-9.4
			l-4-8.7c-0.2-0.4-0.7-0.7-1.1-0.7h-0.7c-0.5,0-0.9,0.3-1.1,0.7l-4,8.7l-4.4,9.4l-4.4,9.4l-4.4,9.4l-3.3,7
			c-0.4,0.8,0.1,1.7,1.1,1.7h7.2c1.3,0,2-0.8,2.3-1.6l2.3-5.2h17.7l2.3,5.1c0.6,1.2,1.1,1.6,2.3,1.6h7.2c1,0,1.5-0.8,1.1-1.7
			L628.2,257.7z"/>
		<path class="st0" d="M158.7,166.3h-8.7c-0.5,0-1,0.4-1.1,0.7l-3.6,8l-4.2,9.4l-2.9,6.4h-0.4l-2.9-6.4l-4.2-9.4l-3.6-8
			c-0.1-0.3-0.6-0.7-1.1-0.7h-8.7c-1,0-1.5,0.8-1.1,1.7l3.3,7l4.4,9.4l4.4,9.4l4.4,9.4l4,8.7c0.2,0.4,0.6,0.7,1.1,0.7c0,0,0,0,0,0
			h0.7c0,0,0,0,0,0c0.5,0,0.9-0.3,1.1-0.7l4-8.7l4.4-9.4l4.4-9.4l4.4-9.4l3.3-7C160.2,167.1,159.7,166.3,158.7,166.3"/>
		<path class="st0" d="M173.5,166.3h-7.8c-0.7,0-1.2,0.6-1.2,1.2v7.5v9.4v9.4v9.4v7.5c0,0.7,0.6,1.2,1.2,1.2h7.8
			c0.7,0,1.2-0.6,1.2-1.2v-7.5v-9.4v-9.4V175v-7.5C174.7,166.9,174.1,166.3,173.5,166.3"/>
		<path class="st0" d="M222.4,166.3h-7.8c-0.7,0-1.2,0.6-1.2,1.2v7.5v9.4v6.3h-0.1l-6.5-6.3L197,175l-8.7-8.4c-0.5-0.5-1-1-1.6-1h-1
			c-0.7,0-1.2,0.5-1.2,1.2l0,8.2l0,9.4l0,9.4l0,9.4l0,7.5c0,0.7,0.6,1.2,1.2,1.2h7.8c0.7,0,1.2-0.6,1.2-1.2v-7.5v-9.4v-7.4h0.1
			l7.4,7.4l9.3,9.4l8.6,8.7c0.5,0.5,1,0.7,1.6,0.7c0,0,0,0,0,0h0.7c0,0,0,0,0,0c0.7,0,1.2-0.4,1.2-1.2v-8.2v-9.4v-9.4V175v-7.5
			C223.7,166.9,223.1,166.3,222.4,166.3"/>
		<path class="st0" d="M63.1,184.4c-0.1-0.1-0.3-0.1-0.4-0.2c-4.6-2.2-7.1-3.9-7.1-6.1c0-1.3,0.6-2.5,1.9-3.1
			c0.6-0.3,1.3-0.5,2.1-0.5c0.9,0,1.9,0.2,2.8,0.5c2.5,0.8,4.9,2.3,6,3.1c1.3,0.8,2.4,0.3,2.9-0.5L73,175l1.6-2.4
			c0.3-0.5,0.4-1.6-0.4-2.1c-2-1.4-7.2-4.9-13.9-4.9c-8.2,0-13,4.3-14.5,9.4c-0.4,1.2-0.5,2.4-0.5,3.6c0,2.3,0.5,4.2,1.5,5.8
			c2.2,4,6.7,6.4,11.2,8.6c0.5,0.3,1.1,0.5,1.5,0.8c3.3,1.8,5.2,3.4,5.2,5.8c0,1.7-1,3-2.6,3.6c-0.6,0.2-1.2,0.3-1.9,0.3
			c-0.9,0-1.8-0.1-2.6-0.3c-2.9-0.7-5.2-2.3-6.6-3.3c-0.7-0.5-1.7-0.5-2.2,0.4l-1.6,2.9l-1.4,2.4c-0.5,0.8-0.3,1.4,0.3,2
			c1.5,1.5,6.2,5,14.7,5c0,0,0,0,0,0c0,0,0,0,0,0c7.6,0,12.8-4.3,14.6-9.4c0.5-1.3,0.7-2.7,0.7-4.1c0-2-0.4-3.8-1.1-5.3
			C72.6,188.9,67.5,186.5,63.1,184.4"/>
		<path class="st0" d="M270.8,193.8l0-4.1c0-0.7-0.5-1.2-1.2-1.2h-13.1c-0.7,0-1.2,0.5-1.2,1.2v4.1v2.3c0,0.7,0.5,1.2,1.2,1.2h4.1
			v3.8c-2,0.8-3.9,1-5.8,1c-5.5,0-10.2-3.5-12-8.3c-0.6-1.4-0.9-3-0.9-4.6c0-1.7,0.3-3.3,0.9-4.8c1.9-4.9,6.5-8.4,11.9-8.4
			c3.2,0,6.1,0.8,8.5,3.1c0.5,0.4,1.2,0.4,1.8-0.1l3.8-4l1.3-1.4c0.5-0.5,0.5-1.3-0.1-1.8c-4.4-3.8-10.4-6.1-15.9-6.1
			c-7.7,0-14.4,3.7-18.7,9.3c-2,2.7-3.5,5.9-4.2,9.4c-0.3,1.5-0.5,3.1-0.5,4.8c0,1.6,0.2,3.1,0.5,4.6c0.7,3.5,2.2,6.7,4.2,9.4
			c4.3,5.7,11,9.3,18.7,9.3c9.5,0,16.2-4.2,16.2-4.2c0.3-0.2,0.5-0.5,0.5-1l0-4L270.8,193.8z"/>
		<path class="st0" d="M306.4,193.8c-2.2-4.9-7.3-7.3-11.7-9.4c-0.1-0.1-0.3-0.1-0.4-0.2c-4.6-2.2-7.1-3.9-7.1-6.1
			c0-1.3,0.6-2.5,1.9-3.1c0.6-0.3,1.3-0.5,2.1-0.5c0.9,0,1.9,0.2,2.8,0.5c2.5,0.8,4.9,2.3,6,3.1c1.3,0.8,2.4,0.3,2.9-0.5l1.7-2.6
			l1.6-2.4c0.3-0.5,0.4-1.6-0.4-2.1c-2-1.4-7.2-4.9-13.9-4.9c-8.2,0-13,4.3-14.5,9.4c-0.4,1.2-0.5,2.4-0.5,3.6
			c0,2.3,0.5,4.2,1.5,5.8c2.2,4,6.7,6.4,11.2,8.6c0.5,0.3,1.1,0.5,1.5,0.8c3.3,1.8,5.2,3.4,5.2,5.8c0,1.7-1,3-2.6,3.6
			c-0.6,0.2-1.2,0.3-1.9,0.3c-0.9,0-1.8-0.1-2.6-0.3c-2.9-0.7-5.2-2.3-6.6-3.3c-0.7-0.5-1.7-0.5-2.2,0.4l-1.6,2.9l-1.4,2.4
			c-0.5,0.8-0.3,1.4,0.3,2c1.5,1.5,6.2,5,14.7,5c0,0,0,0,0,0c0,0,0,0,0,0c7.6,0,12.8-4.3,14.6-9.4c0.5-1.3,0.7-2.7,0.7-4.1
			C307.5,197,307.1,195.3,306.4,193.8"/>
		<path class="st0" d="M99.2,185.5L99.2,185.5l3.9,8.3l1.1,2.5h-9.9l1.1-2.5L99.2,185.5z M117.8,203.2l-4.4-9.4l-4.4-9.4l-4.4-9.4
			l-4-8.7c-0.2-0.4-0.7-0.7-1.1-0.7h-0.7c-0.5,0-0.9,0.3-1.1,0.7l-4,8.7l-4.4,9.4l-4.4,9.4l-4.4,9.4l-3.3,7
			c-0.4,0.8,0.1,1.7,1.1,1.7h7.2c1.3,0,2-0.8,2.3-1.6l2.3-5.2h17.7l2.3,5.1c0.6,1.2,1.1,1.6,2.3,1.6h7.2c1,0,1.5-0.8,1.1-1.7
			L117.8,203.2z"/>
		<g class="st1">
			<g>
				<path class="st0" d="M84.9,281.5h-0.3l-2.2-4.9H63.2l-2.2,4.9h-0.3l-1.2-4.9h-9.7l2.6,9.4l2.6,9.4l2.4,8.5
					c0.1,0.5,0.6,0.9,1.2,0.9c0,0,0,0,0,0h1c0,0,0,0,0,0c0.5,0,0.9-0.3,1.1-0.7l3.9-8.7l4.2-9.4l3.8-8.6H73l3.8,8.6l4.2,9.4l3.9,8.7
					c0.2,0.4,0.7,0.7,1.1,0.7c0,0,0,0,0,0h1c0,0,0,0,0,0c0.5,0,1-0.4,1.2-0.9l2.4-8.5l2.6-9.4l2.6-9.4h-9.7L84.9,281.5z"/>
				<path class="st0" d="M219.7,278.3h-14.9c-0.7,0-1.2,0.5-1.2,1.2v5.9c0,0.2,0.1,0.4,0.1,0.5c0.2,0.4,0.6,0.7,1.1,0.7h14.9
					c0.5,0,0.9-0.3,1.1-0.7c0.1-0.2,0.1-0.3,0.1-0.5v-5.9C220.9,278.8,220.4,278.3,219.7,278.3"/>
				<path class="st0" d="M239.6,285.5h5.7c1,0,1.8,0.2,2.5,0.5c1.6,0.8,2.5,2.3,2.5,4.1c0,3.1-1.8,4.7-5.1,4.7h-5.5V286V285.5z
					 M252.5,280.9L252.5,280.9c2-0.9,4-2.3,5.5-4.3h-11.1c-0.5,0.2-1.1,0.4-1.7,0.4h-5.4v-0.4h-10.2v9.4v9.4v7.5
					c0,0.7,0.5,1.2,1.2,1.2h16.2c6.4,0,11.8-3.3,13.6-8.7c0.4-1.2,0.6-2.5,0.6-3.8c0-2.2-0.6-4.1-1.5-5.5
					C257.9,283.3,255,281.8,252.5,280.9"/>
				<path class="st0" d="M306.6,286v9.4v7.5c0,0.7,0.6,1.2,1.2,1.2h7.8c0.7,0,1.2-0.6,1.2-1.2v-7.5V286v-9.4h-10.3V286z"/>
				<path class="st0" d="M355.6,282.9L355.6,282.9l-6.6-6.3h-22.3l0,9.4l0,9.4l0,7.5c0,0.7,0.6,1.2,1.2,1.2h7.8
					c0.7,0,1.2-0.6,1.2-1.2v-7.5V286v-7.4h0.1l7.4,7.4l9.3,9.4l8.6,8.7c0.5,0.5,1,0.7,1.6,0.7c0,0,0,0,0,0h0.7c0,0,0,0,0,0
					c0.6,0,1.2-0.4,1.2-1.2v-8.2V286v-9.4h-10.3V282.9z"/>
				<path class="st0" d="M509.4,282.9L509.4,282.9l-6.6-6.3h-22.3l0,9.4l0,9.4l0,7.5c0,0.7,0.6,1.2,1.2,1.2h7.8
					c0.7,0,1.2-0.6,1.2-1.2v-7.5V286v-7.4h0.1l7.4,7.4l9.3,9.4l8.6,8.7c0.5,0.5,1,0.7,1.6,0.7c0,0,0,0,0,0h0.7c0,0,0,0,0,0
					c0.6,0,1.2-0.4,1.2-1.2v-8.2V286v-9.4h-10.3V282.9z"/>
				<path class="st0" d="M558,276.6c0.4,1.4,0.7,3,0.7,4.6c0,1.7-0.3,3.3-0.7,4.8c-1.6,5-5.7,8.5-11.4,8.5h-6.8V286v-9.4h-10.2v9.4
					v9.4v7.5c0,0.7,0.5,1.2,1.2,1.2h15.9c7.3,0,13.7-3.4,17.9-8.7c2.1-2.7,3.7-5.9,4.4-9.4c0.3-1.5,0.5-3.1,0.5-4.8
					c0-1.6-0.2-3.1-0.5-4.6H558z"/>
				<path class="st0" d="M134,294.5H116V286v-0.3h14.9c0.7,0,1.2-0.5,1.2-1.2v-7.1c0-0.3-0.1-0.6-0.3-0.8h-25.9v9.4v9.4v7.5
					c0,0.7,0.5,1.2,1.2,1.2h27c0.7,0,1.2-0.6,1.2-1.2v-7.1c0-0.1,0-0.3-0.1-0.4C135,294.9,134.6,294.5,134,294.5"/>
				<path class="st0" d="M169.3,294.5h-15.5V286v-9.4h-10.2v9.4v9.4v7.5c0,0.7,0.5,1.2,1.2,1.2h24.5c0.7,0,1.2-0.6,1.2-1.2v-7.1
					c0-0.1,0-0.3-0.1-0.4C170.3,294.9,169.9,294.5,169.3,294.5"/>
				<path class="st0" d="M201.3,294.5h-15.5V286v-9.4h-10.2v9.4v9.4v7.5c0,0.7,0.5,1.2,1.2,1.2h24.5c0.7,0,1.2-0.6,1.2-1.2v-7.1
					c0-0.1,0-0.3-0.1-0.4C202.3,294.9,201.9,294.5,201.3,294.5"/>
				<path class="st0" d="M297.1,294.5h-18.1V286v-0.3h14.9c0.7,0,1.2-0.5,1.2-1.2v-7.1c0-0.3-0.1-0.6-0.3-0.8h-25.9v9.4v9.4v7.5
					c0,0.7,0.5,1.2,1.2,1.2h27c0.7,0,1.2-0.6,1.2-1.2v-7.1c0-0.1,0-0.3-0.1-0.4C298.1,294.9,297.7,294.5,297.1,294.5"/>
				<path class="st0" d="M413,286l0-4.1c0-0.7-0.5-1.2-1.2-1.2h-13.1c-0.7,0-1.2,0.5-1.2,1.2v4.1v2.3c0,0.7,0.5,1.2,1.2,1.2h4.1v3.8
					c-2,0.8-3.9,1-5.8,1c-5.5,0-10.2-3.5-12-8.3c-0.6-1.4-0.9-3-0.9-4.6c0-1.7,0.3-3.3,0.9-4.8h-11.6c-0.3,1.5-0.5,3.1-0.5,4.8
					c0,1.6,0.2,3.1,0.5,4.6c0.7,3.5,2.2,6.7,4.2,9.4c4.3,5.7,11,9.3,18.7,9.3c9.5,0,16.2-4.2,16.2-4.2c0.3-0.2,0.5-0.5,0.5-1l0-4
					L413,286z"/>
				<path class="st0" d="M747.3,294.5h-18.1V286v-0.3h14.9c0.7,0,1.2-0.5,1.2-1.2v-7.1c0-0.3-0.1-0.6-0.3-0.8h-25.9v9.4v9.4v7.5
					c0,0.7,0.5,1.2,1.2,1.2h27c0.7,0,1.2-0.6,1.2-1.2v-7.1c0-0.1,0-0.3-0.1-0.4C748.3,294.9,747.9,294.5,747.3,294.5"/>
				<path class="st0" d="M818.9,286c-2.2-4.9-7.3-7.3-11.7-9.4h-16.5c2.2,4,6.7,6.4,11.2,8.6c0.5,0.3,1.1,0.5,1.5,0.8
					c3.3,1.8,5.2,3.4,5.2,5.8c0,1.7-1,3-2.6,3.6c-0.6,0.2-1.2,0.3-1.9,0.3c-0.9,0-1.8-0.1-2.6-0.3c-2.9-0.7-5.2-2.3-6.6-3.3
					c-0.7-0.5-1.7-0.5-2.2,0.4l-1.6,2.9l-1.4,2.4c-0.5,0.8-0.3,1.4,0.3,2c1.5,1.5,6.2,5,14.7,5c0,0,0,0,0,0c0,0,0,0,0,0
					c7.6,0,12.8-4.3,14.6-9.4c0.5-1.3,0.7-2.7,0.7-4.1C820,289.2,819.6,287.5,818.9,286"/>
				<path class="st0" d="M454.1,277.7L454.1,277.7l3.9,8.3l1.1,2.5h-9.9l1.1-2.5L454.1,277.7z M472.7,295.4l-4.4-9.4l-4.4-9.4h-19.7
					l-4.4,9.4l-4.4,9.4l-3.3,7c-0.4,0.8,0.1,1.7,1.1,1.7h7.2c1.3,0,2-0.8,2.3-1.6l2.3-5.2H463l2.3,5.1c0.6,1.2,1.1,1.6,2.3,1.6h7.2
					c1,0,1.5-0.8,1.1-1.7L472.7,295.4z"/>
				<path class="st0" d="M609.6,277.7L609.6,277.7l3.9,8.3l1.1,2.5h-9.9l1.1-2.5L609.6,277.7z M628.2,295.4l-4.4-9.4l-4.4-9.4h-19.7
					l-4.4,9.4l-4.4,9.4l-3.3,7c-0.4,0.8,0.1,1.7,1.1,1.7h7.2c1.3,0,2-0.8,2.3-1.6l2.3-5.2h17.7l2.3,5.1c0.6,1.2,1.1,1.6,2.3,1.6h7.2
					c1,0,1.5-0.8,1.1-1.7L628.2,295.4z"/>
				<path class="st0" d="M669.4,295.4l-3.9-4.1c-0.4-0.5-1.2-0.5-1.7-0.1c-2.3,2-5.1,3.1-8.7,3.1c-5.6,0-10.1-3.5-11.9-8.3
					c-0.6-1.5-0.9-3.2-0.9-4.9c0-1.6,0.3-3.1,0.7-4.5h-11.3c-0.3,1.5-0.5,3.1-0.5,4.8c0,1.6,0.2,3.1,0.5,4.6
					c0.7,3.5,2.2,6.7,4.2,9.4c4.3,5.7,11.1,9.4,18.8,9.4c0,0,0,0,0,0c0,0,0,0,0,0c5.8,0,11.4-2,15.8-6.3c0.5-0.5,0.5-1.3,0.1-1.8
					L669.4,295.4z"/>
			</g>
		</g>
		<g class="st2">
			<g>
				<path class="st0" d="M55.2,321.3l2.4,8.5c0.1,0.5,0.6,0.9,1.2,0.9c0,0,0,0,0,0h1c0,0,0,0,0,0c0.5,0,0.9-0.3,1.1-0.7l3.9-8.7
					l4.2-9.4H52.6L55.2,321.3z"/>
				<path class="st0" d="M81,321.3l3.9,8.7c0.2,0.4,0.7,0.7,1.1,0.7c0,0,0,0,0,0h1c0,0,0,0,0,0c0.5,0,1-0.4,1.2-0.9l2.4-8.5l2.6-9.4
					H76.8L81,321.3z"/>
				<path class="st0" d="M134,320.5H116v-8.5h-10.2v9.4v7.5c0,0.7,0.5,1.2,1.2,1.2h27c0.7,0,1.2-0.6,1.2-1.2v-7.1
					c0-0.1,0-0.3-0.1-0.4C135,320.8,134.6,320.5,134,320.5"/>
				<path class="st0" d="M169.3,320.5h-15.5v-8.5h-10.2v9.4v7.5c0,0.7,0.5,1.2,1.2,1.2h24.5c0.7,0,1.2-0.6,1.2-1.2v-7.1
					c0-0.1,0-0.3-0.1-0.4C170.3,320.8,169.9,320.5,169.3,320.5"/>
				<path class="st0" d="M201.3,320.5h-15.5v-8.5h-10.2v9.4v7.5c0,0.7,0.5,1.2,1.2,1.2h24.5c0.7,0,1.2-0.6,1.2-1.2v-7.1
					c0-0.1,0-0.3-0.1-0.4C202.3,320.8,201.9,320.5,201.3,320.5"/>
				<path class="st0" d="M247.7,311.9c1.6,0.8,2.5,2.3,2.5,4.1c0,3.1-1.8,4.7-5.1,4.7h-5.5v-8.8h-10.2v9.4v7.5
					c0,0.7,0.5,1.2,1.2,1.2h16.2c6.4,0,11.8-3.3,13.6-8.7c0.4-1.2,0.6-2.5,0.6-3.8c0-2.2-0.6-4.1-1.5-5.5H247.7z"/>
				<path class="st0" d="M297.1,320.5h-18.1v-8.5h-10.2v9.4v7.5c0,0.7,0.5,1.2,1.2,1.2h27c0.7,0,1.2-0.6,1.2-1.2v-7.1
					c0-0.1,0-0.3-0.1-0.4C298.1,320.8,297.7,320.5,297.1,320.5"/>
				<path class="st0" d="M306.6,321.3v7.5c0,0.7,0.6,1.2,1.2,1.2h7.8c0.7,0,1.2-0.6,1.2-1.2v-7.5v-9.4h-10.3V321.3z"/>
				<path class="st0" d="M353.7,321.3l8.6,8.7c0.5,0.5,1,0.7,1.6,0.7c0,0,0,0,0,0h0.7c0,0,0,0,0,0c0.7,0,1.2-0.4,1.2-1.2v-8.2v-9.4
					h-21.5L353.7,321.3z"/>
				<path class="st0" d="M326.7,321.3l0,7.5c0,0.7,0.6,1.2,1.2,1.2h7.8c0.7,0,1.2-0.6,1.2-1.2v-7.5v-9.4h-10.3L326.7,321.3z"/>
				<path class="st0" d="M413,311.9h-15.5v2.3c0,0.7,0.5,1.2,1.2,1.2h4.1v3.8c-2,0.8-3.9,1-5.8,1c-5.5,0-10.2-3.5-12-8.3h-11.6
					c0.7,3.5,2.2,6.7,4.2,9.4c4.3,5.7,11,9.3,18.7,9.3c9.5,0,16.2-4.2,16.2-4.2c0.3-0.2,0.5-0.5,0.5-1l0-4L413,311.9z"/>
				<path class="st0" d="M480.6,321.3l0,7.5c0,0.7,0.6,1.2,1.2,1.2h7.8c0.7,0,1.2-0.6,1.2-1.2v-7.5v-9.4h-10.3L480.6,321.3z"/>
				<path class="st0" d="M507.6,321.3l8.6,8.7c0.5,0.5,1,0.7,1.6,0.7c0,0,0,0,0,0h0.6c0,0,0,0,0,0c0.7,0,1.2-0.4,1.2-1.2v-8.2v-9.4
					h-21.5L507.6,321.3z"/>
				<path class="st0" d="M546.6,320.4h-6.8v-8.5h-10.2v9.4v7.5c0,0.7,0.5,1.2,1.2,1.2h15.9c7.3,0,13.7-3.4,17.9-8.7
					c2.1-2.7,3.7-5.9,4.4-9.4h-11C556.4,316.9,552.3,320.4,546.6,320.4"/>
				<path class="st0" d="M818.9,311.9h-15.4c3.3,1.8,5.2,3.4,5.2,5.8c0,1.7-1,3-2.6,3.6c-0.6,0.2-1.2,0.3-1.9,0.3
					c-0.9,0-1.8-0.1-2.6-0.3c-2.9-0.7-5.2-2.3-6.6-3.3c-0.7-0.5-1.7-0.5-2.2,0.4l-1.6,2.9l-1.4,2.4c-0.5,0.8-0.3,1.4,0.3,2
					c1.5,1.5,6.2,5,14.7,5c0,0,0,0,0,0c0,0,0,0,0,0c7.6,0,12.8-4.3,14.6-9.4c0.5-1.3,0.7-2.7,0.7-4.1
					C820,315.2,819.6,313.4,818.9,311.9"/>
				<path class="st0" d="M472.7,321.3l-4.4-9.4h-10.4l1.1,2.5h-9.9l1.1-2.5h-10.4l-4.4,9.4l-3.3,7c-0.4,0.8,0.1,1.7,1.1,1.7h7.2
					c1.3,0,2-0.8,2.3-1.6l2.3-5.2H463l2.3,5.1c0.6,1.2,1.1,1.6,2.3,1.6h7.2c1,0,1.5-0.8,1.1-1.7L472.7,321.3z"/>
				<path class="st0" d="M628.2,321.3l-4.4-9.4h-10.4l1.1,2.5h-9.9l1.1-2.5h-10.4l-4.4,9.4l-3.3,7c-0.4,0.8,0.1,1.7,1.1,1.7h7.2
					c1.3,0,2-0.8,2.3-1.6l2.3-5.2h17.7l2.3,5.1c0.6,1.2,1.1,1.6,2.3,1.6h7.2c1,0,1.5-0.8,1.1-1.7L628.2,321.3z"/>
				<path class="st0" d="M711.4,321.3l-3.9-4.1c-0.4-0.5-1.2-0.5-1.7-0.1c-2.3,2-5.1,3.1-8.7,3.1c-5.6,0-10.1-3.5-11.9-8.3h-11.5
					c0.7,3.5,2.2,6.7,4.2,9.4c4.3,5.7,11.1,9.4,18.8,9.4c0,0,0,0,0,0c0,0,0,0,0,0c5.8,0,11.4-2,15.8-6.3c0.5-0.5,0.5-1.3,0.1-1.8
					L711.4,321.3z"/>
			</g>
		</g>
		<g class="st2">
			<g>
				<polyline class="st0" points="86,348 87,348 87,348 86,348 86,348 				"/>
				<polyline class="st0" points="58.7,348 59.8,348 59.8,348 58.7,348 58.7,348 				"/>
				<polyline class="st0" points="364,348 364.6,348 364.6,348 364,348 364,348 				"/>
				<polyline class="st0" points="517.9,348 518.5,348 518.5,348 517.8,348 517.9,348 				"/>
				<polyline class="st0" points="654.7,348 654.8,348 654.7,348 654.7,348 				"/>
				<polyline class="st0" points="696.7,348 696.8,348 696.7,348 696.7,348 				"/>
				<polyline class="st0" points="769.5,348 769.5,348 769.5,348 769.5,348 				"/>
				<polyline class="st0" points="804.6,348 804.6,348 804.6,348 804.6,348 				"/>
				<path class="st0" d="M60.9,347.3l3.9-8.7h-9.6l2.4,8.5c0.1,0.5,0.6,0.9,1.2,0.9h1C60.2,348,60.7,347.7,60.9,347.3"/>
				<path class="st0" d="M143.6,346.1c0,0.7,0.5,1.2,1.2,1.2h24.5c0.7,0,1.2-0.6,1.2-1.2V339c0-0.1,0-0.3-0.1-0.4h-26.9V346.1z"/>
				<path class="st0" d="M175.6,346.1c0,0.7,0.5,1.2,1.2,1.2h24.5c0.7,0,1.2-0.6,1.2-1.2V339c0-0.1,0-0.3-0.1-0.4h-26.9V346.1z"/>
				<path class="st0" d="M229.5,346.1c0,0.7,0.5,1.2,1.2,1.2h16.2c6.4,0,11.8-3.3,13.6-8.7h-31V346.1z"/>
				<path class="st0" d="M268.9,346.1c0,0.7,0.5,1.2,1.2,1.2h27c0.7,0,1.2-0.6,1.2-1.2V339c0-0.1,0-0.3-0.1-0.4h-29.4V346.1z"/>
				<path class="st0" d="M365.9,346.8v-8.2h-12.1l8.6,8.7c0.5,0.5,1,0.7,1.6,0.7h0.7C365.3,348,365.9,347.6,365.9,346.8"/>
				<path class="st0" d="M326.7,346.1c0,0.7,0.6,1.2,1.2,1.2h7.8c0.7,0,1.2-0.6,1.2-1.2v-7.5h-10.2L326.7,346.1z"/>
				<path class="st0" d="M432.3,345.6c-0.4,0.8,0.1,1.7,1.1,1.7h7.2c1.3,0,2-0.8,2.3-1.6l2.3-5.2H463l2.3,5.1
					c0.6,1.2,1.1,1.6,2.3,1.6h7.2c1,0,1.5-0.8,1.1-1.7l-3.3-7h-37.1L432.3,345.6z"/>
				<path class="st0" d="M519.7,346.8v-8.2h-12.1l8.6,8.7c0.5,0.5,1,0.7,1.6,0.7h0.7C519.2,348,519.7,347.6,519.7,346.8"/>
				<path class="st0" d="M480.6,346.1c0,0.7,0.6,1.2,1.2,1.2h7.8c0.7,0,1.2-0.6,1.2-1.2v-7.5h-10.2L480.6,346.1z"/>
				<path class="st0" d="M670.6,339.9l-1.2-1.3h-33.5c4.3,5.7,11.1,9.4,18.8,9.4h0c5.8,0,11.4-2,15.8-6.3
					C671,341.2,671.1,340.4,670.6,339.9"/>
				<path class="st0" d="M719.1,346.1c0,0.7,0.5,1.2,1.2,1.2h27c0.7,0,1.2-0.6,1.2-1.2V339c0-0.1,0-0.3-0.1-0.4h-29.4V346.1z"/>
				<path class="st0" d="M819.3,338.6H806c-0.6,0.2-1.2,0.3-1.9,0.3c-0.9,0-1.8-0.1-2.6-0.3h-10.5l-1.4,2.4c-0.5,0.8-0.3,1.4,0.3,2
					c1.5,1.5,6.2,5,14.7,5h0C812.2,348,817.4,343.7,819.3,338.6"/>
			</g>
		</g>
		<g class="st1">
			<g>
				<path class="st0" d="M158.7,129.3h-8.7c-0.5,0-1,0.4-1.1,0.7l-3.6,8l-4.2,9.4l-2.9,6.4h-0.4l-2.9-6.4l-4.2-9.4l-3.6-8
					c-0.1-0.3-0.6-0.7-1.1-0.7h-8.7c-1,0-1.5,0.8-1.1,1.7l3.3,7l4.4,9.4l4.4,9.4h19.7l4.4-9.4l4.4-9.4l3.3-7
					C160.2,130.2,159.7,129.3,158.7,129.3"/>
				<path class="st0" d="M173.5,129.3h-7.8c-0.7,0-1.2,0.6-1.2,1.2v7.5v9.4v9.4h10.3v-9.4v-9.4v-7.5
					C174.7,129.9,174.1,129.3,173.5,129.3"/>
				<path class="st0" d="M222.4,129.3h-7.8c-0.7,0-1.2,0.6-1.2,1.2v7.5v9.4v6.3h-0.1l-6.5-6.3l-9.8-9.4l-8.7-8.4c-0.5-0.5-1-1-1.6-1
					h-1c-0.7,0-1.2,0.5-1.2,1.2l0,8.2l0,9.4l0,9.4h10.3v-7.4h0.1l7.4,7.4h21.5v-9.4v-9.4v-7.5C223.7,129.9,223.1,129.3,222.4,129.3"
					/>
				<path class="st0" d="M104.7,138.1l-4-8.7c-0.2-0.4-0.7-0.7-1.1-0.7h-0.7c-0.5,0-0.9,0.3-1.1,0.7l-4,8.7l-4.4,9.4l-4.4,9.4h10.4
					l3.8-8.3h0.1l3.8,8.3h10.4l-4.4-9.4L104.7,138.1z"/>
				<path class="st0" d="M265.1,142.1l3.8-4l1.3-1.4c0.5-0.5,0.5-1.3-0.1-1.8c-4.4-3.8-10.4-6.1-15.9-6.1c-7.7,0-14.4,3.7-18.7,9.3
					c-2,2.7-3.5,5.9-4.2,9.4c-0.3,1.5-0.5,3.1-0.5,4.8c0,1.6,0.2,3.1,0.5,4.6h11.6c-0.6-1.4-0.9-3-0.9-4.6c0-1.7,0.3-3.3,0.9-4.8
					c1.9-4.9,6.5-8.4,11.9-8.4c3.2,0,6.1,0.8,8.5,3.1C263.8,142.6,264.6,142.6,265.1,142.1"/>
				<path class="st0" d="M63.1,147.4c-0.1-0.1-0.3-0.1-0.4-0.2c-4.6-2.2-7.1-3.9-7.1-6.1c0-1.3,0.6-2.5,1.9-3.1
					c0.6-0.3,1.3-0.5,2.1-0.5c0.9,0,1.9,0.2,2.8,0.5c2.5,0.8,4.9,2.3,6,3.1c1.3,0.8,2.4,0.3,2.9-0.5l1.7-2.6l1.6-2.4
					c0.3-0.5,0.4-1.6-0.4-2.1c-2-1.4-7.2-4.9-13.9-4.9c-8.2,0-13,4.3-14.5,9.4c-0.4,1.2-0.5,2.4-0.5,3.6c0,2.3,0.5,4.2,1.5,5.8
					c2.2,4,6.7,6.4,11.2,8.6c0.5,0.3,1.1,0.5,1.5,0.8h15.4C72.6,152,67.5,149.6,63.1,147.4"/>
				<path class="st0" d="M269.6,151.5h-13.1c-0.7,0-1.2,0.5-1.2,1.2v4.1h15.5l0-4.1C270.8,152.1,270.3,151.5,269.6,151.5"/>
				<path class="st0" d="M294.7,147.4c-0.1-0.1-0.3-0.1-0.4-0.2c-4.6-2.2-7.1-3.9-7.1-6.1c0-1.3,0.6-2.5,1.9-3.1
					c0.6-0.3,1.3-0.5,2.1-0.5c0.9,0,1.9,0.2,2.8,0.5c2.5,0.8,4.9,2.3,6,3.1c1.3,0.8,2.4,0.3,2.9-0.5l1.7-2.6l1.6-2.4
					c0.3-0.5,0.4-1.6-0.4-2.1c-2-1.4-7.2-4.9-13.9-4.9c-8.2,0-13,4.3-14.5,9.4c-0.4,1.2-0.5,2.4-0.5,3.6c0,2.3,0.5,4.2,1.5,5.8
					c2.2,4,6.7,6.4,11.2,8.6c0.5,0.3,1.1,0.5,1.5,0.8h15.4C304.2,152,299.1,149.6,294.7,147.4"/>
			</g>
		</g>
		<g class="st2">
			<g>
				<path class="st0" d="M60.2,102.8c-8.2,0-13,4.3-14.5,9.4c-0.4,1.2-0.5,2.4-0.5,3.6c0,2.3,0.5,4.2,1.5,5.8h16.5
					c-0.1-0.1-0.3-0.1-0.4-0.2c-4.6-2.2-7.1-3.9-7.1-6.1c0-1.3,0.6-2.5,1.9-3.1c0.6-0.3,1.3-0.5,2.1-0.5c0.9,0,1.9,0.2,2.8,0.5
					c2.5,0.8,4.9,2.3,6,3.1c1.3,0.8,2.4,0.3,2.9-0.5l1.7-2.6l1.6-2.4c0.3-0.5,0.4-1.6-0.4-2.1C72.2,106.2,67,102.8,60.2,102.8"/>
				<path class="st0" d="M100.7,103.5c-0.2-0.4-0.7-0.7-1.1-0.7h-0.7c-0.5,0-0.9,0.3-1.1,0.7l-4,8.7l-4.4,9.4h19.7l-4.4-9.4
					L100.7,103.5z"/>
				<path class="st0" d="M127.1,104.1c-0.1-0.3-0.6-0.7-1.1-0.7h-8.7c-1,0-1.5,0.8-1.1,1.7l3.3,7l4.4,9.4h11.1l-4.2-9.4L127.1,104.1
					z"/>
				<path class="st0" d="M158.7,103.4h-8.7c-0.5,0-1,0.4-1.1,0.7l-3.6,8l-4.2,9.4h11.1l4.4-9.4l3.3-7
					C160.2,104.3,159.7,103.4,158.7,103.4"/>
				<path class="st0" d="M173.5,103.4h-7.8c-0.7,0-1.2,0.6-1.2,1.2v7.5v9.4h10.3v-9.4v-7.5C174.7,104,174.1,103.4,173.5,103.4"/>
				<path class="st0" d="M188.3,103.7c-0.5-0.5-1-1-1.6-1h-1c-0.7,0-1.2,0.5-1.2,1.2l0,8.2l0,9.4h22.3l-9.8-9.4L188.3,103.7z"/>
				<path class="st0" d="M222.4,103.4h-7.8c-0.7,0-1.2,0.6-1.2,1.2v7.5v9.4h10.3v-9.4v-7.5C223.7,104,223.1,103.4,222.4,103.4"/>
				<path class="st0" d="M254.2,102.8c-7.7,0-14.4,3.7-18.7,9.3c-2,2.7-3.5,5.9-4.2,9.4h11.6c1.9-4.9,6.5-8.4,11.9-8.4
					c3.2,0,6.1,0.8,8.5,3.1c0.5,0.4,1.2,0.4,1.8-0.1l3.8-4l1.3-1.4c0.5-0.5,0.5-1.3-0.1-1.8C265.7,105.1,259.7,102.8,254.2,102.8"/>
				<path class="st0" d="M305.8,107.6c-2-1.4-7.2-4.9-13.9-4.9c-8.2,0-13,4.3-14.5,9.4c-0.4,1.2-0.5,2.4-0.5,3.6
					c0,2.3,0.5,4.2,1.5,5.8h16.5c-0.1-0.1-0.3-0.1-0.4-0.2c-4.6-2.2-7.1-3.9-7.1-6.1c0-1.3,0.6-2.5,1.9-3.1c0.6-0.3,1.3-0.5,2.1-0.5
					c0.9,0,1.9,0.2,2.8,0.5c2.5,0.8,4.9,2.3,6,3.1c1.3,0.8,2.4,0.3,2.9-0.5l1.7-2.6l1.6-2.4C306.4,109.3,306.6,108.1,305.8,107.6"/>
			</g>
		</g>
		<g class="st2">
			<g>
				<path class="st0" d="M68.4,94.5c1.3,0.8,2.4,0.3,2.9-0.5l1.7-2.6H62.4C64.9,92.2,67.3,93.7,68.4,94.5 M270.2,90
					c0.5-0.5,0.5-1.3-0.1-1.8c-4.4-3.8-10.4-6.1-15.9-6.1c-7.7,0-14.4,3.7-18.7,9.3h33.4L270.2,90z M223.7,83.9
					c0-0.7-0.6-1.2-1.2-1.2h-7.8c-0.7,0-1.2,0.6-1.2,1.2v7.5h10.3V83.9z M188.3,83c-0.5-0.5-1-1-1.6-1h-1c-0.7,0-1.2,0.5-1.2,1.2
					l0,8.2H197L188.3,83z M159.8,84.4c0.4-0.8-0.1-1.7-1.1-1.7h-8.7c-0.5,0-1,0.4-1.1,0.7l-3.6,8h11.2L159.8,84.4z M127.1,83.4
					c-0.1-0.3-0.6-0.7-1.1-0.7h-8.7c-1,0-1.5,0.8-1.1,1.7l3.3,7h11.2L127.1,83.4z M100.7,82.7c-0.2-0.4-0.7-0.7-1.1-0.7h-0.7
					c-0.5,0-0.9,0.3-1.1,0.7l-4,8.7h10.9L100.7,82.7z M57.5,91.4H45.7c1.5-5.1,6.4-9.4,14.5-9.4c6.8,0,12,3.5,13.9,4.9
					c0.8,0.5,0.7,1.6,0.4,2.1L73,91.4H62.4c-0.9-0.3-1.9-0.5-2.8-0.5C58.7,90.9,58.1,91.1,57.5,91.4"/>
			</g>
		</g>
		<g>
			<path class="st0" d="M5.9,154.2c0.8,0.3,1.6,0.9,1.6,2.1c0,1.5-1.2,2.5-2.8,2.5H1.4c-0.1,0-0.2-0.1-0.2-0.2V150
				c0-0.1,0.1-0.2,0.2-0.2h3c1.5,0,2.7,1,2.7,2.4C7.2,153.1,6.5,153.8,5.9,154.2L5.9,154.2z M4.3,153.5c0.7,0,1.1-0.5,1.1-1.2
				c0-0.6-0.4-1.1-1.1-1.1H2.9v2.3H4.3z M4.5,157.3c0.6,0,1.1-0.5,1.1-1.2c0-0.6-0.5-1.1-1.1-1.1H2.9v2.3H4.5z"/>
			<path class="st0" d="M14.8,150c0-0.1,0.1-0.2,0.2-0.2h5.3c0.1,0,0.2,0.1,0.2,0.2v1.1c0,0.1-0.1,0.2-0.2,0.2h-3.8v2.1h3.2
				c0.1,0,0.2,0.1,0.2,0.2v1.1c0,0.1-0.1,0.2-0.2,0.2h-3.2v2.3h3.8c0.1,0,0.2,0.1,0.2,0.2v1.1c0,0.1-0.1,0.2-0.2,0.2H15
				c-0.1,0-0.2-0.1-0.2-0.2V150z"/>
			<path class="st0" d="M29.7,154.4l-3-4.3c-0.1-0.2,0-0.4,0.2-0.4h1.3c0.1,0,0.2,0.1,0.2,0.1l2.1,3l2.1-3c0-0.1,0.1-0.1,0.2-0.1
				h1.3c0.2,0,0.3,0.2,0.2,0.4l-3,4.3v4.1c0,0.1-0.1,0.2-0.2,0.2H30c-0.1,0-0.2-0.1-0.2-0.2V154.4z"/>
			<path class="st0" d="M44.9,149.6c2.6,0,4.7,2.1,4.7,4.7s-2.1,4.7-4.7,4.7s-4.7-2.1-4.7-4.7S42.3,149.6,44.9,149.6z M44.9,157.3
				c1.6,0,3-1.3,3-3c0-1.6-1.4-3-3-3s-3,1.4-3,3C41.9,155.9,43.2,157.3,44.9,157.3z"/>
			<path class="st0" d="M56.8,149.8c0-0.1,0.1-0.2,0.2-0.2h0.2c0.1,0,0.2,0,0.2,0.1l5.3,5.7h0V150c0-0.1,0.1-0.2,0.2-0.2h1.2
				c0.1,0,0.2,0.1,0.2,0.2v8.7c0,0.1-0.1,0.2-0.2,0.2H64c-0.1,0-0.2,0-0.2-0.1l-5.3-5.9h0v5.6c0,0.1-0.1,0.2-0.2,0.2H57
				c-0.1,0-0.2-0.1-0.2-0.2V149.8z"/>
			<path class="st0" d="M72.3,150c0-0.1,0.1-0.2,0.2-0.2h3.1c2.5,0,4.6,2,4.6,4.5c0,2.5-2.1,4.6-4.6,4.6h-3.1
				c-0.1,0-0.2-0.1-0.2-0.2V150z M75.4,157.2c1.7,0,2.9-1.2,2.9-3c0-1.8-1.2-3-2.9-3h-1.5v5.9H75.4z"/>
		</g>
		<g>
			<path class="st0" d="M1.2,221c0-0.1,0.1-0.2,0.2-0.2h1.2c0.1,0,0.2,0.1,0.2,0.2v8.6c0,0.1-0.1,0.2-0.2,0.2H1.4
				c-0.1,0-0.2-0.1-0.2-0.2V221z"/>
			<path class="st0" d="M12.1,222.3h-2c-0.1,0-0.2-0.1-0.2-0.2V221c0-0.1,0.1-0.2,0.2-0.2h5.7c0.1,0,0.2,0.1,0.2,0.2v1.1
				c0,0.1-0.1,0.2-0.2,0.2h-2v7.3c0,0.1-0.1,0.2-0.2,0.2h-1.2c-0.1,0-0.2-0.1-0.2-0.2V222.3z"/>
			<path class="st0" d="M23.3,220.6c0.6,0,1.1,0.5,1.1,1.5c0,1-0.4,1.5-0.9,2.2c-0.1,0.1-0.2,0.1-0.3,0l-0.3-0.3
				c-0.1-0.1,0-0.2,0-0.3c0.3-0.3,0.6-0.8,0.6-1.2c0-0.1,0-0.2,0-0.2c-0.1,0.1-0.3,0.1-0.4,0.1c-0.5,0-0.8-0.4-0.8-0.9
				C22.3,221,22.7,220.6,23.3,220.6z"/>
			<path class="st0" d="M31.1,229c-0.1-0.1-0.2-0.2-0.1-0.4l0.5-0.8c0.1-0.2,0.3-0.2,0.4-0.1c0.5,0.4,1.1,0.8,2,0.8
				c0.7,0,1.2-0.4,1.2-1c0-0.7-0.6-1.1-1.6-1.6c-1.2-0.5-2.4-1.3-2.4-2.8c0-1.2,0.9-2.5,2.9-2.5c1.3,0,2.3,0.7,2.6,0.9
				c0.1,0.1,0.2,0.3,0.1,0.4l-0.5,0.7c-0.1,0.2-0.3,0.3-0.5,0.2c-0.6-0.4-1.1-0.7-1.8-0.7c-0.7,0-1.1,0.4-1.1,0.9
				c0,0.6,0.5,1,1.5,1.5c1.3,0.5,2.7,1.3,2.7,2.9c0,1.3-1.2,2.6-3,2.6C32.3,230,31.5,229.3,31.1,229z"/>
		</g>
	</g>
</g>
</svg>
