<?xml version="1.0" encoding="utf-8"?>
<!-- Generator: Adobe Illustrator 25.4.1, SVG Export Plug-In . SVG Version: 6.00 Build 0)  -->
<svg version="1.1" id="Capa_1" xmlns="http://www.w3.org/2000/svg" xmlns:xlink="http://www.w3.org/1999/xlink" x="0px" y="0px"
	 viewBox="0 0 820 430" style="enable-background:new 0 0 820 430;" xml:space="preserve">
<style type="text/css">
	.st0{fill:#FFFFFF;}
	.st1{opacity:0.3;}
	.st2{opacity:0.15;}
</style>
<g>
	<g>
		<path class="st0" d="M172.5,223.6h-11.9c-1.1,0-1.8,0.9-1.8,1.8v11.1v14v14v1.4c0,7.1-5.1,11.1-12.1,11.1c-6.9,0-11.9-4-11.9-11.1
			v-1.4v-14v-14v-11.1c0-1-0.8-1.8-1.8-1.8H121c-1,0-1.8,0.9-1.8,1.8v11.1v14v14v2.1c0,4.3,1.1,8.3,3,11.8c4.5,8.4,13.8,14,24.6,14
			c0,0,0,0,0,0s0,0,0,0c10.8,0,20.2-5.5,24.7-14c1.9-3.5,3-7.5,3-11.8v-2.1v-14v-14v-11.1C174.4,224.5,173.5,223.6,172.5,223.6"/>
		<path class="st0" d="M363.7,223.6h-11.6c-1,0-1.8,0.9-1.8,1.8v11.1v14v14v14v11.2c0,1,0.9,1.8,1.8,1.8h11.6c1,0,1.8-0.9,1.8-1.8
			v-11.2v-14v-14v-14v-11.1C365.6,224.5,364.7,223.6,363.7,223.6"/>
		<path class="st0" d="M436.6,223.6h-11.6c-1.1,0-1.8,0.9-1.8,1.8v11.1v14v9.3H423l-9.7-9.3l-14.5-14l-13-12.5
			c-0.8-0.8-1.5-1.5-2.4-1.5h-1.5c-1,0-1.8,0.8-1.8,1.7l0,12.2l0,14l0,14l0,14l0,11.2c0,1,0.9,1.8,1.8,1.8h11.5
			c1.1,0,1.8-0.9,1.8-1.8v-11.2v-14v-11.1h0.1l11,11.1l13.9,14l12.8,12.9c0.8,0.8,1.5,1.1,2.4,1.1c0,0,0,0,0,0h1c0,0,0,0,0,0
			c1,0,1.8-0.6,1.8-1.7v-12.2v-14v-14v-14v-11.1C438.4,224.5,437.5,223.6,436.6,223.6"/>
		<path class="st0" d="M589.3,223.6h-11.6c-1,0-1.8,0.9-1.8,1.8v11.1v14v14v14v11.2c0,1,0.9,1.8,1.8,1.8h11.6c1,0,1.8-0.9,1.8-1.8
			v-11.2v-14v-14v-14v-11.1C591.1,224.5,590.3,223.6,589.3,223.6"/>
		<path class="st0" d="M666.8,223.6h-11.6c-1,0-1.8,0.9-1.8,1.8v11.1v14v14v14v11.2c0,1,0.9,1.8,1.8,1.8h11.6c1,0,1.8-0.9,1.8-1.8
			v-11.2v-14v-14v-14v-11.1C668.6,224.5,667.8,223.6,666.8,223.6"/>
		<path class="st0" d="M721.4,223.6h-43c-1.1,0-1.8,0.9-1.8,1.8V236c0,0.2,0.1,0.4,0.1,0.6c0.2,0.7,0.9,1.3,1.7,1.3h13.9v12.7v14v14
			v11.2c0,1,0.9,1.8,1.8,1.8h11.6c1,0,1.8-0.9,1.8-1.8v-11.2v-14v-14v-12.7h13.9c0.8,0,1.5-0.6,1.7-1.3c0.1-0.2,0.1-0.4,0.1-0.6
			v-10.6C723.2,224.5,722.4,223.6,721.4,223.6"/>
		<path class="st0" d="M784.5,223.6h-12.6c-0.9,0-1.3,0.5-1.6,0.9l-8.2,12.1l-5.3,7.8l-5.3-7.8l-8.2-12.1c-0.3-0.4-0.8-0.9-1.6-0.9
			h-12.6c-1.6,0-2.3,1.6-1.6,2.8l6.7,10.2l9.2,14l5.5,8.2v5.7v14v11.2c0,1,0.8,1.8,1.8,1.8h11.5c1,0,1.8-0.9,1.8-1.8v-11.2v-14v-5.8
			l5.5-8.1l9.4-14l6.8-10.2C786.9,225.1,786.1,223.6,784.5,223.6"/>
		<path class="st0" d="M282.2,236.6c0.1-0.2,0.1-0.4,0.1-0.6v-10.6c0-1-0.8-1.8-1.8-1.8h-43c-1.1,0-1.8,0.9-1.8,1.8V236
			c0,0.2,0.1,0.4,0.1,0.6c0.2,0.7,0.9,1.3,1.7,1.3h13.9v12.7v14v14v11.2c0,1,0.9,1.8,1.8,1.8h11.6c1,0,1.8-0.9,1.8-1.8v-11.2v-14
			v-14v-12.7h13.9C281.3,237.8,281.9,237.3,282.2,236.6"/>
		<path class="st0" d="M90.4,250.5c-0.2-0.1-0.4-0.2-0.6-0.3c-6.8-3.3-10.6-5.8-10.6-9c0-1.9,0.9-3.7,2.8-4.7
			c0.8-0.4,1.9-0.7,3.1-0.7c1.4,0,2.8,0.3,4.1,0.7c3.8,1.1,7.3,3.4,9,4.6c1.9,1.2,3.6,0.4,4.3-0.7l2.6-3.9l2.4-3.6
			c0.4-0.7,0.6-2.4-0.6-3.1c-2.9-2.1-10.7-7.3-20.7-7.3c-12.1,0-19.3,6.4-21.6,14c-0.5,1.7-0.8,3.5-0.8,5.3c0,3.4,0.8,6.2,2.2,8.6
			c3.3,6,10,9.6,16.7,12.8c0.8,0.4,1.6,0.8,2.3,1.2c5,2.6,7.7,5.1,7.7,8.6c0,2.5-1.5,4.5-3.9,5.3c-0.8,0.3-1.8,0.5-2.8,0.5
			c-1.4,0-2.7-0.2-3.9-0.5c-4.3-1-7.8-3.4-9.9-4.8c-1-0.7-2.5-0.7-3.3,0.6l-2.4,4.3l-2,3.6c-0.7,1.3-0.4,2.1,0.4,2.9
			c2.2,2.2,9.2,7.5,21.8,7.5c0,0,0,0,0,0c0,0,0,0,0,0c11.3,0,19-6.4,21.8-14c0.7-2,1.1-4,1.1-6.1c0-3-0.6-5.6-1.6-7.9
			C104.5,257.2,96.8,253.7,90.4,250.5"/>
		<path class="st0" d="M211.4,250.5c-0.2-0.1-0.4-0.2-0.6-0.3c-6.8-3.3-10.6-5.8-10.6-9c0-1.9,0.9-3.7,2.8-4.7
			c0.8-0.4,1.9-0.7,3.1-0.7c1.4,0,2.8,0.3,4.1,0.7c3.8,1.1,7.3,3.4,9,4.6c1.9,1.2,3.6,0.4,4.3-0.7l2.6-3.9l2.4-3.6
			c0.4-0.7,0.6-2.4-0.6-3.1c-2.9-2.1-10.7-7.3-20.7-7.3c-12.1,0-19.3,6.4-21.6,14c-0.5,1.7-0.8,3.5-0.8,5.3c0,3.4,0.8,6.2,2.2,8.6
			c3.3,6,10,9.6,16.7,12.8c0.8,0.4,1.6,0.8,2.3,1.2c5,2.6,7.7,5.1,7.7,8.6c0,2.5-1.5,4.5-3.9,5.3c-0.8,0.3-1.8,0.5-2.8,0.5
			c-1.4,0-2.7-0.2-3.9-0.5c-4.3-1-7.8-3.4-9.9-4.8c-1-0.7-2.5-0.7-3.3,0.6l-2.4,4.3l-2,3.6c-0.7,1.3-0.4,2.1,0.4,2.9
			c2.2,2.2,9.2,7.5,21.8,7.5c0,0,0,0,0,0c0,0,0,0,0,0c11.3,0,19-6.4,21.8-14c0.7-2,1.1-4,1.1-6.1c0-3-0.6-5.6-1.6-7.9
			C225.5,257.2,217.8,253.7,211.4,250.5"/>
		<path class="st0" d="M532.3,263.7h8.4c1.4,0,2.6,0.3,3.6,0.8c2.4,1.1,3.7,3.4,3.7,6.1c0,4.6-2.7,7-7.6,7h-8.2v-13.1V263.7z
			 M532.3,237.5h8c3.7,0,6.3,2.7,6.3,6.6c0,2.9-1.4,5.3-3.7,6.4c-0.8,0.4-1.7,0.6-2.6,0.6h-8v-0.6V237.5z M551.4,256.9L551.4,256.9
			c3-1.3,6-3.5,8.1-6.4c1.8-2.4,2.9-5.4,2.9-8.9c0-1.8-0.3-3.4-0.8-5c-2.5-7.6-10.6-13-20-13H519c-1.1,0-1.8,0.9-1.8,1.8v11.1v14v14
			v14v11.2c0,1,0.8,1.8,1.8,1.8h24c9.5,0,17.6-4.9,20.2-13c0.6-1.8,0.9-3.7,0.9-5.7c0-3.3-0.9-6-2.3-8.2
			C559.4,260.5,555.2,258.2,551.4,256.9"/>
		<path class="st0" d="M644,277.2h-23.1v-12.7v-14v-14v-11.1c0-1-0.9-1.8-1.8-1.8h-11.5c-1.1,0-1.8,0.9-1.8,1.8v11.1v14v14v14v11.2
			c0,1,0.8,1.8,1.8,1.8H644c1.1,0,1.8-0.9,1.8-1.8V279c0-0.2-0.1-0.4-0.1-0.6C645.5,277.8,644.8,277.2,644,277.2"/>
		<path class="st0" d="M310.8,252.2L310.8,252.2l5.8,12.3l1.7,3.7h-14.7l1.7-3.7L310.8,252.2z M338.5,278.5l-6.5-14l-6.5-14l-6.5-14
			l-6-12.9c-0.3-0.6-1-1.1-1.6-1.1h-1c-0.7,0-1.4,0.5-1.6,1.1l-6,12.9l-6.5,14l-6.5,14l-6.5,14l-4.9,10.5c-0.6,1.3,0.2,2.5,1.6,2.5
			h10.7c1.9,0,3-1.2,3.5-2.3l3.5-7.8h26.4l3.5,7.7c0.9,1.8,1.6,2.4,3.4,2.4h10.8c1.5,0,2.2-1.3,1.6-2.5L338.5,278.5z"/>
		<path class="st0" d="M477.7,252.2L477.7,252.2l5.8,12.3l1.7,3.7h-14.7l1.7-3.7L477.7,252.2z M505.4,278.5l-6.5-14l-6.5-14l-6.5-14
			l-6-12.9c-0.3-0.6-1-1.1-1.6-1.1h-1c-0.7,0-1.4,0.5-1.6,1.1l-6,12.9l-6.5,14l-6.5,14l-6.5,14l-4.9,10.5c-0.6,1.3,0.2,2.5,1.6,2.5
			h10.7c1.9,0,3-1.2,3.5-2.3l3.5-7.8H491l3.5,7.7c0.9,1.8,1.6,2.4,3.4,2.4h10.8c1.5,0,2.2-1.3,1.6-2.5L505.4,278.5z"/>
		<path class="st0" d="M387.2,142.5h-11.6c-1,0-1.8,0.9-1.8,1.8v11.1v14v14v14v11.2c0,1,0.9,1.8,1.8,1.8h11.6c1,0,1.8-0.9,1.8-1.8
			v-11.2v-14v-14v-14v-11.1C389.1,143.4,388.2,142.5,387.2,142.5"/>
		<path class="st0" d="M441.8,142.5h-43c-1.1,0-1.8,0.9-1.8,1.8v10.6c0,0.2,0.1,0.4,0.1,0.6c0.2,0.7,0.9,1.3,1.7,1.3h13.9v12.7v14
			v14v11.2c0,1,0.9,1.8,1.8,1.8h11.6c1,0,1.8-0.9,1.8-1.8v-11.2v-14v-14v-12.7h13.9c0.8,0,1.5-0.6,1.7-1.3c0.1-0.2,0.1-0.4,0.1-0.6
			v-10.6C443.6,143.4,442.8,142.5,441.8,142.5"/>
		<path class="st0" d="M574.9,142.5h-40.1c-1.1,0-1.8,0.9-1.8,1.8v11.1v14v14v14v11.2c0,1,0.8,1.8,1.8,1.8h40.1
			c1.1,0,1.8-0.9,1.8-1.8V198c0-0.2-0.1-0.4-0.1-0.6c-0.2-0.7-0.9-1.3-1.7-1.3H548v-12.7V183h22.1c1,0,1.8-0.8,1.8-1.8v-10.6
			c0-0.4-0.2-0.8-0.5-1.2c-0.3-0.4-0.8-0.7-1.4-0.7H548v-12h26.9c0.8,0,1.5-0.6,1.7-1.3c0.1-0.2,0.1-0.4,0.1-0.6v-10.6
			C576.7,143.4,576,142.5,574.9,142.5"/>
		<path class="st0" d="M645.4,142.5h-11.6c-1.1,0-1.8,0.9-1.8,1.8v11.1v14v9.3h-0.1l-9.7-9.3l-14.5-14l-13-12.5
			c-0.8-0.8-1.5-1.5-2.4-1.5h-1.5c-1,0-1.8,0.8-1.8,1.7l0,12.2l0,14l0,14l0,14l0,11.2c0,1,0.9,1.8,1.8,1.8h11.5
			c1.1,0,1.8-0.9,1.8-1.8v-11.2v-14v-11.1h0.1l11,11.1l13.9,14l12.8,12.9c0.8,0.8,1.5,1.1,2.4,1.1c0,0,0,0,0,0h1c0,0,0,0,0,0
			c1,0,1.8-0.6,1.8-1.7v-12.2v-14v-14v-14v-11.1C647.2,143.4,646.3,142.5,645.4,142.5"/>
		<path class="st0" d="M700.1,142.5h-43c-1.1,0-1.8,0.9-1.8,1.8v10.6c0,0.2,0.1,0.4,0.1,0.6c0.2,0.7,0.9,1.3,1.7,1.3h13.9v12.7v14
			v14v11.2c0,1,0.9,1.8,1.8,1.8h11.6c1,0,1.8-0.9,1.8-1.8v-11.2v-14v-14v-12.7h13.9c0.8,0,1.5-0.6,1.7-1.3c0.1-0.2,0.1-0.4,0.1-0.6
			v-10.6C701.9,143.4,701.1,142.5,700.1,142.5"/>
		<path class="st0" d="M99.2,156.2c4.8,0,9.1,1.5,13.1,4.9c0.7,0.7,1.7,0.7,2.4,0l5.4-5.6l2.1-2.2c0.8-0.8,0.8-1.9-0.1-2.7
			c-6.6-6-13.8-9-23.5-9c-11.5,0-21.6,5.5-28,14c-3.1,4.1-5.3,8.8-6.3,14c-0.5,2.3-0.7,4.7-0.7,7.1c0,2.4,0.2,4.7,0.7,6.9
			c1,5.2,3.2,9.9,6.3,14c6.4,8.5,16.5,14,28,14c0,0,0,0,0,0c0,0,0,0,0,0c8.6,0,17-3,23.5-9.4c0.7-0.7,0.8-1.9,0.1-2.6l-1.8-1.9
			l-5.7-6.1c-0.6-0.7-1.8-0.7-2.5-0.1c-3.5,3-7.7,4.7-13,4.7c-8.3,0-15-5.2-17.8-12.4c-0.8-2.3-1.3-4.7-1.3-7.3
			c0-2.3,0.4-4.6,1.1-6.7C83.8,161.8,90.6,156.2,99.2,156.2"/>
		<path class="st0" d="M161.4,195.8c-8.1,0-15.2-5.2-18-12.4c-0.8-2.1-1.3-4.5-1.3-6.9c0-2.5,0.5-4.9,1.4-7.1
			c2.8-7.2,9.8-12.4,17.9-12.4c8.2,0,15.2,5.2,18,12.4c0.9,2.2,1.4,4.6,1.4,7.1c0,2.4-0.5,4.7-1.3,6.9
			C176.6,190.6,169.6,195.8,161.4,195.8 M189.3,155.5c-6.3-8.5-16.4-14-27.9-14c-11.5,0-21.5,5.5-27.8,14c-3,4.1-5.2,8.8-6.3,14
			c-0.5,2.3-0.7,4.7-0.7,7.1c0,2.4,0.2,4.7,0.7,6.9c1,5.2,3.2,9.9,6.2,14c6.3,8.5,16.4,14,27.9,14c0,0,0,0,0,0s0,0,0,0
			c11.5,0,21.6-5.5,28-14c3-4.1,5.2-8.8,6.2-14c0.4-2.2,0.7-4.5,0.7-6.9c0-2.4-0.2-4.8-0.7-7.1C194.5,164.3,192.3,159.6,189.3,155.5
			"/>
		<path class="st0" d="M274.8,183.4l-2.3-14l-2.3-14l-2.1-12.4c-0.1-0.9-1-1.6-1.7-1.6h-1.6c-0.5,0-1.4,0.4-1.6,1l-7,13l-7.5,14
			l-7.5,14l-0.5,1h-0.2l-0.5-1l-7.5-14l-7.5-14l-7-13c-0.3-0.6-1.2-1-1.6-1h-1.6c-0.8,0-1.6,0.7-1.7,1.6l-2.1,12.4l-2.3,14l-2.3,14
			l-2.3,14l-1.8,10.9c-0.2,1.3,0.7,2.1,1.8,2.1h11.4c1,0,1.7-0.8,1.8-1.6l1.6-11.4l2-14l0.6-4.6h0.2l2.4,4.6l7.3,14l6.7,12.9
			c0.3,0.6,1.1,1.1,1.6,1.1c0,0,0,0,0,0h1.7c0,0,0,0,0,0c0.5,0,1.4-0.5,1.6-1.1l6.7-12.9l7.2-14l2.4-4.6h0.2l0.7,4.6l2,14l1.7,11.4
			c0.1,0.8,1,1.6,1.8,1.6h11.4c1.2,0,2-0.9,1.8-2.1l-1.8-10.9L274.8,183.4z"/>
		<path class="st0" d="M358.9,183.4l-2.3-14l-2.3-14l-2.1-12.4c-0.1-0.9-1-1.6-1.7-1.6h-1.6c-0.5,0-1.4,0.4-1.6,1l-7,13l-7.5,14
			l-7.5,14l-0.5,1h-0.2l-0.5-1l-7.5-14l-7.5-14l-7-13c-0.3-0.6-1.2-1-1.6-1h-1.6c-0.8,0-1.6,0.7-1.7,1.6l-2.1,12.4l-2.3,14l-2.3,14
			l-2.3,14l-1.8,10.9c-0.2,1.3,0.7,2.1,1.8,2.1h11.4c1,0,1.7-0.8,1.8-1.6l1.6-11.4l2-14l0.6-4.6h0.2l2.4,4.6l7.3,14l6.7,12.9
			c0.3,0.6,1.1,1.1,1.6,1.1c0,0,0,0,0,0h1.7c0,0,0,0,0,0c0.5,0,1.4-0.5,1.6-1.1l6.7-12.9l7.2-14l2.4-4.6h0.2l0.7,4.6l2,14l1.7,11.4
			c0.1,0.8,1,1.6,1.8,1.6h11.4c1.2,0,2-0.9,1.8-2.1l-1.8-10.9L358.9,183.4z"/>
		<path class="st0" d="M518.1,183.4l-2.3-14l-2.3-14l-2.1-12.4c-0.1-0.9-1-1.6-1.7-1.6H508c-0.5,0-1.4,0.4-1.6,1l-7,13l-7.5,14
			l-7.5,14l-0.5,1h-0.2l-0.5-1l-7.5-14l-7.5-14l-7-13c-0.3-0.6-1.2-1-1.6-1H458c-0.8,0-1.6,0.7-1.7,1.6l-2.1,12.4l-2.3,14l-2.3,14
			l-2.3,14l-1.8,10.9c-0.2,1.3,0.7,2.1,1.8,2.1h11.4c1,0,1.7-0.8,1.8-1.6l1.6-11.4l2-14l0.6-4.6h0.2l2.4,4.6l7.3,14l6.7,12.9
			c0.3,0.6,1.1,1.1,1.6,1.1c0,0,0,0,0,0h1.7c0,0,0,0,0,0c0.5,0,1.4-0.5,1.6-1.1l6.7-12.9l7.2-14l2.4-4.6h0.2l0.7,4.6l2,14l1.7,11.4
			c0.1,0.8,1,1.6,1.8,1.6h11.4c1.2,0,2-0.9,1.8-2.1l-1.8-10.9L518.1,183.4z"/>
		<g class="st1">
			<g>
				<path class="st0" d="M90.4,306.7H65.8c3.3,6,10,9.6,16.7,12.8c0.8,0.4,1.6,0.8,2.3,1.2c5,2.6,7.7,5.1,7.7,8.6
					c0,2.5-1.5,4.5-3.9,5.3c-0.8,0.3-1.8,0.5-2.8,0.5c-1.4,0-2.7-0.2-3.9-0.5c-4.3-1-7.8-3.4-9.9-4.8c-1-0.7-2.5-0.7-3.3,0.6
					l-2.4,4.3l-2,3.6c-0.7,1.3-0.4,2.1,0.4,2.9c2.2,2.2,9.2,7.5,21.8,7.5c0,0,0,0,0,0c0,0,0,0,0,0c11.3,0,19-6.4,21.8-14
					c0.7-2,1.1-4,1.1-6.1c0-3-0.6-5.6-1.6-7.9C104.5,313.4,96.8,309.8,90.4,306.7"/>
				<path class="st0" d="M158.8,320.6v1.4c0,7.1-5.1,11.1-12.1,11.1c-6.9,0-11.9-4-11.9-11.1v-1.4v-14h-15.6v14v2.1
					c0,4.3,1.1,8.3,3,11.8c4.5,8.4,13.8,14,24.6,14c0,0,0,0,0,0c0,0,0,0,0,0c10.8,0,20.2-5.5,24.7-14c1.9-3.5,3-7.5,3-11.8v-2.1v-14
					h-15.6V320.6z"/>
				<path class="st0" d="M211.4,306.7h-24.5c3.3,6,10,9.6,16.7,12.8c0.8,0.4,1.6,0.8,2.3,1.2c5,2.6,7.7,5.1,7.7,8.6
					c0,2.5-1.5,4.5-3.9,5.3c-0.8,0.3-1.8,0.5-2.8,0.5c-1.4,0-2.7-0.2-3.9-0.5c-4.3-1-7.8-3.4-9.9-4.8c-1-0.7-2.5-0.7-3.3,0.6
					l-2.4,4.3l-2,3.6c-0.7,1.3-0.4,2.1,0.4,2.9c2.2,2.2,9.2,7.5,21.8,7.5c0,0,0,0,0,0c0,0,0,0,0,0c11.3,0,19-6.4,21.8-14
					c0.7-2,1.1-4,1.1-6.1c0-3-0.6-5.6-1.6-7.9C225.5,313.4,217.8,309.8,211.4,306.7"/>
				<path class="st0" d="M350.3,320.6v14v11.2c0,1,0.9,1.8,1.8,1.8h11.6c1,0,1.8-0.9,1.8-1.8v-11.2v-14v-14h-15.3V320.6z"/>
				<path class="st0" d="M423.1,316L423.1,316l-9.8-9.3h-33.2l0,14l0,14l0,11.2c0,1,0.9,1.8,1.8,1.8h11.5c1.1,0,1.8-0.9,1.8-1.8
					v-11.2v-14v-11.1h0.1l11,11.1l13.9,14l12.8,12.9c0.8,0.8,1.5,1.1,2.4,1.1c0,0,0,0,0,0h1c0,0,0,0,0,0c1,0,1.8-0.6,1.8-1.7v-12.2
					v-14v-14h-15.3V316z"/>
				<path class="st0" d="M532.3,319.8h8.4c1.4,0,2.6,0.3,3.6,0.8c2.4,1.1,3.7,3.4,3.7,6.1c0,4.6-2.7,7-7.6,7h-8.2v-13.1V319.8z
					 M551.4,313.1L551.4,313.1c3-1.3,6-3.5,8.1-6.4h-16.6c-0.8,0.4-1.7,0.6-2.6,0.6h-8v-0.6h-15.1v14v14v11.2c0,1,0.8,1.8,1.8,1.8
					h24c9.5,0,17.6-4.9,20.2-13c0.6-1.8,0.9-3.7,0.9-5.7c0-3.3-0.9-6-2.3-8.2C559.4,316.6,555.2,314.3,551.4,313.1"/>
				<path class="st0" d="M653.3,320.6v14v11.2c0,1,0.9,1.8,1.8,1.8h11.6c1,0,1.8-0.9,1.8-1.8v-11.2v-14v-14h-15.3V320.6z"/>
				<path class="st0" d="M310.8,308.3L310.8,308.3l5.8,12.3l1.7,3.7h-14.7l1.7-3.7L310.8,308.3z M338.5,334.6l-6.5-14l-6.5-14h-29.2
					l-6.5,14l-6.5,14l-4.9,10.5c-0.6,1.3,0.2,2.5,1.6,2.5h10.7c1.9,0,3-1.2,3.5-2.3l3.5-7.8h26.4l3.5,7.7c0.9,1.8,1.6,2.4,3.4,2.4
					h10.8c1.5,0,2.2-1.3,1.6-2.5L338.5,334.6z"/>
			</g>
		</g>
		<g class="st2">
			<g>
				<path class="st0" d="M84.8,359.2c5,2.6,7.7,5.1,7.7,8.6c0,2.5-1.5,4.5-3.9,5.3c-0.8,0.3-1.8,0.5-2.8,0.5c-1.4,0-2.7-0.2-3.9-0.5
					c-4.3-1-7.8-3.4-9.9-4.8c-1-0.7-2.5-0.7-3.3,0.6l-2.4,4.3l-2,3.6c-0.7,1.3-0.4,2.1,0.4,2.9c2.2,2.2,9.2,7.5,21.8,7.5
					c0,0,0,0,0,0c0,0,0,0,0,0c11.3,0,19-6.4,21.8-14c0.7-2,1.1-4,1.1-6.1c0-3-0.6-5.6-1.6-7.9H84.8z"/>
				<path class="st0" d="M158.8,360.5c0,7.1-5.1,11.1-12.1,11.1c-6.9,0-11.9-4-11.9-11.1v-1.4h-15.6v2.1c0,4.3,1.1,8.3,3,11.8
					c4.5,8.4,13.8,14,24.6,14c0,0,0,0,0,0c0,0,0,0,0,0c10.8,0,20.2-5.5,24.7-14c1.9-3.5,3-7.5,3-11.8v-2.1h-15.6V360.5z"/>
				<path class="st0" d="M205.8,359.2c5,2.6,7.7,5.1,7.7,8.6c0,2.5-1.5,4.5-3.9,5.3c-0.8,0.3-1.8,0.5-2.8,0.5
					c-1.4,0-2.7-0.2-3.9-0.5c-4.3-1-7.8-3.4-9.9-4.8c-1-0.7-2.5-0.7-3.3,0.6l-2.4,4.3l-2,3.6c-0.7,1.3-0.4,2.1,0.4,2.9
					c2.2,2.2,9.2,7.5,21.8,7.5c0,0,0,0,0,0c0,0,0,0,0,0c11.3,0,19-6.4,21.8-14c0.7-2,1.1-4,1.1-6.1c0-3-0.6-5.6-1.6-7.9H205.8z"/>
				<path class="st0" d="M420.4,373.2l12.8,12.9c0.8,0.8,1.5,1.1,2.4,1.1c0,0,0,0,0,0h1c0,0,0,0,0,0c1,0,1.8-0.6,1.8-1.7v-12.2v-14
					h-32L420.4,373.2z"/>
				<path class="st0" d="M575.8,373.2v11.1c0,1,0.9,1.8,1.8,1.8h11.6c1,0,1.8-0.9,1.8-1.8v-11.1v-14h-15.3V373.2z"/>
				<path class="st0" d="M644,371.9h-23.1v-12.7h-15.2v14v11.2c0,1,0.8,1.8,1.8,1.8H644c1.1,0,1.8-0.9,1.8-1.8v-10.6
					c0-0.2-0.1-0.4-0.1-0.6C645.5,372.4,644.8,371.9,644,371.9"/>
				<path class="st0" d="M692.2,373.2v11.1c0,1,0.9,1.8,1.8,1.8h11.6c1,0,1.8-0.9,1.8-1.8v-11.1v-14h-15.3V373.2z"/>
				<path class="st0" d="M749.1,359.2v14v11.1c0,1,0.8,1.8,1.8,1.8h11.5c1,0,1.8-0.9,1.8-1.8v-11.1v-14H749.1z"/>
				<path class="st0" d="M338.5,373.2l-6.5-14h-15.4l1.7,3.7h-14.7l1.7-3.7h-15.4l-6.5,14l-4.9,10.5c-0.6,1.3,0.2,2.5,1.6,2.5h10.7
					c1.9,0,3-1.2,3.5-2.3l3.5-7.8h26.4l3.5,7.7c0.9,1.8,1.6,2.4,3.4,2.4h10.8c1.5,0,2.2-1.3,1.6-2.5L338.5,373.2z"/>
			</g>
		</g>
		<path class="st0" d="M86.5,412.8C86.5,412.8,86.5,412.8,86.5,412.8L86.5,412.8C86.5,412.8,86.5,412.8,86.5,412.8"/>
		<g class="st2">
			<g>
				<path class="st0" d="M146.7,412.8C146.7,412.8,146.7,412.8,146.7,412.8L146.7,412.8C146.7,412.8,146.7,412.8,146.7,412.8"/>
				<path class="st0" d="M207.5,412.8C207.5,412.8,207.5,412.8,207.5,412.8L207.5,412.8C207.5,412.8,207.5,412.8,207.5,412.8"/>
				<polyline class="st0" points="435.6,412.8 436.6,412.8 436.6,412.8 435.6,412.8 435.6,412.8 				"/>
				<path class="st0" d="M171.4,398.9h-49.3c4.5,8.4,13.8,14,24.6,14h0C157.5,412.8,166.8,407.3,171.4,398.9"/>
				<path class="st0" d="M251.3,410c0,1,0.9,1.8,1.8,1.8h11.6c1,0,1.8-0.9,1.8-1.8v-11.2h-15.3V410z"/>
				<path class="st0" d="M278.4,409.4c-0.6,1.3,0.2,2.5,1.6,2.5h10.7c1.9,0,3-1.2,3.5-2.3l3.5-7.8h26.4l3.5,7.7
					c0.9,1.8,1.6,2.4,3.4,2.4h10.8c1.5,0,2.2-1.3,1.6-2.5l-4.9-10.5h-55.2L278.4,409.4z"/>
				<path class="st0" d="M380.1,410c0,1,0.9,1.8,1.8,1.8h11.5c1.1,0,1.8-0.9,1.8-1.8v-11.2h-15.2L380.1,410z"/>
				<path class="st0" d="M445.3,409.4c-0.6,1.3,0.2,2.5,1.6,2.5h10.7c1.9,0,3-1.2,3.5-2.3l3.5-7.8H491l3.5,7.7
					c0.9,1.8,1.6,2.4,3.4,2.4h10.8c1.5,0,2.2-1.3,1.6-2.5l-4.9-10.5h-55.2L445.3,409.4z"/>
				<path class="st0" d="M605.7,410c0,1,0.8,1.8,1.8,1.8H644c1.1,0,1.8-0.9,1.8-1.8v-10.6c0-0.2-0.1-0.4-0.1-0.6h-40V410z"/>
				<path class="st0" d="M653.3,410c0,1,0.9,1.8,1.8,1.8h11.6c1,0,1.8-0.9,1.8-1.8v-11.2h-15.3V410z"/>
				<path class="st0" d="M749.1,410c0,1,0.8,1.8,1.8,1.8h11.5c1,0,1.8-0.9,1.8-1.8v-11.2h-15.2V410z"/>
			</g>
		</g>
		<g class="st1">
			<g>
				<path class="st0" d="M387.2,87.6h-11.6c-1,0-1.8,0.9-1.8,1.8v11.1v14v14h15.3v-14v-14V89.4C389.1,88.4,388.2,87.6,387.2,87.6"/>
				<path class="st0" d="M441.8,87.6h-43c-1.1,0-1.8,0.9-1.8,1.8V100c0,0.2,0.1,0.4,0.1,0.6c0.2,0.7,0.9,1.3,1.7,1.3h13.9v12.7v14
					h15.3v-14v-12.7h13.9c0.8,0,1.5-0.6,1.7-1.3c0.1-0.2,0.1-0.4,0.1-0.6V89.4C443.6,88.4,442.8,87.6,441.8,87.6"/>
				<path class="st0" d="M645.4,87.6h-11.6c-1.1,0-1.8,0.9-1.8,1.8v11.1v14v9.3h-0.1l-9.7-9.3l-14.5-14l-13-12.5
					c-0.8-0.8-1.5-1.5-2.4-1.5h-1.5c-1,0-1.8,0.8-1.8,1.7l0,12.2l0,14l0,14h15.3v-11.1h0.1l11,11.1h32v-14v-14V89.4
					C647.2,88.4,646.3,87.6,645.4,87.6"/>
				<path class="st0" d="M700.1,87.6h-43c-1.1,0-1.8,0.9-1.8,1.8V100c0,0.2,0.1,0.4,0.1,0.6c0.2,0.7,0.9,1.3,1.7,1.3h13.9v12.7v14
					h15.3v-14v-12.7h13.9c0.8,0,1.5-0.6,1.7-1.3c0.1-0.2,0.1-0.4,0.1-0.6V89.4C701.9,88.4,701.1,87.6,700.1,87.6"/>
				<path class="st0" d="M189.3,100.5c-6.3-8.5-16.4-14-27.9-14c-11.5,0-21.5,5.5-27.8,14c-3,4.1-5.2,8.8-6.3,14
					c-0.5,2.3-0.7,4.7-0.7,7.1c0,2.4,0.2,4.7,0.7,6.9h16.1c-0.8-2.1-1.3-4.5-1.3-6.9c0-2.5,0.5-4.9,1.4-7.1
					c2.8-7.2,9.8-12.4,17.9-12.4c8.2,0,15.2,5.2,18,12.4c0.9,2.2,1.4,4.6,1.4,7.1c0,2.4-0.5,4.7-1.3,6.9h16.1
					c0.4-2.2,0.7-4.5,0.7-6.9c0-2.4-0.2-4.8-0.7-7.1C194.5,109.3,192.3,104.6,189.3,100.5"/>
				<path class="st0" d="M224.9,100.5l-7-13c-0.3-0.6-1.2-1-1.6-1h-1.6c-0.8,0-1.6,0.7-1.7,1.6l-2.1,12.4l-2.3,14l-2.3,14h14.6
					l0.6-4.6h0.2l2.4,4.6h15.9l-7.5-14L224.9,100.5z"/>
				<path class="st0" d="M270.1,100.5L268,88.1c-0.1-0.9-1-1.6-1.7-1.6h-1.6c-0.5,0-1.4,0.4-1.6,1l-7,13l-7.5,14l-7.5,14h15.8
					l2.4-4.6h0.2l0.7,4.6h14.6l-2.3-14L270.1,100.5z"/>
				<path class="st0" d="M309,100.5l-7-13c-0.3-0.6-1.2-1-1.6-1h-1.6c-0.8,0-1.6,0.7-1.7,1.6l-2.1,12.4l-2.3,14l-2.3,14h14.6
					l0.6-4.6h0.2l2.4,4.6H324l-7.5-14L309,100.5z"/>
				<path class="st0" d="M354.2,100.5l-2.1-12.4c-0.1-0.9-1-1.6-1.7-1.6h-1.6c-0.5,0-1.4,0.4-1.6,1l-7,13l-7.5,14l-7.5,14H341
					l2.4-4.6h0.2l0.7,4.6h14.6l-2.3-14L354.2,100.5z"/>
				<path class="st0" d="M513.4,100.5l-2.1-12.4c-0.1-0.9-1-1.6-1.7-1.6H508c-0.5,0-1.4,0.4-1.6,1l-7,13l-7.5,14l-7.5,14h15.8
					l2.4-4.6h0.2l0.7,4.6h14.6l-2.3-14L513.4,100.5z"/>
				<path class="st0" d="M468.1,100.5l-7-13c-0.3-0.6-1.2-1-1.6-1H458c-0.8,0-1.6,0.7-1.7,1.6l-2.1,12.4l-2.3,14l-2.3,14H464
					l0.6-4.6h0.2l2.4,4.6h15.9l-7.5-14L468.1,100.5z"/>
			</g>
		</g>
		<g class="st2">
			<g>
				<path class="st0" d="M98.7,48c-11.5,0-21.6,5.5-28,14c-3.1,4.1-5.3,8.8-6.3,14h16.9c2.5-7.7,9.3-13.3,17.9-13.3
					c4.8,0,9.1,1.5,13.1,4.9c0.7,0.7,1.7,0.7,2.4,0l5.4-5.6l2.1-2.2c0.8-0.8,0.8-1.9-0.1-2.7C115.5,51,108.4,48,98.7,48"/>
				<path class="st0" d="M161.4,48c-11.5,0-21.5,5.5-27.8,14c-3,4.1-5.2,8.8-6.3,14h16.2c2.8-7.2,9.8-12.4,17.9-12.4
					c8.2,0,15.2,5.2,18,12.4h16.2c-1-5.2-3.3-9.9-6.3-14C182.9,53.5,172.8,48,161.4,48"/>
				<path class="st0" d="M217.9,49c-0.3-0.6-1.2-1-1.6-1h-1.6c-0.8,0-1.6,0.7-1.7,1.6L210.9,62l-2.3,14h23.9l-7.5-14L217.9,49z"/>
				<path class="st0" d="M352.1,49.6c-0.1-0.9-1-1.6-1.7-1.6h-1.6c-0.5,0-1.4,0.4-1.6,1l-7,13l-7.5,14h23.9l-2.3-14L352.1,49.6z"/>
				<path class="st0" d="M302,49c-0.3-0.6-1.2-1-1.6-1h-1.6c-0.8,0-1.6,0.7-1.7,1.6L294.9,62l-2.3,14h23.9L309,62L302,49z"/>
				<path class="st0" d="M387.2,49h-11.6c-1,0-1.8,0.9-1.8,1.8V62v14h15.3V62V50.8C389.1,49.9,388.2,49,387.2,49"/>
				<path class="st0" d="M441.8,49h-43c-1.1,0-1.8,0.9-1.8,1.8v10.6c0,0.2,0.1,0.4,0.1,0.6c0.2,0.7,0.9,1.3,1.7,1.3h13.9v12.7h15.3
					V63.2h13.9c0.8,0,1.5-0.6,1.7-1.3c0.1-0.2,0.1-0.4,0.1-0.6V50.8C443.6,49.9,442.8,49,441.8,49"/>
				<path class="st0" d="M511.3,49.6c-0.1-0.9-1-1.6-1.7-1.6H508c-0.5,0-1.4,0.4-1.6,1l-7,13l-7.5,14h23.9l-2.3-14L511.3,49.6z"/>
				<path class="st0" d="M574.9,49h-40.1c-1.1,0-1.8,0.9-1.8,1.8V62v14h38.6c-0.3-0.4-0.8-0.7-1.4-0.7H548v-12h26.9
					c0.8,0,1.5-0.6,1.7-1.3c0.1-0.2,0.1-0.4,0.1-0.6V50.8C576.7,49.9,576,49,574.9,49"/>
				<path class="st0" d="M645.4,49h-11.6c-1.1,0-1.8,0.9-1.8,1.8V62v14h15.3V62V50.8C647.2,49.9,646.3,49,645.4,49"/>
				<path class="st0" d="M700.1,49h-43c-1.1,0-1.8,0.9-1.8,1.8v10.6c0,0.2,0.1,0.4,0.1,0.6c0.2,0.7,0.9,1.3,1.7,1.3h13.9v12.7h15.3
					V63.2h13.9c0.8,0,1.5-0.6,1.7-1.3c0.1-0.2,0.1-0.4,0.1-0.6V50.8C701.9,49.9,701.1,49,700.1,49"/>
			</g>
		</g>
		<g class="st2">
			<g>
				<path class="st0" d="M594.6,18.6c-0.8-0.8-1.5-1.5-2.4-1.5h-1.5c-1,0-1.8,0.8-1.8,1.7l0,12.2h18.7L594.6,18.6z M647.2,20
					c0-1-0.9-1.8-1.8-1.8h-11.6c-1.1,0-1.8,0.9-1.8,1.8v11.1h15.3V20z M576.7,30.5V20c0-1-0.8-1.8-1.8-1.8h-40.1
					c-1.1,0-1.8,0.9-1.8,1.8v11.1h43.7C576.7,30.9,576.7,30.7,576.7,30.5 M511.3,18.7c-0.1-0.9-1-1.6-1.7-1.6H508
					c-0.5,0-1.4,0.4-1.6,1l-7,13h14L511.3,18.7z M389.1,20c0-1-0.9-1.8-1.8-1.8h-11.6c-1,0-1.8,0.9-1.8,1.8v11.1h15.3V20z M302,18.1
					c-0.3-0.6-1.2-1-1.6-1h-1.6c-0.8,0-1.6,0.7-1.7,1.6l-2.1,12.4h14L302,18.1z M352.1,18.7c-0.1-0.9-1-1.6-1.7-1.6h-1.6
					c-0.5,0-1.4,0.4-1.6,1l-7,13h14L352.1,18.7z M217.9,18.1c-0.3-0.6-1.2-1-1.6-1h-1.6c-0.8,0-1.6,0.7-1.7,1.6l-2.1,12.4h14
					L217.9,18.1z M120.1,31.1H70.7c6.4-8.5,16.5-14,28-14c9.7,0,16.9,3,23.5,9c0.9,0.8,0.9,1.9,0.1,2.7L120.1,31.1z"/>
			</g>
		</g>
	</g>
	<g>
		<path class="st0" d="M6.8,120.9c0-0.1,0.1-0.2,0.3-0.2h0.3c0.1,0,0.2,0.1,0.3,0.2l3.5,7.6c0,0,0,0,0,0l3.5-7.6
			c0-0.1,0.1-0.2,0.3-0.2h0.3c0.2,0,0.3,0.1,0.3,0.2l1.9,10.8c0,0.2-0.1,0.4-0.3,0.4h-1.5c-0.1,0-0.3-0.1-0.3-0.2l-0.9-6.1
			c0,0,0,0,0,0l-2.8,6.3c0,0.1-0.1,0.2-0.3,0.2H11c-0.1,0-0.2-0.1-0.3-0.2l-2.8-6.3c0,0,0,0,0,0l-0.9,6.1c0,0.1-0.1,0.2-0.3,0.2H5.2
			c-0.2,0-0.3-0.1-0.3-0.4L6.8,120.9z"/>
		<path class="st0" d="M28.3,120.7c3.2,0,5.8,2.6,5.8,5.8c0,3.2-2.6,5.7-5.8,5.7s-5.7-2.5-5.7-5.7C22.5,123.3,25.1,120.7,28.3,120.7
			z M28.3,130.1c2,0,3.7-1.6,3.7-3.7c0-2-1.7-3.7-3.7-3.7c-2,0-3.7,1.7-3.7,3.7C24.6,128.5,26.3,130.1,28.3,130.1z"/>
		<path class="st0" d="M39.9,121.1c0-0.2,0.1-0.3,0.3-0.3h4.6c1.9,0,3.5,1.5,3.5,3.4c0,1.5-1,2.7-2.4,3.2l2.2,4.1
			c0.1,0.2,0,0.5-0.3,0.5h-1.7c-0.1,0-0.2-0.1-0.3-0.1l-2.1-4.2h-1.8v4.1c0,0.2-0.1,0.3-0.3,0.3h-1.5c-0.2,0-0.3-0.1-0.3-0.3V121.1z
			 M44.6,125.9c0.8,0,1.6-0.7,1.6-1.6c0-0.8-0.7-1.6-1.6-1.6H42v3.2H44.6z"/>
		<path class="st0" d="M54.2,121.1c0-0.2,0.1-0.3,0.3-0.3H61c0.2,0,0.3,0.1,0.3,0.3v1.3c0,0.2-0.1,0.3-0.3,0.3h-4.7v2.6h4
			c0.2,0,0.3,0.1,0.3,0.3v1.3c0,0.2-0.1,0.3-0.3,0.3h-4v2.8H61c0.2,0,0.3,0.1,0.3,0.3v1.3c0,0.2-0.1,0.3-0.3,0.3h-6.5
			c-0.2,0-0.3-0.1-0.3-0.3V121.1z"/>
		<path class="st0" d="M75.5,122.8h-2.4c-0.2,0-0.3-0.1-0.3-0.3v-1.3c0-0.2,0.1-0.3,0.3-0.3h7c0.2,0,0.3,0.1,0.3,0.3v1.3
			c0,0.2-0.1,0.3-0.3,0.3h-2.4v9c0,0.2-0.1,0.3-0.3,0.3h-1.5c-0.2,0-0.3-0.1-0.3-0.3V122.8z"/>
		<path class="st0" d="M85.9,121.1c0-0.2,0.1-0.3,0.3-0.3h1.5c0.2,0,0.3,0.1,0.3,0.3v4.2h5.2v-4.2c0-0.2,0.1-0.3,0.3-0.3H95
			c0.2,0,0.3,0.1,0.3,0.3v10.6c0,0.2-0.1,0.3-0.3,0.3h-1.5c-0.2,0-0.3-0.1-0.3-0.3v-4.4H88v4.4c0,0.2-0.1,0.3-0.3,0.3h-1.5
			c-0.2,0-0.3-0.1-0.3-0.3V121.1z"/>
		<path class="st0" d="M100.5,131.6l5-10.8c0-0.1,0.1-0.2,0.3-0.2h0.2c0.2,0,0.2,0.1,0.3,0.2l4.9,10.8c0.1,0.2,0,0.4-0.3,0.4h-1.4
			c-0.2,0-0.4-0.1-0.5-0.3l-0.8-1.7h-4.8l-0.8,1.7c-0.1,0.2-0.2,0.3-0.5,0.3h-1.4C100.5,132,100.4,131.8,100.5,131.6z M107.4,128.2
			l-1.6-3.5h0l-1.6,3.5H107.4z"/>
		<path class="st0" d="M116.2,121c0-0.2,0.1-0.3,0.3-0.3h0.2c0.1,0,0.2,0,0.3,0.1l6.5,7h0v-6.6c0-0.2,0.1-0.3,0.3-0.3h1.5
			c0.2,0,0.3,0.1,0.3,0.3v10.8c0,0.2-0.1,0.3-0.3,0.3h-0.2c-0.1,0-0.2,0-0.3-0.1l-6.6-7.2h0v6.9c0,0.2-0.1,0.3-0.3,0.3h-1.5
			c-0.2,0-0.3-0.1-0.3-0.3V121z"/>
	</g>
	<g>
		<path class="st0" d="M11.1,221.4c0-0.2,0.1-0.3,0.3-0.3h1.5c0.2,0,0.3,0.1,0.3,0.3V232c0,0.2-0.1,0.3-0.3,0.3h-1.5
			c-0.2,0-0.3-0.1-0.3-0.3V221.4z"/>
		<path class="st0" d="M21.4,223H19c-0.2,0-0.3-0.1-0.3-0.3v-1.3c0-0.2,0.1-0.3,0.3-0.3h7c0.2,0,0.3,0.1,0.3,0.3v1.3
			c0,0.2-0.1,0.3-0.3,0.3h-2.4v9c0,0.2-0.1,0.3-0.3,0.3h-1.5c-0.2,0-0.3-0.1-0.3-0.3V223z"/>
		<path class="st0" d="M32.1,220.9c0.8,0,1.4,0.6,1.4,1.8c0,1.2-0.5,1.9-1.1,2.7c-0.1,0.1-0.2,0.1-0.3,0l-0.4-0.3
			c-0.1-0.1,0-0.2,0-0.4c0.4-0.4,0.7-1,0.7-1.5c0-0.1,0-0.2,0-0.3c-0.1,0.1-0.3,0.2-0.5,0.2c-0.6,0-0.9-0.5-0.9-1.1
			C30.9,221.4,31.4,220.9,32.1,220.9z"/>
		<path class="st0" d="M39.1,221.4c0-0.2,0.1-0.3,0.3-0.3h1.5c0.2,0,0.3,0.1,0.3,0.3V232c0,0.2-0.1,0.3-0.3,0.3h-1.5
			c-0.2,0-0.3-0.1-0.3-0.3V221.4z"/>
		<path class="st0" d="M47.2,231.2c-0.2-0.1-0.2-0.2-0.1-0.5l0.6-1c0.1-0.2,0.4-0.2,0.5-0.1c0.7,0.5,1.4,1,2.4,1
			c0.8,0,1.5-0.5,1.5-1.2c0-0.8-0.7-1.4-2-1.9c-1.5-0.6-3-1.6-3-3.5c0-1.4,1.1-3.1,3.6-3.1c1.6,0,2.9,0.8,3.2,1.1
			c0.2,0.1,0.2,0.4,0.1,0.5l-0.6,0.9c-0.1,0.2-0.4,0.3-0.6,0.2c-0.7-0.4-1.3-0.9-2.2-0.9c-0.9,0-1.4,0.5-1.4,1.1
			c0,0.8,0.6,1.3,1.9,1.8c1.6,0.6,3.3,1.6,3.3,3.6c0,1.6-1.4,3.2-3.7,3.2C48.7,232.4,47.6,231.6,47.2,231.2z"/>
	</g>
</g>
</svg>
