<svg id="Capa_1" data-name="Capa 1" xmlns="http://www.w3.org/2000/svg" viewBox="0 0 65.23 65.23"><defs><style>.cls-1{fill:#1a3668;}.cls-2{fill:#fff;}</style></defs><rect class="cls-1" width="65.23" height="65.23"/><path class="cls-2" d="M47,42a7.33,7.33,0,0,0-7.06-7.32,7.33,7.33,0,0,0-13.82,0,7.32,7.32,0,0,0-4.23,13.1,7.22,7.22,0,0,0-.29,2,7.33,7.33,0,0,0,11.47,6,7.25,7.25,0,0,0,4.06,1.23,7.32,7.32,0,0,0,7-9.32A7.3,7.3,0,0,0,47,42m-8.11-4.88a5.87,5.87,0,0,1-5,5.78,6.56,6.56,0,0,1-.07-.9,5.86,5.86,0,0,1,5-5.78,6.55,6.55,0,0,1,.08.9M33,53.93A5.84,5.84,0,0,1,33,45.59,5.84,5.84,0,0,1,33,53.93m-5.8-17.74a5.86,5.86,0,0,1,5,5.78,5.29,5.29,0,0,1-.07.9,5.86,5.86,0,0,1-5-5.78,5.29,5.29,0,0,1,.08-.9m4.36,8.4a5.81,5.81,0,0,1-7.92,2.57,5.84,5.84,0,0,1,7.92-2.57m2.8,0a5.94,5.94,0,0,1,2.71-.67,5.86,5.86,0,0,1,5.25,3.28,5.83,5.83,0,0,1-8-2.61M33,31.24a5.88,5.88,0,0,1,5.37,3.51A7.37,7.37,0,0,0,33,38.87a7.35,7.35,0,0,0-5.36-4.12A5.85,5.85,0,0,1,33,31.24M20.51,42a5.87,5.87,0,0,1,5.22-5.82,7.31,7.31,0,0,0,2.34,6.35,7.36,7.36,0,0,0-5.62,3.81A5.83,5.83,0,0,1,20.51,42m2.54,7.81a6.06,6.06,0,0,1,.12-1.21,7.34,7.34,0,0,0,6.73-.18,7.25,7.25,0,0,0,1.94,6.44,5.76,5.76,0,0,1-2.94.81,5.86,5.86,0,0,1-5.85-5.86m19.91,0a5.87,5.87,0,0,1-5.86,5.85,5.74,5.74,0,0,1-2.88-.77,7.32,7.32,0,0,0,2-5,7.23,7.23,0,0,0-.14-1.4,7.22,7.22,0,0,0,3.55.92,7.3,7.3,0,0,0,3.2-.73A5.59,5.59,0,0,1,43,49.74m-5-7.28a7.32,7.32,0,0,0,2.29-6.31,5.85,5.85,0,0,1,3.3,10.15A7.32,7.32,0,0,0,38,42.46"/><polygon class="cls-2" points="9.76 5.47 9.76 18.62 7.55 18.62 7.55 8.55 7.53 8.55 5.98 10.16 5.96 10.16 5.96 7.85 8 5.47 9.76 5.47"/><polygon class="cls-2" points="10.77 5.47 16.32 5.47 16.32 7.5 13.43 18.62 11.24 18.62 14.19 7.27 10.77 7.27 10.77 5.47"/><path class="cls-2" d="M22.31,11.93,23.36,6.4h1.06l1,5.53h-1l-.17-1h-1l-.17,1Zm1.17-1.76h.74L23.85,8h0Z"/><polygon class="cls-2" points="25.85 6.4 26.78 6.4 26.78 11.17 27.89 11.17 27.89 11.93 25.85 11.93 25.85 6.4"/><rect class="cls-2" x="28.31" y="6.4" width="0.93" height="5.53"/><path class="cls-2" d="M29.63,11.93l1-5.53h1.06l1.06,5.53h-1l-.17-1h-1l-.16,1Zm1.17-1.76h.74L31.17,8h0Z"/><polygon class="cls-2" points="33.95 8.45 33.95 11.93 33.17 11.93 33.17 6.4 34.08 6.4 35.08 9.57 35.08 6.4 35.86 6.4 35.86 11.93 35.04 11.93 33.95 8.45"/><polygon class="cls-2" points="37.29 11.17 38.7 11.17 38.7 11.93 36.32 11.93 36.32 11.17 37.78 7.16 36.47 7.16 36.47 6.4 38.76 6.4 38.76 7.16 37.29 11.17"/><path class="cls-2" d="M39.06,11.93l1-5.53h1.06l1.05,5.53h-1l-.17-1h-1l-.16,1Zm1.17-1.76H41L40.6,8h0Z"/><path class="cls-2" d="M42.47,10.74V10h.86v.76c0,.31.14.49.46.49s.42-.19.42-.49v-.21a1,1,0,0,0-.42-.78l-.54-.55a1.87,1.87,0,0,1-.78-1.47V7.55a1.16,1.16,0,0,1,1.31-1.22c.93,0,1.29.46,1.29,1.26V8h-.84V7.56c0-.32-.15-.48-.44-.48a.41.41,0,0,0-.44.46v.11c0,.31.17.49.44.75l.59.59a1.85,1.85,0,0,1,.75,1.44v.27A1.2,1.2,0,0,1,43.78,12a1.15,1.15,0,0,1-1.31-1.25"/><path class="cls-2" d="M46.47,6.4h1.38c.94,0,1.28.46,1.28,1.24V8.8c0,.78-.34,1.25-1.28,1.25H47.4v1.88h-.93Zm.93.76V9.33h.35a.39.39,0,0,0,.45-.45V7.6c0-.3-.14-.44-.45-.44Z"/><path class="cls-2" d="M49.14,11.93l1-5.53h1.06l1.06,5.53h-1l-.17-1h-1l-.16,1Zm1.17-1.76h.74L50.68,8h0Z"/><path class="cls-2" d="M53.61,9.39v2.54h-.93V6.4H54c.94,0,1.28.46,1.28,1.24v.71c0,.59-.21.94-.74,1.06l.89,2.52h-1Zm0-2.23V8.88h.31a.4.4,0,0,0,.45-.46V7.6a.39.39,0,0,0-.45-.44Z"/><path class="cls-2" d="M55.67,11.93l1-5.53h1.06l1,5.53h-1l-.17-1h-1l-.16,1Zm1.16-1.76h.75L57.21,8h0Z"/><polygon class="cls-2" points="22.46 13.73 23.39 13.73 23.39 18.5 24.5 18.5 24.5 19.26 22.46 19.26 22.46 13.73"/><path class="cls-2" d="M24.88,17.83V15.16a1.41,1.41,0,1,1,2.81,0v2.67a1.41,1.41,0,1,1-2.81,0m1.88.15V15c0-.33-.14-.57-.48-.57s-.47.24-.47.57v3c0,.34.15.57.47.57s.48-.23.48-.57"/><path class="cls-2" d="M29.62,16.31h1.32v3h-.66v-.6a.85.85,0,0,1-.89.67c-.8,0-1.17-.64-1.17-1.5V15.16a1.31,1.31,0,0,1,1.4-1.49c1,0,1.32.57,1.32,1.38v.49H30.1V15c0-.34-.13-.54-.47-.54s-.48.24-.48.57v3c0,.34.14.57.46.57s.45-.17.45-.53V17h-.44Z"/><path class="cls-2" d="M32.4,16.73v2.53h-.93V13.73h1.36c.93,0,1.28.47,1.28,1.24v.71c0,.6-.22.95-.75,1.07l.89,2.51h-1Zm0-2.24v1.72h.31a.4.4,0,0,0,.46-.46v-.81c0-.3-.14-.45-.46-.45Z"/><path class="cls-2" d="M34.46,19.26l1-5.53h1.06l1,5.53h-1l-.17-1h-1l-.17,1Zm1.17-1.75h.74L36,15.29h0Z"/><path class="cls-2" d="M38.93,16.73v2.53H38V13.73h1.35c.94,0,1.28.47,1.28,1.24v.71c0,.6-.21.95-.74,1.07l.89,2.51h-1Zm0-2.24v1.72h.31a.4.4,0,0,0,.46-.46v-.81c0-.3-.14-.45-.46-.45Z"/><polygon class="cls-2" points="22.46 21.07 23.39 21.07 23.39 25.84 24.5 25.84 24.5 26.6 22.46 26.6 22.46 21.07"/><path class="cls-2" d="M24.88,25.17V22.49a1.41,1.41,0,1,1,2.81,0v2.68a1.41,1.41,0,1,1-2.81,0m1.88.15v-3c0-.34-.14-.57-.48-.57s-.47.23-.47.57v3c0,.33.15.57.47.57s.48-.24.48-.57"/><path class="cls-2" d="M28.17,25.41v-.75H29v.76c0,.31.14.49.45.49s.43-.19.43-.49v-.21a1,1,0,0,0-.42-.78L29,23.88a1.86,1.86,0,0,1-.77-1.48v-.18A1.15,1.15,0,0,1,29.48,21c.93,0,1.3.46,1.3,1.26v.45h-.85v-.48c0-.32-.14-.48-.44-.48a.41.41,0,0,0-.44.46v.11c0,.31.17.49.44.75l.6.59a1.86,1.86,0,0,1,.75,1.44v.26a1.2,1.2,0,0,1-1.36,1.3,1.15,1.15,0,0,1-1.31-1.25"/><path class="cls-2" d="M32.18,25.17V22.49a1.41,1.41,0,1,1,2.81,0v2.68a1.41,1.41,0,1,1-2.81,0m1.89.15v-3c0-.34-.15-.57-.49-.57s-.47.23-.47.57v3c0,.33.15.57.47.57s.49-.24.49-.57"/><path class="cls-2" d="M35.52,21.07h1.35c.93,0,1.24.43,1.24,1.21v.56a.82.82,0,0,1-.56.89.83.83,0,0,1,.7.92v.73c0,.78-.35,1.22-1.28,1.22H35.52Zm.93,2.33h.33a.39.39,0,0,0,.44-.45v-.68c0-.3-.14-.44-.45-.44h-.32Zm0,.71v1.73h.41a.4.4,0,0,0,.46-.45v-.83c0-.3-.14-.45-.47-.45Z"/><path class="cls-2" d="M41.18,21.07v4.27a1.15,1.15,0,0,1-1.28,1.32c-1,0-1.22-.53-1.22-1.23v-1.1h.88v1.12c0,.27.1.44.34.44s.35-.17.35-.45V21.07Z"/><polygon class="cls-2" points="41.7 21.07 43.92 21.07 43.92 21.83 42.63 21.83 42.63 23.41 43.55 23.41 43.55 24.16 42.63 24.16 42.63 25.84 43.92 25.84 43.92 26.6 41.7 26.6 41.7 21.07"/><polygon class="cls-2" points="44.31 21.07 46.78 21.07 46.78 21.83 46.01 21.83 46.01 26.6 45.07 26.6 45.07 21.83 44.31 21.83 44.31 21.07"/><rect class="cls-2" x="47.21" y="21.07" width="0.93" height="5.53"/><polygon class="cls-2" points="51.65 21.07 50.6 26.6 49.59 26.6 48.54 21.07 49.48 21.07 50.12 24.92 50.13 24.92 50.78 21.07 51.65 21.07"/><path class="cls-2" d="M51.87,25.17V22.49a1.41,1.41,0,1,1,2.81,0v2.68a1.41,1.41,0,1,1-2.81,0m1.88.15v-3c0-.34-.14-.57-.48-.57s-.47.23-.47.57v3c0,.33.15.57.47.57s.48-.24.48-.57"/><path class="cls-2" d="M55.16,25.41v-.75H56v.76c0,.31.13.49.45.49s.43-.19.43-.49v-.21a1,1,0,0,0-.42-.78l-.55-.55a1.86,1.86,0,0,1-.77-1.48v-.18A1.15,1.15,0,0,1,56.47,21c.93,0,1.3.46,1.3,1.26v.45h-.85v-.48c0-.32-.14-.48-.44-.48a.41.41,0,0,0-.44.46v.11c0,.31.17.49.44.75l.6.59a1.86,1.86,0,0,1,.75,1.44v.26a1.2,1.2,0,0,1-1.36,1.3,1.15,1.15,0,0,1-1.31-1.25"/></svg>