<?xml version="1.0" encoding="utf-8"?>
<!-- Generator: Adobe Illustrator 25.4.1, SVG Export Plug-In . SVG Version: 6.00 Build 0)  -->
<svg version="1.1" id="Capa_1" xmlns="http://www.w3.org/2000/svg" xmlns:xlink="http://www.w3.org/1999/xlink" x="0px" y="0px"
	 viewBox="0 0 65.2 65.2" style="enable-background:new 0 0 65.2 65.2;" xml:space="preserve">
<style type="text/css">
	.st0{fill:#1A3668;}
	.st1{fill:#FFFFFF;}
</style>
<rect class="st0" width="65.2" height="65.2"/>
<g>
	<path class="st1" d="M41.1,31c2,0.1,3.8,0.8,5.3,2.1c1.2,1,2,2.3,2.5,3.8c0.3,0.8,0.4,1.7,0.4,2.6c0,0.9-0.1,1.7-0.4,2.6
		c-0.3,0.8-0.6,1.6-1.1,2.3c-0.5,0.7-1.1,1.3-1.8,1.9c0.5,2,0.4,3.9-0.4,5.8c-0.6,1.4-1.6,2.6-2.9,3.5c-1.4,1-3,1.5-4.8,1.5
		c-1.8,0-3.4-0.5-4.8-1.4c-0.1,0-0.1,0.1-0.2,0.1c-1.3,0.8-2.7,1.3-4.2,1.4c-4.2,0.2-8-2.7-8.8-6.9c-0.2-1.3-0.2-2.6,0.1-3.8
		c0-0.2,0-0.2-0.1-0.3c-1.6-1.3-2.6-2.9-3-4.9c-0.5-3,0.2-5.6,2.4-7.7c1.3-1.3,2.9-2.1,4.8-2.4c0.2,0,0.5-0.1,0.7-0.1
		c0.2,0,0.2-0.1,0.3-0.2c0.3-0.9,0.8-1.8,1.5-2.5c1.3-1.6,3-2.6,5.1-2.9c4-0.7,7.9,1.5,9.4,5.4C41,30.9,41,31,41.1,31z M39.3,31.2
		c-0.8-2-3.1-4.2-6.4-4.1c-3.3,0.1-5.5,2.4-6.1,4.1c0.2,0.1,0.5,0.1,0.7,0.2c0.2,0.1,0.5,0.1,0.7,0.2c0.2,0.1,0.5,0.2,0.7,0.3
		c0.2,0.1,0.4,0.2,0.7,0.3c0.2,0.1,0.4,0.3,0.6,0.4c0.2,0.1,0.4,0.3,0.6,0.4c0.2,0.2,0.4,0.3,0.5,0.5c0.2,0.2,0.3,0.4,0.5,0.5
		c0.2,0.2,0.3,0.4,0.5,0.6c0.1,0.2,0.3,0.4,0.4,0.6c0.1,0.2,0.2,0.4,0.4,0.7C34.3,33.3,36.4,31.8,39.3,31.2z M27.2,40.2
		c-2.1-2-3-4.5-2.7-7.4c-0.7-0.1-2.2,0.5-3.1,1.1c-1.3,0.9-2.3,2.2-2.7,3.7c-0.9,2.9,0.4,5.7,2,6.9C22.2,42.1,24.3,40.6,27.2,40.2z
		 M29.4,47.1c-2.6,1.3-5.2,1.4-7.8,0.2c-0.5,2.1,0.1,5.2,2.9,7.1c2.5,1.7,5.5,1.3,7.2,0.2c-0.9-1-1.6-2.1-2-3.4
		C29.2,49.8,29.2,48.5,29.4,47.1z M45.4,44.6c0.1-0.1,0.2-0.2,0.3-0.3c1.6-1.7,2.3-3.8,1.8-6.1c-0.5-2.8-2.9-5-5.7-5.4
		c-0.1,0-0.1,0-0.2,0c0.2,1.4,0,2.7-0.4,4c-0.5,1.3-1.2,2.4-2.2,3.4c1.4,0.2,2.7,0.7,3.8,1.4C43.8,42.4,44.7,43.4,45.4,44.6z
		 M34.4,54.6c2.3,1.4,5.6,1.3,7.9-0.8c1.2-1.1,1.9-2.4,2.2-3.9c0.2-0.8,0.1-1.7,0-2.5c-2.7,1.2-5.3,1.1-7.9-0.2
		C37.1,49.9,36.4,52.4,34.4,54.6z M43.9,45.6c-1-1.9-2.4-3.1-4.5-3.6c-1.9-0.5-3.8,0-4.8,0.6C36.4,46.2,40.8,47.4,43.9,45.6z
		 M33,53.5c2.8-2.7,2.6-7.3-0.1-9.7C30.3,46.3,30.2,50.9,33,53.5z M22.1,45.7c3.3,1.8,7.6,0.4,9.2-3C28.4,40.9,23.9,42,22.1,45.7z
		 M32,40.6c0.2-1,0.1-2.4-0.4-3.6c-0.6-1.4-1.5-2.5-2.8-3.3c-0.8-0.5-1.6-0.8-2.5-0.9C25.6,36.3,28.2,40.2,32,40.6z M34,40.6
		c3.9-0.5,6.4-4.4,5.7-7.8C36.2,33.2,33.3,36.9,34,40.6z"/>
	<path class="st1" d="M12.8,7.4c-0.2,0-0.5,0-0.7,0c-0.2,0-0.4,0-0.7,0c-0.2,0-0.4,0-0.7,0c-0.2,0-0.4,0-0.7,0c-0.2,0-0.4,0-0.7,0
		c0-0.6,0-1.2,0-1.8c1.9,0,3.8,0,5.7,0c0,0.1,0,0.1,0,0.2c0,0,0,0.1,0,0.1c0.1,1-0.1,1.9-0.4,2.8c-0.7,3-1.5,6.1-2.2,9.1
		c0,0.1,0,0.1-0.1,0.2c-0.8,0-1.5,0-2.3,0C11.1,14.5,12,11,12.8,7.4z"/>
	<path class="st1" d="M3.9,7c0.3-0.1,0.5-0.2,0.8-0.4c0.5-0.3,1-0.5,1.5-0.9c0,0,0.1-0.1,0.2-0.1c0.6,0,1.1,0,1.7,0c0,0,0,0,0,0
		C8,5.8,8,17.8,8,18c-0.8,0-1.5,0-2.3,0c0-1.7,0-3.3,0-5c0-1.6,0-3.3,0-5C5,8.3,4.5,8.5,3.9,8.7C3.8,8.5,3.8,7.3,3.9,7z"/>
	<path class="st1" d="M37.4,5.6c0,0,0.1,0,0.1,0c0.4,0,0.9,0,1.3,0c0.1,0,0.2,0,0.4,0.1c0.4,0.1,0.7,0.4,0.8,0.8c0,0.2,0,0.5,0,0.7
		c0,0.3-0.2,0.6-0.5,0.8c0.2,0.8,0.4,1.5,0.7,2.3c-0.3,0-0.6,0-0.9,0c-0.2-0.7-0.4-1.4-0.6-2.1c-0.1,0-0.3,0-0.4,0
		c0,0.7,0,1.4,0,2.1c-0.3,0-0.6,0-0.8,0C37.4,10.2,37.4,5.9,37.4,5.6z M38.3,7.6c0.2,0,0.4,0,0.5,0c0.2,0,0.3-0.2,0.3-0.3
		c0.1-0.3,0.1-0.5,0-0.8c0-0.1-0.1-0.2-0.2-0.3c-0.2-0.1-0.4-0.1-0.6,0C38.3,6.7,38.3,7.1,38.3,7.6z"/>
	<path class="st1" d="M27.1,18.1c-0.3,0-0.6,0-0.8,0c0-0.2-0.1-4.5,0-4.7c0,0,0.1,0,0.1,0c0.4,0,0.8,0,1.2,0c0.2,0,0.4,0.1,0.6,0.1
		c0.3,0.1,0.5,0.4,0.6,0.7c0.1,0.3,0.1,0.6,0,0.9c-0.1,0.3-0.2,0.5-0.5,0.6c0.2,0.8,0.4,1.5,0.6,2.3c-0.3,0-0.6,0-0.9,0
		c-0.2-0.7-0.4-1.4-0.6-2.1c-0.1,0-0.2,0-0.4,0c0,0.2,0,0.5,0,0.7c0,0.2,0,0.5,0,0.7C27.1,17.6,27.1,17.9,27.1,18.1z M27.1,13.9
		c0,0.5,0,1,0,1.5c0.2,0,0.4,0,0.6,0c0.2-0.1,0.3-0.2,0.3-0.3c0.1-0.2,0.1-0.5,0-0.7c0-0.2-0.2-0.3-0.3-0.3
		C27.5,14,27.3,14,27.1,13.9z"/>
	<path class="st1" d="M32.9,13.4c0.3,0,0.5,0,0.8,0c0,0.2,0,0.4,0,0.6c0,0.2,0,0.4,0,0.7c0,0.2,0,0.4,0,0.7c0.3,0,0.6,0,1,0
		c0-0.7,0-1.3,0-2c0.3,0,0.6,0,0.8,0c0,0.2,0.1,4.5,0,4.7c-0.3,0-0.5,0-0.8,0c0-0.7,0-1.4,0-2.1c-0.3,0-0.6,0-1,0c0,0.7,0,1.4,0,2.1
		c-0.3,0-0.6,0-0.8,0C32.9,16.5,32.9,15,32.9,13.4z"/>
	<path class="st1" d="M25.7,15.7c0,0.3,0,0.6,0,1c0,0.2,0,0.5-0.1,0.7c-0.1,0.4-0.4,0.7-0.8,0.8c-0.3,0.1-0.6,0.1-1,0
		c-0.3-0.1-0.5-0.3-0.7-0.6c-0.1-0.2-0.2-0.5-0.2-0.7c0-0.7,0-1.4,0-2.2c0-0.2,0-0.4,0.1-0.6c0.1-0.4,0.4-0.6,0.8-0.7
		c0.3-0.1,0.7-0.1,1,0c0.3,0.1,0.6,0.3,0.7,0.6c0.1,0.2,0.2,0.5,0.2,0.7C25.7,15.1,25.7,15.4,25.7,15.7
		C25.7,15.7,25.7,15.7,25.7,15.7z M24.9,15.8c0-0.4,0-0.7,0-1.1c0-0.1,0-0.3,0-0.4c-0.1-0.2-0.2-0.3-0.5-0.3c-0.2,0-0.4,0.1-0.4,0.3
		c0,0.1,0,0.2,0,0.4c0,0.7,0,1.5,0,2.2c0,0.1,0,0.2,0,0.4c0.1,0.2,0.2,0.3,0.4,0.3c0.2,0,0.4-0.1,0.5-0.3c0-0.1,0-0.3,0-0.4
		C24.9,16.5,24.9,16.1,24.9,15.8z"/>
	<path class="st1" d="M45.5,15.8c0,0.4,0,0.8,0,1.1c0,0.2-0.1,0.4-0.1,0.6c-0.1,0.4-0.4,0.6-0.8,0.7c-0.3,0.1-0.7,0.1-1,0
		c-0.3-0.1-0.6-0.3-0.7-0.6c-0.1-0.3-0.2-0.5-0.2-0.8c0-0.6,0-1.3,0-1.9c0-0.2,0-0.4,0.1-0.6c0.1-0.4,0.4-0.7,0.8-0.8
		c0.3-0.1,0.6-0.1,1,0c0.3,0.1,0.6,0.3,0.7,0.6c0.1,0.2,0.1,0.4,0.1,0.6C45.5,15,45.5,15.4,45.5,15.8C45.5,15.8,45.5,15.8,45.5,15.8
		z M44.6,15.8c0-0.4,0-0.8,0-1.2c0-0.1,0-0.2-0.1-0.4c-0.1-0.2-0.2-0.3-0.4-0.3c-0.2,0-0.4,0.1-0.4,0.3c0,0.1-0.1,0.3-0.1,0.4
		c0,0.7,0,1.4,0,2.2c0,0.1,0,0.3,0,0.4c0.1,0.2,0.2,0.3,0.5,0.3c0.2,0,0.4-0.1,0.4-0.3c0-0.1,0-0.2,0-0.3
		C44.6,16.5,44.6,16.1,44.6,15.8z"/>
	<path class="st1" d="M26.5,5.6c0.1,0,0.1,0,0.1,0c0.4,0,0.9,0,1.3,0c0.2,0,0.3,0,0.5,0.1c0.4,0.1,0.6,0.4,0.6,0.7
		c0.1,0.3,0.1,0.6,0,0.9c-0.1,0.3-0.2,0.5-0.5,0.7c0.2,0.8,0.4,1.5,0.7,2.3c-0.3,0-0.6,0-0.9,0c-0.2-0.7-0.4-1.4-0.6-2.1
		c-0.1,0-0.2,0-0.4,0c0,0.1,0,0.2,0,0.2c0,0.5,0,1.1,0,1.6c0,0.1,0,0.2,0,0.3c-0.3,0-0.5,0-0.8,0C26.5,8.8,26.5,7.2,26.5,5.6z
		 M27.3,7.6c0.2,0,0.3,0,0.5,0c0.2,0,0.3-0.2,0.4-0.4c0-0.2,0-0.4,0-0.6c0-0.2-0.1-0.3-0.3-0.3c-0.2-0.1-0.4-0.1-0.6,0
		C27.3,6.7,27.3,7.1,27.3,7.6z"/>
	<path class="st1" d="M32,5.6C32,5.6,32,5.6,32,5.6c0.6-0.1,0.6-0.1,0.8,0.4c0.3,0.7,0.6,1.3,0.9,2c0,0.1,0.1,0.1,0.1,0.2
		c0-0.3,0-0.6,0-0.8c0-0.3,0-0.6,0-0.9c0-0.3,0-0.6,0-0.9c0.2,0,0.4,0,0.7,0c0,0.2,0.1,4.4,0,4.7c-0.2,0-0.3,0-0.5,0
		c-0.2-0.4-0.4-0.9-0.6-1.3c-0.2-0.5-0.4-0.9-0.6-1.4c-0.1,0.2,0,0.4,0,0.6c0,0.2,0,0.5,0,0.7c0,0.2,0,0.4,0,0.7c0,0.2,0,0.4,0,0.7
		c-0.2,0-0.5,0-0.7,0C32,8.8,32,7.2,32,5.6z"/>
	<path class="st1" d="M46,10.3c-0.3,0-0.5,0-0.8,0c0-0.7,0-1.4,0-2.1c-0.3,0-0.6,0-1,0c0,0.7,0,1.4,0,2.1c-0.3,0-0.5,0-0.8,0
		c-0.1-0.2-0.1-4.5,0-4.7c0.1,0,0.2,0,0.4,0c0.1,0,0.3,0,0.4,0c0,0.2,0,0.4,0,0.7c0,0.2,0,0.4,0,0.7c0,0.2,0,0.4,0,0.7
		c0.3,0,0.7,0,1,0c0-0.6,0-1.3,0-2c0.3,0,0.5,0,0.8,0C46,5.8,46,10.1,46,10.3z"/>
	<path class="st1" d="M42.3,14.9c-0.3,0-0.5,0-0.8,0c0-0.1,0-0.2,0-0.3c0-0.1,0-0.1,0-0.2c0-0.3-0.2-0.4-0.4-0.4
		c-0.3,0-0.4,0.1-0.5,0.4c0,0.1,0,0.2,0,0.3c0,0.7,0,1.5,0,2.2c0,0.1,0,0.3,0,0.4c0.1,0.2,0.2,0.4,0.4,0.4c0.2,0,0.4-0.1,0.5-0.3
		c0-0.1,0.1-0.3,0.1-0.4c0-0.2,0-0.3,0-0.5c-0.2,0-0.3,0-0.5,0c0-0.2,0-0.3,0-0.5c0.2-0.1,1-0.1,1.3,0c0,0.8,0,1.6,0,2.3
		c-0.2,0-0.3,0-0.5,0c0-0.1,0-0.3-0.1-0.4c-0.1,0.1-0.1,0.1-0.1,0.2c-0.1,0.2-0.3,0.3-0.5,0.3c-0.7,0.1-1.2-0.2-1.4-0.8
		c0-0.2-0.1-0.4-0.1-0.6c0-0.7,0-1.3,0-2c0-0.2,0.1-0.5,0.1-0.7c0.1-0.4,0.5-0.7,0.9-0.7c0.3,0,0.6,0,0.8,0c0.2,0.1,0.4,0.2,0.6,0.4
		C42.3,14.1,42.3,14.5,42.3,14.9z"/>
	<path class="st1" d="M25.1,5.6c0.3,1.6,0.6,3.1,1,4.7c-0.3,0-0.5,0-0.8,0c-0.1-0.4-0.1-0.7-0.2-1.1c-0.3,0-0.5,0-0.8,0
		c-0.1,0.4-0.1,0.7-0.2,1.1c-0.3,0-0.5,0-0.8,0c0.3-1.6,0.6-3.1,1-4.7C24.5,5.6,24.8,5.6,25.1,5.6z M24.7,6.8
		C24.7,6.8,24.7,6.8,24.7,6.8c-0.2,0.6-0.3,1.2-0.4,1.8c0.2,0,0.4,0,0.6,0C24.9,8.1,24.8,7.4,24.7,6.8z"/>
	<path class="st1" d="M47.5,17c-0.3,0-0.6,0-0.8,0c-0.1,0.4-0.1,0.7-0.2,1.1c-0.3,0-0.5,0-0.8,0c0.3-1.6,0.6-3.1,1-4.7
		c0.3,0,0.6,0,0.9,0c0.3,1.6,0.6,3.1,1,4.7c-0.3,0-0.5,0-0.8,0C47.7,17.8,47.6,17.4,47.5,17z M47.4,16.5c-0.1-0.6-0.2-1.2-0.3-1.8
		c0,0,0,0,0,0c-0.1,0.3-0.1,0.6-0.2,0.9c0,0.3-0.1,0.6-0.1,0.9C47,16.5,47.2,16.5,47.4,16.5z"/>
	<path class="st1" d="M20.8,5.6c0.1,0,0.2,0,0.2,0c0.4,0,0.7,0,1.1,0c0.1,0,0.2,0,0.3,0c0.4,0.1,0.7,0.3,0.8,0.7
		c0.1,0.4,0.1,0.8,0,1.1c-0.1,0.5-0.5,0.7-1,0.8c-0.1,0-0.3,0-0.4,0c-0.1,0-0.1,0-0.2,0c0,0.7,0,1.4,0,2.1c-0.3,0-0.6,0-0.8,0
		c0-0.5,0-1,0-1.5c0-0.5,0-1.1,0-1.6C20.8,6.7,20.8,6.2,20.8,5.6z M21.7,7.6c0.2,0,0.4,0,0.6,0c0.1,0,0.2-0.1,0.3-0.2
		c0.1-0.3,0.1-0.6,0-0.9c0-0.1-0.1-0.2-0.3-0.3c-0.2,0-0.4,0-0.6,0C21.7,6.7,21.7,7.1,21.7,7.6z"/>
	<path class="st1" d="M42.8,6.8c-0.2,0-0.4,0.1-0.7,0.1c0-0.1,0-0.1,0-0.2c0-0.1,0-0.2-0.1-0.4c-0.1-0.2-0.2-0.2-0.4-0.2
		c-0.2,0-0.3,0.1-0.4,0.3c-0.1,0.2,0,0.4,0.1,0.6c0.1,0.1,0.2,0.2,0.3,0.3c0.2,0.2,0.4,0.3,0.6,0.5c0.2,0.2,0.4,0.4,0.5,0.6
		c0.2,0.3,0.3,0.7,0.2,1.1c-0.1,0.5-0.4,0.7-0.8,0.8c-0.2,0.1-0.5,0-0.7,0c-0.3-0.1-0.6-0.3-0.7-0.6c-0.1-0.2-0.2-0.5-0.2-0.8
		c0.2,0,0.5-0.1,0.7-0.1c0,0.1,0,0.3,0.1,0.4c0,0.1,0.1,0.3,0.1,0.4c0.1,0.2,0.3,0.2,0.5,0.2c0.2,0,0.2-0.2,0.3-0.4
		c0-0.3-0.1-0.6-0.3-0.8c-0.2-0.2-0.5-0.4-0.7-0.6c-0.1-0.1-0.2-0.1-0.2-0.2c-0.4-0.4-0.5-0.9-0.4-1.4C40.5,6,40.7,5.8,41,5.7
		c0.3-0.1,0.7-0.2,1-0.1c0.3,0.1,0.5,0.3,0.6,0.5C42.8,6.3,42.8,6.5,42.8,6.8z"/>
	<path class="st1" d="M50.9,9c0.2,0,0.5-0.1,0.7-0.1c0,0.1,0,0.2,0,0.3c0,0.1,0.1,0.3,0.1,0.4c0.1,0.2,0.3,0.3,0.5,0.2
		c0.2,0,0.3-0.2,0.3-0.4c0-0.3-0.1-0.5-0.3-0.7c-0.2-0.2-0.3-0.3-0.5-0.5c-0.2-0.1-0.3-0.3-0.5-0.4c-0.4-0.4-0.5-0.9-0.3-1.4
		C51,6,51.2,5.8,51.5,5.7c0.3-0.1,0.7-0.2,1-0.1c0.3,0.1,0.5,0.2,0.6,0.5c0.1,0.2,0.2,0.4,0.2,0.7c-0.2,0-0.5,0.1-0.7,0.1
		c0-0.1,0-0.2,0-0.3c0-0.1,0-0.2-0.1-0.3c-0.1-0.2-0.2-0.3-0.4-0.2c-0.2,0-0.3,0.2-0.3,0.3c0,0.2,0,0.4,0.2,0.6
		C52,7.2,52,7.3,52.1,7.4c0.2,0.2,0.5,0.4,0.7,0.6c0.3,0.3,0.5,0.6,0.5,1.1c0.1,0.8-0.5,1.3-1.1,1.3c-0.1,0-0.3,0-0.4,0
		c-0.4-0.1-0.7-0.3-0.8-0.7C50.9,9.5,50.9,9.2,50.9,9z"/>
	<path class="st1" d="M51,16.7c0.3-0.1,0.5-0.1,0.7-0.1c0,0.2,0,0.3,0.1,0.5c0,0.1,0.1,0.2,0.2,0.3c0.1,0.2,0.3,0.2,0.5,0.1
		c0.1,0,0.2-0.2,0.3-0.4c0-0.3-0.1-0.6-0.3-0.8c-0.2-0.2-0.4-0.4-0.6-0.5c-0.1-0.1-0.2-0.2-0.3-0.2c-0.4-0.3-0.5-0.8-0.5-1.3
		c0.1-0.5,0.3-0.8,0.8-0.9c0.2-0.1,0.5-0.1,0.8,0c0.3,0.1,0.5,0.2,0.7,0.5c0.1,0.2,0.1,0.4,0.2,0.7c-0.2,0-0.5,0.1-0.7,0.1
		c0-0.2-0.1-0.3-0.1-0.5c-0.1-0.2-0.3-0.3-0.5-0.3c-0.2,0.1-0.3,0.2-0.3,0.4c0,0.2,0,0.4,0.2,0.5c0.1,0.1,0.2,0.2,0.3,0.3
		c0.2,0.2,0.4,0.4,0.6,0.6c0.3,0.3,0.6,0.6,0.6,1c0,0.2,0,0.4,0,0.6c-0.1,0.6-0.6,0.9-1.2,0.9c-0.1,0-0.2,0-0.3,0
		c-0.4-0.1-0.6-0.3-0.8-0.6C51.1,17.3,51,17,51,16.7z"/>
	<path class="st1" d="M48.9,8.2c0,0.7,0,1.4,0,2.1c-0.3,0-0.6,0-0.8,0c0-0.2-0.1-4.4,0-4.7c0.1,0,0.1,0,0.2,0c0.4,0,0.8,0,1.2,0
		c0.1,0,0.2,0,0.3,0c0.4,0.1,0.7,0.3,0.8,0.7c0.1,0.4,0.1,0.8,0,1.2c-0.1,0.5-0.5,0.7-1,0.8C49.4,8.2,49.2,8.2,48.9,8.2z M49,6.2
		c0,0.5,0,0.9,0,1.4c0.2,0,0.4,0,0.5,0c0.2,0,0.4-0.1,0.4-0.4c0-0.2,0-0.5,0-0.7c0-0.2-0.1-0.3-0.3-0.3C49.3,6.2,49.2,6.2,49,6.2z"
		/>
	<path class="st1" d="M36.1,13.4c0.7,0,1.3,0,1.9,0c0,0.2,0,0.4,0,0.6c-0.4,0-0.7,0-1.1,0c-0.1,0.2-0.1,1.1,0,1.4c0.3,0,0.6,0,0.8,0
		c0,0.2,0,0.4,0,0.6c-0.3,0-0.6,0-0.8,0c-0.1,0.2-0.1,1.2,0,1.6c0.4,0.1,0.7,0,1.1,0c0,0.2,0,0.4,0,0.5c-0.6,0-1.3,0-1.9,0
		C36.1,18,36.1,13.7,36.1,13.4z"/>
	<path class="st1" d="M35,5.6c0.6,0,1.3,0,1.9,0c0,0.2,0,0.4,0,0.6c-0.4,0-0.7,0-1.1,0c-0.1,0.2-0.1,1.1,0,1.4c0.3,0,0.6,0,0.8,0
		c0,0.2,0,0.4,0,0.6c-0.3,0-0.6,0-0.8,0c-0.1,0.2-0.1,1.3,0,1.6c0.2,0,0.4,0,0.6,0c0.2,0,0.4,0,0.5,0c0,0.2,0,0.4,0,0.6
		c-0.7,0-1.3,0-1.9,0C35,10.2,35,5.9,35,5.6z"/>
	<path class="st1" d="M22.5,15.4c0,0.2,0,0.4,0,0.6c-0.3,0-0.6,0-0.9,0c0,0.7,0,1.4,0,2.1c-0.3,0-0.6,0-0.8,0c0-0.2-0.1-4.5,0-4.7
		c0.6,0,1.2,0,1.9,0c0,0.2,0,0.4,0,0.6c-0.3,0-0.7,0-1,0c-0.1,0.2-0.1,1.2,0,1.4C22,15.4,22.3,15.4,22.5,15.4z"/>
	<path class="st1" d="M31.9,18.1c-0.3,0-0.5,0-0.8,0c0-0.1,0-0.2,0-0.3c0-1.2,0-2.4,0-3.6c0-0.1,0-0.2,0-0.3c-0.3,0-0.5,0-0.8,0
		c0-0.2,0-0.4,0-0.6c0.8,0,1.6,0,2.4,0c0,0.2,0,0.4,0,0.6c-0.2,0-0.5,0-0.8,0c0,0.5,0,0.9,0,1.4c0,0.4,0,0.9,0,1.3
		C31.9,17.2,31.9,17.6,31.9,18.1z"/>
	<path class="st1" d="M30,6.2c-0.3,0-0.5,0-0.8,0c0-0.2,0-0.4,0-0.6c0.8,0,1.6,0,2.4,0c0,0.2,0,0.4,0,0.6c-0.2,0-0.5,0-0.8,0
		c0,1.4,0,2.7,0,4.1c-0.3,0-0.5,0-0.8,0c0-0.1,0-0.2,0-0.3c0-1.2,0-2.4,0-3.5C30.1,6.4,30,6.3,30,6.2z"/>
	<path class="st1" d="M50.8,18.1c-0.7,0-1.3,0-2,0c0-1.6,0-3.1,0-4.7c0.3,0,0.5,0,0.8,0c0,1.4,0,2.7,0,4.1c0.4,0.1,0.7,0,1.1,0
		C50.8,17.7,50.8,17.9,50.8,18.1z"/>
	<path class="st1" d="M46.7,5.6c0.2,0,0.4,0,0.6,0c0.1,0,0.1,0,0.2,0c0.1,0.2,0.1,4.5,0,4.7c-0.3,0-0.5,0-0.8,0
		C46.6,10.2,46.6,6,46.7,5.6z"/>
</g>
</svg>
