<?xml version="1.0" encoding="utf-8"?>
<!-- Generator: Adobe Illustrator 25.4.1, SVG Export Plug-In . SVG Version: 6.00 Build 0)  -->
<svg version="1.1" id="Capa_1" xmlns="http://www.w3.org/2000/svg" xmlns:xlink="http://www.w3.org/1999/xlink" x="0px" y="0px"
	 viewBox="0 0 65.2 65.2" style="enable-background:new 0 0 65.2 65.2;" xml:space="preserve">
<style type="text/css">
	.st0{fill:#D19F2A;}
	.st1{fill:#FFFFFF;}
</style>
<rect class="st0" width="65.2" height="65.2"/>
<g>
	<path class="st1" d="M31.7,42c5.7,0,11.3,0,17,0c0.1,0,0.1,0,0.2,0c0.3,0,0.5,0.2,0.5,0.6c0,0.2-0.1,0.5-0.1,0.7
		c-0.6,2.6-1.7,4.8-3.4,6.8c-2.1,2.5-4.8,4.3-7.9,5.3c-0.3,0.1-0.3,0.1-0.3,0.4c0,0.3,0,0.5,0,0.8c0,0.3-0.2,0.4-0.4,0.5
		c0,0-0.1,0-0.1,0c-3.5,0-7.1,0-10.6,0c-0.4,0-0.6-0.2-0.6-0.6c0-0.2,0-0.4,0-0.6c0-0.2,0-0.2-0.2-0.3c-0.7-0.2-1.4-0.5-2.1-0.8
		c-3.4-1.6-6.1-4-8-7.3c-0.8-1.5-1.4-3-1.7-4.7c0-0.1,0-0.2,0-0.3c0-0.3,0.1-0.5,0.4-0.5c0.1,0,0.2,0,0.3,0C20.4,42,26,42,31.7,42z"
		/>
	<path class="st1" d="M7.9,16.2c0.1,0,0.2,0,0.2,0c1.1,0,2.1,0,3.2,0c0.1,0,0.1,0,0.2,0c0.1,0,0.1,0,0.1,0.1c0,0.5,0,1.1,0,1.6
		c0,0.1,0,0.1-0.1,0.1c0,0-0.1,0-0.1,0c-1.9,0-3.9,0-5.8,0c-0.1,0-0.1,0-0.2,0c-0.1,0-0.1,0-0.1-0.1c0-0.5,0-1,0-1.5
		c0-0.1,0.1-0.1,0.1-0.2c0.8-1.3,1.7-2.6,2.5-3.9c0.4-0.6,0.8-1.2,1.2-1.8c0.3-0.4,0.5-0.9,0.5-1.4c0-0.3,0-0.6,0-0.9
		C9.5,7.9,9.3,7.7,9.1,7.6C8.7,7.3,8,7.5,7.8,7.9c-0.2,0.3-0.2,0.6-0.2,1c0,0.3,0,0.6,0,0.8c0,0.1,0,0.2-0.1,0.2c-0.7,0-1.4,0-2,0
		c-0.1,0-0.1,0-0.1-0.1c0-0.8,0-1.5,0.3-2.2c0.2-0.6,0.5-1.1,1-1.5c0.4-0.3,0.8-0.4,1.2-0.5c0.7-0.1,1.4-0.1,2.1,0
		c1.2,0.3,1.9,1.1,2.1,2.3c0.2,1.2-0.1,2.3-0.7,3.3c-0.5,0.9-1.2,1.8-1.7,2.6C9,14.5,8.5,15.2,8,16C8,16,7.9,16.1,7.9,16.2z"/>
	<path class="st1" d="M38.9,40.5c0-0.1,0-0.1,0-0.2c0.4-1.1,0.3-2.1-0.3-3.2c-0.2-0.4-0.5-0.8-0.9-1.2c-0.8-0.8-1.3-1.8-1.5-2.9
		c-0.2-0.9-0.1-1.8,0.1-2.7c0.2-1.1,0.7-2.2,1.3-3.2c0.3-0.5,0.9-0.7,1.5-0.5c0.2,0.1,0.3,0.2,0.4,0.3c0.3,0.3,0.3,0.7,0.1,1
		c-0.4,0.5-0.6,1.1-0.9,1.8c-0.2,0.7-0.4,1.4-0.4,2.2c0,1.1,0.4,2,1.1,2.8c0.6,0.6,1.1,1.3,1.4,2.1c0.4,1.1,0.5,2.1,0.2,3.3
		c0,0.2,0,0.2-0.2,0.2c-0.7,0-1.3,0-2,0C38.9,40.5,38.9,40.5,38.9,40.5z"/>
	<path class="st1" d="M32,40.5c0-0.1,0.1-0.3,0.1-0.4c0.3-1,0.1-1.9-0.3-2.8c-0.2-0.4-0.5-0.8-0.8-1.1c-0.6-0.6-1-1.3-1.3-2.1
		c-0.3-0.9-0.4-1.8-0.3-2.8c0.1-1.5,0.7-2.8,1.4-4c0.2-0.4,0.5-0.5,0.9-0.6c0.3,0,0.6,0.1,0.8,0.3c0.4,0.3,0.4,0.7,0.2,1.1
		c-0.4,0.7-0.7,1.4-1,2.1c-0.2,0.7-0.3,1.3-0.2,2c0.1,1,0.4,1.9,1.1,2.6c0.6,0.6,1.1,1.3,1.4,2.1c0.5,1.1,0.6,2.2,0.3,3.3
		c-0.1,0.2-0.1,0.2-0.3,0.2c-0.6,0-1.3,0-1.9,0C32.1,40.5,32,40.6,32,40.5z"/>
	<path class="st1" d="M25.1,40.5c0.1-0.2,0.1-0.4,0.2-0.6c0.2-0.8,0.1-1.6-0.2-2.3c-0.2-0.5-0.6-1-1-1.4c-0.6-0.6-1-1.3-1.3-2
		c-0.3-0.9-0.4-1.9-0.3-2.8c0.2-1.4,0.7-2.8,1.4-4c0.4-0.6,1.1-0.7,1.6-0.4c0.4,0.2,0.7,0.8,0.3,1.3c-0.6,0.9-1,1.8-1.1,2.9
		c-0.2,1.5,0.1,2.8,1.1,3.9c0.6,0.6,1,1.3,1.3,2c0.3,0.7,0.4,1.3,0.4,2.1c0,0.4-0.1,0.9-0.2,1.3c0,0.1-0.1,0.1-0.2,0.1
		C26.5,40.5,25.9,40.5,25.1,40.5C25.1,40.5,25.1,40.5,25.1,40.5z"/>
	<path class="st1" d="M32.7,15.8c0-0.7,0-1.4,0-2.2c0-0.1,0-0.1,0-0.2c0-0.1,0-0.1,0.1-0.1c0.5,0,1.1,0,1.6,0.1
		c0.5,0.1,0.8,0.4,0.9,1c0,0.3,0,0.6-0.1,0.9c-0.1,0.2-0.2,0.4-0.4,0.5c-0.1,0.1-0.1,0.1-0.1,0.2c0.2,0.7,0.4,1.3,0.6,2
		c0.1,0.2,0.1,0.2-0.2,0.2c-0.1,0-0.3,0-0.4,0c-0.2,0-0.2,0-0.3-0.2c-0.1-0.5-0.3-1-0.4-1.6c0-0.1,0-0.2-0.1-0.2
		c0-0.1,0-0.2-0.1-0.2c-0.1,0-0.2,0-0.3,0c0,0,0,0,0,0.1c0,0.1,0,0.1,0,0.2c0,0.6,0,1.2,0,1.7c0,0.2,0,0.2-0.2,0.2
		c-0.2,0-0.3,0-0.5,0c-0.2,0-0.2,0-0.2-0.2c0-0.3,0-0.6,0-0.9C32.7,16.7,32.7,16.2,32.7,15.8z M33.6,14.7
		C33.6,14.7,33.6,14.7,33.6,14.7c0,0.1,0,0.3,0,0.4c0,0.3,0,0.3,0.3,0.3c0.1,0,0.1,0,0.2,0c0.2-0.1,0.3-0.2,0.3-0.3
		c0.1-0.2,0.1-0.5,0-0.7c0-0.2-0.2-0.3-0.3-0.3c-0.1,0-0.3,0-0.4,0c-0.1,0-0.1,0-0.1,0.1C33.6,14.3,33.6,14.5,33.6,14.7z"/>
	<path class="st1" d="M28,8.1c0,0.3,0,0.7,0,1.2c0,0.1,0,0.1,0,0.2c-0.1,0.6-0.5,0.9-1,0.9c-0.3,0-0.5,0-0.8,0
		c-0.3-0.1-0.6-0.3-0.7-0.6c-0.1-0.3-0.2-0.6-0.2-0.8c0-0.6,0-1.3,0-1.9c0-0.3,0-0.5,0.1-0.7c0.1-0.4,0.4-0.6,0.8-0.7
		c0.3-0.1,0.6-0.1,0.9,0c0.5,0.1,0.8,0.5,0.9,1.1c0,0.1,0,0.2,0,0.3C28,7.3,28,7.6,28,8.1z M27.1,8c0-0.4,0-0.8,0-1.2
		c0-0.1,0-0.3-0.1-0.4c-0.1-0.2-0.2-0.2-0.4-0.2c-0.2,0-0.3,0.1-0.4,0.2c0,0.1-0.1,0.2-0.1,0.3c0,0.8,0,1.7,0,2.5c0,0.1,0,0.2,0,0.2
		c0.1,0.2,0.2,0.3,0.4,0.3c0.2,0,0.4-0.1,0.5-0.3c0-0.1,0-0.2,0-0.3C27.1,8.7,27.1,8.4,27.1,8z"/>
	<path class="st1" d="M19.9,15.8c0,0.7,0,1.4,0,2.1c0,0.1,0,0.1,0,0.2c0,0.1,0,0.1-0.1,0.1c-0.2,0-0.4,0-0.7,0c-0.1,0-0.1,0-0.1-0.1
		c0-0.2,0-0.3,0-0.5c0-0.5,0-0.9,0-1.4c0-0.2,0-0.2-0.2-0.2c-0.2,0-0.3,0-0.5,0C18,16,18,16,18,16.2c0,0.6,0,1.1,0,1.7
		c0,0.3,0,0.2-0.2,0.2c-0.2,0-0.3,0-0.5,0c-0.1,0-0.1,0-0.1-0.1c0,0,0-0.1,0-0.1c0-1.4,0-2.9,0-4.3c0,0,0,0,0,0c0-0.2,0-0.2,0.2-0.2
		c0.2,0,0.3,0,0.5,0c0.2,0,0.2,0,0.2,0.2c0,0.5,0,1,0,1.5c0,0.3,0,0.2,0.2,0.2c0.2,0,0.4,0,0.5,0c0.2,0,0.2,0,0.2-0.2
		c0-0.5,0-1,0-1.6c0-0.3,0-0.2,0.2-0.2c0.2,0,0.3,0,0.5,0c0.2,0,0.2,0,0.2,0.2c0,0.6,0,1.1,0,1.7C19.9,15.4,19.9,15.6,19.9,15.8z"/>
	<path class="st1" d="M24.8,10.4c-0.2,0-0.4,0-0.7,0c-0.2,0-0.2,0-0.2-0.2c-0.1-0.5-0.3-1-0.4-1.6c0-0.1-0.1-0.2-0.1-0.3
		c0-0.1-0.1-0.1-0.2-0.1c-0.2,0-0.2,0-0.2,0.2c0,0.6,0,1.2,0,1.7c0,0.2,0,0.2-0.2,0.2c-0.2,0-0.4,0-0.5,0c-0.1,0-0.1,0-0.1-0.1
		c0,0,0-0.1,0-0.1c0-1.4,0-2.9,0-4.3c0-0.3,0-0.2,0.2-0.2c0.3,0,0.7,0,1,0c0.2,0,0.3,0,0.5,0.1c0.4,0.1,0.7,0.4,0.8,0.9
		c0,0.3,0,0.6-0.1,0.9c-0.1,0.2-0.2,0.4-0.4,0.5c-0.1,0.1-0.1,0.1-0.1,0.2c0.2,0.7,0.4,1.3,0.6,2C24.8,10.2,24.8,10.3,24.8,10.4z
		 M23,6.9c0,0.2,0,0.4,0,0.6c0,0.1,0,0.1,0.1,0.1c0.1,0,0.3,0,0.4,0c0.2,0,0.3-0.2,0.3-0.3c0.1-0.2,0.1-0.5,0-0.7
		c0-0.2-0.2-0.3-0.3-0.3c-0.1,0-0.3,0-0.4,0c-0.1,0-0.1,0-0.1,0.1C23,6.5,23,6.7,23,6.9z"/>
	<path class="st1" d="M25.6,15.9c0-0.1,0-0.2,0-0.2c0-0.7,0-1.4,0-2.1c0-0.2,0-0.2,0.2-0.2c0.1,0,0.3,0,0.4,0c0.1,0,0.1,0,0.1,0.1
		c0,0,0,0.1,0,0.1c0,1.4,0,2.9,0,4.3c0,0,0,0.1,0,0.1c0,0.2,0,0.2-0.2,0.2c-0.4,0-0.4,0-0.6-0.4c-0.3-0.7-0.6-1.5-0.9-2.2
		c0-0.1,0-0.1-0.1-0.2c0,0.1,0,0.2,0,0.2c0,0.7,0,1.5,0,2.2c0,0.1,0,0.1,0,0.2c0,0.1,0,0.1-0.1,0.1c-0.2,0-0.4,0-0.6,0
		c-0.1,0-0.1,0-0.1-0.1c0,0,0-0.1,0-0.1c0-1.4,0-2.9,0-4.3c0,0,0-0.1,0-0.1c0-0.1,0-0.1,0.1-0.1c0,0,0,0,0,0c0.2,0,0.3,0,0.4,0
		c0.1,0.1,0.1,0.2,0.2,0.4c0.3,0.6,0.6,1.3,0.8,1.9C25.5,15.8,25.5,15.9,25.6,15.9z"/>
	<path class="st1" d="M22.4,15.2c0-0.6,0-1.1,0-1.7c0-0.2,0-0.2,0.2-0.2c0.2,0,0.4,0,0.5,0c0.1,0,0.1,0,0.1,0.1c0,0,0,0.1,0,0.1
		c0,1,0,2,0,3c0,0.2,0,0.5-0.1,0.7c-0.1,0.5-0.4,0.8-1,0.9c-0.3,0-0.5,0-0.8,0c-0.4-0.1-0.6-0.3-0.8-0.7c-0.1-0.3-0.1-0.5-0.1-0.8
		c0-1,0-2.1,0-3.1c0-0.2,0-0.2,0.2-0.2c0.2,0,0.4,0,0.6,0c0.1,0,0.1,0,0.1,0.1c0,0.1,0,0.1,0,0.2c0,1,0,2,0,3c0,0.2,0,0.4,0.1,0.6
		c0.1,0.2,0.2,0.3,0.4,0.4c0.2,0,0.4-0.1,0.4-0.3c0.1-0.2,0.1-0.3,0.1-0.5C22.4,16.2,22.4,15.7,22.4,15.2z"/>
	<path class="st1" d="M29,17.7c-0.1,0.1-0.1,0.1-0.1,0.2c-0.1,0.2-0.3,0.2-0.5,0.3c-0.3,0-0.5,0-0.7-0.1c-0.2-0.1-0.4-0.2-0.5-0.5
		c-0.1-0.3-0.2-0.5-0.2-0.8c0-0.7,0-1.5,0-2.2c0-0.2,0-0.4,0.1-0.6c0.1-0.4,0.4-0.6,0.8-0.7c0.3-0.1,0.5-0.1,0.8,0
		c0.5,0.1,0.8,0.4,0.9,0.8c0,0.2,0.1,0.4,0.1,0.6c0,0.1,0,0.2-0.2,0.2c-0.2,0-0.3,0-0.5,0c-0.2,0-0.2,0-0.2-0.2c0-0.1,0-0.3,0-0.4
		c0-0.4-0.3-0.5-0.7-0.4c-0.1,0.1-0.2,0.2-0.2,0.3c0,0.1,0,0.3,0,0.4c0,0.7,0,1.3,0,2c0,0.2,0,0.3,0.1,0.5c0.1,0.2,0.2,0.3,0.4,0.3
		c0.2,0,0.4-0.1,0.5-0.3c0.1-0.1,0.1-0.2,0.1-0.4c0-0.2,0-0.3,0-0.5c0-0.1,0-0.1-0.1-0.1c0,0-0.1,0-0.1,0c-0.3,0-0.3,0-0.3-0.3
		c0-0.3,0-0.3,0.3-0.3c0.3,0,0.6,0,0.8,0c0.2,0,0.2,0,0.2,0.2c0,0.7,0,1.4,0,2.1c0,0.1,0,0.2-0.1,0.1C29,18.1,29.1,18.2,29,17.7z"/>
	<path class="st1" d="M19.6,8c0-0.7,0-1.4,0-2.1c0-0.1,0-0.1,0-0.2c0-0.1,0-0.1,0.1-0.1c0,0,0.1,0,0.1,0c0.6,0,1.1,0,1.7,0
		c0.2,0,0.2,0,0.2,0.2c0,0.1,0,0.2,0,0.2c0,0.2,0,0.2-0.2,0.2c-0.3,0-0.5,0-0.8,0c-0.2,0-0.2,0-0.2,0.2c0,0.3,0,0.7,0,1
		c0,0.2,0,0.2,0.2,0.2c0.2,0,0.4,0,0.6,0c0.1,0,0.1,0,0.1,0.1c0,0.2,0.1,0.3,0,0.4c-0.1,0.1-0.3,0-0.4,0c-0.1,0-0.3-0.1-0.4,0
		c-0.1,0.1,0,0.2,0,0.4c0,0.3,0,0.6,0,1c0,0.2,0,0.2,0.2,0.2c0.3,0,0.5,0,0.8,0c0.2,0,0.2,0,0.2,0.2c0,0.1,0,0.2,0,0.3
		c0,0.1,0,0.1-0.1,0.1c-0.6,0-1.2,0-1.8,0c-0.1,0-0.1,0-0.1-0.1c0-0.1,0-0.1,0-0.2C19.6,9.3,19.6,8.7,19.6,8z"/>
	<path class="st1" d="M30.3,15.8c0-0.7,0-1.4,0-2.1c0-0.1,0-0.1,0-0.2c0-0.1,0-0.1,0.1-0.1c0.2,0,0.5,0,0.7,0c0.3,0,0.7,0,1,0
		c0.1,0,0.2,0,0.1,0.1c0,0.1,0,0.2,0,0.3c0,0.1,0,0.1-0.2,0.1c-0.3,0-0.5,0-0.8,0c-0.1,0-0.2,0-0.2,0.1c0,0.4,0,0.7,0,1.1
		c0,0.1,0,0.1,0.1,0.1c0.2,0,0.4,0,0.6,0c0.2,0,0.2,0,0.2,0.2c0,0.1,0.1,0.3,0,0.4c-0.1,0.1-0.3,0-0.4,0c-0.1,0-0.3-0.1-0.4,0
		c-0.1,0.1,0,0.3,0,0.4c0,0.3,0,0.6,0,1c0,0.2,0,0.2,0.2,0.2c0.3,0,0.5,0,0.8,0c0.2,0,0.2,0,0.2,0.2c0,0.1,0.1,0.3,0,0.4
		c-0.1,0.1-0.3,0-0.4,0c-0.5,0-0.9,0-1.4,0c-0.2,0-0.2,0-0.2-0.2C30.3,17.2,30.3,16.5,30.3,15.8z"/>
	<path class="st1" d="M17.9,9.8c0.3,0,0.5,0,0.8,0c0.1,0,0.3,0,0.4,0c0.1,0,0.1,0,0.1,0.1c0,0.1,0,0.2,0,0.3c0,0.2,0,0.2-0.2,0.2
		c-0.5,0-1,0-1.6,0c-0.1,0-0.2,0-0.3,0c-0.1,0-0.1,0-0.1-0.1c0-0.2,0-0.5,0.1-0.7c0.4-1,0.7-2.1,1.1-3.1c0-0.1,0-0.1,0.1-0.2
		c-0.3,0-0.6,0-0.8,0c-0.3,0-0.3,0-0.3-0.3c0-0.3,0-0.3,0.3-0.3c0.5,0,1.1,0,1.6,0c0.2,0,0.2,0,0.2,0.2c0,0.2,0,0.3-0.1,0.4
		c-0.4,1.1-0.8,2.2-1.2,3.3C17.9,9.6,17.9,9.7,17.9,9.8z"/>
</g>
</svg>
