<svg id="Capa_1" data-name="Capa 1" xmlns="http://www.w3.org/2000/svg" viewBox="0 0 65.23 65.23"><defs><style>.cls-1{fill:#d19f2a;}.cls-2{fill:#fff;}</style></defs><rect class="cls-1" width="65.23" height="65.23"/><path class="cls-2" d="M26,55.43v1a.43.43,0,0,0,.42.41h10.8a.44.44,0,0,0,.43-.43h0v-1A16.75,16.75,0,0,0,49.28,42.45v0a.13.13,0,0,0,0-.06.43.43,0,0,0-.44-.43H14.56a.44.44,0,0,0-.44.43l0,.2A16.81,16.81,0,0,0,26,55.43"/><path class="cls-2" d="M37.67,27.28c-.14.2-3.45,5,.08,8.83,1.62,1.77,1.48,3.33,1,4.39H41A5.56,5.56,0,0,0,39.46,35c-2.6-2.85,0-6.69.07-6.75A.84.84,0,0,0,39.16,27a1.2,1.2,0,0,0-1.49.31"/><path class="cls-2" d="M31.94,40.5h2.27A5.6,5.6,0,0,0,32.64,35c-2.6-2.85,0-6.68.07-6.75A.84.84,0,0,0,32.34,27a1.2,1.2,0,0,0-1.49.31c-.14.2-3.46,5,.08,8.83,1.61,1.77,1.47,3.33,1,4.39"/><path class="cls-2" d="M24,27.28c-.14.2-3.46,5,.07,8.83,1.62,1.77,1.48,3.33,1,4.39h2.26A5.56,5.56,0,0,0,25.81,35c-2.6-2.85,0-6.69.08-6.75A.85.85,0,0,0,25.52,27a1.19,1.19,0,0,0-1.49.31"/><path class="cls-2" d="M12.55,16.82H8.92v-.63a2.51,2.51,0,0,1,.93-2l1.42-1.5a4.13,4.13,0,0,0,1.39-3.31V8.09c0-1.89-.91-2.78-2.89-2.78A2.6,2.6,0,0,0,6.84,8.18V9.77h2V8.12c0-.79.39-1,.85-1s.8.17.8,1V9.17a2.6,2.6,0,0,1-.82,2.27L8.45,12.76C7.25,14,6.8,14.89,6.8,16.19v2.43h5.75Z"/><polygon class="cls-2" points="19.96 8.61 19.07 8.61 19.07 11.05 18.14 11.05 18.14 5.52 19.07 5.52 19.07 7.86 19.96 7.86 19.96 5.52 20.9 5.52 20.9 11.05 19.96 11.05 19.96 8.61"/><path class="cls-2" d="M21.28,11.05l1-5.53h1.06l1.05,5.53h-1l-.17-1h-1l-.17,1ZM22.45,9.3h.74l-.37-2.22h0Z"/><polygon class="cls-2" points="27.38 7.46 27.35 7.46 26.73 11.05 26.29 11.05 25.6 7.46 25.59 7.46 25.59 11.05 24.82 11.05 24.82 5.52 25.9 5.52 26.51 8.64 26.51 8.64 27.05 5.52 28.23 5.52 28.23 11.05 27.38 11.05 27.38 7.46"/><path class="cls-2" d="M28.75,5.52H30.1c.93,0,1.24.43,1.24,1.22V7.3a.8.8,0,0,1-.56.88.84.84,0,0,1,.7.92v.74c0,.78-.35,1.21-1.28,1.21H28.75Zm.93,2.33H30a.39.39,0,0,0,.44-.44V6.73A.39.39,0,0,0,30,6.28h-.32Zm0,.71v1.73h.41a.4.4,0,0,0,.46-.45V9c0-.29-.14-.45-.47-.45Z"/><path class="cls-2" d="M32.87,8.51v2.54h-.93V5.52h1.35c.94,0,1.28.47,1.28,1.24v.71c0,.6-.21,1-.74,1.07l.89,2.51h-1Zm0-2.23V8h.31a.4.4,0,0,0,.46-.45V6.73c0-.3-.14-.45-.46-.45Z"/><polygon class="cls-2" points="35.08 5.52 37.3 5.52 37.3 6.28 36.01 6.28 36.01 7.86 36.93 7.86 36.93 8.61 36.01 8.61 36.01 10.29 37.3 10.29 37.3 11.05 35.08 11.05 35.08 5.52"/><path class="cls-2" d="M18.14,17.37V14.69c0-.86.4-1.49,1.38-1.49s1.31.57,1.31,1.39v.65H20v-.73c0-.34-.12-.54-.45-.54s-.47.24-.47.57v3c0,.34.13.57.47.57s.45-.21.45-.54v-1h.84v.95c0,.79-.32,1.38-1.31,1.38a1.3,1.3,0,0,1-1.38-1.49"/><polygon class="cls-2" points="21.34 13.26 23.56 13.26 23.56 14.02 22.27 14.02 22.27 15.61 23.19 15.61 23.19 16.36 22.27 16.36 22.27 18.04 23.56 18.04 23.56 18.79 21.34 18.79 21.34 13.26"/><path class="cls-2" d="M25,16.26v2.53h-.93V13.26h1.36c.93,0,1.28.47,1.28,1.24v.71c0,.6-.22.95-.75,1.07l.89,2.51h-1ZM25,14v1.72h.31a.4.4,0,0,0,.46-.45v-.82c0-.3-.14-.45-.46-.45Z"/><path class="cls-2" d="M27.19,17.37V14.69a1.41,1.41,0,1,1,2.81,0v2.68a1.41,1.41,0,1,1-2.81,0m1.88.14v-3c0-.33-.14-.57-.48-.57s-.47.24-.47.57v3c0,.34.15.57.47.57s.48-.23.48-.57"/></svg>