<?xml version="1.0" encoding="utf-8"?>
<!-- Generator: Adobe Illustrator 25.4.1, SVG Export Plug-In . SVG Version: 6.00 Build 0)  -->
<svg version="1.1" id="Capa_1" xmlns="http://www.w3.org/2000/svg" xmlns:xlink="http://www.w3.org/1999/xlink" x="0px" y="0px"
	 viewBox="0 0 65.2 65.2" style="enable-background:new 0 0 65.2 65.2;" xml:space="preserve">
<style type="text/css">
	.st0{fill:#8F1838;}
	.st1{fill:#FFFFFF;}
</style>
<rect class="st0" width="65.2" height="65.2"/>
<g>
	<path class="st1" d="M45.7,44.7c0,4.1,0,8.2,0,12.2c0,0.1,0,0.1,0,0.2c0,0.3-0.1,0.4-0.4,0.4c-0.1,0-0.1,0-0.2,0
		c-2.2,0-4.3,0-6.5,0c-0.4,0-0.6-0.1-0.6-0.6c0-5.8,0-11.7,0-17.5c0-0.1,0-0.1,0-0.2c0-0.3,0.1-0.6,0.3-0.8c0.4-0.4,0.8-0.7,1.2-1.1
		c1.8-1.7,3.6-3.5,5.4-5.2c0.1-0.1,0.2-0.2,0.3-0.2c0.2-0.1,0.3,0,0.4,0.1c0,0.1,0,0.2,0,0.3c0,1.8,0,3.6,0,5.4
		C45.7,40.1,45.7,42.4,45.7,44.7z"/>
	<path class="st1" d="M36.2,49.4c0,2.5,0,5,0,7.5c0,0.1,0,0.1,0,0.2c0,0.3-0.1,0.5-0.5,0.5c-2.2,0-4.4,0-6.6,0c-0.1,0-0.1,0-0.2,0
		c-0.2,0-0.3-0.1-0.3-0.3c0-0.1,0-0.1,0-0.2c0-5,0-10,0-15.1c0-0.1,0-0.2,0-0.3c0.1-0.2,0.2-0.2,0.3-0.1c0.1,0.1,0.2,0.1,0.3,0.2
		c0.8,0.9,1.7,1.7,2.5,2.6c0.1,0.1,0.2,0.2,0.3,0.3c0.1,0.1,0.2,0.1,0.3,0c0.7-0.7,1.3-1.3,2-2c0.4-0.4,0.8-0.8,1.1-1.2
		c0.1-0.1,0.1-0.1,0.2-0.2c0.2-0.1,0.4,0,0.4,0.2c0,0.1,0,0.2,0,0.3C36.2,44.3,36.2,46.8,36.2,49.4z"/>
	<path class="st1" d="M26.5,48.8c0,2.7,0,5.4,0,8.1c0,0.4-0.1,0.6-0.6,0.6c-2.2,0-4.3,0-6.5,0c-0.4,0-0.6-0.2-0.6-0.6
		c0-3.1,0-6.2,0-9.3c0-0.1,0-0.3,0-0.4c0-0.2,0.1-0.4,0.3-0.5c0.1-0.1,0.2-0.2,0.2-0.2c2.2-2.1,4.3-4.1,6.5-6.2
		c0.1-0.1,0.2-0.1,0.3-0.2c0.1-0.1,0.3,0,0.3,0.1c0,0.1,0,0.2,0,0.3c0,0.6,0,1.2,0,1.9C26.5,44.6,26.5,46.7,26.5,48.8z"/>
	<path class="st1" d="M26.8,36.3c-0.1,0.1-0.1,0.1-0.2,0.2c-2.7,2.7-5.4,5.4-8.1,8.1c-0.2,0.2-0.3,0.2-0.5,0
		c-0.4-0.4-0.8-0.8-1.2-1.2c-0.2-0.2-0.2-0.2,0-0.4c0.8-0.8,1.5-1.5,2.3-2.3c2.5-2.5,5-5,7.5-7.5c0.3-0.3,0.3-0.3,0.5,0
		c1.7,1.7,3.3,3.3,5,5c0.1,0.1,0.1,0.1,0.2,0.2c3.9-3.9,7.7-7.7,11.6-11.6c0,0-0.1-0.1-0.1-0.1c-0.3-0.3-0.6-0.6-0.9-0.9
		c0,0-0.1-0.1-0.1-0.1c-0.2-0.2-0.1-0.3,0.1-0.4c0.3-0.1,0.6-0.1,0.9-0.2c1.4-0.3,2.8-0.6,4.2-0.9c0,0,0,0,0,0
		c0.2-0.1,0.4,0.1,0.3,0.3C48.1,24.7,48,24.8,48,25c-0.3,1.5-0.7,3.1-1,4.6c0,0.1,0,0.2-0.1,0.2c-0.1,0-0.2,0-0.2-0.1
		c-0.3-0.3-0.7-0.7-1-1c-0.1-0.1-0.1-0.1-0.2-0.2c-0.1,0.1-0.2,0.2-0.2,0.2c-1.8,1.8-3.5,3.5-5.3,5.3c-2.5,2.5-5,5-7.5,7.5
		c-0.3,0.3-0.3,0.3-0.5,0c-1.7-1.7-3.3-3.3-5-5C26.9,36.5,26.8,36.4,26.8,36.3z"/>
	<path class="st1" d="M10.3,11.5C10.3,11.5,10.4,11.5,10.3,11.5c0.7,0.4,1,1,1.2,1.6c0.2,0.7,0.2,1.5,0.2,2.2c0,0.4-0.1,0.8-0.3,1.1
		c-0.4,0.9-1,1.5-2,1.7c-0.7,0.2-1.4,0.2-2.2,0c-0.9-0.2-1.6-0.8-1.9-1.7C5,15.4,5,14.3,5.3,13.1c0.2-0.7,0.6-1.2,1.2-1.6
		c0,0,0,0,0.1-0.1c0,0-0.1-0.1-0.1-0.1c-0.6-0.6-1-1.3-1.1-2.1C5.2,8.7,5.3,8,5.4,7.4c0.3-1,1-1.6,2-1.9c0.7-0.2,1.4-0.2,2.1,0
		c1,0.3,1.6,1,1.9,2c0.2,0.7,0.2,1.5,0,2.3C11.2,10.5,10.9,11,10.3,11.5C10.4,11.4,10.3,11.5,10.3,11.5z M9.5,14.5
		c0-0.3,0-0.5-0.1-0.8c0-0.2-0.1-0.5-0.2-0.7c-0.1-0.4-0.4-0.5-0.8-0.5c-0.4,0-0.7,0.2-0.8,0.5c0,0.1-0.1,0.2-0.1,0.3
		c-0.1,0.6-0.2,1.3-0.1,2c0,0.2,0.1,0.5,0.2,0.7c0.1,0.2,0.3,0.4,0.5,0.4c0.5,0.1,0.9-0.1,1.1-0.6C9.4,15.4,9.4,15,9.5,14.5z
		 M9.3,8.8C9.3,8.8,9.3,8.8,9.3,8.8c0-0.1,0-0.2,0-0.2c0-0.3-0.1-0.6-0.2-0.9c-0.3-0.5-1-0.6-1.3-0.1C7.7,7.7,7.6,7.9,7.6,8.1
		C7.5,8.7,7.5,9.3,7.6,9.8c0,0.2,0.1,0.4,0.2,0.5c0.3,0.4,0.8,0.3,1.1,0c0.1-0.1,0.2-0.3,0.2-0.5C9.2,9.5,9.3,9.1,9.3,8.8z"/>
	<path class="st1" d="M33.2,18.1c-0.2,0-0.3,0-0.5,0c-0.2-1-0.4-2.1-0.7-3.1c0,0,0,0,0,0c0,1,0,2-0.1,3.1c-0.2,0-0.4,0-0.6,0
		c0-1.6,0.1-3.1,0.1-4.7c0.3,0,0.6,0,0.9,0c0.2,1.1,0.4,2.1,0.7,3.2c0,0,0,0,0,0c0.1-0.5,0.2-1.1,0.3-1.6c0.1-0.5,0.2-1.1,0.3-1.6
		c0.3,0,0.6,0,0.9,0c0.1,1.6,0,3.1,0.1,4.7c-0.2,0-0.4,0-0.6,0c0-1,0-2.1-0.1-3.1c-0.1,0.3-0.2,0.7-0.3,1c-0.1,0.3-0.1,0.7-0.2,1
		C33.4,17.4,33.3,17.7,33.2,18.1z"/>
	<path class="st1" d="M53.6,18.1c-0.2,0-0.4,0-0.7,0c-0.2-1-0.3-2-0.5-3c0,0,0,0-0.1,0c-0.2,1-0.3,2-0.5,3c-0.2,0-0.5,0-0.7,0
		c-0.2-1.6-0.5-3.1-0.7-4.7c0.2-0.1,0.5-0.1,0.7,0c0.1,1,0.2,1.9,0.4,2.9c0,0,0,0,0.1,0c0.2-1,0.3-1.9,0.5-2.9c0.2,0,0.4,0,0.6,0
		c0.2,1,0.3,1.9,0.5,2.9c0,0,0,0,0.1,0c0.1-1,0.2-1.9,0.4-2.9c0.2,0,0.4,0,0.7,0C54,15,53.8,16.5,53.6,18.1z"/>
	<path class="st1" d="M33.8,5.6c0.3,0,0.5,0,0.7,0c0.1,1,0.2,1.9,0.4,2.9c0,0,0,0,0,0c0.2-1,0.3-1.9,0.5-2.9c0.2,0,0.4,0,0.6,0
		c0.2,1,0.3,1.9,0.5,2.9c0,0,0,0,0,0c0.1-1,0.2-1.9,0.4-2.9c0.2,0,0.5,0,0.7,0c-0.2,1.6-0.5,3.1-0.7,4.7c-0.2,0-0.4,0-0.7,0
		c-0.2-1-0.3-2-0.5-3c0,0,0,0,0,0c-0.1,0.5-0.2,1-0.3,1.5c-0.1,0.5-0.2,1-0.3,1.5c-0.2,0-0.5,0-0.7,0C34.2,8.8,34,7.2,33.8,5.6z"/>
	<path class="st1" d="M54.4,10.3c0-1.6,0-3.1,0-4.7c0.1,0,0.1,0,0.1,0c0.4,0,0.8,0,1.3,0c0.1,0,0.1,0,0.2,0c0.6,0.1,1,0.5,1,1.1
		c0,0.3,0,0.7,0,1c0,0.4,0,0.9,0,1.3c0,0.2-0.1,0.4-0.1,0.6c-0.1,0.3-0.3,0.5-0.6,0.6c-0.1,0-0.3,0.1-0.4,0.1
		C55.4,10.3,54.9,10.3,54.4,10.3z M55.3,6.2c0,1.2,0,2.4,0,3.6c0.2,0,0.3,0,0.5,0c0.2,0,0.3-0.2,0.3-0.3c0-0.1,0-0.2,0-0.3
		c0-0.7,0-1.4,0-2.2c0-0.1,0-0.2,0-0.3c0-0.2-0.2-0.3-0.3-0.3C55.6,6.2,55.5,6.2,55.3,6.2z"/>
	<path class="st1" d="M16.4,10.3c0-1.6,0-3.1,0-4.7c0.1,0,0.1,0,0.1,0c0.4,0,0.9,0,1.3,0c0.1,0,0.1,0,0.2,0c0.6,0.1,1,0.5,1,1.1
		c0,0.3,0,0.7,0,1c0,0.4,0,0.9,0,1.3c0,0.2,0,0.3-0.1,0.5c-0.1,0.4-0.4,0.7-0.8,0.8c-0.2,0-0.3,0-0.5,0
		C17.3,10.3,16.9,10.3,16.4,10.3z M17.3,6.2c0,1.2,0,2.4,0,3.5c0.2,0,0.3,0,0.4,0c0.2,0,0.3-0.2,0.4-0.4c0-0.1,0-0.2,0-0.3
		c0-0.7,0-1.5,0-2.2c0-0.1,0-0.2,0-0.3c0-0.2-0.1-0.3-0.3-0.3C17.7,6.2,17.5,6.2,17.3,6.2z"/>
	<path class="st1" d="M44.3,13.4c0.4,0,0.9,0,1.3,0c0.1,0,0.3,0,0.4,0.1c0.5,0.1,0.8,0.4,0.8,0.9c0,0.2,0,0.4,0,0.7
		c0,0.3-0.2,0.6-0.5,0.8c0.2,0.8,0.4,1.5,0.7,2.3c-0.3,0-0.6,0-0.9,0c-0.2-0.7-0.4-1.4-0.6-2.1c-0.1,0-0.3,0-0.4,0
		c0,0.7,0,1.4,0,2.1c-0.3,0-0.6,0-0.8,0C44.2,18,44.2,13.7,44.3,13.4z M45.1,14c0,0.5,0,0.9,0,1.4c0.2,0,0.4,0,0.5,0
		c0.2,0,0.3-0.1,0.3-0.3c0.1-0.3,0.1-0.5,0-0.8c0-0.1-0.1-0.2-0.3-0.3C45.5,14,45.3,13.9,45.1,14z"/>
	<path class="st1" d="M41.1,5.6c0.1,0,0.1,0,0.1,0c0.4,0,0.9,0,1.3,0c0.1,0,0.3,0,0.4,0.1c0.4,0.1,0.7,0.4,0.7,0.8
		c0,0.3,0,0.5,0,0.8c-0.1,0.3-0.2,0.5-0.5,0.7c0.2,0.8,0.4,1.6,0.7,2.3c-0.3,0-0.6,0-0.9,0c-0.2-0.7-0.4-1.4-0.6-2.2
		c-0.1,0-0.2,0-0.4,0c0,0.2,0,0.5,0,0.7c0,0.2,0,0.5,0,0.7c0,0.2,0,0.5,0,0.7c-0.3,0-0.5,0-0.8,0C41.1,10.2,41.1,6,41.1,5.6z
		 M42,7.6c0.2,0,0.3,0,0.5,0c0.2,0,0.4-0.2,0.4-0.4c0.1-0.2,0-0.4,0-0.7c0-0.1-0.1-0.2-0.2-0.3c-0.2-0.1-0.4-0.1-0.6-0.1
		C42,6.7,42,7.1,42,7.6z"/>
	<path class="st1" d="M59.7,18.1c-0.3,0-0.5,0-0.8,0c0-0.7,0-1.4,0-2.1c-0.3,0-0.6,0-1,0c0,0.7,0,1.4,0,2.1c-0.3,0-0.6,0-0.8,0
		c0-1.6,0-3.1,0-4.7c0.3,0,0.5,0,0.8,0c0,0.2,0,0.4,0,0.6c0,0.2,0,0.4,0,0.7c0,0.2,0,0.4,0,0.7c0.3,0,0.6,0,1,0c0-0.2,0-0.4,0-0.6
		c0-0.2,0-0.4,0-0.7c0-0.2,0-0.4,0-0.7c0.3,0,0.6,0,0.8,0C59.8,13.6,59.8,17.8,59.7,18.1z"/>
	<path class="st1" d="M50.1,15.8c0,0.3,0,0.7,0,1c0,0.2,0,0.4-0.1,0.6c-0.1,0.4-0.4,0.7-0.8,0.8c-0.3,0.1-0.6,0.1-0.9,0
		c-0.4-0.1-0.6-0.3-0.7-0.7c-0.1-0.2-0.1-0.5-0.1-0.7c0-0.7,0-1.4,0-2.1c0-0.3,0.1-0.5,0.2-0.8c0.1-0.3,0.3-0.4,0.6-0.5
		c0.3-0.1,0.7-0.1,1,0c0.5,0.1,0.8,0.5,0.9,0.9c0,0.2,0,0.3,0.1,0.5C50.1,15.1,50.1,15.4,50.1,15.8z M49.2,15.8c0-0.4,0-0.7,0-1.1
		c0-0.1,0-0.3,0-0.4c-0.1-0.2-0.2-0.3-0.5-0.3c-0.2,0-0.4,0.1-0.4,0.3c0,0.1,0,0.2,0,0.3c0,0.8,0,1.5,0,2.3c0,0.1,0,0.2,0,0.4
		c0.1,0.2,0.2,0.3,0.5,0.3c0.2,0,0.4-0.1,0.4-0.3c0-0.1,0-0.3,0-0.4C49.2,16.5,49.2,16.1,49.2,15.8z"/>
	<path class="st1" d="M37.9,7.9c0-0.4,0-0.8,0-1.1c0-0.2,0-0.3,0.1-0.5c0.1-0.4,0.4-0.6,0.7-0.7c0.3-0.1,0.7-0.1,1,0
		c0.5,0.1,0.8,0.5,0.8,1c0,0.2,0,0.3,0,0.5c0,0.6,0,1.2,0,1.8c0,0.2,0,0.4-0.1,0.7c-0.1,0.5-0.5,0.9-1.1,0.9c-0.2,0-0.5,0-0.7,0
		c-0.4-0.1-0.6-0.3-0.7-0.6c-0.1-0.2-0.1-0.4-0.1-0.6C37.9,8.7,37.9,8.3,37.9,7.9C37.9,7.9,37.9,7.9,37.9,7.9z M38.8,8
		c0,0.4,0,0.8,0,1.1c0,0.1,0,0.2,0,0.3c0.1,0.3,0.2,0.4,0.5,0.4c0.3,0,0.4-0.1,0.5-0.4c0-0.1,0-0.2,0-0.2c0-0.8,0-1.6,0-2.3
		c0-0.1,0-0.2-0.1-0.3c-0.1-0.2-0.2-0.3-0.5-0.3c-0.2,0-0.4,0.1-0.4,0.3c0,0.1,0,0.2,0,0.3C38.8,7.2,38.8,7.6,38.8,8z"/>
	<path class="st1" d="M30.8,15.7c0,0.3,0,0.6,0,1c0,0.2,0,0.5-0.1,0.7c-0.1,0.4-0.4,0.6-0.8,0.7c-0.3,0.1-0.6,0.1-0.9,0
		c-0.3-0.1-0.6-0.3-0.7-0.6c-0.1-0.2-0.1-0.4-0.1-0.7c0-0.7,0-1.5,0-2.2c0-0.2,0.1-0.4,0.1-0.6c0.1-0.3,0.4-0.5,0.7-0.6
		c0.3-0.1,0.6-0.1,1,0c0.5,0.1,0.8,0.5,0.9,1c0,0.2,0,0.3,0,0.5C30.8,15.1,30.8,15.4,30.8,15.7z M28.9,15.7c0,0.4,0,0.8,0,1.1
		c0,0.1,0,0.2,0,0.3c0.1,0.2,0.2,0.4,0.5,0.4c0.3,0,0.4-0.1,0.5-0.4c0-0.1,0-0.3,0-0.4c0-0.7,0-1.3,0-2c0-0.1,0-0.3,0-0.4
		c0-0.3-0.2-0.4-0.5-0.4c-0.3,0-0.4,0.1-0.5,0.3c0,0.1,0,0.2,0,0.3C28.9,15,28.9,15.4,28.9,15.7z"/>
	<path class="st1" d="M21.8,15.7c0-0.4,0-0.8,0-1.1c0-0.2,0.1-0.4,0.2-0.6c0.1-0.3,0.3-0.4,0.6-0.5c0.4-0.1,0.7-0.1,1.1,0
		c0.3,0.1,0.6,0.3,0.7,0.6c0.1,0.3,0.1,0.5,0.2,0.8c0,0.6,0,1.3,0,1.9c0,0.2,0,0.5-0.1,0.7c-0.1,0.5-0.5,0.7-0.9,0.8
		c-0.3,0-0.5,0-0.8,0c-0.3-0.1-0.6-0.3-0.7-0.6c-0.1-0.2-0.1-0.4-0.1-0.6C21.8,16.5,21.8,16.1,21.8,15.7
		C21.8,15.7,21.8,15.7,21.8,15.7z M23.7,15.8c0-0.4,0-0.7,0-1.1c0-0.1,0-0.2,0-0.3c0-0.3-0.2-0.4-0.5-0.4c-0.3,0-0.4,0.1-0.5,0.4
		c0,0.1,0,0.1,0,0.2c0,0.8,0,1.6,0,2.5c0,0.1,0,0.2,0.1,0.3c0.1,0.2,0.2,0.3,0.4,0.3c0.2,0,0.4-0.1,0.4-0.3c0-0.1,0.1-0.3,0.1-0.4
		C23.7,16.5,23.7,16.1,23.7,15.8z"/>
	<path class="st1" d="M25.1,13.4c0.2,0,0.4,0,0.6,0c0.2,0.4,0.4,0.9,0.6,1.3c0.2,0.4,0.4,0.8,0.5,1.3c0,0,0,0,0,0c0,0,0,0,0,0
		c0,0,0,0,0,0c0-0.8,0-1.6,0-2.5c0,0,0,0,0,0c0.2,0,0.4,0,0.6,0c0,0.2,0.1,4.5,0,4.7c-0.2,0-0.3,0-0.5,0c-0.4-0.9-0.7-1.8-1.1-2.7
		c-0.1,0.2-0.1,0.4-0.1,0.5c0,0.2,0,0.4,0,0.5c0,0.2,0,0.3,0,0.5c0,0.2,0,0.4,0,0.5c0,0.2,0,0.4,0,0.6c-0.2,0-0.5,0-0.7,0
		C25.1,18,25,13.7,25.1,13.4z"/>
	<path class="st1" d="M29.7,10.3c-0.2,0-0.3,0-0.5,0c-0.4-0.9-0.8-1.8-1.1-2.7C28,7.8,28,8,28,8.1c0,0.2,0,0.4,0,0.5s0,0.4,0,0.5
		c0,0.2,0,0.4,0,0.5c0,0.2,0,0.4,0,0.6c-0.2,0-0.5,0-0.7,0c0-1.6,0-3.1,0-4.7c0.2,0,0.3,0,0.5,0c0.1,0,0.1,0,0.1,0.1
		c0,0.1,0.1,0.2,0.2,0.4c0.3,0.6,0.6,1.3,0.8,1.9c0,0.1,0.1,0.1,0.1,0.2c0,0,0,0,0,0c0-0.8,0-1.7,0-2.6c0.2,0,0.5,0,0.7,0
		C29.7,5.8,29.8,10.1,29.7,10.3z"/>
	<path class="st1" d="M51.4,5.6C51.4,5.6,51.5,5.6,51.4,5.6C52,5.6,52,5.6,52.1,6c0.3,0.7,0.6,1.3,0.9,2c0,0.1,0.1,0.1,0.1,0.2
		c0-0.8,0-1.7,0-2.6c0.2,0,0.4,0,0.7,0c0,1.6,0,3.1,0,4.7c-0.2,0-0.4,0-0.5,0c-0.4-0.9-0.8-1.8-1.1-2.7c0,0,0,0,0,0
		c0,0.9,0,1.8,0,2.7c-0.2,0-0.5,0-0.7,0C51.4,8.8,51.4,7.2,51.4,5.6z"/>
	<path class="st1" d="M42.9,16.3c-0.1,0-0.2,0-0.2,0c-0.1,0-0.2,0-0.2,0c0-0.2,0-0.3,0-0.5c0.4,0,0.8,0,1.2,0c0,0.2,0.1,2.1,0,2.4
		c-0.2,0-0.3,0-0.5,0c0-0.1,0-0.3-0.1-0.4c0,0.1-0.1,0.1-0.1,0.1c-0.1,0.2-0.3,0.3-0.5,0.3c-0.8,0.1-1.2-0.2-1.3-0.8
		c-0.1-0.2-0.1-0.4-0.1-0.6c0-0.6,0-1.3,0-1.9c0-0.2,0-0.4,0.1-0.6c0.1-0.5,0.5-0.7,1-0.8c0.3,0,0.5,0,0.8,0.1
		c0.3,0.1,0.5,0.3,0.6,0.6c0.1,0.3,0.1,0.6,0.1,1c-0.3,0-0.5,0-0.8,0c0-0.1,0-0.2,0-0.2c0-0.1,0-0.3,0-0.4c0-0.2-0.2-0.3-0.4-0.3
		c-0.2,0-0.4,0.1-0.5,0.2c0,0.1-0.1,0.2-0.1,0.3c0,0.8,0,1.6,0,2.4c0,0.1,0,0.2,0,0.3c0.1,0.2,0.2,0.3,0.4,0.4
		c0.2,0,0.4-0.1,0.5-0.3c0,0,0-0.1,0-0.1C43,16.9,42.9,16.6,42.9,16.3z"/>
	<path class="st1" d="M45.3,8.1c-0.1,0.2-0.2,0.3-0.2,0.5c0,0.5,0,1,0,1.5c0,0.1,0,0.2,0,0.3c-0.3,0-0.5,0-0.8,0
		c-0.1-0.2-0.1-4.4,0-4.7c0.2,0,0.6-0.1,0.8,0c0,0.6,0,1.3,0,1.9c0,0,0.1-0.1,0.1-0.1c0.2-0.5,0.5-1.1,0.7-1.6
		c0.1-0.1,0.1-0.2,0.3-0.2c0.2,0,0.4,0,0.6,0c0,0.1-0.1,0.2-0.1,0.2C46.5,6.4,46.3,7,46,7.5c-0.1,0.1,0,0.2,0,0.3
		c0.3,0.7,0.6,1.5,0.8,2.2c0,0.1,0,0.1,0.1,0.2c-0.3,0-0.6,0-0.8,0C45.8,9.6,45.5,8.9,45.3,8.1z"/>
	<path class="st1" d="M21.4,16.4c0,0.3,0,0.6-0.1,0.9c-0.1,0.5-0.4,0.8-1,0.9c-0.3,0-0.5,0-0.8-0.1c-0.3-0.1-0.6-0.3-0.7-0.6
		c-0.1-0.2-0.1-0.5-0.1-0.7c0-0.7,0-1.5,0-2.2c0-0.2,0.1-0.4,0.1-0.5c0.1-0.3,0.3-0.5,0.7-0.6c0.3-0.1,0.7-0.1,1,0
		c0.4,0.1,0.7,0.4,0.8,0.8c0.1,0.3,0.1,0.6,0,0.9c-0.3,0-0.5,0-0.8,0c0-0.1,0-0.2,0-0.3c0-0.2,0-0.3,0-0.5c0-0.2-0.2-0.3-0.4-0.3
		c-0.2,0-0.4,0.1-0.5,0.3c0,0.1,0,0.1,0,0.2c0,0.9,0,1.7,0,2.6c0,0.1,0,0.1,0,0.2c0.1,0.2,0.2,0.3,0.4,0.3c0.2,0,0.4-0.1,0.4-0.3
		c0-0.1,0-0.3,0-0.4c0-0.1,0-0.3,0-0.4C20.8,16.4,21.1,16.4,21.4,16.4z"/>
	<path class="st1" d="M39.3,15.1c-0.3,0-0.5,0-0.8,0c0-0.1,0-0.2,0-0.2c0-0.2,0-0.3,0-0.5c0-0.2-0.2-0.4-0.4-0.4
		c-0.2,0-0.4,0.1-0.5,0.3c0,0.1,0,0.2,0,0.4c0,0.7,0,1.5,0,2.2c0,0.1,0,0.3,0.1,0.4c0.1,0.2,0.2,0.3,0.4,0.3c0.2,0,0.4-0.1,0.4-0.3
		c0-0.1,0-0.2,0-0.3c0-0.2,0-0.4,0-0.6c0.3,0,0.5,0,0.8,0c0.1,0.2,0,0.3,0,0.5c0,0.2,0,0.4-0.1,0.6c-0.1,0.4-0.4,0.6-0.8,0.7
		c-0.3,0.1-0.6,0.1-0.9,0c-0.5-0.1-0.8-0.5-0.9-1c0-0.2,0-0.4,0-0.5c0-0.6,0-1.1,0-1.7c0-0.3,0-0.5,0.1-0.8c0.1-0.4,0.4-0.6,0.7-0.7
		c0.3-0.1,0.7-0.1,1,0c0.4,0.1,0.6,0.3,0.7,0.7C39.3,14.4,39.3,14.7,39.3,15.1z"/>
	<path class="st1" d="M23.6,8.6c0.3,0,0.5,0,0.8,0c0,0.1,0,0.2,0,0.3c0,0.2,0,0.5-0.1,0.7c-0.1,0.4-0.4,0.6-0.8,0.7
		c-0.3,0.1-0.5,0.1-0.8,0c-0.5-0.1-0.8-0.4-0.9-1c0-0.2,0-0.3,0-0.5c0-0.6,0-1.3,0-1.9c0-0.2,0.1-0.5,0.1-0.7
		c0.1-0.4,0.4-0.6,0.7-0.7c0.3-0.1,0.6-0.1,1,0c0.4,0.1,0.7,0.4,0.7,0.8c0.1,0.3,0.1,0.6,0,0.9c-0.3,0-0.5,0-0.8,0
		c0-0.1,0-0.2,0-0.2c0-0.2,0-0.3,0-0.5c0-0.2-0.2-0.4-0.4-0.4c-0.3,0-0.4,0.1-0.5,0.3c0,0.1,0,0.2,0,0.3c0,0.7,0,1.5,0,2.2
		c0,0.1,0,0.2,0,0.4c0.1,0.2,0.2,0.4,0.5,0.3c0.2,0,0.4-0.1,0.4-0.4c0-0.2,0-0.4,0-0.7C23.6,8.7,23.6,8.6,23.6,8.6z"/>
	<path class="st1" d="M51,10.3c-0.3,0-0.5,0-0.8,0c0-0.2-0.1-0.4-0.1-0.5c0-0.2-0.1-0.4-0.1-0.5c-0.3,0-0.5,0-0.8,0
		c0,0.2-0.1,0.4-0.1,0.5c0,0.2-0.1,0.4-0.1,0.5c-0.3,0-0.5,0-0.8,0c0.3-1.6,0.6-3.1,1-4.7c0.3,0,0.6,0,0.9,0
		C50.4,7.2,50.7,8.7,51,10.3z M49.7,6.8C49.7,6.8,49.6,6.8,49.7,6.8c-0.2,0.6-0.2,1.2-0.4,1.8c0.2,0,0.4,0,0.6,0
		C49.9,8,49.8,7.4,49.7,6.8z"/>
	<path class="st1" d="M26.6,8.2c-0.3,0-0.6,0-0.9,0c0,0.5,0,1,0,1.6c0.4,0,0.7,0,1.1,0c0,0.2,0,0.4,0,0.6c-0.7,0-1.3,0-2,0
		c0-1.6,0-3.1,0-4.7c0.7,0,1.3,0,2,0c0,0.2,0,0.4,0,0.6c-0.4,0-0.7,0-1.1,0c-0.1,0.2-0.1,1.1,0,1.4c0.3,0,0.6,0,0.8,0
		C26.6,7.8,26.6,8,26.6,8.2z"/>
	<path class="st1" d="M18.4,17.6c0,0.2,0,0.4,0,0.5c-0.7,0-1.3,0-2,0c0-1.6,0-3.1,0-4.7c0.6,0,1.3,0,1.9,0c0,0.2,0,0.4,0,0.6
		c-0.4,0-0.7,0-1.1,0c0,0.5,0,0.9,0,1.4c0.3,0,0.6,0,0.9,0c0,0.2,0,0.4,0,0.6c-0.3,0-0.6,0-0.9,0c0,0.5,0,1,0,1.6
		C17.7,17.6,18,17.5,18.4,17.6z"/>
	<path class="st1" d="M21.5,5.6c0,0.2,0,0.4,0,0.6c-0.4,0-0.7,0-1.1,0c-0.1,0.2-0.1,1.1,0,1.4c0.3,0,0.6,0,0.8,0c0,0.2,0,0.4,0,0.6
		c-0.3,0-0.6,0-0.8,0c-0.1,0.2-0.1,1.4,0,1.6c0.4,0,0.7,0,1.1,0c0,0.2,0,0.4,0,0.6c-0.2,0-1.5,0.1-1.9,0c0-0.1-0.1-4.4,0-4.7
		C19.7,5.6,21.2,5.6,21.5,5.6z"/>
	<path class="st1" d="M56.8,14c-0.2,0-0.5,0-0.8,0c0,1.4,0,2.7,0,4.1c-0.3,0-0.6,0-0.9,0c0-1.4,0-2.7,0-4.1c-0.3,0-0.5,0-0.8,0
		c0-0.2,0-0.4,0-0.6c0.2,0,2.1-0.1,2.4,0C56.8,13.6,56.8,13.8,56.8,14z"/>
	<path class="st1" d="M31.6,10.3c-0.3,0-0.6,0-0.8,0c0-0.7,0-1.4,0-2.1c0-0.7,0-1.4,0-2.1c-0.3,0-0.5,0-0.8,0c0-0.2,0-0.4,0-0.6
		c0.2-0.1,2.1-0.1,2.4,0c0,0.2,0,0.4,0,0.6c-0.2,0-0.5,0-0.7,0c0,0.2,0,0.5,0,0.7c0,0.2,0,0.4,0,0.7c0,0.2,0,0.5,0,0.7
		c0,0.2,0,0.4,0,0.7c0,0.2,0,0.5,0,0.7C31.6,9.9,31.6,10.1,31.6,10.3z"/>
	<path class="st1" d="M36.1,18.1c-0.3,0-0.5,0-0.8,0c0-0.2-0.1-4.4,0-4.7c0.3,0,0.5,0,0.8,0C36.1,13.5,36.1,17.8,36.1,18.1z"/>
</g>
</svg>
