<svg xmlns="http://www.w3.org/2000/svg" viewBox="0 0 262.64 289.1"><defs><style>.cls-1{fill:#fabca8;}.cls-2{fill:#384850;}.cls-3{fill:#273339;}.cls-4{fill:#fed109;}.cls-5{fill:#f4f4f4;}.cls-6{fill:#d4d5d8;}.cls-7{fill:#f19b7b;}.cls-8{fill:#455c66;}.cls-9{fill:#b89a2d;}.cls-10{fill:#8b7430;}.cls-11{fill:#9b8231;}.cls-12{fill:#d8b324;}.cls-13{fill:#816e30;}.cls-14{fill:#ab8e30;}.cls-15{fill:#917a31;}.cls-16{fill:#eaeaea;}.cls-17{fill:#fbfdff;}.cls-18{fill:#ffe696;}.cls-19{fill:#d7d6d6;}.cls-20{fill:#e2e2e2;}.cls-21{fill:#897430;}.cls-22{fill:#e8d18b;}.cls-23{fill:#e0e0df;}.cls-24{fill:#f1f1f1;}.cls-25{fill:#f59090;}.cls-26{fill:#cdcbca;}.cls-27{fill:#d07f7f;}.cls-28{fill:#40545c;}.cls-29{fill:#fab69d;}.cls-30{fill:#5f532c;}.cls-31{fill:#fff;}.cls-32{fill:#0585c8;}.cls-33{fill:#ab9b72;}.cls-34{fill:#beab77;}.cls-35{fill:#fcd3c1;}.cls-36{fill:#918569;}.cls-37{fill:#7fabdb;}.cls-38{fill:#b06253;}.cls-39{fill:#fabaa6;}.cls-40{fill:#ef987b;}.cls-41{fill:#b7982d;}.cls-42{fill:#d8b224;}.cls-43{fill:#b1bec5;}.cls-44{fill:#d4d2d2;}.cls-45{fill:#99a4aa;}.cls-46{fill:#bec8ce;}.cls-47{fill:#b8c4c9;}.cls-48{fill:#b3c0c8;}.cls-49{fill:#7f8588;}.cls-50{fill:#717578;}.cls-51{fill:#63686a;}.cls-52{fill:#878f93;}.cls-53{fill:#454647;}.cls-54{fill:#535658;}.cls-55{fill:#757b7e;}.cls-56{fill:#696e70;}.cls-57{fill:#4b4e4f;}.cls-58{fill:#595c5e;}.cls-59{fill:#cfcfcf;}.cls-60{fill:#ccd4d9;}.cls-61{fill:#b2b6b9;}.cls-62{fill:#696e71;}</style></defs><g id="Layer_2" data-name="Layer 2"><g id="Layer_1-2" data-name="Layer 1"><path class="cls-1" d="M79.3,135.37l8.21-8.74s4.1-10.73,6.68-14.39c2.16-3,3.93-4.2,8-3.85l-4,10.5s-6,10.18-7.43,11.85l-11.54,8c0-1.13.1-2.27.16-3.4"/><path class="cls-2" d="M120.25,207.91c.33,1.42.59,2.86.78,4.31.21,1.63.34,2.83.81,5.62.43,2.54.76,4.49-1,6.38-1.58,1.68-4.36,2.33-5.28.42-1-2.18-.9-5.72-.76-7.93s.11-2.85.12-4.6c0-1.55.09-2.18.18-3.52,1.7-.08,3.48-.54,5.18-.68"/><path class="cls-3" d="M101.51,216.13l-.6-.1c0-1.83.07-3.49-.38-4.36l.83-2.24Z"/><path class="cls-3" d="M102.93,207.81c-.14,1.25-.85,2.54-.9,5a22.09,22.09,0,0,0,.07,3.15l-.6.17-.14-6.69Z"/><path class="cls-3" d="M89.15,217.8s0,.74.34,1,1,1,4.19.76,4.34-1,5.44-2,1.39-3.63,1.55-4.87a9.12,9.12,0,0,1,2.26-4.88,2.13,2.13,0,0,0,.08-1.25,4.07,4.07,0,0,0-3.81,2.8c-1.15,2.94-2,6.36-4.65,7.17a43.25,43.25,0,0,1-5.4,1.28"/><path class="cls-1" d="M120.25,207.91c0-2.07,0-4.83.19-8.48.21-4.25.24-7.57.23-12.08a62.67,62.67,0,0,0-1.41-13c1.29-13.14,1.76-26.72.2-31.71-1.33-4.29-2.68-5.71-3.89-7.81-.62-1.08-1.76-2.7-1.76-4.15a27,27,0,0,1-9.48,1.85c-6.09.05-8.22-1.6-8.22-1.6s-2.74,31.83-2.17,42.22c.34,6.15.83,15.25,1,19.72.14,3.45.54,7.94.5,9.84a16.09,16.09,0,0,1-1,4.85,34.85,34.85,0,0,1-2,4.91,4.92,4.92,0,0,1-.74,1.17A13.06,13.06,0,0,1,90.37,215c-1,.85-1.47,1.27-1.39,2s.67,1.1,1.34,1.3a10.85,10.85,0,0,0,4.94,0c1.58-.27,3.35-1,4-2.53a6.09,6.09,0,0,0,.38-1.39,19.59,19.59,0,0,1,1.21-4.58,10.3,10.3,0,0,1,.89-1.79,4.61,4.61,0,0,0,1-2,4.73,4.73,0,0,0-1-2.45c-.55-.82-.4-1.39-.21-4,.41-5.59,1.55-9.61,2.5-16.4a31.41,31.41,0,0,0-.2-9.82c.65-4.45,1.77-9.12,2.44-12.19,1.06,6.43,1.75,8.78,2.33,13.63.81,6.74,4.6,20.85,5.21,24.48s1,6.06,1.26,9c.24,2.55.43,7.69.75,10,.5,3.74,4.38,2.6,5-.7.42-2.21-.51-6.87-.54-9.74"/><path class="cls-2" d="M102.74,204.73c-.46-.8-.87-1-1.32-1.73a3.55,3.55,0,0,0-1,1.69c-.19.65-.7,3.8-1.49,6.31A4.77,4.77,0,0,1,96,214.4a5.44,5.44,0,0,1-2.65.3c-1.67-.23-1.28-1.44-1.28-1.44-.39.54-2,1.83-2.92,2.79a1.45,1.45,0,0,0,.12,1.9c.46.4,1.55,1.2,5.54.62,3.54-.5,4.38-2.15,4.71-2.89a17.12,17.12,0,0,0,.73-3.32,10.79,10.79,0,0,1,1.25-3.53l.23-.38a13,13,0,0,1,.84-1.12c.25-.3.44-.44.5-.73a2.66,2.66,0,0,0-.31-1.87"/><path class="cls-4" d="M95.22,124.13c.09,1.76.88,6.82.88,6.82,7.21,4.88,17.71-.25,17.71-.25l2-12a8.13,8.13,0,0,1-.8-10l-5.72-.37-6.12,0-3.13-.07c-2.2,1.62-6,5.76-6.71,7.57s-1.27,4.48,1.92,8.25"/><path class="cls-5" d="M95.22,124.13c.09,1.76.88,6.82.88,6.82,7.21,4.88,17.71-.25,17.71-.25l2-12a8.13,8.13,0,0,1-.8-10l-5.72-.37-6.12,0-3.13-.07c-2.2,1.62-6,5.76-6.71,7.57s-1.27,4.48,1.92,8.25"/><path class="cls-6" d="M111.49,120.25a5.39,5.39,0,0,1-3.3,4.33,5.6,5.6,0,0,1-2.28.46,5.22,5.22,0,0,1-3.62-1.21c.14.62,1.55,2.07,3.84,2.07a6.27,6.27,0,0,0,2.36-.49,4.72,4.72,0,0,0,3-5.16"/><path class="cls-2" d="M94.7,93.21a10.61,10.61,0,0,1,10.61-10.6h1.24a10.6,10.6,0,0,1,10.58,10.6v5.28a7.69,7.69,0,0,1-7.69,7.69H94.73Z"/><path class="cls-2" d="M114.32,84l0,.06a1.4,1.4,0,0,1-1.75.91l.73-2.77a1.5,1.5,0,0,1,1,1.8"/><path class="cls-2" d="M115,85.47l-.06,0a1.39,1.39,0,0,1-1.9-.49l2.39-1.59a1.51,1.51,0,0,1-.43,2"/><path class="cls-1" d="M103.63,94.55a12.69,12.69,0,0,0,6,1.78,2,2,0,0,1,.42-.75,2.13,2.13,0,0,1,3-.2l.25.33a3.06,3.06,0,0,1-.84,4.23c-1.77,1.18-2.83,0-2.83,0v8.22a13.55,13.55,0,0,1-3.45,3.59c-2.08,1.42-5.16,1.08-5.3-.37s2.09-4,2.09-4v-3.18c-1.61.27-3.27.5-4.13.12s-2.58-1.66-2.7-7c-.15-6.23,1.32-9.21,2.5-9.91a9.67,9.67,0,0,0,5,7.16"/><path class="cls-3" d="M103.33,95.34a.67.67,0,1,1-.7.64.68.68,0,0,1,.7-.64"/><path class="cls-7" d="M101.32,101.48h0a.8.8,0,0,1-1-.53l1.55-.5a.87.87,0,0,1-.55,1"/><path class="cls-3" d="M97.41,92.77l0,0a.78.78,0,0,1,1.08.25l-1.35.94a.88.88,0,0,1,.23-1.17"/><path class="cls-3" d="M97.49,95.5a.68.68,0,0,1,.7-.64.66.66,0,0,1,.63.7.68.68,0,0,1-.7.66h0a.68.68,0,0,1-.62-.72"/><polygon class="cls-7" points="98.53 98.47 100.64 99.12 100.74 95.11 98.53 98.47"/><path class="cls-7" d="M103,105.21s3.45-1,4.51-1.91a3.49,3.49,0,0,0,1.21-1.76c-.54,1.38-4,2.39-5.74,2.61Z"/><path class="cls-8" d="M95.06,195.08c0-.75-.09-1.5-.11-2.18-.19-4.49-.68-13.57-1-19.72C93.38,162.79,96.12,131,96.12,131s2.13,1.65,8.22,1.6a27,27,0,0,0,9.48-1.85c0,1.45,1.14,3.07,1.76,4.15,1.21,2.1,2.56,3.52,3.89,7.81,1.56,5,1.09,18.57-.2,31.71a69.67,69.67,0,0,1,1.5,13.22c0,4.49,0,6.81-.26,11.07-2.16,1.61-6.69.64-6.69.64-.61-3.63-4.4-17.74-5.21-24.48-.58-4.85-1.27-7.2-2.33-13.63l-2.47,12.18a31.41,31.41,0,0,1,.19,9.82c-.69,4.94-1.5,8.41-2,12.09-1,1-5.49,1.28-6.92-.21"/><path class="cls-2" d="M96,130l-.06,3.54a12.87,12.87,0,0,0,6.61,2.07c4.28.28,10.3-1.4,12-2.65a5.78,5.78,0,0,1-.45-3.43,21.25,21.25,0,0,1-10.61,2.37c-6-.29-7.47-1.9-7.47-1.9"/><path class="cls-2" d="M106.24,161.19l-2.49-14.76a11.19,11.19,0,0,1-6-4.21,7.76,7.76,0,0,0,4.54,5.36l2.8,13.82L104,172Z"/><path class="cls-4" d="M123.39,145l-.11-.5,0,0v0l-1.61-.72c-.14.58-.3,1.37-.46,2.26l-7.91,5.66,2.8,12.15,10-7.25a1,1,0,0,0,.39-.59c.31-1.32-2.33-9-3-11"/><path class="cls-9" d="M121.62,143.76a.11.11,0,0,1,0,.05l0,0Zm1.66.72h0Zm1,3.19v0h0v0a.71.71,0,0,1,0,.16,15.73,15.73,0,0,1-.79,2.31,13.31,13.31,0,0,1-2.43,3.73c-.48.35-4,.77-5.44.77l-.45,0c-.7-.08-.92-.23-1-.33.95,2.85,2.29,7.14,2.29,8.56a1.12,1.12,0,0,1,0,.29,1.14,1.14,0,0,1-.31.6l9.92-7.21a1,1,0,0,0,.39-.59,1.87,1.87,0,0,0,0-.27c0-1.33-1.2-5.22-2.13-8.05m-10.18,6.57v0h0"/><polygon class="cls-4" points="123.28 144.5 113.24 151.69 111.64 150.97 121.67 143.77 123.28 144.5"/><path class="cls-10" d="M124.3,147.69h0v0m0,.19c-.37,1.18-2.81,5.42-3.62,5.73a25.78,25.78,0,0,1-5.52.83,1.69,1.69,0,0,1-1-.18h0l0,.08c.07.1.29.25,1,.33l.45,0c1.49,0,5-.42,5.44-.77a13.31,13.31,0,0,0,2.43-3.73,15.73,15.73,0,0,0,.79-2.31"/><path class="cls-4" d="M111.64,151a39.47,39.47,0,0,0-.09,10.8,3.36,3.36,0,0,0,2,1.79c.81.37,2.49,1.15,2.86-.36s-3.17-11.51-3.17-11.51Z"/><path class="cls-11" d="M111.64,151a29,29,0,0,0-.41,5.64,27.79,27.79,0,0,0,.32,5.16,3.36,3.36,0,0,0,2,1.79,4.77,4.77,0,0,0,1.77.53,1,1,0,0,0,1.09-.89,1.12,1.12,0,0,0,0-.29c0-1.42-1.34-5.71-2.29-8.56l0-.08v0a9.22,9.22,0,0,1-.88-2.56Z"/><path class="cls-4" d="M113.24,151.68a9.37,9.37,0,0,0,.88,2.57c.45.57,5.64-.31,6.51-.64s3.63-5.22,3.67-5.94a13.58,13.58,0,0,0-1-3.19Z"/><path class="cls-12" d="M123.28,144.48h0l-10,7.19a9.37,9.37,0,0,0,.88,2.57,1.59,1.59,0,0,0,1,.19,25.78,25.78,0,0,0,5.52-.83c.87-.34,3.63-5.22,3.67-5.94v0a14.7,14.7,0,0,0-1-3.14"/><path class="cls-8" d="M120.34,152.68a.22.22,0,0,0,.4.13.81.81,0,0,0,.22-.69c0-.23-.22-.28-.4-.13a.8.8,0,0,0-.22.69"/><path class="cls-4" d="M113.24,151.68c-2.95-5.44-10.87-19.16-13-27.57s.26-13.29,1.69-15.81h-1.53C98.63,110.46,97,116,98.46,123c2.12,9.92,13.18,28,13.18,28Z"/><path class="cls-11" d="M101.92,108.3h-1.53v0c-1.28,1.58-2.5,4.92-2.5,9.31a25.3,25.3,0,0,0,.58,5.34c.91,4.28,3.49,10.07,6.12,15.27l2,1.16.06,0c-2.69-5.28-5.32-11-6.42-15.32a25.77,25.77,0,0,1-.85-6.36,18.21,18.21,0,0,1,2.54-9.45M107,140a.66.66,0,0,1-.17.29A.66.66,0,0,0,107,140h0m0,0v1.79a.61.61,0,0,1-.26.46c2.67,4.95,4.93,8.64,4.93,8.64l1.6.73-.73-1.34c-1.42-2.58-3.48-6.28-5.54-10.28"/><path class="cls-1" d="M127.79,127.45c-5.35-12-7.13-16.71-10.53-18.12a9.15,9.15,0,0,0-2.78-.59c-.83,1.53-2.86,6.78,1.17,10.9,0,0,4.82,7.44,6.29,10.84A69.92,69.92,0,0,1,120.26,142c-.14.5-1,1.16-1.43,1.42-1.23.67-1.43,1.43-2.33,2.3-.71.68-1.33.83-1.22,1.06a1.34,1.34,0,0,0,1.56.55,12.29,12.29,0,0,0,1.9-1,11.5,11.5,0,0,1-2.22,3.29c-1.76,2-2.19,3.37,1.33,3.49,2.21.09,4.59-1.71,6.08-6.11.29-.86.6-2.12.91-3.34.23-.53,3-10.08,3.45-12.57a4.79,4.79,0,0,0-.5-3.59"/><polygon class="cls-4" points="88.12 150.13 65.37 163.27 79.69 171.54 102.44 158.41 88.12 150.13"/><path class="cls-13" d="M86.34,157l-.07,0-.68.39a3,3,0,0,0-1.35,2.33v6a1.3,1.3,0,0,0,.12.55,1.23,1.23,0,0,0,.56-.18l.68-.38A3,3,0,0,0,87,163.39V161.8a1.77,1.77,0,0,1-.61-1.26Zm-17,4-1.75,1a3.05,3.05,0,0,0,.61.52l.67.39a1.12,1.12,0,0,0,.56.18,1.21,1.21,0,0,0,.12-.53v-1.35l-.21-.22m4.24,1.83a2.31,2.31,0,0,1-.83.16v.61a2.93,2.93,0,0,0,.85,1.93,1.64,1.64,0,0,1,0-.23Z"/><polygon class="cls-4" points="105.81 139.92 102.44 158.41 88.12 150.13 88.12 129.71 105.81 139.92"/><path class="cls-13" d="M88.12,130.55v3a7.26,7.26,0,0,1,2.7.86,2.67,2.67,0,0,1,1.6,2.32v1.67h0v5.18a1,1,0,0,0,.61.71,4.23,4.23,0,0,1,.57.27l.26.18v-2.24a2.56,2.56,0,0,1,1.23-2h0a4.3,4.3,0,0,1,.48-.24l-2-7.31-.31-.18-.4.63Zm7,3.19,1,3.67V137l0-.08v-1.1a.5.5,0,0,1,0-.17,1,1,0,0,1,.71-.87Zm4.92,2.84V137a.65.65,0,0,1,0,.14v.45a1.13,1.13,0,0,1-.1.37v1.27a1,1,0,0,0,.62.9,4.41,4.41,0,0,1,.58.28,2.54,2.54,0,0,1,1.16,1.53l3.52-2Z"/><polygon class="cls-4" points="88.12 129.71 88.12 150.13 65.37 163.27 62 144.78 88.12 129.71"/><path class="cls-11" d="M87.39,130.13l-6.91,4v4.26a8.05,8.05,0,0,0,1,4v-5.57a2.64,2.64,0,0,1,1.59-2.39,7.85,7.85,0,0,1,3.86-.93,11.11,11.11,0,0,1,1.16.07v-3ZM77.25,136,72,139a52.81,52.81,0,0,1,2.23,6.33,5.77,5.77,0,0,1,1-1.61,8.12,8.12,0,0,0,2-5.33V136Zm-15,8.64-.28.17h0l.38.22c0-.13-.07-.26-.1-.39m21.84,6v1.77l2.17-1.26a9.42,9.42,0,0,1-2.17-.51m-17.24,6.57v2.92a3,3,0,0,0,.74,1.81l1.75-1a19.83,19.83,0,0,1-2.49-3.72"/><path class="cls-8" d="M61.2,144.26l26-15a2,2,0,0,1,1.79,0l17.58,10.15a.65.65,0,0,1,.38.52l-1.43.15.26-.15L88.11,129.71,62,144.78H60.83c0-.24.29-.46.37-.52"/><path class="cls-4" d="M78,134.54l-1,.6c-.08-.1-2.44-10.16-3.11-13a1.14,1.14,0,0,1,.5-1.2,1.47,1.47,0,0,1,1.38,0l-.62,1.13Z"/><path class="cls-14" d="M75.07,120.8a1.5,1.5,0,0,0-.69.17,1.12,1.12,0,0,0-.39.42h.13a1.46,1.46,0,0,1,.7.18v0l.47.27.46-.84a1.56,1.56,0,0,0-.69-.17M74,122.31l0,0,0,.14c.76,3.17,3,12.57,3,12.67l.26-.15v-1.64l.5,0-2.37-10.25Z"/><path class="cls-4" d="M74.84,121.57l-.87.76-2.41,16-1.15.65L72.7,122.7a1.82,1.82,0,0,1,.77-1.17,1.5,1.5,0,0,1,1.37,0"/><polygon class="cls-4" points="75.76 120.98 75.14 122.1 93.56 132.79 93.93 131.48 75.76 120.98"/><polygon class="cls-14" points="75.76 120.98 75.3 121.81 93.56 132.26 93.31 132.65 93.56 132.79 93.93 131.48 91.28 129.95 86.82 127.37 75.76 120.98"/><polygon class="cls-4" points="93.56 132.26 92.88 133.32 73.97 122.31 74.83 121.54 93.56 132.26"/><path class="cls-15" d="M84.12,150.26v.41a9.42,9.42,0,0,0,2.17.51l0,0v-.45a8.45,8.45,0,0,1-1.61-.26h0a4.44,4.44,0,0,1-.62-.19"/><path class="cls-16" d="M83.11,149.81a8.6,8.6,0,0,0,7.72,0,2.68,2.68,0,0,0,1.59-2.33v-10.9H81.51v10.91a2.63,2.63,0,0,0,1.6,2.32"/><path class="cls-17" d="M90.82,134.37a8.54,8.54,0,0,0-7.72,0c-2.13,1.23-2.13,3.23,0,4.45a8.54,8.54,0,0,0,7.72,0c2.13-1.23,2.14-3.22,0-4.45"/><path class="cls-16" d="M90.59,134.55a8.18,8.18,0,0,0-7.25,0c-2,1.13-2,3,0,4.09a8.18,8.18,0,0,0,7.25,0c2-1.13,2-3,0-4.09"/><path class="cls-5" d="M81.86,136.86a2.72,2.72,0,0,0,1.48,1.78,8.18,8.18,0,0,0,7.25,0,2.6,2.6,0,0,0,1.47-1.78,2.7,2.7,0,0,0-1.47-1.78,8.18,8.18,0,0,0-7.25,0,2.69,2.69,0,0,0-1.48,1.78"/><path class="cls-4" d="M92.42,138.36a2.7,2.7,0,0,1-1.6,2.24,8.54,8.54,0,0,1-7.72,0,2.73,2.73,0,0,1-1.59-2.23v7.29a2.7,2.7,0,0,0,1.59,2.23,8.54,8.54,0,0,0,7.72,0,2.72,2.72,0,0,0,1.6-2.24Z"/><polygon class="cls-18" points="92.42 138.4 92.42 138.38 92.42 138.36 92.42 138.4"/><path class="cls-18" d="M81.51,138.37v4a7.35,7.35,0,0,0,1,1.41,6.9,6.9,0,0,1,1.61,4.61,8,8,0,0,0,2.22.45v-2.22a2.57,2.57,0,0,1,1.25-2.05,3.72,3.72,0,0,1,.57-.27,1,1,0,0,0,.63-.91v-1.63h1.5v-.85a8.42,8.42,0,0,1-3.33.65,8,8,0,0,1-3.86-.92,2.79,2.79,0,0,1-1.59-2.11v-.12"/><path class="cls-18" d="M92.42,138.39v0Z"/><path class="cls-19" d="M92.42,136.76a2.81,2.81,0,0,1-1.6,2.06c-.17.1-.35.19-.53.28v1.77a5.28,5.28,0,0,0,.53-.27,2.83,2.83,0,0,0,1.6-2.1Z"/><path class="cls-20" d="M92.42,136.58a2.74,2.74,0,0,1-1.61,2.23,5,5,0,0,1-.52.26v0c.18-.09.36-.18.53-.28a2.81,2.81,0,0,0,1.6-2.06Z"/><path class="cls-21" d="M84.73,150.45a8.45,8.45,0,0,0,1.61.26h0a9.21,9.21,0,0,1-1.6-.26h0"/><path class="cls-19" d="M84.74,150.45a8.35,8.35,0,0,0,1.6.25v-.2a5.24,5.24,0,0,1-.56,0,7.17,7.17,0,0,1-1-.07"/><path class="cls-22" d="M92.42,138.5a2.83,2.83,0,0,1-1.6,2.1,5.28,5.28,0,0,1-.53.27v.85H92.4v1.63a.55.55,0,0,0,0,.18Z"/><path class="cls-23" d="M84.29,138.7c-.31-.18-.18-.55.29-.82l.58-.33a1.63,1.63,0,0,1,1.41-.17c.32.19.2.55-.27.82l-.58.34a1.64,1.64,0,0,1-1.43.16"/><path class="cls-5" d="M86.45,137.71c0,.14-.2.26-.44.26s-.44-.12-.44-.26.2-.26.44-.26.44.12.44.26"/><path class="cls-5" d="M85.18,138.15a.68.68,0,0,0-.62,0c-.18.1-.18.26,0,.36a.68.68,0,0,0,.62,0,.19.19,0,0,0,0-.36"/><path class="cls-24" d="M102.37,142.47v14a2.12,2.12,0,0,1-1.25,1.73,6.63,6.63,0,0,1-6,0,2.14,2.14,0,0,1-1.25-1.73v-14a2.55,2.55,0,0,1,1.25-2.05,3.77,3.77,0,0,1,.57-.28,1,1,0,0,0,.63-.9v-1.63h3.61v1.63a1,1,0,0,0,.62.9,3.88,3.88,0,0,1,.58.28,2.55,2.55,0,0,1,1.25,2.05"/><path class="cls-25" d="M102.37,143v10.75a2.11,2.11,0,0,1-1.25,1.74,6.76,6.76,0,0,1-6,0,2.12,2.12,0,0,1-1.24-1.74V143a2.1,2.1,0,0,0,1.24,1.73,6.69,6.69,0,0,0,6,0,2.11,2.11,0,0,0,1.25-1.72"/><path class="cls-26" d="M96.32,138.09l.67,2.38a1.43,1.43,0,0,0,.38-1.07v-.75a3.4,3.4,0,0,1-.67-.25,1.4,1.4,0,0,1-.38-.31m-.73,2.09a4.3,4.3,0,0,0-.48.24h0a2.56,2.56,0,0,0-1.23,2v2.24h0V143a2.1,2.1,0,0,0,1.24,1.73l.12.06v-2.06a1.66,1.66,0,0,1,.65-1.49Z"/><path class="cls-27" d="M93.87,143v1.72a2.57,2.57,0,0,1,.94,1.56l.42-.25v-1.24l-.12-.06A2.1,2.1,0,0,1,93.87,143"/><path class="cls-2" d="M100,137a1,1,0,0,0-.55-.66,3,3,0,0,0-2.73,0h0a1,1,0,0,0-.56.66v.62a.77.77,0,0,0,.14.44,1.28,1.28,0,0,0,.43.37,3.05,3.05,0,0,0,2.76,0,1,1,0,0,0,.56-.8v-.48Z"/><path class="cls-3" d="M99.46,137.91a.84.84,0,0,0,0-1.59,3.05,3.05,0,0,0-2.76,0,.84.84,0,0,0,0,1.59,3.05,3.05,0,0,0,2.76,0"/><path class="cls-2" d="M99.48,134.83a3.08,3.08,0,0,0-2.65-.06l-.11.06a1,1,0,0,0-.56.79V137l.12.28a1.3,1.3,0,0,0,.44.37,2.91,2.91,0,0,0,1.53.33,2.62,2.62,0,0,0,1.22-.33A1,1,0,0,0,100,137v-1.35a1,1,0,0,0-.54-.8"/><path class="cls-8" d="M98.08,134.5c-1.08,0-1.94.5-1.94,1.12s.86,1.12,1.94,1.12,1.94-.5,1.94-1.12-.87-1.12-1.94-1.12"/><path class="cls-24" d="M94.85,146.58v14a2.12,2.12,0,0,1-1.25,1.73,6.63,6.63,0,0,1-6,0,2.14,2.14,0,0,1-1.25-1.73v-14a2.57,2.57,0,0,1,1.25-2.05,3.72,3.72,0,0,1,.57-.27,1,1,0,0,0,.63-.91v-1.64H92.4v1.64a1,1,0,0,0,.63.91,3.72,3.72,0,0,1,.57.27,2.57,2.57,0,0,1,1.25,2.05"/><path class="cls-8" d="M94.85,147.12v10.75a2.1,2.1,0,0,1-1.25,1.73,6.69,6.69,0,0,1-6,0,2.18,2.18,0,0,1-1.24-1.73V147.1a2.07,2.07,0,0,0,1.24,1.73,6.69,6.69,0,0,0,6,0,2.08,2.08,0,0,0,1.25-1.71"/><path class="cls-26" d="M89.85,141.72H88.79v1.63a1,1,0,0,1-.63.91,3.72,3.72,0,0,0-.57.27,2.57,2.57,0,0,0-1.25,2.05v4.58h0V147.1a2.07,2.07,0,0,0,1.24,1.73l.12.06v-2a1.61,1.61,0,0,1,.74-1.55c1.25-.63,1.4-1.14,1.4-1.78ZM86.35,157h0v3.54A1.77,1.77,0,0,0,87,161.8v-2.69a1.76,1.76,0,0,1-.6-1.24Z"/><path class="cls-28" d="M86.35,147.1v4.05l1.36-.79v-1.47l-.12-.06a2.07,2.07,0,0,1-1.24-1.73m.48,9.75a1.34,1.34,0,0,0-.48.15v.86a1.76,1.76,0,0,0,.6,1.25V157.4a1.33,1.33,0,0,0-.12-.55"/><path class="cls-2" d="M92.47,141.08a1,1,0,0,0-.55-.66,3,3,0,0,0-2.73,0h0a1,1,0,0,0-.55.67v.62a.74.74,0,0,0,.14.43,1.43,1.43,0,0,0,.44.37,3,3,0,0,0,2.75,0,1,1,0,0,0,.57-.79v-.49Z"/><path class="cls-3" d="M91.94,142a.84.84,0,0,0,0-1.59,3,3,0,0,0-2.75,0c-.77.44-.77,1.16,0,1.59a3,3,0,0,0,2.75,0"/><path class="cls-2" d="M92,139a3.05,3.05,0,0,0-2.64-.06l-.11.06a1,1,0,0,0-.57.79v1.36l.12.29a1.43,1.43,0,0,0,.44.37,2.81,2.81,0,0,0,1.53.32,2.7,2.7,0,0,0,1.22-.32,1.05,1.05,0,0,0,.56-.66v-1.36A1,1,0,0,0,92,139"/><path class="cls-8" d="M90.56,138.62c-1.08,0-2,.49-2,1.11s.87,1.12,2,1.12,2-.5,2-1.12-.87-1.11-2-1.11"/><path class="cls-7" d="M65.7,154.85c-2.45-5.41-6.05-18.44-5.05-23.09s4.7-3.89,8.63,2.17,5.9,14.18,6.94,20.59c1.15,7.14-4.06,14.57-10.52.33"/><path class="cls-29" d="M63,132.23a5.67,5.67,0,0,0-1.09.1l.33.15.87.34.58.2c.2.07.41.16.63.23l1.36.51.69.27.67.26.62.26.56.22c.35.16.66.27.87.35l.35.12-.23-.29a6.14,6.14,0,0,0-.67-.68,5.47,5.47,0,0,0-.5-.4c-.19-.14-.39-.27-.59-.4s-.44-.25-.67-.36a6.58,6.58,0,0,0-.72-.32,7.32,7.32,0,0,0-.75-.25c-.26-.07-.51-.12-.75-.17a7.52,7.52,0,0,0-1.34-.14H63"/><path class="cls-29" d="M68.69,155.54a6,6,0,0,0-1.12.11l.33.15c.21.08.51.21.87.33l.58.21.22.08a3.11,3.11,0,0,0-.21-.85l-.48,0h-.19m4.2,1.51a1.18,1.18,0,0,0-.11.55v0h0l.54.23.28.11v-.66l-.14-.08a1.24,1.24,0,0,0-.52-.18h0"/><path class="cls-29" d="M63.2,136.22q-.3,0-.6,0a4,4,0,0,0-.47.05,4.19,4.19,0,0,0,.44.19c.28.11.62.27,1.07.46.87.37,2,.82,3.22,1.25l3.24,1.17,1.09.4.44.14-.29-.36a4.27,4.27,0,0,0-.36-.38,5.27,5.27,0,0,0-.51-.43A11.18,11.18,0,0,0,67.31,137a12,12,0,0,0-3.5-.76c-.2,0-.41,0-.61,0"/><path class="cls-29" d="M65,140.87a7.91,7.91,0,0,0-1,.07l-.45.09a3.31,3.31,0,0,0,.41.22l1.06.51c.87.4,2,.87,3.2,1.3l.86.31.87.3,1.52.5,1.12.35.43.13s-.09-.15-.27-.39a3.25,3.25,0,0,0-.35-.39,4.52,4.52,0,0,0-.5-.48,10.27,10.27,0,0,0-3.15-1.8,11.2,11.2,0,0,0-3.53-.71H65"/><path class="cls-29" d="M66.21,145.71a8.26,8.26,0,0,0-1,.07,3,3,0,0,0-.43.09,4.23,4.23,0,0,0,.41.22l1.06.51c.86.4,2,.86,3.19,1.3l.87.31.84.3,1.53.51.92.28V149c0,.06,0,.12,0,.18v-.42h0c-.16-.16-.32-.32-.5-.47a10.27,10.27,0,0,0-3.15-1.8,11.49,11.49,0,0,0-3.53-.71h-.22"/><path class="cls-4" d="M75.22,143.74a7,7,0,0,0-1.61,4.7v16.82c0,1.13,1.11,2.29,3.3,2.82a8.29,8.29,0,0,0,3.9,0c2.2-.53,3.31-1.69,3.31-2.82V148.44a7,7,0,0,0-1.61-4.7,8.07,8.07,0,0,1-2-5.4v-5l-1.62.06-1.61-.06v5a8.07,8.07,0,0,1-2,5.4"/><path class="cls-30" d="M80.48,133.35l-1.62.06-1.61-.06v5.06a8.12,8.12,0,0,1-2,5.33,5.77,5.77,0,0,0-1,1.61,8.14,8.14,0,0,0-.6,3.09v.69a2.73,2.73,0,0,0,1.53,2,7.62,7.62,0,0,0,3.71.89,8.59,8.59,0,0,0,2.28-.3v2.48l3-1.73v-4.08a7,7,0,0,0-1.61-4.62,7.35,7.35,0,0,1-1-1.41,8.05,8.05,0,0,1-1-4v-4.26h0Zm-6.87,24.93v7a1.64,1.64,0,0,0,0,.23,3.23,3.23,0,0,0,.49.41l.68.38a1.25,1.25,0,0,0,.56.19,1.21,1.21,0,0,0,.12-.53v-5.49l-.34-.18a2.76,2.76,0,0,1-1.53-2"/><path class="cls-2" d="M77.27,135.17v.06a.87.87,0,0,0,.45.56,2.56,2.56,0,0,0,2.29,0,.8.8,0,0,0,.47-.67v-2.44l0-.11v0l0,0a1,1,0,0,0-.44-.43,2.5,2.5,0,0,0-2.29,0,.78.78,0,0,0-.46.69v.05Z"/><path class="cls-8" d="M80.48,132.72c0,.51-.72.93-1.62.93s-1.61-.42-1.61-.93.72-.93,1.61-.93,1.62.41,1.62.93"/><path class="cls-31" d="M75.14,151.1a8.35,8.35,0,0,0,6,.59v9.17a8.35,8.35,0,0,1-6-.59,2.68,2.68,0,0,1-1.54-2.17V149a2.62,2.62,0,0,0,1.54,2.15"/><path class="cls-4" d="M66.88,154.22a1.15,1.15,0,0,1,.12-.57,1.23,1.23,0,0,1,.56.18l.67.39a3,3,0,0,1,1.35,2.34v5.95a1.39,1.39,0,0,1-.12.57,1.12,1.12,0,0,1-.56-.18l-.67-.39a2.94,2.94,0,0,1-1.35-2.33Zm5.9,3.41a1.3,1.3,0,0,1,.11-.58,1.29,1.29,0,0,1,.57.19l.67.39A3,3,0,0,1,75.48,160v6a1.24,1.24,0,0,1-.12.57,1.23,1.23,0,0,1-.56-.18l-.68-.39a3,3,0,0,1-1.34-2.34Zm11.46,2.13a3,3,0,0,1,1.35-2.33l.68-.39a1.12,1.12,0,0,1,.56-.18,1.43,1.43,0,0,1,.12.58v5.95a3,3,0,0,1-1.35,2.34l-.68.38a1.23,1.23,0,0,1-.56.18,1.39,1.39,0,0,1-.12-.57ZM91,155.88a3,3,0,0,1,1.35-2.34l.68-.39a1.12,1.12,0,0,1,.56-.18,1.39,1.39,0,0,1,.12.57v5.94a3,3,0,0,1-1.35,2.34l-.68.38,0,.08a.41.41,0,0,1-.55.09.42.42,0,0,1-.09-.56Zm6.75-3.9a3,3,0,0,1,1.34-2.33l.68-.39a1.25,1.25,0,0,1,.56-.19,1.17,1.17,0,0,1,.12.58v5.93a3,3,0,0,1-1.35,2.34l-.67.39a1.37,1.37,0,0,1-.56.18,1.17,1.17,0,0,1-.12-.58ZM62,144.8l1.51,16.42a4.49,4.49,0,0,0,2,3.11l12.42,7.15.18.09,0,0,.08,0a4,4,0,0,0,3.29-.14l20.84-12a4.45,4.45,0,0,0,2-3.1l1.51-16.42L79.69,155Z"/><path class="cls-32" d="M66.88,154.22a1.15,1.15,0,0,1,.12-.57,1.23,1.23,0,0,1,.56.18l.67.39a3,3,0,0,1,1.35,2.34v5.95a1.39,1.39,0,0,1-.12.57,1.12,1.12,0,0,1-.56-.18l-.67-.39a2.94,2.94,0,0,1-1.35-2.33Zm5.9,3.41a1.3,1.3,0,0,1,.11-.58,1.29,1.29,0,0,1,.57.19l.67.39A3,3,0,0,1,75.48,160v6a1.24,1.24,0,0,1-.12.57,1.23,1.23,0,0,1-.56-.18l-.68-.39a3,3,0,0,1-1.34-2.34Zm11.46,2.13a3,3,0,0,1,1.35-2.33l.68-.39a1.12,1.12,0,0,1,.56-.18,1.43,1.43,0,0,1,.12.58v5.95a3,3,0,0,1-1.35,2.34l-.68.38a1.23,1.23,0,0,1-.56.18,1.39,1.39,0,0,1-.12-.57ZM91,155.88a3,3,0,0,1,1.35-2.34l.68-.39a1.12,1.12,0,0,1,.56-.18,1.39,1.39,0,0,1,.12.57v5.94a3,3,0,0,1-1.35,2.34l-.68.38,0,.08a.41.41,0,0,1-.55.09.42.42,0,0,1-.09-.56Zm6.75-3.9a3,3,0,0,1,1.34-2.33l.68-.39a1.25,1.25,0,0,1,.56-.19,1.17,1.17,0,0,1,.12.58v5.93a3,3,0,0,1-1.35,2.34l-.67.39a1.37,1.37,0,0,1-.56.18,1.17,1.17,0,0,1-.12-.58ZM62,144.8l1.51,16.42a4.49,4.49,0,0,0,2,3.11l12.42,7.15.18.09,0,0,.08,0a4,4,0,0,0,3.29-.14l20.84-12a4.45,4.45,0,0,0,2-3.1l1.51-16.42L79.69,155Z"/><path class="cls-33" d="M67.62,162h0a3.16,3.16,0,0,0,.62.53l.67.39a1.25,1.25,0,0,0,.56.19,1.33,1.33,0,0,0,.12-.55h0a1.21,1.21,0,0,1-.12.53,1.12,1.12,0,0,1-.56-.18l-.67-.39a3.05,3.05,0,0,1-.61-.52"/><path class="cls-34" d="M66.88,157.24v2.94a3,3,0,0,0,.73,1.8h0a3,3,0,0,1-.74-1.81Z"/><path class="cls-35" d="M72.94,157.06a1.24,1.24,0,0,1,.52.18l.14.08h0l-.14-.08a1.24,1.24,0,0,0-.52-.18"/><path class="cls-33" d="M72.78,163h0v.63a3,3,0,0,0,.85,1.94v0a2.93,2.93,0,0,1-.85-1.93Z"/><path class="cls-36" d="M73.63,165.49v0a3.17,3.17,0,0,0,.49.4l.68.39a1.23,1.23,0,0,0,.56.18,1.25,1.25,0,0,0,.12-.54h0a1.24,1.24,0,0,1-.12.53,1.25,1.25,0,0,1-.56-.19l-.68-.38a3.23,3.23,0,0,1-.49-.41"/><path class="cls-31" d="M73.6,157.32h0l.53.31Zm.6.35A3,3,0,0,1,75.48,160a3,3,0,0,0-1.28-2.29"/><path class="cls-37" d="M62.09,145.82l1.42,15.4a4.45,4.45,0,0,0,2,3.1l12.42,7.16.18.09,0,0,.08,0a1.3,1.3,0,0,0,.49.1c.59,0,1-.47,1-1.28V155.67h0a1.93,1.93,0,0,1-.9-.22Zm4.79,8.37a1.25,1.25,0,0,1,.12-.54,1.23,1.23,0,0,1,.56.18l.67.39a3,3,0,0,1,1.35,2.34v6h0a1.29,1.29,0,0,1-.12.54,1.12,1.12,0,0,1-.56-.18l-.67-.39a3.16,3.16,0,0,1-.62-.53,3,3,0,0,1-.73-1.8v-6m5.9,3.41a1.18,1.18,0,0,1,.11-.55h0a1.24,1.24,0,0,1,.52.18l.67.39.07,0A3,3,0,0,1,75.48,160v6h0a1.25,1.25,0,0,1-.12.54,1.23,1.23,0,0,1-.56-.18l-.68-.39a3.72,3.72,0,0,1-.49-.4,3,3,0,0,1-.85-1.94v-6"/><polygon class="cls-37" points="74.58 152.06 79.68 155 79.69 155 74.58 152.06"/><path class="cls-8" d="M72.88,157.05a1.3,1.3,0,0,0-.11.58v5.93a3,3,0,0,0,1.35,2.34l.67.38a1.25,1.25,0,0,0,.56.19c-.21.41-.68.51-1.23.2l-.67-.39A3,3,0,0,1,72.1,164V158c0-.62.33-1,.78-1"/><path class="cls-8" d="M67,153.65a1.15,1.15,0,0,0-.12.57v5.94a3,3,0,0,0,1.35,2.33l.67.39a1.12,1.12,0,0,0,.56.18c-.21.42-.68.52-1.23.2l-.67-.39a2.94,2.94,0,0,1-1.35-2.33v-5.93c0-.63.32-1,.79-1"/><path class="cls-2" d="M60.84,144.74a.6.6,0,0,0,.37.55l17.58,10.15a1.78,1.78,0,0,0,.9.21v2a2,2,0,0,1-.9-.22L61.2,147.25a.64.64,0,0,1-.37-.52v-2Z"/><path class="cls-3" d="M80.59,155.44l26-15a.62.62,0,0,0,.36-.56v2a.62.62,0,0,1-.37.52l-26,15a1.78,1.78,0,0,1-.9.21v-1.95a1.76,1.76,0,0,0,.9-.21"/><path class="cls-8" d="M62,144.79,79.68,155l8.43-4.86,17.69-10.22H107a.62.62,0,0,1-.37.52l-26,15a2,2,0,0,1-1.8,0L61.2,145.31a.67.67,0,0,1-.37-.52Z"/><path class="cls-2" d="M86.83,156.86a1.43,1.43,0,0,1,.12.58v5.93a2.94,2.94,0,0,1-1.35,2.33l-.68.39a1.21,1.21,0,0,1-.56.19c.22.41.69.51,1.23.2l.68-.39a3,3,0,0,0,1.34-2.33v-5.94c0-.63-.33-1-.78-1"/><path class="cls-2" d="M93.57,153a1.24,1.24,0,0,1,.12.57v5.93a3,3,0,0,1-1.35,2.34l-.67.39a1.27,1.27,0,0,1-.56.18c.21.41.68.51,1.22.2l.68-.39a3,3,0,0,0,1.34-2.33v-5.94c0-.62-.32-1-.78-.95"/><path class="cls-2" d="M100.31,149.07a1.17,1.17,0,0,1,.12.58v5.92a3,3,0,0,1-1.35,2.33l-.67.39a1.37,1.37,0,0,1-.56.18c.21.41.68.52,1.22.21l.68-.39A3,3,0,0,0,101.1,156V150c0-.61-.33-1-.79-1"/><path class="cls-4" d="M97.15,145.89v.41c0,.35.16.56.46.39a1.25,1.25,0,0,0,.71-1.3v-.17Z"/><path class="cls-14" d="M98.32,145.23l-1.16.67h0v.41c0,.27.1.45.27.45a.38.38,0,0,0,.19-.06,1.21,1.21,0,0,0,.72-1.12c0-.06,0-.12,0-.18Z"/><path class="cls-4" d="M98.32,145.23l-1.16.66L93.57,132.8l.37-1.3a2.06,2.06,0,0,1,.86,1.18Z"/><path class="cls-14" d="M93.94,131.5l-.15.51-.22.79,3.59,13.09,1.16-.66v0l-.23-.83-1.77-6.29-.19-.68-1.33-4.73a2.06,2.06,0,0,0-.86-1.18"/><path class="cls-4" d="M94.13,133.45,91.77,149l-1.34.77,2.45-16.45.65-1.08a1.31,1.31,0,0,1,.6,1.21"/><path class="cls-4" d="M90.43,149.76v.44l.07.26a.45.45,0,0,0,.61.13,1.41,1.41,0,0,0,.66-1.44V149Z"/><path class="cls-1" d="M71.21,138.49a10.15,10.15,0,0,1,6.3-3.12l0-.12c1.37,0,5.53-4,8-6.48l4.22,2.44-8.81,6.45.37.68a6.18,6.18,0,0,1-2.16,3.41c-.58.47-1.48,2.2-2,1.06s1-2.37.76-2.42a8.61,8.61,0,0,0-3.18,1.76c-2.73,2.09-3.38,2.22-4.27.66a3.38,3.38,0,0,1,.82-4.32"/><path class="cls-1" d="M179.09,44.52c-3.33,0-3.42.2-8,2.78s-11.6,6.3-11.6,6.3l2.29,7.77,14.73-7.21Z"/><path class="cls-1" d="M160.91,53.35s4.28,6.33.83,8c-2.43,1.18-4.2,1.61-6.11-1.06a19.29,19.29,0,0,1-2-4.15c-1.09-3.06-2.21-7.48-3.25-10a2.12,2.12,0,0,0-1.4-1,4.82,4.82,0,0,1-2.87-1.43c-1.08-1.24-2.26-7.42-2.26-7.42s1.33.25,2.83.6c-.41-1-.15-1.83.16-1.87s1.27.88,2,1.3c1.18.7,2.72,1,3,1.25.75.77,1.44,3.17,2.45,4.76,2.31,3.65,6.65,11.1,6.65,11.1"/><path class="cls-38" d="M149,45.1a3.36,3.36,0,0,0,1.68-1.41,2.36,2.36,0,0,1-1.79-2c-.18-1.61.38-2-.64-2.85A7.11,7.11,0,0,1,146.63,37L144,36.38s.32,3.63.63,4.94A4.78,4.78,0,0,0,149,45.1"/><path class="cls-8" d="M146,33h0l.55-.31a.52.52,0,0,1,.51,0l4.82,2.4a1.9,1.9,0,0,1,.93,1.32l1.58,11.32a.49.49,0,0,1-.16.53l-.58.35a.55.55,0,0,1-.51-.05l-4.83-2.39a1.91,1.91,0,0,1-.92-1.32l-1.56-11.34c-.06-.29,0-.45.17-.55"/><path class="cls-3" d="M153.78,48l-1.57-11.32a1.92,1.92,0,0,0-.93-1.32L146.45,33c-.45-.22-.75,0-.67.5l1.58,11.32a1.94,1.94,0,0,0,.92,1.32l4.83,2.39c.43.2.74,0,.67-.52"/><path class="cls-2" d="M151.77,35.83a2,2,0,0,1,.44.89L153.78,48a.49.49,0,0,1-.16.53l.54-.31a.48.48,0,0,0,.16-.53l-1.58-11.32a1.68,1.68,0,0,0-.39-.83Z"/><path class="cls-1" d="M146.52,35.78a7.08,7.08,0,0,0-2.62-.47c-.41,0-.72.26-.71,1.09a1.54,1.54,0,0,0,.68,1.11,1.23,1.23,0,0,0-.66.94,1.56,1.56,0,0,0,.87,1.51,1,1,0,0,0-.31.92,1.69,1.69,0,0,0,1,1.06,1.44,1.44,0,0,0,0,1.08,5.07,5.07,0,0,0,2.49,1.54c1.06.33,1.38-.62,1.16-1.1a2.24,2.24,0,0,0-.83-.92,1.08,1.08,0,0,0,.47-.88c0-.56-1.13-1.12-1.13-1.12s.83-.27.83-.95-1.25-1.45-1.25-1.45.56,0,.73-.32a3.17,3.17,0,0,1-.73-2"/><path class="cls-2" d="M198.74,144.19c.33,1.42.59,2.86.78,4.31.21,1.63.34,2.84.81,5.62.43,2.54.76,4.49-1,6.38-1.58,1.69-4.36,2.33-5.28.42-1.05-2.18-.91-5.72-.77-7.93s.11-2.85.13-4.6c0-1.55.09-2.18.18-3.52,1.69-.08,3.48-.54,5.18-.68"/><path class="cls-3" d="M180,152.41l-.6-.1c0-1.83.07-3.49-.38-4.36l.83-2.24Z"/><path class="cls-3" d="M181.42,144.09c-.14,1.25-.85,2.54-.9,5a22.06,22.06,0,0,0,.07,3.15l-.6.17-.14-6.69Z"/><path class="cls-3" d="M167.64,154.08s0,.74.34,1,1,1,4.19.77,4.34-1,5.44-2,1.39-3.63,1.55-4.87a9.16,9.16,0,0,1,2.26-4.88,2.22,2.22,0,0,0,.08-1.25,4.07,4.07,0,0,0-3.81,2.8c-1.15,2.94-2.05,6.36-4.65,7.17a43.25,43.25,0,0,1-5.4,1.28"/><path class="cls-1" d="M198.74,144.19c0-2.07,0-4.83.19-8.48.21-4.25.24-7.57.23-12.08a62.73,62.73,0,0,0-1.41-13C199,97.52,199.5,83.94,198,79c-1.33-4.28-2.69-5.71-3.89-7.81-.62-1.08-1.76-2.7-1.76-4.15a27,27,0,0,1-9.48,1.85c-6.09,0-8.22-1.6-8.22-1.6s-2.75,31.83-2.17,42.22c.34,6.15.83,15.25,1,19.72.14,3.45.53,7.94.49,9.84a15.78,15.78,0,0,1-1,4.85,34.37,34.37,0,0,1-2,4.91,4.92,4.92,0,0,1-.74,1.17,13.06,13.06,0,0,1-1.36,1.32c-1,.85-1.47,1.27-1.39,2s.67,1.1,1.34,1.3a10.85,10.85,0,0,0,4.94,0c1.58-.27,3.35-1,4-2.53a6.09,6.09,0,0,0,.38-1.39,19.59,19.59,0,0,1,1.21-4.58,10.3,10.3,0,0,1,.89-1.79,4.61,4.61,0,0,0,1-2,4.7,4.7,0,0,0-1.05-2.45c-.54-.82-.39-1.39-.2-4,.41-5.59,1.55-9.61,2.49-16.4a31.41,31.41,0,0,0-.19-9.82c.65-4.45,1.77-9.12,2.43-12.19,1.07,6.43,1.76,8.78,2.34,13.63.81,6.74,4.6,20.85,5.21,24.48s1,6.06,1.26,9c.24,2.55.43,7.69.75,10,.5,3.74,4.38,2.6,5-.7.42-2.21-.51-6.87-.54-9.74"/><path class="cls-2" d="M181.23,141c-.46-.81-.88-1-1.32-1.74a3.53,3.53,0,0,0-1,1.7c-.19.64-.71,3.8-1.49,6.31a4.77,4.77,0,0,1-2.91,3.39,5.45,5.45,0,0,1-2.65.3c-1.67-.23-1.28-1.43-1.28-1.43-.39.53-2,1.83-2.93,2.78a1.46,1.46,0,0,0,.13,1.9c.46.4,1.55,1.2,5.54.62,3.54-.5,4.38-2.15,4.71-2.89a17.12,17.12,0,0,0,.73-3.32,10.35,10.35,0,0,1,1.25-3.53c.08-.13.15-.26.23-.37a11.7,11.7,0,0,1,.84-1.13c.25-.29.44-.43.5-.72a2.65,2.65,0,0,0-.31-1.87"/><path class="cls-4" d="M173.71,60.41c.09,1.76.88,6.82.88,6.82C181.8,72.11,192.3,67,192.3,67l2-12a8.13,8.13,0,0,1-.8-9.95l-5.72-.37-6.12,0-3.13-.06c-2.2,1.61-6,5.75-6.71,7.56s-1.27,4.48,1.92,8.25"/><path class="cls-5" d="M173.71,60.41c.09,1.76.88,6.82.88,6.82C181.8,72.11,192.3,67,192.3,67l2-12a8.13,8.13,0,0,1-.8-9.95l-5.72-.37-6.12,0-3.13-.06c-2.2,1.61-6,5.75-6.71,7.56s-1.27,4.48,1.92,8.25"/><path class="cls-6" d="M190,56.53a5.39,5.39,0,0,1-3.3,4.33,5.6,5.6,0,0,1-2.28.46,5.22,5.22,0,0,1-3.62-1.21c.14.62,1.55,2.07,3.84,2.07A6.44,6.44,0,0,0,187,61.7a4.74,4.74,0,0,0,3-5.17"/><path class="cls-2" d="M173.19,29.5A10.61,10.61,0,0,1,183.8,18.89H185A10.6,10.6,0,0,1,195.62,29.5v5.27a7.69,7.69,0,0,1-7.69,7.69H173.22Z"/><path class="cls-2" d="M192.81,20.26l0,.06a1.4,1.4,0,0,1-1.75.91l.73-2.77a1.5,1.5,0,0,1,1,1.8"/><path class="cls-2" d="M193.51,21.75l0,0a1.4,1.4,0,0,1-1.9-.5L194,19.7a1.5,1.5,0,0,1-.44,2.05"/><path class="cls-1" d="M182.12,30.83a12.76,12.76,0,0,0,6,1.79,2.2,2.2,0,0,1,.43-.76,2.12,2.12,0,0,1,3-.19l.25.32a3.05,3.05,0,0,1-.84,4.23c-1.77,1.18-2.84,0-2.84,0v8.22A13.36,13.36,0,0,1,184.67,48c-2.08,1.43-5.16,1.08-5.3-.37s2.09-4,2.09-4V40.43c-1.61.27-3.28.5-4.13.13s-2.58-1.67-2.7-7c-.15-6.24,1.32-9.22,2.5-9.92a9.61,9.61,0,0,0,5,7.16"/><path class="cls-3" d="M181.82,31.63a.65.65,0,0,1,.63.69.67.67,0,1,1-.63-.69"/><path class="cls-7" d="M179.81,37.76h0a.8.8,0,0,1-1-.53l1.54-.49a.84.84,0,0,1-.54,1"/><path class="cls-3" d="M175.9,29.06l0,0a.79.79,0,0,1,1.08.25l-1.35.94a.86.86,0,0,1,.23-1.16"/><path class="cls-3" d="M176,31.78a.66.66,0,0,1,.7-.63.65.65,0,0,1,.63.69.67.67,0,0,1-.7.66h0a.68.68,0,0,1-.62-.72"/><polygon class="cls-7" points="177.02 34.75 179.12 35.4 179.23 31.39 177.02 34.75"/><path class="cls-7" d="M181.48,41.49s3.45-1,4.51-1.91a3.62,3.62,0,0,0,1.21-1.76c-.54,1.38-4,2.39-5.74,2.61Z"/><path class="cls-8" d="M173.55,131.36c-.05-.75-.09-1.5-.11-2.18-.19-4.49-.68-13.57-1-19.72-.58-10.39,2.17-42.22,2.17-42.22s2.13,1.65,8.22,1.6A27,27,0,0,0,192.31,67c0,1.45,1.14,3.07,1.76,4.15,1.2,2.1,2.56,3.53,3.89,7.81,1.55,5,1.09,18.57-.2,31.71a69.67,69.67,0,0,1,1.5,13.22c0,4.49,0,6.81-.26,11.07-2.16,1.62-6.69.64-6.69.64-.61-3.63-4.4-17.74-5.21-24.48-.58-4.85-1.27-7.2-2.34-13.63l-2.47,12.18a31.41,31.41,0,0,1,.2,9.82c-.69,4.94-1.5,8.41-2,12.09-1,1-5.48,1.28-6.91-.21"/><path class="cls-2" d="M174.44,66.24l-.06,3.54A12.87,12.87,0,0,0,181,71.85c4.28.29,10.29-1.39,12-2.65a5.78,5.78,0,0,1-.45-3.43,21.28,21.28,0,0,1-10.61,2.37c-6-.28-7.47-1.9-7.47-1.9"/><path class="cls-2" d="M184.73,97.47l-2.49-14.76a11.19,11.19,0,0,1-6-4.21,7.76,7.76,0,0,0,4.54,5.36l2.8,13.82-1.1,10.59Z"/><path class="cls-4" d="M201.88,81.26l-.11-.5-.05,0v0L200.11,80c-.14.59-.3,1.37-.46,2.26L191.74,88l2.8,12.16,10-7.26a1,1,0,0,0,.39-.59c.31-1.32-2.33-9-3-11"/><path class="cls-9" d="M200.11,80s0,0,0,0l.05,0Zm1.66.72h0Zm1,3.19v0h0v0l0,.16a15.73,15.73,0,0,1-.79,2.31,13.31,13.31,0,0,1-2.43,3.73c-.48.36-4,.77-5.44.77a3,3,0,0,1-.45,0c-.7-.08-.92-.23-1-.33.94,2.85,2.29,7.14,2.29,8.57a1.09,1.09,0,0,1,0,.28,1.3,1.3,0,0,1-.31.61l9.92-7.22a1,1,0,0,0,.39-.59,1.87,1.87,0,0,0,0-.27c0-1.33-1.2-5.22-2.13-8m-10.18,6.58h0"/><polygon class="cls-4" points="201.77 80.78 191.73 87.97 190.13 87.25 200.16 80.05 201.77 80.78"/><path class="cls-10" d="M202.79,84h0v0m0,.19c-.37,1.18-2.81,5.42-3.62,5.73a25.16,25.16,0,0,1-5.52.83c-.5,0-.87,0-1-.18h0l0,.08c.07.1.29.25,1,.33a3,3,0,0,0,.45,0c1.49,0,5-.41,5.44-.77A13.16,13.16,0,0,0,202,86.47a15.73,15.73,0,0,0,.79-2.31"/><path class="cls-4" d="M190.13,87.25a39.48,39.48,0,0,0-.09,10.8,3.37,3.37,0,0,0,2,1.78c.81.37,2.49,1.15,2.86-.36S191.73,88,191.73,88Z"/><path class="cls-11" d="M190.13,87.25a28.7,28.7,0,0,0-.42,5.63,27.69,27.69,0,0,0,.33,5.17,3.37,3.37,0,0,0,2,1.78,4.78,4.78,0,0,0,1.77.54,1,1,0,0,0,1.09-.9,1.09,1.09,0,0,0,0-.28c0-1.43-1.35-5.72-2.29-8.57l0-.08h0a9.37,9.37,0,0,1-.88-2.57Z"/><path class="cls-4" d="M191.73,88a9.37,9.37,0,0,0,.88,2.57c.45.57,5.64-.31,6.51-.64s3.63-5.22,3.67-5.94a13.74,13.74,0,0,0-1-3.19Z"/><path class="cls-12" d="M201.77,80.76h0l-10,7.19a9.37,9.37,0,0,0,.88,2.57,1.59,1.59,0,0,0,1,.19,25.16,25.16,0,0,0,5.52-.83c.87-.33,3.63-5.22,3.67-5.94v0a14.7,14.7,0,0,0-1-3.14"/><path class="cls-8" d="M198.83,89c0,.23.23.28.4.13a.83.83,0,0,0,.22-.69c0-.23-.22-.28-.4-.13a.8.8,0,0,0-.22.69"/><path class="cls-4" d="M191.73,88c-2.95-5.44-10.87-19.16-13-27.57s.26-13.29,1.69-15.81h-1.53c-1.76,2.16-3.43,7.66-1.93,14.67,2.12,9.92,13.18,28,13.18,28Z"/><path class="cls-11" d="M180.41,44.58h-1.53l0,0c-1.27,1.59-2.49,4.92-2.49,9.31a25.3,25.3,0,0,0,.58,5.34c2.12,9.92,13.18,28,13.18,28l1.6.73L191,86.62c-3.36-6.1-10.3-18.44-12.28-26.23a25.77,25.77,0,0,1-.85-6.36,18.21,18.21,0,0,1,2.54-9.45"/><path class="cls-1" d="M206.28,63.74c-5.35-12-7.13-16.72-10.53-18.13A9.15,9.15,0,0,0,193,45c-.83,1.53-2.86,6.78,1.17,10.9,0,0,4.82,7.44,6.29,10.84a69.77,69.77,0,0,1-1.68,11.47c-.14.5-1,1.16-1.44,1.42-1.22.67-1.42,1.43-2.32,2.3-.71.68-1.33.84-1.22,1.06a1.32,1.32,0,0,0,1.56.55,11.39,11.39,0,0,0,1.89-1A11.14,11.14,0,0,1,195,85.85c-1.76,2-2.19,3.38,1.33,3.5,2.21.08,4.59-1.72,6.08-6.11.29-.87.6-2.13.91-3.35.23-.53,3-10.08,3.45-12.57a4.76,4.76,0,0,0-.5-3.58"/><path class="cls-39" d="M207.05,198.92l8.2-8.72s4.09-10.7,6.65-14.35c2.15-3,3.93-4.19,7.94-3.84l-4,10.47s-6,10.15-7.41,11.81l-11.51,8c.06-1.13.11-2.26.16-3.38"/><path class="cls-2" d="M242.73,271.93c-.09,1.34-.18,2-.18,3.51,0,1.75,0,2.39-.13,4.59s-.28,5.73.77,7.91c.91,1.9,3.69,1.26,5.26-.42,1.79-1.89,1.46-3.83,1-6.36-.47-2.78-.6-4-.81-5.61-.19-1.44-.45-2.88-.78-4.29-1.69.13-3.47.59-5.16.67"/><path class="cls-3" d="M229.05,272.77l-.83,2.24c.46.86.35,2.52.39,4.34l.59.1Z"/><path class="cls-3" d="M229.05,272.77l.14,6.67.6-.16a20.71,20.71,0,0,1-.06-3.15c.05-2.45.75-3.73.89-5Z"/><path class="cls-3" d="M222.27,279.84c2.59-.81,3.48-4.22,4.63-7.15a4,4,0,0,1,3.8-2.79,2.14,2.14,0,0,1-.08,1.25,9.08,9.08,0,0,0-2.25,4.86c-.16,1.24-.45,3.86-1.55,4.86s-2.24,1.79-5.42,2-3.87-.53-4.18-.77-.34-1-.34-1a43.52,43.52,0,0,0,5.39-1.28"/><path class="cls-39" d="M248.43,281c-.61,3.29-4.48,4.43-5,.7-.32-2.34-.51-7.46-.75-10-.27-2.94-.66-5.37-1.26-9s-4.39-17.68-5.19-24.4c-.58-4.85-1.27-7.19-2.33-13.6-.67,3.07-1.79,7.72-2.43,12.16a31.22,31.22,0,0,1,.19,9.79c-.94,6.77-2.08,10.78-2.49,16.36-.18,2.59-.34,3.16.21,4a4.7,4.7,0,0,1,1,2.44,4.52,4.52,0,0,1-1,2,10.66,10.66,0,0,0-.89,1.79,20,20,0,0,0-1.2,4.57,6,6,0,0,1-.38,1.38c-.67,1.5-2.44,2.25-4,2.53a11.09,11.09,0,0,1-4.93,0c-.66-.2-1.25-.52-1.33-1.3s.39-1.2,1.39-2a14,14,0,0,0,1.35-1.32,4.92,4.92,0,0,0,.74-1.17,33.08,33.08,0,0,0,2-4.9,16,16,0,0,0,1-4.83c0-1.9-.36-6.38-.5-9.81-.17-4.46-.66-13.54-1-19.67-.57-10.36,2.17-42.1,2.17-42.1s2.13,1.64,8.2,1.59a26.79,26.79,0,0,0,9.45-1.84c0,1.45,1.14,3,1.76,4.14,1.2,2.09,2.55,3.51,3.88,7.78,1.55,5,1.08,18.52-.2,31.63a62.81,62.81,0,0,1,1.4,12.93c0,4.5,0,7.81-.23,12.05-.19,3.64-.22,6.39-.19,8.46,0,2.86,1,7.5.54,9.71"/><path class="cls-2" d="M230.74,270c-.06.29-.25.43-.5.73a10.53,10.53,0,0,0-.84,1.12l-.23.37a10.49,10.49,0,0,0-1.24,3.52,17.12,17.12,0,0,1-.73,3.32c-.33.73-1.16,2.38-4.7,2.88-4,.57-5.06-.23-5.52-.63a1.45,1.45,0,0,1-.13-1.89c.93-.95,2.53-2.24,2.92-2.78,0,0-.39,1.2,1.28,1.43a5.28,5.28,0,0,0,2.64-.29,4.76,4.76,0,0,0,2.9-3.39c.78-2.5,1.3-5.65,1.49-6.29a3.4,3.4,0,0,1,1-1.69c.44.69.86.92,1.31,1.73a2.63,2.63,0,0,1,.31,1.86"/><path class="cls-4" d="M221,179.47c.72-1.8,4.49-5.93,6.69-7.54l3.12.07,6.1,0,5.71.37a8.1,8.1,0,0,0,.79,9.92l-2,11.94s-10.47,5.11-17.66.25c0,0-.79-5-.88-6.81-3.18-3.76-2.63-6.42-1.91-8.23"/><path class="cls-5" d="M221,179.47c.72-1.8,4.49-5.93,6.69-7.54l3.12.07,6.1,0,5.71.37a8.1,8.1,0,0,0,.79,9.92l-2,11.94s-10.47,5.11-17.66.25c0,0-.79-5-.88-6.81-3.18-3.76-2.63-6.42-1.91-8.23"/><path class="cls-6" d="M239.15,183.84a5.37,5.37,0,0,1-3.28,4.32,5.76,5.76,0,0,1-2.28.45,5.21,5.21,0,0,1-3.61-1.2,4.09,4.09,0,0,0,3.83,2.06,6.44,6.44,0,0,0,2.36-.48,4.72,4.72,0,0,0,3-5.15"/><path class="cls-2" d="M222.44,169.8h14.67a7.66,7.66,0,0,0,7.67-7.67v-5.26a10.57,10.57,0,0,0-10.55-10.57H233a10.57,10.57,0,0,0-10.58,10.57Z"/><path class="cls-2" d="M240.94,145.87l-.72,2.76a1.38,1.38,0,0,0,1.74-.91l0-.05a1.5,1.5,0,0,0-1-1.8"/><path class="cls-2" d="M243.12,147.1l-2.39,1.59a1.4,1.4,0,0,0,1.9.5l.05,0a1.5,1.5,0,0,0,.44-2.05"/><path class="cls-39" d="M226.34,151.07c-1.18.69-2.64,3.66-2.49,9.88.12,5.29,1.83,6.58,2.69,7s2.51.15,4.12-.12V171s-2.22,2.58-2.09,4,3.22,1.79,5.29.37a13.47,13.47,0,0,0,3.44-3.58v-8.2s1.06,1.18,2.82,0a3,3,0,0,0,.84-4.22l-.25-.32a2.12,2.12,0,0,0-3,.19,2.18,2.18,0,0,0-.42.76,12.76,12.76,0,0,1-6-1.79,9.62,9.62,0,0,1-5-7.13"/><path class="cls-3" d="M230.33,159.63a.65.65,0,0,0,.63.69A.66.66,0,0,0,231,159a.65.65,0,0,0-.69.63"/><path class="cls-40" d="M229.56,164.09l-1.54.5a.8.8,0,0,0,1,.53h0a.86.86,0,0,0,.54-1"/><path class="cls-3" d="M224.89,157.59l1.34-.93a.79.79,0,0,0-1.08-.25l0,0a.84.84,0,0,0-.22,1.15"/><path class="cls-3" d="M225.2,159.15a.66.66,0,0,0,.61.72h0a.67.67,0,0,0,.7-.66.66.66,0,1,0-1.32-.06"/><polygon class="cls-40" points="228.44 158.77 228.33 162.76 226.23 162.11 228.44 158.77"/><path class="cls-40" d="M230.66,167.78c1.69-.22,5.18-1.23,5.72-2.6a3.58,3.58,0,0,1-1.2,1.76c-1.06.89-4.5,1.89-4.5,1.89Z"/><path class="cls-8" d="M229.67,258.67c.52-3.67,1.33-7.13,2-12.06a31.22,31.22,0,0,0-.2-9.79L234,224.67c1.06,6.41,1.75,8.75,2.33,13.6.8,6.72,4.59,20.79,5.19,24.41,0,0,4.51,1,6.67-.64.22-4.24.26-6.56.26-11a69.88,69.88,0,0,0-1.49-13.18c1.28-13.11,1.75-26.65.2-31.63-1.33-4.27-2.68-5.69-3.88-7.78-.62-1.09-1.76-2.69-1.76-4.14a26.79,26.79,0,0,1-9.45,1.84c-6.07,0-8.2-1.59-8.2-1.59s-2.74,31.74-2.17,42.1c.32,6.13.81,15.19,1,19.67,0,.67.06,1.42.11,2.17,1.43,1.49,5.94,1.22,6.9.21"/><path class="cls-2" d="M231.11,195.41a21.15,21.15,0,0,0,10.58-2.36,5.83,5.83,0,0,0,.44,3.42c-1.67,1.25-7.67,2.93-11.93,2.64a12.91,12.91,0,0,1-6.6-2.06l.06-3.53s1.45,1.61,7.45,1.89"/><path class="cls-2" d="M231.69,235.43l1.1-10.56L230,211.09a7.78,7.78,0,0,1-4.53-5.34,11.15,11.15,0,0,0,6,4.19l2.49,14.72Z"/><path class="cls-4" d="M254,219.48a.86.86,0,0,1-.38.58l-10,7.24-2.78-12.12,7.89-5.65c.15-.88.31-1.67.45-2.25l1.6.72v0l0,0,.11.5c.7,2,3.32,9.66,3,11"/><path class="cls-41" d="M249.26,207.28v.05l.05,0Zm1.65.72h0Zm1,3.18v0h0v0l0,.16a17.35,17.35,0,0,1-.79,2.3,13.47,13.47,0,0,1-2.43,3.73c-.48.35-3.94.76-5.43.76a2.76,2.76,0,0,1-.44,0c-.7-.08-.92-.23-1-.33.94,2.84,2.28,7.12,2.28,8.54a1.17,1.17,0,0,1,0,.29,1.25,1.25,0,0,1-.3.6l9.89-7.2a.86.86,0,0,0,.38-.58,1,1,0,0,0,0-.27c0-1.33-1.2-5.21-2.13-8m-10.15,6.56h0"/><polygon class="cls-4" points="249.31 207.29 239.3 214.47 240.91 215.19 250.91 208.01 249.31 207.29"/><path class="cls-10" d="M251.93,211.2h0v0m0,.19c-.38,1.17-2.81,5.4-3.62,5.71a25,25,0,0,1-5.5.83c-.5,0-.87-.05-1-.18h0l0,.08c.07.1.29.25,1,.33a2.76,2.76,0,0,0,.44,0c1.49,0,4.95-.41,5.43-.76a13.47,13.47,0,0,0,2.43-3.73,17.35,17.35,0,0,0,.79-2.3"/><path class="cls-4" d="M240.91,215.18s3.52,10,3.15,11.48-2.05.73-2.85.36a3.35,3.35,0,0,1-2-1.78,39.6,39.6,0,0,1,.08-10.77Z"/><path class="cls-11" d="M239.3,214.47a29.46,29.46,0,0,0-.41,5.61,26.67,26.67,0,0,0,.33,5.16,3.35,3.35,0,0,0,2,1.78,4.77,4.77,0,0,0,1.77.53,1,1,0,0,0,1.08-.89,1.17,1.17,0,0,0,0-.29c0-1.42-1.34-5.7-2.28-8.54l0-.08h0a9.24,9.24,0,0,1-.87-2.56Z"/><path class="cls-4" d="M250.91,208a13.63,13.63,0,0,1,1,3.18c0,.72-2.79,5.59-3.66,5.92s-6,1.21-6.49.64a9.13,9.13,0,0,1-.87-2.56Z"/><path class="cls-42" d="M250.91,208h0l-10,7.17a9.13,9.13,0,0,0,.87,2.56,1.59,1.59,0,0,0,1,.19,25,25,0,0,0,5.5-.83c.87-.33,3.62-5.2,3.66-5.92a.09.09,0,0,0,0-.05,15,15,0,0,0-1-3.13"/><path class="cls-8" d="M248.2,215.49c.18-.15.35-.1.4.12a.79.79,0,0,1-.22.69c-.17.16-.35.1-.4-.13a.78.78,0,0,1,.22-.68"/><path class="cls-4" d="M239.3,214.45s-11-18-13.14-27.9c-1.49-7,.17-12.48,1.93-14.63h1.53c-1.43,2.51-3.82,7.38-1.69,15.76s10,22.08,13,27.5Z"/><path class="cls-11" d="M229.62,171.92h-1.53l0,0c-1.27,1.58-2.49,4.91-2.49,9.29a25.26,25.26,0,0,0,.58,5.32c2.12,9.89,13.14,27.9,13.14,27.9l1.61.73-.74-1.34c-3.35-6.08-10.26-18.39-12.24-26.16a25.57,25.57,0,0,1-.85-6.34,18,18,0,0,1,2.54-9.42"/><path class="cls-39" d="M199,202a10.1,10.1,0,0,1,6.29-3.1l0-.13c1.36,0,5.52-4,8-6.46l4.2,2.44-8.78,6.42.37.69a6.26,6.26,0,0,1-2.15,3.4c-.58.47-1.48,2.19-2,1.05s1-2.36.75-2.41a8.68,8.68,0,0,0-3.17,1.75c-2.72,2.09-3.38,2.22-4.27.66A3.41,3.41,0,0,1,199,202"/><path class="cls-39" d="M233.33,196.87c-2.41.79-12.05,3.06-12.62,3.12-1.22.33-2.46.67-3.36.84-4.55.84-7.28-.36-8.28-2.32-.73-1.41-.83-2.25-.49-2.69.47-.6,1.61-.28,2.88-.17a13.47,13.47,0,0,0,6-.88c-.18-.92-.31-1.94,0-2.08.46-.19,1.29,1.74,2.5,2.5,1.51.95,4.5.63,10.8-4.12,2.54-5.77,4.75-8.92,6.37-10.75a16.87,16.87,0,0,0,3.15-4.22c1.13-2.33,1-3.68,2.07-4.14,1.26-.54,3.29.47,4.15,2.07a4.18,4.18,0,0,1,.38,2.67c-.11.49-.24,1-.38,1.48a37.36,37.36,0,0,1-10.26,16.51,7,7,0,0,1-2.87,2.18"/><path class="cls-43" d="M218.74,17.8l.09-.08-.09,0Zm-.8,1.33v0Zm.36-.86-.06.09Zm.25-.32-.09.1ZM246.78,3a.85.85,0,0,0-.44-.74L242.49.11h0a.82.82,0,0,0-.83,0L215.3,15.32A2.57,2.57,0,0,0,214,17.55v9.79l-9.12,9.43c-.81.85-.9,2.12-.26,2.32l3.63,2a.58.58,0,0,0,.5.16l5.29-.67v7.18a.85.85,0,0,0,.42.74l3.83,2.12h.09a.83.83,0,0,0,.78,0l26.34-15.21a2.57,2.57,0,0,0,1.29-2.23Z"/><path class="cls-31" d="M237.74,12.46l-.31.24-.15.28a12.55,12.55,0,0,0-.73,1.78c-.22.54-.43,1.08-.62,1.63l-.11.31a2.74,2.74,0,0,0-.15.4c-.12.31-.24.61-.35.92l-.13.25a6.74,6.74,0,0,0-.29.79.73.73,0,0,0,.08.71,2.36,2.36,0,0,0,1,.56l.1,0,.32.09.55.27.11.07.1.12.09.16v.28c0,.13-.07.27-.09.4s-.17.46-.25.67l-.12.29-.41,1c-.14.31-.24.57-.34.83s-.18.38-.26.57l-.14.29c-.11.24-.23.48-.34.73l-.1.21-.38.67-.13.26-.44.76-.11.2-.43.81-.13.2-1,1.45-.4.54-.11.15-1.22,1.55-.47.44a1.14,1.14,0,0,1-.31.27.5.5,0,0,1-.5,0l-.3-.16-.08-.06a9.05,9.05,0,0,0-1.33-1,.57.57,0,0,0-.59,0l-.16.11a3.12,3.12,0,0,0-.51.58l-.11.14c-.37.52-.77,1-1.15,1.47s-.7.82-1,1.25c-.2.22-.38.44-.56.66s-.41.5-.6.77l-.21.29a1,1,0,0,0-.24.82,3.07,3.07,0,0,0,.05.53,2.16,2.16,0,0,0,.14.67,1.48,1.48,0,0,0,.12.41l.06.12v.09l.08.11.19.22.24.19.17.07h.11l.14,0h1.54a2.39,2.39,0,0,0,.45-.09h.07l.16,0,.11-.05.17-.06a2.53,2.53,0,0,0,.48-.19l.14-.06.1-.06.28-.18.31-.2.35-.26.3-.22.12-.11.06-.05.16-.14a5.67,5.67,0,0,0,.5-.48,2.9,2.9,0,0,0,.36-.34l.1-.12a5.14,5.14,0,0,0,.66-.66c.18-.16.35-.33.51-.5a3.41,3.41,0,0,0,.37-.39l.21-.21.15-.17.08-.08.11-.11L232,36a4,4,0,0,0,.34-.38l.11-.14.11-.13a8.19,8.19,0,0,0,.59-.73,1.59,1.59,0,0,0,.25-.33,3,3,0,0,0,.34-.45,8,8,0,0,0,.48-.66l.18-.24.12-.17.24-.37.15-.2.13-.22a2.48,2.48,0,0,0,.26-.4,5,5,0,0,0,.35-.54l.1-.16.05-.08,0-.08.11-.16a5.39,5.39,0,0,0,.3-.52l.13-.22.42-.72.14-.24c.11-.17.21-.34.31-.53l.09-.18.14-.26.36-.66c.06-.13.13-.25.19-.38a3.16,3.16,0,0,0,.26-.52,16.93,16.93,0,0,0,.77-1.61l.11-.25a4.35,4.35,0,0,0,.25-.59A18.55,18.55,0,0,0,240.2,22l.06-.16a8.77,8.77,0,0,0,.35-1.1c.15-.46.27-.9.38-1.33l.12-.45,0-.15v-.1l0-.2a16,16,0,0,0,.39-1.66v-.64a4.17,4.17,0,0,0,.06-.71V14.9a2.18,2.18,0,0,0-.11-.62,3.26,3.26,0,0,0-.28-.85,3.28,3.28,0,0,0-.72-1.17.72.72,0,0,0-.34-.28l-.07-.05a.6.6,0,0,0-.39-.12,3.22,3.22,0,0,0-1.23.21l-.14.06a1.43,1.43,0,0,0-.34.14l-.07,0Z"/><path class="cls-44" d="M214.44,48.48l.1.06,3.82,2.13-.07-.05-3.82-2.12,0,0"/><path class="cls-45" d="M218,40.15l-3.84.48v7.18a.83.83,0,0,0,.32.67l0,0,3.82,2.12a.82.82,0,0,1-.33-.68Z"/><path class="cls-31" d="M242.05,0h0a.87.87,0,0,1,.41.11h0l3.79,2.1.06,0L242.5.11h0a.88.88,0,0,0-.42-.11M215.3,15.32h0a2.53,2.53,0,0,0-1.06,1.16h0a2.5,2.5,0,0,1,1.06-1.17"/><path class="cls-46" d="M242.05,0a.87.87,0,0,0-.41.11L215.3,15.32a2.5,2.5,0,0,0-1.06,1.17l3.82,2.2a2.58,2.58,0,0,1,1.1-1.23L245.5,2.25a.8.8,0,0,1,.42-.11.86.86,0,0,1,.36.07L242.49.11h0a.87.87,0,0,0-.41-.11"/><path class="cls-31" d="M246.34,2.24h0"/><path class="cls-47" d="M214.26,16.51a2.54,2.54,0,0,0-.22,1v9.79l3.83,2.12V19.68a2.57,2.57,0,0,1,.19-1Z"/><path class="cls-31" d="M204.53,39.05l.12.06,3.62,2h0l-3.63-2-.1,0"/><path class="cls-48" d="M214,27.35l-9.12,9.42c-.76.79-.88,1.94-.39,2.28l.1,0,3.63,2h0c-.38-.41-.22-1.46.49-2.19l9.11-9.42Z"/><path class="cls-43" d="M185.54,236.2a19.47,19.47,0,0,1,1,8.3c-.86,11.44-8.81,24.2-17.76,28.5a11.89,11.89,0,0,1-7,1.32l-.69,1.09-3.66-3.23c-2.45-2.39-3.76-6.57-3.34-12.08.86-11.43,8.81-24.19,17.76-28.49,4.31-2.07,8.06-1.82,10.69.28l3.68,3.23Z"/><path class="cls-49" d="M168.48,233.64a35.31,35.31,0,0,0-9.23,10.67c.21-.37.44-.74.67-1.1l3.35,2.95a38.22,38.22,0,0,1,5.18-6.62c.14-.4.29-.8.44-1.2.41-1.06.86-2.11,1.36-3.14Z"/><path class="cls-49" d="M156.39,250.26a34.73,34.73,0,0,0-2.31,9.84,31.56,31.56,0,0,1,.66-4.43l0,0a39.53,39.53,0,0,1,1.62-5.44"/><path class="cls-44" d="M159.25,244.31a37.83,37.83,0,0,0-2.86,5.95,41.17,41.17,0,0,1,2.86-5.95M154,262.09c0,4.54,1.27,8,3.42,10.12l3.66,3.23v0l-.09-.09-3.58-3.15c-2.15-2.09-3.42-5.56-3.42-10.09"/><path class="cls-50" d="M159.92,243.21c-.23.36-.46.73-.68,1.1a42.19,42.19,0,0,0-2.85,5.95,39.53,39.53,0,0,0-1.62,5.44l3.34,2.94a40.82,40.82,0,0,1,5.16-12.48Z"/><path class="cls-50" d="M154.74,255.67a31.56,31.56,0,0,0-.66,4.43c-.06.68-.08,1.34-.08,2v0c0-.63,0-1.29.08-2a38.85,38.85,0,0,1,.69-4.43Z"/><path class="cls-51" d="M154.77,255.7a38.85,38.85,0,0,0-.69,4.43c-.05.67-.08,1.33-.08,2,0,4.53,1.27,8,3.42,10.09l3.58,3.16c-2.28-2.08-3.62-5.63-3.62-10.32,0-.63,0-1.29.07-2a32.64,32.64,0,0,1,.66-4.41Z"/><path class="cls-43" d="M185.83,248.94a32,32,0,0,0,.67-4.44,19.33,19.33,0,0,0-1-8.3l.68-1.09-3.67-3.23c-2.63-2.11-6.39-2.33-10.69-.29a21.89,21.89,0,0,0-3.38,2Z"/><path class="cls-43" d="M175.22,234.55c-8.95,4.3-16.91,17-17.77,28.5s5.69,17.22,14.65,12.91,16.89-17,17.76-28.49-5.7-17.23-14.64-12.92"/><path class="cls-52" d="M168.45,239.54a40.6,40.6,0,0,0-10.34,19.1,32.64,32.64,0,0,0-.66,4.41c0,.68-.07,1.34-.07,2,0,7.72,3.64,12.37,9.09,12.37A13.09,13.09,0,0,0,172.1,276c4.81-2.31,9.33-7.07,12.62-12.75l-.49.25c-.38.18-.77.35-1.15.5-3.23,5.11-7.28,9-11.39,11a12.28,12.28,0,0,1-5.26,1.35,7.07,7.07,0,0,1-4.8-1.74h0l.07,0-.07-.06c-2.47-2.18-3.64-6.2-3.25-11.32a37.32,37.32,0,0,1,5.69-16.4,38.88,38.88,0,0,1,3.65-4.95c.14-.5.29-1,.45-1.49a42.25,42.25,0,0,0-5.81,7.34,38.84,38.84,0,0,1,6.09-8.16h0m8.78,25.18a19,19,0,0,1-4.37,3.73A19,19,0,0,0,177.23,264.72Z"/><path class="cls-43" d="M184.08,250.07a27.29,27.29,0,0,1-4,10.84,22.42,22.42,0,0,1-7.55,7.74c-2.84,1.55-5.42,1.55-7.19,0s-2.53-4.48-2.09-8.18a27.23,27.23,0,0,1,4-10.84,22.37,22.37,0,0,1,7.55-7.75c2.84-1.55,5.42-1.55,7.19,0s2.53,4.49,2.09,8.19"/><path class="cls-51" d="M166.57,250.74a27.12,27.12,0,0,0-3.34,9.73,17.38,17.38,0,0,0-.12,2c0,2.76.77,4.93,2.21,6.19a4.7,4.7,0,0,0,3.19,1.16,8.42,8.42,0,0,0,4-1.16l.35-.2a19,19,0,0,0,4.37-3.73,7.54,7.54,0,0,1-.94-.22,17.18,17.18,0,0,1-4.13,3.33,7.69,7.69,0,0,1-3.67,1.1c-2.83,0-4.63-2.38-4.63-6.44V262c0-.45,0-.93.11-1.43a20.13,20.13,0,0,1,.48-2.56,27.16,27.16,0,0,1,2.23-5.81c-.06-.48-.09-1-.11-1.5"/><path class="cls-43" d="M182,241.89c1.78,1.55,2.53,4.48,2.09,8.18a27.29,27.29,0,0,1-4,10.84,22.42,22.42,0,0,1-7.55,7.74c-2.85,1.55-5.42,1.55-7.19,0s-2.53-4.48-2.09-8.18a27.23,27.23,0,0,1,4-10.84,22.28,22.28,0,0,1,7.55-7.75c2.84-1.57,5.4-1.57,7.19,0m3.68-5.91c-2.48-2.18-6-2.32-10.07-.39-4.18,2-8.27,6-11.53,11.22a37.32,37.32,0,0,0-5.69,16.4c-.39,5.12.78,9.14,3.25,11.32s6,2.32,10.06.39c4.18-2,8.28-6,11.54-11.22a37.13,37.13,0,0,0,5.68-16.4c.39-5.12-.76-9.14-3.24-11.32"/><path class="cls-43" d="M175.15,242.69c5.35-3,9,.27,8.18,7.21s-5.82,15-11.17,17.93-9-.28-8.19-7.22,5.83-15,11.18-17.92"/><path class="cls-53" d="M164.45,258.05a20.13,20.13,0,0,0-.48,2.56,19.81,19.81,0,0,1,.48-2.56m-.59,4v.45c0,4.06,1.8,6.44,4.63,6.44a7.69,7.69,0,0,0,3.67-1.1,17.18,17.18,0,0,0,4.13-3.33,7.34,7.34,0,0,1-.89-.33l-1.58.94-.7-.39a15.2,15.2,0,0,1-2.5,1.76,7.68,7.68,0,0,1-3.66,1.09,4.09,4.09,0,0,1-1.9-.43,8.14,8.14,0,0,1-1.2-4.68V262"/><path class="cls-43" d="M181.8,248.55c-.82,7-5.82,15-11.18,17.93-2.2,1.22-4.12,1.38-5.56.66-1-1.42-1.43-3.66-1.09-6.53.83-7,5.83-15,11.18-17.92,2.21-1.23,4.13-1.39,5.57-.67,1,1.43,1.42,3.66,1.08,6.53"/><path class="cls-54" d="M166.68,252.24a25.13,25.13,0,0,0-2.71,8.38,17.08,17.08,0,0,0-.11,1.84,8.14,8.14,0,0,0,1.2,4.68,4.09,4.09,0,0,0,1.9.43,7.75,7.75,0,0,0,3.67-1.09,15.14,15.14,0,0,0,2.49-1.76l-1.3-.71v-.44a1.86,1.86,0,0,1-.86-.25c-.31-.19-1.74-.92-2.09-1.16a2.21,2.21,0,0,1-.82-1.13h0v0h0l1.61-1.46a12.35,12.35,0,0,1-3-7.31"/><path class="cls-43" d="M176.64,252.56a3.23,3.23,0,0,0-2.55,0l-.85.27a2.94,2.94,0,0,1,1.13-1.11c1.28-.78,1.82-.12,1.95.53l3.1-2.79a3.64,3.64,0,0,0-.35-.84,1.73,1.73,0,0,0-.57-.57c-.15-.1-2.25-1.25-2.46-1.31a2.3,2.3,0,0,0-.58-.07v-.37l-2-1.1L171,246.66v.44l0,1.55a6.32,6.32,0,0,0-2.5,2.79l-.15.27a6.08,6.08,0,0,0-.78,3.1,2.17,2.17,0,0,0,.84,1.92c.05,0,1.7.91,2,1.09l.18.1.16.06.16,0h.4a5,5,0,0,0,1.09-.1l.56-.14.78-.24.24-.08a3.08,3.08,0,0,1-1.12,1.06,3.15,3.15,0,0,1-.77.35l-1.14-.53L168.05,261a2.19,2.19,0,0,0,.82,1.14c.35.24,1.78,1,2.09,1.16a1.86,1.86,0,0,0,.86.25V264l2,1.1,2.47-1.48-.08-1.95a8.86,8.86,0,0,0,2.41-2.69,6.27,6.27,0,0,0,.82-3.27,2.33,2.33,0,0,0-.84-2c-.34-.29-1.7-1-2-1.16"/><path class="cls-55" d="M169.67,259.55,168.06,261l2,1.09a2.22,2.22,0,0,0,.86,1.16c-.39-.22-1.69-.89-2-1.13a2.12,2.12,0,0,1-.82-1.11h0a2.21,2.21,0,0,0,.82,1.13c.35.24,1.78,1,2.09,1.16a1.86,1.86,0,0,0,.86.25V264l2,1.1,1.58-.94h0l-1.54.92-.08-1.92h0l.07,1.94-2-1.11v-.43h.09a4.29,4.29,0,0,0,1.83-.41l0,0a4.46,4.46,0,0,1-1.7.4,1.93,1.93,0,0,1-1.93-1.43l0,0,0,0v0l1.19-1.08-1.34-1.18-.23-.24m4.1,3.61v0h0"/><path class="cls-56" d="M173.74,263.14a4.29,4.29,0,0,1-1.83.41h-.09V264l2,1.11-.07-1.94h0"/><path class="cls-57" d="M168.05,261v0h0Z"/><path class="cls-56" d="M168.06,261h0a2.12,2.12,0,0,0,.82,1.11c.34.23,1.64.91,2,1.13a2.22,2.22,0,0,1-.86-1.16Z"/><path class="cls-43" d="M173,248.23l.06,1.55a6.32,6.32,0,0,0-2.5,2.78l-.15.28a6.11,6.11,0,0,0-.78,3.1c.05,1.15.43,1.75,1,2l.15.07.16,0h.42a4.47,4.47,0,0,0,1.09-.1l.56-.14.78-.24.31-.1a5.1,5.1,0,0,1,1.64-.38.48.48,0,0,1,.46.28,1.15,1.15,0,0,1,.07.36,2.31,2.31,0,0,1-1.35,1.92c-1.09.66-1.73.49-1.91-.27l-2.95,2.67c.53,1.48,1.79,1.85,3.72,1l.08,2,2.46-1.48-.08-1.95a9.19,9.19,0,0,0,2.42-2.7,6.12,6.12,0,0,0,.81-3.27c-.1-2.56-1.7-2.47-3.4-2s-3,1.25-3,0a2.3,2.3,0,0,1,1.3-1.94c1.29-.78,1.83-.12,2,.53l3.1-2.78a3.54,3.54,0,0,0-.35-.85,1.76,1.76,0,0,0-1-.78,3.94,3.94,0,0,0-2.52.41l-.08-2L173,247.77Z"/><polygon class="cls-5" points="176.3 263.6 173.84 265.08 173.76 263.14 174.07 264.67 176.3 263.6"/><path class="cls-5" d="M173,259.44l-3,2.66,2.77-2.32s.35,1.38,2.09-.06c-1.09.66-1.73.49-1.91-.27Z"/><path class="cls-5" d="M179.41,249.5a3.34,3.34,0,0,0-.36-.85,1.71,1.71,0,0,0-1-.77,2,2,0,0,1,1.11,1.66l-2.84,2.74Z"/><polygon class="cls-5" points="175.5 248.29 175.23 246.67 172.99 247.8 175.43 246.34 175.5 248.29"/><path class="cls-5" d="M171.55,274.56c6.19-2.79,11.68-10.84,11.68-10.84-3.26,5.23-7.36,9.22-11.54,11.22-4,1.93-7.57,1.79-10.06-.39a6.44,6.44,0,0,0,1.19.63c1.54.64,4.53,1.27,8.73-.62"/><path class="cls-5" d="M162.36,247.71c3.31-5.86,7.93-10.79,12.86-13.16,5.12-2.46,9.45-1.62,12.07,1.69,0,0-4.4-5.18-12.1-1.19s-12.83,12.66-12.83,12.66"/><path class="cls-43" d="M197.37,224.61a19.07,19.07,0,0,1,.93,8.11c-.84,11.17-8.6,23.64-17.35,27.85a11.74,11.74,0,0,1-6.81,1.28l-.66,1.07-3.58-3.16c-2.4-2.33-3.68-6.42-3.27-11.8.84-11.16,8.61-23.63,17.35-27.83,4.21-2,7.88-1.78,10.45.28l3.59,3.15Z"/><path class="cls-49" d="M188.36,218.79a12,12,0,0,0-2.43.55,12,12,0,0,1,2.43-.55m-7.66,3.33a34.34,34.34,0,0,0-9,10.42q.31-.54.66-1.08l3.28,2.88A33.78,33.78,0,0,1,184,225Zm-11.81,16.22a34.29,34.29,0,0,0-2.26,9.62,31.49,31.49,0,0,1,.65-4.32l0,0a39.17,39.17,0,0,1,1.58-5.32"/><path class="cls-50" d="M170.25,235.2c-.5,1-.95,2.08-1.36,3.14.41-1.06.87-2.1,1.37-3.13Z"/><path class="cls-45" d="M171.68,232.54c-.51.87-1,1.76-1.43,2.66h0c.44-.91.91-1.8,1.42-2.67"/><path class="cls-50" d="M172.34,231.46q-.34.54-.66,1.08a40.16,40.16,0,0,0-2.79,5.8,39.17,39.17,0,0,0-1.58,5.32l3.26,2.87a39.56,39.56,0,0,1,5.05-12.19Z"/><path class="cls-58" d="M166.57,250.74h0c0,.52.06,1,.11,1.5h0c-.05-.48-.09-1-.11-1.49"/><path class="cls-45" d="M166.56,249.91c0,.28,0,.56,0,.83h0c0-.27,0-.55,0-.83"/><path class="cls-57" d="M166.68,252.23h0a12.35,12.35,0,0,0,3,7.31h0a12.39,12.39,0,0,1-3-7.31"/><path class="cls-56" d="M169.68,259.54h0l.23.24,1.34,1.18h0l-1.36-1.2-.22-.22"/><path class="cls-45" d="M171.26,261h0l0,0v0Zm.07.06h0l2.17,1.91h0l-.1-.09Z"/><polygon class="cls-59" points="171.27 261 171.31 261.04 171.33 261.02 171.28 260.98 171.27 261"/><path class="cls-50" d="M167.28,243.64a31.49,31.49,0,0,0-.65,4.32c0,.67-.07,1.31-.07,1.93v0c0-.62,0-1.26.07-1.92a37.14,37.14,0,0,1,.68-4.33Z"/><path class="cls-51" d="M167.31,243.66a37.14,37.14,0,0,0-.68,4.33c0,.66-.07,1.3-.07,1.92,0,4.42,1.24,7.81,3.34,9.86l3.49,3.07c-2.22-2-3.54-5.49-3.54-10.07,0-.62,0-1.26.08-1.92a31.08,31.08,0,0,1,.64-4.32Z"/><path class="cls-43" d="M197.65,237.06a31.8,31.8,0,0,0,.66-4.34,19.24,19.24,0,0,0-.94-8.11l.66-1.07-3.58-3.15c-2.57-2.06-6.24-2.27-10.45-.28a21.38,21.38,0,0,0-3.3,2Z"/><path class="cls-43" d="M187.28,223c-8.74,4.21-16.51,16.64-17.35,27.85s5.56,16.81,14.3,12.61,16.51-16.65,17.36-27.84S196,218.79,187.28,223"/><path class="cls-52" d="M192.77,221.61a12.68,12.68,0,0,0-5.49,1.39c-7.63,3.67-14.52,13.61-16.71,23.53a31.08,31.08,0,0,0-.64,4.32c-.05.66-.07,1.3-.07,1.92,0,7.54,3.55,12.08,8.88,12.08a12.79,12.79,0,0,0,5.49-1.39c8.75-4.21,16.51-16.65,17.36-27.84,0-.66.07-1.31.07-1.93,0-7.53-3.56-12.08-8.89-12.08m-14.09,42.15a6.87,6.87,0,0,1-4.67-1.7c-2.42-2.14-3.55-6.06-3.17-11.06a36.44,36.44,0,0,1,5.55-16c3.18-5.1,7.19-9,11.27-11a12.09,12.09,0,0,1,5.16-1.32,6.89,6.89,0,0,1,4.68,1.71c2.42,2.13,3.54,6.06,3.16,11.06a36.31,36.31,0,0,1-5.55,16c-3.18,5.11-7.19,9-11.27,11a12.09,12.09,0,0,1-5.16,1.32M190.77,229a8.28,8.28,0,0,0-3.9,1.15,22,22,0,0,0-7.37,7.57l-.05.07.05-.07a22,22,0,0,1,7.37-7.57,8.38,8.38,0,0,1,3.91-1.13,4.73,4.73,0,0,1,2.29.56,4.6,4.6,0,0,0-2.3-.58m3.67,1.72a8.58,8.58,0,0,1,1.62,5.52,15.92,15.92,0,0,1-.12,1.91c.38-3.2-.15-5.82-1.5-7.43"/><path class="cls-43" d="M195.94,238.16A26.56,26.56,0,0,1,192,248.75a21.86,21.86,0,0,1-7.37,7.57c-2.78,1.51-5.29,1.51-7,0s-2.48-4.38-2.05-8a26.56,26.56,0,0,1,3.93-10.59,22,22,0,0,1,7.37-7.57c2.78-1.51,5.3-1.51,7,0s2.48,4.39,2.05,8"/><path class="cls-51" d="M190.78,229a8.38,8.38,0,0,0-3.91,1.13,22,22,0,0,0-7.37,7.57l-.05.07a26.53,26.53,0,0,0-3.88,10.52,16.71,16.71,0,0,0-.12,2c0,2.69.76,4.82,2.16,6a4.66,4.66,0,0,0,3.12,1.13,8.35,8.35,0,0,0,3.91-1.13,21.86,21.86,0,0,0,7.37-7.57,26.56,26.56,0,0,0,3.93-10.59,15.92,15.92,0,0,0,.12-1.91,8.58,8.58,0,0,0-1.62-5.52,4.85,4.85,0,0,0-.55-.56,4.21,4.21,0,0,0-.82-.58,4.73,4.73,0,0,0-2.29-.56M187.21,231a7.54,7.54,0,0,1,3.59-1.07c2.76,0,4.52,2.32,4.52,6.29a14.81,14.81,0,0,1-.11,1.83c-.81,6.79-5.69,14.62-10.92,17.51a7.47,7.47,0,0,1-3.58,1.07c-2.76,0-4.52-2.32-4.52-6.28v-.44c0-.45.05-.91.11-1.4a21.67,21.67,0,0,1,.47-2.54c1.54-6.11,5.87-12.43,10.44-15"/><path class="cls-43" d="M193.89,230.17c1.75,1.51,2.48,4.38,2.05,8A26.41,26.41,0,0,1,192,248.75a21.86,21.86,0,0,1-7.37,7.57c-2.78,1.51-5.29,1.51-7,0s-2.48-4.38-2.05-8a26.71,26.71,0,0,1,3.93-10.59,22,22,0,0,1,7.37-7.57c2.78-1.53,5.28-1.53,7,0m3.61-5.77c-2.43-2.13-5.91-2.27-9.84-.39s-8.09,5.87-11.27,11a36.44,36.44,0,0,0-5.55,16c-.38,5,.75,8.92,3.17,11.06s5.9,2.27,9.83.38,8.09-5.85,11.27-11a36.31,36.31,0,0,0,5.55-16c.38-5-.74-8.93-3.16-11.06"/><path class="cls-43" d="M187.21,231c5.23-2.89,8.81.27,8,7.05s-5.69,14.62-10.92,17.51-8.79-.27-8-7S182,233.84,187.21,231"/><path class="cls-53" d="M190.8,229.88a7.54,7.54,0,0,0-3.59,1.07,7.54,7.54,0,0,1,3.59-1.07,4,4,0,0,1,1.85.42,8,8,0,0,1,1.18,4.54,15.06,15.06,0,0,1-.12,1.84,24.16,24.16,0,0,1-2.31,7.54,6,6,0,0,1-.79,2.66,8.85,8.85,0,0,1-2.36,2.63l.08,1.9-2.41,1.45-.69-.38a15,15,0,0,1-2.43,1.71,7.47,7.47,0,0,1-3.58,1.07,4,4,0,0,1-1.86-.42,8,8,0,0,1-1.17-4.57v0c0,4,1.76,6.28,4.52,6.28a7.47,7.47,0,0,0,3.58-1.07c5.23-2.89,10.11-10.72,10.92-17.51a14.7,14.7,0,0,0,.11-1.83c0-4-1.76-6.29-4.52-6.29"/><path class="cls-53" d="M176.77,245.92a21.67,21.67,0,0,0-.47,2.54,21.67,21.67,0,0,1,.47-2.54"/><path class="cls-43" d="M193.71,236.68c-.8,6.81-5.69,14.62-10.91,17.51-2.16,1.19-4,1.35-5.44.65-1-1.39-1.39-3.58-1.06-6.38.81-6.81,5.7-14.62,10.92-17.51,2.16-1.19,4-1.35,5.43-.65,1,1.39,1.4,3.58,1.06,6.38"/><path class="cls-54" d="M190.8,229.88a7.54,7.54,0,0,0-3.59,1.07c-5.22,2.89-10.1,10.7-10.91,17.51a14.5,14.5,0,0,0-.11,1.81,8,8,0,0,0,1.17,4.57,4,4,0,0,0,1.86.42,7.47,7.47,0,0,0,3.58-1.07,15.6,15.6,0,0,0,2.43-1.71l-1.27-.7v-.43a1.82,1.82,0,0,1-.84-.25c-.3-.18-1.69-.9-2-1.13a2.08,2.08,0,0,1-.8-1.11h0v0h0l2.86-2.6,1.11.52a3.46,3.46,0,0,0,.76-.34,3.13,3.13,0,0,0,1.1-1l-.24.08-.76.23-.55.14a4.92,4.92,0,0,1-.94.1h-.52l-.15-.05-.16-.06-.18-.1c-.25-.17-1.87-1.06-1.92-1.06a2.15,2.15,0,0,1-.83-1.68c0-.06,0-.13,0-.2v-.1a6,6,0,0,1,.76-2.93l.15-.26a6.11,6.11,0,0,1,2.44-2.72h0l-.07-1.91,0,0v0l2.39-1.43,2,1.08v.36h0a2,2,0,0,1,.54.07c.21.06,2.27,1.18,2.41,1.28a1.64,1.64,0,0,1,.55.56,3.32,3.32,0,0,1,.35.82l-3,2.72a.93.93,0,0,0-.91-.86,2.06,2.06,0,0,0-1,.34,2.88,2.88,0,0,0-1.1,1.09c.27-.08.54-.18.83-.26a3.18,3.18,0,0,1,1.25-.26,3.13,3.13,0,0,1,1.24.26c.16.1.77.42,1.27.71l.63.35-.13,0,.15.11a2.26,2.26,0,0,1,.82,1.74v.4c0,.11,0,.23,0,.35a24.16,24.16,0,0,0,2.31-7.54,15.06,15.06,0,0,0,.12-1.84,8,8,0,0,0-1.18-4.54,4,4,0,0,0-1.85-.42"/><path class="cls-43" d="M188.68,240.6a3.19,3.19,0,0,0-2.5,0c-.29.08-.56.18-.83.26a2.88,2.88,0,0,1,1.1-1.09c1.26-.76,1.79-.11,1.91.52l3-2.72a3.32,3.32,0,0,0-.35-.82,1.64,1.64,0,0,0-.55-.56c-.14-.1-2.2-1.22-2.41-1.28a2.1,2.1,0,0,0-.56-.07v-.36l-2-1.08-2.39,1.43v.43l.06,1.52a6.17,6.17,0,0,0-2.45,2.72l-.15.26a6.06,6.06,0,0,0-.76,3,2.13,2.13,0,0,0,.82,1.88c.05,0,1.67.89,1.92,1.06l.18.1.16.06.15.05h.39a4.79,4.79,0,0,0,1.07-.1l.55-.14.76-.23.24-.08a3.13,3.13,0,0,1-1.1,1,3.46,3.46,0,0,1-.76.34l-1.11-.52-2.87,2.61a2.08,2.08,0,0,0,.8,1.11c.35.23,1.74.95,2,1.13a1.82,1.82,0,0,0,.84.25v.43l2,1.08,2.41-1.45-.08-1.9a8.77,8.77,0,0,0,2.36-2.64,6,6,0,0,0,.8-3.19,2.29,2.29,0,0,0-.82-2c-.33-.29-1.66-1-1.91-1.13"/><path class="cls-55" d="M185.57,233.4l-2.39,1.43v0l1.92,1.06.08,1.91-2-1.07a6.11,6.11,0,0,0-2.44,2.72l-.15.26a6,6,0,0,0-.76,2.93v.1a1.33,1.33,0,0,0,0,.2,2.11,2.11,0,0,0,.82,1.68c.05,0,1.67.89,1.92,1.06l.18.1.16.06.15.05h.52a4.23,4.23,0,0,0,.94-.1l.55-.14.76-.23.24-.08a3.13,3.13,0,0,1-1.1,1,2.89,2.89,0,0,1-.76.34l-1.11-.52-2.86,2.6,1.94,1.07a2.28,2.28,0,0,0,.83,1.13c-.38-.22-1.65-.88-2-1.1a2.13,2.13,0,0,1-.8-1.09h0a2.14,2.14,0,0,0,.8,1.11c.35.23,1.74.95,2,1.13a1.82,1.82,0,0,0,.84.25v.43l2,1.08,2.41-1.45-.08-1.9a8.77,8.77,0,0,0,2.36-2.64,6,6,0,0,0,.8-3v-.4a2.26,2.26,0,0,0-.82-1.74l-.15-.11a3.37,3.37,0,0,0-1-.17,3.21,3.21,0,0,0-1.29.27,12.82,12.82,0,0,1-2.34.64c-.37,0-.61-.18-.63-.67a1.75,1.75,0,0,1,.18-.81c.27-.09.54-.19.83-.27a3.12,3.12,0,0,1,1.24-.25,3.17,3.17,0,0,1,1.25.25c.18.11.78.43,1.29.7-.5-.29-1.11-.61-1.27-.71a3.13,3.13,0,0,0-1.24-.26,3.18,3.18,0,0,0-1.25.26c-.29.08-.56.18-.83.26a2.88,2.88,0,0,1,1.1-1.09,2.06,2.06,0,0,1,1-.34.93.93,0,0,1,.91.86l3-2.72a3,3,0,0,0-.35-.82,1.64,1.64,0,0,0-.55-.56c-.14-.09-2.2-1.22-2.41-1.27a1.64,1.64,0,0,0-.54-.08h0v-.36Zm.27,14.56a.74.74,0,0,1-.74-.67l-.84-.47a3,3,0,0,0,.75-.34,3,3,0,0,0,1.1-1h.06a5.5,5.5,0,0,1,1.6-.38h0a.46.46,0,0,1,.42.28l.07.33a2.29,2.29,0,0,1-1.32,1.88,2.37,2.37,0,0,1-1.13.4m-1.79,3.37a4.33,4.33,0,0,0,1.8-.4l.07,1.91-2-1.09v-.42h.09"/><path class="cls-57" d="M189.94,241.31l.5.31.13,0-.63-.35"/><path class="cls-56" d="M187.4,240.36a3.12,3.12,0,0,0-1.24.25c-.29.08-.56.18-.83.27a1.85,1.85,0,0,0-.18.81c0,.49.26.67.63.67a12.62,12.62,0,0,0,2.34-.64,3.21,3.21,0,0,1,1.29-.27,3.32,3.32,0,0,1,1,.17l-.5-.31c-.51-.27-1.11-.59-1.29-.7a3.17,3.17,0,0,0-1.25-.25"/><path class="cls-56" d="M185.85,250.93a4.33,4.33,0,0,1-1.8.4H184v.42l2,1.09Z"/><path class="cls-57" d="M180.28,248.84v0h0Z"/><path class="cls-56" d="M180.29,248.85h0a2.13,2.13,0,0,0,.8,1.09c.33.22,1.6.88,2,1.1a2.28,2.28,0,0,1-.83-1.13Z"/><path class="cls-56" d="M187.8,245.07h0a5.48,5.48,0,0,0-1.6.37h-.06a3.54,3.54,0,0,1-1.85,1.38l.84.47a.74.74,0,0,0,.74.67,2.3,2.3,0,0,0,1.12-.4,2.28,2.28,0,0,0,1.33-1.88l-.07-.33a.46.46,0,0,0-.42-.28"/><polygon class="cls-57" points="183.15 234.86 183.22 236.77 183.24 236.78 183.24 236.78 183.18 235.26 183.18 234.88 183.15 234.86"/><polygon class="cls-56" points="183.18 234.88 183.18 235.26 183.24 236.78 183.24 236.78 185.18 237.85 185.1 235.94 183.18 234.88"/><path class="cls-43" d="M185.12,236.37l.06,1.51a6.17,6.17,0,0,0-2.45,2.72l-.14.27a5.92,5.92,0,0,0-.76,3c0,1.13.41,1.71,1,2l.15.06.16.05h.4a4.27,4.27,0,0,0,1.07-.1l.55-.14.76-.23.3-.1a4.91,4.91,0,0,1,1.6-.37.47.47,0,0,1,.45.27,1.15,1.15,0,0,1,.07.36,2.25,2.25,0,0,1-1.32,1.88c-1.07.64-1.69.47-1.86-.27l-2.88,2.6c.51,1.46,1.74,1.81,3.63,1l.07,1.9,2.41-1.44-.08-1.91a8.73,8.73,0,0,0,2.36-2.63,6.06,6.06,0,0,0,.8-3.19c-.1-2.51-1.67-2.42-3.32-1.93s-2.91,1.22-3,0a2.27,2.27,0,0,1,1.28-1.9c1.26-.76,1.79-.11,1.91.52l3-2.71a3.11,3.11,0,0,0-.35-.84,1.65,1.65,0,0,0-1-.75,3.76,3.76,0,0,0-2.46.4l-.08-1.92-2.38,1.43Z"/><polygon class="cls-5" points="188.34 251.38 185.94 252.83 185.86 250.93 186.16 252.42 188.34 251.38"/><path class="cls-5" d="M185.11,247.31l-2.88,2.61,2.7-2.27s.34,1.34,2-.06c-1.06.65-1.68.48-1.86-.26"/><path class="cls-5" d="M191.38,237.61a3.57,3.57,0,0,0-.35-.83,1.69,1.69,0,0,0-1-.76,1.92,1.92,0,0,1,1.08,1.63l-2.77,2.67Z"/><polygon class="cls-5" points="187.56 236.42 187.3 234.84 185.1 235.94 187.49 234.51 187.56 236.42"/><path class="cls-5" d="M183.7,262.09c6.05-2.73,11.41-10.59,11.41-10.59-3.18,5.1-7.19,9-11.27,11-3.92,1.88-7.4,1.75-9.83-.39,0,0,3.51,2.79,9.69,0"/><path class="cls-5" d="M174.73,235.86c3.23-5.73,7.74-10.54,12.55-12.86,5-2.41,9.24-1.58,11.8,1.65,0,0-4.3-5.05-11.83-1.16s-12.52,12.37-12.52,12.37"/><path class="cls-43" d="M220.31,98a8.35,8.35,0,0,0,3.77,6.52l24.18,14a8.24,8.24,0,0,0,5.07.8h.07l.34-.06h.14l.29-.07.19,0,.24-.07.22-.07.2-.08.27-.11.14-.06.39-.2,3.05-1.77a8.32,8.32,0,0,0,3.77-6.51V81.75a8,8,0,0,0-1-3.12,7.74,7.74,0,0,0-2.74-2.94l-24.24-14a8.28,8.28,0,0,0-7.51,0l-3.06,1.77A8.3,8.3,0,0,0,220.32,70Z"/><path class="cls-31" d="M230.9,60.8a8.29,8.29,0,0,0-3.76.9l-3.06,1.77A8.28,8.28,0,0,0,220.43,69l0-.09a8.28,8.28,0,0,1,3.62-5.4l3.06-1.77a8.28,8.28,0,0,1,7.51,0l24.24,14a7.74,7.74,0,0,1,2.74,2.94,7.74,7.74,0,0,0-2.74-2.94l-24.24-14a8.25,8.25,0,0,0-3.75-.9M220.43,69a4,4,0,0,0-.12,1,8.86,8.86,0,0,1,.12-1"/><path class="cls-60" d="M230.9,60.8a8.29,8.29,0,0,0-3.76.9l-3.06,1.77a8.3,8.3,0,0,0-3.63,5.4,2,2,0,0,1,2-1.57,3.42,3.42,0,0,1,1.68.51l24.23,14A8.35,8.35,0,0,1,251,84.56l10.58-6.06.08.13a7.82,7.82,0,0,0-2.74-2.94l-24.24-14a8.25,8.25,0,0,0-3.75-.9"/><path class="cls-44" d="M249.09,118.81a6.36,6.36,0,0,0,1,.3,6,6,0,0,1-.83-.24h0Z"/><path class="cls-45" d="M261.55,78.5,251,84.59a8.42,8.42,0,0,1,.93,2.33,8.19,8.19,0,0,0-1-2.31l0,0,0,0-.12.06a8.61,8.61,0,0,1,.93,2.32v.13l.07.34a5.46,5.46,0,0,1,.07.9v29.11l-.13.14-.07.16-.06.14-.07.13-.09.14-.08.11-.1.13-.08.06-.13.13a1.8,1.8,0,0,1-1,.36h-.58l-.28,0a7.88,7.88,0,0,0,.83.24,8.72,8.72,0,0,0,1.9.22,9.63,9.63,0,0,0,1.31-.1h.06l.35-.06h.14l.29-.07.19,0,.24-.07.22-.07.2-.08.27-.11.14-.06.39-.2,3.05-1.77a8.35,8.35,0,0,0,3.77-6.51V81.75a8.18,8.18,0,0,0-1-3.12Z"/><path class="cls-61" d="M261.55,78.5,251,84.56l0,0,10.55-6.09.08.13ZM251,84.59l0,0a8.19,8.19,0,0,1,1,2.31,8.42,8.42,0,0,0-.93-2.33"/><path class="cls-17" d="M229.1,78.52c8.63,7,12.61,15.6,13.72,29.64.09,1.3-.21,3,1,3.68s.9-1.27.92-2.51c-.22-14.38-6.06-27.71-15.34-33.57-.56-.35-1.92-1.78-2,.32,0,1.44,1,1.83,1.75,2.41Z"/><path class="cls-17" d="M229.54,83.85c-.83-.62-1.94-1.87-2.12-.2s1,2.26,1.81,3c5.32,4.92,7.17,9,8.06,17.63.13,1.27-.14,3,1.17,3.4,1,.35.63-1.45.71-2.32C239.17,97.54,234.86,87.91,229.54,83.85Z"/><path class="cls-17" d="M228.73,90.92c-.57-.29-1.1-.53-1.3.27a2.23,2.23,0,0,0,1,2.43,10.55,10.55,0,0,1,3.56,7.93,2.35,2.35,0,0,0,1,2.13c.57.24.85-.73.82-1.77,0-3.76-2.73-9.72-5.08-10.93Z"/><path class="cls-8" d="M13.18,162.85a.36.36,0,0,1-.36-.35V148.33c0-5.91,3.25-12.59,7.24-14.89a4.57,4.57,0,0,1,4.68-.29c1.85,1.06,2.9,3.63,2.9,7v14.08a.34.34,0,0,1-.33.35h0a.36.36,0,0,1-.36-.34h0V140.2c0-3.15-.93-5.51-2.55-6.42a3.81,3.81,0,0,0-3.94.29c-3.79,2.2-6.89,8.6-6.89,14.29v14.17a.34.34,0,0,1-.36.32Z"/><polygon class="cls-43" points="54.07 212.64 52.52 146.03 41.18 139.49 39.84 204.43 54.07 212.64"/><polygon class="cls-52" points="41.18 139.49 40.91 152.73 52.52 146.03 41.18 139.49"/><polygon class="cls-43" points="1.34 162.5 0 227.43 39.84 204.43 41.18 139.49 1.34 162.5"/><polygon class="cls-51" points="41.18 139.49 27.64 147.31 26.94 147.72 13.56 155.44 12.82 155.87 1.34 162.5 12.68 169.03 40.91 152.73 41.18 139.49"/><polygon class="cls-43" points="12.68 169.03 14.22 235.64 54.07 212.64 52.52 146.03 12.68 169.03"/><polygon class="cls-43" points="0 227.43 14.22 235.64 12.68 169.03 1.34 162.5 0 227.43"/><polygon class="cls-52" points="0 227.43 6.42 225.16 7.44 185.46 8.47 225.75 14.22 235.64 12.68 169.03 1.34 162.5 0 227.43"/><polygon class="cls-62" points="6.42 225.16 0 227.43 14.22 235.64 8.47 225.75 7.44 185.46 6.42 225.16"/><path class="cls-52" d="M25.2,167.14a1.26,1.26,0,0,0-.66.22,3.13,3.13,0,0,0-1.42,2.46c0,.65.32,1,.8,1a1.37,1.37,0,0,0,.62-.19A3.15,3.15,0,0,0,26,168.15c0-.64-.31-1-.77-1"/><path class="cls-52" d="M39.29,158.91a1.29,1.29,0,0,0-.63.19,3.13,3.13,0,0,0-1.42,2.46c0,.65.32,1,.79,1a1.26,1.26,0,0,0,.63-.19,3.13,3.13,0,0,0,1.42-2.46c0-.65-.32-1-.79-1"/><path class="cls-8" d="M24.54,169.32a.36.36,0,0,1-.38-.32V154.76c0-5.9,3.25-12.59,7.23-14.88a4.58,4.58,0,0,1,4.68-.3c1.85,1.07,2.91,3.64,2.91,7v14.13a.36.36,0,0,1-.3.4.35.35,0,0,1-.4-.3V146.67c0-3.15-.93-5.51-2.56-6.43a3.79,3.79,0,0,0-3.94.3c-3.79,2.19-6.88,8.6-6.88,14.28V169a.37.37,0,0,1-.36.33"/><path class="cls-31" d="M46.45,188.82l-2.24-3.63L42,188.26l2.24,3.63a.93.93,0,0,1,0,.77,1.27,1.27,0,0,1-.49.69l-6.87,4.2-.1-1.85-3,5.34,3.27,1.23-.07-1.34,6.81-4.16a7.59,7.59,0,0,0,3.1-6.09,3.67,3.67,0,0,0-.47-1.89Z"/><path class="cls-31" d="M27.75,203.17a.33.33,0,0,1-.5-.09,1,1,0,0,1,0-.77l3.18-9.79,1,.22L30.78,188l-3.67,3.75,1.12.27L25,202c-.83,2.53-.26,4.78,1.26,5a2.29,2.29,0,0,0,1.45-.32l.15-.08,3.54-2.18L31.3,201Z"/><path class="cls-31" d="M35.33,178.24a.34.34,0,0,1,.51.08l3.25,5.25-1,1.37,3.73-.07.66-5.75-1.11,1.47L38,175.24c-.9-1.47-2.84-1-4.32,1.08a8.7,8.7,0,0,0-1.13,2.26l-1.79,5.5,2.27.35L34.8,179a1.15,1.15,0,0,1,.53-.71"/></g></g></svg>