<svg xmlns="http://www.w3.org/2000/svg" viewBox="0 0 55.84 39.92"><defs><style>.cls-1{fill:#ffb71b;}</style></defs><g id="Layer_2" data-name="Layer 2"><g id="Layer_1-2" data-name="Layer 1"><path class="cls-1" d="M44,39.92a.8.8,0,0,1-.44-.13,11.64,11.64,0,0,1-1.69-1.46C40.43,37,39.5,36.17,38,36.76a5.3,5.3,0,0,1-3.25.12,9.49,9.49,0,0,0-1.19-.18,1.91,1.91,0,0,1-1.23-.39,3.39,3.39,0,0,1-.43-.35.83.83,0,0,0-.33-.22l-.74-.3a7.06,7.06,0,0,0-1-.39,1.17,1.17,0,0,0-.34,0,2.54,2.54,0,0,1-1-.15,4,4,0,0,1-.84-.5L27.21,34c-.54-.38-1.1-.77-1.6-1.07a3,3,0,0,0-1.05-.28,4.25,4.25,0,0,1-1.33-.33,2.3,2.3,0,0,1-.9-.83c-.17-.26-.21-.31-.47-.35a.78.78,0,0,1-.6-.42.9.9,0,0,1-.09-.33,4,4,0,0,1-.56-.06.79.79,0,0,1-.73-.18C19.7,30,18,28,18.56,26.87a1.14,1.14,0,0,1,.2-.27,1.32,1.32,0,0,1,.62-.74c0-.11-.08-.24-.1-.3a2.38,2.38,0,0,0-.2-.39,2.58,2.58,0,0,1-.45-1.43,5.22,5.22,0,0,1-.33-.6c-.06-.11-.11-.22-.16-.29a4.53,4.53,0,0,1-.38-.86,3.79,3.79,0,0,0-.26-.58l-.1-.17a5.49,5.49,0,0,0-.73-1.08A3.45,3.45,0,0,0,16.2,20a2,2,0,0,1-1.46-1.15.84.84,0,0,1,.08-.64A1.45,1.45,0,0,0,14.2,18a2.9,2.9,0,0,1-1.34-.46,2,2,0,0,1-.41-2.11,2.36,2.36,0,0,1,.21-.51,1,1,0,0,1-.28-.16.82.82,0,0,1-.28-.56,2.06,2.06,0,0,1-1.33-1,1.34,1.34,0,0,1,0-1,1.55,1.55,0,0,1-.56-.19,1.5,1.5,0,0,1-.62-.77,3.4,3.4,0,0,0-.51-.5,1.65,1.65,0,0,1-.26-.29A.82.82,0,0,1,8.36,10C8.1,9,7.83,8.24,7.45,7.24l-.07-.18A6.14,6.14,0,0,1,7,5.6a2.2,2.2,0,0,1,0-.83l-.52-.25c-.23-.11-.48-.23-.73-.37a1.42,1.42,0,0,0-.1.29,2.35,2.35,0,0,0,0,1l0,.47a2.63,2.63,0,0,0,.23,1,2.65,2.65,0,0,0,.36.46,3.32,3.32,0,0,1,.67,1l.09.24a4.45,4.45,0,0,0,.57,1.13,1.73,1.73,0,0,0,.15.2,2.35,2.35,0,0,1,.41.62,1.27,1.27,0,0,1,.14.5,1.92,1.92,0,0,1,.52.42,3.52,3.52,0,0,1,.45,1,3.94,3.94,0,0,1,.06.58.67.67,0,0,1,.33.22,4.31,4.31,0,0,1,.85,2.58,8.05,8.05,0,0,0,.14,1c0,.18.11.34.16.48A4.81,4.81,0,0,1,11,18.35a.39.39,0,0,0,0,.13.7.7,0,0,1,.43.05A6,6,0,0,1,13.57,21a1.35,1.35,0,0,1-.42,1.3,1.54,1.54,0,0,1-1.54.22,1.75,1.75,0,0,1-1-1.08.53.53,0,0,0-.08-.17,1,1,0,0,0-.22-.12,2.24,2.24,0,0,1-.71-.43,7.19,7.19,0,0,1-.52-.57,3.85,3.85,0,0,0-.46-.51,3.13,3.13,0,0,0-.31-.23C7.74,19,7,18.44,6.94,17.6a.81.81,0,0,1,.49-.75.16.16,0,0,0,.12-.13,1.47,1.47,0,0,0-.34-1,2.3,2.3,0,0,0-.51-.42,2,2,0,0,1-.76-.77,2.43,2.43,0,0,1-2.24-1l-.27-.25a.86.86,0,0,0-.18-.14A1.39,1.39,0,0,1,2.54,12a1.08,1.08,0,0,1,.61-.9,1.53,1.53,0,0,1,1-.19.24.24,0,0,1,.06-.09l.06-.08a.85.85,0,0,1,.2-.59h0A7.65,7.65,0,0,0,2.84,8.33l-.28-.24a1.9,1.9,0,0,1-.81-1.2,3.15,3.15,0,0,1-.1-.55,1.62,1.62,0,0,0-.11-.49.77.77,0,0,1-.39-.65.76.76,0,0,1,.14-.49,5.16,5.16,0,0,0-.48-1L.65,3.45a.76.76,0,0,1,0-.69c-.06-.07-.12-.13-.17-.2A2,2,0,0,1,0,1.07,2.35,2.35,0,0,0,0,.79.79.79,0,0,1,.24.23.88.88,0,0,1,.81,0L5.4.05a.89.89,0,0,1,.33.08l6.38,3,4.78.13a1,1,0,0,1,.15-.2.82.82,0,0,1,.8-.19A4.44,4.44,0,0,0,19.18,3c1.08,0,2.57,0,3.27,1.32a1.81,1.81,0,0,1,.19.6.38.38,0,0,0,0,.1,4.56,4.56,0,0,0,.43.35l.29.22c.39.3,1,.76.94,1.46a.55.55,0,0,1,0,.17,2,2,0,0,1,.14.49.38.38,0,0,0,0,.1,2.32,2.32,0,0,0,.6.3l.34.16a4.32,4.32,0,0,0,.72.27.81.81,0,0,1,.12-.42,3.88,3.88,0,0,1,.5-.6.79.79,0,0,1,.86-.1h0a2.08,2.08,0,0,1,1.54-.21,2.86,2.86,0,0,1,1.8,1.43l.49.79c.46.76.94,1.55,1.46,2.26a4.49,4.49,0,0,1,.69,1.53l.08.26c.05.15.08.33.12.51a3.06,3.06,0,0,0,.17.61,4,4,0,0,0,2,.86.79.79,0,0,1,1.22.89l-.18.5a6,6,0,0,0-.38,1.32.8.8,0,0,1-.7.69,6,6,0,0,0,0,.8,8.1,8.1,0,0,1,0,1A7.47,7.47,0,0,1,35.75,22a4.41,4.41,0,0,0-.18,1.35,1.19,1.19,0,0,1,.24.65,1.4,1.4,0,0,1-.23.74s0,0,0,0a2,2,0,0,0,.07.54l.08.39a3.48,3.48,0,0,0,.34,1.1,5.2,5.2,0,0,0,.46.57,6.16,6.16,0,0,1,.63.81,7.57,7.57,0,0,0,.93,1.28,1.21,1.21,0,0,0,.58.28,3.29,3.29,0,0,1,1,.43,1.73,1.73,0,0,1,.62.87h.06l.28-.07a6.67,6.67,0,0,1,1.08-.07,3.79,3.79,0,0,0,.74,0,2,2,0,0,0,.41-.27A2.8,2.8,0,0,1,44.05,30,3.56,3.56,0,0,1,45.1,30l.34,0a1,1,0,0,1,.29.08,2.43,2.43,0,0,1,.75-.82l.21-.14a1.27,1.27,0,0,1,0-.58,1,1,0,0,1,.37-.52,1.45,1.45,0,0,1,0-.9,1.78,1.78,0,0,1,.61-.76.63.63,0,0,1-.1-.27.78.78,0,0,1,.25-.72A3.28,3.28,0,0,1,50.37,25l.12,0a1.29,1.29,0,0,1,.44-.19,9,9,0,0,0,1-.26,7.58,7.58,0,0,1,2-.38,1.76,1.76,0,0,1,1.79.82,2.42,2.42,0,0,1-.32,2.47,10.28,10.28,0,0,0-.71,1.28h0a.81.81,0,0,1,.24.79,2.21,2.21,0,0,1-.6.94c-.09.1-.19.2-.23.26a1.79,1.79,0,0,0-.12.45,2.71,2.71,0,0,1-.42,1.09.79.79,0,0,1-1.05.22,1.92,1.92,0,0,0-.29-.14l-.21-.09a1.29,1.29,0,0,1-.78.38s0,0-.06.07a1.5,1.5,0,0,1-.64.56,2.38,2.38,0,0,1-1.73-.16,3.67,3.67,0,0,0-.43-.13,2.79,2.79,0,0,0-1,.1,2,2,0,0,1-.22.63h0a.75.75,0,0,1,.61.19.77.77,0,0,1,.19.31l.14.08a1.44,1.44,0,0,1,.87,1.11,1.12,1.12,0,0,1-.52,1c-.52.39-1.24.19-1.94,0l-.36-.09c-.24,0-.32,0-.32,0s-.08.17-.14.28-.15.29-.25.46a3.87,3.87,0,0,1-.21.34c-.36.55-.33.59-.24.71a.79.79,0,0,1,.09.74,2.34,2.34,0,0,1-.58.81A.77.77,0,0,1,44,39.92Zm-5-5c1.68,0,2.92,1.21,4,2.23l.43.42a3.53,3.53,0,0,1,.51-1l.17-.28c.08-.13.14-.26.2-.37a1.7,1.7,0,0,1,1.61-1.17,3.57,3.57,0,0,1-.6-.86.78.78,0,0,1,0-.78.79.79,0,0,1,.49-.35h0a2.36,2.36,0,0,1,.13-.58l0-.05a1.18,1.18,0,0,1-1.24-.29,1,1,0,0,1-.18-.32H44.3a2,2,0,0,0-.53.33,2.91,2.91,0,0,1-.88.51,4.31,4.31,0,0,1-1.22.13,4.85,4.85,0,0,0-.8,0l-.18,0a1.66,1.66,0,0,1-1.32-.06,1.48,1.48,0,0,1-.58-.82,1.53,1.53,0,0,0-.11-.25,2.31,2.31,0,0,0-.48-.17A2.63,2.63,0,0,1,37,30.6a8.07,8.07,0,0,1-1.12-1.49,4,4,0,0,0-.51-.66,7.36,7.36,0,0,1-.59-.74A4.65,4.65,0,0,1,34.16,26l-.08-.35a3.17,3.17,0,0,1-.09-1.1,1.42,1.42,0,0,1,.15-.49,1.22,1.22,0,0,1-.13-.38,5.61,5.61,0,0,1,.2-2,6.68,6.68,0,0,0,.19-1.1,5.19,5.19,0,0,0,0-.78A3.3,3.3,0,0,1,35,17l.13-.11a5.81,5.81,0,0,1-2.34-1.25,2.8,2.8,0,0,1-.56-1.38c0-.13,0-.25-.08-.35l-.08-.28a3.07,3.07,0,0,0-.46-1.05c-.56-.77-1.05-1.58-1.53-2.37l-.48-.78a1.41,1.41,0,0,0-.81-.72c-.25-.05-.33,0-.6.16a3.58,3.58,0,0,1-.56.29,1.72,1.72,0,0,1-.81.81,2.52,2.52,0,0,1-2.07-.3l-.31-.14a2.8,2.8,0,0,1-1.3-.9A1.54,1.54,0,0,1,22.88,8a.81.81,0,0,1-.38-.61.88.88,0,0,1,.08-.42l-.15-.11-.28-.21a4.08,4.08,0,0,1-.76-.68,1.68,1.68,0,0,1-.3-.74A.84.84,0,0,0,21,5c-.23-.44-.76-.48-1.84-.46-.29,0-.58,0-.86,0a.9.9,0,0,1-.35.29.73.73,0,0,1-.58,0h0L11.9,4.71a.79.79,0,0,1-.31-.08l-6.38-3-3.49,0v0c.06.08.13.15.2.23a2.21,2.21,0,0,1,.59.85.79.79,0,0,1-.09.7A3.06,3.06,0,0,1,2.89,5a2.85,2.85,0,0,1,.33,1.1,2,2,0,0,0,.06.35.46.46,0,0,0,.24.37,3.06,3.06,0,0,1,.32.26l.51.45A4.5,4.5,0,0,1,4,6.06l0-.44A3.77,3.77,0,0,1,4,4a5,5,0,0,1,.26-.7,2.33,2.33,0,0,0,.21-.61.79.79,0,0,1,1.42-.37A3.14,3.14,0,0,0,7,3.07l.61.3.79.38a.78.78,0,0,1,.43.51.81.81,0,0,1-.11.66,2.51,2.51,0,0,1-.26.32v0a6.12,6.12,0,0,0,.36,1.23l.07.19c.34.86.6,1.6.84,2.42a1,1,0,0,1,.41.49,6.76,6.76,0,0,1,.6.56,1.63,1.63,0,0,1,.31.53h.17a1.46,1.46,0,0,1,.85.28,1.29,1.29,0,0,1,.23,1.68,1.42,1.42,0,0,0,.31.08.75.75,0,0,1,.57,0,.78.78,0,0,1,.35.48l.06.24a1.69,1.69,0,0,1,.66.52l0,.06a.85.85,0,0,1,.59.35,2.15,2.15,0,0,1,.27.77.78.78,0,0,1-.41.77,1.56,1.56,0,0,1-.85.18,1.46,1.46,0,0,0,0,.21,2.29,2.29,0,0,0,.52.1A2.81,2.81,0,0,1,15.9,17a1,1,0,0,1,.39,0,.81.81,0,0,1,.52.68,6.77,6.77,0,0,1,0,.78,2.57,2.57,0,0,1,.92.49,6.5,6.5,0,0,1,1,1.44l.1.17a5.9,5.9,0,0,1,.37.83,3.26,3.26,0,0,0,.26.59c.05.09.13.23.21.39A4,4,0,0,0,20,23a.72.72,0,0,1,.21.89c0,.07.14.38.23.54a3.36,3.36,0,0,1,.3.6,2,2,0,0,1,.14,1.52,1.27,1.27,0,0,1-.38.5.85.85,0,0,1-.37.77,6.51,6.51,0,0,0,.53.91,1.41,1.41,0,0,1,.24.13,1.52,1.52,0,0,0,.42,0,1.64,1.64,0,0,1,1.54.75.63.63,0,0,1,.09.33,2.22,2.22,0,0,1,.68.71c.13.18.18.25.26.29a3.36,3.36,0,0,0,.88.2,4.17,4.17,0,0,1,1.64.48c.55.33,1.13.73,1.7,1.13l.52.36a2.51,2.51,0,0,0,.47.31,1.28,1.28,0,0,0,.39,0,3,3,0,0,1,.74.07,8.77,8.77,0,0,1,1.25.47l.65.27a2.44,2.44,0,0,1,.85.54,2,2,0,0,0,.25.2.94.94,0,0,0,.2.12h.19a9.29,9.29,0,0,1,1.46.21,3.85,3.85,0,0,0,2.35,0A4.08,4.08,0,0,1,39,35Zm9.13-3.51a3,3,0,0,1,.42,0,3.81,3.81,0,0,1,.75.22,4.58,4.58,0,0,0,.54.16l0,0a1.54,1.54,0,0,1,1-.69,1.27,1.27,0,0,0,.18-.29,1.63,1.63,0,0,1,1.38-1.1.57.57,0,0,1,.26,0v0A7.38,7.38,0,0,1,54,26.69a1.44,1.44,0,0,0,.28-.84,1.07,1.07,0,0,0-.3,0h-.06a6,6,0,0,0-1.54.32c-.33.1-.67.2-1,.27a1.25,1.25,0,0,1-.59.25,2.25,2.25,0,0,1-.75-.08l-.19,0h-.07a.8.8,0,0,1-.27.59,5.41,5.41,0,0,1-.5.35l-.35.23,0,.06a1.47,1.47,0,0,1,0,.92,1,1,0,0,1-.39.51,1.14,1.14,0,0,1,0,.57,1.17,1.17,0,0,1-.7.76.75.75,0,0,0-.14.08c-.25.18-.29.29-.29.29a.8.8,0,0,1,0,.66l0,0A4.57,4.57,0,0,1,48.1,31.46Zm3.14-5h0ZM8.76,17.78c.15.13.36.28.48.37l.11.09a2.93,2.93,0,0,0-.13-.43c-.06-.17-.12-.35-.18-.56A1.58,1.58,0,0,1,8.76,17.78Zm27.09-2.27ZM8.71,15.06v0ZM6.48,12.63a.77.77,0,0,1,.36.09.8.8,0,0,1,.43.63c0,.4,0,.41.3.58l.25.17a2.64,2.64,0,0,1-.15-.9,3,3,0,0,0,0-.41,3.52,3.52,0,0,0-.16-.35s-.06,0-.11,0A1.5,1.5,0,0,1,6.9,12a1.55,1.55,0,0,1-.25-.71.75.75,0,0,0-.2-.34c-.07-.09-.15-.18-.24-.31l-.08-.12a1.23,1.23,0,0,1,0,.19.81.81,0,0,1-.3.51v0a.8.8,0,0,1-.15.52.76.76,0,0,1-.11.36.78.78,0,0,1-.55.38H5c.5.48.59.49,1.11.2A.71.71,0,0,1,6.48,12.63Z"/></g></g></svg>