<svg xmlns="http://www.w3.org/2000/svg" viewBox="0 0 44.55 44.55"><defs><style>.cls-1{fill:#ffb71b;}</style></defs><g id="Layer_2" data-name="Layer 2"><g id="Layer_1-2" data-name="Layer 1"><path class="cls-1" d="M43.44,8.91H25.62A1.06,1.06,0,0,1,24.5,7.8a1.06,1.06,0,0,1,1.12-1.12H43.44A1.06,1.06,0,0,1,44.55,7.8a1.06,1.06,0,0,1-1.11,1.11M39,13.36H25.62a1.11,1.11,0,1,1,0-2.22H39a1,1,0,0,1,1.11,1.11A1,1,0,0,1,39,13.36M8.91,14.48c-.22,0-.67-.22-.89-.22L5.79,12a1.09,1.09,0,0,1,0-1.56,1.07,1.07,0,0,1,1.56,0l1.56,1.11L12.7,6.9A1,1,0,0,1,14,6.9c.45.45.67,1.12.23,1.56L9.8,14a1.13,1.13,0,0,1-.89.45M10,2.23A7.88,7.88,0,0,0,2.23,10,7.89,7.89,0,0,0,10,17.82a7.89,7.89,0,0,0,7.8-7.8,9.08,9.08,0,0,0-1.11-4A7.79,7.79,0,0,0,10,2.23m0,17.82a10,10,0,1,1,10-10,10,10,0,0,1-10,10M43.44,33.41H25.62a1.12,1.12,0,1,1,0-2.23H43.44a1.12,1.12,0,0,1,0,2.23M39,37.87H25.62a1.12,1.12,0,1,1,0-2.23H39a1.12,1.12,0,0,1,0,2.23M10,26.73a6.93,6.93,0,0,0-4.67,1.56L10,33l4.68-4.68A7,7,0,0,0,10,26.73M3.79,29.85a6.94,6.94,0,0,0-1.56,4.68A6.93,6.93,0,0,0,3.79,39.2l4.68-4.67Zm12.47,0h0l-4.68,4.68,4.68,4.67a8,8,0,0,0,0-9.35M10,36.08h0L5.35,40.76a8,8,0,0,0,9.35,0Zm0,8.47a10,10,0,1,1,10-10,10,10,0,0,1-10,10"/></g></g></svg>