<svg xmlns="http://www.w3.org/2000/svg" viewBox="0 0 36.8 47.31"><defs><style>.cls-1{fill:#ffb71b;}</style></defs><g id="Layer_2" data-name="Layer 2"><g id="Layer_1-2" data-name="Layer 1"><path class="cls-1" d="M18.4,26.28a2.49,2.49,0,0,0-2.63,2.63V30a15.51,15.51,0,0,0,1.05,5l.79,1.58a1.6,1.6,0,0,0,1.05.26.26.26,0,0,0,.27-.26L19.71,35a10.65,10.65,0,0,0,1.06-5V28.91a2.18,2.18,0,0,0-2.37-2.63m0,13.15a3.64,3.64,0,0,1-3.15-1.84L14.46,36a15.55,15.55,0,0,1-1.32-6V28.91a5.26,5.26,0,0,1,10.52,0V30a12.22,12.22,0,0,1-1.58,6l-.79,1.58a3,3,0,0,1-2.89,1.84m0-36.8A10.54,10.54,0,0,0,7.89,13.14v2.63h21V13.14A10.54,10.54,0,0,0,18.4,2.63M6.57,18.4a4,4,0,0,0-3.94,3.94v18.4a4.05,4.05,0,0,0,3.94,3.95H30.23a4.05,4.05,0,0,0,3.94-3.95V22.34a4,4,0,0,0-3.68-3.94H6.57ZM30.23,47.31H6.57A6.51,6.51,0,0,1,0,40.74V22.34A6.25,6.25,0,0,1,5.26,16V13.14A13,13,0,0,1,18.4,0,13,13,0,0,1,31.54,13.14V16a6.45,6.45,0,0,1,5.26,6.31v18.4a6.51,6.51,0,0,1-6.57,6.57"/></g></g></svg>