<svg xmlns="http://www.w3.org/2000/svg" viewBox="0 0 28.94 26"><defs><style>.cls-1{fill:#ffb71b;}</style></defs><g id="Layer_2" data-name="Layer 2"><g id="Layer_1-2" data-name="Layer 1"><path class="cls-1" d="M5.71,16.84a.56.56,0,0,1,.43.13c4.5,2.34,10.29,1,12.9-3A8,8,0,0,0,15.71,2.39c-4.49-2.34-10.29-1-12.9,3a7.72,7.72,0,0,0,0,8.59A.7.7,0,0,1,3,14.5l-1,3.38Zm3.77,2.47c1.88,4.3,7.39,6.38,12.32,4.69.43-.13.87-.39,1.3-.52.15,0,.29-.13.44-.13h.14l3.77.91L26.14,21a.7.7,0,0,1,.15-.52A8,8,0,0,0,23,8.9a5.5,5.5,0,0,0-1.31-.52c.87,5.34-3.33,10.28-9.27,11.06a21.58,21.58,0,0,1-2.9-.13M28.32,26h-.15l-4.63-1.17c-5.22,2.6-11.89.91-14.79-3.78a6,6,0,0,1-.87-1.95l-2.17-.78L.93,19.44H.78a.79.79,0,0,1-.58-.26.74.74,0,0,1-.14-.52l1.3-4.16c-2.9-4.69-1-10.67,4.2-13.28S17.45.31,20.35,5a5.41,5.41,0,0,1,.87,1.82c5.79,1.56,9,7,7.24,12.23L27.59,21l1.31,4.17c0,.26,0,.39-.15.52s-.14.26-.43.26"/></g></g></svg>