<svg xmlns="http://www.w3.org/2000/svg" viewBox="0 0 24.7 24.75"><defs><style>.cls-1{fill:#ffb71b;}</style></defs><g id="Layer_2" data-name="Layer 2"><g id="Layer_1-2" data-name="Layer 1"><path class="cls-1" d="M8.6,10H9.83V8.78H8.6Zm1.23,1.23H8.6A1.16,1.16,0,0,1,7.37,10V8.78A1.17,1.17,0,0,1,8.6,7.55H9.83a1.17,1.17,0,0,1,1.23,1.23V10a1.17,1.17,0,0,1-1.23,1.23m-.62,6.14a.58.58,0,0,1-.61-.61.46.46,0,0,1,.12-.37l6.14-8.6a.67.67,0,0,1,.5-.25.66.66,0,0,1,.61.62c0,.12,0,.24-.12.24L9.7,17c-.12.25-.24.37-.49.37m5.53-1.23H16V14.93H14.74ZM16,17.38H14.74a1.16,1.16,0,0,1-1.23-1.23V14.93a1.16,1.16,0,0,1,1.23-1.23H16a1.16,1.16,0,0,1,1.23,1.23v1.22A1.16,1.16,0,0,1,16,17.38m-3.69,4.3c.13,0,.25,0,.25.12l2.83,1.6,1.47-2.82c.12-.25.25-.37.49-.37l3.19-.13-.24-3.19a.64.64,0,0,1,.24-.49l2.58-1.84-2-2.58a1,1,0,0,1-.12-.62l1.1-2.95-2.95-1.1c-.24-.12-.36-.25-.36-.49l-.62-3.2-3.07.74H15a.9.9,0,0,1-.49-.24L12.28,1.66,10.07,4a.61.61,0,0,1-.49.25H9.46L6.39,3.38,5.77,6.57c0,.25-.24.37-.37.49L2.34,8.17l1.1,2.95c.12.24,0,.37-.12.61l-2,2.58,2.7,1.84a.91.91,0,0,1,.25.5l-.25,3.19,3.2.12c.24,0,.37.12.49.37l1.47,2.83L12,21.56c0,.12.12.12.24.12M9,24.75c-.25,0-.49-.12-.49-.37l-1.6-3.07-3.56-.24a.92.92,0,0,1-.49-.25c-.13-.12-.13-.24-.13-.49L3,16.89l-2.7-2a.64.64,0,0,1-.25-.5.76.76,0,0,1,.12-.49l2.09-2.7L1,7.92a.51.51,0,0,1,.37-.73L4.67,6,5.4,2.52C5.4,2.27,5.77,2,6,2h.12l3.32.73L11.92.18a.6.6,0,0,1,.86,0l2.45,2.46,3.32-.74A.7.7,0,0,1,19,2c.12.12.25.24.25.37L20,5.84l3.32,1.22a.55.55,0,0,1,.37.74l-1.23,3.32,2.09,2.82a.62.62,0,0,1-.12.86l-2.83,2.09.25,3.44a.58.58,0,0,1-.62.61l-3.44.25-1.59,3.07a.71.71,0,0,1-.86.25l-3.08-1.6L9.21,24.63c0,.12-.12.12-.24.12"/></g></g></svg>