<svg xmlns="http://www.w3.org/2000/svg" viewBox="0 0 24.15 16.91"><defs><style>.cls-1{fill:#ffb71b;}</style></defs><g id="Layer_2" data-name="Layer 2"><g id="Layer_1-2" data-name="Layer 1"><path class="cls-1" d="M3,1.21a1.58,1.58,0,0,0-.73.12l9.78,8.09,9.79-8.09a1.58,1.58,0,0,0-.73-.12ZM1.33,2.29c0,.25-.12.49-.12.73V13.89a1.52,1.52,0,0,0,.12.72L8.45,8.09Zm21.49,0h0L15.7,8.09l7,6.64a1.52,1.52,0,0,0,.12-.72V3.14a1,1,0,0,0,0-.85M9.42,8.82h0L2.29,15.58A1.58,1.58,0,0,0,3,15.7H21.13c.24,0,.48-.12.85-.12L14.85,8.82l-2.29,1.93c-.24.24-.61.24-.73,0Zm11.71,8.09H3a3,3,0,0,1-3-3V3A3,3,0,0,1,3,0H21.13a3,3,0,0,1,3,3V13.89a3,3,0,0,1-3,3"/></g></g></svg>