<?xml version="1.0" encoding="utf-8"?>
<!-- Generator: Adobe Illustrator 26.0.3, SVG Export Plug-In . SVG Version: 6.00 Build 0)  -->
<svg version="1.1" id="Capa_1" xmlns="http://www.w3.org/2000/svg" xmlns:xlink="http://www.w3.org/1999/xlink" x="0px" y="0px"
	 viewBox="0 0 22 22" style="enable-background:new 0 0 22 22;" xml:space="preserve">
<style type="text/css">
	.st0{fill:#FDB71A;}
</style>
<g id="Layer_2">
	<g id="Layer_1-2">
		<g id="_01_Icons_Line_line-chart">
			<path id="line-chart" class="st0" d="M19.5,17h-15C3.1,17,2,15.9,2,14.5c0,0,0,0,0,0v-9C2,5.2,2.2,5,2.4,5c0,0,0,0,0.1,0
				C2.8,5,3,5.2,3,5.4c0,0,0,0,0,0.1v9C3,15.3,3.7,16,4.5,16h15c0.3,0,0.5,0.2,0.5,0.5S19.8,17,19.5,17z M6.5,13
				C6.2,13,6,12.8,6,12.6c0,0,0,0,0-0.1c0-0.1,0.1-0.3,0.1-0.4l4-4c0.2-0.2,0.5-0.2,0.7,0c0,0,0,0,0,0l0,0l2.6,2.6L18.3,6h-2.8
				C15.2,6,15,5.8,15,5.6c0,0,0,0,0-0.1C15,5.2,15.2,5,15.4,5c0,0,0,0,0.1,0h4C19.8,5,20,5.2,20,5.4c0,0,0,0,0,0.1v4
				c0,0.3-0.2,0.5-0.5,0.5S19,9.8,19,9.5V6.7l-5.1,5.1c-0.2,0.2-0.5,0.2-0.7,0c0,0,0,0,0,0l0,0l-2.6-2.6L7,12.8
				C6.8,12.9,6.7,13,6.5,13z"/>
		</g>
	</g>
</g>
</svg>
