<?xml version="1.0" encoding="utf-8"?>
<!-- Generator: Adobe Illustrator 26.0.3, SVG Export Plug-In . SVG Version: 6.00 Build 0)  -->
<svg version="1.1" id="Capa_1" xmlns="http://www.w3.org/2000/svg" xmlns:xlink="http://www.w3.org/1999/xlink" x="0px" y="0px"
	 viewBox="0 0 22 22" style="enable-background:new 0 0 22 22;" xml:space="preserve">
<style type="text/css">
	.st0{fill:#FDB71A;}
</style>
<g id="Layer_2">
	<g id="Layer_1-2">
		<g id="_01_Icons_Line_thumbs-up">
			<path id="thumbs-up" class="st0" d="M15.8,19H9.6c-0.6,0-1.3-0.2-1.7-0.7C7.6,18.7,7.1,19,6.6,19h-2c-0.8,0-1.5-0.7-1.5-1.5l0,0
				v-7C3.1,9.7,3.8,9,4.6,9h2c0.4,0,0.7,0.1,1,0.4l0.9-1.8C8.9,6.8,9.1,5.9,9.1,5V4.8c0-1,0.8-1.9,1.8-1.9c1,0,1.9,0.8,1.9,1.8
				L13.1,8h3.3c1.4,0,2.5,1.1,2.5,2.5c0,0,0,0,0,0v0.2l-0.6,6C18.2,18,17.1,19,15.8,19z M10.9,4c-0.4,0-0.8,0.3-0.8,0.7
				c0,0,0,0.1,0,0.1V5c0,1.1-0.2,2.1-0.7,3.1l-1.3,2.5v5.9c0,0.8,0.7,1.5,1.5,1.5h6.2c0.8,0,1.4-0.6,1.5-1.4l0.6-6
				C18,9.8,17.5,9.1,16.7,9c0,0-0.1,0-0.1,0h-4c-0.2,0-0.5-0.2-0.5-0.4l-0.4-3.8C11.7,4.4,11.4,4,10.9,4C10.9,4,10.9,4,10.9,4z
				 M4.6,10c-0.3,0-0.5,0.2-0.5,0.4c0,0,0,0,0,0.1v7c0,0.3,0.2,0.5,0.4,0.5c0,0,0,0,0.1,0h2c0.3,0,0.5-0.2,0.5-0.4c0,0,0,0,0-0.1v-7
				c0-0.3-0.2-0.5-0.4-0.5c0,0,0,0-0.1,0H4.6z"/>
		</g>
	</g>
</g>
</svg>
