<svg xmlns="http://www.w3.org/2000/svg" viewBox="0 0 23.48 23.43"><defs><style>.cls-1{fill:#ffb71b;}</style></defs><g id="Layer_2" data-name="Layer 2"><g id="Layer_1-2" data-name="Layer 1"><path class="cls-1" d="M7,21.09h.26a10.5,10.5,0,0,0,13.26-3.77A10.3,10.3,0,0,0,17.43,3,10.59,10.59,0,0,0,3,6.14a10.17,10.17,0,0,0,.39,11.7,1,1,0,0,1,.13.65L2,22,7,21.09H7m4.68,2.34a12.3,12.3,0,0,1-4.81-1l-6.12,1H.65A.61.61,0,0,1,0,22.78v-.26l2-4.29a11.72,11.72,0,1,1,16.39,3.25,12.3,12.3,0,0,1-6.63,1.95"/></g></g></svg>