<svg id="Capa_1" data-name="Capa 1" xmlns="http://www.w3.org/2000/svg" xmlns:xlink="http://www.w3.org/1999/xlink" viewBox="0 0 528.07 505"><defs><style>.cls-1,.cls-10,.cls-6{fill:none;}.cls-2{fill:#283277;}.cls-3{fill:#80cbde;}.cls-4{clip-path:url(#clip-path);}.cls-5{fill:#fff;}.cls-10,.cls-6{stroke:#4a5b6d;}.cls-6{stroke-width:0.43px;}.cls-7{fill:#6eb8c9;}.cls-8{fill:#0071ce;}.cls-9{fill:#0078bf;}.cls-10{stroke-width:0.47px;}</style><clipPath id="clip-path" transform="translate(-9.92 -6.73)"><rect class="cls-1" x="9.92" y="6.73" width="528.07" height="505"/></clipPath></defs><rect class="cls-2" x="20" y="13.88" width="9.25" height="9.25"/><rect class="cls-2" x="33.88" width="9.25" height="9.25"/><rect class="cls-2" x="47.76" width="9.25" height="9.25"/><rect class="cls-2" x="33.88" y="13.88" width="9.25" height="9.25"/><rect class="cls-2" x="47.76" y="13.88" width="9.25" height="9.25"/><rect class="cls-2" x="61.64" y="13.88" width="9.25" height="9.25"/><rect class="cls-2" x="75.52" y="13.88" width="9.25" height="9.25"/><rect class="cls-2" x="33.88" y="27.76" width="9.25" height="9.25"/><rect class="cls-2" x="47.76" y="27.76" width="9.25" height="9.25"/><rect class="cls-2" x="61.64" y="27.76" width="9.25" height="9.25"/><rect class="cls-2" x="75.52" y="27.76" width="9.25" height="9.25"/><rect class="cls-2" x="89.4" y="27.76" width="9.25" height="9.25"/><rect class="cls-2" x="103.28" y="27.76" width="9.25" height="9.25"/><rect class="cls-2" x="117.16" y="27.76" width="9.25" height="9.25"/><rect class="cls-2" x="131.04" y="27.76" width="9.25" height="9.25"/><rect class="cls-2" x="144.92" y="27.76" width="9.25" height="9.25"/><rect class="cls-2" x="158.8" y="27.76" width="9.25" height="9.25"/><rect class="cls-2" x="172.68" y="27.76" width="9.25" height="9.25"/><rect class="cls-2" x="33.88" y="41.64" width="9.25" height="9.26"/><rect class="cls-2" x="47.76" y="41.64" width="9.25" height="9.26"/><rect class="cls-2" x="75.52" y="41.64" width="9.25" height="9.26"/><rect class="cls-2" x="89.4" y="41.64" width="9.25" height="9.26"/><rect class="cls-2" x="103.28" y="41.64" width="9.25" height="9.26"/><rect class="cls-2" x="117.16" y="41.64" width="9.25" height="9.26"/><rect class="cls-2" x="131.04" y="41.64" width="9.25" height="9.26"/><rect class="cls-2" x="144.92" y="41.64" width="9.25" height="9.26"/><rect class="cls-2" x="158.8" y="41.64" width="9.25" height="9.26"/><rect class="cls-2" x="172.68" y="41.64" width="9.25" height="9.26"/><rect class="cls-2" x="186.57" y="41.64" width="9.25" height="9.26"/><rect class="cls-2" x="47.76" y="55.52" width="9.25" height="9.25"/><rect class="cls-2" x="61.64" y="55.52" width="9.25" height="9.25"/><rect class="cls-2" x="89.4" y="55.52" width="9.25" height="9.25"/><rect class="cls-2" x="103.28" y="55.52" width="9.25" height="9.25"/><rect class="cls-2" x="117.16" y="55.52" width="9.25" height="9.25"/><rect class="cls-2" x="131.04" y="55.52" width="9.25" height="9.25"/><rect class="cls-2" x="144.92" y="55.52" width="9.25" height="9.25"/><rect class="cls-2" x="158.8" y="55.52" width="9.25" height="9.25"/><rect class="cls-2" x="172.68" y="55.52" width="9.25" height="9.25"/><rect class="cls-2" x="186.57" y="55.52" width="9.25" height="9.25"/><rect class="cls-2" x="228.21" y="55.52" width="9.25" height="9.25"/><rect class="cls-2" x="242.09" y="55.52" width="9.25" height="9.25"/><rect class="cls-2" x="61.64" y="69.4" width="9.25" height="9.25"/><rect class="cls-2" x="75.52" y="69.4" width="9.25" height="9.25"/><rect class="cls-2" x="89.4" y="69.4" width="9.25" height="9.25"/><rect class="cls-2" x="103.28" y="69.4" width="9.25" height="9.25"/><rect class="cls-2" x="117.16" y="69.4" width="9.25" height="9.25"/><rect class="cls-2" x="131.04" y="69.4" width="9.25" height="9.25"/><rect class="cls-2" x="144.92" y="69.4" width="9.25" height="9.25"/><rect class="cls-2" x="158.8" y="69.4" width="9.25" height="9.25"/><rect class="cls-2" x="172.68" y="69.4" width="9.25" height="9.25"/><rect class="cls-2" x="186.57" y="69.4" width="9.25" height="9.25"/><rect class="cls-2" x="200.45" y="69.4" width="9.25" height="9.25"/><rect class="cls-2" x="214.33" y="69.4" width="9.25" height="9.25"/><rect class="cls-2" x="228.21" y="69.4" width="9.25" height="9.25"/><rect class="cls-2" x="242.09" y="69.4" width="9.25" height="9.25"/><rect class="cls-2" x="47.76" y="83.28" width="9.25" height="9.25"/><rect class="cls-2" x="61.64" y="83.28" width="9.25" height="9.25"/><rect class="cls-2" x="75.52" y="83.28" width="9.25" height="9.25"/><rect class="cls-2" x="103.28" y="83.28" width="9.25" height="9.25"/><rect class="cls-2" x="117.16" y="83.28" width="9.25" height="9.25"/><rect class="cls-2" x="131.04" y="83.28" width="9.25" height="9.25"/><rect class="cls-2" x="144.92" y="83.28" width="9.25" height="9.25"/><rect class="cls-2" x="158.8" y="83.28" width="9.25" height="9.25"/><rect class="cls-2" x="172.68" y="83.28" width="9.25" height="9.25"/><rect class="cls-2" x="186.57" y="83.28" width="9.25" height="9.25"/><rect class="cls-2" x="200.45" y="83.28" width="9.25" height="9.25"/><rect class="cls-2" x="214.33" y="83.28" width="9.25" height="9.25"/><rect class="cls-2" x="228.21" y="83.28" width="9.25" height="9.25"/><rect class="cls-2" x="242.09" y="83.28" width="9.25" height="9.25"/><rect class="cls-2" x="255.97" y="83.28" width="9.25" height="9.25"/><rect class="cls-2" x="61.64" y="97.16" width="9.25" height="9.26"/><rect class="cls-2" x="75.52" y="97.16" width="9.25" height="9.26"/><rect class="cls-2" x="89.4" y="97.16" width="9.25" height="9.26"/><rect class="cls-2" x="117.16" y="97.16" width="9.25" height="9.26"/><rect class="cls-2" x="131.04" y="97.16" width="9.25" height="9.26"/><rect class="cls-2" x="144.92" y="97.16" width="9.25" height="9.26"/><rect class="cls-2" x="158.8" y="97.16" width="9.25" height="9.26"/><rect class="cls-2" x="172.68" y="97.16" width="9.25" height="9.26"/><rect class="cls-2" x="186.57" y="97.16" width="9.25" height="9.26"/><rect class="cls-2" x="200.45" y="97.16" width="9.25" height="9.26"/><rect class="cls-2" x="214.33" y="97.16" width="9.25" height="9.26"/><rect class="cls-2" x="228.21" y="97.16" width="9.25" height="9.26"/><rect class="cls-2" x="242.09" y="97.16" width="9.25" height="9.26"/><rect class="cls-2" x="255.97" y="97.16" width="9.25" height="9.26"/><rect class="cls-2" x="75.52" y="111.04" width="9.25" height="9.25"/><rect class="cls-2" x="89.4" y="111.04" width="9.25" height="9.25"/><rect class="cls-2" x="131.04" y="111.04" width="9.25" height="9.25"/><rect class="cls-2" x="144.92" y="111.04" width="9.25" height="9.25"/><rect class="cls-2" x="158.8" y="111.04" width="9.25" height="9.25"/><rect class="cls-2" x="172.68" y="111.04" width="9.25" height="9.25"/><rect class="cls-2" x="186.57" y="111.04" width="9.25" height="9.25"/><rect class="cls-2" x="200.45" y="111.04" width="9.25" height="9.25"/><rect class="cls-2" x="214.33" y="111.04" width="9.25" height="9.25"/><rect class="cls-2" x="228.21" y="111.04" width="9.25" height="9.25"/><rect class="cls-2" x="242.09" y="111.04" width="9.25" height="9.25"/><rect class="cls-2" x="255.97" y="111.04" width="9.25" height="9.25"/><rect class="cls-2" x="269.85" y="111.04" width="9.25" height="9.25"/><rect class="cls-2" x="283.73" y="111.04" width="9.25" height="9.25"/><rect class="cls-2" x="89.4" y="124.92" width="9.25" height="9.25"/><rect class="cls-2" x="103.28" y="124.92" width="9.25" height="9.25"/><rect class="cls-2" x="131.04" y="124.92" width="9.25" height="9.25"/><rect class="cls-2" x="144.92" y="124.92" width="9.25" height="9.25"/><rect class="cls-2" x="158.8" y="124.92" width="9.25" height="9.25"/><rect class="cls-2" x="172.68" y="124.92" width="9.25" height="9.25"/><rect class="cls-2" x="186.57" y="124.92" width="9.25" height="9.25"/><rect class="cls-2" x="200.45" y="124.92" width="9.25" height="9.25"/><rect class="cls-2" x="214.33" y="124.92" width="9.25" height="9.25"/><rect class="cls-2" x="228.21" y="124.92" width="9.25" height="9.25"/><rect class="cls-2" x="242.09" y="124.92" width="9.25" height="9.25"/><rect class="cls-2" x="255.97" y="124.92" width="9.25" height="9.25"/><rect class="cls-2" x="269.85" y="124.92" width="9.25" height="9.25"/><rect class="cls-2" x="283.73" y="124.92" width="9.25" height="9.25"/><rect class="cls-2" x="297.61" y="124.92" width="9.25" height="9.25"/><rect class="cls-2" x="89.4" y="138.81" width="9.25" height="9.25"/><rect class="cls-2" x="103.28" y="138.81" width="9.25" height="9.25"/><rect class="cls-2" x="144.92" y="138.81" width="9.25" height="9.25"/><rect class="cls-2" x="158.8" y="138.81" width="9.25" height="9.25"/><rect class="cls-2" x="172.68" y="138.81" width="9.25" height="9.25"/><rect class="cls-2" x="186.57" y="138.81" width="9.25" height="9.25"/><rect class="cls-2" x="200.45" y="138.81" width="9.25" height="9.25"/><rect class="cls-2" x="214.33" y="138.81" width="9.25" height="9.25"/><rect class="cls-2" x="228.21" y="138.81" width="9.25" height="9.25"/><rect class="cls-2" x="242.09" y="138.81" width="9.25" height="9.25"/><rect class="cls-2" x="255.97" y="138.81" width="9.25" height="9.25"/><rect class="cls-2" x="269.85" y="138.81" width="9.25" height="9.25"/><rect class="cls-2" x="283.73" y="138.81" width="9.25" height="9.25"/><rect class="cls-2" x="103.28" y="152.69" width="9.25" height="9.25"/><rect class="cls-2" x="117.16" y="152.69" width="9.25" height="9.25"/><rect class="cls-2" x="158.8" y="152.69" width="9.25" height="9.25"/><rect class="cls-2" x="172.68" y="152.69" width="9.25" height="9.25"/><rect class="cls-2" x="186.57" y="152.69" width="9.25" height="9.25"/><rect class="cls-2" x="200.45" y="152.69" width="9.25" height="9.25"/><rect class="cls-2" x="214.33" y="152.69" width="9.25" height="9.25"/><rect class="cls-2" x="228.21" y="152.69" width="9.25" height="9.25"/><rect class="cls-2" x="242.09" y="152.69" width="9.25" height="9.25"/><rect class="cls-2" x="255.97" y="152.69" width="9.25" height="9.25"/><rect class="cls-2" x="269.85" y="152.69" width="9.25" height="9.25"/><rect class="cls-2" x="283.73" y="152.69" width="9.25" height="9.25"/><rect class="cls-2" x="117.16" y="166.57" width="9.25" height="9.25"/><rect class="cls-2" x="172.68" y="166.57" width="9.25" height="9.25"/><rect class="cls-2" x="186.57" y="166.57" width="9.25" height="9.25"/><rect class="cls-2" x="200.45" y="166.57" width="9.25" height="9.25"/><rect class="cls-2" x="214.33" y="166.57" width="9.25" height="9.25"/><rect class="cls-2" x="228.21" y="166.57" width="9.25" height="9.25"/><rect class="cls-2" x="242.09" y="166.57" width="9.25" height="9.25"/><rect class="cls-2" x="255.97" y="166.57" width="9.25" height="9.25"/><rect class="cls-2" x="269.85" y="166.57" width="9.25" height="9.25"/><rect class="cls-2" x="283.73" y="166.57" width="9.25" height="9.25"/><rect class="cls-2" x="186.57" y="180.45" width="9.25" height="9.25"/><rect class="cls-2" x="200.45" y="180.45" width="9.25" height="9.25"/><rect class="cls-2" x="214.33" y="180.45" width="9.25" height="9.25"/><rect class="cls-2" x="228.21" y="180.45" width="9.25" height="9.25"/><rect class="cls-2" x="242.09" y="180.45" width="9.25" height="9.25"/><rect class="cls-2" x="255.97" y="180.45" width="9.25" height="9.25"/><rect class="cls-2" x="269.85" y="180.45" width="9.25" height="9.25"/><rect class="cls-2" x="283.73" y="180.45" width="9.25" height="9.25"/><rect class="cls-2" x="186.57" y="194.33" width="9.25" height="9.25"/><rect class="cls-2" x="200.45" y="194.33" width="9.25" height="9.25"/><rect class="cls-2" x="214.33" y="194.33" width="9.25" height="9.25"/><rect class="cls-2" x="228.21" y="194.33" width="9.25" height="9.25"/><rect class="cls-2" x="242.09" y="194.33" width="9.25" height="9.25"/><rect class="cls-2" x="255.97" y="194.33" width="9.25" height="9.25"/><rect class="cls-2" x="269.85" y="194.33" width="9.25" height="9.25"/><rect class="cls-2" x="283.73" y="194.33" width="9.25" height="9.25"/><rect class="cls-2" x="297.61" y="194.33" width="9.25" height="9.25"/><rect class="cls-2" x="394.77" y="194.33" width="9.25" height="9.25"/><rect class="cls-2" x="408.65" y="194.33" width="9.25" height="9.25"/><rect class="cls-2" x="422.54" y="194.33" width="9.25" height="9.25"/><rect class="cls-2" x="436.42" y="194.33" width="9.25" height="9.25"/><rect class="cls-2" x="186.57" y="208.21" width="9.25" height="9.25"/><rect class="cls-2" x="200.45" y="208.21" width="9.25" height="9.25"/><rect class="cls-2" x="214.33" y="208.21" width="9.25" height="9.25"/><rect class="cls-2" x="228.21" y="208.21" width="9.25" height="9.25"/><rect class="cls-2" x="242.09" y="208.21" width="9.25" height="9.25"/><rect class="cls-2" x="255.97" y="208.21" width="9.25" height="9.25"/><rect class="cls-2" x="269.85" y="208.21" width="9.25" height="9.25"/><rect class="cls-2" x="283.73" y="208.21" width="9.25" height="9.25"/><rect class="cls-2" x="297.61" y="208.21" width="9.25" height="9.25"/><rect class="cls-2" x="394.77" y="208.21" width="9.25" height="9.25"/><rect class="cls-2" x="408.65" y="208.21" width="9.25" height="9.25"/><rect class="cls-2" x="422.54" y="208.21" width="9.25" height="9.25"/><rect class="cls-2" x="436.42" y="208.21" width="9.25" height="9.25"/><rect class="cls-2" x="186.57" y="222.09" width="9.25" height="9.25"/><rect class="cls-2" x="200.45" y="222.09" width="9.25" height="9.25"/><rect class="cls-2" x="214.33" y="222.09" width="9.25" height="9.25"/><rect class="cls-2" x="228.21" y="222.09" width="9.25" height="9.25"/><rect class="cls-2" x="242.09" y="222.09" width="9.25" height="9.25"/><rect class="cls-2" x="255.97" y="222.09" width="9.25" height="9.25"/><rect class="cls-2" x="269.85" y="222.09" width="9.25" height="9.25"/><rect class="cls-2" x="283.73" y="222.09" width="9.25" height="9.25"/><rect class="cls-2" x="297.61" y="222.09" width="9.25" height="9.25"/><rect class="cls-2" x="311.49" y="222.09" width="9.25" height="9.25"/><rect class="cls-2" x="394.77" y="222.09" width="9.25" height="9.25"/><rect class="cls-2" x="408.65" y="222.09" width="9.25" height="9.25"/><rect class="cls-2" x="422.54" y="222.09" width="9.25" height="9.25"/><rect class="cls-2" x="200.45" y="235.97" width="9.25" height="9.25"/><rect class="cls-2" x="214.33" y="235.97" width="9.25" height="9.25"/><rect class="cls-2" x="228.21" y="235.97" width="9.25" height="9.25"/><rect class="cls-2" x="242.09" y="235.97" width="9.25" height="9.25"/><rect class="cls-2" x="255.97" y="235.97" width="9.25" height="9.25"/><rect class="cls-2" x="269.85" y="235.97" width="9.25" height="9.25"/><rect class="cls-2" x="283.73" y="235.97" width="9.25" height="9.25"/><rect class="cls-2" x="297.61" y="235.97" width="9.25" height="9.25"/><rect class="cls-2" x="311.49" y="235.97" width="9.25" height="9.25"/><rect class="cls-2" x="325.37" y="235.97" width="9.25" height="9.25"/><rect class="cls-2" x="353.13" y="235.97" width="9.25" height="9.25"/><rect class="cls-2" x="367.01" y="235.97" width="9.25" height="9.25"/><rect class="cls-2" x="380.89" y="235.97" width="9.25" height="9.25"/><rect class="cls-2" x="394.77" y="235.97" width="9.25" height="9.25"/><rect class="cls-2" x="408.65" y="235.97" width="9.25" height="9.25"/><rect class="cls-2" x="422.54" y="235.97" width="9.25" height="9.25"/><rect class="cls-2" x="228.21" y="249.85" width="9.25" height="9.26"/><rect class="cls-2" x="242.09" y="249.85" width="9.25" height="9.26"/><rect class="cls-2" x="255.97" y="249.85" width="9.25" height="9.26"/><rect class="cls-2" x="269.85" y="249.85" width="9.25" height="9.26"/><rect class="cls-2" x="283.73" y="249.85" width="9.25" height="9.26"/><rect class="cls-2" x="297.61" y="249.85" width="9.25" height="9.26"/><rect class="cls-2" x="311.49" y="249.85" width="9.25" height="9.26"/><rect class="cls-2" x="325.37" y="249.85" width="9.25" height="9.26"/><rect class="cls-2" x="339.25" y="249.85" width="9.25" height="9.26"/><rect class="cls-2" x="353.13" y="249.85" width="9.25" height="9.26"/><rect class="cls-2" x="367.01" y="249.85" width="9.25" height="9.26"/><rect class="cls-2" x="380.89" y="249.85" width="9.25" height="9.26"/><rect class="cls-2" x="394.77" y="249.85" width="9.25" height="9.26"/><rect class="cls-2" x="408.65" y="249.85" width="9.25" height="9.26"/><rect class="cls-2" x="255.97" y="263.73" width="9.25" height="9.25"/><rect class="cls-2" x="269.85" y="263.73" width="9.25" height="9.25"/><rect class="cls-3" x="409.33" y="262.88" width="9.25" height="9.26"/><rect class="cls-3" x="423.22" y="262.88" width="9.25" height="9.26"/><rect class="cls-3" x="437.1" y="262.88" width="9.25" height="9.26"/><rect class="cls-3" x="409.33" y="276.76" width="9.25" height="9.25"/><rect class="cls-3" x="423.22" y="276.76" width="9.25" height="9.25"/><rect class="cls-3" x="437.1" y="276.76" width="9.25" height="9.25"/><rect class="cls-3" x="409.33" y="290.64" width="9.25" height="9.25"/><rect class="cls-3" x="423.22" y="290.64" width="9.25" height="9.25"/><rect class="cls-3" x="437.1" y="290.64" width="9.25" height="9.25"/><rect class="cls-3" x="450.98" y="290.64" width="9.25" height="9.25"/><rect class="cls-3" x="464.86" y="290.64" width="9.25" height="9.25"/><rect class="cls-3" x="478.74" y="290.64" width="9.25" height="9.25"/><rect class="cls-3" x="409.33" y="304.52" width="9.25" height="9.25"/><rect class="cls-3" x="423.22" y="304.52" width="9.25" height="9.25"/><rect class="cls-3" x="437.1" y="304.52" width="9.25" height="9.25"/><rect class="cls-3" x="450.98" y="304.52" width="9.25" height="9.25"/><rect class="cls-3" x="464.86" y="304.52" width="9.25" height="9.25"/><rect class="cls-3" x="478.74" y="304.52" width="9.25" height="9.25"/><rect class="cls-3" x="409.33" y="318.4" width="9.25" height="9.25"/><rect class="cls-3" x="423.22" y="318.4" width="9.25" height="9.25"/><rect class="cls-3" x="437.1" y="318.4" width="9.25" height="9.25"/><rect class="cls-3" x="450.98" y="318.4" width="9.25" height="9.25"/><rect class="cls-3" x="464.86" y="318.4" width="9.25" height="9.25"/><rect class="cls-3" x="478.74" y="318.4" width="9.25" height="9.25"/><rect class="cls-3" x="423.22" y="332.28" width="9.25" height="9.25"/><rect class="cls-3" x="437.1" y="332.28" width="9.25" height="9.25"/><rect class="cls-3" x="450.98" y="332.28" width="9.25" height="9.25"/><rect class="cls-3" x="464.86" y="332.28" width="9.25" height="9.25"/><rect class="cls-3" x="478.74" y="332.28" width="9.25" height="9.25"/><rect class="cls-3" x="464.86" y="346.16" width="9.25" height="9.25"/><rect class="cls-3" x="478.74" y="346.16" width="9.25" height="9.25"/><rect class="cls-3" x="464.86" y="360.04" width="9.25" height="9.25"/><rect class="cls-3" x="478.74" y="360.04" width="9.25" height="9.25"/><rect class="cls-3" x="464.86" y="373.92" width="9.25" height="9.25"/><rect class="cls-3" x="478.74" y="373.92" width="9.25" height="9.25"/><rect class="cls-3" x="478.74" y="387.8" width="9.25" height="9.25"/><rect class="cls-3" x="491.58" y="290.64" width="9.25" height="9.25"/><rect class="cls-3" x="505.46" y="290.64" width="9.25" height="9.25"/><rect class="cls-3" x="491.58" y="304.52" width="9.25" height="9.25"/><rect class="cls-3" x="505.46" y="304.52" width="9.25" height="9.25"/><rect class="cls-3" x="491.58" y="318.4" width="9.25" height="9.25"/><rect class="cls-3" x="505.46" y="318.4" width="9.25" height="9.25"/><rect class="cls-3" x="491.58" y="332.28" width="9.25" height="9.25"/><rect class="cls-3" x="505.46" y="332.28" width="9.25" height="9.25"/><rect class="cls-3" x="491.58" y="346.16" width="9.25" height="9.25"/><rect class="cls-3" x="505.46" y="346.16" width="9.25" height="9.25"/><rect class="cls-3" x="491.58" y="360.04" width="9.25" height="9.25"/><rect class="cls-3" x="505.46" y="360.04" width="9.25" height="9.25"/><rect class="cls-3" x="491.58" y="373.92" width="9.25" height="9.25"/><rect class="cls-3" x="491.72" y="388.38" width="9.25" height="9.25"/><rect class="cls-3" x="505.46" y="373.92" width="9.25" height="9.25"/><rect class="cls-3" x="505.46" y="387.8" width="9.25" height="9.25"/><rect class="cls-3" x="505.46" y="401.68" width="9.25" height="9.25"/><rect class="cls-3" x="518.82" y="401.68" width="9.25" height="9.25"/><rect class="cls-3" x="518.82" y="388.38" width="9.25" height="9.25"/><rect class="cls-3" x="518.82" y="304.52" width="9.25" height="9.25"/><rect class="cls-3" x="381.23" y="291.49" width="9.25" height="9.25"/><rect class="cls-3" x="395.11" y="291.49" width="9.25" height="9.25"/><rect class="cls-2" x="367.35" y="305.37" width="9.25" height="9.25"/><rect class="cls-3" x="381.23" y="305.37" width="9.25" height="9.25"/><rect class="cls-3" x="395.11" y="305.37" width="9.25" height="9.25"/><rect class="cls-3" x="395.11" y="319.25" width="9.25" height="9.25"/><rect class="cls-2" x="283.73" y="263.73" width="9.25" height="9.25"/><rect class="cls-2" x="297.61" y="263.73" width="9.25" height="9.25"/><rect class="cls-2" x="311.49" y="263.73" width="9.25" height="9.25"/><rect class="cls-2" x="325.37" y="263.73" width="9.25" height="9.25"/><rect class="cls-2" x="339.25" y="263.73" width="9.25" height="9.25"/><rect class="cls-2" x="353.13" y="263.73" width="9.25" height="9.25"/><rect class="cls-2" x="367.01" y="263.73" width="9.25" height="9.25"/><rect class="cls-2" x="380.89" y="263.73" width="9.25" height="9.25"/><rect class="cls-3" x="394.77" y="263.73" width="9.25" height="9.25"/><rect class="cls-2" x="297.61" y="277.61" width="9.25" height="9.25"/><rect class="cls-2" x="311.49" y="277.61" width="9.25" height="9.25"/><rect class="cls-2" x="339.25" y="277.61" width="9.25" height="9.25"/><rect class="cls-2" x="353.13" y="277.61" width="9.25" height="9.25"/><rect class="cls-2" x="367.01" y="277.61" width="9.25" height="9.25"/><rect class="cls-2" x="380.89" y="277.61" width="9.25" height="9.25"/><rect class="cls-3" x="394.77" y="277.61" width="9.25" height="9.25"/><rect class="cls-2" x="367.01" y="291.49" width="9.25" height="9.25"/><g class="cls-4"><path class="cls-2" d="M397.59,26a74.79,74.79,0,1,0,74.78,74.78A74.78,74.78,0,0,0,397.59,26" transform="translate(-9.92 -6.73)"/></g><path class="cls-5" d="M391.13,103.38a1,1,0,0,1,1,1v4.75a1,1,0,0,1-1,1H369.87a1,1,0,0,1-1-1v-.41c0-.52,0-.62.68-1.5C373,102.71,380,93.11,383,88.62a7.94,7.94,0,0,0,1.34-4c0-2.07-1.7-3.87-4.64-3.87-2.17,0-3.77,1.34-5.16,2.68a1.07,1.07,0,0,1-1.5,0l-3.25-3.3a1,1,0,0,1-.05-1.4c2-2.16,5.37-5.21,10.63-5.21,7.59,0,12.08,4.85,12.08,10.74,0,2.84-.78,4.38-2.07,6.86-1.65,3-6,8.62-8.46,12.13v.1Z" transform="translate(-9.92 -6.73)"/><path class="cls-5" d="M396.7,92.13c0-11.66,4.9-18.58,13.57-18.58s13.62,6.92,13.62,18.58-4.95,18.58-13.62,18.58S396.7,103.74,396.7,92.13Zm19.09,0c0-7-2.27-11-5.52-11s-5.47,4.07-5.47,11,2.27,11.1,5.47,11.1S415.79,99.15,415.79,92.13Z" transform="translate(-9.92 -6.73)"/><path class="cls-5" d="M362,119.58a3.71,3.71,0,0,1,2.66,1,.2.2,0,0,1,0,.31l-.67.7a.18.18,0,0,1-.27,0A2.59,2.59,0,0,0,362,121a2.55,2.55,0,0,0,0,5.1,2.62,2.62,0,0,0,1.69-.63.21.21,0,0,1,.27,0l.69.71a.22.22,0,0,1,0,.3A3.77,3.77,0,0,1,362,127.5a4,4,0,1,1,0-7.92Z" transform="translate(-9.92 -6.73)"/><path class="cls-5" d="M367.94,122.2a2.28,2.28,0,0,1,2.34,2.35c0,.08,0,.26,0,.33a.26.26,0,0,1-.24.24h-3.26a1.23,1.23,0,0,0,1.27,1.17,1.66,1.66,0,0,0,1.09-.37c.12-.1.25-.11.33,0l.43.57a.21.21,0,0,1,0,.33,2.9,2.9,0,0,1-1.9.69,2.66,2.66,0,0,1,0-5.31Zm.95,2a.93.93,0,0,0-1-.88,1,1,0,0,0-1.08.88Z" transform="translate(-9.92 -6.73)"/><path class="cls-5" d="M373.52,122.2a3.68,3.68,0,0,1,1.22.21v-2.48a.26.26,0,0,1,.24-.24h.89a.25.25,0,0,1,.25.24v7.28a.24.24,0,0,1-.27.23.75.75,0,0,1-.79-.64,2.19,2.19,0,0,1-1.63.71,2.66,2.66,0,0,1,.09-5.31Zm1.22,1.54a2,2,0,0,0-1.06-.29,1.29,1.29,0,0,0-1.26,1.4,1.27,1.27,0,0,0,1.2,1.41,1.17,1.17,0,0,0,1.12-.7Z" transform="translate(-9.92 -6.73)"/><path class="cls-5" d="M377.32,120.56a.88.88,0,0,1,1.75,0,.88.88,0,1,1-1.75,0Zm.2,2a.24.24,0,0,1,.24-.24h.9a.24.24,0,0,1,.24.24v4.6a.25.25,0,0,1-.24.24h-.9a.25.25,0,0,1-.24-.24Z" transform="translate(-9.92 -6.73)"/><path class="cls-5" d="M380.15,127.05a.22.22,0,0,1-.06-.27l.33-.66a.18.18,0,0,1,.29-.09,2.09,2.09,0,0,0,1.12.33c.39,0,.57-.14.57-.36s-.29-.44-1-.71c-1-.37-1.42-.83-1.42-1.6s.58-1.49,1.83-1.49a2.81,2.81,0,0,1,1.5.37.29.29,0,0,1,.11.36l-.28.58a.26.26,0,0,1-.32.1,2.45,2.45,0,0,0-1-.25c-.35,0-.49.16-.49.33s.26.35.73.55c1,.39,1.68.74,1.68,1.76,0,.8-.68,1.51-2,1.51A2.86,2.86,0,0,1,380.15,127.05Z" transform="translate(-9.92 -6.73)"/><path class="cls-5" d="M389.74,122.2a2.28,2.28,0,0,1,2.34,2.35,1.76,1.76,0,0,1,0,.33.26.26,0,0,1-.24.24h-3.25a1.21,1.21,0,0,0,1.26,1.17,1.66,1.66,0,0,0,1.09-.37c.12-.1.25-.11.33,0l.43.57a.21.21,0,0,1,0,.33,2.9,2.9,0,0,1-1.9.69,2.66,2.66,0,0,1,0-5.31Zm.95,2a.93.93,0,0,0-1-.88,1,1,0,0,0-1.08.88Z" transform="translate(-9.92 -6.73)"/><path class="cls-5" d="M393.11,122.5a.23.23,0,0,1,.26-.23.76.76,0,0,1,.8.66,2.06,2.06,0,0,1,1.63-.73c1.62,0,2,1.09,2,2.32v2.63a.25.25,0,0,1-.24.24h-.89a.25.25,0,0,1-.25-.24v-2.63c0-.66-.26-1.07-.88-1.07a1.12,1.12,0,0,0-1.1.8v2.9c0,.19-.07.24-.31.24h-.82a.25.25,0,0,1-.24-.24Z" transform="translate(-9.92 -6.73)"/><path class="cls-5" d="M403,119.75a.2.2,0,0,1,.2-.17h.18a.22.22,0,0,1,.19.11l2.42,5.19h0l2.42-5.19a.2.2,0,0,1,.19-.11h.17a.19.19,0,0,1,.2.17l1.3,7.39a.19.19,0,0,1-.2.25h-1a.24.24,0,0,1-.21-.16l-.65-4.17h0l-1.93,4.32a.18.18,0,0,1-.18.12h-.2a.19.19,0,0,1-.19-.12l-2-4.32h0l-.64,4.17a.22.22,0,0,1-.2.16h-1a.19.19,0,0,1-.2-.25Z" transform="translate(-9.92 -6.73)"/><path class="cls-5" d="M413.55,122.2a2.28,2.28,0,0,1,2.33,2.35c0,.08,0,.26,0,.33a.26.26,0,0,1-.24.24h-3.26a1.22,1.22,0,0,0,1.26,1.17,1.66,1.66,0,0,0,1.09-.37c.12-.1.26-.11.33,0l.43.57a.21.21,0,0,1,0,.33,2.89,2.89,0,0,1-1.89.69,2.66,2.66,0,0,1,0-5.31ZM412.43,121l1.86-1.23c.18-.12.46,0,.59.27s.13.56-.06.65l-2,.93c-.12.06-.28,0-.36-.21S412.35,121.1,412.43,121Zm2.06,3.17a.93.93,0,0,0-1-.88,1,1,0,0,0-1.07.88Z" transform="translate(-9.92 -6.73)"/><path class="cls-5" d="M416.45,127l1.62-2.21-1.55-2.13a.22.22,0,0,1,.17-.37h1a.43.43,0,0,1,.42.18l.85,1.33h0l.87-1.33a.39.39,0,0,1,.39-.18h1.07c.22,0,.28.21.15.37l-1.57,2.11,1.58,2.23c.12.16.06.37-.15.37h-1.05a.36.36,0,0,1-.35-.21l-.94-1.39h0l-1,1.5a.28.28,0,0,1-.21.1h-1.14C416.4,127.39,416.34,127.18,416.45,127Z" transform="translate(-9.92 -6.73)"/><path class="cls-5" d="M422.31,120.56a.88.88,0,0,1,1.75,0,.88.88,0,1,1-1.75,0Zm.2,2a.24.24,0,0,1,.24-.24h.9a.24.24,0,0,1,.24.24v4.6a.25.25,0,0,1-.24.24h-.9a.25.25,0,0,1-.24-.24Z" transform="translate(-9.92 -6.73)"/><path class="cls-5" d="M427.68,122.2a2.5,2.5,0,0,1,1.89.86c.11.11.06.25-.05.36l-.46.51c-.11.12-.23.06-.33,0a1.39,1.39,0,0,0-1-.44,1.41,1.41,0,0,0,0,2.81,1.36,1.36,0,0,0,1.08-.56.23.23,0,0,1,.32,0l.5.41a.27.27,0,0,1,.08.37,2.27,2.27,0,0,1-2,1.06,2.66,2.66,0,1,1,0-5.31Z" transform="translate(-9.92 -6.73)"/><path class="cls-5" d="M432.93,122.2a2.66,2.66,0,1,1-2.6,2.64A2.64,2.64,0,0,1,432.93,122.2Zm0,4.06a1.38,1.38,0,0,0,1.33-1.42,1.33,1.33,0,1,0-1.33,1.42Z" transform="translate(-9.92 -6.73)"/><g class="cls-4"><circle class="cls-6" cx="387.67" cy="94" r="74.79"/><path class="cls-7" d="M397.59,362a74.79,74.79,0,1,0,74.78,74.78A74.78,74.78,0,0,0,397.59,362" transform="translate(-9.92 -6.73)"/></g><path class="cls-5" d="M380.45,419a1,1,0,0,1-.93-1v-3.35a1,1,0,0,1,.31-.78l6.92-5.41a2.91,2.91,0,0,1,1.85-.62h3.87a1,1,0,0,1,1,1v34.11a1,1,0,0,1-1,1h-5.88a1,1,0,0,1-1-1V419Z" transform="translate(-9.92 -6.73)"/><path class="cls-5" d="M398.92,419a1,1,0,0,1-.93-1v-3.35a1,1,0,0,1,.31-.78l6.92-5.41a2.94,2.94,0,0,1,1.86-.62H411a1,1,0,0,1,1,1v34.11a1,1,0,0,1-1,1h-5.89a1,1,0,0,1-1-1V419Z" transform="translate(-9.92 -6.73)"/><path class="cls-5" d="M343.74,453.28a3.75,3.75,0,0,1,2.67,1,.22.22,0,0,1,0,.31l-.67.69a.18.18,0,0,1-.28,0,2.63,2.63,0,0,0-1.69-.64,2.55,2.55,0,0,0,0,5.1,2.6,2.6,0,0,0,1.68-.63.22.22,0,0,1,.28,0l.68.71a.21.21,0,0,1,0,.29,3.78,3.78,0,0,1-2.68,1.07,4,4,0,1,1,0-7.92Z" transform="translate(-9.92 -6.73)"/><path class="cls-5" d="M349.71,455.9a2.28,2.28,0,0,1,2.33,2.35,1.76,1.76,0,0,1,0,.33.25.25,0,0,1-.24.23h-3.25a1.21,1.21,0,0,0,1.26,1.18,1.72,1.72,0,0,0,1.09-.37c.12-.1.25-.11.33,0l.43.57a.21.21,0,0,1,0,.33,2.89,2.89,0,0,1-1.89.69,2.66,2.66,0,0,1,0-5.31Zm.94,2a.93.93,0,0,0-1-.88,1,1,0,0,0-1.08.88Z" transform="translate(-9.92 -6.73)"/><path class="cls-5" d="M355.28,455.9a3.68,3.68,0,0,1,1.22.21v-2.48a.26.26,0,0,1,.24-.24h.9a.25.25,0,0,1,.24.24v7.27a.24.24,0,0,1-.27.23.75.75,0,0,1-.79-.63,2.17,2.17,0,0,1-1.63.71,2.66,2.66,0,0,1,.09-5.31Zm1.22,1.54a2,2,0,0,0-1.05-.29,1.42,1.42,0,0,0-.07,2.81,1.16,1.16,0,0,0,1.12-.71Z" transform="translate(-9.92 -6.73)"/><path class="cls-5" d="M359.09,454.26a.85.85,0,0,1,.87-.87.87.87,0,0,1,.88.87.88.88,0,0,1-.88.88A.87.87,0,0,1,359.09,454.26Zm.2,2a.24.24,0,0,1,.24-.24h.89a.24.24,0,0,1,.24.24v4.6a.25.25,0,0,1-.24.24h-.89a.25.25,0,0,1-.24-.24Z" transform="translate(-9.92 -6.73)"/><path class="cls-5" d="M361.91,460.75a.23.23,0,0,1-.06-.28l.33-.66a.19.19,0,0,1,.3-.08,2.06,2.06,0,0,0,1.12.33c.38,0,.56-.15.56-.37s-.29-.44-1-.7c-1-.37-1.42-.84-1.42-1.61s.59-1.48,1.83-1.48a2.85,2.85,0,0,1,1.51.37.29.29,0,0,1,.11.35l-.29.59a.26.26,0,0,1-.32.1,2.4,2.4,0,0,0-1-.26c-.34,0-.49.17-.49.33s.26.36.73.55c1,.4,1.68.75,1.68,1.76,0,.81-.68,1.52-1.95,1.52A2.87,2.87,0,0,1,361.91,460.75Z" transform="translate(-9.92 -6.73)"/><path class="cls-5" d="M371.51,455.9a2.28,2.28,0,0,1,2.33,2.35c0,.08,0,.26,0,.33a.26.26,0,0,1-.25.23h-3.25a1.22,1.22,0,0,0,1.26,1.18,1.72,1.72,0,0,0,1.09-.37c.12-.1.25-.11.33,0l.43.57a.21.21,0,0,1,0,.33,2.89,2.89,0,0,1-1.89.69,2.66,2.66,0,0,1,0-5.31Zm.94,2a.93.93,0,0,0-1-.88,1,1,0,0,0-1.08.88Z" transform="translate(-9.92 -6.73)"/><path class="cls-5" d="M374.87,456.2a.24.24,0,0,1,.27-.24.76.76,0,0,1,.79.66,2.11,2.11,0,0,1,1.64-.72c1.61,0,2,1.09,2,2.32v2.63a.25.25,0,0,1-.24.24h-.89a.24.24,0,0,1-.24-.24v-2.63c0-.66-.27-1.07-.88-1.07a1.12,1.12,0,0,0-1.1.79v2.91c0,.19-.08.24-.32.24h-.82a.25.25,0,0,1-.24-.24Z" transform="translate(-9.92 -6.73)"/><path class="cls-5" d="M387.35,453.28a3.73,3.73,0,0,1,2.66,1,.2.2,0,0,1,0,.31l-.67.69a.18.18,0,0,1-.28,0,2.61,2.61,0,0,0-1.69-.64,2.55,2.55,0,0,0,0,5.1,2.6,2.6,0,0,0,1.68-.63.22.22,0,0,1,.28,0l.68.71a.2.2,0,0,1,0,.29,3.76,3.76,0,0,1-2.67,1.07,4,4,0,1,1,0-7.92Z" transform="translate(-9.92 -6.73)"/><path class="cls-5" d="M393.3,455.9a2.28,2.28,0,0,1,2.33,2.35c0,.08,0,.26,0,.33a.26.26,0,0,1-.24.23h-3.26a1.22,1.22,0,0,0,1.26,1.18,1.72,1.72,0,0,0,1.09-.37c.12-.1.26-.11.33,0l.43.57a.21.21,0,0,1,0,.33,2.89,2.89,0,0,1-1.89.69,2.66,2.66,0,0,1,0-5.31Zm.94,2a.93.93,0,0,0-1-.88,1,1,0,0,0-1.07.88Z" transform="translate(-9.92 -6.73)"/><path class="cls-5" d="M396.66,456.2a.24.24,0,0,1,.27-.24.76.76,0,0,1,.79.66,2.11,2.11,0,0,1,1.64-.72c1.61,0,2,1.09,2,2.32v2.63a.25.25,0,0,1-.24.24h-.89a.24.24,0,0,1-.24-.24v-2.63c0-.66-.27-1.07-.88-1.07a1.12,1.12,0,0,0-1.1.79v2.91c0,.19-.08.24-.32.24h-.82a.25.25,0,0,1-.24-.24Z" transform="translate(-9.92 -6.73)"/><path class="cls-5" d="M402.55,457.24a.24.24,0,0,1-.23-.24v-.75a.23.23,0,0,1,.23-.24H403V454.6a.25.25,0,0,1,.24-.24h.91a.23.23,0,0,1,.23.24V456h1.19a.24.24,0,0,1,.24.24V457a.25.25,0,0,1-.24.24h-1.19v2.05c0,.49.22.69.54.69a2.28,2.28,0,0,0,.65-.12.19.19,0,0,1,.28.13l.14.66a.25.25,0,0,1-.14.3,2.63,2.63,0,0,1-1.16.26,1.62,1.62,0,0,1-1.69-1.82v-2.15Z" transform="translate(-9.92 -6.73)"/><path class="cls-5" d="M407,456.2a.24.24,0,0,1,.26-.24.78.78,0,0,1,.81.7,1.76,1.76,0,0,1,1.42-.76c.6,0,1.1.16.95.49l-.33.75a.2.2,0,0,1-.29.11,1.15,1.15,0,0,0-1.44.43v3.17c0,.19-.12.24-.29.24h-.85a.25.25,0,0,1-.24-.24Z" transform="translate(-9.92 -6.73)"/><path class="cls-5" d="M413.4,455.9a2.66,2.66,0,1,1-2.59,2.64A2.64,2.64,0,0,1,413.4,455.9Zm0,4.06a1.38,1.38,0,0,0,1.34-1.42A1.33,1.33,0,1,0,413.4,460Z" transform="translate(-9.92 -6.73)"/><path class="cls-5" d="M418.77,457.88a3.79,3.79,0,0,1,1,.14.88.88,0,0,0-1-1,4.08,4.08,0,0,0-1.17.19c-.17.06-.27-.06-.29-.22l-.11-.57a.24.24,0,0,1,.17-.31,5.11,5.11,0,0,1,1.48-.25,2,2,0,0,1,2.17,2.21v2.79a.24.24,0,0,1-.27.23.73.73,0,0,1-.75-.51,2.31,2.31,0,0,1-1.56.59,1.61,1.61,0,0,1-1.71-1.74C416.75,458.57,417.49,457.88,418.77,457.88Zm0,2.31a1.09,1.09,0,0,0,.92-.54v-.75a2.07,2.07,0,0,0-.75-.15c-.58,0-.9.27-.9.72A.67.67,0,0,0,418.8,460.19Z" transform="translate(-9.92 -6.73)"/><path class="cls-5" d="M422.4,456.2a.24.24,0,0,1,.27-.24.77.77,0,0,1,.79.64,1.93,1.93,0,0,1,1.53-.7,1.74,1.74,0,0,1,1.52.77,2.16,2.16,0,0,1,1.63-.77c1.63,0,2,1,2,2.35v2.6a.25.25,0,0,1-.25.24H429a.25.25,0,0,1-.25-.24v-2.63c0-.66-.24-1.07-.88-1.07a1,1,0,0,0-.94.53s0,.25,0,.48v2.69a.25.25,0,0,1-.24.24h-.91a.24.24,0,0,1-.24-.24v-2.63c0-.66-.18-1.07-.83-1.07a1,1,0,0,0-1,.79v2.91a.25.25,0,0,1-.24.24h-.9a.25.25,0,0,1-.24-.24Z" transform="translate(-9.92 -6.73)"/><path class="cls-5" d="M433.76,455.9a2.28,2.28,0,0,1,2.34,2.35c0,.08,0,.26,0,.33a.26.26,0,0,1-.25.23h-3.25a1.21,1.21,0,0,0,1.26,1.18,1.72,1.72,0,0,0,1.09-.37c.12-.1.25-.11.33,0l.43.57a.21.21,0,0,1,0,.33,2.89,2.89,0,0,1-1.89.69,2.66,2.66,0,0,1,0-5.31Zm-1.12-1.16,1.86-1.23c.19-.12.46,0,.6.26s.13.57-.06.65l-2,.94c-.13.05-.28,0-.37-.21S432.57,454.8,432.64,454.74Zm2.07,3.17a.93.93,0,0,0-1-.88,1,1,0,0,0-1.08.88Z" transform="translate(-9.92 -6.73)"/><path class="cls-5" d="M437.13,456.2a.24.24,0,0,1,.26-.24.78.78,0,0,1,.81.7,1.75,1.75,0,0,1,1.42-.76c.6,0,1.1.16.95.49l-.33.75a.2.2,0,0,1-.29.11,1.15,1.15,0,0,0-1.44.43v3.17c0,.19-.13.24-.29.24h-.85a.25.25,0,0,1-.24-.24Z" transform="translate(-9.92 -6.73)"/><path class="cls-5" d="M441.19,454.26a.85.85,0,0,1,.87-.87.87.87,0,0,1,.88.87.88.88,0,0,1-.88.88A.87.87,0,0,1,441.19,454.26Zm.2,2a.24.24,0,0,1,.24-.24h.89a.24.24,0,0,1,.24.24v4.6a.25.25,0,0,1-.24.24h-.89a.25.25,0,0,1-.24-.24Z" transform="translate(-9.92 -6.73)"/><path class="cls-5" d="M446.56,455.9a2.5,2.5,0,0,1,1.89.86c.11.11.05.25-.06.36l-.46.51c-.11.12-.23.06-.33,0a1.39,1.39,0,0,0-1-.44,1.41,1.41,0,0,0,0,2.81,1.36,1.36,0,0,0,1.08-.56.25.25,0,0,1,.32,0l.49.42c.12.11.18.23.09.36a2.26,2.26,0,0,1-2,1.07,2.66,2.66,0,1,1,0-5.31Z" transform="translate(-9.92 -6.73)"/><path class="cls-5" d="M451.21,457.88a3.79,3.79,0,0,1,1,.14.88.88,0,0,0-1-1,4.08,4.08,0,0,0-1.17.19c-.17.06-.27-.06-.29-.22l-.11-.57a.23.23,0,0,1,.16-.31,5.21,5.21,0,0,1,1.49-.25,2,2,0,0,1,2.17,2.21v2.79a.24.24,0,0,1-.27.23.75.75,0,0,1-.76-.51,2.26,2.26,0,0,1-1.55.59,1.61,1.61,0,0,1-1.71-1.74C449.19,458.57,449.92,457.88,451.21,457.88Zm0,2.31a1.11,1.11,0,0,0,.92-.54v-.75a2.07,2.07,0,0,0-.75-.15c-.58,0-.9.27-.9.72A.67.67,0,0,0,451.24,460.19Z" transform="translate(-9.92 -6.73)"/><g class="cls-4"><circle class="cls-6" cx="387.67" cy="430" r="74.79"/><path class="cls-8" d="M15.82,275.22h-3.5a.48.48,0,0,1-.46-.46v-1.68a.47.47,0,0,1,.46-.45h3.5V269.1a.45.45,0,0,1,.46-.43H18a.45.45,0,0,1,.46.43v3.53H22a.44.44,0,0,1,.43.45v1.68a.45.45,0,0,1-.43.46H18.42v3.5a.45.45,0,0,1-.46.43H16.28a.45.45,0,0,1-.46-.43Z" transform="translate(-9.92 -6.73)"/><path class="cls-8" d="M23.82,279.71l1.44-1.61a.44.44,0,0,1,.62-.05,4.09,4.09,0,0,0,2.71,1.13,2,2,0,0,0,2.14-2c0-1.22-1.11-2-2.93-2H26.41a.47.47,0,0,1-.46-.45v-2.07a.46.46,0,0,1,.46-.45H27.8c1.73,0,2.64-.82,2.64-1.87a1.81,1.81,0,0,0-2-1.88,2.88,2.88,0,0,0-2.16,1,.47.47,0,0,1-.67.05L24.13,268a.46.46,0,0,1,0-.65,6.41,6.41,0,0,1,4.73-2.18c2.88,0,5.35,1.75,5.35,4.53a4.39,4.39,0,0,1-2.54,3.79v.1a4.18,4.18,0,0,1,3,4c0,2.69-2.35,4.88-5.76,4.88a6.16,6.16,0,0,1-5.09-2.14A.5.5,0,0,1,23.82,279.71Z" transform="translate(-9.92 -6.73)"/><path class="cls-8" d="M36.2,279.71l1.44-1.61a.44.44,0,0,1,.62-.05A4.09,4.09,0,0,0,41,279.18a2,2,0,0,0,2.13-2c0-1.22-1.1-2-2.93-2H38.79a.46.46,0,0,1-.45-.45v-2.07a.45.45,0,0,1,.45-.45h1.39c1.73,0,2.64-.82,2.64-1.87a1.81,1.81,0,0,0-2-1.88,2.85,2.85,0,0,0-2.16,1,.49.49,0,0,1-.68.05L36.51,268a.46.46,0,0,1,0-.65,6.43,6.43,0,0,1,4.73-2.18c2.88,0,5.35,1.75,5.35,4.53a4.39,4.39,0,0,1-2.54,3.79v.1a4.18,4.18,0,0,1,3,4c0,2.69-2.35,4.88-5.76,4.88a6.12,6.12,0,0,1-5.08-2.14A.5.5,0,0,1,36.2,279.71Z" transform="translate(-9.92 -6.73)"/><path class="cls-8" d="M49.35,278.75a.49.49,0,0,1-.48-.48v-2.14a1.12,1.12,0,0,1,.34-.89l8.3-9.91a.43.43,0,0,1,.36-.14h1.78a.48.48,0,0,1,.48.48v10h2a.46.46,0,0,1,.48.46v2.14a.49.49,0,0,1-.48.48h-2v3a.48.48,0,0,1-.46.48H57.06a.48.48,0,0,1-.46-.48v-3Zm7.27-3v-4.68h0l-3.84,4.63v0Z" transform="translate(-9.92 -6.73)"/><path class="cls-8" d="M73.06,271.14v1.46a4,4,0,0,1,3.34-1.7,3.93,3.93,0,0,1,3.29,1.68,4.5,4.5,0,0,1,3.5-1.68c3.41,0,4.54,2.47,4.54,5.61v5.19a.53.53,0,0,1-.53.53H84.61a.52.52,0,0,1-.53-.53v-5.35c0-1.13-.34-2-1.63-2-1,0-1.56.76-1.56,1.84v5.55a.5.5,0,0,1-.51.53H77.77a.53.53,0,0,1-.53-.53v-5.35c0-1.13-.19-2-1.42-2s-1.7.76-1.7,1.89v5.5a.55.55,0,0,1-.53.53H71a.52.52,0,0,1-.53-.53v-10a.5.5,0,0,1,.53-.53Z" transform="translate(-9.92 -6.73)"/><path class="cls-8" d="M90,267.54A2.08,2.08,0,1,1,92,269.6,2.06,2.06,0,0,1,90,267.54Zm.26,4.13a.51.51,0,0,1,.53-.53h2.59a.51.51,0,0,1,.53.53v10a.53.53,0,0,1-.53.53H90.75a.53.53,0,0,1-.53-.53Z" transform="translate(-9.92 -6.73)"/><path class="cls-8" d="M96.46,266a.55.55,0,0,1,.53-.53h2.59a.55.55,0,0,1,.53.53V281.7a.53.53,0,0,1-.53.53H97a.53.53,0,0,1-.53-.53Z" transform="translate(-9.92 -6.73)"/><path class="cls-8" d="M102.73,266a.55.55,0,0,1,.52-.53h2.6a.56.56,0,0,1,.53.53V281.7a.54.54,0,0,1-.53.53h-2.6a.53.53,0,0,1-.52-.53Z" transform="translate(-9.92 -6.73)"/><path class="cls-8" d="M114.1,270.9a5.8,5.8,0,1,1-5.78,5.76A5.81,5.81,0,0,1,114.1,270.9Zm0,8.16a2.38,2.38,0,0,0,2.31-2.4,2.32,2.32,0,1,0-4.64,0A2.39,2.39,0,0,0,114.1,279.06Z" transform="translate(-9.92 -6.73)"/><path class="cls-8" d="M121.81,271.57a.53.53,0,0,1,.6-.53,1.86,1.86,0,0,1,1.94,1.61,4,4,0,0,1,3.43-1.75c3.46,0,4.64,2.45,4.64,5.49v5.31a.54.54,0,0,1-.51.53h-2.62a.51.51,0,0,1-.52-.53v-5.35c0-1.06-.36-2-1.61-2s-1.68.76-1.68,1.89v5.5a.48.48,0,0,1-.51.53h-2.64a.53.53,0,0,1-.52-.53Z" transform="translate(-9.92 -6.73)"/><path class="cls-8" d="M140,270.9a5.16,5.16,0,0,1,5.26,5.18c0,.17,0,.55-.05.72a.54.54,0,0,1-.53.48h-6.84a2.11,2.11,0,0,0,2.31,1.92,4.3,4.3,0,0,0,2.11-.69.44.44,0,0,1,.69,0l1.23,1.6a.59.59,0,0,1,0,.8,5.89,5.89,0,0,1-9.91-4.23A5.75,5.75,0,0,1,140,270.9Zm1.51,4.27a1.51,1.51,0,0,0-1.6-1.37,1.64,1.64,0,0,0-1.66,1.37Z" transform="translate(-9.92 -6.73)"/><path class="cls-8" d="M146.91,281.58a.4.4,0,0,1-.19-.58l.89-1.82a.43.43,0,0,1,.57-.24,6,6,0,0,0,2.74.69c.72,0,.84-.26.84-.52s-.6-.65-1.9-1.16c-2.13-.84-3.24-1.82-3.24-3.6,0-2,1.32-3.45,4.2-3.45a9.16,9.16,0,0,1,3.79.84.52.52,0,0,1,.29.72l-.86,1.77a.45.45,0,0,1-.58.2,6.26,6.26,0,0,0-2.59-.68c-.62,0-.79.17-.79.46s.45.53,1.25.82c2.23.81,4,1.7,4,3.93,0,1.92-1.56,3.53-4.51,3.53A8.2,8.2,0,0,1,146.91,281.58Z" transform="translate(-9.92 -6.73)"/></g><path class="cls-8" d="M168.38,270.9a6,6,0,0,1,3.5,1.08v-6.19a.34.34,0,0,1,.36-.37h.36a.39.39,0,0,1,.34.37v16.15c0,.26-.1.38-.31.38s-.7-.45-.7-1.22v-.17a5.45,5.45,0,0,1-3.86,1.56c-2.88,0-5-2.57-5-5.81S165.24,270.9,168.38,270.9Zm-.24,10.56a4.57,4.57,0,0,0,3.74-1.87v-6.41a5.31,5.31,0,0,0-3.36-1.25,4.55,4.55,0,0,0-4.44,4.75C164.08,279.25,165.81,281.46,168.14,281.46Z" transform="translate(-9.92 -6.73)"/><path class="cls-8" d="M181.46,270.9a4.86,4.86,0,0,1,5,5c0,.43,0,1.08-.41,1.08h-8.86a4.39,4.39,0,0,0,4.3,4.44,6,6,0,0,0,3.41-1.11c.24-.14.36-.16.48,0l.26.41c.1.1.07.29-.12.43a7.09,7.09,0,0,1-4,1.3c-3.26,0-5.35-2.59-5.35-5.83S178.2,270.9,181.46,270.9Zm3.91,5.13a3.85,3.85,0,0,0-3.91-4.1,4.23,4.23,0,0,0-4.27,4.1Z" transform="translate(-9.92 -6.73)"/><g class="cls-4"><path class="cls-8" d="M11.94,299.79a.35.35,0,0,1,.36-.37h.31a.39.39,0,0,1,.36.37v9.86l5.71-4.34a.77.77,0,0,1,.46-.17h.79c.26,0,.29.33.07.5l-5.88,4.44,6.15,5.67a.27.27,0,0,1-.15.48H19.5A.82.82,0,0,1,19,316l-6-5.57v5.43a.32.32,0,0,1-.36.36h-.36c-.22,0-.31-.17-.31-.36Z" transform="translate(-9.92 -6.73)"/><path class="cls-8" d="M22.4,301.15a.94.94,0,0,1,1-.93.93.93,0,1,1,0,1.85A.94.94,0,0,1,22.4,301.15Zm.46,4.35a.35.35,0,0,1,.36-.36h.33a.39.39,0,0,1,.36.36v10.37a.32.32,0,0,1-.36.36h-.38c-.22,0-.31-.17-.31-.36Z" transform="translate(-9.92 -6.73)"/><path class="cls-8" d="M27.75,299.79a.36.36,0,0,1,.36-.37h.34a.39.39,0,0,1,.36.37v16.08a.32.32,0,0,1-.36.36h-.39a.32.32,0,0,1-.31-.36Z" transform="translate(-9.92 -6.73)"/><path class="cls-8" d="M37.52,304.9A5.8,5.8,0,1,1,32,310.66,5.67,5.67,0,0,1,37.52,304.9Zm0,10.56a4.77,4.77,0,1,0-4.51-4.8A4.61,4.61,0,0,0,37.52,315.46Zm-1.82-12.7a.33.33,0,0,1-.48-.17.37.37,0,0,1,.16-.52L39.22,300a.49.49,0,0,1,.7.24c.17.33.12.65-.21.79Z" transform="translate(-9.92 -6.73)"/><path class="cls-8" d="M46.18,305.43c0-.27.1-.39.32-.39s.69.46.69,1.23v.26a4.51,4.51,0,0,1,3.63-1.63,3.64,3.64,0,0,1,3.43,2,4.9,4.9,0,0,1,3.89-2c3,0,4,2,4,4.89v6.08a.36.36,0,0,1-.36.36h-.41c-.17,0-.29-.12-.29-.36v-6.08c0-2.56-1-3.86-3.05-3.86a4.28,4.28,0,0,0-3.43,1.94,6.69,6.69,0,0,1,.21,1.92v6.08a.39.39,0,0,1-.36.36H54.1c-.21,0-.33-.12-.33-.36v-6.08c0-2.56-1-3.86-3.07-3.86a4,4,0,0,0-3.46,1.9v8a.32.32,0,0,1-.36.36H46.5a.32.32,0,0,1-.32-.36Z" transform="translate(-9.92 -6.73)"/><path class="cls-8" d="M70.54,304.9a4.86,4.86,0,0,1,5,5c0,.43,0,1.08-.41,1.08H66.25a4.39,4.39,0,0,0,4.29,4.44A6,6,0,0,0,74,314.35c.24-.14.36-.16.48,0l.27.41c.09.1.07.29-.12.43a7.1,7.1,0,0,1-4,1.3c-3.26,0-5.35-2.59-5.35-5.83S67.28,304.9,70.54,304.9ZM74.46,310a3.86,3.86,0,0,0-3.92-4.1,4.23,4.23,0,0,0-4.27,4.1Z" transform="translate(-9.92 -6.73)"/><path class="cls-8" d="M77.38,306.17c-.28,0-.36-.14-.36-.36v-.38c0-.22.15-.29.36-.29h1.35v-3c0-.21.17-.33.38-.36l.31,0a.35.35,0,0,1,.36.36v3.05H83.7a.36.36,0,0,1,.38.36v.31a.34.34,0,0,1-.38.36H79.78v7.06c0,1.44.48,2.23,1.9,2.23a4.15,4.15,0,0,0,2.16-.77.27.27,0,0,1,.43.1l.19.33a.3.3,0,0,1-.09.43,5,5,0,0,1-2.71.94c-2.26,0-2.93-1.46-2.93-3.26v-7.06Z" transform="translate(-9.92 -6.73)"/><path class="cls-8" d="M86.86,305.43c0-.27.1-.39.32-.39s.69.46.69,1.23v.24a4.5,4.5,0,0,1,3.48-1.61,5.13,5.13,0,0,1,1.73.31.39.39,0,0,1,.29.5l-.15.44c-.07.21-.26.24-.45.14a3.28,3.28,0,0,0-1.49-.36,4,4,0,0,0-3.36,1.9v8a.32.32,0,0,1-.36.36h-.38a.32.32,0,0,1-.32-.36Z" transform="translate(-9.92 -6.73)"/><path class="cls-8" d="M100.09,304.9a5.8,5.8,0,1,1-5.57,5.76A5.68,5.68,0,0,1,100.09,304.9Zm0,10.56a4.77,4.77,0,1,0-4.51-4.8A4.61,4.61,0,0,0,100.09,315.46Z" transform="translate(-9.92 -6.73)"/><path class="cls-8" d="M107.94,314.86l.21-.39a.32.32,0,0,1,.5,0,5.07,5.07,0,0,0,3,1.08c1.68,0,2.76-.82,2.76-2s-1.34-1.87-3.22-2.56-3.31-1.47-3.31-3.22c0-1.2,1-2.83,3.55-2.83a6,6,0,0,1,3.12.84.39.39,0,0,1,.15.5l-.15.27c-.09.19-.28.19-.48.09a6.34,6.34,0,0,0-2.64-.72c-1.75,0-2.49,1-2.49,1.83,0,1.1,1.1,1.7,2.73,2.3,2.07.77,3.8,1.39,3.8,3.5,0,1.68-1.59,3-3.82,3a5.8,5.8,0,0,1-3.63-1.22A.31.31,0,0,1,107.94,314.86Z" transform="translate(-9.92 -6.73)"/><path class="cls-8" d="M124.33,305.43c0-.27.09-.39.31-.39s.69.46.69,1.23v.24a4.52,4.52,0,0,1,3.48-1.61,5.07,5.07,0,0,1,1.73.31.39.39,0,0,1,.29.5l-.14.44a.3.3,0,0,1-.46.14,3.28,3.28,0,0,0-1.49-.36,4,4,0,0,0-3.36,1.9v8a.32.32,0,0,1-.36.36h-.38c-.22,0-.31-.17-.31-.36Z" transform="translate(-9.92 -6.73)"/><path class="cls-8" d="M137.41,304.9a4.87,4.87,0,0,1,5,5c0,.43,0,1.08-.41,1.08h-8.86a4.39,4.39,0,0,0,4.3,4.44,6,6,0,0,0,3.4-1.11c.25-.14.37-.16.48,0l.27.41c.1.1.07.29-.12.43a7.09,7.09,0,0,1-4,1.3c-3.27,0-5.36-2.59-5.36-5.83S134.14,304.9,137.41,304.9Zm3.91,5.13a3.86,3.86,0,0,0-3.91-4.1,4.24,4.24,0,0,0-4.28,4.1Z" transform="translate(-9.92 -6.73)"/><path class="cls-8" d="M150.44,304.9a5.39,5.39,0,0,1,4.08,1.7.35.35,0,0,1,0,.51l-.19.19c-.21.21-.41.14-.6-.05a4.79,4.79,0,0,0-3.26-1.32,4.77,4.77,0,1,0,3.53,7.82.31.31,0,0,1,.52,0l.22.19c.14.15.17.29.07.43a5.51,5.51,0,0,1-4.34,2.14,5.8,5.8,0,0,1,0-11.59Z" transform="translate(-9.92 -6.73)"/><path class="cls-8" d="M162.32,304.9a5.8,5.8,0,1,1-5.57,5.76A5.67,5.67,0,0,1,162.32,304.9Zm0,10.56a4.77,4.77,0,1,0-4.51-4.8A4.61,4.61,0,0,0,162.32,315.46Z" transform="translate(-9.92 -6.73)"/><path class="cls-8" d="M171,305.43c0-.27.09-.39.31-.39s.69.46.69,1.23v.24a4.52,4.52,0,0,1,3.48-1.61,5.07,5.07,0,0,1,1.73.31.39.39,0,0,1,.29.5l-.14.44a.3.3,0,0,1-.46.14,3.28,3.28,0,0,0-1.49-.36,4,4,0,0,0-3.36,1.9v8a.32.32,0,0,1-.36.36h-.38c-.22,0-.31-.17-.31-.36Z" transform="translate(-9.92 -6.73)"/><path class="cls-8" d="M179.91,305.43c0-.27.1-.39.31-.39s.7.46.7,1.23v.24a4.5,4.5,0,0,1,3.48-1.61,5.13,5.13,0,0,1,1.73.31.38.38,0,0,1,.28.5l-.14.44c-.07.21-.26.24-.46.14a3.26,3.26,0,0,0-1.48-.36,4,4,0,0,0-3.36,1.9v8a.32.32,0,0,1-.36.36h-.39a.32.32,0,0,1-.31-.36Z" transform="translate(-9.92 -6.73)"/><path class="cls-8" d="M188.36,301.15a.94.94,0,0,1,1-.93.93.93,0,1,1,0,1.85A.94.94,0,0,1,188.36,301.15Zm.45,4.35a.36.36,0,0,1,.36-.36h.34a.39.39,0,0,1,.36.36v10.37a.32.32,0,0,1-.36.36h-.38a.32.32,0,0,1-.32-.36Z" transform="translate(-9.92 -6.73)"/><path class="cls-8" d="M198.29,304.9A6.06,6.06,0,0,1,201.8,306v-6.19a.34.34,0,0,1,.36-.37h.36a.39.39,0,0,1,.33.37v16.15c0,.26-.09.38-.31.38s-.69-.45-.69-1.22v-.17a5.49,5.49,0,0,1-3.87,1.56c-2.88,0-5-2.57-5-5.81S195.15,304.9,198.29,304.9Zm-.24,10.56a4.6,4.6,0,0,0,3.75-1.87v-6.41a5.34,5.34,0,0,0-3.36-1.25,4.55,4.55,0,0,0-4.44,4.75C194,313.25,195.73,315.46,198.05,315.46Z" transform="translate(-9.92 -6.73)"/><path class="cls-8" d="M211.54,304.9a5.8,5.8,0,1,1-5.57,5.76A5.67,5.67,0,0,1,211.54,304.9Zm0,10.56a4.77,4.77,0,1,0-4.51-4.8A4.61,4.61,0,0,0,211.54,315.46Z" transform="translate(-9.92 -6.73)"/><path class="cls-8" d="M219.39,314.86l.21-.39a.33.33,0,0,1,.51,0,5,5,0,0,0,3,1.08c1.68,0,2.76-.82,2.76-2s-1.34-1.87-3.21-2.56-3.32-1.47-3.32-3.22c0-1.2,1-2.83,3.56-2.83a6.1,6.1,0,0,1,3.12.84.37.37,0,0,1,.14.5l-.14.27c-.1.19-.29.19-.48.09a6.44,6.44,0,0,0-2.64-.72c-1.76,0-2.5,1-2.5,1.83,0,1.1,1.1,1.7,2.74,2.3,2.06.77,3.79,1.39,3.79,3.5,0,1.68-1.59,3-3.82,3a5.76,5.76,0,0,1-3.62-1.22C219.39,315.17,219.29,315,219.39,314.86Z" transform="translate(-9.92 -6.73)"/><path class="cls-5" d="M84.92,362a74.77,74.77,0,1,0,74.77,74.76A74.77,74.77,0,0,0,84.92,362" transform="translate(-9.92 -6.73)"/></g><path class="cls-9" d="M58.17,433.7l3.9-4.36a1.23,1.23,0,0,1,1.69-.13,11,11,0,0,0,7.35,3.06c3.32,0,5.79-2,5.79-5.34s-3-5.46-7.94-5.46H65.19A1.27,1.27,0,0,1,64,420.24v-5.6a1.23,1.23,0,0,1,1.23-1.23H69c4.69,0,7.16-2.21,7.16-5.07s-2-5.08-5.34-5.08a7.75,7.75,0,0,0-5.85,2.67,1.26,1.26,0,0,1-1.82.13L59,402a1.25,1.25,0,0,1,0-1.76c2.34-2.4,6.38-5.92,12.81-5.92,7.81,0,14.51,4.75,14.51,12.29,0,5.14-3.9,8.91-6.9,10.28v.26c3.65,1.24,8.07,4.62,8.07,10.79,0,7.29-6.38,13.21-15.61,13.21-8.45,0-12.36-4-13.79-5.79A1.37,1.37,0,0,1,58.17,433.7Z" transform="translate(-9.92 -6.73)"/><path class="cls-9" d="M91.6,409.12a1.25,1.25,0,0,1-1.18-1.31v-4.22a1.28,1.28,0,0,1,.39-1l8.72-6.83a3.75,3.75,0,0,1,2.34-.78h4.88a1.28,1.28,0,0,1,1.23,1.24v43a1.29,1.29,0,0,1-1.23,1.3H99.33a1.27,1.27,0,0,1-1.3-1.3V409.12Z" transform="translate(-9.92 -6.73)"/><path class="cls-9" d="M60.51,453.74a4,4,0,0,1,2.88,1.11.22.22,0,0,1,0,.33l-.73.76a.2.2,0,0,1-.3,0,2.83,2.83,0,0,0-1.83-.71,2.77,2.77,0,0,0,0,5.53,2.83,2.83,0,0,0,1.82-.68.23.23,0,0,1,.3,0l.74.77a.23.23,0,0,1,0,.32,4.12,4.12,0,0,1-2.9,1.15,4.29,4.29,0,1,1,0-8.58Z" transform="translate(-9.92 -6.73)"/><path class="cls-9" d="M67,456.58a2.47,2.47,0,0,1,2.53,2.55c0,.08,0,.27,0,.36a.3.3,0,0,1-.27.25H65.69A1.32,1.32,0,0,0,67.06,461a1.86,1.86,0,0,0,1.18-.4c.13-.11.27-.12.35,0l.47.62a.23.23,0,0,1,0,.35,3.1,3.1,0,0,1-2.05.76,2.88,2.88,0,0,1,0-5.76Zm1,2.18a1,1,0,0,0-1.06-.95,1.09,1.09,0,0,0-1.17.95Z" transform="translate(-9.92 -6.73)"/><path class="cls-9" d="M70.62,456.9a.26.26,0,0,1,.29-.25.82.82,0,0,1,.86.72,2.24,2.24,0,0,1,1.77-.79c1.75,0,2.21,1.18,2.21,2.51v2.85a.27.27,0,0,1-.27.26h-1a.26.26,0,0,1-.26-.26v-2.85c0-.71-.29-1.15-1-1.15a1.21,1.21,0,0,0-1.19.86v3.14c0,.2-.08.26-.34.26h-.89a.26.26,0,0,1-.26-.26Z" transform="translate(-9.92 -6.73)"/><path class="cls-9" d="M77,458a.26.26,0,0,1-.25-.26V457a.25.25,0,0,1,.25-.26h.54v-1.53a.27.27,0,0,1,.26-.26h1a.26.26,0,0,1,.25.26v1.53h1.29a.26.26,0,0,1,.26.26v.81a.27.27,0,0,1-.26.26H79v2.22c0,.54.24.75.58.75a2.31,2.31,0,0,0,.71-.13.21.21,0,0,1,.31.14l.15.72a.26.26,0,0,1-.15.32,2.87,2.87,0,0,1-1.27.29,1.75,1.75,0,0,1-1.82-2V458Z" transform="translate(-9.92 -6.73)"/><path class="cls-9" d="M81.83,456.9a.26.26,0,0,1,.29-.25.84.84,0,0,1,.87.75,1.92,1.92,0,0,1,1.53-.82c.66,0,1.2.18,1,.54l-.36.81a.24.24,0,0,1-.32.12,1.07,1.07,0,0,0-.51-.11,1.2,1.2,0,0,0-1.05.57v3.43c0,.2-.13.26-.31.26h-.92a.26.26,0,0,1-.26-.26Z" transform="translate(-9.92 -6.73)"/><path class="cls-9" d="M88.78,456.58A2.88,2.88,0,1,1,86,459.44,2.86,2.86,0,0,1,88.78,456.58Zm0,4.4a1.49,1.49,0,0,0,1.44-1.54,1.44,1.44,0,1,0-2.87,0A1.48,1.48,0,0,0,88.78,461Z" transform="translate(-9.92 -6.73)"/><path class="cls-9" d="M92.62,461.84a.25.25,0,0,1-.07-.3l.36-.72a.2.2,0,0,1,.32-.09,2.26,2.26,0,0,0,1.21.35c.42,0,.61-.15.61-.39s-.31-.48-1-.76c-1.07-.41-1.54-.91-1.54-1.74s.63-1.61,2-1.61a3,3,0,0,1,1.63.4.32.32,0,0,1,.12.39l-.31.63a.28.28,0,0,1-.35.1,2.76,2.76,0,0,0-1.09-.27c-.37,0-.53.18-.53.36s.28.38.79.59c1.06.43,1.82.81,1.82,1.91,0,.87-.74,1.65-2.12,1.65A3.11,3.11,0,0,1,92.62,461.84Z" transform="translate(-9.92 -6.73)"/><path class="cls-9" d="M103,456.58a3.92,3.92,0,0,1,1.32.23v-2.69a.28.28,0,0,1,.26-.26h1a.27.27,0,0,1,.26.26V462a.25.25,0,0,1-.28.25.81.81,0,0,1-.86-.69,2.36,2.36,0,0,1-1.77.78,2.89,2.89,0,0,1,.1-5.76Zm1.32,1.67a2.16,2.16,0,0,0-1.14-.31,1.53,1.53,0,0,0-.07,3,1.26,1.26,0,0,0,1.21-.77Z" transform="translate(-9.92 -6.73)"/><path class="cls-9" d="M109.75,456.58a2.47,2.47,0,0,1,2.53,2.55c0,.08,0,.27,0,.36a.3.3,0,0,1-.27.25h-3.52a1.32,1.32,0,0,0,1.37,1.27,1.86,1.86,0,0,0,1.18-.4c.13-.11.27-.12.35,0l.47.62a.22.22,0,0,1,0,.35,3.06,3.06,0,0,1-2,.76,2.88,2.88,0,0,1,0-5.76Zm1,2.18a1,1,0,0,0-1.06-.95,1.09,1.09,0,0,0-1.17.95Z" transform="translate(-9.92 -6.73)"/><path class="cls-9" d="M56.81,472.84a4,4,0,0,1,1.33.23v-2.68a.28.28,0,0,1,.26-.26h1a.27.27,0,0,1,.26.26v7.88a.26.26,0,0,1-.29.25.81.81,0,0,1-.86-.7,2.34,2.34,0,0,1-1.76.78,2.89,2.89,0,0,1,.09-5.76Zm1.33,1.67A2.22,2.22,0,0,0,57,474.2a1.4,1.4,0,0,0-1.37,1.52,1.37,1.37,0,0,0,1.3,1.52,1.26,1.26,0,0,0,1.22-.76Z" transform="translate(-9.92 -6.73)"/><path class="cls-9" d="M60.94,471.07a.93.93,0,0,1,.94-.94.94.94,0,0,1,1,.94,1,1,0,0,1-1,.95A.94.94,0,0,1,60.94,471.07Zm.22,2.15a.26.26,0,0,1,.26-.26h1a.27.27,0,0,1,.27.26v5a.28.28,0,0,1-.27.26h-1a.27.27,0,0,1-.26-.26Z" transform="translate(-9.92 -6.73)"/><path class="cls-9" d="M64,478.1a.24.24,0,0,1-.08-.3l.36-.71a.21.21,0,0,1,.32-.1,2.29,2.29,0,0,0,1.22.36c.42,0,.61-.16.61-.4s-.31-.47-1-.76c-1.06-.4-1.54-.9-1.54-1.74s.63-1.61,2-1.61a3,3,0,0,1,1.63.41.31.31,0,0,1,.12.38l-.31.63a.27.27,0,0,1-.34.11,2.68,2.68,0,0,0-1.1-.28c-.37,0-.52.18-.52.36s.27.38.78.6c1.06.43,1.83.81,1.83,1.9,0,.87-.74,1.65-2.12,1.65A3.11,3.11,0,0,1,64,478.1Z" transform="translate(-9.92 -6.73)"/><path class="cls-9" d="M68.93,474.3a.27.27,0,0,1-.25-.27v-.81a.25.25,0,0,1,.25-.26h.54v-1.52a.27.27,0,0,1,.26-.27h1a.26.26,0,0,1,.25.27V473h1.28a.25.25,0,0,1,.26.26V474a.27.27,0,0,1-.26.27H71v2.21c0,.54.23.75.58.75a2.18,2.18,0,0,0,.7-.13c.16-.06.29,0,.31.15l.16.71a.28.28,0,0,1-.16.32,2.82,2.82,0,0,1-1.26.29,1.75,1.75,0,0,1-1.82-2V474.3Z" transform="translate(-9.92 -6.73)"/><path class="cls-9" d="M73.75,473.17a.25.25,0,0,1,.28-.26.85.85,0,0,1,.87.76,1.92,1.92,0,0,1,1.54-.83c.66,0,1.19.18,1,.54l-.36.81a.23.23,0,0,1-.32.12,1.07,1.07,0,0,0-.51-.11,1.19,1.19,0,0,0-1.05.57v3.44c0,.2-.14.26-.31.26H74a.27.27,0,0,1-.26-.26Z" transform="translate(-9.92 -6.73)"/><path class="cls-9" d="M78.15,471.07a.92.92,0,0,1,.94-.94.93.93,0,0,1,1,.94,1,1,0,0,1-1,.95A.93.93,0,0,1,78.15,471.07Zm.21,2.15a.26.26,0,0,1,.26-.26h1a.26.26,0,0,1,.26.26v5a.27.27,0,0,1-.26.26h-1a.27.27,0,0,1-.26-.26Z" transform="translate(-9.92 -6.73)"/><path class="cls-9" d="M81.38,470.39a.28.28,0,0,1,.26-.26h1a.27.27,0,0,1,.27.26v2.69a3.82,3.82,0,0,1,1.34-.24,2.67,2.67,0,0,1,2.67,2.88,2.71,2.71,0,0,1-2.58,2.88,2.47,2.47,0,0,1-1.78-.75.82.82,0,0,1-.86.67.25.25,0,0,1-.28-.25Zm1.49,6.09a1.26,1.26,0,0,0,1.21.76,1.37,1.37,0,0,0,1.3-1.52A1.39,1.39,0,0,0,84,474.2a2.16,2.16,0,0,0-1.14.31Z" transform="translate(-9.92 -6.73)"/><path class="cls-9" d="M88,473.22a.26.26,0,0,1,.26-.26h1a.26.26,0,0,1,.26.26v2.92c0,.73.25,1.1.93,1.1s.89-.55,1-1v-3c0-.21.07-.26.29-.26h.93a.26.26,0,0,1,.27.26v5a.26.26,0,0,1-.29.25.82.82,0,0,1-.86-.68,2.41,2.41,0,0,1-1.67.76c-1.7,0-2.07-1.06-2.07-2.46Z" transform="translate(-9.92 -6.73)"/><path class="cls-9" d="M97,472.84a2.72,2.72,0,0,1,2,.93c.12.12.06.28-.06.4l-.5.54c-.12.13-.25.08-.36,0a1.49,1.49,0,0,0-1.09-.48,1.52,1.52,0,1,0,1.15,2.43.26.26,0,0,1,.35,0l.53.45c.14.12.19.25.1.39A2.46,2.46,0,0,1,97,478.6a2.88,2.88,0,1,1,0-5.76Z" transform="translate(-9.92 -6.73)"/><path class="cls-9" d="M100.1,471.07a.92.92,0,0,1,.94-.94.93.93,0,0,1,.95.94,1,1,0,0,1-.95.95A.93.93,0,0,1,100.1,471.07Zm.21,2.15a.26.26,0,0,1,.26-.26h1a.26.26,0,0,1,.26.26v5a.27.27,0,0,1-.26.26h-1a.27.27,0,0,1-.26-.26Z" transform="translate(-9.92 -6.73)"/><path class="cls-9" d="M105.81,472.84A2.88,2.88,0,1,1,103,475.7,2.86,2.86,0,0,1,105.81,472.84Zm0,4.4a1.5,1.5,0,0,0,1.44-1.54,1.44,1.44,0,1,0-1.44,1.54Zm-1.33-5.65,2-1.33a.48.48,0,0,1,.64.28c.16.3.14.61-.06.71l-2.2,1c-.13.06-.3-.05-.4-.23S104.4,471.65,104.48,471.59Z" transform="translate(-9.92 -6.73)"/><path class="cls-9" d="M109.81,473.17a.26.26,0,0,1,.29-.26.82.82,0,0,1,.86.72,2.27,2.27,0,0,1,1.77-.79c1.75,0,2.21,1.18,2.21,2.52v2.85a.27.27,0,0,1-.26.26h-1a.26.26,0,0,1-.26-.26v-2.85c0-.72-.29-1.16-1-1.16a1.22,1.22,0,0,0-1.19.86v3.15c0,.2-.08.26-.34.26h-.88a.27.27,0,0,1-.27-.26Z" transform="translate(-9.92 -6.73)"/><g class="cls-4"><circle class="cls-10" cx="75" cy="430" r="74.77"/></g></svg>