<svg xmlns="http://www.w3.org/2000/svg" viewBox="0 0 508.07 505"><defs><style>.cls-1{fill:#263b80;}.cls-2{fill:#6fccdd;}.cls-3{fill:#fff;}.cls-4{fill:#4b5b6d;}.cls-5{fill:#60b4c3;}</style></defs><g id="Layer_2" data-name="Layer 2"><g id="Layer_1-2" data-name="Layer 1"><rect class="cls-1" y="13.88" width="9.25" height="9.25"/><rect class="cls-1" x="13.88" width="9.26" height="9.25"/><rect class="cls-1" x="27.76" width="9.25" height="9.25"/><rect class="cls-1" x="13.88" y="13.88" width="9.25" height="9.25"/><rect class="cls-1" x="27.76" y="13.88" width="9.25" height="9.25"/><rect class="cls-1" x="41.64" y="13.88" width="9.25" height="9.25"/><rect class="cls-1" x="55.52" y="13.88" width="9.25" height="9.25"/><rect class="cls-1" x="13.88" y="27.76" width="9.25" height="9.25"/><rect class="cls-1" x="27.76" y="27.76" width="9.25" height="9.25"/><rect class="cls-1" x="41.64" y="27.76" width="9.25" height="9.25"/><rect class="cls-1" x="55.52" y="27.76" width="9.25" height="9.25"/><rect class="cls-1" x="69.4" y="27.76" width="9.25" height="9.25"/><rect class="cls-1" x="83.28" y="27.76" width="9.25" height="9.25"/><rect class="cls-1" x="97.16" y="27.76" width="9.25" height="9.25"/><rect class="cls-1" x="111.04" y="27.76" width="9.25" height="9.25"/><rect class="cls-1" x="124.92" y="27.76" width="9.25" height="9.25"/><rect class="cls-1" x="138.8" y="27.76" width="9.25" height="9.25"/><rect class="cls-1" x="152.68" y="27.76" width="9.25" height="9.25"/><rect class="cls-1" x="13.88" y="41.64" width="9.25" height="9.26"/><rect class="cls-1" x="27.76" y="41.64" width="9.25" height="9.26"/><rect class="cls-1" x="55.52" y="41.64" width="9.25" height="9.26"/><rect class="cls-1" x="69.4" y="41.64" width="9.25" height="9.26"/><rect class="cls-1" x="83.28" y="41.64" width="9.25" height="9.26"/><rect class="cls-1" x="97.16" y="41.64" width="9.25" height="9.26"/><rect class="cls-1" x="111.04" y="41.64" width="9.25" height="9.26"/><rect class="cls-1" x="124.92" y="41.64" width="9.25" height="9.26"/><rect class="cls-1" x="138.8" y="41.64" width="9.25" height="9.26"/><rect class="cls-1" x="152.68" y="41.64" width="9.25" height="9.26"/><rect class="cls-1" x="166.57" y="41.64" width="9.25" height="9.26"/><rect class="cls-1" x="27.76" y="55.52" width="9.25" height="9.25"/><rect class="cls-1" x="41.64" y="55.52" width="9.25" height="9.25"/><rect class="cls-1" x="69.4" y="55.52" width="9.25" height="9.25"/><rect class="cls-1" x="83.28" y="55.52" width="9.25" height="9.25"/><rect class="cls-1" x="97.16" y="55.52" width="9.25" height="9.25"/><rect class="cls-1" x="111.04" y="55.52" width="9.25" height="9.25"/><rect class="cls-1" x="124.92" y="55.52" width="9.25" height="9.25"/><rect class="cls-1" x="138.8" y="55.52" width="9.25" height="9.25"/><rect class="cls-1" x="152.68" y="55.52" width="9.25" height="9.25"/><rect class="cls-1" x="166.57" y="55.52" width="9.25" height="9.25"/><rect class="cls-1" x="208.21" y="55.52" width="9.25" height="9.25"/><rect class="cls-1" x="222.09" y="55.52" width="9.25" height="9.25"/><rect class="cls-1" x="41.64" y="69.4" width="9.25" height="9.25"/><rect class="cls-1" x="55.52" y="69.4" width="9.25" height="9.25"/><rect class="cls-1" x="69.4" y="69.4" width="9.25" height="9.25"/><rect class="cls-1" x="83.28" y="69.4" width="9.25" height="9.25"/><rect class="cls-1" x="97.16" y="69.4" width="9.25" height="9.25"/><rect class="cls-1" x="111.04" y="69.4" width="9.25" height="9.25"/><rect class="cls-1" x="124.92" y="69.4" width="9.25" height="9.25"/><rect class="cls-1" x="138.8" y="69.4" width="9.25" height="9.25"/><rect class="cls-1" x="152.68" y="69.4" width="9.25" height="9.25"/><rect class="cls-1" x="166.57" y="69.4" width="9.25" height="9.25"/><rect class="cls-1" x="180.45" y="69.4" width="9.25" height="9.25"/><rect class="cls-1" x="194.33" y="69.4" width="9.25" height="9.25"/><rect class="cls-1" x="208.21" y="69.4" width="9.25" height="9.25"/><rect class="cls-1" x="222.09" y="69.4" width="9.25" height="9.25"/><rect class="cls-1" x="27.76" y="83.28" width="9.25" height="9.25"/><rect class="cls-1" x="41.64" y="83.28" width="9.25" height="9.25"/><rect class="cls-1" x="55.52" y="83.28" width="9.25" height="9.25"/><rect class="cls-1" x="83.28" y="83.28" width="9.25" height="9.25"/><rect class="cls-1" x="97.16" y="83.28" width="9.25" height="9.25"/><rect class="cls-1" x="111.04" y="83.28" width="9.25" height="9.25"/><rect class="cls-1" x="124.92" y="83.28" width="9.25" height="9.25"/><rect class="cls-1" x="138.8" y="83.28" width="9.25" height="9.25"/><rect class="cls-1" x="152.68" y="83.28" width="9.25" height="9.25"/><rect class="cls-1" x="166.57" y="83.28" width="9.25" height="9.25"/><rect class="cls-1" x="180.45" y="83.28" width="9.25" height="9.25"/><rect class="cls-1" x="194.33" y="83.28" width="9.25" height="9.25"/><rect class="cls-1" x="208.21" y="83.28" width="9.25" height="9.25"/><rect class="cls-1" x="222.09" y="83.28" width="9.25" height="9.25"/><rect class="cls-1" x="235.97" y="83.28" width="9.25" height="9.25"/><rect class="cls-1" x="41.64" y="97.16" width="9.25" height="9.26"/><rect class="cls-1" x="55.52" y="97.16" width="9.25" height="9.26"/><rect class="cls-1" x="69.4" y="97.16" width="9.25" height="9.26"/><rect class="cls-1" x="97.16" y="97.16" width="9.25" height="9.26"/><rect class="cls-1" x="111.04" y="97.16" width="9.25" height="9.26"/><rect class="cls-1" x="124.92" y="97.16" width="9.25" height="9.26"/><rect class="cls-1" x="138.8" y="97.16" width="9.25" height="9.26"/><rect class="cls-1" x="152.68" y="97.16" width="9.25" height="9.26"/><rect class="cls-1" x="166.57" y="97.16" width="9.25" height="9.26"/><rect class="cls-1" x="180.45" y="97.16" width="9.25" height="9.26"/><rect class="cls-1" x="194.33" y="97.16" width="9.25" height="9.26"/><rect class="cls-1" x="208.21" y="97.16" width="9.25" height="9.26"/><rect class="cls-1" x="222.09" y="97.16" width="9.25" height="9.26"/><rect class="cls-1" x="235.97" y="97.16" width="9.25" height="9.26"/><rect class="cls-1" x="55.52" y="111.04" width="9.25" height="9.25"/><rect class="cls-1" x="69.4" y="111.04" width="9.25" height="9.25"/><rect class="cls-1" x="111.04" y="111.04" width="9.25" height="9.25"/><rect class="cls-1" x="124.92" y="111.04" width="9.25" height="9.25"/><rect class="cls-1" x="138.8" y="111.04" width="9.25" height="9.25"/><rect class="cls-1" x="152.68" y="111.04" width="9.25" height="9.25"/><rect class="cls-1" x="166.57" y="111.04" width="9.25" height="9.25"/><rect class="cls-1" x="180.45" y="111.04" width="9.25" height="9.25"/><rect class="cls-1" x="194.33" y="111.04" width="9.25" height="9.25"/><rect class="cls-1" x="208.21" y="111.04" width="9.25" height="9.25"/><rect class="cls-1" x="222.09" y="111.04" width="9.25" height="9.25"/><rect class="cls-1" x="235.97" y="111.04" width="9.25" height="9.25"/><rect class="cls-1" x="249.85" y="111.04" width="9.25" height="9.25"/><rect class="cls-1" x="263.73" y="111.04" width="9.25" height="9.25"/><rect class="cls-1" x="69.4" y="124.92" width="9.25" height="9.25"/><rect class="cls-1" x="83.28" y="124.92" width="9.25" height="9.25"/><rect class="cls-1" x="111.04" y="124.92" width="9.25" height="9.25"/><rect class="cls-1" x="124.92" y="124.92" width="9.25" height="9.25"/><rect class="cls-1" x="138.8" y="124.92" width="9.25" height="9.25"/><rect class="cls-1" x="152.68" y="124.92" width="9.25" height="9.25"/><rect class="cls-1" x="166.57" y="124.92" width="9.25" height="9.25"/><rect class="cls-1" x="180.45" y="124.92" width="9.25" height="9.25"/><rect class="cls-1" x="194.33" y="124.92" width="9.25" height="9.25"/><rect class="cls-1" x="208.21" y="124.92" width="9.25" height="9.25"/><rect class="cls-1" x="222.09" y="124.92" width="9.25" height="9.25"/><rect class="cls-1" x="235.97" y="124.92" width="9.25" height="9.25"/><rect class="cls-1" x="249.85" y="124.92" width="9.25" height="9.25"/><rect class="cls-1" x="263.73" y="124.92" width="9.25" height="9.25"/><rect class="cls-1" x="277.61" y="124.92" width="9.25" height="9.25"/><rect class="cls-1" x="69.4" y="138.81" width="9.25" height="9.25"/><rect class="cls-1" x="83.28" y="138.81" width="9.25" height="9.25"/><rect class="cls-1" x="124.92" y="138.81" width="9.25" height="9.25"/><rect class="cls-1" x="138.8" y="138.81" width="9.25" height="9.25"/><rect class="cls-1" x="152.68" y="138.81" width="9.25" height="9.25"/><rect class="cls-1" x="166.57" y="138.81" width="9.25" height="9.25"/><rect class="cls-1" x="180.45" y="138.81" width="9.25" height="9.25"/><rect class="cls-1" x="194.33" y="138.81" width="9.25" height="9.25"/><rect class="cls-1" x="208.21" y="138.81" width="9.25" height="9.25"/><rect class="cls-1" x="222.09" y="138.81" width="9.25" height="9.25"/><rect class="cls-1" x="235.97" y="138.81" width="9.25" height="9.25"/><rect class="cls-1" x="249.85" y="138.81" width="9.25" height="9.25"/><rect class="cls-1" x="263.73" y="138.81" width="9.25" height="9.25"/><rect class="cls-1" x="83.28" y="152.69" width="9.25" height="9.25"/><rect class="cls-1" x="97.16" y="152.69" width="9.25" height="9.25"/><rect class="cls-1" x="138.8" y="152.69" width="9.25" height="9.25"/><rect class="cls-1" x="152.68" y="152.69" width="9.25" height="9.25"/><rect class="cls-1" x="166.57" y="152.69" width="9.25" height="9.25"/><rect class="cls-1" x="180.45" y="152.69" width="9.25" height="9.25"/><rect class="cls-1" x="194.33" y="152.69" width="9.25" height="9.25"/><rect class="cls-1" x="208.21" y="152.69" width="9.25" height="9.25"/><rect class="cls-1" x="222.09" y="152.69" width="9.25" height="9.25"/><rect class="cls-1" x="235.97" y="152.69" width="9.25" height="9.25"/><rect class="cls-1" x="249.85" y="152.69" width="9.25" height="9.25"/><rect class="cls-1" x="263.73" y="152.69" width="9.25" height="9.25"/><rect class="cls-1" x="97.16" y="166.57" width="9.25" height="9.25"/><rect class="cls-1" x="152.68" y="166.57" width="9.25" height="9.25"/><rect class="cls-1" x="166.57" y="166.57" width="9.25" height="9.25"/><rect class="cls-1" x="180.45" y="166.57" width="9.25" height="9.25"/><rect class="cls-1" x="194.33" y="166.57" width="9.25" height="9.25"/><rect class="cls-1" x="208.21" y="166.57" width="9.25" height="9.25"/><rect class="cls-1" x="222.09" y="166.57" width="9.25" height="9.25"/><rect class="cls-1" x="235.97" y="166.57" width="9.25" height="9.25"/><rect class="cls-1" x="249.85" y="166.57" width="9.25" height="9.25"/><rect class="cls-1" x="263.73" y="166.57" width="9.25" height="9.25"/><rect class="cls-1" x="166.57" y="180.45" width="9.25" height="9.25"/><rect class="cls-1" x="180.45" y="180.45" width="9.25" height="9.25"/><rect class="cls-1" x="194.33" y="180.45" width="9.25" height="9.25"/><rect class="cls-1" x="208.21" y="180.45" width="9.25" height="9.25"/><rect class="cls-1" x="222.09" y="180.45" width="9.25" height="9.25"/><rect class="cls-1" x="235.97" y="180.45" width="9.25" height="9.25"/><rect class="cls-1" x="249.85" y="180.45" width="9.25" height="9.25"/><rect class="cls-1" x="263.73" y="180.45" width="9.25" height="9.25"/><rect class="cls-1" x="166.57" y="194.33" width="9.25" height="9.25"/><rect class="cls-1" x="180.45" y="194.33" width="9.25" height="9.25"/><rect class="cls-1" x="194.33" y="194.33" width="9.25" height="9.25"/><rect class="cls-1" x="208.21" y="194.33" width="9.25" height="9.25"/><rect class="cls-1" x="222.09" y="194.33" width="9.25" height="9.25"/><rect class="cls-1" x="235.97" y="194.33" width="9.25" height="9.25"/><rect class="cls-1" x="249.85" y="194.33" width="9.25" height="9.25"/><rect class="cls-1" x="263.73" y="194.33" width="9.25" height="9.25"/><rect class="cls-1" x="277.61" y="194.33" width="9.25" height="9.25"/><rect class="cls-1" x="374.77" y="194.33" width="9.25" height="9.25"/><rect class="cls-1" x="388.65" y="194.33" width="9.25" height="9.25"/><rect class="cls-1" x="402.54" y="194.33" width="9.25" height="9.25"/><rect class="cls-1" x="416.42" y="194.33" width="9.25" height="9.25"/><rect class="cls-1" x="166.57" y="208.21" width="9.25" height="9.25"/><rect class="cls-1" x="180.45" y="208.21" width="9.25" height="9.25"/><rect class="cls-1" x="194.33" y="208.21" width="9.25" height="9.25"/><rect class="cls-1" x="208.21" y="208.21" width="9.25" height="9.25"/><rect class="cls-1" x="222.09" y="208.21" width="9.25" height="9.25"/><rect class="cls-1" x="235.97" y="208.21" width="9.25" height="9.25"/><rect class="cls-1" x="249.85" y="208.21" width="9.25" height="9.25"/><rect class="cls-1" x="263.73" y="208.21" width="9.25" height="9.25"/><rect class="cls-1" x="277.61" y="208.21" width="9.25" height="9.25"/><rect class="cls-1" x="374.77" y="208.21" width="9.25" height="9.25"/><rect class="cls-1" x="388.65" y="208.21" width="9.25" height="9.25"/><rect class="cls-1" x="402.54" y="208.21" width="9.25" height="9.25"/><rect class="cls-1" x="416.42" y="208.21" width="9.25" height="9.25"/><rect class="cls-1" x="166.57" y="222.09" width="9.25" height="9.25"/><rect class="cls-1" x="180.45" y="222.09" width="9.25" height="9.25"/><rect class="cls-1" x="194.33" y="222.09" width="9.25" height="9.25"/><rect class="cls-1" x="208.21" y="222.09" width="9.25" height="9.25"/><rect class="cls-1" x="222.09" y="222.09" width="9.25" height="9.25"/><rect class="cls-1" x="235.97" y="222.09" width="9.25" height="9.25"/><rect class="cls-1" x="249.85" y="222.09" width="9.25" height="9.25"/><rect class="cls-1" x="263.73" y="222.09" width="9.25" height="9.25"/><rect class="cls-1" x="277.61" y="222.09" width="9.25" height="9.25"/><rect class="cls-1" x="291.49" y="222.09" width="9.25" height="9.25"/><rect class="cls-1" x="374.77" y="222.09" width="9.25" height="9.25"/><rect class="cls-1" x="388.65" y="222.09" width="9.25" height="9.25"/><rect class="cls-1" x="402.54" y="222.09" width="9.25" height="9.25"/><rect class="cls-1" x="180.45" y="235.97" width="9.25" height="9.25"/><rect class="cls-1" x="194.33" y="235.97" width="9.25" height="9.25"/><rect class="cls-1" x="208.21" y="235.97" width="9.25" height="9.25"/><rect class="cls-1" x="222.09" y="235.97" width="9.25" height="9.25"/><rect class="cls-1" x="235.97" y="235.97" width="9.25" height="9.25"/><rect class="cls-1" x="249.85" y="235.97" width="9.25" height="9.25"/><rect class="cls-1" x="263.73" y="235.97" width="9.25" height="9.25"/><rect class="cls-1" x="277.61" y="235.97" width="9.25" height="9.25"/><rect class="cls-1" x="291.49" y="235.97" width="9.25" height="9.25"/><rect class="cls-1" x="305.37" y="235.97" width="9.25" height="9.25"/><rect class="cls-1" x="333.13" y="235.97" width="9.25" height="9.25"/><rect class="cls-1" x="347.01" y="235.97" width="9.25" height="9.25"/><rect class="cls-1" x="360.89" y="235.97" width="9.25" height="9.25"/><rect class="cls-1" x="374.77" y="235.97" width="9.25" height="9.25"/><rect class="cls-1" x="388.65" y="235.97" width="9.25" height="9.25"/><rect class="cls-1" x="402.54" y="235.97" width="9.25" height="9.25"/><rect class="cls-1" x="208.21" y="249.85" width="9.25" height="9.26"/><rect class="cls-1" x="222.09" y="249.85" width="9.25" height="9.26"/><rect class="cls-1" x="235.97" y="249.85" width="9.25" height="9.26"/><rect class="cls-1" x="249.85" y="249.85" width="9.25" height="9.26"/><rect class="cls-1" x="263.73" y="249.85" width="9.25" height="9.26"/><rect class="cls-1" x="277.61" y="249.85" width="9.25" height="9.26"/><rect class="cls-1" x="291.49" y="249.85" width="9.25" height="9.26"/><rect class="cls-1" x="305.37" y="249.85" width="9.25" height="9.26"/><rect class="cls-1" x="319.25" y="249.85" width="9.25" height="9.26"/><rect class="cls-1" x="333.13" y="249.85" width="9.25" height="9.26"/><rect class="cls-1" x="347.01" y="249.85" width="9.25" height="9.26"/><rect class="cls-1" x="360.89" y="249.85" width="9.25" height="9.26"/><rect class="cls-1" x="374.77" y="249.85" width="9.25" height="9.26"/><rect class="cls-1" x="388.65" y="249.85" width="9.25" height="9.26"/><rect class="cls-1" x="235.97" y="263.73" width="9.25" height="9.25"/><rect class="cls-1" x="249.85" y="263.73" width="9.25" height="9.25"/><rect class="cls-2" x="389.33" y="262.88" width="9.25" height="9.26"/><rect class="cls-2" x="403.22" y="262.88" width="9.25" height="9.26"/><rect class="cls-2" x="417.1" y="262.88" width="9.25" height="9.26"/><rect class="cls-2" x="389.33" y="276.76" width="9.25" height="9.25"/><rect class="cls-2" x="403.22" y="276.76" width="9.25" height="9.25"/><rect class="cls-2" x="417.1" y="276.76" width="9.25" height="9.25"/><rect class="cls-2" x="389.33" y="290.64" width="9.25" height="9.25"/><rect class="cls-2" x="403.22" y="290.64" width="9.25" height="9.25"/><rect class="cls-2" x="417.1" y="290.64" width="9.25" height="9.25"/><rect class="cls-2" x="430.98" y="290.64" width="9.25" height="9.25"/><rect class="cls-2" x="444.86" y="290.64" width="9.25" height="9.25"/><rect class="cls-2" x="458.74" y="290.64" width="9.25" height="9.25"/><rect class="cls-2" x="389.33" y="304.52" width="9.25" height="9.25"/><rect class="cls-2" x="403.22" y="304.52" width="9.25" height="9.25"/><rect class="cls-2" x="417.1" y="304.52" width="9.25" height="9.25"/><rect class="cls-2" x="430.98" y="304.52" width="9.25" height="9.25"/><rect class="cls-2" x="444.86" y="304.52" width="9.25" height="9.25"/><rect class="cls-2" x="458.74" y="304.52" width="9.25" height="9.25"/><rect class="cls-2" x="389.33" y="318.4" width="9.25" height="9.25"/><rect class="cls-2" x="403.22" y="318.4" width="9.25" height="9.25"/><rect class="cls-2" x="417.1" y="318.4" width="9.25" height="9.25"/><rect class="cls-2" x="430.98" y="318.4" width="9.25" height="9.25"/><rect class="cls-2" x="444.86" y="318.4" width="9.25" height="9.25"/><rect class="cls-2" x="458.74" y="318.4" width="9.25" height="9.25"/><rect class="cls-2" x="403.22" y="332.28" width="9.25" height="9.25"/><rect class="cls-2" x="417.1" y="332.28" width="9.25" height="9.25"/><rect class="cls-2" x="430.98" y="332.28" width="9.25" height="9.25"/><rect class="cls-2" x="444.86" y="332.28" width="9.25" height="9.25"/><rect class="cls-2" x="458.74" y="332.28" width="9.25" height="9.25"/><rect class="cls-2" x="444.86" y="346.16" width="9.25" height="9.25"/><rect class="cls-2" x="458.74" y="346.16" width="9.25" height="9.25"/><rect class="cls-2" x="444.86" y="360.04" width="9.25" height="9.25"/><rect class="cls-2" x="458.74" y="360.04" width="9.25" height="9.25"/><rect class="cls-2" x="444.86" y="373.92" width="9.25" height="9.25"/><rect class="cls-2" x="458.74" y="373.92" width="9.25" height="9.25"/><rect class="cls-2" x="458.74" y="387.8" width="9.25" height="9.25"/><rect class="cls-2" x="471.58" y="290.64" width="9.25" height="9.25"/><rect class="cls-2" x="485.46" y="290.64" width="9.25" height="9.25"/><rect class="cls-2" x="471.58" y="304.52" width="9.25" height="9.25"/><rect class="cls-2" x="485.46" y="304.52" width="9.25" height="9.25"/><rect class="cls-2" x="471.58" y="318.4" width="9.25" height="9.25"/><rect class="cls-2" x="485.46" y="318.4" width="9.25" height="9.25"/><rect class="cls-2" x="471.58" y="332.28" width="9.25" height="9.25"/><rect class="cls-2" x="485.46" y="332.28" width="9.25" height="9.25"/><rect class="cls-2" x="471.58" y="346.16" width="9.25" height="9.25"/><rect class="cls-2" x="485.46" y="346.16" width="9.25" height="9.25"/><rect class="cls-2" x="471.58" y="360.04" width="9.25" height="9.25"/><rect class="cls-2" x="485.46" y="360.04" width="9.25" height="9.25"/><rect class="cls-2" x="471.58" y="373.92" width="9.25" height="9.25"/><rect class="cls-2" x="471.72" y="388.38" width="9.25" height="9.25"/><rect class="cls-2" x="485.46" y="373.92" width="9.25" height="9.25"/><rect class="cls-2" x="485.46" y="387.8" width="9.25" height="9.25"/><rect class="cls-2" x="485.46" y="401.68" width="9.25" height="9.25"/><rect class="cls-2" x="498.82" y="401.68" width="9.25" height="9.25"/><rect class="cls-2" x="498.82" y="388.38" width="9.25" height="9.25"/><rect class="cls-2" x="498.82" y="304.52" width="9.25" height="9.25"/><rect class="cls-2" x="361.23" y="291.49" width="9.25" height="9.25"/><rect class="cls-2" x="375.11" y="291.49" width="9.25" height="9.25"/><rect class="cls-1" x="347.35" y="305.37" width="9.25" height="9.25"/><rect class="cls-2" x="361.23" y="305.37" width="9.25" height="9.25"/><rect class="cls-2" x="375.11" y="305.37" width="9.25" height="9.25"/><rect class="cls-2" x="375.11" y="319.25" width="9.25" height="9.25"/><rect class="cls-1" x="263.73" y="263.73" width="9.25" height="9.25"/><rect class="cls-1" x="277.61" y="263.73" width="9.25" height="9.25"/><rect class="cls-1" x="291.49" y="263.73" width="9.25" height="9.25"/><rect class="cls-1" x="305.37" y="263.73" width="9.25" height="9.25"/><rect class="cls-1" x="319.25" y="263.73" width="9.25" height="9.25"/><rect class="cls-1" x="333.13" y="263.73" width="9.25" height="9.25"/><rect class="cls-1" x="347.01" y="263.73" width="9.25" height="9.25"/><rect class="cls-1" x="360.89" y="263.73" width="9.25" height="9.25"/><rect class="cls-2" x="374.77" y="263.73" width="9.25" height="9.25"/><rect class="cls-1" x="277.61" y="277.61" width="9.25" height="9.25"/><rect class="cls-1" x="291.49" y="277.61" width="9.25" height="9.25"/><rect class="cls-1" x="319.25" y="277.61" width="9.25" height="9.25"/><rect class="cls-1" x="333.13" y="277.61" width="9.25" height="9.25"/><rect class="cls-1" x="347.01" y="277.61" width="9.25" height="9.25"/><rect class="cls-1" x="360.89" y="277.61" width="9.25" height="9.25"/><rect class="cls-2" x="374.77" y="277.61" width="9.25" height="9.25"/><rect class="cls-1" x="347.01" y="291.49" width="9.25" height="9.25"/><path class="cls-1" d="M367.67,19.22A74.79,74.79,0,1,0,442.45,94a74.78,74.78,0,0,0-74.78-74.78"/><path class="cls-3" d="M361.2,96.65a1,1,0,0,1,1,1v4.75a1,1,0,0,1-1,1H339.94a1,1,0,0,1-1-1V102c0-.52,0-.62.67-1.5C343,96,350.11,86.38,353.05,81.89a7.94,7.94,0,0,0,1.34-4c0-2.07-1.7-3.88-4.64-3.88-2.17,0-3.77,1.35-5.16,2.69a1.07,1.07,0,0,1-1.5,0l-3.25-3.3a1,1,0,0,1,0-1.4c2-2.17,5.37-5.21,10.63-5.21,7.59,0,12.08,4.85,12.08,10.73,0,2.84-.78,4.39-2.07,6.87-1.65,3-6,8.62-8.46,12.12v.11Z"/><path class="cls-3" d="M366.77,85.4c0-11.66,4.91-18.58,13.58-18.58S394,73.74,394,85.4,389,104,380.35,104,366.77,97,366.77,85.4Zm19.1,0c0-7-2.27-11.05-5.52-11.05s-5.47,4.08-5.47,11.05,2.27,11.09,5.47,11.09S385.87,92.42,385.87,85.4Z"/><path class="cls-3" d="M332.06,112.85a3.73,3.73,0,0,1,2.66,1,.2.2,0,0,1,0,.31l-.67.69a.17.17,0,0,1-.27,0,2.66,2.66,0,0,0-1.7-.65,2.56,2.56,0,0,0,0,5.11,2.65,2.65,0,0,0,1.69-.63.2.2,0,0,1,.27,0l.68.71a.2.2,0,0,1,0,.29,3.76,3.76,0,0,1-2.67,1.07,4,4,0,1,1,0-7.92Z"/><path class="cls-3" d="M338,115.47a2.28,2.28,0,0,1,2.33,2.35c0,.08,0,.26,0,.33a.26.26,0,0,1-.24.23h-3.26a1.22,1.22,0,0,0,1.27,1.18,1.72,1.72,0,0,0,1.09-.37c.12-.1.25-.11.33,0l.43.57a.21.21,0,0,1,0,.33,2.87,2.87,0,0,1-1.89.69,2.66,2.66,0,0,1,0-5.31Zm1,2a.93.93,0,0,0-1-.88,1,1,0,0,0-1.08.88Z"/><path class="cls-3" d="M343.6,115.47a3.68,3.68,0,0,1,1.22.21V113.2a.26.26,0,0,1,.24-.24H346a.25.25,0,0,1,.24.24v7.27a.23.23,0,0,1-.26.23.74.74,0,0,1-.79-.63,2.23,2.23,0,0,1-1.63.71,2.66,2.66,0,0,1,.09-5.31Zm1.22,1.54a2,2,0,0,0-1.06-.29,1.42,1.42,0,0,0-.06,2.81,1.16,1.16,0,0,0,1.12-.71Z"/><path class="cls-3" d="M347.4,113.83a.88.88,0,0,1,1.75,0,.88.88,0,1,1-1.75,0Zm.2,2a.24.24,0,0,1,.24-.24h.89a.25.25,0,0,1,.25.24v4.6a.25.25,0,0,1-.25.24h-.89a.25.25,0,0,1-.24-.24Z"/><path class="cls-3" d="M350.23,120.32a.23.23,0,0,1-.07-.28l.33-.66a.19.19,0,0,1,.3-.08,2.09,2.09,0,0,0,1.12.33c.39,0,.56-.15.56-.37s-.28-.44-1-.7c-1-.38-1.42-.84-1.42-1.61s.58-1.48,1.82-1.48a2.73,2.73,0,0,1,1.51.37.28.28,0,0,1,.11.35l-.28.59a.26.26,0,0,1-.32.1,2.49,2.49,0,0,0-1-.26c-.34,0-.48.17-.48.33s.25.35.73.55c1,.4,1.68.75,1.68,1.76,0,.81-.68,1.52-2,1.52A2.83,2.83,0,0,1,350.23,120.32Z"/><path class="cls-3" d="M359.82,115.47a2.28,2.28,0,0,1,2.34,2.35c0,.08,0,.26,0,.33a.26.26,0,0,1-.24.23h-3.25a1.21,1.21,0,0,0,1.26,1.18,1.72,1.72,0,0,0,1.09-.37c.12-.1.25-.11.33,0l.43.57a.21.21,0,0,1,0,.33,2.9,2.9,0,0,1-1.9.69,2.66,2.66,0,0,1,0-5.31Zm.95,2a.93.93,0,0,0-1-.88,1,1,0,0,0-1.08.88Z"/><path class="cls-3" d="M363.19,115.76a.23.23,0,0,1,.26-.23.75.75,0,0,1,.79.66,2.13,2.13,0,0,1,1.64-.72c1.62,0,2,1.09,2,2.32v2.63a.25.25,0,0,1-.24.24h-.89a.25.25,0,0,1-.25-.24v-2.63c0-.66-.26-1.07-.88-1.07a1.12,1.12,0,0,0-1.1.79v2.91c0,.19-.07.24-.32.24h-.81a.25.25,0,0,1-.24-.24Z"/><path class="cls-3" d="M373,113a.19.19,0,0,1,.2-.16h.18a.19.19,0,0,1,.18.11l2.42,5.19h0l2.42-5.19a.18.18,0,0,1,.18-.11h.18a.19.19,0,0,1,.2.16l1.3,7.4a.19.19,0,0,1-.2.25h-1a.24.24,0,0,1-.21-.16l-.65-4.17h0l-1.93,4.32a.2.2,0,0,1-.19.12h-.19a.21.21,0,0,1-.19-.12l-1.95-4.32h0l-.64,4.17a.22.22,0,0,1-.2.16h-1a.2.2,0,0,1-.21-.25Z"/><path class="cls-3" d="M383.63,115.47a2.28,2.28,0,0,1,2.33,2.35c0,.08,0,.26,0,.33a.27.27,0,0,1-.25.23h-3.25a1.22,1.22,0,0,0,1.26,1.18,1.72,1.72,0,0,0,1.09-.37c.12-.1.26-.11.33,0l.43.57a.21.21,0,0,1,0,.33,2.89,2.89,0,0,1-1.89.69,2.66,2.66,0,0,1,0-5.31Zm-1.13-1.16,1.86-1.23c.19-.12.46,0,.6.26s.13.57-.06.65l-2,.94c-.12,0-.28-.05-.37-.21S382.43,114.37,382.5,114.31Zm2.07,3.17a.93.93,0,0,0-1-.88,1,1,0,0,0-1.07.88Z"/><path class="cls-3" d="M386.53,120.29l1.62-2.21L386.6,116a.22.22,0,0,1,.17-.37h1a.44.44,0,0,1,.42.17l.85,1.33h0l.87-1.33a.4.4,0,0,1,.38-.17h1.08c.22,0,.28.21.15.37l-1.57,2.1,1.58,2.24c.12.16.06.37-.15.37h-1a.38.38,0,0,1-.35-.21l-.94-1.4h0l-1,1.51a.28.28,0,0,1-.21.1h-1.15C386.48,120.66,386.42,120.45,386.53,120.29Z"/><path class="cls-3" d="M392.39,113.83a.88.88,0,0,1,1.75,0,.88.88,0,1,1-1.75,0Zm.2,2a.24.24,0,0,1,.24-.24h.89a.25.25,0,0,1,.25.24v4.6a.26.26,0,0,1-.25.24h-.89a.25.25,0,0,1-.24-.24Z"/><path class="cls-3" d="M397.76,115.47a2.5,2.5,0,0,1,1.89.86c.11.11.06.25,0,.36l-.46.5c-.11.13-.24.07-.33,0a1.41,1.41,0,0,0-1-.44,1.41,1.41,0,0,0,0,2.81,1.36,1.36,0,0,0,1.08-.56.25.25,0,0,1,.32,0l.5.42c.12.11.17.23.08.36a2.28,2.28,0,0,1-2,1.07,2.66,2.66,0,1,1,0-5.31Z"/><path class="cls-3" d="M403,115.47a2.66,2.66,0,1,1-2.6,2.64A2.64,2.64,0,0,1,403,115.47Zm0,4.06a1.38,1.38,0,0,0,1.33-1.42,1.36,1.36,0,0,0-1.33-1.39,1.35,1.35,0,0,0-1.32,1.39A1.37,1.37,0,0,0,403,119.53Z"/><path class="cls-4" d="M367.67,169a75,75,0,1,1,75-75A75.08,75.08,0,0,1,367.67,169Zm0-149.57A74.57,74.57,0,1,0,442.24,94,74.65,74.65,0,0,0,367.67,19.43Z"/><path class="cls-5" d="M367.67,355.22A74.79,74.79,0,1,0,442.45,430a74.78,74.78,0,0,0-74.78-74.78"/><path class="cls-3" d="M350.53,412.23a1,1,0,0,1-.93-1v-3.35a1,1,0,0,1,.31-.78l6.91-5.42a3,3,0,0,1,1.86-.62h3.87a1,1,0,0,1,1,1v34.12a1,1,0,0,1-1,1h-5.88a1,1,0,0,1-1-1v-23.9Z"/><path class="cls-3" d="M369,412.23a1,1,0,0,1-.93-1v-3.35a1,1,0,0,1,.31-.78l6.92-5.42a3,3,0,0,1,1.85-.62H381a1,1,0,0,1,1,1v34.12a1,1,0,0,1-1,1h-5.88a1,1,0,0,1-1-1v-23.9Z"/><path class="cls-3" d="M313.82,446.55a3.71,3.71,0,0,1,2.66,1,.2.2,0,0,1,0,.31l-.67.69a.17.17,0,0,1-.27,0,2.59,2.59,0,0,0-1.7-.65,2.56,2.56,0,0,0,0,5.11,2.65,2.65,0,0,0,1.68-.63.19.19,0,0,1,.27,0l.69.7a.22.22,0,0,1,0,.3,3.74,3.74,0,0,1-2.67,1.07,4,4,0,1,1,0-7.92Z"/><path class="cls-3" d="M319.78,449.17a2.28,2.28,0,0,1,2.34,2.35,1.84,1.84,0,0,1,0,.33.26.26,0,0,1-.24.23H318.6a1.21,1.21,0,0,0,1.26,1.18,1.66,1.66,0,0,0,1.09-.38c.12-.09.25-.11.33,0l.43.58a.21.21,0,0,1,0,.33,2.9,2.9,0,0,1-1.9.69,2.66,2.66,0,0,1,0-5.31Zm1,2a.93.93,0,0,0-1-.88,1,1,0,0,0-1.08.88Z"/><path class="cls-3" d="M325.36,449.17a4,4,0,0,1,1.22.2V446.9a.26.26,0,0,1,.24-.24h.89a.25.25,0,0,1,.25.24v7.27a.24.24,0,0,1-.27.23.75.75,0,0,1-.79-.64,2.18,2.18,0,0,1-1.63.72,2.66,2.66,0,0,1,.09-5.31Zm1.22,1.54a2,2,0,0,0-1.06-.29,1.42,1.42,0,0,0-.06,2.81,1.16,1.16,0,0,0,1.12-.71Z"/><path class="cls-3" d="M329.17,447.53a.85.85,0,0,1,.86-.87.86.86,0,0,1,.88.87.87.87,0,0,1-.88.88A.86.86,0,0,1,329.17,447.53Zm.19,2a.24.24,0,0,1,.25-.24h.89a.24.24,0,0,1,.24.24v4.6a.25.25,0,0,1-.24.24h-.89a.25.25,0,0,1-.25-.24Z"/><path class="cls-3" d="M332,454a.23.23,0,0,1-.06-.28l.33-.66a.19.19,0,0,1,.29-.09,2,2,0,0,0,1.13.33c.38,0,.56-.14.56-.36s-.29-.44-1-.7c-1-.38-1.42-.84-1.42-1.61s.58-1.48,1.83-1.48a2.72,2.72,0,0,1,1.5.37.28.28,0,0,1,.11.35l-.28.58a.24.24,0,0,1-.32.1,2.45,2.45,0,0,0-1-.25c-.34,0-.49.17-.49.33s.26.35.73.55c1,.4,1.68.75,1.68,1.76,0,.8-.68,1.52-2,1.52A2.86,2.86,0,0,1,332,454Z"/><path class="cls-3" d="M341.58,449.17a2.28,2.28,0,0,1,2.34,2.35c0,.08,0,.25,0,.33a.27.27,0,0,1-.25.23H340.4a1.22,1.22,0,0,0,1.26,1.18,1.66,1.66,0,0,0,1.09-.38c.12-.09.25-.11.33,0l.43.58a.21.21,0,0,1,0,.33,2.89,2.89,0,0,1-1.89.69,2.66,2.66,0,0,1,0-5.31Zm.95,2a.93.93,0,0,0-1-.88,1,1,0,0,0-1.08.88Z"/><path class="cls-3" d="M345,449.46a.23.23,0,0,1,.26-.23.76.76,0,0,1,.8.66,2.08,2.08,0,0,1,1.64-.72c1.61,0,2,1.08,2,2.32v2.63a.25.25,0,0,1-.24.24h-.89a.24.24,0,0,1-.24-.24v-2.63c0-.66-.27-1.07-.88-1.07a1.14,1.14,0,0,0-1.11.79v2.91c0,.18-.07.24-.31.24h-.82a.25.25,0,0,1-.24-.24Z"/><path class="cls-3" d="M357.42,446.55a3.75,3.75,0,0,1,2.67,1,.2.2,0,0,1,0,.31l-.67.69a.18.18,0,0,1-.28,0,2.59,2.59,0,0,0-1.69-.65,2.56,2.56,0,0,0,0,5.11,2.65,2.65,0,0,0,1.68-.63.2.2,0,0,1,.28,0l.68.7a.22.22,0,0,1,0,.3,3.78,3.78,0,0,1-2.68,1.07,4,4,0,1,1,0-7.92Z"/><path class="cls-3" d="M363.37,449.17a2.28,2.28,0,0,1,2.34,2.35c0,.08,0,.25,0,.33a.27.27,0,0,1-.25.23h-3.25a1.22,1.22,0,0,0,1.26,1.18,1.66,1.66,0,0,0,1.09-.38c.12-.09.25-.11.33,0l.43.58a.21.21,0,0,1,0,.33,2.89,2.89,0,0,1-1.89.69,2.66,2.66,0,0,1,0-5.31Zm.95,2a.93.93,0,0,0-1-.88,1,1,0,0,0-1.08.88Z"/><path class="cls-3" d="M366.74,449.46a.23.23,0,0,1,.26-.23.76.76,0,0,1,.8.66,2.08,2.08,0,0,1,1.64-.72c1.61,0,2,1.08,2,2.32v2.63a.25.25,0,0,1-.24.24h-.89a.24.24,0,0,1-.24-.24v-2.63c0-.66-.27-1.07-.88-1.07a1.12,1.12,0,0,0-1.1.79v2.91c0,.18-.08.24-.32.24H367a.25.25,0,0,1-.24-.24Z"/><path class="cls-3" d="M372.63,450.51a.23.23,0,0,1-.23-.24v-.75a.22.22,0,0,1,.23-.24h.49v-1.41a.26.26,0,0,1,.24-.25h.91a.24.24,0,0,1,.23.25v1.41h1.18a.23.23,0,0,1,.25.24v.75a.25.25,0,0,1-.25.24H374.5v2c0,.5.22.7.53.7a2.15,2.15,0,0,0,.65-.12.19.19,0,0,1,.29.13l.14.66a.25.25,0,0,1-.14.3,2.84,2.84,0,0,1-1.17.26,1.62,1.62,0,0,1-1.68-1.83v-2.14Z"/><path class="cls-3" d="M377.07,449.46a.23.23,0,0,1,.26-.23.78.78,0,0,1,.81.69,1.77,1.77,0,0,1,1.42-.75c.6,0,1.1.16.95.49l-.33.75a.21.21,0,0,1-.29.11,1,1,0,0,0-.48-.1,1.1,1.1,0,0,0-1,.53v3.17c0,.18-.12.24-.28.24h-.85a.25.25,0,0,1-.24-.24Z"/><path class="cls-3" d="M383.48,449.17a2.66,2.66,0,1,1-2.59,2.64A2.64,2.64,0,0,1,383.48,449.17Zm0,4.06a1.38,1.38,0,0,0,1.33-1.42,1.33,1.33,0,1,0-2.65,0A1.37,1.37,0,0,0,383.48,453.23Z"/><path class="cls-3" d="M388.85,451.15a3.79,3.79,0,0,1,1,.14.88.88,0,0,0-1-1,4.22,4.22,0,0,0-1.18.19c-.16.05-.26-.07-.28-.22l-.11-.57a.23.23,0,0,1,.16-.31,4.86,4.86,0,0,1,1.49-.25,2,2,0,0,1,2.17,2.21v2.79a.24.24,0,0,1-.27.23.76.76,0,0,1-.76-.51,2.26,2.26,0,0,1-1.55.59,1.61,1.61,0,0,1-1.71-1.74C386.83,451.84,387.56,451.15,388.85,451.15Zm0,2.31a1.13,1.13,0,0,0,.92-.54v-.75a2,2,0,0,0-.75-.16c-.58,0-.9.28-.9.73A.67.67,0,0,0,388.88,453.46Z"/><path class="cls-3" d="M392.48,449.46a.23.23,0,0,1,.26-.23.78.78,0,0,1,.8.64,1.92,1.92,0,0,1,1.52-.7,1.71,1.71,0,0,1,1.52.77,2.18,2.18,0,0,1,1.64-.77c1.63,0,2,1,2,2.35v2.6a.25.25,0,0,1-.26.24h-.88a.24.24,0,0,1-.24-.24v-2.63c0-.66-.24-1.07-.88-1.07a1,1,0,0,0-1,.53,4.69,4.69,0,0,1,0,.48v2.69a.25.25,0,0,1-.25.24h-.9a.24.24,0,0,1-.24-.24v-2.63c0-.66-.19-1.07-.84-1.07a1,1,0,0,0-1,.79v2.91a.26.26,0,0,1-.25.24h-.89a.25.25,0,0,1-.24-.24Z"/><path class="cls-3" d="M403.84,449.17a2.28,2.28,0,0,1,2.34,2.35,1.84,1.84,0,0,1,0,.33.26.26,0,0,1-.24.23h-3.25a1.21,1.21,0,0,0,1.26,1.18,1.66,1.66,0,0,0,1.09-.38c.12-.09.25-.11.33,0l.43.58a.21.21,0,0,1,0,.33,2.89,2.89,0,0,1-1.89.69,2.66,2.66,0,0,1,0-5.31ZM402.72,448l1.86-1.23c.19-.12.46,0,.6.26s.13.56-.06.65l-2,.94c-.12.05-.27-.05-.36-.21S402.64,448.07,402.72,448Zm2.07,3.17a.93.93,0,0,0-1-.88,1,1,0,0,0-1.08.88Z"/><path class="cls-3" d="M407.21,449.46a.23.23,0,0,1,.26-.23.78.78,0,0,1,.81.69,1.75,1.75,0,0,1,1.41-.75c.61,0,1.11.16,1,.49l-.33.75a.22.22,0,0,1-.3.11.94.94,0,0,0-.47-.1,1.1,1.1,0,0,0-1,.53v3.17c0,.18-.12.24-.28.24h-.85a.25.25,0,0,1-.24-.24Z"/><path class="cls-3" d="M411.27,447.53a.85.85,0,0,1,.87-.87.87.87,0,0,1,.88.87.88.88,0,0,1-.88.88A.87.87,0,0,1,411.27,447.53Zm.2,2a.24.24,0,0,1,.24-.24h.89a.24.24,0,0,1,.24.24v4.6a.25.25,0,0,1-.24.24h-.89a.25.25,0,0,1-.24-.24Z"/><path class="cls-3" d="M416.64,449.17a2.54,2.54,0,0,1,1.89.85c.11.11.05.26-.06.37l-.46.5c-.11.12-.23.07-.33,0a1.39,1.39,0,0,0-1-.44,1.41,1.41,0,1,0,1.07,2.24.24.24,0,0,1,.32,0l.49.42c.12.11.18.23.09.36a2.28,2.28,0,0,1-2,1.07,2.66,2.66,0,1,1,0-5.31Z"/><path class="cls-3" d="M421.29,451.15a3.79,3.79,0,0,1,1,.14.88.88,0,0,0-1-1,4.22,4.22,0,0,0-1.18.19c-.16.05-.26-.07-.28-.22l-.11-.57a.23.23,0,0,1,.16-.31,4.79,4.79,0,0,1,1.49-.25,2,2,0,0,1,2.17,2.21v2.79a.24.24,0,0,1-.27.23.75.75,0,0,1-.76-.51,2.28,2.28,0,0,1-1.55.59,1.61,1.61,0,0,1-1.71-1.74C419.27,451.84,420,451.15,421.29,451.15Zm0,2.31a1.09,1.09,0,0,0,.91-.54v-.75a1.94,1.94,0,0,0-.74-.16c-.59,0-.91.28-.91.73A.68.68,0,0,0,421.32,453.46Z"/><path class="cls-4" d="M367.67,505a75,75,0,1,1,75-75A75.08,75.08,0,0,1,367.67,505Zm0-149.57A74.57,74.57,0,1,0,442.24,430,74.65,74.65,0,0,0,367.67,355.43Z"/></g></g></svg>