<svg xmlns="http://www.w3.org/2000/svg" viewBox="0 0 29.89 29.89"><defs><style>.cls-1{fill:#0071ce;}.cls-2{fill:#ffb71b;}</style></defs><g id="Layer_2" data-name="Layer 2"><g id="Layer_1-2" data-name="Layer 1"><circle class="cls-1" cx="14.95" cy="14.95" r="14.95"/><path class="cls-2" d="M16.84,24.14h0s.07,0,.07-.05,0-.05-.07-.05h0Zm0,.17h-.07V24h.12A.27.27,0,0,1,17,24a.15.15,0,0,1,0,.07s0,.06-.07.08h0s.05,0,.06.08l0,.07H17l0-.07s0,0-.07,0h0Zm.05-.41a.25.25,0,1,0,.24.25.24.24,0,0,0-.24-.25Zm0-.06a.31.31,0,0,1,.32.31.32.32,0,0,1-.32.32.32.32,0,0,1-.33-.32.32.32,0,0,1,.33-.31Z"/><path class="cls-2" d="M12.42,13.48a.75.75,0,0,0,0-1L8.57,9.8c-.4-.24-1,0-1.35.63a1.09,1.09,0,0,0,.11,1.48l4.25,2a.77.77,0,0,0,.84-.45Z"/><path class="cls-2" d="M12.4,16.41a.75.75,0,0,1,0,.95L8.49,20c-.4.23-1-.05-1.34-.65s-.27-1.25.13-1.48L11.57,16a.76.76,0,0,1,.83.46Z"/><path class="cls-2" d="M14.92,17.86a.77.77,0,0,1,.81.5l.38,4.69c0,.47-.55.84-1.24.84s-1.22-.39-1.21-.86l.45-4.68a.75.75,0,0,1,.81-.49Z"/><path class="cls-2" d="M17.47,16.45a.75.75,0,0,1,.84-.44l4.25,2c.4.24.45.9.11,1.49s-1,.86-1.35.63L17.49,17.4a.77.77,0,0,1,0-.95Z"/><path class="cls-2" d="M17.49,13.52a.77.77,0,0,0,.84.46l4.28-2a1.09,1.09,0,0,0,.13-1.48c-.34-.6-.94-.88-1.34-.65l-3.87,2.67a.78.78,0,0,0,0,.95Z"/><path class="cls-2" d="M15,12c.43,0,.77-.21.82-.49l.45-4.69C16.24,6.4,15.7,6,15,6s-1.22.37-1.23.83l.38,4.69A.78.78,0,0,0,15,12Z"/></g></g></svg>