<svg xmlns="http://www.w3.org/2000/svg" viewBox="0 0 29.89 29.89"><defs><style>.cls-1{fill:#3dae2b;}.cls-2{fill:#feda00;}.cls-3{fill:#df1f26;}.cls-4{fill:#fff;}</style></defs><g id="Layer_2" data-name="Layer 2"><g id="Layer_1-2" data-name="Layer 1"><circle class="cls-1" cx="14.95" cy="14.95" r="14.95"/><path class="cls-2" d="M15.2,14.12l6.41,7.54s.87.72.87-.59V18.7c0-.9.08-1.8,0-2.69a6.29,6.29,0,0,0-1.18-2.76,8.12,8.12,0,0,0-2.19-2.4s-.77-.47-1.85.82L15.2,14.12"/><path class="cls-3" d="M8.45,21.37,9,20.68l1.5-1.77c.65-.78,1.3-1.55,2-2.32l2.1-2.47c.74-.87,1.5-1.74,2.25-2.6.51-.58,1.19-1.56,2.09-1.12.41.19,1.24,1.16,1.38,1.18s-.9-1.06-1.08-1.27L16.46,7.1c-.11-.14-.23-.27-.34-.4a1.42,1.42,0,0,0-2.23,0c-1.22,1.22-4.13,4.89-4.13,4.89s-2.15,2.87-2.3,3.81a15.4,15.4,0,0,0-.06,2.54c0,.9,0,1.8,0,2.7,0,.61.4,1.43,1,.73"/><path class="cls-4" d="M22.51,6.76a.62.62,0,1,1-.61-.61A.61.61,0,0,1,22.51,6.76Zm-1.09,0a.47.47,0,0,0,.48.48.46.46,0,0,0,.46-.48.47.47,0,0,0-.47-.48A.47.47,0,0,0,21.42,6.76Zm.38.31h-.14v-.6l.23,0a.3.3,0,0,1,.2,0,.14.14,0,0,1,.07.13.16.16,0,0,1-.13.14h0c.06,0,.09.07.11.15a.64.64,0,0,0,0,.14H22A.42.42,0,0,1,22,6.93c0-.07,0-.1-.13-.1H21.8Zm0-.34h.07c.07,0,.14,0,.14-.08s0-.1-.13-.1H21.8Z"/></g></g></svg>