<svg id="Capa_1" data-name="Capa 1" xmlns="http://www.w3.org/2000/svg" viewBox="0 0 984.4 167.99"><defs><style>.cls-1{opacity:0.6;}.cls-2{fill:#fff;}</style></defs><g class="cls-1"><path class="cls-2" d="M39.61,2.72a35.39,35.39,0,0,1,25.31,9.72,1.94,1.94,0,0,1,.1,2.93L58.64,22A1.68,1.68,0,0,1,56,22a24.73,24.73,0,0,0-16.1-6.17C26.54,15.79,16.61,27,16.61,40.15S26.65,64.3,40,64.3a25.12,25.12,0,0,0,16-5.95,1.91,1.91,0,0,1,2.61,0L65.13,65A2,2,0,0,1,65,67.86,35.89,35.89,0,0,1,39.61,78a37.64,37.64,0,1,1,0-75.28Z"/><path class="cls-2" d="M83.31,5.75a2,2,0,0,1,2-2h9.62a2.06,2.06,0,0,1,2,2V64.41h26.67a2,2,0,0,1,2,2V75a2,2,0,0,1-2,2H85.3a2,2,0,0,1-2-2Z"/><path class="cls-2" d="M141.34,5.75a2.06,2.06,0,0,1,2-2h9.73a2.07,2.07,0,0,1,2,2V75a2.06,2.06,0,0,1-2,2h-9.73a2.05,2.05,0,0,1-2-2Z"/><path class="cls-2" d="M178,5.75a2,2,0,0,1,2-2h42.56a2,2,0,0,1,2,2v8.57a2,2,0,0,1-2,2h-31V33.46h25.83a2.05,2.05,0,0,1,2,2v8.67a2,2,0,0,1-2,2H191.63v18.3h31a2,2,0,0,1,2,2V75a2,2,0,0,1-2,2H180a2,2,0,0,1-2-2Z"/><path class="cls-2" d="M243.48,4.6a2,2,0,0,1,2-1.88H247a2.32,2.32,0,0,1,1.78.73l42.66,45.48h.21V5.75a2,2,0,0,1,2-2h9.62a2.06,2.06,0,0,1,2,2V76.12a2,2,0,0,1-2,1.88h-1.46a2.32,2.32,0,0,1-1.78-.73L257.18,30H257V75a2,2,0,0,1-2,2h-9.52a2.06,2.06,0,0,1-2-2Z"/><path class="cls-2" d="M340.09,16.31h-16a2,2,0,0,1-2-2V5.75a2,2,0,0,1,2-2h45.7a2,2,0,0,1,2,2v8.57a2,2,0,0,1-2,2h-16V75a2.06,2.06,0,0,1-2,2h-9.72a2.06,2.06,0,0,1-2-2Z"/><path class="cls-2" d="M388.6,5.75a2,2,0,0,1,2-2h42.56a2,2,0,0,1,2,2v8.57a2,2,0,0,1-2,2H402.2V33.46H428a2.06,2.06,0,0,1,2,2v8.67a2,2,0,0,1-2,2H402.2v18.3h30.95a2,2,0,0,1,2,2V75a2,2,0,0,1-2,2H390.59a2,2,0,0,1-2-2Z"/></g><g class="cls-1"><path class="cls-2" d="M486.37,78.62a38.26,38.26,0,1,1,0-76.52A36.05,36.05,0,0,1,512.08,12a2.63,2.63,0,0,1,.93,1.9,2.57,2.57,0,0,1-.8,1.92l-6.37,6.58a2.24,2.24,0,0,1-1.64.82,2.54,2.54,0,0,1-1.85-.81,24.12,24.12,0,0,0-15.67-6C474,16.4,464,26.84,464,40.15s10,23.54,22.81,23.54a24.44,24.44,0,0,0,15.61-5.82,2.52,2.52,0,0,1,3.43,0l6.49,6.7a2.19,2.19,0,0,1,.72,1.6,2.89,2.89,0,0,1-.83,2.08A36.33,36.33,0,0,1,486.37,78.62Zm0-75.29a37,37,0,1,0,0,74.06,35.15,35.15,0,0,0,25-10,1.67,1.67,0,0,0,.46-1.17,1,1,0,0,0-.33-.75L505,58.77a1.33,1.33,0,0,0-1.77,0,25.65,25.65,0,0,1-16.4,6.11c-13.48,0-24-10.88-24-24.77s10.51-25,23.93-25a25.35,25.35,0,0,1,16.51,6.33,1.42,1.42,0,0,0,1,.47,1.09,1.09,0,0,0,.78-.42l6.4-6.61a1.43,1.43,0,0,0,.44-1,1.4,1.4,0,0,0-.52-1A34.87,34.87,0,0,0,486.37,3.33Z"/><path class="cls-2" d="M570.32,77.57H532.06a2.61,2.61,0,0,1-2.61-2.6V5.75a2.61,2.61,0,0,1,2.61-2.6h9.61a2.67,2.67,0,0,1,2.61,2.6v58h26a2.61,2.61,0,0,1,2.61,2.61V75A2.61,2.61,0,0,1,570.32,77.57ZM532.06,4.38a1.38,1.38,0,0,0-1.38,1.37V75a1.38,1.38,0,0,0,1.38,1.37h38.26A1.38,1.38,0,0,0,571.7,75V66.4A1.39,1.39,0,0,0,570.32,65H543.05V5.75a1.45,1.45,0,0,0-1.38-1.37Z"/><path class="cls-2" d="M599.81,77.57h-9.73a2.67,2.67,0,0,1-2.6-2.6V5.75a2.67,2.67,0,0,1,2.6-2.6h9.73a2.67,2.67,0,0,1,2.6,2.6V75A2.67,2.67,0,0,1,599.81,77.57ZM590.08,4.38a1.45,1.45,0,0,0-1.37,1.37V75a1.44,1.44,0,0,0,1.37,1.37h9.73A1.44,1.44,0,0,0,601.18,75V5.75a1.45,1.45,0,0,0-1.37-1.37Z"/><path class="cls-2" d="M669.34,77.57H626.78a2.6,2.6,0,0,1-2.6-2.6V5.75a2.6,2.6,0,0,1,2.6-2.6h42.56a2.61,2.61,0,0,1,2.6,2.6v8.57a2.61,2.61,0,0,1-2.6,2.61H639V32.84h25.21a2.67,2.67,0,0,1,2.6,2.61v8.67a2.6,2.6,0,0,1-2.6,2.61H639V63.79h30.34a2.61,2.61,0,0,1,2.6,2.61V75A2.61,2.61,0,0,1,669.34,77.57ZM626.78,4.38a1.37,1.37,0,0,0-1.37,1.37V75a1.37,1.37,0,0,0,1.37,1.37h42.56A1.38,1.38,0,0,0,670.71,75V66.4A1.38,1.38,0,0,0,669.34,65H637.77V45.5h26.44a1.38,1.38,0,0,0,1.37-1.38V35.45a1.44,1.44,0,0,0-1.37-1.38H637.77V15.7h31.57a1.38,1.38,0,0,0,1.37-1.38V5.75a1.38,1.38,0,0,0-1.37-1.37Z"/><path class="cls-2" d="M750.05,78.62h-1.46a2.94,2.94,0,0,1-2.22-.91l-42-46.34V75a2.61,2.61,0,0,1-2.61,2.6h-9.51a2.66,2.66,0,0,1-2.6-2.6V4.6a2.59,2.59,0,0,1,2.6-2.5h1.57A2.88,2.88,0,0,1,696,3L737.83,47.6V5.75a2.61,2.61,0,0,1,2.6-2.6h9.62a2.66,2.66,0,0,1,2.6,2.6V76.12A2.59,2.59,0,0,1,750.05,78.62ZM703.12,29.39h1.09l.18.21,42.88,47.26a1.66,1.66,0,0,0,1.32.53h1.46a1.35,1.35,0,0,0,1.37-1.27V5.75a1.44,1.44,0,0,0-1.37-1.37h-9.62a1.37,1.37,0,0,0-1.37,1.37v43.8H738l-.18-.2L695.13,3.87a1.68,1.68,0,0,0-1.33-.54h-1.57a1.36,1.36,0,0,0-1.37,1.27V75a1.43,1.43,0,0,0,1.37,1.37h9.51A1.38,1.38,0,0,0,703.12,75Z"/><path class="cls-2" d="M798.56,77.57h-9.73a2.67,2.67,0,0,1-2.6-2.6v-58H770.85a2.61,2.61,0,0,1-2.6-2.61V5.75a2.61,2.61,0,0,1,2.6-2.6h45.69a2.61,2.61,0,0,1,2.61,2.6v8.57a2.61,2.61,0,0,1-2.61,2.61H801.16V75A2.66,2.66,0,0,1,798.56,77.57ZM770.85,4.38a1.37,1.37,0,0,0-1.37,1.37v8.57a1.38,1.38,0,0,0,1.37,1.38h16.61V75a1.44,1.44,0,0,0,1.37,1.37h9.73A1.44,1.44,0,0,0,799.93,75V15.7h16.61a1.39,1.39,0,0,0,1.38-1.38V5.75a1.38,1.38,0,0,0-1.38-1.37Z"/><path class="cls-2" d="M879.8,77.57H837.24a2.61,2.61,0,0,1-2.6-2.6V5.75a2.61,2.61,0,0,1,2.6-2.6H879.8a2.61,2.61,0,0,1,2.6,2.6v8.57a2.61,2.61,0,0,1-2.6,2.61H849.46V32.84h25.22a2.68,2.68,0,0,1,2.6,2.61v8.67a2.61,2.61,0,0,1-2.6,2.61H849.46V63.79H879.8a2.61,2.61,0,0,1,2.6,2.61V75A2.61,2.61,0,0,1,879.8,77.57ZM837.24,4.38a1.38,1.38,0,0,0-1.37,1.37V75a1.38,1.38,0,0,0,1.37,1.37H879.8A1.37,1.37,0,0,0,881.17,75V66.4A1.38,1.38,0,0,0,879.8,65H848.23V45.5h26.45a1.38,1.38,0,0,0,1.37-1.38V35.45a1.45,1.45,0,0,0-1.37-1.38H848.23V15.7H879.8a1.38,1.38,0,0,0,1.37-1.38V5.75a1.37,1.37,0,0,0-1.37-1.37Z"/><path class="cls-2" d="M932.91,78.62a38.26,38.26,0,1,1,0-76.52c10.17,0,18.1,3.05,25.71,9.88a2.63,2.63,0,0,1,.93,1.9,2.57,2.57,0,0,1-.8,1.92l-6.37,6.58a2.24,2.24,0,0,1-1.64.82,2.49,2.49,0,0,1-1.85-.81,24.12,24.12,0,0,0-15.67-6c-12.73,0-22.7,10.44-22.7,23.75s10,23.54,22.81,23.54a24.44,24.44,0,0,0,15.61-5.82,2.54,2.54,0,0,1,3.44,0l6.49,6.7a2.22,2.22,0,0,1,.71,1.6,2.89,2.89,0,0,1-.83,2.09A36.36,36.36,0,0,1,932.91,78.62Zm0-75.29a37,37,0,1,0,0,74.06,35.15,35.15,0,0,0,25-10,1.67,1.67,0,0,0,.46-1.17,1,1,0,0,0-.33-.75l-6.52-6.73a1.33,1.33,0,0,0-1.77,0,25.65,25.65,0,0,1-16.4,6.11c-13.48,0-24-10.88-24-24.77s10.51-25,23.93-25a25.35,25.35,0,0,1,16.51,6.33,1.42,1.42,0,0,0,1,.47,1.09,1.09,0,0,0,.78-.42l6.4-6.61a1.33,1.33,0,0,0-.07-2A34.91,34.91,0,0,0,932.91,3.33Z"/><path class="cls-2" d="M1016.87,77.57H978.6A2.61,2.61,0,0,1,976,75V5.75a2.61,2.61,0,0,1,2.61-2.6h9.62a2.67,2.67,0,0,1,2.6,2.6v58h26a2.61,2.61,0,0,1,2.6,2.61V75A2.61,2.61,0,0,1,1016.87,77.57ZM978.6,4.38a1.38,1.38,0,0,0-1.38,1.37V75a1.38,1.38,0,0,0,1.38,1.37h38.27a1.38,1.38,0,0,0,1.37-1.37V66.4a1.38,1.38,0,0,0-1.37-1.38H989.59V5.75a1.45,1.45,0,0,0-1.37-1.37Z"/></g><g class="cls-1"><path class="cls-2" d="M46.41,163.92H8.14a2.6,2.6,0,0,1-2.6-2.61V92.09a2.6,2.6,0,0,1,2.6-2.6h9.62a2.68,2.68,0,0,1,2.6,2.6v58H46.41a2.61,2.61,0,0,1,2.6,2.6v8.57A2.61,2.61,0,0,1,46.41,163.92ZM8.14,90.72a1.38,1.38,0,0,0-1.37,1.37v69.22a1.38,1.38,0,0,0,1.37,1.38H46.41a1.38,1.38,0,0,0,1.37-1.38v-8.57a1.37,1.37,0,0,0-1.37-1.37H19.13V92.09a1.45,1.45,0,0,0-1.37-1.37Z"/><path class="cls-2" d="M75.89,163.92H66.17a2.68,2.68,0,0,1-2.61-2.61V92.09a2.68,2.68,0,0,1,2.61-2.6h9.72a2.67,2.67,0,0,1,2.6,2.6v69.22A2.67,2.67,0,0,1,75.89,163.92Zm-9.72-73.2a1.45,1.45,0,0,0-1.38,1.37v69.22a1.45,1.45,0,0,0,1.38,1.38h9.72a1.45,1.45,0,0,0,1.37-1.38V92.09a1.45,1.45,0,0,0-1.37-1.37Z"/><path class="cls-2" d="M145.42,163.92H102.86a2.61,2.61,0,0,1-2.6-2.61V92.09a2.61,2.61,0,0,1,2.6-2.6h42.56a2.61,2.61,0,0,1,2.6,2.6v8.58a2.61,2.61,0,0,1-2.6,2.6H115.08v15.92H140.3a2.67,2.67,0,0,1,2.6,2.6v8.68a2.61,2.61,0,0,1-2.6,2.6H115.08v17.07h30.34a2.61,2.61,0,0,1,2.6,2.6v8.57A2.61,2.61,0,0,1,145.42,163.92Zm-42.56-73.2a1.38,1.38,0,0,0-1.37,1.37v69.22a1.38,1.38,0,0,0,1.37,1.38h42.56a1.38,1.38,0,0,0,1.37-1.38v-8.57a1.37,1.37,0,0,0-1.37-1.37H113.85V131.84H140.3a1.37,1.37,0,0,0,1.37-1.37v-8.68a1.45,1.45,0,0,0-1.37-1.37H113.85V102h31.57a1.37,1.37,0,0,0,1.37-1.37V92.09a1.38,1.38,0,0,0-1.37-1.37Z"/><path class="cls-2" d="M226.14,165h-1.47a2.91,2.91,0,0,1-2.21-.91l-42-46.33v43.59a2.61,2.61,0,0,1-2.6,2.61h-9.52a2.68,2.68,0,0,1-2.6-2.61V90.94a2.58,2.58,0,0,1,2.6-2.49h1.57a2.91,2.91,0,0,1,2.21.91L213.91,134V92.09a2.61,2.61,0,0,1,2.61-2.6h9.62a2.68,2.68,0,0,1,2.6,2.6v70.38A2.58,2.58,0,0,1,226.14,165ZM179.2,115.74h1.1l.18.2,42.87,47.26a1.66,1.66,0,0,0,1.32.53h1.47a1.35,1.35,0,0,0,1.37-1.26V92.09a1.45,1.45,0,0,0-1.37-1.37h-9.62a1.39,1.39,0,0,0-1.38,1.37v43.8h-1.09L171.21,90.22a1.67,1.67,0,0,0-1.33-.54h-1.57a1.35,1.35,0,0,0-1.37,1.26v70.37a1.45,1.45,0,0,0,1.37,1.38h9.52a1.38,1.38,0,0,0,1.37-1.38Z"/><path class="cls-2" d="M274.64,163.92h-9.72a2.67,2.67,0,0,1-2.6-2.61v-58H246.93a2.61,2.61,0,0,1-2.6-2.6V92.09a2.61,2.61,0,0,1,2.6-2.6h45.7a2.61,2.61,0,0,1,2.6,2.6v8.58a2.61,2.61,0,0,1-2.6,2.6H277.24v58A2.67,2.67,0,0,1,274.64,163.92Zm-27.71-73.2a1.38,1.38,0,0,0-1.37,1.37v8.58a1.38,1.38,0,0,0,1.37,1.37h16.62v59.27a1.44,1.44,0,0,0,1.37,1.38h9.72a1.44,1.44,0,0,0,1.37-1.38V102h16.62a1.38,1.38,0,0,0,1.37-1.37V92.09a1.38,1.38,0,0,0-1.37-1.37Z"/><path class="cls-2" d="M355.88,163.92H313.33a2.61,2.61,0,0,1-2.61-2.61V92.09a2.61,2.61,0,0,1,2.61-2.6h42.55a2.6,2.6,0,0,1,2.6,2.6v8.58a2.6,2.6,0,0,1-2.6,2.6H325.55v15.92h25.21a2.67,2.67,0,0,1,2.6,2.6v8.68a2.61,2.61,0,0,1-2.6,2.6H325.55v17.07h30.33a2.6,2.6,0,0,1,2.6,2.6v8.57A2.6,2.6,0,0,1,355.88,163.92Zm-42.55-73.2A1.39,1.39,0,0,0,312,92.09v69.22a1.39,1.39,0,0,0,1.38,1.38h42.55a1.38,1.38,0,0,0,1.37-1.38v-8.57a1.37,1.37,0,0,0-1.37-1.37H324.32V131.84h26.44a1.37,1.37,0,0,0,1.37-1.37v-8.68a1.45,1.45,0,0,0-1.37-1.37H324.32V102h31.56a1.37,1.37,0,0,0,1.37-1.37V92.09a1.38,1.38,0,0,0-1.37-1.37Z"/><path class="cls-2" d="M409.1,165a38.26,38.26,0,1,1,0-76.51c10.16,0,18.09,3,25.71,9.88a2.54,2.54,0,0,1,.13,3.82l-6.37,6.58a2.26,2.26,0,0,1-1.64.81,2.59,2.59,0,0,1-1.85-.8,24.06,24.06,0,0,0-15.67-6c-12.73,0-22.7,10.43-22.7,23.74s10,23.54,22.81,23.54a24.46,24.46,0,0,0,15.61-5.82,2.53,2.53,0,0,1,3.43,0l6.49,6.7a2.23,2.23,0,0,1,.72,1.6,2.9,2.9,0,0,1-.83,2.09A36.36,36.36,0,0,1,409.1,165Zm0-75.28a37,37,0,1,0,0,74,35.15,35.15,0,0,0,25-10,1.67,1.67,0,0,0,.46-1.17,1,1,0,0,0-.33-.75l-6.52-6.72a1.32,1.32,0,0,0-1.77,0,25.65,25.65,0,0,1-16.4,6.11c-13.48,0-24-10.88-24-24.77s10.51-25,23.93-25a25.34,25.34,0,0,1,16.51,6.32,1.23,1.23,0,0,0,1,.47,1.1,1.1,0,0,0,.77-.41l6.4-6.61a1.32,1.32,0,0,0-.07-2A34.87,34.87,0,0,0,409.1,89.68Z"/><path class="cls-2" d="M493.05,163.92H454.78a2.61,2.61,0,0,1-2.6-2.61V92.09a2.61,2.61,0,0,1,2.6-2.6h9.62a2.68,2.68,0,0,1,2.61,2.6v58h26a2.61,2.61,0,0,1,2.61,2.6v8.57A2.61,2.61,0,0,1,493.05,163.92Zm-38.27-73.2a1.38,1.38,0,0,0-1.37,1.37v69.22a1.38,1.38,0,0,0,1.37,1.38h38.27a1.39,1.39,0,0,0,1.38-1.38v-8.57a1.38,1.38,0,0,0-1.38-1.37H465.78V92.09a1.45,1.45,0,0,0-1.38-1.37Z"/><path class="cls-2" d="M522.53,163.92h-9.72a2.67,2.67,0,0,1-2.6-2.61V92.09a2.67,2.67,0,0,1,2.6-2.6h9.72a2.68,2.68,0,0,1,2.61,2.6v69.22A2.68,2.68,0,0,1,522.53,163.92Zm-9.72-73.2a1.45,1.45,0,0,0-1.37,1.37v69.22a1.45,1.45,0,0,0,1.37,1.38h9.72a1.45,1.45,0,0,0,1.38-1.38V92.09a1.45,1.45,0,0,0-1.38-1.37Z"/><path class="cls-2" d="M592.06,163.92H549.51a2.6,2.6,0,0,1-2.6-2.61V92.09a2.6,2.6,0,0,1,2.6-2.6h42.55a2.61,2.61,0,0,1,2.61,2.6v8.58a2.61,2.61,0,0,1-2.61,2.6H561.73v15.92h25.21a2.66,2.66,0,0,1,2.6,2.6v8.68a2.6,2.6,0,0,1-2.6,2.6H561.73v17.07h30.33a2.61,2.61,0,0,1,2.61,2.6v8.57A2.61,2.61,0,0,1,592.06,163.92Zm-42.55-73.2a1.38,1.38,0,0,0-1.37,1.37v69.22a1.38,1.38,0,0,0,1.37,1.38h42.55a1.39,1.39,0,0,0,1.38-1.38v-8.57a1.38,1.38,0,0,0-1.38-1.37H560.5V131.84h26.44a1.37,1.37,0,0,0,1.37-1.37v-8.68a1.44,1.44,0,0,0-1.37-1.37H560.5V102h31.56a1.38,1.38,0,0,0,1.38-1.37V92.09a1.39,1.39,0,0,0-1.38-1.37Z"/><path class="cls-2" d="M672.78,165h-1.46a2.93,2.93,0,0,1-2.22-.91l-42-46.33v43.59a2.6,2.6,0,0,1-2.6,2.61H615a2.67,2.67,0,0,1-2.6-2.61V90.94a2.58,2.58,0,0,1,2.6-2.49h1.57a2.92,2.92,0,0,1,2.21.91L660.56,134V92.09a2.6,2.6,0,0,1,2.6-2.6h9.62a2.67,2.67,0,0,1,2.6,2.6v70.38A2.58,2.58,0,0,1,672.78,165Zm-46.94-49.22h1.1l.18.2L670,163.2a1.68,1.68,0,0,0,1.33.53h1.46a1.35,1.35,0,0,0,1.37-1.26V92.09a1.45,1.45,0,0,0-1.37-1.37h-9.62a1.38,1.38,0,0,0-1.37,1.37v43.8H660.7L617.85,90.22a1.65,1.65,0,0,0-1.32-.54H615a1.35,1.35,0,0,0-1.37,1.26v70.37a1.44,1.44,0,0,0,1.37,1.38h9.51a1.38,1.38,0,0,0,1.37-1.38Z"/><path class="cls-2" d="M721.29,163.92h-9.73a2.68,2.68,0,0,1-2.6-2.61v-58H693.58a2.6,2.6,0,0,1-2.6-2.6V92.09a2.6,2.6,0,0,1,2.6-2.6h45.69a2.6,2.6,0,0,1,2.6,2.6v8.58a2.6,2.6,0,0,1-2.6,2.6H723.89v58A2.68,2.68,0,0,1,721.29,163.92Zm-27.71-73.2a1.38,1.38,0,0,0-1.37,1.37v8.58a1.37,1.37,0,0,0,1.37,1.37h16.61v59.27a1.45,1.45,0,0,0,1.37,1.38h9.73a1.45,1.45,0,0,0,1.37-1.38V102h16.61a1.37,1.37,0,0,0,1.37-1.37V92.09a1.38,1.38,0,0,0-1.37-1.37Z"/><path class="cls-2" d="M802.63,163.92H760.08a2.61,2.61,0,0,1-2.61-2.61V92.09a2.61,2.61,0,0,1,2.61-2.6h42.55a2.6,2.6,0,0,1,2.6,2.6v8.58a2.6,2.6,0,0,1-2.6,2.6H772.3v15.92h25.21a2.67,2.67,0,0,1,2.6,2.6v8.68a2.61,2.61,0,0,1-2.6,2.6H772.3v17.07h30.33a2.6,2.6,0,0,1,2.6,2.6v8.57A2.6,2.6,0,0,1,802.63,163.92Zm-42.55-73.2a1.39,1.39,0,0,0-1.38,1.37v69.22a1.39,1.39,0,0,0,1.38,1.38h42.55a1.38,1.38,0,0,0,1.37-1.38v-8.57a1.37,1.37,0,0,0-1.37-1.37H771.07V131.84h26.44a1.37,1.37,0,0,0,1.37-1.37v-8.68a1.45,1.45,0,0,0-1.37-1.37H771.07V102h31.56a1.37,1.37,0,0,0,1.37-1.37V92.09a1.38,1.38,0,0,0-1.37-1.37Z"/><path class="cls-2" d="M855.85,165a38.26,38.26,0,1,1,0-76.51,36.05,36.05,0,0,1,25.71,9.88,2.56,2.56,0,0,1,.13,3.82l-6.37,6.58a2.26,2.26,0,0,1-1.64.81,2.56,2.56,0,0,1-1.85-.8,24.06,24.06,0,0,0-15.67-6c-12.73,0-22.7,10.43-22.7,23.74s10,23.54,22.81,23.54a24.46,24.46,0,0,0,15.61-5.82,2.53,2.53,0,0,1,3.43,0l6.49,6.7a2.23,2.23,0,0,1,.72,1.6,2.9,2.9,0,0,1-.83,2.09A36.36,36.36,0,0,1,855.85,165Zm0-75.28a37,37,0,1,0,0,74,35.15,35.15,0,0,0,25-10,1.67,1.67,0,0,0,.46-1.17,1,1,0,0,0-.33-.74l-6.52-6.73a1.32,1.32,0,0,0-1.77,0,25.65,25.65,0,0,1-16.4,6.11c-13.48,0-24-10.88-24-24.77s10.51-25,23.93-25a25.34,25.34,0,0,1,16.51,6.32,1.26,1.26,0,0,0,1,.47,1.12,1.12,0,0,0,.78-.41l6.39-6.61a1.41,1.41,0,0,0,.45-1,1.36,1.36,0,0,0-.52-1A34.87,34.87,0,0,0,855.85,89.68Z"/><path class="cls-2" d="M939.8,163.92H901.53a2.61,2.61,0,0,1-2.6-2.61V92.09a2.61,2.61,0,0,1,2.6-2.6h9.62a2.67,2.67,0,0,1,2.6,2.6v58h26a2.6,2.6,0,0,1,2.6,2.6v8.57A2.6,2.6,0,0,1,939.8,163.92Zm-38.27-73.2a1.38,1.38,0,0,0-1.37,1.37v69.22a1.38,1.38,0,0,0,1.37,1.38H939.8a1.38,1.38,0,0,0,1.37-1.38v-8.57a1.37,1.37,0,0,0-1.37-1.37H912.52V92.09a1.44,1.44,0,0,0-1.37-1.37Z"/><path class="cls-2" d="M969.28,163.92h-9.72a2.67,2.67,0,0,1-2.6-2.61V92.09a2.67,2.67,0,0,1,2.6-2.6h9.72a2.68,2.68,0,0,1,2.61,2.6v69.22A2.68,2.68,0,0,1,969.28,163.92Zm-9.72-73.2a1.45,1.45,0,0,0-1.37,1.37v69.22a1.45,1.45,0,0,0,1.37,1.38h9.72a1.45,1.45,0,0,0,1.38-1.38V92.09a1.45,1.45,0,0,0-1.38-1.37Z"/></g></svg>