<?xml version="1.0" encoding="utf-8"?>
<!-- Generator: Adobe Illustrator 26.0.3, SVG Export Plug-In . SVG Version: 6.00 Build 0)  -->
<svg version="1.1" id="Capa_1" xmlns="http://www.w3.org/2000/svg" xmlns:xlink="http://www.w3.org/1999/xlink" x="0px" y="0px"
	 viewBox="0 0 863 168" style="enable-background:new 0 0 863 168;" xml:space="preserve">
<style type="text/css">
	.st0{opacity:0.6;}
	.st1{fill:#FFFFFF;}
</style>
<g class="st0">
	<path class="st1" d="M44.7,8c8.9-0.2,17.5,3.1,24,9.2c0.8,0.6,0.9,1.8,0.3,2.6c-0.1,0.1-0.1,0.1-0.2,0.2l-6.1,6.2
		c-0.5,0.7-1.5,0.8-2.2,0.2c-0.1-0.1-0.2-0.2-0.2-0.2c-4.2-3.7-9.6-5.8-15.3-5.8c-12.7,0-22.2,10.6-22.2,23.1s9.6,22.9,22.3,22.9
		c5.6-0.1,10.9-2.1,15.2-5.6c0.7-0.7,1.8-0.7,2.5,0l6.1,6.3c0.7,0.8,0.7,2-0.1,2.7c0,0,0,0,0,0c-6.4,6.3-15.1,9.7-24.1,9.6
		c-19.7,0.4-36-15.3-36.3-35s15.3-36,35-36.3C43.9,8,44.3,8,44.7,8L44.7,8z"/>
	<path class="st1" d="M86.2,10.9C86.2,9.9,87,9,88,9h9.1c1,0,1.8,0.9,1.9,1.9v55.6h25.3c1,0,1.9,0.8,1.9,1.9l0,0v8.2
		c0,1-0.8,1.9-1.9,1.9H88c-1,0-1.9-0.9-1.9-1.9V10.9z"/>
	<path class="st1" d="M141.2,10.9c0-1,0.9-1.9,1.9-1.9h9.2c1,0,1.9,0.9,1.9,1.9v65.6c0,1-0.9,1.9-1.9,1.9h-9.2c-1,0-1.9-0.9-1.9-1.9
		V10.9z"/>
	<path class="st1" d="M176,10.9c0-1,0.8-1.9,1.9-1.9h40.4c1,0,1.9,0.8,1.9,1.9v8.2c0,1-0.8,1.9-1.9,1.9c0,0,0,0,0,0h-29.3v16.2h24.5
		c1,0,1.8,0.9,1.9,1.9v8.2c0,1-0.8,1.9-1.9,1.9l0,0h-24.5v17.4h29.3c1,0,1.9,0.8,1.9,1.9c0,0,0,0,0,0v8.2c0,1-0.8,1.9-1.9,1.9h-40.4
		c-1,0-1.9-0.9-1.9-1.9V10.9z"/>
	<path class="st1" d="M238,9.8c0-1,0.9-1.8,1.9-1.8h1.5c0.6,0,1.3,0.2,1.7,0.7l40.5,43.1h0.2v-41c0-1,0.8-1.9,1.9-1.9h9.1
		c1,0,1.9,0.9,1.9,1.9v66.7c0,1-0.9,1.8-1.9,1.8h-1.4c-0.6,0-1.3-0.2-1.7-0.7L251,33.9h-0.2v42.6c0,1-0.8,1.9-1.9,1.9h-9
		c-1,0-1.8-0.9-1.9-1.9L238,9.8z"/>
	<path class="st1" d="M329.6,20.9h-15.2c-1,0-1.9-0.8-1.9-1.9v-8.2c0-1,0.8-1.9,1.9-1.9h43.3c1,0,1.9,0.9,1.9,1.9v8.2
		c0,1-0.8,1.9-1.9,1.9h-15.2v55.6c0,1-0.9,1.9-1.9,1.9h-9.2c-1,0-1.8-0.9-1.9-1.9L329.6,20.9z"/>
	<path class="st1" d="M375.6,10.9c0-1,0.8-1.9,1.9-1.9h40.4c1,0,1.9,0.9,1.9,1.9v8.2c0,1-0.8,1.9-1.9,1.9c0,0,0,0,0,0h-29.3v16.2
		H413c1,0,1.9,0.9,1.9,1.9v8.2c0,1-0.9,1.9-1.9,1.9h-24.5v17.4h29.3c1,0,1.9,0.8,1.9,1.9v8.2c0,1-0.8,1.9-1.9,1.9h-40.4
		c-1,0-1.9-0.9-1.9-1.9V10.9z"/>
</g>
<g class="st0">
	<path class="st1" d="M468.3,80c-20,0.4-36.6-15.6-36.9-35.6S447,7.8,467,7.4c0.4,0,0.9,0,1.3,0c9-0.2,17.8,3.1,24.4,9.3
		c1,0.9,1.2,2.4,0.3,3.4c-0.1,0.1-0.1,0.1-0.2,0.2l-6,6.2c-0.4,0.5-1,0.7-1.6,0.8c-0.7,0-1.3-0.3-1.7-0.8c-4.1-3.6-9.4-5.6-14.9-5.7
		c-12.1,0-21.5,9.9-21.5,22.5s9.5,22.3,21.6,22.3c5.4,0,10.7-2,14.8-5.5c0.9-0.9,2.3-0.9,3.3,0l6.2,6.4c0.4,0.4,0.7,0.9,0.7,1.5
		c0,0.7-0.3,1.5-0.8,2C486.3,76.5,477.5,80.1,468.3,80z M468.3,8.6c-19.4-0.4-35.4,15.1-35.7,34.5c-0.4,19.4,15.1,35.4,34.5,35.7
		c0.4,0,0.9,0,1.3,0c8.8,0.1,17.4-3.3,23.7-9.5c0.3-0.3,0.5-0.7,0.4-1.2c0-0.3-0.1-0.5-0.3-0.7l-6.2-6.4c-0.5-0.4-1.2-0.4-1.7,0
		c-4.3,3.7-9.8,5.8-15.5,5.8c-12.8,0-22.8-10.3-22.8-23.5s10-23.7,22.7-23.7c5.8,0.1,11.3,2.2,15.7,6c0.2,0.3,0.6,0.4,0.9,0.4
		c0.3,0,0.6-0.2,0.7-0.4l6.1-6.3c0.5-0.5,0.5-1.3,0.1-1.8c0,0-0.1-0.1-0.1-0.1C485.5,11.6,477.1,8.4,468.3,8.6z"/>
	<path class="st1" d="M547.9,79h-36.3c-1.4,0-2.5-1.1-2.5-2.5V10.9c0-1.4,1.1-2.5,2.5-2.5h9.1c1.4,0,2.4,1.1,2.5,2.5v55h24.7
		c1.4,0,2.5,1.1,2.5,2.5v8.2C550.3,77.9,549.2,79,547.9,79z M511.6,9.6c-0.7,0-1.3,0.6-1.3,1.3v65.6c0,0.7,0.6,1.3,1.3,1.3h36.3
		c0.7,0,1.3-0.6,1.3-1.3v-8.2c0-0.7-0.6-1.3-1.3-1.3H522V10.9c0-0.7-0.6-1.3-1.3-1.3L511.6,9.6z"/>
	<path class="st1" d="M575.9,79h-9.2c-1.3,0-2.4-1.1-2.4-2.5V10.9c0-1.3,1.1-2.4,2.5-2.5h9.2c1.3,0,2.4,1.1,2.5,2.5v65.6
		C578.3,77.9,577.2,79,575.9,79z M566.7,9.6c-0.7,0.1-1.2,0.6-1.3,1.3v65.6c0,0.7,0.6,1.3,1.3,1.3h9.2c0.7,0,1.3-0.6,1.3-1.3V10.9
		c0-0.7-0.6-1.3-1.3-1.3L566.7,9.6z"/>
	<path class="st1" d="M641.8,79h-40.4c-1.4,0-2.5-1.1-2.5-2.5V10.9c0-1.4,1.1-2.5,2.5-2.5h40.4c1.4,0,2.5,1.1,2.5,2.5v8.2
		c0,1.4-1.1,2.5-2.5,2.5H613v15.1h23.9c1.4,0,2.4,1.1,2.5,2.5v8.2c0,1.4-1.1,2.5-2.5,2.5H613v16.2h28.8c1.4,0,2.5,1.1,2.5,2.5v8.2
		C644.2,77.9,643.1,79,641.8,79z M601.4,9.6c-0.7,0-1.3,0.6-1.3,1.3v65.6c0,0.7,0.6,1.3,1.3,1.3h40.4c0.7,0,1.3-0.6,1.3-1.3
		c0,0,0,0,0,0v-8.2c0-0.7-0.6-1.3-1.3-1.3h-29.9V48.6h25.1c0.7,0,1.3-0.6,1.3-1.3V39c0-0.7-0.6-1.3-1.3-1.3h-25.1V20.3h29.9
		c0.7,0,1.3-0.6,1.3-1.3v-8.2c0-0.7-0.6-1.3-1.3-1.3c0,0,0,0,0,0L601.4,9.6z"/>
	<path class="st1" d="M718.3,80h-1.4c-0.8,0-1.6-0.3-2.1-0.9L675,35.2v41.3c0,1.4-1.1,2.5-2.5,2.5h-9c-1.4,0-2.5-1.1-2.5-2.5V9.8
		c0.1-1.3,1.2-2.3,2.5-2.3h1.5c0.8,0,1.6,0.3,2.1,0.9l39.7,42.3V11c0-1.4,1.1-2.5,2.5-2.5h9.1c1.3,0,2.4,1.1,2.5,2.5v66.7
		C720.7,78.9,719.6,80,718.3,80z M673.8,33.3h1l0.2,0.2l40.6,44.8c0.3,0.3,0.8,0.5,1.3,0.5h1.4c0.7,0,1.2-0.5,1.3-1.2V10.9
		c0-0.7-0.6-1.3-1.3-1.3h-9.1c-0.7,0-1.3,0.6-1.3,1.3v41.5h-1l-0.2-0.2L666.3,9.1c-0.3-0.4-0.8-0.5-1.3-0.5h-1.5
		c-0.7,0-1.2,0.5-1.3,1.2v66.8c0,0.7,0.6,1.3,1.3,1.3h9c0.7,0,1.3-0.6,1.3-1.3c0,0,0,0,0,0V33.3z"/>
	<path class="st1" d="M764.3,79h-9.2c-1.4,0-2.4-1.1-2.5-2.5v-55H738c-1.4,0-2.5-1.1-2.5-2.4c0,0,0,0,0,0v-8.2
		c0-1.4,1.1-2.4,2.5-2.4h43.3c1.4,0,2.5,1.1,2.5,2.5v8.2c0,1.4-1.1,2.5-2.5,2.5c0,0,0,0,0,0h-14.6v55
		C766.7,77.9,765.6,78.9,764.3,79z M738,9.6c-0.7,0-1.3,0.6-1.3,1.3v8.2c0,0.7,0.6,1.3,1.3,1.3h15.7v56.2c0,0.7,0.6,1.3,1.3,1.3h9.2
		c0.7,0,1.3-0.6,1.3-1.3V20.3h15.7c0.7,0,1.3-0.6,1.3-1.3c0,0,0,0,0,0v-8.2c0-0.7-0.6-1.3-1.3-1.3L738,9.6z"/>
	<path class="st1" d="M841.3,79H801c-1.4,0-2.5-1.1-2.5-2.5V10.9c0-1.4,1.1-2.5,2.5-2.5h40.4c1.4,0,2.5,1.1,2.5,2.5v8.2
		c0,1.4-1.1,2.5-2.5,2.5h-28.7v15.1h23.9c1.4,0,2.4,1.1,2.5,2.5v8.2c0,1.4-1.1,2.5-2.5,2.5h-23.9v16.2h28.8c1.4,0,2.5,1.1,2.5,2.5
		v8.2C843.8,77.9,842.7,79,841.3,79C841.3,79,841.3,79,841.3,79z M801,9.6c-0.7,0-1.3,0.6-1.3,1.3c0,0,0,0,0,0v65.6
		c0,0.7,0.6,1.3,1.3,1.3c0,0,0,0,0,0h40.4c0.7,0,1.3-0.6,1.3-1.3c0,0,0,0,0,0v-8.2c0-0.7-0.6-1.3-1.3-1.3h-29.9V48.6h25.1
		c0.7,0,1.3-0.6,1.3-1.3V39c0-0.7-0.6-1.3-1.3-1.3h-25.1V20.3h29.9c0.7,0,1.3-0.6,1.3-1.3v-8.2c0-0.7-0.6-1.3-1.3-1.3c0,0,0,0,0,0
		L801,9.6z"/>
	<path class="st1" d="M891.7,80c-20,0.4-36.6-15.6-36.9-35.6c-0.4-20,15.6-36.6,35.6-36.9c0.4,0,0.9,0,1.3,0
		c9-0.2,17.8,3.1,24.4,9.3c1,0.9,1.2,2.4,0.3,3.4c-0.1,0.1-0.1,0.1-0.2,0.2l-6,6.2c-0.4,0.5-0.9,0.7-1.6,0.8c-0.7,0-1.3-0.3-1.8-0.8
		c-4.1-3.6-9.4-5.6-14.9-5.7c-12.1,0-21.5,9.9-21.5,22.5s9.5,22.3,21.6,22.3c5.4,0,10.7-2,14.8-5.5c0.9-0.9,2.3-0.9,3.3,0l6.2,6.4
		c0.4,0.4,0.7,0.9,0.7,1.5c0,0.7-0.3,1.5-0.8,2C909.6,76.5,900.8,80.1,891.7,80z M891.7,8.6c-19.4-0.4-35.4,15.1-35.7,34.5
		c-0.4,19.4,15.1,35.4,34.5,35.7c0.4,0,0.9,0,1.3,0c8.8,0.1,17.4-3.3,23.7-9.5c0.3-0.3,0.5-0.7,0.4-1.2c0-0.3-0.1-0.5-0.3-0.7
		l-6.2-6.4c-0.5-0.4-1.2-0.4-1.7,0c-4.3,3.7-9.8,5.8-15.5,5.8c-12.8,0-22.8-10.3-22.8-23.5s10-23.7,22.6-23.7
		c5.8,0.1,11.3,2.2,15.7,6c0.2,0.3,0.6,0.4,0.9,0.4c0.3,0,0.6-0.2,0.7-0.4l6.1-6.3c0.3-0.2,0.4-0.6,0.4-1c0-0.4-0.2-0.7-0.5-1
		C908.9,11.6,900.4,8.4,891.7,8.6z"/>
	<path class="st1" d="M971.2,79H935c-1.4,0-2.5-1.1-2.5-2.5V10.9c0-1.4,1.1-2.5,2.5-2.5h9.1c1.3,0,2.4,1.1,2.5,2.5v55h24.7
		c1.4,0,2.5,1.1,2.5,2.5v8.2C973.7,77.9,972.6,79,971.2,79z M935,9.6c-0.7,0-1.3,0.6-1.3,1.3v65.6c0,0.7,0.6,1.3,1.3,1.3h36.2
		c0.7,0,1.3-0.6,1.3-1.3v-8.2c0-0.7-0.6-1.3-1.3-1.3h-25.8V10.9c0-0.7-0.6-1.3-1.3-1.3L935,9.6z"/>
	<path class="st1" d="M999.2,79H990c-1.3,0-2.4-1.1-2.4-2.5V10.9c0-1.3,1.1-2.4,2.5-2.5h9.2c1.3,0,2.4,1.1,2.5,2.5v65.6
		C1001.6,77.9,1000.6,79,999.2,79z M990,9.6c-0.7,0-1.2,0.6-1.3,1.3v65.6c0,0.7,0.6,1.3,1.3,1.3h9.2c0.7,0,1.3-0.6,1.3-1.3V10.9
		c0-0.7-0.6-1.3-1.3-1.3H990z"/>
	<path class="st1" d="M1065.2,79h-40.4c-1.4,0-2.5-1.1-2.5-2.5V10.9c0-1.4,1.1-2.5,2.5-2.5h40.4c1.4,0,2.5,1.1,2.5,2.5v8.2
		c0,1.4-1.1,2.5-2.5,2.5h-28.8v15.1h23.9c1.4,0,2.4,1.1,2.5,2.5v8.2c0,1.4-1.1,2.5-2.5,2.5h-23.9v16.2h28.8c1.4,0,2.5,1.1,2.5,2.5
		v8.2C1067.6,77.9,1066.5,79,1065.2,79z M1024.8,9.6c-0.7,0-1.3,0.6-1.3,1.3v65.6c0,0.7,0.6,1.3,1.3,1.3h40.4c0.7,0,1.3-0.6,1.3-1.3
		v-8.2c0-0.7-0.6-1.3-1.3-1.3h-29.9V48.6h25.1c0.7,0,1.3-0.6,1.3-1.3V39c0-0.7-0.6-1.3-1.3-1.3h-25.1V20.3h29.9
		c0.7,0,1.3-0.6,1.3-1.3v-8.2c0-0.7-0.6-1.3-1.3-1.3L1024.8,9.6z"/>
	<path class="st1" d="M1141.7,80h-1.4c-0.8,0-1.6-0.3-2.1-0.9l-39.9-43.9v41.3c0,1.4-1.1,2.5-2.5,2.5h-9c-1.4,0-2.5-1.1-2.5-2.5V9.8
		c0.1-1.3,1.2-2.3,2.5-2.3h1.5c0.8,0,1.6,0.3,2.1,0.9l39.7,42.3V11c0-1.4,1.1-2.5,2.5-2.5h9.1c1.3,0,2.4,1.1,2.5,2.5v66.7
		C1144.1,78.9,1143,80,1141.7,80z M1097.2,33.3h1l0.2,0.2l40.6,44.8c0.3,0.3,0.8,0.5,1.3,0.5h1.4c0.7,0,1.2-0.5,1.3-1.2V10.9
		c0-0.7-0.6-1.3-1.3-1.3h-9.1c-0.7,0-1.3,0.6-1.3,1.3v41.5h-1l-0.2-0.2l-40.5-43.1c-0.3-0.4-0.8-0.5-1.3-0.5h-1.5
		c-0.7,0-1.2,0.5-1.3,1.2v66.8c0,0.7,0.6,1.3,1.3,1.3h9c0.7,0,1.3-0.6,1.3-1.3c0,0,0,0,0,0V33.3z"/>
	<path class="st1" d="M1187.7,79h-9.2c-1.4,0-2.4-1.1-2.5-2.5v-55h-14.6c-1.3,0-2.4-1.1-2.4-2.5v-8.2c0-1.4,1.1-2.5,2.5-2.5h43.3
		c1.4,0,2.5,1.1,2.5,2.5V19c0,1.4-1.1,2.5-2.5,2.5c0,0,0,0,0,0h-14.6v55C1190.2,77.9,1189,79,1187.7,79z M1161.4,9.6
		c-0.7,0-1.2,0.6-1.2,1.3v8.2c0,0.7,0.6,1.3,1.3,1.3h15.8v56.2c0,0.7,0.6,1.3,1.3,1.3h9.2c0.7,0,1.3-0.6,1.3-1.3V20.3h15.7
		c0.7,0,1.3-0.6,1.3-1.3c0,0,0,0,0,0v-8.2c0-0.7-0.6-1.3-1.3-1.3L1161.4,9.6z"/>
	<path class="st1" d="M1264.8,79h-40.3c-1.4,0-2.5-1.1-2.5-2.5V10.9c0-1.4,1.1-2.5,2.5-2.5h40.3c1.4,0,2.5,1.1,2.5,2.5v8.2
		c0,1.4-1.1,2.5-2.5,2.5c0,0,0,0,0,0H1236v15.1h23.9c1.3,0,2.4,1.1,2.5,2.5v8.2c0,1.4-1.1,2.5-2.5,2.5H1236v16.2h28.8
		c1.4,0,2.5,1.1,2.5,2.5v8.2C1267.2,77.9,1266.1,79,1264.8,79z M1224.4,9.6c-0.7,0-1.3,0.6-1.3,1.3v65.6c0,0.7,0.6,1.3,1.3,1.3h40.3
		c0.7,0,1.3-0.6,1.3-1.3v-8.2c0-0.7-0.6-1.3-1.3-1.3h-29.9V48.6h25.1c0.7,0,1.3-0.6,1.3-1.3V39c0-0.7-0.6-1.3-1.3-1.3h-25.1V20.3
		h29.9c0.7,0,1.3-0.6,1.3-1.3c0,0,0,0,0,0v-8.2c0-0.7-0.6-1.3-1.3-1.3L1224.4,9.6z"/>
	<path class="st1" d="M1315.3,80c-20,0.4-36.6-15.6-36.9-35.6c-0.4-20,15.6-36.6,35.6-36.9c0.4,0,0.9,0,1.3,0
		c9-0.2,17.8,3.1,24.4,9.3c0.5,0.4,0.8,1.1,0.9,1.8c0,0.7-0.3,1.3-0.7,1.8l-6,6.2c-0.4,0.5-1,0.7-1.6,0.8c-0.7,0-1.3-0.3-1.7-0.8
		c-4.1-3.6-9.4-5.6-14.9-5.7c-12.1,0-21.5,9.9-21.5,22.5s9.5,22.3,21.6,22.3c5.4,0,10.6-2,14.8-5.5c0.9-0.9,2.3-0.9,3.3,0l6.2,6.4
		c0.4,0.4,0.7,0.9,0.7,1.5c0,0.7-0.3,1.5-0.8,2C1333.2,76.5,1324.4,80.1,1315.3,80z M1315.3,8.6c-19.4-0.4-35.4,15.1-35.7,34.5
		c-0.4,19.4,15.1,35.4,34.5,35.7c0.4,0,0.9,0,1.3,0c8.8,0.1,17.4-3.3,23.7-9.5c0.3-0.3,0.5-0.7,0.4-1.2c0-0.3-0.1-0.5-0.3-0.7
		l-6.2-6.4c-0.5-0.4-1.2-0.4-1.7,0c-4.3,3.7-9.8,5.8-15.5,5.8c-12.8,0-22.8-10.3-22.8-23.5s10-23.7,22.7-23.7
		c5.8,0.1,11.3,2.2,15.7,6c0.2,0.3,0.6,0.4,0.9,0.4c0.3,0,0.6-0.2,0.7-0.4l6.1-6.3c0.3-0.3,0.4-0.6,0.4-1c0-0.4-0.2-0.7-0.5-1
		C1332.5,11.6,1324,8.4,1315.3,8.6z"/>
</g>
<g class="st0">
	<path class="st1" d="M51.2,160.9H14.9c-1.4,0-2.5-1.1-2.5-2.5V92.7c0-1.4,1.1-2.5,2.5-2.5h9.1c1.3,0,2.4,1.1,2.5,2.5v55h24.7
		c1.4,0,2.5,1.1,2.5,2.5v8.2C53.6,159.8,52.5,160.9,51.2,160.9z M14.9,91.5c-0.7,0-1.3,0.6-1.3,1.3v65.6c0,0.7,0.5,1.3,1.2,1.3
		c0,0,0,0,0.1,0h36.2c0.7,0,1.3-0.6,1.3-1.3l0,0v-8.2c0-0.7-0.6-1.3-1.3-1.3c0,0,0,0,0,0H25.3V92.7c0-0.7-0.6-1.3-1.3-1.3H14.9z"/>
	<path class="st1" d="M79.1,160.9h-9.2c-1.4,0-2.5-1.1-2.5-2.5V92.7c0-1.3,1.1-2.4,2.5-2.5h9.2c1.3,0,2.4,1.1,2.5,2.5v65.6
		C81.6,159.7,80.5,160.8,79.1,160.9z M69.9,91.5c-0.7,0-1.3,0.6-1.3,1.2v65.6c0,0.7,0.6,1.3,1.3,1.3h9.2c0.7,0,1.3-0.6,1.3-1.3V92.7
		c0-0.7-0.6-1.3-1.3-1.3L69.9,91.5z"/>
	<path class="st1" d="M145,160.9h-40.3c-1.4,0-2.5-1.1-2.5-2.5V92.7c0-1.4,1.1-2.5,2.5-2.5h40.4c1.4,0,2.5,1.1,2.5,2.5v8.2
		c0,1.4-1.1,2.5-2.5,2.5h-28.8v15.1h23.9c1.3,0,2.4,1.1,2.5,2.5v8.2c0,1.4-1.1,2.5-2.5,2.5h-23.9v16.2H145c1.4,0,2.5,1.1,2.5,2.5
		v8.2C147.6,159.7,146.5,160.9,145,160.9C145.1,160.9,145.1,160.9,145,160.9z M104.7,91.5c-0.7,0-1.3,0.6-1.3,1.3v65.6
		c0,0.7,0.5,1.3,1.2,1.3c0,0,0,0,0,0h40.4c0.7,0,1.3-0.6,1.3-1.3c0,0,0,0,0,0v-8.2c0-0.7-0.6-1.3-1.3-1.3h-30v-18.5h25.1
		c0.7,0,1.3-0.6,1.3-1.3V121c0-0.7-0.6-1.3-1.3-1.3h-25.1v-17.5H145c0.7,0,1.3-0.6,1.3-1.3v-8.2c0-0.7-0.6-1.3-1.3-1.3L104.7,91.5z"
		/>
	<path class="st1" d="M221.6,161.8h-1.4c-0.8,0-1.6-0.3-2.1-0.9L178.2,117v41.3c0,1.4-1.1,2.5-2.5,2.5l0,0h-9
		c-1.3,0-2.4-1.1-2.5-2.5V91.7c0.1-1.3,1.1-2.3,2.5-2.3h1.5c0.8,0,1.6,0.3,2.1,0.9l39.7,42.3V92.8c0-1.4,1.1-2.5,2.5-2.5h9.1
		c1.3,0,2.4,1.1,2.5,2.5v66.7C223.9,160.8,222.9,161.8,221.6,161.8z M177,115.2h1l0.2,0.2l40.7,44.8c0.3,0.3,0.8,0.5,1.2,0.5h1.4
		c0.7,0,1.2-0.5,1.3-1.2V92.7c0-0.7-0.6-1.3-1.3-1.3h-9.1c-0.7,0-1.3,0.6-1.3,1.3l0,0v41.5h-1L169.5,91c-0.3-0.4-0.8-0.5-1.3-0.5
		h-1.5c-0.7,0-1.2,0.5-1.3,1.2v66.7c0,0.7,0.6,1.3,1.3,1.3h9c0.7,0,1.3-0.6,1.3-1.3l0,0L177,115.2z"/>
	<path class="st1" d="M267.6,160.9h-9.2c-1.3,0-2.4-1.1-2.5-2.5v-55.1h-14.6c-1.4,0-2.4-1.1-2.4-2.5v-8.2c0-1.4,1.1-2.5,2.5-2.5
		h43.3c1.4,0,2.5,1.1,2.5,2.5l0,0v8.2c0,1.4-1.1,2.5-2.5,2.5l0,0H270v55C270,159.7,268.9,160.9,267.6,160.9z M241.3,91.5
		c-0.7,0-1.3,0.6-1.3,1.3v8.2c0,0.7,0.6,1.3,1.3,1.3l0,0h15.8v56.2c0,0.7,0.6,1.3,1.3,1.3h9.2c0.7,0,1.3-0.6,1.3-1.3v-56.2h15.8
		c0.7,0,1.3-0.6,1.3-1.3l0,0v-8.2c0-0.7-0.6-1.3-1.3-1.3l0,0L241.3,91.5z"/>
	<path class="st1" d="M344.6,160.9h-40.3c-1.4,0-2.5-1.1-2.5-2.5V92.7c0-1.4,1.1-2.5,2.5-2.5h40.3c1.4,0,2.5,1.1,2.5,2.5v8.2
		c0,1.4-1.1,2.5-2.5,2.5h-28.8v15.1h23.9c1.3,0,2.4,1.1,2.5,2.5v8.2c0,1.4-1.1,2.5-2.4,2.5c0,0,0,0,0,0h-23.9v16.2h28.8
		c1.4,0,2.5,1.1,2.5,2.5v8.2C347.1,159.7,346,160.9,344.6,160.9C344.6,160.9,344.6,160.9,344.6,160.9z M304.2,91.5
		c-0.7,0-1.2,0.6-1.3,1.2v65.6c0,0.7,0.6,1.3,1.3,1.3c0,0,0,0,0,0h40.3c0.7,0,1.3-0.6,1.3-1.3c0,0,0,0,0,0v-8.2
		c0-0.7-0.6-1.3-1.3-1.3h-30v-18.5h25.1c0.7,0,1.3-0.6,1.3-1.3V121c0-0.7-0.6-1.3-1.3-1.3h-25.1v-17.5h29.9c0.7,0,1.3-0.6,1.3-1.3
		v-8.2c0-0.7-0.6-1.3-1.3-1.3L304.2,91.5z"/>
	<path class="st1" d="M395,161.8c-20,0-36.3-16.2-36.3-36.3S375,89.3,395,89.3c0,0,0,0,0,0c9-0.2,17.8,3.1,24.4,9.3
		c1,0.9,1.2,2.4,0.3,3.4c-0.1,0.1-0.1,0.1-0.2,0.2l-6,6.2c-0.4,0.5-1,0.7-1.6,0.8c-0.7,0-1.3-0.3-1.7-0.8c-4.1-3.6-9.4-5.6-14.9-5.7
		c-12.1,0-21.5,9.9-21.5,22.5s9.5,22.3,21.6,22.3c5.4,0,10.7-2,14.8-5.5c0.9-0.8,2.3-0.8,3.3,0l6.2,6.4c0.4,0.4,0.7,0.9,0.7,1.5
		c0,0.7-0.3,1.5-0.8,2C413,158.4,404.2,161.9,395,161.8z M395,90.5c-19.4,0-35.1,15.7-35.1,35.1s15.7,35.1,35.1,35.1c0,0,0,0,0,0
		c8.8,0.1,17.4-3.3,23.7-9.4c0.3-0.3,0.4-0.7,0.4-1.2c0-0.3-0.1-0.5-0.3-0.7l-6.2-6.4c-0.5-0.4-1.2-0.4-1.7,0
		c-4.3,3.7-9.8,5.8-15.5,5.8c-12.8,0-22.8-10.3-22.8-23.5s10-23.7,22.7-23.7c5.8,0.1,11.3,2.2,15.7,6c0.2,0.3,0.6,0.4,0.9,0.4
		c0.3,0,0.6-0.2,0.7-0.4l6.1-6.3c0.3-0.3,0.4-0.6,0.4-1c0-0.4-0.2-0.7-0.5-1C412.3,93.5,403.8,90.2,395,90.5z"/>
	<path class="st1" d="M474.6,160.9h-36.3c-1.4,0-2.5-1.1-2.5-2.5V92.7c0-1.4,1.1-2.5,2.5-2.5h9.1c1.3,0,2.4,1.1,2.4,2.5v55h24.7
		c1.4,0,2.5,1.1,2.5,2.5v8.2C477.1,159.8,476,160.9,474.6,160.9z M438.4,91.5c-0.7,0-1.2,0.6-1.3,1.2v65.6c0,0.7,0.6,1.3,1.3,1.3
		c0,0,0,0,0,0h36.3c0.7,0,1.3-0.6,1.3-1.3c0,0,0,0,0,0v-8.2c0-0.7-0.6-1.3-1.3-1.3h-25.9V92.7c0-0.7-0.6-1.3-1.3-1.3L438.4,91.5z"/>
	<path class="st1" d="M502.6,160.9h-9.2c-1.3,0-2.4-1.1-2.5-2.5V92.7c0-1.3,1.1-2.4,2.5-2.5h9.2c1.3,0,2.4,1.1,2.5,2.5v65.6
		C505.1,159.7,504,160.9,502.6,160.9z M493.4,91.5c-0.7,0-1.3,0.6-1.3,1.3v65.6c0,0.7,0.6,1.3,1.3,1.3h9.2c0.7,0,1.3-0.6,1.3-1.3
		V92.7c0-0.7-0.6-1.3-1.3-1.3L493.4,91.5z"/>
	<path class="st1" d="M568.5,160.9h-40.4c-1.4,0-2.5-1.1-2.5-2.5V92.7c0-1.4,1.1-2.5,2.5-2.5h40.4c1.4,0,2.5,1.1,2.5,2.5v8.2
		c0,1.4-1.1,2.5-2.5,2.5h-28.8v15.1h23.9c1.4,0,2.4,1.1,2.5,2.5v8.2c0,1.4-1.1,2.5-2.5,2.5h-23.9v16.2h28.8c1.4,0,2.5,1.1,2.5,2.5
		v8.2C571,159.7,569.9,160.9,568.5,160.9C568.5,160.9,568.5,160.9,568.5,160.9z M528.2,91.5c-0.7,0-1.2,0.6-1.3,1.2v65.6
		c0,0.7,0.6,1.3,1.3,1.3c0,0,0,0,0,0h40.4c0.7,0,1.3-0.6,1.3-1.3v-8.2c0-0.7-0.6-1.3-1.3-1.3c0,0,0,0,0,0h-30v-18.5h25.1
		c0.7,0,1.3-0.6,1.3-1.3V121c0-0.7-0.6-1.3-1.3-1.3h-25.1v-17.5h29.9c0.7,0,1.3-0.6,1.3-1.3v-8.2c0-0.7-0.6-1.3-1.3-1.3L528.2,91.5z
		"/>
	<path class="st1" d="M645,161.8h-1.4c-0.8,0-1.6-0.3-2.1-0.9L601.7,117v41.3c0,1.4-1.1,2.5-2.4,2.5c0,0,0,0-0.1,0h-9
		c-1.3,0-2.4-1.1-2.5-2.5V91.7c0.1-1.3,1.2-2.3,2.5-2.3h1.5c0.8,0,1.6,0.3,2.1,0.9l39.7,42.3V92.8c0-1.4,1.1-2.5,2.5-2.5h9.1
		c1.3,0,2.4,1.1,2.5,2.5v66.7C647.4,160.8,646.3,161.8,645,161.8z M600.5,115.2h1l0.2,0.2l40.6,44.8c0.3,0.3,0.8,0.5,1.3,0.5h1.4
		c0.7,0,1.2-0.5,1.3-1.2V92.7c0-0.7-0.6-1.3-1.3-1.3h-9.1c-0.7,0-1.3,0.6-1.3,1.3v41.5h-1L593,91c-0.3-0.4-0.8-0.5-1.3-0.5h-1.5
		c-0.7,0-1.2,0.5-1.3,1.2v66.7c0,0.7,0.6,1.3,1.3,1.4h9c0.7,0,1.3-0.6,1.3-1.3c0,0,0,0,0,0L600.5,115.2z"/>
	<path class="st1" d="M691,160.9h-9.2c-1.3,0-2.4-1.1-2.5-2.5v-55.1h-14.6c-1.4,0-2.5-1.1-2.5-2.5v-8.2c0-1.4,1.1-2.5,2.5-2.5h43.3
		c1.4,0,2.5,1.1,2.5,2.5v8.2c0,1.4-1.1,2.5-2.5,2.5h-14.6v55C693.5,159.7,692.4,160.9,691,160.9z M664.8,91.5
		c-0.7,0-1.3,0.6-1.3,1.3v8.2c0,0.7,0.6,1.3,1.3,1.3h15.7v56.2c0,0.7,0.6,1.3,1.3,1.3h9.2c0.7,0,1.3-0.6,1.3-1.3v-56.3h15.7
		c0.7,0,1.3-0.6,1.3-1.3v-8.2c0-0.7-0.6-1.3-1.3-1.3L664.8,91.5z"/>
	<path class="st1" d="M768.2,160.9h-40.3c-1.4,0-2.5-1.1-2.5-2.5V92.7c0-1.4,1.1-2.5,2.5-2.5h40.3c1.4,0,2.5,1.1,2.5,2.5v8.2
		c0,1.4-1.1,2.5-2.5,2.5h-28.8v15.1h23.9c1.3,0,2.4,1.1,2.5,2.5v8.2c0,1.4-1.1,2.5-2.5,2.5h-23.9v16.2h28.8c1.4,0,2.5,1.1,2.5,2.5
		v8.2C770.7,159.7,769.6,160.9,768.2,160.9C768.2,160.9,768.2,160.9,768.2,160.9z M727.8,91.5c-0.7,0-1.3,0.6-1.3,1.3v65.6
		c0,0.7,0.6,1.3,1.3,1.3c0,0,0,0,0,0h40.3c0.7,0,1.3-0.6,1.3-1.3c0,0,0,0,0,0v-8.2c0-0.7-0.6-1.3-1.3-1.3h-29.9v-18.5h25.1
		c0.7,0,1.3-0.6,1.3-1.3V121c0-0.7-0.6-1.3-1.3-1.3h-25.1v-17.5h29.9c0.7,0,1.3-0.6,1.3-1.3c0,0,0,0,0,0v-8.2c0-0.7-0.6-1.3-1.3-1.3
		L727.8,91.5z"/>
	<path class="st1" d="M818.6,161.8c-20,0-36.3-16.2-36.3-36.3c0-20,16.2-36.3,36.3-36.3c0,0,0,0,0,0c9-0.2,17.8,3.1,24.4,9.3
		c1,0.9,1.2,2.4,0.3,3.4c-0.1,0.1-0.1,0.1-0.2,0.2l-6,6.3c-0.4,0.5-0.9,0.7-1.6,0.8c-0.7,0-1.3-0.3-1.8-0.8
		c-4.1-3.6-9.4-5.6-14.9-5.7c-12.1,0-21.5,9.9-21.5,22.5s9.5,22.3,21.6,22.3c5.4,0,10.7-2,14.8-5.5c0.9-0.8,2.3-0.8,3.3,0l6.2,6.4
		c0.4,0.4,0.7,0.9,0.7,1.5c0,0.7-0.3,1.4-0.8,2C836.6,158.4,827.8,161.9,818.6,161.8z M818.6,90.5c-19.4,0-35.1,15.7-35.1,35.1
		c0,19.4,15.7,35.1,35.1,35.1c0,0,0,0,0,0c8.8,0.1,17.3-3.3,23.7-9.4c0.3-0.3,0.5-0.7,0.4-1.2c0-0.3-0.1-0.5-0.3-0.7l-6.2-6.4
		c-0.5-0.4-1.2-0.4-1.7,0c-4.3,3.7-9.8,5.8-15.5,5.8c-12.8,0-22.8-10.3-22.8-23.5s10-23.7,22.7-23.7c5.8,0.1,11.3,2.2,15.7,6
		c0.2,0.3,0.6,0.4,0.9,0.4c0.3,0,0.6-0.2,0.7-0.4l6.1-6.3c0.3-0.3,0.4-0.6,0.4-1c0-0.4-0.2-0.7-0.5-1
		C835.9,93.5,827.4,90.2,818.6,90.5z"/>
	<path class="st1" d="M898.2,160.9h-36.3c-1.4,0-2.5-1.1-2.5-2.5V92.7c0-1.4,1.1-2.5,2.5-2.5h9.1c1.3,0,2.4,1.1,2.5,2.5v55h24.7
		c1.4,0,2.5,1.1,2.5,2.5v8.2C900.7,159.8,899.6,160.9,898.2,160.9L898.2,160.9z M861.9,91.5c-0.7,0-1.3,0.6-1.3,1.3v65.6
		c0,0.7,0.6,1.3,1.3,1.3c0,0,0,0,0,0h36.3c0.7,0,1.3-0.6,1.3-1.3c0,0,0,0,0,0v-8.2c0-0.7-0.6-1.3-1.3-1.3h-25.9V92.7
		c0-0.7-0.6-1.3-1.3-1.3L861.9,91.5z"/>
	<path class="st1" d="M926.2,160.9h-9.2c-1.3,0-2.4-1.1-2.5-2.5V92.7c0-1.3,1.1-2.4,2.5-2.5h9.2c1.3,0,2.4,1.1,2.5,2.5v65.6
		C928.6,159.7,927.5,160.9,926.2,160.9z M916.9,91.5c-0.7,0-1.3,0.6-1.3,1.3v65.6c0,0.7,0.6,1.3,1.3,1.3h9.2c0.7,0,1.3-0.6,1.3-1.3
		V92.7c0-0.7-0.6-1.3-1.3-1.3L916.9,91.5z"/>
	<path class="st1" d="M992,160.9h-40.4c-1.4,0-2.5-1.1-2.5-2.5V92.7c0-1.4,1.1-2.5,2.5-2.5H992c1.4,0,2.5,1.1,2.5,2.5v8.2
		c0,1.4-1.1,2.5-2.5,2.5h-28.8v15.1h23.9c1.3,0,2.4,1.1,2.5,2.5v8.2c0,1.4-1.1,2.5-2.5,2.5h-23.9v16.2H992c1.4,0,2.5,1.1,2.5,2.5
		v8.2C994.5,159.7,993.4,160.9,992,160.9C992,160.9,992,160.9,992,160.9z M951.6,91.5c-0.7,0-1.3,0.6-1.3,1.3v65.6
		c0,0.7,0.6,1.3,1.3,1.3H992c0.7,0,1.3-0.6,1.3-1.3c0,0,0,0,0,0v-8.2c0-0.7-0.6-1.3-1.3-1.3h-29.9v-18.5h25.1c0.7,0,1.3-0.6,1.3-1.3
		V121c0-0.7-0.6-1.3-1.3-1.3h-25.1v-17.5H992c0.7,0,1.3-0.6,1.3-1.3v-8.2c0-0.7-0.6-1.3-1.3-1.3L951.6,91.5z"/>
	<path class="st1" d="M1068.5,161.8h-1.4c-0.8,0-1.6-0.3-2.1-0.9l-39.8-43.9v41.3c0,1.4-1.1,2.5-2.5,2.5h-9c-1.3,0-2.4-1.1-2.5-2.5
		V91.7c0.1-1.3,1.1-2.3,2.5-2.3h1.5c0.8,0,1.5,0.3,2.1,0.9l39.7,42.3V92.8c0-1.4,1.1-2.5,2.5-2.5h9.1c1.3,0,2.4,1.1,2.5,2.5v66.7
		C1070.9,160.8,1069.8,161.8,1068.5,161.8z M1024,115.2h1l0.2,0.2l40.6,44.8c0.3,0.3,0.8,0.5,1.3,0.5h1.4c0.7,0,1.2-0.5,1.3-1.2
		V92.7c0-0.7-0.6-1.3-1.3-1.3h-9.1c-0.7,0-1.3,0.6-1.3,1.3v41.5h-1l-0.2-0.2l-40.4-43.1c-0.3-0.4-0.8-0.5-1.3-0.5h-1.5
		c-0.7,0-1.2,0.5-1.3,1.2v66.7c0,0.7,0.6,1.3,1.3,1.3h9c0.7,0,1.3-0.6,1.3-1.3L1024,115.2z"/>
	<path class="st1" d="M1114.5,160.9h-9.2c-1.3,0-2.4-1.1-2.5-2.5v-55.1h-14.6c-1.4,0-2.5-1.1-2.5-2.5v-8.2c0-1.4,1.1-2.5,2.5-2.5
		h43.3c1.4,0,2.5,1.1,2.5,2.5v8.2c0,1.4-1.1,2.5-2.5,2.5H1117v55C1117,159.8,1115.9,160.9,1114.5,160.9z M1088.2,91.5
		c-0.7,0-1.3,0.6-1.3,1.3v8.2c0,0.7,0.6,1.3,1.3,1.3h15.8v56.2c0,0.7,0.6,1.3,1.4,1.3h9.2c0.7,0,1.3-0.6,1.3-1.3v-56.2h15.8
		c0.7,0,1.3-0.6,1.3-1.3v-8.2c0-0.7-0.6-1.3-1.3-1.3L1088.2,91.5z"/>
	<path class="st1" d="M1191.6,160.9h-40.4c-1.4,0-2.5-1.1-2.5-2.5V92.7c0-1.4,1.1-2.5,2.5-2.5h40.4c1.4,0,2.5,1.1,2.5,2.5v8.2
		c0,1.4-1.1,2.5-2.5,2.5h-28.8v15.1h23.9c1.4,0,2.4,1.1,2.5,2.5v8.2c0,1.4-1.1,2.5-2.5,2.5h-23.9v16.2h28.8c1.4,0,2.5,1.1,2.5,2.5
		v8.2C1194.1,159.7,1193.1,160.9,1191.6,160.9C1191.7,160.9,1191.7,160.9,1191.6,160.9z M1151.3,91.5c-0.7,0-1.3,0.6-1.3,1.3v65.6
		c0,0.7,0.6,1.3,1.3,1.3c0,0,0,0,0,0h40.4c0.7,0,1.3-0.6,1.3-1.3v-8.2c0-0.7-0.6-1.3-1.3-1.3c0,0,0,0,0,0h-29.9v-18.5h25.1
		c0.7,0,1.3-0.6,1.3-1.3V121c0-0.7-0.6-1.3-1.3-1.3h-25.1v-17.5h29.9c0.7,0,1.3-0.6,1.3-1.3v-8.2c0-0.7-0.6-1.3-1.3-1.3L1151.3,91.5
		z"/>
	<path class="st1" d="M1242.1,161.8c-20,0-36.3-16.2-36.3-36.3s16.2-36.3,36.3-36.3c0,0,0,0,0,0c9-0.2,17.8,3.1,24.4,9.3
		c0.5,0.5,0.8,1.1,0.9,1.8c0,0.7-0.3,1.3-0.8,1.8l-6,6.2c-0.4,0.5-0.9,0.7-1.6,0.8c-0.7,0-1.3-0.3-1.8-0.8
		c-4.1-3.6-9.4-5.6-14.8-5.7c-12.1,0-21.5,9.9-21.5,22.5s9.5,22.3,21.6,22.3c5.4,0,10.7-2,14.8-5.5c0.9-0.8,2.3-0.8,3.3,0l6.1,6.4
		c0.4,0.4,0.7,0.9,0.7,1.5c0,0.7-0.3,1.4-0.8,2C1260,158.4,1251.2,161.9,1242.1,161.8z M1242.1,90.5c-19.4,0-35.1,15.7-35.1,35.1
		c0,19.4,15.7,35.1,35.1,35.1c0,0,0,0,0,0c8.8,0.1,17.4-3.3,23.7-9.4c0.3-0.3,0.5-0.7,0.4-1.2c0-0.3-0.1-0.5-0.3-0.7l-6.2-6.4
		c-0.5-0.4-1.2-0.4-1.7,0c-4.3,3.7-9.8,5.8-15.6,5.8c-12.8,0-22.8-10.3-22.8-23.5s10-23.7,22.7-23.7c5.8,0.1,11.3,2.2,15.7,6
		c0.2,0.3,0.6,0.4,0.9,0.4c0.3,0,0.6-0.2,0.7-0.4l6.1-6.3c0.3-0.3,0.4-0.6,0.4-1c0-0.4-0.2-0.7-0.5-1
		C1259.3,93.5,1250.8,90.2,1242.1,90.5z"/>
	<path class="st1" d="M1321.7,160.9h-36.3c-1.4,0-2.5-1.1-2.5-2.5V92.7c0-1.4,1.1-2.5,2.5-2.5h9.1c1.3,0,2.4,1.1,2.5,2.5v55h24.7
		c1.4,0,2.5,1.1,2.5,2.5v8.2C1324.1,159.8,1323,160.9,1321.7,160.9z M1285.4,91.5c-0.7,0-1.3,0.6-1.3,1.3v65.6
		c0,0.7,0.6,1.3,1.3,1.3h36.3c0.7,0,1.3-0.6,1.3-1.3v-8.2c0-0.7-0.6-1.3-1.3-1.3h-25.9V92.7c0-0.7-0.6-1.3-1.3-1.3L1285.4,91.5z"/>
</g>
</svg>
