<svg id="Capa_1" data-name="Capa 1" xmlns="http://www.w3.org/2000/svg" viewBox="0 0 1213.78 165.9"><defs><style>.cls-1{opacity:0.59;}.cls-2{fill:#fff;}</style></defs><g class="cls-1"><path class="cls-2" d="M61.22,165.35H60a2.55,2.55,0,0,1-1.91-.79l-36.24-40v37.6a2.25,2.25,0,0,1-2.25,2.25h-8.2a2.31,2.31,0,0,1-2.25-2.25V101.51a2.23,2.23,0,0,1,2.25-2.15h1.35a2.52,2.52,0,0,1,1.91.79L50.68,138.6V102.5a2.25,2.25,0,0,1,2.25-2.24h8.29a2.31,2.31,0,0,1,2.25,2.24v60.69A2.24,2.24,0,0,1,61.22,165.35ZM20.74,122.9h1l.16.17,37,40.76a1.43,1.43,0,0,0,1.14.46h1.26a1.18,1.18,0,0,0,1.19-1.1V102.5a1.25,1.25,0,0,0-1.19-1.18H52.93a1.2,1.2,0,0,0-1.19,1.18v37.78H50.8l-36.95-39.4a1.43,1.43,0,0,0-1.14-.46H11.36a1.18,1.18,0,0,0-1.19,1.09V162.2a1.26,1.26,0,0,0,1.19,1.19h8.2a1.19,1.19,0,0,0,1.18-1.19Z" transform="translate(-4.32 0.55)"/><path class="cls-2" d="M111.45,165.35a32.57,32.57,0,0,1-32.91-32.91,33,33,0,1,1,65.9,0A32.6,32.6,0,0,1,111.45,165.35Zm0-64.93a32,32,0,0,0-31.85,32,31.89,31.89,0,0,0,63.78,0A32,32,0,0,0,111.45,100.42Zm0,53.2a21.27,21.27,0,1,1,21.27-21.18A21.21,21.21,0,0,1,111.45,153.62Zm0-41.48a20.21,20.21,0,1,0,20.21,20.3A20.53,20.53,0,0,0,111.45,112.14Z" transform="translate(-4.32 0.55)"/><path class="cls-2" d="M194.76,164.45h-33a2.24,2.24,0,0,1-2.24-2.25V102.5a2.24,2.24,0,0,1,2.24-2.24h8.3a2.3,2.3,0,0,1,2.24,2.24v50.06h22.46a2.25,2.25,0,0,1,2.25,2.25v7.39A2.25,2.25,0,0,1,194.76,164.45Zm-33-63.13a1.19,1.19,0,0,0-1.18,1.18v59.7a1.19,1.19,0,0,0,1.18,1.19h33A1.2,1.2,0,0,0,196,162.2v-7.39a1.2,1.2,0,0,0-1.19-1.19H171.24V102.5a1.25,1.25,0,0,0-1.18-1.18Z" transform="translate(-4.32 0.55)"/><path class="cls-2" d="M237.05,165.35a32.56,32.56,0,0,1-32.9-32.91,33,33,0,1,1,65.9,0A32.61,32.61,0,0,1,237.05,165.35Zm0-64.93a32,32,0,0,0-31.84,32,31.89,31.89,0,0,0,63.78,0A32,32,0,0,0,237.05,100.42Zm0,53.2a21.27,21.27,0,1,1,21.27-21.18A21.2,21.2,0,0,1,237.05,153.62Zm0-41.48a20.21,20.21,0,1,0,20.21,20.3A20.53,20.53,0,0,0,237.05,112.14Z" transform="translate(-4.32 0.55)"/><path class="cls-2" d="M314.33,165.26a32.52,32.52,0,0,1-32.91-32.82,33,33,0,0,1,32.91-33.08,34.65,34.65,0,0,1,22.35,8.51,2.54,2.54,0,0,1,.77,1.64,2.21,2.21,0,0,1-.65,1.67L331.21,117a2.06,2.06,0,0,1-3.08,0,19.76,19.76,0,0,0-13.26-5.1c-10.85,0-19.67,9.15-19.67,20.39A20,20,0,0,0,315,152.47a27.41,27.41,0,0,0,10.2-2.08v-6.78h-6.68a2.18,2.18,0,0,1-2.25-2.15v-7.12a2.2,2.2,0,0,1,2.25-2.25h17.31a2.23,2.23,0,0,1,2.15,2.25v23.08a2.25,2.25,0,0,1-.93,1.87A46.52,46.52,0,0,1,314.33,165.26Zm0-64.84a32,32,0,0,0-31.85,32,31.47,31.47,0,0,0,31.85,31.76,45.53,45.53,0,0,0,22.08-5.78,1.19,1.19,0,0,0,.47-1V134.34a1.18,1.18,0,0,0-1.09-1.19H318.48a1.14,1.14,0,0,0-1.19,1.19v7.12a1.12,1.12,0,0,0,1.19,1.09h7.74v8.56l-.33.13A28.78,28.78,0,0,1,315,153.53a21,21,0,0,1-20.82-21.18c0-11.83,9.3-21.45,20.73-21.45a20.88,20.88,0,0,1,14,5.36,1,1,0,0,0,1.62,0l5.58-5.86a1.12,1.12,0,0,0,.35-.87,1.44,1.44,0,0,0-.43-.91A33.56,33.56,0,0,0,314.33,100.42Z" transform="translate(-4.32 0.55)"/><path class="cls-2" d="M365,164.45h-8.38a2.31,2.31,0,0,1-2.25-2.25V102.5a2.31,2.31,0,0,1,2.25-2.24H365a2.31,2.31,0,0,1,2.25,2.24v59.7A2.31,2.31,0,0,1,365,164.45Zm-8.38-63.13a1.25,1.25,0,0,0-1.19,1.18v59.7a1.26,1.26,0,0,0,1.19,1.19H365a1.25,1.25,0,0,0,1.18-1.19V102.5a1.25,1.25,0,0,0-1.18-1.18Zm-3.21-5.46a3.53,3.53,0,0,1-2.85-2.12c-.69-1.37-.79-3.35.16-4L366,79.61a3.07,3.07,0,0,1,2.54-.35,5.14,5.14,0,0,1,3.1,2.72,6,6,0,0,1,.66,4.46A2.6,2.6,0,0,1,370.91,88l-16.69,7.67A1.91,1.91,0,0,1,353.41,95.86Zm-2.08-5.27a2.84,2.84,0,0,0,.17,2.66c.6,1.12,1.6,1.78,2.28,1.47l16.68-7.67a1.51,1.51,0,0,0,.8-1,4.93,4.93,0,0,0-.6-3.64,4.08,4.08,0,0,0-2.43-2.18,2.09,2.09,0,0,0-1.68.22Z" transform="translate(-4.32 0.55)"/><path class="cls-2" d="M437.32,164.45h-7.84a3.11,3.11,0,0,1-3.09-2.1l-4.29-9.45H395.82l-4.28,9.43a3.21,3.21,0,0,1-3.1,2.12H380.6a2.13,2.13,0,0,1-2-3.1l28.05-60.69a2.14,2.14,0,0,1,2-1.3h.91a2.06,2.06,0,0,1,2,1.28l27.79,60.71a2.12,2.12,0,0,1-2,3.1Zm-42.18-12.61h27.64l4.56,10c.58,1.16,1.06,1.5,2.14,1.5h7.84a1.18,1.18,0,0,0,1-.49,1.15,1.15,0,0,0,0-1.11L410.6,101.1a1,1,0,0,0-1.05-.68h-.91a1.09,1.09,0,0,0-1.05.7l-28,60.67a1.15,1.15,0,0,0,0,1.11,1.18,1.18,0,0,0,1,.49h7.84a2.22,2.22,0,0,0,2.13-1.47Zm23.71-9H399.08l9.31-20.9h1Zm-18.14-1.06H417.2l-8.33-18.31Z" transform="translate(-4.32 0.55)"/><path class="cls-2" d="M467.53,164.45h-8.39a2.3,2.3,0,0,1-2.24-2.25V112.14H443.63a2.24,2.24,0,0,1-2.25-2.24v-7.4a2.25,2.25,0,0,1,2.25-2.24H483a2.25,2.25,0,0,1,2.24,2.24v7.4a2.24,2.24,0,0,1-2.24,2.24H469.77V162.2A2.31,2.31,0,0,1,467.53,164.45Zm-23.9-63.13a1.19,1.19,0,0,0-1.18,1.18v7.4a1.18,1.18,0,0,0,1.18,1.18H458V162.2a1.25,1.25,0,0,0,1.18,1.19h8.39a1.25,1.25,0,0,0,1.18-1.19V111.08H483a1.18,1.18,0,0,0,1.18-1.18v-7.4a1.19,1.19,0,0,0-1.18-1.18Z" transform="translate(-4.32 0.55)"/><path class="cls-2" d="M537.68,164.45H501a2.25,2.25,0,0,1-2.25-2.25V102.5a2.25,2.25,0,0,1,2.25-2.24h36.7a2.24,2.24,0,0,1,2.24,2.24v7.4a2.24,2.24,0,0,1-2.24,2.24H511.52v13.73h21.74a2.3,2.3,0,0,1,2.24,2.24v7.49a2.24,2.24,0,0,1-2.24,2.24H511.52v14.72h26.16a2.24,2.24,0,0,1,2.24,2.25v7.39A2.24,2.24,0,0,1,537.68,164.45ZM501,101.32a1.2,1.2,0,0,0-1.19,1.18v59.7a1.2,1.2,0,0,0,1.19,1.19h36.7a1.19,1.19,0,0,0,1.18-1.19v-7.39a1.19,1.19,0,0,0-1.18-1.19H510.46V136.78h22.8a1.18,1.18,0,0,0,1.18-1.18v-7.49a1.25,1.25,0,0,0-1.18-1.18h-22.8V111.08h27.22a1.18,1.18,0,0,0,1.18-1.18v-7.4a1.19,1.19,0,0,0-1.18-1.18Z" transform="translate(-4.32 0.55)"/><path class="cls-2" d="M583.57,165.35a33,33,0,1,1,0-66,31.11,31.11,0,0,1,22.18,8.52,2.27,2.27,0,0,1,.8,1.64,2.24,2.24,0,0,1-.69,1.66l-5.49,5.67a1.92,1.92,0,0,1-1.42.7,2.27,2.27,0,0,1-1.59-.69,20.75,20.75,0,0,0-13.51-5.17c-11,0-19.58,9-19.58,20.48s8.64,20.3,19.67,20.3a21.08,21.08,0,0,0,13.46-5,2.17,2.17,0,0,1,3,0l5.6,5.78a1.84,1.84,0,0,1,.61,1.37,2.46,2.46,0,0,1-.71,1.81A31.36,31.36,0,0,1,583.57,165.35Zm0-64.93a31.94,31.94,0,1,0,0,63.87,30.35,30.35,0,0,0,21.55-8.6,1.4,1.4,0,0,0,.39-1,.87.87,0,0,0-.28-.65l-5.62-5.8a1.14,1.14,0,0,0-1.53,0,22,22,0,0,1-14.14,5.27c-11.63,0-20.73-9.38-20.73-21.36s9.06-21.54,20.64-21.54a21.87,21.87,0,0,1,14.23,5.45,1.08,1.08,0,0,0,.84.41,1,1,0,0,0,.67-.36l5.52-5.7a1.23,1.23,0,0,0,.38-.88,1.21,1.21,0,0,0-.44-.88A30.12,30.12,0,0,0,583.57,100.42Z" transform="translate(-4.32 0.55)"/><path class="cls-2" d="M672.84,165.35h-1.26a2.55,2.55,0,0,1-1.91-.79l-36.24-40v37.6a2.25,2.25,0,0,1-2.25,2.25H623a2.31,2.31,0,0,1-2.25-2.25V101.51A2.23,2.23,0,0,1,623,99.36h1.35a2.52,2.52,0,0,1,1.91.79L662.3,138.6V102.5a2.25,2.25,0,0,1,2.25-2.24h8.29a2.31,2.31,0,0,1,2.25,2.24v60.69A2.24,2.24,0,0,1,672.84,165.35ZM632.36,122.9h.95l.16.17,37,40.76a1.43,1.43,0,0,0,1.14.46h1.26a1.18,1.18,0,0,0,1.19-1.1V102.5a1.25,1.25,0,0,0-1.19-1.18h-8.29a1.19,1.19,0,0,0-1.18,1.18v37.78h-1l-.15-.17-36.79-39.23a1.47,1.47,0,0,0-1.15-.46H623a1.18,1.18,0,0,0-1.19,1.09V162.2a1.26,1.26,0,0,0,1.19,1.19h8.2a1.19,1.19,0,0,0,1.18-1.19Z" transform="translate(-4.32 0.55)"/><path class="cls-2" d="M723.07,165.35a32.57,32.57,0,0,1-32.91-32.91,33,33,0,1,1,65.9,0A32.6,32.6,0,0,1,723.07,165.35Zm0-64.93a32,32,0,0,0-31.85,32,31.89,31.89,0,0,0,63.78,0A32,32,0,0,0,723.07,100.42Zm0,53.2a21.27,21.27,0,1,1,21.27-21.18A21.2,21.2,0,0,1,723.07,153.62Zm0-41.48a20.21,20.21,0,1,0,20.21,20.3A20.53,20.53,0,0,0,723.07,112.14Z" transform="translate(-4.32 0.55)"/><path class="cls-2" d="M806.38,164.45h-33a2.24,2.24,0,0,1-2.24-2.25V102.5a2.24,2.24,0,0,1,2.24-2.24h8.3a2.3,2.3,0,0,1,2.24,2.24v50.06h22.46a2.25,2.25,0,0,1,2.25,2.25v7.39A2.25,2.25,0,0,1,806.38,164.45Zm-33-63.13a1.19,1.19,0,0,0-1.18,1.18v59.7a1.19,1.19,0,0,0,1.18,1.19h33a1.2,1.2,0,0,0,1.19-1.19v-7.39a1.2,1.2,0,0,0-1.19-1.19H782.86V102.5a1.25,1.25,0,0,0-1.18-1.18Z" transform="translate(-4.32 0.55)"/><path class="cls-2" d="M848.76,165.35a32.56,32.56,0,0,1-32.9-32.91,33,33,0,1,1,65.9,0A32.61,32.61,0,0,1,848.76,165.35Zm0-64.93a32,32,0,0,0-31.84,32,31.89,31.89,0,0,0,63.78,0A32,32,0,0,0,848.76,100.42Zm0,53.2A21.27,21.27,0,1,1,870,132.44,21.2,21.2,0,0,1,848.76,153.62Zm0-41.48A20.21,20.21,0,1,0,869,132.44,20.53,20.53,0,0,0,848.76,112.14Z" transform="translate(-4.32 0.55)"/><path class="cls-2" d="M926,165.26a32.52,32.52,0,0,1-32.91-32.82A33,33,0,0,1,926,99.36a34.65,34.65,0,0,1,22.35,8.51,2.46,2.46,0,0,1,.77,1.75,2.22,2.22,0,0,1-.65,1.56L942.92,117a2.06,2.06,0,0,1-3.08,0,19.76,19.76,0,0,0-13.26-5.1c-10.85,0-19.67,9.15-19.67,20.39a20,20,0,0,0,19.76,20.12,27.41,27.41,0,0,0,10.2-2.08v-6.78h-6.68a2.18,2.18,0,0,1-2.25-2.15v-7.12a2.2,2.2,0,0,1,2.25-2.25H947.5a2.23,2.23,0,0,1,2.15,2.25v23.08a2.25,2.25,0,0,1-.93,1.87A46.52,46.52,0,0,1,926,165.26Zm0-64.84a32,32,0,0,0-31.85,32A31.47,31.47,0,0,0,926,164.2a45.53,45.53,0,0,0,22.08-5.78,1.19,1.19,0,0,0,.47-1V134.34a1.18,1.18,0,0,0-1.09-1.19H930.19a1.14,1.14,0,0,0-1.19,1.19v7.12a1.12,1.12,0,0,0,1.19,1.09h7.74v8.56l-.33.13a28.78,28.78,0,0,1-10.93,2.29,21,21,0,0,1-20.82-21.18c0-11.83,9.3-21.45,20.73-21.45a20.88,20.88,0,0,1,14,5.36c.6.54,1.1.55,1.62,0l5.58-5.86a1.13,1.13,0,0,0,.35-.81,1.37,1.37,0,0,0-.43-1A33.56,33.56,0,0,0,926,100.42Z" transform="translate(-4.32 0.55)"/><path class="cls-2" d="M976.71,164.45h-8.38a2.31,2.31,0,0,1-2.25-2.25V102.5a2.31,2.31,0,0,1,2.25-2.24h8.38A2.31,2.31,0,0,1,979,102.5v59.7A2.31,2.31,0,0,1,976.71,164.45Zm-8.38-63.13a1.25,1.25,0,0,0-1.19,1.18v59.7a1.26,1.26,0,0,0,1.19,1.19h8.38a1.25,1.25,0,0,0,1.18-1.19V102.5a1.25,1.25,0,0,0-1.18-1.18Zm-3.21-5.46a3.51,3.51,0,0,1-2.85-2.12c-.69-1.37-.79-3.35.16-4h0l15.24-10.1a3.09,3.09,0,0,1,2.55-.35A5.15,5.15,0,0,1,983.32,82a6,6,0,0,1,.66,4.46A2.6,2.6,0,0,1,982.62,88l-16.69,7.67A1.91,1.91,0,0,1,965.12,95.86ZM963,90.59a2.84,2.84,0,0,0,.17,2.66c.6,1.12,1.6,1.78,2.28,1.47l16.68-7.67a1.51,1.51,0,0,0,.8-1,4.93,4.93,0,0,0-.6-3.64A4.1,4.1,0,0,0,980,80.28a2.11,2.11,0,0,0-1.69.22Z" transform="translate(-4.32 0.55)"/><path class="cls-2" d="M1049,164.45h-7.84a3.11,3.11,0,0,1-3.09-2.1l-4.29-9.45h-26.28l-4.28,9.43a3.2,3.2,0,0,1-3.09,2.12h-7.85a2.21,2.21,0,0,1-1.92-1,2.16,2.16,0,0,1-.09-2.12l28-60.69a2.15,2.15,0,0,1,2-1.3h.9a2.07,2.07,0,0,1,2,1.28l27.78,60.71a2.12,2.12,0,0,1-2,3.1Zm-42.18-12.61h27.65l4.55,10c.58,1.16,1.06,1.5,2.14,1.5H1049a1.18,1.18,0,0,0,1-.49,1.12,1.12,0,0,0,0-1.11l-27.77-60.69a1,1,0,0,0-1-.68h-.9a1.1,1.1,0,0,0-1.06.7l-28,60.67a1.15,1.15,0,0,0,0,1.11,1.18,1.18,0,0,0,1,.49h7.85a2.21,2.21,0,0,0,2.12-1.47Zm23.71-9h-19.77l9.31-20.9h1Zm-18.13-1.06h16.48l-8.32-18.31Z" transform="translate(-4.32 0.55)"/><path class="cls-2" d="M1079.15,164.45h-8.39a2.3,2.3,0,0,1-2.24-2.25V112.14h-13.27a2.24,2.24,0,0,1-2.25-2.24v-7.4a2.25,2.25,0,0,1,2.25-2.24h39.41a2.25,2.25,0,0,1,2.24,2.24v7.4a2.24,2.24,0,0,1-2.24,2.24h-13.27V162.2A2.31,2.31,0,0,1,1079.15,164.45Zm-23.9-63.13a1.19,1.19,0,0,0-1.18,1.18v7.4a1.18,1.18,0,0,0,1.18,1.18h14.33V162.2a1.25,1.25,0,0,0,1.18,1.19h8.39a1.25,1.25,0,0,0,1.18-1.19V111.08h14.33a1.18,1.18,0,0,0,1.18-1.18v-7.4a1.19,1.19,0,0,0-1.18-1.18Z" transform="translate(-4.32 0.55)"/><path class="cls-2" d="M1149.21,164.45h-36.7a2.25,2.25,0,0,1-2.25-2.25V102.5a2.25,2.25,0,0,1,2.25-2.24h36.7a2.24,2.24,0,0,1,2.24,2.24v7.4a2.24,2.24,0,0,1-2.24,2.24h-26.16v13.73h21.74a2.31,2.31,0,0,1,2.25,2.24v7.49a2.24,2.24,0,0,1-2.25,2.24h-21.74v14.72h26.16a2.24,2.24,0,0,1,2.24,2.25v7.39A2.24,2.24,0,0,1,1149.21,164.45Zm-36.7-63.13a1.2,1.2,0,0,0-1.19,1.18v59.7a1.2,1.2,0,0,0,1.19,1.19h36.7a1.19,1.19,0,0,0,1.18-1.19v-7.39a1.19,1.19,0,0,0-1.18-1.19H1122V136.78h22.8a1.18,1.18,0,0,0,1.18-1.18v-7.49a1.25,1.25,0,0,0-1.18-1.18H1122V111.08h27.22a1.18,1.18,0,0,0,1.18-1.18v-7.4a1.19,1.19,0,0,0-1.18-1.18Z" transform="translate(-4.32 0.55)"/><path class="cls-2" d="M1195.1,165.35a33,33,0,1,1,0-66,31.11,31.11,0,0,1,22.18,8.52,2.27,2.27,0,0,1,.8,1.64,2.24,2.24,0,0,1-.69,1.66l-5.49,5.67a2,2,0,0,1-1.42.7,2.22,2.22,0,0,1-1.59-.69,20.77,20.77,0,0,0-13.51-5.17c-11,0-19.58,9-19.58,20.48s8.64,20.3,19.67,20.3a21.08,21.08,0,0,0,13.46-5,2.17,2.17,0,0,1,3,0l5.6,5.78a1.84,1.84,0,0,1,.61,1.38,2.43,2.43,0,0,1-.71,1.8A31.36,31.36,0,0,1,1195.1,165.35Zm0-64.93a31.94,31.94,0,1,0,0,63.87,30.35,30.35,0,0,0,21.55-8.6,1.4,1.4,0,0,0,.39-1,.84.84,0,0,0-.28-.64l-5.62-5.81a1.16,1.16,0,0,0-1.53,0,22,22,0,0,1-14.14,5.27c-11.63,0-20.73-9.38-20.73-21.36s9.06-21.54,20.64-21.54a21.87,21.87,0,0,1,14.23,5.45,1.1,1.1,0,0,0,.84.41,1,1,0,0,0,.67-.36l5.52-5.7a1.23,1.23,0,0,0,.38-.88,1.25,1.25,0,0,0-.44-.88A30.12,30.12,0,0,0,1195.1,100.42Z" transform="translate(-4.32 0.55)"/><path class="cls-2" d="M19.83,31.93H6a1.72,1.72,0,0,1-1.72-1.72V22.82A1.71,1.71,0,0,1,6,21.11h39.4a1.72,1.72,0,0,1,1.72,1.71v7.39a1.73,1.73,0,0,1-1.72,1.72H31.65V82.52a1.78,1.78,0,0,1-1.72,1.71H21.55a1.77,1.77,0,0,1-1.72-1.71Z" transform="translate(-4.32 0.55)"/><path class="cls-2" d="M61.67,22.82a1.71,1.71,0,0,1,1.71-1.71h36.71a1.71,1.71,0,0,1,1.71,1.71v7.39a1.72,1.72,0,0,1-1.71,1.72H73.39V46.72H95.67a1.77,1.77,0,0,1,1.71,1.71v7.48a1.71,1.71,0,0,1-1.71,1.72H73.39V73.41h26.7a1.71,1.71,0,0,1,1.71,1.71v7.4a1.71,1.71,0,0,1-1.71,1.71H63.38a1.71,1.71,0,0,1-1.71-1.71Z" transform="translate(-4.32 0.55)"/><path class="cls-2" d="M146,20.2a30.51,30.51,0,0,1,21.82,8.39,1.66,1.66,0,0,1,.09,2.52l-5.5,5.69a1.44,1.44,0,0,1-2.25,0,21.33,21.33,0,0,0-13.89-5.32c-11.54,0-20.11,9.65-20.11,21s8.66,20.83,20.2,20.83a21.69,21.69,0,0,0,13.8-5.14,1.66,1.66,0,0,1,2.25,0L168,74a1.7,1.7,0,0,1-.09,2.43A30.9,30.9,0,0,1,146,85.13a32.47,32.47,0,1,1,0-64.93Z" transform="translate(-4.32 0.55)"/><path class="cls-2" d="M183.67,21.83a1.69,1.69,0,0,1,1.71-1.63h1.36a2,2,0,0,1,1.53.63l36.79,39.23h.18V22.82A1.71,1.71,0,0,1,227,21.11h8.3A1.77,1.77,0,0,1,237,22.82V83.51a1.69,1.69,0,0,1-1.71,1.62H234a2,2,0,0,1-1.53-.63l-37-40.76h-.18V82.52a1.71,1.71,0,0,1-1.71,1.71h-8.21a1.77,1.77,0,0,1-1.71-1.71Z" transform="translate(-4.32 0.55)"/><path class="cls-2" d="M285.47,20.2A32.47,32.47,0,1,1,253.1,52.76,32.41,32.41,0,0,1,285.47,20.2Zm0,53.21a20.74,20.74,0,1,0-20.65-20.65A20.78,20.78,0,0,0,285.47,73.41Z" transform="translate(-4.32 0.55)"/><path class="cls-2" d="M334.07,22.82a1.71,1.71,0,0,1,1.72-1.71h8.29a1.78,1.78,0,0,1,1.72,1.71V73.41h23a1.71,1.71,0,0,1,1.71,1.71v7.4a1.71,1.71,0,0,1-1.71,1.71h-33a1.71,1.71,0,0,1-1.72-1.71Z" transform="translate(-4.32 0.55)"/><path class="cls-2" d="M411.17,20.2A32.47,32.47,0,1,1,378.8,52.76,32.4,32.4,0,0,1,411.17,20.2Zm0,53.21a20.74,20.74,0,1,0-20.65-20.65A20.78,20.78,0,0,0,411.17,73.41Z" transform="translate(-4.32 0.55)"/><path class="cls-2" d="M488.45,20.2a34.09,34.09,0,0,1,22,8.39,1.74,1.74,0,0,1,.09,2.52L505,37a1.55,1.55,0,0,1-2.35,0A20.4,20.4,0,0,0,489,31.75c-11.28,0-20.2,9.65-20.2,20.92a20.51,20.51,0,0,0,20.29,20.65,28,28,0,0,0,10.73-2.26V63.4h-7.22a1.64,1.64,0,0,1-1.71-1.62V54.65a1.65,1.65,0,0,1,1.71-1.71h17.32a1.69,1.69,0,0,1,1.62,1.71V77.74a1.73,1.73,0,0,1-.72,1.44A45.58,45.58,0,0,1,488.45,85a32.42,32.42,0,0,1,0-64.84Z" transform="translate(-4.32 0.55)"/><path class="cls-2" d="M525.14,10.46,540.38.36c1.53-1,3.79,0,4.87,2.17s1.08,4.6-.45,5.32l-16.68,7.66c-1,.46-2.26-.36-3-1.71S524.51,10.92,525.14,10.46ZM529,22.82a1.77,1.77,0,0,1,1.71-1.71h8.39a1.77,1.77,0,0,1,1.71,1.71v59.7a1.77,1.77,0,0,1-1.71,1.71h-8.39A1.77,1.77,0,0,1,529,82.52Z" transform="translate(-4.32 0.55)"/><path class="cls-2" d="M553.09,81.89l28-60.69a1.61,1.61,0,0,1,1.53-1h.9a1.53,1.53,0,0,1,1.54,1l27.77,60.69a1.59,1.59,0,0,1-1.53,2.34H603.5a2.59,2.59,0,0,1-2.61-1.8l-4.42-9.74h-27l-4.42,9.74a2.73,2.73,0,0,1-2.62,1.8h-7.84A1.59,1.59,0,0,1,553.09,81.89Zm39-19.21-9-19.84h-.27l-8.84,19.84Z" transform="translate(-4.32 0.55)"/><path class="cls-2" d="M641.65,84.76h-8.39A2.3,2.3,0,0,1,631,82.52V32.46H617.75a2.25,2.25,0,0,1-2.24-2.25V22.82a2.25,2.25,0,0,1,2.24-2.25h39.41a2.25,2.25,0,0,1,2.25,2.25v7.39a2.25,2.25,0,0,1-2.25,2.25H643.9V82.52A2.31,2.31,0,0,1,641.65,84.76Zm-23.9-63.12a1.18,1.18,0,0,0-1.18,1.18v7.39a1.19,1.19,0,0,0,1.18,1.19h14.33V82.52a1.25,1.25,0,0,0,1.18,1.18h8.39a1.25,1.25,0,0,0,1.18-1.18V31.4h14.33a1.19,1.19,0,0,0,1.18-1.19V22.82a1.18,1.18,0,0,0-1.18-1.18Z" transform="translate(-4.32 0.55)"/><path class="cls-2" d="M711.71,84.76H675a2.25,2.25,0,0,1-2.24-2.24V22.82A2.25,2.25,0,0,1,675,20.57h36.7A2.25,2.25,0,0,1,714,22.82v7.39a2.25,2.25,0,0,1-2.25,2.25H685.55V46.18H707.3a2.31,2.31,0,0,1,2.24,2.25v7.48a2.25,2.25,0,0,1-2.24,2.25H685.55V72.88h26.16A2.24,2.24,0,0,1,714,75.12v7.4A2.25,2.25,0,0,1,711.71,84.76ZM675,21.64a1.18,1.18,0,0,0-1.18,1.18v59.7A1.18,1.18,0,0,0,675,83.7h36.7a1.18,1.18,0,0,0,1.19-1.18v-7.4a1.18,1.18,0,0,0-1.19-1.18H684.49V57.1H707.3a1.2,1.2,0,0,0,1.18-1.19V48.43a1.25,1.25,0,0,0-1.18-1.18H684.49V31.4h27.22a1.19,1.19,0,0,0,1.19-1.19V22.82a1.18,1.18,0,0,0-1.19-1.18Z" transform="translate(-4.32 0.55)"/><path class="cls-2" d="M757.61,85.66a33,33,0,1,1,0-66,31.08,31.08,0,0,1,22.18,8.53,2.21,2.21,0,0,1,.11,3.29l-5.5,5.67a1.92,1.92,0,0,1-1.41.71,2.25,2.25,0,0,1-1.6-.7A20.79,20.79,0,0,0,757.88,32c-11,0-19.58,9-19.58,20.48s8.64,20.3,19.67,20.3a21,21,0,0,0,13.46-5,2.2,2.2,0,0,1,3,0L780,73.58a1.9,1.9,0,0,1,.62,1.38,2.47,2.47,0,0,1-.71,1.8A31.37,31.37,0,0,1,757.61,85.66Zm0-64.93a31.94,31.94,0,1,0,0,63.87A30.27,30.27,0,0,0,779.15,76a1.42,1.42,0,0,0,.4-1,.89.89,0,0,0-.29-.65l-5.62-5.8a1.13,1.13,0,0,0-1.52,0A22.13,22.13,0,0,1,758,73.85c-11.62,0-20.73-9.38-20.73-21.36S746.31,31,757.88,31a21.84,21.84,0,0,1,14.24,5.45,1.11,1.11,0,0,0,.83.41.92.92,0,0,0,.67-.36l5.52-5.7a1.2,1.2,0,0,0,.38-.89,1.21,1.21,0,0,0-.44-.87A30.09,30.09,0,0,0,757.61,20.73Z" transform="translate(-4.32 0.55)"/><path class="cls-2" d="M846.88,85.66h-1.26a2.51,2.51,0,0,1-1.91-.78l-36.25-40v37.6a2.25,2.25,0,0,1-2.24,2.24H797a2.3,2.3,0,0,1-2.24-2.24V21.83A2.23,2.23,0,0,1,797,19.67h1.35a2.52,2.52,0,0,1,1.91.79l36.07,38.45V22.82a2.25,2.25,0,0,1,2.24-2.25h8.3a2.3,2.3,0,0,1,2.24,2.25V83.51A2.22,2.22,0,0,1,846.88,85.66ZM806.4,43.21h1l.15.17,37,40.76a1.43,1.43,0,0,0,1.14.46h1.26a1.17,1.17,0,0,0,1.18-1.09V22.82a1.24,1.24,0,0,0-1.18-1.18h-8.3a1.18,1.18,0,0,0-1.18,1.18V60.59h-.94l-.16-.17L799.51,21.2a1.44,1.44,0,0,0-1.15-.47H797a1.17,1.17,0,0,0-1.18,1.1V82.52A1.25,1.25,0,0,0,797,83.7h8.21a1.18,1.18,0,0,0,1.18-1.18Z" transform="translate(-4.32 0.55)"/><path class="cls-2" d="M897.1,85.66a32.55,32.55,0,0,1-32.9-32.9,33,33,0,1,1,65.9,0A32.6,32.6,0,0,1,897.1,85.66Zm0-64.93a32,32,0,0,0-31.84,32,31.89,31.89,0,0,0,63.78,0A32,32,0,0,0,897.1,20.73Zm0,53.21a21.27,21.27,0,1,1,21.27-21.18A21.2,21.2,0,0,1,897.1,73.94Zm0-41.48a20.21,20.21,0,1,0,20.21,20.3A20.52,20.52,0,0,0,897.1,32.46Z" transform="translate(-4.32 0.55)"/><path class="cls-2" d="M980.42,84.76h-33a2.25,2.25,0,0,1-2.24-2.24V22.82a2.25,2.25,0,0,1,2.24-2.25h8.3A2.3,2.3,0,0,1,958,22.82V72.88h22.47a2.24,2.24,0,0,1,2.24,2.24v7.4A2.24,2.24,0,0,1,980.42,84.76Zm-33-63.12a1.18,1.18,0,0,0-1.18,1.18v59.7a1.18,1.18,0,0,0,1.18,1.18h33a1.18,1.18,0,0,0,1.18-1.18v-7.4a1.18,1.18,0,0,0-1.18-1.18H956.89V22.82a1.24,1.24,0,0,0-1.18-1.18Z" transform="translate(-4.32 0.55)"/><path class="cls-2" d="M1022.8,85.66a32.56,32.56,0,0,1-32.91-32.9,33,33,0,1,1,65.9,0A32.59,32.59,0,0,1,1022.8,85.66Zm0-64.93a32,32,0,0,0-31.85,32,31.89,31.89,0,0,0,63.78,0A32,32,0,0,0,1022.8,20.73Zm0,53.21a21.27,21.27,0,1,1,21.27-21.18A21.2,21.2,0,0,1,1022.8,73.94Zm0-41.48A20.21,20.21,0,1,0,1043,52.76,20.53,20.53,0,0,0,1022.8,32.46Z" transform="translate(-4.32 0.55)"/><path class="cls-2" d="M1100.07,85.57a32.5,32.5,0,0,1-32.9-32.81,33,33,0,0,1,32.9-33.09,34.62,34.62,0,0,1,22.35,8.52,2.45,2.45,0,0,1,.78,1.75,2.19,2.19,0,0,1-.66,1.55L1117,37.34a2,2,0,0,1-3.08,0,19.8,19.8,0,0,0-13.27-5.09c-10.84,0-19.66,9.14-19.66,20.39a20,20,0,0,0,19.76,20.12,27.42,27.42,0,0,0,10.2-2.09V63.93h-6.69a2.17,2.17,0,0,1-2.24-2.15V54.65a2.19,2.19,0,0,1,2.24-2.24h17.32a2.23,2.23,0,0,1,2.15,2.24V77.74a2.24,2.24,0,0,1-.93,1.86A46.46,46.46,0,0,1,1100.07,85.57Zm0-64.84a32,32,0,0,0-31.84,32,31.46,31.46,0,0,0,31.84,31.75,45.51,45.51,0,0,0,22.09-5.78,1.19,1.19,0,0,0,.47-1V54.65a1.17,1.17,0,0,0-1.09-1.18h-17.32a1.13,1.13,0,0,0-1.18,1.18v7.13a1.12,1.12,0,0,0,1.18,1.09H1112v8.55l-.34.14a28.86,28.86,0,0,1-10.92,2.29,21,21,0,0,1-20.82-21.18c0-11.83,9.29-21.45,20.72-21.45a20.83,20.83,0,0,1,14,5.36,1,1,0,0,0,1.62,0l5.58-5.85a1.12,1.12,0,0,0,.36-.81,1.41,1.41,0,0,0-.44-1A33.57,33.57,0,0,0,1100.07,20.73Z" transform="translate(-4.32 0.55)"/><path class="cls-2" d="M1150.75,84.76h-8.39a2.3,2.3,0,0,1-2.24-2.24V22.82a2.31,2.31,0,0,1,2.24-2.25h8.39a2.31,2.31,0,0,1,2.24,2.25v59.7A2.3,2.3,0,0,1,1150.75,84.76Zm-8.39-63.12a1.24,1.24,0,0,0-1.18,1.18v59.7a1.25,1.25,0,0,0,1.18,1.18h8.39a1.25,1.25,0,0,0,1.18-1.18V22.82a1.24,1.24,0,0,0-1.18-1.18Zm-3.2-5.47a3.54,3.54,0,0,1-2.86-2.12c-.68-1.37-.78-3.34.16-4h0l15.24-10.1a3.15,3.15,0,0,1,2.54-.35,5.13,5.13,0,0,1,3.09,2.72,6,6,0,0,1,.66,4.46,2.56,2.56,0,0,1-1.36,1.58L1140,16A2.06,2.06,0,0,1,1139.16,16.17Zm-2.09-5.27a2.87,2.87,0,0,0,.17,2.66c.6,1.13,1.61,1.78,2.29,1.47l16.68-7.66a1.59,1.59,0,0,0,.8-1,5,5,0,0,0-.6-3.64A4.06,4.06,0,0,0,1154,.6a2,2,0,0,0-1.68.21Z" transform="translate(-4.32 0.55)"/></g></svg>