<svg xmlns="http://www.w3.org/2000/svg" viewBox="0 0 277.07 52.14"><defs><style>.cls-1{fill:#231f20;}</style></defs><g id="Layer_2" data-name="Layer 2"><g id="Layer_1-2" data-name="Layer 1"><path class="cls-1" d="M26.14,52.14a26.08,26.08,0,0,1-18.5-7.56A25.77,25.77,0,0,1,0,26.14,26.17,26.17,0,0,1,26.14,0,24.6,24.6,0,0,1,43.67,6.73a1.55,1.55,0,0,1,.54,1.11A1.49,1.49,0,0,1,43.75,9L39.36,13.5a1.3,1.3,0,0,1-.94.48,1.4,1.4,0,0,1-1.08-.48,16.9,16.9,0,0,0-11-4.2c-8.92,0-15.91,7.3-15.91,16.63s7,16.48,16,16.48a17.07,17.07,0,0,0,10.92-4.07,1.47,1.47,0,0,1,2,0L43.82,43a1.31,1.31,0,0,1,.42.92,1.78,1.78,0,0,1-.49,1.24A24.81,24.81,0,0,1,26.14,52.14ZM26.14.3A25.87,25.87,0,0,0,.3,26.14,25.46,25.46,0,0,0,7.85,44.36a25.76,25.76,0,0,0,18.29,7.48,24.49,24.49,0,0,0,17.4-6.94,1.45,1.45,0,0,0,.4-1,1,1,0,0,0-.33-.71l-4.47-4.62a1.17,1.17,0,0,0-1.59,0,17.39,17.39,0,0,1-11.12,4.14,15.9,15.9,0,0,1-11.63-5,17,17,0,0,1-4.65-11.79C10.15,16.44,17.27,9,26.36,9a17.15,17.15,0,0,1,11.19,4.29,1.17,1.17,0,0,0,.86.39,1,1,0,0,0,.73-.38l4.39-4.54A1.19,1.19,0,0,0,43.47,7,24.27,24.27,0,0,0,26.14.3Z"/><path class="cls-1" d="M80.36,51.42H54a1.52,1.52,0,0,1-1.52-1.51V2.24A1.52,1.52,0,0,1,54,.72h6.62a1.56,1.56,0,0,1,1.52,1.52V42.48H80.36A1.53,1.53,0,0,1,81.88,44v5.91A1.52,1.52,0,0,1,80.36,51.42ZM54,1a1.22,1.22,0,0,0-1.22,1.22V49.91A1.21,1.21,0,0,0,54,51.12H80.36a1.22,1.22,0,0,0,1.22-1.21V44a1.22,1.22,0,0,0-1.22-1.22H61.85V2.24A1.27,1.27,0,0,0,60.63,1Z"/><path class="cls-1" d="M97.06,51.42h-6.7a1.56,1.56,0,0,1-1.51-1.51V2.24A1.56,1.56,0,0,1,90.36.72h6.7a1.56,1.56,0,0,1,1.52,1.52V49.91A1.56,1.56,0,0,1,97.06,51.42ZM90.36,1a1.26,1.26,0,0,0-1.21,1.22V49.91a1.26,1.26,0,0,0,1.21,1.21h6.7a1.26,1.26,0,0,0,1.22-1.21V2.24A1.27,1.27,0,0,0,97.06,1Z"/><path class="cls-1" d="M141.34,51.42H112a1.52,1.52,0,0,1-1.52-1.51V2.24A1.52,1.52,0,0,1,112,.72h29.3a1.52,1.52,0,0,1,1.52,1.52v5.9a1.52,1.52,0,0,1-1.52,1.52H120.18V21.17h17.63a1.56,1.56,0,0,1,1.52,1.52v6a1.52,1.52,0,0,1-1.52,1.52H120.18v12.3h21.16A1.53,1.53,0,0,1,142.86,44v5.91A1.52,1.52,0,0,1,141.34,51.42ZM112,1a1.22,1.22,0,0,0-1.22,1.22V49.91A1.21,1.21,0,0,0,112,51.12h29.3a1.22,1.22,0,0,0,1.22-1.21V44a1.22,1.22,0,0,0-1.22-1.22H119.88V29.88h17.93A1.21,1.21,0,0,0,139,28.66v-6a1.27,1.27,0,0,0-1.22-1.22H119.88V9.36h21.46a1.22,1.22,0,0,0,1.22-1.22V2.24A1.22,1.22,0,0,0,141.34,1Z"/><path class="cls-1" d="M193.33,52.14h-1A1.73,1.73,0,0,1,191,51.6L161.58,19.17V49.91a1.52,1.52,0,0,1-1.52,1.51h-6.55A1.56,1.56,0,0,1,152,49.91V1.45A1.5,1.5,0,0,1,153.51,0h1.08a1.72,1.72,0,0,1,1.33.55l29.26,31.2V2.24A1.53,1.53,0,0,1,186.7.72h6.63a1.56,1.56,0,0,1,1.51,1.52V50.7A1.5,1.5,0,0,1,193.33,52.14ZM161.28,18.79h.36l0,.05,29.53,32.55a1.42,1.42,0,0,0,1.11.45h1a1.19,1.19,0,0,0,1.21-1.14V2.24A1.26,1.26,0,0,0,193.33,1H186.7a1.22,1.22,0,0,0-1.22,1.22V32.13h-.35L155.7.76A1.41,1.41,0,0,0,154.59.3h-1.08a1.2,1.2,0,0,0-1.22,1.15V49.91a1.26,1.26,0,0,0,1.22,1.21h6.55a1.22,1.22,0,0,0,1.22-1.21Z"/><path class="cls-1" d="M223.13,51.42h-6.7a1.56,1.56,0,0,1-1.51-1.51V9.66H204.05a1.52,1.52,0,0,1-1.52-1.52V2.24A1.52,1.52,0,0,1,204.05.72h31.47A1.52,1.52,0,0,1,237,2.24v5.9a1.52,1.52,0,0,1-1.51,1.52H224.65V49.91A1.56,1.56,0,0,1,223.13,51.42ZM204.05,1a1.22,1.22,0,0,0-1.22,1.22v5.9a1.22,1.22,0,0,0,1.22,1.22h11.17V49.91a1.26,1.26,0,0,0,1.21,1.21h6.7a1.26,1.26,0,0,0,1.22-1.21V9.36h11.17a1.22,1.22,0,0,0,1.21-1.22V2.24A1.22,1.22,0,0,0,235.52,1Z"/><path class="cls-1" d="M275.55,51.42H246.24a1.52,1.52,0,0,1-1.52-1.51V2.24A1.52,1.52,0,0,1,246.24.72h29.31a1.52,1.52,0,0,1,1.52,1.52v5.9a1.52,1.52,0,0,1-1.52,1.52H254.38V21.17H272a1.56,1.56,0,0,1,1.52,1.52v6A1.52,1.52,0,0,1,272,30.18H254.38v12.3h21.17A1.53,1.53,0,0,1,277.07,44v5.91A1.52,1.52,0,0,1,275.55,51.42ZM246.24,1A1.22,1.22,0,0,0,245,2.24V49.91a1.22,1.22,0,0,0,1.22,1.21h29.31a1.22,1.22,0,0,0,1.22-1.21V44a1.22,1.22,0,0,0-1.22-1.22H254.08V29.88H272a1.22,1.22,0,0,0,1.22-1.22v-6A1.27,1.27,0,0,0,272,21.47H254.08V9.36h21.47a1.22,1.22,0,0,0,1.22-1.22V2.24A1.22,1.22,0,0,0,275.55,1Z"/></g></g></svg>