<svg xmlns="http://www.w3.org/2000/svg" viewBox="0 0 305.21 51.84"><defs><style>.cls-1{fill:#231f20;}</style></defs><g id="Layer_2" data-name="Layer 2"><g id="Layer_1-2" data-name="Layer 1"><path class="cls-1" d="M12.39,9.36h-11A1.37,1.37,0,0,1,0,8V2.09A1.37,1.37,0,0,1,1.37.72H32.83A1.37,1.37,0,0,1,34.2,2.09V8a1.37,1.37,0,0,1-1.37,1.37h-11v40.4a1.41,1.41,0,0,1-1.37,1.36h-6.7a1.4,1.4,0,0,1-1.36-1.36Z"/><path class="cls-1" d="M33.05,49.25,55.44.79A1.31,1.31,0,0,1,56.67,0h.72a1.22,1.22,0,0,1,1.22.79L80.79,49.25a1.27,1.27,0,0,1-1.23,1.87H73.3a2.07,2.07,0,0,1-2.09-1.44l-3.53-7.77H46.15l-3.53,7.77a2.15,2.15,0,0,1-2.08,1.44H34.27A1.27,1.27,0,0,1,33.05,49.25Zm31.1-15.33L57,18.07h-.21L49.68,33.92Z"/><path class="cls-1" d="M87.12,2.09A1.37,1.37,0,0,1,88.49.72h6.62a1.42,1.42,0,0,1,1.37,1.37V42.48h18.36a1.37,1.37,0,0,1,1.37,1.37v5.91a1.36,1.36,0,0,1-1.37,1.36H88.49a1.36,1.36,0,0,1-1.37-1.36Z"/><path class="cls-1" d="M123.48,2.09A1.37,1.37,0,0,1,124.85.72h29.3a1.37,1.37,0,0,1,1.37,1.37V8a1.37,1.37,0,0,1-1.37,1.37H132.84V21.17h17.79A1.41,1.41,0,0,1,152,22.54v6a1.36,1.36,0,0,1-1.36,1.37H132.84v12.6h21.31a1.37,1.37,0,0,1,1.37,1.37v5.91a1.36,1.36,0,0,1-1.37,1.36h-29.3a1.36,1.36,0,0,1-1.37-1.36Z"/><path class="cls-1" d="M165,1.3A1.36,1.36,0,0,1,166.32,0h1.08a1.57,1.57,0,0,1,1.22.5L198,31.83h.15V2.09A1.36,1.36,0,0,1,199.51.72h6.63a1.42,1.42,0,0,1,1.37,1.37V50.55a1.35,1.35,0,0,1-1.37,1.29h-1a1.57,1.57,0,0,1-1.22-.5L174.38,18.79h-.14v31a1.36,1.36,0,0,1-1.37,1.36h-6.55A1.41,1.41,0,0,1,165,49.76Z"/><path class="cls-1" d="M227.88,9.36h-11A1.37,1.37,0,0,1,215.49,8V2.09A1.37,1.37,0,0,1,216.86.72h31.47a1.37,1.37,0,0,1,1.37,1.37V8a1.37,1.37,0,0,1-1.37,1.37h-11v40.4a1.41,1.41,0,0,1-1.37,1.36h-6.69a1.41,1.41,0,0,1-1.37-1.36Z"/><path class="cls-1" d="M279.29,0a25.92,25.92,0,1,1,0,51.84A25.69,25.69,0,0,1,253.44,26,25.81,25.81,0,0,1,279.29,0Zm0,42.48A16.56,16.56,0,1,0,262.8,26,16.59,16.59,0,0,0,279.29,42.48Z"/></g></g></svg>