<svg xmlns="http://www.w3.org/2000/svg" viewBox="0 0 539.79 52.14"><defs><style>.cls-1{fill:#231f20;}</style></defs><g id="Layer_2" data-name="Layer 2"><g id="Layer_1-2" data-name="Layer 1"><path class="cls-1" d="M41.05,51.42H34.42a1.52,1.52,0,0,1-1.51-1.51V30.18H9.73V49.91a1.52,1.52,0,0,1-1.52,1.51H1.52A1.56,1.56,0,0,1,0,49.91V2.24A1.56,1.56,0,0,1,1.52.72H8.21A1.52,1.52,0,0,1,9.73,2.24V21.17H32.91V2.24A1.52,1.52,0,0,1,34.42.72h6.63a1.56,1.56,0,0,1,1.52,1.52V49.91A1.56,1.56,0,0,1,41.05,51.42ZM9.43,29.88H33.21v20a1.21,1.21,0,0,0,1.21,1.21h6.63a1.26,1.26,0,0,0,1.22-1.21V2.24A1.27,1.27,0,0,0,41.05,1H34.42a1.22,1.22,0,0,0-1.21,1.22V21.47H9.43V2.24A1.22,1.22,0,0,0,8.21,1H1.52A1.27,1.27,0,0,0,.3,2.24V49.91a1.26,1.26,0,0,0,1.22,1.21H8.21a1.21,1.21,0,0,0,1.22-1.21Z"/><path class="cls-1" d="M95.19,51.42H88.93a2.21,2.21,0,0,1-2.22-1.52l-3.5-7.69H61.88L58.39,49.9a2.33,2.33,0,0,1-2.22,1.52H49.9a1.5,1.5,0,0,1-1.31-.65,1.48,1.48,0,0,1-.05-1.43L70.93.88A1.44,1.44,0,0,1,72.29,0H73a1.36,1.36,0,0,1,1.36.88L96.55,49.34a1.48,1.48,0,0,1,0,1.43A1.49,1.49,0,0,1,95.19,51.42ZM61.68,41.91H83.41L87,49.77c.51,1,1,1.35,2,1.35h6.26a1.21,1.21,0,0,0,1.06-.51,1.18,1.18,0,0,0,0-1.14L74.1,1A1.07,1.07,0,0,0,73,.3h-.72A1.15,1.15,0,0,0,71.2,1L48.81,49.47a1.18,1.18,0,0,0,0,1.14,1.19,1.19,0,0,0,1,.51h6.27a2,2,0,0,0,1.94-1.34ZM80,34.21H65.08l7.19-16.14h.41Zm-14.48-.29h14L72.49,18.37h0Z"/><path class="cls-1" d="M121.54,51.42H104.12a1.52,1.52,0,0,1-1.52-1.51V2.24A1.52,1.52,0,0,1,104.12.72h16.49C129.35.72,136,6.51,136,14.19a12.82,12.82,0,0,1-7.2,11.33v.16c3.27,1.15,8.64,4.19,8.64,11.7C137.39,45.39,130.58,51.42,121.54,51.42ZM104.12,1a1.22,1.22,0,0,0-1.22,1.22V49.91a1.22,1.22,0,0,0,1.22,1.21h17.42c8.87,0,15.55-5.91,15.55-13.74,0-7.4-5.35-10.35-8.54-11.45l-.1,0v-.56l.08,0a12.54,12.54,0,0,0,7.12-11.1c0-7.51-6.47-13.17-15-13.17Zm16.77,41.91h-9V29.81h9a6.31,6.31,0,0,1,6.49,6.42A6.45,6.45,0,0,1,120.89,42.93Zm-8.7-.3h8.7a6.16,6.16,0,0,0,6.19-6.4,6,6,0,0,0-6.19-6.12h-8.7Zm7.7-20.44h-8V9.29h8a5.9,5.9,0,0,1,6.19,6.27C126.08,19.4,123.48,22.19,119.89,22.19Zm-7.7-.3h7.7c3.41,0,5.89-2.66,5.89-6.33a5.62,5.62,0,0,0-5.89-6h-7.7Z"/><path class="cls-1" d="M155.17,51.42h-6.7A1.56,1.56,0,0,1,147,49.91V2.24A1.56,1.56,0,0,1,148.47.72h6.7a1.56,1.56,0,0,1,1.51,1.52V49.91A1.56,1.56,0,0,1,155.17,51.42ZM148.47,1a1.27,1.27,0,0,0-1.22,1.22V49.91a1.26,1.26,0,0,0,1.22,1.21h6.7a1.26,1.26,0,0,0,1.21-1.21V2.24A1.26,1.26,0,0,0,155.17,1Z"/><path class="cls-1" d="M196.5,51.42H170.14a1.52,1.52,0,0,1-1.52-1.51V2.24A1.52,1.52,0,0,1,170.14.72h6.63a1.56,1.56,0,0,1,1.51,1.52V42.48H196.5A1.52,1.52,0,0,1,198,44v5.91A1.52,1.52,0,0,1,196.5,51.42ZM170.14,1a1.22,1.22,0,0,0-1.22,1.22V49.91a1.22,1.22,0,0,0,1.22,1.21H196.5a1.21,1.21,0,0,0,1.21-1.21V44a1.22,1.22,0,0,0-1.21-1.22H178V2.24A1.26,1.26,0,0,0,176.77,1Z"/><path class="cls-1" d="M213.2,51.42h-6.7A1.56,1.56,0,0,1,205,49.91V2.24A1.56,1.56,0,0,1,206.5.72h6.7a1.56,1.56,0,0,1,1.51,1.52V49.91A1.56,1.56,0,0,1,213.2,51.42ZM206.5,1a1.27,1.27,0,0,0-1.22,1.22V49.91a1.26,1.26,0,0,0,1.22,1.21h6.7a1.26,1.26,0,0,0,1.21-1.21V2.24A1.26,1.26,0,0,0,213.2,1Z"/><path class="cls-1" d="M243,51.42h-6.69a1.56,1.56,0,0,1-1.52-1.51V9.66H223.92a1.53,1.53,0,0,1-1.52-1.52V2.24A1.53,1.53,0,0,1,223.92.72h31.47a1.52,1.52,0,0,1,1.52,1.52v5.9a1.52,1.52,0,0,1-1.52,1.52H244.52V49.91A1.56,1.56,0,0,1,243,51.42ZM223.92,1a1.22,1.22,0,0,0-1.22,1.22v5.9a1.22,1.22,0,0,0,1.22,1.22h11.17V49.91a1.26,1.26,0,0,0,1.22,1.21H243a1.26,1.26,0,0,0,1.22-1.21V9.36h11.17a1.22,1.22,0,0,0,1.22-1.22V2.24A1.22,1.22,0,0,0,255.39,1Z"/><path class="cls-1" d="M302.12,51.42h-6.27a2.21,2.21,0,0,1-2.22-1.52l-3.49-7.69H268.8l-3.48,7.69a2.35,2.35,0,0,1-2.23,1.52h-6.26a1.49,1.49,0,0,1-1.31-.65,1.48,1.48,0,0,1-.05-1.43L277.86.88A1.43,1.43,0,0,1,279.22,0h.72a1.37,1.37,0,0,1,1.36.88l22.18,48.46a1.48,1.48,0,0,1-.05,1.43A1.5,1.5,0,0,1,302.12,51.42Zm-33.51-9.51h21.73l3.56,7.86c.51,1,1,1.35,2,1.35h6.27a1.19,1.19,0,0,0,1.05-.51,1.18,1.18,0,0,0,0-1.14L281,1a1.08,1.08,0,0,0-1.09-.7h-.72a1.15,1.15,0,0,0-1.09.71L255.74,49.47a1.18,1.18,0,0,0,0,1.14,1.21,1.21,0,0,0,1.06.51h6.26a2.05,2.05,0,0,0,2-1.34Zm18.33-7.7H272l.09-.21,7.1-15.93h.41Zm-14.47-.29h14l-7.07-15.55h0Z"/><path class="cls-1" d="M328,51.42H311a1.5,1.5,0,0,1-1.45-1.51V2.24A1.51,1.51,0,0,1,311,.72H328a25.35,25.35,0,1,1,0,50.7ZM311,1a1.2,1.2,0,0,0-1.14,1.22V49.91A1.19,1.19,0,0,0,311,51.12H328A25.05,25.05,0,1,0,328,1Zm16.2,41.62h-8.36V9.43h8.36c9.63,0,16.35,6.82,16.35,16.57S336.8,42.64,327.17,42.64Zm-8.06-.3h8.06c9.45,0,16.05-6.72,16.05-16.34s-6.6-16.27-16.05-16.27h-8.06Z"/><path class="cls-1" d="M385.49,52.14a25.83,25.83,0,0,1-26-26,26.09,26.09,0,0,1,7.57-18.5,26.1,26.1,0,0,1,36.9,0,26,26,0,0,1-18.47,44.5Zm0-51.84a25.5,25.5,0,0,0-18.22,7.55,25.8,25.8,0,0,0-7.48,18.29,25.74,25.74,0,1,0,51.47,0A25.71,25.71,0,0,0,385.49.3Zm0,42.48A16.65,16.65,0,1,1,402.2,26.14,16.66,16.66,0,0,1,385.49,42.78Zm0-33.12a16.56,16.56,0,1,0,11.58,4.87A16.24,16.24,0,0,0,385.49,9.66Z"/><path class="cls-1" d="M456.34,51.42h-7.56a1.38,1.38,0,0,1-1.29-.73l-9.53-19h-7.75V49.91a1.56,1.56,0,0,1-1.52,1.51h-6.62a1.52,1.52,0,0,1-1.52-1.51V2.24A1.52,1.52,0,0,1,422.07.72h20.59a15.76,15.76,0,0,1,15.85,15.63c0,6.34-4.06,11.93-10.6,14.62l9.79,18.14a1.63,1.63,0,0,1,0,1.6A1.54,1.54,0,0,1,456.34,51.42Zm-26.43-20h8.23l.05.08,9.57,19.08a1.1,1.1,0,0,0,1,.56h7.56a1.23,1.23,0,0,0,1.1-.56,1.31,1.31,0,0,0,0-1.3l-9.94-18.44.16-.06c6.51-2.62,10.56-8.14,10.56-14.41A15.46,15.46,0,0,0,442.66,1H422.07a1.22,1.22,0,0,0-1.22,1.22V49.91a1.21,1.21,0,0,0,1.22,1.21h6.62a1.26,1.26,0,0,0,1.22-1.21Zm12-7.41H430V9.36h11.89a7.31,7.31,0,0,1,7.28,7.14A7.49,7.49,0,0,1,441.87,24Zm-11.59-.3h11.59a7.18,7.18,0,0,0,7-7.19,7,7,0,0,0-7-6.84H430.28Z"/><path class="cls-1" d="M498.89,51.42h-29.3a1.52,1.52,0,0,1-1.52-1.51V2.24A1.52,1.52,0,0,1,469.59.72h29.3a1.52,1.52,0,0,1,1.52,1.52v5.9a1.52,1.52,0,0,1-1.52,1.52H477.73V21.17h17.63a1.56,1.56,0,0,1,1.52,1.52v6a1.52,1.52,0,0,1-1.52,1.52H477.73v12.3h21.16A1.53,1.53,0,0,1,500.41,44v5.91A1.52,1.52,0,0,1,498.89,51.42ZM469.59,1a1.22,1.22,0,0,0-1.22,1.22V49.91a1.21,1.21,0,0,0,1.22,1.21h29.3a1.22,1.22,0,0,0,1.22-1.21V44a1.22,1.22,0,0,0-1.22-1.22H477.43V29.88h17.93a1.21,1.21,0,0,0,1.22-1.22v-6a1.27,1.27,0,0,0-1.22-1.22H477.43V9.36h21.46a1.22,1.22,0,0,0,1.22-1.22V2.24A1.22,1.22,0,0,0,498.89,1Z"/><path class="cls-1" d="M523.08,52.14c-9.38,0-14.14-4.1-15.93-5.65-.81-.64-1.07-1.15-.4-2.35l2.59-4.46a1.76,1.76,0,0,1,1.2-.88,1.88,1.88,0,0,1,1.47.33c3.09,2.34,6.24,4.43,10.78,4.43,3.59,0,6.41-2.37,6.41-5.39,0-3.39-2.71-5.93-9.05-8.5C514.29,27.3,506.51,23.1,506.51,14a13.52,13.52,0,0,1,3.86-9.43c2.93-3,7.26-4.55,12.5-4.55a25.63,25.63,0,0,1,14.49,4.85A1.75,1.75,0,0,1,538.08,6a1.92,1.92,0,0,1-.26,1.48l-2.73,4.1a2,2,0,0,1-2.73.9l-.53-.33c-2.94-1.85-5.71-3.6-9.4-3.6-4.27,0-6.18,2.45-6.18,4.89,0,3.2,2.43,5.49,8.4,7.93,7.49,3,15.14,7.31,15.14,16.41C539.79,44.72,533.94,52.14,523.08,52.14ZM510.91,39.07a1.55,1.55,0,0,0-.31,0,1.45,1.45,0,0,0-1,.73L507,44.29c-.6,1.07-.36,1.42.32,2h0c1.77,1.53,6.47,5.58,15.74,5.58,10.66,0,16.41-7.26,16.41-14.1,0-8.92-7.56-13.16-15-16.14-6.1-2.48-8.59-4.86-8.59-8.2,0-2.58,2-5.19,6.48-5.19,3.78,0,6.59,1.77,9.56,3.65l.53.33a1.75,1.75,0,0,0,2.32-.82l2.73-4.1A1.61,1.61,0,0,0,537.78,6a1.38,1.38,0,0,0-.59-.92A25.32,25.32,0,0,0,522.87.3C515.14.3,506.81,4.58,506.81,14c0,8.94,7.68,13.08,13.45,15.41,6.47,2.62,9.24,5.25,9.24,8.78,0,3.19-3,5.69-6.71,5.69-4.63,0-7.83-2.12-11-4.49A1.49,1.49,0,0,0,510.91,39.07Z"/></g></g></svg>