<svg xmlns="http://www.w3.org/2000/svg" viewBox="0 0 539.49 51.84"><defs><style>.cls-1{fill:#231f20;}</style></defs><g id="Layer_2" data-name="Layer 2"><g id="Layer_1-2" data-name="Layer 1"><path class="cls-1" d="M0,2.09A1.42,1.42,0,0,1,1.37.72H8.06A1.37,1.37,0,0,1,9.43,2.09V21.17H32.91V2.09A1.36,1.36,0,0,1,34.27.72H40.9a1.42,1.42,0,0,1,1.37,1.37V49.76a1.41,1.41,0,0,1-1.37,1.36H34.27a1.35,1.35,0,0,1-1.36-1.36V29.88H9.43V49.76a1.36,1.36,0,0,1-1.37,1.36H1.37A1.41,1.41,0,0,1,0,49.76Z"/><path class="cls-1" d="M48.53,49.25,70.92.79A1.3,1.3,0,0,1,72.14,0h.72a1.24,1.24,0,0,1,1.23.79L96.27,49.25A1.27,1.27,0,0,1,95,51.12H88.78a2.07,2.07,0,0,1-2.09-1.44l-3.53-7.77H61.63L58.1,49.68A2.16,2.16,0,0,1,56,51.12H49.75A1.27,1.27,0,0,1,48.53,49.25Zm31.1-15.33-7.2-15.85h-.21L65.16,33.92Z"/><path class="cls-1" d="M128.45,25.63c4.18,1.44,8.64,4.83,8.64,11.6,0,8.06-6.91,13.89-15.7,13.89H104a1.36,1.36,0,0,1-1.37-1.36V2.09A1.37,1.37,0,0,1,104,.72h16.49C129,.72,135.65,6.48,135.65,14a12.66,12.66,0,0,1-7.2,11.23Zm-8.71-3.74c3.67,0,6-2.88,6-6.48a5.76,5.76,0,0,0-6-6.12h-7.85v12.6Zm1,20.74a6.31,6.31,0,0,0,6.34-6.55,6.15,6.15,0,0,0-6.34-6.27h-8.85V42.63Z"/><path class="cls-1" d="M147,2.09A1.42,1.42,0,0,1,148.32.72H155a1.41,1.41,0,0,1,1.36,1.37V49.76A1.4,1.4,0,0,1,155,51.12h-6.7A1.41,1.41,0,0,1,147,49.76Z"/><path class="cls-1" d="M168.62,2.09A1.37,1.37,0,0,1,170,.72h6.63A1.41,1.41,0,0,1,178,2.09V42.48h18.37a1.36,1.36,0,0,1,1.36,1.37v5.91a1.35,1.35,0,0,1-1.36,1.36H170a1.36,1.36,0,0,1-1.37-1.36Z"/><path class="cls-1" d="M205,2.09A1.42,1.42,0,0,1,206.35.72h6.7a1.41,1.41,0,0,1,1.36,1.37V49.76a1.4,1.4,0,0,1-1.36,1.36h-6.7A1.41,1.41,0,0,1,205,49.76Z"/><path class="cls-1" d="M234.79,9.36h-11A1.37,1.37,0,0,1,222.4,8V2.09A1.37,1.37,0,0,1,223.77.72h31.47a1.37,1.37,0,0,1,1.37,1.37V8a1.37,1.37,0,0,1-1.37,1.37h-11v40.4a1.41,1.41,0,0,1-1.37,1.36h-6.69a1.41,1.41,0,0,1-1.37-1.36Z"/><path class="cls-1" d="M255.45,49.25,277.85.79A1.28,1.28,0,0,1,279.07,0h.72A1.24,1.24,0,0,1,281,.79l22.17,48.46A1.27,1.27,0,0,1,302,51.12h-6.26a2.06,2.06,0,0,1-2.09-1.44l-3.53-7.77H268.56L265,49.68a2.18,2.18,0,0,1-2.09,1.44h-6.26A1.27,1.27,0,0,1,255.45,49.25Zm31.11-15.33-7.2-15.85h-.22l-7.05,15.85Z"/><path class="cls-1" d="M309.53,2.09A1.35,1.35,0,0,1,310.82.72h17.07a25.2,25.2,0,1,1,0,50.4H310.82a1.34,1.34,0,0,1-1.29-1.36ZM327,42.34c9.36,0,16.2-6.62,16.2-16.49S336.38,9.43,327,9.43h-8.21V42.34Z"/><path class="cls-1" d="M385.34,0a25.92,25.92,0,1,1,0,51.84A25.69,25.69,0,0,1,359.49,26,25.81,25.81,0,0,1,385.34,0Zm0,42.48A16.56,16.56,0,1,0,368.85,26,16.58,16.58,0,0,0,385.34,42.48Z"/><path class="cls-1" d="M420.55,2.09A1.37,1.37,0,0,1,421.92.72h20.59a15.6,15.6,0,0,1,15.7,15.48c0,6.63-4.39,12-10.66,14.55L457.42,49a1.36,1.36,0,0,1-1.23,2.08h-7.56a1.23,1.23,0,0,1-1.15-.64L437.9,31.4h-8V49.76a1.41,1.41,0,0,1-1.37,1.36h-6.62a1.36,1.36,0,0,1-1.37-1.36Zm21.17,21.6a7.34,7.34,0,0,0,7.13-7.34,7.17,7.17,0,0,0-7.13-7H430V23.69Z"/><path class="cls-1" d="M468.07,2.09A1.37,1.37,0,0,1,469.44.72h29.3a1.37,1.37,0,0,1,1.37,1.37V8a1.37,1.37,0,0,1-1.37,1.37H477.43V21.17h17.78a1.42,1.42,0,0,1,1.37,1.37v6a1.37,1.37,0,0,1-1.37,1.37H477.43v12.6h21.31a1.37,1.37,0,0,1,1.37,1.37v5.91a1.36,1.36,0,0,1-1.37,1.36h-29.3a1.36,1.36,0,0,1-1.37-1.36Z"/><path class="cls-1" d="M507.09,46.23c-.72-.58-1-1-.36-2.16l2.59-4.47a1.68,1.68,0,0,1,2.45-.5c3,2.23,6.19,4.46,10.87,4.46,3.75,0,6.56-2.44,6.56-5.54,0-3.67-3.1-6.19-9.15-8.64-6.77-2.74-13.54-7.06-13.54-15.55C506.51,7.42,511.27,0,522.72,0a25.37,25.37,0,0,1,14.4,4.82,1.79,1.79,0,0,1,.43,2.38l-2.74,4.11a1.89,1.89,0,0,1-2.52.86c-3.09-1.94-6-4-10-4s-6.33,2.3-6.33,5c0,3.38,2.66,5.69,8.49,8.06,7,2.81,15,7,15,16.28,0,7.41-6.41,14.25-16.56,14.25C513.86,51.84,509.18,48,507.09,46.23Z"/></g></g></svg>