<svg xmlns="http://www.w3.org/2000/svg" viewBox="0 0 453.74 67.99"><defs><style>.cls-1{fill:#231f20;}</style></defs><g id="Layer_2" data-name="Layer 2"><g id="Layer_1-2" data-name="Layer 1"><path class="cls-1" d="M12.39,25.51h-11A1.37,1.37,0,0,1,0,24.14v-5.9a1.37,1.37,0,0,1,1.37-1.37H32.83a1.37,1.37,0,0,1,1.37,1.37v5.9a1.37,1.37,0,0,1-1.37,1.37h-11v40.4a1.41,1.41,0,0,1-1.37,1.36h-6.7a1.4,1.4,0,0,1-1.36-1.36Z"/><path class="cls-1" d="M42.19,18.24a1.37,1.37,0,0,1,1.37-1.37H72.87a1.36,1.36,0,0,1,1.36,1.37v5.9a1.36,1.36,0,0,1-1.36,1.37H51.55V37.32H69.34a1.42,1.42,0,0,1,1.37,1.37v6A1.37,1.37,0,0,1,69.34,46H51.55v12.6H72.87A1.36,1.36,0,0,1,74.23,60v5.91a1.35,1.35,0,0,1-1.36,1.36H43.56a1.36,1.36,0,0,1-1.37-1.36Z"/><path class="cls-1" d="M105.91,16.15a24.34,24.34,0,0,1,17.43,6.7,1.33,1.33,0,0,1,.07,2L119,29.4a1.16,1.16,0,0,1-1.8,0,17,17,0,0,0-11.09-4.25c-9.22,0-16.06,7.7-16.06,16.78S97,58.56,106.2,58.56a17.34,17.34,0,0,0,11-4.1,1.31,1.31,0,0,1,1.8,0l4.46,4.61a1.36,1.36,0,0,1-.07,1.94,24.73,24.73,0,0,1-17.5,7,25.92,25.92,0,1,1,0-51.84Z"/><path class="cls-1" d="M132.41,17.45a1.36,1.36,0,0,1,1.37-1.3h1.08a1.57,1.57,0,0,1,1.22.5L165.46,48h.14V18.24A1.37,1.37,0,0,1,167,16.87h6.62A1.41,1.41,0,0,1,175,18.24V66.7A1.34,1.34,0,0,1,173.59,68h-1a1.58,1.58,0,0,1-1.23-.5L141.84,34.94h-.14v31a1.36,1.36,0,0,1-1.37,1.36h-6.55a1.41,1.41,0,0,1-1.37-1.36Z"/><path class="cls-1" d="M210.1,16.15a25.92,25.92,0,1,1-25.85,26A25.87,25.87,0,0,1,210.1,16.15Zm0,42.48a16.56,16.56,0,1,0-16.49-16.49A16.59,16.59,0,0,0,210.1,58.63Z"/><path class="cls-1" d="M245.3,18.24a1.37,1.37,0,0,1,1.37-1.37h6.62a1.42,1.42,0,0,1,1.37,1.37V58.63H273A1.37,1.37,0,0,1,274.39,60v5.91A1.36,1.36,0,0,1,273,67.27H246.67a1.36,1.36,0,0,1-1.37-1.36Z"/><path class="cls-1" d="M303.26,16.15a25.92,25.92,0,1,1-25.85,26A25.87,25.87,0,0,1,303.26,16.15Zm0,42.48a16.56,16.56,0,1,0-16.49-16.49A16.59,16.59,0,0,0,303.26,58.63Z"/><path class="cls-1" d="M361.37,16.15a27.21,27.21,0,0,1,17.57,6.7,1.39,1.39,0,0,1,.07,2l-4.47,4.68a1.22,1.22,0,0,1-1.87,0,16.33,16.33,0,0,0-10.87-4.17c-9,0-16.13,7.7-16.13,16.7a16.38,16.38,0,0,0,16.2,16.49,22.47,22.47,0,0,0,8.57-1.8V50.64h-5.76a1.31,1.31,0,0,1-1.37-1.3V43.66a1.32,1.32,0,0,1,1.37-1.37h13.83a1.35,1.35,0,0,1,1.29,1.37V62.09a1.38,1.38,0,0,1-.57,1.15,36.41,36.41,0,0,1-17.86,4.68,25.89,25.89,0,0,1,0-51.77Z"/><path class="cls-1" d="M387.07,8.37,399.24.31c1.22-.79,3,0,3.89,1.73s.86,3.67-.36,4.24l-13.33,6.13c-.79.36-1.79-.29-2.37-1.37S386.56,8.73,387.07,8.37Zm3.09,9.87a1.42,1.42,0,0,1,1.37-1.37h6.7a1.42,1.42,0,0,1,1.37,1.37V65.91a1.41,1.41,0,0,1-1.37,1.36h-6.7a1.41,1.41,0,0,1-1.37-1.36Z"/><path class="cls-1" d="M405.86,65.4l22.39-48.46a1.31,1.31,0,0,1,1.23-.79h.72a1.21,1.21,0,0,1,1.22.79L453.6,65.4a1.27,1.27,0,0,1-1.22,1.87h-6.27A2.07,2.07,0,0,1,444,65.83l-3.53-7.77H419l-3.52,7.77a2.18,2.18,0,0,1-2.09,1.44h-6.27A1.27,1.27,0,0,1,405.86,65.4ZM437,50.06l-7.2-15.84h-.22l-7.06,15.84Z"/></g></g></svg>