<svg xmlns="http://www.w3.org/2000/svg" viewBox="0 0 276.77 51.84"><defs><style>.cls-1{fill:#231f20;}</style></defs><g id="Layer_2" data-name="Layer 2"><g id="Layer_1-2" data-name="Layer 1"><path class="cls-1" d="M26,0A24.34,24.34,0,0,1,43.42,6.7a1.33,1.33,0,0,1,.07,2L39.1,13.25a1.15,1.15,0,0,1-1.8,0A17,17,0,0,0,26.21,9C17,9,10.15,16.71,10.15,25.78s6.92,16.63,16.13,16.63a17.29,17.29,0,0,0,11-4.1,1.32,1.32,0,0,1,1.8,0l4.46,4.61a1.36,1.36,0,0,1-.07,1.94,24.71,24.71,0,0,1-17.5,7A25.92,25.92,0,1,1,26,0Z"/><path class="cls-1" d="M52.49,2.09A1.37,1.37,0,0,1,53.86.72h6.62a1.42,1.42,0,0,1,1.37,1.37V42.48H80.21a1.37,1.37,0,0,1,1.37,1.37v5.91a1.36,1.36,0,0,1-1.37,1.36H53.86a1.36,1.36,0,0,1-1.37-1.36Z"/><path class="cls-1" d="M88.85,2.09A1.41,1.41,0,0,1,90.21.72h6.7a1.42,1.42,0,0,1,1.37,1.37V49.76a1.41,1.41,0,0,1-1.37,1.36h-6.7a1.4,1.4,0,0,1-1.36-1.36Z"/><path class="cls-1" d="M110.52,2.09A1.37,1.37,0,0,1,111.89.72h29.3a1.37,1.37,0,0,1,1.37,1.37V8a1.37,1.37,0,0,1-1.37,1.37H119.88V21.17h17.78A1.42,1.42,0,0,1,139,22.54v6a1.37,1.37,0,0,1-1.37,1.37H119.88v12.6h21.31a1.37,1.37,0,0,1,1.37,1.37v5.91a1.36,1.36,0,0,1-1.37,1.36h-29.3a1.36,1.36,0,0,1-1.37-1.36Z"/><path class="cls-1" d="M152,1.3A1.36,1.36,0,0,1,153.36,0h1.08a1.57,1.57,0,0,1,1.22.5L185,31.83h.14V2.09A1.37,1.37,0,0,1,186.55.72h6.63a1.41,1.41,0,0,1,1.36,1.37V50.55a1.34,1.34,0,0,1-1.36,1.29h-1a1.58,1.58,0,0,1-1.23-.5L161.42,18.79h-.14v31a1.36,1.36,0,0,1-1.37,1.36h-6.55A1.41,1.41,0,0,1,152,49.76Z"/><path class="cls-1" d="M214.92,9.36h-11A1.37,1.37,0,0,1,202.53,8V2.09A1.37,1.37,0,0,1,203.9.72h31.47a1.36,1.36,0,0,1,1.36,1.37V8a1.36,1.36,0,0,1-1.36,1.37h-11v40.4A1.41,1.41,0,0,1,223,51.12h-6.7a1.4,1.4,0,0,1-1.36-1.36Z"/><path class="cls-1" d="M244.72,2.09A1.37,1.37,0,0,1,246.09.72H275.4a1.37,1.37,0,0,1,1.37,1.37V8a1.37,1.37,0,0,1-1.37,1.37H254.08V21.17h17.79a1.42,1.42,0,0,1,1.37,1.37v6a1.37,1.37,0,0,1-1.37,1.37H254.08v12.6H275.4a1.37,1.37,0,0,1,1.37,1.37v5.91a1.36,1.36,0,0,1-1.37,1.36H246.09a1.36,1.36,0,0,1-1.37-1.36Z"/></g></g></svg>