<svg xmlns="http://www.w3.org/2000/svg" viewBox="0 0 1019.2 100"><defs><style>.cls-1{fill:#fff;}</style></defs><g id="Layer_2" data-name="Layer 2"><g id="Layer_1-2" data-name="Layer 1"><path class="cls-1" d="M0,4A2.73,2.73,0,0,1,2.64,1.39H15.56A2.64,2.64,0,0,1,18.2,4v36.8H63.47V4a2.64,2.64,0,0,1,2.64-2.64H78.89A2.73,2.73,0,0,1,81.53,4V96a2.73,2.73,0,0,1-2.64,2.64H66.11A2.64,2.64,0,0,1,63.47,96V57.64H18.2V96a2.64,2.64,0,0,1-2.64,2.64H2.64A2.73,2.73,0,0,1,0,96Z"/><path class="cls-1" d="M91.25,95l43.2-93.47A2.48,2.48,0,0,1,136.81,0h1.39a2.35,2.35,0,0,1,2.36,1.53L183.34,95A2.45,2.45,0,0,1,181,98.61H168.89c-2.08,0-3-.83-4-2.78l-6.8-15H116.53l-6.8,15a4.2,4.2,0,0,1-4,2.78H93.61A2.45,2.45,0,0,1,91.25,95Zm60-29.58L137.36,34.86H137L123.34,65.42Z"/><path class="cls-1" d="M243.06,49.44c8.06,2.78,16.67,9.31,16.67,22.37,0,15.55-13.33,26.8-30.28,26.8H195.84A2.64,2.64,0,0,1,193.2,96V4a2.64,2.64,0,0,1,2.64-2.64h31.8C244.17,1.39,257,12.5,257,27.08c0,10.42-6.67,18.06-13.89,21.67Zm-16.8-7.22c7.08,0,11.66-5.55,11.66-12.5s-4.58-11.8-11.66-11.8H211.12v24.3Zm1.94,40c7,0,12.22-5.41,12.22-12.64A11.86,11.86,0,0,0,228.2,57.5H211.12V82.22Z"/><path class="cls-1" d="M276.4,4A2.73,2.73,0,0,1,279,1.39H292A2.73,2.73,0,0,1,294.59,4V96A2.73,2.73,0,0,1,292,98.61H279A2.73,2.73,0,0,1,276.4,96Z"/><path class="cls-1" d="M315.84,4a2.64,2.64,0,0,1,2.64-2.64h12.78A2.73,2.73,0,0,1,333.9,4V81.94h35.42A2.64,2.64,0,0,1,372,84.58V96a2.64,2.64,0,0,1-2.64,2.64H318.48A2.64,2.64,0,0,1,315.84,96Z"/><path class="cls-1" d="M383.62,4a2.73,2.73,0,0,1,2.64-2.64h12.92A2.73,2.73,0,0,1,401.82,4V96a2.73,2.73,0,0,1-2.64,2.64H386.26A2.73,2.73,0,0,1,383.62,96Z"/><path class="cls-1" d="M438.76,18.06H417.51a2.64,2.64,0,0,1-2.64-2.64V4a2.64,2.64,0,0,1,2.64-2.64h60.7A2.64,2.64,0,0,1,480.85,4V15.42a2.64,2.64,0,0,1-2.64,2.64H457V96a2.73,2.73,0,0,1-2.64,2.64H441.4A2.73,2.73,0,0,1,438.76,96Z"/><path class="cls-1" d="M482.38,95,525.57,1.53A2.49,2.49,0,0,1,527.93,0h1.39a2.35,2.35,0,0,1,2.36,1.53L574.46,95a2.45,2.45,0,0,1-2.36,3.61H560c-2.09,0-3.06-.83-4-2.78l-6.81-15H507.65l-6.8,15a4.2,4.2,0,0,1-4,2.78H484.74A2.45,2.45,0,0,1,482.38,95Zm60-29.58L528.49,34.86h-.42L514.46,65.42Z"/><path class="cls-1" d="M584.32,4a2.62,2.62,0,0,1,2.5-2.64h32.92c26.81,0,48.75,21.8,48.75,48.47a48.81,48.81,0,0,1-48.75,48.75H586.82a2.62,2.62,0,0,1-2.5-2.64Zm33.75,77.64c18.06,0,31.25-12.78,31.25-31.81S636.13,18.2,618.07,18.2H602.24V81.67Z"/><path class="cls-1" d="M728.22,0a50,50,0,1,1,0,100,49.55,49.55,0,0,1-49.86-49.86A49.79,49.79,0,0,1,728.22,0Zm0,81.94a31.94,31.94,0,1,0,0-63.88c-17.5,0-31.81,14.58-31.81,32.08A31.89,31.89,0,0,0,728.22,81.94Z"/><path class="cls-1" d="M793.78,4a2.63,2.63,0,0,1,2.63-2.64h39.73a30.08,30.08,0,0,1,30.27,29.86c0,12.78-8.47,23.19-20.55,28.06l19,35.27a2.63,2.63,0,0,1-2.36,4H847.94a2.37,2.37,0,0,1-2.22-1.25l-18.47-36.8H811.83V96a2.73,2.73,0,0,1-2.64,2.64H796.41A2.63,2.63,0,0,1,793.78,96Zm40.83,41.66c7.36,0,13.75-6.38,13.75-14.16a13.82,13.82,0,0,0-13.75-13.47H812V45.69Z"/><path class="cls-1" d="M883.08,4a2.64,2.64,0,0,1,2.64-2.64h56.53A2.64,2.64,0,0,1,944.89,4V15.42a2.64,2.64,0,0,1-2.64,2.64H901.14V40.83h34.3a2.73,2.73,0,0,1,2.64,2.64V55a2.64,2.64,0,0,1-2.64,2.64h-34.3v24.3h41.11a2.64,2.64,0,0,1,2.64,2.64V96a2.64,2.64,0,0,1-2.64,2.64H885.72A2.64,2.64,0,0,1,883.08,96Z"/><path class="cls-1" d="M956.7,89.17c-1.39-1.11-2-2-.7-4.17l5-8.61a3.21,3.21,0,0,1,4.72-1c5.7,4.3,11.95,8.61,21,8.61,7.22,0,12.64-4.72,12.64-10.7,0-7.08-6-11.94-17.64-16.66-13.06-5.28-26.11-13.61-26.11-30C955.59,14.31,964.75,0,986.84,0c14.16,0,25,7.22,27.77,9.31a3.44,3.44,0,0,1,.84,4.58l-5.28,7.92c-1.11,1.66-3.2,2.77-4.86,1.66-6-3.75-11.67-7.64-19.31-7.64-7.91,0-12.22,4.45-12.22,9.73,0,6.52,5.14,11,16.39,15.55,13.47,5.42,29,13.47,29,31.39,0,14.31-12.36,27.5-32,27.5C969.75,100,960.72,92.64,956.7,89.17Z"/></g></g></svg>