<svg xmlns="http://www.w3.org/2000/svg" viewBox="0 0 357.13 68.29"><defs><style>.cls-1{fill:#231f20;}</style></defs><g id="Layer_2" data-name="Layer 2"><g id="Layer_1-2" data-name="Layer 1"><path class="cls-1" d="M27.87,67.57H1.52A1.52,1.52,0,0,1,0,66.06V18.39a1.52,1.52,0,0,1,1.52-1.52H8.14a1.56,1.56,0,0,1,1.52,1.52V58.63H27.87a1.52,1.52,0,0,1,1.52,1.52v5.91A1.52,1.52,0,0,1,27.87,67.57ZM1.52,17.17A1.22,1.22,0,0,0,.3,18.39V66.06a1.22,1.22,0,0,0,1.22,1.21H27.87a1.22,1.22,0,0,0,1.22-1.21V60.15a1.22,1.22,0,0,0-1.22-1.22H9.36V18.39a1.27,1.27,0,0,0-1.22-1.22Z"/><path class="cls-1" d="M58.11,68.29a26.11,26.11,0,0,1-18.43-44.5,26.1,26.1,0,0,1,36.9,0,26,26,0,0,1-18.47,44.5Zm0-51.84A25.5,25.5,0,0,0,39.89,24a25.81,25.81,0,1,0,18.22-7.55Zm0,42.48A16.65,16.65,0,1,1,74.82,42.29,16.66,16.66,0,0,1,58.11,58.93Zm0-33.12a16.56,16.56,0,1,0,11.58,4.87A16.24,16.24,0,0,0,58.11,25.81Z"/><path class="cls-1" d="M116.21,68.22a26,26,0,0,1,0-52.07,27.38,27.38,0,0,1,17.67,6.73A1.7,1.7,0,0,1,134.4,24a1.47,1.47,0,0,1-.44,1.12L129.5,29.8a1.38,1.38,0,0,1-2.08,0,16.09,16.09,0,0,0-10.77-4.13c-8.81,0-16,7.42-16,16.55a16.22,16.22,0,0,0,16,16.34,22.52,22.52,0,0,0,8.42-1.75V50.94h-5.61A1.45,1.45,0,0,1,118,49.49V43.81a1.47,1.47,0,0,1,1.52-1.52h13.82a1.5,1.5,0,0,1,1.45,1.52V62.24a1.52,1.52,0,0,1-.64,1.27A36.75,36.75,0,0,1,116.21,68.22Zm0-51.77A25.49,25.49,0,0,0,98,24a25.77,25.77,0,0,0-7.5,18.29,25.51,25.51,0,0,0,25.69,25.63A36.47,36.47,0,0,0,134,63.26a1.2,1.2,0,0,0,.51-1V43.81a1.21,1.21,0,0,0-1.15-1.22H119.53a1.18,1.18,0,0,0-1.22,1.22v5.68a1.16,1.16,0,0,0,1.22,1.15h5.91V57l-.1,0a22.78,22.78,0,0,1-8.62,1.81,16.51,16.51,0,0,1-16.35-16.64c0-9.29,7.3-16.85,16.28-16.85a16.34,16.34,0,0,1,11,4.21,1.1,1.1,0,0,0,1.67,0l4.46-4.68a1.26,1.26,0,0,0-.07-1.81A27.06,27.06,0,0,0,116.21,16.45Z"/><path class="cls-1" d="M153.08,67.57h-6.7a1.56,1.56,0,0,1-1.52-1.51V18.39a1.56,1.56,0,0,1,1.52-1.52h6.7a1.56,1.56,0,0,1,1.52,1.52V66.06A1.56,1.56,0,0,1,153.08,67.57Zm-6.7-50.4a1.27,1.27,0,0,0-1.22,1.22V66.06a1.26,1.26,0,0,0,1.22,1.21h6.7a1.27,1.27,0,0,0,1.22-1.21V18.39a1.27,1.27,0,0,0-1.22-1.22Zm-2.56-4.36a2.57,2.57,0,0,1-2-1.55c-.54-1.09-.52-2.45.05-2.86h0L154,.33a2.22,2.22,0,0,1,1.81-.24,3.82,3.82,0,0,1,2.3,2,4.55,4.55,0,0,1,.51,3.35,1.82,1.82,0,0,1-.94,1.1l-13.33,6.12A1.24,1.24,0,0,1,143.82,12.81ZM142,8.65c-.39.28-.46,1.45.05,2.47s1.5,1.61,2.18,1.3L157.55,6.3a1.5,1.5,0,0,0,.78-.92,4.23,4.23,0,0,0-.49-3.13A3.52,3.52,0,0,0,155.73.38a1.87,1.87,0,0,0-1.56.2Z"/><path class="cls-1" d="M180.44,68.29c-9.38,0-14.15-4.1-15.94-5.65-.8-.64-1.06-1.15-.4-2.35l2.6-4.46a1.74,1.74,0,0,1,1.2-.88,1.89,1.89,0,0,1,1.47.33c3.09,2.34,6.24,4.43,10.78,4.43,3.59,0,6.4-2.37,6.4-5.39,0-3.39-2.7-5.94-9.05-8.5-5.85-2.37-13.63-6.57-13.63-15.7a13.51,13.51,0,0,1,3.85-9.42c2.94-3,7.26-4.55,12.5-4.55A25.6,25.6,0,0,1,194.71,21a1.67,1.67,0,0,1,.72,1.11,1.92,1.92,0,0,1-.25,1.48l-2.74,4.1a2,2,0,0,1-2.73.9l-.53-.33c-2.93-1.85-5.7-3.6-9.39-3.6-4.27,0-6.19,2.45-6.19,4.89,0,3.19,2.44,5.49,8.41,7.92,7.48,3,15.14,7.32,15.14,16.42C197.15,60.87,191.29,68.29,180.44,68.29ZM168.26,55.22a1.53,1.53,0,0,0-.3,0,1.43,1.43,0,0,0-1,.73l-2.59,4.46c-.6,1.07-.37,1.42.32,2h0c1.77,1.53,6.48,5.58,15.75,5.58,10.66,0,16.41-7.26,16.41-14.1,0-8.92-7.56-13.16-15-16.14-6.1-2.48-8.59-4.86-8.59-8.2,0-2.59,2-5.19,6.49-5.19,3.77,0,6.58,1.77,9.55,3.64l.54.34c.79.53,1.78,0,2.31-.82l2.74-4.1a1.61,1.61,0,0,0,.21-1.25,1.42,1.42,0,0,0-.6-.92,25.29,25.29,0,0,0-14.32-4.8c-7.73,0-16.05,4.28-16.05,13.67,0,9,7.67,13.09,13.44,15.42,6.48,2.62,9.24,5.25,9.24,8.78,0,3.19-2.94,5.69-6.7,5.69-4.64,0-7.83-2.12-11-4.49A1.5,1.5,0,0,0,168.26,55.22Z"/><path class="cls-1" d="M222.12,67.57h-6.69a1.56,1.56,0,0,1-1.52-1.51V25.81H203a1.53,1.53,0,0,1-1.52-1.52v-5.9A1.53,1.53,0,0,1,203,16.87h31.47A1.52,1.52,0,0,1,236,18.39v5.9a1.52,1.52,0,0,1-1.52,1.52H223.64V66.06A1.56,1.56,0,0,1,222.12,67.57ZM203,17.17a1.22,1.22,0,0,0-1.22,1.22v5.9A1.22,1.22,0,0,0,203,25.51h11.17V66.06a1.26,1.26,0,0,0,1.22,1.21h6.69a1.26,1.26,0,0,0,1.22-1.21V25.51h11.17a1.22,1.22,0,0,0,1.22-1.22v-5.9a1.22,1.22,0,0,0-1.22-1.22Z"/><path class="cls-1" d="M251.93,67.57h-6.69a1.56,1.56,0,0,1-1.52-1.51V18.39a1.56,1.56,0,0,1,1.52-1.52h6.69a1.56,1.56,0,0,1,1.52,1.52V66.06A1.56,1.56,0,0,1,251.93,67.57Zm-6.69-50.4A1.27,1.27,0,0,0,244,18.39V66.06a1.26,1.26,0,0,0,1.22,1.21h6.69a1.26,1.26,0,0,0,1.22-1.21V18.39a1.27,1.27,0,0,0-1.22-1.22Z"/><path class="cls-1" d="M288.58,68.29a26.08,26.08,0,0,1-18.5-7.56,25.79,25.79,0,0,1-7.64-18.44,26.17,26.17,0,0,1,26.14-26.14,24.62,24.62,0,0,1,17.53,6.73,1.51,1.51,0,0,1,.08,2.24l-4.4,4.53a1.28,1.28,0,0,1-.94.48,1.41,1.41,0,0,1-1.07-.48,16.87,16.87,0,0,0-11-4.2c-8.92,0-15.91,7.3-15.91,16.63s7,16.48,16,16.48a17.09,17.09,0,0,0,10.92-4.07,1.47,1.47,0,0,1,2,0l4.47,4.61a1.26,1.26,0,0,1,.41.92,1.73,1.73,0,0,1-.48,1.24A24.81,24.81,0,0,1,288.58,68.29Zm0-51.84a25.87,25.87,0,0,0-25.84,25.84,25.46,25.46,0,0,0,7.55,18.22A25.76,25.76,0,0,0,288.58,68,24.46,24.46,0,0,0,306,61.05a1.36,1.36,0,0,0,.4-1,.91.91,0,0,0-.32-.71l-4.47-4.62a1.18,1.18,0,0,0-1.6,0,17.35,17.35,0,0,1-11.11,4.14,15.86,15.86,0,0,1-11.63-5,17,17,0,0,1-4.65-11.79c0-9.5,7.12-16.93,16.21-16.93A17.21,17.21,0,0,1,300,29.43a1.17,1.17,0,0,0,.85.4,1,1,0,0,0,.73-.38l4.4-4.54a1.22,1.22,0,0,0,.38-.91,1.25,1.25,0,0,0-.44-.89A24.29,24.29,0,0,0,288.58,16.45Z"/><path class="cls-1" d="M355.61,67.57h-6.26a2.21,2.21,0,0,1-2.22-1.52l-3.49-7.69H322.3L318.81,66a2.32,2.32,0,0,1-2.22,1.53h-6.27a1.5,1.5,0,0,1-1.3-.65,1.45,1.45,0,0,1-.06-1.43L331.36,17a1.42,1.42,0,0,1,1.36-.88h.72a1.36,1.36,0,0,1,1.35.87L357,65.49a1.48,1.48,0,0,1-.05,1.43A1.52,1.52,0,0,1,355.61,67.57Zm-33.5-9.51h21.72l0,.09,3.53,7.77c.51,1,1,1.35,2,1.35h6.26a1.23,1.23,0,0,0,1.06-.51,1.2,1.2,0,0,0,0-1.15L334.52,17.15a1.06,1.06,0,0,0-1.08-.7h-.72a1.13,1.13,0,0,0-1.09.71l-22.4,48.45a1.2,1.2,0,0,0,0,1.15,1.22,1.22,0,0,0,1.05.51h6.27a2,2,0,0,0,1.94-1.34Zm18.33-7.7H325.5l.09-.21,7.1-15.93h.41ZM326,50.06h14l-7.06-15.54h0Z"/></g></g></svg>