<svg xmlns="http://www.w3.org/2000/svg" viewBox="0 0 305.51 52.15"><defs><style>.cls-1{fill:#231f20;}</style></defs><g id="Layer_2" data-name="Layer 2"><g id="Layer_1-2" data-name="Layer 1"><path class="cls-1" d="M20.6,51.43H13.9a1.55,1.55,0,0,1-1.51-1.52V9.66H1.52A1.52,1.52,0,0,1,0,8.14V2.24A1.52,1.52,0,0,1,1.52.72H33A1.52,1.52,0,0,1,34.5,2.24v5.9A1.52,1.52,0,0,1,33,9.66H22.12V49.91A1.56,1.56,0,0,1,20.6,51.43ZM1.52,1A1.22,1.22,0,0,0,.3,2.24v5.9A1.22,1.22,0,0,0,1.52,9.36H12.69V49.91a1.26,1.26,0,0,0,1.21,1.21h6.7a1.26,1.26,0,0,0,1.22-1.21V9.36H33A1.21,1.21,0,0,0,34.2,8.14V2.24A1.22,1.22,0,0,0,33,1Z"/><path class="cls-1" d="M79.71,51.43H73.45a2.22,2.22,0,0,1-2.22-1.53l-3.49-7.69H46.4L42.91,49.9a2.34,2.34,0,0,1-2.22,1.53H34.42a1.48,1.48,0,0,1-1.3-.66,1.45,1.45,0,0,1-.06-1.43L55.46.88A1.43,1.43,0,0,1,56.82,0h.72a1.34,1.34,0,0,1,1.35.88L81.07,49.34a1.48,1.48,0,0,1,0,1.43A1.5,1.5,0,0,1,79.71,51.43Zm-33.5-9.52H67.93L68,42l3.53,7.77c.51,1,1,1.35,2,1.35h6.26a1.21,1.21,0,0,0,1.06-.51,1.15,1.15,0,0,0,0-1.14L58.62,1A1.06,1.06,0,0,0,57.54.3h-.72A1.13,1.13,0,0,0,55.73,1L33.33,49.47a1.18,1.18,0,0,0,0,1.14,1.19,1.19,0,0,0,1.05.51h6.27a2.06,2.06,0,0,0,2-1.34Zm18.33-7.69H49.6l.09-.22,7.1-15.93h.41Zm-14.48-.3h14L57,18.38h0Z"/><path class="cls-1" d="M115,51.43H88.64a1.53,1.53,0,0,1-1.52-1.52V2.24A1.52,1.52,0,0,1,88.64.72h6.62a1.56,1.56,0,0,1,1.52,1.52V42.48H115A1.53,1.53,0,0,1,116.51,44v5.91A1.53,1.53,0,0,1,115,51.43ZM88.64,1a1.22,1.22,0,0,0-1.22,1.22V49.91a1.22,1.22,0,0,0,1.22,1.21H115a1.22,1.22,0,0,0,1.22-1.21V44A1.22,1.22,0,0,0,115,42.79H96.48V2.24A1.27,1.27,0,0,0,95.26,1Z"/><path class="cls-1" d="M154.3,51.43H125a1.53,1.53,0,0,1-1.52-1.52V2.24A1.52,1.52,0,0,1,125,.72h29.3a1.52,1.52,0,0,1,1.52,1.52v5.9a1.52,1.52,0,0,1-1.52,1.52H133.14V21.17h17.64a1.56,1.56,0,0,1,1.51,1.52v6a1.52,1.52,0,0,1-1.51,1.51H133.14v12.3H154.3A1.53,1.53,0,0,1,155.82,44v5.91A1.53,1.53,0,0,1,154.3,51.43ZM125,1a1.22,1.22,0,0,0-1.22,1.22V49.91A1.22,1.22,0,0,0,125,51.12h29.3a1.21,1.21,0,0,0,1.22-1.21V44a1.21,1.21,0,0,0-1.22-1.21H132.84V29.88h17.94A1.21,1.21,0,0,0,152,28.67v-6a1.26,1.26,0,0,0-1.21-1.22H132.84V9.36H154.3a1.21,1.21,0,0,0,1.22-1.22V2.24A1.22,1.22,0,0,0,154.3,1Z"/><path class="cls-1" d="M206.29,52.15h-1A1.74,1.74,0,0,1,204,51.6L174.54,19.17V49.91A1.53,1.53,0,0,1,173,51.43h-6.55A1.56,1.56,0,0,1,165,49.91V1.45A1.51,1.51,0,0,1,166.47,0h1.08a1.72,1.72,0,0,1,1.33.55l29.27,31.2V2.24A1.52,1.52,0,0,1,199.66.72h6.63a1.56,1.56,0,0,1,1.52,1.52V50.7A1.51,1.51,0,0,1,206.29,52.15Zm-32-33.36h.36l.05.05,29.52,32.55a1.42,1.42,0,0,0,1.11.45h1a1.2,1.2,0,0,0,1.22-1.14V2.24A1.27,1.27,0,0,0,206.29,1h-6.63a1.22,1.22,0,0,0-1.21,1.22V32.13h-.36l-.05-.05L168.66.76A1.4,1.4,0,0,0,167.55.3h-1.08a1.21,1.21,0,0,0-1.22,1.15V49.91a1.26,1.26,0,0,0,1.22,1.21H173a1.22,1.22,0,0,0,1.22-1.21Z"/><path class="cls-1" d="M236.09,51.43H229.4a1.56,1.56,0,0,1-1.52-1.52V9.66H217a1.52,1.52,0,0,1-1.52-1.52V2.24A1.52,1.52,0,0,1,217,.72h31.47A1.53,1.53,0,0,1,250,2.24v5.9a1.53,1.53,0,0,1-1.52,1.52H237.61V49.91A1.56,1.56,0,0,1,236.09,51.43ZM217,1a1.22,1.22,0,0,0-1.22,1.22v5.9A1.22,1.22,0,0,0,217,9.36h11.17V49.91a1.26,1.26,0,0,0,1.22,1.21h6.69a1.26,1.26,0,0,0,1.22-1.21V9.36h11.17a1.22,1.22,0,0,0,1.22-1.22V2.24A1.22,1.22,0,0,0,248.48,1Z"/><path class="cls-1" d="M279.44,52.15a25.85,25.85,0,0,1-26-26A26,26,0,0,1,261,7.64a26.1,26.1,0,0,1,36.9,0,26,26,0,0,1-18.47,44.51Zm0-51.85a25.46,25.46,0,0,0-18.22,7.55,25.76,25.76,0,0,0-7.48,18.29,25.74,25.74,0,1,0,51.47,0A25.73,25.73,0,0,0,279.44.3Zm0,42.49a16.65,16.65,0,1,1,16.71-16.65A16.66,16.66,0,0,1,279.44,42.79Zm0-33.13A16.58,16.58,0,1,0,291,14.53,16.23,16.23,0,0,0,279.44,9.66Z"/></g></g></svg>