<svg id="Layer_1" data-name="Layer 1" xmlns="http://www.w3.org/2000/svg" viewBox="0 0 1020.2 101"><defs><style>.cls-1{fill:#fff;}</style></defs><path class="cls-1" d="M79.39,99.61H66.61a3.15,3.15,0,0,1-3.14-3.14V58.64H19.19V96.47a3.14,3.14,0,0,1-3.14,3.14H3.14A3.23,3.23,0,0,1,0,96.47V4.53A3.23,3.23,0,0,1,3.14,1.39H16.05a3.14,3.14,0,0,1,3.14,3.14v36.3H63.47V4.53a3.15,3.15,0,0,1,3.14-3.14H79.39a3.23,3.23,0,0,1,3.14,3.14V96.47A3.23,3.23,0,0,1,79.39,99.61Zm-61.2-42H64.47V96.47a2.14,2.14,0,0,0,2.14,2.14H79.39a2.22,2.22,0,0,0,2.14-2.14V4.53a2.22,2.22,0,0,0-2.14-2.14H66.61a2.14,2.14,0,0,0-2.14,2.14v37.3H18.19V4.53a2.14,2.14,0,0,0-2.14-2.14H3.14A2.22,2.22,0,0,0,1,4.53V96.47a2.22,2.22,0,0,0,2.14,2.14H16.05a2.14,2.14,0,0,0,2.14-2.14Z"/><path class="cls-1" d="M181.47,99.61H169.39c-2.45,0-3.53-1.17-4.47-3l-6.68-14.73H117.35l-6.67,14.71a4.69,4.69,0,0,1-4.48,3.07H94.11a3.07,3.07,0,0,1-2.69-1.36,3,3,0,0,1-.12-3h0L134.49,1.82A3,3,0,0,1,137.31,0h1.39a2.83,2.83,0,0,1,2.8,1.81l42.79,93.48a3,3,0,0,1-.12,3A3.09,3.09,0,0,1,181.47,99.61ZM116.71,80.83h42.17l6.94,15.3c.94,1.87,1.81,2.48,3.57,2.48h12.08a2.13,2.13,0,0,0,1.86-.9,2,2,0,0,0,0-2L140.6,2.24A1.86,1.86,0,0,0,138.7,1h-1.39a2,2,0,0,0-1.92,1.25L92.21,95.71a2,2,0,0,0,.05,2,2.13,2.13,0,0,0,1.85.9H106.2a3.68,3.68,0,0,0,3.56-2.46Zm35.82-14.41H123.07l14.05-31.56h1.07Zm-27.92-1H151l-13.32-29.3Z"/><path class="cls-1" d="M230,99.61H196.34a3.15,3.15,0,0,1-3.14-3.14V4.53a3.15,3.15,0,0,1,3.14-3.14h31.8c17,0,29.81,11.26,29.81,26.19,0,10.94-7.12,18.49-13.89,22v0c6.38,2.28,16.67,8.21,16.67,22.72C260.73,87.87,247.5,99.61,230,99.61ZM196.34,2.39a2.14,2.14,0,0,0-2.14,2.14V96.47a2.14,2.14,0,0,0,2.14,2.14H230c17,0,29.78-11.31,29.78-26.3,0-14.15-10.23-19.79-16.33-21.89l-.34-.12V48.94l.28-.14C249.92,45.51,257,38.21,257,27.58c0-14.36-12.38-25.19-28.81-25.19ZM228.7,83.22H211.12V57.5H228.7a12.37,12.37,0,0,1,12.72,12.58C241.42,77.57,236,83.22,228.7,83.22Zm-16.58-1H228.7c6.68,0,11.72-5.22,11.72-12.14A11.4,11.4,0,0,0,228.7,58.5H212.12Zm14.64-39H211.12V17.92h15.64c7.27,0,12.16,4.94,12.16,12.3C238.92,37.75,233.81,43.22,226.76,43.22Zm-14.64-1h14.64c6.47,0,11.16-5,11.16-12,0-6.76-4.48-11.3-11.16-11.3H212.12Z"/><path class="cls-1" d="M292.45,99.61H279.54a3.23,3.23,0,0,1-3.14-3.14V4.53a3.23,3.23,0,0,1,3.14-3.14h12.91a3.22,3.22,0,0,1,3.14,3.14V96.47A3.22,3.22,0,0,1,292.45,99.61ZM279.54,2.39a2.22,2.22,0,0,0-2.14,2.14V96.47a2.22,2.22,0,0,0,2.14,2.14h12.91a2.22,2.22,0,0,0,2.14-2.14V4.53a2.22,2.22,0,0,0-2.14-2.14Z"/><path class="cls-1" d="M369.82,99.61H319a3.15,3.15,0,0,1-3.14-3.14V4.53A3.15,3.15,0,0,1,319,1.39h12.78a3.23,3.23,0,0,1,3.14,3.14V81.94h34.92A3.15,3.15,0,0,1,373,85.08V96.47A3.15,3.15,0,0,1,369.82,99.61ZM319,2.39a2.14,2.14,0,0,0-2.14,2.14V96.47A2.14,2.14,0,0,0,319,98.61h50.84A2.14,2.14,0,0,0,372,96.47V85.08a2.14,2.14,0,0,0-2.14-2.14H333.9V4.53a2.22,2.22,0,0,0-2.14-2.14Z"/><path class="cls-1" d="M399.68,99.61H386.76a3.23,3.23,0,0,1-3.14-3.14V4.53a3.23,3.23,0,0,1,3.14-3.14h12.92a3.23,3.23,0,0,1,3.14,3.14V96.47A3.23,3.23,0,0,1,399.68,99.61ZM386.76,2.39a2.22,2.22,0,0,0-2.14,2.14V96.47a2.22,2.22,0,0,0,2.14,2.14h12.92a2.22,2.22,0,0,0,2.14-2.14V4.53a2.22,2.22,0,0,0-2.14-2.14Z"/><path class="cls-1" d="M454.82,99.61H441.9a3.23,3.23,0,0,1-3.14-3.14V19.06H418a3.15,3.15,0,0,1-3.14-3.14V4.53A3.15,3.15,0,0,1,418,1.39h60.7a3.15,3.15,0,0,1,3.14,3.14V15.92a3.15,3.15,0,0,1-3.14,3.14H458V96.47A3.23,3.23,0,0,1,454.82,99.61ZM418,2.39a2.14,2.14,0,0,0-2.14,2.14V15.92A2.14,2.14,0,0,0,418,18.06h21.75V96.47a2.22,2.22,0,0,0,2.14,2.14h12.92A2.22,2.22,0,0,0,457,96.47V18.06h21.75a2.14,2.14,0,0,0,2.14-2.14V4.53a2.14,2.14,0,0,0-2.14-2.14Z"/><path class="cls-1" d="M572.6,99.61H560.52c-2.46,0-3.54-1.17-4.48-3l-6.68-14.73H508.48L501.8,96.54a4.68,4.68,0,0,1-4.48,3.07H485.24a3.09,3.09,0,0,1-2.7-1.36,3,3,0,0,1-.12-3h0l43.2-93.47A3,3,0,0,1,528.43,0h1.39a2.86,2.86,0,0,1,2.81,1.8l42.79,93.49a3,3,0,0,1-.13,3A3.07,3.07,0,0,1,572.6,99.61ZM507.83,80.83H550l6.94,15.3c.94,1.87,1.81,2.48,3.58,2.48H572.6a2.12,2.12,0,0,0,1.85-.9,2.07,2.07,0,0,0,.06-2L531.73,2.24A1.87,1.87,0,0,0,529.82,1h-1.39a2,2,0,0,0-1.91,1.25L483.33,95.71a2,2,0,0,0,.05,2,2.13,2.13,0,0,0,1.86.9h12.08a3.66,3.66,0,0,0,3.56-2.46Zm35.82-14.41H514.19l14.06-31.56h1.06Zm-27.92-1H542.1l-13.32-29.3Z"/><path class="cls-1" d="M620.24,99.61H587.32a3.12,3.12,0,0,1-3-3.14V4.53a3.12,3.12,0,0,1,3-3.14h32.92a49.11,49.11,0,1,1,0,98.22ZM587.32,2.39a2.1,2.1,0,0,0-2,2.14V96.47a2.1,2.1,0,0,0,2,2.14h32.92a48.11,48.11,0,1,0,0-96.22Zm31.25,80.28H602.24V18.19h16.33c18.7,0,31.75,13.23,31.75,32.17S637.27,82.67,618.57,82.67Zm-15.33-1h15.33c18.11,0,30.75-12.88,30.75-31.31s-12.64-31.17-30.75-31.17H603.24Z"/><path class="cls-1" d="M728.72,101a49.83,49.83,0,0,1-50.37-50.36A50.53,50.53,0,0,1,693,14.8,50,50,0,0,1,728.72,0a50.63,50.63,0,0,1,50.5,50.64A50.17,50.17,0,0,1,728.72,101Zm0-100a49,49,0,0,0-35,14.5,49.56,49.56,0,0,0-14.37,35.14,49.44,49.44,0,1,0,98.87,0A49.63,49.63,0,0,0,728.72,1Zm0,81.94a32.44,32.44,0,0,1,0-64.88c17.58,0,32.44,14.92,32.44,32.58A32.41,32.41,0,0,1,728.72,82.94Zm0-63.88a31.44,31.44,0,1,0,31.44,31.58C760.16,33.52,745.76,19.06,728.72,19.06Z"/><path class="cls-1" d="M863,99.61H848.44a2.86,2.86,0,0,1-2.67-1.53L827.44,61.56H812.83V96.47a3.23,3.23,0,0,1-3.14,3.14H796.91a3.14,3.14,0,0,1-3.13-3.14V4.53a3.14,3.14,0,0,1,3.13-3.14h39.73a30.6,30.6,0,0,1,30.77,30.36c0,12.25-7.78,23-20.35,28.31l18.77,34.79a3.38,3.38,0,0,1,0,3.29A3.16,3.16,0,0,1,863,99.61Zm-51.2-39h16.23l18.61,37.08a1.86,1.86,0,0,0,1.77,1H863a2.14,2.14,0,0,0,1.94-1,2.38,2.38,0,0,0,0-2.3l-19.3-35.77.52-.21c12.49-5,20.24-15.59,20.24-27.59A29.6,29.6,0,0,0,836.64,2.39H796.91a2.13,2.13,0,0,0-2.13,2.14V96.47a2.13,2.13,0,0,0,2.13,2.14h12.78a2.22,2.22,0,0,0,2.14-2.14Zm23.28-13.87H812V18.06h23.14a14.3,14.3,0,0,1,14.25,14C849.36,40,842.83,46.69,835.11,46.69Zm-22.14-1h22.14c7.18,0,13.25-6.25,13.25-13.66a13.29,13.29,0,0,0-13.25-13H813Z"/><path class="cls-1" d="M942.75,99.61H886.22a3.15,3.15,0,0,1-3.14-3.14V4.53a3.15,3.15,0,0,1,3.14-3.14h56.53a3.15,3.15,0,0,1,3.14,3.14V15.92a3.15,3.15,0,0,1-3.14,3.14H902.14V40.83h33.8A3.22,3.22,0,0,1,939.08,44V55.5a3.15,3.15,0,0,1-3.14,3.14h-33.8v23.3h40.61a3.15,3.15,0,0,1,3.14,3.14V96.47A3.15,3.15,0,0,1,942.75,99.61ZM886.22,2.39a2.14,2.14,0,0,0-2.14,2.14V96.47a2.14,2.14,0,0,0,2.14,2.14h56.53a2.14,2.14,0,0,0,2.14-2.14V85.08a2.14,2.14,0,0,0-2.14-2.14H901.14V57.64h34.8a2.14,2.14,0,0,0,2.14-2.14V44a2.22,2.22,0,0,0-2.14-2.14h-34.8V18.06h41.61a2.14,2.14,0,0,0,2.14-2.14V4.53a2.14,2.14,0,0,0-2.14-2.14Z"/><path class="cls-1" d="M987.75,101c-18.16,0-27.39-8-30.87-11-1.61-1.28-2.17-2.38-.81-4.79l5-8.62a3.6,3.6,0,0,1,2.46-1.79,3.8,3.8,0,0,1,3,.67C972.46,80,978.5,84,987.2,84c6.8,0,12.13-4.48,12.13-10.2,0-6.44-5.18-11.28-17.32-16.2-11.34-4.58-26.43-12.73-26.43-30.46C955.58,14.08,965.52,0,987.33,0c14.79,0,26,7.84,28.08,9.41a3.41,3.41,0,0,1,1.47,2.25,3.93,3.93,0,0,1-.52,3l-5.28,7.9c-1.23,1.85-3.6,3.11-5.55,1.81l-1-.65c-5.64-3.55-11-6.91-18-6.91-8.1,0-11.72,4.64-11.72,9.23,0,6.06,4.66,10.44,16.08,15.09C1005.36,47,1020.2,55.33,1020.2,73,1020.2,86.57,1008.83,101,987.75,101ZM964.27,75.78a3.31,3.31,0,0,0-.55,0,2.63,2.63,0,0,0-1.79,1.31l-5,8.61c-1.08,1.93-.7,2.5.58,3.53h0C960.92,92.22,970,100,987.75,100c20.43,0,31.45-13.91,31.45-27,0-17.08-14.52-25.22-28.72-30.92-11.86-4.84-16.7-9.48-16.7-16,0-5.09,3.93-10.23,12.72-10.23,7.34,0,12.78,3.44,18.54,7.07l1,.65c1.43.95,3.22-.08,4.18-1.52l5.28-7.92a2.88,2.88,0,0,0,.37-2.24,2.5,2.5,0,0,0-1-1.64C1012.76,8.67,1001.81,1,987.33,1c-14.81,0-30.75,8.19-30.75,26.17,0,17.12,14.73,25.06,25.8,29.53,12.59,5.1,18,10.22,18,17.13,0,6.28-5.77,11.2-13.13,11.2-9,0-15.2-4.12-21.28-8.71A2.7,2.7,0,0,0,964.27,75.78Z"/></svg>