<svg xmlns="http://www.w3.org/2000/svg" viewBox="0 0 454.04 68.29"><defs><style>.cls-1{fill:#231f20;}</style></defs><g id="Layer_2" data-name="Layer 2"><g id="Layer_1-2" data-name="Layer 1"><path class="cls-1" d="M20.6,67.57H13.9a1.55,1.55,0,0,1-1.51-1.51V25.81H1.52A1.52,1.52,0,0,1,0,24.29v-5.9a1.52,1.52,0,0,1,1.52-1.52H33a1.52,1.52,0,0,1,1.52,1.52v5.9A1.52,1.52,0,0,1,33,25.81H22.12V66.06A1.56,1.56,0,0,1,20.6,67.57ZM1.52,17.17A1.22,1.22,0,0,0,.3,18.39v5.9a1.22,1.22,0,0,0,1.22,1.22H12.69V66.06a1.26,1.26,0,0,0,1.21,1.21h6.7a1.26,1.26,0,0,0,1.22-1.21V25.51H33a1.22,1.22,0,0,0,1.22-1.22v-5.9A1.22,1.22,0,0,0,33,17.17Z"/><path class="cls-1" d="M73,67.57H43.71a1.52,1.52,0,0,1-1.52-1.51V18.39a1.52,1.52,0,0,1,1.52-1.52H73a1.52,1.52,0,0,1,1.51,1.52v5.9A1.52,1.52,0,0,1,73,25.81H51.85V37.32H69.49A1.56,1.56,0,0,1,71,38.84v6a1.52,1.52,0,0,1-1.52,1.52H51.85v12.3H73a1.52,1.52,0,0,1,1.51,1.52v5.91A1.52,1.52,0,0,1,73,67.57ZM43.71,17.17a1.22,1.22,0,0,0-1.22,1.22V66.06a1.22,1.22,0,0,0,1.22,1.21H73a1.21,1.21,0,0,0,1.21-1.21V60.15A1.22,1.22,0,0,0,73,58.93H51.55V46H69.49a1.22,1.22,0,0,0,1.22-1.22v-6a1.27,1.27,0,0,0-1.22-1.22H51.55V25.51H73a1.22,1.22,0,0,0,1.21-1.22v-5.9A1.22,1.22,0,0,0,73,17.17Z"/><path class="cls-1" d="M106.06,68.29a26,26,0,0,1-18.5-7.57,25.73,25.73,0,0,1-7.64-18.43,26.17,26.17,0,0,1,26.14-26.14,24.6,24.6,0,0,1,17.53,6.73,1.55,1.55,0,0,1,.54,1.11,1.51,1.51,0,0,1-.46,1.13l-4.39,4.53a1.3,1.3,0,0,1-1,.48,1.46,1.46,0,0,1-1.07-.48,16.85,16.85,0,0,0-11-4.2c-8.92,0-15.91,7.3-15.91,16.63s7,16.48,16,16.48a17.07,17.07,0,0,0,10.92-4.07,1.48,1.48,0,0,1,2,0l4.46,4.61a1.31,1.31,0,0,1,.42.92,1.74,1.74,0,0,1-.49,1.23A24.77,24.77,0,0,1,106.06,68.29Zm0-51.84A25.87,25.87,0,0,0,80.22,42.29a25.46,25.46,0,0,0,7.55,18.22A25.76,25.76,0,0,0,106.06,68a24.49,24.49,0,0,0,17.4-6.94,1.45,1.45,0,0,0,.4-1,1,1,0,0,0-.33-.71l-4.47-4.62a1.17,1.17,0,0,0-1.59,0,17.39,17.39,0,0,1-11.12,4.14,15.9,15.9,0,0,1-11.63-5,17,17,0,0,1-4.65-11.79c0-9.5,7.12-16.93,16.21-16.93a17.19,17.19,0,0,1,11.19,4.28,1.2,1.2,0,0,0,.85.4,1,1,0,0,0,.74-.38l4.39-4.54a1.19,1.19,0,0,0-.06-1.8A24.27,24.27,0,0,0,106.06,16.45Z"/><path class="cls-1" d="M173.74,68.29h-1a1.7,1.7,0,0,1-1.33-.55L142,35.32V66.06a1.52,1.52,0,0,1-1.52,1.51h-6.55a1.56,1.56,0,0,1-1.52-1.51V17.6a1.5,1.5,0,0,1,1.52-1.45H135a1.73,1.73,0,0,1,1.33.55L165.6,47.9V18.39a1.52,1.52,0,0,1,1.52-1.52h6.62a1.56,1.56,0,0,1,1.52,1.52V66.85A1.5,1.5,0,0,1,173.74,68.29Zm-32-33.35h.36l0,.05,29.52,32.55a1.46,1.46,0,0,0,1.12.45h1A1.2,1.2,0,0,0,175,66.85V18.39a1.27,1.27,0,0,0-1.22-1.22h-6.62a1.22,1.22,0,0,0-1.22,1.22V48.28h-.36L136.12,16.91a1.41,1.41,0,0,0-1.11-.46h-1.08a1.2,1.2,0,0,0-1.22,1.15V66.06a1.26,1.26,0,0,0,1.22,1.21h6.55a1.22,1.22,0,0,0,1.22-1.21Z"/><path class="cls-1" d="M210.25,68.29a26.12,26.12,0,0,1-18.44-44.5,26.06,26.06,0,0,1,44.51,18.5,25.91,25.91,0,0,1-26.07,26Zm0-51.84A25.46,25.46,0,0,0,192,24a25.8,25.8,0,1,0,18.22-7.55Zm0,42.48A16.65,16.65,0,1,1,227,42.29,16.65,16.65,0,0,1,210.25,58.93Zm0-33.12a16.58,16.58,0,1,0,11.57,4.87A16.23,16.23,0,0,0,210.25,25.81Z"/><path class="cls-1" d="M273.17,67.57H246.82a1.52,1.52,0,0,1-1.52-1.51V18.39a1.52,1.52,0,0,1,1.52-1.52h6.62A1.56,1.56,0,0,1,255,18.39V58.63h18.21a1.52,1.52,0,0,1,1.52,1.52v5.91A1.52,1.52,0,0,1,273.17,67.57Zm-26.35-50.4a1.22,1.22,0,0,0-1.22,1.22V66.06a1.22,1.22,0,0,0,1.22,1.21h26.35a1.21,1.21,0,0,0,1.22-1.21V60.15a1.22,1.22,0,0,0-1.22-1.22H254.66V18.39a1.27,1.27,0,0,0-1.22-1.22Z"/><path class="cls-1" d="M303.41,68.29A26.11,26.11,0,0,1,285,23.79a26.06,26.06,0,0,1,44.51,18.5,25.91,25.91,0,0,1-26.08,26Zm0-51.84A25.5,25.5,0,0,0,285.19,24a25.81,25.81,0,0,0,36.48,36.51,25.81,25.81,0,0,0-18.26-44.06Zm0,42.48a16.64,16.64,0,1,1,16.72-16.64A16.66,16.66,0,0,1,303.41,58.93Zm0-33.12A16.58,16.58,0,1,0,315,30.68,16.24,16.24,0,0,0,303.41,25.81Z"/><path class="cls-1" d="M361.52,68.22a26,26,0,0,1,0-52.07,27.37,27.37,0,0,1,17.66,6.73,1.55,1.55,0,0,1,.09,2.24L374.8,29.8a1.38,1.38,0,0,1-2.08,0A16.09,16.09,0,0,0,362,25.67c-8.81,0-16,7.42-16,16.55a16.22,16.22,0,0,0,16,16.34,22.47,22.47,0,0,0,8.42-1.75V50.94h-5.61a1.45,1.45,0,0,1-1.52-1.45V43.81a1.47,1.47,0,0,1,1.52-1.52h13.83a1.5,1.5,0,0,1,1.44,1.52V62.24a1.52,1.52,0,0,1-.64,1.27A36.86,36.86,0,0,1,361.52,68.22Zm0-51.77A25.46,25.46,0,0,0,343.33,24a25.74,25.74,0,0,0-7.51,18.29,25.51,25.51,0,0,0,25.7,25.63,36.41,36.41,0,0,0,17.77-4.66,1.2,1.2,0,0,0,.51-1V43.81a1.19,1.19,0,0,0-1.14-1.22H364.83a1.18,1.18,0,0,0-1.22,1.22v5.68a1.16,1.16,0,0,0,1.22,1.15h5.91V57l-.09,0A22.85,22.85,0,0,1,362,58.86a16.52,16.52,0,0,1-16.35-16.64c0-9.29,7.3-16.85,16.28-16.85a16.34,16.34,0,0,1,11,4.21,1.1,1.1,0,0,0,1.67,0l4.46-4.68a1.21,1.21,0,0,0,.36-.9,1.41,1.41,0,0,0-.43-.91A27.05,27.05,0,0,0,361.52,16.45Z"/><path class="cls-1" d="M398.38,67.57h-6.7a1.56,1.56,0,0,1-1.52-1.51V18.39a1.56,1.56,0,0,1,1.52-1.52h6.7a1.56,1.56,0,0,1,1.52,1.52V66.06A1.56,1.56,0,0,1,398.38,67.57Zm-6.7-50.4a1.27,1.27,0,0,0-1.22,1.22V66.06a1.26,1.26,0,0,0,1.22,1.21h6.7a1.26,1.26,0,0,0,1.22-1.21V18.39a1.27,1.27,0,0,0-1.22-1.22Zm-2.56-4.36a2.56,2.56,0,0,1-2-1.55c-.55-1.09-.53-2.45,0-2.86h0L399.3.33a2.22,2.22,0,0,1,1.81-.24,3.82,3.82,0,0,1,2.3,2,4.5,4.5,0,0,1,.51,3.35,1.82,1.82,0,0,1-.94,1.1l-13.32,6.12A1.25,1.25,0,0,1,389.12,12.81ZM387.3,8.65c-.39.28-.46,1.45.05,2.47s1.5,1.61,2.18,1.3L402.85,6.3a1.52,1.52,0,0,0,.79-.92,4.24,4.24,0,0,0-.5-3.13A3.52,3.52,0,0,0,401,.38a1.87,1.87,0,0,0-1.56.2Z"/><path class="cls-1" d="M452.53,67.57h-6.27A2.21,2.21,0,0,1,444,66.05l-3.49-7.69H419.21l-3.49,7.69a2.33,2.33,0,0,1-2.22,1.52h-6.27a1.5,1.5,0,0,1-1.3-.65,1.45,1.45,0,0,1-.06-1.43L428.27,17a1.43,1.43,0,0,1,1.36-.88h.72a1.37,1.37,0,0,1,1.36.87l22.18,48.47a1.42,1.42,0,0,1-1.36,2.08ZM419,58.06h21.72l3.57,7.86c.51,1,1,1.35,1.95,1.35h6.27a1.23,1.23,0,0,0,1.05-.51,1.17,1.17,0,0,0,0-1.15L431.43,17.15a1.06,1.06,0,0,0-1.08-.7h-.72a1.14,1.14,0,0,0-1.09.71l-22.4,48.45a1.2,1.2,0,0,0,0,1.15,1.22,1.22,0,0,0,1.05.51h6.27a2.05,2.05,0,0,0,1.95-1.34Zm18.33-7.7H422.41l.1-.21,7.09-15.93H430Zm-14.48-.3h14l-7.06-15.54h0Z"/></g></g></svg>