<svg xmlns="http://www.w3.org/2000/svg" viewBox="0 0 356.83 67.99"><defs><style>.cls-1{fill:#231f20;}</style></defs><g id="Layer_2" data-name="Layer 2"><g id="Layer_1-2" data-name="Layer 1"><path class="cls-1" d="M0,18.24a1.37,1.37,0,0,1,1.37-1.37H8a1.42,1.42,0,0,1,1.37,1.37V58.63H27.72A1.37,1.37,0,0,1,29.09,60v5.91a1.36,1.36,0,0,1-1.37,1.36H1.37A1.36,1.36,0,0,1,0,65.91Z"/><path class="cls-1" d="M58,16.15a25.92,25.92,0,1,1-25.85,26A25.87,25.87,0,0,1,58,16.15Zm0,42.48A16.56,16.56,0,1,0,41.47,42.14,16.59,16.59,0,0,0,58,58.63Z"/><path class="cls-1" d="M116.06,16.15a27.22,27.22,0,0,1,17.58,6.7,1.4,1.4,0,0,1,.07,2l-4.47,4.68a1.22,1.22,0,0,1-1.87,0,16.35,16.35,0,0,0-10.87-4.17c-9,0-16.13,7.7-16.13,16.7a16.38,16.38,0,0,0,16.2,16.49,22.47,22.47,0,0,0,8.57-1.8V50.64h-5.76a1.31,1.31,0,0,1-1.37-1.3V43.66a1.32,1.32,0,0,1,1.37-1.37H133.2a1.36,1.36,0,0,1,1.3,1.37V62.09a1.36,1.36,0,0,1-.58,1.15,36.36,36.36,0,0,1-17.86,4.68,25.89,25.89,0,0,1,0-51.77Z"/><path class="cls-1" d="M141.77,8.37,153.94.31c1.22-.79,3,0,3.88,1.73s.87,3.67-.36,4.24l-13.32,6.13c-.79.36-1.8-.29-2.37-1.37S141.26,8.73,141.77,8.37Zm3.09,9.87a1.42,1.42,0,0,1,1.37-1.37h6.7a1.42,1.42,0,0,1,1.37,1.37V65.91a1.41,1.41,0,0,1-1.37,1.36h-6.7a1.41,1.41,0,0,1-1.37-1.36Z"/><path class="cls-1" d="M164.45,62.38c-.72-.58-1-1-.36-2.16l2.59-4.47a1.66,1.66,0,0,1,2.45-.5c3,2.23,6.19,4.46,10.87,4.46,3.74,0,6.55-2.44,6.55-5.54,0-3.67-3.09-6.19-9.14-8.64-6.77-2.74-13.54-7.06-13.54-15.56,0-6.4,4.75-13.82,16.2-13.82A25.34,25.34,0,0,1,194.47,21a1.78,1.78,0,0,1,.43,2.38l-2.73,4.1a1.9,1.9,0,0,1-2.52.87c-3.1-1.95-6.05-4-10-4s-6.34,2.3-6.34,5c0,3.38,2.67,5.69,8.5,8.06,7,2.81,15,7,15,16.28,0,7.41-6.41,14.25-16.56,14.25C171.21,68,166.53,64.18,164.45,62.38Z"/><path class="cls-1" d="M213.91,25.51h-11a1.37,1.37,0,0,1-1.37-1.37v-5.9a1.37,1.37,0,0,1,1.37-1.37h31.47a1.37,1.37,0,0,1,1.37,1.37v5.9a1.37,1.37,0,0,1-1.37,1.37h-11v40.4A1.41,1.41,0,0,1,222,67.27h-6.7a1.41,1.41,0,0,1-1.37-1.36Z"/><path class="cls-1" d="M243.72,18.24a1.42,1.42,0,0,1,1.37-1.37h6.69a1.42,1.42,0,0,1,1.37,1.37V65.91a1.41,1.41,0,0,1-1.37,1.36h-6.69a1.41,1.41,0,0,1-1.37-1.36Z"/><path class="cls-1" d="M288.43,16.15a24.36,24.36,0,0,1,17.43,6.7,1.34,1.34,0,0,1,.07,2l-4.39,4.54a1.16,1.16,0,0,1-1.8,0,17,17,0,0,0-11.09-4.25c-9.22,0-16.06,7.7-16.06,16.78s6.91,16.63,16.13,16.63a17.29,17.29,0,0,0,11-4.1,1.32,1.32,0,0,1,1.8,0L306,59.07a1.37,1.37,0,0,1-.07,1.94,24.73,24.73,0,0,1-17.5,7,25.92,25.92,0,1,1,0-51.84Z"/><path class="cls-1" d="M309,65.4l22.39-48.46a1.31,1.31,0,0,1,1.23-.79h.72a1.22,1.22,0,0,1,1.22.79L356.69,65.4a1.27,1.27,0,0,1-1.23,1.87H349.2a2.07,2.07,0,0,1-2.09-1.44l-3.53-7.77H322.05l-3.53,7.77a2.15,2.15,0,0,1-2.08,1.44h-6.27A1.27,1.27,0,0,1,309,65.4Zm31.1-15.34-7.2-15.84h-.21l-7.06,15.84Z"/></g></g></svg>