<?xml version="1.0" encoding="utf-8"?>
<!-- Generator: Adobe Illustrator 26.0.3, SVG Export Plug-In . SVG Version: 6.00 Build 0)  -->
<svg version="1.1" id="Capa_1" xmlns="http://www.w3.org/2000/svg" xmlns:xlink="http://www.w3.org/1999/xlink" x="0px" y="0px"
	 viewBox="0 0 22 22" style="enable-background:new 0 0 22 22;" xml:space="preserve">
<style type="text/css">
	.st0{fill:#FDB71A;}
</style>
<g id="Layer_2">
	<g id="Layer_1-2">
		<g id="_01_Icons_Line_mac-pro">
			<path id="mac-pro" class="st0" d="M15.5,22h-9C5.1,22,4,20.9,4,19.5c0,0,0,0,0,0v-17C4,1.1,5.1,0,6.5,0c0,0,0,0,0,0h9
				C16.9,0,18,1.1,18,2.5c0,0,0,0,0,0v17C18,20.9,16.9,22,15.5,22C15.5,22,15.5,22,15.5,22z M5,19v0.5C5,20.3,5.7,21,6.5,21h9
				c0.8,0,1.5-0.7,1.5-1.5V19H5z M5,4v14h12V4H5z M6.5,1C5.7,1,5,1.7,5,2.5V3h12V2.5C17,1.7,16.3,1,15.5,1H6.5z M7.5,17h-1
				C6.2,17,6,16.8,6,16.5S6.2,16,6.5,16h1C7.8,16,8,16.2,8,16.5S7.8,17,7.5,17z M7.5,15h-1C6.2,15,6,14.8,6,14.5S6.2,14,6.5,14h1
				C7.8,14,8,14.2,8,14.5S7.8,15,7.5,15z M7,13c-0.6,0-1-0.4-1-1s0.4-1,1-1s1,0.4,1,1S7.6,13,7,13z M15.5,8h-9C6.2,8,6,7.8,6,7.5
				S6.2,7,6.5,7h9C15.8,7,16,7.2,16,7.5S15.8,8,15.5,8z M15.5,6h-9C6.2,6,6,5.8,6,5.6c0,0,0,0,0-0.1C6,5.2,6.2,5,6.4,5
				c0,0,0,0,0.1,0h9C15.8,5,16,5.2,16,5.4c0,0,0,0,0,0.1C16,5.8,15.8,6,15.5,6C15.5,6,15.5,6,15.5,6z"/>
		</g>
	</g>
</g>
</svg>
