<svg xmlns="http://www.w3.org/2000/svg" viewBox="0 0 42.35 38.12"><defs><style>.cls-1{fill:#ffb71b;}</style></defs><g id="Layer_2" data-name="Layer 2"><g id="Layer_1-2" data-name="Layer 1"><path class="cls-1" d="M7.2,6.35,9.32,19.06H36.21l3.6-12.71ZM37.06,27.53H13.13a5.45,5.45,0,0,1-5.3-4.45l-.42-2.75L4.87,4.87A3.18,3.18,0,0,0,1.69,2.12H1.06A1,1,0,0,1,0,1.06,1,1,0,0,1,1.06,0h.63A5.44,5.44,0,0,1,7,4.24H41.3A1,1,0,0,1,42.35,5.3v.21L38.12,20.33a1.42,1.42,0,0,1-1.06.85H9.74L10,22.66a3.19,3.19,0,0,0,3.18,2.75H37.06a1.06,1.06,0,0,1,0,2.12M12.71,31.77a2.12,2.12,0,1,0,0,4.23,2.12,2.12,0,0,0,0-4.23m0,6.35a4.24,4.24,0,1,1,4.23-4.24,4.26,4.26,0,0,1-4.23,4.24m19.06-6.35a2.12,2.12,0,1,0,2.11,2.11,2,2,0,0,0-2.11-2.11m0,6.35A4.24,4.24,0,1,1,36,33.88a4.25,4.25,0,0,1-4.23,4.24"/></g></g></svg>