<svg xmlns="http://www.w3.org/2000/svg" viewBox="0 0 46.81 45.38"><defs><style>.cls-1{fill:#ffb71b;}</style></defs><g id="Layer_2" data-name="Layer 2"><g id="Layer_1-2" data-name="Layer 1"><path class="cls-1" d="M23.41,2.3a6.86,6.86,0,0,0-7,7,6.87,6.87,0,0,0,7,7,6.86,6.86,0,0,0,7-7,6.57,6.57,0,0,0-.93-3.49A7,7,0,0,0,23.41,2.3M19.68,17.9l-6.52,4.89a3.33,3.33,0,0,0-1.4,2.8A19.58,19.58,0,0,1,23.41,37.46,20.16,20.16,0,0,1,35.05,25.59a3.33,3.33,0,0,0-1.4-2.8L27.13,17.9a9.56,9.56,0,0,1-3.72.7,10.44,10.44,0,0,1-3.73-.7m3.73,27.48a1.1,1.1,0,0,1-1.17-1.16A17.6,17.6,0,0,0,4.77,26.75H4.08L9,31.64a1.14,1.14,0,0,1,0,1.63,1.12,1.12,0,0,1-1.63,0l-7-7a1.12,1.12,0,0,1,0-1.63l7-7a1.12,1.12,0,0,1,1.63,0A1.14,1.14,0,0,1,9,19.3L4.08,24.42h.69a29,29,0,0,1,4.66.47,5.45,5.45,0,0,1,2.33-4l5.82-4.43a9.28,9.28,0,1,1,13.05-1.39l-1.4,1.39,5.82,4.43a5.42,5.42,0,0,1,2.33,4A15.72,15.72,0,0,1,42,24.42h.7l-4.9-4.89a1.15,1.15,0,1,1,1.63-1.63l7,7a1.12,1.12,0,0,1,0,1.63l-7,7a1.14,1.14,0,0,1-1.63,0,1.15,1.15,0,0,1,0-1.64L42.74,27H42A17.6,17.6,0,0,0,24.57,44.45a1.06,1.06,0,0,1-1.16.93"/></g></g></svg>