<svg xmlns="http://www.w3.org/2000/svg" viewBox="0 0 36.08 52.03"><defs><style>.cls-1{fill:#ffb71b;}</style></defs><g id="Layer_2" data-name="Layer 2"><g id="Layer_1-2" data-name="Layer 1"><path class="cls-1" d="M16.83,5.23a4,4,0,0,1,3.9,3.9v5.2A6.57,6.57,0,0,0,22,5.23,6.5,6.5,0,1,0,11.63,13a3.13,3.13,0,0,0,1.3,1.3V9.13a4,4,0,0,1,3.9-3.9M4.61,28.63a1.76,1.76,0,0,0-1.56,1v.26a1.58,1.58,0,0,0,0,2.08L14.49,45.79A9.61,9.61,0,0,0,22,49.43a11.65,11.65,0,0,0,11.7-11.7V27.33a1.3,1.3,0,0,0-2.6,0v2.6a1.3,1.3,0,0,1-2.6,0v-5.2a1.3,1.3,0,0,0-2.6,0v5.2a1.3,1.3,0,0,1-2.6,0v-7.8a1.3,1.3,0,1,0-2.6,0v7.8a1.3,1.3,0,0,1-2.6,0V9.13a1.3,1.3,0,1,0-2.6,0v19.5A4.06,4.06,0,0,1,13.45,32a3.56,3.56,0,0,1-3.9-.52L7.21,29.41a5,5,0,0,0-2.6-.78M22,52a12.48,12.48,0,0,1-9.62-4.42L1,33.83a5.3,5.3,0,0,1-.52-5.2v-.26a4.55,4.55,0,0,1,3.9-2.6,5.9,5.9,0,0,1,4.16,1.56l2.34,2.08a1,1,0,0,0,.78.26h.52a1.35,1.35,0,0,0,.52-1V17.45C8.51,15.11,6.43,9.65,8.51,5.23A9.36,9.36,0,0,1,20.73.81a9.19,9.19,0,0,1,0,16.64v1a3.76,3.76,0,0,1,4.94,2.34v.26a3.84,3.84,0,0,1,4.94,2.08c0,.26,0,.26.26.52a3.84,3.84,0,0,1,4.94,2.08,3.3,3.3,0,0,1,.26,1.56v10.4A14,14,0,0,1,22,52"/></g></g></svg>