<svg xmlns="http://www.w3.org/2000/svg" viewBox="0 0 27.86 26.6"><defs><style>.cls-1{fill:#ffb71b;}</style></defs><g id="Layer_2" data-name="Layer 2"><g id="Layer_1-2" data-name="Layer 1"><path class="cls-1" d="M25.2,2.8h1.4V1.4H25.2ZM14,9.8a2.8,2.8,0,1,0,2.8,2.8A2.81,2.81,0,0,0,14,9.8m0-1.4a4.13,4.13,0,0,1,4.2,4.2A4.72,4.72,0,0,1,17.5,15l1.82,1.12a3.27,3.27,0,0,1,1,1A7.06,7.06,0,0,0,16.94,7.7,6.9,6.9,0,0,0,7.7,11.06a7.51,7.51,0,0,0,0,6,3.27,3.27,0,0,1,1-1L10.5,15A4.27,4.27,0,0,1,11.62,9.1,4.72,4.72,0,0,1,14,8.4M11.48,16l-2.1,1.26a1.74,1.74,0,0,0-.84,1.12,6.93,6.93,0,0,0,10.92,0,2.18,2.18,0,0,0-.84-1.12L16.52,16a4.2,4.2,0,0,1-5,0M1.4,23.8h0v1.4H2.8V23.8Zm18.9,2.8H18.9A5.08,5.08,0,0,1,14,22.4,8.39,8.39,0,0,1,12.6,5.74,4.87,4.87,0,0,0,7.7,1.4H7.42A4.81,4.81,0,0,0,2.8,6.3V22.4a1.32,1.32,0,0,1,1.4,1.4v1.4a1.32,1.32,0,0,1-1.4,1.4H1.4A1.32,1.32,0,0,1,0,25.2V23.8a1.32,1.32,0,0,1,1.4-1.4V6.3A6.29,6.29,0,0,1,7.28,0h.28a6.35,6.35,0,0,1,6.3,5.6,8.39,8.39,0,0,1,1.4,16.66,3.49,3.49,0,0,0,3.5,2.94h1.4a5,5,0,0,0,4.9-4.9V4.2a1.32,1.32,0,0,1-1.4-1.4V1.4A1.32,1.32,0,0,1,25.06,0h1.4a1.32,1.32,0,0,1,1.4,1.4V2.8a1.32,1.32,0,0,1-1.4,1.4V20.3a6.07,6.07,0,0,1-6.16,6.3"/></g></g></svg>