<?xml version="1.0" encoding="utf-8"?>
<!-- Generator: Adobe Illustrator 26.0.3, SVG Export Plug-In . SVG Version: 6.00 Build 0)  -->
<svg version="1.1" id="Capa_1" xmlns="http://www.w3.org/2000/svg" xmlns:xlink="http://www.w3.org/1999/xlink" x="0px" y="0px"
	 viewBox="0 0 22 22" style="enable-background:new 0 0 22 22;" xml:space="preserve">
<style type="text/css">
	.st0{fill:#FDB71A;}
</style>
<g id="Layer_2">
	<g id="Layer_1-2">
		<g id="_01_Icons_Line_git-fork">
			<path id="git-fork" class="st0" d="M5,21c-1.9,0-3.5-1.6-3.5-3.5c0-1.7,1.3-3.2,3-3.5V8c-1.9-0.3-3.2-2.1-3-4
				c0.3-1.9,2.1-3.2,4-3c1.9,0.3,3.2,2.1,3,4C8.2,6.5,7,7.7,5.5,8v3H13c1.7,0,3.2-1.3,3.5-3c-1.9-0.3-3.2-2.1-2.9-4
				c0.3-1.7,1.8-3,3.5-3l0,0c1.9,0.1,3.4,1.7,3.4,3.6c-0.1,1.7-1.3,3.1-3,3.3c-0.2,2.3-2.2,4-4.5,4H5.5v2c1.9,0.3,3.3,2.1,3,4.1
				C8.2,19.7,6.7,21,5,21L5,21z M5,15c-1.4,0-2.5,1.1-2.5,2.5S3.6,20,5,20s2.5-1.1,2.5-2.5S6.4,15,5,15z M17,2
				c-1.4,0-2.5,1.1-2.5,2.4c0,0,0,0.1,0,0.1C14.5,5.9,15.6,7,17,7s2.5-1.1,2.5-2.5C19.5,3.1,18.4,2,17,2C17,2,17,2,17,2z M5,2
				C3.6,2,2.5,3.1,2.5,4.4c0,0,0,0.1,0,0.1C2.5,5.9,3.6,7,5,7c0,0,0,0,0,0c1.4,0,2.5-1.1,2.5-2.5C7.5,3.1,6.4,2,5,2C5,2,5,2,5,2z"/>
		</g>
	</g>
</g>
</svg>
