<svg xmlns="http://www.w3.org/2000/svg" viewBox="0 0 20 30.06"><defs><style>.cls-1{fill:#ffb71b;}</style></defs><g id="Layer_2" data-name="Layer 2"><g id="Layer_1-2" data-name="Layer 1"><path class="cls-1" d="M9.38,3.75H5.62A.59.59,0,0,1,5,3.12a.59.59,0,0,1,.62-.62H9.38a.59.59,0,0,1,.62.62.59.59,0,0,1-.62.63M3.12,1.25A1.91,1.91,0,0,0,1.25,3.12v20A1.92,1.92,0,0,0,3.12,25h4L7,24.88a2.49,2.49,0,0,1-.5-2.26,2,2,0,0,1,1.88-1.37,3.69,3.69,0,0,1,1.87.63,3.41,3.41,0,0,0,2.25.62,1.18,1.18,0,0,0,1.25-1.25V3.12a2.59,2.59,0,0,0-.5-1.37,2.59,2.59,0,0,0-1.37-.5ZM19.38,30a.59.59,0,0,1-.63-.62V18.12A4.54,4.54,0,0,0,15,13.75v7.5a2.51,2.51,0,0,1-2.5,2.5,5.29,5.29,0,0,1-3-.87,2,2,0,0,0-1.12-.38.63.63,0,0,0-.63.5A1,1,0,0,0,8,24.12L12.38,29a.62.62,0,0,1-.88.88L8.25,26.25H3.12A3.09,3.09,0,0,1,0,23.12v-20A3.1,3.1,0,0,1,3.12,0h8.76A3.1,3.1,0,0,1,15,3.12V12.5a5.67,5.67,0,0,1,5,5.62V29.38a.59.59,0,0,1-.62.62"/></g></g></svg>