<svg xmlns="http://www.w3.org/2000/svg" viewBox="0 0 48.04 33.63"><defs><style>.cls-1{fill:#ffb71b;}</style></defs><g id="Layer_2" data-name="Layer 2"><g id="Layer_1-2" data-name="Layer 1"><path class="cls-1" d="M45.64,7.21H2.4V6A3.69,3.69,0,0,1,6,2.4H42A3.69,3.69,0,0,1,45.64,6Zm0,4.8H2.4V9.61H45.64Zm0,15.61A3.7,3.7,0,0,1,42,31.23H6A3.7,3.7,0,0,1,2.4,27.62V14.41H45.64ZM42,0H6A6,6,0,0,0,0,6V27.62a6,6,0,0,0,6,6H42a6,6,0,0,0,6-6V6a6,6,0,0,0-6-6"/><path class="cls-1" d="M36.51,18.61l3.83,3.83-3.83,3.83-3.83-3.83Zm0,7.71,1.44,1.44,5.55-5.56L37.9,16.65l-1.68,1.68-1.44-1.44-5.55,5.55L34.78,28Z"/></g></g></svg>