<svg xmlns="http://www.w3.org/2000/svg" viewBox="0 0 40.63 40.48"><defs><style>.cls-1{fill:#ffb71b;}</style></defs><g id="Layer_2" data-name="Layer 2"><g id="Layer_1-2" data-name="Layer 1"><path class="cls-1" d="M5.05,32.39a5,5,0,0,1-5-5.05V25.72a4.85,4.85,0,0,1,2.83-4.45L9.7,17.84A10.05,10.05,0,0,1,8.49,3.49a10.21,10.21,0,0,1,14.35-1,8.05,8.05,0,0,1,1.62,2,1,1,0,0,1-.2,1.41c-.21,0-.21.2-.41.2a1.08,1.08,0,0,1-.81-.4A8.29,8.29,0,0,0,11.72,3.49,8.1,8.1,0,0,0,9.5,14.8a7,7,0,0,0,2.43,2.43,1.26,1.26,0,0,1,.4,1.42c-.2,0-.2.2-.4.2L3.64,23.09A2.93,2.93,0,0,0,2,25.72v1.62a3.12,3.12,0,0,0,3,3,1,1,0,1,1,0,2M24.26,10.16a8.09,8.09,0,1,0,8.08,8.08,8.1,8.1,0,0,0-8.08-8.08M20.21,27.54l-8.28,3.84A2.6,2.6,0,0,0,10.11,34v1.41a3.11,3.11,0,0,0,3,3H35.37a3.12,3.12,0,0,0,3-3V34a3.05,3.05,0,0,0-1.82-2.83L28.3,27.54a9,9,0,0,1-4,.81,9,9,0,0,1-4.05-.81M35.37,40.48H13.14A5.8,5.8,0,0,1,9.5,39.06a5.79,5.79,0,0,1-1.41-3.64V34a5.11,5.11,0,0,1,3-4.65l7.07-3.24a10.08,10.08,0,1,1,14.15-1.81,14.83,14.83,0,0,1-1.82,1.81l7.08,3.24a5.11,5.11,0,0,1,3,4.65v1.41a5.8,5.8,0,0,1-1.42,3.64,6.87,6.87,0,0,1-3.84,1.42"/></g></g></svg>