<svg xmlns="http://www.w3.org/2000/svg" viewBox="0 0 67.52 52.78"><defs><style>.cls-1{fill:#ffd100;}</style></defs><g id="Layer_2" data-name="Layer 2"><g id="Layer_1-2" data-name="Layer 1"><path class="cls-1" d="M50.88,52.78a.66.66,0,0,1-.24,0c-.41-.09-1.47-.32-1.39-1.21a1.53,1.53,0,0,1-.9-.06,1,1,0,0,1-.35-.22,1.82,1.82,0,0,1,0,.32,1,1,0,0,1-.56.63,1.93,1.93,0,0,1-1.6-.35A1.6,1.6,0,0,1,45,50.25c0-.15.13-.62,1.07-1.1l.09,0s0-.1,0-.15a2.3,2.3,0,0,0-.09-.25l-.41-.08a7.11,7.11,0,0,1-1.15-.25l-.24-.08a2.51,2.51,0,0,1-.67-.31,2.55,2.55,0,0,1-1.1-.24l-.06,0c.07.47.1,1-.42,1.31a1,1,0,0,1-1.06-.1,1.85,1.85,0,0,1-.51-.79.08.08,0,0,1,0,0l0-.06a.5.5,0,0,0-.05-.13l0,0a2.41,2.41,0,0,0-.33-.33.83.83,0,0,1-.22,0,4.31,4.31,0,0,1-1.14-.28,1.58,1.58,0,0,1-1.35-.87l-.08-.12a1.56,1.56,0,0,1-.33-.88,1.29,1.29,0,0,1,.09-.45,1.79,1.79,0,0,1,.42-.57l0,0a1.1,1.1,0,0,1,0-.27c-.4-.28-.92-.72-1.19-1A2.52,2.52,0,0,1,35,42.45h-.13a2,2,0,0,1-1-.2l-.29-.15a1.34,1.34,0,0,1-.87-.88l-.17.12-.14.1a1.14,1.14,0,0,1-1.11.59,1,1,0,0,1-.86-.71l-.05-.14a2.4,2.4,0,0,0-.7-.4,3.94,3.94,0,0,1-2.07-2.12,1.31,1.31,0,0,1-.07-.46,2.45,2.45,0,0,1,.68-1.71l.07-.06a1.27,1.27,0,0,1-.59-.56.93.93,0,0,1-.43-.77.46.46,0,0,1,0-.14.8.8,0,0,1,.38-.59,4.11,4.11,0,0,0-.6-.63h0a13.4,13.4,0,0,1-1.52-1.33h0s0,0-.07,0a3,3,0,0,1-.93-1L24.3,31a6.07,6.07,0,0,0-.49-.9,1,1,0,0,0-.29-.22,2.43,2.43,0,0,1-.57-.45c-.2-.22-1.6-1.42-1.87-1.6a1.72,1.72,0,0,1-.5-.5,1.81,1.81,0,0,1-.95-1.49,1.11,1.11,0,0,1,0-.17,2.3,2.3,0,0,1-.95.33,7.94,7.94,0,0,1-3.43-.74l-1.22-.59a6.92,6.92,0,0,0-.87-.4,2.74,2.74,0,0,0-.4-.08,7.18,7.18,0,0,1-3.06-1.12,4,4,0,0,0-.37-.28l0,0a1.93,1.93,0,0,0-1.5-.44A7.44,7.44,0,0,1,4,21.55l-.73-.44C1,19.81-.29,19,.06,17.86a.87.87,0,0,1,.07-.17A3.33,3.33,0,0,0,.3,17a6.09,6.09,0,0,1,.31-1.09,1.14,1.14,0,0,1-.33-1c0-.17.07-.29,2.27-3.73a.86.86,0,0,1,.73-.41H8v0a1.46,1.46,0,0,1-.86-1.15,1.94,1.94,0,0,1,0-.33L7,9.13A13.68,13.68,0,0,1,4,6.58.87.87,0,0,1,4.7,5.27h1l.07-1.63a.85.85,0,0,1,.9-.82l7,.23a1.38,1.38,0,0,1,.56-.75,1.26,1.26,0,0,1,1.33,0h0A3.62,3.62,0,0,1,16.31,1l.11-.13A1.81,1.81,0,0,1,18,0a1,1,0,0,1,.84.54l0,0a.83.83,0,0,1,.62.21,1.24,1.24,0,0,1,.36,1.06h0a1.93,1.93,0,0,0,.06.42,3.19,3.19,0,0,1,.07.6,1.18,1.18,0,0,1-.49,1L19.37,4l0,0c0,.06-.06.14-.11.26a7.26,7.26,0,0,1-.32.72,1.61,1.61,0,0,1,.17.66,6.29,6.29,0,0,1-.16,1l.06.4.05.09a1.06,1.06,0,0,1,.12.47,1.44,1.44,0,0,1-.15.6,2.53,2.53,0,0,1,0,.29,2.84,2.84,0,0,1-.15.93,4,4,0,0,1-1.28,1.81,1.62,1.62,0,0,1-.44.26,10.88,10.88,0,0,1,1.48.88l0,0,.11-.09A2.54,2.54,0,0,1,21,11.65h0a1.21,1.21,0,0,1,.34.2h0a4.15,4.15,0,0,1,.36.33,3.41,3.41,0,0,1,1.82.19l.34.09.14,0a1.85,1.85,0,0,1,.86-.13l.53.06.72.07a1.6,1.6,0,0,1,1.38-.65h0a.92.92,0,0,1,.22-.22,1.58,1.58,0,0,1,1.74.08,2.75,2.75,0,0,0,.72.22,3.57,3.57,0,0,0,1.22-.1,2,2,0,0,1,2.14.08,2.07,2.07,0,0,1,.61.46,1.64,1.64,0,0,1,1.56-.08c.09.06,1.73,1.17,1.95,2.11a1.39,1.39,0,0,1,.37,0,2.76,2.76,0,0,1,1.5.57,1.63,1.63,0,0,1,.48.78s0,.1.05.11l.51.59h0a.87.87,0,0,1,.09,1,.86.86,0,0,1-.37.34l0,0h0l0,0A9.67,9.67,0,0,1,40.74,19a3.05,3.05,0,0,1,.2,1,1.23,1.23,0,0,1-.17.64,1.09,1.09,0,0,1-.4.37,6.36,6.36,0,0,0-.3.58,5.34,5.34,0,0,1-.33.6c-.06.09-.13.17-.2.26s-.14.18-.16.22v.08a2.11,2.11,0,0,1,0,.23,4.4,4.4,0,0,1-.07.77,3.34,3.34,0,0,0,0,.36,13.26,13.26,0,0,0,.1,1.67,2.4,2.4,0,0,1,.11.76,1.67,1.67,0,0,1-.2.87l.12.13a1.16,1.16,0,0,1,.36,1,1.36,1.36,0,0,1-.66,1,1.18,1.18,0,0,1-.3.1,2.15,2.15,0,0,1-.15.66,2.33,2.33,0,0,1-.25.45,1.25,1.25,0,0,1,.46,1,1.29,1.29,0,0,1-.45.95,1.64,1.64,0,0,0-.27.33l-.07.1a1.51,1.51,0,0,0-.16.27,0,0,0,0,0,0,0,1.38,1.38,0,0,0,.48,1,2.14,2.14,0,0,1,.32.44h0c.11.22.56,1.2.62,1.32h0a20.88,20.88,0,0,0,2.33,3.3,4.72,4.72,0,0,1,.71.63.41.41,0,0,0,.1.09l.5.22.27.14,0,0a2.54,2.54,0,0,1,.49.39,1,1,0,0,1,.92.31l.09.07a1.61,1.61,0,0,1,.86.51,1.06,1.06,0,0,1,.24.42,2.41,2.41,0,0,1,1.4,1l.18.21a3.69,3.69,0,0,1,.27.35.21.21,0,0,0,0,.06h.1a8,8,0,0,0,1.59-.17l.21-.07a3.65,3.65,0,0,0,.57-.21,5.63,5.63,0,0,1,2.21-1.12l.51-.15a3.48,3.48,0,0,0,.49-.16,1.73,1.73,0,0,1,1-.83,1.06,1.06,0,0,1,.29-.63,1.3,1.3,0,0,1,1-.39,4.06,4.06,0,0,1,1.37.23l.16,0h.21a3,3,0,0,1,1.61.41,3.52,3.52,0,0,0,1.34.14h.18a2.65,2.65,0,0,1,1.47.53,5.72,5.72,0,0,0,.62.35,6.83,6.83,0,0,1,1.59.94l.09.07a2.87,2.87,0,0,1,.43.43c.11.13.13.15.18.17l.18.08a1.9,1.9,0,0,1,.8.58,2.21,2.21,0,0,0,.35.29.81.81,0,0,1,.55.68.85.85,0,0,1-.37.81,4.89,4.89,0,0,1,.69,1.4.35.35,0,0,0,0,.08,1.17,1.17,0,0,1,.17,1.06,1,1,0,0,1-.32.45,1.18,1.18,0,0,1-.57,1.18,1.93,1.93,0,0,0-.31.27,1.44,1.44,0,0,1-1.27.52l-.1.11a2.35,2.35,0,0,0-.08.35,1.31,1.31,0,0,1-.66,1.07,1,1,0,0,1-1-.07,7.69,7.69,0,0,1-1.83-2.39l-.26-.43a7.37,7.37,0,0,0-.48-.65c-.29-.37-.66-.82-.41-1.39a1.12,1.12,0,0,1,.27-.36,1.87,1.87,0,0,1-.34-.29.94.94,0,0,1-.64.7,1,1,0,0,1-.83.1A1,1,0,0,1,58,47a1.86,1.86,0,0,1-.12-.78.83.83,0,0,1,.1-.51.85.85,0,0,1,.54-.52,1.11,1.11,0,0,1,.27-.13c-.2-.12-.38-.24-.52-.34a2.61,2.61,0,0,0-1.18-.34,4.7,4.7,0,0,1-.8.36l-.39.15a1.05,1.05,0,0,1,.1.52,1.62,1.62,0,0,1-.93,1.18,2,2,0,0,0-.28.25,2.45,2.45,0,0,1-1.6.86h-.17c.22.21.47.43.64.58l.15.14a3.45,3.45,0,0,0,.28.23c.48.38,1.29,1,1,1.94s-1,1.05-1.68,1.12a1,1,0,0,1-.27.32,2.32,2.32,0,0,1-1,.32l-.3,0a1.13,1.13,0,0,0-.22.11A1.62,1.62,0,0,1,50.88,52.78ZM49.22,50.9l.14,0h0l0,0,0,0ZM50.3,49a1.15,1.15,0,0,0,.13.39,2.88,2.88,0,0,0,.3.52,2,2,0,0,1,.31.53,1.5,1.5,0,0,1,.09.45l.32-.11.42-.07.11,0A1.39,1.39,0,0,1,53,50a3.81,3.81,0,0,1-.36-.3l-.16-.14c-.57-.52-1-.93-1.23-1.18s-.54-1,.37-1.88l.11-.1A1.39,1.39,0,0,1,53,46h.23s.27-.27.41-.39a3.13,3.13,0,0,1,.49-.42,1.67,1.67,0,0,1,.43-1.34,2.43,2.43,0,0,1,1.17-.71c.18-.07.39-.15.5-.21.93-.63,2.63.06,3.12.43.26.19.84.52,1.23.74l.46.27a1.13,1.13,0,0,1,.48.6l.31.1a.86.86,0,0,1,.61-.29.88.88,0,0,1,.87.64,5.38,5.38,0,0,0,.49.91l.13.21a1,1,0,0,1-.15,1.14.79.79,0,0,1-.8.2,1,1,0,0,1-.38.75l.23.37.62,1v0a1.12,1.12,0,0,1,0-.82,1,1,0,0,1,.71-.65,1.1,1.1,0,0,1,1.06.43l.17-.14a1.17,1.17,0,0,1,.23-1,.75.75,0,0,1,0-.16,3.54,3.54,0,0,0-.61-1,1.06,1.06,0,0,1-.31-.86,1.08,1.08,0,0,1,.14-.48l-.18-.17a1.27,1.27,0,0,1-.27-.11,2.07,2.07,0,0,1-.8-.64,1.16,1.16,0,0,0-.13-.15l-.11-.08a5.1,5.1,0,0,0-1.21-.73,6.11,6.11,0,0,1-.87-.47c-.29-.19-.42-.26-.54-.26h-.17a4,4,0,0,1-2.34-.45,1.8,1.8,0,0,0-.69-.1,3.31,3.31,0,0,1-.56-.06L56.6,42a2.24,2.24,0,0,0-.43-.11,1.05,1.05,0,0,1-.18.37,1.46,1.46,0,0,1-.75.45,1.93,1.93,0,0,0-.31.13c-.29.62-.84.78-1.49,1l-.47.14a4.76,4.76,0,0,0-1.48.67,2.75,2.75,0,0,1-1.29.66l-.18.05a9.91,9.91,0,0,1-2.06.27A1.69,1.69,0,0,1,46.47,45,2.07,2.07,0,0,1,45,44.82a5,5,0,0,1-1.18-.43,1.62,1.62,0,0,1-.59-.71L43,43.3a1.83,1.83,0,0,1-.29-.95H42.6a1,1,0,0,1-.57-.11c-.05.2-.09.37-.1.43s0,0,0,.06a2.81,2.81,0,0,1,.93,1,1,1,0,0,1,0,.79,1.16,1.16,0,0,1-.62.6l.23.35a1.21,1.21,0,0,1,.18.58,2.11,2.11,0,0,1,.52.17.4.4,0,0,0,.13,0,1.17,1.17,0,0,1,.7-.22,1.09,1.09,0,0,1,.77.47.85.85,0,0,1,.09.22H45a6.83,6.83,0,0,0,.91.2,2.06,2.06,0,0,1,1.5.69,2.81,2.81,0,0,1,.37.8A2.21,2.21,0,0,0,48,49h0a.85.85,0,0,1,.86-.84s0,0,0,0a.87.87,0,0,1,1-.06.86.86,0,0,1,.36,1ZM46.47,50.8h0v0Zm20.77-3.48h0Zm0,0Zm-1.08-1.91Zm-3.95-.18ZM39.16,44.17l.12,0a4,4,0,0,1,.88.29,1.24,1.24,0,0,1,.32.23,1.08,1.08,0,0,1,.29-.69,1,1,0,0,1-.29-.35,2.62,2.62,0,0,1-.28-1,6.1,6.1,0,0,1,.29-1.34.87.87,0,0,1,.27-.41l-.12-.09a20.66,20.66,0,0,1-2.82-3.87l0-.08a2.16,2.16,0,0,1-1,0,4.12,4.12,0,0,0-.87-.16,1.2,1.2,0,0,1-.74-.32c-.28-.23-.7-.61-.84-.75h0l-.3-.12-.12,0a1.65,1.65,0,0,1-1.44.38,11.35,11.35,0,0,1-1.65-.52L30,35a.85.85,0,0,1-.19.14l0,.07A3.38,3.38,0,0,1,30,36.37c0,.06,0,.12,0,.17a1.69,1.69,0,0,1-.73,1.25,1.33,1.33,0,0,0-.09.37,2.35,2.35,0,0,0,1,1,1.14,1.14,0,0,1-.08-.4,1,1,0,0,1,.23-.63,1.21,1.21,0,0,1,1.31-.3.8.8,0,0,1,.2.07s.75.4,1,.56a1.06,1.06,0,0,0,.27.09.9.9,0,0,1,.45.24,12.7,12.7,0,0,1,.91,1,1.2,1.2,0,0,1,.24.68,1,1,0,0,1,0,.29.43.43,0,0,1,.17,0,1.6,1.6,0,0,1,1.47.63,1.64,1.64,0,0,0,.48.16.88.88,0,0,1,.42.21,13.86,13.86,0,0,0,1.32,1.07,1.24,1.24,0,0,1,.66,1.15A1.79,1.79,0,0,1,39.16,44.17Zm16.48.38h0Zm1.54-.18ZM44.6,41.81l.18,0s0,0,0-.06a.38.38,0,0,0-.15,0Zm-.08,0h0v0Zm0,0h0Zm0-.42Zm-9.82-.63h0ZM36.17,35c.13,0,.31,0,.58.1a2.74,2.74,0,0,1-.51-1.13,4,4,0,0,1-.05-.55,2.07,2.07,0,0,1,.45-1.25L36.7,32a2.1,2.1,0,0,1,.15-.22,1.24,1.24,0,0,1-.3-.59,1,1,0,0,0,0-.18,1.38,1.38,0,0,1-.08-.44,1.06,1.06,0,0,1,.51-.9.31.31,0,0,0,.14-.17.17.17,0,0,0,0-.07.82.82,0,0,0-.16-.35,2.07,2.07,0,0,1-.24-.47,1.31,1.31,0,0,1-.07-.44,1.43,1.43,0,0,1,.38-1l.11-.1a1,1,0,0,1-.06-.32.87.87,0,0,1,.22-.59.92.92,0,0,1,.41-.29,13.68,13.68,0,0,1-.12-1.8,5,5,0,0,1,.05-.8,3.75,3.75,0,0,0,0-.5,2.8,2.8,0,0,1,.1-.81,2.36,2.36,0,0,1,.44-.73l.15-.19.18-.35a4.66,4.66,0,0,1,.64-1.08,1.62,1.62,0,0,1-.06-.17,6.33,6.33,0,0,0-.63-1.28.61.61,0,0,1-.12-.16l-.59.19-.31.1a1.89,1.89,0,0,0-.21.09,4.42,4.42,0,0,1-.56.21,10.31,10.31,0,0,0-1.33.48,1.73,1.73,0,0,1-1.37.13,3.39,3.39,0,0,1-1.08-.54.91.91,0,0,1-.55.85l-.12.14a.8.8,0,0,0-.11.14.92.92,0,0,1-.79.83.71.71,0,0,1-.07.09,3.35,3.35,0,0,0-.32.55,1.13,1.13,0,0,1-1.08.67.59.59,0,0,1,0,.13,1,1,0,0,1-.63.68c-.57.18-1-.21-1.46-.59l-.18-.15h0l-.08.16-.25.47a1.25,1.25,0,0,1-.91.68.93.93,0,0,1-.66-.17h-.2a2.46,2.46,0,0,1,.08.59,1.81,1.81,0,0,1-.34,1.06,1,1,0,0,1-.57.4,3.53,3.53,0,0,1-.4.76,1.45,1.45,0,0,1-1.48.59,1.56,1.56,0,0,1-.2.16,21.85,21.85,0,0,1,1.72,1.53l.15.1a2.48,2.48,0,0,1,.74.61,6.4,6.4,0,0,1,.71,1.25l.16.33a2,2,0,0,0,.44.42,1.54,1.54,0,0,1,.39.37l.56.49c0-.11-.05-.23-.07-.36-.2-1.15-.38-2.14.55-2.49.76-.28,2.41.6,2.7.86l.29.27a3.08,3.08,0,0,0,.36.32,7.32,7.32,0,0,1,1.06.94c1,1,1.1,1.24,1.14,1.36a1.68,1.68,0,0,1,.35.93l.59.11.16.05a2.5,2.5,0,0,1,1,.54C35.63,34.49,35.93,34.75,36.17,35ZM28,35h0ZM31,33.14l.11.07a1.68,1.68,0,0,0,.31.19,1.44,1.44,0,0,0,.35.09l.15,0,0,0c-.1-.13-.44-.5-.8-.86L31,32.56a1.18,1.18,0,0,1,0,.55Zm-1.51-.7a2.51,2.51,0,0,0,.28.4.61.61,0,0,0,.13-.35.38.38,0,0,0,0-.15.67.67,0,0,0-.34-.08s0,0-.08.09A.28.28,0,0,1,29.47,32.44Zm0,.14h0Zm-.28-1.22a2.51,2.51,0,0,1,.51,0l0,0-.25-.23a2.64,2.64,0,0,0-.42-.21c0,.1,0,.19,0,.25l0,.17Zm9.68-3.24h0Zm0,0h0s0,0,0,0ZM22.77,24.8l.13.05a.79.79,0,0,0,.11-.51,1,1,0,0,1,.52-.91l.17-.07a2.71,2.71,0,0,1-.16-.81,1.11,1.11,0,0,1,.34-.84,1.74,1.74,0,0,1,1.55-.28l.27,0a.89.89,0,0,1,.22,0h0a1.75,1.75,0,0,1,1-1,1.63,1.63,0,0,1,1.54.18,1.34,1.34,0,0,1,.57-.27,3,3,0,0,1,.44-.07,3.49,3.49,0,0,1,.5-.72,1.62,1.62,0,0,1,.56-.5,2.15,2.15,0,0,1,.31-.45l.24-.27h0a2.94,2.94,0,0,1,0-.49.87.87,0,0,1,.47-.69,5.24,5.24,0,0,1,.79-.33,1,1,0,0,1,.46-.14h0a1.29,1.29,0,0,1,1,.59,1.45,1.45,0,0,0,.61.34l.14.05A6.43,6.43,0,0,1,36.18,17l.33-.13a2,2,0,0,1,.34-.14,3.8,3.8,0,0,1,.4-.13l.32-.1,0-.07a1.82,1.82,0,0,1-1.6-.15c-.49-.24-.82-.53-.82-1.06v0a1,1,0,0,1-.34-.47.78.78,0,0,1,0-.31,1,1,0,0,1,.15-.55l-.28.11a3,3,0,0,1-.64.21,1.06,1.06,0,0,1-1.1-.6c-.07-.1-.08-.13-.18-.18a1.3,1.3,0,0,0-.44-.17,3.78,3.78,0,0,1-2.18.37,4,4,0,0,1-1.43-.39,1.87,1.87,0,0,1-1.23.32h0a1.6,1.6,0,0,1-1.54.64l-.7-.07L24.63,14h0l-.07,0a2.59,2.59,0,0,1-.58.14A2.48,2.48,0,0,1,23,14a4.74,4.74,0,0,0-.86-.18,1.3,1.3,0,0,1-1.65-.39l-.11-.11a3.56,3.56,0,0,0-.86.57l-.09.07a1.17,1.17,0,0,1-1,.18l-.36.31L18,14.6a11.66,11.66,0,0,0-1.31,1.13,4,4,0,0,1-1.55.91l-.15.05a1.7,1.7,0,0,0,0,.31,1.44,1.44,0,0,1-.14,1.64,1.86,1.86,0,0,1,.61.51,4.34,4.34,0,0,1,.34.44,1.36,1.36,0,0,1,.12.17,1.73,1.73,0,0,1,.49.32,1.08,1.08,0,0,0,.23.16,2.48,2.48,0,0,1,.85.41,1.32,1.32,0,0,1,1.21-.33,1.4,1.4,0,0,1,.82.45,1,1,0,0,1,.59-.14,1.13,1.13,0,0,1,.84.63,1.86,1.86,0,0,1,.36,1,1.6,1.6,0,0,1-.11.58,1.23,1.23,0,0,1,.76.8c0,.06.09.35.16.55s.22.18.31.25ZM19,24.75h0Zm2.36-.38h0Zm.76-.08ZM13,22.45h.06a6.11,6.11,0,0,1,.69.15c.25.09.57.25,1,.48.31.16.69.35,1.19.58a6.2,6.2,0,0,0,2.56.57.73.73,0,0,0,.25-.11,1.1,1.1,0,0,1,.22-.67,1.16,1.16,0,0,1,.23-.26,1.77,1.77,0,0,1,.14-.64,1.08,1.08,0,0,1-.64-.19l-.09-.05a1.56,1.56,0,0,1-.3-.2,3,3,0,0,1-.49.3,1.37,1.37,0,0,1-1.05,0,1.21,1.21,0,0,1-.59-.5l-.13,0a2.49,2.49,0,0,1-.87-.51l-.05,0a1.94,1.94,0,0,1-.86-.76l-.23-.31a.83.83,0,0,0-.12-.13L13.65,20a1,1,0,0,0-.35-.1h0a.92.92,0,0,1-.3.61.84.84,0,0,1-.45.2l0,0a.91.91,0,0,1-.2.31,1.94,1.94,0,0,1-1.31.77A6.75,6.75,0,0,0,13,22.45Zm13.14.68Zm0,0h0Zm-10-1.35Zm-.84-.38h0ZM40.06,21h0ZM1.82,18.1a17.93,17.93,0,0,0,2.3,1.52c.34.2.63.37.81.49a6.09,6.09,0,0,0,2.88.44,4.15,4.15,0,0,1,1.53.21,1.61,1.61,0,0,1,1.35-.65c.15,0,.15,0,.29-.16a1.78,1.78,0,0,1,.58-.66h0a.83.83,0,0,1,.06-.21,1.42,1.42,0,0,1,1.22-.91,3.17,3.17,0,0,1,.45-.45l0,0a2.48,2.48,0,0,1,.2-2.08,1.78,1.78,0,0,1,.93-.57,2.94,2.94,0,0,0,.9-.47,5.35,5.35,0,0,1,.48-.47,1.54,1.54,0,0,1-.57-.52l-.06-.08h-.09L14,13.37a.86.86,0,0,1-.79-.91,27.62,27.62,0,0,1,.42-3.62,20.23,20.23,0,0,0,0-4.06l-6.15-.2L7.4,6.17a.88.88,0,0,1-.54.77,6.77,6.77,0,0,0,.95.65c.62.33,1.17.69,1.09,1.55a1.08,1.08,0,0,1,.74.42,2,2,0,0,1,0,1.7,1.8,1.8,0,0,0-.12.37.82.82,0,0,1-.86.82H3.75c-.62,1-1.25,2-1.59,2.55l.07.07a.86.86,0,0,1,.16,1.09h0A4,4,0,0,0,2,17.3,8.11,8.11,0,0,1,1.82,18.1ZM15.32,4.15a23.52,23.52,0,0,1,0,5c-.13.68-.22,1.42-.28,2a2.28,2.28,0,0,1,1.32-1.28h0l.1,0h0a2,2,0,0,0,.79-1,1.51,1.51,0,0,0,.07-.41.55.55,0,0,0,0-.16.8.8,0,0,1-.06-.3.86.86,0,0,1,.11-.4v0l-.13-.87a.53.53,0,0,1,0-.13.55.55,0,0,1,0-.18c.06-.28.12-.58.14-.74a2,2,0,0,0-.14-.23A.86.86,0,0,1,17.05,5a.9.9,0,0,1,.13-.47,4.77,4.77,0,0,0,.44-.88,2,2,0,0,1,.57-.94s0,0,0-.07l0-.16a1,1,0,0,1-.67-.15,6,6,0,0,0-.39.95,1.41,1.41,0,0,1-.77,1A1.2,1.2,0,0,1,15.32,4.15Zm2.85,4.21Z"/></g></g></svg>