<svg xmlns="http://www.w3.org/2000/svg" viewBox="0 0 32.08 45.83"><defs><style>.cls-1{fill:#ffb71b;}</style></defs><g id="Layer_2" data-name="Layer 2"><g id="Layer_1-2" data-name="Layer 1"><path class="cls-1" d="M16,2.29a4.59,4.59,0,0,0-4.58,4.58v2.3h9.16V6.87A4.59,4.59,0,0,0,16,2.29M5.73,11.46a3.52,3.52,0,0,0-3.44,3.43V40.1a3.53,3.53,0,0,0,3.44,3.44H26.35a3.53,3.53,0,0,0,3.44-3.44V14.89a3.52,3.52,0,0,0-3.44-3.43H22.91v5.73a1.15,1.15,0,0,1-2.29,0V11.46H11.46v5.73a1.08,1.08,0,0,1-1.15,1.14,1.08,1.08,0,0,1-1.14-1.14V11.46ZM26.35,45.83H5.73A5.67,5.67,0,0,1,0,40.1V14.89A5.67,5.67,0,0,1,5.73,9.17H9.17V6.87A6.74,6.74,0,0,1,16,0a6.74,6.74,0,0,1,6.87,6.87v2.3h3.44a5.67,5.67,0,0,1,5.73,5.72V40.1a5.67,5.67,0,0,1-5.73,5.73"/></g></g></svg>