<svg xmlns="http://www.w3.org/2000/svg" viewBox="0 0 32.42 48.74"><defs><style>.cls-1{fill:#ffb71b;}</style></defs><g id="Layer_2" data-name="Layer 2"><g id="Layer_1-2" data-name="Layer 1"><path class="cls-1" d="M15.2,6.08H9.12a1,1,0,0,1-1-1,1,1,0,0,1,1-1H15.2a1,1,0,0,1,1,1,1,1,0,0,1-1,1M5.07,2a3.1,3.1,0,0,0-3,3V37.49a3.11,3.11,0,0,0,3,3h6.48l-.2-.2a4,4,0,0,1-.81-3.65,3.28,3.28,0,0,1,3-2.23,6.13,6.13,0,0,1,3,1,5.53,5.53,0,0,0,3.64,1,1.92,1.92,0,0,0,2-2V5.07a4.19,4.19,0,0,0-.81-2.23A4.22,4.22,0,0,0,19.25,2ZM31.41,48.64a1,1,0,0,1-1-1V29.38a7.36,7.36,0,0,0-6.08-7.09V34.45a4.07,4.07,0,0,1-4.06,4,8.45,8.45,0,0,1-4.86-1.42,3.31,3.31,0,0,0-1.82-.6,1,1,0,0,0-1,.81A1.61,1.61,0,0,0,13,39.11L20.06,47a1,1,0,1,1-1.42,1.42l-5.27-5.87H5.07A5,5,0,0,1,0,37.49V5.07A5,5,0,0,1,5.07,0H19.25a5,5,0,0,1,5.07,5.07V20.26a9.19,9.19,0,0,1,8.1,9.12V47.62a1,1,0,0,1-1,1"/><path class="cls-1" d="M9.73,25.94a.44.44,0,0,1-.41.4.43.43,0,0,1-.4-.4.44.44,0,0,1,.4-.41c.2,0,.41,0,.41.41m-.41-1.62a1.42,1.42,0,1,0,1.42,1.42,1.39,1.39,0,0,0-1.42-1.42"/><path class="cls-1" d="M15.2,25.94a.41.41,0,0,1-.81,0,.44.44,0,0,1,.4-.41c.21,0,.41,0,.41.41m-.41-1.62a1.42,1.42,0,1,0,1.42,1.42,1.38,1.38,0,0,0-1.42-1.42"/><path class="cls-1" d="M18,17.23h0c-.21-.21-.21-.21-.41-.21H16.21V16A.61.61,0,1,0,15,16v1.22H13.78a.61.61,0,1,0,0,1.21H15v1.22a.61.61,0,1,0,1.21,0V18.44h1.22c.2,0,.4-.2.61-.4v-.81h0"/><path class="cls-1" d="M16.41,20.06c-.2,0-.2.21-.2.41v.2l-.2,1H8.71l-.6-3.24h4.05a.61.61,0,1,0,0-1.21H7.9A1.68,1.68,0,0,0,6.28,16h-.2a.61.61,0,0,0,0,1.22h.2a.65.65,0,0,1,.61.6l.81,4.46.2.81a1.78,1.78,0,0,0,1.83,1.42h6.89a.61.61,0,0,0,0-1.21H9.73c-.41,0-.61-.21-.61-.41v-.2h7.5c.2,0,.4-.21.6-.41l.21-1.42v-.4c0-.2-.21-.2-.41-.2-.4-.21-.4-.21-.61-.21"/></g></g></svg>