<?xml version="1.0" encoding="utf-8"?>
<!-- Generator: Adobe Illustrator 25.4.1, SVG Export Plug-In . SVG Version: 6.00 Build 0)  -->
<svg version="1.1" id="Capa_1" xmlns="http://www.w3.org/2000/svg" xmlns:xlink="http://www.w3.org/1999/xlink" x="0px" y="0px"
	 viewBox="0 0 528.1 505" style="enable-background:new 0 0 528.1 505;" xml:space="preserve">
<style type="text/css">
	.st0{fill:#283277;}
	.st1{fill:#80CBDE;}
	.st2{fill:#FFFFFF;}
	.st3{fill:none;stroke:#4A5B6D;stroke-width:0.43;}
	.st4{fill:#60B4C3;}
	.st5{fill:#007DC3;}
	.st6{fill:none;stroke:#4A5B6D;stroke-width:0.468;}
	.st7{fill:#0071CE;}
</style>
<rect x="20" y="13.9" class="st0" width="9.2" height="9.3"/>
<rect x="33.9" class="st0" width="9.2" height="9.2"/>
<rect x="47.8" class="st0" width="9.2" height="9.2"/>
<rect x="33.9" y="13.9" class="st0" width="9.2" height="9.3"/>
<rect x="47.8" y="13.9" class="st0" width="9.2" height="9.3"/>
<rect x="61.6" y="13.9" class="st0" width="9.2" height="9.3"/>
<rect x="75.5" y="13.9" class="st0" width="9.2" height="9.3"/>
<rect x="33.9" y="27.8" class="st0" width="9.2" height="9.3"/>
<rect x="47.8" y="27.8" class="st0" width="9.2" height="9.3"/>
<rect x="61.6" y="27.8" class="st0" width="9.2" height="9.3"/>
<rect x="75.5" y="27.8" class="st0" width="9.2" height="9.3"/>
<rect x="89.4" y="27.8" class="st0" width="9.2" height="9.3"/>
<rect x="103.3" y="27.8" class="st0" width="9.2" height="9.3"/>
<rect x="117.2" y="27.8" class="st0" width="9.2" height="9.3"/>
<rect x="131" y="27.8" class="st0" width="9.2" height="9.3"/>
<rect x="144.9" y="27.8" class="st0" width="9.2" height="9.3"/>
<rect x="158.8" y="27.8" class="st0" width="9.2" height="9.3"/>
<rect x="172.7" y="27.8" class="st0" width="9.2" height="9.3"/>
<rect x="33.9" y="41.6" class="st0" width="9.2" height="9.3"/>
<rect x="47.8" y="41.6" class="st0" width="9.2" height="9.3"/>
<rect x="75.5" y="41.6" class="st0" width="9.2" height="9.3"/>
<rect x="89.4" y="41.6" class="st0" width="9.2" height="9.3"/>
<rect x="103.3" y="41.6" class="st0" width="9.2" height="9.3"/>
<rect x="117.2" y="41.6" class="st0" width="9.2" height="9.3"/>
<rect x="131" y="41.6" class="st0" width="9.2" height="9.3"/>
<rect x="144.9" y="41.6" class="st0" width="9.2" height="9.3"/>
<rect x="158.8" y="41.6" class="st0" width="9.2" height="9.3"/>
<rect x="172.7" y="41.6" class="st0" width="9.2" height="9.3"/>
<rect x="186.6" y="41.6" class="st0" width="9.2" height="9.3"/>
<rect x="47.8" y="55.5" class="st0" width="9.2" height="9.3"/>
<rect x="61.6" y="55.5" class="st0" width="9.2" height="9.3"/>
<rect x="89.4" y="55.5" class="st0" width="9.2" height="9.3"/>
<rect x="103.3" y="55.5" class="st0" width="9.2" height="9.3"/>
<rect x="117.2" y="55.5" class="st0" width="9.2" height="9.3"/>
<rect x="131" y="55.5" class="st0" width="9.2" height="9.3"/>
<rect x="144.9" y="55.5" class="st0" width="9.2" height="9.3"/>
<rect x="158.8" y="55.5" class="st0" width="9.2" height="9.3"/>
<rect x="172.7" y="55.5" class="st0" width="9.2" height="9.3"/>
<rect x="186.6" y="55.5" class="st0" width="9.2" height="9.3"/>
<rect x="228.2" y="55.5" class="st0" width="9.2" height="9.3"/>
<rect x="242.1" y="55.5" class="st0" width="9.2" height="9.3"/>
<rect x="61.6" y="69.4" class="st0" width="9.2" height="9.2"/>
<rect x="75.5" y="69.4" class="st0" width="9.2" height="9.2"/>
<rect x="89.4" y="69.4" class="st0" width="9.2" height="9.2"/>
<rect x="103.3" y="69.4" class="st0" width="9.2" height="9.2"/>
<rect x="117.2" y="69.4" class="st0" width="9.2" height="9.2"/>
<rect x="131" y="69.4" class="st0" width="9.2" height="9.2"/>
<rect x="144.9" y="69.4" class="st0" width="9.2" height="9.2"/>
<rect x="158.8" y="69.4" class="st0" width="9.2" height="9.2"/>
<rect x="172.7" y="69.4" class="st0" width="9.2" height="9.2"/>
<rect x="186.6" y="69.4" class="st0" width="9.2" height="9.2"/>
<rect x="200.4" y="69.4" class="st0" width="9.2" height="9.2"/>
<rect x="214.3" y="69.4" class="st0" width="9.2" height="9.2"/>
<rect x="228.2" y="69.4" class="st0" width="9.2" height="9.2"/>
<rect x="242.1" y="69.4" class="st0" width="9.2" height="9.2"/>
<rect x="47.8" y="83.3" class="st0" width="9.2" height="9.2"/>
<rect x="61.6" y="83.3" class="st0" width="9.2" height="9.2"/>
<rect x="75.5" y="83.3" class="st0" width="9.2" height="9.2"/>
<rect x="103.3" y="83.3" class="st0" width="9.2" height="9.2"/>
<rect x="117.2" y="83.3" class="st0" width="9.2" height="9.2"/>
<rect x="131" y="83.3" class="st0" width="9.2" height="9.2"/>
<rect x="144.9" y="83.3" class="st0" width="9.2" height="9.2"/>
<rect x="158.8" y="83.3" class="st0" width="9.2" height="9.2"/>
<rect x="172.7" y="83.3" class="st0" width="9.2" height="9.2"/>
<rect x="186.6" y="83.3" class="st0" width="9.2" height="9.2"/>
<rect x="200.4" y="83.3" class="st0" width="9.2" height="9.2"/>
<rect x="214.3" y="83.3" class="st0" width="9.2" height="9.2"/>
<rect x="228.2" y="83.3" class="st0" width="9.2" height="9.2"/>
<rect x="242.1" y="83.3" class="st0" width="9.2" height="9.2"/>
<rect x="256" y="83.3" class="st0" width="9.2" height="9.2"/>
<rect x="61.6" y="97.2" class="st0" width="9.2" height="9.3"/>
<rect x="75.5" y="97.2" class="st0" width="9.2" height="9.3"/>
<rect x="89.4" y="97.2" class="st0" width="9.2" height="9.3"/>
<rect x="117.2" y="97.2" class="st0" width="9.2" height="9.3"/>
<rect x="131" y="97.2" class="st0" width="9.2" height="9.3"/>
<rect x="144.9" y="97.2" class="st0" width="9.2" height="9.3"/>
<rect x="158.8" y="97.2" class="st0" width="9.2" height="9.3"/>
<rect x="172.7" y="97.2" class="st0" width="9.2" height="9.3"/>
<rect x="186.6" y="97.2" class="st0" width="9.2" height="9.3"/>
<rect x="200.4" y="97.2" class="st0" width="9.2" height="9.3"/>
<rect x="214.3" y="97.2" class="st0" width="9.2" height="9.3"/>
<rect x="228.2" y="97.2" class="st0" width="9.2" height="9.3"/>
<rect x="242.1" y="97.2" class="st0" width="9.2" height="9.3"/>
<rect x="256" y="97.2" class="st0" width="9.2" height="9.3"/>
<rect x="75.5" y="111" class="st0" width="9.2" height="9.2"/>
<rect x="89.4" y="111" class="st0" width="9.2" height="9.2"/>
<rect x="131" y="111" class="st0" width="9.2" height="9.2"/>
<rect x="144.9" y="111" class="st0" width="9.2" height="9.2"/>
<rect x="158.8" y="111" class="st0" width="9.2" height="9.2"/>
<rect x="172.7" y="111" class="st0" width="9.2" height="9.2"/>
<rect x="186.6" y="111" class="st0" width="9.2" height="9.2"/>
<rect x="200.4" y="111" class="st0" width="9.2" height="9.2"/>
<rect x="214.3" y="111" class="st0" width="9.2" height="9.2"/>
<rect x="228.2" y="111" class="st0" width="9.2" height="9.2"/>
<rect x="242.1" y="111" class="st0" width="9.2" height="9.2"/>
<rect x="256" y="111" class="st0" width="9.2" height="9.2"/>
<rect x="269.9" y="111" class="st0" width="9.2" height="9.2"/>
<rect x="283.7" y="111" class="st0" width="9.2" height="9.2"/>
<rect x="89.4" y="124.9" class="st0" width="9.2" height="9.2"/>
<rect x="103.3" y="124.9" class="st0" width="9.2" height="9.2"/>
<rect x="131" y="124.9" class="st0" width="9.2" height="9.2"/>
<rect x="144.9" y="124.9" class="st0" width="9.2" height="9.2"/>
<rect x="158.8" y="124.9" class="st0" width="9.2" height="9.2"/>
<rect x="172.7" y="124.9" class="st0" width="9.2" height="9.2"/>
<rect x="186.6" y="124.9" class="st0" width="9.2" height="9.2"/>
<rect x="200.4" y="124.9" class="st0" width="9.2" height="9.2"/>
<rect x="214.3" y="124.9" class="st0" width="9.2" height="9.2"/>
<rect x="228.2" y="124.9" class="st0" width="9.2" height="9.2"/>
<rect x="242.1" y="124.9" class="st0" width="9.2" height="9.2"/>
<rect x="256" y="124.9" class="st0" width="9.2" height="9.2"/>
<rect x="269.9" y="124.9" class="st0" width="9.2" height="9.2"/>
<rect x="283.7" y="124.9" class="st0" width="9.2" height="9.2"/>
<rect x="297.6" y="124.9" class="st0" width="9.2" height="9.2"/>
<rect x="89.4" y="138.8" class="st0" width="9.2" height="9.2"/>
<rect x="103.3" y="138.8" class="st0" width="9.2" height="9.2"/>
<rect x="144.9" y="138.8" class="st0" width="9.2" height="9.2"/>
<rect x="158.8" y="138.8" class="st0" width="9.2" height="9.2"/>
<rect x="172.7" y="138.8" class="st0" width="9.2" height="9.2"/>
<rect x="186.6" y="138.8" class="st0" width="9.2" height="9.2"/>
<rect x="200.4" y="138.8" class="st0" width="9.2" height="9.2"/>
<rect x="214.3" y="138.8" class="st0" width="9.2" height="9.2"/>
<rect x="228.2" y="138.8" class="st0" width="9.2" height="9.2"/>
<rect x="242.1" y="138.8" class="st0" width="9.2" height="9.2"/>
<rect x="256" y="138.8" class="st0" width="9.2" height="9.2"/>
<rect x="269.9" y="138.8" class="st0" width="9.2" height="9.2"/>
<rect x="283.7" y="138.8" class="st0" width="9.2" height="9.2"/>
<rect x="103.3" y="152.7" class="st0" width="9.2" height="9.2"/>
<rect x="117.2" y="152.7" class="st0" width="9.2" height="9.2"/>
<rect x="158.8" y="152.7" class="st0" width="9.2" height="9.2"/>
<rect x="172.7" y="152.7" class="st0" width="9.2" height="9.2"/>
<rect x="186.6" y="152.7" class="st0" width="9.2" height="9.2"/>
<rect x="200.4" y="152.7" class="st0" width="9.2" height="9.2"/>
<rect x="214.3" y="152.7" class="st0" width="9.2" height="9.2"/>
<rect x="228.2" y="152.7" class="st0" width="9.2" height="9.2"/>
<rect x="242.1" y="152.7" class="st0" width="9.2" height="9.2"/>
<rect x="256" y="152.7" class="st0" width="9.2" height="9.2"/>
<rect x="269.9" y="152.7" class="st0" width="9.2" height="9.2"/>
<rect x="283.7" y="152.7" class="st0" width="9.2" height="9.2"/>
<rect x="117.2" y="166.6" class="st0" width="9.2" height="9.2"/>
<rect x="172.7" y="166.6" class="st0" width="9.2" height="9.2"/>
<rect x="186.6" y="166.6" class="st0" width="9.2" height="9.2"/>
<rect x="200.4" y="166.6" class="st0" width="9.2" height="9.2"/>
<rect x="214.3" y="166.6" class="st0" width="9.2" height="9.2"/>
<rect x="228.2" y="166.6" class="st0" width="9.2" height="9.2"/>
<rect x="242.1" y="166.6" class="st0" width="9.2" height="9.2"/>
<rect x="256" y="166.6" class="st0" width="9.2" height="9.2"/>
<rect x="269.9" y="166.6" class="st0" width="9.2" height="9.2"/>
<rect x="283.7" y="166.6" class="st0" width="9.2" height="9.2"/>
<rect x="186.6" y="180.4" class="st0" width="9.2" height="9.2"/>
<rect x="200.4" y="180.4" class="st0" width="9.2" height="9.2"/>
<rect x="214.3" y="180.4" class="st0" width="9.2" height="9.2"/>
<rect x="228.2" y="180.4" class="st0" width="9.2" height="9.2"/>
<rect x="242.1" y="180.4" class="st0" width="9.2" height="9.2"/>
<rect x="256" y="180.4" class="st0" width="9.2" height="9.2"/>
<rect x="269.9" y="180.4" class="st0" width="9.2" height="9.2"/>
<rect x="283.7" y="180.4" class="st0" width="9.2" height="9.2"/>
<rect x="186.6" y="194.3" class="st0" width="9.2" height="9.2"/>
<rect x="200.4" y="194.3" class="st0" width="9.2" height="9.2"/>
<rect x="214.3" y="194.3" class="st0" width="9.2" height="9.2"/>
<rect x="228.2" y="194.3" class="st0" width="9.2" height="9.2"/>
<rect x="242.1" y="194.3" class="st0" width="9.2" height="9.2"/>
<rect x="256" y="194.3" class="st0" width="9.2" height="9.2"/>
<rect x="269.9" y="194.3" class="st0" width="9.2" height="9.2"/>
<rect x="283.7" y="194.3" class="st0" width="9.2" height="9.2"/>
<rect x="297.6" y="194.3" class="st0" width="9.2" height="9.2"/>
<rect x="394.8" y="194.3" class="st0" width="9.2" height="9.2"/>
<rect x="408.6" y="194.3" class="st0" width="9.2" height="9.2"/>
<rect x="422.5" y="194.3" class="st0" width="9.2" height="9.2"/>
<rect x="436.4" y="194.3" class="st0" width="9.2" height="9.2"/>
<rect x="186.6" y="208.2" class="st0" width="9.2" height="9.2"/>
<rect x="200.4" y="208.2" class="st0" width="9.2" height="9.2"/>
<rect x="214.3" y="208.2" class="st0" width="9.2" height="9.2"/>
<rect x="228.2" y="208.2" class="st0" width="9.2" height="9.2"/>
<rect x="242.1" y="208.2" class="st0" width="9.2" height="9.2"/>
<rect x="256" y="208.2" class="st0" width="9.2" height="9.2"/>
<rect x="269.9" y="208.2" class="st0" width="9.2" height="9.2"/>
<rect x="283.7" y="208.2" class="st0" width="9.2" height="9.2"/>
<rect x="297.6" y="208.2" class="st0" width="9.2" height="9.2"/>
<rect x="394.8" y="208.2" class="st0" width="9.2" height="9.2"/>
<rect x="408.6" y="208.2" class="st0" width="9.2" height="9.2"/>
<rect x="422.5" y="208.2" class="st0" width="9.2" height="9.2"/>
<rect x="436.4" y="208.2" class="st0" width="9.2" height="9.2"/>
<rect x="186.6" y="222.1" class="st0" width="9.2" height="9.2"/>
<rect x="200.4" y="222.1" class="st0" width="9.2" height="9.2"/>
<rect x="214.3" y="222.1" class="st0" width="9.2" height="9.2"/>
<rect x="228.2" y="222.1" class="st0" width="9.2" height="9.2"/>
<rect x="242.1" y="222.1" class="st0" width="9.2" height="9.2"/>
<rect x="256" y="222.1" class="st0" width="9.2" height="9.2"/>
<rect x="269.9" y="222.1" class="st0" width="9.2" height="9.2"/>
<rect x="283.7" y="222.1" class="st0" width="9.2" height="9.2"/>
<rect x="297.6" y="222.1" class="st0" width="9.2" height="9.2"/>
<rect x="311.5" y="222.1" class="st0" width="9.2" height="9.2"/>
<rect x="394.8" y="222.1" class="st0" width="9.2" height="9.2"/>
<rect x="408.6" y="222.1" class="st0" width="9.2" height="9.2"/>
<rect x="422.5" y="222.1" class="st0" width="9.2" height="9.2"/>
<rect x="200.4" y="236" class="st0" width="9.2" height="9.2"/>
<rect x="214.3" y="236" class="st0" width="9.2" height="9.2"/>
<rect x="228.2" y="236" class="st0" width="9.2" height="9.2"/>
<rect x="242.1" y="236" class="st0" width="9.2" height="9.2"/>
<rect x="256" y="236" class="st0" width="9.2" height="9.2"/>
<rect x="269.9" y="236" class="st0" width="9.2" height="9.2"/>
<rect x="283.7" y="236" class="st0" width="9.2" height="9.2"/>
<rect x="297.6" y="236" class="st0" width="9.2" height="9.2"/>
<rect x="311.5" y="236" class="st0" width="9.2" height="9.2"/>
<rect x="325.4" y="236" class="st0" width="9.2" height="9.2"/>
<rect x="353.1" y="236" class="st0" width="9.2" height="9.2"/>
<rect x="367" y="236" class="st0" width="9.2" height="9.2"/>
<rect x="380.9" y="236" class="st0" width="9.2" height="9.2"/>
<rect x="394.8" y="236" class="st0" width="9.2" height="9.2"/>
<rect x="408.6" y="236" class="st0" width="9.2" height="9.2"/>
<rect x="422.5" y="236" class="st0" width="9.2" height="9.2"/>
<rect x="228.2" y="249.9" class="st0" width="9.2" height="9.3"/>
<rect x="242.1" y="249.9" class="st0" width="9.2" height="9.3"/>
<rect x="256" y="249.9" class="st0" width="9.2" height="9.3"/>
<rect x="269.9" y="249.9" class="st0" width="9.2" height="9.3"/>
<rect x="283.7" y="249.9" class="st0" width="9.2" height="9.3"/>
<rect x="297.6" y="249.9" class="st0" width="9.2" height="9.3"/>
<rect x="311.5" y="249.9" class="st0" width="9.2" height="9.3"/>
<rect x="325.4" y="249.9" class="st0" width="9.2" height="9.3"/>
<rect x="339.2" y="249.9" class="st0" width="9.2" height="9.3"/>
<rect x="353.1" y="249.9" class="st0" width="9.2" height="9.3"/>
<rect x="367" y="249.9" class="st0" width="9.2" height="9.3"/>
<rect x="380.9" y="249.9" class="st0" width="9.2" height="9.3"/>
<rect x="394.8" y="249.9" class="st0" width="9.2" height="9.3"/>
<rect x="408.6" y="249.9" class="st0" width="9.2" height="9.3"/>
<rect x="256" y="263.7" class="st0" width="9.2" height="9.2"/>
<rect x="269.9" y="263.7" class="st0" width="9.2" height="9.2"/>
<rect x="409.3" y="262.9" class="st1" width="9.2" height="9.3"/>
<rect x="423.2" y="262.9" class="st1" width="9.2" height="9.3"/>
<rect x="437.1" y="262.9" class="st1" width="9.2" height="9.3"/>
<rect x="409.3" y="276.8" class="st1" width="9.2" height="9.2"/>
<rect x="423.2" y="276.8" class="st1" width="9.2" height="9.2"/>
<rect x="437.1" y="276.8" class="st1" width="9.2" height="9.2"/>
<rect x="409.3" y="290.6" class="st1" width="9.2" height="9.2"/>
<rect x="423.2" y="290.6" class="st1" width="9.2" height="9.2"/>
<rect x="437.1" y="290.6" class="st1" width="9.2" height="9.2"/>
<rect x="451" y="290.6" class="st1" width="9.2" height="9.2"/>
<rect x="464.9" y="290.6" class="st1" width="9.2" height="9.2"/>
<rect x="478.7" y="290.6" class="st1" width="9.2" height="9.2"/>
<rect x="409.3" y="304.5" class="st1" width="9.2" height="9.2"/>
<rect x="423.2" y="304.5" class="st1" width="9.2" height="9.2"/>
<rect x="437.1" y="304.5" class="st1" width="9.2" height="9.2"/>
<rect x="451" y="304.5" class="st1" width="9.2" height="9.2"/>
<rect x="464.9" y="304.5" class="st1" width="9.2" height="9.2"/>
<rect x="478.7" y="304.5" class="st1" width="9.2" height="9.2"/>
<rect x="409.3" y="318.4" class="st1" width="9.2" height="9.2"/>
<rect x="423.2" y="318.4" class="st1" width="9.2" height="9.2"/>
<rect x="437.1" y="318.4" class="st1" width="9.2" height="9.2"/>
<rect x="451" y="318.4" class="st1" width="9.2" height="9.2"/>
<rect x="464.9" y="318.4" class="st1" width="9.2" height="9.2"/>
<rect x="478.7" y="318.4" class="st1" width="9.2" height="9.2"/>
<rect x="423.2" y="332.3" class="st1" width="9.2" height="9.2"/>
<rect x="437.1" y="332.3" class="st1" width="9.2" height="9.2"/>
<rect x="451" y="332.3" class="st1" width="9.2" height="9.2"/>
<rect x="464.9" y="332.3" class="st1" width="9.2" height="9.2"/>
<rect x="478.7" y="332.3" class="st1" width="9.2" height="9.2"/>
<rect x="464.9" y="346.2" class="st1" width="9.2" height="9.2"/>
<rect x="478.7" y="346.2" class="st1" width="9.2" height="9.2"/>
<rect x="464.9" y="360" class="st1" width="9.2" height="9.2"/>
<rect x="478.7" y="360" class="st1" width="9.2" height="9.2"/>
<rect x="464.9" y="373.9" class="st1" width="9.2" height="9.2"/>
<rect x="478.7" y="373.9" class="st1" width="9.2" height="9.2"/>
<rect x="478.7" y="387.8" class="st1" width="9.2" height="9.2"/>
<rect x="491.6" y="290.6" class="st1" width="9.2" height="9.2"/>
<rect x="505.5" y="290.6" class="st1" width="9.2" height="9.2"/>
<rect x="491.6" y="304.5" class="st1" width="9.2" height="9.2"/>
<rect x="505.5" y="304.5" class="st1" width="9.2" height="9.2"/>
<rect x="491.6" y="318.4" class="st1" width="9.2" height="9.2"/>
<rect x="505.5" y="318.4" class="st1" width="9.2" height="9.2"/>
<rect x="491.6" y="332.3" class="st1" width="9.2" height="9.2"/>
<rect x="505.5" y="332.3" class="st1" width="9.2" height="9.2"/>
<rect x="491.6" y="346.2" class="st1" width="9.2" height="9.2"/>
<rect x="505.5" y="346.2" class="st1" width="9.2" height="9.2"/>
<rect x="491.6" y="360" class="st1" width="9.2" height="9.2"/>
<rect x="505.5" y="360" class="st1" width="9.2" height="9.2"/>
<rect x="491.6" y="373.9" class="st1" width="9.2" height="9.2"/>
<rect x="491.7" y="388.4" class="st1" width="9.2" height="9.2"/>
<rect x="505.5" y="373.9" class="st1" width="9.2" height="9.2"/>
<rect x="505.5" y="387.8" class="st1" width="9.2" height="9.2"/>
<rect x="505.5" y="401.7" class="st1" width="9.2" height="9.2"/>
<rect x="518.8" y="401.7" class="st1" width="9.2" height="9.2"/>
<rect x="518.8" y="388.4" class="st1" width="9.2" height="9.2"/>
<rect x="518.8" y="304.5" class="st1" width="9.2" height="9.2"/>
<rect x="381.2" y="291.5" class="st1" width="9.2" height="9.2"/>
<rect x="395.1" y="291.5" class="st1" width="9.2" height="9.2"/>
<rect x="367.4" y="305.4" class="st0" width="9.2" height="9.2"/>
<rect x="381.2" y="305.4" class="st1" width="9.2" height="9.2"/>
<rect x="395.1" y="305.4" class="st1" width="9.2" height="9.2"/>
<rect x="395.1" y="319.2" class="st1" width="9.2" height="9.2"/>
<rect x="283.7" y="263.7" class="st0" width="9.2" height="9.2"/>
<rect x="297.6" y="263.7" class="st0" width="9.2" height="9.2"/>
<rect x="311.5" y="263.7" class="st0" width="9.2" height="9.2"/>
<rect x="325.4" y="263.7" class="st0" width="9.2" height="9.2"/>
<rect x="339.2" y="263.7" class="st0" width="9.2" height="9.2"/>
<rect x="353.1" y="263.7" class="st0" width="9.2" height="9.2"/>
<rect x="367" y="263.7" class="st0" width="9.2" height="9.2"/>
<rect x="380.9" y="263.7" class="st0" width="9.2" height="9.2"/>
<rect x="394.8" y="263.7" class="st1" width="9.2" height="9.2"/>
<rect x="297.6" y="277.6" class="st0" width="9.2" height="9.2"/>
<rect x="311.5" y="277.6" class="st0" width="9.2" height="9.2"/>
<rect x="339.2" y="277.6" class="st0" width="9.2" height="9.2"/>
<rect x="353.1" y="277.6" class="st0" width="9.2" height="9.2"/>
<rect x="367" y="277.6" class="st0" width="9.2" height="9.2"/>
<rect x="380.9" y="277.6" class="st0" width="9.2" height="9.2"/>
<rect x="394.8" y="277.6" class="st1" width="9.2" height="9.2"/>
<rect x="367" y="291.5" class="st0" width="9.2" height="9.2"/>
<g>
	<g>
		<path class="st0" d="M385.1,19.5c-39.9,0-72.3,33.5-72.3,74.8s32.4,74.8,72.3,74.8h5c39.9,0,72.3-33.5,72.3-74.8
			S430,19.5,390.1,19.5H385.1z"/>
	</g>
	<g>
		<path class="st2" d="M382.2,96.6c0.5,0,0.9,0.4,0.9,0.9v4.2c0,0.5-0.4,0.9-0.9,0.9h-19c-0.5,0-0.9-0.4-0.9-0.9v-0.4
			c0-0.5,0-0.6,0.6-1.3c3-4,9.3-12.6,12-16.6c0.6-1,1.2-2.3,1.2-3.5c0-1.8-1.5-3.5-4.1-3.5c-1.9,0-3.4,1.2-4.6,2.4
			c-0.4,0.4-1,0.4-1.3,0l-2.9-2.9c-0.3-0.3-0.4-0.9,0-1.2c1.8-1.9,4.8-4.6,9.5-4.6c6.8,0,10.8,4.3,10.8,9.6c0,2.5-0.7,3.9-1.8,6.1
			c-1.5,2.7-5.3,7.7-7.5,10.8v0.1H382.2z"/>
		<path class="st2" d="M387.2,86.6c0-10.4,4.4-16.6,12.1-16.6s12.1,6.2,12.1,16.6c0,10.4-4.4,16.6-12.1,16.6S387.2,97,387.2,86.6z
			 M404.2,86.6c0-6.2-2-9.8-4.9-9.8c-2.9,0-4.9,3.6-4.9,9.8c0,6.3,2,9.9,4.9,9.9C402.2,96.5,404.2,92.9,404.2,86.6z"/>
	</g>
	<g>
		<path class="st2" d="M367,112c0-0.4,0.3-0.8,0.8-0.8c0.4,0,0.8,0.3,0.8,0.8s-0.3,0.8-0.8,0.8C367.3,112.8,367,112.4,367,112z
			 M367.2,113.7c0-0.1,0.1-0.2,0.2-0.2h0.8c0.1,0,0.2,0.1,0.2,0.2v4.1c0,0.1-0.1,0.2-0.2,0.2h-0.8c-0.1,0-0.2-0.1-0.2-0.2V113.7z"/>
		<path class="st2" d="M369.7,113.7c0-0.1,0.1-0.2,0.2-0.2c0.4,0,0.6,0.3,0.7,0.6c0.3-0.3,0.7-0.6,1.5-0.6c1.4,0,1.8,1,1.8,2.1v2.3
			c0,0.1-0.1,0.2-0.2,0.2h-0.8c-0.1,0-0.2-0.1-0.2-0.2v-2.3c0-0.6-0.2-1-0.8-1c-0.6,0-0.9,0.4-1,0.7v2.6c0,0.2-0.1,0.2-0.3,0.2h-0.7
			c-0.1,0-0.2-0.1-0.2-0.2V113.7z"/>
		<path class="st2" d="M378.4,111.2c0-0.1,0.1-0.1,0.2-0.1h0.2c0.1,0,0.1,0,0.2,0.1l2.2,4.6c0,0,0,0,0,0l2.2-4.6
			c0-0.1,0.1-0.1,0.2-0.1h0.2c0.1,0,0.2,0.1,0.2,0.1l1.2,6.6c0,0.1,0,0.2-0.2,0.2h-0.9c-0.1,0-0.2-0.1-0.2-0.1l-0.6-3.7c0,0,0,0,0,0
			l-1.7,3.9c0,0.1-0.1,0.1-0.2,0.1H381c-0.1,0-0.1,0-0.2-0.1l-1.7-3.9c0,0,0,0,0,0l-0.6,3.7c0,0.1-0.1,0.1-0.2,0.1h-0.9
			c-0.1,0-0.2-0.1-0.2-0.2L378.4,111.2z"/>
		<path class="st2" d="M387.9,113.4c1.2,0,2.1,0.9,2.1,2.1c0,0.1,0,0.2,0,0.3c0,0.1-0.1,0.2-0.2,0.2h-2.9c0,0.6,0.5,1,1.1,1
			c0.5,0,0.8-0.2,1-0.3c0.1-0.1,0.2-0.1,0.3,0l0.4,0.5c0.1,0.1,0.1,0.2,0,0.3c-0.4,0.3-1,0.6-1.7,0.6c-1.4,0-2.3-1.1-2.3-2.4
			C385.6,114.5,386.6,113.4,387.9,113.4z M388.7,115.2c0-0.4-0.4-0.8-0.9-0.8c-0.5,0-0.9,0.3-1,0.8H388.7z"/>
		<path class="st2" d="M390.5,117.7l1.4-2l-1.4-1.9c-0.1-0.1,0-0.3,0.2-0.3h0.9c0.1,0,0.3,0,0.4,0.2l0.8,1.2h0l0.8-1.2
			c0.1-0.1,0.2-0.2,0.3-0.2h1c0.2,0,0.2,0.2,0.1,0.3l-1.4,1.9l1.4,2c0.1,0.1,0.1,0.3-0.1,0.3h-0.9c-0.1,0-0.2-0.1-0.3-0.2l-0.8-1.2
			h0l-0.9,1.3c0,0-0.1,0.1-0.2,0.1h-1C390.4,118.1,390.4,117.9,390.5,117.7z"/>
		<path class="st2" d="M395.7,112c0-0.4,0.3-0.8,0.8-0.8c0.4,0,0.8,0.3,0.8,0.8s-0.3,0.8-0.8,0.8C396.1,112.8,395.7,112.4,395.7,112
			z M395.9,113.7c0-0.1,0.1-0.2,0.2-0.2h0.8c0.1,0,0.2,0.1,0.2,0.2v4.1c0,0.1-0.1,0.2-0.2,0.2h-0.8c-0.1,0-0.2-0.1-0.2-0.2V113.7z"
			/>
		<path class="st2" d="M400.5,113.4c0.7,0,1.3,0.3,1.7,0.8c0.1,0.1,0,0.2,0,0.3l-0.4,0.5c-0.1,0.1-0.2,0.1-0.3,0
			c-0.2-0.2-0.5-0.4-0.9-0.4c-0.7,0-1.2,0.5-1.2,1.2c0,0.7,0.5,1.3,1.2,1.3c0.5,0,0.8-0.3,1-0.5c0.1-0.1,0.2-0.1,0.3,0l0.4,0.4
			c0.1,0.1,0.2,0.2,0.1,0.3c-0.4,0.6-1,1-1.8,1c-1.3,0-2.4-1-2.4-2.4C398.1,114.5,399.2,113.4,400.5,113.4z"/>
		<path class="st2" d="M405.2,113.4c1.3,0,2.3,1.1,2.3,2.4c0,1.3-1,2.4-2.3,2.4c-1.3,0-2.3-1.1-2.3-2.4
			C402.9,114.5,403.9,113.4,405.2,113.4z M405.2,117.1c0.7,0,1.2-0.6,1.2-1.3c0-0.7-0.5-1.2-1.2-1.2c-0.7,0-1.2,0.5-1.2,1.2
			C404,116.5,404.5,117.1,405.2,117.1z"/>
	</g>
	<g>
		<path class="st3" d="M385.1,19.5c-39.9,0-72.3,33.5-72.3,74.8s32.4,74.8,72.3,74.8h5c39.9,0,72.3-33.5,72.3-74.8
			S430,19.5,390.1,19.5H385.1z"/>
	</g>
</g>
<g>
	<g>
		<path class="st4" d="M385.2,355.3c-39.9,0-72.3,33.5-72.3,74.8s32.4,74.8,72.3,74.8h5c39.9,0,72.3-33.5,72.3-74.8
			s-32.4-74.8-72.3-74.8H385.2z"/>
	</g>
	<g>
		<path class="st2" d="M371.8,415.8c-0.5,0-0.9-0.4-0.9-1v-3.1c0-0.4,0.1-0.6,0.3-0.7l6.4-5c0.5-0.4,1-0.6,1.7-0.6h3.6
			c0.5,0,0.9,0.4,0.9,0.9v31.5c0,0.5-0.4,1-0.9,1h-5.4c-0.6,0-1-0.4-1-1v-22H371.8z"/>
		<path class="st2" d="M388.8,415.8c-0.5,0-0.9-0.4-0.9-1v-3.1c0-0.4,0.1-0.6,0.3-0.7l6.4-5c0.5-0.4,1-0.6,1.7-0.6h3.6
			c0.5,0,0.9,0.4,0.9,0.9v31.5c0,0.5-0.4,1-0.9,1h-5.4c-0.6,0-1-0.4-1-1v-22H388.8z"/>
	</g>
	<g>
		<path class="st2" d="M346.4,448.4c0-0.4,0.3-0.8,0.8-0.8s0.8,0.4,0.8,0.8c0,0.4-0.4,0.8-0.8,0.8S346.4,448.8,346.4,448.4z
			 M346.6,450.2c0-0.1,0.1-0.2,0.2-0.2h0.8c0.1,0,0.2,0.1,0.2,0.2v4.2c0,0.1-0.1,0.2-0.2,0.2h-0.8c-0.1,0-0.2-0.1-0.2-0.2V450.2z"/>
		<path class="st2" d="M349.1,450.1c0-0.1,0.1-0.2,0.2-0.2c0.4,0,0.7,0.3,0.7,0.6c0.3-0.3,0.7-0.7,1.5-0.7c1.5,0,1.9,1,1.9,2.1v2.4
			c0,0.1-0.1,0.2-0.2,0.2h-0.8c-0.1,0-0.2-0.1-0.2-0.2V452c0-0.6-0.2-1-0.8-1c-0.6,0-0.9,0.4-1,0.7v2.7c0,0.2-0.1,0.2-0.3,0.2h-0.8
			c-0.1,0-0.2-0.1-0.2-0.2V450.1z"/>
		<path class="st2" d="M360.6,447.5c1,0,1.8,0.3,2.5,0.9c0.1,0.1,0.1,0.2,0,0.3l-0.6,0.6c-0.1,0.1-0.2,0.1-0.3,0
			c-0.4-0.4-1-0.6-1.6-0.6c-1.3,0-2.3,1.1-2.3,2.4c0,1.3,1,2.3,2.3,2.3c0.6,0,1.1-0.2,1.6-0.6c0.1-0.1,0.2-0.1,0.3,0l0.6,0.6
			c0.1,0.1,0.1,0.2,0,0.3c-0.7,0.7-1.6,1-2.5,1c-2,0-3.7-1.6-3.7-3.6C357,449.1,358.6,447.5,360.6,447.5z"/>
		<path class="st2" d="M366.1,449.9c1.2,0,2.2,0.9,2.2,2.2c0,0.1,0,0.2,0,0.3c0,0.1-0.1,0.2-0.2,0.2h-3c0,0.6,0.5,1.1,1.2,1.1
			c0.5,0,0.8-0.2,1-0.3c0.1-0.1,0.2-0.1,0.3,0l0.4,0.5c0.1,0.1,0.1,0.2,0,0.3c-0.4,0.3-1,0.6-1.7,0.6c-1.4,0-2.4-1.1-2.4-2.5
			C363.8,451,364.8,449.9,366.1,449.9z M367,451.7c0-0.5-0.4-0.8-0.9-0.8c-0.6,0-0.9,0.3-1,0.8H367z"/>
		<path class="st2" d="M369.3,450.1c0-0.1,0.1-0.2,0.2-0.2c0.4,0,0.7,0.3,0.7,0.6c0.3-0.3,0.7-0.7,1.5-0.7c1.5,0,1.9,1,1.9,2.1v2.4
			c0,0.1-0.1,0.2-0.2,0.2h-0.8c-0.1,0-0.2-0.1-0.2-0.2V452c0-0.6-0.2-1-0.8-1c-0.6,0-0.9,0.4-1,0.7v2.7c0,0.2-0.1,0.2-0.3,0.2h-0.8
			c-0.1,0-0.2-0.1-0.2-0.2V450.1z"/>
		<path class="st2" d="M374.7,451.1c-0.1,0-0.2-0.1-0.2-0.2v-0.7c0-0.1,0.1-0.2,0.2-0.2h0.5v-1.3c0-0.1,0.1-0.2,0.2-0.2h0.8
			c0.1,0,0.2,0.1,0.2,0.2v1.3h1.1c0.1,0,0.2,0.1,0.2,0.2v0.7c0,0.1-0.1,0.2-0.2,0.2h-1.1v1.9c0,0.5,0.2,0.6,0.5,0.6
			c0.2,0,0.5-0.1,0.6-0.1c0.1-0.1,0.2,0,0.3,0.1l0.1,0.6c0,0.1,0,0.2-0.1,0.3c-0.2,0.1-0.6,0.2-1.1,0.2c-1,0-1.6-0.6-1.6-1.7v-2
			H374.7z"/>
		<path class="st2" d="M378.8,450.1c0-0.1,0.1-0.2,0.2-0.2c0.4,0,0.7,0.3,0.7,0.6c0.2-0.2,0.6-0.7,1.3-0.7c0.6,0,1,0.2,0.9,0.5
			l-0.3,0.7c-0.1,0.1-0.2,0.2-0.3,0.1c-0.1-0.1-0.2-0.1-0.4-0.1c-0.5,0-0.8,0.3-0.9,0.5v2.9c0,0.2-0.1,0.2-0.3,0.2H379
			c-0.1,0-0.2-0.1-0.2-0.2V450.1z"/>
		<path class="st2" d="M384.2,451.7c0.5,0,0.9,0.1,0.9,0.1c0-0.6-0.4-0.9-0.9-0.9c-0.4,0-0.8,0.1-1.1,0.2c-0.2,0.1-0.2-0.1-0.3-0.2
			l-0.1-0.5c0-0.2,0.1-0.3,0.2-0.3c0.1,0,0.7-0.2,1.4-0.2c1.4,0,2,0.8,2,2v2.6c0,0.1-0.1,0.2-0.2,0.2c-0.4,0-0.6-0.2-0.7-0.5
			c-0.3,0.3-0.7,0.5-1.4,0.5c-0.9,0-1.6-0.6-1.6-1.6C382.3,452.3,383,451.7,384.2,451.7z M384.2,453.8c0.4,0,0.8-0.3,0.8-0.5v-0.7
			c0,0-0.3-0.1-0.7-0.1c-0.5,0-0.8,0.3-0.8,0.7C383.5,453.6,383.8,453.8,384.2,453.8z"/>
		<path class="st2" d="M387.6,447.8c0-0.1,0.1-0.2,0.2-0.2h0.8c0.1,0,0.2,0.1,0.2,0.2v6.7c0,0.1-0.1,0.2-0.2,0.2h-0.8
			c-0.1,0-0.2-0.1-0.2-0.2V447.8z"/>
		<path class="st2" d="M391.9,454.4l3.2-6.8c0-0.1,0.1-0.1,0.2-0.1h0.1c0.1,0,0.1,0.1,0.2,0.1l3.1,6.8c0.1,0.1,0,0.3-0.2,0.3h-0.9
			c-0.2,0-0.2-0.1-0.3-0.2l-0.5-1.1h-3l-0.5,1.1c0,0.1-0.1,0.2-0.3,0.2h-0.9C392,454.7,391.9,454.5,391.9,454.4z M396.3,452.2
			l-1-2.2h0l-1,2.2H396.3z"/>
		<path class="st2" d="M399.3,450.1c0-0.1,0.1-0.2,0.2-0.2c0.4,0,0.7,0.3,0.7,0.6c0.2-0.2,0.6-0.6,1.4-0.6c0.7,0,1,0.2,1.4,0.7
			c0.2-0.2,0.7-0.7,1.5-0.7c1.5,0,1.9,1,1.9,2.2v2.4c0,0.1-0.1,0.2-0.2,0.2h-0.8c-0.1,0-0.2-0.1-0.2-0.2V452c0-0.6-0.2-1-0.8-1
			c-0.7,0-0.9,0.5-0.9,0.5s0,0.2,0,0.4v2.5c0,0.1-0.1,0.2-0.2,0.2h-0.8c-0.1,0-0.2-0.1-0.2-0.2V452c0-0.6-0.2-1-0.8-1
			c-0.6,0-0.8,0.4-0.9,0.7v2.7c0,0.1-0.1,0.2-0.2,0.2h-0.8c-0.1,0-0.2-0.1-0.2-0.2V450.1z"/>
		<path class="st2" d="M409.8,449.9c1.2,0,2.2,0.9,2.2,2.2c0,0.1,0,0.2,0,0.3c0,0.1-0.1,0.2-0.2,0.2h-3c0,0.6,0.5,1.1,1.2,1.1
			c0.5,0,0.8-0.2,1-0.3c0.1-0.1,0.2-0.1,0.3,0l0.4,0.5c0.1,0.1,0.1,0.2,0,0.3c-0.4,0.3-1,0.6-1.7,0.6c-1.4,0-2.4-1.1-2.4-2.5
			C407.4,451,408.4,449.9,409.8,449.9z M410.7,451.7c0-0.5-0.4-0.8-0.9-0.8c-0.6,0-0.9,0.3-1,0.8H410.7z"/>
		<path class="st2" d="M412.9,450.1c0-0.1,0.1-0.2,0.2-0.2c0.4,0,0.7,0.3,0.7,0.6c0.2-0.2,0.6-0.7,1.3-0.7c0.6,0,1,0.2,0.9,0.5
			l-0.3,0.7c-0.1,0.1-0.2,0.2-0.3,0.1c-0.1-0.1-0.2-0.1-0.4-0.1c-0.5,0-0.8,0.3-0.9,0.5v2.9c0,0.2-0.1,0.2-0.3,0.2h-0.8
			c-0.1,0-0.2-0.1-0.2-0.2V450.1z"/>
		<path class="st2" d="M416.6,448.4c0-0.4,0.3-0.8,0.8-0.8s0.8,0.4,0.8,0.8c0,0.4-0.4,0.8-0.8,0.8S416.6,448.8,416.6,448.4z
			 M416.8,450.2c0-0.1,0.1-0.2,0.2-0.2h0.8c0.1,0,0.2,0.1,0.2,0.2v4.2c0,0.1-0.1,0.2-0.2,0.2H417c-0.1,0-0.2-0.1-0.2-0.2V450.2z"/>
		<path class="st2" d="M421.6,449.9c0.7,0,1.3,0.3,1.7,0.8c0.1,0.1,0.1,0.2-0.1,0.3l-0.4,0.5c-0.1,0.1-0.2,0.1-0.3,0
			c-0.2-0.2-0.5-0.4-0.9-0.4c-0.7,0-1.2,0.6-1.2,1.3c0,0.7,0.5,1.3,1.2,1.3c0.5,0,0.8-0.3,1-0.5c0.1-0.1,0.2-0.1,0.3,0l0.5,0.4
			c0.1,0.1,0.2,0.2,0.1,0.3c-0.4,0.6-1,1-1.9,1c-1.4,0-2.5-1-2.5-2.5C419.1,450.9,420.2,449.9,421.6,449.9z"/>
		<path class="st2" d="M425.9,451.7c0.5,0,0.9,0.1,0.9,0.1c0-0.6-0.4-0.9-0.9-0.9c-0.4,0-0.8,0.1-1.1,0.2c-0.2,0.1-0.2-0.1-0.3-0.2
			l-0.1-0.5c0-0.2,0.1-0.3,0.2-0.3c0.1,0,0.7-0.2,1.4-0.2c1.4,0,2,0.8,2,2v2.6c0,0.1-0.1,0.2-0.2,0.2c-0.4,0-0.6-0.2-0.7-0.5
			c-0.3,0.3-0.7,0.5-1.4,0.5c-0.9,0-1.6-0.6-1.6-1.6C424,452.3,424.7,451.7,425.9,451.7z M425.9,453.8c0.4,0,0.8-0.3,0.8-0.5v-0.7
			c0,0-0.3-0.1-0.7-0.1c-0.5,0-0.8,0.3-0.8,0.7C425.2,453.6,425.5,453.8,425.9,453.8z"/>
	</g>
	<g>
		<path class="st3" d="M385.2,355.3c-39.9,0-72.3,33.5-72.3,74.8s32.4,74.8,72.3,74.8h5c39.9,0,72.3-33.5,72.3-74.8
			s-32.4-74.8-72.3-74.8H385.2z"/>
	</g>
</g>
<g>
	<g>
		<path class="st2" d="M74.8,355.5C33.5,355.5,0,388.9,0,430.2S33.5,505,74.8,505H80c41.3,0,74.8-33.5,74.8-74.8
			s-33.5-74.8-74.8-74.8H74.8z"/>
	</g>
	<g>
		<path class="st5" d="M55,434.4l3.2-3.6c0.4-0.4,1-0.5,1.4-0.1c1.3,1.1,3.2,2.5,6,2.5c2.7,0,4.7-1.7,4.7-4.4s-2.5-4.5-6.5-4.5h-3.1
			c-0.5,0-1-0.5-1-1v-4.6c0-0.6,0.5-1,1-1h3.1c3.8,0,5.9-1.8,5.9-4.2c0-2.4-1.6-4.2-4.4-4.2c-2.5,0-3.9,1.3-4.8,2.2
			c-0.4,0.5-1,0.5-1.5,0.1l-3.4-3.3c-0.4-0.4-0.4-1.1,0-1.4c1.9-2,5.2-4.9,10.5-4.9c6.4,0,11.9,3.9,11.9,10.1c0,4.2-3.2,7.3-5.6,8.4
			v0.2c3,1,6.6,3.8,6.6,8.8c0,6-5.2,10.8-12.8,10.8c-6.9,0-10.1-3.3-11.3-4.7C54.7,435.4,54.7,434.8,55,434.4z"/>
		<path class="st5" d="M82.4,414.3c-0.5,0-1-0.5-1-1.1v-3.5c0-0.4,0.2-0.6,0.3-0.8l7.1-5.6c0.6-0.4,1.2-0.6,1.9-0.6h4
			c0.5,0,1,0.5,1,1v35.2c0,0.6-0.5,1.1-1,1.1h-6.1c-0.6,0-1.1-0.5-1.1-1.1v-24.7H82.4z"/>
	</g>
	<g>
		<path class="st5" d="M37.4,453.2c0.4,0,0.9,0.1,1.1,0.2v-2.2c0-0.1,0.1-0.2,0.2-0.2h0.8c0.1,0,0.2,0.1,0.2,0.2v6.5
			c0,0.1-0.1,0.2-0.2,0.2c-0.4,0-0.6-0.2-0.7-0.6c-0.3,0.3-0.7,0.6-1.4,0.6c-1.2,0-2.2-1-2.2-2.4C35.2,454.2,36.1,453.2,37.4,453.2z
			 M38.5,454.5c0,0-0.4-0.3-0.9-0.3c-0.7,0-1.1,0.6-1.1,1.2s0.4,1.2,1.1,1.2c0.6,0,0.9-0.4,1-0.6V454.5z"/>
		<path class="st5" d="M40.8,451.7c0-0.4,0.3-0.8,0.8-0.8s0.8,0.3,0.8,0.8s-0.3,0.8-0.8,0.8S40.8,452.1,40.8,451.7z M41,453.5
			c0-0.1,0.1-0.2,0.2-0.2H42c0.1,0,0.2,0.1,0.2,0.2v4.1c0,0.1-0.1,0.2-0.2,0.2h-0.8c-0.1,0-0.2-0.1-0.2-0.2V453.5z"/>
		<path class="st5" d="M43.3,457.5c-0.1,0-0.1-0.1-0.1-0.2l0.3-0.6c0-0.1,0.2-0.1,0.3-0.1c0.2,0.1,0.5,0.3,1,0.3
			c0.3,0,0.5-0.1,0.5-0.3c0-0.2-0.3-0.4-0.8-0.6c-0.9-0.3-1.3-0.7-1.3-1.4s0.5-1.3,1.6-1.3c0.7,0,1.1,0.2,1.3,0.3
			c0.1,0.1,0.2,0.2,0.1,0.3l-0.3,0.5c-0.1,0.1-0.2,0.1-0.3,0.1c-0.2-0.1-0.5-0.2-0.9-0.2c-0.3,0-0.4,0.1-0.4,0.3
			c0,0.2,0.2,0.3,0.6,0.5c0.9,0.4,1.5,0.7,1.5,1.6c0,0.7-0.6,1.3-1.7,1.3C44,457.9,43.6,457.6,43.3,457.5z"/>
		<path class="st5" d="M47.3,454.3c-0.1,0-0.2-0.1-0.2-0.2v-0.7c0-0.1,0.1-0.2,0.2-0.2h0.4V452c0-0.1,0.1-0.2,0.2-0.2h0.8
			c0.1,0,0.2,0.1,0.2,0.2v1.2H50c0.1,0,0.2,0.1,0.2,0.2v0.7c0,0.1-0.1,0.2-0.2,0.2H49v1.8c0,0.4,0.2,0.6,0.5,0.6
			c0.2,0,0.5-0.1,0.6-0.1c0.1,0,0.2,0,0.3,0.1l0.1,0.6c0,0.1,0,0.2-0.1,0.3c-0.2,0.1-0.6,0.2-1,0.2c-0.9,0-1.5-0.6-1.5-1.6v-1.9
			H47.3z"/>
		<path class="st5" d="M51.3,453.4c0-0.1,0.1-0.2,0.2-0.2c0.4,0,0.7,0.3,0.7,0.6c0.2-0.2,0.6-0.7,1.3-0.7c0.5,0,1,0.1,0.8,0.4
			l-0.3,0.7c0,0.1-0.2,0.1-0.3,0.1s-0.2-0.1-0.4-0.1c-0.5,0-0.8,0.3-0.9,0.5v2.8c0,0.2-0.1,0.2-0.3,0.2h-0.8c-0.1,0-0.2-0.1-0.2-0.2
			V453.4z"/>
		<path class="st5" d="M54.9,451.7c0-0.4,0.3-0.8,0.8-0.8s0.8,0.3,0.8,0.8s-0.3,0.8-0.8,0.8S54.9,452.1,54.9,451.7z M55.1,453.5
			c0-0.1,0.1-0.2,0.2-0.2h0.8c0.1,0,0.2,0.1,0.2,0.2v4.1c0,0.1-0.1,0.2-0.2,0.2h-0.8c-0.1,0-0.2-0.1-0.2-0.2V453.5z"/>
		<path class="st5" d="M57.5,451.1c0-0.1,0.1-0.2,0.2-0.2h0.8c0.1,0,0.2,0.1,0.2,0.2v2.2c0.2-0.1,0.7-0.2,1.1-0.2
			c1.3,0,2.2,1,2.2,2.4c0,1.3-0.9,2.4-2.1,2.4c-0.7,0-1.2-0.4-1.5-0.6c-0.1,0.3-0.3,0.5-0.7,0.5c-0.2,0-0.2-0.1-0.2-0.2V451.1z
			 M58.8,456.1c0.1,0.3,0.4,0.6,1,0.6c0.7,0,1.1-0.6,1.1-1.2s-0.4-1.2-1.1-1.2c-0.6,0-0.9,0.3-0.9,0.3V456.1z"/>
		<path class="st5" d="M63,453.5c0-0.1,0.1-0.2,0.2-0.2H64c0.1,0,0.2,0.1,0.2,0.2v2.4c0,0.6,0.2,0.9,0.8,0.9c0.5,0,0.7-0.4,0.8-0.8
			v-2.5c0-0.2,0.1-0.2,0.2-0.2h0.8c0.1,0,0.2,0.1,0.2,0.2v4.1c0,0.1-0.1,0.2-0.2,0.2c-0.4,0-0.6-0.2-0.7-0.6
			c-0.2,0.2-0.7,0.6-1.4,0.6c-1.4,0-1.7-0.9-1.7-2V453.5z"/>
		<path class="st5" d="M68.1,454.3c-0.1,0-0.2-0.1-0.2-0.2v-0.7c0-0.1,0.1-0.2,0.2-0.2h0.4V452c0-0.1,0.1-0.2,0.2-0.2h0.8
			c0.1,0,0.2,0.1,0.2,0.2v1.2h1.1c0.1,0,0.2,0.1,0.2,0.2v0.7c0,0.1-0.1,0.2-0.2,0.2h-1.1v1.8c0,0.4,0.2,0.6,0.5,0.6
			c0.2,0,0.5-0.1,0.6-0.1c0.1,0,0.2,0,0.3,0.1l0.1,0.6c0,0.1,0,0.2-0.1,0.3c-0.2,0.1-0.6,0.2-1,0.2c-0.9,0-1.5-0.6-1.5-1.6v-1.9
			H68.1z"/>
		<path class="st5" d="M71.9,451.7c0-0.4,0.3-0.8,0.8-0.8s0.8,0.3,0.8,0.8s-0.3,0.8-0.8,0.8S71.9,452.1,71.9,451.7z M72.1,453.5
			c0-0.1,0.1-0.2,0.2-0.2h0.8c0.1,0,0.2,0.1,0.2,0.2v4.1c0,0.1-0.1,0.2-0.2,0.2h-0.8c-0.1,0-0.2-0.1-0.2-0.2V453.5z"/>
		<path class="st5" d="M76.6,453.2c1.3,0,2.3,1.1,2.3,2.3c0,1.3-1,2.4-2.3,2.4c-1.3,0-2.3-1.1-2.3-2.4
			C74.3,454.2,75.3,453.2,76.6,453.2z M76.6,456.8c0.7,0,1.2-0.6,1.2-1.3c0-0.7-0.5-1.2-1.2-1.2s-1.2,0.5-1.2,1.2
			C75.4,456.2,75.9,456.8,76.6,456.8z"/>
		<path class="st5" d="M79.8,453.4c0-0.1,0.1-0.2,0.2-0.2c0.4,0,0.6,0.3,0.7,0.6c0.3-0.3,0.7-0.6,1.5-0.6c1.4,0,1.8,1,1.8,2.1v2.3
			c0,0.1-0.1,0.2-0.2,0.2H83c-0.1,0-0.2-0.1-0.2-0.2v-2.3c0-0.6-0.2-0.9-0.8-0.9c-0.6,0-0.9,0.4-1,0.7v2.6c0,0.2-0.1,0.2-0.3,0.2
			h-0.7c-0.1,0-0.2-0.1-0.2-0.2V453.4z"/>
		<path class="st5" d="M89.7,453.2c0.7,0,1.2,0.3,1.7,0.8c0.1,0.1,0,0.2,0,0.3l-0.4,0.4c-0.1,0.1-0.2,0.1-0.3,0
			c-0.2-0.2-0.5-0.4-0.9-0.4c-0.7,0-1.2,0.5-1.2,1.2c0,0.7,0.5,1.2,1.2,1.2c0.5,0,0.8-0.3,1-0.5c0.1-0.1,0.2-0.1,0.3,0l0.4,0.4
			c0.1,0.1,0.2,0.2,0.1,0.3c-0.4,0.6-1,0.9-1.8,0.9c-1.3,0-2.4-1-2.4-2.4C87.3,454.2,88.4,453.2,89.7,453.2z"/>
		<path class="st5" d="M94.3,453.2c1.2,0,2.1,0.9,2.1,2.1c0,0.1,0,0.2,0,0.3c0,0.1-0.1,0.2-0.2,0.2h-2.9c0,0.6,0.5,1,1.1,1
			c0.4,0,0.8-0.2,1-0.3c0.1-0.1,0.2-0.1,0.3,0L96,457c0.1,0.1,0.1,0.2,0,0.3c-0.4,0.3-0.9,0.6-1.7,0.6c-1.3,0-2.3-1.1-2.3-2.4
			C92.1,454.2,93,453.2,94.3,453.2z M95.2,454.9c0-0.4-0.4-0.8-0.9-0.8c-0.5,0-0.9,0.3-1,0.8H95.2z"/>
		<path class="st5" d="M97.3,453.4c0-0.1,0.1-0.2,0.2-0.2c0.4,0,0.6,0.3,0.7,0.6c0.3-0.3,0.7-0.6,1.5-0.6c1.4,0,1.8,1,1.8,2.1v2.3
			c0,0.1-0.1,0.2-0.2,0.2h-0.8c-0.1,0-0.2-0.1-0.2-0.2v-2.3c0-0.6-0.2-0.9-0.8-0.9c-0.6,0-0.9,0.4-1,0.7v2.6c0,0.2-0.1,0.2-0.3,0.2
			h-0.7c-0.1,0-0.2-0.1-0.2-0.2V453.4z"/>
		<path class="st5" d="M102.6,454.3c-0.1,0-0.2-0.1-0.2-0.2v-0.7c0-0.1,0.1-0.2,0.2-0.2h0.4V452c0-0.1,0.1-0.2,0.2-0.2h0.8
			c0.1,0,0.2,0.1,0.2,0.2v1.2h1.1c0.1,0,0.2,0.1,0.2,0.2v0.7c0,0.1-0.1,0.2-0.2,0.2h-1.1v1.8c0,0.4,0.2,0.6,0.5,0.6
			c0.2,0,0.5-0.1,0.6-0.1c0.1,0,0.2,0,0.3,0.1l0.1,0.6c0,0.1,0,0.2-0.1,0.3c-0.2,0.1-0.6,0.2-1,0.2c-0.9,0-1.5-0.6-1.5-1.6v-1.9
			H102.6z"/>
		<path class="st5" d="M108.5,453.2c1.2,0,2.1,0.9,2.1,2.1c0,0.1,0,0.2,0,0.3c0,0.1-0.1,0.2-0.2,0.2h-2.9c0,0.6,0.5,1,1.1,1
			c0.4,0,0.8-0.2,1-0.3c0.1-0.1,0.2-0.1,0.3,0l0.4,0.5c0.1,0.1,0.1,0.2,0,0.3c-0.4,0.3-0.9,0.6-1.7,0.6c-1.3,0-2.3-1.1-2.3-2.4
			C106.2,454.2,107.2,453.2,108.5,453.2z M109.3,454.9c0-0.4-0.4-0.8-0.9-0.8c-0.5,0-0.9,0.3-1,0.8H109.3z"/>
		<path class="st5" d="M111.5,453.4c0-0.1,0.1-0.2,0.2-0.2c0.4,0,0.7,0.3,0.7,0.6c0.2-0.2,0.6-0.7,1.3-0.7c0.5,0,1,0.1,0.8,0.4
			l-0.3,0.7c0,0.1-0.2,0.1-0.3,0.1s-0.2-0.1-0.4-0.1c-0.5,0-0.8,0.3-0.9,0.5v2.8c0,0.2-0.1,0.2-0.3,0.2h-0.8c-0.1,0-0.2-0.1-0.2-0.2
			V453.4z"/>
		<path class="st5" d="M115.1,457.5c-0.1,0-0.1-0.1-0.1-0.2l0.3-0.6c0-0.1,0.2-0.1,0.3-0.1c0.2,0.1,0.5,0.3,1,0.3
			c0.3,0,0.5-0.1,0.5-0.3c0-0.2-0.3-0.4-0.8-0.6c-0.9-0.3-1.3-0.7-1.3-1.4s0.5-1.3,1.6-1.3c0.7,0,1.1,0.2,1.3,0.3
			c0.1,0.1,0.2,0.2,0.1,0.3l-0.3,0.5c-0.1,0.1-0.2,0.1-0.3,0.1c-0.2-0.1-0.5-0.2-0.9-0.2c-0.3,0-0.4,0.1-0.4,0.3
			c0,0.2,0.2,0.3,0.6,0.5c0.9,0.4,1.5,0.7,1.5,1.6c0,0.7-0.6,1.3-1.7,1.3C115.9,457.9,115.4,457.6,115.1,457.5z"/>
	</g>
	<g>
		<path class="st6" d="M74.8,355.5C33.5,355.5,0,388.9,0,430.2S33.5,505,74.8,505H80c41.3,0,74.8-33.5,74.8-74.8
			s-33.5-74.8-74.8-74.8H74.8z"/>
	</g>
</g>
<g>
	<g>
		<path class="st7" d="M5.9,268.5H2.4c-0.2,0-0.5-0.2-0.5-0.5v-1.7c0-0.2,0.2-0.5,0.5-0.5h3.5v-3.5c0-0.2,0.2-0.4,0.5-0.4H8
			c0.2,0,0.5,0.2,0.5,0.4v3.5H12c0.2,0,0.4,0.2,0.4,0.5v1.7c0,0.2-0.2,0.5-0.4,0.5H8.5v3.5c0,0.2-0.2,0.4-0.5,0.4H6.4
			c-0.2,0-0.5-0.2-0.5-0.4V268.5z"/>
		<path class="st7" d="M23.6,272.3c0.3,0,0.5,0.2,0.5,0.5v2.2c0,0.3-0.2,0.5-0.5,0.5h-9.9c-0.3,0-0.5-0.2-0.5-0.5v-0.2
			c0-0.2,0-0.3,0.3-0.7c1.6-2.1,4.9-6.6,6.2-8.7c0.3-0.5,0.6-1.2,0.6-1.8c0-1-0.8-1.8-2.2-1.8c-1,0-1.8,0.6-2.4,1.2
			c-0.2,0.2-0.5,0.2-0.7,0l-1.5-1.5c-0.2-0.1-0.2-0.5,0-0.6c0.9-1,2.5-2.4,4.9-2.4c3.5,0,5.6,2.3,5.6,5c0,1.3-0.4,2-1,3.2
			c-0.8,1.4-2.8,4-3.9,5.6v0H23.6z"/>
		<path class="st7" d="M26.3,267.1c0-5.4,2.3-8.6,6.3-8.6s6.3,3.2,6.3,8.6c0,5.4-2.3,8.6-6.3,8.6S26.3,272.5,26.3,267.1z
			 M35.2,267.1c0-3.2-1.1-5.1-2.6-5.1c-1.5,0-2.5,1.9-2.5,5.1c0,3.3,1.1,5.2,2.5,5.2C34.2,272.3,35.2,270.4,35.2,267.1z"/>
		<path class="st7" d="M41,261.8c-0.3,0-0.5-0.2-0.5-0.5v-2.2c0-0.2,0.2-0.5,0.5-0.5h10.5c0.2,0,0.4,0.1,0.4,0.4v0.1
			c0,0.1,0,0.2-0.1,0.4l-7.3,15.2c-0.3,0.6-0.6,0.7-1,0.7h-2.4c-0.3,0-0.5-0.2-0.5-0.5c0-0.2,0-0.4,0.1-0.6l6-12.6v0H41z"/>
		<path class="st7" d="M61.5,264.4v1.5c0.6-0.8,1.6-1.7,3.3-1.7c1.5,0,2.3,0.6,3.3,1.7c0.6-0.6,1.6-1.7,3.5-1.7
			c3.4,0,4.5,2.5,4.5,5.6v5.2c0,0.3-0.2,0.5-0.5,0.5H73c-0.3,0-0.5-0.2-0.5-0.5v-5.4c0-1.1-0.3-2-1.6-2c-1,0-1.6,0.8-1.6,1.8v5.5
			c0,0.3-0.2,0.5-0.5,0.5h-2.6c-0.3,0-0.5-0.2-0.5-0.5v-5.4c0-1.1-0.2-2-1.4-2c-1.1,0-1.7,0.8-1.7,1.9v5.5c0,0.3-0.3,0.5-0.5,0.5
			h-2.6c-0.3,0-0.5-0.2-0.5-0.5v-10c0-0.3,0.2-0.5,0.5-0.5H61.5z"/>
		<path class="st7" d="M78.4,260.8c0-1.2,0.9-2.1,2.1-2.1s2.1,1,2.1,2.1c0,1.1-0.9,2.1-2.1,2.1S78.4,261.9,78.4,260.8z M78.6,264.9
			c0-0.3,0.2-0.5,0.5-0.5h2.6c0.3,0,0.5,0.2,0.5,0.5v10c0,0.3-0.2,0.5-0.5,0.5h-2.6c-0.3,0-0.5-0.2-0.5-0.5V264.9z"/>
		<path class="st7" d="M84.9,259.2c0-0.3,0.2-0.5,0.5-0.5H88c0.3,0,0.5,0.3,0.5,0.5V275c0,0.3-0.2,0.5-0.5,0.5h-2.6
			c-0.3,0-0.5-0.2-0.5-0.5V259.2z"/>
		<path class="st7" d="M91.1,259.2c0-0.3,0.2-0.5,0.5-0.5h2.6c0.3,0,0.5,0.3,0.5,0.5V275c0,0.3-0.2,0.5-0.5,0.5h-2.6
			c-0.3,0-0.5-0.2-0.5-0.5V259.2z"/>
		<path class="st7" d="M97.1,260.8c0-1.2,0.9-2.1,2.1-2.1s2.1,1,2.1,2.1c0,1.1-0.9,2.1-2.1,2.1S97.1,261.9,97.1,260.8z M97.4,264.9
			c0-0.3,0.2-0.5,0.5-0.5h2.6c0.3,0,0.5,0.2,0.5,0.5v10c0,0.3-0.2,0.5-0.5,0.5h-2.6c-0.3,0-0.5-0.2-0.5-0.5V264.9z"/>
		<path class="st7" d="M108.7,264.2c3.2,0,5.8,2.6,5.8,5.8c0,3.2-2.6,5.8-5.8,5.8s-5.8-2.7-5.8-5.8
			C103,266.8,105.6,264.2,108.7,264.2z M108.7,272.3c1.3,0,2.3-1.1,2.3-2.4c0-1.3-1-2.4-2.3-2.4c-1.3,0-2.3,1.1-2.3,2.4
			C106.4,271.2,107.4,272.3,108.7,272.3z"/>
		<path class="st7" d="M116.4,264.8c0-0.3,0.2-0.5,0.6-0.5c1.1,0,1.8,0.7,1.9,1.6c0.6-0.8,1.6-1.8,3.4-1.8c3.5,0,4.6,2.4,4.6,5.5
			v5.3c0,0.3-0.2,0.5-0.5,0.5h-2.6c-0.3,0-0.5-0.2-0.5-0.5v-5.4c0-1.1-0.4-2-1.6-2c-1.1,0-1.7,0.8-1.7,1.9v5.5
			c0,0.2-0.1,0.5-0.5,0.5H117c-0.3,0-0.5-0.2-0.5-0.5V264.8z"/>
	</g>
	<g>
		<path class="st7" d="M2,298.7c0-0.3,0.1-0.4,0.3-0.4c0.3,0,0.7,0.5,0.7,1.2v0.3c0.4-0.5,1.5-1.6,3.6-1.6c1.7,0,2.7,0.7,3.4,2
			c0.3-0.4,1.6-2,3.9-2c3,0,4,2,4,4.9v6.1c0,0.2-0.1,0.4-0.4,0.4h-0.4c-0.2,0-0.3-0.1-0.3-0.4v-6.1c0-2.6-1-3.9-3-3.9
			c-2.1,0-3.1,1.5-3.4,1.9c0.2,0.6,0.2,1.2,0.2,1.9v6.1c0,0.2-0.2,0.4-0.4,0.4H9.9c-0.2,0-0.3-0.1-0.3-0.4v-6.1c0-2.6-1-3.9-3.1-3.9
			c-2.3,0-3.3,1.7-3.5,1.9v8c0,0.2-0.1,0.4-0.4,0.4H2.3c-0.2,0-0.3-0.2-0.3-0.4V298.7z"/>
		<path class="st7" d="M21.4,294.4c0-0.5,0.4-0.9,1-0.9c0.5,0,0.9,0.4,0.9,0.9c0,0.5-0.4,0.9-0.9,0.9
			C21.8,295.3,21.4,294.9,21.4,294.4z M21.8,298.8c0-0.2,0.1-0.4,0.4-0.4h0.3c0.2,0,0.4,0.2,0.4,0.4v10.4c0,0.2-0.1,0.4-0.4,0.4
			h-0.4c-0.2,0-0.3-0.2-0.3-0.4V298.8z"/>
		<path class="st7" d="M27,293.1c0-0.2,0.1-0.4,0.4-0.4h0.3c0.2,0,0.4,0.2,0.4,0.4v16.1c0,0.2-0.1,0.4-0.4,0.4h-0.4
			c-0.2,0-0.3-0.2-0.3-0.4V293.1z"/>
		<path class="st7" d="M36.7,298.2c2.9,0,5,2.2,5,5c0,0.4,0,1.1-0.4,1.1h-8.9c0,2.5,1.9,4.4,4.3,4.4c1.6,0,2.7-0.6,3.4-1.1
			c0.2-0.1,0.4-0.2,0.5,0l0.3,0.4c0.1,0.1,0.1,0.3-0.1,0.4c-0.6,0.5-2.3,1.3-4,1.3c-3.3,0-5.4-2.6-5.4-5.8
			C31.4,300.8,33.5,298.2,36.7,298.2z M40.7,303.3c0-2.2-1.4-4.1-3.9-4.1c-2.4,0-4.1,1.8-4.3,4.1H40.7z"/>
		<path class="st7" d="M44.1,308.1l0.2-0.4c0.1-0.2,0.3-0.2,0.5,0c0.3,0.2,1.5,1.1,3,1.1c1.7,0,2.8-0.8,2.8-2c0-1.3-1.3-1.9-3.2-2.6
			c-1.9-0.7-3.3-1.5-3.3-3.2c0-1.2,1-2.8,3.6-2.8c1.5,0,2.6,0.5,3.1,0.8c0.2,0.1,0.2,0.3,0.1,0.5l-0.1,0.3c-0.1,0.2-0.3,0.2-0.5,0.1
			c-0.3-0.1-1.5-0.7-2.6-0.7c-1.8,0-2.5,1-2.5,1.8c0,1.1,1.1,1.7,2.7,2.3c2.1,0.8,3.8,1.4,3.8,3.5c0,1.7-1.6,3-3.8,3
			c-1.9,0-3-0.8-3.6-1.2C44.1,308.5,44,308.3,44.1,308.1z"/>
		<path class="st7" d="M59.5,299.5c-0.3,0-0.4-0.1-0.4-0.4v-0.4c0-0.2,0.1-0.3,0.4-0.3h1.3v-3c0-0.2,0.2-0.3,0.4-0.4l0.3,0
			c0.2,0,0.4,0.2,0.4,0.4v3h3.9c0.2,0,0.4,0.2,0.4,0.4v0.3c0,0.2-0.1,0.4-0.4,0.4h-3.9v7.1c0,1.4,0.5,2.2,1.9,2.2
			c0.9,0,1.8-0.5,2.2-0.8c0.2-0.1,0.4,0,0.4,0.1l0.2,0.3c0.1,0.2,0,0.3-0.1,0.4c-0.4,0.3-1.6,0.9-2.7,0.9c-2.3,0-2.9-1.5-2.9-3.3
			v-7.1H59.5z"/>
		<path class="st7" d="M68.9,298.7c0-0.3,0.1-0.4,0.3-0.4c0.3,0,0.7,0.5,0.7,1.2v0.2c0.4-0.4,1.5-1.6,3.5-1.6c0.9,0,1.5,0.2,1.7,0.3
			c0.2,0.1,0.4,0.3,0.3,0.5l-0.1,0.4c-0.1,0.2-0.3,0.2-0.5,0.1c-0.1-0.1-0.7-0.4-1.5-0.4c-2.2,0-3.3,1.7-3.4,1.9v8
			c0,0.2-0.1,0.4-0.4,0.4h-0.4c-0.2,0-0.3-0.2-0.3-0.4V298.7z"/>
		<path class="st7" d="M81.5,302.4c1.3,0,2.6,0.4,2.9,0.5c0-2.2-0.6-3.7-3-3.7c-1.4,0-2.6,0.7-2.9,0.7c-0.2,0.1-0.4,0-0.4-0.2
			l-0.1-0.3c-0.1-0.2,0-0.3,0.2-0.4c0.1,0,1.5-0.8,3.4-0.8c3.3,0,3.9,2.2,3.9,4.8v6.2c0,0.3-0.1,0.4-0.3,0.4c-0.3,0-0.7-0.5-0.7-1.2
			v-0.2l0,0c-0.7,0.7-2.1,1.6-3.9,1.6c-2.1,0-3.6-1.4-3.6-3.7C76.8,304,78.5,302.4,81.5,302.4z M80.6,308.7c1.7,0,3.2-1,3.7-1.7
			v-3.2c-0.4-0.2-1.5-0.6-2.9-0.6c-2.1,0-3.6,1.2-3.6,2.8C77.9,307.7,79,308.7,80.6,308.7z"/>
		<path class="st7" d="M87.4,298.8c-0.1-0.2-0.1-0.4,0.1-0.4h0.6c0.1,0,0.3,0,0.4,0.3l4.1,9.4h0l4.1-9.4c0.1-0.2,0.2-0.3,0.4-0.3
			h0.6c0.2,0,0.3,0.2,0.1,0.4l-4.8,10.7c-0.1,0.2-0.2,0.3-0.3,0.3h-0.1c-0.1,0-0.2-0.1-0.3-0.3L87.4,298.8z"/>
		<path class="st7" d="M104.4,298.2c2.9,0,5,2.2,5,5c0,0.4,0,1.1-0.4,1.1h-8.9c0,2.5,1.9,4.4,4.3,4.4c1.6,0,2.7-0.6,3.4-1.1
			c0.2-0.1,0.4-0.2,0.5,0l0.3,0.4c0.1,0.1,0.1,0.3-0.1,0.4c-0.6,0.5-2.3,1.3-4,1.3c-3.3,0-5.4-2.6-5.4-5.8
			C99.1,300.8,101.2,298.2,104.4,298.2z M108.4,303.3c0-2.2-1.4-4.1-3.9-4.1c-2.4,0-4.1,1.8-4.3,4.1H108.4z"/>
		<path class="st7" d="M112.5,293.1c0-0.2,0.1-0.4,0.4-0.4h0.3c0.2,0,0.4,0.2,0.4,0.4v16.1c0,0.2-0.1,0.4-0.4,0.4h-0.4
			c-0.2,0-0.3-0.2-0.3-0.4V293.1z"/>
		<path class="st7" d="M122.1,298.2c2.9,0,5,2.2,5,5c0,0.4,0,1.1-0.4,1.1h-8.9c0,2.5,1.9,4.4,4.3,4.4c1.6,0,2.7-0.6,3.4-1.1
			c0.2-0.1,0.4-0.2,0.5,0l0.3,0.4c0.1,0.1,0.1,0.3-0.1,0.4c-0.6,0.5-2.3,1.3-4,1.3c-3.3,0-5.4-2.6-5.4-5.8
			C116.7,300.8,118.8,298.2,122.1,298.2z M126,303.3c0-2.2-1.4-4.1-3.9-4.1c-2.4,0-4.1,1.8-4.3,4.1H126z"/>
		<path class="st7" d="M134.8,298.2c2.1,0,3.5,1.1,3.5,1.1v-6.2c0-0.2,0.1-0.4,0.4-0.4h0.4c0.1,0,0.3,0.2,0.3,0.4v16.2
			c0,0.3-0.1,0.4-0.3,0.4c-0.3,0-0.7-0.5-0.7-1.2v-0.2c-0.4,0.4-1.8,1.6-3.9,1.6c-2.9,0-5-2.6-5-5.8
			C129.4,300.8,131.6,298.2,134.8,298.2z M134.5,308.7c2.4,0,3.7-1.8,3.7-1.9v-6.4c0,0-1.3-1.2-3.4-1.2c-2.5,0-4.4,2.1-4.4,4.8
			C130.5,306.5,132.2,308.7,134.5,308.7z"/>
	</g>
</g>
</svg>
