<?xml version="1.0" encoding="utf-8"?>
<!-- Generator: Adobe Illustrator 25.4.1, SVG Export Plug-In . SVG Version: 6.00 Build 0)  -->
<svg version="1.1" id="Layer_1" xmlns="http://www.w3.org/2000/svg" xmlns:xlink="http://www.w3.org/1999/xlink" x="0px" y="0px"
	 viewBox="0 0 508.1 505" style="enable-background:new 0 0 508.1 505;" xml:space="preserve">
<style type="text/css">
	.st0{fill:#263B80;}
	.st1{fill:#6FCCDD;}
	.st2{fill:#283277;}
	.st3{fill:#FFFFFF;}
	.st4{fill:none;stroke:#4A5B6D;stroke-width:0.43;}
	.st5{fill:#60B4C3;}
</style>
<rect y="13.9" class="st0" width="9.2" height="9.3"/>
<rect x="13.9" class="st0" width="9.3" height="9.2"/>
<rect x="27.8" class="st0" width="9.3" height="9.2"/>
<rect x="13.9" y="13.9" class="st0" width="9.3" height="9.3"/>
<rect x="27.8" y="13.9" class="st0" width="9.3" height="9.3"/>
<rect x="41.6" y="13.9" class="st0" width="9.2" height="9.3"/>
<rect x="55.5" y="13.9" class="st0" width="9.3" height="9.3"/>
<rect x="13.9" y="27.8" class="st0" width="9.3" height="9.3"/>
<rect x="27.8" y="27.8" class="st0" width="9.3" height="9.3"/>
<rect x="41.6" y="27.8" class="st0" width="9.2" height="9.3"/>
<rect x="55.5" y="27.8" class="st0" width="9.3" height="9.3"/>
<rect x="69.4" y="27.8" class="st0" width="9.2" height="9.3"/>
<rect x="83.3" y="27.8" class="st0" width="9.2" height="9.3"/>
<rect x="97.2" y="27.8" class="st0" width="9.2" height="9.3"/>
<rect x="111" y="27.8" class="st0" width="9.2" height="9.3"/>
<rect x="124.9" y="27.8" class="st0" width="9.2" height="9.3"/>
<rect x="138.8" y="27.8" class="st0" width="9.2" height="9.3"/>
<rect x="152.7" y="27.8" class="st0" width="9.2" height="9.3"/>
<rect x="13.9" y="41.6" class="st0" width="9.3" height="9.3"/>
<rect x="27.8" y="41.6" class="st0" width="9.3" height="9.3"/>
<rect x="55.5" y="41.6" class="st0" width="9.3" height="9.3"/>
<rect x="69.4" y="41.6" class="st0" width="9.2" height="9.3"/>
<rect x="83.3" y="41.6" class="st0" width="9.2" height="9.3"/>
<rect x="97.2" y="41.6" class="st0" width="9.2" height="9.3"/>
<rect x="111" y="41.6" class="st0" width="9.2" height="9.3"/>
<rect x="124.9" y="41.6" class="st0" width="9.2" height="9.3"/>
<rect x="138.8" y="41.6" class="st0" width="9.2" height="9.3"/>
<rect x="152.7" y="41.6" class="st0" width="9.2" height="9.3"/>
<rect x="166.6" y="41.6" class="st0" width="9.2" height="9.3"/>
<rect x="27.8" y="55.5" class="st0" width="9.3" height="9.3"/>
<rect x="41.6" y="55.5" class="st0" width="9.2" height="9.3"/>
<rect x="69.4" y="55.5" class="st0" width="9.2" height="9.3"/>
<rect x="83.3" y="55.5" class="st0" width="9.2" height="9.3"/>
<rect x="97.2" y="55.5" class="st0" width="9.2" height="9.3"/>
<rect x="111" y="55.5" class="st0" width="9.2" height="9.3"/>
<rect x="124.9" y="55.5" class="st0" width="9.2" height="9.3"/>
<rect x="138.8" y="55.5" class="st0" width="9.2" height="9.3"/>
<rect x="152.7" y="55.5" class="st0" width="9.2" height="9.3"/>
<rect x="166.6" y="55.5" class="st0" width="9.2" height="9.3"/>
<rect x="208.2" y="55.5" class="st0" width="9.2" height="9.3"/>
<rect x="222.1" y="55.5" class="st0" width="9.2" height="9.3"/>
<rect x="41.6" y="69.4" class="st0" width="9.2" height="9.2"/>
<rect x="55.5" y="69.4" class="st0" width="9.3" height="9.2"/>
<rect x="69.4" y="69.4" class="st0" width="9.2" height="9.2"/>
<rect x="83.3" y="69.4" class="st0" width="9.2" height="9.2"/>
<rect x="97.2" y="69.4" class="st0" width="9.2" height="9.2"/>
<rect x="111" y="69.4" class="st0" width="9.2" height="9.2"/>
<rect x="124.9" y="69.4" class="st0" width="9.2" height="9.2"/>
<rect x="138.8" y="69.4" class="st0" width="9.2" height="9.2"/>
<rect x="152.7" y="69.4" class="st0" width="9.2" height="9.2"/>
<rect x="166.6" y="69.4" class="st0" width="9.2" height="9.2"/>
<rect x="180.4" y="69.4" class="st0" width="9.2" height="9.2"/>
<rect x="194.3" y="69.4" class="st0" width="9.2" height="9.2"/>
<rect x="208.2" y="69.4" class="st0" width="9.2" height="9.2"/>
<rect x="222.1" y="69.4" class="st0" width="9.2" height="9.2"/>
<rect x="27.8" y="83.3" class="st0" width="9.3" height="9.2"/>
<rect x="41.6" y="83.3" class="st0" width="9.2" height="9.2"/>
<rect x="55.5" y="83.3" class="st0" width="9.3" height="9.2"/>
<rect x="83.3" y="83.3" class="st0" width="9.2" height="9.2"/>
<rect x="97.2" y="83.3" class="st0" width="9.2" height="9.2"/>
<rect x="111" y="83.3" class="st0" width="9.2" height="9.2"/>
<rect x="124.9" y="83.3" class="st0" width="9.2" height="9.2"/>
<rect x="138.8" y="83.3" class="st0" width="9.2" height="9.2"/>
<rect x="152.7" y="83.3" class="st0" width="9.2" height="9.2"/>
<rect x="166.6" y="83.3" class="st0" width="9.2" height="9.2"/>
<rect x="180.4" y="83.3" class="st0" width="9.2" height="9.2"/>
<rect x="194.3" y="83.3" class="st0" width="9.2" height="9.2"/>
<rect x="208.2" y="83.3" class="st0" width="9.2" height="9.2"/>
<rect x="222.1" y="83.3" class="st0" width="9.2" height="9.2"/>
<rect x="236" y="83.3" class="st0" width="9.2" height="9.2"/>
<rect x="41.6" y="97.2" class="st0" width="9.2" height="9.3"/>
<rect x="55.5" y="97.2" class="st0" width="9.3" height="9.3"/>
<rect x="69.4" y="97.2" class="st0" width="9.2" height="9.3"/>
<rect x="97.2" y="97.2" class="st0" width="9.2" height="9.3"/>
<rect x="111" y="97.2" class="st0" width="9.2" height="9.3"/>
<rect x="124.9" y="97.2" class="st0" width="9.2" height="9.3"/>
<rect x="138.8" y="97.2" class="st0" width="9.2" height="9.3"/>
<rect x="152.7" y="97.2" class="st0" width="9.2" height="9.3"/>
<rect x="166.6" y="97.2" class="st0" width="9.2" height="9.3"/>
<rect x="180.4" y="97.2" class="st0" width="9.2" height="9.3"/>
<rect x="194.3" y="97.2" class="st0" width="9.2" height="9.3"/>
<rect x="208.2" y="97.2" class="st0" width="9.2" height="9.3"/>
<rect x="222.1" y="97.2" class="st0" width="9.2" height="9.3"/>
<rect x="236" y="97.2" class="st0" width="9.2" height="9.3"/>
<rect x="55.5" y="111" class="st0" width="9.3" height="9.2"/>
<rect x="69.4" y="111" class="st0" width="9.2" height="9.2"/>
<rect x="111" y="111" class="st0" width="9.2" height="9.2"/>
<rect x="124.9" y="111" class="st0" width="9.2" height="9.2"/>
<rect x="138.8" y="111" class="st0" width="9.2" height="9.2"/>
<rect x="152.7" y="111" class="st0" width="9.2" height="9.2"/>
<rect x="166.6" y="111" class="st0" width="9.2" height="9.2"/>
<rect x="180.4" y="111" class="st0" width="9.2" height="9.2"/>
<rect x="194.3" y="111" class="st0" width="9.2" height="9.2"/>
<rect x="208.2" y="111" class="st0" width="9.2" height="9.2"/>
<rect x="222.1" y="111" class="st0" width="9.2" height="9.2"/>
<rect x="236" y="111" class="st0" width="9.2" height="9.2"/>
<rect x="249.9" y="111" class="st0" width="9.2" height="9.2"/>
<rect x="263.7" y="111" class="st0" width="9.2" height="9.2"/>
<rect x="69.4" y="124.9" class="st0" width="9.2" height="9.2"/>
<rect x="83.3" y="124.9" class="st0" width="9.2" height="9.2"/>
<rect x="111" y="124.9" class="st0" width="9.2" height="9.2"/>
<rect x="124.9" y="124.9" class="st0" width="9.2" height="9.2"/>
<rect x="138.8" y="124.9" class="st0" width="9.2" height="9.2"/>
<rect x="152.7" y="124.9" class="st0" width="9.2" height="9.2"/>
<rect x="166.6" y="124.9" class="st0" width="9.2" height="9.2"/>
<rect x="180.4" y="124.9" class="st0" width="9.2" height="9.2"/>
<rect x="194.3" y="124.9" class="st0" width="9.2" height="9.2"/>
<rect x="208.2" y="124.9" class="st0" width="9.2" height="9.2"/>
<rect x="222.1" y="124.9" class="st0" width="9.2" height="9.2"/>
<rect x="236" y="124.9" class="st0" width="9.2" height="9.2"/>
<rect x="249.9" y="124.9" class="st0" width="9.2" height="9.2"/>
<rect x="263.7" y="124.9" class="st0" width="9.2" height="9.2"/>
<rect x="277.6" y="124.9" class="st0" width="9.2" height="9.2"/>
<rect x="69.4" y="138.8" class="st0" width="9.2" height="9.2"/>
<rect x="83.3" y="138.8" class="st0" width="9.2" height="9.2"/>
<rect x="124.9" y="138.8" class="st0" width="9.2" height="9.2"/>
<rect x="138.8" y="138.8" class="st0" width="9.2" height="9.2"/>
<rect x="152.7" y="138.8" class="st0" width="9.2" height="9.2"/>
<rect x="166.6" y="138.8" class="st0" width="9.2" height="9.2"/>
<rect x="180.4" y="138.8" class="st0" width="9.2" height="9.2"/>
<rect x="194.3" y="138.8" class="st0" width="9.2" height="9.2"/>
<rect x="208.2" y="138.8" class="st0" width="9.2" height="9.2"/>
<rect x="222.1" y="138.8" class="st0" width="9.2" height="9.2"/>
<rect x="236" y="138.8" class="st0" width="9.2" height="9.2"/>
<rect x="249.9" y="138.8" class="st0" width="9.2" height="9.2"/>
<rect x="263.7" y="138.8" class="st0" width="9.2" height="9.2"/>
<rect x="83.3" y="152.7" class="st0" width="9.2" height="9.2"/>
<rect x="97.2" y="152.7" class="st0" width="9.2" height="9.2"/>
<rect x="138.8" y="152.7" class="st0" width="9.2" height="9.2"/>
<rect x="152.7" y="152.7" class="st0" width="9.2" height="9.2"/>
<rect x="166.6" y="152.7" class="st0" width="9.2" height="9.2"/>
<rect x="180.4" y="152.7" class="st0" width="9.2" height="9.2"/>
<rect x="194.3" y="152.7" class="st0" width="9.2" height="9.2"/>
<rect x="208.2" y="152.7" class="st0" width="9.2" height="9.2"/>
<rect x="222.1" y="152.7" class="st0" width="9.2" height="9.2"/>
<rect x="236" y="152.7" class="st0" width="9.2" height="9.2"/>
<rect x="249.9" y="152.7" class="st0" width="9.2" height="9.2"/>
<rect x="263.7" y="152.7" class="st0" width="9.2" height="9.2"/>
<rect x="97.2" y="166.6" class="st0" width="9.2" height="9.2"/>
<rect x="152.7" y="166.6" class="st0" width="9.2" height="9.2"/>
<rect x="166.6" y="166.6" class="st0" width="9.2" height="9.2"/>
<rect x="180.4" y="166.6" class="st0" width="9.2" height="9.2"/>
<rect x="194.3" y="166.6" class="st0" width="9.2" height="9.2"/>
<rect x="208.2" y="166.6" class="st0" width="9.2" height="9.2"/>
<rect x="222.1" y="166.6" class="st0" width="9.2" height="9.2"/>
<rect x="236" y="166.6" class="st0" width="9.2" height="9.2"/>
<rect x="249.9" y="166.6" class="st0" width="9.2" height="9.2"/>
<rect x="263.7" y="166.6" class="st0" width="9.2" height="9.2"/>
<rect x="166.6" y="180.4" class="st0" width="9.2" height="9.2"/>
<rect x="180.4" y="180.4" class="st0" width="9.2" height="9.2"/>
<rect x="194.3" y="180.4" class="st0" width="9.2" height="9.2"/>
<rect x="208.2" y="180.4" class="st0" width="9.2" height="9.2"/>
<rect x="222.1" y="180.4" class="st0" width="9.2" height="9.2"/>
<rect x="236" y="180.4" class="st0" width="9.2" height="9.2"/>
<rect x="249.9" y="180.4" class="st0" width="9.2" height="9.2"/>
<rect x="263.7" y="180.4" class="st0" width="9.2" height="9.2"/>
<rect x="166.6" y="194.3" class="st0" width="9.2" height="9.2"/>
<rect x="180.4" y="194.3" class="st0" width="9.2" height="9.2"/>
<rect x="194.3" y="194.3" class="st0" width="9.2" height="9.2"/>
<rect x="208.2" y="194.3" class="st0" width="9.2" height="9.2"/>
<rect x="222.1" y="194.3" class="st0" width="9.2" height="9.2"/>
<rect x="236" y="194.3" class="st0" width="9.2" height="9.2"/>
<rect x="249.9" y="194.3" class="st0" width="9.2" height="9.2"/>
<rect x="263.7" y="194.3" class="st0" width="9.2" height="9.2"/>
<rect x="277.6" y="194.3" class="st0" width="9.2" height="9.2"/>
<rect x="374.8" y="194.3" class="st0" width="9.2" height="9.2"/>
<rect x="388.6" y="194.3" class="st0" width="9.2" height="9.2"/>
<rect x="402.5" y="194.3" class="st0" width="9.2" height="9.2"/>
<rect x="416.4" y="194.3" class="st0" width="9.2" height="9.2"/>
<rect x="166.6" y="208.2" class="st0" width="9.2" height="9.2"/>
<rect x="180.4" y="208.2" class="st0" width="9.2" height="9.2"/>
<rect x="194.3" y="208.2" class="st0" width="9.2" height="9.2"/>
<rect x="208.2" y="208.2" class="st0" width="9.2" height="9.2"/>
<rect x="222.1" y="208.2" class="st0" width="9.2" height="9.2"/>
<rect x="236" y="208.2" class="st0" width="9.2" height="9.2"/>
<rect x="249.9" y="208.2" class="st0" width="9.2" height="9.2"/>
<rect x="263.7" y="208.2" class="st0" width="9.2" height="9.2"/>
<rect x="277.6" y="208.2" class="st0" width="9.2" height="9.2"/>
<rect x="374.8" y="208.2" class="st0" width="9.2" height="9.2"/>
<rect x="388.6" y="208.2" class="st0" width="9.2" height="9.2"/>
<rect x="402.5" y="208.2" class="st0" width="9.2" height="9.2"/>
<rect x="416.4" y="208.2" class="st0" width="9.2" height="9.2"/>
<rect x="166.6" y="222.1" class="st0" width="9.2" height="9.2"/>
<rect x="180.4" y="222.1" class="st0" width="9.2" height="9.2"/>
<rect x="194.3" y="222.1" class="st0" width="9.2" height="9.2"/>
<rect x="208.2" y="222.1" class="st0" width="9.2" height="9.2"/>
<rect x="222.1" y="222.1" class="st0" width="9.2" height="9.2"/>
<rect x="236" y="222.1" class="st0" width="9.2" height="9.2"/>
<rect x="249.9" y="222.1" class="st0" width="9.2" height="9.2"/>
<rect x="263.7" y="222.1" class="st0" width="9.2" height="9.2"/>
<rect x="277.6" y="222.1" class="st0" width="9.2" height="9.2"/>
<rect x="291.5" y="222.1" class="st0" width="9.2" height="9.2"/>
<rect x="374.8" y="222.1" class="st0" width="9.2" height="9.2"/>
<rect x="388.6" y="222.1" class="st0" width="9.2" height="9.2"/>
<rect x="402.5" y="222.1" class="st0" width="9.2" height="9.2"/>
<rect x="180.4" y="236" class="st0" width="9.2" height="9.2"/>
<rect x="194.3" y="236" class="st0" width="9.2" height="9.2"/>
<rect x="208.2" y="236" class="st0" width="9.2" height="9.2"/>
<rect x="222.1" y="236" class="st0" width="9.2" height="9.2"/>
<rect x="236" y="236" class="st0" width="9.2" height="9.2"/>
<rect x="249.9" y="236" class="st0" width="9.2" height="9.2"/>
<rect x="263.7" y="236" class="st0" width="9.2" height="9.2"/>
<rect x="277.6" y="236" class="st0" width="9.2" height="9.2"/>
<rect x="291.5" y="236" class="st0" width="9.2" height="9.2"/>
<rect x="305.4" y="236" class="st0" width="9.2" height="9.2"/>
<rect x="333.1" y="236" class="st0" width="9.2" height="9.2"/>
<rect x="347" y="236" class="st0" width="9.2" height="9.2"/>
<rect x="360.9" y="236" class="st0" width="9.2" height="9.2"/>
<rect x="374.8" y="236" class="st0" width="9.2" height="9.2"/>
<rect x="388.6" y="236" class="st0" width="9.2" height="9.2"/>
<rect x="402.5" y="236" class="st0" width="9.2" height="9.2"/>
<rect x="208.2" y="249.9" class="st0" width="9.2" height="9.3"/>
<rect x="222.1" y="249.9" class="st0" width="9.2" height="9.3"/>
<rect x="236" y="249.9" class="st0" width="9.2" height="9.3"/>
<rect x="249.9" y="249.9" class="st0" width="9.2" height="9.3"/>
<rect x="263.7" y="249.9" class="st0" width="9.2" height="9.3"/>
<rect x="277.6" y="249.9" class="st0" width="9.2" height="9.3"/>
<rect x="291.5" y="249.9" class="st0" width="9.2" height="9.3"/>
<rect x="305.4" y="249.9" class="st0" width="9.2" height="9.3"/>
<rect x="319.2" y="249.9" class="st0" width="9.2" height="9.3"/>
<rect x="333.1" y="249.9" class="st0" width="9.2" height="9.3"/>
<rect x="347" y="249.9" class="st0" width="9.2" height="9.3"/>
<rect x="360.9" y="249.9" class="st0" width="9.2" height="9.3"/>
<rect x="374.8" y="249.9" class="st0" width="9.2" height="9.3"/>
<rect x="388.6" y="249.9" class="st0" width="9.2" height="9.3"/>
<rect x="236" y="263.7" class="st0" width="9.2" height="9.2"/>
<rect x="249.9" y="263.7" class="st0" width="9.2" height="9.2"/>
<rect x="389.3" y="262.9" class="st1" width="9.2" height="9.3"/>
<rect x="403.2" y="262.9" class="st1" width="9.2" height="9.3"/>
<rect x="417.1" y="262.9" class="st1" width="9.2" height="9.3"/>
<rect x="389.3" y="276.8" class="st1" width="9.2" height="9.2"/>
<rect x="403.2" y="276.8" class="st1" width="9.2" height="9.2"/>
<rect x="417.1" y="276.8" class="st1" width="9.2" height="9.2"/>
<rect x="389.3" y="290.6" class="st1" width="9.2" height="9.2"/>
<rect x="403.2" y="290.6" class="st1" width="9.2" height="9.2"/>
<rect x="417.1" y="290.6" class="st1" width="9.2" height="9.2"/>
<rect x="431" y="290.6" class="st1" width="9.2" height="9.2"/>
<rect x="444.9" y="290.6" class="st1" width="9.2" height="9.2"/>
<rect x="458.7" y="290.6" class="st1" width="9.2" height="9.2"/>
<rect x="389.3" y="304.5" class="st1" width="9.2" height="9.2"/>
<rect x="403.2" y="304.5" class="st1" width="9.2" height="9.2"/>
<rect x="417.1" y="304.5" class="st1" width="9.2" height="9.2"/>
<rect x="431" y="304.5" class="st1" width="9.2" height="9.2"/>
<rect x="444.9" y="304.5" class="st1" width="9.2" height="9.2"/>
<rect x="458.7" y="304.5" class="st1" width="9.2" height="9.2"/>
<rect x="389.3" y="318.4" class="st1" width="9.2" height="9.2"/>
<rect x="403.2" y="318.4" class="st1" width="9.2" height="9.2"/>
<rect x="417.1" y="318.4" class="st1" width="9.2" height="9.2"/>
<rect x="431" y="318.4" class="st1" width="9.2" height="9.2"/>
<rect x="444.9" y="318.4" class="st1" width="9.2" height="9.2"/>
<rect x="458.7" y="318.4" class="st1" width="9.2" height="9.2"/>
<rect x="403.2" y="332.3" class="st1" width="9.2" height="9.2"/>
<rect x="417.1" y="332.3" class="st1" width="9.2" height="9.2"/>
<rect x="431" y="332.3" class="st1" width="9.2" height="9.2"/>
<rect x="444.9" y="332.3" class="st1" width="9.2" height="9.2"/>
<rect x="458.7" y="332.3" class="st1" width="9.2" height="9.2"/>
<rect x="444.9" y="346.2" class="st1" width="9.2" height="9.2"/>
<rect x="458.7" y="346.2" class="st1" width="9.2" height="9.2"/>
<rect x="444.9" y="360" class="st1" width="9.2" height="9.2"/>
<rect x="458.7" y="360" class="st1" width="9.2" height="9.2"/>
<rect x="444.9" y="373.9" class="st1" width="9.2" height="9.2"/>
<rect x="458.7" y="373.9" class="st1" width="9.2" height="9.2"/>
<rect x="458.7" y="387.8" class="st1" width="9.2" height="9.2"/>
<rect x="471.6" y="290.6" class="st1" width="9.2" height="9.2"/>
<rect x="485.5" y="290.6" class="st1" width="9.2" height="9.2"/>
<rect x="471.6" y="304.5" class="st1" width="9.2" height="9.2"/>
<rect x="485.5" y="304.5" class="st1" width="9.2" height="9.2"/>
<rect x="471.6" y="318.4" class="st1" width="9.2" height="9.2"/>
<rect x="485.5" y="318.4" class="st1" width="9.2" height="9.2"/>
<rect x="471.6" y="332.3" class="st1" width="9.2" height="9.2"/>
<rect x="485.5" y="332.3" class="st1" width="9.2" height="9.2"/>
<rect x="471.6" y="346.2" class="st1" width="9.2" height="9.2"/>
<rect x="485.5" y="346.2" class="st1" width="9.2" height="9.2"/>
<rect x="471.6" y="360" class="st1" width="9.2" height="9.2"/>
<rect x="485.5" y="360" class="st1" width="9.2" height="9.2"/>
<rect x="471.6" y="373.9" class="st1" width="9.2" height="9.2"/>
<rect x="471.7" y="388.4" class="st1" width="9.2" height="9.2"/>
<rect x="485.5" y="373.9" class="st1" width="9.2" height="9.2"/>
<rect x="485.5" y="387.8" class="st1" width="9.2" height="9.2"/>
<rect x="485.5" y="401.7" class="st1" width="9.2" height="9.2"/>
<rect x="498.8" y="401.7" class="st1" width="9.2" height="9.2"/>
<rect x="498.8" y="388.4" class="st1" width="9.2" height="9.2"/>
<rect x="498.8" y="304.5" class="st1" width="9.2" height="9.2"/>
<rect x="361.2" y="291.5" class="st1" width="9.2" height="9.2"/>
<rect x="375.1" y="291.5" class="st1" width="9.2" height="9.2"/>
<rect x="347.4" y="305.4" class="st0" width="9.2" height="9.2"/>
<rect x="361.2" y="305.4" class="st1" width="9.2" height="9.2"/>
<rect x="375.1" y="305.4" class="st1" width="9.2" height="9.2"/>
<rect x="375.1" y="319.2" class="st1" width="9.2" height="9.2"/>
<rect x="263.7" y="263.7" class="st0" width="9.2" height="9.2"/>
<rect x="277.6" y="263.7" class="st0" width="9.2" height="9.2"/>
<rect x="291.5" y="263.7" class="st0" width="9.2" height="9.2"/>
<rect x="305.4" y="263.7" class="st0" width="9.2" height="9.2"/>
<rect x="319.2" y="263.7" class="st0" width="9.2" height="9.2"/>
<rect x="333.1" y="263.7" class="st0" width="9.2" height="9.2"/>
<rect x="347" y="263.7" class="st0" width="9.2" height="9.2"/>
<rect x="360.9" y="263.7" class="st0" width="9.2" height="9.2"/>
<rect x="374.8" y="263.7" class="st1" width="9.2" height="9.2"/>
<rect x="277.6" y="277.6" class="st0" width="9.2" height="9.2"/>
<rect x="291.5" y="277.6" class="st0" width="9.2" height="9.2"/>
<rect x="319.2" y="277.6" class="st0" width="9.2" height="9.2"/>
<rect x="333.1" y="277.6" class="st0" width="9.2" height="9.2"/>
<rect x="347" y="277.6" class="st0" width="9.2" height="9.2"/>
<rect x="360.9" y="277.6" class="st0" width="9.2" height="9.2"/>
<rect x="374.8" y="277.6" class="st1" width="9.2" height="9.2"/>
<rect x="347" y="291.5" class="st0" width="9.2" height="9.2"/>
<g>
	<g>
		<g>
			<path class="st2" d="M365.3,19.6c-39.9,0-72.3,33.5-72.3,74.8s32.4,74.8,72.3,74.8h5c39.9,0,72.3-33.5,72.3-74.8
				s-32.4-74.8-72.3-74.8H365.3z"/>
		</g>
		<g>
			<path class="st3" d="M362.4,96.7c0.5,0,0.9,0.4,0.9,0.9v4.2c0,0.5-0.4,0.9-0.9,0.9h-19c-0.5,0-0.9-0.4-0.9-0.9v-0.4
				c0-0.5,0-0.6,0.6-1.3c3-4,9.3-12.6,12-16.6c0.6-1,1.2-2.3,1.2-3.5c0-1.8-1.5-3.5-4.1-3.5c-1.9,0-3.4,1.2-4.6,2.4
				c-0.4,0.4-1,0.4-1.3,0l-2.9-2.9c-0.3-0.3-0.4-0.9,0-1.2c1.8-1.9,4.8-4.6,9.5-4.6c6.8,0,10.8,4.3,10.8,9.6c0,2.5-0.7,3.9-1.8,6.1
				c-1.5,2.7-5.3,7.7-7.5,10.8v0.1L362.4,96.7L362.4,96.7z"/>
			<path class="st3" d="M367.4,86.7c0-10.4,4.4-16.6,12.1-16.6s12.1,6.2,12.1,16.6s-4.4,16.6-12.1,16.6S367.4,97.1,367.4,86.7z
				 M384.4,86.7c0-6.2-2-9.8-4.9-9.8s-4.9,3.6-4.9,9.8c0,6.3,2,9.9,4.9,9.9S384.4,93,384.4,86.7z"/>
		</g>
		<g>
			<path class="st3" d="M347.2,112.1c0-0.4,0.3-0.8,0.8-0.8c0.4,0,0.8,0.3,0.8,0.8s-0.3,0.8-0.8,0.8S347.2,112.5,347.2,112.1z
				 M347.4,113.8c0-0.1,0.1-0.2,0.2-0.2h0.8c0.1,0,0.2,0.1,0.2,0.2v4.1c0,0.1-0.1,0.2-0.2,0.2h-0.8c-0.1,0-0.2-0.1-0.2-0.2V113.8z"
				/>
			<path class="st3" d="M349.9,113.8c0-0.1,0.1-0.2,0.2-0.2c0.4,0,0.6,0.3,0.7,0.6c0.3-0.3,0.7-0.6,1.5-0.6c1.4,0,1.8,1,1.8,2.1v2.3
				c0,0.1-0.1,0.2-0.2,0.2h-0.8c-0.1,0-0.2-0.1-0.2-0.2v-2.3c0-0.6-0.2-1-0.8-1c-0.6,0-0.9,0.4-1,0.7v2.6c0,0.2-0.1,0.2-0.3,0.2
				h-0.7c-0.1,0-0.2-0.1-0.2-0.2V113.8z"/>
			<path class="st3" d="M358.6,111.3c0-0.1,0.1-0.1,0.2-0.1h0.2c0.1,0,0.1,0,0.2,0.1l2.2,4.6l0,0l2.2-4.6c0-0.1,0.1-0.1,0.2-0.1h0.2
				c0.1,0,0.2,0.1,0.2,0.1l1.2,6.6c0,0.1,0,0.2-0.2,0.2h-0.9c-0.1,0-0.2-0.1-0.2-0.1l-0.6-3.7l0,0l-1.7,3.9c0,0.1-0.1,0.1-0.2,0.1
				h-0.4c-0.1,0-0.1,0-0.2-0.1l-1.7-3.9l0,0l-0.6,3.7c0,0.1-0.1,0.1-0.2,0.1h-0.9c-0.1,0-0.2-0.1-0.2-0.2L358.6,111.3z"/>
			<path class="st3" d="M368.1,113.5c1.2,0,2.1,0.9,2.1,2.1c0,0.1,0,0.2,0,0.3c0,0.1-0.1,0.2-0.2,0.2h-2.9c0,0.6,0.5,1,1.1,1
				c0.5,0,0.8-0.2,1-0.3c0.1-0.1,0.2-0.1,0.3,0l0.4,0.5c0.1,0.1,0.1,0.2,0,0.3c-0.4,0.3-1,0.6-1.7,0.6c-1.4,0-2.3-1.1-2.3-2.4
				C365.8,114.6,366.8,113.5,368.1,113.5z M368.9,115.3c0-0.4-0.4-0.8-0.9-0.8s-0.9,0.3-1,0.8H368.9z"/>
			<path class="st3" d="M370.7,117.8l1.4-2l-1.4-1.9c-0.1-0.1,0-0.3,0.2-0.3h0.9c0.1,0,0.3,0,0.4,0.2l0.8,1.2l0,0l0.8-1.2
				c0.1-0.1,0.2-0.2,0.3-0.2h1c0.2,0,0.2,0.2,0.1,0.3l-1.4,1.9l1.4,2c0.1,0.1,0.1,0.3-0.1,0.3h-0.9c-0.1,0-0.2-0.1-0.3-0.2l-0.8-1.2
				l0,0l-0.9,1.3c0,0-0.1,0.1-0.2,0.1h-1C370.6,118.2,370.6,118,370.7,117.8z"/>
			<path class="st3" d="M375.9,112.1c0-0.4,0.3-0.8,0.8-0.8c0.4,0,0.8,0.3,0.8,0.8s-0.3,0.8-0.8,0.8
				C376.3,112.9,375.9,112.5,375.9,112.1z M376.1,113.8c0-0.1,0.1-0.2,0.2-0.2h0.8c0.1,0,0.2,0.1,0.2,0.2v4.1c0,0.1-0.1,0.2-0.2,0.2
				h-0.8c-0.1,0-0.2-0.1-0.2-0.2V113.8z"/>
			<path class="st3" d="M380.7,113.5c0.7,0,1.3,0.3,1.7,0.8c0.1,0.1,0,0.2,0,0.3l-0.4,0.5c-0.1,0.1-0.2,0.1-0.3,0
				c-0.2-0.2-0.5-0.4-0.9-0.4c-0.7,0-1.2,0.5-1.2,1.2s0.5,1.3,1.2,1.3c0.5,0,0.8-0.3,1-0.5c0.1-0.1,0.2-0.1,0.3,0l0.4,0.4
				c0.1,0.1,0.2,0.2,0.1,0.3c-0.4,0.6-1,1-1.8,1c-1.3,0-2.4-1-2.4-2.4C378.3,114.6,379.4,113.5,380.7,113.5z"/>
			<path class="st3" d="M385.4,113.5c1.3,0,2.3,1.1,2.3,2.4s-1,2.4-2.3,2.4s-2.3-1.1-2.3-2.4C383.1,114.6,384.1,113.5,385.4,113.5z
				 M385.4,117.2c0.7,0,1.2-0.6,1.2-1.3c0-0.7-0.5-1.2-1.2-1.2s-1.2,0.5-1.2,1.2C384.2,116.6,384.7,117.2,385.4,117.2z"/>
		</g>
		<g>
			<path class="st4" d="M365.3,19.6c-39.9,0-72.3,33.5-72.3,74.8s32.4,74.8,72.3,74.8h5c39.9,0,72.3-33.5,72.3-74.8
				s-32.4-74.8-72.3-74.8H365.3z"/>
		</g>
	</g>
	<g>
		<g>
			<path class="st5" d="M365.4,355.4c-39.9,0-72.3,33.5-72.3,74.8s32.4,74.8,72.3,74.8h5c39.9,0,72.3-33.5,72.3-74.8
				s-32.4-74.8-72.3-74.8H365.4z"/>
		</g>
		<g>
			<path class="st3" d="M352,415.9c-0.5,0-0.9-0.4-0.9-1v-3.1c0-0.4,0.1-0.6,0.3-0.7l6.4-5c0.5-0.4,1-0.6,1.7-0.6h3.6
				c0.5,0,0.9,0.4,0.9,0.9v31.5c0,0.5-0.4,1-0.9,1h-5.4c-0.6,0-1-0.4-1-1v-22L352,415.9L352,415.9z"/>
			<path class="st3" d="M369,415.9c-0.5,0-0.9-0.4-0.9-1v-3.1c0-0.4,0.1-0.6,0.3-0.7l6.4-5c0.5-0.4,1-0.6,1.7-0.6h3.6
				c0.5,0,0.9,0.4,0.9,0.9v31.5c0,0.5-0.4,1-0.9,1h-5.4c-0.6,0-1-0.4-1-1v-22L369,415.9L369,415.9z"/>
		</g>
		<g>
			<path class="st3" d="M326.6,448.5c0-0.4,0.3-0.8,0.8-0.8s0.8,0.4,0.8,0.8s-0.4,0.8-0.8,0.8S326.6,448.9,326.6,448.5z
				 M326.8,450.3c0-0.1,0.1-0.2,0.2-0.2h0.8c0.1,0,0.2,0.1,0.2,0.2v4.2c0,0.1-0.1,0.2-0.2,0.2H327c-0.1,0-0.2-0.1-0.2-0.2V450.3z"/>
			<path class="st3" d="M329.3,450.2c0-0.1,0.1-0.2,0.2-0.2c0.4,0,0.7,0.3,0.7,0.6c0.3-0.3,0.7-0.7,1.5-0.7c1.5,0,1.9,1,1.9,2.1v2.4
				c0,0.1-0.1,0.2-0.2,0.2h-0.8c-0.1,0-0.2-0.1-0.2-0.2v-2.3c0-0.6-0.2-1-0.8-1c-0.6,0-0.9,0.4-1,0.7v2.7c0,0.2-0.1,0.2-0.3,0.2
				h-0.8c-0.1,0-0.2-0.1-0.2-0.2L329.3,450.2L329.3,450.2z"/>
			<path class="st3" d="M340.8,447.6c1,0,1.8,0.3,2.5,0.9c0.1,0.1,0.1,0.2,0,0.3l-0.6,0.6c-0.1,0.1-0.2,0.1-0.3,0
				c-0.4-0.4-1-0.6-1.6-0.6c-1.3,0-2.3,1.1-2.3,2.4s1,2.3,2.3,2.3c0.6,0,1.1-0.2,1.6-0.6c0.1-0.1,0.2-0.1,0.3,0l0.6,0.6
				c0.1,0.1,0.1,0.2,0,0.3c-0.7,0.7-1.6,1-2.5,1c-2,0-3.7-1.6-3.7-3.6C337.2,449.2,338.8,447.6,340.8,447.6z"/>
			<path class="st3" d="M346.3,450c1.2,0,2.2,0.9,2.2,2.2c0,0.1,0,0.2,0,0.3c0,0.1-0.1,0.2-0.2,0.2h-3c0,0.6,0.5,1.1,1.2,1.1
				c0.5,0,0.8-0.2,1-0.3c0.1-0.1,0.2-0.1,0.3,0l0.4,0.5c0.1,0.1,0.1,0.2,0,0.3c-0.4,0.3-1,0.6-1.7,0.6c-1.4,0-2.4-1.1-2.4-2.5
				C344,451.1,345,450,346.3,450z M347.2,451.8c0-0.5-0.4-0.8-0.9-0.8c-0.6,0-0.9,0.3-1,0.8H347.2z"/>
			<path class="st3" d="M349.5,450.2c0-0.1,0.1-0.2,0.2-0.2c0.4,0,0.7,0.3,0.7,0.6c0.3-0.3,0.7-0.7,1.5-0.7c1.5,0,1.9,1,1.9,2.1v2.4
				c0,0.1-0.1,0.2-0.2,0.2h-0.8c-0.1,0-0.2-0.1-0.2-0.2v-2.3c0-0.6-0.2-1-0.8-1c-0.6,0-0.9,0.4-1,0.7v2.7c0,0.2-0.1,0.2-0.3,0.2
				h-0.8c-0.1,0-0.2-0.1-0.2-0.2L349.5,450.2L349.5,450.2z"/>
			<path class="st3" d="M354.9,451.2c-0.1,0-0.2-0.1-0.2-0.2v-0.7c0-0.1,0.1-0.2,0.2-0.2h0.5v-1.3c0-0.1,0.1-0.2,0.2-0.2h0.8
				c0.1,0,0.2,0.1,0.2,0.2v1.3h1.1c0.1,0,0.2,0.1,0.2,0.2v0.7c0,0.1-0.1,0.2-0.2,0.2h-1.1v1.9c0,0.5,0.2,0.6,0.5,0.6
				c0.2,0,0.5-0.1,0.6-0.1c0.1-0.1,0.2,0,0.3,0.1l0.1,0.6c0,0.1,0,0.2-0.1,0.3c-0.2,0.1-0.6,0.2-1.1,0.2c-1,0-1.6-0.6-1.6-1.7v-2
				h-0.4V451.2z"/>
			<path class="st3" d="M359,450.2c0-0.1,0.1-0.2,0.2-0.2c0.4,0,0.7,0.3,0.7,0.6c0.2-0.2,0.6-0.7,1.3-0.7c0.6,0,1,0.2,0.9,0.5
				l-0.3,0.7c-0.1,0.1-0.2,0.2-0.3,0.1c-0.1-0.1-0.2-0.1-0.4-0.1c-0.5,0-0.8,0.3-0.9,0.5v2.9c0,0.2-0.1,0.2-0.3,0.2h-0.7
				c-0.1,0-0.2-0.1-0.2-0.2V450.2z"/>
			<path class="st3" d="M364.4,451.8c0.5,0,0.9,0.1,0.9,0.1c0-0.6-0.4-0.9-0.9-0.9c-0.4,0-0.8,0.1-1.1,0.2c-0.2,0.1-0.2-0.1-0.3-0.2
				l-0.1-0.5c0-0.2,0.1-0.3,0.2-0.3s0.7-0.2,1.4-0.2c1.4,0,2,0.8,2,2v2.6c0,0.1-0.1,0.2-0.2,0.2c-0.4,0-0.6-0.2-0.7-0.5
				c-0.3,0.3-0.7,0.5-1.4,0.5c-0.9,0-1.6-0.6-1.6-1.6C362.5,452.4,363.2,451.8,364.4,451.8z M364.4,453.9c0.4,0,0.8-0.3,0.8-0.5
				v-0.7c0,0-0.3-0.1-0.7-0.1c-0.5,0-0.8,0.3-0.8,0.7S364,453.9,364.4,453.9z"/>
			<path class="st3" d="M367.8,447.9c0-0.1,0.1-0.2,0.2-0.2h0.8c0.1,0,0.2,0.1,0.2,0.2v6.7c0,0.1-0.1,0.2-0.2,0.2H368
				c-0.1,0-0.2-0.1-0.2-0.2V447.9z"/>
			<path class="st3" d="M372.1,454.5l3.2-6.8c0-0.1,0.1-0.1,0.2-0.1h0.1c0.1,0,0.1,0.1,0.2,0.1l3.1,6.8c0.1,0.1,0,0.3-0.2,0.3h-0.9
				c-0.2,0-0.2-0.1-0.3-0.2l-0.5-1.1h-3l-0.5,1.1c0,0.1-0.1,0.2-0.3,0.2h-0.9C372.2,454.8,372.1,454.6,372.1,454.5z M376.5,452.3
				l-1-2.2l0,0l-1,2.2H376.5z"/>
			<path class="st3" d="M379.5,450.2c0-0.1,0.1-0.2,0.2-0.2c0.4,0,0.7,0.3,0.7,0.6c0.2-0.2,0.6-0.6,1.4-0.6c0.7,0,1,0.2,1.4,0.7
				c0.2-0.2,0.7-0.7,1.5-0.7c1.5,0,1.9,1,1.9,2.2v2.4c0,0.1-0.1,0.2-0.2,0.2h-0.8c-0.1,0-0.2-0.1-0.2-0.2v-2.5c0-0.6-0.2-1-0.8-1
				c-0.7,0-0.9,0.5-0.9,0.5s0,0.2,0,0.4v2.5c0,0.1-0.1,0.2-0.2,0.2h-0.8c-0.1,0-0.2-0.1-0.2-0.2v-2.4c0-0.6-0.2-1-0.8-1
				c-0.6,0-0.8,0.4-0.9,0.7v2.7c0,0.1-0.1,0.2-0.2,0.2h-0.8c-0.1,0-0.2-0.1-0.2-0.2v-4.3H379.5z"/>
			<path class="st3" d="M390,450c1.2,0,2.2,0.9,2.2,2.2c0,0.1,0,0.2,0,0.3c0,0.1-0.1,0.2-0.2,0.2h-3c0,0.6,0.5,1.1,1.2,1.1
				c0.5,0,0.8-0.2,1-0.3c0.1-0.1,0.2-0.1,0.3,0l0.4,0.5c0.1,0.1,0.1,0.2,0,0.3c-0.4,0.3-1,0.6-1.7,0.6c-1.4,0-2.4-1.1-2.4-2.5
				C387.6,451.1,388.6,450,390,450z M390.9,451.8c0-0.5-0.4-0.8-0.9-0.8c-0.6,0-0.9,0.3-1,0.8H390.9z"/>
			<path class="st3" d="M393.1,450.2c0-0.1,0.1-0.2,0.2-0.2c0.4,0,0.7,0.3,0.7,0.6c0.2-0.2,0.6-0.7,1.3-0.7c0.6,0,1,0.2,0.9,0.5
				l-0.3,0.7c-0.1,0.1-0.2,0.2-0.3,0.1c-0.1-0.1-0.2-0.1-0.4-0.1c-0.5,0-0.8,0.3-0.9,0.5v2.9c0,0.2-0.1,0.2-0.3,0.2h-0.8
				c-0.1,0-0.2-0.1-0.2-0.2L393.1,450.2L393.1,450.2z"/>
			<path class="st3" d="M396.8,448.5c0-0.4,0.3-0.8,0.8-0.8s0.8,0.4,0.8,0.8s-0.4,0.8-0.8,0.8S396.8,448.9,396.8,448.5z M397,450.3
				c0-0.1,0.1-0.2,0.2-0.2h0.8c0.1,0,0.2,0.1,0.2,0.2v4.2c0,0.1-0.1,0.2-0.2,0.2h-0.8c-0.1,0-0.2-0.1-0.2-0.2V450.3z"/>
			<path class="st3" d="M401.8,450c0.7,0,1.3,0.3,1.7,0.8c0.1,0.1,0.1,0.2-0.1,0.3l-0.4,0.5c-0.1,0.1-0.2,0.1-0.3,0
				c-0.2-0.2-0.5-0.4-0.9-0.4c-0.7,0-1.2,0.6-1.2,1.3c0,0.7,0.5,1.3,1.2,1.3c0.5,0,0.8-0.3,1-0.5c0.1-0.1,0.2-0.1,0.3,0l0.5,0.4
				c0.1,0.1,0.2,0.2,0.1,0.3c-0.4,0.6-1,1-1.9,1c-1.4,0-2.5-1-2.5-2.5C399.3,451,400.4,450,401.8,450z"/>
			<path class="st3" d="M406.1,451.8c0.5,0,0.9,0.1,0.9,0.1c0-0.6-0.4-0.9-0.9-0.9c-0.4,0-0.8,0.1-1.1,0.2c-0.2,0.1-0.2-0.1-0.3-0.2
				l-0.1-0.5c0-0.2,0.1-0.3,0.2-0.3s0.7-0.2,1.4-0.2c1.4,0,2,0.8,2,2v2.6c0,0.1-0.1,0.2-0.2,0.2c-0.4,0-0.6-0.2-0.7-0.5
				c-0.3,0.3-0.7,0.5-1.4,0.5c-0.9,0-1.6-0.6-1.6-1.6C404.2,452.4,404.9,451.8,406.1,451.8z M406.1,453.9c0.4,0,0.8-0.3,0.8-0.5
				v-0.7c0,0-0.3-0.1-0.7-0.1c-0.5,0-0.8,0.3-0.8,0.7C405.4,453.7,405.7,453.9,406.1,453.9z"/>
		</g>
		<g>
			<path class="st4" d="M365.4,355.4c-39.9,0-72.3,33.5-72.3,74.8s32.4,74.8,72.3,74.8h5c39.9,0,72.3-33.5,72.3-74.8
				s-32.4-74.8-72.3-74.8H365.4z"/>
		</g>
	</g>
</g>
</svg>
