<svg xmlns="http://www.w3.org/2000/svg" viewBox="0 0 29.89 29.89"><defs><style>.cls-1{fill:#0468a2;}.cls-2{fill:#fff;}</style></defs><g id="Layer_2" data-name="Layer 2"><g id="Layer_1-2" data-name="Layer 1"><circle class="cls-1" cx="14.95" cy="14.95" r="14.95"/><path class="cls-2" d="M14.4,8.7,13.28,7.58,6.51,14.35a.84.84,0,0,0,0,1.19l6.77,6.77,1.12-1.12a.86.86,0,0,0,0-1.24l-5-5,5-5A.88.88,0,0,0,14.4,8.7Z"/><path class="cls-2" d="M23.4,14.38l-6.81-6.8L15.46,8.71a.87.87,0,0,0,0,1.23l5,5-5,5.05a.8.8,0,0,0,0,1.14l1.17,1.17,6.81-6.8A.8.8,0,0,0,23.4,14.38Z"/></g></g></svg>