<?xml version="1.0" encoding="utf-8"?>
<!-- Generator: Adobe Illustrator 25.4.1, SVG Export Plug-In . SVG Version: 6.00 Build 0)  -->
<svg version="1.1" id="Capa_1" xmlns="http://www.w3.org/2000/svg" xmlns:xlink="http://www.w3.org/1999/xlink" x="0px" y="0px"
	 viewBox="0 0 863 168" style="enable-background:new 0 0 863 168;" xml:space="preserve">
<style type="text/css">
	.st0{opacity:0.6;}
	.st1{fill:#FFFFFF;}
</style>
<g class="st0">
	<path class="st1" d="M40.6,3.4c10.1,0,17.4,3.2,24.2,9.3c0.9,0.8,0.9,2,0.1,2.8l-6.1,6.3c-0.7,0.8-1.7,0.8-2.5,0
		c-4.2-3.7-9.8-5.9-15.4-5.9c-12.8,0-22.3,10.7-22.3,23.3c0,12.5,9.6,23.1,22.4,23.1c6,0,11.1-2.3,15.3-5.7c0.8-0.7,1.9-0.6,2.5,0
		l6.2,6.4c0.8,0.7,0.6,2-0.1,2.7c-6.8,6.6-15.4,9.7-24.3,9.7c-20,0-36.2-15.9-36.2-36C4.4,19.5,20.5,3.4,40.6,3.4z"/>
	<path class="st1" d="M76.7,6.3c0-1,0.9-1.9,1.9-1.9h9.5c1.1,0,1.9,0.9,1.9,1.9v41.8c0,8.5,5.8,14.4,14.5,14.4
		c8.7,0,14.6-5.9,14.6-14.3V6.3c0-1,0.8-1.9,1.9-1.9h9.5c1,0,1.9,0.9,1.9,1.9v42.5c0,15.2-12.1,26.8-28,26.8
		c-15.7,0-27.9-11.5-27.9-26.8V6.3z"/>
	<path class="st1" d="M146,67.7c-1-0.8-1.4-1.4-0.5-3l3.6-6.2c0.8-1.4,2.5-1.4,3.4-0.7c4.1,3.1,8.6,6.2,15.1,6.2
		c5.2,0,9.1-3.4,9.1-7.7c0-5.1-4.3-8.6-12.7-12c-9.4-3.8-18.8-9.8-18.8-21.6c0-8.9,6.6-19.2,22.5-19.2c10.2,0,18,5.2,20,6.7
		c1,0.6,1.3,2.3,0.6,3.3l-3.8,5.7c-0.8,1.2-2.3,2-3.5,1.2c-4.3-2.7-8.4-5.5-13.9-5.5c-5.7,0-8.8,3.2-8.8,7c0,4.7,3.7,7.9,11.8,11.2
		c9.7,3.9,20.9,9.7,20.9,22.6c0,10.3-8.9,19.8-23,19.8C155.4,75.5,148.9,70.2,146,67.7z"/>
	<path class="st1" d="M214.8,16.4h-15.3c-1.1,0-1.9-0.9-1.9-1.9V6.3c0-1,0.8-1.9,1.9-1.9h43.8c1.1,0,1.9,0.9,1.9,1.9v8.2
		c0,1-0.8,1.9-1.9,1.9h-15.3v56.2c0,1-0.9,1.9-1.9,1.9h-9.3c-1,0-1.9-0.9-1.9-1.9V16.4z"/>
	<path class="st1" d="M286.4,3.4c20,0,36.1,16.1,36.1,36.2c0,20-16,36-36.1,36c-20,0-36-15.9-36-36C250.4,19.5,266.3,3.4,286.4,3.4z
		 M286.4,62.5c12.6,0,23-10.3,23-22.9c0-12.6-10.4-23.1-23-23.1c-12.6,0-22.9,10.5-22.9,23.1C263.4,52.2,273.7,62.5,286.4,62.5z"/>
	<path class="st1" d="M342.9,4.9c0.1-0.8,0.7-1.5,1.8-1.5h1.6c0.8,0,1.4,0.4,1.7,1l22,47.3c0.2,0,0.2,0,0.3,0l22-47.3
		c0.3-0.6,0.8-1,1.7-1h1.6c1.1,0,1.7,0.7,1.8,1.5l11.8,67.3c0.3,1.4-0.5,2.3-1.8,2.3h-9.1c-0.9,0-1.7-0.8-1.9-1.5l-5.9-38
		c-0.1,0-0.3,0-0.3,0l-17.5,39.4c-0.2,0.6-0.8,1.1-1.7,1.1h-1.8c-0.9,0-1.4-0.5-1.7-1.1l-17.7-39.4c0,0-0.2,0-0.3,0l-5.8,38
		c-0.1,0.7-0.9,1.5-1.8,1.5h-9c-1.3,0-2.1-0.9-1.9-2.3L342.9,4.9z"/>
	<path class="st1" d="M422.5,6.3c0-1,0.8-1.9,1.9-1.9h40.8c1.1,0,1.9,0.9,1.9,1.9v8.2c0,1-0.8,1.9-1.9,1.9h-29.7v16.4h24.7
		c1,0,1.9,0.9,1.9,1.9v8.3c0,1.1-0.9,1.9-1.9,1.9h-24.7v17.5h29.7c1.1,0,1.9,0.9,1.9,1.9v8.2c0,1-0.8,1.9-1.9,1.9h-40.8
		c-1.1,0-1.9-0.9-1.9-1.9V6.3z"/>
	<path class="st1" d="M480.2,6.3c0-1,0.8-1.9,1.9-1.9h28.7c12,0,21.8,9.6,21.8,21.5c0,9.2-6.1,16.7-14.8,20.2l13.7,25.4
		c0.7,1.3,0,2.9-1.7,2.9h-10.5c-0.9,0-1.4-0.5-1.6-0.9l-13.3-26.5h-11.1v25.5c0,1-0.9,1.9-1.9,1.9h-9.2c-1.1,0-1.9-0.9-1.9-1.9V6.3z
		 M509.7,36.4c5.3,0,9.9-4.6,9.9-10.2c0-5.3-4.6-9.7-9.9-9.7h-16.3v19.9H509.7z"/>
</g>
<g class="st0">
	<path class="st1" d="M578.4,76c-20.2,0-36.7-16.4-36.7-36.5c0-20.2,16.4-36.7,36.7-36.7c9.7,0,17.3,2.9,24.6,9.4
		c0.5,0.5,0.8,1.1,0.9,1.8c0,0.7-0.2,1.3-0.7,1.8l-6.1,6.3c-0.4,0.5-0.9,0.7-1.5,0.8c-0.6,0-1.2-0.2-1.7-0.7
		c-4.2-3.7-9.7-5.8-15.1-5.8c-12.2,0-21.8,10-21.8,22.8c0,12.7,9.6,22.6,21.9,22.6c5.4,0,10.4-1.9,15-5.6c1-0.9,2.4-0.7,3.2,0
		l6.2,6.4c0.4,0.3,0.6,0.9,0.7,1.5c0,0.7-0.3,1.4-0.8,1.9C596.5,72.6,587.9,76,578.4,76z M578.4,3.9c-19.7,0-35.7,16-35.7,35.7
		c0,19.6,16,35.5,35.7,35.5c9.2,0,17.5-3.3,24-9.6c0.3-0.3,0.5-0.8,0.5-1.2c0-0.2-0.1-0.5-0.3-0.8l-6.2-6.4c-0.4-0.4-1.2-0.5-1.8,0
		c-4.8,3.9-10,5.8-15.7,5.8c-12.9,0-22.9-10.4-22.9-23.6c0-13.4,10-23.8,22.8-23.8c5.7,0,11.4,2.2,15.8,6c0.3,0.3,0.7,0.5,1,0.5
		c0.3,0,0.6-0.2,0.8-0.4l6.1-6.3c0.3-0.3,0.5-0.7,0.4-1c0-0.4-0.2-0.7-0.5-1C595.2,6.7,587.9,3.9,578.4,3.9z"/>
	<path class="st1" d="M642.4,76c-16.2,0-28.4-11.7-28.4-27.3V6.3c0-1.3,1.1-2.4,2.4-2.4h9.5c1.3,0,2.4,1.1,2.4,2.4v41.8
		c0,8.3,5.6,13.9,14,13.9c8.3,0,14.1-5.7,14.1-13.8V6.3c0-1.3,1.1-2.4,2.4-2.4h9.5c1.3,0,2.4,1.1,2.4,2.4v42.5
		C670.9,64.3,658.7,76,642.4,76z M616.5,4.9c-0.7,0-1.4,0.7-1.4,1.4v42.5c0,15,11.8,26.3,27.4,26.3c15.7,0,27.5-11.3,27.5-26.3V6.3
		c0-0.7-0.7-1.4-1.4-1.4H659c-0.9,0-1.4,0.7-1.4,1.4v41.9c0,8.7-6.2,14.8-15.1,14.8c-9,0-15-6-15-14.9V6.3c0-0.7-0.5-1.4-1.4-1.4
		H616.5z"/>
	<path class="st1" d="M705.9,76c-13.2,0-19.8-5.8-22.4-7.9c-1.2-1-1.6-1.8-0.6-3.6l3.6-6.2c0.4-0.7,1.1-1.2,1.9-1.4
		c0.8-0.2,1.7,0,2.3,0.5c4.3,3.2,8.6,6.1,14.8,6.1c4.8,0,8.6-3.2,8.6-7.2c0-4.6-3.7-8-12.4-11.6c-8.2-3.3-19.1-9.2-19.1-22.1
		c0-9.5,7.2-19.7,23-19.7c10.7,0,18.8,5.7,20.3,6.8c0.5,0.3,0.9,0.9,1.1,1.7c0.2,0.8,0,1.7-0.4,2.3l-3.8,5.7
		c-0.9,1.4-2.7,2.3-4.2,1.3l-0.7-0.5c-4-2.6-7.9-5-12.9-5c-5.7,0-8.3,3.3-8.3,6.5c0,4.3,3.3,7.4,11.5,10.8
		c10.5,4.2,21.3,10.3,21.3,23.1C729.4,65.6,721.2,76,705.9,76z M688.9,57.8c-0.1,0-0.2,0-0.4,0c-0.4,0.1-0.9,0.3-1.2,0.9l-3.6,6.2
		c-0.8,1.4-0.5,1.7,0.4,2.4l0,0c2.4,2.1,8.9,7.7,21.7,7.7c14.6,0,22.5-10,22.5-19.3c0-12.2-10.4-18.1-20.6-22.2
		c-8.6-3.5-12.1-6.9-12.1-11.7c0-3.7,2.9-7.5,9.3-7.5c5.3,0,9.5,2.6,13.4,5.1l0.7,0.5c1,0.6,2.2-0.1,2.8-1.1l3.8-5.7
		c0.3-0.4,0.4-1,0.2-1.5c-0.1-0.5-0.4-0.9-0.7-1.1c-1.5-1.1-9.4-6.6-19.8-6.6c-10.6,0-22,5.9-22,18.7c0,12.3,10.6,18,18.5,21.2
		c9.1,3.7,13,7.4,13,12.5c0,4.6-4.2,8.2-9.6,8.2c-6.5,0-11-3-15.4-6.3C689.7,58,689.3,57.8,688.9,57.8z"/>
	<path class="st1" d="M763.9,75h-9.3c-1.3,0-2.4-1.1-2.4-2.4V16.9h-14.8c-1.3,0-2.4-1.1-2.4-2.4V6.3c0-1.3,1.1-2.4,2.4-2.4h43.8
		c1.3,0,2.4,1.1,2.4,2.4v8.2c0,1.3-1.1,2.4-2.4,2.4h-14.8v55.7C766.3,73.9,765.2,75,763.9,75z M737.3,4.9c-0.9,0-1.4,0.7-1.4,1.4
		v8.2c0,0.7,0.5,1.4,1.4,1.4h15.8v56.7c0,0.7,0.7,1.4,1.4,1.4h9.3c0.7,0,1.4-0.7,1.4-1.4V15.9h15.8c0.9,0,1.4-0.7,1.4-1.4V6.3
		c0-0.7-0.5-1.4-1.4-1.4H737.3z"/>
	<path class="st1" d="M824.2,76c-20.4,0-36.5-16-36.5-36.5c0-20.2,16.4-36.7,36.5-36.7c20.2,0,36.6,16.4,36.6,36.7
		C860.8,60,844.7,76,824.2,76z M824.2,3.9c-19.6,0-35.5,16-35.5,35.7c0,19.9,15.6,35.5,35.5,35.5c19.9,0,35.6-15.6,35.6-35.5
		C859.8,19.9,843.8,3.9,824.2,3.9z M824.2,63c-12.9,0-23.4-10.5-23.4-23.4c0-13,10.5-23.6,23.4-23.6c13,0,23.5,10.6,23.5,23.6
		C847.7,52.5,837.2,63,824.2,63z M824.2,16.9c-12.4,0-22.4,10.2-22.4,22.6c0,12.4,10.1,22.4,22.4,22.4c12.4,0,22.5-10.1,22.5-22.4
		C846.7,27.3,836.4,16.9,824.2,16.9z"/>
	<path class="st1" d="M908.9,76h-1.8c-0.7,0-1.6-0.2-2.2-1.4l-17.3-38.3L882,73.1c-0.1,0.9-1.1,1.9-2.3,1.9h-9
		c-0.8,0-1.4-0.3-1.9-0.8c-0.5-0.5-0.6-1.3-0.5-2.1l11.9-67.3c0.1-1,0.9-1.9,2.3-1.9h1.6c0.9,0,1.8,0.5,2.2,1.3L908,50.8l21.7-46.6
		c0.4-0.9,1.2-1.3,2.2-1.3h1.6c1.4,0,2.2,1,2.3,1.9l11.8,67.3c0.2,0.8,0,1.5-0.4,2.1c-0.4,0.5-1.1,0.8-1.9,0.8h-9.1
		c-1.1,0-2.1-1-2.4-1.9l-5.7-36.9L911,74.6C910.7,75.5,909.9,76,908.9,76z M886.9,34.6h1.1l17.9,39.7c0.3,0.6,0.7,0.8,1.2,0.8h1.8
		c0.7,0,1.1-0.4,1.2-0.8l17.7-39.7h1.1l0.1,0.4l5.9,38c0.1,0.4,0.7,1.1,1.4,1.1h9.1c0.5,0,0.9-0.2,1.1-0.4c0.2-0.3,0.3-0.7,0.2-1.3
		L934.8,5c0-0.3-0.2-1.1-1.3-1.1h-1.6c-0.6,0-1,0.2-1.3,0.7l-22.2,47.6h-0.9L885.4,4.6c-0.2-0.5-0.7-0.7-1.2-0.7h-1.6
		c-1.1,0-1.3,0.8-1.3,1.1l0,0l-11.9,67.3c-0.1,0.5,0,1,0.3,1.3c0.2,0.3,0.6,0.4,1.1,0.4h9c0.7,0,1.2-0.6,1.3-1.1L886.9,34.6z"/>
	<path class="st1" d="M1003,75h-40.8c-1.3,0-2.4-1.1-2.4-2.4V6.3c0-1.3,1.1-2.4,2.4-2.4h40.8c1.3,0,2.4,1.1,2.4,2.4v8.2
		c0,1.3-1.1,2.4-2.4,2.4h-29.2v15.4h24.2c1.3,0,2.4,1.1,2.4,2.4v8.3c0,1.3-1.1,2.4-2.4,2.4h-24.2V62h29.2c1.3,0,2.4,1.1,2.4,2.4v8.2
		C1005.4,74,1004.4,75,1003,75z M962.3,4.9c-0.9,0-1.4,0.7-1.4,1.4v66.3c0,0.7,0.5,1.4,1.4,1.4h40.8c0.9,0,1.4-0.7,1.4-1.4v-8.2
		c0-0.7-0.5-1.4-1.4-1.4h-30.2V44.5h25.2c0.7,0,1.4-0.5,1.4-1.4v-8.3c0-0.7-0.7-1.4-1.4-1.4h-25.2V15.9h30.2c0.9,0,1.4-0.7,1.4-1.4
		V6.3c0-0.7-0.5-1.4-1.4-1.4H962.3z"/>
	<path class="st1" d="M1067.7,75h-10.5c-1.4,0-1.9-0.9-2-1.2l-13.2-26.3h-10.3v25c0,1.3-1.1,2.4-2.4,2.4h-9.2
		c-1.3,0-2.4-1.1-2.4-2.4V6.3c0-1.3,1.1-2.4,2.4-2.4h28.7c12.3,0,22.3,9.9,22.3,22c0,8.8-5.6,16.6-14.6,20.5l13.5,25
		c0.4,0.8,0.4,1.8,0,2.5C1069.4,74.6,1068.6,75,1067.7,75z M1030.6,46.6h11.9l13.5,26.8c0.1,0.1,0.4,0.6,1.2,0.6h10.5
		c0.6,0,1-0.2,1.3-0.6c0.3-0.4,0.3-1,0-1.5l-14-25.9l0.5-0.2c9-3.6,14.5-11.2,14.5-19.8c0-11.6-9.6-21-21.3-21H1020
		c-0.9,0-1.4,0.7-1.4,1.4v66.3c0,0.7,0.5,1.4,1.4,1.4h9.2c0.7,0,1.4-0.7,1.4-1.4V46.6z M1047.5,36.9h-16.8V15.9h16.8
		c5.6,0,10.4,4.7,10.4,10.2C1058,32,1053.2,36.9,1047.5,36.9z M1031.7,35.9h15.8c5.1,0,9.4-4.5,9.4-9.7c0-5-4.3-9.2-9.4-9.2h-15.8
		V35.9z"/>
	<path class="st1" d="M1116.3,76c-20.2,0-36.7-16.4-36.7-36.5c0-20.2,16.4-36.7,36.7-36.7c9.7,0,17.3,2.9,24.6,9.4
		c0.5,0.5,0.8,1.1,0.9,1.8c0,0.7-0.2,1.3-0.7,1.8l-6.1,6.3c-0.4,0.5-0.9,0.7-1.5,0.8c-0.6,0-1.2-0.2-1.7-0.7
		c-4.2-3.7-9.7-5.8-15.1-5.8c-12.2,0-21.8,10-21.8,22.8c0,12.7,9.6,22.6,21.9,22.6c5.4,0,10.4-1.9,15-5.6c1-0.9,2.4-0.7,3.2,0
		l6.2,6.4c0.4,0.3,0.6,0.9,0.7,1.5c0,0.7-0.3,1.4-0.8,1.9C1134.3,72.6,1125.8,76,1116.3,76z M1116.3,3.9c-19.7,0-35.7,16-35.7,35.7
		c0,19.6,16,35.5,35.7,35.5c9.2,0,17.5-3.3,24-9.6c0.3-0.3,0.5-0.8,0.5-1.2c0-0.2-0.1-0.5-0.3-0.8l-6.2-6.4c-0.4-0.4-1.2-0.5-1.8,0
		c-4.8,3.9-10,5.8-15.7,5.8c-12.9,0-22.9-10.4-22.9-23.6c0-13.4,10-23.8,22.8-23.8c5.7,0,11.4,2.2,15.8,6c0.3,0.3,0.7,0.5,1,0.5
		c0.3,0,0.6-0.2,0.8-0.4l6.1-6.3c0.3-0.3,0.5-0.7,0.4-1c0-0.4-0.2-0.7-0.5-1C1133.1,6.7,1125.7,3.9,1116.3,3.9z"/>
	<path class="st1" d="M1180.3,76c-16.2,0-28.4-11.7-28.4-27.3V6.3c0-1.3,1.1-2.4,2.4-2.4h9.5c1.3,0,2.4,1.1,2.4,2.4v41.8
		c0,8.3,5.6,13.9,14,13.9c8.3,0,14.1-5.7,14.1-13.8V6.3c0-1.3,1.1-2.4,2.4-2.4h9.5c1.3,0,2.4,1.1,2.4,2.4v42.5
		C1208.7,64.3,1196.5,76,1180.3,76z M1154.3,4.9c-0.7,0-1.4,0.7-1.4,1.4v42.5c0,15,11.8,26.3,27.4,26.3c15.7,0,27.5-11.3,27.5-26.3
		V6.3c0-0.7-0.7-1.4-1.4-1.4h-9.5c-0.9,0-1.4,0.7-1.4,1.4v41.9c0,8.7-6.2,14.8-15.1,14.8c-9,0-15-6-15-14.9V6.3
		c0-0.7-0.5-1.4-1.4-1.4H1154.3z"/>
	<path class="st1" d="M31.1,158h-9.3c-1.3,0-2.4-1.1-2.4-2.4V99.9H4.5c-1.3,0-2.4-1.1-2.4-2.4v-8.2c0-1.3,1.1-2.4,2.4-2.4h43.8
		c1.3,0,2.4,1.1,2.4,2.4v8.2c0,1.3-1.1,2.4-2.4,2.4H33.5v55.7C33.5,156.9,32.3,158,31.1,158z M4.5,87.9c-0.9,0-1.4,0.7-1.4,1.4v8.2
		c0,0.7,0.5,1.4,1.4,1.4h15.8v56.7c0,0.7,0.7,1.4,1.4,1.4h9.3c0.7,0,1.4-0.7,1.4-1.4V98.9h15.8c0.9,0,1.4-0.7,1.4-1.4v-8.2
		c0-0.7-0.5-1.4-1.4-1.4H4.5z"/>
	<path class="st1" d="M91.4,159c-20.4,0-36.5-16-36.5-36.5c0-20.2,16.4-36.7,36.5-36.7c20.2,0,36.6,16.4,36.6,36.7
		C127.9,143,111.9,159,91.4,159z M91.4,86.9c-19.6,0-35.5,16-35.5,35.7c0,19.9,15.6,35.5,35.5,35.5c19.9,0,35.6-15.6,35.6-35.5
		C126.9,102.9,111,86.9,91.4,86.9z M91.4,146c-12.9,0-23.4-10.5-23.4-23.4c0-13,10.5-23.6,23.4-23.6c13,0,23.5,10.6,23.5,23.6
		C114.9,135.5,104.4,146,91.4,146z M91.4,99.9c-12.4,0-22.4,10.2-22.4,22.6C68.9,135,79,145,91.4,145c12.4,0,22.5-10.1,22.5-22.4
		C113.9,110.3,103.6,99.9,91.4,99.9z"/>
	<path class="st1" d="M176,159h-1.8c-0.7,0-1.6-0.2-2.2-1.4l-17.3-38.3l-5.6,36.8c-0.1,0.9-1.1,1.9-2.3,1.9h-9
		c-0.8,0-1.4-0.3-1.9-0.8c-0.5-0.5-0.6-1.3-0.5-2.1l11.9-67.3c0.1-1,0.9-1.9,2.3-1.9h1.6c0.9,0,1.8,0.5,2.2,1.3l21.7,46.7l21.7-46.6
		c0.4-0.9,1.2-1.3,2.2-1.3h1.6c1.4,0,2.2,1,2.3,1.9l11.8,67.3c0.2,0.8,0,1.5-0.4,2.1c-0.4,0.5-1.1,0.8-1.9,0.8h-9.1
		c-1.1,0-2.1-1-2.4-1.9l-5.7-36.9l-17.1,38.3C177.9,158.5,177.1,159,176,159z M154.1,117.6h1.1l17.9,39.7c0.3,0.6,0.7,0.8,1.2,0.8
		h1.8c0.7,0,1.1-0.4,1.2-0.8l17.7-39.7h1.1l6,38.4c0.1,0.4,0.7,1.1,1.4,1.1h9.1c0.5,0,0.9-0.2,1.1-0.4c0.2-0.3,0.3-0.7,0.2-1.3
		L202,88c0-0.3-0.2-1.1-1.3-1.1h-1.6c-0.6,0-1,0.2-1.3,0.7l-22.2,47.6h-0.9l-22.2-47.6c-0.2-0.5-0.7-0.7-1.2-0.7h-1.6
		c-1.1,0-1.3,0.8-1.3,1.1l0,0l-11.9,67.3c-0.1,0.5,0,1,0.3,1.3c0.2,0.3,0.6,0.4,1.1,0.4h9c0.7,0,1.2-0.6,1.3-1.1L154.1,117.6z"/>
	<path class="st1" d="M270.2,158h-40.8c-1.3,0-2.4-1.1-2.4-2.4V89.3c0-1.3,1.1-2.4,2.4-2.4h40.8c1.3,0,2.4,1.1,2.4,2.4v8.2
		c0,1.3-1.1,2.4-2.4,2.4h-29.2v15.4h24.2c1.3,0,2.4,1.1,2.4,2.4v8.3c0,1.3-1.1,2.4-2.4,2.4h-24.2V145h29.2c1.3,0,2.4,1.1,2.4,2.4
		v8.2C272.6,157,271.5,158,270.2,158z M229.4,87.9c-0.9,0-1.4,0.7-1.4,1.4v66.3c0,0.7,0.5,1.4,1.4,1.4h40.8c0.9,0,1.4-0.7,1.4-1.4
		v-8.2c0-0.7-0.5-1.4-1.4-1.4h-30.2v-18.5h25.2c0.7,0,1.4-0.5,1.4-1.4v-8.3c0-0.7-0.7-1.4-1.4-1.4h-25.2V98.9h30.2
		c0.9,0,1.4-0.7,1.4-1.4v-8.2c0-0.7-0.5-1.4-1.4-1.4H229.4z"/>
	<path class="st1" d="M334.8,158h-10.5c-1.4,0-1.9-0.9-2.1-1.2l-13.2-26.3h-10.3v25c0,1.3-1.1,2.4-2.4,2.4h-9.2
		c-1.3,0-2.4-1.1-2.4-2.4V89.3c0-1.3,1.1-2.4,2.4-2.4h28.7c12.3,0,22.3,9.9,22.3,22c0,8.8-5.6,16.6-14.6,20.5l13.5,25
		c0.4,0.8,0.4,1.8,0,2.5C336.6,157.6,335.8,158,334.8,158z M297.8,129.6h11.9l13.5,26.8c0.1,0.1,0.4,0.6,1.2,0.6h10.5
		c0.6,0,1-0.2,1.3-0.6c0.3-0.4,0.3-1,0-1.5l-14-25.9l0.5-0.2c9-3.6,14.5-11.2,14.5-19.8c0-11.6-9.6-21-21.3-21h-28.7
		c-0.9,0-1.4,0.7-1.4,1.4v66.3c0,0.7,0.5,1.4,1.4,1.4h9.2c0.7,0,1.4-0.7,1.4-1.4V129.6z M314.7,119.9h-16.8V98.9h16.8
		c5.6,0,10.4,4.7,10.4,10.2C325.1,115,320.4,119.9,314.7,119.9z M298.9,118.9h15.8c5.1,0,9.4-4.5,9.4-9.7c0-5-4.3-9.2-9.4-9.2h-15.8
		V118.9z"/>
	<path class="st1" d="M383.4,159c-20.2,0-36.7-16.4-36.7-36.5c0-20.2,16.4-36.7,36.7-36.7c9.7,0,17.3,2.9,24.6,9.4
		c0.5,0.5,0.8,1.1,0.9,1.8c0,0.7-0.2,1.3-0.7,1.8l-6.1,6.3c-0.4,0.5-0.9,0.7-1.5,0.8c-0.6,0-1.2-0.2-1.7-0.7
		c-4.2-3.7-9.7-5.8-15.1-5.8c-12.2,0-21.8,10-21.8,22.8c0,12.7,9.6,22.6,21.9,22.6c5.4,0,10.4-1.9,15-5.6c1-0.9,2.4-0.7,3.2,0
		l6.2,6.4c0.4,0.3,0.6,0.9,0.7,1.5c0,0.7-0.3,1.4-0.8,1.9C401.5,155.6,393,159,383.4,159z M383.4,86.9c-19.7,0-35.7,16-35.7,35.7
		c0,19.6,16,35.5,35.7,35.5c9.2,0,17.5-3.3,24-9.6c0.3-0.3,0.5-0.8,0.5-1.2c0-0.2-0.1-0.5-0.3-0.8l-6.2-6.4c-0.4-0.4-1.2-0.5-1.8,0
		c-4.8,3.9-10,5.8-15.7,5.8c-12.9,0-22.9-10.4-22.9-23.6c0-13.4,10-23.8,22.8-23.8c5.7,0,11.4,2.2,15.8,6c0.3,0.3,0.7,0.5,1,0.5
		c0.3,0,0.6-0.2,0.8-0.4l6.1-6.3c0.3-0.3,0.5-0.7,0.4-1c0-0.4-0.2-0.7-0.5-1C400.3,89.7,392.9,86.9,383.4,86.9z"/>
	<path class="st1" d="M447.5,159c-16.2,0-28.4-11.7-28.4-27.2V89.3c0-1.3,1.1-2.4,2.4-2.4h9.5c1.3,0,2.4,1.1,2.4,2.4v41.8
		c0,8.3,5.6,13.9,14,13.9c8.3,0,14.1-5.7,14.1-13.8V89.3c0-1.3,1.1-2.4,2.4-2.4h9.5c1.3,0,2.4,1.1,2.4,2.4v42.5
		C475.9,147.3,463.7,159,447.5,159z M421.5,87.9c-0.7,0-1.4,0.7-1.4,1.4v42.5c0,15,11.8,26.2,27.4,26.2c15.7,0,27.5-11.3,27.5-26.2
		V89.3c0-0.7-0.7-1.4-1.4-1.4H464c-0.9,0-1.4,0.7-1.4,1.4v41.9c0,8.7-6.2,14.8-15.1,14.8c-9,0-15-6-15-14.9V89.3
		c0-0.7-0.5-1.4-1.4-1.4H421.5z"/>
	<path class="st1" d="M510.9,159c-13.2,0-19.8-5.8-22.4-7.9c-1.2-1-1.6-1.8-0.6-3.6l3.6-6.2c0.4-0.7,1.1-1.2,1.9-1.4
		c0.8-0.2,1.7,0,2.3,0.5c4.3,3.2,8.6,6.1,14.8,6.1c4.8,0,8.6-3.2,8.6-7.2c0-4.6-3.7-8-12.4-11.6c-8.2-3.3-19.1-9.2-19.1-22.1
		c0-9.5,7.2-19.7,23-19.7c10.7,0,18.8,5.7,20.3,6.8c0.5,0.3,0.9,0.9,1.1,1.7c0.2,0.8,0,1.7-0.4,2.3l-3.8,5.7
		c-0.9,1.4-2.7,2.3-4.2,1.3l-0.7-0.5c-4-2.6-7.9-5-12.9-5c-5.7,0-8.3,3.3-8.3,6.5c0,4.3,3.3,7.4,11.5,10.8
		c10.5,4.2,21.3,10.3,21.3,23.1C534.4,148.6,526.2,159,510.9,159z M494,140.8c-0.1,0-0.2,0-0.4,0c-0.4,0.1-0.9,0.3-1.2,0.9l-3.6,6.2
		c-0.8,1.4-0.5,1.7,0.4,2.4l0,0c2.4,2.1,8.9,7.7,21.7,7.7c14.6,0,22.5-10,22.5-19.3c0-12.2-10.4-18.1-20.6-22.2
		c-8.6-3.5-12.1-6.9-12.1-11.7c0-3.7,2.9-7.5,9.3-7.5c5.3,0,9.5,2.6,13.4,5.1l0.7,0.5c0.5,0.4,1.1,0.3,1.5,0.1
		c0.5-0.2,1-0.6,1.4-1.2l3.8-5.7c0.3-0.4,0.4-1,0.2-1.5c-0.1-0.5-0.4-0.9-0.7-1.1c-1.5-1.1-9.4-6.6-19.8-6.6c-10.6,0-22,5.9-22,18.7
		c0,12.3,10.6,18,18.5,21.2c9.1,3.7,13,7.4,13,12.5c0,4.6-4.2,8.2-9.6,8.2c-6.5,0-11-3-15.4-6.3C494.8,141,494.4,140.8,494,140.8z"
		/>
	<path class="st1" d="M568.9,158h-9.3c-1.3,0-2.4-1.1-2.4-2.4V99.9h-14.8c-1.3,0-2.4-1.1-2.4-2.4v-8.2c0-1.3,1.1-2.4,2.4-2.4h43.8
		c1.3,0,2.4,1.1,2.4,2.4v8.2c0,1.3-1.1,2.4-2.4,2.4h-14.8v55.7C571.3,156.9,570.2,158,568.9,158z M542.4,87.9
		c-0.9,0-1.4,0.7-1.4,1.4v8.2c0,0.7,0.5,1.4,1.4,1.4h15.8v56.7c0,0.7,0.7,1.4,1.4,1.4h9.3c0.7,0,1.4-0.7,1.4-1.4V98.9h15.8
		c0.9,0,1.4-0.7,1.4-1.4v-8.2c0-0.7-0.5-1.4-1.4-1.4H542.4z"/>
	<path class="st1" d="M629.2,159c-20.4,0-36.5-16-36.5-36.5c0-20.2,16.4-36.7,36.5-36.7c20.2,0,36.6,16.4,36.6,36.7
		C665.8,143,649.7,159,629.2,159z M629.2,86.9c-19.6,0-35.5,16-35.5,35.7c0,19.9,15.6,35.5,35.5,35.5c19.9,0,35.6-15.6,35.6-35.5
		C664.8,102.9,648.8,86.9,629.2,86.9z M629.2,146c-12.9,0-23.4-10.5-23.4-23.4c0-13,10.5-23.6,23.4-23.6c13,0,23.5,10.6,23.5,23.6
		C652.8,135.5,642.2,146,629.2,146z M629.2,99.9c-12.4,0-22.4,10.2-22.4,22.6c0,12.4,10.1,22.4,22.4,22.4
		c12.4,0,22.5-10.1,22.5-22.4C651.8,110.3,641.4,99.9,629.2,99.9z"/>
	<path class="st1" d="M713.9,159h-1.8c-0.7,0-1.6-0.2-2.2-1.4l-17.3-38.3l-5.6,36.8c-0.1,0.9-1.1,1.9-2.3,1.9h-9
		c-0.8,0-1.4-0.3-1.9-0.8c-0.5-0.5-0.6-1.3-0.5-2.1l11.9-67.3c0.1-1,0.9-1.9,2.3-1.9h1.6c0.9,0,1.8,0.5,2.2,1.3l21.7,46.7l21.7-46.6
		c0.4-0.9,1.2-1.3,2.2-1.3h1.6c1.4,0,2.2,1,2.3,1.9l11.8,67.3c0.2,0.8,0,1.5-0.4,2.1c-0.4,0.5-1.1,0.8-1.9,0.8h-9.1
		c-1.1,0-2.1-1-2.4-1.9l-5.7-36.9L716,157.6C715.8,158.5,714.9,159,713.9,159z M691.9,117.6h1.1l17.9,39.7c0.3,0.6,0.7,0.8,1.2,0.8
		h1.8c0.7,0,1.1-0.4,1.2-0.8l17.7-39.7h1.1l0.1,0.4l5.9,38c0.1,0.4,0.7,1.1,1.4,1.1h9.1c0.5,0,0.9-0.2,1.1-0.4
		c0.2-0.3,0.3-0.7,0.2-1.3L739.8,88c0-0.3-0.2-1.1-1.3-1.1h-1.6c-0.6,0-1,0.2-1.3,0.7l-22.2,47.6h-0.9l-22.2-47.6
		c-0.2-0.5-0.7-0.7-1.2-0.7h-1.6c-1.1,0-1.3,0.8-1.3,1.1l0,0l-11.9,67.3c-0.1,0.5,0,1,0.3,1.3c0.2,0.3,0.6,0.4,1.1,0.4h9
		c0.7,0,1.2-0.6,1.3-1.1L691.9,117.6z"/>
	<path class="st1" d="M808.1,158h-40.8c-1.3,0-2.4-1.1-2.4-2.4V89.3c0-1.3,1.1-2.4,2.4-2.4h40.8c1.3,0,2.4,1.1,2.4,2.4v8.2
		c0,1.3-1.1,2.4-2.4,2.4h-29.2v15.4h24.2c1.3,0,2.4,1.1,2.4,2.4v8.3c0,1.3-1.1,2.4-2.4,2.4h-24.2V145h29.2c1.3,0,2.4,1.1,2.4,2.4
		v8.2C810.5,157,809.4,158,808.1,158z M767.3,87.9c-0.9,0-1.4,0.7-1.4,1.4v66.3c0,0.7,0.5,1.4,1.4,1.4h40.8c0.9,0,1.4-0.7,1.4-1.4
		v-8.2c0-0.7-0.5-1.4-1.4-1.4h-30.2v-18.5h25.2c0.7,0,1.4-0.5,1.4-1.4v-8.3c0-0.7-0.7-1.4-1.4-1.4h-25.2V98.9h30.2
		c0.9,0,1.4-0.7,1.4-1.4v-8.2c0-0.7-0.5-1.4-1.4-1.4H767.3z"/>
	<path class="st1" d="M872.7,158h-10.5c-1.4,0-1.9-0.9-2-1.2l-13.2-26.3h-10.3v25c0,1.3-1.1,2.4-2.4,2.4H825c-1.3,0-2.4-1.1-2.4-2.4
		V89.3c0-1.3,1.1-2.4,2.4-2.4h28.7c12.3,0,22.3,9.9,22.3,22c0,8.8-5.6,16.6-14.6,20.5l13.5,25c0.4,0.8,0.4,1.8,0,2.5
		C874.4,157.6,873.6,158,872.7,158z M835.6,129.6h11.9l13.5,26.8c0.1,0.1,0.4,0.6,1.2,0.6h10.5c0.6,0,1-0.2,1.3-0.6
		c0.3-0.4,0.3-1,0-1.5l-14-25.9l0.5-0.2c9-3.6,14.5-11.2,14.5-19.8c0-11.6-9.6-21-21.3-21H825c-0.9,0-1.4,0.7-1.4,1.4v66.3
		c0,0.7,0.5,1.4,1.4,1.4h9.2c0.7,0,1.4-0.7,1.4-1.4V129.6z M852.6,119.9h-16.8V98.9h16.8c5.6,0,10.4,4.7,10.4,10.2
		C863,115,858.2,119.9,852.6,119.9z M836.7,118.9h15.8c5.1,0,9.4-4.5,9.4-9.7c0-5-4.3-9.2-9.4-9.2h-15.8V118.9z"/>
	<path class="st1" d="M921.3,159c-20.2,0-36.7-16.4-36.7-36.5c0-20.2,16.4-36.7,36.7-36.7c9.7,0,17.3,2.9,24.6,9.4
		c0.5,0.5,0.8,1.1,0.9,1.8c0,0.7-0.2,1.3-0.7,1.8l-6.1,6.3c-0.4,0.5-0.9,0.7-1.5,0.8c-0.6,0-1.2-0.2-1.7-0.7
		c-4.2-3.7-9.7-5.8-15.1-5.8c-12.2,0-21.8,10-21.8,22.8c0,12.7,9.6,22.6,21.9,22.6c5.4,0,10.4-1.9,15-5.6c1-0.9,2.4-0.7,3.2,0
		l6.2,6.4c0.4,0.3,0.6,0.9,0.7,1.5c0,0.7-0.3,1.4-0.8,1.9C939.3,155.6,930.8,159,921.3,159z M921.3,86.9c-19.7,0-35.7,16-35.7,35.7
		c0,19.6,16,35.5,35.7,35.5c9.2,0,17.5-3.3,24-9.6c0.3-0.3,0.5-0.8,0.5-1.2c0-0.2-0.1-0.5-0.3-0.8l-6.2-6.4c-0.4-0.4-1.2-0.5-1.8,0
		c-4.8,3.9-10.1,5.8-15.7,5.8c-12.9,0-22.9-10.4-22.9-23.6c0-13.4,10-23.8,22.8-23.8c5.7,0,11.4,2.2,15.8,6c0.3,0.3,0.6,0.5,1,0.5
		c0.3,0,0.6-0.2,0.8-0.4l6.1-6.3c0.3-0.3,0.5-0.7,0.4-1c0-0.4-0.2-0.7-0.5-1C938.1,89.7,930.7,86.9,921.3,86.9z"/>
	<path class="st1" d="M985.3,159c-16.2,0-28.4-11.7-28.4-27.2V89.3c0-1.3,1.1-2.4,2.4-2.4h9.5c1.3,0,2.4,1.1,2.4,2.4v41.8
		c0,8.3,5.6,13.9,14,13.9c8.3,0,14.1-5.7,14.1-13.8V89.3c0-1.3,1.1-2.4,2.4-2.4h9.5c1.3,0,2.4,1.1,2.4,2.4v42.5
		C1013.8,147.3,1001.5,159,985.3,159z M959.4,87.9c-0.7,0-1.4,0.7-1.4,1.4v42.5c0,15,11.8,26.2,27.4,26.2
		c15.7,0,27.5-11.3,27.5-26.2V89.3c0-0.7-0.7-1.4-1.4-1.4h-9.5c-0.9,0-1.4,0.7-1.4,1.4v41.9c0,8.7-6.2,14.8-15.1,14.8
		c-9,0-15-6-15-14.9V89.3c0-0.7-0.5-1.4-1.4-1.4H959.4z"/>
	<path class="st1" d="M1048.7,159c-13.2,0-19.8-5.8-22.4-7.9c-1.2-1-1.6-1.8-0.6-3.6l3.6-6.2c0.4-0.7,1.1-1.2,1.9-1.4
		c0.8-0.2,1.7,0,2.3,0.5c4.3,3.2,8.6,6.1,14.8,6.1c4.8,0,8.6-3.2,8.6-7.2c0-4.6-3.7-8-12.4-11.6c-8.2-3.3-19.1-9.2-19.1-22.1
		c0-9.5,7.2-19.7,23-19.7c10.7,0,18.8,5.7,20.3,6.8c0.5,0.3,0.9,1,1.1,1.7c0.2,0.8,0,1.7-0.4,2.3l-3.8,5.7c-0.9,1.4-2.7,2.3-4.2,1.3
		l-0.7-0.5c-4-2.6-7.9-5-12.9-5c-5.7,0-8.3,3.3-8.3,6.5c0,4.3,3.3,7.4,11.5,10.8c10.5,4.2,21.3,10.3,21.3,23.1
		C1072.3,148.6,1064,159,1048.7,159z M1031.8,140.8c-0.1,0-0.2,0-0.4,0c-0.4,0.1-0.9,0.3-1.2,0.9l-3.6,6.2c-0.8,1.4-0.5,1.7,0.4,2.4
		l0,0c2.4,2.1,8.9,7.7,21.7,7.7c14.6,0,22.5-10,22.5-19.3c0-12.2-10.4-18.1-20.6-22.2c-8.6-3.5-12.1-6.9-12.1-11.7
		c0-3.7,2.9-7.5,9.3-7.5c5.3,0,9.5,2.6,13.4,5.1l0.7,0.5c0.5,0.4,1.1,0.3,1.5,0.1c0.5-0.2,1-0.6,1.4-1.2l3.8-5.7
		c0.3-0.4,0.4-1,0.2-1.5c-0.1-0.5-0.4-0.9-0.7-1.1c-1.5-1.1-9.4-6.6-19.8-6.6c-10.6,0-22,5.9-22,18.7c0,12.3,10.6,18,18.5,21.2
		c9.1,3.7,13,7.4,13,12.5c0,4.6-4.2,8.2-9.6,8.2c-6.5,0-11-3-15.4-6.3C1032.6,141,1032.2,140.8,1031.8,140.8z"/>
	<path class="st1" d="M1106.7,158h-9.3c-1.3,0-2.4-1.1-2.4-2.4V99.9h-14.8c-1.3,0-2.4-1.1-2.4-2.4v-8.2c0-1.3,1.1-2.4,2.4-2.4h43.8
		c1.3,0,2.4,1.1,2.4,2.4v8.2c0,1.3-1.1,2.4-2.4,2.4h-14.8v55.7C1109.2,156.9,1108,158,1106.7,158z M1080.2,87.9
		c-0.9,0-1.4,0.7-1.4,1.4v8.2c0,0.7,0.5,1.4,1.4,1.4h15.8v56.7c0,0.7,0.7,1.4,1.4,1.4h9.3c0.7,0,1.4-0.7,1.4-1.4V98.9h15.8
		c0.9,0,1.4-0.7,1.4-1.4v-8.2c0-0.7-0.5-1.4-1.4-1.4H1080.2z"/>
	<path class="st1" d="M1167.1,159c-20.4,0-36.5-16-36.5-36.5c0-20.2,16.4-36.7,36.5-36.7c20.2,0,36.6,16.4,36.6,36.7
		C1203.6,143,1187.6,159,1167.1,159z M1167.1,86.9c-19.6,0-35.5,16-35.5,35.7c0,19.9,15.6,35.5,35.5,35.5
		c19.9,0,35.6-15.6,35.6-35.5C1202.6,102.9,1186.7,86.9,1167.1,86.9z M1167.1,146c-12.9,0-23.4-10.5-23.4-23.4
		c0-13,10.5-23.6,23.4-23.6c13,0,23.5,10.6,23.5,23.6C1190.6,135.5,1180,146,1167.1,146z M1167.1,99.9c-12.4,0-22.4,10.2-22.4,22.6
		c0,12.4,10.1,22.4,22.4,22.4c12.4,0,22.5-10.1,22.5-22.4C1189.6,110.3,1179.3,99.9,1167.1,99.9z"/>
</g>
</svg>
