<?xml version="1.0" encoding="utf-8"?>
<!-- Generator: Adobe Illustrator 25.4.1, SVG Export Plug-In . SVG Version: 6.00 Build 0)  -->
<svg version="1.1" id="Capa_1" xmlns="http://www.w3.org/2000/svg" xmlns:xlink="http://www.w3.org/1999/xlink" x="0px" y="0px"
	 viewBox="0 0 632 168" style="enable-background:new 0 0 632 168;" xml:space="preserve">
<style type="text/css">
	.st0{opacity:0.6;}
	.st1{fill:none;stroke:#FFFFFF;stroke-miterlimit:3.11;}
	.st2{fill:#FFFFFF;}
</style>
<g class="st0">
	<path class="st1" d="M10.8,90.7c0-1.1,0.9-2,2-2h9.5c1.1,0,2,0.9,2,2v58.2h26.4c1.1,0,2,0.9,2,2v8.5c0,1.1-0.9,2-2,2h-38
		c-1.1,0-2-0.9-2-2L10.8,90.7z"/>
	<path class="st1" d="M68.4,90.7c0-1.1,0.9-2,2-2h42.2c1.1,0,2,0.9,2,2v8.5c0,1.1-0.9,2-2,2H81.9v17h25.6c1.1,0,2,0.9,2,2v8.6
		c0,1.1-0.9,2-2,2H81.9v18.1h30.7c1.1,0,2,0.9,2,2v8.5c0,1.1-0.9,2-2,2H70.4c-1.1,0-2-0.9-2-2L68.4,90.7z"/>
	<path class="st1" d="M133.4,89.5c0.1-1.1,0.9-1.9,2-1.9h1.6c0.7,0,1.3,0.2,1.8,0.7l42.3,45.1h0.2V90.7c0-1.1,0.9-2,2-2h9.5
		c1.1,0,2,0.9,2,2v69.8c-0.1,1.1-0.9,1.9-2,1.9h-1.4c-0.7,0-1.3-0.2-1.8-0.7L147,114.7h-0.2v44.6c0,1.1-0.9,2-2,2h-9.4
		c-1.1,0-2-0.9-2-2L133.4,89.5z"/>
	<path class="st1" d="M229.2,101.1h-15.9c-1.1,0-2-0.9-2-2v-8.5c0-1.1,0.9-2,2-2h45.4c1.1,0,2,0.9,2,2v8.5c0,1.1-0.9,2-2,2h-15.9
		v58.2c0,1.1-0.9,2-2,2h-9.6c-1.1,0-2-0.9-2-2L229.2,101.1z"/>
	<path class="st1" d="M291.1,101.1h-15.9c-1.1,0-2-0.9-2-2v-8.5c0-1.1,0.9-2,2-2h45.3c1.1,0,2,0.9,2,2v8.5c0,1.1-0.9,2-2,2h-15.9
		v58.2c0,1.1-0.9,2-2,2h-9.6c-1.1,0-2-0.9-2-2L291.1,101.1z"/>
	<path class="st1" d="M326,158.6l32.3-69.8c0.3-0.7,1-1.2,1.8-1.1h1c0.8-0.1,1.6,0.4,1.9,1.1l32,69.8c0.5,0.9,0.2,2-0.7,2.5
		c-0.3,0.2-0.7,0.2-1,0.2h-9c-1.5,0-2.3-0.6-3-2.1l-5.2-11.2h-31l-5.1,11.2c-0.5,1.3-1.7,2.1-3,2.1h-9c-1,0.1-1.9-0.6-2-1.6
		C325.7,159.3,325.8,159,326,158.6z M370.9,136.5l-10.4-22.8h-0.3L350,136.5H370.9z"/>
	<path class="st1" d="M409.1,90.7c0-1.1,0.9-2,2-2h9.5c1.1,0,2,0.9,2,2v58.2h26.5c1.1,0,2,0.9,2,2v8.5c0,1.1-0.9,2-2,2h-38
		c-1.1,0-2-0.9-2-2L409.1,90.7z"/>
	<path class="st1" d="M466.7,90.7c0-1.1,0.9-2,2-2h42.2c1.1,0,2,0.9,2,2v8.5c0,1.1-0.9,2-2,2h-30.7v17h25.6c1.1,0,2,0.9,2,2v8.6
		c0,1.1-0.9,2-2,2h-25.6v18.1h30.7c1.1,0,2,0.9,2,2v8.5c0,1.1-0.9,2-2,2h-42.2c-1.1,0-2-0.9-2-2L466.7,90.7z"/>
	<path class="st1" d="M531.6,89.5c0.1-1.1,0.9-1.9,2-1.9h1.5c0.7,0,1.3,0.2,1.8,0.7l42.3,45.1h0.2V90.7c0-1.1,0.9-2,2-2h9.6
		c1.1,0,2,0.9,2,2v69.8c-0.1,1.1-0.9,1.9-2,1.9h-1.5c-0.7,0-1.3-0.2-1.8-0.7l-42.5-46.9h-0.2v44.6c0,1.1-0.9,2-2,2h-9.4
		c-1.1,0-2-0.9-2-2V89.5z"/>
	<path class="st2" d="M22.5,19.1H6.7c-1.1,0-2-0.9-2-2V8.6c0-1.1,0.9-2,2-2H52c1.1,0,2,0.9,2,2v8.5c0,1.1-0.9,2-2,2H36.1v58.2
		c0,1.1-0.9,2-2,2h-9.6c-1.1,0-2-0.9-2-2L22.5,19.1z"/>
	<path class="st2" d="M57.5,76.6L89.8,6.8c0.3-0.7,1-1.2,1.8-1.1h1C93.3,5.6,94,6,94.3,6.8l32,69.8c0.5,0.9,0.2,2-0.7,2.5
		c-0.3,0.2-0.7,0.2-1,0.2h-9c-1.6,0-2.3-0.6-3-2.1L107.5,66h-31l-5.1,11.2c-0.4,1.3-1.7,2.1-3,2.1h-9c-1,0.1-1.9-0.6-2.1-1.6
		C57.2,77.3,57.3,76.9,57.5,76.6z M102.3,54.5L92,31.7h-0.3L81.5,54.5H102.3z"/>
	<path class="st2" d="M140.5,8.6c0-1.1,0.9-2,2-2h9.5c1.1,0,2,0.9,2,2v58.2h26.5c1.1,0,2,0.9,2,2v8.5c0,1.1-0.9,2-2,2h-38
		c-1.1,0-2-0.9-2-2L140.5,8.6z"/>
	<path class="st2" d="M198.1,8.6c0-1.1,0.9-2,2-2h42.2c1.1,0,2,0.9,2,2v8.5c0,1.1-0.9,2-2,2h-30.7v17h25.6c1.1,0,2,0.9,2,2v8.6
		c0,1.1-0.9,2-2,2h-25.6v18.1h30.7c1.1,0,2,0.9,2,2v8.5c0,1.1-0.9,2-2,2h-42.2c-1.1,0-2-0.9-2-2L198.1,8.6z"/>
	<path class="st1" d="M624.2,101.1h-15.9c-1.1,0-2-0.9-2-2v-8.5c0-1.1,0.9-2,2-2h45.4c1.1,0,2,0.9,2,2v8.5c0,1.1-0.9,2-2,2h-15.9
		v58.2c0,1.1-0.9,2-2,2h-9.7c-1.1,0-2-0.9-2-2L624.2,101.1z"/>
	<path class="st2" d="M593.1,8.6c0-1.1,0.9-2,2-2h42.2c1.1,0,2,0.9,2,2v8.5c0,1.1-0.9,2-2,2h-30.7v17h25.6c1.1,0,2,0.9,2,2v8.6
		c0,1.1-0.9,2-2,2h-25.6v18.1h30.7c1.1,0,2,0.9,2,2v8.5c0,1.1-0.9,2-2,2H595c-1.1,0-2-0.9-2-2L593.1,8.6z"/>
	<path class="st2" d="M263,7.5c0.1-1.1,0.9-1.9,2-1.9h1.6c0.7,0,1.3,0.2,1.8,0.7l42.3,45.1h0.2V8.6c0-1.1,0.9-2,2-2h9.5
		c1.1,0,2,0.9,2,2v69.8c-0.1,1-0.9,1.9-2,1.9H321c-0.7,0-1.3-0.2-1.8-0.7l-42.5-46.9h-0.2v44.6c0,1.1-0.9,2-2,2H265
		c-1.1,0-2-0.9-2-2V7.5z"/>
	<path class="st2" d="M358.9,19.1H343c-1.1,0-2-0.9-2-2V8.6c0-1.1,0.9-2,2-2h45.4c1.1,0,2,0.9,2,2v8.5c0,1.1-0.9,2-2,2h-15.9v58.2
		c0,1.1-0.9,2-2,2h-9.6c-1.1,0-2-0.9-2-2L358.9,19.1z"/>
	<path class="st1" d="M420.9,19.1H405c-1.1,0-2-0.9-2-2V8.6c0-1.1,0.9-2,2-2h45.3c1.1,0,2,0.9,2,2v8.5c0,1.1-0.9,2-2,2h-15.9v58.2
		c0,1.1-0.9,2-2,2h-9.7c-1.1,0-2-0.9-2-2L420.9,19.1z"/>
	<path class="st1" d="M455.8,76.6L488,6.8c0.3-0.7,1-1.2,1.8-1.1h1c0.8,0,1.5,0.4,1.8,1.1l32,69.8c0.5,0.9,0.1,2-0.8,2.5
		c-0.3,0.2-0.7,0.2-1,0.2h-9c-1.6,0-2.3-0.6-3-2.1L505.8,66h-31l-5.1,11.2c-0.5,1.3-1.7,2.1-3,2.1h-9c-1,0.2-1.9-0.5-2.1-1.5
		C455.5,77.4,455.6,77,455.8,76.6z M500.6,54.5l-10.4-22.8h-0.3l-10.2,22.8H500.6z"/>
	<path class="st1" d="M538.9,8.6c0-1.1,0.9-2,2-2h9.5c1.1,0,2,0.9,2,2v58.2h26.5c1.1,0,2,0.9,2,2v8.5c0,1.1-0.9,2-2,2h-38
		c-1.1,0-2-0.9-2-2V8.6z"/>
</g>
</svg>
