<svg id="Capa_1" data-name="Capa 1" xmlns="http://www.w3.org/2000/svg" viewBox="0 0 784.18 167.99"><defs><style>.cls-1{opacity:0.6;}.cls-2{fill:none;stroke:#fff;stroke-miterlimit:3.11;}.cls-3{fill:#fff;}</style></defs><g class="cls-1"><path class="cls-2" d="M11.31,156.79c-.91-.73-1.28-1.28-.46-2.74l3.29-5.67a2.12,2.12,0,0,1,3.11-.64c3.75,2.83,7.86,5.67,13.8,5.67,4.75,0,8.32-3.11,8.32-7,0-4.66-3.93-7.86-11.61-11-8.59-3.47-17.18-9-17.18-19.74,0-8.13,6-17.55,20.56-17.55a32.08,32.08,0,0,1,18.28,6.13,2.25,2.25,0,0,1,.55,3l-3.47,5.21c-.73,1.1-2.1,1.83-3.2,1.1-3.93-2.47-7.68-5-12.71-5-5.2,0-8,2.93-8,6.4,0,4.3,3.38,7.22,10.79,10.24,8.86,3.56,19.1,8.86,19.1,20.65,0,9.42-8.14,18.1-21,18.1C19.9,163.92,14,159.07,11.31,156.79Z"/><path class="cls-2" d="M78.67,110h-14a1.74,1.74,0,0,1-1.74-1.73v-7.5A1.74,1.74,0,0,1,64.68,99h39.94a1.73,1.73,0,0,1,1.74,1.73v7.5a1.73,1.73,0,0,1-1.74,1.73h-14v51.28A1.79,1.79,0,0,1,88.9,163H80.4a1.79,1.79,0,0,1-1.73-1.73Z"/><path class="cls-2" d="M121.07,100.76A1.79,1.79,0,0,1,122.81,99h8.49a1.79,1.79,0,0,1,1.74,1.73v60.51A1.79,1.79,0,0,1,131.3,163h-8.49a1.79,1.79,0,0,1-1.74-1.73Z"/><path class="cls-2" d="M182.39,98.11a31,31,0,0,1,22.12,8.5,1.7,1.7,0,0,1,.09,2.56L199,114.93a1.47,1.47,0,0,1-2.29,0,21.62,21.62,0,0,0-14.07-5.39c-11.7,0-20.38,9.78-20.38,21.29S171.06,152,182.76,152a22,22,0,0,0,14-5.21,1.69,1.69,0,0,1,2.29,0l5.66,5.85a1.72,1.72,0,0,1-.09,2.46,31.32,31.32,0,0,1-22.21,8.87,32.91,32.91,0,1,1,0-65.81Z"/><path class="cls-2" d="M213,160.63l28.43-61.51a1.64,1.64,0,0,1,1.55-1h.92a1.55,1.55,0,0,1,1.55,1l28.15,61.51a1.61,1.61,0,0,1-1.55,2.37H264.1a2.61,2.61,0,0,1-2.65-1.82L257,151.31H229.64l-4.48,9.87a2.76,2.76,0,0,1-2.65,1.82h-7.95A1.61,1.61,0,0,1,213,160.63Zm39.49-19.47-9.14-20.11h-.28l-8.95,20.11Z"/><path class="cls-2" d="M286.12,100.76A1.73,1.73,0,0,1,287.85,99h8.41a1.79,1.79,0,0,1,1.74,1.73V152h23.31a1.73,1.73,0,0,1,1.73,1.73v7.5a1.73,1.73,0,0,1-1.73,1.73H287.85a1.73,1.73,0,0,1-1.73-1.73Z"/><path class="cls-2" d="M364.26,98.11a32.91,32.91,0,1,1-32.81,33A32.85,32.85,0,0,1,364.26,98.11Zm0,53.93a21,21,0,1,0-20.93-20.93A21.07,21.07,0,0,0,364.26,152Z"/><path class="cls-2" d="M442.58,98.11a34.58,34.58,0,0,1,22.3,8.5,1.77,1.77,0,0,1,.09,2.56l-5.67,5.94a1.56,1.56,0,0,1-2.37,0,20.74,20.74,0,0,0-13.8-5.3c-11.43,0-20.48,9.78-20.48,21.21A20.8,20.8,0,0,0,443.22,152a28.51,28.51,0,0,0,10.87-2.29v-7.77h-7.31a1.67,1.67,0,0,1-1.74-1.64V133a1.69,1.69,0,0,1,1.74-1.74h17.55A1.72,1.72,0,0,1,466,133v23.39a1.76,1.76,0,0,1-.74,1.47,46.16,46.16,0,0,1-22.66,5.94,32.86,32.86,0,0,1,0-65.72Z"/><path class="cls-2" d="M479.77,88.24,495.22,78c1.55-1,3.83,0,4.93,2.2s1.1,4.66-.46,5.39l-16.9,7.77c-1,.46-2.29-.37-3-1.74S479.13,88.7,479.77,88.24Zm3.93,12.52A1.79,1.79,0,0,1,485.44,99h8.5a1.79,1.79,0,0,1,1.73,1.73v60.51a1.79,1.79,0,0,1-1.73,1.73h-8.5a1.79,1.79,0,0,1-1.74-1.73Z"/><path class="cls-2" d="M513.13,156.79c-.92-.73-1.28-1.28-.46-2.74l3.29-5.67a2.12,2.12,0,0,1,3.11-.64c3.74,2.83,7.86,5.67,13.8,5.67,4.75,0,8.31-3.11,8.31-7,0-4.66-3.93-7.86-11.6-11-8.59-3.47-17.19-9-17.19-19.74,0-8.13,6-17.55,20.57-17.55a32.12,32.12,0,0,1,18.28,6.13,2.26,2.26,0,0,1,.55,3l-3.48,5.21c-.73,1.1-2.1,1.83-3.2,1.1-3.93-2.47-7.67-5-12.7-5-5.21,0-8,2.93-8,6.4,0,4.3,3.38,7.22,10.78,10.24,8.87,3.56,19.1,8.86,19.1,20.65,0,9.42-8.13,18.1-21,18.1C521.72,163.92,515.78,159.07,513.13,156.79Z"/><path class="cls-2" d="M580.39,110h-14a1.73,1.73,0,0,1-1.74-1.73v-7.5A1.73,1.73,0,0,1,566.41,99h39.94a1.73,1.73,0,0,1,1.73,1.73v7.5a1.73,1.73,0,0,1-1.73,1.73h-14v51.28a1.79,1.79,0,0,1-1.73,1.73h-8.5a1.79,1.79,0,0,1-1.74-1.73Z"/><path class="cls-2" d="M622.7,100.76A1.79,1.79,0,0,1,624.44,99h8.5a1.8,1.8,0,0,1,1.74,1.73v60.51a1.8,1.8,0,0,1-1.74,1.73h-8.5a1.79,1.79,0,0,1-1.74-1.73Z"/><path class="cls-2" d="M684,98.11a31,31,0,0,1,22.12,8.5,1.7,1.7,0,0,1,.09,2.56l-5.58,5.76a1.46,1.46,0,0,1-2.28,0,21.64,21.64,0,0,0-14.08-5.39c-11.7,0-20.38,9.78-20.38,21.29S672.69,152,684.39,152a22,22,0,0,0,14-5.21,1.68,1.68,0,0,1,2.28,0l5.67,5.85a1.73,1.73,0,0,1-.09,2.46A31.36,31.36,0,0,1,684,163.92a32.91,32.91,0,1,1,0-65.81Z"/><path class="cls-2" d="M714.64,160.63l28.42-61.51a1.65,1.65,0,0,1,1.56-1h.91a1.55,1.55,0,0,1,1.55,1l28.15,61.51a1.61,1.61,0,0,1-1.55,2.37h-7.95a2.62,2.62,0,0,1-2.65-1.82l-4.48-9.87H731.27l-4.48,9.87a2.74,2.74,0,0,1-2.65,1.82h-7.95A1.61,1.61,0,0,1,714.64,160.63Zm39.48-19.47L745,121.05h-.27l-9,20.11Z"/><path class="cls-3" d="M14,28.57a1.73,1.73,0,0,1,1.74-1.73h8.41a1.79,1.79,0,0,1,1.73,1.73V79.85H49.15a1.74,1.74,0,0,1,1.74,1.74v7.49a1.75,1.75,0,0,1-1.74,1.74H15.7A1.74,1.74,0,0,1,14,89.08Z"/><path class="cls-3" d="M92.1,25.92a32.91,32.91,0,1,1-32.81,33A32.85,32.85,0,0,1,92.1,25.92Zm0,53.93A21,21,0,1,0,71.17,58.92,21.06,21.06,0,0,0,92.1,79.85Z"/><path class="cls-3" d="M170.42,25.92a34.53,34.53,0,0,1,22.3,8.5,1.77,1.77,0,0,1,.09,2.56l-5.66,5.94a1.55,1.55,0,0,1-2.38,0,20.73,20.73,0,0,0-13.8-5.3c-11.43,0-20.47,9.78-20.47,21.21a20.79,20.79,0,0,0,20.56,20.93,28.62,28.62,0,0,0,10.88-2.29V69.7h-7.32a1.66,1.66,0,0,1-1.73-1.64V60.84a1.68,1.68,0,0,1,1.73-1.74h17.55a1.72,1.72,0,0,1,1.65,1.74v23.4a1.78,1.78,0,0,1-.73,1.46,46.22,46.22,0,0,1-22.67,5.94,32.86,32.86,0,0,1,0-65.72Z"/><path class="cls-3" d="M207.61,16.05,223.06,5.82c1.55-1,3.84,0,4.93,2.19s1.1,4.66-.45,5.39l-16.91,7.77c-1,.46-2.29-.36-3-1.74S207,16.51,207.61,16.05Zm3.93,12.52a1.8,1.8,0,0,1,1.74-1.73h8.5a1.8,1.8,0,0,1,1.74,1.73V89.08a1.81,1.81,0,0,1-1.74,1.74h-8.5a1.81,1.81,0,0,1-1.74-1.74Z"/><path class="cls-3" d="M240.88,84.6c-.92-.73-1.28-1.28-.46-2.74l3.29-5.67a2.12,2.12,0,0,1,3.11-.64c3.75,2.84,7.86,5.67,13.8,5.67,4.75,0,8.32-3.11,8.32-7,0-4.66-3.93-7.86-11.61-11-8.59-3.47-17.18-9-17.18-19.74,0-8.13,6-17.55,20.56-17.55A32.19,32.19,0,0,1,279,32.05a2.26,2.26,0,0,1,.55,3l-3.47,5.21c-.73,1.1-2.11,1.83-3.2,1.1-3.93-2.47-7.68-5-12.71-5-5.21,0-8,2.93-8,6.4,0,4.3,3.38,7.22,10.79,10.24,8.86,3.56,19.1,8.86,19.1,20.65,0,9.42-8.14,18.1-21,18.1C249.47,91.73,243.53,86.89,240.88,84.6Z"/><path class="cls-3" d="M308.23,37.81h-14a1.74,1.74,0,0,1-1.74-1.74v-7.5a1.73,1.73,0,0,1,1.74-1.73h39.94a1.73,1.73,0,0,1,1.74,1.73v7.5a1.74,1.74,0,0,1-1.74,1.74h-14V89.08a1.81,1.81,0,0,1-1.74,1.74H310a1.81,1.81,0,0,1-1.74-1.74Z"/><path class="cls-3" d="M350.55,28.57a1.79,1.79,0,0,1,1.73-1.73h8.5a1.79,1.79,0,0,1,1.74,1.73V89.08a1.8,1.8,0,0,1-1.74,1.74h-8.5a1.8,1.8,0,0,1-1.73-1.74Z"/><path class="cls-3" d="M411.87,25.92A31,31,0,0,1,434,34.42a1.7,1.7,0,0,1,.09,2.56l-5.58,5.76a1.46,1.46,0,0,1-2.28,0,21.64,21.64,0,0,0-14.08-5.39c-11.69,0-20.38,9.78-20.38,21.29s8.78,21.12,20.48,21.12a21.92,21.92,0,0,0,14-5.21,1.68,1.68,0,0,1,2.28,0l5.67,5.85a1.74,1.74,0,0,1-.09,2.47,31.39,31.39,0,0,1-22.21,8.86,32.91,32.91,0,1,1,0-65.81Z"/><path class="cls-3" d="M442.48,88.44l28.43-61.51a1.64,1.64,0,0,1,1.55-1h.91a1.56,1.56,0,0,1,1.56,1l28.15,61.51a1.62,1.62,0,0,1-1.56,2.38h-7.95A2.63,2.63,0,0,1,490.92,89l-4.48-9.87H459.12L454.64,89A2.77,2.77,0,0,1,452,90.82H444A1.62,1.62,0,0,1,442.48,88.44ZM482,69l-9.14-20.11h-.28l-9,20.11Z"/><path class="cls-2" d="M515.87,28.57a1.73,1.73,0,0,1,1.74-1.73H526a1.8,1.8,0,0,1,1.74,1.73V79.85h23.3a1.73,1.73,0,0,1,1.74,1.74v7.49a1.74,1.74,0,0,1-1.74,1.74H517.61a1.74,1.74,0,0,1-1.74-1.74Z"/><path class="cls-2" d="M594,25.92a32.91,32.91,0,1,1-32.81,33A32.85,32.85,0,0,1,594,25.92Zm0,53.93a21,21,0,1,0-20.93-20.93A21.06,21.06,0,0,0,594,79.85Z"/><path class="cls-2" d="M672.33,25.92a34.58,34.58,0,0,1,22.31,8.5,1.77,1.77,0,0,1,.09,2.56l-5.67,5.94a1.55,1.55,0,0,1-2.38,0,20.73,20.73,0,0,0-13.8-5.3c-11.42,0-20.47,9.78-20.47,21.21A20.79,20.79,0,0,0,673,79.76a28.62,28.62,0,0,0,10.88-2.29V69.7h-7.31a1.66,1.66,0,0,1-1.74-1.64V60.84a1.68,1.68,0,0,1,1.74-1.74h17.55a1.72,1.72,0,0,1,1.64,1.74v23.4A1.75,1.75,0,0,1,695,85.7a46.17,46.17,0,0,1-22.67,5.94,32.86,32.86,0,0,1,0-65.72Z"/><path class="cls-2" d="M709.53,16.05,725,5.82c1.56-1,3.84,0,4.94,2.19s1.09,4.66-.46,5.39l-16.91,7.77c-1,.46-2.28-.36-3-1.74S708.89,16.51,709.53,16.05Zm3.93,12.52a1.79,1.79,0,0,1,1.73-1.73h8.5a1.79,1.79,0,0,1,1.74,1.73V89.08a1.8,1.8,0,0,1-1.74,1.74h-8.5a1.8,1.8,0,0,1-1.73-1.74Z"/><path class="cls-2" d="M742.79,84.6c-.91-.73-1.28-1.28-.46-2.74l3.3-5.67a2.11,2.11,0,0,1,3.1-.64c3.75,2.84,7.86,5.67,13.8,5.67,4.76,0,8.32-3.11,8.32-7,0-4.66-3.93-7.86-11.61-11-8.59-3.47-17.18-9-17.18-19.74,0-8.13,6-17.55,20.57-17.55a32.12,32.12,0,0,1,18.27,6.13,2.25,2.25,0,0,1,.55,3L778,40.27c-.73,1.1-2.1,1.83-3.2,1.1-3.93-2.47-7.68-5-12.7-5-5.21,0-8.05,2.93-8.05,6.4C754,47,757.42,50,764.82,53c8.86,3.56,19.1,8.86,19.1,20.65,0,9.42-8.13,18.1-21,18.1C751.38,91.73,745.44,86.89,742.79,84.6Z"/></g></svg>