<?xml version="1.0" encoding="utf-8"?>
<!-- Generator: Adobe Illustrator 25.4.1, SVG Export Plug-In . SVG Version: 6.00 Build 0)  -->
<svg version="1.1" id="Capa_1" xmlns="http://www.w3.org/2000/svg" xmlns:xlink="http://www.w3.org/1999/xlink" x="0px" y="0px"
	 viewBox="0 0 811.2 168" style="enable-background:new 0 0 811.2 168;" xml:space="preserve">
<style type="text/css">
	.st0{opacity:0.6;}
	.st1{fill:#FFFFFF;}
</style>
<g class="st0">
	<path class="st1" d="M19.8,23.3H6c-1,0-1.7-0.8-1.7-1.7v-7.4c0-0.9,0.7-1.7,1.7-1.7h39.2c1,0,1.7,0.8,1.7,1.7v7.4
		c0,0.9-0.7,1.7-1.7,1.7H31.5v50.4c0,0.9-0.8,1.7-1.7,1.7h-8.3c-0.9,0-1.7-0.8-1.7-1.7V23.3z"/>
	<path class="st1" d="M56.9,14.3c0-0.9,0.7-1.7,1.7-1.7h36.5c1,0,1.7,0.8,1.7,1.7v7.4c0,0.9-0.7,1.7-1.7,1.7H68.6v14.7h22.2
		c0.9,0,1.7,0.8,1.7,1.7v7.5c0,1-0.8,1.7-1.7,1.7H68.6v15.7h26.6c1,0,1.7,0.8,1.7,1.7v7.4c0,0.9-0.7,1.7-1.7,1.7H58.6
		c-1,0-1.7-0.8-1.7-1.7V14.3z"/>
	<path class="st1" d="M136.4,11.7c9.1,0,15.6,2.9,21.7,8.3c0.8,0.7,0.8,1.8,0.1,2.5l-5.5,5.7c-0.6,0.7-1.5,0.7-2.2,0
		c-3.8-3.3-8.8-5.3-13.8-5.3c-11.5,0-20,9.6-20,20.9c0,11.2,8.6,20.7,20.1,20.7c5.4,0,10-2.1,13.7-5.1c0.7-0.6,1.7-0.5,2.2,0
		l5.6,5.7c0.7,0.6,0.5,1.8-0.1,2.4c-6.1,5.9-13.8,8.7-21.8,8.7c-18,0-32.4-14.3-32.4-32.2S118.4,11.7,136.4,11.7z"/>
	<path class="st1" d="M169.4,14.3c0-0.9,0.8-1.7,1.7-1.7h8.3c1,0,1.7,0.8,1.7,1.7v23.8h29.3V14.3c0-0.9,0.7-1.7,1.7-1.7h8.3
		c0.9,0,1.7,0.8,1.7,1.7v59.4c0,0.9-0.8,1.7-1.7,1.7h-8.3c-1,0-1.7-0.8-1.7-1.7V48.9h-29.3v24.8c0,0.9-0.7,1.7-1.7,1.7h-8.3
		c-0.9,0-1.7-0.8-1.7-1.7V14.3z"/>
	<path class="st1" d="M237.4,13.3c0-0.9,0.8-1.6,1.7-1.6h1.3c0.6,0,1.1,0.2,1.5,0.6l36.6,39.1h0.2V14.3c0-0.9,0.7-1.7,1.7-1.7h8.3
		c0.9,0,1.7,0.8,1.7,1.7v60.4c0,0.9-0.8,1.6-1.7,1.6h-1.3c-0.6,0-1.1-0.2-1.5-0.6l-36.8-40.6H249v38.6c0,0.9-0.7,1.7-1.7,1.7h-8.2
		c-0.9,0-1.7-0.8-1.7-1.7V13.3z"/>
	<path class="st1" d="M334.3,11.7c18,0,32.3,14.5,32.3,32.4s-14.4,32.2-32.3,32.2S302,62,302,44.1S316.3,11.7,334.3,11.7z
		 M334.3,64.6c11.3,0,20.6-9.2,20.6-20.6c0-11.3-9.3-20.7-20.6-20.7c-11.3,0-20.6,9.4-20.6,20.7C313.7,55.4,322.9,64.6,334.3,64.6z"
		/>
	<path class="st1" d="M378.2,14.3c0-0.9,0.7-1.7,1.7-1.7h8.3c0.9,0,1.7,0.8,1.7,1.7v50.4h22.9c1,0,1.7,0.8,1.7,1.7v7.4
		c0,0.9-0.7,1.7-1.7,1.7h-32.9c-1,0-1.7-0.8-1.7-1.7V14.3z"/>
	<path class="st1" d="M450.4,11.7c18,0,32.3,14.5,32.3,32.4s-14.4,32.2-32.3,32.2c-18,0-32.2-14.3-32.2-32.2S432.5,11.7,450.4,11.7z
		 M450.4,64.6c11.3,0,20.6-9.2,20.6-20.6c0-11.3-9.3-20.7-20.6-20.7s-20.6,9.4-20.6,20.7C429.9,55.4,439.1,64.6,450.4,64.6z"/>
	<path class="st1" d="M522.9,11.7c8.1,0,15.8,3.1,21.9,8.3c0.7,0.7,0.8,1.8,0.1,2.5l-5.6,5.8c-0.7,0.7-1.5,0.7-2.3,0
		c-3.9-3.4-8.6-5.2-13.6-5.2c-11.2,0-20.1,9.6-20.1,20.8c0,11.1,8.9,20.6,20.2,20.6c5,0,8.9-1.5,10.7-2.2v-7.6H527
		c-1,0-1.7-0.7-1.7-1.6V46c0-1,0.7-1.7,1.7-1.7h17.2c0.9,0,1.6,0.8,1.6,1.7v23c0,0.7-0.4,1.2-0.7,1.4c0,0-9.2,5.8-22.3,5.8
		c-17.9,0-32.2-14.2-32.2-32.1S505,11.7,522.9,11.7z"/>
	<path class="st1" d="M571.1,45.2l-20.5-30c-0.7-1.2,0-2.6,1.4-2.6h9.2c0.7,0,1.2,0.4,1.4,0.8L577,34l14.4-20.7
		c0.3-0.4,0.7-0.8,1.4-0.8h9.2c1.4,0,2.2,1.4,1.4,2.6l-20.7,29.9v28.6c0,0.9-0.8,1.7-1.7,1.7h-8.3c-1,0-1.7-0.8-1.7-1.7V45.2z"/>
	<path class="st1" d="M631.4,75.9h-8.4c-1.2,0-2.2-1-2.2-2.2V23.8h-13.2c-1.2,0-2.2-1-2.2-2.2v-7.4c0-1.2,1-2.2,2.2-2.2h39.2
		c1.2,0,2.2,1,2.2,2.2v7.4c0,1.2-1,2.2-2.2,2.2h-13.2v49.9C633.6,74.9,632.6,75.9,631.4,75.9z M607.6,13.1c-0.7,0-1.2,0.6-1.2,1.2
		v7.4c0,0.6,0.5,1.2,1.2,1.2h14.2v50.9c0,0.6,0.6,1.2,1.2,1.2h8.4c0.6,0,1.2-0.6,1.2-1.2V22.8h14.2c0.7,0,1.2-0.6,1.2-1.2v-7.4
		c0-0.6-0.5-1.2-1.2-1.2H607.6z"/>
	<path class="st1" d="M696.8,75.9h-36.5c-1.2,0-2.2-1-2.2-2.2V14.3c0-1.2,1-2.2,2.2-2.2h36.5c1.2,0,2.2,1,2.2,2.2v7.4
		c0,1.2-1,2.2-2.2,2.2h-26.1v13.7h21.7c1.2,0,2.2,1,2.2,2.2v7.5c0,1.2-1,2.2-2.2,2.2h-21.7v14.7h26.1c1.2,0,2.2,1,2.2,2.2v7.4
		C699,74.9,698,75.9,696.8,75.9z M660.2,13.1c-0.7,0-1.2,0.6-1.2,1.2v59.4c0,0.6,0.5,1.2,1.2,1.2h36.5c0.7,0,1.2-0.6,1.2-1.2v-7.4
		c0-0.6-0.5-1.2-1.2-1.2h-27.1V48.4h22.7c0.6,0,1.2-0.5,1.2-1.2v-7.5c0-0.6-0.6-1.2-1.2-1.2h-22.7V22.8h27.1c0.7,0,1.2-0.6,1.2-1.2
		v-7.4c0-0.6-0.5-1.2-1.2-1.2H660.2z"/>
	<path class="st1" d="M738,76.8c-18.1,0-32.9-14.7-32.9-32.7c0-18.1,14.8-32.9,32.9-32.9c8.7,0,15.5,2.6,22.1,8.5
		c0.5,0.4,0.8,1,0.8,1.6c0,0.6-0.2,1.2-0.7,1.6l-5.5,5.7c-0.4,0.4-0.9,0.7-1.4,0.7c-0.5,0-1.1-0.2-1.6-0.7
		c-3.7-3.3-8.6-5.2-13.5-5.2c-10.9,0-19.5,9-19.5,20.4c0,11.3,8.6,20.2,19.6,20.2c4.8,0,9.3-1.7,13.4-5c0.9-0.7,2.1-0.7,2.9,0
		l5.6,5.8c0.4,0.3,0.6,0.8,0.6,1.4c0,0.6-0.2,1.3-0.7,1.8C754.2,73.8,746.5,76.8,738,76.8z M738,12.2c-17.6,0-31.9,14.3-31.9,31.9
		c0,17.5,14.3,31.7,31.9,31.7c8.3,0,15.7-3,21.5-8.6c0.3-0.3,0.4-0.7,0.4-1c0-0.2-0.1-0.5-0.3-0.7l-5.6-5.8c-0.3-0.3-1-0.4-1.6,0
		c-4.3,3.5-9,5.2-14.1,5.2c-11.6,0-20.6-9.3-20.6-21.2c0-12,9-21.4,20.5-21.4c5.1,0,10.2,2,14.2,5.4c0.3,0.3,0.6,0.4,0.9,0.4
		c0.2,0,0.5-0.1,0.7-0.4l5.5-5.7c0.3-0.3,0.4-0.6,0.4-0.9c0-0.3-0.2-0.6-0.4-0.9C753,14.7,746.4,12.2,738,12.2z"/>
	<path class="st1" d="M822,75.9h-8.3c-1.2,0-2.2-1-2.2-2.2V49.4h-28.3v24.3c0,1.2-1,2.2-2.2,2.2h-8.3c-1.2,0-2.2-1-2.2-2.2V14.3
		c0-1.2,1-2.2,2.2-2.2h8.3c1.2,0,2.2,1,2.2,2.2v23.3h28.3V14.3c0-1.2,1-2.2,2.2-2.2h8.3c1.2,0,2.2,1,2.2,2.2v59.4
		C824.2,74.9,823.2,75.9,822,75.9z M782.3,48.4h30.3v25.3c0,0.6,0.5,1.2,1.2,1.2h8.3c0.6,0,1.2-0.6,1.2-1.2V14.3
		c0-0.6-0.6-1.2-1.2-1.2h-8.3c-0.7,0-1.2,0.6-1.2,1.2v24.3h-30.3V14.3c0-0.6-0.5-1.2-1.2-1.2h-8.3c-0.6,0-1.2,0.6-1.2,1.2v59.4
		c0,0.6,0.6,1.2,1.2,1.2h8.3c0.7,0,1.2-0.6,1.2-1.2V48.4z"/>
	<path class="st1" d="M61,156.8h-1.3c-0.8,0-1.3-0.2-1.9-0.8l-36.1-39.8v37.5c0,1.2-1,2.2-2.2,2.2h-8.2c-1.2,0-2.2-1-2.2-2.2V93.3
		c0-1.1,1-2.1,2.2-2.1h1.3c0.8,0,1.3,0.2,1.9,0.8l36,38.3v-36c0-1.2,1-2.2,2.2-2.2H61c1.2,0,2.2,1,2.2,2.2v60.4
		C63.2,155.8,62.2,156.8,61,156.8z M20.7,114.6h0.9l0.1,0.2l36.8,40.6c0.3,0.3,0.7,0.5,1.2,0.5H61c0.6,0,1.2-0.5,1.2-1.1V94.3
		c0-0.6-0.6-1.2-1.2-1.2h-8.3c-0.7,0-1.2,0.6-1.2,1.2v37.6h-0.9L13.8,92.6c-0.3-0.3-0.7-0.5-1.2-0.5h-1.3c-0.6,0-1.2,0.5-1.2,1.1
		v60.4c0,0.6,0.6,1.2,1.2,1.2h8.2c0.7,0,1.2-0.6,1.2-1.2V114.6z"/>
	<path class="st1" d="M106.5,156.8c-18.4,0-32.7-14.4-32.7-32.7c0-18.1,14.7-32.9,32.7-32.9c18.1,0,32.8,14.8,32.8,32.9
		C139.3,142.4,124.9,156.8,106.5,156.8z M106.5,92.2c-17.5,0-31.7,14.3-31.7,31.9c0,17.8,13.9,31.7,31.7,31.7
		c17.8,0,31.8-13.9,31.8-31.7C138.3,106.5,124,92.2,106.5,92.2z M106.5,145.1c-11.6,0-21.1-9.4-21.1-21.1c0-11.7,9.4-21.2,21.1-21.2
		c11.7,0,21.1,9.5,21.1,21.2C127.7,135.7,118.2,145.1,106.5,145.1z M106.5,103.8c-11.1,0-20.1,9.1-20.1,20.2
		c0,11.1,9,20.1,20.1,20.1c11.1,0,20.1-9,20.1-20.1C126.7,113.1,117.4,103.8,106.5,103.8z"/>
	<path class="st1" d="M185,155.9h-32.9c-1.2,0-2.2-1-2.2-2.2V94.3c0-1.2,1-2.2,2.2-2.2h8.3c1.2,0,2.2,1,2.2,2.2v49.9H185
		c1.2,0,2.2,1,2.2,2.2v7.4C187.2,154.9,186.2,155.9,185,155.9z M152.1,93.1c-0.7,0-1.2,0.6-1.2,1.2v59.4c0,0.6,0.5,1.2,1.2,1.2H185
		c0.7,0,1.2-0.6,1.2-1.2v-7.4c0-0.6-0.5-1.2-1.2-1.2h-23.4V94.3c0-0.6-0.6-1.2-1.2-1.2H152.1z"/>
	<path class="st1" d="M222.7,156.8c-18.4,0-32.7-14.4-32.7-32.7c0-18.1,14.7-32.9,32.7-32.9c18.1,0,32.8,14.8,32.8,32.9
		C255.5,142.4,241.1,156.8,222.7,156.8z M222.7,92.2c-17.5,0-31.7,14.3-31.7,31.9c0,17.8,13.9,31.7,31.7,31.7
		c17.8,0,31.8-13.9,31.8-31.7C254.5,106.5,240.2,92.2,222.7,92.2z M222.7,145.1c-11.6,0-21.1-9.4-21.1-21.1
		c0-11.7,9.4-21.2,21.1-21.2c11.7,0,21.1,9.5,21.1,21.2C243.8,135.7,234.3,145.1,222.7,145.1z M222.7,103.8
		c-11.1,0-20.1,9.1-20.1,20.2c0,11.1,9,20.1,20.1,20.1c11.1,0,20.1-9,20.1-20.1C242.8,113.1,233.6,103.8,222.7,103.8z"/>
	<path class="st1" d="M295.1,156.7c-18.4,0-32.7-14.3-32.7-32.6c0-18.1,14.7-32.9,32.7-32.9c7.9,0,15.8,3,22.2,8.5
		c1,1,1,2.4,0.1,3.2l-5.6,5.8c-0.9,0.9-2,0.9-3,0c-3.8-3.3-8.3-5.1-13.2-5.1c-10.8,0-19.6,9.1-19.6,20.3c0,11.1,8.8,20.1,19.7,20.1
		c4.7,0,8.4-1.4,10.2-2.1v-6.8h-6.7c-1.2,0-2.2-0.9-2.2-2.1V126c0-1.3,0.9-2.2,2.2-2.2h17.2c1.1,0,2.1,1,2.1,2.2v23
		c0,0.8-0.3,1.4-0.9,1.8C317.6,150.9,308.1,156.7,295.1,156.7z M295.1,92.2c-17.5,0-31.7,14.3-31.7,31.9c0,17.7,13.9,31.6,31.7,31.6
		c12.7,0,21.9-5.7,22-5.8c0.3-0.2,0.5-0.6,0.5-1v-23c0-0.6-0.5-1.2-1.1-1.2h-17.2c-0.7,0-1.2,0.5-1.2,1.2v7.1c0,0.6,0.5,1.1,1.2,1.1
		h7.7v8.5l-0.3,0.1c-1.7,0.7-5.7,2.3-10.9,2.3c-11.4,0-20.7-9.4-20.7-21.1c0-11.8,9.2-21.3,20.6-21.3c5.1,0,9.9,1.8,13.9,5.3
		c0.6,0.5,1.1,0.5,1.6,0l5.6-5.8c0.5-0.5,0.5-1.3-0.1-1.8C310.5,95.1,302.8,92.2,295.1,92.2z"/>
	<path class="st1" d="M353.3,155.9H345c-1.2,0-2.2-1-2.2-2.2v-28.4l-20.4-29.9c-0.5-0.7-0.5-1.6-0.1-2.3c0.4-0.7,1.1-1.1,1.9-1.1
		h9.2c0.7,0,1.3,0.3,1.8,1l14,20.1l14-20.1c0.5-0.7,1.1-1,1.8-1h9.2c0.8,0,1.6,0.4,1.9,1.1c0.4,0.7,0.4,1.5-0.1,2.3l-20.7,29.8v28.5
		C355.5,154.9,354.5,155.9,353.3,155.9z M324.3,93.1c-0.5,0-0.9,0.2-1.1,0.6c-0.2,0.4-0.2,0.9,0.1,1.3l20.5,30.1v28.7
		c0,0.6,0.5,1.2,1.2,1.2h8.3c0.6,0,1.2-0.6,1.2-1.2v-28.8l20.8-30c0.2-0.4,0.3-0.9,0-1.2c-0.2-0.4-0.6-0.6-1.1-0.6h-9.2
		c-0.4,0-0.7,0.2-1,0.6l-14.8,21.2l-14.8-21.2c-0.3-0.4-0.6-0.6-1-0.6H324.3z"/>
	<path class="st1" d="M403.7,155.9h-8.3c-1.2,0-2.2-1-2.2-2.2v-49.9h-13.2c-1.2,0-2.2-1-2.2-2.2v-7.4c0-1.2,1-2.2,2.2-2.2h39.2
		c1.2,0,2.2,1,2.2,2.2v7.4c0,1.2-1,2.2-2.2,2.2h-13.2v49.9C405.9,154.9,404.8,155.9,403.7,155.9z M379.9,93.1
		c-0.7,0-1.2,0.6-1.2,1.2v7.4c0,0.6,0.5,1.2,1.2,1.2h14.2v50.9c0,0.6,0.6,1.2,1.2,1.2h8.3c0.6,0,1.2-0.6,1.2-1.2v-50.9h14.2
		c0.7,0,1.2-0.6,1.2-1.2v-7.4c0-0.6-0.5-1.2-1.2-1.2H379.9z"/>
	<path class="st1" d="M469,155.9h-36.5c-1.2,0-2.2-1-2.2-2.2V94.3c0-1.2,1-2.2,2.2-2.2H469c1.2,0,2.2,1,2.2,2.2v7.4
		c0,1.2-1,2.2-2.2,2.2h-26.1v13.7h21.7c1.2,0,2.2,1,2.2,2.2v7.5c0,1.2-1,2.2-2.2,2.2h-21.7v14.7H469c1.2,0,2.2,1,2.2,2.2v7.4
		C471.2,154.9,470.2,155.9,469,155.9z M432.5,93.1c-0.7,0-1.2,0.6-1.2,1.2v59.4c0,0.6,0.5,1.2,1.2,1.2H469c0.7,0,1.2-0.6,1.2-1.2
		v-7.4c0-0.6-0.5-1.2-1.2-1.2h-27.1v-16.7h22.7c0.6,0,1.2-0.5,1.2-1.2v-7.5c0-0.6-0.6-1.2-1.2-1.2h-22.7v-15.7H469
		c0.7,0,1.2-0.6,1.2-1.2v-7.4c0-0.6-0.5-1.2-1.2-1.2H432.5z"/>
	<path class="st1" d="M510.2,156.8c-18.1,0-32.9-14.7-32.9-32.7c0-18.1,14.8-32.9,32.9-32.9c8.7,0,15.5,2.6,22.1,8.5
		c0.5,0.4,0.8,1,0.8,1.6c0,0.6-0.2,1.2-0.7,1.6l-5.5,5.7c-0.4,0.4-0.9,0.7-1.4,0.7c-0.5,0-1.1-0.2-1.6-0.7
		c-3.7-3.3-8.6-5.2-13.5-5.2c-10.9,0-19.5,9-19.5,20.4c0,11.3,8.6,20.2,19.6,20.2c4.8,0,9.3-1.7,13.4-5c0.9-0.8,2.1-0.7,2.9,0
		l5.6,5.8c0.4,0.3,0.6,0.8,0.6,1.4c0,0.6-0.2,1.3-0.7,1.8C526.4,153.8,518.8,156.8,510.2,156.8z M510.2,92.2
		c-17.6,0-31.9,14.3-31.9,31.9c0,17.5,14.3,31.7,31.9,31.7c8.3,0,15.7-3,21.5-8.6c0.3-0.3,0.4-0.7,0.4-1c0-0.2-0.1-0.5-0.3-0.7
		l-5.6-5.8c-0.3-0.3-1-0.4-1.6,0c-4.3,3.5-9,5.2-14.1,5.2c-11.6,0-20.6-9.3-20.6-21.2c0-12,9-21.4,20.5-21.4c5.1,0,10.2,2,14.2,5.4
		c0.3,0.3,0.6,0.4,0.9,0.4c0.2,0,0.5-0.1,0.7-0.4l5.5-5.7c0.3-0.3,0.4-0.6,0.4-0.9c0-0.3-0.2-0.6-0.4-0.9
		C525.3,94.7,518.7,92.2,510.2,92.2z"/>
	<path class="st1" d="M594.3,155.9H586c-1.2,0-2.2-1-2.2-2.2v-24.3h-28.3v24.3c0,1.2-1,2.2-2.2,2.2H545c-1.2,0-2.2-1-2.2-2.2V94.3
		c0-1.2,1-2.2,2.2-2.2h8.4c1.2,0,2.2,1,2.2,2.2v23.3h28.3V94.3c0-1.2,1-2.2,2.2-2.2h8.3c1.2,0,2.2,1,2.2,2.2v59.4
		C596.5,154.9,595.4,155.9,594.3,155.9z M554.5,128.4h30.3v25.3c0,0.6,0.5,1.2,1.2,1.2h8.3c0.6,0,1.2-0.6,1.2-1.2V94.3
		c0-0.6-0.6-1.2-1.2-1.2H586c-0.7,0-1.2,0.6-1.2,1.2v24.3h-30.3V94.3c0-0.6-0.5-1.2-1.2-1.2H545c-0.6,0-1.2,0.6-1.2,1.2v59.4
		c0,0.6,0.6,1.2,1.2,1.2h8.4c0.7,0,1.2-0.6,1.2-1.2V128.4z"/>
	<path class="st1" d="M662.6,156.8h-1.3c-0.8,0-1.3-0.2-1.9-0.8l-36.1-39.8v37.5c0,1.2-1,2.2-2.2,2.2h-8.2c-1.2,0-2.2-1-2.2-2.2
		V93.3c0-1.1,1-2.1,2.2-2.1h1.3c0.8,0,1.3,0.2,1.9,0.8l36,38.3v-36c0-1.2,1-2.2,2.2-2.2h8.3c1.2,0,2.2,1,2.2,2.2v60.4
		C664.8,155.8,663.8,156.8,662.6,156.8z M622.3,114.6h0.9l0.1,0.2l36.8,40.6c0.3,0.3,0.7,0.5,1.2,0.5h1.3c0.6,0,1.2-0.5,1.2-1.1
		V94.3c0-0.6-0.6-1.2-1.2-1.2h-8.3c-0.7,0-1.2,0.6-1.2,1.2v37.6h-0.9l-0.1-0.2l-36.6-39.1c-0.3-0.3-0.7-0.5-1.2-0.5h-1.3
		c-0.6,0-1.2,0.5-1.2,1.1v60.4c0,0.6,0.6,1.2,1.2,1.2h8.2c0.7,0,1.2-0.6,1.2-1.2V114.6z"/>
	<path class="st1" d="M708.1,156.8c-18.4,0-32.7-14.4-32.7-32.7c0-18.1,14.7-32.9,32.7-32.9c18.1,0,32.8,14.8,32.8,32.9
		C740.9,142.4,726.5,156.8,708.1,156.8z M708.1,92.2c-17.5,0-31.7,14.3-31.7,31.9c0,17.8,13.9,31.7,31.7,31.7
		c17.8,0,31.8-13.9,31.8-31.7C739.9,106.5,725.6,92.2,708.1,92.2z M708.1,145.1c-11.6,0-21.1-9.4-21.1-21.1
		c0-11.7,9.4-21.2,21.1-21.2c11.7,0,21.1,9.5,21.1,21.2C729.2,135.7,719.7,145.1,708.1,145.1z M708.1,103.8
		c-11.1,0-20.1,9.1-20.1,20.2c0,11.1,9,20.1,20.1,20.1c11.1,0,20.1-9,20.1-20.1C728.2,113.1,719,103.8,708.1,103.8z"/>
	<path class="st1" d="M786.6,155.9h-32.9c-1.2,0-2.2-1-2.2-2.2V94.3c0-1.2,1-2.2,2.2-2.2h8.3c1.2,0,2.2,1,2.2,2.2v49.9h22.4
		c1.2,0,2.2,1,2.2,2.2v7.4C788.8,154.9,787.8,155.9,786.6,155.9z M753.7,93.1c-0.7,0-1.2,0.6-1.2,1.2v59.4c0,0.6,0.5,1.2,1.2,1.2
		h32.9c0.7,0,1.2-0.6,1.2-1.2v-7.4c0-0.6-0.5-1.2-1.2-1.2h-23.4V94.3c0-0.6-0.6-1.2-1.2-1.2H753.7z"/>
	<path class="st1" d="M824.3,156.8c-18.4,0-32.7-14.4-32.7-32.7c0-18.1,14.7-32.9,32.7-32.9c18.1,0,32.8,14.8,32.8,32.9
		C857.1,142.4,842.7,156.8,824.3,156.8z M824.3,92.2c-17.5,0-31.7,14.3-31.7,31.9c0,17.8,13.9,31.7,31.7,31.7
		c17.8,0,31.8-13.9,31.8-31.7C856.1,106.5,841.8,92.2,824.3,92.2z M824.3,145.1c-11.6,0-21.1-9.4-21.1-21.1
		c0-11.7,9.4-21.2,21.1-21.2c11.7,0,21.1,9.5,21.1,21.2C845.4,135.7,835.9,145.1,824.3,145.1z M824.3,103.8
		c-11.1,0-20.1,9.1-20.1,20.2c0,11.1,9,20.1,20.1,20.1c11.1,0,20.1-9,20.1-20.1C844.4,113.1,835.2,103.8,824.3,103.8z"/>
</g>
</svg>
