<?xml version="1.0" encoding="utf-8"?>
<!-- Generator: Adobe Illustrator 25.4.1, SVG Export Plug-In . SVG Version: 6.00 Build 0)  -->
<svg version="1.1" id="Capa_1" xmlns="http://www.w3.org/2000/svg" xmlns:xlink="http://www.w3.org/1999/xlink" x="0px" y="0px"
	 viewBox="0 0 784.2 168" style="enable-background:new 0 0 784.2 168;" xml:space="preserve">
<style type="text/css">
	.st0{opacity:0.6;}
	.st1{fill:none;stroke:#FFFFFF;stroke-miterlimit:3.11;}
	.st2{fill:#FFFFFF;}
</style>
<g class="st0">
	<path class="st1" d="M11.3,145.8c-0.9-0.7-1.3-1.3-0.5-2.7l3.3-5.7c0.6-1,1.9-1.4,2.9-0.8c0.1,0,0.1,0.1,0.2,0.1
		c3.8,2.8,7.9,5.7,13.8,5.7c4.8,0,8.3-3.1,8.3-7c0-4.7-3.9-7.9-11.6-11c-8.6-3.5-17.2-9-17.2-19.7c0-8.1,6-17.5,20.6-17.5
		c6.6,0.1,13,2.3,18.3,6.1c0.9,0.7,1.2,2,0.5,3l-3.5,5.2c-0.7,1.1-2.1,1.8-3.2,1.1c-3.9-2.5-7.7-5-12.7-5c-5.2,0-8,2.9-8,6.4
		c0,4.3,3.4,7.2,10.8,10.2c8.9,3.6,19.1,8.9,19.1,20.7c0,9.4-8.1,18.1-21,18.1C19.9,153,14,148.1,11.3,145.8z"/>
	<path class="st1" d="M78.7,99.1h-14c-1,0-1.7-0.8-1.7-1.7v-7.5c0-1,0.7-1.8,1.7-1.8c0,0,0,0,0,0h39.9c1,0,1.7,0.8,1.7,1.7
		c0,0,0,0,0,0v7.5c0,1-0.8,1.7-1.7,1.7c0,0,0,0,0,0h-14v51.3c0,1-0.8,1.7-1.7,1.8h-8.5c-0.9,0-1.7-0.8-1.7-1.7V99.1z"/>
	<path class="st1" d="M121.1,89.8c0-1,0.8-1.7,1.7-1.8h8.5c0.9,0,1.7,0.8,1.7,1.7v60.5c0,1-0.8,1.7-1.7,1.8h-8.5
		c-0.9,0-1.7-0.8-1.7-1.7L121.1,89.8z"/>
	<path class="st1" d="M182.4,87.2c8.2-0.2,16.2,2.8,22.1,8.5c0.7,0.6,0.8,1.7,0.2,2.4c0,0.1-0.1,0.1-0.2,0.2L199,104
		c-0.5,0.6-1.4,0.7-2.1,0.2c-0.1-0.1-0.2-0.1-0.2-0.2c-3.9-3.4-8.9-5.3-14.1-5.4c-11.7,0-20.4,9.8-20.4,21.3s8.8,21.2,20.5,21.2
		c5.1-0.1,10.1-1.9,14-5.2c0.6-0.6,1.6-0.6,2.3,0l5.7,5.9c0.7,0.7,0.6,1.8-0.1,2.4c0,0,0,0,0,0c-5.9,5.8-13.9,9-22.2,8.9
		c-18.2,0.3-33.2-14.2-33.5-32.3s14.2-33.2,32.3-33.5C181.6,87.2,182,87.2,182.4,87.2L182.4,87.2z"/>
	<path class="st1" d="M277.1,89.8c0-1,0.7-1.7,1.7-1.8c0,0,0,0,0,0h8.4c0.9,0,1.7,0.8,1.7,1.7v51.3h23.3c1,0,1.7,0.8,1.7,1.7l0,0
		v7.5c0,1-0.8,1.7-1.7,1.7l0,0h-33.5c-1,0-1.7-0.8-1.7-1.7l0,0V89.8z"/>
	<path class="st1" d="M765.7,89.8c0-1,0.7-1.7,1.7-1.8c0,0,0,0,0,0h8.4c0.9,0,1.7,0.8,1.7,1.7v51.3h23.3c1,0,1.7,0.8,1.7,1.7l0,0
		v7.5c0,1-0.8,1.7-1.7,1.7l0,0h-33.5c-1,0-1.7-0.8-1.7-1.7l0,0V89.8z"/>
	<path class="st1" d="M355.3,87.2c18.2-0.1,33,14.6,33,32.8c0.1,18.2-14.6,33-32.8,33c-18.2,0.1-33-14.6-33-32.8c0,0,0,0,0,0
		c-0.1-18.1,14.6-32.9,32.7-33C355.2,87.2,355.2,87.2,355.3,87.2z M355.3,141.1c11.6,0,21-9.3,21.1-20.9c0-11.6-9.3-21-20.9-21.1
		c-11.6,0-21,9.3-21.1,20.9c0,0,0,0.1,0,0.1C334.4,131.7,343.7,141,355.3,141.1L355.3,141.1z"/>
	<path class="st1" d="M433.6,87.2c8.2,0.1,16.1,3.1,22.3,8.5c0.7,0.6,0.8,1.8,0.1,2.5c0,0,0,0-0.1,0.1l-5.7,5.9
		c-0.6,0.7-1.5,0.7-2.2,0.2c-0.1-0.1-0.1-0.1-0.2-0.2c-3.8-3.4-8.7-5.3-13.8-5.3c-11.4,0-20.5,9.8-20.5,21.2
		c-0.1,11.5,9.1,20.9,20.6,21c3.7,0,7.4-0.8,10.9-2.3V131h-7.3c-0.9,0-1.7-0.7-1.7-1.6c0,0,0,0,0,0v-7.3c0-0.9,0.7-1.7,1.6-1.7
		c0,0,0.1,0,0.1,0h17.5c0.9,0,1.7,0.8,1.7,1.7v23.4c0,0.6-0.3,1.1-0.7,1.5c-6.9,3.9-14.7,5.9-22.7,5.9c-18.1,0-32.9-14.7-32.9-32.9
		C400.7,101.8,415.5,87.1,433.6,87.2L433.6,87.2z"/>
	<path class="st1" d="M474.7,89.8c0-1,0.8-1.7,1.7-1.8h8.5c0.9,0,1.7,0.8,1.7,1.7v60.5c0,0.9-0.8,1.7-1.7,1.7h-8.5
		c-0.9,0-1.7-0.8-1.7-1.7L474.7,89.8z"/>
	<path class="st1" d="M504.1,145.8c-0.9-0.7-1.3-1.3-0.5-2.7l3.3-5.7c0.6-1,1.9-1.4,2.9-0.8c0.1,0,0.1,0.1,0.2,0.1
		c3.7,2.8,7.9,5.7,13.8,5.7c4.8,0,8.3-3.1,8.3-7c0-4.7-3.9-7.9-11.6-11c-8.6-3.5-17.2-9-17.2-19.7c0-8.1,6-17.5,20.6-17.5
		c6.6,0.1,13,2.3,18.3,6.1c0.9,0.7,1.2,2,0.5,3l-3.5,5.2c-0.7,1.1-2.1,1.8-3.2,1.1c-3.9-2.5-7.7-5-12.7-5c-5.2,0-8,2.9-8,6.4
		c0,4.3,3.4,7.2,10.8,10.2c8.9,3.6,19.1,8.9,19.1,20.7c0,9.4-8.1,18.1-21,18.1C512.7,153,506.8,148.1,504.1,145.8z"/>
	<path class="st1" d="M571.4,99.1h-14c-1,0-1.7-0.8-1.7-1.7c0,0,0,0,0,0v-7.5c0-1,0.7-1.7,1.7-1.8c0,0,0,0,0.1,0h39.9
		c1,0,1.7,0.8,1.7,1.7v7.5c0,1-0.8,1.7-1.7,1.7h-14v51.3c0,0.9-0.8,1.7-1.7,1.7h-8.5c-0.9,0-1.7-0.8-1.7-1.7L571.4,99.1z"/>
	<path class="st1" d="M613.7,89.8c0-1,0.8-1.7,1.7-1.8h8.5c0.9,0,1.7,0.8,1.7,1.7v60.5c0,0.9-0.8,1.7-1.7,1.7h-8.5
		c-0.9,0-1.7-0.8-1.7-1.7V89.8z"/>
	<path class="st1" d="M675,87.2c8.2-0.2,16.2,2.8,22.1,8.5c0.7,0.6,0.8,1.7,0.2,2.4c0,0.1-0.1,0.1-0.2,0.2l-5.6,5.8
		c-0.5,0.6-1.4,0.7-2.1,0.2c-0.1-0.1-0.2-0.1-0.2-0.2c-3.9-3.4-8.9-5.3-14.1-5.4c-11.7,0-20.4,9.8-20.4,21.3s8.8,21.2,20.5,21.2
		c5.1-0.1,10.1-1.9,14-5.2c0.6-0.6,1.6-0.6,2.3,0l5.7,5.9c0.7,0.7,0.6,1.8-0.1,2.4c0,0,0,0,0,0c-6,5.8-14,8.9-22.2,8.8
		c-18.2,0.3-33.2-14.2-33.5-32.3c-0.3-18.2,14.2-33.2,32.3-33.5C674.2,87.2,674.6,87.2,675,87.2z"/>
	<path class="st2" d="M14,17.6c0-1,0.8-1.7,1.7-1.7c0,0,0,0,0,0h8.4c0.9,0,1.7,0.8,1.7,1.7v51.3h23.3c1,0,1.7,0.8,1.7,1.7v7.5
		c0,1-0.8,1.7-1.7,1.7H15.7c-0.9,0-1.7-0.8-1.7-1.7V17.6z"/>
	<path class="st2" d="M92.1,15c18.2-0.1,33,14.6,33,32.8c0.1,18.2-14.6,33-32.8,33c-18.2,0.1-33-14.6-33-32.8c0,0,0,0,0,0
		C59.2,29.8,73.8,15.1,92,15C92,15,92.1,15,92.1,15z M92.1,68.9c11.6,0,21-9.3,21.1-20.9c0-11.6-9.3-21-20.9-21.1s-21,9.3-21.1,20.9
		c0,0,0,0.1,0,0.1C71.2,59.5,80.6,68.8,92.1,68.9z"/>
	<path class="st2" d="M170.4,15c8.2,0.1,16.1,3.1,22.3,8.5c0.7,0.6,0.8,1.8,0.1,2.5c0,0,0,0-0.1,0.1l-5.7,5.9
		c-0.5,0.7-1.5,0.7-2.2,0.2c-0.1-0.1-0.1-0.1-0.2-0.2c-3.8-3.4-8.7-5.3-13.8-5.3c-11.4,0-20.5,9.8-20.5,21.2
		c-0.1,11.4,9.1,20.8,20.6,20.9c3.7,0,7.4-0.8,10.9-2.3v-7.8h-7.3c-0.9,0-1.7-0.7-1.7-1.6c0,0,0,0,0-0.1v-7.2c0-0.9,0.7-1.7,1.6-1.7
		c0,0,0.1,0,0.1,0h17.6c0.9,0,1.7,0.8,1.6,1.7v23.4c0,0.6-0.3,1.1-0.7,1.5c-6.9,3.9-14.7,5.9-22.7,5.9c-18.1,0-32.9-14.7-32.9-32.9
		C137.6,29.7,152.3,15,170.4,15L170.4,15z"/>
	<path class="st2" d="M211.5,17.6c0-0.9,0.8-1.7,1.7-1.7h8.5c0.9,0,1.7,0.8,1.7,1.7v60.5c0,0.9-0.8,1.7-1.7,1.7h-8.5
		c-0.9,0-1.7-0.8-1.7-1.7V17.6z"/>
	<path class="st2" d="M240.9,73.7c-0.9-0.7-1.3-1.3-0.5-2.7l3.3-5.7c0.6-1,1.9-1.4,2.9-0.8c0.1,0,0.1,0.1,0.2,0.1
		c3.8,2.8,7.9,5.7,13.8,5.7c4.8,0,8.3-3.1,8.3-7c0-4.7-3.9-7.9-11.6-11c-8.6-3.5-17.2-9-17.2-19.7c0-8.1,6-17.5,20.6-17.5
		c6.6,0.1,13,2.3,18.3,6.1c0.9,0.7,1.2,2,0.5,3l-3.5,5.2c-0.7,1.1-2.1,1.8-3.2,1.1c-3.9-2.5-7.7-5-12.7-5c-5.2,0-8,2.9-8,6.4
		c0,4.3,3.4,7.2,10.8,10.2c8.9,3.6,19.1,8.9,19.1,20.7c0,9.4-8.1,18.1-21,18.1C249.5,80.8,243.5,75.9,240.9,73.7z"/>
	<path class="st1" d="M218.7,145.8c-0.9-0.7-1.3-1.3-0.5-2.7l3.3-5.7c0.6-1,1.9-1.4,2.9-0.8c0.1,0,0.1,0.1,0.2,0.1
		c3.8,2.8,7.9,5.7,13.8,5.7c4.8,0,8.3-3.1,8.3-7c0-4.7-3.9-7.9-11.6-11c-8.6-3.5-17.2-9-17.2-19.7c0-8.1,6-17.5,20.6-17.5
		c6.6,0.1,13,2.3,18.3,6.1c0.9,0.7,1.2,2,0.6,3l-3.5,5.2c-0.7,1.1-2.1,1.8-3.2,1.1c-3.9-2.5-7.7-5-12.7-5c-5.2,0-8,2.9-8,6.4
		c0,4.3,3.4,7.2,10.8,10.2c8.9,3.6,19.1,8.9,19.1,20.7c0,9.4-8.1,18.1-21,18.1C227.2,153,221.3,148.1,218.7,145.8z"/>
	<path class="st1" d="M711.5,145.8c-0.9-0.7-1.3-1.3-0.5-2.7l3.3-5.7c0.6-1,1.9-1.4,2.9-0.8c0.1,0,0.1,0.1,0.2,0.1
		c3.7,2.8,7.9,5.7,13.8,5.7c4.8,0,8.3-3.1,8.3-7c0-4.7-3.9-7.9-11.6-11c-8.6-3.5-17.2-9-17.2-19.7c0-8.1,6-17.5,20.6-17.5
		c6.6,0.1,13,2.3,18.3,6.1c0.9,0.7,1.2,2,0.5,3l-3.5,5.2c-0.7,1.1-2.1,1.8-3.2,1.1c-3.9-2.5-7.7-5-12.7-5c-5.2,0-8,2.9-8,6.4
		c0,4.3,3.4,7.2,10.8,10.2c8.9,3.6,19.1,8.9,19.1,20.7c0,9.4-8.1,18.1-21,18.1C720.1,153,714.1,148.1,711.5,145.8z"/>
	<path class="st2" d="M448.2,73.7c-0.9-0.7-1.3-1.3-0.5-2.7l3.3-5.7c0.6-1,1.9-1.4,2.9-0.8c0.1,0,0.1,0.1,0.2,0.1
		c3.8,2.8,7.9,5.7,13.8,5.7c4.8,0,8.3-3.1,8.3-7c0-4.7-3.9-7.9-11.6-11c-8.6-3.5-17.2-9-17.2-19.7c0-8.1,6-17.5,20.6-17.5
		c6.6,0.1,13,2.3,18.3,6.1c0.9,0.7,1.2,2,0.5,3l-3.5,5.2c-0.7,1.1-2.1,1.8-3.2,1.1c-3.9-2.5-7.7-5-12.7-5c-5.2,0-8,2.9-8,6.4
		c0,4.3,3.4,7.2,10.8,10.2c8.9,3.6,19.1,8.9,19.1,20.7c0,9.4-8.1,18.1-21,18.1C456.8,80.8,450.9,75.9,448.2,73.7z"/>
	<path class="st2" d="M308.2,26.9h-14c-1,0-1.7-0.8-1.7-1.7v-7.5c0-1,0.8-1.7,1.7-1.7c0,0,0,0,0,0h39.9c1,0,1.7,0.8,1.7,1.7
		c0,0,0,0,0,0v7.5c0,1-0.8,1.7-1.7,1.7h-14v51.3c0,0.9-0.8,1.7-1.7,1.7H310c-0.9,0-1.7-0.8-1.7-1.7L308.2,26.9z"/>
	<path class="st2" d="M350.5,17.6c0-0.9,0.8-1.7,1.7-1.7h8.5c0.9,0,1.7,0.8,1.7,1.7v60.5c0,0.9-0.8,1.7-1.7,1.7h-8.5
		c-0.9,0-1.7-0.8-1.7-1.7V17.6z"/>
	<path class="st2" d="M411.9,15c8.2-0.2,16.2,2.8,22.1,8.5c0.7,0.6,0.8,1.7,0.2,2.4c0,0.1-0.1,0.1-0.2,0.2l-5.6,5.8
		c-0.5,0.6-1.4,0.7-2.1,0.2c-0.1-0.1-0.2-0.1-0.2-0.2c-3.9-3.4-8.9-5.3-14.1-5.4c-11.7,0-20.4,9.8-20.4,21.3s8.8,21.1,20.5,21.1
		c5.1,0,10.1-1.9,14-5.2c0.6-0.6,1.6-0.6,2.3,0l5.7,5.8c0.7,0.7,0.6,1.8-0.1,2.5c0,0,0,0,0,0c-5.9,5.8-13.9,9-22.2,8.9
		c-18.2,0.3-33.2-14.2-33.5-32.3s14.2-33.2,32.3-33.5C411.1,15,411.5,15,411.9,15L411.9,15z"/>
	<path class="st1" d="M506.9,17.6c0-1,0.8-1.7,1.7-1.7c0,0,0,0,0,0h8.4c0.9,0,1.7,0.8,1.7,1.7v51.3H542c1,0,1.7,0.8,1.7,1.7
		c0,0,0,0,0,0v7.5c0,1-0.8,1.7-1.7,1.7h-33.4c-1,0-1.7-0.8-1.7-1.7V17.6z"/>
	<path class="st1" d="M585,15c18.2-0.1,33,14.6,33,32.8c0.1,18.2-14.6,33-32.8,33c-18.2,0.1-33-14.6-33-32.8c0,0,0,0,0,0
		c-0.1-18.1,14.6-32.9,32.7-33C584.9,15,585,15,585,15z M585,68.9c11.6,0,21-9.3,21.1-20.9c0-11.6-9.3-21-20.9-21.1
		s-21,9.3-21.1,20.9c0,0,0,0.1,0,0.1C564.1,59.5,573.5,68.8,585,68.9z"/>
	<path class="st1" d="M663.3,15c8.2,0.1,16.1,3.1,22.3,8.5c0.7,0.6,0.8,1.8,0.1,2.5c0,0,0,0-0.1,0.1l-5.7,5.9
		c-0.5,0.7-1.5,0.7-2.2,0.2c-0.1-0.1-0.1-0.1-0.2-0.2c-3.8-3.4-8.7-5.3-13.8-5.3c-11.4,0-20.5,9.8-20.5,21.2
		c-0.1,11.5,9.1,20.8,20.6,20.9c3.7,0,7.4-0.8,10.9-2.3v-7.8h-7.3c-0.9,0-1.7-0.7-1.7-1.6c0,0,0,0,0-0.1v-7.2c0-0.9,0.7-1.7,1.6-1.7
		c0,0,0.1,0,0.1,0h17.5c0.9,0,1.7,0.8,1.6,1.7v23.4c0,0.6-0.3,1.1-0.8,1.5c-6.9,3.9-14.7,5.9-22.7,5.9c-18.1,0-32.9-14.7-32.9-32.9
		C630.5,29.7,645.2,15,663.3,15z"/>
	<path class="st1" d="M704.5,17.6c0-0.9,0.8-1.7,1.7-1.7h8.5c0.9,0,1.7,0.8,1.7,1.7v60.5c0,0.9-0.8,1.7-1.7,1.7h-8.5
		c-0.9,0-1.7-0.8-1.7-1.7V17.6z"/>
	<path class="st1" d="M733.8,73.7c-0.9-0.7-1.3-1.3-0.5-2.7l3.3-5.7c0.6-1,1.9-1.4,2.9-0.8c0.1,0,0.2,0.1,0.2,0.1
		c3.8,2.8,7.9,5.7,13.8,5.7c4.8,0,8.3-3.1,8.3-7c0-4.7-3.9-7.9-11.6-11c-8.6-3.5-17.2-9-17.2-19.7c0-8.1,6-17.5,20.6-17.5
		c6.6,0.1,13,2.3,18.3,6.1c0.9,0.7,1.2,2,0.5,3l-3.4,5.2c-0.7,1.1-2.1,1.8-3.2,1.1c-3.9-2.5-7.7-5-12.7-5c-5.2,0-8,2.9-8,6.4
		c0,4.2,3.4,7.2,10.8,10.2c8.9,3.6,19.1,8.9,19.1,20.7c0,9.4-8.1,18.1-21,18.1C742.4,80.8,736.4,75.9,733.8,73.7z"/>
</g>
</svg>
