<svg id="Capa_1" data-name="Capa 1" xmlns="http://www.w3.org/2000/svg" viewBox="0 0 632.05 167.99"><defs><style>.cls-1{opacity:0.6;}.cls-2{fill:none;stroke:#fff;stroke-miterlimit:3.11;}.cls-3{fill:#fff;}</style></defs><g class="cls-1"><path class="cls-2" d="M10.83,90.39a2,2,0,0,1,2-2h9.54a2,2,0,0,1,2,2V148.6H50.77a2,2,0,0,1,2,2v8.51a2,2,0,0,1-2,2h-38a2,2,0,0,1-2-2Z"/><path class="cls-2" d="M68.41,90.39a2,2,0,0,1,2-2h42.23a2,2,0,0,1,2,2V98.9a2,2,0,0,1-2,2H81.9v17h25.62a2,2,0,0,1,2,2v8.61a2,2,0,0,1-2,2H81.9V148.6h30.71a2,2,0,0,1,2,2v8.51a2,2,0,0,1-2,2H70.38a2,2,0,0,1-2-2Z"/><path class="cls-2" d="M133.35,89.25a2,2,0,0,1,2-1.87h1.55a2.28,2.28,0,0,1,1.77.73L181,133.24h.21V90.39a2,2,0,0,1,2-2h9.54a2,2,0,0,1,2,2v69.83a2,2,0,0,1-2,1.87h-1.45a2.28,2.28,0,0,1-1.76-.73L147,114.46h-.21v44.62a2,2,0,0,1-2,2h-9.44a2,2,0,0,1-2-2Z"/><path class="cls-2" d="M229.22,100.87H213.34a2,2,0,0,1-2-2V90.39a2,2,0,0,1,2-2h45.35a2,2,0,0,1,2,2V98.9a2,2,0,0,1-2,2H242.81v58.21a2,2,0,0,1-2,2h-9.65a2,2,0,0,1-2-2Z"/><path class="cls-2" d="M308.49,87.38a37.36,37.36,0,1,1-37.25,37.46A37.29,37.29,0,0,1,308.49,87.38Zm0,61.22a23.87,23.87,0,1,0-23.76-23.76A23.91,23.91,0,0,0,308.49,148.6Z"/><path class="cls-2" d="M374.26,100.87H358.39a2,2,0,0,1-2-2V90.39a2,2,0,0,1,2-2h45.34a2,2,0,0,1,2,2V98.9a2,2,0,0,1-2,2H387.86v58.21a2,2,0,0,1-2,2h-9.65a2,2,0,0,1-2-2Z"/><path class="cls-2" d="M409.12,158.35l32.27-69.83a1.86,1.86,0,0,1,1.76-1.14h1A1.78,1.78,0,0,1,446,88.52l32,69.83a1.83,1.83,0,0,1-1.76,2.7h-9c-1.55,0-2.28-.62-3-2.07L459,147.77H428L422.92,159a3.13,3.13,0,0,1-3,2.07h-9A1.84,1.84,0,0,1,409.12,158.35ZM454,136.25l-10.38-22.83h-.31l-10.17,22.83Z"/><path class="cls-2" d="M492.23,90.39a2,2,0,0,1,2-2h9.54a2,2,0,0,1,2,2V148.6h26.45a2,2,0,0,1,2,2v8.51a2,2,0,0,1-2,2h-38a2,2,0,0,1-2-2Z"/><path class="cls-2" d="M549.81,90.39a2,2,0,0,1,2-2H594a2,2,0,0,1,2,2V98.9a2,2,0,0,1-2,2H563.3v17h25.63a2,2,0,0,1,2,2v8.61a2,2,0,0,1-2,2H563.3V148.6H594a2,2,0,0,1,2,2v8.51a2,2,0,0,1-2,2H551.78a2,2,0,0,1-2-2Z"/><path class="cls-2" d="M614.76,89.25a2,2,0,0,1,2-1.87h1.55a2.28,2.28,0,0,1,1.77.73l42.33,45.13h.21V90.39a2,2,0,0,1,2-2h9.55a2,2,0,0,1,2,2v69.83a2,2,0,0,1-2,1.87h-1.46a2.28,2.28,0,0,1-1.76-.73l-42.54-46.9h-.21v44.62a2,2,0,0,1-2,2h-9.44a2,2,0,0,1-2-2Z"/></g><g class="cls-1"><path class="cls-3" d="M22.55,18.84H6.68a2,2,0,0,1-2-2V8.36a2,2,0,0,1,2-2H52a2,2,0,0,1,2,2v8.5a2,2,0,0,1-2,2H36.14V77.05a2,2,0,0,1-2,2H24.52a2,2,0,0,1-2-2Z"/><path class="cls-3" d="M57.51,76.32,89.78,6.49a1.87,1.87,0,0,1,1.77-1.14h1a1.77,1.77,0,0,1,1.77,1.14l32,69.83a1.83,1.83,0,0,1-1.76,2.7h-9c-1.55,0-2.28-.63-3-2.08l-5.08-11.2h-31l-5.09,11.2a3.12,3.12,0,0,1-3,2.08h-9A1.84,1.84,0,0,1,57.51,76.32Zm44.83-22.1L92,31.39h-.31L81.48,54.22Z"/><path class="cls-3" d="M140.51,8.36a2,2,0,0,1,2-2H152a2,2,0,0,1,2,2V66.57h26.46a2,2,0,0,1,2,2v8.51a2,2,0,0,1-2,2h-38a2,2,0,0,1-2-2Z"/><path class="cls-3" d="M198.1,8.36a2,2,0,0,1,2-2H242.3a2,2,0,0,1,2,2v8.5a2,2,0,0,1-2,2H211.58v17h25.63a2,2,0,0,1,2,2v8.62a2,2,0,0,1-2,2H211.58V66.57H242.3a2,2,0,0,1,2,2v8.51a2,2,0,0,1-2,2H200.07a2,2,0,0,1-2-2Z"/><path class="cls-3" d="M263,7.22a2,2,0,0,1,2-1.87h1.56a2.27,2.27,0,0,1,1.76.72l42.34,45.14h.21V8.36a2,2,0,0,1,2-2h9.54a2,2,0,0,1,2,2V78.19a2,2,0,0,1-2,1.86h-1.45a2.25,2.25,0,0,1-1.76-.72l-42.55-46.9h-.2V77.05a2,2,0,0,1-2,2H265a2,2,0,0,1-2-2Z"/><path class="cls-3" d="M358.91,18.84H343a2,2,0,0,1-2-2V8.36a2,2,0,0,1,2-2h45.35a2,2,0,0,1,2,2v8.5a2,2,0,0,1-2,2H372.5V77.05a2,2,0,0,1-2,2h-9.65a2,2,0,0,1-2-2Z"/><path class="cls-3" d="M438.07,5.35A37.35,37.35,0,1,1,400.82,42.8,37.29,37.29,0,0,1,438.07,5.35Zm0,61.22A23.87,23.87,0,1,0,414.31,42.8,23.92,23.92,0,0,0,438.07,66.57Z"/></g><g class="cls-1"><path class="cls-2" d="M504.06,18.84H488.19a2,2,0,0,1-2-2V8.36a2,2,0,0,1,2-2h45.34a2,2,0,0,1,2,2v8.5a2,2,0,0,1-2,2H517.65V77.05a2,2,0,0,1-2,2H506a2,2,0,0,1-2-2Z"/><path class="cls-2" d="M538.92,76.32,571.19,6.49A1.86,1.86,0,0,1,573,5.35h1a1.76,1.76,0,0,1,1.76,1.14l32,69.83A1.83,1.83,0,0,1,606,79h-9c-1.56,0-2.28-.63-3-2.08l-5.08-11.2h-31l-5.08,11.2a3.13,3.13,0,0,1-3,2.08h-9A1.83,1.83,0,0,1,538.92,76.32Zm44.82-22.1L573.37,31.39h-.31L562.89,54.22Z"/><path class="cls-2" d="M622,8.36a2,2,0,0,1,2-2h9.54a2,2,0,0,1,2,2V66.57H662a2,2,0,0,1,2,2v8.51a2,2,0,0,1-2,2H624a2,2,0,0,1-2-2Z"/></g></svg>