<?xml version="1.0" encoding="utf-8"?>
<!-- Generator: Adobe Illustrator 25.4.1, SVG Export Plug-In . SVG Version: 6.00 Build 0)  -->
<svg version="1.1" id="Layer_1" xmlns="http://www.w3.org/2000/svg" xmlns:xlink="http://www.w3.org/1999/xlink" x="0px" y="0px"
	 viewBox="0 0 357.1 68.3" style="enable-background:new 0 0 357.1 68.3;" xml:space="preserve">
<style type="text/css">
	.st0{fill:#231F20;}
</style>
<g>
	<path class="st0" d="M30.2,67.5h-27c-0.9,0-1.5-0.8-1.5-1.5V17c0-0.7,0.6-1.5,1.5-1.5H10c0.8,0,1.5,0.8,1.5,1.5v41.2h18.6
		c0.9,0,1.5,0.8,1.5,1.5v6.1C31.8,66.7,31.1,67.5,30.2,67.5z M3.2,15.8C2.5,15.8,2,16.4,2,17v48.9c0,0.6,0.5,1.2,1.2,1.2h27
		c0.7,0,1.2-0.7,1.2-1.2v-6.1c0-0.6-0.5-1.2-1.2-1.2H11.3V17c0-0.6-0.6-1.2-1.2-1.2H3.2z"/>
	<path class="st0" d="M61.2,68.2c-14.9,0-26.6-11.7-26.6-26.7c0-7.2,2.8-14,7.7-19c5-5.1,11.7-7.8,18.9-7.8c7.2,0,13.9,2.8,19,7.8
		c5,5.1,7.8,11.8,7.8,19c0,7.2-2.8,13.9-7.8,18.9C75.1,65.4,68.4,68.2,61.2,68.2z M61.2,15c-7.1,0-13.7,2.8-18.7,7.8
		c-4.9,5-7.7,11.7-7.7,18.8c0,14.8,11.6,26.3,26.4,26.3c7.1,0,13.8-2.7,18.7-7.7c5-5,7.7-11.6,7.7-18.7c0-7.1-2.7-13.8-7.7-18.8
		C75,17.7,68.3,15,61.2,15z M61.2,58.6c-9.4,0-17-7.6-17-17.1c0-4.5,1.8-8.9,5-12.1c3.2-3.3,7.5-5.1,12-5.1
		c9.3,0,17.1,7.9,17.1,17.2C78.4,50.9,70.7,58.6,61.2,58.6z M61.2,24.6c-4.4,0-8.6,1.8-11.8,5c-3.2,3.2-4.9,7.5-4.9,11.9
		c0,9.2,7.5,16.8,16.8,16.8c9.3,0,16.9-7.5,16.9-16.8C78.1,32.4,70.3,24.6,61.2,24.6z"/>
	<path class="st0" d="M120.8,68.1c-7.2,0-13.9-2.7-18.9-7.7c-5-5-7.8-11.7-7.8-18.8c0-7.2,2.8-13.9,7.8-19c5-5.1,11.7-7.8,18.9-7.8
		c6.5,0,12.9,2.5,18.1,6.9c0.7,0.7,0.7,1.7,0.1,2.3l-4.6,4.8c-0.7,0.6-1.5,0.6-2.1,0c-3.2-2.8-7-4.3-11.1-4.3c-9,0-16.4,7.6-16.4,17
		c0,9.2,7.4,16.7,16.5,16.7c3.6,0,6.5-1,8.2-1.6c0.2-0.1,0.3-0.1,0.5-0.2v-6h-5.8c-0.9,0-1.5-0.7-1.5-1.5V43c0-0.9,0.7-1.5,1.5-1.5
		h14.2c0.8,0,1.4,0.7,1.4,1.5v18.9c0,0.6-0.2,1-0.7,1.3C139.1,63.3,131.4,68.1,120.8,68.1z M120.8,15c-7.1,0-13.7,2.8-18.7,7.8
		c-5,5-7.7,11.7-7.7,18.8c0,7.1,2.7,13.7,7.7,18.6c5,4.9,11.6,7.6,18.7,7.6c10.5,0,18.1-4.7,18.2-4.8c0.2-0.1,0.5-0.4,0.5-1.1V43
		c0-0.6-0.6-1.2-1.1-1.2h-14.2c-0.7,0-1.2,0.5-1.2,1.2v5.9c0,0.6,0.6,1.1,1.2,1.1h6v6.6l-0.1,0c-0.2,0.1-0.4,0.1-0.6,0.2
		c-1.6,0.6-4.6,1.6-8.3,1.6c-9.2,0-16.8-7.6-16.8-17c0-9.5,7.5-17.2,16.6-17.2c4.1,0,8.1,1.5,11.3,4.3c0.6,0.6,1.2,0.5,1.7,0
		l4.6-4.8c0.5-0.5,0.5-1.3-0.1-1.9C133.6,17.4,127.2,15,120.8,15z"/>
	<path class="st0" d="M158.6,67.5h-6.9c-0.8,0-1.5-0.8-1.5-1.5V17c0-0.8,0.8-1.5,1.5-1.5h6.9c0.8,0,1.6,0.8,1.6,1.5v48.9
		C160.2,66.7,159.4,67.5,158.6,67.5z M151.7,15.8c-0.6,0-1.2,0.6-1.2,1.2v48.9c0,0.6,0.6,1.2,1.2,1.2h6.9c0.6,0,1.3-0.6,1.3-1.2V17
		c0-0.6-0.6-1.2-1.3-1.2H151.7z"/>
	<path class="st0" d="M186.2,68.1c-9.2,0-14-4.2-15.9-5.7l0,0c-0.7-0.6-1.1-1.1-0.4-2.4l2.7-4.6c0.3-0.5,0.7-0.8,1.2-0.9
		c0.5-0.1,1.1,0,1.5,0.3c3,2.3,6.4,4.6,11.1,4.6c3.7,0,6.5-2.4,6.5-5.5c0-3.5-2.8-6.1-9.3-8.8c-6-2.4-14-6.8-14-16
		c0-6.9,5.2-14.3,16.7-14.3c7.8,0,13.8,4.1,14.9,4.9c0.4,0.2,0.7,0.7,0.8,1.2c0.1,0.5,0,1.1-0.3,1.4l-2.8,4.2
		c-0.3,0.5-0.8,0.9-1.3,1.1c-0.6,0.2-1.1,0.2-1.6-0.1l-0.7-0.4c-3-1.9-5.8-3.6-9.5-3.6c-4.4,0-6.3,2.5-6.3,5.1
		c0,3.3,2.4,5.6,8.6,8.2c7.7,3.1,15.5,7.5,15.5,16.8c0,7.2-6,14.8-17.2,14.8C186.4,68.1,186.3,68.1,186.2,68.1z M174.2,54.8
		c-0.1,0-0.2,0-0.3,0c-0.3,0.1-0.7,0.2-1,0.7l-2.7,4.6c-0.6,1.1-0.3,1.5,0.4,2l0,0c1.8,1.6,6.6,5.7,15.7,5.7c0.1,0,0.2,0,0.3,0
		c10.9,0,16.9-7.4,16.9-14.5c0-9.2-7.7-13.5-15.3-16.6c-6.3-2.6-8.8-5-8.8-8.4c0-3.7,3.4-5.4,6.6-5.4c3.8,0,6.7,1.8,9.7,3.7l0.7,0.4
		c0.5,0.3,1,0.2,1.3,0.1c0.4-0.2,0.8-0.5,1.1-1l2.8-4.2c0.3-0.3,0.3-0.7,0.3-1.2c-0.1-0.5-0.3-0.8-0.6-1c-1.1-0.8-7-4.9-14.7-4.9
		c-7.9,0-16.4,4.4-16.4,14c0,9.1,7.9,13.4,13.8,15.8c6.7,2.7,9.5,5.4,9.5,9c0,3.3-3,5.9-6.9,5.9c-4.8,0-8.2-2.3-11.3-4.6
		C174.9,54.9,174.5,54.8,174.2,54.8z"/>
	<path class="st0" d="M229.4,67.4h-6.9c-0.8,0-1.6-0.8-1.6-1.6V24.6h-11.1c-0.9,0-1.6-0.8-1.6-1.6v-6c0-0.7,0.6-1.5,1.6-1.5h32.3
		c0.9,0,1.6,0.8,1.6,1.5v6c0,0.7-0.6,1.6-1.6,1.6H231v41.2C231,66.6,230.2,67.4,229.4,67.4z M209.8,15.8c-0.7,0-1.2,0.7-1.2,1.2v6
		c0,0.6,0.5,1.3,1.2,1.3h11.5v41.5c0,0.6,0.6,1.2,1.2,1.2h6.9c0.6,0,1.2-0.6,1.2-1.2V24.3h11.5c0.7,0,1.2-0.7,1.2-1.3v-6
		c0-0.6-0.5-1.2-1.2-1.2H209.8z"/>
	<path class="st0" d="M260,67.5h-6.9c-0.8,0-1.5-0.8-1.5-1.5V17c0-0.8,0.8-1.5,1.5-1.5h6.9c0.8,0,1.5,0.8,1.5,1.5v48.9
		C261.6,66.7,260.8,67.5,260,67.5z M253.1,15.8c-0.6,0-1.2,0.6-1.2,1.2v48.9c0,0.6,0.6,1.2,1.2,1.2h6.9c0.6,0,1.2-0.6,1.2-1.2V17
		c0-0.6-0.6-1.2-1.2-1.2H253.1z"/>
	<path class="st0" d="M297.6,68.3c-7.2,0-14-2.8-19-7.7c-5.1-5-7.8-11.7-7.8-18.9c0-7.2,2.8-14,7.8-19.1c5.1-5.1,11.8-7.9,19-7.9
		c7.1,0,12.5,2.1,18,6.9c0.4,0.3,0.6,0.7,0.6,1.1c0,0.4-0.2,0.8-0.5,1.2l-4.5,4.7c-0.3,0.3-0.6,0.5-1,0.5c-0.4,0-0.7-0.2-1-0.5
		c-3.2-2.8-7.3-4.3-11.3-4.3c-9.2,0-16.3,7.5-16.3,17.1c0,9.3,7.3,16.9,16.3,16.9c4,0,7.8-1.4,11.2-4.2c0.7-0.6,1.6-0.4,2,0l4.6,4.7
		c0.2,0.2,0.4,0.5,0.4,0.9c0,0.5-0.2,1-0.5,1.3C310.9,65.7,304.5,68.3,297.6,68.3z M297.6,15c-7.1,0-13.8,2.8-18.8,7.8
		c-5,5-7.8,11.7-7.8,18.9c0,7.1,2.8,13.7,7.8,18.7c5,4.9,11.7,7.7,18.8,7.7c6.8,0,13.1-2.5,17.8-7.2c0.3-0.3,0.4-0.7,0.4-1.1
		c0-0.2-0.1-0.5-0.3-0.7l-4.6-4.7c-0.3-0.3-1.1-0.4-1.6,0c-3.5,2.8-7.3,4.2-11.4,4.2c-9.2,0-16.7-7.7-16.7-17.3
		c0-9.7,7.3-17.4,16.7-17.4c4.1,0,8.3,1.6,11.5,4.4c0.5,0.5,1.2,0.5,1.6,0l4.5-4.7c0.3-0.3,0.4-0.6,0.4-0.9c0-0.3-0.2-0.7-0.5-0.9
		C310,17,304.6,15,297.6,15z"/>
	<path class="st0" d="M338,68.1c-9.2,0-14-4.2-15.9-5.7c-0.7-0.6-1.1-1.1-0.4-2.4l2.7-4.6c0.3-0.5,0.7-0.8,1.2-0.9
		c0.5-0.1,1.1,0,1.5,0.3c3.1,2.4,6.4,4.6,11.1,4.6c3.7,0,6.5-2.4,6.5-5.5c0-3.5-2.8-6.1-9.3-8.8c-6-2.4-14-6.8-14-16
		c0-6.9,5.2-14.3,16.8-14.3c7.8,0,13.8,4.1,14.9,4.9c0.4,0.2,0.7,0.7,0.8,1.2c0.1,0.5,0,1.1-0.3,1.4l-2.8,4.2
		c-0.3,0.5-0.8,0.9-1.3,1.1c-0.6,0.2-1.1,0.2-1.6-0.1l-0.7-0.4c-3-1.9-5.8-3.6-9.5-3.6c-4.4,0-6.3,2.5-6.3,5.1
		c0,3.3,2.4,5.6,8.6,8.2c7.7,3.1,15.5,7.5,15.5,16.8c0,7.2-6,14.8-17.2,14.8C338.2,68.1,338.1,68.1,338,68.1z M326,54.8
		c-0.1,0-0.2,0-0.3,0c-0.3,0.1-0.7,0.2-1,0.7l-2.7,4.6c-0.6,1.1-0.3,1.5,0.4,2v0c1.8,1.6,6.6,5.7,15.7,5.7c0.1,0,0.2,0,0.3,0
		c10.9,0,16.9-7.4,16.9-14.5c0-9.2-7.7-13.5-15.3-16.6c-6.3-2.6-8.8-5-8.8-8.4c0-3.7,3.4-5.4,6.7-5.4c3.8,0,6.7,1.8,9.7,3.7l0.7,0.4
		c0.5,0.3,1,0.2,1.3,0.1c0.4-0.2,0.8-0.5,1.1-1l2.8-4.2c0.3-0.3,0.3-0.7,0.3-1.2c-0.1-0.5-0.3-0.8-0.6-1c-1.1-0.8-7-4.9-14.7-4.9
		c-7.9,0-16.5,4.4-16.5,14c0,9.1,7.9,13.4,13.8,15.8c6.7,2.7,9.5,5.4,9.5,9c0,3.3-3,5.9-6.8,5.9c-4.8,0-8.1-2.2-11.3-4.6
		C326.7,54.9,326.3,54.8,326,54.8z"/>
</g>
</svg>
