<svg xmlns="http://www.w3.org/2000/svg" viewBox="0 0 722.05 100"><defs><style>.cls-1{fill:#fff;}</style></defs><g id="Layer_2" data-name="Layer 2"><g id="Layer_2-2" data-name="Layer 2"><path class="cls-1" d="M50.14,0c14,0,24.17,4.44,33.61,12.92a2.58,2.58,0,0,1,.14,3.89l-8.47,8.75a2.23,2.23,0,0,1-3.48,0,32.84,32.84,0,0,0-21.38-8.2c-17.78,0-31,14.86-31,32.36S32.92,81.81,50.69,81.81a33.33,33.33,0,0,0,21.25-7.92,2.57,2.57,0,0,1,3.48,0L84,82.78a2.65,2.65,0,0,1-.14,3.75A47.69,47.69,0,0,1,50.14,100a50,50,0,1,1,0-100Z"/><path class="cls-1" d="M97.74,4a2.73,2.73,0,0,1,2.64-2.64h13.2A2.64,2.64,0,0,1,116.22,4V62c0,11.8,8,20,20.14,20s20.27-8.2,20.27-19.87V4a2.64,2.64,0,0,1,2.64-2.64h13.2A2.73,2.73,0,0,1,175.1,4V62.92C175.1,84,158.3,100,136.36,100S97.74,84,97.74,62.92Z"/><path class="cls-1" d="M192.5,89.17c-1.38-1.11-1.94-2-.69-4.17l5-8.61a3.22,3.22,0,0,1,4.72-1c5.7,4.3,11.95,8.61,21,8.61,7.23,0,12.64-4.72,12.64-10.7,0-7.08-6-11.94-17.64-16.66-13.05-5.28-26.11-13.61-26.11-30C191.39,14.31,200.56,0,222.64,0c14.17,0,25,7.22,27.78,9.31a3.42,3.42,0,0,1,.83,4.58L246,21.81c-1.12,1.66-3.2,2.77-4.86,1.66-6-3.75-11.67-7.64-19.31-7.64-7.92,0-12.22,4.45-12.22,9.73,0,6.52,5.14,11,16.39,15.55,13.47,5.42,29,13.47,29,31.39,0,14.31-12.37,27.5-31.95,27.5C205.56,100,196.53,92.64,192.5,89.17Z"/><path class="cls-1" d="M287,18.06H265.78a2.64,2.64,0,0,1-2.64-2.64V4a2.64,2.64,0,0,1,2.64-2.64h60.69A2.64,2.64,0,0,1,329.11,4V15.42a2.64,2.64,0,0,1-2.64,2.64H305.22V96a2.73,2.73,0,0,1-2.63,2.64H289.67A2.73,2.73,0,0,1,287,96Z"/><path class="cls-1" d="M383.58,0a50,50,0,1,1,0,100,49.55,49.55,0,0,1-49.86-49.86A49.79,49.79,0,0,1,383.58,0Zm0,82a31.95,31.95,0,1,0,0-63.89c-17.5,0-31.8,14.58-31.8,32.08A31.89,31.89,0,0,0,383.58,82Z"/><path class="cls-1" d="M460.14,2.08A2.35,2.35,0,0,1,462.64,0h2.23a2.54,2.54,0,0,1,2.36,1.39l30.55,65.55h.42L528.75,1.39A2.42,2.42,0,0,1,531.12,0h2.22a2.34,2.34,0,0,1,2.5,2.08l16.39,93.34a2.41,2.41,0,0,1-2.5,3.19H537.09a3,3,0,0,1-2.64-2.08l-8.19-52.64h-.42L501.53,98.47a2.35,2.35,0,0,1-2.36,1.53h-2.5a2.49,2.49,0,0,1-2.36-1.53L469.73,43.89h-.42l-8.05,52.64a2.69,2.69,0,0,1-2.51,2.08H446.26a2.54,2.54,0,0,1-2.64-3.19Z"/><path class="cls-1" d="M569.42,4a2.64,2.64,0,0,1,2.64-2.64h56.52A2.64,2.64,0,0,1,631.22,4V15.42a2.64,2.64,0,0,1-2.64,2.64H587.47V40.83h34.31a2.73,2.73,0,0,1,2.64,2.64V55a2.64,2.64,0,0,1-2.64,2.64H587.47V82h41.11a2.63,2.63,0,0,1,2.64,2.63V96a2.64,2.64,0,0,1-2.64,2.64H572.06A2.64,2.64,0,0,1,569.42,96Z"/><path class="cls-1" d="M649.41,4a2.64,2.64,0,0,1,2.64-2.64h39.72a30.08,30.08,0,0,1,30.28,29.86c0,12.78-8.47,23.2-20.55,28.06l19,35.27a2.63,2.63,0,0,1-2.36,4H703.58a2.37,2.37,0,0,1-2.22-1.25l-18.48-36.8H667.47V96a2.73,2.73,0,0,1-2.64,2.64H652.05A2.64,2.64,0,0,1,649.41,96ZM690.24,45.7c7.37,0,13.76-6.39,13.76-14.17a13.82,13.82,0,0,0-13.76-13.47H667.61V45.7Z"/></g></g></svg>