<?xml version="1.0" encoding="utf-8"?>
<!-- Generator: Adobe Illustrator 25.4.1, SVG Export Plug-In . SVG Version: 6.00 Build 0)  -->
<svg version="1.1" id="Layer_1" xmlns="http://www.w3.org/2000/svg" xmlns:xlink="http://www.w3.org/1999/xlink" x="0px" y="0px"
	 viewBox="0 0 1020.2 101" style="enable-background:new 0 0 1020.2 101;" xml:space="preserve">
<style type="text/css">
	.st0{fill:#FFFFFF;}
</style>
<g>
	<path class="st0" d="M234.6,99.6h-56.9c-1.7,0-2.9-1.5-2.9-2.9V4.1c0-1.4,1.2-2.9,2.9-2.9h57.1c1.7,0,2.9,1.5,2.9,2.9v11.4
		c0,1.4-1.2,2.9-2.9,2.9h-41.5v22.7h34.5c1.4,0,2.9,1.4,2.9,2.9v11.6c0,1.7-1.5,2.9-2.9,2.9h-34.5v24.3h41.3c1.7,0,2.9,1.5,2.9,2.9
		v11.2C237.4,98.1,236.3,99.6,234.6,99.6z M177.7,1.5c-1.5,0-2.6,1.3-2.6,2.6v92.7c0,1.2,1.1,2.6,2.6,2.6h56.9
		c1.5,0,2.6-1.3,2.6-2.6V85.5c0-1.2-1.1-2.6-2.6-2.6H193V58.1h34.8c1.2,0,2.6-1.1,2.6-2.6V43.9c0-1.3-1.3-2.6-2.6-2.6H193V18h41.8
		c1.5,0,2.6-1.3,2.6-2.6V4.1c0-1.2-1.1-2.6-2.6-2.6H177.7z"/>
	<path class="st0" d="M336,101H334c-0.8,0-1.8-0.1-2.4-1l-57.4-63.2v60c0,1.4-1.2,2.9-2.9,2.9h-12.8c-1.4,0-2.9-1.4-2.9-2.9V2.5
		c0-1.4,1.4-2.7,2.9-2.7h2.1c0.8,0,1.8,0.1,2.4,1l57,60.9V4.1c0-1.4,1.2-2.9,2.9-2.9h13c1.4,0,2.9,1.4,2.9,2.9v94.2
		C338.8,99.7,337.5,101,336,101z M273.9,36.4h0.4l0,0l57.5,63.3c0.5,0.7,1.1,0.9,2.2,0.9h1.9c1.3,0,2.6-1.1,2.6-2.4V4.1
		c0-1.3-1.3-2.6-2.6-2.6h-13c-1.5,0-2.6,1.3-2.6,2.6v58H320l0,0L262.9,1.1c-0.5-0.7-1.1-0.9-2.2-0.9h-2.1c-1.3,0-2.6,1.1-2.6,2.4
		v94.2c0,1.3,1.3,2.6,2.6,2.6h12.8c1.5,0,2.6-1.3,2.6-2.6V36.4z"/>
	<path class="st0" d="M441.2,99.6h-12c-2.1,0-3.2-0.8-4.2-3l-6.7-15h-41.8l-6.7,15c-0.6,1.4-1.8,3-4.2,3h-12.2c-1.1,0-2-0.4-2.5-1.1
		c-0.5-0.7-0.5-1.7-0.1-2.7l0,0l43.5-94.2c0.5-1,1.4-1.6,2.5-1.6h1.4c1.5,0,2.1,0.9,2.5,1.6l43.1,94.2c0.4,0.9,0.4,2-0.1,2.7
		C443,99.2,442.2,99.6,441.2,99.6z M376.3,81.3h42.2l0,0.1l6.8,15.1c1,2.1,1.9,2.8,3.9,2.8h12c0.9,0,1.6-0.4,2.1-1
		c0.4-0.7,0.5-1.6,0.1-2.4L400.3,1.6c-0.4-0.7-0.9-1.5-2.2-1.5h-1.4c-1.3,0-2,1-2.2,1.5L351,95.8c-0.4,0.9-0.3,1.8,0.1,2.5
		c0.4,0.6,1.2,1,2.3,1h12.2c2.2,0,3.4-1.5,3.9-2.8L376.3,81.3z M411.7,66.1h-28.5l0.1-0.2L397,35.1h0.6l0,0.1L411.7,66.1z
		 M383.6,65.8h27.6l-13.8-30.5h-0.2L383.6,65.8z"/>
	<path class="st0" d="M492.7,99.8h-33.9c-1.7,0-2.9-1.5-2.9-2.9V4.1c0-1.4,1.2-2.9,2.9-2.9h32.1c8.1,0,15.6,2.7,21.1,7.5
		c5.6,4.8,8.6,11.4,8.6,18.6c0,10.9-7.2,18.5-13.9,22v0.6c6.4,2.3,16.6,8.3,16.6,22.7c0,7.6-3.2,14.5-9,19.5
		C508.8,97.1,501,99.8,492.7,99.8z M458.8,1.5c-1.5,0-2.6,1.3-2.6,2.6v92.9c0,1.2,1.1,2.6,2.6,2.6h33.9c17.3,0,30.4-11.6,30.4-26.9
		c0-14.4-10.5-20.3-16.7-22.5l0.1-0.3h0v-0.7l0.1,0c6.7-3.4,13.8-11,13.8-21.7c0-7.1-3-13.6-8.5-18.4c-5.5-4.8-12.9-7.4-20.9-7.4
		H458.8z M491.3,83.2H474V57.9h17.4c7.1,0,12.5,5.3,12.5,12.3C503.9,77.6,498.5,83.2,491.3,83.2z M474.3,82.9h17.1
		c7,0,12.2-5.4,12.2-12.6c0-6.9-5.3-12-12.2-12h-17.1V82.9z M489.4,42.7H474V18h15.4c7.1,0,12,4.8,12,12
		C501.3,37.4,496.3,42.7,489.4,42.7z M474.3,42.4h15.1c6.8,0,11.7-5.2,11.7-12.4c0-7-4.7-11.7-11.7-11.7h-15.1V42.4z"/>
	<path class="st0" d="M596.6,99.6h-51.3c-1.7,0-2.9-1.5-2.9-2.9V4.2h-0.2V4.1c0-1.4,1.2-2.9,2.9-2.9h13c1.4,0,2.9,1.4,2.9,2.9v78.4
		h35.6c1.7,0,2.9,1.5,2.9,2.9v11.4C599.4,98.1,598.3,99.6,596.6,99.6z M542.6,3.9h0.2v92.8c0,1.2,1.1,2.6,2.6,2.6h51.3
		c1.5,0,2.6-1.3,2.6-2.6V85.3c0-1.2-1.1-2.6-2.6-2.6h-35.9V4.1c0-1.3-1.3-2.6-2.6-2.6h-13C543.7,1.5,542.7,2.7,542.6,3.9z"/>
	<path class="st0" d="M673,99.6h-57.1c-1.7,0-2.9-1.5-2.9-2.9V4.1c0-1.4,1.2-2.9,2.9-2.9H673c1.7,0,2.9,1.5,2.9,2.9v11.4
		c0,1.4-1.2,2.9-2.9,2.9h-41.3v22.7h34.5c1.4,0,2.9,1.4,2.9,2.9v11.6c0,1.6-1.2,2.9-2.9,2.9h-34.5v24.3H673c1.7,0,2.9,1.5,2.9,2.9
		v11.2C675.9,98.1,674.7,99.6,673,99.6z M615.9,1.5c-1.5,0-2.6,1.3-2.6,2.6v92.7c0,1.2,1.1,2.6,2.6,2.6H673c1.5,0,2.6-1.3,2.6-2.6
		V85.5c0-1.2-1.1-2.6-2.6-2.6h-41.6V58.1h34.8c1.5,0,2.6-1.1,2.6-2.6V43.9c0-1.3-1.3-2.6-2.6-2.6h-34.8V18H673
		c1.5,0,2.6-1.3,2.6-2.6V4.1c0-1.2-1.1-2.6-2.6-2.6H615.9z"/>
	<path class="st0" d="M763.6,99.6h-14.7c-1.5,0-2.1-0.9-2.4-1.4l-18.5-37.1h-15.2v35.6c0,1.4-1.2,2.9-2.9,2.9h-13
		c-1.7,0-2.9-1.5-2.9-2.9V4.1c0-1.4,1.2-2.9,2.9-2.9h40.1c16.9,0,30.7,13.6,30.7,30.3c0,12.4-7.9,23.2-20.6,28.3L766,95.3
		c0.5,0.9,0.5,2.1,0,3C765.5,99.1,764.6,99.6,763.6,99.6z M712.3,60.8h15.7l0,0.1L746.7,98c0.4,0.6,1,1.3,2.2,1.3h14.7
		c1,0,1.7-0.4,2.2-1.2c0.5-0.8,0.5-1.8,0-2.7l-19.2-35.8l0.2-0.1c12.7-5,20.6-15.8,20.6-28.1c0-16.6-13.6-30-30.4-30h-40.1
		c-1.5,0-2.6,1.3-2.6,2.6v92.7c0,1.2,1,2.6,2.6,2.6h13c1.5,0,2.6-1.3,2.6-2.6V60.8z M735.1,46.2h-23V18h23c7.6,0,14.1,6.3,14.1,13.7
		C749.2,39.6,742.8,46.2,735.1,46.2z M712.4,45.9h22.7c7.5,0,13.8-6.5,13.8-14.2c0-7.3-6.3-13.4-13.8-13.4h-22.7V45.9z"/>
	<path class="st0" d="M812.9,101.2c-17.8-0.2-27-8.1-30.5-11.1l0,0c-1.4-1.2-2-2.1-0.8-4.4l5-8.7c0.6-1.1,1.6-1.5,2.2-1.6
		c1-0.2,2,0,2.8,0.6c5.5,4.1,11.8,8.7,21,8.7c7.1,0,12.6-4.7,12.6-10.7c0-6.7-5.1-11.5-17.7-16.7c-8.1-3.3-13.9-6.8-18.1-11
		c-5.6-5.4-8.3-11.8-8.3-19.3c0-13,9.9-27,31.7-27c13.7,0,24.2,6.7,28.1,9.5c0.6,0.3,1.1,1.1,1.3,2c0.2,1.1,0.1,2.2-0.5,2.9
		l-5.4,7.9c-0.8,1.2-2,2-3.1,2.2c-0.7,0.1-1.4,0-2-0.5l-0.4-0.3c-5.9-3.8-11.5-7.4-19-7.4c-7.3,0-12.2,3.9-12.2,9.7
		c0,6.2,4.7,10.7,16.4,15.5c14.5,5.8,29.3,14.1,29.3,31.9c0,7.4-3.1,14.2-8.7,19.4C830.6,98.2,822.4,101.2,812.9,101.2z M782.6,89.9
		c3.4,3,12.6,10.8,30.3,11c9.4,0,17.5-2.9,23.5-8.4c5.6-5.1,8.6-11.9,8.6-19.2c0-17.6-14.7-25.8-29.1-31.6
		c-11.7-4.9-16.5-9.4-16.5-15.8c0-5,3.9-10,12.5-10c7.6,0,13.2,3.6,19.2,7.5l0.4,0.3c0.5,0.4,1.1,0.5,1.7,0.4c1-0.2,2.1-1,2.9-2.1
		l5.4-7.9c0.5-0.7,0.6-1.7,0.4-2.6c-0.2-0.8-0.6-1.5-1.1-1.8c-3.9-2.9-14.4-9.5-28-9.5c-21.6,0-31.4,13.9-31.4,26.7
		c0,7.5,2.7,13.8,8.2,19.1c4.2,4.1,10,7.6,18,10.9c12.7,5.2,17.9,10.1,17.9,17c0,6.2-5.7,11-12.9,11c-9.3,0-15.6-4.6-21.2-8.7
		c-0.7-0.5-1.7-0.7-2.6-0.5c-0.6,0.1-1.4,0.5-2,1.5l-5,8.7C780.7,88.1,781.4,88.8,782.6,89.9L782.6,89.9z"/>
</g>
</svg>
