<svg xmlns="http://www.w3.org/2000/svg" viewBox="0 0 917.11 100"><defs><style>.cls-1{fill:#fff;}</style></defs><g id="Layer_2" data-name="Layer 2"><g id="Layer_2-2" data-name="Layer 2"><path class="cls-1" d="M23.89,18.06H2.64A2.64,2.64,0,0,1,0,15.42V4A2.64,2.64,0,0,1,2.64,1.39H63.33A2.64,2.64,0,0,1,66,4V15.42a2.64,2.64,0,0,1-2.64,2.64H42.08V96a2.73,2.73,0,0,1-2.64,2.64H26.53A2.73,2.73,0,0,1,23.89,96Z"/><path class="cls-1" d="M78.86,4a2.63,2.63,0,0,1,2.63-2.64H138A2.64,2.64,0,0,1,140.66,4V15.42A2.64,2.64,0,0,1,138,18.06H96.91V40.83h34.31a2.73,2.73,0,0,1,2.64,2.64V55a2.64,2.64,0,0,1-2.64,2.64H96.91v24.3H138a2.64,2.64,0,0,1,2.64,2.64V96A2.64,2.64,0,0,1,138,98.61H81.49A2.63,2.63,0,0,1,78.86,96Z"/><path class="cls-1" d="M201,0c14,0,24.16,4.44,33.61,12.92a2.58,2.58,0,0,1,.13,3.89l-8.47,8.75a2.22,2.22,0,0,1-3.47,0,32.85,32.85,0,0,0-21.39-8.2c-17.77,0-31,14.86-31,32.36s13.33,32.09,31.11,32.09a33.35,33.35,0,0,0,21.25-7.92,2.56,2.56,0,0,1,3.47,0l8.61,8.89a2.64,2.64,0,0,1-.14,3.75A47.67,47.67,0,0,1,201,100,50,50,0,1,1,201,0Z"/><path class="cls-1" d="M250.41,4a2.73,2.73,0,0,1,2.64-2.64H266A2.64,2.64,0,0,1,268.61,4v36.8h45.27V4a2.64,2.64,0,0,1,2.64-2.64H329.3A2.73,2.73,0,0,1,331.94,4V96a2.73,2.73,0,0,1-2.64,2.64H316.52A2.64,2.64,0,0,1,313.88,96V57.64H268.61V96A2.64,2.64,0,0,1,266,98.61H253.05A2.73,2.73,0,0,1,250.41,96Z"/><path class="cls-1" d="M354.88,2.5A2.61,2.61,0,0,1,357.52,0h2.08A3.05,3.05,0,0,1,362,1l56.67,60.42h.27V4a2.64,2.64,0,0,1,2.64-2.64h12.78A2.73,2.73,0,0,1,437,4V97.5a2.61,2.61,0,0,1-2.64,2.5h-1.94A3.08,3.08,0,0,1,430,99L373.07,36.25h-.28V96a2.63,2.63,0,0,1-2.63,2.64H357.52A2.73,2.73,0,0,1,354.88,96Z"/><path class="cls-1" d="M503.84,0a50,50,0,1,1,0,100A49.56,49.56,0,0,1,454,50.14,49.8,49.8,0,0,1,503.84,0Zm0,81.94a31.94,31.94,0,1,0,0-63.88c-17.5,0-31.8,14.58-31.8,32.08A31.88,31.88,0,0,0,503.84,81.94Z"/><path class="cls-1" d="M570.93,4a2.64,2.64,0,0,1,2.64-2.64h12.78A2.73,2.73,0,0,1,589,4V81.94h35.42A2.63,2.63,0,0,1,627,84.58V96a2.63,2.63,0,0,1-2.63,2.64H573.57A2.64,2.64,0,0,1,570.93,96Z"/><path class="cls-1" d="M680.85,0a50,50,0,0,1,0,100A49.55,49.55,0,0,1,631,50.14,49.79,49.79,0,0,1,680.85,0Zm0,81.94a31.94,31.94,0,1,0,0-63.88c-17.5,0-31.81,14.58-31.81,32.08A31.89,31.89,0,0,0,680.85,81.94Z"/><path class="cls-1" d="M792.17,0a52.48,52.48,0,0,1,33.89,12.92,2.69,2.69,0,0,1,.14,3.89l-8.61,9a2.38,2.38,0,0,1-3.62,0,31.51,31.51,0,0,0-21-8c-17.36,0-31.11,14.86-31.11,32.22s13.75,31.81,31.25,31.81a43.45,43.45,0,0,0,16.53-3.48V66.53H798.56a2.52,2.52,0,0,1-2.64-2.5v-11a2.55,2.55,0,0,1,2.64-2.64h26.67a2.61,2.61,0,0,1,2.49,2.64V88.61a2.65,2.65,0,0,1-1.11,2.22,70.13,70.13,0,0,1-34.44,9,49.93,49.93,0,0,1,0-99.86Z"/><path class="cls-1" d="M866.54,51.8,834.87,5.42a2.57,2.57,0,0,1,2.22-4h14.17a2.74,2.74,0,0,1,2.22,1.25l22.23,31.94L897.93,2.64a2.74,2.74,0,0,1,2.22-1.25h14.31a2.57,2.57,0,0,1,2.22,4L884.59,51.67V96A2.73,2.73,0,0,1,882,98.61H869.18A2.64,2.64,0,0,1,866.54,96Z"/></g></g></svg>