<svg xmlns="http://www.w3.org/2000/svg" viewBox="0 0 658.03 100"><defs><style>.cls-1{fill:#fff;}</style></defs><g id="Layer_2" data-name="Layer 2"><g id="Layer_2-2" data-name="Layer 2"><path class="cls-1" d="M15.42,2.39A1.73,1.73,0,0,1,17.06,4V82.94H53.47a1.65,1.65,0,0,1,1.64,1.64V96a1.64,1.64,0,0,1-1.64,1.64H2.64A1.64,1.64,0,0,1,1,96V4A1.64,1.64,0,0,1,2.64,2.39H15.42m0-1H2.64A2.64,2.64,0,0,0,0,4V96a2.64,2.64,0,0,0,2.64,2.64H53.47A2.64,2.64,0,0,0,56.11,96V84.58a2.64,2.64,0,0,0-2.64-2.64H18.06V4a2.73,2.73,0,0,0-2.64-2.64Z"/><path class="cls-1" d="M109.91,1a48.91,48.91,0,0,1,49,49.14,48.93,48.93,0,1,1-97.86,0A49,49,0,0,1,75.28,15.36,48.39,48.39,0,0,1,109.91,1m0,81.94a32.94,32.94,0,0,0,0-65.88,32.41,32.41,0,0,0-23.17,9.77,32.87,32.87,0,0,0,23.17,56.11m0-82.94A49.8,49.8,0,0,0,60.05,50.14a49.93,49.93,0,0,0,99.86,0A49.91,49.91,0,0,0,109.91,0Zm0,81.94a31.88,31.88,0,0,1-31.8-31.8c0-17.5,14.3-32.08,31.8-32.08a31.94,31.94,0,1,1,0,63.88Z"/><path class="cls-1" d="M221.24,1a51.51,51.51,0,0,1,33.21,12.65A1.92,1.92,0,0,1,255,15a1.57,1.57,0,0,1-.49,1.13l-8.59,9a1.58,1.58,0,0,1-1,.54,1.9,1.9,0,0,1-1.19-.59,32.75,32.75,0,0,0-21.64-8.3C204.37,16.78,190,31.68,190,50c0,18.09,14.47,32.81,32.25,32.81a44.54,44.54,0,0,0,16.9-3.55l.63-.25V65.53H227.63A1.52,1.52,0,0,1,226,64v-11a1.55,1.55,0,0,1,1.64-1.64H254.3a1.61,1.61,0,0,1,1.49,1.64V88.61a1.68,1.68,0,0,1-.67,1.4,70,70,0,0,1-33.88,8.85,49,49,0,0,1-34.59-83.5A48.44,48.44,0,0,1,221.24,1m0-1a49.93,49.93,0,0,0,0,99.86,70.13,70.13,0,0,0,34.44-9,2.65,2.65,0,0,0,1.11-2.22V53.06a2.61,2.61,0,0,0-2.49-2.64H227.63A2.55,2.55,0,0,0,225,53.06V64a2.52,2.52,0,0,0,2.64,2.5h11.11v11.8a43.45,43.45,0,0,1-16.53,3.48C204.71,81.81,191,67.22,191,50s13.75-32.22,31.11-32.22a31.55,31.55,0,0,1,21,8,2.82,2.82,0,0,0,1.85.84,2.49,2.49,0,0,0,1.76-.84l8.61-9a2.69,2.69,0,0,0-.14-3.89A52.5,52.5,0,0,0,221.24,0Z"/><path class="cls-1" d="M292.5,2.39A1.73,1.73,0,0,1,294.14,4V96a1.72,1.72,0,0,1-1.64,1.64H279.58A1.72,1.72,0,0,1,277.94,96V4a1.73,1.73,0,0,1,1.64-1.64H292.5m0-1H279.58A2.73,2.73,0,0,0,276.94,4V96a2.73,2.73,0,0,0,2.64,2.64H292.5A2.73,2.73,0,0,0,295.14,96V4a2.73,2.73,0,0,0-2.64-2.64Z"/><path class="cls-1" d="M344.19,1c14.31,0,25.15,7.58,27.18,9.11l0,0,0,0a2,2,0,0,1,.81,1.32,2.45,2.45,0,0,1-.3,1.85l-5.28,7.92a3.42,3.42,0,0,1-2.56,1.67,1.62,1.62,0,0,1-.93-.29l-1-.65c-5.57-3.51-11.32-7.15-18.81-7.15-9.14,0-13.22,5.39-13.22,10.73,0,6.78,4.92,11.55,17,16.48,14.05,5.65,28.4,13.68,28.4,30.46,0,12.85-10.84,26.5-30.94,26.5-17.62,0-26.54-7.69-29.93-10.62-1-.83-1.43-1.14-.46-2.88l5-8.62a2.1,2.1,0,0,1,1.89-1.1,2.17,2.17,0,0,1,1.36.44c6.14,4.64,12.41,8.81,21.57,8.81,7.65,0,13.64-5.14,13.64-11.7,0-7.15-5.46-12.41-18.26-17.59-10.94-4.42-25.49-12.25-25.49-29.07A24.75,24.75,0,0,1,321,9.4C326.42,3.9,334.44,1,344.19,1m0-1c-22.08,0-31.25,14.31-31.25,26.67,0,16.39,13.06,24.72,26.11,30,11.67,4.72,17.64,9.58,17.64,16.66,0,6-5.41,10.7-12.64,10.7-9,0-15.27-4.31-21-8.61a3.2,3.2,0,0,0-2-.64,3.11,3.11,0,0,0-2.76,1.61l-5,8.61c-1.25,2.22-.7,3.06.69,4.17,4,3.47,13.06,10.83,30.56,10.83,19.58,0,31.94-13.19,31.94-27.5,0-17.92-15.55-26-29-31.39-11.24-4.58-16.38-9-16.38-15.55,0-5.28,4.3-9.73,12.22-9.73,7.64,0,13.33,3.89,19.3,7.64a2.64,2.64,0,0,0,1.47.45,4.43,4.43,0,0,0,3.4-2.11l5.27-7.92A3.43,3.43,0,0,0,372,9.31C369.19,7.22,358.36,0,344.19,0Z"/><path class="cls-1" d="M448,2.39A1.64,1.64,0,0,1,449.66,4V15.42A1.65,1.65,0,0,1,448,17.06H425.77V96a1.72,1.72,0,0,1-1.64,1.64H411.22A1.72,1.72,0,0,1,409.58,96V17.06H387.33a1.64,1.64,0,0,1-1.64-1.64V4a1.64,1.64,0,0,1,1.64-1.64H448m0-1H387.33A2.64,2.64,0,0,0,384.69,4V15.42a2.64,2.64,0,0,0,2.64,2.64h21.25V96a2.73,2.73,0,0,0,2.64,2.64h12.91A2.73,2.73,0,0,0,426.77,96V18.06H448a2.64,2.64,0,0,0,2.64-2.64V4A2.64,2.64,0,0,0,448,1.39Z"/><path class="cls-1" d="M479.1,2.39A1.73,1.73,0,0,1,480.74,4V96a1.72,1.72,0,0,1-1.64,1.64H466.18A1.72,1.72,0,0,1,464.54,96V4a1.73,1.73,0,0,1,1.64-1.64H479.1m0-1H466.18A2.73,2.73,0,0,0,463.54,4V96a2.73,2.73,0,0,0,2.64,2.64H479.1A2.73,2.73,0,0,0,481.74,96V4a2.73,2.73,0,0,0-2.64-2.64Z"/><path class="cls-1" d="M548.69,1c13,0,23.19,3.91,32.95,12.67a1.66,1.66,0,0,1,.62,1.21,1.68,1.68,0,0,1-.53,1.23l-8.48,8.75v0l0,0a1.31,1.31,0,0,1-.93.49,1.58,1.58,0,0,1-1.08-.54l0,0,0,0a33.89,33.89,0,0,0-22-8.44,31,31,0,0,0-22.88,9.94,34.09,34.09,0,0,0-9.09,23.42A33.54,33.54,0,0,0,526.3,73a31.36,31.36,0,0,0,23,9.85c7.85,0,15.21-2.74,21.91-8.17a1.7,1.7,0,0,1,1.11-.43,1.36,1.36,0,0,1,1,.38l8.61,8.88,0,0,0,0a1.14,1.14,0,0,1,.38.87,2,2,0,0,1-.55,1.41A46.49,46.49,0,0,1,548.69,99a49,49,0,0,1-34.78-14.22,49.14,49.14,0,0,1,0-69.42A48.83,48.83,0,0,1,548.69,1m0-1a50,50,0,1,0,0,100,47.67,47.67,0,0,0,33.75-13.47,2.64,2.64,0,0,0,.14-3.75L574,73.89a2.41,2.41,0,0,0-1.7-.68,2.67,2.67,0,0,0-1.77.68,33.35,33.35,0,0,1-21.25,7.92c-17.78,0-31.11-14.73-31.11-32.09s13.19-32.36,31-32.36a32.85,32.85,0,0,1,21.39,8.2,2.58,2.58,0,0,0,1.79.83,2.22,2.22,0,0,0,1.68-.83l8.47-8.75a2.58,2.58,0,0,0-.14-3.89C572.86,4.44,562.72,0,548.69,0Z"/><path class="cls-1" d="M625.66,1c14.31,0,25.15,7.58,27.18,9.11l0,0,0,0a2,2,0,0,1,.81,1.32,2.36,2.36,0,0,1-.3,1.85l-5.27,7.92a3.46,3.46,0,0,1-2.57,1.67,1.62,1.62,0,0,1-.93-.29l-1-.65c-5.56-3.51-11.32-7.15-18.81-7.15-9.13,0-13.22,5.39-13.22,10.73,0,6.78,4.93,11.55,17,16.48C642.67,47.69,657,55.72,657,72.5,657,85.35,646.18,99,626.08,99c-17.62,0-26.54-7.69-29.93-10.62-1-.83-1.43-1.14-.46-2.88l5-8.62a2.1,2.1,0,0,1,1.89-1.1,2.17,2.17,0,0,1,1.36.44c6.14,4.64,12.41,8.81,21.57,8.81,7.65,0,13.64-5.14,13.64-11.7,0-7.15-5.46-12.41-18.26-17.59C610,51.32,595.41,43.49,595.41,26.67A24.79,24.79,0,0,1,602.47,9.4C607.89,3.9,615.91,1,625.66,1m0-1c-22.08,0-31.25,14.31-31.25,26.67,0,16.39,13.06,24.72,26.11,30,11.67,4.72,17.64,9.58,17.64,16.66,0,6-5.41,10.7-12.64,10.7-9,0-15.27-4.31-21-8.61a3.16,3.16,0,0,0-2-.64,3.11,3.11,0,0,0-2.76,1.61l-5,8.61c-1.25,2.22-.69,3.06.69,4.17,4,3.47,13.06,10.83,30.56,10.83C645.66,100,658,86.81,658,72.5c0-17.92-15.56-26-29-31.39-11.25-4.58-16.39-9-16.39-15.55,0-5.28,4.3-9.73,12.22-9.73,7.64,0,13.33,3.89,19.31,7.64a2.58,2.58,0,0,0,1.46.45,4.41,4.41,0,0,0,3.4-2.11l5.27-7.92a3.42,3.42,0,0,0-.83-4.58C650.66,7.22,639.83,0,625.66,0Z"/></g></g></svg>