<svg xmlns="http://www.w3.org/2000/svg" viewBox="0 0 917.11 100"><defs><style>.cls-1{fill:#fff;}</style></defs><g id="Layer_2" data-name="Layer 2"><g id="Layer_2-2" data-name="Layer 2"><path class="cls-1" d="M63.33,2.39A1.64,1.64,0,0,1,65,4V15.42a1.64,1.64,0,0,1-1.64,1.64H41.08V96a1.72,1.72,0,0,1-1.64,1.64H26.53A1.72,1.72,0,0,1,24.89,96V17.06H2.64A1.64,1.64,0,0,1,1,15.42V4A1.64,1.64,0,0,1,2.64,2.39H63.33m0-1H2.64A2.64,2.64,0,0,0,0,4V15.42a2.64,2.64,0,0,0,2.64,2.64H23.89V96a2.73,2.73,0,0,0,2.64,2.64H39.44A2.73,2.73,0,0,0,42.08,96V18.06H63.33A2.64,2.64,0,0,0,66,15.42V4a2.64,2.64,0,0,0-2.64-2.64Z"/><path class="cls-1" d="M138,2.39A1.64,1.64,0,0,1,139.66,4V15.42A1.64,1.64,0,0,1,138,17.06H95.91V41.83h35.31a1.73,1.73,0,0,1,1.64,1.64V55a1.65,1.65,0,0,1-1.64,1.64H95.91v26.3H138a1.64,1.64,0,0,1,1.64,1.64V96A1.64,1.64,0,0,1,138,97.61H81.49A1.64,1.64,0,0,1,79.86,96V4a1.64,1.64,0,0,1,1.63-1.64H138m0-1H81.49A2.63,2.63,0,0,0,78.86,4V96a2.63,2.63,0,0,0,2.63,2.64H138A2.64,2.64,0,0,0,140.66,96V84.58A2.64,2.64,0,0,0,138,81.94H96.91V57.64h34.31A2.64,2.64,0,0,0,133.86,55V43.47a2.73,2.73,0,0,0-2.64-2.64H96.91V18.06H138a2.64,2.64,0,0,0,2.64-2.64V4A2.64,2.64,0,0,0,138,1.39Z"/><path class="cls-1" d="M201,1c13,0,23.18,3.9,32.94,12.66a1.69,1.69,0,0,1,.62,1.22,1.68,1.68,0,0,1-.53,1.23l-8.48,8.75v0l0,0a1.31,1.31,0,0,1-.93.49,1.6,1.6,0,0,1-1.08-.54l0,0,0,0a33.85,33.85,0,0,0-22-8.45,31,31,0,0,0-22.88,9.94,34.09,34.09,0,0,0-9.09,23.42A33.58,33.58,0,0,0,178.55,73a31.36,31.36,0,0,0,22.95,9.85c7.85,0,15.21-2.74,21.91-8.17a1.7,1.7,0,0,1,1.11-.43,1.39,1.39,0,0,1,1,.37l8.62,8.89,0,0,0,0a1.14,1.14,0,0,1,.38.87,2,2,0,0,1-.55,1.41A46.49,46.49,0,0,1,201,99a49.05,49.05,0,0,1-34.79-14.22,49.14,49.14,0,0,1,0-69.42A48.84,48.84,0,0,1,201,1m0-1a50,50,0,1,0,0,100,47.67,47.67,0,0,0,33.74-13.47,2.64,2.64,0,0,0,.14-3.75l-8.61-8.89a2.41,2.41,0,0,0-1.7-.68,2.69,2.69,0,0,0-1.77.68,33.35,33.35,0,0,1-21.25,7.92c-17.78,0-31.11-14.73-31.11-32.09s13.2-32.36,31-32.36a32.85,32.85,0,0,1,21.39,8.2,2.58,2.58,0,0,0,1.79.83,2.22,2.22,0,0,0,1.68-.83l8.47-8.75a2.58,2.58,0,0,0-.13-3.89C225.11,4.44,215,0,201,0Z"/><path class="cls-1" d="M329.3,2.39A1.73,1.73,0,0,1,330.94,4V96a1.73,1.73,0,0,1-1.64,1.64H316.52A1.64,1.64,0,0,1,314.88,96V56.64H267.61V96A1.64,1.64,0,0,1,266,97.61H253.05A1.73,1.73,0,0,1,251.41,96V4a1.73,1.73,0,0,1,1.64-1.64H266A1.64,1.64,0,0,1,267.61,4v37.8h47.27V4a1.64,1.64,0,0,1,1.64-1.64H329.3m0-1H316.52A2.64,2.64,0,0,0,313.88,4v36.8H268.61V4A2.64,2.64,0,0,0,266,1.39H253.05A2.73,2.73,0,0,0,250.41,4V96a2.73,2.73,0,0,0,2.64,2.64H266A2.64,2.64,0,0,0,268.61,96V57.64h45.27V96a2.64,2.64,0,0,0,2.64,2.64H329.3A2.73,2.73,0,0,0,331.94,96V4a2.73,2.73,0,0,0-2.64-2.64Z"/><path class="cls-1" d="M359.6,1a2,2,0,0,1,1.63.66L417.9,62.07l.29.32h1.71V4a1.64,1.64,0,0,1,1.64-1.64h12.78A1.73,1.73,0,0,1,436,4V97.5a1.62,1.62,0,0,1-1.64,1.5h-1.94a2,2,0,0,1-1.62-.64L373.81,35.58l-.29-.33h-1.73V96a1.64,1.64,0,0,1-1.63,1.64H357.52A1.72,1.72,0,0,1,355.88,96V2.5A1.61,1.61,0,0,1,357.52,1h2.08m0-1h-2.08a2.61,2.61,0,0,0-2.64,2.5V96a2.73,2.73,0,0,0,2.64,2.64h12.64A2.63,2.63,0,0,0,372.79,96V36.25h.28L430,99a3.08,3.08,0,0,0,2.37,1h1.94A2.61,2.61,0,0,0,437,97.5V4a2.73,2.73,0,0,0-2.64-2.64H421.54A2.64,2.64,0,0,0,418.9,4V61.39h-.27L362,1a3.05,3.05,0,0,0-2.36-1Z"/><path class="cls-1" d="M503.84,1a48.91,48.91,0,0,1,49,49.14,48.93,48.93,0,1,1-97.86,0,49,49,0,0,1,14.23-34.78A48.39,48.39,0,0,1,503.84,1m0,81.94a32.94,32.94,0,0,0,0-65.88,32.41,32.41,0,0,0-23.17,9.77,32.87,32.87,0,0,0,23.17,56.11m0-82.94A49.8,49.8,0,0,0,454,50.14a49.93,49.93,0,0,0,99.86,0A49.91,49.91,0,0,0,503.84,0Zm0,81.94A31.88,31.88,0,0,1,472,50.14c0-17.5,14.3-32.08,31.8-32.08a31.94,31.94,0,1,1,0,63.88Z"/><path class="cls-1" d="M586.35,2.39A1.73,1.73,0,0,1,588,4V82.94h36.42A1.64,1.64,0,0,1,626,84.58V96a1.64,1.64,0,0,1-1.63,1.64H573.57A1.64,1.64,0,0,1,571.93,96V4a1.64,1.64,0,0,1,1.64-1.64h12.78m0-1H573.57A2.64,2.64,0,0,0,570.93,4V96a2.64,2.64,0,0,0,2.64,2.64h50.84A2.63,2.63,0,0,0,627,96V84.58a2.63,2.63,0,0,0-2.63-2.64H589V4a2.73,2.73,0,0,0-2.64-2.64Z"/><path class="cls-1" d="M680.85,1a48.91,48.91,0,0,1,49,49.14,48.93,48.93,0,1,1-97.85,0,49,49,0,0,1,14.22-34.78A48.43,48.43,0,0,1,680.85,1m0,81.94a32.94,32.94,0,0,0,0-65.88,32.41,32.41,0,0,0-23.18,9.77,32.87,32.87,0,0,0,23.18,56.11m0-82.94A49.79,49.79,0,0,0,631,50.14a49.93,49.93,0,0,0,99.85,0A49.91,49.91,0,0,0,680.85,0Zm0,81.94A31.89,31.89,0,0,1,649,50.14c0-17.5,14.31-32.08,31.81-32.08a31.94,31.94,0,1,1,0,63.88Z"/><path class="cls-1" d="M792.17,1a51.51,51.51,0,0,1,33.21,12.65A2,2,0,0,1,826,15a1.57,1.57,0,0,1-.5,1.13l-8.59,9a1.58,1.58,0,0,1-1,.54,1.88,1.88,0,0,1-1.19-.59A32.29,32.29,0,0,0,793,16.78c-17.7,0-32.11,14.9-32.11,33.22,0,18.09,14.47,32.81,32.25,32.81A44.49,44.49,0,0,0,810,79.26l.63-.25V65.53H798.56a1.52,1.52,0,0,1-1.64-1.5v-11a1.55,1.55,0,0,1,1.64-1.64h26.67a1.61,1.61,0,0,1,1.49,1.64V88.61a1.68,1.68,0,0,1-.67,1.4,70.09,70.09,0,0,1-33.88,8.85,49,49,0,0,1-34.59-83.5A48.44,48.44,0,0,1,792.17,1m0-1a49.93,49.93,0,0,0,0,99.86,70.13,70.13,0,0,0,34.44-9,2.65,2.65,0,0,0,1.11-2.22V53.06a2.61,2.61,0,0,0-2.49-2.64H798.56a2.55,2.55,0,0,0-2.64,2.64V64a2.52,2.52,0,0,0,2.64,2.5h11.11v11.8a43.45,43.45,0,0,1-16.53,3.48c-17.5,0-31.25-14.59-31.25-31.81S775.64,17.78,793,17.78a31.51,31.51,0,0,1,21,8,2.86,2.86,0,0,0,1.86.84,2.49,2.49,0,0,0,1.76-.84l8.61-9a2.69,2.69,0,0,0-.14-3.89A52.48,52.48,0,0,0,792.17,0Z"/><path class="cls-1" d="M914.46,2.39a1.6,1.6,0,0,1,1.46.78,1.68,1.68,0,0,1-.08,1.7L883.77,51.1l-.18.25V96A1.72,1.72,0,0,1,882,97.61H869.18A1.64,1.64,0,0,1,867.54,96V51.5l-.18-.26L835.73,4.89a1.67,1.67,0,0,1-.1-1.72,1.6,1.6,0,0,1,1.46-.78h14.17a1.71,1.71,0,0,1,1.4.82l22.22,31.94.83,1.18.82-1.18,22.2-31.91a1.73,1.73,0,0,1,1.42-.85h14.31m0-1H900.15a2.74,2.74,0,0,0-2.22,1.25L875.71,34.58,853.48,2.64a2.74,2.74,0,0,0-2.22-1.25H837.09a2.57,2.57,0,0,0-2.22,4L866.54,51.8V96a2.64,2.64,0,0,0,2.64,2.64H882A2.73,2.73,0,0,0,884.59,96V51.67L916.68,5.42a2.57,2.57,0,0,0-2.22-4Z"/></g></g></svg>