<?xml version="1.0" encoding="utf-8"?>
<!-- Generator: Adobe Illustrator 25.4.1, SVG Export Plug-In . SVG Version: 6.00 Build 0)  -->
<svg version="1.1" id="Layer_1" xmlns="http://www.w3.org/2000/svg" xmlns:xlink="http://www.w3.org/1999/xlink" x="0px" y="0px"
	 viewBox="0 0 1019.2 100" style="enable-background:new 0 0 1019.2 100;" xml:space="preserve">
<style type="text/css">
	.st0{fill:#FFFFFF;}
</style>
<g>
	<path class="st0" d="M177.3,4c0-1.4,1.1-2.6,2.6-2.6h56.5c1.5,0,2.6,1.3,2.6,2.6v11.4c0,1.4-1.1,2.6-2.6,2.6h-41.1v22.8h34.3
		c1.4,0,2.6,1.3,2.6,2.6V55c0,1.5-1.2,2.6-2.6,2.6h-34.3v24.3h41.1c1.5,0,2.6,1.3,2.6,2.6V96c0,1.4-1.1,2.6-2.6,2.6h-56.5
		c-1.5,0-2.6-1.3-2.6-2.6V4z"/>
	<path class="st0" d="M257.3,2.5c0-1.4,1.2-2.5,2.6-2.5h2.1c1,0,1.7,0.3,2.4,1l56.7,60.4h0.3V4c0-1.4,1.1-2.6,2.6-2.6h12.8
		c1.4,0,2.6,1.3,2.6,2.6v93.5c0,1.4-1.2,2.5-2.6,2.5h-1.9c-1,0-1.7-0.3-2.4-1l-56.9-62.8h-0.3V96c0,1.4-1.1,2.6-2.6,2.6H260
		c-1.4,0-2.6-1.3-2.6-2.6V2.5z"/>
	<path class="st0" d="M351.6,95l43.2-93.5c0.4-0.8,1.1-1.5,2.4-1.5h1.4c1.4,0,1.9,0.7,2.4,1.5L443.6,95c0.8,1.8-0.3,3.6-2.4,3.6
		h-12.1c-2.1,0-3.1-0.8-4-2.8l-6.8-15h-41.5l-6.8,15c-0.6,1.4-1.8,2.8-4,2.8h-12.1C351.8,98.6,350.7,96.8,351.6,95z M411.6,65.4
		l-13.9-30.6h-0.4l-13.6,30.6H411.6z"/>
	<path class="st0" d="M505.8,49.4c8.1,2.8,16.7,9.3,16.7,22.4c0,15.5-13.3,26.8-30.3,26.8h-33.6c-1.5,0-2.6-1.3-2.6-2.6V4
		c0-1.4,1.1-2.6,2.6-2.6h31.8c16.5,0,29.3,11.1,29.3,25.7c0,10.4-6.7,18.1-13.9,21.7V49.4z M489,42.2c7.1,0,11.7-5.6,11.7-12.5
		c0-6.9-4.6-11.8-11.7-11.8h-15.1v24.3H489z M490.9,82.2c6.9,0,12.2-5.4,12.2-12.6c0-6.9-5.3-12.1-12.2-12.1h-17.1v24.7H490.9z"/>
	<path class="st0" d="M541.5,4c0-1.4,1.1-2.6,2.6-2.6h12.8c1.4,0,2.6,1.3,2.6,2.6v77.9H595c1.5,0,2.6,1.3,2.6,2.6V96
		c0,1.4-1.1,2.6-2.6,2.6h-50.8c-1.5,0-2.6-1.3-2.6-2.6V4z"/>
	<path class="st0" d="M611.7,4c0-1.4,1.1-2.6,2.6-2.6h56.5c1.5,0,2.6,1.3,2.6,2.6v11.4c0,1.4-1.1,2.6-2.6,2.6h-41.1v22.8H664
		c1.4,0,2.6,1.3,2.6,2.6V55c0,1.5-1.2,2.6-2.6,2.6h-34.3v24.3h41.1c1.5,0,2.6,1.3,2.6,2.6V96c0,1.4-1.1,2.6-2.6,2.6h-56.5
		c-1.5,0-2.6-1.3-2.6-2.6V4z"/>
	<path class="st0" d="M691.7,4c0-1.4,1.1-2.6,2.6-2.6h39.7c16.7,0,30.3,13.3,30.3,29.9c0,12.8-8.5,23.2-20.6,28l19,35.3
		c1,1.8,0,4-2.4,4h-14.6c-1.3,0-1.9-0.7-2.2-1.3l-18.5-36.8h-15.4V96c0,1.4-1.2,2.6-2.6,2.6h-12.8c-1.5,0-2.6-1.3-2.6-2.6V4z
		 M732.6,45.7c7.4,0,13.7-6.4,13.7-14.2c0-7.4-6.4-13.5-13.7-13.5h-22.6v27.6H732.6z"/>
	<path class="st0" d="M779.4,89.2c-1.4-1.1-1.9-1.9-0.7-4.2l5-8.6c1.1-1.9,3.5-1.9,4.7-1c5.7,4.3,11.9,8.6,21,8.6
		c7.2,0,12.6-4.7,12.6-10.7c0-7.1-6-11.9-17.6-16.7c-13-5.3-26.1-13.6-26.1-30c0-12.4,9.2-26.7,31.2-26.7c14.2,0,25,7.2,27.8,9.3
		c1.4,0.8,1.8,3.2,0.8,4.6l-5.3,7.9c-1.1,1.7-3.2,2.8-4.9,1.7c-6-3.8-11.7-7.6-19.3-7.6c-7.9,0-12.2,4.4-12.2,9.7
		c0,6.5,5.1,11,16.4,15.6c13.5,5.4,29,13.5,29,31.4c0,14.3-12.4,27.5-31.9,27.5C792.5,100,783.4,92.6,779.4,89.2z"/>
</g>
</svg>
