<svg xmlns="http://www.w3.org/2000/svg" viewBox="0 0 474.04 100"><defs><style>.cls-1{fill:#fff;}</style></defs><g id="Layer_2" data-name="Layer 2"><g id="Layer_2-2" data-name="Layer 2"><path class="cls-1" d="M63.33,2.39A1.64,1.64,0,0,1,65,4V15.42a1.64,1.64,0,0,1-1.64,1.64H41.08V96a1.72,1.72,0,0,1-1.64,1.64H26.53A1.72,1.72,0,0,1,24.89,96V17.06H2.64A1.64,1.64,0,0,1,1,15.42V4A1.64,1.64,0,0,1,2.64,2.39H63.33m0-1H2.64A2.64,2.64,0,0,0,0,4V15.42a2.64,2.64,0,0,0,2.64,2.64H23.89V96a2.73,2.73,0,0,0,2.64,2.64H39.44A2.73,2.73,0,0,0,42.08,96V18.06H63.33A2.64,2.64,0,0,0,66,15.42V4a2.64,2.64,0,0,0-2.64-2.64Z"/><path class="cls-1" d="M108.05,1a1.37,1.37,0,0,1,1.45.94l42.78,93.48a1.57,1.57,0,0,1,0,1.52,1.63,1.63,0,0,1-1.43.67H138.74c-1.56,0-2.27-.5-3.11-2.19l-6.81-15-.26-.59H85.74l-.27.59-6.82,15a3.2,3.2,0,0,1-3.1,2.15H63.47A1.64,1.64,0,0,1,62,96.94a1.6,1.6,0,0,1,0-1.52L105.2,2a1.49,1.49,0,0,1,1.46-1h1.39M91.65,66.42h31L122,65,108.13,34.45l-.27-.59h-1.71l-.26.6L92.27,65l-.62,1.41M108.05,0h-1.39a2.5,2.5,0,0,0-2.36,1.53L61.11,95a2.45,2.45,0,0,0,2.36,3.61H75.55a4.2,4.2,0,0,0,4-2.78l6.8-15h41.53l6.81,15c1,2,1.94,2.78,4,2.78h12.09A2.45,2.45,0,0,0,153.19,95L110.41,1.53A2.37,2.37,0,0,0,108.05,0ZM93.19,65.42,106.8,34.86h.42L121.1,65.42Z"/><path class="cls-1" d="M180.14,2.39A1.72,1.72,0,0,1,181.78,4V82.94H218.2a1.64,1.64,0,0,1,1.64,1.64V96a1.64,1.64,0,0,1-1.64,1.64H167.36A1.64,1.64,0,0,1,165.73,96V4a1.64,1.64,0,0,1,1.63-1.64h12.78m0-1H167.36A2.63,2.63,0,0,0,164.73,4V96a2.63,2.63,0,0,0,2.63,2.64H218.2A2.64,2.64,0,0,0,220.84,96V84.58a2.64,2.64,0,0,0-2.64-2.64H182.78V4a2.73,2.73,0,0,0-2.64-2.64Z"/><path class="cls-1" d="M292.21,2.39A1.64,1.64,0,0,1,293.84,4V15.42a1.64,1.64,0,0,1-1.63,1.64H250.1V41.83h35.3A1.73,1.73,0,0,1,287,43.47V55a1.64,1.64,0,0,1-1.64,1.64H250.1v26.3h42.11a1.64,1.64,0,0,1,1.63,1.64V96a1.64,1.64,0,0,1-1.63,1.64H235.68A1.64,1.64,0,0,1,234,96V4a1.64,1.64,0,0,1,1.64-1.64h56.53m0-1H235.68A2.64,2.64,0,0,0,233,4V96a2.64,2.64,0,0,0,2.64,2.64h56.53A2.63,2.63,0,0,0,294.84,96V84.58a2.63,2.63,0,0,0-2.63-2.64H251.1V57.64h34.3A2.64,2.64,0,0,0,288,55V43.47a2.73,2.73,0,0,0-2.64-2.64H251.1V18.06h41.11a2.63,2.63,0,0,0,2.63-2.64V4a2.63,2.63,0,0,0-2.63-2.64Z"/><path class="cls-1" d="M317.76,1a2,2,0,0,1,1.63.66l56.66,60.41.3.32h1.71V4a1.64,1.64,0,0,1,1.64-1.64h12.78A1.73,1.73,0,0,1,394.12,4V97.5a1.62,1.62,0,0,1-1.64,1.5h-2a2,2,0,0,1-1.62-.64L332,35.58l-.3-.33H330V96a1.64,1.64,0,0,1-1.64,1.64H315.67A1.73,1.73,0,0,1,314,96V2.5A1.62,1.62,0,0,1,315.67,1h2.09m0-1h-2.09A2.61,2.61,0,0,0,313,2.5V96a2.73,2.73,0,0,0,2.64,2.64h12.64A2.64,2.64,0,0,0,331,96V36.25h.28L388.17,99a3.07,3.07,0,0,0,2.36,1h2a2.61,2.61,0,0,0,2.64-2.5V4a2.73,2.73,0,0,0-2.64-2.64H379.7A2.64,2.64,0,0,0,377.06,4V61.39h-.28L320.12,1a3.07,3.07,0,0,0-2.36-1Z"/><path class="cls-1" d="M471.4,2.39A1.64,1.64,0,0,1,473,4V15.42a1.64,1.64,0,0,1-1.64,1.64H449.15V96a1.72,1.72,0,0,1-1.64,1.64H434.6A1.72,1.72,0,0,1,433,96V17.06H410.71a1.64,1.64,0,0,1-1.64-1.64V4a1.64,1.64,0,0,1,1.64-1.64H471.4m0-1H410.71A2.64,2.64,0,0,0,408.07,4V15.42a2.64,2.64,0,0,0,2.64,2.64H432V96a2.73,2.73,0,0,0,2.64,2.64h12.91A2.73,2.73,0,0,0,450.15,96V18.06H471.4A2.64,2.64,0,0,0,474,15.42V4a2.64,2.64,0,0,0-2.64-2.64Z"/></g></g></svg>