<svg xmlns="http://www.w3.org/2000/svg" viewBox="0 0 658.03 100"><defs><style>.cls-1{fill:#fff;}</style></defs><g id="Layer_2" data-name="Layer 2"><g id="Layer_2-2" data-name="Layer 2"><path class="cls-1" d="M0,4A2.64,2.64,0,0,1,2.64,1.39H15.42A2.73,2.73,0,0,1,18.06,4V81.94H53.47a2.64,2.64,0,0,1,2.64,2.64V96a2.64,2.64,0,0,1-2.64,2.64H2.64A2.64,2.64,0,0,1,0,96Z"/><path class="cls-1" d="M109.91,0a50,50,0,1,1,0,100A49.56,49.56,0,0,1,60.05,50.14,49.8,49.8,0,0,1,109.91,0Zm0,81.94a31.95,31.95,0,1,0,0-63.89c-17.5,0-31.8,14.59-31.8,32.09A31.88,31.88,0,0,0,109.91,81.94Z"/><path class="cls-1" d="M221.24,0a52.5,52.5,0,0,1,33.89,12.92,2.69,2.69,0,0,1,.14,3.89l-8.61,9a2.37,2.37,0,0,1-3.61,0,31.55,31.55,0,0,0-21-8C204.71,17.78,191,32.64,191,50s13.75,31.8,31.25,31.8a43.49,43.49,0,0,0,16.53-3.47V66.53H227.63A2.52,2.52,0,0,1,225,64v-11a2.55,2.55,0,0,1,2.64-2.64H254.3a2.61,2.61,0,0,1,2.49,2.64V88.61a2.65,2.65,0,0,1-1.11,2.22,70.13,70.13,0,0,1-34.44,9,49.93,49.93,0,0,1,0-99.86Z"/><path class="cls-1" d="M276.94,4a2.73,2.73,0,0,1,2.64-2.64H292.5A2.73,2.73,0,0,1,295.14,4V96a2.73,2.73,0,0,1-2.64,2.64H279.58A2.73,2.73,0,0,1,276.94,96Z"/><path class="cls-1" d="M314.05,89.17c-1.39-1.11-1.94-2-.69-4.17l5-8.61a3.21,3.21,0,0,1,4.72-1c5.7,4.3,11.95,8.61,21,8.61,7.23,0,12.64-4.72,12.64-10.7,0-7.08-6-11.94-17.64-16.66-13.05-5.28-26.11-13.61-26.11-30C312.94,14.31,322.11,0,344.19,0c14.17,0,25,7.22,27.78,9.31a3.43,3.43,0,0,1,.83,4.58l-5.27,7.92c-1.12,1.66-3.2,2.77-4.87,1.66-6-3.75-11.66-7.64-19.3-7.64-7.92,0-12.22,4.45-12.22,9.72,0,6.53,5.14,11,16.38,15.56,13.48,5.42,29,13.47,29,31.39,0,14.31-12.36,27.5-31.94,27.5C327.11,100,318.08,92.64,314.05,89.17Z"/><path class="cls-1" d="M408.58,18.05H387.33a2.63,2.63,0,0,1-2.64-2.63V4a2.64,2.64,0,0,1,2.64-2.64H448A2.64,2.64,0,0,1,450.66,4V15.42A2.63,2.63,0,0,1,448,18.05H426.77V96a2.73,2.73,0,0,1-2.64,2.64H411.22A2.73,2.73,0,0,1,408.58,96Z"/><path class="cls-1" d="M463.54,4a2.73,2.73,0,0,1,2.64-2.64H479.1A2.73,2.73,0,0,1,481.74,4V96a2.73,2.73,0,0,1-2.64,2.64H466.18A2.73,2.73,0,0,1,463.54,96Z"/><path class="cls-1" d="M548.69,0c14,0,24.17,4.44,33.61,12.92a2.58,2.58,0,0,1,.14,3.89L574,25.55a2.21,2.21,0,0,1-3.47,0,32.89,32.89,0,0,0-21.39-8.19c-17.78,0-31,14.86-31,32.36S531.47,81.8,549.25,81.8a33.34,33.34,0,0,0,21.25-7.91,2.56,2.56,0,0,1,3.47,0l8.61,8.89a2.64,2.64,0,0,1-.14,3.75A47.67,47.67,0,0,1,548.69,100a50,50,0,1,1,0-100Z"/><path class="cls-1" d="M595.52,89.17c-1.38-1.11-1.94-2-.69-4.17l5-8.61a3.21,3.21,0,0,1,4.72-1c5.7,4.3,12,8.61,21,8.61,7.23,0,12.64-4.72,12.64-10.7,0-7.08-6-11.94-17.64-16.66-13-5.28-26.11-13.61-26.11-30C594.41,14.31,603.58,0,625.66,0c14.17,0,25,7.22,27.78,9.31a3.42,3.42,0,0,1,.83,4.58L649,21.81c-1.12,1.66-3.2,2.77-4.86,1.66-6-3.75-11.67-7.64-19.31-7.64-7.92,0-12.22,4.45-12.22,9.72,0,6.53,5.14,11,16.39,15.56,13.47,5.42,29,13.47,29,31.39,0,14.31-12.37,27.5-31.95,27.5C608.58,100,599.55,92.64,595.52,89.17Z"/></g></g></svg>