<?xml version="1.0" encoding="utf-8"?>
<!-- Generator: Adobe Illustrator 25.4.1, SVG Export Plug-In . SVG Version: 6.00 Build 0)  -->
<svg version="1.1" id="Layer_1" xmlns="http://www.w3.org/2000/svg" xmlns:xlink="http://www.w3.org/1999/xlink" x="0px" y="0px"
	 viewBox="0 0 305.5 52.2" style="enable-background:new 0 0 305.5 52.2;" xml:space="preserve">
<style type="text/css">
	.st0{fill:#231F20;}
</style>
<g id="Layer_2_00000060032026049837767940000008963396968316999835_">
	<g id="Layer_1-2">
		<path class="st0" d="M48.4,51.4h-6.7c-0.8,0-1.5-0.7-1.5-1.5V9.7H29.3c-0.8,0-1.5-0.7-1.5-1.5V2.2c0-0.8,0.7-1.5,1.5-1.5h31.5
			c0.8,0,1.5,0.7,1.5,1.5v5.9c0,0.8-0.7,1.5-1.5,1.5H49.9v40.2C49.9,50.7,49.2,51.4,48.4,51.4z M29.3,1c-0.7,0-1.2,0.5-1.2,1.2
			c0,0,0,0,0,0v5.9c0,0.7,0.5,1.2,1.2,1.2h11.2v40.5c0,0.7,0.6,1.2,1.2,1.2h6.7c0.7,0,1.2-0.5,1.2-1.2V9.4h11.2
			c0.7,0,1.2-0.6,1.2-1.2c0,0,0,0,0,0V2.2C62,1.6,61.4,1,60.8,1c0,0,0,0,0,0H29.3z"/>
		<path class="st0" d="M107.5,51.4h-6.3c-1,0-1.9-0.6-2.2-1.5l-3.5-7.7H74.2l-3.5,7.7c-0.3,0.9-1.2,1.5-2.2,1.5h-6.3
			c-0.5,0-1-0.2-1.3-0.7c-0.3-0.4-0.3-1-0.1-1.4L83.2,0.9C83.4,0.3,84,0,84.6,0h0.7c0.6,0,1.1,0.3,1.3,0.9l22.2,48.5
			c0.2,0.4,0.2,1,0,1.4C108.5,51.2,108,51.5,107.5,51.4z M74,41.9h21.7l0.1,0.1l3.5,7.8c0.5,1,1,1.3,2,1.3h6.3
			c0.4,0,0.8-0.2,1.1-0.5c0.2-0.4,0.2-0.8,0-1.1L86.4,1c-0.2-0.5-0.6-0.7-1.1-0.7h-0.7c-0.5,0-0.9,0.3-1.1,0.7L61.1,49.5
			c-0.2,0.4-0.2,0.8,0,1.1c0.2,0.3,0.6,0.5,1,0.5h6.3c0.9,0,1.7-0.5,2-1.3L74,41.9z M92.3,34.2H77.4l0.1-0.2l7.1-15.9H85L92.3,34.2z
			 M77.8,33.9h14l-7.1-15.5l0,0L77.8,33.9z"/>
		<path class="st0" d="M142.8,51.4h-26.4c-0.8,0-1.5-0.7-1.5-1.5V2.2c0-0.8,0.7-1.5,1.5-1.5h6.6c0.8,0,1.5,0.7,1.5,1.5v40.2h18.2
			c0.8,0,1.5,0.7,1.5,1.5v5.9C144.3,50.7,143.6,51.4,142.8,51.4z M116.4,1c-0.7,0-1.2,0.5-1.2,1.2c0,0,0,0,0,0v47.7
			c0,0.7,0.6,1.2,1.2,1.2h26.4c0.7,0,1.2-0.5,1.2-1.2V44c0-0.7-0.6-1.2-1.2-1.2h-18.5V2.2c0-0.7-0.5-1.2-1.2-1.2H116.4z"/>
		<path class="st0" d="M182.1,51.4h-29.3c-0.8,0-1.5-0.7-1.5-1.5V2.2c0-0.8,0.7-1.5,1.5-1.5h29.3c0.8,0,1.5,0.7,1.5,1.5c0,0,0,0,0,0
			v5.9c0,0.8-0.7,1.5-1.5,1.5l0,0h-21.2v11.5h17.6c0.8,0,1.5,0.7,1.5,1.5v6c0,0.8-0.7,1.5-1.5,1.5h-17.6v12.3h21.2
			c0.8,0,1.5,0.7,1.5,1.5v5.9C183.6,50.7,182.9,51.4,182.1,51.4z M152.8,1c-0.7,0-1.2,0.5-1.2,1.2c0,0,0,0,0,0v47.7
			c0,0.7,0.6,1.2,1.2,1.2h29.3c0.7,0,1.2-0.5,1.2-1.2c0,0,0,0,0,0V44c0-0.7-0.5-1.2-1.2-1.2c0,0,0,0,0,0h-21.5V29.9h17.9
			c0.7,0,1.2-0.5,1.2-1.2c0,0,0,0,0,0v-6c0-0.7-0.5-1.2-1.2-1.2h-17.9V9.4h21.5c0.7,0,1.2-0.5,1.2-1.2c0,0,0,0,0,0V2.2
			c0-0.7-0.5-1.2-1.2-1.2c0,0,0,0,0,0H152.8z"/>
		<path class="st0" d="M234,52.2h-1c-0.5,0-1-0.2-1.3-0.6l-29.5-32.4v30.7c0,0.8-0.7,1.5-1.5,1.5c0,0,0,0,0,0h-6.6
			c-0.8-0.1-1.4-0.7-1.4-1.5V1.5c0-0.8,0.7-1.4,1.5-1.5h1.1c0.5,0,1,0.2,1.3,0.6l29.3,31.2V2.2c0-0.8,0.7-1.5,1.5-1.5h6.6
			c0.8,0,1.5,0.7,1.5,1.5v48.5C235.5,51.5,234.9,52.2,234,52.2z M202,18.8h0.4l0.1,0L232,51.4c0.3,0.3,0.7,0.5,1.1,0.5h1
			c0.6,0,1.2-0.5,1.2-1.1V2.2c0-0.7-0.6-1.2-1.3-1.2h-6.6c-0.7,0-1.2,0.6-1.2,1.2v29.9h-0.4l-0.1,0L196.4,0.8
			c-0.3-0.3-0.7-0.5-1.1-0.5h-1.1c-0.6,0-1.2,0.5-1.2,1.2v48.5c0,0.7,0.6,1.2,1.2,1.2h6.5c0.7,0,1.2-0.5,1.2-1.2L202,18.8z"/>
		<path class="st0" d="M263.8,51.4h-6.7c-0.8,0-1.5-0.7-1.5-1.5V9.7h-10.9c-0.8,0-1.5-0.7-1.5-1.5c0,0,0,0,0,0V2.2
			c0-0.8,0.7-1.5,1.5-1.5l0,0h31.5c0.8,0,1.5,0.7,1.5,1.5v5.9c0,0.8-0.7,1.5-1.5,1.5h-10.9v40.2C265.3,50.7,264.7,51.4,263.8,51.4z
			 M244.8,1c-0.7,0-1.2,0.5-1.2,1.2c0,0,0,0,0,0v5.9c0,0.7,0.5,1.2,1.2,1.2c0,0,0,0,0,0h11.2v40.5c0,0.7,0.6,1.2,1.2,1.2h6.7
			c0.7,0,1.2-0.5,1.2-1.2V9.4h11.2c0.7,0,1.2-0.5,1.2-1.2v0V2.2c0-0.7-0.5-1.2-1.2-1.2c0,0,0,0,0,0H244.8z"/>
	</g>
</g>
</svg>
