<svg xmlns="http://www.w3.org/2000/svg" viewBox="0 0 659.3 100"><defs><style>.cls-1{fill:#fff;}</style></defs><g id="Layer_2" data-name="Layer 2"><g id="Layer_2-2" data-name="Layer 2"><path class="cls-1" d="M0,4A2.64,2.64,0,0,1,2.64,1.39H59.17A2.63,2.63,0,0,1,61.8,4V15.42a2.63,2.63,0,0,1-2.63,2.63H18.06V40.83h34.3A2.73,2.73,0,0,1,55,43.47V55a2.64,2.64,0,0,1-2.64,2.64H18.06v24.3H59.17a2.63,2.63,0,0,1,2.63,2.64V96a2.63,2.63,0,0,1-2.63,2.64H2.64A2.64,2.64,0,0,1,0,96Z"/><path class="cls-1" d="M80,2.5A2.6,2.6,0,0,1,82.63,0h2.09a3.07,3.07,0,0,1,2.36,1l56.67,60.42H144V4a2.64,2.64,0,0,1,2.64-2.64h12.78A2.73,2.73,0,0,1,162.08,4V97.5a2.61,2.61,0,0,1-2.64,2.5H157.5a3.08,3.08,0,0,1-2.37-1L98.19,36.25h-.28V96a2.64,2.64,0,0,1-2.64,2.64H82.63A2.72,2.72,0,0,1,80,96Z"/><path class="cls-1" d="M173.61,95l43.2-93.47A2.48,2.48,0,0,1,219.17,0h1.39a2.35,2.35,0,0,1,2.36,1.53L265.7,95a2.45,2.45,0,0,1-2.36,3.61H251.25c-2.08,0-3.05-.83-4-2.78l-6.8-15H198.89l-6.81,15a4.17,4.17,0,0,1-4,2.78H176A2.45,2.45,0,0,1,173.61,95Zm60-29.58L219.73,34.86h-.42L205.7,65.42Z"/><path class="cls-1" d="M327.1,49.44c8,2.78,16.66,9.31,16.66,22.37,0,15.55-13.33,26.8-30.27,26.8H279.88A2.64,2.64,0,0,1,277.24,96V4a2.64,2.64,0,0,1,2.64-2.64h31.8C328.21,1.39,341,12.5,341,27.08c0,10.42-6.67,18.06-13.89,21.67Zm-16.81-7.22c7.09,0,11.67-5.55,11.67-12.5s-4.58-11.8-11.67-11.8H295.15v24.3Zm1.95,40c6.94,0,12.22-5.41,12.22-12.64A11.87,11.87,0,0,0,312.24,57.5H295.15V82.22Z"/><path class="cls-1" d="M362.11,4a2.64,2.64,0,0,1,2.64-2.64h12.78A2.73,2.73,0,0,1,380.16,4V81.94h35.42a2.64,2.64,0,0,1,2.64,2.64V96a2.64,2.64,0,0,1-2.64,2.64H364.75A2.64,2.64,0,0,1,362.11,96Z"/><path class="cls-1" d="M430.42,4a2.64,2.64,0,0,1,2.64-2.64h56.53A2.64,2.64,0,0,1,492.23,4V15.42a2.63,2.63,0,0,1-2.64,2.63H448.48V40.83h34.3a2.73,2.73,0,0,1,2.64,2.64V55a2.64,2.64,0,0,1-2.64,2.64h-34.3v24.3h41.11a2.64,2.64,0,0,1,2.64,2.64V96a2.64,2.64,0,0,1-2.64,2.64H433.06A2.64,2.64,0,0,1,430.42,96Z"/><path class="cls-1" d="M510.42,4a2.64,2.64,0,0,1,2.64-2.64h39.72a30.08,30.08,0,0,1,30.28,29.86c0,12.78-8.47,23.2-20.56,28.06l19,35.27a2.63,2.63,0,0,1-2.36,4H564.58a2.37,2.37,0,0,1-2.22-1.25l-18.47-36.8H528.47V96a2.73,2.73,0,0,1-2.63,2.64H513.06A2.64,2.64,0,0,1,510.42,96ZM551.25,45.7c7.36,0,13.75-6.39,13.75-14.17a13.83,13.83,0,0,0-13.75-13.48H528.61V45.7Z"/><path class="cls-1" d="M596.8,89.17c-1.39-1.11-1.94-2-.69-4.17l5-8.61a3.21,3.21,0,0,1,4.72-1c5.69,4.3,11.95,8.61,21,8.61,7.23,0,12.64-4.72,12.64-10.7,0-7.08-6-11.94-17.64-16.66-13-5.28-26.11-13.61-26.11-30C595.69,14.31,604.86,0,626.94,0c14.17,0,25,7.22,27.78,9.31a3.43,3.43,0,0,1,.83,4.58l-5.27,7.92c-1.12,1.66-3.2,2.77-4.87,1.66-6-3.75-11.66-7.64-19.3-7.64-7.92,0-12.22,4.45-12.22,9.72,0,6.53,5.14,11,16.38,15.56,13.48,5.42,29,13.47,29,31.39,0,14.31-12.36,27.5-31.94,27.5C609.86,100,600.83,92.64,596.8,89.17Z"/></g></g></svg>