<svg xmlns="http://www.w3.org/2000/svg" viewBox="0 0 659.3 100"><defs><style>.cls-1{fill:#fff;}</style></defs><g id="Layer_2" data-name="Layer 2"><g id="Layer_2-2" data-name="Layer 2"><path class="cls-1" d="M59.17,2.39A1.64,1.64,0,0,1,60.8,4V15.42a1.64,1.64,0,0,1-1.63,1.64H17.06V41.83h35.3A1.73,1.73,0,0,1,54,43.47V55a1.64,1.64,0,0,1-1.64,1.64H17.06v26.3H59.17a1.64,1.64,0,0,1,1.63,1.64V96a1.64,1.64,0,0,1-1.63,1.64H2.64A1.64,1.64,0,0,1,1,96V4A1.64,1.64,0,0,1,2.64,2.39H59.17m0-1H2.64A2.64,2.64,0,0,0,0,4V96a2.64,2.64,0,0,0,2.64,2.64H59.17A2.63,2.63,0,0,0,61.8,96V84.58a2.63,2.63,0,0,0-2.63-2.64H18.06V57.64h34.3A2.64,2.64,0,0,0,55,55V43.47a2.73,2.73,0,0,0-2.64-2.64H18.06V18.06H59.17a2.63,2.63,0,0,0,2.63-2.64V4a2.63,2.63,0,0,0-2.63-2.64Z"/><path class="cls-1" d="M84.72,1a2,2,0,0,1,1.63.66L143,62.07l.29.32H145V4a1.64,1.64,0,0,1,1.64-1.64h12.78A1.73,1.73,0,0,1,161.08,4V97.5a1.62,1.62,0,0,1-1.64,1.5H157.5a2,2,0,0,1-1.64-.66L98.93,35.58l-.3-.33H96.91V96a1.64,1.64,0,0,1-1.64,1.64H82.63A1.72,1.72,0,0,1,81,96V2.5A1.61,1.61,0,0,1,82.63,1h2.09m0-1H82.63A2.6,2.6,0,0,0,80,2.5V96a2.72,2.72,0,0,0,2.63,2.64H95.27A2.64,2.64,0,0,0,97.91,96V36.25h.28L155.13,99a3.08,3.08,0,0,0,2.37,1h1.94a2.61,2.61,0,0,0,2.64-2.5V4a2.73,2.73,0,0,0-2.64-2.64H146.66A2.64,2.64,0,0,0,144,4V61.39h-.27L87.08,1a3.07,3.07,0,0,0-2.36-1Z"/><path class="cls-1" d="M220.56,1a1.37,1.37,0,0,1,1.45.94l42.78,93.48a1.57,1.57,0,0,1,0,1.52,1.63,1.63,0,0,1-1.43.67H251.25c-1.57,0-2.27-.5-3.11-2.19l-6.81-15-.27-.59H198.25l-.27.59-6.82,15a3.2,3.2,0,0,1-3.1,2.15H176a1.63,1.63,0,0,1-1.43-.67,1.57,1.57,0,0,1,0-1.52L217.7,2a1.5,1.5,0,0,1,1.47-1h1.39m-16.4,65.42h31L234.52,65,220.64,34.45l-.27-.59h-1.71l-.27.59L204.78,65l-.62,1.41M220.56,0h-1.39a2.48,2.48,0,0,0-2.36,1.53L173.61,95A2.45,2.45,0,0,0,176,98.61h12.09a4.17,4.17,0,0,0,4-2.78l6.81-15h41.53l6.8,15c1,2,1.95,2.78,4,2.78h12.09A2.45,2.45,0,0,0,265.7,95L222.92,1.53A2.35,2.35,0,0,0,220.56,0ZM205.7,65.42l13.61-30.56h.42l13.88,30.56Z"/><path class="cls-1" d="M311.68,2.39a30.47,30.47,0,0,1,20.19,7.13A23.08,23.08,0,0,1,340,27.08c0,10.4-6.89,17.55-13.34,20.78l-.55.27v2l.67.23c6,2.06,16,7.58,16,21.42,0,14.71-12.58,25.8-29.27,25.8H279.88A1.64,1.64,0,0,1,278.24,96V4a1.64,1.64,0,0,1,1.64-1.64h31.8M294.15,43.22h16.14c7.34,0,12.67-5.68,12.67-13.5,0-7.66-5.09-12.8-12.67-12.8H294.15v26.3m0,40h18.09c7.53,0,13.22-5.86,13.22-13.64A12.87,12.87,0,0,0,312.24,56.5H294.15V83.22M311.68,1.39h-31.8A2.64,2.64,0,0,0,277.24,4V96a2.64,2.64,0,0,0,2.64,2.64h33.61c16.94,0,30.27-11.25,30.27-26.8,0-13.06-8.61-19.59-16.66-22.37v-.69C334.32,45.14,341,37.5,341,27.08c0-14.58-12.78-25.69-29.31-25.69ZM295.15,42.22V17.92h15.14c7.09,0,11.67,4.86,11.67,11.8s-4.58,12.5-11.67,12.5Zm0,40V57.5h17.09a11.87,11.87,0,0,1,12.22,12.08c0,7.23-5.28,12.64-12.22,12.64Z"/><path class="cls-1" d="M377.53,2.39A1.72,1.72,0,0,1,379.16,4V82.94h36.42a1.65,1.65,0,0,1,1.64,1.64V96a1.64,1.64,0,0,1-1.64,1.64H364.75A1.64,1.64,0,0,1,363.11,96V4a1.64,1.64,0,0,1,1.64-1.64h12.78m0-1H364.75A2.64,2.64,0,0,0,362.11,4V96a2.64,2.64,0,0,0,2.64,2.64h50.83A2.64,2.64,0,0,0,418.22,96V84.58a2.64,2.64,0,0,0-2.64-2.64H380.16V4a2.73,2.73,0,0,0-2.63-2.64Z"/><path class="cls-1" d="M489.59,2.39A1.64,1.64,0,0,1,491.23,4V15.42a1.65,1.65,0,0,1-1.64,1.64H447.48V41.83h35.3a1.72,1.72,0,0,1,1.64,1.64V55a1.64,1.64,0,0,1-1.64,1.64h-35.3v26.3h42.11a1.65,1.65,0,0,1,1.64,1.64V96a1.64,1.64,0,0,1-1.64,1.64H433.06A1.64,1.64,0,0,1,431.42,96V4a1.64,1.64,0,0,1,1.64-1.64h56.53m0-1H433.06A2.64,2.64,0,0,0,430.42,4V96a2.64,2.64,0,0,0,2.64,2.64h56.53A2.64,2.64,0,0,0,492.23,96V84.58a2.64,2.64,0,0,0-2.64-2.64H448.48V57.64h34.3A2.64,2.64,0,0,0,485.42,55V43.47a2.73,2.73,0,0,0-2.64-2.64h-34.3V18.06h41.11a2.64,2.64,0,0,0,2.64-2.64V4a2.64,2.64,0,0,0-2.64-2.64Z"/><path class="cls-1" d="M552.78,2.39a29.11,29.11,0,0,1,29.28,28.86c0,11.79-7.64,22.18-19.93,27.13l-1,.42.53,1,19,35.28a1.85,1.85,0,0,1,0,1.81,1.66,1.66,0,0,1-1.51.74H564.58a1.35,1.35,0,0,1-1.32-.7l-18.48-36.8-.27-.55h-17V96a1.72,1.72,0,0,1-1.63,1.64H513.06A1.64,1.64,0,0,1,511.42,96V4a1.64,1.64,0,0,1,1.64-1.64h39.72M527.61,46.7h23.64c8,0,14.75-7,14.75-15.17a14.8,14.8,0,0,0-14.75-14.47H527.61V46.7M552.78,1.39H513.06A2.64,2.64,0,0,0,510.42,4V96a2.64,2.64,0,0,0,2.64,2.64h12.78A2.73,2.73,0,0,0,528.47,96V60.56h15.42l18.47,36.8a2.37,2.37,0,0,0,2.22,1.25h14.59a2.63,2.63,0,0,0,2.36-4l-19-35.27c12.09-4.86,20.56-15.28,20.56-28.06A30.08,30.08,0,0,0,552.78,1.39ZM528.61,45.7V18.06h22.64A13.82,13.82,0,0,1,565,31.53c0,7.78-6.39,14.17-13.75,14.17Z"/><path class="cls-1" d="M626.94,1c14.31,0,25.15,7.58,27.18,9.11l0,0,0,0a2,2,0,0,1,.82,1.32,2.45,2.45,0,0,1-.3,1.85l-5.28,7.92a3.42,3.42,0,0,1-2.56,1.67,1.62,1.62,0,0,1-.93-.29l-1-.65c-5.57-3.51-11.32-7.15-18.81-7.15-9.14,0-13.22,5.39-13.22,10.73,0,6.78,4.92,11.55,17,16.48C644,47.69,658.3,55.72,658.3,72.5c0,12.85-10.84,26.5-30.94,26.5-17.62,0-26.55-7.69-29.93-10.62-1-.83-1.43-1.14-.46-2.88l5-8.62a2.1,2.1,0,0,1,1.89-1.1,2.17,2.17,0,0,1,1.36.44C611.37,80.86,617.64,85,626.8,85c7.65,0,13.64-5.14,13.64-11.7,0-7.15-5.46-12.41-18.26-17.59-10.94-4.42-25.49-12.25-25.49-29.07A24.75,24.75,0,0,1,603.75,9.4C609.17,3.9,617.19,1,626.94,1m0-1c-22.08,0-31.25,14.31-31.25,26.67,0,16.39,13.06,24.72,26.11,30,11.67,4.72,17.64,9.58,17.64,16.66,0,6-5.41,10.7-12.64,10.7-9,0-15.28-4.31-21-8.61a3.2,3.2,0,0,0-2-.64,3.11,3.11,0,0,0-2.76,1.61l-5,8.61c-1.25,2.22-.7,3.06.69,4.17,4,3.47,13.06,10.83,30.56,10.83,19.58,0,31.94-13.19,31.94-27.5,0-17.92-15.55-26-29-31.39-11.24-4.58-16.38-9-16.38-15.55,0-5.28,4.3-9.73,12.22-9.73,7.64,0,13.33,3.89,19.3,7.64a2.64,2.64,0,0,0,1.47.45,4.43,4.43,0,0,0,3.4-2.11l5.27-7.92a3.43,3.43,0,0,0-.83-4.58C651.94,7.22,641.11,0,626.94,0Z"/></g></g></svg>