<?xml version="1.0" encoding="utf-8"?>
<!-- Generator: Adobe Illustrator 25.4.1, SVG Export Plug-In . SVG Version: 6.00 Build 0)  -->
<svg version="1.1" id="Layer_1" xmlns="http://www.w3.org/2000/svg" xmlns:xlink="http://www.w3.org/1999/xlink" x="0px" y="0px"
	 viewBox="0 0 356.8 68" style="enable-background:new 0 0 356.8 68;" xml:space="preserve">
<style type="text/css">
	.st0{fill:#231F20;}
</style>
<g>
	<path class="st0" d="M1.6,17c0-0.7,0.6-1.4,1.4-1.4h6.8c0.7,0,1.4,0.7,1.4,1.4v41.4H30c0.8,0,1.4,0.7,1.4,1.4v6.1
		c0,0.7-0.6,1.4-1.4,1.4H3c-0.8,0-1.4-0.7-1.4-1.4V17z"/>
	<path class="st0" d="M61,14.8c14.8,0,26.6,11.9,26.6,26.7C87.6,56.2,75.8,68,61,68c-14.8,0-26.5-11.7-26.5-26.5
		C34.5,26.7,46.2,14.8,61,14.8z M61,58.4c9.3,0,17-7.6,17-16.9s-7.7-17.1-17-17.1s-16.9,7.8-16.9,17.1S51.7,58.4,61,58.4z"/>
	<path class="st0" d="M120.6,14.8c6.6,0,13,2.6,18,6.9c0.6,0.6,0.7,1.5,0.1,2.1l-4.6,4.8c-0.6,0.6-1.3,0.6-1.9,0
		c-3.2-2.8-7.1-4.3-11.2-4.3c-9.2,0-16.5,7.9-16.5,17.1c0,9.2,7.3,16.9,16.6,16.9c4.1,0,7.3-1.3,8.8-1.8v-6.3H124
		c-0.8,0-1.4-0.6-1.4-1.3V43c0-0.8,0.6-1.4,1.4-1.4h14.2c0.7,0,1.3,0.7,1.3,1.4v18.9c0,0.6-0.3,1-0.6,1.2c0,0-7.6,4.8-18.3,4.8
		c-14.7,0-26.5-11.7-26.5-26.4C94.1,26.7,105.9,14.8,120.6,14.8z"/>
	<path class="st0" d="M150.1,17c0-0.7,0.7-1.4,1.4-1.4h6.9c0.7,0,1.4,0.7,1.4,1.4v48.9c0,0.7-0.7,1.4-1.4,1.4h-6.9
		c-0.7,0-1.4-0.7-1.4-1.4V17z"/>
	<path class="st0" d="M170.2,62.2c-0.7-0.6-1-1-0.4-2.2l2.7-4.6c0.6-1,1.8-1,2.5-0.5c3,2.3,6.4,4.6,11.2,4.6c3.8,0,6.7-2.5,6.7-5.7
		c0-3.8-3.2-6.4-9.4-8.9c-6.9-2.8-13.9-7.2-13.9-15.9c0-6.6,4.9-14.2,16.6-14.2c7.5,0,13.3,3.8,14.8,4.9c0.7,0.4,1,1.7,0.4,2.4
		l-2.8,4.2c-0.6,0.9-1.7,1.5-2.6,0.9c-3.2-2-6.2-4.1-10.3-4.1c-4.2,0-6.5,2.4-6.5,5.2c0,3.5,2.7,5.8,8.7,8.3
		c7.2,2.9,15.4,7.2,15.4,16.7c0,7.6-6.6,14.6-17,14.6C177.2,68,172.4,64.1,170.2,62.2z"/>
	<path class="st0" d="M220.9,24.4h-11.3c-0.8,0-1.4-0.7-1.4-1.4V17c0-0.7,0.6-1.4,1.4-1.4h32.3c0.8,0,1.4,0.7,1.4,1.4V23
		c0,0.7-0.6,1.4-1.4,1.4h-11.3v41.4c0,0.7-0.7,1.4-1.4,1.4h-6.9c-0.7,0-1.4-0.7-1.4-1.4V24.4z"/>
	<path class="st0" d="M251.5,17c0-0.7,0.7-1.4,1.4-1.4h6.9c0.7,0,1.4,0.7,1.4,1.4v48.9c0,0.7-0.7,1.4-1.4,1.4h-6.9
		c-0.7,0-1.4-0.7-1.4-1.4V17z"/>
	<path class="st0" d="M297.4,14.8c7.5,0,12.8,2.4,17.9,6.9c0.7,0.6,0.7,1.5,0.1,2.1l-4.5,4.7c-0.5,0.6-1.3,0.6-1.8,0
		c-3.1-2.7-7.2-4.4-11.4-4.4c-9.5,0-16.5,7.9-16.5,17.2c0,9.2,7.1,17.1,16.5,17.1c4.4,0,8.2-1.7,11.3-4.2c0.6-0.5,1.4-0.4,1.8,0
		l4.6,4.7c0.6,0.5,0.4,1.5-0.1,2c-5,4.9-11.4,7.2-17.9,7.2c-14.8,0-26.7-11.7-26.7-26.5C270.7,26.7,282.6,14.8,297.4,14.8z"/>
	<path class="st0" d="M322,62.2c-0.7-0.6-1-1-0.4-2.2l2.7-4.6c0.6-1,1.8-1,2.5-0.5c3,2.3,6.3,4.6,11.2,4.6c3.8,0,6.7-2.5,6.7-5.7
		c0-3.8-3.2-6.4-9.4-8.9c-6.9-2.8-13.9-7.2-13.9-15.9c0-6.6,4.9-14.2,16.6-14.2c7.5,0,13.3,3.8,14.8,4.9c0.7,0.4,1,1.7,0.4,2.4
		l-2.8,4.2c-0.6,0.9-1.7,1.5-2.6,0.9c-3.2-2-6.2-4.1-10.3-4.1c-4.2,0-6.5,2.4-6.5,5.2c0,3.5,2.7,5.8,8.7,8.3
		c7.2,2.9,15.4,7.2,15.4,16.7c0,7.6-6.6,14.6-17,14.6C329,68,324.2,64.1,322,62.2z"/>
</g>
</svg>
