<?xml version="1.0" encoding="utf-8"?>
<!-- Generator: Adobe Illustrator 25.4.1, SVG Export Plug-In . SVG Version: 6.00 Build 0)  -->
<svg version="1.1" id="Layer_1" xmlns="http://www.w3.org/2000/svg" xmlns:xlink="http://www.w3.org/1999/xlink" x="0px" y="0px"
	 viewBox="0 0 305.2 51.8" style="enable-background:new 0 0 305.2 51.8;" xml:space="preserve">
<style type="text/css">
	.st0{fill:#231F20;}
</style>
<g id="Layer_2_00000105390296634486680670000017972091910132728989_">
	<g id="Layer_1-2">
		<path class="st0" d="M12.4,9.4h-11C0.6,9.4,0,8.8,0,8c0,0,0,0,0,0V2.1c0-0.8,0.6-1.4,1.4-1.4h31.5c0.8,0,1.4,0.6,1.4,1.4V8
			c0,0.8-0.6,1.4-1.4,1.4h-11v40.4c0,0.7-0.6,1.3-1.4,1.4h-6.7c-0.7,0-1.3-0.6-1.4-1.4L12.4,9.4z"/>
		<path class="st0" d="M33,49.2L55.4,0.8C55.7,0.3,56.1,0,56.7,0h0.7c0.5,0,1,0.3,1.2,0.8l22.2,48.5c0.3,0.6,0.1,1.4-0.5,1.7
			c-0.2,0.1-0.5,0.2-0.7,0.1h-6.3c-0.9,0.1-1.8-0.5-2.1-1.4l-3.5-7.8H46.2l-3.5,7.8c-0.3,0.9-1.1,1.5-2.1,1.4h-6.3
			c-0.7,0.1-1.3-0.5-1.4-1.2C32.9,49.7,32.9,49.5,33,49.2z M64.2,33.9L57,18.1h-0.2l-7.1,15.8H64.2z"/>
		<path class="st0" d="M87.1,2.1c0-0.8,0.6-1.4,1.4-1.4h6.6c0.7,0,1.3,0.6,1.4,1.4v40.4h18.4c0.8,0,1.4,0.6,1.4,1.4l0,0v5.9
			c0,0.8-0.6,1.4-1.4,1.4c0,0,0,0,0,0H88.5c-0.8,0-1.4-0.6-1.4-1.3c0,0,0,0,0,0L87.1,2.1z"/>
		<path class="st0" d="M123.5,2.1c0-0.8,0.6-1.4,1.4-1.4h29.3c0.8,0,1.4,0.6,1.4,1.4V8c0,0.8-0.6,1.4-1.4,1.4h-21.3v11.8h17.8
			c0.7,0,1.3,0.6,1.4,1.4v6c0,0.8-0.6,1.4-1.3,1.4c0,0,0,0,0,0h-17.8v12.6h21.3c0.8,0,1.4,0.6,1.4,1.4v5.9c0,0.8-0.6,1.4-1.4,1.4
			c0,0,0,0,0,0h-29.3c-0.8,0-1.4-0.6-1.4-1.3c0,0,0,0,0,0L123.5,2.1z"/>
		<path class="st0" d="M165,1.3c0-0.7,0.6-1.3,1.3-1.3h1.1c0.5,0,0.9,0.2,1.2,0.5L198,31.8h0.1V2.1c0-0.8,0.6-1.4,1.3-1.4
			c0,0,0,0,0,0h6.6c0.7,0,1.3,0.6,1.4,1.4v48.5c0,0.7-0.6,1.3-1.4,1.3h-1c-0.5,0-0.9-0.2-1.2-0.5l-29.5-32.5h-0.1v31
			c0,0.8-0.6,1.4-1.4,1.4c0,0,0,0,0,0h-6.6c-0.7,0-1.3-0.7-1.3-1.4V1.3z"/>
		<path class="st0" d="M227.9,9.4h-11c-0.8,0-1.4-0.6-1.4-1.3c0,0,0,0,0,0V2.1c0-0.8,0.6-1.4,1.4-1.4h31.5c0.8,0,1.4,0.6,1.4,1.4V8
			c0,0.8-0.6,1.4-1.4,1.4h-11v40.4c0,0.7-0.6,1.3-1.4,1.4h-6.7c-0.7,0-1.3-0.6-1.4-1.4L227.9,9.4z"/>
	</g>
</g>
</svg>
