<?xml version="1.0" encoding="utf-8"?>
<!-- Generator: Adobe Illustrator 25.4.1, SVG Export Plug-In . SVG Version: 6.00 Build 0)  -->
<svg version="1.1" id="Layer_1" xmlns="http://www.w3.org/2000/svg" xmlns:xlink="http://www.w3.org/1999/xlink" x="0px" y="0px"
	 viewBox="0 0 453.7 68" style="enable-background:new 0 0 453.7 68;" xml:space="preserve">
<style type="text/css">
	.st0{fill:none;stroke:#231F20;stroke-width:0.3;stroke-miterlimit:10;}
</style>
<g>
	<path class="st0" d="M12.5,28.1H2.2c-0.7,0-1.3-0.6-1.3-1.3v-5.6c0-0.7,0.5-1.3,1.3-1.3h29.6c0.7,0,1.3,0.6,1.3,1.3v5.6
		c0,0.7-0.5,1.3-1.3,1.3H21.4v38c0,0.7-0.6,1.3-1.3,1.3h-6.3c-0.7,0-1.3-0.6-1.3-1.3V28.1z"/>
	<path class="st0" d="M40.5,21.2c0-0.7,0.5-1.3,1.3-1.3h27.5c0.7,0,1.3,0.6,1.3,1.3v5.6c0,0.7-0.5,1.3-1.3,1.3h-20v11.1H66
		c0.7,0,1.3,0.6,1.3,1.3v5.6c0,0.7-0.6,1.3-1.3,1.3H49.3v11.8h20c0.7,0,1.3,0.6,1.3,1.3V66c0,0.7-0.5,1.3-1.3,1.3H41.8
		c-0.7,0-1.3-0.6-1.3-1.3V21.2z"/>
	<path class="st0" d="M100.4,19.3c6.8,0,11.8,2.2,16.4,6.3c0.6,0.5,0.6,1.4,0.1,1.9l-4.1,4.3c-0.5,0.5-1.2,0.5-1.7,0
		c-2.8-2.5-6.6-4-10.4-4c-8.7,0-15.1,7.2-15.1,15.8c0,8.5,6.5,15.6,15.2,15.6c4.1,0,7.5-1.6,10.4-3.9c0.5-0.5,1.3-0.4,1.7,0l4.2,4.3
		c0.5,0.5,0.4,1.4-0.1,1.8c-4.6,4.5-10.4,6.6-16.4,6.6C86.9,68,76,57.2,76,43.7S86.9,19.3,100.4,19.3z"/>
	<path class="st0" d="M125.4,21.2c0-0.7,0.6-1.3,1.3-1.3h6.3c0.7,0,1.3,0.6,1.3,1.3v17.9h22.1V21.2c0-0.7,0.5-1.3,1.3-1.3h6.2
		c0.7,0,1.3,0.6,1.3,1.3V66c0,0.7-0.6,1.3-1.3,1.3h-6.2c-0.7,0-1.3-0.6-1.3-1.3V47.3h-22.1V66c0,0.7-0.5,1.3-1.3,1.3h-6.3
		c-0.7,0-1.3-0.6-1.3-1.3C125.4,66,125.4,21.2,125.4,21.2z"/>
	<path class="st0" d="M176.6,20.5c0-0.7,0.6-1.2,1.3-1.2h1c0.5,0,0.8,0.1,1.2,0.5l27.6,29.4h0.1v-28c0-0.7,0.5-1.3,1.3-1.3h6.2
		c0.7,0,1.3,0.6,1.3,1.3v45.6c0,0.7-0.6,1.2-1.3,1.2h-0.9c-0.5,0-0.8-0.1-1.2-0.5l-27.8-30.6h-0.1V66c0,0.7-0.5,1.3-1.3,1.3h-6.2
		c-0.7,0-1.3-0.6-1.3-1.3L176.6,20.5L176.6,20.5z"/>
	<path class="st0" d="M249.6,19.3c13.5,0,24.4,10.9,24.4,24.4S263.2,68,249.6,68c-13.5,0-24.3-10.8-24.3-24.3S236.1,19.3,249.6,19.3
		z M249.6,59.2c8.5,0,15.6-7,15.6-15.5s-7-15.6-15.6-15.6s-15.5,7.1-15.5,15.6S241.1,59.2,249.6,59.2z"/>
	<path class="st0" d="M282.7,21.2c0-0.7,0.5-1.3,1.3-1.3h6.2c0.7,0,1.3,0.6,1.3,1.3v38h17.3c0.7,0,1.3,0.6,1.3,1.3V66
		c0,0.7-0.5,1.3-1.3,1.3H284c-0.7,0-1.3-0.6-1.3-1.3V21.2z"/>
	<path class="st0" d="M337.2,19.3c13.5,0,24.4,10.9,24.4,24.4S350.8,68,337.2,68c-13.5,0-24.3-10.8-24.3-24.3
		C312.9,30.2,323.7,19.3,337.2,19.3z M337.2,59.2c8.5,0,15.6-7,15.6-15.5s-7-15.6-15.6-15.6s-15.5,7.1-15.5,15.6
		S328.7,59.2,337.2,59.2z"/>
	<path class="st0" d="M391.9,19.3c6.1,0,11.9,2.4,16.5,6.3c0.5,0.5,0.6,1.4,0.1,1.9l-4.2,4.4c-0.5,0.5-1.2,0.5-1.8,0
		c-2.9-2.6-6.5-3.9-10.2-3.9c-8.5,0-15.2,7.2-15.2,15.7c0,8.4,6.7,15.5,15.2,15.5c3.8,0,6.7-1.2,8.1-1.7v-5.8H395
		c-0.7,0-1.3-0.5-1.3-1.2v-5.3c0-0.7,0.5-1.3,1.3-1.3h13c0.7,0,1.2,0.6,1.2,1.3v17.3c0,0.5-0.3,0.9-0.5,1.1c0,0-7,4.4-16.8,4.4
		c-13.5,0-24.3-10.7-24.3-24.2C367.6,30.2,378.4,19.3,391.9,19.3z"/>
	<path class="st0" d="M428.2,44.5l-15.4-22.6c-0.5-0.9,0-2,1.1-2h6.9c0.5,0,0.9,0.3,1.1,0.6l10.8,15.6l10.8-15.6
		c0.2-0.3,0.5-0.6,1.1-0.6h7c1.1,0,1.6,1.1,1.1,2L437,44.4V66c0,0.7-0.6,1.3-1.3,1.3h-6.2c-0.7,0-1.3-0.6-1.3-1.3V44.5z"/>
</g>
</svg>
