<?xml version="1.0" encoding="utf-8"?>
<!-- Generator: Adobe Illustrator 25.4.1, SVG Export Plug-In . SVG Version: 6.00 Build 0)  -->
<svg version="1.1" id="Layer_1" xmlns="http://www.w3.org/2000/svg" xmlns:xlink="http://www.w3.org/1999/xlink" x="0px" y="0px"
	 viewBox="0 0 539.8 52.1" style="enable-background:new 0 0 539.8 52.1;" xml:space="preserve">
<style type="text/css">
	.st0{fill:none;stroke:#000000;stroke-width:0.3;}
</style>
<g>
	<path class="st0" d="M96.6,2.1c0-0.7,0.6-1.4,1.4-1.4h29.5c0.8,0,1.4,0.7,1.4,1.4V8c0,0.7-0.6,1.4-1.4,1.4H106v11.9h17.9
		c0.7,0,1.4,0.7,1.4,1.4v6c0,0.8-0.7,1.4-1.4,1.4H106v12.7h21.4c0.8,0,1.4,0.7,1.4,1.4V50c0,0.7-0.6,1.4-1.4,1.4H98
		c-0.8,0-1.4-0.7-1.4-1.4V2.1z"/>
	<path class="st0" d="M138.4,1.3c0-0.7,0.7-1.3,1.4-1.3h1.1c0.5,0,0.9,0.1,1.2,0.5L171.6,32h0.1V2.1c0-0.7,0.6-1.4,1.4-1.4h6.7
		c0.7,0,1.4,0.7,1.4,1.4v48.7c0,0.7-0.7,1.3-1.4,1.3h-1c-0.5,0-0.9-0.1-1.2-0.5l-29.7-32.7h-0.1V50c0,0.7-0.6,1.4-1.4,1.4h-6.6
		c-0.7,0-1.4-0.7-1.4-1.4V1.3z"/>
	<path class="st0" d="M187.5,49.5L210,0.8c0.2-0.4,0.6-0.8,1.2-0.8h0.7c0.7,0,1,0.4,1.2,0.8l22.3,48.7c0.4,0.9-0.1,1.9-1.2,1.9H228
		c-1.1,0-1.6-0.4-2.1-1.5l-3.5-7.8h-21.7l-3.5,7.8c-0.3,0.7-0.9,1.5-2.1,1.5h-6.3C187.6,51.4,187.1,50.5,187.5,49.5z M218.8,34.1
		l-7.2-15.9h-0.2l-7.1,15.9H218.8z"/>
	<path class="st0" d="M267.9,25.8c4.2,1.5,8.7,4.9,8.7,11.7c0,8.1-7,14-15.8,14h-17.5c-0.8,0-1.4-0.7-1.4-1.4V2.1
		c0-0.7,0.6-1.4,1.4-1.4h16.6c8.6,0,15.3,5.8,15.3,13.4c0,5.4-3.5,9.4-7.2,11.3V25.8z M259.1,22c3.7,0,6.1-2.9,6.1-6.5
		c0-3.6-2.4-6.1-6.1-6.1h-7.9V22H259.1z M260.1,42.9c3.6,0,6.4-2.8,6.4-6.6c0-3.6-2.8-6.3-6.4-6.3h-8.9v12.9H260.1z"/>
	<path class="st0" d="M286.5,2.1c0-0.7,0.6-1.4,1.4-1.4h6.7c0.7,0,1.4,0.7,1.4,1.4v40.6h18.5c0.8,0,1.4,0.7,1.4,1.4V50
		c0,0.7-0.6,1.4-1.4,1.4h-26.5c-0.8,0-1.4-0.7-1.4-1.4V2.1z"/>
	<path class="st0" d="M323.1,2.1c0-0.7,0.6-1.4,1.4-1.4H354c0.8,0,1.4,0.7,1.4,1.4V8c0,0.7-0.6,1.4-1.4,1.4h-21.4v11.9h17.9
		c0.7,0,1.4,0.7,1.4,1.4v6c0,0.8-0.6,1.4-1.4,1.4h-17.9v12.7H354c0.8,0,1.4,0.7,1.4,1.4V50c0,0.7-0.6,1.4-1.4,1.4h-29.5
		c-0.8,0-1.4-0.7-1.4-1.4V2.1z"/>
	<path class="st0" d="M364.9,2.1c0-0.7,0.6-1.4,1.4-1.4h20.7c8.7,0,15.8,7,15.8,15.6c0,6.7-4.4,12.1-10.7,14.6l9.9,18.4
		c0.5,0.9,0,2.1-1.2,2.1h-7.6c-0.7,0-1-0.4-1.2-0.7l-9.6-19.2h-8V50c0,0.7-0.6,1.4-1.4,1.4h-6.7c-0.8,0-1.4-0.7-1.4-1.4V2.1z
		 M386.1,23.8c3.8,0,7.2-3.3,7.2-7.4c0-3.8-3.3-7-7.2-7h-11.8v14.4H386.1z"/>
	<path class="st0" d="M410.6,46.5c-0.7-0.6-1-1-0.4-2.2l2.6-4.5c0.6-1,1.8-1,2.5-0.5c3,2.2,6.2,4.5,10.9,4.5c3.8,0,6.6-2.5,6.6-5.6
		c0-3.7-3.1-6.2-9.2-8.7c-6.8-2.8-13.6-7.1-13.6-15.6C410,7.5,414.8,0,426.3,0c7.4,0,13,3.8,14.5,4.9c0.7,0.4,0.9,1.7,0.4,2.4
		l-2.8,4.1c-0.6,0.9-1.7,1.5-2.5,0.9c-3.1-2-6.1-4-10.1-4c-4.1,0-6.4,2.3-6.4,5.1c0,3.4,2.7,5.7,8.5,8.1c7,2.8,15.1,7,15.1,16.4
		c0,7.5-6.4,14.3-16.7,14.3C417.4,52.1,412.7,48.3,410.6,46.5z"/>
</g>
</svg>
