<svg xmlns="http://www.w3.org/2000/svg" viewBox="0 0 722.05 100"><defs><style>.cls-1{fill:#fff;}</style></defs><g id="Layer_2" data-name="Layer 2"><g id="Layer_2-2" data-name="Layer 2"><path class="cls-1" d="M50.14,1c13,0,23.18,3.9,33,12.67a1.57,1.57,0,0,1,.08,2.44L74.7,24.86l0,0,0,0a1.27,1.27,0,0,1-.93.49,1.6,1.6,0,0,1-1.08-.54l0,0,0,0a33.82,33.82,0,0,0-22-8.45A31,31,0,0,0,27.67,26.3a34.09,34.09,0,0,0-9.09,23.42A33.55,33.55,0,0,0,27.75,73a31.33,31.33,0,0,0,23,9.85c7.84,0,15.2-2.74,21.9-8.17a1.7,1.7,0,0,1,1.11-.43,1.4,1.4,0,0,1,1,.38l8.61,8.88,0,0,0,0a1.18,1.18,0,0,1,.38.87,2,2,0,0,1-.56,1.41A46.49,46.49,0,0,1,50.14,99,49,49,0,0,1,15.36,84.78a49.13,49.13,0,0,1,0-69.42A48.84,48.84,0,0,1,50.14,1m0-1a50,50,0,1,0,0,100A47.69,47.69,0,0,0,83.89,86.53,2.65,2.65,0,0,0,84,82.78l-8.61-8.89a2.45,2.45,0,0,0-1.71-.68,2.69,2.69,0,0,0-1.77.68A33.32,33.32,0,0,1,50.7,81.81c-17.78,0-31.12-14.73-31.12-32.09s13.2-32.36,31-32.36a32.84,32.84,0,0,1,21.38,8.2,2.6,2.6,0,0,0,1.79.83,2.26,2.26,0,0,0,1.69-.83l8.47-8.75a2.58,2.58,0,0,0-.14-3.89C74.31,4.44,64.17,0,50.14,0Z"/><path class="cls-1" d="M172.47,2.39A1.72,1.72,0,0,1,174.1,4V62.92C174.1,83.49,157.88,99,136.36,99a38.39,38.39,0,0,1-26.8-10.35A35.27,35.27,0,0,1,98.74,62.92V4a1.73,1.73,0,0,1,1.64-1.64h13.2A1.64,1.64,0,0,1,115.22,4V61.94c0,12.37,8.69,21,21.14,21s21.27-8.57,21.27-20.86V4a1.64,1.64,0,0,1,1.64-1.64h13.2m0-1h-13.2A2.64,2.64,0,0,0,156.63,4V62.08c0,11.67-8.19,19.86-20.27,19.86s-20.14-8.19-20.14-20V4a2.64,2.64,0,0,0-2.64-2.64h-13.2A2.73,2.73,0,0,0,97.74,4V62.92C97.74,84,114.55,100,136.36,100S175.1,84,175.1,62.92V4a2.73,2.73,0,0,0-2.63-2.64Z"/><path class="cls-1" d="M222.64,1c14.31,0,25.15,7.59,27.18,9.11l0,0,0,0a2,2,0,0,1,.81,1.32,2.4,2.4,0,0,1-.3,1.85l-5.27,7.92a3.46,3.46,0,0,1-2.57,1.67,1.62,1.62,0,0,1-.93-.29l-1-.66c-5.56-3.51-11.31-7.14-18.8-7.14-9.13,0-13.22,5.39-13.22,10.73,0,6.78,4.93,11.55,17,16.48C239.65,47.69,254,55.72,254,72.5,254,85.35,243.16,99,223.06,99c-17.62,0-26.54-7.69-29.93-10.61-1-.84-1.43-1.15-.46-2.89l5-8.62a2.1,2.1,0,0,1,1.89-1.1,2.17,2.17,0,0,1,1.36.44C207.07,80.86,213.34,85,222.5,85c7.65,0,13.64-5.14,13.64-11.7,0-7.15-5.46-12.41-18.26-17.59-10.94-4.42-25.49-12.25-25.49-29.07A24.79,24.79,0,0,1,199.45,9.4C204.87,3.9,212.89,1,222.64,1m0-1c-22.08,0-31.25,14.31-31.25,26.67,0,16.39,13.06,24.72,26.11,30,11.67,4.72,17.64,9.58,17.64,16.66,0,6-5.41,10.7-12.64,10.7-9,0-15.27-4.31-21-8.61a3.18,3.18,0,0,0-2-.64,3.11,3.11,0,0,0-2.76,1.61l-5,8.61c-1.25,2.22-.69,3.06.69,4.17,4,3.47,13.06,10.83,30.56,10.83C242.64,100,255,86.81,255,72.5c0-17.92-15.56-26-29-31.39-11.25-4.58-16.39-9-16.39-15.55,0-5.28,4.3-9.73,12.22-9.73,7.64,0,13.33,3.89,19.31,7.64a2.58,2.58,0,0,0,1.46.45,4.43,4.43,0,0,0,3.4-2.11l5.27-7.92a3.42,3.42,0,0,0-.83-4.58C247.64,7.22,236.81,0,222.64,0Z"/><path class="cls-1" d="M326.47,2.39A1.64,1.64,0,0,1,328.11,4V15.42a1.64,1.64,0,0,1-1.64,1.64H304.22V96a1.72,1.72,0,0,1-1.63,1.64H289.67A1.73,1.73,0,0,1,288,96V17.06H265.78a1.64,1.64,0,0,1-1.64-1.64V4a1.64,1.64,0,0,1,1.64-1.64h60.69m0-1H265.78A2.64,2.64,0,0,0,263.14,4V15.42a2.64,2.64,0,0,0,2.64,2.64H287V96a2.73,2.73,0,0,0,2.64,2.64h12.92A2.73,2.73,0,0,0,305.22,96V18.06h21.25a2.64,2.64,0,0,0,2.64-2.64V4a2.64,2.64,0,0,0-2.64-2.64Z"/><path class="cls-1" d="M383.58,1a48.91,48.91,0,0,1,49,49.14,48.93,48.93,0,1,1-97.86,0,49,49,0,0,1,14.22-34.78A48.43,48.43,0,0,1,383.58,1m0,81.94a32.94,32.94,0,0,0,0-65.88,32.41,32.41,0,0,0-23.18,9.77,32.87,32.87,0,0,0,23.18,56.11m0-82.94a49.79,49.79,0,0,0-49.86,50.14,49.93,49.93,0,0,0,99.86,0A49.91,49.91,0,0,0,383.58,0Zm0,81.94a31.88,31.88,0,0,1-31.8-31.8c0-17.5,14.3-32.08,31.8-32.08a31.94,31.94,0,1,1,0,63.88Z"/><path class="cls-1" d="M533.34,1a1.36,1.36,0,0,1,1.51,1.26l16.4,93.37a1.82,1.82,0,0,1-.21,1.48,1.65,1.65,0,0,1-1.31.5H537.09a2,2,0,0,1-1.66-1.31l-8.19-52.56-.13-.85h-1.92l-.27.59-24.3,54.59,0,0v0a1.39,1.39,0,0,1-1.42.84h-2.5a1.49,1.49,0,0,1-1.45-.94L470.64,43.48l-.27-.59h-1.92l-.13.85-8.05,52.65a1.7,1.7,0,0,1-1.52,1.22H446.26a1.75,1.75,0,0,1-1.33-.5,1.86,1.86,0,0,1-.33-1.52L461.13,2.26v0A1.34,1.34,0,0,1,462.64,1h2.23a1.54,1.54,0,0,1,1.45.81l30.56,65.56.27.57h1.69l.27-.57L529.65,1.84A1.4,1.4,0,0,1,531.12,1h2.22m0-1h-2.22a2.41,2.41,0,0,0-2.37,1.39L498.2,66.94h-.42L467.23,1.39A2.54,2.54,0,0,0,464.87,0h-2.23a2.35,2.35,0,0,0-2.5,2.08L443.62,95.42a2.54,2.54,0,0,0,2.64,3.19h12.49a2.69,2.69,0,0,0,2.51-2.08l8.05-52.64h.42l24.58,54.58a2.49,2.49,0,0,0,2.36,1.53h2.5a2.35,2.35,0,0,0,2.36-1.53l24.31-54.58h.42l8.19,52.64a3,3,0,0,0,2.64,2.08h12.64a2.41,2.41,0,0,0,2.5-3.19L535.84,2.08A2.34,2.34,0,0,0,533.34,0Z"/><path class="cls-1" d="M628.58,2.39A1.64,1.64,0,0,1,630.22,4V15.42a1.64,1.64,0,0,1-1.64,1.64H586.47V41.83h35.31a1.73,1.73,0,0,1,1.64,1.64V55a1.64,1.64,0,0,1-1.64,1.64H586.47v26.3h42.11a1.64,1.64,0,0,1,1.64,1.64V96a1.64,1.64,0,0,1-1.64,1.64H572.06A1.64,1.64,0,0,1,570.42,96V4a1.64,1.64,0,0,1,1.64-1.64h56.52m0-1H572.06A2.64,2.64,0,0,0,569.42,4V96a2.64,2.64,0,0,0,2.64,2.64h56.52A2.64,2.64,0,0,0,631.22,96V84.58a2.64,2.64,0,0,0-2.64-2.64H587.47V57.64h34.31A2.64,2.64,0,0,0,624.42,55V43.47a2.73,2.73,0,0,0-2.64-2.64H587.47V18.06h41.11a2.64,2.64,0,0,0,2.64-2.64V4a2.64,2.64,0,0,0-2.64-2.64Z"/><path class="cls-1" d="M691.77,2.39a29.1,29.1,0,0,1,29.28,28.86c0,11.79-7.63,22.18-19.93,27.13l-1,.42.54,1,19,35.28a1.86,1.86,0,0,1,0,1.81,1.68,1.68,0,0,1-1.52.74H703.58a1.39,1.39,0,0,1-1.33-.7l-18.47-36.8-.28-.55h-17V96a1.73,1.73,0,0,1-1.64,1.64H652.05A1.64,1.64,0,0,1,650.41,96V4a1.64,1.64,0,0,1,1.64-1.64h39.72M666.61,46.7h23.63c8,0,14.76-7,14.76-15.17a14.81,14.81,0,0,0-14.76-14.47H666.61V46.7M691.77,1.39H652.05A2.64,2.64,0,0,0,649.41,4V96a2.64,2.64,0,0,0,2.64,2.64h12.78A2.73,2.73,0,0,0,667.47,96V60.56h15.41l18.48,36.8a2.37,2.37,0,0,0,2.22,1.25h14.58a2.63,2.63,0,0,0,2.36-4l-19-35.27c12.08-4.87,20.55-15.28,20.55-28.06A30.08,30.08,0,0,0,691.77,1.39ZM667.61,45.7V18.06h22.63A13.82,13.82,0,0,1,704,31.53c0,7.78-6.39,14.17-13.76,14.17Z"/></g></g></svg>