<?xml version="1.0" encoding="utf-8"?>
<!-- Generator: Adobe Illustrator 25.4.1, SVG Export Plug-In . SVG Version: 6.00 Build 0)  -->
<svg version="1.1" id="Layer_1" xmlns="http://www.w3.org/2000/svg" xmlns:xlink="http://www.w3.org/1999/xlink" x="0px" y="0px"
	 viewBox="0 0 276.8 51.8" style="enable-background:new 0 0 276.8 51.8;" xml:space="preserve">
<style type="text/css">
	.st0{fill:#231F20;}
</style>
<g>
	<path class="st0" d="M19.9,14.3c5.3,0,9.1,1.7,12.6,4.8c0.5,0.4,0.5,1,0.1,1.5l-3.2,3.3c-0.4,0.4-0.9,0.4-1.3,0
		c-2.2-1.9-5.1-3.1-8-3.1c-6.7,0-11.6,5.6-11.6,12.1c0,6.5,5,12,11.7,12c3.1,0,5.8-1.2,8-3c0.4-0.4,1-0.3,1.3,0l3.2,3.3
		c0.4,0.4,0.3,1-0.1,1.4c-3.5,3.4-8,5.1-12.7,5.1c-10.4,0-18.8-8.3-18.8-18.7C1.1,22.7,9.5,14.3,19.9,14.3z"/>
	<path class="st0" d="M38.7,15.8c0-0.5,0.5-1,1-1h4.9c0.6,0,1,0.5,1,1v21.7c0,4.4,3,7.5,7.6,7.5s7.6-3.1,7.6-7.4V15.8
		c0-0.5,0.4-1,1-1h4.9c0.5,0,1,0.5,1,1v22.1c0,7.9-6.3,13.9-14.5,13.9c-8.2,0-14.5-6-14.5-13.9V15.8z"/>
	<path class="st0" d="M74.7,47.7c-0.5-0.4-0.7-0.7-0.3-1.6l1.9-3.2c0.4-0.7,1.3-0.7,1.8-0.4c2.1,1.6,4.5,3.2,7.9,3.2
		c2.7,0,4.7-1.8,4.7-4c0-2.7-2.2-4.5-6.6-6.3c-4.9-2-9.8-5.1-9.8-11.2c0-4.6,3.4-10,11.7-10c5.3,0,9.4,2.7,10.4,3.5
		c0.5,0.3,0.7,1.2,0.3,1.7l-2,3c-0.4,0.6-1.2,1-1.8,0.6c-2.2-1.4-4.4-2.9-7.2-2.9c-3,0-4.6,1.7-4.6,3.6c0,2.4,1.9,4.1,6.1,5.8
		c5.1,2,10.9,5.1,10.9,11.8c0,5.4-4.6,10.3-12,10.3C79.6,51.8,76.2,49,74.7,47.7z"/>
	<path class="st0" d="M110.5,21.1h-8c-0.6,0-1-0.5-1-1v-4.3c0-0.5,0.4-1,1-1h22.8c0.6,0,1,0.5,1,1v4.3c0,0.5-0.4,1-1,1h-8v29.2
		c0,0.5-0.5,1-1,1h-4.8c-0.5,0-1-0.5-1-1V21.1z"/>
	<path class="st0" d="M147.7,14.3c10.4,0,18.7,8.4,18.7,18.8c0,10.4-8.3,18.7-18.7,18.7c-10.4,0-18.7-8.3-18.7-18.7
		C129,22.7,137.3,14.3,147.7,14.3z M147.7,45c6.6,0,12-5.4,12-11.9s-5.4-12-12-12c-6.6,0-11.9,5.5-11.9,12S141.1,45,147.7,45z"/>
	<path class="st0" d="M177,15.1c0.1-0.4,0.4-0.8,0.9-0.8h0.8c0.4,0,0.7,0.2,0.9,0.5l11.5,24.6c0.1,0,0.1,0,0.2,0l11.5-24.6
		c0.2-0.3,0.4-0.5,0.9-0.5h0.8c0.6,0,0.9,0.4,0.9,0.8l6.1,35c0.2,0.7-0.3,1.2-0.9,1.2h-4.7c-0.5,0-0.9-0.4-1-0.8l-3.1-19.7
		c-0.1,0-0.2,0-0.2,0l-9.1,20.5c-0.1,0.3-0.4,0.6-0.9,0.6h-0.9c-0.5,0-0.7-0.3-0.9-0.6l-9.2-20.5c0,0-0.1,0-0.2,0l-3,19.7
		c-0.1,0.4-0.5,0.8-0.9,0.8h-4.7c-0.7,0-1.1-0.5-1-1.2L177,15.1z"/>
	<path class="st0" d="M218.5,15.8c0-0.5,0.4-1,1-1h21.2c0.6,0,1,0.5,1,1v4.3c0,0.5-0.4,1-1,1h-15.4v8.5h12.9c0.5,0,1,0.5,1,1v4.3
		c0,0.6-0.5,1-1,1h-12.9V45h15.4c0.6,0,1,0.5,1,1v4.3c0,0.5-0.4,1-1,1h-21.2c-0.6,0-1-0.5-1-1V15.8z"/>
	<path class="st0" d="M248.4,15.8c0-0.5,0.4-1,1-1h14.9c6.2,0,11.4,5,11.4,11.2c0,4.8-3.2,8.7-7.7,10.5l7.1,13.2
		c0.4,0.7,0,1.5-0.9,1.5h-5.5c-0.5,0-0.7-0.3-0.8-0.5L261,37h-5.8v13.3c0,0.5-0.5,1-1,1h-4.8c-0.6,0-1-0.5-1-1V15.8z M263.8,31.4
		c2.8,0,5.2-2.4,5.2-5.3c0-2.8-2.4-5.1-5.2-5.1h-8.5v10.4H263.8z"/>
</g>
</svg>
