<svg xmlns="http://www.w3.org/2000/svg" viewBox="0 0 474.04 100"><defs><style>.cls-1{fill:#fff;}</style></defs><g id="Layer_2" data-name="Layer 2"><g id="Layer_2-2" data-name="Layer 2"><path class="cls-1" d="M23.89,18.06H2.64A2.64,2.64,0,0,1,0,15.42V4A2.64,2.64,0,0,1,2.64,1.39H63.33A2.64,2.64,0,0,1,66,4V15.42a2.64,2.64,0,0,1-2.64,2.64H42.08V96a2.73,2.73,0,0,1-2.64,2.64H26.53A2.73,2.73,0,0,1,23.89,96Z"/><path class="cls-1" d="M61.11,95,104.3,1.53A2.5,2.5,0,0,1,106.66,0h1.39a2.37,2.37,0,0,1,2.36,1.53L153.19,95a2.45,2.45,0,0,1-2.36,3.61H138.74c-2.08,0-3.05-.83-4-2.78l-6.81-15H86.38l-6.8,15a4.2,4.2,0,0,1-4,2.78H63.47A2.45,2.45,0,0,1,61.11,95Zm60-29.58L107.22,34.86h-.42L93.19,65.42Z"/><path class="cls-1" d="M164.73,4a2.63,2.63,0,0,1,2.63-2.64h12.78A2.73,2.73,0,0,1,182.78,4V81.94H218.2a2.64,2.64,0,0,1,2.64,2.64V96a2.64,2.64,0,0,1-2.64,2.64H167.36A2.63,2.63,0,0,1,164.73,96Z"/><path class="cls-1" d="M233,4a2.64,2.64,0,0,1,2.64-2.64h56.53A2.63,2.63,0,0,1,294.84,4V15.42a2.63,2.63,0,0,1-2.63,2.64H251.1V40.83h34.3A2.73,2.73,0,0,1,288,43.47V55a2.64,2.64,0,0,1-2.64,2.64H251.1v24.3h41.11a2.63,2.63,0,0,1,2.63,2.64V96a2.63,2.63,0,0,1-2.63,2.64H235.68A2.64,2.64,0,0,1,233,96Z"/><path class="cls-1" d="M313,2.5A2.61,2.61,0,0,1,315.67,0h2.09a3.07,3.07,0,0,1,2.36,1l56.66,60.42h.28V4a2.64,2.64,0,0,1,2.64-2.64h12.78A2.73,2.73,0,0,1,395.12,4V97.5a2.61,2.61,0,0,1-2.64,2.5h-2a3.07,3.07,0,0,1-2.36-1L331.23,36.25H331V96a2.64,2.64,0,0,1-2.64,2.64H315.67A2.73,2.73,0,0,1,313,96Z"/><path class="cls-1" d="M432,18.06H410.71a2.64,2.64,0,0,1-2.64-2.64V4a2.64,2.64,0,0,1,2.64-2.64H471.4A2.64,2.64,0,0,1,474,4V15.42a2.64,2.64,0,0,1-2.64,2.64H450.15V96a2.73,2.73,0,0,1-2.64,2.64H434.6A2.73,2.73,0,0,1,432,96Z"/></g></g></svg>