<svg xmlns="http://www.w3.org/2000/svg" viewBox="0 0 520.48 520.48"><defs><style>.cls-1{fill:#76bc21;}.cls-2{fill:#eb7423;}.cls-3{fill:#ffb71b;}.cls-4{fill:#007dc3;}.cls-5{fill:#8a69ae;}.cls-6{fill:#fff;}.cls-7{fill:none;stroke:#fff;stroke-miterlimit:10;}</style></defs><g id="Layer_2" data-name="Layer 2"><g id="Layer_1-2" data-name="Layer 1"><path class="cls-1" d="M192.88,511.67a261,261,0,0,0,59.88,8.81v-108a152.57,152.57,0,0,1-144.7-144.72H0C3.19,379.76,79.06,481.17,192.88,511.67Z"/><path class="cls-2" d="M511.67,327.6a260.88,260.88,0,0,0,8.81-59.87h-108A152.57,152.57,0,0,1,267.71,412.42v108C379.76,517.29,481.17,441.42,511.67,327.6Z"/><path class="cls-3" d="M327.6,8.81A261.43,261.43,0,0,0,267.72,0V108.05a152.57,152.57,0,0,1,144.7,144.73h108C517.29,140.72,441.42,39.31,327.6,8.81Z"/><path class="cls-4" d="M8.81,192.88A261.51,261.51,0,0,0,0,252.76H108.05a152.57,152.57,0,0,1,144.72-144.7V0C140.72,3.19,39.31,79.06,8.81,192.88Z"/><path class="cls-5" d="M260.22,392a131.8,131.8,0,1,0-131.8-131.8A131.79,131.79,0,0,0,260.22,392"/><path class="cls-6" d="M314.24,49.55l-2.72-.6a.31.31,0,0,1-.23-.36l.1-.45a.31.31,0,0,1,.36-.24l6.63,1.46a.3.3,0,0,1,.23.36l-.1.45a.31.31,0,0,1-.36.24l-2.72-.6-2.11,9.59a.3.3,0,0,1-.36.23l-.59-.13a.3.3,0,0,1-.23-.36Z"/><path class="cls-6" d="M316.56,60l7.49-9.14a.29.29,0,0,1,.31-.1l.15,0a.3.3,0,0,1,.22.24l1.88,11.66a.29.29,0,0,1-.38.33l-.61-.16a.3.3,0,0,1-.22-.25l-.46-2.85-5.49-1.48-1.81,2.25a.29.29,0,0,1-.31.1l-.62-.17A.28.28,0,0,1,316.56,60Zm8.22-1.3c-.31-1.89-.59-3.79-.9-5.68l-.12,0-3.62,4.46Z"/><path class="cls-6" d="M331.65,53.3a.31.31,0,0,1,.38-.2l.59.19a.31.31,0,0,1,.2.39l-3,9.35,4.39,1.41a.31.31,0,0,1,.2.38l-.15.44a.31.31,0,0,1-.38.2l-5.27-1.7a.31.31,0,0,1-.2-.38Z"/><path class="cls-6" d="M339.89,56a.3.3,0,0,1,.39-.18l5.9,2.21a.3.3,0,0,1,.18.39l-.16.43a.31.31,0,0,1-.39.18l-5-1.88-1.37,3.66,4.3,1.6a.32.32,0,0,1,.18.4l-.16.43a.3.3,0,0,1-.39.18L339,61.84l-1.43,3.82,5,1.88a.31.31,0,0,1,.17.4l-.16.43a.3.3,0,0,1-.39.18l-5.9-2.21a.3.3,0,0,1-.18-.39Z"/><path class="cls-6" d="M349.38,59.46a.29.29,0,0,1,.39-.14l.22.09a.29.29,0,0,1,.18.22l3,11h0l3.43-7.81a.31.31,0,0,1,.4-.15l.51.22a.32.32,0,0,1,.16.4l-4.33,9.86a.29.29,0,0,1-.39.14l-.12,0a.27.27,0,0,1-.18-.22l-3-11.19h0l-3.5,8a.31.31,0,0,1-.4.15l-.51-.22a.32.32,0,0,1-.16-.4Z"/><path class="cls-6" d="M362.58,66.57l-2.49-1.26a.29.29,0,0,1-.13-.4l.21-.42a.3.3,0,0,1,.4-.13l6.06,3a.3.3,0,0,1,.13.41l-.2.41a.31.31,0,0,1-.41.14l-2.49-1.26-4.42,8.77a.31.31,0,0,1-.41.14l-.54-.28a.31.31,0,0,1-.14-.4Z"/><path class="cls-6" d="M373.41,71a5.76,5.76,0,1,1-7.86,2.15A5.74,5.74,0,0,1,373.41,71Zm-5.18,9a4.64,4.64,0,1,0-1.71-6.31A4.65,4.65,0,0,0,368.23,80Z"/><path class="cls-6" d="M389.07,80.92a5.6,5.6,0,0,1,2.33,3.43.31.31,0,0,1-.24.38l-.6.1c-.19.06-.29,0-.33-.25a4.65,4.65,0,0,0-1.83-2.72,4.6,4.6,0,0,0-5.24,7.56,4.3,4.3,0,0,0,3.2.75.28.28,0,0,1,.33.25l.09.52c.05.15-.1.31-.26.34a5.66,5.66,0,0,1-4-.89,5.76,5.76,0,1,1,6.56-9.47Z"/><path class="cls-6" d="M398.69,88.08a5.76,5.76,0,1,1-8.08,1A5.73,5.73,0,0,1,398.69,88.08Zm-6.44,8.16a4.64,4.64,0,1,0-.77-6.49A4.66,4.66,0,0,0,392.25,96.24Z"/><path class="cls-6" d="M405.57,94.06a.3.3,0,0,1,.42,0l.18.16a.27.27,0,0,1,.1.27l-.64,11.35,0,0,5.71-6.34a.31.31,0,0,1,.43,0l.41.38a.32.32,0,0,1,0,.43l-7.21,8a.32.32,0,0,1-.42,0l-.1-.09a.27.27,0,0,1-.1-.27l.67-11.56h0l-5.83,6.46a.3.3,0,0,1-.43,0l-.42-.37a.31.31,0,0,1,0-.43Z"/><path class="cls-6" d="M418.19,106.16a.31.31,0,0,1,.42,0l2.45,2.61a5.6,5.6,0,1,1-8.17,7.66l-2.45-2.61a.3.3,0,0,1,0-.42Zm-4.6,9.42a4.51,4.51,0,0,0,6.58-6.16l-1.72-1.83-6.57,6.16Z"/><path class="cls-6" d="M426.69,115.46a.31.31,0,0,1,.43,0l.42.48a.31.31,0,0,1,0,.43l-8,6.91a.32.32,0,0,1-.43,0l-.42-.49a.32.32,0,0,1,0-.43Z"/><path class="cls-6" d="M422.34,124.53h.38c.27,0,.41,0,.4.34a4.62,4.62,0,0,0,.81,2.87,1.94,1.94,0,0,0,2.77.53c.86-.69.76-1.84.21-3.77s-.65-3.08.77-4.22c.85-.69,2.76-1.12,4.35.87a5.15,5.15,0,0,1,1.08,2.64c0,.1,0,.36-.36.42l-.31,0c-.26,0-.37-.1-.42-.39a3.73,3.73,0,0,0-.83-2,1.91,1.91,0,0,0-2.76-.62c-.88.71-.76,1.66-.35,3,.67,2.24.9,3.83-.54,5a3.23,3.23,0,0,1-4.46-.85A5.24,5.24,0,0,1,422,125C422,124.78,422,124.54,422.34,124.53Z"/><path class="cls-6" d="M439.05,130.39a5.69,5.69,0,0,1,1.06,4,.32.32,0,0,1-.36.28l-.6-.1c-.2,0-.27-.12-.23-.35a4.64,4.64,0,0,0-.82-3.18,4.6,4.6,0,0,0-7.45,5.39,4.23,4.23,0,0,0,2.76,1.77.27.27,0,0,1,.23.35l-.08.51a.31.31,0,0,1-.36.24,5.65,5.65,0,0,1-3.49-2.17,5.76,5.76,0,1,1,9.34-6.75Z"/><path class="cls-6" d="M433.14,141l11.69-1.69a.29.29,0,0,1,.3.14l.08.13a.29.29,0,0,1,0,.33l-6.48,9.86a.28.28,0,0,1-.5,0l-.34-.53a.3.3,0,0,1,0-.33l1.59-2.42-3.05-4.79-2.86.44a.28.28,0,0,1-.29-.13l-.35-.54A.29.29,0,0,1,433.14,141Zm6.95,4.59c1-1.6,2.11-3.2,3.16-4.8l-.07-.1-5.68.85Z"/><path class="cls-6" d="M448.81,146.26a.3.3,0,0,1,.41.11l1.74,3.08a3.56,3.56,0,1,1-6.2,3.52l-1.3-2.29-3.27,1.85a.32.32,0,0,1-.42-.12l-.3-.53a.31.31,0,0,1,.12-.41Zm-3.07,6.05a2.38,2.38,0,0,0,3.33.91,2.28,2.28,0,0,0,.8-3.24l-1.26-2.22-4.12,2.33Z"/><path class="cls-6" d="M443.44,158l11.81-.49a.29.29,0,0,1,.28.16l.07.14a.3.3,0,0,1,0,.33l-7.45,9.15a.28.28,0,0,1-.49-.06l-.29-.57a.29.29,0,0,1,0-.32l1.82-2.24L446.64,159l-2.88.14a.28.28,0,0,1-.28-.16l-.29-.57A.28.28,0,0,1,443.44,158Zm6.45,5.26c1.2-1.48,2.43-3,3.64-4.44l-.06-.12-5.74.27Z"/><path class="cls-6" d="M460.88,169.19a5.65,5.65,0,0,1,.18,4.15.32.32,0,0,1-.41.19l-.57-.23c-.19-.05-.23-.17-.15-.38a4.7,4.7,0,0,0-.11-3.28,4.6,4.6,0,0,0-8.44,3.65,4.28,4.28,0,0,0,2.31,2.33.28.28,0,0,1,.16.39l-.2.48c0,.16-.25.22-.4.16a5.68,5.68,0,0,1,0-10.46A5.76,5.76,0,0,1,460.88,169.19Z"/><path class="cls-6" d="M463.09,175.81a.32.32,0,0,1,.39.18l.23.59a.32.32,0,0,1-.17.4l-9.89,3.81a.32.32,0,0,1-.39-.18L453,180a.31.31,0,0,1,.17-.39Z"/><path class="cls-6" d="M464.91,180.54a.31.31,0,0,1,.38.18l1.14,3.4a5.6,5.6,0,1,1-10.62,3.57l-1.14-3.4a.3.3,0,0,1,.19-.37Zm-8.1,6.66a4.5,4.5,0,0,0,8.54-2.87l-.8-2.38L456,184.82Z"/><path class="cls-6" d="M458.31,193.88,470,195.73a.31.31,0,0,1,.24.22l0,.16a.28.28,0,0,1-.1.3l-9.12,7.5a.28.28,0,0,1-.47-.15l-.17-.62a.29.29,0,0,1,.1-.31l2.24-1.83-1.5-5.49-2.85-.43a.28.28,0,0,1-.24-.22l-.17-.61A.28.28,0,0,1,458.31,193.88Zm5.27,6.44,4.45-3.64,0-.12-5.68-.88Z"/><path class="cls-6" d="M471.73,203.66a.29.29,0,0,1,.35.22l.74,3.5a5.6,5.6,0,1,1-11,2.3l-.74-3.51a.31.31,0,0,1,.24-.34Zm-8.82,5.65a4.5,4.5,0,0,0,8.81-1.85l-.51-2.45-8.82,1.84Z"/><path class="cls-6" d="M64.29,179.8a.29.29,0,0,1-.17-.39l2.28-5.88a.31.31,0,0,1,.4-.17l.43.17a.3.3,0,0,1,.17.39l-2,5,3.64,1.42,1.66-4.28a.32.32,0,0,1,.4-.17l.43.16a.31.31,0,0,1,.17.4l-1.66,4.28,3.8,1.47,2-5a.3.3,0,0,1,.39-.18l.43.17a.31.31,0,0,1,.18.39l-2.29,5.88a.3.3,0,0,1-.39.17Z"/><path class="cls-6" d="M69.6,165.79a5.77,5.77,0,0,1,10.73.63l2.11-.61a.26.26,0,0,1,.34.34l-.32.69a.44.44,0,0,1-.32.27l-1.56.44a5.77,5.77,0,0,1-.5,3,5.76,5.76,0,0,1-10.48-4.79Zm9.46,4.32a4.52,4.52,0,0,0,.41-2.24l-2.66.74c-.3.08-.45-.08-.33-.36l.31-.67a.41.41,0,0,1,.31-.26l2.14-.59A4.6,4.6,0,0,0,76.79,164a4.64,4.64,0,1,0,2.27,6.14Z"/><path class="cls-6" d="M73.88,157.9a.31.31,0,0,1-.12-.41L74,157a.32.32,0,0,1,.42-.13L80.39,160a3,3,0,1,0,2.89-5.32l-6-3.2a.3.3,0,0,1-.13-.41l.29-.53a.31.31,0,0,1,.41-.13l6,3.23a4.24,4.24,0,0,1-4,7.48Z"/><path class="cls-6" d="M79.78,147.25a.32.32,0,0,1-.11-.42l.33-.55a.32.32,0,0,1,.42-.11l9.11,5.4a.32.32,0,0,1,.1.41l-.32.56a.33.33,0,0,1-.42.1Z"/><path class="cls-6" d="M82.33,142.92a.3.3,0,0,1-.09-.41l2-3a5.6,5.6,0,1,1,9.39,6.11l-2,3a.32.32,0,0,1-.42.08Zm10.25,2.21A4.5,4.5,0,0,0,85,140.22l-1.38,2.11,7.56,4.91Z"/><path class="cls-6" d="M96.9,139.8l-5.78-10.3a.29.29,0,0,1,0-.33l.09-.13a.3.3,0,0,1,.31-.11l11.53,2.5a.27.27,0,0,1,.17.46l-.37.52a.31.31,0,0,1-.31.11l-2.83-.61-3.36,4.57L97.8,139a.31.31,0,0,1,0,.32l-.38.52A.29.29,0,0,1,96.9,139.8Zm1.78-8.13-5.61-1.23-.08.1,2.84,5Z"/><path class="cls-6" d="M96.21,123.22a.31.31,0,0,1,0-.42L98.45,120a5.6,5.6,0,1,1,8.62,7.16L104.78,130a.31.31,0,0,1-.42,0Zm9.92,3.39a4.51,4.51,0,0,0-6.93-5.76l-1.61,1.93,6.93,5.76Z"/><path class="cls-6" d="M107.43,110.25a.29.29,0,0,1,0-.41l2.5-2.56a5.6,5.6,0,1,1,8,7.84l-2.51,2.56a.31.31,0,0,1-.42,0Zm9.61,4.2a4.51,4.51,0,0,0-6.44-6.31l-1.76,1.79,6.44,6.31Z"/><path class="cls-6" d="M116.45,101.27a.3.3,0,0,1,0-.43l4.66-4.25a.29.29,0,0,1,.42,0l.32.34a.3.3,0,0,1,0,.43l-4,3.63,2.63,2.88,3.39-3.1a.33.33,0,0,1,.43,0l.31.35a.3.3,0,0,1,0,.43l-3.39,3.09,2.76,3,4-3.62a.3.3,0,0,1,.43,0l.32.34a.31.31,0,0,1,0,.43L124,109.11a.3.3,0,0,1-.43,0Z"/><path class="cls-6" d="M131,88.24A5.62,5.62,0,0,1,135,87a.31.31,0,0,1,.29.34c0,.2-.07.44-.08.63s-.1.26-.34.24a4.89,4.89,0,0,0-3.16.9,4.61,4.61,0,0,0,5.69,7.26,6.09,6.09,0,0,0,1.85-2.31l-1.38-1.76-1.45,1.13a.29.29,0,0,1-.42,0l-.37-.46a.31.31,0,0,1,.06-.43l2.18-1.71a.3.3,0,0,1,.41.06l2.26,2.89a.39.39,0,0,1,.06.28,7.85,7.85,0,0,1-2.46,3.27A5.76,5.76,0,1,1,131,88.24Z"/><path class="cls-6" d="M137.29,84.08a.3.3,0,0,1,.08-.42l5.17-3.61a.3.3,0,0,1,.42.07l.27.38a.31.31,0,0,1-.08.43L138.74,84,141,87.21l3.76-2.63a.33.33,0,0,1,.43.07l.26.38a.31.31,0,0,1-.07.43l-3.77,2.62,2.33,3.35,4.41-3.07a.3.3,0,0,1,.43.07l.26.38a.3.3,0,0,1-.07.42l-5.17,3.61a.31.31,0,0,1-.43-.07Zm.4-2.93,1.17-2.68a.49.49,0,0,1,.71-.13c.27.16.43.39.32.59l-1.53,2.57c-.07.13-.26.12-.44,0S137.63,81.27,137.69,81.15Z"/><path class="cls-6" d="M145.51,78.21a.29.29,0,0,1,.11-.4l.2-.13a.3.3,0,0,1,.29,0l10.71,3.8h0l-4.48-7.26a.31.31,0,0,1,.09-.42l.48-.29a.32.32,0,0,1,.42.1L159,82.73a.3.3,0,0,1-.11.4l-.11.07a.28.28,0,0,1-.28,0L147.6,79.34h0l4.57,7.41a.3.3,0,0,1-.1.42l-.47.29a.32.32,0,0,1-.42-.1Z"/><path class="cls-6" d="M156.78,71.63a.3.3,0,0,1,.12-.41l5.54-3a.31.31,0,0,1,.41.12l.22.41a.3.3,0,0,1-.12.41l-4.72,2.57,1.86,3.43,4-2.19a.31.31,0,0,1,.41.12l.22.41a.31.31,0,0,1-.12.41l-4,2.19,1.94,3.59,4.73-2.57a.3.3,0,0,1,.41.12l.22.41a.3.3,0,0,1-.12.41l-5.54,3a.3.3,0,0,1-.41-.12Z"/><path class="cls-6" d="M165.64,66.91a.29.29,0,0,1,.14-.4l3.74-1.79a3.44,3.44,0,0,1,4.62,1.57,3.6,3.6,0,0,1-.73,4L177.14,73a.31.31,0,0,1,0,.54l-.69.33a.35.35,0,0,1-.42-.07l-3.66-2.84-2.76,1.32,1.76,3.68a.31.31,0,0,1-.15.4l-.56.27a.29.29,0,0,1-.4-.14Zm6.29,3a2.29,2.29,0,1,0-2-4.14l-2.8,1.34,2,4.14Z"/><path class="cls-6" d="M180.37,59.79a5.76,5.76,0,1,1-3.16,7.51A5.75,5.75,0,0,1,180.37,59.79Zm3.9,9.64a4.64,4.64,0,1,0-6-2.55A4.66,4.66,0,0,0,184.27,69.43Z"/><path class="cls-6" d="M71.34,336.67a.3.3,0,0,1,.38.17l.09.23a.28.28,0,0,1,0,.28l-5.54,9.93s0,0,0,0l7.9-3.2a.3.3,0,0,1,.4.17l.21.51a.32.32,0,0,1-.17.4l-10,4.05a.3.3,0,0,1-.38-.18l0-.11a.3.3,0,0,1,0-.29l5.66-10.12h0l-8.07,3.27a.29.29,0,0,1-.39-.17l-.21-.52a.31.31,0,0,1,.17-.39Z"/><path class="cls-6" d="M78.42,352.3a5.76,5.76,0,1,1-7.7-2.67A5.74,5.74,0,0,1,78.42,352.3Zm-9.37,4.51a4.64,4.64,0,1,0,2.16-6.17A4.64,4.64,0,0,0,69.05,356.81Z"/><path class="cls-6" d="M83.57,363.31a.3.3,0,0,1,.41.09l1.82,3.09a5.6,5.6,0,1,1-9.65,5.68l-1.82-3.08a.31.31,0,0,1,.12-.41ZM77,371.49a4.5,4.5,0,0,0,7.76-4.57l-1.27-2.17-7.77,4.58Z"/><path class="cls-6" d="M89.78,373.55a.32.32,0,0,1,.42.09l.34.54a.31.31,0,0,1-.09.42l-8.9,5.75a.32.32,0,0,1-.42-.1l-.34-.53a.3.3,0,0,1,.09-.42Z"/><path class="cls-6" d="M84.28,382l.38,0c.27,0,.4.07.37.36a4.72,4.72,0,0,0,.61,2.93,1.94,1.94,0,0,0,2.73.72c.9-.63.88-1.78.48-3.74s-.44-3.13,1.06-4.17c.89-.62,2.83-.91,4.28,1.18a5.17,5.17,0,0,1,.89,2.71c0,.11,0,.36-.39.39l-.31,0c-.26,0-.36-.13-.39-.42a3.71,3.71,0,0,0-.69-2.11c-1-1.4-2.15-1.2-2.7-.81-.94.65-.88,1.6-.57,3,.51,2.28.63,3.89-.9,4.95a3.24,3.24,0,0,1-4.39-1.16,5.27,5.27,0,0,1-.86-3.52C83.9,382.23,83.91,382,84.28,382Z"/><path class="cls-6" d="M100.59,388a5.63,5.63,0,0,1,1.18,4,.3.3,0,0,1-.34.28l-.61-.07c-.21,0-.27-.12-.24-.34a4.68,4.68,0,0,0-.92-3.16,4.6,4.6,0,0,0-7.28,5.62A4.28,4.28,0,0,0,95.19,396a.28.28,0,0,1,.25.34l-.07.52c0,.16-.2.27-.35.25a5.67,5.67,0,0,1-3.56-2.07,5.76,5.76,0,1,1,9.13-7Z"/><path class="cls-6" d="M104.13,393.22a.29.29,0,0,1,.42,0l2.71,3.14a3.45,3.45,0,0,1-.31,4.87,3.58,3.58,0,0,1-4,.34l-1.65,4.31a.31.31,0,0,1-.53.1l-.5-.59a.33.33,0,0,1,0-.42l1.79-4.28-2-2.32-3.09,2.66a.31.31,0,0,1-.43,0l-.41-.47a.31.31,0,0,1,0-.43Zm-1.29,6.87a2.3,2.3,0,1,0,3.48-3l-2-2.35-3.48,3Z"/><path class="cls-6" d="M111.05,401.1a.32.32,0,0,1,.43,0l.44.47a.32.32,0,0,1,0,.43l-7.76,7.2a.32.32,0,0,1-.43,0l-.44-.47a.31.31,0,0,1,0-.43Z"/><path class="cls-6" d="M115.16,405.13a.3.3,0,0,1,.36,0l.18.18a.3.3,0,0,1,.07.32l-3.92,8.5.06.06,8.4-4.1a.32.32,0,0,1,.32.07l.18.18a.3.3,0,0,1,0,.36l-6.07,9.11a.28.28,0,0,1-.47.07l-.46-.45a.34.34,0,0,1,0-.36l4.76-6.87,0,0-8,3.95a.34.34,0,0,1-.32-.06l-.2-.21a.3.3,0,0,1-.07-.31l3.8-8.11,0,0-6.77,4.89a.3.3,0,0,1-.36,0l-.46-.45a.28.28,0,0,1,.07-.47Z"/><path class="cls-6" d="M124,414a.32.32,0,0,1,.43,0l.47.43a.32.32,0,0,1,0,.43l-7.08,7.88a.31.31,0,0,1-.43,0l-.48-.43a.31.31,0,0,1,0-.43Z"/><path class="cls-6" d="M127.42,416.78a.3.3,0,0,1,.42,0l.18.15a.27.27,0,0,1,.12.26L128,428.53l0,0,5.43-6.58a.31.31,0,0,1,.43,0l.43.36a.31.31,0,0,1,0,.42L127.49,431a.31.31,0,0,1-.42,0L127,431a.27.27,0,0,1-.12-.26l.17-11.58h0l-5.54,6.71a.29.29,0,0,1-.43,0l-.43-.35a.3.3,0,0,1,0-.43Z"/><path class="cls-6" d="M129.43,432.19l10.29-5.8a.29.29,0,0,1,.32,0l.13.1a.27.27,0,0,1,.11.3l-2.47,11.54a.28.28,0,0,1-.46.17l-.52-.37a.31.31,0,0,1-.11-.31l.6-2.83-4.57-3.35-2.51,1.43a.29.29,0,0,1-.32,0l-.52-.38A.29.29,0,0,1,129.43,432.19Zm8.13,1.76c.4-1.87.82-3.74,1.22-5.61l-.1-.08-5,2.85Z"/><path class="cls-6" d="M149.75,433.1a5.58,5.58,0,0,1,2.43,3.36.3.3,0,0,1-.23.38l-.6.13c-.19.06-.29,0-.34-.24a4.66,4.66,0,0,0-1.9-2.68,4.6,4.6,0,0,0-5,7.71,4.29,4.29,0,0,0,3.22.66.28.28,0,0,1,.34.24l.1.51c.06.15-.09.33-.25.36a5.73,5.73,0,1,1,2.26-10.43Z"/><path class="cls-6" d="M154.88,436.85a.32.32,0,0,1,.42-.11l.55.33a.33.33,0,0,1,.1.42l-5.44,9.09a.31.31,0,0,1-.42.1l-.55-.33a.31.31,0,0,1-.1-.41Z"/><path class="cls-6" d="M163.3,441.13a5.76,5.76,0,1,1-7.79,2.35A5.74,5.74,0,0,1,163.3,441.13Zm-4.94,9.14a4.64,4.64,0,1,0-1.87-6.26A4.65,4.65,0,0,0,158.36,450.27Zm4.49-11.33,2.92-.16a.5.5,0,0,1,.44.57c0,.31-.16.57-.39.55l-3-.21c-.14,0-.23-.18-.23-.38S162.72,438.94,162.85,438.94Z"/><path class="cls-6" d="M170.31,445.1a.3.3,0,0,1,.4-.13l.22.1a.29.29,0,0,1,.18.22l2.76,11h0l3.56-7.75a.32.32,0,0,1,.41-.15l.5.24a.31.31,0,0,1,.15.4L174,458.85a.31.31,0,0,1-.4.14l-.11-.06a.25.25,0,0,1-.18-.22l-2.81-11.24h0l-3.63,7.9a.29.29,0,0,1-.4.15l-.51-.23a.31.31,0,0,1-.15-.4Z"/><path class="cls-6" d="M291.53,462.25a.3.3,0,0,1,.23-.35l3.54-.58a5.6,5.6,0,1,1,1.81,11.06l-3.54.58a.31.31,0,0,1-.34-.25Zm5.25,9.07a4.51,4.51,0,0,0-1.45-8.9l-2.48.41,1.45,8.89Z"/><path class="cls-6" d="M303.34,460.19a.32.32,0,0,1,.23-.36l.63-.13a.31.31,0,0,1,.36.24l2.13,10.37a.33.33,0,0,1-.23.36l-.63.13a.32.32,0,0,1-.36-.24Z"/><path class="cls-6" d="M306.32,459.74a.29.29,0,0,1,.17-.47l.62-.16a.31.31,0,0,1,.31.11l6,7.75h.06l1.74-9.66a.3.3,0,0,1,.22-.23l.62-.15a.28.28,0,0,1,.36.34l-2.15,11.61a.32.32,0,0,1-.22.24l-.16,0a.36.36,0,0,1-.31-.11Z"/><path class="cls-6" d="M318,456.66a.3.3,0,0,1,.2-.38l6-1.81a.29.29,0,0,1,.37.2l.14.45a.32.32,0,0,1-.21.38L319.39,457l1.12,3.74,4.39-1.32a.31.31,0,0,1,.38.2l.14.45a.31.31,0,0,1-.21.38l-4.39,1.31,1.17,3.91,5.15-1.54a.3.3,0,0,1,.37.2l.14.44a.31.31,0,0,1-.21.38l-6,1.81a.31.31,0,0,1-.38-.2Z"/><path class="cls-6" d="M326.83,453.94a.31.31,0,0,1,.19-.39l3.9-1.39a3.44,3.44,0,0,1,4.43,2,3.59,3.59,0,0,1-1.14,3.87l3.43,3.09a.31.31,0,0,1-.1.53l-.73.25a.34.34,0,0,1-.41-.1l-3.35-3.21-2.87,1,1.36,3.84a.31.31,0,0,1-.18.39l-.59.21a.32.32,0,0,1-.39-.19Zm5.95,3.67a2.29,2.29,0,1,0-1.54-4.32l-2.93,1,1.54,4.32Z"/><path class="cls-6" d="M339.58,459.1l.11-.38c.07-.25.16-.37.44-.28a4.58,4.58,0,0,0,3,0,1.93,1.93,0,0,0,1.29-2.5c-.42-1-1.55-1.25-3.55-1.27s-3.15-.25-3.85-1.94c-.41-1-.28-3,2.07-3.93a5.3,5.3,0,0,1,2.85-.28.36.36,0,0,1,.29.46l0,.32c0,.25-.2.32-.49.28a3.79,3.79,0,0,0-2.21.22c-1.57.65-1.63,1.85-1.38,2.47.43,1.05,1.38,1.2,2.84,1.21,2.33,0,3.93.21,4.63,1.93a3.23,3.23,0,0,1-2.08,4,5.17,5.17,0,0,1-3.61.08C339.72,459.51,339.48,459.45,339.58,459.1Z"/><path class="cls-6" d="M344.64,447a.31.31,0,0,1,.15-.4l.58-.26a.3.3,0,0,1,.4.15l4.35,9.66a.34.34,0,0,1-.15.41l-.59.26a.32.32,0,0,1-.4-.15Z"/><path class="cls-6" d="M348.68,445.16a.3.3,0,0,1,.12-.4l3.21-1.61a5.6,5.6,0,1,1,5,10l-3.21,1.61a.3.3,0,0,1-.39-.15Zm7.71,7.09a4.51,4.51,0,0,0-4-8.06l-2.24,1.12,4,8.06Z"/><path class="cls-6" d="M363.06,449.64l-1.12-11.76a.28.28,0,0,1,.14-.28l.14-.08a.28.28,0,0,1,.32,0l9.54,6.94a.28.28,0,0,1,0,.49l-.55.32a.29.29,0,0,1-.33,0l-2.33-1.7-4.93,2.82.3,2.87a.31.31,0,0,1-.15.29l-.56.32A.28.28,0,0,1,363.06,449.64Zm4.91-6.72c-1.55-1.12-3.09-2.26-4.63-3.39l-.11.07.58,5.71Z"/><path class="cls-6" d="M368.29,434.48a.3.3,0,0,1,.08-.41l3-1.95a5.6,5.6,0,1,1,6.1,9.39l-3,1.95a.3.3,0,0,1-.41-.09Zm8.47,6.18a4.5,4.5,0,0,0-4.91-7.55l-2.11,1.37,4.91,7.55Z"/><path class="cls-6" d="M386.56,433.25v-.38c0-.27.05-.41.35-.39a4.66,4.66,0,0,0,2.9-.73,2,2,0,0,0,.61-2.75c-.67-.87-1.82-.81-3.76-.32s-3.1.56-4.21-.89c-.65-.87-1-2.8,1-4.33a5.34,5.34,0,0,1,2.68-1c.1,0,.36,0,.4.38l0,.31c0,.26-.11.36-.4.4a3.75,3.75,0,0,0-2.08.77c-1.35,1-1.11,2.2-.7,2.74.68.91,1.63.81,3,.44,2.26-.6,3.86-.79,5,.7a3.23,3.23,0,0,1-1,4.43,5.18,5.18,0,0,1-3.47,1C386.8,433.62,386.56,433.62,386.56,433.25Z"/><path class="cls-6" d="M388.3,420.3a.31.31,0,0,1,0-.43l4.85-4a.31.31,0,0,1,.43,0l.3.36a.31.31,0,0,1,0,.43l-4.14,3.43,2.5,3,3.53-2.93a.32.32,0,0,1,.43,0l.29.36a.29.29,0,0,1,0,.43l-3.53,2.93,2.61,3.14,4.13-3.44a.31.31,0,0,1,.43,0l.3.36a.31.31,0,0,1,0,.43l-4.85,4a.29.29,0,0,1-.43,0Z"/><path class="cls-6" d="M400.56,416.58l-5.68-1.6a.29.29,0,0,1-.1-.51l.64-.59a.34.34,0,0,1,.3-.07l4.67,1.47h0l-1-4.81a.31.31,0,0,1,.1-.29l.64-.58a.28.28,0,0,1,.5.14l1.07,5.81,6,1.73a.29.29,0,0,1,.11.52l-.55.49a.31.31,0,0,1-.3.08l-5.07-1.5h0l1.05,5.17a.32.32,0,0,1-.1.29l-.55.49a.29.29,0,0,1-.51-.14Z"/><path class="cls-6" d="M402.1,408.15a.32.32,0,0,1,0-.43l.43-.43a.31.31,0,0,1,.43,0l4.78,4.74a3,3,0,1,0,4.28-4.28L407.21,403a.31.31,0,0,1,0-.43l.43-.43a.32.32,0,0,1,.43,0l4.85,4.81a4.24,4.24,0,0,1-6,6Z"/><path class="cls-6" d="M416.84,408.13,412,397.34a.28.28,0,0,1,.05-.32l.1-.12a.29.29,0,0,1,.32-.09l11.25,3.55a.28.28,0,0,1,.13.48l-.42.48a.32.32,0,0,1-.32.08l-2.75-.87-3.78,4.24,1.2,2.63a.32.32,0,0,1-.05.32l-.43.48A.28.28,0,0,1,416.84,408.13Zm2.52-7.93-5.48-1.75-.08.1,2.37,5.23Z"/><path class="cls-6" d="M417,392a.3.3,0,0,1,0-.43l.39-.48a.31.31,0,0,1,.43-.05l7.64,6.18,2.9-3.58a.29.29,0,0,1,.42-.05l.36.29a.3.3,0,0,1,.05.43l-3.48,4.31a.31.31,0,0,1-.43,0Z"/><path class="cls-6" d="M430.28,383.75l-6.59.06a.3.3,0,0,1-.23-.48l.44-.62a.32.32,0,0,1,.26-.12l5.51,0-1.77-5.22a.4.4,0,0,1,0-.3l.44-.61a.3.3,0,0,1,.53.06l2.08,6.27,4.17,2.95a.33.33,0,0,1,.07.43l-.36.51a.32.32,0,0,1-.43.07Z"/><path class="cls-6" d="M431.55,372.12a.3.3,0,0,1-.11-.4l1.87-3.06a5.6,5.6,0,1,1,9.57,5.82L441,377.55a.29.29,0,0,1-.4.08ZM441.86,374a4.51,4.51,0,0,0-7.7-4.68l-1.3,2.14,7.69,4.69Z"/><path class="cls-6" d="M437.64,361.9a.31.31,0,0,1-.12-.42l3-5.55a.3.3,0,0,1,.41-.12l.41.22a.3.3,0,0,1,.13.41l-2.55,4.73,3.44,1.85,2.17-4a.34.34,0,0,1,.42-.13l.41.22a.31.31,0,0,1,.12.42l-2.18,4,3.6,1.93,2.55-4.73a.29.29,0,0,1,.41-.12l.41.22a.3.3,0,0,1,.12.41l-3,5.55a.29.29,0,0,1-.41.12Z"/><path class="cls-6" d="M445.39,345.27a5.63,5.63,0,0,1,2.93-2.93.31.31,0,0,1,.42.17c.07.19.15.41.23.59s0,.28-.19.37a4.81,4.81,0,0,0-2.37,2.27,4.49,4.49,0,0,0,2.38,5.93,4.54,4.54,0,0,0,6-2.17,6,6,0,0,0,.56-2.91l-2-.91-.75,1.68a.3.3,0,0,1-.39.16l-.54-.24a.29.29,0,0,1-.15-.4l1.12-2.53a.3.3,0,0,1,.4-.14l3.34,1.49a.38.38,0,0,1,.19.22,7.87,7.87,0,0,1-.65,4,5.76,5.76,0,1,1-10.52-4.69Z"/><path class="cls-6" d="M447.12,336.64l-.52-2.88a.5.5,0,0,1,.51-.51c.31,0,.58.09.59.32l.18,3c0,.14-.15.25-.35.28S447.14,336.76,447.12,336.64Zm1.32,2.65a.32.32,0,0,1-.18-.4l2.27-5.89a.3.3,0,0,1,.39-.17l.43.17a.3.3,0,0,1,.18.39l-1.93,5,3.64,1.4,1.65-4.29a.32.32,0,0,1,.4-.17l.43.17a.3.3,0,0,1,.17.39l-1.65,4.29,3.82,1.46,1.93-5a.3.3,0,0,1,.39-.17l.43.16a.32.32,0,0,1,.18.4l-2.27,5.88a.3.3,0,0,1-.39.18Z"/><path class="cls-6" d="M451.55,330.59a.31.31,0,0,1-.18-.38l.07-.23a.29.29,0,0,1,.2-.2l10.63-4v0l-8.12-2.62a.31.31,0,0,1-.19-.39l.17-.53a.33.33,0,0,1,.38-.2l10.25,3.32a.3.3,0,0,1,.18.38l0,.12a.27.27,0,0,1-.2.2l-10.83,4.12h0l8.28,2.68a.3.3,0,0,1,.2.39l-.17.53a.31.31,0,0,1-.38.19Z"/><path class="cls-6" d="M455.36,319a.3.3,0,0,1-.22-.37l1.61-6.09a.31.31,0,0,1,.37-.22l.45.12a.3.3,0,0,1,.22.37l-1.38,5.2,3.78,1,1.17-4.44a.31.31,0,0,1,.37-.22l.45.12a.31.31,0,0,1,.22.37l-1.17,4.44,3.94,1,1.37-5.19a.31.31,0,0,1,.37-.22l.45.12a.3.3,0,0,1,.22.37L466,321.46a.31.31,0,0,1-.37.22Z"/><path class="cls-6" d="M457.65,310a.3.3,0,0,1-.23-.36l.85-4.06a3.45,3.45,0,0,1,4.06-2.71,3.59,3.59,0,0,1,2.71,3l4.43-1.31a.31.31,0,0,1,.4.37l-.16.75a.35.35,0,0,1-.31.29l-4.49,1.18-.63,3,4,.85a.31.31,0,0,1,.24.36l-.13.61a.3.3,0,0,1-.36.23Zm6.25-3.15a2.3,2.3,0,1,0-4.5-.95l-.64,3,4.49,1Z"/><path class="cls-6" d="M460,294.77a5.76,5.76,0,1,1,4.87,6.53A5.75,5.75,0,0,1,460,294.77Zm10.29,1.54a4.64,4.64,0,1,0-5.26,3.89A4.65,4.65,0,0,0,470.33,296.31Z"/><line class="cls-7" x1="204.63" y1="317.37" x2="315.81" y2="317.37"/><path class="cls-6" d="M173.3,208.72a.35.35,0,0,1,.36-.34h.28a.42.42,0,0,1,.32.13l7.76,8.27h0v-7.85a.36.36,0,0,1,.36-.36h1.75a.37.37,0,0,1,.36.36v12.79a.35.35,0,0,1-.36.34h-.26a.44.44,0,0,1-.33-.13l-7.79-8.59h0v8.17a.36.36,0,0,1-.36.36h-1.73a.37.37,0,0,1-.36-.36Z"/><path class="cls-6" d="M187.24,213.51a.41.41,0,0,1,.42-.42h1.54a.41.41,0,0,1,.42.42v4.66c0,1.15.4,1.74,1.48,1.74s1.42-.87,1.56-1.63v-4.77c0-.34.11-.42.47-.42h1.48a.41.41,0,0,1,.42.42v8a.41.41,0,0,1-.46.4,1.29,1.29,0,0,1-1.36-1.09,3.77,3.77,0,0,1-2.66,1.22c-2.72,0-3.31-1.69-3.31-3.91Z"/><path class="cls-6" d="M201.32,212.9a3.94,3.94,0,0,1,4,4.07,5.46,5.46,0,0,1,0,.57.45.45,0,0,1-.42.4h-5.62a2.11,2.11,0,0,0,2.18,2,2.86,2.86,0,0,0,1.88-.65c.21-.17.44-.19.57,0l.74,1a.36.36,0,0,1,0,.57,5,5,0,0,1-3.27,1.2,4.59,4.59,0,0,1,0-9.18Zm1.63,3.48a1.6,1.6,0,0,0-1.69-1.52,1.74,1.74,0,0,0-1.86,1.52Z"/><path class="cls-6" d="M206.87,221.28a.38.38,0,0,1-.12-.47l.57-1.14a.34.34,0,0,1,.52-.16,3.5,3.5,0,0,0,1.93.57c.67,0,1-.24,1-.62s-.49-.76-1.65-1.22c-1.69-.64-2.45-1.44-2.45-2.77s1-2.57,3.15-2.57a4.83,4.83,0,0,1,2.61.65.5.5,0,0,1,.19.61l-.5,1a.43.43,0,0,1-.55.17,4.35,4.35,0,0,0-1.75-.43c-.59,0-.83.28-.83.57s.43.61,1.25.95c1.69.68,2.91,1.29,2.91,3,0,1.38-1.18,2.62-3.38,2.62A4.9,4.9,0,0,1,206.87,221.28Z"/><path class="cls-6" d="M214.51,215.22a.42.42,0,0,1-.4-.42v-1.29a.39.39,0,0,1,.4-.42h.85v-2.43a.44.44,0,0,1,.42-.42h1.56a.4.4,0,0,1,.39.42v2.43h2.06a.41.41,0,0,1,.41.42v1.29a.43.43,0,0,1-.41.42h-2.06v3.53c0,.86.39,1.2.94,1.2a3.44,3.44,0,0,0,1.12-.21.34.34,0,0,1,.49.23l.25,1.14a.43.43,0,0,1-.25.51,4.56,4.56,0,0,1-2,.46c-1.79,0-2.91-1.16-2.91-3.15v-3.71Z"/><path class="cls-6" d="M222.11,213.42a.4.4,0,0,1,.45-.4,1.34,1.34,0,0,1,1.39,1.19,3.08,3.08,0,0,1,2.45-1.31c1,0,1.9.29,1.65.86l-.57,1.29a.37.37,0,0,1-.51.19,1.83,1.83,0,0,0-.82-.17,1.91,1.91,0,0,0-1.67.91v5.47c0,.33-.21.42-.49.42h-1.47a.43.43,0,0,1-.41-.42Z"/><path class="cls-6" d="M232.19,216.32a6.29,6.29,0,0,1,1.69.25,1.5,1.5,0,0,0-1.65-1.65,7.38,7.38,0,0,0-2,.32c-.29.09-.46-.11-.49-.38l-.19-1a.4.4,0,0,1,.28-.53,8.42,8.42,0,0,1,2.57-.44c2.54,0,3.74,1.43,3.74,3.82v4.83a.41.41,0,0,1-.46.4,1.29,1.29,0,0,1-1.31-.9,3.88,3.88,0,0,1-2.68,1,2.79,2.79,0,0,1-3-3C228.7,217.52,230,216.32,232.19,216.32Zm.06,4a1.9,1.9,0,0,0,1.58-.93v-1.29a3.46,3.46,0,0,0-1.29-.27c-1,0-1.56.48-1.56,1.26A1.15,1.15,0,0,0,232.25,220.31Z"/><path class="cls-6" d="M246.92,212.9a3.94,3.94,0,0,1,4,4.07,5.46,5.46,0,0,1,0,.57.45.45,0,0,1-.42.4h-5.62a2.11,2.11,0,0,0,2.18,2,2.86,2.86,0,0,0,1.88-.65c.21-.17.44-.19.57,0l.74,1a.37.37,0,0,1,0,.57,5,5,0,0,1-3.27,1.2,4.59,4.59,0,0,1,0-9.18Zm1.63,3.48a1.61,1.61,0,0,0-1.69-1.52,1.74,1.74,0,0,0-1.86,1.52Z"/><path class="cls-6" d="M252.47,221.28a.38.38,0,0,1-.12-.47l.57-1.14a.34.34,0,0,1,.52-.16,3.5,3.5,0,0,0,1.93.57c.67,0,1-.24,1-.62s-.49-.76-1.65-1.22c-1.69-.64-2.45-1.44-2.45-2.77s1-2.57,3.15-2.57a4.86,4.86,0,0,1,2.61.65.5.5,0,0,1,.19.61l-.5,1a.43.43,0,0,1-.55.17,4.39,4.39,0,0,0-1.75-.43c-.59,0-.83.28-.83.57s.43.61,1.25.95c1.69.68,2.91,1.29,2.91,3,0,1.38-1.18,2.62-3.38,2.62A4.9,4.9,0,0,1,252.47,221.28Z"/><path class="cls-6" d="M260.11,215.22a.42.42,0,0,1-.4-.42v-1.29a.39.39,0,0,1,.4-.42H261v-2.43a.44.44,0,0,1,.42-.42h1.56a.4.4,0,0,1,.39.42v2.43h2.06a.41.41,0,0,1,.41.42v1.29a.43.43,0,0,1-.41.42h-2.06v3.53c0,.86.39,1.2.94,1.2a3.44,3.44,0,0,0,1.12-.21.34.34,0,0,1,.49.23l.25,1.14a.43.43,0,0,1-.25.51,4.56,4.56,0,0,1-2,.46c-1.79,0-2.91-1.16-2.91-3.15v-3.71Z"/><path class="cls-6" d="M267.71,213.42a.4.4,0,0,1,.45-.4,1.34,1.34,0,0,1,1.39,1.19A3.08,3.08,0,0,1,272,212.9c1,0,1.9.29,1.65.86l-.57,1.29a.37.37,0,0,1-.51.19,1.83,1.83,0,0,0-.82-.17,1.91,1.91,0,0,0-1.67.91v5.47c0,.33-.21.42-.49.42h-1.47a.43.43,0,0,1-.41-.42Z"/><path class="cls-6" d="M277.79,216.32a6.29,6.29,0,0,1,1.69.25,1.5,1.5,0,0,0-1.65-1.65,7.38,7.38,0,0,0-2,.32c-.29.09-.46-.11-.49-.38l-.2-1a.41.41,0,0,1,.29-.53,8.4,8.4,0,0,1,2.56-.44c2.55,0,3.75,1.43,3.75,3.82v4.83a.41.41,0,0,1-.46.4,1.29,1.29,0,0,1-1.31-.9,3.88,3.88,0,0,1-2.68,1,2.79,2.79,0,0,1-3-3C274.3,217.52,275.57,216.32,277.79,216.32Zm.06,4a1.9,1.9,0,0,0,1.58-.93v-1.29a3.46,3.46,0,0,0-1.29-.27c-1,0-1.56.48-1.56,1.26A1.15,1.15,0,0,0,277.85,220.31Z"/><path class="cls-6" d="M283.49,215.22a.42.42,0,0,1-.39-.42v-1.29a.39.39,0,0,1,.39-.42h.86v-2.43a.44.44,0,0,1,.42-.42h1.55a.41.41,0,0,1,.4.42v2.43h2a.41.41,0,0,1,.42.42v1.29a.44.44,0,0,1-.42.42h-2v3.53c0,.86.38,1.2.93,1.2a3.38,3.38,0,0,0,1.12-.21.35.35,0,0,1,.5.23l.25,1.14a.43.43,0,0,1-.25.51,4.56,4.56,0,0,1-2,.46c-1.79,0-2.91-1.16-2.91-3.15v-3.71Z"/><path class="cls-6" d="M294.82,212.9a3.94,3.94,0,0,1,4,4.07,5.46,5.46,0,0,1,0,.57.45.45,0,0,1-.42.4h-5.62a2.1,2.1,0,0,0,2.18,2,2.88,2.88,0,0,0,1.88-.65c.21-.17.44-.19.57,0l.74,1a.37.37,0,0,1,0,.57,4.92,4.92,0,0,1-3.26,1.2,4.59,4.59,0,0,1,0-9.18Zm1.63,3.48a1.61,1.61,0,0,0-1.69-1.52,1.74,1.74,0,0,0-1.86,1.52Z"/><path class="cls-6" d="M304.56,226.22a5.75,5.75,0,0,1-3.15-1,.4.4,0,0,1-.09-.49l.57-1.24a.36.36,0,0,1,.51-.11,4.4,4.4,0,0,0,2.09.66c1.35,0,2.07-.45,2.07-2.09v-.24a6.62,6.62,0,0,1-2.11.36,4.6,4.6,0,0,1-.15-9.18,3.78,3.78,0,0,1,2.79,1.24,1.32,1.32,0,0,1,1.39-1.12.4.4,0,0,1,.45.4V222A4,4,0,0,1,304.56,226.22Zm2-9.93a2,2,0,0,0-1.94-1.22,2.44,2.44,0,0,0,.11,4.84,3.49,3.49,0,0,0,1.83-.49Z"/><path class="cls-6" d="M311,210.07a1.48,1.48,0,0,1,1.5-1.5,1.51,1.51,0,1,1-1.5,1.5Zm.34,3.44a.42.42,0,0,1,.42-.42h1.54a.41.41,0,0,1,.41.42v7.94a.43.43,0,0,1-.41.42h-1.54a.44.44,0,0,1-.42-.42Z"/><path class="cls-6" d="M318.91,216.32a6.39,6.39,0,0,1,1.69.25,1.5,1.5,0,0,0-1.65-1.65,7.52,7.52,0,0,0-2,.32c-.28.09-.45-.11-.49-.38l-.19-1a.4.4,0,0,1,.29-.53,8.33,8.33,0,0,1,2.56-.44c2.55,0,3.74,1.43,3.74,3.82v4.83a.4.4,0,0,1-.45.4,1.28,1.28,0,0,1-1.31-.9,3.9,3.9,0,0,1-2.68,1,2.8,2.8,0,0,1-3-3C315.41,217.52,316.69,216.32,318.91,216.32Zm.06,4a1.89,1.89,0,0,0,1.57-.93v-1.29a3.46,3.46,0,0,0-1.29-.27c-1,0-1.56.48-1.56,1.26A1.16,1.16,0,0,0,319,220.31Z"/><path class="cls-6" d="M333.56,212.9a6.62,6.62,0,0,1,2.11.36V209a.45.45,0,0,1,.41-.42h1.54a.44.44,0,0,1,.42.42v12.56a.41.41,0,0,1-.46.4,1.29,1.29,0,0,1-1.36-1.11,3.76,3.76,0,0,1-2.81,1.24,4.6,4.6,0,0,1,.15-9.18Zm2.11,2.66a3.54,3.54,0,0,0-1.83-.49,2.21,2.21,0,0,0-2.18,2.41,2.19,2.19,0,0,0,2.07,2.43,2,2,0,0,0,1.94-1.21Z"/><path class="cls-6" d="M344.31,212.9a3.94,3.94,0,0,1,4,4.07,5.46,5.46,0,0,1,0,.57.45.45,0,0,1-.42.4h-5.62a2.11,2.11,0,0,0,2.18,2,2.84,2.84,0,0,0,1.88-.65c.21-.17.44-.19.58,0l.74,1a.37.37,0,0,1,0,.57,4.93,4.93,0,0,1-3.27,1.2,4.59,4.59,0,0,1,0-9.18Zm1.63,3.48a1.6,1.6,0,0,0-1.69-1.52,1.75,1.75,0,0,0-1.86,1.52Z"/><path class="cls-6" d="M178.31,242.9a6.25,6.25,0,0,1,2.11.37V239a.45.45,0,0,1,.42-.42h1.54a.43.43,0,0,1,.41.42v12.56a.4.4,0,0,1-.45.4,1.29,1.29,0,0,1-1.37-1.1,3.75,3.75,0,0,1-2.81,1.23,4.6,4.6,0,0,1,.15-9.18Zm2.11,2.66a3.48,3.48,0,0,0-1.82-.49,2.22,2.22,0,0,0-2.19,2.41,2.19,2.19,0,0,0,2.07,2.43,2,2,0,0,0,1.94-1.21Z"/><path class="cls-6" d="M184.83,240.07a1.48,1.48,0,0,1,1.5-1.5,1.51,1.51,0,1,1-1.5,1.5Zm.34,3.44a.43.43,0,0,1,.42-.42h1.54a.42.42,0,0,1,.41.42v7.94a.43.43,0,0,1-.41.42h-1.54a.44.44,0,0,1-.42-.42Z"/><path class="cls-6" d="M189,243.61c-.13-.27,0-.52.31-.52h1.8a.41.41,0,0,1,.4.25l1.82,4.33h0l1.94-4.33c.11-.23.3-.25.55-.25h1.6a.32.32,0,0,1,.3.52l-4,8.24a.44.44,0,0,1-.38.23h-.12a.44.44,0,0,1-.38-.23Z"/><path class="cls-6" d="M202.69,242.9a3.93,3.93,0,0,1,4,4.07,5.44,5.44,0,0,1,0,.57.45.45,0,0,1-.42.4h-5.62a2.1,2.1,0,0,0,2.18,2,2.93,2.93,0,0,0,1.88-.64c.21-.18.44-.19.57,0l.74,1a.37.37,0,0,1,0,.57,4.92,4.92,0,0,1-3.26,1.2,4.59,4.59,0,0,1,0-9.18Zm1.63,3.48a1.61,1.61,0,0,0-1.69-1.52,1.74,1.74,0,0,0-1.86,1.52Z"/><path class="cls-6" d="M208.5,243.42a.41.41,0,0,1,.46-.4,1.33,1.33,0,0,1,1.38,1.19,3.12,3.12,0,0,1,2.46-1.31c1,0,1.89.29,1.65.86l-.57,1.29a.36.36,0,0,1-.51.19,1.83,1.83,0,0,0-.82-.17,1.91,1.91,0,0,0-1.67.91v5.47c0,.33-.21.42-.5.42h-1.46a.44.44,0,0,1-.42-.42Z"/><path class="cls-6" d="M215.59,251.28a.38.38,0,0,1-.11-.47l.56-1.14a.33.33,0,0,1,.52-.15,3.61,3.61,0,0,0,1.94.56c.66,0,1-.24,1-.62s-.49-.76-1.65-1.22c-1.69-.64-2.45-1.44-2.45-2.77s1-2.57,3.15-2.57a4.83,4.83,0,0,1,2.61.65.5.5,0,0,1,.19.61l-.5,1a.45.45,0,0,1-.55.17,4.18,4.18,0,0,0-1.75-.44c-.58,0-.83.28-.83.57s.44.61,1.25.95c1.69.68,2.91,1.29,2.91,3,0,1.39-1.18,2.62-3.38,2.62A4.9,4.9,0,0,1,215.59,251.28Z"/><path class="cls-6" d="M223.23,240.07a1.48,1.48,0,0,1,1.5-1.5,1.51,1.51,0,1,1-1.5,1.5Zm.34,3.44a.43.43,0,0,1,.42-.42h1.54a.43.43,0,0,1,.41.42v7.94a.43.43,0,0,1-.41.42H224a.44.44,0,0,1-.42-.42Z"/><path class="cls-6" d="M232.1,242.9a6.3,6.3,0,0,1,2.11.37V239a.45.45,0,0,1,.42-.42h1.53a.44.44,0,0,1,.42.42v12.56a.4.4,0,0,1-.45.4,1.29,1.29,0,0,1-1.37-1.1,3.77,3.77,0,0,1-2.81,1.23,4.6,4.6,0,0,1,.15-9.18Zm2.11,2.66a3.49,3.49,0,0,0-1.83-.49,2.21,2.21,0,0,0-2.18,2.41,2.19,2.19,0,0,0,2.07,2.43,2,2,0,0,0,1.94-1.21Z"/><path class="cls-6" d="M241.87,246.32a6.39,6.39,0,0,1,1.69.25,1.52,1.52,0,0,0-1.66-1.65,7.38,7.38,0,0,0-2,.32c-.28.1-.46-.11-.49-.38l-.19-1a.4.4,0,0,1,.28-.53,8.76,8.76,0,0,1,2.57-.44c2.54,0,3.74,1.43,3.74,3.82v4.83a.41.41,0,0,1-.46.4,1.29,1.29,0,0,1-1.31-.9,3.86,3.86,0,0,1-2.68,1,2.79,2.79,0,0,1-3-3C238.37,247.52,239.64,246.32,241.87,246.32Zm0,4a1.88,1.88,0,0,0,1.58-.93v-1.29a3.46,3.46,0,0,0-1.29-.27c-1,0-1.56.48-1.56,1.26A1.16,1.16,0,0,0,241.92,250.31Z"/><path class="cls-6" d="M251.9,242.9a6.3,6.3,0,0,1,2.11.37V239a.44.44,0,0,1,.41-.42H256a.44.44,0,0,1,.42.42v12.56a.41.41,0,0,1-.46.4,1.29,1.29,0,0,1-1.36-1.1,3.8,3.8,0,0,1-2.82,1.23,4.6,4.6,0,0,1,.16-9.18Zm2.11,2.66a3.54,3.54,0,0,0-1.83-.49,2.21,2.21,0,0,0-2.18,2.41,2.19,2.19,0,0,0,2.07,2.43A2,2,0,0,0,254,248.7Z"/><path class="cls-6" d="M260.05,248.93c.95,0,1.73.79,1.73,2.28a4.3,4.3,0,0,1-1.62,3.4c-.15.15-.26.07-.4-.06l-.47-.46c-.13-.15,0-.28.09-.41a3.11,3.11,0,0,0,1.07-1.83.93.93,0,0,0-.06-.36,1.13,1.13,0,0,1-.65.19,1.21,1.21,0,0,1-1.19-1.35A1.41,1.41,0,0,1,260.05,248.93Z"/><path class="cls-6" d="M272.38,242.9a3.94,3.94,0,0,1,4,4.07,5.46,5.46,0,0,1,0,.57.45.45,0,0,1-.42.4h-5.62a2.11,2.11,0,0,0,2.18,2,2.91,2.91,0,0,0,1.88-.64c.21-.18.44-.19.57,0l.74,1a.37.37,0,0,1,0,.57,5,5,0,0,1-3.27,1.2,4.59,4.59,0,0,1,0-9.18Zm1.63,3.48a1.61,1.61,0,0,0-1.69-1.52,1.74,1.74,0,0,0-1.86,1.52Z"/><path class="cls-6" d="M281.86,242.9a3.74,3.74,0,0,1,2.79,1.26A1.32,1.32,0,0,1,286,243a.4.4,0,0,1,.45.4V256a.43.43,0,0,1-.41.42h-1.54a.45.45,0,0,1-.42-.42v-4.25a6.56,6.56,0,0,1-2.11.36,4.6,4.6,0,0,1-.15-9.18Zm2.26,3.39a2,2,0,0,0-1.94-1.22,2.44,2.44,0,0,0,.12,4.84,3.48,3.48,0,0,0,1.82-.49Z"/><path class="cls-6" d="M288.79,243.51a.42.42,0,0,1,.42-.42h1.54a.42.42,0,0,1,.42.42v4.66c0,1.16.4,1.74,1.48,1.74s1.43-.87,1.56-1.63v-4.77c0-.34.11-.42.47-.42h1.49a.41.41,0,0,1,.41.42v8a.4.4,0,0,1-.45.4,1.29,1.29,0,0,1-1.37-1.09,3.77,3.77,0,0,1-2.66,1.22c-2.72,0-3.31-1.69-3.31-3.91Z"/><path class="cls-6" d="M298.62,240.07a1.48,1.48,0,0,1,1.5-1.5,1.51,1.51,0,1,1-1.5,1.5Zm.34,3.44a.43.43,0,0,1,.42-.42h1.54a.43.43,0,0,1,.41.42v7.94a.43.43,0,0,1-.41.42h-1.54a.44.44,0,0,1-.42-.42Z"/><path class="cls-6" d="M307.49,242.9a6.3,6.3,0,0,1,2.11.37V239a.45.45,0,0,1,.42-.42h1.54a.43.43,0,0,1,.41.42v12.56a.4.4,0,0,1-.45.4,1.29,1.29,0,0,1-1.37-1.1,3.77,3.77,0,0,1-2.81,1.23,4.6,4.6,0,0,1,.15-9.18Zm2.11,2.66a3.49,3.49,0,0,0-1.83-.49,2.21,2.21,0,0,0-2.18,2.41,2.19,2.19,0,0,0,2.07,2.43,2,2,0,0,0,1.94-1.21Z"/><path class="cls-6" d="M317.26,246.32a6.39,6.39,0,0,1,1.69.25,1.52,1.52,0,0,0-1.66-1.65,7.38,7.38,0,0,0-2,.32c-.28.1-.45-.11-.49-.38l-.19-1a.4.4,0,0,1,.28-.53,8.76,8.76,0,0,1,2.57-.44c2.54,0,3.74,1.43,3.74,3.82v4.83a.41.41,0,0,1-.46.4,1.29,1.29,0,0,1-1.31-.9,3.86,3.86,0,0,1-2.68,1,2.79,2.79,0,0,1-3-3C313.76,247.52,315,246.32,317.26,246.32Zm.05,4a1.88,1.88,0,0,0,1.58-.93v-1.29a3.46,3.46,0,0,0-1.29-.27c-1,0-1.56.48-1.56,1.26A1.16,1.16,0,0,0,317.31,250.31Z"/><path class="cls-6" d="M327.29,242.9a6.3,6.3,0,0,1,2.11.37V239a.45.45,0,0,1,.41-.42h1.54a.44.44,0,0,1,.42.42v12.56a.4.4,0,0,1-.45.4,1.29,1.29,0,0,1-1.37-1.1,3.79,3.79,0,0,1-2.81,1.23,4.6,4.6,0,0,1,.15-9.18Zm2.11,2.66a3.54,3.54,0,0,0-1.83-.49,2.21,2.21,0,0,0-2.18,2.41,2.19,2.19,0,0,0,2.07,2.43,2,2,0,0,0,1.94-1.21Z"/><path class="cls-6" d="M342.66,242.9a3.94,3.94,0,0,1,4,4.07,5.46,5.46,0,0,1,0,.57.45.45,0,0,1-.42.4h-5.62a2.11,2.11,0,0,0,2.18,2,2.93,2.93,0,0,0,1.88-.64c.21-.18.44-.19.57,0l.74,1a.37.37,0,0,1,0,.57,4.92,4.92,0,0,1-3.26,1.2,4.59,4.59,0,0,1,0-9.18Zm1.63,3.48a1.61,1.61,0,0,0-1.69-1.52,1.74,1.74,0,0,0-1.86,1.52Z"/><path class="cls-6" d="M183.1,270.08a1.51,1.51,0,1,1,3,0,1.51,1.51,0,1,1-3,0Zm.34,3.43a.42.42,0,0,1,.42-.41h1.54a.42.42,0,0,1,.42.41v7.94a.44.44,0,0,1-.42.42h-1.54a.44.44,0,0,1-.42-.42Z"/><path class="cls-6" d="M188.19,273.42a.41.41,0,0,1,.46-.4,1.31,1.31,0,0,1,1.37,1.14,3.61,3.61,0,0,1,2.83-1.25c2.79,0,3.51,1.88,3.51,4v4.54a.44.44,0,0,1-.42.42H194.4a.42.42,0,0,1-.41-.42v-4.54c0-1.14-.46-1.84-1.52-1.84a1.92,1.92,0,0,0-1.9,1.37v5c0,.33-.14.42-.55.42h-1.41a.44.44,0,0,1-.42-.42Z"/><path class="cls-6" d="M202.74,272.91a4.31,4.31,0,0,1,3.27,1.48c.19.19.1.43-.09.62l-.8.88c-.19.21-.4.11-.57-.06a2.39,2.39,0,0,0-1.75-.76,2.43,2.43,0,0,0,0,4.85,2.34,2.34,0,0,0,1.86-1,.42.42,0,0,1,.56-.06l.85.72c.21.19.3.4.15.63a3.92,3.92,0,0,1-3.47,1.84,4.59,4.59,0,1,1,0-9.17Z"/><path class="cls-6" d="M207.89,269a.45.45,0,0,1,.42-.42h1.54a.45.45,0,0,1,.42.42v12.46a.44.44,0,0,1-.42.42h-1.54a.44.44,0,0,1-.42-.42Z"/><path class="cls-6" d="M212.55,273.51a.41.41,0,0,1,.42-.41h1.54a.41.41,0,0,1,.41.41v4.66c0,1.16.4,1.75,1.48,1.75s1.43-.88,1.56-1.64v-4.77c0-.34.12-.41.48-.41h1.48a.41.41,0,0,1,.42.41v8a.41.41,0,0,1-.46.4,1.3,1.3,0,0,1-1.37-1.08,3.76,3.76,0,0,1-2.66,1.21c-2.71,0-3.3-1.69-3.3-3.91Z"/><path class="cls-6" d="M222.49,281.28a.38.38,0,0,1-.12-.47l.57-1.14a.33.33,0,0,1,.51-.15,3.63,3.63,0,0,0,1.94.57c.67,0,1-.25,1-.63s-.49-.76-1.65-1.22c-1.69-.64-2.45-1.44-2.45-2.77s1-2.56,3.15-2.56a4.8,4.8,0,0,1,2.6.64.49.49,0,0,1,.19.61l-.49,1a.44.44,0,0,1-.55.17,4.22,4.22,0,0,0-1.75-.44c-.59,0-.83.29-.83.57s.43.61,1.25.95c1.69.68,2.91,1.29,2.91,3,0,1.39-1.18,2.62-3.39,2.62A4.81,4.81,0,0,1,222.49,281.28Z"/><path class="cls-6" d="M230.12,270.08a1.51,1.51,0,1,1,3,0,1.51,1.51,0,1,1-3,0Zm.35,3.43a.41.41,0,0,1,.41-.41h1.54a.42.42,0,0,1,.42.41v7.94a.44.44,0,0,1-.42.42h-1.54a.43.43,0,0,1-.41-.42Z"/><path class="cls-6" d="M239.09,272.91a4.59,4.59,0,1,1-4.48,4.55A4.56,4.56,0,0,1,239.09,272.91Zm0,7a2.39,2.39,0,0,0,2.3-2.46,2.29,2.29,0,1,0-4.58,0A2.37,2.37,0,0,0,239.09,279.92Zm-2.11-9,3.21-2.13c.33-.21.8,0,1,.46s.23,1-.1,1.12L237.61,272c-.21.1-.48-.07-.63-.36S236.85,271,237,270.91Z"/><path class="cls-6" d="M245.44,273.42a.4.4,0,0,1,.45-.4,1.3,1.3,0,0,1,1.37,1.14,3.61,3.61,0,0,1,2.83-1.25c2.79,0,3.52,1.88,3.52,4v4.54a.44.44,0,0,1-.42.42h-1.54a.42.42,0,0,1-.42-.42v-4.54c0-1.14-.45-1.84-1.52-1.84a1.93,1.93,0,0,0-1.9,1.37v5c0,.33-.13.42-.55.42h-1.4a.44.44,0,0,1-.42-.42Z"/><path class="cls-6" d="M264.63,272.91a4.31,4.31,0,0,1,3.26,1.48c.19.19.1.43-.09.62l-.8.88c-.19.21-.4.11-.57-.06a2.39,2.39,0,0,0-1.75-.76,2.43,2.43,0,0,0,0,4.85,2.36,2.36,0,0,0,1.87-1,.41.41,0,0,1,.55-.06l.85.72c.21.19.31.4.15.63a3.91,3.91,0,0,1-3.47,1.84,4.59,4.59,0,1,1,0-9.17Z"/><path class="cls-6" d="M273.61,272.91a4.59,4.59,0,1,1-4.48,4.55A4.56,4.56,0,0,1,273.61,272.91Zm0,7a2.38,2.38,0,0,0,2.3-2.46,2.29,2.29,0,1,0-4.58,0A2.37,2.37,0,0,0,273.61,279.92Z"/><path class="cls-6" d="M280,273.42a.41.41,0,0,1,.46-.4,1.3,1.3,0,0,1,1.36,1.14,3.63,3.63,0,0,1,2.83-1.25c2.8,0,3.52,1.88,3.52,4v4.54a.44.44,0,0,1-.42.42h-1.54a.42.42,0,0,1-.42-.42v-4.54c0-1.14-.45-1.84-1.52-1.84a1.93,1.93,0,0,0-1.9,1.37v5c0,.33-.13.42-.55.42h-1.4a.44.44,0,0,1-.42-.42Z"/><path class="cls-6" d="M290.14,281.28a.38.38,0,0,1-.11-.47l.57-1.14a.32.32,0,0,1,.51-.15,3.63,3.63,0,0,0,1.94.57c.67,0,1-.25,1-.63s-.5-.76-1.65-1.22c-1.69-.64-2.45-1.44-2.45-2.77s1-2.56,3.15-2.56a4.8,4.8,0,0,1,2.6.64.49.49,0,0,1,.19.61l-.49,1a.44.44,0,0,1-.55.17,4.22,4.22,0,0,0-1.75-.44c-.59,0-.84.29-.84.57s.44.61,1.26.95c1.69.68,2.9,1.29,2.9,3,0,1.39-1.17,2.62-3.38,2.62A4.88,4.88,0,0,1,290.14,281.28Z"/><path class="cls-6" d="M297.78,275.22a.42.42,0,0,1-.4-.42v-1.29a.39.39,0,0,1,.4-.41h.86v-2.44a.43.43,0,0,1,.41-.41h1.56a.4.4,0,0,1,.4.41v2.44h2.05a.41.41,0,0,1,.42.41v1.29a.44.44,0,0,1-.42.42H301v3.54c0,.85.38,1.19.93,1.19a3.44,3.44,0,0,0,1.12-.21.35.35,0,0,1,.5.23l.24,1.14a.43.43,0,0,1-.24.52,4.69,4.69,0,0,1-2,.45c-1.78,0-2.9-1.16-2.9-3.15v-3.71Z"/><path class="cls-6" d="M308.33,276.33a6.63,6.63,0,0,1,1.69.24,1.52,1.52,0,0,0-1.66-1.65,7.38,7.38,0,0,0-2,.32c-.28.1-.45-.11-.49-.38l-.19-1a.4.4,0,0,1,.28-.53,8.88,8.88,0,0,1,2.57-.43c2.54,0,3.74,1.42,3.74,3.81v4.83a.41.41,0,0,1-.46.4,1.29,1.29,0,0,1-1.31-.89,3.9,3.9,0,0,1-2.68,1,2.79,2.79,0,0,1-3-3C304.83,277.52,306.1,276.33,308.33,276.33Zm.05,4a1.87,1.87,0,0,0,1.58-.93v-1.29a3.57,3.57,0,0,0-1.29-.26c-1,0-1.56.47-1.56,1.25A1.16,1.16,0,0,0,308.38,280.31Z"/><path class="cls-6" d="M323,272.91a6.3,6.3,0,0,1,2.11.36V269a.45.45,0,0,1,.42-.42H327a.44.44,0,0,1,.42.42v12.56a.41.41,0,0,1-.46.4,1.3,1.3,0,0,1-1.37-1.1,3.75,3.75,0,0,1-2.81,1.23,4.6,4.6,0,0,1,.15-9.17Zm2.11,2.66a3.43,3.43,0,0,0-1.82-.5,2.45,2.45,0,0,0-.11,4.85,2,2,0,0,0,1.93-1.22Z"/><path class="cls-6" d="M333.75,272.91a3.93,3.93,0,0,1,4,4.06,5.44,5.44,0,0,1,0,.57.45.45,0,0,1-.42.4H331.7a2.1,2.1,0,0,0,2.18,2,2.93,2.93,0,0,0,1.88-.64c.21-.17.44-.19.57,0l.74,1a.37.37,0,0,1,0,.57,4.92,4.92,0,0,1-3.26,1.2,4.59,4.59,0,0,1,0-9.17Zm1.63,3.47a1.61,1.61,0,0,0-1.69-1.52,1.74,1.74,0,0,0-1.86,1.52Z"/><path class="cls-6" d="M210,302.91a4.34,4.34,0,0,1,3.26,1.48c.19.19.1.44-.09.62l-.8.88c-.19.21-.4.11-.57-.06a2.39,2.39,0,0,0-1.75-.76,2.43,2.43,0,0,0,0,4.85,2.34,2.34,0,0,0,1.86-1,.43.43,0,0,1,.56-.06l.85.72c.21.19.3.4.15.63a3.92,3.92,0,0,1-3.47,1.84,4.59,4.59,0,1,1,0-9.17Z"/><path class="cls-6" d="M215,303.51a.41.41,0,0,1,.42-.41h1.54a.41.41,0,0,1,.42.41v4.66c0,1.16.4,1.75,1.48,1.75s1.42-.88,1.56-1.64v-4.77c0-.34.11-.41.47-.41h1.48a.41.41,0,0,1,.42.41v8a.41.41,0,0,1-.46.4,1.29,1.29,0,0,1-1.36-1.08,3.81,3.81,0,0,1-2.66,1.21c-2.72,0-3.31-1.69-3.31-3.91Z"/><path class="cls-6" d="M228.05,306.33a6.53,6.53,0,0,1,1.69.24,1.5,1.5,0,0,0-1.65-1.65,7.38,7.38,0,0,0-2,.32c-.29.1-.46-.11-.5-.38l-.19-1a.41.41,0,0,1,.29-.54,8.86,8.86,0,0,1,2.56-.43c2.55,0,3.75,1.42,3.75,3.81v4.83a.41.41,0,0,1-.46.4,1.29,1.29,0,0,1-1.31-.89,3.92,3.92,0,0,1-2.68,1,2.79,2.79,0,0,1-3-3C224.56,307.52,225.83,306.33,228.05,306.33Zm.06,4a1.89,1.89,0,0,0,1.58-.94v-1.29a3.57,3.57,0,0,0-1.29-.26c-1,0-1.56.47-1.56,1.25A1.16,1.16,0,0,0,228.11,310.32Z"/><path class="cls-6" d="M233.75,305.22a.42.42,0,0,1-.4-.41v-1.3a.39.39,0,0,1,.4-.41h.86v-2.43a.44.44,0,0,1,.42-.42h1.55a.41.41,0,0,1,.4.42v2.43H239a.41.41,0,0,1,.42.41v1.3a.43.43,0,0,1-.42.41H237v3.54c0,.85.38,1.19.93,1.19a3.69,3.69,0,0,0,1.12-.2.34.34,0,0,1,.5.22l.25,1.14a.45.45,0,0,1-.25.52,4.65,4.65,0,0,1-2,.45c-1.78,0-2.9-1.16-2.9-3.15v-3.71Z"/><path class="cls-6" d="M241.35,303.42a.41.41,0,0,1,.46-.4,1.34,1.34,0,0,1,1.39,1.2,3,3,0,0,1,2.45-1.31c1,0,1.9.28,1.65.85l-.57,1.29a.36.36,0,0,1-.51.19,1.83,1.83,0,0,0-.82-.17,1.91,1.91,0,0,0-1.67.91v5.48c0,.32-.21.41-.5.41h-1.46a.43.43,0,0,1-.42-.41Z"/><path class="cls-6" d="M252.32,302.91a4.59,4.59,0,1,1-4.49,4.56A4.57,4.57,0,0,1,252.32,302.91Zm0,7a2.38,2.38,0,0,0,2.29-2.45,2.29,2.29,0,1,0-4.57,0A2.36,2.36,0,0,0,252.32,309.92Z"/><path class="cls-6" d="M267.74,312.08a6.62,6.62,0,0,1-2.11-.36V316a.43.43,0,0,1-.41.41h-1.54a.43.43,0,0,1-.42-.41V303.42a.41.41,0,0,1,.46-.4,1.3,1.3,0,0,1,1.36,1.12,3.83,3.83,0,0,1,2.82-1.23,4.6,4.6,0,0,1-.16,9.17Zm-2.11-2.66a3.49,3.49,0,0,0,1.83.5,2.22,2.22,0,0,0,2.18-2.42,2.19,2.19,0,0,0-2.07-2.43,2,2,0,0,0-1.94,1.22Z"/><path class="cls-6" d="M273.6,300.08a1.47,1.47,0,0,1,1.5-1.5,1.5,1.5,0,0,1,1.52,1.5,1.52,1.52,0,0,1-1.52,1.52A1.5,1.5,0,0,1,273.6,300.08Zm.34,3.43a.42.42,0,0,1,.42-.41h1.53a.42.42,0,0,1,.42.41v7.95a.43.43,0,0,1-.42.41h-1.53a.43.43,0,0,1-.42-.41Z"/><path class="cls-6" d="M278.69,299a.44.44,0,0,1,.42-.41h1.53a.44.44,0,0,1,.42.41v12.47a.43.43,0,0,1-.42.41h-1.53a.43.43,0,0,1-.42-.41Z"/><path class="cls-6" d="M286.34,306.33a6.53,6.53,0,0,1,1.69.24,1.5,1.5,0,0,0-1.65-1.65,7.38,7.38,0,0,0-2,.32c-.29.1-.46-.11-.49-.38l-.19-1a.4.4,0,0,1,.28-.54,8.88,8.88,0,0,1,2.57-.43c2.54,0,3.74,1.42,3.74,3.81v4.83a.41.41,0,0,1-.46.4,1.29,1.29,0,0,1-1.31-.89,3.92,3.92,0,0,1-2.68,1,2.79,2.79,0,0,1-3-3C282.85,307.52,284.12,306.33,286.34,306.33Zm.06,4a1.89,1.89,0,0,0,1.58-.94v-1.29a3.57,3.57,0,0,0-1.29-.26c-1,0-1.56.47-1.56,1.25A1.16,1.16,0,0,0,286.4,310.32Z"/><path class="cls-6" d="M292.54,303.42a.4.4,0,0,1,.45-.4,1.34,1.34,0,0,1,1.39,1.2,3,3,0,0,1,2.45-1.31c1.05,0,1.9.28,1.65.85l-.57,1.29a.36.36,0,0,1-.51.19,1.83,1.83,0,0,0-.82-.17,1.94,1.94,0,0,0-1.67.91v5.48c0,.32-.21.41-.49.41H293a.43.43,0,0,1-.42-.41Z"/><path class="cls-6" d="M303.46,302.91a3.93,3.93,0,0,1,4,4.06,5.46,5.46,0,0,1,0,.57.45.45,0,0,1-.42.4h-5.62a2.11,2.11,0,0,0,2.19,2,2.93,2.93,0,0,0,1.88-.64c.21-.17.43-.19.57,0l.74,1a.36.36,0,0,1,0,.56,4.93,4.93,0,0,1-3.27,1.2,4.59,4.59,0,0,1,0-9.17Zm1.64,3.47a1.61,1.61,0,0,0-1.69-1.52,1.75,1.75,0,0,0-1.87,1.52Z"/><path class="cls-6" d="M309,311.28a.38.38,0,0,1-.11-.47l.57-1.14a.32.32,0,0,1,.51-.15,3.63,3.63,0,0,0,1.94.57c.66,0,1-.25,1-.63s-.5-.76-1.66-1.22c-1.69-.64-2.45-1.44-2.45-2.77s1-2.56,3.16-2.56a4.83,4.83,0,0,1,2.6.64.5.5,0,0,1,.19.61l-.49,1a.46.46,0,0,1-.56.17,4.13,4.13,0,0,0-1.74-.44c-.59,0-.84.29-.84.57s.44.61,1.26.95c1.69.68,2.9,1.29,2.9,3,0,1.39-1.18,2.62-3.38,2.62A4.88,4.88,0,0,1,309,311.28Z"/></g></g></svg>