<svg xmlns="http://www.w3.org/2000/svg" viewBox="0 0 280.44 228.3"><defs><style>.cls-1{fill:#fff;}.cls-2{fill:#fdb71a;}.cls-3{fill:#007dc3;}</style></defs><g id="Layer_2" data-name="Layer 2"><g id="Layer_1-2" data-name="Layer 1"><path class="cls-1" d="M239.61,64.44a.36.36,0,0,1-.36-.36v-1.6a.83.83,0,0,1,.25-.66l6.23-7.44a.33.33,0,0,1,.27-.11h1.33a.36.36,0,0,1,.36.36v7.51h1.48a.33.33,0,0,1,.36.34v1.6a.36.36,0,0,1-.36.36h-1.48v2.25a.36.36,0,0,1-.34.37h-2a.36.36,0,0,1-.34-.37V64.44Zm5.45-2.23V58.7h0l-2.88,3.48v0Z"/><path class="cls-1" d="M251.06,65.07l1.13-1.18a.38.38,0,0,1,.49,0,3.24,3.24,0,0,0,2.21.88A1.73,1.73,0,0,0,256.66,63a1.7,1.7,0,0,0-1.93-1.79h-2.85a.62.62,0,0,1-.57-.66V54.79a.34.34,0,0,1,.34-.34h6a.35.35,0,0,1,.36.34v1.64a.35.35,0,0,1-.36.34h-3.82v2h1.32a3.92,3.92,0,0,1,4.23,4.11,4.41,4.41,0,0,1-4.59,4.35,4.82,4.82,0,0,1-3.66-1.53C250.86,65.42,250.84,65.29,251.06,65.07Z"/><path class="cls-1" d="M260.81,56.68a2.43,2.43,0,1,1,2.43,2.43A2.4,2.4,0,0,1,260.81,56.68Zm7.51-2a.39.39,0,0,1,.31-.18H270a.33.33,0,0,1,.31.49l-6.21,11.94a.55.55,0,0,1-.31.18h-1.33a.33.33,0,0,1-.3-.49Zm-4.46,2a.63.63,0,1,0-.62.63A.63.63,0,0,0,263.86,56.68Zm5.42,5.69a2.43,2.43,0,1,1-2.44,2.43A2.43,2.43,0,0,1,269.28,62.37Zm0,3.05a.63.63,0,1,0-.62-.62A.64.64,0,0,0,269.28,65.42Z"/><path class="cls-1" d="M239.28,77.63a.13.13,0,0,1-.21,0l-.17-.19a.13.13,0,0,1,0-.21l2.18-1.87a.34.34,0,0,1,.26-.08h.08c.11,0,.21.06.21.17v9.45a.19.19,0,0,1-.18.19h-.3a.2.2,0,0,1-.18-.19V76.23h0Z"/><path class="cls-1" d="M248.48,75a.16.16,0,0,1,.21.1l.1.22c0,.11,0,.21-.16.27-.84.29-3.65,1.66-4.11,4.3a3.67,3.67,0,0,1,2.7-1.17,3.07,3.07,0,0,1,3.12,3.16,3.28,3.28,0,0,1-3.21,3.31c-2.25,0-3.37-1.8-3.37-4.1C243.76,77.17,247.2,75.49,248.48,75Zm-1.35,9.62a2.66,2.66,0,0,0,2.58-2.72,2.53,2.53,0,0,0-2.55-2.59,3.64,3.64,0,0,0-2.76,1.44c0,.15,0,.28,0,.44C244.37,83,245.29,84.62,247.13,84.62Z"/><path class="cls-1" d="M252.21,86.81c-.07-.06-.12-.13,0-.21a1.9,1.9,0,0,0,.56-1.29,1,1,0,0,0,0-.31.48.48,0,0,1-.38.15.5.5,0,0,1-.5-.53.56.56,0,0,1,.59-.56c.54,0,.82.56.82,1.16a2.77,2.77,0,0,1-.65,1.67c0,.06-.13.11-.21,0Z"/><path class="cls-1" d="M256.86,80v0a2.49,2.49,0,0,1-1.9-2.29,2.63,2.63,0,0,1,3-2.61c1.94,0,3,1.18,3,2.61A2.48,2.48,0,0,1,259,80v0a2.6,2.6,0,0,1,2.15,2.45c0,1.71-1.31,2.7-3.25,2.7s-3.2-1-3.2-2.7A2.64,2.64,0,0,1,256.86,80Zm1.05,4.61c1.46,0,2.6-.69,2.6-2.1,0-1.08-1-2-2.57-2.16-1.61.14-2.57,1-2.57,2.16C255.37,84,256.51,84.65,257.91,84.65Zm2.34-6.92a2.1,2.1,0,0,0-2.35-2.07,2.06,2.06,0,0,0-2.28,2.07c0,1.11.88,1.86,2.32,2C259.37,79.59,260.25,78.84,260.25,77.73Z"/><path class="cls-1" d="M267.34,75a.16.16,0,0,1,.21.1l.1.22c0,.11,0,.21-.16.27-.84.29-3.66,1.66-4.12,4.3a3.72,3.72,0,0,1,2.71-1.17,3.08,3.08,0,0,1,3.12,3.16A3.28,3.28,0,0,1,266,85.19c-2.25,0-3.37-1.8-3.37-4.1C262.62,77.17,266.06,75.49,267.34,75ZM266,84.62a2.66,2.66,0,0,0,2.58-2.72A2.54,2.54,0,0,0,266,79.31a3.59,3.59,0,0,0-2.76,1.44c0,.15,0,.28,0,.44C263.23,83,264.14,84.62,266,84.62Z"/><path class="cls-1" d="M270.41,77.63a.13.13,0,0,1-.21,0l-.16-.19a.13.13,0,0,1,0-.21l2.19-1.87a.32.32,0,0,1,.25-.08h.09c.11,0,.21.06.21.17v9.45a.2.2,0,0,1-.19.19h-.29a.19.19,0,0,1-.18-.19V76.23h0Z"/><path class="cls-1" d="M239.37,183.32l1.14-1.18a.37.37,0,0,1,.48,0,3.28,3.28,0,0,0,2.22.88,1.72,1.72,0,0,0,1.76-1.76,1.7,1.7,0,0,0-1.92-1.79H240.2a.62.62,0,0,1-.57-.66V173a.34.34,0,0,1,.34-.34h6a.36.36,0,0,1,.36.34v1.64a.36.36,0,0,1-.36.34h-3.82v2h1.31a3.93,3.93,0,0,1,4.24,4.11,4.41,4.41,0,0,1-4.6,4.35,4.81,4.81,0,0,1-3.65-1.53C239.18,183.67,239.16,183.54,239.37,183.32Z"/><path class="cls-1" d="M249.22,183.32l1.14-1.18a.37.37,0,0,1,.48,0,3.26,3.26,0,0,0,2.22.88,1.78,1.78,0,1,0-.17-3.55h-2.84a.62.62,0,0,1-.58-.66V173a.34.34,0,0,1,.34-.34h6a.35.35,0,0,1,.36.34v1.64a.35.35,0,0,1-.36.34H252v2h1.31a3.92,3.92,0,0,1,4.23,4.11,4.41,4.41,0,0,1-4.59,4.35,4.82,4.82,0,0,1-3.66-1.53C249,183.67,249,183.54,249.22,183.32Z"/><path class="cls-1" d="M259,174.93a2.43,2.43,0,0,1,4.86,0,2.43,2.43,0,0,1-4.86,0Zm7.51-2.05a.38.38,0,0,1,.3-.18h1.37a.33.33,0,0,1,.31.49l-6.22,11.94a.52.52,0,0,1-.3.18h-1.33a.33.33,0,0,1-.31-.49ZM262,174.93a.62.62,0,1,0-.61.63A.63.63,0,0,0,262,174.93Zm5.42,5.69a2.43,2.43,0,1,1-2.43,2.43A2.44,2.44,0,0,1,267.44,180.62Zm0,3a.63.63,0,1,0-.61-.62A.64.64,0,0,0,267.44,183.67Z"/><path class="cls-1" d="M244.91,202.72a.19.19,0,0,1,.2.18v.22a.2.2,0,0,1-.2.19h-5.64a.18.18,0,0,1-.2-.17V203a.31.31,0,0,1,.1-.24l3.72-3.74a4.28,4.28,0,0,0,1.6-2.84,2.2,2.2,0,0,0-2.42-2.2,2.87,2.87,0,0,0-2.19,1.16.19.19,0,0,1-.29,0l-.17-.13a.2.2,0,0,1,0-.27,3.33,3.33,0,0,1,2.68-1.43,2.82,2.82,0,0,1,3.11,2.82c0,1.27-.79,2.22-1.82,3.26l-3.28,3.26v0Z"/><path class="cls-1" d="M246.68,198.39c0-3.17,1.29-5,3.55-5s3.53,1.86,3.53,5-1.29,5.07-3.53,5.07S246.68,201.54,246.68,198.39Zm6.39,0c0-2.82-1-4.43-2.84-4.43s-2.86,1.61-2.86,4.43,1,4.47,2.86,4.47S253.07,201.23,253.07,198.39Z"/><path class="cls-1" d="M255.29,205.06c-.07-.06-.12-.13,0-.21a1.9,1.9,0,0,0,.56-1.29,1,1,0,0,0,0-.31.48.48,0,0,1-.38.15.5.5,0,0,1-.5-.53.56.56,0,0,1,.59-.56c.54,0,.82.56.82,1.16a2.77,2.77,0,0,1-.65,1.67c-.05.06-.13.11-.21,0Z"/><path class="cls-1" d="M257.65,201.05c-.14,0-.26-.06-.26-.21v-.11a.38.38,0,0,1,.09-.25l5.74-7a.26.26,0,0,1,.23-.11h.12c.1,0,.17,0,.17.17v6.95h1.09a.17.17,0,0,1,.18.18v.21a.18.18,0,0,1-.18.18h-1.09v2.07a.19.19,0,0,1-.18.19h-.27a.17.17,0,0,1-.18-.19v-2.07Zm5.46-.57v-5.94h0l-4.85,5.91v0Z"/><path class="cls-1" d="M267.31,203.23c0-.11,0-.22.17-.28.81-.27,3.64-1.65,4.09-4.3a3.57,3.57,0,0,1-2.68,1.18,3.09,3.09,0,0,1-3.14-3.16,3.28,3.28,0,0,1,3.22-3.31c2.25,0,3.38,1.81,3.38,4.1,0,3.93-3.45,5.61-4.73,6.1a.17.17,0,0,1-.21-.12Zm4.37-5.44a2,2,0,0,0,0-.44c0-1.75-.9-3.42-2.75-3.42a2.68,2.68,0,0,0-2.59,2.71,2.54,2.54,0,0,0,2.55,2.59A3.56,3.56,0,0,0,271.68,197.79Z"/><path class="cls-1" d="M278.58,193.25a.16.16,0,0,1,.21.1l.1.22c0,.11,0,.21-.16.27-.84.29-3.65,1.66-4.11,4.3a3.67,3.67,0,0,1,2.7-1.17,3.07,3.07,0,0,1,3.12,3.16,3.28,3.28,0,0,1-3.21,3.31c-2.25,0-3.37-1.8-3.37-4.1C273.86,195.42,277.3,193.74,278.58,193.25Zm-1.35,9.62a2.66,2.66,0,0,0,2.58-2.72,2.53,2.53,0,0,0-2.55-2.59A3.61,3.61,0,0,0,274.5,199c0,.15,0,.28,0,.44C274.47,201.2,275.39,202.87,277.23,202.87Z"/><rect class="cls-2" x="206.71" width="21.59" height="21.59"/><rect class="cls-2" x="183.74" width="21.59" height="21.59"/><rect class="cls-2" x="160.78" width="21.59" height="21.59"/><rect class="cls-2" x="137.81" width="21.59" height="21.59"/><rect class="cls-2" x="114.84" width="21.59" height="21.59"/><rect class="cls-2" x="91.87" width="21.59" height="21.59"/><rect class="cls-2" x="68.9" width="21.59" height="21.59"/><rect class="cls-2" x="45.94" width="21.59" height="21.59"/><rect class="cls-2" x="22.97" width="21.59" height="21.59"/><rect class="cls-2" width="21.59" height="21.59"/><rect class="cls-2" x="206.71" y="22.97" width="21.59" height="21.59"/><rect class="cls-2" x="183.74" y="22.97" width="21.59" height="21.59"/><rect class="cls-2" x="160.78" y="22.97" width="21.59" height="21.59"/><rect class="cls-2" x="137.81" y="22.97" width="21.59" height="21.59"/><rect class="cls-2" x="114.84" y="22.97" width="21.59" height="21.59"/><rect class="cls-2" x="91.87" y="22.97" width="21.59" height="21.59"/><rect class="cls-2" x="68.9" y="22.97" width="21.59" height="21.59"/><rect class="cls-2" x="45.94" y="22.97" width="21.59" height="21.59"/><rect class="cls-2" x="22.97" y="22.97" width="21.59" height="21.59"/><rect class="cls-2" y="22.97" width="21.59" height="21.59"/><rect class="cls-2" x="206.71" y="45.94" width="21.59" height="21.59"/><rect class="cls-2" x="183.74" y="45.94" width="21.59" height="21.59"/><rect class="cls-2" x="160.78" y="45.94" width="21.59" height="21.59"/><rect class="cls-2" x="137.81" y="45.94" width="21.59" height="21.59"/><rect class="cls-2" x="114.84" y="45.94" width="21.59" height="21.59"/><rect class="cls-2" x="91.87" y="45.94" width="21.59" height="21.59"/><rect class="cls-2" x="68.9" y="45.94" width="21.59" height="21.59"/><rect class="cls-2" x="45.94" y="45.94" width="21.59" height="21.59"/><rect class="cls-2" x="22.97" y="45.94" width="21.59" height="21.59"/><rect class="cls-2" y="45.94" width="21.59" height="21.59"/><rect class="cls-2" x="206.71" y="68.9" width="21.59" height="21.59"/><rect class="cls-2" x="183.74" y="68.9" width="21.59" height="21.59"/><rect class="cls-2" x="160.78" y="68.9" width="21.59" height="21.59"/><rect class="cls-2" x="137.81" y="68.9" width="21.59" height="21.59"/><rect class="cls-2" x="114.84" y="68.9" width="21.59" height="21.59"/><rect class="cls-2" x="91.87" y="68.9" width="21.59" height="21.59"/><rect class="cls-2" x="68.9" y="68.9" width="21.59" height="21.59"/><rect class="cls-2" x="45.94" y="68.9" width="21.59" height="21.59"/><rect class="cls-2" x="22.97" y="68.9" width="21.59" height="21.59"/><rect class="cls-2" y="68.9" width="21.59" height="21.6"/><rect class="cls-2" x="206.71" y="91.87" width="21.59" height="21.59"/><rect class="cls-2" x="183.74" y="91.87" width="21.59" height="21.59"/><rect class="cls-2" x="160.78" y="91.87" width="21.59" height="21.59"/><rect class="cls-2" x="137.81" y="91.87" width="21.59" height="21.59"/><rect class="cls-2" x="114.84" y="91.87" width="21.59" height="21.59"/><rect class="cls-3" x="91.87" y="91.87" width="21.59" height="21.59"/><rect class="cls-3" x="68.9" y="91.87" width="21.59" height="21.59"/><rect class="cls-3" x="45.94" y="91.87" width="21.59" height="21.59"/><rect class="cls-3" x="22.97" y="91.87" width="21.59" height="21.59"/><rect class="cls-3" y="91.87" width="21.59" height="21.59"/><rect class="cls-3" x="206.71" y="114.84" width="21.59" height="21.59"/><rect class="cls-3" x="183.74" y="114.84" width="21.59" height="21.59"/><rect class="cls-3" x="160.78" y="114.84" width="21.59" height="21.59"/><rect class="cls-3" x="137.81" y="114.84" width="21.59" height="21.59"/><rect class="cls-3" x="114.84" y="114.84" width="21.59" height="21.59"/><rect class="cls-3" x="91.87" y="114.84" width="21.59" height="21.59"/><rect class="cls-3" x="68.9" y="114.84" width="21.59" height="21.59"/><rect class="cls-3" x="45.94" y="114.84" width="21.59" height="21.59"/><rect class="cls-3" x="22.97" y="114.84" width="21.59" height="21.59"/><rect class="cls-3" y="114.84" width="21.59" height="21.59"/><rect class="cls-3" x="206.71" y="137.81" width="21.59" height="21.59"/><rect class="cls-3" x="183.74" y="137.81" width="21.59" height="21.59"/><rect class="cls-3" x="160.78" y="137.81" width="21.59" height="21.59"/><rect class="cls-3" x="137.81" y="137.81" width="21.59" height="21.59"/><rect class="cls-3" x="114.84" y="137.81" width="21.59" height="21.59"/><rect class="cls-3" x="91.87" y="137.81" width="21.59" height="21.59"/><rect class="cls-3" x="68.9" y="137.81" width="21.59" height="21.59"/><rect class="cls-3" x="45.94" y="137.81" width="21.59" height="21.59"/><rect class="cls-3" x="22.97" y="137.81" width="21.59" height="21.59"/><rect class="cls-3" y="137.81" width="21.59" height="21.59"/><rect class="cls-3" x="206.71" y="160.77" width="21.59" height="21.59"/><rect class="cls-3" x="183.74" y="160.77" width="21.59" height="21.59"/><rect class="cls-3" x="160.78" y="160.77" width="21.59" height="21.59"/><rect class="cls-3" x="137.81" y="160.77" width="21.59" height="21.59"/><rect class="cls-3" x="114.84" y="160.77" width="21.59" height="21.59"/><rect class="cls-3" x="91.87" y="160.77" width="21.59" height="21.59"/><rect class="cls-3" x="68.9" y="160.77" width="21.59" height="21.59"/><rect class="cls-3" x="45.94" y="160.77" width="21.59" height="21.59"/><rect class="cls-3" x="22.97" y="160.77" width="21.59" height="21.59"/><rect class="cls-3" y="160.77" width="21.59" height="21.59"/><rect class="cls-3" x="206.71" y="183.74" width="21.59" height="21.59"/><rect class="cls-3" x="183.74" y="183.74" width="21.59" height="21.59"/><rect class="cls-3" x="160.78" y="183.74" width="21.59" height="21.59"/><rect class="cls-3" x="137.81" y="183.74" width="21.59" height="21.59"/><rect class="cls-3" x="114.84" y="183.74" width="21.59" height="21.59"/><rect class="cls-3" x="91.87" y="183.74" width="21.59" height="21.59"/><rect class="cls-3" x="68.9" y="183.74" width="21.59" height="21.59"/><rect class="cls-3" x="45.94" y="183.74" width="21.59" height="21.59"/><rect class="cls-3" x="22.97" y="183.74" width="21.59" height="21.59"/><rect class="cls-3" y="183.74" width="21.59" height="21.59"/><rect class="cls-3" x="206.71" y="206.71" width="21.59" height="21.59"/><rect class="cls-3" x="183.74" y="206.71" width="21.59" height="21.59"/><rect class="cls-3" x="160.78" y="206.71" width="21.59" height="21.59"/><rect class="cls-3" x="137.81" y="206.71" width="21.59" height="21.59"/><rect class="cls-3" x="114.84" y="206.71" width="21.59" height="21.59"/><rect class="cls-3" x="91.87" y="206.71" width="21.59" height="21.59"/><rect class="cls-3" x="68.9" y="206.71" width="21.59" height="21.59"/><rect class="cls-3" x="45.94" y="206.71" width="21.59" height="21.59"/><rect class="cls-3" x="22.97" y="206.71" width="21.59" height="21.59"/><rect class="cls-3" y="206.71" width="21.59" height="21.59"/></g></g></svg>