<svg xmlns="http://www.w3.org/2000/svg" xmlns:xlink="http://www.w3.org/1999/xlink" viewBox="0 0 674.93 325.88"><defs><style>.cls-1,.cls-5{fill:none;}.cls-2{fill:#007dc3;}.cls-3{fill:#fdb71a;}.cls-4{clip-path:url(#clip-path);}.cls-5{stroke:#fff;stroke-miterlimit:10;}.cls-6{fill:#fff;}</style><clipPath id="clip-path" transform="translate(0 0.15)"><rect class="cls-1" width="674.93" height="325.74"/></clipPath></defs><g id="Layer_2" data-name="Layer 2"><g id="Layer_1-2" data-name="Layer 1"><rect class="cls-2" x="263.22" y="29.71" width="411.71" height="25"/><rect class="cls-3" y="29.71" width="263.22" height="25"/><rect class="cls-2" x="296.97" y="67.44" width="377.96" height="25"/><rect class="cls-3" y="67.44" width="296.97" height="25"/><rect class="cls-2" x="310.47" y="105.16" width="364.46" height="25"/><rect class="cls-3" y="105.16" width="310.47" height="25"/><rect class="cls-2" x="330.72" y="142.89" width="344.22" height="25"/><rect class="cls-3" y="142.89" width="330.72" height="25"/><rect class="cls-2" x="337.47" y="180.61" width="337.47" height="25"/><rect class="cls-3" y="180.61" width="337.47" height="25"/><rect class="cls-2" x="303.72" y="300.88" width="371.21" height="25"/><rect class="cls-3" y="300.88" width="303.72" height="25"/><rect class="cls-2" x="336.79" y="263.09" width="338.14" height="25"/><rect class="cls-3" y="263.09" width="336.79" height="25"/><g class="cls-4"><line class="cls-5" y1="248.45" x2="204.27" y2="248.45"/><path class="cls-6" d="M0,242.44,4.38,233a.27.27,0,0,1,.24-.16h.14A.24.24,0,0,1,5,233l4.32,9.43a.25.25,0,0,1-.24.36H7.86a.4.4,0,0,1-.41-.28L6.77,241H2.58l-.69,1.51a.42.42,0,0,1-.4.28H.27A.24.24,0,0,1,0,242.44Zm6.05-3-1.4-3.08h0l-1.38,3.08Z" transform="translate(0 0.15)"/><path class="cls-6" d="M10.29,242.37a.29.29,0,0,1-.08-.35l.42-.85a.24.24,0,0,1,.37-.11,2.58,2.58,0,0,0,1.43.42c.49,0,.72-.18.72-.46s-.37-.56-1.22-.9c-1.25-.47-1.81-1.06-1.81-2s.75-1.89,2.33-1.89a3.58,3.58,0,0,1,1.92.47.37.37,0,0,1,.14.45l-.37.75a.31.31,0,0,1-.4.12,3.12,3.12,0,0,0-1.29-.32c-.44,0-.62.21-.62.42s.32.45.93.7c1.24.5,2.14.95,2.14,2.24,0,1-.87,1.93-2.49,1.93A3.65,3.65,0,0,1,10.29,242.37Z" transform="translate(0 0.15)"/><path class="cls-6" d="M19.11,236.19a3.38,3.38,0,1,1-3.3,3.36A3.36,3.36,0,0,1,19.11,236.19Zm0,5.17a1.76,1.76,0,0,0,1.7-1.81,1.69,1.69,0,1,0-3.38,0A1.75,1.75,0,0,0,19.11,241.36Z" transform="translate(0 0.15)"/><path class="cls-6" d="M26.85,236.19a3.19,3.19,0,0,1,2.41,1.09c.14.14.07.32-.07.46l-.58.65c-.15.15-.3.08-.43,0a1.71,1.71,0,0,0-1.28-.56,1.79,1.79,0,1,0,1.35,2.85.31.31,0,0,1,.41,0l.63.53c.16.14.23.3.11.46A2.87,2.87,0,0,1,26.84,243a3.38,3.38,0,1,1,0-6.76Z" transform="translate(0 0.15)"/><path class="cls-6" d="M30.41,234.1a1.09,1.09,0,0,1,1.1-1.11,1.12,1.12,0,1,1-1.1,1.11Zm.25,2.54a.31.31,0,0,1,.31-.31H32.1a.31.31,0,0,1,.31.31v5.85a.32.32,0,0,1-.31.31H31a.32.32,0,0,1-.31-.31Z" transform="translate(0 0.15)"/><path class="cls-6" d="M36.29,238.71a4.82,4.82,0,0,1,1.25.18,1.12,1.12,0,0,0-1.22-1.22,5.47,5.47,0,0,0-1.5.24c-.21.07-.34-.08-.37-.28l-.14-.73a.3.3,0,0,1,.21-.39,6.23,6.23,0,0,1,1.9-.32A2.49,2.49,0,0,1,39.17,239v3.56a.3.3,0,0,1-.33.3,1,1,0,0,1-1-.66,2.86,2.86,0,0,1-2,.75,2.06,2.06,0,0,1-2.19-2.21C33.71,239.59,34.65,238.71,36.29,238.71Zm0,2.94a1.37,1.37,0,0,0,1.16-.69v-1a2.62,2.62,0,0,0-1-.19c-.74,0-1.15.35-1.15.92A.85.85,0,0,0,36.33,241.65Z" transform="translate(0 0.15)"/><path class="cls-6" d="M43.71,236.19a4.86,4.86,0,0,1,1.55.26V233.3a.34.34,0,0,1,.31-.31h1.14a.33.33,0,0,1,.31.31v9.26a.31.31,0,0,1-.34.3,1,1,0,0,1-1-.82,2.76,2.76,0,0,1-2.07.91,3.39,3.39,0,0,1,.11-6.76Zm1.55,2a2.56,2.56,0,0,0-1.34-.36,1.8,1.8,0,0,0-.08,3.57,1.46,1.46,0,0,0,1.42-.9Z" transform="translate(0 0.15)"/><path class="cls-6" d="M51.7,236.19a3.38,3.38,0,1,1-3.3,3.36A3.36,3.36,0,0,1,51.7,236.19Zm0,5.17a1.76,1.76,0,0,0,1.7-1.81,1.69,1.69,0,1,0-3.38,0A1.75,1.75,0,0,0,51.7,241.36Z" transform="translate(0 0.15)"/><path class="cls-6" d="M56.17,242.37a.28.28,0,0,1-.09-.35l.42-.85a.25.25,0,0,1,.38-.11,2.58,2.58,0,0,0,1.43.42c.49,0,.72-.18.72-.46s-.37-.56-1.22-.9c-1.25-.47-1.81-1.06-1.81-2s.74-1.89,2.33-1.89a3.54,3.54,0,0,1,1.91.47.36.36,0,0,1,.14.45l-.36.75a.33.33,0,0,1-.41.12,3,3,0,0,0-1.28-.32c-.44,0-.62.21-.62.42s.32.45.92.7c1.25.5,2.15.95,2.15,2.24,0,1-.87,1.93-2.5,1.93A3.61,3.61,0,0,1,56.17,242.37Z" transform="translate(0 0.15)"/><path class="cls-6" d="M68.81,243a4.86,4.86,0,0,1-1.55-.26v3.14a.33.33,0,0,1-.31.3H65.81a.31.31,0,0,1-.3-.3v-9.26a.3.3,0,0,1,.33-.3,1,1,0,0,1,1,.83,2.78,2.78,0,0,1,2.07-.91,3.39,3.39,0,0,1-.11,6.76Zm-1.55-2a2.52,2.52,0,0,0,1.34.37,1.63,1.63,0,0,0,1.61-1.78,1.61,1.61,0,0,0-1.52-1.79,1.48,1.48,0,0,0-1.43.89Z" transform="translate(0 0.15)"/><path class="cls-6" d="M76.33,236.19A3.38,3.38,0,1,1,73,239.55,3.37,3.37,0,0,1,76.33,236.19Zm0,5.17A1.75,1.75,0,0,0,78,239.55a1.69,1.69,0,1,0-3.37,0A1.75,1.75,0,0,0,76.33,241.36Z" transform="translate(0 0.15)"/><path class="cls-6" d="M81,236.57a.3.3,0,0,1,.34-.3,1,1,0,0,1,1,.88,2.27,2.27,0,0,1,1.81-1c.77,0,1.4.21,1.22.63l-.42,1a.28.28,0,0,1-.38.14,1.33,1.33,0,0,0-.61-.12,1.39,1.39,0,0,0-1.23.67v4c0,.24-.15.31-.36.31H81.34a.33.33,0,0,1-.31-.31Z" transform="translate(0 0.15)"/></g><path class="cls-6" d="M89,242.3c-.13-.1-.1-.24,0-.38l.39-.76a.3.3,0,0,1,.4-.08,2.33,2.33,0,0,0,1.2.36c.41,0,.69-.15.69-.49s-.31-.57-.87-.91c-.8-.48-1.33-.95-1.33-1.86a2.1,2.1,0,0,1,2.38-2,3.33,3.33,0,0,1,1.81.52.38.38,0,0,1,.08.47l-.38.73A.29.29,0,0,1,93,238a3.17,3.17,0,0,0-1.19-.33c-.5,0-.68.24-.68.48s.19.45.77.76a2.33,2.33,0,0,1,1.53,2A2.17,2.17,0,0,1,91,243,3.5,3.5,0,0,1,89,242.3Z" transform="translate(0 0.15)"/><path class="cls-6" d="M95.26,240.59l.4-2.71H95a.27.27,0,0,1-.24-.3l.11-.94a.34.34,0,0,1,.31-.31h.72l.24-1.79a.36.36,0,0,1,.32-.31h1.23c.15,0,.24.14.21.31l-.24,1.79h1.24c.16,0,.25.12.22.31l-.11.94a.35.35,0,0,1-.32.3H97.41L97,240.59c-.1.56.24.63.5.63a1.49,1.49,0,0,0,.55-.14.21.21,0,0,1,.32.17l.16,1c0,.16-.07.28-.24.38A3.12,3.12,0,0,1,97,243C95.73,243,95,242.06,95.26,240.59Z" transform="translate(0 0.15)"/><path class="cls-6" d="M106.13,236.57l-.84,6a.33.33,0,0,1-.35.3.9.9,0,0,1-.9-.83,2.9,2.9,0,0,1-1.94.92c-1.5,0-2.47-1.31-2.47-3a3.53,3.53,0,0,1,3.29-3.79,2.45,2.45,0,0,1,1.81.84,1.14,1.14,0,0,1,1.08-.76C106.05,236.27,106.16,236.41,106.13,236.57Zm-2.28,3.69.21-1.55a1.18,1.18,0,0,0-1.14-.9c-.85,0-1.54.87-1.54,2.13,0,.72.34,1.38,1.1,1.38A1.75,1.75,0,0,0,103.85,240.26Z" transform="translate(0 0.15)"/><path class="cls-6" d="M107.47,237.9a.27.27,0,0,1-.25-.31l.15-1c0-.19.14-.31.3-.31h.71l.07-.52c.24-1.77,1-3,2.76-3a2.78,2.78,0,0,1,1.75.61.38.38,0,0,1,0,.36l-.41.76a.27.27,0,0,1-.43.12,1.8,1.8,0,0,0-.93-.22c-.73,0-.89.62-1,1.33l-.07.52h1.52a.24.24,0,0,1,.24.31l-.14,1a.35.35,0,0,1-.32.31h-1.51l-.66,4.58a.38.38,0,0,1-.32.32h-1.24a.25.25,0,0,1-.22-.32l.67-4.58Z" transform="translate(0 0.15)"/><path class="cls-6" d="M112.88,237.9a.28.28,0,0,1-.26-.31l.16-1c0-.19.14-.31.29-.31h.72l.07-.52c.24-1.77,1-3,2.76-3a2.83,2.83,0,0,1,1.75.61.35.35,0,0,1,0,.36l-.4.76a.28.28,0,0,1-.44.12,1.76,1.76,0,0,0-.92-.22c-.73,0-.9.62-1,1.33l-.07.52h1.53c.17,0,.26.12.24.31l-.14,1a.37.37,0,0,1-.33.31h-1.51l-.66,4.58a.37.37,0,0,1-.32.32h-1.23c-.16,0-.25-.15-.23-.32l.68-4.58Z" transform="translate(0 0.15)"/><path class="cls-6" d="M121.85,245.7l1.29-3.11L121,236.75a.29.29,0,0,1,.28-.42h1.35a.26.26,0,0,1,.27.18l1.19,4h0l1.48-4c.07-.18.21-.18.4-.18h1.12a.29.29,0,0,1,.28.42l-3.77,9.19a.31.31,0,0,1-.28.19h-1.16A.29.29,0,0,1,121.85,245.7Z" transform="translate(0 0.15)"/><path class="cls-6" d="M134.77,236.19a3.38,3.38,0,1,1-3.3,3.36A3.36,3.36,0,0,1,134.77,236.19Zm0,5.17a1.76,1.76,0,0,0,1.7-1.81,1.69,1.69,0,1,0-3.38,0A1.75,1.75,0,0,0,134.77,241.36Z" transform="translate(0 0.15)"/><path class="cls-6" d="M142.78,243a4.86,4.86,0,0,1-1.55-.26v3.14a.33.33,0,0,1-.31.3h-1.14a.31.31,0,0,1-.3-.3v-9.26a.3.3,0,0,1,.33-.3,1,1,0,0,1,1,.83,2.8,2.8,0,0,1,2.07-.91,3.39,3.39,0,0,1-.11,6.76Zm-1.55-2a2.52,2.52,0,0,0,1.34.37,1.63,1.63,0,0,0,1.61-1.78,1.61,1.61,0,0,0-1.52-1.79,1.49,1.49,0,0,0-1.43.89Z" transform="translate(0 0.15)"/><path class="cls-6" d="M150.27,236.19a2.9,2.9,0,0,1,3,3,3.07,3.07,0,0,1,0,.42.33.33,0,0,1-.3.29h-4.15a1.55,1.55,0,0,0,1.61,1.5,2.17,2.17,0,0,0,1.39-.48c.15-.12.32-.14.42,0l.54.73a.28.28,0,0,1,0,.42,3.66,3.66,0,0,1-2.41.88,3.38,3.38,0,0,1,0-6.76Zm1.21,2.56a1.19,1.19,0,0,0-1.25-1.12,1.29,1.29,0,0,0-1.37,1.12Z" transform="translate(0 0.15)"/><path class="cls-6" d="M154.57,236.57a.3.3,0,0,1,.33-.3,1,1,0,0,1,1,.88,2.23,2.23,0,0,1,1.8-1c.77,0,1.4.21,1.22.63l-.42,1a.27.27,0,0,1-.38.14,1.26,1.26,0,0,0-.6-.12,1.39,1.39,0,0,0-1.23.67v4c0,.24-.16.31-.37.31h-1.07a.32.32,0,0,1-.31-.31Z" transform="translate(0 0.15)"/><path class="cls-6" d="M162,238.71a4.82,4.82,0,0,1,1.25.18,1.11,1.11,0,0,0-1.22-1.22,5.54,5.54,0,0,0-1.5.24c-.21.07-.34-.08-.36-.28l-.14-.73a.29.29,0,0,1,.21-.39,6.14,6.14,0,0,1,1.89-.32,2.5,2.5,0,0,1,2.76,2.81v3.56a.31.31,0,0,1-.34.3,1,1,0,0,1-1-.66,2.86,2.86,0,0,1-2,.75,2.06,2.06,0,0,1-2.19-2.21C159.45,239.59,160.39,238.71,162,238.71Zm0,2.94a1.4,1.4,0,0,0,1.17-.69v-1a2.7,2.7,0,0,0-1-.19c-.74,0-1.15.35-1.15.92A.85.85,0,0,0,162.07,241.65Z" transform="translate(0 0.15)"/><path class="cls-6" d="M169.65,236.19a3.2,3.2,0,0,1,2.41,1.09c.14.14.07.32-.07.46l-.59.65c-.14.15-.3.08-.42,0a1.75,1.75,0,0,0-1.29-.56,1.79,1.79,0,0,0,0,3.57,1.72,1.72,0,0,0,1.37-.72.3.3,0,0,1,.4,0l.63.53c.16.14.23.3.12.46a2.9,2.9,0,0,1-2.57,1.36,3.38,3.38,0,1,1,0-6.76Z" transform="translate(0 0.15)"/><path class="cls-6" d="M173.2,234.1a1.12,1.12,0,0,1,2.23,0,1.12,1.12,0,1,1-2.23,0Zm.25,2.54a.31.31,0,0,1,.31-.31h1.14a.3.3,0,0,1,.3.31v5.85a.32.32,0,0,1-.3.31h-1.14a.33.33,0,0,1-.31-.31Z" transform="translate(0 0.15)"/><path class="cls-6" d="M179.84,236.19a3.38,3.38,0,1,1-3.31,3.36A3.37,3.37,0,0,1,179.84,236.19Zm0,5.17a1.75,1.75,0,0,0,1.69-1.81,1.69,1.69,0,1,0-3.37,0A1.75,1.75,0,0,0,179.84,241.36Z" transform="translate(0 0.15)"/><path class="cls-6" d="M184.54,236.57a.3.3,0,0,1,.34-.3,1,1,0,0,1,1,.84,2.65,2.65,0,0,1,2.08-.92c2.06,0,2.6,1.39,2.6,2.95v3.35a.33.33,0,0,1-.31.31h-1.14a.31.31,0,0,1-.31-.31v-3.35c0-.84-.33-1.35-1.12-1.35a1.43,1.43,0,0,0-1.4,1v3.7c0,.24-.1.31-.4.31h-1a.33.33,0,0,1-.31-.31Z" transform="translate(0 0.15)"/><path class="cls-6" d="M195.14,236.19a2.9,2.9,0,0,1,3,3,3.07,3.07,0,0,1,0,.42.33.33,0,0,1-.31.29h-4.14a1.55,1.55,0,0,0,1.61,1.5,2.17,2.17,0,0,0,1.39-.48c.15-.12.32-.14.42,0l.54.73a.27.27,0,0,1,0,.42,3.63,3.63,0,0,1-2.4.88,3.38,3.38,0,0,1,0-6.76Zm1.21,2.56a1.19,1.19,0,0,0-1.25-1.12,1.28,1.28,0,0,0-1.37,1.12Z" transform="translate(0 0.15)"/><path class="cls-6" d="M199.23,242.37a.28.28,0,0,1-.09-.35l.42-.85a.25.25,0,0,1,.38-.11,2.58,2.58,0,0,0,1.43.42c.49,0,.71-.18.71-.46s-.36-.56-1.21-.9c-1.25-.47-1.81-1.06-1.81-2s.74-1.89,2.32-1.89a3.55,3.55,0,0,1,1.92.47.36.36,0,0,1,.14.45l-.36.75a.33.33,0,0,1-.41.12,3.08,3.08,0,0,0-1.29-.32c-.43,0-.61.21-.61.42s.32.45.92.7c1.25.5,2.15.95,2.15,2.24,0,1-.87,1.93-2.5,1.93A3.61,3.61,0,0,1,199.23,242.37Z" transform="translate(0 0.15)"/><path class="cls-6" d="M20.94,280l1.13-1.19a.39.39,0,0,1,.49,0,3.24,3.24,0,0,0,2.21.88,1.73,1.73,0,0,0,1.77-1.77,1.7,1.7,0,0,0-1.93-1.78H21.76a.62.62,0,0,1-.57-.67v-5.74a.34.34,0,0,1,.34-.34h6a.35.35,0,0,1,.36.34v1.64a.35.35,0,0,1-.36.34H23.69v2H25a3.92,3.92,0,0,1,4.23,4.1,4.41,4.41,0,0,1-4.59,4.36A4.82,4.82,0,0,1,21,280.63C20.74,280.34,20.72,280.22,20.94,280Z" transform="translate(0 0.15)"/><path class="cls-6" d="M30.57,275.68c0-4.07,1.71-6.48,4.73-6.48s4.75,2.41,4.75,6.48-1.72,6.48-4.75,6.48S30.57,279.73,30.57,275.68Zm6.66,0c0-2.43-.79-3.85-1.93-3.85s-1.91,1.42-1.91,3.85.8,3.87,1.91,3.87S37.23,278.13,37.23,275.68Z" transform="translate(0 0.15)"/><path class="cls-6" d="M41.62,271.61a2.43,2.43,0,0,1,4.86,0,2.43,2.43,0,0,1-4.86,0Zm7.51-2.05a.35.35,0,0,1,.3-.18H50.8a.33.33,0,0,1,.31.49L44.9,281.8a.58.58,0,0,1-.31.18H43.26a.33.33,0,0,1-.31-.48Zm-4.47,2.05a.62.62,0,0,0-1.24,0,.62.62,0,1,0,1.24,0Zm5.42,5.69a2.43,2.43,0,1,1-2.43,2.43A2.44,2.44,0,0,1,50.08,277.3Zm0,3a.63.63,0,0,0,.63-.61.62.62,0,1,0-1.24,0A.63.63,0,0,0,50.08,280.34Z" transform="translate(0 0.15)"/><g class="cls-4"><path class="cls-6" d="M21.17,317.16a.36.36,0,0,1-.36-.36v-1.6a.83.83,0,0,1,.25-.66l6.23-7.44a.34.34,0,0,1,.27-.11h1.33a.36.36,0,0,1,.36.36v7.51h1.48a.33.33,0,0,1,.36.34v1.6a.36.36,0,0,1-.36.36H29.25v2.25a.36.36,0,0,1-.34.37H27a.36.36,0,0,1-.34-.37v-2.25Zm5.46-2.23v-3.51h0l-2.88,3.48v0Z" transform="translate(0 0.15)"/><path class="cls-6" d="M32.62,317.79l1.13-1.18a.38.38,0,0,1,.49,0,3.24,3.24,0,0,0,2.21.88,1.73,1.73,0,0,0,1.77-1.76,1.7,1.7,0,0,0-1.93-1.79H33.45a.62.62,0,0,1-.58-.66v-5.75a.34.34,0,0,1,.34-.34h6a.35.35,0,0,1,.36.34v1.64a.35.35,0,0,1-.36.34H35.37v2h1.32a3.92,3.92,0,0,1,4.23,4.11A4.42,4.42,0,0,1,36.33,320a4.82,4.82,0,0,1-3.66-1.54C32.42,318.14,32.4,318,32.62,317.79Z" transform="translate(0 0.15)"/><path class="cls-6" d="M42.37,309.4a2.44,2.44,0,0,1,4.87,0,2.44,2.44,0,0,1-4.87,0Zm7.51-2a.39.39,0,0,1,.31-.18h1.37a.32.32,0,0,1,.3.49L45.65,319.6a.52.52,0,0,1-.31.18H44a.33.33,0,0,1-.3-.49Zm-4.46,2a.63.63,0,1,0-.62.63A.63.63,0,0,0,45.42,309.4Zm5.42,5.69a2.44,2.44,0,1,1-2.43,2.43A2.44,2.44,0,0,1,50.84,315.09Zm0,3.05a.63.63,0,1,0-.62-.62A.64.64,0,0,0,50.84,318.14Z" transform="translate(0 0.15)"/><line class="cls-5" y1="15.45" x2="118.53" y2="15.45"/><path class="cls-6" d="M0,9.44,4.38,0a.27.27,0,0,1,.24-.16h.14A.24.24,0,0,1,5,0L9.32,9.44a.25.25,0,0,1-.24.36H7.86a.4.4,0,0,1-.41-.28L6.77,8H2.58L1.89,9.52a.42.42,0,0,1-.4.28H.27A.24.24,0,0,1,0,9.44Zm6.05-3L4.68,3.37h0L3.26,6.45Z" transform="translate(0 0.15)"/><path class="cls-6" d="M10.29,9.37A.29.29,0,0,1,10.21,9l.42-.85A.24.24,0,0,1,11,8.06a2.58,2.58,0,0,0,1.43.42c.49,0,.72-.18.72-.46s-.37-.56-1.22-.9c-1.25-.47-1.81-1.06-1.81-2s.75-1.89,2.33-1.89a3.58,3.58,0,0,1,1.92.47.37.37,0,0,1,.14.45l-.37.75a.31.31,0,0,1-.4.12,3.12,3.12,0,0,0-1.29-.32c-.44,0-.62.21-.62.42s.32.45.93.7c1.24.5,2.14,1,2.14,2.24C14.9,9,14,10,12.41,10A3.65,3.65,0,0,1,10.29,9.37Z" transform="translate(0 0.15)"/><path class="cls-6" d="M19.11,3.19a3.38,3.38,0,1,1-3.3,3.36A3.36,3.36,0,0,1,19.11,3.19Zm0,5.17a1.76,1.76,0,0,0,1.7-1.81,1.69,1.69,0,1,0-3.38,0A1.75,1.75,0,0,0,19.11,8.36Z" transform="translate(0 0.15)"/><path class="cls-6" d="M26.85,3.19a3.19,3.19,0,0,1,2.41,1.09c.14.14.07.32-.07.46l-.58.65c-.15.15-.3.08-.43,0a1.71,1.71,0,0,0-1.28-.56,1.69,1.69,0,0,0-1.71,1.77,1.69,1.69,0,0,0,1.69,1.8,1.71,1.71,0,0,0,1.37-.72.31.31,0,0,1,.41,0l.63.53c.16.14.23.3.11.46A2.87,2.87,0,0,1,26.84,10a3.38,3.38,0,1,1,0-6.76Z" transform="translate(0 0.15)"/><path class="cls-6" d="M30.41,1.1A1.09,1.09,0,0,1,31.51,0a1.12,1.12,0,1,1,0,2.23A1.1,1.1,0,0,1,30.41,1.1Zm.25,2.54A.31.31,0,0,1,31,3.33H32.1a.31.31,0,0,1,.31.31V9.49a.32.32,0,0,1-.31.31H31a.32.32,0,0,1-.31-.31Z" transform="translate(0 0.15)"/><path class="cls-6" d="M36.29,5.71a4.82,4.82,0,0,1,1.25.18,1.12,1.12,0,0,0-1.22-1.22,5.47,5.47,0,0,0-1.5.24c-.21.07-.34-.08-.37-.28l-.14-.73a.3.3,0,0,1,.21-.39,6.23,6.23,0,0,1,1.9-.32A2.49,2.49,0,0,1,39.17,6V9.56a.3.3,0,0,1-.33.3,1,1,0,0,1-1-.66,2.86,2.86,0,0,1-2,.75,2.06,2.06,0,0,1-2.19-2.21C33.71,6.59,34.65,5.71,36.29,5.71Zm0,2.94A1.37,1.37,0,0,0,37.49,8V7a2.62,2.62,0,0,0-1-.19c-.74,0-1.15.35-1.15.92A.85.85,0,0,0,36.33,8.65Z" transform="translate(0 0.15)"/><path class="cls-6" d="M43.71,3.19a4.86,4.86,0,0,1,1.55.26V.3A.34.34,0,0,1,45.57,0h1.14A.33.33,0,0,1,47,.3V9.56a.31.31,0,0,1-.34.3,1,1,0,0,1-1-.82A2.76,2.76,0,0,1,43.6,10a3.16,3.16,0,0,1-3.1-3.39A3.18,3.18,0,0,1,43.71,3.19Zm1.55,2a2.56,2.56,0,0,0-1.34-.36,1.63,1.63,0,0,0-1.61,1.77,1.62,1.62,0,0,0,1.53,1.8,1.46,1.46,0,0,0,1.42-.9Z" transform="translate(0 0.15)"/><path class="cls-6" d="M51.7,3.19a3.38,3.38,0,1,1-3.3,3.36A3.36,3.36,0,0,1,51.7,3.19Zm0,5.17a1.76,1.76,0,0,0,1.7-1.81,1.69,1.69,0,1,0-3.38,0A1.75,1.75,0,0,0,51.7,8.36Z" transform="translate(0 0.15)"/><path class="cls-6" d="M56.15,9.37A.29.29,0,0,1,56.07,9l.42-.85a.25.25,0,0,1,.38-.11,2.53,2.53,0,0,0,1.43.42c.49,0,.71-.18.71-.46s-.36-.56-1.22-.9c-1.24-.47-1.8-1.06-1.8-2s.74-1.89,2.32-1.89a3.58,3.58,0,0,1,1.92.47.37.37,0,0,1,.14.45L60,4.86A.33.33,0,0,1,59.6,5a3.12,3.12,0,0,0-1.29-.32c-.43,0-.62.21-.62.42s.33.45.93.7c1.25.5,2.14,1,2.14,2.24,0,1-.87,1.93-2.49,1.93A3.68,3.68,0,0,1,56.15,9.37Z" transform="translate(0 0.15)"/><path class="cls-6" d="M68.8,10a4.93,4.93,0,0,1-1.56-.26v3.14a.32.32,0,0,1-.31.3H65.8a.32.32,0,0,1-.31-.3V3.57a.3.3,0,0,1,.34-.3,1,1,0,0,1,1,.83,2.76,2.76,0,0,1,2.07-.91A3.16,3.16,0,0,1,72,6.58,3.17,3.17,0,0,1,68.8,10ZM67.24,8a2.53,2.53,0,0,0,1.35.37A1.64,1.64,0,0,0,70.2,6.58a1.61,1.61,0,0,0-1.53-1.79,1.49,1.49,0,0,0-1.43.89Z" transform="translate(0 0.15)"/><path class="cls-6" d="M76.32,3.19A3.38,3.38,0,1,1,73,6.55,3.36,3.36,0,0,1,76.32,3.19Zm0,5.17A1.76,1.76,0,0,0,78,6.55a1.69,1.69,0,1,0-3.38,0A1.75,1.75,0,0,0,76.32,8.36Z" transform="translate(0 0.15)"/><path class="cls-6" d="M81,3.57a.3.3,0,0,1,.33-.3,1,1,0,0,1,1,.88,2.23,2.23,0,0,1,1.8-1c.77,0,1.4.21,1.22.63L85,4.77a.27.27,0,0,1-.38.14,1.29,1.29,0,0,0-.6-.12,1.39,1.39,0,0,0-1.23.67v4c0,.24-.16.31-.37.31H81.33A.32.32,0,0,1,81,9.49Z" transform="translate(0 0.15)"/><path class="cls-6" d="M92.67,3.19a2.9,2.9,0,0,1,3,3c0,.09,0,.32,0,.42a.34.34,0,0,1-.31.29H91.15a1.56,1.56,0,0,0,1.61,1.5,2.12,2.12,0,0,0,1.39-.48c.16-.12.32-.14.42,0l.55.73a.28.28,0,0,1,0,.42,3.64,3.64,0,0,1-2.41.88A3.28,3.28,0,0,1,89.4,6.56,3.27,3.27,0,0,1,92.67,3.19Zm1.2,2.56a1.18,1.18,0,0,0-1.25-1.12,1.29,1.29,0,0,0-1.37,1.12Z" transform="translate(0 0.15)"/><path class="cls-6" d="M99.78,3.19a4.86,4.86,0,0,1,1.55.26V.3a.34.34,0,0,1,.31-.31h1.14a.32.32,0,0,1,.3.31V9.56a.3.3,0,0,1-.33.3,1,1,0,0,1-1-.82,2.76,2.76,0,0,1-2.07.91,3.16,3.16,0,0,1-3.1-3.39A3.18,3.18,0,0,1,99.78,3.19Zm1.55,2A2.56,2.56,0,0,0,100,4.79a1.62,1.62,0,0,0-1.61,1.77,1.62,1.62,0,0,0,1.52,1.8,1.47,1.47,0,0,0,1.43-.9Z" transform="translate(0 0.15)"/><path class="cls-6" d="M107,5.71a4.82,4.82,0,0,1,1.25.18A1.11,1.11,0,0,0,107,4.67a5.54,5.54,0,0,0-1.5.24c-.21.07-.33-.08-.36-.28L105,3.9a.29.29,0,0,1,.21-.39,6.21,6.21,0,0,1,1.89-.32A2.5,2.5,0,0,1,109.89,6V9.56a.3.3,0,0,1-.34.3,1,1,0,0,1-1-.66,2.86,2.86,0,0,1-2,.75,2.06,2.06,0,0,1-2.19-2.21C104.42,6.59,105.36,5.71,107,5.71Zm0,2.94A1.4,1.4,0,0,0,108.21,8V7a2.7,2.7,0,0,0-1-.19c-.74,0-1.14.35-1.14.92A.85.85,0,0,0,107,8.65Z" transform="translate(0 0.15)"/><path class="cls-6" d="M114.42,3.19a4.93,4.93,0,0,1,1.56.26V.3a.33.33,0,0,1,.31-.31h1.13a.33.33,0,0,1,.31.31V9.56a.3.3,0,0,1-.34.3,1,1,0,0,1-1-.82,2.76,2.76,0,0,1-2.07.91,3.16,3.16,0,0,1-3.1-3.39A3.18,3.18,0,0,1,114.42,3.19Zm1.56,2a2.62,2.62,0,0,0-1.35-.36A1.63,1.63,0,0,0,113,6.56a1.62,1.62,0,0,0,1.53,1.8,1.48,1.48,0,0,0,1.43-.9Z" transform="translate(0 0.15)"/></g><path class="cls-6" d="M20.56,47.14l1.08-1.21a.34.34,0,0,1,.47,0,3,3,0,0,0,2,.84,1.45,1.45,0,0,0,1.6-1.47c0-.92-.82-1.51-2.19-1.51H22.5a.36.36,0,0,1-.34-.35V41.87a.35.35,0,0,1,.34-.35h1.05c1.29,0,2-.61,2-1.4a1.36,1.36,0,0,0-1.48-1.41,2.17,2.17,0,0,0-1.62.74.35.35,0,0,1-.5,0l-1.14-1.12a.34.34,0,0,1,0-.48,4.83,4.83,0,0,1,3.55-1.64c2.16,0,4,1.31,4,3.4a3.32,3.32,0,0,1-1.9,2.85v.07a3.14,3.14,0,0,1,2.23,3c0,2-1.77,3.65-4.32,3.65a4.65,4.65,0,0,1-3.82-1.6A.38.38,0,0,1,20.56,47.14Z" transform="translate(0 0.15)"/><path class="cls-6" d="M31.18,47.64c-.07-.23,0-.43.36-.54.86-.28,3.28-1.09,3.73-3a5.51,5.51,0,0,1-1.77.38,3.73,3.73,0,0,1-3.69-4,4.27,4.27,0,0,1,4.25-4.25c2.86,0,4.46,2.16,4.46,5a8.24,8.24,0,0,1-6.23,8.07.42.42,0,0,1-.57-.29Zm4.7-7a1.79,1.79,0,1,0-1.78,1.8A1.81,1.81,0,0,0,35.88,40.59Z" transform="translate(0 0.15)"/><path class="cls-6" d="M40.09,38.66a2.43,2.43,0,0,1,4.86,0,2.43,2.43,0,0,1-4.86,0Zm7.51-2a.35.35,0,0,1,.3-.18h1.37a.33.33,0,0,1,.31.48L43.37,48.85a.58.58,0,0,1-.31.18H41.73a.33.33,0,0,1-.31-.49Zm-4.47,2a.62.62,0,0,0-1.24,0,.62.62,0,1,0,1.24,0Zm5.42,5.69a2.43,2.43,0,1,1-2.43,2.43A2.44,2.44,0,0,1,48.55,44.35Zm0,3a.62.62,0,1,0-.61-.61A.64.64,0,0,0,48.55,47.39Z" transform="translate(0 0.15)"/><path class="cls-6" d="M21.17,83.09a.36.36,0,0,1-.36-.36V81.12a.83.83,0,0,1,.25-.66L27.29,73a.34.34,0,0,1,.27-.11h1.33a.36.36,0,0,1,.36.36v7.51h1.48a.34.34,0,0,1,.36.34v1.61a.36.36,0,0,1-.36.36H29.25v2.25a.35.35,0,0,1-.34.36H27a.35.35,0,0,1-.34-.36V83.09Zm5.46-2.24V77.34h0l-2.88,3.48v0Z" transform="translate(0 0.15)"/><path class="cls-6" d="M32.85,83.09a.36.36,0,0,1-.36-.36V81.12a.83.83,0,0,1,.25-.66L39,73a.34.34,0,0,1,.27-.11h1.34a.37.37,0,0,1,.36.36v7.51h1.47a.34.34,0,0,1,.36.34v1.61a.36.36,0,0,1-.36.36H40.94v2.25a.36.36,0,0,1-.35.36h-2a.35.35,0,0,1-.34-.36V83.09Zm5.46-2.24V77.34h0l-2.88,3.48v0Z" transform="translate(0 0.15)"/><path class="cls-6" d="M44.21,75.33a2.43,2.43,0,1,1,2.43,2.43A2.41,2.41,0,0,1,44.21,75.33Zm7.51-2.06a.38.38,0,0,1,.31-.18h1.36a.33.33,0,0,1,.31.49L47.49,85.52a.58.58,0,0,1-.31.18H45.85a.33.33,0,0,1-.31-.49Zm-4.47,2.06a.63.63,0,0,0-.61-.62.63.63,0,1,0,0,1.25A.63.63,0,0,0,47.25,75.33ZM52.67,81a2.43,2.43,0,1,1-2.43,2.43A2.44,2.44,0,0,1,52.67,81Zm0,3a.62.62,0,1,0-.61-.61A.63.63,0,0,0,52.67,84.06Z" transform="translate(0 0.15)"/><path class="cls-6" d="M21.17,121.5a.36.36,0,0,1-.36-.36v-1.6a.85.85,0,0,1,.25-.67l6.23-7.44a.34.34,0,0,1,.27-.1h1.33a.36.36,0,0,1,.36.36v7.5h1.48a.34.34,0,0,1,.36.35v1.6a.36.36,0,0,1-.36.36H29.25v2.25a.35.35,0,0,1-.34.36H27a.35.35,0,0,1-.34-.36V121.5Zm5.46-2.23v-3.52h0l-2.88,3.48v0Z" transform="translate(0 0.15)"/><path class="cls-6" d="M38.63,111.16a.43.43,0,0,1,.58.29l.54,1.44c.07.22,0,.42-.36.54-.87.27-3.28,1.21-3.73,3a5.25,5.25,0,0,1,1.77-.38,3.73,3.73,0,0,1,3.69,4,4.27,4.27,0,0,1-4.25,4.25c-2.87,0-4.47-2.15-4.47-5C32.4,113.81,36.92,111.67,38.63,111.16Zm-1.8,10.59a1.79,1.79,0,0,0,0-3.58,1.79,1.79,0,0,0,0,3.58Z" transform="translate(0 0.15)"/><path class="cls-6" d="M42.63,113.74a2.43,2.43,0,0,1,4.86,0,2.43,2.43,0,0,1-4.86,0Zm7.5-2a.38.38,0,0,1,.31-.18h1.37a.33.33,0,0,1,.31.48L45.9,123.93a.52.52,0,0,1-.3.18H44.27a.33.33,0,0,1-.31-.49Zm-4.46,2a.62.62,0,0,0-1.24,0,.62.62,0,1,0,1.24,0Zm5.42,5.69a2.43,2.43,0,1,1-2.43,2.43A2.44,2.44,0,0,1,51.09,119.43Zm0,3a.62.62,0,1,0-.61-.61A.64.64,0,0,0,51.09,122.47Z" transform="translate(0 0.15)"/><path class="cls-6" d="M21.17,159.48a.36.36,0,0,1-.36-.36v-1.6a.85.85,0,0,1,.25-.67l6.23-7.44a.34.34,0,0,1,.27-.1h1.33a.36.36,0,0,1,.36.36v7.5h1.48a.34.34,0,0,1,.36.35v1.6a.36.36,0,0,1-.36.36H29.25v2.25a.35.35,0,0,1-.34.36H27a.35.35,0,0,1-.34-.36v-2.25Zm5.46-2.23v-3.51h0l-2.88,3.47v0Z" transform="translate(0 0.15)"/><path class="cls-6" d="M33.28,160.7c-.07-.23,0-.43.36-.54.87-.29,3.28-1.1,3.73-2.95a5.45,5.45,0,0,1-1.76.38,3.73,3.73,0,0,1-3.69-4,4.26,4.26,0,0,1,4.24-4.25c2.87,0,4.47,2.16,4.47,5a8.23,8.23,0,0,1-6.23,8.06.41.41,0,0,1-.57-.28Zm4.7-7a1.78,1.78,0,1,0-3.56,0,1.78,1.78,0,1,0,3.56,0Z" transform="translate(0 0.15)"/><path class="cls-6" d="M42.19,151.72a2.44,2.44,0,0,1,4.87,0,2.44,2.44,0,0,1-4.87,0Zm7.51-2.05a.37.37,0,0,1,.31-.18h1.37a.32.32,0,0,1,.3.48l-6.21,11.94a.52.52,0,0,1-.31.18H43.83a.32.32,0,0,1-.3-.49Zm-4.46,2.05a.63.63,0,0,0-.62-.61.62.62,0,0,0-.62.61.63.63,0,0,0,.62.63A.64.64,0,0,0,45.24,151.72Zm5.42,5.69a2.43,2.43,0,1,1-2.43,2.43A2.44,2.44,0,0,1,50.66,157.41Zm0,3a.62.62,0,1,0-.62-.61A.64.64,0,0,0,50.66,160.45Z" transform="translate(0 0.15)"/><path class="cls-6" d="M20.94,197.51l1.13-1.19a.39.39,0,0,1,.49,0,3.24,3.24,0,0,0,2.21.88,1.73,1.73,0,0,0,1.77-1.77,1.7,1.7,0,0,0-1.93-1.78H21.76a.62.62,0,0,1-.57-.66v-5.75a.34.34,0,0,1,.34-.34h6a.35.35,0,0,1,.36.34v1.64a.35.35,0,0,1-.36.34H23.69v2H25a3.92,3.92,0,0,1,4.23,4.11,4.41,4.41,0,0,1-4.59,4.35A4.82,4.82,0,0,1,21,198.14C20.74,197.85,20.72,197.73,20.94,197.51Z" transform="translate(0 0.15)"/><path class="cls-6" d="M30.57,193.19c0-4.07,1.71-6.48,4.73-6.48s4.75,2.41,4.75,6.48-1.72,6.48-4.75,6.48S30.57,197.24,30.57,193.19Zm6.66,0c0-2.43-.79-3.85-1.93-3.85s-1.91,1.42-1.91,3.85.8,3.87,1.91,3.87S37.23,195.64,37.23,193.19Z" transform="translate(0 0.15)"/><path class="cls-6" d="M41.62,189.12a2.43,2.43,0,0,1,4.86,0,2.43,2.43,0,0,1-4.86,0Zm7.51-2.05a.35.35,0,0,1,.3-.18H50.8a.33.33,0,0,1,.31.49L44.9,199.31a.58.58,0,0,1-.31.18H43.26A.33.33,0,0,1,43,199Zm-4.47,2.05a.62.62,0,0,0-1.24,0,.62.62,0,1,0,1.24,0Zm5.42,5.69a2.43,2.43,0,1,1-2.43,2.43A2.44,2.44,0,0,1,50.08,194.81Zm0,3a.63.63,0,0,0,.63-.61.62.62,0,1,0-1.24,0A.63.63,0,0,0,50.08,197.85Z" transform="translate(0 0.15)"/><path class="cls-6" d="M638.73,256.69c-.08-.05-.06-.13,0-.21l.22-.43a.16.16,0,0,1,.23-.05,1.33,1.33,0,0,0,.68.21c.24,0,.4-.09.4-.28s-.18-.33-.5-.52-.76-.55-.76-1.07a1.2,1.2,0,0,1,1.36-1.13,1.89,1.89,0,0,1,1,.29.24.24,0,0,1,0,.28l-.22.41a.15.15,0,0,1-.21.05,1.85,1.85,0,0,0-.68-.18c-.29,0-.39.13-.39.27s.11.25.44.43a1.34,1.34,0,0,1,.87,1.13,1.24,1.24,0,0,1-1.39,1.18A1.92,1.92,0,0,1,638.73,256.69Z" transform="translate(0 0.15)"/><path class="cls-6" d="M642.3,255.72l.23-1.54h-.4A.15.15,0,0,1,642,254l.06-.54a.2.2,0,0,1,.18-.17h.4l.14-1a.21.21,0,0,1,.18-.17h.71c.09,0,.13.08.12.17l-.14,1h.71c.09,0,.14.07.12.17l-.06.54a.2.2,0,0,1-.18.18h-.72l-.21,1.54c-.06.32.13.36.29.36a1,1,0,0,0,.31-.08.12.12,0,0,1,.18.09l.09.6c0,.08,0,.16-.14.21a1.75,1.75,0,0,1-.74.17C642.56,257.07,642.16,256.56,642.3,255.72Z" transform="translate(0 0.15)"/><path class="cls-6" d="M648.56,253.42l-.48,3.43a.18.18,0,0,1-.2.16.51.51,0,0,1-.51-.47,1.64,1.64,0,0,1-1.11.53,1.52,1.52,0,0,1-1.41-1.7,2,2,0,0,1,1.88-2.16,1.37,1.37,0,0,1,1,.48.65.65,0,0,1,.62-.43C648.51,253.26,648.58,253.34,648.56,253.42Zm-1.3,2.12.12-.89a.67.67,0,0,0-.65-.51c-.49,0-.88.49-.88,1.21,0,.41.19.78.63.78A1,1,0,0,0,647.26,255.54Z" transform="translate(0 0.15)"/><path class="cls-6" d="M649.37,254.18a.15.15,0,0,1-.14-.17l.09-.55a.17.17,0,0,1,.16-.17h.41l0-.3c.14-1,.55-1.68,1.58-1.68a1.62,1.62,0,0,1,1,.34.2.2,0,0,1,0,.21l-.23.43c-.07.13-.15.13-.24.07a1.07,1.07,0,0,0-.53-.13c-.42,0-.51.35-.57.76l0,.3h.87a.14.14,0,0,1,.14.17l-.08.55a.2.2,0,0,1-.19.17h-.86l-.38,2.62a.21.21,0,0,1-.18.18h-.7a.14.14,0,0,1-.13-.18l.38-2.62Z" transform="translate(0 0.15)"/><path class="cls-6" d="M652.4,254.18a.15.15,0,0,1-.15-.17l.09-.55c0-.1.08-.17.17-.17h.41l0-.3c.13-1,.54-1.68,1.57-1.68a1.57,1.57,0,0,1,1,.34.22.22,0,0,1,0,.21l-.23.43c-.07.13-.15.13-.25.07a1,1,0,0,0-.53-.13c-.41,0-.51.35-.57.76l0,.3h.88a.13.13,0,0,1,.13.17l-.08.55a.19.19,0,0,1-.18.17h-.87l-.37,2.62a.23.23,0,0,1-.19.18h-.7a.15.15,0,0,1-.13-.18l.39-2.62Z" transform="translate(0 0.15)"/><path class="cls-6" d="M615.12,293a1.93,1.93,0,1,1-1.89,1.92A1.92,1.92,0,0,1,615.12,293Zm0,2.95a1,1,0,0,0,1-1,1,1,0,1,0-1,1Z" transform="translate(0 0.15)"/><path class="cls-6" d="M619.69,296.86a2.89,2.89,0,0,1-.89-.15v1.79a.18.18,0,0,1-.17.18H618a.19.19,0,0,1-.18-.18v-5.28a.18.18,0,0,1,.2-.17.54.54,0,0,1,.57.47,1.62,1.62,0,0,1,1.19-.52,1.94,1.94,0,0,1-.07,3.86Zm-.89-1.12a1.48,1.48,0,0,0,.77.21,1,1,0,0,0,0-2,.86.86,0,0,0-.82.51Z" transform="translate(0 0.15)"/><path class="cls-6" d="M624,293a1.66,1.66,0,0,1,1.7,1.71,1.79,1.79,0,0,1,0,.24.18.18,0,0,1-.17.17h-2.37a.88.88,0,0,0,.92.85,1.2,1.2,0,0,0,.79-.27c.09-.07.18-.08.24,0l.31.42a.16.16,0,0,1,0,.24,2.11,2.11,0,0,1-1.38.5,1.93,1.93,0,0,1,0-3.86Zm.69,1.46a.67.67,0,0,0-.71-.64.75.75,0,0,0-.79.64Z" transform="translate(0 0.15)"/><path class="cls-6" d="M626.42,293.22a.17.17,0,0,1,.19-.17.56.56,0,0,1,.59.5,1.29,1.29,0,0,1,1-.55c.44,0,.8.12.69.36l-.24.54a.15.15,0,0,1-.21.08.77.77,0,0,0-.35-.07.79.79,0,0,0-.7.39v2.3c0,.13-.09.17-.21.17h-.61a.18.18,0,0,1-.18-.17Z" transform="translate(0 0.15)"/><path class="cls-6" d="M630.68,294.44a2.87,2.87,0,0,1,.72.1.64.64,0,0,0-.7-.69,3.32,3.32,0,0,0-.86.13c-.12,0-.19,0-.2-.16l-.08-.41a.17.17,0,0,1,.12-.23,3.68,3.68,0,0,1,1.08-.18,1.42,1.42,0,0,1,1.57,1.61v2a.17.17,0,0,1-.19.17.53.53,0,0,1-.55-.38,1.67,1.67,0,0,1-1.13.43,1.17,1.17,0,0,1-1.25-1.26C629.21,294.94,629.75,294.44,630.68,294.44Zm0,1.68a.8.8,0,0,0,.66-.39v-.55a1.5,1.5,0,0,0-.54-.11c-.43,0-.66.2-.66.53A.49.49,0,0,0,630.71,296.12Z" transform="translate(0 0.15)"/><path class="cls-6" d="M635.06,293a1.86,1.86,0,0,1,1.38.62c.08.08,0,.19,0,.27l-.34.37c-.08.08-.17,0-.24,0a1,1,0,0,0-.74-.32,1,1,0,1,0,.78,1.63.17.17,0,0,1,.23,0l.36.3c.09.08.13.17.07.27a1.68,1.68,0,0,1-1.47.77,1.93,1.93,0,1,1,0-3.86Z" transform="translate(0 0.15)"/><path class="cls-6" d="M637.12,291.81a.62.62,0,0,1,.63-.63.63.63,0,0,1,.64.63.64.64,0,0,1-.64.64A.63.63,0,0,1,637.12,291.81Zm.14,1.45a.18.18,0,0,1,.18-.18h.64a.18.18,0,0,1,.18.18v3.34a.18.18,0,0,1-.18.17h-.64a.18.18,0,0,1-.18-.17Z" transform="translate(0 0.15)"/><path class="cls-6" d="M641,293a1.93,1.93,0,1,1-1.89,1.92A1.91,1.91,0,0,1,641,293Zm0,2.95a1,1,0,0,0,1-1,1,1,0,1,0-1,1Z" transform="translate(0 0.15)"/><path class="cls-6" d="M643.64,293.22a.17.17,0,0,1,.19-.17.54.54,0,0,1,.57.48,1.53,1.53,0,0,1,1.2-.53c1.17,0,1.48.79,1.48,1.69v1.91a.18.18,0,0,1-.18.17h-.65a.18.18,0,0,1-.17-.17v-1.91c0-.48-.2-.78-.64-.78a.8.8,0,0,0-.8.58v2.11c0,.13-.06.17-.24.17h-.59a.18.18,0,0,1-.17-.17Z" transform="translate(0 0.15)"/><path class="cls-6" d="M649.7,293a1.65,1.65,0,0,1,1.69,1.71,1.85,1.85,0,0,1,0,.24.19.19,0,0,1-.18.17h-2.36a.87.87,0,0,0,.92.85,1.22,1.22,0,0,0,.79-.27.16.16,0,0,1,.24,0l.31.42a.16.16,0,0,1,0,.24,2.08,2.08,0,0,1-1.37.5,1.93,1.93,0,0,1,0-3.86Zm.69,1.46a.68.68,0,0,0-.71-.64.75.75,0,0,0-.79.64Z" transform="translate(0 0.15)"/><path class="cls-6" d="M652,296.53a.16.16,0,0,1,0-.2l.24-.48a.14.14,0,0,1,.21-.07,1.48,1.48,0,0,0,.82.24c.28,0,.41-.1.41-.26s-.21-.32-.7-.51c-.71-.27-1-.61-1-1.17s.42-1.08,1.33-1.08a2,2,0,0,1,1.09.27.21.21,0,0,1,.08.26l-.2.42a.18.18,0,0,1-.24.07,1.73,1.73,0,0,0-.73-.18c-.25,0-.35.12-.35.24s.18.26.52.4c.72.29,1.23.54,1.23,1.28,0,.58-.5,1.1-1.43,1.1A2.07,2.07,0,0,1,652,296.53Z" transform="translate(0 0.15)"/><path class="cls-6" d="M622.5,280l1.13-1.19a.39.39,0,0,1,.49,0,3.24,3.24,0,0,0,2.21.88,1.73,1.73,0,0,0,1.77-1.77,1.7,1.7,0,0,0-1.93-1.78h-2.84a.63.63,0,0,1-.58-.67v-5.74a.34.34,0,0,1,.34-.34h6a.35.35,0,0,1,.36.34v1.64a.35.35,0,0,1-.36.34h-3.82v2h1.32a3.92,3.92,0,0,1,4.23,4.1,4.41,4.41,0,0,1-4.59,4.36,4.82,4.82,0,0,1-3.66-1.53C622.3,280.34,622.28,280.22,622.5,280Z" transform="translate(0 0.15)"/><path class="cls-6" d="M632.13,275.68c0-4.07,1.71-6.48,4.73-6.48s4.76,2.41,4.76,6.48-1.73,6.48-4.76,6.48S632.13,279.73,632.13,275.68Zm6.66,0c0-2.43-.79-3.85-1.93-3.85s-1.91,1.42-1.91,3.85.8,3.87,1.91,3.87S638.79,278.13,638.79,275.68Z" transform="translate(0 0.15)"/><path class="cls-6" d="M643.18,271.61a2.43,2.43,0,0,1,4.86,0,2.43,2.43,0,1,1-4.86,0Zm7.51-2.05a.35.35,0,0,1,.3-.18h1.37a.33.33,0,0,1,.31.49l-6.21,11.93a.58.58,0,0,1-.31.18h-1.33a.33.33,0,0,1-.31-.48Zm-4.47,2.05a.62.62,0,0,0-1.24,0,.62.62,0,1,0,1.24,0Zm5.42,5.69a2.43,2.43,0,1,1-2.43,2.43A2.44,2.44,0,0,1,651.64,277.3Zm0,3a.63.63,0,0,0,.63-.61.62.62,0,1,0-1.24,0A.63.63,0,0,0,651.64,280.34Z" transform="translate(0 0.15)"/><g class="cls-4"><path class="cls-6" d="M623.58,317.79l1.13-1.18a.38.38,0,0,1,.49,0,3.24,3.24,0,0,0,2.21.88,1.73,1.73,0,0,0,1.77-1.76,1.7,1.7,0,0,0-1.93-1.79h-2.84a.62.62,0,0,1-.58-.66v-5.75a.34.34,0,0,1,.34-.34h6a.35.35,0,0,1,.36.34v1.64a.35.35,0,0,1-.36.34h-3.82v2h1.32a3.92,3.92,0,0,1,4.23,4.11,4.42,4.42,0,0,1-4.59,4.36,4.82,4.82,0,0,1-3.66-1.54C623.38,318.14,623.36,318,623.58,317.79Z" transform="translate(0 0.15)"/><path class="cls-6" d="M633.42,317.79l1.14-1.18a.37.37,0,0,1,.48,0,3.28,3.28,0,0,0,2.22.88,1.72,1.72,0,0,0,1.76-1.76,1.7,1.7,0,0,0-1.92-1.79h-2.85a.61.61,0,0,1-.57-.66v-5.75a.34.34,0,0,1,.34-.34h6a.36.36,0,0,1,.36.34v1.64a.36.36,0,0,1-.36.34h-3.82v2h1.31a3.92,3.92,0,0,1,4.23,4.11,4.42,4.42,0,0,1-4.59,4.36,4.81,4.81,0,0,1-3.65-1.54C633.23,318.14,633.21,318,633.42,317.79Z" transform="translate(0 0.15)"/><path class="cls-6" d="M643.18,309.4a2.43,2.43,0,0,1,4.86,0,2.43,2.43,0,1,1-4.86,0Zm7.51-2a.38.38,0,0,1,.3-.18h1.37a.33.33,0,0,1,.31.49l-6.21,11.94a.58.58,0,0,1-.31.18h-1.33a.33.33,0,0,1-.31-.49Zm-4.47,2a.63.63,0,0,0-.61-.61.62.62,0,1,0,0,1.24A.62.62,0,0,0,646.22,309.4Zm5.42,5.69a2.44,2.44,0,1,1-2.43,2.43A2.44,2.44,0,0,1,651.64,315.09Zm0,3.05a.63.63,0,1,0-.61-.62A.64.64,0,0,0,651.64,318.14Z" transform="translate(0 0.15)"/></g><path class="cls-6" d="M637.65,21.75V21.3a.16.16,0,0,1,.16-.15h2.6a.15.15,0,0,1,.15.15v.45a.15.15,0,0,1-.15.15h-2.6A.16.16,0,0,1,637.65,21.75Zm0,1.69V23a.16.16,0,0,1,.16-.15h2.6a.15.15,0,0,1,.15.15v.46a.15.15,0,0,1-.15.15h-2.6A.16.16,0,0,1,637.65,23.44Z" transform="translate(0 0.15)"/><path class="cls-6" d="M642.25,22.79v0a.2.2,0,0,1,.08-.14l2.78-1.69a.14.14,0,0,1,.22.13v.56a.17.17,0,0,1-.07.13l-1.72,1,1.72,1a.15.15,0,0,1,.07.13v.56a.14.14,0,0,1-.22.13l-2.78-1.64A.2.2,0,0,1,642.25,22.79Z" transform="translate(0 0.15)"/><path class="cls-6" d="M650,23.73a.16.16,0,0,1,.16.15v.57a.16.16,0,0,1-.16.16h-3.24a.16.16,0,0,1-.15-.16v-.08a.35.35,0,0,1,.06-.19c.56-.69,1.54-2,2.07-2.66a1.53,1.53,0,0,0,.42-.91.78.78,0,0,0-.88-.75,1.33,1.33,0,0,0-.91.48.14.14,0,0,1-.23,0l-.4-.39a.17.17,0,0,1,0-.21,2.31,2.31,0,0,1,1.63-.81,1.66,1.66,0,0,1,1.84,1.64,2.19,2.19,0,0,1-.56,1.32c-.34.5-1,1.27-1.4,1.82v0Z" transform="translate(0 0.15)"/><path class="cls-6" d="M651,23.73l.41-.41a.14.14,0,0,1,.2,0,1.61,1.61,0,0,0,1.06.46,1,1,0,0,0,.95-1,.9.9,0,0,0-1-.92H651.4a.27.27,0,0,1-.26-.29V19.16a.16.16,0,0,1,.16-.15h2.6a.16.16,0,0,1,.16.15v.56a.16.16,0,0,1-.16.16h-1.83V21h.71a1.75,1.75,0,0,1,1.89,1.82,1.93,1.93,0,0,1-2,1.89,2.12,2.12,0,0,1-1.63-.68C650.94,23.88,650.93,23.82,651,23.73Z" transform="translate(0 0.15)"/><path class="cls-6" d="M637.92,61.45a.16.16,0,0,1,.16.16v.56a.16.16,0,0,1-.16.16h-3.24a.15.15,0,0,1-.15-.16v-.08a.34.34,0,0,1,.06-.18c.56-.69,1.54-2,2.07-2.66a1.53,1.53,0,0,0,.42-.91.78.78,0,0,0-.88-.75,1.33,1.33,0,0,0-.91.48.15.15,0,0,1-.23,0l-.4-.39a.18.18,0,0,1,0-.22,2.31,2.31,0,0,1,1.63-.8,1.66,1.66,0,0,1,1.84,1.64,2.19,2.19,0,0,1-.56,1.32c-.34.5-1,1.27-1.4,1.82h1.76Z" transform="translate(0 0.15)"/><path class="cls-6" d="M641.58,56.59a.17.17,0,0,1,.23.12l.19.48c0,.1,0,.19-.15.24-.38.12-1.55.63-1.81,1.55a2.11,2.11,0,0,1,.94-.24,1.68,1.68,0,0,1,1.68,1.79,1.88,1.88,0,0,1-1.86,1.88,2,2,0,0,1-2-2.27A3.79,3.79,0,0,1,641.58,56.59Zm.15,3.92a1,1,0,0,0-1-1,1,1,0,0,0-.95.72c0,.57.29,1.23,1,1.23A.94.94,0,0,0,641.73,60.51Z" transform="translate(0 0.15)"/><path class="cls-6" d="M643.38,60.66v-.54a.15.15,0,0,1,.15-.15h1.79a.15.15,0,0,1,.15.15v.54a.15.15,0,0,1-.15.14h-1.79A.15.15,0,0,1,643.38,60.66Z" transform="translate(0 0.15)"/><path class="cls-6" d="M646.17,61.48l.43-.41a.13.13,0,0,1,.2,0,1.38,1.38,0,0,0,1,.45.79.79,0,0,0,.87-.75c0-.52-.39-.84-1.13-.84h-.47a.15.15,0,0,1-.15-.16v-.52c0-.11.06-.17.15-.17h.47c.68,0,1-.33,1-.75a.77.77,0,0,0-.8-.75A1,1,0,0,0,647,58a.17.17,0,0,1-.23,0l-.39-.38c-.08-.06-.06-.15,0-.22a1.94,1.94,0,0,1,1.54-.72,1.59,1.59,0,0,1,1.76,1.51,1.38,1.38,0,0,1-.85,1.27v0a1.47,1.47,0,0,1,1,1.34,1.68,1.68,0,0,1-1.89,1.6,2.21,2.21,0,0,1-1.72-.72A.18.18,0,0,1,646.17,61.48Z" transform="translate(0 0.15)"/><path class="cls-6" d="M650.45,59.54c0-1.81.75-2.88,2.07-2.88s2.07,1.07,2.07,2.88-.76,2.87-2.07,2.87S650.45,61.33,650.45,59.54Zm3.11,0c0-1.23-.4-1.93-1-1.93s-1,.7-1,1.93.4,1.93,1,1.93S653.56,60.76,653.56,59.54Z" transform="translate(0 0.15)"/><path class="cls-6" d="M636.65,99.21l.43-.41a.13.13,0,0,1,.21,0,1.34,1.34,0,0,0,1,.45.79.79,0,0,0,.87-.75c0-.53-.39-.84-1.13-.84h-.47a.16.16,0,0,1-.15-.16V97c0-.12.06-.17.15-.17H638c.68,0,1-.33,1-.75a.77.77,0,0,0-.8-.76,1,1,0,0,0-.83.4.16.16,0,0,1-.23,0l-.39-.37c-.08-.06-.06-.15,0-.22a1.94,1.94,0,0,1,1.54-.73,1.6,1.6,0,0,1,1.76,1.52,1.38,1.38,0,0,1-.85,1.27v0a1.47,1.47,0,0,1,1,1.33,1.68,1.68,0,0,1-1.89,1.61,2.13,2.13,0,0,1-1.71-.73A.16.16,0,0,1,636.65,99.21Z" transform="translate(0 0.15)"/><path class="cls-6" d="M641,96.12a.13.13,0,0,1-.17-.11l-.05-.4a.18.18,0,0,1,.08-.18l1-.86a.39.39,0,0,1,.28-.11h.41a.16.16,0,0,1,.15.16V99.9a.15.15,0,0,1-.15.16h-.7a.15.15,0,0,1-.16-.16V96Z" transform="translate(0 0.15)"/><path class="cls-6" d="M643.84,98.38v-.53a.15.15,0,0,1,.16-.15h1.78a.14.14,0,0,1,.15.15v.53a.15.15,0,0,1-.15.15H644A.16.16,0,0,1,643.84,98.38Z" transform="translate(0 0.15)"/><path class="cls-6" d="M646.64,99.21l.42-.41a.13.13,0,0,1,.21,0,1.34,1.34,0,0,0,1,.45.8.8,0,0,0,.88-.75c0-.53-.4-.84-1.14-.84h-.46a.16.16,0,0,1-.16-.16V97c0-.12.06-.17.16-.17H648c.68,0,1-.33,1-.75a.77.77,0,0,0-.8-.76,1,1,0,0,0-.83.4.15.15,0,0,1-.22,0l-.4-.37a.15.15,0,0,1,0-.22,2,2,0,0,1,1.54-.73,1.6,1.6,0,0,1,1.76,1.52,1.38,1.38,0,0,1-.85,1.27v0a1.47,1.47,0,0,1,1,1.33,1.69,1.69,0,0,1-1.9,1.61,2.15,2.15,0,0,1-1.71-.73A.15.15,0,0,1,646.64,99.21Z" transform="translate(0 0.15)"/><path class="cls-6" d="M651,99.18l.4-.41a.15.15,0,0,1,.2,0,1.67,1.67,0,0,0,1.07.46,1,1,0,0,0,.95-1,.9.9,0,0,0-1-.92H651.4a.27.27,0,0,1-.26-.28V94.62a.16.16,0,0,1,.16-.16h2.6a.16.16,0,0,1,.16.16v.56a.16.16,0,0,1-.16.16h-1.83v1.09h.71a1.75,1.75,0,0,1,1.89,1.82,1.92,1.92,0,0,1-2,1.89,2.09,2.09,0,0,1-1.63-.68C650.94,99.33,650.93,99.28,651,99.18Z" transform="translate(0 0.15)"/><path class="cls-6" d="M633.75,136.93l.42-.4q.12-.1.21,0a1.34,1.34,0,0,0,1,.44.79.79,0,0,0,.87-.74c0-.53-.39-.85-1.14-.85h-.46a.14.14,0,0,1-.15-.16v-.52c0-.11.05-.16.15-.16h.46c.68,0,1-.33,1-.76a.78.78,0,0,0-.8-.75,1.08,1.08,0,0,0-.84.39.14.14,0,0,1-.22,0l-.4-.37a.15.15,0,0,1,0-.22,2,2,0,0,1,1.54-.73,1.6,1.6,0,0,1,1.76,1.51,1.39,1.39,0,0,1-.84,1.28v0a1.47,1.47,0,0,1,1,1.33,1.69,1.69,0,0,1-1.9,1.61,2.15,2.15,0,0,1-1.71-.73A.17.17,0,0,1,633.75,136.93Z" transform="translate(0 0.15)"/><path class="cls-6" d="M640.73,132.05c.12,0,.2,0,.23.11l.2.49c0,.1,0,.19-.16.24-.38.12-1.55.63-1.8,1.54a2,2,0,0,1,.93-.23,1.68,1.68,0,0,1,1.68,1.78,1.89,1.89,0,0,1-1.86,1.89,2,2,0,0,1-2-2.27A3.77,3.77,0,0,1,640.73,132.05Zm.15,3.92a.94.94,0,0,0-1-1,1,1,0,0,0-.95.72c0,.57.3,1.23,1,1.23A.94.94,0,0,0,640.88,136Z" transform="translate(0 0.15)"/><path class="cls-6" d="M642.53,136.11v-.53a.16.16,0,0,1,.16-.16h1.78a.15.15,0,0,1,.15.16v.53a.14.14,0,0,1-.15.14h-1.78A.15.15,0,0,1,642.53,136.11Z" transform="translate(0 0.15)"/><path class="cls-6" d="M645.46,136.6a.16.16,0,0,1-.16-.16v-.52a.37.37,0,0,1,.11-.28l2.83-3.44a.23.23,0,0,1,.2-.09h.4a.17.17,0,0,1,.16.16v3.47h.65a.15.15,0,0,1,.16.15v.55a.16.16,0,0,1-.16.16H649v1a.16.16,0,0,1-.16.16h-.68a.16.16,0,0,1-.16-.16v-1Zm2.58-.83v-2h0l-1.62,2v0Z" transform="translate(0 0.15)"/><path class="cls-6" d="M650.45,135c0-1.81.75-2.88,2.07-2.88s2.07,1.07,2.07,2.88-.76,2.88-2.07,2.88S650.45,136.79,650.45,135Zm3.11,0c0-1.22-.4-1.93-1-1.93s-1,.71-1,1.93.4,1.94,1,1.94S653.56,136.21,653.56,135Z" transform="translate(0 0.15)"/><path class="cls-6" d="M638.69,174.79a.14.14,0,0,1,.07-.13l1.71-1-1.71-1a.14.14,0,0,1-.07-.13V172a.14.14,0,0,1,.22-.13l2.77,1.7a.17.17,0,0,1,.08.13v0a.2.2,0,0,1-.08.14l-2.77,1.64a.14.14,0,0,1-.22-.13Z" transform="translate(0 0.15)"/><path class="cls-6" d="M643.45,172.66v-.44a.16.16,0,0,1,.16-.16h2.6a.16.16,0,0,1,.15.16v.44a.16.16,0,0,1-.15.16h-2.6A.16.16,0,0,1,643.45,172.66Zm0,1.69v-.46a.16.16,0,0,1,.16-.15h2.6a.15.15,0,0,1,.15.15v.46a.15.15,0,0,1-.15.15h-2.6A.16.16,0,0,1,643.45,174.35Z" transform="translate(0 0.15)"/><path class="cls-6" d="M647.71,174.33a.16.16,0,0,1-.16-.16v-.52a.4.4,0,0,1,.1-.28l2.83-3.44a.23.23,0,0,1,.21-.09h.39a.16.16,0,0,1,.16.16v3.47h.66a.15.15,0,0,1,.16.14v.56a.16.16,0,0,1-.16.16h-.66v1a.16.16,0,0,1-.16.16h-.68a.16.16,0,0,1-.16-.16v-1Zm2.57-.83v-2h0l-1.62,2v0Z" transform="translate(0 0.15)"/><path class="cls-6" d="M652.53,171.58a.15.15,0,0,1-.17-.12l-.05-.4a.15.15,0,0,1,.08-.17l1-.87a.4.4,0,0,1,.28-.1h.42a.15.15,0,0,1,.15.15v5.29a.15.15,0,0,1-.15.16h-.7a.15.15,0,0,1-.16-.16v-3.94Z" transform="translate(0 0.15)"/><path class="cls-6" d="M632.85,36.08a.44.44,0,0,1,.58.29l.54,1.44c.07.22,0,.42-.36.54-.87.27-3.28,1.21-3.73,3a5.25,5.25,0,0,1,1.76-.38,3.72,3.72,0,0,1,3.69,4,4.27,4.27,0,0,1-4.25,4.25c-2.86,0-4.46-2.14-4.46-5C626.62,38.73,631.14,36.59,632.85,36.08Zm-1.8,10.59a1.79,1.79,0,0,0,0-3.58,1.79,1.79,0,0,0,0,3.58Z" transform="translate(0 0.15)"/><path class="cls-6" d="M636.37,40.33a.35.35,0,0,1-.32-.36V38.8a.38.38,0,0,1,.11-.27l2.41-1.89a1.07,1.07,0,0,1,.65-.21h1.35a.35.35,0,0,1,.34.34v11.9a.35.35,0,0,1-.34.36h-2.05a.35.35,0,0,1-.36-.36V40.33Z" transform="translate(0 0.15)"/><path class="cls-6" d="M643.18,38.66a2.43,2.43,0,0,1,4.86,0,2.43,2.43,0,1,1-4.86,0Zm7.51-2a.35.35,0,0,1,.3-.18h1.37a.33.33,0,0,1,.31.48l-6.21,11.94a.58.58,0,0,1-.31.18h-1.33a.33.33,0,0,1-.31-.49Zm-4.47,2a.63.63,0,0,0-.61-.61.62.62,0,1,0,0,1.24A.63.63,0,0,0,646.22,38.66Zm5.42,5.69a2.43,2.43,0,1,1-2.43,2.43A2.44,2.44,0,0,1,651.64,44.35Zm0,3a.62.62,0,1,0-.61-.61A.64.64,0,0,0,651.64,47.39Z" transform="translate(0 0.15)"/><path class="cls-6" d="M623.33,83.72l1.13-1.19a.38.38,0,0,1,.49,0,3.19,3.19,0,0,0,2.21.88,1.73,1.73,0,0,0,1.77-1.76A1.7,1.7,0,0,0,627,79.85h-2.85a.62.62,0,0,1-.57-.67V73.44a.35.35,0,0,1,.34-.35h6a.36.36,0,0,1,.36.35v1.63a.36.36,0,0,1-.36.35h-3.82v2h1.32a3.93,3.93,0,0,1,4.23,4.11A4.42,4.42,0,0,1,627,85.88a4.82,4.82,0,0,1-3.66-1.53C623.13,84.06,623.11,83.93,623.33,83.72Z" transform="translate(0 0.15)"/><path class="cls-6" d="M639.19,72.75a.42.42,0,0,1,.57.29l.54,1.44c.07.22,0,.41-.36.54-.86.27-3.28,1.21-3.73,3a5,5,0,0,1,1.77-.38,3.72,3.72,0,0,1,3.69,4,4.27,4.27,0,0,1-4.25,4.25c-2.86,0-4.47-2.15-4.47-5.05C633,75.4,637.47,73.26,639.19,72.75Zm-1.81,10.59a1.79,1.79,0,1,0-1.78-1.78A1.79,1.79,0,0,0,637.38,83.34Z" transform="translate(0 0.15)"/><path class="cls-6" d="M643.18,75.33a2.43,2.43,0,1,1,2.43,2.43A2.41,2.41,0,0,1,643.18,75.33Zm7.51-2.06a.38.38,0,0,1,.3-.18h1.37a.33.33,0,0,1,.31.49l-6.21,11.94a.58.58,0,0,1-.31.18h-1.33a.33.33,0,0,1-.31-.49Zm-4.47,2.06a.63.63,0,0,0-.61-.62.63.63,0,1,0,0,1.25A.63.63,0,0,0,646.22,75.33ZM651.64,81a2.43,2.43,0,1,1-2.43,2.43A2.44,2.44,0,0,1,651.64,81Zm0,3a.62.62,0,1,0,0-1.24.62.62,0,0,0,0,1.24Z" transform="translate(0 0.15)"/><path class="cls-6" d="M621.74,122.13l1.14-1.19a.37.37,0,0,1,.48,0,3.22,3.22,0,0,0,2.22.88,1.77,1.77,0,1,0-.17-3.54h-2.84a.63.63,0,0,1-.58-.67v-5.74a.35.35,0,0,1,.35-.34h6a.35.35,0,0,1,.36.34v1.64a.35.35,0,0,1-.36.34H624.5v2h1.31a3.91,3.91,0,0,1,4.23,4.1,4.42,4.42,0,0,1-4.59,4.36,4.79,4.79,0,0,1-3.65-1.53C621.54,122.47,621.53,122.34,621.74,122.13Z" transform="translate(0 0.15)"/><path class="cls-6" d="M631.82,121.5a.36.36,0,0,1-.36-.36v-1.6a.85.85,0,0,1,.25-.67l6.23-7.44a.34.34,0,0,1,.27-.1h1.34a.36.36,0,0,1,.36.36v7.5h1.47a.34.34,0,0,1,.36.35v1.6a.36.36,0,0,1-.36.36h-1.47v2.25a.36.36,0,0,1-.35.36h-2a.35.35,0,0,1-.34-.36V121.5Zm5.46-2.23v-3.52h0l-2.88,3.48v0Z" transform="translate(0 0.15)"/><path class="cls-6" d="M643.18,113.74a2.43,2.43,0,0,1,4.86,0,2.43,2.43,0,1,1-4.86,0Zm7.51-2a.35.35,0,0,1,.3-.18h1.37a.33.33,0,0,1,.31.48l-6.21,11.94a.58.58,0,0,1-.31.18h-1.33a.33.33,0,0,1-.31-.49Zm-4.47,2a.62.62,0,0,0-.61-.61.63.63,0,0,0-.63.61.64.64,0,0,0,.63.63A.63.63,0,0,0,646.22,113.74Zm5.42,5.69a2.43,2.43,0,1,1-2.43,2.43A2.44,2.44,0,0,1,651.64,119.43Zm0,3a.62.62,0,1,0-.61-.61A.64.64,0,0,0,651.64,122.47Z" transform="translate(0 0.15)"/><path class="cls-6" d="M626.91,160.11l1.13-1.19a.38.38,0,0,1,.49,0,3.2,3.2,0,0,0,2.21.89,1.73,1.73,0,0,0,1.77-1.77,1.7,1.7,0,0,0-1.93-1.78h-2.84a.63.63,0,0,1-.58-.67v-5.74a.34.34,0,0,1,.34-.34h6a.35.35,0,0,1,.36.34v1.64a.35.35,0,0,1-.36.34h-3.82v2H631a3.92,3.92,0,0,1,4.23,4.1,4.42,4.42,0,0,1-4.59,4.36,4.82,4.82,0,0,1-3.66-1.53C626.71,160.45,626.69,160.33,626.91,160.11Z" transform="translate(0 0.15)"/><path class="cls-6" d="M636.37,153.39a.35.35,0,0,1-.32-.36v-1.17a.38.38,0,0,1,.11-.27l2.41-1.89a1.07,1.07,0,0,1,.65-.21h1.35a.35.35,0,0,1,.34.34v11.9a.35.35,0,0,1-.34.36h-2.05a.35.35,0,0,1-.36-.36v-8.34Z" transform="translate(0 0.15)"/><path class="cls-6" d="M643.18,151.72a2.43,2.43,0,0,1,4.86,0,2.43,2.43,0,1,1-4.86,0Zm7.51-2.05a.35.35,0,0,1,.3-.18h1.37a.33.33,0,0,1,.31.48l-6.21,11.94a.58.58,0,0,1-.31.18h-1.33a.33.33,0,0,1-.31-.49Zm-4.47,2.05a.62.62,0,0,0-.61-.61.63.63,0,0,0-.63.61.64.64,0,0,0,.63.63A.63.63,0,0,0,646.22,151.72Zm5.42,5.69a2.43,2.43,0,1,1-2.43,2.43A2.44,2.44,0,0,1,651.64,157.41Zm0,3a.62.62,0,1,0-.61-.61A.64.64,0,0,0,651.64,160.45Z" transform="translate(0 0.15)"/><path class="cls-6" d="M622.5,197.51l1.13-1.19a.39.39,0,0,1,.49,0,3.24,3.24,0,0,0,2.21.88,1.73,1.73,0,0,0,1.77-1.77,1.7,1.7,0,0,0-1.93-1.78h-2.84a.62.62,0,0,1-.58-.66v-5.75a.34.34,0,0,1,.34-.34h6a.35.35,0,0,1,.36.34v1.64a.35.35,0,0,1-.36.34h-3.82v2h1.32a3.92,3.92,0,0,1,4.23,4.11,4.41,4.41,0,0,1-4.59,4.35,4.82,4.82,0,0,1-3.66-1.53C622.3,197.85,622.28,197.73,622.5,197.51Z" transform="translate(0 0.15)"/><path class="cls-6" d="M632.13,193.19c0-4.07,1.71-6.48,4.73-6.48s4.76,2.41,4.76,6.48-1.73,6.48-4.76,6.48S632.13,197.24,632.13,193.19Zm6.66,0c0-2.43-.79-3.85-1.93-3.85s-1.91,1.42-1.91,3.85.8,3.87,1.91,3.87S638.79,195.64,638.79,193.19Z" transform="translate(0 0.15)"/><path class="cls-6" d="M643.18,189.12a2.43,2.43,0,0,1,4.86,0,2.43,2.43,0,1,1-4.86,0Zm7.51-2.05a.35.35,0,0,1,.3-.18h1.37a.33.33,0,0,1,.31.49l-6.21,11.93a.58.58,0,0,1-.31.18h-1.33a.33.33,0,0,1-.31-.48Zm-4.47,2.05a.62.62,0,0,0-1.24,0,.62.62,0,1,0,1.24,0Zm5.42,5.69a2.43,2.43,0,1,1-2.43,2.43A2.44,2.44,0,0,1,651.64,194.81Zm0,3a.63.63,0,0,0,.63-.61.62.62,0,1,0-1.24,0A.63.63,0,0,0,651.64,197.85Z" transform="translate(0 0.15)"/></g></g></svg>