<svg xmlns="http://www.w3.org/2000/svg" viewBox="0 0 72.47 72.47"><defs><style>.cls-1{fill:#fff;}.cls-2{fill:#fdb71a;}</style></defs><g id="Layer_2" data-name="Layer 2"><g id="Layer_1-2" data-name="Layer 1"><path class="cls-1" d="M36.24,72.47A36.24,36.24,0,1,0,0,36.23,36.23,36.23,0,0,0,36.24,72.47"/><path class="cls-2" d="M36.24,29.32a1.82,1.82,0,0,1-1.92-1.18l-1-11.08c0-1.09,1.28-2,2.89-2s2.9.9,2.9,2l-1,11.08a1.82,1.82,0,0,1-1.92,1.18Zm-6,3.46a1.81,1.81,0,0,0-.06-2.25l-9.1-6.39c-.95-.54-2.37.12-3.17,1.51s-.67,3,.28,3.5l10.08,4.69a1.81,1.81,0,0,0,2-1.07Zm12,0a1.81,1.81,0,0,0,2,1.07l10.08-4.69c.95-.54,1.09-2.1.29-3.5s-2.23-2-3.18-1.51l-9.1,6.39a1.82,1.82,0,0,0-.07,2.25Zm0,6.92a1.82,1.82,0,0,0,.07,2.25l9.1,6.39c1,.54,2.37-.12,3.18-1.51s.66-3-.29-3.5L44.2,38.62a1.83,1.83,0,0,0-2,1.08Zm-12,0a1.81,1.81,0,0,0-2-1.07L18.19,43.32c-1,.54-1.09,2.1-.28,3.5s2.22,2,3.17,1.51l9.1-6.39a1.81,1.81,0,0,0,.06-2.25Zm6,3.45a1.81,1.81,0,0,0-1.92,1.18l-1,11.07c0,1.1,1.28,2,2.89,2s2.9-.9,2.9-2l-1-11.07a1.81,1.81,0,0,0-1.92-1.18Zm4.45,12a.83.83,0,1,0,.84.82.82.82,0,0,0-.83-.82Zm0,.18a.64.64,0,1,1-.61.64.62.62,0,0,1,.61-.64Zm-.12.75h.09a.12.12,0,0,1,.14.12.74.74,0,0,0,.06.18h.24s0-.08-.06-.19a.23.23,0,0,0-.15-.2h0c.1,0,.18-.1.18-.18a.19.19,0,0,0-.09-.17.47.47,0,0,0-.29-.07,1.94,1.94,0,0,0-.33,0v.79h.21Zm0-.36h.09c.1,0,.15,0,.15.11s-.07.1-.16.1h-.08Z"/></g></g></svg>