<svg xmlns="http://www.w3.org/2000/svg" xmlns:xlink="http://www.w3.org/1999/xlink" viewBox="0 0 1200 768"><defs><style>.cls-1,.cls-4{fill:none;}.cls-2{fill:#00539b;}.cls-3{clip-path:url(#clip-path);}.cls-4{stroke:#fff;}.cls-5{fill:#e84528;}.cls-6{fill:#fff;}.cls-7{fill:#047dba;}.cls-8{fill:#e82c88;}.cls-9{fill:#7ac143;}.cls-10{fill:#fdb71a;}.cls-11{fill:#eef2f4;}.cls-12{fill:#147dc2;}.cls-13{fill:#f47b20;}.cls-14{fill:#e43e2e;}.cls-15{fill:#7bbae2;}.cls-16{fill:#ffb71b;}.cls-17{fill:#d81578;}</style><clipPath id="clip-path"><rect class="cls-1" width="1200" height="768"/></clipPath></defs><g id="Layer_2" data-name="Layer 2"><g id="Layer_1-2" data-name="Layer 1"><rect class="cls-2" x="0.5" y="0.5" width="239.8" height="767"/><g class="cls-3"><rect class="cls-4" x="0.5" y="0.5" width="239.8" height="767"/></g><rect class="cls-2" x="240.3" y="0.5" width="239.8" height="767"/><g class="cls-3"><rect class="cls-4" x="240.3" y="0.5" width="239.8" height="767"/></g><rect class="cls-2" x="480.1" y="0.5" width="239.8" height="767"/><g class="cls-3"><rect class="cls-4" x="480.1" y="0.5" width="239.8" height="767"/></g><rect class="cls-2" x="719.9" y="0.5" width="239.8" height="767"/><g class="cls-3"><rect class="cls-4" x="719.9" y="0.5" width="239.8" height="767"/></g><rect class="cls-2" x="959.7" y="0.5" width="239.8" height="767"/><g class="cls-3"><rect class="cls-4" x="959.7" y="0.5" width="239.8" height="767"/><path class="cls-5" d="M0,498.05H128.4a19.5,19.5,0,1,1,0,39H0"/><path class="cls-6" d="M22.17,519.26H25l1.15-4.12H23.33Zm1.4,7.58c-.41,0-.6-.25-.49-.63l1.15-4.12H21.4l-1.15,4.2a.74.74,0,0,1-.74.55h-2c-.14,0-.33-.25-.22-.63l1.16-4.12H16.65a.47.47,0,0,1-.52-.61l.25-1.62a.64.64,0,0,1,.68-.6h2.17l1.16-4.12h-2a.47.47,0,0,1-.52-.61l.22-1.59a.64.64,0,0,1,.68-.61h2.37l1.18-4.17a.7.7,0,0,1,.71-.55h1.68c.41,0,.6.25.49.63l-1.12,4.09H27l1.19-4.17a.69.69,0,0,1,.71-.55h1.68c.41,0,.6.25.49.63l-1.15,4.09h2a.47.47,0,0,1,.52.61l-.22,1.59a.64.64,0,0,1-.69.61H29.1L28,519.26h2.2a.47.47,0,0,1,.52.6l-.25,1.62a.64.64,0,0,1-.68.61H27.17L26,526.29a.73.73,0,0,1-.74.55Z"/><path class="cls-6" d="M40.33,516.51c1.35,0,2.64-1.46,2.64-3.24A2.06,2.06,0,0,0,41.1,511H38.55l-.77,5.52Zm-4.94-8.38a.59.59,0,0,1,.55-.52h5.88c2.75,0,4.75,2.61,4.75,5.49a6.45,6.45,0,0,1-6.46,6.76h-2.8l-.91,6.46a.59.59,0,0,1-.54.52H33.22a.41.41,0,0,1-.39-.52Z"/><path class="cls-6" d="M56.27,515.16l-1,1.93a.47.47,0,0,1-.66.25,3.23,3.23,0,0,0-1.34-.28,2.28,2.28,0,0,0-2.09,1.51l-1.1,7.67c-.06.47-.3.6-.74.6H47.12a.49.49,0,0,1-.47-.6l1.65-11.62A.65.65,0,0,1,49,514a1.77,1.77,0,0,1,1.76,1.62,4.52,4.52,0,0,1,3.35-1.79,4,4,0,0,1,2,.53.55.55,0,0,1,.14.76"/><path class="cls-6" d="M64.76,519.89c0-1.51-.71-2.83-2.11-2.83-1.82,0-3.16,1.76-3.16,4,0,1.56.68,2.91,2.19,2.91,1.71,0,3.08-1.79,3.08-4m-1.67-6c2.91,0,5,2.61,5,5.72,0,4.12-3.21,7.55-6.92,7.55-3,0-5.06-2.74-5.06-5.77,0-4.09,3.11-7.5,6.93-7.5"/><path class="cls-6" d="M78.67,519.67c0-1.51-.69-2.61-2.18-2.61a3.22,3.22,0,0,0-2.58,1.57l-.55,4.5a3.27,3.27,0,0,0,2.12.8c1.73,0,3.19-1.87,3.19-4.26m3.4-.14c0,4.29-2.91,7.61-6.56,7.61a5.23,5.23,0,0,1-2.59-.71l-.85,6.32c0,.38-.22.63-.77.63H69a.47.47,0,0,1-.44-.52l2.53-18.25a.64.64,0,0,1,.69-.57,1.7,1.7,0,0,1,1.7,1.45,5.58,5.58,0,0,1,4-1.62c2.94,0,4.56,2.56,4.56,5.66"/><path class="cls-6" d="M88,511l4.64-3.08a1.11,1.11,0,0,1,1.49.66c.35.69.33,1.4-.14,1.62l-5.08,2.34c-.31.13-.69-.11-.91-.53s-.19-.87,0-1m4.12,8.9c0-1.51-.71-2.83-2.11-2.83-1.82,0-3.16,1.76-3.16,4,0,1.56.68,2.91,2.19,2.91,1.71,0,3.08-1.79,3.08-4m-1.67-6c2.91,0,5,2.61,5,5.72,0,4.12-3.21,7.55-6.92,7.55-3,0-5.06-2.74-5.06-5.77,0-4.09,3.11-7.5,6.93-7.5"/><path class="cls-6" d="M96.47,525.85c-.25-.19-.19-.46,0-.74l.76-1.48a.57.57,0,0,1,.77-.17,4.65,4.65,0,0,0,2.37.72c.79,0,1.34-.31,1.34-1s-.6-1.12-1.7-1.78c-1.57-.94-2.61-1.87-2.61-3.66,0-2,1.59-3.9,4.67-3.9a6.47,6.47,0,0,1,3.54,1,.77.77,0,0,1,.17.93l-.74,1.43a.57.57,0,0,1-.74.17,6.17,6.17,0,0,0-2.34-.63c-1,0-1.35.46-1.35.93s.39.88,1.52,1.48c1.67.88,3,2.06,3,3.88,0,2.2-1.73,4.06-4.78,4.06a6.85,6.85,0,0,1-3.82-1.29"/><path class="cls-6" d="M108.67,510.08a2.49,2.49,0,0,1,2.47-2.47,1.85,1.85,0,0,1,1.87,1.92,2.53,2.53,0,0,1-2.47,2.45,1.84,1.84,0,0,1-1.87-1.9m-.22,4.67a.69.69,0,0,1,.63-.6h2.36a.51.51,0,0,1,.5.6l-1.65,11.49a.7.7,0,0,1-.63.6h-2.34a.53.53,0,0,1-.49-.6Z"/><path class="cls-6" d="M114.58,522.5l.77-5.3H114a.52.52,0,0,1-.47-.61l.22-1.84a.68.68,0,0,1,.61-.6h1.4l.46-3.52a.73.73,0,0,1,.64-.6h2.42c.3,0,.46.27.41.6l-.47,3.52h2.42c.33,0,.49.25.44.6l-.22,1.84a.68.68,0,0,1-.63.61h-2.45l-.74,5.3c-.19,1.1.47,1.24,1,1.24a2.86,2.86,0,0,0,1.07-.28.43.43,0,0,1,.63.33l.3,2c.06.3-.13.55-.46.74a6.25,6.25,0,0,1-2.56.57c-2.53,0-3.9-1.75-3.43-4.64"/><path class="cls-6" d="M131.37,519.89c0-1.51-.72-2.83-2.12-2.83-1.81,0-3.16,1.76-3.16,4,0,1.56.69,2.91,2.2,2.91,1.7,0,3.08-1.79,3.08-4m-1.68-6c2.91,0,5.06,2.61,5.06,5.72,0,4.12-3.22,7.55-6.93,7.55-3,0-5.06-2.74-5.06-5.77,0-4.09,3.11-7.5,6.93-7.5"/><path class="cls-7" d="M719.4,498.05H834.52a19.5,19.5,0,1,1,0,39H719.4"/><path class="cls-6" d="M741.57,519.26h2.86l1.15-4.12h-2.86Zm1.4,7.58c-.41,0-.6-.25-.49-.63l1.15-4.12H740.8l-1.15,4.2a.74.74,0,0,1-.74.55h-2c-.14,0-.33-.25-.22-.63l1.16-4.12h-1.79a.47.47,0,0,1-.52-.61l.25-1.62a.64.64,0,0,1,.68-.6h2.17l1.16-4.12h-2a.47.47,0,0,1-.52-.61l.22-1.59a.64.64,0,0,1,.68-.6h2.37l1.18-4.18a.7.7,0,0,1,.71-.55h1.68c.41,0,.6.25.49.63l-1.13,4.1h2.86l1.18-4.18a.71.71,0,0,1,.72-.55h1.67c.41,0,.61.25.5.63l-1.16,4.1h2a.47.47,0,0,1,.52.6l-.22,1.59a.65.65,0,0,1-.69.61h-2.42l-1.12,4.12h2.19a.48.48,0,0,1,.53.6l-.25,1.62a.65.65,0,0,1-.69.61h-2.58l-1.15,4.2a.74.74,0,0,1-.74.55Z"/><path class="cls-6" d="M758.74,523.49c3.35,0,6.13-3.16,6.13-7.28,0-3-1.7-5.27-4.34-5.27H758l-1.76,12.55Zm-4-15.36a.58.58,0,0,1,.52-.52h5.93c4.34,0,7.45,3.9,7.45,8.35,0,6-4.15,10.88-10.14,10.88h-6a.41.41,0,0,1-.36-.52Z"/><path class="cls-6" d="M771.41,510.08a2.5,2.5,0,0,1,2.47-2.47,1.85,1.85,0,0,1,1.87,1.92,2.53,2.53,0,0,1-2.47,2.45,1.84,1.84,0,0,1-1.87-1.9m-.22,4.67a.71.71,0,0,1,.63-.6h2.37a.51.51,0,0,1,.49.6L773,526.24a.68.68,0,0,1-.63.6h-2.33a.54.54,0,0,1-.5-.6Z"/><path class="cls-6" d="M775.62,525.85c-.25-.19-.2-.46-.06-.74l.77-1.48a.57.57,0,0,1,.77-.17,4.58,4.58,0,0,0,2.36.72c.8,0,1.35-.31,1.35-1s-.61-1.13-1.7-1.79c-1.57-.93-2.61-1.87-2.61-3.65,0-2,1.59-3.9,4.67-3.9a6.48,6.48,0,0,1,3.54,1,.77.77,0,0,1,.16.94l-.74,1.42a.56.56,0,0,1-.74.17,6.12,6.12,0,0,0-2.33-.63c-1,0-1.35.46-1.35.93s.38.88,1.51,1.48c1.68.88,3,2.06,3,3.88,0,2.2-1.73,4.06-4.78,4.06a6.78,6.78,0,0,1-3.81-1.29"/><path class="cls-6" d="M786.94,517.23a.53.53,0,0,1-.5-.61l.3-1.87a.63.63,0,0,1,.58-.6h1.4l.14-1c.47-3.46,1.87-5.79,5.41-5.79a5.49,5.49,0,0,1,3.43,1.18.71.71,0,0,1,0,.71l-.79,1.49c-.25.44-.53.44-.86.24a3.36,3.36,0,0,0-1.81-.44c-1.43,0-1.76,1.21-1.95,2.61l-.14,1h3a.46.46,0,0,1,.46.6l-.27,1.87a.7.7,0,0,1-.63.61h-3l-1.29,9a.75.75,0,0,1-.63.63h-2.42a.5.5,0,0,1-.44-.63l1.32-9Z"/><path class="cls-6" d="M805.43,515.17l-1,1.92a.47.47,0,0,1-.66.25,3.25,3.25,0,0,0-1.35-.28,2.29,2.29,0,0,0-2.09,1.51l-1.09,7.67c-.06.46-.31.6-.75.6h-2.22a.49.49,0,0,1-.47-.6l1.65-11.62a.66.66,0,0,1,.69-.58,1.77,1.77,0,0,1,1.76,1.62,4.51,4.51,0,0,1,3.35-1.78,4,4,0,0,1,2,.52.57.57,0,0,1,.14.77"/><path class="cls-6" d="M816.86,514.15a.49.49,0,0,1,.46.6l-1.62,11.62a.64.64,0,0,1-.68.58,1.75,1.75,0,0,1-1.76-1.57,4.29,4.29,0,0,1-3.68,1.76c-3.47,0-4-2.44-3.57-5.66l1-6.73a.66.66,0,0,1,.61-.6H810a.49.49,0,0,1,.47.6l-1,6.84c-.25,1.68.14,2.34,1.21,2.34,1.56,0,2.17-1.73,2.17-1.73l1-7.45a.62.62,0,0,1,.69-.6Z"/><path class="cls-6" d="M820,522.5l.77-5.3h-1.35a.52.52,0,0,1-.46-.61l.22-1.84a.67.67,0,0,1,.6-.6h1.4l.47-3.52a.72.72,0,0,1,.63-.6h2.42c.3,0,.47.27.41.6l-.47,3.52h2.42c.33,0,.49.25.44.6l-.22,1.84a.68.68,0,0,1-.63.61h-2.45l-.74,5.3c-.19,1.1.47,1.24,1,1.24a2.86,2.86,0,0,0,1.07-.28.42.42,0,0,1,.63.33l.31,2c0,.31-.14.55-.47.75a6.2,6.2,0,0,1-2.56.57c-2.52,0-3.9-1.76-3.43-4.64"/><path class="cls-6" d="M836.09,517.78c0-.47-.36-1-1.32-1a3.68,3.68,0,0,0-3,2.58c2.37,0,4.29-.58,4.29-1.59m-.8-3.9c2.5,0,4.21,1.56,4.21,3.51,0,3.24-4.23,4.29-8,4.31a2,2,0,0,0,2.08,2.37,5.35,5.35,0,0,0,2.34-.88c.24-.19.55-.28.71,0l1,1.4a.63.63,0,0,1-.09.82,6.66,6.66,0,0,1-4.39,1.73c-3.22,0-5-2.58-5-5.63,0-3.84,2.66-7.63,7.11-7.63"/><path class="cls-8" d="M959.2,498.05h126.5a19.5,19.5,0,1,1,0,39H959.2"/><path class="cls-6" d="M981.37,519.26h2.86l1.15-4.12h-2.86Zm1.4,7.58c-.41,0-.6-.25-.49-.63l1.15-4.12H980.6l-1.15,4.2a.74.74,0,0,1-.74.55h-2c-.14,0-.33-.25-.22-.63l1.16-4.12h-1.79a.47.47,0,0,1-.52-.61l.25-1.62a.64.64,0,0,1,.68-.6h2.17l1.16-4.12h-2a.47.47,0,0,1-.52-.61l.22-1.59a.64.64,0,0,1,.68-.6h2.37l1.18-4.18a.7.7,0,0,1,.71-.55h1.68c.41,0,.6.25.49.63l-1.13,4.1h2.86l1.18-4.18a.71.71,0,0,1,.72-.55h1.67c.41,0,.61.25.5.63l-1.16,4.1h2a.47.47,0,0,1,.52.6l-.22,1.59a.65.65,0,0,1-.69.61h-2.42l-1.12,4.12h2.19a.48.48,0,0,1,.53.6l-.25,1.62a.65.65,0,0,1-.69.61h-2.58l-1.15,4.2a.74.74,0,0,1-.74.55Z"/><path class="cls-6" d="M994.59,508.13a.58.58,0,0,1,.52-.52h2.69a.43.43,0,0,1,.39.52l-2.56,18.19a.58.58,0,0,1-.52.52h-2.69a.43.43,0,0,1-.39-.52Z"/><path class="cls-6" d="M1010.58,520l-.91,6.29a.67.67,0,0,1-.6.6h-2.42c-.3,0-.47-.27-.44-.6l1-6.49c.22-1.64,0-2.69-1.37-2.69a3.14,3.14,0,0,0-2.5,1.76l-1.1,7.42c-.06.46-.25.6-.66.6h-2.26a.48.48,0,0,1-.46-.6l1.62-11.62a.64.64,0,0,1,.69-.58,1.74,1.74,0,0,1,1.75,1.59,5.49,5.49,0,0,1,3.85-1.75c3.49,0,4.28,2.8,3.82,6.07"/><path class="cls-6" d="M1019.15,513.88a5.32,5.32,0,0,1,4.31,2.19c.22.31,0,.64-.24.91l-1.05,1.07a.51.51,0,0,1-.82,0,2.85,2.85,0,0,0-2.12-1c-1.73,0-3.21,1.46-3.21,4,0,2,.93,2.91,2.14,2.91a3.32,3.32,0,0,0,2.31-1.35.52.52,0,0,1,.8-.05l1.18,1.18a.65.65,0,0,1,.14.88,6.11,6.11,0,0,1-4.78,2.55c-3.14,0-5.25-2.5-5.25-5.9,0-4.32,2.94-7.36,6.59-7.36"/><path class="cls-6" d="M1026.9,508.22a.71.71,0,0,1,.61-.61h2.36a.53.53,0,0,1,.49.61l-2.55,18a.7.7,0,0,1-.63.6h-2.37a.5.5,0,0,1-.46-.6Z"/><path class="cls-6" d="M1042.18,514.15a.49.49,0,0,1,.46.6L1041,526.37a.63.63,0,0,1-.68.58,1.75,1.75,0,0,1-1.76-1.57,4.29,4.29,0,0,1-3.68,1.76c-3.47,0-4-2.44-3.57-5.66l1-6.73a.66.66,0,0,1,.61-.6h2.36a.49.49,0,0,1,.47.6l-1,6.84c-.25,1.68.14,2.34,1.21,2.34,1.56,0,2.17-1.73,2.17-1.73l1-7.45a.62.62,0,0,1,.69-.6Z"/><path class="cls-6" d="M1043.61,525.85c-.25-.19-.19-.46-.06-.74l.77-1.48a.57.57,0,0,1,.77-.17,4.61,4.61,0,0,0,2.36.72c.8,0,1.35-.31,1.35-1s-.6-1.13-1.7-1.79c-1.57-.93-2.61-1.87-2.61-3.65,0-2,1.59-3.9,4.67-3.9a6.48,6.48,0,0,1,3.54,1,.77.77,0,0,1,.16.94l-.74,1.42a.56.56,0,0,1-.74.17,6.12,6.12,0,0,0-2.33-.63c-1,0-1.35.46-1.35.93s.38.88,1.51,1.48c1.68.88,3,2.07,3,3.88,0,2.2-1.73,4.06-4.78,4.06a6.82,6.82,0,0,1-3.82-1.29"/><path class="cls-6" d="M1055.81,510.08a2.49,2.49,0,0,1,2.47-2.47,1.85,1.85,0,0,1,1.87,1.92,2.53,2.53,0,0,1-2.47,2.45,1.84,1.84,0,0,1-1.87-1.9m-.22,4.67a.69.69,0,0,1,.63-.6h2.36a.51.51,0,0,1,.5.6l-1.65,11.49a.7.7,0,0,1-.63.6h-2.34a.53.53,0,0,1-.49-.6Z"/><path class="cls-6" d="M1064.87,511l4.65-3.08c.46-.3,1.15,0,1.48.66s.33,1.4-.14,1.62l-5.08,2.34c-.3.14-.69-.11-.91-.52s-.19-.88,0-1m4.12,8.9c0-1.51-.71-2.83-2.11-2.83-1.81,0-3.16,1.76-3.16,4,0,1.56.69,2.91,2.2,2.91,1.7,0,3.07-1.79,3.07-4m-1.67-6c2.91,0,5,2.61,5,5.71,0,4.12-3.21,7.55-6.92,7.55-3,0-5-2.74-5-5.77,0-4.09,3.1-7.49,6.92-7.49"/><path class="cls-6" d="M1085.42,520l-.9,6.29a.67.67,0,0,1-.61.6h-2.41c-.31,0-.47-.27-.44-.6l1-6.49c.22-1.64,0-2.69-1.38-2.69a3.14,3.14,0,0,0-2.5,1.76l-1.1,7.42c0,.46-.24.6-.66.6h-2.25a.48.48,0,0,1-.46-.6l1.62-11.62a.63.63,0,0,1,.68-.58,1.74,1.74,0,0,1,1.76,1.59,5.44,5.44,0,0,1,3.85-1.75c3.49,0,4.28,2.8,3.81,6.07"/><path class="cls-9" d="M239.8,498.05h75.27a19.5,19.5,0,1,1,0,39H239.8"/><path class="cls-6" d="M262,519.26h2.86l1.15-4.12h-2.86Zm1.4,7.58c-.41,0-.6-.25-.49-.63l1.15-4.12H261.2l-1.15,4.2a.74.74,0,0,1-.74.55h-2c-.14,0-.33-.25-.22-.63l1.15-4.12h-1.78a.47.47,0,0,1-.52-.61l.24-1.62a.65.65,0,0,1,.69-.6H259l1.15-4.12h-2a.47.47,0,0,1-.52-.61l.22-1.59a.64.64,0,0,1,.68-.6H261l1.19-4.18a.69.69,0,0,1,.71-.55h1.67c.42,0,.61.25.5.63l-1.13,4.1h2.86l1.18-4.18a.71.71,0,0,1,.72-.55h1.67c.41,0,.61.25.5.63l-1.16,4.1h2a.48.48,0,0,1,.53.6l-.22,1.59a.66.66,0,0,1-.69.61h-2.42l-1.12,4.12H270a.48.48,0,0,1,.53.6l-.25,1.62a.65.65,0,0,1-.69.61H267l-1.15,4.2a.74.74,0,0,1-.75.55Z"/><path class="cls-6" d="M281.07,516.37a3,3,0,0,0,2.88-3.18c0-1.51-.77-2.28-1.78-2.28H278.4l-.77,5.46Zm-5.88-8.24a.58.58,0,0,1,.52-.52H283c2.69,0,4.64,2.31,4.64,5.14,0,3.35-1.75,5.52-4.36,6.34l2.25,7a.5.5,0,0,1-.47.71h-2.61a.56.56,0,0,1-.6-.44l-2-7.09h-2.61l-1,7a.58.58,0,0,1-.52.52H273a.41.41,0,0,1-.39-.52Z"/><path class="cls-6" d="M295.69,517.78c0-.47-.36-1-1.32-1a3.68,3.68,0,0,0-3,2.58c2.36,0,4.29-.58,4.29-1.59m-.8-3.9c2.5,0,4.2,1.56,4.2,3.51,0,3.24-4.23,4.29-8,4.31a2,2,0,0,0,2.09,2.37,5.31,5.31,0,0,0,2.33-.88c.25-.19.55-.28.72,0l1,1.4a.62.62,0,0,1-.08.82,6.69,6.69,0,0,1-4.4,1.73c-3.21,0-5-2.58-5-5.63,0-3.84,2.67-7.63,7.12-7.63"/><path class="cls-6" d="M301.26,522.5l.77-5.3h-1.34a.52.52,0,0,1-.47-.61l.22-1.84a.68.68,0,0,1,.6-.6h1.41l.46-3.52a.73.73,0,0,1,.63-.6H306c.3,0,.47.27.41.6l-.46,3.52h2.41c.33,0,.5.25.44.6l-.22,1.84a.67.67,0,0,1-.63.61h-2.44l-.74,5.3c-.2,1.1.46,1.24,1,1.24a2.92,2.92,0,0,0,1.08-.28.42.42,0,0,1,.63.33l.3,2c0,.31-.14.55-.47.75a6.18,6.18,0,0,1-2.55.57c-2.53,0-3.9-1.76-3.44-4.64"/><path class="cls-6" d="M318.05,519.89c0-1.51-.71-2.83-2.11-2.83-1.82,0-3.16,1.76-3.16,4,0,1.56.68,2.91,2.19,2.91,1.71,0,3.08-1.79,3.08-4m-1.68-6c2.92,0,5.06,2.6,5.06,5.71,0,4.12-3.21,7.55-6.92,7.55-3,0-5.06-2.74-5.06-5.77,0-4.09,3.11-7.49,6.92-7.49"/><path class="cls-10" d="M479.6,498.05H650.82a19.5,19.5,0,1,1,0,39H479.6"/><path class="cls-6" d="M501.77,519.26h2.86l1.15-4.12h-2.86Zm1.4,7.58c-.41,0-.6-.25-.49-.63l1.15-4.12H501l-1.15,4.2a.74.74,0,0,1-.74.55h-2c-.14,0-.33-.25-.22-.63l1.15-4.12h-1.78a.47.47,0,0,1-.52-.61l.24-1.62a.65.65,0,0,1,.69-.6h2.17l1.15-4.12h-2a.47.47,0,0,1-.52-.61l.22-1.59a.64.64,0,0,1,.68-.6h2.36l1.19-4.18a.69.69,0,0,1,.71-.55h1.67c.42,0,.61.25.5.63l-1.13,4.1h2.86l1.18-4.18a.71.71,0,0,1,.72-.55h1.67c.41,0,.61.25.5.63l-1.16,4.1h2a.48.48,0,0,1,.53.6l-.22,1.59a.66.66,0,0,1-.69.61h-2.42l-1.12,4.12h2.19a.48.48,0,0,1,.53.6l-.25,1.62a.65.65,0,0,1-.69.61h-2.58l-1.15,4.2a.74.74,0,0,1-.75.55Z"/><path class="cls-6" d="M526.91,516.37c0-3-1.7-5.46-4.42-5.46-3.3,0-6.16,3.32-6.16,7.22,0,3,1.68,5.41,4.4,5.41,3.35,0,6.18-3.24,6.18-7.17m-4-9c4.45,0,7.72,3.92,7.72,8.59,0,6.19-4.48,11.18-10.28,11.18-4.47,0-7.71-4-7.71-8.51,0-6.21,4.42-11.26,10.27-11.26"/><path class="cls-6" d="M540.71,519.67c0-1.51-.69-2.61-2.18-2.61a3.22,3.22,0,0,0-2.58,1.57l-.55,4.5a3.27,3.27,0,0,0,2.12.8c1.73,0,3.19-1.87,3.19-4.26m3.4-.14c0,4.29-2.91,7.61-6.56,7.61a5.34,5.34,0,0,1-2.59-.71l-.85,6.32c-.05.38-.22.63-.77.63h-2.28a.48.48,0,0,1-.44-.52l2.53-18.24a.65.65,0,0,1,.69-.58,1.7,1.7,0,0,1,1.7,1.46,5.54,5.54,0,0,1,4-1.63c2.94,0,4.56,2.56,4.56,5.66"/><path class="cls-6" d="M554.14,519.89c0-1.51-.71-2.83-2.11-2.83-1.82,0-3.16,1.76-3.16,4,0,1.56.68,2.91,2.19,2.91,1.71,0,3.08-1.79,3.08-4m-1.67-6c2.91,0,5,2.61,5,5.72,0,4.12-3.21,7.55-6.92,7.55-3,0-5.06-2.74-5.06-5.77,0-4.09,3.11-7.5,6.93-7.5"/><path class="cls-6" d="M568.46,515.17l-1,1.92a.47.47,0,0,1-.66.25,3.25,3.25,0,0,0-1.35-.28,2.29,2.29,0,0,0-2.09,1.51l-1.09,7.67c-.06.46-.31.6-.75.6h-2.22a.49.49,0,0,1-.47-.6l1.65-11.62a.65.65,0,0,1,.69-.58,1.77,1.77,0,0,1,1.76,1.62,4.51,4.51,0,0,1,3.35-1.78,4,4,0,0,1,2,.52.57.57,0,0,1,.14.77"/><path class="cls-6" d="M569,522.5l1.64-11.87a.73.73,0,0,1,.64-.6h2.41c.3,0,.47.27.41.6l-.46,3.52h2.42c.32,0,.49.25.43.6l-.22,1.84a.67.67,0,0,1-.63.61h-2.44l-.74,5.3c-.2,1.1.46,1.24,1,1.24a2.92,2.92,0,0,0,1.07-.28.42.42,0,0,1,.63.33l.3,2c.06.31-.14.55-.47.75a6.18,6.18,0,0,1-2.55.57c-2.53,0-3.9-1.76-3.43-4.64"/><path class="cls-6" d="M588.57,514.15a.49.49,0,0,1,.46.6l-1.62,11.62a.63.63,0,0,1-.68.58,1.76,1.76,0,0,1-1.76-1.57,4.29,4.29,0,0,1-3.68,1.76c-3.46,0-4-2.44-3.57-5.66l1-6.73a.64.64,0,0,1,.6-.6h2.36a.48.48,0,0,1,.47.6l-1,6.84c-.25,1.68.14,2.34,1.21,2.34,1.57,0,2.17-1.73,2.17-1.73l1-7.45a.62.62,0,0,1,.69-.6Z"/><path class="cls-6" d="M602.06,520l-.91,6.29a.66.66,0,0,1-.6.6h-2.42c-.3,0-.47-.27-.44-.6l1-6.49c.22-1.64.06-2.69-1.37-2.69a3.14,3.14,0,0,0-2.5,1.76l-1.1,7.42c-.06.46-.25.6-.66.6H590.8a.48.48,0,0,1-.47-.6L592,514.62a.65.65,0,0,1,.69-.58,1.74,1.74,0,0,1,1.76,1.59,5.44,5.44,0,0,1,3.84-1.75c3.49,0,4.29,2.8,3.82,6.07"/><path class="cls-6" d="M605.77,510.08a2.49,2.49,0,0,1,2.47-2.47,1.85,1.85,0,0,1,1.87,1.92,2.53,2.53,0,0,1-2.47,2.45,1.84,1.84,0,0,1-1.87-1.9m-.22,4.67a.71.71,0,0,1,.63-.6h2.37a.51.51,0,0,1,.49.6l-1.65,11.49a.7.7,0,0,1-.63.6h-2.34a.53.53,0,0,1-.49-.6Z"/><path class="cls-6" d="M619.21,517.72a4.41,4.41,0,0,0-2.26-.66c-1.92,0-3.16,2-3.16,4.18,0,1.78.88,2.69,2.18,2.69a3.33,3.33,0,0,0,2.66-1.95Zm4.28-10.11a.54.54,0,0,1,.49.61l-2.52,18.15a.66.66,0,0,1-.69.58,1.77,1.77,0,0,1-1.76-1.59,5.53,5.53,0,0,1-3.87,1.78c-2.69,0-4.75-2.58-4.75-5.82,0-4.12,2.83-7.45,6.59-7.45a6.25,6.25,0,0,1,2.67.66l.9-6.29c.06-.55.39-.63.85-.63Z"/><path class="cls-6" d="M632.72,521.87l.42-3a2.3,2.3,0,0,0-2.23-1.76c-1.68,0-3,1.7-3,4.18,0,1.4.66,2.69,2.14,2.69a3.44,3.44,0,0,0,2.69-2.06m4.48-7.25-1.65,11.75a.63.63,0,0,1-.68.58,1.76,1.76,0,0,1-1.76-1.62,5.74,5.74,0,0,1-3.82,1.81c-2.94,0-4.83-2.58-4.83-5.82,0-4.09,2.74-7.45,6.45-7.45a4.89,4.89,0,0,1,3.55,1.65,2.22,2.22,0,0,1,2.11-1.48c.47,0,.69.27.63.58"/><path class="cls-6" d="M647.37,517.72a4.35,4.35,0,0,0-2.25-.66c-1.93,0-3.16,2-3.16,4.18,0,1.78.88,2.69,2.17,2.69a3.31,3.31,0,0,0,2.66-1.95Zm4.28-10.11a.55.55,0,0,1,.5.61l-2.53,18.15a.65.65,0,0,1-.69.58,1.75,1.75,0,0,1-1.75-1.59,5.56,5.56,0,0,1-3.88,1.78c-2.69,0-4.75-2.58-4.75-5.82,0-4.12,2.83-7.45,6.59-7.45a6.25,6.25,0,0,1,2.67.66l.91-6.29c0-.55.38-.63.85-.63Z"/></g><rect class="cls-11" x="0.5" y="0.5" width="1199" height="432.5"/><g class="cls-3"><rect class="cls-4" x="0.5" y="0.5" width="1199" height="432.5"/><path class="cls-8" d="M458.93,319.7a173.87,173.87,0,0,1-33.57-102.95,175.68,175.68,0,0,1,3.25-33.63l22.85-14.73,13.1,21.29A138.25,138.25,0,0,0,518.2,328l-24.72,2.89,3.69,27q-3.72-2.72-7.3-5.62a194.18,194.18,0,0,1-30.94-32.58"/><path class="cls-5" d="M583.72,79.6a138.26,138.26,0,0,0-114.86,93.75l-10.43-22.71L434,162.46q2-6.15,4.45-12.09a196,196,0,0,1,15.05-28.67A174.64,174.64,0,0,1,579.05,43.36l21,17.11Z"/><path class="cls-12" d="M532.37,337.18a138.17,138.17,0,0,0,148.27-8.32l-4.89,24.43,26.8,4.82q-3.6,2.61-7.34,5.05A190.87,190.87,0,0,1,648,384.69a175.55,175.55,0,0,1-95.79.08l-.42-.12-1.77-.53a194.45,194.45,0,0,1-27-10.56q-4-2-7.89-4.14l-7-26.4Z"/><path class="cls-10" d="M693.73,318.16a138.25,138.25,0,0,0,37.81-143.57l21.82,12.26,12.82-23.91q2.22,6.85,3.89,14a196.23,196.23,0,0,1,4.21,28.74c0,.68.09,1.37.13,2.06v.08q.23,4.46.23,9a173.93,173.93,0,0,1-39.76,110.94l-.24.28A175,175,0,0,1,719,344.55L691.82,343Z"/><path class="cls-9" d="M725.4,158.85A138.3,138.3,0,0,0,623.72,80.68l-1.2-.2c-1-.16-1.95-.31-2.93-.45L619,80a140,140,0,0,0-18.43-1.3l18.49-17-18.69-19.5a177,177,0,0,1,25.8,2l2.23.36,1.31.22c.87.15,1.74.3,2.61.47.22,0,.43.08.64.12,1.07.2,2.14.41,3.2.64a174.93,174.93,0,0,1,122.23,97.22l-9.82,25.3Z"/><path class="cls-6" d="M470,124.91a2.62,2.62,0,0,0-.75-3.7,2.53,2.53,0,0,0-3.58.68l-1.81,2.59,4.34,3Zm-10.34.8a.49.49,0,0,1-.12-.69l3.53-5.07a5.87,5.87,0,1,1,9.64,6.69l-1.88,2.7,5.07,3.53a.53.53,0,0,1,.12.7l-1.38,2a.5.5,0,0,1-.7.13Z"/><path class="cls-6" d="M473.39,117.33a.56.56,0,0,1,0-.84,1.86,1.86,0,0,1,2.5-.43,4.21,4.21,0,0,1,.75-3.77c.91-1.12,2-1.79,2.36-1l.88,1.74a.51.51,0,0,1-.24.72,2.43,2.43,0,0,0-.9.72,2.64,2.64,0,0,0-.5,2.59l5.86,4.81c.35.28.26.59,0,.89l-1.28,1.57a.61.61,0,0,1-.82.08Z"/><path class="cls-6" d="M490,112a3.29,3.29,0,0,0-.26-4.64A3.18,3.18,0,1,0,490,112m-7-6.69a6.35,6.35,0,1,1,.29,8.85,6.31,6.31,0,0,1-.29-8.85"/><path class="cls-6" d="M497.7,103.45a4.77,4.77,0,0,0,2.35-1.15,3.07,3.07,0,0,0,.08-4.5c-1.13-1.29-2.95-1.89-4.38-.65a2.8,2.8,0,0,0-.91,3Zm4.62.85a9,9,0,0,1-2.53,1.55l3.88,4.43a.62.62,0,0,1-.05.82l-1.6,1.4a.61.61,0,0,1-.82,0L489.75,99.36a.57.57,0,0,1,.11-.83,1.81,1.81,0,0,1,2.45-.08,5.28,5.28,0,0,1,1.8-3.85c2.5-2.18,6.14-1.81,8.57,1s2.37,6.35-.36,8.74"/><path class="cls-6" d="M510.88,93.67a3.29,3.29,0,0,0,.58-4.62,3.17,3.17,0,1,0-5.13,3.72,3.27,3.27,0,0,0,4.55.9m-5.7-7.86a6.35,6.35,0,1,1-1.32,8.76,6.31,6.31,0,0,1,1.32-8.76m-4-.52,1.86-5a1.06,1.06,0,0,1,1.52-.33c.67.34,1.05.9.81,1.34L502.76,86c-.15.28-.59.31-1,.11s-.65-.57-.57-.79"/><path class="cls-6" d="M518.27,90.82a.55.55,0,0,1-.48-.48l-.15-1.76a.47.47,0,0,1,.5-.55,5,5,0,0,0,2.7-.73c.78-.48,1-1,.69-1.44s-1.13-.54-2.83-.24c-2.46.46-3.94.07-4.9-1.5s-.66-3.76,1.87-5.31a6.72,6.72,0,0,1,3.54-1.12.68.68,0,0,1,.67.58l.14,1.55a.62.62,0,0,1-.53.6,5.77,5.77,0,0,0-2.38.75c-.69.42-.78.94-.57,1.27s1,.4,2.17.22c2.49-.42,4.36-.58,5.62,1.49,1,1.63.51,3.94-2.09,5.54a6.93,6.93,0,0,1-4,1.13"/><path class="cls-6" d="M522.19,76a.59.59,0,0,1,.23-.79l1.87-1a.59.59,0,0,1,.79.24l5.22,9.67a.58.58,0,0,1-.23.78l-1.87,1a.6.6,0,0,1-.79-.23Zm-2.68-4a2.09,2.09,0,0,1,3.68-2,2.09,2.09,0,1,1-3.68,2"/><path class="cls-6" d="M528.6,75.22a.58.58,0,0,1-.74-.29l-.77-1.61a.55.55,0,0,1,.25-.76l1.07-.51L527,69a.61.61,0,0,1,.28-.77l2-.93a.56.56,0,0,1,.74.29l1.45,3,2.56-1.22a.57.57,0,0,1,.78.27l.76,1.62a.6.6,0,0,1-.27.77l-2.57,1.22,2.1,4.42c.51,1.07,1.19,1.27,1.88.94a4.8,4.8,0,0,0,1.27-.93.48.48,0,0,1,.76,0l1,1.28a.59.59,0,0,1,0,.79,6.31,6.31,0,0,1-2.25,1.77c-2.23,1.06-4.32.28-5.51-2.22l-2.2-4.63Z"/><path class="cls-6" d="M545.51,74.87a3.29,3.29,0,0,0,1.76-4.31,3.18,3.18,0,1,0-1.76,4.31M542,65.81a6.35,6.35,0,1,1-3.53,8.12A6.33,6.33,0,0,1,542,65.81"/><path class="cls-6" d="M678.28,78.05A2.67,2.67,0,0,0,681.85,77a2.62,2.62,0,0,0-1-3.5l-3.74-2.08L674.53,76ZM675.34,67.4a.5.5,0,0,1,.68-.2l6.58,3.65a5.7,5.7,0,0,1,2.27,7.73,5.82,5.82,0,0,1-6,2.76l-.09,7.59a.5.5,0,0,1-.76.45L675.62,88a.48.48,0,0,1-.25-.41l.32-7.8-2.55-1.41-3.25,5.86a.52.52,0,0,1-.68.2l-2.12-1.18a.49.49,0,0,1-.19-.67Z"/><path class="cls-6" d="M690.32,88.51a2.2,2.2,0,0,0-.75-3.05,2.4,2.4,0,0,0-3.31.29Zm.84-5.25a5.45,5.45,0,0,1,1.45,7.79c-.11.15-.37.48-.49.62a.61.61,0,0,1-.79.13l-6.44-4.37a2.91,2.91,0,0,0,.92,4,4,4,0,0,0,2.66.73c.37,0,.65.12.65.44l.08,1.71a.51.51,0,0,1-.49.62A6.84,6.84,0,0,1,684,93.78a6.36,6.36,0,0,1,7.12-10.52"/><path class="cls-6" d="M695.48,90.25a.57.57,0,0,1-.08-.79l1.12-1.4a.54.54,0,0,1,.79-.11l.93.73L700.33,86a.6.6,0,0,1,.81-.09l1.69,1.34a.56.56,0,0,1,.07.8l-2.09,2.63L703,92.49a.57.57,0,0,1,.09.81L702,94.7a.6.6,0,0,1-.81.1L699,93l-3,3.84c-.73.92-.62,1.62,0,2.09a4.78,4.78,0,0,0,1.4.74.47.47,0,0,1,.34.67l-.72,1.45a.59.59,0,0,1-.7.35,6.48,6.48,0,0,1-2.58-1.24c-1.94-1.54-2.16-3.76-.44-5.92l3.19-4Z"/><path class="cls-6" d="M703.25,105.27a3.29,3.29,0,0,0,4.64-.33,3.17,3.17,0,1,0-4.64.33m6.59-7.12a6.35,6.35,0,1,1-8.84.42,6.31,6.31,0,0,1,8.84-.42"/><path class="cls-6" d="M720.73,323.07a6.05,6.05,0,1,0-8.51.53,6.06,6.06,0,0,0,8.51-.53M709.09,312.8a9.47,9.47,0,1,1,.87,13.36,9.45,9.45,0,0,1-.87-13.36"/><path class="cls-6" d="M730.35,310.67a4.81,4.81,0,0,0,2-1.68,3.06,3.06,0,0,0-1-4.39c-1.41-1-3.32-1.13-4.41.42a2.8,2.8,0,0,0-.15,3.17Zm4.69-.28a8.88,8.88,0,0,1-2.08,2.1l4.83,3.38a.6.6,0,0,1,.14.8l-1.22,1.75a.59.59,0,0,1-.8.14l-14.26-9.95a.56.56,0,0,1-.09-.83,1.81,1.81,0,0,1,2.36-.67,5.26,5.26,0,0,1,.82-4.17c1.9-2.72,5.53-3.23,8.55-1.12s3.83,5.59,1.75,8.57"/><path class="cls-6" d="M740.26,296.47a3.31,3.31,0,0,0-1.38-4.45,3.18,3.18,0,1,0-3.13,5.52,3.28,3.28,0,0,0,4.51-1.07m-8.44-4.8a6.36,6.36,0,1,1,2.42,8.52,6.32,6.32,0,0,1-2.42-8.52"/><path class="cls-6" d="M736.36,284.73a.56.56,0,0,1-.23-.81,1.86,1.86,0,0,1,2.32-1,4.2,4.2,0,0,1-.2-3.84c.61-1.31,1.47-2.21,2-1.57l1.28,1.48a.5.5,0,0,1-.06.75,2.41,2.41,0,0,0-.69.92,2.64,2.64,0,0,0,.15,2.63l6.86,3.23c.4.19.4.5.23.86l-.86,1.83a.6.6,0,0,1-.77.28Z"/><path class="cls-6" d="M736.83,274.54a.6.6,0,0,1-.32-.75l.8-2a.55.55,0,0,1,.74-.3l3.13,1.24,1-2.64a.58.58,0,0,1,.76-.33l1.66.66a.6.6,0,0,1,.32.75l-1.05,2.64,4.55,1.81c1.1.44,1.73.12,2-.59a4.89,4.89,0,0,0,.3-1.55.46.46,0,0,1,.55-.51l1.59.26a.59.59,0,0,1,.53.58,6.19,6.19,0,0,1-.44,2.82c-.91,2.3-3,3.15-5.54,2.13Z"/><path class="cls-6" d="M743.73,267.84a.56.56,0,0,1-.38-.72l.64-2a.55.55,0,0,1,.72-.37l6.15,1.93c1.53.48,2.47.2,2.92-1.23a2.38,2.38,0,0,0-1.51-2.74l-6.3-2c-.45-.14-.5-.32-.35-.8l.61-2a.58.58,0,0,1,.73-.38l10.61,3.34a.56.56,0,0,1,.34.77,1.78,1.78,0,0,1-2,1.35,5.22,5.22,0,0,1,.5,4c-1.12,3.59-3.6,3.67-6.54,2.74Z"/><path class="cls-6" d="M747.56,254.6a.57.57,0,0,1-.4-.74,1.81,1.81,0,0,1,2-1.5,5,5,0,0,1-.82-4.2c.86-3.77,3.63-4.17,6.5-3.51l6.13,1.4a.61.61,0,0,1,.43.7l-.47,2.07a.6.6,0,0,1-.7.44l-6.13-1.4c-1.53-.36-2.62,0-2.95,1.48a2.66,2.66,0,0,0,1.26,3l6.77,1.55c.43.1.52.31.39.87l-.43,1.9a.62.62,0,0,1-.7.44Z"/><path class="cls-6" d="M750.48,241.11a.59.59,0,0,1-.49-.66l.32-2.11a.58.58,0,0,1,.66-.48l10.87,1.65a.59.59,0,0,1,.48.66l-.32,2.1a.6.6,0,0,1-.66.49Zm-4.78-.25a2.09,2.09,0,0,1,.63-4.13,2.09,2.09,0,1,1-.63,4.13"/><path class="cls-6" d="M755,227.12a4.81,4.81,0,0,0-.9,2.46,3.07,3.07,0,0,0,3.08,3.3c1.7.14,3.43-.69,3.59-2.58a2.78,2.78,0,0,0-1.45-2.81Zm-3.92,2.6a9.13,9.13,0,0,1,.74-2.86l-5.89-.5a.62.62,0,0,1-.53-.62l.18-2.13a.61.61,0,0,1,.62-.53l17.33,1.46a.56.56,0,0,1,.49.68,1.79,1.79,0,0,1-1.67,1.76,5.22,5.22,0,0,1,1.37,4c-.28,3.3-3.16,5.57-6.83,5.26s-6.11-2.92-5.81-6.54"/><path class="cls-6" d="M761.87,216.68a2.62,2.62,0,0,0-1.29-2.18h-1.79a4.74,4.74,0,0,0-.36,1.79c0,1.39.66,2.15,1.74,2.15a1.61,1.61,0,0,0,1.7-1.77m-5.52.1a8.67,8.67,0,0,1,.33-2.34,2.09,2.09,0,0,0-2.28,2.29,10.41,10.41,0,0,0,.46,2.81c.13.4-.16.64-.53.69l-1.36.27a.56.56,0,0,1-.74-.4,11.79,11.79,0,0,1-.62-3.54c0-3.53,2-5.19,5.27-5.2l6.69,0a.57.57,0,0,1,.55.63,1.79,1.79,0,0,1-1.23,1.82,5.39,5.39,0,0,1,1.43,3.7,3.87,3.87,0,0,1-4.14,4.12c-2.16,0-3.82-1.75-3.83-4.83"/><path class="cls-6" d="M754.44,200.22a4.82,4.82,0,0,0-.45,2.58,3.06,3.06,0,0,0,3.6,2.71c1.7-.15,3.27-1.27,3.09-3.16a2.79,2.79,0,0,0-1.91-2.52Zm-3.4,3.24a9,9,0,0,1,.23-3l-5.89.54a.63.63,0,0,1-.63-.53l-.19-2.12a.61.61,0,0,1,.52-.63l17.32-1.57a.56.56,0,0,1,.6.58,1.77,1.77,0,0,1-1.34,2,5.22,5.22,0,0,1,2.05,3.73c.3,3.3-2.15,6-5.81,6.36s-6.53-1.81-6.86-5.43"/><path class="cls-6" d="M563.18,374.05a6,6,0,0,0,2.65-11.72l-2.92-.67-2.66,11.73Zm-3-15.75a.51.51,0,0,1,.58-.39l6.08,1.38a9.21,9.21,0,1,1-4.07,18l-6.08-1.38a.49.49,0,0,1-.35-.59Z"/><path class="cls-6" d="M576.36,368.1a.59.59,0,0,1,.66-.49l2.11.3a.6.6,0,0,1,.49.66l-1.57,10.88a.61.61,0,0,1-.66.49l-2.11-.3a.62.62,0,0,1-.49-.66Zm.21-4.78a2.09,2.09,0,0,1,4.14.6,2.09,2.09,0,1,1-4.14-.6"/><path class="cls-6" d="M581.09,379.63a.52.52,0,0,1-.1-.66l.93-1.51a.47.47,0,0,1,.73-.14,4.88,4.88,0,0,0,2.6,1c.91.09,1.36-.22,1.41-.74s-.59-1.11-2.13-1.88c-2.25-1.1-3.2-2.3-3-4.13s1.7-3.41,4.66-3.15a6.61,6.61,0,0,1,3.51,1.22.69.69,0,0,1,.19.86l-.81,1.33a.6.6,0,0,1-.78.16,5.86,5.86,0,0,0-2.35-.82c-.82-.07-1.19.29-1.23.69-.05.55.53.89,1.61,1.46,2.25,1.15,3.85,2.14,3.64,4.55-.18,1.92-2,3.47-5,3.2a6.74,6.74,0,0,1-3.86-1.46"/><path class="cls-6" d="M593.65,372.17l-1.26,0a.6.6,0,0,1-.57-.6l0-1.78a.55.55,0,0,1,.59-.57l1.26,0,0-1.45c.07-3.23,1.83-5,5-4.95a5.83,5.83,0,0,1,3.55,1.27.52.52,0,0,1,.12.68l-1,1.59a.53.53,0,0,1-.74.13,4,4,0,0,0-1.88-.67c-1.52,0-1.81.77-1.84,2l0,1.45,3.31.08a.56.56,0,0,1,.57.59l0,1.79a.57.57,0,0,1-.59.56l-3.31-.08-.21,8.63a.58.58,0,0,1-.59.56l-2.13-.05a.57.57,0,0,1-.56-.59Z"/><path class="cls-6" d="M602.53,369.79a.55.55,0,0,1,.6-.58,1.87,1.87,0,0,1,2,1.58,4.26,4.26,0,0,1,3.32-2c1.44,0,2.64.29,2.33,1.1l-.72,1.81a.5.5,0,0,1-.7.29,2.41,2.41,0,0,0-1.14-.19,2.63,2.63,0,0,0-2.26,1.36l.3,7.56c0,.45-.27.59-.66.61l-2,.08a.6.6,0,0,1-.6-.56Z"/><path class="cls-6" d="M612,369.52a.56.56,0,0,1,.51-.64l2.11-.24a.55.55,0,0,1,.64.5l.74,6.41c.18,1.59.82,2.34,2.31,2.17a2.39,2.39,0,0,0,1.89-2.5l-.76-6.56c-.05-.47.09-.59.59-.65l2-.23a.57.57,0,0,1,.64.51l1.27,11a.57.57,0,0,1-.56.62,1.79,1.79,0,0,1-2.06-1.27,5.18,5.18,0,0,1-3.46,2.09c-3.74.43-4.82-1.8-5.17-4.86Z"/><path class="cls-6" d="M625.61,370.19a.58.58,0,0,1-.65-.47l-.34-1.76a.54.54,0,0,1,.43-.67l1.16-.22-.63-3.31a.59.59,0,0,1,.46-.67l2.12-.41a.56.56,0,0,1,.65.46l.63,3.31,2.79-.54a.58.58,0,0,1,.68.46l.34,1.76a.61.61,0,0,1-.46.68l-2.79.53.92,4.81c.22,1.16.83,1.53,1.58,1.38A5.37,5.37,0,0,0,634,375a.46.46,0,0,1,.73.18l.63,1.48a.59.59,0,0,1-.2.76,6.28,6.28,0,0,1-2.62,1.15c-2.43.46-4.25-.82-4.77-3.53l-1-5Z"/><path class="cls-6" d="M643.48,367.76a2.22,2.22,0,0,0-2.81-1.42,2.41,2.41,0,0,0-1.94,2.7ZM640,363.7a5.45,5.45,0,0,1,6.85,4c.05.17.13.59.16.77a.64.64,0,0,1-.42.69l-7.52,2a2.92,2.92,0,0,0,3.66,1.93,4,4,0,0,0,2.28-1.54c.21-.3.51-.41.76-.2l1.35,1.05a.52.52,0,0,1,.15.78,6.85,6.85,0,0,1-3.94,2.77A6.36,6.36,0,0,1,640,363.7"/><path class="cls-6" d="M453.41,220.3a.52.52,0,0,1,.51.49l.09,2.44a.52.52,0,0,1-.48.52l-17.4.61a.52.52,0,0,1-.52-.49l-.08-2.44a.52.52,0,0,1,.48-.52Z"/><path class="cls-6" d="M447.41,227.07a.55.55,0,0,1,.61.57,1.8,1.8,0,0,1-1.37,2.05,5,5,0,0,1,2.13,3.72c.39,3.84-2.09,5.11-5,5.41l-6.25.65a.61.61,0,0,1-.64-.52l-.22-2.12a.58.58,0,0,1,.52-.63l6.25-.65c1.57-.16,2.47-.89,2.32-2.36a2.67,2.67,0,0,0-2.15-2.42l-6.91.72c-.44,0-.59-.13-.65-.7l-.2-1.94a.59.59,0,0,1,.51-.63Z"/><path class="cls-6" d="M450.78,246.44a6,6,0,0,1-1.17,4.83c-.2.31-.57.24-.87,0l-1.4-.85c-.33-.21-.26-.52-.07-.79a3.36,3.36,0,0,0,.58-2.58,3.36,3.36,0,1,0-4.79,3.52.57.57,0,0,1,.22.73l-.76,1.35c-.2.34-.46.52-.81.37a5.4,5.4,0,0,1-3.41-4.24,6.35,6.35,0,1,1,12.48-2.37"/><path class="cls-6" d="M457.46,251.6a.62.62,0,0,1,.7.42l.53,2.07a.62.62,0,0,1-.42.7l-16.71,4.28a.59.59,0,0,1-.7-.42l-.53-2.06a.6.6,0,0,1,.41-.7Z"/><path class="cls-6" d="M452.85,259a.56.56,0,0,1,.73.37l.66,2a.56.56,0,0,1-.37.73l-6.12,2c-1.53.49-2.13,1.27-1.67,2.7a2.37,2.37,0,0,0,2.82,1.34l6.28-2c.45-.15.6,0,.75.44l.64,1.95a.57.57,0,0,1-.37.73l-10.58,3.45a.56.56,0,0,1-.72-.42,1.79,1.79,0,0,1,.84-2.27,5.2,5.2,0,0,1-2.74-3c-1.17-3.57.8-5.07,3.73-6Z"/><path class="cls-6" d="M447.16,275.65a.55.55,0,0,1,.55-.39l1.76.12a.47.47,0,0,1,.47.58,4.81,4.81,0,0,0,.3,2.78c.35.85.83,1.1,1.31.9s.71-1,.68-2.76c-.07-2.5.54-3.9,2.24-4.6s3.82-.08,5,2.66a6.63,6.63,0,0,1,.55,3.67.67.67,0,0,1-.67.57l-1.55-.1a.59.59,0,0,1-.51-.61,5.92,5.92,0,0,0-.37-2.47c-.32-.75-.81-.91-1.18-.76s-.54.88-.54,2.11c0,2.52-.11,4.4-2.35,5.33-1.77.73-4-.12-5.14-2.93a6.85,6.85,0,0,1-.51-4.1"/><path class="cls-6" d="M465.41,278.86a2.05,2.05,0,0,1,2.77,1,2.09,2.09,0,1,1-2.77-1m-4.09,2.49a.58.58,0,0,1,.77.27l.93,1.92a.59.59,0,0,1-.27.77l-9.91,4.76a.61.61,0,0,1-.78-.27l-.92-1.92a.61.61,0,0,1,.27-.77Z"/><path class="cls-6" d="M468.33,287.33l4.75,2.43a1.06,1.06,0,0,1,.15,1.54c-.41.62-1,.94-1.42.65l-4.33-3.14c-.26-.19-.23-.63,0-1s.64-.58.84-.48M458.9,296a3.3,3.3,0,0,0,4.52,1.11,3.24,3.24,0,0,0,1.33-4.4,3.21,3.21,0,0,0-4.44-1.12A3.28,3.28,0,0,0,458.9,296m8.46-4.76a6.35,6.35,0,1,1-8.55-2.31,6.32,6.32,0,0,1,8.55,2.31"/><path class="cls-6" d="M470.89,298.69a.56.56,0,0,1,.81.21,1.79,1.79,0,0,1-.23,2.45,5,5,0,0,1,3.65,2.25c2.19,3.19.61,5.48-1.81,7.15l-5.18,3.56a.61.61,0,0,1-.81-.15l-1.2-1.75a.59.59,0,0,1,.14-.81l5.18-3.56c1.31-.89,1.75-2,.92-3.18a2.68,2.68,0,0,0-3.05-1.09l-5.73,3.93c-.37.26-.58.18-.91-.3l-1.1-1.6a.61.61,0,0,1,.15-.81Z"/><path class="cls-13" d="M552.54,227.23a3.12,3.12,0,0,0-3.32-2.83,3.4,3.4,0,0,0-3.43,2.83Zm-3.12-8.83a10.68,10.68,0,0,1,10.87,10.72,14.91,14.91,0,0,1-.1,1.49,1.12,1.12,0,0,1-1.09,1H545c0,1.79,1.64,4,4.76,4a8.73,8.73,0,0,0,4.37-1.44,1,1,0,0,1,1.44,0l2.53,3.33a1.22,1.22,0,0,1,0,1.64,12.19,12.19,0,0,1-20.5-8.74,11.89,11.89,0,0,1,11.92-12"/><path class="cls-13" d="M564.54,240.49a.83.83,0,0,1-.39-1.19l1.83-3.78a.91.91,0,0,1,1.2-.49,12.43,12.43,0,0,0,5.65,1.44c1.49,0,1.74-.55,1.74-1.1,0-.74-1.24-1.34-3.92-2.38-4.42-1.74-6.7-3.77-6.7-7.44,0-4.12,2.73-7.15,8.69-7.15a19,19,0,0,1,7.84,1.73,1.1,1.1,0,0,1,.6,1.49l-1.79,3.68a.92.92,0,0,1-1.19.39,13.1,13.1,0,0,0-5.36-1.39c-1.3,0-1.64.35-1.64.95s.94,1.09,2.58,1.69c4.61,1.68,8.39,3.52,8.39,8.14,0,4-3.23,7.29-9.33,7.29a17,17,0,0,1-8.2-1.88"/><path class="cls-9" d="M607.75,227.23a3.13,3.13,0,0,0-3.33-2.83,3.4,3.4,0,0,0-3.43,2.83Zm-3.13-8.83a10.68,10.68,0,0,1,10.87,10.72,14.91,14.91,0,0,1-.1,1.49,1.12,1.12,0,0,1-1.09,1H600.15c0,1.79,1.64,4,4.77,4a8.69,8.69,0,0,0,4.36-1.44,1,1,0,0,1,1.44,0l2.54,3.33a1.24,1.24,0,0,1,0,1.64,12.2,12.2,0,0,1-20.51-8.74,11.9,11.9,0,0,1,11.92-12"/><path class="cls-9" d="M619.33,208.17a1.14,1.14,0,0,1,1.09-1.09h5.36a1.13,1.13,0,0,1,1.09,1.09v32.57a1.1,1.1,0,0,1-1.09,1.09h-5.36a1.11,1.11,0,0,1-1.09-1.09Z"/><path class="cls-7" d="M537.61,166.73a.94.94,0,0,1,.94-.94H559.1a.94.94,0,0,1,.95.94v5.41a.94.94,0,0,1-.95.94H545.35v6.16h11.32a1,1,0,0,1,.94.94v5.41a.94.94,0,0,1-.94.95H545.35v6.7H559.1a.94.94,0,0,1,.95.94v5.41a1,1,0,0,1-.95.95H538.55a1,1,0,0,1-.94-.95Z"/><path class="cls-7" d="M564.59,199.2a.83.83,0,0,1-.4-1.2l1.84-3.77a.89.89,0,0,1,1.19-.49,12.43,12.43,0,0,0,5.66,1.43c1.49,0,1.73-.54,1.73-1.09,0-.74-1.24-1.34-3.92-2.38-4.42-1.74-6.7-3.77-6.7-7.45,0-4.12,2.73-7.14,8.69-7.14a19,19,0,0,1,7.84,1.73,1.1,1.1,0,0,1,.6,1.49L579.33,184a.92.92,0,0,1-1.19.39,13.1,13.1,0,0,0-5.36-1.39c-1.29,0-1.64.35-1.64,1s.94,1.09,2.58,1.68c4.62,1.69,8.39,3.53,8.39,8.14,0,4-3.23,7.3-9.33,7.3a16.93,16.93,0,0,1-8.19-1.88"/><path class="cls-7" d="M585.83,184.4a1.05,1.05,0,0,1-1-1.09v-4.62a1,1,0,0,1,1-1.09h1.88v-6.35a1.1,1.1,0,0,1,1.1-1.09h5.46a1,1,0,0,1,1,1.09v6.35h4.62a1.07,1.07,0,0,1,1.09,1.09v4.62a1.1,1.1,0,0,1-1.09,1.09h-4.62v7.3c0,1.59.74,2.28,2.13,2.28a9.88,9.88,0,0,0,2.24-.44,1,1,0,0,1,1.29.69l1,4.42c.15.69-.1,1-.74,1.29a12.26,12.26,0,0,1-4.87,1.14c-5.46,0-8.59-3.13-8.59-9v-7.7Z"/><path class="cls-7" d="M619.33,185.94a3.13,3.13,0,0,0-3.33-2.83,3.4,3.4,0,0,0-3.42,2.83Zm-3.13-8.84a10.68,10.68,0,0,1,10.87,10.73c0,.34-.05,1.14-.1,1.49a1.12,1.12,0,0,1-1.09,1H611.73c0,1.79,1.64,4,4.77,4a8.73,8.73,0,0,0,4.37-1.44.93.93,0,0,1,1.44,0l2.53,3.33a1.22,1.22,0,0,1-.05,1.64,12.19,12.19,0,0,1-20.5-8.74,11.89,11.89,0,0,1,11.91-12"/><path class="cls-14" d="M616.54,166.53c3.09,0,5.65-1.63,6-3.74l3.06-35.12c0-3.48-4-6.33-9.05-6.33s-9,2.85-9,6.33l3,35.12c.34,2.11,2.9,3.74,6,3.74Z"/><path class="cls-15" d="M635.27,177.48c1.55,2.72,4.23,4.15,6.2,3.41L673,166c3-1.73,3.4-6.68.89-11.1s-7-6.52-9.93-4.78l-28.47,20.24c-1.63,1.36-1.75,4.42-.2,7.14Z"/><path class="cls-16" d="M635.27,199.43c1.55-2.73,4.23-4.14,6.2-3.39L673,210.91c3,1.74,3.4,6.68.89,11.11s-7,6.51-9.93,4.78l-28.47-20.23c-1.63-1.37-1.75-4.43-.2-7.15Z"/><path class="cls-17" d="M537.69,248.71a1.13,1.13,0,0,1,1.09-1.09h5.37a1.13,1.13,0,0,1,1.09,1.09v32.56a1.11,1.11,0,0,1-1.09,1.1h-5.37a1.11,1.11,0,0,1-1.09-1.1Z"/><path class="cls-17" d="M551.64,272V260.52a1.06,1.06,0,0,1,1-1.09h5.41a1.08,1.08,0,0,1,1.1,1.09v11.32c0,2.58.74,4,3.08,4s3.12-1.54,3.12-3.57V260.52c0-.94.7-1.09,1.24-1.09h5.22a1.07,1.07,0,0,1,1.09,1.09v21a1.09,1.09,0,0,1-1.24,1.09,3.82,3.82,0,0,1-4.07-3.37,8.66,8.66,0,0,1-7.2,3.67c-6.7,0-8.79-4.37-8.79-10.87"/><path class="cls-17" d="M590.14,275.81a4.92,4.92,0,0,0,0-9.83,4.92,4.92,0,0,0,0,9.83m-.5,18a17,17,0,0,1-8.54-2.48,1.12,1.12,0,0,1-.25-1.29l1.74-4.17a1,1,0,0,1,1.34-.45,10.5,10.5,0,0,0,5.56,1.84c2.83,0,4.87-1.09,4.87-4.57v-1.19a10.7,10.7,0,0,1-5.31,1.39c-6.11,0-11.37-4-11.37-12.06,0-6.55,4.86-11.92,11.31-11.92a9.34,9.34,0,0,1,7.65,3.63,3.78,3.78,0,0,1,4-3.33,1.09,1.09,0,0,1,1.24,1.09v21.3c0,8.29-5.36,12.21-12.26,12.21"/><path class="cls-17" d="M616.87,277.35a2.58,2.58,0,0,0,2.58-2.53,2.62,2.62,0,0,0-2.58-2.53,2.57,2.57,0,0,0-2.53,2.53,2.54,2.54,0,0,0,2.53,2.53m-1.49-9.63a10.92,10.92,0,0,1,4.52,1c0-2.23-1.49-3.52-4.17-3.52A17.38,17.38,0,0,0,611,266c-.89.3-1.29-.34-1.39-1.19l-.54-3.52a1.3,1.3,0,0,1,.89-1.59,28.94,28.94,0,0,1,6.65-.74c6.36,0,10.58,3.57,10.58,10v12.56a1.09,1.09,0,0,1-1.24,1.09,3.81,3.81,0,0,1-4-2.92,8.43,8.43,0,0,1-7,3.27c-4.52,0-7.95-3-7.95-7.54s3.23-7.65,8.44-7.65"/><path class="cls-17" d="M646.88,260.13a.91.91,0,0,1,.15,1.24l-2.28,4.51a1,1,0,0,1-1.29.55,6.32,6.32,0,0,0-1.74-.35,3,3,0,0,0-3,3.18v12c0,.7-.4,1.1-1.24,1.1h-5.21a1.1,1.1,0,0,1-1.09-1.1V260.33a1.09,1.09,0,0,1,1.24-1.1,3.8,3.8,0,0,1,4,3.53,6.77,6.77,0,0,1,6-3.82,7.48,7.48,0,0,1,4.47,1.19"/></g></g></g></svg>