<svg xmlns="http://www.w3.org/2000/svg" viewBox="0 0 181.36 181.36"><defs><style>.cls-1{fill:#fff;}.cls-2{fill:none;stroke:#4b5b6d;stroke-width:0.51px;}.cls-3{fill:#007dc3;}</style></defs><g id="Layer_2" data-name="Layer 2"><g id="Layer_1-2" data-name="Layer 1"><path class="cls-1" d="M90.68.26A90.42,90.42,0,1,0,181.1,90.68,90.42,90.42,0,0,0,90.68.26"/><circle class="cls-2" cx="90.68" cy="90.68" r="90.42"/><path class="cls-3" d="M34.84,75.32v-.16c-2.2-1.24-4.24-3.08-4.24-6.32,0-4.64,4.12-7.56,9.12-7.56,5.24,0,9.36,2.92,9.36,7.56a7.27,7.27,0,0,1-4.24,6.28v.2c2.36,1,5,3.36,5,6.92,0,4.88-4,7.84-10.16,7.84-6,0-9.92-3-9.92-7.84C29.8,78.6,32.8,76.12,34.84,75.32Zm5,9.72a3.06,3.06,0,0,0,3.32-3.12c0-1.52-1.16-3-3.4-3.76-2.12.72-3.32,2.24-3.32,3.76A3.06,3.06,0,0,0,39.88,85Zm2.88-16a2.93,2.93,0,0,0-5.84,0c0,1.48,1,2.64,2.88,3.36C41.76,71.76,42.76,70.48,42.76,69.08Z"/><path class="cls-3" d="M66.92,60.93a.94.94,0,0,1,1.28.63l1.2,3.2c.16.48,0,.92-.8,1.2-1.92.6-7.28,2.68-8.28,6.64a11.3,11.3,0,0,1,3.92-.84c3.88,0,8.2,2.84,8.2,8.92A9.48,9.48,0,0,1,63,90.12c-6.36,0-9.92-4.76-9.92-11.2C53.08,66.8,63.12,62,66.92,60.93Zm-4,23.51a4,4,0,0,0,0-8,4,4,0,0,0,0,8Z"/><path class="cls-3" d="M79.12,82.68c2.24,0,4.2,1.6,4.2,5.2A13.08,13.08,0,0,1,80,96a.7.7,0,0,1-1,0l-1.32-1.16c-.28-.32-.2-.68.12-1,1-1.24,2.08-2.8,2.08-4.24a1.23,1.23,0,0,0,0-.36,2.63,2.63,0,0,1-1.52.44c-2,0-3-1.56-3-3.48A3.57,3.57,0,0,1,79.12,82.68Z"/><path class="cls-3" d="M103.48,84.4a.8.8,0,0,1,.8.8v3.68a.8.8,0,0,1-.8.8H87a.77.77,0,0,1-.76-.8v-.32c0-.4,0-.48.52-1.16,2.64-3.52,8.12-11,10.4-14.44a6.16,6.16,0,0,0,1-3.08c0-1.6-1.32-3-3.6-3a5.87,5.87,0,0,0-4,2.08.82.82,0,0,1-1.16,0L86.92,66.4a.8.8,0,0,1,0-1.08,11.06,11.06,0,0,1,8.24-4c5.88,0,9.36,3.76,9.36,8.32a10.1,10.1,0,0,1-1.6,5.32c-1.28,2.32-4.64,6.68-6.56,9.4v.08Z"/><path class="cls-3" d="M121.92,60.93a.94.94,0,0,1,1.28.63l1.2,3.2c.16.48,0,.92-.8,1.2-1.92.6-7.28,2.68-8.28,6.64a11.3,11.3,0,0,1,3.92-.84c3.88,0,8.19,2.84,8.19,8.92A9.47,9.47,0,0,1,118,90.12c-6.36,0-9.92-4.76-9.92-11.2C108.08,66.8,118.12,62,121.92,60.93Zm-4,23.51a4,4,0,0,0,0-8,4,4,0,0,0,0,8Z"/><path class="cls-3" d="M130.52,75.68c0-9,3.8-14.4,10.52-14.4s10.55,5.36,10.55,14.4-3.83,14.4-10.55,14.4S130.52,84.68,130.52,75.68Zm14.8,0c0-5.4-1.76-8.56-4.28-8.56s-4.24,3.16-4.24,8.56,1.76,8.6,4.24,8.6S145.32,81.12,145.32,75.68Z"/><path class="cls-3" d="M62,97.19a.21.21,0,0,1,.21-.21h2.59a2.46,2.46,0,1,1,0,4.91H63.39v2.58a.21.21,0,0,1-.2.21h-1a.21.21,0,0,1-.21-.21Zm2.76,3.35A1.09,1.09,0,0,0,65.8,99.4a1.05,1.05,0,0,0-1.08-1.07H63.39v2.21Z"/><path class="cls-3" d="M68.11,99.78a.24.24,0,0,1,.27-.23.78.78,0,0,1,.8.7,1.76,1.76,0,0,1,1.42-.76c.6,0,1.1.16,1,.49l-.33.75a.21.21,0,0,1-.3.11,1.06,1.06,0,0,0-.47-.1,1.1,1.1,0,0,0-1,.53v3.17c0,.19-.12.24-.29.24h-.84a.25.25,0,0,1-.25-.24Z"/><path class="cls-3" d="M74.54,99.49a2.66,2.66,0,1,1-2.6,2.64A2.64,2.64,0,0,1,74.54,99.49Zm0,4.06a1.38,1.38,0,0,0,1.33-1.42,1.36,1.36,0,0,0-1.33-1.39,1.35,1.35,0,0,0-1.32,1.39A1.37,1.37,0,0,0,74.54,103.55Z"/><path class="cls-3" d="M77.55,99.89a.18.18,0,0,1,.18-.29h1a.23.23,0,0,1,.23.14l1.06,2.51h0l1.12-2.51c.07-.13.18-.14.32-.14h.93a.18.18,0,0,1,.17.29l-2.29,4.78a.26.26,0,0,1-.22.13h-.06a.26.26,0,0,1-.22-.13Z"/><path class="cls-3" d="M85.6,99.49a2.28,2.28,0,0,1,2.34,2.35,1.76,1.76,0,0,1,0,.33.26.26,0,0,1-.24.23H84.42a1.21,1.21,0,0,0,1.26,1.18,1.72,1.72,0,0,0,1.09-.37c.12-.1.25-.11.33,0l.43.57a.21.21,0,0,1,0,.33,2.9,2.9,0,0,1-1.9.69,2.66,2.66,0,0,1,0-5.31Zm1,2a.93.93,0,0,0-1-.88,1,1,0,0,0-1.08.88Z"/><path class="cls-3" d="M91.22,99.49a2.28,2.28,0,0,1,2.34,2.35,1.76,1.76,0,0,1,0,.33.26.26,0,0,1-.24.23H90a1.21,1.21,0,0,0,1.26,1.18,1.72,1.72,0,0,0,1.09-.37c.12-.1.25-.11.33,0l.43.57a.21.21,0,0,1,0,.33,2.9,2.9,0,0,1-1.9.69,2.66,2.66,0,0,1,0-5.31Zm1,2a.93.93,0,0,0-1-.88,1,1,0,0,0-1.08.88Z"/><path class="cls-3" d="M96.8,99.49A3.68,3.68,0,0,1,98,99.7V97.22a.26.26,0,0,1,.24-.24h.9a.25.25,0,0,1,.24.24v7.27a.24.24,0,0,1-.27.23.75.75,0,0,1-.79-.63,2.21,2.21,0,0,1-1.63.71,2.66,2.66,0,0,1,.09-5.31ZM98,101a2,2,0,0,0-1-.29,1.42,1.42,0,0,0-.07,2.81,1.16,1.16,0,0,0,1.12-.71Z"/><path class="cls-3" d="M103.09,99.49a2.66,2.66,0,1,1-2.59,2.64A2.64,2.64,0,0,1,103.09,99.49Zm0,4.06a1.38,1.38,0,0,0,1.33-1.42,1.33,1.33,0,1,0-2.65,0A1.37,1.37,0,0,0,103.09,103.55Z"/><path class="cls-3" d="M106.79,99.78a.23.23,0,0,1,.26-.23.78.78,0,0,1,.81.7,1.74,1.74,0,0,1,1.41-.76c.61,0,1.11.16,1,.49l-.33.75a.21.21,0,0,1-.3.11,1.06,1.06,0,0,0-.47-.1,1.1,1.1,0,0,0-1,.53v3.17c0,.19-.12.24-.28.24H107a.25.25,0,0,1-.24-.24Z"/><path class="cls-3" d="M113.17,99.49a2.28,2.28,0,0,1,2.33,2.35c0,.08,0,.26,0,.33a.26.26,0,0,1-.24.23H112a1.22,1.22,0,0,0,1.27,1.18,1.76,1.76,0,0,0,1.09-.37c.12-.1.25-.11.33,0l.42.57a.21.21,0,0,1,0,.33,2.87,2.87,0,0,1-1.89.69,2.66,2.66,0,0,1,0-5.31Zm1,2a.94.94,0,0,0-1-.88,1,1,0,0,0-1.08.88Z"/><path class="cls-3" d="M116.38,104.34a.23.23,0,0,1-.07-.28l.33-.66a.19.19,0,0,1,.3-.08,2.09,2.09,0,0,0,1.12.33c.39,0,.56-.15.56-.37s-.28-.44-1-.7c-1-.38-1.42-.84-1.42-1.61s.58-1.48,1.82-1.48a2.73,2.73,0,0,1,1.51.37.28.28,0,0,1,.11.35l-.28.59a.26.26,0,0,1-.32.1,2.45,2.45,0,0,0-1-.26c-.34,0-.48.17-.48.33s.25.35.73.55c1,.4,1.68.75,1.68,1.76,0,.81-.68,1.52-2,1.52A2.83,2.83,0,0,1,116.38,104.34Z"/><path class="cls-3" d="M66.08,114.49a2.23,2.23,0,0,1,2.28,2.31c0,.2,0,.5-.19.5H64.11a2,2,0,0,0,2,2,2.86,2.86,0,0,0,1.56-.5c.11-.07.17-.08.22,0L68,119s0,.13,0,.2a3.29,3.29,0,0,1-1.85.6,2.67,2.67,0,0,1,0-5.32Zm1.79,2.36A1.77,1.77,0,0,0,66.08,115a2,2,0,0,0-2,1.89Z"/><path class="cls-3" d="M69.79,114.73c0-.12,0-.17.14-.17s.32.21.32.56v.13a2.4,2.4,0,0,1,1.77-.76c1.44,0,1.91.89,1.91,2.22v2.81a.16.16,0,0,1-.16.16h-.16a.16.16,0,0,1-.16-.16v-2.78c0-1.18-.47-1.78-1.45-1.78a2.32,2.32,0,0,0-1.73.87v3.69c0,.11-.06.16-.17.16h-.17c-.1,0-.14-.07-.14-.16Z"/><path class="cls-3" d="M78.43,112.15a.17.17,0,0,1,.17-.17h.15a.18.18,0,0,1,.17.17v7.37c0,.11-.06.16-.17.16h-.18c-.1,0-.14-.07-.14-.16Z"/><path class="cls-3" d="M82.5,116.41a4.39,4.39,0,0,1,1.31.23c0-1-.26-1.7-1.35-1.7a3.5,3.5,0,0,0-1.31.34.13.13,0,0,1-.2-.07l-.07-.16a.14.14,0,0,1,.08-.18,3.21,3.21,0,0,1,1.54-.38c1.53,0,1.79,1,1.79,2.21v2.85c0,.12,0,.18-.14.18s-.32-.21-.32-.56v-.08h0a2.63,2.63,0,0,1-1.78.73,1.58,1.58,0,0,1-1.65-1.69C80.39,117.14,81.17,116.41,82.5,116.41Zm-.41,2.92a2.42,2.42,0,0,0,1.72-.77V117.1a3.36,3.36,0,0,0-1.31-.27c-1,0-1.64.53-1.64,1.28A1.18,1.18,0,0,0,82.09,119.33Z"/><path class="cls-3" d="M88.74,114.73c0-.12,0-.17.14-.17s.32.21.32.56v.11a2.06,2.06,0,0,1,1.6-.74,2.45,2.45,0,0,1,.79.14.19.19,0,0,1,.13.24l-.07.19c0,.1-.12.11-.21.07a1.48,1.48,0,0,0-.68-.17,1.87,1.87,0,0,0-1.54.87v3.69a.14.14,0,0,1-.16.16h-.18c-.1,0-.14-.07-.14-.16Z"/><path class="cls-3" d="M95,114.49a2.23,2.23,0,0,1,2.28,2.31c0,.2,0,.5-.19.5H93a2,2,0,0,0,2,2,2.87,2.87,0,0,0,1.57-.5c.11-.07.16-.08.22,0l.12.18s0,.13-.06.2a3.26,3.26,0,0,1-1.85.6,2.67,2.67,0,0,1,0-5.32Zm1.8,2.36A1.77,1.77,0,0,0,95,115,1.93,1.93,0,0,0,93,116.85Z"/><path class="cls-3" d="M100.63,122.09a2.65,2.65,0,0,1-1.72-.66.12.12,0,0,1,0-.18l.11-.15c.07-.07.12-.07.22,0a2.4,2.4,0,0,0,1.41.52,1.66,1.66,0,0,0,1.77-1.8v-.54a2.43,2.43,0,0,1-1.54.53,2.55,2.55,0,0,1-2.53-2.68,2.47,2.47,0,0,1,2.41-2.64,2.8,2.8,0,0,1,1.68.57c0-.32.18-.5.32-.5s.14,0,.14.17v5.09A2.13,2.13,0,0,1,100.63,122.09Zm1.77-6.45a2.25,2.25,0,0,0-1.64-.68,2,2,0,0,0-2,2.16,2.07,2.07,0,0,0,2.06,2.21,2.4,2.4,0,0,0,1.53-.61Z"/><path class="cls-3" d="M104.52,112.77a.43.43,0,0,1,.44-.42.42.42,0,1,1,0,.84A.43.43,0,0,1,104.52,112.77Zm.21,2a.17.17,0,0,1,.17-.17h.15a.18.18,0,0,1,.17.17v4.75c0,.11-.06.16-.17.16h-.18a.14.14,0,0,1-.14-.16Z"/><path class="cls-3" d="M109.26,114.49a2.66,2.66,0,1,1-2.55,2.64A2.58,2.58,0,0,1,109.26,114.49Zm0,4.84a2.19,2.19,0,1,0-2.06-2.2A2.11,2.11,0,0,0,109.26,119.33Zm-.83-5.82a.15.15,0,0,1-.22-.08.17.17,0,0,1,.07-.24l1.77-1a.21.21,0,0,1,.31.11c.08.15.06.29-.1.36Z"/><path class="cls-3" d="M113.31,114.73c0-.12,0-.17.14-.17s.32.21.32.56v.13a2.45,2.45,0,0,1,1.77-.76c1.45,0,1.92.89,1.92,2.22v2.81a.17.17,0,0,1-.17.16h-.15a.17.17,0,0,1-.17-.16v-2.78c0-1.18-.47-1.78-1.45-1.78a2.32,2.32,0,0,0-1.72.87v3.69c0,.11-.06.16-.17.16h-.18a.14.14,0,0,1-.14-.16Z"/></g></g></svg>