<svg xmlns="http://www.w3.org/2000/svg" viewBox="0 0 153.61 591.61"><defs><style>.cls-1{fill:#007dc3;}.cls-2{fill:#fdb71a;}.cls-3{fill:none;stroke:#4b5b6d;stroke-width:0.5px;}</style></defs><g id="Layer_2" data-name="Layer 2"><g id="Layer_1-2" data-name="Layer 1"><path class="cls-1" d="M1.28,436.3a1.2,1.2,0,0,1-1.2-1.2v-5.34a2.81,2.81,0,0,1,.84-2.22l20.76-24.77a1.06,1.06,0,0,1,.9-.37H27a1.2,1.2,0,0,1,1.2,1.2v25h4.92a1.12,1.12,0,0,1,1.2,1.14v5.34a1.2,1.2,0,0,1-1.2,1.2H28.22v7.5a1.19,1.19,0,0,1-1.14,1.2H20.54a1.19,1.19,0,0,1-1.14-1.2v-7.5Zm18.18-7.44v-11.7h-.12l-9.6,11.58v.12Z"/><path class="cls-1" d="M58.82,401.86a1.41,1.41,0,0,1,1.92,1l1.8,4.8c.24.73.06,1.39-1.2,1.81-2.88.89-10.92,4-12.42,9.95a17,17,0,0,1,5.88-1.26c5.82,0,12.3,4.26,12.3,13.38a14.22,14.22,0,0,1-14.16,14.16c-9.54,0-14.88-7.14-14.88-16.8C38.06,410.69,53.12,403.55,58.82,401.86Zm-6,35.28a6,6,0,0,0,0-11.94,6,6,0,0,0,0,11.94Z"/><path class="cls-1" d="M68.9,410.44a8.1,8.1,0,0,1,16.2,0,8.1,8.1,0,1,1-16.2,0Zm25-6.84a1.26,1.26,0,0,1,1-.59H99.5a1.08,1.08,0,0,1,1,1.62L79.82,444.4a1.79,1.79,0,0,1-1,.6H74.36a1.08,1.08,0,0,1-1-1.62ZM79,410.44a2.07,2.07,0,0,0-4.14,0,2.07,2.07,0,1,0,4.14,0Zm18.06,19a8.1,8.1,0,1,1-8.1,8.1A8.12,8.12,0,0,1,97.1,429.4Zm0,10.14a2.07,2.07,0,1,0-2-2A2.11,2.11,0,0,0,97.1,439.54Z"/><path class="cls-2" d="M.5,290.26l3.78-4a1.27,1.27,0,0,1,1.62-.06c2.34,1.92,4.38,2.94,7.38,2.94a5.74,5.74,0,0,0,5.88-5.88c0-3.78-2.4-5.94-6.42-5.94H3.26a2.08,2.08,0,0,1-1.92-2.22V256a1.14,1.14,0,0,1,1.14-1.14H22.4A1.19,1.19,0,0,1,23.6,256v5.46a1.19,1.19,0,0,1-1.2,1.14H9.68v6.66h4.38c8.52,0,14.1,5.4,14.1,13.68,0,8.1-6.6,14.52-15.3,14.52a16.06,16.06,0,0,1-12.18-5.1C-.16,291.4-.22,291,.5,290.26Z"/><path class="cls-2" d="M33.2,288.16A1.2,1.2,0,0,1,32,287v-5.34a2.81,2.81,0,0,1,.84-2.22L53.6,254.62a1.06,1.06,0,0,1,.9-.36h4.44a1.2,1.2,0,0,1,1.2,1.2v25h4.92a1.12,1.12,0,0,1,1.2,1.14V287a1.2,1.2,0,0,1-1.2,1.2H60.14v7.5a1.19,1.19,0,0,1-1.14,1.2H52.46a1.19,1.19,0,0,1-1.14-1.2v-7.5Zm18.18-7.44V269h-.12l-9.6,11.58v.12Z"/><path class="cls-2" d="M67.7,262.3a8.1,8.1,0,0,1,16.2,0,8.1,8.1,0,0,1-16.2,0Zm25-6.84a1.25,1.25,0,0,1,1-.6H98.3a1.08,1.08,0,0,1,1,1.62l-20.7,39.78a1.79,1.79,0,0,1-1,.6H73.16a1.08,1.08,0,0,1-1-1.62ZM77.84,262.3a2.07,2.07,0,0,0-4.14,0,2.07,2.07,0,1,0,4.14,0Zm18.06,19a8.1,8.1,0,1,1-8.1,8.1A8.12,8.12,0,0,1,95.9,281.26Zm0,10.14a2.07,2.07,0,1,0-2-2A2.11,2.11,0,0,0,95.9,291.4Z"/><polyline class="cls-3" points="51.59 465 51.59 590.49 153.36 590.49"/><line class="cls-3" x1="52.72" y1="465" x2="50.47" y2="465"/><line class="cls-3" x1="153.36" y1="589.36" x2="153.36" y2="591.61"/><polyline class="cls-3" points="51.59 245.6 51.59 1.13 153.36 1.13"/><line class="cls-3" x1="52.72" y1="245.61" x2="50.47" y2="245.61"/><line class="cls-3" x1="153.36" y1="2.25" x2="153.36"/></g></g></svg>