<svg xmlns="http://www.w3.org/2000/svg" viewBox="0 0 538.57 101"><defs><style>.cls-1{fill:#fff;}</style></defs><g id="Layer_2" data-name="Layer 2"><g id="Layer_1-2" data-name="Layer 1"><path class="cls-1" d="M12.36,99.94H2.51A2.57,2.57,0,0,1,0,97.43V27.32a2.57,2.57,0,0,1,2.51-2.51h9.85a2.57,2.57,0,0,1,2.51,2.51V97.43A2.57,2.57,0,0,1,12.36,99.94ZM2.51,25.81A1.58,1.58,0,0,0,1,27.32V97.43a1.58,1.58,0,0,0,1.51,1.51h9.85a1.58,1.58,0,0,0,1.51-1.51V27.32a1.58,1.58,0,0,0-1.51-1.51Z"/><path class="cls-1" d="M91.15,101H89.67a2.8,2.8,0,0,1-2.15-.89L44.74,53V97.43a2.52,2.52,0,0,1-2.51,2.51H32.59a2.57,2.57,0,0,1-2.51-2.51V26.16a2.49,2.49,0,0,1,2.51-2.41h1.59a2.81,2.81,0,0,1,2.15.89L78.9,70V27.32a2.51,2.51,0,0,1,2.51-2.51h9.74a2.57,2.57,0,0,1,2.51,2.51V98.59A2.49,2.49,0,0,1,91.15,101ZM43.74,51.39h.93l.15.16L88.24,99.42a1.83,1.83,0,0,0,1.43.58h1.48a1.5,1.5,0,0,0,1.51-1.41V27.32a1.58,1.58,0,0,0-1.51-1.51H81.41a1.51,1.51,0,0,0-1.51,1.51V71.56H79l-.15-.16L35.61,25.33a1.83,1.83,0,0,0-1.43-.58H32.59a1.5,1.5,0,0,0-1.51,1.41V97.43a1.58,1.58,0,0,0,1.51,1.51h9.64a1.52,1.52,0,0,0,1.51-1.51Z"/><path class="cls-1" d="M143.26,101a38.63,38.63,0,1,1,0-77.25c10.26,0,18.27,3.08,26,10a2.47,2.47,0,0,1,.12,3.69l-6.45,6.66a2.19,2.19,0,0,1-1.58.79,2.47,2.47,0,0,1-1.78-.78A24.53,24.53,0,0,0,143.58,38c-13,0-23.12,10.62-23.12,24.17s10.2,24,23.22,24a24.87,24.87,0,0,0,15.89-5.93,2.45,2.45,0,0,1,3.32,0L169.46,87a2.11,2.11,0,0,1,.68,1.54,2.74,2.74,0,0,1-.8,2A36.67,36.67,0,0,1,143.26,101Zm0-76.25a37.63,37.63,0,1,0,0,75.25,35.69,35.69,0,0,0,25.38-10.13,1.79,1.79,0,0,0,.51-1.28,1.16,1.16,0,0,0-.38-.85l-6.6-6.8a1.45,1.45,0,0,0-2,0,25.84,25.84,0,0,1-16.53,6.16c-13.58,0-24.22-11-24.22-25S130.05,37,143.58,37a25.52,25.52,0,0,1,16.63,6.37,1.48,1.48,0,0,0,1.07.51,1.24,1.24,0,0,0,.88-.46l6.47-6.69a1.5,1.5,0,0,0,.48-1.13,1.53,1.53,0,0,0-.56-1.12A35.46,35.46,0,0,0,143.26,24.75Z"/><path class="cls-1" d="M221.2,99.94H182.44a2.52,2.52,0,0,1-2.51-2.51V27.32a2.52,2.52,0,0,1,2.51-2.51h9.75a2.58,2.58,0,0,1,2.51,2.51V86.23h26.5a2.51,2.51,0,0,1,2.51,2.51v8.69A2.51,2.51,0,0,1,221.2,99.94ZM182.44,25.81a1.51,1.51,0,0,0-1.51,1.51V97.43a1.52,1.52,0,0,0,1.51,1.51H221.2a1.51,1.51,0,0,0,1.51-1.51V88.74a1.51,1.51,0,0,0-1.51-1.51H193.7V27.32a1.59,1.59,0,0,0-1.51-1.51Z"/><path class="cls-1" d="M260.81,101c-17.07,0-29.94-12.37-29.94-28.78V27.32a2.57,2.57,0,0,1,2.51-2.51h10.06A2.52,2.52,0,0,1,246,27.32V71.48c0,8.82,6,14.75,14.85,14.75s15-6,15-14.64V27.32a2.52,2.52,0,0,1,2.52-2.51h10.06a2.58,2.58,0,0,1,2.51,2.51v44.9C290.86,88.63,277.94,101,260.81,101ZM233.38,25.81a1.58,1.58,0,0,0-1.51,1.51v44.9c0,15.84,12.44,27.78,28.94,27.78s29.05-11.94,29.05-27.78V27.32a1.59,1.59,0,0,0-1.51-1.51H278.29a1.52,1.52,0,0,0-1.52,1.51V71.59c0,9.21-6.56,15.64-16,15.64S245,80.9,245,71.48V27.32a1.52,1.52,0,0,0-1.52-1.51Z"/><path class="cls-1" d="M326.05,101c-13.89,0-20.95-6.08-23.62-8.38-1.24-1-1.72-1.9-.64-3.8l3.81-6.57a2.89,2.89,0,0,1,1.95-1.43,3,3,0,0,1,2.39.54c4.5,3.4,9.09,6.46,15.69,6.46,5.12,0,9.13-3.36,9.13-7.65,0-4.86-3.93-8.52-13.13-12.25C313,64.41,301.4,58.18,301.4,44.58c0-10,7.62-20.83,24.33-20.83A37.87,37.87,0,0,1,347.21,31a2.76,2.76,0,0,1,1.17,1.79,3.14,3.14,0,0,1-.42,2.39l-4,6c-1,1.46-2.84,2.45-4.4,1.41l-.78-.49c-4.28-2.7-8.32-5.25-13.66-5.25-6.1,0-8.82,3.48-8.82,6.92,0,4.56,3.53,7.87,12.18,11.39,11.1,4.46,22.45,10.85,22.45,24.4C350.91,89.94,342.2,101,326.05,101ZM308.14,81.77a1.72,1.72,0,0,0-.39,0,1.82,1.82,0,0,0-1.28.93l-3.82,6.57c-.82,1.46-.46,1.84.41,2.54h0c2.58,2.23,9.44,8.14,23,8.14,15.5,0,23.86-10.55,23.86-20.47,0-13-11-19.13-21.82-23.47-9.1-3.71-12.81-7.28-12.81-12.32,0-3.94,3-7.92,9.82-7.92,5.63,0,10,2.75,14.2,5.41l.78.49c1,.69,2.32-.07,3-1.12l4-6A2.09,2.09,0,0,0,347.4,33a1.83,1.83,0,0,0-.75-1.18,37,37,0,0,0-20.92-7c-11.23,0-23.33,6.21-23.33,19.83,0,13,11.19,19,19.6,22.41,9.65,3.91,13.76,7.85,13.76,13.18,0,4.85-4.45,8.65-10.13,8.65-6.91,0-11.65-3.15-16.3-6.67A1.94,1.94,0,0,0,308.14,81.77Z"/><path class="cls-1" d="M373.6,99.94h-9.85a2.57,2.57,0,0,1-2.51-2.51V27.32a2.57,2.57,0,0,1,2.51-2.51h9.85a2.57,2.57,0,0,1,2.51,2.51V97.43A2.57,2.57,0,0,1,373.6,99.94Zm-9.85-74.13a1.59,1.59,0,0,0-1.51,1.51V97.43a1.59,1.59,0,0,0,1.51,1.51h9.85a1.58,1.58,0,0,0,1.51-1.51V27.32a1.58,1.58,0,0,0-1.51-1.51Z"/><path class="cls-1" d="M425.49,101A38.11,38.11,0,0,1,387,62.48a38.58,38.58,0,1,1,77.15,0A38.17,38.17,0,0,1,425.49,101Zm0-76.25A37.68,37.68,0,0,0,388,62.48a37.58,37.58,0,0,0,75.15,0A37.73,37.73,0,0,0,425.49,24.75Zm0,62.48a24.86,24.86,0,1,1,24.86-24.75A24.78,24.78,0,0,1,425.49,87.23Zm0-48.71a23.86,23.86,0,1,0,23.86,24A24.22,24.22,0,0,0,425.49,38.52ZM417,19.39A4,4,0,0,1,413.72,17c-.78-1.56-.9-3.81.15-4.56h0L431.78.54a3.53,3.53,0,0,1,2.89-.4,6,6,0,0,1,3.56,3.13A6.93,6.93,0,0,1,439,8.42a2.91,2.91,0,0,1-1.53,1.77l-19.59,9A2.17,2.17,0,0,1,417,19.39Zm-2.52-6.17c-.43.32-.53,1.91.16,3.29s2,2.16,2.84,1.78l19.59-9a2,2,0,0,0,1-1.19,6,6,0,0,0-.72-4.38,4.89,4.89,0,0,0-2.93-2.61,2.5,2.5,0,0,0-2.07.26Z"/><path class="cls-1" d="M536.06,101h-1.49a2.85,2.85,0,0,1-2.15-.89L489.64,53V97.43a2.51,2.51,0,0,1-2.51,2.51h-9.64A2.58,2.58,0,0,1,475,97.43V26.16a2.49,2.49,0,0,1,2.51-2.41h1.59a2.83,2.83,0,0,1,2.16.89L523.8,70V27.32a2.52,2.52,0,0,1,2.51-2.51h9.75a2.57,2.57,0,0,1,2.51,2.51V98.59A2.49,2.49,0,0,1,536.06,101ZM488.64,51.39h.94l.14.16,43.42,47.87a1.84,1.84,0,0,0,1.43.58h1.49a1.5,1.5,0,0,0,1.51-1.41V27.32a1.59,1.59,0,0,0-1.51-1.51h-9.75a1.51,1.51,0,0,0-1.51,1.51V71.56h-.93l-.14-.16L480.52,25.33a1.85,1.85,0,0,0-1.44-.58h-1.59A1.5,1.5,0,0,0,476,26.16V97.43a1.59,1.59,0,0,0,1.51,1.51h9.64a1.52,1.52,0,0,0,1.51-1.51Z"/></g></g></svg>