<svg xmlns="http://www.w3.org/2000/svg" viewBox="0 0 698.16 80.61"><defs><style>.cls-1{fill:none;stroke:#fff;stroke-miterlimit:8.95;stroke-width:0.31px;}</style></defs><g id="Layer_2" data-name="Layer 2"><g id="Layer_1-2" data-name="Layer 1"><path class="cls-1" d="M30.85,19.23a28.77,28.77,0,0,1,20.58,7.91,1.58,1.58,0,0,1,.09,2.38l-5.19,5.35a1.37,1.37,0,0,1-2.13,0,20.13,20.13,0,0,0-13.09-5c-10.89,0-19,9.1-19,19.81s8.17,19.64,19.05,19.64a20.39,20.39,0,0,0,13-4.84,1.57,1.57,0,0,1,2.13,0l5.27,5.44a1.62,1.62,0,0,1-.08,2.29,29.18,29.18,0,0,1-20.67,8.25,30.61,30.61,0,1,1,0-61.22Z"/><path class="cls-1" d="M60.7,21.69a1.61,1.61,0,0,1,1.61-1.61H96.92a1.61,1.61,0,0,1,1.62,1.61v7a1.61,1.61,0,0,1-1.62,1.61H71.75V44.23h21a1.66,1.66,0,0,1,1.61,1.61V52.9a1.61,1.61,0,0,1-1.61,1.62h-21V69.4H96.92A1.61,1.61,0,0,1,98.54,71v7a1.61,1.61,0,0,1-1.62,1.61H62.31A1.61,1.61,0,0,1,60.7,78Z"/><path class="cls-1" d="M108.23,20.76a1.59,1.59,0,0,1,1.61-1.53h1.28a1.89,1.89,0,0,1,1.45.59l34.69,37h.17V21.69a1.61,1.61,0,0,1,1.62-1.61h7.82a1.67,1.67,0,0,1,1.62,1.61V78.92a1.6,1.6,0,0,1-1.62,1.53h-1.19a1.89,1.89,0,0,1-1.45-.59L119.37,41.42h-.17V78a1.61,1.61,0,0,1-1.62,1.61h-7.74A1.66,1.66,0,0,1,108.23,78Z"/><path class="cls-1" d="M181.1,30.28h-13a1.61,1.61,0,0,1-1.62-1.61v-7a1.61,1.61,0,0,1,1.62-1.61h37.16a1.61,1.61,0,0,1,1.62,1.61v7a1.61,1.61,0,0,1-1.62,1.61h-13V78a1.67,1.67,0,0,1-1.62,1.61h-7.9A1.67,1.67,0,0,1,181.1,78Z"/><path class="cls-1" d="M214.86,21.69a1.61,1.61,0,0,1,1.61-1.61h24.32a18.41,18.41,0,0,1,18.54,18.28c0,7.82-5.19,14.2-12.58,17.18l11.65,21.6A1.61,1.61,0,0,1,257,79.6H248a1.46,1.46,0,0,1-1.36-.76L235.35,56.3h-9.44V78a1.66,1.66,0,0,1-1.61,1.61h-7.83A1.61,1.61,0,0,1,214.86,78Zm25,25.51a8.67,8.67,0,0,0,8.42-8.67,8.47,8.47,0,0,0-8.42-8.25H226V47.2Z"/><path class="cls-1" d="M296.57,19.23A30.61,30.61,0,1,1,266,49.93,30.56,30.56,0,0,1,296.57,19.23Zm0,50.17A19.56,19.56,0,1,0,277.1,49.93,19.6,19.6,0,0,0,296.57,69.4Z"/><path class="cls-1" d="M329.65,77.39l26.44-57.23a1.53,1.53,0,0,1,1.45-.93h.85a1.45,1.45,0,0,1,1.45.93L386,77.39a1.5,1.5,0,0,1-1.45,2.21h-7.4a2.44,2.44,0,0,1-2.46-1.7l-4.17-9.18H345.12L341,77.9a2.57,2.57,0,0,1-2.47,1.7h-7.4A1.5,1.5,0,0,1,329.65,77.39Zm36.73-18.11-8.5-18.71h-.26l-8.33,18.71Z"/><path class="cls-1" d="M399,20.5a1.42,1.42,0,0,1,1.53-1.27h1.36a1.56,1.56,0,0,1,1.45.85L422,60.21h.26L441,20.08a1.46,1.46,0,0,1,1.44-.85h1.36a1.42,1.42,0,0,1,1.53,1.27l10,57.15a1.48,1.48,0,0,1-1.53,1.95h-7.74a1.85,1.85,0,0,1-1.62-1.27l-5-32.23h-.26L424.29,79.52a1.44,1.44,0,0,1-1.45.93h-1.53a1.52,1.52,0,0,1-1.44-.93L404.82,46.1h-.26l-4.93,32.23a1.66,1.66,0,0,1-1.53,1.27h-7.66a1.55,1.55,0,0,1-1.61-1.95Z"/><path class="cls-1" d="M465.1,21.69a1.61,1.61,0,0,1,1.62-1.61h34.61a1.61,1.61,0,0,1,1.61,1.61v7a1.61,1.61,0,0,1-1.61,1.61H476.16V44.23h21a1.67,1.67,0,0,1,1.62,1.61V52.9a1.62,1.62,0,0,1-1.62,1.62h-21V69.4h25.17A1.61,1.61,0,0,1,502.94,71v7a1.61,1.61,0,0,1-1.61,1.61H466.72A1.61,1.61,0,0,1,465.1,78ZM475.39,10,489.76.52c1.45-.94,3.57,0,4.59,2s1,4.34-.42,5L478.2,14.8c-.94.43-2.13-.34-2.81-1.61S474.8,10.47,475.39,10Z"/><path class="cls-1" d="M512.63,21.69a1.61,1.61,0,0,1,1.62-1.61h24.32a18.42,18.42,0,0,1,18.54,18.28c0,7.82-5.19,14.2-12.59,17.18l11.65,21.6a1.6,1.6,0,0,1-1.44,2.46H545.8a1.45,1.45,0,0,1-1.36-.76L533.13,56.3h-9.44V78a1.67,1.67,0,0,1-1.62,1.61h-7.82A1.61,1.61,0,0,1,512.63,78Zm25,25.51a8.66,8.66,0,0,0,8.42-8.67,8.46,8.46,0,0,0-8.42-8.25H523.77V47.2Z"/><path class="cls-1" d="M567.31,21.69a1.66,1.66,0,0,1,1.61-1.61h7.91a1.67,1.67,0,0,1,1.62,1.61V78a1.67,1.67,0,0,1-1.62,1.61h-7.91A1.66,1.66,0,0,1,567.31,78Z"/><path class="cls-1" d="M618.67,19.23a28.78,28.78,0,0,1,20.58,7.91,1.58,1.58,0,0,1,.08,2.38l-5.19,5.35a1.36,1.36,0,0,1-2.12,0,20.16,20.16,0,0,0-13.1-5c-10.88,0-19,9.1-19,19.81s8.16,19.64,19,19.64a20.41,20.41,0,0,0,13-4.84,1.55,1.55,0,0,1,2.12,0l5.28,5.44a1.61,1.61,0,0,1-.09,2.29,29.14,29.14,0,0,1-20.66,8.25,30.61,30.61,0,1,1,0-61.22Z"/><path class="cls-1" d="M641.45,77.39,667.9,20.16a1.53,1.53,0,0,1,1.45-.93h.85a1.43,1.43,0,0,1,1.44.93l26.19,57.23a1.5,1.5,0,0,1-1.44,2.21H689a2.45,2.45,0,0,1-2.47-1.7l-4.16-9.18H656.93l-4.17,9.18a2.55,2.55,0,0,1-2.46,1.7h-7.4A1.5,1.5,0,0,1,641.45,77.39Zm36.74-18.11-8.5-18.71h-.26L661.1,59.28Z"/></g></g></svg>