<svg xmlns="http://www.w3.org/2000/svg" viewBox="0 0 978.5 100"><defs><style>.cls-1{fill:#fff;}</style></defs><g id="Layer_2" data-name="Layer 2"><g id="Layer_1-2" data-name="Layer 1"><path class="cls-1" d="M49.86,0a50,50,0,1,1,0,100A49.55,49.55,0,0,1,0,50.14,49.79,49.79,0,0,1,49.86,0Zm0,81.94a31.94,31.94,0,1,0,0-63.88c-17.5,0-31.8,14.58-31.8,32.08A31.88,31.88,0,0,0,49.86,81.94Z"/><path class="cls-1" d="M115.42,4a2.64,2.64,0,0,1,2.64-2.64H150.7c17.08,0,31.11,13.89,31.11,30.69a31.24,31.24,0,0,1-31,31.25H133.48V96a2.73,2.73,0,0,1-2.64,2.64H118.06A2.64,2.64,0,0,1,115.42,96Zm34.72,42.36c7.78,0,13.75-6.25,13.75-14.45a13.38,13.38,0,0,0-13.75-13.47H133.48V46.39Z"/><path class="cls-1" d="M239,0a50,50,0,1,1,0,100,49.56,49.56,0,0,1-49.86-49.86A49.8,49.8,0,0,1,239,0Zm0,81.94a31.94,31.94,0,1,0,0-63.88c-17.5,0-31.8,14.58-31.8,32.08A31.88,31.88,0,0,0,239,81.94Z"/><path class="cls-1" d="M304.59,4a2.64,2.64,0,0,1,2.64-2.64H347a30.08,30.08,0,0,1,30.28,29.86c0,12.78-8.47,23.19-20.55,28.06l19,35.27a2.63,2.63,0,0,1-2.36,4H358.76a2.37,2.37,0,0,1-2.22-1.25l-18.47-36.8H322.65V96A2.73,2.73,0,0,1,320,98.61H307.23A2.64,2.64,0,0,1,304.59,96Zm40.84,41.66c7.36,0,13.75-6.38,13.75-14.16a13.82,13.82,0,0,0-13.75-13.47H322.79V45.69Z"/><path class="cls-1" d="M409.59,18.06H388.34a2.63,2.63,0,0,1-2.63-2.64V4a2.63,2.63,0,0,1,2.63-2.64H449A2.64,2.64,0,0,1,451.68,4V15.42A2.64,2.64,0,0,1,449,18.06H427.79V96a2.73,2.73,0,0,1-2.64,2.64H412.23A2.73,2.73,0,0,1,409.59,96Z"/><path class="cls-1" d="M463.76,4a2.73,2.73,0,0,1,2.64-2.64h13.2A2.64,2.64,0,0,1,482.24,4V61.94c0,11.81,8.05,20,20.13,20s20.28-8.19,20.28-19.86V4a2.64,2.64,0,0,1,2.64-2.64h13.2A2.73,2.73,0,0,1,541.12,4V62.92c0,21.11-16.8,37.08-38.75,37.08-21.8,0-38.61-16-38.61-37.08Z"/><path class="cls-1" d="M561.41,2.5A2.61,2.61,0,0,1,564,0h2.09a3.05,3.05,0,0,1,2.36,1l56.67,60.42h.27V4a2.64,2.64,0,0,1,2.64-2.64h12.78A2.73,2.73,0,0,1,643.49,4V97.5a2.61,2.61,0,0,1-2.64,2.5h-1.94a3,3,0,0,1-2.36-1L579.6,36.25h-.28V96a2.64,2.64,0,0,1-2.64,2.64H564A2.73,2.73,0,0,1,561.41,96Z"/><path class="cls-1" d="M664.74,4a2.73,2.73,0,0,1,2.64-2.64H680.3A2.73,2.73,0,0,1,682.94,4V96a2.73,2.73,0,0,1-2.64,2.64H667.38A2.73,2.73,0,0,1,664.74,96Z"/><path class="cls-1" d="M704.19,4a2.61,2.61,0,0,1,2.5-2.64H739.6c26.81,0,48.75,21.8,48.75,48.47A48.81,48.81,0,0,1,739.6,98.61H706.69a2.61,2.61,0,0,1-2.5-2.64Zm33.75,77.64c18,0,31.25-12.78,31.25-31.81S756,18.2,737.94,18.2H722.1V81.67Z"/><path class="cls-1" d="M792.38,95l43.2-93.47A2.49,2.49,0,0,1,837.94,0h1.39a2.35,2.35,0,0,1,2.36,1.53L884.47,95a2.45,2.45,0,0,1-2.36,3.61H870c-2.08,0-3-.83-4-2.78l-6.81-15H817.66l-6.8,15a4.2,4.2,0,0,1-4,2.78H794.75A2.45,2.45,0,0,1,792.38,95Zm60-29.58L838.5,34.86h-.42L824.47,65.42Z"/><path class="cls-1" d="M894.33,4a2.61,2.61,0,0,1,2.5-2.64h32.92c26.81,0,48.75,21.8,48.75,48.47a48.81,48.81,0,0,1-48.75,48.75H896.83a2.61,2.61,0,0,1-2.5-2.64Zm33.75,77.64c18.06,0,31.25-12.78,31.25-31.81S946.14,18.2,928.08,18.2H912.25V81.67Z"/></g></g></svg>