<svg xmlns="http://www.w3.org/2000/svg" viewBox="0 0 442.51 100"><defs><style>.cls-1{fill:#fff;}</style></defs><g id="Layer_2" data-name="Layer 2"><g id="Layer_1-2" data-name="Layer 1"><path class="cls-1" d="M.28,5A2.45,2.45,0,0,1,2.64,1.39H16.81a2.55,2.55,0,0,1,2.36,1.53L46,62.64h.7L73.47,2.92a2.55,2.55,0,0,1,2.36-1.53H90A2.45,2.45,0,0,1,92.36,5l-43,93.47A2.5,2.5,0,0,1,46.94,100H45.56a2.48,2.48,0,0,1-2.36-1.53Z"/><path class="cls-1" d="M90.42,95,133.61,1.53A2.5,2.5,0,0,1,136,0h1.39a2.36,2.36,0,0,1,2.36,1.53L182.5,95a2.45,2.45,0,0,1-2.36,3.61H168.06c-2.08,0-3.06-.83-4-2.78l-6.8-15H115.7l-6.81,15a4.18,4.18,0,0,1-4,2.78H92.78A2.45,2.45,0,0,1,90.42,95Zm60-29.58L136.53,34.86h-.42L122.5,65.42Z"/><path class="cls-1" d="M192.37,4A2.64,2.64,0,0,1,195,1.39h12.78A2.73,2.73,0,0,1,210.42,4V81.94h35.42a2.64,2.64,0,0,1,2.64,2.64V96a2.64,2.64,0,0,1-2.64,2.64H195A2.64,2.64,0,0,1,192.37,96Z"/><path class="cls-1" d="M304.32,0a50,50,0,0,1,0,100,49.56,49.56,0,0,1-49.87-49.86A49.8,49.8,0,0,1,304.32,0Zm0,81.94a31.94,31.94,0,1,0,0-63.88c-17.51,0-31.81,14.58-31.81,32.08A31.88,31.88,0,0,0,304.32,81.94Z"/><path class="cls-1" d="M369.87,4a2.64,2.64,0,0,1,2.64-2.64h39.72a30.08,30.08,0,0,1,30.28,29.86C442.51,44,434,54.44,422,59.31l19,35.27a2.63,2.63,0,0,1-2.36,4H424a2.37,2.37,0,0,1-2.22-1.25l-18.47-36.8H387.93V96a2.73,2.73,0,0,1-2.64,2.64H372.51A2.64,2.64,0,0,1,369.87,96Zm40.84,41.66c7.36,0,13.75-6.38,13.75-14.16a13.82,13.82,0,0,0-13.75-13.47H388.07V45.69Z"/></g></g></svg>