<svg xmlns="http://www.w3.org/2000/svg" viewBox="0 0 859.19 100"><defs><style>.cls-1{fill:#fff;}</style></defs><g id="Layer_2" data-name="Layer 2"><g id="Layer_1-2" data-name="Layer 1"><path class="cls-1" d="M0,4A2.61,2.61,0,0,1,2.5,1.39H35.42c26.8,0,48.75,21.8,48.75,48.47A48.81,48.81,0,0,1,35.42,98.61H2.5A2.61,2.61,0,0,1,0,96ZM33.75,81.67C51.81,81.67,65,68.89,65,49.86S51.81,18.2,33.75,18.2H17.92V81.67Z"/><path class="cls-1" d="M99.72,4a2.64,2.64,0,0,1,2.64-2.64h56.53A2.64,2.64,0,0,1,161.53,4V15.42a2.64,2.64,0,0,1-2.64,2.64H117.78V40.83h34.31a2.72,2.72,0,0,1,2.63,2.64V55a2.63,2.63,0,0,1-2.63,2.64H117.78v24.3h41.11a2.64,2.64,0,0,1,2.64,2.64V96a2.64,2.64,0,0,1-2.64,2.64H102.36A2.64,2.64,0,0,1,99.72,96Z"/><path class="cls-1" d="M173.34,89.17c-1.39-1.11-2-2-.7-4.17l5-8.61a3.22,3.22,0,0,1,4.73-1c5.69,4.3,11.94,8.61,21,8.61,7.22,0,12.64-4.72,12.64-10.7,0-7.08-6-11.94-17.64-16.66-13.06-5.28-26.11-13.61-26.11-30C172.23,14.31,181.39,0,203.48,0c14.16,0,25,7.22,27.77,9.31a3.44,3.44,0,0,1,.84,4.58l-5.28,7.92c-1.11,1.66-3.19,2.77-4.86,1.66-6-3.75-11.67-7.64-19.31-7.64-7.91,0-12.22,4.45-12.22,9.73,0,6.52,5.14,11,16.39,15.55,13.47,5.42,29,13.47,29,31.39,0,14.31-12.36,27.5-32,27.5C186.39,100,177.37,92.64,173.34,89.17Z"/><path class="cls-1" d="M239.17,95l43.2-93.47A2.49,2.49,0,0,1,284.73,0h1.39a2.35,2.35,0,0,1,2.36,1.53L331.26,95a2.45,2.45,0,0,1-2.36,3.61H316.81c-2.08,0-3.05-.83-4-2.78l-6.81-15H264.45l-6.8,15a4.2,4.2,0,0,1-4,2.78H241.54A2.45,2.45,0,0,1,239.17,95Zm60-29.58L285.28,34.86h-.41L271.26,65.42Z"/><path class="cls-1" d="M341.12,4a2.64,2.64,0,0,1,2.64-2.64h39.72a30.08,30.08,0,0,1,30.28,29.86c0,12.78-8.47,23.19-20.55,28.06l19,35.27a2.63,2.63,0,0,1-2.36,4H395.29a2.36,2.36,0,0,1-2.22-1.25l-18.48-36.8H359.18V96a2.73,2.73,0,0,1-2.64,2.64H343.76A2.64,2.64,0,0,1,341.12,96ZM382,45.69c7.36,0,13.75-6.38,13.75-14.16A13.82,13.82,0,0,0,382,18.06H359.32V45.69Z"/><path class="cls-1" d="M430.43,4a2.64,2.64,0,0,1,2.64-2.64h39.72a30.08,30.08,0,0,1,30.28,29.86c0,12.78-8.47,23.19-20.56,28.06l19,35.27a2.63,2.63,0,0,1-2.36,4H484.6a2.39,2.39,0,0,1-2.23-1.25L463.9,60.56H448.49V96a2.73,2.73,0,0,1-2.64,2.64H433.07A2.64,2.64,0,0,1,430.43,96Zm40.83,41.66c7.37,0,13.75-6.38,13.75-14.16a13.81,13.81,0,0,0-13.75-13.47H448.62V45.69Z"/><path class="cls-1" d="M563.9,0a50,50,0,1,1,0,100A49.56,49.56,0,0,1,514,50.14,49.8,49.8,0,0,1,563.9,0Zm0,81.94a31.94,31.94,0,1,0,0-63.88c-17.5,0-31.8,14.58-31.8,32.08A31.88,31.88,0,0,0,563.9,81.94Z"/><path class="cls-1" d="M629.46,4a2.64,2.64,0,0,1,2.64-2.64h12.78A2.73,2.73,0,0,1,647.52,4V81.94h35.42a2.64,2.64,0,0,1,2.64,2.64V96a2.64,2.64,0,0,1-2.64,2.64H632.1A2.64,2.64,0,0,1,629.46,96Z"/><path class="cls-1" d="M697.24,4a2.64,2.64,0,0,1,2.64-2.64h12.78A2.73,2.73,0,0,1,715.3,4V81.94h35.42a2.63,2.63,0,0,1,2.63,2.64V96a2.63,2.63,0,0,1-2.63,2.64H699.88A2.64,2.64,0,0,1,697.24,96Z"/><path class="cls-1" d="M809.19,0a50,50,0,1,1,0,100,49.55,49.55,0,0,1-49.86-49.86A49.79,49.79,0,0,1,809.19,0Zm0,81.94a31.94,31.94,0,1,0,0-63.88c-17.5,0-31.81,14.58-31.81,32.08A31.89,31.89,0,0,0,809.19,81.94Z"/></g></g></svg>