<svg xmlns="http://www.w3.org/2000/svg" viewBox="0 0 392.24 101"><defs><style>.cls-1{fill:#fff;}</style></defs><g id="Layer_2" data-name="Layer 2"><g id="Layer_1-2" data-name="Layer 1"><path class="cls-1" d="M42.89,101H41a2.4,2.4,0,0,1-2.25-1.44L20.44,58.93l-6,39a2.54,2.54,0,0,1-2.4,2H2.54a2.52,2.52,0,0,1-2-.82A2.64,2.64,0,0,1,0,96.93l12.6-71.17a2.29,2.29,0,0,1,2.4-2h1.7A2.44,2.44,0,0,1,19,25.09L42,74.45,65,25.1a2.33,2.33,0,0,1,2.25-1.35h1.69a2.3,2.3,0,0,1,2.41,2L83.84,96.92a2.55,2.55,0,0,1-.42,2.17,2.47,2.47,0,0,1-2,.85H71.8a2.79,2.79,0,0,1-2.49-2l-6.08-39L45.15,99.54A2.29,2.29,0,0,1,42.89,101ZM19.69,57.21h1.08L39.64,99.13A1.4,1.4,0,0,0,41,100h1.9a1.31,1.31,0,0,0,1.33-.82l18.68-42H64l.07.43,6.25,40.13a1.79,1.79,0,0,0,1.51,1.17h9.64a1.49,1.49,0,0,0,1.2-.48,1.57,1.57,0,0,0,.22-1.35L70.36,25.92a1.3,1.3,0,0,0-1.42-1.17H67.25a1.32,1.32,0,0,0-1.35.78L42.47,75.79h-.95L18.08,25.52a1.41,1.41,0,0,0-1.34-.77H15a1.29,1.29,0,0,0-1.41,1.15v0L1,97.09a1.65,1.65,0,0,0,.31,1.38,1.51,1.51,0,0,0,1.2.47h9.54a1.57,1.57,0,0,0,1.41-1.16Z"/><path class="cls-1" d="M140.64,99.94H97.54A2.52,2.52,0,0,1,95,97.43V27.32a2.52,2.52,0,0,1,2.51-2.51h43.1a2.52,2.52,0,0,1,2.52,2.51V36a2.52,2.52,0,0,1-2.52,2.52H109.8V54.88h25.65A2.59,2.59,0,0,1,138,57.4v8.79a2.52,2.52,0,0,1-2.52,2.51H109.8V86.23h30.84a2.52,2.52,0,0,1,2.52,2.51v8.69A2.52,2.52,0,0,1,140.64,99.94ZM97.54,25.81A1.51,1.51,0,0,0,96,27.32V97.43a1.52,1.52,0,0,0,1.51,1.51h43.1a1.52,1.52,0,0,0,1.52-1.51V88.74a1.52,1.52,0,0,0-1.52-1.51H108.8V67.7h26.65A1.52,1.52,0,0,0,137,66.19V57.4a1.6,1.6,0,0,0-1.52-1.52H108.8V37.52h31.84A1.52,1.52,0,0,0,142.16,36V27.32a1.52,1.52,0,0,0-1.52-1.51Zm13.61-6.42A4,4,0,0,1,107.9,17c-.78-1.56-.9-3.81.15-4.56h0L126,.53a3.57,3.57,0,0,1,2.89-.39,6,6,0,0,1,3.56,3.13,6.93,6.93,0,0,1,.76,5.15,2.88,2.88,0,0,1-1.53,1.77l-19.59,9A2.17,2.17,0,0,1,111.15,19.39Zm-2.52-6.17c-.43.32-.53,1.91.16,3.29s2,2.16,2.84,1.78l19.59-9a2,2,0,0,0,1-1.19,6,6,0,0,0-.72-4.38,4.9,4.9,0,0,0-2.92-2.61,2.52,2.52,0,0,0-2.08.26Z"/><path class="cls-1" d="M207.15,99.94H195.71a2.64,2.64,0,0,1-2.24-1.23L178.56,74.84,164,98.75a2.86,2.86,0,0,1-2.23,1.19H150.28a2.68,2.68,0,0,1-2.45-1.27,2.42,2.42,0,0,1,.12-2.46l21.86-34.79-21-32.88a2.41,2.41,0,0,1-.12-2.48A2.61,2.61,0,0,1,151,24.81h12.29A2.57,2.57,0,0,1,165.4,26l13.16,22.13L192,26a2.44,2.44,0,0,1,2.12-1.19h12.29a2.59,2.59,0,0,1,2.34,1.25,2.41,2.41,0,0,1-.12,2.48L187.52,61.42l21.86,34.79a2.5,2.5,0,0,1,.11,2.54A2.61,2.61,0,0,1,207.15,99.94ZM178.07,73.73h1l15.29,24.49a1.64,1.64,0,0,0,1.37.72h11.44a1.62,1.62,0,0,0,1.47-.69,1.52,1.52,0,0,0-.1-1.53l-22.19-35.3L207.79,28a1.43,1.43,0,0,0,.09-1.46,1.62,1.62,0,0,0-1.47-.73H194.12a1.44,1.44,0,0,0-1.24.68L179.05,49.21h-1L164.57,26.52a1.53,1.53,0,0,0-1.26-.71H151a1.62,1.62,0,0,0-1.47.73,1.43,1.43,0,0,0,.1,1.47L171,61.42,148.8,96.74a1.4,1.4,0,0,0-.1,1.44,1.73,1.73,0,0,0,1.58.76h11.44a1.83,1.83,0,0,0,1.4-.75Z"/><path class="cls-1" d="M230.66,99.94h-9.85a2.58,2.58,0,0,1-2.51-2.51V27.32a2.58,2.58,0,0,1,2.51-2.51h9.85a2.57,2.57,0,0,1,2.51,2.51V97.43A2.57,2.57,0,0,1,230.66,99.94Zm-9.85-74.13a1.59,1.59,0,0,0-1.51,1.51V97.43a1.59,1.59,0,0,0,1.51,1.51h9.85a1.58,1.58,0,0,0,1.51-1.51V27.32a1.58,1.58,0,0,0-1.51-1.51Z"/><path class="cls-1" d="M282.77,101a38.63,38.63,0,1,1,0-77.25c10.26,0,18.27,3.08,26,10a2.55,2.55,0,0,1,.89,1.83,2.52,2.52,0,0,1-.77,1.86l-6.45,6.66a2.19,2.19,0,0,1-1.58.79,2.4,2.4,0,0,1-1.78-.78,24.53,24.53,0,0,0-16-6.1C270.12,38,260,48.61,260,62.16s10.2,24,23.22,24a24.87,24.87,0,0,0,15.89-5.93,2.42,2.42,0,0,1,3.31,0L309,87a2.11,2.11,0,0,1,.68,1.54,2.74,2.74,0,0,1-.8,2A36.67,36.67,0,0,1,282.77,101Zm0-76.25a37.63,37.63,0,1,0,0,75.25,35.7,35.7,0,0,0,25.38-10.13,1.76,1.76,0,0,0,.5-1.28,1.15,1.15,0,0,0-.37-.85l-6.6-6.8a1.44,1.44,0,0,0-2,0,25.79,25.79,0,0,1-16.53,6.17c-13.58,0-24.22-11-24.22-25S269.56,37,283.09,37a25.52,25.52,0,0,1,16.63,6.37,1.52,1.52,0,0,0,1.07.51,1.24,1.24,0,0,0,.88-.46l6.47-6.69a1.48,1.48,0,0,0-.08-2.25A35.46,35.46,0,0,0,282.77,24.75Z"/><path class="cls-1" d="M353.62,101A38.11,38.11,0,0,1,315.1,62.48a38.57,38.57,0,1,1,77.14,0A38.16,38.16,0,0,1,353.62,101Zm0-76.25A37.66,37.66,0,0,0,316.1,62.48a37.57,37.57,0,0,0,75.14,0A37.72,37.72,0,0,0,353.62,24.75Zm0,62.48a24.86,24.86,0,1,1,24.85-24.75A24.77,24.77,0,0,1,353.62,87.23Zm0-48.71a23.86,23.86,0,1,0,23.85,24A24.22,24.22,0,0,0,353.62,38.52Z"/></g></g></svg>