<svg xmlns="http://www.w3.org/2000/svg" viewBox="0 0 584.21 101"><defs><style>.cls-1{fill:#fff;}</style></defs><g id="Layer_2" data-name="Layer 2"><g id="Layer_1-2" data-name="Layer 1"><path class="cls-1" d="M39.94,99.61H27a3.23,3.23,0,0,1-3.14-3.14V19.06H3.14A3.15,3.15,0,0,1,0,15.92V4.53A3.15,3.15,0,0,1,3.14,1.39H63.83A3.15,3.15,0,0,1,67,4.53V15.92a3.15,3.15,0,0,1-3.14,3.14H43.08V96.47A3.22,3.22,0,0,1,39.94,99.61ZM3.14,2.39A2.14,2.14,0,0,0,1,4.53V15.92a2.14,2.14,0,0,0,2.14,2.14H24.89V96.47A2.22,2.22,0,0,0,27,98.61H39.94a2.22,2.22,0,0,0,2.14-2.14V18.06H63.83A2.14,2.14,0,0,0,66,15.92V4.53a2.14,2.14,0,0,0-2.14-2.14Z"/><path class="cls-1" d="M157.72,99.61H145.64c-2.45,0-3.53-1.17-4.47-3l-6.68-14.73H93.6L86.93,96.54a4.69,4.69,0,0,1-4.48,3.07H70.36a3.07,3.07,0,0,1-2.69-1.36,3,3,0,0,1-.12-3h0L110.74,1.82A3,3,0,0,1,113.56,0H115a2.83,2.83,0,0,1,2.8,1.8l42.79,93.49a3,3,0,0,1-.12,3A3.09,3.09,0,0,1,157.72,99.61ZM93,80.83h42.17l6.94,15.3c.94,1.87,1.81,2.48,3.57,2.48h12.08a2.13,2.13,0,0,0,1.86-.9,2,2,0,0,0,0-2L116.85,2.24A1.86,1.86,0,0,0,115,1h-1.39a2,2,0,0,0-1.92,1.25L68.46,95.71a2,2,0,0,0,.05,2,2.13,2.13,0,0,0,1.85.9H82.45A3.68,3.68,0,0,0,86,96.15Zm35.82-14.41H99.31l14.06-31.56h1.07Zm-27.92-1h26.37l-13.32-29.3Z"/><path class="cls-1" d="M223.42,99.61H172.59a3.15,3.15,0,0,1-3.14-3.14V4.53a3.15,3.15,0,0,1,3.14-3.14h12.78a3.23,3.23,0,0,1,3.14,3.14V81.94h34.91a3.15,3.15,0,0,1,3.14,3.14V96.47A3.15,3.15,0,0,1,223.42,99.61ZM172.59,2.39a2.14,2.14,0,0,0-2.14,2.14V96.47a2.14,2.14,0,0,0,2.14,2.14h50.83a2.14,2.14,0,0,0,2.14-2.14V85.08a2.14,2.14,0,0,0-2.14-2.14H187.51V4.53a2.22,2.22,0,0,0-2.14-2.14Z"/><path class="cls-1" d="M296.9,99.61H240.37a3.15,3.15,0,0,1-3.14-3.14V4.53a3.15,3.15,0,0,1,3.14-3.14H296.9A3.15,3.15,0,0,1,300,4.53V15.92a3.15,3.15,0,0,1-3.14,3.14H256.28V40.83h33.81A3.23,3.23,0,0,1,293.23,44V55.5a3.15,3.15,0,0,1-3.14,3.14H256.28v23.3H296.9A3.15,3.15,0,0,1,300,85.08V96.47A3.15,3.15,0,0,1,296.9,99.61ZM240.37,2.39a2.14,2.14,0,0,0-2.14,2.14V96.47a2.14,2.14,0,0,0,2.14,2.14H296.9A2.14,2.14,0,0,0,299,96.47V85.08a2.14,2.14,0,0,0-2.14-2.14H255.28V57.64h34.81a2.14,2.14,0,0,0,2.14-2.14V44a2.22,2.22,0,0,0-2.14-2.14H255.28V18.06H296.9A2.14,2.14,0,0,0,299,15.92V4.53a2.14,2.14,0,0,0-2.14-2.14Z"/><path class="cls-1" d="M394.82,101h-1.95a3.49,3.49,0,0,1-2.71-1.12L333.79,37.74V96.47a3.15,3.15,0,0,1-3.14,3.14H318a3.23,3.23,0,0,1-3.14-3.14V3A3.11,3.11,0,0,1,318,0h2.08a3.53,3.53,0,0,1,2.72,1.12l56.09,59.8V4.53A3.15,3.15,0,0,1,382,1.39h12.78A3.22,3.22,0,0,1,398,4.53V98A3.1,3.1,0,0,1,394.82,101Zm-62-64.75h1l.14.16,56.95,62.78a2.53,2.53,0,0,0,2,.81h1.95A2.1,2.1,0,0,0,397,98V4.53a2.22,2.22,0,0,0-2.13-2.14H382a2.14,2.14,0,0,0-2.14,2.14V62.39h-1l-.14-.16L322.09,1.81a2.55,2.55,0,0,0-2-.81H318a2.1,2.1,0,0,0-2.14,2V96.47A2.22,2.22,0,0,0,318,98.61h12.64a2.14,2.14,0,0,0,2.14-2.14Z"/><path class="cls-1" d="M450,99.61H437a3.23,3.23,0,0,1-3.14-3.14V19.06H413.15A3.15,3.15,0,0,1,410,15.92V4.53a3.15,3.15,0,0,1,3.14-3.14h60.69A3.14,3.14,0,0,1,477,4.53V15.92a3.14,3.14,0,0,1-3.14,3.14H453.09V96.47A3.22,3.22,0,0,1,450,99.61ZM413.15,2.39A2.14,2.14,0,0,0,411,4.53V15.92a2.14,2.14,0,0,0,2.14,2.14H434.9V96.47A2.22,2.22,0,0,0,437,98.61H450a2.22,2.22,0,0,0,2.13-2.14V18.06h21.75A2.14,2.14,0,0,0,476,15.92V4.53a2.14,2.14,0,0,0-2.14-2.14Z"/><path class="cls-1" d="M533.71,101a49.82,49.82,0,0,1-50.36-50.36A50.49,50.49,0,0,1,498,14.8,49.93,49.93,0,0,1,533.71,0a50.63,50.63,0,0,1,50.5,50.64A50.17,50.17,0,0,1,533.71,101Zm0-100a48.93,48.93,0,0,0-35,14.5,49.52,49.52,0,0,0-14.37,35.14,49.43,49.43,0,1,0,98.86,0A49.63,49.63,0,0,0,533.71,1Zm0,81.94a32.44,32.44,0,0,1,0-64.88c17.58,0,32.44,14.92,32.44,32.58A32.41,32.41,0,0,1,533.71,82.94Zm0-63.88a31.44,31.44,0,1,0,31.44,31.58C565.15,33.52,550.75,19.06,533.71,19.06Z"/></g></g></svg>