<svg xmlns="http://www.w3.org/2000/svg" viewBox="0 0 697.85 80.3"><defs><style>.cls-1{fill:#fff;}</style></defs><g id="Layer_2" data-name="Layer 2"><g id="Layer_1-2" data-name="Layer 1"><path class="cls-1" d="M30.7,19.07A28.77,28.77,0,0,1,51.28,27a1.58,1.58,0,0,1,.08,2.38l-5.18,5.36a1.37,1.37,0,0,1-2.13,0,20.09,20.09,0,0,0-13.1-5c-10.88,0-19,9.1-19,19.82s8.16,19.64,19,19.64a20.42,20.42,0,0,0,13-4.85,1.58,1.58,0,0,1,2.13,0l5.27,5.44a1.62,1.62,0,0,1-.09,2.3A29.18,29.18,0,0,1,30.7,80.3a30.62,30.62,0,1,1,0-61.23Z"/><path class="cls-1" d="M60.54,21.54a1.62,1.62,0,0,1,1.62-1.62H96.77a1.62,1.62,0,0,1,1.61,1.62v7a1.62,1.62,0,0,1-1.61,1.62H71.6V44.07h21a1.68,1.68,0,0,1,1.62,1.62v7.06a1.62,1.62,0,0,1-1.62,1.61h-21V69.24H96.77a1.62,1.62,0,0,1,1.61,1.62v7a1.62,1.62,0,0,1-1.61,1.62H62.16a1.62,1.62,0,0,1-1.62-1.62Z"/><path class="cls-1" d="M108.07,20.6a1.6,1.6,0,0,1,1.62-1.53H111a1.85,1.85,0,0,1,1.45.6l34.7,37h.17V21.54a1.62,1.62,0,0,1,1.61-1.62h7.82a1.67,1.67,0,0,1,1.62,1.62V78.77a1.6,1.6,0,0,1-1.62,1.53h-1.19a1.84,1.84,0,0,1-1.44-.6L119.21,41.27H119V77.83a1.62,1.62,0,0,1-1.61,1.62h-7.74a1.68,1.68,0,0,1-1.62-1.62Z"/><path class="cls-1" d="M181,30.13h-13a1.62,1.62,0,0,1-1.61-1.62v-7a1.62,1.62,0,0,1,1.61-1.62H205.1a1.62,1.62,0,0,1,1.61,1.62v7a1.62,1.62,0,0,1-1.61,1.62h-13v47.7a1.67,1.67,0,0,1-1.61,1.62h-7.91A1.67,1.67,0,0,1,181,77.83Z"/><path class="cls-1" d="M214.7,21.54a1.62,1.62,0,0,1,1.62-1.62h24.32a18.43,18.43,0,0,1,18.54,18.29c0,7.82-5.19,14.2-12.59,17.17L258.24,77a1.61,1.61,0,0,1-1.45,2.47h-8.92a1.45,1.45,0,0,1-1.36-.77L235.2,56.15h-9.44V77.83a1.68,1.68,0,0,1-1.62,1.62h-7.82a1.62,1.62,0,0,1-1.62-1.62Zm25,25.51a8.66,8.66,0,0,0,8.42-8.67,8.46,8.46,0,0,0-8.42-8.25H225.84V47.05Z"/><path class="cls-1" d="M296.42,19.07a30.62,30.62,0,1,1-30.53,30.7A30.56,30.56,0,0,1,296.42,19.07Zm0,50.17a19.56,19.56,0,1,0-19.48-19.47A19.6,19.6,0,0,0,296.42,69.24Z"/><path class="cls-1" d="M329.49,77.24,355.94,20a1.52,1.52,0,0,1,1.44-.94h.85a1.46,1.46,0,0,1,1.45.94l26.19,57.23a1.5,1.5,0,0,1-1.44,2.21H377a2.45,2.45,0,0,1-2.47-1.7l-4.17-9.19H345l-4.17,9.19a2.55,2.55,0,0,1-2.46,1.7h-7.4A1.5,1.5,0,0,1,329.49,77.24Zm36.74-18.12-8.51-18.7h-.25l-8.33,18.7Z"/><path class="cls-1" d="M398.79,20.35a1.44,1.44,0,0,1,1.53-1.28h1.36a1.54,1.54,0,0,1,1.45.85l18.71,40.14h.25L440.8,19.92a1.47,1.47,0,0,1,1.45-.85h1.36a1.44,1.44,0,0,1,1.53,1.28l10,57.14a1.48,1.48,0,0,1-1.53,2H445.9a1.84,1.84,0,0,1-1.61-1.28l-5-32.23H439L424.13,79.36a1.45,1.45,0,0,1-1.44.94h-1.53a1.54,1.54,0,0,1-1.45-.94l-15-33.42h-.25l-4.94,32.23a1.63,1.63,0,0,1-1.53,1.28h-7.65a1.56,1.56,0,0,1-1.62-2Z"/><path class="cls-1" d="M465,21.54a1.62,1.62,0,0,1,1.61-1.62h34.61a1.62,1.62,0,0,1,1.62,1.62v7a1.62,1.62,0,0,1-1.62,1.62H476V44.07h21a1.67,1.67,0,0,1,1.61,1.62v7.06A1.61,1.61,0,0,1,497,54.36H476V69.24h25.17a1.62,1.62,0,0,1,1.62,1.62v7a1.62,1.62,0,0,1-1.62,1.62H466.56A1.62,1.62,0,0,1,465,77.83ZM475.24,9.89,489.61.36c1.44-.93,3.57,0,4.59,2s1,4.34-.43,5L478,14.65c-.93.43-2.12-.34-2.8-1.62S474.64,10.31,475.24,9.89Z"/><path class="cls-1" d="M512.48,21.54a1.62,1.62,0,0,1,1.61-1.62h24.33A18.42,18.42,0,0,1,557,38.21c0,7.82-5.18,14.2-12.58,17.17L556,77a1.61,1.61,0,0,1-1.45,2.47h-8.93a1.47,1.47,0,0,1-1.36-.77L533,56.15h-9.44V77.83a1.67,1.67,0,0,1-1.61,1.62h-7.83a1.62,1.62,0,0,1-1.61-1.62Zm25,25.51a8.66,8.66,0,0,0,8.42-8.67,8.46,8.46,0,0,0-8.42-8.25H523.62V47.05Z"/><path class="cls-1" d="M567.15,21.54a1.68,1.68,0,0,1,1.62-1.62h7.91a1.67,1.67,0,0,1,1.61,1.62V77.83a1.67,1.67,0,0,1-1.61,1.62h-7.91a1.68,1.68,0,0,1-1.62-1.62Z"/><path class="cls-1" d="M618.51,19.07A28.77,28.77,0,0,1,639.09,27a1.58,1.58,0,0,1,.09,2.38L634,34.72a1.37,1.37,0,0,1-2.13,0,20.09,20.09,0,0,0-13.09-5c-10.89,0-19,9.1-19,19.82s8.16,19.64,19,19.64a20.4,20.4,0,0,0,13-4.85,1.58,1.58,0,0,1,2.13,0l5.27,5.44a1.63,1.63,0,0,1-.08,2.3,29.2,29.2,0,0,1-20.67,8.25,30.62,30.62,0,1,1,0-61.23Z"/><path class="cls-1" d="M641.3,77.24,667.75,20a1.52,1.52,0,0,1,1.44-.94H670a1.46,1.46,0,0,1,1.45.94l26.19,57.23a1.5,1.5,0,0,1-1.45,2.21h-7.4a2.44,2.44,0,0,1-2.46-1.7l-4.17-9.19H656.78l-4.17,9.19a2.57,2.57,0,0,1-2.47,1.7h-7.4A1.5,1.5,0,0,1,641.3,77.24ZM678,59.12l-8.51-18.7h-.25l-8.34,18.7Z"/></g></g></svg>