<svg xmlns="http://www.w3.org/2000/svg" viewBox="0 0 361.61 61.54"><defs><style>.cls-1{fill:none;stroke:#fff;stroke-miterlimit:8.95;stroke-width:0.31px;}</style></defs><g id="Layer_2" data-name="Layer 2"><g id="Layer_1-2" data-name="Layer 1"><path class="cls-1" d="M30.68,30.43c4.93,1.7,10.21,5.7,10.21,13.69,0,9.52-8.17,16.41-18.54,16.41H1.77A1.62,1.62,0,0,1,.15,58.92V2.62A1.62,1.62,0,0,1,1.77,1H21.24c10.12,0,18,6.81,18,15.74A15,15,0,0,1,30.68,30ZM20.39,26c4.34,0,7.15-3.41,7.15-7.66s-2.81-7.23-7.15-7.23H11.12V26ZM21.58,50.5a7.45,7.45,0,0,0,7.49-7.74,7.27,7.27,0,0,0-7.49-7.4H11.12V50.5Z"/><path class="cls-1" d="M44,58.32,70.48,1.09A1.52,1.52,0,0,1,71.92.15h.85a1.46,1.46,0,0,1,1.45.94l26.19,57.23A1.5,1.5,0,0,1,99,60.53H91.57a2.44,2.44,0,0,1-2.47-1.7l-4.17-9.18H59.51l-4.17,9.18a2.57,2.57,0,0,1-2.47,1.7h-7.4A1.5,1.5,0,0,1,44,58.32ZM80.77,40.21,72.26,21.5H72L63.67,40.21Z"/><path class="cls-1" d="M106.44,2.62A1.62,1.62,0,0,1,108.06,1h7.82a1.68,1.68,0,0,1,1.62,1.62V50.33h21.68a1.61,1.61,0,0,1,1.62,1.61v7a1.62,1.62,0,0,1-1.62,1.61H108.06a1.62,1.62,0,0,1-1.62-1.61Z"/><path class="cls-1" d="M140.88,58.32,167.33,1.09a1.52,1.52,0,0,1,1.44-.94h.85a1.46,1.46,0,0,1,1.45.94l26.19,57.23a1.5,1.5,0,0,1-1.45,2.21h-7.39a2.45,2.45,0,0,1-2.47-1.7l-4.17-9.18H156.36l-4.17,9.18a2.56,2.56,0,0,1-2.47,1.7h-7.39A1.5,1.5,0,0,1,140.88,58.32Zm36.74-18.11L169.11,21.5h-.25l-8.34,18.71Z"/><path class="cls-1" d="M203.29,1.68A1.6,1.6,0,0,1,204.91.15h1.27a1.85,1.85,0,0,1,1.45.6l34.7,37h.17V2.62A1.62,1.62,0,0,1,244.11,1h7.82a1.67,1.67,0,0,1,1.62,1.62V59.85a1.6,1.6,0,0,1-1.62,1.53h-1.19a1.87,1.87,0,0,1-1.44-.59L214.43,22.35h-.17V58.92a1.61,1.61,0,0,1-1.61,1.61h-7.74a1.68,1.68,0,0,1-1.62-1.61Z"/><path class="cls-1" d="M293.77.15a28.83,28.83,0,0,1,20.58,7.91,1.58,1.58,0,0,1,.08,2.38l-5.19,5.36a1.36,1.36,0,0,1-2.12,0,20.11,20.11,0,0,0-13.1-5c-10.88,0-19,9.1-19,19.82s8.16,19.64,19.05,19.64a20.36,20.36,0,0,0,13-4.85,1.56,1.56,0,0,1,2.12,0l5.28,5.45a1.61,1.61,0,0,1-.09,2.29,29.18,29.18,0,0,1-20.66,8.25,30.62,30.62,0,1,1,0-61.23Z"/><path class="cls-1" d="M323.61,2.62A1.62,1.62,0,0,1,325.23,1h34.61a1.62,1.62,0,0,1,1.61,1.62v7a1.62,1.62,0,0,1-1.61,1.62H334.67v14h21a1.67,1.67,0,0,1,1.62,1.61v7.06a1.62,1.62,0,0,1-1.62,1.61h-21V50.33h25.17a1.61,1.61,0,0,1,1.61,1.61v7a1.61,1.61,0,0,1-1.61,1.61H325.23a1.62,1.62,0,0,1-1.62-1.61Z"/></g></g></svg>