<svg xmlns="http://www.w3.org/2000/svg" viewBox="0 0 443.52 101"><defs><style>.cls-1{fill:#fff;}</style></defs><g id="Layer_2" data-name="Layer 2"><g id="Layer_1-2" data-name="Layer 1"><path class="cls-1" d="M47.45,101H46.06a3,3,0,0,1-2.81-1.8L.33,5.71a3,3,0,0,1,.11-3,3.1,3.1,0,0,1,2.7-1.36H17.31a3,3,0,0,1,2.82,1.84L46.8,62.64h.05L73.52,3.21a3,3,0,0,1,2.82-1.82H90.5a3.1,3.1,0,0,1,2.7,1.36,3,3,0,0,1,.12,3L50.26,99.18A3,3,0,0,1,47.45,101ZM3.14,2.39a2.12,2.12,0,0,0-1.85.9,2.07,2.07,0,0,0-.06,2L44.15,98.76A2,2,0,0,0,46.06,100h1.39a2,2,0,0,0,1.91-1.25L92.41,5.29a2,2,0,0,0,0-2,2.15,2.15,0,0,0-1.86-.9H76.34a2.06,2.06,0,0,0-1.9,1.21l-26.95,60H46.15l-.13-.3L19.21,3.62a2.05,2.05,0,0,0-1.9-1.23Z"/><path class="cls-1" d="M180.64,99.61H168.56c-2.45,0-3.53-1.17-4.47-3l-6.68-14.73H116.52l-6.67,14.71a4.68,4.68,0,0,1-4.48,3.07H93.28a3.07,3.07,0,0,1-2.69-1.36,3,3,0,0,1-.12-3L133.66,1.82A3,3,0,0,1,136.48,0h1.39a2.86,2.86,0,0,1,2.81,1.8l42.78,93.49a3,3,0,0,1-.12,3A3.08,3.08,0,0,1,180.64,99.61ZM115.88,80.83h42.17L165,96.13c.94,1.87,1.81,2.48,3.57,2.48h12.08a2.13,2.13,0,0,0,1.86-.9,2,2,0,0,0,.05-2L139.77,2.24A1.86,1.86,0,0,0,137.87,1h-1.39a2,2,0,0,0-1.92,1.25L91.38,95.71a2,2,0,0,0,.05,2,2.12,2.12,0,0,0,1.85.9h12.09a3.68,3.68,0,0,0,3.56-2.46ZM151.7,66.42H122.23l14.06-31.56h1.07Zm-27.92-1h26.37l-13.32-29.3Z"/><path class="cls-1" d="M246.34,99.61H195.51a3.15,3.15,0,0,1-3.14-3.14V4.53a3.15,3.15,0,0,1,3.14-3.14h12.78a3.23,3.23,0,0,1,3.14,3.14V82h34.91a3.14,3.14,0,0,1,3.14,3.13V96.47A3.15,3.15,0,0,1,246.34,99.61ZM195.51,2.39a2.14,2.14,0,0,0-2.14,2.14V96.47a2.14,2.14,0,0,0,2.14,2.14h50.83a2.14,2.14,0,0,0,2.14-2.14V85.08A2.13,2.13,0,0,0,246.34,83H210.43V4.53a2.22,2.22,0,0,0-2.14-2.14Z"/><path class="cls-1" d="M304.82,101a49.83,49.83,0,0,1-50.37-50.36A50.53,50.53,0,0,1,269.11,14.8,50,50,0,0,1,304.82,0a50.63,50.63,0,0,1,50.5,50.64A50.17,50.17,0,0,1,304.82,101Zm0-100a49,49,0,0,0-35,14.5,49.56,49.56,0,0,0-14.37,35.14,49.44,49.44,0,1,0,98.87,0A49.63,49.63,0,0,0,304.82,1Zm0,82a32.45,32.45,0,0,1,0-64.89c17.58,0,32.44,14.92,32.44,32.58A32.41,32.41,0,0,1,304.82,83Zm0-63.89a31.45,31.45,0,1,0,31.44,31.58C336.26,33.52,321.86,19.06,304.82,19.06Z"/><path class="cls-1" d="M439.13,99.61H424.54a2.86,2.86,0,0,1-2.67-1.53L403.54,61.56H388.93V96.47a3.23,3.23,0,0,1-3.14,3.14H373a3.14,3.14,0,0,1-3.13-3.14V4.53A3.14,3.14,0,0,1,373,1.39h39.73a30.61,30.61,0,0,1,30.78,30.36c0,12.25-7.79,23-20.36,28.31l18.77,34.79a3.36,3.36,0,0,1,0,3.28A3.14,3.14,0,0,1,439.13,99.61Zm-51.2-39h16.23l.14.27,18.47,36.81a1.86,1.86,0,0,0,1.77,1h14.59a2.14,2.14,0,0,0,1.94-1,2.38,2.38,0,0,0,0-2.3l-19.3-35.77.52-.21c12.49-5,20.25-15.59,20.25-27.59A29.61,29.61,0,0,0,412.74,2.39H373a2.13,2.13,0,0,0-2.13,2.14V96.47A2.13,2.13,0,0,0,373,98.61h12.78a2.22,2.22,0,0,0,2.14-2.14Zm23.28-13.87H388.07V18.06h23.14a14.31,14.31,0,0,1,14.25,14C425.46,40,418.93,46.69,411.21,46.69Zm-22.14-1h22.14c7.18,0,13.25-6.25,13.25-13.66a13.29,13.29,0,0,0-13.25-13H389.07Z"/></g></g></svg>