<svg xmlns="http://www.w3.org/2000/svg" viewBox="0 0 979.5 101"><defs><style>.cls-1{fill:#fff;}</style></defs><g id="Layer_2" data-name="Layer 2"><g id="Layer_1-2" data-name="Layer 1"><path class="cls-1" d="M50.36,101A49.82,49.82,0,0,1,0,50.64,50.53,50.53,0,0,1,14.66,14.8,49.93,49.93,0,0,1,50.36,0a50.63,50.63,0,0,1,50.5,50.64A50.17,50.17,0,0,1,50.36,101Zm0-100a48.93,48.93,0,0,0-35,14.5A49.52,49.52,0,0,0,1,50.64,48.83,48.83,0,0,0,50.36,100a49.5,49.5,0,1,0,0-99Zm0,81.94a32.44,32.44,0,0,1,0-64.88C68,18.06,82.8,33,82.8,50.64A32.41,32.41,0,0,1,50.36,82.94Zm0-63.88A31.44,31.44,0,1,0,81.8,50.64C81.8,33.52,67.41,19.06,50.36,19.06Z"/><path class="cls-1" d="M131.34,99.61H118.56a3.15,3.15,0,0,1-3.14-3.14V4.53a3.15,3.15,0,0,1,3.14-3.14H151.2a31.47,31.47,0,1,1,.14,62.94H134.48V96.47A3.23,3.23,0,0,1,131.34,99.61ZM118.56,2.39a2.14,2.14,0,0,0-2.14,2.14V96.47a2.14,2.14,0,0,0,2.14,2.14h12.78a2.22,2.22,0,0,0,2.14-2.14V63.33h17.86a30.47,30.47,0,1,0-.14-60.94Zm32.08,45H133.48V18.47h17.16c8.13,0,14.25,6,14.25,14C164.89,41,158.77,47.39,150.64,47.39Zm-16.16-1h16.16c7.56,0,13.25-6,13.25-14,0-7.39-5.69-13-13.25-13H134.48Z"/><path class="cls-1" d="M239.53,101a49.82,49.82,0,0,1-50.36-50.36A50.53,50.53,0,0,1,203.83,14.8,49.93,49.93,0,0,1,239.53,0,50.63,50.63,0,0,1,290,50.64,50.17,50.17,0,0,1,239.53,101Zm0-100a48.93,48.93,0,0,0-35,14.5,49.56,49.56,0,0,0-14.37,35.14,49.43,49.43,0,1,0,98.86,0A49.62,49.62,0,0,0,239.53,1Zm0,81.94A32.44,32.44,0,1,1,272,50.64,32.34,32.34,0,0,1,239.53,82.94Zm0-63.88A31.44,31.44,0,1,0,271,50.64C271,33.52,256.58,19.06,239.53,19.06Z"/><path class="cls-1" d="M373.84,99.61H359.26a2.86,2.86,0,0,1-2.67-1.53L338.26,61.56H323.65V96.47a3.23,3.23,0,0,1-3.14,3.14H307.73a3.15,3.15,0,0,1-3.14-3.14V4.53a3.15,3.15,0,0,1,3.14-3.14h39.72a30.61,30.61,0,0,1,30.78,30.36c0,12.25-7.78,23-20.35,28.31l18.76,34.79a3.31,3.31,0,0,1,0,3.28A3.14,3.14,0,0,1,373.84,99.61Zm-51.19-39h16.22l.14.27,18.48,36.81a1.86,1.86,0,0,0,1.77,1h14.58a2.17,2.17,0,0,0,2-1,2.36,2.36,0,0,0,0-2.3L356.47,59.55l.52-.21c12.49-5,20.24-15.59,20.24-27.59A29.61,29.61,0,0,0,347.45,2.39H307.73a2.14,2.14,0,0,0-2.14,2.14V96.47a2.14,2.14,0,0,0,2.14,2.14h12.78a2.22,2.22,0,0,0,2.14-2.14Zm23.28-13.87H322.79V18.06h23.14a14.3,14.3,0,0,1,14.25,14C360.18,40,353.65,46.69,345.93,46.69Zm-22.14-1h22.14c7.18,0,13.25-6.25,13.25-13.66a13.29,13.29,0,0,0-13.25-13H323.79Z"/><path class="cls-1" d="M425.65,99.61H412.73a3.23,3.23,0,0,1-3.14-3.14V19.06H388.84a3.14,3.14,0,0,1-3.13-3.14V4.53a3.14,3.14,0,0,1,3.13-3.14h60.7a3.15,3.15,0,0,1,3.14,3.14V15.92a3.15,3.15,0,0,1-3.14,3.14H428.79V96.47A3.23,3.23,0,0,1,425.65,99.61ZM388.84,2.39a2.14,2.14,0,0,0-2.13,2.14V15.92a2.14,2.14,0,0,0,2.13,2.14h21.75V96.47a2.22,2.22,0,0,0,2.14,2.14h12.92a2.22,2.22,0,0,0,2.14-2.14V18.06h21.75a2.14,2.14,0,0,0,2.14-2.14V4.53a2.14,2.14,0,0,0-2.14-2.14Z"/><path class="cls-1" d="M502.88,101c-22.3,0-39.12-16.16-39.12-37.58V4.53a3.23,3.23,0,0,1,3.14-3.14h13.2a3.15,3.15,0,0,1,3.14,3.14V62.44c0,11.67,7.89,19.5,19.64,19.5s19.77-8,19.77-19.36v-58a3.15,3.15,0,0,1,3.14-3.14H539a3.22,3.22,0,0,1,3.13,3.14V63.42C542.12,84.84,525.25,101,502.88,101Zm-36-98.61a2.22,2.22,0,0,0-2.14,2.14V63.42c0,20.85,16.39,36.58,38.12,36.58s38.24-15.73,38.24-36.58V4.53A2.22,2.22,0,0,0,539,2.39h-13.2a2.14,2.14,0,0,0-2.14,2.14V62.58c0,12-8.54,20.36-20.77,20.36s-20.64-8.23-20.64-20.5V4.53a2.14,2.14,0,0,0-2.14-2.14Z"/><path class="cls-1" d="M641.35,101h-1.94a3.52,3.52,0,0,1-2.72-1.12L580.32,37.74V96.47a3.14,3.14,0,0,1-3.14,3.14H564.54a3.22,3.22,0,0,1-3.13-3.14V3a3.1,3.1,0,0,1,3.13-3h2.09a3.49,3.49,0,0,1,2.71,1.12l56.09,59.8V4.53a3.15,3.15,0,0,1,3.14-3.14h12.78a3.23,3.23,0,0,1,3.14,3.14V98A3.11,3.11,0,0,1,641.35,101Zm-62-64.75h1l.15.16,56.95,62.78a2.5,2.5,0,0,0,2,.81h1.94a2.1,2.1,0,0,0,2.14-2V4.53a2.22,2.22,0,0,0-2.14-2.14H628.57a2.14,2.14,0,0,0-2.14,2.14V62.39h-1l-.15-.16L568.62,1.81a2.53,2.53,0,0,0-2-.81h-2.09a2.1,2.1,0,0,0-2.13,2V96.47a2.22,2.22,0,0,0,2.13,2.14h12.64a2.14,2.14,0,0,0,2.14-2.14Z"/><path class="cls-1" d="M680.8,99.61H667.88a3.23,3.23,0,0,1-3.14-3.14V4.53a3.23,3.23,0,0,1,3.14-3.14H680.8a3.23,3.23,0,0,1,3.14,3.14V96.47A3.23,3.23,0,0,1,680.8,99.61ZM667.88,2.39a2.22,2.22,0,0,0-2.14,2.14V96.47a2.22,2.22,0,0,0,2.14,2.14H680.8a2.22,2.22,0,0,0,2.14-2.14V4.53a2.22,2.22,0,0,0-2.14-2.14Z"/><path class="cls-1" d="M740.1,99.61H707.19a3.11,3.11,0,0,1-3-3.14V4.53a3.11,3.11,0,0,1,3-3.14H740.1a49.11,49.11,0,1,1,0,98.22ZM707.19,2.39a2.1,2.1,0,0,0-2,2.14V96.47a2.1,2.1,0,0,0,2,2.14H740.1a48.11,48.11,0,1,0,0-96.22Zm31.25,80.28H722.1V18.2h16.34c18.69,0,31.75,13.22,31.75,32.16S757.13,82.67,738.44,82.67Zm-15.34-1h15.34c18.1,0,30.75-12.88,30.75-31.31S756.54,19.2,738.44,19.2H723.1Z"/><path class="cls-1" d="M882.61,99.61H870.52c-2.45,0-3.53-1.17-4.47-3l-6.68-14.73H818.48l-6.67,14.71a4.68,4.68,0,0,1-4.48,3.07H795.25a3.08,3.08,0,0,1-2.7-1.36,3,3,0,0,1-.12-3h0L835.62,1.82A3,3,0,0,1,838.44,0h1.39a2.86,2.86,0,0,1,2.81,1.8l42.78,93.49a3,3,0,0,1-.12,3A3.07,3.07,0,0,1,882.61,99.61ZM817.84,80.83H860L867,96.13c.94,1.87,1.81,2.48,3.57,2.48h12.09a2.12,2.12,0,0,0,1.85-.9,2,2,0,0,0,0-2L841.73,2.24A1.85,1.85,0,0,0,839.83,1h-1.39a2,2,0,0,0-1.91,1.25L793.34,95.71a2,2,0,0,0,0,2,2.13,2.13,0,0,0,1.86.9h12.08a3.68,3.68,0,0,0,3.56-2.46Zm35.82-14.41H824.2l14.06-31.56h1.06Zm-27.92-1h26.37l-13.32-29.3Z"/><path class="cls-1" d="M930.25,99.61H897.33a3.12,3.12,0,0,1-3-3.14V4.53a3.12,3.12,0,0,1,3-3.14h32.92a49.11,49.11,0,1,1,0,98.22ZM897.33,2.39a2.1,2.1,0,0,0-2,2.14V96.47a2.1,2.1,0,0,0,2,2.14h32.92a48.11,48.11,0,1,0,0-96.22Zm31.25,80.28H912.25V18.2h16.33c18.7,0,31.75,13.22,31.75,32.16S947.28,82.67,928.58,82.67Zm-15.33-1h15.33c18.11,0,30.75-12.88,30.75-31.31S946.69,19.2,928.58,19.2H913.25Z"/></g></g></svg>