<svg xmlns="http://www.w3.org/2000/svg" viewBox="0 0 860.19 101"><defs><style>.cls-1{fill:#fff;}</style></defs><g id="Layer_2" data-name="Layer 2"><g id="Layer_1-2" data-name="Layer 1"><path class="cls-1" d="M35.92,99.61H3a3.11,3.11,0,0,1-3-3.14V4.53A3.11,3.11,0,0,1,3,1.39H35.92a49.11,49.11,0,1,1,0,98.22ZM3,2.39A2.1,2.1,0,0,0,1,4.53V96.47a2.1,2.1,0,0,0,2,2.14H35.92a48.11,48.11,0,1,0,0-96.22ZM34.25,82.67H17.92V18.2H34.25C52.94,18.2,66,31.42,66,50.36S52.94,82.67,34.25,82.67Zm-15.33-1H34.25C52.36,81.67,65,68.79,65,50.36S52.36,19.2,34.25,19.2H18.92Z"/><path class="cls-1" d="M159.39,99.61H102.86a3.15,3.15,0,0,1-3.14-3.14V4.53a3.15,3.15,0,0,1,3.14-3.14h56.53a3.15,3.15,0,0,1,3.14,3.14V15.92a3.15,3.15,0,0,1-3.14,3.14H118.78V40.83h33.8A3.22,3.22,0,0,1,155.72,44V55.5a3.14,3.14,0,0,1-3.14,3.14h-33.8V82h40.61a3.14,3.14,0,0,1,3.14,3.13V96.47A3.15,3.15,0,0,1,159.39,99.61ZM102.86,2.39a2.14,2.14,0,0,0-2.14,2.14V96.47a2.14,2.14,0,0,0,2.14,2.14h56.53a2.14,2.14,0,0,0,2.14-2.14V85.08A2.13,2.13,0,0,0,159.39,83H117.78V57.64h34.8a2.14,2.14,0,0,0,2.14-2.14V44a2.22,2.22,0,0,0-2.14-2.14h-34.8V18.06h41.61a2.14,2.14,0,0,0,2.14-2.14V4.53a2.14,2.14,0,0,0-2.14-2.14Z"/><path class="cls-1" d="M204.39,101c-18.16,0-27.39-8-30.87-11-1.61-1.28-2.17-2.38-.81-4.79l5-8.62a3.61,3.61,0,0,1,2.45-1.79,3.82,3.82,0,0,1,3,.67C189.1,80,195.14,84,203.84,84c6.8,0,12.14-4.48,12.14-10.2,0-6.44-5.19-11.28-17.33-16.2C187.31,53,172.23,44.9,172.23,27.17,172.23,14.08,182.16,0,204,0c14.79,0,26,7.84,28.07,9.41a3.38,3.38,0,0,1,1.47,2.25,3.93,3.93,0,0,1-.52,3l-5.27,7.9c-1.24,1.85-3.61,3.11-5.56,1.81l-1-.64c-5.63-3.56-11-6.92-18-6.92-8.1,0-11.72,4.64-11.72,9.23,0,6.06,4.66,10.44,16.08,15.09C222,47,236.84,55.33,236.84,73,236.84,86.57,225.47,101,204.39,101ZM180.91,75.78a3.31,3.31,0,0,0-.55,0,2.59,2.59,0,0,0-1.78,1.31l-5,8.61c-1.09,1.93-.71,2.5.57,3.53h0c3.4,2.93,12.43,10.71,30.23,10.71,20.43,0,31.45-13.91,31.45-27,0-17.08-14.52-25.22-28.72-30.92-11.86-4.84-16.7-9.48-16.7-16,0-5.09,3.93-10.23,12.72-10.23,7.35,0,12.78,3.44,18.54,7.07l1,.65c1.43.95,3.22-.08,4.18-1.52l5.28-7.92a2.88,2.88,0,0,0,.37-2.24,2.46,2.46,0,0,0-1-1.63C229.41,8.67,218.45,1,204,1c-14.81,0-30.75,8.19-30.75,26.17C173.23,44.29,188,52.23,199,56.7c12.59,5.1,18,10.22,18,17.13,0,6.28-5.77,11.2-13.14,11.2-9,0-15.2-4.12-21.28-8.71A2.68,2.68,0,0,0,180.91,75.78Z"/><path class="cls-1" d="M329.4,99.61H317.31c-2.45,0-3.53-1.17-4.47-3l-6.68-14.73H265.27L258.6,96.54a4.68,4.68,0,0,1-4.48,3.07H242a3.08,3.08,0,0,1-2.7-1.36,3,3,0,0,1-.12-3L282.41,1.82A3,3,0,0,1,285.23,0h1.39a2.86,2.86,0,0,1,2.81,1.8l42.78,93.49a3,3,0,0,1-.12,3A3.07,3.07,0,0,1,329.4,99.61ZM264.63,80.83H306.8l6.94,15.3c.94,1.87,1.81,2.48,3.57,2.48H329.4a2.13,2.13,0,0,0,1.85-.9,2,2,0,0,0,.05-2L288.52,2.24A1.85,1.85,0,0,0,286.62,1h-1.39a2,2,0,0,0-1.92,1.25L240.13,95.71a2,2,0,0,0,.05,2,2.13,2.13,0,0,0,1.86.9h12.08a3.68,3.68,0,0,0,3.56-2.46Zm35.82-14.41H271L285,34.86h1.07Zm-27.92-1H298.9l-13.32-29.3Z"/><path class="cls-1" d="M410.37,99.61H395.79a2.86,2.86,0,0,1-2.67-1.53L374.79,61.56H360.18V96.47A3.23,3.23,0,0,1,357,99.61H344.26a3.15,3.15,0,0,1-3.14-3.14V4.53a3.15,3.15,0,0,1,3.14-3.14H384a30.61,30.61,0,0,1,30.78,30.36c0,12.25-7.78,23-20.35,28.31l18.76,34.79a3.31,3.31,0,0,1,0,3.28A3.14,3.14,0,0,1,410.37,99.61Zm-51.19-39H375.4l.14.27L394,97.64a1.88,1.88,0,0,0,1.78,1h14.58a2.14,2.14,0,0,0,1.94-1,2.33,2.33,0,0,0,0-2.3L393,59.55l.52-.21c12.48-5,20.24-15.59,20.24-27.59A29.61,29.61,0,0,0,384,2.39H344.26a2.14,2.14,0,0,0-2.14,2.14V96.47a2.14,2.14,0,0,0,2.14,2.14H357a2.22,2.22,0,0,0,2.14-2.14Zm23.28-13.87H359.32V18.06h23.14a14.31,14.31,0,0,1,14.25,14C396.71,40,390.18,46.69,382.46,46.69Zm-22.14-1h22.14c7.18,0,13.25-6.25,13.25-13.66a13.29,13.29,0,0,0-13.25-13H360.32Z"/><path class="cls-1" d="M499.68,99.61H485.1a2.86,2.86,0,0,1-2.67-1.53L464.09,61.56h-14.6V96.47a3.23,3.23,0,0,1-3.14,3.14H433.57a3.15,3.15,0,0,1-3.14-3.14V4.53a3.15,3.15,0,0,1,3.14-3.14h39.72a30.61,30.61,0,0,1,30.78,30.36c0,12.25-7.78,23-20.35,28.31l18.76,34.79a3.35,3.35,0,0,1,0,3.29A3.16,3.16,0,0,1,499.68,99.61Zm-51.19-39h16.22l.14.27,18.47,36.81a1.88,1.88,0,0,0,1.78,1h14.58a2.14,2.14,0,0,0,1.94-1,2.33,2.33,0,0,0,0-2.3L482.31,59.55l.52-.21c12.48-5,20.24-15.59,20.24-27.59A29.61,29.61,0,0,0,473.29,2.39H433.57a2.14,2.14,0,0,0-2.14,2.14V96.47a2.14,2.14,0,0,0,2.14,2.14h12.78a2.22,2.22,0,0,0,2.14-2.14Zm23.27-13.87H448.62V18.06h23.14A14.3,14.3,0,0,1,486,32C486,40,479.49,46.69,471.76,46.69Zm-22.14-1h22.14C479,45.69,485,39.44,485,32a13.28,13.28,0,0,0-13.25-13H449.62Z"/><path class="cls-1" d="M564.4,101A49.82,49.82,0,0,1,514,50.64,50.53,50.53,0,0,1,528.7,14.8,49.93,49.93,0,0,1,564.4,0a50.63,50.63,0,0,1,50.5,50.64A50.17,50.17,0,0,1,564.4,101Zm0-100a48.93,48.93,0,0,0-35,14.5A49.56,49.56,0,0,0,515,50.64a49.43,49.43,0,1,0,98.86,0A49.62,49.62,0,0,0,564.4,1Zm0,82a32.45,32.45,0,1,1,32.45-32.31A32.35,32.35,0,0,1,564.4,83Zm0-63.89a31.45,31.45,0,1,0,31.45,31.58C595.85,33.52,581.45,19.06,564.4,19.06Z"/><path class="cls-1" d="M683.44,99.61H632.6a3.15,3.15,0,0,1-3.14-3.14V4.53a3.15,3.15,0,0,1,3.14-3.14h12.78a3.23,3.23,0,0,1,3.14,3.14V82h34.92a3.13,3.13,0,0,1,3.13,3.13V96.47A3.14,3.14,0,0,1,683.44,99.61ZM632.6,2.39a2.14,2.14,0,0,0-2.14,2.14V96.47a2.14,2.14,0,0,0,2.14,2.14h50.84a2.13,2.13,0,0,0,2.13-2.14V85.08A2.13,2.13,0,0,0,683.44,83H647.52V4.53a2.22,2.22,0,0,0-2.14-2.14Z"/><path class="cls-1" d="M751.21,99.61H700.38a3.15,3.15,0,0,1-3.14-3.14V4.53a3.15,3.15,0,0,1,3.14-3.14h12.78a3.23,3.23,0,0,1,3.14,3.14V82h34.91a3.13,3.13,0,0,1,3.14,3.13V96.47A3.14,3.14,0,0,1,751.21,99.61ZM700.38,2.39a2.14,2.14,0,0,0-2.14,2.14V96.47a2.14,2.14,0,0,0,2.14,2.14h50.83a2.14,2.14,0,0,0,2.14-2.14V85.08A2.13,2.13,0,0,0,751.21,83H715.3V4.53a2.22,2.22,0,0,0-2.14-2.14Z"/><path class="cls-1" d="M809.69,101a49.82,49.82,0,0,1-50.36-50.36A50.49,50.49,0,0,1,774,14.8,49.93,49.93,0,0,1,809.69,0a50.63,50.63,0,0,1,50.5,50.64A50.17,50.17,0,0,1,809.69,101Zm0-100a48.93,48.93,0,0,0-35,14.5,49.52,49.52,0,0,0-14.37,35.14,49.43,49.43,0,1,0,98.86,0A49.63,49.63,0,0,0,809.69,1Zm0,82a32.45,32.45,0,1,1,32.44-32.31A32.35,32.35,0,0,1,809.69,83Zm0-63.89a31.45,31.45,0,1,0,31.44,31.58C841.13,33.52,826.73,19.06,809.69,19.06Z"/></g></g></svg>