<svg xmlns="http://www.w3.org/2000/svg" viewBox="0 0 583.21 100"><defs><style>.cls-1{fill:#fff;}</style></defs><g id="Layer_2" data-name="Layer 2"><g id="Layer_1-2" data-name="Layer 1"><path class="cls-1" d="M23.89,18.06H2.64A2.64,2.64,0,0,1,0,15.42V4A2.64,2.64,0,0,1,2.64,1.39H63.33A2.64,2.64,0,0,1,66,4V15.42a2.64,2.64,0,0,1-2.64,2.64H42.08V96a2.73,2.73,0,0,1-2.64,2.64H26.53A2.73,2.73,0,0,1,23.89,96Z"/><path class="cls-1" d="M67.5,95,110.7,1.53A2.48,2.48,0,0,1,113.06,0h1.39a2.35,2.35,0,0,1,2.36,1.53L159.59,95a2.45,2.45,0,0,1-2.37,3.61H145.14c-2.08,0-3-.83-4-2.78l-6.8-15H92.78L86,95.83a4.17,4.17,0,0,1-4,2.78H69.86A2.45,2.45,0,0,1,67.5,95Zm60-29.58L113.61,34.86h-.41L99.59,65.42Z"/><path class="cls-1" d="M169.45,4a2.64,2.64,0,0,1,2.64-2.64h12.78A2.73,2.73,0,0,1,187.51,4V81.94h35.41a2.64,2.64,0,0,1,2.64,2.64V96a2.64,2.64,0,0,1-2.64,2.64H172.09A2.64,2.64,0,0,1,169.45,96Z"/><path class="cls-1" d="M237.23,4a2.64,2.64,0,0,1,2.64-2.64H296.4A2.64,2.64,0,0,1,299,4V15.42a2.64,2.64,0,0,1-2.64,2.64H255.28V40.83h34.31a2.73,2.73,0,0,1,2.64,2.64V55a2.64,2.64,0,0,1-2.64,2.64H255.28v24.3H296.4A2.64,2.64,0,0,1,299,84.58V96a2.64,2.64,0,0,1-2.64,2.64H239.87A2.64,2.64,0,0,1,237.23,96Z"/><path class="cls-1" d="M314.87,2.5A2.61,2.61,0,0,1,317.51,0h2.08A3.05,3.05,0,0,1,322,1l56.67,60.42h.28V4a2.64,2.64,0,0,1,2.64-2.64h12.78A2.73,2.73,0,0,1,397,4V97.5a2.61,2.61,0,0,1-2.63,2.5h-1.95A3.05,3.05,0,0,1,390,99L333.06,36.25h-.27V96a2.64,2.64,0,0,1-2.64,2.64H317.51A2.73,2.73,0,0,1,314.87,96Z"/><path class="cls-1" d="M433.9,18.06H412.65A2.64,2.64,0,0,1,410,15.42V4a2.64,2.64,0,0,1,2.64-2.64h60.7A2.63,2.63,0,0,1,476,4V15.42a2.63,2.63,0,0,1-2.63,2.64H452.1V96a2.73,2.73,0,0,1-2.64,2.64H436.54A2.73,2.73,0,0,1,433.9,96Z"/><path class="cls-1" d="M533.21,0a50,50,0,1,1,0,100,49.55,49.55,0,0,1-49.86-49.86A49.79,49.79,0,0,1,533.21,0Zm0,81.94a31.94,31.94,0,1,0,0-63.88c-17.5,0-31.81,14.58-31.81,32.08A31.89,31.89,0,0,0,533.21,81.94Z"/></g></g></svg>