<svg xmlns="http://www.w3.org/2000/svg" viewBox="0 0 537.57 100"><defs><style>.cls-1{fill:#fff;}</style></defs><g id="Layer_2" data-name="Layer 2"><g id="Layer_1-2" data-name="Layer 1"><path class="cls-1" d="M0,26.82a2.08,2.08,0,0,1,2-2h9.85a2.08,2.08,0,0,1,2,2V96.93a2.08,2.08,0,0,1-2,2H2a2.08,2.08,0,0,1-2-2Z"/><path class="cls-1" d="M30.08,25.66a2,2,0,0,1,2-1.91h1.59a2.32,2.32,0,0,1,1.8.74L78.69,70.56h.21V26.82a2,2,0,0,1,2-2h9.74a2.08,2.08,0,0,1,2,2V98.09a2,2,0,0,1-2,1.91H89.17a2.32,2.32,0,0,1-1.8-.74L44,51.39h-.21V96.93a2,2,0,0,1-2,2H32.09a2.08,2.08,0,0,1-2-2Z"/><path class="cls-1" d="M142.76,23.75c10.69,0,18.42,3.39,25.63,9.85a2,2,0,0,1,.1,3L162,43.24a1.71,1.71,0,0,1-2.65,0A25,25,0,0,0,143.07,37c-13.55,0-23.61,11.33-23.61,24.67s10.17,24.47,23.72,24.47a25.39,25.39,0,0,0,16.2-6,2,2,0,0,1,2.65,0l6.57,6.78a2,2,0,0,1-.11,2.86A36.34,36.34,0,0,1,142.76,100a38.13,38.13,0,1,1,0-76.25Z"/><path class="cls-1" d="M179.93,26.82a2,2,0,0,1,2-2h9.75a2.08,2.08,0,0,1,2,2V86.23h27a2,2,0,0,1,2,2v8.69a2,2,0,0,1-2,2H181.94a2,2,0,0,1-2-2Z"/><path class="cls-1" d="M230.87,26.82a2.08,2.08,0,0,1,2-2h10.06a2,2,0,0,1,2,2V71c0,9,6.14,15.25,15.35,15.25S275.77,80,275.77,71.09V26.82a2,2,0,0,1,2-2h10.07a2.08,2.08,0,0,1,2,2v44.9c0,16.1-12.82,28.28-29.55,28.28s-29.44-12.18-29.44-28.28Z"/><path class="cls-1" d="M302.25,91.74c-1.06-.85-1.48-1.48-.53-3.18L305.53,82a2.44,2.44,0,0,1,3.6-.74c4.35,3.28,9.11,6.56,16,6.56,5.5,0,9.63-3.6,9.63-8.15,0-5.4-4.55-9.11-13.45-12.71-9.95-4-19.91-10.38-19.91-22.88,0-9.42,7-20.33,23.83-20.33a37.28,37.28,0,0,1,21.18,7.1,2.62,2.62,0,0,1,.64,3.49l-4,6c-.84,1.27-2.43,2.12-3.7,1.27-4.56-2.86-8.9-5.83-14.72-5.83-6,0-9.32,3.39-9.32,7.42,0,5,3.91,8.36,12.49,11.86,10.28,4.13,22.14,10.27,22.14,23.93,0,10.91-9.43,21-24.36,21C312.21,100,305.32,94.39,302.25,91.74Z"/><path class="cls-1" d="M361.24,26.82a2.08,2.08,0,0,1,2-2h9.85a2.08,2.08,0,0,1,2,2V96.93a2.08,2.08,0,0,1-2,2h-9.85a2.08,2.08,0,0,1-2-2Z"/><path class="cls-1" d="M425,23.75A38.13,38.13,0,1,1,387,62,38.06,38.06,0,0,1,425,23.75Zm0,62.48A24.36,24.36,0,1,0,400.74,62,24.4,24.4,0,0,0,425,86.23ZM413.66,12.31,431.56.45c1.8-1.16,4.45,0,5.72,2.54s1.27,5.41-.53,6.25l-19.59,9c-1.17.53-2.65-.42-3.5-2S412.92,12.84,413.66,12.31Z"/><path class="cls-1" d="M475,25.66a2,2,0,0,1,2-1.91h1.59a2.32,2.32,0,0,1,1.8.74l43.21,46.07h.21V26.82a2,2,0,0,1,2-2h9.75a2.08,2.08,0,0,1,2,2V98.09a2,2,0,0,1-2,1.91h-1.49a2.32,2.32,0,0,1-1.8-.74L488.85,51.39h-.21V96.93a2,2,0,0,1-2,2H477a2.08,2.08,0,0,1-2-2Z"/></g></g></svg>