<svg xmlns="http://www.w3.org/2000/svg" viewBox="0 0 870.16 101"><defs><style>.cls-1{fill:#fff;}</style></defs><g id="Layer_2" data-name="Layer 2"><g id="Layer_1-2" data-name="Layer 1"><path class="cls-1" d="M38.73,101a38.63,38.63,0,1,1,0-77.25c10.27,0,18.27,3.08,26,10a2.53,2.53,0,0,1,.9,1.83,2.55,2.55,0,0,1-.77,1.86l-6.46,6.66a2.15,2.15,0,0,1-1.57.79A2.47,2.47,0,0,1,55,44.09a24.49,24.49,0,0,0-16-6.1c-13,0-23.12,10.62-23.12,24.17s10.2,24,23.22,24A24.85,24.85,0,0,0,55,80.2a2.45,2.45,0,0,1,3.32,0L64.93,87a2.12,2.12,0,0,1,.69,1.54,2.82,2.82,0,0,1-.8,2A36.71,36.71,0,0,1,38.73,101Zm0-76.25a37.63,37.63,0,1,0,0,75.25A35.71,35.71,0,0,0,64.12,89.87a1.82,1.82,0,0,0,.5-1.28,1.16,1.16,0,0,0-.38-.85l-6.6-6.8a1.44,1.44,0,0,0-2,0,25.86,25.86,0,0,1-16.54,6.16c-13.58,0-24.22-11-24.22-25S25.53,37,39.05,37a25.55,25.55,0,0,1,16.64,6.37,1.46,1.46,0,0,0,1.06.51,1.24,1.24,0,0,0,.88-.46l6.48-6.69a1.58,1.58,0,0,0,.48-1.13A1.6,1.6,0,0,0,64,34.47C56.53,27.75,48.73,24.75,38.73,24.75Z"/><path class="cls-1" d="M121,99.94H77.92a2.52,2.52,0,0,1-2.52-2.51V27.32a2.52,2.52,0,0,1,2.52-2.51H121a2.52,2.52,0,0,1,2.51,2.51V36A2.52,2.52,0,0,1,121,38.52H90.17V54.89h25.66a2.57,2.57,0,0,1,2.51,2.51v8.79a2.52,2.52,0,0,1-2.51,2.51H90.17V86.23H121a2.52,2.52,0,0,1,2.51,2.51v8.69A2.52,2.52,0,0,1,121,99.94ZM77.92,25.81a1.52,1.52,0,0,0-1.52,1.51V97.43a1.52,1.52,0,0,0,1.52,1.51H121a1.51,1.51,0,0,0,1.51-1.51V88.74A1.52,1.52,0,0,0,121,87.23H89.17V67.7h26.66a1.51,1.51,0,0,0,1.51-1.51V57.4a1.58,1.58,0,0,0-1.51-1.51H89.17V37.52H121A1.52,1.52,0,0,0,122.53,36V27.32A1.51,1.51,0,0,0,121,25.81Z"/><path class="cls-1" d="M195.68,101H194.2a2.83,2.83,0,0,1-2.16-.89L149.27,53V97.43a2.52,2.52,0,0,1-2.52,2.51h-9.63a2.58,2.58,0,0,1-2.52-2.51V26.16a2.49,2.49,0,0,1,2.52-2.41h1.59a2.83,2.83,0,0,1,2.15.89L183.42,70V27.32a2.52,2.52,0,0,1,2.52-2.51h9.74a2.57,2.57,0,0,1,2.51,2.51V98.59A2.49,2.49,0,0,1,195.68,101ZM148.27,51.39h.93l.15.16,43.42,47.87a1.82,1.82,0,0,0,1.43.58h1.48a1.5,1.5,0,0,0,1.51-1.41V27.32a1.58,1.58,0,0,0-1.51-1.51h-9.74a1.52,1.52,0,0,0-1.52,1.51V71.56h-.92l-.15-.16L140.14,25.33a1.84,1.84,0,0,0-1.43-.58h-1.59a1.51,1.51,0,0,0-1.52,1.41V97.43a1.59,1.59,0,0,0,1.52,1.51h9.63a1.52,1.52,0,0,0,1.52-1.51Z"/><path class="cls-1" d="M237.72,99.94h-9.84a2.58,2.58,0,0,1-2.52-2.51V38.52h-15.7A2.52,2.52,0,0,1,207.15,36V27.32a2.52,2.52,0,0,1,2.51-2.51h46.28a2.51,2.51,0,0,1,2.51,2.51V36a2.51,2.51,0,0,1-2.51,2.51h-15.7V97.43A2.58,2.58,0,0,1,237.72,99.94ZM209.66,25.81a1.51,1.51,0,0,0-1.51,1.51V36a1.52,1.52,0,0,0,1.51,1.51h16.7V97.43a1.59,1.59,0,0,0,1.52,1.51h9.84a1.59,1.59,0,0,0,1.52-1.51V37.52h16.7A1.52,1.52,0,0,0,257.45,36V27.32a1.51,1.51,0,0,0-1.51-1.51Z"/><path class="cls-1" d="M320.33,99.94H309.21a2.28,2.28,0,0,1-2.14-1.23L293.12,70.92H282.17V97.43a2.57,2.57,0,0,1-2.51,2.51h-9.74a2.51,2.51,0,0,1-2.51-2.51V27.32a2.51,2.51,0,0,1,2.51-2.51h30.29a23.46,23.46,0,0,1,23.58,23.27c0,9.34-5.91,17.59-15.47,21.64l14.25,26.41a2.68,2.68,0,0,1,0,2.63A2.53,2.53,0,0,1,320.33,99.94Zm-39.16-30h12.57L308,98.26a1.32,1.32,0,0,0,1.25.68h11.12a1.53,1.53,0,0,0,1.38-.7,1.66,1.66,0,0,0,0-1.63L306.91,69.22l.52-.21c9.48-3.81,15.36-11.83,15.36-20.93a22.45,22.45,0,0,0-22.58-22.27H269.92a1.51,1.51,0,0,0-1.51,1.51V97.43a1.51,1.51,0,0,0,1.51,1.51h9.74a1.58,1.58,0,0,0,1.51-1.51ZM299,59.59H281.28V37.52H299a11,11,0,0,1,11,10.77A11.29,11.29,0,0,1,299,59.59Zm-16.76-1H299a10.29,10.29,0,0,0,10-10.3,10,10,0,0,0-10-9.77H282.28Z"/><path class="cls-1" d="M369.68,101a38.11,38.11,0,0,1-38.52-38.52,38.57,38.57,0,1,1,77.14,0A38.16,38.16,0,0,1,369.68,101Zm0-76.25a37.67,37.67,0,0,0-37.52,37.73,37.57,37.57,0,0,0,75.14,0A37.72,37.72,0,0,0,369.68,24.75Zm0,62.48a24.86,24.86,0,1,1,24.86-24.75A24.77,24.77,0,0,1,369.68,87.23Zm0-48.71a23.86,23.86,0,1,0,23.86,24A24.23,24.23,0,0,0,369.68,38.52Z"/><path class="cls-1" d="M479.29,99.94h-9.21c-1.93,0-2.78-.92-3.52-2.39L461.5,86.38h-31l-5.06,11.15a3.67,3.67,0,0,1-3.53,2.41h-9.21a2.5,2.5,0,0,1-2.16-1.09,2.45,2.45,0,0,1-.1-2.37h0l32.94-71.27a2.4,2.4,0,0,1,2.25-1.46h1.06a2.3,2.3,0,0,1,2.25,1.44l32.63,71.29a2.45,2.45,0,0,1-.1,2.37A2.5,2.5,0,0,1,479.29,99.94ZM429.83,85.38h32.31l5.32,11.74c.7,1.39,1.31,1.82,2.62,1.82h9.21a1.49,1.49,0,0,0,1.31-.63,1.44,1.44,0,0,0,0-1.41L448,25.62a1.3,1.3,0,0,0-1.35-.87h-1.06a1.39,1.39,0,0,0-1.35.89L411.33,96.9a1.43,1.43,0,0,0,0,1.41,1.49,1.49,0,0,0,1.31.63h9.21a2.71,2.71,0,0,0,2.61-1.8ZM457.4,74.63H434.57l10.83-24.3h1Zm-21.29-1h19.74l-10-21.93Z"/><path class="cls-1" d="M527,101H525a2.41,2.41,0,0,1-2.25-1.44L504.5,58.94l-6,39a2.52,2.52,0,0,1-2.4,2H486.6a2.51,2.51,0,0,1-2-.82,2.68,2.68,0,0,1-.55-2.19L496.7,25.76a2.29,2.29,0,0,1,2.4-2h1.69A2.45,2.45,0,0,1,503,25.09l23,49.36,23-49.35a2.34,2.34,0,0,1,2.26-1.35H553a2.29,2.29,0,0,1,2.4,2l12.5,71.14a2.55,2.55,0,0,1-.42,2.17,2.48,2.48,0,0,1-2,.85h-9.64a2.79,2.79,0,0,1-2.49-2l-6.09-39-18.07,40.6A2.29,2.29,0,0,1,527,101Zm-23.2-43.78h1.07L523.7,99.13A1.39,1.39,0,0,0,525,100H527a1.33,1.33,0,0,0,1.33-.82l18.68-42H548l.06.42,6.25,40.13a1.82,1.82,0,0,0,1.52,1.17h9.64a1.5,1.5,0,0,0,1.2-.48,1.54,1.54,0,0,0,.21-1.35L554.42,25.93A1.3,1.3,0,0,0,553,24.75h-1.69a1.34,1.34,0,0,0-1.36.78L526.53,75.8h-1L502.14,25.52a1.45,1.45,0,0,0-1.35-.77H499.1a1.28,1.28,0,0,0-1.41,1.15v0l-12.6,71.16a1.72,1.72,0,0,0,.31,1.38,1.54,1.54,0,0,0,1.21.47h9.53a1.56,1.56,0,0,0,1.41-1.16Z"/><path class="cls-1" d="M624.7,99.94H581.6a2.52,2.52,0,0,1-2.52-2.51V27.32a2.52,2.52,0,0,1,2.52-2.51h43.1a2.52,2.52,0,0,1,2.51,2.51V36a2.52,2.52,0,0,1-2.51,2.51H593.85V54.89h25.66A2.57,2.57,0,0,1,622,57.4v8.79a2.52,2.52,0,0,1-2.51,2.51H593.85V86.23H624.7a2.52,2.52,0,0,1,2.51,2.51v8.69A2.52,2.52,0,0,1,624.7,99.94ZM581.6,25.81a1.52,1.52,0,0,0-1.52,1.51V97.43a1.52,1.52,0,0,0,1.52,1.51h43.1a1.51,1.51,0,0,0,1.51-1.51V88.74a1.52,1.52,0,0,0-1.51-1.51H592.85V67.7h26.66A1.51,1.51,0,0,0,621,66.19V57.4a1.58,1.58,0,0,0-1.51-1.51H592.85V37.52H624.7A1.52,1.52,0,0,0,626.21,36V27.32a1.51,1.51,0,0,0-1.51-1.51Zm13.6-6.42A4,4,0,0,1,592,17c-.78-1.56-.91-3.81.15-4.56h0L610,.54a3.53,3.53,0,0,1,2.89-.4,6,6,0,0,1,3.55,3.13,6.94,6.94,0,0,1,.77,5.15,2.94,2.94,0,0,1-1.53,1.77l-19.6,9A2.14,2.14,0,0,1,595.2,19.39Zm-2.52-6.17c-.42.32-.52,1.91.17,3.29s2,2.17,2.84,1.78l19.59-9a2,2,0,0,0,1-1.19,6,6,0,0,0-.71-4.38,4.89,4.89,0,0,0-2.93-2.61,2.5,2.5,0,0,0-2.07.26Z"/><path class="cls-1" d="M691.21,99.94H680.09A2.28,2.28,0,0,1,678,98.71L664,70.92h-11V97.43a2.57,2.57,0,0,1-2.51,2.51H640.8a2.51,2.51,0,0,1-2.51-2.51V27.32a2.51,2.51,0,0,1,2.51-2.51h30.29a23.46,23.46,0,0,1,23.58,23.27c0,9.34-5.91,17.59-15.47,21.64l14.25,26.41a2.7,2.7,0,0,1,0,2.63A2.53,2.53,0,0,1,691.21,99.94Zm-39.16-30h12.57l14.22,28.34a1.31,1.31,0,0,0,1.25.68h11.12a1.53,1.53,0,0,0,1.38-.7,1.66,1.66,0,0,0,0-1.63L677.79,69.22l.52-.21c9.48-3.82,15.36-11.83,15.36-20.93a22.45,22.45,0,0,0-22.58-22.27H640.8a1.51,1.51,0,0,0-1.51,1.51V97.43a1.51,1.51,0,0,0,1.51,1.51h9.74a1.58,1.58,0,0,0,1.51-1.51Zm17.87-10.33H652.16V37.52h17.76a11,11,0,0,1,11,10.77A11.29,11.29,0,0,1,669.92,59.59Zm-16.76-1h16.76a10.29,10.29,0,0,0,10-10.3,10,10,0,0,0-10-9.77H653.16Z"/><path class="cls-1" d="M718.74,99.94h-9.85a2.58,2.58,0,0,1-2.51-2.51V27.32a2.58,2.58,0,0,1,2.51-2.51h9.85a2.57,2.57,0,0,1,2.51,2.51V97.43A2.57,2.57,0,0,1,718.74,99.94Zm-9.85-74.13a1.59,1.59,0,0,0-1.51,1.51V97.43a1.59,1.59,0,0,0,1.51,1.51h9.85a1.58,1.58,0,0,0,1.51-1.51V27.32a1.58,1.58,0,0,0-1.51-1.51Z"/><path class="cls-1" d="M770.85,101a38.63,38.63,0,1,1,0-77.25c10.26,0,18.27,3.08,26,10a2.55,2.55,0,0,1,.89,1.83,2.52,2.52,0,0,1-.77,1.86l-6.45,6.66a2.19,2.19,0,0,1-1.58.79,2.43,2.43,0,0,1-1.78-.78,24.54,24.54,0,0,0-16-6.1c-13,0-23.11,10.62-23.11,24.17s10.2,24,23.22,24a24.87,24.87,0,0,0,15.89-5.93,2.44,2.44,0,0,1,3.31,0L797.05,87a2.11,2.11,0,0,1,.68,1.54,2.74,2.74,0,0,1-.8,2A36.67,36.67,0,0,1,770.85,101Zm0-76.25a37.63,37.63,0,1,0,0,75.25,35.69,35.69,0,0,0,25.38-10.13,1.74,1.74,0,0,0,.5-1.28,1.15,1.15,0,0,0-.37-.85l-6.6-6.8a1.44,1.44,0,0,0-2,0,25.84,25.84,0,0,1-16.53,6.16c-13.58,0-24.22-11-24.22-25S757.64,37,771.16,37a25.53,25.53,0,0,1,16.64,6.37,1.48,1.48,0,0,0,1.07.51,1.24,1.24,0,0,0,.88-.46l6.47-6.69a1.5,1.5,0,0,0,.48-1.13,1.53,1.53,0,0,0-.56-1.12A35.46,35.46,0,0,0,770.85,24.75Z"/><path class="cls-1" d="M867.64,99.94h-9.21c-1.93,0-2.78-.92-3.52-2.39l-5.06-11.17h-31l-5.06,11.15a3.67,3.67,0,0,1-3.53,2.41H801a2.47,2.47,0,0,1-2.15-1.09,2.4,2.4,0,0,1-.1-2.37h0l32.93-71.27A2.41,2.41,0,0,1,834,23.75h1a2.3,2.3,0,0,1,2.25,1.44L869.9,96.48a2.43,2.43,0,0,1-.1,2.37A2.5,2.5,0,0,1,867.64,99.94ZM818.18,85.38h32.31l5.32,11.74c.7,1.39,1.31,1.82,2.62,1.82h9.21a1.52,1.52,0,0,0,1.32-.63,1.46,1.46,0,0,0,0-1.41L836.37,25.62a1.3,1.3,0,0,0-1.35-.87h-1a1.4,1.4,0,0,0-1.36.89L799.68,96.9a1.43,1.43,0,0,0,0,1.41,1.49,1.49,0,0,0,1.31.63h9.21a2.71,2.71,0,0,0,2.61-1.8Zm27.58-10.75H822.92l10.83-24.3h1Zm-21.3-1H844.2l-10-21.93Z"/></g></g></svg>