<svg xmlns="http://www.w3.org/2000/svg" xmlns:xlink="http://www.w3.org/1999/xlink" viewBox="0 0 172.53 79"><defs><style>.cls-1{fill:url(#linear-gradient);filter:url(#luminosity-noclip);}.cls-2{opacity:0.25;}.cls-3{mask:url(#mask);}.cls-4{fill:#fff;}.cls-5{fill:none;stroke:#fff;stroke-width:0.5px;}</style><linearGradient id="linear-gradient" x1="262.93" y1="448.78" x2="263.93" y2="448.78" gradientTransform="matrix(0, -77.85, -77.85, 0, 35024.47, 20548.27)" gradientUnits="userSpaceOnUse"><stop offset="0" stop-color="#fff"/><stop offset="1"/></linearGradient><filter id="luminosity-noclip" x="-8.74" y="-6.97" width="190" height="86.94" filterUnits="userSpaceOnUse" color-interpolation-filters="sRGB"><feFlood flood-color="#fff" result="bg"/><feBlend in="SourceGraphic" in2="bg"/></filter><mask id="mask" x="-8.74" y="-6.97" width="190" height="86.94" maskUnits="userSpaceOnUse"><rect class="cls-1" x="-8.74" y="-6.97" width="190" height="86.94"/></mask></defs><g id="Layer_2" data-name="Layer 2"><g id="Layer_1-2" data-name="Layer 1"><g class="cls-2"><g class="cls-3"><rect class="cls-4" x="0.26" y="0.03" width="172" height="78.94"/></g></g><rect class="cls-5" x="0.25" y="0.25" width="172.03" height="78.5"/><path class="cls-4" d="M13.05,26.1a.34.34,0,0,1-.32-.36V24.57a.38.38,0,0,1,.1-.27l2.42-1.89a1.05,1.05,0,0,1,.65-.21h1.35a.35.35,0,0,1,.34.34v11.9a.35.35,0,0,1-.34.36H15.19a.35.35,0,0,1-.36-.36V26.1Z"/><path class="cls-4" d="M22,28.34v-.08a3.18,3.18,0,0,1-1.91-2.84c0-2.09,1.85-3.4,4.1-3.4s4.22,1.31,4.22,3.4a3.29,3.29,0,0,1-1.91,2.83v.09a3.5,3.5,0,0,1,2.27,3.11c0,2.2-1.79,3.53-4.58,3.53s-4.46-1.33-4.46-3.53A3.55,3.55,0,0,1,22,28.34Zm2.27,4.37a1.37,1.37,0,0,0,1.49-1.4,1.92,1.92,0,0,0-1.53-1.7,2,2,0,0,0-1.5,1.7A1.39,1.39,0,0,0,24.29,32.71Zm1.29-7.18a1.32,1.32,0,0,0-2.63,0c0,.66.43,1.19,1.3,1.51C25.13,26.73,25.58,26.16,25.58,25.53Z"/><path class="cls-4" d="M30.67,32.19a.36.36,0,0,1-.36-.36v-1.6a.83.83,0,0,1,.26-.67l6.22-7.44a.35.35,0,0,1,.28-.1H38.4a.36.36,0,0,1,.36.36v7.5h1.47a.34.34,0,0,1,.36.35v1.6a.36.36,0,0,1-.36.36H38.76v2.25a.35.35,0,0,1-.34.36h-2a.35.35,0,0,1-.34-.36V32.19ZM36.13,30V26.45h0l-2.88,3.47v0Z"/><path class="cls-4" d="M43.69,31.65c1,0,1.89.72,1.89,2.34a5.85,5.85,0,0,1-1.5,3.67.31.31,0,0,1-.45,0L43,37.14c-.13-.14-.09-.31.05-.47A3.35,3.35,0,0,0,44,34.76a.5.5,0,0,0,0-.16,1.14,1.14,0,0,1-.68.2A1.39,1.39,0,0,1,42,33.23,1.6,1.6,0,0,1,43.69,31.65Z"/><path class="cls-4" d="M47.34,32.82l1.13-1.19a.38.38,0,0,1,.49,0,3.23,3.23,0,0,0,2.22.89,1.72,1.72,0,0,0,1.76-1.77A1.7,1.7,0,0,0,51,29H48.17a.63.63,0,0,1-.58-.67V22.54a.34.34,0,0,1,.34-.34h6a.35.35,0,0,1,.36.34v1.64a.35.35,0,0,1-.36.34H50.1v2h1.31a3.91,3.91,0,0,1,4.23,4.1A4.42,4.42,0,0,1,51.05,35a4.82,4.82,0,0,1-3.66-1.53C47.14,33.16,47.12,33,47.34,32.82Z"/><path class="cls-4" d="M57.83,33.41c-.07-.23,0-.43.37-.54.86-.28,3.27-1.09,3.72-2.95a5.45,5.45,0,0,1-1.76.38,3.73,3.73,0,0,1-3.69-4A4.26,4.26,0,0,1,60.72,22c2.86,0,4.46,2.16,4.46,5A8.23,8.23,0,0,1,59,35.12a.43.43,0,0,1-.58-.28Zm4.7-7a1.78,1.78,0,1,0-3.56,0,1.78,1.78,0,1,0,3.56,0Z"/><path class="cls-4" d="M67.86,33.41c-.07-.23,0-.43.36-.54.86-.28,3.28-1.09,3.73-2.95a5.51,5.51,0,0,1-1.77.38,3.74,3.74,0,0,1-3.69-4A4.27,4.27,0,0,1,70.74,22c2.86,0,4.47,2.16,4.47,5A8.24,8.24,0,0,1,69,35.12a.43.43,0,0,1-.58-.28Zm4.7-7a1.78,1.78,0,1,0-3.56,0,1.78,1.78,0,1,0,3.56,0Z"/><path class="cls-4" d="M15.52,52.78a5.77,5.77,0,0,1,1.6.28c0-1.26-.32-2.08-1.66-2.08a4.17,4.17,0,0,0-1.6.42c-.14.05-.21,0-.25-.1l-.08-.19c0-.12,0-.18.1-.22a4.06,4.06,0,0,1,1.89-.46c1.88,0,2.2,1.22,2.2,2.71v3.5c0,.15-.06.21-.18.21s-.39-.25-.39-.69v-.09h0A3.23,3.23,0,0,1,15,57a2,2,0,0,1-2-2.07C12.92,53.68,13.88,52.78,15.52,52.78ZM15,56.37a3,3,0,0,0,2.1-.95V53.63a4.11,4.11,0,0,0-1.6-.33c-1.19,0-2,.65-2,1.57A1.45,1.45,0,0,0,15,56.37Z"/><path class="cls-4" d="M19.41,56l.12-.22c0-.09.17-.1.28,0a2.86,2.86,0,0,0,1.7.6c.95,0,1.55-.45,1.55-1.12s-.75-1.05-1.81-1.44S19.39,53,19.39,52c0-.68.57-1.59,2-1.59a3.49,3.49,0,0,1,1.76.47.22.22,0,0,1,.08.28l-.08.15c-.06.11-.17.11-.28.05a3.52,3.52,0,0,0-1.48-.4c-1,0-1.4.55-1.4,1s.62,1,1.54,1.29c1.16.43,2.13.79,2.13,2,0,.95-.89,1.68-2.15,1.68a3.22,3.22,0,0,1-2-.69A.17.17,0,0,1,19.41,56Z"/><path class="cls-4" d="M28.06,50.43a3.26,3.26,0,1,1-3.13,3.24A3.19,3.19,0,0,1,28.06,50.43Zm0,5.94a2.68,2.68,0,1,0-2.54-2.7A2.59,2.59,0,0,0,28.06,56.37Z"/><path class="cls-4" d="M35.82,50.43a3,3,0,0,1,2.3,1,.2.2,0,0,1,0,.29l-.1.11c-.13.12-.23.08-.34,0A2.73,2.73,0,0,0,35.82,51a2.68,2.68,0,1,0,2,4.4.17.17,0,0,1,.29,0l.13.1a.19.19,0,0,1,0,.25A3.16,3.16,0,0,1,35.82,57a3.26,3.26,0,0,1,0-6.52Z"/><path class="cls-4" d="M39.59,48.32a.53.53,0,0,1,.54-.53.52.52,0,1,1,0,1A.53.53,0,0,1,39.59,48.32Zm.25,2.44a.2.2,0,0,1,.21-.2h.19a.21.21,0,0,1,.2.2V56.6a.18.18,0,0,1-.2.2H40a.18.18,0,0,1-.18-.2Z"/><path class="cls-4" d="M44.66,52.78a5.78,5.78,0,0,1,1.61.28C46.27,51.8,46,51,44.61,51A4.24,4.24,0,0,0,43,51.4a.16.16,0,0,1-.24-.1l-.08-.19c-.06-.12,0-.18.09-.22a4.11,4.11,0,0,1,1.89-.46c1.88,0,2.2,1.22,2.2,2.71v3.5c0,.15,0,.21-.17.21s-.39-.25-.39-.69v-.09h0A3.23,3.23,0,0,1,44.1,57a1.94,1.94,0,0,1-2-2.07C42.07,53.68,43,52.78,44.66,52.78Zm-.5,3.59a3,3,0,0,0,2.11-.95V53.63a4.12,4.12,0,0,0-1.61-.33c-1.18,0-2,.65-2,1.57A1.45,1.45,0,0,0,44.16,56.37Z"/><path class="cls-4" d="M51.66,50.43a3.43,3.43,0,0,1,2,.6V47.55a.19.19,0,0,1,.2-.2H54a.21.21,0,0,1,.19.2v9.09c0,.15,0,.21-.17.21s-.39-.25-.39-.69v-.09a3.1,3.1,0,0,1-2.18.88,3,3,0,0,1-2.83-3.27A3.07,3.07,0,0,1,51.66,50.43Zm-.14,5.94a2.58,2.58,0,0,0,2.11-1.06v-3.6a3,3,0,0,0-1.89-.7,2.56,2.56,0,0,0-2.5,2.67A2.5,2.5,0,0,0,51.52,56.37Z"/><path class="cls-4" d="M59.16,50.43A3.26,3.26,0,1,1,56,53.67,3.19,3.19,0,0,1,59.16,50.43Zm0,5.94a2.68,2.68,0,1,0-2.54-2.7A2.59,2.59,0,0,0,59.16,56.37Z"/><path class="cls-4" d="M63.63,56l.12-.22a.19.19,0,0,1,.29,0,2.86,2.86,0,0,0,1.7.6c.94,0,1.55-.45,1.55-1.12s-.76-1.05-1.81-1.44S63.62,53,63.62,52c0-.68.56-1.59,2-1.59a3.41,3.41,0,0,1,1.75.47.2.2,0,0,1,.08.28l-.08.15c-.05.11-.16.11-.27.05a3.57,3.57,0,0,0-1.48-.4c-1,0-1.41.55-1.41,1s.62,1,1.54,1.29c1.16.43,2.13.79,2.13,2,0,.95-.89,1.68-2.14,1.68a3.2,3.2,0,0,1-2-.69A.18.18,0,0,1,63.63,56Z"/><path class="cls-4" d="M75.44,50.43a3.43,3.43,0,0,1,2,.6V47.55a.19.19,0,0,1,.21-.2h.2a.21.21,0,0,1,.19.2v9.09c0,.15-.06.21-.18.21s-.39-.25-.39-.69v-.09a3.07,3.07,0,0,1-2.17.88,3,3,0,0,1-2.84-3.27A3.07,3.07,0,0,1,75.44,50.43Zm-.13,5.94a2.55,2.55,0,0,0,2.1-1.06v-3.6a3,3,0,0,0-1.89-.7A2.55,2.55,0,0,0,73,53.68,2.5,2.5,0,0,0,75.31,56.37Z"/><path class="cls-4" d="M82.86,50.43a2.73,2.73,0,0,1,2.79,2.83c0,.24,0,.61-.23.61h-5a2.47,2.47,0,0,0,2.42,2.5,3.46,3.46,0,0,0,1.91-.62c.14-.08.21-.1.27,0l.15.23c.06.05,0,.16-.07.24a4,4,0,0,1-2.26.73,3.27,3.27,0,0,1,0-6.52Zm2.2,2.89A2.17,2.17,0,0,0,82.86,51a2.38,2.38,0,0,0-2.41,2.31Z"/><path class="cls-4" d="M93.34,50.43a3.26,3.26,0,1,1-3.13,3.24A3.19,3.19,0,0,1,93.34,50.43Zm0,5.94a2.68,2.68,0,1,0-2.53-2.7A2.59,2.59,0,0,0,93.34,56.37Z"/><path class="cls-4" d="M98.86,59.81a.22.22,0,0,1-.21.2h-.18a.19.19,0,0,1-.2-.2V50.72c0-.15,0-.21.18-.21s.36.23.39.62a3.38,3.38,0,0,1,2.06-.7,3,3,0,0,1,3,3.24A3.13,3.13,0,0,1,100.75,57a3,3,0,0,1-1.89-.65Zm0-4.2a2.94,2.94,0,0,0,1.88.76,2.54,2.54,0,0,0,2.53-2.72A2.47,2.47,0,0,0,100.88,51a2.8,2.8,0,0,0-2,.82Z"/><path class="cls-4" d="M108.3,50.43a2.74,2.74,0,0,1,2.8,2.83c0,.24,0,.61-.23.61h-5a2.47,2.47,0,0,0,2.42,2.5,3.47,3.47,0,0,0,1.92-.62c.13-.08.2-.1.27,0l.15.23c0,.05,0,.16-.07.24a4,4,0,0,1-2.27.73,3.27,3.27,0,0,1,0-6.52Zm2.2,2.89A2.16,2.16,0,0,0,108.3,51a2.38,2.38,0,0,0-2.4,2.31Z"/><path class="cls-4" d="M112.84,50.72c0-.15,0-.21.17-.21s.39.25.39.69v.13a2.57,2.57,0,0,1,2-.9,2.86,2.86,0,0,1,1,.17.23.23,0,0,1,.17.29l-.09.24c0,.12-.14.13-.25.08a1.88,1.88,0,0,0-.84-.2,2.28,2.28,0,0,0-1.89,1.06V56.6a.18.18,0,0,1-.2.2H113c-.12,0-.17-.1-.17-.2Z"/><path class="cls-4" d="M119.91,52.78a5.78,5.78,0,0,1,1.61.28c0-1.26-.33-2.08-1.66-2.08a4.24,4.24,0,0,0-1.61.42.16.16,0,0,1-.24-.1l-.08-.19c-.06-.12,0-.18.09-.22a4.11,4.11,0,0,1,1.89-.46c1.88,0,2.2,1.22,2.2,2.71v3.5c0,.15,0,.21-.17.21s-.39-.25-.39-.69v-.09h0a3.23,3.23,0,0,1-2.19.89,1.94,1.94,0,0,1-2-2.07C117.32,53.68,118.28,52.78,119.91,52.78Zm-.5,3.59a3,3,0,0,0,2.11-.95V53.63a4.17,4.17,0,0,0-1.61-.33c-1.19,0-2,.65-2,1.57A1.45,1.45,0,0,0,119.41,56.37Z"/><path class="cls-4" d="M127.09,50.43a3,3,0,0,1,2.3,1,.2.2,0,0,1,0,.29l-.11.11c-.12.12-.23.08-.34,0a2.73,2.73,0,0,0-1.84-.74,2.68,2.68,0,1,0,2,4.4.18.18,0,0,1,.3,0l.12.1a.19.19,0,0,1,0,.25,3.16,3.16,0,0,1-2.45,1.2,3.26,3.26,0,0,1,0-6.52Z"/><path class="cls-4" d="M130.86,48.32a.53.53,0,0,1,.54-.53.52.52,0,1,1-.54.53Zm.26,2.44a.19.19,0,0,1,.2-.2h.19a.21.21,0,0,1,.2.2V56.6a.18.18,0,0,1-.2.2h-.22c-.12,0-.17-.1-.17-.2Z"/><path class="cls-4" d="M136.58,50.43a3.26,3.26,0,1,1-3.13,3.24A3.19,3.19,0,0,1,136.58,50.43Zm0,5.94a2.68,2.68,0,1,0-2.53-2.7A2.59,2.59,0,0,0,136.58,56.37Z"/><path class="cls-4" d="M141.51,50.72c0-.15.05-.21.18-.21s.39.25.39.69v.16a3,3,0,0,1,2.17-.93c1.77,0,2.35,1.09,2.35,2.72V56.6a.21.21,0,0,1-.2.2h-.19a.21.21,0,0,1-.2-.2V53.18c0-1.44-.58-2.17-1.79-2.17a2.86,2.86,0,0,0-2.12,1.06V56.6a.18.18,0,0,1-.2.2h-.21a.18.18,0,0,1-.18-.2Z"/><path class="cls-4" d="M151.37,50.43a2.73,2.73,0,0,1,2.79,2.83c0,.24,0,.61-.23.61h-5a2.47,2.47,0,0,0,2.42,2.5,3.43,3.43,0,0,0,1.91-.62c.14-.08.21-.1.27,0l.15.23c.06.05,0,.16-.07.24a4,4,0,0,1-2.26.73,3.27,3.27,0,0,1,0-6.52Zm2.2,2.89a2.17,2.17,0,0,0-2.2-2.31A2.38,2.38,0,0,0,149,53.32Z"/><path class="cls-4" d="M155.5,56l.12-.22c0-.09.17-.1.28,0a2.86,2.86,0,0,0,1.7.6c1,0,1.56-.45,1.56-1.12s-.76-1.05-1.81-1.44S155.48,53,155.48,52c0-.68.57-1.59,2-1.59a3.46,3.46,0,0,1,1.76.47.22.22,0,0,1,.08.28l-.08.15a.18.18,0,0,1-.27.05,3.63,3.63,0,0,0-1.49-.4c-1,0-1.4.55-1.4,1s.62,1,1.54,1.29c1.16.43,2.13.79,2.13,2,0,.95-.89,1.68-2.15,1.68a3.22,3.22,0,0,1-2-.69A.17.17,0,0,1,155.5,56Z"/></g></g></svg>