<svg xmlns="http://www.w3.org/2000/svg" xmlns:xlink="http://www.w3.org/1999/xlink" viewBox="0 0 172.53 79"><defs><style>.cls-1{fill:url(#linear-gradient);filter:url(#luminosity-noclip);}.cls-2{opacity:0.25;}.cls-3{mask:url(#mask);}.cls-4{fill:#fff;}.cls-5{fill:none;stroke:#fff;stroke-width:0.5px;}</style><linearGradient id="linear-gradient" x1="262.93" y1="-281.22" x2="263.93" y2="-281.22" gradientTransform="matrix(0, -77.85, -77.85, 0, -21806.99, 20548.27)" gradientUnits="userSpaceOnUse"><stop offset="0" stop-color="#fff"/><stop offset="1"/></linearGradient><filter id="luminosity-noclip" x="-8.74" y="-6.97" width="190" height="86.94" filterUnits="userSpaceOnUse" color-interpolation-filters="sRGB"><feFlood flood-color="#fff" result="bg"/><feBlend in="SourceGraphic" in2="bg"/></filter><mask id="mask" x="-8.74" y="-6.97" width="190" height="86.94" maskUnits="userSpaceOnUse"><rect class="cls-1" x="-8.74" y="-6.97" width="190" height="86.94"/></mask></defs><g id="Layer_2" data-name="Layer 2"><g id="Layer_1-2" data-name="Layer 1"><g class="cls-2"><g class="cls-3"><rect class="cls-4" x="0.26" y="0.03" width="172" height="78.94"/></g></g><rect class="cls-5" x="0.25" y="0.25" width="172.03" height="78.5"/><path class="cls-4" d="M12.89,35.44,14,34.24a.33.33,0,0,1,.47,0,3,3,0,0,0,2,.85,1.47,1.47,0,0,0,1.61-1.48c0-.92-.83-1.51-2.2-1.51H14.83a.35.35,0,0,1-.34-.34V30.17a.34.34,0,0,1,.34-.34h1.05c1.29,0,2-.62,2-1.41A1.35,1.35,0,0,0,16.38,27a2.17,2.17,0,0,0-1.62.73.33.33,0,0,1-.5,0l-1.14-1.12a.34.34,0,0,1,0-.48,4.83,4.83,0,0,1,3.55-1.64c2.16,0,4,1.31,4,3.4a3.3,3.3,0,0,1-1.91,2.85v.07a3.13,3.13,0,0,1,2.23,3c0,2-1.76,3.65-4.32,3.65a4.62,4.62,0,0,1-3.82-1.6A.38.38,0,0,1,12.89,35.44Z"/><path class="cls-4" d="M22.66,35.35l1.14-1.19a.38.38,0,0,1,.48,0A3.28,3.28,0,0,0,26.5,35a1.72,1.72,0,0,0,1.76-1.77,1.7,1.7,0,0,0-1.92-1.78H23.49a.62.62,0,0,1-.58-.66V25.07a.35.35,0,0,1,.35-.34h6a.35.35,0,0,1,.36.34v1.64a.35.35,0,0,1-.36.34H25.42v2h1.31A3.92,3.92,0,0,1,31,33.16a4.41,4.41,0,0,1-4.59,4.35A4.81,4.81,0,0,1,22.72,36C22.46,35.69,22.45,35.57,22.66,35.35Z"/><path class="cls-4" d="M33.91,34.18c1,0,1.89.72,1.89,2.34a5.9,5.9,0,0,1-1.49,3.68.33.33,0,0,1-.45,0l-.59-.53c-.13-.14-.09-.3,0-.46a3.35,3.35,0,0,0,.94-1.91.47.47,0,0,0,0-.16,1.22,1.22,0,0,1-.69.19,1.38,1.38,0,0,1-1.35-1.56A1.61,1.61,0,0,1,33.91,34.18Z"/><path class="cls-4" d="M37.35,31c0-4.07,1.71-6.48,4.74-6.48S46.84,27,46.84,31s-1.73,6.48-4.75,6.48S37.35,35.08,37.35,31ZM44,31c0-2.43-.79-3.85-1.92-3.85S40.18,28.6,40.18,31,41,34.9,42.09,34.9,44,33.48,44,31Z"/><path class="cls-4" d="M48.49,35.35l1.14-1.19a.38.38,0,0,1,.48,0,3.28,3.28,0,0,0,2.22.88,1.72,1.72,0,0,0,1.76-1.77,1.7,1.7,0,0,0-1.92-1.78H49.32a.61.61,0,0,1-.57-.66V25.07a.34.34,0,0,1,.34-.34h6a.35.35,0,0,1,.36.34v1.64a.35.35,0,0,1-.36.34H51.25v2h1.31a3.92,3.92,0,0,1,4.23,4.11,4.41,4.41,0,0,1-4.59,4.35A4.81,4.81,0,0,1,48.55,36C48.29,35.69,48.28,35.57,48.49,35.35Z"/><path class="cls-4" d="M58,28.64a.34.34,0,0,1-.32-.36V27.11a.34.34,0,0,1,.1-.27L60.16,25a1,1,0,0,1,.65-.22h1.35a.35.35,0,0,1,.34.34V37a.35.35,0,0,1-.34.36H60.1a.35.35,0,0,1-.36-.36V28.64Z"/><path class="cls-4" d="M15.52,55.31a5.77,5.77,0,0,1,1.6.28c0-1.25-.32-2.08-1.66-2.08a4.17,4.17,0,0,0-1.6.42.17.17,0,0,1-.25-.09l-.08-.19a.17.17,0,0,1,.1-.23A4.06,4.06,0,0,1,15.52,53c1.88,0,2.2,1.23,2.2,2.71v3.5c0,.15-.06.22-.18.22s-.39-.26-.39-.69v-.1h0a3.23,3.23,0,0,1-2.19.89,1.94,1.94,0,0,1-2-2.06C12.92,56.21,13.88,55.31,15.52,55.31ZM15,58.9a3,3,0,0,0,2.1-.94v-1.8a4.36,4.36,0,0,0-1.6-.32c-1.19,0-2,.64-2,1.56A1.45,1.45,0,0,0,15,58.9Z"/><path class="cls-4" d="M19.41,58.56l.12-.21c0-.1.17-.11.28,0a2.78,2.78,0,0,0,1.7.61c.95,0,1.55-.46,1.55-1.12s-.75-1.06-1.81-1.45-1.86-.82-1.86-1.81c0-.67.57-1.59,2-1.59a3.49,3.49,0,0,1,1.76.47.23.23,0,0,1,.08.29l-.08.14c-.06.11-.17.11-.28.06a3.49,3.49,0,0,0-1.48-.41c-1,0-1.4.56-1.4,1s.62,1,1.54,1.3c1.16.43,2.13.78,2.13,2,0,.94-.89,1.67-2.15,1.67a3.22,3.22,0,0,1-2-.69A.17.17,0,0,1,19.41,58.56Z"/><path class="cls-4" d="M28.06,53a3.26,3.26,0,1,1-3.13,3.24A3.19,3.19,0,0,1,28.06,53Zm0,5.94a2.68,2.68,0,1,0-2.54-2.7A2.59,2.59,0,0,0,28.06,58.9Z"/><path class="cls-4" d="M35.82,53a3,3,0,0,1,2.3,1,.19.19,0,0,1,0,.28l-.1.11c-.13.12-.23.08-.34,0a2.73,2.73,0,0,0-1.84-.74,2.68,2.68,0,1,0,2,4.4.17.17,0,0,1,.29,0l.13.11a.18.18,0,0,1,0,.24,3.13,3.13,0,0,1-2.45,1.2,3.26,3.26,0,0,1,0-6.52Z"/><path class="cls-4" d="M39.59,50.85a.53.53,0,0,1,.54-.52.52.52,0,1,1,0,1A.53.53,0,0,1,39.59,50.85Zm.25,2.45a.21.21,0,0,1,.21-.21h.19a.22.22,0,0,1,.2.21v5.83a.18.18,0,0,1-.2.2H40a.18.18,0,0,1-.18-.2Z"/><path class="cls-4" d="M44.66,55.31a5.78,5.78,0,0,1,1.61.28c0-1.25-.32-2.08-1.66-2.08a4.24,4.24,0,0,0-1.61.42.16.16,0,0,1-.24-.09l-.08-.19a.16.16,0,0,1,.09-.23A4.11,4.11,0,0,1,44.66,53c1.88,0,2.2,1.23,2.2,2.71v3.5c0,.15,0,.22-.17.22s-.39-.26-.39-.69v-.1h0a3.23,3.23,0,0,1-2.18.89,1.93,1.93,0,0,1-2-2.06C42.07,56.21,43,55.31,44.66,55.31Zm-.5,3.59A3,3,0,0,0,46.27,58v-1.8a4.37,4.37,0,0,0-1.61-.32c-1.18,0-2,.64-2,1.56A1.45,1.45,0,0,0,44.16,58.9Z"/><path class="cls-4" d="M51.66,53a3.39,3.39,0,0,1,2,.61V50.08a.19.19,0,0,1,.2-.2H54a.22.22,0,0,1,.19.2v9.09c0,.15,0,.22-.17.22s-.39-.26-.39-.69v-.1a3.1,3.1,0,0,1-2.18.88,3,3,0,0,1-2.83-3.27A3.07,3.07,0,0,1,51.66,53Zm-.14,5.94a2.58,2.58,0,0,0,2.11-1V54.24a3,3,0,0,0-1.89-.7,2.56,2.56,0,0,0-2.5,2.67A2.5,2.5,0,0,0,51.52,58.9Z"/><path class="cls-4" d="M59.16,53A3.26,3.26,0,1,1,56,56.2,3.19,3.19,0,0,1,59.16,53Zm0,5.94a2.68,2.68,0,1,0-2.54-2.7A2.59,2.59,0,0,0,59.16,58.9Z"/><path class="cls-4" d="M63.63,58.56l.12-.21a.19.19,0,0,1,.29,0,2.78,2.78,0,0,0,1.7.61c.94,0,1.55-.46,1.55-1.12s-.76-1.06-1.81-1.45-1.86-.82-1.86-1.81c0-.67.56-1.59,2-1.59a3.41,3.41,0,0,1,1.75.47.21.21,0,0,1,.08.29l-.08.14c-.05.11-.16.11-.27.06a3.54,3.54,0,0,0-1.48-.41c-1,0-1.41.56-1.41,1s.62,1,1.54,1.3c1.16.43,2.13.78,2.13,2,0,.94-.89,1.67-2.14,1.67a3.2,3.2,0,0,1-2-.69A.17.17,0,0,1,63.63,58.56Z"/><path class="cls-4" d="M75.44,53a3.39,3.39,0,0,1,2,.61V50.08a.2.2,0,0,1,.21-.2h.2a.22.22,0,0,1,.19.2v9.09c0,.15-.06.22-.18.22s-.39-.26-.39-.69v-.1a3.07,3.07,0,0,1-2.17.88,3,3,0,0,1-2.84-3.27A3.07,3.07,0,0,1,75.44,53Zm-.13,5.94a2.55,2.55,0,0,0,2.1-1V54.24a3,3,0,0,0-1.89-.7A2.55,2.55,0,0,0,73,56.21,2.5,2.5,0,0,0,75.31,58.9Z"/><path class="cls-4" d="M82.86,53a2.74,2.74,0,0,1,2.79,2.84c0,.24,0,.6-.23.6h-5a2.47,2.47,0,0,0,2.42,2.5,3.38,3.38,0,0,0,1.91-.62c.14-.08.21-.09.27,0l.15.23c.06.05,0,.16-.07.24a4,4,0,0,1-2.26.73,3.27,3.27,0,0,1,0-6.52Zm2.2,2.89a2.17,2.17,0,0,0-2.2-2.31,2.38,2.38,0,0,0-2.41,2.31Z"/><path class="cls-4" d="M93.34,53a3.26,3.26,0,1,1-3.13,3.24A3.19,3.19,0,0,1,93.34,53Zm0,5.94a2.68,2.68,0,1,0-2.53-2.7A2.59,2.59,0,0,0,93.34,58.9Z"/><path class="cls-4" d="M98.86,62.35a.23.23,0,0,1-.21.2h-.18a.2.2,0,0,1-.2-.2V53.26c0-.15,0-.22.18-.22s.36.23.39.62a3.38,3.38,0,0,1,2.06-.7,3,3,0,0,1,3,3.24,3.12,3.12,0,0,1-3.11,3.28,3,3,0,0,1-1.89-.65Zm0-4.2a3,3,0,0,0,1.88.75,2.54,2.54,0,0,0,2.53-2.71,2.47,2.47,0,0,0-2.39-2.65,2.84,2.84,0,0,0-2,.82Z"/><path class="cls-4" d="M108.3,53a2.74,2.74,0,0,1,2.8,2.84c0,.24,0,.6-.23.6h-5a2.47,2.47,0,0,0,2.42,2.5,3.39,3.39,0,0,0,1.92-.62c.13-.08.2-.09.27,0l.15.23c0,.05,0,.16-.07.24a4,4,0,0,1-2.27.73,3.27,3.27,0,0,1,0-6.52Zm2.2,2.89a2.16,2.16,0,0,0-2.2-2.31,2.38,2.38,0,0,0-2.4,2.31Z"/><path class="cls-4" d="M112.84,53.26c0-.15,0-.22.17-.22s.39.26.39.69v.13a2.62,2.62,0,0,1,2.93-.72.22.22,0,0,1,.17.28l-.09.24c0,.12-.14.14-.25.08a1.88,1.88,0,0,0-.84-.2,2.26,2.26,0,0,0-1.89,1.07v4.52a.18.18,0,0,1-.2.2H113c-.12,0-.17-.09-.17-.2Z"/><path class="cls-4" d="M119.91,55.31a5.78,5.78,0,0,1,1.61.28c0-1.25-.33-2.08-1.66-2.08a4.24,4.24,0,0,0-1.61.42.16.16,0,0,1-.24-.09l-.08-.19a.16.16,0,0,1,.09-.23,4.11,4.11,0,0,1,1.89-.46c1.88,0,2.2,1.23,2.2,2.71v3.5c0,.15,0,.22-.17.22s-.39-.26-.39-.69v-.1h0a3.23,3.23,0,0,1-2.19.89,1.93,1.93,0,0,1-2-2.06C117.32,56.21,118.28,55.31,119.91,55.31Zm-.5,3.59a3,3,0,0,0,2.11-.94v-1.8a4.43,4.43,0,0,0-1.61-.32c-1.19,0-2,.64-2,1.56A1.45,1.45,0,0,0,119.41,58.9Z"/><path class="cls-4" d="M127.09,53a3,3,0,0,1,2.3,1,.19.19,0,0,1,0,.28l-.11.11c-.12.12-.23.08-.34,0a2.73,2.73,0,0,0-1.84-.74,2.68,2.68,0,1,0,2,4.4.18.18,0,0,1,.3,0l.12.11a.18.18,0,0,1,0,.24,3.13,3.13,0,0,1-2.45,1.2,3.26,3.26,0,0,1,0-6.52Z"/><path class="cls-4" d="M130.86,50.85a.53.53,0,0,1,.54-.52.52.52,0,1,1,0,1A.53.53,0,0,1,130.86,50.85Zm.26,2.45a.2.2,0,0,1,.2-.21h.19a.22.22,0,0,1,.2.21v5.83a.18.18,0,0,1-.2.2h-.22c-.12,0-.17-.09-.17-.2Z"/><path class="cls-4" d="M136.58,53a3.26,3.26,0,1,1-3.13,3.24A3.19,3.19,0,0,1,136.58,53Zm0,5.94a2.68,2.68,0,1,0-2.53-2.7A2.59,2.59,0,0,0,136.58,58.9Z"/><path class="cls-4" d="M141.51,53.26c0-.15.05-.22.18-.22s.39.26.39.69v.16a3,3,0,0,1,2.17-.93c1.77,0,2.35,1.09,2.35,2.73v3.44a.2.2,0,0,1-.2.2h-.19a.2.2,0,0,1-.2-.2V55.71c0-1.44-.58-2.17-1.79-2.17a2.86,2.86,0,0,0-2.12,1.07v4.52c0,.14-.06.2-.2.2h-.21c-.13,0-.18-.09-.18-.2Z"/><path class="cls-4" d="M151.37,53a2.74,2.74,0,0,1,2.79,2.84c0,.24,0,.6-.23.6h-5a2.47,2.47,0,0,0,2.42,2.5,3.35,3.35,0,0,0,1.91-.62c.14-.08.21-.09.27,0l.15.23c.06.05,0,.16-.07.24a4,4,0,0,1-2.26.73,3.27,3.27,0,0,1,0-6.52Zm2.2,2.89a2.17,2.17,0,0,0-2.2-2.31A2.38,2.38,0,0,0,149,55.85Z"/><path class="cls-4" d="M155.5,58.56l.12-.21c0-.1.17-.11.28,0a2.78,2.78,0,0,0,1.7.61c1,0,1.56-.46,1.56-1.12s-.76-1.06-1.81-1.45-1.87-.82-1.87-1.81c0-.67.57-1.59,2-1.59a3.46,3.46,0,0,1,1.76.47.23.23,0,0,1,.08.29l-.08.14a.19.19,0,0,1-.27.06,3.6,3.6,0,0,0-1.49-.41c-1,0-1.4.56-1.4,1s.62,1,1.54,1.3c1.16.43,2.13.78,2.13,2,0,.94-.89,1.67-2.15,1.67a3.22,3.22,0,0,1-2-.69A.17.17,0,0,1,155.5,58.56Z"/></g></g></svg>