<svg xmlns="http://www.w3.org/2000/svg" xmlns:xlink="http://www.w3.org/1999/xlink" viewBox="0 0 220.94 79"><defs><style>.cls-1{fill:url(#linear-gradient);filter:url(#luminosity-noclip);}.cls-2{opacity:0.25;}.cls-3{mask:url(#mask);}.cls-4{fill:#fff;}.cls-5{fill:none;stroke:#fff;stroke-width:0.5px;}</style><linearGradient id="linear-gradient" x1="698.88" y1="704.81" x2="699.88" y2="704.81" gradientTransform="matrix(0, -77.85, -77.85, 0, 54980.88, 54487.24)" gradientUnits="userSpaceOnUse"><stop offset="0" stop-color="#fff"/><stop offset="1"/></linearGradient><filter id="luminosity-noclip" x="-8.66" y="-6.96" width="238.27" height="86.93" filterUnits="userSpaceOnUse" color-interpolation-filters="sRGB"><feFlood flood-color="#fff" result="bg"/><feBlend in="SourceGraphic" in2="bg"/></filter><mask id="mask" x="-8.66" y="-6.96" width="238.27" height="86.93" maskUnits="userSpaceOnUse"><rect class="cls-1" x="-8.66" y="-6.96" width="238.27" height="86.93"/></mask></defs><g id="Layer_2" data-name="Layer 2"><g id="Layer_1-2" data-name="Layer 1"><g class="cls-2"><g class="cls-3"><rect class="cls-4" x="0.34" y="0.03" width="220.27" height="78.94"/></g></g><rect class="cls-5" x="0.25" y="0.25" width="220.44" height="78.5"/><path class="cls-4" d="M44.6,24.68a.76.76,0,0,1-.72-.8v-2.6a.77.77,0,0,1,.24-.6l5.36-4.19A2.25,2.25,0,0,1,50.92,16h3a.79.79,0,0,1,.76.76V43.2a.8.8,0,0,1-.76.8H49.36a.78.78,0,0,1-.8-.8V24.68Z"/><path class="cls-4" d="M62.2,40.92c-.16-.52,0-1,.8-1.2,1.92-.64,7.28-2.44,8.28-6.56a12.35,12.35,0,0,1-3.92.84c-3.88,0-8.2-2.88-8.2-9a9.47,9.47,0,0,1,9.44-9.43c6.35,0,9.91,4.79,9.91,11.19,0,12.12-9.51,16.72-13.83,17.92a.94.94,0,0,1-1.28-.64ZM72.63,25.24a4,4,0,1,0-3.95,4A4,4,0,0,0,72.63,25.24Z"/><path class="cls-4" d="M80.64,39.8,83,37.12a.75.75,0,0,1,1-.08,6.77,6.77,0,0,0,4.51,1.88,3.25,3.25,0,0,0,3.56-3.28c0-2-1.84-3.36-4.87-3.36H85a.79.79,0,0,1-.76-.76V28.08a.76.76,0,0,1,.76-.76h2.32c2.87,0,4.39-1.36,4.39-3.12a3,3,0,0,0-3.27-3.12,4.78,4.78,0,0,0-3.6,1.64.77.77,0,0,1-1.12.08l-2.52-2.48a.76.76,0,0,1,0-1.08A10.7,10.7,0,0,1,89,15.61c4.8,0,8.92,2.91,8.92,7.55a7.33,7.33,0,0,1-4.24,6.32v.16a7,7,0,0,1,5,6.64c0,4.48-3.92,8.12-9.6,8.12-5.19,0-7.59-2.48-8.47-3.56A.84.84,0,0,1,80.64,39.8Z"/><path class="cls-4" d="M105.48,37c2.23,0,4.19,1.6,4.19,5.2a13.13,13.13,0,0,1-3.31,8.16.7.7,0,0,1-1,0L104,49.2c-.28-.32-.2-.68.12-1,1-1.24,2.08-2.8,2.08-4.24a1,1,0,0,0,0-.36,2.57,2.57,0,0,1-1.51.44c-2,0-3-1.56-3-3.48A3.57,3.57,0,0,1,105.48,37Z"/><path class="cls-4" d="M114.76,40.92c-.17-.52-.05-1,.79-1.2,1.92-.64,7.28-2.44,8.28-6.56a12.3,12.3,0,0,1-3.92.84c-3.88,0-8.19-2.88-8.19-9a9.47,9.47,0,0,1,9.43-9.43c6.36,0,9.92,4.79,9.92,11.19,0,12.12-9.52,16.72-13.84,17.92a.94.94,0,0,1-1.28-.64Zm10.43-15.68a4,4,0,1,0-7.92,0,4,4,0,1,0,7.92,0Z"/><path class="cls-4" d="M134.32,30c0-9,3.79-14.39,10.51-14.39S155.39,21,155.39,30s-3.84,14.4-10.56,14.4S134.32,39,134.32,30Zm14.79,0c0-5.4-1.76-8.56-4.28-8.56s-4.24,3.16-4.24,8.56,1.76,8.6,4.24,8.6S149.11,35.44,149.11,30Z"/><path class="cls-4" d="M174.51,38.72a.8.8,0,0,1,.8.8V43.2a.8.8,0,0,1-.8.8H158a.77.77,0,0,1-.76-.8v-.32c0-.4,0-.48.52-1.16,2.63-3.52,8.11-11,10.39-14.44a6.16,6.16,0,0,0,1-3.08c0-1.6-1.32-3-3.6-3a5.87,5.87,0,0,0-4,2.08.82.82,0,0,1-1.16,0L158,20.72a.8.8,0,0,1,0-1.08,11,11,0,0,1,8.23-4c5.88,0,9.36,3.75,9.36,8.31a10.1,10.1,0,0,1-1.6,5.32c-1.28,2.32-4.64,6.68-6.56,9.4v.08Z"/><path class="cls-4" d="M46.1,54.13H43.52c-.13,0-.17-.08-.17-.2v-.21a.17.17,0,0,1,.17-.17h5.81a.17.17,0,0,1,.18.17V54a.17.17,0,0,1-.18.18H46.74v8.69c0,.1-.08.18-.22.18h-.24a.18.18,0,0,1-.18-.18Z"/><path class="cls-4" d="M52.72,56.63a3.26,3.26,0,1,1-3.13,3.24A3.19,3.19,0,0,1,52.72,56.63Zm0,5.94a2.68,2.68,0,1,0-2.54-2.7A2.59,2.59,0,0,0,52.72,62.57Z"/><path class="cls-4" d="M57,57.34c-.17,0-.21-.08-.21-.2v-.22c0-.12.09-.16.21-.16h.75v-1.7a.21.21,0,0,1,.22-.2l.17,0a.21.21,0,0,1,.21.21v1.71h2.2a.2.2,0,0,1,.21.2v.18a.19.19,0,0,1-.21.2h-2.2v4c0,.81.27,1.26,1.06,1.26a2.39,2.39,0,0,0,1.22-.43c.13-.08.2,0,.24,0l.11.19a.17.17,0,0,1,0,.24,2.85,2.85,0,0,1-1.53.53c-1.27,0-1.65-.82-1.65-1.84v-4Z"/><path class="cls-4" d="M64.57,59a5.78,5.78,0,0,1,1.61.28c0-1.26-.33-2.08-1.66-2.08a4.24,4.24,0,0,0-1.61.42.16.16,0,0,1-.24-.1l-.08-.18c-.06-.13,0-.19.09-.23a4.11,4.11,0,0,1,1.89-.46c1.88,0,2.2,1.23,2.2,2.71v3.5c0,.15,0,.21-.17.21s-.4-.25-.4-.68v-.1h0a3.23,3.23,0,0,1-2.19.89,1.93,1.93,0,0,1-2-2.07C62,59.88,62.94,59,64.57,59Zm-.5,3.59a3,3,0,0,0,2.11-1V59.83a4.17,4.17,0,0,0-1.61-.33c-1.19,0-2,.65-2,1.57A1.45,1.45,0,0,0,64.07,62.57Z"/><path class="cls-4" d="M69,53.75a.19.19,0,0,1,.2-.2h.19a.21.21,0,0,1,.2.2v9a.18.18,0,0,1-.2.2h-.22c-.12,0-.17-.09-.17-.2Z"/><path class="cls-4" d="M77.73,56.63a3.39,3.39,0,0,1,2,.6V53.75a.19.19,0,0,1,.21-.2h.2a.21.21,0,0,1,.19.2v9.09c0,.15-.06.21-.18.21s-.39-.25-.39-.68v-.1a3.07,3.07,0,0,1-2.17.88,3,3,0,0,1-2.84-3.27A3.07,3.07,0,0,1,77.73,56.63Zm-.13,5.94a2.58,2.58,0,0,0,2.1-1V57.91a3,3,0,0,0-1.89-.7,2.55,2.55,0,0,0-2.49,2.67A2.5,2.5,0,0,0,77.6,62.57Z"/><path class="cls-4" d="M85.14,56.63a2.74,2.74,0,0,1,2.8,2.83c0,.25,0,.61-.23.61h-5a2.46,2.46,0,0,0,2.41,2.5A3.47,3.47,0,0,0,87.06,62c.14-.08.2-.1.27,0l.15.23s0,.16-.07.24a4,4,0,0,1-2.27.73,3.27,3.27,0,0,1,0-6.52Zm2.21,2.89a2.17,2.17,0,0,0-2.21-2.31,2.38,2.38,0,0,0-2.4,2.31Z"/><path class="cls-4" d="M95,59a5.77,5.77,0,0,1,1.6.28c0-1.26-.32-2.08-1.66-2.08a4.3,4.3,0,0,0-1.61.42.16.16,0,0,1-.24-.1L93,57.32a.17.17,0,0,1,.09-.23,4.17,4.17,0,0,1,1.9-.46c1.87,0,2.2,1.23,2.2,2.71v3.5c0,.15-.06.21-.18.21s-.39-.25-.39-.68v-.1h0a3.28,3.28,0,0,1-2.19.89,1.94,1.94,0,0,1-2-2.07C92.39,59.88,93.35,59,95,59Zm-.5,3.59a3,3,0,0,0,2.1-1V59.83A4.11,4.11,0,0,0,95,59.5c-1.19,0-2,.65-2,1.57A1.45,1.45,0,0,0,94.49,62.57Z"/><path class="cls-4" d="M98.87,62.23,99,62a.19.19,0,0,1,.29,0,2.85,2.85,0,0,0,1.7.61c.94,0,1.55-.46,1.55-1.13s-.75-1-1.81-1.44-1.86-.82-1.86-1.81c0-.68.57-1.59,2-1.59a3.41,3.41,0,0,1,1.75.47.2.2,0,0,1,.08.28l-.08.15c0,.11-.16.11-.27.06a3.39,3.39,0,0,0-1.48-.41c-1,0-1.41.55-1.41,1s.62,1,1.54,1.29c1.16.43,2.14.79,2.14,2,0,1-.89,1.68-2.15,1.68a3.22,3.22,0,0,1-2-.69A.17.17,0,0,1,98.87,62.23Z"/><path class="cls-4" d="M107.51,56.63a3.26,3.26,0,1,1-3.13,3.24A3.19,3.19,0,0,1,107.51,56.63Zm0,5.94a2.68,2.68,0,1,0-2.54-2.7A2.59,2.59,0,0,0,107.51,62.57Z"/><path class="cls-4" d="M115.28,56.63a3,3,0,0,1,2.29,1,.19.19,0,0,1,0,.28l-.11.11c-.12.12-.23.08-.34,0a2.72,2.72,0,0,0-1.83-.74,2.68,2.68,0,1,0,2,4.4.18.18,0,0,1,.3,0l.12.1a.19.19,0,0,1,0,.25,3.13,3.13,0,0,1-2.44,1.2,3.26,3.26,0,0,1,0-6.52Z"/><path class="cls-4" d="M119,54.52a.53.53,0,0,1,.54-.53.52.52,0,1,1-.54.53ZM119.3,57a.2.2,0,0,1,.2-.2h.19a.22.22,0,0,1,.2.2V62.8a.18.18,0,0,1-.2.2h-.22c-.12,0-.17-.09-.17-.2Z"/><path class="cls-4" d="M124.12,59a6,6,0,0,1,1.61.28c0-1.26-.33-2.08-1.67-2.08a4.17,4.17,0,0,0-1.6.42c-.14,0-.21,0-.25-.1l-.08-.18a.17.17,0,0,1,.1-.23,4.11,4.11,0,0,1,1.89-.46c1.88,0,2.2,1.23,2.2,2.71v3.5c0,.15,0,.21-.18.21s-.39-.25-.39-.68v-.1h0a3.23,3.23,0,0,1-2.19.89,1.93,1.93,0,0,1-2-2.07C121.53,59.88,122.48,59,124.12,59Zm-.5,3.59a3,3,0,0,0,2.11-1V59.83a4.22,4.22,0,0,0-1.61-.33c-1.19,0-2,.65-2,1.57A1.45,1.45,0,0,0,123.62,62.57Z"/><path class="cls-4" d="M131.11,56.63a3.43,3.43,0,0,1,2,.6V53.75a.19.19,0,0,1,.21-.2h.2a.21.21,0,0,1,.19.2v9.09c0,.15-.06.21-.18.21s-.39-.25-.39-.68v-.1a3.07,3.07,0,0,1-2.17.88,3,3,0,0,1-2.84-3.27A3.07,3.07,0,0,1,131.11,56.63ZM131,62.57a2.58,2.58,0,0,0,2.1-1V57.91a3,3,0,0,0-1.89-.7,2.56,2.56,0,0,0-2.5,2.67A2.51,2.51,0,0,0,131,62.57Z"/><path class="cls-4" d="M138.62,56.63a3.26,3.26,0,1,1-3.14,3.24A3.19,3.19,0,0,1,138.62,56.63Zm0,5.94a2.68,2.68,0,1,0-2.54-2.7A2.59,2.59,0,0,0,138.62,62.57Z"/><path class="cls-4" d="M143.08,62.23l.13-.22c0-.09.17-.1.28,0a2.85,2.85,0,0,0,1.7.61c.95,0,1.55-.46,1.55-1.13s-.75-1-1.81-1.44-1.86-.82-1.86-1.81c0-.68.57-1.59,2-1.59a3.49,3.49,0,0,1,1.76.47.22.22,0,0,1,.08.28l-.08.15a.19.19,0,0,1-.27.06,3.45,3.45,0,0,0-1.49-.41c-1,0-1.4.55-1.4,1s.62,1,1.53,1.29c1.17.43,2.14.79,2.14,2,0,1-.89,1.68-2.15,1.68a3.22,3.22,0,0,1-2-.69A.17.17,0,0,1,143.08,62.23Z"/></g></g></svg>