<svg xmlns="http://www.w3.org/2000/svg" xmlns:xlink="http://www.w3.org/1999/xlink" viewBox="0 0 172.53 79"><defs><style>.cls-1{fill:url(#linear-gradient);filter:url(#luminosity-noclip);}.cls-2{opacity:0.25;}.cls-3{mask:url(#mask);}.cls-4{fill:#fff;}.cls-5{fill:none;stroke:#fff;stroke-width:0.5px;}</style><linearGradient id="linear-gradient" x1="446.87" y1="-281.22" x2="447.87" y2="-281.22" gradientTransform="matrix(0, -77.85, -77.85, 0, -21806.99, 34868.08)" gradientUnits="userSpaceOnUse"><stop offset="0" stop-color="#fff"/><stop offset="1"/></linearGradient><filter id="luminosity-noclip" x="-8.74" y="-6.97" width="190" height="86.94" filterUnits="userSpaceOnUse" color-interpolation-filters="sRGB"><feFlood flood-color="#fff" result="bg"/><feBlend in="SourceGraphic" in2="bg"/></filter><mask id="mask" x="-8.74" y="-6.97" width="190" height="86.94" maskUnits="userSpaceOnUse"><rect class="cls-1" x="-8.74" y="-6.97" width="190" height="86.94"/></mask></defs><g id="Layer_2" data-name="Layer 2"><g id="Layer_1-2" data-name="Layer 1"><g class="cls-2"><g class="cls-3"><rect class="cls-4" x="0.26" y="0.03" width="172" height="78.94"/></g></g><rect class="cls-5" x="0.25" y="0.25" width="172.03" height="78.5"/><path class="cls-4" d="M28.51,35a.36.36,0,0,1,.36.36V37a.36.36,0,0,1-.36.36H21.09a.34.34,0,0,1-.34-.36v-.14c0-.18,0-.22.24-.52,1.18-1.59,3.65-4.94,4.68-6.5a2.81,2.81,0,0,0,.47-1.39,1.45,1.45,0,0,0-1.63-1.35,2.66,2.66,0,0,0-1.8.94.37.37,0,0,1-.52,0l-1.13-1.16a.34.34,0,0,1,0-.48,5,5,0,0,1,3.71-1.82c2.64,0,4.21,1.69,4.21,3.74a4.56,4.56,0,0,1-.72,2.4c-.57,1-2.09,3-2.95,4.23v0Z"/><path class="cls-4" d="M32.36,34.18c1,0,1.89.72,1.89,2.34a5.9,5.9,0,0,1-1.49,3.68.33.33,0,0,1-.45,0l-.6-.53c-.12-.14-.09-.3.06-.46a3.34,3.34,0,0,0,.93-1.91.92.92,0,0,0,0-.16,1.27,1.27,0,0,1-.69.19,1.38,1.38,0,0,1-1.35-1.56A1.61,1.61,0,0,1,32.36,34.18Z"/><path class="cls-4" d="M36,35.44l1.08-1.2a.33.33,0,0,1,.47,0,3,3,0,0,0,2,.85,1.46,1.46,0,0,0,1.6-1.48c0-.92-.82-1.51-2.19-1.51h-1a.35.35,0,0,1-.34-.34V30.17a.34.34,0,0,1,.34-.34h1c1.29,0,2-.62,2-1.41A1.35,1.35,0,0,0,39.47,27a2.17,2.17,0,0,0-1.62.73.33.33,0,0,1-.5,0l-1.14-1.12a.34.34,0,0,1,0-.48,4.83,4.83,0,0,1,3.55-1.64c2.16,0,4,1.31,4,3.4a3.31,3.31,0,0,1-1.9,2.85v.07a3.14,3.14,0,0,1,2.23,3c0,2-1.77,3.65-4.32,3.65A4.62,4.62,0,0,1,36,35.91.38.38,0,0,1,36,35.44Z"/><path class="cls-4" d="M45.54,31c0-4.07,1.71-6.48,4.73-6.48S55,27,55,31s-1.73,6.48-4.76,6.48S45.54,35.08,45.54,31Zm6.66,0c0-2.43-.79-3.85-1.93-3.85S48.36,28.6,48.36,31s.8,3.87,1.91,3.87S52.2,33.48,52.2,31Z"/><path class="cls-4" d="M62.69,24.39a.42.42,0,0,1,.58.29l.54,1.44c.07.21,0,.41-.36.54-.87.27-3.28,1.2-3.73,3a5,5,0,0,1,1.77-.38,3.72,3.72,0,0,1,3.69,4,4.27,4.27,0,0,1-4.25,4.25c-2.87,0-4.47-2.14-4.47-5A8.48,8.48,0,0,1,62.69,24.39ZM60.89,35a1.8,1.8,0,0,0,0-3.59,1.8,1.8,0,0,0,0,3.59Z"/><path class="cls-4" d="M23.45,55.31a5.78,5.78,0,0,1,1.61.28c0-1.25-.33-2.08-1.66-2.08a4.24,4.24,0,0,0-1.61.42.16.16,0,0,1-.24-.09l-.08-.19a.16.16,0,0,1,.09-.23A4.11,4.11,0,0,1,23.45,53c1.88,0,2.2,1.23,2.2,2.71v3.5c0,.15,0,.22-.17.22s-.39-.26-.39-.69v-.1h0a3.23,3.23,0,0,1-2.18.89,1.93,1.93,0,0,1-2-2.06C20.86,56.21,21.82,55.31,23.45,55.31ZM23,58.9A3,3,0,0,0,25.06,58v-1.8a4.43,4.43,0,0,0-1.61-.32c-1.19,0-2,.64-2,1.56A1.45,1.45,0,0,0,23,58.9Z"/><path class="cls-4" d="M27.34,58.56l.12-.21a.18.18,0,0,1,.28,0,2.85,2.85,0,0,0,1.71.61c.94,0,1.55-.46,1.55-1.12s-.76-1.06-1.81-1.45-1.86-.82-1.86-1.81c0-.67.56-1.59,2-1.59a3.42,3.42,0,0,1,1.76.47.23.23,0,0,1,.08.29l-.08.14c0,.11-.16.11-.27.06a3.54,3.54,0,0,0-1.49-.41c-1,0-1.4.56-1.4,1s.62,1,1.54,1.3c1.16.43,2.13.78,2.13,2,0,.94-.89,1.67-2.14,1.67a3.17,3.17,0,0,1-2-.69A.16.16,0,0,1,27.34,58.56Z"/><path class="cls-4" d="M36,53a3.26,3.26,0,1,1-3.13,3.24A3.19,3.19,0,0,1,36,53Zm0,5.94a2.68,2.68,0,1,0-2.54-2.7A2.59,2.59,0,0,0,36,58.9Z"/><path class="cls-4" d="M43.76,53a3,3,0,0,1,2.29,1,.19.19,0,0,1,0,.28l-.11.11c-.12.12-.23.08-.34,0a2.72,2.72,0,0,0-1.83-.74,2.68,2.68,0,1,0,2,4.4.18.18,0,0,1,.3,0l.12.11a.18.18,0,0,1,0,.24,3.13,3.13,0,0,1-2.44,1.2,3.26,3.26,0,0,1,0-6.52Z"/><path class="cls-4" d="M47.52,50.85a.53.53,0,0,1,.54-.52.52.52,0,1,1,0,1A.53.53,0,0,1,47.52,50.85Zm.26,2.45a.2.2,0,0,1,.2-.21h.19a.22.22,0,0,1,.2.21v5.83c0,.14-.06.2-.2.2H48c-.12,0-.17-.09-.17-.2Z"/><path class="cls-4" d="M52.6,55.31a5.77,5.77,0,0,1,1.6.28c0-1.25-.32-2.08-1.66-2.08a4.17,4.17,0,0,0-1.6.42.17.17,0,0,1-.25-.09l-.08-.19a.17.17,0,0,1,.1-.23A4.06,4.06,0,0,1,52.6,53c1.88,0,2.2,1.23,2.2,2.71v3.5c0,.15-.06.22-.18.22s-.39-.26-.39-.69v-.1h0a3.23,3.23,0,0,1-2.19.89,1.94,1.94,0,0,1-2-2.06C50,56.21,51,55.31,52.6,55.31Zm-.5,3.59A3,3,0,0,0,54.2,58v-1.8a4.36,4.36,0,0,0-1.6-.32c-1.19,0-2,.64-2,1.56A1.45,1.45,0,0,0,52.1,58.9Z"/><path class="cls-4" d="M59.59,53a3.39,3.39,0,0,1,2,.61V50.08a.2.2,0,0,1,.21-.2H62a.22.22,0,0,1,.19.2v9.09c0,.15-.06.22-.18.22s-.39-.26-.39-.69v-.1a3.07,3.07,0,0,1-2.17.88,3,3,0,0,1-2.84-3.27A3.07,3.07,0,0,1,59.59,53Zm-.13,5.94a2.55,2.55,0,0,0,2.1-1V54.24a3,3,0,0,0-1.89-.7,2.56,2.56,0,0,0-2.5,2.67A2.51,2.51,0,0,0,59.46,58.9Z"/><path class="cls-4" d="M67.1,53A3.26,3.26,0,1,1,64,56.2,3.19,3.19,0,0,1,67.1,53Zm0,5.94a2.68,2.68,0,1,0-2.54-2.7A2.59,2.59,0,0,0,67.1,58.9Z"/><path class="cls-4" d="M71.56,58.56l.13-.21c0-.1.17-.11.28,0a2.78,2.78,0,0,0,1.7.61c1,0,1.55-.46,1.55-1.12s-.75-1.06-1.81-1.45-1.86-.82-1.86-1.81c0-.67.57-1.59,2-1.59a3.49,3.49,0,0,1,1.76.47.23.23,0,0,1,.08.29l-.08.14c-.06.11-.17.11-.28.06a3.49,3.49,0,0,0-1.48-.41c-1,0-1.41.56-1.41,1s.63,1,1.54,1.3c1.17.43,2.14.78,2.14,2,0,.94-.89,1.67-2.15,1.67a3.22,3.22,0,0,1-2-.69A.17.17,0,0,1,71.56,58.56Z"/><path class="cls-4" d="M83.38,53a3.39,3.39,0,0,1,2,.61V50.08a.19.19,0,0,1,.2-.2h.2a.22.22,0,0,1,.19.2v9.09c0,.15,0,.22-.17.22s-.39-.26-.39-.69v-.1a3.1,3.1,0,0,1-2.18.88,3,3,0,0,1-2.83-3.27A3.07,3.07,0,0,1,83.38,53Zm-.14,5.94a2.58,2.58,0,0,0,2.11-1V54.24a3,3,0,0,0-1.89-.7A2.56,2.56,0,0,0,81,56.21,2.5,2.5,0,0,0,83.24,58.9Z"/><path class="cls-4" d="M90.79,53a2.73,2.73,0,0,1,2.79,2.84c0,.24,0,.6-.23.6h-5a2.47,2.47,0,0,0,2.42,2.5,3.39,3.39,0,0,0,1.92-.62c.13-.08.2-.09.27,0l.15.23c.05.05,0,.16-.07.24a4,4,0,0,1-2.27.73,3.27,3.27,0,0,1,0-6.52ZM93,55.85a2.17,2.17,0,0,0-2.2-2.31,2.38,2.38,0,0,0-2.4,2.31Z"/><path class="cls-4" d="M98.28,58.56l.17-.21a.19.19,0,0,1,.29,0,2.21,2.21,0,0,0,1.56.61,1.71,1.71,0,0,0,1.81-1.12c.17-.72-.51-1.05-1.47-1.45s-1.68-.82-1.45-1.8a2.32,2.32,0,0,1,2.37-1.6,2.81,2.81,0,0,1,1.64.48.19.19,0,0,1,0,.28l-.12.15a.19.19,0,0,1-.28.05,3,3,0,0,0-1.39-.4,1.56,1.56,0,0,0-1.64,1c-.15.62.4,1,1.24,1.3,1.06.43,2,.78,1.68,2a2.51,2.51,0,0,1-2.54,1.67,2.58,2.58,0,0,1-1.88-.69A.16.16,0,0,1,98.28,58.56Z"/><path class="cls-4" d="M104.89,53.68c-.16,0-.19-.08-.16-.2l0-.22a.21.21,0,0,1,.24-.16h.76l.39-1.7a.3.3,0,0,1,.26-.21h.18a.16.16,0,0,1,.16.2l-.4,1.72h2.2c.14,0,.2.09.17.2l0,.18a.26.26,0,0,1-.26.2h-2.2l-.92,4c-.19.81,0,1.25.78,1.25a2.83,2.83,0,0,0,1.31-.43c.16-.08.21,0,.23.06l.07.18a.22.22,0,0,1-.11.25,3.49,3.49,0,0,1-1.65.52c-1.27,0-1.46-.82-1.22-1.83l.91-4Z"/><path class="cls-4" d="M112.08,55.31a5.15,5.15,0,0,1,1.55.28c.29-1.25.15-2.07-1.19-2.07a5.14,5.14,0,0,0-1.7.41c-.15.06-.2,0-.22-.09l0-.19a.22.22,0,0,1,.15-.23,4.85,4.85,0,0,1,2-.46c1.87,0,1.91,1.23,1.57,2.72l-.81,3.49c0,.15-.1.22-.22.22s-.33-.26-.23-.69l0-.09v0a4.09,4.09,0,0,1-2.4.89A1.51,1.51,0,0,1,109,57.42,3,3,0,0,1,112.08,55.31Zm-1.32,3.59a3.77,3.77,0,0,0,2.32-.94l.41-1.8a3.75,3.75,0,0,0-1.53-.32,2.29,2.29,0,0,0-2.37,1.56A1.12,1.12,0,0,0,110.76,58.9Z"/><path class="cls-4" d="M117.05,53.68h-1c-.13,0-.16-.11-.14-.2l0-.18a.27.27,0,0,1,.24-.2h1l.23-1A2.67,2.67,0,0,1,120,49.75a2,2,0,0,1,1.59.66.22.22,0,0,1,0,.26l-.18.16a.18.18,0,0,1-.27,0,1.75,1.75,0,0,0-1.26-.51c-1,0-1.59.65-1.86,1.81l-.22,1h2.35c.13,0,.2.06.17.19l0,.21a.24.24,0,0,1-.26.18h-2.35l-1.25,5.45a.27.27,0,0,1-.25.2h-.21a.16.16,0,0,1-.14-.2Z"/><path class="cls-4" d="M122.37,53.68h-1c-.13,0-.16-.11-.14-.2l0-.18a.27.27,0,0,1,.24-.2h1l.23-1a2.66,2.66,0,0,1,2.59-2.39,2,2,0,0,1,1.59.66.22.22,0,0,1,0,.26l-.18.16a.18.18,0,0,1-.27,0,1.75,1.75,0,0,0-1.26-.51c-1,0-1.59.65-1.86,1.81l-.22,1h2.35c.13,0,.2.06.17.19l-.05.21a.24.24,0,0,1-.26.18H123l-1.26,5.45a.25.25,0,0,1-.24.2h-.21a.16.16,0,0,1-.14-.2Z"/></g></g></svg>