<svg xmlns="http://www.w3.org/2000/svg" xmlns:xlink="http://www.w3.org/1999/xlink" viewBox="0 0 172.53 79"><defs><style>.cls-1{fill:url(#linear-gradient);filter:url(#luminosity-noclip);}.cls-2{opacity:0.25;}.cls-3{mask:url(#mask);}.cls-4{fill:#fff;}.cls-5{fill:none;stroke:#fff;stroke-width:0.5px;}</style><linearGradient id="linear-gradient" x1="446.87" y1="448.78" x2="447.87" y2="448.78" gradientTransform="matrix(0, -77.85, -77.85, 0, 35024.47, 34868.08)" gradientUnits="userSpaceOnUse"><stop offset="0" stop-color="#fff"/><stop offset="1"/></linearGradient><filter id="luminosity-noclip" x="-8.74" y="-6.97" width="190" height="86.94" filterUnits="userSpaceOnUse" color-interpolation-filters="sRGB"><feFlood flood-color="#fff" result="bg"/><feBlend in="SourceGraphic" in2="bg"/></filter><mask id="mask" x="-8.74" y="-6.97" width="190" height="86.94" maskUnits="userSpaceOnUse"><rect class="cls-1" x="-8.74" y="-6.97" width="190" height="86.94"/></mask></defs><g id="Layer_2" data-name="Layer 2"><g id="Layer_1-2" data-name="Layer 1"><g class="cls-2"><g class="cls-3"><rect class="cls-4" x="0.26" y="0.03" width="172" height="78.94"/></g></g><rect class="cls-5" x="0.25" y="0.25" width="172.03" height="78.5"/><path class="cls-4" d="M22.21,33.41c-.07-.23,0-.43.36-.54.86-.28,3.28-1.09,3.73-2.95a5.51,5.51,0,0,1-1.77.38,3.74,3.74,0,0,1-3.69-4A4.27,4.27,0,0,1,25.09,22c2.86,0,4.47,2.16,4.47,5a8.24,8.24,0,0,1-6.23,8.06.43.43,0,0,1-.58-.28Zm4.7-7a1.79,1.79,0,1,0-1.78,1.8A1.81,1.81,0,0,0,26.91,26.36Z"/><path class="cls-4" d="M31.89,31.65c1,0,1.89.72,1.89,2.34a5.85,5.85,0,0,1-1.49,3.67.31.31,0,0,1-.45,0l-.59-.52c-.13-.14-.09-.31.05-.47a3.35,3.35,0,0,0,.94-1.91.5.5,0,0,0,0-.16,1.15,1.15,0,0,1-.69.2,1.39,1.39,0,0,1-1.35-1.57A1.6,1.6,0,0,1,31.89,31.65Z"/><path class="cls-4" d="M35.51,32.91l1.08-1.21a.34.34,0,0,1,.47,0,3,3,0,0,0,2,.84A1.46,1.46,0,0,0,40.7,31c0-.92-.83-1.52-2.2-1.52h-1a.35.35,0,0,1-.35-.34V27.63a.35.35,0,0,1,.35-.34h1c1.3,0,2-.61,2-1.4A1.36,1.36,0,0,0,39,24.48a2.19,2.19,0,0,0-1.62.74.35.35,0,0,1-.5,0l-1.14-1.12a.36.36,0,0,1,0-.49A4.86,4.86,0,0,1,39.29,22c2.16,0,4,1.31,4,3.4a3.28,3.28,0,0,1-1.91,2.84v.08a3.12,3.12,0,0,1,2.23,3c0,2-1.76,3.66-4.32,3.66a4.65,4.65,0,0,1-3.82-1.6A.38.38,0,0,1,35.51,32.91Z"/><path class="cls-4" d="M45.07,28.5c0-4.07,1.71-6.48,4.74-6.48s4.75,2.41,4.75,6.48S52.83,35,49.81,35,45.07,32.55,45.07,28.5Zm6.66,0c0-2.43-.79-3.86-1.92-3.86S47.9,26.07,47.9,28.5s.79,3.87,1.91,3.87S51.73,31,51.73,28.5Z"/><path class="cls-4" d="M55.49,32.91l1.08-1.21a.34.34,0,0,1,.47,0,3,3,0,0,0,2,.84A1.46,1.46,0,0,0,60.68,31c0-.92-.83-1.52-2.2-1.52h-1a.35.35,0,0,1-.34-.34V27.63a.34.34,0,0,1,.34-.34h1c1.3,0,2-.61,2-1.4A1.36,1.36,0,0,0,59,24.48a2.17,2.17,0,0,0-1.62.74.35.35,0,0,1-.5,0l-1.14-1.12a.36.36,0,0,1,0-.49A4.86,4.86,0,0,1,59.27,22c2.16,0,4,1.31,4,3.4a3.28,3.28,0,0,1-1.91,2.84v.08a3.12,3.12,0,0,1,2.23,3c0,2-1.76,3.66-4.32,3.66a4.65,4.65,0,0,1-3.82-1.6A.38.38,0,0,1,55.49,32.91Z"/><path class="cls-4" d="M23.45,52.78a5.78,5.78,0,0,1,1.61.28c0-1.26-.33-2.08-1.66-2.08a4.24,4.24,0,0,0-1.61.42.16.16,0,0,1-.24-.1l-.08-.19c-.06-.12,0-.18.09-.22a4.11,4.11,0,0,1,1.89-.46c1.88,0,2.2,1.22,2.2,2.71v3.5c0,.15,0,.21-.17.21s-.39-.25-.39-.69v-.09h0a3.23,3.23,0,0,1-2.18.89,1.94,1.94,0,0,1-2-2.07C20.86,53.68,21.82,52.78,23.45,52.78ZM23,56.37a3,3,0,0,0,2.11-.95V53.63a4.17,4.17,0,0,0-1.61-.33c-1.19,0-2,.65-2,1.57A1.45,1.45,0,0,0,23,56.37Z"/><path class="cls-4" d="M27.34,56l.12-.22a.18.18,0,0,1,.28,0,2.93,2.93,0,0,0,1.71.6c.94,0,1.55-.45,1.55-1.12s-.76-1.05-1.81-1.44S27.33,53,27.33,52c0-.68.56-1.59,2-1.59a3.42,3.42,0,0,1,1.76.47.22.22,0,0,1,.08.28l-.08.15c0,.11-.16.11-.27.05a3.58,3.58,0,0,0-1.49-.4c-1,0-1.4.55-1.4,1s.62,1,1.54,1.29c1.16.43,2.13.79,2.13,2,0,.95-.89,1.68-2.14,1.68a3.17,3.17,0,0,1-2-.69A.17.17,0,0,1,27.34,56Z"/><path class="cls-4" d="M36,50.43a3.26,3.26,0,1,1-3.13,3.24A3.19,3.19,0,0,1,36,50.43Zm0,5.94a2.68,2.68,0,1,0-2.54-2.7A2.59,2.59,0,0,0,36,56.37Z"/><path class="cls-4" d="M43.76,50.43a3,3,0,0,1,2.29,1,.2.2,0,0,1,0,.29l-.11.11c-.12.12-.23.08-.34,0A2.72,2.72,0,0,0,43.76,51a2.68,2.68,0,1,0,2,4.4.18.18,0,0,1,.3,0l.12.1a.19.19,0,0,1,0,.25A3.16,3.16,0,0,1,43.76,57a3.26,3.26,0,0,1,0-6.52Z"/><path class="cls-4" d="M47.52,48.32a.54.54,0,0,1,.54-.53.52.52,0,1,1,0,1A.53.53,0,0,1,47.52,48.32Zm.26,2.44a.19.19,0,0,1,.2-.2h.19a.21.21,0,0,1,.2.2V56.6a.18.18,0,0,1-.2.2H48c-.12,0-.17-.1-.17-.2Z"/><path class="cls-4" d="M52.6,52.78a5.77,5.77,0,0,1,1.6.28c0-1.26-.32-2.08-1.66-2.08a4.17,4.17,0,0,0-1.6.42c-.14.05-.21,0-.25-.1l-.08-.19c0-.12,0-.18.1-.22a4.06,4.06,0,0,1,1.89-.46c1.88,0,2.2,1.22,2.2,2.71v3.5c0,.15-.06.21-.18.21s-.39-.25-.39-.69v-.09h0A3.23,3.23,0,0,1,52,57a2,2,0,0,1-2-2.07C50,53.68,51,52.78,52.6,52.78Zm-.5,3.59a3,3,0,0,0,2.1-.95V53.63a4.11,4.11,0,0,0-1.6-.33c-1.19,0-2,.65-2,1.57A1.45,1.45,0,0,0,52.1,56.37Z"/><path class="cls-4" d="M59.59,50.43a3.43,3.43,0,0,1,2,.6V47.55a.19.19,0,0,1,.21-.2H62a.21.21,0,0,1,.19.2v9.09c0,.15-.06.21-.18.21s-.39-.25-.39-.69v-.09a3.07,3.07,0,0,1-2.17.88,3,3,0,0,1-2.84-3.27A3.07,3.07,0,0,1,59.59,50.43Zm-.13,5.94a2.55,2.55,0,0,0,2.1-1.06v-3.6a3,3,0,0,0-1.89-.7,2.56,2.56,0,0,0-2.5,2.67A2.51,2.51,0,0,0,59.46,56.37Z"/><path class="cls-4" d="M67.1,50.43A3.26,3.26,0,1,1,64,53.67,3.19,3.19,0,0,1,67.1,50.43Zm0,5.94a2.68,2.68,0,1,0-2.54-2.7A2.59,2.59,0,0,0,67.1,56.37Z"/><path class="cls-4" d="M71.56,56l.13-.22c0-.09.17-.1.28,0a2.86,2.86,0,0,0,1.7.6c1,0,1.55-.45,1.55-1.12s-.75-1.05-1.81-1.44S71.55,53,71.55,52c0-.68.57-1.59,2-1.59a3.49,3.49,0,0,1,1.76.47.22.22,0,0,1,.08.28l-.08.15c-.06.11-.17.11-.28.05a3.52,3.52,0,0,0-1.48-.4c-1,0-1.41.55-1.41,1s.63,1,1.54,1.29c1.17.43,2.14.79,2.14,2,0,.95-.89,1.68-2.15,1.68a3.22,3.22,0,0,1-2-.69A.18.18,0,0,1,71.56,56Z"/><path class="cls-4" d="M83.38,50.43a3.43,3.43,0,0,1,2,.6V47.55a.19.19,0,0,1,.2-.2h.2a.21.21,0,0,1,.19.2v9.09c0,.15,0,.21-.17.21s-.39-.25-.39-.69v-.09A3.1,3.1,0,0,1,83.2,57a3,3,0,0,1-2.83-3.27A3.07,3.07,0,0,1,83.38,50.43Zm-.14,5.94a2.58,2.58,0,0,0,2.11-1.06v-3.6a3,3,0,0,0-1.89-.7A2.56,2.56,0,0,0,81,53.68,2.5,2.5,0,0,0,83.24,56.37Z"/><path class="cls-4" d="M90.79,50.43a2.73,2.73,0,0,1,2.79,2.83c0,.24,0,.61-.23.61h-5a2.47,2.47,0,0,0,2.42,2.5,3.47,3.47,0,0,0,1.92-.62c.13-.08.2-.1.27,0l.15.23c.05.05,0,.16-.07.24a4,4,0,0,1-2.27.73,3.27,3.27,0,0,1,0-6.52ZM93,53.32A2.17,2.17,0,0,0,90.79,51a2.38,2.38,0,0,0-2.4,2.31Z"/><path class="cls-4" d="M98.28,56l.17-.22a.2.2,0,0,1,.29,0,2.26,2.26,0,0,0,1.56.61,1.7,1.7,0,0,0,1.81-1.13c.17-.71-.51-1.05-1.47-1.44S99,53,99.19,52a2.33,2.33,0,0,1,2.37-1.59,2.82,2.82,0,0,1,1.64.47.19.19,0,0,1,0,.28l-.12.15a.2.2,0,0,1-.28.06,2.94,2.94,0,0,0-1.39-.41,1.55,1.55,0,0,0-1.64,1c-.15.62.4,1,1.24,1.29,1.06.43,2,.79,1.68,2A2.51,2.51,0,0,1,100.17,57a2.58,2.58,0,0,1-1.88-.69A.16.16,0,0,1,98.28,56Z"/><path class="cls-4" d="M104.89,51.14c-.16,0-.19-.08-.16-.2l0-.22a.21.21,0,0,1,.24-.16h.76l.39-1.7a.28.28,0,0,1,.26-.2h.18c.11,0,.18.09.16.2l-.4,1.71h2.2a.16.16,0,0,1,.17.21l0,.17a.26.26,0,0,1-.26.2h-2.2l-.92,4c-.19.81,0,1.26.78,1.26a3,3,0,0,0,1.31-.43c.16-.08.21,0,.23.05l.07.19c0,.11,0,.17-.11.24A3.48,3.48,0,0,1,106,57c-1.27,0-1.46-.83-1.22-1.84l.91-4Z"/><path class="cls-4" d="M112.08,52.78a5.15,5.15,0,0,1,1.55.28c.29-1.26.15-2.08-1.19-2.08a5,5,0,0,0-1.7.42c-.15.05-.2,0-.22-.09l0-.19a.21.21,0,0,1,.15-.23,4.85,4.85,0,0,1,2-.46c1.87,0,1.91,1.23,1.57,2.71l-.81,3.5c0,.15-.1.21-.22.21s-.33-.25-.23-.69l0-.09h0a4.09,4.09,0,0,1-2.4.89A1.52,1.52,0,0,1,109,54.88,3,3,0,0,1,112.08,52.78Zm-1.32,3.59a3.78,3.78,0,0,0,2.32-.95l.41-1.79A3.59,3.59,0,0,0,112,53.3a2.29,2.29,0,0,0-2.37,1.57A1.12,1.12,0,0,0,110.76,56.37Z"/><path class="cls-4" d="M117.05,51.14h-1c-.13,0-.16-.1-.14-.2l0-.17a.28.28,0,0,1,.24-.21h1l.23-1A2.67,2.67,0,0,1,120,47.21a2,2,0,0,1,1.59.67.21.21,0,0,1,0,.25l-.18.16c-.1.1-.18.1-.27,0a1.75,1.75,0,0,0-1.26-.51c-1,0-1.59.64-1.86,1.8l-.22,1h2.35c.13,0,.2.07.17.19l0,.22a.24.24,0,0,1-.26.17h-2.35l-1.26,5.46a.26.26,0,0,1-.24.2h-.21a.16.16,0,0,1-.14-.2Z"/><path class="cls-4" d="M122.37,51.14h-1c-.13,0-.16-.1-.14-.2l0-.17a.28.28,0,0,1,.24-.21h1l.23-1a2.66,2.66,0,0,1,2.59-2.39,2,2,0,0,1,1.58.67.19.19,0,0,1,0,.25l-.18.16c-.1.1-.18.1-.27,0a1.75,1.75,0,0,0-1.26-.51c-1,0-1.59.64-1.86,1.8l-.22,1h2.35c.13,0,.2.07.17.19l-.05.22a.24.24,0,0,1-.26.17H123L121.7,56.6a.26.26,0,0,1-.24.2h-.21a.16.16,0,0,1-.14-.2Z"/></g></g></svg>