<?xml version="1.0" encoding="utf-8"?>
<!-- Generator: Adobe Illustrator 25.4.1, SVG Export Plug-In . SVG Version: 6.00 Build 0)  -->
<svg version="1.1" id="Capa_1" xmlns="http://www.w3.org/2000/svg" xmlns:xlink="http://www.w3.org/1999/xlink" x="0px" y="0px"
	 viewBox="0 0 618.6 61.2" style="enable-background:new 0 0 618.6 61.2;" xml:space="preserve">
<style type="text/css">
	.st0{fill:#FFFFFF;}
</style>
<g>
	<path class="st0" d="M53.8,0.6c8.4,0,14.5,2.7,20.2,7.7c0.7,0.7,0.7,1.7,0.1,2.3L69,16c-0.6,0.7-1.4,0.7-2.1,0
		c-3.5-3.1-8.2-4.9-12.8-4.9C43.4,11,35.5,20,35.5,30.4c0,10.4,8,19.2,18.7,19.2c5,0,9.2-1.9,12.7-4.7c0.7-0.6,1.6-0.5,2.1,0
		l5.2,5.3c0.7,0.6,0.5,1.7-0.1,2.2c-5.7,5.5-12.8,8.1-20.2,8.1c-16.7,0-30.1-13.2-30.1-29.9C23.7,14,37.2,0.6,53.8,0.6z"/>
	<path class="st0" d="M109.7,0.6c16.7,0,30,13.4,30,30.1c0,16.7-13.3,29.9-30,29.9c-16.7,0-29.9-13.2-29.9-29.9
		C79.8,14,93,0.6,109.7,0.6z M109.7,49.8c10.5,0,19.2-8.6,19.2-19.1s-8.7-19.2-19.2-19.2s-19.1,8.7-19.1,19.2S99.2,49.8,109.7,49.8z
		"/>
	<path class="st0" d="M156.7,1.9c0.1-0.7,0.6-1.2,1.5-1.2h1.3c0.7,0,1.2,0.3,1.4,0.8l18.3,39.3c0.2,0,0.2,0,0.3,0l18.3-39.3
		c0.3-0.5,0.7-0.8,1.4-0.8h1.3c0.9,0,1.4,0.6,1.5,1.2l9.8,56c0.3,1.2-0.4,1.9-1.5,1.9h-7.6c-0.7,0-1.4-0.7-1.6-1.2l-4.9-31.6
		c-0.1,0-0.3,0-0.3,0l-14.6,32.7c-0.2,0.5-0.7,0.9-1.4,0.9h-1.5c-0.7,0-1.2-0.4-1.4-0.9l-14.7-32.7c0,0-0.2,0-0.3,0l-4.8,31.6
		c-0.1,0.6-0.7,1.2-1.5,1.2h-7.5c-1.1,0-1.7-0.7-1.6-1.9L156.7,1.9z"/>
	<path class="st0" d="M229.7,1.9c0.1-0.7,0.6-1.2,1.5-1.2h1.3c0.7,0,1.2,0.3,1.4,0.8l18.3,39.3c0.2,0,0.2,0,0.2,0l18.3-39.3
		c0.3-0.5,0.7-0.8,1.4-0.8h1.3c0.9,0,1.4,0.6,1.5,1.2l9.8,56c0.3,1.2-0.4,1.9-1.5,1.9h-7.6c-0.7,0-1.4-0.7-1.6-1.2l-4.9-31.6
		c-0.1,0-0.3,0-0.3,0l-14.6,32.7c-0.2,0.5-0.7,0.9-1.4,0.9h-1.5c-0.7,0-1.2-0.4-1.4-0.9l-14.7-32.7c0,0-0.2,0-0.2,0l-4.8,31.6
		c-0.1,0.6-0.7,1.2-1.5,1.2h-7.5c-1.1,0-1.7-0.7-1.6-1.9L229.7,1.9z"/>
	<path class="st0" d="M294.7,3c0-0.8,0.7-1.6,1.6-1.6h7.9c0.9,0,1.6,0.7,1.6,1.6v34.7c0,7.1,4.8,12,12.1,12
		c7.2,0,12.2-4.9,12.2-11.9V3c0-0.8,0.7-1.6,1.6-1.6h7.9c0.8,0,1.6,0.7,1.6,1.6v35.3c0,12.7-10.1,22.2-23.2,22.2
		c-13.1,0-23.2-9.6-23.2-22.2V3z"/>
	<path class="st0" d="M354.7,2.1c0-0.8,0.7-1.5,1.6-1.5h1.2c0.6,0,1,0.2,1.4,0.6l34,36.2h0.2V3c0-0.8,0.7-1.6,1.6-1.6h7.7
		c0.8,0,1.6,0.7,1.6,1.6v56.1c0,0.8-0.7,1.5-1.6,1.5h-1.2c-0.6,0-1-0.2-1.4-0.6l-34.2-37.7h-0.2v35.8c0,0.8-0.7,1.6-1.6,1.6h-7.6
		c-0.8,0-1.6-0.7-1.6-1.6V2.1z"/>
	<path class="st0" d="M418.1,3c0-0.8,0.7-1.6,1.6-1.6h7.7c0.8,0,1.6,0.7,1.6,1.6v55.1c0,0.8-0.7,1.6-1.6,1.6h-7.7
		c-0.8,0-1.6-0.7-1.6-1.6V3z"/>
	<path class="st0" d="M452.6,11.5h-12.7c-0.9,0-1.6-0.7-1.6-1.6V3c0-0.8,0.7-1.6,1.6-1.6h36.4c0.9,0,1.6,0.7,1.6,1.6v6.8
		c0,0.8-0.7,1.6-1.6,1.6h-12.7v46.7c0,0.8-0.7,1.6-1.6,1.6h-7.7c-0.8,0-1.6-0.7-1.6-1.6V11.5z"/>
	<path class="st0" d="M487.1,3c0-0.8,0.7-1.6,1.6-1.6h7.7c0.8,0,1.6,0.7,1.6,1.6v55.1c0,0.8-0.8,1.6-1.6,1.6h-7.7
		c-0.8,0-1.6-0.7-1.6-1.6V3z"/>
	<path class="st0" d="M512.2,3c0-0.8,0.7-1.6,1.6-1.6h33.9c0.9,0,1.6,0.7,1.6,1.6v6.8c0,0.8-0.7,1.6-1.6,1.6H523v13.7h20.6
		c0.8,0,1.6,0.7,1.6,1.6v6.9c0,0.9-0.8,1.6-1.6,1.6H523v14.6h24.7c0.9,0,1.6,0.8,1.6,1.6v6.8c0,0.8-0.7,1.6-1.6,1.6h-33.9
		c-0.9,0-1.6-0.7-1.6-1.6V3z"/>
	<path class="st0" d="M557.4,54.1c-0.8-0.7-1.2-1.2-0.4-2.5l3-5.2c0.7-1.2,2.1-1.2,2.8-0.6c3.4,2.6,7.2,5.2,12.6,5.2
		c4.3,0,7.6-2.8,7.6-6.4c0-4.2-3.6-7.2-10.6-10c-7.8-3.2-15.7-8.2-15.7-18c0-7.4,5.5-16,18.7-16c8.5,0,15,4.3,16.7,5.6
		c0.8,0.5,1.1,1.9,0.5,2.8l-3.2,4.7c-0.7,1-1.9,1.7-2.9,1c-3.6-2.3-7-4.6-11.6-4.6c-4.7,0-7.3,2.7-7.3,5.8c0,3.9,3.1,6.6,9.8,9.3
		c8.1,3.2,17.4,8.1,17.4,18.8c0,8.6-7.4,16.5-19.2,16.5C565.2,60.6,559.8,56.2,557.4,54.1z"/>
</g>
</svg>
