<?xml version="1.0" encoding="utf-8"?>
<!-- Generator: Adobe Illustrator 25.4.1, SVG Export Plug-In . SVG Version: 6.00 Build 0)  -->
<svg version="1.1" id="Capa_1" xmlns="http://www.w3.org/2000/svg" xmlns:xlink="http://www.w3.org/1999/xlink" x="0px" y="0px"
	 viewBox="0 0 619.6 62.2" style="enable-background:new 0 0 619.6 62.2;" xml:space="preserve">
<style type="text/css">
	.st0{fill:#FFFFFF;}
</style>
<g>
	<path class="st0" d="M44.7,62.4c-8.4,0-16.3-3.2-22.2-9.1c-5.9-5.9-9.2-13.7-9.2-22.1c0-8.4,3.3-16.3,9.2-22.2
		c5.9-5.9,13.8-9.2,22.2-9.2c8.3,0,14.8,2.5,21,8.1c0.4,0.4,0.6,0.8,0.6,1.3c0,0.5-0.2,1-0.6,1.3L60.5,16c-0.3,0.4-0.7,0.5-1.1,0.6
		c-0.5,0-0.9-0.2-1.3-0.6C54.5,12.8,49.7,11,45,11c-10.7,0-19.1,8.8-19.1,20c0,5.3,1.9,10.2,5.5,13.9c3.6,3.8,8.5,5.9,13.7,5.9
		c4.7,0,9.1-1.6,13.1-4.9c0.8-0.7,1.8-0.5,2.4,0l5.4,5.5c0.3,0.3,0.5,0.6,0.5,1.1c0,0.5-0.2,1.1-0.6,1.5
		C60.1,59.5,52.8,62.4,44.7,62.4z M44.7,0.1c-8.3,0-16.1,3.2-22,9.1c-5.9,5.9-9.1,13.7-9.1,22c0,8.3,3.2,16.1,9.1,21.9
		c5.8,5.8,13.6,9,22,9c8,0,15.3-2.9,20.9-8.3c0.3-0.3,0.5-0.8,0.5-1.2c0-0.2-0.1-0.6-0.4-0.9l-5.4-5.5c-0.4-0.4-1.3-0.6-2,0
		c-4.1,3.3-8.5,5-13.3,5c-5.3,0-10.3-2.1-13.9-6c-3.6-3.8-5.6-8.8-5.6-14.1c0-11.4,8.5-20.3,19.4-20.3c4.8,0,9.7,1.9,13.4,5.1
		c0.3,0.3,0.7,0.5,1.1,0.5c0.3,0,0.6-0.2,0.9-0.5l5.3-5.5c0.3-0.3,0.5-0.7,0.5-1.1c0-0.4-0.2-0.8-0.5-1.1
		C59.4,2.6,52.9,0.1,44.7,0.1z"/>
	<path class="st0" d="M102.6,62.4c-8.4,0-16.2-3.2-22.1-9.1c-5.9-5.9-9.1-13.7-9.1-22.1c0-8.4,3.2-16.3,9.1-22.2
		c5.9-5.9,13.7-9.2,22.1-9.2c8.4,0,16.3,3.3,22.1,9.2c5.9,5.9,9.1,13.8,9.1,22.2c0,8.4-3.2,16.2-9.1,22.1
		C118.9,59.2,111.1,62.4,102.6,62.4z M102.6,0.1c-8.3,0-16.1,3.2-21.9,9.1c-5.8,5.8-9,13.6-9,22c0,8.3,3.2,16.1,9,21.9
		c5.8,5.8,13.6,9,21.9,9c8.3,0,16.1-3.2,21.9-9c5.8-5.8,9-13.6,9-21.9c0-8.3-3.2-16.1-9-22C118.8,3.4,111,0.1,102.6,0.1z
		 M102.6,51.1c-11,0-19.9-8.9-19.9-19.9c0-11.1,8.9-20.1,19.9-20.1c5.3,0,10.3,2.1,14.1,5.9c3.8,3.8,5.9,8.9,5.9,14.2
		C122.7,42.2,113.7,51.1,102.6,51.1z M102.6,11.4C91.8,11.4,83,20.3,83,31.2c0,10.8,8.8,19.6,19.6,19.6c10.9,0,19.7-8.8,19.7-19.6
		c0-5.2-2.1-10.2-5.8-14C112.8,13.5,107.9,11.4,102.6,11.4z"/>
	<path class="st0" d="M175.7,62.4h-1.6c-0.7,0-1.3-0.3-1.6-1l-15.3-33.9h0l-5,32.6c-0.1,0.7-0.8,1.4-1.7,1.4h-7.8
		c-0.6,0-1.1-0.2-1.4-0.6c-0.3-0.4-0.5-0.9-0.4-1.6l10.3-58.1c0.1-0.9,0.8-1.4,1.7-1.4h1.4c0.7,0,1.3,0.3,1.6,0.9l19,40.7h0.1
		l19-40.7c0.3-0.6,0.8-1,1.6-1h1.4c0.9,0,1.6,0.6,1.7,1.4l10.2,58.1c0.1,0.6,0,1.2-0.3,1.6c-0.3,0.4-0.8,0.6-1.4,0.6h-7.9
		c-0.8,0-1.6-0.7-1.8-1.4l-5.1-32.6h0l-15.1,33.9C177.1,62,176.5,62.4,175.7,62.4z M157,27.2h0.5l0,0.1l15.3,34
		c0.3,0.6,0.7,0.9,1.3,0.9h1.6c0.8,0,1.2-0.5,1.3-0.8l15.2-34.1h0.5l0,0.1l5.1,32.8c0.2,0.5,0.8,1.2,1.5,1.2h7.9
		c0.5,0,0.9-0.2,1.2-0.5c0.3-0.3,0.3-0.8,0.2-1.3L198.4,1.3c-0.1-0.6-0.5-1.2-1.4-1.2h-1.4c-0.6,0-1.1,0.2-1.3,0.8l-19,40.9h-0.5
		l0-0.1l-19-40.8c-0.2-0.5-0.7-0.8-1.3-0.8H153c-0.9,0-1.3,0.6-1.4,1.2l0,0l-10.3,58.1c-0.1,0.5,0,1,0.3,1.3
		c0.3,0.3,0.7,0.5,1.2,0.5h7.8c0.7,0,1.3-0.6,1.4-1.2L157,27.2z"/>
	<path class="st0" d="M251.5,62.4h-1.6c-0.7,0-1.3-0.3-1.6-1L233,27.5h0l-5,32.6c-0.1,0.7-0.8,1.4-1.7,1.4h-7.8
		c-0.6,0-1.1-0.2-1.4-0.6c-0.3-0.4-0.5-0.9-0.4-1.6L227,1.3c0.1-0.9,0.8-1.4,1.7-1.4h1.4c0.7,0,1.3,0.3,1.6,0.9l19,40.7h0.1l19-40.7
		c0.3-0.6,0.8-1,1.6-1h1.4c0.9,0,1.6,0.6,1.7,1.4l10.2,58.1c0.1,0.6,0,1.2-0.3,1.6c-0.3,0.4-0.8,0.6-1.4,0.6h-7.9
		c-0.8,0-1.6-0.7-1.8-1.4l-5.1-32.6h0l-15.1,33.9C252.9,62,252.2,62.4,251.5,62.4z M232.8,27.2h0.5l0,0.1l15.3,34
		c0.3,0.6,0.7,0.9,1.3,0.9h1.6c0.8,0,1.2-0.4,1.3-0.8L268,27.2h0.5l0,0.1l5.1,32.8c0.2,0.5,0.8,1.2,1.5,1.2h7.9
		c0.5,0,0.9-0.2,1.2-0.5c0.3-0.3,0.3-0.8,0.2-1.3L274.1,1.3c-0.1-0.6-0.5-1.2-1.4-1.2h-1.4c-0.6,0-1.1,0.2-1.3,0.8L251,41.8h-0.4
		l0-0.1l-19-40.8c-0.2-0.5-0.7-0.8-1.3-0.8h-1.4c-0.9,0-1.3,0.6-1.4,1.2l0,0L217,59.4c-0.1,0.5,0,1,0.3,1.3c0.3,0.3,0.7,0.5,1.2,0.5
		h7.8c0.7,0,1.3-0.6,1.4-1.2L232.8,27.2z"/>
	<path class="st0" d="M318.7,62.4c-6.6,0-12.7-2.4-17.2-6.7c-4.5-4.3-7-10.2-7-16.6V2.5c0-0.9,0.9-1.8,1.8-1.8h8.2
		c1,0,1.8,0.8,1.8,1.8v36c0,7.4,5,12.3,12.4,12.3c7.3,0,12.5-5,12.5-12.2V2.5c0-1,0.8-1.8,1.8-1.8h8.2c0.9,0,1.8,0.9,1.8,1.8v36.6
		C342.9,52.4,332.5,62.4,318.7,62.4z M296.3,1c-0.8,0-1.5,0.7-1.5,1.5v36.6c0,6.3,2.4,12.1,6.9,16.4c4.4,4.2,10.5,6.6,17,6.6
		c13.7,0,24-9.9,24-22.9V2.5c0-0.8-0.7-1.5-1.5-1.5h-8.2c-0.8,0-1.5,0.7-1.5,1.5v36.1c0,7.4-5.3,12.5-12.8,12.5
		c-7.6,0-12.7-5.1-12.7-12.6v-36c0-0.8-0.7-1.5-1.5-1.5H296.3z"/>
	<path class="st0" d="M406.3,62.4h-1.2c-0.6,0-1.1-0.2-1.6-0.6l-35.4-39v37c0,1-0.8,1.8-1.8,1.8h-7.9c-0.9,0-1.8-0.9-1.8-1.8V1.6
		c0-0.9,0.8-1.7,1.8-1.7h1.3c0.6,0,1.1,0.2,1.6,0.6L396.6,38V2.5c0-1,0.8-1.8,1.8-1.8h8c0.9,0,1.8,0.9,1.8,1.8v58.2
		C408.1,61.6,407.3,62.4,406.3,62.4z M367.9,22.4h0.4l0,0l35.4,39.1c0.4,0.4,0.8,0.6,1.4,0.6h1.2c0.8,0,1.5-0.6,1.5-1.4V2.5
		c0-0.8-0.7-1.5-1.5-1.5h-8c-0.8,0-1.5,0.7-1.5,1.5v35.9h-0.4l0,0L361.2,0.7c-0.4-0.4-0.8-0.6-1.4-0.6h-1.3c-0.8,0-1.5,0.6-1.5,1.4
		v58.2c0,0.8,0.7,1.5,1.5,1.5h7.9c0.8,0,1.5-0.7,1.5-1.5V22.4z"/>
	<path class="st0" d="M432.4,61.5h-8c-0.9,0-1.8-0.9-1.8-1.8V2.5c0-0.9,0.9-1.8,1.8-1.8h8c0.9,0,1.8,0.9,1.8,1.8v57.2
		C434.2,60.7,433.3,61.5,432.4,61.5z M424.3,1c-0.8,0-1.5,0.7-1.5,1.5v57.2c0,0.8,0.7,1.5,1.5,1.5h8c0.8,0,1.5-0.7,1.5-1.5V2.5
		c0-0.8-0.7-1.5-1.5-1.5H424.3z"/>
	<path class="st0" d="M468.2,61.5h-8c-0.9,0-1.8-0.9-1.8-1.8V11.4h-13.1c-1,0-1.8-0.8-1.8-1.8V2.5c0-1,0.8-1.8,1.8-1.8H483
		c1,0,1.8,0.8,1.8,1.8v7.1c0,1-0.8,1.8-1.8,1.8H470v48.3C470,60.7,469.1,61.5,468.2,61.5z M445.3,1c-0.8,0-1.5,0.7-1.5,1.5v7.1
		c0,0.8,0.7,1.5,1.5,1.5h13.4v48.6c0,0.8,0.7,1.5,1.5,1.5h8c0.8,0,1.5-0.7,1.5-1.5V11.1H483c0.8,0,1.5-0.7,1.5-1.5V2.5
		c0-0.8-0.7-1.5-1.5-1.5H445.3z"/>
	<path class="st0" d="M504,61.5h-8c-0.9,0-1.8-0.9-1.8-1.8V2.5c0-0.9,0.9-1.8,1.8-1.8h8c0.9,0,1.8,0.9,1.8,1.8v57.2
		C505.8,60.7,504.9,61.5,504,61.5z M495.9,1c-0.8,0-1.5,0.7-1.5,1.5v57.2c0,0.8,0.7,1.5,1.5,1.5h8c0.8,0,1.5-0.7,1.5-1.5V2.5
		c0-0.8-0.7-1.5-1.5-1.5H495.9z"/>
	<path class="st0" d="M557.1,61.5H522c-1,0-1.8-0.8-1.8-1.8V2.5c0-1,0.8-1.8,1.8-1.8h35.2c1,0,1.8,0.8,1.8,1.8v7.1
		c0,1-0.8,1.8-1.8,1.8h-25.4v13.9h21.2c0.9,0,1.8,0.9,1.8,1.8v7.2c0,1-0.8,1.8-1.8,1.8h-21.2v14.8h25.4c1,0,1.8,0.8,1.8,1.8v7.1
		C558.9,60.7,558.1,61.5,557.1,61.5z M522,1c-0.8,0-1.5,0.7-1.5,1.5v57.2c0,0.8,0.7,1.5,1.5,1.5h35.2c0.8,0,1.5-0.7,1.5-1.5v-7.1
		c0-0.8-0.7-1.5-1.5-1.5h-25.7V35.7h21.5c0.8,0,1.5-0.7,1.5-1.5v-7.2c0-0.8-0.7-1.5-1.5-1.5h-21.5V11.1h25.7c0.8,0,1.5-0.7,1.5-1.5
		V2.5c0-0.8-0.7-1.5-1.5-1.5H522z"/>
	<path class="st0" d="M586.2,62.4c-11.2,0-17-4.9-19.1-6.8c-1-0.8-1.3-1.4-0.5-2.8l3.1-5.4c0.3-0.5,0.8-0.9,1.4-1
		c0.6-0.1,1.3,0,1.7,0.4c3.7,2.8,7.5,5.3,13,5.3c4.3,0,7.7-2.9,7.7-6.5c0-4.1-3.3-7.1-10.9-10.2c-7-2.8-16.3-7.9-16.3-18.8
		c0-8.1,6.1-16.7,19.6-16.7c9.1,0,16.1,4.8,17.4,5.8c0.4,0.2,0.7,0.7,0.9,1.3c0.1,0.6,0,1.3-0.3,1.7l-3.3,4.9
		c-0.5,0.7-1.2,1.2-1.8,1.3c-0.5,0.1-1,0-1.4-0.3l-0.6-0.4c-3.5-2.2-6.9-4.3-11.3-4.3c-5.1,0-7.5,3-7.5,5.9c0,3.8,2.9,6.6,10.1,9.5
		c9,3.6,18.2,8.8,18.2,19.7C606.2,53.5,599.2,62.4,586.2,62.4z M571.6,46.7c-0.1,0-0.3,0-0.4,0c-0.4,0.1-0.9,0.3-1.2,0.9l-3.1,5.4
		c-0.7,1.3-0.4,1.8,0.4,2.4l0,0c2.1,1.8,7.8,6.7,18.9,6.7c12.8,0,19.7-8.7,19.7-17c0-10.7-9.1-15.8-18-19.4
		c-7.3-3-10.3-5.8-10.3-9.8c0-3.1,2.4-6.2,7.8-6.2c4.5,0,7.9,2.1,11.5,4.4l0.6,0.4c0.4,0.2,0.7,0.3,1.2,0.2c0.6-0.1,1.2-0.6,1.7-1.2
		l3.3-4.9c0.3-0.4,0.4-1,0.3-1.5c-0.1-0.5-0.4-0.9-0.7-1.1c-1.3-1-8.2-5.8-17.2-5.8c-9.3,0-19.3,5.1-19.3,16.4
		c0,10.8,9.2,15.7,16.2,18.5c7.8,3.1,11.1,6.3,11.1,10.5c0,3.8-3.5,6.8-8,6.8c-5.6,0-9.4-2.5-13.1-5.4
		C572.4,46.8,572,46.7,571.6,46.7z"/>
</g>
</svg>
