<?xml version="1.0" encoding="utf-8"?>
<!-- Generator: Adobe Illustrator 25.4.1, SVG Export Plug-In . SVG Version: 6.00 Build 0)  -->
<svg version="1.1" id="Layer_1" xmlns="http://www.w3.org/2000/svg" xmlns:xlink="http://www.w3.org/1999/xlink" x="0px" y="0px"
	 viewBox="0 0 753.9 479.7" style="enable-background:new 0 0 753.9 479.7;" xml:space="preserve">
<style type="text/css">
	.st0{fill:#FFFFFF;}
	.st1{opacity:0.35;}
	.st2{opacity:0.25;}
</style>
<g>
	<g>
		<path class="st0" d="M127.2,250.2H78.5c-1.3,0-2.2,1.1-2.2,2.2V266v16.9v16.9v16.9v13.5c0,1.2,0.9,2.2,2.2,2.2h48.7
			c1.3,0,2.2-1.1,2.2-2.2v-12.8c0-0.2-0.1-0.5-0.1-0.7c-0.3-0.9-1.1-1.5-2.1-1.5H94.6v-15.4v-0.5h26.8c1.2,0,2.2-0.9,2.2-2.2v-12.8
			c0-0.5-0.2-1-0.6-1.4c-0.4-0.5-1-0.8-1.7-0.8H94.6v-14.6h32.6c1,0,1.8-0.7,2.1-1.5c0.1-0.2,0.1-0.5,0.1-0.7v-12.8
			C129.4,251.3,128.5,250.2,127.2,250.2"/>
		<path class="st0" d="M434.4,250.2h-15.3c-1.1,0-1.5,0.6-1.9,1.1l-10,14.7l-6.4,9.4l-6.4-9.4l-10-14.7c-0.4-0.5-0.9-1.1-1.9-1.1
			h-15.3c-1.9,0-2.8,1.9-1.9,3.4l8.2,12.3l11.2,16.9l6.6,10v6.9v16.9v13.5c0,1.2,0.9,2.2,2.2,2.2h14c1.2,0,2.2-1.1,2.2-2.2v-13.5
			v-16.9v-7.1l6.6-9.9L428,266l8.3-12.3C437.3,252.1,436.3,250.2,434.4,250.2"/>
		<path class="st0" d="M555.1,250.2H503c-1.3,0-2.2,1.1-2.2,2.2v12.8c0,0.2,0.1,0.5,0.1,0.7c0.3,0.9,1.1,1.5,2.1,1.5h16.8v15.4v16.9
			v16.9v13.5c0,1.2,1.1,2.2,2.2,2.2h14.1c1.2,0,2.2-1.1,2.2-2.2v-13.5v-16.9v-16.9v-15.4h16.8c1,0,1.8-0.7,2.1-1.5
			c0.1-0.2,0.1-0.5,0.1-0.7v-12.8C557.4,251.3,556.4,250.2,555.1,250.2"/>
		<path class="st0" d="M617.9,250.2h-48.7c-1.3,0-2.2,1.1-2.2,2.2V266v16.9v16.9v16.9v13.5c0,1.2,0.9,2.2,2.2,2.2h48.7
			c1.3,0,2.2-1.1,2.2-2.2v-12.8c0-0.2-0.1-0.5-0.1-0.7c-0.3-0.9-1.1-1.5-2.1-1.5h-32.6v-15.4v-0.5h26.8c1.2,0,2.2-0.9,2.2-2.2v-12.8
			c0-0.5-0.2-1-0.6-1.4c-0.4-0.5-1-0.8-1.7-0.8h-26.8v-14.6h32.6c1,0,1.8-0.7,2.1-1.5c0.1-0.2,0.1-0.5,0.1-0.7v-12.8
			C620.1,251.3,619.2,250.2,617.9,250.2"/>
		<path class="st0" d="M180.9,266.8c5.8,0,11,1.8,15.9,6c0.8,0.8,2.1,0.8,2.9,0l6.6-6.8l2.6-2.7c0.9-0.9,0.9-2.4-0.1-3.3
			c-8-7.3-16.7-10.9-28.4-10.9c-13.9,0-26.2,6.7-33.9,16.9c-3.7,4.9-6.4,10.7-7.7,16.9c-0.6,2.8-0.9,5.6-0.9,8.6
			c0,2.9,0.3,5.6,0.8,8.3c1.2,6.3,3.9,12,7.6,16.9c7.7,10.3,20,16.9,34,16.9c0,0,0,0,0,0c0,0,0,0,0,0c10.5,0,20.6-3.6,28.5-11.4
			c0.8-0.8,0.9-2.4,0.1-3.2l-2.2-2.4l-7-7.4c-0.7-0.8-2.2-0.8-3.1-0.1c-4.2,3.6-9.3,5.6-15.7,5.6c-10.1,0-18.2-6.3-21.5-15
			c-1-2.7-1.6-5.7-1.6-8.8c0-2.8,0.5-5.6,1.3-8.1C162.3,273.6,170.5,266.8,180.9,266.8"/>
		<path class="st0" d="M256.3,314.9c-9.9,0-18.4-6.3-21.8-15c-1-2.6-1.6-5.4-1.6-8.3c0-3,0.6-5.9,1.6-8.6c3.4-8.8,11.9-15,21.7-15
			c9.9,0,18.4,6.3,21.9,15c1,2.7,1.6,5.6,1.6,8.6c0,2.9-0.6,5.7-1.6,8.3C274.8,308.6,266.3,314.9,256.3,314.9 M290.2,266
			c-7.7-10.3-19.9-16.9-33.8-16.9c-13.9,0-26.1,6.6-33.7,16.9c-3.7,4.9-6.3,10.7-7.6,16.9c-0.6,2.8-0.9,5.6-0.9,8.6
			c0,2.9,0.3,5.6,0.8,8.3c1.2,6.3,3.9,12,7.5,16.9c7.7,10.3,19.9,16.9,33.8,16.9c0,0,0,0,0,0c0,0,0,0,0,0c14,0,26.2-6.6,33.9-16.9
			c3.7-4.9,6.3-10.6,7.6-16.9c0.5-2.7,0.8-5.5,0.8-8.3c0-2.9-0.3-5.8-0.9-8.6C296.5,276.6,293.8,270.9,290.2,266"/>
		<path class="st0" d="M338.7,282.9c-0.2-0.1-0.5-0.2-0.7-0.4c-8.2-4-12.8-7.1-12.8-10.9c0-2.4,1.1-4.5,3.4-5.6
			c1-0.5,2.3-0.8,3.8-0.8c1.7,0,3.3,0.3,5,0.8c4.6,1.4,8.9,4.1,10.9,5.5c2.4,1.4,4.3,0.5,5.2-0.8l3.1-4.7l2.9-4.3
			c0.5-0.8,0.7-2.9-0.7-3.8c-3.5-2.6-12.9-8.8-25.2-8.8c-14.7,0-23.4,7.8-26.2,16.9c-0.6,2.1-1,4.3-1,6.5c0,4.1,1,7.5,2.6,10.5
			c4,7.2,12.1,11.6,20.2,15.5c1,0.5,1.9,0.9,2.8,1.4c6,3.2,9.3,6.2,9.3,10.5c0,3-1.9,5.4-4.7,6.5c-1,0.4-2.2,0.6-3.4,0.6
			c-1.7,0-3.2-0.2-4.7-0.6c-5.2-1.2-9.4-4.1-12-5.9c-1.2-0.8-3.1-0.8-4,0.7l-2.9,5.2l-2.5,4.3c-0.8,1.5-0.5,2.6,0.5,3.5
			c2.7,2.7,11.2,9,26.4,9c0,0,0,0,0,0c0,0,0,0,0,0c13.7,0,23.1-7.7,26.4-16.9c0.9-2.4,1.3-4.9,1.3-7.4c0-3.7-0.7-6.8-2-9.5
			C355.8,291,346.6,286.7,338.7,282.9"/>
		<path class="st0" d="M471.4,282.9c-0.2-0.1-0.5-0.2-0.7-0.4c-8.2-4-12.8-7.1-12.8-10.9c0-2.4,1.1-4.5,3.4-5.6
			c1-0.5,2.3-0.8,3.8-0.8c1.7,0,3.3,0.3,5,0.8c4.6,1.4,8.9,4.1,10.9,5.5c2.4,1.4,4.3,0.5,5.2-0.8l3.1-4.7l2.9-4.3
			c0.5-0.8,0.7-2.9-0.7-3.8c-3.5-2.6-12.9-8.8-25.2-8.8c-14.7,0-23.4,7.8-26.2,16.9c-0.6,2.1-1,4.3-1,6.5c0,4.1,1,7.5,2.6,10.5
			c4,7.2,12.1,11.6,20.2,15.5c1,0.5,1.9,0.9,2.8,1.4c6,3.2,9.3,6.2,9.3,10.5c0,3-1.9,5.4-4.7,6.5c-1,0.4-2.2,0.6-3.4,0.6
			c-1.7,0-3.2-0.2-4.7-0.6c-5.2-1.2-9.4-4.1-12-5.9c-1.2-0.8-3.1-0.8-4,0.7l-2.9,5.2l-2.5,4.3c-0.8,1.5-0.5,2.6,0.5,3.5
			c2.7,2.7,11.2,9,26.4,9c0,0,0,0,0,0c0,0,0,0,0,0c13.7,0,23.1-7.7,26.4-16.9c0.9-2.4,1.3-4.9,1.3-7.4c0-3.7-0.7-6.8-2-9.5
			C488.5,291,479.2,286.7,471.4,282.9"/>
		<path class="st0" d="M720.7,316.8l-2.8-16.9l-2.8-16.9l-2.8-16.9l-2.5-15c-0.1-1.1-1.2-1.9-2.1-1.9h-1.9c-0.6,0-1.6,0.5-2,1.2
			l-8.5,15.7l-9.1,16.9l-9.1,16.9l-0.6,1.2h-0.2l-0.6-1.2l-9.1-16.9l-9.1-16.9l-8.5-15.7c-0.4-0.7-1.4-1.2-2-1.2H645
			c-0.9,0-2,0.8-2.1,1.9l-2.5,15l-2.8,16.9l-2.8,16.9l-2.8,16.9l-2.2,13.2c-0.2,1.5,0.8,2.6,2.2,2.6h13.9c1.2,0,2.1-0.9,2.2-1.9
			l2-13.9l2.4-16.9l0.8-5.5h0.2l2.9,5.5l8.8,16.9l8.2,15.6c0.4,0.7,1.3,1.3,2,1.3c0,0,0,0,0,0h2.1c0,0,0,0,0,0c0.6,0,1.6-0.6,2-1.3
			l8.1-15.6l8.8-16.9l2.9-5.5h0.2l0.8,5.5l2.5,16.9l2,13.9c0.1,0.9,1.2,1.9,2.2,1.9h13.9c1.4,0,2.5-1.1,2.2-2.6L720.7,316.8z"/>
		<path class="st0" d="M92.6,152H78.5c-1.2,0-2.2,1.1-2.2,2.2v13.5v16.9v16.9v16.9V232c0,1.2,1.1,2.2,2.2,2.2h14.1
			c1.2,0,2.2-1.1,2.2-2.2v-13.5v-16.9v-16.9v-16.9v-13.5C94.8,153,93.8,152,92.6,152"/>
		<path class="st0" d="M248.3,152h-48.7c-1.3,0-2.2,1.1-2.2,2.2v13.5v16.9v16.9v16.9V232c0,1.2,0.9,2.2,2.2,2.2h48.7
			c1.3,0,2.2-1.1,2.2-2.2v-12.8c0-0.2-0.1-0.5-0.1-0.7c-0.3-0.9-1.1-1.5-2.1-1.5h-32.6v-15.4v-0.5h26.8c1.2,0,2.2-0.9,2.2-2.2V186
			c0-0.5-0.2-1-0.6-1.4c-0.4-0.5-1-0.8-1.7-0.8h-26.8v-14.6h32.6c1,0,1.8-0.7,2.1-1.5c0.1-0.2,0.1-0.5,0.1-0.7v-12.8
			C250.5,153,249.6,152,248.3,152"/>
		<path class="st0" d="M143.1,216.8h-12.3v-15.3v-16.9v-15.4h12.3c10.3,0,17.8,6.3,20.6,15.4c0.8,2.6,1.3,5.4,1.3,8.3
			c0,3-0.5,5.9-1.3,8.6C160.8,210.6,153.4,216.8,143.1,216.8 M175.6,167.7c-7.6-9.6-19.3-15.7-32.4-15.7h-28.7
			c-1.2,0-2.1,1.1-2.1,2.2v13.5v16.9v16.9v16.9V232c0,1.2,0.9,2.2,2.1,2.2h28.7c13.1,0,24.8-6.2,32.4-15.7c3.9-4.9,6.6-10.6,8-16.9
			c0.6-2.8,0.9-5.6,0.9-8.6c0-2.9-0.3-5.6-0.9-8.3C182.3,178.3,179.5,172.6,175.6,167.7"/>
		<path class="st0" d="M394.4,201.6c-4-8.8-13.2-13.1-21.1-16.9c-0.2-0.1-0.5-0.2-0.7-0.4c-8.2-4-12.8-7.1-12.8-10.9
			c0-2.4,1.1-4.5,3.4-5.6c1-0.5,2.3-0.8,3.8-0.8c1.7,0,3.3,0.3,5,0.8c4.6,1.4,8.9,4.1,10.9,5.5c2.4,1.4,4.3,0.5,5.2-0.8l3.1-4.7
			l2.9-4.3c0.5-0.8,0.7-2.9-0.7-3.8c-3.5-2.6-12.9-8.8-25.2-8.8c-14.7,0-23.4,7.8-26.2,16.9c-0.6,2.1-1,4.3-1,6.5
			c0,4.1,1,7.5,2.6,10.5c4,7.2,12.1,11.6,20.2,15.5c1,0.5,1.9,0.9,2.8,1.4c6,3.2,9.3,6.2,9.3,10.5c0,3-1.9,5.4-4.7,6.5
			c-1,0.4-2.2,0.6-3.4,0.6c-1.7,0-3.2-0.2-4.7-0.6c-5.2-1.2-9.4-4.1-12-5.9c-1.2-0.8-3.1-0.8-4,0.7l-2.9,5.2l-2.5,4.3
			c-0.8,1.5-0.5,2.6,0.5,3.5c2.7,2.7,11.2,9,26.4,9c0,0,0,0,0,0c0,0,0,0,0,0c13.7,0,23.1-7.7,26.4-16.9c0.9-2.4,1.3-4.9,1.3-7.4
			C396.3,207.4,395.6,204.3,394.4,201.6"/>
		<path class="st0" d="M296.3,186.6h0.1l6.9,14.9l2.1,4.5h-17.9l2-4.5L296.3,186.6z M329.9,218.5l-7.9-16.9l-7.9-16.9l-7.9-16.9
			l-7.3-15.6c-0.4-0.7-1.2-1.3-2-1.3h-1.2c-0.8,0-1.6,0.6-2,1.3l-7.3,15.6l-7.9,16.9l-7.9,16.9l-7.9,16.9l-5.9,12.7
			c-0.7,1.5,0.2,3.1,2,3.1H272c2.4,0,3.6-1.4,4.2-2.8l4.2-9.4h32l4.2,9.3c1.1,2.2,2,2.9,4.1,2.9h13c1.8,0,2.7-1.5,2-3.1L329.9,218.5
			z"/>
		<g class="st1">
			<g>
				<path class="st0" d="M278.2,350.9c1.1,2.7,1.6,5.6,1.6,8.6c0,2.9-0.6,5.7-1.6,8.3c-3.4,8.7-12,15-21.9,15
					c-9.9,0-18.4-6.3-21.8-15c-1-2.6-1.6-5.4-1.6-8.3c0-3,0.6-5.9,1.6-8.6H215c-0.6,2.8-0.9,5.6-0.9,8.6c0,2.9,0.3,5.6,0.8,8.3
					c1.2,6.3,3.9,12,7.5,16.9c7.7,10.3,19.9,16.9,33.8,16.9c0,0,0,0,0,0c0,0,0,0,0,0c14,0,26.2-6.6,33.9-16.9
					c3.7-4.9,6.3-10.6,7.6-16.9c0.5-2.7,0.8-5.5,0.8-8.3c0-2.9-0.3-5.8-0.9-8.6H278.2z"/>
				<path class="st0" d="M338.7,350.9H309c4,7.2,12.1,11.6,20.2,15.5c1,0.5,1.9,0.9,2.8,1.4c6,3.2,9.3,6.2,9.3,10.5
					c0,3-1.9,5.4-4.7,6.5c-1,0.4-2.2,0.6-3.4,0.6c-1.7,0-3.2-0.2-4.7-0.6c-5.2-1.2-9.4-4.1-12-5.9c-1.2-0.8-3.1-0.8-4,0.7l-2.9,5.2
					l-2.5,4.3c-0.8,1.5-0.5,2.6,0.5,3.5c2.7,2.7,11.2,9,26.4,9c0,0,0,0,0,0c0,0,0,0,0,0c13.7,0,23.1-7.7,26.4-16.9
					c0.9-2.4,1.3-4.9,1.3-7.4c0-3.7-0.7-6.8-2-9.5C355.8,359.1,346.6,354.7,338.7,350.9"/>
				<path class="st0" d="M410,367.9v-7.1l6.6-9.9h-31.7l6.6,10v6.9v16.9v13.5c0,1.2,0.9,2.2,2.2,2.2h14c1.2,0,2.2-1.1,2.2-2.2"/>
				<path class="st0" d="M471.4,350.9h-29.7c4,7.2,12.1,11.6,20.2,15.5c1,0.5,1.9,0.9,2.8,1.4c6,3.2,9.3,6.2,9.3,10.5
					c0,3-1.9,5.4-4.7,6.5c-1,0.4-2.2,0.6-3.4,0.6c-1.7,0-3.2-0.2-4.7-0.6c-5.2-1.2-9.4-4.1-12-5.9c-1.2-0.8-3.1-0.8-4,0.7l-2.9,5.2
					l-2.5,4.3c-0.8,1.5-0.5,2.6,0.5,3.5c2.7,2.7,11.2,9,26.4,9c0,0,0,0,0,0c0,0,0,0,0,0c13.7,0,23.1-7.7,26.4-16.9
					c0.9-2.4,1.3-4.9,1.3-7.4c0-3.7-0.7-6.8-2-9.5C488.5,359.1,479.2,354.7,471.4,350.9"/>
				<path class="st0" d="M519.8,367.9v16.9v13.5c0,1.2,1.1,2.2,2.2,2.2h14.1c1.2,0,2.2-1.1,2.2-2.2v-13.5v-16.9v-16.9h-18.6V367.9z"
					/>
				<path class="st0" d="M127.2,383.3H94.6v-15.4v-0.5h26.8c1.2,0,2.2-0.9,2.2-2.2v-12.8c0-0.5-0.2-1-0.6-1.4H76.3v16.9v16.9v13.5
					c0,1.2,0.9,2.2,2.2,2.2h48.7c1.3,0,2.2-1.1,2.2-2.2v-12.8c0-0.2-0.1-0.5-0.1-0.7C129,383.9,128.2,383.3,127.2,383.3"/>
				<path class="st0" d="M206.8,384.8l-7-7.4c-0.7-0.8-2.2-0.8-3.1-0.1c-4.2,3.6-9.3,5.6-15.7,5.6c-10.1,0-18.2-6.3-21.5-15
					c-1-2.7-1.6-5.7-1.6-8.8c0-2.8,0.5-5.6,1.3-8.1h-20.4c-0.6,2.8-0.9,5.6-0.9,8.6c0,2.9,0.3,5.6,0.8,8.3c1.2,6.3,3.9,12,7.6,16.9
					c7.7,10.3,20,16.9,34,16.9c0,0,0,0,0,0c0,0,0,0,0,0c10.5,0,20.6-3.6,28.5-11.4c0.8-0.8,0.9-2.4,0.1-3.2L206.8,384.8z"/>
			</g>
		</g>
		<g class="st2">
			<g>
				<path class="st0" d="M127.2,430H94.6v-15.4H76.3v16.9v13.5c0,1.2,0.9,2.2,2.2,2.2h48.7c1.3,0,2.2-1.1,2.2-2.2v-12.8
					c0-0.2-0.1-0.5-0.1-0.7C129,430.7,128.2,430,127.2,430"/>
				<path class="st0" d="M332,414.6c6,3.2,9.3,6.2,9.3,10.5c0,3-1.9,5.4-4.7,6.5c-1,0.4-2.2,0.6-3.4,0.6c-1.7,0-3.2-0.2-4.7-0.6
					c-5.2-1.2-9.4-4.1-12-5.9c-1.2-0.8-3.1-0.8-4,0.7l-2.9,5.2l-2.5,4.3c-0.8,1.5-0.5,2.6,0.5,3.5c2.7,2.7,11.2,9,26.4,9
					c0,0,0,0,0,0c0,0,0,0,0,0c13.7,0,23.1-7.7,26.4-16.9c0.9-2.4,1.3-4.9,1.3-7.4c0-3.7-0.7-6.8-2-9.5H332z"/>
				<path class="st0" d="M391.5,431.5v13.5c0,1.2,0.9,2.2,2.2,2.2h14c1.2,0,2.2-1.1,2.2-2.2v-13.5v-16.9h-18.5V431.5z"/>
				<path class="st0" d="M464.6,414.6c6,3.2,9.3,6.2,9.3,10.5c0,3-1.9,5.4-4.7,6.5c-1,0.4-2.2,0.6-3.4,0.6c-1.7,0-3.2-0.2-4.7-0.6
					c-5.2-1.2-9.4-4.1-12-5.9c-1.2-0.8-3.1-0.8-4,0.7l-2.9,5.2l-2.5,4.3c-0.8,1.5-0.5,2.6,0.5,3.5c2.7,2.7,11.2,9,26.4,9
					c0,0,0,0,0,0c0,0,0,0,0,0c13.7,0,23.1-7.7,26.4-16.9c0.9-2.4,1.3-4.9,1.3-7.4c0-3.7-0.7-6.8-2-9.5H464.6z"/>
				<path class="st0" d="M519.8,431.5v13.5c0,1.2,1.1,2.2,2.2,2.2h14.1c1.2,0,2.2-1.1,2.2-2.2v-13.5v-16.9h-18.6V431.5z"/>
				<path class="st0" d="M617.9,430h-32.6v-15.4H567v16.9v13.5c0,1.2,0.9,2.2,2.2,2.2h48.7c1.3,0,2.2-1.1,2.2-2.2v-12.8
					c0-0.2-0.1-0.5-0.1-0.7C619.7,430.7,618.9,430,617.9,430"/>
				<path class="st0" d="M631.8,431.5l-2.2,13.2c-0.2,1.5,0.8,2.6,2.2,2.6h13.9c1.2,0,2.1-0.9,2.2-1.9l2-13.9l2.4-16.9h-17.7
					L631.8,431.5z"/>
				<path class="st0" d="M206.8,431.5l-7-7.4c-0.7-0.8-2.2-0.8-3.1-0.1c-4.2,3.6-9.3,5.6-15.7,5.6c-10.1,0-18.2-6.3-21.5-15h-20.8
					c1.2,6.3,3.9,12,7.6,16.9c7.7,10.3,20,16.9,34,16.9c0,0,0,0,0,0c0,0,0,0,0,0c10.5,0,20.6-3.6,28.5-11.4c0.8-0.8,0.9-2.4,0.1-3.2
					L206.8,431.5z"/>
			</g>
		</g>
		<g class="st2">
			<g>
				<path class="st0" d="M256.3,479.7C256.3,479.7,256.3,479.7,256.3,479.7L256.3,479.7C256.3,479.7,256.3,479.7,256.3,479.7"/>
				<path class="st0" d="M334,479.7C334,479.7,334,479.7,334,479.7L334,479.7C334,479.7,334,479.7,334,479.7"/>
				<path class="st0" d="M466.7,479.7C466.7,479.7,466.7,479.7,466.7,479.7L466.7,479.7C466.7,479.7,466.7,479.7,466.7,479.7"/>
				<polyline class="st0" points="675.2,479.7 677.3,479.7 677.3,479.7 675.2,479.7 675.2,479.7 				"/>
				<path class="st0" d="M290.3,462.7h-67.8c7.7,10.3,19.9,16.9,33.8,16.9h0C270.3,479.7,282.6,473,290.3,462.7"/>
				<path class="st0" d="M391.5,476.3c0,1.2,0.9,2.2,2.2,2.2h14c1.2,0,2.2-1.1,2.2-2.2v-13.5h-18.5V476.3z"/>
				<path class="st0" d="M493.1,462.7h-23.8c-1,0.4-2.2,0.6-3.4,0.6c-1.7,0-3.2-0.2-4.7-0.6h-18.9l-2.5,4.3
					c-0.8,1.5-0.5,2.6,0.5,3.5c2.7,2.7,11.2,9,26.4,9h0C480.4,479.7,489.8,472,493.1,462.7"/>
				<path class="st0" d="M519.8,476.3c0,1.2,1.1,2.2,2.2,2.2h14.1c1.2,0,2.2-1.1,2.2-2.2v-13.5h-18.6V476.3z"/>
				<path class="st0" d="M679.3,478.4l8.1-15.6h-22.4l8.2,15.6c0.4,0.7,1.3,1.3,2,1.3h2.1C677.9,479.7,679,479.1,679.3,478.4"/>
				<path class="st0" d="M704.6,476.6c0.1,0.9,1.2,1.9,2.2,1.9h13.9c1.4,0,2.5-1.1,2.2-2.6l-2.2-13.2h-18.1L704.6,476.6z"/>
			</g>
		</g>
		<g class="st1">
			<g>
				<path class="st0" d="M92.6,85.3H78.5c-1.2,0-2.2,1.1-2.2,2.2v13.5V118v16.9h18.6V118v-16.9V87.6C94.8,86.4,93.8,85.3,92.6,85.3"
					/>
				<path class="st0" d="M248.3,85.3h-48.7c-1.3,0-2.2,1.1-2.2,2.2v13.5V118v16.9h18.3v-0.5h26.8c1.2,0,2.2-0.9,2.2-2.2v-12.8
					c0-0.5-0.2-1-0.6-1.4c-0.4-0.5-1-0.8-1.7-0.8h-26.8v-14.6h32.6c1,0,1.8-0.7,2.1-1.5c0.1-0.2,0.1-0.5,0.1-0.7V87.6
					C250.5,86.4,249.6,85.3,248.3,85.3"/>
				<path class="st0" d="M175.6,101.1c-7.6-9.6-19.3-15.7-32.4-15.7h-28.7c-1.2,0-2.1,1.1-2.1,2.2v13.5V118v16.9h18.3V118v-15.4
					h12.3c10.3,0,17.8,6.3,20.6,15.4c0.8,2.6,1.3,5.4,1.3,8.3c0,3-0.5,5.9-1.3,8.6h19.9c0.6-2.8,0.9-5.6,0.9-8.6
					c0-2.9-0.3-5.6-0.9-8.3C182.3,111.7,179.5,106,175.6,101.1"/>
				<path class="st0" d="M306.3,101.1L299,85.5c-0.4-0.7-1.2-1.3-2-1.3h-1.2c-0.8,0-1.6,0.6-2,1.3l-7.3,15.6l-7.9,16.9l-7.9,16.9
					h18.7l6.8-14.9h0.1l6.9,14.9H322l-7.9-16.9L306.3,101.1z"/>
			</g>
		</g>
		<g class="st2">
			<g>
				<path class="st0" d="M92.6,38.6H78.5c-1.2,0-2.2,1.1-2.2,2.2v13.5v16.9h18.6V54.3V40.8C94.8,39.7,93.8,38.6,92.6,38.6"/>
				<path class="st0" d="M248.3,38.6h-48.7c-1.3,0-2.2,1.1-2.2,2.2v13.5v16.9h46.8c-0.4-0.5-1-0.8-1.7-0.8h-26.8V55.9h32.6
					c1,0,1.8-0.7,2.1-1.5c0.1-0.2,0.1-0.5,0.1-0.7V40.8C250.5,39.7,249.6,38.6,248.3,38.6"/>
				<path class="st0" d="M393.3,46.2c-3.5-2.6-12.9-8.8-25.2-8.8c-14.7,0-23.4,7.8-26.2,16.9c-0.6,2.1-1,4.3-1,6.5
					c0,4.1,1,7.5,2.6,10.5h29.7c-0.2-0.1-0.5-0.2-0.7-0.4c-8.2-4-12.8-7.1-12.8-10.9c0-2.4,1.1-4.5,3.4-5.6c1-0.5,2.3-0.8,3.8-0.8
					c1.7,0,3.3,0.3,5,0.8c4.6,1.4,8.9,4.1,10.9,5.5c2.4,1.4,4.3,0.5,5.2-0.8l3.1-4.7L394,50C394.4,49.2,394.7,47.1,393.3,46.2"/>
			</g>
		</g>
		<g class="st2">
			<g>
				<path class="st0" d="M299,1.3c-0.4-0.7-1.2-1.3-2-1.3h-1.2c-0.8,0-1.6,0.6-2,1.3l-7.3,15.6h19.7L299,1.3z M250.5,16.2V3.4
					c0-1.2-0.9-2.2-2.2-2.2h-48.7c-1.3,0-2.2,1.1-2.2,2.2v13.5h53C250.5,16.7,250.5,16.5,250.5,16.2 M143.3,1.2h-28.7
					c-1.2,0-2.1,1.1-2.1,2.2v13.5h63.2C168.1,7.4,156.4,1.2,143.3,1.2"/>
			</g>
		</g>
	</g>
	<g>
		<path class="st0" d="M30.9,130.5c-0.1-0.2,0.1-0.4,0.3-0.4h1.4c0.1,0,0.2,0.1,0.3,0.2l1.6,6h0.1l2.4-6.2c0-0.1,0.1-0.2,0.3-0.2
			h0.3c0.2,0,0.2,0.1,0.3,0.2l2.4,6.2h0.1l1.5-6c0-0.1,0.2-0.2,0.3-0.2h1.4c0.2,0,0.3,0.1,0.3,0.4l-2.8,10.1c0,0.1-0.2,0.2-0.3,0.2
			h-0.2c-0.1,0-0.2-0.1-0.3-0.2l-2.7-6.8h-0.1l-2.7,6.8c0,0.1-0.1,0.2-0.3,0.2h-0.2c-0.1,0-0.2-0.1-0.3-0.2L30.9,130.5z"/>
		<path class="st0" d="M51.7,130.4c0-0.2,0.1-0.3,0.3-0.3h6.1c0.2,0,0.3,0.1,0.3,0.3v1.2c0,0.2-0.1,0.3-0.3,0.3h-4.5v2.5h3.7
			c0.2,0,0.3,0.1,0.3,0.3v1.3c0,0.2-0.1,0.3-0.3,0.3h-3.7v2.6h4.5c0.2,0,0.3,0.1,0.3,0.3v1.2c0,0.1-0.1,0.3-0.3,0.3H52
			c-0.2,0-0.3-0.1-0.3-0.3V130.4z"/>
		<path class="st0" d="M76.8,131.9h-2.3c-0.2,0-0.3-0.1-0.3-0.3v-1.2c0-0.2,0.1-0.3,0.3-0.3h6.6c0.2,0,0.3,0.1,0.3,0.3v1.2
			c0,0.2-0.1,0.3-0.3,0.3h-2.3v8.5c0,0.1-0.1,0.3-0.3,0.3h-1.4c-0.2,0-0.3-0.1-0.3-0.3V131.9z"/>
		<path class="st0" d="M89.5,130.4c0-0.2,0.1-0.3,0.3-0.3h4.3c1.8,0,3.3,1.4,3.3,3.2c0,1.4-0.9,2.5-2.2,3l2.1,3.8
			c0.1,0.2,0,0.4-0.3,0.4h-1.6c-0.1,0-0.2-0.1-0.2-0.1l-2-4h-1.7v3.8c0,0.1-0.1,0.3-0.3,0.3h-1.4c-0.2,0-0.3-0.1-0.3-0.3V130.4z
			 M93.9,134.9c0.8,0,1.5-0.7,1.5-1.5c0-0.8-0.7-1.5-1.5-1.5h-2.5v3H93.9z"/>
		<path class="st0" d="M104.7,140.3l4.7-10.1c0-0.1,0.1-0.2,0.3-0.2h0.2c0.2,0,0.2,0.1,0.3,0.2l4.6,10.1c0.1,0.2,0,0.4-0.3,0.4h-1.3
			c-0.2,0-0.3-0.1-0.4-0.3l-0.7-1.6h-4.5l-0.7,1.6c-0.1,0.2-0.2,0.3-0.4,0.3h-1.3C104.7,140.7,104.6,140.5,104.7,140.3z
			 M111.2,137.1l-1.5-3.3h0l-1.5,3.3H111.2z"/>
		<path class="st0" d="M122.4,130.3c0-0.2,0.1-0.3,0.3-0.3h0.2c0.1,0,0.2,0,0.3,0.1l6.2,6.6h0v-6.2c0-0.2,0.1-0.3,0.3-0.3h1.4
			c0.2,0,0.3,0.1,0.3,0.3v10.1c0,0.2-0.1,0.3-0.3,0.3h-0.2c-0.1,0-0.2,0-0.3-0.1l-6.2-6.8h0v6.5c0,0.1-0.1,0.3-0.3,0.3h-1.4
			c-0.2,0-0.3-0.1-0.3-0.3V130.3z"/>
		<path class="st0" d="M140,139.7c-0.2-0.1-0.2-0.2-0.1-0.5l0.5-0.9c0.1-0.2,0.4-0.2,0.5-0.1c0.6,0.5,1.3,0.9,2.3,0.9
			c0.8,0,1.4-0.5,1.4-1.2c0-0.8-0.6-1.3-1.9-1.8c-1.4-0.6-2.8-1.5-2.8-3.3c0-1.3,1-2.9,3.4-2.9c1.5,0,2.7,0.8,3,1
			c0.2,0.1,0.2,0.3,0.1,0.5l-0.6,0.9c-0.1,0.2-0.3,0.3-0.5,0.2c-0.6-0.4-1.3-0.8-2.1-0.8c-0.9,0-1.3,0.5-1.3,1.1
			c0,0.7,0.6,1.2,1.8,1.7c1.5,0.6,3.2,1.5,3.2,3.4c0,1.6-1.3,3-3.5,3C141.4,140.8,140.4,140,140,139.7z"/>
		<path class="st0" d="M155.1,130.4c0-0.2,0.1-0.3,0.3-0.3h6.1c0.2,0,0.3,0.1,0.3,0.3v1.2c0,0.2-0.1,0.3-0.3,0.3H157v2.8h3.7
			c0.2,0,0.3,0.1,0.3,0.3v1.2c0,0.2-0.1,0.3-0.3,0.3H157v3.8c0,0.1-0.1,0.3-0.3,0.3h-1.4c-0.2,0-0.3-0.1-0.3-0.3V130.4z"/>
		<path class="st0" d="M174.8,130c3,0,5.4,2.4,5.4,5.4s-2.4,5.4-5.4,5.4s-5.4-2.4-5.4-5.4S171.7,130,174.8,130z M174.8,138.9
			c1.9,0,3.5-1.6,3.5-3.5c0-1.9-1.6-3.5-3.5-3.5c-1.9,0-3.5,1.6-3.5,3.5C171.3,137.3,172.9,138.9,174.8,138.9z"/>
		<path class="st0" d="M188.6,130.4c0-0.2,0.1-0.3,0.3-0.3h4.3c1.8,0,3.3,1.4,3.3,3.2c0,1.4-0.9,2.5-2.2,3l2.1,3.8
			c0.1,0.2,0,0.4-0.3,0.4h-1.6c-0.1,0-0.2-0.1-0.2-0.1l-2-4h-1.7v3.8c0,0.1-0.1,0.3-0.3,0.3h-1.4c-0.2,0-0.3-0.1-0.3-0.3V130.4z
			 M193,134.9c0.8,0,1.5-0.7,1.5-1.5c0-0.8-0.7-1.5-1.5-1.5h-2.5v3H193z"/>
		<path class="st0" d="M206.3,130.2c0-0.1,0.1-0.2,0.3-0.2h0.2c0.1,0,0.2,0.1,0.3,0.2l3.3,7.1c0,0,0,0,0,0l3.3-7.1
			c0-0.1,0.1-0.2,0.3-0.2h0.2c0.2,0,0.3,0.1,0.3,0.2l1.8,10.1c0,0.2-0.1,0.3-0.3,0.3h-1.4c-0.1,0-0.3-0.1-0.3-0.2l-0.9-5.7
			c0,0,0,0,0,0l-2.6,5.9c0,0.1-0.1,0.2-0.3,0.2h-0.3c-0.1,0-0.2-0.1-0.3-0.2l-2.7-5.9c0,0,0,0,0,0l-0.9,5.7c0,0.1-0.1,0.2-0.3,0.2
			h-1.4c-0.2,0-0.3-0.1-0.3-0.3L206.3,130.2z"/>
	</g>
	<g>
		<path class="st0" d="M411.2,222.5c0-0.2,0.1-0.3,0.3-0.3h1.4c0.2,0,0.3,0.1,0.3,0.3v10c0,0.1-0.1,0.3-0.3,0.3h-1.4
			c-0.2,0-0.3-0.1-0.3-0.3V222.5z"/>
		<path class="st0" d="M422.2,222.3c0-0.2,0.1-0.3,0.3-0.3h0.2c0.1,0,0.2,0,0.3,0.1l6.2,6.6h0v-6.2c0-0.2,0.1-0.3,0.3-0.3h1.4
			c0.2,0,0.3,0.1,0.3,0.3v10.1c0,0.2-0.1,0.3-0.3,0.3h-0.2c-0.1,0-0.2,0-0.3-0.1l-6.2-6.8h0v6.5c0,0.1-0.1,0.3-0.3,0.3h-1.4
			c-0.2,0-0.3-0.1-0.3-0.3V222.3z"/>
		<path class="st0" d="M441.8,224h-2.3c-0.2,0-0.3-0.1-0.3-0.3v-1.2c0-0.2,0.1-0.3,0.3-0.3h6.6c0.2,0,0.3,0.1,0.3,0.3v1.2
			c0,0.2-0.1,0.3-0.3,0.3h-2.3v8.5c0,0.1-0.1,0.3-0.3,0.3h-1.4c-0.2,0-0.3-0.1-0.3-0.3V224z"/>
		<path class="st0" d="M459.1,222.1c3,0,5.4,2.4,5.4,5.4s-2.4,5.4-5.4,5.4c-3,0-5.4-2.4-5.4-5.4S456,222.1,459.1,222.1z M459.1,231
			c1.9,0,3.5-1.6,3.5-3.5c0-1.9-1.6-3.5-3.5-3.5c-1.9,0-3.5,1.6-3.5,3.5C455.6,229.4,457.2,231,459.1,231z"/>
		<path class="st0" d="M481.2,232.4l4.7-10.1c0-0.1,0.1-0.2,0.3-0.2h0.2c0.2,0,0.2,0.1,0.3,0.2l4.6,10.1c0.1,0.2,0,0.4-0.3,0.4h-1.3
			c-0.2,0-0.3-0.1-0.4-0.3l-0.7-1.6H484l-0.7,1.6c-0.1,0.2-0.2,0.3-0.4,0.3h-1.3C481.3,232.8,481.1,232.6,481.2,232.4z M487.7,229.2
			l-1.5-3.3h0l-1.5,3.3H487.7z"/>
		<path class="st0" d="M499,222.3c0-0.2,0.1-0.3,0.3-0.3h0.2c0.1,0,0.2,0,0.3,0.1l6.2,6.6h0v-6.2c0-0.2,0.1-0.3,0.3-0.3h1.4
			c0.2,0,0.3,0.1,0.3,0.3v10.1c0,0.2-0.1,0.3-0.3,0.3h-0.2c-0.1,0-0.2,0-0.3-0.1L501,226h0v6.5c0,0.1-0.1,0.3-0.3,0.3h-1.4
			c-0.2,0-0.3-0.1-0.3-0.3V222.3z"/>
	</g>
</g>
</svg>
