<?xml version="1.0" encoding="utf-8"?>
<!-- Generator: Adobe Illustrator 26.0.3, SVG Export Plug-In . SVG Version: 6.00 Build 0)  -->
<svg version="1.1" id="Capa_1" xmlns="http://www.w3.org/2000/svg" xmlns:xlink="http://www.w3.org/1999/xlink" x="0px" y="0px"
	 viewBox="0 0 669 325.8" style="enable-background:new 0 0 669 325.8;" xml:space="preserve">
<style type="text/css">
	.st0{opacity:0.3;}
	.st1{fill:#FFFFFF;}
	.st2{fill:none;stroke:#FFFFFF;stroke-miterlimit:10;}
</style>
<g id="Layer_2" class="st0">
	<g id="Layer_1-2">
		<path class="st1" d="M457.4,240.9c0,1,0.8,1.8,1.8,1.8h8.9c1,0,1.8-0.8,1.8-1.8v-53.8h14.7c1,0,1.8-0.8,1.8-1.8v-7.9
			c0-1-0.8-1.8-1.8-1.8h-41.9c-1,0-1.8,0.8-1.8,1.8c0,0,0,0,0,0v7.9c0,1,0.8,1.8,1.8,1.8h14.7V240.9z M371.9,209.3
			c0,19,15.4,34.4,34.4,34.4c0.1,0,0.1,0,0.2,0c8.7,0.1,17.1-3.2,23.3-9.3c0.7-0.7,0.8-1.8,0.1-2.6c0,0,0,0,0,0l-5.9-6.1
			c-0.7-0.6-1.7-0.6-2.4,0c-4.1,3.5-9.3,5.4-14.7,5.5c-12.3,0-21.4-10.2-21.4-22.2s9.1-22.4,21.4-22.4c5.4,0,10.7,2,14.8,5.6
			c0.5,0.7,1.5,0.8,2.2,0.2c0.1-0.1,0.2-0.1,0.2-0.2l5.8-6c0.7-0.7,0.8-1.8,0.1-2.5c-0.1-0.1-0.1-0.1-0.2-0.2
			c-6.3-6-14.7-9.2-23.4-8.9c-19.1,0-34.6,15.4-34.6,34.5C371.8,209.2,371.8,209.2,371.9,209.3 M316.8,240.9c0,1,0.8,1.8,1.8,1.8h39
			c1,0,1.8-0.8,1.8-1.8V233c0-1-0.8-1.8-1.8-1.8c0,0,0,0,0,0h-28.4v-16.8H353c1,0,1.8-0.8,1.8-1.8v-8c0-1-0.8-1.8-1.8-1.8h-23.7
			v-15.7h28.4c1,0,1.8-0.8,1.8-1.8v-7.9c0-1-0.8-1.8-1.8-1.8h-39c-1,0-1.8,0.8-1.8,1.8c0,0,0,0,0,0V240.9z M239,240.9
			c0,1,0.8,1.8,1.8,1.8h8.8c1,0,1.8-0.8,1.8-1.8v-41.2h0.2l39.3,43.4c0.4,0.5,1,0.7,1.6,0.7h1.3c1,0,1.8-0.8,1.8-1.7v-64.6
			c0-1-0.8-1.8-1.8-1.8h-8.8c-1,0-1.8,0.8-1.8,1.8c0,0,0,0,0,0V217H283l-39.1-41.7c-0.4-0.5-1-0.7-1.7-0.7h-1.4
			c-1,0-1.8,0.8-1.8,1.7V240.9z M161.2,240.9c0,1,0.8,1.8,1.8,1.8h8.7c1,0,1.8-0.8,1.8-1.8v-41.2h0.2l39.3,43.4
			c0.4,0.5,1,0.7,1.6,0.7h1.3c1,0,1.8-0.8,1.8-1.7v-64.6c0-1-0.8-1.8-1.8-1.8h-8.8c-1,0-1.8,0.8-1.8,1.8c0,0,0,0,0,0V217h-0.2
			l-39.2-41.7c-0.4-0.4-1-0.7-1.6-0.7H163c-1,0-1.8,0.8-1.8,1.7L161.2,240.9z M87.6,209.3c-0.1-12.2,9.8-22.1,21.9-22.1
			c12.2-0.1,22.1,9.8,22.1,21.9c0.1,12.2-9.8,22.1-21.9,22.1c-0.1,0-0.1,0-0.2,0C97.4,231.1,87.7,221.3,87.6,209.3 M75.1,209.3
			c0.3,19,16.1,34.2,35.1,33.9c18.6-0.3,33.5-15.3,33.9-33.9c0.3-19-14.8-34.8-33.9-35.1S75.4,189,75.1,208
			C75.1,208.4,75.1,208.8,75.1,209.3 M5.8,209.3c0,19,15.4,34.4,34.4,34.4c0.1,0,0.2,0,0.3,0c8.7,0.1,17.1-3.2,23.3-9.3
			c0.7-0.7,0.8-1.8,0.1-2.6c0,0,0,0,0,0l-5.9-6.1c-0.7-0.6-1.7-0.6-2.4,0c-4.1,3.5-9.3,5.4-14.7,5.5c-12.3,0-21.4-10.2-21.4-22.2
			s9.1-22.4,21.4-22.4c5.4,0,10.7,2,14.8,5.6c0.5,0.7,1.5,0.8,2.2,0.2c0.1-0.1,0.2-0.1,0.2-0.2l5.9-6c0.7-0.7,0.8-1.8,0.1-2.5
			c-0.1-0.1-0.1-0.1-0.2-0.2c-6.3-6-14.7-9.2-23.3-8.9c-19.1,0-34.6,15.4-34.6,34.5C5.8,209.2,5.8,209.2,5.8,209.3"/>
	</g>
</g>
<g id="Layer_2_00000176016171852536377600000011933821866669369261_" class="st0">
	<g id="Layer_1-2_00000088817160308712082670000011052406101053380770_">
		<path class="st2" d="M635,160.1c0,1,0.8,1.8,1.8,1.8h8.9c1,0,1.8-0.8,1.8-1.8v-53.8h14.7c1,0,1.8-0.8,1.8-1.8v-7.9
			c0-1-0.8-1.8-1.8-1.8h-41.9c-1,0-1.8,0.8-1.8,1.8c0,0,0,0,0,0v7.9c0,1,0.8,1.8,1.8,1.8H635V160.1z M549.5,128.5
			c0,19,15.4,34.4,34.4,34.4c0.1,0,0.1,0,0.2,0c8.7,0.1,17.1-3.2,23.3-9.3c0.7-0.7,0.8-1.8,0.1-2.6c0,0,0,0,0,0l-5.9-6.1
			c-0.7-0.6-1.7-0.6-2.4,0c-4.1,3.5-9.3,5.4-14.7,5.5c-12.3,0-21.4-10.2-21.4-22.2s9.1-22.4,21.4-22.4c5.4,0,10.7,2,14.8,5.6
			c0.5,0.7,1.5,0.8,2.2,0.2c0.1-0.1,0.2-0.1,0.2-0.2l5.8-6c0.7-0.7,0.8-1.8,0.1-2.5c-0.1-0.1-0.1-0.1-0.2-0.2
			c-6.3-6-14.7-9.2-23.4-8.9c-19.1,0-34.6,15.4-34.6,34.5C549.4,128.4,549.4,128.4,549.5,128.5 M494.4,160.1c0,1,0.8,1.8,1.8,1.8h39
			c1,0,1.8-0.8,1.8-1.8v-7.9c0-1-0.8-1.8-1.8-1.8c0,0,0,0,0,0h-28.4v-16.8h23.7c1,0,1.8-0.8,1.8-1.8v-8c0-1-0.8-1.8-1.8-1.8h-23.7
			v-15.7h28.4c1,0,1.8-0.8,1.8-1.8v-7.9c0-1-0.8-1.8-1.8-1.8h-39c-1,0-1.8,0.8-1.8,1.8c0,0,0,0,0,0V160.1z M416.6,160.1
			c0,1,0.8,1.8,1.8,1.8h8.8c1,0,1.8-0.8,1.8-1.8v-41.2h0.2l39.3,43.4c0.4,0.5,1,0.7,1.6,0.7h1.3c1,0,1.8-0.8,1.8-1.7V96.6
			c0-1-0.8-1.8-1.8-1.8h-8.8c-1,0-1.8,0.8-1.8,1.8c0,0,0,0,0,0v39.6h-0.2l-39.1-41.7c-0.4-0.5-1-0.7-1.7-0.7h-1.4
			c-1,0-1.8,0.8-1.8,1.7V160.1z M338.8,160.1c0,1,0.8,1.8,1.8,1.8h8.7c1,0,1.8-0.8,1.8-1.8v-41.2h0.2l39.3,43.4
			c0.4,0.5,1,0.7,1.6,0.7h1.3c1,0,1.8-0.8,1.8-1.7V96.6c0-1-0.8-1.8-1.8-1.8h-8.8c-1,0-1.8,0.8-1.8,1.8c0,0,0,0,0,0v39.6h-0.2
			l-39.2-41.7c-0.4-0.4-1-0.7-1.6-0.7h-1.4c-1,0-1.8,0.8-1.8,1.7V160.1z M265.1,128.5c-0.1-12.2,9.8-22.1,21.9-22.1
			c12.2-0.1,22.1,9.8,22.1,21.9c0.1,12.2-9.8,22.1-21.9,22.1c-0.1,0-0.1,0-0.2,0C275,150.3,265.3,140.5,265.1,128.5 M252.7,128.5
			c0.3,19,16.1,34.2,35.1,33.9c18.6-0.3,33.5-15.3,33.9-33.9c0.3-19-14.8-34.8-33.9-35.1s-34.8,14.8-35.1,33.9
			C252.7,127.6,252.7,128,252.7,128.5 M183.4,128.5c0,19,15.4,34.4,34.4,34.4c0.1,0,0.2,0,0.3,0c8.7,0.1,17.1-3.2,23.3-9.3
			c0.7-0.7,0.8-1.8,0.1-2.6c0,0,0,0,0,0l-5.9-6.1c-0.7-0.6-1.7-0.6-2.4,0c-4.1,3.5-9.3,5.4-14.7,5.5c-12.3,0-21.4-10.2-21.4-22.2
			s9.1-22.4,21.4-22.4c5.4,0,10.7,2,14.8,5.6c0.5,0.7,1.5,0.8,2.2,0.2c0.1-0.1,0.2-0.1,0.2-0.2l5.9-6c0.7-0.7,0.8-1.8,0.1-2.5
			c-0.1-0.1-0.1-0.1-0.2-0.2c-6.3-6-14.7-9.2-23.3-8.9c-19.1,0-34.6,15.4-34.6,34.5C183.4,128.4,183.4,128.4,183.4,128.5"/>
	</g>
</g>
<g id="Layer_2_00000172421424452418113210000006587654341541510845_" class="st0">
	<g id="Layer_1-2_00000084496039742621911790000000281261076139368096_">
		<path class="st2" d="M153.4,160.1c0,1,0.8,1.8,1.8,1.8h8.9c1,0,1.8-0.8,1.8-1.8v-53.8h14.7c1,0,1.8-0.8,1.8-1.8v-7.9
			c0-1-0.8-1.8-1.8-1.8h-41.9c-1,0-1.8,0.8-1.8,1.8c0,0,0,0,0,0v7.9c0,1,0.8,1.8,1.8,1.8h14.7V160.1z M67.8,128.5
			c0,19,15.4,34.4,34.4,34.4c0.1,0,0.1,0,0.2,0c8.7,0.1,17.1-3.2,23.3-9.3c0.7-0.7,0.8-1.8,0.1-2.6c0,0,0,0,0,0l-5.9-6.1
			c-0.7-0.6-1.7-0.6-2.4,0c-4.1,3.5-9.3,5.4-14.7,5.5c-12.3,0-21.4-10.2-21.4-22.2s9.1-22.4,21.4-22.4c5.4,0,10.7,2,14.8,5.6
			c0.5,0.7,1.5,0.8,2.2,0.2c0.1-0.1,0.2-0.1,0.2-0.2l5.8-6c0.7-0.7,0.8-1.8,0.1-2.5c-0.1-0.1-0.1-0.1-0.2-0.2
			c-6.3-6-14.7-9.2-23.4-8.9c-19.1,0-34.6,15.4-34.6,34.5C67.8,128.4,67.8,128.4,67.8,128.5 M12.8,160.1c0,1,0.8,1.8,1.8,1.8h39
			c1,0,1.8-0.8,1.8-1.8v-7.9c0-1-0.8-1.8-1.8-1.8c0,0,0,0,0,0H25.2v-16.8h23.7c1,0,1.8-0.8,1.8-1.8v-8c0-1-0.8-1.8-1.8-1.8H25.2
			v-15.7h28.4c1,0,1.8-0.8,1.8-1.8v-7.9c0-1-0.8-1.8-1.8-1.8h-39c-1,0-1.8,0.8-1.8,1.8c0,0,0,0,0,0V160.1z"/>
	</g>
</g>
<g id="Layer_2_00000013896678159938969270000017900703179834322817_" class="st0">
	<g id="Layer_1-2_00000122700804970211910900000010680504898381071233_">
		<path class="st2" d="M635,320.7c0,1,0.8,1.8,1.8,1.8h8.9c1,0,1.8-0.8,1.8-1.8v-53.8h14.7c1,0,1.8-0.8,1.8-1.8v-7.9
			c0-1-0.8-1.8-1.8-1.8h-41.9c-1,0-1.8,0.8-1.8,1.8c0,0,0,0,0,0v7.9c0,1,0.8,1.8,1.8,1.8H635V320.7z M549.5,289.1
			c0,19,15.4,34.4,34.4,34.4c0.1,0,0.1,0,0.2,0c8.7,0.1,17.1-3.2,23.3-9.3c0.7-0.7,0.8-1.8,0.1-2.6c0,0,0,0,0,0l-5.9-6.1
			c-0.7-0.6-1.7-0.6-2.4,0c-4.1,3.5-9.3,5.4-14.7,5.5c-12.3,0-21.4-10.2-21.4-22.2c0-12,9.1-22.4,21.4-22.4c5.4,0,10.7,2,14.8,5.6
			c0.5,0.7,1.5,0.8,2.2,0.2c0.1-0.1,0.2-0.1,0.2-0.2l5.8-6c0.7-0.7,0.8-1.8,0.1-2.5c-0.1-0.1-0.1-0.1-0.2-0.2
			c-6.3-6-14.7-9.2-23.4-8.9c-19.1,0-34.6,15.4-34.6,34.5C549.4,289,549.4,289,549.5,289.1 M494.4,320.7c0,1,0.8,1.8,1.8,1.8h39
			c1,0,1.8-0.8,1.8-1.8v-7.9c0-1-0.8-1.8-1.8-1.8c0,0,0,0,0,0h-28.4v-16.8h23.7c1,0,1.8-0.8,1.8-1.8v-8c0-1-0.8-1.8-1.8-1.8h-23.7
			v-15.7h28.4c1,0,1.8-0.8,1.8-1.8v-7.9c0-1-0.8-1.8-1.8-1.8h-39c-1,0-1.8,0.8-1.8,1.8c0,0,0,0,0,0V320.7z M416.6,320.7
			c0,1,0.8,1.8,1.8,1.8h8.8c1,0,1.8-0.8,1.8-1.8v-41.2h0.2l39.3,43.4c0.4,0.5,1,0.7,1.6,0.7h1.3c1,0,1.8-0.8,1.8-1.7v-64.6
			c0-1-0.8-1.8-1.8-1.8h-8.8c-1,0-1.8,0.8-1.8,1.8c0,0,0,0,0,0v39.6h-0.2l-39.1-41.7c-0.4-0.5-1-0.7-1.7-0.7h-1.4
			c-1,0-1.8,0.8-1.8,1.7V320.7z M338.8,320.7c0,1,0.8,1.8,1.8,1.8h8.7c1,0,1.8-0.8,1.8-1.8v-41.2h0.2l39.3,43.4
			c0.4,0.5,1,0.7,1.6,0.7h1.3c1,0,1.8-0.8,1.8-1.7v-64.6c0-1-0.8-1.8-1.8-1.8h-8.8c-1,0-1.8,0.8-1.8,1.8c0,0,0,0,0,0v39.6h-0.2
			l-39.2-41.7c-0.4-0.4-1-0.7-1.6-0.7h-1.4c-1,0-1.8,0.8-1.8,1.7V320.7z M265.1,289.1c-0.1-12.2,9.8-22.1,21.9-22.1
			c12.2-0.1,22.1,9.8,22.1,21.9s-9.8,22.1-21.9,22.1c-0.1,0-0.1,0-0.2,0C275,310.9,265.3,301.1,265.1,289.1 M252.7,289.1
			c0.3,19,16.1,34.2,35.1,33.9c18.6-0.3,33.5-15.3,33.9-33.9c0.3-19-14.8-34.8-33.9-35.1s-34.8,14.8-35.1,33.9
			C252.7,288.2,252.7,288.6,252.7,289.1 M183.4,289.1c0,19,15.4,34.4,34.4,34.4c0.1,0,0.2,0,0.3,0c8.7,0.1,17.1-3.2,23.3-9.3
			c0.7-0.7,0.8-1.8,0.1-2.6c0,0,0,0,0,0l-5.9-6.1c-0.7-0.6-1.7-0.6-2.4,0c-4.1,3.5-9.3,5.4-14.7,5.5c-12.3,0-21.4-10.2-21.4-22.2
			c0-12,9.1-22.4,21.4-22.4c5.4,0,10.7,2,14.8,5.6c0.5,0.7,1.5,0.8,2.2,0.2c0.1-0.1,0.2-0.1,0.2-0.2l5.9-6c0.7-0.7,0.8-1.8,0.1-2.5
			c-0.1-0.1-0.1-0.1-0.2-0.2c-6.3-6-14.7-9.2-23.3-8.9c-19.1,0-34.6,15.4-34.6,34.5C183.4,289,183.4,289,183.4,289.1"/>
	</g>
</g>
<g id="Layer_2_00000165235527404074765320000013940535801723479684_" class="st0">
	<g id="Layer_1-2_00000155849592525770197860000012018742113105810102_">
		<path class="st2" d="M153.4,320.7c0,1,0.8,1.8,1.8,1.8h8.9c1,0,1.8-0.8,1.8-1.8v-53.8h14.7c1,0,1.8-0.8,1.8-1.8v-7.9
			c0-1-0.8-1.8-1.8-1.8h-41.9c-1,0-1.8,0.8-1.8,1.8c0,0,0,0,0,0v7.9c0,1,0.8,1.8,1.8,1.8h14.7V320.7z M67.8,289.1
			c0,19,15.4,34.4,34.4,34.4c0.1,0,0.1,0,0.2,0c8.7,0.1,17.1-3.2,23.3-9.3c0.7-0.7,0.8-1.8,0.1-2.6c0,0,0,0,0,0l-5.9-6.1
			c-0.7-0.6-1.7-0.6-2.4,0c-4.1,3.5-9.3,5.4-14.7,5.5c-12.3,0-21.4-10.2-21.4-22.2c0-12,9.1-22.4,21.4-22.4c5.4,0,10.7,2,14.8,5.6
			c0.5,0.7,1.5,0.8,2.2,0.2c0.1-0.1,0.2-0.1,0.2-0.2l5.8-6c0.7-0.7,0.8-1.8,0.1-2.5c-0.1-0.1-0.1-0.1-0.2-0.2
			c-6.3-6-14.7-9.2-23.4-8.9c-19.1,0-34.6,15.4-34.6,34.5C67.8,289,67.8,289,67.8,289.1 M12.8,320.7c0,1,0.8,1.8,1.8,1.8h39
			c1,0,1.8-0.8,1.8-1.8v-7.9c0-1-0.8-1.8-1.8-1.8c0,0,0,0,0,0H25.2v-16.8h23.7c1,0,1.8-0.8,1.8-1.8v-8c0-1-0.8-1.8-1.8-1.8H25.2
			v-15.7h28.4c1,0,1.8-0.8,1.8-1.8v-7.9c0-1-0.8-1.8-1.8-1.8h-39c-1,0-1.8,0.8-1.8,1.8c0,0,0,0,0,0V320.7z"/>
	</g>
</g>
<g id="Layer_2_00000026127261204031904910000014506977844666802063_" class="st0">
	<g id="Layer_1-2_00000001628895980589752270000014934451271889435272_">
		<path class="st2" d="M574,209.3c-0.1-12.2,9.8-22.1,21.9-22.1c12.2-0.1,22.1,9.8,22.1,21.9c0.1,12.2-9.8,22.1-21.9,22.1
			c-0.1,0-0.1,0-0.2,0C583.8,231.1,574.1,221.3,574,209.3 M561.5,209.3c0.3,19,16.1,34.2,35.1,33.9c18.6-0.3,33.5-15.3,33.9-33.9
			c0.3-19-14.8-34.8-33.9-35.1S561.8,189,561.5,208C561.5,208.4,561.5,208.8,561.5,209.3 M492.2,209.3c0,19,15.4,34.4,34.4,34.4
			c0.1,0,0.2,0,0.3,0c8.7,0.1,17.1-3.2,23.3-9.3c0.7-0.7,0.8-1.8,0.1-2.6c0,0,0,0,0,0l-5.9-6.1c-0.7-0.6-1.7-0.6-2.4,0
			c-4.1,3.5-9.3,5.4-14.7,5.5c-12.3,0-21.4-10.2-21.4-22.2s9.1-22.4,21.4-22.4c5.4,0,10.7,2,14.8,5.6c0.5,0.7,1.5,0.8,2.2,0.2
			c0.1-0.1,0.2-0.1,0.2-0.2l5.9-6c0.7-0.7,0.8-1.8,0.1-2.5c-0.1-0.1-0.1-0.1-0.2-0.2c-6.3-6-14.7-9.2-23.3-8.9
			c-19.1,0-34.6,15.4-34.6,34.5C492.2,209.2,492.2,209.2,492.2,209.3"/>
	</g>
</g>
<g id="Layer_2_00000168117851998946821800000014324928835434524057_" class="st0">
	<g id="Layer_1-2_00000080168182762037433990000004429669553292529054_">
		<path class="st2" d="M457.4,79.3c0,1,0.8,1.8,1.8,1.8h8.9c1,0,1.8-0.8,1.8-1.8V25.5h14.7c1,0,1.8-0.8,1.8-1.8v-7.9
			c0-1-0.8-1.8-1.8-1.8h-41.9c-1,0-1.8,0.8-1.8,1.8c0,0,0,0,0,0v7.9c0,1,0.8,1.8,1.8,1.8h14.7V79.3z M371.9,47.7
			c0,19,15.4,34.4,34.4,34.4c0.1,0,0.1,0,0.2,0c8.7,0.1,17.1-3.2,23.3-9.3c0.7-0.7,0.8-1.8,0.1-2.6c0,0,0,0,0,0l-5.9-6.1
			c-0.7-0.6-1.7-0.6-2.4,0c-4.1,3.5-9.3,5.4-14.7,5.5c-12.3,0-21.4-10.2-21.4-22.2s9.1-22.4,21.4-22.4c5.4,0,10.7,2,14.8,5.6
			c0.5,0.7,1.5,0.8,2.2,0.2c0.1-0.1,0.2-0.1,0.2-0.2l5.8-6c0.7-0.7,0.8-1.8,0.1-2.5c-0.1-0.1-0.1-0.1-0.2-0.2
			c-6.3-6-14.7-9.2-23.4-8.9c-19.1,0-34.6,15.4-34.6,34.5C371.8,47.6,371.8,47.6,371.9,47.7 M316.8,79.3c0,1,0.8,1.8,1.8,1.8h39
			c1,0,1.8-0.8,1.8-1.8v-7.9c0-1-0.8-1.8-1.8-1.8c0,0,0,0,0,0h-28.4V52.8H353c1,0,1.8-0.8,1.8-1.8v-8c0-1-0.8-1.8-1.8-1.8h-23.7
			V25.5h28.4c1,0,1.8-0.8,1.8-1.8v-7.9c0-1-0.8-1.8-1.8-1.8h-39c-1,0-1.8,0.8-1.8,1.8c0,0,0,0,0,0V79.3z M239,79.3
			c0,1,0.8,1.8,1.8,1.8h8.8c1,0,1.8-0.8,1.8-1.8V38.1h0.2l39.3,43.4c0.4,0.5,1,0.7,1.6,0.7h1.3c1,0,1.8-0.8,1.8-1.7V15.8
			c0-1-0.8-1.8-1.8-1.8h-8.8c-1,0-1.8,0.8-1.8,1.8c0,0,0,0,0,0v39.6H283l-39.1-41.7c-0.4-0.5-1-0.7-1.7-0.7h-1.4
			c-1,0-1.8,0.8-1.8,1.7V79.3z M161.2,79.3c0,1,0.8,1.8,1.8,1.8h8.7c1,0,1.8-0.8,1.8-1.8V38.1h0.2l39.3,43.4c0.4,0.5,1,0.7,1.6,0.7
			h1.3c1,0,1.8-0.8,1.8-1.7V15.8c0-1-0.8-1.8-1.8-1.8h-8.8c-1,0-1.8,0.8-1.8,1.8c0,0,0,0,0,0v39.6h-0.2l-39.2-41.7
			c-0.4-0.4-1-0.7-1.6-0.7H163c-1,0-1.8,0.8-1.8,1.7L161.2,79.3z M87.6,47.7c-0.1-12.2,9.8-22.1,21.9-22.1
			c12.2-0.1,22.1,9.8,22.1,21.9s-9.8,22.1-21.9,22.1c-0.1,0-0.1,0-0.2,0C97.4,69.5,87.7,59.7,87.6,47.7 M75.1,47.7
			c0.3,19,16.1,34.2,35.1,33.9c18.6-0.3,33.5-15.3,33.9-33.9c0.3-19-14.8-34.8-33.9-35.1c-19-0.3-34.8,14.8-35.1,33.9
			C75.1,46.8,75.1,47.2,75.1,47.7 M5.8,47.7c0,19,15.4,34.4,34.4,34.4c0.1,0,0.2,0,0.3,0c8.7,0.1,17.1-3.2,23.3-9.3
			c0.7-0.7,0.8-1.8,0.1-2.6c0,0,0,0,0,0l-5.9-6.1c-0.7-0.6-1.7-0.6-2.4,0c-4.1,3.5-9.3,5.4-14.7,5.5c-12.3,0-21.4-10.2-21.4-22.2
			s9.1-22.4,21.4-22.4c5.4,0,10.7,2,14.8,5.6c0.5,0.7,1.5,0.8,2.2,0.2c0.1-0.1,0.2-0.1,0.2-0.2l5.9-6c0.7-0.7,0.8-1.8,0.1-2.5
			c-0.1-0.1-0.1-0.1-0.2-0.2c-6.3-6-14.7-9.2-23.3-8.9C21.4,13,5.9,28.4,5.8,47.5C5.8,47.6,5.8,47.6,5.8,47.7"/>
	</g>
</g>
<g id="Layer_2_00000138548647887061551080000002015253844498705302_" class="st0">
	<g id="Layer_1-2_00000020380260309517999370000016373502094632925869_">
		<path class="st2" d="M574,47.7c-0.1-12.2,9.8-22.1,21.9-22.1c12.2-0.1,22.1,9.8,22.1,21.9s-9.8,22.1-21.9,22.1c-0.1,0-0.1,0-0.2,0
			C583.8,69.5,574.1,59.7,574,47.7 M561.5,47.7c0.3,19,16.1,34.2,35.1,33.9c18.6-0.3,33.5-15.3,33.9-33.9
			c0.3-19-14.8-34.8-33.9-35.1c-19-0.3-34.8,14.8-35.1,33.9C561.5,46.8,561.5,47.2,561.5,47.7 M492.2,47.7c0,19,15.4,34.4,34.4,34.4
			c0.1,0,0.2,0,0.3,0c8.7,0.1,17.1-3.2,23.3-9.3c0.7-0.7,0.8-1.8,0.1-2.6c0,0,0,0,0,0l-5.9-6.1c-0.7-0.6-1.7-0.6-2.4,0
			c-4.1,3.5-9.3,5.4-14.7,5.5c-12.3,0-21.4-10.2-21.4-22.2s9.1-22.4,21.4-22.4c5.4,0,10.7,2,14.8,5.6c0.5,0.7,1.5,0.8,2.2,0.2
			c0.1-0.1,0.2-0.1,0.2-0.2l5.9-6c0.7-0.7,0.8-1.8,0.1-2.5c-0.1-0.1-0.1-0.1-0.2-0.2c-6.3-6-14.7-9.2-23.3-8.9
			c-19.1,0-34.6,15.4-34.6,34.5C492.2,47.6,492.2,47.6,492.2,47.7"/>
	</g>
</g>
</svg>
