<?xml version="1.0" encoding="utf-8"?>
<!-- Generator: Adobe Illustrator 26.0.3, SVG Export Plug-In . SVG Version: 6.00 Build 0)  -->
<svg version="1.1" id="Capa_1" xmlns="http://www.w3.org/2000/svg" xmlns:xlink="http://www.w3.org/1999/xlink" x="0px" y="0px"
	 viewBox="0 0 669 325.8" style="enable-background:new 0 0 669 325.8;" xml:space="preserve">
<style type="text/css">
	.st0{opacity:0.3;}
	.st1{fill:none;stroke:#FFFFFF;stroke-miterlimit:10;}
	.st2{fill:#FFFFFF;}
</style>
<g id="Layer_2_00000068673549287489814500000000473253525858567326_" class="st0">
	<g id="Layer_1-2_00000044178932518088753150000013151879645192997294_">
		<path class="st1" d="M641.3,94.4c-12.9,0-19.5-5.7-22-7.8c-1.1-0.9-1.4-1.6-0.5-3.2l3.6-6.2c0.3-0.6,0.9-1,1.6-1.2
			c0.7-0.1,1.4,0,2,0.4c4.3,3.2,8.6,6.1,14.9,6.1c5,0,8.9-3.3,8.9-7.5c0-4.7-3.7-8.2-12.5-11.8c-8.1-3.3-18.8-9-18.8-21.6
			c0-9.3,7-19.3,22.5-19.3c7.2,0.1,14.2,2.5,20,6.7c0.5,0.3,0.9,0.9,1,1.5c0.2,0.7,0,1.4-0.3,2l-3.8,5.7c-0.4,0.6-1,1.1-1.7,1.4
			c-0.7,0.3-1.4,0.2-2-0.2l-0.7-0.5c-4-2.5-7.9-5-13-5c-5.9,0-8.6,3.4-8.6,6.8c0,4.4,3.4,7.6,11.6,11c4.7,1.9,9.9,4.3,14,7.9
			c4.4,3.6,6.9,9,6.8,14.7C664.4,84.2,656.3,94.4,641.3,94.4z M624.6,76.3c-0.1,0-0.3,0-0.4,0c-0.6,0.1-1.1,0.5-1.4,1.1l-3.6,6.2
			c-0.8,1.5-0.5,2,0.5,2.7c2.5,2.1,8.9,7.7,21.8,7.7c14.7,0,22.7-10,22.7-19.5c0-6.9-2.5-15-20.7-22.3c-8.4-3.4-11.8-6.7-11.8-11.3
			c0-3.5,2.8-7.1,8.9-7.1c5.2,0,9.1,2.4,13.2,5l0.7,0.5c0.5,0.3,1.2,0.4,1.7,0.1c0.6-0.3,1.1-0.7,1.5-1.3l3.7-5.7
			c0.3-0.5,0.4-1.1,0.3-1.7c-0.1-0.5-0.4-1-0.8-1.3c-5.8-4.2-12.7-6.5-19.8-6.7c-10.7,0-22.2,5.9-22.2,18.9
			c0,12.4,10.6,18.1,18.6,21.3c8.9,3.6,12.7,7.2,12.7,12.1c0,4.4-4,7.8-9.2,7.8c-6.4,0-10.8-2.9-15.1-6.2
			C625.4,76.5,625,76.3,624.6,76.3z M536.9,94.4h-1.4c-0.7,0-1.3-0.2-1.8-0.7l-40.6-44.8v42.5c0,1.1-0.9,2.1-2.1,2.1l0,0h-9
			c-1.1,0-2-0.9-2.1-2.1V24.5c0-1.1,1-2,2.1-2h1.5c0.7,0,1.3,0.2,1.8,0.7l40.4,43.1V25.6c0-1.1,0.9-2.1,2.1-2.1h9.1
			c1.1,0,2,0.9,2.1,2.1v66.9C538.9,93.5,538,94.4,536.9,94.4L536.9,94.4z M492.7,48.4h0.5l0,0l40.7,44.9c0.4,0.4,1,0.7,1.6,0.6h1.4
			c0.9,0,1.6-0.7,1.7-1.6V25.6c0-0.9-0.8-1.7-1.7-1.7h-9.1c-0.9,0-1.7,0.8-1.7,1.7l0,0v41.2h-0.4h-0.1L485,23.5
			c-0.4-0.4-1-0.7-1.6-0.6H482c-0.9,0-1.7,0.7-1.7,1.6v66.9c0,0.9,0.8,1.7,1.7,1.7h9c0.9,0,1.7-0.8,1.7-1.7V48.4z M426.5,94.4
			c-19.7,0.1-35.7-15.7-35.8-35.4c0-0.2,0-0.3,0-0.5c0-9.6,3.7-18.7,10.4-25.5c14-14,36.8-14.1,50.8-0.1c6.8,6.8,10.6,16,10.6,25.6
			c0.1,19.7-15.9,35.8-35.6,35.9C426.8,94.4,426.7,94.4,426.5,94.4z M426.5,22.8c-9.4,0-18.5,3.7-25.2,10.4
			C394.7,40,391,49.1,391,58.5c-0.4,19.6,15.3,35.8,34.9,36.2c19.6,0.4,35.8-15.3,36.2-34.9c0-0.4,0-0.9,0-1.3
			c0.1-19.6-15.7-35.6-35.4-35.7C426.7,22.8,426.6,22.8,426.5,22.8z M318.5,94.4c-9.6,0-18.7-3.7-25.5-10.4c-14-14.1-14-36.9,0-50.9
			c6.8-6.8,15.9-10.6,25.5-10.5c9-0.2,17.7,3.1,24.2,9.3c0.4,0.4,0.7,0.9,0.7,1.5s-0.2,1.1-0.6,1.5l-6.1,6.3
			c-0.3,0.4-0.8,0.6-1.3,0.7c-0.6,0-1.1-0.2-1.4-0.7c-4.2-3.7-9.6-5.8-15.2-5.8c-12.3,0-22,10.1-22,23c0,6,2.2,11.7,6.3,16
			c4.1,4.3,9.8,6.8,15.8,6.8c5.5,0,10.9-2,15.1-5.6c0.8-0.7,2-0.7,2.7,0l6.2,6.4c0.4,0.3,0.6,0.8,0.6,1.2c0,0.6-0.2,1.2-0.7,1.7
			C336.3,91,327.6,94.5,318.5,94.4z M318.5,22.8c-19.7,0-35.6,15.9-35.7,35.5c0,0.1,0,0.1,0,0.2c0,9.5,3.7,18.5,10.4,25.2
			c6.7,6.7,15.8,10.4,25.3,10.3c9,0.1,17.6-3.3,24-9.6c0.4-0.4,0.6-0.9,0.6-1.4c0-0.4-0.2-0.7-0.5-1l-6.2-6.4
			c-0.6-0.6-1.6-0.6-2.2,0c-4.3,3.6-9.7,5.7-15.3,5.7c-6.1,0-11.9-2.5-16-6.9s-6.4-10.2-6.4-16.3c0-13.1,9.8-23.4,22.3-23.4
			c5.7,0.1,11.2,2.2,15.4,5.9c0.3,0.3,0.7,0.5,1.2,0.5c0.4,0,0.8-0.2,1-0.5l6.1-6.3c0.4-0.3,0.5-0.8,0.5-1.3s-0.2-0.9-0.6-1.3
			C336,25.9,327.4,22.6,318.5,22.8z M237.9,94.4c-7.3,0.1-14.4-2.6-19.8-7.6c-5.2-5-8-11.9-8-19.1V25.6c0-1.1,0.9-2.1,2-2.1h9.4
			c1.1,0,2.1,0.9,2.1,2.1l0,0V67c0,8.5,5.7,14.1,14.2,14.1s14.3-5.8,14.3-14V25.6c0-1.1,0.9-2.1,2.1-2.1h9.4c1.1,0,2,0.9,2.1,2.1
			v42.1C265.8,82.9,253.8,94.4,237.9,94.4L237.9,94.4z M212.2,23.8c-0.9,0-1.7,0.8-1.7,1.7v42.1c0,15,11.8,26.3,27.4,26.3
			s27.6-11.3,27.6-26.3v-42c0-0.9-0.8-1.7-1.7-1.7h-9.4c-0.9,0-1.7,0.8-1.7,1.7l0,0v41.5c0,8.5-6,14.4-14.7,14.4
			s-14.6-5.8-14.6-14.5V25.6c0-0.9-0.8-1.7-1.7-1.7l0,0L212.2,23.8z M103.8,94.4C84.1,94.5,68.1,78.7,68,59c0-0.2,0-0.3,0-0.5
			c0-9.6,3.7-18.7,10.4-25.5c14.1-14,36.8-14,50.9,0s14.1,36.7,0.2,50.8C122.7,90.6,113.4,94.4,103.8,94.4z M103.8,22.8
			c-9.4,0-18.5,3.7-25.2,10.4C72,40,68.3,49.1,68.3,58.5C68,78.2,83.6,94.4,103.2,94.7c19.6,0.4,35.8-15.3,36.2-34.9
			c0-0.4,0-0.9,0-1.3c0.1-19.6-15.7-35.6-35.4-35.7C104,22.8,103.9,22.8,103.8,22.8z M32.1,94.4c-12.9,0-19.5-5.7-22-7.8
			C9,85.7,8.7,85,9.6,83.4l3.6-6.2c0.3-0.6,0.9-1,1.6-1.2c0.7-0.1,1.4,0,2,0.4c4.3,3.3,8.6,6.1,14.9,6.1c5,0,8.9-3.3,8.9-7.5
			c0-4.7-3.7-8.2-12.5-11.8c-8.1-3.3-18.8-9-18.8-21.6c0-9.3,7-19.3,22.5-19.3c7.2,0.1,14.2,2.5,20,6.7c0.5,0.3,0.9,0.9,1,1.5
			c0.2,0.7,0,1.4-0.4,2l-3.8,5.7c-0.4,0.6-1,1.1-1.7,1.4c-0.7,0.3-1.4,0.2-2-0.2l-0.7-0.5c-4.1-2.5-7.9-4.9-13-4.9
			c-5.9,0-8.6,3.4-8.6,6.8c0,4.4,3.4,7.6,11.6,11c4.7,1.9,9.9,4.3,14,7.9c4.4,3.6,6.9,9,6.9,14.7C55.1,84.2,47,94.4,32.1,94.4z
			 M15.3,76.3c-0.1,0-0.3,0-0.4,0c-0.6,0.1-1.1,0.5-1.4,1.1l-3.6,6.1c-0.8,1.5-0.5,2,0.4,2.7c2.5,2.1,9,7.7,21.8,7.7
			c14.7,0,22.7-10,22.7-19.5c0-6.9-2.5-15-20.7-22.3c-8.4-3.4-11.8-6.7-11.8-11.3c0-3.5,2.8-7.1,8.9-7.1c5.2,0,9.1,2.4,13.2,5
			l0.7,0.5c1.2,0.7,2.5,0,3.2-1.2l3.8-5.7c0.3-0.5,0.4-1.1,0.3-1.7c-0.1-0.5-0.4-1-0.8-1.2c-5.8-4.2-12.7-6.5-19.8-6.7
			c-10.7,0-22.2,5.9-22.2,18.9c0,12.4,10.6,18.1,18.6,21.3c8.9,3.6,12.7,7.2,12.7,12.1c0,4.4-4.1,7.8-9.2,7.8
			c-6.4,0-10.8-2.9-15.1-6.2C16.2,76.5,15.7,76.3,15.3,76.3z M603,93.4h-40.4c-1.1,0-2.1-0.9-2.1-2.1l0,0V25.6c0-1.1,0.9-2.1,2-2.1
			l0,0H603c1.1,0,2.1,0.9,2.1,2.1l0,0v8.2c0,1.1-0.9,2.1-2,2.1l0,0h-29.2v15.9h24.4c1.1,0,2,0.9,2.1,2.1V62c0,1.1-0.9,2.1-2.1,2.1
			h-24.4v17H603c1.1,0,2.1,0.9,2.1,2.1l0,0v8.2C605,92.5,604.1,93.4,603,93.4z M562.6,23.8c-0.9,0-1.7,0.7-1.8,1.7l0,0v65.8
			c0,0.9,0.8,1.7,1.7,1.7h40.4c0.9,0,1.7-0.8,1.7-1.7v-8.2c0-0.9-0.8-1.7-1.7-1.7l0,0h-29.5V63.7h24.7c0.9,0,1.7-0.8,1.7-1.7l0,0
			v-8.3c0-0.9-0.8-1.7-1.7-1.7h-24.7V35.4H603c0.9,0,1.7-0.8,1.7-1.7l0,0v-8.2c0-0.9-0.8-1.7-1.7-1.7l0,0H562.6z M371.2,93.4H362
			c-1.1,0-2-0.9-2.1-2.1V25.6c0-1.1,0.9-2,2.1-2.1h9.2c1.1,0,2,0.9,2.1,2.1v65.8C373.2,92.5,372.3,93.4,371.2,93.4z M361.9,23.8
			c-0.9,0-1.7,0.8-1.7,1.7v65.8c0,0.9,0.8,1.7,1.7,1.7h9.2c0.9,0,1.7-0.8,1.7-1.7V25.6c0-0.9-0.8-1.7-1.7-1.7L361.9,23.8z
			 M195.6,93.4h-36.4c-1.1,0-2.1-0.9-2.1-2l0,0V25.6c0-1.1,0.9-2.1,2.1-2.1h9.1c1.1,0,2,0.9,2.1,2.1v55.6h25.2
			c1.1,0,2.1,0.9,2.1,2.1l0,0v8.2C197.7,92.5,196.7,93.4,195.6,93.4z M159.3,23.8c-0.9,0-1.7,0.7-1.8,1.7l0,0v65.8
			c0,0.9,0.8,1.7,1.7,1.7h36.4c0.9,0,1.7-0.8,1.7-1.7l0,0v-8.2c0-0.9-0.8-1.7-1.7-1.7l0,0h-25.5V25.6c0-0.9-0.8-1.7-1.7-1.7h-9.1
			V23.8z M426.5,81.5c-12.7-0.1-22.9-10.4-22.8-23c0.1-12.7,10.4-22.9,23-22.8c12.6,0.1,22.8,10.3,22.8,22.9S439.3,81.5,426.5,81.5
			C426.6,81.5,426.5,81.5,426.5,81.5z M426.5,35.8c-12.6-0.1-23,10-23.1,22.7s10,23,22.7,23.1c12.6,0.1,23-10,23.1-22.7
			c0.1-6.1-2.3-12-6.7-16.4C438.3,38.2,432.6,35.8,426.5,35.8z M103.8,81.5c-12.7-0.1-22.9-10.4-22.8-23s10.4-22.9,23-22.8
			c12.6,0.1,22.8,10.3,22.8,22.9S116.6,81.5,103.8,81.5C103.9,81.5,103.8,81.5,103.8,81.5z M103.8,35.8c-12.7-0.1-23,10-23.1,22.7
			s10,23,22.7,23.1s23-10,23.1-22.7c0.1-6.1-2.3-12.1-6.7-16.4C115.6,38.2,109.8,35.8,103.8,35.8z"/>
	</g>
</g>
<g id="Layer_2_00000069383113390085344040000011788087782133127559_" class="st0">
	<g id="Layer_1-2_00000064347341248110225960000013937598871559341485_">
		<path class="st1" d="M299.6,168.8c-12.9,0-19.5-5.7-22-7.8c-1.1-0.9-1.4-1.6-0.5-3.2l3.6-6.2c0.3-0.6,0.9-1,1.6-1.2
			c0.7-0.1,1.4,0,2,0.4c4.3,3.2,8.6,6.1,14.9,6.1c5,0,8.9-3.3,8.9-7.5c0-4.7-3.7-8.2-12.5-11.8c-8.1-3.3-18.8-9-18.8-21.6
			c0-9.3,7-19.3,22.5-19.3c7.2,0.1,14.2,2.5,20,6.7c0.5,0.3,0.9,0.9,1,1.5c0.2,0.7,0,1.4-0.3,2l-3.8,5.7c-0.4,0.6-1,1.1-1.7,1.4
			s-1.4,0.2-2-0.2l-0.7-0.5c-4-2.5-7.9-5-13-5c-5.9,0-8.6,3.4-8.6,6.8c0,4.4,3.4,7.6,11.6,11c4.7,1.9,9.9,4.3,14,7.9
			c4.4,3.6,6.9,9,6.8,14.7C322.7,158.6,314.6,168.8,299.6,168.8z M282.8,150.8c-0.1,0-0.3,0-0.4,0c-0.6,0.1-1.1,0.5-1.4,1.1
			l-3.6,6.2c-0.8,1.5-0.5,2,0.5,2.7c2.5,2.1,8.9,7.7,21.8,7.7c14.7,0,22.7-10,22.7-19.5c0-6.9-2.5-15-20.7-22.3
			c-8.4-3.4-11.8-6.7-11.8-11.3c0-3.5,2.8-7.1,8.9-7.1c5.2,0,9.1,2.4,13.2,5l0.7,0.5c0.5,0.3,1.2,0.4,1.7,0.1
			c0.6-0.3,1.1-0.7,1.5-1.3l3.7-5.7c0.3-0.5,0.4-1.1,0.3-1.7c-0.1-0.5-0.4-1-0.8-1.3c-5.8-4.2-12.7-6.5-19.8-6.7
			c-10.7,0-22.2,5.9-22.2,18.9c0,12.4,10.6,18.1,18.6,21.3c8.9,3.6,12.7,7.2,12.7,12.1c0,4.4-4,7.8-9.2,7.8
			c-6.4,0-10.8-2.9-15.1-6.2C283.7,150.9,283.3,150.8,282.8,150.8z M195.2,168.8h-1.4c-0.7,0-1.3-0.2-1.8-0.7l-40.6-44.8v42.5
			c0,1.1-0.9,2.1-2.1,2.1l0,0h-9c-1.1,0-2-0.9-2.1-2.1V98.9c0-1.1,1-2,2.1-2h1.5c0.7,0,1.3,0.2,1.8,0.7l40.4,43.1V100
			c0-1.1,0.9-2.1,2.1-2.1h9.1c1.1,0,2,0.9,2.1,2.1v66.9C197.2,168,196.3,168.8,195.2,168.8L195.2,168.8z M151,122.9h0.5l0,0
			l40.7,44.9c0.4,0.4,1,0.7,1.6,0.6h1.4c0.9,0,1.6-0.7,1.7-1.6V100c0-0.9-0.8-1.7-1.7-1.7H186c-0.9,0-1.7,0.8-1.7,1.7l0,0v41.2h-0.4
			h-0.1l-40.5-43.3c-0.4-0.4-1-0.7-1.6-0.6h-1.5c-0.9,0-1.7,0.7-1.7,1.6v66.9c0,0.9,0.8,1.7,1.7,1.7h9c0.9,0,1.7-0.8,1.7-1.7v-42.9
			H151z M84.8,168.8C65.2,169,49.1,153.1,49,133.4c0-0.2,0-0.3,0-0.5c0-9.6,3.7-18.7,10.4-25.5c14-14,36.8-14.1,50.8-0.1
			c6.8,6.8,10.6,16,10.6,25.6c0.1,19.7-15.9,35.8-35.6,35.9C85.1,168.8,84.9,168.8,84.8,168.8z M84.8,97.3
			c-9.4,0-18.5,3.7-25.2,10.4c-6.7,6.7-10.4,15.8-10.3,25.3c-0.4,19.6,15.3,35.8,34.9,36.2s35.8-15.3,36.2-34.9c0-0.4,0-0.9,0-1.3
			c0.1-19.6-15.7-35.6-35.4-35.7C85,97.3,84.9,97.3,84.8,97.3z M643.9,97.3c-19.7,0-35.6,15.9-35.7,35.5c0,0.1,0,0.1,0,0.2
			c0,9.5,3.7,18.5,10.4,25.2s15.8,10.4,25.3,10.3c9,0.1,17.6-3.3,24-9.6c0.4-0.4,0.6-0.9,0.6-1.4c0-0.4-0.2-0.7-0.5-1l-6.2-6.4
			c-0.6-0.6-1.6-0.6-2.2,0c-4.3,3.6-9.7,5.7-15.3,5.7c-6.1,0-11.9-2.5-16-6.9s-6.4-10.2-6.4-16.3c0-13.1,9.8-23.4,22.3-23.4
			c5.7,0.1,11.2,2.2,15.4,5.9c0.3,0.3,0.7,0.5,1.2,0.5c0.4,0,0.8-0.2,1-0.5l6.1-6.3c0.4-0.3,0.5-0.8,0.5-1.3s-0.2-0.9-0.6-1.3
			C661.4,100.4,652.8,97.1,643.9,97.3z M563.3,168.8c-7.3,0.1-14.4-2.6-19.8-7.6c-5.2-5-8-11.9-8-19.1V100c0-1.1,0.9-2.1,2-2.1h9.4
			c1.1,0,2.1,0.9,2.1,2.1l0,0v41.4c0,8.5,5.7,14.1,14.2,14.1s14.3-5.8,14.3-14V100c0-1.1,0.9-2.1,2.1-2.1h9.4c1.1,0,2,0.9,2.1,2.1
			v42.1C591.2,157.4,579.2,168.8,563.3,168.8L563.3,168.8z M537.6,98.3c-0.9,0-1.7,0.8-1.7,1.7v42.1c0,15,11.8,26.3,27.4,26.3
			s27.6-11.3,27.6-26.3V100c0-0.9-0.8-1.7-1.7-1.7h-9.4c-0.9,0-1.7,0.8-1.7,1.7l0,0v41.5c0,8.5-6,14.4-14.7,14.4
			s-14.6-5.8-14.6-14.5V100c0-0.9-0.8-1.7-1.7-1.7l0,0H537.6z M429.2,168.8c-19.7,0.1-35.7-15.7-35.8-35.4c0-0.2,0-0.3,0-0.5
			c0-9.6,3.7-18.7,10.4-25.5c14.1-14,36.8-14,50.9,0s14.1,36.7,0.2,50.8C448.1,165.1,438.9,168.9,429.2,168.8z M429.2,97.3
			c-9.4,0-18.5,3.7-25.2,10.4c-6.7,6.7-10.4,15.8-10.3,25.3c-0.4,19.6,15.3,35.8,34.9,36.2s35.8-15.3,36.2-34.9c0-0.4,0-0.9,0-1.3
			c0.1-19.6-15.7-35.6-35.4-35.7C429.4,97.3,429.3,97.3,429.2,97.3z M357.5,168.8c-12.9,0-19.5-5.7-22-7.8c-1.1-0.9-1.4-1.6-0.5-3.2
			l3.6-6.2c0.3-0.6,0.9-1,1.6-1.2c0.7-0.1,1.4,0,2,0.4c4.3,3.3,8.6,6.1,14.9,6.1c5,0,8.9-3.3,8.9-7.5c0-4.7-3.7-8.2-12.5-11.8
			c-8.1-3.3-18.8-9-18.8-21.6c0-9.3,7-19.3,22.5-19.3c7.2,0.1,14.2,2.5,20,6.7c0.5,0.3,0.9,0.9,1,1.5c0.2,0.7,0,1.4-0.4,2l-3.8,5.7
			c-0.4,0.6-1,1.1-1.7,1.4s-1.4,0.2-2-0.2l-0.7-0.5c-4.1-2.5-7.9-4.9-13-4.9c-5.9,0-8.6,3.4-8.6,6.8c0,4.4,3.4,7.6,11.6,11
			c4.7,1.9,9.9,4.3,14,7.9c4.4,3.6,6.9,9,6.9,14.7C380.5,158.6,372.5,168.8,357.5,168.8z M340.7,150.8c-0.1,0-0.3,0-0.4,0
			c-0.6,0.1-1.1,0.5-1.4,1.1l-3.6,6.1c-0.8,1.5-0.5,2,0.4,2.7c2.5,2.1,9,7.7,21.8,7.7c14.7,0,22.7-10,22.7-19.5
			c0-6.9-2.5-15-20.7-22.3c-8.4-3.4-11.8-6.7-11.8-11.3c0-3.5,2.8-7.1,8.9-7.1c5.2,0,9.1,2.4,13.2,5l0.7,0.5c1.2,0.7,2.5,0,3.2-1.2
			l3.8-5.7c0.3-0.5,0.4-1.1,0.3-1.7c-0.1-0.5-0.4-1-0.8-1.2c-5.8-4.2-12.7-6.5-19.8-6.7c-10.7,0-22.2,5.9-22.2,18.9
			c0,12.4,10.6,18.1,18.6,21.3c8.9,3.6,12.7,7.2,12.7,12.1c0,4.4-4.1,7.8-9.2,7.8c-6.4,0-10.8-2.9-15.1-6.2
			C341.6,150.9,341.2,150.8,340.7,150.8z M261.3,167.8h-40.4c-1.1,0-2.1-0.9-2.1-2.1l0,0V100c0-1.1,0.9-2.1,2-2.1l0,0h40.4
			c1.1,0,2.1,0.9,2.1,2.1l0,0v8.2c0,1.1-0.9,2.1-2,2.1l0,0h-29.2v15.9h24.4c1.1,0,2,0.9,2.1,2.1v8.3c0,1.1-0.9,2.1-2.1,2.1h-24.4v17
			h29.2c1.1,0,2.1,0.9,2.1,2.1l0,0v8.2C263.3,166.9,262.4,167.8,261.3,167.8z M220.8,98.3c-0.9,0-1.7,0.7-1.8,1.7l0,0v65.8
			c0,0.9,0.8,1.7,1.7,1.7h40.4c0.9,0,1.7-0.8,1.7-1.7v-8.2c0-0.9-0.8-1.7-1.7-1.7l0,0h-29.5v-17.7h24.7c0.9,0,1.7-0.8,1.7-1.7l0,0
			v-8.3c0-0.9-0.8-1.7-1.7-1.7h-24.7v-16.6h29.6c0.9,0,1.7-0.8,1.7-1.7l0,0V100c0-0.9-0.8-1.7-1.7-1.7l0,0H220.8z M29.5,167.8h-9.2
			c-1.1,0-2-0.9-2.1-2.1V100c0-1.1,0.9-2,2.1-2.1h9.2c1.1,0,2,0.9,2.1,2.1v65.8C31.5,166.9,30.6,167.8,29.5,167.8z M20.2,98.3
			c-0.9,0-1.7,0.8-1.7,1.7v65.8c0,0.9,0.8,1.7,1.7,1.7h9.2c0.9,0,1.7-0.8,1.7-1.7V100c0-0.9-0.8-1.7-1.7-1.7H20.2z M521,167.8h-36.4
			c-1.1,0-2.1-0.9-2.1-2l0,0V100c0-1.1,0.9-2.1,2.1-2.1h9.1c1.1,0,2,0.9,2.1,2.1v55.6H521c1.1,0,2.1,0.9,2.1,2.1l0,0v8.2
			C523.1,166.9,522.2,167.8,521,167.8z M484.7,98.3c-0.9,0-1.7,0.7-1.8,1.7l0,0v65.8c0,0.9,0.8,1.7,1.7,1.7H521
			c0.9,0,1.7-0.8,1.7-1.7l0,0v-8.2c0-0.9-0.8-1.7-1.7-1.7l0,0h-25.5V100c0-0.9-0.8-1.7-1.7-1.7H484.7z M84.8,155.9
			c-12.7-0.1-22.9-10.4-22.8-23s10.4-22.9,23-22.8s22.8,10.3,22.8,22.9C107.8,145.7,97.6,155.9,84.8,155.9
			C84.9,155.9,84.8,155.9,84.8,155.9z M84.8,110.2c-12.6-0.1-23,10-23.1,22.7c-0.1,12.6,10,23,22.7,23.1c12.6,0.1,23-10,23.1-22.7
			c0.1-6.1-2.3-12-6.7-16.4C96.6,112.6,90.8,110.2,84.8,110.2z M429.2,155.9c-12.7-0.1-22.9-10.4-22.8-23
			c0.1-12.7,10.4-22.9,23-22.8s22.8,10.3,22.8,22.9C452.3,145.7,442,155.9,429.2,155.9C429.3,155.9,429.3,155.9,429.2,155.9z
			 M429.2,110.2c-12.7-0.1-23,10-23.1,22.7s10,23,22.7,23.1s23-10,23.1-22.7c0.1-6.1-2.3-12.1-6.7-16.4
			C441,112.6,435.2,110.2,429.2,110.2z"/>
	</g>
</g>
<g id="Layer_2_00000127756048778761382090000009828387405322097280_" class="st0">
	<g id="Layer_1-2_00000107575467261575062720000011516537889979912372_">
		<path class="st1" d="M299.6,322.5c-12.9,0-19.5-5.7-22-7.8c-1.1-0.9-1.4-1.6-0.5-3.2l3.6-6.2c0.3-0.6,0.9-1,1.6-1.2
			c0.7-0.1,1.4,0,2,0.4c4.3,3.2,8.6,6.1,14.9,6.1c5,0,8.9-3.3,8.9-7.5c0-4.7-3.7-8.2-12.5-11.8c-8.1-3.3-18.8-9-18.8-21.6
			c0-9.3,7-19.3,22.5-19.3c7.2,0.1,14.2,2.5,20,6.7c0.5,0.3,0.9,0.9,1,1.5c0.2,0.7,0,1.4-0.3,2l-3.8,5.7c-0.4,0.6-1,1.1-1.7,1.4
			s-1.4,0.2-2-0.2l-0.7-0.5c-4-2.5-7.9-5-13-5c-5.9,0-8.6,3.4-8.6,6.8c0,4.4,3.4,7.6,11.6,11c4.7,1.9,9.9,4.3,14,7.9
			c4.4,3.6,6.9,9,6.8,14.7C322.7,312.3,314.6,322.5,299.6,322.5z M282.8,304.5c-0.1,0-0.3,0-0.4,0c-0.6,0.1-1.1,0.5-1.4,1.1
			l-3.6,6.2c-0.8,1.5-0.5,2,0.5,2.7c2.5,2.1,8.9,7.7,21.8,7.7c14.7,0,22.7-10,22.7-19.5c0-6.9-2.5-15-20.7-22.3
			c-8.4-3.4-11.8-6.7-11.8-11.3c0-3.5,2.8-7.1,8.9-7.1c5.2,0,9.1,2.4,13.2,5l0.7,0.5c0.5,0.3,1.2,0.4,1.7,0.1
			c0.6-0.3,1.1-0.7,1.5-1.3l3.7-5.7c0.3-0.5,0.4-1.1,0.3-1.7c-0.1-0.5-0.4-1-0.8-1.3c-5.8-4.2-12.7-6.5-19.8-6.7
			c-10.7,0-22.2,5.9-22.2,18.9c0,12.4,10.6,18.1,18.6,21.3c8.9,3.6,12.7,7.2,12.7,12.1c0,4.4-4,7.8-9.2,7.8
			c-6.4,0-10.8-2.9-15.1-6.2C283.7,304.6,283.3,304.5,282.8,304.5z M195.2,322.5h-1.4c-0.7,0-1.3-0.2-1.8-0.7L151.4,277v42.5
			c0,1.1-0.9,2.1-2.1,2.1l0,0h-9c-1.1,0-2-0.9-2.1-2.1v-66.9c0-1.1,1-2,2.1-2h1.5c0.7,0,1.3,0.2,1.8,0.7l40.4,43.1v-40.8
			c0-1.1,0.9-2.1,2.1-2.1h9.1c1.1,0,2,0.9,2.1,2.1v66.9C197.2,321.7,196.3,322.6,195.2,322.5L195.2,322.5z M151,276.6h0.5l0,0
			l40.7,44.9c0.4,0.4,1,0.7,1.6,0.6h1.4c0.9,0,1.6-0.7,1.7-1.6v-66.9c0-0.9-0.8-1.7-1.7-1.7H186c-0.9,0-1.7,0.8-1.7,1.7l0,0v41.2
			h-0.4h-0.1l-40.5-43.3c-0.4-0.4-1-0.7-1.6-0.6h-1.5c-0.9,0-1.7,0.7-1.7,1.6v66.9c0,0.9,0.8,1.7,1.7,1.7h9c0.9,0,1.7-0.8,1.7-1.7
			v-42.8H151z M84.8,322.5c-19.7,0.1-35.7-15.7-35.8-35.4c0-0.2,0-0.3,0-0.5c0-9.6,3.7-18.7,10.4-25.5c14-14,36.8-14.1,50.8-0.1
			c6.8,6.8,10.6,16,10.6,25.6c0.1,19.7-15.9,35.8-35.6,35.9C85.1,322.5,84.9,322.5,84.8,322.5z M84.8,251c-9.4,0-18.5,3.7-25.2,10.4
			c-6.7,6.7-10.4,15.8-10.3,25.3c-0.4,19.6,15.3,35.8,34.9,36.2c19.6,0.4,35.8-15.3,36.2-34.9c0-0.4,0-0.9,0-1.3
			c0.1-19.6-15.7-35.6-35.4-35.7C85,251,84.9,251,84.8,251z M643.9,251c-19.7,0-35.6,15.9-35.7,35.5c0,0.1,0,0.1,0,0.2
			c0,9.5,3.7,18.5,10.4,25.2s15.8,10.4,25.3,10.3c9,0.1,17.6-3.3,24-9.6c0.4-0.4,0.6-0.9,0.6-1.4c0-0.4-0.2-0.7-0.5-1l-6.2-6.4
			c-0.6-0.6-1.6-0.6-2.2,0c-4.3,3.6-9.7,5.7-15.3,5.7c-6.1,0-11.9-2.5-16-6.9s-6.4-10.2-6.4-16.3c0-13.1,9.8-23.4,22.3-23.4
			c5.7,0.1,11.2,2.2,15.4,5.9c0.3,0.3,0.7,0.5,1.2,0.5c0.4,0,0.8-0.2,1-0.5l6.1-6.3c0.4-0.3,0.5-0.8,0.5-1.3s-0.2-0.9-0.6-1.3
			C661.4,254.1,652.8,250.8,643.9,251z M563.3,322.5c-7.3,0.1-14.4-2.6-19.8-7.6c-5.2-5-8-11.9-8-19.1v-42.1c0-1.1,0.9-2.1,2-2.1
			h9.4c1.1,0,2.1,0.9,2.1,2.1l0,0v41.4c0,8.5,5.7,14.1,14.2,14.1s14.3-5.8,14.3-14v-41.5c0-1.1,0.9-2.1,2.1-2.1h9.4
			c1.1,0,2,0.9,2.1,2.1v42.1C591.2,311.1,579.2,322.5,563.3,322.5L563.3,322.5z M537.6,252c-0.9,0-1.7,0.8-1.7,1.7v42.1
			c0,15,11.8,26.3,27.4,26.3s27.6-11.3,27.6-26.3v-42.1c0-0.9-0.8-1.7-1.7-1.7h-9.4c-0.9,0-1.7,0.8-1.7,1.7l0,0v41.5
			c0,8.5-6,14.4-14.7,14.4s-14.6-5.8-14.6-14.5v-41.4c0-0.9-0.8-1.7-1.7-1.7l0,0L537.6,252L537.6,252z M429.2,322.5
			c-19.7,0.1-35.7-15.7-35.8-35.4c0-0.2,0-0.3,0-0.5c0-9.6,3.7-18.7,10.4-25.5c14.1-14,36.8-14,50.9,0s14.1,36.7,0.2,50.8
			C448.1,318.8,438.9,322.6,429.2,322.5z M429.2,251c-9.4,0-18.5,3.7-25.2,10.4c-6.7,6.7-10.4,15.8-10.3,25.3
			c-0.4,19.6,15.3,35.8,34.9,36.2c19.6,0.4,35.8-15.3,36.2-34.9c0-0.4,0-0.9,0-1.3c0.1-19.6-15.7-35.6-35.4-35.7
			C429.4,251,429.3,251,429.2,251z M357.5,322.5c-12.9,0-19.5-5.7-22-7.8c-1.1-0.9-1.4-1.6-0.5-3.2l3.6-6.2c0.3-0.6,0.9-1,1.6-1.2
			c0.7-0.1,1.4,0,2,0.4c4.3,3.3,8.6,6.1,14.9,6.1c5,0,8.9-3.3,8.9-7.5c0-4.7-3.7-8.2-12.5-11.8c-8.1-3.3-18.8-9-18.8-21.6
			c0-9.3,7-19.3,22.5-19.3c7.2,0.1,14.2,2.5,20,6.7c0.5,0.3,0.9,0.9,1,1.5c0.2,0.7,0,1.4-0.4,2l-3.8,5.7c-0.4,0.6-1,1.1-1.7,1.4
			s-1.4,0.2-2-0.2l-0.7-0.5c-4.1-2.5-7.9-4.9-13-4.9c-5.9,0-8.6,3.4-8.6,6.8c0,4.4,3.4,7.6,11.6,11c4.7,1.9,9.9,4.3,14,7.9
			c4.4,3.6,6.9,9,6.9,14.7C380.5,312.3,372.5,322.5,357.5,322.5z M340.7,304.5c-0.1,0-0.3,0-0.4,0c-0.6,0.1-1.1,0.5-1.4,1.1
			l-3.6,6.1c-0.8,1.5-0.5,2,0.4,2.7c2.5,2.1,9,7.7,21.8,7.7c14.7,0,22.7-10,22.7-19.5c0-6.9-2.5-15-20.7-22.3
			c-8.4-3.4-11.8-6.7-11.8-11.3c0-3.5,2.8-7.1,8.9-7.1c5.2,0,9.1,2.4,13.2,5l0.7,0.5c1.2,0.7,2.5,0,3.2-1.2l3.8-5.7
			c0.3-0.5,0.4-1.1,0.3-1.7c-0.1-0.5-0.4-1-0.8-1.2c-5.8-4.2-12.7-6.5-19.8-6.7c-10.7,0-22.2,5.9-22.2,18.9
			c0,12.4,10.6,18.1,18.6,21.3c8.9,3.6,12.7,7.2,12.7,12.1c0,4.4-4.1,7.8-9.2,7.8c-6.4,0-10.8-2.9-15.1-6.2
			C341.6,304.6,341.2,304.5,340.7,304.5z M261.3,321.5h-40.4c-1.1,0-2.1-0.9-2.1-2.1l0,0v-65.8c0-1.1,0.9-2.1,2-2.1l0,0h40.4
			c1.1,0,2.1,0.9,2.1,2.1l0,0v8.2c0,1.1-0.9,2.1-2,2.1l0,0h-29.2v15.9h24.4c1.1,0,2,0.9,2.1,2.1v8.3c0,1.1-0.9,2.1-2.1,2.1h-24.4v17
			h29.2c1.1,0,2.1,0.9,2.1,2.1l0,0v8.2C263.3,320.6,262.4,321.5,261.3,321.5z M220.8,252c-0.9,0-1.7,0.7-1.8,1.7l0,0v65.8
			c0,0.9,0.8,1.7,1.7,1.7h40.4c0.9,0,1.7-0.8,1.7-1.7v-8.2c0-0.9-0.8-1.7-1.7-1.7l0,0h-29.5v-17.7h24.7c0.9,0,1.7-0.8,1.7-1.7l0,0
			v-8.3c0-0.9-0.8-1.7-1.7-1.7h-24.7v-16.6h29.6c0.9,0,1.7-0.8,1.7-1.7l0,0v-8.2c0-0.9-0.8-1.7-1.7-1.7l0,0L220.8,252z M29.5,321.5
			h-9.2c-1.1,0-2-0.9-2.1-2.1v-65.8c0-1.1,0.9-2,2.1-2.1h9.2c1.1,0,2,0.9,2.1,2.1v65.8C31.5,320.6,30.6,321.5,29.5,321.5z M20.2,252
			c-0.9,0-1.7,0.8-1.7,1.7v65.8c0,0.9,0.8,1.7,1.7,1.7h9.2c0.9,0,1.7-0.8,1.7-1.7v-65.8c0-0.9-0.8-1.7-1.7-1.7H20.2z M521,321.5
			h-36.4c-1.1,0-2.1-0.9-2.1-2l0,0v-65.8c0-1.1,0.9-2.1,2.1-2.1h9.1c1.1,0,2,0.9,2.1,2.1v55.6H521c1.1,0,2.1,0.9,2.1,2.1l0,0v8.2
			C523.1,320.7,522.2,321.6,521,321.5z M484.7,252c-0.9,0-1.7,0.7-1.8,1.7l0,0v65.8c0,0.9,0.8,1.7,1.7,1.7H521
			c0.9,0,1.7-0.8,1.7-1.7l0,0v-8.2c0-0.9-0.8-1.7-1.7-1.7l0,0h-25.5v-55.9c0-0.9-0.8-1.7-1.7-1.7L484.7,252L484.7,252z M84.8,309.6
			c-12.7-0.1-22.9-10.4-22.8-23c0.1-12.7,10.4-22.9,23-22.8s22.8,10.3,22.8,22.9C107.8,299.4,97.6,309.6,84.8,309.6
			C84.9,309.6,84.8,309.6,84.8,309.6z M84.8,263.9c-12.6-0.1-23,10-23.1,22.7c-0.1,12.6,10,23,22.7,23.1c12.6,0.1,23-10,23.1-22.7
			c0.1-6.1-2.3-12-6.7-16.4C96.6,266.3,90.8,263.9,84.8,263.9z M429.2,309.6c-12.7-0.1-22.9-10.4-22.8-23
			c0.1-12.7,10.4-22.9,23-22.8s22.8,10.3,22.8,22.9C452.3,299.4,442,309.6,429.2,309.6C429.3,309.6,429.3,309.6,429.2,309.6z
			 M429.2,263.9c-12.7-0.1-23,10-23.1,22.7s10,23,22.7,23.1s23-10,23.1-22.7c0.1-6.1-2.3-12.1-6.7-16.4
			C441,266.4,435.2,263.9,429.2,263.9z"/>
	</g>
</g>
<g id="Layer_2_00000029726946446997410850000010731708359222106770_" class="st0">
	<g id="Layer_1-2_00000003099880535660122410000006879869935789245584_">
		<path class="st2" d="M636.9,245.1c14,0,22.8-9.5,22.8-19.6c0-12.9-11.1-18.6-20.8-22.4c-8.1-3.3-11.7-6.4-11.7-11.1
			c0-3.7,3-7,8.8-7c5.5,0,9.6,2.8,13.8,5.5c1.2,0.8,2.7,0,3.5-1.2l3.7-5.6c0.7-1.1,0.5-2.5-0.6-3.3c-5.8-4.2-12.7-6.5-19.9-6.7
			c-15.8,0-22.3,10.3-22.3,19.1c0,11.7,9.4,17.7,18.7,21.5c8.3,3.4,12.6,6.9,12.6,11.9c0,4.3-3.9,7.6-9,7.6c-6.4,0-10.9-3-15-6.2
			c-1.1-0.7-2.5-0.6-3.3,0.5l-0.1,0.1l-3.6,6.1c-0.9,1.6-0.5,2.2,0.5,2.9C617.9,239.8,624.4,245.1,636.9,245.1 M556.3,242.1
			c0,1.1,0.8,1.9,1.9,1.9h40.4c1.1,0,1.9-0.8,1.9-1.9V234c0-1.1-0.8-1.9-1.9-1.9h-29.5v-17.3h24.5c1.1,0,1.9-0.8,1.9-1.9v-8.3
			c0-1.1-0.9-1.9-1.9-1.9h-24.5v-16.2h29.5c1.1,0,1.9-0.8,1.9-1.9v-8.2c0-1.1-0.8-1.9-1.9-1.9h-40.4c-1.1,0-1.9,0.8-1.9,1.9V242.1z
			 M475.6,242.1c0,1.1,0.8,1.9,1.9,1.9h9c1.1,0,1.9-0.8,1.9-1.9v-42.7h0.2l40.8,44.9c0.5,0.5,1.1,0.7,1.8,0.7h1.4
			c0.9,0,1.8-0.8,1.8-1.8v-66.9c0-1.1-0.8-1.9-1.9-1.9h-9.1c-1.1,0-1.9,0.8-1.9,1.9v41h-0.2L480.7,174c-0.5-0.5-1.1-0.7-1.6-0.7
			h-1.5c-1.1,0-1.9,0.8-1.9,1.8L475.6,242.1z M399.4,209.4c0-12.6,10.2-22.8,22.7-22.9c12.5-0.1,22.8,10.2,22.9,22.7
			s-10.2,22.8-22.7,22.9h-0.1C409.6,232,399.4,221.9,399.4,209.4 M386.4,209.4c0.4,19.8,16.6,35.4,36.4,35.1
			c19.2-0.4,34.7-15.9,35.1-35.1c0.4-19.8-15.3-36-35.1-36.4c-19.8-0.4-36,15.3-36.4,35.1C386.4,208.6,386.4,208.9,386.4,209.4
			 M355.5,242.1c0,1.1,0.8,1.9,1.9,1.9h9.2c1.1,0,1.9-0.8,1.9-1.9v-65.7c0-1.1-0.8-1.9-1.9-1.9h-9.2c-1.1,0-1.9,0.8-1.9,1.9V242.1z
			 M278.2,209.4c0,19.6,15.9,35.7,35.7,35.7c0.1,0,0.1,0,0.2,0c9,0.1,17.7-3.3,24.2-9.6c0.8-0.7,0.8-1.9,0.1-2.7l-6.2-6.3
			c-0.7-0.7-1.8-0.7-2.5,0c-4.2,3.6-9.6,5.6-15.2,5.6c-12.7,0-22.2-10.5-22.2-22.9s9.5-23.1,22.2-23.1c5.6,0,11.1,2.1,15.3,5.8
			c0.6,0.7,1.5,0.8,2.2,0.2c0.1-0.1,0.1-0.1,0.2-0.2l6.1-6.3c0.7-0.7,0.8-1.9,0.1-2.6c-0.1-0.1-0.1-0.1-0.2-0.2
			c-6.5-6.2-15.2-9.6-24.2-9.2C294.2,173.6,278.2,189.5,278.2,209.4C278.2,209.3,278.2,209.3,278.2,209.4 M205.7,218.5
			c0,15.1,12,26.5,27.6,26.5s27.7-11.5,27.7-26.5v-42.1c0-1.1-0.8-1.9-1.9-2h-9.5c-1.1,0-1.9,0.8-1.9,1.9v41.6
			c0,8.3-5.8,14.3-14.5,14.3s-14.4-5.8-14.4-14.3v-41.5c0-1.1-0.8-1.9-1.9-1.9l0,0h-9.5c-1.1,0.1-1.8,0.9-1.9,1.9L205.7,218.5z
			 M152.8,242.1c0,1.1,0.8,1.9,1.9,1.9l0,0h36.4c1.1,0,1.9-0.8,1.9-1.9l0,0V234c0-1.1-0.8-1.9-1.9-1.9h-25.4v-55.6
			c0-1.1-0.8-1.9-1.9-1.9h-9.1c-1.1,0-1.9,0.8-1.9,1.9l0,0L152.8,242.1z M76.6,209.4c-0.1-12.5,10.1-22.8,22.7-22.9
			s22.9,10.1,22.9,22.7c0.1,12.6-10.1,22.9-22.7,22.9h-0.1C86.8,232,76.8,221.9,76.6,209.4 M63.7,209.4
			c0.4,19.8,16.6,35.4,36.4,35.1c19.2-0.4,34.7-15.9,35.1-35.1c0.4-19.8-15.3-36-35.1-36.4s-36,15.3-36.4,35.1
			C63.7,208.6,63.7,208.9,63.7,209.4 M27.5,245.1c14,0,22.8-9.5,22.8-19.6c0-12.9-11.1-18.6-20.8-22.4c-8.1-3.3-11.7-6.4-11.7-11.1
			c0-3.7,3-7,8.8-7c5.5,0,9.6,2.8,13.8,5.5c1.2,0.8,2.7,0,3.5-1.2l3.7-5.6c0.7-1.1,0.5-2.5-0.6-3.3c-5.8-4.2-12.7-6.5-19.9-6.7
			C11.5,173.5,5,183.8,5,192.6c0,11.7,9.4,17.7,18.7,21.5c8.3,3.4,12.6,6.8,12.6,11.9c0,4.3-3.9,7.6-9,7.6c-6.4,0-11-3-15-6.2
			c-1.1-0.7-2.5-0.6-3.3,0.5l0,0.1l-3.7,6.3c-0.9,1.6-0.5,2.2,0.5,2.9C8.6,239.8,15.1,245.1,27.5,245.1"/>
	</g>
</g>
</svg>
