<svg xmlns="http://www.w3.org/2000/svg" viewBox="0 0 18.25 18.25"><defs><style>.cls-1{fill:#7ac143;}.cls-2{fill:#fff;}</style></defs><g id="Layer_2" data-name="Layer 2"><g id="Layer_1-2" data-name="Layer 1"><path class="cls-1" d="M17.87,9.13A8.75,8.75,0,1,1,9.12.38a8.75,8.75,0,0,1,8.75,8.75"/><path class="cls-2" d="M9.12,18.25a9.13,9.13,0,1,1,9.13-9.13A9.13,9.13,0,0,1,9.12,18.25Zm0-17.5A8.38,8.38,0,1,0,17.5,9.12,8.39,8.39,0,0,0,9.12.75Z"/><path class="cls-2" d="M9.12,15.44a.5.5,0,0,1-.5-.5V9.62H3.31a.5.5,0,0,1-.5-.5.5.5,0,0,1,.5-.5H8.62V3.31a.5.5,0,0,1,.5-.5.5.5,0,0,1,.5.5V8.62h5.32a.5.5,0,0,1,.5.5.5.5,0,0,1-.5.5H9.62v5.32A.5.5,0,0,1,9.12,15.44Z"/></g></g></svg>