<svg id="Capa_1" data-name="Capa 1" xmlns="http://www.w3.org/2000/svg" viewBox="0 0 52.58 52.58"><defs><style>.cls-1{fill:#fff;}</style></defs><path class="cls-1" d="M28,3.71A24.29,24.29,0,1,0,52.29,28,24.32,24.32,0,0,0,28,3.71m0,50.58A26.29,26.29,0,1,1,54.29,28,26.32,26.32,0,0,1,28,54.29" transform="translate(-1.71 -1.71)"/><polygon class="cls-1" points="35.74 29.6 35.74 35.82 16.84 35.82 16.84 29.6 15.24 29.6 15.24 37.42 37.34 37.42 37.34 29.6 35.74 29.6"/><polygon class="cls-1" points="31.2 25.13 30.03 24.04 27.09 27.2 27.09 13.96 25.49 13.96 25.49 27.2 22.55 24.04 21.38 25.13 26.29 30.41 31.2 25.13"/></svg>