<svg xmlns="http://www.w3.org/2000/svg" viewBox="0 0 615.66 615.87"><g id="Layer_2" data-name="Layer 2"><g id="ICON"><path d="M543.41,129.26H543l-46-2a9,9,0,0,1-8.61-8.61l-2-46A9,9,0,0,1,489,65.88L552.27,2.64a9,9,0,0,1,15.36,6l1.62,37.79L607,48a9,9,0,0,1,6,15.35l-63.24,63.25A9,9,0,0,1,543.41,129.26ZM506,109.65l33.84,1.45,46-46L560.23,64a9,9,0,0,1-8.61-8.6l-1.09-25.59-46,46Z"/><path d="M279.66,345.1a9,9,0,0,1-6.37-15.36L491,112a9,9,0,1,1,12.73,12.73L286,342.47A9,9,0,0,1,279.66,345.1Z"/><path d="M276.88,421.74A82.76,82.76,0,1,1,304.67,261a9,9,0,0,1-6.05,17,64.65,64.65,0,1,0,39.3,39.31,9,9,0,1,1,17-6,82.79,82.79,0,0,1-78,110.46Z"/><path d="M276.88,518.45c-99,0-179.47-80.51-179.47-179.46s80.51-179.47,179.47-179.47a178.86,178.86,0,0,1,96.46,28.11,9,9,0,0,1-9.68,15.17,160.93,160.93,0,0,0-86.78-25.28c-89,0-161.47,72.43-161.47,161.47s72.44,161.46,161.47,161.46S438.35,428,438.35,339a160.94,160.94,0,0,0-25.07-86.44,9,9,0,0,1,15.2-9.65A179,179,0,0,1,456.35,339C456.35,437.94,375.84,518.45,276.88,518.45Z"/><path d="M276.88,615.87A276.88,276.88,0,0,1,81.1,143.2,276.93,276.93,0,0,1,437,113.08a9,9,0,1,1-10.42,14.67A258.89,258.89,0,0,0,93.82,522,258.88,258.88,0,0,0,489,190.59a9,9,0,1,1,14.74-10.33A276.89,276.89,0,0,1,276.88,615.87Z"/></g></g></svg>