<?xml version="1.0" encoding="utf-8"?>
<!-- Generator: Adobe Illustrator 26.0.3, SVG Export Plug-In . SVG Version: 6.00 Build 0)  -->
<svg version="1.1" id="Capa_1" xmlns="http://www.w3.org/2000/svg" xmlns:xlink="http://www.w3.org/1999/xlink" x="0px" y="0px"
	 viewBox="0 0 527.1 526.4" style="enable-background:new 0 0 527.1 526.4;" xml:space="preserve">
<style type="text/css">
	.st0{fill:#FFFFFF;}
</style>
<g id="Layer_2">
	<g id="Layer_1-2">
		<path class="st0" d="M524.5,424.9l-29.8-29.8l-17.9-41.8c-0.4-1-1.1-2-1.9-2.7l-68-68.1c-10.4-9.9-26.7-9.9-37.1,0
			c-3.2,3.2-5.4,7.2-6.6,11.6c-13.3-3.2-26.8,4.6-30.7,17.7V43.8c0-24.2-19.6-43.7-43.8-43.8h-245C19.6,0,0,19.6,0,43.8v437.5
			C0,505.4,19.6,525,43.8,525h245c24.2,0,43.7-19.6,43.8-43.8v-0.9l6.4,6.4c1.4,1.4,3.3,2.3,5.2,2.5l52.6,5.9l28.8,28.8l0,0
			c3.4,3.4,8.9,3.4,12.4,0c0,0,0,0,0,0l86.6-86.6C527.9,433.8,528,428.3,524.5,424.9C524.5,424.9,524.5,424.9,524.5,424.9
			L524.5,424.9z M105,17.5h122.5V35H105V17.5z M315,481.2c0,14.5-11.8,26.2-26.2,26.2h-245c-14.5,0-26.2-11.7-26.2-26.2c0,0,0,0,0,0
			V43.8c0-14.5,11.7-26.2,26.2-26.3c0,0,0,0,0,0h43.8V35c0,9.7,7.8,17.5,17.5,17.5h122.5c9.7,0,17.5-7.8,17.5-17.5V17.5h43.8
			c14.5,0,26.2,11.8,26.2,26.2v271c-5.4,2.5-9.7,6.8-12.1,12.2l-44.4-44.4c-4.8-4.7-11.2-7.5-17.9-7.6c-17.3-16.9-45-16.6-61.9,0.7
			c-16.9,17.3-16.6,45,0.7,61.9c16.7,16.4,43.4,16.7,60.5,0.7l38.3,38.3c-13,6-18.7,21.5-12.7,34.5c1.3,2.9,3.1,5.5,5.4,7.7
			l44.2,44.2V481.2z M221.3,319.7l6.1,6.1c-10.8,9.7-27.4,8.7-37.1-2.1s-8.7-27.4,2.1-37.1c7.9-7.1,19.3-8.7,28.9-4.1
			C211.1,292.8,211.1,309.4,221.3,319.7C221.3,319.7,221.3,319.7,221.3,319.7z M431.7,505.3l-24.8-24.8c-1.4-1.4-3.3-2.3-5.2-2.5
			l-52.6-5.9l-65.9-65.9l0,0c-3.3-3.5-3.1-9.1,0.4-12.4c3.3-3.1,8.5-3.1,11.9,0l37.2,37.2l12.4-12.4L233.7,307.3
			c-3.4-3.4-3.4-9,0-12.4c0,0,0,0,0,0c3.5-3.3,8.9-3.3,12.4,0l80.4,80.4l6.2,6.2l12.4-12.4l-24.8-24.8c-3.3-3.5-3.2-9.1,0.4-12.4
			c3.4-3.2,8.7-3.2,12,0l24.7,24.8l12.4-12.4l-18.6-18.6l0,0c-3.4-3.4-3.4-9,0-12.4s9-3.4,12.4,0l6.1,6.2l12.4,12.3l12.4-12.4
			l-12.3-12.3c-3.4-3.4-3.4-8.9,0-12.4c3.5-3.3,8.9-3.3,12.4,0l66.9,66.9l17.9,41.8l0,0c0.4,1,1.1,1.9,1.9,2.7l24.8,24.8
			L431.7,505.3z"/>
		<path class="st0" d="M119.8,245h92.8c12.8,0,23.8-9.3,25.9-21.9l15.1-90.4l0,0c0.8-4.8-2.4-9.3-7.2-10.1c-0.5-0.1-1-0.1-1.4-0.1
			h-24.7l7-42.3l-17.3-2.9l-7.5,45.2h-72.6l-7.5-45.2l-17.3,2.9l7.1,42.3H87.5c-4.8,0-8.8,3.9-8.7,8.8c0,0.5,0,0.9,0.1,1.4
			l15.1,90.4l0,0C96,235.7,107,245,119.8,245z M234.7,140l-13.4,80.2l0,0c-0.7,4.2-4.4,7.3-8.6,7.3h-92.9c-4.3,0-7.9-3.1-8.6-7.3
			L97.8,140H234.7z"/>
		<path class="st0" d="M157.5,157.5H175V210h-17.5L157.5,157.5z"/>
		<path class="st0" d="M192.5,157.5H210V210h-17.5L192.5,157.5z"/>
		<path class="st0" d="M122.5,157.5H140V210h-17.5L122.5,157.5z"/>
		<path class="st0" d="M52.5,262.5H70V280H52.5V262.5z"/>
		<path class="st0" d="M87.5,262.5H140V280H87.5V262.5z"/>
		<path class="st0" d="M52.5,297.5H140V315H52.5V297.5z"/>
		<path class="st0" d="M52.5,332.5H140V350H52.5V332.5z"/>
		<path class="st0" d="M52.5,385h105v17.5h-105L52.5,385z"/>
		<path class="st0" d="M175,385h17.5v17.5H175V385z"/>
		<path class="st0" d="M210,385h17.5v17.5H210V385z"/>
		<path class="st0" d="M52.5,420h175v17.5h-175L52.5,420z"/>
	</g>
</g>
</svg>
