<svg xmlns="http://www.w3.org/2000/svg" viewBox="0 0 657.75 657.75"><g id="Layer_2" data-name="Layer 2"><g id="ICON"><path d="M326.59,394.92a67,67,0,1,1,67-67A67,67,0,0,1,326.59,394.92Zm0-115.93a49,49,0,1,0,49,49A49,49,0,0,0,326.59,279Z"/><path d="M328.74,657.75a9,9,0,0,1-9-9V435.42a9,9,0,0,1,18,0V648.75A9,9,0,0,1,328.74,657.75Z"/><path d="M301.37,454.71a9,9,0,0,1-5.11-16.42l27.51-18.94a9,9,0,0,1,10.21,0l27.51,18.94a9,9,0,0,1-10.21,14.83l-22.4-15.43-22.41,15.43A9,9,0,0,1,301.37,454.71Z"/><path d="M648.75,337.74H435.42a9,9,0,0,1,0-18H648.75a9,9,0,0,1,0,18Z"/><path d="M445.71,365.39a9,9,0,0,1-7.42-3.9L419.35,334a9,9,0,0,1,0-10.21l18.94-27.51a9,9,0,1,1,14.83,10.21l-15.43,22.41,15.43,22.4a9,9,0,0,1-7.41,14.11Z"/><path d="M222.33,337.74H9a9,9,0,0,1,0-18H222.33a9,9,0,1,1,0,18Z"/><path d="M212,365.39a9,9,0,0,1-7.41-14.11l15.43-22.4-15.43-22.41a9,9,0,0,1,14.83-10.21l18.94,27.51a9,9,0,0,1,0,10.21l-18.94,27.51A9,9,0,0,1,212,365.39Z"/><path d="M328.74,231.33a9,9,0,0,1-9-9V9a9,9,0,0,1,18,0V222.33A9,9,0,0,1,328.74,231.33Z"/><path d="M328.88,240a9,9,0,0,1-5.11-1.59l-27.51-18.94a9,9,0,1,1,10.21-14.83l22.41,15.43,22.4-15.43a9,9,0,1,1,10.21,14.83L334,238.4A9,9,0,0,1,328.88,240Z"/><path d="M145.25,297.13a9.19,9.19,0,0,1-1.93-.21,9,9,0,0,1-6.87-10.72,194.43,194.43,0,0,1,151.41-149,9,9,0,1,1,3.57,17.64A176.43,176.43,0,0,0,154,290.05,9,9,0,0,1,145.25,297.13Z"/><path d="M507.93,297.13a9,9,0,0,1-8.78-7.08,177.38,177.38,0,0,0-131.5-133.93,9,9,0,0,1,4.16-17.51A194.87,194.87,0,0,1,516.73,286.2a9,9,0,0,1-8.8,10.93Z"/><path d="M369.72,517.54a9,9,0,0,1-2.07-17.75A177.43,177.43,0,0,0,499.06,366.27a9,9,0,1,1,17.57,3.88A194.91,194.91,0,0,1,371.81,517.3,9.38,9.38,0,0,1,369.72,517.54Z"/><path d="M289.65,518.91a9.13,9.13,0,0,1-1.79-.18A194.51,194.51,0,0,1,136.55,370.15a9,9,0,1,1,17.57-3.88A176.49,176.49,0,0,0,291.43,501.09a9,9,0,0,1-1.78,17.82Z"/><path d="M29.72,297.12a9.89,9.89,0,0,1-1.2-.07,9,9,0,0,1-7.73-10.11A308.32,308.32,0,0,1,288.55,21.76a9,9,0,1,1,2.19,17.86A290.39,290.39,0,0,0,38.63,289.31,9,9,0,0,1,29.72,297.12Z"/><path d="M623.46,297.12a9,9,0,0,1-8.91-7.81A289.65,289.65,0,0,0,533.1,123.62,289.71,289.71,0,0,0,368.45,40.43,9,9,0,1,1,371,22.61,307.84,307.84,0,0,1,545.9,111a307.74,307.74,0,0,1,86.5,176,9,9,0,0,1-7.74,10.11A9.66,9.66,0,0,1,623.46,297.12Z"/><path d="M369.72,633.39a9,9,0,0,1-1.27-17.91A290.41,290.41,0,0,0,614.5,367a9,9,0,0,1,17.84,2.4A308.43,308.43,0,0,1,371,633.3,9.58,9.58,0,0,1,369.72,633.39Z"/><path d="M289.66,634.22a8.27,8.27,0,0,1-1.11-.07,307.6,307.6,0,0,1-179-86.89A307.62,307.62,0,0,1,20.84,369.41,9,9,0,0,1,38.68,367,290.36,290.36,0,0,0,290.74,616.29a9,9,0,0,1-1.08,17.93Z"/></g></g></svg>