<?xml version="1.0" encoding="utf-8"?>
<!-- Generator: Adobe Illustrator 26.0.3, SVG Export Plug-In . SVG Version: 6.00 Build 0)  -->
<svg version="1.1" id="Capa_1" xmlns="http://www.w3.org/2000/svg" xmlns:xlink="http://www.w3.org/1999/xlink" x="0px" y="0px"
	 viewBox="0 0 53.3 53.9" style="enable-background:new 0 0 53.3 53.9;" xml:space="preserve">
<style type="text/css">
	.st0{fill:#FFFFFF;}
</style>
<g id="Layer_2">
	<g id="Layer_1-2">
		<path class="st0" d="M51.5,33.9l-18,18.2c-0.1,0.1-0.2,0.1-0.3,0.1c-0.1,0-0.2,0-0.3-0.1l-8.8-8.8c9-3.8,13.3-14.2,9.5-23.2
			c-1.9-4.6-5.8-8.3-10.5-9.9V2.5c0-0.5,0.4-0.8,0.8-0.8c0,0,0,0,0,0h18.3c0.5,0,0.8,0.4,0.8,0.8v29c0,0.9,0.7,1.7,1.7,1.7h6.4
			c0.2,0,0.3,0.1,0.4,0.3C51.6,33.6,51.6,33.8,51.5,33.9z M1.7,26.9c0.1-8.8,7.2-15.8,16-15.7s15.8,7.2,15.7,16
			c-0.1,8.7-7.2,15.7-15.9,15.7C8.7,42.9,1.6,35.7,1.7,26.9 M53.1,32.8c-0.3-0.8-1.1-1.3-1.9-1.3h-6.4v-29c0-1.4-1.1-2.5-2.5-2.5H24
			c-1.4,0-2.5,1.1-2.5,2.5v7.2c-1.3-0.3-2.7-0.5-4-0.5c-9.8,0-17.7,7.9-17.7,17.7c0,9.8,7.9,17.7,17.7,17.7c1.6,0,3.3-0.2,4.9-0.7
			l9.3,9.4c0.8,0.8,2.1,0.9,2.9,0.1c0,0,0,0,0.1-0.1l18-18.2C53.2,34.5,53.4,33.6,53.1,32.8L53.1,32.8z"/>
		<path class="st0" d="M16.8,21.7h1.5c1,0,1.8,0.8,1.8,1.8c0,0,0,0,0,0c0,0.5,0.4,0.8,0.8,0.8s0.8-0.4,0.8-0.8
			c0-1.9-1.5-3.5-3.4-3.5v-0.8c0.1-0.5-0.3-0.9-0.7-0.9c-0.5-0.1-0.9,0.3-0.9,0.7c0,0.1,0,0.1,0,0.2V20c-1.9,0.1-3.4,1.6-3.4,3.5
			v0.8c0,1.9,1.5,3.5,3.4,3.5c0,0,0,0,0,0h1.5c1,0,1.8,0.8,1.8,1.8c0,0,0,0,0,0v0.8c0,1-0.8,1.8-1.8,1.8c0,0,0,0,0,0h-1.5
			c-1,0-1.8-0.8-1.8-1.8v-0.1c0.1-0.5-0.3-0.9-0.7-0.9c-0.5-0.1-0.9,0.3-0.9,0.7c0,0.1,0,0.1,0,0.2v0.1c0,1.9,1.5,3.4,3.4,3.5v0.8
			c-0.1,0.5,0.3,0.9,0.7,0.9c0.5,0.1,0.9-0.3,0.9-0.7c0-0.1,0-0.1,0-0.2v-0.8c1.9-0.1,3.4-1.6,3.4-3.5v-0.8c0-1.9-1.5-3.5-3.5-3.5
			h-1.5c-1,0-1.8-0.8-1.8-1.8v-0.8C15,22.5,15.8,21.7,16.8,21.7"/>
		<path class="st0" d="M17.5,38.5C11.2,38.5,6,33.4,5.9,27S11,15.4,17.4,15.4S28.9,20.5,29,26.8c0,0,0,0.1,0,0.1
			C29,33.3,23.9,38.4,17.5,38.5 M17.5,13.7c-7.3-0.1-13.3,5.8-13.3,13.1C4.1,34.1,10,40.1,17.3,40.2c7.3,0.1,13.3-5.8,13.3-13.1
			c0,0,0-0.1,0-0.1C30.7,19.6,24.8,13.7,17.5,13.7"/>
	</g>
</g>
</svg>
