<svg xmlns="http://www.w3.org/2000/svg" viewBox="0 0 608.17 597.25"><g id="Layer_2" data-name="Layer 2"><g id="ICON"><path d="M521.14,513.88a9,9,0,0,1-8.8-7.19l-11.12-54A9,9,0,1,1,518.85,449l11.12,54a9,9,0,0,1-7,10.63A8.75,8.75,0,0,1,521.14,513.88Z"/><path d="M522.32,515.41a9,9,0,0,1-.54-18l55-3.38a9,9,0,1,1,1.1,18l-55,3.39Z"/><path d="M99.84,164.59A9,9,0,0,1,91,157.41l-11.15-54a9,9,0,0,1,17.63-3.63l11.15,54a9,9,0,0,1-7,10.63A8.73,8.73,0,0,1,99.84,164.59Z"/><path d="M32.51,112.42a9,9,0,0,1-.54-18L87,91a9,9,0,0,1,1.12,18l-55,3.41Z"/><path d="M522.57,511.39a9,9,0,0,1-6.66-15.05A286.24,286.24,0,0,0,544,148.19a9,9,0,1,1,15.08-9.82,303.85,303.85,0,0,1-29.85,370.07A9,9,0,0,1,522.57,511.39Z"/><path d="M503.25,95.38A9,9,0,0,1,497.18,93a287.87,287.87,0,0,0-29.47-23.6A286.29,286.29,0,0,0,150,63a9,9,0,0,1-9.71-15.16A303.74,303.74,0,0,1,478,54.66a308.14,308.14,0,0,1,31.32,25.07,9,9,0,0,1-6.08,15.65Z"/><path d="M67.09,488.91a9,9,0,0,1-7.23-3.63A303.85,303.85,0,0,1,80.45,98.06a9,9,0,0,1,13.24,12.2A286.15,286.15,0,0,0,74.31,474.54a9,9,0,0,1-7.22,14.37Z"/><path d="M450.69,107.09a9,9,0,0,1-1.8-17.82l54-11.08a9,9,0,0,1,3.62,17.64l-54,11.07A8.63,8.63,0,0,1,450.69,107.09Z"/><path d="M506.2,94.83a9,9,0,0,1-9-8.45l-3.36-55.07a9,9,0,0,1,18-1.09l3.35,55.07a9,9,0,0,1-8.43,9.53Z"/><path d="M104.48,532.83a9,9,0,0,1-2.43-17.66l53.1-14.92A9,9,0,1,1,160,517.58l-53.1,14.92A9.29,9.29,0,0,1,104.48,532.83Z"/><path d="M110.29,588.76a9,9,0,0,1-8.91-7.82L94.12,526.3A9,9,0,1,1,112,523.93l7.26,54.64a9,9,0,0,1-7.73,10.11A9.67,9.67,0,0,1,110.29,588.76Z"/><path d="M288.94,597.25A303.41,303.41,0,0,1,101.5,532.14,9,9,0,1,1,112.62,518a286.23,286.23,0,0,0,349.27,3.45,9,9,0,0,1,10.86,14.35,305.78,305.78,0,0,1-183.81,61.46Z"/><path d="M334.12,415.27H271.35A21.4,21.4,0,0,1,250,393.89a55,55,0,0,0-18.55-41.18,107.7,107.7,0,0,1-36.3-80.21c-.18-59.08,47.72-107.51,106.78-108a107.59,107.59,0,0,1,72.15,188.17,55,55,0,0,0-18.55,41.18A21.4,21.4,0,0,1,334.12,415.27ZM302.74,182.54H302a89.6,89.6,0,0,0-58.69,156.7A73,73,0,0,1,268,393.89a3.39,3.39,0,0,0,3.38,3.38h62.77a3.39,3.39,0,0,0,3.38-3.38,73,73,0,0,1,24.62-54.65,89.6,89.6,0,0,0-59.38-156.7Z"/><path d="M341.16,446.23h0l-73.65-.06a9,9,0,0,1,0-18h0l73.65.06a9,9,0,0,1,0,18Z"/><path d="M317.21,480.94H289.14a33.08,33.08,0,0,1-33-33V406.5a9,9,0,0,1,18,0v41.4a15.06,15.06,0,0,0,15,15h28.07a15.06,15.06,0,0,0,15-15V406.5a9,9,0,0,1,18,0v41.4A33.08,33.08,0,0,1,317.21,480.94Z"/><path d="M463.56,281.69H432.13a9,9,0,0,1,0-18h31.43a9,9,0,0,1,0,18Z"/><path d="M170.24,288.24H138.8a9,9,0,0,1,0-18h31.44a9,9,0,0,1,0,18Z"/><path d="M416.16,396.13a9,9,0,0,1-6.36-2.64l-19-19a9,9,0,0,1,12.73-12.73l19,19a9,9,0,0,1-6.37,15.37Z"/><path d="M205.24,186.29a9,9,0,0,1-6.55-2.83l-17.94-19a9,9,0,0,1,13.1-12.35l17.93,19a9,9,0,0,1-6.54,15.18Z"/><path d="M397.14,186.29a9,9,0,0,1-6.37-15.37l19-19a9,9,0,0,1,12.73,12.73l-19,19A9,9,0,0,1,397.14,186.29Z"/><path d="M187.3,396.13a9,9,0,0,1-6.37-15.37l19-19a9,9,0,0,1,12.73,12.73l-19,19A9,9,0,0,1,187.3,396.13Z"/><path d="M301.73,151.29a9,9,0,0,1-9-9V110.86a9,9,0,0,1,18,0v31.43A9,9,0,0,1,301.73,151.29Z"/></g></g></svg>