<?xml version="1.0" encoding="utf-8"?>
<!-- Generator: Adobe Illustrator 26.0.3, SVG Export Plug-In . SVG Version: 6.00 Build 0)  -->
<svg version="1.1" id="Capa_1" xmlns="http://www.w3.org/2000/svg" xmlns:xlink="http://www.w3.org/1999/xlink" x="0px" y="0px"
	 viewBox="0 0 538.3 531.7" style="enable-background:new 0 0 538.3 531.7;" xml:space="preserve">
<style type="text/css">
	.st0{fill:#FFFFFF;}
</style>
<g id="Layer_2">
	<g id="Layer_1-2">
		<path class="st0" d="M530.3,168.7l-82.7-81.4V26.4c0-14.6-11.8-26.4-26.4-26.4H116.9c-14.6,0-26.4,11.8-26.4,26.4v61.2L8,168.7
			c-5.1,5.1-8,12-8,19.1v59.7c0,35.2,28.5,63.7,63.6,63.7c0,0,0,0,0,0h2.7c19.3,0,37.6-8.9,49.7-24c12,15.1,30.3,24,49.7,24h2.6
			c19.3,0,37.6-8.9,49.7-24c12,15.1,30.3,24,49.7,24h2.7c19.3,0,37.6-8.9,49.7-24c12.1,15.2,30.5,24,49.9,24h2.7
			c19.3,0,37.6-8.9,49.7-24c12,15.1,30.3,24,49.7,24h2.7c35.1,0,63.6-28.5,63.6-63.7v-59.7C538.3,180.7,535.4,173.8,530.3,168.7
			L530.3,168.7z M118.4,28h301.2v51.5H118.4V28z M102,247.6c0,19.7-16,35.6-35.7,35.7h-2.7c-19.7,0-35.7-16-35.7-35.7v-51.1h74
			V247.6z M204,247.6L204,247.6c0,19.7-16,35.7-35.7,35.7h-2.7c-19.7-0.1-35.5-16-35.6-35.7v-51.1h74.1L204,247.6z M306,247.6
			L306,247.6c0,19.7-16,35.6-35.7,35.7h-2.7c-19.7,0-35.6-16-35.7-35.7v-51.1h74.1L306,247.6z M408,247.6L408,247.6
			c0,19.7-16,35.6-35.7,35.7h-2.5c-19.7,0-35.6-16-35.7-35.7v-51.1h74L408,247.6z M422,168.5H48l62.1-61.1h318l62,61.1H422z
			 M510.1,247.6c0,19.7-16,35.7-35.7,35.7h-2.7c-19.7,0-35.7-16-35.7-35.7v-51.1h74L510.1,247.6z M414.7,464.6c7.7,0,14-6.3,14-14
			v-84c0-7.7-6.3-14-14-14l0,0H302.1c-7.7,0-14,6.3-14,14l0,0v84c0,7.7,6.3,14,14,14H414.7z M315.8,380.6H401v56h-84.9L315.8,380.6z
			 M524.1,503.8h-36V342.7c0-7.7-6.3-14-14-14s-14,6.3-14,14v161H252.9v-137c0-7.7-6.3-14-14-14H132.1c-7.7-0.1-14.1,6.1-14.2,13.8
			c0,0.1,0,0.1,0,0.2v137H78.2v-161c0-7.7-6.3-14-14-14s-14,6.3-14,14v161H14c-7.7,0-14,6.3-14,14c0,7.7,6.3,14,14,14h510.3
			c7.7,0,14-6.3,14-14s-6.3-14-14-14L524.1,503.8z M225,503.8h-79V380.6h79.2L225,503.8z"/>
	</g>
</g>
</svg>
