<svg xmlns="http://www.w3.org/2000/svg" viewBox="0 0 480 428.77"><g id="Layer_2" data-name="Layer 2"><g id="Layer_1-2" data-name="Layer 1"><path d="M31.86,381.42h0Z"/><polygon points="39.19 193.87 39.2 193.87 39.2 193.88 39.19 193.87 39.19 193.87"/><polygon points="38.47 424.19 38.47 424.2 38.47 424.2 38.47 424.19 38.47 424.19"/><polygon points="443.62 234.46 443.62 234.46 443.62 234.46 443.62 234.46 443.62 234.46"/><path d="M317.9,167.46a89.48,89.48,0,0,1,14.63,38.82H296.86a55.73,55.73,0,0,0-3.9-14.4,56.3,56.3,0,0,0-17.14-22.36L290.27,141a90.35,90.35,0,0,1,27.63,26.45Zm133.53,37.12a9.76,9.76,0,0,1,4.29-1,9.62,9.62,0,0,1,3.82.77,9.81,9.81,0,0,1,4.32,3.56,9.84,9.84,0,0,1,.9,9.3,9.88,9.88,0,0,1-3.56,4.32,9.85,9.85,0,0,1-10.36.38h0a9.93,9.93,0,0,1-2.95-2.6,7.22,7.22,0,0,0-.11-11.69,10,10,0,0,1,3.65-3ZM326.2,252.82a90.37,90.37,0,0,1-32.62,39.61c-.59.4-1.2.78-1.8,1.17l-17.5-34.54a56,56,0,0,0,22.65-38.31h36.29a89.63,89.63,0,0,1-7,32.07Zm-82.94,55a89.75,89.75,0,0,1-35-7.07c-.84-.36-1.66-.73-2.49-1.11l16.75-33.05a56.22,56.22,0,0,0,39.1-.57L279,300.41a89.59,89.59,0,0,1-35.75,7.39Zm-74.65-39.69a89.52,89.52,0,0,1-15.31-47.36h32.35A55.77,55.77,0,0,0,209.59,260L193.1,292.53a90.76,90.76,0,0,1-24.49-24.42Zm-8.29-85.36a90.37,90.37,0,0,1,32.62-39.61c1.39-.95,2.83-1.84,4.28-2.71l13.35,26.35a56.07,56.07,0,0,0-24.88,39.5H154a89.11,89.11,0,0,1,6.35-23.53Zm81.85,44.94L255,253a41.92,41.92,0,0,1-25.91.5l13.08-25.83Zm1.72-27.16-13.66-26.95a41.61,41.61,0,0,1,26.55,1.51l-12.89,25.44ZM217.16,179.8l13.42,26.48H200.34a41.34,41.34,0,0,1,16.82-26.48ZM206.77,237a41.39,41.39,0,0,1-6.51-16.23h29.21L216.2,246.93a41.86,41.86,0,0,1-9.43-10Zm60.86,9-12.76-25.18H282.3a41,41,0,0,1-2.67,9.16,41.65,41.65,0,0,1-12,16Zm8.17-55.48a41.44,41.44,0,0,1,6.44,15.83h-25l11.91-23.51a41.88,41.88,0,0,1,6.69,7.68Zm-32.54-62.68a89.62,89.62,0,0,1,34.1,6.69l-14,27.68a56.15,56.15,0,0,0-39.74-1.65L210.2,134a89.76,89.76,0,0,1,33.06-6.26ZM447,398.42A9.82,9.82,0,0,1,450,395h0a9.8,9.8,0,0,1,5.77-1.87,9.62,9.62,0,0,1,3.82.77,9.88,9.88,0,0,1,4.32,3.56,9.73,9.73,0,0,1,1.67,5.49,9.6,9.6,0,0,1-.77,3.81,9.8,9.8,0,0,1-9,6A9.81,9.81,0,0,1,447,398.42ZM33,409a10,10,0,0,1-3,3.43h0a9.74,9.74,0,0,1-5.72,1.85,10,10,0,0,1-3.82-.77A9.87,9.87,0,0,1,16.14,410a9.84,9.84,0,0,1-.9-9.3,9.88,9.88,0,0,1,3.56-4.32,9.73,9.73,0,0,1,5.49-1.67,9.53,9.53,0,0,1,3,.48h0A9.82,9.82,0,0,1,33,409Zm-.9-190A9.89,9.89,0,0,1,27,222.46h0a9.42,9.42,0,0,1-2.7.38,9.62,9.62,0,0,1-3.82-.77,9.85,9.85,0,0,1-4.33-3.56,9.84,9.84,0,0,1-.9-9.3,9.81,9.81,0,0,1,12.28-5.45,9.56,9.56,0,0,1,2.77,1.51v0A9.79,9.79,0,0,1,32.09,219ZM24.29,35.64a9.75,9.75,0,0,1-8.15-4.33,9.84,9.84,0,0,1-.9-9.3,9.88,9.88,0,0,1,3.56-4.32A9.73,9.73,0,0,1,24.29,16a9.6,9.6,0,0,1,3,.48h.05a9.83,9.83,0,0,1,6.74,9.32A9.75,9.75,0,0,1,30,33.77l-.05,0a9.62,9.62,0,0,1-5.7,1.83ZM455.72,14.47a9.62,9.62,0,0,1,3.82.77,9.88,9.88,0,0,1,4.32,3.56,9.73,9.73,0,0,1,1.67,5.49,9.6,9.6,0,0,1-.77,3.81,9.82,9.82,0,0,1-12.4,5.41h0A10,10,0,0,1,447.71,30a9.77,9.77,0,0,1-1.81-5.67,9.91,9.91,0,0,1,1.1-4.53,10,10,0,0,1,2.92-3.39l.05,0a9.69,9.69,0,0,1,5.75-1.87ZM433.09,33.06a24.16,24.16,0,0,0,14.29,14l.1,0a24.29,24.29,0,0,0,30.61-32.3A24.25,24.25,0,0,0,441.94,4.31a5.25,5.25,0,0,0-.49.33,24.19,24.19,0,0,0-9.34,14h-91.6a7.25,7.25,0,0,0-6.46,4l-50.13,99a104.6,104.6,0,0,0-80.28-.44L153.72,22.56a7.23,7.23,0,0,0-6.45-4H49.11a6.92,6.92,0,0,0-1.59.18,24.25,24.25,0,0,0-15.69-16l-.52-.14a24.12,24.12,0,0,0-16.48.85,24.28,24.28,0,0,0,9.46,46.65A24,24,0,0,0,38,45.86l.5-.32a24.52,24.52,0,0,0,7.34-8.46,25,25,0,0,0,1.71-4.2,6.92,6.92,0,0,0,1.59.18h93.72l47.84,94.44a104.37,104.37,0,0,0-51.26,78.78H49.11a7,7,0,0,0-1.46.15A24.36,24.36,0,0,0,32.31,190.1a24.3,24.3,0,0,0-30.4,32.38,24.3,24.3,0,0,0,29,13.9l.07,0a24.28,24.28,0,0,0,16.36-15.83,7,7,0,0,0,1.73.22h89.71a104.28,104.28,0,0,0,46,83.67l1.68,1.1-45.41,89.64H47.39c-.23,0-.45,0-.67,0a24.32,24.32,0,0,0-14.84-13.76,24.31,24.31,0,0,0-17,.69,24.28,24.28,0,1,0,31,33.62,24.6,24.6,0,0,0,2.2-6.11h97.54a7.24,7.24,0,0,0,6.45-4l47.19-93.13a104.64,104.64,0,0,0,84.74,1.52c.55-.23,1.09-.48,1.63-.72l46.78,92.33a7.24,7.24,0,0,0,6.45,4h93.6a24.2,24.2,0,0,0,15,16.14h0a24.28,24.28,0,1,0-6-42.48h0a24,24,0,0,0-8.74,11.87H343.23l-44.88-88.6a104.37,104.37,0,0,0,49.34-85.81h84.89a24.26,24.26,0,1,0,12.53-29.19h0a24.27,24.27,0,0,0-12.6,14.72h-85.4a104.24,104.24,0,0,0-45.43-75.13c-1.59-1.07-3.21-2.09-4.86-3.08l48.13-95Z"/></g></g></svg>