<?xml version="1.0" encoding="utf-8"?>
<!-- Generator: Adobe Illustrator 26.0.3, SVG Export Plug-In . SVG Version: 6.00 Build 0)  -->
<svg version="1.1" id="Capa_1" xmlns="http://www.w3.org/2000/svg" xmlns:xlink="http://www.w3.org/1999/xlink" x="0px" y="0px"
	 viewBox="0 0 48.2 61.8" style="enable-background:new 0 0 48.2 61.8;" xml:space="preserve">
<style type="text/css">
	.st0{fill:#FFFFFF;}
</style>
<g id="Layer_2">
	<g id="Layer_1-2">
		<path class="st0" d="M8.8,61.8l-1.9-0.6l16-47.4l1,0.3l1-0.3l15.3,47.4l-1.9,0.6l-3.7-11.4H12.7L8.8,61.8z M13.3,48.4h20.5
			l-4.7-14.4h-11L13.3,48.4z M18.9,31.9h9.7l-4.7-14.7L18.9,31.9z M7.7,31.6C7.3,31.4,0,27.1,0,15.5C0,4.4,7.3,0.2,7.7,0l1,1.8
			L8.1,0.9l0.5,0.9C8.4,1.9,2,5.6,2,15.5c0,10.4,6.4,14.2,6.6,14.4L7.7,31.6z M40.6,31.6l-1-1.7c0.3-0.1,6.7-4,6.7-14.4
			c0-9.9-6.6-13.7-6.6-13.8l1-1.8c0.3,0.2,7.7,4.4,7.7,15.5C48.2,27.1,40.9,31.4,40.6,31.6z M13,26.5c-0.2-0.1-4.8-2.8-4.8-10.1
			s4.7-9.7,4.9-9.8l0.8,1.8l-0.4-0.9L14,8.4c-0.1,0.1-3.8,1.9-3.8,8s3.7,8.3,3.8,8.4L13,26.5z M35.2,26.5l-1-1.7
			c0.2-0.1,3.8-2.3,3.8-8.4s-3.7-7.9-3.8-8l0.8-1.8C35.3,6.7,40,9,40,16.4S35.4,26.4,35.2,26.5L35.2,26.5z"/>
	</g>
</g>
</svg>
