<?xml version="1.0" encoding="utf-8"?>
<!-- Generator: Adobe Illustrator 26.0.3, SVG Export Plug-In . SVG Version: 6.00 Build 0)  -->
<svg version="1.1" id="Capa_1" xmlns="http://www.w3.org/2000/svg" xmlns:xlink="http://www.w3.org/1999/xlink" x="0px" y="0px"
	 viewBox="0 0 542.5 542.5" style="enable-background:new 0 0 542.5 542.5;" xml:space="preserve">
<style type="text/css">
	.st0{fill:#FFFFFF;}
</style>
<g id="Layer_2">
	<g id="Layer_1-2">
		<path class="st0" d="M411.2,140V35c0-4.8-3.9-8.7-8.7-8.8c0,0,0,0,0,0H315v17.5h78.8v87.5H315v17.5h87.5
			C407.3,148.8,411.2,144.8,411.2,140C411.2,140,411.2,140,411.2,140z"/>
		<path class="st0" d="M131.2,35v105c0,4.8,3.9,8.7,8.7,8.8c0,0,0,0,0,0h78.8v-17.5h-70V43.8h70V26.2H140
			C135.2,26.2,131.3,30.2,131.2,35C131.2,35,131.2,35,131.2,35z"/>
		<path class="st0" d="M113.8,175h315c4.8,0,8.7-3.9,8.8-8.7c0,0,0,0,0,0V8.8c0-4.8-3.9-8.7-8.7-8.8c0,0,0,0,0,0h-315
			c-4.8,0-8.7,3.9-8.8,8.7c0,0,0,0,0,0v157.5C105,171.1,108.9,175,113.8,175C113.7,175,113.7,175,113.8,175z M420,157.5H280v-10
			c18.7-4.8,29.9-23.8,25.1-42.5c-4-15.5-17.9-26.3-33.9-26.2c-9.7,0-17.5-7.8-17.5-17.5s7.8-17.5,17.5-17.5s17.5,7.8,17.5,17.5
			h17.5c-0.1-15.9-10.8-29.8-26.2-33.8v-10h140V157.5z M122.5,17.5h140v10c-18.7,4.8-29.9,23.8-25.1,42.5
			c4,15.5,17.9,26.3,33.9,26.2c9.7,0,17.5,7.8,17.5,17.5s-7.8,17.5-17.5,17.5s-17.5-7.8-17.5-17.5h-17.5
			c0.1,15.9,10.8,29.8,26.2,33.8v10h-140V17.5z"/>
		<path class="st0" d="M183.8,367.5H87.5v-78.8c0-4.8-3.9-8.7-8.7-8.8c0,0,0,0,0,0h-35c-4.8,0-8.7,3.9-8.8,8.7c0,0,0,0,0,0v113.8
			H8.8c-4.8,0-8.7,3.9-8.8,8.7c0,0,0,0,0,0v61.2c0,2.3,0.9,4.5,2.6,6.2L35,511.1V525H17.5v17.5h175V525H175v-15.4l16.6-33.2
			c0.6-1.2,0.9-2.6,0.9-3.9v-96.2C192.5,371.4,188.6,367.5,183.8,367.5C183.8,367.5,183.8,367.5,183.8,367.5z M175,470.4l-16.6,33.1
			c-0.6,1.2-0.9,2.6-0.9,3.9V525h-105v-17.5c0-2.3-0.9-4.5-2.6-6.2l-32.4-32.4V420H35v26.2h17.5V297.5H70v131.2h17.5V385H105v43.8
			h17.5V385H140v43.8h17.5V385H175V470.4z"/>
		<path class="st0" d="M20.4,325.6l11.7-13c-18-16.1-19.6-43.8-3.5-61.8s43.8-19.6,61.8-3.5s19.6,43.8,3.5,61.8
			c-1.1,1.2-2.2,2.4-3.5,3.5l11.7,13c25.2-22.6,27.4-61.3,4.8-86.5s-61.3-27.4-86.5-4.8s-27.4,61.3-4.8,86.5
			C17.1,322.5,18.7,324.1,20.4,325.6z"/>
		<path class="st0" d="M288.8,218.8h17.5v17.5h-17.5V218.8z"/>
		<path class="st0" d="M253.8,218.8h17.5v17.5h-17.5V218.8z"/>
		<path class="st0" d="M218.8,218.8h17.5v17.5h-17.5V218.8z"/>
		<path class="st0" d="M183.8,218.8h17.5v17.5h-17.5V218.8z"/>
		<path class="st0" d="M148.8,218.8h17.5v17.5h-17.5V218.8z"/>
		<path class="st0" d="M288.8,306.2h17.5v17.5h-17.5V306.2z"/>
		<path class="st0" d="M253.8,306.2h17.5v17.5h-17.5V306.2z"/>
		<path class="st0" d="M218.8,306.2h17.5v17.5h-17.5V306.2z"/>
		<path class="st0" d="M183.8,306.2h17.5v17.5h-17.5V306.2z"/>
		<path class="st0" d="M148.8,306.2h17.5v17.5h-17.5V306.2z"/>
		<path class="st0" d="M539.9,265.1l-78.8-78.8c-3.4-3.4-9-3.4-12.4,0c-1.6,1.6-2.6,3.9-2.6,6.2v26.2H323.8v17.5H455
			c4.8,0,8.7-3.9,8.8-8.7c0,0,0,0,0,0v-13.9l57.6,57.6l-57.6,57.6V315c0-4.8-3.9-8.7-8.7-8.8c0,0,0,0,0,0H323.8v17.5h122.5V350
			c0,3.5,2.1,6.7,5.4,8.1c1.1,0.4,2.2,0.7,3.4,0.7c2.3,0,4.6-0.9,6.2-2.6l78.8-78.8C543.4,274,543.4,268.5,539.9,265.1
			C539.9,265.1,539.9,265.1,539.9,265.1z"/>
	</g>
</g>
</svg>
