<?xml version="1.0" encoding="utf-8"?>
<!-- Generator: Adobe Illustrator 26.0.3, SVG Export Plug-In . SVG Version: 6.00 Build 0)  -->
<svg version="1.1" id="Capa_1" xmlns="http://www.w3.org/2000/svg" xmlns:xlink="http://www.w3.org/1999/xlink" x="0px" y="0px"
	 viewBox="0 0 560 560" style="enable-background:new 0 0 560 560;" xml:space="preserve">
<style type="text/css">
	.st0{fill:#FFFFFF;}
</style>
<g id="Layer_2">
	<g id="Layer_1-2">
		<path class="st0" d="M430.1,307l-92-77.4c-3.5-2.9-8.6-2.7-11.8,0.5l-7.8,7.8c-23.3,23.3-23.3,61,0,84.2c0,0,0,0,0,0l42.2,42.3
			c3.4,3.4,9,3.4,12.4,0c3.4-3.4,3.4-9,0-12.4l0,0l-42.2-42.3c-16.4-16.4-16.4-43.1,0-59.5l2.1-2.1l85.8,72.2
			c41,34.9,48.3,91.7,16.3,129.7l-37.6,52.4c-18.1,25.1-47.1,40-78,40h-60.3c-25.5,0.1-49.9-10.1-67.8-28.1l-21.8-21.8
			c-3.4-3.4-9-3.4-12.4,0s-3.4,9,0,12.4l21.8,21.9c21.2,21.3,50.1,33.3,80.2,33.2h60.4c36.5,0,70.8-17.7,92.2-47.3l37.1-51.9
			C486.8,415.8,478.6,348.3,430.1,307L430.1,307z"/>
		<path class="st0" d="M375.8,446.2v-52.5c0-4.8-3.9-8.8-8.8-8.8s-8.8,3.9-8.8,8.8v8.8H130.8V26.2c0-4.8,3.9-8.7,8.8-8.8H192v8.8
			c0,14.5,11.8,26.2,26.2,26.2h52.5c14.5,0,26.2-11.8,26.2-26.2v-8.8h52.5c4.8,0,8.7,3.9,8.8,8.8v201.2c0,4.8,3.9,8.8,8.8,8.8
			s8.8-3.9,8.8-8.8V26.2C375.7,11.8,364,0,349.5,0h-210c-14.5,0-26.2,11.8-26.2,26.2v115.6c-13-6.9-29-5.7-40,4.2
			c-5.7,5.1-9.6,12-11,19.6c-12.7-6-27.9-4.3-38.5,5.2c-7.2,6.4-11.4,15.5-11.7,25.1c-0.2,9.6,3.5,18.9,10.2,25.7l3.3,3.3
			c-6.6,1.7-12.5,5.4-17,10.4c-12.4,13.8-11.4,35.4,2.4,49.2l14.6,14.6c-6.6,1.7-12.5,5.4-17,10.4c-12.4,13.8-11.4,35.4,2.4,49.2
			l70.3,70.3c3.4,3.4,9,3.4,12.4,0c3.4-3.4,3.4-9,0-12.4l-70.3-70.3c-7.1-7-7.8-18.3-1.7-25.1c6.5-7.2,17.5-7.8,24.7-1.3
			c0.2,0.2,0.4,0.4,0.6,0.6l66.2,66.2v59.5c0,14.5,11.8,26.2,26.3,26.2h210C364,472.5,375.7,460.7,375.8,446.2L375.8,446.2z
			 M279.5,26.2c0,4.8-3.9,8.7-8.8,8.8h-52.5c-4.8,0-8.7-3.9-8.8-8.8v-8.8h70V26.2z M84.9,159.1c6.8-6.1,18.1-5.4,25.1,1.7l3.2,3.2
			v49.5l-29-29l0,0c-6.8-6.8-6.8-17.9,0-24.8C84.5,159.6,84.7,159.4,84.9,159.1L84.9,159.1z M35.4,183.9c6.8-6.1,18.1-5.3,25.1,1.7
			l52.7,52.7v49.5l-78.5-78.5c-6.8-6.9-6.8-17.9,0-24.8C35,184.3,35.2,184.1,35.4,183.9z M59.4,308.3l-36-36.1
			c-7.1-7-7.8-18.3-1.7-25.1c3.2-3.6,7.8-5.7,12.6-5.8c4.8-0.1,9.4,1.7,12.8,5.1l66.2,66.2V362L59.4,308.3z M130.7,446.3V420h227.5
			v26.2c0,4.8-3.9,8.7-8.8,8.8h-210C134.6,455,130.7,451.1,130.7,446.3L130.7,446.3z"/>
		<path class="st0" d="M245.3,183.8h-18c-4.8,0-8.8,3.9-8.8,8.8s3.9,8.8,8.8,8.8l0,0h9v8.8c0,4.8,3.9,8.8,8.8,8.8s8.8-3.9,8.8-8.8
			v-10.3c13.7-4.6,21.1-19.4,16.5-33.1c-3.7-10.9-14-18.2-25.5-17.9c-4.8,0-8.8-3.9-8.8-8.8s3.9-8.8,8.8-8.8l0,0h18
			c4.8,0,8.8-3.9,8.8-8.8s-3.9-8.8-8.8-8.8h-9V105c0-4.8-3.9-8.8-8.8-8.8s-8.8,3.9-8.8,8.8v10.3c-13.7,4.6-21.1,19.5-16.5,33.2
			c3.7,10.9,14,18.1,25.5,17.8c4.8,0,8.8,3.9,8.8,8.8S250.1,183.8,245.3,183.8L245.3,183.8L245.3,183.8z"/>
		<path class="st0" d="M148.8,297.5c0,24.2,19.6,43.7,43.8,43.8h105c4.8,0,8.8-3.9,8.8-8.8s-3.9-8.8-8.8-8.8h-105
			c-14.5,0-26.2-11.8-26.2-26.2s11.8-26.2,26.2-26.2h87.5c4.8,0,8.8-3.9,8.8-8.8s-3.9-8.8-8.8-8.8h-87.5
			C168.4,253.8,148.8,273.3,148.8,297.5z"/>
		<path class="st0" d="M481.3,140c-43.5,0-78.8,35.3-78.8,78.8s35.3,78.8,78.8,78.8s78.8-35.3,78.8-78.8
			C560,175.3,524.8,140,481.3,140z M481.3,280c-33.8,0-61.2-27.4-61.2-61.2s27.4-61.2,61.2-61.2s61.2,27.4,61.2,61.2l0,0
			C542.5,252.6,515.1,280,481.3,280z"/>
		<path class="st0" d="M501.4,195.1l-28.8,28.8l-11.3-11.3c-3.5-3.3-9-3.2-12.4,0.3c-3.2,3.4-3.2,8.7,0,12l17.5,17.5
			c3.4,3.4,8.9,3.4,12.3,0c0,0,0,0,0,0l35-35c3.3-3.5,3.2-9-0.3-12.4C510,191.9,504.7,191.9,501.4,195.1L501.4,195.1z"/>
		<path class="st0" d="M280,288.8h-70c-4.8,0-8.8,3.9-8.8,8.8s3.9,8.8,8.8,8.8h70c4.8,0,8.8-3.9,8.8-8.8S284.9,288.8,280,288.8z"/>
	</g>
</g>
</svg>
