<svg xmlns="http://www.w3.org/2000/svg" viewBox="0 0 496.54 311.28"><defs><style>.cls-1{fill:#231f20;}.cls-2{fill:#fff;}.cls-3{fill:#f8d00d;}</style></defs><g id="Layer_2" data-name="Layer 2"><g id="Layer_1-2" data-name="Layer 1"><path class="cls-1" d="M485.61,214.5c-.08-2.14-1.24-21.24-17.08-33.44a42.7,42.7,0,0,0-13.12-6.85l-.07-13.16a42.41,42.41,0,0,0,30.08-41c-.2-19.22-13.63-36.53-32-41.41a45.4,45.4,0,0,0-35.8-33.84,35.21,35.21,0,0,0-8.73-14.92A99.2,99.2,0,0,0,338.41,0h-.5a97.48,97.48,0,0,0-69.73,29.12,34.94,34.94,0,0,0-.1,48.92,33.36,33.36,0,0,0,2.54,2.34c.12.55.26,1.11.41,1.65-13.4-5.14-27.09-6.26-36.39-6.26-18.48,0-34,2.62-48.9,8.25A42.25,42.25,0,0,0,164,102.64c-.84-1-1.7-1.91-2.55-2.81A80.94,80.94,0,0,0,92.21,75.54l.08-12.88c.13-25-19.87-45.36-44.54-45.36S2.84,37.63,2.6,62.64L.48,213.12v.23a91.14,91.14,0,0,0,1.29,11.21c.43,2.42,1,4.85,1.59,7.23v1a30,30,0,0,0-1.65,5.1,27.84,27.84,0,0,0-.55,3.48L0,296.34a14.46,14.46,0,0,0,14.51,14.84l455.52.1a14.88,14.88,0,0,0,14.86-14.84l-.08-54.78a16.49,16.49,0,0,0-.61-4.07,16.11,16.11,0,0,0-2-4.39v-.14A43.9,43.9,0,0,0,485.61,214.5Z"/><path class="cls-1" d="M481.61,214.63c-.07-1.94-1.11-19.31-15.5-30.39a39.05,39.05,0,0,0-14.67-7l-.1-19.31A38.28,38.28,0,0,0,481.44,120,39.07,39.07,0,0,0,450.07,82,41.54,41.54,0,0,0,414.4,48.33a30.78,30.78,0,0,0-8.32-15.65A95.24,95.24,0,0,0,338.43,4H338a93.68,93.68,0,0,0-67,28,30.9,30.9,0,0,0-.09,43.25,30.12,30.12,0,0,0,3.33,2.92,30.38,30.38,0,0,0,5,12.18c-15-8.55-32.07-10.53-44.61-10.54-18,0-33.09,2.54-47.52,8a38.66,38.66,0,0,0-22.22,22.28,82.86,82.86,0,0,0-6.28-7.44,76.06,76.06,0,0,0-55.53-23.79,75.25,75.25,0,0,0-14.88,1.45l.11-17.62c.13-22.8-18.1-41.35-40.59-41.35S6.78,39.85,6.57,62.64L4.48,213v.11a87.36,87.36,0,0,0,1.24,10.71c.44,2.49,1,5,1.64,7.38l0,2.37a25.67,25.67,0,0,0-1.76,5.15,24.87,24.87,0,0,0-.46,2.85L4,296.34A10.56,10.56,0,0,0,14.6,307.17l455.44.1a10.86,10.86,0,0,0,10.84-10.83l-.07-54.71a12.19,12.19,0,0,0-2.6-7.25v-2.24A40.07,40.07,0,0,0,481.61,214.63Z"/><path class="cls-2" d="M28.5,61.3A17.77,17.77,0,0,1,46.14,43.6,17.44,17.44,0,0,1,63.5,61.31L63,121.55c8.65-11.64,20.5-20.26,38.73-20.25,28.84,0,56.17,22.84,55.87,64.53v.47c-.39,41.69-27.8,64.51-57.28,64.51-18.8,0-30.28-8.63-38.47-18.64v.23A17.93,17.93,0,0,1,43.9,229.86a17.31,17.31,0,0,1-17.34-17.7Zm93.9,105v-.47c.2-20.73-13.55-34.47-29.95-34.48S62.26,145.08,62,165.81v.47c-.28,20.73,13.2,34.47,29.66,34.48S122.18,187.26,122.4,166.29Z"/><path class="cls-2" d="M174.72,192.62v-.46c.22-27.26,20.9-39.83,50.27-39.82a87.33,87.33,0,0,1,30.28,5.13v-2.1c0-14.67-9-22.83-26.52-22.83A79.66,79.66,0,0,0,204.49,136a15,15,0,0,1-5.09.93,14.28,14.28,0,0,1-14.49-14.45,14.76,14.76,0,0,1,9.52-13.74c11.09-4.19,23.1-6.52,39.48-6.51,19.15,0,33,5.13,41.77,14,9.23,9.32,13.39,23.06,13.37,39.84l-.18,56.83a17.08,17.08,0,0,1-17.27,17c-10.21,0-16.89-7.22-16.84-14.67V215c-8.65,9.55-20.54,15.84-37.71,15.83C193.6,230.83,174.48,217.31,174.72,192.62Zm80.9-8.13,0-6.29a54.06,54.06,0,0,0-22.43-4.66c-15.05,0-24.35,6.05-24.43,17.23v.46c-.07,9.55,7.77,15.15,19.13,15.15C244.38,206.38,255.56,197.3,255.62,184.49Z"/><path class="cls-2" d="M319.79,120a17.55,17.55,0,1,1,35.1,0l.08,92.24a17.63,17.63,0,1,1-35.25,0Z"/><path class="cls-2" d="M392.76,193.13,392.59,134h-1.15a15.12,15.12,0,0,1-15.08-15.14,15,15,0,0,1,14.92-15.14h1.16l-.1-15.61a17.44,17.44,0,0,1,17.38-17.7,17.79,17.79,0,0,1,17.66,17.71l.13,15.6H443a15.2,15.2,0,0,1,15.13,15.14A14.9,14.9,0,0,1,443.2,134H427.72l.24,53.34c0,8.15,3.51,12.11,11.39,12.11,1.16,0,3.48-.23,4.18-.23a14.79,14.79,0,0,1,14.65,14.68,14.35,14.35,0,0,1-9,13.28c-6.5,2.56-12.53,3.49-20.19,3.48C407.39,230.64,392.77,222,392.76,193.13Z"/><path class="cls-3" d="M384.74,58.63a6.84,6.84,0,0,1-4.87-2,58.41,58.41,0,0,0-83.2-.44,6.78,6.78,0,0,1-9.66,0,7,7,0,0,1,0-9.77c28.21-28.45,74.12-28.21,102.47.54a7,7,0,0,1,0,9.77A6.71,6.71,0,0,1,384.74,58.63Z"/><path class="cls-3" d="M371.6,77.63a6.81,6.81,0,0,1-4.86-2,41.05,41.05,0,0,0-29.19-12.37h-.21a40.51,40.51,0,0,0-29,12.06,6.77,6.77,0,0,1-9.66,0,7,7,0,0,1,0-9.77,54,54,0,0,1,38.53-16.06h.28a54.67,54.67,0,0,1,38.84,16.47,7,7,0,0,1,0,9.77A6.75,6.75,0,0,1,371.6,77.63Z"/><path class="cls-3" d="M360.49,97.11a6.82,6.82,0,0,1-4.87-2,25.41,25.41,0,0,0-36.13-.2,6.78,6.78,0,0,1-9.67,0,7,7,0,0,1,0-9.77,39,39,0,0,1,55.44.29,7,7,0,0,1,0,9.77A6.75,6.75,0,0,1,360.49,97.11Z"/><path class="cls-3" d="M29.05,253.43h5.47l-.61,31.21H28.43Z"/><path class="cls-3" d="M42.07,261.1h5.38l-.06,3.61a8.67,8.67,0,0,1,7.41-4.1c5.3,0,8.3,3.57,8.21,9l-.28,15H57.34l.25-13.37c.07-3.66-1.72-5.76-4.92-5.76s-5.34,2.19-5.41,5.84L47,284.64H41.61Z"/><path class="cls-3" d="M70.46,278.13l.23-12.39h-3l.09-4.64h3l.11-6.46h5.38l-.11,6.46h6.32l-.08,4.63H76.07l-.2,11.55c0,2.09,1,2.94,2.84,2.94a7.25,7.25,0,0,0,3.35-.8L82,283.84a9.38,9.38,0,0,1-4.87,1.21C73.14,285.05,70.37,283.31,70.46,278.13Z"/><path class="cls-3" d="M85.78,273v-.09c.12-6.74,5-12.26,11.69-12.26,7.48,0,11.17,5.89,11.06,12.66,0,.49-.06,1-.12,1.52H91.14a6.43,6.43,0,0,0,6.66,6,8.68,8.68,0,0,0,6.42-2.81l3.11,2.81a12.08,12.08,0,0,1-9.69,4.42C90.82,285.18,85.66,280.23,85.78,273Zm17.44-1.74c-.3-3.48-2.3-6.2-5.86-6.2-3.3,0-5.65,2.54-6.21,6.2Z"/><path class="cls-3" d="M114.15,261.11h5.38l-.08,5.31c1.52-3.52,4.28-5.93,8.41-5.75l-.08,5.71h-.32c-4.71,0-8,3.07-8.15,9.31l-.15,9h-5.39Z"/><path class="cls-3" d="M132.53,261.12h5.38l0,3.61a8.64,8.64,0,0,1,7.4-4.1c5.29,0,8.31,3.57,8.24,9l-.22,15h-5.39l.2-13.37c0-3.66-1.74-5.76-5-5.76s-5.33,2.19-5.38,5.84l-.2,13.29h-5.39Z"/><path class="cls-3" d="M158.66,273v-.09c.09-6.73,4.93-12.26,11.65-12.26,7.47,0,11.18,5.89,11.1,12.67,0,.49-.06,1-.11,1.51H164a6.46,6.46,0,0,0,6.69,6,8.62,8.62,0,0,0,6.4-2.81l3.13,2.81a12.07,12.07,0,0,1-9.68,4.41C163.74,285.2,158.56,280.25,158.66,273Zm17.43-1.73c-.31-3.48-2.32-6.2-5.88-6.2-3.3,0-5.64,2.54-6.18,6.19Z"/><path class="cls-3" d="M187.89,278.16l.15-12.39h-3l.06-4.63h3l.08-6.47h5.38l-.08,6.47h6.32l-.05,4.64h-6.32l-.14,11.54c0,2.1,1,2.95,2.85,2.95a7.32,7.32,0,0,0,3.35-.8l-.05,4.41a9.38,9.38,0,0,1-4.87,1.2C190.6,285.07,187.82,283.33,187.89,278.16Z"/><path class="cls-3" d="M234.91,261.14h5.6l-9.6,24.21c-1.92,4.81-4,6.6-7.82,6.59a11.05,11.05,0,0,1-5.56-1.42l1.88-4a6.52,6.52,0,0,0,3.15.9c1.51,0,2.46-.67,3.37-2.68l-9.53-23.59h5.78l6.45,17.47Z"/><path class="cls-3" d="M266.79,258.56h-9.88l0-5.09h25.27l0,5.08H272.3l-.22,26.13h-5.53Z"/><path class="cls-3" d="M280.86,273v-.09c.05-6.73,4.85-12.26,11.57-12.26,7.48,0,11.22,5.89,11.17,12.66,0,.49-.05,1-.1,1.52H286.24a6.49,6.49,0,0,0,6.72,6,8.62,8.62,0,0,0,6.39-2.81l3.14,2.81a12,12,0,0,1-9.66,4.42C286,285.23,280.8,280.28,280.86,273Zm17.42-1.74c-.33-3.48-2.35-6.2-5.91-6.2-3.3,0-5.63,2.54-6.15,6.2Z"/><path class="cls-3" d="M309.49,252.15h5.38l-.21,32.55h-5.39Z"/><path class="cls-3" d="M320.49,273v-.09c0-6.74,4.83-12.26,11.55-12.26,7.48,0,11.23,5.89,11.19,12.66,0,.49-.05,1-.09,1.52H325.86a6.52,6.52,0,0,0,6.73,6A8.59,8.59,0,0,0,339,278l3.14,2.81a11.9,11.9,0,0,1-9.64,4.41C325.66,285.23,320.44,280.28,320.49,273Zm17.41-1.74c-.33-3.48-2.37-6.2-5.93-6.2-3.29,0-5.62,2.54-6.13,6.2Z"/><path class="cls-3" d="M349.9,265.8h-3l0-4.5h3v-1.74c0-2.59.69-4.55,1.94-5.8a7.12,7.12,0,0,1,5.3-1.87,14.59,14.59,0,0,1,4.36.62l0,4.55a9.36,9.36,0,0,0-3.16-.58c-2,0-3.12,1.12-3.13,3.57v1.29h6.23l0,4.46h-6.14l-.09,18.91h-5.39Z"/><path class="cls-3" d="M363.67,273.07V273a12.35,12.35,0,0,1,12.6-12.3,12.13,12.13,0,0,1,12.46,12.22V273a12.34,12.34,0,0,1-12.65,12.25A12.1,12.1,0,0,1,363.67,273.07Zm19.68,0V273a7.25,7.25,0,0,0-7.19-7.58c-4.31,0-7.09,3.39-7.1,7.49V273a7.22,7.22,0,0,0,7.13,7.54C380.56,280.52,383.33,277.13,383.35,273.07Z"/><path class="cls-3" d="M394.24,261.17h5.39v3.61a8.54,8.54,0,0,1,7.35-4.1c5.29,0,8.36,3.57,8.35,9l0,15H409.9l0-13.38c0-3.66-1.81-5.75-5-5.75s-5.3,2.18-5.31,5.84l0,13.28h-5.39Z"/><path class="cls-3" d="M422.14,261.18h5.38l0,23.54H422.1Zm5.17-10.3,4.89,2.18-5.47,5.13h-4.05Z"/><path class="cls-3" d="M433,277.94v-.09c0-5.08,4-7.57,9.71-7.57a19.55,19.55,0,0,1,6.32,1v-.58c0-3.34-2-5.13-5.82-5.13a16.41,16.41,0,0,0-6.73,1.47L435,262.79a20,20,0,0,1,8.86-1.92c3.51,0,6.14.94,7.79,2.63s2.53,4.19,2.53,7.27v14H449v-2.94a9.53,9.53,0,0,1-7.66,3.43C436.89,285.21,433,282.67,433,277.94Zm16.12-1.69v-1.6a14.77,14.77,0,0,0-5.34-.94c-3.47,0-5.52,1.47-5.53,3.92v.09c0,2.28,2,3.57,4.59,3.57C446.38,281.29,449.1,279.24,449.1,276.25Z"/><path class="cls-1" d="M496.54,47.46a21,21,0,0,1-21.27,21.3,21.69,21.69,0,0,1-21.91-21.31,21,21,0,0,1,21.36-21.16A21.63,21.63,0,0,1,496.54,47.46Zm-37.49.13c.11,9.3,7,16.67,16.16,16.67s15.88-7.37,15.75-16.8c-.12-9.18-7-16.67-16.31-16.67C465.6,30.78,458.93,38.28,459.05,47.59Zm13.41,10h-6L466.24,38a53.32,53.32,0,0,1,8.51-.61c4.37,0,6.33.61,7.8,1.48a5.17,5.17,0,0,1,2.13,4.3c0,2-1.78,3.7-4.44,4.44v.24c2.19.74,3.44,2.22,4.08,5.05a20,20,0,0,0,1.4,4.67H479c-.61-.73-1-2.46-1.38-4.18-.4-2-1.38-2.95-3.32-2.95h-1.95Zm.09-11.2h1.72c2.18,0,3.63-.86,3.61-2.33s-1.38-2.46-3.44-2.46c-.73,0-1.46.12-1.95.12Z"/></g></g></svg>