<svg xmlns="http://www.w3.org/2000/svg" viewBox="0 0 214.53 83.57"><defs><style>.cls-1{fill:#0b1f41;}.cls-2{fill:#fff;}</style></defs><g id="Layer_2" data-name="Layer 2"><g id="Capa_1" data-name="Capa 1"><path class="cls-1" d="M103.53,20.66c-.66,2.77-1.31,5.55-2,8.33-.61,2.51-1.27,5-1.85,7.54-.15.7-.41,1-1.14,1.06-3.15.32-4.42-.5-5.18-3.58-1.6-6.42-3.15-12.84-4.72-19.26a2.12,2.12,0,0,1,0-.46c1.52,0,3,0,4.55,0,.65,0,.65.38.73.83,1.06,5.52,2.14,11,3.26,16.8.37-1.69.67-3.18,1-4.65.93-4,1.9-8.07,2.79-12.11.16-.71.43-.9,1.11-.87,1.15.05,2.31.05,3.47,0,.66,0,.89.21,1,.84,1,5.27,2.35,10.5,3.17,15.82,0,.19,0,.4.26.47,1.1-5.33,2.21-10.65,3.26-16,.17-.85.44-1.23,1.37-1.15a17.19,17.19,0,0,0,2.87,0c.89-.08,1,.26.75,1-1.07,4-2.11,7.93-3.16,11.89-.84,3.16-1.7,6.31-2.5,9.47a1.07,1.07,0,0,1-1.12,1c-3,.33-4.5-.68-5.12-3.67C105.45,29.52,104.34,25.15,103.53,20.66Z"/><path class="cls-1" d="M148.29,22.22c3.15-3.67,7.35-3.45,9.92.43a7.38,7.38,0,0,1,3.61-2.73c3.92-1.23,7.37,1,7.72,5.43.31,3.81.11,7.66.15,11.49,0,.49-.21.63-.65.59h-.12c-1.27-.06-2.88.5-3.72-.21s-.22-2.33-.25-3.55c-.07-2.39,0-4.8-.13-7.18-.15-2.16-1.6-3.24-3.45-2.81A3.16,3.16,0,0,0,159.09,27c0,3.11-.06,6.22,0,9.34,0,1-.31,1.22-1.21,1.15-1.15-.08-2.67.37-3.36-.21s-.2-2.18-.22-3.32c0-2.08,0-4.15,0-6.23a9.74,9.74,0,0,0,0-1.08c-.2-1.93-1.2-3-2.77-3a3.16,3.16,0,0,0-3,3.14c-.08,1.79,0,3.59,0,5.39,0,1.44,0,2.87,0,4.31,0,.68-.11,1-.91,1-1.23-.07-2.84.42-3.6-.19s-.24-2.32-.24-3.54c0-4.23,0-8.46,0-12.7,0-.77.19-1.06,1-1A10.76,10.76,0,0,0,147,20c1.1-.14,1.45.29,1.28,1.31A5.62,5.62,0,0,0,148.29,22.22Z"/><path class="cls-2" d="M5.45,18.14A5.46,5.46,0,0,1,11,25.07a1.17,1.17,0,0,0,.67,1.66c2.16,1.2,4.29,2.46,6.41,3.74a.91.91,0,0,0,1.31-.14,3.79,3.79,0,0,1,5-.18,3.84,3.84,0,0,1-3.76,6.58,3.74,3.74,0,0,1-2.4-4.42c.2-.81-.1-1.05-.66-1.37-2.11-1.21-4.22-2.42-6.3-3.69a1.07,1.07,0,0,0-1.66.21,5.36,5.36,0,0,1-6.28,1.15A5.57,5.57,0,0,1,.19,23a5.52,5.52,0,0,1,4.27-4.77A5.9,5.9,0,0,1,5.45,18.14Z"/><path class="cls-2" d="M74,60.24A5.52,5.52,0,0,1,64.88,64a5.1,5.1,0,0,1-1.69-5.61c.24-.8.12-1.17-.62-1.57-2.15-1.15-4.25-2.37-6.34-3.61-.61-.36-1-.48-1.61.11a3.67,3.67,0,0,1-4.74.29,3.84,3.84,0,0,1-1.38-4.47,3.84,3.84,0,0,1,7.4.8,1.11,1.11,0,0,1,0,.59c-.73,1.58.43,2,1.49,2.62,1.85,1,3.7,2.05,5.5,3.15.68.42,1,.35,1.56-.23a5.37,5.37,0,0,1,6.14-1.29A5.64,5.64,0,0,1,74,60.24Z"/><path class="cls-2" d="M68.73,29.19a5.29,5.29,0,0,1-4.33-1.82c-.45-.52-.75-.63-1.37-.25-2.07,1.27-4.18,2.5-6.31,3.67a1.13,1.13,0,0,0-.67,1.48,3.75,3.75,0,0,1-3,4.45A3.87,3.87,0,0,1,48.61,34a3.79,3.79,0,0,1,2.52-4.67,3.61,3.61,0,0,1,3.78.84,1,1,0,0,0,1.42.12c2.08-1.25,4.19-2.48,6.31-3.66.61-.35.8-.63.57-1.38a5.49,5.49,0,1,1,6.5,3.82A7.31,7.31,0,0,1,68.73,29.19Z"/><path class="cls-2" d="M5.55,54.5a5,5,0,0,1,4,1.79c.49.57.82.5,1.37.17,2.13-1.26,4.26-2.51,6.42-3.71A1.11,1.11,0,0,0,18,51.26a3.75,3.75,0,0,1,3-4.46,3.83,3.83,0,0,1,2,7.38,3.61,3.61,0,0,1-3.78-.8c-.44-.43-.75-.54-1.31-.2-2.22,1.33-4.46,2.64-6.73,3.9-.59.32-.6.63-.42,1.21A5.5,5.5,0,1,1,.07,60.73,5.45,5.45,0,0,1,5.55,54.5Z"/><path class="cls-2" d="M37,83.57a5.5,5.5,0,0,1-5.44-4.76,5.4,5.4,0,0,1,4.13-6c.85-.2,1.06-.53,1-1.36,0-2.43,0-4.87,0-7.3,0-.66-.09-1-.87-1.26a3.74,3.74,0,0,1-2.61-4.3,3.87,3.87,0,0,1,7.6.08,3.74,3.74,0,0,1-2.59,4.21c-.86.24-.92.65-.92,1.35,0,2.43,0,4.87,0,7.3,0,.78.21,1.09,1,1.27a5.43,5.43,0,0,1,4.19,6A5.52,5.52,0,0,1,37,83.57Z"/><path class="cls-2" d="M42.59,5.61a5.45,5.45,0,0,1-4.37,5.29c-.74.16-.87.45-.86,1.1,0,2.39,0,4.79,0,7.18a1.19,1.19,0,0,0,1,1.41A3.71,3.71,0,0,1,40.9,24.5a3.85,3.85,0,0,1-7.32,1.29,3.83,3.83,0,0,1,1-4.56,1.86,1.86,0,0,1,.8-.5c1.3-.2,1.41-1,1.37-2.13-.08-2.11-.05-4.23,0-6.35,0-.82-.14-1.2-1.08-1.43a5.41,5.41,0,0,1-4.06-6.29,5.53,5.53,0,0,1,11,1.08Z"/><path class="cls-1" d="M202,23.66c0-2.79,0-5.58,0-8.37,0-.73.12-1.08,1-1,1.19.09,2.75-.37,3.47.22s.21,2.24.23,3.41c0,1.84,0,1.84,1.83,1.84,2.3,0,2.3,0,2.3,2.31,0,2.12,0,2.12-2.12,2.12s-2,0-2,2c0,1.76,0,3.51.06,5.26.12,2,.83,2.56,2.77,2.32.88-.1,1.29.05,1.14,1a3.84,3.84,0,0,0,0,.48c0,2.41,0,2.41-2.47,2.55-4.07.22-6.06-1.58-6.13-5.64,0-2.83,0-5.66,0-8.49Z"/><path class="cls-1" d="M135.68,25.82c0-3.51,0-7,0-10.53,0-.76.17-1.09,1-1,1.22.13,2.85-.51,3.55.26s.19,2.26.2,3.45c0,6.06,0,12.12,0,18.19,0,.93-.14,1.4-1.2,1.26s-2.61.48-3.34-.25-.18-2.13-.19-3.24C135.66,31.24,135.68,28.53,135.68,25.82Z"/><path class="cls-1" d="M194.19,23.23a5.55,5.55,0,0,1,4.05-3.54c1.58-.31,1.82-.12,1.82,1.44v.24a6.65,6.65,0,0,1-.07,2.49c-.38.87-1.43.18-2.18.38a3.61,3.61,0,0,0-3,3.62c-.08,2.83-.06,5.66,0,8.49,0,.81-.19,1.18-1.05,1.09-1.26-.13-2.9.53-3.68-.27s-.19-2.35-.2-3.58c0-4.19,0-8.38,0-12.56,0-.77.18-1.13,1-1a1.92,1.92,0,0,0,.24,0c1,0,2.23-.29,2.9.19S194,22,194.19,23.23Z"/><path class="cls-1" d="M186.85,36.09c-.09-1.08-.14-2.15-.16-3.23,0-2.31.07-4.63-.05-6.94-.15-2.71-1.32-4.89-4-5.78a12.78,12.78,0,0,0-9.21.74c-.35.14-.62.3-.45.79.3.86.53,1.75.8,2.66a11.42,11.42,0,0,1,2.74-1,5.91,5.91,0,0,1,4.2.26,1.94,1.94,0,0,1,1.11,2.08c-.15.69-1,.34-1.56.38a12,12,0,0,0-6.42,2,5.64,5.64,0,0,0-2,6.3A5.29,5.29,0,0,0,177,37.81a6.64,6.64,0,0,0,5.26-2.22,3.15,3.15,0,0,0,3.12,2.11C186.89,37.7,187,37.59,186.85,36.09ZM182,30.57c0,2.24-.94,3.45-2.85,3.76a2.27,2.27,0,0,1-2.58-1.24,2.45,2.45,0,0,1,.67-2.92,6.86,6.86,0,0,1,4.32-1.09C182,29.07,182,29.16,182,30.57Z"/><path class="cls-1" d="M132.47,25.68a6,6,0,0,0-5.41-5.89,13.85,13.85,0,0,0-6.49.56c-2,.62-2,.65-1.41,2.61.13.45.29.89.44,1.36a10.86,10.86,0,0,1,2.73-1c1.5-.29,3-.53,4.4.4a1.86,1.86,0,0,1,.91,1.95c-.17.69-1,.33-1.46.36a12.92,12.92,0,0,0-6.05,1.64,5.64,5.64,0,0,0-2.49,6.53,5.33,5.33,0,0,0,5.44,3.65,6.54,6.54,0,0,0,5-2.16c1.15,1.82,2.32,2.34,4.12,1.94.41-.09.64-.2.59-.68C132.35,33.18,132.7,29.42,132.47,25.68Zm-4.6,4.75c0,2.34-.9,3.55-2.8,3.89a2.31,2.31,0,0,1-2.62-1.17,2.5,2.5,0,0,1,.81-3.09,6.49,6.49,0,0,1,4.11-1C128.37,29.12,127.6,30.07,127.87,30.43Z"/><path class="cls-2" d="M103.3,70.69a12.6,12.6,0,1,1,7.61-22.42c.53.42,1.18.8.5,1.63-1,1.17-1.12,1.22-2.16.42a9.71,9.71,0,0,0-11-1,10.24,10.24,0,0,0-5,9.67c.56,4.46,3.27,7.77,7.3,8.83A9.3,9.3,0,0,0,109.11,66c1.08-.85,1.37-.8,2.2.28s-.19,1.28-.69,1.67A11.5,11.5,0,0,1,103.3,70.69Z"/><path class="cls-2" d="M136.41,55.73a8.82,8.82,0,0,1,6-1.89,5,5,0,0,1,5,4.29,33.46,33.46,0,0,1,.25,6.08c0,1.48,0,3,0,4.43,0,.92.08,1.75-1.29,1.75s-1.36-.73-1.35-1.7c0-2.67,0-5.35,0-8,0-4.08-2.44-5.59-6.17-3.83-1.45.69-2.4,1.53-2.26,3.45.22,2.9,0,5.82.07,8.73,0,1-.3,1.37-1.31,1.37S134,70,134,69c0-4.47,0-8.93,0-13.4,0-.54-.31-1.32.51-1.52s1.35.3,1.66,1C136.22,55.33,136.31,55.51,136.41,55.73Z"/><path class="cls-2" d="M154.62,55.71a8.87,8.87,0,0,1,5.7-1.88,5,5,0,0,1,5.25,4.57c.42,2.58.14,5.18.21,7.77,0,.92,0,1.84,0,2.75s-.26,1.47-1.35,1.47-1.31-.57-1.3-1.51c0-2.76,0-5.51,0-8.27a7.69,7.69,0,0,0-.27-2.13A2.84,2.84,0,0,0,160,56.22a6.33,6.33,0,0,0-2.91.55c-1.58.68-2.55,1.6-2.4,3.6.21,2.7.06,5.43.05,8.14,0,.91.21,1.93-1.28,1.87-1.21,0-1.34-.17-1.34-1.81,0-4.31,0-8.62,0-12.93,0-.54-.33-1.33.5-1.53s1.41.35,1.7,1.15A3,3,0,0,0,154.62,55.71Z"/><path class="cls-2" d="M195.22,53.83a7.67,7.67,0,0,1,5.67,2.42c.59.61.41,1.09-.14,1.62s-1,.65-1.59,0a5.29,5.29,0,0,0-6.25-1.19,6.21,6.21,0,0,0-3.27,5.83c.22,3.09,2,5.28,4.65,5.75a5,5,0,0,0,4.88-1.9c.75-.86,1.4-.78,2,.11.42.62.05,1-.3,1.48a7.83,7.83,0,0,1-13.06-1.76C185.09,60.38,189,53.83,195.22,53.83Z"/><path class="cls-2" d="M205.89,61.68c0-1.32-.08-2.64,0-4,.09-1.08-.27-1.41-1.32-1.3-.63.07-1.42.23-1.62-.75s.14-1.46,1.25-1.51c1.67-.07,1.67-.07,1.67-1.76,0-.76,0-1.51,0-2.27,0-1.17.76-1.23,1.6-1.28s1,.5,1,1.23c0,.95.07,1.92,0,2.87s.32,1.3,1.28,1.23,2.08,0,3.12,0c.76,0,1.19.25,1.19,1.1s-.38,1.22-1.24,1.19c-1.19,0-2.39,0-3.59,0-.58,0-.76.2-.75.77,0,2.95,0,5.9,0,8.85.05,2.19,1.88,3,4.25,1.78,1.12-.57,1.39-.08,1.67.8a.9.9,0,0,1-.52,1.26,7.73,7.73,0,0,1-3.82.84c-2.54-.16-4.15-2-4.22-4.75C205.86,64.55,205.89,63.11,205.89,61.68Z"/><path class="cls-2" d="M173,62.88c1.68.07,3.35,0,5,0s3.52,0,5.27,0c.86,0,1.2-.37,1.26-1.22a7.2,7.2,0,0,0-4.36-7.3,7.88,7.88,0,0,0-8.69,1.89,9.55,9.55,0,0,0-.07,11.93c2.62,3,7.65,3.41,11.31,1,.61-.41,1.08-.75.48-1.59s-1-1.1-1.81-.43a5.49,5.49,0,0,1-1.94.91A5.61,5.61,0,0,1,172.1,64C171.91,63.25,172,62.84,173,62.88Zm-.83-2.8A5.3,5.3,0,0,1,177,56.22a4.72,4.72,0,0,1,4.72,3.48c.24.81.09,1.15-.84,1.1-1.35-.06-2.71,0-4.07,0s-2.79,0-4.18,0C172.09,60.81,172,60.6,172.12,60.08Z"/><path class="cls-2" d="M122.18,53.84A8.29,8.29,0,0,0,114,62.25a8.14,8.14,0,1,0,8.15-8.41Zm5.18,10.48a5.48,5.48,0,0,1-5.79,4c-3-.44-5-3-4.94-6.73A5.58,5.58,0,0,1,120,56.67a4.89,4.89,0,0,1,5.67.94A6.22,6.22,0,0,1,127.36,64.32Z"/></g></g></svg>