<?xml version="1.0" encoding="utf-8"?>
<!-- Generator: Adobe Illustrator 26.0.3, SVG Export Plug-In . SVG Version: 6.00 Build 0)  -->
<svg version="1.1" id="Capa_1" xmlns="http://www.w3.org/2000/svg" xmlns:xlink="http://www.w3.org/1999/xlink" x="0px" y="0px"
	 viewBox="0 0 206 104.7" style="enable-background:new 0 0 206 104.7;" xml:space="preserve">
<style type="text/css">
	.st0{fill:#FFFFFF;}
</style>
<g id="Layer_2">
	<g id="Layer_1-2">
		<path class="st0" d="M61.6,104.7c-0.1-0.2-0.1-0.4-0.1-0.6c0-1,0-2.1,0-3.1c0-0.1,0-0.2,0-0.3c0-0.1-0.1-0.1-0.2-0.1c0,0,0,0,0,0
			l-0.1,0.1c-0.8,0.9-2.1,1.3-3.3,1.1c-0.6-0.1-1.1-0.2-1.6-0.5c-0.7-0.4-1.4-0.9-1.9-1.5c-0.8-0.9-1.1-2.2-1-3.4
			c0.1-1,0.5-2,1.2-2.8c0.5-0.5,1-1,1.7-1.3c0.6-0.3,1.2-0.5,1.8-0.5c0.5,0,1,0,1.5,0.1c0.6,0.1,1.2,0.4,1.6,0.9
			c0.1,0.1,0.2,0.2,0.3,0.2c0,0,0,0,0.1,0s0.1,0,0.1,0c0.1-0.3,0.4-0.5,0.7-0.4c0.3,0,0.7,0,1,0s0.3,0.1,0.3,0.4s0,0.3,0,0.4
			c0,3.6,0,7.2,0,10.8c0,0.2,0,0.4-0.1,0.6L61.6,104.7z M61.5,96.7c0.1-0.6-0.1-1.2-0.4-1.7c-0.3-0.6-0.9-1-1.5-1.2
			c-0.9-0.4-2-0.3-2.9,0.3c-0.8,0.5-1.4,1.4-1.5,2.4c0,0.4,0,0.7,0,1.1c0.1,1,0.8,1.9,1.7,2.3c0.3,0.2,0.7,0.3,1.1,0.3
			c0.5,0,1-0.1,1.5-0.2c0.6-0.3,1.1-0.7,1.4-1.2c0.3-0.5,0.5-1,0.5-1.6L61.5,96.7z"/>
		<path class="st0" d="M157.7,43.1c0.1-0.1,0.3-0.2,0.4-0.3c0.9-0.8,1.9-1.4,3-2c0.6-0.3,1.1-0.6,1.7-0.9c0.4-0.2,0.9-0.3,1.3-0.5
			s1.1-0.3,1.6-0.5c0.1,0,0.1,0,0.2,0c2-0.5,4.1-0.5,6.2-0.2l0.9,0.1c0.1,0,0.2,0,0.4,0c0.8,0.2,1.6,0.4,2.4,0.7
			c3.1,1.1,5.9,3,8,5.5c0.8,1,1.6,2,2.2,3.2c0.5,0.9,0.9,1.8,1.2,2.7c0.2,0.5,0.3,1.1,0.5,1.6c0,0.1,0,0.1,0.1,0.2
			c0.2,1.1,0.4,2.2,0.4,3.3c0,0.4,0,0.9,0,1.3v21.2c0,2-0.9,3.9-2.4,5.1c-0.8,0.6-1.7,1-2.7,1.3c-0.2,0-0.3,0.1-0.5,0.1
			c-0.4,0-0.9,0-1.3,0c-1.3,0-2.5-0.5-3.6-1.2c-1-0.7-1.7-1.6-2.2-2.7c-0.3-0.8-0.5-1.6-0.5-2.5c0-5.8,0-11.6,0-17.4
			c0-0.9-0.1-1.9-0.3-2.8c-0.1-0.4-0.2-0.8-0.4-1.1c-0.5-1.3-1.4-2.4-2.4-3.3c-0.8-0.6-1.6-1.1-2.5-1.5c-1.1-0.4-2.2-0.6-3.4-0.5
			c-0.5,0-0.9,0.1-1.4,0.1c-0.1,0-0.2,0-0.4,0.1c-0.8,0.2-1.6,0.6-2.4,1c-1.2,0.7-2.1,1.7-2.9,2.8c-0.4,0.6-0.7,1.3-0.9,2
			c-0.3,0.7-0.4,1.4-0.4,2.2c0,0.3,0,0.5,0,0.8v17.6c0,2-0.9,3.9-2.5,5.2c-0.6,0.5-1.4,0.9-2.1,1.1c-0.8,0.3-1.6,0.4-2.4,0.3
			c-2.8-0.2-5.2-2.1-6-4.8c-0.1-0.5-0.2-1-0.2-1.6c0-0.3,0-0.6,0-0.9c0-16.1,0-32.1,0-48.1c0-0.6,0.1-1.2,0.1-1.9
			c0-0.6,0.2-1.1,0.5-1.6c0.5-1.1,1.3-2,2.3-2.7c0.6-0.4,1.3-0.7,2.1-1c0.6-0.1,1.2-0.2,1.8-0.2c0.8,0,1.6,0.2,2.4,0.5
			c1,0.4,1.9,1,2.6,1.8c0.4,0.5,0.7,1,1,1.5c0.2,0.5,0.4,1,0.5,1.5c0.1,0.3,0.1,0.5,0.1,0.8c0,0.4,0,0.8,0,1.1v12.8
			c0,0.1,0,0.3,0,0.4C157.7,43,157.7,43,157.7,43.1z"/>
		<path class="st0" d="M114.6,85.2h-11c-0.3,0-0.7,0-1.1,0c-2-0.1-3.9-1.3-4.9-3.1c-0.8-1.3-1-2.8-0.7-4.2c0.3-1.5,1.1-2.9,2.4-3.8
			c0.6-0.5,1.3-0.8,2-1c0.6-0.1,1.2-0.2,1.8-0.2c0.2,0,0.4,0,0.5,0h21.6c0.4,0,0.8,0,1.2-0.1c1-0.2,1.8-1.1,1.8-2.2
			c0.1-0.8-0.3-1.5-0.9-2c-0.4-0.4-0.9-0.6-1.4-0.6h-14.2c-0.5,0-1,0-1.5,0s-0.8-0.1-1.2-0.2s-0.6-0.1-0.8-0.2s-0.5-0.1-0.7-0.2
			l-0.3-0.1c-0.6-0.1-1.2-0.3-1.7-0.6c-0.7-0.3-1.5-0.7-2.1-1.1c-1.7-1.1-3.2-2.6-4.3-4.2c-0.5-0.8-0.9-1.6-1.3-2.4
			c-0.2-0.5-0.3-0.9-0.5-1.4c-0.2-0.6-0.3-1.3-0.4-2c-0.1-0.3-0.1-0.7-0.2-1c0-0.8,0-1.6,0-2.4c0-0.4,0.1-0.8,0.2-1.3
			c0-0.2,0.1-0.5,0.1-0.7c0.1-0.3,0.1-0.5,0.2-0.8c0.1-0.4,0.2-0.9,0.4-1.3c0.3-0.8,0.7-1.6,1.1-2.3c0.7-1.3,1.7-2.4,2.8-3.3
			c0.9-0.8,1.9-1.4,2.9-2c0.6-0.3,1.2-0.6,1.9-0.8c0.5-0.2,1.1-0.4,1.7-0.5h0.1c1.3-0.3,2.6-0.5,3.9-0.4c6,0,12,0,18,0
			c0.5,0,0.9,0,1.4,0c3.4,0.3,5.9,3.2,5.6,6.6c0,0.2,0,0.3-0.1,0.5c-0.2,1.5-1,2.8-2.2,3.8c-1,0.8-2.3,1.3-3.5,1.3h-19.2
			c-0.5,0-1,0-1.5,0.2c-0.7,0.2-1.2,0.7-1.5,1.4c-0.4,1-0.1,2.2,0.8,2.9c0.4,0.3,0.9,0.5,1.3,0.5h13.6h1.6c0.6,0,1.2,0.1,1.8,0.2
			c0.2,0.1,0.4,0.1,0.6,0.1c0.2,0,0.4,0.1,0.6,0.1c0.5,0.2,1,0.3,1.5,0.5c0.6,0.2,1.2,0.5,1.8,0.8c1.7,0.9,3.2,2.2,4.4,3.7
			c0.6,0.8,1.2,1.7,1.7,2.6c0.3,0.7,0.6,1.4,0.9,2.1c0.2,0.6,0.4,1.3,0.5,2c0,0.3,0.1,0.6,0.1,0.8c0.2,1.1,0.2,2.2,0,3.3
			c-0.1,0.3-0.1,0.7-0.1,1s-0.1,0.5-0.2,0.8s-0.1,0.2-0.1,0.3c-0.2,0.7-0.4,1.4-0.7,2c-0.3,0.7-0.7,1.5-1.1,2.1
			c-1.1,1.7-2.6,3.2-4.3,4.3c-0.7,0.5-1.5,0.9-2.3,1.2c-0.9,0.4-1.7,0.6-2.6,0.8c-1.2,0.3-2.4,0.4-3.6,0.3
			C121.4,85.2,118,85.2,114.6,85.2z"/>
		<path class="st0" d="M79.8,82.3c-0.2,0.1-0.3,0.1-0.4,0.2c-0.8,0.5-1.6,0.9-2.4,1.2c-0.7,0.3-1.5,0.6-2.3,0.8
			c-0.6,0.2-1.2,0.3-1.8,0.5h-0.2c-1.5,0.3-2.9,0.4-4.4,0.4c-1,0-2-0.1-2.9-0.2c-0.3-0.1-0.6-0.1-0.9-0.1l-0.9-0.2l-0.6-0.1
			l-0.9-0.2c-0.5-0.1-1-0.3-1.4-0.4c-0.5-0.2-1-0.4-1.5-0.6S58,83,57.5,82.7s-1.3-0.7-1.9-1.1c-2.1-1.4-4-3.2-5.6-5.2
			c-0.8-1-1.5-2.1-2.2-3.2c-0.5-0.9-0.9-1.7-1.2-2.6c-0.3-0.8-0.6-1.7-0.9-2.5c-0.2-0.7-0.4-1.5-0.5-2.2c0-0.2,0-0.4-0.1-0.7
			c-0.3-2-0.3-4.1,0-6.1c0-0.2,0-0.4,0.1-0.7c0-0.2,0-0.3,0-0.5c0.2-0.7,0.3-1.5,0.5-2.2c0.2-0.5,0.3-1,0.5-1.5s0.3-0.8,0.4-1.1
			c0.3-0.7,0.6-1.4,1-2.1s0.8-1.4,1.3-2.1c1-1.4,2.1-2.8,3.4-3.9c1.3-1.2,2.8-2.3,4.4-3.2c0.8-0.5,1.6-0.9,2.4-1.2
			c0.8-0.3,1.5-0.6,2.3-0.8c0.6-0.2,1.3-0.3,1.9-0.5l0,0c1.1-0.1,2.1-0.4,3.2-0.4c1.4,0,2.7-0.1,4.1,0c0.5,0,1,0.1,1.6,0.2l0.7,0.1
			l1,0.2c0.1,0,0.2,0.1,0.3,0.1c0.7,0.2,1.4,0.4,2.1,0.6c0.7,0.2,1.4,0.5,2.1,0.8c0.5,0.2,1,0.5,1.5,0.8c1.4,0.8,2.8,1.7,4,2.8
			c1,0.9,2,1.9,2.9,3c0.9,1.1,1.7,2.2,2.3,3.5c0.5,0.8,0.8,1.6,1.2,2.5c0.2,0.5,0.4,0.9,0.5,1.4s0.3,1.1,0.5,1.6c0,0.1,0,0.1,0,0.2
			c0.2,0.9,0.4,1.7,0.5,2.6c0.1,0.6,0.2,1.2,0.2,1.8c0,1.3,0,2.7,0,4v14c0,1.5-0.5,2.9-1.5,4c-0.7,0.9-1.7,1.6-2.8,2
			c-1,0.4-2.1,0.5-3.2,0.4c-1.8-0.2-3.3-1.2-4.3-2.7C80.2,82.5,80,82.4,79.8,82.3z M69,72.8L69,72.8c0.2,0,0.5,0,0.7,0
			c0.9,0,1.7-0.2,2.6-0.5c0.7-0.2,1.4-0.5,2-0.9c1.5-0.8,2.8-2,3.8-3.5c0.5-0.8,0.9-1.6,1.2-2.5c0.2-0.5,0.3-1.1,0.4-1.6
			c0.3-1.2,0.3-2.4,0-3.6c-0.1-0.2-0.1-0.5-0.1-0.7c0-0.2-0.1-0.3-0.1-0.5c-0.2-0.5-0.4-1-0.6-1.4c-0.3-0.7-0.7-1.4-1.2-2
			c-1.4-1.9-3.4-3.2-5.7-3.9c-0.9-0.2-1.8-0.4-2.8-0.5c-1,0-2.1,0.1-3.1,0.3c-0.1,0-0.2,0-0.2,0.1c-0.5,0.2-1,0.3-1.5,0.5
			c-0.6,0.3-1.2,0.6-1.8,0.9c-1.4,0.9-2.6,2.1-3.5,3.6c-0.3,0.5-0.6,1-0.8,1.5c-0.1,0.5-0.3,1-0.4,1.5c-0.3,1.3-0.4,2.6-0.2,3.9
			c0.1,1.1,0.5,2.2,1,3.2c1.1,2.2,2.9,3.9,5.2,4.9c0.3,0.2,0.7,0.2,1,0.4c0.6,0.2,1.2,0.4,1.8,0.5C67.5,72.8,68.3,72.8,69,72.8z"/>
		<path class="st0" d="M0.2,61.8c0.1-1.1,0.1-2.1,0.2-3.1c0-0.2,0.1-0.5,0.1-0.7c0-0.2,0.1-0.5,0.1-0.8s0.1-0.7,0.2-1
			c0.1-0.6,0.3-1.2,0.5-1.8c0.1-0.4,0.3-0.8,0.4-1.2c0.3-0.7,0.6-1.5,1-2.2c0.6-1.1,1.3-2.2,2-3.2C6,46.2,7.4,44.7,9,43.4
			c1.1-0.9,2.3-1.7,3.5-2.3c0.7-0.4,1.4-0.7,2.2-1c0.8-0.3,1.5-0.6,2.4-0.8c0.6-0.2,1.2-0.4,1.9-0.5c0.3,0,0.6-0.2,0.9-0.2
			c2.3-0.4,4.7-0.5,7.1-0.2c0.2,0,0.5,0,0.8,0.1l1.2,0.2c0.2,0,0.4,0.1,0.6,0.1l0.9,0.2l0.3,0.1c0.6,0.2,1.3,0.4,1.9,0.6
			c0.7,0.2,1.4,0.5,2,0.8c0.7,0.3,1.4,0.7,2,1.1c1.5,0.9,3,2,4.2,3.3c0.4,0.3,0.7,0.7,1,1.1c1.9,2.9,1.1,6.7-1.7,8.6
			c-0.5,0.4-1.1,0.7-1.8,0.9c-0.9,0.3-1.8,0.4-2.8,0.2c-0.5-0.1-1-0.2-1.5-0.4c-0.6-0.3-1.1-0.6-1.6-1c-0.4-0.3-0.7-0.6-1.1-0.9
			c-0.7-0.7-1.6-1.2-2.5-1.6l-1.3-0.5l-0.2-0.1c-1-0.3-2.1-0.4-3.2-0.4c-0.5,0-1,0-1.4,0c-0.4,0.1-0.7,0.1-1.1,0.2
			c-0.1,0-0.1,0-0.2,0.1c-2.2,0.5-4.3,1.7-5.8,3.5c-0.7,0.8-1.3,1.7-1.7,2.7c-0.7,1.6-1,3.4-0.9,5.1c0,1,0.2,2,0.6,3
			c0.7,1.9,1.8,3.6,3.4,4.9c0.6,0.5,1.2,0.9,1.9,1.3c0.7,0.4,1.5,0.7,2.2,0.9h0.1c1.3,0.4,2.6,0.5,3.9,0.3c1-0.1,2-0.3,2.9-0.6
			c1.4-0.5,2.7-1.3,3.8-2.4c0.5-0.5,1.1-1,1.8-1.3c0.5-0.3,1.1-0.5,1.7-0.6c0.7-0.1,1.4-0.1,2.1,0c1,0.1,2,0.5,2.8,1.2
			c0.9,0.6,1.6,1.5,2,2.5c0.3,0.7,0.5,1.5,0.5,2.3c0,0.4,0,0.9-0.1,1.4c-0.1,0.5-0.2,1-0.5,1.4c-0.4,0.8-0.9,1.4-1.5,2
			c-1.3,1.3-2.8,2.4-4.5,3.4c-0.7,0.4-1.5,0.8-2.3,1.2c-0.7,0.3-1.4,0.6-2.2,0.8c-0.5,0.2-1.1,0.4-1.6,0.5c-0.7,0.2-1.5,0.3-2.2,0.4
			c-0.2,0-0.5,0.1-0.7,0.1c-1.7,0.3-3.3,0.3-5,0.2c-0.9,0-1.7-0.2-2.6-0.3c-0.7-0.1-1.3-0.3-2-0.5c-0.5-0.2-1-0.3-1.5-0.5
			s-0.8-0.3-1.1-0.4c-1.4-0.6-2.7-1.3-4-2.1c-2.1-1.4-4-3.1-5.6-5.1c-0.9-1.1-1.6-2.3-2.3-3.5c-0.5-0.8-0.8-1.7-1.2-2.6
			c-0.2-0.4-0.3-0.9-0.5-1.4S1,67.8,0.8,67.2c0-0.1,0-0.1,0-0.2c-0.1-0.7-0.3-1.4-0.4-2.2C0.3,63.8,0.3,62.8,0.2,61.8z"/>
		<path class="st0" d="M206,61.9v16.3c0,0.3,0,0.6,0,0.9c0,0.7-0.2,1.5-0.5,2.2c-0.6,1.2-1.5,2.3-2.6,2.9c-0.8,0.5-1.8,0.8-2.7,0.9
			c-0.3,0-0.7,0-1,0c-1.3,0-2.5-0.5-3.5-1.2c-1-0.7-1.7-1.6-2.2-2.7c-0.3-0.5-0.4-1.1-0.5-1.8c0-0.4-0.1-0.9-0.1-1.3V45.7
			c0-0.4,0-0.7,0-1.1c0.2-2,1.2-3.8,2.9-4.9c0.6-0.4,1.3-0.7,2-0.9c0.3-0.1,0.7-0.1,1-0.1c0.6-0.1,1.3,0,1.9,0.1
			c0.5,0.1,0.9,0.2,1.4,0.4c0.7,0.3,1.3,0.7,1.9,1.2c0.6,0.6,1.1,1.3,1.5,2c0.2,0.4,0.3,0.8,0.5,1.2c0.1,0.1,0.1,0.3,0.1,0.5
			c0,0.4,0,0.9,0,1.3L206,61.9z"/>
		<path class="st0" d="M205.8,29.1c0,0.5-0.1,0.9-0.1,1.4c-0.1,0.4-0.2,0.8-0.4,1.2c-0.5,1.2-1.4,2.2-2.5,2.8c-1.2,0.7-2.6,1-4,0.9
			c-0.7-0.1-1.3-0.2-1.9-0.5c-1-0.4-1.9-1.1-2.5-2c-0.4-0.6-0.8-1.2-1-1.9c-0.2-0.7-0.3-1.5-0.2-2.3c0.1-1,0.4-1.9,0.9-2.8
			c0.5-0.8,1.1-1.5,1.9-2c0.7-0.5,1.4-0.8,2.2-1c0.2,0,0.3-0.1,0.5-0.1c0.3,0,0.7,0,1,0c1.7,0,3.3,0.7,4.4,1.9
			c0.8,0.8,1.3,1.7,1.6,2.8C205.7,28.1,205.7,28.6,205.8,29.1z"/>
		<path class="st0" d="M0,97.1v-3.7c0-0.7,0-0.9,0.8-0.8c0.2,0,0.4,0,0.6-0.1c0.5-0.3,1-0.4,1.5-0.4c0.6,0,1.3,0.1,1.8,0.4
			c0.2,0.1,0.5,0.1,0.7,0c0.9-0.5,2-0.6,3-0.2c0.6,0.2,1,0.7,1.3,1.2c0.2,0.4,0.3,0.8,0.3,1.2c0,0.2,0,0.5,0,0.7v5.5
			c0,0.6,0,0.7-0.7,0.7c-0.3,0-0.6,0-0.8,0c-0.2,0-0.4-0.1-0.4-0.4s0-0.2,0-0.3v-6.2c0-0.5-0.4-0.9-0.9-0.9
			c-0.4-0.1-0.8,0.1-1.1,0.4c-0.2,0.2-0.2,0.4-0.2,0.6v6.2c0,0.1,0,0.2,0,0.2c0,0.3-0.1,0.4-0.4,0.4s-0.8,0-1.1,0
			c-0.2,0-0.3-0.1-0.3-0.3c0,0,0,0,0-0.1c0-0.1,0-0.2,0-0.3v-5.8c0-0.1,0-0.3,0-0.4c0-0.6-0.4-1-1-1c-0.2,0-0.3,0-0.5,0
			c-0.5,0.1-0.8,0.5-0.8,1c0,2,0,4.1,0,6.1c0,0.7,0,0.8-0.8,0.8c-0.3,0-0.5,0-0.8,0c-0.1,0-0.3-0.1-0.3-0.3c0-0.2,0-0.4,0-0.5
			L0,97.1z"/>
		<path class="st0" d="M89.1,96.8h-3.6c-0.4,0-0.5,0.1-0.4,0.5c0.1,0.7,0.4,1.4,0.9,1.9c0.6,0.6,1.5,1,2.3,0.9c0.8,0,1.5-0.4,2-0.9
			l0.5-0.5c0.1-0.2,0.4-0.2,0.5-0.1c0.2,0.1,0.3,0.1,0.5,0.2s0.4,0.2,0.6,0.3c0.1,0.1,0.2,0.2,0.1,0.3c0,0,0,0,0,0
			c-0.3,0.3-0.5,0.6-0.8,0.9c-0.5,0.5-1,0.9-1.7,1.1c-1,0.4-2.1,0.5-3.1,0.2c-0.4-0.1-0.8-0.2-1.2-0.4c-1.2-0.6-2.1-1.6-2.6-2.9
			C83,97.6,83,96.8,83.1,96c0.1-0.9,0.5-1.7,1.1-2.4c0.6-0.8,1.5-1.3,2.4-1.6c0.4-0.1,0.8-0.2,1.2-0.2c0.5,0,1.1,0,1.6,0.1
			c0.4,0.1,0.7,0.2,1.1,0.4c0.8,0.4,1.5,1,2,1.8c0.3,0.5,0.5,1.1,0.6,1.7c0,0.2,0.1,0.5,0.1,0.7c0,0.2-0.1,0.3-0.3,0.3
			c-0.2,0-0.4,0-0.5,0L89.1,96.8L89.1,96.8z M88.2,95.2h2.5c0.1,0,0.2-0.1,0.3-0.2c0-0.1,0-0.1,0-0.1c-0.3-0.5-0.7-0.9-1.3-1.1
			c-0.5-0.2-1.1-0.3-1.7-0.2c-0.6,0-1.2,0.2-1.7,0.6c-0.2,0.2-0.5,0.4-0.6,0.7c-0.2,0.2,0,0.4,0.2,0.4
			C85.8,95.2,88.2,95.2,88.2,95.2z"/>
		<path class="st0" d="M138.5,96.8H135c-0.4,0-0.5,0.1-0.5,0.6c0.1,0.7,0.4,1.4,1,1.9c0.6,0.6,1.5,0.9,2.3,0.8
			c0.8-0.1,1.5-0.4,2.1-1c0.1-0.2,0.3-0.3,0.5-0.4c0.1-0.1,0.2-0.1,0.3-0.1l1.2,0.4l0.1,0.1c0.1,0.1,0.1,0.2,0.1,0.3c0,0,0,0,0,0
			c-0.2,0.3-0.4,0.5-0.7,0.8c-0.5,0.6-1.1,1-1.8,1.3c-1,0.4-2.1,0.5-3.1,0.2c-0.4-0.1-0.8-0.2-1.2-0.4c-1-0.5-1.9-1.4-2.4-2.4
			c-0.4-0.9-0.6-2-0.4-2.9c0.1-0.7,0.4-1.3,0.8-1.9c0.5-0.7,1.1-1.2,1.8-1.6c0.6-0.3,1.2-0.5,1.9-0.5c0.6-0.1,1.3,0,1.9,0.1
			c0.8,0.2,1.5,0.6,2.1,1.1c0.6,0.5,1.1,1.2,1.3,2c0.1,0.4,0.2,0.9,0.2,1.3c0,0.2-0.1,0.4-0.4,0.4s-0.3,0-0.5,0L138.5,96.8
			L138.5,96.8z M137.6,95.2h2.4c0.3,0,0.4-0.2,0.3-0.4c-0.3-0.6-0.9-1-1.5-1.1c-0.8-0.2-1.6-0.2-2.4,0c-0.6,0.2-1,0.6-1.3,1.1
			c0,0,0,0.1,0,0.1c0,0.1,0,0.3,0.2,0.3c0,0,0,0,0.1,0L137.6,95.2L137.6,95.2z"/>
		<path class="st0" d="M113.9,96.8c-1.2,0-2.3,0-3.5,0c-0.5,0-0.5,0.2-0.5,0.6c0,0.4,0.2,0.9,0.4,1.2c0.6,1,1.7,1.6,2.8,1.5
			c0.8,0,1.5-0.4,2.1-0.9c0.2-0.2,0.3-0.3,0.4-0.5c0.1-0.1,0.2-0.1,0.4-0.1l1,0.3c0.1,0,0.2,0.1,0.3,0.1c0.2,0.1,0.2,0.3,0.1,0.4
			c0,0,0,0.1,0,0.1c-0.3,0.4-0.7,0.9-1.1,1.2c-1,0.8-2.2,1.2-3.5,1.1c-1.8-0.1-3.4-1.1-4.2-2.6c-0.6-1-0.8-2.3-0.5-3.5
			c0.3-1.3,1.1-2.5,2.3-3.2c1-0.6,2.1-0.8,3.2-0.7c1.5,0.1,2.9,0.9,3.7,2.1c0.3,0.4,0.5,0.8,0.6,1.3c0,0.2,0.1,0.4,0.2,0.7
			c0,0.2,0,0.4,0,0.6c0,0.1-0.1,0.3-0.2,0.3c-0.2,0-0.4,0-0.6,0H113.9L113.9,96.8z M112.9,95.2h2.1c0.1,0,0.3,0,0.4,0
			c0.1,0,0.2-0.1,0.2-0.3c0,0,0-0.1,0-0.1c0-0.1,0-0.1-0.1-0.2c-0.3-0.5-0.8-0.8-1.3-1c-0.8-0.2-1.6-0.2-2.4,0
			c-0.7,0.2-1.2,0.6-1.6,1.2c0,0.1-0.1,0.1-0.1,0.2c0,0.1,0.1,0.2,0.2,0.2L112.9,95.2L112.9,95.2z"/>
		<path class="st0" d="M24.3,93.1C24.3,93.1,24.3,93.1,24.3,93.1c0.1-0.3,0.4-0.6,0.7-0.5c0,0,0.1,0,0.1,0c0.2,0,0.5,0,0.8,0
			s0.5,0.1,0.5,0.5v7.7c0,0.1,0,0.3,0,0.4c0,0.2-0.1,0.4-0.3,0.4c0,0,0,0-0.1,0c-0.4,0-0.8,0-1.2,0c-0.2,0-0.3-0.2-0.3-0.4
			s0-0.3,0-0.4c0-0.1,0-0.2-0.1-0.2c-0.1-0.1-0.2,0-0.2,0.1c0,0-0.1,0.1-0.1,0.1c-0.4,0.4-0.9,0.7-1.5,0.9c-0.8,0.2-1.6,0.2-2.4,0
			c-1.5-0.4-2.8-1.4-3.5-2.8c-0.5-1-0.6-2.1-0.4-3.1c0.2-1.1,0.8-2.1,1.7-2.8c0.7-0.7,1.6-1,2.6-1.1c0.4,0,0.8,0,1.1,0
			c0.9,0,1.8,0.4,2.3,1.1C24.1,93.1,24.1,93.1,24.3,93.1L24.3,93.1z M24.4,96.9L24.4,96.9c0-0.2,0-0.4,0-0.5c0-0.3,0-0.5-0.1-0.8
			c-0.4-1.1-1.5-1.9-2.7-2c-0.8-0.1-1.7,0.1-2.3,0.7C18.5,94.9,18,96,18.1,97c0,0.9,0.4,1.7,1.1,2.3c0.6,0.5,1.4,0.8,2.1,0.8
			c0.7,0,1.5-0.3,2-0.8c0.7-0.6,1.1-1.4,1.1-2.3V96.9z"/>
		<path class="st0" d="M205.8,96.8c0,0.4-0.1,0.8-0.1,1.1c-0.1,0.4-0.2,0.8-0.4,1.2c-0.5,1.1-1.5,1.9-2.6,2.4c-1,0.4-2,0.5-3.1,0.2
			c-0.5-0.1-0.9-0.3-1.3-0.5c-0.9-0.5-1.7-1.2-2.2-2.2c-0.6-1.2-0.7-2.5-0.3-3.8c0.3-0.9,0.9-1.7,1.7-2.3c0.5-0.4,1.1-0.8,1.8-1
			c0.7-0.2,1.4-0.2,2.1-0.2c1.7,0.1,3.3,1.2,4.1,2.7C205.6,95.2,205.8,96,205.8,96.8z M197.4,96.8c0,0.3,0,0.6,0.1,0.9
			c0.3,1,1,1.8,2,2.2c0.9,0.4,1.9,0.3,2.8-0.3c1.5-0.9,2-2.9,1.1-4.4c-0.5-1-1.5-1.7-2.7-1.7c-0.5,0-1,0-1.4,0.3
			C198.1,94.3,197.4,95.5,197.4,96.8z"/>
		<path class="st0" d="M147.9,96.7c0-0.7,0.1-1.3,0.4-1.9c0.2-0.5,0.6-0.9,0.9-1.3c0.6-0.7,1.4-1.2,2.3-1.4c0.4-0.1,0.9-0.2,1.4-0.2
			c0.5,0,0.9,0,1.4,0.1c0.4,0.1,0.8,0.2,1.2,0.4c0.7,0.4,1.3,0.9,1.8,1.5c0.2,0.2,0.2,0.4-0.1,0.6c-0.2,0.1-0.3,0.2-0.5,0.2
			c-0.2,0-0.3,0.1-0.4,0.2c-0.2,0.2-0.6,0.1-0.7-0.1c0,0,0,0,0,0c-0.2-0.2-0.4-0.4-0.6-0.6c-0.7-0.5-1.6-0.7-2.4-0.5
			c-1,0.1-1.9,0.8-2.3,1.7c-0.8,1.5-0.3,3.4,1.2,4.3c0.8,0.6,1.8,0.7,2.8,0.3c0.5-0.2,1-0.5,1.3-0.9c0.2-0.2,0.5-0.3,0.7-0.2
			c0.4,0.1,0.7,0.3,1.1,0.4c0.1,0,0.1,0.2,0.1,0.2c0,0.1-0.1,0.2-0.1,0.3c-0.5,0.7-1.2,1.2-1.9,1.6c-2.5,1.2-5.6,0.2-6.9-2.3
			C148,98.3,147.8,97.5,147.9,96.7z"/>
		<path class="st0" d="M77.3,95.8v2.4c0,1.2-0.6,2.3-1.6,2.9c-0.4,0.3-0.9,0.5-1.3,0.6c-0.5,0.1-1.1,0.1-1.7,0c-1-0.1-2-0.6-2.6-1.5
			c-0.3-0.4-0.5-0.8-0.5-1.3c0-0.4-0.1-0.9-0.1-1.3c0-1.4,0-2.9,0-4.3c0-0.5,0-0.7,0.7-0.7c0.3,0,0.6,0,0.9,0c0.2,0,0.3,0.1,0.3,0.3
			c0,0,0,0,0,0c0,0.2,0,0.3,0,0.5c0,1.5,0,3,0,4.6c0,0.5,0.1,0.9,0.4,1.3c0.6,0.9,1.8,1.2,2.7,0.6c0.3-0.2,0.5-0.4,0.7-0.7
			c0.2-0.4,0.3-0.7,0.3-1.1c0-1.5,0-3,0-4.6c0-0.7,0-0.7,0.7-0.7c0.3,0,0.6,0,0.8,0c0.2,0,0.3,0.1,0.3,0.3c0,0,0,0,0,0
			c0,0.1,0,0.2,0,0.3L77.3,95.8L77.3,95.8z"/>
		<path class="st0" d="M182.3,92.6h0.7c0.2,0,0.3,0.1,0.4,0.3c0.2,0.5,0.4,1,0.6,1.4c0.3,0.7,0.6,1.3,0.9,2c0.2,0.4,0.4,0.9,0.6,1.3
			c0,0.1,0.1,0.2,0.2,0.3c0,0.1,0.2,0.1,0.3,0.1c0,0,0.1-0.1,0.1-0.1c0.3-0.6,0.5-1.2,0.8-1.8s0.6-1.2,0.8-1.9
			c0.2-0.4,0.4-0.8,0.5-1.2c0.1-0.2,0.3-0.4,0.5-0.4c0.5,0,0.9,0,1.4,0c0.2,0,0.3,0.1,0.3,0.3c0,0.1,0,0.1,0,0.2
			c-0.1,0.3-0.3,0.6-0.4,0.9c-0.3,0.6-0.6,1.2-0.8,1.8s-0.6,1.3-0.9,1.9l-0.8,1.8c-0.2,0.4-0.4,0.8-0.6,1.2c0,0.1-0.1,0.2-0.1,0.3
			c-0.1,0.2-0.1,0.5-0.4,0.6c-0.3,0.1-0.7,0.1-1,0c-0.1,0-0.2-0.1-0.2-0.2c-0.3-0.6-0.5-1.1-0.7-1.7s-0.6-1.3-0.9-1.9
			s-0.6-1.3-0.8-1.9s-0.6-1.3-0.9-1.9c-0.1-0.3-0.3-0.6-0.4-0.9c-0.1-0.1,0-0.3,0.1-0.4c0,0,0.1,0,0.1,0
			C181.8,92.6,182.1,92.6,182.3,92.6L182.3,92.6z"/>
		<path class="st0" d="M35.1,101.6c-1.1,0-2.2-0.6-2.7-1.6c-0.2-0.3-0.3-0.7-0.2-1.1c0-0.2,0.1-0.3,0.3-0.4l1-0.3h0.2
			c0.1,0,0.3,0.1,0.3,0.2c0,0.2,0,0.4,0.1,0.7c0.1,0.4,0.3,0.7,0.7,0.8c0.4,0.1,0.8,0,1.1-0.2c0.5-0.5,0.5-1.3,0-1.8
			c-0.3-0.3-0.7-0.5-1-0.7s-0.7-0.4-1.1-0.7c-0.4-0.3-0.8-0.8-0.9-1.3c-0.2-0.6-0.1-1.2,0.2-1.7c0.2-0.4,0.6-0.8,1.1-1
			c0.3-0.1,0.7-0.2,1-0.2c0.8-0.1,1.6,0.3,2.1,0.9c0.2,0.3,0.3,0.6,0.4,0.9c0.1,0.3,0,0.7-0.3,0.8c0,0,0,0-0.1,0
			c-0.3,0.1-0.5,0.2-0.8,0.3s-0.5,0.1-0.6-0.3l-0.1-0.3c0-0.1-0.1-0.2-0.1-0.3c-0.1-0.3-0.3-0.4-0.5-0.4c-0.3,0.1-0.5,0.3-0.5,0.6
			c-0.1,0.3,0,0.6,0.2,0.8c0.2,0.2,0.5,0.4,0.8,0.6s0.8,0.5,1.1,0.7c0.8,0.5,1.3,1.5,1.2,2.5c-0.1,1-0.7,1.9-1.6,2.3
			C36,101.6,35.6,101.7,35.1,101.6z"/>
		<path class="st0" d="M125.7,97.9v3c0,0.1,0,0.2,0,0.4c0,0.2-0.1,0.3-0.3,0.3c0,0,0,0-0.1,0c-0.4,0-0.7,0-1.1,0
			c-0.3,0-0.4-0.1-0.4-0.4c0-0.1,0-0.2,0-0.3V95c0-0.1,0-0.2,0-0.4c0-0.2-0.1-0.3-0.3-0.4h-0.2c-0.3-0.1-0.4-0.2-0.4-0.5
			c0-0.1,0-0.2,0-0.4c0-0.6,0-0.6,0.6-0.8c0.2,0,0.3-0.1,0.3-0.3s0-0.6,0-0.9c0-0.3,0-0.6,0-0.8c0.1-0.9,0.7-1.7,1.5-2.1
			c0.6-0.3,1.3-0.4,2-0.2c0.2,0,0.3,0.1,0.5,0.2c0.3,0.2,0.4,0.3,0.2,0.7c-0.1,0.2-0.1,0.4-0.2,0.6c-0.1,0.2-0.3,0.4-0.6,0.3
			c0,0,0,0-0.1,0c-0.1,0-0.1,0-0.2-0.1c-0.5-0.2-1.2,0.1-1.4,0.6c0,0.1,0,0.1-0.1,0.2c0,0.1,0,0.2,0,0.3c0,0.4,0,0.8,0,1.2
			s0.1,0.4,0.4,0.4s0.6,0,0.9,0s0.4,0.1,0.4,0.4s0,0.5,0,0.7s-0.1,0.5-0.5,0.5s-0.6,0-0.8,0s-0.4,0.1-0.4,0.3s0,0.2,0,0.3
			L125.7,97.9L125.7,97.9z"/>
		<path class="st0" d="M166.2,97.9v3.1c0,0.5-0.1,0.5-0.6,0.5h-0.8c-0.4,0-0.5-0.1-0.5-0.5v-6.1c0-0.1,0-0.1,0-0.2
			c0-0.5-0.1-0.5-0.6-0.5c-0.2,0-0.4,0-0.6,0s-0.4-0.1-0.5-0.4c0-0.3,0-0.6,0-0.9c0-0.2,0.1-0.3,0.3-0.3h0.7c0.1,0,0.3,0,0.4,0
			c0.1,0,0.2-0.1,0.2-0.2c0-0.1,0-0.3,0-0.4v-2c0-0.1,0-0.2,0-0.3c0-0.4,0.1-0.5,0.4-0.5s0.6,0,1,0s0.4,0.1,0.4,0.5v2.1
			c0,0.1,0,0.3,0,0.4c0,0.4,0.1,0.5,0.5,0.5c0.2,0,0.4,0,0.6,0h0.3c0.1,0,0.3,0.1,0.3,0.3c0,0.3,0,0.7,0,1s-0.2,0.3-0.4,0.3
			s-0.5,0-0.8,0s-0.5,0.1-0.5,0.5s0,0.8,0,1.2L166.2,97.9L166.2,97.9z"/>
		<path class="st0" d="M175.7,97.2v3.8c0,0,0,0.1,0,0.2c0,0.2-0.1,0.3-0.3,0.4c-0.2,0-0.4,0-0.6,0c-0.2,0-0.4,0-0.6,0
			c-0.2,0-0.3-0.1-0.3-0.3c0,0,0,0,0,0c0-0.1,0-0.2,0-0.4v-7.5c0-0.7,0-0.7,0.7-0.7c0.2,0,0.5,0,0.7,0c0.4,0,0.6,0.1,0.6,0.6
			L175.7,97.2L175.7,97.2z"/>
		<path class="st0" d="M19.8,91.5c-0.1-0.2,0-0.4,0.1-0.5c0.5-0.6,1-1.1,1.4-1.6c0.1-0.2,0.4-0.3,0.6-0.2H24c0.1,0,0.2,0.1,0.2,0.1
			c0,0.1,0,0.2-0.1,0.3l-0.9,0.7l-1.3,1c-0.3,0.3-0.7,0.4-1.1,0.4C20.5,91.5,20.1,91.6,19.8,91.5z"/>
		<path class="st0" d="M174.7,92c-0.5,0-1-0.3-1.2-0.8c-0.1-0.2-0.1-0.5,0-0.7c0.2-0.5,0.8-0.9,1.3-0.9c0.6,0.1,1,0.5,1.2,1.1
			c0,0.1,0,0.2,0,0.3C175.8,91.6,175.3,92,174.7,92z"/>
		<path class="st0" d="M72,15.7c0-2.9-1.2-5.5-5.5-5.5c-1.7,0-3.3,0.4-4.8,1.1l0.7,2.4c1.1-0.6,2.3-1,3.5-1c2.1,0,2.5,1.2,2.5,2v0.2
			c-4.7,0-7.6,1.6-7.6,4.9c0,2.1,1.7,3.9,3.9,3.9c0.1,0,0.2,0,0.2,0c1.4,0.1,2.8-0.6,3.8-1.7h0.1c0,0,0.5,2.2,3.5,1.4
			c-0.2-1-0.2-2.1-0.2-3.1V15.7z M68.5,18.8c0,0.2,0,0.5-0.1,0.7c-0.3,1-1.3,1.7-2.3,1.6c-0.9,0.1-1.6-0.6-1.7-1.4
			c0-0.1,0-0.2,0-0.3c0-1.8,1.9-2.3,4.2-2.2V18.8z"/>
		<path class="st0" d="M0.6,6.3c0,0,3.1,12.5,3.5,14.5c0.6,2.4,1.6,3.2,4.5,2.6l1.9-7.8c0.5-1.9,0.8-3.3,1.1-5.2h0.1
			c0.2,2,0.5,3.3,0.9,5.3c0,0,0.8,3.5,1.2,5.4s1.5,3,4.4,2.4l4.5-17.2h-3.7l-1.5,7.4c-0.4,2.2-0.8,3.9-1.1,5.8h0
			c-0.3-2-0.6-3.6-1-5.7l-1.6-7.6H10l-1.7,7.4c-0.5,2.2-0.9,4.1-1.2,6h0c-0.3-1.8-0.7-4.1-1.1-6.2c0,0-1-5.3-1.4-7.1L0.6,6.3z"/>
		<path class="st0" d="M33,15.7c0-2.9-1.2-5.5-5.5-5.5c-1.7,0-3.3,0.4-4.8,1.1l0.7,2.4c1.1-0.6,2.3-1,3.5-1c2.1,0,2.5,1.2,2.5,2v0.2
			c-4.7,0-7.6,1.6-7.6,4.9c0,2.1,1.7,3.9,3.9,3.9c0.1,0,0.2,0,0.2,0c1.4,0.1,2.8-0.6,3.8-1.7h0.1c0,0,0.5,2.2,3.5,1.4
			c-0.1-1-0.2-2.1-0.2-3.1L33,15.7z M29.5,18.8c0,0.2,0,0.5-0.1,0.7c-0.3,1-1.3,1.7-2.4,1.6c-0.9,0.1-1.7-0.6-1.7-1.4
			c0-0.1,0-0.2,0-0.3c0-1.8,2-2.3,4.2-2.2V18.8z"/>
		<polygon class="st0" points="38.4,19.8 38.4,6.3 34.9,6.3 34.9,23.4 38.4,23.4 		"/>
		<path class="st0" d="M82.7,6.3v12.7c-0.1,1.3,0.2,2.6,1,3.7c0.8,0.7,1.8,1.1,2.8,1.1c0.9,0,1.7-0.1,2.5-0.4v-2.7
			c-0.4,0.1-0.9,0.2-1.3,0.2c-1.2,0-1.6-0.8-1.6-2.3v-4.9h3v-3.3h-3V6.3H82.7z"/>
		<path class="st0" d="M73.7,10.5v12.9h3.6v-6.6c0-0.3,0-0.6,0.1-0.9c0.2-1.4,1.5-2.4,2.8-2.3c0.3,0,0.7,0,1,0.1v-3.4
			c-0.3-0.1-0.5-0.1-0.8-0.1c-1.6,0.1-3,1.2-3.4,2.8h-0.1v-2.5H73.7z"/>
		<path class="st0" d="M40.4,10.5v12.9h3.5v-7.6c0-0.3,0.1-0.7,0.2-1c0.3-0.9,1.1-1.6,2.1-1.6c1.4,0,2.1,1.2,2.1,2.9v7.4h3.5v-7.7
			c0-0.3,0-0.7,0.1-1c0.3-0.9,1.1-1.6,2.1-1.6c1.4,0,2.1,1.2,2.1,3.2v7.1h3.5v-7.6c0-4-2-5.6-4.3-5.6c-0.9,0-1.8,0.2-2.5,0.7
			c-0.7,0.4-1.2,1-1.6,1.6h0c-0.6-1.4-2-2.4-3.5-2.3c-1.5-0.1-3,0.7-3.8,2h0v-1.7H40.4z"/>
		<path class="st0" d="M108,10c0.7,0,1.3-0.4,1.3-0.8l0.7-7.8c0-0.8-0.9-1.4-2-1.4s-2,0.6-2,1.4l0.7,7.8C106.9,9.7,107.4,10,108,10z
			"/>
		<path class="st0" d="M103.8,12.4c0.4-0.5,0.4-1.1,0-1.6l-6.4-4.5c-0.7-0.4-1.7,0.1-2.2,1s-0.5,2.1,0.2,2.4l7,3.3
			C103,13.2,103.6,12.9,103.8,12.4L103.8,12.4z"/>
		<path class="st0" d="M112.2,12.4c0.2,0.5,0.8,0.8,1.4,0.8l7-3.3c0.7-0.4,0.8-1.5,0.2-2.4s-1.5-1.4-2.2-1.1l-6.4,4.5
			C111.9,11.3,111.9,11.9,112.2,12.4z"/>
		<path class="st0" d="M108,19.6c0.7,0,1.3,0.4,1.3,0.8l0.7,7.7c0,0.8-0.9,1.4-2,1.4s-2-0.6-2-1.4l0.7-7.7
			C106.9,19.9,107.5,19.6,108,19.6L108,19.6z"/>
		<path class="st0" d="M112.2,17.2c0.2-0.5,0.8-0.9,1.4-0.8l7,3.3c0.7,0.4,0.8,1.5,0.2,2.5s-1.6,1.4-2.2,1l-6.4-4.5
			C111.8,18.3,111.8,17.7,112.2,17.2L112.2,17.2z"/>
		<path class="st0" d="M103.8,17.2c0.4,0.5,0.4,1.1,0,1.6l-6.4,4.5c-0.7,0.4-1.7-0.1-2.2-1s-0.5-2.1,0.2-2.5l7-3.3
			C103,16.4,103.6,16.7,103.8,17.2L103.8,17.2z"/>
	</g>
</g>
</svg>
