<?xml version="1.0" encoding="utf-8"?>
<!-- Generator: Adobe Illustrator 26.0.3, SVG Export Plug-In . SVG Version: 6.00 Build 0)  -->
<svg version="1.1" id="Capa_1" xmlns="http://www.w3.org/2000/svg" xmlns:xlink="http://www.w3.org/1999/xlink" x="0px" y="0px"
	 viewBox="0 0 669.3 61.5" style="enable-background:new 0 0 669.3 61.5;" xml:space="preserve">
<style type="text/css">
	.st0{fill:none;stroke:#FFFFFF;stroke-miterlimit:10;}
</style>
<g id="Layer_2">
	<g id="Layer_1-2">
		<path class="st0" d="M422.1,61.5h-0.9c-0.7,0-1.3-0.4-1.6-1l0,0L393.4,3.3c-0.3-0.5-0.2-1.2,0.1-1.7c0.4-0.5,0.9-0.8,1.6-0.8h8.7
			c0.7,0,1.3,0.4,1.6,1l16.4,36.5h0.2l16.3-36.4c0.3-0.6,0.9-1,1.6-1h8.7c0.6,0,1.2,0.3,1.5,0.8c0.3,0.5,0.3,1.1,0.1,1.6l-26.3,57.2
			C423.4,61.1,422.8,61.5,422.1,61.5z M419.9,60.3c0.2,0.5,0.7,0.9,1.3,0.8h0.9c0.6,0,1.1-0.3,1.3-0.8l26.4-57.2
			c0.2-0.4,0.2-1,0-1.4c-0.3-0.4-0.8-0.6-1.3-0.6h-8.7c-0.6,0-1.1,0.3-1.3,0.8L422,38.6h-0.6v-0.1L404.9,2c-0.2-0.5-0.7-0.9-1.3-0.9
			H395c-0.5,0-1,0.2-1.3,0.6c-0.2,0.4-0.2,1,0,1.4L419.9,60.3z M286.2,61.5c-8.2,0-16-3.2-21.8-8.9c-12-12-12-31.5,0-43.6
			c5.8-5.8,13.6-9,21.8-9c7.7-0.2,15.1,2.7,20.7,7.9c0.4,0.3,0.6,0.8,0.6,1.3c0,0.5-0.2,1-0.5,1.3l-5.2,5.4
			c-0.3,0.3-0.7,0.5-1.1,0.6c-0.5,0-0.9-0.2-1.2-0.6c-3.6-3.2-8.2-5-13-5c-10.5,0-18.8,8.6-18.8,19.7c0,5.1,1.9,10,5.4,13.7
			c3.5,3.7,8.4,5.8,13.5,5.8c4.7,0,9.3-1.7,12.9-4.8c0.7-0.6,1.7-0.6,2.3,0l5.3,5.5c0.3,0.3,0.5,0.7,0.5,1.1c0,0.5-0.2,1.1-0.6,1.4
			C301.5,58.6,294,61.6,286.2,61.5z M286.2,0.3c-16.8,0-30.5,13.6-30.5,30.4c0,16.8,13.6,30.5,30.4,30.5c0,0,0,0,0,0
			c7.7,0.1,15.1-2.8,20.5-8.2c0.3-0.3,0.5-0.8,0.5-1.2c0-0.3-0.1-0.6-0.4-0.9l-5.3-5.5c-0.5-0.5-1.4-0.5-1.9,0
			c-3.7,3.1-8.3,4.8-13.1,4.9c-5.2,0-10.1-2.1-13.7-5.9c-3.6-3.8-5.5-8.7-5.5-13.9c0-11.2,8.4-20,19.1-20c4.9,0.1,9.5,1.8,13.2,5.1
			c0.3,0.3,0.6,0.5,1,0.5c0.3,0,0.7-0.2,0.9-0.5l5.2-5.4c0.3-0.3,0.5-0.7,0.5-1.1c0-0.4-0.2-0.8-0.5-1.1
			C301.2,2.9,293.8,0.1,286.2,0.3z M186.5,61.5h-1.2c-0.6,0-1.2-0.2-1.6-0.6L149,22.5v36.3c0,1-0.8,1.8-1.7,1.8c0,0,0,0,0,0h-7.7
			c-1,0-1.7-0.8-1.8-1.8V1.7c0-0.9,0.8-1.7,1.7-1.7h1.3c0.6,0,1.2,0.2,1.6,0.6l34.6,36.9V2.6c0-1,0.8-1.8,1.8-1.8c0,0,0,0,0,0h7.8
			c1,0,1.7,0.8,1.8,1.8v57.2C188.2,60.8,187.4,61.5,186.5,61.5z M148.7,22.2h0.4l0,0l34.8,38.4c0.3,0.4,0.8,0.6,1.3,0.5h1.2
			c0.8,0,1.4-0.6,1.5-1.4V2.6c0-0.8-0.7-1.4-1.5-1.5h-7.8c-0.8,0-1.5,0.7-1.5,1.5v35.3h-0.4l-34.7-37c-0.3-0.4-0.8-0.6-1.3-0.6h-1.3
			c-0.8,0-1.4,0.6-1.5,1.4v57.2c0,0.8,0.7,1.4,1.5,1.5h7.7c0.8,0,1.5-0.7,1.5-1.5L148.7,22.2z M92,61.5C75.2,61.6,61.5,48,61.4,31.2
			c0-0.1,0-0.2,0-0.4c0-8.2,3.2-16,8.9-21.8c12-12,31.4-12,43.5-0.1c5.8,5.8,9.1,13.7,9,21.9c0.1,16.9-13.6,30.6-30.4,30.7
			C92.2,61.5,92.1,61.5,92,61.5z M92,0.3c-8.1,0-15.8,3.2-21.5,8.9c-5.7,5.7-8.9,13.5-8.8,21.6c-0.3,16.8,13.1,30.7,29.9,31
			s30.7-13.1,31-29.9c0-0.4,0-0.7,0-1.1C122.6,14,109,0.4,92.2,0.3C92.2,0.3,92.1,0.3,92,0.3z M30.8,61.5c-8.2,0-16-3.2-21.8-8.9
			C-3,40.5-3,21,9,9c5.8-5.8,13.6-9,21.8-9c7.7-0.2,15.1,2.7,20.7,7.9c0.7,0.6,0.9,1.7,0.3,2.4c0,0.1-0.1,0.1-0.2,0.2l-5.2,5.3
			c-0.3,0.3-0.7,0.5-1.1,0.6c-0.5,0-0.9-0.2-1.2-0.6c-3.6-3.2-8.2-5-13-5c-10.5,0-18.8,8.6-18.8,19.7c0,5.1,1.9,10,5.4,13.7
			C21.2,48,26,50.1,31.1,50c4.7,0,9.3-1.7,12.9-4.8c0.7-0.6,1.7-0.6,2.3,0l5.3,5.5c0.3,0.3,0.5,0.7,0.5,1.1c0,0.5-0.2,1.1-0.6,1.4
			C46,58.6,38.6,61.6,30.8,61.5z M30.8,0.3C14,0.3,0.3,13.9,0.3,30.7c0,0,0,0.1,0,0.1c0,8.1,3.2,15.8,8.9,21.5
			c5.7,5.7,13.5,8.9,21.6,8.8c7.7,0.1,15.1-2.9,20.6-8.2c0.3-0.3,0.5-0.8,0.5-1.2c0-0.3-0.1-0.6-0.4-0.9l-5.3-5.4
			c-0.5-0.5-1.4-0.5-1.9,0c-3.7,3.1-8.3,4.8-13.1,4.9c-5.2,0-10.1-2.1-13.7-5.9c-3.5-3.8-5.5-8.7-5.5-13.9c0-11.2,8.4-20,19.1-20
			c4.9,0.1,9.5,1.8,13.2,5.1c0.3,0.3,0.6,0.5,1,0.5c0.3,0,0.7-0.2,0.9-0.5l5.2-5.4c0.6-0.5,0.6-1.4,0.1-2c0,0-0.1-0.1-0.1-0.1
			C45.8,2.9,38.4,0.1,30.8,0.3z M639.3,60.6h-20.1c-0.9,0-1.7-0.8-1.7-1.8V2.6c0-0.9,0.7-1.7,1.7-1.8h20.1
			c16.5,0,29.9,13.4,29.9,29.9S655.9,60.6,639.3,60.6C639.3,60.6,639.3,60.6,639.3,60.6z M619.2,1.1c-0.8,0-1.4,0.7-1.4,1.5v56.3
			c0,0.8,0.6,1.4,1.4,1.5h20.1c16.3,0,29.6-13.2,29.6-29.6S655.7,1.2,639.3,1.2c0,0,0,0,0,0L619.2,1.1z M604.5,60.7h-7.4
			c-1.2,0.1-2.2-0.7-2.6-1.8l-4.1-9.1h-25.2l-4.1,9.1c-0.4,1.1-1.4,1.8-2.6,1.8H551c-0.6,0-1.2-0.3-1.5-0.8
			c-0.3-0.5-0.3-1.1-0.1-1.7L575.9,1c0.3-0.6,0.9-1,1.6-1h0.8c0.7,0,1.3,0.4,1.6,1l26.2,57.2c0.3,0.5,0.2,1.2-0.1,1.7
			C605.7,60.4,605.1,60.7,604.5,60.7z M565,49.5h25.6l4.2,9.3c0.6,1.2,1.2,1.6,2.3,1.6h7.4c0.5,0,1-0.2,1.3-0.6c0.2-0.4,0.2-1,0-1.4
			L579.6,1.1c-0.2-0.5-0.7-0.9-1.3-0.8h-0.8c-0.6,0-1.1,0.3-1.3,0.9l-26.4,57.2c-0.2,0.4-0.2,1,0,1.4c0.3,0.4,0.8,0.6,1.3,0.6h7.4
			c1,0,2-0.6,2.3-1.6L565,49.5z M513,60.7h-20.2c-0.9,0-1.7-0.8-1.7-1.8V2.6c0-0.9,0.7-1.7,1.7-1.8h20.1c16.5,0,29.9,13.4,29.9,29.9
			S529.5,60.6,513,60.7C512.9,60.6,512.9,60.6,513,60.7L513,60.7z M492.8,1.1c-0.8,0-1.4,0.7-1.4,1.5v56.3c0,0.8,0.6,1.4,1.4,1.5
			h20.1c16.3,0,29.6-13.2,29.6-29.6S529.3,1.2,512.9,1.2c0,0,0,0,0,0L492.8,1.1z M471,60.7h-7.9c-1,0-1.7-0.8-1.8-1.8V2.6
			c0-0.9,0.8-1.7,1.7-1.8h8c1,0,1.7,0.8,1.8,1.8v56.3C472.7,59.8,472,60.6,471,60.7z M463.1,1.2c-0.8,0-1.4,0.7-1.5,1.5v56.3
			c0,0.8,0.7,1.4,1.5,1.5h7.9c0.8,0,1.4-0.7,1.5-1.5V2.6c0-0.8-0.7-1.4-1.5-1.5L463.1,1.2z M380.4,60.7h-7.9c-1,0-1.7-0.8-1.8-1.8
			V2.6c0-0.9,0.8-1.7,1.7-1.8h7.9c1,0,1.7,0.8,1.8,1.8v56.3C382.1,59.8,381.3,60.6,380.4,60.7L380.4,60.7z M372.5,1.2
			c-0.8,0-1.5,0.7-1.5,1.5v56.3c0,0.8,0.7,1.4,1.5,1.5h7.9c0.8,0,1.4-0.7,1.5-1.5V2.6c0-0.8-0.7-1.4-1.5-1.5L372.5,1.2z M341,60.7
			h-8c-1,0-1.7-0.8-1.8-1.8V11.4h-12.9c-1,0-1.8-0.8-1.8-1.8c0,0,0,0,0,0v-7c0-1,0.8-1.7,1.8-1.7h37.1c1,0,1.8,0.8,1.8,1.8
			c0,0,0,0,0,0v7c0,1-0.8,1.8-1.7,1.8c0,0,0,0,0,0h-12.9v47.5C342.7,59.8,341.9,60.6,341,60.7L341,60.7z M318.4,1.1
			c-0.8,0-1.5,0.7-1.5,1.5v7c0,0.8,0.6,1.5,1.4,1.5c0,0,0,0,0,0h13.2v47.8c0,0.8,0.7,1.4,1.5,1.5h7.9c0.8,0,1.4-0.7,1.5-1.5V11.1
			h13.2c0.8,0,1.5-0.7,1.5-1.5v0v-7c0-0.8-0.7-1.5-1.5-1.5L318.4,1.1z M243,60.7h-34.6c-1,0-1.8-0.8-1.8-1.8c0,0,0,0,0,0V2.6
			c0-1,0.8-1.8,1.8-1.8H243c1,0,1.8,0.8,1.8,1.8v7c0,1-0.8,1.7-1.8,1.7h-25V25h20.8c1,0,1.7,0.8,1.8,1.8v7.1c0,1-0.8,1.8-1.8,1.8
			c0,0,0,0,0,0H218v14.6h25c1,0,1.8,0.8,1.8,1.8v7C244.7,59.9,244,60.7,243,60.7z M208.4,1.2c-0.8,0-1.5,0.7-1.5,1.5v56.3
			c0,0.8,0.7,1.5,1.5,1.5H243c0.8,0,1.5-0.7,1.5-1.5c0,0,0,0,0,0v-7c0-0.8-0.7-1.4-1.5-1.4h-25.3V35.3h21.1c0.8,0,1.5-0.6,1.5-1.4
			c0,0,0,0,0,0v-7.1c0-0.8-0.7-1.4-1.5-1.5h-21.1V11.1H243c0.8,0,1.5-0.7,1.5-1.5c0,0,0,0,0,0v-7c0-0.8-0.7-1.4-1.5-1.4L208.4,1.2z
			 M92,50.5c-10.8,0-19.6-8.9-19.5-19.7s8.9-19.6,19.7-19.5c10.8,0,19.5,8.8,19.5,19.6C111.7,41.7,102.9,50.5,92,50.5
			C92,50.5,92,50.5,92,50.5z M92,11.4c-10.8-0.1-19.7,8.6-19.8,19.4c-0.1,10.8,8.6,19.7,19.4,19.8s19.7-8.6,19.8-19.4
			c0-5.2-2-10.3-5.7-14C102.1,13.4,97.2,11.4,92,11.4z M638.3,50.3h-9.8V11.1h9.8c11.3,0,19.3,8,19.3,19.5S649.7,50.3,638.3,50.3z
			 M628.8,50h9.5c11.2,0,19-7.9,19-19.3s-7.8-19.2-19-19.2h-9.5V50z M511.9,50.3h-9.8V11.1h9.8c11.4,0,19.3,8,19.3,19.5
			S523.3,50.3,511.9,50.3z M502.4,50h9.5c11.2,0,19-7.9,19-19.3s-7.8-19.2-19-19.2h-9.5L502.4,50z M586.5,40.3H569l0.1-0.2l8.4-18.8
			h0.5L586.5,40.3z M569.4,40h16.6l-8.4-18.4h-0.1L569.4,40z"/>
	</g>
</g>
</svg>
