<svg xmlns="http://www.w3.org/2000/svg" viewBox="0 0 762.86 100"><defs><style>.cls-1{fill:#007dc3;}</style></defs><g id="Layer_2" data-name="Layer 2"><g id="Layer_2-2" data-name="Layer 2"><path class="cls-1" d="M0,4A2.64,2.64,0,0,1,2.64,1.39H59.17A2.63,2.63,0,0,1,61.8,4V15.42a2.63,2.63,0,0,1-2.63,2.64H18.06V40.83h34.3A2.73,2.73,0,0,1,55,43.47V55a2.64,2.64,0,0,1-2.64,2.64H18.06v24.3H59.17a2.63,2.63,0,0,1,2.63,2.64V96a2.63,2.63,0,0,1-2.63,2.64H2.64A2.64,2.64,0,0,1,0,96Z"/><path class="cls-1" d="M122.09,0c14,0,24.17,4.44,33.61,12.92a2.58,2.58,0,0,1,.14,3.89l-8.47,8.75a2.22,2.22,0,0,1-3.47,0,32.85,32.85,0,0,0-21.39-8.2c-17.78,0-31,14.86-31,32.36s13.33,32.09,31.11,32.09a33.35,33.35,0,0,0,21.25-7.92,2.56,2.56,0,0,1,3.47,0L156,82.78a2.64,2.64,0,0,1-.14,3.75A47.67,47.67,0,0,1,122.09,100a50,50,0,1,1,0-100Z"/><path class="cls-1" d="M213.17,0a50,50,0,1,1,0,100,49.55,49.55,0,0,1-49.86-49.86A49.79,49.79,0,0,1,213.17,0Zm0,81.94a31.94,31.94,0,1,0,0-63.88c-17.5,0-31.8,14.58-31.8,32.08A31.88,31.88,0,0,0,213.17,81.94Z"/><path class="cls-1" d="M275.12,89.17c-1.38-1.11-1.94-2-.69-4.17l5-8.61a3.21,3.21,0,0,1,4.72-1c5.7,4.3,12,8.61,21,8.61,7.23,0,12.64-4.72,12.64-10.7,0-7.08-6-11.94-17.64-16.66C287.07,51.39,274,43.06,274,26.67,274,14.31,283.18,0,305.26,0c14.17,0,25,7.22,27.78,9.31a3.43,3.43,0,0,1,.83,4.58l-5.27,7.92c-1.12,1.66-3.2,2.77-4.87,1.66-6-3.75-11.66-7.64-19.3-7.64-7.92,0-12.22,4.45-12.22,9.73,0,6.52,5.14,11,16.39,15.55,13.47,5.42,29,13.47,29,31.39,0,14.31-12.36,27.5-31.94,27.5C288.18,100,279.15,92.64,275.12,89.17Z"/><path class="cls-1" d="M375,51.81,343.29,5.42a2.57,2.57,0,0,1,2.22-4h14.17a2.75,2.75,0,0,1,2.22,1.25l22.22,31.94L406.34,2.64a2.76,2.76,0,0,1,2.23-1.25h14.3a2.57,2.57,0,0,1,2.22,4L393,51.67V96a2.73,2.73,0,0,1-2.64,2.64H377.59A2.64,2.64,0,0,1,375,96Z"/><path class="cls-1" d="M431.19,89.17c-1.39-1.11-1.95-2-.7-4.17l5-8.61a3.21,3.21,0,0,1,4.72-1c5.7,4.3,12,8.61,21,8.61,7.23,0,12.64-4.72,12.64-10.7,0-7.08-6-11.94-17.63-16.66-13.06-5.28-26.11-13.61-26.11-30C430.08,14.31,439.24,0,461.32,0c14.17,0,25,7.22,27.78,9.31a3.44,3.44,0,0,1,.84,4.58l-5.28,7.92c-1.11,1.66-3.2,2.77-4.86,1.66-6-3.75-11.67-7.64-19.31-7.64-7.92,0-12.22,4.45-12.22,9.73,0,6.52,5.14,11,16.39,15.55,13.47,5.42,29,13.47,29,31.39,0,14.31-12.36,27.5-31.95,27.5C444.24,100,435.21,92.64,431.19,89.17Z"/><path class="cls-1" d="M525.71,18.06H504.46a2.64,2.64,0,0,1-2.64-2.64V4a2.64,2.64,0,0,1,2.64-2.64h60.69A2.64,2.64,0,0,1,567.79,4V15.42a2.64,2.64,0,0,1-2.64,2.64H543.9V96a2.73,2.73,0,0,1-2.64,2.64H528.35A2.73,2.73,0,0,1,525.71,96Z"/><path class="cls-1" d="M580.68,4a2.64,2.64,0,0,1,2.64-2.64h56.52A2.64,2.64,0,0,1,642.48,4V15.42a2.64,2.64,0,0,1-2.64,2.64H598.73V40.83H633a2.73,2.73,0,0,1,2.64,2.64V55A2.64,2.64,0,0,1,633,57.64H598.73v24.3h41.11a2.64,2.64,0,0,1,2.64,2.64V96a2.64,2.64,0,0,1-2.64,2.64H583.32A2.64,2.64,0,0,1,580.68,96Z"/><path class="cls-1" d="M670.69,2.08A2.34,2.34,0,0,1,673.19,0h2.22a2.54,2.54,0,0,1,2.36,1.39l30.56,65.55h.41L739.3,1.39A2.4,2.4,0,0,1,741.66,0h2.22a2.34,2.34,0,0,1,2.5,2.08l16.39,93.34a2.41,2.41,0,0,1-2.5,3.19H747.63A3,3,0,0,1,745,96.53L736.8,43.89h-.42l-24.3,54.58a2.36,2.36,0,0,1-2.36,1.53h-2.5a2.5,2.5,0,0,1-2.37-1.53L680.27,43.89h-.42L671.8,96.53a2.69,2.69,0,0,1-2.5,2.08H656.8a2.54,2.54,0,0,1-2.64-3.19Z"/></g></g></svg>