<?xml version="1.0" encoding="utf-8"?>
<!-- Generator: Adobe Illustrator 25.4.1, SVG Export Plug-In . SVG Version: 6.00 Build 0)  -->
<svg version="1.1" id="Layer_1" xmlns="http://www.w3.org/2000/svg" xmlns:xlink="http://www.w3.org/1999/xlink" x="0px" y="0px"
	 viewBox="0 0 815.8 100.9" style="enable-background:new 0 0 815.8 100.9;" xml:space="preserve">
<style type="text/css">
	.st0{fill:#FFFFFF;}
</style>
<g>
	<path class="st0" d="M80.8,99.2H24.2c-1.5,0-2.8-1.3-2.8-2.8V4.5c0-1.5,1.2-2.8,2.8-2.8h56.5c1.5,0,2.8,1.3,2.8,2.8v11.4
		c0,1.5-1.3,2.8-2.8,2.8h-41v22.5H74c1.5,0,2.8,1.3,2.8,2.8v11.5c0,1.5-1.3,2.8-2.8,2.8H39.8v24h41c1.5,0,2.8,1.3,2.8,2.8v11.4
		C83.6,98,82.3,99.2,80.8,99.2z M24.2,2c-1.4,0-2.5,1.1-2.5,2.5v91.9c0,1.4,1.1,2.5,2.5,2.5h56.5c1.4,0,2.5-1.1,2.5-2.5V85
		c0-1.4-1.1-2.5-2.5-2.5H39.5V58H74c1.4,0,2.5-1.1,2.5-2.5V43.9c0-1.3-1.2-2.5-2.5-2.5H39.5V18.4h41.3c1.4,0,2.5-1.1,2.5-2.5V4.5
		c0-1.4-1.1-2.5-2.5-2.5H24.2z"/>
	<path class="st0" d="M144.6,100.6c-13.5,0-26.1-5.2-35.6-14.6c-9.5-9.4-14.7-22-14.7-35.5c0-13.5,5.2-26.1,14.7-35.6
		s22.1-14.7,35.6-14.7c13.3,0,23.7,4,33.7,13c0.6,0.6,1,1.3,1,2c0,0.8-0.3,1.5-0.9,2.1l-8.5,8.7c-0.5,0.6-1.1,0.9-1.7,0.9
		c-0.7,0-1.4-0.3-2-0.9c-5.9-5.2-13.6-8.1-21.3-8.1c-8.4,0-16.3,3.4-22,9.6c-5.7,6.1-8.8,14.1-8.8,22.6c0,8.5,3.1,16.4,8.8,22.4
		c5.8,6.1,13.7,9.5,22.1,9.5c7.6,0,14.7-2.7,21.2-7.9c1.2-1.1,2.8-0.8,3.7,0l8.6,8.9c0.5,0.4,0.7,1,0.8,1.7c0,0.8-0.3,1.7-0.9,2.3
		C169.3,95.9,157.6,100.6,144.6,100.6z M144.6,0.6c-13.4,0-26,5.2-35.4,14.6c-9.4,9.4-14.6,22-14.6,35.4c0,13.4,5.2,25.9,14.6,35.2
		c9.4,9.3,22,14.5,35.4,14.5c13,0,24.6-4.6,33.6-13.4c0.5-0.5,0.8-1.3,0.8-2.1c0-0.4-0.1-1-0.7-1.5l-8.6-8.9c-0.7-0.7-2.2-1-3.3,0
		c-6.5,5.3-13.7,8-21.3,8c-8.5,0-16.5-3.4-22.3-9.6c-5.8-6.1-8.9-14.1-8.9-22.7c0-8.6,3.1-16.7,8.9-22.8c5.8-6.2,13.7-9.7,22.3-9.7
		c7.7,0,15.5,3,21.5,8.2c0.5,0.5,1.1,0.8,1.8,0.8c0.6,0,1.1-0.3,1.5-0.8l8.5-8.8c0.5-0.5,0.8-1.2,0.8-1.9c0-0.7-0.3-1.3-0.9-1.8
		C168.2,4.6,157.8,0.6,144.6,0.6z"/>
	<path class="st0" d="M237.7,100.6c-13.5,0-26.1-5.2-35.5-14.6c-9.4-9.4-14.6-22-14.6-35.5c0-13.5,5.2-26.1,14.6-35.6
		c9.4-9.5,22-14.7,35.5-14.7c13.5,0,26.1,5.2,35.5,14.7c9.4,9.5,14.6,22.1,14.6,35.6c0,13.5-5.2,26.1-14.6,35.5
		C263.8,95.4,251.2,100.6,237.7,100.6z M237.7,0.6c-13.4,0-25.9,5.2-35.2,14.6c-9.3,9.4-14.5,22-14.5,35.4
		c0,13.4,5.1,25.9,14.5,35.2c9.3,9.3,21.8,14.5,35.2,14.5c13.4,0,25.9-5.1,35.3-14.5c9.4-9.3,14.5-21.9,14.5-35.2
		c0-13.4-5.2-26-14.5-35.4C263.6,5.8,251.1,0.6,237.7,0.6z M237.7,82.6c-17.6,0-32-14.3-32-32c0-8.5,3.3-16.6,9.4-22.7
		c6.1-6.1,14.1-9.5,22.6-9.5c8.5,0,16.5,3.4,22.6,9.5c6.1,6.1,9.5,14.2,9.5,22.7c0,8.5-3.4,16.5-9.5,22.6
		C254.2,79.2,246.2,82.6,237.7,82.6z M237.7,18.7c-8.4,0-16.3,3.4-22.4,9.4c-6,6.1-9.3,14.1-9.3,22.5c0,17.5,14.2,31.7,31.7,31.7
		c8.4,0,16.4-3.3,22.4-9.3c6-6,9.4-13.9,9.4-22.4c0-8.4-3.3-16.4-9.4-22.5C254.1,22,246.1,18.7,237.7,18.7z"/>
	<path class="st0" d="M332.2,100.6c-18,0-27.2-7.9-30.7-10.9c-1.5-1.2-2-2.1-0.7-4.4l5-8.6c0.5-0.9,1.3-1.4,2.2-1.6
		c1-0.2,2,0,2.7,0.6c6,4.5,12.1,8.6,20.9,8.6c7,0,12.5-4.6,12.5-10.5c0-6.6-5.2-11.6-17.5-16.5c-11.2-4.5-26.2-12.6-26.2-30.1
		c0-6.7,2.7-13.3,7.4-18.1c5.6-5.7,13.9-8.7,24-8.7c14.7,0,25.8,7.8,27.9,9.3c0.6,0.4,1.1,1.1,1.3,2.1c0.2,1,0,2-0.5,2.7l-5.3,7.9
		c-1.1,1.7-3.3,2.9-5.1,1.7l-1-0.6c-5.7-3.6-11.1-7-18.2-7c-8.3,0-12.1,4.8-12.1,9.6c0,6.2,4.7,10.7,16.3,15.4
		c14.4,5.8,29.1,14.1,29.1,31.5c0,7.3-3.1,14.1-8.7,19.2C349.7,97.6,341.4,100.6,332.2,100.6z M308.7,75.4c-0.2,0-0.4,0-0.6,0.1
		c-0.6,0.1-1.4,0.5-2,1.5l-5,8.6c-1.2,2.1-0.7,2.9,0.7,4l0,0c3.4,3,12.5,10.8,30.5,10.8c9.1,0,17.4-3,23.2-8.3
		c5.5-5.1,8.6-11.8,8.6-19c0-17.3-14.6-25.5-28.9-31.2c-11.7-4.8-16.5-9.3-16.5-15.7c0-4.9,3.8-9.9,12.4-9.9c7.3,0,12.7,3.4,18.4,7
		l1,0.6c1.6,1.1,3.6,0,4.7-1.6l5.3-7.9c0.5-0.7,0.6-1.6,0.4-2.5c-0.2-0.8-0.6-1.5-1.2-1.9c-2.1-1.6-13.1-9.3-27.7-9.3
		c-10,0-18.2,3-23.8,8.7c-4.6,4.7-7.3,11.2-7.3,17.9c0,17.3,14.8,25.3,26,29.9c12.4,5,17.7,10.1,17.7,16.8c0,6.1-5.6,10.8-12.8,10.8
		c-8.9,0-15-4.1-21.1-8.6C310.1,75.6,309.4,75.4,308.7,75.4z"/>
	<path class="st0" d="M416.1,99.2h-12.8c-1.5,0-2.8-1.3-2.8-2.8V52.3L368.9,6c-0.6-0.9-0.6-2-0.1-2.9c0.5-0.9,1.4-1.4,2.5-1.4h14.2
		c0.9,0,1.7,0.4,2.3,1.3l22.1,31.8L432,3c0.7-0.9,1.4-1.3,2.3-1.3h14.3c1.1,0,2,0.5,2.5,1.4c0.5,0.9,0.5,2-0.1,2.9l-32.1,46.2v44.3
		C418.9,97.9,417.6,99.2,416.1,99.2z M371.2,2c-1,0-1.8,0.4-2.2,1.2c-0.4,0.8-0.4,1.8,0.1,2.6l31.7,46.4v44.2c0,1.4,1.1,2.5,2.5,2.5
		h12.8c1.3,0,2.5-1.2,2.5-2.5V52.1l0,0l32.1-46.2c0.5-0.8,0.5-1.8,0.1-2.6c-0.4-0.8-1.2-1.2-2.2-1.2h-14.3c-0.8,0-1.5,0.4-2.1,1.2
		l-22.3,32.1l-0.1-0.2L387.5,3.2c-0.6-0.8-1.3-1.2-2.1-1.2H371.2z"/>
	<path class="st0" d="M488.2,100.6c-18,0-27.2-7.9-30.6-10.9c-1.5-1.2-2-2.1-0.7-4.4l5-8.6c0.5-0.9,1.3-1.4,2.2-1.6
		c1-0.2,2,0,2.7,0.6c6,4.5,12.1,8.6,20.9,8.6c7,0,12.5-4.6,12.5-10.5c0-6.6-5.2-11.6-17.5-16.5c-11.2-4.5-26.2-12.6-26.2-30.1
		c0-6.7,2.7-13.3,7.4-18.1c5.6-5.7,13.9-8.7,24-8.7c14.7,0,25.8,7.8,27.9,9.3c0.7,0.4,1.1,1.1,1.3,2.1c0.2,1,0,2-0.5,2.7l-5.3,7.9
		c-0.6,0.9-1.4,1.6-2.3,1.9c-1,0.4-2,0.3-2.8-0.2l-1-0.6c-5.7-3.6-11-7-18.2-7c-8.3,0-12.1,4.8-12.1,9.6c0,6.2,4.7,10.7,16.3,15.4
		c14.4,5.8,29.1,14.1,29.1,31.5c0,7.3-3.1,14.1-8.7,19.2C505.7,97.6,497.4,100.6,488.2,100.6z M464.7,75.4c-0.2,0-0.4,0-0.6,0.1
		c-0.6,0.1-1.4,0.5-2,1.5l-5,8.6c-1.2,2.1-0.7,2.9,0.7,4l0,0c3.4,3,12.5,10.8,30.5,10.8c9.1,0,17.4-3,23.2-8.3
		c5.5-5.1,8.6-11.8,8.6-19c0-17.3-14.6-25.5-28.9-31.2c-11.7-4.8-16.5-9.3-16.5-15.7c0-4.9,3.8-9.9,12.4-9.9c7.3,0,12.7,3.4,18.4,7
		l1,0.6c0.9,0.6,1.9,0.4,2.5,0.2c0.8-0.3,1.6-1,2.2-1.8l5.3-7.9c0.5-0.7,0.6-1.6,0.4-2.5c-0.2-0.8-0.6-1.5-1.2-1.9
		c-2.1-1.6-13.1-9.3-27.7-9.3c-10,0-18.2,3-23.8,8.7c-4.6,4.7-7.3,11.2-7.3,17.9c0,17.3,14.8,25.3,26,29.9
		c12.4,5,17.7,10.1,17.7,16.8c0,6.1-5.6,10.8-12.8,10.8c-8.9,0-15-4.1-21.1-8.6C466.1,75.6,465.4,75.4,464.7,75.4z"/>
	<path class="st0" d="M568.7,99.2h-12.9c-1.5,0-2.8-1.3-2.8-2.8V18.7h-21.1c-1.5,0-2.8-1.3-2.8-2.8V4.5c0-1.5,1.2-2.8,2.8-2.8h60.7
		c1.5,0,2.8,1.3,2.8,2.8v11.4c0,1.5-1.3,2.8-2.8,2.8h-21.1v77.8C571.5,97.9,570.2,99.2,568.7,99.2z M531.9,2c-1.4,0-2.5,1.1-2.5,2.5
		v11.4c0,1.4,1.1,2.5,2.5,2.5h21.4v78.1c0,1.3,1.2,2.5,2.5,2.5h12.9c1.3,0,2.5-1.2,2.5-2.5V18.4h21.4c1.4,0,2.5-1.1,2.5-2.5V4.5
		c0-1.4-1.1-2.5-2.5-2.5H531.9z"/>
	<path class="st0" d="M669.8,99.2h-56.5c-1.5,0-2.8-1.3-2.8-2.8V4.5c0-1.5,1.3-2.8,2.8-2.8h56.5c1.5,0,2.8,1.3,2.8,2.8v11.4
		c0,1.5-1.3,2.8-2.8,2.8h-41v22.5H663c1.5,0,2.8,1.3,2.8,2.8v11.5c0,1.5-1.3,2.8-2.8,2.8h-34.2v24h41c1.5,0,2.8,1.3,2.8,2.8v11.4
		C672.6,98,671.4,99.2,669.8,99.2z M613.3,2c-1.4,0-2.5,1.1-2.5,2.5v91.9c0,1.4,1.1,2.5,2.5,2.5h56.5c1.4,0,2.5-1.1,2.5-2.5V85
		c0-1.4-1.1-2.5-2.5-2.5h-41.3V58H663c1.4,0,2.5-1.1,2.5-2.5V43.9c0-1.3-1.2-2.5-2.5-2.5h-34.5V18.4h41.3c1.4,0,2.5-1.1,2.5-2.5V4.5
		c0-1.4-1.1-2.5-2.5-2.5H613.3z"/>
	<path class="st0" d="M741,100.6h-2.5c-1.1,0-2-0.5-2.5-1.6l-24.5-54.5h-0.2l-8,52.5c-0.2,1-1.3,2.2-2.6,2.2h-12.5
		c-0.9,0-1.7-0.3-2.2-0.9c-0.5-0.6-0.7-1.5-0.6-2.5l16.5-93.3c0.1-1,0.9-2.2,2.6-2.2h2.2c1.1,0,2,0.5,2.5,1.5l30.5,65.5h0.2
		l30.5-65.5c0.5-1,1.3-1.5,2.5-1.5h2.2c1.7,0,2.5,1.2,2.6,2.2l16.4,93.3c0.2,1,0.1,1.8-0.4,2.4c-0.5,0.6-1.3,0.9-2.2,0.9h-12.6
		c-1.3,0-2.5-1.1-2.8-2.2L768,44.5h-0.2L743.5,99C743.2,99.8,742.4,100.6,741,100.6z M711,44.2h0.6l0,0.1l24.6,54.6
		c0.5,1,1.2,1.4,2.2,1.4h2.5c1.3,0,2-0.7,2.2-1.4l24.3-54.7h0.6l0,0.1l8.2,52.6c0.3,0.9,1.3,2,2.5,2h12.6c0.8,0,1.5-0.3,2-0.8
		c0.4-0.5,0.6-1.3,0.4-2.2L777.5,2.6c-0.1-0.9-0.8-2-2.4-2h-2.2c-1.1,0-1.8,0.4-2.2,1.3l-30.6,65.6h-0.6l0-0.1L708.9,1.9
		c-0.4-0.8-1.2-1.3-2.2-1.3h-2.2c-1.5,0-2.2,1-2.4,2l0,0l-16.5,93.3c-0.1,0.9,0.1,1.7,0.5,2.2c0.5,0.5,1.1,0.8,2,0.8h12.5
		c1.2,0,2.2-1,2.4-2L711,44.2z"/>
</g>
</svg>
