<?xml version="1.0" encoding="utf-8"?>
<!-- Generator: Adobe Illustrator 26.0.3, SVG Export Plug-In . SVG Version: 6.00 Build 0)  -->
<svg version="1.1" id="Capa_1" xmlns="http://www.w3.org/2000/svg" xmlns:xlink="http://www.w3.org/1999/xlink" x="0px" y="0px"
	 viewBox="0 0 548.2 61.5" style="enable-background:new 0 0 548.2 61.5;" xml:space="preserve">
<style type="text/css">
	.st0{fill:#FFFFFF;}
</style>
<g id="Layer_2">
	<g id="Layer_1-2">
		<path class="st0" d="M450.6,61.5h-1.5c-0.7,0-1.3-0.4-1.6-1l-15-33.3l0,0l-4.9,32.1c-0.2,0.8-0.9,1.4-1.7,1.4h-7.6
			c-0.5,0-1-0.2-1.4-0.6c-0.4-0.4-0.5-1-0.4-1.6l0,0l10.1-57.1c0.1-0.8,0.8-1.5,1.7-1.4h1.4c0.7,0,1.3,0.3,1.6,0.9l18.7,40h0.1
			l18.7-40c0.3-0.6,0.9-1,1.5-0.9h1.4c0.8-0.1,1.6,0.6,1.7,1.4l10,57.1c0.1,0.5,0,1.1-0.3,1.5c-0.3,0.4-0.9,0.6-1.4,0.6h-7.7
			c-0.8-0.1-1.5-0.6-1.8-1.4l-5-32.1l0,0l-14.8,33.3C452,61.1,451.3,61.5,450.6,61.5z M432.2,26.9h0.5V27l15,33.4
			c0.2,0.5,0.7,0.9,1.3,0.8h1.5c0.6,0,1.1-0.3,1.3-0.8l14.9-33.5h0.5V27l5,32.2c0.2,0.6,0.8,1.1,1.5,1.2h7.7c0.4,0,0.9-0.2,1.2-0.5
			c0.3-0.4,0.3-0.8,0.2-1.3l-10-57.1c-0.1-0.7-0.6-1.2-1.3-1.1h-1.4c-0.6,0-1.1,0.3-1.3,0.8l-18.7,40.2h-0.5v-0.1L431,1.1
			c-0.3-0.5-0.8-0.8-1.4-0.8h-1.4c-0.7-0.1-1.3,0.4-1.4,1.1l-10.1,57.1c-0.1,0.5,0,0.9,0.3,1.3c0.3,0.3,0.7,0.5,1.2,0.5h7.6
			c0.7,0,1.2-0.5,1.4-1.2L432.2,26.9z M283.2,61.5c-11.1,0-16.7-4.8-18.8-6.7c-0.9-0.7-1.2-1.3-0.5-2.7l3.1-5.3
			c0.3-0.5,0.8-0.9,1.4-1c0.6-0.1,1.2,0,1.7,0.4c3.6,2.8,7.4,5.2,12.7,5.2c4.2,0,7.6-2.8,7.6-6.4c0-4-3.2-7-10.7-10.1
			c-6.9-2.8-16.1-7.7-16.1-18.5C263.8,8.5,269.8,0,283,0c6.1,0.1,12.1,2.1,17.1,5.7c0.5,0.3,0.8,0.7,0.9,1.3c0.1,0.6,0,1.2-0.3,1.7
			l-3.2,4.8c-0.7,1.1-2.1,1.8-3.2,1.1l-0.6-0.4c-3.5-2.2-6.7-4.3-11.1-4.3c-5.1,0-7.3,2.9-7.3,5.8c0,3.8,2.9,6.5,9.9,9.4
			c4,1.6,8.5,3.6,12,6.8c3.8,3.1,5.9,7.7,5.8,12.6C303,52.8,296.1,61.5,283.2,61.5L283.2,61.5z M268.9,46.1c-0.1,0-0.2,0-0.4,0
			c-0.5,0.1-0.9,0.4-1.2,0.9l-3.1,5.3c-0.7,1.3-0.4,1.7,0.4,2.3c2.1,1.8,7.7,6.6,18.6,6.6c12.6,0,19.4-8.6,19.4-16.7
			c0-10.5-8.9-15.5-17.7-19c-7.2-2.9-10.1-5.7-10.1-9.7c0-3,2.4-6.1,7.6-6.1c4.5,0,7.8,2.1,11.3,4.3l0.6,0.4c1,0.6,2.1,0,2.8-1
			l3.2-4.8c0.3-0.4,0.4-1,0.2-1.5c-0.1-0.4-0.3-0.8-0.6-1.1c-5-3.6-10.9-5.6-17-5.7c-9.1,0-19,5.1-19,16.2
			c0,10.6,9.1,15.5,15.9,18.2c7.6,3.1,10.9,6.2,10.9,10.3c0,3.8-3.5,6.7-7.9,6.7c-5.5,0-9.2-2.5-12.9-5.3
			C269.7,46.2,269.3,46.1,268.9,46.1z M202.9,61.5c-11.1,0-16.7-4.8-18.8-6.7c-0.9-0.7-1.2-1.3-0.4-2.7l3.1-5.3
			c0.3-0.5,0.8-0.9,1.4-1c0.6-0.1,1.2,0,1.7,0.4c3.6,2.8,7.4,5.2,12.7,5.2c4.2,0,7.6-2.8,7.6-6.4c0-4-3.2-7-10.7-10.1
			c-6.9-2.8-16.1-7.7-16.1-18.5c0-7.9,6-16.5,19.3-16.5c6.1,0.1,12.1,2.1,17.1,5.7c0.4,0.3,0.7,0.8,0.8,1.3c0.1,0.6,0,1.2-0.3,1.7
			l-3.3,4.8c-0.7,1.1-2.1,1.8-3.2,1.1l-0.6-0.4c-3.5-2.2-6.7-4.2-11.1-4.2c-5.1,0-7.3,2.9-7.3,5.8c0,3.8,2.9,6.5,9.9,9.4
			c4,1.6,8.5,3.6,12,6.8c3.8,3.1,5.9,7.7,5.8,12.6C222.6,52.8,215.7,61.5,202.9,61.5L202.9,61.5z M188.5,46.1c-0.1,0-0.2,0-0.4,0
			c-0.5,0.1-0.9,0.4-1.2,0.9l-3.1,5.3c-0.7,1.3-0.4,1.7,0.4,2.3c2.1,1.8,7.7,6.6,18.6,6.6c12.6,0,19.4-8.6,19.4-16.7
			c0-10.5-8.9-15.6-17.7-19.1c-7.2-2.9-10.1-5.7-10.1-9.7c0-3,2.4-6.1,7.6-6.1c4.4,0,7.8,2.1,11.3,4.3l0.6,0.4c0.9,0.6,2.1,0,2.8-1
			l3.2-4.8c0.3-0.4,0.4-1,0.2-1.5c-0.1-0.4-0.3-0.8-0.7-1.1c-4.9-3.6-10.8-5.6-16.9-5.7c-9.1,0-19,5.1-19,16.2
			c0,10.6,9.1,15.5,15.9,18.2c7.6,3.1,10.9,6.2,10.9,10.3c0,3.8-3.5,6.7-7.9,6.7c-5.5,0-9.2-2.5-12.9-5.3
			C189.3,46.2,188.9,46.1,188.5,46.1z M140.8,61.5C124,61.6,110.3,48,110.2,31.2c0-0.1,0-0.3,0-0.4c0-8.2,3.2-16,8.9-21.8
			c12-12,31.4-12,43.5-0.1c5.8,5.8,9.1,13.7,9,21.9c0.1,16.9-13.6,30.6-30.4,30.7C141,61.5,140.9,61.5,140.8,61.5z M140.8,0.3
			c-8.1,0-15.8,3.2-21.5,8.9c-5.7,5.7-8.9,13.5-8.8,21.6c-0.3,16.8,13.1,30.7,29.9,31c16.8,0.3,30.7-13.1,31-29.9c0-0.4,0-0.7,0-1.1
			C171.3,14,157.8,0.4,141,0.3C141,0.3,140.9,0.3,140.8,0.3z M79.6,61.5c-8.2,0-16-3.2-21.8-8.9c-12-12-12-31.5,0-43.6
			c5.8-5.8,13.6-9,21.8-9c7.7-0.2,15.1,2.7,20.7,7.9c0.4,0.3,0.6,0.8,0.6,1.3c0,0.5-0.2,1-0.6,1.3l-5.2,5.4
			c-0.3,0.3-0.7,0.5-1.1,0.6c-0.5,0-0.9-0.2-1.2-0.6c-3.6-3.2-8.2-5-13-5c-10.6,0-18.8,8.6-18.8,19.7c0,5.1,1.9,10,5.4,13.7
			C70,48,74.9,50.1,80,50.1c4.7,0,9.3-1.7,12.9-4.8c0.7-0.6,1.7-0.6,2.3,0l5.3,5.5c0.3,0.3,0.5,0.7,0.5,1.1c0,0.5-0.2,1.1-0.6,1.4
			C94.9,58.6,87.4,61.6,79.6,61.5z M79.6,0.3c-16.8,0-30.5,13.6-30.5,30.4s13.6,30.5,30.4,30.5c0,0,0,0,0,0
			c7.7,0.1,15.1-2.8,20.5-8.2c0.3-0.3,0.5-0.8,0.5-1.2c0-0.3-0.1-0.6-0.4-0.9L95,45.5c-0.5-0.5-1.4-0.5-1.9,0
			c-3.7,3.1-8.3,4.8-13.1,4.9c-5.2,0-10.1-2.1-13.7-5.9c-3.5-3.8-5.5-8.7-5.5-13.9c0-11.2,8.4-20,19.1-20c4.9,0.1,9.5,1.8,13.2,5.1
			c0.3,0.3,0.6,0.5,1,0.5c0.3,0,0.7-0.2,0.9-0.5l5.2-5.4c0.3-0.3,0.5-0.7,0.5-1.1c0-0.4-0.2-0.8-0.5-1.1C94.6,2.9,87.2,0.1,79.6,0.3
			z M546.4,60.7H539c-1.2,0.1-2.2-0.7-2.6-1.8l-4.1-9.1h-25.2l-4.1,9.1c-0.4,1.1-1.4,1.8-2.6,1.8H493c-0.6,0-1.2-0.3-1.5-0.8
			c-0.3-0.5-0.3-1.1-0.1-1.7L517.8,1c0.3-0.6,0.9-1,1.6-1h0.8c0.7,0,1.3,0.4,1.6,1L548,58.2c0.3,0.5,0.2,1.2-0.1,1.7
			C547.6,60.4,547,60.7,546.4,60.7z M506.9,49.5h25.6l4.2,9.3c0.6,1.2,1.2,1.6,2.3,1.6h7.4c0.5,0,1-0.2,1.3-0.6c0.2-0.4,0.2-1,0-1.4
			L521.6,1.1c-0.2-0.5-0.7-0.9-1.3-0.8h-0.8c-0.6,0-1.1,0.3-1.3,0.9l-26.4,57.2c-0.2,0.4-0.2,1,0,1.4c0.3,0.4,0.8,0.6,1.3,0.6h7.4
			c1,0,2-0.6,2.3-1.6L506.9,49.5z M402.9,60.7h-34.6c-1,0-1.8-0.8-1.8-1.8V2.6c0-1,0.8-1.8,1.8-1.8c0,0,0,0,0,0h34.6
			c1,0,1.8,0.8,1.8,1.8v7c0,1-0.8,1.8-1.8,1.8h-25V25h20.9c1,0,1.7,0.8,1.8,1.8v7.1c0,1-0.8,1.8-1.8,1.8l0,0h-20.9v14.6h25
			c1,0,1.8,0.8,1.8,1.8v7C404.6,59.9,403.8,60.6,402.9,60.7L402.9,60.7z M368.3,1.1c-0.8,0-1.5,0.7-1.5,1.5v56.3
			c0,0.8,0.7,1.5,1.5,1.5l0,0h34.6c0.8,0,1.5-0.7,1.5-1.5c0,0,0,0,0,0v-7c0-0.8-0.7-1.5-1.5-1.5l0,0h-25.3V35.3h21.1
			c0.8,0,1.5-0.7,1.5-1.5v-7.1c0-0.8-0.7-1.4-1.5-1.5h-21.1V11.1h25.3c0.8,0,1.5-0.7,1.5-1.5v0v-7c0-0.8-0.7-1.5-1.5-1.5L368.3,1.1z
			 M336.7,60.7h-7.9c-1,0-1.7-0.8-1.8-1.8V11.4h-12.9c-1,0-1.8-0.8-1.8-1.8v-7c0-1,0.8-1.7,1.8-1.7h37.1c1,0,1.8,0.8,1.8,1.7
			c0,0,0,0,0,0v7c0,1-0.8,1.8-1.8,1.8h-12.8v47.5C338.5,59.8,337.7,60.6,336.7,60.7z M314.2,1.1c-0.8,0-1.5,0.7-1.5,1.5v7
			c0,0.8,0.7,1.5,1.5,1.5l0,0h13.1v47.8c0,0.8,0.7,1.4,1.5,1.5h7.9c0.8,0,1.4-0.7,1.5-1.5V11.1h13.1c0.8,0,1.5-0.7,1.5-1.5v0v-7
			c0-0.8-0.7-1.5-1.5-1.5L314.2,1.1z M246.7,60.7h-7.9c-1,0-1.7-0.8-1.8-1.8V2.6c0-1,0.8-1.7,1.8-1.8h7.9c1,0,1.7,0.8,1.8,1.8v56.3
			C248.5,59.8,247.7,60.6,246.7,60.7L246.7,60.7z M238.8,1.2c-0.8,0-1.4,0.7-1.5,1.5v56.3c0,0.8,0.7,1.4,1.5,1.5h7.9
			c0.8,0,1.4-0.7,1.5-1.5V2.6c0-0.8-0.7-1.4-1.5-1.5L238.8,1.2z M36.4,60.7H1.8c-1,0-1.8-0.8-1.8-1.8c0,0,0,0,0,0V2.6
			c0-1,0.8-1.8,1.8-1.8c0,0,0,0,0,0h34.6c1,0,1.8,0.8,1.8,1.8v7c0,1-0.8,1.8-1.7,1.8c0,0,0,0,0,0h-25V25h20.8c1,0,1.8,0.8,1.8,1.8
			v7.1c0,1-0.8,1.8-1.8,1.8c0,0,0,0,0,0H11.4v14.6h25c1,0,1.8,0.8,1.8,1.8c0,0,0,0,0,0v7C38.1,59.9,37.3,60.6,36.4,60.7z M1.8,1.1
			C1,1.1,0.3,1.8,0.3,2.6v56.3c0,0.8,0.7,1.5,1.5,1.5c0,0,0,0,0,0h34.6c0.8,0,1.5-0.7,1.5-1.5c0,0,0,0,0,0v-7c0-0.8-0.7-1.5-1.5-1.5
			c0,0,0,0,0,0H11.1V35.3h21.1c0.8,0,1.5-0.6,1.5-1.4c0,0,0,0,0,0v-7.1c0-0.8-0.7-1.4-1.5-1.5H11.1V11.1h25.3c0.8,0,1.5-0.7,1.5-1.5
			v0v-7c0-0.8-0.7-1.5-1.5-1.5L1.8,1.1z M140.8,50.5c-10.8,0-19.6-8.9-19.5-19.7s8.9-19.6,19.7-19.5c10.8,0,19.5,8.8,19.5,19.6
			C160.5,41.7,151.7,50.5,140.8,50.5L140.8,50.5z M140.8,11.4c-10.8-0.1-19.7,8.6-19.8,19.4c-0.1,10.8,8.6,19.7,19.4,19.8
			c10.8,0.1,19.7-8.6,19.8-19.4c0-5.2-2-10.3-5.7-14C150.9,13.4,146,11.4,140.8,11.4L140.8,11.4z M528.4,40.4h-17.5l0.1-0.2
			l8.4-18.8h0.5L528.4,40.4z M511.4,40H528l-8.4-18.4h-0.1L511.4,40z"/>
	</g>
</g>
</svg>
