<?xml version="1.0" encoding="utf-8"?>
<!-- Generator: Adobe Illustrator 25.4.1, SVG Export Plug-In . SVG Version: 6.00 Build 0)  -->
<svg version="1.1" id="Layer_1" xmlns="http://www.w3.org/2000/svg" xmlns:xlink="http://www.w3.org/1999/xlink" x="0px" y="0px"
	 viewBox="0 0 815.3 100" style="enable-background:new 0 0 815.3 100;" xml:space="preserve">
<style type="text/css">
	.st0{fill:#FFFFFF;}
</style>
<g>
	<path class="st0" d="M21.4,4c0-1.4,1.1-2.6,2.6-2.6h56.5c1.5,0,2.6,1.2,2.6,2.6v11.4c0,1.4-1.1,2.6-2.6,2.6H39.4v22.8h34.3
		c1.4,0,2.6,1.2,2.6,2.6V55c0,1.5-1.2,2.6-2.6,2.6H39.4v24.3h41.1c1.5,0,2.6,1.3,2.6,2.6V96c0,1.4-1.1,2.6-2.6,2.6H24
		c-1.5,0-2.6-1.2-2.6-2.6V4z"/>
	<path class="st0" d="M144.3,0c14,0,24.2,4.4,33.6,12.9c1.2,1.1,1.2,2.8,0.1,3.9l-8.5,8.7c-1,1.1-2.4,1.1-3.5,0
		c-5.8-5.1-13.6-8.2-21.4-8.2c-17.8,0-31,14.9-31,32.4c0,17.4,13.3,32.1,31.1,32.1c8.3,0,15.4-3.2,21.2-7.9c1.1-1,2.6-0.8,3.5,0
		l8.6,8.9c1.1,1,0.8,2.8-0.1,3.7c-9.4,9.2-21.4,13.5-33.7,13.5c-27.8,0-50.1-22.1-50.1-49.9C94.2,22.4,116.6,0,144.3,0z"/>
	<path class="st0" d="M237.4,0c27.8,0,50,22.4,50,50.1c0,27.8-22.2,49.9-50,49.9c-27.8,0-49.9-22.1-49.9-49.9
		C187.6,22.4,209.7,0,237.4,0z M237.4,81.9c17.5,0,31.9-14.3,31.9-31.8s-14.4-32.1-31.9-32.1s-31.8,14.6-31.8,32.1
		S219.9,81.9,237.4,81.9z"/>
	<path class="st0" d="M301.4,89.2c-1.4-1.1-1.9-1.9-0.7-4.2l5-8.6c1.1-1.9,3.5-1.9,4.7-1c5.7,4.3,11.9,8.6,21,8.6
		c7.2,0,12.6-4.7,12.6-10.7c0-7.1-6-11.9-17.6-16.7c-13.1-5.3-26.1-13.6-26.1-30c0-12.4,9.2-26.7,31.3-26.7c14.2,0,25,7.2,27.8,9.3
		c1.4,0.8,1.8,3.2,0.8,4.6l-5.3,7.9c-1.1,1.7-3.2,2.8-4.9,1.7c-6-3.8-11.7-7.6-19.3-7.6c-7.9,0-12.2,4.4-12.2,9.7
		c0,6.5,5.1,11,16.4,15.6c13.5,5.4,29,13.5,29,31.4c0,14.3-12.4,27.5-31.9,27.5C314.5,100,305.4,92.6,301.4,89.2z"/>
	<path class="st0" d="M400.5,51.8L368.8,5.4c-1.1-1.8,0-4,2.2-4h14.2c1.1,0,1.8,0.7,2.2,1.2l22.2,31.9l22.2-31.9
		c0.4-0.6,1.1-1.2,2.2-1.2h14.3c2.2,0,3.3,2.2,2.2,4l-32.1,46.2V96c0,1.4-1.2,2.6-2.6,2.6h-12.8c-1.5,0-2.6-1.2-2.6-2.6V51.8z"/>
	<path class="st0" d="M457.5,89.2c-1.4-1.1-1.9-1.9-0.7-4.2l5-8.6c1.1-1.9,3.5-1.9,4.7-1c5.7,4.3,11.9,8.6,21,8.6
		c7.2,0,12.6-4.7,12.6-10.7c0-7.1-6-11.9-17.6-16.7c-13.1-5.3-26.1-13.6-26.1-30c0-12.4,9.2-26.7,31.3-26.7c14.2,0,25,7.2,27.8,9.3
		c1.4,0.8,1.8,3.2,0.8,4.6l-5.3,7.9c-1.1,1.7-3.2,2.8-4.9,1.7c-6-3.8-11.7-7.6-19.3-7.6c-7.9,0-12.2,4.4-12.2,9.7
		c0,6.5,5.1,11,16.4,15.6c13.5,5.4,29,13.5,29,31.4c0,14.3-12.4,27.5-31.9,27.5C470.5,100,461.5,92.6,457.5,89.2z"/>
	<path class="st0" d="M552.9,18.1h-21.2c-1.5,0-2.6-1.2-2.6-2.6V4c0-1.4,1.1-2.6,2.6-2.6h60.7c1.5,0,2.6,1.2,2.6,2.6v11.4
		c0,1.4-1.1,2.6-2.6,2.6h-21.2V96c0,1.4-1.2,2.6-2.6,2.6h-12.9c-1.4,0-2.6-1.2-2.6-2.6V18.1z"/>
	<path class="st0" d="M610.5,4c0-1.4,1.1-2.6,2.6-2.6h56.5c1.5,0,2.6,1.2,2.6,2.6v11.4c0,1.4-1.1,2.6-2.6,2.6h-41.1v22.8h34.3
		c1.4,0,2.6,1.2,2.6,2.6V55c0,1.5-1.3,2.6-2.6,2.6h-34.3v24.3h41.1c1.5,0,2.6,1.3,2.6,2.6V96c0,1.4-1.1,2.6-2.6,2.6h-56.5
		c-1.5,0-2.6-1.2-2.6-2.6V4z"/>
	<path class="st0" d="M701.7,2.1c0.1-1.1,1-2.1,2.5-2.1h2.2c1.1,0,1.9,0.6,2.4,1.4l30.6,65.6c0.3,0,0.3,0,0.4,0l30.6-65.6
		c0.4-0.8,1.1-1.4,2.4-1.4h2.2c1.5,0,2.4,1,2.5,2.1l16.4,93.3c0.4,1.9-0.7,3.2-2.5,3.2h-12.6c-1.2,0-2.4-1.1-2.6-2.1l-8.2-52.6
		c-0.1,0-0.4,0-0.4,0l-24.3,54.6c-0.3,0.8-1.1,1.5-2.4,1.5h-2.5c-1.2,0-1.9-0.7-2.4-1.5l-24.6-54.6c0,0-0.3,0-0.4,0l-8.1,52.6
		c-0.1,1-1.2,2.1-2.5,2.1h-12.5c-1.8,0-2.9-1.2-2.6-3.2L701.7,2.1z"/>
</g>
</svg>
