<?xml version="1.0" encoding="utf-8"?>
<!-- Generator: Adobe Illustrator 26.0.3, SVG Export Plug-In . SVG Version: 6.00 Build 0)  -->
<svg version="1.1" id="Capa_1" xmlns="http://www.w3.org/2000/svg" xmlns:xlink="http://www.w3.org/1999/xlink" x="0px" y="0px"
	 viewBox="0 0 669 61.2" style="enable-background:new 0 0 669 61.2;" xml:space="preserve">
<style type="text/css">
	.st0{opacity:0.5;}
	.st1{fill:#FFFFFF;}
</style>
<g id="Layer_2" class="st0">
	<g id="Layer_1-2">
		<path class="st1" d="M628.5,50V11.1h9.7c11,0,19.1,7.8,19.1,19.4S649.2,50,638.2,50H628.5z M617.5,58.8c0,0.9,0.7,1.6,1.5,1.6
			h20.1c16.4,0,29.8-13.3,29.8-29.8S655.6,0.8,639.1,0.8l0,0H619c-0.9,0-1.5,0.8-1.5,1.6V58.8z M569.1,40l8.3-18.7h0.3l8.5,18.7
			H569.1z M550.9,60.3h7.4c1.1,0,2.1-0.7,2.5-1.7l4.2-9.2h25.4l4.2,9.2c0.3,1.1,1.4,1.8,2.5,1.7h7.4c0.8,0.1,1.5-0.5,1.6-1.4
			c0-0.3,0-0.6-0.2-0.8L579.6,0.9c-0.2-0.6-0.8-1-1.4-0.9h-0.9c-0.6,0-1.2,0.4-1.4,0.9l-26.4,57.2c-0.4,0.7-0.1,1.6,0.6,2
			C550.3,60.3,550.6,60.4,550.9,60.3 M502.1,50V11.1h9.7c11.1,0,19.1,7.8,19.1,19.4S522.8,50,511.8,50H502.1z M491.1,58.8
			c0,0.9,0.7,1.6,1.5,1.6h20.1c16.4,0,29.8-13.3,29.8-29.8S529.2,0.9,512.8,0.9h-20.1c-0.9,0-1.5,0.8-1.5,1.6L491.1,58.8z
			 M461.2,58.8c0,0.9,0.7,1.6,1.6,1.6h7.9c0.9,0,1.6-0.7,1.6-1.6V2.5c0-0.9-0.7-1.6-1.6-1.6h-7.9c-0.9,0-1.6,0.7-1.6,1.6L461.2,58.8
			z M419.6,60.3c0.2,0.6,0.8,1,1.4,0.9h0.9c0.6,0,1.2-0.4,1.5-0.9l26.3-57.2c0.4-0.7,0.1-1.6-0.6-2c-0.3-0.1-0.5-0.2-0.8-0.2h-8.7
			c-0.6,0-1.2,0.4-1.5,0.9l-16.4,36.6h-0.4L404.9,1.8c-0.3-0.6-0.8-0.9-1.5-0.9h-8.7c-0.8-0.1-1.6,0.5-1.6,1.4c0,0.3,0,0.6,0.2,0.8
			L419.6,60.3z M370.6,58.8c0,0.9,0.7,1.6,1.6,1.6h7.9c0.9,0,1.6-0.7,1.6-1.6V2.5c0-0.9-0.7-1.5-1.5-1.6h-7.9
			c-0.9,0-1.6,0.7-1.6,1.6L370.6,58.8z M331.2,58.8c0,0.9,0.7,1.6,1.6,1.6h7.9c0.9,0,1.6-0.7,1.6-1.6V11.1h13
			c0.9,0.1,1.7-0.6,1.7-1.5c0,0,0-0.1,0-0.1v-7c0-0.9-0.7-1.6-1.6-1.6h-37.1c-0.9,0-1.6,0.7-1.6,1.6v7c0,0.9,0.7,1.6,1.6,1.6h13
			L331.2,58.8z M255.3,30.8c0,16.8,13.7,30.5,30.5,30.5c0.1,0,0.2,0,0.3,0c7.7,0.1,15.1-2.8,20.7-8.2c0.7-0.6,0.7-1.6,0.1-2.3
			c0,0,0,0,0,0l-5.3-5.4c-0.6-0.6-1.5-0.6-2.1,0c-3.6,3.1-8.2,4.8-13,4.8c-10.9,0-19-9-19-19.6s8.1-19.8,19-19.8
			c4.8,0,9.5,1.8,13.1,5c0.5,0.6,1.3,0.7,1.9,0.2c0.1-0.1,0.1-0.1,0.2-0.2l5.2-5.4c0.6-0.6,0.7-1.6,0.1-2.2c0-0.1-0.1-0.1-0.2-0.1
			c-5.6-5.3-13-8.1-20.7-7.9c-16.9,0-30.6,13.6-30.7,30.6C255.4,30.6,255.4,30.6,255.3,30.8 M206.6,58.7c0,0.9,0.7,1.6,1.6,1.6h34.6
			c0.9,0,1.6-0.7,1.6-1.6v-7c0-0.9-0.7-1.6-1.6-1.6h-25.2V35.3h21c0.9,0,1.6-0.7,1.6-1.6l0,0v-7.1c0-0.9-0.7-1.6-1.6-1.6h-21V11.1
			h25.2c0.9,0,1.6-0.7,1.6-1.6v-7c0-0.9-0.7-1.6-1.6-1.6h-34.6c-0.9,0-1.6,0.7-1.6,1.6L206.6,58.7z M137.7,58.7
			c0,0.9,0.7,1.6,1.6,1.6h7.7c0.9,0,1.6-0.7,1.6-1.6V22.2h0.2l34.8,38.4c0.4,0.4,0.9,0.6,1.4,0.6h1.2c0.9,0,1.6-0.7,1.6-1.5V2.5
			c0-0.9-0.7-1.6-1.6-1.6h-7.8c-0.9,0-1.6,0.7-1.6,1.6v35.1h-0.2L142,0.6c-0.4-0.4-0.9-0.6-1.4-0.6h-1.3c-0.9,0-1.6,0.7-1.6,1.5
			L137.7,58.7z M72.4,30.7c0-10.8,8.6-19.6,19.4-19.6s19.6,8.6,19.6,19.4S102.8,50.1,92,50.1c0,0-0.1,0-0.1,0
			C81.2,50,72.5,41.4,72.4,30.7 M61.4,30.7c0.3,16.9,14.2,30.3,31.1,30c16.4-0.3,29.7-13.6,30-30c0.3-16.9-13.1-30.8-30-31.1
			s-30.8,13.1-31.1,30C61.4,29.9,61.4,30.3,61.4,30.7 M0,30.7c0,16.8,13.6,30.5,30.4,30.5c0.1,0,0.2,0,0.2,0
			c7.7,0.1,15.1-2.8,20.7-8.2c0.7-0.6,0.7-1.6,0.1-2.3c0,0,0,0,0,0l-5.3-5.4c-0.6-0.6-1.5-0.6-2.1,0c-3.6,3.1-8.2,4.8-13,4.8
			c-10.9,0-19-9-19-19.6s8.1-19.8,19-19.8c4.8,0,9.5,1.8,13.1,5c0.5,0.6,1.3,0.7,1.9,0.2c0.1-0.1,0.1-0.1,0.2-0.2l5.2-5.4
			c0.6-0.6,0.7-1.6,0.1-2.2c0-0.1-0.1-0.1-0.2-0.1c-5.6-5.3-13-8.1-20.7-7.9C13.8,0,0,13.6,0,30.6C0,30.6,0,30.6,0,30.7"/>
	</g>
</g>
</svg>
