<svg xmlns="http://www.w3.org/2000/svg" viewBox="0 0 762.86 100"><defs><style>.cls-1{fill:#007dc3;}</style></defs><g id="Layer_2" data-name="Layer 2"><g id="Layer_2-2" data-name="Layer 2"><path class="cls-1" d="M59.17,2.39A1.64,1.64,0,0,1,60.8,4V15.42a1.64,1.64,0,0,1-1.63,1.64H17.06V41.83h35.3A1.73,1.73,0,0,1,54,43.47V55a1.64,1.64,0,0,1-1.64,1.64H17.06v26.3H59.17a1.64,1.64,0,0,1,1.63,1.64V96a1.64,1.64,0,0,1-1.63,1.64H2.64A1.64,1.64,0,0,1,1,96V4A1.64,1.64,0,0,1,2.64,2.39H59.17m0-1H2.64A2.64,2.64,0,0,0,0,4V96a2.64,2.64,0,0,0,2.64,2.64H59.17A2.63,2.63,0,0,0,61.8,96V84.58a2.63,2.63,0,0,0-2.63-2.64H18.06V57.64h34.3A2.64,2.64,0,0,0,55,55V43.47a2.73,2.73,0,0,0-2.64-2.64H18.06V18.06H59.17a2.63,2.63,0,0,0,2.63-2.64V4a2.63,2.63,0,0,0-2.63-2.64Z"/><path class="cls-1" d="M122.09,1c13,0,23.19,3.9,32.95,12.66a1.69,1.69,0,0,1,.62,1.22,1.65,1.65,0,0,1-.54,1.23l-8.47,8.75v0l0,0a1.31,1.31,0,0,1-.93.49,1.58,1.58,0,0,1-1.08-.54l0,0,0,0a33.85,33.85,0,0,0-22-8.45A31,31,0,0,0,99.63,26.3a34.09,34.09,0,0,0-9.09,23.42A33.54,33.54,0,0,0,99.7,73a31.36,31.36,0,0,0,23,9.85c7.85,0,15.21-2.74,21.91-8.17a1.69,1.69,0,0,1,1.11-.43,1.39,1.39,0,0,1,1,.37l8.61,8.89,0,0,0,0a1.14,1.14,0,0,1,.38.87,2,2,0,0,1-.55,1.41A46.49,46.49,0,0,1,122.09,99,49,49,0,0,1,87.31,84.78a49.14,49.14,0,0,1,0-69.42A48.83,48.83,0,0,1,122.09,1m0-1a50,50,0,1,0,0,100,47.67,47.67,0,0,0,33.75-13.47,2.64,2.64,0,0,0,.14-3.75l-8.61-8.89a2.41,2.41,0,0,0-1.7-.68,2.65,2.65,0,0,0-1.77.68,33.35,33.35,0,0,1-21.25,7.92c-17.78,0-31.11-14.73-31.11-32.09s13.19-32.36,31-32.36a32.85,32.85,0,0,1,21.39,8.2,2.58,2.58,0,0,0,1.79.83,2.22,2.22,0,0,0,1.68-.83l8.47-8.75a2.58,2.58,0,0,0-.14-3.89C146.26,4.44,136.12,0,122.09,0Z"/><path class="cls-1" d="M213.17,1a48.91,48.91,0,0,1,49,49.14,48.93,48.93,0,1,1-97.86,0,49,49,0,0,1,14.22-34.78A48.43,48.43,0,0,1,213.17,1m0,81.94a32.94,32.94,0,0,0,0-65.88A32.41,32.41,0,0,0,190,26.83a32.87,32.87,0,0,0,23.18,56.11m0-82.94a49.79,49.79,0,0,0-49.86,50.14,49.93,49.93,0,0,0,99.86,0A49.91,49.91,0,0,0,213.17,0Zm0,81.94a31.88,31.88,0,0,1-31.8-31.8c0-17.5,14.3-32.08,31.8-32.08a31.94,31.94,0,1,1,0,63.88Z"/><path class="cls-1" d="M305.26,1c14.31,0,25.15,7.58,27.18,9.11l0,0,0,0a2,2,0,0,1,.81,1.32,2.45,2.45,0,0,1-.3,1.85l-5.28,7.92a3.42,3.42,0,0,1-2.56,1.67,1.62,1.62,0,0,1-.93-.29l-1-.66c-5.56-3.51-11.32-7.14-18.8-7.14-9.13,0-13.22,5.39-13.22,10.73,0,6.78,4.93,11.55,17,16.48,14,5.65,28.4,13.68,28.4,30.46,0,12.85-10.84,26.5-30.94,26.5-17.62,0-26.54-7.69-29.93-10.61-1-.84-1.43-1.15-.46-2.89l5-8.61a2.1,2.1,0,0,1,1.89-1.11,2.23,2.23,0,0,1,1.36.43C289.69,80.86,296,85,305.12,85c7.65,0,13.64-5.14,13.64-11.7,0-7.15-5.46-12.41-18.26-17.59C289.56,51.32,275,43.49,275,26.67A24.75,24.75,0,0,1,282.07,9.4C287.49,3.9,295.51,1,305.26,1m0-1C283.18,0,274,14.31,274,26.67c0,16.39,13.06,24.72,26.11,30,11.67,4.72,17.64,9.58,17.64,16.66,0,6-5.41,10.7-12.64,10.7-9,0-15.27-4.31-21-8.61a3.18,3.18,0,0,0-2-.64,3.11,3.11,0,0,0-2.76,1.61l-5,8.61c-1.25,2.22-.69,3.06.69,4.17,4,3.47,13.06,10.83,30.56,10.83,19.58,0,31.94-13.19,31.94-27.5,0-17.92-15.55-26-29-31.39-11.25-4.58-16.39-9-16.39-15.55,0-5.28,4.3-9.73,12.22-9.73,7.64,0,13.33,3.89,19.3,7.64a2.64,2.64,0,0,0,1.47.45,4.43,4.43,0,0,0,3.4-2.11l5.27-7.92A3.43,3.43,0,0,0,333,9.31C330.26,7.22,319.43,0,305.26,0Z"/><path class="cls-1" d="M422.87,2.39a1.61,1.61,0,0,1,1.47.78,1.68,1.68,0,0,1-.09,1.7L392.19,51.1l-.18.25V96a1.73,1.73,0,0,1-1.64,1.64H377.59A1.64,1.64,0,0,1,376,96V51.5l-.17-.26L344.14,4.89a1.7,1.7,0,0,1-.1-1.72,1.61,1.61,0,0,1,1.47-.78h14.17a1.71,1.71,0,0,1,1.4.82L383.3,35.15l.82,1.18.82-1.18,22.2-31.91a1.73,1.73,0,0,1,1.43-.85h14.3m0-1h-14.3a2.76,2.76,0,0,0-2.23,1.25L384.12,34.58,361.9,2.64a2.75,2.75,0,0,0-2.22-1.25H345.51a2.57,2.57,0,0,0-2.22,4L375,51.81V96a2.64,2.64,0,0,0,2.64,2.64h12.78A2.73,2.73,0,0,0,393,96V51.67L425.09,5.42a2.57,2.57,0,0,0-2.22-4Z"/><path class="cls-1" d="M461.32,1c14.32,0,25.16,7.58,27.18,9.11l0,0,0,0a2,2,0,0,1,.81,1.32,2.36,2.36,0,0,1-.3,1.85l-5.27,7.92a3.46,3.46,0,0,1-2.57,1.67,1.62,1.62,0,0,1-.93-.29l-1-.66c-5.57-3.51-11.32-7.14-18.81-7.14-9.13,0-13.22,5.39-13.22,10.73,0,6.78,4.93,11.55,17,16.48,14.05,5.65,28.41,13.68,28.41,30.46,0,12.85-10.85,26.5-30.95,26.5-17.62,0-26.54-7.69-29.93-10.61-1-.84-1.43-1.15-.45-2.89l5-8.61a2.1,2.1,0,0,1,1.9-1.11,2.22,2.22,0,0,1,1.35.43C445.75,80.86,452,85,461.18,85c7.65,0,13.65-5.14,13.65-11.7,0-7.15-5.47-12.41-18.27-17.59-10.94-4.42-25.48-12.25-25.48-29.07A24.78,24.78,0,0,1,438.13,9.4C443.55,3.9,451.57,1,461.32,1m0-1c-22.08,0-31.24,14.31-31.24,26.67,0,16.39,13.05,24.72,26.11,30,11.66,4.72,17.64,9.58,17.64,16.66,0,6-5.42,10.7-12.65,10.7-9,0-15.27-4.31-21-8.61a3.15,3.15,0,0,0-1.95-.64,3.11,3.11,0,0,0-2.77,1.61l-5,8.61c-1.25,2.22-.69,3.06.7,4.17,4,3.47,13.05,10.83,30.55,10.83,19.59,0,31.95-13.19,31.95-27.5,0-17.92-15.56-26-29-31.39-11.25-4.58-16.39-9-16.39-15.55,0-5.28,4.3-9.73,12.22-9.73,7.64,0,13.34,3.89,19.31,7.64a2.58,2.58,0,0,0,1.46.45,4.41,4.41,0,0,0,3.4-2.11l5.28-7.92a3.44,3.44,0,0,0-.84-4.58C486.33,7.22,475.49,0,461.32,0Z"/><path class="cls-1" d="M565.15,2.39A1.64,1.64,0,0,1,566.79,4V15.42a1.64,1.64,0,0,1-1.64,1.64H542.9V96a1.72,1.72,0,0,1-1.63,1.64H528.35A1.73,1.73,0,0,1,526.71,96V17.06H504.46a1.65,1.65,0,0,1-1.64-1.64V4a1.64,1.64,0,0,1,1.64-1.64h60.69m0-1H504.46A2.64,2.64,0,0,0,501.82,4V15.42a2.64,2.64,0,0,0,2.64,2.64h21.25V96a2.73,2.73,0,0,0,2.64,2.64h12.92A2.73,2.73,0,0,0,543.9,96V18.06h21.25a2.64,2.64,0,0,0,2.64-2.64V4a2.64,2.64,0,0,0-2.64-2.64Z"/><path class="cls-1" d="M639.84,2.39A1.64,1.64,0,0,1,641.48,4V15.42a1.64,1.64,0,0,1-1.64,1.64H597.73V41.83H633a1.73,1.73,0,0,1,1.64,1.64V55A1.64,1.64,0,0,1,633,56.64H597.73v26.3h42.11a1.64,1.64,0,0,1,1.64,1.64V96a1.64,1.64,0,0,1-1.64,1.64H583.32A1.64,1.64,0,0,1,581.68,96V4a1.64,1.64,0,0,1,1.64-1.64h56.52m0-1H583.32A2.64,2.64,0,0,0,580.68,4V96a2.64,2.64,0,0,0,2.64,2.64h56.52A2.64,2.64,0,0,0,642.48,96V84.58a2.64,2.64,0,0,0-2.64-2.64H598.73V57.64H633A2.64,2.64,0,0,0,635.68,55V43.47A2.73,2.73,0,0,0,633,40.83H598.73V18.06h41.11a2.64,2.64,0,0,0,2.64-2.64V4a2.64,2.64,0,0,0-2.64-2.64Z"/><path class="cls-1" d="M743.88,1a1.37,1.37,0,0,1,1.52,1.26l16.39,93.37a1.75,1.75,0,0,1-.21,1.48,1.65,1.65,0,0,1-1.31.5H747.63A2,2,0,0,1,746,96.3l-8.18-52.56-.13-.85h-1.93l-.26.59L711.16,98.07l0,0v0a1.39,1.39,0,0,1-1.41.84h-2.5a1.47,1.47,0,0,1-1.45-.94L681.18,43.48l-.26-.59H679l-.13.85-8.06,52.65a1.7,1.7,0,0,1-1.51,1.22H656.8a1.75,1.75,0,0,1-1.33-.5,1.9,1.9,0,0,1-.32-1.52L671.67,2.26v0A1.34,1.34,0,0,1,673.19,1h2.22a1.55,1.55,0,0,1,1.46.81l30.55,65.56.27.57h1.69l.27-.57L740.19,1.84A1.4,1.4,0,0,1,741.66,1h2.22m0-1h-2.22a2.4,2.4,0,0,0-2.36,1.39L708.74,66.94h-.41L677.77,1.39A2.54,2.54,0,0,0,675.41,0h-2.22a2.34,2.34,0,0,0-2.5,2.08L654.16,95.42a2.54,2.54,0,0,0,2.64,3.19h12.5a2.69,2.69,0,0,0,2.5-2.08l8.05-52.64h.42l24.58,54.58a2.5,2.5,0,0,0,2.37,1.53h2.5a2.36,2.36,0,0,0,2.36-1.53l24.3-54.58h.42L745,96.53a3,3,0,0,0,2.64,2.08h12.64a2.41,2.41,0,0,0,2.5-3.19L746.38,2.08A2.34,2.34,0,0,0,743.88,0Z"/></g></g></svg>