<svg xmlns="http://www.w3.org/2000/svg" viewBox="0 0 426.23 61.5"><defs><style>.cls-1{fill:#231f20;}</style></defs><g id="Layer_2" data-name="Layer 2"><g id="Layer_1-2" data-name="Layer 1"><path class="cls-1" d="M355.19,61.5a30.78,30.78,0,0,1-21.83-8.92,30.84,30.84,0,0,1,0-43.57,30.65,30.65,0,0,1,21.83-9,29,29,0,0,1,20.67,7.94,1.8,1.8,0,0,1,.63,1.29,1.76,1.76,0,0,1-.54,1.31l-5.19,5.36a1.51,1.51,0,0,1-1.09.55h-.05a1.69,1.69,0,0,1-1.19-.55,20,20,0,0,0-13-5c-10.54,0-18.8,8.63-18.8,19.65a19.75,19.75,0,0,0,5.4,13.7,18.43,18.43,0,0,0,13.49,5.79,20.18,20.18,0,0,0,12.91-4.82,1.71,1.71,0,0,1,2.32,0L376,50.71a1.46,1.46,0,0,1,.49,1.06,2,2,0,0,1-.57,1.44A29.23,29.23,0,0,1,355.19,61.5Zm0-61.2a30.47,30.47,0,0,0-30.54,30.54,30.07,30.07,0,0,0,8.93,21.52,30.44,30.44,0,0,0,21.61,8.84A28.94,28.94,0,0,0,375.74,53a1.72,1.72,0,0,0,.48-1.22,1.21,1.21,0,0,0-.39-.86l-5.28-5.44a1.41,1.41,0,0,0-1.92,0,20.49,20.49,0,0,1-13.1,4.89,18.74,18.74,0,0,1-13.71-5.88,20.07,20.07,0,0,1-5.48-13.91c0-11.19,8.39-20,19.1-20a20.25,20.25,0,0,1,13.19,5.06,1.46,1.46,0,0,0,1,.47,1.2,1.2,0,0,0,.88-.46l5.19-5.36a1.48,1.48,0,0,0,.46-1.09,1.5,1.5,0,0,0-.53-1.07A28.72,28.72,0,0,0,355.19.3ZM255.4,61.5h-1.19a2,2,0,0,1-1.55-.64L217.9,22.54V58.89a1.77,1.77,0,0,1-1.77,1.76H208.4a1.8,1.8,0,0,1-1.77-1.76V1.68A1.75,1.75,0,0,1,208.4,0h1.27a2,2,0,0,1,1.55.64l34.59,36.88V2.62A1.77,1.77,0,0,1,247.58.85h7.82a1.82,1.82,0,0,1,1.77,1.77v57.2A1.75,1.75,0,0,1,255.4,61.5ZM217.6,22.19H218l.05,0,34.85,38.42a1.71,1.71,0,0,0,1.33.54h1.19a1.44,1.44,0,0,0,1.46-1.38V2.62a1.52,1.52,0,0,0-1.46-1.47h-7.82a1.46,1.46,0,0,0-1.46,1.47V37.87h-.39l0,0L211,.85A1.72,1.72,0,0,0,209.67.3H208.4a1.44,1.44,0,0,0-1.47,1.38V58.89a1.53,1.53,0,0,0,1.47,1.46h7.73a1.47,1.47,0,0,0,1.47-1.46ZM186.47,61.5h-1.19a2,2,0,0,1-1.55-.64L149,22.54V58.89a1.76,1.76,0,0,1-1.76,1.76h-7.74a1.8,1.8,0,0,1-1.76-1.76V1.68A1.75,1.75,0,0,1,139.46,0h1.28a2,2,0,0,1,1.55.64l34.59,36.88V2.62A1.77,1.77,0,0,1,178.65.85h7.82a1.81,1.81,0,0,1,1.76,1.77v57.2A1.75,1.75,0,0,1,186.47,61.5ZM148.66,22.19h.39l0,0,34.85,38.42a1.75,1.75,0,0,0,1.34.54h1.19a1.44,1.44,0,0,0,1.46-1.38V2.62a1.53,1.53,0,0,0-1.46-1.47h-7.82a1.47,1.47,0,0,0-1.47,1.47V37.87h-.38l-.05,0L142.07.85A1.7,1.7,0,0,0,140.74.3h-1.28A1.44,1.44,0,0,0,138,1.68V58.89a1.52,1.52,0,0,0,1.46,1.46h7.74a1.47,1.47,0,0,0,1.46-1.46ZM92,61.5A30.49,30.49,0,0,1,61.37,30.84,30.78,30.78,0,0,1,70.29,9a30.79,30.79,0,0,1,43.53,0,30.73,30.73,0,0,1,9,21.83A30.56,30.56,0,0,1,92,61.5ZM92,.3A30.1,30.1,0,0,0,70.51,9.22a30.48,30.48,0,0,0-8.84,21.62,30.41,30.41,0,1,0,60.81,0A30.39,30.39,0,0,0,92,.3ZM30.83,61.5A30.78,30.78,0,0,1,9,52.58,30.84,30.84,0,0,1,9,9,30.64,30.64,0,0,1,30.83,0,29,29,0,0,1,51.5,7.94a1.73,1.73,0,0,1,.1,2.6L46.41,15.9a1.51,1.51,0,0,1-1.09.55h0a1.73,1.73,0,0,1-1.2-.55,19.92,19.92,0,0,0-13-5c-10.55,0-18.81,8.63-18.81,19.65a19.79,19.79,0,0,0,5.4,13.7,18.46,18.46,0,0,0,13.49,5.79,20.18,20.18,0,0,0,12.92-4.82,1.71,1.71,0,0,1,2.32,0l5.27,5.45a1.41,1.41,0,0,1,.48,1.06,2,2,0,0,1-.56,1.44A29.24,29.24,0,0,1,30.83,61.5Zm0-61.2A30.46,30.46,0,0,0,.3,30.84,30.1,30.1,0,0,0,9.22,52.36,30.47,30.47,0,0,0,30.83,61.2,29,29,0,0,0,51.39,53a1.71,1.71,0,0,0,.47-1.22,1.16,1.16,0,0,0-.38-.86L46.2,45.48a1.41,1.41,0,0,0-1.92,0,20.5,20.5,0,0,1-13.11,4.89,18.73,18.73,0,0,1-13.7-5.88A20.08,20.08,0,0,1,12,30.58c0-11.19,8.4-20,19.11-20a20.27,20.27,0,0,1,13.19,5.06,1.46,1.46,0,0,0,1,.47,1.22,1.22,0,0,0,.88-.46l5.19-5.36a1.48,1.48,0,0,0,.46-1.09,1.5,1.5,0,0,0-.53-1.07A28.72,28.72,0,0,0,30.83.3Zm379,60.35h-7.91a1.81,1.81,0,0,1-1.76-1.76V11.35H387.32a1.76,1.76,0,0,1-1.77-1.76v-7A1.77,1.77,0,0,1,387.32.85h37.14a1.77,1.77,0,0,1,1.77,1.77v7a1.77,1.77,0,0,1-1.77,1.76H411.61V58.89A1.81,1.81,0,0,1,409.84,60.65ZM387.32,1.15a1.47,1.47,0,0,0-1.47,1.47v7a1.47,1.47,0,0,0,1.47,1.46h13.15V58.89a1.52,1.52,0,0,0,1.46,1.46h7.91a1.52,1.52,0,0,0,1.46-1.46V11.05h13.16a1.46,1.46,0,0,0,1.46-1.46v-7a1.46,1.46,0,0,0-1.46-1.47Zm-75.4,59.5H277.33a1.76,1.76,0,0,1-1.77-1.76V2.62A1.77,1.77,0,0,1,277.33.85h34.59a1.77,1.77,0,0,1,1.77,1.77v7a1.76,1.76,0,0,1-1.77,1.76h-25V25h20.85a1.81,1.81,0,0,1,1.76,1.77v7.05a1.77,1.77,0,0,1-1.76,1.77H286.91V50.15h25a1.77,1.77,0,0,1,1.77,1.77v7A1.76,1.76,0,0,1,311.92,60.65ZM277.33,1.15a1.47,1.47,0,0,0-1.47,1.47V58.89a1.47,1.47,0,0,0,1.47,1.46h34.59a1.47,1.47,0,0,0,1.47-1.46v-7a1.47,1.47,0,0,0-1.47-1.47H286.61V35.28h21.15a1.46,1.46,0,0,0,1.46-1.47v-7a1.53,1.53,0,0,0-1.46-1.47H286.61V11.05h25.31a1.47,1.47,0,0,0,1.47-1.46v-7a1.47,1.47,0,0,0-1.47-1.47ZM92,50.45a19.62,19.62,0,1,1,19.7-19.61A19.64,19.64,0,0,1,92,50.45Zm0-39.1a19.58,19.58,0,1,0,13.69,5.76A19.17,19.17,0,0,0,92,11.35Z"/></g></g></svg>