<svg xmlns="http://www.w3.org/2000/svg" viewBox="0 0 65.69 65.69"><defs><style>.cls-1{fill:#e5243b;}.cls-2{fill:#fff;}.cls-3{fill:none;stroke:#fff;stroke-linecap:round;stroke-miterlimit:10;stroke-width:0.53px;}</style></defs><g id="Layer_2" data-name="Layer 2"><g id="OUTLINE"><rect class="cls-1" width="65.69" height="65.69"/><polygon class="cls-2" points="9.17 8.64 9.19 8.64 9.19 18.78 11.42 18.78 11.42 5.53 9.64 5.53 7.59 7.94 7.59 10.26 7.61 10.26 9.17 8.64"/><path class="cls-2" d="M50.59,31.34a1.82,1.82,0,1,1,1.82,1.82,1.81,1.81,0,0,1-1.82-1.82"/><path class="cls-2" d="M54.53,33.86a2.42,2.42,0,0,1,2.2,2.41v5a.7.7,0,0,1-.7.7.71.71,0,0,1-.71-.7V37c0-.17,0-.39-.34-.39s-.25.22-.26.36v13a1,1,0,0,1-2,0V42.46a.28.28,0,0,0-.29-.3h0a.29.29,0,0,0-.3.3v7.48a1,1,0,0,1-2,0V37c0-.14-.05-.36-.26-.36s-.34.22-.34.39v4.33a.71.71,0,0,1-1.41,0v-5a2.42,2.42,0,0,1,2.21-2.41h4.24"/><path class="cls-2" d="M39.77,32.29A1.72,1.72,0,1,0,38.05,34a1.71,1.71,0,0,0,1.72-1.73"/><path class="cls-2" d="M34.58,36.2l-1.43,4.66s-.25.85.47,1.06.94-.62.94-.62l1.16-3.89s.06-.3.28-.23.14.38.14.38l-2,7.29H36v5.22a.9.9,0,0,0,1.8,0V44.85h.51v5.22a.9.9,0,1,0,1.79,0V44.85H42l-2-7.29s-.08-.32.14-.38.29.23.29.23l1.15,3.89s.22.84.94.62.47-1.06.47-1.06L41.52,36.2s-.51-1.35-1.64-1.35H36.23c-1.13,0-1.65,1.35-1.65,1.35"/><path class="cls-2" d="M29.46,32.29A1.72,1.72,0,1,0,27.74,34a1.72,1.72,0,0,0,1.72-1.73"/><path class="cls-2" d="M24.27,36.2l-1.43,4.66s-.26.85.47,1.06.94-.62.94-.62l1.15-3.89s.06-.3.29-.23.14.38.14.38l-2,7.29h1.87v5.22a.9.9,0,1,0,1.79,0V44.85H28v5.22a.9.9,0,1,0,1.8,0V44.85h1.87l-2-7.29s-.09-.32.14-.38.29.23.29.23l1.15,3.89s.22.84.94.62.47-1.06.47-1.06L31.21,36.2s-.51-1.35-1.65-1.35H25.91c-1.13,0-1.64,1.35-1.64,1.35"/><path class="cls-2" d="M45.56,41.93a1.43,1.43,0,1,0-1.44-1.43,1.43,1.43,0,0,0,1.44,1.43"/><path class="cls-2" d="M42.12,46.38a.5.5,0,0,0,.21.68.48.48,0,0,0,.61-.2l.78-2.48s.14-.17.14,0v5.85h0a.74.74,0,1,0,1.47,0V47.92s0-.32.22-.32.23.32.23.32v2.31a.74.74,0,1,0,1.47,0V44.38c0-.17.09-.05.09-.05L48,46a4.08,4.08,0,0,0,.35.79A.54.54,0,0,0,49,46h0c0-.06-.92-2.25-1-2.56a1.29,1.29,0,0,0-1.48-1c-.57,0-.91,0-.91,0s-.36,0-1.11,0-1,.4-1.8,2.52c-.12.31-.52,1.29-.52,1.35Z"/><path class="cls-2" d="M14.08,31.34a1.82,1.82,0,1,0-1.82,1.82,1.81,1.81,0,0,0,1.82-1.82"/><path class="cls-2" d="M10.14,33.86a2.42,2.42,0,0,0-2.2,2.41v5a.7.7,0,0,0,.7.7.71.71,0,0,0,.71-.7V37c0-.17,0-.39.34-.39s.25.22.26.36v13a1,1,0,0,0,2,0V42.46a.28.28,0,0,1,.29-.3h0a.28.28,0,0,1,.29.3v7.48a1,1,0,0,0,2,0V37c0-.14.05-.36.25-.36s.35.22.35.39v4.33a.7.7,0,0,0,.7.7.71.71,0,0,0,.71-.7v-5a2.42,2.42,0,0,0-2.21-2.41H10.14"/><line class="cls-3" x1="8.55" y1="42.05" x2="6.94" y2="50.61"/><path class="cls-2" d="M17.45,41.18a.5.5,0,0,0-.44-.24.52.52,0,0,0-.52.52,1,1,0,0,0,.05.23L18,44.3a.92.92,0,0,1,.09.35v5.61h0a.71.71,0,1,0,1.42,0V48.05s0-.32.21-.32.21.32.21.32v2.21a.71.71,0,1,0,1.42,0V44.65a1,1,0,0,1,.08-.35l1.34-2.41a2.48,2.48,0,0,0,.16-.43.52.52,0,0,0-.52-.52.5.5,0,0,0-.44.24h0s-.71,1.23-.93,1.45a.6.6,0,0,1-.44.21H18.83a.6.6,0,0,1-.44-.21,17,17,0,0,1-.93-1.45Z"/><path class="cls-2" d="M19.7,41.93a1.43,1.43,0,1,0-1.43-1.43,1.43,1.43,0,0,0,1.43,1.43"/><polygon class="cls-2" points="19.7 43.94 21.32 45.13 22.09 47.96 19.7 47.96 17.31 47.96 18.08 45.13 19.7 43.94"/><path class="cls-2" d="M19.58,7.4v3.48h-.79V5.35h.92l1,3.17V5.35h.78v5.53h-.82Z"/><path class="cls-2" d="M22,9.45V6.78a1.41,1.41,0,1,1,2.81,0V9.45a1.41,1.41,0,1,1-2.81,0Zm1.88.15v-3c0-.34-.14-.57-.48-.57s-.47.23-.47.57v3c0,.34.14.57.47.57S23.9,9.94,23.9,9.6Z"/><path class="cls-2" d="M18.79,13.1h1.38c.94,0,1.28.47,1.28,1.24v1.17c0,.78-.34,1.25-1.28,1.25h-.45v1.88h-.93Zm.93.76V16h.35a.39.39,0,0,0,.45-.45V14.31a.39.39,0,0,0-.45-.45Z"/><path class="cls-2" d="M21.94,17.21V14.53a1.41,1.41,0,1,1,2.81,0v2.68a1.41,1.41,0,1,1-2.81,0Zm1.88.15v-3c0-.33-.15-.57-.48-.57s-.47.24-.47.57v3c0,.33.14.57.47.57S23.82,17.69,23.82,17.36Z"/><path class="cls-2" d="M28.1,13.1l-1.05,5.54H26L25,13.1h.95L26.56,17h0l.66-3.87Z"/><path class="cls-2" d="M28.48,13.1H30.7v.76H29.41v1.59h.93v.75h-.93v1.68H30.7v.76H28.48Z"/><path class="cls-2" d="M32.13,16.1v2.54H31.2V13.1h1.36c.94,0,1.28.47,1.28,1.24v.71c0,.6-.21.95-.74,1.07L34,18.64H33Zm0-2.24v1.73h.31a.41.41,0,0,0,.46-.46v-.82c0-.3-.14-.45-.46-.45Z"/><path class="cls-2" d="M34.16,13.1h2.47v.76h-.77v4.78h-.94V13.86h-.76Z"/><path class="cls-2" d="M38.88,16.53v2.11H38V16.53l-1-3.43h1l.56,2.1h0L39,13.1h.9Z"/><polygon class="cls-2" points="9.17 8.64 9.19 8.64 9.19 18.78 11.42 18.78 11.42 5.53 9.64 5.53 7.59 7.94 7.59 10.26 7.61 10.26 9.17 8.64"/><path class="cls-2" d="M50.59,31.34a1.82,1.82,0,1,1,1.82,1.82,1.81,1.81,0,0,1-1.82-1.82"/><path class="cls-2" d="M54.53,33.86a2.42,2.42,0,0,1,2.2,2.41v5a.7.7,0,0,1-.7.7.71.71,0,0,1-.71-.7V37c0-.17,0-.39-.34-.39s-.25.22-.26.36v13a1,1,0,0,1-2,0V42.46a.28.28,0,0,0-.29-.3h0a.29.29,0,0,0-.3.3v7.48a1,1,0,0,1-2,0V37c0-.14-.05-.36-.26-.36s-.34.22-.34.39v4.33a.71.71,0,0,1-1.41,0v-5a2.42,2.42,0,0,1,2.21-2.41h4.24"/><path class="cls-2" d="M39.77,32.29A1.72,1.72,0,1,0,38.05,34a1.71,1.71,0,0,0,1.72-1.73"/><path class="cls-2" d="M34.58,36.2l-1.43,4.66s-.25.85.47,1.06.94-.62.94-.62l1.16-3.89s.06-.3.28-.23.14.38.14.38l-2,7.29H36v5.22a.9.9,0,0,0,1.8,0V44.85h.51v5.22a.9.9,0,1,0,1.79,0V44.85H42l-2-7.29s-.08-.32.14-.38.29.23.29.23l1.15,3.89s.22.84.94.62.47-1.06.47-1.06L41.52,36.2s-.51-1.35-1.64-1.35H36.23c-1.13,0-1.65,1.35-1.65,1.35"/><path class="cls-2" d="M29.46,32.29A1.72,1.72,0,1,0,27.74,34a1.72,1.72,0,0,0,1.72-1.73"/><path class="cls-2" d="M24.27,36.2l-1.43,4.66s-.26.85.47,1.06.94-.62.94-.62l1.15-3.89s.06-.3.29-.23.14.38.14.38l-2,7.29h1.87v5.22a.9.9,0,1,0,1.79,0V44.85H28v5.22a.9.9,0,1,0,1.8,0V44.85h1.87l-2-7.29s-.09-.32.14-.38.29.23.29.23l1.15,3.89s.22.84.94.62.47-1.06.47-1.06L31.21,36.2s-.51-1.35-1.65-1.35H25.91c-1.13,0-1.64,1.35-1.64,1.35"/><path class="cls-2" d="M45.56,41.93a1.43,1.43,0,1,0-1.44-1.43,1.43,1.43,0,0,0,1.44,1.43"/><path class="cls-2" d="M42.12,46.38a.5.5,0,0,0,.21.68.48.48,0,0,0,.61-.2l.78-2.48s.14-.17.14,0v5.85h0a.74.74,0,1,0,1.47,0V47.92s0-.32.22-.32.23.32.23.32v2.31a.74.74,0,1,0,1.47,0V44.38c0-.17.09-.05.09-.05L48,46a4.08,4.08,0,0,0,.35.79A.54.54,0,0,0,49,46h0c0-.06-.92-2.25-1-2.56a1.29,1.29,0,0,0-1.48-1c-.57,0-.91,0-.91,0s-.36,0-1.11,0-1,.4-1.8,2.52c-.12.31-.52,1.29-.52,1.35Z"/><path class="cls-2" d="M14.08,31.34a1.82,1.82,0,1,0-1.82,1.82,1.81,1.81,0,0,0,1.82-1.82"/><path class="cls-2" d="M10.14,33.86a2.42,2.42,0,0,0-2.2,2.41v5a.7.7,0,0,0,.7.7.71.71,0,0,0,.71-.7V37c0-.17,0-.39.34-.39s.25.22.26.36v13a1,1,0,0,0,2,0V42.46a.28.28,0,0,1,.29-.3h0a.28.28,0,0,1,.29.3v7.48a1,1,0,0,0,2,0V37c0-.14.05-.36.25-.36s.35.22.35.39v4.33a.7.7,0,0,0,.7.7.71.71,0,0,0,.71-.7v-5a2.42,2.42,0,0,0-2.21-2.41H10.14"/><line class="cls-3" x1="8.55" y1="42.05" x2="6.94" y2="50.61"/><path class="cls-2" d="M17.45,41.18a.5.5,0,0,0-.44-.24.52.52,0,0,0-.52.52,1,1,0,0,0,.05.23L18,44.3a.92.92,0,0,1,.09.35v5.61h0a.71.71,0,1,0,1.42,0V48.05s0-.32.21-.32.21.32.21.32v2.21a.71.71,0,1,0,1.42,0V44.65a1,1,0,0,1,.08-.35l1.34-2.41a2.48,2.48,0,0,0,.16-.43.52.52,0,0,0-.52-.52.5.5,0,0,0-.44.24h0s-.71,1.23-.93,1.45a.6.6,0,0,1-.44.21H18.83a.6.6,0,0,1-.44-.21,17,17,0,0,1-.93-1.45Z"/><path class="cls-2" d="M19.7,41.93a1.43,1.43,0,1,0-1.43-1.43,1.43,1.43,0,0,0,1.43,1.43"/><polygon class="cls-2" points="19.7 43.94 21.32 45.13 22.09 47.96 19.7 47.96 17.31 47.96 18.08 45.13 19.7 43.94"/><path class="cls-2" d="M19.58,7.4v3.48h-.79V5.35h.92l1,3.17V5.35h.78v5.53h-.82Z"/><path class="cls-2" d="M22,9.45V6.78a1.41,1.41,0,1,1,2.81,0V9.45a1.41,1.41,0,1,1-2.81,0Zm1.88.15v-3c0-.34-.14-.57-.48-.57s-.47.23-.47.57v3c0,.34.14.57.47.57S23.9,9.94,23.9,9.6Z"/><path class="cls-2" d="M18.79,13.1h1.38c.94,0,1.28.47,1.28,1.24v1.17c0,.78-.34,1.25-1.28,1.25h-.45v1.88h-.93Zm.93.76V16h.35a.39.39,0,0,0,.45-.45V14.31a.39.39,0,0,0-.45-.45Z"/><path class="cls-2" d="M21.94,17.21V14.53a1.41,1.41,0,1,1,2.81,0v2.68a1.41,1.41,0,1,1-2.81,0Zm1.88.15v-3c0-.33-.15-.57-.48-.57s-.47.24-.47.57v3c0,.33.14.57.47.57S23.82,17.69,23.82,17.36Z"/><path class="cls-2" d="M28.1,13.1l-1.05,5.54H26L25,13.1h.95L26.56,17h0l.66-3.87Z"/><path class="cls-2" d="M28.48,13.1H30.7v.76H29.41v1.59h.93v.75h-.93v1.68H30.7v.76H28.48Z"/><path class="cls-2" d="M32.13,16.1v2.54H31.2V13.1h1.36c.94,0,1.28.47,1.28,1.24v.71c0,.6-.21.95-.74,1.07L34,18.64H33Zm0-2.24v1.73h.31a.41.41,0,0,0,.46-.46v-.82c0-.3-.14-.45-.46-.45Z"/><path class="cls-2" d="M34.16,13.1h2.47v.76h-.77v4.78h-.94V13.86h-.76Z"/><path class="cls-2" d="M38.88,16.53v2.11H38V16.53l-1-3.43h1l.56,2.1h0L39,13.1h.89Z"/></g></g></svg>