<svg xmlns="http://www.w3.org/2000/svg" viewBox="0 0 65.69 65.69"><defs><style>.cls-1{fill:#fd9d24;}.cls-2{fill:#fff;}</style></defs><g id="Layer_2" data-name="Layer 2"><g id="OUTLINE"><rect class="cls-1" width="65.69" height="65.69"/><polygon class="cls-2" points="4.71 7.91 4.71 10.23 4.73 10.23 6.29 8.61 6.31 8.61 6.31 18.75 8.54 18.75 8.54 5.5 6.76 5.5 4.71 7.91"/><polygon class="cls-2" points="9.79 7.91 9.79 10.23 9.8 10.23 11.37 8.61 11.39 8.61 11.39 18.75 13.62 18.75 13.62 5.5 11.84 5.5 9.79 7.91"/><path class="cls-2" d="M11.3,50h9.88a.24.24,0,0,0,.24-.24.25.25,0,0,0-.06-.17h0l-4.92-6.36-.05,0a.23.23,0,0,0-.18-.08.25.25,0,0,0-.16.06l0,0,0,.06-4.8,6.29-.07.09a.23.23,0,0,0,0,.14A.24.24,0,0,0,11.3,50Z"/><path class="cls-2" d="M21.15,50.91h-9.9a.24.24,0,0,0-.24.24V58.9a.24.24,0,0,0,.24.24h3.19V54.26a.24.24,0,0,1,.24-.24h3a.24.24,0,0,1,.24.24v4.88h3.27a.24.24,0,0,0,.24-.24V51.15A.23.23,0,0,0,21.15,50.91Z"/><path class="cls-2" d="M55.37,48.88h-9.8a.23.23,0,0,0-.24.23V59a.24.24,0,0,0,.24.24h9.8a.24.24,0,0,0,.24-.24V49.11a.23.23,0,0,0-.24-.23M50,55.34a.23.23,0,0,1-.24.23H46.84a.23.23,0,0,1-.24-.23V53.56a.24.24,0,0,1,.24-.24h2.93a.24.24,0,0,1,.24.24Zm0-3.29a.23.23,0,0,1-.24.23H46.84a.23.23,0,0,1-.24-.23V50.27a.23.23,0,0,1,.24-.23h2.93a.23.23,0,0,1,.24.23Zm4.47,3.29a.23.23,0,0,1-.24.23H51.31a.23.23,0,0,1-.24-.23V53.56a.24.24,0,0,1,.24-.24h2.93a.24.24,0,0,1,.24.24Zm0-3.29a.23.23,0,0,1-.24.23H51.31a.23.23,0,0,1-.24-.23V50.27a.23.23,0,0,1,.24-.23h2.93a.23.23,0,0,1,.24.23Z"/><path class="cls-2" d="M32.59,25.91H23a.23.23,0,0,0-.23.24V58.92a.23.23,0,0,0,.23.23h9.59a.23.23,0,0,0,.24-.23V26.15a.24.24,0,0,0-.24-.24m-5.7,29.51a.12.12,0,0,1-.13.12h-2.2a.12.12,0,0,1-.12-.12V53a.12.12,0,0,1,.12-.12h2.2a.12.12,0,0,1,.13.12Zm0-5.62a.12.12,0,0,1-.13.12h-2.2a.12.12,0,0,1-.12-.12V47.35a.12.12,0,0,1,.12-.12h2.2a.12.12,0,0,1,.13.12Zm0-5.62a.13.13,0,0,1-.13.13h-2.2a.12.12,0,0,1-.12-.13V41.73a.12.12,0,0,1,.12-.12h2.2a.12.12,0,0,1,.13.12Zm0-5.62a.13.13,0,0,1-.13.13h-2.2a.12.12,0,0,1-.12-.13V36.11a.12.12,0,0,1,.12-.12h2.2a.12.12,0,0,1,.13.12Zm0-5.62a.13.13,0,0,1-.13.13h-2.2a.12.12,0,0,1-.12-.13V30.49a.12.12,0,0,1,.12-.12h2.2a.12.12,0,0,1,.13.12Zm4.3,22.48a.12.12,0,0,1-.12.12h-2.2a.12.12,0,0,1-.13-.12V53a.12.12,0,0,1,.13-.12h2.2a.12.12,0,0,1,.12.12Zm0-5.62a.12.12,0,0,1-.12.12h-2.2a.12.12,0,0,1-.13-.12V47.35a.12.12,0,0,1,.13-.12h2.2a.12.12,0,0,1,.12.12Zm0-5.62a.12.12,0,0,1-.12.13h-2.2a.13.13,0,0,1-.13-.13V41.73a.12.12,0,0,1,.13-.12h2.2a.12.12,0,0,1,.12.12Zm0-5.62a.12.12,0,0,1-.12.13h-2.2a.13.13,0,0,1-.13-.13V36.11a.12.12,0,0,1,.13-.12h2.2a.12.12,0,0,1,.12.12Zm0-5.62a.12.12,0,0,1-.12.13h-2.2a.13.13,0,0,1-.13-.13V30.49a.12.12,0,0,1,.13-.12h2.2a.12.12,0,0,1,.12.12Z"/><rect class="cls-2" x="45.34" y="45.71" width="10.26" height="2.37" rx="0.2"/><path class="cls-2" d="M44.17,32.1a.24.24,0,0,0-.24-.18.2.2,0,0,0-.13,0h0l-.08.1L34.27,44l0,.06a.25.25,0,0,0-.08.18V59a.23.23,0,0,0,.23.23H44A.23.23,0,0,0,44.2,59V32.2A.17.17,0,0,0,44.17,32.1Zm-4,6.49.06-.08c.65-.83,1.73-2.17,2.26-2.82l.07-.08a.28.28,0,0,1,.21-.1.27.27,0,0,1,.27.22v3a.27.27,0,0,1-.26.27H40.41a.27.27,0,0,1-.26-.27A.25.25,0,0,1,40.21,38.59Zm-1.5,16.74a.23.23,0,0,1-.23.24H35.62a.23.23,0,0,1-.23-.24V53.55a.23.23,0,0,1,.23-.24h2.86a.23.23,0,0,1,.23.24Zm0-3.3a.23.23,0,0,1-.23.23H35.62a.23.23,0,0,1-.23-.23V50.24a.23.23,0,0,1,.23-.23h2.86a.23.23,0,0,1,.23.23Zm0-3.31a.23.23,0,0,1-.23.24H35.62a.23.23,0,0,1-.23-.24V46.93a.23.23,0,0,1,.23-.23h2.86a.23.23,0,0,1,.23.23Zm0-7.24v3.94a.23.23,0,0,1-.23.24H35.63a.24.24,0,0,1-.24-.24v-.49a.64.64,0,0,1,0-.09l0,0s0,0,0,0l0,0c.37-.52,2-2.55,2.71-3.4l.07-.09a.27.27,0,0,1,.21-.09.26.26,0,0,1,.26.21Zm4.36,13.85a.23.23,0,0,1-.23.24H40a.23.23,0,0,1-.23-.24V53.55a.23.23,0,0,1,.23-.24h2.86a.23.23,0,0,1,.23.24Zm0-3.3a.23.23,0,0,1-.23.23H40a.23.23,0,0,1-.23-.23V50.24A.23.23,0,0,1,40,50h2.86a.23.23,0,0,1,.23.23Zm0-3.31a.23.23,0,0,1-.23.24H40a.23.23,0,0,1-.23-.24V46.93A.23.23,0,0,1,40,46.7h2.86a.23.23,0,0,1,.23.23Zm0-3.3a.23.23,0,0,1-.23.23H40a.23.23,0,0,1-.23-.23V43.63a.23.23,0,0,1,.23-.24h2.86a.23.23,0,0,1,.23.24Zm0-3.31a.23.23,0,0,1-.23.24H40a.23.23,0,0,1-.23-.24V40.32a.23.23,0,0,1,.23-.23h2.86a.23.23,0,0,1,.23.23Z"/><path class="cls-2" d="M18.2,9.86V9.12h.87v.76c0,.31.14.49.46.49s.42-.2.42-.49V9.67a1,1,0,0,0-.41-.79L19,8.33a1.87,1.87,0,0,1-.78-1.47V6.67a1.16,1.16,0,0,1,1.31-1.22c.93,0,1.3.46,1.3,1.26v.45H20V6.68c0-.32-.15-.48-.44-.48a.41.41,0,0,0-.44.46v.12c0,.31.17.49.44.75l.59.58a1.86,1.86,0,0,1,.75,1.44v.27a1.19,1.19,0,0,1-1.35,1.3A1.16,1.16,0,0,1,18.2,9.86Z"/><path class="cls-2" d="M24,5.52V9.71c0,.85-.37,1.41-1.32,1.41a1.25,1.25,0,0,1-1.39-1.41V5.52h.94V9.8c0,.32.13.54.45.54s.46-.22.46-.54V5.52Z"/><path class="cls-2" d="M24.37,9.86V9.12h.86v.76c0,.31.14.49.46.49s.43-.2.43-.49V9.67a1,1,0,0,0-.42-.79l-.55-.55a1.85,1.85,0,0,1-.77-1.47V6.67a1.15,1.15,0,0,1,1.3-1.22c.93,0,1.3.46,1.3,1.26v.45h-.85V6.68c0-.32-.14-.48-.44-.48a.41.41,0,0,0-.44.46v.12c0,.31.17.49.44.75l.6.58A1.89,1.89,0,0,1,27,9.55v.27a1.2,1.2,0,0,1-1.36,1.3A1.15,1.15,0,0,1,24.37,9.86Z"/><path class="cls-2" d="M27.21,5.52h2.47v.76h-.76v4.77H28V6.28h-.77Z"/><path class="cls-2" d="M29.47,11.05l1.05-5.53h1.06l1.05,5.53h-1l-.18-1h-1l-.17,1ZM30.64,9.3h.74L31,7.08h0Z"/><path class="cls-2" d="M32.92,5.52h.94v5.53h-.94Z"/><path class="cls-2" d="M35.09,7.58v3.47H34.3V5.52h.92l1,3.17V5.52H37v5.53h-.82Z"/><path class="cls-2" d="M37.29,11.05l1.05-5.53H39.4l1.05,5.53h-1l-.18-1h-1l-.17,1ZM38.46,9.3h.74l-.37-2.22h0Z"/><path class="cls-2" d="M40.74,5.52h1.35c.93,0,1.24.43,1.24,1.21V7.3a.81.81,0,0,1-.55.88.84.84,0,0,1,.69.92v.74c0,.78-.35,1.21-1.28,1.21H40.74Zm.94,2.33H42c.3,0,.44-.15.44-.45V6.73c0-.31-.14-.45-.45-.45h-.31Zm0,.71v1.73h.4c.31,0,.46-.15.46-.44V9a.4.4,0,0,0-.46-.45Z"/><path class="cls-2" d="M43.85,5.52h.93v4.77h1.11v.76h-2Z"/><path class="cls-2" d="M46.22,5.52h2.22v.76H47.15V7.86h.93v.75h-.93v1.68h1.29v.76H46.22Z"/><path class="cls-2" d="M49.62,9.63V7c0-.87.41-1.5,1.39-1.5s1.31.57,1.31,1.39v.65h-.85V6.77c0-.35-.11-.54-.45-.54s-.47.24-.47.57v3c0,.34.14.57.47.57s.45-.21.45-.54v-1h.85v1c0,.79-.33,1.38-1.31,1.38A1.31,1.31,0,0,1,49.62,9.63Z"/><path class="cls-2" d="M52.74,5.52h.93v5.53h-.93Z"/><path class="cls-2" d="M54,5.52h2.47v.76h-.76v4.77h-.94V6.28H54Z"/><path class="cls-2" d="M56.83,5.52h.93v5.53h-.93Z"/><path class="cls-2" d="M58.21,5.52h2.22v.76H59.14V7.86h.92v.75h-.92v1.68h1.29v.76H58.21Z"/><path class="cls-2" d="M60.75,9.86V9.12h.86v.76c0,.31.14.49.46.49s.42-.2.42-.49V9.67a1,1,0,0,0-.41-.79l-.55-.55a1.87,1.87,0,0,1-.78-1.47V6.67a1.16,1.16,0,0,1,1.31-1.22c.93,0,1.3.46,1.3,1.26v.45h-.85V6.68c0-.32-.15-.48-.44-.48a.41.41,0,0,0-.44.46v.12c0,.31.17.49.44.75l.59.58a1.88,1.88,0,0,1,.76,1.44v.27a1.2,1.2,0,0,1-1.36,1.3A1.15,1.15,0,0,1,60.75,9.86Z"/><path class="cls-2" d="M18.11,18.81l1-5.54h1.06l1.06,5.54h-1l-.17-1h-1l-.16,1Zm1.16-1.76H20l-.37-2.22h0Z"/><path class="cls-2" d="M22.34,15.33v3.48h-.78V13.27h.91l1,3.18V13.27h.77v5.54h-.81Z"/><path class="cls-2" d="M27.48,14.76v2.56c0,.85-.35,1.49-1.35,1.49H24.69V13.27h1.44C27.13,13.27,27.48,13.9,27.48,14.76ZM26,18.05c.38,0,.53-.23.53-.56v-2.9c0-.33-.15-.56-.53-.56h-.39v4Z"/><path class="cls-2" d="M28.69,17.38V14.7a1.3,1.3,0,0,1,1.38-1.49c1,0,1.32.57,1.32,1.39v.65h-.85v-.73c0-.34-.11-.54-.45-.54s-.47.24-.47.58v3c0,.33.14.57.47.57s.45-.21.45-.54v-1h.85v1c0,.79-.33,1.38-1.32,1.38A1.31,1.31,0,0,1,28.69,17.38Z"/><path class="cls-2" d="M31.81,17.38V14.7a1.41,1.41,0,1,1,2.81,0v2.68a1.41,1.41,0,1,1-2.81,0Zm1.88.15v-3c0-.34-.15-.58-.48-.58s-.47.24-.47.58v3c0,.33.14.57.47.57S33.69,17.86,33.69,17.53Z"/><path class="cls-2" d="M37.63,15.22h0L37,18.81h-.43l-.69-3.59h0v3.59h-.77V13.27h1.09l.6,3.12h0l.54-3.12h1.18v5.54h-.85Z"/><path class="cls-2" d="M41.48,15.22h0l-.63,3.59h-.44l-.69-3.59h0v3.59h-.76V13.27H40l.61,3.12h0l.54-3.12h1.18v5.54h-.85Z"/><path class="cls-2" d="M45.47,13.27v4.19c0,.86-.37,1.42-1.31,1.42a1.25,1.25,0,0,1-1.39-1.42V13.27h.93v4.28c0,.33.13.55.46.55s.45-.22.45-.55V13.27Z"/><path class="cls-2" d="M46.7,15.33v3.48h-.79V13.27h.92l1,3.18V13.27h.78v5.54h-.82Z"/><path class="cls-2" d="M49.05,13.27H50v5.54h-.93Z"/><path class="cls-2" d="M50.32,13.27h2.47V14H52v4.78h-.94V14h-.77Z"/><path class="cls-2" d="M53.14,13.27h.93v5.54h-.93Z"/><path class="cls-2" d="M54.52,13.27h2.22V14H55.45v1.59h.92v.75h-.92v1.68h1.29v.76H54.52Z"/><path class="cls-2" d="M57.06,17.62v-.75h.86v.76c0,.31.14.49.46.49s.42-.19.42-.49v-.21a1,1,0,0,0-.41-.78l-.55-.55a1.87,1.87,0,0,1-.78-1.48v-.19a1.15,1.15,0,0,1,1.31-1.21c.93,0,1.3.46,1.3,1.26v.44h-.85v-.48c0-.32-.15-.47-.44-.47a.41.41,0,0,0-.44.46v.11c0,.31.17.49.44.75l.59.59a1.85,1.85,0,0,1,.76,1.44v.27a1.2,1.2,0,0,1-1.36,1.3A1.15,1.15,0,0,1,57.06,17.62Z"/><polygon class="cls-2" points="4.71 7.91 4.71 10.23 4.73 10.23 6.29 8.61 6.31 8.61 6.31 18.75 8.54 18.75 8.54 5.5 6.76 5.5 4.71 7.91"/><polygon class="cls-2" points="9.79 7.91 9.79 10.23 9.8 10.23 11.37 8.61 11.39 8.61 11.39 18.75 13.62 18.75 13.62 5.5 11.84 5.5 9.79 7.91"/><path class="cls-2" d="M11.3,50h9.88a.24.24,0,0,0,.24-.24.25.25,0,0,0-.06-.17h0l-4.92-6.36-.05,0a.23.23,0,0,0-.18-.08.25.25,0,0,0-.16.06l0,0,0,.06-4.8,6.29-.07.09a.23.23,0,0,0,0,.14A.24.24,0,0,0,11.3,50Z"/><path class="cls-2" d="M21.15,50.91h-9.9a.24.24,0,0,0-.24.24V58.9a.24.24,0,0,0,.24.24h3.19V54.26a.24.24,0,0,1,.24-.24h3a.24.24,0,0,1,.24.24v4.88h3.27a.24.24,0,0,0,.24-.24V51.15A.23.23,0,0,0,21.15,50.91Z"/><path class="cls-2" d="M55.37,48.88h-9.8a.23.23,0,0,0-.24.23V59a.24.24,0,0,0,.24.24h9.8a.24.24,0,0,0,.24-.24V49.11a.23.23,0,0,0-.24-.23M50,55.34a.23.23,0,0,1-.24.23H46.84a.23.23,0,0,1-.24-.23V53.56a.24.24,0,0,1,.24-.24h2.93a.24.24,0,0,1,.24.24Zm0-3.29a.23.23,0,0,1-.24.23H46.84a.23.23,0,0,1-.24-.23V50.27a.23.23,0,0,1,.24-.23h2.93a.23.23,0,0,1,.24.23Zm4.47,3.29a.23.23,0,0,1-.24.23H51.31a.23.23,0,0,1-.24-.23V53.56a.24.24,0,0,1,.24-.24h2.93a.24.24,0,0,1,.24.24Zm0-3.29a.23.23,0,0,1-.24.23H51.31a.23.23,0,0,1-.24-.23V50.27a.23.23,0,0,1,.24-.23h2.93a.23.23,0,0,1,.24.23Z"/><path class="cls-2" d="M32.59,25.91H23a.23.23,0,0,0-.23.24V58.92a.23.23,0,0,0,.23.23h9.59a.23.23,0,0,0,.24-.23V26.15a.24.24,0,0,0-.24-.24m-5.7,29.51a.12.12,0,0,1-.13.12h-2.2a.12.12,0,0,1-.12-.12V53a.12.12,0,0,1,.12-.12h2.2a.12.12,0,0,1,.13.12Zm0-5.62a.12.12,0,0,1-.13.12h-2.2a.12.12,0,0,1-.12-.12V47.35a.12.12,0,0,1,.12-.12h2.2a.12.12,0,0,1,.13.12Zm0-5.62a.13.13,0,0,1-.13.13h-2.2a.12.12,0,0,1-.12-.13V41.73a.12.12,0,0,1,.12-.12h2.2a.12.12,0,0,1,.13.12Zm0-5.62a.13.13,0,0,1-.13.13h-2.2a.12.12,0,0,1-.12-.13V36.11a.12.12,0,0,1,.12-.12h2.2a.12.12,0,0,1,.13.12Zm0-5.62a.13.13,0,0,1-.13.13h-2.2a.12.12,0,0,1-.12-.13V30.49a.12.12,0,0,1,.12-.12h2.2a.12.12,0,0,1,.13.12Zm4.3,22.48a.12.12,0,0,1-.12.12h-2.2a.12.12,0,0,1-.13-.12V53a.12.12,0,0,1,.13-.12h2.2a.12.12,0,0,1,.12.12Zm0-5.62a.12.12,0,0,1-.12.12h-2.2a.12.12,0,0,1-.13-.12V47.35a.12.12,0,0,1,.13-.12h2.2a.12.12,0,0,1,.12.12Zm0-5.62a.12.12,0,0,1-.12.13h-2.2a.13.13,0,0,1-.13-.13V41.73a.12.12,0,0,1,.13-.12h2.2a.12.12,0,0,1,.12.12Zm0-5.62a.12.12,0,0,1-.12.13h-2.2a.13.13,0,0,1-.13-.13V36.11a.12.12,0,0,1,.13-.12h2.2a.12.12,0,0,1,.12.12Zm0-5.62a.12.12,0,0,1-.12.13h-2.2a.13.13,0,0,1-.13-.13V30.49a.12.12,0,0,1,.13-.12h2.2a.12.12,0,0,1,.12.12Z"/><rect class="cls-2" x="45.34" y="45.71" width="10.26" height="2.37" rx="0.2"/><path class="cls-2" d="M44.17,32.1a.24.24,0,0,0-.24-.18.2.2,0,0,0-.13,0h0l-.08.1L34.27,44l0,.06a.25.25,0,0,0-.08.18V59a.23.23,0,0,0,.23.23H44A.23.23,0,0,0,44.2,59V32.2A.17.17,0,0,0,44.17,32.1Zm-4,6.49.06-.08c.65-.83,1.73-2.17,2.26-2.82l.07-.08a.28.28,0,0,1,.21-.1.27.27,0,0,1,.27.22v3a.27.27,0,0,1-.26.27H40.41a.27.27,0,0,1-.26-.27A.25.25,0,0,1,40.21,38.59Zm-1.5,16.74a.23.23,0,0,1-.23.24H35.62a.23.23,0,0,1-.23-.24V53.55a.23.23,0,0,1,.23-.24h2.86a.23.23,0,0,1,.23.24Zm0-3.3a.23.23,0,0,1-.23.23H35.62a.23.23,0,0,1-.23-.23V50.24a.23.23,0,0,1,.23-.23h2.86a.23.23,0,0,1,.23.23Zm0-3.31a.23.23,0,0,1-.23.24H35.62a.23.23,0,0,1-.23-.24V46.93a.23.23,0,0,1,.23-.23h2.86a.23.23,0,0,1,.23.23Zm0-7.24v3.94a.23.23,0,0,1-.23.24H35.63a.24.24,0,0,1-.24-.24v-.49a.64.64,0,0,1,0-.09l0,0s0,0,0,0l0,0c.37-.52,2-2.55,2.71-3.4l.07-.09a.27.27,0,0,1,.21-.09.26.26,0,0,1,.26.21Zm4.36,13.85a.23.23,0,0,1-.23.24H40a.23.23,0,0,1-.23-.24V53.55a.23.23,0,0,1,.23-.24h2.86a.23.23,0,0,1,.23.24Zm0-3.3a.23.23,0,0,1-.23.23H40a.23.23,0,0,1-.23-.23V50.24A.23.23,0,0,1,40,50h2.86a.23.23,0,0,1,.23.23Zm0-3.31a.23.23,0,0,1-.23.24H40a.23.23,0,0,1-.23-.24V46.93A.23.23,0,0,1,40,46.7h2.86a.23.23,0,0,1,.23.23Zm0-3.3a.23.23,0,0,1-.23.23H40a.23.23,0,0,1-.23-.23V43.63a.23.23,0,0,1,.23-.24h2.86a.23.23,0,0,1,.23.24Zm0-3.31a.23.23,0,0,1-.23.24H40a.23.23,0,0,1-.23-.24V40.32a.23.23,0,0,1,.23-.23h2.86a.23.23,0,0,1,.23.23Z"/><path class="cls-2" d="M18.2,9.86V9.12h.87v.76c0,.31.14.49.46.49s.42-.2.42-.49V9.67a1,1,0,0,0-.41-.79L19,8.33a1.87,1.87,0,0,1-.78-1.47V6.67a1.16,1.16,0,0,1,1.31-1.22c.93,0,1.3.46,1.3,1.26v.45H20V6.68c0-.32-.15-.48-.44-.48a.41.41,0,0,0-.44.46v.12c0,.31.17.49.44.75l.59.58a1.86,1.86,0,0,1,.75,1.44v.27a1.19,1.19,0,0,1-1.35,1.3A1.16,1.16,0,0,1,18.2,9.86Z"/><path class="cls-2" d="M24,5.52V9.71c0,.85-.37,1.41-1.32,1.41a1.25,1.25,0,0,1-1.39-1.41V5.52h.94V9.8c0,.32.13.54.45.54s.46-.22.46-.54V5.52Z"/><path class="cls-2" d="M24.37,9.86V9.12h.86v.76c0,.31.14.49.46.49s.43-.2.43-.49V9.67a1,1,0,0,0-.42-.79l-.55-.55a1.85,1.85,0,0,1-.77-1.47V6.67a1.15,1.15,0,0,1,1.3-1.22c.93,0,1.3.46,1.3,1.26v.45h-.85V6.68c0-.32-.14-.48-.44-.48a.41.41,0,0,0-.44.46v.12c0,.31.17.49.44.75l.6.58A1.89,1.89,0,0,1,27,9.55v.27a1.2,1.2,0,0,1-1.36,1.3A1.15,1.15,0,0,1,24.37,9.86Z"/><path class="cls-2" d="M27.21,5.52h2.47v.76h-.76v4.77H28V6.28h-.77Z"/><path class="cls-2" d="M29.47,11.05l1.05-5.53h1.06l1.05,5.53h-1l-.18-1h-1l-.17,1ZM30.64,9.3h.74L31,7.08h0Z"/><path class="cls-2" d="M32.92,5.52h.94v5.53h-.94Z"/><path class="cls-2" d="M35.09,7.58v3.47H34.3V5.52h.92l1,3.17V5.52H37v5.53h-.82Z"/><path class="cls-2" d="M37.29,11.05l1.05-5.53H39.4l1.05,5.53h-1l-.18-1h-1l-.17,1ZM38.46,9.3h.74l-.37-2.22h0Z"/><path class="cls-2" d="M40.74,5.52h1.35c.93,0,1.24.43,1.24,1.21V7.3a.81.81,0,0,1-.55.88.84.84,0,0,1,.69.92v.74c0,.78-.35,1.21-1.28,1.21H40.74Zm.94,2.33H42c.3,0,.44-.15.44-.45V6.73c0-.31-.14-.45-.45-.45h-.31Zm0,.71v1.73h.4c.31,0,.46-.15.46-.44V9a.4.4,0,0,0-.46-.45Z"/><path class="cls-2" d="M43.85,5.52h.93v4.77h1.11v.76h-2Z"/><path class="cls-2" d="M46.22,5.52h2.22v.76H47.15V7.86h.93v.75h-.93v1.68h1.29v.76H46.22Z"/><path class="cls-2" d="M49.62,9.63V7c0-.87.41-1.5,1.39-1.5s1.31.57,1.31,1.39v.65h-.85V6.77c0-.35-.11-.54-.45-.54s-.47.24-.47.57v3c0,.34.14.57.47.57s.45-.21.45-.54v-1h.85v1c0,.79-.33,1.38-1.31,1.38A1.31,1.31,0,0,1,49.62,9.63Z"/><path class="cls-2" d="M52.74,5.52h.93v5.53h-.93Z"/><path class="cls-2" d="M54,5.52h2.47v.76h-.76v4.77h-.94V6.28H54Z"/><path class="cls-2" d="M56.83,5.52h.93v5.53h-.93Z"/><path class="cls-2" d="M58.21,5.52h2.22v.76H59.14V7.86h.92v.75h-.92v1.68h1.29v.76H58.21Z"/><path class="cls-2" d="M60.75,9.86V9.12h.86v.76c0,.31.14.49.46.49s.42-.2.42-.49V9.67a1,1,0,0,0-.41-.79l-.55-.55a1.87,1.87,0,0,1-.78-1.47V6.67a1.16,1.16,0,0,1,1.31-1.22c.93,0,1.3.46,1.3,1.26v.45h-.85V6.68c0-.32-.15-.48-.44-.48a.41.41,0,0,0-.44.46v.12c0,.31.17.49.44.75l.59.58a1.88,1.88,0,0,1,.76,1.44v.27a1.2,1.2,0,0,1-1.36,1.3A1.15,1.15,0,0,1,60.75,9.86Z"/><path class="cls-2" d="M18.11,18.81l1-5.54h1.06l1.06,5.54h-1l-.17-1h-1l-.16,1Zm1.16-1.76H20l-.37-2.22h0Z"/><path class="cls-2" d="M22.34,15.33v3.48h-.78V13.27h.91l1,3.18V13.27h.77v5.54h-.81Z"/><path class="cls-2" d="M27.48,14.76v2.56c0,.85-.35,1.49-1.35,1.49H24.69V13.27h1.44C27.13,13.27,27.48,13.9,27.48,14.76ZM26,18.05c.38,0,.53-.23.53-.56v-2.9c0-.33-.15-.56-.53-.56h-.39v4Z"/><path class="cls-2" d="M28.69,17.38V14.7a1.3,1.3,0,0,1,1.38-1.49c1,0,1.32.57,1.32,1.39v.65h-.85v-.73c0-.34-.11-.54-.45-.54s-.47.24-.47.58v3c0,.33.14.57.47.57s.45-.21.45-.54v-1h.85v1c0,.79-.33,1.38-1.32,1.38A1.31,1.31,0,0,1,28.69,17.38Z"/><path class="cls-2" d="M31.81,17.38V14.7a1.41,1.41,0,1,1,2.81,0v2.68a1.41,1.41,0,1,1-2.81,0Zm1.88.15v-3c0-.34-.15-.58-.48-.58s-.47.24-.47.58v3c0,.33.14.57.47.57S33.69,17.86,33.69,17.53Z"/><path class="cls-2" d="M37.63,15.22h0L37,18.81h-.43l-.69-3.59h0v3.59h-.77V13.27h1.09l.6,3.12h0l.54-3.12h1.18v5.54h-.85Z"/><path class="cls-2" d="M41.48,15.22h0l-.63,3.59h-.44l-.69-3.59h0v3.59h-.76V13.27H40l.61,3.12h0l.54-3.12h1.18v5.54h-.85Z"/><path class="cls-2" d="M45.47,13.27v4.19c0,.86-.37,1.42-1.31,1.42a1.25,1.25,0,0,1-1.39-1.42V13.27h.93v4.28c0,.33.13.55.46.55s.45-.22.45-.55V13.27Z"/><path class="cls-2" d="M46.7,15.33v3.48h-.79V13.27h.92l1,3.18V13.27h.78v5.54h-.82Z"/><path class="cls-2" d="M49.05,13.27H50v5.54h-.93Z"/><path class="cls-2" d="M50.32,13.27h2.47V14H52v4.78h-.94V14h-.77Z"/><path class="cls-2" d="M53.14,13.27h.93v5.54h-.93Z"/><path class="cls-2" d="M54.52,13.27h2.22V14H55.45v1.59h.92v.75h-.92v1.68h1.29v.76H54.52Z"/><path class="cls-2" d="M57.06,17.62v-.75h.86v.76c0,.31.14.49.46.49s.42-.19.42-.49v-.21a1,1,0,0,0-.41-.78l-.55-.55a1.87,1.87,0,0,1-.78-1.48v-.19a1.15,1.15,0,0,1,1.31-1.21c.93,0,1.3.46,1.3,1.26v.44h-.85v-.48c0-.32-.15-.47-.44-.47a.41.41,0,0,0-.44.46v.11c0,.31.17.49.44.75l.59.59a1.85,1.85,0,0,1,.76,1.44v.27a1.2,1.2,0,0,1-1.36,1.3A1.15,1.15,0,0,1,57.06,17.62Z"/></g></g></svg>