<svg xmlns="http://www.w3.org/2000/svg" viewBox="0 0 65.69 65.69"><defs><style>.cls-1{fill:#ff3a21;}.cls-2{fill:#fff;}</style></defs><g id="Layer_2" data-name="Layer 2"><g id="OUTLINE"><rect class="cls-1" width="65.69" height="65.69"/><path class="cls-2" d="M10.47,9.7a2,2,0,0,0-1.87.92h0V7.31h3.83V5.5H6.55V13h2v-.29c0-.78.35-1.21,1-1.21s.95.47.95,1.19v3.2c0,.71-.25,1.19-.93,1.19s-1-.5-1-1.29V14.09h-2V15.6c0,2,.8,3.3,3.07,3.3s3.16-1.19,3.16-3V12.63c0-2.09-1.07-2.93-2.27-2.93"/><path class="cls-2" d="M47.85,24.86H39.68a.1.1,0,0,0-.1.1v2.71a.11.11,0,0,0,.1.11h3.25l-3.61,3.61a10.69,10.69,0,1,0-8,19v3.12H28.13a.11.11,0,0,0-.11.11v2.9a.11.11,0,0,0,.11.11h3.22v3.07a.11.11,0,0,0,.1.11h2.91a.11.11,0,0,0,.11-.11V56.64h3.22a.11.11,0,0,0,.1-.11v-2.9a.11.11,0,0,0-.1-.11H34.47V50.35a10.69,10.69,0,0,0,7-16.7L45,30.09v3a.11.11,0,0,0,.1.11h2.72a.11.11,0,0,0,.1-.11V25a.1.1,0,0,0-.1-.1M32.73,47.67A7.87,7.87,0,1,1,40.6,39.8a7.88,7.88,0,0,1-7.87,7.87"/><path class="cls-2" d="M37.54,36.57H28a.09.09,0,0,0-.1.09V39a.09.09,0,0,0,.1.09h9.55a.09.09,0,0,0,.1-.09V36.66a.09.09,0,0,0-.1-.09"/><path class="cls-2" d="M37.54,40.69H28a.1.1,0,0,0-.1.1V43.1a.09.09,0,0,0,.1.09h9.55a.09.09,0,0,0,.1-.09V40.79a.1.1,0,0,0-.1-.1"/><path class="cls-2" d="M20.47,7.93H21.8v3h-.67v-.6a.85.85,0,0,1-.89.67c-.8,0-1.17-.64-1.17-1.5V6.78c0-.87.41-1.5,1.39-1.5s1.34.57,1.34,1.39v.49H21V6.6c0-.35-.13-.54-.47-.54s-.48.23-.48.57v3c0,.34.14.57.46.57s.45-.17.45-.53v-1h-.44Z"/><path class="cls-2" d="M22.33,5.35h2.22v.76H23.26V7.69h.92v.75h-.92v1.68h1.29v.76H22.33Z"/><path class="cls-2" d="M25.83,7.4v3.48H25V5.35H26l1,3.17V5.35h.78v5.53h-.82Z"/><path class="cls-2" d="M31.05,6.83V9.4c0,.85-.35,1.48-1.34,1.48H28.27V5.35h1.44C30.7,5.35,31.05,6,31.05,6.83Zm-1.46,3.29c.38,0,.53-.22.53-.56V6.66a.49.49,0,0,0-.53-.55H29.2v4Z"/><path class="cls-2" d="M31.58,5.35H33.8v.76H32.51V7.69h.93v.75h-.93v1.68H33.8v.76H31.58Z"/><path class="cls-2" d="M35.23,8.34v2.54H34.3V5.35h1.36c.94,0,1.28.46,1.28,1.24V7.3c0,.59-.21,1-.74,1.07l.89,2.51h-1Zm0-2.23V7.83h.31A.4.4,0,0,0,36,7.37V6.56c0-.31-.14-.45-.46-.45Z"/><path class="cls-2" d="M19.07,13.1h2.22v.76H20v1.59h.92v.75H20v1.68h1.29v.76H19.07Z"/><path class="cls-2" d="M22.77,19v-.37a1.28,1.28,0,0,1-1.07-1.43V14.53a1.41,1.41,0,1,1,2.82,0v2.68a1.34,1.34,0,0,1-.68,1.31l.68.13v.69Zm.82-1.6v-3c0-.33-.15-.57-.48-.57s-.47.24-.47.57v3c0,.32.14.57.47.57S23.59,17.73,23.59,17.41Z"/><path class="cls-2" d="M27.75,13.1v4.19c0,.86-.36,1.41-1.31,1.41a1.25,1.25,0,0,1-1.39-1.41V13.1H26v4.28c0,.33.13.55.46.55s.46-.22.46-.55V13.1Z"/><path class="cls-2" d="M28,18.64l1-5.54h1.06l1.06,5.54h-1l-.17-1h-1l-.16,1Zm1.16-1.76h.75l-.37-2.22h0Z"/><path class="cls-2" d="M31.56,13.1h.93v4.78H33.6v.76h-2Z"/><path class="cls-2" d="M34,13.1H35v5.54H34Z"/><path class="cls-2" d="M35.39,13.1h2.47v.76h-.77v4.78h-.94V13.86h-.76Z"/><path class="cls-2" d="M40.11,16.53v2.11h-.94V16.53l-1-3.43h1l.56,2.1h0l.56-2.1h.89Z"/><path class="cls-2" d="M10.47,9.7a2,2,0,0,0-1.87.92h0V7.31h3.83V5.5H6.55V13h2v-.29c0-.78.35-1.21,1-1.21s.95.47.95,1.19v3.2c0,.71-.25,1.19-.93,1.19s-1-.5-1-1.29V14.09h-2V15.6c0,2,.8,3.3,3.07,3.3s3.16-1.19,3.16-3V12.63c0-2.09-1.07-2.93-2.27-2.93"/><path class="cls-2" d="M47.85,24.86H39.68a.1.1,0,0,0-.1.1v2.71a.11.11,0,0,0,.1.11h3.25l-3.61,3.61a10.69,10.69,0,1,0-8,19v3.12H28.13a.11.11,0,0,0-.11.11v2.9a.11.11,0,0,0,.11.11h3.22v3.07a.11.11,0,0,0,.1.11h2.91a.11.11,0,0,0,.11-.11V56.64h3.22a.11.11,0,0,0,.1-.11v-2.9a.11.11,0,0,0-.1-.11H34.47V50.35a10.69,10.69,0,0,0,7-16.7L45,30.09v3a.11.11,0,0,0,.1.11h2.72a.11.11,0,0,0,.1-.11V25a.1.1,0,0,0-.1-.1M32.73,47.67A7.87,7.87,0,1,1,40.6,39.8a7.88,7.88,0,0,1-7.87,7.87"/><path class="cls-2" d="M37.54,36.57H28a.09.09,0,0,0-.1.09V39a.09.09,0,0,0,.1.09h9.55a.09.09,0,0,0,.1-.09V36.66a.09.09,0,0,0-.1-.09"/><path class="cls-2" d="M37.54,40.69H28a.1.1,0,0,0-.1.1V43.1a.09.09,0,0,0,.1.09h9.55a.09.09,0,0,0,.1-.09V40.79a.1.1,0,0,0-.1-.1"/><path class="cls-2" d="M20.47,7.93H21.8v3h-.67v-.6a.85.85,0,0,1-.89.67c-.8,0-1.17-.64-1.17-1.5V6.78c0-.87.41-1.5,1.39-1.5s1.34.57,1.34,1.39v.49H21V6.6c0-.35-.13-.54-.47-.54s-.48.23-.48.57v3c0,.34.14.57.46.57s.45-.17.45-.53v-1h-.44Z"/><path class="cls-2" d="M22.33,5.35h2.22v.76H23.26V7.69h.92v.75h-.92v1.68h1.29v.76H22.33Z"/><path class="cls-2" d="M25.83,7.4v3.48H25V5.35H26l1,3.17V5.35h.78v5.53h-.82Z"/><path class="cls-2" d="M31.05,6.83V9.4c0,.85-.35,1.48-1.34,1.48H28.27V5.35h1.44C30.7,5.35,31.05,6,31.05,6.83Zm-1.46,3.29c.38,0,.53-.22.53-.56V6.66a.49.49,0,0,0-.53-.55H29.2v4Z"/><path class="cls-2" d="M31.58,5.35H33.8v.76H32.51V7.69h.93v.75h-.93v1.68H33.8v.76H31.58Z"/><path class="cls-2" d="M35.23,8.34v2.54H34.3V5.35h1.36c.94,0,1.28.46,1.28,1.24V7.3c0,.59-.21,1-.74,1.07l.89,2.51h-1Zm0-2.23V7.83h.31A.4.4,0,0,0,36,7.37V6.56c0-.31-.14-.45-.46-.45Z"/><path class="cls-2" d="M19.07,13.1h2.22v.76H20v1.59h.92v.75H20v1.68h1.29v.76H19.07Z"/><path class="cls-2" d="M22.77,19v-.37a1.28,1.28,0,0,1-1.07-1.43V14.53a1.41,1.41,0,1,1,2.82,0v2.68a1.34,1.34,0,0,1-.68,1.31l.68.13v.69Zm.82-1.6v-3c0-.33-.15-.57-.48-.57s-.47.24-.47.57v3c0,.32.14.57.47.57S23.59,17.73,23.59,17.41Z"/><path class="cls-2" d="M27.75,13.1v4.19c0,.86-.36,1.41-1.31,1.41a1.25,1.25,0,0,1-1.39-1.41V13.1H26v4.28c0,.33.13.55.46.55s.46-.22.46-.55V13.1Z"/><path class="cls-2" d="M28,18.64l1-5.54h1.06l1.06,5.54h-1l-.17-1h-1l-.16,1Zm1.16-1.76h.75l-.37-2.22h0Z"/><path class="cls-2" d="M31.56,13.1h.93v4.78H33.6v.76h-2Z"/><path class="cls-2" d="M34,13.1H35v5.54H34Z"/><path class="cls-2" d="M35.39,13.1h2.47v.76h-.77v4.78h-.94V13.86h-.76Z"/><path class="cls-2" d="M40.11,16.53v2.11h-.94V16.53l-1-3.43h1l.56,2.1h0l.56-2.1h.89Z"/></g></g></svg>