<svg xmlns="http://www.w3.org/2000/svg" viewBox="0 0 65.69 65.69"><defs><style>.cls-1{fill:#56c02b;}.cls-2{fill:#fff;}</style></defs><g id="Layer_2" data-name="Layer 2"><g id="OUTLINE"><rect class="cls-1" width="65.69" height="65.69"/><polygon class="cls-2" points="4.81 7.9 4.81 10.23 4.83 10.23 6.39 8.61 6.41 8.61 6.41 18.74 8.64 18.74 8.64 5.5 6.86 5.5 4.81 7.9"/><path class="cls-2" d="M13.93,9.7a2,2,0,0,0-1.87.92h0V7.32h3.83V5.5H10V13h2v-.29c0-.78.35-1.21,1-1.21s1,.47,1,1.19v3.2c0,.7-.25,1.19-.94,1.19s-1-.5-1-1.29V14.09H10V15.6c0,2,.8,3.3,3.06,3.3s3.17-1.19,3.17-3V12.63c0-2.09-1.08-2.93-2.27-2.93"/><path class="cls-2" d="M25.27,44.41H27.2a.15.15,0,0,1,.15.15v4.78a.15.15,0,0,1-.15.15H25.27a.15.15,0,0,1-.15-.15V44.56A.14.14,0,0,1,25.27,44.41Z"/><path class="cls-2" d="M48.46,51.54H16.56a.15.15,0,0,0-.15.15v2a.15.15,0,0,0,.15.14h31.9a.15.15,0,0,0,.15-.14v-2a.15.15,0,0,0-.15-.15"/><path class="cls-2" d="M48.46,55.42H16.56a.15.15,0,0,0-.15.14v2a.15.15,0,0,0,.15.14h31.9a.15.15,0,0,0,.15-.14v-2a.15.15,0,0,0-.15-.14"/><path class="cls-2" d="M42.39,39.12a4.73,4.73,0,0,0-2.76-1,3.65,3.65,0,0,0-2.56,1.09.25.25,0,0,0-.09.2v.17a.28.28,0,0,0,.09.22.28.28,0,0,0,.23.05h.06a.54.54,0,0,0,.16-.1,2.48,2.48,0,0,1,1.28-.27,4.81,4.81,0,0,1,3.28,1.38l0,0a.36.36,0,0,0,.28.12.39.39,0,0,0,.27-.11l0,0A4.86,4.86,0,0,1,46,39.43a2.51,2.51,0,0,1,1.28.27.4.4,0,0,0,.17.1.36.36,0,0,0,.19,0,.27.27,0,0,0,.2-.26v-.16a.27.27,0,0,0-.08-.19,3.69,3.69,0,0,0-2.6-1.12,4.65,4.65,0,0,0-2.75,1"/><path class="cls-2" d="M40.41,26.41a.25.25,0,0,0-.14.16l0,.11a.26.26,0,0,0,0,.24.31.31,0,0,0,.2.11h0a.28.28,0,0,0,.15,0,.66.66,0,0,1,.19,0,2.75,2.75,0,0,1,2.28,1.49v0a.34.34,0,0,0,.21.16l.1,0a.38.38,0,0,0,.16,0h0a3.12,3.12,0,0,1,1.43-.36,2.14,2.14,0,0,1,1.45.47.25.25,0,0,0,.11.12l.1.05h.08a.27.27,0,0,0,.12,0,.29.29,0,0,0,.14-.17l0-.09a.24.24,0,0,0,0-.08.33.33,0,0,0,0-.14,2.41,2.41,0,0,0-2.17-1.3,3.32,3.32,0,0,0-1.14.22,2.81,2.81,0,0,0-2.15-1.21,2.55,2.55,0,0,0-1.2.31"/><path class="cls-2" d="M33.67,31.31v.15a.24.24,0,0,0,.13.21.23.23,0,0,0,.21,0h0a.45.45,0,0,0,.14-.1,2.27,2.27,0,0,1,1.21-.28,3.94,3.94,0,0,1,2.52,1l0,0a.34.34,0,0,0,.24.09h0a.37.37,0,0,0,.25-.12l0,0a3.82,3.82,0,0,1,2.79-1.3,1.86,1.86,0,0,1,.84.16.48.48,0,0,0,.16.08.21.21,0,0,0,.12,0l.07,0a.28.28,0,0,0,.18-.27v-.12a.26.26,0,0,0-.1-.19,3.1,3.1,0,0,0-2-.81,3.87,3.87,0,0,0-2.39,1A3.94,3.94,0,0,0,36,30.06a3.08,3.08,0,0,0-2.27,1.05.29.29,0,0,0-.07.2"/><path class="cls-2" d="M17.53,33.87A3.45,3.45,0,0,1,21,30.42h.22a4.68,4.68,0,1,1,8.86,2.39,5.23,5.23,0,0,1-1.13,10.33l-7,0h0a3.7,3.7,0,0,1-2.69-6.24A3.44,3.44,0,0,1,17.53,33.87Z"/><path class="cls-2" d="M20.39,5.45h.93v4.78h1.12V11H20.39Z"/><path class="cls-2" d="M22.86,5.45h.93V11h-.93Z"/><path class="cls-2" d="M24.33,5.45h2.18v.76H25.26V7.8h.93v.75h-.93V11h-.93Z"/><path class="cls-2" d="M26.92,5.45h2.22v.76H27.85V7.8h.92v.75h-.92v1.68h1.29V11H26.92Z"/><path class="cls-2" d="M20.39,17.32V14.64a1.41,1.41,0,1,1,2.82,0v2.68a1.41,1.41,0,1,1-2.82,0Zm1.89.14v-3c0-.33-.15-.57-.48-.57s-.48.24-.48.57v3c0,.34.15.57.48.57S22.28,17.8,22.28,17.46Z"/><path class="cls-2" d="M24.52,15.27v3.47h-.78V13.21h.92l1,3.17V13.21h.78v5.53h-.82Z"/><path class="cls-2" d="M28.68,13.21h.93V18h1.11v.76h-2Z"/><path class="cls-2" d="M31,18.74l1-5.53H33.1l1.06,5.53h-1l-.17-1H32l-.16,1ZM32.17,17h.74l-.37-2.22h0Z"/><path class="cls-2" d="M35.32,15.27v3.47h-.78V13.21h.92l1,3.17V13.21h.78v5.53h-.82Z"/><path class="cls-2" d="M40.55,14.69v2.57c0,.85-.35,1.48-1.35,1.48H37.77V13.21H39.2C40.2,13.21,40.55,13.84,40.55,14.69ZM39.09,18c.38,0,.53-.22.53-.56v-2.9a.49.49,0,0,0-.53-.55H38.7v4Z"/><polygon class="cls-2" points="4.81 7.9 4.81 10.23 4.83 10.23 6.39 8.61 6.41 8.61 6.41 18.74 8.64 18.74 8.64 5.5 6.86 5.5 4.81 7.9"/><path class="cls-2" d="M13.93,9.7a2,2,0,0,0-1.87.92h0V7.32h3.83V5.5H10V13h2v-.29c0-.78.35-1.21,1-1.21s1,.47,1,1.19v3.2c0,.7-.25,1.19-.94,1.19s-1-.5-1-1.29V14.09H10V15.6c0,2,.8,3.3,3.06,3.3s3.17-1.19,3.17-3V12.63c0-2.09-1.08-2.93-2.27-2.93"/><path class="cls-2" d="M25.27,44.41H27.2a.15.15,0,0,1,.15.15v4.78a.15.15,0,0,1-.15.15H25.27a.15.15,0,0,1-.15-.15V44.56A.14.14,0,0,1,25.27,44.41Z"/><path class="cls-2" d="M48.46,51.54H16.56a.15.15,0,0,0-.15.15v2a.15.15,0,0,0,.15.14h31.9a.15.15,0,0,0,.15-.14v-2a.15.15,0,0,0-.15-.15"/><path class="cls-2" d="M48.46,55.42H16.56a.15.15,0,0,0-.15.14v2a.15.15,0,0,0,.15.14h31.9a.15.15,0,0,0,.15-.14v-2a.15.15,0,0,0-.15-.14"/><path class="cls-2" d="M42.39,39.12a4.73,4.73,0,0,0-2.76-1,3.65,3.65,0,0,0-2.56,1.09.25.25,0,0,0-.09.2v.17a.28.28,0,0,0,.09.22.28.28,0,0,0,.23.05h.06a.54.54,0,0,0,.16-.1,2.48,2.48,0,0,1,1.28-.27,4.81,4.81,0,0,1,3.28,1.38l0,0a.36.36,0,0,0,.28.12.39.39,0,0,0,.27-.11l0,0A4.86,4.86,0,0,1,46,39.43a2.51,2.51,0,0,1,1.28.27.4.4,0,0,0,.17.1.36.36,0,0,0,.19,0,.27.27,0,0,0,.2-.26v-.16a.27.27,0,0,0-.08-.19,3.69,3.69,0,0,0-2.6-1.12,4.65,4.65,0,0,0-2.75,1"/><path class="cls-2" d="M40.41,26.41a.25.25,0,0,0-.14.16l0,.11a.26.26,0,0,0,0,.24.31.31,0,0,0,.2.11h0a.28.28,0,0,0,.15,0,.66.66,0,0,1,.19,0,2.75,2.75,0,0,1,2.28,1.49v0a.34.34,0,0,0,.21.16l.1,0a.38.38,0,0,0,.16,0h0a3.12,3.12,0,0,1,1.43-.36,2.14,2.14,0,0,1,1.45.47.25.25,0,0,0,.11.12l.1.05h.08a.27.27,0,0,0,.12,0,.29.29,0,0,0,.14-.17l0-.09a.24.24,0,0,0,0-.08.33.33,0,0,0,0-.14,2.41,2.41,0,0,0-2.17-1.3,3.32,3.32,0,0,0-1.14.22,2.81,2.81,0,0,0-2.15-1.21,2.55,2.55,0,0,0-1.2.31"/><path class="cls-2" d="M33.67,31.31v.15a.24.24,0,0,0,.13.21.23.23,0,0,0,.21,0h0a.45.45,0,0,0,.14-.1,2.27,2.27,0,0,1,1.21-.28,3.94,3.94,0,0,1,2.52,1l0,0a.34.34,0,0,0,.24.09h0a.37.37,0,0,0,.25-.12l0,0a3.82,3.82,0,0,1,2.79-1.3,1.86,1.86,0,0,1,.84.16.48.48,0,0,0,.16.08.21.21,0,0,0,.12,0l.07,0a.28.28,0,0,0,.18-.27v-.12a.26.26,0,0,0-.1-.19,3.1,3.1,0,0,0-2-.81,3.87,3.87,0,0,0-2.39,1A3.94,3.94,0,0,0,36,30.06a3.08,3.08,0,0,0-2.27,1.05.29.29,0,0,0-.07.2"/><path class="cls-2" d="M17.53,33.87A3.45,3.45,0,0,1,21,30.42h.22a4.68,4.68,0,1,1,8.86,2.39,5.23,5.23,0,0,1-1.13,10.33l-7,0h0a3.7,3.7,0,0,1-2.69-6.24A3.44,3.44,0,0,1,17.53,33.87Z"/><path class="cls-2" d="M20.39,5.45h.93v4.78h1.12V11H20.39Z"/><path class="cls-2" d="M22.86,5.45h.93V11h-.93Z"/><path class="cls-2" d="M24.33,5.45h2.18v.76H25.26V7.8h.93v.75h-.93V11h-.93Z"/><path class="cls-2" d="M26.92,5.45h2.22v.76H27.85V7.8h.92v.75h-.92v1.68h1.29V11H26.92Z"/><path class="cls-2" d="M20.39,17.32V14.64a1.41,1.41,0,1,1,2.82,0v2.68a1.41,1.41,0,1,1-2.82,0Zm1.89.14v-3c0-.33-.15-.57-.48-.57s-.48.24-.48.57v3c0,.34.15.57.48.57S22.28,17.8,22.28,17.46Z"/><path class="cls-2" d="M24.52,15.27v3.47h-.78V13.21h.92l1,3.17V13.21h.78v5.53h-.82Z"/><path class="cls-2" d="M28.68,13.21h.93V18h1.11v.76h-2Z"/><path class="cls-2" d="M31,18.74l1-5.53H33.1l1.06,5.53h-1l-.17-1H32l-.16,1ZM32.17,17h.74l-.37-2.22h0Z"/><path class="cls-2" d="M35.32,15.27v3.47h-.78V13.21h.92l1,3.17V13.21h.78v5.53h-.82Z"/><path class="cls-2" d="M40.55,14.69v2.57c0,.85-.35,1.48-1.35,1.48H37.77V13.21H39.2C40.2,13.21,40.55,13.84,40.55,14.69ZM39.09,18c.38,0,.53-.22.53-.56v-2.9a.49.49,0,0,0-.53-.55H38.7v4Z"/></g></g></svg>