<svg xmlns="http://www.w3.org/2000/svg" viewBox="0 0 65.69 65.69"><defs><style>.cls-1{fill:#19486a;}.cls-2{fill:#fff;}</style></defs><g id="Layer_2" data-name="Layer 2"><g id="OUTLINE"><rect class="cls-1" width="65.69" height="65.69"/><polygon class="cls-2" points="9.83 5.5 9.83 18.75 7.6 18.75 7.6 8.61 7.58 8.61 6.02 10.23 6 10.23 6 7.91 8.05 5.5 9.83 5.5"/><polygon class="cls-2" points="10.85 5.5 16.43 5.5 16.43 7.56 13.52 18.75 11.31 18.75 14.28 7.32 10.85 7.32 10.85 5.5"/><path class="cls-2" d="M49.54,39.84a8.57,8.57,0,0,0-8.24-8.55,8.56,8.56,0,0,0-16.14,0,8.54,8.54,0,0,0-4.93,15.29,8.54,8.54,0,0,0,13,9.43,8.56,8.56,0,0,0,13-9.44,8.53,8.53,0,0,0,3.29-6.73m-9.48-5.7a6.84,6.84,0,0,1-5.82,6.75,7.19,7.19,0,0,1-.09-1A6.83,6.83,0,0,1,40,33.09a6,6,0,0,1,.09,1m-6.8,19.65a6.82,6.82,0,0,1-.06-9.73,6.8,6.8,0,0,1,.06,9.73m-6.77-20.7a6.83,6.83,0,0,1,5.82,6.75,6,6,0,0,1-.09,1,6.84,6.84,0,0,1-5.82-6.75,6,6,0,0,1,.09-1m5.09,9.8a6.8,6.8,0,0,1-9.24,3,6.8,6.8,0,0,1,9.24-3m3.28,0A6.72,6.72,0,0,1,38,42.07a6.82,6.82,0,0,1,6.12,3.82,6.72,6.72,0,0,1-3.16.78,6.83,6.83,0,0,1-6.12-3.82M33.23,27.31a6.83,6.83,0,0,1,6.26,4.1,8.58,8.58,0,0,0-6.26,4.81A8.58,8.58,0,0,0,27,31.41a6.83,6.83,0,0,1,6.26-4.1M18.65,39.84a6.83,6.83,0,0,1,6.1-6.79,7.78,7.78,0,0,0-.07,1.09,8.53,8.53,0,0,0,2.79,6.32,8.57,8.57,0,0,0-6.56,4.44,6.81,6.81,0,0,1-2.26-5.06m3,9.12a6.64,6.64,0,0,1,.15-1.42,8.57,8.57,0,0,0,7.85-.21,9,9,0,0,0-.15,1.57,8.54,8.54,0,0,0,2.42,6A6.82,6.82,0,0,1,21.61,49m23.24-.06a6.83,6.83,0,0,1-10.2,5.94A8.56,8.56,0,0,0,37,49a8.85,8.85,0,0,0-.16-1.64,8.57,8.57,0,0,0,7.87.22,6.75,6.75,0,0,1,.14,1.36M39,40.41a8.54,8.54,0,0,0,2.75-6.27,9.66,9.66,0,0,0-.07-1.09,6.82,6.82,0,0,1,3.85,11.84A8.57,8.57,0,0,0,39,40.41"/><path class="cls-2" d="M20.75,5.45h1.38c.94,0,1.28.47,1.28,1.24V7.86c0,.78-.34,1.25-1.28,1.25h-.45V11h-.93Zm.93.76V8.39H22a.4.4,0,0,0,.46-.46V6.66c0-.3-.14-.45-.46-.45Z"/><path class="cls-2" d="M23.42,11l1-5.54h1.07l1,5.54h-1l-.17-1h-1l-.16,1Zm1.17-1.76h.74L25,7h0Z"/><path class="cls-2" d="M27.89,8.45V11H27V5.45h1.36c.94,0,1.28.47,1.28,1.24V7.4c0,.6-.21.95-.74,1.07L29.75,11h-1Zm0-2.24V7.93h.31a.4.4,0,0,0,.46-.45V6.66c0-.3-.14-.45-.46-.45Z"/><path class="cls-2" d="M29.92,5.45h2.47v.76h-.77V11h-.94V6.21h-.76Z"/><path class="cls-2" d="M33.61,7.51V11h-.79V5.45h.92l1,3.18V5.45h.78V11H34.7Z"/><path class="cls-2" d="M36.05,5.45h2.22v.76H37V7.8h.92v.75H37v1.68h1.29V11H36.05Z"/><path class="cls-2" d="M39.7,8.45V11h-.93V5.45h1.35c.94,0,1.28.47,1.28,1.24V7.4c0,.6-.21.95-.74,1.07L41.55,11h-1Zm0-2.24V7.93H40a.4.4,0,0,0,.46-.45V6.66c0-.3-.14-.45-.46-.45Z"/><path class="cls-2" d="M41.82,9.8V9.05h.87v.76c0,.31.13.49.45.49s.43-.19.43-.49V9.6a1,1,0,0,0-.42-.78l-.55-.55a1.86,1.86,0,0,1-.77-1.48V6.6a1.15,1.15,0,0,1,1.3-1.21c.94,0,1.3.45,1.3,1.25v.45h-.85V6.61c0-.32-.14-.47-.44-.47a.41.41,0,0,0-.44.46v.11c0,.31.17.49.44.75l.6.59a1.83,1.83,0,0,1,.75,1.44v.27a1.2,1.2,0,0,1-1.36,1.29A1.15,1.15,0,0,1,41.82,9.8Z"/><path class="cls-2" d="M46.81,8.55h-.9V11H45V5.45h.93V7.8h.9V5.45h.94V11h-.94Z"/><path class="cls-2" d="M48.28,5.45h.93V11h-.93Z"/><path class="cls-2" d="M49.75,5.45h1.38c.94,0,1.28.47,1.28,1.24V7.86c0,.78-.34,1.25-1.28,1.25h-.45V11h-.93Zm.93.76V8.39H51a.4.4,0,0,0,.46-.46V6.66c0-.3-.14-.45-.46-.45Z"/><path class="cls-2" d="M52.84,9.8V9.05h.87v.76c0,.31.14.49.46.49s.42-.19.42-.49V9.6a1,1,0,0,0-.42-.78l-.54-.55a1.87,1.87,0,0,1-.78-1.48V6.6a1.15,1.15,0,0,1,1.31-1.21c.93,0,1.29.45,1.29,1.25v.45h-.84V6.61c0-.32-.15-.47-.44-.47a.41.41,0,0,0-.45.46v.11c0,.31.18.49.45.75l.59.59a1.83,1.83,0,0,1,.75,1.44v.27a1.2,1.2,0,0,1-1.35,1.29A1.15,1.15,0,0,1,52.84,9.8Z"/><path class="cls-2" d="M20.75,13.21h2.18V14H21.68v1.58h.93v.75h-.93v2.44h-.93Z"/><path class="cls-2" d="M23.26,17.31V14.64a1.41,1.41,0,1,1,2.81,0v2.67a1.41,1.41,0,1,1-2.81,0Zm1.88.15v-3c0-.33-.15-.57-.48-.57s-.47.24-.47.57v3c0,.34.14.57.47.57S25.14,17.8,25.14,17.46Z"/><path class="cls-2" d="M27.53,16.2v2.54H26.6V13.21H28c.94,0,1.28.46,1.28,1.24v.71c0,.6-.21.95-.74,1.07l.89,2.51h-1Zm0-2.23v1.72h.31a.4.4,0,0,0,.46-.46v-.81c0-.31-.14-.45-.46-.45Z"/><path class="cls-2" d="M30.5,13.21H33V14H32.2v4.77h-.94V14H30.5Z"/><path class="cls-2" d="M35.23,16.3h-.9v2.44H33.4V13.21h.93v2.34h.9V13.21h.94v5.53h-.94Z"/><path class="cls-2" d="M36.7,13.21h2.22V14H37.63v1.58h.92v.75h-.92V18h1.29v.76H36.7Z"/><path class="cls-2" d="M41.68,15.79H43v2.95h-.67v-.6a.83.83,0,0,1-.89.67c-.8,0-1.16-.64-1.16-1.5V14.64c0-.87.41-1.5,1.39-1.5S43,13.71,43,14.53V15h-.84v-.56c0-.35-.14-.54-.47-.54s-.48.24-.48.57v3c0,.34.14.57.46.57s.45-.17.45-.53v-1h-.44Z"/><path class="cls-2" d="M43.53,17.31V14.64a1.41,1.41,0,1,1,2.82,0v2.67a1.41,1.41,0,1,1-2.82,0Zm1.89.15v-3c0-.33-.15-.57-.48-.57s-.47.24-.47.57v3c0,.34.14.57.47.57S45.42,17.8,45.42,17.46Z"/><path class="cls-2" d="M46.61,18.74l1-5.53h1.06l1.05,5.53h-1l-.17-1h-1l-.17,1ZM47.78,17h.74l-.36-2.22h0Z"/><path class="cls-2" d="M50.15,13.21h.94V18H52.2v.76H50.15Z"/><path class="cls-2" d="M52.53,17.55v-.74h.87v.76c0,.31.14.49.45.49s.43-.2.43-.49v-.21a1,1,0,0,0-.42-.79L53.31,16a1.85,1.85,0,0,1-.77-1.47v-.19a1.16,1.16,0,0,1,1.31-1.22c.93,0,1.29.46,1.29,1.26v.45h-.85v-.48c0-.32-.14-.48-.44-.48a.41.41,0,0,0-.44.46v.12c0,.31.17.49.44.75l.6.58a1.86,1.86,0,0,1,.75,1.44v.27a1.2,1.2,0,0,1-1.35,1.3A1.16,1.16,0,0,1,52.53,17.55Z"/><polygon class="cls-2" points="9.83 5.5 9.83 18.75 7.6 18.75 7.6 8.61 7.58 8.61 6.02 10.23 6 10.23 6 7.91 8.05 5.5 9.83 5.5"/><polygon class="cls-2" points="10.85 5.5 16.43 5.5 16.43 7.56 13.52 18.75 11.31 18.75 14.28 7.32 10.85 7.32 10.85 5.5"/><path class="cls-2" d="M49.54,39.84a8.57,8.57,0,0,0-8.24-8.55,8.56,8.56,0,0,0-16.14,0,8.54,8.54,0,0,0-4.93,15.29,8.54,8.54,0,0,0,13,9.43,8.56,8.56,0,0,0,13-9.44,8.53,8.53,0,0,0,3.29-6.73m-9.48-5.7a6.84,6.84,0,0,1-5.82,6.75,7.19,7.19,0,0,1-.09-1A6.83,6.83,0,0,1,40,33.09a6,6,0,0,1,.09,1m-6.8,19.65a6.82,6.82,0,0,1-.06-9.73,6.8,6.8,0,0,1,.06,9.73m-6.77-20.7a6.83,6.83,0,0,1,5.82,6.75,6,6,0,0,1-.09,1,6.84,6.84,0,0,1-5.82-6.75,6,6,0,0,1,.09-1m5.09,9.8a6.8,6.8,0,0,1-9.24,3,6.8,6.8,0,0,1,9.24-3m3.28,0A6.72,6.72,0,0,1,38,42.07a6.82,6.82,0,0,1,6.12,3.82,6.72,6.72,0,0,1-3.16.78,6.83,6.83,0,0,1-6.12-3.82M33.23,27.31a6.83,6.83,0,0,1,6.26,4.1,8.58,8.58,0,0,0-6.26,4.81A8.58,8.58,0,0,0,27,31.41a6.83,6.83,0,0,1,6.26-4.1M18.65,39.84a6.83,6.83,0,0,1,6.1-6.79,7.78,7.78,0,0,0-.07,1.09,8.53,8.53,0,0,0,2.79,6.32,8.57,8.57,0,0,0-6.56,4.44,6.81,6.81,0,0,1-2.26-5.06m3,9.12a6.64,6.64,0,0,1,.15-1.42,8.57,8.57,0,0,0,7.85-.21,9,9,0,0,0-.15,1.57,8.54,8.54,0,0,0,2.42,6A6.82,6.82,0,0,1,21.61,49m23.24-.06a6.83,6.83,0,0,1-10.2,5.94A8.56,8.56,0,0,0,37,49a8.85,8.85,0,0,0-.16-1.64,8.57,8.57,0,0,0,7.87.22,6.75,6.75,0,0,1,.14,1.36M39,40.41a8.54,8.54,0,0,0,2.75-6.27,9.66,9.66,0,0,0-.07-1.09,6.82,6.82,0,0,1,3.85,11.84A8.57,8.57,0,0,0,39,40.41"/><path class="cls-2" d="M20.75,5.45h1.38c.94,0,1.28.47,1.28,1.24V7.86c0,.78-.34,1.25-1.28,1.25h-.45V11h-.93Zm.93.76V8.39H22a.4.4,0,0,0,.46-.46V6.66c0-.3-.14-.45-.46-.45Z"/><path class="cls-2" d="M23.42,11l1-5.54h1.07l1,5.54h-1l-.17-1h-1l-.16,1Zm1.17-1.76h.74L25,7h0Z"/><path class="cls-2" d="M27.89,8.45V11H27V5.45h1.36c.94,0,1.28.47,1.28,1.24V7.4c0,.6-.21.95-.74,1.07L29.75,11h-1Zm0-2.24V7.93h.31a.4.4,0,0,0,.46-.45V6.66c0-.3-.14-.45-.46-.45Z"/><path class="cls-2" d="M29.92,5.45h2.47v.76h-.77V11h-.94V6.21h-.76Z"/><path class="cls-2" d="M33.61,7.51V11h-.79V5.45h.92l1,3.18V5.45h.78V11H34.7Z"/><path class="cls-2" d="M36.05,5.45h2.22v.76H37V7.8h.92v.75H37v1.68h1.29V11H36.05Z"/><path class="cls-2" d="M39.7,8.45V11h-.93V5.45h1.35c.94,0,1.28.47,1.28,1.24V7.4c0,.6-.21.95-.74,1.07L41.55,11h-1Zm0-2.24V7.93H40a.4.4,0,0,0,.46-.45V6.66c0-.3-.14-.45-.46-.45Z"/><path class="cls-2" d="M41.82,9.8V9.05h.87v.76c0,.31.13.49.45.49s.43-.19.43-.49V9.6a1,1,0,0,0-.42-.78l-.55-.55a1.86,1.86,0,0,1-.77-1.48V6.6a1.15,1.15,0,0,1,1.3-1.21c.94,0,1.3.45,1.3,1.25v.45h-.85V6.61c0-.32-.14-.47-.44-.47a.41.41,0,0,0-.44.46v.11c0,.31.17.49.44.75l.6.59a1.83,1.83,0,0,1,.75,1.44v.27a1.2,1.2,0,0,1-1.36,1.29A1.15,1.15,0,0,1,41.82,9.8Z"/><path class="cls-2" d="M46.81,8.55h-.9V11H45V5.45h.93V7.8h.9V5.45h.94V11h-.94Z"/><path class="cls-2" d="M48.28,5.45h.93V11h-.93Z"/><path class="cls-2" d="M49.75,5.45h1.38c.94,0,1.28.47,1.28,1.24V7.86c0,.78-.34,1.25-1.28,1.25h-.45V11h-.93Zm.93.76V8.39H51a.4.4,0,0,0,.46-.46V6.66c0-.3-.14-.45-.46-.45Z"/><path class="cls-2" d="M52.84,9.8V9.05h.87v.76c0,.31.14.49.46.49s.42-.19.42-.49V9.6a1,1,0,0,0-.42-.78l-.54-.55a1.87,1.87,0,0,1-.78-1.48V6.6a1.15,1.15,0,0,1,1.31-1.21c.93,0,1.29.45,1.29,1.25v.45h-.84V6.61c0-.32-.15-.47-.44-.47a.41.41,0,0,0-.45.46v.11c0,.31.18.49.45.75l.59.59a1.83,1.83,0,0,1,.75,1.44v.27a1.2,1.2,0,0,1-1.35,1.29A1.15,1.15,0,0,1,52.84,9.8Z"/><path class="cls-2" d="M20.75,13.21h2.18V14H21.68v1.58h.93v.75h-.93v2.44h-.93Z"/><path class="cls-2" d="M23.26,17.31V14.64a1.41,1.41,0,1,1,2.81,0v2.67a1.41,1.41,0,1,1-2.81,0Zm1.88.15v-3c0-.33-.15-.57-.48-.57s-.47.24-.47.57v3c0,.34.14.57.47.57S25.14,17.8,25.14,17.46Z"/><path class="cls-2" d="M27.53,16.2v2.54H26.6V13.21H28c.94,0,1.28.46,1.28,1.24v.71c0,.6-.21.95-.74,1.07l.89,2.51h-1Zm0-2.23v1.72h.31a.4.4,0,0,0,.46-.46v-.81c0-.31-.14-.45-.46-.45Z"/><path class="cls-2" d="M30.5,13.21H33V14H32.2v4.77h-.94V14H30.5Z"/><path class="cls-2" d="M35.23,16.3h-.9v2.44H33.4V13.21h.93v2.34h.9V13.21h.94v5.53h-.94Z"/><path class="cls-2" d="M36.7,13.21h2.22V14H37.63v1.58h.92v.75h-.92V18h1.29v.76H36.7Z"/><path class="cls-2" d="M41.68,15.79H43v2.95h-.67v-.6a.83.83,0,0,1-.89.67c-.8,0-1.16-.64-1.16-1.5V14.64c0-.87.41-1.5,1.39-1.5S43,13.71,43,14.53V15h-.84v-.56c0-.35-.14-.54-.47-.54s-.48.24-.48.57v3c0,.34.14.57.46.57s.45-.17.45-.53v-1h-.44Z"/><path class="cls-2" d="M43.53,17.31V14.64a1.41,1.41,0,1,1,2.82,0v2.67a1.41,1.41,0,1,1-2.82,0Zm1.89.15v-3c0-.33-.15-.57-.48-.57s-.47.24-.47.57v3c0,.34.14.57.47.57S45.42,17.8,45.42,17.46Z"/><path class="cls-2" d="M46.61,18.74l1-5.53h1.06l1.05,5.53h-1l-.17-1h-1l-.17,1ZM47.78,17h.74l-.36-2.22h0Z"/><path class="cls-2" d="M50.15,13.21h.94V18H52.2v.76H50.15Z"/><path class="cls-2" d="M52.53,17.55v-.74h.87v.76c0,.31.14.49.45.49s.43-.2.43-.49v-.21a1,1,0,0,0-.42-.79L53.31,16a1.85,1.85,0,0,1-.77-1.47v-.19a1.16,1.16,0,0,1,1.31-1.22c.93,0,1.29.46,1.29,1.26v.45h-.85v-.48c0-.32-.14-.48-.44-.48a.41.41,0,0,0-.44.46v.12c0,.31.17.49.44.75l.6.58a1.86,1.86,0,0,1,.75,1.44v.27a1.2,1.2,0,0,1-1.35,1.3A1.16,1.16,0,0,1,52.53,17.55Z"/></g></g></svg>