<svg xmlns="http://www.w3.org/2000/svg" viewBox="0 0 65.69 65.69"><defs><style>.cls-1{fill:#fd6925;}.cls-2{fill:#fff;}</style></defs><g id="Layer_2" data-name="Layer 2"><g id="OUTLINE"><rect class="cls-1" width="65.69" height="65.69"/><path class="cls-2" d="M12,8.84c0-2-.9-3.54-3.24-3.54S5.51,6.59,5.51,8.64v1.95c0,2.17.86,3.27,2.46,3.27A1.9,1.9,0,0,0,9.8,12.78h0v2.85c0,.8-.31,1.37-1.11,1.37s-1.09-.47-1.09-1.29v-.88h-2v.7c0,2,.7,3.32,3.16,3.32S12,17.35,12,15.28Zm-2.21,2c0,.74-.35,1.21-1.05,1.21s-1-.47-1-1.33V8.45c0-.84.31-1.33,1.07-1.33s1,.51,1,1.33Z"/><path class="cls-2" d="M49.62,43.17l-7.8-4.5v-9a.55.55,0,0,0-.27-.46l-8.07-4.66a.57.57,0,0,0-.54,0l-8.07,4.66a.53.53,0,0,0-.27.46v9l-7.8,4.5a.55.55,0,0,0-.27.47V53a.52.52,0,0,0,.27.46l8.07,4.66a.5.5,0,0,0,.27.07.48.48,0,0,0,.26-.07l7.81-4.5L41,58.08a.48.48,0,0,0,.26.07.52.52,0,0,0,.27-.07l8.07-4.66a.52.52,0,0,0,.27-.46V43.64A.55.55,0,0,0,49.62,43.17ZM32.68,52,26.2,48.3l6.48-3.74ZM40.22,39l-6.48,3.73V35.24Zm-7.54,3.73L26.2,39l6.48-3.74Zm1.6.93,7-4,7,4-7,4Zm6.47-5.59-6.47-3.74,6.47-3.73Zm-8.61-3.74-6.47,3.74V30.58ZM24.6,56.7l-7-4.05V44.56l7,4Zm1.07,0V49.22L32.14,53Zm23.16-4.05-7,4.05V48.61l7-4Z"/><path class="cls-2" d="M15.83,5.52h.94v5.53h-.94Z"/><path class="cls-2" d="M17.85,7.58v3.47h-.78V5.52H18l1,3.17V5.52h.77v5.53H19Z"/><path class="cls-2" d="M22.84,7V9.57c0,.85-.35,1.48-1.35,1.48H20.06V5.52h1.43C22.49,5.52,22.84,6.15,22.84,7Zm-1.46,3.29c.38,0,.53-.22.53-.56V6.83a.49.49,0,0,0-.53-.55H21v4Z"/><path class="cls-2" d="M25.84,5.52V9.71c0,.85-.37,1.41-1.32,1.41a1.25,1.25,0,0,1-1.39-1.41V5.52h.93V9.8c0,.32.13.54.46.54s.46-.22.46-.54V5.52Z"/><path class="cls-2" d="M26.08,9.86V9.12H27v.76c0,.31.13.49.45.49s.43-.2.43-.49V9.67a1,1,0,0,0-.42-.79l-.55-.55a1.85,1.85,0,0,1-.77-1.47V6.67a1.15,1.15,0,0,1,1.3-1.22c.94,0,1.3.46,1.3,1.26v.45h-.85V6.68c0-.32-.14-.48-.44-.48a.41.41,0,0,0-.44.46v.12c0,.31.17.49.44.75l.6.58a1.86,1.86,0,0,1,.75,1.44v.27a1.2,1.2,0,0,1-1.36,1.3A1.15,1.15,0,0,1,26.08,9.86Z"/><path class="cls-2" d="M28.77,5.52h2.48v.76h-.77v4.77h-.94V6.28h-.77Z"/><path class="cls-2" d="M32.37,8.51v2.54h-.93V5.52H32.8c.94,0,1.28.46,1.28,1.24v.71c0,.6-.21,1-.74,1.07l.89,2.51h-1Zm0-2.23V8h.32a.4.4,0,0,0,.45-.46V6.73c0-.31-.14-.45-.45-.45Z"/><path class="cls-2" d="M36,9v2.1h-.93V9l-1-3.43h1l.57,2.1h0l.56-2.1h.89Z"/><path class="cls-2" d="M37.63,10.24l-.47,1.25h-.52l.11-1.33h.88Z"/><path class="cls-2" d="M38.55,5.52h.93v5.53h-.93Z"/><path class="cls-2" d="M40.56,7.58v3.47h-.78V5.52h.91l1,3.17V5.52h.77v5.53h-.81Z"/><path class="cls-2" d="M43.55,7.58v3.47h-.78V5.52h.91l1,3.17V5.52h.77v5.53h-.81Z"/><path class="cls-2" d="M45.76,9.63V7a1.41,1.41,0,1,1,2.81,0V9.63a1.41,1.41,0,1,1-2.81,0Zm1.88.14v-3c0-.33-.15-.57-.48-.57s-.47.24-.47.57v3c0,.34.14.57.47.57S47.64,10.11,47.64,9.77Z"/><path class="cls-2" d="M51.68,5.52l-1,5.53h-1L48.56,5.52h.95l.64,3.86h0l.65-3.86Z"/><path class="cls-2" d="M51.19,11.05l1.05-5.53H53.3l1.05,5.53h-1l-.17-1h-1l-.17,1ZM52.36,9.3h.74l-.36-2.22h0Z"/><path class="cls-2" d="M54,5.52h2.48v.76h-.77v4.77h-.94V6.28H54Z"/><path class="cls-2" d="M56.65,5.52h.93v5.53h-.93Z"/><path class="cls-2" d="M57.89,9.63V7A1.41,1.41,0,1,1,60.7,7V9.63a1.41,1.41,0,1,1-2.81,0Zm1.88.14v-3c0-.33-.14-.57-.48-.57s-.47.24-.47.57v3c0,.34.14.57.47.57S59.77,10.11,59.77,9.77Z"/><path class="cls-2" d="M61.78,7.58v3.47H61V5.52h.91l1,3.17V5.52h.78v5.53h-.82Z"/><path class="cls-2" d="M15.69,18.81l1-5.54h1.06l1.06,5.54h-1l-.17-1h-1l-.16,1Zm1.17-1.76h.74l-.37-2.22h0Z"/><path class="cls-2" d="M19.78,15.33v3.48H19V13.27h.92l1,3.18V13.27h.78v5.54h-.82Z"/><path class="cls-2" d="M24.77,14.76v2.56c0,.85-.35,1.49-1.35,1.49H22V13.27h1.44C24.42,13.27,24.77,13.9,24.77,14.76ZM23.3,18.05a.49.49,0,0,0,.54-.56v-2.9A.49.49,0,0,0,23.3,14h-.39v4Z"/><path class="cls-2" d="M25.68,13.27h.93v5.54h-.93Z"/><path class="cls-2" d="M27.7,15.33v3.48h-.79V13.27h.92l1,3.18V13.27h.78v5.54h-.82Z"/><path class="cls-2" d="M29.9,13.27h2.18V14H30.83v1.59h.93v.75h-.93v2.44H29.9Z"/><path class="cls-2" d="M33.18,16.27v2.54h-.93V13.27h1.36c.94,0,1.28.47,1.28,1.24v.72c0,.59-.21.94-.74,1.06L35,18.81h-1Zm0-2.24v1.73h.31A.41.41,0,0,0,34,15.3v-.82c0-.3-.14-.45-.46-.45Z"/><path class="cls-2" d="M35,18.81l1.05-5.54h1.06l1.05,5.54h-1l-.18-1h-1l-.17,1Zm1.17-1.76h.74l-.37-2.22h0Z"/><path class="cls-2" d="M38.19,17.62v-.75h.86v.76c0,.31.14.49.46.49s.42-.19.42-.49v-.21a1,1,0,0,0-.41-.78L39,16.09a1.87,1.87,0,0,1-.78-1.48v-.19a1.15,1.15,0,0,1,1.31-1.21c.93,0,1.3.46,1.3,1.26v.44H40v-.48c0-.32-.15-.47-.44-.47a.41.41,0,0,0-.44.46v.11c0,.31.17.49.44.75l.6.59a1.86,1.86,0,0,1,.75,1.44v.27a1.2,1.2,0,0,1-1.36,1.3A1.15,1.15,0,0,1,38.19,17.62Z"/><path class="cls-2" d="M40.88,13.27h2.48V14h-.77v4.78h-.94V14h-.77Z"/><path class="cls-2" d="M44.48,16.27v2.54h-.93V13.27h1.36c.93,0,1.28.47,1.28,1.24v.72c0,.59-.21.94-.75,1.06l.89,2.52h-1Zm0-2.24v1.73h.31a.41.41,0,0,0,.46-.46v-.82c0-.3-.14-.45-.46-.45Z"/><path class="cls-2" d="M49.16,13.27v4.19c0,.86-.37,1.42-1.32,1.42a1.25,1.25,0,0,1-1.38-1.42V13.27h.93v4.28c0,.33.13.55.45.55s.46-.22.46-.55V13.27Z"/><path class="cls-2" d="M49.45,17.38V14.7a1.31,1.31,0,0,1,1.39-1.49c1,0,1.32.57,1.32,1.39v.65h-.85v-.73c0-.34-.12-.54-.45-.54s-.48.24-.48.58v3c0,.33.14.57.48.57s.45-.21.45-.54v-1h.85v1c0,.79-.33,1.38-1.32,1.38A1.31,1.31,0,0,1,49.45,17.38Z"/><path class="cls-2" d="M52.24,13.27h2.47V14h-.77v4.78H53V14h-.76Z"/><path class="cls-2" d="M57.61,13.27v4.19c0,.86-.37,1.42-1.32,1.42a1.25,1.25,0,0,1-1.38-1.42V13.27h.93v4.28c0,.33.13.55.45.55s.46-.22.46-.55V13.27Z"/><path class="cls-2" d="M58.83,16.27v2.54H57.9V13.27h1.36c.94,0,1.28.47,1.28,1.24v.72c0,.59-.21.94-.74,1.06l.89,2.52h-1Zm0-2.24v1.73h.31a.41.41,0,0,0,.46-.46v-.82c0-.3-.14-.45-.46-.45Z"/><path class="cls-2" d="M60.81,13.27H63V14H61.74v1.59h.92v.75h-.92v1.68H63v.76H60.81Z"/><path class="cls-2" d="M12,8.84c0-2-.9-3.54-3.24-3.54S5.51,6.59,5.51,8.64v1.95c0,2.17.86,3.27,2.46,3.27A1.9,1.9,0,0,0,9.8,12.78h0v2.85c0,.8-.31,1.37-1.11,1.37s-1.09-.47-1.09-1.29v-.88h-2v.7c0,2,.7,3.32,3.16,3.32S12,17.35,12,15.28Zm-2.21,2c0,.74-.35,1.21-1.05,1.21s-1-.47-1-1.33V8.45c0-.84.31-1.33,1.07-1.33s1,.51,1,1.33Z"/><path class="cls-2" d="M49.62,43.17l-7.8-4.5v-9a.55.55,0,0,0-.27-.46l-8.07-4.66a.57.57,0,0,0-.54,0l-8.07,4.66a.53.53,0,0,0-.27.46v9l-7.8,4.5a.55.55,0,0,0-.27.47V53a.52.52,0,0,0,.27.46l8.07,4.66a.5.5,0,0,0,.27.07.48.48,0,0,0,.26-.07l7.81-4.5L41,58.08a.48.48,0,0,0,.26.07.52.52,0,0,0,.27-.07l8.07-4.66a.52.52,0,0,0,.27-.46V43.64A.55.55,0,0,0,49.62,43.17ZM32.68,52,26.2,48.3l6.48-3.74ZM40.22,39l-6.48,3.73V35.24Zm-7.54,3.73L26.2,39l6.48-3.74Zm1.6.93,7-4,7,4-7,4Zm6.47-5.59-6.47-3.74,6.47-3.73Zm-8.61-3.74-6.47,3.74V30.58ZM24.6,56.7l-7-4.05V44.56l7,4Zm1.07,0V49.22L32.14,53Zm23.16-4.05-7,4.05V48.61l7-4Z"/><path class="cls-2" d="M15.83,5.52h.94v5.53h-.94Z"/><path class="cls-2" d="M17.85,7.58v3.47h-.78V5.52H18l1,3.17V5.52h.77v5.53H19Z"/><path class="cls-2" d="M22.84,7V9.57c0,.85-.35,1.48-1.35,1.48H20.06V5.52h1.43C22.49,5.52,22.84,6.15,22.84,7Zm-1.46,3.29c.38,0,.53-.22.53-.56V6.83a.49.49,0,0,0-.53-.55H21v4Z"/><path class="cls-2" d="M25.84,5.52V9.71c0,.85-.37,1.41-1.32,1.41a1.25,1.25,0,0,1-1.39-1.41V5.52h.93V9.8c0,.32.13.54.46.54s.46-.22.46-.54V5.52Z"/><path class="cls-2" d="M26.08,9.86V9.12H27v.76c0,.31.13.49.45.49s.43-.2.43-.49V9.67a1,1,0,0,0-.42-.79l-.55-.55a1.85,1.85,0,0,1-.77-1.47V6.67a1.15,1.15,0,0,1,1.3-1.22c.94,0,1.3.46,1.3,1.26v.45h-.85V6.68c0-.32-.14-.48-.44-.48a.41.41,0,0,0-.44.46v.12c0,.31.17.49.44.75l.6.58a1.86,1.86,0,0,1,.75,1.44v.27a1.2,1.2,0,0,1-1.36,1.3A1.15,1.15,0,0,1,26.08,9.86Z"/><path class="cls-2" d="M28.77,5.52h2.48v.76h-.77v4.77h-.94V6.28h-.77Z"/><path class="cls-2" d="M32.37,8.51v2.54h-.93V5.52H32.8c.94,0,1.28.46,1.28,1.24v.71c0,.6-.21,1-.74,1.07l.89,2.51h-1Zm0-2.23V8h.32a.4.4,0,0,0,.45-.46V6.73c0-.31-.14-.45-.45-.45Z"/><path class="cls-2" d="M36,9v2.1h-.93V9l-1-3.43h1l.57,2.1h0l.56-2.1h.89Z"/><path class="cls-2" d="M37.63,10.24l-.47,1.25h-.52l.11-1.33h.88Z"/><path class="cls-2" d="M38.55,5.52h.93v5.53h-.93Z"/><path class="cls-2" d="M40.56,7.58v3.47h-.78V5.52h.91l1,3.17V5.52h.77v5.53h-.81Z"/><path class="cls-2" d="M43.55,7.58v3.47h-.78V5.52h.91l1,3.17V5.52h.77v5.53h-.81Z"/><path class="cls-2" d="M45.76,9.63V7a1.41,1.41,0,1,1,2.81,0V9.63a1.41,1.41,0,1,1-2.81,0Zm1.88.14v-3c0-.33-.15-.57-.48-.57s-.47.24-.47.57v3c0,.34.14.57.47.57S47.64,10.11,47.64,9.77Z"/><path class="cls-2" d="M51.68,5.52l-1,5.53h-1L48.56,5.52h.95l.64,3.86h0l.65-3.86Z"/><path class="cls-2" d="M51.19,11.05l1.05-5.53H53.3l1.05,5.53h-1l-.17-1h-1l-.17,1ZM52.36,9.3h.74l-.36-2.22h0Z"/><path class="cls-2" d="M54,5.52h2.48v.76h-.77v4.77h-.94V6.28H54Z"/><path class="cls-2" d="M56.65,5.52h.93v5.53h-.93Z"/><path class="cls-2" d="M57.89,9.63V7A1.41,1.41,0,1,1,60.7,7V9.63a1.41,1.41,0,1,1-2.81,0Zm1.88.14v-3c0-.33-.14-.57-.48-.57s-.47.24-.47.57v3c0,.34.14.57.47.57S59.77,10.11,59.77,9.77Z"/><path class="cls-2" d="M61.78,7.58v3.47H61V5.52h.91l1,3.17V5.52h.78v5.53h-.82Z"/><path class="cls-2" d="M15.69,18.81l1-5.54h1.06l1.06,5.54h-1l-.17-1h-1l-.16,1Zm1.17-1.76h.74l-.37-2.22h0Z"/><path class="cls-2" d="M19.78,15.33v3.48H19V13.27h.92l1,3.18V13.27h.78v5.54h-.82Z"/><path class="cls-2" d="M24.77,14.76v2.56c0,.85-.35,1.49-1.35,1.49H22V13.27h1.44C24.42,13.27,24.77,13.9,24.77,14.76ZM23.3,18.05a.49.49,0,0,0,.54-.56v-2.9A.49.49,0,0,0,23.3,14h-.39v4Z"/><path class="cls-2" d="M25.68,13.27h.93v5.54h-.93Z"/><path class="cls-2" d="M27.7,15.33v3.48h-.79V13.27h.92l1,3.18V13.27h.78v5.54h-.82Z"/><path class="cls-2" d="M29.9,13.27h2.18V14H30.83v1.59h.93v.75h-.93v2.44H29.9Z"/><path class="cls-2" d="M33.18,16.27v2.54h-.93V13.27h1.36c.94,0,1.28.47,1.28,1.24v.72c0,.59-.21.94-.74,1.06L35,18.81h-1Zm0-2.24v1.73h.31A.41.41,0,0,0,34,15.3v-.82c0-.3-.14-.45-.46-.45Z"/><path class="cls-2" d="M35,18.81l1.05-5.54h1.06l1.05,5.54h-1l-.18-1h-1l-.17,1Zm1.17-1.76h.74l-.37-2.22h0Z"/><path class="cls-2" d="M38.19,17.62v-.75h.86v.76c0,.31.14.49.46.49s.42-.19.42-.49v-.21a1,1,0,0,0-.41-.78L39,16.09a1.87,1.87,0,0,1-.78-1.48v-.19a1.15,1.15,0,0,1,1.31-1.21c.93,0,1.3.46,1.3,1.26v.44H40v-.48c0-.32-.15-.47-.44-.47a.41.41,0,0,0-.44.46v.11c0,.31.17.49.44.75l.6.59a1.86,1.86,0,0,1,.75,1.44v.27a1.2,1.2,0,0,1-1.36,1.3A1.15,1.15,0,0,1,38.19,17.62Z"/><path class="cls-2" d="M40.88,13.27h2.48V14h-.77v4.78h-.94V14h-.77Z"/><path class="cls-2" d="M44.48,16.27v2.54h-.93V13.27h1.36c.93,0,1.28.47,1.28,1.24v.72c0,.59-.21.94-.75,1.06l.89,2.52h-1Zm0-2.24v1.73h.31a.41.41,0,0,0,.46-.46v-.82c0-.3-.14-.45-.46-.45Z"/><path class="cls-2" d="M49.16,13.27v4.19c0,.86-.37,1.42-1.32,1.42a1.25,1.25,0,0,1-1.38-1.42V13.27h.93v4.28c0,.33.13.55.45.55s.46-.22.46-.55V13.27Z"/><path class="cls-2" d="M49.45,17.38V14.7a1.31,1.31,0,0,1,1.39-1.49c1,0,1.32.57,1.32,1.39v.65h-.85v-.73c0-.34-.12-.54-.45-.54s-.48.24-.48.58v3c0,.33.14.57.48.57s.45-.21.45-.54v-1h.85v1c0,.79-.33,1.38-1.32,1.38A1.31,1.31,0,0,1,49.45,17.38Z"/><path class="cls-2" d="M52.24,13.27h2.47V14h-.77v4.78H53V14h-.76Z"/><path class="cls-2" d="M57.61,13.27v4.19c0,.86-.37,1.42-1.32,1.42a1.25,1.25,0,0,1-1.38-1.42V13.27h.93v4.28c0,.33.13.55.45.55s.46-.22.46-.55V13.27Z"/><path class="cls-2" d="M58.83,16.27v2.54H57.9V13.27h1.36c.94,0,1.28.47,1.28,1.24v.72c0,.59-.21.94-.74,1.06l.89,2.52h-1Zm0-2.24v1.73h.31a.41.41,0,0,0,.46-.46v-.82c0-.3-.14-.45-.46-.45Z"/><path class="cls-2" d="M60.81,13.27H63V14H61.74v1.59h.92v.75h-.92v1.68H63v.76H60.81Z"/></g></g></svg>