<svg xmlns="http://www.w3.org/2000/svg" viewBox="0 0 65.69 65.69"><defs><style>.cls-1{fill:#26bde2;}.cls-2{fill:#fff;}</style></defs><g id="Layer_2" data-name="Layer 2"><g id="OUTLINE"><rect class="cls-1" width="65.69" height="65.69"/><path class="cls-2" d="M9.94,18.92c2.36,0,3.28-1.29,3.28-3.34V13.63c0-2.17-.86-3.26-2.46-3.26a1.91,1.91,0,0,0-1.84,1.07h0V8.59c0-.8.26-1.37,1.06-1.37s1,.47,1,1.29v.88h2v-.7c0-2-.64-3.32-3.1-3.32S6.7,6.87,6.7,8.94v6.45c0,2.05.89,3.53,3.24,3.53m-1-5.56c0-.75.35-1.21,1.06-1.21s1,.46,1,1.32v2.31c0,.84-.31,1.33-1.07,1.33s-1-.51-1-1.33Z"/><path class="cls-2" d="M44.94,26.56a.27.27,0,0,0-.21-.09H20.89a.29.29,0,0,0-.21.09.32.32,0,0,0-.06.23l4,24.21a.29.29,0,0,0,.28.24h4.91l.34,3.94H28.08L32.89,60l4.83-4.82H35.65L36,51.24h5a.28.28,0,0,0,.28-.24L45,26.79A.26.26,0,0,0,44.94,26.56ZM35.73,46a3.82,3.82,0,0,1-2.84,1A3.83,3.83,0,0,1,30,46a4.23,4.23,0,0,1-.53-5.15c.39-.72,3.13-4.84,3.37-5.19v0c.23.35,3,4.47,3.36,5.19A4.23,4.23,0,0,1,35.73,46Zm7.56-14.29a2.92,2.92,0,0,0-2.25.13c-3,1.2-5,1.63-8.08.66-2-.61-3.79-1.9-6-1.12a12.2,12.2,0,0,1-4.4,1l-.94-4.81H44Z"/><path class="cls-2" d="M19.06,9.45V6.78c0-.87.41-1.5,1.39-1.5s1.31.57,1.31,1.39v.65h-.85V6.6c0-.35-.11-.54-.45-.54s-.47.23-.47.57v3c0,.34.14.57.47.57s.45-.21.45-.54v-1h.85v1c0,.79-.32,1.38-1.31,1.38A1.31,1.31,0,0,1,19.06,9.45Z"/><path class="cls-2" d="M22.27,5.35h.93v4.77h1.11v.76h-2Z"/><path class="cls-2" d="M24.73,5.35H27v.76H25.66V7.69h.93v.75h-.93v1.68H27v.76H24.73Z"/><path class="cls-2" d="M27.3,10.88l1.05-5.53h1.06l1.05,5.53h-.95l-.17-1h-1l-.16,1Zm1.17-1.75h.74l-.36-2.22h0Z"/><path class="cls-2" d="M31.63,7.4v3.48h-.78V5.35h.91l1,3.17V5.35h.77v5.53h-.81Z"/><path class="cls-2" d="M36.94,7.46l-.53,3.42h-.87L34.8,5.35h.9l.43,3.51h0l.46-3.51h.76l.52,3.51h0l.43-3.51h.78l-.72,5.53h-.88L37,7.46Z"/><path class="cls-2" d="M39,10.88l1-5.53h1.07l1,5.53h-1l-.17-1h-1l-.16,1Zm1.17-1.75h.74l-.37-2.22h0Z"/><path class="cls-2" d="M42.05,5.35h2.47v.76h-.77v4.77h-.93V6.11h-.77Z"/><path class="cls-2" d="M45,5.35h2.22v.76H45.88V7.69h.93v.75h-.93v1.68h1.29v.76H45Z"/><path class="cls-2" d="M48.6,8.34v2.54h-.93V5.35H49c.94,0,1.28.46,1.28,1.24V7.3c0,.59-.21,1-.74,1.07l.89,2.51h-1Zm0-2.23V7.83h.31a.4.4,0,0,0,.46-.46V6.56c0-.31-.14-.45-.46-.45Z"/><path class="cls-2" d="M18.91,18.64,20,13.1H21l1.05,5.54h-.95l-.17-1H20l-.17,1Zm1.17-1.76h.74l-.36-2.22h0Z"/><path class="cls-2" d="M23.24,15.16v3.48h-.79V13.1h.92l1,3.18V13.1h.78v5.54h-.82Z"/><path class="cls-2" d="M28.46,14.59v2.56c0,.85-.35,1.49-1.34,1.49H25.68V13.1h1.44C28.11,13.1,28.46,13.73,28.46,14.59ZM27,17.88c.39,0,.53-.23.53-.56v-2.9c0-.33-.14-.56-.53-.56h-.39v4Z"/><path class="cls-2" d="M29.8,17.45V16.7h.87v.76c0,.31.14.49.46.49s.42-.19.42-.49v-.21a1,1,0,0,0-.42-.78l-.54-.55a1.87,1.87,0,0,1-.78-1.48v-.19A1.15,1.15,0,0,1,31.12,13c.93,0,1.3.45,1.3,1.26v.44h-.85v-.48c0-.32-.15-.47-.44-.47a.41.41,0,0,0-.45.46v.11c0,.31.18.49.45.75l.59.59a1.83,1.83,0,0,1,.75,1.44v.27a1.19,1.19,0,0,1-1.35,1.29A1.15,1.15,0,0,1,29.8,17.45Z"/><path class="cls-2" d="M32.73,18.64l1.05-5.54h1.06l1,5.54h-1l-.17-1h-1l-.16,1Zm1.17-1.76h.74l-.36-2.22h0Z"/><path class="cls-2" d="M37.06,15.16v3.48h-.78V13.1h.91l1,3.18V13.1H39v5.54h-.82Z"/><path class="cls-2" d="M39.5,13.1h.93v5.54H39.5Z"/><path class="cls-2" d="M40.86,13.1h2.48v.76h-.77v4.78h-.94V13.86h-.77Z"/><path class="cls-2" d="M43.22,18.64l1-5.54h1.06l1.06,5.54h-1l-.17-1h-1l-.16,1Zm1.16-1.76h.75l-.37-2.22h0Z"/><path class="cls-2" d="M46.24,13.1h2.48v.76H48v4.78H47V13.86h-.77Z"/><path class="cls-2" d="M49.15,13.1h.93v5.54h-.93Z"/><path class="cls-2" d="M50.62,17.21V14.53a1.41,1.41,0,1,1,2.82,0v2.68a1.41,1.41,0,1,1-2.82,0Zm1.89.15v-3c0-.33-.15-.57-.49-.57s-.47.24-.47.57v3c0,.33.15.57.47.57S52.51,17.69,52.51,17.36Z"/><path class="cls-2" d="M54.75,15.16v3.48H54V13.1h.91l1,3.18V13.1h.77v5.54h-.81Z"/><path class="cls-2" d="M9.94,18.92c2.36,0,3.28-1.29,3.28-3.34V13.63c0-2.17-.86-3.26-2.46-3.26a1.91,1.91,0,0,0-1.84,1.07h0V8.59c0-.8.26-1.37,1.06-1.37s1,.47,1,1.29v.88h2v-.7c0-2-.64-3.32-3.1-3.32S6.7,6.87,6.7,8.94v6.45c0,2.05.89,3.53,3.24,3.53m-1-5.56c0-.75.35-1.21,1.06-1.21s1,.46,1,1.32v2.31c0,.84-.31,1.33-1.07,1.33s-1-.51-1-1.33Z"/><path class="cls-2" d="M44.94,26.56a.27.27,0,0,0-.21-.09H20.89a.29.29,0,0,0-.21.09.32.32,0,0,0-.06.23l4,24.21a.29.29,0,0,0,.28.24h4.91l.34,3.94H28.08L32.89,60l4.83-4.82H35.65L36,51.24h5a.28.28,0,0,0,.28-.24L45,26.79A.26.26,0,0,0,44.94,26.56ZM35.73,46a3.82,3.82,0,0,1-2.84,1A3.83,3.83,0,0,1,30,46a4.23,4.23,0,0,1-.53-5.15c.39-.72,3.13-4.84,3.37-5.19v0c.23.35,3,4.47,3.36,5.19A4.23,4.23,0,0,1,35.73,46Zm7.56-14.29a2.92,2.92,0,0,0-2.25.13c-3,1.2-5,1.63-8.08.66-2-.61-3.79-1.9-6-1.12a12.2,12.2,0,0,1-4.4,1l-.94-4.81H44Z"/><path class="cls-2" d="M19.06,9.45V6.78c0-.87.41-1.5,1.39-1.5s1.31.57,1.31,1.39v.65h-.85V6.6c0-.35-.11-.54-.45-.54s-.47.23-.47.57v3c0,.34.14.57.47.57s.45-.21.45-.54v-1h.85v1c0,.79-.32,1.38-1.31,1.38A1.31,1.31,0,0,1,19.06,9.45Z"/><path class="cls-2" d="M22.27,5.35h.93v4.77h1.11v.76h-2Z"/><path class="cls-2" d="M24.73,5.35H27v.76H25.66V7.69h.93v.75h-.93v1.68H27v.76H24.73Z"/><path class="cls-2" d="M27.3,10.88l1.05-5.53h1.06l1.05,5.53h-.95l-.17-1h-1l-.16,1Zm1.17-1.75h.74l-.36-2.22h0Z"/><path class="cls-2" d="M31.63,7.4v3.48h-.78V5.35h.91l1,3.17V5.35h.77v5.53h-.81Z"/><path class="cls-2" d="M36.94,7.46l-.53,3.42h-.87L34.8,5.35h.9l.43,3.51h0l.46-3.51h.76l.52,3.51h0l.43-3.51h.78l-.72,5.53h-.88L37,7.46Z"/><path class="cls-2" d="M39,10.88l1-5.53h1.07l1,5.53h-1l-.17-1h-1l-.16,1Zm1.17-1.75h.74l-.37-2.22h0Z"/><path class="cls-2" d="M42.05,5.35h2.47v.76h-.77v4.77h-.93V6.11h-.77Z"/><path class="cls-2" d="M45,5.35h2.22v.76H45.88V7.69h.93v.75h-.93v1.68h1.29v.76H45Z"/><path class="cls-2" d="M48.6,8.34v2.54h-.93V5.35H49c.94,0,1.28.46,1.28,1.24V7.3c0,.59-.21,1-.74,1.07l.89,2.51h-1Zm0-2.23V7.83h.31a.4.4,0,0,0,.46-.46V6.56c0-.31-.14-.45-.46-.45Z"/><path class="cls-2" d="M18.91,18.64,20,13.1H21l1.05,5.54h-.95l-.17-1H20l-.17,1Zm1.17-1.76h.74l-.36-2.22h0Z"/><path class="cls-2" d="M23.24,15.16v3.48h-.79V13.1h.92l1,3.18V13.1h.78v5.54h-.82Z"/><path class="cls-2" d="M28.46,14.59v2.56c0,.85-.35,1.49-1.34,1.49H25.68V13.1h1.44C28.11,13.1,28.46,13.73,28.46,14.59ZM27,17.88c.39,0,.53-.23.53-.56v-2.9c0-.33-.14-.56-.53-.56h-.39v4Z"/><path class="cls-2" d="M29.8,17.45V16.7h.87v.76c0,.31.14.49.46.49s.42-.19.42-.49v-.21a1,1,0,0,0-.42-.78l-.54-.55a1.87,1.87,0,0,1-.78-1.48v-.19A1.15,1.15,0,0,1,31.12,13c.93,0,1.3.45,1.3,1.26v.44h-.85v-.48c0-.32-.15-.47-.44-.47a.41.41,0,0,0-.45.46v.11c0,.31.18.49.45.75l.59.59a1.83,1.83,0,0,1,.75,1.44v.27a1.19,1.19,0,0,1-1.35,1.29A1.15,1.15,0,0,1,29.8,17.45Z"/><path class="cls-2" d="M32.73,18.64l1.05-5.54h1.06l1,5.54h-1l-.17-1h-1l-.16,1Zm1.17-1.76h.74l-.36-2.22h0Z"/><path class="cls-2" d="M37.06,15.16v3.48h-.78V13.1h.91l1,3.18V13.1H39v5.54h-.82Z"/><path class="cls-2" d="M39.5,13.1h.93v5.54H39.5Z"/><path class="cls-2" d="M40.86,13.1h2.48v.76h-.77v4.78h-.94V13.86h-.77Z"/><path class="cls-2" d="M43.22,18.64l1-5.54h1.06l1.06,5.54h-1l-.17-1h-1l-.16,1Zm1.16-1.76h.75l-.37-2.22h0Z"/><path class="cls-2" d="M46.24,13.1h2.48v.76H48v4.78H47V13.86h-.77Z"/><path class="cls-2" d="M49.15,13.1h.93v5.54h-.93Z"/><path class="cls-2" d="M50.62,17.21V14.53a1.41,1.41,0,1,1,2.82,0v2.68a1.41,1.41,0,1,1-2.82,0Zm1.89.15v-3c0-.33-.15-.57-.49-.57s-.47.24-.47.57v3c0,.33.15.57.47.57S52.51,17.69,52.51,17.36Z"/><path class="cls-2" d="M54.75,15.16v3.48H54V13.1h.91l1,3.18V13.1h.77v5.54h-.81Z"/></g></g></svg>