<svg xmlns="http://www.w3.org/2000/svg" viewBox="0 0 65.69 65.69"><defs><style>.cls-1{fill:#bf8b2e;}.cls-2{fill:#fff;}.cls-3{fill:none;stroke:#fff;stroke-miterlimit:10;stroke-width:0.3px;}</style></defs><g id="Layer_2" data-name="Layer 2"><g id="OUTLINE"><rect class="cls-1" width="65.69" height="65.69"/><polygon class="cls-2" points="6.56 8.63 6.58 8.63 6.58 18.77 8.8 18.77 8.8 5.53 7.02 5.53 4.97 7.93 4.97 10.25 4.99 10.25 6.56 8.63"/><path class="cls-2" d="M10.13,8.26v1.6h2V8.2c0-.8.39-1,.86-1s.8.17.8,1v1.1A2.6,2.6,0,0,1,13,11.54l-1.25,1.33a4.63,4.63,0,0,0-1.66,3.46v2.44h5.78V17H12.22v-.62a2.5,2.5,0,0,1,.94-2l1.42-1.51A4.14,4.14,0,0,0,16,9.45V8.16c0-1.89-.92-2.79-2.91-2.79a2.62,2.62,0,0,0-2.95,2.89"/><path class="cls-2" d="M49.51,34.08a10.75,10.75,0,0,0-8.15-2l-.16,0c-1.63.38-4.21,1-7.23,4.77l0,.06,0,0a.24.24,0,0,0-.05.14.28.28,0,0,0,0,.13l.07.11c.38.64.86,1.45,1.26,2.21v0a.28.28,0,0,0,.24.14.24.24,0,0,0,.17-.07l.06-.08c2.68-3.71,4.79-4.22,6.22-4.55l.17,0a7.81,7.81,0,0,1,5.59,1.43C49.24,37.7,50,39.69,50,42.37c0,4.49-2.18,6.24-4,6.93a7.49,7.49,0,0,1-5.58-.37l-.12-.06c-1.56-.68-3.89-2.09-6.09-6.49-4.42-8.88-8.12-9.72-10.56-10.28l-.14,0a10.5,10.5,0,0,0-8,2C13.92,35.34,12,37.81,12,42.35a9.75,9.75,0,0,0,2,6.52A9.91,9.91,0,0,0,24,52.3a9.65,9.65,0,0,0,3.9-1.81l1.39,1.26a.23.23,0,0,0,.32,0,.22.22,0,0,0,.06-.15v0l1-6.18v-.07a.23.23,0,0,0-.07-.17.21.21,0,0,0-.15,0h-.11L24.4,46.76h-.11a.19.19,0,0,0-.11.07.22.22,0,0,0,0,.32l.07.06,1.33,1.2a6.09,6.09,0,0,1-2.17.92,6.9,6.9,0,0,1-6.93-2.24l0-.05A6.72,6.72,0,0,1,15,42.35c0-2.69.79-4.68,2.35-5.93A7.57,7.57,0,0,1,22.87,35L23,35c2,.45,4.76,1.07,8.54,8.68,2,3.94,4.43,6.53,7.53,7.89a10.93,10.93,0,0,0,4.72,1.09,9.47,9.47,0,0,0,3.28-.58c1.8-.67,6-3,6-9.75,0-4.54-1.92-7-3.54-8.29"/><path class="cls-3" d="M49.51,34.08a10.75,10.75,0,0,0-8.15-2l-.16,0c-1.63.38-4.21,1-7.23,4.77l0,.06,0,0a.24.24,0,0,0-.05.14.28.28,0,0,0,0,.13l.07.11c.38.64.86,1.45,1.26,2.21v0a.28.28,0,0,0,.24.14.24.24,0,0,0,.17-.07l.06-.08c2.68-3.71,4.79-4.22,6.22-4.55l.17,0a7.81,7.81,0,0,1,5.59,1.43C49.24,37.7,50,39.69,50,42.37c0,4.49-2.18,6.24-4,6.93a7.49,7.49,0,0,1-5.58-.37l-.12-.06c-1.56-.68-3.89-2.09-6.09-6.49-4.42-8.88-8.12-9.72-10.56-10.28l-.14,0a10.5,10.5,0,0,0-8,2C13.92,35.34,12,37.81,12,42.35a9.75,9.75,0,0,0,2,6.52A9.91,9.91,0,0,0,24,52.3a9.65,9.65,0,0,0,3.9-1.81l1.39,1.26a.23.23,0,0,0,.32,0,.22.22,0,0,0,.06-.15v0l1-6.18v-.07a.23.23,0,0,0-.07-.17.21.21,0,0,0-.15,0h-.11L24.4,46.76h-.11a.19.19,0,0,0-.11.07.22.22,0,0,0,0,.32l.07.06,1.33,1.2a6.09,6.09,0,0,1-2.17.92,6.9,6.9,0,0,1-6.93-2.24l0-.05A6.72,6.72,0,0,1,15,42.35c0-2.69.79-4.68,2.35-5.93A7.57,7.57,0,0,1,22.87,35L23,35c2,.45,4.76,1.07,8.54,8.68,2,3.94,4.43,6.53,7.53,7.89a10.93,10.93,0,0,0,4.72,1.09,9.47,9.47,0,0,0,3.28-.58c1.8-.67,6-3,6-9.75,0-4.54-1.92-7-3.54-8.29"/><path class="cls-2" d="M22,8.51v2.54H21.1V5.52h1.36c.93,0,1.28.46,1.28,1.24v.71c0,.6-.21,1-.75,1.07l.89,2.51h-1Zm0-2.23V8h.31a.4.4,0,0,0,.46-.46V6.73c0-.31-.14-.45-.46-.45Z"/><path class="cls-2" d="M24.13,5.52h2.22v.76H25.06V7.86H26v.75h-.92v1.68h1.29v.76H24.13Z"/><path class="cls-2" d="M26.64,9.86V9.12h.87v.76c0,.31.14.49.46.49s.42-.2.42-.49V9.67A1,1,0,0,0,28,8.88l-.54-.55a1.87,1.87,0,0,1-.78-1.47V6.67A1.16,1.16,0,0,1,28,5.45c.93,0,1.3.46,1.3,1.26v.45h-.85V6.68c0-.32-.15-.48-.44-.48a.41.41,0,0,0-.44.46v.12c0,.31.17.49.44.75l.59.58a1.86,1.86,0,0,1,.75,1.44v.27A1.19,1.19,0,0,1,28,11.12,1.16,1.16,0,0,1,26.64,9.86Z"/><path class="cls-2" d="M29.69,5.52h1.38c.94,0,1.28.46,1.28,1.24V7.93c0,.77-.34,1.25-1.28,1.25h-.45v1.87h-.93Zm.93.76V8.46H31A.4.4,0,0,0,31.42,8V6.73c0-.31-.14-.45-.46-.45Z"/><path class="cls-2" d="M32.72,9.63V7a1.41,1.41,0,1,1,2.81,0V9.63a1.41,1.41,0,1,1-2.81,0Zm1.88.14v-3c0-.33-.14-.57-.48-.57s-.47.24-.47.57v3c0,.34.15.57.47.57S34.6,10.11,34.6,9.77Z"/><path class="cls-2" d="M36.73,7.58v3.47H36V5.52h.91l1,3.17V5.52h.78v5.53h-.82Z"/><path class="cls-2" d="M39,9.86V9.12h.87v.76c0,.31.14.49.45.49s.43-.2.43-.49V9.67a1,1,0,0,0-.42-.79l-.54-.55A1.84,1.84,0,0,1,39,6.86V6.67a1.16,1.16,0,0,1,1.31-1.22c.93,0,1.29.46,1.29,1.26v.45h-.84V6.68q0-.48-.45-.48a.41.41,0,0,0-.44.46v.12c0,.31.18.49.44.75l.6.58a1.86,1.86,0,0,1,.75,1.44v.27a1.2,1.2,0,0,1-1.35,1.3A1.16,1.16,0,0,1,39,9.86Z"/><path class="cls-2" d="M42.06,5.52H43v5.53h-.93Z"/><path class="cls-2" d="M43.41,5.52h1.35C45.69,5.52,46,6,46,6.73V7.3a.81.81,0,0,1-.55.88.84.84,0,0,1,.69.92v.74c0,.78-.35,1.21-1.28,1.21H43.41Zm.93,2.33h.33c.3,0,.44-.15.44-.45V6.73c0-.31-.14-.45-.45-.45h-.32Zm0,.71v1.73h.41c.31,0,.46-.15.46-.44V9c0-.29-.14-.45-.47-.45Z"/><path class="cls-2" d="M46.49,5.52h.93v4.77h1.11v.76h-2Z"/><path class="cls-2" d="M48.84,5.52h2.22v.76H49.77V7.86h.92v.75h-.92v1.68h1.29v.76H48.84Z"/><path class="cls-2" d="M21.1,17.38V14.7a1.31,1.31,0,0,1,1.39-1.49c1,0,1.31.57,1.31,1.39v.65H23v-.73c0-.34-.11-.54-.45-.54s-.47.24-.47.58v3c0,.33.14.57.47.57s.45-.21.45-.54v-1h.85v1c0,.79-.32,1.38-1.31,1.38A1.31,1.31,0,0,1,21.1,17.38Z"/><path class="cls-2" d="M24.19,17.38V14.7a1.41,1.41,0,1,1,2.82,0v2.68a1.41,1.41,0,1,1-2.82,0Zm1.89.15v-3c0-.34-.15-.58-.48-.58s-.48.24-.48.58v3c0,.33.15.57.48.57S26.08,17.86,26.08,17.53Z"/><path class="cls-2" d="M28.21,15.33v3.48h-.78V13.27h.91l1,3.18V13.27h.77v5.54h-.81Z"/><path class="cls-2" d="M30.49,17.62v-.75h.86v.76c0,.31.14.49.46.49s.43-.19.43-.49v-.21a1,1,0,0,0-.42-.78l-.55-.55a1.86,1.86,0,0,1-.77-1.48v-.19a1.15,1.15,0,0,1,1.3-1.21c.93,0,1.3.46,1.3,1.26v.44h-.85v-.48c0-.32-.15-.47-.44-.47a.41.41,0,0,0-.44.46v.11c0,.31.17.49.44.75l.6.59a1.86,1.86,0,0,1,.75,1.44v.27a1.2,1.2,0,0,1-1.36,1.3A1.16,1.16,0,0,1,30.49,17.62Z"/><path class="cls-2" d="M36.24,13.27v4.19c0,.86-.37,1.42-1.32,1.42a1.25,1.25,0,0,1-1.39-1.42V13.27h.93v4.28c0,.33.13.55.46.55s.46-.22.46-.55V13.27Z"/><path class="cls-2" d="M39.22,15.22h0l-.63,3.59h-.43l-.69-3.59h0v3.59h-.77V13.27h1.09l.6,3.12h0l.54-3.12h1.18v5.54h-.85Z"/><path class="cls-2" d="M40.48,13.27h1.38c.94,0,1.28.47,1.28,1.24v1.17c0,.78-.34,1.25-1.28,1.25h-.45v1.88h-.93Zm.93.76v2.18h.34c.32,0,.46-.15.46-.45V14.48c0-.3-.14-.45-.46-.45Z"/><path class="cls-2" d="M43.36,13.27h2.48V14h-.77v4.78h-.94V14h-.77Z"/><path class="cls-2" d="M46.15,13.27h.94v5.54h-.94Z"/><path class="cls-2" d="M47.51,17.38V14.7a1.41,1.41,0,1,1,2.82,0v2.68a1.41,1.41,0,1,1-2.82,0Zm1.89.15v-3c0-.34-.15-.58-.49-.58s-.47.24-.47.58v3c0,.33.15.57.47.57S49.4,17.86,49.4,17.53Z"/><path class="cls-2" d="M51.53,15.33v3.48h-.79V13.27h.92l1,3.18V13.27h.78v5.54h-.82Z"/><path class="cls-2" d="M21,26.57,22,21h1.06l1.05,5.54h-.95l-.17-1H22l-.16,1Zm1.17-1.76h.74l-.36-2.22h0Z"/><path class="cls-2" d="M25.17,23.09v3.48h-.79V21h.92l1,3.18V21h.78v5.54h-.82Z"/><path class="cls-2" d="M30.28,22.52v2.56c0,.85-.35,1.49-1.35,1.49H27.49V21h1.44C29.93,21,30.28,21.66,30.28,22.52Zm-1.46,3.29c.38,0,.53-.23.53-.57v-2.9a.49.49,0,0,0-.53-.55h-.4v4Z"/><path class="cls-2" d="M31.44,21h1.38c.93,0,1.28.46,1.28,1.24v1.17a1.11,1.11,0,0,1-1.28,1.25h-.45v1.88h-.93Zm.93.76V24h.34a.4.4,0,0,0,.46-.46V22.24c0-.3-.14-.45-.46-.45Z"/><path class="cls-2" d="M35.39,24v2.54h-.93V21h1.36c.94,0,1.28.46,1.28,1.24V23c0,.6-.21.95-.74,1.07l.89,2.52h-1Zm0-2.24v1.72h.32a.4.4,0,0,0,.45-.46v-.81a.39.39,0,0,0-.45-.45Z"/><path class="cls-2" d="M37.49,25.14V22.46a1.41,1.41,0,1,1,2.82,0v2.68a1.41,1.41,0,1,1-2.82,0Zm1.89.14v-3c0-.33-.15-.57-.48-.57s-.48.24-.48.57v3c0,.34.15.57.48.57S39.38,25.62,39.38,25.28Z"/><path class="cls-2" d="M43.51,22.52v2.56c0,.85-.35,1.49-1.35,1.49H40.73V21h1.43C43.16,21,43.51,21.66,43.51,22.52Zm-1.46,3.29c.38,0,.53-.23.53-.57v-2.9a.49.49,0,0,0-.53-.55h-.39v4Z"/><path class="cls-2" d="M46.63,21v4.19c0,.86-.37,1.41-1.32,1.41a1.24,1.24,0,0,1-1.38-1.41V21h.93v4.28c0,.32.13.54.45.54s.46-.22.46-.54V21Z"/><path class="cls-2" d="M47,25.14V22.46c0-.87.41-1.5,1.39-1.5s1.32.58,1.32,1.39V23H48.9v-.73c0-.34-.12-.54-.45-.54S48,22,48,22.31v3c0,.34.13.57.47.57s.45-.21.45-.53v-1h.85v.95c0,.79-.33,1.38-1.32,1.38A1.31,1.31,0,0,1,47,25.14Z"/><path class="cls-2" d="M50,21h2.47v.76h-.76v4.78h-.94V21.79H50Z"/><path class="cls-2" d="M52.74,21h.93v5.54h-.93Z"/><path class="cls-2" d="M54.1,25.14V22.46a1.41,1.41,0,1,1,2.81,0v2.68a1.41,1.41,0,1,1-2.81,0Zm1.88.14v-3c0-.33-.14-.57-.48-.57S55,22,55,22.31v3c0,.34.15.57.47.57S56,25.62,56,25.28Z"/><path class="cls-2" d="M58.11,23.09v3.48h-.78V21h.91l1,3.18V21H60v5.54h-.81Z"/><polygon class="cls-2" points="6.56 8.63 6.58 8.63 6.58 18.77 8.8 18.77 8.8 5.53 7.02 5.53 4.97 7.93 4.97 10.25 4.99 10.25 6.56 8.63"/><path class="cls-2" d="M10.13,8.26v1.6h2V8.2c0-.8.39-1,.86-1s.8.17.8,1v1.1A2.6,2.6,0,0,1,13,11.54l-1.25,1.33a4.63,4.63,0,0,0-1.66,3.46v2.44h5.78V17H12.22v-.62a2.5,2.5,0,0,1,.94-2l1.42-1.51A4.14,4.14,0,0,0,16,9.45V8.16c0-1.89-.92-2.79-2.91-2.79a2.62,2.62,0,0,0-2.95,2.89"/><path class="cls-2" d="M49.51,34.08a10.75,10.75,0,0,0-8.15-2l-.16,0c-1.63.38-4.21,1-7.23,4.77l0,.06,0,0a.24.24,0,0,0-.05.14.28.28,0,0,0,0,.13l.07.11c.38.64.86,1.45,1.26,2.21v0a.28.28,0,0,0,.24.14.24.24,0,0,0,.17-.07l.06-.08c2.68-3.71,4.79-4.22,6.22-4.55l.17,0a7.81,7.81,0,0,1,5.59,1.43C49.24,37.7,50,39.69,50,42.37c0,4.49-2.18,6.24-4,6.93a7.49,7.49,0,0,1-5.58-.37l-.12-.06c-1.56-.68-3.89-2.09-6.09-6.49-4.42-8.88-8.12-9.72-10.56-10.28l-.14,0a10.5,10.5,0,0,0-8,2C13.92,35.34,12,37.81,12,42.35a9.75,9.75,0,0,0,2,6.52A9.91,9.91,0,0,0,24,52.3a9.65,9.65,0,0,0,3.9-1.81l1.39,1.26a.23.23,0,0,0,.32,0,.22.22,0,0,0,.06-.15v0l1-6.18v-.07a.23.23,0,0,0-.07-.17.21.21,0,0,0-.15,0h-.11L24.4,46.76h-.11a.19.19,0,0,0-.11.07.22.22,0,0,0,0,.32l.07.06,1.33,1.2a6.09,6.09,0,0,1-2.17.92,6.9,6.9,0,0,1-6.93-2.24l0-.05A6.72,6.72,0,0,1,15,42.35c0-2.69.79-4.68,2.35-5.93A7.57,7.57,0,0,1,22.87,35L23,35c2,.45,4.76,1.07,8.54,8.68,2,3.94,4.43,6.53,7.53,7.89a10.93,10.93,0,0,0,4.72,1.09,9.47,9.47,0,0,0,3.28-.58c1.8-.67,6-3,6-9.75,0-4.54-1.92-7-3.54-8.29"/><path class="cls-3" d="M49.51,34.08a10.75,10.75,0,0,0-8.15-2l-.16,0c-1.63.38-4.21,1-7.23,4.77l0,.06,0,0a.24.24,0,0,0-.05.14.28.28,0,0,0,0,.13l.07.11c.38.64.86,1.45,1.26,2.21v0a.28.28,0,0,0,.24.14.24.24,0,0,0,.17-.07l.06-.08c2.68-3.71,4.79-4.22,6.22-4.55l.17,0a7.81,7.81,0,0,1,5.59,1.43C49.24,37.7,50,39.69,50,42.37c0,4.49-2.18,6.24-4,6.93a7.49,7.49,0,0,1-5.58-.37l-.12-.06c-1.56-.68-3.89-2.09-6.09-6.49-4.42-8.88-8.12-9.72-10.56-10.28l-.14,0a10.5,10.5,0,0,0-8,2C13.92,35.34,12,37.81,12,42.35a9.75,9.75,0,0,0,2,6.52A9.91,9.91,0,0,0,24,52.3a9.65,9.65,0,0,0,3.9-1.81l1.39,1.26a.23.23,0,0,0,.32,0,.22.22,0,0,0,.06-.15v0l1-6.18v-.07a.23.23,0,0,0-.07-.17.21.21,0,0,0-.15,0h-.11L24.4,46.76h-.11a.19.19,0,0,0-.11.07.22.22,0,0,0,0,.32l.07.06,1.33,1.2a6.09,6.09,0,0,1-2.17.92,6.9,6.9,0,0,1-6.93-2.24l0-.05A6.72,6.72,0,0,1,15,42.35c0-2.69.79-4.68,2.35-5.93A7.57,7.57,0,0,1,22.87,35L23,35c2,.45,4.76,1.07,8.54,8.68,2,3.94,4.43,6.53,7.53,7.89a10.93,10.93,0,0,0,4.72,1.09,9.47,9.47,0,0,0,3.28-.58c1.8-.67,6-3,6-9.75,0-4.54-1.92-7-3.54-8.29"/><path class="cls-2" d="M22,8.51v2.54H21.1V5.52h1.36c.93,0,1.28.46,1.28,1.24v.71c0,.6-.21,1-.75,1.07l.89,2.51h-1Zm0-2.23V8h.31a.4.4,0,0,0,.46-.46V6.73c0-.31-.14-.45-.46-.45Z"/><path class="cls-2" d="M24.13,5.52h2.22v.76H25.06V7.86H26v.75h-.92v1.68h1.29v.76H24.13Z"/><path class="cls-2" d="M26.64,9.86V9.12h.87v.76c0,.31.14.49.46.49s.42-.2.42-.49V9.67A1,1,0,0,0,28,8.88l-.54-.55a1.87,1.87,0,0,1-.78-1.47V6.67A1.16,1.16,0,0,1,28,5.45c.93,0,1.3.46,1.3,1.26v.45h-.85V6.68c0-.32-.15-.48-.44-.48a.41.41,0,0,0-.44.46v.12c0,.31.17.49.44.75l.59.58a1.86,1.86,0,0,1,.75,1.44v.27A1.19,1.19,0,0,1,28,11.12,1.16,1.16,0,0,1,26.64,9.86Z"/><path class="cls-2" d="M29.69,5.52h1.38c.94,0,1.28.46,1.28,1.24V7.93c0,.77-.34,1.25-1.28,1.25h-.45v1.87h-.93Zm.93.76V8.46H31A.4.4,0,0,0,31.42,8V6.73c0-.31-.14-.45-.46-.45Z"/><path class="cls-2" d="M32.72,9.63V7a1.41,1.41,0,1,1,2.81,0V9.63a1.41,1.41,0,1,1-2.81,0Zm1.88.14v-3c0-.33-.14-.57-.48-.57s-.47.24-.47.57v3c0,.34.15.57.47.57S34.6,10.11,34.6,9.77Z"/><path class="cls-2" d="M36.73,7.58v3.47H36V5.52h.91l1,3.17V5.52h.78v5.53h-.82Z"/><path class="cls-2" d="M39,9.86V9.12h.87v.76c0,.31.14.49.45.49s.43-.2.43-.49V9.67a1,1,0,0,0-.42-.79l-.54-.55A1.84,1.84,0,0,1,39,6.86V6.67a1.16,1.16,0,0,1,1.31-1.22c.93,0,1.29.46,1.29,1.26v.45h-.84V6.68q0-.48-.45-.48a.41.41,0,0,0-.44.46v.12c0,.31.18.49.44.75l.6.58a1.86,1.86,0,0,1,.75,1.44v.27a1.2,1.2,0,0,1-1.35,1.3A1.16,1.16,0,0,1,39,9.86Z"/><path class="cls-2" d="M42.06,5.52H43v5.53h-.93Z"/><path class="cls-2" d="M43.41,5.52h1.35C45.69,5.52,46,6,46,6.73V7.3a.81.81,0,0,1-.55.88.84.84,0,0,1,.69.92v.74c0,.78-.35,1.21-1.28,1.21H43.41Zm.93,2.33h.33c.3,0,.44-.15.44-.45V6.73c0-.31-.14-.45-.45-.45h-.32Zm0,.71v1.73h.41c.31,0,.46-.15.46-.44V9c0-.29-.14-.45-.47-.45Z"/><path class="cls-2" d="M46.49,5.52h.93v4.77h1.11v.76h-2Z"/><path class="cls-2" d="M48.84,5.52h2.22v.76H49.77V7.86h.92v.75h-.92v1.68h1.29v.76H48.84Z"/><path class="cls-2" d="M21.1,17.38V14.7a1.31,1.31,0,0,1,1.39-1.49c1,0,1.31.57,1.31,1.39v.65H23v-.73c0-.34-.11-.54-.45-.54s-.47.24-.47.58v3c0,.33.14.57.47.57s.45-.21.45-.54v-1h.85v1c0,.79-.32,1.38-1.31,1.38A1.31,1.31,0,0,1,21.1,17.38Z"/><path class="cls-2" d="M24.19,17.38V14.7a1.41,1.41,0,1,1,2.82,0v2.68a1.41,1.41,0,1,1-2.82,0Zm1.89.15v-3c0-.34-.15-.58-.48-.58s-.48.24-.48.58v3c0,.33.15.57.48.57S26.08,17.86,26.08,17.53Z"/><path class="cls-2" d="M28.21,15.33v3.48h-.78V13.27h.91l1,3.18V13.27h.77v5.54h-.81Z"/><path class="cls-2" d="M30.49,17.62v-.75h.86v.76c0,.31.14.49.46.49s.43-.19.43-.49v-.21a1,1,0,0,0-.42-.78l-.55-.55a1.86,1.86,0,0,1-.77-1.48v-.19a1.15,1.15,0,0,1,1.3-1.21c.93,0,1.3.46,1.3,1.26v.44h-.85v-.48c0-.32-.15-.47-.44-.47a.41.41,0,0,0-.44.46v.11c0,.31.17.49.44.75l.6.59a1.86,1.86,0,0,1,.75,1.44v.27a1.2,1.2,0,0,1-1.36,1.3A1.16,1.16,0,0,1,30.49,17.62Z"/><path class="cls-2" d="M36.24,13.27v4.19c0,.86-.37,1.42-1.32,1.42a1.25,1.25,0,0,1-1.39-1.42V13.27h.93v4.28c0,.33.13.55.46.55s.46-.22.46-.55V13.27Z"/><path class="cls-2" d="M39.22,15.22h0l-.63,3.59h-.43l-.69-3.59h0v3.59h-.77V13.27h1.09l.6,3.12h0l.54-3.12h1.18v5.54h-.85Z"/><path class="cls-2" d="M40.48,13.27h1.38c.94,0,1.28.47,1.28,1.24v1.17c0,.78-.34,1.25-1.28,1.25h-.45v1.88h-.93Zm.93.76v2.18h.34c.32,0,.46-.15.46-.45V14.48c0-.3-.14-.45-.46-.45Z"/><path class="cls-2" d="M43.36,13.27h2.48V14h-.77v4.78h-.94V14h-.77Z"/><path class="cls-2" d="M46.15,13.27h.94v5.54h-.94Z"/><path class="cls-2" d="M47.51,17.38V14.7a1.41,1.41,0,1,1,2.82,0v2.68a1.41,1.41,0,1,1-2.82,0Zm1.89.15v-3c0-.34-.15-.58-.49-.58s-.47.24-.47.58v3c0,.33.15.57.47.57S49.4,17.86,49.4,17.53Z"/><path class="cls-2" d="M51.53,15.33v3.48h-.79V13.27h.92l1,3.18V13.27h.78v5.54h-.82Z"/><path class="cls-2" d="M21,26.57,22,21h1.06l1.05,5.54h-.95l-.17-1H22l-.16,1Zm1.17-1.76h.74l-.36-2.22h0Z"/><path class="cls-2" d="M25.17,23.09v3.48h-.79V21h.92l1,3.18V21h.78v5.54h-.82Z"/><path class="cls-2" d="M30.28,22.52v2.56c0,.85-.35,1.49-1.35,1.49H27.49V21h1.44C29.93,21,30.28,21.66,30.28,22.52Zm-1.46,3.29c.38,0,.53-.23.53-.57v-2.9a.49.49,0,0,0-.53-.55h-.4v4Z"/><path class="cls-2" d="M31.44,21h1.38c.93,0,1.28.46,1.28,1.24v1.17a1.11,1.11,0,0,1-1.28,1.25h-.45v1.88h-.93Zm.93.76V24h.34a.4.4,0,0,0,.46-.46V22.24c0-.3-.14-.45-.46-.45Z"/><path class="cls-2" d="M35.39,24v2.54h-.93V21h1.36c.94,0,1.28.46,1.28,1.24V23c0,.6-.21.95-.74,1.07l.89,2.52h-1Zm0-2.24v1.72h.32a.4.4,0,0,0,.45-.46v-.81a.39.39,0,0,0-.45-.45Z"/><path class="cls-2" d="M37.49,25.14V22.46a1.41,1.41,0,1,1,2.82,0v2.68a1.41,1.41,0,1,1-2.82,0Zm1.89.14v-3c0-.33-.15-.57-.48-.57s-.48.24-.48.57v3c0,.34.15.57.48.57S39.38,25.62,39.38,25.28Z"/><path class="cls-2" d="M43.51,22.52v2.56c0,.85-.35,1.49-1.35,1.49H40.73V21h1.43C43.16,21,43.51,21.66,43.51,22.52Zm-1.46,3.29c.38,0,.53-.23.53-.57v-2.9a.49.49,0,0,0-.53-.55h-.39v4Z"/><path class="cls-2" d="M46.63,21v4.19c0,.86-.37,1.41-1.32,1.41a1.24,1.24,0,0,1-1.38-1.41V21h.93v4.28c0,.32.13.54.45.54s.46-.22.46-.54V21Z"/><path class="cls-2" d="M47,25.14V22.46c0-.87.41-1.5,1.39-1.5s1.32.58,1.32,1.39V23H48.9v-.73c0-.34-.12-.54-.45-.54S48,22,48,22.31v3c0,.34.13.57.47.57s.45-.21.45-.53v-1h.85v.95c0,.79-.33,1.38-1.32,1.38A1.31,1.31,0,0,1,47,25.14Z"/><path class="cls-2" d="M50,21h2.47v.76h-.76v4.78h-.94V21.79H50Z"/><path class="cls-2" d="M52.74,21h.93v5.54h-.93Z"/><path class="cls-2" d="M54.1,25.14V22.46a1.41,1.41,0,1,1,2.81,0v2.68a1.41,1.41,0,1,1-2.81,0Zm1.88.14v-3c0-.33-.14-.57-.48-.57S55,22,55,22.31v3c0,.34.15.57.47.57S56,25.62,56,25.28Z"/><path class="cls-2" d="M58.11,23.09v3.48h-.78V21h.91l1,3.18V21H60v5.54h-.81Z"/></g></g></svg>