<svg xmlns="http://www.w3.org/2000/svg" viewBox="0 0 65.69 65.69"><defs><style>.cls-1{fill:#fcc30b;}.cls-2{fill:#fff;}</style></defs><g id="Layer_2" data-name="Layer 2"><g id="OUTLINE"><rect class="cls-1" width="65.69" height="65.69"/><polygon class="cls-2" points="6.74 7.32 10.18 7.32 7.21 18.75 9.41 18.75 12.32 7.56 12.32 5.5 6.74 5.5 6.74 7.32"/><path class="cls-2" d="M32.87,31.83a9.63,9.63,0,1,0,9.62,9.62,9.63,9.63,0,0,0-9.62-9.62m-.71,3.8a.72.72,0,0,1,1.43,0v3.3a.72.72,0,0,1-1.43,0Zm.71,10.76a5,5,0,0,1-1.49-9.79v1.86a3.29,3.29,0,1,0,3,0V36.59a5,5,0,0,1-1.48,9.8"/><path class="cls-2" d="M21.82,41.37a.8.8,0,0,0-.74-.79H16.86a.79.79,0,0,0,0,1.58h4.22a.8.8,0,0,0,.74-.79"/><path class="cls-2" d="M49.63,41.37a.8.8,0,0,0-.74-.79H44.67a.79.79,0,0,0,0,1.58h4.22a.8.8,0,0,0,.74-.79"/><path class="cls-2" d="M32.87,30.32a.8.8,0,0,0,.79-.74V25.36a.79.79,0,0,0-1.58,0v4.22a.8.8,0,0,0,.79.74"/><path class="cls-2" d="M32.87,58.12a.8.8,0,0,0,.79-.74V53.17a.79.79,0,0,0-1.58,0v4.21a.8.8,0,0,0,.79.74"/><path class="cls-2" d="M23.28,35.88A.81.81,0,0,0,23,34.83l-3.66-2.1a.8.8,0,0,0-.79,1.38l3.66,2.09a.82.82,0,0,0,1-.32"/><path class="cls-2" d="M47.41,49.69a.79.79,0,0,0-.25-1l-3.66-2.1a.79.79,0,0,0-.78,1.38L46.38,50a.79.79,0,0,0,1-.32"/><path class="cls-2" d="M38.36,31.78a.83.83,0,0,0,1.06-.25l2.09-3.66a.81.81,0,0,0-.32-1,.79.79,0,0,0-1,.25L38,30.74a.82.82,0,0,0,.32,1"/><path class="cls-2" d="M24.55,55.91a.79.79,0,0,0,1.05-.25L27.7,52a.79.79,0,0,0-1.38-.78l-2.09,3.66a.79.79,0,0,0,.32,1"/><path class="cls-2" d="M27.36,31.79a.82.82,0,0,0,.32-1l-2.1-3.65a.8.8,0,0,0-1.38.79l2.1,3.65a.81.81,0,0,0,1.06.25"/><path class="cls-2" d="M41.22,55.89a.79.79,0,0,0,.32-1l-2.1-3.66A.82.82,0,0,0,38.38,51a.8.8,0,0,0-.31,1l2.1,3.66a.8.8,0,0,0,1,.24"/><path class="cls-2" d="M42.45,35.86a.82.82,0,0,0,1,.32l3.65-2.1A.82.82,0,0,0,47.4,33a.83.83,0,0,0-1-.32L42.7,34.8a.82.82,0,0,0-.25,1.06"/><path class="cls-2" d="M18.35,49.72a.79.79,0,0,0,1,.32L23,47.94a.82.82,0,0,0,.25-1.06.8.8,0,0,0-1-.31l-3.66,2.1a.8.8,0,0,0-.24,1"/><path class="cls-2" d="M18.56,11.05l1.05-5.53h1.06l1,5.53h-.95l-.18-1h-1l-.17,1ZM19.73,9.3h.74L20.1,7.08h0Z"/><path class="cls-2" d="M22.1,5.52h2.18v.76H23V7.86H24v.75H23v2.44H22.1Z"/><path class="cls-2" d="M24.69,5.52h2.18v.76H25.62V7.86h.93v.75h-.93v2.44h-.93Z"/><path class="cls-2" d="M27.2,9.63V7A1.41,1.41,0,1,1,30,7V9.63a1.41,1.41,0,1,1-2.82,0Zm1.88.14v-3c0-.33-.14-.57-.48-.57s-.47.24-.47.57v3c0,.34.15.57.47.57S29.08,10.11,29.08,9.77Z"/><path class="cls-2" d="M31.48,8.51v2.54h-.93V5.52H31.9c.94,0,1.28.46,1.28,1.24v.71c0,.6-.21,1-.74,1.07l.89,2.51h-1Zm0-2.23V8h.31c.32,0,.45-.16.45-.46V6.73c0-.31-.13-.45-.45-.45Z"/><path class="cls-2" d="M36.47,7V9.57c0,.85-.35,1.48-1.34,1.48H33.69V5.52h1.44C36.12,5.52,36.47,6.15,36.47,7ZM35,10.29c.38,0,.53-.22.53-.56V6.83A.49.49,0,0,0,35,6.28h-.39v4Z"/><path class="cls-2" d="M36.73,11.05l1.05-5.53h1.06l1,5.53h-1l-.17-1h-1l-.16,1ZM37.9,9.3h.74l-.36-2.22h0Z"/><path class="cls-2" d="M40.28,5.52h1.34c.93,0,1.24.43,1.24,1.21V7.3a.81.81,0,0,1-.55.88A.84.84,0,0,1,43,9.1v.74c0,.78-.35,1.21-1.28,1.21H40.28Zm.93,2.33h.32c.31,0,.44-.15.44-.45V6.73c0-.31-.13-.45-.44-.45h-.32Zm0,.71v1.73h.41a.39.39,0,0,0,.45-.44V9a.4.4,0,0,0-.46-.45Z"/><path class="cls-2" d="M43.47,5.52h.93v4.77h1.11v.76h-2Z"/><path class="cls-2" d="M45.93,5.52h2.23v.76h-1.3V7.86h.93v.75h-.93v1.68h1.3v.76H45.93Z"/><path class="cls-2" d="M49.36,11.05l1-5.53h1.06l1.05,5.53h-1l-.17-1h-1l-.17,1ZM50.53,9.3h.74l-.36-2.22h0Z"/><path class="cls-2" d="M53.69,7.58v3.47h-.78V5.52h.91l1,3.17V5.52h.78v5.53h-.82Z"/><path class="cls-2" d="M58.91,7V9.57c0,.85-.35,1.48-1.34,1.48H56.13V5.52h1.44C58.56,5.52,58.91,6.15,58.91,7Zm-1.46,3.29c.39,0,.53-.22.53-.56V6.83a.48.48,0,0,0-.53-.55h-.39v4Z"/><path class="cls-2" d="M18.71,17.38V14.7a1.31,1.31,0,0,1,1.39-1.49c1,0,1.31.57,1.31,1.39v.65h-.85v-.73c0-.34-.11-.54-.45-.54s-.47.24-.47.58v3c0,.33.14.57.47.57s.45-.21.45-.54v-1h.85v1c0,.79-.33,1.38-1.31,1.38A1.31,1.31,0,0,1,18.71,17.38Z"/><path class="cls-2" d="M21.92,13.27h.93v4.78H24v.76h-2Z"/><path class="cls-2" d="M24.38,13.27H26.6V14H25.31v1.59h.92v.75h-.92v1.68H26.6v.76H24.38Z"/><path class="cls-2" d="M27,18.81,28,13.27h1.06l1.05,5.54h-.95l-.17-1H28l-.17,1Zm1.17-1.76h.74l-.36-2.22h0Z"/><path class="cls-2" d="M31.28,15.33v3.48H30.5V13.27h.91l1,3.18V13.27h.78v5.54h-.82Z"/><path class="cls-2" d="M34.58,13.27H36.8V14H35.51v1.59h.92v.75h-.92v1.68H36.8v.76H34.58Z"/><path class="cls-2" d="M38.08,15.33v3.48H37.3V13.27h.91l1,3.18V13.27H40v5.54h-.82Z"/><path class="cls-2" d="M40.52,13.27h2.22V14H41.45v1.59h.92v.75h-.92v1.68h1.29v.76H40.52Z"/><path class="cls-2" d="M44.17,16.27v2.54h-.93V13.27H44.6c.93,0,1.28.47,1.28,1.24v.72a.93.93,0,0,1-.75,1.06L46,18.81H45Zm0-2.24v1.73h.31a.41.41,0,0,0,.46-.46v-.82c0-.3-.14-.45-.46-.45Z"/><path class="cls-2" d="M47.79,15.85h1.32v3h-.67v-.6a.84.84,0,0,1-.89.67c-.8,0-1.17-.64-1.17-1.5V14.7a1.31,1.31,0,0,1,1.4-1.49c1,0,1.33.57,1.33,1.39v.49h-.85v-.57c0-.34-.13-.54-.46-.54s-.49.24-.49.58v3c0,.33.14.57.46.57s.46-.17.46-.53v-1h-.44Z"/><path class="cls-2" d="M51.25,16.7v2.11h-.93V16.7l-1-3.43h1l.57,2.1h0l.57-2.1h.89Z"/><polygon class="cls-2" points="6.74 7.32 10.18 7.32 7.21 18.75 9.41 18.75 12.32 7.56 12.32 5.5 6.74 5.5 6.74 7.32"/><path class="cls-2" d="M32.87,31.83a9.63,9.63,0,1,0,9.62,9.62,9.63,9.63,0,0,0-9.62-9.62m-.71,3.8a.72.72,0,0,1,1.43,0v3.3a.72.72,0,0,1-1.43,0Zm.71,10.76a5,5,0,0,1-1.49-9.79v1.86a3.29,3.29,0,1,0,3,0V36.59a5,5,0,0,1-1.48,9.8"/><path class="cls-2" d="M21.82,41.37a.8.8,0,0,0-.74-.79H16.86a.79.79,0,0,0,0,1.58h4.22a.8.8,0,0,0,.74-.79"/><path class="cls-2" d="M49.63,41.37a.8.8,0,0,0-.74-.79H44.67a.79.79,0,0,0,0,1.58h4.22a.8.8,0,0,0,.74-.79"/><path class="cls-2" d="M32.87,30.32a.8.8,0,0,0,.79-.74V25.36a.79.79,0,0,0-1.58,0v4.22a.8.8,0,0,0,.79.74"/><path class="cls-2" d="M32.87,58.12a.8.8,0,0,0,.79-.74V53.17a.79.79,0,0,0-1.58,0v4.21a.8.8,0,0,0,.79.74"/><path class="cls-2" d="M23.28,35.88A.81.81,0,0,0,23,34.83l-3.66-2.1a.8.8,0,0,0-.79,1.38l3.66,2.09a.82.82,0,0,0,1-.32"/><path class="cls-2" d="M47.41,49.69a.79.79,0,0,0-.25-1l-3.66-2.1a.79.79,0,0,0-.78,1.38L46.38,50a.79.79,0,0,0,1-.32"/><path class="cls-2" d="M38.36,31.78a.83.83,0,0,0,1.06-.25l2.09-3.66a.81.81,0,0,0-.32-1,.79.79,0,0,0-1,.25L38,30.74a.82.82,0,0,0,.32,1"/><path class="cls-2" d="M24.55,55.91a.79.79,0,0,0,1.05-.25L27.7,52a.79.79,0,0,0-1.38-.78l-2.09,3.66a.79.79,0,0,0,.32,1"/><path class="cls-2" d="M27.36,31.79a.82.82,0,0,0,.32-1l-2.1-3.65a.8.8,0,0,0-1.38.79l2.1,3.65a.81.81,0,0,0,1.06.25"/><path class="cls-2" d="M41.22,55.89a.79.79,0,0,0,.32-1l-2.1-3.66A.82.82,0,0,0,38.38,51a.8.8,0,0,0-.31,1l2.1,3.66a.8.8,0,0,0,1,.24"/><path class="cls-2" d="M42.45,35.86a.82.82,0,0,0,1,.32l3.65-2.1A.82.82,0,0,0,47.4,33a.83.83,0,0,0-1-.32L42.7,34.8a.82.82,0,0,0-.25,1.06"/><path class="cls-2" d="M18.35,49.72a.79.79,0,0,0,1,.32L23,47.94a.82.82,0,0,0,.25-1.06.8.8,0,0,0-1-.31l-3.66,2.1a.8.8,0,0,0-.24,1"/><path class="cls-2" d="M18.56,11.05l1.05-5.53h1.06l1,5.53h-.95l-.18-1h-1l-.17,1ZM19.73,9.3h.74L20.1,7.08h0Z"/><path class="cls-2" d="M22.1,5.52h2.18v.76H23V7.86H24v.75H23v2.44H22.1Z"/><path class="cls-2" d="M24.69,5.52h2.18v.76H25.62V7.86h.93v.75h-.93v2.44h-.93Z"/><path class="cls-2" d="M27.2,9.63V7A1.41,1.41,0,1,1,30,7V9.63a1.41,1.41,0,1,1-2.82,0Zm1.88.14v-3c0-.33-.14-.57-.48-.57s-.47.24-.47.57v3c0,.34.15.57.47.57S29.08,10.11,29.08,9.77Z"/><path class="cls-2" d="M31.48,8.51v2.54h-.93V5.52H31.9c.94,0,1.28.46,1.28,1.24v.71c0,.6-.21,1-.74,1.07l.89,2.51h-1Zm0-2.23V8h.31c.32,0,.45-.16.45-.46V6.73c0-.31-.13-.45-.45-.45Z"/><path class="cls-2" d="M36.47,7V9.57c0,.85-.35,1.48-1.34,1.48H33.69V5.52h1.44C36.12,5.52,36.47,6.15,36.47,7ZM35,10.29c.38,0,.53-.22.53-.56V6.83A.49.49,0,0,0,35,6.28h-.39v4Z"/><path class="cls-2" d="M36.73,11.05l1.05-5.53h1.06l1,5.53h-1l-.17-1h-1l-.16,1ZM37.9,9.3h.74l-.36-2.22h0Z"/><path class="cls-2" d="M40.28,5.52h1.34c.93,0,1.24.43,1.24,1.21V7.3a.81.81,0,0,1-.55.88A.84.84,0,0,1,43,9.1v.74c0,.78-.35,1.21-1.28,1.21H40.28Zm.93,2.33h.32c.31,0,.44-.15.44-.45V6.73c0-.31-.13-.45-.44-.45h-.32Zm0,.71v1.73h.41a.39.39,0,0,0,.45-.44V9a.4.4,0,0,0-.46-.45Z"/><path class="cls-2" d="M43.47,5.52h.93v4.77h1.11v.76h-2Z"/><path class="cls-2" d="M45.93,5.52h2.23v.76h-1.3V7.86h.93v.75h-.93v1.68h1.3v.76H45.93Z"/><path class="cls-2" d="M49.36,11.05l1-5.53h1.06l1.05,5.53h-1l-.17-1h-1l-.17,1ZM50.53,9.3h.74l-.36-2.22h0Z"/><path class="cls-2" d="M53.69,7.58v3.47h-.78V5.52h.91l1,3.17V5.52h.78v5.53h-.82Z"/><path class="cls-2" d="M58.91,7V9.57c0,.85-.35,1.48-1.34,1.48H56.13V5.52h1.44C58.56,5.52,58.91,6.15,58.91,7Zm-1.46,3.29c.39,0,.53-.22.53-.56V6.83a.48.48,0,0,0-.53-.55h-.39v4Z"/><path class="cls-2" d="M18.71,17.38V14.7a1.31,1.31,0,0,1,1.39-1.49c1,0,1.31.57,1.31,1.39v.65h-.85v-.73c0-.34-.11-.54-.45-.54s-.47.24-.47.58v3c0,.33.14.57.47.57s.45-.21.45-.54v-1h.85v1c0,.79-.33,1.38-1.31,1.38A1.31,1.31,0,0,1,18.71,17.38Z"/><path class="cls-2" d="M21.92,13.27h.93v4.78H24v.76h-2Z"/><path class="cls-2" d="M24.38,13.27H26.6V14H25.31v1.59h.92v.75h-.92v1.68H26.6v.76H24.38Z"/><path class="cls-2" d="M27,18.81,28,13.27h1.06l1.05,5.54h-.95l-.17-1H28l-.17,1Zm1.17-1.76h.74l-.36-2.22h0Z"/><path class="cls-2" d="M31.28,15.33v3.48H30.5V13.27h.91l1,3.18V13.27h.78v5.54h-.82Z"/><path class="cls-2" d="M34.58,13.27H36.8V14H35.51v1.59h.92v.75h-.92v1.68H36.8v.76H34.58Z"/><path class="cls-2" d="M38.08,15.33v3.48H37.3V13.27h.91l1,3.18V13.27H40v5.54h-.82Z"/><path class="cls-2" d="M40.52,13.27h2.22V14H41.45v1.59h.92v.75h-.92v1.68h1.29v.76H40.52Z"/><path class="cls-2" d="M44.17,16.27v2.54h-.93V13.27H44.6c.93,0,1.28.47,1.28,1.24v.72a.93.93,0,0,1-.75,1.06L46,18.81H45Zm0-2.24v1.73h.31a.41.41,0,0,0,.46-.46v-.82c0-.3-.14-.45-.46-.45Z"/><path class="cls-2" d="M47.79,15.85h1.32v3h-.67v-.6a.84.84,0,0,1-.89.67c-.8,0-1.17-.64-1.17-1.5V14.7a1.31,1.31,0,0,1,1.4-1.49c1,0,1.33.57,1.33,1.39v.49h-.85v-.57c0-.34-.13-.54-.46-.54s-.49.24-.49.58v3c0,.33.14.57.46.57s.46-.17.46-.53v-1h-.44Z"/><path class="cls-2" d="M51.25,16.7v2.11h-.93V16.7l-1-3.43h1l.57,2.1h0l.57-2.1h.89Z"/></g></g></svg>