<svg xmlns="http://www.w3.org/2000/svg" viewBox="0 0 66.17 66.17"><defs><style>.cls-1{fill:#df1a82;}.cls-2{fill:#fff;}</style></defs><g id="Layer_2" data-name="Layer 2"><g id="OUTLINE"><rect class="cls-1" x="0.12" y="0.12" width="65.94" height="65.94" transform="translate(-0.12 0.12) rotate(-0.2)"/><path class="cls-2" d="M39.06,43.45l-12.22,0a.14.14,0,0,0-.13.15v3.67a.14.14,0,0,0,.13.15l12.22,0a.15.15,0,0,0,.14-.15V43.6a.14.14,0,0,0-.14-.15"/><path class="cls-2" d="M39,35.63l-12.22,0a.14.14,0,0,0-.13.15V39.5a.15.15,0,0,0,.14.15l12.22,0a.14.14,0,0,0,.13-.15V35.78a.15.15,0,0,0-.14-.15"/><path class="cls-2" d="M38.84,30.08,33,24.24a.11.11,0,0,0-.15,0L27,30.12a.1.1,0,0,0,.07.18l11.73,0a.1.1,0,0,0,.07-.18"/><path class="cls-2" d="M44.41,47.44l5.84-5.88a.1.1,0,0,0,0-.14l-5.88-5.85a.11.11,0,0,0-.18.07l.05,11.73a.1.1,0,0,0,.17.07"/><path class="cls-2" d="M27.05,53l5.88,5.85a.11.11,0,0,0,.15,0L38.92,53a.1.1,0,0,0-.07-.17l-11.73,0a.1.1,0,0,0-.07.17"/><path class="cls-2" d="M21.48,35.65l-5.85,5.89a.11.11,0,0,0,0,.14l5.88,5.84a.1.1,0,0,0,.17-.07l0-11.73a.1.1,0,0,0-.17-.07"/><polygon class="cls-2" points="6.7 9.14 6.7 19.29 8.93 19.29 8.93 6.03 7.15 6.03 5.1 8.43 5.1 10.76 5.12 10.76 6.68 9.14 6.7 9.14"/><path class="cls-2" d="M17.07,15.87V9.45c0-2.07-1-3.58-3.31-3.58s-3.28,1.51-3.28,3.58v6.42c0,2.05,1,3.57,3.28,3.57s3.31-1.52,3.31-3.57m-4.36.35V9.1c0-.8.29-1.37,1-1.37s1.08.57,1.08,1.37v7.12c0,.8-.3,1.37-1.08,1.37s-1-.57-1-1.37"/><polygon class="cls-2" points="6.7 9.14 6.7 19.29 8.93 19.29 8.93 6.03 7.15 6.03 5.1 8.43 5.1 10.76 5.12 10.76 6.68 9.14 6.7 9.14"/><path class="cls-2" d="M17.07,15.87V9.45c0-2.07-1-3.58-3.31-3.58s-3.28,1.51-3.28,3.58v6.42c0,2.05,1,3.57,3.28,3.57s3.31-1.52,3.31-3.57m-4.36.35V9.1c0-.8.29-1.37,1-1.37s1.08.57,1.08,1.37v7.12c0,.8-.3,1.37-1.08,1.37s-1-.57-1-1.37"/><path class="cls-2" d="M22.51,9.05v2.54h-.93V6.05h1.35c.94,0,1.28.46,1.28,1.24V8c0,.6-.21.95-.74,1.07l.89,2.52h-1Zm0-2.24V8.53h.31c.32,0,.45-.16.45-.46V7.26c0-.3-.13-.45-.45-.45Z"/><path class="cls-2" d="M24.72,6.05h2.22v.76H25.65V8.39h.92v.75h-.92v1.69h1.29v.76H24.72Z"/><path class="cls-2" d="M30.22,7.54V10.1c0,.85-.35,1.49-1.35,1.49H27.44V6.05h1.43C29.87,6.05,30.22,6.68,30.22,7.54Zm-1.46,3.29c.38,0,.53-.23.53-.57V7.36a.49.49,0,0,0-.53-.55h-.39v4Z"/><path class="cls-2" d="M33.46,6.05v4.19c0,.86-.37,1.41-1.32,1.41a1.25,1.25,0,0,1-1.39-1.41V6.05h.93v4.28c0,.32.13.55.46.55s.46-.23.46-.55V6.05Z"/><path class="cls-2" d="M34,10.16V7.48c0-.87.4-1.5,1.38-1.5s1.32.58,1.32,1.39V8h-.85V7.3c0-.34-.12-.54-.45-.54s-.47.24-.47.57v3c0,.34.14.58.47.58s.45-.22.45-.54v-1h.85v.95c0,.79-.33,1.38-1.32,1.38A1.3,1.3,0,0,1,34,10.16Z"/><path class="cls-2" d="M37.19,6.05h2.23v.76h-1.3V8.39h.93v.75h-.93v1.69h1.3v.76H37.19Z"/><path class="cls-2" d="M42.7,7.54V10.1c0,.85-.35,1.49-1.35,1.49H39.91V6.05h1.44C42.35,6.05,42.7,6.68,42.7,7.54Zm-1.46,3.29c.38,0,.53-.23.53-.57V7.36a.49.49,0,0,0-.53-.55h-.4v4Z"/><path class="cls-2" d="M21.58,13.81h.93v5.53h-.93Z"/><path class="cls-2" d="M23.83,15.86v3.48h-.78V13.81H24L25,17V13.81h.78v5.53h-.82Z"/><path class="cls-2" d="M26.27,13.81h2.22v.75H27.2v1.59h.92v.75H27.2v1.68h1.29v.76H26.27Z"/><path class="cls-2" d="M30,19.72v-.38a1.28,1.28,0,0,1-1.06-1.43V15.23a1.41,1.41,0,1,1,2.81,0v2.68A1.33,1.33,0,0,1,31,19.22l.68.13V20Zm.82-1.61v-3c0-.34-.14-.57-.48-.57s-.47.23-.47.57v3c0,.32.15.57.47.57S30.79,18.43,30.79,18.11Z"/><path class="cls-2" d="M35,13.81V18c0,.86-.37,1.42-1.32,1.42A1.25,1.25,0,0,1,32.25,18V13.81h.94v4.27c0,.33.13.55.45.55s.46-.22.46-.55V13.81Z"/><path class="cls-2" d="M35.22,19.34l1-5.53h1.06l1.06,5.53h-1l-.17-1h-1l-.16,1Zm1.17-1.75h.74l-.37-2.23h0Z"/><path class="cls-2" d="M38.76,13.81h.93v4.77H40.8v.76h-2Z"/><path class="cls-2" d="M41.23,13.81h.93v5.53h-.93Z"/><path class="cls-2" d="M42.59,13.81h2.47v.75H44.3v4.78h-.94V14.56h-.77Z"/><path class="cls-2" d="M45.5,13.81h.93v5.53H45.5Z"/><path class="cls-2" d="M47,13.81h2.22v.75H47.9v1.59h.92v.75H47.9v1.68h1.29v.76H47Z"/><path class="cls-2" d="M49.59,18.15v-.74h.87v.76c0,.31.14.49.46.49s.42-.2.42-.49V18a1,1,0,0,0-.41-.78l-.55-.55a1.87,1.87,0,0,1-.78-1.48V15a1.16,1.16,0,0,1,1.31-1.22c.93,0,1.3.46,1.3,1.26v.45h-.85V15c0-.31-.15-.47-.44-.47a.41.41,0,0,0-.44.46v.11c0,.31.17.49.44.75l.59.59a1.86,1.86,0,0,1,.75,1.44v.27a1.19,1.19,0,0,1-1.35,1.3A1.16,1.16,0,0,1,49.59,18.15Z"/></g></g></svg>