<svg xmlns="http://www.w3.org/2000/svg" viewBox="0 0 65.69 65.69"><defs><style>.cls-1{fill:#dda63a;}.cls-2{fill:#fff;}</style></defs><g id="Layer_2" data-name="Layer 2"><g id="OUTLINE"><rect class="cls-1" width="65.69" height="65.69"/><path class="cls-2" d="M12.29,16.93H8.63v-.62a2.5,2.5,0,0,1,.94-2L11,12.77a4.16,4.16,0,0,0,1.4-3.34V8.14c0-1.89-.92-2.79-2.91-2.79A2.62,2.62,0,0,0,6.54,8.24v1.6h2V8.18c0-.8.39-1,.86-1s.8.17.8,1v1.1a2.6,2.6,0,0,1-.82,2.28L8.16,12.85A4.63,4.63,0,0,0,6.5,16.31v2.44h5.79Z"/><path class="cls-2" d="M26.2,55.82v1a.45.45,0,0,0,.43.42H37.5a.44.44,0,0,0,.43-.44h0v-1a16.85,16.85,0,0,0,11.67-13v-.09a.44.44,0,0,0-.43-.44H14.64a.44.44,0,0,0-.44.44l0,.19a16.92,16.92,0,0,0,12,13"/><path class="cls-2" d="M37.92,27.47c-.14.2-3.48,5,.07,8.89,1.63,1.78,1.49,3.36,1,4.42H41.3a5.61,5.61,0,0,0-1.58-5.56c-2.62-2.86,0-6.73.07-6.79a.85.85,0,0,0-.37-1.27,1.2,1.2,0,0,0-1.5.31"/><path class="cls-2" d="M32.15,40.78h2.28a5.6,5.6,0,0,0-1.59-5.56c-2.61-2.86,0-6.73.08-6.79a.85.85,0,0,0-.37-1.27,1.2,1.2,0,0,0-1.5.31c-.15.2-3.48,5,.07,8.89,1.63,1.78,1.49,3.36,1,4.42"/><path class="cls-2" d="M24.18,27.47c-.15.2-3.48,5,.07,8.89,1.63,1.78,1.49,3.36,1,4.42h2.28A5.59,5.59,0,0,0,26,35.22c-2.62-2.86,0-6.73.08-6.79a.85.85,0,0,0-.38-1.27,1.19,1.19,0,0,0-1.49.31"/><path class="cls-2" d="M19.66,10.12h1.42v.76H18.69v-.76l1.46-4H18.84V5.35h2.29v.76Z"/><path class="cls-2" d="M21.62,5.35h2.23v.76h-1.3V7.69h.93v.75h-.93v1.68h1.3v.76H21.62Z"/><path class="cls-2" d="M25.27,8.34v2.54h-.93V5.35H25.7c.94,0,1.28.46,1.28,1.24V7.3c0,.59-.21,1-.74,1.07l.89,2.51h-1Zm0-2.23V7.83h.31A.4.4,0,0,0,26,7.37V6.56c0-.31-.14-.45-.46-.45Z"/><path class="cls-2" d="M27.49,9.45V6.78a1.41,1.41,0,1,1,2.81,0V9.45a1.41,1.41,0,1,1-2.81,0Zm1.88.15v-3c0-.34-.14-.57-.48-.57s-.47.23-.47.57v3c0,.34.14.57.47.57S29.37,9.94,29.37,9.6Z"/><path class="cls-2" d="M20.59,16.2h-.9v2.44h-.93V13.1h.93v2.35h.9V13.1h.94v5.54h-.94Z"/><path class="cls-2" d="M24.76,13.1v4.19c0,.86-.37,1.41-1.32,1.41a1.24,1.24,0,0,1-1.38-1.41V13.1H23v4.28c0,.33.13.55.45.55s.46-.22.46-.55V13.1Z"/><path class="cls-2" d="M26.07,15.16v3.48h-.78V13.1h.91l1,3.18V13.1H28v5.54h-.81Z"/><path class="cls-2" d="M29.92,15.68h1.32v3h-.67V18a.83.83,0,0,1-.89.67c-.8,0-1.17-.63-1.17-1.49V14.53A1.31,1.31,0,0,1,29.91,13c1,0,1.33.57,1.33,1.39v.49h-.85v-.57c0-.34-.13-.54-.46-.54s-.48.24-.48.57v3c0,.33.13.57.45.57s.46-.17.46-.53v-1h-.44Z"/><path class="cls-2" d="M31.77,13.1H34v.76H32.7v1.59h.93v.75H32.7v1.68H34v.76H31.77Z"/><path class="cls-2" d="M35.42,16.1v2.54h-.93V13.1h1.36c.93,0,1.28.47,1.28,1.24v.71c0,.6-.21.95-.75,1.07l.89,2.52h-1Zm0-2.24v1.73h.31a.41.41,0,0,0,.46-.46v-.82c0-.3-.14-.45-.46-.45Z"/><path class="cls-2" d="M12.29,16.93H8.63v-.62a2.5,2.5,0,0,1,.94-2L11,12.77a4.16,4.16,0,0,0,1.4-3.34V8.14c0-1.89-.92-2.79-2.91-2.79A2.62,2.62,0,0,0,6.54,8.24v1.6h2V8.18c0-.8.39-1,.86-1s.8.17.8,1v1.1a2.6,2.6,0,0,1-.82,2.28L8.16,12.85A4.63,4.63,0,0,0,6.5,16.31v2.44h5.79Z"/><path class="cls-2" d="M26.2,55.82v1a.45.45,0,0,0,.43.42H37.5a.44.44,0,0,0,.43-.44h0v-1a16.85,16.85,0,0,0,11.67-13v-.09a.44.44,0,0,0-.43-.44H14.64a.44.44,0,0,0-.44.44l0,.19a16.92,16.92,0,0,0,12,13"/><path class="cls-2" d="M37.92,27.47c-.14.2-3.48,5,.07,8.89,1.63,1.78,1.49,3.36,1,4.42H41.3a5.61,5.61,0,0,0-1.58-5.56c-2.62-2.86,0-6.73.07-6.79a.85.85,0,0,0-.37-1.27,1.2,1.2,0,0,0-1.5.31"/><path class="cls-2" d="M32.15,40.78h2.28a5.6,5.6,0,0,0-1.59-5.56c-2.61-2.86,0-6.73.08-6.79a.85.85,0,0,0-.37-1.27,1.2,1.2,0,0,0-1.5.31c-.15.2-3.48,5,.07,8.89,1.63,1.78,1.49,3.36,1,4.42"/><path class="cls-2" d="M24.18,27.47c-.15.2-3.48,5,.07,8.89,1.63,1.78,1.49,3.36,1,4.42h2.28A5.59,5.59,0,0,0,26,35.22c-2.62-2.86,0-6.73.08-6.79a.85.85,0,0,0-.38-1.27,1.19,1.19,0,0,0-1.49.31"/><path class="cls-2" d="M19.66,10.12h1.42v.76H18.69v-.76l1.46-4H18.84V5.35h2.29v.76Z"/><path class="cls-2" d="M21.62,5.35h2.23v.76h-1.3V7.69h.93v.75h-.93v1.68h1.3v.76H21.62Z"/><path class="cls-2" d="M25.27,8.34v2.54h-.93V5.35H25.7c.94,0,1.28.46,1.28,1.24V7.3c0,.59-.21,1-.74,1.07l.89,2.51h-1Zm0-2.23V7.83h.31A.4.4,0,0,0,26,7.37V6.56c0-.31-.14-.45-.46-.45Z"/><path class="cls-2" d="M27.49,9.45V6.78a1.41,1.41,0,1,1,2.81,0V9.45a1.41,1.41,0,1,1-2.81,0Zm1.88.15v-3c0-.34-.14-.57-.48-.57s-.47.23-.47.57v3c0,.34.14.57.47.57S29.37,9.94,29.37,9.6Z"/><path class="cls-2" d="M20.59,16.2h-.9v2.44h-.93V13.1h.93v2.35h.9V13.1h.94v5.54h-.94Z"/><path class="cls-2" d="M24.76,13.1v4.19c0,.86-.37,1.41-1.32,1.41a1.24,1.24,0,0,1-1.38-1.41V13.1H23v4.28c0,.33.13.55.45.55s.46-.22.46-.55V13.1Z"/><path class="cls-2" d="M26.07,15.16v3.48h-.78V13.1h.91l1,3.18V13.1H28v5.54h-.81Z"/><path class="cls-2" d="M29.92,15.68h1.32v3h-.67V18a.83.83,0,0,1-.89.67c-.8,0-1.17-.63-1.17-1.49V14.53A1.31,1.31,0,0,1,29.91,13c1,0,1.33.57,1.33,1.39v.49h-.85v-.57c0-.34-.13-.54-.46-.54s-.48.24-.48.57v3c0,.33.13.57.45.57s.46-.17.46-.53v-1h-.44Z"/><path class="cls-2" d="M31.77,13.1H34v.76H32.7v1.59h.93v.75H32.7v1.68H34v.76H31.77Z"/><path class="cls-2" d="M35.42,16.1v2.54h-.93V13.1h1.36c.93,0,1.28.47,1.28,1.24v.71c0,.6-.21.95-.75,1.07l.89,2.52h-1Zm0-2.24v1.73h.31a.41.41,0,0,0,.46-.46v-.82c0-.3-.14-.45-.46-.45Z"/></g></g></svg>