<svg xmlns="http://www.w3.org/2000/svg" viewBox="0 0 65.69 65.69"><defs><style>.cls-1{fill:#3f7e44;}.cls-2{fill:#fff;}</style></defs><g id="Layer_2" data-name="Layer 2"><g id="OUTLINE"><rect class="cls-1" width="65.69" height="65.69"/><polygon class="cls-2" points="8.29 5.51 8.29 18.75 6.07 18.75 6.07 8.62 6.04 8.62 4.48 10.23 4.46 10.23 4.46 7.91 6.51 5.51 8.29 5.51"/><path class="cls-2" d="M15.63,8.38V9.53a2.11,2.11,0,0,1-1.52,2.15,2,2,0,0,1,1.64,2.25v2c0,1.83-1,3-3.22,3s-3.07-1.28-3.07-3.29V13.87h2v1.89c0,.78.28,1.29,1,1.29s1-.49,1-1.19V13.67c0-.7-.31-1.07-1.09-1.07h-.94V10.9h.84c.73,0,1.19-.37,1.19-1.07V8.4c0-.72-.25-1.19-.95-1.19s-1,.47-1,1.29V9.84h-2V8.67c0-1.95.8-3.32,3.1-3.32,2.05,0,3,1.16,3,3"/><path class="cls-2" d="M57.44,41.12a30,30,0,0,0-48.22,0c-.07.11-.14.2-.19.27l.19.28a30.06,30.06,0,0,0,48.22,0l.19-.28-.19-.27m-32.22-6c.13-.19.56-.74.62-.81a.8.8,0,0,1,.49-.2c.15,0,.36.06.38.17a1.4,1.4,0,0,1-.13.65,1.7,1.7,0,0,1-1.08.48c-.24,0-.33-.22-.28-.29m-.52,1,.05-.06a1.36,1.36,0,0,1,.8-.3c.25,0,.59.09.63.25s-.63.48-.76.59c-.35.32-.9,1-1.22,1.05a.33.33,0,0,1-.26,0,9.18,9.18,0,0,1,.76-1.5m5.44,11.17a2.84,2.84,0,0,1-.62,1.3,2.11,2.11,0,0,1-1.38.53c-.46,0-.53-1.27-.53-1.9,0-.22-.31.43-.47-.89-.1-.84-.64.09-.68-.47s-.31-.45-.59-.8-.64,0-1,.21-.23.27-.79.09h0a10.21,10.21,0,0,1-.8-3.95c0-.34,0-.68.05-1l.06-.1c.54-.63.53-.78.53-.78l.59-.2a9.47,9.47,0,0,1,1.66.41c.59.22,1.52.72,2,.5s.7-.37.66-.7-.36-.5-.75-.23c-.14.1-.45-.61-.69-.57s.3.84.1.87-.62-.84-.69-1-.38-.49-.66-.22c-.6.57-1.57.53-1.77.68-.59.44-.75-.15-.73-.51,0-.08.05-.16.07-.24a1.2,1.2,0,0,1,1.13-.13c.26.18.45,0,.55-.15s.07-.27,0-.41.14-.25.27-.28a8.63,8.63,0,0,0,.77-.46,2.49,2.49,0,0,1,1.54,0,.82.82,0,0,0,1-.2,2.67,2.67,0,0,1,.74-.62c.14-.06-.37-.54-.78,0s-.64.56-.83.56-1.37-.29-1.51-.66.36-.65.79-.86a11.45,11.45,0,0,1,1.92-.27c.61-.13,1.4-.44,1.79-.17s-1.65.73-1,1.09c.24.13,1.33-.62,1.7-.81.87-.45-.85-.6-.63-1.52s-2.1-.63-3.28-.54a10.13,10.13,0,0,1,15.32,6.17,1.65,1.65,0,0,1-.05.47.67.67,0,0,1-1.19.09c-.1-.15-.54-.56-.52.14s.68.78,0,1.2a2.55,2.55,0,0,1-1.06.43c-.3.1-.59.83-.52,1.21s1,1.45.31,1.4a4,4,0,0,1-1.57-1.37c-.21-.56-.44-1.11-.6-1.53a.61.61,0,0,0-1-.28c-.36.25.1.49-.16,1s-.44,1-.82.56c-1-1.13-2.43-.57-2.66-1.83-.12-.69-.71-.62-1.2-1s-.77-.59-.85-.31,1.55,1.53,1.66,1.86c.17.49-.48.92-1,1s-.69-.27-1.16-.76-.68-.84-.71-.45a2.23,2.23,0,0,0,.93,1.68c.41.26.87.38.74.8s0,.18-.47.64a1.23,1.23,0,0,0-.51,1.23c0,.63-.13.67-.23,1.2s-.33.07-.53.84M41,43.3c.34,0,.85.44.65.62a.91.91,0,0,1-1-.08c-.25-.2.16-.53.32-.54M40.59,43a.58.58,0,0,1-.29-.4c-.08-.25.12-.39.33-.29s.48.42.48.58-.41.15-.52.11m-4.48,0a.91.91,0,0,1-1-.09c-.25-.2.17-.53.32-.54.34,0,.85.45.65.63M32,45c-.14.23-.52,1.93-.77,1.74s.1-2,.17-2.12c.4-.73,1.27-.7.6.38m1.38,6.61a10.33,10.33,0,0,1-2.85-.41.42.42,0,0,1-.12-.5,2.26,2.26,0,0,1,2-1.2c1.65-.16,3.81,1.06,4.15.86s1-1.1,2.06-1.06a1.65,1.65,0,0,1,.93.23,10.13,10.13,0,0,1-6.15,2.08m7.15-3a1.59,1.59,0,0,1-.32-.12c-.55-.28-.48.17-.76.07s.31-.73-.51-.2-.59-.08-.95-1a1.84,1.84,0,0,1,1-2.17,14.17,14.17,0,0,1,1.84-.49c1.22-.3,1.48-1,1.7-.58l.12.23a1.57,1.57,0,0,1,.15.66,10.06,10.06,0,0,1-2.32,3.58m2.78-5.12c-.27-.07-1.41-1.65-.51-2.68.15-.17-.3-.68-.18-.69a.83.83,0,0,1,.88.71c0,.2,0,.39,0,.59a10.09,10.09,0,0,1-.21,2.07"/><path class="cls-2" d="M20.26,9.56V6.88a1.31,1.31,0,0,1,1.39-1.49c1,0,1.32.57,1.32,1.39v.65h-.85V6.7c0-.34-.12-.54-.45-.54s-.48.24-.48.57v3c0,.33.14.57.48.57s.45-.21.45-.54v-1H23v.95c0,.8-.33,1.38-1.32,1.38A1.31,1.31,0,0,1,20.26,9.56Z"/><path class="cls-2" d="M23.47,5.45h.93v4.78h1.11V11h-2Z"/><path class="cls-2" d="M25.94,5.45h.93V11h-.93Z"/><path class="cls-2" d="M30,7.4h0L29.32,11h-.44L28.19,7.4h0V11h-.76V5.45h1.08l.61,3.12h0l.53-3.12h1.18V11H30Z"/><path class="cls-2" d="M31.2,11l1.05-5.54h1.06l1,5.54h-1l-.17-1h-1l-.17,1Zm1.17-1.76h.74L32.75,7h0Z"/><path class="cls-2" d="M34.23,5.45h2.48v.76h-.77V11H35V6.21h-.77Z"/><path class="cls-2" d="M37.14,5.45h2.22v.76H38.07V7.8H39v.75h-.92v1.68h1.29V11H37.14Z"/><path class="cls-2" d="M20.12,18.74l1-5.53h1.06l1.06,5.53h-1l-.17-1h-1l-.16,1ZM21.28,17H22l-.37-2.22h0Z"/><path class="cls-2" d="M23.54,17.32V14.64c0-.87.41-1.5,1.39-1.5s1.31.57,1.31,1.39v.65h-.85v-.72c0-.35-.11-.54-.45-.54s-.47.24-.47.57v3c0,.34.14.57.47.57s.45-.21.45-.54v-1h.85v1c0,.79-.33,1.38-1.31,1.38A1.31,1.31,0,0,1,23.54,17.32Z"/><path class="cls-2" d="M26.56,13.21H29V14h-.77v4.77h-.93V14h-.77Z"/><path class="cls-2" d="M29.46,13.21h.93v5.53h-.93Z"/><path class="cls-2" d="M30.93,17.32V14.64a1.41,1.41,0,1,1,2.82,0v2.68a1.41,1.41,0,1,1-2.82,0Zm1.89.14v-3c0-.33-.15-.57-.48-.57s-.48.24-.48.57v3c0,.34.15.57.48.57S32.82,17.8,32.82,17.46Z"/><path class="cls-2" d="M35.06,15.27v3.47h-.78V13.21h.91l1,3.17V13.21H37v5.53h-.82Z"/><polygon class="cls-2" points="8.29 5.51 8.29 18.75 6.07 18.75 6.07 8.62 6.04 8.62 4.48 10.23 4.46 10.23 4.46 7.91 6.51 5.51 8.29 5.51"/><path class="cls-2" d="M15.63,8.38V9.53a2.11,2.11,0,0,1-1.52,2.15,2,2,0,0,1,1.64,2.25v2c0,1.83-1,3-3.22,3s-3.07-1.28-3.07-3.29V13.87h2v1.89c0,.78.28,1.29,1,1.29s1-.49,1-1.19V13.67c0-.7-.31-1.07-1.09-1.07h-.94V10.9h.84c.73,0,1.19-.37,1.19-1.07V8.4c0-.72-.25-1.19-.95-1.19s-1,.47-1,1.29V9.84h-2V8.67c0-1.95.8-3.32,3.1-3.32,2.05,0,3,1.16,3,3"/><path class="cls-2" d="M57.44,41.12a30,30,0,0,0-48.22,0c-.07.11-.14.2-.19.27l.19.28a30.06,30.06,0,0,0,48.22,0l.19-.28-.19-.27m-32.22-6c.13-.19.56-.74.62-.81a.8.8,0,0,1,.49-.2c.15,0,.36.06.38.17a1.4,1.4,0,0,1-.13.65,1.7,1.7,0,0,1-1.08.48c-.24,0-.33-.22-.28-.29m-.52,1,.05-.06a1.36,1.36,0,0,1,.8-.3c.25,0,.59.09.63.25s-.63.48-.76.59c-.35.32-.9,1-1.22,1.05a.33.33,0,0,1-.26,0,9.18,9.18,0,0,1,.76-1.5m5.44,11.17a2.84,2.84,0,0,1-.62,1.3,2.11,2.11,0,0,1-1.38.53c-.46,0-.53-1.27-.53-1.9,0-.22-.31.43-.47-.89-.1-.84-.64.09-.68-.47s-.31-.45-.59-.8-.64,0-1,.21-.23.27-.79.09h0a10.21,10.21,0,0,1-.8-3.95c0-.34,0-.68.05-1l.06-.1c.54-.63.53-.78.53-.78l.59-.2a9.47,9.47,0,0,1,1.66.41c.59.22,1.52.72,2,.5s.7-.37.66-.7-.36-.5-.75-.23c-.14.1-.45-.61-.69-.57s.3.84.1.87-.62-.84-.69-1-.38-.49-.66-.22c-.6.57-1.57.53-1.77.68-.59.44-.75-.15-.73-.51,0-.08.05-.16.07-.24a1.2,1.2,0,0,1,1.13-.13c.26.18.45,0,.55-.15s.07-.27,0-.41.14-.25.27-.28a8.63,8.63,0,0,0,.77-.46,2.49,2.49,0,0,1,1.54,0,.82.82,0,0,0,1-.2,2.67,2.67,0,0,1,.74-.62c.14-.06-.37-.54-.78,0s-.64.56-.83.56-1.37-.29-1.51-.66.36-.65.79-.86a11.45,11.45,0,0,1,1.92-.27c.61-.13,1.4-.44,1.79-.17s-1.65.73-1,1.09c.24.13,1.33-.62,1.7-.81.87-.45-.85-.6-.63-1.52s-2.1-.63-3.28-.54a10.13,10.13,0,0,1,15.32,6.17,1.65,1.65,0,0,1-.05.47.67.67,0,0,1-1.19.09c-.1-.15-.54-.56-.52.14s.68.78,0,1.2a2.55,2.55,0,0,1-1.06.43c-.3.1-.59.83-.52,1.21s1,1.45.31,1.4a4,4,0,0,1-1.57-1.37c-.21-.56-.44-1.11-.6-1.53a.61.61,0,0,0-1-.28c-.36.25.1.49-.16,1s-.44,1-.82.56c-1-1.13-2.43-.57-2.66-1.83-.12-.69-.71-.62-1.2-1s-.77-.59-.85-.31,1.55,1.53,1.66,1.86c.17.49-.48.92-1,1s-.69-.27-1.16-.76-.68-.84-.71-.45a2.23,2.23,0,0,0,.93,1.68c.41.26.87.38.74.8s0,.18-.47.64a1.23,1.23,0,0,0-.51,1.23c0,.63-.13.67-.23,1.2s-.33.07-.53.84M41,43.3c.34,0,.85.44.65.62a.91.91,0,0,1-1-.08c-.25-.2.16-.53.32-.54M40.59,43a.58.58,0,0,1-.29-.4c-.08-.25.12-.39.33-.29s.48.42.48.58-.41.15-.52.11m-4.48,0a.91.91,0,0,1-1-.09c-.25-.2.17-.53.32-.54.34,0,.85.45.65.63M32,45c-.14.23-.52,1.93-.77,1.74s.1-2,.17-2.12c.4-.73,1.27-.7.6.38m1.38,6.61a10.33,10.33,0,0,1-2.85-.41.42.42,0,0,1-.12-.5,2.26,2.26,0,0,1,2-1.2c1.65-.16,3.81,1.06,4.15.86s1-1.1,2.06-1.06a1.65,1.65,0,0,1,.93.23,10.13,10.13,0,0,1-6.15,2.08m7.15-3a1.59,1.59,0,0,1-.32-.12c-.55-.28-.48.17-.76.07s.31-.73-.51-.2-.59-.08-.95-1a1.84,1.84,0,0,1,1-2.17,14.17,14.17,0,0,1,1.84-.49c1.22-.3,1.48-1,1.7-.58l.12.23a1.57,1.57,0,0,1,.15.66,10.06,10.06,0,0,1-2.32,3.58m2.78-5.12c-.27-.07-1.41-1.65-.51-2.68.15-.17-.3-.68-.18-.69a.83.83,0,0,1,.88.71c0,.2,0,.39,0,.59a10.09,10.09,0,0,1-.21,2.07"/><path class="cls-2" d="M20.26,9.56V6.88a1.31,1.31,0,0,1,1.39-1.49c1,0,1.32.57,1.32,1.39v.65h-.85V6.7c0-.34-.12-.54-.45-.54s-.48.24-.48.57v3c0,.33.14.57.48.57s.45-.21.45-.54v-1H23v.95c0,.8-.33,1.38-1.32,1.38A1.31,1.31,0,0,1,20.26,9.56Z"/><path class="cls-2" d="M23.47,5.45h.93v4.78h1.11V11h-2Z"/><path class="cls-2" d="M25.94,5.45h.93V11h-.93Z"/><path class="cls-2" d="M30,7.4h0L29.32,11h-.44L28.19,7.4h0V11h-.76V5.45h1.08l.61,3.12h0l.53-3.12h1.18V11H30Z"/><path class="cls-2" d="M31.2,11l1.05-5.54h1.06l1,5.54h-1l-.17-1h-1l-.17,1Zm1.17-1.76h.74L32.75,7h0Z"/><path class="cls-2" d="M34.23,5.45h2.48v.76h-.77V11H35V6.21h-.77Z"/><path class="cls-2" d="M37.14,5.45h2.22v.76H38.07V7.8H39v.75h-.92v1.68h1.29V11H37.14Z"/><path class="cls-2" d="M20.12,18.74l1-5.53h1.06l1.06,5.53h-1l-.17-1h-1l-.16,1ZM21.28,17H22l-.37-2.22h0Z"/><path class="cls-2" d="M23.54,17.32V14.64c0-.87.41-1.5,1.39-1.5s1.31.57,1.31,1.39v.65h-.85v-.72c0-.35-.11-.54-.45-.54s-.47.24-.47.57v3c0,.34.14.57.47.57s.45-.21.45-.54v-1h.85v1c0,.79-.33,1.38-1.31,1.38A1.31,1.31,0,0,1,23.54,17.32Z"/><path class="cls-2" d="M26.56,13.21H29V14h-.77v4.77h-.93V14h-.77Z"/><path class="cls-2" d="M29.46,13.21h.93v5.53h-.93Z"/><path class="cls-2" d="M30.93,17.32V14.64a1.41,1.41,0,1,1,2.82,0v2.68a1.41,1.41,0,1,1-2.82,0Zm1.89.14v-3c0-.33-.15-.57-.48-.57s-.48.24-.48.57v3c0,.34.15.57.48.57S32.82,17.8,32.82,17.46Z"/><path class="cls-2" d="M35.06,15.27v3.47h-.78V13.21h.91l1,3.17V13.21H37v5.53h-.82Z"/></g></g></svg>