<svg xmlns="http://www.w3.org/2000/svg" viewBox="0 0 65.69 65.69"><defs><style>.cls-1{fill:#a21942;}.cls-2{fill:#fff;}</style></defs><g id="Layer_2" data-name="Layer 2"><g id="OUTLINE"><rect class="cls-1" width="65.69" height="65.69"/><path class="cls-2" d="M12.76,15.51V14.06a2.62,2.62,0,0,0-1.48-2.65A2.33,2.33,0,0,0,12.57,9.1V8.55c0-2.07-1.08-3.18-3.13-3.18S6.36,6.48,6.36,8.55V9.1a2.35,2.35,0,0,0,1.25,2.31,2.6,2.6,0,0,0-1.47,2.65v1.45c0,2,1,3.42,3.3,3.42s3.32-1.41,3.32-3.42M8.45,8.42c0-.8.27-1.27,1-1.27s1,.47,1,1.27v.9c0,.8-.28,1.27-1,1.27s-1-.47-1-1.27Zm2.09,7.32c0,.8-.3,1.37-1.1,1.37s-1.07-.57-1.07-1.37V13.59c0-.8.29-1.36,1.07-1.36s1.1.56,1.1,1.36Z"/><path class="cls-2" d="M45.31,32.32l-6.68,6.35a1.1,1.1,0,0,0-.38.95v17.8a.38.38,0,0,0,.38.38h6.9a.38.38,0,0,0,.38-.38V32.48c0-.21-.17-.6-.6-.16"/><path class="cls-2" d="M26.07,40.59,19.4,46.94a1.09,1.09,0,0,0-.38,1v9.52a.38.38,0,0,0,.38.38h6.89a.38.38,0,0,0,.38-.38V40.75c0-.21-.16-.59-.6-.16"/><path class="cls-2" d="M48.34,24.62a.17.17,0,0,0-.05-.15.21.21,0,0,0-.13,0h-.09L43,25.57h-.09a.17.17,0,0,0-.1.06.18.18,0,0,0,0,.27l0,.06L44,27.14,32.41,38.72l-5.35-5.35a.16.16,0,0,0-.22,0l-1.45,1.45h0L16.81,43.4a.16.16,0,0,0,0,.22l1.45,1.45a.16.16,0,0,0,.22,0L27,36.6l3.88,3.89h0L32.3,42a.13.13,0,0,0,.21,0L45.66,28.81,46.89,30a.18.18,0,0,0,.27,0,.2.2,0,0,0,.06-.12v0l1.12-5.22Z"/><path class="cls-2" d="M35.73,41.71,32.5,45a.17.17,0,0,1-.21,0l-2.93-3c-.53-.53-.65-.1-.65.11V57.42a.38.38,0,0,0,.38.38H36a.38.38,0,0,0,.38-.38V41.83c0-.21-.17-.6-.64-.12"/><path class="cls-2" d="M20.32,7V9.57c0,.85-.35,1.48-1.35,1.48H17.53V5.52H19C20,5.52,20.32,6.15,20.32,7Zm-1.46,3.29c.38,0,.53-.22.53-.56V6.83a.49.49,0,0,0-.53-.55h-.4v4Z"/><path class="cls-2" d="M20.85,5.52h2.22v.76H21.78V7.86h.92v.75h-.92v1.68h1.29v.76H20.85Z"/><path class="cls-2" d="M23.49,9.63V7c0-.87.4-1.5,1.38-1.5s1.32.57,1.32,1.39v.65h-.85V6.77c0-.35-.12-.54-.45-.54s-.47.24-.47.57v3c0,.34.13.57.47.57s.45-.21.45-.54v-1h.85v1c0,.79-.33,1.38-1.32,1.38A1.3,1.3,0,0,1,23.49,9.63Z"/><path class="cls-2" d="M26.69,5.52h2.22v.76H27.62V7.86h.93v.75h-.93v1.68h1.29v.76H26.69Z"/><path class="cls-2" d="M30.2,7.58v3.47h-.79V5.52h.92l1,3.17V5.52h.78v5.53h-.82Z"/><path class="cls-2" d="M32.53,5.52H35v.76h-.77v4.77H33.3V6.28h-.77Z"/><path class="cls-2" d="M38.3,7.63l-.52,3.42h-.87l-.75-5.53h.9L37.49,9h0L38,5.52h.76L39.24,9h0l.42-3.51h.79l-.72,5.53h-.88l-.55-3.42Z"/><path class="cls-2" d="M40.78,9.63V7a1.41,1.41,0,1,1,2.81,0V9.63a1.41,1.41,0,1,1-2.81,0Zm1.88.14v-3c0-.33-.14-.57-.48-.57s-.47.24-.47.57v3c0,.34.14.57.47.57S42.66,10.11,42.66,9.77Z"/><path class="cls-2" d="M45.05,8.51v2.54h-.93V5.52h1.36c.94,0,1.28.46,1.28,1.24v.71c0,.6-.21,1-.74,1.07l.89,2.51h-1Zm0-2.23V8h.31a.4.4,0,0,0,.46-.46V6.73c0-.31-.14-.45-.46-.45Z"/><path class="cls-2" d="M48.2,8.36v2.69h-.93V5.52h.93V8l1-2.43h.91L49.05,8l1.1,3h-1Z"/><path class="cls-2" d="M51.21,11.05l1-5.53h1.07l1,5.53h-1l-.17-1h-1l-.16,1ZM52.38,9.3h.74l-.37-2.22h0Z"/><path class="cls-2" d="M55.54,7.58v3.47h-.79V5.52h.92l1,3.17V5.52h.78v5.53h-.82Z"/><path class="cls-2" d="M60.76,7V9.57c0,.85-.35,1.48-1.35,1.48H58V5.52h1.43C60.41,5.52,60.76,6.15,60.76,7ZM59.3,10.29c.38,0,.53-.22.53-.56V6.83a.49.49,0,0,0-.53-.55h-.39v4Z"/><path class="cls-2" d="M17.53,13.27h2.23V14h-1.3v1.59h.93v.75h-.93v1.68h1.3v.76H17.53Z"/><path class="cls-2" d="M20.17,17.38V14.7a1.31,1.31,0,0,1,1.39-1.49c1,0,1.31.57,1.31,1.39v.65H22v-.73c0-.34-.11-.54-.45-.54s-.47.24-.47.58v3c0,.33.14.57.47.57s.45-.21.45-.54v-1h.85v1c0,.79-.32,1.38-1.31,1.38A1.31,1.31,0,0,1,20.17,17.38Z"/><path class="cls-2" d="M23.38,17.38V14.7a1.41,1.41,0,1,1,2.82,0v2.68a1.41,1.41,0,1,1-2.82,0Zm1.88.15v-3c0-.34-.14-.58-.48-.58s-.47.24-.47.58v3c0,.33.15.57.47.57S25.26,17.86,25.26,17.53Z"/><path class="cls-2" d="M27.51,15.33v3.48h-.78V13.27h.91l1,3.18V13.27h.78v5.54H28.6Z"/><path class="cls-2" d="M30,17.38V14.7a1.41,1.41,0,1,1,2.82,0v2.68a1.41,1.41,0,1,1-2.82,0Zm1.89.15v-3c0-.34-.15-.58-.49-.58s-.47.24-.47.58v3c0,.33.15.57.47.57S31.84,17.86,31.84,17.53Z"/><path class="cls-2" d="M35.86,15.22h0l-.63,3.59h-.43l-.7-3.59h0v3.59H33.3V13.27h1.08L35,16.39h0l.53-3.12h1.18v5.54h-.85Z"/><path class="cls-2" d="M37.24,13.27h.93v5.54h-.93Z"/><path class="cls-2" d="M38.71,17.38V14.7a1.31,1.31,0,0,1,1.39-1.49c1,0,1.31.57,1.31,1.39v.65h-.85v-.73c0-.34-.11-.54-.45-.54s-.47.24-.47.58v3c0,.33.14.57.47.57s.45-.21.45-.54v-1h.85v1c0,.79-.32,1.38-1.31,1.38A1.31,1.31,0,0,1,38.71,17.38Z"/><path class="cls-2" d="M44.18,15.85H45.5v3h-.67v-.6a.84.84,0,0,1-.89.67c-.8,0-1.16-.64-1.16-1.5V14.7a1.31,1.31,0,0,1,1.39-1.49c1,0,1.33.57,1.33,1.39v.49h-.85v-.57c0-.34-.13-.54-.46-.54s-.48.24-.48.58v3c0,.33.14.57.45.57s.46-.17.46-.53v-1h-.44Z"/><path class="cls-2" d="M47,16.27v2.54H46V13.27h1.36c.94,0,1.28.47,1.28,1.24v.72c0,.59-.21.94-.74,1.06l.89,2.52h-1ZM47,14v1.73h.31a.41.41,0,0,0,.46-.46v-.82c0-.3-.14-.45-.46-.45Z"/><path class="cls-2" d="M49.18,17.38V14.7a1.41,1.41,0,1,1,2.81,0v2.68a1.41,1.41,0,1,1-2.81,0Zm1.88.15v-3c0-.34-.15-.58-.48-.58s-.47.24-.47.58v3c0,.33.14.57.47.57S51.06,17.86,51.06,17.53Z"/><path class="cls-2" d="M54.45,15.39l-.52,3.42h-.88l-.74-5.54h.9l.43,3.51h0l.47-3.51h.75l.52,3.51h0l.42-3.51h.79l-.72,5.54H55l-.55-3.42Z"/><path class="cls-2" d="M56.9,13.27h2.47V14h-.76v4.78h-.94V14H56.9Z"/><path class="cls-2" d="M61.63,16.37h-.89v2.44h-.93V13.27h.93v2.35h.89V13.27h.94v5.54h-.94Z"/><path class="cls-2" d="M12.76,15.51V14.06a2.62,2.62,0,0,0-1.48-2.65A2.33,2.33,0,0,0,12.57,9.1V8.55c0-2.07-1.08-3.18-3.13-3.18S6.36,6.48,6.36,8.55V9.1a2.35,2.35,0,0,0,1.25,2.31,2.6,2.6,0,0,0-1.47,2.65v1.45c0,2,1,3.42,3.3,3.42s3.32-1.41,3.32-3.42M8.45,8.42c0-.8.27-1.27,1-1.27s1,.47,1,1.27v.9c0,.8-.28,1.27-1,1.27s-1-.47-1-1.27Zm2.09,7.32c0,.8-.3,1.37-1.1,1.37s-1.07-.57-1.07-1.37V13.59c0-.8.29-1.36,1.07-1.36s1.1.56,1.1,1.36Z"/><path class="cls-2" d="M45.31,32.32l-6.68,6.35a1.1,1.1,0,0,0-.38.95v17.8a.38.38,0,0,0,.38.38h6.9a.38.38,0,0,0,.38-.38V32.48c0-.21-.17-.6-.6-.16"/><path class="cls-2" d="M26.07,40.59,19.4,46.94a1.09,1.09,0,0,0-.38,1v9.52a.38.38,0,0,0,.38.38h6.89a.38.38,0,0,0,.38-.38V40.75c0-.21-.16-.59-.6-.16"/><path class="cls-2" d="M48.34,24.62a.17.17,0,0,0-.05-.15.21.21,0,0,0-.13,0h-.09L43,25.57h-.09a.17.17,0,0,0-.1.06.18.18,0,0,0,0,.27l0,.06L44,27.14,32.41,38.72l-5.35-5.35a.16.16,0,0,0-.22,0l-1.45,1.45h0L16.81,43.4a.16.16,0,0,0,0,.22l1.45,1.45a.16.16,0,0,0,.22,0L27,36.6l3.88,3.89h0L32.3,42a.13.13,0,0,0,.21,0L45.66,28.81,46.89,30a.18.18,0,0,0,.27,0,.2.2,0,0,0,.06-.12v0l1.12-5.22Z"/><path class="cls-2" d="M35.73,41.71,32.5,45a.17.17,0,0,1-.21,0l-2.93-3c-.53-.53-.65-.1-.65.11V57.42a.38.38,0,0,0,.38.38H36a.38.38,0,0,0,.38-.38V41.83c0-.21-.17-.6-.64-.12"/><path class="cls-2" d="M20.32,7V9.57c0,.85-.35,1.48-1.35,1.48H17.53V5.52H19C20,5.52,20.32,6.15,20.32,7Zm-1.46,3.29c.38,0,.53-.22.53-.56V6.83a.49.49,0,0,0-.53-.55h-.4v4Z"/><path class="cls-2" d="M20.85,5.52h2.22v.76H21.78V7.86h.92v.75h-.92v1.68h1.29v.76H20.85Z"/><path class="cls-2" d="M23.49,9.63V7c0-.87.4-1.5,1.38-1.5s1.32.57,1.32,1.39v.65h-.85V6.77c0-.35-.12-.54-.45-.54s-.47.24-.47.57v3c0,.34.13.57.47.57s.45-.21.45-.54v-1h.85v1c0,.79-.33,1.38-1.32,1.38A1.3,1.3,0,0,1,23.49,9.63Z"/><path class="cls-2" d="M26.69,5.52h2.22v.76H27.62V7.86h.93v.75h-.93v1.68h1.29v.76H26.69Z"/><path class="cls-2" d="M30.2,7.58v3.47h-.79V5.52h.92l1,3.17V5.52h.78v5.53h-.82Z"/><path class="cls-2" d="M32.53,5.52H35v.76h-.77v4.77H33.3V6.28h-.77Z"/><path class="cls-2" d="M38.3,7.63l-.52,3.42h-.87l-.75-5.53h.9L37.49,9h0L38,5.52h.76L39.24,9h0l.42-3.51h.79l-.72,5.53h-.88l-.55-3.42Z"/><path class="cls-2" d="M40.78,9.63V7a1.41,1.41,0,1,1,2.81,0V9.63a1.41,1.41,0,1,1-2.81,0Zm1.88.14v-3c0-.33-.14-.57-.48-.57s-.47.24-.47.57v3c0,.34.14.57.47.57S42.66,10.11,42.66,9.77Z"/><path class="cls-2" d="M45.05,8.51v2.54h-.93V5.52h1.36c.94,0,1.28.46,1.28,1.24v.71c0,.6-.21,1-.74,1.07l.89,2.51h-1Zm0-2.23V8h.31a.4.4,0,0,0,.46-.46V6.73c0-.31-.14-.45-.46-.45Z"/><path class="cls-2" d="M48.2,8.36v2.69h-.93V5.52h.93V8l1-2.43h.91L49.05,8l1.1,3h-1Z"/><path class="cls-2" d="M51.21,11.05l1-5.53h1.07l1,5.53h-1l-.17-1h-1l-.16,1ZM52.38,9.3h.74l-.37-2.22h0Z"/><path class="cls-2" d="M55.54,7.58v3.47h-.79V5.52h.92l1,3.17V5.52h.78v5.53h-.82Z"/><path class="cls-2" d="M60.76,7V9.57c0,.85-.35,1.48-1.35,1.48H58V5.52h1.43C60.41,5.52,60.76,6.15,60.76,7ZM59.3,10.29c.38,0,.53-.22.53-.56V6.83a.49.49,0,0,0-.53-.55h-.39v4Z"/><path class="cls-2" d="M17.53,13.27h2.23V14h-1.3v1.59h.93v.75h-.93v1.68h1.3v.76H17.53Z"/><path class="cls-2" d="M20.17,17.38V14.7a1.31,1.31,0,0,1,1.39-1.49c1,0,1.31.57,1.31,1.39v.65H22v-.73c0-.34-.11-.54-.45-.54s-.47.24-.47.58v3c0,.33.14.57.47.57s.45-.21.45-.54v-1h.85v1c0,.79-.32,1.38-1.31,1.38A1.31,1.31,0,0,1,20.17,17.38Z"/><path class="cls-2" d="M23.38,17.38V14.7a1.41,1.41,0,1,1,2.82,0v2.68a1.41,1.41,0,1,1-2.82,0Zm1.88.15v-3c0-.34-.14-.58-.48-.58s-.47.24-.47.58v3c0,.33.15.57.47.57S25.26,17.86,25.26,17.53Z"/><path class="cls-2" d="M27.51,15.33v3.48h-.78V13.27h.91l1,3.18V13.27h.78v5.54H28.6Z"/><path class="cls-2" d="M30,17.38V14.7a1.41,1.41,0,1,1,2.82,0v2.68a1.41,1.41,0,1,1-2.82,0Zm1.89.15v-3c0-.34-.15-.58-.49-.58s-.47.24-.47.58v3c0,.33.15.57.47.57S31.84,17.86,31.84,17.53Z"/><path class="cls-2" d="M35.86,15.22h0l-.63,3.59h-.43l-.7-3.59h0v3.59H33.3V13.27h1.08L35,16.39h0l.53-3.12h1.18v5.54h-.85Z"/><path class="cls-2" d="M37.24,13.27h.93v5.54h-.93Z"/><path class="cls-2" d="M38.71,17.38V14.7a1.31,1.31,0,0,1,1.39-1.49c1,0,1.31.57,1.31,1.39v.65h-.85v-.73c0-.34-.11-.54-.45-.54s-.47.24-.47.58v3c0,.33.14.57.47.57s.45-.21.45-.54v-1h.85v1c0,.79-.32,1.38-1.31,1.38A1.31,1.31,0,0,1,38.71,17.38Z"/><path class="cls-2" d="M44.18,15.85H45.5v3h-.67v-.6a.84.84,0,0,1-.89.67c-.8,0-1.16-.64-1.16-1.5V14.7a1.31,1.31,0,0,1,1.39-1.49c1,0,1.33.57,1.33,1.39v.49h-.85v-.57c0-.34-.13-.54-.46-.54s-.48.24-.48.58v3c0,.33.14.57.45.57s.46-.17.46-.53v-1h-.44Z"/><path class="cls-2" d="M47,16.27v2.54H46V13.27h1.36c.94,0,1.28.47,1.28,1.24v.72c0,.59-.21.94-.74,1.06l.89,2.52h-1ZM47,14v1.73h.31a.41.41,0,0,0,.46-.46v-.82c0-.3-.14-.45-.46-.45Z"/><path class="cls-2" d="M49.18,17.38V14.7a1.41,1.41,0,1,1,2.81,0v2.68a1.41,1.41,0,1,1-2.81,0Zm1.88.15v-3c0-.34-.15-.58-.48-.58s-.47.24-.47.58v3c0,.33.14.57.47.57S51.06,17.86,51.06,17.53Z"/><path class="cls-2" d="M54.45,15.39l-.52,3.42h-.88l-.74-5.54h.9l.43,3.51h0l.47-3.51h.75l.52,3.51h0l.42-3.51h.79l-.72,5.54H55l-.55-3.42Z"/><path class="cls-2" d="M56.9,13.27h2.47V14h-.76v4.78h-.94V14H56.9Z"/><path class="cls-2" d="M61.63,16.37h-.89v2.44h-.93V13.27h.93v2.35h.89V13.27h.94v5.54h-.94Z"/></g></g></svg>