<svg xmlns="http://www.w3.org/2000/svg" viewBox="0 0 65.69 65.69"><defs><style>.cls-1{fill:#c5192d;}.cls-2{fill:#fff;}</style></defs><g id="Layer_2" data-name="Layer 2"><g id="OUTLINE"><rect class="cls-1" width="65.69" height="65.69"/><path class="cls-2" d="M10.29,18.75H12.4V16.6h.9V14.86h-.9V5.5H10.21L6.36,15.23V16.6h3.93Zm-2-3.89,2-5.45h0v5.45Z"/><polygon class="cls-2" points="29.13 35.22 17.35 28.42 17.35 50.42 29.13 53.98 29.13 35.22"/><polygon class="cls-2" points="30.42 35.27 30.42 53.99 42.28 50.42 42.28 28.42 30.42 35.27"/><path class="cls-2" d="M51.53,27.86a1.4,1.4,0,0,0-2.79,0v1.5h2.79Z"/><polygon class="cls-2" points="49.09 50.03 48.74 50.03 50.14 54.91 51.53 50.03 51.18 50.03 51.53 50.03 51.53 30.46 51.18 30.46 50.84 30.46 50.47 30.46 49.78 30.46 49.43 30.46 49.09 30.46 48.74 30.46 48.74 50.03 49.09 50.03"/><polygon class="cls-2" points="44.81 29.36 43.55 28.37 43.55 51.02 30.46 55.25 29.85 55.25 29.73 55.25 29.13 55.25 16.1 51.61 16.1 28.37 14.83 29.36 14.83 52.5 29.07 56.44 29.73 56.44 29.85 56.44 30.52 56.44 43.65 52.27 44.81 51.93 44.81 29.36"/><path class="cls-2" d="M19.82,11.26v-.38a1.27,1.27,0,0,1-1.06-1.43V6.78a1.41,1.41,0,1,1,2.82,0V9.45a1.32,1.32,0,0,1-.69,1.31l.69.13v.7Zm.83-1.61v-3c0-.34-.15-.57-.48-.57s-.48.23-.48.57v3c0,.33.15.57.48.57S20.65,10,20.65,9.65Z"/><path class="cls-2" d="M24.81,5.35V9.54c0,.85-.37,1.41-1.31,1.41a1.25,1.25,0,0,1-1.39-1.41V5.35H23V9.63c0,.32.13.54.46.54S24,10,24,9.63V5.35Z"/><path class="cls-2" d="M25.07,10.88l1.05-5.53h1.06l1.05,5.53h-.95l-.18-1h-1l-.17,1Zm1.17-1.75H27l-.37-2.22h0Z"/><path class="cls-2" d="M28.61,5.35h.94v4.77h1.11v.76H28.61Z"/><path class="cls-2" d="M31.08,5.35H32v5.53h-.93Z"/><path class="cls-2" d="M32.44,5.35h2.48v.76h-.77v4.77h-.94V6.11h-.77Z"/><path class="cls-2" d="M37.16,8.78v2.1h-.93V8.78l-1-3.43h1l.56,2.1h0l.56-2.1h.89Z"/><path class="cls-2" d="M18.76,13.1H21v.76H19.69v1.59h.92v.75h-.92v1.68H21v.76H18.76Z"/><path class="cls-2" d="M24.26,14.59v2.56c0,.85-.35,1.49-1.34,1.49H21.48V13.1h1.44C23.91,13.1,24.26,13.73,24.26,14.59ZM22.8,17.88c.39,0,.53-.23.53-.56v-2.9c0-.33-.14-.56-.53-.56h-.39v4Z"/><path class="cls-2" d="M27.5,13.1v4.19c0,.86-.37,1.41-1.32,1.41a1.25,1.25,0,0,1-1.39-1.41V13.1h.93v4.28c0,.33.14.55.46.55s.46-.22.46-.55V13.1Z"/><path class="cls-2" d="M28,17.21V14.53A1.31,1.31,0,0,1,29.42,13c1,0,1.31.57,1.31,1.39v.65h-.85v-.73c0-.34-.11-.54-.45-.54s-.47.24-.47.57v3c0,.33.14.57.47.57s.45-.21.45-.54v-1h.85v.95c0,.8-.33,1.38-1.31,1.38A1.31,1.31,0,0,1,28,17.21Z"/><path class="cls-2" d="M31,18.64l1-5.54h1.06l1.06,5.54h-1l-.17-1h-1l-.16,1Zm1.16-1.76h.75l-.37-2.22h0Z"/><path class="cls-2" d="M34,13.1h2.47v.76h-.77v4.78H34.8V13.86H34Z"/><path class="cls-2" d="M36.94,13.1h.93v5.54h-.93Z"/><path class="cls-2" d="M38.41,17.21V14.53a1.41,1.41,0,1,1,2.82,0v2.68a1.41,1.41,0,1,1-2.82,0Zm1.89.15v-3c0-.33-.15-.57-.48-.57s-.48.24-.48.57v3c0,.33.15.57.48.57S40.3,17.69,40.3,17.36Z"/><path class="cls-2" d="M42.54,15.16v3.48h-.78V13.1h.91l1,3.18V13.1h.77v5.54h-.81Z"/><path class="cls-2" d="M10.29,18.75H12.4V16.6h.9V14.86h-.9V5.5H10.21L6.36,15.23V16.6h3.93Zm-2-3.89,2-5.45h0v5.45Z"/><polygon class="cls-2" points="29.13 35.22 17.35 28.42 17.35 50.42 29.13 53.98 29.13 35.22"/><polygon class="cls-2" points="30.42 35.27 30.42 53.99 42.28 50.42 42.28 28.42 30.42 35.27"/><path class="cls-2" d="M51.53,27.86a1.4,1.4,0,0,0-2.79,0v1.5h2.79Z"/><polygon class="cls-2" points="49.09 50.03 48.74 50.03 50.14 54.91 51.53 50.03 51.18 50.03 51.53 50.03 51.53 30.46 51.18 30.46 50.84 30.46 50.47 30.46 49.78 30.46 49.43 30.46 49.09 30.46 48.74 30.46 48.74 50.03 49.09 50.03"/><polygon class="cls-2" points="44.81 29.36 43.55 28.37 43.55 51.02 30.46 55.25 29.85 55.25 29.73 55.25 29.13 55.25 16.1 51.61 16.1 28.37 14.83 29.36 14.83 52.5 29.07 56.44 29.73 56.44 29.85 56.44 30.52 56.44 43.65 52.27 44.81 51.93 44.81 29.36"/><path class="cls-2" d="M19.82,11.26v-.38a1.27,1.27,0,0,1-1.06-1.43V6.78a1.41,1.41,0,1,1,2.82,0V9.45a1.32,1.32,0,0,1-.69,1.31l.69.13v.7Zm.83-1.61v-3c0-.34-.15-.57-.48-.57s-.48.23-.48.57v3c0,.33.15.57.48.57S20.65,10,20.65,9.65Z"/><path class="cls-2" d="M24.81,5.35V9.54c0,.85-.37,1.41-1.31,1.41a1.25,1.25,0,0,1-1.39-1.41V5.35H23V9.63c0,.32.13.54.46.54S24,10,24,9.63V5.35Z"/><path class="cls-2" d="M25.07,10.88l1.05-5.53h1.06l1.05,5.53h-.95l-.18-1h-1l-.17,1Zm1.17-1.75H27l-.37-2.22h0Z"/><path class="cls-2" d="M28.61,5.35h.94v4.77h1.11v.76H28.61Z"/><path class="cls-2" d="M31.08,5.35H32v5.53h-.93Z"/><path class="cls-2" d="M32.44,5.35h2.48v.76h-.77v4.77h-.94V6.11h-.77Z"/><path class="cls-2" d="M37.16,8.78v2.1h-.93V8.78l-1-3.43h1l.56,2.1h0l.56-2.1h.89Z"/><path class="cls-2" d="M18.76,13.1H21v.76H19.69v1.59h.92v.75h-.92v1.68H21v.76H18.76Z"/><path class="cls-2" d="M24.26,14.59v2.56c0,.85-.35,1.49-1.34,1.49H21.48V13.1h1.44C23.91,13.1,24.26,13.73,24.26,14.59ZM22.8,17.88c.39,0,.53-.23.53-.56v-2.9c0-.33-.14-.56-.53-.56h-.39v4Z"/><path class="cls-2" d="M27.5,13.1v4.19c0,.86-.37,1.41-1.32,1.41a1.25,1.25,0,0,1-1.39-1.41V13.1h.93v4.28c0,.33.14.55.46.55s.46-.22.46-.55V13.1Z"/><path class="cls-2" d="M28,17.21V14.53A1.31,1.31,0,0,1,29.42,13c1,0,1.31.57,1.31,1.39v.65h-.85v-.73c0-.34-.11-.54-.45-.54s-.47.24-.47.57v3c0,.33.14.57.47.57s.45-.21.45-.54v-1h.85v.95c0,.8-.33,1.38-1.31,1.38A1.31,1.31,0,0,1,28,17.21Z"/><path class="cls-2" d="M31,18.64l1-5.54h1.06l1.06,5.54h-1l-.17-1h-1l-.16,1Zm1.16-1.76h.75l-.37-2.22h0Z"/><path class="cls-2" d="M34,13.1h2.47v.76h-.77v4.78H34.8V13.86H34Z"/><path class="cls-2" d="M36.94,13.1h.93v5.54h-.93Z"/><path class="cls-2" d="M38.41,17.21V14.53a1.41,1.41,0,1,1,2.82,0v2.68a1.41,1.41,0,1,1-2.82,0Zm1.89.15v-3c0-.33-.15-.57-.48-.57s-.48.24-.48.57v3c0,.33.15.57.48.57S40.3,17.69,40.3,17.36Z"/><path class="cls-2" d="M42.54,15.16v3.48h-.78V13.1h.91l1,3.18V13.1h.77v5.54h-.81Z"/></g></g></svg>