<svg xmlns="http://www.w3.org/2000/svg" viewBox="0 0 65.69 65.69"><defs><style>.cls-1{fill:#4c9f38;}.cls-2{fill:#fff;}</style></defs><g id="Layer_2" data-name="Layer 2"><g id="OUTLINE"><rect class="cls-1" width="65.69" height="65.69"/><path class="cls-2" d="M9.37,18.93c2.25,0,3.23-1.2,3.23-3V14A2,2,0,0,0,11,11.7a2.13,2.13,0,0,0,1.52-2.15V8.4c0-1.88-.9-3-3-3-2.31,0-3.11,1.37-3.11,3.32V9.86h2V8.52c0-.82.25-1.29.95-1.29s1,.47,1,1.19V9.84a1,1,0,0,1-1.19,1.08H8.34v1.7h.94c.78,0,1.09.37,1.09,1.07v2.19c0,.7-.31,1.19-1,1.19s-1-.51-1-1.29V13.89h-2v1.74c0,2,.8,3.3,3.06,3.3"/><path class="cls-2" d="M54.91,41.05a3.09,3.09,0,0,0-3-3.35c-.9,0-2,1-2.57,1.59-.59-.6-1.6-1.59-2.5-1.59a3.14,3.14,0,0,0-3.05,3.35,3.4,3.4,0,0,0,1,2.37h0L49.36,48,54,43.42h0A3.39,3.39,0,0,0,54.91,41.05Z"/><path class="cls-2" d="M35.3,55.56h0a.74.74,0,0,1-.69-.63L32.22,41.31l-3.55,6.57a.75.75,0,0,1-1.41-.25l-1.5-10.51L23,43.3a.76.76,0,0,1-.69.45H11.62a.76.76,0,1,1,0-1.52h10.2l3.62-8.13a.78.78,0,0,1,.8-.44.76.76,0,0,1,.64.64l1.55,10.84,3.5-6.48a.74.74,0,0,1,.78-.38.77.77,0,0,1,.63.62L35.5,51.51l7.9-26.22a.75.75,0,0,1,1.4-.11L49,33.79a.76.76,0,0,1-.36,1,.76.76,0,0,1-1-.35l-3.31-6.86L36,55A.75.75,0,0,1,35.3,55.56Z"/><path class="cls-2" d="M19.71,7.93H21v3h-.67v-.6a.83.83,0,0,1-.89.67c-.8,0-1.17-.64-1.17-1.5V6.78a1.32,1.32,0,0,1,1.4-1.5c1,0,1.33.57,1.33,1.39v.49h-.85V6.6c0-.35-.13-.54-.46-.54s-.48.23-.48.57v3c0,.34.13.57.45.57s.46-.17.46-.53v-1h-.44Z"/><path class="cls-2" d="M21.56,9.45V6.78a1.41,1.41,0,1,1,2.82,0V9.45a1.41,1.41,0,1,1-2.82,0Zm1.89.15v-3c0-.34-.15-.57-.48-.57s-.48.23-.48.57v3c0,.34.15.57.48.57S23.45,9.94,23.45,9.6Z"/><path class="cls-2" d="M24.91,9.45V6.78a1.41,1.41,0,1,1,2.82,0V9.45a1.41,1.41,0,1,1-2.82,0Zm1.88.15v-3c0-.34-.14-.57-.48-.57s-.47.23-.47.57v3c0,.34.15.57.47.57S26.79,9.94,26.79,9.6Z"/><path class="cls-2" d="M31,6.83V9.4c0,.85-.35,1.48-1.35,1.48H28.26V5.35h1.43C30.69,5.35,31,6,31,6.83Zm-1.46,3.29c.38,0,.53-.22.53-.56V6.66a.49.49,0,0,0-.53-.55h-.39v4Z"/><path class="cls-2" d="M34.26,8.44h-.9v2.44h-.93V5.35h.93V7.69h.9V5.35h.94v5.53h-.94Z"/><path class="cls-2" d="M35.73,5.35H38v.76H36.66V7.69h.92v.75h-.92v1.68H38v.76H35.73Z"/><path class="cls-2" d="M38.3,10.88l1-5.53H40.4l1.06,5.53h-1l-.17-1h-1l-.16,1Zm1.17-1.75h.74l-.37-2.22h0Z"/><path class="cls-2" d="M41.84,5.35h.93v4.77h1.11v.76h-2Z"/><path class="cls-2" d="M43.67,5.35h2.47v.76h-.76v4.77h-.94V6.11h-.77Z"/><path class="cls-2" d="M48.4,8.44h-.89v2.44h-.93V5.35h.93V7.69h.89V5.35h.94v5.53H48.4Z"/><path class="cls-2" d="M18.16,18.64l1-5.54h1.06l1.06,5.54h-1l-.17-1h-1l-.16,1Zm1.17-1.76h.74l-.37-2.22h0Z"/><path class="cls-2" d="M22.48,15.16v3.48H21.7V13.1h.91l1,3.18V13.1h.78v5.54h-.82Z"/><path class="cls-2" d="M27.71,14.59v2.56c0,.85-.35,1.49-1.35,1.49H24.92V13.1h1.44C27.36,13.1,27.71,13.73,27.71,14.59Zm-1.46,3.29c.38,0,.53-.23.53-.56v-2.9c0-.33-.15-.56-.53-.56h-.39v4Z"/><path class="cls-2" d="M31.11,15.22l-.53,3.42h-.87L29,13.1h.89l.44,3.51h0l.46-3.51h.76L32,16.61h0l.43-3.51h.78l-.72,5.54h-.88l-.55-3.42Z"/><path class="cls-2" d="M33.66,13.1h2.22v.76H34.59v1.59h.92v.75h-.92v1.68h1.29v.76H33.66Z"/><path class="cls-2" d="M36.38,13.1h.93v4.78h1.11v.76h-2Z"/><path class="cls-2" d="M38.84,13.1h.94v4.78h1.11v.76h-2Z"/><path class="cls-2" d="M40.76,15.69h1.31v.75H40.76Z"/><path class="cls-2" d="M42.54,13.1h1.35c.93,0,1.24.44,1.24,1.22v.56a.8.8,0,0,1-.55.88.85.85,0,0,1,.69.93v.73c0,.79-.35,1.22-1.28,1.22H42.54Zm.93,2.34h.33a.39.39,0,0,0,.44-.45v-.68a.39.39,0,0,0-.45-.45h-.32Zm0,.71v1.73h.41a.4.4,0,0,0,.46-.45V16.6c0-.3-.14-.45-.47-.45Z"/><path class="cls-2" d="M45.73,13.1H48v.76H46.67v1.59h.92v.75h-.92v1.68H48v.76H45.73Z"/><path class="cls-2" d="M48.45,13.1h.93v5.54h-.93Z"/><path class="cls-2" d="M50.71,15.16v3.48h-.79V13.1h.92l1,3.18V13.1h.78v5.54H51.8Z"/><path class="cls-2" d="M54.55,15.68h1.32v3h-.66V18a.85.85,0,0,1-.9.67c-.8,0-1.16-.63-1.16-1.49V14.53A1.31,1.31,0,0,1,54.54,13c1,0,1.33.57,1.33,1.39v.49H55v-.57c0-.34-.14-.54-.47-.54s-.48.24-.48.57v3c0,.33.14.57.46.57s.45-.17.45-.53v-1h-.44Z"/><path class="cls-2" d="M9.37,18.93c2.25,0,3.23-1.2,3.23-3V14A2,2,0,0,0,11,11.7a2.13,2.13,0,0,0,1.52-2.15V8.4c0-1.88-.9-3-3-3-2.31,0-3.11,1.37-3.11,3.32V9.86h2V8.52c0-.82.25-1.29.95-1.29s1,.47,1,1.19V9.84a1,1,0,0,1-1.19,1.08H8.34v1.7h.94c.78,0,1.09.37,1.09,1.07v2.19c0,.7-.31,1.19-1,1.19s-1-.51-1-1.29V13.89h-2v1.74c0,2,.8,3.3,3.06,3.3"/><path class="cls-2" d="M54.91,41.05a3.09,3.09,0,0,0-3-3.35c-.9,0-2,1-2.57,1.59-.59-.6-1.6-1.59-2.5-1.59a3.14,3.14,0,0,0-3.05,3.35,3.4,3.4,0,0,0,1,2.37h0L49.36,48,54,43.42h0A3.39,3.39,0,0,0,54.91,41.05Z"/><path class="cls-2" d="M35.3,55.56h0a.74.74,0,0,1-.69-.63L32.22,41.31l-3.55,6.57a.75.75,0,0,1-1.41-.25l-1.5-10.51L23,43.3a.76.76,0,0,1-.69.45H11.62a.76.76,0,1,1,0-1.52h10.2l3.62-8.13a.78.78,0,0,1,.8-.44.76.76,0,0,1,.64.64l1.55,10.84,3.5-6.48a.74.74,0,0,1,.78-.38.77.77,0,0,1,.63.62L35.5,51.51l7.9-26.22a.75.75,0,0,1,1.4-.11L49,33.79a.76.76,0,0,1-.36,1,.76.76,0,0,1-1-.35l-3.31-6.86L36,55A.75.75,0,0,1,35.3,55.56Z"/><path class="cls-2" d="M19.71,7.93H21v3h-.67v-.6a.83.83,0,0,1-.89.67c-.8,0-1.17-.64-1.17-1.5V6.78a1.32,1.32,0,0,1,1.4-1.5c1,0,1.33.57,1.33,1.39v.49h-.85V6.6c0-.35-.13-.54-.46-.54s-.48.23-.48.57v3c0,.34.13.57.45.57s.46-.17.46-.53v-1h-.44Z"/><path class="cls-2" d="M21.56,9.45V6.78a1.41,1.41,0,1,1,2.82,0V9.45a1.41,1.41,0,1,1-2.82,0Zm1.89.15v-3c0-.34-.15-.57-.48-.57s-.48.23-.48.57v3c0,.34.15.57.48.57S23.45,9.94,23.45,9.6Z"/><path class="cls-2" d="M24.91,9.45V6.78a1.41,1.41,0,1,1,2.82,0V9.45a1.41,1.41,0,1,1-2.82,0Zm1.88.15v-3c0-.34-.14-.57-.48-.57s-.47.23-.47.57v3c0,.34.15.57.47.57S26.79,9.94,26.79,9.6Z"/><path class="cls-2" d="M31,6.83V9.4c0,.85-.35,1.48-1.35,1.48H28.26V5.35h1.43C30.69,5.35,31,6,31,6.83Zm-1.46,3.29c.38,0,.53-.22.53-.56V6.66a.49.49,0,0,0-.53-.55h-.39v4Z"/><path class="cls-2" d="M34.26,8.44h-.9v2.44h-.93V5.35h.93V7.69h.9V5.35h.94v5.53h-.94Z"/><path class="cls-2" d="M35.73,5.35H38v.76H36.66V7.69h.92v.75h-.92v1.68H38v.76H35.73Z"/><path class="cls-2" d="M38.3,10.88l1-5.53H40.4l1.06,5.53h-1l-.17-1h-1l-.16,1Zm1.17-1.75h.74l-.37-2.22h0Z"/><path class="cls-2" d="M41.84,5.35h.93v4.77h1.11v.76h-2Z"/><path class="cls-2" d="M43.67,5.35h2.47v.76h-.76v4.77h-.94V6.11h-.77Z"/><path class="cls-2" d="M48.4,8.44h-.89v2.44h-.93V5.35h.93V7.69h.89V5.35h.94v5.53H48.4Z"/><path class="cls-2" d="M18.16,18.64l1-5.54h1.06l1.06,5.54h-1l-.17-1h-1l-.16,1Zm1.17-1.76h.74l-.37-2.22h0Z"/><path class="cls-2" d="M22.48,15.16v3.48H21.7V13.1h.91l1,3.18V13.1h.78v5.54h-.82Z"/><path class="cls-2" d="M27.71,14.59v2.56c0,.85-.35,1.49-1.35,1.49H24.92V13.1h1.44C27.36,13.1,27.71,13.73,27.71,14.59Zm-1.46,3.29c.38,0,.53-.23.53-.56v-2.9c0-.33-.15-.56-.53-.56h-.39v4Z"/><path class="cls-2" d="M31.11,15.22l-.53,3.42h-.87L29,13.1h.89l.44,3.51h0l.46-3.51h.76L32,16.61h0l.43-3.51h.78l-.72,5.54h-.88l-.55-3.42Z"/><path class="cls-2" d="M33.66,13.1h2.22v.76H34.59v1.59h.92v.75h-.92v1.68h1.29v.76H33.66Z"/><path class="cls-2" d="M36.38,13.1h.93v4.78h1.11v.76h-2Z"/><path class="cls-2" d="M38.84,13.1h.94v4.78h1.11v.76h-2Z"/><path class="cls-2" d="M40.76,15.69h1.31v.75H40.76Z"/><path class="cls-2" d="M42.54,13.1h1.35c.93,0,1.24.44,1.24,1.22v.56a.8.8,0,0,1-.55.88.85.85,0,0,1,.69.93v.73c0,.79-.35,1.22-1.28,1.22H42.54Zm.93,2.34h.33a.39.39,0,0,0,.44-.45v-.68a.39.39,0,0,0-.45-.45h-.32Zm0,.71v1.73h.41a.4.4,0,0,0,.46-.45V16.6c0-.3-.14-.45-.47-.45Z"/><path class="cls-2" d="M45.73,13.1H48v.76H46.67v1.59h.92v.75h-.92v1.68H48v.76H45.73Z"/><path class="cls-2" d="M48.45,13.1h.93v5.54h-.93Z"/><path class="cls-2" d="M50.71,15.16v3.48h-.79V13.1h.92l1,3.18V13.1h.78v5.54H51.8Z"/><path class="cls-2" d="M54.55,15.68h1.32v3h-.66V18a.85.85,0,0,1-.9.67c-.8,0-1.16-.63-1.16-1.49V14.53A1.31,1.31,0,0,1,54.54,13c1,0,1.33.57,1.33,1.39v.49H55v-.57c0-.34-.14-.54-.47-.54s-.48.24-.48.57v3c0,.33.14.57.46.57s.45-.17.45-.53v-1h-.44Z"/></g></g></svg>