<svg xmlns="http://www.w3.org/2000/svg" viewBox="0 0 65.69 65.69"><defs><style>.cls-1{fill:#0a97d9;}.cls-2{fill:#fff;}</style></defs><g id="Layer_2" data-name="Layer 2"><g id="OUTLINE"><rect class="cls-1" width="65.69" height="65.69"/><polygon class="cls-2" points="8.56 5.53 8.56 18.77 6.33 18.77 6.33 8.63 6.31 8.63 4.75 10.25 4.73 10.25 4.73 7.93 6.78 5.53 8.56 5.53"/><path class="cls-2" d="M15.34,18.77V16.62h.9V14.88h-.9V5.52H13.15L9.3,15.25v1.37h3.93v2.15Zm-4.09-3.89,2-5.45h0v5.45Z"/><path class="cls-2" d="M50.44,47.93C49.61,46.81,44.27,40,36.78,40c-6.5,0-13.45,5.9-13.45,5.9s-2.62-5.35-8-5.86h-.14a.22.22,0,0,0-.2.21.74.74,0,0,0,.08.2,16.33,16.33,0,0,1,2.45,7.65,16.45,16.45,0,0,1-2.45,7.66l0,.07a.2.2,0,0,0,0,.11.21.21,0,0,0,.2.21h.11c5.36-.5,8-5.86,8-5.86s7,5.9,13.45,5.9c7.49,0,12.83-6.81,13.66-7.92l.05-.08a.24.24,0,0,0,0-.08.19.19,0,0,0,0-.08.35.35,0,0,0-.05-.08m-9.5,1a2.19,2.19,0,1,1,2.19-2.19A2.19,2.19,0,0,1,40.94,49"/><path class="cls-2" d="M15.2,27.21h0a.21.21,0,0,0-.22.21V28.9a.22.22,0,0,0,.07.16c3.61,3.14,7,.2,7.82-.58,0,0,0-.05.06-.06a.28.28,0,0,1,.12,0,.17.17,0,0,1,.14.06h0c4.08,3.89,8.36.74,9.25,0l.09-.08a.17.17,0,0,1,.16,0l.09.08c.89.74,5.17,3.89,9.25,0h0a.2.2,0,0,1,.15-.06.21.21,0,0,1,.11,0s0,0,.07.06c.79.78,4.2,3.72,7.82.58a.21.21,0,0,0,.06-.16V27.41A.21.21,0,0,0,50,27.2h0l-.11.05a6.58,6.58,0,0,1-7.69-1.08l-.09-.08a.15.15,0,0,0-.09,0h-.07l-.11.08c-.93.71-5.21,3.61-9,0l-.06,0a.22.22,0,0,0-.3,0l-.06,0c-3.81,3.56-8.1.66-9,0a.27.27,0,0,0-.1-.08h-.07a.15.15,0,0,0-.09,0l-.09.08a6.58,6.58,0,0,1-7.69,1.08l-.11-.05"/><path class="cls-2" d="M22.83,33.9l.06-.06a.28.28,0,0,1,.12,0,.2.2,0,0,1,.15.06h0c4.08,3.89,8.36.74,9.25,0l.09-.08.08,0,.08,0,.09.08c.89.74,5.17,3.89,9.25,0h0a.2.2,0,0,1,.15-.06.21.21,0,0,1,.11,0l.07.06c.79.78,4.2,3.72,7.82.58a.21.21,0,0,0,.07-.15v-1.5a.22.22,0,0,0-.22-.21h0l-.11,0a6.59,6.59,0,0,1-7.69-1.07l-.09-.09a.15.15,0,0,0-.09,0h-.07l-.11.08c-.93.71-5.21,3.61-9,.06l-.06-.06a.22.22,0,0,0-.3,0l-.06.06c-3.81,3.55-8.1.65-9-.06a.27.27,0,0,0-.1-.08h-.07a.15.15,0,0,0-.09,0l-.09.09a6.59,6.59,0,0,1-7.69,1.07l-.11,0h0a.22.22,0,0,0-.22.21v1.5a.21.21,0,0,0,.07.15c3.61,3.14,7,.2,7.82-.58"/><path class="cls-2" d="M21.45,5.45h.93v4.78h1.11V11h-2Z"/><path class="cls-2" d="M23.92,5.45h.93V11h-.93Z"/><path class="cls-2" d="M25.39,5.45h2.18v.76H26.32V7.8h.93v.75h-.93V11h-.93Z"/><path class="cls-2" d="M28,5.45H30.2v.76H28.91V7.8h.92v.75h-.92v1.68H30.2V11H28Z"/><path class="cls-2" d="M21.45,13.21H22.8c.93,0,1.24.43,1.24,1.21V15a.81.81,0,0,1-.55.88.84.84,0,0,1,.69.92v.74c0,.78-.35,1.21-1.28,1.21H21.45Zm.93,2.33h.33c.3,0,.44-.15.44-.45v-.67c0-.31-.14-.45-.45-.45h-.32Zm0,.71V18h.41c.31,0,.46-.15.46-.44V16.7c0-.29-.14-.45-.47-.45Z"/><path class="cls-2" d="M24.65,13.21h2.22V14H25.58v1.58h.92v.75h-.92V18h1.29v.76H24.65Z"/><path class="cls-2" d="M27.36,13.21h.93V18H29.4v.76h-2Z"/><path class="cls-2" d="M29.79,17.32V14.64a1.41,1.41,0,1,1,2.82,0v2.68a1.41,1.41,0,1,1-2.82,0Zm1.88.14v-3c0-.33-.14-.57-.48-.57s-.47.24-.47.57v3c0,.34.15.57.47.57S31.67,17.8,31.67,17.46Z"/><path class="cls-2" d="M35.06,15.32l-.52,3.42h-.87l-.75-5.53h.9l.43,3.51h0l.47-3.51h.76L36,16.72h0l.42-3.51h.79l-.72,5.53h-.88l-.55-3.42Z"/><path class="cls-2" d="M40.48,15.32,40,18.74h-.87l-.75-5.53h.9l.43,3.51h0l.47-3.51h.76l.51,3.51h0l.43-3.51h.78l-.72,5.53H41l-.55-3.42Z"/><path class="cls-2" d="M42.56,18.74l1-5.53h1.06l1,5.53h-.95l-.17-1h-1l-.16,1ZM43.73,17h.75l-.37-2.22h0Z"/><path class="cls-2" d="M45.59,13.21h2.48V14H47.3v4.77h-.94V14h-.77Z"/><path class="cls-2" d="M48.5,13.21h2.22V14H49.43v1.58h.92v.75h-.92V18h1.29v.76H48.5Z"/><path class="cls-2" d="M52.15,16.2v2.54h-.93V13.21h1.35c.94,0,1.29.46,1.29,1.24v.71c0,.6-.22.95-.75,1.07L54,18.74H53Zm0-2.23v1.72h.31a.4.4,0,0,0,.46-.46v-.81c0-.31-.14-.45-.46-.45Z"/><polygon class="cls-2" points="8.56 5.53 8.56 18.77 6.33 18.77 6.33 8.63 6.31 8.63 4.75 10.25 4.73 10.25 4.73 7.93 6.78 5.53 8.56 5.53"/><path class="cls-2" d="M15.34,18.77V16.62h.9V14.88h-.9V5.52H13.15L9.3,15.25v1.37h3.93v2.15Zm-4.09-3.89,2-5.45h0v5.45Z"/><path class="cls-2" d="M50.44,47.93C49.61,46.81,44.27,40,36.78,40c-6.5,0-13.45,5.9-13.45,5.9s-2.62-5.35-8-5.86h-.14a.22.22,0,0,0-.2.21.74.74,0,0,0,.08.2,16.33,16.33,0,0,1,2.45,7.65,16.45,16.45,0,0,1-2.45,7.66l0,.07a.2.2,0,0,0,0,.11.21.21,0,0,0,.2.21h.11c5.36-.5,8-5.86,8-5.86s7,5.9,13.45,5.9c7.49,0,12.83-6.81,13.66-7.92l.05-.08a.24.24,0,0,0,0-.08.19.19,0,0,0,0-.08.35.35,0,0,0-.05-.08m-9.5,1a2.19,2.19,0,1,1,2.19-2.19A2.19,2.19,0,0,1,40.94,49"/><path class="cls-2" d="M15.2,27.21h0a.21.21,0,0,0-.22.21V28.9a.22.22,0,0,0,.07.16c3.61,3.14,7,.2,7.82-.58,0,0,0-.05.06-.06a.28.28,0,0,1,.12,0,.17.17,0,0,1,.14.06h0c4.08,3.89,8.36.74,9.25,0l.09-.08a.17.17,0,0,1,.16,0l.09.08c.89.74,5.17,3.89,9.25,0h0a.2.2,0,0,1,.15-.06.21.21,0,0,1,.11,0s0,0,.07.06c.79.78,4.2,3.72,7.82.58a.21.21,0,0,0,.06-.16V27.41A.21.21,0,0,0,50,27.2h0l-.11.05a6.58,6.58,0,0,1-7.69-1.08l-.09-.08a.15.15,0,0,0-.09,0h-.07l-.11.08c-.93.71-5.21,3.61-9,0l-.06,0a.22.22,0,0,0-.3,0l-.06,0c-3.81,3.56-8.1.66-9,0a.27.27,0,0,0-.1-.08h-.07a.15.15,0,0,0-.09,0l-.09.08a6.58,6.58,0,0,1-7.69,1.08l-.11-.05"/><path class="cls-2" d="M22.83,33.9l.06-.06a.28.28,0,0,1,.12,0,.2.2,0,0,1,.15.06h0c4.08,3.89,8.36.74,9.25,0l.09-.08.08,0,.08,0,.09.08c.89.74,5.17,3.89,9.25,0h0a.2.2,0,0,1,.15-.06.21.21,0,0,1,.11,0l.07.06c.79.78,4.2,3.72,7.82.58a.21.21,0,0,0,.07-.15v-1.5a.22.22,0,0,0-.22-.21h0l-.11,0a6.59,6.59,0,0,1-7.69-1.07l-.09-.09a.15.15,0,0,0-.09,0h-.07l-.11.08c-.93.71-5.21,3.61-9,.06l-.06-.06a.22.22,0,0,0-.3,0l-.06.06c-3.81,3.55-8.1.65-9-.06a.27.27,0,0,0-.1-.08h-.07a.15.15,0,0,0-.09,0l-.09.09a6.59,6.59,0,0,1-7.69,1.07l-.11,0h0a.22.22,0,0,0-.22.21v1.5a.21.21,0,0,0,.07.15c3.61,3.14,7,.2,7.82-.58"/><path class="cls-2" d="M21.45,5.45h.93v4.78h1.11V11h-2Z"/><path class="cls-2" d="M23.92,5.45h.93V11h-.93Z"/><path class="cls-2" d="M25.39,5.45h2.18v.76H26.32V7.8h.93v.75h-.93V11h-.93Z"/><path class="cls-2" d="M28,5.45H30.2v.76H28.91V7.8h.92v.75h-.92v1.68H30.2V11H28Z"/><path class="cls-2" d="M21.45,13.21H22.8c.93,0,1.24.43,1.24,1.21V15a.81.81,0,0,1-.55.88.84.84,0,0,1,.69.92v.74c0,.78-.35,1.21-1.28,1.21H21.45Zm.93,2.33h.33c.3,0,.44-.15.44-.45v-.67c0-.31-.14-.45-.45-.45h-.32Zm0,.71V18h.41c.31,0,.46-.15.46-.44V16.7c0-.29-.14-.45-.47-.45Z"/><path class="cls-2" d="M24.65,13.21h2.22V14H25.58v1.58h.92v.75h-.92V18h1.29v.76H24.65Z"/><path class="cls-2" d="M27.36,13.21h.93V18H29.4v.76h-2Z"/><path class="cls-2" d="M29.79,17.32V14.64a1.41,1.41,0,1,1,2.82,0v2.68a1.41,1.41,0,1,1-2.82,0Zm1.88.14v-3c0-.33-.14-.57-.48-.57s-.47.24-.47.57v3c0,.34.15.57.47.57S31.67,17.8,31.67,17.46Z"/><path class="cls-2" d="M35.06,15.32l-.52,3.42h-.87l-.75-5.53h.9l.43,3.51h0l.47-3.51h.76L36,16.72h0l.42-3.51h.79l-.72,5.53h-.88l-.55-3.42Z"/><path class="cls-2" d="M40.48,15.32,40,18.74h-.87l-.75-5.53h.9l.43,3.51h0l.47-3.51h.76l.51,3.51h0l.43-3.51h.78l-.72,5.53H41l-.55-3.42Z"/><path class="cls-2" d="M42.56,18.74l1-5.53h1.06l1,5.53h-.95l-.17-1h-1l-.16,1ZM43.73,17h.75l-.37-2.22h0Z"/><path class="cls-2" d="M45.59,13.21h2.48V14H47.3v4.77h-.94V14h-.77Z"/><path class="cls-2" d="M48.5,13.21h2.22V14H49.43v1.58h.92v.75h-.92V18h1.29v.76H48.5Z"/><path class="cls-2" d="M52.15,16.2v2.54h-.93V13.21h1.35c.94,0,1.29.46,1.29,1.24v.71c0,.6-.22.95-.75,1.07L54,18.74H53Zm0-2.23v1.72h.31a.4.4,0,0,0,.46-.46v-.81c0-.31-.14-.45-.46-.45Z"/></g></g></svg>