<svg xmlns="http://www.w3.org/2000/svg" viewBox="0 0 65.69 65.69"><defs><style>.cls-1{fill:#00689d;}.cls-2{fill:#fff;}</style></defs><g id="Layer_2" data-name="Layer 2"><g id="OUTLINE"><rect class="cls-1" width="65.69" height="65.69"/><polygon class="cls-2" points="5.05 7.91 5.05 10.24 5.07 10.24 6.64 8.62 6.66 8.62 6.66 18.75 8.88 18.75 8.88 5.51 7.11 5.51 5.05 7.91"/><path class="cls-2" d="M16.68,15.57v-2c0-2.17-.86-3.27-2.46-3.27a1.9,1.9,0,0,0-1.84,1.08h0V8.58c0-.8.25-1.37,1.06-1.37s1,.47,1,1.29v.88h2V8.67c0-1.95-.64-3.32-3.1-3.32s-3.23,1.51-3.23,3.58v6.45c0,2,.9,3.53,3.25,3.53s3.28-1.29,3.28-3.34m-2.21.2c0,.84-.31,1.32-1.07,1.32s-1-.5-1-1.32V13.34c0-.74.35-1.21,1.06-1.21s1.05.47,1.05,1.33Z"/><path class="cls-2" d="M44.3,29a2.32,2.32,0,0,0-.44,1.63A2.3,2.3,0,0,0,45,31.93a2.28,2.28,0,0,0,.44-1.62A2.3,2.3,0,0,0,44.3,29"/><path class="cls-2" d="M43.29,33.74a2.32,2.32,0,0,0,.44-1.63,2.3,2.3,0,0,0-1.1-1.29,2.32,2.32,0,0,0-.44,1.63,2.33,2.33,0,0,0,1.1,1.29"/><path class="cls-2" d="M45.85,32.85a2,2,0,0,0,1.4.6,2.13,2.13,0,0,0,1.3-.84,2,2,0,0,0-1.4-.59,2.09,2.09,0,0,0-1.3.83"/><path class="cls-2" d="M46.92,29.32A2.45,2.45,0,0,0,46.4,31a2.36,2.36,0,0,0,1.68-.53,2.45,2.45,0,0,0,.52-1.71,2.36,2.36,0,0,0-1.68.53"/><path class="cls-2" d="M45.58,35.3A2.12,2.12,0,0,0,47,34.75a2,2,0,0,0-1.25-.87,2.16,2.16,0,0,0-1.44.56,2,2,0,0,0,1.25.86"/><path class="cls-2" d="M46.24,47.27H40.68a.79.79,0,1,0,0,1.58h5.56a.79.79,0,1,0,0-1.58"/><path class="cls-2" d="M46.24,56H40.68a.79.79,0,0,0,0,1.58h5.56a.79.79,0,0,0,0-1.58"/><path class="cls-2" d="M21.22,45.36l-.39-.1a3.07,3.07,0,0,0,.39.1"/><path class="cls-2" d="M46,49.4H40.88a.45.45,0,0,0-.45.45v1.56l-3.36.37-4.92-.11v-3a12.4,12.4,0,0,0,2-.4c4.73-1.33,5.76-4.28,5.66-7s.78-3.83,2-4.3a5,5,0,0,1,1-.28,8.35,8.35,0,0,0,.45,2.4c.12,0,.23,0,.34,0a7.74,7.74,0,0,1-.46-2.42,5.43,5.43,0,0,1,1.12,0,7,7,0,0,1-1.07-.76A5.32,5.32,0,0,1,45,32.92a9.55,9.55,0,0,0,1.26-1.48L46,31.26a9.31,9.31,0,0,1-1.22,1.43A5.66,5.66,0,0,0,43,35.6a10.54,10.54,0,0,1-.82-.82c-1.16-1.31-2.67-.34-4.81,1.65s-4.84,2.06-7.47-.63c-3.48-3.56-6.51-3.54-8.59-3.34,1.43.61,1.92,1.94,2.64,5.32.76,3.54,2.66,5.14,5.26,5.36-1.21.2-1.52.37-3.46,1.7a6,6,0,0,1-4.5.52c1.58.5,3.46,2.16,5.14,2.74a12.61,12.61,0,0,0,3.06.63V51.6l-9.32-.2v2l17-.38,3.36.37V55a.45.45,0,0,0,.45.45H46a.45.45,0,0,0,.45-.45V49.85A.45.45,0,0,0,46,49.4Zm-15.8-.63c.36,0,.73,0,1.1,0v2.91l-1.1,0Z"/><path class="cls-2" d="M19.61,53.08a.71.71,0,0,1-.66.76h-.39a.72.72,0,0,1-.66-.76V51.69a.73.73,0,0,1,.66-.77H19a.72.72,0,0,1,.66.77Z"/><path class="cls-2" d="M20.76,5.45h1.38c.94,0,1.28.47,1.28,1.24V7.86c0,.78-.34,1.25-1.28,1.25h-.45V11h-.93Zm.93.76V8.39H22a.4.4,0,0,0,.46-.46V6.66c0-.3-.14-.45-.46-.45Z"/><path class="cls-2" d="M23.9,5.45h2.22v.76H24.83V7.8h.93v.75h-.93v1.68h1.29V11H23.9Z"/><path class="cls-2" d="M26.47,11l1.05-5.54h1.06L29.63,11h-.95l-.17-1h-1l-.17,1Zm1.17-1.76h.74L28,7h0Z"/><path class="cls-2" d="M29.89,9.56V6.88a1.31,1.31,0,0,1,1.39-1.49c1,0,1.32.57,1.32,1.39v.65h-.85V6.7c0-.34-.12-.54-.45-.54s-.48.24-.48.57v3c0,.33.14.57.48.57s.45-.21.45-.54v-1h.85v.95c0,.8-.33,1.38-1.32,1.38A1.31,1.31,0,0,1,29.89,9.56Z"/><path class="cls-2" d="M33.1,5.45h2.22v.76H34V7.8H35v.75H34v1.68h1.29V11H33.1Z"/><path class="cls-2" d="M36.78,10.17l-.48,1.25h-.52l.11-1.32h.89Z"/><path class="cls-2" d="M40.64,5.45V9.73a1.15,1.15,0,0,1-1.28,1.32c-1,0-1.23-.53-1.23-1.23V8.72H39V9.84c0,.27.1.44.35.44s.35-.17.35-.45V5.45Z"/><path class="cls-2" d="M43.86,5.45V9.64c0,.86-.36,1.41-1.31,1.41a1.25,1.25,0,0,1-1.39-1.41V5.45h.93V9.73c0,.33.13.55.46.55s.46-.22.46-.55V5.45Z"/><path class="cls-2" d="M44.34,9.8V9.05h.87v.76c0,.31.14.49.46.49s.42-.19.42-.49V9.6a1,1,0,0,0-.42-.78l-.54-.55a1.87,1.87,0,0,1-.78-1.48V6.6a1.15,1.15,0,0,1,1.31-1.21c.93,0,1.3.45,1.3,1.25v.45h-.85V6.61c0-.32-.15-.47-.44-.47a.41.41,0,0,0-.44.46v.11c0,.31.17.49.44.75l.59.59A1.83,1.83,0,0,1,47,9.49v.27a1.19,1.19,0,0,1-1.35,1.29A1.15,1.15,0,0,1,44.34,9.8Z"/><path class="cls-2" d="M47.28,5.45h2.47v.76H49V11H48V6.21h-.76Z"/><path class="cls-2" d="M50.18,5.45h.93V11h-.93Z"/><path class="cls-2" d="M51.65,9.56V6.88A1.31,1.31,0,0,1,53,5.39c1,0,1.31.57,1.31,1.39v.65H53.5V6.7c0-.34-.11-.54-.45-.54s-.47.24-.47.57v3c0,.33.14.57.47.57s.45-.21.45-.54v-1h.85v.95c0,.8-.32,1.38-1.31,1.38A1.31,1.31,0,0,1,51.65,9.56Z"/><path class="cls-2" d="M54.86,5.45h2.22v.76H55.79V7.8h.92v.75h-.92v1.68h1.29V11H54.86Z"/><path class="cls-2" d="M20.61,18.74l1.05-5.53h1.06l1.05,5.53h-.95l-.18-1h-1l-.17,1ZM21.78,17h.74l-.37-2.22h0Z"/><path class="cls-2" d="M24.94,15.27v3.47h-.79V13.21h.92l1,3.17V13.21h.78v5.53H26Z"/><path class="cls-2" d="M30.16,14.69v2.57c0,.85-.35,1.48-1.34,1.48H27.38V13.21h1.44C29.81,13.21,30.16,13.84,30.16,14.69ZM28.7,18c.39,0,.53-.22.53-.56v-2.9A.48.48,0,0,0,28.7,14h-.39v4Z"/><path class="cls-2" d="M31.5,17.55v-.74h.87v.76c0,.31.14.49.46.49s.42-.2.42-.49v-.21a1,1,0,0,0-.42-.79L32.29,16a1.87,1.87,0,0,1-.78-1.47v-.19a1.16,1.16,0,0,1,1.31-1.22c.93,0,1.29.46,1.29,1.26v.45h-.84v-.48c0-.32-.15-.48-.44-.48a.41.41,0,0,0-.45.46v.12c0,.31.18.49.45.75l.59.58a1.86,1.86,0,0,1,.75,1.44v.27a1.2,1.2,0,0,1-1.35,1.3A1.16,1.16,0,0,1,31.5,17.55Z"/><path class="cls-2" d="M34.43,13.21h2.48V14h-.77v4.77H35.2V14h-.77Z"/><path class="cls-2" d="M38.27,16.2v2.54h-.93V13.21h1.35c.94,0,1.29.46,1.29,1.24v.71c0,.6-.22.95-.75,1.07l.89,2.51h-1Zm0-2.23v1.72h.31a.4.4,0,0,0,.46-.46v-.81c0-.31-.14-.45-.46-.45Z"/><path class="cls-2" d="M40.48,17.32V14.64a1.41,1.41,0,1,1,2.82,0v2.68a1.41,1.41,0,1,1-2.82,0Zm1.89.14v-3c0-.33-.15-.57-.48-.57s-.48.24-.48.57v3c0,.34.15.57.48.57S42.37,17.8,42.37,17.46Z"/><path class="cls-2" d="M44.61,15.27v3.47h-.78V13.21h.91l1,3.17V13.21h.77v5.53h-.81Z"/><path class="cls-2" d="M48.46,15.79h1.32v2.95h-.67v-.6a.83.83,0,0,1-.89.67c-.8,0-1.17-.64-1.17-1.49V14.64a1.32,1.32,0,0,1,1.4-1.5c1,0,1.33.57,1.33,1.39V15h-.85v-.56c0-.35-.13-.54-.46-.54s-.48.24-.48.57v3c0,.34.13.57.45.57s.46-.17.46-.53v-1h-.44Z"/><path class="cls-2" d="M20.76,21h.93V26.5h-.93Z"/><path class="cls-2" d="M23,23V26.5h-.78V21h.91l1,3.18V21h.77V26.5h-.81Z"/><path class="cls-2" d="M25.4,25.31v-.75h.87v.76c0,.31.14.49.46.49s.42-.19.42-.49v-.21a1,1,0,0,0-.42-.78l-.54-.55a1.87,1.87,0,0,1-.78-1.48v-.19a1.15,1.15,0,0,1,1.31-1.21c.93,0,1.3.46,1.3,1.26v.44h-.85v-.48c0-.32-.15-.47-.44-.47a.41.41,0,0,0-.44.46v.11c0,.31.17.49.44.75l.59.59A1.83,1.83,0,0,1,28.07,25v.27a1.19,1.19,0,0,1-1.35,1.3A1.16,1.16,0,0,1,25.4,25.31Z"/><path class="cls-2" d="M28.33,21h2.48v.76H30V26.5H29.1V21.72h-.77Z"/><path class="cls-2" d="M31.24,21h.93V26.5h-.93Z"/><path class="cls-2" d="M32.6,21h2.48v.76h-.77V26.5h-.94V21.72H32.6Z"/><path class="cls-2" d="M38.21,21v4.19c0,.86-.36,1.42-1.31,1.42a1.25,1.25,0,0,1-1.39-1.42V21h.93v4.28c0,.33.13.55.46.55s.46-.22.46-.55V21Z"/><path class="cls-2" d="M38.64,21h2.47v.76h-.77V26.5H39.4V21.72h-.76Z"/><path class="cls-2" d="M41.54,21h.93V26.5h-.93Z"/><path class="cls-2" d="M43,25.07V22.39a1.41,1.41,0,1,1,2.82,0v2.68a1.41,1.41,0,1,1-2.82,0Zm1.89.15v-3c0-.34-.15-.58-.48-.58s-.48.24-.48.58v3c0,.33.15.57.48.57S44.9,25.55,44.9,25.22Z"/><path class="cls-2" d="M47.14,23V26.5h-.78V21h.91l1,3.18V21h.77V26.5h-.81Z"/><path class="cls-2" d="M49.54,25.31v-.75h.86v.76c0,.31.14.49.46.49s.42-.19.42-.49v-.21a1,1,0,0,0-.41-.78l-.55-.55a1.87,1.87,0,0,1-.78-1.48v-.19a1.15,1.15,0,0,1,1.31-1.21c.93,0,1.3.46,1.3,1.26v.44H51.3v-.48c0-.32-.15-.47-.44-.47a.41.41,0,0,0-.44.46v.11c0,.31.17.49.44.75l.59.59A1.85,1.85,0,0,1,52.21,25v.27a1.2,1.2,0,0,1-1.36,1.3A1.15,1.15,0,0,1,49.54,25.31Z"/><polygon class="cls-2" points="5.05 7.91 5.05 10.24 5.07 10.24 6.64 8.62 6.66 8.62 6.66 18.75 8.88 18.75 8.88 5.51 7.11 5.51 5.05 7.91"/><path class="cls-2" d="M16.68,15.57v-2c0-2.17-.86-3.27-2.46-3.27a1.9,1.9,0,0,0-1.84,1.08h0V8.58c0-.8.25-1.37,1.06-1.37s1,.47,1,1.29v.88h2V8.67c0-1.95-.64-3.32-3.1-3.32s-3.23,1.51-3.23,3.58v6.45c0,2,.9,3.53,3.25,3.53s3.28-1.29,3.28-3.34m-2.21.2c0,.84-.31,1.32-1.07,1.32s-1-.5-1-1.32V13.34c0-.74.35-1.21,1.06-1.21s1.05.47,1.05,1.33Z"/><path class="cls-2" d="M44.3,29a2.32,2.32,0,0,0-.44,1.63A2.3,2.3,0,0,0,45,31.93a2.28,2.28,0,0,0,.44-1.62A2.3,2.3,0,0,0,44.3,29"/><path class="cls-2" d="M43.29,33.74a2.32,2.32,0,0,0,.44-1.63,2.3,2.3,0,0,0-1.1-1.29,2.32,2.32,0,0,0-.44,1.63,2.33,2.33,0,0,0,1.1,1.29"/><path class="cls-2" d="M45.85,32.85a2,2,0,0,0,1.4.6,2.13,2.13,0,0,0,1.3-.84,2,2,0,0,0-1.4-.59,2.09,2.09,0,0,0-1.3.83"/><path class="cls-2" d="M46.92,29.32A2.45,2.45,0,0,0,46.4,31a2.36,2.36,0,0,0,1.68-.53,2.45,2.45,0,0,0,.52-1.71,2.36,2.36,0,0,0-1.68.53"/><path class="cls-2" d="M45.58,35.3A2.12,2.12,0,0,0,47,34.75a2,2,0,0,0-1.25-.87,2.16,2.16,0,0,0-1.44.56,2,2,0,0,0,1.25.86"/><path class="cls-2" d="M46.24,47.27H40.68a.79.79,0,1,0,0,1.58h5.56a.79.79,0,1,0,0-1.58"/><path class="cls-2" d="M46.24,56H40.68a.79.79,0,0,0,0,1.58h5.56a.79.79,0,0,0,0-1.58"/><path class="cls-2" d="M21.22,45.36l-.39-.1a3.07,3.07,0,0,0,.39.1"/><path class="cls-2" d="M46,49.4H40.88a.45.45,0,0,0-.45.45v1.56l-3.36.37-4.92-.11v-3a12.4,12.4,0,0,0,2-.4c4.73-1.33,5.76-4.28,5.66-7s.78-3.83,2-4.3a5,5,0,0,1,1-.28,8.35,8.35,0,0,0,.45,2.4c.12,0,.23,0,.34,0a7.74,7.74,0,0,1-.46-2.42,5.43,5.43,0,0,1,1.12,0,7,7,0,0,1-1.07-.76A5.32,5.32,0,0,1,45,32.92a9.55,9.55,0,0,0,1.26-1.48L46,31.26a9.31,9.31,0,0,1-1.22,1.43A5.66,5.66,0,0,0,43,35.6a10.54,10.54,0,0,1-.82-.82c-1.16-1.31-2.67-.34-4.81,1.65s-4.84,2.06-7.47-.63c-3.48-3.56-6.51-3.54-8.59-3.34,1.43.61,1.92,1.94,2.64,5.32.76,3.54,2.66,5.14,5.26,5.36-1.21.2-1.52.37-3.46,1.7a6,6,0,0,1-4.5.52c1.58.5,3.46,2.16,5.14,2.74a12.61,12.61,0,0,0,3.06.63V51.6l-9.32-.2v2l17-.38,3.36.37V55a.45.45,0,0,0,.45.45H46a.45.45,0,0,0,.45-.45V49.85A.45.45,0,0,0,46,49.4Zm-15.8-.63c.36,0,.73,0,1.1,0v2.91l-1.1,0Z"/><path class="cls-2" d="M19.61,53.08a.71.71,0,0,1-.66.76h-.39a.72.72,0,0,1-.66-.76V51.69a.73.73,0,0,1,.66-.77H19a.72.72,0,0,1,.66.77Z"/><path class="cls-2" d="M20.76,5.45h1.38c.94,0,1.28.47,1.28,1.24V7.86c0,.78-.34,1.25-1.28,1.25h-.45V11h-.93Zm.93.76V8.39H22a.4.4,0,0,0,.46-.46V6.66c0-.3-.14-.45-.46-.45Z"/><path class="cls-2" d="M23.9,5.45h2.22v.76H24.83V7.8h.93v.75h-.93v1.68h1.29V11H23.9Z"/><path class="cls-2" d="M26.47,11l1.05-5.54h1.06L29.63,11h-.95l-.17-1h-1l-.17,1Zm1.17-1.76h.74L28,7h0Z"/><path class="cls-2" d="M29.89,9.56V6.88a1.31,1.31,0,0,1,1.39-1.49c1,0,1.32.57,1.32,1.39v.65h-.85V6.7c0-.34-.12-.54-.45-.54s-.48.24-.48.57v3c0,.33.14.57.48.57s.45-.21.45-.54v-1h.85v.95c0,.8-.33,1.38-1.32,1.38A1.31,1.31,0,0,1,29.89,9.56Z"/><path class="cls-2" d="M33.1,5.45h2.22v.76H34V7.8H35v.75H34v1.68h1.29V11H33.1Z"/><path class="cls-2" d="M36.78,10.17l-.48,1.25h-.52l.11-1.32h.89Z"/><path class="cls-2" d="M40.64,5.45V9.73a1.15,1.15,0,0,1-1.28,1.32c-1,0-1.23-.53-1.23-1.23V8.72H39V9.84c0,.27.1.44.35.44s.35-.17.35-.45V5.45Z"/><path class="cls-2" d="M43.86,5.45V9.64c0,.86-.36,1.41-1.31,1.41a1.25,1.25,0,0,1-1.39-1.41V5.45h.93V9.73c0,.33.13.55.46.55s.46-.22.46-.55V5.45Z"/><path class="cls-2" d="M44.34,9.8V9.05h.87v.76c0,.31.14.49.46.49s.42-.19.42-.49V9.6a1,1,0,0,0-.42-.78l-.54-.55a1.87,1.87,0,0,1-.78-1.48V6.6a1.15,1.15,0,0,1,1.31-1.21c.93,0,1.3.45,1.3,1.25v.45h-.85V6.61c0-.32-.15-.47-.44-.47a.41.41,0,0,0-.44.46v.11c0,.31.17.49.44.75l.59.59A1.83,1.83,0,0,1,47,9.49v.27a1.19,1.19,0,0,1-1.35,1.29A1.15,1.15,0,0,1,44.34,9.8Z"/><path class="cls-2" d="M47.28,5.45h2.47v.76H49V11H48V6.21h-.76Z"/><path class="cls-2" d="M50.18,5.45h.93V11h-.93Z"/><path class="cls-2" d="M51.65,9.56V6.88A1.31,1.31,0,0,1,53,5.39c1,0,1.31.57,1.31,1.39v.65H53.5V6.7c0-.34-.11-.54-.45-.54s-.47.24-.47.57v3c0,.33.14.57.47.57s.45-.21.45-.54v-1h.85v.95c0,.8-.32,1.38-1.31,1.38A1.31,1.31,0,0,1,51.65,9.56Z"/><path class="cls-2" d="M54.86,5.45h2.22v.76H55.79V7.8h.92v.75h-.92v1.68h1.29V11H54.86Z"/><path class="cls-2" d="M20.61,18.74l1.05-5.53h1.06l1.05,5.53h-.95l-.18-1h-1l-.17,1ZM21.78,17h.74l-.37-2.22h0Z"/><path class="cls-2" d="M24.94,15.27v3.47h-.79V13.21h.92l1,3.17V13.21h.78v5.53H26Z"/><path class="cls-2" d="M30.16,14.69v2.57c0,.85-.35,1.48-1.34,1.48H27.38V13.21h1.44C29.81,13.21,30.16,13.84,30.16,14.69ZM28.7,18c.39,0,.53-.22.53-.56v-2.9A.48.48,0,0,0,28.7,14h-.39v4Z"/><path class="cls-2" d="M31.5,17.55v-.74h.87v.76c0,.31.14.49.46.49s.42-.2.42-.49v-.21a1,1,0,0,0-.42-.79L32.29,16a1.87,1.87,0,0,1-.78-1.47v-.19a1.16,1.16,0,0,1,1.31-1.22c.93,0,1.29.46,1.29,1.26v.45h-.84v-.48c0-.32-.15-.48-.44-.48a.41.41,0,0,0-.45.46v.12c0,.31.18.49.45.75l.59.58a1.86,1.86,0,0,1,.75,1.44v.27a1.2,1.2,0,0,1-1.35,1.3A1.16,1.16,0,0,1,31.5,17.55Z"/><path class="cls-2" d="M34.43,13.21h2.48V14h-.77v4.77H35.2V14h-.77Z"/><path class="cls-2" d="M38.27,16.2v2.54h-.93V13.21h1.35c.94,0,1.29.46,1.29,1.24v.71c0,.6-.22.95-.75,1.07l.89,2.51h-1Zm0-2.23v1.72h.31a.4.4,0,0,0,.46-.46v-.81c0-.31-.14-.45-.46-.45Z"/><path class="cls-2" d="M40.48,17.32V14.64a1.41,1.41,0,1,1,2.82,0v2.68a1.41,1.41,0,1,1-2.82,0Zm1.89.14v-3c0-.33-.15-.57-.48-.57s-.48.24-.48.57v3c0,.34.15.57.48.57S42.37,17.8,42.37,17.46Z"/><path class="cls-2" d="M44.61,15.27v3.47h-.78V13.21h.91l1,3.17V13.21h.77v5.53h-.81Z"/><path class="cls-2" d="M48.46,15.79h1.32v2.95h-.67v-.6a.83.83,0,0,1-.89.67c-.8,0-1.17-.64-1.17-1.49V14.64a1.32,1.32,0,0,1,1.4-1.5c1,0,1.33.57,1.33,1.39V15h-.85v-.56c0-.35-.13-.54-.46-.54s-.48.24-.48.57v3c0,.34.13.57.45.57s.46-.17.46-.53v-1h-.44Z"/><path class="cls-2" d="M20.76,21h.93V26.5h-.93Z"/><path class="cls-2" d="M23,23V26.5h-.78V21h.91l1,3.18V21h.77V26.5h-.81Z"/><path class="cls-2" d="M25.4,25.31v-.75h.87v.76c0,.31.14.49.46.49s.42-.19.42-.49v-.21a1,1,0,0,0-.42-.78l-.54-.55a1.87,1.87,0,0,1-.78-1.48v-.19a1.15,1.15,0,0,1,1.31-1.21c.93,0,1.3.46,1.3,1.26v.44h-.85v-.48c0-.32-.15-.47-.44-.47a.41.41,0,0,0-.44.46v.11c0,.31.17.49.44.75l.59.59A1.83,1.83,0,0,1,28.07,25v.27a1.19,1.19,0,0,1-1.35,1.3A1.16,1.16,0,0,1,25.4,25.31Z"/><path class="cls-2" d="M28.33,21h2.48v.76H30V26.5H29.1V21.72h-.77Z"/><path class="cls-2" d="M31.24,21h.93V26.5h-.93Z"/><path class="cls-2" d="M32.6,21h2.48v.76h-.77V26.5h-.94V21.72H32.6Z"/><path class="cls-2" d="M38.21,21v4.19c0,.86-.36,1.42-1.31,1.42a1.25,1.25,0,0,1-1.39-1.42V21h.93v4.28c0,.33.13.55.46.55s.46-.22.46-.55V21Z"/><path class="cls-2" d="M38.64,21h2.47v.76h-.77V26.5H39.4V21.72h-.76Z"/><path class="cls-2" d="M41.54,21h.93V26.5h-.93Z"/><path class="cls-2" d="M43,25.07V22.39a1.41,1.41,0,1,1,2.82,0v2.68a1.41,1.41,0,1,1-2.82,0Zm1.89.15v-3c0-.34-.15-.58-.48-.58s-.48.24-.48.58v3c0,.33.15.57.48.57S44.9,25.55,44.9,25.22Z"/><path class="cls-2" d="M47.14,23V26.5h-.78V21h.91l1,3.18V21h.77V26.5h-.81Z"/><path class="cls-2" d="M49.54,25.31v-.75h.86v.76c0,.31.14.49.46.49s.42-.19.42-.49v-.21a1,1,0,0,0-.41-.78l-.55-.55a1.87,1.87,0,0,1-.78-1.48v-.19a1.15,1.15,0,0,1,1.31-1.21c.93,0,1.3.46,1.3,1.26v.44H51.3v-.48c0-.32-.15-.47-.44-.47a.41.41,0,0,0-.44.46v.11c0,.31.17.49.44.75l.59.59A1.85,1.85,0,0,1,52.21,25v.27a1.2,1.2,0,0,1-1.36,1.3A1.15,1.15,0,0,1,49.54,25.31Z"/></g></g></svg>