<svg xmlns="http://www.w3.org/2000/svg" viewBox="0 0 52.58 52.58"><defs><style>.cls-1{opacity:0.3;}.cls-2{fill:#fff;}</style></defs><g id="Layer_2" data-name="Layer 2"><g id="Layer_1-2" data-name="Layer 1"><g class="cls-1"><path class="cls-2" d="M26.29,51.58A25.29,25.29,0,1,0,1,26.29,25.29,25.29,0,0,0,26.29,51.58Z"/></g><path class="cls-2" d="M26.29,52.58A26.29,26.29,0,1,1,52.58,26.29,26.32,26.32,0,0,1,26.29,52.58ZM26.29,2A24.29,24.29,0,1,0,50.58,26.29,24.32,24.32,0,0,0,26.29,2Z"/><polygon class="cls-2" points="35.74 29.6 35.74 35.82 16.84 35.82 16.84 29.6 15.24 29.6 15.24 37.42 37.34 37.42 37.34 29.6 35.74 29.6"/><polygon class="cls-2" points="31.2 25.13 30.03 24.04 27.09 27.2 27.09 13.96 25.49 13.96 25.49 27.2 22.55 24.04 21.38 25.13 26.29 30.41 31.2 25.13"/></g></g></svg>