<?xml version="1.0" encoding="utf-8"?>
<!-- Generator: Adobe Illustrator 25.4.1, SVG Export Plug-In . SVG Version: 6.00 Build 0)  -->
<svg version="1.1" id="Layer_1" xmlns="http://www.w3.org/2000/svg" xmlns:xlink="http://www.w3.org/1999/xlink" x="0px" y="0px"
	 viewBox="0 0 150 165" style="enable-background:new 0 0 150 165;" xml:space="preserve">
<style type="text/css">
	.st0{fill:#A6BDD1;}
	.st1{fill:#FFFFFF;}
</style>
<g id="Layer_2_00000165220310892379694470000003039070965341264298_">
	<g id="Layer_1-2">
		<rect class="st0" width="150" height="165"/>
		<circle class="st1" cx="75" cy="57.6" r="38.5"/>
		<path class="st0" d="M80.2,53.4H69.8c-0.4,0-0.7-0.4-0.7-0.8c0-0.3,0.3-0.6,0.7-0.7h10.4c0.4,0,0.7,0.4,0.7,0.8
			C80.8,53.1,80.5,53.4,80.2,53.4 M80.2,57.9H69.8c-0.4,0-0.7-0.4-0.7-0.8c0-0.3,0.3-0.6,0.7-0.7h10.4c0.4,0,0.7,0.4,0.7,0.8
			C80.8,57.6,80.5,57.8,80.2,57.9 M77.2,62.3h-7.4c-0.4,0-0.7-0.3-0.7-0.7c0-0.4,0.3-0.7,0.7-0.7h7.4c0.4,0,0.7,0.3,0.7,0.7
			C78,62,77.6,62.3,77.2,62.3 M84.6,65c-0.5,0.2-1,0.3-1.5,0.3c-1.2,0-2.2,1-2.2,2.2c0,0.5-0.1,1-0.3,1.5
			C82.4,68.1,83.8,66.7,84.6,65 M66.8,46c-1.2,0-2.2,1-2.2,2.2v19.3c0,1.2,1,2.2,2.2,2.2h10.4c1.2,0,2.2-1,2.2-2.2
			c0-2,1.6-3.7,3.6-3.7c0,0,0.1,0,0.1,0c1.2,0,2.2-1,2.2-2.2V48.2c0-1.2-1-2.2-2.2-2.2H66.8z M77.2,71.2H66.8c-2,0-3.7-1.6-3.7-3.6
			c0,0,0-0.1,0-0.1V48.2c0-2,1.6-3.7,3.6-3.7c0,0,0.1,0,0.1,0h16.3c2,0,3.7,1.6,3.7,3.6c0,0,0,0.1,0,0.1v13.3
			C86.9,66.9,82.6,71.2,77.2,71.2C77.3,71.2,77.2,71.2,77.2,71.2"/>
	</g>
</g>
<g>
	<path class="st1" d="M39.7,111.6c0-0.1,0.1-0.2,0.2-0.2h0.3c0.1,0,0.2,0.1,0.2,0.2v8.7h4.3c0.2,0,0.2,0.1,0.2,0.2v0.2
		c0,0.1-0.1,0.1-0.2,0.1h-4.8c-0.1,0-0.2-0.1-0.2-0.2V111.6z"/>
	<path class="st1" d="M45.9,112.4c0-0.3,0.2-0.5,0.5-0.5s0.5,0.2,0.5,0.5c0,0.3-0.2,0.5-0.5,0.5S45.9,112.7,45.9,112.4z M46.2,114.8
		c0-0.1,0.1-0.2,0.2-0.2h0.2c0.1,0,0.2,0.1,0.2,0.2v5.8c0,0.1-0.1,0.2-0.2,0.2h-0.2c-0.1,0-0.2-0.1-0.2-0.2V114.8z"/>
	<path class="st1" d="M51.7,114.5c1.2,0,2,0.6,2.3,1c0.1,0.1,0.1,0.2,0,0.3l-0.1,0.1c-0.1,0.1-0.2,0.1-0.3,0
		c-0.1-0.2-0.9-0.7-1.8-0.7c-1.4,0-2.6,1.2-2.6,2.7c0,1.5,1.2,2.7,2.6,2.7c1.1,0,1.8-0.8,2-1c0.1-0.1,0.2-0.1,0.3,0l0.1,0.1
		c0.1,0.1,0.1,0.2,0,0.2c-0.3,0.4-1.1,1.2-2.4,1.2c-1.8,0-3.2-1.4-3.2-3.3C48.5,115.9,49.9,114.5,51.7,114.5z"/>
	<path class="st1" d="M58.3,114.5c1.6,0,2.8,1.2,2.8,2.8c0,0.2,0,0.6-0.2,0.6h-5c0,1.4,1.1,2.5,2.4,2.5c0.9,0,1.5-0.4,1.9-0.6
		c0.1-0.1,0.2-0.1,0.3,0l0.1,0.2c0.1,0.1,0,0.2-0.1,0.2c-0.4,0.3-1.3,0.7-2.3,0.7c-1.8,0-3-1.5-3-3.3
		C55.3,116,56.5,114.5,58.3,114.5z M60.5,117.4c0-1.2-0.8-2.3-2.2-2.3c-1.4,0-2.3,1-2.4,2.3H60.5z"/>
	<path class="st1" d="M62.9,114.8c0-0.1,0.1-0.2,0.2-0.2c0.2,0,0.4,0.3,0.4,0.7v0.2c0.2-0.3,1-0.9,2.2-0.9c1.8,0,2.3,1.1,2.3,2.7
		v3.4c0,0.1-0.1,0.2-0.2,0.2h-0.2c-0.1,0-0.2-0.1-0.2-0.2v-3.4c0-1.4-0.6-2.2-1.8-2.2c-1.3,0-2.1,1-2.1,1.1v4.5
		c0,0.1-0.1,0.2-0.2,0.2h-0.2c-0.1,0-0.2-0.1-0.2-0.2V114.8z"/>
	<path class="st1" d="M69.6,120.1l0.1-0.2c0.1-0.1,0.2-0.1,0.3,0c0.2,0.1,0.8,0.6,1.7,0.6c0.9,0,1.6-0.5,1.6-1.1
		c0-0.7-0.8-1.1-1.8-1.4c-1.1-0.4-1.9-0.8-1.9-1.8c0-0.7,0.6-1.6,2-1.6c0.8,0,1.4,0.3,1.8,0.5c0.1,0.1,0.1,0.2,0.1,0.3l-0.1,0.1
		c-0.1,0.1-0.2,0.1-0.3,0.1c-0.1-0.1-0.8-0.4-1.5-0.4c-1,0-1.4,0.6-1.4,1c0,0.6,0.6,1,1.5,1.3c1.2,0.4,2.1,0.8,2.1,2
		c0,0.9-0.9,1.7-2.1,1.7c-1.1,0-1.7-0.4-2-0.7C69.6,120.3,69.6,120.2,69.6,120.1z"/>
	<path class="st1" d="M78.2,114.5c1.6,0,2.8,1.2,2.8,2.8c0,0.2,0,0.6-0.2,0.6h-5c0,1.4,1.1,2.5,2.4,2.5c0.9,0,1.5-0.4,1.9-0.6
		c0.1-0.1,0.2-0.1,0.3,0l0.1,0.2c0.1,0.1,0,0.2-0.1,0.2c-0.4,0.3-1.3,0.7-2.3,0.7c-1.8,0-3-1.5-3-3.3
		C75.2,116,76.3,114.5,78.2,114.5z M80.4,117.4c0-1.2-0.8-2.3-2.2-2.3c-1.4,0-2.3,1-2.4,2.3H80.4z"/>
	<path class="st1" d="M82.3,120.1l0.1-0.2c0.1-0.1,0.2-0.1,0.3,0c0.2,0.1,0.8,0.6,1.7,0.6c0.9,0,1.6-0.5,1.6-1.1
		c0-0.7-0.8-1.1-1.8-1.4c-1.1-0.4-1.9-0.8-1.9-1.8c0-0.7,0.6-1.6,2-1.6c0.8,0,1.4,0.3,1.8,0.5c0.1,0.1,0.1,0.2,0.1,0.3l-0.1,0.1
		c-0.1,0.1-0.2,0.1-0.3,0.1c-0.1-0.1-0.8-0.4-1.5-0.4c-1,0-1.4,0.6-1.4,1c0,0.6,0.6,1,1.5,1.3c1.2,0.4,2.1,0.8,2.1,2
		c0,0.9-0.9,1.7-2.1,1.7c-1.1,0-1.7-0.4-2-0.7C82.3,120.3,82.2,120.2,82.3,120.1z"/>
	<path class="st1" d="M93.6,116.9c0.7,0,1.4,0.2,1.6,0.3c0-1.3-0.3-2.1-1.7-2.1c-0.8,0-1.5,0.4-1.6,0.4c-0.1,0.1-0.2,0-0.2-0.1
		l-0.1-0.2c-0.1-0.1,0-0.2,0.1-0.2c0,0,0.8-0.5,1.9-0.5c1.9,0,2.2,1.2,2.2,2.7v3.5c0,0.1-0.1,0.2-0.2,0.2c-0.2,0-0.4-0.3-0.4-0.7
		v-0.1l0,0c-0.4,0.4-1.2,0.9-2.2,0.9c-1.2,0-2-0.8-2-2.1C91,117.8,91.9,116.9,93.6,116.9z M93.1,120.5c0.9,0,1.8-0.6,2.1-0.9v-1.8
		c-0.2-0.1-0.9-0.3-1.6-0.3c-1.2,0-2,0.6-2,1.6C91.6,119.8,92.2,120.5,93.1,120.5z"/>
	<path class="st1" d="M97.9,114.8c0-0.1,0.1-0.2,0.2-0.2c0.2,0,0.4,0.3,0.4,0.7v0.2c0.2-0.3,1-0.9,2.2-0.9c1.8,0,2.3,1.1,2.3,2.7
		v3.4c0,0.1-0.1,0.2-0.2,0.2h-0.2c-0.1,0-0.2-0.1-0.2-0.2v-3.4c0-1.4-0.6-2.2-1.8-2.2c-1.3,0-2.1,1-2.1,1.1v4.5
		c0,0.1-0.1,0.2-0.2,0.2h-0.2c-0.1,0-0.2-0.1-0.2-0.2V114.8z"/>
	<path class="st1" d="M107.8,114.5c1.2,0,2,0.6,2,0.6v-3.5c0-0.1,0.1-0.2,0.2-0.2h0.2c0.1,0,0.2,0.1,0.2,0.2v9.1
		c0,0.1-0.1,0.2-0.2,0.2c-0.2,0-0.4-0.3-0.4-0.7v-0.1c-0.2,0.2-1,0.9-2.2,0.9c-1.6,0-2.8-1.4-2.8-3.3
		C104.8,116,106,114.5,107.8,114.5z M107.6,120.5c1.4,0,2.1-1,2.1-1.1v-3.6c0,0-0.8-0.7-1.9-0.7c-1.4,0-2.5,1.2-2.5,2.7
		C105.4,119.2,106.3,120.5,107.6,120.5z"/>
</g>
<g>
	<path class="st1" d="M53.7,130.6c0-0.1,0.1-0.2,0.2-0.2h2.9c1.7,0,3.1,1.3,3.1,3c0,1.8-1.4,3.1-3,3.1h-2.5v3.2
		c0,0.1-0.1,0.2-0.2,0.2h-0.2c-0.1,0-0.2-0.1-0.2-0.2V130.6z M56.8,135.9c1.3,0,2.4-1,2.4-2.5c0-1.4-1.1-2.4-2.5-2.4h-2.4v4.8H56.8z
		"/>
	<path class="st1" d="M63.9,133.5c1.6,0,2.8,1.2,2.8,2.8c0,0.2,0,0.6-0.2,0.6h-5c0,1.4,1.1,2.5,2.4,2.5c0.9,0,1.5-0.4,1.9-0.6
		c0.1-0.1,0.2-0.1,0.3,0l0.1,0.2c0.1,0.1,0,0.2-0.1,0.2c-0.4,0.3-1.3,0.7-2.3,0.7c-1.8,0-3-1.5-3-3.3C60.8,135,62,133.5,63.9,133.5z
		 M66.1,136.4c0-1.2-0.8-2.3-2.2-2.3c-1.4,0-2.3,1-2.4,2.3H66.1z"/>
	<path class="st1" d="M68.4,133.8c0-0.1,0.1-0.2,0.2-0.2c0.2,0,0.4,0.3,0.4,0.7v0.1c0.2-0.2,0.9-0.9,2-0.9c0.5,0,0.9,0.1,1,0.2
		c0.1,0,0.2,0.2,0.2,0.3l-0.1,0.2c0,0.1-0.1,0.1-0.3,0.1c-0.1,0-0.4-0.2-0.8-0.2c-1.2,0-1.9,1-1.9,1.1v4.5c0,0.1-0.1,0.2-0.2,0.2
		h-0.2c-0.1,0-0.2-0.1-0.2-0.2V133.8z"/>
	<path class="st1" d="M73.4,133.8c0-0.1,0.1-0.2,0.2-0.2c0.2,0,0.4,0.3,0.4,0.7v0.1c0.2-0.3,0.8-0.9,2-0.9c1,0,1.5,0.4,1.9,1.1
		c0.2-0.2,0.9-1.1,2.2-1.1c1.7,0,2.3,1.1,2.3,2.8v3.4c0,0.1-0.1,0.2-0.2,0.2H82c-0.1,0-0.2-0.1-0.2-0.2v-3.4c0-1.4-0.5-2.2-1.7-2.2
		c-1.2,0-1.7,0.9-1.9,1.1c0.1,0.3,0.1,0.7,0.1,1.1v3.4c0,0.1-0.1,0.2-0.2,0.2h-0.2c-0.1,0-0.2-0.1-0.2-0.2v-3.4
		c0-1.4-0.6-2.2-1.7-2.2c-1.3,0-1.9,0.9-1.9,1.1v4.5c0,0.1-0.1,0.2-0.2,0.2h-0.2c-0.1,0-0.2-0.1-0.2-0.2V133.8z"/>
	<path class="st1" d="M84.3,131.4c0-0.3,0.2-0.5,0.5-0.5s0.5,0.2,0.5,0.5c0,0.3-0.2,0.5-0.5,0.5S84.3,131.7,84.3,131.4z M84.6,133.8
		c0-0.1,0.1-0.2,0.2-0.2h0.2c0.1,0,0.2,0.1,0.2,0.2v5.8c0,0.1-0.1,0.2-0.2,0.2h-0.2c-0.1,0-0.2-0.1-0.2-0.2V133.8z"/>
	<path class="st1" d="M86.8,134.2c-0.2,0-0.2-0.1-0.2-0.2v-0.2c0-0.1,0.1-0.2,0.2-0.2h0.8v-1.7c0-0.1,0.1-0.2,0.2-0.2l0.2,0
		c0.1,0,0.2,0.1,0.2,0.2v1.7h2.2c0.1,0,0.2,0.1,0.2,0.2v0.2c0,0.1-0.1,0.2-0.2,0.2h-2.2v4c0,0.8,0.3,1.3,1.1,1.3
		c0.5,0,1-0.3,1.2-0.4c0.1-0.1,0.2,0,0.2,0.1l0.1,0.2c0.1,0.1,0,0.2-0.1,0.2c-0.2,0.2-0.9,0.5-1.5,0.5c-1.3,0-1.6-0.8-1.6-1.8v-4
		H86.8z"/>
	<path class="st1" d="M92,139.1l0.1-0.2c0.1-0.1,0.2-0.1,0.3,0c0.2,0.1,0.8,0.6,1.7,0.6c0.9,0,1.6-0.5,1.6-1.1
		c0-0.7-0.8-1.1-1.8-1.4c-1.1-0.4-1.9-0.8-1.9-1.8c0-0.7,0.6-1.6,2-1.6c0.8,0,1.4,0.3,1.8,0.5c0.1,0.1,0.1,0.2,0.1,0.3l-0.1,0.1
		c-0.1,0.1-0.2,0.1-0.3,0.1c-0.1-0.1-0.8-0.4-1.5-0.4c-1,0-1.4,0.6-1.4,1c0,0.6,0.6,1,1.5,1.3c1.2,0.4,2.1,0.8,2.1,2
		c0,0.9-0.9,1.7-2.1,1.7c-1.1,0-1.7-0.4-2-0.7C92,139.3,92,139.2,92,139.1z"/>
</g>
</svg>
