<?xml version="1.0" encoding="utf-8"?>
<!-- Generator: Adobe Illustrator 25.4.1, SVG Export Plug-In . SVG Version: 6.00 Build 0)  -->
<svg version="1.1" id="Layer_1" xmlns="http://www.w3.org/2000/svg" xmlns:xlink="http://www.w3.org/1999/xlink" x="0px" y="0px"
	 viewBox="0 0 150 165" style="enable-background:new 0 0 150 165;" xml:space="preserve">
<style type="text/css">
	.st0{fill:#6CADDF;}
	.st1{fill:#FFFFFF;}
	.st2{fill:none;stroke:#6CADDF;stroke-width:0.97;stroke-miterlimit:10;}
	.st3{enable-background:new    ;}
</style>
<g id="Layer_2_00000168806245457531170750000002107186725357162914_">
	<g id="Layer_1-2">
		<rect class="st0" width="150" height="165"/>
		<circle class="st1" cx="75" cy="57.6" r="38.5"/>
		<path class="st2" d="M76.5,66.9c-1.1,1.8-4.1,0.3-4.1,0.3l-10.1-6.8l-0.7,2l-5.2-0.1l1.8-13.6l5.2,0.8l6.2-0.3 M69.7,49.2
			l-6.2,0.3l-5.2-0.8l-1.8,13.6l5.2,0.1l0.7-2l10.1,6.8c0,0,3,1.5,4.1-0.3 M69.7,49.2l-6.2,0.3l-5.2-0.8l-1.8,13.6l5.2,0.1l0.7-2
			l10.1,6.8c0,0,3,1.5,4.1-0.3 M69.7,49.2l-6.2,0.3l-5.2-0.8l-1.8,13.6l5.2,0.1l0.7-2l10.1,6.8c0,0,3,1.5,4.1-0.3 M62.3,60.4
			c0,0,2.2-8.5,1.3-10.8 M62.3,60.5c0,0,2.2-8.7,1.3-11 M72.7,63.7l2.3,1.9c0,0,3.3,2.8,5,0.4 M72.7,63.7l2.3,2c0,0,3.3,2.8,5,0.4
			 M75,61.5l2.3,1.9c0,0,3.6,3.6,5.8,0.4 M75,61.4l2.3,1.9c0,0,3.6,3.7,5.9,0.4 M85.5,50.5c0,0-11.8-4.8-16-1.3s-2,11,2.7,4.2
			l2.1-0.4c0,0,6.2,3.9,8.7,5.6c1,0.6,1.8,1.5,2.2,2.6c0.2,0.8-0.3,1.6-1.2,1.8c-0.2,0-0.4,0-0.6,0c-2.2-0.7-4.1-1.9-5.7-3.6
			 M85.5,50.5c0,0-11.8-4.7-15.9-1.2s-2,11,2.7,4.2l2.1-0.4c0,0,6.2,3.9,8.7,5.6c1,0.6,1.8,1.5,2.2,2.6c0.2,0.8-0.3,1.6-1.2,1.8
			c-0.2,0-0.4,0-0.6,0c-2.2-0.7-4.1-1.9-5.7-3.6 M84.6,62.7c0.9-0.9,1.7-1.9,2.4-3 M84.5,62.7c0.9-0.9,1.7-1.9,2.4-3 M88.2,63.2
			l5.3-0.1l-1.8-13.7l-5.3,0.8c-0.8,2.4,1.1,11,1.1,11L88.2,63.2z M88.2,63.2l5.3-0.1l-1.8-13.7l-5.3,0.8c-0.8,2.3,1.1,11,1.1,11
			L88.2,63.2z"/>
	</g>
</g>
<g class="st3">
	<path class="st1" d="M32.5,127.4l4.2-9.3c0-0.1,0.1-0.1,0.2-0.1h0c0.1,0,0.1,0,0.2,0.1l4.1,9.3c0,0.1,0,0.2-0.1,0.2h-0.4
		c-0.1,0-0.2-0.1-0.2-0.1l-1.1-2.5h-5.2l-1.1,2.5c0,0.1-0.1,0.1-0.2,0.1h-0.4C32.5,127.6,32.4,127.5,32.5,127.4z M39.1,124.5
		l-2.3-5.4h0l-2.3,5.4H39.1z"/>
</g>
<g class="st3">
	<path class="st1" d="M42.4,121.5c0-0.1,0.1-0.2,0.2-0.2c0.2,0,0.4,0.3,0.4,0.7v0.2c0.2-0.3,1-0.9,2.2-0.9c1.8,0,2.4,1.1,2.4,2.7
		v3.4c0,0.1-0.1,0.2-0.2,0.2h-0.2c-0.1,0-0.2-0.1-0.2-0.2V124c0-1.4-0.6-2.2-1.8-2.2c-1.3,0-2.1,1-2.1,1.1v4.5
		c0,0.1-0.1,0.2-0.2,0.2h-0.2c-0.1,0-0.2-0.1-0.2-0.2V121.5z"/>
</g>
<g class="st3">
	<path class="st1" d="M49.1,121.9c-0.2,0-0.2-0.1-0.2-0.2v-0.2c0-0.1,0.1-0.2,0.2-0.2h0.8v-1.7c0-0.1,0.1-0.2,0.2-0.2l0.2,0
		c0.1,0,0.2,0.1,0.2,0.2v1.7h2.2c0.1,0,0.2,0.1,0.2,0.2v0.2c0,0.1-0.1,0.2-0.2,0.2h-2.2v4c0,0.8,0.3,1.3,1.1,1.3
		c0.5,0,1-0.3,1.2-0.4c0.1-0.1,0.2,0,0.2,0.1l0.1,0.2c0.1,0.1,0,0.2-0.1,0.2c-0.2,0.2-0.9,0.5-1.5,0.5c-1.3,0-1.6-0.8-1.6-1.8v-4
		H49.1z"/>
</g>
<g class="st3">
	<path class="st1" d="M54.2,119.1c0-0.3,0.2-0.5,0.5-0.5c0.3,0,0.5,0.2,0.5,0.5c0,0.3-0.2,0.5-0.5,0.5
		C54.4,119.6,54.2,119.4,54.2,119.1z M54.4,121.6c0-0.1,0.1-0.2,0.2-0.2h0.2c0.1,0,0.2,0.1,0.2,0.2v5.8c0,0.1-0.1,0.2-0.2,0.2h-0.2
		c-0.1,0-0.2-0.1-0.2-0.2V121.6z"/>
</g>
<g class="st3">
	<path class="st1" d="M60,121.2c1.2,0,2,0.6,2.3,1c0.1,0.1,0.1,0.2,0,0.3l-0.1,0.1c-0.1,0.1-0.2,0.1-0.3,0c-0.1-0.2-0.9-0.7-1.8-0.7
		c-1.4,0-2.6,1.2-2.6,2.7c0,1.5,1.2,2.7,2.6,2.7c1.1,0,1.8-0.8,2-1c0.1-0.1,0.2-0.1,0.3,0l0.1,0.1c0.1,0.1,0.1,0.2,0,0.2
		c-0.3,0.4-1.1,1.2-2.4,1.2c-1.8,0-3.2-1.4-3.2-3.3C56.8,122.6,58.3,121.2,60,121.2z"/>
</g>
<g class="st3">
	<path class="st1" d="M66.8,121.2c1.7,0,3.1,1.5,3.1,3.2c0,1.8-1.4,3.3-3.1,3.3c-1.8,0-3.1-1.5-3.1-3.3
		C63.6,122.7,65,121.2,66.8,121.2z M66.8,127.2c1.4,0,2.5-1.2,2.5-2.7c0-1.5-1.1-2.7-2.5-2.7c-1.4,0-2.5,1.2-2.5,2.7
		C64.2,126,65.3,127.2,66.8,127.2z"/>
</g>
<g class="st3">
	<path class="st1" d="M71.6,121.5c0-0.1,0.1-0.2,0.2-0.2c0.2,0,0.4,0.3,0.4,0.7v0.1c0.2-0.2,0.9-0.9,2-0.9c0.5,0,0.9,0.1,1,0.2
		c0.1,0,0.2,0.2,0.2,0.3l-0.1,0.2c0,0.1-0.1,0.1-0.3,0.1c-0.1,0-0.4-0.2-0.8-0.2c-1.2,0-1.8,1-1.9,1.1v4.5c0,0.1-0.1,0.2-0.2,0.2
		h-0.2c-0.1,0-0.2-0.1-0.2-0.2V121.5z"/>
</g>
<g class="st3">
	<path class="st1" d="M76.7,121.5c0-0.1,0.1-0.2,0.2-0.2c0.2,0,0.4,0.3,0.4,0.7v0.1c0.2-0.2,0.9-0.9,2-0.9c0.5,0,0.9,0.1,1,0.2
		c0.1,0,0.2,0.2,0.2,0.3l-0.1,0.2c0,0.1-0.1,0.1-0.3,0.1c-0.1,0-0.4-0.2-0.8-0.2c-1.2,0-1.9,1-1.9,1.1v4.5c0,0.1-0.1,0.2-0.2,0.2
		h-0.2c-0.1,0-0.2-0.1-0.2-0.2V121.5z"/>
</g>
<g class="st3">
	<path class="st1" d="M81.7,121.6c0-0.1,0.1-0.2,0.2-0.2h0.2c0.1,0,0.2,0.1,0.2,0.2v3.5c0,1.4,0.5,2.1,1.8,2.1c1.2,0,1.8-0.9,2-1.2
		v-4.4c0-0.1,0.1-0.2,0.2-0.2h0.2c0.1,0,0.2,0.1,0.2,0.2v5.9c0,0.1-0.1,0.2-0.2,0.2c-0.2,0-0.4-0.3-0.4-0.7v-0.1
		c-0.2,0.2-0.9,0.9-2,0.9c-1.8,0-2.3-0.9-2.3-2.7V121.6z"/>
</g>
<g class="st3">
	<path class="st1" d="M89.4,130.6c0,0.1-0.1,0.2-0.2,0.2h-0.2c-0.1,0-0.2-0.1-0.2-0.2v-9.1c0-0.1,0.1-0.2,0.2-0.2
		c0.2,0,0.4,0.2,0.4,0.6c0.2-0.2,1-0.7,2.1-0.7c1.7,0,3,1.4,3,3.2c0,1.8-1.3,3.3-3.1,3.3c-1,0-1.7-0.5-1.9-0.6V130.6z M89.4,126.4
		c0.1,0.1,0.8,0.8,1.9,0.8c1.5,0,2.5-1.2,2.5-2.7c0-1.4-1-2.6-2.4-2.6c-1.2,0-1.9,0.7-2,0.8V126.4z"/>
</g>
<g class="st3">
	<path class="st1" d="M95.7,121.9c-0.2,0-0.2-0.1-0.2-0.2v-0.2c0-0.1,0.1-0.2,0.2-0.2h0.8v-1.7c0-0.1,0.1-0.2,0.2-0.2l0.2,0
		c0.1,0,0.2,0.1,0.2,0.2v1.7h2.2c0.1,0,0.2,0.1,0.2,0.2v0.2c0,0.1-0.1,0.2-0.2,0.2H97v4c0,0.8,0.3,1.3,1.1,1.3c0.5,0,1-0.3,1.2-0.4
		c0.1-0.1,0.2,0,0.2,0.1l0.1,0.2c0.1,0.1,0,0.2-0.1,0.2c-0.2,0.2-0.9,0.5-1.5,0.5c-1.3,0-1.6-0.8-1.6-1.8v-4H95.7z"/>
</g>
<g class="st3">
	<path class="st1" d="M100.8,119.1c0-0.3,0.2-0.5,0.5-0.5c0.3,0,0.5,0.2,0.5,0.5c0,0.3-0.2,0.5-0.5,0.5
		C101,119.6,100.8,119.4,100.8,119.1z M101,121.6c0-0.1,0.1-0.2,0.2-0.2h0.2c0.1,0,0.2,0.1,0.2,0.2v5.8c0,0.1-0.1,0.2-0.2,0.2h-0.2
		c-0.1,0-0.2-0.1-0.2-0.2V121.6z"/>
</g>
<g class="st3">
	<path class="st1" d="M106.5,121.2c1.7,0,3.1,1.5,3.1,3.2c0,1.8-1.4,3.3-3.1,3.3c-1.8,0-3.1-1.5-3.1-3.3
		C103.3,122.7,104.7,121.2,106.5,121.2z M106.5,127.2c1.4,0,2.5-1.2,2.5-2.7c0-1.5-1.1-2.7-2.5-2.7c-1.4,0-2.5,1.2-2.5,2.7
		C103.9,126,105,127.2,106.5,127.2z"/>
</g>
<g class="st3">
	<path class="st1" d="M111.4,121.5c0-0.1,0.1-0.2,0.2-0.2c0.2,0,0.4,0.3,0.4,0.7v0.2c0.2-0.3,1-0.9,2.2-0.9c1.8,0,2.3,1.1,2.3,2.7
		v3.4c0,0.1-0.1,0.2-0.2,0.2h-0.2c-0.1,0-0.2-0.1-0.2-0.2V124c0-1.4-0.6-2.2-1.8-2.2c-1.3,0-2.1,1-2.1,1.1v4.5
		c0,0.1-0.1,0.2-0.2,0.2h-0.2c-0.1,0-0.2-0.1-0.2-0.2V121.5z"/>
</g>
</svg>
