<?xml version="1.0" encoding="utf-8"?>
<!-- Generator: Adobe Illustrator 25.4.1, SVG Export Plug-In . SVG Version: 6.00 Build 0)  -->
<svg version="1.1" id="Layer_1" xmlns="http://www.w3.org/2000/svg" xmlns:xlink="http://www.w3.org/1999/xlink" x="0px" y="0px"
	 viewBox="0 0 150 165" style="enable-background:new 0 0 150 165;" xml:space="preserve">
<style type="text/css">
	.st0{fill:#FDB71A;}
	.st1{fill:#FFFFFF;}
</style>
<g id="Layer_2_00000042702518645472661950000009364830955644506266_">
	<g id="Layer_1-2">
		<rect class="st0" width="150" height="165"/>
		<circle class="st1" cx="75" cy="57.6" r="38.5"/>
		<path class="st0" d="M60.9,53.4c-0.4,0-0.7-0.3-0.7-0.7c0,0,0,0,0-0.1v-3c0-2,1.6-3.7,3.7-3.7c0,0,0,0,0.1,0h3
			c0.4,0,0.7,0.3,0.7,0.7s-0.3,0.7-0.7,0.7c0,0,0,0,0,0h-3c-1.2,0-2.2,1-2.2,2.2v3C61.7,53.1,61.4,53.4,60.9,53.4
			C61,53.5,60.9,53.5,60.9,53.4 M89.1,53.5c-0.4,0-0.7-0.3-0.7-0.7c0,0,0-0.1,0-0.1v-3c0-1.2-1-2.2-2.2-2.2h-3
			c-0.4,0-0.7-0.3-0.7-0.7s0.3-0.7,0.7-0.7c0,0,0,0,0,0h3c2,0,3.7,1.6,3.7,3.6c0,0,0,0,0,0.1v3C89.9,53.1,89.6,53.4,89.1,53.5
			C89.1,53.5,89.1,53.5,89.1,53.5 M65.4,65.3c-0.4,0-0.7-0.3-0.8-0.7c0,0,0-0.1,0-0.1V51.2c0-0.4,0.4-0.7,0.8-0.7
			c0.3,0,0.6,0.3,0.7,0.7v13.3C66.1,65,65.8,65.3,65.4,65.3C65.4,65.3,65.4,65.3,65.4,65.3 M69.8,65.3c-0.4,0-0.7-0.3-0.7-0.7
			c0,0,0-0.1,0-0.1V51.2c0-0.4,0.3-0.7,0.7-0.7c0.4,0,0.7,0.3,0.7,0.7v13.3C70.6,65,70.3,65.3,69.8,65.3
			C69.9,65.3,69.8,65.3,69.8,65.3 M72.8,65.3c-0.4,0-0.7-0.3-0.7-0.7c0,0,0,0,0-0.1V51.2c0-0.4,0.4-0.7,0.8-0.7
			c0.3,0,0.6,0.3,0.7,0.7v13.3C73.6,65,73.3,65.3,72.8,65.3C72.9,65.3,72.8,65.3,72.8,65.3 M75.8,65.3c-0.4,0-0.7-0.3-0.7-0.7
			c0,0,0,0,0-0.1V51.2c0-0.4,0.3-0.7,0.7-0.7c0.4,0,0.7,0.3,0.7,0.7v13.3C76.6,64.9,76.3,65.3,75.8,65.3
			C75.9,65.3,75.8,65.3,75.8,65.3 M81.8,65.3c-0.4,0-0.7-0.3-0.8-0.7c0,0,0-0.1,0-0.1V51.2c0-0.4,0.4-0.7,0.8-0.7
			c0.3,0,0.6,0.3,0.7,0.7v13.3C82.5,65,82.2,65.3,81.8,65.3C81.8,65.3,81.8,65.3,81.8,65.3 M84.8,65.3c-0.4,0-0.7-0.3-0.7-0.7
			c0,0,0,0,0-0.1V51.2c0-0.4,0.3-0.7,0.7-0.7c0.4,0,0.7,0.3,0.7,0.7v13.3C85.5,64.9,85.2,65.3,84.8,65.3
			C84.8,65.3,84.8,65.3,84.8,65.3 M67,69.8h-3c-2,0-3.7-1.6-3.7-3.6c0,0,0,0,0-0.1v-3c0-0.4,0.4-0.7,0.8-0.7c0.3,0,0.6,0.3,0.7,0.7
			v3c0,1.2,1,2.2,2.2,2.2h3c0.4,0,0.7,0.4,0.7,0.8C67.6,69.4,67.3,69.7,67,69.8 M86.2,69.8h-3c-0.4,0-0.7-0.4-0.7-0.8
			c0-0.3,0.3-0.6,0.7-0.7h3c1.2,0,2.2-1,2.2-2.2v-3c0-0.4,0.4-0.7,0.8-0.7c0.3,0,0.6,0.3,0.7,0.7v3C90,68.1,88.3,69.7,86.2,69.8
			C86.3,69.8,86.3,69.8,86.2,69.8"/>
	</g>
</g>
<g>
	<path class="st1" d="M32.9,118.1c0-0.1,0.1-0.2,0.2-0.2H36c1.7,0,3.1,1.3,3.1,3c0,1.8-1.4,3.1-3,3.1h-2.5v3.2
		c0,0.1-0.1,0.2-0.2,0.2h-0.2c-0.1,0-0.2-0.1-0.2-0.2V118.1z M35.9,123.4c1.3,0,2.4-1,2.4-2.5c0-1.4-1.1-2.4-2.5-2.4h-2.4v4.8H35.9z
		"/>
	<path class="st1" d="M40.5,121.3c0-0.1,0.1-0.2,0.2-0.2c0.2,0,0.4,0.3,0.4,0.7v0.1c0.2-0.2,0.9-0.9,2-0.9c0.5,0,0.9,0.1,1,0.2
		c0.1,0,0.2,0.2,0.2,0.3l-0.1,0.2c0,0.1-0.1,0.1-0.3,0.1c-0.1,0-0.4-0.2-0.8-0.2c-1.2,0-1.9,1-1.9,1.1v4.5c0,0.1-0.1,0.2-0.2,0.2
		h-0.2c-0.1,0-0.2-0.1-0.2-0.2V121.3z"/>
	<path class="st1" d="M48,121c1.7,0,3.1,1.5,3.1,3.2c0,1.8-1.4,3.3-3.1,3.3c-1.8,0-3.1-1.5-3.1-3.3C44.9,122.5,46.2,121,48,121z
		 M48,127c1.4,0,2.5-1.2,2.5-2.7c0-1.5-1.1-2.7-2.5-2.7c-1.4,0-2.5,1.2-2.5,2.7C45.5,125.8,46.6,127,48,127z"/>
	<path class="st1" d="M55.6,121c1.2,0,2,0.6,2,0.6v-3.5c0-0.1,0.1-0.2,0.2-0.2H58c0.1,0,0.2,0.1,0.2,0.2v9.1c0,0.1-0.1,0.2-0.2,0.2
		c-0.2,0-0.4-0.3-0.4-0.7v-0.1c-0.2,0.2-1,0.9-2.2,0.9c-1.6,0-2.8-1.4-2.8-3.3C52.6,122.5,53.8,121,55.6,121z M55.5,127
		c1.4,0,2.1-1,2.1-1.1v-3.6c0,0-0.8-0.7-1.9-0.7c-1.4,0-2.5,1.2-2.5,2.7C53.2,125.7,54.2,127,55.5,127z"/>
	<path class="st1" d="M60.3,121.4c0-0.1,0.1-0.2,0.2-0.2h0.2c0.1,0,0.2,0.1,0.2,0.2v3.5c0,1.4,0.5,2.1,1.8,2.1c1.2,0,1.8-0.9,2-1.2
		v-4.4c0-0.1,0.1-0.2,0.2-0.2h0.2c0.1,0,0.2,0.1,0.2,0.2v5.9c0,0.1-0.1,0.2-0.2,0.2c-0.2,0-0.4-0.3-0.4-0.7v-0.1
		c-0.2,0.2-0.9,0.9-2,0.9c-1.8,0-2.3-0.9-2.3-2.7V121.4z"/>
	<path class="st1" d="M70.3,121c1.2,0,2,0.6,2.3,1c0.1,0.1,0.1,0.2,0,0.3l-0.1,0.1c-0.1,0.1-0.2,0.1-0.3,0c-0.1-0.2-0.9-0.7-1.8-0.7
		c-1.4,0-2.6,1.2-2.6,2.7c0,1.5,1.2,2.7,2.6,2.7c1.1,0,1.8-0.8,2-1c0.1-0.1,0.2-0.1,0.3,0l0.1,0.1c0.1,0.1,0.1,0.2,0,0.2
		c-0.3,0.4-1.1,1.2-2.4,1.2c-1.8,0-3.2-1.4-3.2-3.3C67,122.4,68.5,121,70.3,121z"/>
	<path class="st1" d="M74,121.7c-0.2,0-0.2-0.1-0.2-0.2v-0.2c0-0.1,0.1-0.2,0.2-0.2h0.8v-1.7c0-0.1,0.1-0.2,0.2-0.2l0.2,0
		c0.1,0,0.2,0.1,0.2,0.2v1.7h2.2c0.1,0,0.2,0.1,0.2,0.2v0.2c0,0.1-0.1,0.2-0.2,0.2h-2.2v4c0,0.8,0.3,1.3,1.1,1.3
		c0.5,0,1-0.3,1.2-0.4c0.1-0.1,0.2,0,0.2,0.1l0.1,0.2c0.1,0.1,0,0.2-0.1,0.2c-0.2,0.2-0.9,0.5-1.5,0.5c-1.3,0-1.6-0.8-1.6-1.8v-4H74
		z"/>
	<path class="st1" d="M82.4,126.1l0.1-0.2c0.1-0.1,0.2-0.1,0.3-0.1c0.1,0.1,1.1,1,2.5,1c1.2,0,2.3-0.7,2.3-1.8c0-1.2-1-1.7-2.6-2.3
		c-1.6-0.6-2.6-1.1-2.6-2.7c0-1,0.8-2.4,2.9-2.4c1.3,0,2.3,0.7,2.3,0.7c0.1,0,0.1,0.1,0.1,0.3l-0.1,0.2c-0.1,0.1-0.2,0.1-0.3,0.1
		c0,0-0.9-0.6-2-0.6c-1.7,0-2.3,1-2.3,1.8c0,1.1,0.9,1.6,2.2,2.1c1.9,0.6,3,1.3,3,2.8c0,1.5-1.4,2.4-2.9,2.4c-1.6,0-2.7-0.9-2.9-1.1
		C82.3,126.4,82.2,126.3,82.4,126.1z"/>
	<path class="st1" d="M92.1,123.4c0.7,0,1.4,0.2,1.6,0.3c0-1.3-0.3-2.1-1.7-2.1c-0.8,0-1.5,0.4-1.6,0.4c-0.1,0.1-0.2,0-0.2-0.1
		l-0.1-0.2c-0.1-0.1,0-0.2,0.1-0.2c0,0,0.8-0.5,1.9-0.5c1.9,0,2.2,1.2,2.2,2.7v3.5c0,0.1-0.1,0.2-0.2,0.2c-0.2,0-0.4-0.3-0.4-0.7
		v-0.1l0,0c-0.4,0.4-1.2,0.9-2.2,0.9c-1.2,0-2-0.8-2-2.1C89.5,124.3,90.5,123.4,92.1,123.4z M91.6,127c0.9,0,1.8-0.6,2.1-0.9v-1.8
		c-0.2-0.1-0.9-0.3-1.6-0.3c-1.2,0-2,0.6-2,1.6C90.1,126.4,90.7,127,91.6,127z"/>
	<path class="st1" d="M96.7,121.7h-1c-0.1,0-0.2-0.1-0.2-0.2v-0.2c0-0.1,0.1-0.2,0.2-0.2h1v-1c0-1.5,0.7-2.4,2-2.4
		c0.8,0,1.5,0.4,1.7,0.7c0.1,0.1,0.1,0.2,0,0.3l-0.1,0.2c-0.1,0.1-0.2,0.1-0.3,0c-0.4-0.3-0.8-0.5-1.4-0.5c-1,0-1.4,0.6-1.4,1.8v1
		h2.3c0.1,0,0.2,0.1,0.2,0.2v0.2c0,0.1-0.1,0.2-0.2,0.2h-2.3v5.5c0,0.1-0.1,0.2-0.2,0.2h-0.2c-0.1,0-0.2-0.1-0.2-0.2V121.7z"/>
	<path class="st1" d="M103.6,121c1.6,0,2.8,1.2,2.8,2.8c0,0.2,0,0.6-0.2,0.6h-5c0,1.4,1.1,2.5,2.4,2.5c0.9,0,1.5-0.4,1.9-0.6
		c0.1-0.1,0.2-0.1,0.3,0l0.1,0.2c0.1,0.1,0,0.2-0.1,0.2c-0.4,0.3-1.3,0.7-2.3,0.7c-1.8,0-3-1.5-3-3.3
		C100.6,122.5,101.8,121,103.6,121z M105.8,123.9c0-1.2-0.8-2.3-2.2-2.3c-1.4,0-2.3,1-2.4,2.3H105.8z"/>
	<path class="st1" d="M107.5,121.7c-0.2,0-0.2-0.1-0.2-0.2v-0.2c0-0.1,0.1-0.2,0.2-0.2h0.8v-1.7c0-0.1,0.1-0.2,0.2-0.2l0.2,0
		c0.1,0,0.2,0.1,0.2,0.2v1.7h2.2c0.1,0,0.2,0.1,0.2,0.2v0.2c0,0.1-0.1,0.2-0.2,0.2h-2.2v4c0,0.8,0.3,1.3,1.1,1.3
		c0.5,0,1-0.3,1.2-0.4c0.1-0.1,0.2,0,0.2,0.1l0.1,0.2c0.1,0.1,0,0.2-0.1,0.2c-0.2,0.2-0.9,0.5-1.5,0.5c-1.3,0-1.6-0.8-1.6-1.8v-4
		H107.5z"/>
	<path class="st1" d="M112.4,121.4c-0.1-0.1,0-0.3,0.1-0.3h0.3c0.1,0,0.2,0,0.2,0.1l2.2,5.4h0l2.3-5.4c0-0.1,0.1-0.1,0.2-0.1h0.3
		c0.1,0,0.2,0.1,0.1,0.3l-3.9,9.1c0,0.1-0.1,0.1-0.2,0.1h-0.3c-0.1,0-0.2-0.1-0.1-0.2l1.3-3L112.4,121.4z"/>
</g>
</svg>
