<?xml version="1.0" encoding="utf-8"?>
<!-- Generator: Adobe Illustrator 25.4.1, SVG Export Plug-In . SVG Version: 6.00 Build 0)  -->
<svg version="1.1" id="Layer_1" xmlns="http://www.w3.org/2000/svg" xmlns:xlink="http://www.w3.org/1999/xlink" x="0px" y="0px"
	 viewBox="0 0 150 165" style="enable-background:new 0 0 150 165;" xml:space="preserve">
<style type="text/css">
	.st0{fill:#6CADDF;}
	.st1{fill:#FFFFFF;}
</style>
<g id="Layer_2_00000038402086690744107680000010062595767673280918_">
	<g id="Layer_1-2">
		<rect class="st0" width="150" height="165"/>
		<circle class="st1" cx="75" cy="57.6" r="38.5"/>
		<path class="st0" d="M65.5,56.4c-0.4,0-0.7,0.3-0.7,0.7c0,0,0,0.1,0,0.1v10.4c0,0.4,0.3,0.7,0.7,0.7c0,0,0.1,0,0.1,0h3
			c0.4,0,0.7-0.3,0.7-0.6c0,0,0-0.1,0-0.1V57.2c0-0.4-0.3-0.7-0.6-0.7c0,0-0.1,0-0.1,0H65.5z M74.8,47.5c-0.6-0.1-1.1,0.4-1.2,1
			c0,0.1,0,0.1,0,0.2V49c0,1.6-0.3,3.2-1,4.6l-2,3.7v8.8c0,1.2,1,2.2,2.2,2.2h9.2c1.2,0,2.1-0.9,2.2-2.1l0.9-8.9
			c0.2-1.1-0.6-2.2-1.8-2.4c0,0-0.1,0-0.1,0h-5.9c-0.4,0-0.7-0.2-0.7-0.6L76,48.7C76,48,75.5,47.5,74.8,47.5
			C74.8,47.5,74.8,47.5,74.8,47.5 M82.1,69.8h-9.2c-0.9,0-1.9-0.3-2.5-1c-0.5,0.6-1.2,1-1.9,1h-3c-1.2,0-2.2-1-2.2-2.2V57.2
			c0-1.2,1-2.2,2.2-2.2h3c0.6,0,1.1,0.2,1.5,0.6l1.3-2.7c0.6-1.2,0.9-2.5,0.9-3.8v-0.3c0-1.5,1.3-2.7,2.8-2.7c1.4,0,2.6,1.1,2.7,2.5
			l0.4,4.9H83c2,0,3.7,1.6,3.7,3.6c0,0,0,0.1,0,0.1v0.3l-0.9,8.9C85.7,68.3,84,69.8,82.1,69.8"/>
	</g>
</g>
<g>
	<path class="st1" d="M44.8,116.3c0-0.1,0.1-0.2,0.2-0.2h0.3c0.1,0,0.2,0.1,0.2,0.2v4.1h6.1v-4.1c0-0.1,0.1-0.2,0.2-0.2H52
		c0.1,0,0.2,0.1,0.2,0.2v9.1c0,0.1-0.1,0.2-0.2,0.2h-0.3c-0.1,0-0.2-0.1-0.2-0.2v-4.4h-6.1v4.4c0,0.1-0.1,0.2-0.2,0.2H45
		c-0.1,0-0.2-0.1-0.2-0.2V116.3z"/>
	<path class="st1" d="M57.2,119.3c1.6,0,2.8,1.2,2.8,2.8c0,0.2,0,0.6-0.2,0.6h-5c0,1.4,1.1,2.5,2.4,2.5c0.9,0,1.5-0.4,1.9-0.6
		c0.1-0.1,0.2-0.1,0.3,0l0.1,0.2c0.1,0.1,0,0.2-0.1,0.2c-0.4,0.3-1.3,0.7-2.3,0.7c-1.8,0-3-1.5-3-3.3
		C54.2,120.7,55.4,119.3,57.2,119.3z M59.4,122.1c0-1.2-0.8-2.3-2.2-2.3c-1.3,0-2.3,1-2.4,2.3H59.4z"/>
	<path class="st1" d="M63.8,121.6c0.7,0,1.4,0.2,1.6,0.3c0-1.3-0.3-2.1-1.7-2.1c-0.8,0-1.5,0.4-1.6,0.4c-0.1,0.1-0.2,0-0.2-0.1
		l-0.1-0.2c-0.1-0.1,0-0.2,0.1-0.2c0,0,0.8-0.5,1.9-0.5c1.9,0,2.2,1.2,2.2,2.7v3.5c0,0.1-0.1,0.2-0.2,0.2c-0.2,0-0.4-0.3-0.4-0.7
		v-0.1l0,0c-0.4,0.4-1.2,0.9-2.2,0.9c-1.2,0-2-0.8-2-2.1C61.2,122.5,62.2,121.6,63.8,121.6z M63.3,125.2c0.9,0,1.8-0.6,2.1-0.9v-1.8
		c-0.2-0.1-0.9-0.3-1.6-0.3c-1.2,0-2,0.6-2,1.6C61.8,124.6,62.4,125.2,63.3,125.2z"/>
	<path class="st1" d="M68.2,116.4c0-0.1,0.1-0.2,0.2-0.2h0.2c0.1,0,0.2,0.1,0.2,0.2v9c0,0.1-0.1,0.2-0.2,0.2h-0.2
		c-0.1,0-0.2-0.1-0.2-0.2V116.4z"/>
	<path class="st1" d="M70.5,120c-0.2,0-0.2-0.1-0.2-0.2v-0.2c0-0.1,0.1-0.2,0.2-0.2h0.8v-1.7c0-0.1,0.1-0.2,0.2-0.2l0.2,0
		c0.1,0,0.2,0.1,0.2,0.2v1.7H74c0.1,0,0.2,0.1,0.2,0.2v0.2c0,0.1-0.1,0.2-0.2,0.2h-2.2v4c0,0.8,0.3,1.3,1.1,1.3c0.5,0,1-0.3,1.2-0.4
		c0.1-0.1,0.2,0,0.2,0.1l0.1,0.2c0.1,0.1,0,0.2-0.1,0.2c-0.2,0.2-0.9,0.5-1.5,0.5c-1.3,0-1.6-0.8-1.6-1.8v-4H70.5z"/>
	<path class="st1" d="M75.9,116.4c0-0.1,0.1-0.2,0.2-0.2h0.2c0.1,0,0.2,0.1,0.2,0.2v3.8c0.2-0.2,0.9-1,2.1-1c1.6,0,2.3,1,2.3,2.8
		v3.4c0,0.1-0.1,0.2-0.2,0.2h-0.2c-0.1,0-0.2-0.1-0.2-0.2V122c0-1.4-0.6-2.2-1.8-2.2c-1.2,0-1.9,0.9-2.1,1.1v4.4
		c0,0.1-0.1,0.2-0.2,0.2H76c-0.1,0-0.2-0.1-0.2-0.2V116.4z"/>
	<path class="st1" d="M88.4,121.6c0.7,0,1.4,0.2,1.6,0.3c0-1.3-0.3-2.1-1.7-2.1c-0.8,0-1.5,0.4-1.6,0.4c-0.1,0.1-0.2,0-0.2-0.1
		l-0.1-0.2c-0.1-0.1,0-0.2,0.1-0.2c0,0,0.8-0.5,1.9-0.5c1.9,0,2.2,1.2,2.2,2.7v3.5c0,0.1-0.1,0.2-0.2,0.2c-0.2,0-0.4-0.3-0.4-0.7
		v-0.1l0,0c-0.4,0.4-1.2,0.9-2.2,0.9c-1.2,0-2-0.8-2-2.1C85.8,122.5,86.8,121.6,88.4,121.6z M87.9,125.2c0.9,0,1.8-0.6,2.1-0.9v-1.8
		c-0.2-0.1-0.9-0.3-1.6-0.3c-1.2,0-2,0.6-2,1.6C86.4,124.6,87.1,125.2,87.9,125.2z"/>
	<path class="st1" d="M92.8,119.5c0-0.1,0.1-0.2,0.2-0.2c0.2,0,0.4,0.3,0.4,0.7v0.2c0.2-0.3,1-0.9,2.2-0.9c1.8,0,2.3,1.1,2.3,2.7
		v3.4c0,0.1-0.1,0.2-0.2,0.2h-0.2c-0.1,0-0.2-0.1-0.2-0.2V122c0-1.4-0.6-2.2-1.8-2.2c-1.3,0-2.1,1-2.1,1.1v4.5
		c0,0.1-0.1,0.2-0.2,0.2h-0.2c-0.1,0-0.2-0.1-0.2-0.2V119.5z"/>
	<path class="st1" d="M102.6,119.3c1.2,0,2,0.6,2,0.6v-3.5c0-0.1,0.1-0.2,0.2-0.2h0.2c0.1,0,0.2,0.1,0.2,0.2v9.1
		c0,0.1-0.1,0.2-0.2,0.2c-0.2,0-0.4-0.3-0.4-0.7v-0.1c-0.2,0.2-1,0.9-2.2,0.9c-1.6,0-2.8-1.4-2.8-3.3
		C99.6,120.7,100.9,119.3,102.6,119.3z M102.5,125.2c1.4,0,2.1-1,2.1-1.1v-3.6c0,0-0.8-0.7-1.9-0.7c-1.4,0-2.5,1.2-2.5,2.7
		C100.2,124,101.2,125.2,102.5,125.2z"/>
</g>
<g>
	<path class="st1" d="M50.6,135.3c0-0.1,0-0.2,0.1-0.2h0.3c0.1,0,0.1,0.1,0.2,0.1l2.3,7.9c0,0,0,0,0,0l2.4-8.1
		c0-0.1,0.1-0.1,0.2-0.1h0c0.1,0,0.2,0,0.2,0.1l2.4,8.1c0,0,0,0,0,0l2.3-7.9c0-0.1,0.1-0.1,0.2-0.1h0.3c0.1,0,0.2,0,0.1,0.2
		l-2.7,9.3c0,0.1-0.1,0.1-0.1,0.1h-0.1c-0.1,0-0.1,0-0.1-0.1l-2.4-8.2h0l-2.4,8.2c0,0.1-0.1,0.1-0.1,0.1h-0.1c-0.1,0-0.1,0-0.1-0.1
		L50.6,135.3z"/>
	<path class="st1" d="M65.4,138.2c1.6,0,2.8,1.2,2.8,2.8c0,0.2,0,0.6-0.2,0.6h-5c0,1.4,1.1,2.5,2.4,2.5c0.9,0,1.5-0.4,1.9-0.6
		c0.1-0.1,0.2-0.1,0.3,0l0.1,0.2c0.1,0.1,0,0.2-0.1,0.2c-0.4,0.3-1.3,0.7-2.3,0.7c-1.8,0-3-1.5-3-3.3
		C62.3,139.7,63.5,138.2,65.4,138.2z M67.6,141.1c0-1.2-0.8-2.3-2.2-2.3c-1.4,0-2.3,1-2.4,2.3H67.6z"/>
	<path class="st1" d="M69.9,135.4c0-0.1,0.1-0.2,0.2-0.2h0.2c0.1,0,0.2,0.1,0.2,0.2v9c0,0.1-0.1,0.2-0.2,0.2h-0.2
		c-0.1,0-0.2-0.1-0.2-0.2V135.4z"/>
	<path class="st1" d="M72.8,135.4c0-0.1,0.1-0.2,0.2-0.2h0.2c0.1,0,0.2,0.1,0.2,0.2v9c0,0.1-0.1,0.2-0.2,0.2H73
		c-0.1,0-0.2-0.1-0.2-0.2V135.4z"/>
	<path class="st1" d="M75.6,138.5c0-0.1,0.1-0.2,0.2-0.2c0.2,0,0.4,0.3,0.4,0.7v0.2c0.2-0.3,1-0.9,2.2-0.9c1.8,0,2.4,1.1,2.4,2.7
		v3.4c0,0.1-0.1,0.2-0.2,0.2h-0.2c-0.1,0-0.2-0.1-0.2-0.2V141c0-1.4-0.6-2.2-1.8-2.2c-1.3,0-2.1,1-2.1,1.1v4.5
		c0,0.1-0.1,0.2-0.2,0.2h-0.2c-0.1,0-0.2-0.1-0.2-0.2V138.5z"/>
	<path class="st1" d="M85.4,138.2c1.6,0,2.8,1.2,2.8,2.8c0,0.2,0,0.6-0.2,0.6h-5c0,1.4,1.1,2.5,2.4,2.5c0.9,0,1.5-0.4,1.9-0.6
		c0.1-0.1,0.2-0.1,0.3,0l0.1,0.2c0.1,0.1,0,0.2-0.1,0.2c-0.4,0.3-1.3,0.7-2.3,0.7c-1.8,0-3-1.5-3-3.3
		C82.4,139.7,83.6,138.2,85.4,138.2z M87.6,141.1c0-1.2-0.8-2.3-2.2-2.3c-1.4,0-2.3,1-2.4,2.3H87.6z"/>
	<path class="st1" d="M89.6,143.8l0.1-0.2c0.1-0.1,0.2-0.1,0.3,0c0.2,0.1,0.8,0.6,1.7,0.6c0.9,0,1.6-0.5,1.6-1.1
		c0-0.7-0.8-1.1-1.8-1.4c-1.1-0.4-1.9-0.8-1.9-1.8c0-0.7,0.6-1.6,2-1.6c0.8,0,1.4,0.3,1.8,0.5c0.1,0.1,0.1,0.2,0.1,0.3l-0.1,0.1
		c-0.1,0.1-0.2,0.1-0.3,0.1c-0.1-0.1-0.8-0.4-1.5-0.4c-1,0-1.4,0.6-1.4,1c0,0.6,0.6,1,1.5,1.3c1.2,0.4,2.1,0.8,2.1,2
		c0,0.9-0.9,1.7-2.1,1.7c-1.1,0-1.7-0.4-2-0.7C89.6,144,89.5,143.9,89.6,143.8z"/>
	<path class="st1" d="M95.1,143.8l0.1-0.2c0.1-0.1,0.2-0.1,0.3,0c0.2,0.1,0.8,0.6,1.7,0.6c0.9,0,1.6-0.5,1.6-1.1
		c0-0.7-0.8-1.1-1.8-1.4c-1.1-0.4-1.9-0.8-1.9-1.8c0-0.7,0.6-1.6,2-1.6c0.8,0,1.4,0.3,1.8,0.5c0.1,0.1,0.1,0.2,0.1,0.3l-0.1,0.1
		c-0.1,0.1-0.2,0.1-0.3,0.1c-0.1-0.1-0.8-0.4-1.5-0.4c-1,0-1.4,0.6-1.4,1c0,0.6,0.6,1,1.5,1.3c1.2,0.4,2.1,0.8,2.1,2
		c0,0.9-0.9,1.7-2.1,1.7c-1.1,0-1.7-0.4-2-0.7C95.1,144,95.1,143.9,95.1,143.8z"/>
</g>
</svg>
