<?xml version="1.0" encoding="utf-8"?>
<!-- Generator: Adobe Illustrator 25.4.1, SVG Export Plug-In . SVG Version: 6.00 Build 0)  -->
<svg version="1.1" id="Layer_1" xmlns="http://www.w3.org/2000/svg" xmlns:xlink="http://www.w3.org/1999/xlink" x="0px" y="0px"
	 viewBox="0 0 150 165" style="enable-background:new 0 0 150 165;" xml:space="preserve">
<style type="text/css">
	.st0{fill:#FDB71A;}
	.st1{fill:#FFFFFF;}
	.st2{enable-background:new    ;}
</style>
<g id="Layer_1_00000143593557615582201010000010054815635738750864_">
	<g id="Layer_2_00000072266938222990090250000017726977041038156438_">
		<g id="Layer_1-2">
			<rect class="st0" width="150" height="165"/>
			<circle class="st1" cx="75" cy="57.6" r="38.5"/>
			<path class="st0" d="M72,47.5h1.5V46H72V47.5z M85.4,47.5h1.5V46h-1.5V47.5z M63.1,56.4h1.5v-1.5h-1.5V56.4z M73.5,49v8.9h0.7
				c0.4,0,0.7,0.3,0.7,0.7v0.1v0.7h8.9v-0.7c0-0.4,0.3-0.7,0.7-0.7h0.1h0.8v-9h-0.8c-0.4,0-0.7-0.3-0.7-0.7v-0.1v-0.8H75v0.8
				c0,0.4-0.3,0.7-0.7,0.7h-0.1L73.5,49z M72,60.9h1.5v-1.5H72V60.9z M85.4,60.9h1.5v-1.5h-1.5V60.9z M64.6,57.9v8.9h0.7
				c0.4,0,0.7,0.3,0.7,0.7v0.1v0.7h9v-0.7c0-0.4,0.3-0.7,0.7-0.7h0.1h0.7V61H75v0.7c0,0.4-0.3,0.7-0.7,0.7h-0.1h-3
				c-0.4,0-0.7-0.3-0.7-0.7v-0.1v-3c0-0.4,0.3-0.7,0.7-0.7h0.1H72v-1.5h-5.9v0.8c0,0.4-0.3,0.7-0.7,0.7h-0.1H64.6z M63.1,69.8h1.5
				v-1.5h-1.5V69.8z M76.5,69.8H78v-1.5h-1.5V69.8z M78.7,71.2h-3c-0.4,0-0.7-0.3-0.7-0.7c0,0,0,0,0-0.1v-0.7h-8.9v0.7
				c0,0.4-0.3,0.7-0.7,0.7h-0.1h-3c-0.4,0-0.7-0.3-0.7-0.7v-0.1v-3c0-0.4,0.3-0.7,0.7-0.7h0.1h0.7v-8.9h-0.7c-0.4,0-0.7-0.3-0.7-0.7
				v-0.1v-3c0-0.4,0.3-0.7,0.7-0.7h0.1h3c0.4,0,0.7,0.3,0.7,0.7V54v0.7H72V49h-0.7c-0.4,0-0.7-0.3-0.7-0.7v-0.1v-3
				c0-0.4,0.3-0.7,0.7-0.7h0.1h3c0.4,0,0.7,0.3,0.7,0.7v0.1V46H84v-0.7c0-0.4,0.3-0.7,0.7-0.7h0.1h3c0.4,0,0.7,0.3,0.7,0.6v0.1v3
				c0,0.4-0.3,0.7-0.7,0.7h-0.1H87v8.9h0.7c0.4,0,0.7,0.3,0.7,0.7v0.1v3c0,0.4-0.3,0.7-0.7,0.7h-0.1h-3c-0.4,0-0.7-0.3-0.7-0.7v-0.1
				v-0.7H78v5.9h0.7c0.4,0,0.7,0.3,0.7,0.7v0.1v3C79.4,71,79.1,71.3,78.7,71.2C78.8,71.3,78.8,71.3,78.7,71.2"/>
		</g>
	</g>
	<g class="st2">
		<path class="st1" d="M49.5,126.9l4.2-9.3c0-0.1,0.1-0.1,0.2-0.1h0c0.1,0,0.1,0,0.2,0.1l4.1,9.3c0,0.1,0,0.2-0.1,0.2h-0.4
			c-0.1,0-0.2-0.1-0.2-0.1l-1.1-2.5h-5.2l-1.1,2.5c0,0.1-0.1,0.1-0.2,0.1h-0.4C49.5,127.1,49.5,127,49.5,126.9z M56.2,123.9
			l-2.3-5.4h0l-2.3,5.4H56.2z"/>
	</g>
	<g class="st2">
		<path class="st1" d="M59.5,121c0-0.1,0.1-0.2,0.2-0.2c0.2,0,0.4,0.3,0.4,0.7v0.2c0.2-0.3,1-0.9,2.2-0.9c1.8,0,2.4,1.1,2.4,2.7v3.4
			c0,0.1-0.1,0.2-0.2,0.2h-0.2c-0.1,0-0.2-0.1-0.2-0.2v-3.4c0-1.4-0.6-2.2-1.8-2.2c-1.3,0-2.1,1-2.1,1.1v4.5c0,0.1-0.1,0.2-0.2,0.2
			h-0.2c-0.1,0-0.2-0.1-0.2-0.2V121z"/>
	</g>
	<g class="st2">
		<path class="st1" d="M66.1,121.4c-0.2,0-0.2-0.1-0.2-0.2V121c0-0.1,0.1-0.2,0.2-0.2h0.8v-1.7c0-0.1,0.1-0.2,0.2-0.2l0.2,0
			c0.1,0,0.2,0.1,0.2,0.2v1.7h2.2c0.1,0,0.2,0.1,0.2,0.2v0.2c0,0.1-0.1,0.2-0.2,0.2h-2.2v4c0,0.8,0.3,1.3,1.1,1.3
			c0.5,0,1-0.3,1.2-0.4c0.1-0.1,0.2,0,0.2,0.1l0.1,0.2c0.1,0.1,0,0.2-0.1,0.2c-0.2,0.2-0.9,0.5-1.5,0.5c-1.3,0-1.6-0.8-1.6-1.8v-4
			H66.1z"/>
	</g>
	<g class="st2">
		<path class="st1" d="M71.2,118.6c0-0.3,0.2-0.5,0.5-0.5c0.3,0,0.5,0.2,0.5,0.5c0,0.3-0.2,0.5-0.5,0.5
			C71.5,119.1,71.2,118.9,71.2,118.6z M71.5,121c0-0.1,0.1-0.2,0.2-0.2h0.2c0.1,0,0.2,0.1,0.2,0.2v5.8c0,0.1-0.1,0.2-0.2,0.2h-0.2
			c-0.1,0-0.2-0.1-0.2-0.2V121z"/>
	</g>
	<g class="st2">
		<path class="st1" d="M73.7,121.4c-0.2,0-0.2-0.1-0.2-0.2V121c0-0.1,0.1-0.2,0.2-0.2h0.8v-1.7c0-0.1,0.1-0.2,0.2-0.2l0.2,0
			c0.1,0,0.2,0.1,0.2,0.2v1.7h2.2c0.1,0,0.2,0.1,0.2,0.2v0.2c0,0.1-0.1,0.2-0.2,0.2h-2.2v4c0,0.8,0.3,1.3,1.1,1.3
			c0.5,0,1-0.3,1.2-0.4c0.1-0.1,0.2,0,0.2,0.1l0.1,0.2c0.1,0.1,0,0.2-0.1,0.2c-0.2,0.2-0.9,0.5-1.5,0.5c-1.3,0-1.6-0.8-1.6-1.8v-4
			H73.7z"/>
	</g>
	<g class="st2">
		<path class="st1" d="M79.1,121c0-0.1,0.1-0.2,0.2-0.2c0.2,0,0.4,0.3,0.4,0.7v0.1c0.2-0.2,0.9-0.9,2-0.9c0.5,0,0.9,0.1,1,0.2
			c0.1,0,0.2,0.2,0.2,0.3l-0.1,0.2c0,0.1-0.1,0.1-0.3,0.1c-0.1,0-0.4-0.2-0.8-0.2c-1.2,0-1.8,1-1.9,1.1v4.5c0,0.1-0.1,0.2-0.2,0.2
			h-0.2c-0.1,0-0.2-0.1-0.2-0.2V121z"/>
	</g>
	<g class="st2">
		<path class="st1" d="M84.1,121c0-0.1,0.1-0.2,0.2-0.2h0.2c0.1,0,0.2,0.1,0.2,0.2v3.5c0,1.4,0.5,2.1,1.8,2.1c1.2,0,1.8-0.9,2-1.2
			V121c0-0.1,0.1-0.2,0.2-0.2h0.2c0.1,0,0.2,0.1,0.2,0.2v5.9c0,0.1-0.1,0.2-0.2,0.2c-0.2,0-0.4-0.3-0.4-0.7v-0.1
			c-0.2,0.2-0.9,0.9-2,0.9c-1.8,0-2.3-0.9-2.3-2.7V121z"/>
	</g>
	<g class="st2">
		<path class="st1" d="M90.8,126.3l0.1-0.2c0.1-0.1,0.2-0.1,0.3,0c0.2,0.1,0.8,0.6,1.7,0.6c0.9,0,1.6-0.5,1.6-1.1
			c0-0.7-0.8-1.1-1.8-1.4c-1.1-0.4-1.9-0.8-1.9-1.8c0-0.7,0.6-1.6,2-1.6c0.8,0,1.4,0.3,1.8,0.5c0.1,0.1,0.1,0.2,0.1,0.3l-0.1,0.1
			c-0.1,0.1-0.2,0.1-0.3,0.1c-0.1-0.1-0.8-0.4-1.5-0.4c-1,0-1.4,0.6-1.4,1c0,0.6,0.6,1,1.5,1.3c1.2,0.4,2.1,0.8,2.1,2
			c0,0.9-0.9,1.7-2.1,1.7c-1.1,0-1.7-0.4-2-0.7C90.8,126.5,90.8,126.4,90.8,126.3z"/>
	</g>
	<g class="st2">
		<path class="st1" d="M96.3,121.4c-0.2,0-0.2-0.1-0.2-0.2V121c0-0.1,0.1-0.2,0.2-0.2h0.8v-1.7c0-0.1,0.1-0.2,0.2-0.2l0.2,0
			c0.1,0,0.2,0.1,0.2,0.2v1.7h2.2c0.1,0,0.2,0.1,0.2,0.2v0.2c0,0.1-0.1,0.2-0.2,0.2h-2.2v4c0,0.8,0.3,1.3,1.1,1.3
			c0.5,0,1-0.3,1.2-0.4c0.1-0.1,0.2,0,0.2,0.1l0.1,0.2c0.1,0.1,0,0.2-0.1,0.2c-0.2,0.2-0.9,0.5-1.5,0.5c-1.3,0-1.6-0.8-1.6-1.8v-4
			H96.3z"/>
	</g>
</g>
<g id="Layer_2_00000125602237468498163500000017273693196430386329_">
</g>
</svg>
