<?xml version="1.0" encoding="utf-8"?>
<!-- Generator: Adobe Illustrator 25.4.1, SVG Export Plug-In . SVG Version: 6.00 Build 0)  -->
<svg version="1.1" id="Layer_1" xmlns="http://www.w3.org/2000/svg" xmlns:xlink="http://www.w3.org/1999/xlink" x="0px" y="0px"
	 viewBox="0 0 150 165" style="enable-background:new 0 0 150 165;" xml:space="preserve">
<style type="text/css">
	.st0{fill:#007DC3;}
	.st1{fill:#FFFFFF;}
</style>
<g id="Layer_2_00000173860552701853417010000014475382530263224704_">
	<g id="Layer_1-2">
		<rect class="st0" width="150" height="165"/>
		<circle class="st1" cx="75" cy="57.6" r="38.5"/>
		<path class="st0" d="M79.8,43.1L69.7,43c-0.5,0-0.8,0.4-0.8,0.8c0,0.5,0.4,0.8,0.8,0.8h2.7v2.5h-2.3c-0.3,0-0.5,0.2-0.5,0.5v4.6
			c0,0.1,0,0.1,0,0.2c-1.3,0.7-2.4,1.8-3,3.2c-0.5,1-0.7,2.2-0.7,3.3v11.3c0,1.4,1,2.5,2.4,2.6H77c0.8,0.1,1.5,0,2.2-0.4
			c0.7-0.5,1.1-1.2,1.2-2.1V58.8c0-2.6-1.4-5-3.7-6.3c0-0.1,0.1-0.2,0.1-0.2v-4.6c0-0.3-0.2-0.5-0.5-0.5h-2.2v-2.5h4h1.7
			c1.4,0,2.5,1.1,2.5,2.5c0,0.5,0.4,0.8,0.8,0.8s0.8-0.4,0.8-0.8C83.9,44.9,82.1,43.1,79.8,43.1z M77.6,54.2c1.2,1.1,1.9,2.7,2,4.3
			c0,0.5,0,1,0,1.5v9.6c0,0.7,0,1.5-0.7,1.9c-0.6,0.2-1.3,0.3-1.9,0.2h-8.4c-0.8,0-1.5-0.7-1.5-1.5V58.8c0-3.4,2.8-6.2,6.3-6.2
			C74.9,52.5,76.4,53.1,77.6,54.2L77.6,54.2z M75.9,48.1V52c-0.3-0.1-0.5-0.2-0.8-0.2c-1.5-0.4-3.1-0.3-4.5,0.3v-3.9h2.3
			c0.2,0.1,0.5,0.1,0.7,0H75.9z M74.4,60.6h-2.1c-0.3,0-0.5,0.2-0.5,0.5v1.4h-1.4c-0.3,0-0.5,0.2-0.5,0.5v2.1c0,0.3,0.2,0.5,0.5,0.5
			h1.4V67c0,0.3,0.2,0.5,0.5,0.5h2.1c0.3,0,0.5-0.2,0.5-0.5v-1.4h1.4c0.3,0,0.5-0.2,0.5-0.5V63c0-0.1,0-0.3-0.1-0.3
			c-0.1-0.1-0.2-0.1-0.3-0.1h-1.4v-1.4C74.9,60.8,74.6,60.6,74.4,60.6C74.4,60.6,74.4,60.6,74.4,60.6z M75.8,63.5v1.1h-1.4
			c-0.3,0-0.5,0.2-0.5,0.5v1.4h-1.2v-1.4c0-0.3-0.2-0.5-0.5-0.5h-1.4v-1.1h1.4c0.3,0,0.5-0.2,0.5-0.5v-1.4h1.2V63
			c0,0.3,0.2,0.5,0.5,0.5L75.8,63.5z M68.8,57.9h9.4c0.3,0,0.5,0.2,0.5,0.5c0,0.1,0,0.2-0.1,0.3c-0.1,0.1-0.2,0.2-0.4,0.2h-9.4
			c-0.3,0-0.5-0.2-0.5-0.5c0,0,0,0,0,0C68.3,58.1,68.5,57.9,68.8,57.9C68.7,57.9,68.8,57.9,68.8,57.9L68.8,57.9z M78.2,71.2h-9.4
			c-0.3,0-0.5-0.3-0.5-0.5c0-0.1,0.1-0.3,0.2-0.3c0.1-0.1,0.2-0.1,0.3-0.1h9.4c0.1,0,0.2,0,0.2,0.1c0.2,0.1,0.3,0.4,0.2,0.7
			C78.5,71,78.4,71.1,78.2,71.2z"/>
	</g>
</g>
<g>
	<path class="st1" d="M30.9,119.7c0-0.1,0.1-0.2,0.2-0.2h0.3c0.1,0,0.2,0.1,0.2,0.2v4.1h6.1v-4.1c0-0.1,0.1-0.2,0.2-0.2H38
		c0.1,0,0.2,0.1,0.2,0.2v9.1c0,0.1-0.1,0.2-0.2,0.2h-0.3c-0.1,0-0.2-0.1-0.2-0.2v-4.4h-6.1v4.4c0,0.1-0.1,0.2-0.2,0.2H31
		c-0.1,0-0.2-0.1-0.2-0.2V119.7z"/>
	<path class="st1" d="M43.3,122.6c1.6,0,2.8,1.2,2.8,2.8c0,0.2,0,0.6-0.2,0.6h-5c0,1.4,1.1,2.5,2.4,2.5c0.9,0,1.5-0.4,1.9-0.6
		c0.1-0.1,0.2-0.1,0.3,0l0.1,0.2c0.1,0.1,0,0.2-0.1,0.2c-0.4,0.3-1.3,0.7-2.3,0.7c-1.8,0-3-1.5-3-3.3
		C40.3,124.1,41.4,122.6,43.3,122.6z M45.5,125.5c0-1.2-0.8-2.3-2.2-2.3c-1.4,0-2.3,1-2.4,2.3H45.5z"/>
	<path class="st1" d="M49.8,125c0.7,0,1.4,0.2,1.6,0.3c0-1.3-0.3-2.1-1.7-2.1c-0.8,0-1.5,0.4-1.6,0.4c-0.1,0.1-0.2,0-0.2-0.1
		l-0.1-0.2c-0.1-0.1,0-0.2,0.1-0.2c0,0,0.8-0.5,1.9-0.5c1.9,0,2.2,1.2,2.2,2.7v3.5c0,0.1-0.1,0.2-0.2,0.2c-0.2,0-0.4-0.3-0.4-0.7
		v-0.1l0,0c-0.4,0.4-1.2,0.9-2.2,0.9c-1.2,0-2-0.8-2-2.1C47.3,125.9,48.2,125,49.8,125z M49.3,128.5c0.9,0,1.8-0.6,2.1-0.9v-1.8
		c-0.2-0.1-0.9-0.3-1.6-0.3c-1.2,0-2,0.6-2,1.6C47.8,127.9,48.5,128.5,49.3,128.5z"/>
	<path class="st1" d="M54.2,119.7c0-0.1,0.1-0.2,0.2-0.2h0.2c0.1,0,0.2,0.1,0.2,0.2v9c0,0.1-0.1,0.2-0.2,0.2h-0.2
		c-0.1,0-0.2-0.1-0.2-0.2V119.7z"/>
	<path class="st1" d="M56.5,123.3c-0.2,0-0.2-0.1-0.2-0.2v-0.2c0-0.1,0.1-0.2,0.2-0.2h0.8V121c0-0.1,0.1-0.2,0.2-0.2l0.2,0
		c0.1,0,0.2,0.1,0.2,0.2v1.7h2.2c0.1,0,0.2,0.1,0.2,0.2v0.2c0,0.1-0.1,0.2-0.2,0.2h-2.2v4c0,0.8,0.3,1.3,1.1,1.3
		c0.5,0,1-0.3,1.2-0.4c0.1-0.1,0.2,0,0.2,0.1l0.1,0.2c0.1,0.1,0,0.2-0.1,0.2c-0.2,0.2-0.9,0.5-1.5,0.5c-1.3,0-1.6-0.8-1.6-1.8v-4
		H56.5z"/>
	<path class="st1" d="M61.9,119.7c0-0.1,0.1-0.2,0.2-0.2h0.2c0.1,0,0.2,0.1,0.2,0.2v3.8c0.2-0.2,0.9-1,2.1-1c1.6,0,2.3,1,2.3,2.8
		v3.4c0,0.1-0.1,0.2-0.2,0.2h-0.2c-0.1,0-0.2-0.1-0.2-0.2v-3.4c0-1.4-0.6-2.2-1.8-2.2s-1.9,0.9-2.1,1.1v4.4c0,0.1-0.1,0.2-0.2,0.2
		h-0.2c-0.1,0-0.2-0.1-0.2-0.2V119.7z"/>
	<path class="st1" d="M74.2,123.9l-0.2-0.2c-0.6-0.6-1.2-1.3-1.2-2.2c0-0.9,0.7-2.1,2.3-2.1c1.4,0,2.2,1,2.2,2c0,1.1-1.2,2-2.2,2.6
		l2.8,2.7c0.5-0.8,0.8-1.8,0.8-2.8c0-0.1,0-0.2,0-0.3c0-0.1,0-0.1,0.1-0.1H79c0.1,0,0.1,0,0.2,0.1c0,0.1,0,0.2,0,0.3
		c0,1.1-0.4,2.2-1,3.1l1.4,1.4c0.1,0.1,0.2,0.2,0.1,0.3l-0.2,0.2c-0.1,0.1-0.2,0-0.3,0l-1.4-1.4c-0.8,0.9-1.8,1.5-3.1,1.5
		c-1.6,0-2.6-1.1-2.6-2.5C72.2,125.2,73.2,124.4,74.2,123.9z M74.8,128.6c1.1,0,2.1-0.5,2.7-1.3l-2.9-3c-0.9,0.5-1.8,1.2-1.8,2.4
		C72.8,127.7,73.6,128.6,74.8,128.6z M76.7,121.4c0-0.8-0.5-1.5-1.6-1.5c-1.2,0-1.7,0.8-1.7,1.6c0,0.6,0.4,1.2,0.9,1.7
		c0.1,0.1,0.3,0.3,0.4,0.4C75.7,123.1,76.7,122.4,76.7,121.4z"/>
	<path class="st1" d="M84.4,127.7l0.1-0.2c0.1-0.1,0.2-0.1,0.3-0.1c0.1,0.1,1.1,1,2.5,1c1.2,0,2.3-0.7,2.3-1.8c0-1.2-1-1.7-2.6-2.3
		c-1.6-0.6-2.6-1.1-2.6-2.7c0-1,0.8-2.4,2.9-2.4c1.3,0,2.3,0.7,2.3,0.7c0.1,0,0.1,0.1,0.1,0.3l-0.1,0.2c-0.1,0.1-0.2,0.1-0.3,0.1
		c0,0-0.9-0.6-2-0.6c-1.7,0-2.3,1-2.3,1.8c0,1.1,0.9,1.6,2.2,2.1c1.9,0.6,3,1.3,3,2.8c0,1.5-1.4,2.4-2.9,2.4c-1.6,0-2.7-0.9-2.9-1.1
		C84.3,127.9,84.3,127.9,84.4,127.7z"/>
	<path class="st1" d="M94.1,125c0.7,0,1.4,0.2,1.6,0.3c0-1.3-0.3-2.1-1.7-2.1c-0.8,0-1.5,0.4-1.6,0.4c-0.1,0.1-0.2,0-0.2-0.1
		l-0.1-0.2c-0.1-0.1,0-0.2,0.1-0.2c0,0,0.8-0.5,1.9-0.5c1.9,0,2.2,1.2,2.2,2.7v3.5c0,0.1-0.1,0.2-0.2,0.2c-0.2,0-0.4-0.3-0.4-0.7
		v-0.1l0,0c-0.4,0.4-1.2,0.9-2.2,0.9c-1.2,0-2-0.8-2-2.1C91.5,125.9,92.5,125,94.1,125z M93.6,128.5c0.9,0,1.8-0.6,2.1-0.9v-1.8
		c-0.2-0.1-0.9-0.3-1.6-0.3c-1.2,0-2,0.6-2,1.6C92.1,127.9,92.7,128.5,93.6,128.5z"/>
	<path class="st1" d="M98.7,123.3h-1c-0.1,0-0.2-0.1-0.2-0.2v-0.2c0-0.1,0.1-0.2,0.2-0.2h1v-1c0-1.5,0.7-2.4,2-2.4
		c0.8,0,1.5,0.4,1.7,0.7c0.1,0.1,0.1,0.2,0,0.3l-0.1,0.2c-0.1,0.1-0.2,0.1-0.3,0c-0.4-0.3-0.8-0.5-1.4-0.5c-1,0-1.4,0.6-1.4,1.8v1
		h2.3c0.1,0,0.2,0.1,0.2,0.2v0.2c0,0.1-0.1,0.2-0.2,0.2h-2.3v5.5c0,0.1-0.1,0.2-0.2,0.2h-0.2c-0.1,0-0.2-0.1-0.2-0.2V123.3z"/>
	<path class="st1" d="M105.6,122.6c1.6,0,2.8,1.2,2.8,2.8c0,0.2,0,0.6-0.2,0.6h-5c0,1.4,1.1,2.5,2.4,2.5c0.9,0,1.5-0.4,1.9-0.6
		c0.1-0.1,0.2-0.1,0.3,0l0.1,0.2c0.1,0.1,0,0.2-0.1,0.2c-0.4,0.3-1.3,0.7-2.3,0.7c-1.8,0-3-1.5-3-3.3
		C102.6,124.1,103.8,122.6,105.6,122.6z M107.8,125.5c0-1.2-0.8-2.3-2.2-2.3c-1.4,0-2.3,1-2.4,2.3H107.8z"/>
	<path class="st1" d="M109.5,123.3c-0.2,0-0.2-0.1-0.2-0.2v-0.2c0-0.1,0.1-0.2,0.2-0.2h0.8V121c0-0.1,0.1-0.2,0.2-0.2l0.2,0
		c0.1,0,0.2,0.1,0.2,0.2v1.7h2.2c0.1,0,0.2,0.1,0.2,0.2v0.2c0,0.1-0.1,0.2-0.2,0.2h-2.2v4c0,0.8,0.3,1.3,1.1,1.3
		c0.5,0,1-0.3,1.2-0.4c0.1-0.1,0.2,0,0.2,0.1l0.1,0.2c0.1,0.1,0,0.2-0.1,0.2c-0.2,0.2-0.9,0.5-1.5,0.5c-1.3,0-1.6-0.8-1.6-1.8v-4
		H109.5z"/>
	<path class="st1" d="M114.4,123c-0.1-0.1,0-0.3,0.1-0.3h0.3c0.1,0,0.2,0,0.2,0.1l2.2,5.4h0l2.3-5.4c0-0.1,0.1-0.1,0.2-0.1h0.3
		c0.1,0,0.2,0.1,0.1,0.3l-3.9,9.1c0,0.1-0.1,0.1-0.2,0.1h-0.3c-0.1,0-0.2-0.1-0.1-0.2l1.3-3L114.4,123z"/>
</g>
</svg>
