<?xml version="1.0" encoding="utf-8"?>
<!-- Generator: Adobe Illustrator 25.4.1, SVG Export Plug-In . SVG Version: 6.00 Build 0)  -->
<svg version="1.1" id="Layer_1" xmlns="http://www.w3.org/2000/svg" xmlns:xlink="http://www.w3.org/1999/xlink" x="0px" y="0px"
	 viewBox="0 0 150 165" style="enable-background:new 0 0 150 165;" xml:space="preserve">
<style type="text/css">
	.st0{fill:#7AC143;}
	.st1{fill:#FFFFFF;}
	.st2{enable-background:new    ;}
</style>
<g id="Layer_2_00000045586169120766035120000000835930616490007199_">
	<g id="Layer_1-2">
		<rect class="st0" width="150" height="165"/>
		<circle class="st1" cx="75" cy="57.6" r="38.5"/>
		<path class="st0" d="M68.3,73.4c-0.1,0-0.3-0.1-0.4-0.2c-0.2-0.2-0.2-0.5,0-0.7l0,0l1.7-1.7l-6.4-6.5L61.5,66
			c-0.2,0.2-0.5,0.2-0.8,0s-0.2-0.5,0-0.8l2-2.1c0.1-0.1,0.2-0.2,0.4-0.2l0,0c0.1,0,0.3,0.1,0.4,0.2l0.3,0.3l0,0l2.7-2.7
			c0.5-0.5,1.2-0.9,1.9-1.2l1.3-1.9c0.6-0.9,1.5-1.4,2.6-1.4h1.5l0.6-0.6c0.6-0.6,1.4-0.9,2.2-0.9H77c0-1.2,0.1-2.4,0.5-3.5
			c-0.9-1.6-0.9-3.5,0-5.1c-1.3-1.6-4.6-1.7-6.9-1.4c0.2,0.6,0.5,1.2,0.6,1.8c0.2,1.1,0.7,2.2,1.5,3.1c0.7,0.8,1.7,1.3,2.7,1.4
			c0.3,0,0.5,0.2,0.5,0.5S75.7,52,75.4,52c-1.3-0.1-2.5-0.7-3.4-1.7s-1.5-2.3-1.8-3.6c-0.2-0.8-0.5-1.5-0.9-2.2
			c-0.1-0.2-0.1-0.3,0-0.5s0.2-0.3,0.4-0.3c2.3-0.5,6.6-0.7,8.6,1.5c0.2-0.1,0.3-0.3,0.5-0.4c1.6-0.9,3.4-1.5,5.3-1.6
			c1.3-0.2,2.4-0.3,2.8-0.8c0.1-0.2,0.4-0.3,0.6-0.2s0.4,0.3,0.4,0.5c-0.1,2.9-1.3,5.7-3.3,7.8c-1.2,1.1-2.8,1.7-4.4,1.5
			c-0.3,0-0.5-0.2-0.5-0.5s0.2-0.5,0.5-0.5h0.1c1.3,0.1,2.6-0.3,3.6-1.2c1.6-1.6,2.6-3.7,2.9-5.9c-0.8,0.3-1.6,0.4-2.5,0.5
			c-1.7,0.1-3.4,0.6-4.8,1.4c-1.3,0.9-1.8,2.6-1.2,4.1c1.4-1.9,3.2-3.4,5.3-4.5c0.3-0.1,0.6-0.1,0.7,0.2s0.1,0.6-0.2,0.7
			c-5.6,3.3-5.9,5.6-5.9,8.3h1.5c0.8,0,1.6,0.3,2.2,0.9l1.8,1.8c0.2,0.2,0.2,0.5,0,0.7l0,0c-0.2,0.2-0.5,0.2-0.7,0l0,0l-2-1.6
			c-0.4-0.4-0.9-0.6-1.4-0.6h-3c-0.5,0-1.1,0.2-1.4,0.6l-0.8,0.8c-0.1,0.1-0.2,0.2-0.4,0.2h-1.7c-0.7,0-1.3,0.3-1.7,0.9l-0.8,1.1
			h6.8c1.2,0,2.3,0.9,2.6,2.1h1.9l2.3-0.8l1.4-1.3c1.2-1,3-1,4.2,0.1c0.3,0.3,0.5,0.7,0.5,1.1c0,0.4-0.2,0.8-0.5,1.1l-3.3,3.2
			L85.6,65l-5.4,3.4c-1,0.6-2.1,0.9-3.3,0.7l-4.8-0.8L70.3,70l0.4,0.5c0.2,0.2,0.2,0.5,0,0.8l-2.1,2.1
			C68.6,73.4,68.4,73.4,68.3,73.4z M64.5,64.2l5,5l2-1.9c0.1-0.1,0.3-0.2,0.5-0.1l5.1,0.8c0.9,0.1,1.8-0.1,2.5-0.6l5.4-3.3l3.2-3.2
			c0.1-0.1,0.1-0.2,0.1-0.3s0-0.2-0.1-0.3c-0.8-0.7-1.9-0.8-2.7-0.1L84,61.5c-0.1,0-0.1,0.1-0.2,0.1l-2.5,0.9c-0.1,0-0.1,0-0.2,0h-2
			c-0.2,0.6-0.7,1.1-1.4,1.1L71.8,64c-0.3,0-0.6-0.2-0.6-0.5s0.2-0.6,0.5-0.6l5.9-0.4c0.3,0,0.5-0.2,0.5-0.5c0-0.9-0.7-1.6-1.6-1.6
			l0,0h-6.8c-0.9,0-1.9,0.3-2.5,1L64.5,64.2L64.5,64.2z"/>
	</g>
</g>
<g class="st2">
	<path class="st1" d="M35.4,118.4c0-0.1,0.1-0.2,0.2-0.2H41c0.1,0,0.2,0.1,0.2,0.2v0.2c0,0.1-0.1,0.2-0.2,0.2h-4.9v3.7h4.3
		c0.1,0,0.2,0.1,0.2,0.2v0.2c0,0.1-0.1,0.2-0.2,0.2h-4.3v4H41c0.1,0,0.2,0.1,0.2,0.2v0.2c0,0.1-0.1,0.2-0.2,0.2h-5.4
		c-0.1,0-0.2-0.1-0.2-0.2V118.4z"/>
</g>
<g class="st2">
	<path class="st1" d="M42.7,121.6c0-0.1,0.1-0.2,0.2-0.2c0.2,0,0.4,0.3,0.4,0.7v0.2c0.2-0.3,1-0.9,2.2-0.9c1.8,0,2.4,1.1,2.4,2.7
		v3.4c0,0.1-0.1,0.2-0.2,0.2h-0.2c-0.1,0-0.2-0.1-0.2-0.2v-3.4c0-1.4-0.6-2.2-1.8-2.2c-1.3,0-2.1,1-2.1,1.1v4.5
		c0,0.1-0.1,0.2-0.2,0.2h-0.2c-0.1,0-0.2-0.1-0.2-0.2V121.6z"/>
</g>
<g class="st2">
	<path class="st1" d="M48.8,121.7c-0.1-0.1-0.1-0.2,0.1-0.2h0.3c0.1,0,0.1,0,0.2,0.1l2.3,5.3h0l2.3-5.3c0-0.1,0.1-0.1,0.2-0.1h0.3
		c0.1,0,0.2,0.1,0.1,0.2l-2.7,6c-0.1,0.1-0.1,0.1-0.2,0.1h-0.1c-0.1,0-0.1,0-0.2-0.1L48.8,121.7z"/>
</g>
<g class="st2">
	<path class="st1" d="M55.7,119.2c0-0.3,0.2-0.5,0.5-0.5c0.3,0,0.5,0.2,0.5,0.5c0,0.3-0.2,0.5-0.5,0.5
		C56,119.7,55.7,119.5,55.7,119.2z M56,121.7c0-0.1,0.1-0.2,0.2-0.2h0.2c0.1,0,0.2,0.1,0.2,0.2v5.8c0,0.1-0.1,0.2-0.2,0.2h-0.2
		c-0.1,0-0.2-0.1-0.2-0.2V121.7z"/>
</g>
<g class="st2">
	<path class="st1" d="M58.6,121.6c0-0.1,0.1-0.2,0.2-0.2c0.2,0,0.4,0.3,0.4,0.7v0.1c0.2-0.2,0.9-0.9,2-0.9c0.5,0,0.9,0.1,1,0.2
		c0.1,0,0.2,0.2,0.2,0.3l-0.1,0.2c0,0.1-0.1,0.1-0.3,0.1c-0.1,0-0.4-0.2-0.8-0.2c-1.2,0-1.9,1-1.9,1.1v4.5c0,0.1-0.1,0.2-0.2,0.2
		h-0.2c-0.1,0-0.2-0.1-0.2-0.2V121.6z"/>
</g>
<g class="st2">
	<path class="st1" d="M66,121.3c1.7,0,3.1,1.5,3.1,3.2c0,1.8-1.4,3.3-3.1,3.3c-1.8,0-3.1-1.5-3.1-3.3
		C62.8,122.8,64.2,121.3,66,121.3z M66,127.3c1.4,0,2.5-1.2,2.5-2.7c0-1.5-1.1-2.7-2.5-2.7c-1.4,0-2.5,1.2-2.5,2.7
		C63.4,126.1,64.6,127.3,66,127.3z"/>
</g>
<g class="st2">
	<path class="st1" d="M70.8,121.6c0-0.1,0.1-0.2,0.2-0.2c0.2,0,0.4,0.3,0.4,0.7v0.2c0.2-0.3,1-0.9,2.2-0.9c1.8,0,2.4,1.1,2.4,2.7
		v3.4c0,0.1-0.1,0.2-0.2,0.2h-0.2c-0.1,0-0.2-0.1-0.2-0.2v-3.4c0-1.4-0.6-2.2-1.8-2.2c-1.3,0-2.1,1-2.1,1.1v4.5
		c0,0.1-0.1,0.2-0.2,0.2H71c-0.1,0-0.2-0.1-0.2-0.2V121.6z"/>
</g>
<g class="st2">
	<path class="st1" d="M77.9,121.6c0-0.1,0.1-0.2,0.2-0.2c0.2,0,0.4,0.3,0.4,0.7v0.1c0.2-0.3,0.8-0.9,2-0.9c1,0,1.5,0.4,1.9,1.1
		c0.2-0.2,0.9-1.1,2.2-1.1c1.7,0,2.3,1.1,2.3,2.8v3.4c0,0.1-0.1,0.2-0.2,0.2h-0.2c-0.1,0-0.2-0.1-0.2-0.2v-3.4
		c0-1.4-0.5-2.2-1.7-2.2c-1.2,0-1.7,0.9-1.9,1.1c0.1,0.3,0.1,0.7,0.1,1.1v3.4c0,0.1-0.1,0.2-0.2,0.2h-0.2c-0.1,0-0.2-0.1-0.2-0.2
		v-3.4c0-1.4-0.6-2.2-1.7-2.2c-1.3,0-1.9,0.9-1.9,1.1v4.5c0,0.1-0.1,0.2-0.2,0.2h-0.2c-0.1,0-0.2-0.1-0.2-0.2V121.6z"/>
	<path class="st1" d="M91.6,121.3c1.6,0,2.8,1.2,2.8,2.8c0,0.2,0,0.6-0.2,0.6h-5c0,1.4,1.1,2.5,2.4,2.5c0.9,0,1.5-0.4,1.9-0.6
		c0.1-0.1,0.2-0.1,0.3,0l0.1,0.2c0.1,0.1,0,0.2-0.1,0.2c-0.4,0.3-1.3,0.7-2.3,0.7c-1.8,0-3-1.5-3-3.3
		C88.6,122.8,89.8,121.3,91.6,121.3z M93.8,124.2c0-1.2-0.8-2.3-2.2-2.3c-1.3,0-2.3,1-2.4,2.3H93.8z"/>
</g>
<g class="st2">
	<path class="st1" d="M96,121.6c0-0.1,0.1-0.2,0.2-0.2c0.2,0,0.4,0.3,0.4,0.7v0.2c0.2-0.3,1-0.9,2.2-0.9c1.8,0,2.4,1.1,2.4,2.7v3.4
		c0,0.1-0.1,0.2-0.2,0.2h-0.2c-0.1,0-0.2-0.1-0.2-0.2v-3.4c0-1.4-0.6-2.2-1.8-2.2c-1.3,0-2.1,1-2.1,1.1v4.5c0,0.1-0.1,0.2-0.2,0.2
		h-0.2c-0.1,0-0.2-0.1-0.2-0.2V121.6z"/>
</g>
<g class="st2">
	<path class="st1" d="M102.4,122c-0.2,0-0.2-0.1-0.2-0.2v-0.2c0-0.1,0.1-0.2,0.2-0.2h0.8v-1.7c0-0.1,0.1-0.2,0.2-0.2l0.2,0
		c0.1,0,0.2,0.1,0.2,0.2v1.7h2.2c0.1,0,0.2,0.1,0.2,0.2v0.2c0,0.1-0.1,0.2-0.2,0.2h-2.2v4c0,0.8,0.3,1.3,1.1,1.3
		c0.5,0,1-0.3,1.2-0.4c0.1-0.1,0.2,0,0.2,0.1l0.1,0.2c0.1,0.1,0,0.2-0.1,0.2c-0.2,0.2-0.9,0.5-1.5,0.5c-1.3,0-1.6-0.8-1.6-1.8v-4
		H102.4z"/>
</g>
<g class="st2">
	<path class="st1" d="M109.9,123.7c0.7,0,1.4,0.2,1.6,0.3c0-1.3-0.3-2.1-1.7-2.1c-0.8,0-1.5,0.4-1.6,0.4c-0.1,0.1-0.2,0-0.2-0.1
		l-0.1-0.2c-0.1-0.1,0-0.2,0.1-0.2c0,0,0.8-0.5,1.9-0.5c1.9,0,2.2,1.2,2.2,2.7v3.5c0,0.1-0.1,0.2-0.2,0.2c-0.2,0-0.4-0.3-0.4-0.7
		V127l0,0c-0.4,0.4-1.2,0.9-2.2,0.9c-1.2,0-2-0.8-2-2.1C107.3,124.6,108.3,123.7,109.9,123.7z M109.4,127.3c0.9,0,1.8-0.6,2.1-0.9
		v-1.8c-0.2-0.1-0.9-0.3-1.6-0.3c-1.2,0-2,0.6-2,1.6C107.9,126.6,108.6,127.3,109.4,127.3z"/>
</g>
<g class="st2">
	<path class="st1" d="M114.2,118.4c0-0.1,0.1-0.2,0.2-0.2h0.2c0.1,0,0.2,0.1,0.2,0.2v9c0,0.1-0.1,0.2-0.2,0.2h-0.2
		c-0.1,0-0.2-0.1-0.2-0.2V118.4z"/>
</g>
</svg>
