<?xml version="1.0" encoding="utf-8"?>
<!-- Generator: Adobe Illustrator 25.4.1, SVG Export Plug-In . SVG Version: 6.00 Build 0)  -->
<svg version="1.1" id="Layer_1" xmlns="http://www.w3.org/2000/svg" xmlns:xlink="http://www.w3.org/1999/xlink" x="0px" y="0px"
	 viewBox="0 0 150 165" style="enable-background:new 0 0 150 165;" xml:space="preserve">
<style type="text/css">
	.st0{fill:#6CADDF;}
	.st1{fill:#FFFFFF;}
</style>
<rect class="st0" width="150" height="165"/>
<g id="Layer_1-2">
	<circle class="st1" cx="75" cy="57.6" r="38.5"/>
	<path class="st0" d="M90.3,64.7H59.7c-0.3,0-0.5-0.2-0.5-0.5V49.1c0-0.3,0.2-0.5,0.5-0.5h21.4c0.3,0,0.5,0.2,0.5,0.5v3.7h5.6
		c0.2,0,0.3,0.1,0.4,0.2l3,4.9c0.1,0.1,0.1,0.2,0.1,0.3v6.1C90.7,64.5,90.5,64.7,90.3,64.7z M81.6,63.7h8.1v-5.4L87,53.8h-5.4V63.7z
		 M60.2,63.7h20.4v-1.4H60.2L60.2,63.7z M60.2,61.3h20.4V49.6H60.2L60.2,61.3z M87.2,58.7h-3.1c-0.3,0-0.5-0.2-0.5-0.5v-3
		c0-0.3,0.2-0.5,0.5-0.5H86c0.2,0,0.3,0.1,0.4,0.2l1.2,1.8c0.1,0.1,0.1,0.2,0.1,0.3v1.2C87.7,58.4,87.5,58.6,87.2,58.7z M84.6,57.7
		h2.1v-0.5l-1-1.4h-1.1L84.6,57.7z"/>
	<path class="st0" d="M65.8,67.2c-1.5,0-2.8-1.2-2.8-2.8c0-1.5,1.2-2.8,2.8-2.8c1.5,0,2.8,1.2,2.8,2.8
		C68.6,65.9,67.3,67.2,65.8,67.2L65.8,67.2z M65.8,62.6c-1,0-1.8,0.8-1.8,1.8c0,1,0.8,1.8,1.8,1.8c1,0,1.8-0.8,1.8-1.8
		C67.6,63.4,66.8,62.6,65.8,62.6L65.8,62.6z"/>
	<path class="st0" d="M83.6,67.2c-1.5,0-2.8-1.2-2.8-2.8c0-1.5,1.2-2.8,2.8-2.8c1.5,0,2.8,1.2,2.8,2.8
		C86.4,65.9,85.2,67.2,83.6,67.2L83.6,67.2z M83.6,62.6c-1,0-1.8,0.8-1.8,1.8c0,1,0.8,1.8,1.8,1.8c1,0,1.8-0.8,1.8-1.8
		C85.4,63.4,84.6,62.6,83.6,62.6L83.6,62.6z"/>
</g>
<g>
	<path class="st1" d="M14.7,125.1c0-0.1,0.1-0.2,0.2-0.2h3.3c1.6,0,3,1.2,3,2.8c0,1.4-0.9,2.5-2.2,2.9l2,3.5c0.1,0.1,0,0.2-0.1,0.2
		h-0.4c-0.2,0-0.2,0-0.3-0.2l-1.9-3.5c-0.2,0-0.3,0-0.5,0h-2.5v3.5c0,0.1-0.1,0.2-0.2,0.2h-0.2c-0.1,0-0.2-0.1-0.2-0.2V125.1z
		 M18.2,130.2c1.3,0,2.4-1,2.4-2.3c0-1.3-1.1-2.2-2.4-2.2h-2.8v4.6H18.2z"/>
	<path class="st1" d="M25.5,128c1.6,0,2.8,1.2,2.8,2.8c0,0.2,0,0.6-0.2,0.6h-5c0,1.4,1.1,2.5,2.4,2.5c0.9,0,1.5-0.4,1.9-0.6
		c0.1-0.1,0.2-0.1,0.3,0l0.1,0.2c0.1,0.1,0,0.2-0.1,0.2c-0.4,0.3-1.3,0.7-2.3,0.7c-1.8,0-3-1.5-3-3.3C22.5,129.5,23.7,128,25.5,128z
		 M27.7,130.9c0-1.2-0.8-2.3-2.2-2.3c-1.4,0-2.3,1-2.4,2.3H27.7z"/>
	<path class="st1" d="M29.7,133.6l0.1-0.2c0.1-0.1,0.2-0.1,0.3,0c0.2,0.1,0.8,0.6,1.7,0.6c0.9,0,1.6-0.5,1.6-1.1
		c0-0.7-0.8-1.1-1.8-1.4c-1.1-0.4-1.9-0.8-1.9-1.8c0-0.7,0.6-1.6,2-1.6c0.8,0,1.4,0.3,1.8,0.5c0.1,0.1,0.1,0.2,0.1,0.3l-0.1,0.1
		c-0.1,0.1-0.2,0.1-0.3,0.1c-0.1-0.1-0.8-0.4-1.5-0.4c-1,0-1.4,0.6-1.4,1c0,0.6,0.6,1,1.5,1.3c1.2,0.4,2.1,0.8,2.1,2
		c0,0.9-0.9,1.7-2.1,1.7c-1.1,0-1.7-0.4-2-0.7C29.7,133.8,29.6,133.7,29.7,133.6z"/>
	<path class="st1" d="M36.1,137.4c0,0.1-0.1,0.2-0.2,0.2h-0.2c-0.1,0-0.2-0.1-0.2-0.2v-9.1c0-0.1,0.1-0.2,0.2-0.2
		c0.2,0,0.4,0.2,0.4,0.6c0.2-0.2,1-0.7,2.1-0.7c1.7,0,3,1.4,3,3.2c0,1.8-1.3,3.3-3.1,3.3c-1,0-1.7-0.5-1.9-0.6V137.4z M36.1,133.2
		c0.1,0.1,0.8,0.8,1.9,0.8c1.5,0,2.5-1.2,2.5-2.7c0-1.4-1-2.6-2.4-2.6c-1.2,0-1.9,0.7-2,0.8V133.2z"/>
	<path class="st1" d="M45.7,128c1.7,0,3.1,1.5,3.1,3.2c0,1.8-1.4,3.3-3.1,3.3c-1.8,0-3.1-1.5-3.1-3.3C42.6,129.5,43.9,128,45.7,128z
		 M45.7,134c1.4,0,2.5-1.2,2.5-2.7c0-1.5-1.1-2.7-2.5-2.7c-1.4,0-2.5,1.2-2.5,2.7C43.2,132.8,44.3,134,45.7,134z"/>
	<path class="st1" d="M50.6,128.3c0-0.1,0.1-0.2,0.2-0.2c0.2,0,0.4,0.3,0.4,0.7v0.2c0.2-0.3,1-0.9,2.2-0.9c1.8,0,2.3,1.1,2.3,2.7
		v3.4c0,0.1-0.1,0.2-0.2,0.2h-0.2c-0.1,0-0.2-0.1-0.2-0.2v-3.4c0-1.4-0.6-2.2-1.8-2.2c-1.3,0-2.1,1-2.1,1.1v4.5
		c0,0.1-0.1,0.2-0.2,0.2h-0.2c-0.1,0-0.2-0.1-0.2-0.2V128.3z"/>
	<path class="st1" d="M57.4,133.6l0.1-0.2c0.1-0.1,0.2-0.1,0.3,0c0.2,0.1,0.8,0.6,1.7,0.6c0.9,0,1.6-0.5,1.6-1.1
		c0-0.7-0.8-1.1-1.8-1.4c-1.1-0.4-1.9-0.8-1.9-1.8c0-0.7,0.6-1.6,2-1.6c0.8,0,1.4,0.3,1.8,0.5c0.1,0.1,0.1,0.2,0.1,0.3l-0.1,0.1
		c-0.1,0.1-0.2,0.1-0.3,0.1c-0.1-0.1-0.8-0.4-1.5-0.4c-1,0-1.4,0.6-1.4,1c0,0.6,0.6,1,1.5,1.3c1.2,0.4,2.1,0.8,2.1,2
		c0,0.9-0.9,1.7-2.1,1.7c-1.1,0-1.7-0.4-2-0.7C57.4,133.8,57.3,133.7,57.4,133.6z"/>
	<path class="st1" d="M63,125.9c0-0.3,0.2-0.5,0.5-0.5s0.5,0.2,0.5,0.5c0,0.3-0.2,0.5-0.5,0.5S63,126.2,63,125.9z M63.2,128.4
		c0-0.1,0.1-0.2,0.2-0.2h0.2c0.1,0,0.2,0.1,0.2,0.2v5.8c0,0.1-0.1,0.2-0.2,0.2h-0.2c-0.1,0-0.2-0.1-0.2-0.2V128.4z"/>
	<path class="st1" d="M68.7,134.6c-1.2,0-2-0.6-2.2-0.9v0.1c0,0.4-0.2,0.7-0.4,0.7c-0.1,0-0.2-0.1-0.2-0.2v-9.1
		c0-0.1,0.1-0.2,0.2-0.2h0.2c0.1,0,0.2,0.1,0.2,0.2v3.5c0,0,0.8-0.6,2-0.6c1.8,0,3,1.5,3,3.3C71.6,133.1,70.4,134.6,68.7,134.6z
		 M68.5,128.6c-1.1,0-1.9,0.7-1.9,0.7v3.6c0,0.1,0.7,1.1,2.1,1.1c1.3,0,2.3-1.2,2.3-2.7C71,129.8,69.9,128.6,68.5,128.6z"/>
	<path class="st1" d="M73.5,125.2c0-0.1,0.1-0.2,0.2-0.2h0.2c0.1,0,0.2,0.1,0.2,0.2v9c0,0.1-0.1,0.2-0.2,0.2h-0.2
		c-0.1,0-0.2-0.1-0.2-0.2V125.2z"/>
	<path class="st1" d="M78.9,128c1.6,0,2.8,1.2,2.8,2.8c0,0.2,0,0.6-0.2,0.6h-5c0,1.4,1.1,2.5,2.4,2.5c0.9,0,1.5-0.4,1.9-0.6
		c0.1-0.1,0.2-0.1,0.3,0l0.1,0.2c0.1,0.1,0,0.2-0.1,0.2c-0.4,0.3-1.3,0.7-2.3,0.7c-1.8,0-3-1.5-3-3.3C75.9,129.5,77.1,128,78.9,128z
		 M81.1,130.9c0-1.2-0.8-2.3-2.2-2.3c-1.4,0-2.3,1-2.4,2.3H81.1z"/>
	<path class="st1" d="M86.4,133.2l0.1-0.2c0.1-0.1,0.2-0.1,0.3-0.1c0.1,0.1,1.1,1,2.5,1c1.2,0,2.3-0.7,2.3-1.8c0-1.2-1-1.7-2.6-2.3
		c-1.6-0.6-2.6-1.1-2.6-2.7c0-1,0.8-2.4,2.9-2.4c1.3,0,2.3,0.7,2.3,0.7c0.1,0,0.1,0.1,0.1,0.3l-0.1,0.2c-0.1,0.1-0.2,0.1-0.3,0.1
		c0,0-0.9-0.6-2-0.6c-1.7,0-2.3,1-2.3,1.8c0,1.1,0.9,1.6,2.2,2.1c1.9,0.6,3,1.3,3,2.8c0,1.5-1.4,2.4-2.9,2.4c-1.6,0-2.7-0.9-2.9-1.1
		C86.4,133.4,86.3,133.3,86.4,133.2z"/>
	<path class="st1" d="M96.7,128c1.7,0,3.1,1.5,3.1,3.2c0,1.8-1.4,3.3-3.1,3.3c-1.8,0-3.1-1.5-3.1-3.3C93.6,129.5,95,128,96.7,128z
		 M96.7,134c1.4,0,2.5-1.2,2.5-2.7c0-1.5-1.1-2.7-2.5-2.7c-1.4,0-2.5,1.2-2.5,2.7C94.2,132.8,95.3,134,96.7,134z"/>
	<path class="st1" d="M101.6,128.4c0-0.1,0.1-0.2,0.2-0.2h0.2c0.1,0,0.2,0.1,0.2,0.2v3.5c0,1.4,0.5,2.1,1.8,2.1c1.2,0,1.8-0.9,2-1.2
		v-4.4c0-0.1,0.1-0.2,0.2-0.2h0.2c0.1,0,0.2,0.1,0.2,0.2v5.9c0,0.1-0.1,0.2-0.2,0.2c-0.2,0-0.4-0.3-0.4-0.7v-0.1
		c-0.2,0.2-0.9,0.9-2,0.9c-1.8,0-2.3-0.9-2.3-2.7V128.4z"/>
	<path class="st1" d="M108.7,128.3c0-0.1,0.1-0.2,0.2-0.2c0.2,0,0.4,0.3,0.4,0.7v0.1c0.2-0.2,0.9-0.9,2-0.9c0.5,0,0.9,0.1,1,0.2
		c0.1,0,0.2,0.2,0.2,0.3l-0.1,0.2c0,0.1-0.1,0.1-0.3,0.1c-0.1,0-0.4-0.2-0.8-0.2c-1.2,0-1.9,1-1.9,1.1v4.5c0,0.1-0.1,0.2-0.2,0.2
		h-0.2c-0.1,0-0.2-0.1-0.2-0.2V128.3z"/>
	<path class="st1" d="M116.3,128c1.2,0,2,0.6,2.3,1c0.1,0.1,0.1,0.2,0,0.3l-0.1,0.1c-0.1,0.1-0.2,0.1-0.3,0
		c-0.1-0.2-0.9-0.7-1.8-0.7c-1.4,0-2.6,1.2-2.6,2.7c0,1.5,1.2,2.7,2.6,2.7c1.1,0,1.8-0.8,2-1c0.1-0.1,0.2-0.1,0.3,0l0.1,0.1
		c0.1,0.1,0.1,0.2,0,0.2c-0.3,0.4-1.1,1.2-2.4,1.2c-1.8,0-3.2-1.4-3.2-3.3C113.1,129.4,114.5,128,116.3,128z"/>
	<path class="st1" d="M120.1,125.9c0-0.3,0.2-0.5,0.5-0.5s0.5,0.2,0.5,0.5c0,0.3-0.2,0.5-0.5,0.5S120.1,126.2,120.1,125.9z
		 M120.3,128.4c0-0.1,0.1-0.2,0.2-0.2h0.2c0.1,0,0.2,0.1,0.2,0.2v5.8c0,0.1-0.1,0.2-0.2,0.2h-0.2c-0.1,0-0.2-0.1-0.2-0.2V128.4z"/>
	<path class="st1" d="M123.1,128.3c0-0.1,0.1-0.2,0.2-0.2c0.2,0,0.4,0.3,0.4,0.7v0.2c0.2-0.3,1-0.9,2.2-0.9c1.8,0,2.3,1.1,2.3,2.7
		v3.4c0,0.1-0.1,0.2-0.2,0.2h-0.2c-0.1,0-0.2-0.1-0.2-0.2v-3.4c0-1.4-0.6-2.2-1.8-2.2c-1.3,0-2.1,1-2.1,1.1v4.5
		c0,0.1-0.1,0.2-0.2,0.2h-0.2c-0.1,0-0.2-0.1-0.2-0.2V128.3z"/>
	<path class="st1" d="M132.8,137.4c-1,0-1.8-0.6-2.1-0.8c-0.1-0.1-0.1-0.1,0-0.2l0.1-0.2c0.1-0.1,0.1-0.1,0.3,0
		c0.2,0.2,0.9,0.6,1.7,0.6c1.2,0,2.2-0.7,2.2-2.2v-0.7c-0.2,0.1-0.9,0.6-1.9,0.6c-1.8,0-3.1-1.4-3.1-3.3c0-1.8,1.2-3.2,3-3.2
		c1.1,0,1.8,0.5,2.1,0.7c0-0.4,0.2-0.6,0.4-0.6c0.1,0,0.2,0.1,0.2,0.2v6.2C135.5,136.4,134.3,137.4,132.8,137.4z M134.9,129.4
		c-0.1-0.1-0.8-0.8-2-0.8c-1.4,0-2.4,1.2-2.4,2.6c0,1.5,1,2.7,2.5,2.7c1.1,0,1.8-0.7,1.9-0.8V129.4z"/>
</g>
</svg>
