<?xml version="1.0" encoding="utf-8"?>
<!-- Generator: Adobe Illustrator 25.4.1, SVG Export Plug-In . SVG Version: 6.00 Build 0)  -->
<svg version="1.1" id="Layer_1" xmlns="http://www.w3.org/2000/svg" xmlns:xlink="http://www.w3.org/1999/xlink" x="0px" y="0px"
	 viewBox="0 0 150 165" style="enable-background:new 0 0 150 165;" xml:space="preserve">
<style type="text/css">
	.st0{fill:#387C2B;}
	.st1{fill:#FFFFFF;}
</style>
<g id="Layer_2_00000099632080830843115260000010484557870864855432_">
	<g id="Layer_1-2">
		<rect class="st0" width="150" height="165"/>
		<circle class="st1" cx="75" cy="57.6" r="38.5"/>
		<path class="st0" d="M78.3,72.4c-0.7,0-1.5-0.1-2.2-0.4c-0.2-0.1-0.4-0.1-0.6-0.2l0,0c-0.4-0.2-0.8-0.2-1.2,0l-0.5,0.2
			c-2.6,0.9-5.5,0.1-7.3-2c-2.2-2.6-3.5-5.8-3.8-9.2c-0.2-1.7,0-3.5,0.6-5.1c2.2-6.2,8-5.1,10.4-4.4c0.8,0.2,1.6,0.2,2.3,0
			c2.4-0.7,8.2-1.7,10.4,4.4c0.6,1.6,0.8,3.3,0.6,5.1c-0.3,3.4-1.6,6.6-3.7,9.2C82.2,71.5,80.3,72.4,78.3,72.4z M76,71l0.5,0.2
			c2.2,0.8,4.7,0.1,6.2-1.8c2-2.5,3.2-5.5,3.5-8.7c0.2-1.6,0-3.1-0.5-4.6c-1.9-5.2-6.6-4.6-9.2-3.8c-0.9,0.3-1.9,0.3-2.9,0
			c-2.7-0.8-7.4-1.3-9.3,3.8c-0.5,1.5-0.7,3.1-0.5,4.7c0.3,3.2,1.5,6.2,3.5,8.7c1.5,1.8,4,2.5,6.2,1.7L74,71
			C74.6,70.7,75.4,70.7,76,71z M84.2,61.1L84.2,61.1c-0.3,0-0.5-0.3-0.5-0.5c0,0,0,0,0,0c0.1-1.2,0-2.3-0.4-3.4
			c-0.4-1.7-2.1-2.9-3.8-2.7c-0.8,0-1.6,0.1-2.4,0.4c-0.3,0.1-0.5-0.1-0.6-0.3c-0.1-0.3,0.1-0.5,0.3-0.6c0,0,0,0,0,0
			c0.9-0.3,1.8-0.4,2.7-0.4c2.2-0.1,4.2,1.3,4.8,3.4c0.4,1.2,0.6,2.5,0.4,3.8C84.7,61,84.4,61.1,84.2,61.1
			C84.1,61.1,84.1,61.1,84.2,61.1L84.2,61.1z M73.3,50.6c-0.2,0-0.4-0.2-0.5-0.4c-0.5-2.1-0.1-4.3,1.1-6l0.2-0.3l2.3,1l-0.4,0.5
			c-0.6,0.9-0.9,1.9-0.9,2.9c0,0.3-0.2,0.5-0.5,0.5l0,0c-0.3,0-0.5-0.2-0.5-0.5c0-1,0.3-2.1,0.8-3L74.5,45c-0.9,1.5-1.1,3.3-0.7,5
			c0,0.3-0.1,0.5-0.4,0.6L73.3,50.6z M77.3,50.6c-0.3,0-0.5-0.2-0.5-0.5c0-0.3,0.2-0.5,0.5-0.5c1.6,0,3.2-0.5,4.6-1.4
			c1.1-0.9,1.9-2.2,2.1-3.6c-3.4-0.9-6.9,1-7.9,4.3c-0.1,0.3-0.4,0.4-0.6,0.3c-0.3-0.1-0.4-0.4-0.3-0.6c0-0.1,2.2-6.9,9.5-4.9
			l0.4,0.1v0.4c-0.1,1.9-1,3.7-2.5,4.8C81,50,79.2,50.6,77.3,50.6L77.3,50.6z"/>
	</g>
</g>
<g>
	<path class="st1" d="M41.2,118c0-0.1,0.1-0.2,0.2-0.2h5.4c0.1,0,0.2,0.1,0.2,0.2v0.2c0,0.1-0.1,0.2-0.2,0.2h-5v4.1h4.3
		c0.1,0,0.2,0.1,0.2,0.2c0,0.1,0,0.4-0.2,0.4h-4.3v4c0,0.1-0.1,0.2-0.2,0.2h-0.2c-0.1,0-0.2-0.1-0.2-0.2V118z"/>
	<path class="st1" d="M51,120.9c1.7,0,3.1,1.5,3.1,3.2c0,1.8-1.4,3.3-3.1,3.3c-1.8,0-3.1-1.5-3.1-3.3
		C47.9,122.4,49.2,120.9,51,120.9z M51,126.8c1.4,0,2.5-1.2,2.5-2.7c0-1.5-1.1-2.7-2.5-2.7c-1.4,0-2.5,1.2-2.5,2.7
		C48.4,125.6,49.6,126.8,51,126.8z"/>
	<path class="st1" d="M58.7,120.9c1.7,0,3.1,1.5,3.1,3.2c0,1.8-1.4,3.3-3.1,3.3c-1.8,0-3.1-1.5-3.1-3.3
		C55.5,122.4,56.9,120.9,58.7,120.9z M58.7,126.8c1.4,0,2.5-1.2,2.5-2.7c0-1.5-1.1-2.7-2.5-2.7c-1.4,0-2.5,1.2-2.5,2.7
		C56.1,125.6,57.2,126.8,58.7,126.8z"/>
	<path class="st1" d="M66.2,120.9c1.2,0,2,0.6,2,0.6V118c0-0.1,0.1-0.2,0.2-0.2h0.2c0.1,0,0.2,0.1,0.2,0.2v9.1
		c0,0.1-0.1,0.2-0.2,0.2c-0.2,0-0.4-0.3-0.4-0.7v-0.1c-0.2,0.2-1,0.9-2.2,0.9c-1.6,0-2.8-1.4-2.8-3.3
		C63.2,122.3,64.5,120.9,66.2,120.9z M66.1,126.8c1.4,0,2.1-1,2.1-1.1v-3.6c0,0-0.8-0.7-1.9-0.7c-1.4,0-2.5,1.2-2.5,2.7
		C63.8,125.6,64.8,126.8,66.1,126.8z"/>
	<path class="st1" d="M74,126l0.1-0.2c0.1-0.1,0.2-0.1,0.3-0.1c0.1,0.1,1.1,1,2.5,1c1.2,0,2.3-0.7,2.3-1.8c0-1.2-1-1.7-2.6-2.3
		c-1.6-0.6-2.6-1.1-2.6-2.7c0-1,0.8-2.4,2.9-2.4c1.3,0,2.3,0.7,2.3,0.7c0.1,0,0.1,0.1,0.1,0.3l-0.1,0.2c-0.1,0.1-0.2,0.1-0.3,0.1
		c0,0-0.9-0.6-2-0.6c-1.7,0-2.3,1-2.3,1.8c0,1.1,0.9,1.6,2.2,2.1c1.9,0.6,3,1.3,3,2.8c0,1.5-1.4,2.4-2.9,2.4c-1.6,0-2.7-0.9-2.9-1.1
		C74,126.2,73.9,126.2,74,126z"/>
	<path class="st1" d="M83.8,123.2c0.7,0,1.4,0.2,1.6,0.3c0-1.3-0.3-2.1-1.7-2.1c-0.8,0-1.5,0.4-1.6,0.4c-0.1,0.1-0.2,0-0.2-0.1
		l-0.1-0.2c-0.1-0.1,0-0.2,0.1-0.2c0,0,0.8-0.5,1.9-0.5c1.9,0,2.2,1.2,2.2,2.7v3.5c0,0.1-0.1,0.2-0.2,0.2c-0.2,0-0.4-0.3-0.4-0.7
		v-0.1l0,0c-0.4,0.4-1.2,0.9-2.2,0.9c-1.2,0-2-0.8-2-2.1C81.2,124.1,82.1,123.2,83.8,123.2z M83.3,126.8c0.9,0,1.8-0.6,2.1-0.9v-1.8
		c-0.2-0.1-0.9-0.3-1.6-0.3c-1.2,0-2,0.6-2,1.6C81.8,126.2,82.4,126.8,83.3,126.8z"/>
	<path class="st1" d="M88.4,121.6h-1c-0.1,0-0.2-0.1-0.2-0.2v-0.2c0-0.1,0.1-0.2,0.2-0.2h1v-1c0-1.5,0.7-2.4,2-2.4
		c0.8,0,1.5,0.4,1.7,0.7c0.1,0.1,0.1,0.2,0,0.3l-0.1,0.2c-0.1,0.1-0.2,0.1-0.3,0c-0.4-0.3-0.8-0.5-1.4-0.5c-1,0-1.4,0.6-1.4,1.8v1
		h2.3c0.1,0,0.2,0.1,0.2,0.2v0.2c0,0.1-0.1,0.2-0.2,0.2h-2.3v5.5c0,0.1-0.1,0.2-0.2,0.2h-0.2c-0.1,0-0.2-0.1-0.2-0.2V121.6z"/>
	<path class="st1" d="M95.3,120.9c1.6,0,2.8,1.2,2.8,2.8c0,0.2,0,0.6-0.2,0.6h-5c0,1.4,1.1,2.5,2.4,2.5c0.9,0,1.5-0.4,1.9-0.6
		c0.1-0.1,0.2-0.1,0.3,0l0.1,0.2c0.1,0.1,0,0.2-0.1,0.2c-0.4,0.3-1.3,0.7-2.3,0.7c-1.8,0-3-1.5-3-3.3
		C92.2,122.4,93.4,120.9,95.3,120.9z M97.5,123.8c0-1.2-0.8-2.3-2.2-2.3c-1.4,0-2.3,1-2.4,2.3H97.5z"/>
	<path class="st1" d="M99.2,121.6c-0.2,0-0.2-0.1-0.2-0.2v-0.2c0-0.1,0.1-0.2,0.2-0.2h0.8v-1.7c0-0.1,0.1-0.2,0.2-0.2l0.2,0
		c0.1,0,0.2,0.1,0.2,0.2v1.7h2.2c0.1,0,0.2,0.1,0.2,0.2v0.2c0,0.1-0.1,0.2-0.2,0.2h-2.2v4c0,0.8,0.3,1.3,1.1,1.3
		c0.5,0,1-0.3,1.2-0.4c0.1-0.1,0.2,0,0.2,0.1l0.1,0.2c0.1,0.1,0,0.2-0.1,0.2c-0.2,0.2-0.9,0.5-1.5,0.5c-1.3,0-1.6-0.8-1.6-1.8v-4
		H99.2z"/>
	<path class="st1" d="M104.1,121.3c-0.1-0.1,0-0.3,0.1-0.3h0.3c0.1,0,0.2,0,0.2,0.1l2.2,5.4h0l2.3-5.4c0-0.1,0.1-0.1,0.2-0.1h0.3
		c0.1,0,0.2,0.1,0.1,0.3l-3.9,9.1c0,0.1-0.1,0.1-0.2,0.1h-0.3c-0.1,0-0.2-0.1-0.1-0.2l1.3-3L104.1,121.3z"/>
</g>
</svg>
