<svg xmlns="http://www.w3.org/2000/svg" viewBox="0 0 150 165"><defs><style>.cls-1{fill:#007dc3;}.cls-2{fill:#fdb71a;}</style></defs><g id="Layer_2" data-name="Layer 2"><g id="Layer_1-2" data-name="Layer 1"><rect class="cls-1" width="150" height="165"/><path class="cls-2" d="M75,71.06h0ZM75,47.5c-2.67,0-4.78,1.49-4.78,3.3l1.61,18.31c.18,1.1,1.53,2,3.17,2s3-.85,3.16-2L79.78,50.8C79.78,49,77.66,47.5,75,47.5ZM45.15,70.79l16.67,7.76c1,.39,2.46-.36,3.28-1.77h0c.82-1.42.76-3-.1-3.73L49.93,62.5c-1.56-.9-3.91.19-5.24,2.5S43.59,69.88,45.15,70.79Zm39.75,6c.82,1.41,2.23,2.16,3.28,1.77l16.67-7.76c1.57-.91,1.79-3.48.46-5.79s-3.68-3.4-5.25-2.5L85,73.06c-.86.71-.92,2.31-.11,3.73Zm0,11.44Zm19.95,6L88.18,86.45c-1.05-.39-2.46.35-3.28,1.77s-.75,3,.11,3.72l15,10.56c1.57.9,3.91-.19,5.25-2.5S106.42,95.11,104.85,94.21Zm-39.75-6c-.82-1.42-2.23-2.16-3.28-1.77L45.15,94.21c-1.56.9-1.8,3.48-.46,5.79s3.68,3.4,5.24,2.49L65,91.94c.86-.71.92-2.31.1-3.72ZM75,93.94h0Zm0,0c-1.64,0-3,.85-3.17,2L70.22,114.2c0,1.81,2.11,3.3,4.78,3.3s4.78-1.49,4.78-3.3L78.16,95.89C78,94.79,76.63,93.94,75,93.94Zm8.76,21.19a1.36,1.36,0,0,1-1.39,1.37,1.36,1.36,0,1,1,0-2.72h0A1.36,1.36,0,0,1,83.76,115.13Zm-.38,0a1,1,0,0,0-1-1.06h0a1.06,1.06,0,0,0,0,2.11A1,1,0,0,0,83.38,115.14Zm-.43.36a1.07,1.07,0,0,0,.1.31h-.4a1.13,1.13,0,0,1-.1-.3c0-.14-.09-.19-.24-.19h-.14v.49h-.35v-1.3a2.89,2.89,0,0,1,.54-.05.71.71,0,0,1,.48.11.31.31,0,0,1,.15.28c0,.14-.12.25-.29.3h0A.39.39,0,0,1,83,115.5Zm-.36-.6c0-.12-.09-.18-.25-.18h-.16v.34h.14C82.47,115.07,82.59,115,82.59,114.9Z"/></g></g></svg>