<?xml version="1.0" encoding="utf-8"?>
<!-- Generator: Adobe Illustrator 25.4.1, SVG Export Plug-In . SVG Version: 6.00 Build 0)  -->
<svg version="1.1" id="Layer_1" xmlns="http://www.w3.org/2000/svg" xmlns:xlink="http://www.w3.org/1999/xlink" x="0px" y="0px"
	 viewBox="0 0 150 165" style="enable-background:new 0 0 150 165;" xml:space="preserve">
<style type="text/css">
	.st0{fill:#6CADDF;}
	.st1{fill:#FFFFFF;}
</style>
<g id="Layer_2_00000182490909091029438030000002722728043767372975_">
	<g id="Layer_1-2">
		<rect class="st0" width="150" height="165"/>
		<circle class="st1" cx="75" cy="57.6" r="38.5"/>
		<path class="st0" d="M63.8,66.8c-2,0-3.7-1.6-3.7-3.6c0,0,0-0.1,0-0.1v-1.2c0-1.4,0.8-2.7,2.1-3.3l5-2.5c-3.2-2.6-3.6-7.3-1-10.4
			c0,0,0.1-0.1,0.1-0.1c2.7-3.1,7.4-3.4,10.5-0.7c0.5,0.4,0.9,0.9,1.2,1.5c0.2,0.3,0.2,0.8-0.2,1c-0.2,0-0.2,0.2-0.3,0.2
			c-0.2,0-0.5-0.1-0.6-0.3c-1.9-2.7-5.6-3.4-8.3-1.6c-2.7,1.8-3.5,5.6-1.6,8.3c0.4,0.7,1,1.3,1.8,1.8c0.3,0.2,0.4,0.6,0.3,1
			c-0.2,0-0.2,0.2-0.3,0.2l-6,3.2c-0.7,0.4-1.2,1.1-1.2,1.9v1.2c0,1.2,1,2.2,2.2,2.2c0.4,0,0.7,0.4,0.7,0.8
			C64.4,66.5,64.1,66.8,63.8,66.8 M77.9,50.5c-3.3,0-5.9,2.7-5.9,5.9s2.7,5.9,5.9,5.9c3.3,0,5.9-2.7,5.9-5.9c0,0,0,0,0,0
			C83.8,53.1,81.2,50.5,77.9,50.5 M74.9,63.2l-6.1,2.8c-0.8,0.3-1.3,1.1-1.3,1.9v1c0,1.2,1,2.2,2.2,2.2h16.3c1.2,0,2.2-1,2.2-2.2v-1
			c0-0.9-0.5-1.7-1.3-2.1l-6.1-2.7C79,64,76.8,64,74.9,63.2 M86.1,72.7H69.7c-1,0-1.9-0.4-2.7-1C66.4,71,66,70,66,69v-1
			c0-1.5,0.9-2.8,2.2-3.4l5.2-2.4c-3.2-2.5-3.8-7.1-1.3-10.4c2.5-3.2,7.1-3.8,10.4-1.3c3.2,2.5,3.8,7.1,1.3,10.4
			c-0.4,0.5-0.9,0.9-1.3,1.3l5.2,2.4c1.4,0.6,2.2,1.9,2.2,3.4v1c0,1-0.4,1.9-1,2.7C88.1,72.3,87.1,72.6,86.1,72.7"/>
	</g>
</g>
<g>
	<g>
		<path class="st1" d="M45.9,108c0-0.1,0.1-0.2,0.2-0.2h0.3c0.1,0,0.2,0.1,0.2,0.2v8.7h4.3c0.2,0,0.2,0.1,0.2,0.2v0.2
			c0,0.1-0.1,0.1-0.2,0.1h-4.8c-0.1,0-0.2-0.1-0.2-0.2V108z"/>
		<path class="st1" d="M54.6,113.2c0.7,0,1.4,0.2,1.6,0.3c0-1.3-0.3-2.1-1.7-2.1c-0.8,0-1.5,0.4-1.6,0.4c-0.1,0.1-0.2,0-0.2-0.1
			l-0.1-0.2c-0.1-0.1,0-0.2,0.1-0.2c0,0,0.8-0.5,1.9-0.5c1.9,0,2.2,1.2,2.2,2.7v3.5c0,0.1-0.1,0.2-0.2,0.2c-0.2,0-0.4-0.3-0.4-0.7
			v-0.1l0,0c-0.4,0.4-1.2,0.9-2.2,0.9c-1.2,0-2-0.8-2-2.1C52,114.2,52.9,113.2,54.6,113.2z M54.1,116.8c0.9,0,1.8-0.6,2.1-0.9v-1.8
			c-0.2-0.1-0.9-0.3-1.6-0.3c-1.2,0-2,0.6-2,1.6C52.5,116.2,53.2,116.8,54.1,116.8z"/>
		<path class="st1" d="M61.6,117.4c-1.2,0-2-0.6-2.2-0.9v0.1c0,0.4-0.2,0.7-0.4,0.7c-0.1,0-0.2-0.1-0.2-0.2V108
			c0-0.1,0.1-0.2,0.2-0.2h0.2c0.1,0,0.2,0.1,0.2,0.2v3.5c0,0,0.8-0.6,2-0.6c1.8,0,3,1.5,3,3.3C64.5,116,63.3,117.4,61.6,117.4z
			 M61.4,111.5c-1.1,0-1.9,0.7-1.9,0.7v3.6c0,0.1,0.7,1.1,2.1,1.1c1.3,0,2.3-1.2,2.3-2.7C63.9,112.7,62.8,111.5,61.4,111.5z"/>
		<path class="st1" d="M69,110.9c1.7,0,3.1,1.5,3.1,3.2c0,1.8-1.4,3.3-3.1,3.3c-1.8,0-3.1-1.5-3.1-3.3
			C65.9,112.4,67.3,110.9,69,110.9z M69,116.8c1.4,0,2.5-1.2,2.5-2.7c0-1.5-1.1-2.7-2.5-2.7c-1.4,0-2.5,1.2-2.5,2.7
			C66.5,115.6,67.6,116.8,69,116.8z"/>
		<path class="st1" d="M74,111.2c0-0.1,0.1-0.2,0.2-0.2c0.2,0,0.4,0.3,0.4,0.7v0.1c0.2-0.2,0.9-0.9,2-0.9c0.5,0,0.9,0.1,1,0.2
			c0.1,0,0.2,0.2,0.2,0.3l-0.1,0.2c0,0.1-0.1,0.1-0.3,0.1c-0.1,0-0.4-0.2-0.8-0.2c-1.2,0-1.8,1-1.9,1.1v4.5c0,0.1-0.1,0.2-0.2,0.2
			h-0.2c-0.1,0-0.2-0.1-0.2-0.2V111.2z"/>
		<path class="st1" d="M84.3,113.2c0.7,0,1.4,0.2,1.6,0.3c0-1.3-0.3-2.1-1.7-2.1c-0.8,0-1.5,0.4-1.6,0.4c-0.1,0.1-0.2,0-0.2-0.1
			l-0.1-0.2c-0.1-0.1,0-0.2,0.1-0.2c0,0,0.8-0.5,1.9-0.5c1.9,0,2.2,1.2,2.2,2.7v3.5c0,0.1-0.1,0.2-0.2,0.2c-0.2,0-0.4-0.3-0.4-0.7
			v-0.1l0,0c-0.4,0.4-1.2,0.9-2.2,0.9c-1.2,0-2-0.8-2-2.1C81.7,114.2,82.7,113.2,84.3,113.2z M83.8,116.8c0.9,0,1.8-0.6,2.1-0.9
			v-1.8c-0.2-0.1-0.9-0.3-1.6-0.3c-1.2,0-2,0.6-2,1.6C82.3,116.2,83,116.8,83.8,116.8z"/>
		<path class="st1" d="M88.7,111.2c0-0.1,0.1-0.2,0.2-0.2c0.2,0,0.4,0.3,0.4,0.7v0.2c0.2-0.3,1-0.9,2.2-0.9c1.8,0,2.3,1.1,2.3,2.7
			v3.4c0,0.1-0.1,0.2-0.2,0.2h-0.2c-0.1,0-0.2-0.1-0.2-0.2v-3.4c0-1.4-0.6-2.2-1.8-2.2c-1.3,0-2.1,1-2.1,1.1v4.5
			c0,0.1-0.1,0.2-0.2,0.2h-0.2c-0.1,0-0.2-0.1-0.2-0.2V111.2z"/>
		<path class="st1" d="M98.5,110.9c1.2,0,2,0.6,2,0.6V108c0-0.1,0.1-0.2,0.2-0.2h0.2c0.1,0,0.2,0.1,0.2,0.2v9.1
			c0,0.1-0.1,0.2-0.2,0.2c-0.2,0-0.4-0.3-0.4-0.7v-0.1c-0.2,0.2-1,0.9-2.2,0.9c-1.6,0-2.8-1.4-2.8-3.3
			C95.5,112.4,96.8,110.9,98.5,110.9z M98.4,116.8c1.4,0,2.1-1,2.1-1.1v-3.6c0,0-0.8-0.7-1.9-0.7c-1.4,0-2.5,1.2-2.5,2.7
			C96.1,115.6,97.1,116.8,98.4,116.8z"/>
	</g>
	<g>
		<path class="st1" d="M39.7,127c0-0.1,0.1-0.2,0.2-0.2h5.4c0.1,0,0.2,0.1,0.2,0.2v0.2c0,0.1-0.1,0.2-0.2,0.2h-4.9v3.7h4.3
			c0.1,0,0.2,0.1,0.2,0.2v0.2c0,0.1-0.1,0.2-0.2,0.2h-4.3v4h4.9c0.1,0,0.2,0.1,0.2,0.2v0.2c0,0.1-0.1,0.2-0.2,0.2h-5.4
			c-0.1,0-0.2-0.1-0.2-0.2V127z"/>
		<path class="st1" d="M47.1,130.2c0-0.1,0.1-0.2,0.2-0.2c0.2,0,0.4,0.3,0.4,0.7v0.1c0.2-0.3,0.8-0.9,2-0.9c1,0,1.5,0.4,1.9,1.1
			c0.2-0.2,0.9-1.1,2.2-1.1c1.7,0,2.3,1.1,2.3,2.8v3.4c0,0.1-0.1,0.2-0.2,0.2h-0.2c-0.1,0-0.2-0.1-0.2-0.2v-3.4
			c0-1.4-0.5-2.2-1.7-2.2c-1.2,0-1.7,0.9-1.9,1.1c0.1,0.3,0.1,0.7,0.1,1.1v3.4c0,0.1-0.1,0.2-0.2,0.2h-0.2c-0.1,0-0.2-0.1-0.2-0.2
			v-3.4c0-1.4-0.6-2.2-1.7-2.2c-1.3,0-1.9,0.9-1.9,1.1v4.5c0,0.1-0.1,0.2-0.2,0.2h-0.2c-0.1,0-0.2-0.1-0.2-0.2V130.2z"/>
		<path class="st1" d="M58.9,139.3c0,0.1-0.1,0.2-0.2,0.2h-0.2c-0.1,0-0.2-0.1-0.2-0.2v-9.1c0-0.1,0.1-0.2,0.2-0.2
			c0.2,0,0.4,0.2,0.4,0.6c0.2-0.2,1-0.7,2.1-0.7c1.7,0,3,1.4,3,3.2c0,1.8-1.3,3.3-3.1,3.3c-1,0-1.7-0.5-1.9-0.6V139.3z M58.9,135.1
			c0.1,0.1,0.8,0.8,1.9,0.8c1.5,0,2.5-1.2,2.5-2.7c0-1.4-1-2.6-2.4-2.6c-1.2,0-1.9,0.7-2,0.8V135.1z"/>
		<path class="st1" d="M65.7,127c0-0.1,0.1-0.2,0.2-0.2h0.2c0.1,0,0.2,0.1,0.2,0.2v9c0,0.1-0.1,0.2-0.2,0.2h-0.2
			c-0.1,0-0.2-0.1-0.2-0.2V127z"/>
		<path class="st1" d="M71.3,129.9c1.7,0,3.1,1.5,3.1,3.2c0,1.8-1.4,3.3-3.1,3.3c-1.8,0-3.1-1.5-3.1-3.3
			C68.2,131.4,69.5,129.9,71.3,129.9z M71.3,135.8c1.4,0,2.5-1.2,2.5-2.7c0-1.5-1.1-2.7-2.5-2.7c-1.4,0-2.5,1.2-2.5,2.7
			C68.8,134.6,69.9,135.8,71.3,135.8z"/>
		<path class="st1" d="M75.3,130.3c-0.1-0.1,0-0.3,0.1-0.3h0.3c0.1,0,0.2,0,0.2,0.1l2.2,5.4h0l2.3-5.4c0-0.1,0.1-0.1,0.2-0.1h0.3
			c0.1,0,0.2,0.1,0.1,0.3l-3.9,9.1c0,0.1-0.1,0.1-0.2,0.1h-0.3c-0.1,0-0.2-0.1-0.1-0.2l1.3-3L75.3,130.3z"/>
		<path class="st1" d="M82.5,130.2c0-0.1,0.1-0.2,0.2-0.2c0.2,0,0.4,0.3,0.4,0.7v0.1c0.2-0.3,0.8-0.9,2-0.9c1,0,1.5,0.4,1.9,1.1
			c0.2-0.2,0.9-1.1,2.2-1.1c1.7,0,2.3,1.1,2.3,2.8v3.4c0,0.1-0.1,0.2-0.2,0.2H91c-0.1,0-0.2-0.1-0.2-0.2v-3.4c0-1.4-0.5-2.2-1.7-2.2
			c-1.2,0-1.7,0.9-1.9,1.1c0.1,0.3,0.1,0.7,0.1,1.1v3.4c0,0.1-0.1,0.2-0.2,0.2h-0.2c-0.1,0-0.2-0.1-0.2-0.2v-3.4
			c0-1.4-0.6-2.2-1.7-2.2c-1.3,0-1.9,0.9-1.9,1.1v4.5c0,0.1-0.1,0.2-0.2,0.2h-0.2c-0.1,0-0.2-0.1-0.2-0.2V130.2z"/>
		<path class="st1" d="M96.2,129.9c1.6,0,2.8,1.2,2.8,2.8c0,0.2,0,0.6-0.2,0.6h-5c0,1.4,1.1,2.5,2.4,2.5c0.9,0,1.5-0.4,1.9-0.6
			c0.1-0.1,0.2-0.1,0.3,0l0.1,0.2c0.1,0.1,0,0.2-0.1,0.2c-0.4,0.3-1.3,0.7-2.3,0.7c-1.8,0-3-1.5-3-3.3
			C93.2,131.4,94.4,129.9,96.2,129.9z M98.4,132.8c0-1.2-0.8-2.3-2.2-2.3c-1.4,0-2.3,1-2.4,2.3H98.4z"/>
		<path class="st1" d="M100.8,130.2c0-0.1,0.1-0.2,0.2-0.2c0.2,0,0.4,0.3,0.4,0.7v0.2c0.2-0.3,1-0.9,2.2-0.9c1.8,0,2.3,1.1,2.3,2.7
			v3.4c0,0.1-0.1,0.2-0.2,0.2h-0.2c-0.1,0-0.2-0.1-0.2-0.2v-3.4c0-1.4-0.6-2.2-1.8-2.2c-1.3,0-2.1,1-2.1,1.1v4.5
			c0,0.1-0.1,0.2-0.2,0.2h-0.2c-0.1,0-0.2-0.1-0.2-0.2V130.2z"/>
		<path class="st1" d="M107.4,130.6c-0.2,0-0.2-0.1-0.2-0.2v-0.2c0-0.1,0.1-0.2,0.2-0.2h0.8v-1.7c0-0.1,0.1-0.2,0.2-0.2l0.2,0
			c0.1,0,0.2,0.1,0.2,0.2v1.7h2.2c0.1,0,0.2,0.1,0.2,0.2v0.2c0,0.1-0.1,0.2-0.2,0.2h-2.2v4c0,0.8,0.3,1.3,1.1,1.3
			c0.5,0,1-0.3,1.2-0.4c0.1-0.1,0.2,0,0.2,0.1l0.1,0.2c0.1,0.1,0,0.2-0.1,0.2c-0.2,0.2-0.9,0.5-1.5,0.5c-1.3,0-1.6-0.8-1.6-1.8v-4
			H107.4z"/>
	</g>
</g>
</svg>
