<svg xmlns="http://www.w3.org/2000/svg" viewBox="0 0 37.89 40"><defs><style>.cls-1{fill:#fff;}</style></defs><g id="Layer_2" data-name="Layer 2"><g id="Layer_1-2" data-name="Layer 1"><path class="cls-1" d="M5.26,4.21A3.23,3.23,0,0,0,2.11,7.37v5.26H35.79V7.37a3.23,3.23,0,0,0-3.16-3.16H29.47v1a1.05,1.05,0,1,1-2.1,0v-1H10.53v1A1,1,0,0,1,9.47,6.32,1,1,0,0,1,8.42,5.26v-1ZM2.11,14.74v20a3.23,3.23,0,0,0,3.15,3.15H32.63a3.23,3.23,0,0,0,3.16-3.15v-20ZM32.63,40H5.26A5.22,5.22,0,0,1,0,34.74V7.37A5.22,5.22,0,0,1,5.26,2.1H8.42v-1A1,1,0,0,1,9.47,0a1,1,0,0,1,1.06,1.05V2.1H27.37v-1a1.05,1.05,0,1,1,2.1,0V2.1h3.16a5.21,5.21,0,0,1,5.26,5.27V34.74A5.21,5.21,0,0,1,32.63,40"/></g></g></svg>