<svg xmlns="http://www.w3.org/2000/svg" viewBox="0 0 50 40"><defs><style>.cls-1{fill:#fff;}</style></defs><g id="Layer_2" data-name="Layer 2"><g id="Layer_1-2" data-name="Layer 1"><path class="cls-1" d="M6.25,2.5A3.84,3.84,0,0,0,2.5,6.25v20A3.84,3.84,0,0,0,6.25,30h37.5a3.84,3.84,0,0,0,3.75-3.75v-20A3.84,3.84,0,0,0,43.75,2.5Zm16.25,35h5v-5h-5ZM33.75,40H16.25a1.25,1.25,0,0,1,0-2.5H20v-5H6.25A6.19,6.19,0,0,1,0,26.25v-20A6.19,6.19,0,0,1,6.25,0h37.5A6.19,6.19,0,0,1,50,6.25v20a6.19,6.19,0,0,1-6.25,6.25H30v5h3.75a1.25,1.25,0,0,1,0,2.5"/></g></g></svg>