<?xml version="1.0" encoding="utf-8"?>
<!-- Generator: Adobe Illustrator 25.4.1, SVG Export Plug-In . SVG Version: 6.00 Build 0)  -->
<svg version="1.1" id="Layer_1" xmlns="http://www.w3.org/2000/svg" xmlns:xlink="http://www.w3.org/1999/xlink" x="0px" y="0px"
	 viewBox="0 0 150 165" style="enable-background:new 0 0 150 165;" xml:space="preserve">
<style type="text/css">
	.st0{fill:#FDB71A;}
	.st1{fill:#FFFFFF;}
</style>
<g id="Layer_2_00000046330240421846875170000013843788209308754328_">
	<g id="Layer_1-2">
		<rect class="st0" width="150" height="165"/>
		<circle class="st1" cx="75" cy="57.6" r="38.5"/>
		<path class="st0" d="M72.8,53.5c0.2,0,0.4,0.1,0.6,0.1l5.9,5.9c0.2,0.2,0.2,0.3,0.2,0.6v2.7l0.7,0.7l6.4-6.4l-0.7-0.7h-2.7
			c-0.2,0-0.4-0.2-0.6-0.2l-5.9-5.9c0-0.2-0.2-0.4-0.2-0.6v-2.7l-0.7-0.8l-6.4,6.4l0.7,0.8H72.8z M69.8,61.2L69.8,61.2l-6.4,6.4
			l1.9,1.9l6.4-6.4L69.8,61.2z M65.4,71.3c-0.2,0-0.4-0.2-0.6-0.2l-3-3c-0.3-0.3-0.3-0.7,0-1l7.4-7.4c0.2-0.2,0.4-0.3,0.6-0.3
			c0.2,0,0.4,0.2,0.6,0.2l0.9,0.9l3.5-3.5l-2.2-2h-2.7c-0.2,0-0.4-0.2-0.6-0.2l-1.5-1.5c0-0.2-0.2-0.5-0.2-0.6s0.2-0.4,0.2-0.6
			l7.4-7.4c0.3-0.3,0.7-0.3,1,0l1.5,1.5c0.2,0.2,0.3,0.4,0.3,0.6v2.7l5.5,5.5h2.7c0.1,0,0.4,0.2,0.6,0.2l1.5,1.5
			c0.3,0.3,0.3,0.7,0,1l-7.4,7.4c-0.2,0.2-0.3,0.2-0.6,0.2c-0.2,0-0.4-0.2-0.6-0.2l-1.5-1.5C78,63.4,78,63.3,78,63v-2.7l-2.2-2.2
			l-3.4,3.4l0.9,0.9c0.2,0.2,0.2,0.3,0.2,0.6s-0.2,0.5-0.2,0.6L65.8,71C65.8,71.2,65.5,71.3,65.4,71.3"/>
	</g>
</g>
<g>
	<path class="st1" d="M59.1,121.7c0-0.1,0.1-0.2,0.2-0.2h5.4c0.1,0,0.2,0.1,0.2,0.2v0.2c0,0.1-0.1,0.2-0.2,0.2h-4.9v3.7H64
		c0.1,0,0.2,0.1,0.2,0.2v0.2c0,0.1-0.1,0.2-0.2,0.2h-4.3v4h4.9c0.1,0,0.2,0.1,0.2,0.2v0.2c0,0.1-0.1,0.2-0.2,0.2h-5.4
		c-0.1,0-0.2-0.1-0.2-0.2V121.7z"/>
	<path class="st1" d="M65.7,125.3c-0.2,0-0.2-0.1-0.2-0.2v-0.2c0-0.1,0.1-0.2,0.2-0.2h0.8V123c0-0.1,0.1-0.2,0.2-0.2l0.2,0
		c0.1,0,0.2,0.1,0.2,0.2v1.7h2.2c0.1,0,0.2,0.1,0.2,0.2v0.2c0,0.1-0.1,0.2-0.2,0.2h-2.2v4c0,0.8,0.3,1.3,1.1,1.3
		c0.5,0,1-0.3,1.2-0.4c0.1-0.1,0.2,0,0.2,0.1l0.1,0.2c0.1,0.1,0,0.2-0.1,0.2c-0.2,0.2-0.9,0.5-1.5,0.5c-1.3,0-1.6-0.8-1.6-1.8v-4
		H65.7z"/>
	<path class="st1" d="M71,121.7c0-0.1,0.1-0.2,0.2-0.2h0.2c0.1,0,0.2,0.1,0.2,0.2v3.8c0.2-0.2,0.9-1,2.1-1c1.6,0,2.3,1,2.3,2.8v3.4
		c0,0.1-0.1,0.2-0.2,0.2h-0.2c-0.1,0-0.2-0.1-0.2-0.2v-3.4c0-1.4-0.6-2.2-1.8-2.2s-1.9,0.9-2.1,1.1v4.4c0,0.1-0.1,0.2-0.2,0.2h-0.2
		c-0.1,0-0.2-0.1-0.2-0.2V121.7z"/>
	<path class="st1" d="M77.9,122.5c0-0.3,0.2-0.5,0.5-0.5s0.5,0.2,0.5,0.5c0,0.3-0.2,0.5-0.5,0.5S77.9,122.8,77.9,122.5z M78.2,124.9
		c0-0.1,0.1-0.2,0.2-0.2h0.2c0.1,0,0.2,0.1,0.2,0.2v5.8c0,0.1-0.1,0.2-0.2,0.2h-0.2c-0.1,0-0.2-0.1-0.2-0.2V124.9z"/>
	<path class="st1" d="M83.7,124.6c1.2,0,2,0.6,2.3,1c0.1,0.1,0.1,0.2,0,0.3l-0.1,0.1c-0.1,0.1-0.2,0.1-0.3,0
		c-0.1-0.2-0.9-0.7-1.8-0.7c-1.4,0-2.6,1.2-2.6,2.7c0,1.5,1.2,2.7,2.6,2.7c1.1,0,1.8-0.8,2-1c0.1-0.1,0.2-0.1,0.3,0l0.1,0.1
		c0.1,0.1,0.1,0.2,0,0.2c-0.3,0.4-1.1,1.2-2.4,1.2c-1.8,0-3.2-1.4-3.2-3.3C80.5,126,81.9,124.6,83.7,124.6z"/>
	<path class="st1" d="M87.4,130.2l0.1-0.2c0.1-0.1,0.2-0.1,0.3,0c0.2,0.1,0.8,0.6,1.7,0.6c0.9,0,1.6-0.5,1.6-1.1
		c0-0.7-0.8-1.1-1.8-1.4c-1.1-0.4-1.9-0.8-1.9-1.8c0-0.7,0.6-1.6,2-1.6c0.8,0,1.4,0.3,1.8,0.5c0.1,0.1,0.1,0.2,0.1,0.3l-0.1,0.1
		c-0.1,0.1-0.2,0.1-0.3,0.1c-0.1-0.1-0.8-0.4-1.5-0.4c-1,0-1.4,0.6-1.4,1c0,0.6,0.6,1,1.5,1.3c1.2,0.4,2.1,0.8,2.1,2
		c0,0.9-0.9,1.7-2.1,1.7c-1.1,0-1.7-0.4-2-0.7C87.4,130.4,87.4,130.3,87.4,130.2z"/>
</g>
</svg>
