<?xml version="1.0" encoding="utf-8"?>
<!-- Generator: Adobe Illustrator 25.4.1, SVG Export Plug-In . SVG Version: 6.00 Build 0)  -->
<svg version="1.1" id="Layer_1" xmlns="http://www.w3.org/2000/svg" xmlns:xlink="http://www.w3.org/1999/xlink" x="0px" y="0px"
	 viewBox="0 0 150 165" style="enable-background:new 0 0 150 165;" xml:space="preserve">
<style type="text/css">
	.st0{fill:#F47B20;}
	.st1{fill:#FFFFFF;}
</style>
<g id="Layer_2_00000150084634160652176800000010221150351547970692_">
	<g id="Layer_1-2">
		<rect class="st0" width="150" height="165"/>
		<circle class="st1" cx="75" cy="57.6" r="38.5"/>
		<path class="st0" d="M83.3,71.6L83.3,71.6c-0.3,0-0.5-0.3-0.4-0.5c0.2-2.5,1.6-4.2,2.9-5.9c0.8-1,1.4-2,2-3.1
			c1.3-2.6,1.3-6,1.3-8.9c0-1.5-0.1-3-0.3-4.4v-0.2c-0.1-0.4-0.2-1.5-0.6-1.7c-0.2-0.1-0.3,0-0.3,0c-0.3,0.2-0.8,1.2-0.7,5.6
			c0,0.2,0,0.3,0,0.5c0,0.3-0.2,0.5-0.5,0.5c-0.3,0-0.5-0.2-0.5-0.5c0-0.1,0-0.3,0-0.5c-0.1-2.8,0-5.7,1.1-6.5
			c0.4-0.3,0.9-0.3,1.3-0.1c0.9,0.4,1.1,1.7,1.2,2.5v0.2c0.2,1.5,0.3,3,0.3,4.6c0,3.1,0,6.5-1.4,9.4c-0.6,1.1-1.3,2.2-2.2,3.2
			c-1.3,1.6-2.5,3.2-2.7,5.4C83.8,71.4,83.6,71.6,83.3,71.6z M66.7,71.6c-0.3,0-0.5-0.2-0.5-0.5c-0.2-2.2-1.4-3.8-2.7-5.4
			c-0.8-1-1.5-2.1-2.2-3.2c-1.4-2.8-1.4-6.3-1.4-9.4c0-1.5,0.1-3.1,0.3-4.6v-0.2c0.1-0.8,0.3-2.1,1.2-2.5c0.4-0.2,0.9-0.2,1.3,0.1
			c1.2,0.8,1.2,3.7,1.1,6.5c0,0.1,0,0.3,0,0.4c0,0.3-0.2,0.5-0.5,0.5l0,0c-0.3,0-0.5-0.2-0.5-0.5c0,0,0,0,0,0c0-0.2,0-0.3,0-0.5
			c0.2-4.4-0.3-5.4-0.7-5.6c0,0-0.1-0.1-0.3,0c-0.4,0.2-0.5,1.3-0.6,1.7v0.2c-0.2,1.5-0.3,2.9-0.3,4.4c0,3,0,6.3,1.3,9
			c0.6,1.1,1.3,2.1,2.1,3.1c1.3,1.7,2.6,3.4,2.9,5.9C67.2,71.4,67,71.6,66.7,71.6L66.7,71.6z M77,71.5c-0.3,0-0.5-0.2-0.5-0.5
			c0-0.9-0.1-1.9-0.3-2.8c-0.4-2.4-0.8-4.8,1.3-7c0.5-0.5,1.2-1,1.8-1.4c0.5-0.3,1-0.7,1.5-1.1c0.6-0.6,1.2-1.3,1.7-2
			c0.3-0.4,0.5-0.7,0.8-1.1l0.1-0.2c0.6-0.7,1.6-2.1,2.8-1.7c0.7,0.2,1.3,1,0.8,3.2c-0.4,1.4-1.2,2.7-2.1,3.8
			c-0.7,0.8-1.2,1.7-1.7,2.7c-0.1,0.2-0.4,0.3-0.7,0.2c-0.2-0.1-0.3-0.4-0.2-0.6c0.5-1,1.1-2,1.8-2.9c0.9-1,1.5-2.2,1.9-3.5
			c0.3-1.2,0.2-1.9-0.1-2.1s-1.3,0.9-1.7,1.3L84,56.3c-0.3,0.3-0.5,0.7-0.8,1c-0.5,0.8-1.1,1.5-1.8,2.2c-0.5,0.4-1,0.8-1.6,1.2
			c-0.6,0.4-1.1,0.8-1.7,1.3c-1.8,1.8-1.4,3.9-1,6.1c0.2,1,0.3,2,0.3,3C77.5,71.3,77.3,71.5,77,71.5L77,71.5z M73,71.5L73,71.5
			c-0.3,0-0.5-0.2-0.5-0.5c0-1,0.2-2,0.3-3c0.4-2.2,0.8-4.3-1-6.1c-0.5-0.5-1.1-0.9-1.7-1.3c-0.6-0.3-1.1-0.7-1.6-1.2
			c-0.7-0.7-1.3-1.4-1.8-2.2c-0.2-0.3-0.5-0.7-0.8-1l-0.1-0.2c-0.3-0.5-1.2-1.5-1.7-1.3s-0.4,0.9-0.1,2.1c0.4,1.3,1.1,2.5,1.9,3.5
			c0.7,0.9,1.3,1.9,1.8,2.9c0.1,0.3-0.1,0.5-0.3,0.6c-0.2,0.1-0.5,0-0.6-0.2c-0.5-1-1-1.9-1.7-2.7c-0.9-1.1-1.6-2.4-2.1-3.8
			c-0.5-2.3,0.1-3,0.8-3.2c1.2-0.4,2.2,1,2.8,1.7l0.1,0.2c0.3,0.3,0.5,0.7,0.8,1.1c0.5,0.7,1,1.4,1.7,2c0.5,0.4,0.9,0.8,1.5,1.1
			c0.6,0.4,1.3,0.9,1.8,1.4c2.1,2.1,1.7,4.6,1.3,7c-0.2,0.9-0.3,1.9-0.3,2.8C73.5,71.3,73.3,71.5,73,71.5z M75,58.8
			c-0.1,0-0.2,0-0.2-0.1l-0.2-0.1c-0.3-0.2-8.2-4.8-8.2-9.8c0-2.6,2.2-4.7,4.8-4.6c1.5,0,2.9,0.7,3.8,1.8c0.9-1.1,2.3-1.8,3.8-1.8
			c2.6,0,4.8,2,4.8,4.6c0,5-7.8,9.6-8.2,9.8l-0.2,0.1C75.2,58.8,75.1,58.8,75,58.8z M71.2,45.2c-2.1,0-3.8,1.6-3.8,3.6
			c0,3.5,4.9,7.4,7.6,8.9c0.7-0.4,7.6-4.7,7.6-8.9c0-2.1-1.8-3.7-3.8-3.6c-1.4,0-2.7,0.7-3.3,1.9c-0.2,0.2-0.5,0.3-0.7,0.2
			c-0.1,0-0.1-0.1-0.2-0.2C73.9,45.9,72.6,45.2,71.2,45.2z M80.4,49.3c-0.3,0-0.5-0.2-0.5-0.5c0-0.6-0.5-1.1-1.2-1.1
			c-0.3,0-0.5-0.2-0.5-0.5s0.2-0.5,0.5-0.5c1.2,0,2.2,0.9,2.2,2c0,0,0,0,0,0.1C81,49.1,80.8,49.3,80.4,49.3
			C80.5,49.3,80.5,49.3,80.4,49.3z"/>
	</g>
</g>
<g>
	<g>
		<path class="st1" d="M48.9,115.9c1.4,0,2.4,0.5,3.3,1.3c0.1,0.1,0.1,0.2,0,0.2l-0.2,0.2c-0.1,0.1-0.1,0.1-0.2,0
			c-0.8-0.7-1.7-1.1-2.8-1.1c-2.4,0-4.2,1.9-4.2,4.3c0,2.3,1.8,4.2,4.2,4.2c1.2,0,2-0.5,2.8-1.1c0.1-0.1,0.2-0.1,0.2,0l0.2,0.2
			c0.1,0.1,0.1,0.2,0,0.2c-0.9,0.9-2.1,1.3-3.3,1.3c-2.7,0-4.9-2.1-4.9-4.8C44.1,118.1,46.2,115.9,48.9,115.9z"/>
		<path class="st1" d="M56.7,119.1c1.7,0,3.1,1.5,3.1,3.2c0,1.8-1.4,3.3-3.1,3.3c-1.8,0-3.1-1.5-3.1-3.3
			C53.5,120.6,54.9,119.1,56.7,119.1z M56.7,125.1c1.4,0,2.5-1.2,2.5-2.7c0-1.5-1.1-2.7-2.5-2.7c-1.4,0-2.5,1.2-2.5,2.7
			C54.1,123.9,55.2,125.1,56.7,125.1z"/>
		<path class="st1" d="M61.6,119.4c0-0.1,0.1-0.2,0.2-0.2c0.2,0,0.4,0.3,0.4,0.7v0.2c0.2-0.3,1-0.9,2.2-0.9c1.8,0,2.3,1.1,2.3,2.7
			v3.4c0,0.1-0.1,0.2-0.2,0.2h-0.2c-0.1,0-0.2-0.1-0.2-0.2v-3.4c0-1.4-0.6-2.2-1.8-2.2c-1.3,0-2.1,1-2.1,1.1v4.5
			c0,0.1-0.1,0.2-0.2,0.2h-0.2c-0.1,0-0.2-0.1-0.2-0.2V119.4z"/>
		<path class="st1" d="M68.4,124.7l0.1-0.2c0.1-0.1,0.2-0.1,0.3,0c0.2,0.1,0.8,0.6,1.7,0.6c0.9,0,1.6-0.5,1.6-1.1
			c0-0.7-0.8-1.1-1.8-1.4c-1.1-0.4-1.9-0.8-1.9-1.8c0-0.7,0.6-1.6,2-1.6c0.8,0,1.4,0.3,1.8,0.5c0.1,0.1,0.1,0.2,0.1,0.3l-0.1,0.1
			c-0.1,0.1-0.2,0.1-0.3,0.1c-0.1-0.1-0.8-0.4-1.5-0.4c-1,0-1.4,0.6-1.4,1c0,0.6,0.6,1,1.5,1.3c1.2,0.4,2.1,0.8,2.1,2
			c0,0.9-0.9,1.7-2.1,1.7c-1.1,0-1.7-0.4-2-0.7C68.4,124.9,68.3,124.8,68.4,124.7z"/>
		<path class="st1" d="M74.1,119.5c0-0.1,0.1-0.2,0.2-0.2h0.2c0.1,0,0.2,0.1,0.2,0.2v3.5c0,1.4,0.5,2.1,1.8,2.1c1.2,0,1.8-0.9,2-1.2
			v-4.4c0-0.1,0.1-0.2,0.2-0.2h0.2c0.1,0,0.2,0.1,0.2,0.2v5.9c0,0.1-0.1,0.2-0.2,0.2c-0.2,0-0.4-0.3-0.4-0.7v-0.1
			c-0.2,0.2-0.9,0.9-2,0.9c-1.8,0-2.3-0.9-2.3-2.7V119.5z"/>
		<path class="st1" d="M81.3,119.4c0-0.1,0.1-0.2,0.2-0.2c0.2,0,0.4,0.3,0.4,0.7v0.1c0.2-0.3,0.8-0.9,2-0.9c1,0,1.5,0.4,1.9,1.1
			c0.2-0.2,0.9-1.1,2.2-1.1c1.7,0,2.3,1.1,2.3,2.8v3.4c0,0.1-0.1,0.2-0.2,0.2h-0.2c-0.1,0-0.2-0.1-0.2-0.2v-3.4
			c0-1.4-0.5-2.2-1.7-2.2c-1.2,0-1.7,0.9-1.9,1.1c0.1,0.3,0.1,0.7,0.1,1.1v3.4c0,0.1-0.1,0.2-0.2,0.2h-0.2c-0.1,0-0.2-0.1-0.2-0.2
			v-3.4c0-1.4-0.6-2.2-1.7-2.2c-1.3,0-1.9,0.9-1.9,1.1v4.5c0,0.1-0.1,0.2-0.2,0.2h-0.2c-0.1,0-0.2-0.1-0.2-0.2V119.4z"/>
		<path class="st1" d="M95,119.1c1.6,0,2.8,1.2,2.8,2.8c0,0.2,0,0.6-0.2,0.6h-5c0,1.4,1.1,2.5,2.4,2.5c0.9,0,1.5-0.4,1.9-0.6
			c0.1-0.1,0.2-0.1,0.3,0l0.1,0.2c0.1,0.1,0,0.2-0.1,0.2c-0.4,0.3-1.3,0.7-2.3,0.7c-1.8,0-3-1.5-3-3.3C92,120.6,93.2,119.1,95,119.1
			z M97.2,122c0-1.2-0.8-2.3-2.2-2.3c-1.4,0-2.3,1-2.4,2.3H97.2z"/>
		<path class="st1" d="M99.5,119.4c0-0.1,0.1-0.2,0.2-0.2c0.2,0,0.4,0.3,0.4,0.7v0.1c0.2-0.2,0.9-0.9,2-0.9c0.5,0,0.9,0.1,1,0.2
			c0.1,0,0.2,0.2,0.2,0.3l-0.1,0.2c0,0.1-0.1,0.1-0.3,0.1c-0.1,0-0.4-0.2-0.8-0.2c-1.2,0-1.9,1-1.9,1.1v4.5c0,0.1-0.1,0.2-0.2,0.2
			h-0.2c-0.1,0-0.2-0.1-0.2-0.2V119.4z"/>
	</g>
	<g>
		<path class="st1" d="M44.7,135.2c0-0.1,0.1-0.2,0.2-0.2h2.9c1.7,0,3.1,1.3,3.1,3c0,1.8-1.4,3.1-3,3.1h-2.5v3.2
			c0,0.1-0.1,0.2-0.2,0.2h-0.2c-0.1,0-0.2-0.1-0.2-0.2V135.2z M47.8,140.5c1.3,0,2.4-1,2.4-2.5c0-1.4-1.1-2.4-2.5-2.4h-2.4v4.8H47.8
			z"/>
		<path class="st1" d="M52.4,138.4c0-0.1,0.1-0.2,0.2-0.2c0.2,0,0.4,0.3,0.4,0.7v0.1c0.2-0.2,0.9-0.9,2-0.9c0.5,0,0.9,0.1,1,0.2
			c0.1,0,0.2,0.2,0.2,0.3l-0.1,0.2c0,0.1-0.1,0.1-0.3,0.1c-0.1,0-0.4-0.2-0.8-0.2c-1.2,0-1.9,1-1.9,1.1v4.5c0,0.1-0.1,0.2-0.2,0.2
			h-0.2c-0.1,0-0.2-0.1-0.2-0.2V138.4z"/>
		<path class="st1" d="M59.9,138.1c1.7,0,3.1,1.5,3.1,3.2c0,1.8-1.4,3.3-3.1,3.3c-1.8,0-3.1-1.5-3.1-3.3
			C56.8,139.6,58.1,138.1,59.9,138.1z M59.9,144.1c1.4,0,2.5-1.2,2.5-2.7c0-1.5-1.1-2.7-2.5-2.7c-1.4,0-2.5,1.2-2.5,2.7
			C57.4,142.9,58.5,144.1,59.9,144.1z"/>
		<path class="st1" d="M64.2,138.8c-0.2,0-0.2-0.1-0.2-0.2v-0.2c0-0.1,0.1-0.2,0.2-0.2h0.8v-1.7c0-0.1,0.1-0.2,0.2-0.2l0.2,0
			c0.1,0,0.2,0.1,0.2,0.2v1.7h2.2c0.1,0,0.2,0.1,0.2,0.2v0.2c0,0.1-0.1,0.2-0.2,0.2h-2.2v4c0,0.8,0.3,1.3,1.1,1.3
			c0.5,0,1-0.3,1.2-0.4c0.1-0.1,0.2,0,0.2,0.1l0.1,0.2c0.1,0.1,0,0.2-0.1,0.2c-0.2,0.2-0.9,0.5-1.5,0.5c-1.3,0-1.6-0.8-1.6-1.8v-4
			H64.2z"/>
		<path class="st1" d="M72,138.1c1.6,0,2.8,1.2,2.8,2.8c0,0.2,0,0.6-0.2,0.6h-5c0,1.4,1.1,2.5,2.4,2.5c0.9,0,1.5-0.4,1.9-0.6
			c0.1-0.1,0.2-0.1,0.3,0l0.1,0.2c0.1,0.1,0,0.2-0.1,0.2c-0.4,0.3-1.3,0.7-2.3,0.7c-1.8,0-3-1.5-3-3.3C69,139.6,70.2,138.1,72,138.1
			z M74.2,141c0-1.2-0.8-2.3-2.2-2.3c-1.4,0-2.3,1-2.4,2.3H74.2z"/>
		<path class="st1" d="M79.4,138.1c1.2,0,2,0.6,2.3,1c0.1,0.1,0.1,0.2,0,0.3l-0.1,0.1c-0.1,0.1-0.2,0.1-0.3,0
			c-0.1-0.2-0.9-0.7-1.8-0.7c-1.4,0-2.6,1.2-2.6,2.7c0,1.5,1.2,2.7,2.6,2.7c1.1,0,1.8-0.8,2-1c0.1-0.1,0.2-0.1,0.3,0l0.1,0.1
			c0.1,0.1,0.1,0.2,0,0.2c-0.3,0.4-1.1,1.2-2.4,1.2c-1.8,0-3.2-1.4-3.2-3.3C76.1,139.5,77.6,138.1,79.4,138.1z"/>
		<path class="st1" d="M83.1,138.8c-0.2,0-0.2-0.1-0.2-0.2v-0.2c0-0.1,0.1-0.2,0.2-0.2h0.8v-1.7c0-0.1,0.1-0.2,0.2-0.2l0.2,0
			c0.1,0,0.2,0.1,0.2,0.2v1.7h2.2c0.1,0,0.2,0.1,0.2,0.2v0.2c0,0.1-0.1,0.2-0.2,0.2h-2.2v4c0,0.8,0.3,1.3,1.1,1.3
			c0.5,0,1-0.3,1.2-0.4c0.1-0.1,0.2,0,0.2,0.1l0.1,0.2c0.1,0.1,0,0.2-0.1,0.2c-0.2,0.2-0.9,0.5-1.5,0.5c-1.3,0-1.6-0.8-1.6-1.8v-4
			H83.1z"/>
		<path class="st1" d="M88.2,136c0-0.3,0.2-0.5,0.5-0.5s0.5,0.2,0.5,0.5c0,0.3-0.2,0.5-0.5,0.5S88.2,136.3,88.2,136z M88.5,138.5
			c0-0.1,0.1-0.2,0.2-0.2h0.2c0.1,0,0.2,0.1,0.2,0.2v5.8c0,0.1-0.1,0.2-0.2,0.2h-0.2c-0.1,0-0.2-0.1-0.2-0.2V138.5z"/>
		<path class="st1" d="M94,138.1c1.7,0,3.1,1.5,3.1,3.2c0,1.8-1.4,3.3-3.1,3.3c-1.8,0-3.1-1.5-3.1-3.3
			C90.8,139.6,92.2,138.1,94,138.1z M94,144.1c1.4,0,2.5-1.2,2.5-2.7c0-1.5-1.1-2.7-2.5-2.7c-1.4,0-2.5,1.2-2.5,2.7
			C91.4,142.9,92.5,144.1,94,144.1z"/>
		<path class="st1" d="M98.9,138.4c0-0.1,0.1-0.2,0.2-0.2c0.2,0,0.4,0.3,0.4,0.7v0.2c0.2-0.3,1-0.9,2.2-0.9c1.8,0,2.3,1.1,2.3,2.7
			v3.4c0,0.1-0.1,0.2-0.2,0.2h-0.2c-0.1,0-0.2-0.1-0.2-0.2v-3.4c0-1.4-0.6-2.2-1.8-2.2c-1.3,0-2.1,1-2.1,1.1v4.5
			c0,0.1-0.1,0.2-0.2,0.2h-0.2c-0.1,0-0.2-0.1-0.2-0.2V138.4z"/>
	</g>
</g>
</svg>
