<?xml version="1.0" encoding="utf-8"?>
<!-- Generator: Adobe Illustrator 25.4.1, SVG Export Plug-In . SVG Version: 6.00 Build 0)  -->
<svg version="1.1" id="Layer_1" xmlns="http://www.w3.org/2000/svg" xmlns:xlink="http://www.w3.org/1999/xlink" x="0px" y="0px"
	 viewBox="0 0 150 165" style="enable-background:new 0 0 150 165;" xml:space="preserve">
<style type="text/css">
	.st0{fill:#F47B20;}
	.st1{fill:#FFFFFF;}
</style>
<g id="Layer_2_00000102521435876796040090000001281478278312612516_">
	<g id="Layer_1-2">
		<rect class="st0" width="150" height="165"/>
		<circle class="st1" cx="75" cy="57.6" r="38.5"/>
		<path class="st0" d="M88.5,51.9h-27c-0.2,0-0.4-0.2-0.4-0.4c0,0,0,0,0,0c0-0.2,0.2-0.4,0.4-0.4h27c0.2,0,0.4,0.2,0.4,0.4
			C88.9,51.7,88.7,51.9,88.5,51.9C88.5,51.9,88.5,51.9,88.5,51.9z M88.5,49.8h-27c-0.2,0-0.4-0.2-0.4-0.4c0-0.2,0.2-0.4,0.4-0.4
			c0,0,0,0,0,0h27c0.2,0,0.4,0.2,0.4,0.4C88.9,49.6,88.7,49.8,88.5,49.8C88.5,49.8,88.5,49.8,88.5,49.8z M77.5,67.4
			c-1.1,0-2-0.8-2.1-1.9s0.8-2,1.9-2.1s2,0.8,2.1,1.9c0,0,0,0,0,0.1C79.4,66.5,78.6,67.4,77.5,67.4L77.5,67.4z M77.5,64.2
			c-0.7-0.1-1.3,0.4-1.3,1.1s0.4,1.3,1.1,1.3s1.3-0.4,1.3-1.1c0,0,0-0.1,0-0.1C78.6,64.8,78.1,64.2,77.5,64.2
			C77.5,64.2,77.5,64.2,77.5,64.2L77.5,64.2z M81.5,61.6h-0.8V60c0.1-1.7-1.2-3.3-2.9-3.4c-1.7-0.1-3.3,1.2-3.4,2.9
			c0,0.2,0,0.3,0,0.5v1.6h-0.8V60c-0.2-2.2,1.3-4.2,3.5-4.4c2.2-0.2,4.2,1.3,4.4,3.5c0,0.3,0,0.6,0,0.9L81.5,61.6z M79.5,61.6h-0.9
			V60c0.1-0.6-0.4-1.2-1-1.2s-1.2,0.4-1.2,1c0,0.1,0,0.1,0,0.2v1.6h-0.8V60c-0.1-1.1,0.7-2,1.8-2.1c1.1-0.1,2,0.7,2.1,1.8
			c0,0.1,0,0.2,0,0.3L79.5,61.6z M82.2,71.3h-9.6c-0.9,0-1.6-0.6-1.6-1.5c0,0,0,0,0-0.1V63c0-1.1,1-2.1,2.1-2.1c0,0,0,0,0,0h8.5
			c1.1,0,2.1,0.9,2.1,2.1v6.8C83.7,70.6,83,71.3,82.2,71.3L82.2,71.3z M73.1,61.9c-0.6,0-1.1,0.5-1.1,1.1c0,0,0,0,0,0v6.8
			c0,0.3,0.3,0.5,0.6,0.5c0,0,0,0,0,0h9.6c0.3,0,0.6-0.2,0.6-0.5c0,0,0,0,0,0V63c0-0.6-0.5-1.1-1.1-1.1c0,0,0,0,0,0L73.1,61.9z
			 M86.7,65.4h-1.2c-0.3,0-0.5-0.2-0.5-0.5s0.2-0.5,0.5-0.5h1.2c0.7,0,1.3-0.6,1.3-1.2c0,0,0,0,0,0V46.8c0-0.7-0.6-1.3-1.3-1.3H63.3
			c-0.7,0-1.3,0.6-1.3,1.3v16.4c0,0.7,0.6,1.3,1.3,1.3c0,0,0,0,0,0h5.9c0.3,0,0.5,0.2,0.5,0.5s-0.2,0.5-0.5,0.5h-5.9
			c-1.2,0-2.3-1-2.3-2.2c0,0,0,0,0,0V46.8c0-1.2,1-2.3,2.3-2.3h23.5c1.2,0,2.3,1,2.3,2.3v16.4C89,64.4,88,65.4,86.7,65.4
			C86.7,65.4,86.7,65.4,86.7,65.4z"/>
	</g>
</g>
<g>
	<path class="st1" d="M55.3,118.2c0-0.1,0.1-0.2,0.2-0.2h2.9c1.7,0,3.1,1.3,3.1,3c0,1.8-1.4,3.1-3,3.1h-2.5v3.2
		c0,0.1-0.1,0.2-0.2,0.2h-0.2c-0.1,0-0.2-0.1-0.2-0.2V118.2z M58.3,123.5c1.3,0,2.4-1,2.4-2.5c0-1.4-1.1-2.4-2.5-2.4h-2.4v4.8H58.3z
		"/>
	<path class="st1" d="M62.9,121.4c0-0.1,0.1-0.2,0.2-0.2c0.2,0,0.4,0.3,0.4,0.7v0.1c0.2-0.2,0.9-0.9,2-0.9c0.5,0,0.9,0.1,1,0.2
		c0.1,0,0.2,0.2,0.2,0.3l-0.1,0.2c0,0.1-0.1,0.1-0.3,0.1c-0.1,0-0.4-0.2-0.8-0.2c-1.2,0-1.9,1-1.9,1.1v4.5c0,0.1-0.1,0.2-0.2,0.2
		h-0.2c-0.1,0-0.2-0.1-0.2-0.2V121.4z"/>
	<path class="st1" d="M67.7,119c0-0.3,0.2-0.5,0.5-0.5s0.5,0.2,0.5,0.5c0,0.3-0.2,0.5-0.5,0.5S67.7,119.3,67.7,119z M68,121.5
		c0-0.1,0.1-0.2,0.2-0.2h0.2c0.1,0,0.2,0.1,0.2,0.2v5.8c0,0.1-0.1,0.2-0.2,0.2h-0.2c-0.1,0-0.2-0.1-0.2-0.2V121.5z"/>
	<path class="st1" d="M70,121.5c-0.1-0.1-0.1-0.2,0.1-0.2h0.3c0.1,0,0.1,0,0.2,0.1l2.3,5.3h0l2.3-5.3c0-0.1,0.1-0.1,0.2-0.1h0.3
		c0.1,0,0.2,0.1,0.1,0.2l-2.7,6c-0.1,0.1-0.1,0.1-0.2,0.1h-0.1c-0.1,0-0.1,0-0.2-0.1L70,121.5z"/>
	<path class="st1" d="M79.3,123.5c0.7,0,1.4,0.2,1.6,0.3c0-1.3-0.3-2.1-1.7-2.1c-0.8,0-1.5,0.4-1.6,0.4c-0.1,0.1-0.2,0-0.2-0.1
		l-0.1-0.2c-0.1-0.1,0-0.2,0.1-0.2c0,0,0.8-0.5,1.9-0.5c1.9,0,2.2,1.2,2.2,2.7v3.5c0,0.1-0.1,0.2-0.2,0.2c-0.2,0-0.4-0.3-0.4-0.7
		v-0.1l0,0c-0.4,0.4-1.2,0.9-2.2,0.9c-1.2,0-2-0.8-2-2.1C76.7,124.4,77.7,123.5,79.3,123.5z M78.8,127.1c0.9,0,1.8-0.6,2.1-0.9v-1.8
		c-0.2-0.1-0.9-0.3-1.6-0.3c-1.2,0-2,0.6-2,1.6C77.3,126.5,78,127.1,78.8,127.1z"/>
	<path class="st1" d="M86.5,121.1c1.2,0,2,0.6,2.3,1c0.1,0.1,0.1,0.2,0,0.3l-0.1,0.1c-0.1,0.1-0.2,0.1-0.3,0
		c-0.1-0.2-0.9-0.7-1.8-0.7c-1.4,0-2.6,1.2-2.6,2.7c0,1.5,1.2,2.7,2.6,2.7c1.1,0,1.8-0.8,2-1c0.1-0.1,0.2-0.1,0.3,0l0.1,0.1
		c0.1,0.1,0.1,0.2,0,0.2c-0.3,0.4-1.1,1.2-2.4,1.2c-1.8,0-3.2-1.4-3.2-3.3C83.3,122.5,84.7,121.1,86.5,121.1z"/>
	<path class="st1" d="M90,121.5c-0.1-0.1,0-0.3,0.1-0.3h0.3c0.1,0,0.2,0,0.2,0.1l2.2,5.4h0l2.3-5.4c0-0.1,0.1-0.1,0.2-0.1h0.3
		c0.1,0,0.2,0.1,0.1,0.3l-3.9,9.1c0,0.1-0.1,0.1-0.2,0.1h-0.3c-0.1,0-0.2-0.1-0.1-0.2l1.3-3L90,121.5z"/>
</g>
</svg>
