<?xml version="1.0" encoding="utf-8"?>
<!-- Generator: Adobe Illustrator 25.4.1, SVG Export Plug-In . SVG Version: 6.00 Build 0)  -->
<svg version="1.1" id="Layer_1" xmlns="http://www.w3.org/2000/svg" xmlns:xlink="http://www.w3.org/1999/xlink" x="0px" y="0px"
	 viewBox="0 0 150 165" style="enable-background:new 0 0 150 165;" xml:space="preserve">
<style type="text/css">
	.st0{fill:#A5ADB7;}
	.st1{fill:#FFFFFF;}
	.st2{fill:#4B5B6D;}
</style>
<g id="Layer_2_00000165196814477178816310000002164710984711430821_">
	<g id="Layer_1-2">
		<rect class="st0" width="150" height="165"/>
		<circle class="st1" cx="75" cy="57.6" r="38.5"/>
		<path class="st2" d="M89.8,68.3c0.4,0,0.7,0.4,0.7,0.8c0,0.3-0.3,0.6-0.7,0.7H61.6c-0.4,0-0.7-0.4-0.7-0.8c0-0.3,0.3-0.6,0.7-0.7
			H89.8 M60.9,66.1c0,0.4,0.3,0.7,0.7,0.7c0,0,0,0,0.1,0h28.2c0.4,0,0.7-0.3,0.7-0.7c0-0.4-0.3-0.7-0.7-0.7l0,0H61.6
			c-0.1,0-0.1,0-0.2,0l-0.4,0.2C60.9,65.6,60.9,65.8,60.9,66.1 M89.1,59.3h-0.7c-1.2,0-2.2,1-2.2,2.2v0.7h0.8c1.2,0,2.2-1,2.2-2.2
			V59.3z M90.5,50v10.1c0,2-1.6,3.7-3.6,3.7c0,0,0,0-0.1,0H64.6h-0.2l2.8-1.5h17.5v-0.8c0-2,1.6-3.7,3.6-3.7c0,0,0.1,0,0.1,0H89V52
			h-0.7c-0.4,0-0.8-0.1-1.2-0.2L90.5,50z M65.3,47.5h-0.7c-1.2,0-2.2,1-2.2,2.2v0.7h0.7c1.2,0,2.2-1,2.2-2.2V47.5z M84.6,48v-0.5
			H66.8v0.8c0,2-1.6,3.7-3.6,3.7c0,0-0.1,0-0.1,0h-0.7v5.9h0.7c0.7,0,1.3,0.2,1.9,0.5l-1.8,1h-0.8v0.5l-1.4,0.8c0-0.2,0-0.3,0-0.5
			V49.7c0-2,1.6-3.7,3.6-3.7c0,0,0,0,0,0h22.3c0.4,0,0.8,0.1,1.2,0.2L84.6,48z M75.7,59.4c-0.7,0-1.4-0.2-2-0.5l-1.5,0.8
			c1,0.8,2.3,1.2,3.5,1.2c3.3,0,5.9-2.7,5.9-5.9c0-0.1,0-0.2,0-0.2l-1.5,0.8C79.9,57.7,78,59.4,75.7,59.4 M71.3,54.9
			c0-2.4,1.9-4.4,4.3-4.5c0.1,0,0.1,0,0.2,0c1,0,1.9,0.3,2.7,0.9l1.4-0.7c-1.1-1-2.5-1.6-4-1.6c-3.3,0-5.9,2.7-5.9,5.9
			c0,0.3,0,0.6,0.1,0.9l1.4-0.8C71.4,55,71.4,55,71.3,54.9 M61,65.5l0.4-0.2C61.3,65.4,61.1,65.4,61,65.5 M59.2,65
			c0.1,0,0.5,0,0.5-0.2l31.3-17c0.4-0.2,0.5-0.6,0.3-1c-0.2-0.4-0.6-0.5-1-0.3l0,0L59,63.6c0,0.1-0.3,0.4-0.3,0.5
			C58.6,64.5,58.7,64.9,59.2,65C59.1,65,59.2,65,59.2,65"/>
	</g>
</g>
<g>
	<path class="st1" d="M36.2,114.5c0-0.1,0.1-0.2,0.2-0.2h2.9c1.7,0,3.1,1.3,3.1,3c0,1.8-1.4,3.1-3,3.1h-2.5v3.2
		c0,0.1-0.1,0.2-0.2,0.2h-0.2c-0.1,0-0.2-0.1-0.2-0.2V114.5z M39.3,119.8c1.3,0,2.4-1,2.4-2.5c0-1.4-1.1-2.4-2.5-2.4h-2.4v4.8H39.3z
		"/>
	<path class="st1" d="M43.9,117.7c0-0.1,0.1-0.2,0.2-0.2c0.2,0,0.4,0.3,0.4,0.7v0.1c0.2-0.2,0.9-0.9,2-0.9c0.5,0,0.9,0.1,1,0.2
		c0.1,0,0.2,0.2,0.2,0.3l-0.1,0.2c0,0.1-0.1,0.1-0.3,0.1c-0.1,0-0.4-0.2-0.8-0.2c-1.2,0-1.9,1-1.9,1.1v4.5c0,0.1-0.1,0.2-0.2,0.2
		h-0.2c-0.1,0-0.2-0.1-0.2-0.2V117.7z"/>
	<path class="st1" d="M51.3,117.4c1.6,0,2.8,1.2,2.8,2.8c0,0.2,0,0.6-0.2,0.6h-5c0,1.4,1.1,2.5,2.4,2.5c0.9,0,1.5-0.4,1.9-0.6
		c0.1-0.1,0.2-0.1,0.3,0l0.1,0.2c0.1,0.1,0,0.2-0.1,0.2c-0.4,0.3-1.3,0.7-2.3,0.7c-1.8,0-3-1.5-3-3.3
		C48.3,118.9,49.5,117.4,51.3,117.4z M53.5,120.3c0-1.2-0.8-2.3-2.2-2.3c-1.4,0-2.3,1-2.4,2.3H53.5z"/>
	<path class="st1" d="M54.9,117.8c-0.1-0.1-0.1-0.2,0.1-0.2h0.3c0.1,0,0.1,0,0.2,0.1l2.3,5.3h0l2.3-5.3c0-0.1,0.1-0.1,0.2-0.1h0.3
		c0.1,0,0.2,0.1,0.1,0.2l-2.7,6c-0.1,0.1-0.1,0.1-0.2,0.1h-0.1c-0.1,0-0.1,0-0.2-0.1L54.9,117.8z"/>
	<path class="st1" d="M64.6,117.4c1.6,0,2.8,1.2,2.8,2.8c0,0.2,0,0.6-0.2,0.6h-5c0,1.4,1.1,2.5,2.4,2.5c0.9,0,1.5-0.4,1.9-0.6
		c0.1-0.1,0.2-0.1,0.3,0l0.1,0.2c0.1,0.1,0,0.2-0.1,0.2c-0.4,0.3-1.3,0.7-2.3,0.7c-1.8,0-3-1.5-3-3.3
		C61.6,118.9,62.8,117.4,64.6,117.4z M66.8,120.3c0-1.2-0.8-2.3-2.2-2.3c-1.4,0-2.3,1-2.4,2.3H66.8z"/>
	<path class="st1" d="M69.1,117.7c0-0.1,0.1-0.2,0.2-0.2c0.2,0,0.4,0.3,0.4,0.7v0.2c0.2-0.3,1-0.9,2.2-0.9c1.8,0,2.4,1.1,2.4,2.7
		v3.4c0,0.1-0.1,0.2-0.2,0.2h-0.2c-0.1,0-0.2-0.1-0.2-0.2v-3.4c0-1.4-0.6-2.2-1.8-2.2c-1.3,0-2.1,1-2.1,1.1v4.5
		c0,0.1-0.1,0.2-0.2,0.2h-0.2c-0.1,0-0.2-0.1-0.2-0.2V117.7z"/>
	<path class="st1" d="M75.8,118.1c-0.2,0-0.2-0.1-0.2-0.2v-0.2c0-0.1,0.1-0.2,0.2-0.2h0.8v-1.7c0-0.1,0.1-0.2,0.2-0.2l0.2,0
		c0.1,0,0.2,0.1,0.2,0.2v1.7h2.2c0.1,0,0.2,0.1,0.2,0.2v0.2c0,0.1-0.1,0.2-0.2,0.2h-2.2v4c0,0.8,0.3,1.3,1.1,1.3
		c0.5,0,1-0.3,1.2-0.4c0.1-0.1,0.2,0,0.2,0.1l0.1,0.2c0.1,0.1,0,0.2-0.1,0.2c-0.2,0.2-0.9,0.5-1.5,0.5c-1.3,0-1.6-0.8-1.6-1.8v-4
		H75.8z"/>
	<path class="st1" d="M80.9,115.3c0-0.3,0.2-0.5,0.5-0.5c0.3,0,0.5,0.2,0.5,0.5c0,0.3-0.2,0.5-0.5,0.5
		C81.1,115.8,80.9,115.6,80.9,115.3z M81.1,117.8c0-0.1,0.1-0.2,0.2-0.2h0.2c0.1,0,0.2,0.1,0.2,0.2v5.8c0,0.1-0.1,0.2-0.2,0.2h-0.2
		c-0.1,0-0.2-0.1-0.2-0.2V117.8z"/>
	<path class="st1" d="M86.6,117.4c1.7,0,3.1,1.5,3.1,3.2c0,1.8-1.4,3.3-3.1,3.3c-1.8,0-3.1-1.5-3.1-3.3
		C83.5,118.9,84.8,117.4,86.6,117.4z M86.6,123.4c1.4,0,2.5-1.2,2.5-2.7c0-1.5-1.1-2.7-2.5-2.7c-1.4,0-2.5,1.2-2.5,2.7
		C84.1,122.2,85.2,123.4,86.6,123.4z"/>
	<path class="st1" d="M91.5,117.7c0-0.1,0.1-0.2,0.2-0.2c0.2,0,0.4,0.3,0.4,0.7v0.2c0.2-0.3,1-0.9,2.2-0.9c1.8,0,2.4,1.1,2.4,2.7
		v3.4c0,0.1-0.1,0.2-0.2,0.2h-0.2c-0.1,0-0.2-0.1-0.2-0.2v-3.4c0-1.4-0.6-2.2-1.8-2.2c-1.3,0-2.1,1-2.1,1.1v4.5
		c0,0.1-0.1,0.2-0.2,0.2h-0.2c-0.1,0-0.2-0.1-0.2-0.2V117.7z"/>
	<path class="st1" d="M104.8,117.4c1.7,0,3.1,1.5,3.1,3.2c0,1.8-1.4,3.3-3.1,3.3c-1.8,0-3.1-1.5-3.1-3.3
		C101.6,118.9,103,117.4,104.8,117.4z M104.8,123.4c1.4,0,2.5-1.2,2.5-2.7c0-1.5-1.1-2.7-2.5-2.7c-1.4,0-2.5,1.2-2.5,2.7
		C102.2,122.2,103.4,123.4,104.8,123.4z"/>
	<path class="st1" d="M109.9,118.1h-1c-0.1,0-0.2-0.1-0.2-0.2v-0.2c0-0.1,0.1-0.2,0.2-0.2h1v-1c0-1.5,0.7-2.4,2-2.4
		c0.8,0,1.5,0.4,1.7,0.7c0.1,0.1,0.1,0.2,0,0.3l-0.1,0.2c-0.1,0.1-0.2,0.1-0.3,0c-0.4-0.3-0.8-0.5-1.4-0.5c-1,0-1.4,0.6-1.4,1.8v1
		h2.3c0.1,0,0.2,0.1,0.2,0.2v0.2c0,0.1-0.1,0.2-0.2,0.2h-2.3v5.5c0,0.1-0.1,0.2-0.2,0.2h-0.2c-0.1,0-0.2-0.1-0.2-0.2V118.1z"/>
</g>
<g>
	<path class="st1" d="M23.9,133.3c0-0.1,0.1-0.1,0.1-0.1h0.1c0.1,0,0.1,0,0.1,0.1l2.8,8.3c0,0,0,0,0,0l2.8-8.3
		c0-0.1,0.1-0.1,0.1-0.1h0.1c0.1,0,0.1,0,0.1,0.1l1.9,9.3c0,0.1,0,0.2-0.1,0.2h-0.3c-0.1,0-0.1-0.1-0.2-0.1l-1.5-7.9c0,0,0,0,0,0
		l-2.7,8.1c0,0.1-0.1,0.1-0.2,0.1h-0.1c-0.1,0-0.1,0-0.2-0.1l-2.7-8.1c0,0,0,0,0,0l-1.5,7.9c0,0.1-0.1,0.1-0.2,0.1h-0.3
		c-0.1,0-0.2,0-0.1-0.2L23.9,133.3z"/>
	<path class="st1" d="M36.8,136.4c1.7,0,3.1,1.5,3.1,3.2c0,1.8-1.4,3.3-3.1,3.3c-1.8,0-3.1-1.5-3.1-3.3
		C33.6,137.9,35,136.4,36.8,136.4z M36.8,142.4c1.4,0,2.5-1.2,2.5-2.7c0-1.5-1.1-2.7-2.5-2.7c-1.4,0-2.5,1.2-2.5,2.7
		C34.2,141.2,35.3,142.4,36.8,142.4z"/>
	<path class="st1" d="M41.7,136.7c0-0.1,0.1-0.2,0.2-0.2c0.2,0,0.4,0.3,0.4,0.7v0.2c0.2-0.3,1-0.9,2.2-0.9c1.8,0,2.4,1.1,2.4,2.7
		v3.4c0,0.1-0.1,0.2-0.2,0.2h-0.2c-0.1,0-0.2-0.1-0.2-0.2v-3.4c0-1.4-0.6-2.2-1.8-2.2c-1.3,0-2.1,1-2.1,1.1v4.5
		c0,0.1-0.1,0.2-0.2,0.2h-0.2c-0.1,0-0.2-0.1-0.2-0.2V136.7z"/>
	<path class="st1" d="M51.6,136.4c1.6,0,2.8,1.2,2.8,2.8c0,0.2,0,0.6-0.2,0.6h-5c0,1.4,1.1,2.5,2.4,2.5c0.9,0,1.5-0.4,1.9-0.6
		c0.1-0.1,0.2-0.1,0.3,0l0.1,0.2c0.1,0.1,0,0.2-0.1,0.2c-0.4,0.3-1.3,0.7-2.3,0.7c-1.8,0-3-1.5-3-3.3
		C48.5,137.9,49.7,136.4,51.6,136.4z M53.8,139.3c0-1.2-0.8-2.3-2.2-2.3c-1.4,0-2.3,1-2.4,2.3H53.8z"/>
	<path class="st1" d="M55.2,136.8c-0.1-0.1,0-0.3,0.1-0.3h0.3c0.1,0,0.2,0,0.2,0.1l2.2,5.4h0l2.3-5.4c0-0.1,0.1-0.1,0.2-0.1h0.3
		c0.1,0,0.2,0.1,0.1,0.3l-3.9,9.1c0,0.1-0.1,0.1-0.2,0.1h-0.3c-0.1,0-0.2-0.1-0.1-0.2l1.3-3L55.2,136.8z"/>
	<path class="st1" d="M65.9,133.5c0-0.1,0.1-0.2,0.2-0.2h0.3c0.1,0,0.2,0.1,0.2,0.2v8.7h4.3c0.2,0,0.2,0.1,0.2,0.2v0.2
		c0,0.1-0.1,0.1-0.2,0.1h-4.8c-0.1,0-0.2-0.1-0.2-0.2V133.5z"/>
	<path class="st1" d="M74.6,138.8c0.7,0,1.4,0.2,1.6,0.3c0-1.3-0.3-2.1-1.7-2.1c-0.8,0-1.5,0.4-1.6,0.4c-0.1,0.1-0.2,0-0.2-0.1
		l-0.1-0.2c-0.1-0.1,0-0.2,0.1-0.2c0,0,0.8-0.5,1.9-0.5c1.9,0,2.2,1.2,2.2,2.7v3.5c0,0.1-0.1,0.2-0.2,0.2c-0.2,0-0.4-0.3-0.4-0.7
		v-0.1l0,0c-0.4,0.4-1.2,0.9-2.2,0.9c-1.2,0-2-0.8-2-2.1C72,139.7,72.9,138.8,74.6,138.8z M74.1,142.4c0.9,0,1.8-0.6,2.1-0.9v-1.8
		c-0.2-0.1-0.9-0.3-1.6-0.3c-1.2,0-2,0.6-2,1.6C72.6,141.8,73.2,142.4,74.1,142.4z"/>
	<path class="st1" d="M78.8,136.8c0-0.1,0.1-0.2,0.2-0.2h0.2c0.1,0,0.2,0.1,0.2,0.2v3.5c0,1.4,0.5,2.1,1.8,2.1c1.2,0,1.8-0.9,2-1.2
		v-4.4c0-0.1,0.1-0.2,0.2-0.2h0.2c0.1,0,0.2,0.1,0.2,0.2v5.9c0,0.1-0.1,0.2-0.2,0.2c-0.2,0-0.4-0.3-0.4-0.7V142
		c-0.2,0.2-0.9,0.9-2,0.9c-1.8,0-2.3-0.9-2.3-2.7V136.8z"/>
	<path class="st1" d="M86,136.7c0-0.1,0.1-0.2,0.2-0.2c0.2,0,0.4,0.3,0.4,0.7v0.2c0.2-0.3,1-0.9,2.2-0.9c1.8,0,2.4,1.1,2.4,2.7v3.4
		c0,0.1-0.1,0.2-0.2,0.2h-0.2c-0.1,0-0.2-0.1-0.2-0.2v-3.4c0-1.4-0.6-2.2-1.8-2.2c-1.3,0-2.1,1-2.1,1.1v4.5c0,0.1-0.1,0.2-0.2,0.2
		h-0.2c-0.1,0-0.2-0.1-0.2-0.2V136.7z"/>
	<path class="st1" d="M95.8,136.4c1.2,0,2,0.6,2,0.6v-3.5c0-0.1,0.1-0.2,0.2-0.2h0.2c0.1,0,0.2,0.1,0.2,0.2v9.1
		c0,0.1-0.1,0.2-0.2,0.2c-0.2,0-0.4-0.3-0.4-0.7v-0.1c-0.2,0.2-1,0.9-2.2,0.9c-1.6,0-2.8-1.4-2.8-3.3
		C92.8,137.9,94.1,136.4,95.8,136.4z M95.7,142.4c1.4,0,2.1-1,2.1-1.1v-3.6c0,0-0.8-0.7-1.9-0.7c-1.4,0-2.5,1.2-2.5,2.7
		C93.4,141.1,94.4,142.4,95.7,142.4z"/>
	<path class="st1" d="M103.2,136.4c1.6,0,2.8,1.2,2.8,2.8c0,0.2,0,0.6-0.2,0.6h-5c0,1.4,1.1,2.5,2.4,2.5c0.9,0,1.5-0.4,1.9-0.6
		c0.1-0.1,0.2-0.1,0.3,0l0.1,0.2c0.1,0.1,0,0.2-0.1,0.2c-0.4,0.3-1.3,0.7-2.3,0.7c-1.8,0-3-1.5-3-3.3
		C100.2,137.9,101.4,136.4,103.2,136.4z M105.4,139.3c0-1.2-0.8-2.3-2.2-2.3c-1.4,0-2.3,1-2.4,2.3H105.4z"/>
	<path class="st1" d="M107.8,136.7c0-0.1,0.1-0.2,0.2-0.2c0.2,0,0.4,0.3,0.4,0.7v0.1c0.2-0.2,0.9-0.9,2-0.9c0.5,0,0.9,0.1,1,0.2
		c0.1,0,0.2,0.2,0.2,0.3l-0.1,0.2c0,0.1-0.1,0.1-0.3,0.1c-0.1,0-0.4-0.2-0.8-0.2c-1.2,0-1.8,1-1.9,1.1v4.5c0,0.1-0.1,0.2-0.2,0.2
		h-0.2c-0.1,0-0.2-0.1-0.2-0.2V136.7z"/>
	<path class="st1" d="M112.6,134.3c0-0.3,0.2-0.5,0.5-0.5s0.5,0.2,0.5,0.5c0,0.3-0.2,0.5-0.5,0.5S112.6,134.6,112.6,134.3z
		 M112.8,136.8c0-0.1,0.1-0.2,0.2-0.2h0.2c0.1,0,0.2,0.1,0.2,0.2v5.8c0,0.1-0.1,0.2-0.2,0.2H113c-0.1,0-0.2-0.1-0.2-0.2V136.8z"/>
	<path class="st1" d="M115.6,136.7c0-0.1,0.1-0.2,0.2-0.2c0.2,0,0.4,0.3,0.4,0.7v0.2c0.2-0.3,1-0.9,2.2-0.9c1.8,0,2.3,1.1,2.3,2.7
		v3.4c0,0.1-0.1,0.2-0.2,0.2h-0.2c-0.1,0-0.2-0.1-0.2-0.2v-3.4c0-1.4-0.6-2.2-1.8-2.2c-1.3,0-2.1,1-2.1,1.1v4.5
		c0,0.1-0.1,0.2-0.2,0.2h-0.2c-0.1,0-0.2-0.1-0.2-0.2V136.7z"/>
	<path class="st1" d="M125.2,145.7c-1,0-1.8-0.6-2.1-0.8c-0.1-0.1-0.1-0.1,0-0.2l0.1-0.2c0.1-0.1,0.1-0.1,0.3,0
		c0.2,0.2,0.9,0.6,1.7,0.6c1.2,0,2.2-0.7,2.2-2.2v-0.7c-0.2,0.1-0.9,0.6-1.9,0.6c-1.8,0-3.1-1.4-3.1-3.3c0-1.8,1.2-3.2,3-3.2
		c1.1,0,1.8,0.5,2.1,0.7c0-0.4,0.2-0.6,0.4-0.6c0.1,0,0.2,0.1,0.2,0.2v6.2C128,144.7,126.8,145.7,125.2,145.7z M127.4,137.8
		c-0.1-0.1-0.8-0.8-2-0.8c-1.4,0-2.4,1.2-2.4,2.6c0,1.5,1,2.7,2.5,2.7c1.1,0,1.8-0.7,1.9-0.8V137.8z"/>
</g>
</svg>
