<?xml version="1.0" encoding="utf-8"?>
<!-- Generator: Adobe Illustrator 25.4.1, SVG Export Plug-In . SVG Version: 6.00 Build 0)  -->
<svg version="1.1" id="Layer_1" xmlns="http://www.w3.org/2000/svg" xmlns:xlink="http://www.w3.org/1999/xlink" x="0px" y="0px"
	 viewBox="0 0 485 61.5" style="enable-background:new 0 0 485 61.5;" xml:space="preserve">
<style type="text/css">
	.st0{fill:none;stroke:#FFFFFF;stroke-width:0.3;stroke-miterlimit:10;}
</style>
<g>
	<path class="st0" d="M36.4,2.5c0-0.9,0.8-1.6,1.6-1.6h8c0.9,0,1.6,0.8,1.6,1.6v56.6c0,0.9-0.8,1.6-1.6,1.6h-8
		c-0.9,0-1.6-0.8-1.6-1.6V2.5z"/>
	<path class="st0" d="M61.6,1.5c0-0.9,0.8-1.5,1.6-1.5h1.3c0.6,0,1,0.2,1.5,0.6l34.9,37.2h0.2V2.5c0-0.9,0.7-1.6,1.6-1.6h7.9
		c0.9,0,1.6,0.8,1.6,1.6V60c0,0.9-0.8,1.5-1.6,1.5h-1.2c-0.6,0-1-0.2-1.5-0.6l-35-38.6h-0.2v36.8c0,0.9-0.7,1.6-1.6,1.6h-7.8
		c-0.9,0-1.6-0.8-1.6-1.6V1.5z"/>
	<path class="st0" d="M134.7,11.1h-13.1c-0.9,0-1.6-0.8-1.6-1.6v-7c0-0.9,0.7-1.6,1.6-1.6H159c0.9,0,1.6,0.8,1.6,1.6v7
		c0,0.9-0.7,1.6-1.6,1.6h-13.1v48c0,0.9-0.8,1.6-1.6,1.6h-7.9c-0.9,0-1.6-0.8-1.6-1.6V11.1z"/>
	<path class="st0" d="M168.6,2.5c0-0.9,0.7-1.6,1.6-1.6H205c0.9,0,1.6,0.8,1.6,1.6v7c0,0.9-0.7,1.6-1.6,1.6h-25.3v14h21.1
		c0.9,0,1.6,0.8,1.6,1.6v7.1c0,0.9-0.8,1.6-1.6,1.6h-21.1v15H205c0.9,0,1.6,0.8,1.6,1.6v7c0,0.9-0.7,1.6-1.6,1.6h-34.8
		c-0.9,0-1.6-0.8-1.6-1.6V2.5z"/>
	<path class="st0" d="M243.5,0c7.7,0,15,3,20.9,7.9c0.7,0.7,0.8,1.7,0.1,2.4l-5.3,5.6c-0.7,0.7-1.5,0.7-2.2,0c-3.7-3.2-8.2-5-12.9-5
		c-10.7,0-19.1,9.1-19.1,19.8c0,10.6,8.5,19.6,19.2,19.6c4.8,0,8.5-1.5,10.2-2.1v-7.3h-6.8c-0.9,0-1.6-0.7-1.6-1.5v-6.8
		c0-0.9,0.7-1.6,1.6-1.6h16.4c0.9,0,1.5,0.8,1.5,1.6v21.9c0,0.7-0.3,1.1-0.7,1.4c0,0-8.8,5.6-21.2,5.6c-17,0-30.7-13.5-30.7-30.6
		S226.5,0,243.5,0z"/>
	<path class="st0" d="M277.8,2.5c0-0.9,0.7-1.6,1.6-1.6h24.4c10.3,0,18.6,8.2,18.6,18.4c0,7.9-5.2,14.3-12.6,17.3l11.7,21.7
		c0.6,1.1,0,2.5-1.5,2.5h-9c-0.8,0-1.2-0.4-1.4-0.8l-11.4-22.7h-9.5v21.8c0,0.9-0.8,1.6-1.6,1.6h-7.9c-0.9,0-1.6-0.8-1.6-1.6V2.5z
		 M302.9,28.1c4.5,0,8.5-3.9,8.5-8.7c0-4.5-3.9-8.3-8.5-8.3H289v17H302.9z"/>
	<path class="st0" d="M333.7,2.5c0-0.9,0.8-1.6,1.6-1.6h7.9c0.9,0,1.6,0.8,1.6,1.6v56.6c0,0.9-0.8,1.6-1.6,1.6h-7.9
		c-0.9,0-1.6-0.8-1.6-1.6V2.5z"/>
	<path class="st0" d="M367.4,11.1h-13.1c-0.9,0-1.6-0.8-1.6-1.6v-7c0-0.9,0.7-1.6,1.6-1.6h37.4c0.9,0,1.6,0.8,1.6,1.6v7
		c0,0.9-0.7,1.6-1.6,1.6h-13.1v48c0,0.9-0.8,1.6-1.6,1.6h-8c-0.9,0-1.6-0.8-1.6-1.6V11.1z"/>
	<path class="st0" d="M417.5,31.9L398,3.3c-0.7-1.1,0-2.5,1.4-2.5h8.7c0.7,0,1.1,0.4,1.4,0.8l13.7,19.7l13.7-19.7
		c0.3-0.3,0.7-0.8,1.4-0.8h8.8c1.4,0,2,1.4,1.4,2.5l-19.7,28.5v27.3c0,0.9-0.8,1.6-1.6,1.6h-7.9c-0.9,0-1.6-0.8-1.6-1.6V31.9z"/>
</g>
</svg>
