<?xml version="1.0" encoding="utf-8"?>
<!-- Generator: Adobe Illustrator 25.4.1, SVG Export Plug-In . SVG Version: 6.00 Build 0)  -->
<svg version="1.1" id="Layer_1" xmlns="http://www.w3.org/2000/svg" xmlns:xlink="http://www.w3.org/1999/xlink" x="0px" y="0px"
	 viewBox="0 0 484.7 61.2" style="enable-background:new 0 0 484.7 61.2;" xml:space="preserve">
<style type="text/css">
	.st0{fill:#FFFFFF;}
</style>
<g>
	<path class="st0" d="M39.6,2.8c0-0.8,0.8-1.6,1.6-1.6h7.8c0.8,0,1.6,0.8,1.6,1.6v55.6c0,0.8-0.8,1.6-1.6,1.6h-7.8
		c-0.8,0-1.6-0.8-1.6-1.6V2.8z"/>
	<path class="st0" d="M64.4,1.9c0-0.8,0.8-1.5,1.6-1.5h1.3c0.6,0,1,0.2,1.4,0.6L103,37.5h0.2V2.8c0-0.8,0.7-1.6,1.6-1.6h7.7
		c0.8,0,1.6,0.8,1.6,1.6v56.6c0,0.8-0.8,1.5-1.6,1.5h-1.2c-0.6,0-1-0.2-1.4-0.6l-34.5-38h-0.2v36.1c0,0.8-0.7,1.6-1.6,1.6H66
		c-0.8,0-1.6-0.8-1.6-1.6V1.9z"/>
	<path class="st0" d="M136.4,11.3h-12.9c-0.9,0-1.6-0.8-1.6-1.6V2.8c0-0.8,0.7-1.6,1.6-1.6h36.7c0.9,0,1.6,0.8,1.6,1.6v6.9
		c0,0.8-0.7,1.6-1.6,1.6h-12.9v47.2c0,0.8-0.8,1.6-1.6,1.6H138c-0.8,0-1.6-0.8-1.6-1.6V11.3z"/>
	<path class="st0" d="M169.6,2.8c0-0.8,0.7-1.6,1.6-1.6h34.2c0.9,0,1.6,0.8,1.6,1.6v6.9c0,0.8-0.7,1.6-1.6,1.6h-24.9v13.8h20.8
		c0.8,0,1.6,0.8,1.6,1.6v7c0,0.9-0.8,1.6-1.6,1.6h-20.8v14.7h24.9c0.9,0,1.6,0.8,1.6,1.6v6.9c0,0.8-0.7,1.6-1.6,1.6h-34.2
		c-0.9,0-1.6-0.8-1.6-1.6V2.8z"/>
	<path class="st0" d="M243.4,0.4c7.6,0,14.8,2.9,20.5,7.8c0.7,0.7,0.8,1.7,0.1,2.4l-5.2,5.5c-0.7,0.7-1.4,0.7-2.2,0
		c-3.6-3.2-8.1-4.9-12.7-4.9c-10.5,0-18.8,9-18.8,19.5c0,10.4,8.3,19.2,18.9,19.2c4.7,0,8.3-1.4,10-2.1v-7.1h-6.7
		c-0.9,0-1.6-0.7-1.6-1.5v-6.6c0-0.9,0.7-1.6,1.6-1.6h16.1c0.8,0,1.5,0.8,1.5,1.6V54c0,0.7-0.3,1.1-0.7,1.3c0,0-8.7,5.5-20.8,5.5
		c-16.7,0-30.2-13.3-30.2-30.1C213.2,13.9,226.6,0.4,243.4,0.4z"/>
	<path class="st0" d="M277.1,2.8c0-0.8,0.7-1.6,1.6-1.6h24c10.1,0,18.3,8.1,18.3,18.1c0,7.7-5.1,14-12.4,17l11.5,21.3
		c0.6,1.1,0,2.4-1.4,2.4h-8.8c-0.8,0-1.2-0.4-1.3-0.8L297.3,37H288v21.4c0,0.8-0.8,1.6-1.6,1.6h-7.7c-0.9,0-1.6-0.8-1.6-1.6V2.8z
		 M301.8,28c4.5,0,8.3-3.9,8.3-8.6c0-4.5-3.9-8.2-8.3-8.2h-13.7V28H301.8z"/>
	<path class="st0" d="M332,2.8c0-0.8,0.8-1.6,1.6-1.6h7.8c0.8,0,1.6,0.8,1.6,1.6v55.6c0,0.8-0.8,1.6-1.6,1.6h-7.8
		c-0.8,0-1.6-0.8-1.6-1.6V2.8z"/>
	<path class="st0" d="M365.2,11.3h-12.9c-0.9,0-1.6-0.8-1.6-1.6V2.8c0-0.8,0.7-1.6,1.6-1.6h36.7c0.9,0,1.6,0.8,1.6,1.6v6.9
		c0,0.8-0.7,1.6-1.6,1.6h-12.9v47.2c0,0.8-0.8,1.6-1.6,1.6h-7.8c-0.8,0-1.6-0.8-1.6-1.6V11.3z"/>
	<path class="st0" d="M414.4,31.7L395.3,3.6c-0.7-1.1,0-2.4,1.3-2.4h8.6c0.7,0,1.1,0.4,1.3,0.8L420,21.3L433.4,2
		c0.3-0.3,0.7-0.8,1.3-0.8h8.7c1.3,0,2,1.3,1.3,2.4l-19.4,28v26.8c0,0.8-0.8,1.6-1.6,1.6H416c-0.9,0-1.6-0.8-1.6-1.6V31.7z"/>
</g>
</svg>
