<?xml version="1.0" encoding="utf-8"?>
<!-- Generator: Adobe Illustrator 25.4.1, SVG Export Plug-In . SVG Version: 6.00 Build 0)  -->
<svg version="1.1" id="Layer_1" xmlns="http://www.w3.org/2000/svg" xmlns:xlink="http://www.w3.org/1999/xlink" x="0px" y="0px"
	 viewBox="0 0 221.9 80.6" style="enable-background:new 0 0 221.9 80.6;" xml:space="preserve">
<style type="text/css">
	.st0{fill:none;stroke:#FFFFFF;stroke-width:0.3;stroke-miterlimit:10;}
</style>
<g>
	<path class="st0" d="M0,33.3C0,32.6,0.5,32,1.3,32h27.9c0.8,0,1.3,0.6,1.3,1.3v5.6c0,0.7-0.5,1.3-1.3,1.3H8.9v11.2h16.9
		c0.7,0,1.3,0.6,1.3,1.3v5.7c0,0.8-0.6,1.3-1.3,1.3H8.9v12h20.3c0.8,0,1.3,0.6,1.3,1.3v5.6c0,0.7-0.5,1.3-1.3,1.3H1.3
		c-0.8,0-1.3-0.6-1.3-1.3V33.3z"/>
	<path class="st0" d="M47.3,40.2H36.8c-0.8,0-1.3-0.6-1.3-1.3v-5.6c0-0.7,0.5-1.3,1.3-1.3h29.9c0.8,0,1.3,0.6,1.3,1.3v5.6
		c0,0.7-0.5,1.3-1.3,1.3H56.3v38.4c0,0.7-0.6,1.3-1.3,1.3h-6.4c-0.7,0-1.3-0.6-1.3-1.3V40.2z"/>
	<path class="st0" d="M74.4,33.3c0-0.7,0.6-1.3,1.3-1.3h6.4c0.8,0,1.3,0.6,1.3,1.3v18.2h22.3V33.3c0-0.7,0.5-1.3,1.3-1.3h6.3
		c0.7,0,1.3,0.6,1.3,1.3v45.4c0,0.7-0.6,1.3-1.3,1.3H107c-0.8,0-1.3-0.6-1.3-1.3V59.7H83.4v18.9c0,0.7-0.5,1.3-1.3,1.3h-6.4
		c-0.7,0-1.3-0.6-1.3-1.3V33.3z"/>
	<path class="st0" d="M126,33.3c0-0.7,0.6-1.3,1.3-1.3h6.4c0.7,0,1.3,0.6,1.3,1.3v45.4c0,0.7-0.6,1.3-1.3,1.3h-6.4
		c-0.7,0-1.3-0.6-1.3-1.3V33.3z"/>
	<path class="st0" d="M168,31.3c6.9,0,11.9,2.2,16.6,6.4c0.6,0.5,0.6,1.4,0.1,1.9l-4.2,4.3c-0.5,0.5-1.2,0.5-1.7,0
		c-2.9-2.5-6.7-4-10.5-4c-8.8,0-15.3,7.3-15.3,16c0,8.6,6.6,15.8,15.3,15.8c4.1,0,7.6-1.6,10.5-3.9c0.5-0.5,1.3-0.4,1.7,0l4.2,4.4
		c0.5,0.5,0.4,1.4-0.1,1.9c-4.7,4.5-10.5,6.6-16.6,6.6c-13.7,0-24.7-10.9-24.7-24.6S154.3,31.3,168,31.3z"/>
	<path class="st0" d="M191.1,75.3c-0.7-0.5-1-1-0.3-2.1l2.5-4.2c0.5-1,1.7-1,2.3-0.5c2.8,2.1,5.9,4.2,10.3,4.2
		c3.6,0,6.2-2.3,6.2-5.3c0-3.5-2.9-5.9-8.7-8.2c-6.4-2.6-12.9-6.7-12.9-14.8c0-6.1,4.5-13.2,15.4-13.2c7,0,12.3,3.6,13.7,4.6
		c0.7,0.4,0.9,1.6,0.4,2.3l-2.6,3.9c-0.5,0.8-1.6,1.4-2.4,0.8c-2.9-1.8-5.8-3.8-9.5-3.8c-3.9,0-6,2.2-6,4.8c0,3.2,2.5,5.4,8.1,7.7
		c6.6,2.7,14.3,6.6,14.3,15.5c0,7.1-6.1,13.6-15.8,13.6C197.5,80.6,193.1,77,191.1,75.3z"/>
</g>
</svg>
