<svg xmlns="http://www.w3.org/2000/svg" viewBox="0 0 55.4 55.86"><defs><style>.cls-1{fill:#fff;}</style></defs><g id="Layer_2" data-name="Layer 2"><g id="Layer_1-2" data-name="Layer 1"><path class="cls-1" d="M27.66,7.88V.9a.9.9,0,0,1,1.8,0v7a.9.9,0,0,1-1.8,0Zm8.17,2.35a.83.83,0,0,0,.34.07A.89.89,0,0,0,37,9.74l1.33-3.22a.89.89,0,0,0-.49-1.17.91.91,0,0,0-1.18.49L35.34,9.06A.89.89,0,0,0,35.83,10.23Zm6.79,4.42a.87.87,0,0,0,.64-.27l4.89-4.93a.9.9,0,0,0,0-1.27.91.91,0,0,0-1.28,0L42,13.12a.9.9,0,0,0,0,1.27A.91.91,0,0,0,42.62,14.65Zm3.48,6a.91.91,0,0,0,.83.56,1,1,0,0,0,.35-.07l3.2-1.34a.9.9,0,0,0-.7-1.66l-3.19,1.34A.89.89,0,0,0,46.1,20.6Zm-26-10.86a.91.91,0,0,0,.83.56.84.84,0,0,0,.35-.07.89.89,0,0,0,.49-1.17L20.46,5.84a.9.9,0,1,0-1.66.68ZM55.4,25.13a.89.89,0,0,0-1-.82,102.92,102.92,0,0,0-25.55,5.32A106.17,106.17,0,0,0,1,24.13a.9.9,0,0,0-.1,1.8,103.77,103.77,0,0,1,25.27,4.69A104,104,0,0,0,.36,44.76.9.9,0,0,0,.18,46a.92.92,0,0,0,.72.36.9.9,0,0,0,.54-.18A101.81,101.81,0,0,1,54.57,26.1.9.9,0,0,0,55.4,25.13ZM14.49,23.54A.89.89,0,0,0,15.65,23a13.76,13.76,0,0,1,25.83,0,.89.89,0,0,0,.84.58,1,1,0,0,0,.32-.06.89.89,0,0,0,.52-1.16,15.56,15.56,0,0,0-29.19,0A.89.89,0,0,0,14.49,23.54Zm40.82,15a.91.91,0,0,0-1.21-.41A104.76,104.76,0,0,0,30.19,54.29a.9.9,0,0,0-.07,1.27.89.89,0,0,0,.67.3.87.87,0,0,0,.6-.23A102.86,102.86,0,0,1,54.9,39.7.91.91,0,0,0,55.31,38.49Zm.06-7.57a.9.9,0,0,0-1.08-.67c-16,3.79-30,11.43-44,24a.89.89,0,0,0-.06,1.27.9.9,0,0,0,1.27.07C25.26,43.23,39,35.72,54.71,32A.9.9,0,0,0,55.37,30.92ZM13.86,14.38a.9.9,0,0,0,.64.27.93.93,0,0,0,.64-.26.9.9,0,0,0,0-1.27L10.25,8.18A.9.9,0,0,0,9,9.45ZM6.65,19.75l3.2,1.34a1,1,0,0,0,.34.07.9.9,0,0,0,.35-1.73L7.35,18.09a.9.9,0,0,0-.7,1.66Z"/></g></g></svg>