<svg xmlns="http://www.w3.org/2000/svg" viewBox="0 0 40.32 50.94"><defs><style>.cls-1{fill:#fff;}</style></defs><g id="Layer_2" data-name="Layer 2"><g id="Layer_1-2" data-name="Layer 1"><path class="cls-1" d="M38.78,11.19a1,1,0,0,0-1-.91H29.56V9.65A9.54,9.54,0,0,0,20.16,0a9.54,9.54,0,0,0-9.4,9.65v.63H2.49a1,1,0,0,0-1,.91L0,46.83a4.08,4.08,0,0,0,4,4.11H36.3a4.08,4.08,0,0,0,4-4.16ZM36.3,49H4A2.16,2.16,0,0,1,1.9,46.87L3.4,12.18h7.36V16a.94.94,0,0,0,.75.91,1.77,1.77,0,0,0,1.59,1.9,1.78,1.78,0,0,0,1.59-1.95A1.77,1.77,0,0,0,13.1,14.9a1.27,1.27,0,0,0-.44.08V9.65a7.64,7.64,0,0,1,7.5-7.75,7.64,7.64,0,0,1,7.5,7.75V15a1.27,1.27,0,0,0-.44-.08,1.77,1.77,0,0,0-1.59,1.94,1.78,1.78,0,0,0,1.59,1.95,1.77,1.77,0,0,0,1.59-1.9.94.94,0,0,0,.75-.91v-3.8h7.36l1.5,34.65A2.17,2.17,0,0,1,36.3,49ZM15.37,11.23a1,1,0,0,1,1-1H24a.95.95,0,0,1,0,1.9H16.32A.94.94,0,0,1,15.37,11.23Zm2.57,28.83A.94.94,0,0,1,17,41H15a3.51,3.51,0,0,1-3.07-1.77,3.55,3.55,0,0,1,0-3.58L13,33.81h-.55a.95.95,0,0,1,0-1.89H14.6a.88.88,0,0,1,.49.13.94.94,0,0,1,.42.5l1,1.82a1,1,0,0,1-.36,1.29,1,1,0,0,1-1.3-.37l-.26-.48-1,1.81a1.66,1.66,0,0,0,0,1.67,1.64,1.64,0,0,0,1.43.83h2A1,1,0,0,1,17.94,40.06ZM29,35.57a3.53,3.53,0,0,1,.06,3.62A3.49,3.49,0,0,1,26,41H22.67l.33.49a1,1,0,0,1-.27,1.32,1,1,0,0,1-.53.15,1,1,0,0,1-.79-.42L20.12,40.6a1,1,0,0,1-.17-.52h0v0a1,1,0,0,1,.17-.51l1.29-2a1,1,0,0,1,1.32-.26A.94.94,0,0,1,23,38.62l-.33.49H26a1.67,1.67,0,0,0,1.41-2.54l-1.17-1.91a.95.95,0,0,1,1.62-1Zm-8.72-9.14a1.59,1.59,0,0,0-1.39.83l-1.76,3.07a1,1,0,1,1-1.65-.95l1.76-3.07a3.55,3.55,0,0,1,6.08-.13l1.69,2.45.14-.58a.95.95,0,1,1,1.84.46l-.65,2.62a.93.93,0,0,1-.36.54l-.06,0a1,1,0,0,1-.5.14h-2.6a.95.95,0,0,1,0-1.9h.79l-1.88-2.72A1.58,1.58,0,0,0,20.32,26.43Z"/></g></g></svg>