<svg xmlns="http://www.w3.org/2000/svg" viewBox="0 0 67.13 67.45"><defs><style>.cls-1{fill:#fff;}</style></defs><g id="Layer_2" data-name="Layer 2"><g id="Layer_1-2" data-name="Layer 1"><path class="cls-1" d="M62.8,38.08H59.55v-25a6.53,6.53,0,0,0-4.33-6.15V4.35A4.34,4.34,0,0,0,50.89,0H40.06a4.34,4.34,0,0,0-4.33,4.35V6.53H31.4V4.35A4.34,4.34,0,0,0,27.07,0H16.24a4.34,4.34,0,0,0-4.33,4.35V6.91a6.53,6.53,0,0,0-4.33,6.15v25H4.33A4.34,4.34,0,0,0,0,42.43V59.84a4.34,4.34,0,0,0,4.33,4.35h3.4a4.34,4.34,0,0,0,4.18,3.26H55.22a4.34,4.34,0,0,0,4.18-3.26h3.4a4.34,4.34,0,0,0,4.33-4.35V42.43A4.34,4.34,0,0,0,62.8,38.08ZM7.58,62H4.33a2.17,2.17,0,0,1-2.16-2.17V46.78H7.58Zm0-17.41H2.17V42.43a2.17,2.17,0,0,1,2.16-2.18H7.58ZM37.9,4.35a2.17,2.17,0,0,1,2.16-2.17H50.89a2.17,2.17,0,0,1,2.16,2.17V6.53H46.56V4.35H44.39V6.53H37.9Zm-23.82,0a2.17,2.17,0,0,1,2.16-2.17H27.07a2.17,2.17,0,0,1,2.16,2.17V6.53H22.74V4.35H20.57V6.53H14.08ZM57.39,63.1a2.18,2.18,0,0,1-2.17,2.18H11.91A2.18,2.18,0,0,1,9.74,63.1v-50A4.36,4.36,0,0,1,14.08,8.7h39a4.36,4.36,0,0,1,4.34,4.36ZM65,59.84A2.17,2.17,0,0,1,62.8,62H59.55V46.78H65ZM65,44.6H59.55V40.25H62.8A2.18,2.18,0,0,1,65,42.43Zm-47.65-12H49.81a1.08,1.08,0,0,0,1.08-1.09V12a1.08,1.08,0,0,0-1.08-1.09H17.32A1.08,1.08,0,0,0,16.24,12V31.55A1.08,1.08,0,0,0,17.32,32.64Zm1.09-19.58H48.72v17.4H18.41Zm27.07,2.17H21.65a1.09,1.09,0,0,0-1.08,1.09V27.2a1.09,1.09,0,0,0,1.08,1.09H45.48a1.09,1.09,0,0,0,1.08-1.09V16.32A1.09,1.09,0,0,0,45.48,15.23ZM44.39,26.11H22.74v-8.7H44.39ZM52,37H15.16a3.26,3.26,0,0,0-3.25,3.26V59.84a3.26,3.26,0,0,0,3.25,3.26H52a3.26,3.26,0,0,0,3.25-3.26V40.25A3.26,3.26,0,0,0,52,37Zm1.09,22.85A1.08,1.08,0,0,1,52,60.92H15.16a1.08,1.08,0,0,1-1.08-1.08V45.69h2.16v1.09a3.25,3.25,0,1,0,6.5,0V45.69H53.06ZM18.41,46.78V45.69h2.16v1.09a1.08,1.08,0,1,1-2.16,0Zm34.65-3.26h-39V40.25a1.08,1.08,0,0,1,1.08-1.08H52a1.08,1.08,0,0,1,1.09,1.08ZM41.14,58.75h8.67a1.08,1.08,0,0,0,1.08-1.09V53.31a1.08,1.08,0,0,0-1.08-1.09H41.14a1.09,1.09,0,0,0-1.08,1.09v4.35A1.09,1.09,0,0,0,41.14,58.75Zm1.09-4.35h6.49v2.17H42.23Z"/></g></g></svg>