<svg xmlns="http://www.w3.org/2000/svg" viewBox="0 0 55.4 54.86"><defs><style>.cls-1{fill:#fff;}</style></defs><g id="Layer_2" data-name="Layer 2"><g id="Layer_1-2" data-name="Layer 1"><path class="cls-1" d="M16.46,39.46a5.23,5.23,0,0,0,5.15-4.28h9.62a.9.9,0,1,0,0-1.8H21.61a5.22,5.22,0,1,0-5.15,6.08Zm0-8.56A3.38,3.38,0,1,1,13,34.28,3.4,3.4,0,0,1,16.46,30.9ZM27.7,0A27.6,27.6,0,0,0,0,27.43a.9.9,0,0,0,.9.9H8.68a.9.9,0,0,0,0-1.8H6.47l-.28-4.25,1.31,0a5.17,5.17,0,0,0,2.63-.63l6.17-3.33a9.53,9.53,0,0,1,4.54-1.14h7a6.08,6.08,0,0,1,3.76,1.3l5.43,4.31a7.94,7.94,0,0,0,3.36,1.54L48.5,26a2.09,2.09,0,0,1,1.62,2.66L49,32.2a1.68,1.68,0,0,1-1.62,1.18H44.11a5.18,5.18,0,1,0,0,1.8h3.28a3.47,3.47,0,0,0,3.34-2.45l1.11-3.58A3.84,3.84,0,0,0,51.46,26a3.94,3.94,0,0,0-2.61-1.84L40.77,22.6a6,6,0,0,1-2.59-1.2l-5.43-4.3a7.92,7.92,0,0,0-4.88-1.69h-7a11.42,11.42,0,0,0-5.4,1.36L9.27,20.1a3.45,3.45,0,0,1-1.73.41l-2.29-.06a.91.91,0,0,0-.68.28.94.94,0,0,0-.25.68l.35,5.12H1.82a25.9,25.9,0,0,1,51.78.9A26,26,0,0,1,14.7,49.6a5.74,5.74,0,0,0,.93-3.17,5.81,5.81,0,0,0-1.73-4.15l-2.36-2.34a.92.92,0,0,0-1.27,0l-.75.75L7.59,38.77a.91.91,0,0,0-1.28,0,.9.9,0,0,0,0,1.27L8.24,42l-3,3L3.26,43.05A.9.9,0,0,0,2,44.33l1.92,1.9L3.18,47a.89.89,0,0,0,0,1.28l2.36,2.34h0a6,6,0,0,0,7.93.39A27.76,27.76,0,0,0,55.4,27.43,27.6,27.6,0,0,0,27.7,0ZM39,37.66a3.38,3.38,0,1,1,3.42-3.38A3.4,3.4,0,0,1,39,37.66ZM12.63,49.3a4.15,4.15,0,0,1-5.82,0L5.09,47.6l.55-.54a.72.72,0,0,0,.22-.17,1,1,0,0,0,.16-.2L10,42.78a.89.89,0,0,0,.22-.16,1,1,0,0,0,.16-.21l.56-.56,1.73,1.71a4,4,0,0,1,0,5.74ZM5,31.94,5,30.9a.9.9,0,1,1,1.8-.12l.07,1a1.68,1.68,0,0,0,1.68,1.56h.17a.9.9,0,0,1,0,1.8H8.51A3.49,3.49,0,0,1,5,31.94Z"/></g></g></svg>