<svg xmlns="http://www.w3.org/2000/svg" viewBox="0 0 403.71 18.44"><defs><style>.cls-1{fill:#4b5b6d;}.cls-2{fill:#fff;}.cls-3{fill:#7ac143;}.cls-4{fill:#a6bdd1;}.cls-5{fill:#00539b;}.cls-6{fill:#60b4c3;}</style></defs><g id="Layer_2" data-name="Layer 2"><g id="Layer_1-2" data-name="Layer 1"><path class="cls-1" d="M87.59,11.81l2.49-5.38a.13.13,0,0,1,.13-.09h.08a.15.15,0,0,1,.14.09l2.46,5.38a.14.14,0,0,1-.14.21h-.69a.23.23,0,0,1-.23-.16l-.4-.86H89l-.39.86a.23.23,0,0,1-.23.16h-.7A.14.14,0,0,1,87.59,11.81ZM91,10.11l-.8-1.76h0l-.78,1.76Z"/><path class="cls-1" d="M92.67,8.54c-.06-.11,0-.21.13-.21h.76a.17.17,0,0,1,.16.1l.77,1.82h0l.81-1.82c.05-.09.13-.1.23-.1h.68c.13,0,.19.1.12.21L94.69,12a.18.18,0,0,1-.16.1h0a.2.2,0,0,1-.16-.1Z"/><path class="cls-1" d="M98.12,9.69a2.75,2.75,0,0,1,.71.1.63.63,0,0,0-.69-.7,3.28,3.28,0,0,0-.86.14c-.12,0-.19-.05-.2-.16L97,8.66a.17.17,0,0,1,.12-.23,3.68,3.68,0,0,1,1.08-.18,1.42,1.42,0,0,1,1.57,1.6v2a.17.17,0,0,1-.19.16.54.54,0,0,1-.55-.37,1.67,1.67,0,0,1-1.13.43,1.17,1.17,0,0,1-1.25-1.26C96.65,10.19,97.19,9.69,98.12,9.69Zm0,1.68a.8.8,0,0,0,.66-.4v-.54a1.5,1.5,0,0,0-.54-.11c-.43,0-.66.2-.66.53A.49.49,0,0,0,98.15,11.37Z"/><path class="cls-1" d="M100.76,8.46c0-.08.07-.16.2-.16a.54.54,0,0,1,.57.48,1.5,1.5,0,0,1,1.19-.53c1.18,0,1.48.79,1.48,1.68v1.92A.18.18,0,0,1,104,12h-.65a.18.18,0,0,1-.18-.17V9.93c0-.47-.19-.77-.64-.77a.82.82,0,0,0-.8.57v2.12c0,.13-.05.17-.23.17h-.59a.18.18,0,0,1-.18-.17Z"/><path class="cls-1" d="M106.92,8.25a1.85,1.85,0,0,1,1.38.62c.08.08,0,.18,0,.26l-.34.37c-.08.09-.17.05-.24,0a1,1,0,0,0-.73-.32,1,1,0,0,0-1,1,1,1,0,0,0,1,1,1,1,0,0,0,.78-.41.17.17,0,0,1,.23,0l.36.3c.09.08.13.17.07.26a1.66,1.66,0,0,1-1.47.78,1.93,1.93,0,1,1,0-3.86Z"/><path class="cls-1" d="M110.71,8.25a1.66,1.66,0,0,1,1.7,1.71,2.12,2.12,0,0,1,0,.24.18.18,0,0,1-.17.17h-2.37a.89.89,0,0,0,.92.85,1.2,1.2,0,0,0,.79-.27c.09-.07.19-.08.24,0l.31.42a.15.15,0,0,1,0,.24,2.11,2.11,0,0,1-1.38.5,1.87,1.87,0,0,1-1.87-1.94A1.86,1.86,0,0,1,110.71,8.25Zm.69,1.46a.67.67,0,0,0-.71-.64.72.72,0,0,0-.78.64Z"/><path class="cls-1" d="M113.05,11.77a.16.16,0,0,1,0-.2l.24-.48a.14.14,0,0,1,.22-.06,1.53,1.53,0,0,0,.82.24c.27,0,.4-.1.4-.26s-.21-.32-.69-.52c-.71-.27-1-.6-1-1.16s.42-1.08,1.32-1.08a2,2,0,0,1,1.1.27.21.21,0,0,1,.08.26l-.21.42a.18.18,0,0,1-.23.07,1.78,1.78,0,0,0-.74-.18c-.24,0-.35.12-.35.24s.19.25.53.4c.71.28,1.22.54,1.22,1.28,0,.58-.49,1.1-1.42,1.1A2,2,0,0,1,113.05,11.77Z"/><rect class="cls-2" x="62.31" width="18.44" height="18.44"/><path class="cls-1" d="M26.59,6.46a.14.14,0,0,1,.15-.12h.13a.15.15,0,0,1,.13.08l1.76,3.78h0l1.75-3.78a.17.17,0,0,1,.14-.08h.13a.13.13,0,0,1,.14.12l.95,5.38a.14.14,0,0,1-.15.18H31a.17.17,0,0,1-.15-.12l-.47-3h0L29,12a.15.15,0,0,1-.14.09H28.7a.14.14,0,0,1-.14-.09L27.15,8.87h0l-.46,3a.15.15,0,0,1-.15.12h-.72a.15.15,0,0,1-.15-.18Z"/><path class="cls-1" d="M34.31,8.25A1.66,1.66,0,0,1,36,10a2.12,2.12,0,0,1,0,.24.18.18,0,0,1-.17.17H33.44a.89.89,0,0,0,.92.85,1.18,1.18,0,0,0,.79-.27c.09-.07.19-.08.24,0l.31.42a.15.15,0,0,1,0,.24,2.11,2.11,0,0,1-1.38.5,1.87,1.87,0,0,1-1.87-1.94A1.87,1.87,0,0,1,34.31,8.25ZM35,9.71a.67.67,0,0,0-.71-.64.73.73,0,0,0-.78.64Z"/><path class="cls-1" d="M36.64,9.22a.18.18,0,0,1-.17-.17V8.5a.17.17,0,0,1,.17-.17H37v-1a.18.18,0,0,1,.18-.17h.65A.17.17,0,0,1,38,7.3v1h.87A.17.17,0,0,1,39,8.5v.55a.18.18,0,0,1-.17.17H38v1.49c0,.36.16.5.39.5a1.6,1.6,0,0,0,.48-.08c.1,0,.19,0,.2.09l.11.48a.19.19,0,0,1-.11.22,1.91,1.91,0,0,1-.84.19A1.18,1.18,0,0,1,37,10.78V9.22Z"/><path class="cls-1" d="M41.09,9.69a2.75,2.75,0,0,1,.71.1.63.63,0,0,0-.69-.7,3.28,3.28,0,0,0-.86.14c-.12,0-.19-.05-.21-.16L40,8.66a.18.18,0,0,1,.12-.23,3.75,3.75,0,0,1,1.08-.18,1.43,1.43,0,0,1,1.58,1.6v2c0,.08-.07.16-.2.16a.56.56,0,0,1-.55-.37,1.62,1.62,0,0,1-1.12.43,1.17,1.17,0,0,1-1.25-1.26C39.62,10.19,40.15,9.69,41.09,9.69Zm0,1.68a.8.8,0,0,0,.67-.4v-.54a1.52,1.52,0,0,0-.55-.11c-.42,0-.65.2-.65.53A.49.49,0,0,0,41.11,11.37Z"/><path class="cls-1" d="M43.62,11.77a.16.16,0,0,1,0-.2l.24-.48A.14.14,0,0,1,44,11a1.49,1.49,0,0,0,.81.24c.28,0,.41-.1.41-.26s-.21-.32-.7-.52c-.71-.27-1-.6-1-1.16S44,8.25,44.85,8.25a2.05,2.05,0,0,1,1.1.27.22.22,0,0,1,.08.26l-.21.42a.19.19,0,0,1-.24.07,1.73,1.73,0,0,0-.73-.18c-.25,0-.35.12-.35.24s.18.25.53.4c.71.28,1.22.54,1.22,1.28,0,.58-.5,1.1-1.42,1.1A2,2,0,0,1,43.62,11.77Z"/><rect class="cls-3" width="18.44" height="18.44"/><path class="cls-4" d="M182,18.44a9.22,9.22,0,1,1,9.22-9.22A9.22,9.22,0,0,1,182,18.44"/><path class="cls-1" d="M201.26,6.34a2.72,2.72,0,0,1,1.94.75.14.14,0,0,1,0,.22l-.48.5a.12.12,0,0,1-.2,0,1.94,1.94,0,0,0-1.23-.47,1.86,1.86,0,0,0,0,3.71,2,2,0,0,0,1.23-.45.14.14,0,0,1,.2,0l.49.51a.15.15,0,0,1,0,.22,2.76,2.76,0,0,1-1.94.77,2.88,2.88,0,1,1,0-5.76Z"/><path class="cls-1" d="M205.62,8.25a1.93,1.93,0,1,1-1.88,1.92A1.92,1.92,0,0,1,205.62,8.25Zm0,2.95a1,1,0,0,0,1-1,1,1,0,1,0-1.93,0A1,1,0,0,0,205.62,11.2Z"/><path class="cls-1" d="M208.31,8.46c0-.09.06-.16.19-.16a.55.55,0,0,1,.58.47,1.53,1.53,0,0,1,1.19-.52c1.18,0,1.48.79,1.48,1.68v1.92a.18.18,0,0,1-.18.17h-.64a.18.18,0,0,1-.18-.17V9.93c0-.48-.19-.77-.64-.77a.82.82,0,0,0-.8.57v2.12c0,.13-.06.17-.23.17h-.59a.18.18,0,0,1-.18-.17Z"/><path class="cls-1" d="M212.62,11.77a.17.17,0,0,1,0-.2l.23-.48A.14.14,0,0,1,213,11a1.53,1.53,0,0,0,.82.24c.28,0,.4-.1.4-.26s-.2-.32-.69-.52c-.71-.27-1-.6-1-1.16s.42-1.08,1.32-1.08a2,2,0,0,1,1.1.27.2.2,0,0,1,.08.25l-.21.43a.18.18,0,0,1-.23.07,1.78,1.78,0,0,0-.74-.18c-.24,0-.35.12-.35.24s.19.25.53.4c.71.28,1.22.54,1.22,1.28,0,.58-.49,1.1-1.42,1.1A2,2,0,0,1,212.62,11.77Z"/><path class="cls-1" d="M217.7,8.25a1.93,1.93,0,1,1-1.88,1.92A1.92,1.92,0,0,1,217.7,8.25Zm0,2.95a1,1,0,0,0,1-1,1,1,0,1,0-1.93,0A1,1,0,0,0,217.7,11.2Z"/><path class="cls-1" d="M220.4,6.6a.19.19,0,0,1,.17-.18h.65a.19.19,0,0,1,.18.18v5.25a.18.18,0,0,1-.18.17h-.65a.18.18,0,0,1-.17-.17Z"/><path class="cls-1" d="M222.29,7.06a.62.62,0,0,1,.63-.64.64.64,0,1,1-.63.64Zm.14,1.44a.18.18,0,0,1,.18-.17h.64a.18.18,0,0,1,.18.17v3.35a.18.18,0,0,1-.18.17h-.64a.18.18,0,0,1-.18-.17Z"/><path class="cls-1" d="M226.06,8.25a2.89,2.89,0,0,1,.89.15V6.6a.19.19,0,0,1,.17-.18h.65a.19.19,0,0,1,.18.18v5.29a.17.17,0,0,1-.19.16.55.55,0,0,1-.58-.46,1.6,1.6,0,0,1-1.18.52,1.81,1.81,0,0,1-1.77-1.94A1.81,1.81,0,0,1,226.06,8.25ZM227,9.37a1.44,1.44,0,0,0-.77-.21.93.93,0,0,0-.92,1,.93.93,0,0,0,.87,1,.86.86,0,0,0,.82-.51Z"/><path class="cls-1" d="M230.19,9.69a2.75,2.75,0,0,1,.71.1.63.63,0,0,0-.69-.7,3.28,3.28,0,0,0-.86.14c-.12,0-.19-.05-.21-.16l-.08-.42a.17.17,0,0,1,.12-.22,3.75,3.75,0,0,1,1.08-.18,1.43,1.43,0,0,1,1.58,1.6v2c0,.08-.07.16-.2.16a.55.55,0,0,1-.55-.37,1.62,1.62,0,0,1-1.12.43,1.17,1.17,0,0,1-1.25-1.26C228.72,10.19,229.25,9.69,230.19,9.69Zm0,1.68a.8.8,0,0,0,.67-.4v-.54a1.52,1.52,0,0,0-.55-.11c-.42,0-.65.2-.65.53A.49.49,0,0,0,230.21,11.37Z"/><path class="cls-1" d="M234.44,8.25a2.89,2.89,0,0,1,.89.15V6.6a.18.18,0,0,1,.17-.18h.65a.18.18,0,0,1,.17.18v5.29a.17.17,0,0,1-.19.16.54.54,0,0,1-.57-.46,1.6,1.6,0,0,1-1.19.52,1.81,1.81,0,0,1-1.76-1.94A1.8,1.8,0,0,1,234.44,8.25Zm.89,1.12a1.48,1.48,0,0,0-.77-.21.93.93,0,0,0-.92,1,.92.92,0,0,0,.87,1,.88.88,0,0,0,.82-.51Z"/><path class="cls-1" d="M239,8.25a1.93,1.93,0,1,1-1.88,1.92A1.92,1.92,0,0,1,239,8.25Zm0,2.95a1,1,0,0,0,1-1,1,1,0,1,0-1.93,0A1,1,0,0,0,239,11.2Z"/><path class="cls-1" d="M277.94,6.46a.14.14,0,0,1,.14-.12h.13a.17.17,0,0,1,.14.08l1.76,3.78h0l1.76-3.78a.14.14,0,0,1,.14-.08h.12a.14.14,0,0,1,.15.12l.94,5.38a.13.13,0,0,1-.14.18h-.73a.16.16,0,0,1-.15-.12l-.47-3h0L280.32,12a.12.12,0,0,1-.13.09H280a.13.13,0,0,1-.13-.09l-1.42-3.14h0l-.47,3a.14.14,0,0,1-.14.12h-.72a.14.14,0,0,1-.15-.18Z"/><path class="cls-1" d="M285.65,8.25a1.66,1.66,0,0,1,1.7,1.71,2.12,2.12,0,0,1,0,.24.19.19,0,0,1-.17.17h-2.37a.89.89,0,0,0,.92.85,1.2,1.2,0,0,0,.79-.27c.09-.07.18-.08.24,0l.31.42a.15.15,0,0,1,0,.23,2.06,2.06,0,0,1-1.38.51,1.87,1.87,0,0,1-1.87-1.94A1.86,1.86,0,0,1,285.65,8.25Zm-.81-.84,1.35-.9c.13-.09.33,0,.43.19s.1.41,0,.48l-1.48.67c-.09.05-.2,0-.26-.15S284.78,7.45,284.84,7.41Zm1.5,2.3a.67.67,0,0,0-.71-.64.74.74,0,0,0-.79.64Z"/><path class="cls-1" d="M287.77,11.75l1.17-1.61L287.81,8.6a.16.16,0,0,1,.13-.27h.73a.33.33,0,0,1,.3.12l.62,1h0l.64-1a.29.29,0,0,1,.28-.12h.78c.16,0,.2.15.1.27l-1.13,1.53,1.14,1.62c.09.12,0,.27-.1.27h-.77a.29.29,0,0,1-.26-.15l-.68-1h0l-.72,1.1a.21.21,0,0,1-.15.07h-.84C287.73,12,287.69,11.87,287.77,11.75Z"/><path class="cls-1" d="M292,7.06a.62.62,0,0,1,.63-.64.64.64,0,1,1-.63.64Zm.14,1.44a.18.18,0,0,1,.18-.17H293a.18.18,0,0,1,.17.17v3.35A.18.18,0,0,1,293,12h-.65a.18.18,0,0,1-.18-.17Z"/><path class="cls-1" d="M295.93,8.25a1.83,1.83,0,0,1,1.38.62c.08.08,0,.18,0,.26l-.34.37c-.08.09-.17.05-.24,0a1,1,0,0,0-.73-.32,1,1,0,0,0-1,1,1,1,0,0,0,1,1,1,1,0,0,0,.78-.41.17.17,0,0,1,.23,0l.36.3c.09.08.13.17.07.26a1.66,1.66,0,0,1-1.47.78,1.93,1.93,0,1,1,0-3.86Z"/><path class="cls-1" d="M299.75,8.25a1.93,1.93,0,1,1-1.89,1.92A1.92,1.92,0,0,1,299.75,8.25Zm0,2.95a1,1,0,0,0,1-1,1,1,0,1,0-1.92,0A1,1,0,0,0,299.75,11.2Z"/><path class="cls-5" d="M260.57,18.44a9.22,9.22,0,1,1,9.22-9.22,9.22,9.22,0,0,1-9.22,9.22"/><path class="cls-1" d="M355.61,6.35a2.67,2.67,0,0,1,1.93.74.14.14,0,0,1,0,.22l-.49.51a.12.12,0,0,1-.19,0,1.89,1.89,0,0,0-1.24-.47,1.86,1.86,0,0,0,0,3.71,2,2,0,0,0,1.23-.46.13.13,0,0,1,.19,0l.5.51a.16.16,0,0,1,0,.22,2.76,2.76,0,0,1-1.94.77,2.88,2.88,0,1,1,0-5.75Z"/><path class="cls-1" d="M360,8.25A1.65,1.65,0,0,1,361.64,10a1.94,1.94,0,0,1,0,.24.18.18,0,0,1-.17.17h-2.37a.89.89,0,0,0,.92.85,1.18,1.18,0,0,0,.79-.27c.09-.07.19-.08.24,0l.31.42a.15.15,0,0,1,0,.24,2.11,2.11,0,0,1-1.38.5,1.87,1.87,0,0,1-1.87-1.93A1.87,1.87,0,0,1,360,8.25Zm.68,1.46a.67.67,0,0,0-.71-.64.73.73,0,0,0-.78.64Z"/><path class="cls-1" d="M362.39,8.47a.18.18,0,0,1,.2-.17.55.55,0,0,1,.57.48,1.5,1.5,0,0,1,1.19-.53c1.18,0,1.48.79,1.48,1.69v1.91a.18.18,0,0,1-.17.17H365a.18.18,0,0,1-.18-.17V9.94c0-.48-.19-.78-.64-.78a.81.81,0,0,0-.8.58v2.11c0,.13-.05.17-.23.17h-.59a.18.18,0,0,1-.18-.17Z"/><path class="cls-1" d="M366.67,9.22a.17.17,0,0,1-.16-.17V8.51a.16.16,0,0,1,.16-.18H367v-1a.18.18,0,0,1,.17-.18h.66a.17.17,0,0,1,.16.18v1h.87a.17.17,0,0,1,.17.18v.54a.18.18,0,0,1-.17.17H368v1.49c0,.36.16.51.4.51a1.51,1.51,0,0,0,.47-.09.15.15,0,0,1,.21.09l.1.48a.2.2,0,0,1-.1.22,2,2,0,0,1-.85.19A1.18,1.18,0,0,1,367,10.78V9.22Z"/><path class="cls-1" d="M369.91,8.47a.17.17,0,0,1,.19-.17.56.56,0,0,1,.58.5,1.3,1.3,0,0,1,1-.55c.44,0,.8.12.7.36l-.24.54a.16.16,0,0,1-.22.08.69.69,0,0,0-.34-.07.8.8,0,0,0-.7.38v2.31c0,.13-.09.17-.21.17h-.62a.18.18,0,0,1-.17-.17Z"/><path class="cls-1" d="M374.57,8.25a1.93,1.93,0,1,1-1.89,1.92A1.91,1.91,0,0,1,374.57,8.25Zm0,2.95a1,1,0,0,0,1-1,1,1,0,1,0-1,1Z"/><path class="cls-1" d="M378.47,9.69a2.87,2.87,0,0,1,.72.1.64.64,0,0,0-.7-.69,3.32,3.32,0,0,0-.86.13c-.12,0-.19-.05-.2-.16l-.08-.41a.17.17,0,0,1,.12-.23,3.68,3.68,0,0,1,1.08-.18,1.42,1.42,0,0,1,1.57,1.61v2a.17.17,0,0,1-.19.17.53.53,0,0,1-.55-.38,1.67,1.67,0,0,1-1.13.43A1.17,1.17,0,0,1,377,10.85C377,10.19,377.54,9.69,378.47,9.69Zm0,1.68a.8.8,0,0,0,.66-.39v-.55a1.5,1.5,0,0,0-.54-.11c-.43,0-.66.2-.66.53A.49.49,0,0,0,378.5,11.37Z"/><path class="cls-1" d="M381.11,8.47a.18.18,0,0,1,.2-.17.55.55,0,0,1,.57.46A1.41,1.41,0,0,1,383,8.25a1.27,1.27,0,0,1,1.11.56,1.55,1.55,0,0,1,1.19-.56c1.18,0,1.46.75,1.46,1.71v1.89a.18.18,0,0,1-.18.17h-.64a.18.18,0,0,1-.18-.17V9.94c0-.48-.17-.78-.64-.78a.72.72,0,0,0-.69.38s0,.19,0,.36v1.95a.18.18,0,0,1-.18.17h-.65a.17.17,0,0,1-.18-.17V9.94c0-.48-.13-.78-.6-.78a.73.73,0,0,0-.72.58v2.11a.18.18,0,0,1-.17.17h-.65a.18.18,0,0,1-.18-.17Z"/><path class="cls-1" d="M389.38,8.25A1.65,1.65,0,0,1,391.07,10c0,.06,0,.18,0,.24a.19.19,0,0,1-.18.17h-2.37a.89.89,0,0,0,.92.85,1.23,1.23,0,0,0,.8-.27c.08-.07.18-.08.23,0l.32.42a.16.16,0,0,1,0,.24,2.08,2.08,0,0,1-1.37.5,1.87,1.87,0,0,1-1.88-1.93A1.87,1.87,0,0,1,389.38,8.25Zm-.82-.84,1.35-.9a.32.32,0,0,1,.43.2c.11.2.1.4,0,.47l-1.47.68c-.09,0-.2,0-.27-.15S388.51,7.45,388.56,7.41Zm1.51,2.3a.68.68,0,0,0-.72-.64.74.74,0,0,0-.78.64Z"/><path class="cls-1" d="M391.83,8.47A.17.17,0,0,1,392,8.3a.56.56,0,0,1,.58.5,1.3,1.3,0,0,1,1-.55c.44,0,.8.12.7.36l-.24.54a.16.16,0,0,1-.22.08.69.69,0,0,0-.34-.07.8.8,0,0,0-.7.38v2.31c0,.13-.09.17-.21.17H392a.18.18,0,0,1-.17-.17Z"/><path class="cls-1" d="M394.78,7.06a.62.62,0,0,1,.63-.63.63.63,0,0,1,.64.63.64.64,0,0,1-.64.64A.63.63,0,0,1,394.78,7.06Zm.14,1.45a.18.18,0,0,1,.18-.18h.65a.18.18,0,0,1,.17.18v3.34a.18.18,0,0,1-.17.17h-.65a.18.18,0,0,1-.18-.17Z"/><path class="cls-1" d="M398.68,8.25a1.86,1.86,0,0,1,1.38.62c.08.08,0,.19,0,.27l-.34.36c-.08.09-.17.05-.24,0a1,1,0,0,0-.74-.32,1,1,0,0,0-1,1,1,1,0,0,0,1,1,1,1,0,0,0,.78-.41.17.17,0,0,1,.23,0l.36.3c.09.08.13.17.07.27a1.67,1.67,0,0,1-1.47.77,1.93,1.93,0,1,1,0-3.86Z"/><path class="cls-1" d="M402.07,9.69a2.85,2.85,0,0,1,.71.1.64.64,0,0,0-.7-.69,3.17,3.17,0,0,0-.85.13c-.12,0-.2-.05-.21-.16l-.08-.41a.18.18,0,0,1,.12-.23,3.68,3.68,0,0,1,1.08-.18,1.42,1.42,0,0,1,1.57,1.61v2a.17.17,0,0,1-.19.17.53.53,0,0,1-.55-.38,1.65,1.65,0,0,1-1.13.43,1.18,1.18,0,0,1-1.25-1.26C400.59,10.19,401.13,9.69,402.07,9.69Zm0,1.68a.8.8,0,0,0,.66-.39v-.55a1.44,1.44,0,0,0-.54-.11c-.42,0-.66.2-.66.53A.49.49,0,0,0,402.09,11.37Z"/><path class="cls-6" d="M336.33,18.44a9.22,9.22,0,1,1,9.22-9.22,9.22,9.22,0,0,1-9.22,9.22"/></g></g></svg>