<svg xmlns="http://www.w3.org/2000/svg" viewBox="0 0 714.15 61.54"><defs><style>.cls-1{fill:none;stroke:#fff;stroke-miterlimit:8.95;stroke-width:0.31px;}</style></defs><g id="Layer_2" data-name="Layer 2"><g id="Layer_1-2" data-name="Layer 1"><path class="cls-1" d="M1,54.75C.16,54.07-.18,53.56.58,52.2l3.06-5.27a2,2,0,0,1,2.89-.6C10,49,13.85,51.6,19.37,51.6c4.43,0,7.74-2.89,7.74-6.55,0-4.33-3.65-7.31-10.8-10.2-8-3.23-16-8.33-16-18.37C.33,8.91,5.94.15,19.46.15a30,30,0,0,1,17,5.7A2.12,2.12,0,0,1,37,8.66l-3.24,4.85c-.67,1-2,1.7-3,1C27.11,12.23,23.63,9.85,19,9.85c-4.85,0-7.48,2.72-7.48,6,0,4,3.14,6.72,10,9.53,8.25,3.31,17.77,8.24,17.77,19.21,0,8.76-7.57,16.84-19.56,16.84C9,61.38,3.47,56.87,1,54.75Z"/><path class="cls-1" d="M47.77,2.62A1.68,1.68,0,0,1,49.39,1h8.08a1.62,1.62,0,0,1,1.61,1.62V38.08c0,7.23,4.94,12.25,12.33,12.25s12.42-5,12.42-12.16V2.62A1.62,1.62,0,0,1,85.45,1h8.07a1.68,1.68,0,0,1,1.62,1.62V38.68c0,12.92-10.29,22.7-23.73,22.7S47.77,51.6,47.77,38.68Z"/><path class="cls-1" d="M105.08,54.75c-.85-.68-1.19-1.19-.42-2.55l3.06-5.27a2,2,0,0,1,2.89-.6c3.49,2.64,7.31,5.27,12.84,5.27,4.42,0,7.74-2.89,7.74-6.55,0-4.33-3.66-7.31-10.8-10.2-8-3.23-16-8.33-16-18.37C104.4,8.91,110,.15,123.54.15a30,30,0,0,1,17,5.7,2.1,2.1,0,0,1,.51,2.81l-3.23,4.85c-.68,1-1.95,1.7-3,1-3.66-2.3-7.15-4.68-11.82-4.68-4.85,0-7.49,2.72-7.49,6,0,4,3.15,6.72,10,9.53,8.25,3.31,17.77,8.24,17.77,19.21,0,8.76-7.57,16.84-19.56,16.84C113.08,61.38,107.55,56.87,105.08,54.75Z"/><path class="cls-1" d="M162.06,11.21h-13a1.62,1.62,0,0,1-1.62-1.62v-7A1.62,1.62,0,0,1,149.05,1h37.16a1.62,1.62,0,0,1,1.61,1.62v7a1.62,1.62,0,0,1-1.61,1.62h-13V58.92a1.68,1.68,0,0,1-1.62,1.61h-7.91a1.67,1.67,0,0,1-1.61-1.61Z"/><path class="cls-1" d="M195.81,2.62A1.62,1.62,0,0,1,197.43,1H232a1.62,1.62,0,0,1,1.61,1.62v7A1.62,1.62,0,0,1,232,11.21H206.87v14h21a1.67,1.67,0,0,1,1.62,1.61v7.06a1.62,1.62,0,0,1-1.62,1.61h-21V50.33H232a1.61,1.61,0,0,1,1.61,1.61v7A1.61,1.61,0,0,1,232,60.53H197.43a1.62,1.62,0,0,1-1.62-1.61Z"/><path class="cls-1" d="M243.34,1.68A1.6,1.6,0,0,1,245,.15h1.28a1.84,1.84,0,0,1,1.44.6l34.7,37h.17V2.62A1.62,1.62,0,0,1,284.16,1H292a1.67,1.67,0,0,1,1.61,1.62V59.85A1.59,1.59,0,0,1,292,61.38h-1.2a1.87,1.87,0,0,1-1.44-.59L254.48,22.35h-.17V58.92a1.61,1.61,0,0,1-1.61,1.61H245a1.68,1.68,0,0,1-1.62-1.61Z"/><path class="cls-1" d="M316.22,11.21h-13a1.62,1.62,0,0,1-1.62-1.62v-7A1.62,1.62,0,0,1,303.21,1h37.16A1.62,1.62,0,0,1,342,2.62v7a1.62,1.62,0,0,1-1.61,1.62h-13V58.92a1.68,1.68,0,0,1-1.62,1.61h-7.91a1.67,1.67,0,0,1-1.61-1.61Z"/><path class="cls-1" d="M342.91,58.32,369.36,1.09a1.54,1.54,0,0,1,1.45-.94h.85a1.44,1.44,0,0,1,1.44.94l26.19,57.23a1.5,1.5,0,0,1-1.44,2.21h-7.4a2.45,2.45,0,0,1-2.47-1.7l-4.16-9.18H358.39l-4.17,9.18a2.55,2.55,0,0,1-2.46,1.7h-7.4A1.5,1.5,0,0,1,342.91,58.32Zm36.74-18.11-8.5-18.71h-.26l-8.33,18.71Z"/><path class="cls-1" d="M435.86,30.43c4.93,1.7,10.2,5.7,10.2,13.69,0,9.52-8.16,16.41-18.54,16.41H406.94a1.61,1.61,0,0,1-1.61-1.61V2.62A1.62,1.62,0,0,1,406.94,1h19.48c10.12,0,17.94,6.81,17.94,15.74A15,15,0,0,1,435.86,30ZM425.57,26c4.33,0,7.14-3.41,7.14-7.66s-2.81-7.23-7.14-7.23H416.3V26Zm1.19,24.49a7.45,7.45,0,0,0,7.48-7.74,7.27,7.27,0,0,0-7.48-7.4H416.3V50.5Z"/><path class="cls-1" d="M456.26,2.62A1.68,1.68,0,0,1,457.88,1h7.91a1.67,1.67,0,0,1,1.61,1.62v56.3a1.67,1.67,0,0,1-1.61,1.61h-7.91a1.68,1.68,0,0,1-1.62-1.61Z"/><path class="cls-1" d="M480.41,2.62A1.62,1.62,0,0,1,482,1h7.82a1.67,1.67,0,0,1,1.61,1.62V50.33h21.69a1.61,1.61,0,0,1,1.61,1.61v7a1.61,1.61,0,0,1-1.61,1.61H482a1.62,1.62,0,0,1-1.62-1.61Z"/><path class="cls-1" d="M521.9,2.62A1.68,1.68,0,0,1,523.52,1h7.91A1.67,1.67,0,0,1,533,2.62v56.3a1.67,1.67,0,0,1-1.61,1.61h-7.91a1.68,1.68,0,0,1-1.62-1.61Z"/><path class="cls-1" d="M546.05,2.62A1.6,1.6,0,0,1,547.58,1h20.16a29.77,29.77,0,1,1,0,59.53H547.58a1.6,1.6,0,0,1-1.53-1.61Zm20.67,47.54c11,0,19.13-7.83,19.13-19.48s-8.08-19.39-19.13-19.39H557V50.16Z"/><path class="cls-1" d="M600.05,58.32,626.49,1.09a1.54,1.54,0,0,1,1.45-.94h.85a1.44,1.44,0,0,1,1.44.94l26.2,57.23A1.5,1.5,0,0,1,655,60.53h-7.4a2.44,2.44,0,0,1-2.46-1.7L641,49.65H615.52l-4.16,9.18a2.57,2.57,0,0,1-2.47,1.7h-7.4A1.5,1.5,0,0,1,600.05,58.32Zm36.73-18.11-8.5-18.71H628l-8.33,18.71Z"/><path class="cls-1" d="M662.46,2.62A1.6,1.6,0,0,1,664,1h20.15a29.77,29.77,0,1,1,0,59.53H664a1.6,1.6,0,0,1-1.53-1.61Zm20.66,47.54c11.06,0,19.14-7.83,19.14-19.48s-8.08-19.39-19.14-19.39h-9.69V50.16Z"/></g></g></svg>