<svg xmlns="http://www.w3.org/2000/svg" viewBox="0 0 1166.01 100"><defs><style>.cls-1{fill:#fff;}</style></defs><g id="Layer_2" data-name="Layer 2"><g id="Layer_1-2" data-name="Layer 1"><path class="cls-1" d="M1.39,89.17C0,88.06-.55,87.22.7,85l5-8.61a3.21,3.21,0,0,1,4.72-1c5.69,4.3,11.94,8.61,21,8.61C38.61,84,44,79.31,44,73.33c0-7.08-6-11.94-17.64-16.66C13.33,51.39.28,43.06.28,26.67.28,14.31,9.45,0,31.53,0c14.17,0,25,7.22,27.78,9.31a3.43,3.43,0,0,1,.83,4.58l-5.28,7.92c-1.11,1.66-3.19,2.77-4.86,1.66-6-3.75-11.66-7.64-19.3-7.64-7.92,0-12.23,4.45-12.23,9.73,0,6.52,5.14,11,16.39,15.55,13.48,5.42,29,13.47,29,31.39C63.89,86.81,51.53,100,32,100,14.45,100,5.42,92.64,1.39,89.17Z"/><path class="cls-1" d="M77.78,4a2.73,2.73,0,0,1,2.64-2.64h13.2A2.63,2.63,0,0,1,96.25,4V61.94c0,11.81,8.06,20,20.14,20s20.28-8.19,20.28-19.86V4a2.64,2.64,0,0,1,2.64-2.64H152.5A2.73,2.73,0,0,1,155.14,4V62.92c0,21.11-16.8,37.08-38.75,37.08-21.8,0-38.61-16-38.61-37.08Z"/><path class="cls-1" d="M171.4,89.17c-1.39-1.11-2-2-.7-4.17l5-8.61a3.22,3.22,0,0,1,4.73-1c5.69,4.3,11.94,8.61,21,8.61,7.22,0,12.64-4.72,12.64-10.7,0-7.08-6-11.94-17.64-16.66-13.06-5.28-26.11-13.61-26.11-30C170.29,14.31,179.45,0,201.54,0c14.16,0,25,7.22,27.77,9.31a3.44,3.44,0,0,1,.84,4.58l-5.28,7.92c-1.11,1.66-3.19,2.77-4.86,1.66-6-3.75-11.67-7.64-19.31-7.64-7.91,0-12.22,4.45-12.22,9.73,0,6.52,5.14,11,16.39,15.55,13.47,5.42,29,13.47,29,31.39,0,14.31-12.36,27.5-32,27.5C184.45,100,175.43,92.64,171.4,89.17Z"/><path class="cls-1" d="M264.46,18.06H243.21a2.64,2.64,0,0,1-2.64-2.64V4a2.64,2.64,0,0,1,2.64-2.64H303.9A2.64,2.64,0,0,1,306.54,4V15.42a2.64,2.64,0,0,1-2.64,2.64H282.65V96A2.73,2.73,0,0,1,280,98.61H267.09A2.73,2.73,0,0,1,264.46,96Z"/><path class="cls-1" d="M319.6,4a2.64,2.64,0,0,1,2.64-2.64h56.52A2.64,2.64,0,0,1,381.4,4V15.42a2.64,2.64,0,0,1-2.64,2.64H337.65V40.83H372a2.73,2.73,0,0,1,2.64,2.64V55A2.64,2.64,0,0,1,372,57.64H337.65v24.3h41.11a2.64,2.64,0,0,1,2.64,2.64V96a2.64,2.64,0,0,1-2.64,2.64H322.24A2.64,2.64,0,0,1,319.6,96Z"/><path class="cls-1" d="M397.24,2.5A2.61,2.61,0,0,1,399.88,0H402a3.05,3.05,0,0,1,2.36,1L461,61.39h.28V4a2.63,2.63,0,0,1,2.63-2.64h12.78A2.73,2.73,0,0,1,479.32,4V97.5a2.61,2.61,0,0,1-2.64,2.5h-1.94a3.05,3.05,0,0,1-2.36-1L415.43,36.25h-.28V96a2.63,2.63,0,0,1-2.63,2.64H399.88A2.73,2.73,0,0,1,397.24,96Z"/><path class="cls-1" d="M516.27,18.06H495a2.64,2.64,0,0,1-2.64-2.64V4A2.64,2.64,0,0,1,495,1.39h60.69A2.64,2.64,0,0,1,558.35,4V15.42a2.64,2.64,0,0,1-2.64,2.64H534.46V96a2.73,2.73,0,0,1-2.64,2.64H518.91A2.73,2.73,0,0,1,516.27,96Z"/><path class="cls-1" d="M559.88,95l43.2-93.47A2.48,2.48,0,0,1,605.44,0h1.39a2.36,2.36,0,0,1,2.36,1.53L652,95a2.45,2.45,0,0,1-2.36,3.61H637.52c-2.08,0-3.06-.83-4-2.78l-6.8-15H585.16l-6.81,15a4.17,4.17,0,0,1-4,2.78H562.24A2.45,2.45,0,0,1,559.88,95Zm60-29.58L606,34.86h-.41L592,65.42Z"/><path class="cls-1" d="M711.69,49.44c8.06,2.78,16.67,9.31,16.67,22.37,0,15.55-13.34,26.8-30.28,26.8H664.47A2.64,2.64,0,0,1,661.83,96V4a2.64,2.64,0,0,1,2.64-2.64h31.8c16.53,0,29.31,11.11,29.31,25.69,0,10.42-6.67,18.06-13.89,21.67Zm-16.8-7.22c7.08,0,11.66-5.55,11.66-12.5s-4.58-11.8-11.66-11.8H679.75v24.3Zm1.94,40c6.94,0,12.22-5.41,12.22-12.64A11.87,11.87,0,0,0,696.83,57.5H679.75V82.22Z"/><path class="cls-1" d="M745,4a2.73,2.73,0,0,1,2.64-2.64h12.91A2.73,2.73,0,0,1,763.22,4V96a2.73,2.73,0,0,1-2.64,2.64H747.67A2.73,2.73,0,0,1,745,96Z"/><path class="cls-1" d="M784.47,4a2.64,2.64,0,0,1,2.64-2.64h12.78A2.73,2.73,0,0,1,802.53,4V81.94h35.41a2.64,2.64,0,0,1,2.64,2.64V96a2.64,2.64,0,0,1-2.64,2.64H787.11A2.64,2.64,0,0,1,784.47,96Z"/><path class="cls-1" d="M852.25,4a2.73,2.73,0,0,1,2.64-2.64h12.92A2.73,2.73,0,0,1,870.45,4V96a2.73,2.73,0,0,1-2.64,2.64H854.89A2.73,2.73,0,0,1,852.25,96Z"/><path class="cls-1" d="M891.7,4a2.61,2.61,0,0,1,2.5-2.64h32.91c26.81,0,48.75,21.8,48.75,48.47a48.81,48.81,0,0,1-48.75,48.75H894.2A2.61,2.61,0,0,1,891.7,96Zm33.75,77.64c18,0,31.25-12.78,31.25-31.81S943.5,18.2,925.45,18.2H909.61V81.67Z"/><path class="cls-1" d="M979.89,95l43.2-93.47A2.49,2.49,0,0,1,1025.45,0h1.39a2.35,2.35,0,0,1,2.36,1.53L1072,95a2.45,2.45,0,0,1-2.36,3.61h-12.09c-2.08,0-3-.83-4-2.78l-6.81-15h-41.53l-6.8,15a4.2,4.2,0,0,1-4,2.78H982.26A2.45,2.45,0,0,1,979.89,95Zm60-29.58L1026,34.86h-.42L1012,65.42Z"/><path class="cls-1" d="M1081.84,4a2.61,2.61,0,0,1,2.5-2.64h32.92c26.8,0,48.75,21.8,48.75,48.47a48.81,48.81,0,0,1-48.75,48.75h-32.92a2.61,2.61,0,0,1-2.5-2.64Zm33.75,77.64c18.06,0,31.25-12.78,31.25-31.81s-13.19-31.66-31.25-31.66h-15.83V81.67Z"/></g></g></svg>