<svg xmlns="http://www.w3.org/2000/svg" viewBox="0 0 1166.31 100.3"><defs><style>.cls-1{fill:#fff;}</style></defs><g id="Layer_2" data-name="Layer 2"><g id="Layer_1-2" data-name="Layer 1"><path class="cls-1" d="M32.1,100.3c-18,0-27.2-7.89-30.65-10.87-1.52-1.21-2-2.13-.73-4.35l5-8.62a3.3,3.3,0,0,1,2.22-1.62,3.45,3.45,0,0,1,2.72.61C16.64,80,22.74,84,31.55,84,38.55,84,44,79.4,44,73.48c0-6.6-5.24-11.55-17.54-16.52C15.24,52.41.28,44.34.28,26.82A26,26,0,0,1,7.67,8.74C13.31,3,21.62,0,31.68,0,46.36,0,57.47,7.78,59.55,9.34a3.09,3.09,0,0,1,1.34,2.05,3.6,3.6,0,0,1-.47,2.74L55.14,22c-1.14,1.71-3.3,2.88-5.07,1.71l-1-.65c-5.67-3.58-11-7-18.19-7-8.34,0-12.07,4.81-12.07,9.58,0,6.23,4.72,10.7,16.29,15.41C49.47,46.91,64.2,55.19,64.2,72.65a26,26,0,0,1-8.68,19.23C49.6,97.31,41.29,100.3,32.1,100.3ZM8.61,75.08a3.15,3.15,0,0,0-.61.06,2.93,2.93,0,0,0-2,1.47L1,85.23c-1.2,2.14-.7,2.88.66,4h0c3.43,3,12.53,10.8,30.46,10.8,9.11,0,17.36-3,23.22-8.35a25.66,25.66,0,0,0,8.58-19C63.9,55.36,49.27,47.15,35,41.4c-11.71-4.77-16.48-9.32-16.48-15.69,0-4.92,3.82-9.88,12.37-9.88,7.24,0,12.64,3.41,18.35,7l1,.66c1.6,1.07,3.6,0,4.65-1.63L60.17,14a3.24,3.24,0,0,0,.42-2.51,2.79,2.79,0,0,0-1.21-1.87C57.31,8,46.27.3,31.68.3c-10,0-18.21,3-23.8,8.65A25.68,25.68,0,0,0,.58,26.82c0,17.34,14.85,25.34,26,29.86,12.43,5,17.73,10.05,17.73,16.8,0,6.08-5.61,10.85-12.78,10.85-8.9,0-15-4.09-21.07-8.64A3,3,0,0,0,8.61,75.08Z"/><path class="cls-1" d="M116.55,100.3A39.55,39.55,0,0,1,89,89.63,36.39,36.39,0,0,1,77.79,63.07V4.18a2.9,2.9,0,0,1,2.79-2.79H93.77a2.79,2.79,0,0,1,2.79,2.79V62.09c0,11.88,8,19.85,20,19.85s20.13-8.1,20.13-19.71v-58a2.79,2.79,0,0,1,2.78-2.79h13.2a2.9,2.9,0,0,1,2.79,2.79V63.07a36.34,36.34,0,0,1-11.19,26.56A39.79,39.79,0,0,1,116.55,100.3Zm-36-98.61a2.59,2.59,0,0,0-2.49,2.49V63.07A36.08,36.08,0,0,0,89.17,89.42a40.87,40.87,0,0,0,54.88,0,36,36,0,0,0,11.1-26.35V4.18a2.59,2.59,0,0,0-2.49-2.49h-13.2A2.49,2.49,0,0,0,137,4.18V62.23c0,11.79-8.4,20-20.43,20S96.26,74.15,96.26,62.09V4.18a2.5,2.5,0,0,0-2.49-2.49Z"/><path class="cls-1" d="M202.11,100.3c-18,0-27.2-7.89-30.65-10.87-1.52-1.21-2-2.13-.73-4.35l5-8.62A3.3,3.3,0,0,1,178,74.84a3.45,3.45,0,0,1,2.72.61c6,4.52,12.08,8.58,20.88,8.58,7,0,12.49-4.63,12.49-10.55,0-6.6-5.25-11.55-17.54-16.52-11.25-4.55-26.21-12.62-26.21-30.14a25.91,25.91,0,0,1,7.39-18.08C183.32,3,191.62,0,201.69,0c14.68,0,25.79,7.78,27.87,9.34a3,3,0,0,1,1.33,2.05,3.55,3.55,0,0,1-.46,2.74L225.15,22c-1.14,1.71-3.3,2.88-5.07,1.71l-1-.65c-5.68-3.58-11-7-18.19-7-8.34,0-12.07,4.81-12.07,9.58,0,6.23,4.72,10.7,16.29,15.41,14.4,5.79,29.12,14.07,29.12,31.53a26,26,0,0,1-8.67,19.23C219.61,97.31,211.29,100.3,202.11,100.3ZM178.62,75.08a3.15,3.15,0,0,0-.61.06,2.91,2.91,0,0,0-2,1.47l-5,8.62c-1.21,2.14-.7,2.88.66,4h0c3.43,3,12.52,10.8,30.46,10.8,9.11,0,17.35-3,23.21-8.35a25.62,25.62,0,0,0,8.58-19c0-17.29-14.62-25.5-28.93-31.25-11.71-4.77-16.48-9.32-16.48-15.69,0-4.92,3.82-9.88,12.37-9.88,7.24,0,12.63,3.41,18.35,7l1,.66c1.61,1.07,3.6,0,4.66-1.63L230.18,14a3.24,3.24,0,0,0,.42-2.51,2.86,2.86,0,0,0-1.21-1.87C227.31,8,216.27.3,201.69.3c-10,0-18.21,3-23.8,8.65a25.64,25.64,0,0,0-7.3,17.87c0,17.34,14.85,25.34,26,29.86,12.43,5,17.73,10.05,17.73,16.8,0,6.08-5.62,10.85-12.79,10.85-8.89,0-15-4.09-21.06-8.64A3,3,0,0,0,178.62,75.08Z"/><path class="cls-1" d="M280.17,98.91H267.25a2.9,2.9,0,0,1-2.79-2.79V18.36h-21.1a2.8,2.8,0,0,1-2.79-2.79V4.18a2.79,2.79,0,0,1,2.79-2.79h60.7a2.79,2.79,0,0,1,2.78,2.79V15.57a2.8,2.8,0,0,1-2.78,2.79H283V96.12A2.9,2.9,0,0,1,280.17,98.91ZM243.36,1.69a2.5,2.5,0,0,0-2.49,2.49V15.57a2.5,2.5,0,0,0,2.49,2.49h21.4V96.12a2.59,2.59,0,0,0,2.49,2.49h12.92a2.59,2.59,0,0,0,2.49-2.49V18.06h21.4a2.49,2.49,0,0,0,2.48-2.49V4.18a2.49,2.49,0,0,0-2.48-2.49Z"/><path class="cls-1" d="M378.92,98.91H322.39a2.79,2.79,0,0,1-2.79-2.79V4.18a2.79,2.79,0,0,1,2.79-2.79h56.53a2.79,2.79,0,0,1,2.79,2.79V15.57a2.8,2.8,0,0,1-2.79,2.79H338V40.83h34.15a2.9,2.9,0,0,1,2.79,2.79V55.15a2.79,2.79,0,0,1-2.79,2.79H338v24h41a2.8,2.8,0,0,1,2.79,2.79V96.12A2.79,2.79,0,0,1,378.92,98.91ZM322.39,1.69a2.5,2.5,0,0,0-2.49,2.49V96.12a2.49,2.49,0,0,0,2.49,2.49h56.53a2.49,2.49,0,0,0,2.49-2.49V84.73a2.5,2.5,0,0,0-2.49-2.49H337.66V57.64h34.45a2.49,2.49,0,0,0,2.49-2.49V43.62a2.59,2.59,0,0,0-2.49-2.49H337.66V18.06h41.26a2.5,2.5,0,0,0,2.49-2.49V4.18a2.5,2.5,0,0,0-2.49-2.49Z"/><path class="cls-1" d="M476.84,100.3h-1.95a3.16,3.16,0,0,1-2.46-1L415.52,36.55h-.06V96.12a2.79,2.79,0,0,1-2.79,2.79H400a2.9,2.9,0,0,1-2.79-2.79V2.65A2.76,2.76,0,0,1,400,0h2.08a3.18,3.18,0,0,1,2.47,1l56.63,60.37h.06V4.18a2.79,2.79,0,0,1,2.79-2.79h12.78a2.9,2.9,0,0,1,2.79,2.79V97.65A2.76,2.76,0,0,1,476.84,100.3Zm-61.68-64h.49l.05,0,56.94,62.78a2.92,2.92,0,0,0,2.25.92h1.95a2.46,2.46,0,0,0,2.49-2.35V4.18a2.59,2.59,0,0,0-2.49-2.49H464.06a2.5,2.5,0,0,0-2.49,2.49V61.69h-.49L404.37,1.23A2.9,2.9,0,0,0,402.11.3H400a2.46,2.46,0,0,0-2.49,2.35V96.12A2.59,2.59,0,0,0,400,98.61h12.64a2.49,2.49,0,0,0,2.49-2.49Z"/><path class="cls-1" d="M532,98.91H519.06a2.9,2.9,0,0,1-2.79-2.79V18.36h-21.1a2.8,2.8,0,0,1-2.79-2.79V4.18a2.79,2.79,0,0,1,2.79-2.79h60.7a2.8,2.8,0,0,1,2.79,2.79V15.57a2.8,2.8,0,0,1-2.79,2.79h-21.1V96.12A2.9,2.9,0,0,1,532,98.91ZM495.17,1.69a2.5,2.5,0,0,0-2.49,2.49V15.57a2.5,2.5,0,0,0,2.49,2.49h21.4V96.12a2.59,2.59,0,0,0,2.49,2.49H532a2.59,2.59,0,0,0,2.49-2.49V18.06h21.4a2.5,2.5,0,0,0,2.49-2.49V4.18a2.5,2.5,0,0,0-2.49-2.49Z"/><path class="cls-1" d="M649.76,98.91H637.67c-2.28,0-3.25-1-4.16-2.86l-6.77-14.92H585.41l-6.77,14.92a4.35,4.35,0,0,1-4.16,2.86H562.4a2.78,2.78,0,0,1-2.41-1.2,2.7,2.7,0,0,1-.09-2.62L603.09,1.62A2.65,2.65,0,0,1,605.59,0H607a2.51,2.51,0,0,1,2.5,1.61l42.78,93.48a2.7,2.7,0,0,1-.1,2.62A2.76,2.76,0,0,1,649.76,98.91ZM585.22,80.83h41.72l0,.09,6.8,15c1,2,2,2.69,3.89,2.69h12.09a2.48,2.48,0,0,0,2.15-1.06,2.42,2.42,0,0,0,.07-2.34L609.2,1.74A2.21,2.21,0,0,0,607,.3h-1.39a2.34,2.34,0,0,0-2.23,1.45L560.17,95.21a2.39,2.39,0,0,0,.08,2.34,2.47,2.47,0,0,0,2.15,1.06h12.08a4.09,4.09,0,0,0,3.89-2.68Zm35-15.11H591.89l.09-.21,13.65-30.65h.61l0,.09Zm-27.92-.3H619.8L606.05,35.16h-.22Z"/><path class="cls-1" d="M698.23,98.91H664.62a2.8,2.8,0,0,1-2.79-2.79V4.18a2.8,2.8,0,0,1,2.79-2.79h31.81a31.67,31.67,0,0,1,21,7.41,24.26,24.26,0,0,1,8.5,18.43c0,10.88-7.15,18.37-13.88,21.76v.5c6.27,2.18,16.66,8,16.66,22.47C728.66,87.32,715.58,98.91,698.23,98.91ZM664.62,1.69a2.5,2.5,0,0,0-2.49,2.49V96.12a2.49,2.49,0,0,0,2.49,2.49h33.61c17.18,0,30.13-11.46,30.13-26.65,0-14.37-10.38-20.09-16.56-22.22l-.1,0v-.89l.08,0c6.67-3.34,13.8-10.75,13.8-21.54A23.92,23.92,0,0,0,717.18,9a31.37,31.37,0,0,0-20.75-7.34ZM697,82.52H679.75v-25H697a12,12,0,0,1,12.38,12.23C709.36,77,704,82.52,697,82.52Zm-16.93-.3H697c6.89,0,12.08-5.37,12.08-12.49A11.74,11.74,0,0,0,697,57.8H680.05Zm15-39.7H679.75V17.92H695c7.07,0,11.82,4.8,11.82,12C706.86,37.2,701.89,42.52,695,42.52Zm-15-.3h15c6.67,0,11.52-5.19,11.52-12.35,0-7-4.63-11.65-11.52-11.65h-15Z"/><path class="cls-1" d="M760.74,98.91H747.82A2.9,2.9,0,0,1,745,96.12V4.18a2.9,2.9,0,0,1,2.79-2.79h12.92a2.9,2.9,0,0,1,2.79,2.79V96.12A2.9,2.9,0,0,1,760.74,98.91ZM747.82,1.69a2.59,2.59,0,0,0-2.49,2.49V96.12a2.59,2.59,0,0,0,2.49,2.49h12.92a2.59,2.59,0,0,0,2.49-2.49V4.18a2.59,2.59,0,0,0-2.49-2.49Z"/><path class="cls-1" d="M838.1,98.91H787.27a2.79,2.79,0,0,1-2.79-2.79V4.18a2.79,2.79,0,0,1,2.79-2.79H800a2.9,2.9,0,0,1,2.79,2.79V81.94H838.1a2.8,2.8,0,0,1,2.79,2.79V96.12A2.79,2.79,0,0,1,838.1,98.91ZM787.27,1.69a2.49,2.49,0,0,0-2.49,2.49V96.12a2.48,2.48,0,0,0,2.49,2.49H838.1a2.49,2.49,0,0,0,2.49-2.49V84.73a2.5,2.5,0,0,0-2.49-2.49H802.53V4.18A2.59,2.59,0,0,0,800,1.69Z"/><path class="cls-1" d="M868,98.91H855.05a2.9,2.9,0,0,1-2.79-2.79V4.18a2.9,2.9,0,0,1,2.79-2.79H868a2.9,2.9,0,0,1,2.79,2.79V96.12A2.9,2.9,0,0,1,868,98.91ZM855.05,1.69a2.59,2.59,0,0,0-2.49,2.49V96.12a2.58,2.58,0,0,0,2.49,2.49H868a2.59,2.59,0,0,0,2.49-2.49V4.18A2.59,2.59,0,0,0,868,1.69Z"/><path class="cls-1" d="M927.27,98.91H894.35a2.77,2.77,0,0,1-2.65-2.79V4.18a2.77,2.77,0,0,1,2.65-2.79h32.92a48.76,48.76,0,1,1,0,97.52ZM894.35,1.69A2.46,2.46,0,0,0,892,4.18V96.12a2.46,2.46,0,0,0,2.35,2.49h32.92a48.46,48.46,0,1,0,0-96.92ZM925.6,82h-16V18.2h16C944.09,18.2,957,31.28,957,50S944.09,82,925.6,82Zm-15.68-.3H925.6c18.31,0,31.1-13,31.1-31.66S943.91,18.5,925.6,18.5H909.92Z"/><path class="cls-1" d="M1069.77,98.91h-12.08c-2.29,0-3.26-1-4.16-2.86l-6.77-14.92h-41.34l-6.76,14.92a4.37,4.37,0,0,1-4.17,2.86H982.41a2.76,2.76,0,0,1-2.4-1.2,2.7,2.7,0,0,1-.1-2.62l43.2-93.47A2.63,2.63,0,0,1,1025.6,0H1027a2.51,2.51,0,0,1,2.5,1.61l42.78,93.48a2.67,2.67,0,0,1-.1,2.62A2.75,2.75,0,0,1,1069.77,98.91Zm-64.54-18.08H1047l0,.09,6.81,15c1,2,2,2.69,3.89,2.69h12.08a2.47,2.47,0,0,0,2.15-1.06,2.42,2.42,0,0,0,.08-2.34L1029.22,1.74A2.22,2.22,0,0,0,1027,.3h-1.39a2.32,2.32,0,0,0-2.22,1.45l-43.2,93.46a2.42,2.42,0,0,0,.08,2.34,2.48,2.48,0,0,0,2.15,1.06h12.08a4.09,4.09,0,0,0,3.89-2.68Zm35-15.11H1011.9l.09-.21,13.66-30.65h.61l0,.09Zm-27.92-.3h27.46l-13.76-30.26h-.22Z"/><path class="cls-1" d="M1117.41,98.91H1084.5a2.76,2.76,0,0,1-2.65-2.79V4.18a2.76,2.76,0,0,1,2.65-2.79h32.91a48.76,48.76,0,1,1,0,97.52ZM1084.5,1.69a2.45,2.45,0,0,0-2.35,2.49V96.12a2.45,2.45,0,0,0,2.35,2.49h32.91a48.46,48.46,0,1,0,0-96.92ZM1115.75,82h-16V18.2h16c18.48,0,31.4,13.08,31.4,31.81S1134.23,82,1115.75,82Zm-15.69-.3h15.69c18.31,0,31.1-13,31.1-31.66s-12.79-31.51-31.1-31.51h-15.69Z"/></g></g></svg>