<svg id="Layer_1" data-name="Layer 1" xmlns="http://www.w3.org/2000/svg" viewBox="0 0 1166.22 100.93"><defs><style>.cls-1{fill:#fff;}</style></defs><path class="cls-1" d="M32.43,100.93C14.28,100.93,5.05,93,1.57,90,0,88.71-.59,87.61.76,85.2l5-8.61A3.62,3.62,0,0,1,8.22,74.8a3.8,3.8,0,0,1,3,.67C17.14,80,23.18,84,31.87,84,38.67,84,44,79.5,44,73.78c0-6.43-5.18-11.28-17.31-16.19C15.35,53,.28,44.87.28,27.15.28,14.07,10.21,0,32,0,46.79,0,58,7.83,60.07,9.4a3.47,3.47,0,0,1,1.47,2.26,3.92,3.92,0,0,1-.53,3l-5.27,7.9c-1.23,1.85-3.59,3.11-5.55,1.8l-1-.64c-5.63-3.55-10.94-6.91-18-6.91-8.09,0-11.72,4.63-11.72,9.22,0,6.06,4.66,10.43,16.07,15.08C50,47,64.85,55.29,64.85,73,64.85,86.51,53.49,100.93,32.43,100.93ZM9,75.73a2.56,2.56,0,0,0-.55,0,2.62,2.62,0,0,0-1.78,1.3l-5,8.61c-1.08,1.93-.7,2.5.58,3.53h0c3.4,2.93,12.42,10.7,30.21,10.7,20.41,0,31.42-13.9,31.42-27,0-17.07-14.5-25.2-28.69-30.9-11.86-4.83-16.7-9.47-16.7-16,0-5.09,3.94-10.22,12.72-10.22,7.34,0,12.77,3.43,18.52,7.06l1,.65c1.42.95,3.21-.07,4.17-1.52l5.28-7.91a2.92,2.92,0,0,0,.37-2.24,2.47,2.47,0,0,0-1.05-1.63C57.42,8.66,46.47,1,32,1,17.21,1,1.28,9.18,1.28,27.15c0,17.11,14.72,25,25.78,29.51C39.64,61.75,45,66.87,45,73.78,45,80.06,39.24,85,31.87,85c-9,0-15.19-4.12-21.26-8.71A2.73,2.73,0,0,0,9,75.73Z"/><path class="cls-1" d="M116.82,100.93c-22.28,0-39.09-16.14-39.09-37.56V4.53a3.22,3.22,0,0,1,3.14-3.14H94.06a3.14,3.14,0,0,1,3.13,3.14V62.4c0,11.66,7.89,19.49,19.63,19.49s19.76-8,19.76-19.35v-58a3.15,3.15,0,0,1,3.14-3.14H152.9A3.22,3.22,0,0,1,156,4.53V63.37C156,84.79,139.18,100.93,116.82,100.93ZM80.87,2.39a2.22,2.22,0,0,0-2.14,2.14V63.37c0,20.84,16.38,36.56,38.09,36.56S155,84.21,155,63.37V4.53a2.22,2.22,0,0,0-2.14-2.14H139.72a2.14,2.14,0,0,0-2.14,2.14v58c0,12-8.54,20.35-20.76,20.35S96.19,74.66,96.19,62.4V4.53a2.14,2.14,0,0,0-2.13-2.14Z"/><path class="cls-1" d="M202.32,100.93c-18.15,0-27.38-7.94-30.86-10.94-1.6-1.28-2.16-2.38-.81-4.79l5-8.61a3.62,3.62,0,0,1,2.46-1.79,3.8,3.8,0,0,1,3,.67C187,80,193.07,84,201.76,84c6.81,0,12.13-4.47,12.13-10.19,0-6.43-5.17-11.28-17.31-16.19C185.24,53,170.17,44.87,170.17,27.15,170.17,14.07,180.1,0,201.9,0c14.78,0,26,7.83,28.06,9.4a3.47,3.47,0,0,1,1.47,2.26,3.92,3.92,0,0,1-.53,3l-5.26,7.9c-1.24,1.85-3.6,3.11-5.56,1.8l-1-.64c-5.63-3.55-10.94-6.91-18-6.91-8.09,0-11.71,4.63-11.71,9.22,0,6.06,4.65,10.43,16.06,15.08C219.92,47,234.74,55.29,234.74,73,234.74,86.51,223.38,100.93,202.32,100.93Zm-23.47-25.2a2.56,2.56,0,0,0-.55,0,2.62,2.62,0,0,0-1.78,1.3l-5,8.61c-1.08,1.93-.7,2.5.58,3.53h0c3.4,2.93,12.42,10.7,30.21,10.7,20.41,0,31.42-13.9,31.42-27,0-17.07-14.5-25.2-28.69-30.9-11.86-4.83-16.69-9.47-16.69-16,0-5.09,3.93-10.22,12.71-10.22,7.34,0,12.77,3.43,18.53,7.06l1,.65c1.42.95,3.21-.07,4.17-1.52l5.28-7.91a2.92,2.92,0,0,0,.37-2.24,2.47,2.47,0,0,0-1-1.63C227.31,8.66,216.36,1,201.9,1c-14.8,0-30.73,8.18-30.73,26.15,0,17.11,14.72,25,25.78,29.51,12.58,5.09,17.94,10.21,17.94,17.12,0,6.28-5.76,11.19-13.13,11.19-9,0-15.19-4.12-21.26-8.71A2.73,2.73,0,0,0,178.85,75.73Z"/><path class="cls-1" d="M280.32,99.54h-12.9a3.21,3.21,0,0,1-3.14-3.13V19H243.54a3.13,3.13,0,0,1-3.13-3.13V4.53a3.14,3.14,0,0,1,3.13-3.14H304.2a3.14,3.14,0,0,1,3.13,3.14V15.91A3.13,3.13,0,0,1,304.2,19H283.46V96.41A3.22,3.22,0,0,1,280.32,99.54ZM243.54,2.39a2.13,2.13,0,0,0-2.13,2.14V15.91A2.13,2.13,0,0,0,243.54,18h21.74V96.41a2.22,2.22,0,0,0,2.14,2.13h12.9a2.22,2.22,0,0,0,2.14-2.13V18H304.2a2.14,2.14,0,0,0,2.13-2.13V4.53a2.14,2.14,0,0,0-2.13-2.14Z"/><path class="cls-1" d="M379,99.54H322.52a3.14,3.14,0,0,1-3.14-3.13V4.53a3.15,3.15,0,0,1,3.14-3.14H379a3.15,3.15,0,0,1,3.14,3.14V15.91A3.14,3.14,0,0,1,379,19H338.43V40.81h33.78a3.21,3.21,0,0,1,3.13,3.13V55.46a3.14,3.14,0,0,1-3.13,3.14H338.43V81.89H379A3.15,3.15,0,0,1,382.15,85V96.41A3.14,3.14,0,0,1,379,99.54ZM322.52,2.39a2.14,2.14,0,0,0-2.14,2.14V96.41a2.14,2.14,0,0,0,2.14,2.13H379a2.14,2.14,0,0,0,2.14-2.13V85A2.14,2.14,0,0,0,379,82.89H337.43V57.6h34.78a2.13,2.13,0,0,0,2.13-2.14V43.94a2.21,2.21,0,0,0-2.13-2.13H337.43V18H379a2.14,2.14,0,0,0,2.14-2.13V4.53A2.14,2.14,0,0,0,379,2.39Z"/><path class="cls-1" d="M476.86,100.93h-1.94a3.53,3.53,0,0,1-2.72-1.12L415.87,37.72V96.41a3.13,3.13,0,0,1-3.13,3.13H400.11A3.22,3.22,0,0,1,397,96.41V3a3.11,3.11,0,0,1,3.14-3h2.08a3.49,3.49,0,0,1,2.71,1.12L461,60.88V4.53a3.15,3.15,0,0,1,3.14-3.14h12.77A3.22,3.22,0,0,1,480,4.53v93.4A3.11,3.11,0,0,1,476.86,100.93Zm-62-64.7h1l57.06,62.89a2.51,2.51,0,0,0,2,.81h1.94a2.1,2.1,0,0,0,2.14-2V4.53a2.22,2.22,0,0,0-2.14-2.14H464.09A2.14,2.14,0,0,0,462,4.53V62.35h-1l-.15-.16L404.18,1.81a2.53,2.53,0,0,0-2-.81h-2.08A2.1,2.1,0,0,0,398,3V96.41a2.22,2.22,0,0,0,2.14,2.13h12.63a2.13,2.13,0,0,0,2.13-2.13Z"/><path class="cls-1" d="M532,99.54h-12.9a3.21,3.21,0,0,1-3.14-3.13V19H495.18a3.13,3.13,0,0,1-3.13-3.13V4.53a3.14,3.14,0,0,1,3.13-3.14h60.66A3.14,3.14,0,0,1,559,4.53V15.91A3.13,3.13,0,0,1,555.84,19H535.1V96.41A3.22,3.22,0,0,1,532,99.54ZM495.18,2.39a2.13,2.13,0,0,0-2.13,2.14V15.91A2.13,2.13,0,0,0,495.18,18h21.74V96.41a2.22,2.22,0,0,0,2.14,2.13H532a2.22,2.22,0,0,0,2.14-2.13V18h21.74A2.14,2.14,0,0,0,558,15.91V4.53a2.14,2.14,0,0,0-2.13-2.14Z"/><path class="cls-1" d="M649.66,99.54H637.59c-2.46,0-3.53-1.16-4.47-3.05l-6.68-14.71H585.58l-6.66,14.7a4.71,4.71,0,0,1-4.48,3.06H562.36a3.07,3.07,0,0,1-2.69-1.36,3,3,0,0,1-.12-3L602.71,1.82A3,3,0,0,1,605.53,0h1.38a2.85,2.85,0,0,1,2.81,1.8l42.76,93.43a3,3,0,0,1-.12,3A3.1,3.1,0,0,1,649.66,99.54ZM584.94,80.78h42.14L634,96.06c.94,1.88,1.81,2.48,3.57,2.48h12.07a2.12,2.12,0,0,0,1.86-.9,2.06,2.06,0,0,0,.05-2L608.82,2.24A1.87,1.87,0,0,0,606.91,1h-1.38a2,2,0,0,0-1.92,1.25l-43.15,93.4a2,2,0,0,0,0,2,2.09,2.09,0,0,0,1.85.9h12.08A3.68,3.68,0,0,0,578,96.08Zm35.8-14.41H591.29l14.05-31.53h1.06Zm-27.91-1h26.35l-13.3-29.28Z"/><path class="cls-1" d="M698.11,99.54H664.52a3.14,3.14,0,0,1-3.14-3.13V4.53a3.15,3.15,0,0,1,3.14-3.14H696.3c17,0,29.79,11.25,29.79,26.18,0,10.92-7.12,18.47-13.88,22v0c6.38,2.27,16.65,8.2,16.65,22.7C728.86,87.81,715.64,99.54,698.11,99.54ZM664.52,2.39a2.14,2.14,0,0,0-2.14,2.14V96.41a2.14,2.14,0,0,0,2.14,2.13h33.59c17,0,29.75-11.3,29.75-26.28,0-14.14-10.22-19.78-16.32-21.88l-.33-.11V48.91l.27-.14c6.58-3.29,13.61-10.58,13.61-21.2,0-14.36-12.38-25.18-28.79-25.18Zm32.34,80.78H679.29V57.46h17.57A12.37,12.37,0,0,1,709.57,70C709.57,77.52,704.1,83.17,696.86,83.17Zm-16.57-1h16.57c6.67,0,11.71-5.22,11.71-12.13a11.39,11.39,0,0,0-11.71-11.58H680.29Zm14.62-39H679.29V17.9h15.62c7.28,0,12.16,5,12.16,12.3C707.07,37.73,702,43.19,694.91,43.19Zm-14.62-1h14.62c6.47,0,11.16-5,11.16-12,0-6.76-4.48-11.3-11.16-11.3H680.29Z"/><path class="cls-1" d="M760.57,99.54H747.66a3.22,3.22,0,0,1-3.14-3.13V4.53a3.22,3.22,0,0,1,3.14-3.14h12.91a3.21,3.21,0,0,1,3.13,3.14V96.41A3.21,3.21,0,0,1,760.57,99.54ZM747.66,2.39a2.22,2.22,0,0,0-2.14,2.14V96.41a2.22,2.22,0,0,0,2.14,2.13h12.91a2.21,2.21,0,0,0,2.13-2.13V4.53a2.22,2.22,0,0,0-2.13-2.14Z"/><path class="cls-1" d="M837.87,99.54H787.08a3.14,3.14,0,0,1-3.14-3.13V4.53a3.15,3.15,0,0,1,3.14-3.14h12.77A3.21,3.21,0,0,1,803,4.53V81.89h34.89A3.15,3.15,0,0,1,841,85V96.41A3.14,3.14,0,0,1,837.87,99.54ZM787.08,2.39a2.14,2.14,0,0,0-2.14,2.14V96.41a2.14,2.14,0,0,0,2.14,2.13h50.79A2.14,2.14,0,0,0,840,96.41V85a2.14,2.14,0,0,0-2.14-2.14H802V4.53a2.22,2.22,0,0,0-2.13-2.14Z"/><path class="cls-1" d="M867.72,99.54H854.81a3.22,3.22,0,0,1-3.14-3.13V4.53a3.22,3.22,0,0,1,3.14-3.14h12.91a3.21,3.21,0,0,1,3.13,3.14V96.41A3.21,3.21,0,0,1,867.72,99.54ZM854.81,2.39a2.22,2.22,0,0,0-2.14,2.14V96.41a2.22,2.22,0,0,0,2.14,2.13h12.91a2.21,2.21,0,0,0,2.13-2.13V4.53a2.22,2.22,0,0,0-2.13-2.14Z"/><path class="cls-1" d="M927,99.54H894.09a3.1,3.1,0,0,1-3-3.13V4.53a3.11,3.11,0,0,1,3-3.14H927a49.08,49.08,0,1,1,0,98.15ZM894.09,2.39a2.1,2.1,0,0,0-2,2.14V96.41a2.1,2.1,0,0,0,2,2.13H927a48.08,48.08,0,1,0,0-96.15Zm31.23,80.22H909V18.18h16.32c18.68,0,31.73,13.22,31.73,32.15S944,82.61,925.32,82.61Zm-15.32-1h15.32c18.09,0,30.73-12.86,30.73-31.28s-12.64-31.15-30.73-31.15H910Z"/><path class="cls-1" d="M1069.39,99.54h-12.08c-2.45,0-3.53-1.16-4.47-3.05l-6.67-14.71h-40.86l-6.67,14.7a4.69,4.69,0,0,1-4.48,3.06H982.09a3.1,3.1,0,0,1-2.7-1.36,3,3,0,0,1-.12-3l43.17-93.41A3,3,0,0,1,1025.25,0h1.39a2.86,2.86,0,0,1,2.81,1.8l42.75,93.43a3,3,0,0,1-.12,3A3.07,3.07,0,0,1,1069.39,99.54Zm-64.72-18.76h42.14l6.93,15.28c.94,1.88,1.81,2.48,3.57,2.48h12.08a2.09,2.09,0,0,0,1.85-.9,2,2,0,0,0,0-2L1028.54,2.24a1.85,1.85,0,0,0-1.9-1.24h-1.39a2,2,0,0,0-1.91,1.25l-43.16,93.4a2,2,0,0,0,.05,2,2.12,2.12,0,0,0,1.86.9h12.07a3.67,3.67,0,0,0,3.56-2.46Zm35.79-14.41H1011l14-31.53h1.06Zm-27.9-1h26.35L1025.6,36.09Z"/><path class="cls-1" d="M1117,99.54h-32.9a3.1,3.1,0,0,1-3-3.13V4.53a3.1,3.1,0,0,1,3-3.14H1117a49.08,49.08,0,1,1,0,98.15ZM1084.1,2.39a2.1,2.1,0,0,0-2,2.14V96.41a2.09,2.09,0,0,0,2,2.13H1117a48.08,48.08,0,1,0,0-96.15Zm31.23,80.22H1099V18.18h16.32c18.68,0,31.73,13.22,31.73,32.15S1134,82.61,1115.33,82.61Zm-15.32-1h15.32c18.1,0,30.73-12.86,30.73-31.28s-12.63-31.15-30.73-31.15H1100Z"/></svg>