<?xml version="1.0" encoding="utf-8"?>
<!-- Generator: Adobe Illustrator 26.0.3, SVG Export Plug-In . SVG Version: 6.00 Build 0)  -->
<svg version="1.1" id="Capa_1" xmlns="http://www.w3.org/2000/svg" xmlns:xlink="http://www.w3.org/1999/xlink" x="0px" y="0px"
	 viewBox="0 0 1166.3 100.3" style="enable-background:new 0 0 1166.3 100.3;" xml:space="preserve">
<style type="text/css">
	.st0{fill:#FFFFFF;}
</style>
<g id="Layer_2_00000162334017001004488960000004123179263060094852_">
	<g id="Layer_2-2">
		<path class="st0" d="M1.4,89.2C0,88.1-0.6,87.2,0.7,85l5-8.6c0.9-1.5,2.8-2.1,4.4-1.2c0.1,0.1,0.2,0.1,0.3,0.2
			c5.7,4.3,11.9,8.6,21,8.6C38.6,84,44,79.3,44,73.3c0-7.1-6-11.9-17.6-16.7c-13-5.3-26.1-13.6-26.1-30C0.3,14.3,9.4,0,31.5,0
			c14.2,0,25,7.2,27.8,9.3c1.4,1.1,1.8,3.1,0.8,4.6l-5.3,7.9c-1.1,1.7-3.2,2.8-4.9,1.7c-6-3.8-11.7-7.6-19.3-7.6
			c-7.9,0-12.2,4.5-12.2,9.7c0,6.5,5.1,11,16.4,15.6c13.5,5.4,29,13.5,29,31.4C63.9,86.8,51.5,100,32,100
			C14.4,100,5.4,92.6,1.4,89.2z"/>
		<path class="st0" d="M78.7,4c0-1.4,1.2-2.6,2.6-2.6h13.2c1.5,0,2.6,1.2,2.6,2.6v57.9c0,11.8,8.1,20,20.1,20s20.3-8.2,20.3-19.9V4
			c0-1.5,1.2-2.6,2.6-2.6h13.2c1.4,0.1,2.6,1.2,2.6,2.6v58.9c0,21.1-16.8,37.1-38.8,37.1c-21.8,0-38.6-16-38.6-37.1V4z"/>
		<path class="st0" d="M173.5,89.2c-1.4-1.1-1.9-2-0.7-4.2l5-8.6c0.9-1.5,2.8-2.1,4.4-1.2c0.1,0.1,0.2,0.1,0.3,0.2
			c5.7,4.3,12,8.6,21,8.6c7.2,0,12.6-4.7,12.6-10.7c0-7.1-6-11.9-17.6-16.7c-13-5.3-26.1-13.6-26.1-30c0-12.3,9.1-26.6,31.2-26.6
			c14.2,0,25,7.2,27.8,9.3c1.4,1.1,1.8,3.1,0.8,4.6l-5.2,7.9c-1.1,1.7-3.2,2.8-4.9,1.7c-6-3.8-11.7-7.6-19.3-7.6
			c-7.9,0-12.2,4.4-12.2,9.7c0,6.5,5.1,11,16.4,15.6c13.5,5.4,29,13.5,29,31.4c0,14.3-12.4,27.5-32,27.5
			C186.5,100,177.5,92.6,173.5,89.2z"/>
		<path class="st0" d="M268,18h-21.2c-1.5,0-2.6-1.2-2.6-2.6c0,0,0,0,0,0V4c0-1.5,1.2-2.6,2.6-2.6h60.7c1.5,0,2.6,1.2,2.6,2.6
			c0,0,0,0,0,0v11.4c0,1.5-1.2,2.6-2.6,2.6c0,0,0,0,0,0h-21.2V96c0,1.4-1.2,2.6-2.6,2.6h-12.9c-1.4,0-2.6-1.2-2.6-2.6V18z"/>
		<path class="st0" d="M323,4c0-1.5,1.2-2.6,2.6-2.6l0,0h56.5c1.4,0,2.6,1.2,2.6,2.6v11.4c0,1.5-1.2,2.6-2.6,2.6l0,0H341v22.8h34.3
			c1.5,0,2.6,1.2,2.7,2.6V55c0,1.5-1.2,2.6-2.6,2.6l0,0H341v24.3h41.1c1.5,0,2.6,1.2,2.6,2.6c0,0,0,0,0,0V96c0,1.5-1.2,2.6-2.6,2.6
			c0,0,0,0,0,0h-56.5c-1.5,0-2.6-1.2-2.6-2.6V4z"/>
		<path class="st0" d="M403,2.5c0.1-1.4,1.2-2.5,2.6-2.5h2.1c0.9,0,1.8,0.3,2.4,1l56.7,60.4h0.3V4c0-1.5,1.2-2.6,2.6-2.6l0,0h12.8
			c1.4,0,2.6,1.2,2.6,2.6v93.5c-0.1,1.4-1.2,2.5-2.6,2.5h-2c-0.9,0-1.8-0.3-2.4-1l-56.9-62.8h-0.3V96c0,1.5-1.2,2.6-2.6,2.6l0,0
			h-12.6c-1.4-0.1-2.6-1.2-2.6-2.6V2.5z"/>
		<path class="st0" d="M521.9,18h-21.3c-1.5,0-2.6-1.2-2.6-2.6c0,0,0,0,0,0V4c0-1.5,1.2-2.6,2.6-2.6l0,0h60.7c1.5,0,2.7,1.2,2.7,2.6
			c0,0,0,0,0,0v11.4c0,1.5-1.2,2.6-2.6,2.6c0,0,0,0,0,0h-21.3V96c0,1.4-1.2,2.6-2.6,2.6h-12.9c-1.4,0-2.6-1.2-2.6-2.6V18z"/>
		<path class="st0" d="M559.1,95l43.2-93.5c0.4-0.9,1.3-1.6,2.4-1.5h1.4c1-0.1,2,0.6,2.4,1.5L651.2,95c0.6,1.2,0.2,2.7-1,3.3
			c-0.4,0.2-0.9,0.3-1.4,0.3h-12.1c-2.1,0-3.1-0.8-4-2.8l-6.8-15h-41.6l-6.8,15c-0.6,1.7-2.2,2.8-4,2.8h-12.1
			c-1.3,0.1-2.5-0.9-2.6-2.2C558.8,95.9,558.9,95.4,559.1,95z M619.1,65.4l-13.9-30.6h-0.4l-13.6,30.6H619.1z"/>
		<path class="st0" d="M712.6,49.4c8.1,2.8,16.7,9.3,16.7,22.4c0,15.6-13.3,26.8-30.3,26.8h-33.6c-1.4,0-2.6-1.2-2.6-2.6V4
			c0-1.5,1.2-2.6,2.6-2.6l0,0h31.8c16.5,0,29.3,11.1,29.3,25.7c0,10.4-6.7,18.1-13.9,21.7V49.4z M695.8,42.2
			c7.1,0,11.7-5.5,11.7-12.5s-4.6-11.8-11.7-11.8h-15.1v24.3L695.8,42.2z M697.7,82.2c7,0,12.2-5.4,12.2-12.6
			c0.1-6.5-5.1-12-11.6-12.1c-0.2,0-0.4,0-0.6,0h-17.1v24.7H697.7z"/>
		<path class="st0" d="M747.6,4c0-1.4,1.2-2.6,2.6-2.6h12.9c1.4,0,2.6,1.2,2.6,2.6v92c0,1.4-1.2,2.6-2.6,2.6h-12.9
			c-1.4,0-2.6-1.2-2.6-2.6V4z"/>
		<path class="st0" d="M788.5,4c0-1.5,1.2-2.6,2.6-2.6l0,0H804c1.4,0.1,2.5,1.2,2.6,2.6v77.9H842c1.5,0,2.6,1.2,2.6,2.6c0,0,0,0,0,0
			V96c0,1.4-1.2,2.6-2.6,2.6h-50.8c-1.4,0-2.6-1.2-2.6-2.6V4z"/>
		<path class="st0" d="M856.8,4c0-1.4,1.2-2.6,2.6-2.6h12.9c1.4,0.1,2.6,1.2,2.6,2.6v92c0,1.4-1.2,2.6-2.6,2.6h-12.9
			c-1.4-0.1-2.6-1.2-2.6-2.6V4z"/>
		<path class="st0" d="M897.8,4c0-1.4,1.1-2.6,2.5-2.6h32.9c26.8,0,48.8,21.8,48.8,48.5c0,26.9-21.8,48.7-48.8,48.8h-32.9
			c-1.4-0.1-2.5-1.2-2.5-2.6V4z M931.5,81.6c18,0,31.2-12.8,31.2-31.8s-13.2-31.7-31.2-31.7h-15.8v63.5L931.5,81.6z"/>
		<path class="st0" d="M983,95l43.2-93.5c0.4-0.9,1.3-1.6,2.4-1.5h1.4c1-0.1,2,0.6,2.4,1.5l42.8,93.5c0.6,1.2,0.2,2.7-1,3.3
			c-0.4,0.2-0.9,0.3-1.4,0.3h-12.1c-2.1,0-3.1-0.8-4-2.8l-6.8-15h-41.5l-6.8,15c-0.6,1.7-2.2,2.8-4,2.8h-12.1
			c-1.3,0.1-2.5-0.9-2.6-2.2C982.7,95.9,982.8,95.4,983,95z M1043,65.4l-13.9-30.6h-0.4l-13.6,30.6H1043z"/>
		<path class="st0" d="M1086.6,4c0-1.4,1.1-2.6,2.5-2.6h32.9c26.8,0,48.8,21.8,48.8,48.5c0,26.9-21.8,48.7-48.8,48.8h-32.9
			c-1.4-0.1-2.5-1.2-2.5-2.6L1086.6,4z M1120.4,81.6c18.1,0,31.2-12.8,31.2-31.8s-13.2-31.7-31.2-31.7h-15.8v63.5L1120.4,81.6z"/>
	</g>
</g>
</svg>
