<svg xmlns="http://www.w3.org/2000/svg" viewBox="0 0 1167.01 101"><defs><style>.cls-1{fill:#fff;}</style></defs><g id="Layer_2" data-name="Layer 2"><g id="Layer_1-2" data-name="Layer 1"><path class="cls-1" d="M32.45,101c-18.16,0-27.39-8-30.88-11C0,88.77-.59,87.67.76,85.26l5-8.62a3.61,3.61,0,0,1,2.45-1.79,3.82,3.82,0,0,1,3,.67C17.15,80,23.2,84,31.89,84,38.7,84,44,79.55,44,73.83c0-6.44-5.18-11.28-17.32-16.2C15.36,53,.28,44.9.28,27.17.28,14.08,10.22,0,32,0,46.82,0,58,7.84,60.11,9.41a3.45,3.45,0,0,1,1.47,2.25,3.93,3.93,0,0,1-.53,3l-5.27,7.9c-1.23,1.85-3.6,3.11-5.55,1.81l-1-.65c-5.63-3.55-11-6.91-18-6.91-8.1,0-11.72,4.64-11.72,9.23,0,6.06,4.66,10.44,16.08,15.09C50.06,47,64.89,55.33,64.89,73,64.89,86.57,53.52,101,32.45,101ZM9,75.78a3.31,3.31,0,0,0-.55,0,2.61,2.61,0,0,0-1.79,1.31l-5,8.61c-1.08,1.93-.7,2.5.58,3.53h0C5.62,92.22,14.65,100,32.45,100c20.42,0,31.44-13.91,31.44-27,0-17.08-14.51-25.22-28.71-30.92-11.86-4.84-16.7-9.48-16.7-16,0-5.09,3.93-10.23,12.72-10.23,7.34,0,12.78,3.44,18.54,7.07l1,.65C52.2,24.5,54,23.47,55,22l5.28-7.92a2.92,2.92,0,0,0,.37-2.24,2.47,2.47,0,0,0-1.05-1.63C57.46,8.67,46.51,1,32,1,17.22,1,1.28,9.19,1.28,27.17,1.28,44.29,16,52.23,27.08,56.7c12.58,5.1,18,10.22,18,17.13C45,80.11,39.26,85,31.89,85c-9,0-15.2-4.12-21.27-8.71A2.72,2.72,0,0,0,9,75.78Z"/><path class="cls-1" d="M116.9,101c-22.3,0-39.11-16.16-39.11-37.58V4.53a3.22,3.22,0,0,1,3.13-3.14h13.2a3.15,3.15,0,0,1,3.14,3.14V62.45c0,11.66,7.89,19.5,19.64,19.5s19.77-8,19.77-19.37v-58a3.15,3.15,0,0,1,3.14-3.14H153a3.23,3.23,0,0,1,3.14,3.14V63.42C156.15,84.84,139.27,101,116.9,101Zm-36-98.61a2.22,2.22,0,0,0-2.13,2.14V63.42C78.79,84.27,95.17,100,116.9,100s38.25-15.73,38.25-36.58V4.53A2.22,2.22,0,0,0,153,2.39h-13.2a2.14,2.14,0,0,0-2.14,2.14V62.58c0,12-8.54,20.37-20.77,20.37s-20.64-8.24-20.64-20.5V4.53a2.14,2.14,0,0,0-2.14-2.14Z"/><path class="cls-1" d="M202.46,101c-18.17,0-27.4-8-30.88-11-1.6-1.28-2.17-2.38-.81-4.79l5-8.62a3.62,3.62,0,0,1,2.46-1.79,3.83,3.83,0,0,1,3,.67C187.16,80,193.21,84,201.9,84c6.81,0,12.14-4.48,12.14-10.2,0-6.44-5.18-11.28-17.33-16.2C185.37,53,170.29,44.9,170.29,27.17,170.29,14.08,180.23,0,202,0c14.79,0,26,7.84,28.08,9.41a3.4,3.4,0,0,1,1.46,2.25,3.89,3.89,0,0,1-.52,3l-5.27,7.9c-1.23,1.85-3.6,3.11-5.56,1.81l-1-.65c-5.63-3.55-11-6.91-18-6.91-8.1,0-11.73,4.64-11.73,9.23,0,6.06,4.66,10.44,16.08,15.09C220.07,47,234.9,55.33,234.9,73,234.9,86.57,223.53,101,202.46,101ZM179,75.78a3.41,3.41,0,0,0-.55,0,2.61,2.61,0,0,0-1.78,1.31l-5,8.61c-1.09,1.93-.71,2.5.57,3.53h0c3.4,2.93,12.42,10.71,30.23,10.71,20.42,0,31.44-13.91,31.44-27,0-17.08-14.51-25.22-28.71-30.92-11.87-4.84-16.71-9.48-16.71-16,0-5.09,3.94-10.23,12.73-10.23,7.34,0,12.78,3.44,18.53,7.07l1,.65c1.43.95,3.21-.08,4.18-1.52l5.28-7.92a2.92,2.92,0,0,0,.37-2.24,2.47,2.47,0,0,0-1.05-1.63C227.47,8.67,216.51,1,202,1c-14.81,0-30.75,8.19-30.75,26.17,0,17.12,14.72,25.06,25.8,29.53C209.67,61.8,215,66.92,215,73.83c0,6.28-5.77,11.2-13.14,11.2-9,0-15.2-4.12-21.27-8.71A2.73,2.73,0,0,0,179,75.78Z"/><path class="cls-1" d="M280.51,99.61H267.6a3.23,3.23,0,0,1-3.14-3.14V19.06H243.71a3.15,3.15,0,0,1-3.14-3.14V4.53a3.15,3.15,0,0,1,3.14-3.14H304.4a3.15,3.15,0,0,1,3.14,3.14V15.92a3.15,3.15,0,0,1-3.14,3.14H283.65V96.47A3.22,3.22,0,0,1,280.51,99.61ZM243.71,2.39a2.14,2.14,0,0,0-2.14,2.14V15.92a2.14,2.14,0,0,0,2.14,2.14h21.75V96.47a2.22,2.22,0,0,0,2.14,2.14h12.91a2.22,2.22,0,0,0,2.14-2.14V18.06H304.4a2.14,2.14,0,0,0,2.14-2.14V4.53a2.14,2.14,0,0,0-2.14-2.14Z"/><path class="cls-1" d="M379.27,99.61H322.74a3.15,3.15,0,0,1-3.14-3.14V4.53a3.15,3.15,0,0,1,3.14-3.14h56.53a3.15,3.15,0,0,1,3.14,3.14V15.92a3.15,3.15,0,0,1-3.14,3.14H338.66V40.83h33.8A3.23,3.23,0,0,1,375.6,44V55.5a3.15,3.15,0,0,1-3.14,3.14h-33.8V82h40.61a3.14,3.14,0,0,1,3.14,3.13V96.47A3.15,3.15,0,0,1,379.27,99.61ZM322.74,2.39a2.14,2.14,0,0,0-2.14,2.14V96.47a2.14,2.14,0,0,0,2.14,2.14h56.53a2.14,2.14,0,0,0,2.14-2.14V85.08A2.13,2.13,0,0,0,379.27,83H337.66V57.64h34.8a2.14,2.14,0,0,0,2.14-2.14V44a2.22,2.22,0,0,0-2.14-2.14h-34.8V18.06h41.61a2.14,2.14,0,0,0,2.14-2.14V4.53a2.14,2.14,0,0,0-2.14-2.14Z"/><path class="cls-1" d="M477.19,101h-1.95a3.49,3.49,0,0,1-2.71-1.12L416.16,37.74V96.47A3.15,3.15,0,0,1,413,99.61H400.38a3.23,3.23,0,0,1-3.14-3.14V3a3.11,3.11,0,0,1,3.14-3h2.08a3.53,3.53,0,0,1,2.72,1.12l56.09,59.8V4.53a3.15,3.15,0,0,1,3.14-3.14h12.78a3.22,3.22,0,0,1,3.13,3.14V98A3.1,3.1,0,0,1,477.19,101Zm-62-64.75h1l57.09,62.94a2.53,2.53,0,0,0,2,.81h1.95a2.1,2.1,0,0,0,2.13-2V4.53a2.22,2.22,0,0,0-2.13-2.14H464.41a2.14,2.14,0,0,0-2.14,2.14V62.39h-1l-.14-.16L404.46,1.81a2.55,2.55,0,0,0-2-.81h-2.08a2.1,2.1,0,0,0-2.14,2V96.47a2.22,2.22,0,0,0,2.14,2.14H413a2.14,2.14,0,0,0,2.14-2.14Z"/><path class="cls-1" d="M532.33,99.61H519.41a3.23,3.23,0,0,1-3.14-3.14V19.06H495.52a3.15,3.15,0,0,1-3.14-3.14V4.53a3.15,3.15,0,0,1,3.14-3.14h60.7a3.14,3.14,0,0,1,3.13,3.14V15.92a3.14,3.14,0,0,1-3.13,3.14H535.47V96.47A3.23,3.23,0,0,1,532.33,99.61ZM495.52,2.39a2.14,2.14,0,0,0-2.14,2.14V15.92a2.14,2.14,0,0,0,2.14,2.14h21.75V96.47a2.22,2.22,0,0,0,2.14,2.14h12.92a2.22,2.22,0,0,0,2.14-2.14V18.06h21.75a2.13,2.13,0,0,0,2.13-2.14V4.53a2.13,2.13,0,0,0-2.13-2.14Z"/><path class="cls-1" d="M650.11,99.61H638c-2.45,0-3.53-1.17-4.47-3l-6.68-14.73H586l-6.67,14.71a4.68,4.68,0,0,1-4.48,3.07H562.75a3.09,3.09,0,0,1-2.7-1.36,3,3,0,0,1-.12-3L603.12,1.82A3,3,0,0,1,605.94,0h1.39a2.86,2.86,0,0,1,2.81,1.8l42.78,93.49a3,3,0,0,1-.12,3A3.07,3.07,0,0,1,650.11,99.61ZM585.34,80.83h42.17l6.94,15.3c.94,1.87,1.81,2.48,3.57,2.48h12.09a2.12,2.12,0,0,0,1.85-.9,2,2,0,0,0,0-2L609.24,2.24A1.87,1.87,0,0,0,607.33,1h-1.39A2,2,0,0,0,604,2.25L560.84,95.71a2,2,0,0,0,0,2,2.13,2.13,0,0,0,1.86.9h12.08a3.68,3.68,0,0,0,3.56-2.46Zm35.82-14.41H591.7l14-31.56h1.07Zm-27.92-1h26.37l-13.32-29.3Z"/><path class="cls-1" d="M698.58,99.61H665a3.15,3.15,0,0,1-3.14-3.14V4.53A3.15,3.15,0,0,1,665,1.39h31.81c17,0,29.8,11.26,29.8,26.19,0,10.94-7.12,18.49-13.89,22v0c6.39,2.28,16.67,8.21,16.67,22.72C729.36,87.87,716.13,99.61,698.58,99.61ZM665,2.39a2.14,2.14,0,0,0-2.14,2.14V96.47A2.14,2.14,0,0,0,665,98.61h33.61c17,0,29.78-11.31,29.78-26.3,0-14.15-10.23-19.79-16.33-21.89l-.34-.12V48.94l.28-.14c6.58-3.29,13.61-10.59,13.61-21.22,0-14.36-12.38-25.19-28.8-25.19Zm32.36,80.83H679.75V57.5h17.58a12.38,12.38,0,0,1,12.73,12.58C710.06,77.57,704.59,83.22,697.33,83.22Zm-16.58-1h16.58c6.69,0,11.73-5.22,11.73-12.14A11.4,11.4,0,0,0,697.33,58.5H680.75Zm14.64-39H679.75V17.92h15.64c7.28,0,12.17,4.94,12.17,12.3C707.56,37.75,702.44,43.22,695.39,43.22Zm-14.64-1h14.64c6.47,0,11.17-5,11.17-12,0-6.76-4.49-11.3-11.17-11.3H680.75Z"/><path class="cls-1" d="M761.09,99.61H748.17A3.23,3.23,0,0,1,745,96.47V4.53a3.23,3.23,0,0,1,3.14-3.14h12.92a3.22,3.22,0,0,1,3.13,3.14V96.47A3.22,3.22,0,0,1,761.09,99.61ZM748.17,2.39A2.22,2.22,0,0,0,746,4.53V96.47a2.22,2.22,0,0,0,2.14,2.14h12.92a2.22,2.22,0,0,0,2.13-2.14V4.53a2.22,2.22,0,0,0-2.13-2.14Z"/><path class="cls-1" d="M838.45,99.61H787.62a3.14,3.14,0,0,1-3.14-3.14V4.53a3.14,3.14,0,0,1,3.14-3.14h12.77a3.23,3.23,0,0,1,3.14,3.14V82h34.92a3.14,3.14,0,0,1,3.14,3.13V96.47A3.15,3.15,0,0,1,838.45,99.61ZM787.62,2.39a2.14,2.14,0,0,0-2.14,2.14V96.47a2.14,2.14,0,0,0,2.14,2.14h50.83a2.14,2.14,0,0,0,2.14-2.14V85.08A2.13,2.13,0,0,0,838.45,83H802.53V4.53a2.22,2.22,0,0,0-2.14-2.14Z"/><path class="cls-1" d="M868.31,99.61H855.39a3.22,3.22,0,0,1-3.13-3.14V4.53a3.22,3.22,0,0,1,3.13-3.14h12.92a3.23,3.23,0,0,1,3.14,3.14V96.47A3.23,3.23,0,0,1,868.31,99.61ZM855.39,2.39a2.22,2.22,0,0,0-2.13,2.14V96.47a2.22,2.22,0,0,0,2.13,2.14h12.92a2.22,2.22,0,0,0,2.14-2.14V4.53a2.22,2.22,0,0,0-2.14-2.14Z"/><path class="cls-1" d="M927.62,99.61H894.7a3.11,3.11,0,0,1-3-3.14V4.53a3.11,3.11,0,0,1,3-3.14h32.92a49.11,49.11,0,1,1,0,98.22ZM894.7,2.39a2.1,2.1,0,0,0-2,2.14V96.47a2.1,2.1,0,0,0,2,2.14h32.92a48.11,48.11,0,1,0,0-96.22ZM926,82.67H909.62V18.2H926c18.69,0,31.75,13.22,31.75,32.16S944.64,82.67,926,82.67Zm-15.33-1H926c18.11,0,30.75-12.88,30.75-31.31S944.06,19.2,926,19.2H910.62Z"/><path class="cls-1" d="M1070.12,99.61H1058c-2.46,0-3.54-1.17-4.48-3l-6.68-14.73H1006l-6.67,14.71a4.71,4.71,0,0,1-4.49,3.07H982.76a3.1,3.1,0,0,1-2.7-1.36,3,3,0,0,1-.12-3l43.2-93.47A3,3,0,0,1,1026,0h1.39a2.86,2.86,0,0,1,2.81,1.8l42.79,93.49a3,3,0,0,1-.12,3A3.1,3.1,0,0,1,1070.12,99.61Zm-64.77-18.78h42.18l6.93,15.3c.94,1.87,1.81,2.48,3.58,2.48h12.08a2.12,2.12,0,0,0,1.85-.9,2.07,2.07,0,0,0,.06-2L1029.25,2.24A1.87,1.87,0,0,0,1027.34,1H1026A2,2,0,0,0,1024,2.25L980.85,95.71a2,2,0,0,0,0,2,2.15,2.15,0,0,0,1.86.9h12.08a3.69,3.69,0,0,0,3.57-2.46Zm35.82-14.41h-29.46l14.06-31.56h1.06Zm-27.92-1h26.37l-13.32-29.3Z"/><path class="cls-1" d="M1117.76,99.61h-32.91a3.11,3.11,0,0,1-3-3.14V4.53a3.11,3.11,0,0,1,3-3.14h32.91a49.11,49.11,0,1,1,0,98.22ZM1084.85,2.39a2.1,2.1,0,0,0-2,2.14V96.47a2.1,2.1,0,0,0,2,2.14h32.91a48.11,48.11,0,1,0,0-96.22Zm31.25,80.28h-16.34V18.2h16.34c18.69,0,31.75,13.22,31.75,32.16S1134.79,82.67,1116.1,82.67Zm-15.34-1h15.34c18.1,0,30.75-12.88,30.75-31.31S1134.2,19.2,1116.1,19.2h-15.34Z"/></g></g></svg>