<?xml version="1.0" encoding="utf-8"?>
<!-- Generator: Adobe Illustrator 26.0.3, SVG Export Plug-In . SVG Version: 6.00 Build 0)  -->
<svg version="1.1" id="Capa_1" xmlns="http://www.w3.org/2000/svg" xmlns:xlink="http://www.w3.org/1999/xlink" x="0px" y="0px"
	 viewBox="0 0 1166.3 100.3" style="enable-background:new 0 0 1166.3 100.3;" xml:space="preserve">
<style type="text/css">
	.st0{fill:#FFFFFF;}
</style>
<g id="Layer_2">
	<g id="Layer_1-2">
		<path class="st0" d="M32.1,100.3c-18,0-27.2-7.9-30.6-10.9c-1.5-1.2-2-2.1-0.7-4.3l5-8.6C6.2,75.6,7,75,7.9,74.8
			c1-0.2,1.9,0,2.7,0.6c6,4.6,12.1,8.6,20.9,8.6c7,0,12.5-4.6,12.5-10.5c0-6.6-5.2-11.5-17.5-16.5C15.2,52.4,0.3,44.3,0.3,26.8
			c0-6.8,2.7-13.2,7.4-18.1C13.3,3,21.6,0,31.7,0c14.7,0,25.8,7.8,27.9,9.3c0.7,0.5,1.2,1.2,1.3,2.1c0.2,0.9,0,1.9-0.5,2.7L55.1,22
			c-1.1,1.7-3.3,2.9-5.1,1.7l-1-0.6c-5.7-3.6-11-7-18.2-7c-8.3,0-12.1,4.8-12.1,9.6c0,6.2,4.7,10.7,16.3,15.4
			c14.4,5.9,29.1,14.1,29.1,31.6c0,7.3-3.2,14.3-8.7,19.2C49.6,97.3,41.3,100.3,32.1,100.3z M8.6,75.1c-0.2,0-0.4,0-0.6,0.1
			c-0.9,0.2-1.6,0.7-2,1.5l-5,8.6c-1.2,2.1-0.7,2.9,0.7,4l0,0c3.4,3,12.5,10.8,30.5,10.8c9.1,0,17.4-3,23.2-8.3
			c5.4-4.8,8.5-11.7,8.6-19c0-17.3-14.6-25.5-28.9-31.3c-11.7-4.8-16.5-9.3-16.5-15.7c0-4.9,3.8-9.9,12.4-9.9c7.2,0,12.6,3.4,18.3,7
			l1,0.7c1.6,1.1,3.6,0,4.7-1.6l5.3-7.9c0.5-0.7,0.6-1.7,0.4-2.5c-0.1-0.8-0.6-1.4-1.2-1.9C57.3,8,46.3,0.3,31.7,0.3
			c-10,0-18.2,3-23.8,8.6c-4.7,4.8-7.3,11.2-7.3,17.9c0,17.3,14.9,25.3,26,29.9c12.4,5,17.7,10.1,17.7,16.8
			c0,6.1-5.6,10.8-12.8,10.8c-8.9,0-15-4.1-21.1-8.6C9.9,75.3,9.3,75.1,8.6,75.1z"/>
		<path class="st0" d="M116.6,100.3c-10.2,0.1-20.1-3.7-27.6-10.7c-7.2-6.9-11.3-16.5-11.2-26.6V4.2c0.1-1.5,1.3-2.7,2.8-2.8h13.2
			c1.5,0,2.8,1.2,2.8,2.8c0,0,0,0,0,0v57.9c0,11.9,8,19.9,20,19.9s20.1-8.1,20.1-19.7v-58c0-1.5,1.2-2.8,2.8-2.8h13.2
			c1.5,0.1,2.7,1.3,2.8,2.8v58.8c0.1,10-4,19.6-11.2,26.6C136.8,96.6,126.8,100.5,116.6,100.3z M80.6,1.7c-1.4,0.1-2.4,1.1-2.5,2.5
			v58.9C78,73,82,82.5,89.2,89.4c15.6,14.1,39.3,14.1,54.9,0c7.2-6.9,11.2-16.4,11.1-26.3V4.2c-0.1-1.4-1.1-2.4-2.5-2.5h-13.2
			c-1.4,0-2.5,1.1-2.5,2.5v58c0,11.8-8.4,20-20.4,20s-20.3-8.1-20.3-20.1V4.2c0-1.4-1.1-2.5-2.5-2.5L80.6,1.7z"/>
		<path class="st0" d="M202.1,100.3c-18,0-27.2-7.9-30.6-10.9c-1.5-1.2-2-2.1-0.7-4.3l5-8.6c0.5-0.8,1.3-1.4,2.3-1.6
			c1-0.2,1.9,0,2.7,0.6c6,4.5,12.1,8.6,20.9,8.6c7,0,12.5-4.6,12.5-10.6c0-6.6-5.2-11.5-17.5-16.5c-11.2-4.5-26.2-12.6-26.2-30.1
			c0-6.8,2.7-13.2,7.4-18.1c5.6-5.7,13.9-8.7,24-8.7c14.7,0,25.8,7.8,27.9,9.3c0.7,0.5,1.2,1.2,1.3,2.1c0.2,0.9,0.1,1.9-0.5,2.7
			l-5.3,7.9c-1.1,1.7-3.3,2.9-5.1,1.7l-1-0.6c-5.7-3.6-11-7-18.2-7c-8.3,0-12.1,4.8-12.1,9.6c0,6.2,4.7,10.7,16.3,15.4
			c14.4,5.8,29.1,14.1,29.1,31.5c0,7.3-3.2,14.3-8.7,19.2C219.6,97.3,211.3,100.3,202.1,100.3z M178.6,75.1c-0.2,0-0.4,0-0.6,0.1
			c-0.9,0.2-1.6,0.7-2,1.5l-5,8.6c-1.2,2.1-0.7,2.9,0.7,4l0,0c3.4,3,12.5,10.8,30.5,10.8c9.1,0,17.4-3,23.2-8.3
			c5.4-4.8,8.5-11.7,8.6-19c0-17.3-14.6-25.5-28.9-31.2c-11.7-4.8-16.5-9.3-16.5-15.7c0-4.9,3.8-9.9,12.4-9.9c7.2,0,12.6,3.4,18.4,7
			l1,0.7c1.6,1.1,3.6,0,4.7-1.6l5.3-7.9c0.5-0.7,0.6-1.7,0.4-2.5c-0.1-0.8-0.6-1.4-1.2-1.9c-2.1-1.6-13.1-9.3-27.7-9.3
			c-10,0-18.2,3-23.8,8.6c-4.7,4.8-7.3,11.2-7.3,17.9c0,17.3,14.9,25.3,26,29.9c12.4,5,17.7,10.1,17.7,16.8
			c0,6.1-5.6,10.8-12.8,10.8c-8.9,0-15-4.1-21.1-8.6C179.9,75.3,179.3,75.1,178.6,75.1z"/>
		<path class="st0" d="M280.2,98.9h-12.9c-1.5-0.1-2.7-1.3-2.8-2.8V18.4h-21.1c-1.5,0-2.8-1.3-2.8-2.8V4.2c0-1.5,1.2-2.8,2.8-2.8
			h60.7c1.5,0,2.8,1.3,2.8,2.8v11.4c0,1.5-1.2,2.8-2.8,2.8H283v77.8C282.9,97.7,281.7,98.9,280.2,98.9z M243.4,1.7
			c-1.4,0-2.5,1.1-2.5,2.5v11.4c0,1.4,1.1,2.5,2.5,2.5h21.4v78.1c0.1,1.4,1.1,2.4,2.5,2.5h12.9c1.4-0.1,2.4-1.1,2.5-2.5V18.1h21.4
			c1.4,0,2.5-1.1,2.5-2.5V4.2c0-1.4-1.1-2.5-2.5-2.5L243.4,1.7z"/>
		<path class="st0" d="M378.9,98.9h-56.5c-1.5,0-2.8-1.2-2.8-2.8v0V4.2c0-1.5,1.2-2.8,2.8-2.8l0,0h56.5c1.5,0,2.8,1.2,2.8,2.8
			c0,0,0,0,0,0v11.4c0,1.5-1.3,2.8-2.8,2.8H338v22.5h34.1c1.5,0.1,2.7,1.3,2.8,2.8v11.5c0,1.5-1.2,2.8-2.8,2.8l0,0H338v24h41
			c1.5,0,2.8,1.3,2.8,2.8v11.4C381.8,97.7,380.5,98.9,378.9,98.9C379,98.9,378.9,98.9,378.9,98.9z M322.4,1.7
			c-1.4,0-2.5,1.1-2.5,2.5v91.9c0,1.4,1.1,2.5,2.5,2.5h56.5c1.4,0,2.5-1.1,2.5-2.5V84.7c0-1.4-1.1-2.5-2.5-2.5h-41.3V57.6h34.5
			c1.4,0,2.5-1.1,2.5-2.5V43.6c-0.1-1.4-1.1-2.4-2.5-2.5h-34.5V18.1h41.3c1.4,0,2.5-1.1,2.5-2.5V4.2c0-1.4-1.1-2.5-2.5-2.5
			L322.4,1.7z"/>
		<path class="st0" d="M476.8,100.3h-2c-0.9,0-1.8-0.3-2.5-1l-56.9-62.8h-0.1v59.6c0,1.5-1.2,2.8-2.8,2.8l0,0H400
			c-1.5-0.1-2.7-1.3-2.8-2.8V2.7c0.1-1.5,1.3-2.7,2.8-2.7h2.1c0.9,0,1.8,0.3,2.5,1l56.6,60.4h0.1V4.2c0-1.5,1.2-2.8,2.8-2.8l0,0
			h12.8c1.5,0.1,2.7,1.3,2.8,2.8v93.5C479.5,99.1,478.3,100.3,476.8,100.3z M415.2,36.3h0.5h0l56.9,62.8c0.6,0.6,1.4,1,2.2,0.9h2
			c1.3,0,2.4-1,2.5-2.3V4.2c-0.1-1.4-1.1-2.4-2.5-2.5h-12.8c-1.4,0-2.5,1.1-2.5,2.5v57.5h-0.5L404.4,1.2c-0.6-0.6-1.4-1-2.3-0.9H400
			c-1.3,0-2.4,1-2.5,2.3v93.5c0.1,1.4,1.1,2.4,2.5,2.5h12.6c1.4,0,2.5-1.1,2.5-2.5L415.2,36.3z"/>
		<path class="st0" d="M532,98.9h-12.9c-1.5-0.1-2.7-1.3-2.8-2.8V18.4h-21.1c-1.5,0-2.8-1.3-2.8-2.8V4.2c0-1.5,1.2-2.8,2.8-2.8l0,0
			h60.7c1.5,0,2.8,1.3,2.8,2.8v11.4c0,1.5-1.3,2.8-2.8,2.8h-21.1v77.8C534.7,97.6,533.5,98.8,532,98.9z M495.2,1.7
			c-1.4,0-2.5,1.1-2.5,2.5v11.4c0,1.4,1.1,2.5,2.5,2.5h21.4v78.1c0.1,1.4,1.1,2.4,2.5,2.5H532c1.4-0.1,2.4-1.1,2.5-2.5V18.1h21.4
			c1.4,0,2.5-1.1,2.5-2.5V4.2c0-1.4-1.1-2.5-2.5-2.5L495.2,1.7z"/>
		<path class="st0" d="M649.8,98.9h-12.1c-2.3,0-3.2-1-4.2-2.9l-6.8-14.9h-41.3l-6.8,14.9c-0.6,1.7-2.3,2.9-4.2,2.9h-12.1
			c-1,0-1.9-0.4-2.4-1.2c-0.5-0.8-0.5-1.8-0.1-2.6l43.2-93.5c0.4-1,1.4-1.6,2.5-1.6h1.4c1.1-0.1,2.1,0.6,2.5,1.6l42.8,93.5
			c0.4,0.8,0.4,1.8-0.1,2.6C651.6,98.5,650.7,99,649.8,98.9z M585.2,80.8h41.7v0.1l6.8,15c1,2,2,2.7,3.9,2.7h12.1
			c0.9,0,1.7-0.4,2.2-1.1c0.4-0.7,0.5-1.6,0.1-2.3L609.2,1.7c-0.3-0.9-1.2-1.5-2.2-1.4h-1.4c-1,0-1.9,0.6-2.2,1.5l-43.2,93.5
			c-0.4,0.7-0.4,1.6,0.1,2.3c0.5,0.7,1.3,1.1,2.2,1.1h12.1c1.7,0,3.3-1.1,3.9-2.7L585.2,80.8z M620.2,65.7h-28.3l0.1-0.2l13.7-30.7
			h0.6V35L620.2,65.7z M592.3,65.4h27.5L606,35.2h-0.2L592.3,65.4z"/>
		<path class="st0" d="M698.2,98.9h-33.6c-1.5,0-2.8-1.3-2.8-2.8V4.2c0-1.5,1.3-2.8,2.8-2.8h31.8c7.7-0.2,15.1,2.5,21,7.4
			c5.4,4.6,8.5,11.3,8.5,18.4c0,10.9-7.2,18.4-13.9,21.8v0.5c6.3,2.2,16.7,8,16.7,22.5C728.7,87.3,715.6,98.9,698.2,98.9z
			 M664.6,1.7c-1.4,0-2.5,1.1-2.5,2.5v91.9c0,1.4,1.1,2.5,2.5,2.5h33.6c17.2,0,30.1-11.5,30.1-26.7c0-14.4-10.4-20.1-16.6-22.2h-0.1
			v-0.9h0.1c6.7-3.3,13.8-10.8,13.8-21.5c0-7-3-13.7-8.4-18.3c-5.8-4.9-13.2-7.5-20.8-7.3L664.6,1.7z M697,82.5h-17.2v-25H697
			c6.6-0.2,12.2,5,12.4,11.6c0,0.2,0,0.4,0,0.6C709.4,77,704,82.5,697,82.5z M680.1,82.2H697c6.9,0,12.1-5.4,12.1-12.5
			c0.1-6.5-5.1-11.8-11.5-11.9c-0.2,0-0.4,0-0.5,0h-17L680.1,82.2z M695.1,42.5h-15.3V17.9H695c7.1,0,11.8,4.8,11.8,12
			C706.9,37.2,701.9,42.5,695.1,42.5L695.1,42.5z M680.1,42.2h15c6.7,0,11.5-5.2,11.5-12.4c0-7-4.6-11.6-11.5-11.6h-15V42.2z"/>
		<path class="st0" d="M760.7,98.9h-12.9c-1.5,0-2.8-1.3-2.8-2.8V4.2c0.1-1.5,1.3-2.7,2.8-2.8h12.9c1.5,0.1,2.7,1.3,2.8,2.8v91.9
			C763.4,97.6,762.2,98.8,760.7,98.9z M747.8,1.7c-1.4,0.1-2.4,1.1-2.5,2.5v91.9c0.1,1.4,1.1,2.4,2.5,2.5h12.9
			c1.4-0.1,2.4-1.1,2.5-2.5V4.2c-0.1-1.4-1.1-2.4-2.5-2.5L747.8,1.7z"/>
		<path class="st0" d="M838.1,98.9h-50.8c-1.5,0-2.8-1.2-2.8-2.8V4.2c0-1.5,1.2-2.8,2.8-2.8H800c1.5,0.1,2.7,1.3,2.8,2.8v77.8h35.3
			c1.5,0,2.8,1.3,2.8,2.8v11.4C840.9,97.7,839.6,98.9,838.1,98.9z M787.3,1.7c-1.4,0-2.5,1.1-2.5,2.5v91.9c0,1.4,1.1,2.5,2.5,2.5
			c0,0,0,0,0,0h50.8c1.4,0,2.5-1.1,2.5-2.5V84.7c0-1.4-1.1-2.5-2.5-2.5h-35.6V4.2c-0.1-1.4-1.2-2.5-2.5-2.5H787.3z"/>
		<path class="st0" d="M868,98.9h-13c-1.5-0.1-2.7-1.3-2.8-2.8V4.2c0.1-1.5,1.3-2.7,2.8-2.8h13c1.5,0.1,2.7,1.3,2.8,2.8v91.9
			C870.7,97.6,869.5,98.9,868,98.9z M855,1.7c-1.4,0.1-2.4,1.1-2.5,2.5v91.9c0,1.4,1.1,2.4,2.5,2.5h13c1.4-0.1,2.4-1.1,2.5-2.5V4.2
			c-0.1-1.4-1.1-2.4-2.5-2.5H855z"/>
		<path class="st0" d="M927.3,98.9h-32.9c-1.5-0.1-2.7-1.3-2.7-2.8V4.2c0-1.5,1.2-2.7,2.7-2.8h32.9c26.9,0,48.8,21.8,48.8,48.8
			S954.2,98.9,927.3,98.9L927.3,98.9z M894.3,1.7C893,1.7,892,2.9,892,4.2v91.9c0,1.3,1,2.4,2.3,2.5h32.9
			c26.8,0,48.5-21.7,48.5-48.5c0-26.8-21.7-48.5-48.5-48.5c0,0,0,0,0,0L894.3,1.7z M925.6,82h-16V18.2h16
			c18.5,0,31.4,13.1,31.4,31.8S944.1,82,925.6,82z M909.9,81.7h15.7c18.3,0,31.1-13,31.1-31.7s-12.8-31.5-31.1-31.5h-15.7V81.7z"/>
		<path class="st0" d="M1069.8,98.9h-12.1c-2.3,0-3.3-1-4.2-2.9l-6.8-14.9h-41.3l-6.8,14.9c-0.6,1.7-2.3,2.9-4.2,2.9h-12.1
			c-1,0-1.9-0.4-2.4-1.2c-0.5-0.8-0.5-1.8-0.1-2.6l43.2-93.5c0.4-1,1.4-1.6,2.5-1.6h1.4c1.1-0.1,2.1,0.6,2.5,1.6l42.8,93.5
			c0.4,0.8,0.4,1.8-0.1,2.6C1071.6,98.5,1070.7,99,1069.8,98.9z M1005.2,80.8h41.8v0.1l6.8,15c1,2,2,2.7,3.9,2.7h12.1
			c0.9,0,1.7-0.4,2.2-1.1c0.4-0.7,0.5-1.6,0.1-2.3l-42.8-93.5c-0.3-0.9-1.2-1.5-2.2-1.4h-1.4c-1,0-1.9,0.5-2.2,1.5l-43.2,93.5
			c-0.4,0.7-0.3,1.6,0.1,2.3c0.5,0.7,1.3,1.1,2.2,1.1h12.1c1.7,0,3.3-1.1,3.9-2.7L1005.2,80.8z M1040.2,65.7h-28.3l0.1-0.2
			l13.7-30.7h0.6V35L1040.2,65.7z M1012.3,65.4h27.5L1026,35.2h-0.2L1012.3,65.4z"/>
		<path class="st0" d="M1117.4,98.9h-32.9c-1.5-0.1-2.7-1.3-2.7-2.8V4.2c0-1.5,1.2-2.7,2.7-2.8h32.9c26.9,0,48.8,21.8,48.8,48.8
			S1144.3,98.9,1117.4,98.9z M1084.5,1.7c-1.3,0.1-2.4,1.2-2.3,2.5v91.9c0,1.3,1,2.4,2.3,2.5h32.9c26.8,0,48.5-21.7,48.5-48.5
			s-21.7-48.5-48.5-48.5c0,0,0,0,0,0L1084.5,1.7z M1115.8,82h-16V18.2h16c18.5,0,31.4,13.1,31.4,31.8S1134.2,82,1115.8,82z
			 M1100.1,81.7h15.7c18.3,0,31.1-13,31.1-31.7s-12.8-31.5-31.1-31.5h-15.7V81.7z"/>
	</g>
</g>
</svg>
