<svg xmlns="http://www.w3.org/2000/svg" viewBox="0 0 713.84 61.23"><defs><style>.cls-1{fill:#fff;}</style></defs><g id="Layer_2" data-name="Layer 2"><g id="Layer_1-2" data-name="Layer 1"><path class="cls-1" d="M.85,54.59C0,53.91-.34,53.4.43,52l3.06-5.27a2,2,0,0,1,2.89-.6c3.49,2.64,7.31,5.28,12.84,5.28,4.42,0,7.74-2.89,7.74-6.55,0-4.34-3.66-7.31-10.8-10.21-8-3.23-16-8.33-16-18.36C.17,8.76,5.78,0,19.3,0a29.89,29.89,0,0,1,17,5.7,2.09,2.09,0,0,1,.51,2.8l-3.23,4.85c-.68,1-2,1.7-3,1C27,12.08,23.47,9.69,18.8,9.69c-4.85,0-7.49,2.73-7.49,6,0,4,3.15,6.71,10,9.52,8.24,3.32,17.77,8.25,17.77,19.22,0,8.76-7.57,16.84-19.56,16.84C8.84,61.23,3.32,56.72.85,54.59Z"/><path class="cls-1" d="M47.62,2.47A1.67,1.67,0,0,1,49.23.85h8.08a1.62,1.62,0,0,1,1.62,1.62V37.93c0,7.22,4.93,12.24,12.33,12.24s12.41-5,12.41-12.16V2.47A1.63,1.63,0,0,1,85.29.85h8.08A1.67,1.67,0,0,1,95,2.47V38.52C95,51.45,84.7,61.23,71.26,61.23S47.62,51.45,47.62,38.52Z"/><path class="cls-1" d="M104.93,54.59c-.85-.68-1.19-1.19-.43-2.55l3.07-5.27a2,2,0,0,1,2.89-.6c3.48,2.64,7.31,5.28,12.84,5.28,4.42,0,7.74-2.89,7.74-6.55,0-4.34-3.66-7.31-10.8-10.21-8-3.23-16-8.33-16-18.36C104.25,8.76,109.86,0,123.38,0a29.89,29.89,0,0,1,17,5.7,2.09,2.09,0,0,1,.51,2.8l-3.23,4.85c-.68,1-2,1.7-3,1-3.65-2.29-7.14-4.68-11.82-4.68-4.84,0-7.48,2.73-7.48,6,0,4,3.15,6.71,10,9.52,8.25,3.32,17.78,8.25,17.78,19.22,0,8.76-7.57,16.84-19.56,16.84C112.92,61.23,107.4,56.72,104.93,54.59Z"/><path class="cls-1" d="M161.9,11.05h-13a1.61,1.61,0,0,1-1.61-1.61v-7A1.62,1.62,0,0,1,148.89.85h37.16a1.62,1.62,0,0,1,1.62,1.62v7a1.61,1.61,0,0,1-1.62,1.61H173V58.76a1.67,1.67,0,0,1-1.61,1.62h-7.91a1.68,1.68,0,0,1-1.62-1.62Z"/><path class="cls-1" d="M195.66,2.47A1.62,1.62,0,0,1,197.27.85h34.61a1.62,1.62,0,0,1,1.62,1.62v7a1.61,1.61,0,0,1-1.62,1.61H206.71V25h21a1.67,1.67,0,0,1,1.61,1.62v7.05a1.61,1.61,0,0,1-1.61,1.62h-21V50.17h25.17a1.62,1.62,0,0,1,1.62,1.62v7a1.62,1.62,0,0,1-1.62,1.62H197.27a1.62,1.62,0,0,1-1.61-1.62Z"/><path class="cls-1" d="M243.19,1.53A1.6,1.6,0,0,1,244.8,0h1.28a1.89,1.89,0,0,1,1.45.59l34.69,37h.17V2.47A1.62,1.62,0,0,1,284,.85h7.82a1.68,1.68,0,0,1,1.62,1.62V59.7a1.6,1.6,0,0,1-1.62,1.53h-1.19a1.84,1.84,0,0,1-1.44-.6L254.33,22.19h-.17V58.76a1.62,1.62,0,0,1-1.62,1.62H244.8a1.68,1.68,0,0,1-1.61-1.62Z"/><path class="cls-1" d="M316.06,11.05h-13a1.62,1.62,0,0,1-1.62-1.61v-7A1.63,1.63,0,0,1,303.05.85h37.16a1.62,1.62,0,0,1,1.62,1.62v7a1.61,1.61,0,0,1-1.62,1.61h-13V58.76a1.67,1.67,0,0,1-1.61,1.62h-7.91a1.68,1.68,0,0,1-1.62-1.62Z"/><path class="cls-1" d="M342.76,58.17,369.21.93A1.52,1.52,0,0,1,370.65,0h.85A1.45,1.45,0,0,1,373,.93l26.19,57.24a1.5,1.5,0,0,1-1.45,2.21H390.3a2.44,2.44,0,0,1-2.47-1.71l-4.17-9.18H358.24l-4.17,9.18a2.56,2.56,0,0,1-2.47,1.71h-7.39A1.5,1.5,0,0,1,342.76,58.17ZM379.5,40.05,371,21.34h-.25L362.4,40.05Z"/><path class="cls-1" d="M435.7,30.27C440.63,32,445.91,36,445.91,44c0,9.53-8.17,16.42-18.54,16.42H406.79a1.62,1.62,0,0,1-1.62-1.62V2.47A1.62,1.62,0,0,1,406.79.85h19.47c10.12,0,17.95,6.8,17.95,15.73a15,15,0,0,1-8.51,13.27Zm-10.29-4.42c4.34,0,7.14-3.4,7.14-7.65S429.75,11,425.41,11h-9.27V25.85Zm1.19,24.49a7.45,7.45,0,0,0,7.49-7.74,7.27,7.27,0,0,0-7.49-7.39H416.14V50.34Z"/><path class="cls-1" d="M456.11,2.47A1.67,1.67,0,0,1,457.72.85h7.91a1.68,1.68,0,0,1,1.62,1.62V58.76a1.68,1.68,0,0,1-1.62,1.62h-7.91a1.67,1.67,0,0,1-1.61-1.62Z"/><path class="cls-1" d="M480.26,2.47A1.62,1.62,0,0,1,481.87.85h7.82a1.67,1.67,0,0,1,1.62,1.62v47.7H513a1.62,1.62,0,0,1,1.62,1.62v7A1.62,1.62,0,0,1,513,60.38H481.87a1.62,1.62,0,0,1-1.61-1.62Z"/><path class="cls-1" d="M521.75,2.47A1.68,1.68,0,0,1,523.37.85h7.9a1.68,1.68,0,0,1,1.62,1.62V58.76a1.68,1.68,0,0,1-1.62,1.62h-7.9a1.68,1.68,0,0,1-1.62-1.62Z"/><path class="cls-1" d="M545.9,2.47A1.6,1.6,0,0,1,547.43.85h20.15a29.77,29.77,0,1,1,0,59.53H547.43a1.6,1.6,0,0,1-1.53-1.62ZM566.56,50c11.06,0,19.14-7.82,19.14-19.47s-8.08-19.39-19.14-19.39h-9.69V50Z"/><path class="cls-1" d="M599.89,58.17,626.34.93A1.52,1.52,0,0,1,627.78,0h.85a1.45,1.45,0,0,1,1.45.93l26.19,57.24a1.5,1.5,0,0,1-1.44,2.21h-7.4A2.45,2.45,0,0,1,645,58.67l-4.17-9.18H615.37l-4.17,9.18a2.55,2.55,0,0,1-2.46,1.71h-7.4A1.5,1.5,0,0,1,599.89,58.17Zm36.74-18.12-8.51-18.71h-.25l-8.33,18.71Z"/><path class="cls-1" d="M662.3,2.47A1.61,1.61,0,0,1,663.84.85H684a29.77,29.77,0,1,1,0,59.53H663.84a1.61,1.61,0,0,1-1.54-1.62ZM683,50c11,0,19.13-7.82,19.13-19.47S694,11.14,683,11.14h-9.7V50Z"/></g></g></svg>