<svg xmlns="http://www.w3.org/2000/svg" viewBox="0 0 55.33 15.47"><defs><style>.cls-1{fill:#007dc3;}.cls-2{fill:#fff;}.cls-3,.cls-4{fill:none;}.cls-4{stroke:#007dc3;stroke-width:0.13px;}.cls-5{fill:#0066a0;}</style></defs><g id="Layer_2" data-name="Layer 2"><g id="Layer_1-2" data-name="Layer 1"><rect class="cls-1" width="21.6" height="15.47"/><path class="cls-2" d="M11.24,6.82H13V7.93H11.24Zm-2.63,0h1.58V9.58H8.61Zm2.54-.18h0a.08.08,0,0,0-.08.09V8a.08.08,0,0,0,.08.09h1.93A.09.09,0,0,0,13.17,8V6.73a.09.09,0,0,0-.09-.09ZM8.43,5.37a.85.85,0,0,0,1.58,0,.85.85,0,0,0,1.58,0,.85.85,0,0,0,1.58,0,.89.89,0,0,0,.79.54h.09V9.58H10.36V6.73a.09.09,0,0,0-.08-.09H8.52a.09.09,0,0,0-.09.09V9.58H7.56V5.9h.08A.89.89,0,0,0,8.43,5.37ZM8,2.78h5.52l1.1,1.77V5a.7.7,0,1,1-1.4,0h-.18a.7.7,0,1,1-1.4,0H11.5a.7.7,0,1,1-1.4,0H9.92a.7.7,0,1,1-1.4,0H8.35a.72.72,0,0,1-.71.73A.71.71,0,0,1,6.94,5V4.55ZM8,2.6l0,0L6.78,4.48V5a.91.91,0,0,0,.61.88v3.8a.09.09,0,0,0,.09.09h6.67a.09.09,0,0,0,.08-.09V5.87A.92.92,0,0,0,14.84,5V4.5l0,0L13.68,2.64l0,0Z"/><rect class="cls-3" width="55.33" height="15.47"/><path class="cls-2" d="M2.18,12.39H1.86a0,0,0,0,1-.05,0v-.18a0,0,0,0,1,.05,0h.93a0,0,0,0,1,0,0v.18a0,0,0,0,1,0,0H2.46v1.2a0,0,0,0,1,0,0h-.2a0,0,0,0,1,0,0Z"/><path class="cls-2" d="M3.15,12.17a0,0,0,0,1,0,0h.2a0,0,0,0,1,0,0v1.42a0,0,0,0,1,0,0h-.2a0,0,0,0,1,0,0Z"/><path class="cls-2" d="M3.87,12.17a0,0,0,0,1,0,0h.87a0,0,0,0,1,0,0v.18a0,0,0,0,1,0,0H4.15v.35h.53a0,0,0,0,1,0,0V13a0,0,0,0,1,0,0H4.15v.37h.63a0,0,0,0,1,0,0v.18a0,0,0,0,1,0,0H3.91a0,0,0,0,1,0,0Z"/><path class="cls-2" d="M5.19,12.15a0,0,0,0,1,0,0h.06l.88.93h0v-.88a0,0,0,0,1,0,0h.2a0,0,0,0,1,0,0v1.44a0,0,0,0,1,0,0h0l0,0-.87-1h0v.92a0,0,0,0,1,0,0H5.23a0,0,0,0,1,0,0Z"/><path class="cls-2" d="M6.89,12.17a0,0,0,0,1,0,0h.51a.75.75,0,0,1,0,1.5H6.93a0,0,0,0,1,0,0Zm.52,1.2a.49.49,0,0,0,0-1H7.17v1Z"/><path class="cls-2" d="M8.33,13.57,9,12.13s0,0,0,0h0s0,0,0,0l.66,1.44s0,.06,0,.06H9.53a.06.06,0,0,1-.06-.05l-.11-.23H8.72l-.1.23a.06.06,0,0,1-.06.05H8.37A0,0,0,0,1,8.33,13.57Zm.93-.45L9,12.65H9l-.21.47Z"/><path class="cls-2" d="M10,13.48s0,0,0-.06l.07-.13a.07.07,0,0,1,.08,0,.47.47,0,0,0,.32.13.17.17,0,0,0,.19-.16c0-.11-.09-.19-.27-.26s-.4-.21-.4-.46a.43.43,0,0,1,.48-.41.77.77,0,0,1,.43.14,0,0,0,0,1,0,.07l-.08.13s0,0-.08,0a.5.5,0,0,0-.29-.12c-.12,0-.19.07-.19.15s.08.17.25.24.45.21.45.49a.45.45,0,0,1-.49.42A.63.63,0,0,1,10,13.48Z"/><path class="cls-2" d="M11.82,12.17a0,0,0,0,1,0,0h.87a0,0,0,0,1,0,0v.18a0,0,0,0,1,0,0H12.1v.4h.53a0,0,0,0,1,0,0V13a0,0,0,0,1,0,0H12.1v.54a0,0,0,0,1,0,0h-.2a0,0,0,0,1,0,0Z"/><path class="cls-2" d="M13,11.88l.36-.24a.09.09,0,0,1,.12,0c0,.06,0,.11,0,.13l-.4.18S13,12,13,12A.11.11,0,0,1,13,11.88Zm.09.29a0,0,0,0,1,0,0h.2a0,0,0,0,1,0,0v1.42a0,0,0,0,1,0,0h-.2a0,0,0,0,1,0,0Z"/><path class="cls-2" d="M13.76,13.48s0,0,0-.06l.08-.13s.05,0,.07,0a.49.49,0,0,0,.32.13.18.18,0,0,0,.2-.16c0-.11-.1-.19-.28-.26s-.4-.21-.4-.46a.43.43,0,0,1,.48-.41.77.77,0,0,1,.43.14,0,0,0,0,1,0,.07l-.08.13s-.05,0-.07,0a.53.53,0,0,0-.3-.12c-.12,0-.19.07-.19.15s.08.17.25.24.45.21.45.49a.45.45,0,0,1-.49.42A.63.63,0,0,1,13.76,13.48Z"/><path class="cls-2" d="M15.07,12.17a0,0,0,0,1,0,0h.2a0,0,0,0,1,0,0v1.42a0,0,0,0,1,0,0h-.2a0,0,0,0,1,0,0Z"/><path class="cls-2" d="M16.48,12.11a.73.73,0,0,1,.52.2,0,0,0,0,1,0,.06l-.13.13s0,0-.05,0a.5.5,0,0,0-.33-.12.48.48,0,0,0-.48.49.49.49,0,0,0,.48.5.53.53,0,0,0,.33-.12,0,0,0,0,1,.05,0l.13.13a0,0,0,0,1,0,.06.75.75,0,0,1-.52.21.77.77,0,1,1,0-1.54Z"/><path class="cls-2" d="M17.17,13.57l.67-1.44s0,0,0,0h0s0,0,0,0l.66,1.44a0,0,0,0,1,0,.06h-.18s-.05,0-.06-.05l-.11-.23h-.64l-.1.23a.06.06,0,0,1-.06.05h-.19A0,0,0,0,1,17.17,13.57Zm.93-.45-.22-.47h0l-.21.47Z"/><path class="cls-2" d="M18.8,13.48s0,0,0-.06l.08-.13s.05,0,.07,0a.49.49,0,0,0,.32.13.17.17,0,0,0,.19-.16c0-.11-.09-.19-.27-.26s-.4-.21-.4-.46a.43.43,0,0,1,.48-.41.77.77,0,0,1,.43.14,0,0,0,0,1,0,.07l-.08.13s-.05,0-.07,0a.56.56,0,0,0-.3-.12c-.12,0-.19.07-.19.15s.08.17.25.24.45.21.45.49a.45.45,0,0,1-.49.42A.63.63,0,0,1,18.8,13.48Z"/><rect class="cls-2" x="21.68" y="0.07" width="33.58" height="15.34"/><rect class="cls-4" x="21.68" y="0.07" width="33.58" height="15.34"/><path class="cls-5" d="M25.06,9.12l.22-.45a1.37,1.37,0,0,0,.68.25c.28,0,.38-.13.38-.27s-.13-.23-.42-.33c-.49-.14-.76-.32-.76-.77s.31-.71.88-.71a1.33,1.33,0,0,1,.79.25l-.22.41A1.18,1.18,0,0,0,26,7.3c-.21,0-.34.08-.34.25s.09.22.4.31c.53.16.79.36.79.77s-.38.75-.91.75a1.66,1.66,0,0,1-.9-.26"/><path class="cls-5" d="M28.32,7.3a.75.75,0,0,0-.73.82.74.74,0,0,0,.73.8.75.75,0,0,0,.74-.81.75.75,0,0,0-.74-.81m.75,1.54a.93.93,0,0,1-.87.55,1.17,1.17,0,0,1-1.14-1.28A1.16,1.16,0,0,1,28.2,6.84a.93.93,0,0,1,.87.55V6.88h.49V9.34h-.49Z"/><path class="cls-5" d="M32.11,9.34h-.49V7.85a.48.48,0,0,0-.49-.55.65.65,0,0,0-.61.72V9.34H30V6.88h.5v.44a.79.79,0,0,1,.73-.48A.82.82,0,0,1,32,7.3a.92.92,0,0,1,.81-.46.9.9,0,0,1,.9,1V9.34h-.49V7.85a.49.49,0,0,0-.5-.55.65.65,0,0,0-.61.72Z"/><rect class="cls-3" width="55.33" height="15.47"/><polygon class="cls-5" points="33.97 6.17 34.5 6.17 34.19 7.14 33.78 7.14 33.97 6.17"/><path class="cls-5" d="M34.32,9.12l.22-.45a1.37,1.37,0,0,0,.68.25c.27,0,.38-.13.38-.27s-.13-.23-.42-.33c-.49-.14-.76-.32-.76-.77s.31-.71.88-.71a1.33,1.33,0,0,1,.79.25l-.23.41a1.1,1.1,0,0,0-.58-.2c-.21,0-.34.08-.34.25s.09.22.4.31c.53.16.79.36.79.77s-.38.75-.91.75a1.66,1.66,0,0,1-.9-.26"/><path class="cls-5" d="M37.57,8.09a1.21,1.21,0,0,1,1.29-1.27,1.28,1.28,0,0,1,.92.36l-.3.37a.85.85,0,0,0-.61-.26.72.72,0,0,0-.77.8.73.73,0,0,0,.77.81.86.86,0,0,0,.61-.27l.3.36a1.26,1.26,0,0,1-.92.37,1.21,1.21,0,0,1-1.29-1.27"/><path class="cls-5" d="M40.8,9.36c-.51,0-.79-.24-.79-.84V6l.49-.09V8.52c0,.24.13.35.31.35h.12v.48H40.8"/><path class="cls-5" d="M41.14,8.31V6.86h.49V8.35a.56.56,0,0,0,1.11,0V6.86h.49V8.31a1,1,0,1,1-2.09,0"/><path class="cls-5" d="M44.93,8.91a.75.75,0,0,0,.74-.82.74.74,0,1,0-1.47,0,.75.75,0,0,0,.73.81m.13.46a.93.93,0,0,1-.87-.55v.51H43.7V6l.49-.09V7.37a.93.93,0,0,1,.87-.55A1.17,1.17,0,0,1,46.2,8.1a1.16,1.16,0,0,1-1.14,1.27"/><path class="cls-5" d="M46.42,9.16h0v0h0s0,0,0,0,0,0,0,0m.09.16h-.06l0-.07h0v.07h0v-.2h.08s.07,0,.07.06a.07.07,0,0,1,0,.06Zm-.09-.24a.14.14,0,1,0,.14.14.14.14,0,0,0-.14-.14m0,.31a.17.17,0,0,1-.17-.17.17.17,0,0,1,.34,0,.17.17,0,0,1-.17.17"/><path class="cls-5" d="M49.84,5.8l-.35-.35-2.1,2.1a.27.27,0,0,0,0,.37l2.1,2.1.35-.35a.27.27,0,0,0,0-.39L48.29,7.73l1.55-1.55a.26.26,0,0,0,0-.38"/><path class="cls-5" d="M52.63,7.56,50.52,5.45l-.35.35a.28.28,0,0,0,0,.38l1.55,1.55L50.16,9.3a.24.24,0,0,0,0,.35l.36.37,2.11-2.11a.24.24,0,0,0,0-.35"/><rect class="cls-3" width="55.33" height="15.47"/></g></g></svg>