<svg id="Capa_1" data-name="Capa 1" xmlns="http://www.w3.org/2000/svg" viewBox="0 0 84.29 59"><defs><style>.cls-1{fill:#fbb800;}</style></defs><path class="cls-1" d="M60.86,60.07a7.13,7.13,0,0,0,4.21-1.26,7.68,7.68,0,0,0,8.43,0c3.79-2.11,5.06-7.59,3-11.38a8.17,8.17,0,0,0-11.38-3,8.15,8.15,0,0,0-4.21-1.27,8.43,8.43,0,0,0,0,16.86Zm8.43-12.64a4.22,4.22,0,1,1-4.22,4.21A4,4,0,0,1,69.29,47.43Zm-8.43,0c.42,0,.84,0,.84.42a9,9,0,0,0,0,8h-.84a4.22,4.22,0,1,1,0-8.43Z" transform="translate(-1.86 -9.5)"/><path class="cls-1" d="M75.61,9.5H12.39A10.43,10.43,0,0,0,1.86,20V58A10.43,10.43,0,0,0,12.39,68.5H75.61A10.43,10.43,0,0,0,86.14,58V20A10.43,10.43,0,0,0,75.61,9.5ZM81.93,58a6.48,6.48,0,0,1-6.32,6.33H12.39A6.48,6.48,0,0,1,6.07,58V34.79H81.93Zm0-27.39H6.07V26.36H81.93Zm0-8.43H6.07V20a6.48,6.48,0,0,1,6.32-6.33H75.61A6.48,6.48,0,0,1,81.93,20Z" transform="translate(-1.86 -9.5)"/></svg>