<?xml version="1.0" encoding="utf-8"?>
<!-- Generator: Adobe Illustrator 26.0.3, SVG Export Plug-In . SVG Version: 6.00 Build 0)  -->
<svg version="1.1" id="Capa_1" xmlns="http://www.w3.org/2000/svg" xmlns:xlink="http://www.w3.org/1999/xlink" x="0px" y="0px"
	 viewBox="0 0 6.6 6.4" style="enable-background:new 0 0 6.6 6.4;" xml:space="preserve">
<style type="text/css">
	.st0{fill:#0078BF;}
</style>
<g id="Layer_2">
	<g id="Layer_1-2">
		<path class="st0" d="M6.5,4.2L6,3.7L5.5,2.4C5.4,2.2,5.2,2.1,5,2.1H4.8l0,0c0-0.2-0.2-0.4-0.4-0.5l0.2-0.5c0.1-0.2,0.1-0.4,0-0.6
			C4.5,0.3,4.4,0.1,4.2,0.1c-0.4-0.1-0.8,0-1,0.4L2.9,1.2C2.7,0.9,2.4,0.7,2,0.6c-0.1,0-0.1,0-0.2,0c0-0.1,0.1-0.1,0-0.2V0.2
			L1.6,0.3C1.5,0.4,1.4,0.5,1.5,0.6v0.1L1.4,0.6c-0.1-0.1-0.2-0.1-0.3,0L0.8,0.7L1,0.9C1.1,1,1.1,1,1.2,1C1.1,1.2,1,1.4,1,1.6H0.8
			c-0.1,0-0.2,0.1-0.2,0.1c0,0.1,0.1,0.2,0.2,0.2l0,0h3.5c0.1,0,0.2,0.1,0.2,0.2v1.7c0,0.1,0.1,0.2,0.2,0.2l0,0h1.1l0.5,0.5v0.9H5.9
			C5.7,4.9,5.3,4.7,4.8,4.8C4.5,4.9,4.3,5.1,4.3,5.4H2.9C2.8,5,2.4,4.7,2,4.7C1.6,4.8,1.3,5.1,1.3,5.4H0.6V3.8
			c0-0.1-0.1-0.2-0.1-0.2c0,0,0,0,0,0c-0.1,0-0.2,0.1-0.2,0.2l0,0v1.7c0,0.1,0.1,0.2,0.1,0.2c0,0,0,0,0,0h0.9
			c0.1,0.4,0.5,0.8,0.9,0.7c0.4-0.1,0.6-0.3,0.7-0.7h1.4c0.1,0.4,0.4,0.7,0.8,0.7c0.4,0,0.8-0.3,0.8-0.8h0.5c0.1,0,0.1-0.1,0.2-0.1
			c0,0,0,0,0,0V4.3C6.6,4.3,6.6,4.2,6.5,4.2z M3.4,0.6C3.5,0.4,3.8,0.2,4,0.3c0.1,0.1,0.2,0.2,0.3,0.3c0.1,0.1,0.1,0.3,0,0.4
			L4.1,1.6H3L3.4,0.6z M2,1c0.4,0,0.7,0.3,0.7,0.6H1.3C1.3,1.3,1.6,1,2,1z M4.8,3.6V2.4H5c0.1,0,0.1,0,0.2,0.1l0.4,1.1H4.8z
			 M2.1,6.1c-0.3,0-0.5-0.2-0.5-0.5l0,0c0-0.3,0.3-0.5,0.6-0.5c0.2,0,0.4,0.2,0.5,0.5C2.6,5.9,2.4,6.1,2.1,6.1z M5.1,6.1
			c-0.3,0-0.5-0.2-0.5-0.5c0,0,0,0,0,0C4.6,5.3,4.8,5,5.1,5c0.3,0,0.5,0.2,0.5,0.4l0,0c0,0,0,0,0,0.1C5.6,5.8,5.4,6.1,5.1,6.1
			C5.1,6.1,5.1,6.1,5.1,6.1L5.1,6.1z"/>
		<path class="st0" d="M0.4,2.5h0.9c0.1,0,0.2-0.1,0.2-0.1c0-0.1-0.1-0.2-0.1-0.2c0,0,0,0,0,0H0.4c-0.1,0-0.2,0.1-0.2,0.1
			C0.3,2.5,0.3,2.5,0.4,2.5C0.4,2.5,0.4,2.5,0.4,2.5z"/>
		<path class="st0" d="M1,3.1C1,3,0.9,3,0.8,3c0,0,0,0,0,0H0.2C0.1,3,0,3.1,0,3.1c0,0.1,0.1,0.2,0.1,0.2c0,0,0,0,0,0h0.7
			C0.9,3.3,1,3.3,1,3.1C1,3.2,1,3.1,1,3.1z"/>
		<path class="st0" d="M2.1,3.7c0,0,0,0.1,0,0.2S2.2,4,2.2,4l0.5-0.3c0,0,0-0.1,0-0.1S2.6,3.5,2.6,3.5L2.1,3.7z"/>
		<path class="st0" d="M3.9,2.9c0-0.1-0.1-0.1-0.2-0.1L3.3,3.1c0,0,0,0.1,0,0.1c0,0,0.1,0.1,0.1,0.1c0,0,0,0,0,0L3.9,3
			C3.9,3,3.9,2.9,3.9,2.9z"/>
		<path class="st0" d="M2.7,3.1L2.2,2.8c0,0-0.1,0-0.2,0.1s0,0.2,0,0.2l0.5,0.2c0,0,0.1,0,0.1-0.1S2.7,3.1,2.7,3.1z"/>
		<path class="st0" d="M3.4,3.5C3.3,3.5,3.3,3.5,3.4,3.5C3.3,3.6,3.3,3.6,3.4,3.5C3.3,3.6,3.3,3.6,3.3,3.7L3.7,4c0,0,0.1,0,0.2-0.1
			c0-0.1,0-0.1,0-0.2L3.4,3.5z"/>
		<path class="st0" d="M3,4.4c0.1,0,0.2,0,0.2-0.1l0-0.5c0,0-0.1,0-0.1,0c0,0-0.1,0-0.1,0L3,4.4C2.8,4.4,2.9,4.4,3,4.4z"/>
		<path class="st0" d="M3.1,3l0-0.5c0-0.1-0.1-0.1-0.2-0.1s-0.1,0-0.1,0.1L2.9,3C2.9,3,2.9,3.1,3.1,3C3,3.1,3.1,3,3.1,3z"/>
	</g>
</g>
</svg>
