<svg xmlns="http://www.w3.org/2000/svg" viewBox="0 0 13.62 15.39"><defs><style>.cls-1{fill:#fdb71a;}</style></defs><g id="Layer_2" data-name="Layer 2"><g id="Layer_1-2" data-name="Layer 1"><path class="cls-1" d="M12.66,5.64A3.78,3.78,0,0,0,9.93,4.27H9.65A4.8,4.8,0,0,0,11,.36.4.4,0,0,0,10.8.09.4.4,0,0,0,10.5,0,4.78,4.78,0,0,0,6.81,2.62,8.82,8.82,0,0,0,5.92.49.4.4,0,0,0,5.36.34.42.42,0,0,0,5.21.9,8,8,0,0,1,6.3,5a3.76,3.76,0,0,0-2.61-.74A3.76,3.76,0,0,0,1,5.64,6.27,6.27,0,0,0,.1,10.37a6.41,6.41,0,0,0,1.77,3.72,4,4,0,0,0,3.28,1.27,3.24,3.24,0,0,0,1-.32,1.46,1.46,0,0,1,1.26,0,3.24,3.24,0,0,0,1,.32l.43,0c2.18,0,4.25-2.19,4.62-5A6.27,6.27,0,0,0,12.66,5.64ZM10.17.89a4,4,0,0,1-3,3.89A4,4,0,0,1,10.17.89Zm2.54,9.37c-.34,2.58-2.23,4.54-4.13,4.29a2.56,2.56,0,0,1-.77-.24,2.29,2.29,0,0,0-2,0,2.56,2.56,0,0,1-.77.24,3.16,3.16,0,0,1-2.59-1A5.64,5.64,0,0,1,.91,10.26a5.66,5.66,0,0,1,.7-4.11A2.94,2.94,0,0,1,3.76,5.09,3,3,0,0,1,6.1,5.9a1.07,1.07,0,0,0,1.42,0,3,3,0,0,1,2.34-.81A2.94,2.94,0,0,1,12,6.15,5.66,5.66,0,0,1,12.71,10.26Z"/><path class="cls-1" d="M4,6A2.41,2.41,0,0,0,1.81,8.68a.41.41,0,0,0,.41.41.42.42,0,0,0,.41-.41A1.63,1.63,0,0,1,4.06,6.86a.4.4,0,0,0,.37-.44A.41.41,0,0,0,4,6Z"/></g></g></svg>