<svg xmlns="http://www.w3.org/2000/svg" viewBox="0 0 11.53 12.82"><defs><style>.cls-1{fill:#fdb71a;}</style></defs><g id="Layer_2" data-name="Layer 2"><g id="Layer_1-2" data-name="Layer 1"><path class="cls-1" d="M8.9,6.68a1.46,1.46,0,1,0,1.46,1.46A1.47,1.47,0,0,0,8.9,6.68ZM8.9,9a.85.85,0,1,1,.85-.85A.86.86,0,0,1,8.9,9Z"/><path class="cls-1" d="M5.24,1.75a.3.3,0,0,0-.3-.28H.57a.31.31,0,0,0-.31.28L0,4.91H0A2.77,2.77,0,0,0,.75,7a2.71,2.71,0,0,0,1.69.84v4.4H1.51a.3.3,0,0,0-.31.3.31.31,0,0,0,.31.31H4a.31.31,0,0,0,.3-.31.3.3,0,0,0-.3-.3H3.05V7.81A2.74,2.74,0,0,0,4.75,7a2.77,2.77,0,0,0,.75-2,0,0,0,0,0,0,0ZM.85,2.08H4.66l.2,2.56H.64ZM4.3,6.55a2.11,2.11,0,0,1-1.55.67h0a2.13,2.13,0,0,1-1.56-.67A2.09,2.09,0,0,1,.62,5.24H4.88A2,2,0,0,1,4.3,6.55Z"/><path class="cls-1" d="M11.17,4.28a.32.32,0,0,0,0-.14V2.92a.3.3,0,0,0-.08-.21.31.31,0,0,0-.22-.09h-4a.29.29,0,0,0-.3.3V4.14a.3.3,0,0,0,0,.16,1.37,1.37,0,0,0-.34.91v6.25a1.35,1.35,0,0,0,1.36,1.36h2.55a1.36,1.36,0,0,0,1.36-1.36V5.21A1.32,1.32,0,0,0,11.17,4.28Zm-4-1.05h3.42v.6H7.16Zm3.75,8.23a.75.75,0,0,1-.75.75H7.62A.75.75,0,0,1,7.09,12a.71.71,0,0,1-.22-.53V5.21a.77.77,0,0,1,.22-.54.75.75,0,0,1,.53-.22h2.55a.75.75,0,0,1,.54.22.74.74,0,0,1,.21.53Z"/><path class="cls-1" d="M9.78,2.09l1.12-.52a.28.28,0,0,0,0-.39C10.84,1,10.69,1,10.58,1l-1,.71a.2.2,0,0,0,0,.25A.22.22,0,0,0,9.78,2.09Z"/><path class="cls-1" d="M8,2.09A.22.22,0,0,0,8.23,2a.19.19,0,0,0,0-.25L7.21,1C7.11,1,7,1,6.86,1.18a.29.29,0,0,0,0,.39Z"/><path class="cls-1" d="M8.9,1.58c.11,0,.2-.05.21-.13L9.22.22C9.22.1,9.08,0,8.9,0s-.33.1-.33.22l.11,1.23A.21.21,0,0,0,8.9,1.58Z"/></g></g></svg>