<svg xmlns="http://www.w3.org/2000/svg" viewBox="0 0 5 5.6"><defs><style>.cls-1{fill:#fdb71a;}</style></defs><g id="Layer_2" data-name="Layer 2"><g id="Layer_1-2" data-name="Layer 1"><path class="cls-1" d="M5,1.59a.14.14,0,0,0-.11,0L4.3,2l-.11-.08.32-.79A.82.82,0,0,0,4.07.06a.86.86,0,0,0-.63,0A.84.84,0,0,0,3,.51l-.37.9a1,1,0,0,0-1-.7.83.83,0,0,0-.32.07l.07,0A.32.32,0,0,0,1.58.43l0-.27L1.27.3a.3.3,0,0,0-.15.31V.73L1,.64A.3.3,0,0,0,.7.6L.44.74l.2.19A.3.3,0,0,0,1,1L1.1.91A1,1,0,0,0,.68,2L.16,1.6a.14.14,0,0,0-.11,0,.12.12,0,0,0,0,.09V5.5a.1.1,0,0,0,.1.1H4.9A.1.1,0,0,0,5,5.5V1.68A.12.12,0,0,0,5,1.59ZM3.18.58A.58.58,0,0,1,3.52.25.55.55,0,0,1,4,.25a.61.61,0,0,1,.34.8L4,1.8l-.26-.2a.13.13,0,0,0-.12,0L3.1,2l-.38-.28ZM1.67.91a.81.81,0,0,1,.79.69s0,0,0,0L1.9,2l-.54-.4a.13.13,0,0,0-.12,0l-.38.28s0-.1,0-.14A.82.82,0,0,1,1.67.91ZM4.8,5.4H.2V1.88l.44.32a.09.09,0,0,0,.12,0l.54-.39.54.39A.09.09,0,0,0,2,2.2l.54-.39,0,0h0L3,2.2a.09.09,0,0,0,.12,0l.54-.39.54.39a.09.09,0,0,0,.12,0l.44-.32Z"/><path class="cls-1" d="M1.7,4a.13.13,0,0,0,0,.16c0,.07.1.1.15.07L2.25,4a.07.07,0,0,0,0-.1.08.08,0,0,0-.09,0Z"/><path class="cls-1" d="M3.22,3.17l-.42.29a.09.09,0,0,0,0,.1.08.08,0,0,0,.09,0l.46-.21a.12.12,0,0,0,0-.16C3.32,3.17,3.26,3.14,3.22,3.17Z"/><path class="cls-1" d="M1.84,3.17c-.05,0-.11,0-.15.07a.13.13,0,0,0,0,.16l.46.21a.08.08,0,0,0,.09,0,.07.07,0,0,0,0-.1Z"/><path class="cls-1" d="M2.89,3.83a.08.08,0,0,0-.09,0,.09.09,0,0,0,0,.1l.42.29s.1,0,.14-.07a.12.12,0,0,0,0-.16Z"/><path class="cls-1" d="M2.53,4s-.09,0-.09,0l0,.5s.05.09.13.09.13,0,.13-.09l-.05-.5S2.57,4,2.53,4Z"/><path class="cls-1" d="M2.53,2.76c-.08,0-.13,0-.13.09l0,.5s0,.06.09.06.08,0,.08-.06l.05-.5C2.66,2.8,2.6,2.76,2.53,2.76Z"/></g></g></svg>