<svg id="Capa_1" data-name="Capa 1" xmlns="http://www.w3.org/2000/svg" xmlns:xlink="http://www.w3.org/1999/xlink" viewBox="0 0 626.01 174.32"><defs><style>.cls-1,.cls-3,.cls-6,.cls-8{fill:none;}.cls-2{fill:#4a5b6d;}.cls-3,.cls-6{stroke:#0078bf;}.cls-3{stroke-width:0.5px;}.cls-4{clip-path:url(#clip-path);}.cls-5{fill:#fff;}.cls-6{stroke-width:0.75px;}.cls-7{fill:#0078bf;}.cls-8{stroke:#fbb800;stroke-linecap:round;stroke-linejoin:round;stroke-width:2px;}.cls-9{fill:#fbb800;}</style><clipPath id="clip-path" transform="translate(-14.11 0.07)"><rect class="cls-1" x="0.72" y="-0.07" width="657.48" height="178.76"/></clipPath></defs><path class="cls-2" d="M14.11,126.83a.18.18,0,0,1,.18-.17h.29a.18.18,0,0,1,.18.17v9.1a.18.18,0,0,1-.19.18h-.28a.18.18,0,0,1-.18-.18Z" transform="translate(-14.11 0.07)"/><path class="cls-2" d="M17.18,130c0-.15.05-.21.17-.21s.39.25.39.68v.17a3,3,0,0,1,2.18-.94c1.77,0,2.35,1.1,2.35,2.73v3.45a.22.22,0,0,1-.21.2h-.18a.22.22,0,0,1-.21-.2v-3.42c0-1.45-.58-2.17-1.78-2.17a2.84,2.84,0,0,0-2.12,1.06v4.53a.18.18,0,0,1-.2.2h-.22c-.12,0-.17-.1-.17-.2Z" transform="translate(-14.11 0.07)"/><path class="cls-2" d="M24.63,130.45h-1a.19.19,0,0,1-.19-.2v-.18a.19.19,0,0,1,.19-.2h1v-1c0-1.47.69-2.39,2-2.39a2.52,2.52,0,0,1,1.74.66c.08.1.09.2,0,.26l-.14.16c-.08.1-.16.1-.27,0a2.16,2.16,0,0,0-1.37-.51c-1,0-1.45.65-1.45,1.81v1h2.35c.14,0,.22.07.22.19v.21c0,.1-.07.18-.22.18H25.22v5.46a.2.2,0,0,1-.2.2h-.2a.21.21,0,0,1-.19-.2Z" transform="translate(-14.11 0.07)"/><path class="cls-2" d="M31.61,129.73A3.27,3.27,0,1,1,28.48,133,3.2,3.2,0,0,1,31.61,129.73Zm0,6a2.68,2.68,0,1,0-2.54-2.7A2.6,2.6,0,0,0,31.61,135.68Z" transform="translate(-14.11 0.07)"/><path class="cls-2" d="M36.54,130c0-.15.05-.21.17-.21s.39.25.39.68v.14a2.57,2.57,0,0,1,2-.91,2.78,2.78,0,0,1,1,.18.21.21,0,0,1,.16.28l-.08.25c0,.12-.14.13-.25.08a1.88,1.88,0,0,0-.84-.2,2.26,2.26,0,0,0-1.89,1.06v4.53a.18.18,0,0,1-.2.2h-.22c-.12,0-.17-.1-.17-.2Z" transform="translate(-14.11 0.07)"/><path class="cls-2" d="M41.58,130c0-.15.06-.21.18-.21s.39.25.39.68v.15a2.56,2.56,0,0,1,2-.92,2,2,0,0,1,1.93,1.11,2.8,2.8,0,0,1,2.19-1.11c1.7,0,2.25,1.15,2.25,2.76v3.42a.2.2,0,0,1-.2.2h-.23c-.09,0-.16-.07-.16-.2v-3.42c0-1.45-.54-2.17-1.72-2.17a2.42,2.42,0,0,0-1.93,1.09,3.55,3.55,0,0,1,.13,1.08v3.42a.22.22,0,0,1-.21.2H46a.18.18,0,0,1-.19-.2v-3.42c0-1.45-.55-2.17-1.73-2.17a2.26,2.26,0,0,0-1.94,1.06v4.53a.18.18,0,0,1-.2.2h-.22a.18.18,0,0,1-.18-.2Z" transform="translate(-14.11 0.07)"/><path class="cls-2" d="M54.79,132.08a5.31,5.31,0,0,1,1.6.29c0-1.26-.32-2.08-1.66-2.08a4.17,4.17,0,0,0-1.6.42c-.14,0-.21,0-.25-.1l-.08-.19a.17.17,0,0,1,.1-.23,4.2,4.2,0,0,1,1.89-.46c1.87,0,2.2,1.23,2.2,2.72V136q0,.21-.18.21c-.19,0-.39-.25-.39-.69v-.09h0a3.23,3.23,0,0,1-2.19.89,2,2,0,0,1-2-2.07C52.19,133,53.15,132.08,54.79,132.08Zm-.5,3.6a3,3,0,0,0,2.1-1v-1.8a4.36,4.36,0,0,0-1.6-.32c-1.19,0-2,.65-2,1.57A1.45,1.45,0,0,0,54.29,135.68Z" transform="translate(-14.11 0.07)"/><path class="cls-2" d="M59.13,130c0-.15.06-.21.18-.21s.39.25.39.68v.14a2.55,2.55,0,0,1,2-.91,2.78,2.78,0,0,1,1,.18.21.21,0,0,1,.16.28l-.08.25c0,.12-.15.13-.25.08a1.88,1.88,0,0,0-.84-.2,2.26,2.26,0,0,0-1.89,1.06v4.53a.18.18,0,0,1-.2.2h-.22a.18.18,0,0,1-.18-.2Z" transform="translate(-14.11 0.07)"/><path class="cls-2" d="M70,129.73a2.74,2.74,0,0,1,2.79,2.84c0,.24,0,.61-.23.61h-5a2.47,2.47,0,0,0,2.42,2.5,3.38,3.38,0,0,0,1.91-.63c.14-.08.21-.09.27,0l.15.23c.06.06,0,.17-.07.25a4,4,0,0,1-2.26.73,3.27,3.27,0,0,1,0-6.53Zm2.2,2.89a2.17,2.17,0,0,0-2.2-2.3,2.38,2.38,0,0,0-2.41,2.3Z" transform="translate(-14.11 0.07)"/><path class="cls-2" d="M74.59,126.86a.19.19,0,0,1,.2-.2H75a.22.22,0,0,1,.21.2v9a.18.18,0,0,1-.21.2h-.21a.18.18,0,0,1-.18-.2Z" transform="translate(-14.11 0.07)"/><path class="cls-2" d="M83.37,129.73a2.74,2.74,0,0,1,2.79,2.84c0,.24,0,.61-.23.61H81a2.47,2.47,0,0,0,2.42,2.5,3.35,3.35,0,0,0,1.91-.63c.14-.08.21-.09.27,0l.15.23c.06.06,0,.17-.06.25a4,4,0,0,1-2.27.73,3.28,3.28,0,0,1,0-6.53Zm2.2,2.89a2.17,2.17,0,0,0-2.2-2.3,2.38,2.38,0,0,0-2.41,2.3Z" transform="translate(-14.11 0.07)"/><path class="cls-2" d="M87.5,135.34l.12-.22c0-.09.17-.11.28,0a2.89,2.89,0,0,0,1.7.6c1,0,1.56-.46,1.56-1.12s-.76-1.05-1.81-1.44-1.87-.83-1.87-1.81c0-.68.57-1.6,2-1.6a3.41,3.41,0,0,1,1.76.48.22.22,0,0,1,.08.28l-.08.15c-.06.11-.16.11-.27.05a3.63,3.63,0,0,0-1.49-.4c-1,0-1.4.55-1.4,1,0,.63.62,1,1.54,1.3,1.16.43,2.13.78,2.13,2,0,.95-.89,1.68-2.15,1.68a3.22,3.22,0,0,1-2-.69C87.5,135.51,87.44,135.43,87.5,135.34Z" transform="translate(-14.11 0.07)"/><path class="cls-2" d="M93,130.45c-.17,0-.21-.08-.21-.2V130c0-.12.09-.16.21-.16h.75v-1.7A.21.21,0,0,1,94,128l.17,0a.21.21,0,0,1,.21.2v1.72h2.2a.2.2,0,0,1,.21.2v.18a.19.19,0,0,1-.21.2h-2.2v4c0,.81.27,1.26,1.06,1.26a2.3,2.3,0,0,0,1.22-.44.15.15,0,0,1,.24.06l.11.19a.17.17,0,0,1,0,.24,2.85,2.85,0,0,1-1.53.53c-1.27,0-1.65-.83-1.65-1.84v-4Z" transform="translate(-14.11 0.07)"/><path class="cls-2" d="M100.55,132.08a5.32,5.32,0,0,1,1.61.29c0-1.26-.33-2.08-1.66-2.08a4.24,4.24,0,0,0-1.61.42.16.16,0,0,1-.24-.1l-.08-.19a.16.16,0,0,1,.09-.23,4.26,4.26,0,0,1,1.89-.46c1.88,0,2.2,1.23,2.2,2.72V136c0,.14,0,.21-.17.21s-.39-.25-.39-.69v-.09h0a3.23,3.23,0,0,1-2.19.89,1.94,1.94,0,0,1-2-2.07C98,133,98.92,132.08,100.55,132.08Zm-.5,3.6a3,3,0,0,0,2.11-1v-1.8a4.43,4.43,0,0,0-1.61-.32c-1.19,0-2,.65-2,1.57A1.45,1.45,0,0,0,100.05,135.68Z" transform="translate(-14.11 0.07)"/><path class="cls-2" d="M104.28,130.45c-.17,0-.21-.08-.21-.2V130c0-.12.08-.16.21-.16H105v-1.7a.21.21,0,0,1,.22-.2l.17,0a.21.21,0,0,1,.21.2v1.72h2.2a.2.2,0,0,1,.21.2v.18a.19.19,0,0,1-.21.2h-2.2v4c0,.81.27,1.26,1.06,1.26a2.3,2.3,0,0,0,1.22-.44.15.15,0,0,1,.24.06l.11.19a.17.17,0,0,1-.05.24,2.88,2.88,0,0,1-1.53.53c-1.27,0-1.65-.83-1.65-1.84v-4Z" transform="translate(-14.11 0.07)"/><path class="cls-2" d="M109.51,130.07a.21.21,0,0,1,.21-.2h.2a.19.19,0,0,1,.19.2v3.5c0,1.44.48,2.11,1.77,2.11a2.39,2.39,0,0,0,2-1.17v-4.44a.18.18,0,0,1,.2-.2h.2a.2.2,0,0,1,.19.2V136c0,.14,0,.21-.17.21s-.39-.25-.39-.69v-.13a2.62,2.62,0,0,1-2,.92c-1.76,0-2.33-.93-2.33-2.69Z" transform="translate(-14.11 0.07)"/><path class="cls-2" d="M116.2,135.34l.12-.22c.05-.09.17-.11.28,0a2.89,2.89,0,0,0,1.7.6c1,0,1.56-.46,1.56-1.12s-.76-1.05-1.81-1.44-1.87-.83-1.87-1.81c0-.68.57-1.6,2-1.6a3.41,3.41,0,0,1,1.76.48.22.22,0,0,1,.08.28l-.08.15c-.06.11-.16.11-.27.05a3.63,3.63,0,0,0-1.49-.4c-1,0-1.4.55-1.4,1,0,.63.62,1,1.54,1.3,1.16.43,2.13.78,2.13,2,0,.95-.89,1.68-2.15,1.68a3.22,3.22,0,0,1-2-.69C116.2,135.51,116.14,135.43,116.2,135.34Z" transform="translate(-14.11 0.07)"/><path class="cls-2" d="M33.88,148.73a3.39,3.39,0,0,1,2,.61v-3.49a.19.19,0,0,1,.2-.2h.2a.21.21,0,0,1,.19.2v9.09c0,.15,0,.22-.17.22s-.39-.26-.39-.69v-.1a3.1,3.1,0,0,1-2.18.88A3,3,0,0,1,30.87,152,3.07,3.07,0,0,1,33.88,148.73Zm-.14,5.94a2.61,2.61,0,0,0,2.11-1V150a3,3,0,0,0-1.89-.7,2.56,2.56,0,0,0-2.5,2.67A2.5,2.5,0,0,0,33.74,154.67Z" transform="translate(-14.11 0.07)"/><path class="cls-2" d="M41.29,148.73a2.73,2.73,0,0,1,2.79,2.83c0,.25,0,.61-.23.61h-5a2.47,2.47,0,0,0,2.42,2.5,3.39,3.39,0,0,0,1.92-.62c.13-.08.2-.09.27,0l.14.23c.06.05.05.16-.06.24a4,4,0,0,1-2.27.73,3.27,3.27,0,0,1,0-6.52Zm2.2,2.89a2.17,2.17,0,0,0-2.2-2.31,2.39,2.39,0,0,0-2.41,2.31Z" transform="translate(-14.11 0.07)"/><path class="cls-2" d="M48.69,154.33l.12-.21c0-.1.17-.11.28,0a2.85,2.85,0,0,0,1.7.61c1,0,1.55-.46,1.55-1.12s-.75-1.06-1.8-1.45-1.87-.82-1.87-1.81c0-.67.57-1.59,2-1.59a3.46,3.46,0,0,1,1.76.47.22.22,0,0,1,.08.28l-.08.15a.19.19,0,0,1-.27.06,3.6,3.6,0,0,0-1.49-.41c-1,0-1.4.56-1.4,1,0,.62.62,1,1.54,1.3,1.16.43,2.13.78,2.13,2,0,.94-.89,1.67-2.15,1.67a3.22,3.22,0,0,1-2-.69A.17.17,0,0,1,48.69,154.33Z" transform="translate(-14.11 0.07)"/><path class="cls-2" d="M54.46,149.07a.22.22,0,0,1,.21-.21h.2a.2.2,0,0,1,.19.21v3.49c0,1.45.48,2.11,1.77,2.11a2.41,2.41,0,0,0,2-1.16v-4.44a.18.18,0,0,1,.2-.21h.2a.21.21,0,0,1,.19.21v5.87c0,.15,0,.22-.17.22s-.39-.26-.39-.69v-.14a2.64,2.64,0,0,1-2,.92c-1.76,0-2.33-.93-2.33-2.69Z" transform="translate(-14.11 0.07)"/><path class="cls-2" d="M65.49,158.11a.23.23,0,0,1-.21.21H65.1a.2.2,0,0,1-.2-.21V149c0-.15,0-.22.17-.22s.37.23.4.62a3.38,3.38,0,0,1,2.06-.7,3,3,0,0,1,3,3.24,3.12,3.12,0,0,1-3.11,3.28,3,3,0,0,1-1.89-.65Zm0-4.2a2.85,2.85,0,0,0,1.88.76A2.54,2.54,0,0,0,69.9,152a2.47,2.47,0,0,0-2.4-2.65,2.81,2.81,0,0,0-2,.82Z" transform="translate(-14.11 0.07)"/><path class="cls-2" d="M74.93,148.73a2.74,2.74,0,0,1,2.8,2.83c0,.25,0,.61-.23.61h-5a2.47,2.47,0,0,0,2.42,2.5,3.39,3.39,0,0,0,1.92-.62c.13-.08.2-.09.27,0l.15.23c0,.05,0,.16-.07.24a4,4,0,0,1-2.27.73,3.27,3.27,0,0,1,0-6.52Zm2.2,2.89a2.17,2.17,0,0,0-2.2-2.31,2.38,2.38,0,0,0-2.4,2.31Z" transform="translate(-14.11 0.07)"/><path class="cls-2" d="M82.08,148.73a3.41,3.41,0,0,1,2,.61v-3.49a.18.18,0,0,1,.2-.2h.2a.21.21,0,0,1,.19.2v9.09c0,.15-.05.22-.18.22s-.39-.26-.39-.69v-.1a3.07,3.07,0,0,1-2.17.88A3,3,0,0,1,79.07,152,3.08,3.08,0,0,1,82.08,148.73ZM82,154.67a2.63,2.63,0,0,0,2.11-1V150a3,3,0,0,0-1.89-.7,2.55,2.55,0,0,0-2.5,2.67A2.5,2.5,0,0,0,82,154.67Z" transform="translate(-14.11 0.07)"/><path class="cls-2" d="M86.59,146.62a.53.53,0,0,1,.54-.52.52.52,0,0,1,.53.52.51.51,0,0,1-.53.51A.53.53,0,0,1,86.59,146.62Zm.26,2.45a.2.2,0,0,1,.2-.21h.19a.22.22,0,0,1,.2.21v5.83c0,.14-.06.2-.2.2H87c-.12,0-.17-.09-.17-.2Z" transform="translate(-14.11 0.07)"/><path class="cls-2" d="M92.24,148.73a3.39,3.39,0,0,1,2,.61v-3.49a.19.19,0,0,1,.2-.2h.2a.21.21,0,0,1,.19.2v9.09c0,.15,0,.22-.17.22s-.4-.26-.4-.69v-.1a3.13,3.13,0,1,1-2-5.64Zm-.14,5.94a2.61,2.61,0,0,0,2.11-1V150a3,3,0,0,0-1.89-.7,2.56,2.56,0,0,0-2.5,2.67A2.5,2.5,0,0,0,92.1,154.67Z" transform="translate(-14.11 0.07)"/><path class="cls-2" d="M99.74,148.73A3.26,3.26,0,1,1,96.61,152,3.17,3.17,0,0,1,99.74,148.73Zm0,5.94A2.68,2.68,0,1,0,97.2,152,2.59,2.59,0,0,0,99.74,154.67Z" transform="translate(-14.11 0.07)"/><path class="cls-2" d="M151.7,126.83a.18.18,0,0,1,.18-.17h5.41a.18.18,0,0,1,.18.17v.23a.18.18,0,0,1-.18.18h-4.94V131h4.28a.18.18,0,0,1,.18.18v.23a.18.18,0,0,1-.18.17h-4.28v4h4.94a.18.18,0,0,1,.18.18v.21a.18.18,0,0,1-.18.18h-5.41a.19.19,0,0,1-.18-.18Z" transform="translate(-14.11 0.07)"/><path class="cls-2" d="M159.1,130c0-.15.06-.21.18-.21s.39.25.39.68v.17a3,3,0,0,1,2.17-.94c1.77,0,2.35,1.1,2.35,2.73v3.45a.21.21,0,0,1-.2.2h-.19a.21.21,0,0,1-.2-.2v-3.42c0-1.45-.58-2.17-1.78-2.17a2.84,2.84,0,0,0-2.12,1.06v4.53a.18.18,0,0,1-.21.2h-.21a.18.18,0,0,1-.18-.2Z" transform="translate(-14.11 0.07)"/><path class="cls-2" d="M165.34,130.1c-.07-.12-.06-.23.08-.23h.31a.2.2,0,0,1,.2.15l2.29,5.26h0l2.32-5.26a.22.22,0,0,1,.21-.15h.31c.13,0,.16.11.08.23l-2.7,6c-.06.09-.11.15-.19.15h-.07c-.08,0-.13,0-.19-.15Z" transform="translate(-14.11 0.07)"/><path class="cls-2" d="M172.37,127.63a.54.54,0,0,1,.54-.53.52.52,0,1,1,0,1A.53.53,0,0,1,172.37,127.63Zm.26,2.44a.19.19,0,0,1,.2-.2H173a.21.21,0,0,1,.2.2v5.84a.18.18,0,0,1-.2.2h-.22c-.12,0-.17-.1-.17-.2Z" transform="translate(-14.11 0.07)"/><path class="cls-2" d="M177.45,132.08a5.47,5.47,0,0,1,1.61.29c0-1.26-.33-2.08-1.67-2.08a4.17,4.17,0,0,0-1.6.42c-.14,0-.21,0-.25-.1l-.08-.19a.17.17,0,0,1,.1-.23,4.26,4.26,0,0,1,1.89-.46c1.88,0,2.2,1.23,2.2,2.72V136c0,.14-.05.21-.18.21s-.39-.25-.39-.69v-.09h0a3.23,3.23,0,0,1-2.19.89,1.94,1.94,0,0,1-2-2.07C174.86,133,175.81,132.08,177.45,132.08Zm-.5,3.6a3,3,0,0,0,2.11-1v-1.8a4.48,4.48,0,0,0-1.61-.32c-1.19,0-2,.65-2,1.57A1.45,1.45,0,0,0,177,135.68Z" transform="translate(-14.11 0.07)"/><path class="cls-2" d="M181.79,130c0-.15.06-.21.18-.21s.39.25.39.68v.14a2.55,2.55,0,0,1,2-.91,2.78,2.78,0,0,1,1,.18.21.21,0,0,1,.16.28l-.08.25c0,.12-.14.13-.25.08a1.88,1.88,0,0,0-.84-.2,2.26,2.26,0,0,0-1.89,1.06v4.53a.18.18,0,0,1-.2.2H182a.18.18,0,0,1-.18-.2Z" transform="translate(-14.11 0.07)"/><path class="cls-2" d="M189.83,127.63a.53.53,0,0,1,.54-.53.52.52,0,1,1,0,1A.53.53,0,0,1,189.83,127.63Zm.25,2.44a.2.2,0,0,1,.21-.2h.19a.21.21,0,0,1,.2.2v5.84a.18.18,0,0,1-.2.2h-.22a.18.18,0,0,1-.18-.2Z" transform="translate(-14.11 0.07)"/><path class="cls-2" d="M192.85,130c0-.15.06-.21.18-.21s.39.25.39.68v.15a2.56,2.56,0,0,1,2-.92,2,2,0,0,1,1.93,1.11,2.78,2.78,0,0,1,2.19-1.11c1.7,0,2.25,1.15,2.25,2.76v3.42a.2.2,0,0,1-.2.2h-.23c-.1,0-.16-.07-.16-.2v-3.42c0-1.45-.54-2.17-1.72-2.17a2.41,2.41,0,0,0-1.93,1.09,3.57,3.57,0,0,1,.12,1.08v3.42a.22.22,0,0,1-.2.2h-.2a.18.18,0,0,1-.19-.2v-3.42c0-1.45-.56-2.17-1.73-2.17a2.24,2.24,0,0,0-1.94,1.06v4.53a.18.18,0,0,1-.21.2H193a.18.18,0,0,1-.18-.2Z" transform="translate(-14.11 0.07)"/><path class="cls-2" d="M206.05,132.08a5.32,5.32,0,0,1,1.61.29c0-1.26-.32-2.08-1.66-2.08a4.3,4.3,0,0,0-1.61.42.16.16,0,0,1-.24-.1l-.08-.19a.18.18,0,0,1,.09-.23,4.26,4.26,0,0,1,1.89-.46c1.88,0,2.21,1.23,2.21,2.72V136q0,.21-.18.21c-.19,0-.39-.25-.39-.69v-.09h0a3.28,3.28,0,0,1-2.19.89,2,2,0,0,1-2-2.07C203.46,133,204.42,132.08,206.05,132.08Zm-.49,3.6a3,3,0,0,0,2.1-1v-1.8a4.37,4.37,0,0,0-1.61-.32c-1.18,0-2,.65-2,1.57A1.45,1.45,0,0,0,205.56,135.68Zm-.38-7.15a.18.18,0,0,1-.27-.09.21.21,0,0,1,.09-.3l2.16-1.17a.27.27,0,0,1,.39.13c.1.19.07.37-.12.45Z" transform="translate(-14.11 0.07)"/><path class="cls-2" d="M212.83,139.07a3.27,3.27,0,0,1-2.1-.81c-.1-.1-.09-.15,0-.23l.13-.18c.08-.09.15-.09.27,0a3,3,0,0,0,1.73.64,2,2,0,0,0,2.18-2.22v-.66a3,3,0,0,1-1.89.65A3.13,3.13,0,0,1,210,133a3,3,0,0,1,3-3.25,3.37,3.37,0,0,1,2.06.71c0-.4.22-.62.39-.62s.18.06.18.21v6.24A2.62,2.62,0,0,1,212.83,139.07Zm2.18-7.93a2.8,2.8,0,0,0-2-.82A2.47,2.47,0,0,0,210.6,133a2.54,2.54,0,0,0,2.53,2.72,2.94,2.94,0,0,0,1.88-.76Z" transform="translate(-14.11 0.07)"/><path class="cls-2" d="M220.45,129.73a2.74,2.74,0,0,1,2.79,2.84c0,.24,0,.61-.23.61h-5a2.47,2.47,0,0,0,2.42,2.5,3.38,3.38,0,0,0,1.91-.63c.14-.08.21-.09.27,0l.15.23c.06.06,0,.17-.07.25a4,4,0,0,1-2.26.73,3.27,3.27,0,0,1,0-6.53Zm2.2,2.89a2.17,2.17,0,0,0-2.2-2.3,2.38,2.38,0,0,0-2.41,2.3Z" transform="translate(-14.11 0.07)"/><path class="cls-2" d="M225,130c0-.15.05-.21.18-.21s.39.25.39.68v.17a3,3,0,0,1,2.17-.94c1.77,0,2.35,1.1,2.35,2.73v3.45a.21.21,0,0,1-.2.2h-.19a.21.21,0,0,1-.2-.2v-3.42c0-1.45-.58-2.17-1.79-2.17a2.89,2.89,0,0,0-2.12,1.06v4.53a.18.18,0,0,1-.2.2h-.21a.18.18,0,0,1-.18-.2Z" transform="translate(-14.11 0.07)"/><path class="cls-2" d="M234.82,129.73a2.74,2.74,0,0,1,2.8,2.84c0,.24,0,.61-.23.61h-5a2.46,2.46,0,0,0,2.41,2.5,3.38,3.38,0,0,0,1.92-.63c.14-.08.2-.09.27,0l.15.23c.05.06,0,.17-.07.25a4,4,0,0,1-2.27.73,3.28,3.28,0,0,1,0-6.53Zm2.2,2.89a2.16,2.16,0,0,0-2.2-2.3,2.37,2.37,0,0,0-2.4,2.3Z" transform="translate(-14.11 0.07)"/><path class="cls-2" d="M239,135.34l.12-.22a.19.19,0,0,1,.29,0,2.86,2.86,0,0,0,1.7.6c.94,0,1.55-.46,1.55-1.12s-.75-1.05-1.81-1.44-1.86-.83-1.86-1.81c0-.68.57-1.6,2-1.6a3.4,3.4,0,0,1,1.75.48.2.2,0,0,1,.08.28l-.08.15c-.05.11-.16.11-.27.05a3.57,3.57,0,0,0-1.48-.4c-1,0-1.41.55-1.41,1,0,.63.62,1,1.54,1.3,1.16.43,2.14.78,2.14,2,0,.95-.89,1.68-2.15,1.68a3.22,3.22,0,0,1-2-.69A.18.18,0,0,1,239,135.34Z" transform="translate(-14.11 0.07)"/><path class="cls-2" d="M153.39,154.33l.12-.21a.19.19,0,0,1,.29,0,2.85,2.85,0,0,0,1.7.61c.94,0,1.55-.46,1.55-1.12s-.76-1.06-1.81-1.45-1.86-.82-1.86-1.81c0-.67.56-1.59,2-1.59a3.41,3.41,0,0,1,1.75.47.2.2,0,0,1,.08.28l-.08.15c0,.11-.16.11-.27.06a3.54,3.54,0,0,0-1.48-.41c-1,0-1.41.56-1.41,1,0,.62.62,1,1.54,1.3,1.16.43,2.14.78,2.14,2,0,.94-.9,1.67-2.15,1.67a3.2,3.2,0,0,1-2-.69A.17.17,0,0,1,153.39,154.33Z" transform="translate(-14.11 0.07)"/><path class="cls-2" d="M162,148.73A3.26,3.26,0,1,1,158.9,152,3.17,3.17,0,0,1,162,148.73Zm0,5.94a2.68,2.68,0,1,0-2.54-2.7A2.59,2.59,0,0,0,162,154.67Z" transform="translate(-14.11 0.07)"/><path class="cls-2" d="M169.71,155.25a3.07,3.07,0,0,1-2.17-.88v.1c0,.43-.2.69-.39.69s-.18-.07-.18-.22v-9.09a.21.21,0,0,1,.19-.2h.2a.19.19,0,0,1,.21.2v3.49a3.39,3.39,0,0,1,2-.61,3.07,3.07,0,0,1,3,3.25A3,3,0,0,1,169.71,155.25Zm-.25-5.94a3,3,0,0,0-1.89.7v3.61a2.58,2.58,0,0,0,2.1,1A2.51,2.51,0,0,0,172,152,2.56,2.56,0,0,0,169.46,149.31Z" transform="translate(-14.11 0.07)"/><path class="cls-2" d="M174.38,149c0-.15.06-.22.18-.22s.39.26.39.69v.13a2.55,2.55,0,0,1,2-.9,2.86,2.86,0,0,1,1,.17.22.22,0,0,1,.16.29l-.08.24a.16.16,0,0,1-.25.08,1.88,1.88,0,0,0-.84-.2,2.24,2.24,0,0,0-1.89,1.07v4.52c0,.14-.07.2-.21.2h-.21a.18.18,0,0,1-.18-.2Z" transform="translate(-14.11 0.07)"/><path class="cls-2" d="M181.8,148.73a2.73,2.73,0,0,1,2.79,2.83c0,.25,0,.61-.23.61h-5a2.47,2.47,0,0,0,2.42,2.5,3.38,3.38,0,0,0,1.91-.62c.14-.08.21-.09.27,0l.15.23c.06.05,0,.16-.07.24a4,4,0,0,1-2.26.73,3.27,3.27,0,0,1,0-6.52Zm2.2,2.89a2.17,2.17,0,0,0-2.2-2.31,2.38,2.38,0,0,0-2.41,2.31Z" transform="translate(-14.11 0.07)"/><path class="cls-2" d="M189.67,145.85a.19.19,0,0,1,.2-.2h.19a.21.21,0,0,1,.2.2v9.05a.18.18,0,0,1-.2.2h-.22c-.12,0-.17-.09-.17-.2Z" transform="translate(-14.11 0.07)"/><path class="cls-2" d="M194.58,151.08a5.86,5.86,0,0,1,1.61.28c0-1.25-.33-2.08-1.66-2.08a4.24,4.24,0,0,0-1.61.42c-.14.05-.2,0-.24-.09l-.09-.19a.17.17,0,0,1,.1-.23,4.11,4.11,0,0,1,1.89-.46c1.88,0,2.2,1.23,2.2,2.71v3.5c0,.15-.05.22-.18.22s-.39-.26-.39-.69v-.1h0a3.23,3.23,0,0,1-2.19.89,1.93,1.93,0,0,1-2-2.07C192,152,193,151.08,194.58,151.08Zm-.5,3.59a3,3,0,0,0,2.11-.94v-1.8a4.27,4.27,0,0,0-1.61-.32c-1.19,0-2,.64-2,1.56A1.45,1.45,0,0,0,194.08,154.67Z" transform="translate(-14.11 0.07)"/><path class="cls-2" d="M205,148.73a3,3,0,0,1,2.29,1,.19.19,0,0,1,0,.28l-.11.11c-.12.12-.23.08-.34,0a2.7,2.7,0,0,0-1.83-.74,2.68,2.68,0,0,0,0,5.36,2.62,2.62,0,0,0,2-1c.11-.12.21-.11.3,0l.12.11c.08.08.1.16,0,.24a3.11,3.11,0,0,1-2.44,1.2,3.26,3.26,0,0,1,0-6.52Z" transform="translate(-14.11 0.07)"/><path class="cls-2" d="M211.33,151.08a5.78,5.78,0,0,1,1.61.28c0-1.25-.32-2.08-1.66-2.08a4.24,4.24,0,0,0-1.61.42.16.16,0,0,1-.24-.09l-.08-.19c-.06-.12,0-.19.09-.23a4.11,4.11,0,0,1,1.89-.46c1.88,0,2.2,1.23,2.2,2.71v3.5c0,.15-.05.22-.17.22s-.39-.26-.39-.69v-.1h0a3.23,3.23,0,0,1-2.18.89,1.94,1.94,0,0,1-2-2.07C208.74,152,209.7,151.08,211.33,151.08Zm-.5,3.59a3,3,0,0,0,2.11-.94v-1.8a4.17,4.17,0,0,0-1.61-.32c-1.19,0-2,.64-2,1.56A1.45,1.45,0,0,0,210.83,154.67Z" transform="translate(-14.11 0.07)"/><path class="cls-2" d="M215.72,145.85a.19.19,0,0,1,.2-.2h.19a.21.21,0,0,1,.2.2v9.05c0,.14-.06.2-.2.2h-.21c-.13,0-.18-.09-.18-.2Z" transform="translate(-14.11 0.07)"/><path class="cls-2" d="M218.28,146.62a.53.53,0,0,1,.54-.52.52.52,0,0,1,.53.52.51.51,0,0,1-.53.51A.53.53,0,0,1,218.28,146.62Zm.26,2.45a.2.2,0,0,1,.2-.21h.19a.23.23,0,0,1,.21.21v5.83c0,.14-.07.2-.21.2h-.21a.18.18,0,0,1-.18-.2Z" transform="translate(-14.11 0.07)"/><path class="cls-2" d="M223.93,148.73a3.39,3.39,0,0,1,2,.61v-3.49a.19.19,0,0,1,.2-.2h.21a.21.21,0,0,1,.18.2v9.09c0,.15-.05.22-.17.22s-.39-.26-.39-.69v-.1a3.1,3.1,0,0,1-2.18.88,3,3,0,0,1-2.83-3.27A3.07,3.07,0,0,1,223.93,148.73Zm-.14,5.94a2.61,2.61,0,0,0,2.11-1V150a3,3,0,0,0-1.89-.7,2.56,2.56,0,0,0-2.5,2.67A2.5,2.5,0,0,0,223.79,154.67Z" transform="translate(-14.11 0.07)"/><path class="cls-2" d="M230.8,151.08a5.86,5.86,0,0,1,1.61.28c0-1.25-.33-2.08-1.66-2.08a4.24,4.24,0,0,0-1.61.42c-.14.05-.2,0-.24-.09l-.09-.19a.17.17,0,0,1,.1-.23,4.11,4.11,0,0,1,1.89-.46c1.88,0,2.2,1.23,2.2,2.71v3.5c0,.15-.05.22-.18.22s-.39-.26-.39-.69v-.1h0a3.23,3.23,0,0,1-2.19.89,1.93,1.93,0,0,1-2-2.07C228.21,152,229.17,151.08,230.8,151.08Zm-.5,3.59a3,3,0,0,0,2.11-.94v-1.8a4.27,4.27,0,0,0-1.61-.32c-1.19,0-2,.64-2,1.56A1.45,1.45,0,0,0,230.3,154.67Z" transform="translate(-14.11 0.07)"/><path class="cls-2" d="M237.79,148.73a3.39,3.39,0,0,1,2,.61v-3.49a.19.19,0,0,1,.21-.2h.2a.21.21,0,0,1,.19.2v9.09c0,.15-.06.22-.18.22s-.39-.26-.39-.69v-.1a3.07,3.07,0,0,1-2.17.88,3,3,0,0,1-2.84-3.27A3.07,3.07,0,0,1,237.79,148.73Zm-.13,5.94a2.58,2.58,0,0,0,2.1-1V150a3,3,0,0,0-1.89-.7,2.55,2.55,0,0,0-2.49,2.67A2.5,2.5,0,0,0,237.66,154.67Z" transform="translate(-14.11 0.07)"/><path class="cls-2" d="M271.87,126.83a.18.18,0,0,1,.17-.17H275a3,3,0,1,1,0,6.09H272.5v3.18a.19.19,0,0,1-.21.18H272a.18.18,0,0,1-.17-.18Zm3.05,5.29a2.4,2.4,0,0,0,2.44-2.45,2.36,2.36,0,0,0-2.45-2.38H272.5v4.83Z" transform="translate(-14.11 0.07)"/><path class="cls-2" d="M279.54,130c0-.15,0-.21.17-.21s.39.25.39.68v.14a2.57,2.57,0,0,1,2-.91,2.78,2.78,0,0,1,1,.18.22.22,0,0,1,.17.28l-.09.25c0,.12-.14.13-.25.08a1.88,1.88,0,0,0-.84-.2,2.28,2.28,0,0,0-1.89,1.06v4.53a.18.18,0,0,1-.2.2h-.22c-.12,0-.17-.1-.17-.2Z" transform="translate(-14.11 0.07)"/><path class="cls-2" d="M287,129.73A3.27,3.27,0,1,1,283.9,133,3.2,3.2,0,0,1,287,129.73Zm0,6a2.68,2.68,0,1,0-2.54-2.7A2.6,2.6,0,0,0,287,135.68Z" transform="translate(-14.11 0.07)"/><path class="cls-2" d="M292.56,139.12a.22.22,0,0,1-.21.2h-.18a.19.19,0,0,1-.2-.2V130c0-.15,0-.21.17-.21s.37.22.4.62a3.37,3.37,0,0,1,2.06-.71,3,3,0,0,1,3,3.25,3.13,3.13,0,0,1-3.11,3.28,3,3,0,0,1-1.89-.65Zm0-4.2a2.91,2.91,0,0,0,1.88.76A2.54,2.54,0,0,0,297,133a2.47,2.47,0,0,0-2.39-2.64,2.77,2.77,0,0,0-2,.82Z" transform="translate(-14.11 0.07)"/><path class="cls-2" d="M302.12,129.73A3.27,3.27,0,1,1,299,133,3.2,3.2,0,0,1,302.12,129.73Zm0,6a2.68,2.68,0,1,0-2.54-2.7A2.6,2.6,0,0,0,302.12,135.68Z" transform="translate(-14.11 0.07)"/><path class="cls-2" d="M307.06,130c0-.15.06-.21.18-.21s.39.25.39.68v.17a3,3,0,0,1,2.17-.94c1.77,0,2.35,1.1,2.35,2.73v3.45a.21.21,0,0,1-.2.2h-.19a.21.21,0,0,1-.2-.2v-3.42c0-1.45-.58-2.17-1.78-2.17a2.84,2.84,0,0,0-2.12,1.06v4.53a.18.18,0,0,1-.21.2h-.21a.18.18,0,0,1-.18-.2Z" transform="translate(-14.11 0.07)"/><path class="cls-2" d="M316.92,129.73a2.74,2.74,0,0,1,2.79,2.84c0,.24,0,.61-.23.61h-5a2.47,2.47,0,0,0,2.42,2.5,3.32,3.32,0,0,0,1.91-.63c.14-.08.21-.09.27,0l.15.23c.06.06,0,.17-.06.25a4,4,0,0,1-2.27.73,3.28,3.28,0,0,1,0-6.53Zm2.2,2.89a2.17,2.17,0,0,0-2.2-2.3,2.38,2.38,0,0,0-2.41,2.3Z" transform="translate(-14.11 0.07)"/><path class="cls-2" d="M321.45,130c0-.15.06-.21.18-.21s.39.25.39.68v.14a2.55,2.55,0,0,1,2-.91,2.78,2.78,0,0,1,1,.18.21.21,0,0,1,.16.28l-.08.25c0,.12-.15.13-.26.08a1.78,1.78,0,0,0-.83-.2,2.26,2.26,0,0,0-1.89,1.06v4.53a.18.18,0,0,1-.21.2h-.21a.18.18,0,0,1-.18-.2Z" transform="translate(-14.11 0.07)"/><path class="cls-2" d="M329.35,135.34l.12-.22a.18.18,0,0,1,.28,0,2.93,2.93,0,0,0,1.71.6c.94,0,1.55-.46,1.55-1.12s-.76-1.05-1.81-1.44-1.86-.83-1.86-1.81c0-.68.56-1.6,2-1.6a3.41,3.41,0,0,1,1.76.48.21.21,0,0,1,.08.28l-.08.15c0,.11-.16.11-.27.05a3.58,3.58,0,0,0-1.49-.4c-1,0-1.4.55-1.4,1,0,.63.62,1,1.54,1.3,1.16.43,2.13.78,2.13,2,0,.95-.89,1.68-2.14,1.68a3.17,3.17,0,0,1-2-.69A.18.18,0,0,1,329.35,135.34Z" transform="translate(-14.11 0.07)"/><path class="cls-2" d="M335.13,130.07a.2.2,0,0,1,.2-.2h.2a.19.19,0,0,1,.19.2v3.5c0,1.44.49,2.11,1.77,2.11a2.37,2.37,0,0,0,2-1.17v-4.44a.18.18,0,0,1,.21-.2h.2a.21.21,0,0,1,.19.2V136q0,.21-.18.21c-.19,0-.39-.25-.39-.69v-.13a2.62,2.62,0,0,1-2,.92c-1.76,0-2.32-.93-2.32-2.69Z" transform="translate(-14.11 0.07)"/><path class="cls-2" d="M341.81,135.34l.12-.22a.19.19,0,0,1,.29,0,2.86,2.86,0,0,0,1.7.6c.94,0,1.55-.46,1.55-1.12s-.76-1.05-1.81-1.44-1.86-.83-1.86-1.81c0-.68.56-1.6,2-1.6a3.4,3.4,0,0,1,1.75.48.2.2,0,0,1,.08.28l-.08.15c-.05.11-.16.11-.27.05a3.57,3.57,0,0,0-1.48-.4c-1,0-1.41.55-1.41,1,0,.63.62,1,1.54,1.3,1.16.43,2.13.78,2.13,2,0,.95-.89,1.68-2.14,1.68a3.2,3.2,0,0,1-2-.69A.18.18,0,0,1,341.81,135.34Z" transform="translate(-14.11 0.07)"/><path class="cls-2" d="M347.29,130.45c-.16,0-.2-.08-.2-.2V130c0-.12.08-.16.2-.16h.76v-1.7a.2.2,0,0,1,.21-.2l.18,0a.2.2,0,0,1,.2.2v1.72h2.2a.2.2,0,0,1,.22.2v.18a.2.2,0,0,1-.22.2h-2.2v4c0,.81.27,1.26,1.07,1.26a2.29,2.29,0,0,0,1.21-.44.16.16,0,0,1,.25.06l.1.19a.17.17,0,0,1,0,.24,2.82,2.82,0,0,1-1.53.53c-1.27,0-1.64-.83-1.64-1.84v-4Z" transform="translate(-14.11 0.07)"/><path class="cls-2" d="M352.41,127.63a.53.53,0,0,1,.54-.53.52.52,0,1,1,0,1A.53.53,0,0,1,352.41,127.63Zm.25,2.44a.2.2,0,0,1,.21-.2h.19a.21.21,0,0,1,.2.2v5.84a.18.18,0,0,1-.2.2h-.22a.18.18,0,0,1-.18-.2Z" transform="translate(-14.11 0.07)"/><path class="cls-2" d="M354.93,130.45c-.16,0-.2-.08-.2-.2V130c0-.12.08-.16.2-.16h.76v-1.7a.2.2,0,0,1,.21-.2l.18,0a.2.2,0,0,1,.2.2v1.72h2.2a.2.2,0,0,1,.22.2v.18a.2.2,0,0,1-.22.2h-2.2v4c0,.81.27,1.26,1.07,1.26a2.26,2.26,0,0,0,1.21-.44.16.16,0,0,1,.25.06l.11.19a.18.18,0,0,1-.06.24,2.81,2.81,0,0,1-1.52.53c-1.27,0-1.65-.83-1.65-1.84v-4Z" transform="translate(-14.11 0.07)"/><path class="cls-2" d="M360.16,130.07a.2.2,0,0,1,.2-.2h.2a.19.19,0,0,1,.19.2v3.5c0,1.44.49,2.11,1.77,2.11a2.39,2.39,0,0,0,2-1.17v-4.44a.18.18,0,0,1,.2-.2h.21a.2.2,0,0,1,.18.2V136c0,.14-.05.21-.17.21s-.39-.25-.39-.69v-.13a2.62,2.62,0,0,1-2,.92c-1.76,0-2.32-.93-2.32-2.69Z" transform="translate(-14.11 0.07)"/><path class="cls-2" d="M366.78,130.45c-.16,0-.2-.08-.2-.2V130c0-.12.08-.16.2-.16h.76v-1.7c0-.12.09-.19.22-.2l.17,0a.2.2,0,0,1,.2.2v1.72h2.21a.2.2,0,0,1,.21.2v.18a.19.19,0,0,1-.21.2h-2.21v4c0,.81.27,1.26,1.07,1.26a2.33,2.33,0,0,0,1.22-.44.15.15,0,0,1,.24.06l.11.19a.18.18,0,0,1-.06.24,2.81,2.81,0,0,1-1.52.53c-1.27,0-1.65-.83-1.65-1.84v-4Z" transform="translate(-14.11 0.07)"/><path class="cls-2" d="M374.68,129.73a3.27,3.27,0,0,1,0,6.53,3.27,3.27,0,0,1,0-6.53Zm0,6a2.68,2.68,0,1,0-2.54-2.7A2.6,2.6,0,0,0,374.68,135.68Z" transform="translate(-14.11 0.07)"/><path class="cls-2" d="M379.15,135.34l.12-.22a.19.19,0,0,1,.29,0,2.86,2.86,0,0,0,1.7.6c.94,0,1.55-.46,1.55-1.12s-.76-1.05-1.81-1.44-1.86-.83-1.86-1.81c0-.68.56-1.6,2-1.6a3.4,3.4,0,0,1,1.75.48.2.2,0,0,1,.08.28l-.08.15c-.05.11-.16.11-.27.05a3.57,3.57,0,0,0-1.48-.4c-1,0-1.41.55-1.41,1,0,.63.62,1,1.54,1.3,1.16.43,2.13.78,2.13,2,0,.95-.89,1.68-2.14,1.68a3.2,3.2,0,0,1-2-.69A.18.18,0,0,1,379.15,135.34Z" transform="translate(-14.11 0.07)"/><path class="cls-2" d="M292.43,148.73a3.39,3.39,0,0,1,2,.61v-3.49a.19.19,0,0,1,.2-.2h.21a.21.21,0,0,1,.18.2v9.09c0,.15-.05.22-.17.22s-.39-.26-.39-.69v-.1a3.1,3.1,0,0,1-2.18.88,3,3,0,0,1-2.83-3.27A3.07,3.07,0,0,1,292.43,148.73Zm-.14,5.94a2.61,2.61,0,0,0,2.11-1V150a3,3,0,0,0-1.89-.7A2.56,2.56,0,0,0,290,152,2.5,2.5,0,0,0,292.29,154.67Z" transform="translate(-14.11 0.07)"/><path class="cls-2" d="M299.84,148.73a2.74,2.74,0,0,1,2.8,2.83c0,.25,0,.61-.23.61h-5a2.47,2.47,0,0,0,2.42,2.5,3.39,3.39,0,0,0,1.92-.62c.13-.08.2-.09.27,0l.15.23c.05.05,0,.16-.07.24a4,4,0,0,1-2.27.73,3.27,3.27,0,0,1,0-6.52Zm2.2,2.89a2.17,2.17,0,0,0-2.2-2.31,2.38,2.38,0,0,0-2.4,2.31Z" transform="translate(-14.11 0.07)"/><path class="cls-2" d="M308.22,158.11a.23.23,0,0,1-.21.21h-.18a.2.2,0,0,1-.2-.21V149c0-.15.05-.22.17-.22s.37.23.4.62a3.38,3.38,0,0,1,2.06-.7,3,3,0,0,1,3,3.24,3.12,3.12,0,0,1-3.11,3.28,3,3,0,0,1-1.89-.65Zm0-4.2a2.85,2.85,0,0,0,1.88.76,2.53,2.53,0,0,0,2.52-2.71,2.46,2.46,0,0,0-2.39-2.65,2.81,2.81,0,0,0-2,.82Z" transform="translate(-14.11 0.07)"/><path class="cls-2" d="M315,149c0-.15,0-.22.18-.22s.39.26.39.69v.13a2.55,2.55,0,0,1,2-.9,2.92,2.92,0,0,1,1,.17.23.23,0,0,1,.16.29l-.08.24c0,.12-.15.14-.26.08a1.84,1.84,0,0,0-.84-.2,2.26,2.26,0,0,0-1.89,1.07v4.52c0,.14-.06.2-.2.2h-.21c-.13,0-.18-.09-.18-.2Z" transform="translate(-14.11 0.07)"/><path class="cls-2" d="M322.53,148.73A3.26,3.26,0,1,1,319.4,152,3.19,3.19,0,0,1,322.53,148.73Zm0,5.94A2.68,2.68,0,1,0,320,152,2.59,2.59,0,0,0,322.53,154.67Z" transform="translate(-14.11 0.07)"/><path class="cls-2" d="M330.11,148.73a3.39,3.39,0,0,1,2,.61v-3.49a.19.19,0,0,1,.2-.2h.2a.21.21,0,0,1,.19.2v9.09c0,.15-.05.22-.17.22s-.4-.26-.4-.69v-.1a3.13,3.13,0,1,1-2-5.64Zm-.14,5.94a2.61,2.61,0,0,0,2.11-1V150a3,3,0,0,0-1.89-.7,2.56,2.56,0,0,0-2.5,2.67A2.5,2.5,0,0,0,330,154.67Z" transform="translate(-14.11 0.07)"/><path class="cls-2" d="M334.82,149.07a.21.21,0,0,1,.2-.21h.2a.2.2,0,0,1,.19.21v3.49c0,1.45.49,2.11,1.77,2.11a2.39,2.39,0,0,0,2-1.16v-4.44a.18.18,0,0,1,.2-.21h.21a.22.22,0,0,1,.19.21v5.87c0,.15-.06.22-.18.22s-.39-.26-.39-.69v-.14a2.62,2.62,0,0,1-2,.92c-1.76,0-2.32-.93-2.32-2.69Z" transform="translate(-14.11 0.07)"/><path class="cls-2" d="M344.78,148.73a3,3,0,0,1,2.3,1,.19.19,0,0,1,0,.28l-.1.11c-.13.12-.23.08-.34,0a2.73,2.73,0,0,0-1.84-.74,2.68,2.68,0,1,0,2,4.4.17.17,0,0,1,.29,0l.13.11a.18.18,0,0,1,0,.24,3.13,3.13,0,0,1-2.45,1.2,3.26,3.26,0,0,1,0-6.52Z" transform="translate(-14.11 0.07)"/><path class="cls-2" d="M348.53,149.44c-.16,0-.2-.08-.2-.2V149c0-.13.08-.17.2-.17h.76v-1.7a.2.2,0,0,1,.21-.2h.18c.11,0,.2.09.2.2v1.71h2.2a.21.21,0,0,1,.22.21v.17a.2.2,0,0,1-.22.2h-2.2v4c0,.81.27,1.26,1.07,1.26a2.43,2.43,0,0,0,1.22-.43c.13-.08.2,0,.24,0l.11.19a.17.17,0,0,1-.06.24,2.81,2.81,0,0,1-1.52.53c-1.27,0-1.65-.82-1.65-1.84v-4Z" transform="translate(-14.11 0.07)"/><path class="cls-2" d="M356.43,148.73A3.26,3.26,0,1,1,353.3,152,3.19,3.19,0,0,1,356.43,148.73Zm0,5.94a2.68,2.68,0,1,0-2.54-2.7A2.59,2.59,0,0,0,356.43,154.67Z" transform="translate(-14.11 0.07)"/><path class="cls-2" d="M360.9,154.33l.12-.21a.18.18,0,0,1,.28,0,2.92,2.92,0,0,0,1.71.61c.94,0,1.55-.46,1.55-1.12s-.76-1.06-1.81-1.45-1.86-.82-1.86-1.81c0-.67.56-1.59,2-1.59a3.42,3.42,0,0,1,1.76.47.22.22,0,0,1,.08.28l-.08.15c-.05.11-.16.11-.27.06a3.54,3.54,0,0,0-1.49-.41c-1,0-1.4.56-1.4,1,0,.62.62,1,1.54,1.3,1.16.43,2.13.78,2.13,2,0,.94-.89,1.67-2.14,1.67a3.17,3.17,0,0,1-2-.69A.16.16,0,0,1,360.9,154.33Z" transform="translate(-14.11 0.07)"/><path class="cls-2" d="M408.11,126.52a4.86,4.86,0,1,1-4.86,4.88A4.85,4.85,0,0,1,408.11,126.52Zm0,9.13a4.27,4.27,0,1,0-4.27-4.25A4.26,4.26,0,0,0,408.11,135.65Z" transform="translate(-14.11 0.07)"/><path class="cls-2" d="M415.37,130.45h-1a.19.19,0,0,1-.19-.2v-.18a.19.19,0,0,1,.19-.2h1v-1c0-1.47.69-2.39,2-2.39a2.5,2.5,0,0,1,1.74.66c.08.1.1.2,0,.26l-.13.16c-.08.1-.16.1-.27,0a2.21,2.21,0,0,0-1.38-.51c-1,0-1.44.65-1.44,1.81v1h2.35a.18.18,0,0,1,.21.19v.21c0,.1-.07.18-.21.18H416v5.46a.2.2,0,0,1-.21.2h-.2a.21.21,0,0,1-.19-.2Z" transform="translate(-14.11 0.07)"/><path class="cls-2" d="M419.94,130c0-.15.05-.21.17-.21s.39.25.39.68v.14a2.57,2.57,0,0,1,2-.91,2.78,2.78,0,0,1,1,.18.21.21,0,0,1,.16.28l-.08.25c0,.12-.14.13-.25.08a1.88,1.88,0,0,0-.84-.2,2.26,2.26,0,0,0-1.89,1.06v4.53a.18.18,0,0,1-.2.2h-.22c-.12,0-.17-.1-.17-.2Z" transform="translate(-14.11 0.07)"/><path class="cls-2" d="M427.35,129.73a2.74,2.74,0,0,1,2.79,2.84c0,.24,0,.61-.23.61h-5a2.47,2.47,0,0,0,2.42,2.5,3.38,3.38,0,0,0,1.92-.63c.13-.08.2-.09.27,0l.14.23c.06.06,0,.17-.06.25a4,4,0,0,1-2.27.73,3.28,3.28,0,0,1,0-6.53Zm2.2,2.89a2.17,2.17,0,0,0-2.2-2.3,2.38,2.38,0,0,0-2.41,2.3Z" transform="translate(-14.11 0.07)"/><path class="cls-2" d="M434.72,129.73a3,3,0,0,1,2.29,1,.2.2,0,0,1,0,.29l-.11.1c-.12.13-.23.09-.34,0a2.7,2.7,0,0,0-1.83-.74,2.68,2.68,0,0,0,0,5.36,2.62,2.62,0,0,0,2-1c.11-.12.21-.11.3,0l.12.11c.08.08.1.16,0,.24a3.11,3.11,0,0,1-2.44,1.21,3.27,3.27,0,0,1,0-6.53Z" transform="translate(-14.11 0.07)"/><path class="cls-2" d="M441.35,129.73a2.74,2.74,0,0,1,2.79,2.84c0,.24,0,.61-.23.61h-5a2.47,2.47,0,0,0,2.42,2.5,3.35,3.35,0,0,0,1.91-.63c.14-.08.21-.09.27,0l.15.23c.06.06,0,.17-.06.25a4,4,0,0,1-2.27.73,3.28,3.28,0,0,1,0-6.53Zm2.2,2.89a2.17,2.17,0,0,0-2.2-2.3,2.38,2.38,0,0,0-2.41,2.3Z" transform="translate(-14.11 0.07)"/><path class="cls-2" d="M445.88,130c0-.15.06-.21.18-.21s.39.25.39.68v.14a2.55,2.55,0,0,1,2-.91,2.78,2.78,0,0,1,1,.18.22.22,0,0,1,.16.28l-.08.25c0,.12-.15.13-.26.08a1.78,1.78,0,0,0-.83-.2,2.26,2.26,0,0,0-1.89,1.06v4.53a.18.18,0,0,1-.21.2h-.21a.18.18,0,0,1-.18-.2Z" transform="translate(-14.11 0.07)"/><path class="cls-2" d="M454.77,139.12a.23.23,0,0,1-.22.2h-.18a.19.19,0,0,1-.2-.2V130c0-.15.06-.21.18-.21s.36.22.39.62a3.37,3.37,0,0,1,2.06-.71,3,3,0,0,1,3,3.25,3.12,3.12,0,0,1-3.1,3.28,3,3,0,0,1-1.89-.65Zm0-4.2a2.87,2.87,0,0,0,1.87.76,2.54,2.54,0,0,0,2.53-2.72,2.47,2.47,0,0,0-2.39-2.64,2.76,2.76,0,0,0-2,.82Z" transform="translate(-14.11 0.07)"/><path class="cls-2" d="M461.6,130c0-.15,0-.21.17-.21s.39.25.39.68v.14a2.57,2.57,0,0,1,2-.91,2.78,2.78,0,0,1,1,.18.22.22,0,0,1,.17.28l-.09.25c0,.12-.14.13-.25.08a1.88,1.88,0,0,0-.84-.2,2.28,2.28,0,0,0-1.89,1.06v4.53a.18.18,0,0,1-.2.2h-.22c-.12,0-.17-.1-.17-.2Z" transform="translate(-14.11 0.07)"/><path class="cls-2" d="M469.09,129.73A3.27,3.27,0,1,1,466,133,3.2,3.2,0,0,1,469.09,129.73Zm0,6a2.68,2.68,0,1,0-2.54-2.7A2.6,2.6,0,0,0,469.09,135.68Z" transform="translate(-14.11 0.07)"/><path class="cls-2" d="M476.66,129.73a3.39,3.39,0,0,1,2,.61v-3.48a.19.19,0,0,1,.21-.2h.2a.21.21,0,0,1,.19.2V136q0,.21-.18.21c-.19,0-.39-.25-.39-.69v-.09a3.07,3.07,0,0,1-2.17.88,3,3,0,0,1-2.84-3.27A3.07,3.07,0,0,1,476.66,129.73Zm-.13,6a2.55,2.55,0,0,0,2.1-1.06V131a3,3,0,0,0-1.89-.7,2.55,2.55,0,0,0-2.49,2.67A2.5,2.5,0,0,0,476.53,135.68Z" transform="translate(-14.11 0.07)"/><path class="cls-2" d="M481.37,130.07a.21.21,0,0,1,.21-.2h.2a.19.19,0,0,1,.19.2v3.5c0,1.44.48,2.11,1.77,2.11a2.39,2.39,0,0,0,2-1.17v-4.44a.18.18,0,0,1,.2-.2h.2a.2.2,0,0,1,.19.2V136c0,.14-.05.21-.17.21s-.4-.25-.4-.69v-.13a2.6,2.6,0,0,1-2,.92c-1.76,0-2.33-.93-2.33-2.69Z" transform="translate(-14.11 0.07)"/><path class="cls-2" d="M491.34,129.73a3,3,0,0,1,2.29,1,.2.2,0,0,1,0,.29l-.11.1c-.12.13-.23.09-.34,0a2.72,2.72,0,0,0-1.83-.74,2.68,2.68,0,1,0,2,4.4.18.18,0,0,1,.3,0l.12.11a.18.18,0,0,1,0,.24,3.13,3.13,0,0,1-2.44,1.21,3.27,3.27,0,0,1,0-6.53Z" transform="translate(-14.11 0.07)"/><path class="cls-2" d="M495.09,130.45c-.16,0-.2-.08-.2-.2V130c0-.12.08-.16.2-.16h.75v-1.7a.21.21,0,0,1,.22-.2l.18,0a.21.21,0,0,1,.2.2v1.72h2.2a.21.21,0,0,1,.22.2v.18a.2.2,0,0,1-.22.2h-2.2v4c0,.81.27,1.26,1.07,1.26a2.29,2.29,0,0,0,1.21-.44c.14-.08.2,0,.24.06l.11.19a.17.17,0,0,1-.05.24,2.85,2.85,0,0,1-1.53.53c-1.27,0-1.65-.83-1.65-1.84v-4Z" transform="translate(-14.11 0.07)"/><path class="cls-2" d="M503,129.73a3.27,3.27,0,1,1-3.14,3.25A3.2,3.2,0,0,1,503,129.73Zm0,6a2.68,2.68,0,1,0-2.54-2.7A2.6,2.6,0,0,0,503,135.68Z" transform="translate(-14.11 0.07)"/><path class="cls-2" d="M507.45,135.34l.13-.22c.05-.09.17-.11.28,0a2.86,2.86,0,0,0,1.7.6c.95,0,1.55-.46,1.55-1.12s-.75-1.05-1.81-1.44-1.86-.83-1.86-1.81c0-.68.57-1.6,2-1.6a3.47,3.47,0,0,1,1.76.48.22.22,0,0,1,.08.28l-.08.15a.18.18,0,0,1-.27.05,3.63,3.63,0,0,0-1.49-.4c-1,0-1.4.55-1.4,1,0,.63.62,1,1.53,1.3,1.17.43,2.14.78,2.14,2,0,.95-.89,1.68-2.15,1.68a3.22,3.22,0,0,1-2-.69A.18.18,0,0,1,507.45,135.34Z" transform="translate(-14.11 0.07)"/><path class="cls-2" d="M420.71,148.73a2.73,2.73,0,0,1,2.79,2.83c0,.25,0,.61-.23.61h-5a2.47,2.47,0,0,0,2.42,2.5,3.35,3.35,0,0,0,1.91-.62c.14-.08.21-.09.27,0l.15.23c.06.05,0,.16-.07.24a4,4,0,0,1-2.26.73,3.27,3.27,0,0,1,0-6.52Zm2.2,2.89a2.17,2.17,0,0,0-2.2-2.31,2.38,2.38,0,0,0-2.41,2.31Z" transform="translate(-14.11 0.07)"/><path class="cls-2" d="M425.24,149c0-.15.05-.22.18-.22s.39.26.39.69v.16a3,3,0,0,1,2.17-.93c1.77,0,2.35,1.09,2.35,2.73v3.44a.2.2,0,0,1-.2.2h-.19a.2.2,0,0,1-.2-.2v-3.42c0-1.44-.58-2.17-1.78-2.17a2.86,2.86,0,0,0-2.13,1.07v4.52c0,.14-.06.2-.2.2h-.21c-.13,0-.18-.09-.18-.2Z" transform="translate(-14.11 0.07)"/><path class="cls-2" d="M436.36,158.11a.23.23,0,0,1-.21.21H436a.2.2,0,0,1-.2-.21V149c0-.15.05-.22.18-.22s.36.23.39.62a3.38,3.38,0,0,1,2.06-.7,3,3,0,0,1,3,3.24,3.12,3.12,0,0,1-3.1,3.28,3,3,0,0,1-1.9-.65Zm0-4.2a2.88,2.88,0,0,0,1.88.76,2.54,2.54,0,0,0,2.53-2.71,2.47,2.47,0,0,0-2.39-2.65,2.84,2.84,0,0,0-2,.82Z" transform="translate(-14.11 0.07)"/><path class="cls-2" d="M443.2,149c0-.15.05-.22.17-.22s.39.26.39.69v.13a2.57,2.57,0,0,1,2-.9,2.86,2.86,0,0,1,1,.17.22.22,0,0,1,.16.29l-.08.24c0,.12-.14.14-.25.08a1.88,1.88,0,0,0-.84-.2,2.24,2.24,0,0,0-1.89,1.07v4.52a.18.18,0,0,1-.2.2h-.22c-.12,0-.17-.09-.17-.2Z" transform="translate(-14.11 0.07)"/><path class="cls-2" d="M450.69,148.73a3.26,3.26,0,1,1-3.13,3.24A3.19,3.19,0,0,1,450.69,148.73Zm0,5.94a2.68,2.68,0,1,0-2.54-2.7A2.59,2.59,0,0,0,450.69,154.67Z" transform="translate(-14.11 0.07)"/><path class="cls-2" d="M455.62,149c0-.15.05-.22.17-.22s.39.26.39.69v.15a2.55,2.55,0,0,1,2-.92,2,2,0,0,1,1.93,1.11,2.77,2.77,0,0,1,2.19-1.11c1.7,0,2.26,1.15,2.26,2.75v3.42a.2.2,0,0,1-.21.2h-.23c-.09,0-.16-.06-.16-.2v-3.42c0-1.44-.54-2.17-1.71-2.17a2.43,2.43,0,0,0-1.94,1.09,3.6,3.6,0,0,1,.13,1.08v3.42a.22.22,0,0,1-.21.2h-.2c-.12,0-.19-.06-.19-.2v-3.42c0-1.44-.55-2.17-1.73-2.17a2.23,2.23,0,0,0-1.94,1.07v4.52a.18.18,0,0,1-.2.2h-.22c-.12,0-.17-.09-.17-.2Z" transform="translate(-14.11 0.07)"/><path class="cls-2" d="M469.48,148.73a3.26,3.26,0,1,1-3.13,3.24A3.19,3.19,0,0,1,469.48,148.73Zm0,5.94a2.68,2.68,0,1,0-2.54-2.7A2.59,2.59,0,0,0,469.48,154.67Z" transform="translate(-14.11 0.07)"/><path class="cls-2" d="M477.24,148.73a3,3,0,0,1,2.3,1,.19.19,0,0,1,0,.28l-.1.11c-.12.12-.23.08-.34,0a2.73,2.73,0,0,0-1.84-.74,2.68,2.68,0,1,0,2,4.4c.11-.12.2-.11.29,0l.13.11a.18.18,0,0,1,0,.24,3.13,3.13,0,0,1-2.45,1.2,3.26,3.26,0,0,1,0-6.52Z" transform="translate(-14.11 0.07)"/><path class="cls-2" d="M481,146.62a.53.53,0,0,1,.54-.52.52.52,0,0,1,.53.52.51.51,0,0,1-.53.51A.52.52,0,0,1,481,146.62Zm.26,2.45a.2.2,0,0,1,.2-.21h.19a.22.22,0,0,1,.2.21v5.83a.18.18,0,0,1-.2.2h-.22c-.12,0-.17-.09-.17-.2Z" transform="translate(-14.11 0.07)"/><path class="cls-2" d="M486.73,148.73A3.26,3.26,0,1,1,483.6,152,3.19,3.19,0,0,1,486.73,148.73Zm0,5.94a2.68,2.68,0,1,0-2.54-2.7A2.59,2.59,0,0,0,486.73,154.67Zm-1-7.14a.19.19,0,0,1-.27-.1.21.21,0,0,1,.09-.3l2.16-1.17a.27.27,0,0,1,.39.14.28.28,0,0,1-.12.44Z" transform="translate(-14.11 0.07)"/><path class="cls-2" d="M491.67,149c0-.15.06-.22.18-.22s.39.26.39.69v.16a3,3,0,0,1,2.17-.93c1.77,0,2.35,1.09,2.35,2.73v3.44a.2.2,0,0,1-.2.2h-.19a.2.2,0,0,1-.2-.2v-3.42c0-1.44-.58-2.17-1.78-2.17a2.8,2.8,0,0,0-2.12,1.07v4.52c0,.14-.07.2-.21.2h-.21a.18.18,0,0,1-.18-.2Z" transform="translate(-14.11 0.07)"/><path class="cls-2" d="M547,136l4.16-9.33a.17.17,0,0,1,.16-.1h0a.16.16,0,0,1,.17.1l4.12,9.33c0,.08,0,.16-.12.16h-.35A.24.24,0,0,1,555,136l-1.09-2.49h-5.16L547.66,136a.24.24,0,0,1-.19.12h-.38C547,136.11,547,136.05,547,136Zm6.67-3-2.31-5.38h0L549,133Z" transform="translate(-14.11 0.07)"/><path class="cls-2" d="M559.24,139.07a3.27,3.27,0,0,1-2.1-.81c-.1-.1-.08-.15,0-.23l.13-.18c.09-.09.15-.09.27,0a3,3,0,0,0,1.73.64,2,2,0,0,0,2.18-2.22v-.66a3,3,0,0,1-1.89.65,3.13,3.13,0,0,1-3.11-3.28,3,3,0,0,1,3-3.25,3.37,3.37,0,0,1,2.06.71c0-.4.22-.62.4-.62s.17.06.17.21v6.24A2.62,2.62,0,0,1,559.24,139.07Zm2.18-7.93a2.77,2.77,0,0,0-2-.82A2.47,2.47,0,0,0,557,133a2.54,2.54,0,0,0,2.53,2.72,2.91,2.91,0,0,0,1.88-.76Z" transform="translate(-14.11 0.07)"/><path class="cls-2" d="M564.2,130c0-.15,0-.21.17-.21s.39.25.39.68v.14a2.57,2.57,0,0,1,2-.91,2.78,2.78,0,0,1,1,.18.22.22,0,0,1,.17.28l-.09.25c0,.12-.14.13-.25.08a1.88,1.88,0,0,0-.84-.2,2.28,2.28,0,0,0-1.89,1.06v4.53a.18.18,0,0,1-.2.2h-.22c-.12,0-.17-.1-.17-.2Z" transform="translate(-14.11 0.07)"/><path class="cls-2" d="M571.61,129.73a2.74,2.74,0,0,1,2.79,2.84c0,.24,0,.61-.23.61h-5a2.47,2.47,0,0,0,2.42,2.5,3.38,3.38,0,0,0,1.92-.63c.13-.08.2-.09.27,0l.14.23c.06.06,0,.17-.06.25a4,4,0,0,1-2.27.73,3.28,3.28,0,0,1,0-6.53Zm2.2,2.89a2.17,2.17,0,0,0-2.2-2.3,2.39,2.39,0,0,0-2.41,2.3Z" transform="translate(-14.11 0.07)"/><path class="cls-2" d="M578.57,139.07a3.27,3.27,0,0,1-2.1-.81c-.1-.1-.08-.15,0-.23l.14-.18c.08-.09.14-.09.27,0a3,3,0,0,0,1.72.64,2,2,0,0,0,2.18-2.22v-.66a3,3,0,0,1-1.89.65,3.13,3.13,0,0,1-3.11-3.28,3,3,0,0,1,3-3.25,3.43,3.43,0,0,1,2.07.71c0-.4.21-.62.39-.62s.17.06.17.21v6.24A2.62,2.62,0,0,1,578.57,139.07Zm2.18-7.93a2.76,2.76,0,0,0-2-.82,2.47,2.47,0,0,0-2.39,2.64,2.54,2.54,0,0,0,2.52,2.72,2.88,2.88,0,0,0,1.88-.76Z" transform="translate(-14.11 0.07)"/><path class="cls-2" d="M585.63,132.08a5.32,5.32,0,0,1,1.61.29c0-1.26-.32-2.08-1.66-2.08a4.3,4.3,0,0,0-1.61.42.16.16,0,0,1-.24-.1l-.08-.19a.18.18,0,0,1,.09-.23,4.26,4.26,0,0,1,1.89-.46c1.88,0,2.21,1.23,2.21,2.72V136q0,.21-.18.21c-.19,0-.39-.25-.39-.69v-.09h0a3.28,3.28,0,0,1-2.19.89,2,2,0,0,1-2-2.07C583,133,584,132.08,585.63,132.08Zm-.49,3.6a3,3,0,0,0,2.1-1v-1.8a4.37,4.37,0,0,0-1.61-.32c-1.18,0-2,.65-2,1.57A1.45,1.45,0,0,0,585.14,135.68Z" transform="translate(-14.11 0.07)"/><path class="cls-2" d="M590,130c0-.15.06-.21.18-.21s.39.25.39.68v.14a2.55,2.55,0,0,1,2-.91,2.78,2.78,0,0,1,1,.18.22.22,0,0,1,.16.28l-.08.25c0,.12-.15.13-.26.08a1.78,1.78,0,0,0-.83-.2,2.26,2.26,0,0,0-1.89,1.06v4.53a.18.18,0,0,1-.21.2h-.21a.18.18,0,0,1-.18-.2Z" transform="translate(-14.11 0.07)"/><path class="cls-2" d="M600.32,132.08a5.32,5.32,0,0,1,1.61.29c0-1.26-.33-2.08-1.66-2.08a4.24,4.24,0,0,0-1.61.42.16.16,0,0,1-.24-.1l-.08-.19a.16.16,0,0,1,.09-.23,4.26,4.26,0,0,1,1.89-.46c1.88,0,2.2,1.23,2.2,2.72V136c0,.14,0,.21-.17.21s-.39-.25-.39-.69v-.09h0a3.23,3.23,0,0,1-2.19.89,1.94,1.94,0,0,1-2-2.07C597.73,133,598.69,132.08,600.32,132.08Zm-.5,3.6a3,3,0,0,0,2.11-1v-1.8a4.43,4.43,0,0,0-1.61-.32c-1.19,0-2,.65-2,1.57A1.45,1.45,0,0,0,599.82,135.68Z" transform="translate(-14.11 0.07)"/><path class="cls-2" d="M604.71,126.86a.19.19,0,0,1,.2-.2h.19a.21.21,0,0,1,.2.2v9a.18.18,0,0,1-.2.2h-.22c-.12,0-.17-.1-.17-.2Z" transform="translate(-14.11 0.07)"/><path class="cls-2" d="M610,139.07a3.3,3.3,0,0,1-2.11-.81c-.09-.1-.08-.15,0-.23l.14-.18c.08-.09.15-.09.27,0a3,3,0,0,0,1.73.64,2,2,0,0,0,2.17-2.22v-.66a3,3,0,0,1-1.89.65,3.12,3.12,0,0,1-3.1-3.28,3,3,0,0,1,3-3.25,3.4,3.4,0,0,1,2.07.71c0-.4.22-.62.39-.62s.18.06.18.21v6.24A2.62,2.62,0,0,1,610,139.07Zm2.17-7.93a2.76,2.76,0,0,0-2-.82,2.47,2.47,0,0,0-2.39,2.64,2.54,2.54,0,0,0,2.53,2.72,2.87,2.87,0,0,0,1.87-.76Z" transform="translate(-14.11 0.07)"/><path class="cls-2" d="M614.9,130.07a.21.21,0,0,1,.2-.2h.21a.2.2,0,0,1,.19.2v3.5c0,1.44.48,2.11,1.76,2.11a2.4,2.4,0,0,0,2-1.17v-4.44a.18.18,0,0,1,.2-.2h.2a.2.2,0,0,1,.19.2V136c0,.14-.05.21-.18.21s-.39-.25-.39-.69v-.13a2.62,2.62,0,0,1-2,.92c-1.75,0-2.32-.93-2.32-2.69Zm1.45-1.54a.18.18,0,0,1-.27-.09.21.21,0,0,1,.09-.3l2.16-1.17a.27.27,0,0,1,.39.13c.1.19.07.37-.12.45Z" transform="translate(-14.11 0.07)"/><path class="cls-2" d="M622,130c0-.15.05-.21.17-.21s.39.25.39.68v.17a3,3,0,0,1,2.18-.94c1.77,0,2.35,1.1,2.35,2.73v3.45a.22.22,0,0,1-.21.2h-.18a.22.22,0,0,1-.21-.2v-3.42c0-1.45-.58-2.17-1.78-2.17a2.84,2.84,0,0,0-2.12,1.06v4.53a.18.18,0,0,1-.2.2h-.22c-.12,0-.17-.1-.17-.2Z" transform="translate(-14.11 0.07)"/><path class="cls-2" d="M535.58,158.11a.24.24,0,0,1-.22.21h-.17a.2.2,0,0,1-.21-.21V149c0-.15.06-.22.18-.22s.36.23.39.62a3.41,3.41,0,0,1,2.07-.7,3,3,0,0,1,3,3.24,3.12,3.12,0,0,1-3.1,3.28,3,3,0,0,1-1.89-.65Zm0-4.2a2.82,2.82,0,0,0,1.87.76A2.54,2.54,0,0,0,540,152a2.47,2.47,0,0,0-2.39-2.65,2.81,2.81,0,0,0-2,.82Z" transform="translate(-14.11 0.07)"/><path class="cls-2" d="M542.41,149c0-.15.05-.22.17-.22s.39.26.39.69v.13a2.59,2.59,0,0,1,2-.9,2.86,2.86,0,0,1,1,.17.23.23,0,0,1,.17.29l-.08.24c0,.12-.15.14-.26.08a1.88,1.88,0,0,0-.84-.2,2.26,2.26,0,0,0-1.89,1.07v4.52a.18.18,0,0,1-.2.2h-.22c-.12,0-.17-.09-.17-.2Z" transform="translate(-14.11 0.07)"/><path class="cls-2" d="M549.9,148.73a3.26,3.26,0,1,1-3.13,3.24A3.19,3.19,0,0,1,549.9,148.73Zm0,5.94a2.68,2.68,0,1,0-2.54-2.7A2.59,2.59,0,0,0,549.9,154.67Z" transform="translate(-14.11 0.07)"/><path class="cls-2" d="M557.47,148.73a3.41,3.41,0,0,1,2,.61v-3.49a.18.18,0,0,1,.2-.2h.2a.21.21,0,0,1,.19.2v9.09c0,.15,0,.22-.18.22s-.39-.26-.39-.69v-.1a3.07,3.07,0,0,1-2.17.88,3,3,0,0,1-2.84-3.27A3.08,3.08,0,0,1,557.47,148.73Zm-.13,5.94a2.63,2.63,0,0,0,2.11-1V150a3,3,0,0,0-1.89-.7,2.55,2.55,0,0,0-2.5,2.67A2.5,2.5,0,0,0,557.34,154.67Z" transform="translate(-14.11 0.07)"/><path class="cls-2" d="M562.18,149.07a.22.22,0,0,1,.21-.21h.2a.2.2,0,0,1,.19.21v3.49c0,1.45.48,2.11,1.77,2.11a2.41,2.41,0,0,0,2-1.16v-4.44a.18.18,0,0,1,.2-.21h.2a.21.21,0,0,1,.19.21v5.87c0,.15-.05.22-.17.22s-.39-.26-.39-.69v-.14a2.62,2.62,0,0,1-2,.92c-1.76,0-2.33-.93-2.33-2.69Z" transform="translate(-14.11 0.07)"/><path class="cls-2" d="M572.15,148.73a3,3,0,0,1,2.29,1,.19.19,0,0,1,0,.28l-.11.11c-.12.12-.23.08-.34,0a2.7,2.7,0,0,0-1.83-.74,2.68,2.68,0,0,0,0,5.36,2.62,2.62,0,0,0,2-1c.11-.12.21-.11.3,0l.12.11c.08.08.1.16,0,.24a3.11,3.11,0,0,1-2.44,1.2,3.26,3.26,0,0,1,0-6.52Z" transform="translate(-14.11 0.07)"/><path class="cls-2" d="M575.9,149.44c-.16,0-.2-.08-.2-.2V149c0-.13.08-.17.2-.17h.76v-1.7a.2.2,0,0,1,.21-.2h.18c.11,0,.2.09.2.2v1.71h2.2a.21.21,0,0,1,.22.21v.17a.2.2,0,0,1-.22.2h-2.2v4c0,.81.27,1.26,1.07,1.26a2.38,2.38,0,0,0,1.21-.43c.14-.08.21,0,.25,0l.1.19a.16.16,0,0,1,0,.24,2.82,2.82,0,0,1-1.53.53c-1.27,0-1.64-.82-1.64-1.84v-4Z" transform="translate(-14.11 0.07)"/><path class="cls-2" d="M583.8,148.73a3.26,3.26,0,1,1-3.13,3.24A3.19,3.19,0,0,1,583.8,148.73Zm0,5.94a2.68,2.68,0,1,0-2.54-2.7A2.59,2.59,0,0,0,583.8,154.67Z" transform="translate(-14.11 0.07)"/><path class="cls-2" d="M594.06,151.08a6,6,0,0,1,1.61.28c0-1.25-.33-2.08-1.67-2.08a4.17,4.17,0,0,0-1.6.42c-.14.05-.21,0-.25-.09l-.08-.19a.17.17,0,0,1,.1-.23,4.11,4.11,0,0,1,1.89-.46c1.88,0,2.2,1.23,2.2,2.71v3.5c0,.15,0,.22-.18.22s-.39-.26-.39-.69v-.1h0a3.23,3.23,0,0,1-2.19.89,1.93,1.93,0,0,1-2-2.07C591.47,152,592.42,151.08,594.06,151.08Zm-.5,3.59a3,3,0,0,0,2.11-.94v-1.8a4.27,4.27,0,0,0-1.61-.32c-1.19,0-2,.64-2,1.56A1.45,1.45,0,0,0,593.56,154.67Z" transform="translate(-14.11 0.07)"/><path class="cls-2" d="M601.05,148.73a3.39,3.39,0,0,1,2,.61v-3.49a.19.19,0,0,1,.21-.2h.2a.21.21,0,0,1,.19.2v9.09c0,.15-.06.22-.18.22s-.39-.26-.39-.69v-.1a3.07,3.07,0,0,1-2.17.88A3,3,0,0,1,598,152,3.07,3.07,0,0,1,601.05,148.73Zm-.13,5.94a2.58,2.58,0,0,0,2.1-1V150a3,3,0,0,0-1.89-.7,2.56,2.56,0,0,0-2.5,2.67A2.51,2.51,0,0,0,600.92,154.67Z" transform="translate(-14.11 0.07)"/><path class="cls-2" d="M605.56,146.62a.53.53,0,0,1,.54-.52.52.52,0,0,1,.53.52.51.51,0,0,1-.53.51A.52.52,0,0,1,605.56,146.62Zm.26,2.45a.2.2,0,0,1,.2-.21h.19a.22.22,0,0,1,.2.21v5.83a.18.18,0,0,1-.2.2H606c-.12,0-.17-.09-.17-.2Z" transform="translate(-14.11 0.07)"/><path class="cls-2" d="M611.39,148.73a3,3,0,0,1,2.3,1,.19.19,0,0,1,0,.28l-.1.11c-.13.12-.23.08-.34,0a2.73,2.73,0,0,0-1.84-.74,2.68,2.68,0,1,0,2,4.4c.11-.12.2-.11.29,0l.13.11a.18.18,0,0,1,0,.24,3.13,3.13,0,0,1-2.45,1.2,3.26,3.26,0,0,1,0-6.52Z" transform="translate(-14.11 0.07)"/><path class="cls-2" d="M615.16,146.62a.53.53,0,0,1,.54-.52.52.52,0,0,1,.52.52.51.51,0,0,1-.52.51A.52.52,0,0,1,615.16,146.62Zm.25,2.45a.21.21,0,0,1,.21-.21h.19a.22.22,0,0,1,.2.21v5.83a.18.18,0,0,1-.2.2h-.22a.18.18,0,0,1-.18-.2Z" transform="translate(-14.11 0.07)"/><path class="cls-2" d="M620.9,148.73a3.26,3.26,0,1,1-3.14,3.24A3.19,3.19,0,0,1,620.9,148.73Zm0,5.94a2.68,2.68,0,1,0-2.54-2.7A2.59,2.59,0,0,0,620.9,154.67Z" transform="translate(-14.11 0.07)"/><path class="cls-2" d="M625.84,149c0-.15,0-.22.17-.22s.39.26.39.69v.16a3,3,0,0,1,2.18-.93c1.77,0,2.35,1.09,2.35,2.73v3.44a.21.21,0,0,1-.21.2h-.18a.21.21,0,0,1-.21-.2v-3.42c0-1.44-.58-2.17-1.78-2.17a2.8,2.8,0,0,0-2.12,1.07v4.52a.18.18,0,0,1-.2.2H626c-.12,0-.17-.09-.17-.2Z" transform="translate(-14.11 0.07)"/><path class="cls-2" d="M635.14,151.08a6,6,0,0,1,1.61.28c0-1.25-.33-2.08-1.67-2.08a4.17,4.17,0,0,0-1.6.42c-.14.05-.21,0-.25-.09l-.08-.19a.17.17,0,0,1,.1-.23,4.06,4.06,0,0,1,1.89-.46c1.88,0,2.2,1.23,2.2,2.71v3.5c0,.15-.05.22-.18.22s-.39-.26-.39-.69v-.1h0a3.23,3.23,0,0,1-2.19.89,1.93,1.93,0,0,1-2-2.07C632.55,152,633.5,151.08,635.14,151.08Zm-.5,3.59a3,3,0,0,0,2.11-.94v-1.8a4.27,4.27,0,0,0-1.61-.32c-1.19,0-2,.64-2,1.56A1.45,1.45,0,0,0,634.64,154.67Z" transform="translate(-14.11 0.07)"/><path class="cls-2" d="M639.52,145.85a.2.2,0,0,1,.21-.2h.19a.21.21,0,0,1,.2.2v9.05a.18.18,0,0,1-.2.2h-.22a.18.18,0,0,1-.18-.2Z" transform="translate(-14.11 0.07)"/><path class="cls-2" d="M560.84,170.07a5.31,5.31,0,0,1,1.6.29c0-1.26-.32-2.08-1.66-2.08a4.11,4.11,0,0,0-1.61.42.16.16,0,0,1-.24-.1l-.08-.19a.18.18,0,0,1,.09-.23,4.32,4.32,0,0,1,1.9-.46c1.87,0,2.2,1.23,2.2,2.72v3.49c0,.15-.06.22-.18.22s-.39-.26-.39-.69v-.11a3.23,3.23,0,0,1-2.19.9,2,2,0,0,1-2-2.07C558.24,171,559.2,170.07,560.84,170.07Zm-.5,3.59a2.94,2.94,0,0,0,2.1-.94v-1.8a4.36,4.36,0,0,0-1.6-.32c-1.19,0-2,.65-2,1.57A1.45,1.45,0,0,0,560.34,173.66Z" transform="translate(-14.11 0.07)"/><path class="cls-2" d="M568.1,173.33l.12-.22a.18.18,0,0,1,.28,0,2.81,2.81,0,0,0,1.7.61c.95,0,1.56-.46,1.56-1.12s-.76-1-1.81-1.44-1.87-.83-1.87-1.81c0-.68.57-1.6,2-1.6a3.41,3.41,0,0,1,1.76.48.22.22,0,0,1,.08.28l-.08.15c-.06.11-.16.11-.27.05a3.63,3.63,0,0,0-1.49-.4c-1,0-1.4.55-1.4,1s.62,1,1.54,1.3c1.16.43,2.13.78,2.13,2,0,1-.89,1.68-2.15,1.68a3.28,3.28,0,0,1-2-.69C568.1,173.5,568,173.42,568.1,173.33Z" transform="translate(-14.11 0.07)"/><path class="cls-2" d="M573.88,168.06a.2.2,0,0,1,.2-.2h.2a.19.19,0,0,1,.19.2v3.5c0,1.44.49,2.1,1.77,2.1a2.41,2.41,0,0,0,2-1.16v-4.44a.18.18,0,0,1,.2-.2h.21a.2.2,0,0,1,.18.2v5.87c0,.15,0,.22-.17.22s-.39-.26-.39-.69v-.13a2.62,2.62,0,0,1-2,.92c-1.76,0-2.32-.94-2.32-2.69Z" transform="translate(-14.11 0.07)"/><path class="cls-2" d="M587,167.72a3.27,3.27,0,1,1-3.13,3.24A3.19,3.19,0,0,1,587,167.72Zm0,5.94a2.68,2.68,0,1,0-2.54-2.7A2.59,2.59,0,0,0,587,173.66Z" transform="translate(-14.11 0.07)"/><path class="cls-2" d="M592,168c0-.15.06-.22.18-.22s.39.26.39.69v.14a2.52,2.52,0,0,1,2-.91,2.78,2.78,0,0,1,1,.18.22.22,0,0,1,.16.28l-.08.24c0,.13-.15.14-.26.09a1.74,1.74,0,0,0-.83-.21,2.26,2.26,0,0,0-1.89,1.07v4.52a.19.19,0,0,1-.21.21h-.21a.19.19,0,0,1-.18-.21Z" transform="translate(-14.11 0.07)"/><path class="cls-2" d="M599.35,167.72a3.39,3.39,0,0,1,2,.61v-3.48a.2.2,0,0,1,.2-.21h.21a.22.22,0,0,1,.19.21v9.08c0,.15-.06.22-.18.22s-.39-.26-.39-.69v-.09a3.08,3.08,0,0,1-2.18.88,3,3,0,0,1-2.83-3.27A3.07,3.07,0,0,1,599.35,167.72Zm-.13,5.94a2.57,2.57,0,0,0,2.1-1V169a3,3,0,0,0-1.89-.71,2.56,2.56,0,0,0-2.5,2.68A2.5,2.5,0,0,0,599.22,173.66Z" transform="translate(-14.11 0.07)"/><path class="cls-2" d="M606.76,167.72a2.74,2.74,0,0,1,2.8,2.84c0,.24,0,.61-.23.61h-5a2.46,2.46,0,0,0,2.42,2.49,3.39,3.39,0,0,0,1.92-.62c.13-.08.2-.09.27,0l.15.23c0,.06,0,.16-.07.25a4,4,0,0,1-2.27.73,3.28,3.28,0,0,1,0-6.53Zm2.2,2.89a2.16,2.16,0,0,0-2.2-2.31,2.38,2.38,0,0,0-2.4,2.31Z" transform="translate(-14.11 0.07)"/><path class="cls-2" d="M611.3,168c0-.15.05-.22.17-.22s.39.26.39.69v.16a3,3,0,0,1,2.18-.93c1.77,0,2.35,1.1,2.35,2.73v3.44a.22.22,0,0,1-.2.21H616a.22.22,0,0,1-.21-.21v-3.41c0-1.45-.58-2.18-1.78-2.18a2.84,2.84,0,0,0-2.12,1.07v4.52a.18.18,0,0,1-.2.21h-.22c-.12,0-.17-.1-.17-.21Z" transform="translate(-14.11 0.07)"/><line class="cls-3" x1="52.74" y1="98.8" x2="573.67" y2="98.8"/><g class="cls-4"><path class="cls-5" d="M66.85,106.47a7.74,7.74,0,1,0-7.74-7.74,7.74,7.74,0,0,0,7.74,7.74" transform="translate(-14.11 0.07)"/><path class="cls-6" d="M66.85,106.47a7.74,7.74,0,1,0-7.74-7.74A7.74,7.74,0,0,0,66.85,106.47Z" transform="translate(-14.11 0.07)"/><path class="cls-7" d="M66.85,103.21a4.49,4.49,0,1,0-4.48-4.48,4.49,4.49,0,0,0,4.48,4.48" transform="translate(-14.11 0.07)"/><path class="cls-5" d="M197,106.47a7.74,7.74,0,1,0-7.74-7.74,7.75,7.75,0,0,0,7.74,7.74" transform="translate(-14.11 0.07)"/><path class="cls-6" d="M197,106.47a7.74,7.74,0,1,0-7.74-7.74A7.75,7.75,0,0,0,197,106.47Z" transform="translate(-14.11 0.07)"/><path class="cls-7" d="M197,103.21a4.49,4.49,0,1,0-4.49-4.48,4.49,4.49,0,0,0,4.49,4.48" transform="translate(-14.11 0.07)"/><path class="cls-5" d="M327.18,106.47a7.74,7.74,0,1,0-7.74-7.74,7.74,7.74,0,0,0,7.74,7.74" transform="translate(-14.11 0.07)"/><path class="cls-6" d="M327.18,106.47a7.74,7.74,0,1,0-7.74-7.74A7.74,7.74,0,0,0,327.18,106.47Z" transform="translate(-14.11 0.07)"/><path class="cls-7" d="M327.18,103.21a4.49,4.49,0,1,0-4.48-4.48,4.49,4.49,0,0,0,4.48,4.48" transform="translate(-14.11 0.07)"/><path class="cls-5" d="M457.35,106.47a7.74,7.74,0,1,0-7.74-7.74,7.74,7.74,0,0,0,7.74,7.74" transform="translate(-14.11 0.07)"/><path class="cls-6" d="M457.35,106.47a7.74,7.74,0,1,0-7.74-7.74A7.74,7.74,0,0,0,457.35,106.47Z" transform="translate(-14.11 0.07)"/><path class="cls-7" d="M457.35,103.21a4.49,4.49,0,1,0-4.48-4.48,4.49,4.49,0,0,0,4.48,4.48" transform="translate(-14.11 0.07)"/><path class="cls-5" d="M585.9,106.47a7.74,7.74,0,1,0-7.74-7.74,7.75,7.75,0,0,0,7.74,7.74" transform="translate(-14.11 0.07)"/><path class="cls-6" d="M585.9,106.47a7.74,7.74,0,1,0-7.74-7.74A7.75,7.75,0,0,0,585.9,106.47Z" transform="translate(-14.11 0.07)"/><path class="cls-7" d="M585.9,103.21a4.49,4.49,0,1,0-4.48-4.48,4.48,4.48,0,0,0,4.48,4.48" transform="translate(-14.11 0.07)"/><path class="cls-8" d="M83.76,17H51.58a6.32,6.32,0,0,0-6.32,6.32V55.43a6.33,6.33,0,0,0,6.32,6.32h7.75V69.9a2,2,0,0,0,2,2,2,2,0,0,0,1.46-.62l8.88-9.56H83.76a6.33,6.33,0,0,0,6.32-6.32V23.35A6.32,6.32,0,0,0,83.76,17Z" transform="translate(-14.11 0.07)"/><path class="cls-9" d="M65.13,35.88A.92.92,0,0,1,66,35h3.34a.91.91,0,0,1,.91.91V53.11a.94.94,0,0,1-.91.91H66a1,1,0,0,1-.91-.91Zm-.74-7.46a3.21,3.21,0,0,1,3.26-3.26A3.24,3.24,0,0,1,71,28.42a3.28,3.28,0,0,1-3.3,3.3,3.25,3.25,0,0,1-3.26-3.3" transform="translate(-14.11 0.07)"/><path class="cls-8" d="M191.1,34.15l.31,2.49a5.06,5.06,0,0,1-4.4,5.64l-2.5.3-.3-2.49a5.06,5.06,0,0,1,4.4-5.64Zm-6.76,10.28A18,18,0,0,0,182,33.82m14,10.61a7.58,7.58,0,0,0-10.42-.26,1.41,1.41,0,0,1-1.85,0,7.22,7.22,0,0,0-5.58-1.93c-6.13.58-7.59,5.91-6.79,11.89s5.29,10.36,9.68,9.78a6,6,0,0,0,1.9-.59,3.85,3.85,0,0,1,3.44,0,5.92,5.92,0,0,0,1.9.59c4.38.58,8.88-3.8,9.67-9.78.52-3.88.09-7.48-1.95-9.7m5.81-21.78L196.09,30m16.46,34H222.9V30l-5.07-7.31-5.28,7.22m5.28-7.22H201.78V17.5h16.05Zm-21.74,36.7V64h16.46V29.87L196.09,30V43.79" transform="translate(-14.11 0.07)"/><path class="cls-8" d="M306.41,30.22h14.25m0-7.43H306.41V20.36a2.87,2.87,0,0,1,2.87-2.86h8.51a2.87,2.87,0,0,1,2.87,2.86Zm-1.13,2.56V22.79h-12v2.56a8.54,8.54,0,0,1-.55,3l-1.32,3.54a27,27,0,0,0-1.73,9.49V65.27h19.19V41.36a27,27,0,0,0-1.73-9.49l-1.32-3.54A8.54,8.54,0,0,1,319.53,25.35ZM329,22.79l-5.85,7.52m16.92,35H350.7v-35l-5.22-7.52-5.43,7.43m5.43-7.43H329V17.5h16.5Zm-22.35,7.52v35h16.92v-35Z" transform="translate(-14.11 0.07)"/></g><polygon class="cls-8" points="595.79 33.4 589.79 37.78 583.79 33.4 577.79 37.78 571.79 33.4 565.79 37.78 559.79 33.4 553.79 37.78 547.79 33.4 547.79 71.55 595.79 71.55 595.79 33.4"/><g class="cls-4"><path class="cls-9" d="M570.68,26.2l4.43-2.31a3,3,0,0,0,1.57-3l-.38-2.74-2.66,1.39a3,3,0,0,0-1.57,3.05l.17,1.25-.93-.85a3,3,0,0,0-3.4-.45l-2.66,1.39,2,1.87a3,3,0,0,0,3.4.44" transform="translate(-14.11 0.07)"/><path class="cls-8" d="M586.8,33.85a9.23,9.23,0,1,0-18.14,2.36" transform="translate(-14.11 0.07)"/><path class="cls-9" d="M582.54,54.79,578,56.92c-.43.25-.5,1-.13,1.6s1,.93,1.44.68l4.15-2.9a1,1,0,0,0-.87-1.51" transform="translate(-14.11 0.07)"/><path class="cls-9" d="M593.07,48.19l-4.15,2.91a1,1,0,0,0,.88,1.51l4.59-2.14c.43-.25.49-1,.12-1.59s-1-.94-1.44-.69" transform="translate(-14.11 0.07)"/><path class="cls-9" d="M579.26,48.19c-.43-.25-1.07.05-1.44.69a1.16,1.16,0,0,0,.13,1.59l4.59,2.14c.28.11.67-.1.9-.49a.81.81,0,0,0,0-1Z" transform="translate(-14.11 0.07)"/><path class="cls-9" d="M589.8,54.79a.83.83,0,0,0-.91.48.85.85,0,0,0,0,1l4.15,2.9c.43.25,1.08-.05,1.44-.68s.31-1.35-.12-1.6Z" transform="translate(-14.11 0.07)"/><path class="cls-9" d="M586.17,56.85c-.45,0-.83.23-.88.53l-.44,5c0,.5.58.9,1.32.9s1.31-.4,1.31-.9l-.44-5a.82.82,0,0,0-.87-.53" transform="translate(-14.11 0.07)"/><path class="cls-9" d="M586.17,44.06c-.74,0-1.32.41-1.32.91l.45,5c0,.3.42.54.87.54A.83.83,0,0,0,587,50l.45-5c0-.5-.59-.91-1.32-.91" transform="translate(-14.11 0.07)"/><path class="cls-8" d="M586.83,34.06l5-12.1a7.2,7.2,0,0,1,13.32,5.46L601.59,36" transform="translate(-14.11 0.07)"/><path class="cls-9" d="M454.32,12.44a.94.94,0,0,1,.66,1.61.92.92,0,0,1-1,.2.94.94,0,0,1,.36-1.81Zm0,3.6a2.7,2.7,0,0,0,1.88-.77,2.67,2.67,0,1,0-1.88.77Z" transform="translate(-14.11 0.07)"/><path class="cls-9" d="M461.33,19.45a.94.94,0,1,1-1.81-.36,1,1,0,0,1,.87-.58.94.94,0,0,1,.94.94Zm-3.6,0a2.66,2.66,0,1,0,.78-1.88A2.67,2.67,0,0,0,457.73,19.45Z" transform="translate(-14.11 0.07)"/><path class="cls-9" d="M452.81,21A.87.87,0,0,0,454,21l7.86-7.86a.85.85,0,0,0,.26-.61.9.9,0,0,0-.25-.62.86.86,0,0,0-.61-.25.83.83,0,0,0-.61.26l-7.87,7.86h0A.88.88,0,0,0,452.81,21Z" transform="translate(-14.11 0.07)"/><path class="cls-9" d="M457.35,7a9.42,9.42,0,1,1-6.65,2.76A9.44,9.44,0,0,1,457.35,7Zm0,20.54a11.13,11.13,0,1,0-7.87-3.26,11.13,11.13,0,0,0,7.87,3.26" transform="translate(-14.11 0.07)"/><path class="cls-9" d="M477.29,16.42a.85.85,0,0,0,.86.86h4.1a.86.86,0,1,0,0-1.72h-4.1a.86.86,0,0,0-.86.86" transform="translate(-14.11 0.07)"/><path class="cls-9" d="M480.2,7.74l-4.1,3.07a.86.86,0,0,0,1,1.38l4.1-3.07a.85.85,0,0,0,.17-1.2.87.87,0,0,0-1.21-.18Z" transform="translate(-14.11 0.07)"/><path class="cls-9" d="M476.1,22l4.1,3.07a.85.85,0,0,0,1.2-.17.81.81,0,0,0,.16-.64.86.86,0,0,0-.33-.57l-4.1-3.07a.86.86,0,0,0-1,1.38Z" transform="translate(-14.11 0.07)"/><path class="cls-9" d="M431.6,16.42a.85.85,0,0,0,.86.86h4.1a.86.86,0,1,0,0-1.72h-4.1a.86.86,0,0,0-.86.86" transform="translate(-14.11 0.07)"/><path class="cls-9" d="M437.58,20.64l-4.1,3.07a.86.86,0,0,0-.17,1.21.85.85,0,0,0,1.2.17l4.1-3.07a.86.86,0,0,0-1-1.38Z" transform="translate(-14.11 0.07)"/><path class="cls-9" d="M438.61,10.81l-4.1-3.07a.86.86,0,0,0-1.2.18.85.85,0,0,0,.17,1.2l4.1,3.07a.86.86,0,0,0,1-1.38Z" transform="translate(-14.11 0.07)"/><path class="cls-9" d="M462.37,50.19l-3.86-7.72,20.77-10.38L483,39.21Zm15.93,8.64-20.08,9.74V45.73l3,6a.83.83,0,0,0,1.15.38l15.93-8.48ZM457.35,41.12l-12.67-6.33a.79.79,0,0,0-1.1.29h0a.86.86,0,0,0,.33,1.25l12.29,6.14-3.86,7.72-20.65-11,3.74-7.12,3.3,1.65a.86.86,0,0,0,.77-1.54l-2.2-1.1L447,27.83l.66,1.31a3.76,3.76,0,0,0,3.54,2.05l1.59-.09a2,2,0,0,1,1.22.33l1.31.86h0a3.72,3.72,0,0,0,4.11,0l1.31-.86a2,2,0,0,1,1.22-.33l1.59.09a3.76,3.76,0,0,0,3.54-2.05l.68-1.35,9.67,3.3Zm-.86,27.45-20.08-9.74V43.65l15.92,8.48a.9.9,0,0,0,.39.1,1.09,1.09,0,0,0,.26,0,.88.88,0,0,0,.51-.44l3-6Zm-11.08-44a2,2,0,0,1-.84-.78,2.08,2.08,0,0,1-.26-1.12l.09-1.59a3.77,3.77,0,0,0-.62-2.26l-.86-1.32a2,2,0,0,1-.33-1.1,2,2,0,0,1,.33-1.11l.86-1.31a3.77,3.77,0,0,0,.62-2.26l-.09-1.59a2,2,0,0,1,1.1-1.91l1.41-.71a3.76,3.76,0,0,0,1.65-1.65l.71-1.41h0a2,2,0,0,1,1.9-1.1l1.6.09a3.77,3.77,0,0,0,2.26-.61L456.25,2a2,2,0,0,1,2.21,0l1.31.87a3.77,3.77,0,0,0,2.26.61l1.6-.09a2,2,0,0,1,1.9,1.1l.71,1.41a3.76,3.76,0,0,0,1.65,1.65l1.41.71a2,2,0,0,1,1.1,1.91l-.09,1.59h0a3.84,3.84,0,0,0,.61,2.26l.87,1.31a2,2,0,0,1,.33,1.11,2,2,0,0,1-.33,1.1l-.87,1.32a3.84,3.84,0,0,0-.61,2.26l.09,1.59h0a2.08,2.08,0,0,1-.26,1.12,2,2,0,0,1-.84.78l-1.41.72A3.69,3.69,0,0,0,466.24,27l-.71,1.42a2.1,2.1,0,0,1-.79.83,2.06,2.06,0,0,1-1.11.27l-1.6-.09h0a3.77,3.77,0,0,0-2.26.61l-1.31.86a2,2,0,0,1-2.21,0L454.93,30a3.74,3.74,0,0,0-2.05-.62h-.2l-1.6.09A2,2,0,0,1,450,29.2a2,2,0,0,1-.79-.83L448.47,27a3.69,3.69,0,0,0-1.65-1.64Zm35,6a.7.7,0,0,0-.51-.42l-10.56-3.62.76-.38h0a3.82,3.82,0,0,0,1.55-1.46,3.76,3.76,0,0,0,.49-2.07L472,21a2.07,2.07,0,0,1,.33-1.21l.87-1.32a3.75,3.75,0,0,0,0-4.1l-.87-1.32h0a2.07,2.07,0,0,1-.33-1.21l.09-1.6a3.76,3.76,0,0,0-.49-2.07,3.7,3.7,0,0,0-1.55-1.46L468.67,6h0a2,2,0,0,1-.89-.88l-.71-1.41a3.76,3.76,0,0,0-3.54-2.05l-1.59.09a2,2,0,0,1-1.22-.33L459.41.55h0a3.72,3.72,0,0,0-4.11,0L454,1.41a2,2,0,0,1-1.22.33l-1.59-.09a3.69,3.69,0,0,0-2.08.5,3.76,3.76,0,0,0-1.46,1.55l-.71,1.41A2,2,0,0,1,446,6l-1.41.72h0a3.7,3.7,0,0,0-1.55,1.46,3.76,3.76,0,0,0-.49,2.07l.09,1.6h0a2.1,2.1,0,0,1-.33,1.22l-.87,1.32a3.7,3.7,0,0,0,0,4.1l.87,1.32a2.07,2.07,0,0,1,.33,1.21l-.09,1.6a3.7,3.7,0,0,0,2,3.53l.82.41-10.62,3.59a.68.68,0,0,0-.51.42l-4.54,8.62a.86.86,0,0,0,.37,1.16l4.53,2.4V59.37a.86.86,0,0,0,.47.78L457,70.71h0a.81.81,0,0,0,.74,0l21.83-10.56a.87.87,0,0,0,.47-.78V42.73l4.53-2.4a.86.86,0,0,0,.36-1.16Z" transform="translate(-14.11 0.07)"/><path class="cls-9" d="M438.56,46.85a.85.85,0,0,0-.86.86v.77a.86.86,0,1,0,1.72,0v-.77a.86.86,0,0,0-.86-.86" transform="translate(-14.11 0.07)"/><path class="cls-9" d="M438.56,50.38a.85.85,0,0,0-.86.86v5.82a.86.86,0,0,0,1.72,0V51.24a.86.86,0,0,0-.86-.86" transform="translate(-14.11 0.07)"/></g></svg>