<?xml version="1.0" encoding="utf-8"?>
<!-- Generator: Adobe Illustrator 26.0.3, SVG Export Plug-In . SVG Version: 6.00 Build 0)  -->
<svg version="1.1" id="Capa_1" xmlns="http://www.w3.org/2000/svg" xmlns:xlink="http://www.w3.org/1999/xlink" x="0px" y="0px"
	 viewBox="0 0 6.6 4.8" style="enable-background:new 0 0 6.6 4.8;" xml:space="preserve">
<style type="text/css">
	.st0{fill:#0078BF;}
</style>
<g id="Layer_2">
	<g id="Layer_1-2">
		<path class="st0" d="M0.4,1h0.9c0.1,0,0.2-0.1,0.2-0.1c0,0,0,0,0-0.1c0-0.1-0.1-0.2-0.1-0.2l0,0H0.4c-0.1,0-0.2,0.1-0.2,0.1
			c0,0,0,0,0,0C0.3,0.9,0.3,1,0.4,1C0.4,1,0.4,1,0.4,1z"/>
		<path class="st0" d="M1,1.5c0-0.1-0.1-0.1-0.1-0.1H0.2C0.1,1.4,0,1.4,0,1.5c0,0.1,0.1,0.2,0.2,0.2h0.7C0.9,1.7,1,1.6,1,1.5
			C1,1.5,1,1.5,1,1.5z"/>
		<path class="st0" d="M6.5,2.6L6,2.1L5.5,0.8C5.4,0.6,5.2,0.5,5,0.5H4.8l0,0C4.8,0.2,4.6,0,4.4,0c0,0,0,0,0,0H0.8
			C0.7,0,0.7,0.1,0.7,0.2s0.1,0.2,0.1,0.2h3.5c0.1,0,0.2,0.1,0.2,0.2v1.7c0,0.1,0.1,0.2,0.2,0.2l0,0h1.1l0.5,0.5v1H5.9
			c-0.1-0.4-0.6-0.7-1-0.5C4.5,3.3,4.3,3.6,4.3,3.9H2.9C2.8,3.4,2.4,3.1,2,3.2C1.6,3.2,1.3,3.5,1.3,3.9H0.6V2.2
			c0-0.1-0.1-0.2-0.1-0.2c0,0,0,0,0,0c-0.1,0-0.2,0.1-0.2,0.2l0,0V4c0,0.1,0.1,0.2,0.1,0.2c0,0,0,0,0,0h0.9c0.1,0.4,0.5,0.8,0.9,0.7
			c0.4-0.1,0.6-0.3,0.7-0.7h1.4c0.1,0.4,0.4,0.7,0.8,0.7c0.4,0,0.8-0.4,0.8-0.8c0,0,0,0,0,0h0.5c0.1,0,0.2-0.1,0.2-0.1v0V2.7
			C6.6,2.7,6.6,2.6,6.5,2.6z M4.8,2V0.8H5c0.1,0,0.2,0,0.2,0.1L5.6,2H4.8z M2.1,4.5C1.8,4.5,1.6,4.3,1.6,4c0-0.3,0.2-0.5,0.5-0.5
			c0,0,0,0,0,0c0.3,0,0.5,0.2,0.5,0.5C2.6,4.3,2.4,4.5,2.1,4.5z M5.1,4.5C4.8,4.5,4.6,4.3,4.6,4c0,0,0,0,0,0c0-0.3,0.2-0.5,0.5-0.5
			c0.3,0,0.5,0.2,0.5,0.4l0,0l0,0c0,0,0,0,0,0C5.6,4.2,5.4,4.5,5.1,4.5C5.1,4.5,5.1,4.5,5.1,4.5L5.1,4.5z"/>
	</g>
</g>
</svg>
