<svg xmlns="http://www.w3.org/2000/svg" viewBox="0 0 9.91 14.9"><defs><style>.cls-1{fill:#fdb71a;}</style></defs><g id="Layer_2" data-name="Layer 2"><g id="Layer_1-2" data-name="Layer 1"><path class="cls-1" d="M2.79,1.86H4.65A.29.29,0,0,0,5,1.55a.29.29,0,0,0-.3-.31H2.79a.29.29,0,0,0-.31.31A.29.29,0,0,0,2.79,1.86Z"/><path class="cls-1" d="M7.43,6.19V1.55A1.53,1.53,0,0,0,5.88,0H1.55A1.53,1.53,0,0,0,0,1.55v9.91A1.53,1.53,0,0,0,1.55,13H4.09L5.7,14.8a.3.3,0,1,0,.43-.43L4,12a.49.49,0,0,1-.12-.55.32.32,0,0,1,.31-.25,1,1,0,0,1,.56.18,2.59,2.59,0,0,0,1.48.44,1.25,1.25,0,0,0,1.24-1.24V6.81A2.25,2.25,0,0,1,9.29,9v5.57a.31.31,0,0,0,.62,0V9A2.82,2.82,0,0,0,7.43,6.19Zm-.62,4.34a.58.58,0,0,1-.62.62,1.67,1.67,0,0,1-1.11-.31,1.81,1.81,0,0,0-.93-.31,1,1,0,0,0-.93.68,1.24,1.24,0,0,0,.25,1.12l.06.06h-2a1,1,0,0,1-.93-.93V1.55A1,1,0,0,1,1.55.62H5.88a1.29,1.29,0,0,1,.69.25,1.29,1.29,0,0,1,.24.68Z"/><path class="cls-1" d="M5,5.2V4.89a.16.16,0,0,0-.18-.18c-.13,0-.19.06-.19.18v.37H4.21a.19.19,0,0,0,0,.38h.37V6c0,.12.06.18.19.18A.16.16,0,0,0,5,6V5.64h.38c.06,0,.12-.07.18-.13V5.26c-.06-.06-.06-.06-.12-.06Z"/><path class="cls-1" d="M5.2,6.19c-.12-.06-.12-.06-.18-.06S5,6.19,5,6.26v.06l-.06.31H2.66l-.18-1H3.72a.19.19,0,0,0,0-.38H2.42a.54.54,0,0,0-.5-.37H1.86a.17.17,0,0,0-.19.19c0,.12.06.18.19.18h.06a.21.21,0,0,1,.19.19l.24,1.36.07.25a.52.52,0,0,0,.33.39.41.41,0,0,0-.33.42.43.43,0,1,0,.86,0,.45.45,0,0,0-.21-.38H4.3a.45.45,0,0,0-.21.38.43.43,0,1,0,.86,0,.43.43,0,0,0-.21-.38h.34a.16.16,0,0,0,.18-.18c0-.13-.06-.19-.18-.19H3c-.12,0-.18-.06-.18-.12V6.94H5.08c.06,0,.12-.06.18-.13l.07-.43V6.26C5.33,6.19,5.26,6.19,5.2,6.19ZM4.52,8.05a.13.13,0,0,1-.12-.12.14.14,0,0,1,.12-.13c.06,0,.12,0,.12.13A.13.13,0,0,1,4.52,8.05Zm-1.67,0a.13.13,0,0,1-.12-.12.14.14,0,0,1,.12-.13c.06,0,.12,0,.12.13A.13.13,0,0,1,2.85,8.05Z"/></g></g></svg>