<svg id="Capa_1" data-name="Capa 1" xmlns="http://www.w3.org/2000/svg" viewBox="0 0 69.16 73.99"><defs><style>.cls-1{fill:#fff;}</style></defs><path class="cls-1" d="M76.1,56.62a6.39,6.39,0,0,1-8.38,2.21,5.88,5.88,0,0,1-2.31-8A6.1,6.1,0,0,1,69.17,48a5.8,5.8,0,0,1,1.63-.24,6.28,6.28,0,0,1,6,4.43,6.27,6.27,0,0,1-.68,4.44Zm-28.21-4A15,15,0,0,1,36.77,51.2a13.8,13.8,0,0,1-5.38-19.3,14.49,14.49,0,0,1,8.89-6.57A15,15,0,0,1,44,24.92v0h.09a14.93,14.93,0,0,1,7.26,1.88,14.09,14.09,0,0,1,6.84,8.54A13.39,13.39,0,0,1,56.78,46a14.83,14.83,0,0,1-8.89,6.57Zm2.39,15.93a5.87,5.87,0,0,1-6.15,5.75,6.11,6.11,0,0,1-4.36-1.64,5.36,5.36,0,0,1-1.8-4,6,6,0,0,1,6.16-5.83A5.93,5.93,0,0,1,50.28,68.52ZM19,29.93a6.26,6.26,0,0,1-4.7-.58,5.88,5.88,0,0,1-2.9-3.61A5.61,5.61,0,0,1,12,21.22a6.08,6.08,0,0,1,3.77-2.79,5.36,5.36,0,0,1,1.62-.25,6,6,0,0,1,3.08.82,5.9,5.9,0,0,1,2.9,3.62,5.58,5.58,0,0,1-.59,4.51A6.39,6.39,0,0,1,19,29.93M37.8,9.39a5.52,5.52,0,0,1,1.8-4.1A6.11,6.11,0,0,1,44,3.65a5.94,5.94,0,0,1,6.15,5.83,5.26,5.26,0,0,1-1.79,4,6.62,6.62,0,0,1-8.72,0A5.57,5.57,0,0,1,37.8,9.39ZM20.53,58.92a6.25,6.25,0,0,1-4.7.57,6.1,6.1,0,0,1-3.76-2.79,5.58,5.58,0,0,1-.6-4.52,5.9,5.9,0,0,1,2.91-3.61,5.9,5.9,0,0,1,3.07-.82,6.36,6.36,0,0,1,5.39,3A6,6,0,0,1,20.53,58.92ZM67.55,19a6,6,0,0,1,3.08-.82,6.12,6.12,0,0,1,5.3,3,5.87,5.87,0,0,1-2.22,8.13,6.39,6.39,0,0,1-8.47-2.14A6,6,0,0,1,67.55,19ZM78.32,51.69a7.44,7.44,0,0,0-3.67-4.6,8.38,8.38,0,0,0-6-.74,8,8,0,0,0-4.27,2.88L58.66,46.1a14.7,14.7,0,0,0,1.2-11.25,12.26,12.26,0,0,0-1.29-3l5.65-3.2a8.13,8.13,0,0,0,6.32,3.12,8.3,8.3,0,0,0,3.94-1A7.37,7.37,0,0,0,77.3,20.4a8,8,0,0,0-10.77-2.71,7.73,7.73,0,0,0-3.68,4.6,7.2,7.2,0,0,0,.43,5l-5.64,3.2a16.26,16.26,0,0,0-5.56-5.09,16.74,16.74,0,0,0-7.35-2.05V17a7.35,7.35,0,0,0,4.7-2.22,7.32,7.32,0,0,0,2.31-5.25A7.53,7.53,0,0,0,44,2,7.9,7.9,0,0,0,38.4,4.14a7.37,7.37,0,0,0-2.31,5.34,7.67,7.67,0,0,0,7,7.47v6.32a23.7,23.7,0,0,0-3.42.5,16.15,16.15,0,0,0-9.49,6.65L24.47,27.3a7.74,7.74,0,0,0,.42-5,7.44,7.44,0,0,0-3.67-4.6,8.37,8.37,0,0,0-6-.74,7.65,7.65,0,0,0-4.78,3.53,7.44,7.44,0,0,0,2.9,10.35,8.3,8.3,0,0,0,3.94,1,9,9,0,0,0,2.05-.24,7.73,7.73,0,0,0,4.27-2.88l5.73,3.12a15.11,15.11,0,0,0,0,14.29L23.7,49.31a8.06,8.06,0,0,0-10.26-2.06A7.37,7.37,0,0,0,10.62,57.6a7.9,7.9,0,0,0,4.79,3.53,8.4,8.4,0,0,0,2.05.25,8.19,8.19,0,0,0,3.93-1,7.44,7.44,0,0,0,3.25-9.61l5.64-3.2a16.26,16.26,0,0,0,5.56,5.09,16.85,16.85,0,0,0,7.35,2.06v6.32a7.69,7.69,0,0,0-7,7.56,7.16,7.16,0,0,0,2.31,5.25A7.89,7.89,0,0,0,44,76a7.49,7.49,0,0,0,.86-15V54.81a23.7,23.7,0,0,0,3.42-.5,16.5,16.5,0,0,0,9.49-6.65l5.72,3.12a7.44,7.44,0,0,0,3.25,9.61,8.19,8.19,0,0,0,3.93,1,7.65,7.65,0,0,0,7.61-9.69Z" transform="translate(-9.42 -2)"/></svg>