<svg xmlns="http://www.w3.org/2000/svg" viewBox="0 0 5.1 5.92"><defs><style>.cls-1{fill:#fdb71a;}</style></defs><g id="Layer_2" data-name="Layer 2"><g id="Layer_1-2" data-name="Layer 1"><path class="cls-1" d="M5,5.62H4.52V.15A.15.15,0,0,0,4.37,0H.73A.15.15,0,0,0,.58.15V5.62H.15a.15.15,0,1,0,0,.3H5a.15.15,0,0,0,0-.3Zm-3.4,0V4h2V5.62Zm2.67,0H3.85V3.89a.15.15,0,0,0-.15-.15H1.4a.15.15,0,0,0-.15.15V5.62H.88V.3H4.22Z"/><path class="cls-1" d="M3.29,4.61a.06.06,0,0,0,.06,0l0-.35s0-.06-.09-.06-.09,0-.09.06l0,.35S3.26,4.61,3.29,4.61Z"/><path class="cls-1" d="M2.81,4.45s-.07,0-.1,0,0,.09,0,.11L3,4.76a.07.07,0,0,0,.06,0s0,0,0-.07Z"/><path class="cls-1" d="M3.29,5.05s-.06,0-.06,0l0,.35s0,.06.09.06.09,0,.09-.06l0-.35A.06.06,0,0,0,3.29,5.05Z"/><path class="cls-1" d="M2.72,5.05s0,.07,0,.11.07.07.1,0L3.1,5a.06.06,0,0,0,0-.07h0s0,0-.06,0Z"/><path class="cls-1" d="M1.31,3.15A.17.17,0,0,0,1.48,3a.17.17,0,1,0-.34,0A.17.17,0,0,0,1.31,3.15Z"/></g></g></svg>