<svg id="Capa_1" data-name="Capa 1" xmlns="http://www.w3.org/2000/svg" viewBox="0 0 69.16 74.02"><defs><style>.cls-1{fill:#fbb800;}</style></defs><path class="cls-1" d="M66.68,54.62a6.39,6.39,0,0,1-8.38,2.21,5.89,5.89,0,0,1-2.32-8h0A6.08,6.08,0,0,1,59.75,46a5.64,5.64,0,0,1,1.63-.24,5.84,5.84,0,0,1,5.32,8.87Zm-28.21-4A15,15,0,0,1,27.35,49.2,13.8,13.8,0,0,1,21.6,30.55c.12-.22.24-.44.37-.65a14.48,14.48,0,0,1,8.89-6.57,15.05,15.05,0,0,1,3.72-.41h.09a15,15,0,0,1,7.26,1.88,14.1,14.1,0,0,1,6.84,8.54A13.39,13.39,0,0,1,47.36,44a14.85,14.85,0,0,1-8.89,6.57Zm2.39,15.93a5.87,5.87,0,0,1-6,5.76h-.17a6.12,6.12,0,0,1-4.36-1.64,5.37,5.37,0,0,1-1.8-4,6,6,0,0,1,6.16-5.83,5.93,5.93,0,0,1,6.15,5.69ZM9.58,27.93a6.27,6.27,0,0,1-4.7-.58A5.88,5.88,0,0,1,2,23.74a5.61,5.61,0,0,1,.6-4.52,6.06,6.06,0,0,1,3.77-2.79A5.22,5.22,0,0,1,8,16.18a6,6,0,0,1,3.08.82A5.9,5.9,0,0,1,14,20.62a5.58,5.58,0,0,1-.59,4.51,6.4,6.4,0,0,1-3.78,2.8M28.38,7.39a5.51,5.51,0,0,1,1.8-4.1,6.11,6.11,0,0,1,4.4-1.64,5.94,5.94,0,0,1,6.15,5.73v.1a5.27,5.27,0,0,1-1.79,4,6.63,6.63,0,0,1-8.72,0A5.57,5.57,0,0,1,28.38,7.39ZM11.11,56.92a6.26,6.26,0,0,1-4.7.57A6.11,6.11,0,0,1,2.65,54.7a5.61,5.61,0,0,1-.6-4.52A5.93,5.93,0,0,1,5,46.57,5.91,5.91,0,0,1,8,45.75a6.36,6.36,0,0,1,5.39,3,6,6,0,0,1-2.3,8.17ZM58.13,17a6,6,0,0,1,3.08-.82,6.13,6.13,0,0,1,5.3,3,5.87,5.87,0,0,1-2.06,8l-.16.09a6.39,6.39,0,0,1-8.47-2.14A6,6,0,0,1,58.12,17ZM68.9,49.69a7.45,7.45,0,0,0-3.67-4.6,8.4,8.4,0,0,0-6-.74A8,8,0,0,0,55,47.23L49.24,44.1a14.71,14.71,0,0,0,1.2-11.25,12.25,12.25,0,0,0-1.29-3l5.65-3.2a8.13,8.13,0,0,0,6.32,3.12,8.32,8.32,0,0,0,3.94-1,7.38,7.38,0,0,0,3-10l-.23-.4a8,8,0,0,0-10.77-2.71,7.71,7.71,0,0,0-3.68,4.6,7.2,7.2,0,0,0,.43,5l-5.64,3.2a16.25,16.25,0,0,0-5.56-5.09,16.75,16.75,0,0,0-7.35-2V15A7.33,7.33,0,0,0,40,12.78a7.31,7.31,0,0,0,2.31-5.25A7.53,7.53,0,0,0,34.79,0h-.21A7.89,7.89,0,0,0,29,2.14a7.39,7.39,0,0,0-2.31,5.34,7.67,7.67,0,0,0,7,7.47v6.32a23.31,23.31,0,0,0-3.42.5,16.17,16.17,0,0,0-9.49,6.65L15.05,25.3a7.74,7.74,0,0,0,.42-5,7.45,7.45,0,0,0-3.67-4.6,8.35,8.35,0,0,0-6-.74A7.65,7.65,0,0,0,1,18.49,7.44,7.44,0,0,0,3.64,28.68l.28.16a8.32,8.32,0,0,0,3.94,1,8.84,8.84,0,0,0,2.05-.24,7.71,7.71,0,0,0,4.27-2.88l5.73,3.12a15.14,15.14,0,0,0,0,14.29l-5.63,3.18A8.05,8.05,0,0,0,4,45.25a7.38,7.38,0,0,0-3,10c.07.13.14.26.22.38A7.89,7.89,0,0,0,6,59.13a8.34,8.34,0,0,0,2,.25,8.2,8.2,0,0,0,3.93-1,7.43,7.43,0,0,0,3.25-9.61l5.64-3.2a16.25,16.25,0,0,0,5.56,5.09,16.89,16.89,0,0,0,7.35,2.06V59a7.69,7.69,0,0,0-7,7.56,7.12,7.12,0,0,0,2.31,5.25A7.92,7.92,0,0,0,34.58,74a7.51,7.51,0,1,0,.86-15V52.81a23.31,23.31,0,0,0,3.42-.5,16.55,16.55,0,0,0,9.49-6.65l5.72,3.12a7.43,7.43,0,0,0,3.25,9.61,8.2,8.2,0,0,0,3.93,1A7.65,7.65,0,0,0,69.13,52a7.31,7.31,0,0,0-.27-2.28Z" transform="translate(0.02 0)"/></svg>