<svg xmlns="http://www.w3.org/2000/svg" xmlns:xlink="http://www.w3.org/1999/xlink" viewBox="0 0 85.22 15.55"><defs><style>.cls-1,.cls-5{fill:none;}.cls-2{fill:#007dc3;}.cls-3{fill:#fff;}.cls-4{clip-path:url(#clip-path);}.cls-5{stroke:#007dc3;stroke-width:0.13px;}.cls-6{fill:#0071ce;}.cls-7{fill:#ffb71b;}.cls-8{fill:#73b924;}.cls-9{fill:#f9b848;}</style><clipPath id="clip-path" transform="translate(0 0)"><rect class="cls-1" width="85.22" height="15.55"/></clipPath></defs><g id="Layer_2" data-name="Layer 2"><g id="Layer_1-2" data-name="Layer 1"><rect class="cls-2" width="21.72" height="15.55"/><path class="cls-3" d="M11.3,6.86h1.76V8H11.3Zm-2.65,0h1.59V9.63H8.65Zm2.56-.19h0a.1.1,0,0,0-.09.1V8.06a.09.09,0,0,0,.09.09h1.94a.09.09,0,0,0,.09-.09V6.77a.1.1,0,0,0-.09-.1ZM8.48,5.4a.85.85,0,0,0,1.58,0,.9.9,0,0,0,.8.54.89.89,0,0,0,.79-.54.86.86,0,0,0,1.59,0,.89.89,0,0,0,.79.54h.09v3.7h-3.7V6.77a.1.1,0,0,0-.09-.1H8.57a.1.1,0,0,0-.09.1V9.63H7.6V5.93h.08A.89.89,0,0,0,8.48,5.4Zm-.4-2.6h5.55l1.11,1.78V5a.73.73,0,0,1-.71.74.72.72,0,0,1-.7-.74h-.18a.71.71,0,1,1-1.41,0h-.18a.72.72,0,0,1-.7.74A.73.73,0,0,1,10.15,5H10a.73.73,0,0,1-.71.74A.72.72,0,0,1,8.57,5H8.39A.71.71,0,1,1,7,5V4.58ZM8,2.61l0,0L6.82,4.5l0,0V5a.93.93,0,0,0,.62.89V9.72a.09.09,0,0,0,.09.09h6.7a.09.09,0,0,0,.09-.09V5.9A.93.93,0,0,0,14.91,5V4.5L13.75,2.65l0,0Z" transform="translate(0 0)"/><rect class="cls-1" width="85.22" height="15.55"/><path class="cls-3" d="M2.19,12.45H1.86a0,0,0,0,1,0,0v-.18a0,0,0,0,1,0,0h1a0,0,0,0,1,0,0v.18a0,0,0,0,1,0,0H2.48v1.21a0,0,0,0,1,0,0H2.23a0,0,0,0,1,0,0Z" transform="translate(0 0)"/><path class="cls-3" d="M3.17,12.23a0,0,0,0,1,0,0h.2a0,0,0,0,1,0,0v1.43a0,0,0,0,1,0,0h-.2a0,0,0,0,1,0,0Z" transform="translate(0 0)"/><path class="cls-3" d="M3.89,12.23a0,0,0,0,1,0,0h.87a0,0,0,0,1,0,0v.18a0,0,0,0,1,0,0H4.17v.35h.54a0,0,0,0,1,0,0V13a0,0,0,0,1,0,0H4.17v.38h.64a0,0,0,0,1,0,0v.18a0,0,0,0,1,0,0H3.94a0,0,0,0,1,0,0Z" transform="translate(0 0)"/><path class="cls-3" d="M5.21,12.21a0,0,0,0,1,0,0h0s0,0,0,0l.88.93h0v-.89a0,0,0,0,1,0,0h.19a0,0,0,0,1,0,0v1.45a0,0,0,0,1,0,0h0s0,0,0,0l-.88-1h0v.93a0,0,0,0,1,0,0h-.2a0,0,0,0,1,0,0Z" transform="translate(0 0)"/><path class="cls-3" d="M6.93,12.23a0,0,0,0,1,0,0h.51a.76.76,0,0,1,0,1.51H7a0,0,0,0,1,0,0Zm.52,1.21a.5.5,0,0,0,0-1H7.21v1Z" transform="translate(0 0)"/><path class="cls-3" d="M8.38,13.64l.67-1.45s0,0,0,0h0l0,0,.66,1.45a0,0,0,0,1,0,.06H9.58a.05.05,0,0,1-.06,0l-.11-.24H8.77l-.11.24a.07.07,0,0,1-.06,0H8.41A0,0,0,0,1,8.38,13.64Zm.93-.46-.22-.47h0l-.21.47Z" transform="translate(0 0)"/><path class="cls-3" d="M10,13.55s0,0,0-.06l.08-.14a0,0,0,0,1,.07,0,.49.49,0,0,0,.32.13c.12,0,.2-.07.2-.16s-.09-.19-.27-.26-.41-.21-.41-.47a.43.43,0,0,1,.49-.41.84.84,0,0,1,.43.14.08.08,0,0,1,0,.08l-.08.12s-.05,0-.08,0a.6.6,0,0,0-.3-.11c-.12,0-.19.06-.19.15s.08.17.26.24.45.21.45.48a.45.45,0,0,1-.5.43A.63.63,0,0,1,10,13.55Z" transform="translate(0 0)"/><path class="cls-3" d="M11.88,12.23a0,0,0,0,1,0,0h.88a0,0,0,0,1,0,0v.18a0,0,0,0,1,0,0h-.64v.41h.53a0,0,0,0,1,0,0v.17a0,0,0,0,1,0,0h-.53v.55a0,0,0,0,1,0,0h-.2a0,0,0,0,1,0,0Z" transform="translate(0 0)"/><path class="cls-3" d="M13.07,11.94l.36-.24s.09,0,.12.05a.1.1,0,0,1,0,.13l-.4.18s-.05,0-.07,0S13.05,12,13.07,11.94Zm.09.29a0,0,0,0,1,0,0h.2a0,0,0,0,1,0,0v1.43a0,0,0,0,1,0,0h-.2a0,0,0,0,1,0,0Z" transform="translate(0 0)"/><path class="cls-3" d="M13.83,13.55s0,0,0-.06l.08-.14a0,0,0,0,1,.07,0,.52.52,0,0,0,.33.13.17.17,0,0,0,.19-.16c0-.11-.09-.19-.27-.26s-.41-.21-.41-.47a.44.44,0,0,1,.49-.41.8.8,0,0,1,.43.14.06.06,0,0,1,0,.08l-.08.12s-.05,0-.08,0a.6.6,0,0,0-.3-.11c-.12,0-.18.06-.18.15s.07.17.25.24.45.21.45.48a.45.45,0,0,1-.5.43A.63.63,0,0,1,13.83,13.55Z" transform="translate(0 0)"/><path class="cls-3" d="M15.15,12.23a0,0,0,0,1,0,0h.2a0,0,0,0,1,0,0v1.43a0,0,0,0,1,0,0h-.2a0,0,0,0,1,0,0Z" transform="translate(0 0)"/><path class="cls-3" d="M16.57,12.17a.75.75,0,0,1,.52.2,0,0,0,0,1,0,.06l-.13.14H16.9a.51.51,0,0,0-.33-.13.5.5,0,0,0,0,1,.5.5,0,0,0,.32-.12s.05,0,.06,0l.13.13s0,.05,0,.06a.75.75,0,0,1-.52.21.77.77,0,0,1-.78-.77A.78.78,0,0,1,16.57,12.17Z" transform="translate(0 0)"/><path class="cls-3" d="M17.26,13.64l.67-1.45,0,0h0l0,0,.66,1.45a0,0,0,0,1,0,.06h-.19s0,0-.06,0l-.1-.24h-.65l-.1.24a.07.07,0,0,1-.06,0H17.3A0,0,0,0,1,17.26,13.64Zm.93-.46L18,12.71h0l-.21.47Z" transform="translate(0 0)"/><path class="cls-3" d="M18.9,13.55s0,0,0-.06l.07-.14a.05.05,0,0,1,.08,0,.47.47,0,0,0,.32.13.18.18,0,0,0,.2-.16c0-.11-.1-.19-.28-.26s-.4-.21-.4-.47a.43.43,0,0,1,.48-.41.77.77,0,0,1,.43.14.06.06,0,0,1,0,.08l-.09.12a0,0,0,0,1-.07,0,.6.6,0,0,0-.3-.11c-.12,0-.19.06-.19.15s.08.17.26.24.44.21.44.48a.45.45,0,0,1-.49.43A.63.63,0,0,1,18.9,13.55Z" transform="translate(0 0)"/><rect class="cls-3" x="21.8" y="0.07" width="31.68" height="15.42"/><g class="cls-4"><rect class="cls-5" x="21.8" y="0.07" width="31.68" height="15.42"/></g><rect class="cls-3" x="53.47" y="0.07" width="31.68" height="15.42"/><g class="cls-4"><rect class="cls-5" x="53.47" y="0.07" width="31.68" height="15.42"/><path class="cls-6" d="M41,7.18a1,1,0,0,0-1.11-1.11,2,2,0,0,0-1,.24l.14.47a1.45,1.45,0,0,1,.72-.2c.43,0,.5.25.5.4V7c-.95,0-1.55.33-1.55,1a.79.79,0,0,0,.84.79.93.93,0,0,0,.76-.34h0s.11.45.7.28a4,4,0,0,1,0-.63Zm-.71.63a.61.61,0,0,1,0,.14.51.51,0,0,1-.48.33.32.32,0,0,1-.35-.34c0-.36.39-.46.84-.46Z" transform="translate(0 0)"/><path class="cls-6" d="M26.23,5.27,27,8.2c.11.48.32.66.92.54l.39-1.57c.09-.38.16-.66.22-1.06h0c.05.4.11.68.19,1.07l.24,1.08c.08.37.31.61.89.48l.92-3.47H30l-.31,1.5c-.09.44-.17.78-.23,1.18h0c-.05-.4-.12-.73-.2-1.15l-.33-1.53h-.78l-.35,1.49c-.1.45-.19.82-.25,1.2h0c-.06-.36-.14-.82-.23-1.26,0,0-.2-1.06-.28-1.43Z" transform="translate(0 0)"/><path class="cls-6" d="M32.85,7.18a1,1,0,0,0-1.11-1.11,2,2,0,0,0-1,.24l.14.47a1.41,1.41,0,0,1,.71-.2c.44,0,.51.25.51.4V7c-.95,0-1.55.33-1.55,1a.79.79,0,0,0,.84.79,1,1,0,0,0,.76-.34h0s.11.45.71.28a4,4,0,0,1,0-.63Zm-.71.63a.32.32,0,0,1,0,.14.49.49,0,0,1-.48.33.32.32,0,0,1-.35-.34c0-.36.4-.46.85-.46Z" transform="translate(0 0)"/></g><polygon class="cls-6" points="34.03 8 34.03 5.27 33.32 5.27 33.32 8.74 34.03 8.74 34.03 8"/><g class="cls-4"><path class="cls-6" d="M43.29,5.27V7.83a1.08,1.08,0,0,0,.21.75.81.81,0,0,0,.58.22,1.55,1.55,0,0,0,.51-.08V8.17a1,1,0,0,1-.27,0c-.24,0-.32-.15-.32-.47v-1h.62V6.09H44V5.27Z" transform="translate(0 0)"/><path class="cls-6" d="M41.46,6.13V8.74h.73V7.4a1.11,1.11,0,0,1,0-.19.56.56,0,0,1,.58-.46l.21,0V6.09l-.16,0a.79.79,0,0,0-.72.55h0V6.13Z" transform="translate(0 0)"/><path class="cls-6" d="M34.52,6.13V8.74h.72V7.21a.49.49,0,0,1,0-.21.48.48,0,0,1,.43-.34c.29,0,.42.24.42.59V8.74h.71V7.19a.71.71,0,0,1,0-.21.47.47,0,0,1,.43-.32c.29,0,.43.24.43.65V8.74h.71V7.2c0-.81-.41-1.13-.88-1.13a.85.85,0,0,0-.51.15.92.92,0,0,0-.33.32h0A.74.74,0,0,0,36,6.07a.83.83,0,0,0-.76.42h0V6.13Z" transform="translate(0 0)"/><path class="cls-7" d="M47.75,6.21c.11,0,.21-.06.22-.14l.11-1.28c0-.13-.15-.23-.33-.23s-.34.1-.34.23l.11,1.28a.22.22,0,0,0,.23.14Z" transform="translate(0 0)"/><path class="cls-7" d="M47.05,6.61a.21.21,0,0,0,0-.26L46,5.61c-.11-.06-.27,0-.37.17s-.07.35,0,.41l1.17.54c.07,0,.17,0,.23-.12Z" transform="translate(0 0)"/><path class="cls-7" d="M48.44,6.61c.06.1.16.15.23.12l1.18-.54c.11-.06.12-.24,0-.41s-.26-.23-.37-.17l-1.06.74a.22.22,0,0,0,0,.26Z" transform="translate(0 0)"/><path class="cls-7" d="M47.75,7.81c.11,0,.21.06.22.14l.11,1.28c0,.13-.15.23-.33.23s-.34-.1-.34-.23L47.52,8a.22.22,0,0,1,.23-.14Z" transform="translate(0 0)"/><path class="cls-7" d="M48.44,7.41c.06-.1.16-.15.23-.12l1.18.54c.11.06.12.24,0,.41s-.26.23-.37.17l-1.06-.74a.22.22,0,0,1,0-.26Z" transform="translate(0 0)"/><path class="cls-7" d="M47.05,7.41a.21.21,0,0,1,0,.26L46,8.41c-.11.06-.27,0-.37-.17s-.07-.35,0-.41l1.17-.54c.07,0,.17,0,.23.12Z" transform="translate(0 0)"/><path class="cls-7" d="M50.2,8.18a.13.13,0,0,1,.13.13.13.13,0,0,1-.26,0,.13.13,0,0,1,.13-.13Zm0,0a.1.1,0,0,0-.1.11.1.1,0,0,0,.2,0,.1.1,0,0,0-.1-.11Zm0,.17h0V8.24h.09l0,0s0,0,0,0h0s0,0,0,0v0h0a0,0,0,0,1,0,0s0,0,0,0h0Zm0-.07h0a0,0,0,0,0,0,0s0,0,0,0h0Z" transform="translate(0 0)"/><rect class="cls-8" x="58.17" y="9.66" width="18.24" height="2.86" rx="0.83"/><path class="cls-3" d="M63.62,10.3a0,0,0,0,1,0,0h.84a0,0,0,0,1,0,0v.17a0,0,0,0,1,0,0h-.61v.34h.51a0,0,0,0,1,0,0v.17a0,0,0,0,1,0,0h-.51v.36h.61a0,0,0,0,1,0,0v.17a0,0,0,0,1,0,0h-.84a0,0,0,0,1,0,0Z" transform="translate(0 0)"/><path class="cls-3" d="M64.8,11.64l.3-.42-.29-.4a0,0,0,0,1,0-.07H65a.08.08,0,0,1,.08,0l.16.26h0l.16-.26a.1.1,0,0,1,.08,0h.2s.05,0,0,.07l-.3.4.3.42s0,.07,0,.07h-.2a.07.07,0,0,1-.06,0l-.18-.26h0l-.19.28a.05.05,0,0,1,0,0h-.21s-.06,0,0-.07" transform="translate(0 0)"/><path class="cls-3" d="M66.3,11.44a.41.41,0,0,0,.2.05.26.26,0,0,0,0-.52.21.21,0,0,0-.21.13Zm.23.29a.59.59,0,0,1-.23,0v.47s0,0,0,0h-.17a0,0,0,0,1,0,0V10.79a0,0,0,0,1,0,0,.15.15,0,0,1,.15.13.41.41,0,0,1,.3-.14.5.5,0,0,1,0,1" transform="translate(0 0)"/><path class="cls-3" d="M67.31,10.79a0,0,0,0,1,0,0,.14.14,0,0,1,.15.13.38.38,0,0,1,.27-.14c.12,0,.21,0,.18.09L67.9,11a0,0,0,0,1-.06,0,.17.17,0,0,0-.09,0,.2.2,0,0,0-.18.1v.59s0,.05,0,.05h-.16a.05.05,0,0,1,0-.05Z" transform="translate(0 0)"/><path class="cls-3" d="M68.8,11.11a.19.19,0,0,0-.19-.17.19.19,0,0,0-.2.17Zm-.18-.38a.43.43,0,0,1,.44.44s0,.05,0,.07a0,0,0,0,1,0,0h-.62a.23.23,0,0,0,.24.22.31.31,0,0,0,.21-.07,0,0,0,0,1,.06,0l.08.11a0,0,0,0,1,0,.06.56.56,0,0,1-.36.13.5.5,0,0,1,0-1" transform="translate(0 0)"/><path class="cls-3" d="M69.33,11.64s0,0,0-.05l.07-.12a0,0,0,0,1,.05,0,.35.35,0,0,0,.21.06c.07,0,.11,0,.11-.06s-.06-.09-.18-.14-.27-.15-.27-.3.11-.28.34-.28a.55.55,0,0,1,.29.07.06.06,0,0,1,0,.07l-.06.11s0,0-.06,0a.43.43,0,0,0-.19-.05c-.06,0-.09,0-.09.06s0,.07.14.1.32.14.32.34-.13.28-.37.28a.49.49,0,0,1-.31-.09" transform="translate(0 0)"/><path class="cls-3" d="M70.28,11.64s0,0,0-.05l.06-.12a0,0,0,0,1,.06,0,.35.35,0,0,0,.21.06c.07,0,.11,0,.11-.06s-.06-.09-.18-.14-.27-.15-.27-.3.11-.28.34-.28a.61.61,0,0,1,.29.07.06.06,0,0,1,0,.07l-.06.11s0,0-.06,0A.43.43,0,0,0,70.6,11c-.06,0-.09,0-.09.06s0,.07.14.1.31.14.31.34-.12.28-.36.28a.55.55,0,0,1-.32-.09" transform="translate(0 0)"/><path class="cls-8" d="M67.09,6.16v.35h0a.82.82,0,0,1,.76-.41.73.73,0,0,1,.71.46h0a1.24,1.24,0,0,1,.33-.32,1,1,0,0,1,.52-.14c.46,0,.87.32.87,1.13V8.76h-.71V7.33c0-.41-.13-.64-.42-.64a.45.45,0,0,0-.43.31.78.78,0,0,0,0,.22V8.76H68V7.28c0-.35-.14-.59-.42-.59a.47.47,0,0,0-.43.33.52.52,0,0,0,0,.21V8.76h-.7V6.16Zm6.86,0v.49h0a.76.76,0,0,1,.71-.55h.16V6.8l-.21,0a.54.54,0,0,0-.57.46.55.55,0,0,0,0,.19V8.76h-.73V6.16Zm1.88-.87v.82h.61v.67h-.61v1c0,.31.08.47.32.47a.89.89,0,0,0,.26,0v.55a1.5,1.5,0,0,1-.51.08.78.78,0,0,1-.57-.22,1.08,1.08,0,0,1-.21-.75V5.29ZM65.92,8.76h-.7V5.29h.7Zm-1.87-.93A.59.59,0,0,1,64,8a.5.5,0,0,1-.48.33A.32.32,0,0,1,63.2,8c0-.36.4-.46.85-.45Zm.7-.62a1,1,0,0,0-1.1-1.11,2,2,0,0,0-1,.23l.14.47a1.52,1.52,0,0,1,.71-.19c.43,0,.5.24.5.4V7c-.94,0-1.53.33-1.53,1a.78.78,0,0,0,.83.79.92.92,0,0,0,.75-.34h0s.11.45.7.28a4,4,0,0,1,0-.63ZM59,5.29l.28,1.44c.09.43.17.89.23,1.26h0c.06-.39.15-.75.25-1.21l.34-1.49h.77l.33,1.53c.09.43.15.75.21,1.15h0c.06-.4.13-.74.22-1.18l.31-1.5h.74l-.92,3.47c-.58.13-.8-.11-.88-.48s-.24-1.08-.24-1.08c-.08-.39-.14-.66-.19-1.06h0c-.06.39-.13.67-.22,1.06L59.8,8.76c-.59.12-.8-.06-.91-.53l-.72-2.94ZM72.14,7.83a.32.32,0,0,1,0,.14.48.48,0,0,1-.47.33A.32.32,0,0,1,71.3,8c0-.36.39-.46.84-.45Zm.7-.62a1,1,0,0,0-1.1-1.11,2,2,0,0,0-1,.23l.14.47a1.49,1.49,0,0,1,.71-.19c.43,0,.5.24.5.4V7c-.94,0-1.54.33-1.54,1a.78.78,0,0,0,.83.79.93.93,0,0,0,.76-.34h0s.1.45.7.28a3,3,0,0,1,0-.63Z" transform="translate(0 0)"/><path class="cls-9" d="M78.82,7.43a.21.21,0,0,1,0,.26l-1.06.75a.3.3,0,0,1-.37-.18.3.3,0,0,1,0-.41l1.18-.54c.07,0,.17,0,.23.12m1.4,0a.2.2,0,0,1,.23-.12l1.17.54a.31.31,0,0,1,0,.41c-.1.17-.26.24-.37.18l-1.07-.75a.21.21,0,0,1,0-.26m-.7.41c.11,0,.21,0,.22.13l.11,1.3c0,.12-.14.23-.33.23s-.34-.11-.34-.23L79.29,8c0-.08.11-.13.23-.13m.7-1.48,1.07-.74c.11-.07.27,0,.37.17s.07.35,0,.41l-1.17.55a.2.2,0,0,1-.23-.13.21.21,0,0,1,0-.26m-1.63.39L77.41,6.2c-.11-.06-.13-.24,0-.41s.26-.24.37-.17l1.06.74a.21.21,0,0,1,0,.26c-.06.1-.16.16-.23.13m.7-.67-.11-1.29c0-.13.15-.23.34-.23s.33.1.33.23l-.11,1.29c0,.08-.11.14-.22.14a.22.22,0,0,1-.23-.14m2.65,2.35v0h0a0,0,0,0,1,0,0h0Zm0,.06h0v0h0l0,0h0l0,0s0,0,0,0a0,0,0,0,0,0,0h0Zm0-.05a.1.1,0,0,1,.09-.1.11.11,0,0,1,.1.1.1.1,0,0,1-.1.09.09.09,0,0,1-.09-.09m0,0a.13.13,0,0,0,.12.12.12.12,0,0,0,.12-.12A.12.12,0,0,0,82,8.32a.12.12,0,0,0-.12.12" transform="translate(0 0)"/></g></g></g></svg>