<svg xmlns="http://www.w3.org/2000/svg" viewBox="0 0 55.27 15.45"><defs><style>.cls-1{fill:#007dc3;}.cls-2{fill:#fff;}.cls-3,.cls-4{fill:none;}.cls-4{stroke:#007dc3;stroke-width:0.13px;}.cls-5{fill:#3dae2b;}.cls-6{fill:#fbd800;}.cls-7{fill:#dd141c;}.cls-8{fill:#d5171a;}.cls-9{fill:#ffd100;}.cls-10{fill:#f4f4f4;}</style></defs><g id="Layer_2" data-name="Layer 2"><g id="Layer_1-2" data-name="Layer 1"><rect class="cls-1" width="21.58" height="15.45"/><path class="cls-2" d="M11.23,6.82H13v1.1H11.23Zm-2.63,0h1.58V9.57H8.6Zm2.54-.19h0a.09.09,0,0,0-.09.09V8a.09.09,0,0,0,.09.09h1.93A.09.09,0,0,0,13.16,8V6.72a.09.09,0,0,0-.09-.09ZM8.42,5.37a.85.85,0,0,0,1.58,0,.85.85,0,0,0,1.58,0,.85.85,0,0,0,1.58,0,.86.86,0,0,0,.78.53H14V9.57H10.35V6.72a.09.09,0,0,0-.09-.09H8.51a.09.09,0,0,0-.09.09V9.57H7.55V5.9h.09A.86.86,0,0,0,8.42,5.37ZM8,2.78h5.52l1.1,1.77V5a.73.73,0,0,1-.71.74.72.72,0,0,1-.7-.74h-.17a.7.7,0,1,1-1.4,0h-.18a.7.7,0,1,1-1.4,0H9.91a.7.7,0,1,1-1.4,0H8.34A.71.71,0,1,1,6.93,5V4.55ZM7.94,2.6l0,0L6.77,4.47V5a.93.93,0,0,0,.61.88v3.8a.09.09,0,0,0,.09.09h6.66a.09.09,0,0,0,.09-.09V5.86A.93.93,0,0,0,14.82,5V4.47L13.67,2.64l0,0Z"/><rect class="cls-3" width="55.27" height="15.45"/><path class="cls-2" d="M2.38,12.37H2.05a0,0,0,0,1,0,0v-.17a0,0,0,0,1,0,0H3a0,0,0,0,1,0,0v.17a0,0,0,0,1,0,0H2.66v1.2a0,0,0,0,1,0,0h-.2a0,0,0,0,1,0,0Z"/><path class="cls-2" d="M3.34,12.16a0,0,0,0,1,.05,0h.19a0,0,0,0,1,0,0v1.41a0,0,0,0,1,0,0H3.39a0,0,0,0,1-.05,0Z"/><path class="cls-2" d="M4.07,12.16a0,0,0,0,1,0,0H5a0,0,0,0,1,0,0v.17a0,0,0,0,1,0,0H4.35v.35h.52a0,0,0,0,1,0,0v.18a0,0,0,0,1,0,0H4.35v.38H5a0,0,0,0,1,0,0v.17a0,0,0,0,1,0,0H4.11a0,0,0,0,1,0,0Z"/><path class="cls-2" d="M5.38,12.13a0,0,0,0,1,0,0h0l0,0,.87.93h0v-.88a0,0,0,0,1,0,0H6.6a0,0,0,0,1,0,0v1.43a0,0,0,0,1,0,0H6.54l-.88-1h0v.92a0,0,0,0,1,0,0H5.42a0,0,0,0,1,0,0Z"/><path class="cls-2" d="M7.09,12.16s0,0,0,0h.51a.75.75,0,1,1,0,1.49H7.12s0,0,0,0Zm.51,1.19a.49.49,0,0,0,0-1H7.36v1Z"/><path class="cls-2" d="M8.52,13.56l.67-1.44a0,0,0,0,1,0,0h0s0,0,0,0l.66,1.44s0,0,0,0H9.72a.05.05,0,0,1-.06,0l-.11-.23H8.91l-.1.23a.07.07,0,0,1-.06,0H8.56S8.51,13.58,8.52,13.56Zm.93-.46-.22-.47h0L9,13.1Z"/><path class="cls-2" d="M10.15,13.47s0,0,0-.07l.08-.13a.05.05,0,0,1,.07,0,.53.53,0,0,0,.33.14.18.18,0,0,0,.19-.17c0-.11-.09-.18-.27-.25s-.4-.21-.4-.46a.43.43,0,0,1,.48-.42.79.79,0,0,1,.43.15s0,0,0,.07l-.08.12a.07.07,0,0,1-.08,0,.53.53,0,0,0-.29-.12c-.13,0-.19.07-.19.15s.08.17.25.24.45.2.45.48a.45.45,0,0,1-.5.42A.68.68,0,0,1,10.15,13.47Z"/><path class="cls-2" d="M12,12.16a0,0,0,0,1,0,0h.87a0,0,0,0,1,0,0v.17a0,0,0,0,1,0,0h-.64v.4h.53a0,0,0,0,1,0,0V13a0,0,0,0,1,0,0h-.53v.54a0,0,0,0,1,0,0h-.19a0,0,0,0,1,0,0Z"/><path class="cls-2" d="M13.19,11.86l.36-.24a.08.08,0,0,1,.11.06c0,.05,0,.1,0,.12l-.39.18a.05.05,0,0,1-.07,0S13.17,11.87,13.19,11.86Zm.09.3a0,0,0,0,1,0,0h.2a0,0,0,0,1,0,0v1.41a0,0,0,0,1,0,0h-.2a0,0,0,0,1,0,0Z"/><path class="cls-2" d="M13.94,13.47s0,0,0-.07l.08-.13a.05.05,0,0,1,.07,0,.53.53,0,0,0,.33.14.18.18,0,0,0,.19-.17c0-.11-.09-.18-.27-.25s-.4-.21-.4-.46a.43.43,0,0,1,.48-.42.71.71,0,0,1,.42.15s0,0,0,.07l-.08.12a.07.07,0,0,1-.08,0,.53.53,0,0,0-.3-.12c-.12,0-.18.07-.18.15s.08.17.25.24.45.2.45.48a.46.46,0,0,1-.5.42A.71.71,0,0,1,13.94,13.47Z"/><path class="cls-2" d="M15.25,12.16a0,0,0,0,1,0,0h.2a0,0,0,0,1,0,0v1.41a0,0,0,0,1,0,0h-.2a0,0,0,0,1,0,0Z"/><path class="cls-2" d="M16.66,12.09a.73.73,0,0,1,.52.2s0,.05,0,.06l-.13.14a0,0,0,0,1-.05,0,.51.51,0,0,0-.33-.13.49.49,0,0,0-.48.5.48.48,0,0,0,.48.49.53.53,0,0,0,.33-.12h.05l.13.14s0,0,0,.06a.72.72,0,0,1-.52.2.77.77,0,0,1-.77-.76A.78.78,0,0,1,16.66,12.09Z"/><path class="cls-2" d="M17.35,13.56,18,12.12a0,0,0,0,1,0,0h0s0,0,0,0l.66,1.44s0,0,0,0h-.18a.05.05,0,0,1-.06,0l-.11-.23h-.64l-.1.23a.07.07,0,0,1-.06,0h-.19S17.34,13.58,17.35,13.56Zm.93-.46-.22-.47h0l-.21.47Z"/><path class="cls-2" d="M19,13.47s0,0,0-.07l.07-.13a.07.07,0,0,1,.08,0,.48.48,0,0,0,.32.14.18.18,0,0,0,.19-.17c0-.11-.09-.18-.27-.25s-.4-.21-.4-.46a.43.43,0,0,1,.48-.42.75.75,0,0,1,.43.15,0,0,0,0,1,0,.07l-.08.12a.07.07,0,0,1-.08,0,.5.5,0,0,0-.29-.12c-.12,0-.19.07-.19.15s.08.17.25.24.45.2.45.48a.45.45,0,0,1-.49.42A.69.69,0,0,1,19,13.47Z"/><rect class="cls-2" x="21.66" y="0.07" width="33.55" height="15.32"/><rect class="cls-4" x="21.66" y="0.07" width="33.55" height="15.32"/><rect class="cls-5" x="27.02" y="3.68" width="24.03" height="7.94" rx="1"/><path class="cls-6" d="M48.46,6.83,50,8.62s.2.17.2-.14V7.91a4.56,4.56,0,0,0,0-.64,1.45,1.45,0,0,0-.28-.65,2,2,0,0,0-.51-.57s-.19-.11-.45.2l-.48.58"/><path class="cls-7" d="M46.85,8.55,47,8.39,47.34,8l.47-.56.5-.58c.17-.21.35-.42.53-.62s.29-.37.5-.27.29.28.33.28l-.26-.3-.65-.76a.39.39,0,0,1-.08-.1.34.34,0,0,0-.53,0c-.3.29-1,1.16-1,1.16a4.24,4.24,0,0,0-.54.91,4.06,4.06,0,0,0,0,.6c0,.22,0,.43,0,.64s.1.34.24.18"/><path class="cls-8" d="M32,10.88a11.42,11.42,0,0,1-4.82-.75v1.13h23.8v-.37c-.6,0-17,0-19,0"/><path class="cls-9" d="M34.86,10.14a9.32,9.32,0,0,1-7.74-4.5v4.1c.61.46,2.31.77,4.81.77h19v-.37Z"/><rect class="cls-3" width="55.27" height="15.45"/><path class="cls-2" d="M38.62,6.48h0l-.19.7h.38Zm-.25-.37h.49l.58,1.79H39l-.11-.38h-.56l-.12.38H37.8Z"/><path class="cls-2" d="M40.71,7.9h-.35V7.65h0a.41.41,0,0,1-.4.28c-.31,0-.43-.26-.43-.53V6.56h.39v.65c0,.25.07.34.17.34s.25-.14.25-.42V6.56h.38Z"/><path class="cls-2" d="M41.69,6.93h-.13c-.18,0-.28.15-.28.41V7.9h-.39V6.56h.36v.25h0c.07-.17.16-.28.33-.28l.13,0Z"/><path class="cls-2" d="M42.59,6.93h-.13c-.18,0-.29.15-.29.41V7.9h-.38V6.56h.35v.25h0c.07-.17.16-.28.34-.28l.13,0Z"/><path class="cls-2" d="M43.41,7.1c0-.15-.07-.27-.22-.27S43,7,43,7.1ZM43,7.36c0,.19.14.26.33.26a.69.69,0,0,0,.34-.1v.32a1,1,0,0,1-.41.09.64.64,0,0,1-.65-.7c0-.44.25-.7.6-.7s.56.35.56.75v.08Z"/><path class="cls-2" d="M44.69,6.93h-.13c-.18,0-.28.15-.28.41V7.9h-.39V6.56h.36v.25h0c.07-.17.17-.28.33-.28l.13,0Z"/><path class="cls-2" d="M45.25,7.62c.15,0,.25-.16.25-.32h-.17c-.13,0-.23,0-.23.18a.13.13,0,0,0,.15.14m.27.28c0-.07,0-.14,0-.21h0a.41.41,0,0,1-.78-.18c0-.41.38-.46.58-.46l.19,0c0-.18-.12-.23-.26-.23a.65.65,0,0,0-.36.1V6.63a1,1,0,0,1,.45-.1.5.5,0,0,1,.54.55v.5a1.72,1.72,0,0,0,0,.32Z"/><path class="cls-2" d="M31.57,6.84a.36.36,0,0,0,.23-.06.27.27,0,0,0,.11-.25.22.22,0,0,0-.1-.22.37.37,0,0,0-.2,0h-.18v.58Zm0,.86a.49.49,0,0,0,.27-.06A.28.28,0,0,0,32,7.38a.28.28,0,0,0-.13-.28.56.56,0,0,0-.29,0h-.11V7.7Zm-.33.21V6.05h.38a.6.6,0,0,1,.35.1.44.44,0,0,1,.15.37.4.4,0,0,1-.22.42.43.43,0,0,1,.27.43.49.49,0,0,1-.18.42.7.7,0,0,1-.43.12Z"/><path class="cls-2" d="M32.82,7.75a.28.28,0,0,0,.25-.15.74.74,0,0,0,.09-.38.68.68,0,0,0-.09-.37.26.26,0,0,0-.25-.15.26.26,0,0,0-.24.15.68.68,0,0,0-.09.37.74.74,0,0,0,.09.38.28.28,0,0,0,.24.15m0-1.24a.49.49,0,0,1,.42.22,1,1,0,0,1,.12.49,1,1,0,0,1-.12.5.49.49,0,0,1-.41.22h0a.49.49,0,0,1-.41-.22,1,1,0,0,1-.12-.5,1,1,0,0,1,.12-.49.49.49,0,0,1,.41-.22"/><path class="cls-2" d="M34,7.75a.26.26,0,0,0,.23-.17.86.86,0,0,0,.07-.36.84.84,0,0,0-.07-.35A.26.26,0,0,0,34,6.7a.25.25,0,0,0-.24.16,1,1,0,0,0-.06.36,1,1,0,0,0,.06.36.25.25,0,0,0,.24.17m0,.19a.4.4,0,0,1-.36-.21,1,1,0,0,1-.12-.51,1,1,0,0,1,.11-.51.41.41,0,0,1,.37-.2.37.37,0,0,1,.26.11l.06.07V5.92h.18v2h-.18V7.77a.37.37,0,0,1-.32.17Z"/><path class="cls-2" d="M35.33,7.1a.72.72,0,0,0-.06-.27.23.23,0,0,0-.2-.13.24.24,0,0,0-.21.13.53.53,0,0,0-.08.27Zm-.64.63a1,1,0,0,1-.11-.51.9.9,0,0,1,.13-.51.43.43,0,0,1,.35-.2.4.4,0,0,1,.36.2,1,1,0,0,1,.11.48V7.3h-.75a.59.59,0,0,0,.08.31.29.29,0,0,0,.25.14.62.62,0,0,0,.29-.09l0,0v.24h0a.76.76,0,0,1-.33.08h0a.47.47,0,0,1-.41-.21"/><path class="cls-2" d="M36.11,7.72a.25.25,0,0,0,.23-.16.74.74,0,0,0,.08-.34.83.83,0,0,0-.07-.38.24.24,0,0,0-.23-.14.24.24,0,0,0-.24.16.72.72,0,0,0-.06.36.76.76,0,0,0,.06.35.25.25,0,0,0,.23.15m0,.75a1,1,0,0,1-.34-.08h0l0-.23,0,0a.75.75,0,0,0,.31.08.28.28,0,0,0,.3-.18,1.17,1.17,0,0,0,.06-.36.35.35,0,0,1-.32.18.41.41,0,0,1-.38-.24.87.87,0,0,1-.1-.45,1,1,0,0,1,.1-.5.41.41,0,0,1,.37-.21.39.39,0,0,1,.33.13v-.1h.18V7.77a.85.85,0,0,1-.12.49.46.46,0,0,1-.42.21Z"/><path class="cls-2" d="M37.1,7.29a.23.23,0,0,0-.16.24A.19.19,0,0,0,37,7.7a.2.2,0,0,0,.14,0,.26.26,0,0,0,.26-.17.75.75,0,0,0,0-.28V7.24h0a.85.85,0,0,0-.33,0m-.29.5a.45.45,0,0,1-.07-.25A.41.41,0,0,1,37,7.12a1,1,0,0,1,.45-.07V7a.39.39,0,0,0,0-.24.19.19,0,0,0-.17-.07.52.52,0,0,0-.31.1l0,0V6.61h0a.78.78,0,0,1,.34-.09.39.39,0,0,1,.31.12.63.63,0,0,1,.1.39v.59a2.35,2.35,0,0,0,0,.27v0h-.18V7.76a.4.4,0,0,1-.33.18h0a.35.35,0,0,1-.31-.15"/><rect class="cls-3" width="55.27" height="15.45"/><polygon class="cls-2" points="33.58 8.82 33.71 8.82 33.71 9.27 33.93 9.27 33.93 9.38 33.58 9.38 33.58 8.82"/><path class="cls-2" d="M34.22,9.18c-.06,0-.12,0-.12.07a0,0,0,0,0,0,.05.09.09,0,0,0,.07-.05V9.18Zm.12.1s0,.07,0,.1h-.11v0h0a.17.17,0,0,1-.12.05A.13.13,0,0,1,34,9.26c0-.1.09-.15.24-.15h0s0,0-.08,0a.2.2,0,0,0-.11,0L34,9a.28.28,0,0,1,.16,0c.13,0,.17.08.17.18Z"/><path class="cls-2" d="M34.92,9.37l-.12,0a.19.19,0,0,1-.21-.21A.21.21,0,0,1,34.82,9l.1,0,0,.09h-.07a.1.1,0,0,0-.11.11.11.11,0,0,0,.11.12l.07,0Z"/><path class="cls-2" d="M35.21,9.18c-.07,0-.12,0-.12.07a0,0,0,0,0,0,.05s0,0,.06-.05V9.18Zm.12.1v.1h-.11v0h0a.17.17,0,0,1-.12.05A.13.13,0,0,1,35,9.26c0-.1.1-.15.24-.15h0s0,0-.07,0a.16.16,0,0,0-.11,0L35,9a.31.31,0,0,1,.16,0,.16.16,0,0,1,.18.18Z"/><path class="cls-2" d="M35.43,9.1a.53.53,0,0,0,0-.13h.11V9h0A.13.13,0,0,1,35.66,9a.11.11,0,0,1,.11.07h0a.08.08,0,0,1,0,0l.07,0C36,9,36,9,36,9.14v.24h-.12V9.16c0-.06,0-.1-.06-.1a.06.06,0,0,0-.06,0v.27h-.13V9.15c0-.05,0-.09-.06-.09a.05.05,0,0,0,0,0,0,0,0,0,0,0,0v.24h-.12Z"/><path class="cls-2" d="M36.27,9.2v0a.09.09,0,0,0,.07.06c.06,0,.09,0,.09-.11s0-.12-.08-.12a.08.08,0,0,0-.08.07V9.2Zm-.13-.09V9h.11V9h0A.19.19,0,0,1,36.39,9a.19.19,0,0,1,.17.21.2.2,0,0,1-.19.22.12.12,0,0,1-.1-.05h0v.2h-.13Z"/><path class="cls-2" d="M36.89,9.13a.08.08,0,0,0-.07-.08.08.08,0,0,0-.08.08Zm-.15.08c0,.06,0,.08.11.08a.18.18,0,0,0,.11,0l0,.09a.33.33,0,0,1-.15,0,.19.19,0,0,1-.21-.21.2.2,0,0,1,.2-.22.18.18,0,0,1,.18.2v.05Z"/><path class="cls-2" d="M37.27,9.3s.08-.05.08-.12,0-.13-.08-.13-.09.07-.09.13,0,.12.09.12m0,.09a.21.21,0,0,1-.22-.21A.21.21,0,0,1,37.27,9a.2.2,0,0,1,.21.21.21.21,0,0,1-.21.22"/><path class="cls-2" d="M37.56,9.1s0-.09,0-.13h.11V9h0A.15.15,0,0,1,37.8,9c.08,0,.14.06.14.18v.24h-.12V9.15c0-.05,0-.09-.07-.09a.06.06,0,0,0-.06,0,0,0,0,0,0,0,0v.24h-.12Z"/><path class="cls-2" d="M38.26,9.18c-.07,0-.12,0-.12.07a0,0,0,0,0,0,.05.09.09,0,0,0,.07-.05V9.18Zm.12.1a.31.31,0,0,0,0,.1h-.12v0h0a.13.13,0,0,1-.11.05A.13.13,0,0,1,38,9.26c0-.1.09-.15.23-.15h0s0,0-.07,0a.2.2,0,0,0-.11,0l0-.08a.25.25,0,0,1,.15,0,.16.16,0,0,1,.18.18Z"/><path class="cls-2" d="M38.92,9.15v0a.09.09,0,0,0-.08-.06c-.06,0-.09,0-.09.12a.1.1,0,0,0,.09.11.07.07,0,0,0,.07-.06,0,0,0,0,0,0,0ZM39,8.79v.47a.45.45,0,0,0,0,.12h-.11V9.32h0a.17.17,0,0,1-.13.07c-.1,0-.17-.09-.17-.21s.08-.22.18-.22a.14.14,0,0,1,.11,0h0V8.79Z"/><path class="cls-2" d="M39.39,9.13s0-.08-.07-.08a.08.08,0,0,0-.08.08Zm-.15.08c0,.06.06.08.12.08a.22.22,0,0,0,.11,0v.09a.32.32,0,0,1-.14,0,.2.2,0,0,1-.22-.21.21.21,0,0,1,.2-.22.18.18,0,0,1,.19.2.43.43,0,0,1,0,.05Z"/><path class="cls-2" d="M28,3.87a.89.89,0,0,0-.89.88V10.7a.89.89,0,0,0,.89.88h22a.89.89,0,0,0,.88-.88V4.75a.89.89,0,0,0-.88-.88Zm22,7.94H28A1.12,1.12,0,0,1,26.9,10.7V4.75A1.12,1.12,0,0,1,28,3.64h22a1.11,1.11,0,0,1,1.11,1.11V10.7a1.11,1.11,0,0,1-1.11,1.11"/><path class="cls-10" d="M50,5.05h0s0,0,0,0,0,0,0,0h0Zm0,.08h0V5h.1s0,0,0,0a0,0,0,0,1,0,0,.05.05,0,0,1,0,0s0,0,0,0h0a0,0,0,0,1,0,0s0,0,0,0h0Zm-.09-.07a.12.12,0,0,0,.12.12.12.12,0,0,0,.11-.12A.11.11,0,0,0,50,5a.11.11,0,0,0-.12.11m.26,0A.14.14,0,0,1,50,5.2a.14.14,0,0,1-.15-.14A.15.15,0,0,1,50,4.91a.15.15,0,0,1,.14.15"/><rect class="cls-3" width="55.27" height="15.45"/><rect class="cls-2" x="39.85" y="8.79" width="0.13" height="0.59"/><path class="cls-2" d="M40.27,9.3s.08-.05.08-.13,0-.12-.08-.12-.08.06-.08.12,0,.13.08.13Zm0,.09a.2.2,0,0,1-.21-.21A.2.2,0,0,1,40.27,9a.2.2,0,0,1,.21.21.2.2,0,0,1-.21.22Z"/><path class="cls-2" d="M40.56,9.27a.29.29,0,0,0,.11,0s0,0,0,0,0,0-.06,0-.11-.08-.11-.12A.14.14,0,0,1,40.71,9a.21.21,0,0,1,.12,0l0,.08-.08,0s0,0,0,0,0,0,.06.05.11.07.11.12-.06.14-.17.14a.35.35,0,0,1-.13,0Z"/><path class="cls-2" d="M41.21,9.2a0,0,0,0,0,0,0,.07.07,0,0,0,.07.06c.05,0,.09,0,.09-.12s0-.11-.09-.11-.07,0-.07.06a0,0,0,0,0,0,0Zm-.12-.09a.57.57,0,0,0,0-.14h.11V9h0A.17.17,0,0,1,41.34,9a.19.19,0,0,1,.17.21.2.2,0,0,1-.19.22.1.1,0,0,1-.1-.05h0v.2h-.12Z"/><path class="cls-2" d="M41.58,9.1V9h.11v.08h0A.12.12,0,0,1,41.81,9h0v.12h0a.08.08,0,0,0-.09.06v.24h-.13Z"/><path class="cls-2" d="M42.14,9.13s0-.08-.07-.08a.08.08,0,0,0-.08.08ZM42,9.21c0,.06.06.08.12.08a.22.22,0,0,0,.11,0v.09a.32.32,0,0,1-.14,0,.2.2,0,0,1-.22-.21A.21.21,0,0,1,42.08,9a.18.18,0,0,1,.18.2.2.2,0,0,1,0,.05Z"/><path class="cls-2" d="M42.64,9.37l-.12,0a.19.19,0,0,1-.21-.21A.21.21,0,0,1,42.54,9l.1,0,0,.09h-.07a.1.1,0,0,0-.11.11.11.11,0,0,0,.11.12l.07,0Z"/><path class="cls-2" d="M42.71,9h.12v.41h-.12Zm.06-.05a.07.07,0,1,1,.07-.07.07.07,0,0,1-.07.07Z"/><path class="cls-2" d="M43.12,9.3c.05,0,.08-.05.08-.13s0-.12-.08-.12-.08.06-.08.12,0,.13.08.13Zm0,.09a.2.2,0,0,1-.21-.21A.21.21,0,0,1,43.13,9a.2.2,0,0,1,.2.21.2.2,0,0,1-.21.22Z"/><path class="cls-2" d="M43.41,9.27a.35.35,0,0,0,.11,0s.06,0,.06,0,0,0-.06,0-.12-.08-.12-.12.06-.14.17-.14a.2.2,0,0,1,.11,0l0,.08-.09,0s0,0,0,0,0,0,.07.05.11.07.11.12-.06.14-.18.14a.42.42,0,0,1-.13,0Z"/><path class="cls-2" d="M44.07,9.2v0a.09.09,0,0,0,.07.06q.09,0,.09-.12c0-.06,0-.11-.09-.11a.07.07,0,0,0-.07.06V9.2Zm-.13-.41h.13V9h0A.13.13,0,0,1,44.19,9c.1,0,.17.08.17.21a.2.2,0,0,1-.19.22.14.14,0,0,1-.12-.07h0v.06h-.11V8.79Z"/><path class="cls-2" d="M44.65,9.19c-.06,0-.11,0-.11.06a0,0,0,0,0,.05.05.06.06,0,0,0,.06-.05V9.19Zm.13.09v.1h-.11v0h0a.17.17,0,0,1-.12.05.13.13,0,0,1-.13-.13c0-.1.1-.15.24-.15h0s0,0-.07,0a.21.21,0,0,0-.12,0l0-.08a.28.28,0,0,1,.16,0,.16.16,0,0,1,.18.18Z"/><path class="cls-2" d="M45,8.92a.07.07,0,0,1-.07-.07A.07.07,0,0,1,45,8.78a.07.07,0,0,1,.07.07.07.07,0,0,1-.08.07Zm-.16.54s.06,0,.08,0,0,0,0-.13V9H45v.36A.19.19,0,0,1,45,9.5a.2.2,0,0,1-.15.05Z"/><path class="cls-2" d="M45.31,9.3s.08-.05.08-.13,0-.12-.08-.12-.09.06-.09.12,0,.13.09.13Zm0,.09a.2.2,0,0,1-.21-.21A.21.21,0,0,1,45.31,9a.2.2,0,0,1,.21.21.21.21,0,0,1-.21.22Z"/><path class="cls-2" d="M45.6,9.27l.1,0s.06,0,.06,0,0,0-.06,0-.12-.08-.12-.12A.15.15,0,0,1,45.75,9a.16.16,0,0,1,.11,0l0,.08-.09,0s0,0,0,0,0,0,.07.05.11.07.11.12-.06.14-.18.14a.42.42,0,0,1-.13,0Z"/><rect class="cls-3" width="55.27" height="15.45"/></g></g></svg>