<svg id="Capa_1" data-name="Capa 1" xmlns="http://www.w3.org/2000/svg" viewBox="0 0 86 67.11"><defs><style>.cls-1{fill:none;stroke:#fbb800;stroke-linecap:round;stroke-linejoin:round;stroke-width:3px;}.cls-2{fill:#fbb800;}</style></defs><path class="cls-1" d="M75.72,60.06H85.5V43.59l-8.3-7.87H60.31V11.94a5,5,0,0,0-5-5H2.5V61.44H14m42,0H34M60.31,14.21h5A5,5,0,0,1,70,17.38l7.2,18.34M33,59.57A9.62,9.62,0,1,1,25.44,52,9.62,9.62,0,0,1,33,59.57Zm42.57,0A9.62,9.62,0,1,1,68,52,9.62,9.62,0,0,1,75.55,59.57Z" transform="translate(-1 -5.45)"/><path class="cls-2" d="M20.78,26.1a.33.33,0,0,1,.34.32v1.22a.34.34,0,0,1-.34.34H13.84a.34.34,0,0,1-.33-.34v-.17a.69.69,0,0,1,.14-.4c1.2-1.47,3.3-4.2,4.43-5.69A3.37,3.37,0,0,0,19,19.43a1.66,1.66,0,0,0-1.87-1.59,2.89,2.89,0,0,0-2,1,.31.31,0,0,1-.48,0L13.8,18a.36.36,0,0,1,0-.46,4.9,4.9,0,0,1,3.47-1.73c2.53,0,3.93,1.61,3.93,3.5A4.7,4.7,0,0,1,20,22.18c-.74,1.06-2.07,2.7-3,3.88v0Z" transform="translate(-1 -5.45)"/><path class="cls-2" d="M26.61,19.91a6.09,6.09,0,0,1,1.9.32V16.39a.41.41,0,0,1,.38-.38h1.38a.39.39,0,0,1,.38.38v11.3a.37.37,0,0,1-.41.36,1.16,1.16,0,0,1-1.23-1,3.4,3.4,0,0,1-2.53,1.11A3.86,3.86,0,0,1,22.7,24,3.88,3.88,0,0,1,26.61,19.91Zm1.9,2.39a3.15,3.15,0,0,0-1.64-.44,2,2,0,0,0-2,2.17,2,2,0,0,0,1.87,2.19,1.81,1.81,0,0,0,1.74-1.1Z" transform="translate(-1 -5.45)"/><path class="cls-2" d="M35.44,23a5.86,5.86,0,0,1,1.52.22,1.35,1.35,0,0,0-1.48-1.49,6.81,6.81,0,0,0-1.83.29c-.26.09-.41-.1-.45-.34L33,20.78a.36.36,0,0,1,.26-.48,7.66,7.66,0,0,1,2.3-.39c2.3,0,3.37,1.28,3.37,3.44v4.34a.36.36,0,0,1-.41.36,1.18,1.18,0,0,1-1.18-.81,3.5,3.5,0,0,1-2.41.93,2.52,2.52,0,0,1-2.67-2.7C32.29,24.06,33.44,23,35.44,23Zm.05,3.59a1.7,1.7,0,0,0,1.42-.84V24.58a3.14,3.14,0,0,0-1.16-.24c-.91,0-1.4.42-1.4,1.13A1,1,0,0,0,35.49,26.58Z" transform="translate(-1 -5.45)"/><path class="cls-2" d="M41.45,31.52,43,27.72l-2.67-7.13a.35.35,0,0,1,.34-.51h1.64a.3.3,0,0,1,.33.22l1.45,4.87h0l1.79-4.87c.09-.22.26-.22.5-.22h1.37a.35.35,0,0,1,.34.51l-4.6,11.22a.4.4,0,0,1-.34.24H41.79A.36.36,0,0,1,41.45,31.52Z" transform="translate(-1 -5.45)"/></svg>