<?xml version="1.0" encoding="utf-8"?>
<!-- Generator: Adobe Illustrator 26.0.3, SVG Export Plug-In . SVG Version: 6.00 Build 0)  -->
<svg version="1.1" id="Capa_1" xmlns="http://www.w3.org/2000/svg" xmlns:xlink="http://www.w3.org/1999/xlink" x="0px" y="0px"
	 viewBox="0 0 5.1 5.9" style="enable-background:new 0 0 5.1 5.9;" xml:space="preserve">
<style type="text/css">
	.st0{fill:#0078BF;}
</style>
<g id="Layer_2">
	<g id="Layer_1-2">
		<path class="st0" d="M5,5.6H4.5V0.2C4.5,0.1,4.5,0,4.4,0c0,0,0,0,0,0H0.7C0.6,0,0.6,0.1,0.6,0.2c0,0,0,0,0,0v5.5H0.2
			C0.1,5.6,0,5.7,0,5.8s0.1,0.2,0.2,0.2H5c0.1,0,0.2-0.1,0.2-0.2S5.1,5.6,5,5.6z M1.6,5.6V4h2v1.6H1.6z M4.3,5.6H3.8V3.9
			c0-0.1-0.1-0.2-0.1-0.2h0H1.4c-0.1,0-0.1,0.1-0.1,0.2l0,0v1.7H0.9V0.3h3.3L4.3,5.6z"/>
		<path class="st0" d="M3.3,4.6C3.3,4.6,3.3,4.6,3.3,4.6l0.1-0.3c0,0,0-0.1-0.1-0.1s-0.1,0-0.1,0.1v0.3C3.2,4.6,3.3,4.6,3.3,4.6z"/>
		<path class="st0" d="M2.8,4.4C2.8,4.4,2.7,4.4,2.8,4.4c-0.1,0-0.1,0.1-0.1,0.1L3,4.8c0,0,0,0,0.1,0c0,0,0,0,0-0.1L2.8,4.4z"/>
		<path class="st0" d="M3.3,5.1L3.3,5.1L3.2,5.4c0,0,0,0.1,0.1,0.1s0.1,0,0.1-0.1V5.1C3.4,5,3.4,5,3.3,5.1C3.3,5,3.3,5,3.3,5.1z"/>
		<path class="st0" d="M2.7,5.1c0,0,0,0.1,0,0.1s0.1,0.1,0.1,0L3.1,5c0,0,0,0,0-0.1l0,0c0,0,0,0-0.1,0L2.7,5.1z"/>
		<path class="st0" d="M1.3,3.2c0.1,0,0.2-0.1,0.2-0.2c0-0.1-0.1-0.2-0.2-0.2C1.2,2.8,1.1,2.9,1.1,3C1.2,3.1,1.2,3.2,1.3,3.2z"/>
	</g>
</g>
</svg>
