<svg xmlns="http://www.w3.org/2000/svg" viewBox="0 0 64.02 29.89"><defs><style>.cls-1{fill:#74ba23;}.cls-2{fill:#ffb71b;}.cls-3{fill:#007ac2;}.cls-4{fill:#ff8300;}.cls-5{fill:#fff;}</style></defs><g id="Layer_2" data-name="Layer 2"><g id="Capa_1" data-name="Capa 1"><circle class="cls-1" cx="14.95" cy="14.95" r="14.95"/><path class="cls-2" d="M16.84,24.14h0s.07,0,.07-.05,0-.05-.07-.05h0Zm0,.17h-.07V24h.12A.27.27,0,0,1,17,24a.15.15,0,0,1,0,.07s0,.06-.07.08h0s.05,0,.06.08l0,.07H17l0-.07s0,0-.07,0h0Zm.05-.41a.25.25,0,1,0,.24.25.24.24,0,0,0-.24-.25Zm0-.06a.31.31,0,0,1,.32.31.32.32,0,0,1-.32.32.32.32,0,0,1-.33-.32.32.32,0,0,1,.33-.31Z"/><path class="cls-2" d="M12.42,13.48a.75.75,0,0,0,0-1L8.57,9.8c-.4-.24-1,0-1.35.63a1.09,1.09,0,0,0,.11,1.48l4.25,2a.77.77,0,0,0,.84-.45Z"/><path class="cls-2" d="M12.4,16.41a.75.75,0,0,1,0,.95L8.49,20c-.4.23-1-.05-1.34-.65s-.27-1.25.13-1.48L11.57,16a.76.76,0,0,1,.83.46Z"/><path class="cls-2" d="M14.92,17.86a.77.77,0,0,1,.81.5l.38,4.69c0,.47-.55.84-1.24.84s-1.22-.39-1.21-.86l.45-4.68a.75.75,0,0,1,.81-.49Z"/><path class="cls-2" d="M17.47,16.45a.75.75,0,0,1,.84-.44l4.25,2c.4.24.45.9.11,1.49s-1,.86-1.35.63L17.49,17.4a.77.77,0,0,1,0-.95Z"/><path class="cls-2" d="M17.49,13.52a.77.77,0,0,0,.84.46l4.28-2a1.09,1.09,0,0,0,.13-1.48c-.34-.6-.94-.88-1.34-.65l-3.87,2.67a.78.78,0,0,0,0,.95Z"/><path class="cls-2" d="M15,12c.43,0,.77-.21.82-.49l.45-4.69C16.24,6.4,15.7,6,15,6s-1.22.37-1.23.83l.38,4.69A.78.78,0,0,0,15,12Z"/><circle class="cls-3" cx="49.07" cy="14.95" r="14.95"/><path class="cls-4" d="M49,13c.55-2.05-.6-4-3.12-3.72s-4,1.47-3.86,3a1.78,1.78,0,0,0,.07.39,6.3,6.3,0,0,1,2.4-.46,5.32,5.32,0,0,1,3.38,1.25A2,2,0,0,1,49,13"/><path class="cls-4" d="M52.72,9.24c-2.51-.32-3.67,1.67-3.12,3.72a2,2,0,0,1,1.13.46,5.32,5.32,0,0,1,3.38-1.25,6.35,6.35,0,0,1,2.41.46,2.66,2.66,0,0,0,.07-.39c.11-1.53-1.48-2.68-3.87-3"/><path class="cls-4" d="M54.5,12.67a5.24,5.24,0,0,0-3.5,1.2A.5.5,0,0,1,51,14a.86.86,0,0,1-.24.57c1.81.43,3.11,1.66,3.11,3.11a2.52,2.52,0,0,1-.16.86,6.49,6.49,0,0,0,.77.05c2.42,0,4.38-1.34,4.38-3s-2-3-4.38-3"/><path class="cls-4" d="M50.3,14.94a2.44,2.44,0,0,1-2,0c-1.76.32-3.07,1.46-3.07,2.83,0,1.61,1.82,2.91,4.06,2.91s4.06-1.3,4.06-2.91c0-1.37-1.31-2.51-3.07-2.83"/><path class="cls-4" d="M47.62,13.87a5.22,5.22,0,0,0-3.5-1.2c-2.42,0-4.38,1.33-4.38,3s2,3,4.38,3a6.66,6.66,0,0,0,.78-.05,2.31,2.31,0,0,1-.17-.86c0-1.45,1.31-2.67,3.12-3.11A.82.82,0,0,1,47.6,14a1,1,0,0,1,0-.17"/><path class="cls-5" d="M50.49,14c0,.42-.53.76-1.18.76s-1.18-.34-1.18-.76.53-.76,1.18-.76,1.18.34,1.18.76"/></g></g></svg>