<svg xmlns="http://www.w3.org/2000/svg" viewBox="0 0 13.23 11.25"><defs><style>.cls-1{fill:#fdb71a;}</style></defs><g id="Layer_2" data-name="Layer 2"><g id="Layer_1-2" data-name="Layer 1"><path class="cls-1" d="M10.92,9.92h-.67a.33.33,0,0,1,0-.66h.67a.33.33,0,1,1,0,.66M3.31,2V6H7.94V3.64a1,1,0,0,1,1-1h1V2ZM3,.66a1,1,0,0,0-1,1V7.28h6V6.62H3a.32.32,0,0,1-.33-.34V1.65A.31.31,0,0,1,3,1.32h7.27a.31.31,0,0,1,.33.33v1h.67v-1a1,1,0,0,0-1-1ZM.73,7.94a1,1,0,0,0,.92.66H7.94V7.94Zm8.2-4.63a.31.31,0,0,0-.33.33v6.61a.31.31,0,0,0,.33.33h3.31a.31.31,0,0,0,.33-.33V3.64a.31.31,0,0,0-.33-.33Zm3.31,7.94H8.93a1,1,0,0,1-1-1v-1H1.65A1.64,1.64,0,0,1,0,7.61a.31.31,0,0,1,.33-.33h1V1.65A1.64,1.64,0,0,1,3,0h7.27a1.64,1.64,0,0,1,1.66,1.65v1h.33a1,1,0,0,1,1,1v6.61a1,1,0,0,1-1,1"/></g></g></svg>