<svg id="Capa_1" data-name="Capa 1" xmlns="http://www.w3.org/2000/svg" viewBox="0 0 73.03 75.44"><defs><style>.cls-1{fill:#fff;}</style></defs><path class="cls-1" d="M72.24,40.05H70.1V25.71h2.14Zm6.13,6.8H45.27a1.11,1.11,0,0,0,0,2.21H68V59.65a5.05,5.05,0,0,1-.21-2.08,3.36,3.36,0,0,0-2.6-3.31,1.8,1.8,0,0,1,1-1.44,1.13,1.13,0,0,0,.48-1.49,1.05,1.05,0,0,0-1.43-.49A4,4,0,0,0,63,54.28a3.38,3.38,0,0,0-2.48,3.29,7,7,0,0,1-.1,1.77,3.32,3.32,0,0,1-.8-2v-1A3.36,3.36,0,0,0,57,53a1.79,1.79,0,0,1,1-1.44,1.14,1.14,0,0,0,.48-1.49,1.07,1.07,0,0,0-1.44-.49A4,4,0,0,0,54.87,53a3.37,3.37,0,0,0-2.48,3.28,5.61,5.61,0,0,1-.17,2,3.66,3.66,0,0,1-1.77-1.49L50,55.9a3.24,3.24,0,0,0-3.79-1.68,1.85,1.85,0,0,1,.22-1.75,1.12,1.12,0,0,0-.25-1.54,1,1,0,0,0-1.49.25,4.14,4.14,0,0,0-.37,4.11,3.47,3.47,0,0,0-.71,4.1l.47.91c.61,1.19.08,1.67.2,3.1H44a5.61,5.61,0,0,0-.92-2,4,4,0,0,1-.59-2.72,3.35,3.35,0,0,0-2.6-3.31,1.83,1.83,0,0,1,1-1.44,1.11,1.11,0,0,0,.48-1.48,1,1,0,0,0-1.43-.5,4,4,0,0,0-2.19,3.45,3.31,3.31,0,0,0-1.74,1.14A3.34,3.34,0,0,0,34.77,55a1.77,1.77,0,0,1,1.42-1,1.1,1.1,0,0,0,1-1.22,1.08,1.08,0,0,0-1.18-1,3.9,3.9,0,0,0-3.21,2.44,3.26,3.26,0,0,0-3.43,2.2l-.35,1c-.39,1.11-1.08,1.28-1.73,1.86a6.55,6.55,0,0,1-.08-1.67,3.36,3.36,0,0,0-2.61-3.31,1.85,1.85,0,0,1,1-1.45A1.11,1.11,0,0,0,26,51.33a1,1,0,0,0-1.43-.49,4,4,0,0,0-2.19,3.44A3.35,3.35,0,0,0,20,56.71V49.05H41.27a1.11,1.11,0,0,0,0-2.21H9.62V42.26H78.37ZM72.24,63.4H70.1V49.06h2.14Zm-8.45-7h.68a1.15,1.15,0,0,1,1.14,1.17,5.94,5.94,0,0,0,1,4.06,3.21,3.21,0,0,1,.62,1.77H61.17a5.19,5.19,0,0,0,.1-1.12,3.36,3.36,0,0,1,.4-.69,6,6,0,0,0,1-4,1.15,1.15,0,0,1,1.13-1.17Zm-8.12-1.27h.68a1.15,1.15,0,0,1,1.13,1.17v1a5.07,5.07,0,0,0,1,3,3.31,3.31,0,0,1,.45,3H53.07a3.28,3.28,0,0,1,.48-3.08,6,6,0,0,0,1-4A1.14,1.14,0,0,1,55.67,55.13Zm-9.23,7.25a6,6,0,0,0-.95-4A1.19,1.19,0,0,1,46,56.77l.6-.33a1.12,1.12,0,0,1,1.53.49l.46.91a5.39,5.39,0,0,0,2.59,2.36,5.58,5.58,0,0,0-.3,3.2H46.42A3.49,3.49,0,0,1,46.44,62.38ZM78.37,74.51H9.63v-8.9H78.37Zm-39.78-17h.67a1.16,1.16,0,0,1,1.14,1.17,6,6,0,0,0,1,4.06,3.48,3.48,0,0,1,.38.68H36.05a3.63,3.63,0,0,1,.41-.72,6,6,0,0,0,1-4,1.16,1.16,0,0,1,1.14-1.17Zm-5.8-1c.6.24,1,.29,1.27.85.47,1.06-1.2,2.28-.38,5.07a3.34,3.34,0,0,1,.14,1H27.57a3.16,3.16,0,0,1,.14-1,3.23,3.23,0,0,1,1.34-1.79,5.92,5.92,0,0,0,2.28-3.42,1.13,1.13,0,0,1,1.46-.69Zm-9.58-.09h.68A1.15,1.15,0,0,1,25,57.57v1a5,5,0,0,0,.8,2.71,5.45,5.45,0,0,0-.39,2.1h-5a3.2,3.2,0,0,1,.66-1.81,6,6,0,0,0,1-4A1.15,1.15,0,0,1,23.21,56.4Zm-7.45-7.35H17.9V63.4H15.76Zm0-23.34H17.9V40.05H15.76ZM30.82,32a5.3,5.3,0,0,1,6.5-.8,8,8,0,0,0-.58,8.84H31.89A8,8,0,0,0,30.82,32ZM20,39.41V34.48a5.48,5.48,0,0,1,3.57-3c0,1.84,2.15,1.6,2.14.2a1.84,1.84,0,0,1,0-.31,5.68,5.68,0,0,1,3.71,8.67H20.4C20.27,39.84,20.15,39.63,20,39.41Zm45.14-9.8a1.1,1.1,0,0,0-1-1.85,3.46,3.46,0,0,0-2.11,1.36,7.52,7.52,0,0,0-5.82,3.39,7.37,7.37,0,0,0-6.78-.9,7.58,7.58,0,0,0-4.12-3.07A1.07,1.07,0,0,0,44,29.3a1.12,1.12,0,0,0,.73,1.37,5.69,5.69,0,0,1,2.34,9.38H39.43a5.71,5.71,0,0,1,2-9.28,1.11,1.11,0,0,0,.64-1.41,1.06,1.06,0,0,0-1.36-.67,7.77,7.77,0,0,0-1.8,1,7.4,7.4,0,0,0-9.68.85,7.31,7.31,0,0,0-2.82-1.24,1.43,1.43,0,0,1,.82-.52,1.12,1.12,0,0,0,.84-1.31,1.08,1.08,0,0,0-1.27-.86A3.85,3.85,0,0,0,24,29.16,7.52,7.52,0,0,0,20,31V25.71H68v5.78a7.57,7.57,0,0,0-2.78-1.88Zm-14.71,4a5.29,5.29,0,0,1,4.84.91,8,8,0,0,0,.25,5.53H49.8A8.08,8.08,0,0,0,50.47,33.61Zm16.58,6.44H58a5.7,5.7,0,0,1,3.13-8.54,7.28,7.28,0,0,0-.12,1.4,1.07,1.07,0,1,0,2.14,0,5.88,5.88,0,0,1,.22-1.49,5.67,5.67,0,0,1,3.7,8.67ZM9.63,18.92c8,0,59.65,0,68.74,0V23.5H9.63ZM20,8.05a4.11,4.11,0,0,1,5.19,1.51c-1.93,3.85-2.75,4.94-2.68,7.15H20ZM35.35,9.83a4.46,4.46,0,0,1-.18,3.56L33.5,16.71H24.69c-.08-1.88.83-2.62,2.71-6.67.08-.15.34-.67.33-.64A4.13,4.13,0,0,1,35.35,9.83Zm6.41-3.2a6.75,6.75,0,0,0,0,5.31l2,4.77h-7l-.17-1.39c.48-1,.49-1,.55-1.11a6.73,6.73,0,0,0-.26-6.14,4.12,4.12,0,0,1,4.86-1.44Zm8-1a6.73,6.73,0,0,0-1,3.58c0,6.12-.09,6.4.13,7.51H46.12c-.28-.53-2.48-5.82-2.49-5.83C42.17,7,46.37,3.46,49.74,5.62ZM59.23,9.2c-.09,5,.26,6.09-.35,7.51H51.21c-.6-1.39-.26-2.13-.36-7.51a4.19,4.19,0,1,1,8.38,0ZM61.1,7.29A4.12,4.12,0,0,1,68,8v8.75H61.6l-.26-1.08c0-.46,0-6.31,0-6.6A6.32,6.32,0,0,0,61.1,7.29Zm9-3.8h2.14V16.71H70.1Zm9.34,22.22a1.08,1.08,0,0,0,1.07-1.1v-6.8a1.08,1.08,0,0,0-1.07-1.1H74.38V2.39a1.09,1.09,0,0,0-1.07-1.11H69A1.09,1.09,0,0,0,68,2.39V4.75a6.2,6.2,0,0,0-4.15-1.19l-.09-.36a1.06,1.06,0,0,0-1.3-.8,1.12,1.12,0,0,0-.77,1.35l.09.35a6.12,6.12,0,0,0-1.67,1.12,6.29,6.29,0,0,0-4-2.47V2.39a1.07,1.07,0,1,0-2.14,0v.36A6.21,6.21,0,0,0,51.22,4,6.13,6.13,0,0,0,46,3l-.14-.33a1.06,1.06,0,0,0-1.41-.57,1.12,1.12,0,0,0-.55,1.46l.14.33A6.4,6.4,0,0,0,43,4.77a6.06,6.06,0,0,0-2.47-.63l0-.36a1.08,1.08,0,0,0-1.2-1,1.11,1.11,0,0,0-.93,1.24l0,.36a6.48,6.48,0,0,0-2.9,1.94l-.22-.18.17-.32A1.13,1.13,0,0,0,35,4.37a1.05,1.05,0,0,0-1.44.47l-.16.32a6.23,6.23,0,0,0-7,2.34,6.2,6.2,0,0,0-3.52-1.95V5.19a1.07,1.07,0,1,0-2.14,0v.36a4.88,4.88,0,0,0-.66.16V2.39A1.09,1.09,0,0,0,19,1.28H14.69a1.09,1.09,0,0,0-1.07,1.11V8.7a1.07,1.07,0,1,0,2.14,0V3.49H17.9V16.71H15.76V12.82a1.07,1.07,0,1,0-2.14,0v3.89H8.56a1.08,1.08,0,0,0-1.07,1.1v6.8a1.08,1.08,0,0,0,1.07,1.1h5.06V40.05H8.56a1.09,1.09,0,0,0-1.07,1.11V48a1.09,1.09,0,0,0,1.07,1.11h5.06V63.4H8.56a1.08,1.08,0,0,0-1.07,1.1V75.61a1.09,1.09,0,0,0,1.07,1.11H79.44a1.09,1.09,0,0,0,1.07-1.11V64.5a1.08,1.08,0,0,0-1.07-1.1H74.38V49.06h5.06A1.09,1.09,0,0,0,80.51,48V41.16a1.09,1.09,0,0,0-1.07-1.11H74.38V25.71Z" transform="translate(-7.49 -1.28)"/></svg>