<svg id="Capa_1" data-name="Capa 1" xmlns="http://www.w3.org/2000/svg" viewBox="0 0 89.7 58.95"><defs><style>.cls-1{fill:none;stroke:#fbb800;stroke-linecap:round;stroke-linejoin:round;stroke-width:3px;}.cls-2{fill:#fbb800;}</style></defs><path class="cls-1" d="M.65,34.09h86.7M78.32,67H9.68a9,9,0,0,1-9-9V20.06a9,9,0,0,1,9-9H78.32a9,9,0,0,1,9,9V57.94A9,9,0,0,1,78.32,67Z" transform="translate(0.85 -9.52)"/><path class="cls-2" d="M71,53.14a.78.78,0,0,0,.83.63.79.79,0,0,0,.84-.63l.07-2,2-.07a.87.87,0,0,0,0-1.68l-1.95-.07-.08-2a.8.8,0,0,0-.84-.64.79.79,0,0,0-.83.64l-.07,2-2,.07a.87.87,0,0,0,0,1.68l2,.07Z" transform="translate(0.85 -9.52)"/><path class="cls-2" d="M71.15,44.83l-.36-4c0-.41.47-.73,1-.73s1.09.33,1.06.73l-.36,4c0,.25-.34.43-.7.43s-.67-.2-.69-.43" transform="translate(0.85 -9.52)"/><path class="cls-2" d="M76.27,53.57l3.31,2.32c.34.23.86,0,1.16-.55s.25-1.1-.11-1.27L77,52.36a.68.68,0,0,0-.73.39.68.68,0,0,0,0,.82" transform="translate(0.85 -9.52)"/><path class="cls-2" d="M76.16,47.69c.18.31.5.5.72.39l3.67-1.71c.36-.17.39-.76.1-1.27s-.82-.77-1.15-.55l-3.32,2.32a.65.65,0,0,0,0,.82" transform="translate(0.85 -9.52)"/><path class="cls-2" d="M71.15,55.76l-.36,4c0,.38.47.73,1,.73s1.09-.33,1.06-.73l-.36-4c0-.25-.34-.43-.7-.43s-.67.19-.69.43" transform="translate(0.85 -9.52)"/><path class="cls-2" d="M58.5,45.63c.19.94.72,3.67.72,3.67.22,1.13.43,2.31.58,3.24h0c.15-1,.39-1.93.64-3.09l.9-3.82h2l.84,3.92c.22,1.09.4,1.93.53,3h0c.15-1,.35-1.9.56-3l.81-3.85H68l-2.36,8.9c-1.5.33-2.07-.27-2.28-1.23s-.6-2.78-.6-2.78a24.72,24.72,0,0,1-.48-2.73h0c-.16,1-.33,1.73-.58,2.72l-1,4c-1.53.31-2.06-.15-2.35-1.37-.26-1-1.84-7.53-1.84-7.53Z" transform="translate(0.85 -9.52)"/><line class="cls-1" x1="1.5" y1="13.85" x2="88.2" y2="13.85"/></svg>