<svg id="Capa_1" data-name="Capa 1" xmlns="http://www.w3.org/2000/svg" viewBox="0 0 540.2 59.8"><defs><style>.cls-1{fill:#fff;}</style></defs><path class="cls-1" d="M577.82,60.2h-30.6a2.07,2.07,0,0,1-2.09-2V4.07a2.07,2.07,0,0,1,2.09-2h7.69a2.11,2.11,0,0,1,2.08,2V49.43h20.83a2.06,2.06,0,0,1,2.08,2v6.7A2.06,2.06,0,0,1,577.82,60.2ZM547.22,3a1.09,1.09,0,0,0-1.1,1.08V58.16a1.09,1.09,0,0,0,1.1,1.08h30.6a1.09,1.09,0,0,0,1.1-1.08v-6.7a1.09,1.09,0,0,0-1.1-1.07H556V4.07A1.15,1.15,0,0,0,554.91,3Z" transform="translate(-39.7 -1.21)"/><path class="cls-1" d="M514.7,40.67H496.37L505,21.73h.88Zm-16.81-1h15.28l-7.72-16.6Z" transform="translate(-39.7 -1.21)"/><path class="cls-1" d="M531.83,60.2h-7.27a2.89,2.89,0,0,1-2.87-1.9l-4-8.56H493.35l-4,8.54a3,3,0,0,1-2.87,1.92h-7.27a2.08,2.08,0,0,1-1.79-.89,2,2,0,0,1-.08-1.92l26-55a2,2,0,0,1,1.87-1.18h.84a1.92,1.92,0,0,1,1.86,1.17l25.76,55a2,2,0,0,1-.08,1.92A2.08,2.08,0,0,1,531.83,60.2ZM492.72,48.78h25.63l4.23,9.1c.53,1,1,1.36,2,1.36h7.27a1.13,1.13,0,0,0,1-.45,1,1,0,0,0,0-1l-25.76-55a.92.92,0,0,0-1-.61h-.84a1,1,0,0,0-1,.63l-26,55a1,1,0,0,0,0,1,1.13,1.13,0,0,0,1,.45h7.27a2,2,0,0,0,2-1.34Z" transform="translate(-39.7 -1.21)"/><path class="cls-1" d="M463.94,61h-1.17A2.33,2.33,0,0,1,461,60.3L427.39,24.09V58.16a2.06,2.06,0,0,1-2.08,2H417.7a2.11,2.11,0,0,1-2.08-2v-55a2,2,0,0,1,2.08-2H419a2.33,2.33,0,0,1,1.77.72l33.45,34.84V4.07a2.06,2.06,0,0,1,2.08-2h7.69a2.11,2.11,0,0,1,2.08,2v55A2,2,0,0,1,463.94,61ZM426.41,22.54h.87l.15.16,34.28,36.94a1.35,1.35,0,0,0,1.06.41h1.17a1.08,1.08,0,0,0,1.1-1v-55A1.15,1.15,0,0,0,463.94,3h-7.69a1.09,1.09,0,0,0-1.1,1.08V38.3h-.87l-.15-.16L420,2.6A1.33,1.33,0,0,0,419,2.18H417.7a1.08,1.08,0,0,0-1.1,1v55a1.16,1.16,0,0,0,1.1,1.08h7.61a1.09,1.09,0,0,0,1.1-1.08Z" transform="translate(-39.7 -1.21)"/><path class="cls-1" d="M385.19,40.67H366.86l8.63-18.94h.89Zm-16.82-1h15.29l-7.72-16.6Z" transform="translate(-39.7 -1.21)"/><path class="cls-1" d="M402.32,60.2H395a2.88,2.88,0,0,1-2.86-1.9l-4-8.56H363.84l-4,8.54A3,3,0,0,1,357,60.2h-7.28a2.08,2.08,0,0,1-1.78-.89,1.93,1.93,0,0,1-.09-1.92l26-55a2,2,0,0,1,1.87-1.18h.83a1.91,1.91,0,0,1,1.86,1.17l25.77,55a1.93,1.93,0,0,1-.09,1.92A2.08,2.08,0,0,1,402.32,60.2ZM363.2,48.78h25.64l4.22,9.1c.54,1,1,1.36,2,1.36h7.28a1.1,1.1,0,0,0,.95-.45,1,1,0,0,0,0-1l-25.75-55a.93.93,0,0,0-1-.61h-.83a1,1,0,0,0-1,.63l-26,55a1,1,0,0,0,0,1,1.1,1.1,0,0,0,1,.45H357a2,2,0,0,0,2-1.34Z" transform="translate(-39.7 -1.21)"/><path class="cls-1" d="M319.46,61c-16.92,0-30.68-13.38-30.68-29.82s13.76-30,30.68-30A29.21,29.21,0,0,1,340,8.94a2,2,0,0,1,.74,1.48,2,2,0,0,1-.64,1.5L335,17.07a1.8,1.8,0,0,1-1.31.63,2,2,0,0,1-1.48-.63,19.52,19.52,0,0,0-12.53-4.68A18.17,18.17,0,0,0,301.55,31a18.12,18.12,0,0,0,18.24,18.4,19.81,19.81,0,0,0,12.49-4.55,2,2,0,0,1,2.74,0l5.19,5.24a1.71,1.71,0,0,1,.57,1.24,2.22,2.22,0,0,1-.66,1.64A29.42,29.42,0,0,1,319.46,61Zm0-58.84c-16.38,0-29.7,13-29.7,29s13.32,28.85,29.7,28.85a28.42,28.42,0,0,0,20-7.79,1.29,1.29,0,0,0,.37-.91.81.81,0,0,0-.27-.59l-5.21-5.26a1.09,1.09,0,0,0-1.41,0,20.75,20.75,0,0,1-13.12,4.78A19.08,19.08,0,0,1,300.57,31a19.13,19.13,0,0,1,19.14-19.52,20.55,20.55,0,0,1,13.2,4.94,1.15,1.15,0,0,0,.77.37.89.89,0,0,0,.62-.32l5.12-5.17a1,1,0,0,0-.06-1.6A28.28,28.28,0,0,0,319.46,2.18Z" transform="translate(-39.7 -1.21)"/><path class="cls-1" d="M271.88,60.2h-7.77a2.12,2.12,0,0,1-2.09-2V4.07a2.12,2.12,0,0,1,2.09-2h7.77a2.11,2.11,0,0,1,2.08,2V58.16A2.11,2.11,0,0,1,271.88,60.2ZM264.11,3A1.14,1.14,0,0,0,263,4.07V58.16a1.15,1.15,0,0,0,1.1,1.08h7.77a1.16,1.16,0,0,0,1.1-1.08V4.07A1.15,1.15,0,0,0,271.88,3Z" transform="translate(-39.7 -1.21)"/><path class="cls-1" d="M241.7,61h-1.17a2.35,2.35,0,0,1-1.77-.72L205.15,24.09V58.16a2.06,2.06,0,0,1-2.08,2h-7.61a2.11,2.11,0,0,1-2.08-2v-55a2,2,0,0,1,2.08-2h1.26a2.32,2.32,0,0,1,1.76.72l33.45,34.84V4.07A2.06,2.06,0,0,1,234,2h7.69a2.11,2.11,0,0,1,2.08,2v55A2,2,0,0,1,241.7,61ZM204.17,22.54H205l.15.16,34.28,36.94a1.35,1.35,0,0,0,1.06.41h1.17a1.08,1.08,0,0,0,1.1-1v-55A1.15,1.15,0,0,0,241.7,3H234a1.09,1.09,0,0,0-1.1,1.08V38.3H232l-.15-.16L197.78,2.6a1.33,1.33,0,0,0-1.06-.42h-1.26a1.08,1.08,0,0,0-1.1,1v55a1.16,1.16,0,0,0,1.1,1.08h7.61a1.09,1.09,0,0,0,1.1-1.08Z" transform="translate(-39.7 -1.21)"/><path class="cls-1" d="M145.88,61h-1.51a2,2,0,0,1-1.86-1.17L128.2,28.79l-4.66,29.77a2.09,2.09,0,0,1-2,1.64H114a2.11,2.11,0,0,1-1.62-.67,2.07,2.07,0,0,1-.45-1.76v0l10-54.91a1.89,1.89,0,0,1,2-1.63h1.34a2,2,0,0,1,1.86,1.09l18.08,37.91,18.07-37.9a2,2,0,0,1,1.87-1.1h1.34a1.89,1.89,0,0,1,2,1.65l9.86,54.89a2,2,0,0,1-.35,1.76,2.09,2.09,0,0,1-1.64.69h-7.6a2.32,2.32,0,0,1-2.07-1.58L161.89,28.8l-14.14,31A1.91,1.91,0,0,1,145.88,61Zm-18.4-34h1l14.93,32.4a1,1,0,0,0,1,.61h1.51a.92.92,0,0,0,1-.57L161.61,27h1l5,31.38a1.33,1.33,0,0,0,1.11.82h7.6a1.1,1.1,0,0,0,.88-.34,1.11,1.11,0,0,0,.15-1L167.47,3a.92.92,0,0,0-1-.82h-1.34a1,1,0,0,0-1,.55L145.61,41.57h-.88L126.2,2.72a1,1,0,0,0-1-.54h-1.34a.92.92,0,0,0-1,.8l-10,54.93a1.21,1.21,0,0,0,.22,1,1.13,1.13,0,0,0,.88.34h7.53a1.13,1.13,0,0,0,1-.82Z" transform="translate(-39.7 -1.21)"/><path class="cls-1" d="M70.21,50.39A19.44,19.44,0,0,1,50.57,31.2a19.68,19.68,0,0,1,39.36,0C89.93,41.78,81.09,50.39,70.21,50.39Zm0-37.59A18.55,18.55,0,0,0,51.55,31.2,18.47,18.47,0,0,0,70.21,49.43C80.54,49.43,89,41.25,89,31.2S80.37,12.8,70.21,12.8Z" transform="translate(-39.7 -1.21)"/><path class="cls-1" d="M70.21,61C53.1,61,39.7,47.92,39.7,31.2c0-16.54,13.69-30,30.51-30s30.59,13.45,30.59,30C100.8,47.92,87.37,61,70.21,61Zm0-58.84c-16.28,0-29.53,13-29.53,29,0,16.18,13,28.85,29.53,28.85S99.82,47.38,99.82,31.2C99.82,15.19,86.54,2.18,70.21,2.18Z" transform="translate(-39.7 -1.21)"/></svg>