<svg id="Capa_1" data-name="Capa 1" xmlns="http://www.w3.org/2000/svg" viewBox="0 0 522.21 54.18"><defs><style>.cls-1{fill:#fff;}</style></defs><path class="cls-1" d="M35,3.09a25.46,25.46,0,0,1,18.21,7,1.39,1.39,0,0,1,.08,2.1l-4.59,4.74a1.19,1.19,0,0,1-1.88,0,17.84,17.84,0,0,0-11.59-4.44C25.55,12.49,18.4,20.55,18.4,30s7.22,17.38,16.85,17.38a18.06,18.06,0,0,0,11.52-4.29,1.38,1.38,0,0,1,1.88,0l4.66,4.82a1.42,1.42,0,0,1-.07,2A25.82,25.82,0,0,1,35,57.27,27.09,27.09,0,1,1,35,3.09Z" transform="translate(-7.79 -3.09)"/><path class="cls-1" d="M64.9,5.27a1.43,1.43,0,0,1,1.43-1.43H87.85A16.3,16.3,0,0,1,104.26,20c0,6.92-4.6,12.57-11.14,15.2l10.31,19.12a1.43,1.43,0,0,1-1.28,2.18h-7.9A1.3,1.3,0,0,1,93,55.84L83,35.9H74.68V55.09a1.48,1.48,0,0,1-1.43,1.43H66.33a1.43,1.43,0,0,1-1.43-1.43ZM87,27.85a7.67,7.67,0,0,0,7.45-7.68A7.48,7.48,0,0,0,87,12.87H74.76v15Z" transform="translate(-7.79 -3.09)"/><path class="cls-1" d="M116.82,5.27a1.43,1.43,0,0,1,1.43-1.43h30.63a1.44,1.44,0,0,1,1.43,1.43v6.17a1.44,1.44,0,0,1-1.43,1.43H126.6V25.21h18.59a1.48,1.48,0,0,1,1.43,1.43v6.25a1.43,1.43,0,0,1-1.43,1.43H126.6V47.49h22.28a1.43,1.43,0,0,1,1.43,1.43v6.17a1.44,1.44,0,0,1-1.43,1.43H118.25a1.43,1.43,0,0,1-1.43-1.43Z" transform="translate(-7.79 -3.09)"/><path class="cls-1" d="M185.59,3.09a25.48,25.48,0,0,1,18.22,7,1.4,1.4,0,0,1,.07,2.1l-4.59,4.74a1.19,1.19,0,0,1-1.88,0,17.84,17.84,0,0,0-11.59-4.44C176.19,12.49,169,20.55,169,30s7.22,17.38,16.86,17.38a18.05,18.05,0,0,0,11.51-4.29,1.38,1.38,0,0,1,1.88,0L204,47.94a1.43,1.43,0,0,1-.08,2,25.82,25.82,0,0,1-18.29,7.3,27.09,27.09,0,1,1,0-54.18Z" transform="translate(-7.79 -3.09)"/><path class="cls-1" d="M215.54,5.27A1.48,1.48,0,0,1,217,3.84h7a1.48,1.48,0,0,1,1.43,1.43V55.09A1.48,1.48,0,0,1,224,56.52h-7a1.48,1.48,0,0,1-1.43-1.43Z" transform="translate(-7.79 -3.09)"/><path class="cls-1" d="M246.47,4.22a1.26,1.26,0,0,1,1.35-1.13H249a1.38,1.38,0,0,1,1.28.75l16.55,35.52h.23L283.64,3.84a1.3,1.3,0,0,1,1.28-.75h1.21a1.26,1.26,0,0,1,1.35,1.13l8.88,50.57A1.31,1.31,0,0,1,295,56.52h-6.85a1.63,1.63,0,0,1-1.43-1.13l-4.44-28.52h-.23L268.89,56.44a1.28,1.28,0,0,1-1.28.83h-1.35a1.36,1.36,0,0,1-1.28-.83L251.66,26.87h-.23l-4.36,28.52a1.46,1.46,0,0,1-1.36,1.13h-6.77a1.38,1.38,0,0,1-1.43-1.73Z" transform="translate(-7.79 -3.09)"/><path class="cls-1" d="M308.55,5.27A1.48,1.48,0,0,1,310,3.84h7a1.48,1.48,0,0,1,1.43,1.43V55.09A1.48,1.48,0,0,1,317,56.52h-7a1.48,1.48,0,0,1-1.43-1.43Z" transform="translate(-7.79 -3.09)"/><path class="cls-1" d="M333.38,5.27a1.43,1.43,0,0,1,1.43-1.43h30.62a1.43,1.43,0,0,1,1.43,1.43v6.17a1.43,1.43,0,0,1-1.43,1.43H343.16V25.21h18.59a1.48,1.48,0,0,1,1.43,1.43v6.25a1.43,1.43,0,0,1-1.43,1.43H343.16V47.49h22.27a1.42,1.42,0,0,1,1.43,1.43v6.17a1.43,1.43,0,0,1-1.43,1.43H334.81a1.43,1.43,0,0,1-1.43-1.43Z" transform="translate(-7.79 -3.09)"/><path class="cls-1" d="M379,4.44a1.41,1.41,0,0,1,1.43-1.35h1.12a1.65,1.65,0,0,1,1.28.52l30.71,32.74h.15V5.27a1.43,1.43,0,0,1,1.43-1.43H422a1.48,1.48,0,0,1,1.43,1.43V55.92A1.41,1.41,0,0,1,422,57.27h-1a1.63,1.63,0,0,1-1.28-.53l-30.86-34h-.15V55.09a1.43,1.43,0,0,1-1.43,1.43h-6.84A1.48,1.48,0,0,1,379,55.09Z" transform="translate(-7.79 -3.09)"/><path class="cls-1" d="M447,12.87H435.49a1.43,1.43,0,0,1-1.43-1.43V5.27a1.43,1.43,0,0,1,1.43-1.43h32.88a1.43,1.43,0,0,1,1.43,1.43v6.17a1.43,1.43,0,0,1-1.43,1.43H456.86V55.09a1.48,1.48,0,0,1-1.43,1.43h-7A1.48,1.48,0,0,1,447,55.09Z" transform="translate(-7.79 -3.09)"/><path class="cls-1" d="M502.91,3.09a27.09,27.09,0,1,1-27,27.16A27,27,0,0,1,502.91,3.09Zm0,44.4a17.31,17.31,0,1,0-17.23-17.24A17.35,17.35,0,0,0,502.91,47.49Z" transform="translate(-7.79 -3.09)"/></svg>