<svg id="Capa_1" data-name="Capa 1" xmlns="http://www.w3.org/2000/svg" viewBox="0 0 519.47 53.88"><defs><style>.cls-1{fill:#fff;}</style></defs><path class="cls-1" d="M15.61,5.1a1.71,1.71,0,0,1,1.6-1.43h31.1A1.24,1.24,0,0,1,49.57,5.1l-1,6.13a1.71,1.71,0,0,1-1.68,1.42H25.36L23.43,24.93H41.25a1.27,1.27,0,0,1,1.26,1.42l-1,6.21A1.78,1.78,0,0,1,39.82,34H22l-2.1,13.1H41.5a1.18,1.18,0,0,1,1.18,1.42l-.92,6.13a1.73,1.73,0,0,1-1.69,1.43H9A1.14,1.14,0,0,1,7.8,54.63Z" transform="translate(-7.76 -2.93)"/><path class="cls-1" d="M88.15,2.93A23.81,23.81,0,0,1,105.63,10a1.44,1.44,0,0,1-.33,2.1L100.76,16A2.06,2.06,0,0,1,98,16a16.16,16.16,0,0,0-10.43-3.74c-10.08,0-18.83,9.28-18.83,20C68.73,40.19,73.52,47,81.59,47a18.48,18.48,0,0,0,11.52-4.41,1.8,1.8,0,0,1,2.69.07l4.37,4.87a1.62,1.62,0,0,1-.42,2,28.56,28.56,0,0,1-19,7.25c-14.54,0-24-10.4-24-23.27C56.8,16,70.75,2.93,88.15,2.93Z" transform="translate(-7.76 -2.93)"/><path class="cls-1" d="M144,2.93a23.29,23.29,0,0,1,23.62,23.42c0,16.84-13.7,30.45-31.43,30.45a23.23,23.23,0,0,1-23.62-23.19C112.61,16.69,126.14,2.93,144,2.93Zm12.28,24.62c0-8.09-5.22-14.9-13.54-14.9C132.7,12.65,124,21.71,124,32.33c0,8.09,5.13,14.75,13.45,14.75C147.66,47.08,156.32,38.25,156.32,27.55Z" transform="translate(-7.76 -2.93)"/><path class="cls-1" d="M192.54,4.05a1.53,1.53,0,0,1,1.6-1.12h1.17a1.19,1.19,0,0,1,1.18.74l11.43,33.9h.17L231,3.67a1.69,1.69,0,0,1,1.43-.74h1.26a1.21,1.21,0,0,1,1.18,1.12l.76,50.28a1.66,1.66,0,0,1-1.69,1.73h-8.07a1.17,1.17,0,0,1-1.26-1.13l.68-26.86H225L207.42,56a1.63,1.63,0,0,1-1.43.82h-1.35a1.15,1.15,0,0,1-1.17-.82l-8.58-27.91h-.17l-8.07,26.86a1.52,1.52,0,0,1-1.59,1.13h-8a1.2,1.2,0,0,1-1.18-1.73Z" transform="translate(-7.76 -2.93)"/><path class="cls-1" d="M264.74,4.05a1.53,1.53,0,0,1,1.59-1.12h1.18a1.19,1.19,0,0,1,1.18.74l11.43,33.9h.17l22.86-33.9a1.69,1.69,0,0,1,1.43-.74h1.26A1.21,1.21,0,0,1,307,4.05l.75,50.28a1.65,1.65,0,0,1-1.68,1.73H298a1.17,1.17,0,0,1-1.26-1.13l.68-26.86h-.26L279.62,56a1.63,1.63,0,0,1-1.43.82h-1.35a1.15,1.15,0,0,1-1.17-.82l-8.58-27.91h-.17l-8.07,26.86a1.52,1.52,0,0,1-1.59,1.13h-8a1.2,1.2,0,0,1-1.18-1.73Z" transform="translate(-7.76 -2.93)"/><path class="cls-1" d="M331,5.1a1.71,1.71,0,0,1,1.6-1.43h31.1a1.24,1.24,0,0,1,1.26,1.43l-1,6.13a1.72,1.72,0,0,1-1.68,1.42H340.72l-1.93,12.28h17.82a1.28,1.28,0,0,1,1.26,1.42l-1,6.21A1.8,1.8,0,0,1,355.18,34H337.36l-2.1,13.1h21.6A1.17,1.17,0,0,1,358,48.5l-.92,6.13a1.72,1.72,0,0,1-1.68,1.43h-31.1a1.15,1.15,0,0,1-1.18-1.43Z" transform="translate(-7.76 -2.93)"/><path class="cls-1" d="M380.14,5.1a1.7,1.7,0,0,1,1.59-1.43h22.2a13.87,13.87,0,0,1,14.2,14c0,9.13-5.38,15-13.36,17.28l6.89,19.16a1.4,1.4,0,0,1-1.43,2h-8a1.71,1.71,0,0,1-1.85-1.2l-6.13-19.31h-8l-3,19.08a1.71,1.71,0,0,1-1.6,1.43H373.5a1.15,1.15,0,0,1-1.18-1.43Zm18,22.45A8.55,8.55,0,0,0,407,18.87c0-4.12-2.35-6.22-5.46-6.22H390l-2.35,14.9Z" transform="translate(-7.76 -2.93)"/><path class="cls-1" d="M460.41,2.93A23.83,23.83,0,0,1,477.89,10a1.44,1.44,0,0,1-.34,2.1L473,16a2.06,2.06,0,0,1-2.77,0,16.1,16.1,0,0,0-10.42-3.74c-10.09,0-18.83,9.28-18.83,20C441,40.19,445.78,47,453.85,47a18.5,18.5,0,0,0,11.52-4.41,1.81,1.81,0,0,1,2.69.07l4.37,4.87a1.63,1.63,0,0,1-.42,2,28.6,28.6,0,0,1-19,7.25c-14.54,0-24-10.4-24-23.27C429.05,16,443,2.93,460.41,2.93Z" transform="translate(-7.76 -2.93)"/><path class="cls-1" d="M493.27,5.1a1.7,1.7,0,0,1,1.59-1.43H526a1.24,1.24,0,0,1,1.26,1.43l-1,6.13a1.72,1.72,0,0,1-1.68,1.42H503l-1.94,12.28H518.9a1.29,1.29,0,0,1,1.27,1.42l-1,6.21A1.8,1.8,0,0,1,517.48,34H499.66l-2.11,13.1h21.61a1.17,1.17,0,0,1,1.17,1.42l-.92,6.13a1.73,1.73,0,0,1-1.68,1.43h-31.1a1.15,1.15,0,0,1-1.18-1.43Z" transform="translate(-7.76 -2.93)"/></svg>