<svg id="Capa_1" data-name="Capa 1" xmlns="http://www.w3.org/2000/svg" viewBox="0 0 487.59 56"><defs><style>.cls-1{fill:#fff;}</style></defs><path class="cls-1" d="M55.48,1.86C69.25,1.86,79.36,13,79.36,26.21A31.46,31.46,0,0,1,47.58,57.86,23.81,23.81,0,0,1,23.71,33.75,31.51,31.51,0,0,1,55.48,1.86ZM67.89,27.45c0-8.4-5.27-15.47-13.68-15.47-10.2,0-19,9.41-19,20.45,0,8.4,5.18,15.32,13.59,15.32C59.14,47.75,67.89,38.58,67.89,27.45Z" transform="translate(-23.71 -1.86)"/><path class="cls-1" d="M98.56,3.27a1.67,1.67,0,0,1,1.61-1.41h.94c.93,0,1.27,0,2.21,1.25l25,32.36h.08L133,4.12a1.66,1.66,0,0,1,1.61-1.48h8.25a1.32,1.32,0,0,1,1.27,1.48L136,56.47a1.67,1.67,0,0,1-1.62,1.39h-.85c-1.27,0-1.61-.23-2.46-1.39L106.29,23.25h-.09l-4.58,32.36a1.76,1.76,0,0,1-1.7,1.48H91.76a1.21,1.21,0,0,1-1.19-1.32Z" transform="translate(-23.71 -1.86)"/><path class="cls-1" d="M162.53,4.12a1.75,1.75,0,0,1,1.62-1.48H182.5c13.42,0,23,11,23,23.65,0,16.88-12.83,30.8-31.35,30.8H155.73a1.16,1.16,0,0,1-1.1-1.48ZM174.77,47.6c10.36,0,18.94-9,18.94-20.61,0-8.48-5.26-14.94-13.42-14.94h-8L166.86,47.6Z" transform="translate(-23.71 -1.86)"/><path class="cls-1" d="M224.55,4.12a1.75,1.75,0,0,1,1.62-1.48H257.6a1.28,1.28,0,0,1,1.28,1.48l-1,6.38a1.76,1.76,0,0,1-1.7,1.48H234.41l-2,12.75h18a1.32,1.32,0,0,1,1.27,1.48l-1,6.45a1.82,1.82,0,0,1-1.7,1.48H231l-2.12,13.61h21.83a1.21,1.21,0,0,1,1.19,1.48L251,55.61a1.76,1.76,0,0,1-1.7,1.48H217.84a1.18,1.18,0,0,1-1.19-1.48Z" transform="translate(-23.71 -1.86)"/><path class="cls-1" d="M280.37,3A1.56,1.56,0,0,1,282,1.86h1.19a1.2,1.2,0,0,1,1.19.78l11.56,35.24h.17L319.2,2.64a1.68,1.68,0,0,1,1.44-.78h1.28A1.25,1.25,0,0,1,323.11,3l.76,52.27a1.69,1.69,0,0,1-1.7,1.79H314a1.2,1.2,0,0,1-1.28-1.17L313.42,28h-.25L295.41,57a1.62,1.62,0,0,1-1.44.85h-1.36a1.17,1.17,0,0,1-1.19-.85l-8.67-29h-.17l-8.16,27.92a1.55,1.55,0,0,1-1.61,1.17h-8.07c-.94,0-1.53-.7-1.19-1.79Z" transform="translate(-23.71 -1.86)"/><path class="cls-1" d="M333.3,55.07,365.25,2.72a1.59,1.59,0,0,1,1.44-.86h.77a1.27,1.27,0,0,1,1.19.86l15.63,52.35a1.56,1.56,0,0,1-1.62,2h-7.39c-1.27,0-1.95-.39-2.21-1.56l-2.12-8.63H349.78l-4.93,8.63a3,3,0,0,1-2.71,1.56h-7.82C333.13,57.09,332.7,56.08,333.3,55.07ZM368.22,38.5l-4-17h-.17l-9.26,17Z" transform="translate(-23.71 -1.86)"/><path class="cls-1" d="M404.33,3.27a1.67,1.67,0,0,1,1.61-1.41h.93c.94,0,1.28,0,2.21,1.25l25,32.36h.09l4.59-31.35a1.66,1.66,0,0,1,1.61-1.48h8.24a1.32,1.32,0,0,1,1.28,1.48L441.8,56.47a1.67,1.67,0,0,1-1.62,1.39h-.85c-1.27,0-1.61-.23-2.46-1.39L412.06,23.25H412l-4.59,32.36a1.74,1.74,0,0,1-1.69,1.48h-8.16a1.21,1.21,0,0,1-1.19-1.32Z" transform="translate(-23.71 -1.86)"/><path class="cls-1" d="M468.3,4.12a1.73,1.73,0,0,1,1.61-1.48h18.36c13.42,0,23,11,23,23.65,0,16.88-12.83,30.8-31.35,30.8H461.5a1.16,1.16,0,0,1-1.1-1.48ZM480.53,47.6c10.37,0,19-9,19-20.61,0-8.48-5.26-14.94-13.42-14.94h-8L472.63,47.6Z" transform="translate(-23.71 -1.86)"/></svg>