<svg id="Capa_1" data-name="Capa 1" xmlns="http://www.w3.org/2000/svg" viewBox="0 0 522.48 56"><defs><style>.cls-1{fill:#fff;}</style></defs><path class="cls-1" d="M41.8,57.14H10.57a1.76,1.76,0,0,1-1.31-.55,1.63,1.63,0,0,1-.36-1.45L16.75,4.51a2.21,2.21,0,0,1,2.09-1.85H50.07a1.73,1.73,0,0,1,1.76,2l-1,6.3a2.21,2.21,0,0,1-2.18,1.84H27.46L25.66,24.4H43a1.77,1.77,0,0,1,1.76,2l-1,6.37a2.28,2.28,0,0,1-2.18,1.84H24.08l-2,12.49H43.23a1.67,1.67,0,0,1,1.21.47A1.82,1.82,0,0,1,44.91,49L44,55.29A2.24,2.24,0,0,1,41.8,57.14Zm-23-53.57a1.25,1.25,0,0,0-1.11,1v0L9.88,55.29A.81.81,0,0,0,10,56a.72.72,0,0,0,.54.21H41.8a1.27,1.27,0,0,0,1.19-1l.93-6.29a.93.93,0,0,0-.22-.77.63.63,0,0,0-.47-.18H21l2.25-14.29H41.54a1.33,1.33,0,0,0,1.2-1.09l1-6.33a.89.89,0,0,0-.25-.72A.76.76,0,0,0,43,25.3H24.52L26.6,11.85h22a1.27,1.27,0,0,0,1.2-1l1-6.3a.9.9,0,0,0-.23-.73.77.77,0,0,0-.54-.2Z" transform="translate(-8.86 -1.9)"/><path class="cls-1" d="M82.64,57.9c-14.22,0-24.55-10.2-24.55-24.25a31.53,31.53,0,0,1,32-31.75A24.27,24.27,0,0,1,108,9.33a1.91,1.91,0,0,1-.39,2.77l-4.54,4a2.58,2.58,0,0,1-3.48,0,15.54,15.54,0,0,0-10.11-3.69c-9.81,0-18.41,9.33-18.41,20,0,10,6.44,14.62,12.42,14.62,3.91,0,7.47-1.39,11.23-4.4a2.79,2.79,0,0,1,1.92-.67,2.28,2.28,0,0,1,1.5.81l4.38,5a2.09,2.09,0,0,1-.45,2.67A29.07,29.07,0,0,1,82.64,57.9ZM90.07,2.8a30.59,30.59,0,0,0-31,30.85C59.08,47.18,69,57,82.64,57a28,28,0,0,0,18.73-7.3,1.29,1.29,0,0,0,.36-1.48l-4.37-4.95a1.21,1.21,0,0,0-.81-.47,1.81,1.81,0,0,0-1.18.45c-3.89,3.11-7.78,4.62-11.88,4.62-7.77,0-13.41-6.52-13.41-15.52,0-11.13,9.06-20.88,19.4-20.88a16.64,16.64,0,0,1,10.81,3.95,1.52,1.52,0,0,0,2.1,0l4.55-4a1.08,1.08,0,0,0,.29-1.55A23.29,23.29,0,0,0,90.07,2.8Z" transform="translate(-8.86 -1.9)"/><path class="cls-1" d="M138.34,57.9a23.93,23.93,0,0,1-24.21-24.17A31.6,31.6,0,0,1,146.19,1.9,24.05,24.05,0,0,1,170.4,26.3C170.4,44,156.32,57.9,138.34,57.9Zm7.85-55.1a30.67,30.67,0,0,0-31.07,30.93A23,23,0,0,0,138.34,57c17.42,0,31.07-13.48,31.07-30.7A23.11,23.11,0,0,0,146.19,2.8ZM139.52,48c-8.11,0-14-6.53-14-15.52,0-11.16,8.88-20.58,19.4-20.58,8.16,0,14.08,6.59,14.08,15.68C159,38.6,150.08,48,139.52,48Zm5.4-35.2c-9.81,0-18.41,9.19-18.41,19.68,0,8.61,5.35,14.62,13,14.62,10,0,18.49-8.94,18.49-19.52C158,19,152.51,12.75,144.92,12.75Z" transform="translate(-8.86 -1.9)"/><path class="cls-1" d="M208.3,57.9H207a1.67,1.67,0,0,1-1.66-1.15L197.08,29.5l-7.71,26.15a2.06,2.06,0,0,1-2.09,1.49h-8a1.78,1.78,0,0,1-1.41-.61,1.76,1.76,0,0,1-.24-1.73L194.32,3.38A2,2,0,0,1,196.4,1.9h1.18A1.69,1.69,0,0,1,199.23,3l11.22,33.88,22.49-34a2.2,2.2,0,0,1,1.86-1h1.26a1.7,1.7,0,0,1,1.68,1.6l.76,51.42a2.16,2.16,0,0,1-2.18,2.22h-8.11a1.65,1.65,0,0,1-1.76-1.6l.64-26.11-16.92,27.4A2.13,2.13,0,0,1,208.3,57.9ZM196.61,27.61h.93l8.7,28.88A.68.68,0,0,0,207,57h1.35a1.14,1.14,0,0,0,1-.59l17.79-28.8h1l-.68,27.94a.7.7,0,0,0,.76.68h8.11a1.2,1.2,0,0,0,1.19-1.31L236.75,3.5a.75.75,0,0,0-.69-.7H234.8a1.15,1.15,0,0,0-1,.57L210.69,38.23h-.82l-11.58-35a.7.7,0,0,0-.71-.44H196.4a1.06,1.06,0,0,0-1.12.81h0L178.56,55.05a1,1,0,0,0,.08.94.79.79,0,0,0,.62.24h8a1.08,1.08,0,0,0,1.13-.82Z" transform="translate(-8.86 -1.9)"/><path class="cls-1" d="M280.87,57.9h-1.35a1.66,1.66,0,0,1-1.65-1.15L269.65,29.5l-7.71,26.15a2,2,0,0,1-2.08,1.49h-8a1.68,1.68,0,0,1-1.66-2.34L266.89,3.38A2.05,2.05,0,0,1,269,1.9h1.18A1.7,1.7,0,0,1,271.81,3L283,36.85l22.49-34a2.21,2.21,0,0,1,1.86-1h1.27a1.7,1.7,0,0,1,1.68,1.6l.76,51.42a2.16,2.16,0,0,1-2.19,2.22h-8.1a1.65,1.65,0,0,1-1.76-1.6l.64-26.11-16.93,27.4A2.13,2.13,0,0,1,280.87,57.9ZM269.18,27.61h.93l8.71,28.88a.67.67,0,0,0,.7.51h1.35a1.11,1.11,0,0,0,1-.59l17.8-28.8h1L300,55.55a.71.71,0,0,0,.77.68h8.1a1.2,1.2,0,0,0,1.19-1.31L309.32,3.5a.74.74,0,0,0-.68-.7h-1.27a1.16,1.16,0,0,0-1,.57L283.26,38.23h-.82l-11.58-35a.69.69,0,0,0-.71-.44H269a1.06,1.06,0,0,0-1.12.81h0L251.14,55.05a1,1,0,0,0,.07.94.81.81,0,0,0,.63.24h8a1.07,1.07,0,0,0,1.12-.82Z" transform="translate(-8.86 -1.9)"/><path class="cls-1" d="M358.43,57.14H327.2a1.76,1.76,0,0,1-1.31-.55,1.63,1.63,0,0,1-.36-1.45l7.85-50.63a2.21,2.21,0,0,1,2.09-1.85H366.7a1.73,1.73,0,0,1,1.76,2l-1,6.3a2.23,2.23,0,0,1-2.18,1.84H344.09l-1.8,11.65h17.32a1.77,1.77,0,0,1,1.76,2l-1,6.37a2.28,2.28,0,0,1-2.18,1.84H340.71l-2,12.49h21.12a1.67,1.67,0,0,1,1.21.47,1.82,1.82,0,0,1,.47,1.48l-.93,6.29A2.24,2.24,0,0,1,358.43,57.14Zm-23-53.57a1.25,1.25,0,0,0-1.11,1v0l-7.85,50.66a.81.81,0,0,0,.15.73.72.72,0,0,0,.54.21h31.23a1.24,1.24,0,0,0,1.19-1l.93-6.29a.93.93,0,0,0-.22-.77.63.63,0,0,0-.47-.18H337.6l2.25-14.29h18.32a1.33,1.33,0,0,0,1.2-1.09l1-6.33a.89.89,0,0,0-.25-.72.76.76,0,0,0-.52-.22H341.15l2.08-13.45h22a1.27,1.27,0,0,0,1.2-1l1-6.3a.9.9,0,0,0-.23-.72.73.73,0,0,0-.54-.21Z" transform="translate(-8.86 -1.9)"/><path class="cls-1" d="M413.45,57.14h-8a2.19,2.19,0,0,1-2.34-1.57l-6-19.4h-7.21l-3,19.12a2.21,2.21,0,0,1-2.1,1.85h-8.18a1.74,1.74,0,0,1-1.31-.55,1.6,1.6,0,0,1-.36-1.45l7.84-50.63a2.22,2.22,0,0,1,2.1-1.85h22.28a14.61,14.61,0,0,1,14.76,14.77c0,8.83-4.84,15.36-13.29,18l6.77,19.17a2,2,0,0,1-.27,1.88A2.06,2.06,0,0,1,413.45,57.14ZM389,35.27h8.83l6.26,20.07c.11.39.37.89,1.38.89h8a1,1,0,0,0,.84-.33,1.12,1.12,0,0,0,.12-1.07l-7.07-20,.47-.13c8.31-2.38,13.08-8.67,13.08-17.25A13.51,13.51,0,0,0,407.12,3.57H384.84a1.25,1.25,0,0,0-1.11,1v0l-7.85,50.66A.79.79,0,0,0,376,56a.7.7,0,0,0,.54.21h8.18a1.25,1.25,0,0,0,1.11-1ZM401.3,28H390.17l2.51-16.13h12c3.69,0,6,2.61,6,6.8A9.13,9.13,0,0,1,401.3,28Zm-10-.9h10a8.22,8.22,0,0,0,8.36-8.43c0-3.64-1.91-5.9-5-5.9H393.54Z" transform="translate(-8.86 -1.9)"/><path class="cls-1" d="M456.32,57.9c-14.23,0-24.55-10.2-24.55-24.25a31.52,31.52,0,0,1,32-31.75,24.31,24.31,0,0,1,17.94,7.43,1.91,1.91,0,0,1-.39,2.77l-4.54,4a2.58,2.58,0,0,1-3.48,0,15.54,15.54,0,0,0-10.12-3.69c-9.8,0-18.4,9.33-18.4,20,0,10,6.43,14.62,12.41,14.62,3.91,0,7.48-1.39,11.24-4.4a2.77,2.77,0,0,1,1.92-.67,2.26,2.26,0,0,1,1.49.81l4.39,5a2.08,2.08,0,0,1-.46,2.67A29,29,0,0,1,456.32,57.9Zm7.42-55.1a30.59,30.59,0,0,0-31,30.85c0,13.53,9.91,23.35,23.56,23.35a28,28,0,0,0,18.73-7.3,1.29,1.29,0,0,0,.36-1.48L471,43.27a1.23,1.23,0,0,0-.82-.47,1.74,1.74,0,0,0-1.17.45c-3.89,3.11-7.78,4.62-11.89,4.62-7.77,0-13.41-6.52-13.41-15.52,0-11.13,9.07-20.88,19.4-20.88A16.59,16.59,0,0,1,474,15.42a1.53,1.53,0,0,0,2.11,0l4.55-4a1.07,1.07,0,0,0,.28-1.55A23.25,23.25,0,0,0,463.74,2.8Z" transform="translate(-8.86 -1.9)"/><path class="cls-1" d="M521.3,57.14H490.07a1.76,1.76,0,0,1-1.31-.55,1.66,1.66,0,0,1-.36-1.45l7.85-50.63a2.21,2.21,0,0,1,2.09-1.85h31.23a1.73,1.73,0,0,1,1.76,2l-1,6.3a2.22,2.22,0,0,1-2.18,1.84H507l-1.8,11.65h17.32a1.77,1.77,0,0,1,1.76,2l-1,6.37A2.28,2.28,0,0,1,521,34.56H503.58l-2,12.49h21.12a1.67,1.67,0,0,1,1.21.47,1.82,1.82,0,0,1,.47,1.48l-.93,6.29A2.24,2.24,0,0,1,521.3,57.14Zm-23-53.57a1.25,1.25,0,0,0-1.11,1v0l-7.85,50.66a.81.81,0,0,0,.15.73.72.72,0,0,0,.54.21H521.3a1.24,1.24,0,0,0,1.19-1l.93-6.29a.93.93,0,0,0-.22-.77.63.63,0,0,0-.47-.18H500.47l2.25-14.29H521a1.33,1.33,0,0,0,1.2-1.09l1-6.33a.89.89,0,0,0-.25-.72.76.76,0,0,0-.52-.22H504l2.08-13.45h22a1.27,1.27,0,0,0,1.2-1l1-6.3a.94.94,0,0,0-.23-.73.77.77,0,0,0-.54-.2Z" transform="translate(-8.86 -1.9)"/></svg>