<svg id="Capa_1" data-name="Capa 1" xmlns="http://www.w3.org/2000/svg" viewBox="0 0 535 59.73"><defs><style>.cls-1{fill:#fff;}</style></defs><path class="cls-1" d="M543.28,58.07a1.58,1.58,0,0,0,1.58,1.58h30.36a1.58,1.58,0,0,0,1.58-1.58v-6.8a1.57,1.57,0,0,0-1.58-1.57H554.07V3.16a1.64,1.64,0,0,0-1.58-1.58h-7.63a1.58,1.58,0,0,0-1.58,1.58ZM495.17,39.82l8.13-18.25h.25l8.29,18.25ZM477.41,59.65h7.22A2.5,2.5,0,0,0,487,58l4.06-9h24.81L520,58a2.39,2.39,0,0,0,2.41,1.66h7.22A1.47,1.47,0,0,0,531,57.49L505.45,1.66A1.4,1.4,0,0,0,504,.75h-.82a1.5,1.5,0,0,0-1.42.91L476,57.49a1.47,1.47,0,0,0,1.41,2.16m-62.63-1.58a1.64,1.64,0,0,0,1.58,1.58h7.55a1.57,1.57,0,0,0,1.57-1.58V22.4h.17l34,37.5a1.84,1.84,0,0,0,1.41.58h1.16A1.56,1.56,0,0,0,463.81,59V3.16a1.64,1.64,0,0,0-1.58-1.58H454.6A1.57,1.57,0,0,0,453,3.16V37.42h-.17L419,1.33A1.83,1.83,0,0,0,417.6.75h-1.24a1.56,1.56,0,0,0-1.58,1.49ZM366.67,39.82l8.13-18.25H375l8.3,18.25ZM348.91,59.65h7.22A2.51,2.51,0,0,0,358.54,58l4.06-9h24.81l4.06,9a2.39,2.39,0,0,0,2.41,1.66h7.21a1.46,1.46,0,0,0,1.41-2.16L377,1.66a1.41,1.41,0,0,0-1.41-.91h-.83a1.49,1.49,0,0,0-1.41.91L347.5,57.49a1.47,1.47,0,0,0,1.41,2.16m-60-28.95a29.74,29.74,0,0,0,29.95,29.78,28.44,28.44,0,0,0,20.16-8,1.57,1.57,0,0,0,.08-2.24L334,44.88a1.53,1.53,0,0,0-2.07,0,19.94,19.94,0,0,1-12.7,4.73c-10.62,0-18.58-8.79-18.58-19.16s7.88-19.33,18.5-19.33A19.63,19.63,0,0,1,331.91,16,1.32,1.32,0,0,0,334,16L339,10.79A1.56,1.56,0,0,0,339,8.46,28.08,28.08,0,0,0,318.88.75a29.89,29.89,0,0,0-29.95,30M262.39,58.07A1.63,1.63,0,0,0,264,59.65h7.72a1.63,1.63,0,0,0,1.57-1.58V3.16a1.63,1.63,0,0,0-1.57-1.58H264a1.63,1.63,0,0,0-1.57,1.58Zm-68.11,0a1.63,1.63,0,0,0,1.57,1.58h7.55A1.58,1.58,0,0,0,205,58.07V22.4h.17l34,37.5a1.83,1.83,0,0,0,1.41.58h1.16A1.56,1.56,0,0,0,243.31,59V3.16a1.64,1.64,0,0,0-1.58-1.58H234.1a1.58,1.58,0,0,0-1.58,1.58V37.42h-.16L198.51,1.33A1.84,1.84,0,0,0,197.1.75h-1.25a1.55,1.55,0,0,0-1.57,1.49Zm-80.8-.33a1.52,1.52,0,0,0,1.57,1.91h7.47A1.59,1.59,0,0,0,124,58.41L128.82,27h.25l14.69,32.61a1.48,1.48,0,0,0,1.41.91h1.49a1.4,1.4,0,0,0,1.41-.91L162.59,27h.25l4.89,31.45a1.8,1.8,0,0,0,1.58,1.24h7.55a1.44,1.44,0,0,0,1.49-1.91L168.56,2A1.4,1.4,0,0,0,167.07.75h-1.33a1.43,1.43,0,0,0-1.41.83L146.08,40.74h-.25L127.58,1.58a1.51,1.51,0,0,0-1.41-.83h-1.33A1.4,1.4,0,0,0,123.35,2Zm-60.9-27a19,19,0,1,1,19,19,19.2,19.2,0,0,1-19-19m-10.78,0a29.83,29.83,0,0,0,59.65,0,29.83,29.83,0,1,0-59.65,0" transform="translate(-41.8 -0.75)"/></svg>