<svg id="Capa_1" data-name="Capa 1" xmlns="http://www.w3.org/2000/svg" viewBox="0 0 488.11 57.53"><defs><style>.cls-1{fill:none;stroke:#fff;stroke-miterlimit:3.11;}</style></defs><path class="cls-1" d="M58.29,1.63C72,1.63,82.15,12.86,82.15,26.21a31.61,31.61,0,0,1-31.75,32c-13.84,0-23.85-11.31-23.85-24.34C26.55,16.08,40.21,1.63,58.29,1.63Zm12.4,25.84C70.69,19,65.42,11.84,57,11.84c-10.19,0-19,9.5-19,20.65C38,41,43.18,48,51.59,48,61.94,48,70.69,38.69,70.69,27.47Z" transform="translate(-26.05 -1.13)"/><path class="cls-1" d="M101.32,3.05a1.68,1.68,0,0,1,1.62-1.42h.93c.93,0,1.27,0,2.21,1.26l25,32.66h.09L135.7,3.91a1.69,1.69,0,0,1,1.61-1.49h8.24a1.32,1.32,0,0,1,1.27,1.49l-8.06,52.84a1.68,1.68,0,0,1-1.62,1.42h-.84c-1.28,0-1.62-.24-2.47-1.42L109.05,23.23H109l-4.58,32.66a1.77,1.77,0,0,1-1.7,1.49H94.53a1.22,1.22,0,0,1-1.19-1.33Z" transform="translate(-26.05 -1.13)"/><path class="cls-1" d="M165.23,3.91a1.75,1.75,0,0,1,1.62-1.49h18.33c13.41,0,23,11.15,23,23.87,0,17-12.82,31.09-31.33,31.09H158.44a1.17,1.17,0,0,1-1.1-1.49ZM177.46,47.8c10.35,0,18.93-9,18.93-20.8,0-8.56-5.27-15.08-13.41-15.08h-8L169.56,47.8Z" transform="translate(-26.05 -1.13)"/><path class="cls-1" d="M227.19,3.91a1.75,1.75,0,0,1,1.62-1.49h31.4a1.29,1.29,0,0,1,1.28,1.49l-1,6.44a1.77,1.77,0,0,1-1.7,1.49H237l-1.95,12.88h18a1.33,1.33,0,0,1,1.28,1.49l-1,6.52a1.84,1.84,0,0,1-1.7,1.49h-18L231.52,48h21.82a1.23,1.23,0,0,1,1.19,1.49l-.94,6.44a1.76,1.76,0,0,1-1.7,1.49h-31.4a1.18,1.18,0,0,1-1.19-1.49Z" transform="translate(-26.05 -1.13)"/><path class="cls-1" d="M283,2.81a1.56,1.56,0,0,1,1.61-1.18h1.19a1.21,1.21,0,0,1,1.19.79L298.49,38h.17L321.75,2.42a1.67,1.67,0,0,1,1.44-.79h1.28a1.24,1.24,0,0,1,1.18,1.18l.77,52.77a1.7,1.7,0,0,1-1.7,1.8h-8.15a1.2,1.2,0,0,1-1.27-1.18L316,28h-.26L298,57.3a1.62,1.62,0,0,1-1.44.87h-1.36A1.19,1.19,0,0,1,294,57.3L285.33,28h-.17L277,56.2a1.57,1.57,0,0,1-1.62,1.18h-8.06a1.24,1.24,0,0,1-1.19-1.8Z" transform="translate(-26.05 -1.13)"/><path class="cls-1" d="M335.83,55.34,367.75,2.5a1.58,1.58,0,0,1,1.44-.87H370a1.27,1.27,0,0,1,1.19.87l15.61,52.84a1.57,1.57,0,0,1-1.61,2h-7.38c-1.28,0-2-.39-2.21-1.57l-2.12-8.71H352.3l-4.92,8.71a3.05,3.05,0,0,1-2.72,1.57h-7.81C335.66,57.38,335.24,56.36,335.83,55.34Zm34.89-16.72-4-17.12h-.17l-9.25,17.12Z" transform="translate(-26.05 -1.13)"/><path class="cls-1" d="M406.79,3.05a1.68,1.68,0,0,1,1.61-1.42h.94c.93,0,1.27,0,2.2,1.26l25,32.66h.09l4.58-31.64a1.67,1.67,0,0,1,1.61-1.49H451a1.33,1.33,0,0,1,1.27,1.49l-8.07,52.84a1.66,1.66,0,0,1-1.61,1.42h-.85c-1.27,0-1.61-.24-2.46-1.42L414.52,23.23h-.09l-4.58,32.66a1.77,1.77,0,0,1-1.7,1.49H400a1.22,1.22,0,0,1-1.19-1.33Z" transform="translate(-26.05 -1.13)"/><path class="cls-1" d="M470.7,3.91a1.75,1.75,0,0,1,1.61-1.49h18.34c13.41,0,23,11.15,23,23.87,0,17-12.81,31.09-31.32,31.09H463.91a1.17,1.17,0,0,1-1.1-1.49ZM482.93,47.8c10.35,0,18.92-9,18.92-20.8,0-8.56-5.26-15.08-13.41-15.08h-8L475,47.8Z" transform="translate(-26.05 -1.13)"/></svg>