<?xml version="1.0" encoding="utf-8"?>
<!-- Generator: Adobe Illustrator 26.0.3, SVG Export Plug-In . SVG Version: 6.00 Build 0)  -->
<svg version="1.1" id="Capa_1" xmlns="http://www.w3.org/2000/svg" xmlns:xlink="http://www.w3.org/1999/xlink" x="0px" y="0px"
	 viewBox="0 0 1094.9 168" style="enable-background:new 0 0 1094.9 168;" xml:space="preserve">
<style type="text/css">
	.st0{opacity:0.6;fill:#EFB000;}
	.st1{opacity:0.6;fill:none;stroke:#EFB000;stroke-miterlimit:3.11;}
</style>
<path class="st0" d="M8.5,101.7c0-1,0.8-1.8,1.8-1.8h38.3c1,0,1.8,0.8,1.8,1.8l0,0v7.7c0,1-0.8,1.8-1.8,1.8H20.7v15.4h23.2
	c1,0,1.8,0.8,1.8,1.8v7.8c0,1-0.8,1.8-1.8,1.8c0,0,0,0,0,0H20.7v16.5h27.8c1,0,1.8,0.8,1.8,1.8v7.8c0,1-0.8,1.8-1.8,1.8H10.2
	c-1,0-1.8-0.8-1.8-1.8V101.7z"/>
<path class="st0" d="M79.4,132l-18.8-29.5c-0.5-0.8-0.3-1.8,0.5-2.4c0.3-0.2,0.7-0.3,1.1-0.3h10.9c0.6,0,1.2,0.3,1.5,0.8l11.8,20
	h0.4l12.1-20c0.3-0.5,0.9-0.9,1.5-0.8h10.9c0.9-0.1,1.8,0.6,1.9,1.5c0,0.4-0.1,0.8-0.3,1.1L94.1,132l19.6,31.1
	c0.5,0.8,0.4,1.8-0.4,2.3c-0.4,0.2-0.8,0.4-1.2,0.3h-10.2c-0.6,0-1.2-0.3-1.6-0.9l-13.5-21.6h-0.4l-13.2,21.6
	c-0.4,0.5-1,0.8-1.6,0.9H61.5c-1.7,0-2.5-1.4-1.7-2.6L79.4,132z"/>
<path class="st0" d="M137.4,111.2H123c-1,0-1.8-0.8-1.8-1.8c0,0,0,0,0,0v-7.7c0-1,0.8-1.8,1.8-1.8l0,0h41.1c1,0,1.8,0.8,1.8,1.8v7.7
	c0,1-0.8,1.8-1.8,1.8h-14.4V164c0,1-0.8,1.8-1.8,1.8h-8.8c-1,0-1.8-0.8-1.8-1.8L137.4,111.2z"/>
<path class="st0" d="M179,101.7c0-1,0.8-1.8,1.8-1.8h38.3c1,0,1.8,0.8,1.8,1.8v7.7c0,1-0.8,1.8-1.8,1.8h-27.8v15.4h23.2
	c1,0,1.7,0.8,1.8,1.8v7.8c0,1-0.8,1.8-1.8,1.8c0,0,0,0,0,0h-23.2v16.5h27.9c1,0,1.8,0.8,1.8,1.8v7.8c0,1-0.8,1.8-1.8,1.8h-38.3
	c-1,0-1.8-0.8-1.8-1.7c0,0,0,0,0,0V101.7z"/>
<path class="st0" d="M236.1,100.6c0-1,0.8-1.7,1.8-1.7h1.4c0.6,0,1.2,0.2,1.6,0.7l38.4,40.9h0.2v-38.9c0-1,0.8-1.8,1.8-1.8h8.7
	c1,0,1.8,0.8,1.8,1.8V165c0,1-0.8,1.7-1.8,1.7h-1.3c-0.6,0-1.2-0.2-1.6-0.7l-38.6-42.5h-0.2V164c0,1-0.8,1.8-1.8,1.8h-8.6
	c-1,0-1.8-0.8-1.8-1.8L236.1,100.6z"/>
<path class="st0" d="M310.5,101.7c0-1,0.7-1.7,1.7-1.8h22.3c18.2-0.3,33.2,14.2,33.5,32.4c0.3,18.2-14.2,33.2-32.4,33.5
	c-0.4,0-0.8,0-1.1,0h-22.3c-1,0-1.7-0.8-1.7-1.8V101.7z M333.4,154.3c12.2,0,21.2-8.7,21.2-21.6s-8.9-21.4-21.2-21.4h-10.7v43H333.4
	z"/>
<path class="st0" d="M382.5,101.7c0-1,0.8-1.8,1.8-1.8h8.8c1,0,1.8,0.8,1.8,1.8V164c0,1-0.8,1.8-1.8,1.8h-8.8c-1,0-1.7-0.8-1.8-1.8
	L382.5,101.7z"/>
<path class="st0" d="M413.6,101.7c0-1,0.7-1.7,1.7-1.8h22.3c18.2-0.3,33.2,14.2,33.5,32.4c0.3,18.2-14.2,33.2-32.4,33.5
	c-0.4,0-0.8,0-1.1,0h-22.3c-0.9,0-1.7-0.8-1.7-1.7V101.7z M436.5,154.3c12.2,0,21.2-8.7,21.2-21.6s-8.9-21.4-21.2-21.4h-10.7v43
	H436.5z"/>
<path class="st0" d="M515.5,98.9c18.7-0.1,33.9,15.1,34,33.8c0.1,18.7-15.1,33.9-33.8,34c-18.7,0.1-33.9-15.1-34-33.8
	c-0.1-18.7,15-33.9,33.6-34C515.4,98.9,515.4,98.9,515.5,98.9z M515.5,154.4c12,0.1,21.7-9.5,21.8-21.5s-9.5-21.7-21.5-21.8
	c-12-0.1-21.7,9.5-21.8,21.5c0,0.1,0,0.2,0,0.3C494.1,144.7,503.6,154.3,515.5,154.4z"/>
<path class="st1" d="M564.5,101.7c0-1,0.8-1.8,1.8-1.8h38.3c1,0,1.8,0.8,1.8,1.8v7.7c0,1-0.8,1.8-1.8,1.8c0,0,0,0,0,0h-27.8v15.4
	H600c1,0,1.8,0.8,1.8,1.8v7.8c0,1-0.8,1.8-1.8,1.8c0,0,0,0,0,0h-23.2v16.5h27.8c1,0,1.8,0.8,1.8,1.8c0,0,0,0,0,0v7.8
	c0,1-0.8,1.8-1.8,1.8h-38.3c-1,0-1.8-0.8-1.8-1.8V101.7z"/>
<path class="st1" d="M635.5,132l-18.8-29.4c-0.5-0.8-0.3-1.8,0.5-2.4c0.3-0.2,0.7-0.3,1.1-0.3h10.9c0.6,0,1.2,0.3,1.5,0.8l11.9,20
	h0.4l12.1-20c0.3-0.5,0.9-0.9,1.5-0.8h10.9c0.9-0.1,1.8,0.5,1.9,1.5c0.1,0.4-0.1,0.8-0.3,1.2L650.1,132l19.6,31.1
	c0.5,0.8,0.4,1.8-0.4,2.3c-0.4,0.2-0.8,0.4-1.2,0.3H658c-0.6,0-1.2-0.3-1.6-0.9l-13.5-21.6h-0.4l-13.2,21.6c-0.4,0.5-1,0.8-1.6,0.9
	h-10.2c-1.7,0-2.4-1.4-1.7-2.6L635.5,132z"/>
<path class="st1" d="M693.5,111.2h-14.4c-1,0-1.8-0.8-1.8-1.8c0,0,0,0,0,0v-7.7c0-1,0.8-1.8,1.8-1.8h41.1c1,0,1.8,0.8,1.8,1.8v7.7
	c0,1-0.8,1.8-1.8,1.8c0,0,0,0,0,0h-14.4V164c0,1-0.8,1.8-1.8,1.8h-8.8c-1,0-1.8-0.8-1.8-1.8V111.2z"/>
<path class="st1" d="M735.3,101.7c0-1,0.8-1.8,1.8-1.8h38.3c1,0,1.8,0.8,1.8,1.8v7.7c0,1-0.8,1.8-1.8,1.8h-27.8v15.4h23.2
	c1,0,1.8,0.8,1.8,1.8v7.8c0,1-0.8,1.8-1.8,1.8h-23.2v16.5h27.8c1,0,1.8,0.8,1.8,1.8v7.8c0,1-0.8,1.8-1.8,1.8h-38.3
	c-1,0-1.8-0.8-1.8-1.8V101.7z"/>
<path class="st1" d="M792.3,100.6c0-1,0.8-1.7,1.8-1.7h1.4c0.6,0,1.2,0.2,1.6,0.7l38.4,40.9h0.2v-38.9c0-1,0.8-1.8,1.8-1.8h8.7
	c1,0,1.8,0.8,1.8,1.8V165c0,1-0.8,1.7-1.8,1.7h-1.3c-0.6,0-1.2-0.2-1.6-0.7l-38.6-42.5h-0.2V164c0,1-0.8,1.8-1.8,1.8h-8.6
	c-1,0-1.8-0.8-1.8-1.8V100.6z"/>
<path class="st1" d="M866.7,101.7c0-1,0.7-1.8,1.7-1.8h22.3c18.2-0.3,33.2,14.2,33.5,32.4c0.3,18.2-14.2,33.2-32.4,33.5
	c-0.4,0-0.8,0-1.1,0h-22.3c-1,0-1.7-0.8-1.7-1.8V101.7z M889.6,154.3c12.2,0,21.2-8.7,21.2-21.6s-8.9-21.4-21.2-21.4h-10.7v43H889.6
	z"/>
<path class="st1" d="M938.7,101.7c0-1,0.8-1.8,1.8-1.8h8.8c1,0,1.7,0.8,1.8,1.8V164c0,1-0.8,1.8-1.8,1.8h-8.8c-1,0-1.8-0.8-1.8-1.8
	V101.7z"/>
<path class="st1" d="M969.8,101.7c0-1,0.7-1.7,1.7-1.8h22.3c18.2-0.3,33.2,14.2,33.5,32.4c0.3,18.2-14.2,33.2-32.4,33.5
	c-0.4,0-0.8,0-1.1,0h-22.3c-1,0-1.7-0.8-1.7-1.8V101.7z M992.7,154.3c12.2,0,21.2-8.7,21.2-21.6s-8.9-21.4-21.2-21.4H982v43H992.7z"
	/>
<path class="st1" d="M1071.7,98.9c18.7-0.1,33.9,15.1,34,33.8s-15.1,33.9-33.8,34c-18.7,0.1-33.9-15.1-34-33.8
	c-0.1-18.7,14.9-33.9,33.6-34C1071.6,98.9,1071.7,98.9,1071.7,98.9z M1071.7,154.4c12,0.1,21.7-9.6,21.7-21.6s-9.6-21.7-21.6-21.7
	c-12-0.1-21.7,9.6-21.7,21.6c0,0.1,0,0.1,0,0.2C1050.3,144.8,1059.9,154.4,1071.7,154.4z"/>
<path class="st0" d="M38.6,24.5c8.5-0.2,16.6,2.9,22.8,8.8c0.7,0.6,0.9,1.7,0.2,2.5c0,0.1-0.1,0.1-0.2,0.2l-5.7,5.9
	c-0.5,0.6-1.5,0.8-2.1,0.2c-0.1-0.1-0.2-0.2-0.2-0.2c-4-3.5-9.2-5.5-14.5-5.5c-12,0-21,10.1-21,21.9S26.9,80,39,80
	c5.3,0,10.4-1.9,14.4-5.4c0.7-0.6,1.7-0.6,2.3,0l5.8,6c0.7,0.7,0.6,1.8-0.1,2.5c0,0,0,0,0,0c-6.1,5.9-14.3,9.2-22.9,9.1
	C19.9,92.6,4.5,77.7,4.2,59C3.9,40.3,18.8,24.9,37.5,24.6C37.9,24.6,38.2,24.6,38.6,24.5L38.6,24.5z"/>
<path class="st0" d="M68.2,88.9l29.3-63.3c0.3-0.6,0.9-1,1.6-1h0.9c0.7-0.1,1.3,0.4,1.6,1l29,63.3c0.4,0.8,0.1,1.8-0.7,2.3
	c-0.3,0.2-0.6,0.2-0.9,0.2h-8.2c-1.4,0-2.1-0.6-2.7-1.9l-4.6-10.2H85.3l-4.6,10.2c-0.4,1.2-1.5,1.9-2.7,1.9h-8.2
	c-0.9,0.1-1.7-0.6-1.8-1.5C68,89.5,68.1,89.2,68.2,88.9z M108.9,68.9l-9.4-20.7h-0.3l-9.2,20.7H108.9z"/>
<path class="st0" d="M148.1,36.8h-14.4c-1,0-1.8-0.8-1.8-1.8v-7.7c0-1,0.8-1.8,1.8-1.8h41.1c1,0,1.8,0.8,1.8,1.8V35
	c0,1-0.8,1.8-1.8,1.8h-14.4v52.8c0,1-0.8,1.8-1.8,1.8h-8.8c-1,0-1.8-0.8-1.8-1.8L148.1,36.8z"/>
<path class="st0" d="M177.9,88.9l29.3-63.3c0.3-0.6,0.9-1,1.6-1h0.9c0.7,0,1.3,0.4,1.6,1l29,63.3c0.4,0.8,0.1,1.8-0.7,2.3
	c-0.3,0.1-0.6,0.2-0.9,0.2h-8.2c-1.4,0-2.1-0.6-2.7-1.9l-4.6-10.2H195l-4.6,10.2c-0.4,1.2-1.5,1.9-2.7,1.9h-8.2
	c-0.9,0-1.7-0.7-1.8-1.6C177.7,89.5,177.8,89.2,177.9,88.9z M198.9,14.4l15.9-10.5c1.6-1,3.9,0,5.1,2.3s1.1,4.8-0.5,5.5l-17.4,8
	c-1,0.5-2.4-0.4-3.1-1.8S198.2,14.9,198.9,14.4L198.9,14.4z M218.6,68.9l-9.4-20.7h-0.3l-9.2,20.7H218.6z"/>
<path class="st0" d="M251.3,27.3c0-1,0.8-1.8,1.8-1.8h8.7c1,0,1.7,0.8,1.8,1.8v52.8h24c1,0,1.8,0.8,1.8,1.8v0v7.7
	c0,1-0.8,1.8-1.8,1.8l0,0h-34.4c-1,0-1.8-0.8-1.8-1.8V27.3z"/>
<path class="st0" d="M329.8,24.5c18.7-0.1,33.9,15.1,34,33.8s-15.1,33.9-33.8,34c-18.7,0.1-33.9-15.1-34-33.8
	c-0.1-18.7,15-33.9,33.6-34C329.7,24.5,329.7,24.5,329.8,24.5z M329.8,80.1c12,0,21.7-9.6,21.7-21.6c0-12-9.6-21.7-21.6-21.7
	c-12,0-21.7,9.6-21.7,21.6c0,0.1,0,0.1,0,0.2C308.3,70.4,317.9,80,329.8,80.1z"/>
<path class="st0" d="M408.5,24.5c8.5,0.1,16.6,3.2,23,8.8c0.8,0.7,0.8,1.8,0.2,2.6c0,0,0,0-0.1,0.1l-5.9,6.1
	c-0.6,0.7-1.6,0.8-2.3,0.2c-0.1-0.1-0.1-0.1-0.2-0.2c-3.9-3.5-9-5.4-14.2-5.5c-11.8,0-21.1,10.1-21.1,21.9
	c-0.1,11.8,9.4,21.5,21.2,21.6c3.9,0,7.7-0.8,11.2-2.3v-8h-7.5c-0.9,0-1.7-0.7-1.8-1.6c0,0,0,0,0-0.1v-7.5c0-1,0.7-1.8,1.7-1.8
	c0,0,0.1,0,0.1,0h18.1c1,0,1.7,0.8,1.7,1.8v24.1c0,0.6-0.3,1.2-0.8,1.5c-7.1,4-15.2,6.1-23.3,6.1c-18.7-0.3-33.6-15.7-33.2-34.4
	C375.6,39.6,390.3,24.9,408.5,24.5L408.5,24.5z"/>
<path class="st0" d="M478.9,24.5c18.7-0.1,33.9,15.1,34,33.8s-15.1,33.9-33.8,34c-18.7,0.1-33.9-15.1-34-33.8
	c-0.1-18.7,14.9-33.9,33.6-34C478.8,24.5,478.8,24.5,478.9,24.5z M478.9,80.1c12,0,21.7-9.6,21.7-21.6c0-12-9.6-21.7-21.6-21.7
	c-12,0-21.7,9.6-21.7,21.6c0,0.1,0,0.1,0,0.2C457.4,70.4,467,80,478.9,80.1z"/>
<path class="st1" d="M558,24.5c8.5-0.2,16.6,2.9,22.8,8.8c0.8,0.6,0.9,1.7,0.3,2.4c-0.1,0.1-0.1,0.1-0.2,0.2l-5.7,5.9
	c-0.5,0.7-1.5,0.8-2.1,0.2c-0.1-0.1-0.2-0.1-0.2-0.2c-4-3.5-9.1-5.5-14.5-5.6c-12,0-21,10.1-21,21.9s9,21.8,21.1,21.8
	c5.3,0,10.4-1.9,14.4-5.4c0.7-0.6,1.7-0.6,2.4,0l5.8,6c0.7,0.7,0.6,1.9-0.1,2.5c-6.1,5.9-14.4,9.2-22.9,9.1
	c-18.7,0.3-34.1-14.6-34.5-33.3c-0.3-18.7,14.6-34.1,33.3-34.5C557.2,24.5,557.6,24.5,558,24.5z"/>
<path class="st1" d="M587.7,88.9l29.3-63.3c0.3-0.6,0.9-1,1.6-1h0.9c0.7-0.1,1.3,0.4,1.6,1L650,88.9c0.4,0.8,0.1,1.8-0.7,2.3
	c-0.3,0.1-0.6,0.2-0.9,0.2h-8.2c-1.4,0-2.1-0.6-2.7-1.9l-4.6-10.2h-28.1l-4.6,10.2c-0.4,1.2-1.5,1.9-2.7,1.9h-8.2
	c-0.9,0.1-1.7-0.6-1.8-1.5C587.4,89.5,587.5,89.2,587.7,88.9z M628.3,68.9l-9.4-20.7h-0.3l-9.2,20.7H628.3z"/>
<path class="st1" d="M667.6,36.8h-14.4c-1,0-1.8-0.8-1.8-1.8v-7.7c0-1,0.8-1.8,1.8-1.8h41.1c1,0,1.8,0.8,1.8,1.8V35
	c0,1-0.8,1.8-1.8,1.8H680v52.8c0,1-0.8,1.8-1.8,1.8h-8.8c-1,0-1.8-0.8-1.8-1.8L667.6,36.8z"/>
<path class="st1" d="M697.5,88.9l29.3-63.3c0.3-0.6,0.9-1,1.6-1h0.9c0.7,0,1.3,0.4,1.6,1l29,63.3c0.4,0.8,0.1,1.8-0.7,2.3
	c-0.3,0.1-0.6,0.2-0.9,0.2h-8.2c-1.4,0-2.1-0.6-2.7-1.9l-4.6-10.2h-28.1L710,89.5c-0.4,1.2-1.5,1.9-2.7,1.9h-8.2
	c-0.9,0.1-1.7-0.6-1.8-1.5C697.2,89.5,697.3,89.2,697.5,88.9z M718.5,14.4l15.9-10.5c1.6-1,4,0,5.1,2.3s1.1,4.8-0.5,5.6l-17.4,8
	c-1,0.5-2.3-0.4-3.1-1.8S717.8,14.9,718.5,14.4L718.5,14.4z M738.1,68.9l-9.4-20.7h-0.3l-9.2,20.7H738.1z"/>
<path class="st1" d="M770.9,27.3c0-1,0.8-1.8,1.8-1.8h8.7c1,0,1.8,0.8,1.8,1.8v52.8h24c1,0,1.8,0.8,1.8,1.7c0,0,0,0,0,0v7.7
	c0,1-0.8,1.8-1.8,1.8h-34.5c-1,0-1.8-0.8-1.8-1.8L770.9,27.3z"/>
<path class="st1" d="M849.5,24.5c18.7-0.1,33.9,15.1,34,33.8s-15.1,33.9-33.8,34c-18.7,0.1-33.9-15.1-34-33.8
	c-0.1-18.7,14.9-33.9,33.6-34C849.4,24.5,849.4,24.5,849.5,24.5z M849.5,80.1c12,0.1,21.7-9.5,21.8-21.5c0.1-12-9.5-21.7-21.5-21.8
	c-12-0.1-21.7,9.5-21.8,21.5c0,0.1,0,0.2,0,0.2C828.1,70.4,837.7,80,849.5,80.1z"/>
<path class="st1" d="M928.2,24.5c8.5,0.1,16.6,3.2,23,8.8c0.7,0.7,0.8,1.8,0.2,2.6c0,0,0,0.1-0.1,0.1l-5.9,6.1
	c-0.6,0.7-1.6,0.8-2.3,0.2c-0.1-0.1-0.1-0.1-0.2-0.2c-3.9-3.5-9-5.4-14.2-5.5c-11.8,0-21.1,10.1-21.1,21.8
	c-0.1,11.8,9.3,21.5,21.2,21.6c0,0,0,0,0,0c3.9,0,7.7-0.8,11.2-2.3v-8h-7.5c-0.9,0-1.7-0.7-1.8-1.6c0,0,0,0,0-0.1v-7.5
	c0-1,0.7-1.8,1.7-1.8c0,0,0.1,0,0.1,0h18.1c1,0,1.7,0.8,1.7,1.8v24.1c0,0.6-0.3,1.2-0.8,1.5c-7.1,4-15.2,6.1-23.3,6.1
	c-18.7-0.3-33.6-15.7-33.2-34.4C895.3,39.6,910,24.9,928.2,24.5L928.2,24.5z"/>
<path class="st1" d="M998.6,24.5c18.7-0.1,33.9,15.1,34,33.8s-15.1,33.9-33.8,34c-18.7,0.1-33.9-15.1-34-33.8
	c-0.1-18.7,15-33.9,33.6-34C998.5,24.5,998.6,24.5,998.6,24.5z M998.6,80.1c12,0,21.7-9.6,21.7-21.6c0-12-9.6-21.7-21.6-21.7
	c-12,0-21.7,9.6-21.7,21.6c0,0.1,0,0.1,0,0.2C977.2,70.4,986.8,80,998.6,80.1z"/>
<path class="st1" d="M1077.6,24.5c8.5-0.2,16.6,2.9,22.8,8.8c0.7,0.6,0.9,1.7,0.2,2.5c0,0.1-0.1,0.1-0.2,0.2l-5.7,5.9
	c-0.5,0.6-1.5,0.8-2.1,0.2c-0.1-0.1-0.2-0.2-0.2-0.2c-4-3.5-9.2-5.5-14.5-5.5c-12,0-21,10.1-21,21.9s9,21.7,21.1,21.7
	c5.3,0,10.4-1.9,14.4-5.4c0.7-0.6,1.7-0.6,2.3,0l5.8,6c0.7,0.7,0.6,1.8-0.1,2.5c0,0,0,0,0,0c-6.1,5.9-14.3,9.2-22.9,9.1
	c-18.7,0.3-34.1-14.6-34.5-33.3c-0.3-18.7,14.6-34.1,33.3-34.5C1076.8,24.5,1077.2,24.5,1077.6,24.5L1077.6,24.5z"/>
</svg>
