<svg id="Capa_1" data-name="Capa 1" xmlns="http://www.w3.org/2000/svg" viewBox="0 0 1094.89 167.99"><defs><style>.cls-1{fill:#efb000;}.cls-2{fill:none;stroke:#efb000;stroke-miterlimit:3.11;}</style></defs><path class="cls-1" d="M8.47,101.66a1.79,1.79,0,0,1,1.78-1.79h38.3a1.79,1.79,0,0,1,1.79,1.79v7.72a1.79,1.79,0,0,1-1.79,1.78H20.7v15.43H43.94a1.86,1.86,0,0,1,1.79,1.79v7.81A1.79,1.79,0,0,1,43.94,138H20.7v16.47H48.55a1.79,1.79,0,0,1,1.79,1.78V164a1.79,1.79,0,0,1-1.79,1.79H10.25A1.79,1.79,0,0,1,8.47,164Z"/><path class="cls-1" d="M79.41,132,60.59,102.51a1.7,1.7,0,0,1,1.6-2.64H73.1a1.86,1.86,0,0,1,1.51.85l11.85,20h.38l12.14-20a1.72,1.72,0,0,1,1.5-.85H111.4a1.7,1.7,0,0,1,1.6,2.64L94.09,132l19.57,31.14a1.68,1.68,0,0,1-1.6,2.64H101.9a1.88,1.88,0,0,1-1.6-.85L86.84,143.34h-.38L73.29,164.89a2.05,2.05,0,0,1-1.6.85H61.53c-1.69,0-2.45-1.41-1.69-2.64Z"/><path class="cls-1" d="M137.36,111.16H123a1.78,1.78,0,0,1-1.79-1.78v-7.72A1.79,1.79,0,0,1,123,99.87h41.12a1.79,1.79,0,0,1,1.78,1.79v7.72a1.78,1.78,0,0,1-1.78,1.78h-14.4V164a1.86,1.86,0,0,1-1.79,1.79h-8.75a1.86,1.86,0,0,1-1.79-1.79Z"/><path class="cls-1" d="M179,101.66a1.79,1.79,0,0,1,1.79-1.79h38.3a1.79,1.79,0,0,1,1.79,1.79v7.72a1.79,1.79,0,0,1-1.79,1.78H191.28v15.43h23.24a1.85,1.85,0,0,1,1.78,1.79v7.81a1.78,1.78,0,0,1-1.78,1.79H191.28v16.47h27.85a1.79,1.79,0,0,1,1.79,1.78V164a1.79,1.79,0,0,1-1.79,1.79h-38.3A1.79,1.79,0,0,1,179,164Z"/><path class="cls-1" d="M236.06,100.63a1.77,1.77,0,0,1,1.79-1.7h1.41a2.06,2.06,0,0,1,1.6.66l38.39,40.93h.19V101.66a1.79,1.79,0,0,1,1.78-1.79h8.66a1.86,1.86,0,0,1,1.79,1.79V165a1.77,1.77,0,0,1-1.79,1.69h-1.32A2.06,2.06,0,0,1,287,166l-38.58-42.53h-.18V164a1.79,1.79,0,0,1-1.79,1.79h-8.56a1.86,1.86,0,0,1-1.79-1.79Z"/><path class="cls-1" d="M310.48,101.66a1.77,1.77,0,0,1,1.69-1.79h22.3a32.94,32.94,0,1,1,0,65.87h-22.3a1.77,1.77,0,0,1-1.69-1.79Zm22.87,52.6c12.23,0,21.17-8.66,21.17-21.55s-8.94-21.45-21.17-21.45H322.62v43Z"/><path class="cls-1" d="M382.46,101.66a1.85,1.85,0,0,1,1.78-1.79H393a1.86,1.86,0,0,1,1.79,1.79V164a1.86,1.86,0,0,1-1.79,1.79h-8.75a1.85,1.85,0,0,1-1.78-1.79Z"/><path class="cls-1" d="M413.6,101.66a1.77,1.77,0,0,1,1.69-1.79h22.3a32.94,32.94,0,1,1,0,65.87h-22.3A1.77,1.77,0,0,1,413.6,164Zm22.86,52.6c12.23,0,21.17-8.66,21.17-21.55s-8.94-21.45-21.17-21.45H425.74v43Z"/><path class="cls-1" d="M515.49,98.93a33.88,33.88,0,1,1-33.78,34A33.82,33.82,0,0,1,515.49,98.93Zm0,55.52A21.65,21.65,0,1,0,494,132.9,21.69,21.69,0,0,0,515.49,154.45Z"/><path class="cls-2" d="M564.52,101.66a1.79,1.79,0,0,1,1.79-1.79H604.6a1.79,1.79,0,0,1,1.79,1.79v7.72a1.78,1.78,0,0,1-1.79,1.78H576.75v15.43H600a1.86,1.86,0,0,1,1.79,1.79v7.81A1.79,1.79,0,0,1,600,138H576.75v16.47H604.6a1.78,1.78,0,0,1,1.79,1.78V164a1.79,1.79,0,0,1-1.79,1.79H566.31a1.79,1.79,0,0,1-1.79-1.79Z"/><path class="cls-2" d="M635.46,132l-18.82-29.45a1.7,1.7,0,0,1,1.6-2.64h10.92a1.85,1.85,0,0,1,1.5.85l11.86,20h.37l12.14-20a1.74,1.74,0,0,1,1.51-.85h10.91a1.69,1.69,0,0,1,1.6,2.64L650.14,132l19.57,31.14a1.68,1.68,0,0,1-1.6,2.64H658a1.91,1.91,0,0,1-1.6-.85l-13.46-21.55h-.37l-13.17,21.55a2.07,2.07,0,0,1-1.6.85H617.58c-1.69,0-2.44-1.41-1.69-2.64Z"/><path class="cls-2" d="M693.51,111.16H679.12a1.78,1.78,0,0,1-1.79-1.78v-7.72a1.79,1.79,0,0,1,1.79-1.79h41.11a1.79,1.79,0,0,1,1.79,1.79v7.72a1.78,1.78,0,0,1-1.79,1.78H705.84V164a1.86,1.86,0,0,1-1.79,1.79H695.3a1.86,1.86,0,0,1-1.79-1.79Z"/><path class="cls-2" d="M735.28,101.66a1.79,1.79,0,0,1,1.79-1.79h38.3a1.79,1.79,0,0,1,1.79,1.79v7.72a1.79,1.79,0,0,1-1.79,1.78H747.52v15.43h23.24a1.86,1.86,0,0,1,1.79,1.79v7.81a1.79,1.79,0,0,1-1.79,1.79H747.52v16.47h27.85a1.79,1.79,0,0,1,1.79,1.78V164a1.79,1.79,0,0,1-1.79,1.79h-38.3a1.79,1.79,0,0,1-1.79-1.79Z"/><path class="cls-2" d="M792.3,100.63a1.77,1.77,0,0,1,1.79-1.7h1.41a2.06,2.06,0,0,1,1.6.66l38.39,40.93h.19V101.66a1.79,1.79,0,0,1,1.79-1.79h8.65a1.86,1.86,0,0,1,1.79,1.79V165a1.77,1.77,0,0,1-1.79,1.69h-1.31a2.06,2.06,0,0,1-1.6-.66l-38.58-42.53h-.19V164a1.79,1.79,0,0,1-1.79,1.79h-8.56A1.86,1.86,0,0,1,792.3,164Z"/><path class="cls-2" d="M866.72,101.66a1.77,1.77,0,0,1,1.7-1.79h22.3a32.94,32.94,0,1,1,0,65.87h-22.3a1.77,1.77,0,0,1-1.7-1.79Zm22.87,52.6c12.23,0,21.17-8.66,21.17-21.55s-8.94-21.45-21.17-21.45H878.86v43Z"/><path class="cls-2" d="M938.7,101.66a1.85,1.85,0,0,1,1.79-1.79h8.75a1.85,1.85,0,0,1,1.78,1.79V164a1.85,1.85,0,0,1-1.78,1.79h-8.75A1.85,1.85,0,0,1,938.7,164Z"/><path class="cls-2" d="M969.84,101.66a1.77,1.77,0,0,1,1.69-1.79h22.3a32.94,32.94,0,1,1,0,65.87h-22.3a1.77,1.77,0,0,1-1.69-1.79Zm22.86,52.6c12.24,0,21.18-8.66,21.18-21.55s-8.94-21.45-21.18-21.45H982v43Z"/><path class="cls-2" d="M1071.74,98.93a33.88,33.88,0,1,1-33.78,34A33.81,33.81,0,0,1,1071.74,98.93Zm0,55.52a21.65,21.65,0,1,0-21.55-21.55A21.69,21.69,0,0,0,1071.74,154.45Z"/><path class="cls-1" d="M38.58,24.54a31.85,31.85,0,0,1,22.77,8.75,1.75,1.75,0,0,1,.09,2.63L55.7,41.85a1.5,1.5,0,0,1-2.35,0A22.26,22.26,0,0,0,38.86,36.3c-12,0-21,10.07-21,21.92S26.91,80,39,80a22.57,22.57,0,0,0,14.4-5.36,1.72,1.72,0,0,1,2.35,0l5.83,6a1.78,1.78,0,0,1-.09,2.54,32.3,32.3,0,0,1-22.86,9.13,33.88,33.88,0,1,1,0-67.75Z"/><path class="cls-1" d="M68.21,88.9,97.47,25.57a1.69,1.69,0,0,1,1.6-1H100a1.6,1.6,0,0,1,1.6,1l29,63.33a1.66,1.66,0,0,1-1.6,2.45h-8.18c-1.41,0-2.07-.57-2.73-1.89L113.47,79.3H85.33L80.72,89.46A2.82,2.82,0,0,1,78,91.35H69.81A1.66,1.66,0,0,1,68.21,88.9Zm40.65-20-9.41-20.7h-.28l-9.23,20.7Z"/><path class="cls-1" d="M148.09,36.77h-14.4A1.79,1.79,0,0,1,131.91,35V27.27a1.79,1.79,0,0,1,1.78-1.79h41.12a1.79,1.79,0,0,1,1.79,1.79V35a1.79,1.79,0,0,1-1.79,1.79H160.42V89.56a1.86,1.86,0,0,1-1.79,1.79h-8.75a1.86,1.86,0,0,1-1.79-1.79Z"/><path class="cls-1" d="M177.91,88.9l29.27-63.33a1.69,1.69,0,0,1,1.6-1h.94a1.61,1.61,0,0,1,1.6,1l29,63.33a1.67,1.67,0,0,1-1.6,2.45h-8.19c-1.41,0-2.07-.57-2.73-1.89L223.17,79.3H195l-4.61,10.16a2.84,2.84,0,0,1-2.73,1.89h-8.19A1.67,1.67,0,0,1,177.91,88.9Zm21-74.52L214.8,3.84c1.6-1,3.95,0,5.08,2.26s1.13,4.8-.47,5.55l-17.41,8c-1,.47-2.35-.38-3.1-1.79S198.24,14.85,198.9,14.38Zm19.66,54.48-9.41-20.7h-.28l-9.22,20.7Z"/><path class="cls-1" d="M251.3,27.27a1.79,1.79,0,0,1,1.79-1.79h8.66a1.85,1.85,0,0,1,1.78,1.79V80.05h24a1.79,1.79,0,0,1,1.79,1.79v7.72a1.79,1.79,0,0,1-1.79,1.79H253.09a1.79,1.79,0,0,1-1.79-1.79Z"/><path class="cls-1" d="M329.77,24.54a33.88,33.88,0,1,1-33.78,34A33.82,33.82,0,0,1,329.77,24.54Zm0,55.51a21.64,21.64,0,1,0-21.55-21.54A21.68,21.68,0,0,0,329.77,80.05Z"/><path class="cls-1" d="M408.52,24.54a35.56,35.56,0,0,1,23,8.75,1.82,1.82,0,0,1,.1,2.63L425.74,42a1.61,1.61,0,0,1-2.45,0,21.34,21.34,0,0,0-14.2-5.46C397.33,36.58,388,46.65,388,58.41A21.41,21.41,0,0,0,409.18,80a29.5,29.5,0,0,0,11.2-2.35v-8h-7.53a1.71,1.71,0,0,1-1.79-1.69V60.48a1.73,1.73,0,0,1,1.79-1.78h18.07a1.76,1.76,0,0,1,1.69,1.78V84.57a1.85,1.85,0,0,1-.75,1.51,47.58,47.58,0,0,1-23.34,6.11,33.83,33.83,0,0,1,0-67.65Z"/><path class="cls-1" d="M478.9,24.54a33.88,33.88,0,1,1-33.78,34A33.81,33.81,0,0,1,478.9,24.54Zm0,55.51a21.64,21.64,0,1,0-21.55-21.54A21.69,21.69,0,0,0,478.9,80.05Z"/><path class="cls-2" d="M558,24.54a31.85,31.85,0,0,1,22.77,8.75,1.74,1.74,0,0,1,.1,2.63l-5.74,5.93a1.51,1.51,0,0,1-2.36,0A22.26,22.26,0,0,0,558.3,36.3c-12,0-21,10.07-21,21.92S546.35,80,558.4,80a22.56,22.56,0,0,0,14.39-5.36,1.74,1.74,0,0,1,2.36,0l5.83,6a1.8,1.8,0,0,1-.09,2.54A32.3,32.3,0,0,1,558,92.29a33.88,33.88,0,1,1,0-67.75Z"/><path class="cls-2" d="M587.65,88.9l29.27-63.33a1.69,1.69,0,0,1,1.6-1h.94a1.6,1.6,0,0,1,1.6,1L650,88.9a1.67,1.67,0,0,1-1.6,2.45h-8.19c-1.41,0-2.07-.57-2.73-1.89L632.91,79.3H604.78l-4.61,10.16a2.83,2.83,0,0,1-2.73,1.89h-8.19A1.67,1.67,0,0,1,587.65,88.9Zm40.65-20-9.41-20.7h-.28l-9.22,20.7Z"/><path class="cls-2" d="M667.63,36.77h-14.4A1.79,1.79,0,0,1,651.45,35V27.27a1.79,1.79,0,0,1,1.78-1.79h41.12a1.79,1.79,0,0,1,1.79,1.79V35a1.79,1.79,0,0,1-1.79,1.79H680V89.56a1.86,1.86,0,0,1-1.79,1.79h-8.75a1.86,1.86,0,0,1-1.79-1.79Z"/><path class="cls-2" d="M697.45,88.9l29.27-63.33a1.69,1.69,0,0,1,1.6-1h.94a1.61,1.61,0,0,1,1.6,1l29,63.33a1.67,1.67,0,0,1-1.6,2.45h-8.19c-1.41,0-2.07-.57-2.73-1.89L742.71,79.3H714.58L710,89.46a2.84,2.84,0,0,1-2.73,1.89h-8.19A1.67,1.67,0,0,1,697.45,88.9Zm21-74.52,15.9-10.54c1.6-1,3.95,0,5.08,2.26s1.13,4.8-.47,5.55l-17.41,8c-1,.47-2.35-.38-3.1-1.79S717.78,14.85,718.44,14.38ZM738.1,68.86l-9.41-20.7h-.28l-9.22,20.7Z"/><path class="cls-2" d="M770.94,27.27a1.79,1.79,0,0,1,1.78-1.79h8.66a1.86,1.86,0,0,1,1.79,1.79V80.05h24A1.79,1.79,0,0,1,809,81.84v7.72a1.79,1.79,0,0,1-1.79,1.79H772.72a1.79,1.79,0,0,1-1.78-1.79Z"/><path class="cls-2" d="M849.5,24.54a33.88,33.88,0,1,1-33.78,34A33.81,33.81,0,0,1,849.5,24.54Zm0,55.51A21.64,21.64,0,1,0,828,58.51,21.68,21.68,0,0,0,849.5,80.05Z"/><path class="cls-2" d="M928.25,24.54a35.56,35.56,0,0,1,23,8.75,1.81,1.81,0,0,1,.09,2.63L945.47,42A1.61,1.61,0,0,1,943,42a21.35,21.35,0,0,0-14.21-5.46c-11.76,0-21.07,10.07-21.07,21.83A21.4,21.4,0,0,0,928.91,80a29.55,29.55,0,0,0,11.2-2.35v-8h-7.53a1.71,1.71,0,0,1-1.79-1.69V60.48a1.73,1.73,0,0,1,1.79-1.78h18.06a1.76,1.76,0,0,1,1.7,1.78V84.57a1.85,1.85,0,0,1-.75,1.51,47.62,47.62,0,0,1-23.34,6.11,33.83,33.83,0,0,1,0-67.65Z"/><path class="cls-2" d="M998.63,24.54a33.88,33.88,0,1,1-33.78,34A33.82,33.82,0,0,1,998.63,24.54Zm0,55.51a21.64,21.64,0,1,0-21.55-21.54A21.69,21.69,0,0,0,998.63,80.05Z"/><path class="cls-2" d="M1077.56,24.54a31.86,31.86,0,0,1,22.78,8.75,1.75,1.75,0,0,1,.09,2.63l-5.74,5.93a1.5,1.5,0,0,1-2.35,0,22.26,22.26,0,0,0-14.49-5.55c-12,0-21,10.07-21,21.92s9,21.74,21.08,21.74a22.57,22.57,0,0,0,14.4-5.36,1.72,1.72,0,0,1,2.35,0l5.83,6a1.78,1.78,0,0,1-.09,2.54,32.3,32.3,0,0,1-22.87,9.13,33.88,33.88,0,1,1,0-67.75Z"/></svg>