<svg id="Capa_1" data-name="Capa 1" xmlns="http://www.w3.org/2000/svg" viewBox="0 0 1571.64 167.99"><defs><style>.cls-1{opacity:0.59;}.cls-2{fill:none;stroke:#fff;stroke-miterlimit:3.11;}.cls-3{fill:#fff;}</style></defs><g class="cls-1"><path class="cls-2" d="M14.21,93.42a2.2,2.2,0,0,1,2-2H38.63c16.42,0,28.16,14.75,28.16,31.59,0,22.54-15.69,41.14-38.34,41.14H5.9a1.52,1.52,0,0,1-1.35-2Zm15,58.09c12.68,0,23.17-11.95,23.17-27.54,0-11.32-6.44-20-16.41-20H26.16l-6.65,47.49Z"/><path class="cls-2" d="M90.06,93.42a2.19,2.19,0,0,1,2-2h38.44a1.65,1.65,0,0,1,1.56,2l-1.24,8.52a2.23,2.23,0,0,1-2.08,2h-26.6l-2.39,17h22a1.71,1.71,0,0,1,1.55,2l-1.24,8.63a2.31,2.31,0,0,1-2.08,2H98l-2.6,18.18h26.71c1,0,1.56.94,1.45,2l-1.14,8.52a2.21,2.21,0,0,1-2.08,2H81.85a1.54,1.54,0,0,1-1.46-2Z"/><path class="cls-2" d="M158.32,92a1.93,1.93,0,0,1,2-1.56h1.45a1.48,1.48,0,0,1,1.46,1l14.13,47.07h.21L205.8,91.45a2,2,0,0,1,1.77-1h1.55A1.59,1.59,0,0,1,210.58,92l.93,69.82a2.17,2.17,0,0,1-2.07,2.39h-10a1.53,1.53,0,0,1-1.56-1.56l.83-37.3h-.31l-21.71,38.76a2,2,0,0,1-1.77,1.14h-1.66a1.48,1.48,0,0,1-1.46-1.14l-10.6-38.76H161l-10,37.3a2,2,0,0,1-2,1.56H139.2c-1.15,0-1.87-.93-1.46-2.39Z"/><path class="cls-2" d="M223,161.48l39.07-69.93a1.92,1.92,0,0,1,1.76-1.14h.94a1.57,1.57,0,0,1,1.46,1.14l19.11,69.93a2,2,0,0,1-2,2.7h-9c-1.56,0-2.39-.52-2.7-2.08l-2.6-11.53H243.2l-6,11.53a3.7,3.7,0,0,1-3.32,2.08h-9.56C222.83,164.18,222.31,162.83,223,161.48Zm42.71-22.13-4.89-22.65h-.21l-11.32,22.65Z"/><path class="cls-2" d="M309.9,92.28a2.1,2.1,0,0,1,2-1.87H313c1.14,0,1.55,0,2.7,1.66l30.55,43.23h.1L352,93.42a2.12,2.12,0,0,1,2-2H364a1.71,1.71,0,0,1,1.56,2l-9.87,69.93a2.1,2.1,0,0,1-2,1.87h-1c-1.56,0-2-.31-3-1.87L319.35,119h-.1l-5.61,43.23a2.21,2.21,0,0,1-2.08,2h-10a1.58,1.58,0,0,1-1.46-1.76Z"/><path class="cls-2" d="M388.13,93.42a2.21,2.21,0,0,1,2-2h22.44c16.42,0,28.16,14.75,28.16,31.59,0,22.54-15.69,41.14-38.34,41.14H379.82a1.52,1.52,0,0,1-1.35-2Zm15,58.09c12.68,0,23.17-11.95,23.17-27.54,0-11.32-6.44-20-16.41-20h-9.77l-6.65,47.49Z"/><path class="cls-2" d="M493.9,90.41c16.83,0,29.2,14.86,29.2,32.52,0,23.38-16.94,42.29-38.86,42.29-16.94,0-29.2-15-29.2-32.21C455,109.53,471.77,90.41,493.9,90.41Zm15.17,34.18c0-11.22-6.44-20.67-16.73-20.67-12.47,0-23.27,12.57-23.27,27.32,0,11.23,6.34,20.47,16.62,20.47C498.37,151.71,509.07,139.45,509.07,124.59Z"/><path class="cls-2" d="M546.57,92.28a2.11,2.11,0,0,1,2-1.87h1.14c1.14,0,1.56,0,2.7,1.66l30.55,43.23h.1l5.62-41.88a2.11,2.11,0,0,1,2-2h10.08a1.72,1.72,0,0,1,1.56,2l-9.87,69.93a2.11,2.11,0,0,1-2,1.87h-1c-1.56,0-2-.31-3-1.87L556,119h-.1l-5.62,43.23a2.2,2.2,0,0,1-2.07,2h-10a1.56,1.56,0,0,1-1.45-1.76Z"/><path class="cls-2" d="M624.81,93.42a2.2,2.2,0,0,1,2-2h22.44c16.42,0,28.16,14.75,28.16,31.59,0,22.54-15.69,41.14-38.34,41.14H616.49a1.53,1.53,0,0,1-1.35-2Zm15,58.09c12.68,0,23.17-11.95,23.17-27.54,0-11.32-6.44-20-16.42-20h-9.76l-6.65,47.49Z"/><path class="cls-2" d="M700.65,93.42a2.21,2.21,0,0,1,2-2h38.44a1.66,1.66,0,0,1,1.56,2l-1.25,8.52a2.22,2.22,0,0,1-2.08,2H712.7l-2.39,17h22a1.71,1.71,0,0,1,1.56,2l-1.25,8.63a2.29,2.29,0,0,1-2.07,2h-22L706,151.71h26.7c1,0,1.56.94,1.46,2L733,162.21a2.22,2.22,0,0,1-2.08,2H692.44a1.53,1.53,0,0,1-1.45-2Z"/><path class="cls-2" d="M768.91,92a1.94,1.94,0,0,1,2-1.56h1.46a1.46,1.46,0,0,1,1.45,1l14.14,47.07h.2l28.26-47.07a2,2,0,0,1,1.77-1h1.56A1.58,1.58,0,0,1,821.17,92l.94,69.82a2.17,2.17,0,0,1-2.08,2.39h-10a1.53,1.53,0,0,1-1.56-1.56l.83-37.3H809L787.3,164.08a2,2,0,0,1-1.76,1.14h-1.67a1.46,1.46,0,0,1-1.45-1.14l-10.6-38.76h-.21l-10,37.3a2,2,0,0,1-2,1.56h-9.87c-1.14,0-1.87-.93-1.45-2.39Z"/><path class="cls-2" d="M833.64,161.48,872.7,91.55a1.94,1.94,0,0,1,1.77-1.14h.94a1.56,1.56,0,0,1,1.45,1.14L896,161.48a2.05,2.05,0,0,1-2,2.7h-9c-1.56,0-2.39-.52-2.71-2.08l-2.59-11.53H853.79l-6,11.53a3.72,3.72,0,0,1-3.33,2.08h-9.56C833.43,164.18,832.91,162.83,833.64,161.48Zm42.7-22.13-4.88-22.65h-.21l-11.33,22.65Z"/><path class="cls-2" d="M920.49,92.28a2.11,2.11,0,0,1,2-1.87h1.14c1.15,0,1.56,0,2.7,1.66l30.55,43.23H957l5.61-41.88a2.11,2.11,0,0,1,2-2h10.08a1.72,1.72,0,0,1,1.56,2l-9.87,69.93a2.11,2.11,0,0,1-2,1.87h-1c-1.56,0-2-.31-3-1.87L930,119h-.1l-5.62,43.23a2.2,2.2,0,0,1-2.07,2h-10a1.56,1.56,0,0,1-1.45-1.76Z"/><path class="cls-2" d="M998.73,93.42a2.2,2.2,0,0,1,2-2h22.45c16.41,0,28.15,14.75,28.15,31.59,0,22.54-15.69,41.14-38.34,41.14H990.42a1.53,1.53,0,0,1-1.36-2Zm15,58.09c12.68,0,23.17-11.95,23.17-27.54,0-11.32-6.44-20-16.42-20h-9.76L1004,151.51Z"/><path class="cls-2" d="M1104.5,90.41c16.83,0,29.19,14.86,29.19,32.52,0,23.38-16.93,42.29-38.86,42.29-16.93,0-29.19-15-29.19-32.21C1065.64,109.53,1082.37,90.41,1104.5,90.41Zm15.17,34.18c0-11.22-6.44-20.67-16.73-20.67-12.47,0-23.28,12.57-23.28,27.32,0,11.23,6.34,20.47,16.63,20.47C1109,151.71,1119.67,139.45,1119.67,124.59Z"/><path class="cls-2" d="M1157.17,92.28a2.1,2.1,0,0,1,2-1.87h1.15c1.14,0,1.56,0,2.7,1.66l30.55,43.23h.1l5.61-41.88a2.13,2.13,0,0,1,2-2h10.08a1.71,1.71,0,0,1,1.56,2L1203,163.35a2.1,2.1,0,0,1-2,1.87h-1c-1.56,0-2-.31-3-1.87L1166.63,119h-.11l-5.61,43.23a2.21,2.21,0,0,1-2.08,2h-10a1.58,1.58,0,0,1-1.46-1.76Z"/><path class="cls-2" d="M1235.4,93.42a2.21,2.21,0,0,1,2-2h22.44c16.42,0,28.16,14.75,28.16,31.59,0,22.54-15.69,41.14-38.34,41.14h-22.55a1.52,1.52,0,0,1-1.35-2Zm15,58.09c12.68,0,23.18-11.95,23.18-27.54,0-11.32-6.45-20-16.42-20h-9.77l-6.65,47.49Z"/><path class="cls-2" d="M1311.14,93.42a2.21,2.21,0,0,1,2-2h38.44a1.65,1.65,0,0,1,1.56,2l-1.25,8.52a2.22,2.22,0,0,1-2.07,2h-26.6l-2.39,17h22a1.71,1.71,0,0,1,1.56,2l-1.24,8.63a2.31,2.31,0,0,1-2.08,2h-22l-2.6,18.18h26.71c1,0,1.56.94,1.45,2l-1.14,8.52a2.22,2.22,0,0,1-2.08,2h-38.44a1.54,1.54,0,0,1-1.46-2Z"/><path class="cls-2" d="M1379.4,92a1.94,1.94,0,0,1,2-1.56h1.45a1.48,1.48,0,0,1,1.46,1l14.13,47.07h.21l28.26-47.07a2,2,0,0,1,1.76-1h1.56a1.59,1.59,0,0,1,1.46,1.56l.93,69.82a2.17,2.17,0,0,1-2.08,2.39h-10a1.53,1.53,0,0,1-1.56-1.56l.83-37.3h-.31l-21.72,38.76a2,2,0,0,1-1.76,1.14h-1.66a1.47,1.47,0,0,1-1.46-1.14l-10.6-38.76h-.21l-10,37.3a2,2,0,0,1-2,1.56h-9.88c-1.14,0-1.87-.93-1.45-2.39Z"/><path class="cls-2" d="M1444.13,161.48l39.07-69.93a1.92,1.92,0,0,1,1.76-1.14h.94a1.55,1.55,0,0,1,1.45,1.14l19.12,69.93a2,2,0,0,1-2,2.7h-9c-1.56,0-2.39-.52-2.7-2.08l-2.6-11.53h-25.87l-6,11.53a3.71,3.71,0,0,1-3.33,2.08h-9.56C1443.92,164.18,1443.4,162.83,1444.13,161.48Zm42.7-22.13L1482,116.7h-.21l-11.32,22.65Z"/><path class="cls-2" d="M1531,92.28a2.1,2.1,0,0,1,2-1.87h1.14c1.15,0,1.56,0,2.71,1.66l30.54,43.23h.11l5.61-41.88a2.11,2.11,0,0,1,2-2h10.08a1.71,1.71,0,0,1,1.56,2l-9.87,69.93a2.11,2.11,0,0,1-2,1.87h-1c-1.56,0-2-.31-3-1.87L1540.44,119h-.1l-5.61,43.23a2.22,2.22,0,0,1-2.08,2h-10a1.57,1.57,0,0,1-1.45-1.76Z"/></g><g class="cls-1"><path class="cls-3" d="M44.14,3.22C61,3.22,73.33,18.08,73.33,35.74,73.33,59.12,56.4,78,34.47,78c-16.93,0-29.19-15-29.19-32.21C5.28,22.34,22,3.22,44.14,3.22ZM59.31,37.41c0-11.23-6.45-20.68-16.73-20.68C30.11,16.73,19.3,29.3,19.3,44.06c0,11.22,6.34,20.46,16.63,20.46C48.6,64.52,59.31,52.26,59.31,37.41Z"/><path class="cls-3" d="M96.81,5.09a2.1,2.1,0,0,1,2-1.87h1.15c1.14,0,1.55,0,2.7,1.66l30.55,43.23h.1l5.61-41.88a2.13,2.13,0,0,1,2-2h10.08a1.71,1.71,0,0,1,1.56,2l-9.87,69.93a2.1,2.1,0,0,1-2,1.87h-1c-1.56,0-2-.31-3-1.87L106.26,31.8h-.1L100.55,75a2.21,2.21,0,0,1-2.08,2h-10A1.58,1.58,0,0,1,87,75.23Z"/><path class="cls-3" d="M175,6.23a2.22,2.22,0,0,1,2-2h22.44c16.42,0,28.16,14.75,28.16,31.59C227.62,58.4,211.93,77,189.28,77H166.73a1.52,1.52,0,0,1-1.35-2Zm15,58.09c12.68,0,23.18-11.95,23.18-27.54,0-11.32-6.45-20-16.42-20H187l-6.65,47.49Z"/><path class="cls-3" d="M250.89,6.23a2.21,2.21,0,0,1,2-2H291.3a1.65,1.65,0,0,1,1.56,2l-1.24,8.52a2.23,2.23,0,0,1-2.08,2h-26.6l-2.39,17h22a1.72,1.72,0,0,1,1.56,2l-1.25,8.63a2.3,2.3,0,0,1-2.08,2h-22l-2.59,18.18h26.7c1,0,1.56.94,1.45,2L283.2,75a2.21,2.21,0,0,1-2.08,2H242.68a1.54,1.54,0,0,1-1.46-2Z"/><path class="cls-3" d="M319.15,4.78a1.93,1.93,0,0,1,2-1.56h1.45a1.48,1.48,0,0,1,1.46,1l14.13,47.07h.21L366.63,4.26a2,2,0,0,1,1.77-1H370a1.59,1.59,0,0,1,1.45,1.56l.94,69.82A2.17,2.17,0,0,1,370.27,77h-10a1.53,1.53,0,0,1-1.56-1.56l.84-37.3h-.32L337.54,76.89A2,2,0,0,1,335.77,78h-1.66a1.48,1.48,0,0,1-1.46-1.14L322.06,38.13h-.21l-10,37.3a1.94,1.94,0,0,1-2,1.56H300c-1.15,0-1.87-.93-1.46-2.39Z"/><path class="cls-3" d="M383.87,74.29,422.94,4.36a1.94,1.94,0,0,1,1.77-1.14h.93a1.57,1.57,0,0,1,1.46,1.14l19.11,69.93a2,2,0,0,1-2,2.7h-9c-1.56,0-2.39-.52-2.7-2.07l-2.6-11.54H404l-6,11.54A3.69,3.69,0,0,1,394.68,77h-9.56C383.66,77,383.14,75.64,383.87,74.29Zm42.71-22.13-4.89-22.65h-.2L410.16,52.16Z"/><path class="cls-3" d="M470.73,5.09a2.1,2.1,0,0,1,2-1.87h1.15c1.14,0,1.56,0,2.7,1.66L507.1,48.11h.1l5.61-41.88a2.14,2.14,0,0,1,2-2h10.07a1.71,1.71,0,0,1,1.56,2l-9.87,69.93a2.1,2.1,0,0,1-2,1.87h-1c-1.56,0-2-.31-3-1.87L480.19,31.8h-.11L474.47,75a2.21,2.21,0,0,1-2.08,2h-10A1.58,1.58,0,0,1,461,75.23Z"/><path class="cls-3" d="M549,6.23a2.22,2.22,0,0,1,2-2h22.44c16.42,0,28.16,14.75,28.16,31.59C601.54,58.4,585.85,77,563.2,77H540.65a1.53,1.53,0,0,1-1.35-2Zm15,58.09c12.67,0,23.17-11.95,23.17-27.54,0-11.32-6.45-20-16.42-20h-9.77l-6.65,47.49Z"/></g><g class="cls-1"><path class="cls-2" d="M654.74,3.22c16.83,0,29.19,14.86,29.19,32.52C683.93,59.12,667,78,645.07,78c-16.93,0-29.19-15-29.19-32.21C615.88,22.34,632.61,3.22,654.74,3.22Zm15.17,34.19c0-11.23-6.44-20.68-16.73-20.68-12.47,0-23.28,12.57-23.28,27.33,0,11.22,6.34,20.46,16.63,20.46C659.21,64.52,669.91,52.26,669.91,37.41Z"/><path class="cls-2" d="M707.31,5.09a2.1,2.1,0,0,1,2-1.87h1.14c1.15,0,1.56,0,2.71,1.66l30.54,43.23h.11l5.61-41.88a2.12,2.12,0,0,1,2-2h10.08a1.72,1.72,0,0,1,1.56,2l-9.87,69.93a2.1,2.1,0,0,1-2,1.87h-1c-1.56,0-2-.31-3-1.87L716.76,31.8h-.1L711.05,75A2.22,2.22,0,0,1,709,77H699a1.57,1.57,0,0,1-1.45-1.76Z"/><path class="cls-2" d="M785.54,6.23a2.21,2.21,0,0,1,2-2H810c16.42,0,28.16,14.75,28.16,31.59C838.12,58.4,822.43,77,799.78,77H777.23a1.52,1.52,0,0,1-1.35-2Zm15,58.09c12.68,0,23.17-11.95,23.17-27.54,0-11.32-6.44-20-16.41-20h-9.77l-6.65,47.49Z"/><path class="cls-2" d="M861.38,6.23a2.22,2.22,0,0,1,2-2H901.8a1.66,1.66,0,0,1,1.56,2l-1.25,8.52a2.21,2.21,0,0,1-2.07,2h-26.6l-2.39,17h22a1.71,1.71,0,0,1,1.55,2l-1.24,8.63a2.31,2.31,0,0,1-2.08,2h-22l-2.6,18.18h26.71c1,0,1.56.94,1.45,2L893.7,75a2.22,2.22,0,0,1-2.08,2H853.18a1.54,1.54,0,0,1-1.46-2Z"/><path class="cls-2" d="M929.64,4.78a2,2,0,0,1,2-1.56h1.45a1.48,1.48,0,0,1,1.46,1l14.13,47.07h.21L977.13,4.26a2,2,0,0,1,1.77-1h1.55a1.59,1.59,0,0,1,1.46,1.56l.93,69.82A2.17,2.17,0,0,1,980.77,77h-10a1.53,1.53,0,0,1-1.56-1.56l.83-37.3h-.31L948,76.89A2,2,0,0,1,946.27,78h-1.66a1.48,1.48,0,0,1-1.46-1.14l-10.6-38.76h-.2l-10,37.3a2,2,0,0,1-2,1.56h-9.87c-1.15,0-1.88-.93-1.46-2.39Z"/><path class="cls-2" d="M994.37,74.29l39.07-69.93a1.92,1.92,0,0,1,1.76-1.14h.94a1.54,1.54,0,0,1,1.45,1.14l19.12,69.93a2,2,0,0,1-2,2.7h-9c-1.56,0-2.39-.52-2.7-2.07l-2.6-11.54h-25.87l-6,11.54a3.69,3.69,0,0,1-3.32,2.07h-9.56C994.16,77,993.64,75.64,994.37,74.29Zm42.7-22.13-4.88-22.65H1032l-11.32,22.65Z"/><path class="cls-2" d="M1081.23,5.09a2.1,2.1,0,0,1,2-1.87h1.15c1.14,0,1.55,0,2.7,1.66l30.55,43.23h.1l5.61-41.88a2.13,2.13,0,0,1,2-2h10.08a1.71,1.71,0,0,1,1.56,2l-9.87,69.93a2.1,2.1,0,0,1-2,1.87h-1c-1.56,0-2-.31-3-1.87L1090.68,31.8h-.1L1085,75a2.22,2.22,0,0,1-2.08,2h-10a1.57,1.57,0,0,1-1.46-1.76Z"/><path class="cls-2" d="M1159.46,6.23a2.22,2.22,0,0,1,2-2h22.44C1200.3,4.26,1212,19,1212,35.85,1212,58.4,1196.35,77,1173.7,77h-22.55a1.52,1.52,0,0,1-1.35-2Zm15,58.09c12.68,0,23.17-11.95,23.17-27.54,0-11.32-6.44-20-16.41-20h-9.77l-6.65,47.49Z"/><path class="cls-2" d="M1265.23,3.22c16.83,0,29.2,14.86,29.2,32.52,0,23.38-16.94,42.29-38.86,42.29-16.94,0-29.2-15-29.2-32.21C1226.37,22.34,1243.1,3.22,1265.23,3.22Zm15.17,34.19c0-11.23-6.44-20.68-16.73-20.68-12.47,0-23.27,12.57-23.27,27.33,0,11.22,6.33,20.46,16.62,20.46C1269.7,64.52,1280.4,52.26,1280.4,37.41Z"/><path class="cls-2" d="M1317.8,5.09a2.1,2.1,0,0,1,2-1.87h1.15c1.14,0,1.56,0,2.7,1.66l30.55,43.23h.1l5.61-41.88a2.13,2.13,0,0,1,2-2h10.08a1.71,1.71,0,0,1,1.56,2l-9.87,69.93a2.1,2.1,0,0,1-2,1.87h-1c-1.56,0-2-.31-3-1.87L1327.26,31.8h-.11L1321.54,75a2.21,2.21,0,0,1-2.08,2h-10a1.58,1.58,0,0,1-1.46-1.76Z"/><path class="cls-2" d="M1396,6.23a2.22,2.22,0,0,1,2-2h22.44c16.42,0,28.16,14.75,28.16,31.59,0,22.55-15.69,41.14-38.34,41.14h-22.55a1.52,1.52,0,0,1-1.35-2Zm15,58.09c12.68,0,23.18-11.95,23.18-27.54,0-11.32-6.45-20-16.42-20H1408l-6.65,47.49Z"/><path class="cls-2" d="M1471.88,6.23a2.21,2.21,0,0,1,2-2h38.45a1.65,1.65,0,0,1,1.55,2l-1.24,8.52a2.23,2.23,0,0,1-2.08,2h-26.6l-2.39,17h22a1.72,1.72,0,0,1,1.56,2l-1.25,8.63a2.3,2.3,0,0,1-2.08,2h-22l-2.59,18.18h26.7c1,0,1.56.94,1.45,2L1504.19,75a2.21,2.21,0,0,1-2.08,2h-38.44a1.54,1.54,0,0,1-1.46-2Z"/><path class="cls-2" d="M1540.14,4.78a1.93,1.93,0,0,1,2-1.56h1.45a1.48,1.48,0,0,1,1.46,1l14.13,47.07h.21l28.26-47.07a2,2,0,0,1,1.77-1H1591a1.59,1.59,0,0,1,1.45,1.56l.94,69.82a2.17,2.17,0,0,1-2.08,2.39h-10a1.53,1.53,0,0,1-1.56-1.56l.84-37.3h-.32l-21.71,38.76a2,2,0,0,1-1.77,1.14h-1.66a1.48,1.48,0,0,1-1.46-1.14l-10.59-38.76h-.21l-10,37.3a1.93,1.93,0,0,1-2,1.56H1521c-1.14,0-1.87-.93-1.46-2.39Z"/></g></svg>