<?xml version="1.0" encoding="utf-8"?>
<!-- Generator: Adobe Illustrator 26.0.3, SVG Export Plug-In . SVG Version: 6.00 Build 0)  -->
<svg version="1.1" id="Capa_1" xmlns="http://www.w3.org/2000/svg" xmlns:xlink="http://www.w3.org/1999/xlink" x="0px" y="0px"
	 viewBox="0 0 413.4 451.9" style="enable-background:new 0 0 413.4 451.9;" xml:space="preserve">
<style type="text/css">
	.st0{fill:#4A5B6D;}
	.st1{fill:#7AC143;}
	.st2{fill:#FDB71A;}
	.st3{fill:#A5BCD0;}
	.st4{fill:#007DC3;}
	.st5{fill:#95CB64;}
	.st6{fill:#B7C9D9;}
	.st7{fill:#FEC452;}
</style>
<g>
	<g>
		<g>
			<path class="st0" d="M39.3,4.5c0-0.1,0.1-0.2,0.2-0.2h2.9c2.5,0,4.6,2,4.6,4.5c0,2.5-2.1,4.6-4.6,4.6h-2.9
				c-0.1,0-0.2-0.1-0.2-0.2V4.5z M42.4,12.4c2.1,0,3.6-1.5,3.6-3.7c0-2.1-1.5-3.7-3.6-3.7h-2v7.3H42.4z"/>
			<path class="st0" d="M48.5,5.1c0-0.4,0.3-0.7,0.7-0.7c0.4,0,0.7,0.3,0.7,0.7c0,0.4-0.3,0.7-0.7,0.7C48.8,5.8,48.5,5.4,48.5,5.1z
				 M48.7,7.6c0-0.1,0.1-0.3,0.3-0.3h0.4c0.1,0,0.3,0.1,0.3,0.3V13c0,0.2-0.1,0.3-0.3,0.3H49c-0.2,0-0.3-0.1-0.3-0.3V7.6z"/>
			<path class="st0" d="M51.3,12.7c-0.1-0.1-0.1-0.2,0-0.3l0.2-0.3c0.1-0.1,0.2-0.2,0.4-0.1c0.2,0.2,0.7,0.5,1.5,0.5
				c0.6,0,1-0.3,1-0.8c0-0.6-0.5-0.8-1.3-1.2c-0.8-0.4-1.7-0.8-1.7-1.8c0-0.6,0.5-1.6,1.9-1.6c0.8,0,1.4,0.3,1.7,0.5
				C55,7.7,55.1,7.9,55,8l-0.1,0.2c-0.1,0.2-0.3,0.2-0.4,0.1C54.2,8.2,53.7,8,53.2,8c-0.7,0-0.9,0.4-0.9,0.7c0,0.5,0.4,0.7,1.1,1.1
				c1,0.5,1.9,0.9,1.9,2c0,0.9-0.8,1.7-2,1.7C52.3,13.5,51.7,13,51.3,12.7z"/>
			<path class="st0" d="M59.6,7.2c0.9,0,1.6,0.4,2.2,1c0.1,0.1,0.1,0.3-0.1,0.4l-0.2,0.2c-0.2,0.2-0.3,0-0.4-0.1
				C60.7,8.2,60.2,8,59.6,8c-1.1,0-2.1,1-2.1,2.3c0,1.3,0.9,2.3,2,2.3c0.9,0,1.3-0.5,1.6-0.9c0.2-0.2,0.3-0.1,0.5,0l0.1,0.1
				c0.1,0.1,0.2,0.3,0.1,0.4c-0.5,0.7-1.3,1.2-2.3,1.2c-1.8,0-3-1.3-3-3.1C56.5,8.6,57.8,7.2,59.6,7.2z"/>
			<path class="st0" d="M65.9,7.2c1.7,0,3,1.4,3,3.1c0,1.7-1.4,3.2-3,3.2s-3-1.4-3-3.2C62.9,8.6,64.3,7.2,65.9,7.2z M65.9,12.6
				c1.2,0,2.1-1,2.1-2.3C68,9.1,67.1,8,65.9,8s-2.1,1-2.1,2.2C63.9,11.5,64.7,12.6,65.9,12.6z"/>
			<path class="st0" d="M70.5,7.6c0-0.1,0.1-0.3,0.3-0.3h0.4c0.2,0,0.3,0.1,0.3,0.3v3.2c0,1.2,0.4,1.7,1.3,1.7
				c0.9,0,1.4-0.6,1.7-0.9V7.6c0-0.1,0.1-0.3,0.3-0.3h0.4c0.1,0,0.3,0.1,0.3,0.3v5.5c0,0.1-0.1,0.2-0.2,0.2c-0.4,0-0.6-0.3-0.6-0.7
				c-0.4,0.4-0.9,0.8-1.9,0.8c-1.7,0-2.1-1-2.1-2.6V7.6z"/>
			<path class="st0" d="M77.3,7.5c0-0.1,0.1-0.2,0.2-0.2c0.4,0,0.6,0.3,0.6,0.7c0.4-0.3,1.1-0.8,2-0.8c1.7,0,2.2,1.1,2.2,2.7V13
				c0,0.2-0.1,0.3-0.3,0.3h-0.4c-0.2,0-0.3-0.1-0.3-0.3V9.7C81.4,8.6,81,8,80.2,8c-1.1,0-1.8,0.8-1.8,0.8V13c0,0.2-0.1,0.3-0.3,0.3
				h-0.4c-0.2,0-0.3-0.1-0.3-0.3V7.5z"/>
			<path class="st0" d="M83.8,8.1c-0.2,0-0.3-0.1-0.3-0.3V7.6c0-0.2,0.1-0.3,0.3-0.3h0.8V5.6c0-0.2,0.1-0.3,0.3-0.3l0.4,0
				c0.2,0,0.3,0.1,0.3,0.3v1.7h1.8c0.2,0,0.3,0.1,0.3,0.3v0.3c0,0.2-0.1,0.3-0.3,0.3h-1.8v3.5c0,0.6,0.4,0.9,0.8,0.9
				c0.4,0,0.7-0.1,0.9-0.3c0.2-0.1,0.3,0,0.4,0.1l0.1,0.3c0.1,0.2,0.1,0.3-0.1,0.4c-0.3,0.2-0.8,0.4-1.4,0.4c-1.1,0-1.7-0.8-1.7-1.8
				V8.1H83.8z"/>
			<path class="st0" d="M95.8,8.8L94,13.3c0,0.1-0.1,0.2-0.2,0.2h-0.1c-0.1,0-0.2-0.1-0.3-0.2l-1.7-5.7c-0.1-0.2,0-0.3,0.2-0.3h0.4
				c0.1,0,0.2,0.1,0.3,0.2l1.1,4.1h0l1.7-4.2c0-0.1,0.1-0.1,0.3-0.1h0.1c0.1,0,0.2,0.1,0.2,0.1l1.7,4.3h0l1.1-4.1
				c0-0.1,0.1-0.2,0.2-0.2h0.5c0.2,0,0.3,0.1,0.2,0.3l-1.6,5.7c0,0.1-0.1,0.2-0.2,0.2h-0.1c-0.1,0-0.2-0.1-0.3-0.2L95.8,8.8
				L95.8,8.8z"/>
			<path class="st0" d="M103.2,9.5c0.6,0,1.3,0.2,1.3,0.2c0-1.1-0.5-1.7-1.4-1.7c-0.7,0-1.1,0.3-1.4,0.4c-0.2,0.1-0.2,0-0.3-0.2
				l-0.1-0.4c-0.1-0.2,0-0.3,0.2-0.3c0.3-0.1,0.8-0.4,1.7-0.4c1.5,0,2.2,0.9,2.2,2.5v3.4c0,0.1-0.1,0.2-0.2,0.2
				c-0.4,0-0.6-0.3-0.6-0.7c-0.3,0.3-0.9,0.8-1.9,0.8c-1.1,0-1.9-0.8-1.9-2C100.8,10.3,101.6,9.5,103.2,9.5z M102.8,12.6
				c0.7,0,1.4-0.4,1.7-0.8v-1.2c-0.2-0.1-0.7-0.2-1.3-0.2c-0.8,0-1.5,0.4-1.5,1.2C101.7,12.1,102.1,12.6,102.8,12.6z"/>
			<path class="st0" d="M107.3,7.5c0-0.1,0.1-0.2,0.2-0.2c0.4,0,0.6,0.3,0.6,0.7c0.3-0.3,0.9-0.8,1.8-0.8c0.5,0,1.2,0.1,1.1,0.5
				l-0.2,0.5c-0.1,0.2-0.2,0.2-0.4,0.1c-0.1-0.1-0.4-0.2-0.6-0.2c-1.2,0-1.6,0.8-1.6,0.8V13c0,0.2-0.1,0.3-0.3,0.3h-0.4
				c-0.2,0-0.3-0.1-0.3-0.3V7.5z"/>
			<path class="st0" d="M114.7,7.2c1.6,0,2.7,1.2,2.7,2.7c0,0.1,0,0.3,0,0.4c0,0.2-0.1,0.3-0.3,0.3h-4.4c0,1,0.9,2.1,2,2.1
				c0.8,0,1.3-0.3,1.6-0.5c0.2-0.1,0.3-0.2,0.5,0l0.2,0.2c0.1,0.2,0.2,0.2-0.1,0.4c-0.4,0.3-1.2,0.7-2.2,0.7c-1.8,0-2.9-1.4-2.9-3.1
				C111.8,8.6,112.9,7.2,114.7,7.2z M116.4,9.8c0-0.9-0.7-1.7-1.8-1.7c-1,0-1.8,0.8-1.9,1.7H116.4z"/>
			<path class="st0" d="M119,4.5c0-0.1,0.1-0.3,0.3-0.3h0.4c0.1,0,0.3,0.1,0.3,0.3v3.4c0,0,0.7-0.8,1.9-0.8c1.5,0,2.2,0.9,2.2,2.7
				V13c0,0.2-0.1,0.3-0.3,0.3h-0.4c-0.2,0-0.3-0.1-0.3-0.3V9.9c0-1.1-0.3-1.8-1.3-1.8c-1.1,0-1.8,0.9-1.8,0.9V13
				c0,0.2-0.1,0.3-0.3,0.3h-0.4c-0.2,0-0.3-0.1-0.3-0.3V4.5z"/>
			<path class="st0" d="M128.6,7.2c1.7,0,3,1.4,3,3.1c0,1.7-1.4,3.2-3,3.2s-3-1.4-3-3.2C125.6,8.6,126.9,7.2,128.6,7.2z M128.6,12.6
				c1.2,0,2.1-1,2.1-2.3c0-1.2-0.9-2.2-2.1-2.2s-2.1,1-2.1,2.2C126.5,11.5,127.4,12.6,128.6,12.6z"/>
			<path class="st0" d="M133.1,7.6c0-0.1,0.1-0.3,0.3-0.3h0.4c0.2,0,0.3,0.1,0.3,0.3v3.2c0,1.2,0.4,1.7,1.3,1.7
				c0.9,0,1.4-0.6,1.7-0.9V7.6c0-0.1,0.1-0.3,0.3-0.3h0.4c0.1,0,0.3,0.1,0.3,0.3v5.5c0,0.1-0.1,0.2-0.2,0.2c-0.4,0-0.6-0.3-0.6-0.7
				c-0.4,0.4-0.9,0.8-1.9,0.8c-1.7,0-2.1-1-2.1-2.6V7.6z"/>
			<path class="st0" d="M139.7,12.7c-0.1-0.1-0.1-0.2,0-0.3l0.2-0.3c0.1-0.1,0.2-0.2,0.4-0.1c0.2,0.2,0.7,0.5,1.5,0.5
				c0.6,0,1-0.3,1-0.8c0-0.6-0.5-0.8-1.3-1.2c-0.8-0.4-1.7-0.8-1.7-1.8c0-0.6,0.5-1.6,1.9-1.6c0.8,0,1.4,0.3,1.7,0.5
				c0.1,0.1,0.2,0.2,0.1,0.4l-0.1,0.2c-0.1,0.2-0.3,0.2-0.4,0.1c-0.3-0.2-0.7-0.4-1.2-0.4c-0.7,0-0.9,0.4-0.9,0.7
				c0,0.5,0.4,0.7,1.1,1.1c1,0.5,1.9,0.9,1.9,2c0,0.9-0.8,1.7-2,1.7C140.7,13.5,140,13,139.7,12.7z"/>
			<path class="st0" d="M147.8,7.2c1.6,0,2.7,1.2,2.7,2.7c0,0.1,0,0.3,0,0.4c0,0.2-0.1,0.3-0.3,0.3h-4.4c0,1,0.9,2.1,2,2.1
				c0.8,0,1.3-0.3,1.6-0.5c0.2-0.1,0.3-0.2,0.5,0l0.2,0.2c0.1,0.2,0.2,0.2-0.1,0.4c-0.4,0.3-1.2,0.7-2.2,0.7c-1.8,0-2.9-1.4-2.9-3.1
				C144.9,8.6,146,7.2,147.8,7.2z M149.5,9.8c0-0.9-0.7-1.7-1.8-1.7c-1,0-1.8,0.8-1.9,1.7H149.5z"/>
			<path class="st0" d="M151.7,12.7c-0.1-0.1-0.1-0.2,0-0.3l0.2-0.3c0.1-0.1,0.2-0.2,0.4-0.1c0.2,0.2,0.7,0.5,1.5,0.5
				c0.6,0,1-0.3,1-0.8c0-0.6-0.5-0.8-1.3-1.2c-0.8-0.4-1.7-0.8-1.7-1.8c0-0.6,0.5-1.6,1.9-1.6c0.8,0,1.4,0.3,1.7,0.5
				c0.1,0.1,0.2,0.2,0.1,0.4l-0.1,0.2c-0.1,0.2-0.3,0.2-0.4,0.1c-0.3-0.2-0.7-0.4-1.2-0.4c-0.7,0-0.9,0.4-0.9,0.7
				c0,0.5,0.4,0.7,1.1,1.1c1,0.5,1.9,0.9,1.9,2c0,0.9-0.8,1.7-2,1.7C152.7,13.5,152,13,151.7,12.7z"/>
		</g>
	</g>
	<g>
		<path class="st0" d="M41,25.1c0.6,0,1.3,0.2,1.3,0.2c0-1.1-0.5-1.7-1.4-1.7c-0.7,0-1.1,0.3-1.4,0.4c-0.2,0.1-0.2,0-0.3-0.2
			l-0.1-0.4c-0.1-0.2,0-0.3,0.2-0.3c0.3-0.1,0.8-0.4,1.7-0.4c1.5,0,2.2,0.9,2.2,2.5v3.4c0,0.1-0.1,0.2-0.2,0.2
			c-0.4,0-0.6-0.3-0.6-0.7c-0.3,0.3-0.9,0.8-1.9,0.8c-1.1,0-1.9-0.8-1.9-2C38.6,25.9,39.5,25.1,41,25.1z M40.6,28.2
			c0.7,0,1.4-0.4,1.7-0.8v-1.2c-0.2-0.1-0.7-0.2-1.3-0.2c-0.8,0-1.5,0.4-1.5,1.2C39.6,27.7,40,28.2,40.6,28.2z"/>
		<path class="st0" d="M45.2,23.1c0-0.1,0.1-0.2,0.2-0.2c0.4,0,0.6,0.3,0.6,0.7c0.4-0.3,1.1-0.8,2-0.8c1.7,0,2.2,1.1,2.2,2.7v3.2
			c0,0.2-0.1,0.3-0.3,0.3h-0.4c-0.2,0-0.3-0.1-0.3-0.3v-3.3c0-1.1-0.4-1.7-1.3-1.7c-1.1,0-1.8,0.8-1.8,0.8v4.1
			c0,0.2-0.1,0.3-0.3,0.3h-0.4c-0.2,0-0.3-0.1-0.3-0.3V23.1z"/>
		<path class="st0" d="M54.7,22.8c1,0,1.7,0.4,1.7,0.4v-3.1c0-0.1,0.1-0.3,0.3-0.3H57c0.2,0,0.3,0.1,0.3,0.3v8.6
			c0,0.1-0.1,0.2-0.2,0.2c-0.4,0-0.6-0.3-0.6-0.7c-0.4,0.4-1.1,0.8-1.9,0.8c-1.5,0-2.7-1.4-2.7-3.2C51.8,24.1,52.8,22.8,54.7,22.8z
			 M54.6,28.2c1.1,0,1.7-1,1.7-1V24c0,0-0.7-0.3-1.5-0.3c-1.3,0-2,1.1-2,2.3C52.8,27.1,53.5,28.2,54.6,28.2z"/>
		<path class="st0" d="M64.9,22.8c1,0,1.7,0.4,1.7,0.4v-3.1c0-0.1,0.1-0.3,0.3-0.3h0.4c0.2,0,0.3,0.1,0.3,0.3v8.6
			c0,0.1-0.1,0.2-0.2,0.2c-0.4,0-0.6-0.3-0.6-0.7c-0.4,0.4-1.1,0.8-1.9,0.8c-1.5,0-2.7-1.4-2.7-3.2C62,24.1,63.1,22.8,64.9,22.8z
			 M64.8,28.2c1.1,0,1.7-1,1.7-1V24c0,0-0.7-0.3-1.5-0.3c-1.3,0-2,1.1-2,2.3C63,27.1,63.8,28.2,64.8,28.2z"/>
		<path class="st0" d="M69.2,20.7c0-0.4,0.3-0.7,0.7-0.7c0.4,0,0.7,0.3,0.7,0.7c0,0.4-0.3,0.7-0.7,0.7C69.6,21.4,69.2,21,69.2,20.7z
			 M69.5,23.2c0-0.1,0.1-0.3,0.3-0.3h0.4c0.1,0,0.3,0.1,0.3,0.3v5.4c0,0.2-0.1,0.3-0.3,0.3h-0.4c-0.2,0-0.3-0.1-0.3-0.3V23.2z"/>
		<path class="st0" d="M72.1,28.3c-0.1-0.1-0.1-0.2,0-0.3l0.2-0.3c0.1-0.1,0.2-0.2,0.4-0.1c0.2,0.2,0.7,0.5,1.5,0.5
			c0.6,0,1-0.3,1-0.8c0-0.6-0.5-0.8-1.3-1.2c-0.8-0.4-1.7-0.8-1.7-1.8c0-0.6,0.5-1.6,1.9-1.6c0.8,0,1.4,0.3,1.7,0.5
			c0.1,0.1,0.2,0.2,0.1,0.4l-0.1,0.2c-0.1,0.2-0.3,0.2-0.4,0.1c-0.3-0.2-0.7-0.4-1.2-0.4c-0.7,0-0.9,0.4-0.9,0.7
			c0,0.5,0.4,0.7,1.1,1.1c1,0.5,1.9,0.9,1.9,2c0,0.9-0.8,1.7-2,1.7C73.1,29.1,72.4,28.6,72.1,28.3z"/>
		<path class="st0" d="M80.3,22.8c0.9,0,1.6,0.4,2.2,1c0.1,0.1,0.1,0.3-0.1,0.4l-0.2,0.2c-0.2,0.2-0.3,0-0.4-0.1
			c-0.4-0.5-0.9-0.6-1.5-0.6c-1.1,0-2.1,1-2.1,2.3c0,1.3,0.9,2.3,2,2.3c0.9,0,1.3-0.5,1.6-0.9c0.2-0.2,0.3-0.1,0.5,0l0.1,0.1
			c0.1,0.1,0.2,0.3,0.1,0.4c-0.5,0.7-1.3,1.2-2.3,1.2c-1.8,0-3-1.3-3-3.1C77.3,24.1,78.6,22.8,80.3,22.8z"/>
		<path class="st0" d="M86.7,22.8c1.7,0,3,1.4,3,3.1c0,1.7-1.4,3.2-3,3.2s-3-1.4-3-3.2C83.7,24.2,85,22.8,86.7,22.8z M86.7,28.2
			c1.2,0,2.1-1,2.1-2.3c0-1.2-0.9-2.2-2.1-2.2s-2.1,1-2.1,2.2C84.6,27.1,85.5,28.2,86.7,28.2z"/>
		<path class="st0" d="M91.2,23.2c0-0.1,0.1-0.3,0.3-0.3h0.4c0.2,0,0.3,0.1,0.3,0.3v3.2c0,1.2,0.4,1.7,1.3,1.7
			c0.9,0,1.4-0.6,1.7-0.9v-4.1c0-0.1,0.1-0.3,0.3-0.3h0.4c0.1,0,0.3,0.1,0.3,0.3v5.5c0,0.1-0.1,0.2-0.2,0.2c-0.4,0-0.6-0.3-0.6-0.7
			c-0.4,0.4-0.9,0.8-1.9,0.8c-1.7,0-2.1-1-2.1-2.6V23.2z"/>
		<path class="st0" d="M98.1,23.1c0-0.1,0.1-0.2,0.2-0.2c0.4,0,0.6,0.3,0.6,0.7c0.4-0.3,1.1-0.8,2-0.8c1.7,0,2.2,1.1,2.2,2.7v3.2
			c0,0.2-0.1,0.3-0.3,0.3h-0.4c-0.2,0-0.3-0.1-0.3-0.3v-3.3c0-1.1-0.4-1.7-1.3-1.7c-1.1,0-1.8,0.8-1.8,0.8v4.1
			c0,0.2-0.1,0.3-0.3,0.3h-0.4c-0.2,0-0.3-0.1-0.3-0.3V23.1z"/>
		<path class="st0" d="M104.5,23.7c-0.2,0-0.3-0.1-0.3-0.3v-0.3c0-0.2,0.1-0.3,0.3-0.3h0.8v-1.7c0-0.2,0.1-0.3,0.3-0.3l0.4,0
			c0.2,0,0.3,0.1,0.3,0.3v1.7h1.8c0.2,0,0.3,0.1,0.3,0.3v0.3c0,0.2-0.1,0.3-0.3,0.3h-1.8v3.5c0,0.6,0.4,0.9,0.8,0.9
			c0.4,0,0.7-0.1,0.9-0.3c0.2-0.1,0.3,0,0.4,0.1l0.1,0.3c0.1,0.2,0.1,0.3-0.1,0.4c-0.3,0.2-0.8,0.4-1.4,0.4c-1.1,0-1.7-0.8-1.7-1.8
			v-3.5H104.5z"/>
		<path class="st0" d="M112.7,28.3c-0.1-0.1-0.1-0.2,0-0.3l0.2-0.3c0.1-0.1,0.2-0.2,0.4-0.1c0.2,0.2,0.7,0.5,1.5,0.5
			c0.6,0,1-0.3,1-0.8c0-0.6-0.5-0.8-1.3-1.2c-0.8-0.4-1.7-0.8-1.7-1.8c0-0.6,0.5-1.6,1.9-1.6c0.8,0,1.4,0.3,1.7,0.5
			c0.1,0.1,0.2,0.2,0.1,0.4l-0.1,0.2c-0.1,0.2-0.3,0.2-0.4,0.1c-0.3-0.2-0.7-0.4-1.2-0.4c-0.7,0-0.9,0.4-0.9,0.7
			c0,0.5,0.4,0.7,1.1,1.1c1,0.5,1.9,0.9,1.9,2c0,0.9-0.8,1.7-2,1.7C113.7,29.1,113,28.6,112.7,28.3z"/>
		<path class="st0" d="M117.9,23.7c-0.2,0-0.3-0.1-0.3-0.3v-0.3c0-0.2,0.1-0.3,0.3-0.3h0.8v-1.7c0-0.2,0.1-0.3,0.3-0.3l0.4,0
			c0.2,0,0.3,0.1,0.3,0.3v1.7h1.8c0.2,0,0.3,0.1,0.3,0.3v0.3c0,0.2-0.1,0.3-0.3,0.3h-1.8v3.5c0,0.6,0.4,0.9,0.8,0.9
			c0.4,0,0.7-0.1,0.9-0.3c0.2-0.1,0.3,0,0.4,0.1l0.1,0.3c0.1,0.2,0.1,0.3-0.1,0.4c-0.3,0.2-0.8,0.4-1.4,0.4c-1.1,0-1.7-0.8-1.7-1.8
			v-3.5H117.9z"/>
		<path class="st0" d="M125.6,22.8c1.7,0,3,1.4,3,3.1c0,1.7-1.4,3.2-3,3.2s-3-1.4-3-3.2C122.6,24.2,123.9,22.8,125.6,22.8z
			 M125.6,28.2c1.2,0,2.1-1,2.1-2.3c0-1.2-0.9-2.2-2.1-2.2s-2.1,1-2.1,2.2C123.5,27.1,124.4,28.2,125.6,28.2z"/>
		<path class="st0" d="M130.2,23.1c0-0.1,0.1-0.2,0.2-0.2c0.4,0,0.6,0.3,0.6,0.7c0.3-0.3,0.9-0.8,1.8-0.8c0.5,0,1.2,0.1,1.1,0.5
			l-0.2,0.5c-0.1,0.2-0.2,0.2-0.4,0.1c-0.1-0.1-0.4-0.2-0.6-0.2c-1.2,0-1.6,0.8-1.6,0.8v4.2c0,0.2-0.1,0.3-0.3,0.3h-0.4
			c-0.2,0-0.3-0.1-0.3-0.3V23.1z"/>
		<path class="st0" d="M137.6,22.8c1.6,0,2.7,1.2,2.7,2.7c0,0.1,0,0.3,0,0.4c0,0.2-0.1,0.3-0.3,0.3h-4.4c0,1,0.9,2.1,2,2.1
			c0.8,0,1.3-0.3,1.6-0.5c0.2-0.1,0.3-0.2,0.5,0l0.2,0.2c0.1,0.2,0.2,0.2-0.1,0.4c-0.4,0.3-1.2,0.7-2.2,0.7c-1.8,0-2.9-1.4-2.9-3.1
			C134.7,24.2,135.8,22.8,137.6,22.8z M139.4,25.4c0-0.9-0.7-1.7-1.8-1.7c-1,0-1.8,0.8-1.9,1.7H139.4z"/>
		<path class="st0" d="M141.6,28.3c-0.1-0.1-0.1-0.2,0-0.3l0.2-0.3c0.1-0.1,0.2-0.2,0.4-0.1c0.2,0.2,0.7,0.5,1.5,0.5
			c0.6,0,1-0.3,1-0.8c0-0.6-0.5-0.8-1.3-1.2c-0.8-0.4-1.7-0.8-1.7-1.8c0-0.6,0.5-1.6,1.9-1.6c0.8,0,1.4,0.3,1.7,0.5
			c0.1,0.1,0.2,0.2,0.1,0.4l-0.1,0.2c-0.1,0.2-0.3,0.2-0.4,0.1c-0.3-0.2-0.7-0.4-1.2-0.4c-0.7,0-0.9,0.4-0.9,0.7
			c0,0.5,0.4,0.7,1.1,1.1c1,0.5,1.9,0.9,1.9,2c0,0.9-0.8,1.7-2,1.7C142.5,29.1,141.9,28.6,141.6,28.3z"/>
	</g>
	<g>
		<path class="st0" d="M39.3,43.9c0-0.1,0.1-0.2,0.2-0.2h0.5c0.1,0,0.2,0.1,0.2,0.2v3.8h5.3v-3.8c0-0.1,0.1-0.2,0.2-0.2h0.5
			c0.1,0,0.2,0.1,0.2,0.2v8.6c0,0.1-0.1,0.2-0.2,0.2h-0.5c-0.1,0-0.2-0.1-0.2-0.2v-3.9h-5.3v3.9c0,0.1-0.1,0.2-0.2,0.2h-0.5
			c-0.1,0-0.2-0.1-0.2-0.2V43.9z"/>
		<path class="st0" d="M49.2,55.5l1.1-2.7l-2.2-5.7c-0.1-0.2,0-0.3,0.2-0.3h0.5c0.1,0,0.2,0.1,0.3,0.2l1.7,4.8h0l2-4.8
			c0-0.1,0.1-0.2,0.3-0.2h0.5c0.2,0,0.3,0.1,0.2,0.3l-3.8,8.6c0,0.1-0.2,0.2-0.3,0.2h-0.4C49.2,55.8,49.1,55.7,49.2,55.5z"/>
		<path class="st0" d="M56.1,55.6c0,0.2-0.1,0.3-0.3,0.3h-0.4c-0.2,0-0.3-0.1-0.3-0.3v-8.6c0-0.1,0.1-0.2,0.2-0.2
			c0.3,0,0.5,0.2,0.6,0.5c0.4-0.3,1-0.6,1.8-0.6c1.6,0,2.8,1.4,2.8,3.1c0,1.8-1.2,3.1-2.8,3.1c-1,0-1.7-0.5-1.7-0.5V55.6z
			 M56.1,51.5c0,0,0.7,0.5,1.5,0.5c1.2,0,2-1,2-2.3c0-1.2-0.7-2.2-1.9-2.2c-1,0-1.6,0.7-1.6,0.7V51.5z"/>
		<path class="st0" d="M64.8,46.6c1.6,0,2.7,1.2,2.7,2.7c0,0.1,0,0.3,0,0.4c0,0.2-0.1,0.3-0.3,0.3h-4.4c0,1,0.9,2.1,2,2.1
			c0.8,0,1.3-0.3,1.6-0.5c0.2-0.1,0.3-0.2,0.5,0l0.2,0.2c0.1,0.2,0.2,0.2-0.1,0.4c-0.4,0.3-1.2,0.7-2.2,0.7c-1.8,0-2.9-1.4-2.9-3.1
			C61.9,48.1,63,46.6,64.8,46.6z M66.6,49.2c0-0.9-0.7-1.7-1.8-1.7c-1,0-1.8,0.8-1.9,1.7H66.6z"/>
		<path class="st0" d="M69.1,46.9c0-0.1,0.1-0.2,0.2-0.2c0.4,0,0.6,0.3,0.6,0.7c0.3-0.3,0.9-0.8,1.8-0.8c0.5,0,1.2,0.1,1.1,0.5
			l-0.2,0.5c-0.1,0.2-0.2,0.2-0.4,0.1c-0.1-0.1-0.4-0.2-0.6-0.2c-1.2,0-1.6,0.8-1.6,0.8v4.2c0,0.2-0.1,0.3-0.3,0.3h-0.4
			c-0.2,0-0.3-0.1-0.3-0.3V46.9z"/>
		<path class="st0" d="M74.1,46.9c0-0.1,0.1-0.2,0.2-0.2c0.4,0,0.6,0.3,0.6,0.7c0.4-0.4,1-0.8,1.9-0.8c0.9,0,1.4,0.3,1.8,0.9
			c0.1-0.1,0.9-0.9,2.1-0.9c1.7,0,2.2,1.1,2.2,2.7v3.2c0,0.2-0.1,0.3-0.3,0.3h-0.4c-0.2,0-0.3-0.1-0.3-0.3v-3.2
			c0-1.1-0.4-1.8-1.3-1.8c-1,0-1.5,0.6-1.7,0.8c0.1,0.3,0.1,0.7,0.1,1v3.2c0,0.2-0.1,0.3-0.3,0.3h-0.4c-0.1,0-0.3-0.1-0.3-0.3v-3.2
			c0-1.1-0.4-1.8-1.4-1.8c-1.1,0-1.6,0.8-1.6,0.8v4.1c0,0.2-0.1,0.3-0.3,0.3h-0.4c-0.2,0-0.3-0.1-0.3-0.3V46.9z"/>
		<path class="st0" d="M86.8,48.9c0.6,0,1.3,0.2,1.3,0.2c0-1.1-0.5-1.7-1.4-1.7c-0.7,0-1.1,0.3-1.4,0.4c-0.2,0.1-0.2,0-0.3-0.2
			l-0.1-0.4c-0.1-0.2,0-0.3,0.2-0.3c0.3-0.1,0.8-0.4,1.7-0.4c1.5,0,2.2,0.9,2.2,2.5v3.4c0,0.1-0.1,0.2-0.2,0.2
			c-0.4,0-0.6-0.3-0.6-0.7c-0.3,0.3-0.9,0.8-1.9,0.8c-1.1,0-1.9-0.8-1.9-2C84.4,49.8,85.3,48.9,86.8,48.9z M86.4,52
			c0.7,0,1.4-0.4,1.7-0.8V50c-0.2-0.1-0.7-0.2-1.3-0.2c-0.8,0-1.5,0.4-1.5,1.2C85.4,51.5,85.8,52,86.4,52z"/>
		<path class="st0" d="M91,46.9c0-0.1,0.1-0.2,0.2-0.2c0.4,0,0.6,0.3,0.6,0.7c0.3-0.3,0.9-0.8,1.8-0.8c0.5,0,1.2,0.1,1.1,0.5
			l-0.2,0.5c-0.1,0.2-0.2,0.2-0.4,0.1c-0.1-0.1-0.4-0.2-0.6-0.2c-1.2,0-1.6,0.8-1.6,0.8v4.2c0,0.2-0.1,0.3-0.3,0.3h-0.4
			c-0.2,0-0.3-0.1-0.3-0.3V46.9z"/>
		<path class="st0" d="M96,43.9c0-0.1,0.1-0.3,0.3-0.3h0.4c0.1,0,0.3,0.1,0.3,0.3V49l2.5-2.1c0.1-0.1,0.2-0.2,0.4-0.2h0.7
			c0.3,0,0.2,0.3,0.1,0.4l-2.8,2.3l3,3c0.1,0.1,0.1,0.4-0.2,0.4H100c-0.1,0-0.2-0.1-0.3-0.1l-2.7-2.9v2.7c0,0.2-0.1,0.3-0.3,0.3
			h-0.4c-0.2,0-0.3-0.1-0.3-0.3V43.9z"/>
		<path class="st0" d="M104.5,46.6c1.6,0,2.7,1.2,2.7,2.7c0,0.1,0,0.3,0,0.4c0,0.2-0.1,0.3-0.3,0.3h-4.4c0,1,0.9,2.1,2,2.1
			c0.8,0,1.3-0.3,1.6-0.5c0.2-0.1,0.3-0.2,0.5,0l0.2,0.2c0.1,0.2,0.2,0.2-0.1,0.4c-0.4,0.3-1.2,0.7-2.2,0.7c-1.8,0-2.9-1.4-2.9-3.1
			C101.6,48.1,102.7,46.6,104.5,46.6z M106.2,49.2c0-0.9-0.7-1.7-1.8-1.7c-1,0-1.8,0.8-1.9,1.7H106.2z"/>
		<path class="st0" d="M108.3,47.6c-0.2,0-0.3-0.1-0.3-0.3V47c0-0.2,0.1-0.3,0.3-0.3h0.8v-1.7c0-0.2,0.1-0.3,0.3-0.3l0.4,0
			c0.2,0,0.3,0.1,0.3,0.3v1.7h1.8c0.2,0,0.3,0.1,0.3,0.3v0.3c0,0.2-0.1,0.3-0.3,0.3H110v3.5c0,0.6,0.4,0.9,0.8,0.9
			c0.4,0,0.7-0.1,0.9-0.3c0.2-0.1,0.3,0,0.4,0.1l0.1,0.3c0.1,0.2,0.1,0.3-0.1,0.4c-0.3,0.2-0.8,0.4-1.4,0.4c-1.1,0-1.7-0.8-1.7-1.8
			v-3.5H108.3z"/>
		<path class="st0" d="M113.4,52.2c-0.1-0.1-0.1-0.2,0-0.3l0.2-0.3c0.1-0.1,0.2-0.2,0.4-0.1c0.2,0.2,0.7,0.5,1.5,0.5
			c0.6,0,1-0.3,1-0.8c0-0.6-0.5-0.8-1.3-1.2c-0.8-0.4-1.7-0.8-1.7-1.8c0-0.6,0.5-1.6,1.9-1.6c0.8,0,1.4,0.3,1.7,0.5
			c0.1,0.1,0.2,0.2,0.1,0.4l-0.1,0.2c-0.1,0.2-0.3,0.2-0.4,0.1c-0.3-0.2-0.7-0.4-1.2-0.4c-0.7,0-0.9,0.4-0.9,0.7
			c0,0.5,0.4,0.7,1.1,1.1c1,0.5,1.9,0.9,1.9,2c0,0.9-0.8,1.7-2,1.7C114.4,52.9,113.7,52.5,113.4,52.2z"/>
	</g>
	<rect x="7" y="0" class="st1" width="18.4" height="18.4"/>
	<rect x="7" y="39.2" class="st2" width="18.4" height="18.4"/>
	<g>
		<g>
			<path class="st0" d="M246.2,4.1c1.3,0,2.3,0.5,3.1,1.2c0.1,0.1,0.1,0.3,0,0.4L249.1,6c-0.1,0.1-0.2,0.1-0.3,0
				c-0.7-0.6-1.5-1-2.5-1c-2.1,0-3.6,1.7-3.6,3.7c0,2,1.6,3.7,3.6,3.7c1.1,0,1.8-0.4,2.5-1c0.1-0.1,0.2-0.1,0.3,0l0.3,0.3
				c0.1,0.1,0.1,0.3,0,0.4c-0.9,0.8-1.9,1.3-3.1,1.3c-2.6,0-4.7-2.1-4.7-4.7S243.6,4.1,246.2,4.1z"/>
			<path class="st0" d="M251,4.5c0-0.1,0.1-0.3,0.3-0.3h0.4c0.1,0,0.3,0.1,0.3,0.3V13c0,0.2-0.1,0.3-0.3,0.3h-0.4
				c-0.2,0-0.3-0.1-0.3-0.3V4.5z"/>
			<path class="st0" d="M253.9,7.6c0-0.1,0.1-0.3,0.3-0.3h0.4c0.2,0,0.3,0.1,0.3,0.3v3.2c0,1.2,0.4,1.7,1.3,1.7
				c0.9,0,1.4-0.6,1.7-0.9V7.6c0-0.1,0.1-0.3,0.3-0.3h0.4c0.1,0,0.3,0.1,0.3,0.3v5.5c0,0.1-0.1,0.2-0.2,0.2c-0.4,0-0.6-0.3-0.6-0.7
				c-0.4,0.4-0.9,0.8-1.9,0.8c-1.7,0-2.1-1-2.1-2.6V7.6z"/>
			<path class="st0" d="M260.7,4.5c0-0.1,0.1-0.3,0.3-0.3h0.4c0.1,0,0.3,0.1,0.3,0.3v3.1c0,0,0.7-0.4,1.7-0.4c1.8,0,2.8,1.4,2.8,3.1
				c0,1.7-1.2,3.2-2.7,3.2c-0.9,0-1.5-0.4-1.9-0.8c0,0.4-0.2,0.7-0.6,0.7c-0.1,0-0.2-0.1-0.2-0.2V4.5z M261.7,11.6c0,0,0.6,1,1.7,1
				c1.1,0,1.8-1.1,1.8-2.3c0-1.2-0.7-2.3-2-2.3c-0.8,0-1.5,0.4-1.5,0.4V11.6z"/>
			<path class="st0" d="M267.4,12.7c-0.1-0.1-0.1-0.2,0-0.3l0.2-0.3c0.1-0.1,0.2-0.2,0.4-0.1c0.2,0.2,0.7,0.5,1.5,0.5
				c0.6,0,1-0.3,1-0.8c0-0.6-0.5-0.8-1.3-1.2c-0.8-0.4-1.7-0.8-1.7-1.8c0-0.6,0.5-1.6,1.9-1.6c0.8,0,1.4,0.3,1.7,0.5
				c0.1,0.1,0.2,0.2,0.1,0.4l-0.1,0.2c-0.1,0.2-0.3,0.2-0.4,0.1c-0.3-0.2-0.7-0.4-1.2-0.4c-0.7,0-0.9,0.4-0.9,0.7
				c0,0.5,0.4,0.7,1.1,1.1c1,0.5,1.9,0.9,1.9,2c0,0.9-0.8,1.7-2,1.7C268.4,13.5,267.8,13,267.4,12.7z"/>
		</g>
	</g>
	<g>
		<path class="st0" d="M241.6,51.4l0.2-0.2c0.1-0.2,0.2-0.2,0.4-0.1c0.1,0.1,1.1,0.9,2.2,0.9c1.1,0,1.7-0.7,1.7-1.5
			c0-0.9-0.8-1.4-2.3-2.1c-1.4-0.6-2.3-1.2-2.3-2.6c0-0.9,0.7-2.3,2.8-2.3c1.3,0,2.2,0.7,2.2,0.7c0.1,0,0.2,0.2,0.1,0.4l-0.1,0.2
			c-0.1,0.2-0.2,0.2-0.5,0.1c-0.5-0.3-1-0.5-1.7-0.5c-1.4,0-1.8,0.9-1.8,1.4c0,0.9,0.7,1.3,1.8,1.8c1.8,0.7,2.9,1.4,2.9,2.9
			c0,1.4-1.3,2.4-2.8,2.4c-1.5,0-2.6-0.9-2.7-1.1C241.6,51.7,241.4,51.6,241.6,51.4z"/>
		<path class="st0" d="M248.8,47c0-0.1,0.1-0.3,0.3-0.3h0.4c0.2,0,0.3,0.1,0.3,0.3v3.2c0,1.2,0.4,1.7,1.3,1.7c0.9,0,1.4-0.6,1.7-0.9
			V47c0-0.1,0.1-0.3,0.3-0.3h0.4c0.1,0,0.3,0.1,0.3,0.3v5.5c0,0.1-0.1,0.2-0.2,0.2c-0.4,0-0.6-0.3-0.6-0.7c-0.4,0.4-0.9,0.8-1.9,0.8
			c-1.7,0-2.1-1-2.1-2.6V47z"/>
		<path class="st0" d="M256.6,55.6c0,0.2-0.1,0.3-0.3,0.3h-0.4c-0.2,0-0.3-0.1-0.3-0.3v-8.6c0-0.1,0.1-0.2,0.2-0.2
			c0.3,0,0.5,0.2,0.6,0.5c0.4-0.3,1-0.6,1.8-0.6c1.6,0,2.8,1.4,2.8,3.1c0,1.8-1.2,3.1-2.8,3.1c-1,0-1.7-0.5-1.7-0.5V55.6z
			 M256.6,51.5c0,0,0.7,0.5,1.5,0.5c1.2,0,2-1,2-2.3c0-1.2-0.7-2.2-1.9-2.2c-1,0-1.6,0.7-1.6,0.7V51.5z"/>
		<path class="st0" d="M265.3,46.6c1.6,0,2.7,1.2,2.7,2.7c0,0.1,0,0.3,0,0.4c0,0.2-0.1,0.3-0.3,0.3h-4.4c0,1,0.9,2.1,2,2.1
			c0.8,0,1.3-0.3,1.6-0.5c0.2-0.1,0.3-0.2,0.5,0l0.2,0.2c0.1,0.2,0.2,0.2-0.1,0.4c-0.4,0.3-1.2,0.7-2.2,0.7c-1.8,0-2.9-1.4-2.9-3.1
			C262.4,48.1,263.4,46.6,265.3,46.6z M267,49.2c0-0.9-0.7-1.7-1.8-1.7c-1,0-1.8,0.8-1.9,1.7H267z"/>
		<path class="st0" d="M269.5,46.9c0-0.1,0.1-0.2,0.2-0.2c0.4,0,0.6,0.3,0.6,0.7c0.3-0.3,0.9-0.8,1.8-0.8c0.5,0,1.2,0.1,1.1,0.5
			l-0.2,0.5c-0.1,0.2-0.2,0.2-0.4,0.1c-0.1-0.1-0.4-0.2-0.6-0.2c-1.2,0-1.6,0.8-1.6,0.8v4.2c0,0.2-0.1,0.3-0.3,0.3h-0.4
			c-0.2,0-0.3-0.1-0.3-0.3V46.9z"/>
		<path class="st0" d="M274.6,46.9c0-0.1,0.1-0.2,0.2-0.2c0.4,0,0.6,0.3,0.6,0.7c0.4-0.4,1-0.8,1.9-0.8c0.9,0,1.4,0.3,1.8,0.9
			c0.1-0.1,0.9-0.9,2.1-0.9c1.7,0,2.2,1.1,2.2,2.7v3.2c0,0.2-0.1,0.3-0.3,0.3h-0.4c-0.2,0-0.3-0.1-0.3-0.3v-3.2
			c0-1.1-0.4-1.8-1.3-1.8c-1,0-1.5,0.6-1.7,0.8c0.1,0.3,0.1,0.7,0.1,1v3.2c0,0.2-0.1,0.3-0.3,0.3h-0.4c-0.1,0-0.3-0.1-0.3-0.3v-3.2
			c0-1.1-0.4-1.8-1.4-1.8c-1.1,0-1.6,0.8-1.6,0.8v4.1c0,0.2-0.1,0.3-0.3,0.3h-0.4c-0.2,0-0.3-0.1-0.3-0.3V46.9z"/>
		<path class="st0" d="M287.3,48.9c0.6,0,1.3,0.2,1.3,0.2c0-1.1-0.5-1.7-1.4-1.7c-0.7,0-1.1,0.3-1.4,0.4c-0.2,0.1-0.2,0-0.3-0.2
			l-0.1-0.4c-0.1-0.2,0-0.3,0.2-0.3c0.3-0.1,0.8-0.4,1.7-0.4c1.5,0,2.2,0.9,2.2,2.5v3.4c0,0.1-0.1,0.2-0.2,0.2
			c-0.4,0-0.6-0.3-0.6-0.7c-0.3,0.3-0.9,0.8-1.9,0.8c-1.1,0-1.9-0.8-1.9-2C284.8,49.8,285.7,48.9,287.3,48.9z M286.9,52
			c0.7,0,1.4-0.4,1.7-0.8V50c-0.2-0.1-0.7-0.2-1.3-0.2c-0.8,0-1.5,0.4-1.5,1.2C285.8,51.5,286.2,52,286.9,52z"/>
		<path class="st0" d="M291.4,46.9c0-0.1,0.1-0.2,0.2-0.2c0.4,0,0.6,0.3,0.6,0.7c0.3-0.3,0.9-0.8,1.8-0.8c0.5,0,1.2,0.1,1.1,0.5
			l-0.2,0.5c-0.1,0.2-0.2,0.2-0.4,0.1c-0.1-0.1-0.4-0.2-0.7-0.2c-1.2,0-1.6,0.8-1.6,0.8v4.2c0,0.2-0.1,0.3-0.3,0.3h-0.4
			c-0.2,0-0.3-0.1-0.3-0.3V46.9z"/>
		<path class="st0" d="M296.4,43.9c0-0.1,0.1-0.3,0.3-0.3h0.4c0.1,0,0.3,0.1,0.3,0.3V49l2.5-2.1c0.1-0.1,0.2-0.2,0.4-0.2h0.7
			c0.3,0,0.2,0.3,0.1,0.4l-2.8,2.3l3,3c0.1,0.1,0.1,0.4-0.2,0.4h-0.7c-0.1,0-0.2-0.1-0.3-0.1l-2.7-2.9v2.7c0,0.2-0.1,0.3-0.3,0.3
			h-0.4c-0.2,0-0.3-0.1-0.3-0.3V43.9z"/>
		<path class="st0" d="M304.9,46.6c1.6,0,2.7,1.2,2.7,2.7c0,0.1,0,0.3,0,0.4c0,0.2-0.1,0.3-0.3,0.3H303c0,1,0.9,2.1,2,2.1
			c0.8,0,1.3-0.3,1.6-0.5c0.2-0.1,0.3-0.2,0.5,0l0.2,0.2c0.1,0.2,0.2,0.2-0.1,0.4c-0.4,0.3-1.2,0.7-2.2,0.7c-1.8,0-2.9-1.4-2.9-3.1
			C302,48.1,303.1,46.6,304.9,46.6z M306.7,49.2c0-0.9-0.7-1.7-1.8-1.7c-1,0-1.8,0.8-1.9,1.7H306.7z"/>
		<path class="st0" d="M308.7,47.6c-0.2,0-0.3-0.1-0.3-0.3V47c0-0.2,0.1-0.3,0.3-0.3h0.8v-1.7c0-0.2,0.1-0.3,0.3-0.3l0.4,0
			c0.2,0,0.3,0.1,0.3,0.3v1.7h1.8c0.2,0,0.3,0.1,0.3,0.3v0.3c0,0.2-0.1,0.3-0.3,0.3h-1.8v3.5c0,0.6,0.4,0.9,0.8,0.9
			c0.4,0,0.7-0.1,0.9-0.3c0.2-0.1,0.3,0,0.4,0.1l0.1,0.3c0.1,0.2,0.1,0.3-0.1,0.4c-0.3,0.2-0.8,0.4-1.4,0.4c-1.1,0-1.7-0.8-1.7-1.8
			v-3.5H308.7z"/>
		<path class="st0" d="M313.9,52.2c-0.1-0.1-0.1-0.2,0-0.3l0.2-0.3c0.1-0.1,0.2-0.2,0.4-0.1c0.2,0.2,0.7,0.5,1.5,0.5
			c0.6,0,1-0.3,1-0.8c0-0.6-0.5-0.8-1.3-1.2c-0.8-0.4-1.7-0.8-1.7-1.8c0-0.6,0.5-1.6,1.9-1.6c0.8,0,1.4,0.3,1.7,0.5
			c0.1,0.1,0.2,0.2,0.1,0.4l-0.1,0.2c-0.1,0.2-0.3,0.2-0.4,0.1c-0.3-0.2-0.7-0.4-1.2-0.4c-0.7,0-0.9,0.4-0.9,0.7
			c0,0.5,0.4,0.7,1.1,1.1c1,0.5,1.9,0.9,1.9,2c0,0.9-0.8,1.7-2,1.7C314.9,52.9,314.2,52.5,313.9,52.2z"/>
	</g>
	<rect x="209.9" y="0" class="st3" width="18.4" height="18.4"/>
	<rect x="209.9" y="39.2" class="st4" width="18.4" height="18.4"/>
	<rect y="380.1" class="st3" width="35" height="35"/>
	<rect x="36.7" y="416.9" class="st3" width="35" height="35"/>
	<rect x="73.5" y="416.9" class="st3" width="35" height="35"/>
	<rect x="110.2" y="416.9" class="st3" width="35" height="35"/>
	<rect x="146.9" y="416.9" class="st4" width="35" height="35"/>
	<rect x="183.6" y="416.9" class="st4" width="35" height="35"/>
	<rect x="220.4" y="416.9" class="st4" width="35" height="35"/>
	<rect x="257.1" y="416.9" class="st4" width="35" height="35"/>
	<rect x="330.6" y="416.9" class="st4" width="35" height="35"/>
	<rect x="293.8" y="416.9" class="st4" width="35" height="35"/>
	<rect y="416.9" class="st3" width="35" height="35"/>
	<rect x="36.7" y="380.1" class="st3" width="35" height="35"/>
	<rect x="73.5" y="380.1" class="st3" width="35" height="35"/>
	<rect x="110.2" y="380.1" class="st3" width="35" height="35"/>
	<rect x="146.9" y="380.1" class="st3" width="35" height="35"/>
	<rect x="183.6" y="380.1" class="st3" width="35" height="35"/>
	<rect x="220.4" y="380.1" class="st3" width="35" height="35"/>
	<rect x="257.1" y="380.1" class="st3" width="35" height="35"/>
	<rect x="330.6" y="380.1" class="st3" width="35" height="35"/>
	<rect x="293.8" y="380.1" class="st3" width="35" height="35"/>
	<rect y="343.4" class="st2" width="35" height="35"/>
	<rect x="36.7" y="343.4" class="st2" width="35" height="35"/>
	<rect x="73.5" y="343.4" class="st2" width="35" height="35"/>
	<rect x="110.2" y="343.4" class="st3" width="35" height="35"/>
	<rect x="146.9" y="343.4" class="st3" width="35" height="35"/>
	<rect x="183.6" y="343.4" class="st3" width="35" height="35"/>
	<rect x="220.4" y="343.4" class="st3" width="35" height="35"/>
	<rect x="257.1" y="343.4" class="st3" width="35" height="35"/>
	<rect x="330.6" y="343.4" class="st3" width="35" height="35"/>
	<rect x="293.8" y="343.4" class="st3" width="35" height="35"/>
	<rect y="306.7" class="st2" width="35" height="35"/>
	<rect x="36.7" y="306.7" class="st2" width="35" height="35"/>
	<rect x="73.5" y="306.7" class="st2" width="35" height="35"/>
	<rect x="110.2" y="306.7" class="st2" width="35" height="35"/>
	<rect x="146.9" y="306.7" class="st2" width="35" height="35"/>
	<rect x="183.6" y="306.7" class="st2" width="35" height="35"/>
	<rect x="220.4" y="306.7" class="st2" width="35" height="35"/>
	<rect x="257.1" y="306.7" class="st2" width="35" height="35"/>
	<rect x="293.8" y="306.7" class="st2" width="35" height="35"/>
	<rect x="330.6" y="306.7" class="st2" width="35" height="35"/>
	<rect y="270" class="st2" width="35" height="35"/>
	<rect x="36.7" y="270" class="st2" width="35" height="35"/>
	<rect x="73.5" y="270" class="st2" width="35" height="35"/>
	<rect x="110.2" y="270" class="st2" width="35" height="35"/>
	<rect x="146.9" y="270" class="st2" width="35" height="35"/>
	<rect x="183.6" y="270" class="st2" width="35" height="35"/>
	<rect x="220.4" y="270" class="st2" width="35" height="35"/>
	<rect x="257.1" y="270" class="st2" width="35" height="35"/>
	<rect x="293.8" y="270" class="st2" width="35" height="35"/>
	<rect x="330.6" y="270" class="st2" width="35" height="35"/>
	<rect y="233.2" class="st1" width="35" height="35"/>
	<rect x="36.7" y="233.2" class="st1" width="35" height="35"/>
	<rect x="73.5" y="233.2" class="st1" width="35" height="35"/>
	<rect x="110.2" y="233.2" class="st1" width="35" height="35"/>
	<rect x="146.9" y="233.2" class="st1" width="35" height="35"/>
	<rect x="183.6" y="233.2" class="st2" width="35" height="35"/>
	<rect x="220.4" y="233.2" class="st2" width="35" height="35"/>
	<rect x="257.1" y="233.2" class="st2" width="35" height="35"/>
	<rect x="293.8" y="233.2" class="st2" width="35" height="35"/>
	<rect x="330.6" y="233.2" class="st2" width="35" height="35"/>
	<rect y="196.5" class="st1" width="35" height="35"/>
	<rect x="36.7" y="196.5" class="st1" width="35" height="35"/>
	<rect x="73.5" y="196.5" class="st1" width="35" height="35"/>
	<rect x="110.2" y="196.5" class="st1" width="35" height="35"/>
	<rect x="146.9" y="196.5" class="st1" width="35" height="35"/>
	<rect x="183.6" y="196.5" class="st1" width="35" height="35"/>
	<rect x="220.4" y="196.5" class="st1" width="35" height="35"/>
	<rect x="257.1" y="196.5" class="st1" width="35" height="35"/>
	<rect x="293.8" y="196.5" class="st1" width="35" height="35"/>
	<rect x="330.6" y="196.5" class="st1" width="35" height="35"/>
	<rect y="159.8" class="st1" width="35" height="35"/>
	<rect x="36.7" y="159.8" class="st1" width="35" height="35"/>
	<rect x="73.5" y="159.8" class="st1" width="35" height="35"/>
	<rect x="110.2" y="159.8" class="st1" width="35" height="35"/>
	<rect x="146.9" y="159.8" class="st1" width="35" height="35"/>
	<rect x="183.6" y="159.8" class="st1" width="35" height="35"/>
	<rect x="220.4" y="159.8" class="st1" width="35" height="35"/>
	<rect x="257.1" y="159.8" class="st1" width="35" height="35"/>
	<rect x="293.8" y="159.8" class="st1" width="35" height="35"/>
	<rect x="330.6" y="159.8" class="st1" width="35" height="35"/>
	<rect y="123" class="st1" width="35" height="35"/>
	<rect x="36.7" y="123" class="st1" width="35" height="35"/>
	<rect x="73.5" y="123" class="st1" width="35" height="35"/>
	<rect x="110.2" y="123" class="st1" width="35" height="35"/>
	<rect x="146.9" y="123" class="st1" width="35" height="35"/>
	<rect x="183.6" y="123" class="st1" width="35" height="35"/>
	<rect x="220.4" y="123" class="st1" width="35" height="35"/>
	<rect x="257.1" y="123" class="st1" width="35" height="35"/>
	<rect x="293.8" y="123" class="st1" width="35" height="35"/>
	<rect x="330.6" y="123" class="st1" width="35" height="35"/>
	<rect y="86.3" class="st1" width="35" height="35"/>
	<rect x="36.7" y="86.3" class="st1" width="35" height="35"/>
	<rect x="73.5" y="86.3" class="st1" width="35" height="35"/>
	<rect x="110.2" y="86.3" class="st1" width="35" height="35"/>
	<rect x="146.9" y="86.3" class="st1" width="35" height="35"/>
	<rect x="183.6" y="86.3" class="st1" width="35" height="35"/>
	<rect x="220.4" y="86.3" class="st1" width="35" height="35"/>
	<rect x="257.1" y="86.3" class="st1" width="35" height="35"/>
	<rect x="293.8" y="86.3" class="st1" width="35" height="35"/>
	<rect x="330.6" y="86.3" class="st1" width="35" height="35"/>
	<g>
		<path class="st5" d="M377.6,101.3v-2.9H372v-2.3l4.5-7.8h4.5v7.4h1.4v2.7H381v2.9H377.6z M377.6,95.7v-2.2c0-0.8,0.1-1.7,0.1-2.6
			h-0.1c-0.4,0.9-0.8,1.7-1.3,2.6l-1.1,2.2l0,0H377.6z M392.8,91.3h-5.1l-0.2,1.4c0.3,0,0.5,0,0.8,0c1.3,0,2.7,0.3,3.7,1
			c1,0.7,1.5,1.8,1.5,3.2c0,2.4-2.1,4.6-5.9,4.6c-1.6,0-3-0.3-3.8-0.7l0.6-2.7c0.6,0.3,1.8,0.6,3,0.6c1.1,0,2.4-0.4,2.4-1.6
			c0-1.2-1-1.9-3.6-1.9c-0.7,0-1.2,0-1.7,0.1l0.8-7.1h7.6V91.3z M402.5,91.9c0,2.7-1.9,4.2-3.8,4.2c-2.1,0-3.8-1.6-3.8-3.9
			c0-2.2,1.4-4.1,3.8-4.1S402.5,89.8,402.5,91.9z M397.5,92.1c0,1.2,0.4,2.1,1.2,2.1c0.7,0,1.1-0.7,1.1-2.1c0-1.2-0.3-2.1-1.1-2.1
			C397.9,90,397.5,90.9,397.5,92.1z M398.9,101.5l7.4-13.4h1.9l-7.4,13.4H398.9z M412.2,97.4c0,2.7-1.9,4.2-3.8,4.2
			c-2.1,0-3.8-1.6-3.8-3.9c0-2.2,1.4-4.1,3.8-4.1C410.9,93.5,412.2,95.2,412.2,97.4z M407.3,97.5c0,1.2,0.4,2.1,1.2,2.1
			c0.7,0,1.1-0.7,1.1-2.1c0-1.2-0.3-2.1-1.1-2.1C407.6,95.4,407.3,96.3,407.3,97.5z"/>
		<path class="st6" d="M372.3,360.6v-2.2l1.8-1.6c2.6-2.3,4-3.6,4-5c0-0.9-0.6-1.6-1.9-1.6c-1.1,0-2.1,0.5-2.8,1.1l-1-2.6
			c1-0.7,2.6-1.4,4.5-1.4c3,0,4.8,1.6,4.8,4.2c0,2.1-1.5,3.8-3,5l-1.3,1v0h4.5v3H372.3z M387.6,350.7L387.6,350.7l-2.6,1.2l-0.6-2.7
			l3.7-1.6h3v13h-3.5V350.7z M402.5,351.2c0,2.7-1.9,4.2-3.8,4.2c-2.1,0-3.8-1.6-3.8-3.9c0-2.2,1.4-4.1,3.8-4.1
			S402.5,349.1,402.5,351.2z M397.5,351.4c0,1.2,0.4,2.1,1.2,2.1c0.7,0,1.1-0.7,1.1-2.1c0-1.2-0.3-2.1-1.1-2.1
			C397.9,349.3,397.5,350.2,397.5,351.4z M398.9,360.8l7.4-13.4h1.9l-7.4,13.4H398.9z M412.2,356.6c0,2.7-1.9,4.2-3.8,4.2
			c-2.1,0-3.8-1.6-3.8-3.9c0-2.2,1.4-4.1,3.8-4.1C410.9,352.7,412.2,354.5,412.2,356.6z M407.3,356.8c0,1.2,0.4,2.1,1.2,2.1
			c0.7,0,1.1-0.7,1.1-2.1c0-1.2-0.3-2.1-1.1-2.1C407.6,354.7,407.3,355.6,407.3,356.8z"/>
		<path class="st4" d="M392.4,430.9c-0.3,0-0.7,0-1.1,0c-2.7,0.1-3.8,1.2-4.1,2.5h0.1c0.7-0.6,1.5-0.8,2.6-0.8
			c2.1,0,4.1,1.5,4.1,4.3c0,2.7-2.1,4.7-5,4.7c-3.8,0-5.4-2.8-5.4-5.7c0-2.4,0.9-4.5,2.4-5.8c1.4-1.2,3.2-1.9,5.4-1.9
			c0.6,0,0.9,0,1.2,0V430.9z M390.2,437c0-0.9-0.4-1.9-1.6-1.9c-0.7,0-1.3,0.4-1.5,1c-0.1,0.2-0.1,0.4-0.1,0.8
			c0.1,1,0.6,2.1,1.8,2.1C389.7,438.9,390.2,438.1,390.2,437z M402.5,431.9c0,2.7-1.9,4.2-3.8,4.2c-2.1,0-3.8-1.6-3.8-3.9
			c0-2.2,1.4-4.1,3.8-4.1S402.5,429.8,402.5,431.9z M397.5,432.1c0,1.2,0.4,2.1,1.2,2.1c0.7,0,1.1-0.7,1.1-2.1
			c0-1.2-0.3-2.1-1.1-2.1C397.9,430,397.5,430.9,397.5,432.1z M398.9,441.5l7.4-13.4h1.9l-7.4,13.4H398.9z M412.2,437.4
			c0,2.7-1.9,4.2-3.8,4.2c-2.1,0-3.8-1.6-3.8-3.9c0-2.2,1.4-4.1,3.8-4.1S412.2,435.2,412.2,437.4z M407.3,437.5
			c0,1.2,0.4,2.1,1.2,2.1c0.7,0,1.1-0.7,1.1-2.1c0-1.2-0.3-2.1-1.1-2.1C407.6,435.4,407.3,436.3,407.3,437.5z"/>
		<path class="st7" d="M372.3,252.3v-2.2l1.8-1.6c2.6-2.3,4-3.6,4-5c0-0.9-0.6-1.6-1.9-1.6c-1.1,0-2.1,0.5-2.8,1.1l-1-2.6
			c1-0.7,2.6-1.4,4.5-1.4c3,0,4.8,1.6,4.8,4.2c0,2.1-1.5,3.8-3,5l-1.3,1v0h4.5v3H372.3z M383.5,248.9c0-1.6,0.9-2.6,2.2-3.2v0
			c-1.2-0.6-1.8-1.7-1.8-2.8c0-2.3,2.1-3.7,4.8-3.7c3.3,0,4.5,1.8,4.5,3.4c0,1.1-0.6,2.2-1.8,2.8v0c1.1,0.4,2.3,1.5,2.3,3.2
			c0,2.4-2,4-5.3,4C385,252.5,383.5,250.6,383.5,248.9z M390.1,248.8c0-0.9-0.8-1.6-1.7-1.8c-0.8,0.2-1.2,0.8-1.2,1.6
			c0,0.8,0.6,1.6,1.5,1.6C389.5,250.1,390.1,249.5,390.1,248.8z M387.3,242.7c0,0.7,0.7,1.2,1.6,1.5c0.5-0.1,1-0.7,1-1.4
			c0-0.7-0.4-1.4-1.3-1.4C387.7,241.5,387.3,242.1,387.3,242.7z M402.5,242.9c0,2.7-1.9,4.2-3.8,4.2c-2.1,0-3.8-1.6-3.8-3.9
			c0-2.2,1.4-4.1,3.8-4.1S402.5,240.8,402.5,242.9z M397.5,243.1c0,1.2,0.4,2.1,1.2,2.1c0.7,0,1.1-0.7,1.1-2.1
			c0-1.2-0.3-2.1-1.1-2.1C397.9,241,397.5,241.9,397.5,243.1z M398.9,252.5l7.4-13.4h1.9l-7.4,13.4H398.9z M412.2,248.4
			c0,2.7-1.9,4.2-3.8,4.2c-2.1,0-3.8-1.6-3.8-3.9c0-2.2,1.4-4.1,3.8-4.1C410.9,244.5,412.2,246.2,412.2,248.4z M407.3,248.5
			c0,1.2,0.4,2.1,1.2,2.1c0.7,0,1.1-0.7,1.1-2.1c0-1.2-0.3-2.1-1.1-2.1C407.6,246.4,407.3,247.3,407.3,248.5z"/>
	</g>
</g>
</svg>
