<?xml version="1.0" encoding="utf-8"?>
<!-- Generator: Adobe Illustrator 26.0.3, SVG Export Plug-In . SVG Version: 6.00 Build 0)  -->
<svg version="1.1" id="Capa_1" xmlns="http://www.w3.org/2000/svg" xmlns:xlink="http://www.w3.org/1999/xlink" x="0px" y="0px"
	 viewBox="0 0 309.6 321.6" style="enable-background:new 0 0 309.6 321.6;" xml:space="preserve">
<style type="text/css">
	.st0{fill:#4A5B6D;}
	.st1{fill:#7AC143;}
	.st2{fill:#FDB71A;}
	.st3{fill:#263B80;}
	.st4{fill:#007DC3;}
	.st5{fill:#FFFFFF;}
</style>
<g>
	<g>
		<path class="st0" d="M34.8,6.7c0-0.1,0.1-0.2,0.2-0.2h3.4c1.6,0,2.8,1.2,2.8,2.8c0,1.2-0.8,2.2-1.9,2.7l1.8,3.3
			c0.1,0.2,0,0.4-0.2,0.4h-0.6c-0.2,0-0.2-0.1-0.3-0.2L38.3,12h-2.5v3.3c0,0.1-0.1,0.2-0.2,0.2h-0.5c-0.1,0-0.2-0.1-0.2-0.2V6.7z
			 M38.4,11.1c1,0,1.9-0.8,1.9-1.9c0-1-0.9-1.8-1.9-1.8h-2.5v3.7H38.4z"/>
		<path class="st0" d="M45.4,9.4c1.6,0,2.7,1.2,2.7,2.7c0,0.1,0,0.3,0,0.4c0,0.2-0.1,0.3-0.3,0.3h-4.4c0,1,0.9,2.1,2,2.1
			c0.8,0,1.3-0.3,1.6-0.5c0.2-0.1,0.3-0.2,0.5,0l0.2,0.2c0.1,0.2,0.2,0.2-0.1,0.4c-0.4,0.3-1.2,0.7-2.2,0.7c-1.8,0-2.9-1.4-2.9-3.1
			C42.5,10.8,43.6,9.4,45.4,9.4z M47.2,12c0-0.9-0.7-1.7-1.8-1.7c-1,0-1.8,0.8-1.9,1.7H47.2z"/>
		<path class="st0" d="M49.7,9.7c0-0.1,0.1-0.2,0.2-0.2c0.4,0,0.6,0.3,0.6,0.7c0.4-0.4,1-0.8,1.9-0.8c0.9,0,1.4,0.3,1.8,0.9
			c0.1-0.1,0.9-0.9,2.1-0.9c1.7,0,2.2,1.1,2.2,2.7v3.2c0,0.2-0.1,0.3-0.3,0.3h-0.4c-0.2,0-0.3-0.1-0.3-0.3v-3.2
			c0-1.1-0.4-1.8-1.3-1.8c-1,0-1.5,0.6-1.7,0.8c0.1,0.3,0.1,0.7,0.1,1v3.2c0,0.2-0.1,0.3-0.3,0.3h-0.4c-0.1,0-0.3-0.1-0.3-0.3v-3.2
			c0-1.1-0.4-1.8-1.4-1.8c-1.1,0-1.6,0.8-1.6,0.8v4.1c0,0.2-0.1,0.3-0.3,0.3H50c-0.2,0-0.3-0.1-0.3-0.3V9.7z"/>
		<path class="st0" d="M63.1,9.4c1.7,0,3,1.4,3,3.1c0,1.7-1.4,3.2-3,3.2c-1.7,0-3-1.4-3-3.2C60,10.8,61.4,9.4,63.1,9.4z M63.1,14.8
			c1.2,0,2.1-1,2.1-2.3c0-1.2-0.9-2.2-2.1-2.2c-1.2,0-2.1,1-2.1,2.2C61,13.8,61.9,14.8,63.1,14.8z"/>
		<path class="st0" d="M70.2,9.4c1,0,1.7,0.4,1.7,0.4V6.7c0-0.1,0.1-0.3,0.3-0.3h0.4c0.2,0,0.3,0.1,0.3,0.3v8.6
			c0,0.1-0.1,0.2-0.2,0.2c-0.4,0-0.6-0.3-0.6-0.7c-0.4,0.4-1.1,0.8-1.9,0.8c-1.5,0-2.7-1.4-2.7-3.2C67.3,10.8,68.4,9.4,70.2,9.4z
			 M70.2,14.8c1.1,0,1.7-1,1.7-1v-3.2c0,0-0.7-0.3-1.5-0.3c-1.3,0-2,1.1-2,2.3C68.3,13.7,69.1,14.8,70.2,14.8z"/>
		<path class="st0" d="M77.4,9.4c1.6,0,2.7,1.2,2.7,2.7c0,0.1,0,0.3,0,0.4c0,0.2-0.1,0.3-0.3,0.3h-4.4c0,1,0.9,2.1,2,2.1
			c0.8,0,1.3-0.3,1.6-0.5c0.2-0.1,0.3-0.2,0.5,0l0.2,0.2c0.1,0.2,0.2,0.2-0.1,0.4c-0.4,0.3-1.2,0.7-2.2,0.7c-1.8,0-2.9-1.4-2.9-3.1
			C74.4,10.8,75.5,9.4,77.4,9.4z M79.1,12c0-0.9-0.7-1.7-1.8-1.7c-1,0-1.8,0.8-1.9,1.7H79.1z"/>
		<path class="st0" d="M81.7,6.7c0-0.1,0.1-0.3,0.3-0.3h0.4c0.1,0,0.3,0.1,0.3,0.3v8.5c0,0.2-0.1,0.3-0.3,0.3H82
			c-0.2,0-0.3-0.1-0.3-0.3V6.7z"/>
		<path class="st0" d="M84.4,7.3c0-0.4,0.3-0.7,0.7-0.7c0.4,0,0.7,0.3,0.7,0.7c0,0.4-0.3,0.7-0.7,0.7C84.7,8,84.4,7.7,84.4,7.3z
			 M84.6,9.8c0-0.1,0.1-0.3,0.3-0.3h0.4c0.1,0,0.3,0.1,0.3,0.3v5.4c0,0.2-0.1,0.3-0.3,0.3h-0.4c-0.2,0-0.3-0.1-0.3-0.3V9.8z"/>
		<path class="st0" d="M87.6,9.7c0-0.1,0.1-0.2,0.2-0.2c0.4,0,0.6,0.3,0.6,0.7c0.4-0.3,1.1-0.8,2-0.8c1.7,0,2.2,1.1,2.2,2.7v3.2
			c0,0.2-0.1,0.3-0.3,0.3h-0.4c-0.2,0-0.3-0.1-0.3-0.3V12c0-1.1-0.4-1.7-1.3-1.7c-1.1,0-1.8,0.8-1.8,0.8v4.1c0,0.2-0.1,0.3-0.3,0.3
			h-0.4c-0.2,0-0.3-0.1-0.3-0.3V9.7z"/>
		<path class="st0" d="M99.7,15.6c0,2.1-1.3,2.8-2.6,2.8c-0.9,0-1.8-0.5-2.1-0.8c-0.1-0.1-0.1-0.3-0.1-0.4l0.3-0.4
			c0.1-0.1,0.2-0.1,0.4,0c0.3,0.3,0.8,0.6,1.5,0.6c0.9,0,1.7-0.5,1.7-1.9v-0.4c0,0-0.7,0.5-1.7,0.5c-1.7,0-2.8-1.4-2.8-3.1
			c0-1.7,1.2-3.1,2.8-3.1c0.8,0,1.4,0.3,1.8,0.6c0.1-0.3,0.3-0.5,0.6-0.5c0.1,0,0.2,0.1,0.2,0.2V15.6z M97.2,14.8
			c0.8,0,1.5-0.5,1.5-0.5V11c0,0-0.6-0.7-1.6-0.7c-1.2,0-1.9,1.1-1.9,2.2C95.2,13.8,96,14.8,97.2,14.8z"/>
	</g>
	<g>
		<path class="st0" d="M34.8,35c0-0.1,0.1-0.2,0.2-0.2h0.2c0.1,0,0.2,0,0.2,0.1l5.8,7.2c0,0,0,0,0,0v-6.9c0-0.1,0.1-0.2,0.2-0.2H42
			c0.1,0,0.2,0.1,0.2,0.2v8.8c0,0.1-0.1,0.2-0.2,0.2h-0.1c-0.1,0-0.2,0-0.2-0.1l-5.9-7.3h0v7.1c0,0.1-0.1,0.2-0.2,0.2h-0.5
			c-0.1,0-0.2-0.1-0.2-0.2V35z"/>
		<path class="st0" d="M47,37.8c1.6,0,2.7,1.2,2.7,2.7c0,0.1,0,0.3,0,0.4c0,0.2-0.1,0.3-0.3,0.3h-4.4c0,1,0.9,2.1,2,2.1
			c0.8,0,1.3-0.3,1.6-0.5c0.2-0.1,0.3-0.2,0.5,0l0.2,0.2c0.1,0.2,0.2,0.2-0.1,0.4c-0.4,0.3-1.2,0.7-2.2,0.7c-1.8,0-2.9-1.4-2.9-3.1
			C44.1,39.3,45.2,37.8,47,37.8z M48.8,40.4c0-0.9-0.7-1.7-1.8-1.7c-1,0-1.8,0.8-1.9,1.7H48.8z"/>
		<path class="st0" d="M54.7,39.5L53,44c0,0.1-0.1,0.2-0.2,0.2h-0.1c-0.1,0-0.2-0.1-0.3-0.2l-1.7-5.7c-0.1-0.2,0-0.3,0.2-0.3h0.4
			c0.1,0,0.2,0.1,0.3,0.2l1.1,4.1h0l1.7-4.2c0-0.1,0.1-0.1,0.3-0.1h0.1c0.1,0,0.2,0.1,0.2,0.1l1.7,4.3h0l1.1-4.1
			c0-0.1,0.1-0.2,0.2-0.2h0.5c0.2,0,0.3,0.1,0.2,0.3L57.1,44c0,0.1-0.1,0.2-0.2,0.2h-0.1c-0.1,0-0.2-0.1-0.3-0.2L54.7,39.5
			L54.7,39.5z"/>
		<path class="st0" d="M63.1,43.4c-0.1-0.1-0.1-0.2,0-0.3l0.2-0.3c0.1-0.1,0.2-0.2,0.4-0.1c0.2,0.2,0.7,0.5,1.5,0.5
			c0.6,0,1-0.3,1-0.8c0-0.6-0.5-0.8-1.3-1.2c-0.8-0.4-1.7-0.8-1.7-1.8c0-0.6,0.5-1.6,1.9-1.6c0.8,0,1.4,0.3,1.7,0.5
			c0.1,0.1,0.2,0.2,0.1,0.4L66.6,39c-0.1,0.2-0.3,0.2-0.4,0.1c-0.3-0.2-0.7-0.4-1.2-0.4c-0.7,0-0.9,0.4-0.9,0.7
			c0,0.5,0.4,0.7,1.1,1.1c1,0.5,1.9,0.9,1.9,2c0,0.9-0.8,1.7-2,1.7C64.1,44.1,63.4,43.7,63.1,43.4z"/>
		<path class="st0" d="M68.3,38.8c-0.2,0-0.3-0.1-0.3-0.3v-0.3c0-0.2,0.1-0.3,0.3-0.3h0.8v-1.7c0-0.2,0.1-0.3,0.3-0.3l0.4,0
			c0.2,0,0.3,0.1,0.3,0.3V38h1.8c0.2,0,0.3,0.1,0.3,0.3v0.3c0,0.2-0.1,0.3-0.3,0.3h-1.8v3.5c0,0.6,0.4,0.9,0.8,0.9
			c0.4,0,0.7-0.1,0.9-0.3c0.2-0.1,0.3,0,0.4,0.1l0.1,0.3c0.1,0.2,0.1,0.3-0.1,0.4c-0.3,0.2-0.8,0.4-1.4,0.4c-1.1,0-1.7-0.8-1.7-1.8
			v-3.5H68.3z"/>
		<path class="st0" d="M76.1,37.8c1.7,0,3,1.4,3,3.1c0,1.7-1.4,3.2-3,3.2s-3-1.4-3-3.2C73,39.3,74.4,37.8,76.1,37.8z M76.1,43.3
			c1.2,0,2.1-1,2.1-2.3c0-1.2-0.9-2.2-2.1-2.2S74,39.7,74,41C74,42.2,74.9,43.3,76.1,43.3z"/>
		<path class="st0" d="M80.7,38.2c0-0.1,0.1-0.2,0.2-0.2c0.4,0,0.6,0.3,0.6,0.7c0.3-0.3,0.9-0.8,1.8-0.8c0.5,0,1.2,0.1,1.1,0.5
			l-0.2,0.5c-0.1,0.2-0.2,0.2-0.4,0.1c-0.1-0.1-0.4-0.2-0.6-0.2c-1.2,0-1.6,0.8-1.6,0.8v4.2c0,0.2-0.1,0.3-0.3,0.3H81
			c-0.2,0-0.3-0.1-0.3-0.3V38.2z"/>
		<path class="st0" d="M88.1,37.8c1.6,0,2.7,1.2,2.7,2.7c0,0.1,0,0.3,0,0.4c0,0.2-0.1,0.3-0.3,0.3h-4.4c0,1,0.9,2.1,2,2.1
			c0.8,0,1.3-0.3,1.6-0.5c0.2-0.1,0.3-0.2,0.5,0l0.2,0.2c0.1,0.2,0.2,0.2-0.1,0.4c-0.4,0.3-1.2,0.7-2.2,0.7c-1.8,0-2.9-1.4-2.9-3.1
			C85.2,39.3,86.2,37.8,88.1,37.8z M89.8,40.4c0-0.9-0.7-1.7-1.8-1.7c-1,0-1.8,0.8-1.9,1.7H89.8z"/>
		<path class="st0" d="M92,43.4c-0.1-0.1-0.1-0.2,0-0.3l0.2-0.3c0.1-0.1,0.2-0.2,0.4-0.1c0.2,0.2,0.7,0.5,1.5,0.5c0.6,0,1-0.3,1-0.8
			c0-0.6-0.5-0.8-1.3-1.2c-0.8-0.4-1.7-0.8-1.7-1.8c0-0.6,0.5-1.6,1.9-1.6c0.8,0,1.4,0.3,1.7,0.5c0.1,0.1,0.2,0.2,0.1,0.4L95.5,39
			c-0.1,0.2-0.3,0.2-0.4,0.1c-0.3-0.2-0.7-0.4-1.2-0.4c-0.7,0-0.9,0.4-0.9,0.7c0,0.5,0.4,0.7,1.1,1.1c1,0.5,1.9,0.9,1.9,2
			c0,0.9-0.8,1.7-2,1.7C93,44.1,92.3,43.7,92,43.4z"/>
	</g>
	<rect x="2.6" y="2.2" class="st1" width="18.4" height="18.4"/>
	<rect x="2.6" y="30.4" class="st2" width="18.4" height="18.4"/>
	<g>
		<path class="st0" d="M157.2,6.7c0-0.1,0.1-0.2,0.2-0.2h0.5c0.1,0,0.2,0.1,0.2,0.2v8h3.7c0.1,0,0.2,0.1,0.2,0.2v0.4
			c0,0.1-0.1,0.2-0.2,0.2h-4.5c-0.1,0-0.2-0.1-0.2-0.2V6.7z"/>
		<path class="st0" d="M165.9,9.4c1.7,0,3,1.4,3,3.1c0,1.7-1.4,3.2-3,3.2s-3-1.4-3-3.2C162.9,10.8,164.2,9.4,165.9,9.4z M165.9,14.8
			c1.2,0,2.1-1,2.1-2.3c0-1.2-0.9-2.2-2.1-2.2c-1.2,0-2.1,1-2.1,2.2C163.8,13.8,164.7,14.8,165.9,14.8z"/>
		<path class="st0" d="M175.6,15.6c0,2.1-1.3,2.8-2.6,2.8c-0.9,0-1.8-0.5-2.1-0.8c-0.1-0.1-0.1-0.3-0.1-0.4l0.3-0.4
			c0.1-0.1,0.2-0.1,0.4,0c0.3,0.3,0.8,0.6,1.5,0.6c0.9,0,1.7-0.5,1.7-1.9v-0.4c0,0-0.7,0.5-1.7,0.5c-1.7,0-2.8-1.4-2.8-3.1
			c0-1.7,1.2-3.1,2.8-3.1c0.8,0,1.4,0.3,1.8,0.6c0.1-0.3,0.3-0.5,0.6-0.5c0.1,0,0.2,0.1,0.2,0.2V15.6z M173.2,14.8
			c0.8,0,1.5-0.5,1.5-0.5V11c0,0-0.6-0.7-1.6-0.7c-1.2,0-1.9,1.1-1.9,2.2C171.2,13.8,172,14.8,173.2,14.8z"/>
		<path class="st0" d="M177.4,7.3c0-0.4,0.3-0.7,0.7-0.7c0.4,0,0.7,0.3,0.7,0.7c0,0.4-0.3,0.7-0.7,0.7C177.7,8,177.4,7.7,177.4,7.3z
			 M177.6,9.8c0-0.1,0.1-0.3,0.3-0.3h0.4c0.1,0,0.3,0.1,0.3,0.3v5.4c0,0.2-0.1,0.3-0.3,0.3h-0.4c-0.2,0-0.3-0.1-0.3-0.3V9.8z"/>
		<path class="st0" d="M180.3,15c-0.1-0.1-0.1-0.2,0-0.3l0.2-0.3c0.1-0.1,0.2-0.2,0.4-0.1c0.2,0.2,0.7,0.5,1.5,0.5
			c0.6,0,1-0.3,1-0.8c0-0.6-0.5-0.8-1.3-1.2c-0.8-0.4-1.7-0.8-1.7-1.8c0-0.6,0.5-1.6,1.9-1.6c0.8,0,1.4,0.3,1.7,0.5
			c0.1,0.1,0.2,0.2,0.1,0.4l-0.1,0.2c-0.1,0.2-0.3,0.2-0.4,0.1c-0.3-0.2-0.7-0.4-1.2-0.4c-0.7,0-0.9,0.4-0.9,0.7
			c0,0.5,0.4,0.7,1.1,1.1c1,0.5,1.9,0.9,1.9,2c0,0.9-0.8,1.7-2,1.7C181.2,15.7,180.6,15.2,180.3,15z"/>
		<path class="st0" d="M185.4,10.4c-0.2,0-0.3-0.1-0.3-0.3V9.8c0-0.2,0.1-0.3,0.3-0.3h0.8V7.9c0-0.2,0.1-0.3,0.3-0.3l0.4,0
			c0.2,0,0.3,0.1,0.3,0.3v1.7h1.8c0.2,0,0.3,0.1,0.3,0.3v0.3c0,0.2-0.1,0.3-0.3,0.3h-1.8v3.5c0,0.6,0.4,0.9,0.8,0.9
			c0.4,0,0.7-0.1,0.9-0.3c0.2-0.1,0.3,0,0.4,0.1l0.1,0.3c0.1,0.2,0.1,0.3-0.1,0.4c-0.3,0.2-0.8,0.4-1.4,0.4c-1.1,0-1.7-0.8-1.7-1.8
			v-3.5H185.4z"/>
		<path class="st0" d="M190.5,7.3c0-0.4,0.3-0.7,0.7-0.7c0.4,0,0.7,0.3,0.7,0.7c0,0.4-0.3,0.7-0.7,0.7C190.8,8,190.5,7.7,190.5,7.3z
			 M190.7,9.8c0-0.1,0.1-0.3,0.3-0.3h0.4c0.1,0,0.3,0.1,0.3,0.3v5.4c0,0.2-0.1,0.3-0.3,0.3H191c-0.2,0-0.3-0.1-0.3-0.3V9.8z"/>
		<path class="st0" d="M196.3,9.4c0.9,0,1.6,0.4,2.2,1c0.1,0.1,0.1,0.3-0.1,0.4l-0.2,0.2c-0.2,0.2-0.3,0-0.4-0.1
			c-0.4-0.5-0.9-0.7-1.5-0.7c-1.1,0-2.1,1-2.1,2.3c0,1.3,0.9,2.3,2,2.3c0.9,0,1.3-0.5,1.6-0.9c0.2-0.2,0.3-0.1,0.5,0l0.1,0.1
			c0.1,0.1,0.2,0.3,0.1,0.4c-0.5,0.7-1.3,1.2-2.3,1.2c-1.8,0-3-1.3-3-3.1C193.3,10.8,194.6,9.4,196.3,9.4z"/>
		<path class="st0" d="M199.9,15c-0.1-0.1-0.1-0.2,0-0.3l0.2-0.3c0.1-0.1,0.2-0.2,0.4-0.1c0.2,0.2,0.7,0.5,1.5,0.5
			c0.6,0,1-0.3,1-0.8c0-0.6-0.5-0.8-1.3-1.2c-0.8-0.4-1.7-0.8-1.7-1.8c0-0.6,0.5-1.6,1.9-1.6c0.8,0,1.4,0.3,1.7,0.5
			c0.1,0.1,0.2,0.2,0.1,0.4l-0.1,0.2c-0.1,0.2-0.3,0.2-0.4,0.1c-0.3-0.2-0.7-0.4-1.2-0.4c-0.7,0-0.9,0.4-0.9,0.7
			c0,0.5,0.4,0.7,1.1,1.1c1,0.5,1.9,0.9,1.9,2c0,0.9-0.8,1.7-2,1.7C200.8,15.7,200.2,15.2,199.9,15z"/>
	</g>
	<g>
		<path class="st0" d="M159.5,37.8c1.6,0,2.7,1.2,2.7,2.7c0,0.1,0,0.3,0,0.4c0,0.2-0.1,0.3-0.3,0.3h-4.4c0,1,0.9,2.1,2,2.1
			c0.8,0,1.3-0.3,1.6-0.5c0.2-0.1,0.3-0.2,0.5,0l0.2,0.2c0.1,0.2,0.2,0.2-0.1,0.4c-0.4,0.3-1.2,0.7-2.2,0.7c-1.8,0-2.9-1.4-2.9-3.1
			C156.6,39.3,157.7,37.8,159.5,37.8z M161.2,40.4c0-0.9-0.7-1.7-1.8-1.7c-1,0-1.8,0.8-1.9,1.7H161.2z"/>
		<path class="st0" d="M168.2,34.8c1.3,0,2.3,0.5,3.1,1.2c0.1,0.1,0.1,0.3,0,0.4l-0.4,0.4c-0.1,0.1-0.2,0.1-0.3,0
			c-0.7-0.6-1.5-1-2.5-1c-2.1,0-3.6,1.7-3.6,3.7c0,2,1.6,3.7,3.6,3.7c1.1,0,1.8-0.4,2.5-1c0.1-0.1,0.2-0.1,0.3,0l0.3,0.3
			c0.1,0.1,0.1,0.3,0,0.4c-0.9,0.8-1.9,1.3-3.1,1.3c-2.6,0-4.7-2.1-4.7-4.7C163.5,36.8,165.6,34.8,168.2,34.8z"/>
		<path class="st0" d="M175.5,37.8c1.7,0,3,1.4,3,3.1c0,1.7-1.4,3.2-3,3.2s-3-1.4-3-3.2C172.5,39.3,173.8,37.8,175.5,37.8z
			 M175.5,43.3c1.2,0,2.1-1,2.1-2.3c0-1.2-0.9-2.2-2.1-2.2c-1.2,0-2.1,1-2.1,2.2C173.4,42.2,174.3,43.3,175.5,43.3z"/>
		<path class="st0" d="M180.1,38.2c0-0.1,0.1-0.2,0.2-0.2c0.4,0,0.6,0.3,0.6,0.7c0.4-0.4,1-0.8,1.9-0.8c0.9,0,1.4,0.3,1.8,0.9
			c0.1-0.1,0.9-0.9,2.1-0.9c1.7,0,2.2,1.1,2.2,2.7v3.2c0,0.2-0.1,0.3-0.3,0.3h-0.4c-0.2,0-0.3-0.1-0.3-0.3v-3.2
			c0-1.1-0.4-1.8-1.3-1.8c-1,0-1.5,0.6-1.7,0.8c0.1,0.3,0.1,0.7,0.1,1v3.2c0,0.2-0.1,0.3-0.3,0.3h-0.4c-0.1,0-0.3-0.1-0.3-0.3v-3.2
			c0-1.1-0.4-1.8-1.4-1.8c-1.1,0-1.6,0.8-1.6,0.8v4.1c0,0.2-0.1,0.3-0.3,0.3h-0.4c-0.2,0-0.3-0.1-0.3-0.3V38.2z"/>
		<path class="st0" d="M190.9,38.2c0-0.1,0.1-0.2,0.2-0.2c0.4,0,0.6,0.3,0.6,0.7c0.4-0.4,1-0.8,1.9-0.8c0.9,0,1.4,0.3,1.8,0.9
			c0.1-0.1,0.9-0.9,2.1-0.9c1.7,0,2.2,1.1,2.2,2.7v3.2c0,0.2-0.1,0.3-0.3,0.3H199c-0.2,0-0.3-0.1-0.3-0.3v-3.2
			c0-1.1-0.4-1.8-1.3-1.8c-1,0-1.5,0.6-1.7,0.8c0.1,0.3,0.1,0.7,0.1,1v3.2c0,0.2-0.1,0.3-0.3,0.3h-0.4c-0.1,0-0.3-0.1-0.3-0.3v-3.2
			c0-1.1-0.4-1.8-1.4-1.8c-1.1,0-1.6,0.8-1.6,0.8v4.1c0,0.2-0.1,0.3-0.3,0.3h-0.4c-0.2,0-0.3-0.1-0.3-0.3V38.2z"/>
		<path class="st0" d="M204.2,37.8c1.6,0,2.7,1.2,2.7,2.7c0,0.1,0,0.3,0,0.4c0,0.2-0.1,0.3-0.3,0.3h-4.4c0,1,0.9,2.1,2,2.1
			c0.8,0,1.3-0.3,1.6-0.5c0.2-0.1,0.3-0.2,0.5,0l0.2,0.2c0.1,0.2,0.2,0.2-0.1,0.4c-0.4,0.3-1.2,0.7-2.2,0.7c-1.8,0-2.9-1.4-2.9-3.1
			C201.2,39.3,202.3,37.8,204.2,37.8z M205.9,40.4c0-0.9-0.7-1.7-1.8-1.7c-1,0-1.8,0.8-1.9,1.7H205.9z"/>
		<path class="st0" d="M208.5,38.2c0-0.1,0.1-0.2,0.2-0.2c0.4,0,0.6,0.3,0.6,0.7c0.3-0.3,0.9-0.8,1.8-0.8c0.5,0,1.2,0.1,1.1,0.5
			l-0.2,0.5c-0.1,0.2-0.2,0.2-0.4,0.1c-0.1-0.1-0.4-0.2-0.6-0.2c-1.2,0-1.6,0.8-1.6,0.8v4.2c0,0.2-0.1,0.3-0.3,0.3h-0.4
			c-0.2,0-0.3-0.1-0.3-0.3V38.2z"/>
		<path class="st0" d="M215.9,37.8c0.9,0,1.6,0.4,2.2,1c0.1,0.1,0.1,0.3-0.1,0.4l-0.2,0.2c-0.2,0.2-0.3,0-0.4-0.1
			c-0.4-0.5-0.9-0.7-1.5-0.7c-1.1,0-2.1,1-2.1,2.3c0,1.3,0.9,2.3,2,2.3c0.9,0,1.3-0.5,1.6-0.9c0.2-0.2,0.3-0.1,0.5,0l0.1,0.1
			c0.1,0.1,0.2,0.3,0.1,0.4c-0.5,0.7-1.3,1.2-2.3,1.2c-1.8,0-3-1.3-3-3.1C212.9,39.2,214.2,37.8,215.9,37.8z"/>
		<path class="st0" d="M222.2,37.8c1.6,0,2.7,1.2,2.7,2.7c0,0.1,0,0.3,0,0.4c0,0.2-0.1,0.3-0.3,0.3h-4.4c0,1,0.9,2.1,2,2.1
			c0.8,0,1.3-0.3,1.6-0.5c0.2-0.1,0.3-0.2,0.5,0l0.2,0.2c0.1,0.2,0.2,0.2-0.1,0.4c-0.4,0.3-1.2,0.7-2.2,0.7c-1.8,0-2.9-1.4-2.9-3.1
			C219.3,39.3,220.4,37.8,222.2,37.8z M223.9,40.4c0-0.9-0.7-1.7-1.8-1.7c-1,0-1.8,0.8-1.9,1.7H223.9z"/>
		<path class="st0" d="M231.5,40.2c0.6,0,1.3,0.2,1.3,0.2c0-1.1-0.5-1.7-1.4-1.7c-0.7,0-1.1,0.3-1.4,0.4c-0.2,0.1-0.2,0-0.3-0.2
			l-0.1-0.4c-0.1-0.2,0-0.3,0.2-0.3c0.3-0.1,0.8-0.4,1.7-0.4c1.5,0,2.2,0.9,2.2,2.5v3.4c0,0.1-0.1,0.2-0.2,0.2
			c-0.4,0-0.6-0.3-0.6-0.7c-0.3,0.3-0.9,0.8-1.9,0.8c-1.1,0-1.9-0.8-1.9-2C229.1,41,230,40.2,231.5,40.2z M231.1,43.3
			c0.7,0,1.4-0.4,1.7-0.8v-1.2c-0.2-0.1-0.7-0.2-1.3-0.2c-0.8,0-1.5,0.4-1.5,1.2C230.1,42.8,230.5,43.3,231.1,43.3z"/>
		<path class="st0" d="M235.7,38.2c0-0.1,0.1-0.2,0.2-0.2c0.4,0,0.6,0.3,0.6,0.7c0.4-0.3,1.1-0.8,2-0.8c1.7,0,2.2,1.1,2.2,2.7v3.2
			c0,0.2-0.1,0.3-0.3,0.3H240c-0.2,0-0.3-0.1-0.3-0.3v-3.3c0-1.1-0.4-1.7-1.3-1.7c-1.1,0-1.8,0.8-1.8,0.8v4.1c0,0.2-0.1,0.3-0.3,0.3
			H236c-0.2,0-0.3-0.1-0.3-0.3V38.2z"/>
		<path class="st0" d="M245.2,37.8c1,0,1.7,0.4,1.7,0.4v-3.1c0-0.1,0.1-0.3,0.3-0.3h0.4c0.2,0,0.3,0.1,0.3,0.3v8.6
			c0,0.1-0.1,0.2-0.2,0.2c-0.4,0-0.6-0.3-0.6-0.7c-0.4,0.4-1.1,0.8-1.9,0.8c-1.5,0-2.7-1.4-2.7-3.2
			C242.3,39.2,243.3,37.8,245.2,37.8z M245.1,43.3c1.1,0,1.7-1,1.7-1v-3.2c0,0-0.7-0.3-1.5-0.3c-1.3,0-2,1.1-2,2.3
			C243.3,42.2,244,43.3,245.1,43.3z"/>
		<path class="st0" d="M252.5,38.8c-0.2,0-0.3-0.1-0.3-0.3v-0.3c0-0.2,0.1-0.3,0.3-0.3h0.8v-1.7c0-0.2,0.1-0.3,0.3-0.3l0.4,0
			c0.2,0,0.3,0.1,0.3,0.3V38h1.8c0.2,0,0.3,0.1,0.3,0.3v0.3c0,0.2-0.1,0.3-0.3,0.3h-1.8v3.5c0,0.6,0.4,0.9,0.8,0.9
			c0.4,0,0.7-0.1,0.9-0.3c0.2-0.1,0.3,0,0.4,0.1l0.1,0.3c0.1,0.2,0.1,0.3-0.1,0.4c-0.3,0.2-0.8,0.4-1.4,0.4c-1.1,0-1.7-0.8-1.7-1.8
			v-3.5H252.5z"/>
		<path class="st0" d="M260.2,37.8c1.6,0,2.7,1.2,2.7,2.7c0,0.1,0,0.3,0,0.4c0,0.2-0.1,0.3-0.3,0.3h-4.4c0,1,0.9,2.1,2,2.1
			c0.8,0,1.3-0.3,1.6-0.5c0.2-0.1,0.3-0.2,0.5,0l0.2,0.2c0.1,0.2,0.2,0.2-0.1,0.4c-0.4,0.3-1.2,0.7-2.2,0.7c-1.8,0-2.9-1.4-2.9-3.1
			C257.3,39.3,258.4,37.8,260.2,37.8z M261.9,40.4c0-0.9-0.7-1.7-1.8-1.7c-1,0-1.8,0.8-1.9,1.7H261.9z"/>
		<path class="st0" d="M267.2,37.8c0.9,0,1.6,0.4,2.2,1c0.1,0.1,0.1,0.3-0.1,0.4l-0.2,0.2c-0.2,0.2-0.3,0-0.4-0.1
			c-0.4-0.5-0.9-0.7-1.5-0.7c-1.1,0-2.1,1-2.1,2.3c0,1.3,0.9,2.3,2,2.3c0.9,0,1.3-0.5,1.6-0.9c0.2-0.2,0.3-0.1,0.5,0l0.1,0.1
			c0.1,0.1,0.2,0.3,0.1,0.4c-0.5,0.7-1.3,1.2-2.3,1.2c-1.8,0-3-1.3-3-3.1C264.1,39.2,265.4,37.8,267.2,37.8z"/>
		<path class="st0" d="M270.9,35.2c0-0.1,0.1-0.3,0.3-0.3h0.4c0.1,0,0.3,0.1,0.3,0.3v3.4c0,0,0.7-0.8,1.9-0.8c1.5,0,2.2,0.9,2.2,2.7
			v3.2c0,0.2-0.1,0.3-0.3,0.3h-0.4c-0.2,0-0.3-0.1-0.3-0.3v-3.2c0-1.1-0.3-1.8-1.3-1.8c-1.1,0-1.8,0.9-1.8,0.9v4.1
			c0,0.2-0.1,0.3-0.3,0.3h-0.4c-0.2,0-0.3-0.1-0.3-0.3V35.2z"/>
		<path class="st0" d="M277.9,38.2c0-0.1,0.1-0.2,0.2-0.2c0.4,0,0.6,0.3,0.6,0.7c0.4-0.3,1.1-0.8,2-0.8c1.7,0,2.2,1.1,2.2,2.7v3.2
			c0,0.2-0.1,0.3-0.3,0.3h-0.4c-0.2,0-0.3-0.1-0.3-0.3v-3.3c0-1.1-0.4-1.7-1.3-1.7c-1.1,0-1.8,0.8-1.8,0.8v4.1
			c0,0.2-0.1,0.3-0.3,0.3h-0.4c-0.2,0-0.3-0.1-0.3-0.3V38.2z"/>
		<path class="st0" d="M287.5,37.8c1.7,0,3,1.4,3,3.1c0,1.7-1.4,3.2-3,3.2s-3-1.4-3-3.2C284.5,39.3,285.9,37.8,287.5,37.8z
			 M287.5,43.3c1.2,0,2.1-1,2.1-2.3c0-1.2-0.9-2.2-2.1-2.2c-1.2,0-2.1,1-2.1,2.2C285.5,42.2,286.3,43.3,287.5,43.3z"/>
		<path class="st0" d="M292.2,35.2c0-0.1,0.1-0.3,0.3-0.3h0.4c0.1,0,0.3,0.1,0.3,0.3v8.5c0,0.2-0.1,0.3-0.3,0.3h-0.4
			c-0.2,0-0.3-0.1-0.3-0.3V35.2z"/>
		<path class="st0" d="M300.3,44c0,2.1-1.3,2.8-2.6,2.8c-0.9,0-1.8-0.5-2.1-0.8c-0.1-0.1-0.1-0.3-0.1-0.4l0.3-0.4
			c0.1-0.1,0.2-0.1,0.4,0c0.3,0.3,0.8,0.6,1.5,0.6c0.9,0,1.7-0.5,1.7-1.9v-0.4c0,0-0.7,0.5-1.7,0.5c-1.7,0-2.8-1.4-2.8-3.1
			c0-1.7,1.2-3.1,2.8-3.1c0.8,0,1.4,0.3,1.8,0.6c0.1-0.3,0.3-0.5,0.6-0.5c0.1,0,0.2,0.1,0.2,0.2V44z M297.8,43.2
			c0.8,0,1.5-0.5,1.5-0.5v-3.3c0,0-0.6-0.7-1.6-0.7c-1.2,0-1.9,1.1-1.9,2.2C295.8,42.3,296.7,43.2,297.8,43.2z"/>
		<path class="st0" d="M302.7,46.7l1.1-2.7l-2.2-5.7c-0.1-0.2,0-0.3,0.2-0.3h0.5c0.1,0,0.2,0.1,0.3,0.2l1.7,4.8h0l2-4.8
			c0-0.1,0.1-0.2,0.3-0.2h0.5c0.2,0,0.3,0.1,0.2,0.3l-3.8,8.6c0,0.1-0.2,0.2-0.3,0.2H303C302.7,47.1,302.6,46.9,302.7,46.7z"/>
	</g>
	<rect x="124.9" y="2.2" class="st3" width="18.4" height="18.4"/>
	<rect x="124.9" y="30.4" class="st4" width="18.4" height="18.4"/>
	<g>
		<path class="st4" d="M124.4,197.4l-104-65c23-36.8,60.7-57.7,104-57.7V197.4z"/>
		<path class="st3" d="M124.4,197.4L17.1,256.9c-22.3-40.3-21.2-85.4,3.3-124.5L124.4,197.4z"/>
		<path class="st2" d="M124.4,197.4l46,113.7c-57.8,23.4-123,0.2-153.3-54.3L124.4,197.4z"/>
		<path class="st1" d="M124.4,197.4V74.7c67.8,0,122.7,54.9,122.7,122.7c0,51.5-29,94.5-76.7,113.7L124.4,197.4z"/>
		<path class="st4" d="M124.4,197.4l-104-65c23-36.8,60.7-57.7,104-57.7V197.4z"/>
		<path class="st3" d="M124.4,197.4L17.1,256.9c-22.3-40.3-21.2-85.4,3.3-124.5L124.4,197.4z"/>
		<path class="st2" d="M124.4,197.4l46,113.7c-57.8,23.4-123,0.2-153.3-54.3L124.4,197.4z"/>
		<path class="st1" d="M124.4,197.4V74.7c67.8,0,122.7,54.9,122.7,122.7c0,51.5-29,94.5-76.7,113.7L124.4,197.4z"/>
	</g>
	<path class="st5" d="M193.9,195.7v-2.9h-5.6v-2.3l4.5-7.8h4.5v7.4h1.4v2.7h-1.4v2.9H193.9z M193.9,190.1v-2.2
		c0-0.8,0.1-1.7,0.1-2.6h-0.1c-0.4,0.9-0.8,1.7-1.3,2.6l-1.1,2.2l0,0H193.9z M205.4,195.7v-2.9h-5.6v-2.3l4.5-7.8h4.5v7.4h1.4v2.7
		h-1.4v2.9H205.4z M205.4,190.1v-2.2c0-0.8,0.1-1.7,0.1-2.6h-0.1c-0.4,0.9-0.8,1.7-1.3,2.6l-1.1,2.2l0,0H205.4z M218.7,186.4
		c0,2.7-1.9,4.2-3.8,4.2c-2.1,0-3.8-1.6-3.8-3.9c0-2.2,1.4-4.1,3.8-4.1S218.7,184.2,218.7,186.4z M213.8,186.5
		c0,1.2,0.4,2.1,1.2,2.1c0.7,0,1.1-0.7,1.1-2.1c0-1.2-0.3-2.1-1.1-2.1C214.1,184.4,213.8,185.3,213.8,186.5z M215.2,196l7.4-13.4
		h1.9L217,196H215.2z M228.5,191.8c0,2.7-1.9,4.2-3.8,4.2c-2.1,0-3.8-1.6-3.8-3.9c0-2.2,1.4-4.1,3.8-4.1
		C227.2,187.9,228.5,189.7,228.5,191.8z M223.6,191.9c0,1.2,0.4,2.1,1.2,2.1c0.7,0,1.1-0.7,1.1-2.1c0-1.2-0.3-2.1-1.1-2.1
		C223.9,189.8,223.6,190.8,223.6,191.9z"/>
	<path class="st5" d="M15.3,188.9L15.3,188.9l-2.6,1.2l-0.6-2.7l3.7-1.6h3v13h-3.5V188.9z M32.5,185.7v2.2l-5.2,10.8h-3.8l5.2-10v0
		h-5.8v-3H32.5z M41.6,189.4c0,2.7-1.9,4.2-3.8,4.2c-2.1,0-3.8-1.6-3.8-3.9c0-2.2,1.4-4.1,3.8-4.1S41.6,187.2,41.6,189.4z
		 M36.6,189.5c0,1.2,0.4,2.1,1.2,2.1c0.7,0,1.1-0.7,1.1-2.1c0-1.2-0.3-2.1-1.1-2.1C37,187.4,36.6,188.3,36.6,189.5z M38,199
		l7.4-13.4h1.9L39.9,199H38z M51.3,194.8c0,2.7-1.9,4.2-3.8,4.2c-2.1,0-3.8-1.6-3.8-3.9c0-2.2,1.4-4.1,3.8-4.1
		C50,190.9,51.3,192.7,51.3,194.8z M46.4,194.9c0,1.2,0.4,2.1,1.2,2.1c0.7,0,1.1-0.7,1.1-2.1c0-1.2-0.3-2.1-1.1-2.1
		C46.7,192.8,46.4,193.8,46.4,194.9z"/>
	<path class="st5" d="M62.3,104.2L62.3,104.2l-2.6,1.2l-0.6-2.7l3.7-1.6h3v13h-3.5V104.2z M78.5,103.6c-0.3,0-0.7,0-1.1,0
		c-2.7,0.1-3.8,1.2-4.1,2.5h0.1c0.7-0.6,1.5-0.8,2.6-0.8c2.1,0,4.1,1.5,4.1,4.3c0,2.7-2.1,4.7-5,4.7c-3.8,0-5.4-2.8-5.4-5.7
		c0-2.4,0.9-4.5,2.4-5.8c1.4-1.2,3.2-1.9,5.4-1.9c0.6,0,0.9,0,1.2,0V103.6z M76.3,109.7c0-0.9-0.4-1.9-1.6-1.9c-0.7,0-1.3,0.4-1.5,1
		c-0.1,0.2-0.1,0.4-0.1,0.8c0.1,1,0.6,2.1,1.8,2.1C75.8,111.6,76.3,110.8,76.3,109.7z M88.6,104.7c0,2.7-1.9,4.2-3.8,4.2
		c-2.1,0-3.8-1.6-3.8-3.9c0-2.2,1.4-4.1,3.8-4.1S88.6,102.5,88.6,104.7z M83.6,104.8c0,1.2,0.4,2.1,1.2,2.1c0.7,0,1.1-0.7,1.1-2.1
		c0-1.2-0.3-2.1-1.1-2.1C84,102.7,83.6,103.6,83.6,104.8z M85,114.3l7.4-13.4h1.9l-7.4,13.4H85z M98.3,110.1c0,2.7-1.9,4.2-3.8,4.2
		c-2.1,0-3.8-1.6-3.8-3.9c0-2.2,1.4-4.1,3.8-4.1C97,106.2,98.3,108,98.3,110.1z M93.4,110.2c0,1.2,0.4,2.1,1.2,2.1
		c0.7,0,1.1-0.7,1.1-2.1c0-1.2-0.3-2.1-1.1-2.1C93.7,108.1,93.4,109.1,93.4,110.2z"/>
	<path class="st5" d="M78.4,292.2v-2.2l1.8-1.6c2.6-2.3,4-3.6,4-5c0-0.9-0.6-1.6-1.9-1.6c-1.1,0-2.1,0.5-2.8,1.1l-1-2.6
		c1-0.7,2.6-1.4,4.5-1.4c3,0,4.8,1.6,4.8,4.2c0,2.1-1.5,3.8-3,5l-1.3,1v0H88v3H78.4z M90.4,288.8c0.5,0.3,1.8,0.8,3.1,0.8
		c1.3,0,2.1-0.5,2.1-1.4c0-1.1-1.1-1.6-2.3-1.6H92v-2.6h1.3c0.9,0,2-0.3,2-1.2c0-0.7-0.6-1.1-1.8-1.1c-1.1,0-2.3,0.5-2.8,0.7
		l-0.7-2.6c0.8-0.5,2.5-1,4.3-1c2.9,0,4.6,1.4,4.6,3.3c0,1.4-0.8,2.4-2.4,3v0c1.5,0.3,2.8,1.4,2.8,3.1c0,2.4-2.2,4-5.6,4
		c-1.8,0-3.3-0.4-4.1-0.9L90.4,288.8z M108.6,282.9c0,2.7-1.9,4.2-3.8,4.2c-2.1,0-3.8-1.6-3.8-3.9c0-2.2,1.4-4.1,3.8-4.1
		S108.6,280.7,108.6,282.9z M103.6,283c0,1.2,0.4,2.1,1.2,2.1c0.7,0,1.1-0.7,1.1-2.1c0-1.2-0.3-2.1-1.1-2.1
		C104,280.9,103.6,281.8,103.6,283z M105,292.5l7.4-13.4h1.9l-7.4,13.4H105z M118.3,288.3c0,2.7-1.9,4.2-3.8,4.2
		c-2.1,0-3.8-1.6-3.8-3.9c0-2.2,1.4-4.1,3.8-4.1C117,284.4,118.3,286.2,118.3,288.3z M113.4,288.4c0,1.2,0.4,2.1,1.2,2.1
		c0.7,0,1.1-0.7,1.1-2.1c0-1.2-0.3-2.1-1.1-2.1C113.7,286.3,113.4,287.3,113.4,288.4z"/>
</g>
</svg>
