<?xml version="1.0" encoding="utf-8"?>
<!-- Generator: Adobe Illustrator 26.0.3, SVG Export Plug-In . SVG Version: 6.00 Build 0)  -->
<svg version="1.1" id="Capa_1" xmlns="http://www.w3.org/2000/svg" xmlns:xlink="http://www.w3.org/1999/xlink" x="0px" y="0px"
	 viewBox="0 0 489 222" style="enable-background:new 0 0 489 222;" xml:space="preserve">
<style type="text/css">
	.st0{fill:#007DC3;}
	.st1{fill:#F4F8FC;}
	.st2{fill:none;stroke:#6CADDF;stroke-miterlimit:10;}
	.st3{fill:none;stroke:#6CADDF;stroke-width:0.3;stroke-miterlimit:10;}
	.st4{fill:#FFFFFF;}
	.st5{font-family:'Bogle-Bold';}
	.st6{font-size:14.5px;}
	.st7{letter-spacing:-2;}
	.st8{letter-spacing:-1;}
	.st9{font-family:'Bogle-Regular';}
</style>
<g>
	<path class="st0" d="M229,216h65v6h-65V216z M164,216h65v6h-65V216z M164,0h130v24H164V0z"/>
	<path class="st1" d="M229,192h65v24h-65V192z M164,192h65v24h-65V192z M229,168h65v24h-65V168z M164,168h65v24h-65V168z M229,144
		h65v24h-65V144z M164,144h65v24h-65V144z M229,120h65v24h-65V120z M164,120h65v24h-65V120z M229,96h65v24h-65V96z M164,96h65v24
		h-65V96z M229,72h65v24h-65V72z M164,72h65v24h-65V72z M229,48h65v24h-65V48z M164,48h65v24h-65V48z M229,24h65v24h-65V24z M164,24
		h65v24h-65V24z"/>
	<line class="st2" x1="0" y1="24" x2="164" y2="24"/>
	<line class="st2" x1="164" y1="24" x2="229" y2="24"/>
	<line class="st2" x1="229" y1="24" x2="294" y2="24"/>
	<line class="st2" x1="294" y1="24" x2="359" y2="24"/>
	<line class="st2" x1="359" y1="24" x2="424" y2="24"/>
	<line class="st2" x1="424" y1="24" x2="489" y2="24"/>
	<line class="st2" x1="0" y1="48" x2="164" y2="48"/>
	<line class="st2" x1="164" y1="48" x2="229" y2="48"/>
	<line class="st2" x1="229" y1="48" x2="294" y2="48"/>
	<line class="st2" x1="294" y1="48" x2="359" y2="48"/>
	<line class="st2" x1="359" y1="48" x2="424" y2="48"/>
	<line class="st2" x1="424" y1="48" x2="489" y2="48"/>
	<line class="st3" x1="0" y1="72" x2="164" y2="72"/>
	<line class="st3" x1="0" y1="96" x2="164" y2="96"/>
	<line class="st3" x1="0" y1="120" x2="164" y2="120"/>
	<line class="st3" x1="0" y1="144" x2="164" y2="144"/>
	<line class="st3" x1="0" y1="168" x2="164" y2="168"/>
	<line class="st3" x1="164" y1="72" x2="229" y2="72"/>
	<line class="st3" x1="229" y1="72" x2="294" y2="72"/>
	<line class="st3" x1="164" y1="96" x2="229" y2="96"/>
	<line class="st3" x1="229" y1="96" x2="294" y2="96"/>
	<line class="st3" x1="164" y1="120" x2="229" y2="120"/>
	<line class="st3" x1="229" y1="120" x2="294" y2="120"/>
	<line class="st3" x1="164" y1="144" x2="229" y2="144"/>
	<line class="st3" x1="229" y1="144" x2="294" y2="144"/>
	<line class="st3" x1="164" y1="168" x2="229" y2="168"/>
	<line class="st3" x1="229" y1="168" x2="294" y2="168"/>
	<line class="st3" x1="294" y1="72" x2="359" y2="72"/>
	<line class="st3" x1="294" y1="96" x2="359" y2="96"/>
	<line class="st3" x1="294" y1="120" x2="359" y2="120"/>
	<line class="st3" x1="294" y1="144" x2="359" y2="144"/>
	<line class="st3" x1="294" y1="168" x2="359" y2="168"/>
	<line class="st3" x1="359" y1="72" x2="424" y2="72"/>
	<line class="st3" x1="359" y1="96" x2="424" y2="96"/>
	<line class="st3" x1="359" y1="120" x2="424" y2="120"/>
	<line class="st3" x1="359" y1="144" x2="424" y2="144"/>
	<line class="st3" x1="359" y1="168" x2="424" y2="168"/>
	<line class="st3" x1="424" y1="72" x2="489" y2="72"/>
	<line class="st3" x1="424" y1="96" x2="489" y2="96"/>
	<line class="st3" x1="424" y1="120" x2="489" y2="120"/>
	<line class="st3" x1="424" y1="144" x2="489" y2="144"/>
	<line class="st3" x1="424" y1="168" x2="489" y2="168"/>
	<line class="st3" x1="0" y1="192" x2="164" y2="192"/>
	<line class="st3" x1="164" y1="192" x2="229" y2="192"/>
	<line class="st3" x1="229" y1="192" x2="294" y2="192"/>
	<line class="st3" x1="294" y1="192" x2="359" y2="192"/>
	<line class="st3" x1="359" y1="192" x2="424" y2="192"/>
	<line class="st3" x1="424" y1="192" x2="489" y2="192"/>
	<line class="st3" x1="0" y1="216" x2="164" y2="216"/>
	<line class="st3" x1="164" y1="216" x2="229" y2="216"/>
	<line class="st3" x1="229" y1="216" x2="294" y2="216"/>
	<line class="st3" x1="294" y1="216" x2="359" y2="216"/>
	<line class="st3" x1="359" y1="216" x2="424" y2="216"/>
	<line class="st3" x1="424" y1="216" x2="489" y2="216"/>
	<text transform="matrix(1 0 0 1 259.9707 17.0752)"><tspan x="0" y="0" class="st4 st5 st6">2</tspan><tspan x="8" y="0" class="st4 st5 st6">0</tspan><tspan x="16.9" y="0" class="st4 st5 st6">2</tspan><tspan x="24.9" y="0" class="st4 st5 st6">1</tspan></text>
	<text transform="matrix(1 0 0 1 386.3379 17.0752)"><tspan x="0" y="0" class="st0 st5 st6">2</tspan><tspan x="8" y="0" class="st0 st5 st6">0</tspan><tspan x="16.9" y="0" class="st0 st5 st6">2</tspan><tspan x="24.9" y="0" class="st0 st5 st6">0</tspan></text>
	<text transform="matrix(1 0 0 1 463.7969 17.0752)"><tspan x="0" y="0" class="st0 st5 st6 st7">V</tspan><tspan x="7.6" y="0" class="st0 st5 st6">a</tspan><tspan x="13.7" y="0" class="st0 st5 st6 st8">r</tspan><tspan x="17.8" y="0" class="st0 st5 st6">.</tspan></text>
	<text transform="matrix(1 0 0 1 217.9355 41.0723)" class="st0 st9 st6">$</text>
	<text transform="matrix(1 0 0 1 280.1982 41.0723)" class="st0 st9 st6">%</text>
	<text transform="matrix(1 0 0 1 347.9424 41.0723)" class="st0 st9 st6">$</text>
	<text transform="matrix(1 0 0 1 410.2051 41.0723)" class="st0 st9 st6">%</text>
	<text transform="matrix(1 0 0 1 475.209 41.0723)" class="st0 st9 st6">%</text>
	<text transform="matrix(1 0 0 1 8.019 65.0703)"><tspan x="0" y="0" class="st0 st9 st6">T</tspan><tspan x="6.6" y="0" class="st0 st9 st6">o</tspan><tspan x="14.9" y="0" class="st0 st9 st6">tal </tspan><tspan x="35.4" y="0" class="st0 st9 st6">r</tspan><tspan x="41" y="0" class="st0 st9 st6">e</tspan><tspan x="48.8" y="0" class="st0 st9 st6">v</tspan><tspan x="56.1" y="0" class="st0 st9 st6">e</tspan><tspan x="64" y="0" class="st0 st9 st6">nue</tspan><tspan x="87.9" y="0" class="st0 st9 st6">s</tspan></text>
	<text transform="matrix(1 0 0 1 169.52 65.0703)"><tspan x="0" y="0" class="st0 st5 st6">7</tspan><tspan x="7.7" y="0" class="st0 st5 st6">3</tspan><tspan x="15.7" y="0" class="st0 st5 st6">6</tspan><tspan x="23.8" y="0" class="st0 st5 st6">,</tspan><tspan x="27.7" y="0" class="st0 st5 st6">0</tspan><tspan x="36.8" y="0" class="st0 st5 st6">4</tspan><tspan x="46.3" y="0" class="st0 st5 st6">4</tspan></text>
	<text transform="matrix(1 0 0 1 254.9683 65.0703)"><tspan x="0" y="0" class="st0 st5 st6">1</tspan><tspan x="5.4" y="0" class="st0 st5 st6">0</tspan><tspan x="14.4" y="0" class="st0 st5 st6">0</tspan><tspan x="22.9" y="0" class="st0 st5 st6">.0</tspan></text>
	<text transform="matrix(1 0 0 1 305.2832 65.0703)"><tspan x="0" y="0" class="st0 st9 st6">7</tspan><tspan x="7.2" y="0" class="st0 st9 st6">0</tspan><tspan x="16.3" y="0" class="st0 st9 st6">1</tspan><tspan x="21.3" y="0" class="st0 st9 st6">,</tspan><tspan x="25.2" y="0" class="st0 st9 st6">73</tspan><tspan x="40.9" y="0" class="st0 st9 st6">4</tspan></text>
	<text transform="matrix(1 0 0 1 397.2275 65.0703)"><tspan x="0" y="0" class="st0 st9 st6">10</tspan><tspan x="14" y="0" class="st0 st9 st6">0</tspan></text>
	<text transform="matrix(1 0 0 1 465.334 65.0703)"><tspan x="0" y="0" class="st0 st9 st6">4</tspan><tspan x="8.9" y="0" class="st0 st9 st6">.</tspan><tspan x="11.7" y="0" class="st0 st9 st6">9</tspan></text>
	<text transform="matrix(1 0 0 1 8.0332 89.0674)"><tspan x="0" y="0" class="st0 st9 st6">G</tspan><tspan x="10.8" y="0" class="st0 st9 st6">r</tspan><tspan x="16.5" y="0" class="st0 st9 st6">oss p</tspan><tspan x="49.2" y="0" class="st0 st9 st6">r</tspan><tspan x="54.9" y="0" class="st0 st9 st6">o</tspan><tspan x="63.1" y="0" class="st0 st9 st6">fi</tspan><tspan x="72.5" y="0" class="st0 st9 st6">t</tspan></text>
	<text transform="matrix(1 0 0 1 175.0444 89.0674)"><tspan x="0" y="0" class="st0 st5 st6">1</tspan><tspan x="5.5" y="0" class="st0 st5 st6">7</tspan><tspan x="13.5" y="0" class="st0 st5 st6">1</tspan><tspan x="18.8" y="0" class="st0 st5 st6">,8</tspan><tspan x="31.7" y="0" class="st0 st5 st6">4</tspan><tspan x="41.2" y="0" class="st0 st5 st6">0</tspan></text>
	<text transform="matrix(1 0 0 1 262.7837 89.0674)"><tspan x="0" y="0" class="st0 st5 st6">2</tspan><tspan x="8" y="0" class="st0 st5 st6">3</tspan><tspan x="15.8" y="0" class="st0 st5 st6">.</tspan><tspan x="19.6" y="0" class="st0 st5 st6">3</tspan></text>
	<text transform="matrix(1 0 0 1 302.7168 89.0674)"><tspan x="0" y="0" class="st0 st9 st6">1</tspan><tspan x="5" y="0" class="st0 st9 st6">6</tspan><tspan x="13.5" y="0" class="st0 st9 st6">2</tspan><tspan x="21.6" y="0" class="st0 st9 st6">,</tspan><tspan x="25.2" y="0" class="st0 st9 st6">04</tspan><tspan x="43.5" y="0" class="st0 st9 st6">0</tspan></text>
	<text transform="matrix(1 0 0 1 397.1553 89.0674)"><tspan x="0" y="0" class="st0 st9 st6">2</tspan><tspan x="8" y="0" class="st0 st9 st6">3</tspan><tspan x="15.8" y="0" class="st0 st9 st6">.</tspan><tspan x="18.2" y="0" class="st0 st9 st6">1</tspan></text>
	<text transform="matrix(1 0 0 1 465.0156 89.0674)"><tspan x="0" y="0" class="st0 st9 st6">6</tspan><tspan x="8.4" y="0" class="st0 st9 st6">.0</tspan></text>
	<text transform="matrix(1 0 0 1 8.0479 113.0654)"><tspan x="0" y="0" class="st0 st9 st6">SG</tspan><tspan x="18.9" y="0" class="st0 st9 st6">&amp;</tspan><tspan x="28.9" y="0" class="st0 st9 st6">A</tspan></text>
	<text transform="matrix(1 0 0 1 182.8311 113.0654)"><tspan x="0" y="0" class="st0 st5 st6">11</tspan><tspan x="10.9" y="0" class="st0 st5 st6">0</tspan><tspan x="19.5" y="0" class="st0 st5 st6">,</tspan><tspan x="23" y="0" class="st0 st5 st6">18</tspan><tspan x="37.1" y="0" class="st0 st5 st6">1</tspan></text>
	<text transform="matrix(1 0 0 1 264.292 113.0654)"><tspan x="0" y="0" class="st0 st5 st6">15</tspan><tspan x="13.6" y="0" class="st0 st5 st6">.0</tspan></text>
	<text transform="matrix(1 0 0 1 303.1953 113.0654)"><tspan x="0" y="0" class="st0 st9 st6">1</tspan><tspan x="5" y="0" class="st0 st9 st6">0</tspan><tspan x="14.2" y="0" class="st0 st9 st6">5,</tspan><tspan x="25.7" y="0" class="st0 st9 st6">0</tspan><tspan x="34.8" y="0" class="st0 st9 st6">4</tspan><tspan x="44.1" y="0" class="st0 st9 st6">2</tspan></text>
	<text transform="matrix(1 0 0 1 395.5166 113.0654)"><tspan x="0" y="0" class="st0 st9 st6">1</tspan><tspan x="5" y="0" class="st0 st9 st6">5.0</tspan></text>
	<text transform="matrix(1 0 0 1 465.3633 113.0654)"><tspan x="0" y="0" class="st0 st9 st6">4</tspan><tspan x="8.9" y="0" class="st0 st9 st6">.</tspan><tspan x="11.7" y="0" class="st0 st9 st6">9</tspan></text>
	<text transform="matrix(1 0 0 1 8.0625 137.0625)"><tspan x="0" y="0" class="st0 st9 st6">Othe</tspan><tspan x="34" y="0" class="st0 st9 st6">r</tspan><tspan x="39.6" y="0" class="st0 st9 st6"> </tspan><tspan x="43.4" y="0" class="st0 st9 st6">i</tspan><tspan x="47" y="0" class="st0 st9 st6">n</tspan><tspan x="55.1" y="0" class="st0 st9 st6">c</tspan><tspan x="62.5" y="0" class="st0 st9 st6">ome</tspan><tspan x="91.1" y="0" class="st0 st9 st6">,</tspan><tspan x="94.9" y="0" class="st0 st9 st6"> ne</tspan><tspan x="114.7" y="0" class="st0 st9 st6">t</tspan></text>
	<text transform="matrix(1 0 0 1 190.3271 137.0625)"><tspan x="0" y="0" class="st0 st5 st6">1</tspan><tspan x="5.3" y="0" class="st0 st5 st6">,</tspan><tspan x="9.5" y="0" class="st0 st5 st6">2</tspan><tspan x="17.5" y="0" class="st0 st5 st6">4</tspan><tspan x="26.7" y="0" class="st0 st5 st6">9</tspan></text>
	<text transform="matrix(1 0 0 1 270.1646 137.0625)"><tspan x="0" y="0" class="st0 st5 st6">0</tspan><tspan x="8.5" y="0" class="st0 st5 st6">.</tspan><tspan x="12.2" y="0" class="st0 st5 st6">2</tspan></text>
	<text transform="matrix(1 0 0 1 328.875 137.0625)"><tspan x="0" y="0" class="st0 st9 st6">4</tspan><tspan x="9.2" y="0" class="st0 st9 st6">4</tspan><tspan x="18.1" y="0" class="st0 st9 st6">9</tspan></text>
	<text transform="matrix(1 0 0 1 404.5215 137.0625)"><tspan x="0" y="0" class="st0 st9 st6">0</tspan><tspan x="8.5" y="0" class="st0 st9 st6">.</tspan><tspan x="10.9" y="0" class="st0 st9 st6">1</tspan></text>
	<text transform="matrix(1 0 0 1 461.376 137.0625)"><tspan x="0" y="0" class="st0 st9 st6">1.8</tspan><tspan x="16.6" y="0" class="st0 st9 st6">v</tspan></text>
	<text transform="matrix(1 0 0 1 8.0767 161.0596)"><tspan x="0" y="0" class="st0 st9 st6">O</tspan><tspan x="12.1" y="0" class="st0 st9 st6">p</tspan><tspan x="20.3" y="0" class="st0 st9 st6">e</tspan><tspan x="28.2" y="0" class="st0 st9 st6">r</tspan><tspan x="34" y="0" class="st0 st9 st6">a</tspan><tspan x="41.1" y="0" class="st0 st9 st6">t</tspan><tspan x="46.9" y="0" class="st0 st9 st6">i</tspan><tspan x="50.5" y="0" class="st0 st9 st6">ng in</tspan><tspan x="82.3" y="0" class="st0 st9 st6">c</tspan><tspan x="89.8" y="0" class="st0 st9 st6">o</tspan><tspan x="98.2" y="0" class="st0 st9 st6">m</tspan><tspan x="110.5" y="0" class="st0 st9 st6">e</tspan></text>
	<text transform="matrix(1 0 0 1 179.1479 161.0596)"><tspan x="0" y="0" class="st0 st5 st6">62</tspan><tspan x="16.4" y="0" class="st0 st5 st6">,</tspan><tspan x="20.2" y="0" class="st0 st5 st6">9</tspan><tspan x="28.5" y="0" class="st0 st5 st6">0</tspan><tspan x="37.6" y="0" class="st0 st5 st6">8</tspan></text>
	<text transform="matrix(1 0 0 1 270.0049 161.0596)"><tspan x="0" y="0" class="st0 st5 st6">8</tspan><tspan x="8.4" y="0" class="st0 st5 st6">.</tspan><tspan x="12.2" y="0" class="st0 st5 st6">5</tspan></text>
	<text transform="matrix(1 0 0 1 311.707 161.0596)"><tspan x="0" y="0" class="st0 st9 st6">5</tspan><tspan x="8.1" y="0" class="st0 st9 st6 st8">7</tspan><tspan x="14.2" y="0" class="st0 st9 st6">,</tspan><tspan x="18" y="0" class="st0 st9 st6">4</tspan><tspan x="27.2" y="0" class="st0 st9 st6">4</tspan><tspan x="36.2" y="0" class="st0 st9 st6">7</tspan></text>
	<text transform="matrix(1 0 0 1 400.6934 161.0596)"><tspan x="0" y="0" class="st0 st9 st6">8.</tspan><tspan x="11.6" y="0" class="st0 st9 st6">2</tspan></text>
	<text transform="matrix(1 0 0 1 466.4941 161.0596)"><tspan x="0" y="0" class="st0 st9 st6">9</tspan><tspan x="7.5" y="0" class="st0 st9 st6">.</tspan><tspan x="10.7" y="0" class="st0 st9 st6">5</tspan></text>
	<text transform="matrix(1 0 0 1 8.0913 185.0576)"><tspan x="0" y="0" class="st0 st9 st6">EBIT</tspan><tspan x="29.9" y="0" class="st0 st9 st6">D</tspan><tspan x="40.8" y="0" class="st0 st9 st6">A</tspan></text>
	<text transform="matrix(1 0 0 1 184.3101 185.0576)"><tspan x="0" y="0" class="st0 st5 st6">8</tspan><tspan x="8.7" y="0" class="st0 st5 st6">1</tspan><tspan x="14" y="0" class="st0 st5 st6">,2</tspan><tspan x="26.3" y="0" class="st0 st5 st6">1</tspan><tspan x="31.6" y="0" class="st0 st5 st6">4</tspan></text>
	<text transform="matrix(1 0 0 1 267.2788 185.0576)"><tspan x="0" y="0" class="st0 st5 st6">1</tspan><tspan x="5.4" y="0" class="st0 st5 st6">1</tspan><tspan x="10.6" y="0" class="st0 st5 st6">.0</tspan></text>
	<text transform="matrix(1 0 0 1 311.9531 185.0576)"><tspan x="0" y="0" class="st0 st9 st6">7</tspan><tspan x="7.6" y="0" class="st0 st9 st6">5</tspan><tspan x="15.6" y="0" class="st0 st9 st6">,3</tspan><tspan x="27.5" y="0" class="st0 st9 st6">8</tspan><tspan x="35.9" y="0" class="st0 st9 st6">7</tspan></text>
	<text transform="matrix(1 0 0 1 396.2568 185.0576)"><tspan x="0" y="0" class="st0 st9 st6">1</tspan><tspan x="5" y="0" class="st0 st9 st6">0</tspan><tspan x="13.5" y="0" class="st0 st9 st6">.</tspan><tspan x="16.6" y="0" class="st0 st9 st6">7</tspan></text>
	<text transform="matrix(1 0 0 1 468.7705 185.0576)"><tspan x="0" y="0" class="st0 st9 st6 st8">7</tspan><tspan x="6" y="0" class="st0 st9 st6">.</tspan><tspan x="9.1" y="0" class="st0 st9 st6">7</tspan></text>
	<text transform="matrix(1 0 0 1 8.106 209.0547)"><tspan x="0" y="0" class="st0 st9 st6">N</tspan><tspan x="11.1" y="0" class="st0 st9 st6">e</tspan><tspan x="19" y="0" class="st0 st9 st6">t </tspan><tspan x="28.6" y="0" class="st0 st9 st6">i</tspan><tspan x="32.2" y="0" class="st0 st9 st6">n</tspan><tspan x="40.3" y="0" class="st0 st9 st6">c</tspan><tspan x="47.7" y="0" class="st0 st9 st6">o</tspan><tspan x="56.1" y="0" class="st0 st9 st6">m</tspan><tspan x="68.4" y="0" class="st0 st9 st6">e</tspan></text>
	<text transform="matrix(1 0 0 1 180.9604 209.0547)"><tspan x="0" y="0" class="st0 st5 st6">4</tspan><tspan x="9.5" y="0" class="st0 st5 st6">4</tspan><tspan x="18.9" y="0" class="st0 st5 st6">,</tspan><tspan x="22.4" y="0" class="st0 st5 st6">13</tspan><tspan x="35.8" y="0" class="st0 st5 st6">8</tspan></text>
	<text transform="matrix(1 0 0 1 269.9468 209.0547)" class="st0 st5 st6">6.0</text>
	<text transform="matrix(1 0 0 1 310.0537 209.0547)"><tspan x="0" y="0" class="st0 st9 st6">3</tspan><tspan x="8.1" y="0" class="st0 st9 st6">3</tspan><tspan x="15.9" y="0" class="st0 st9 st6">,43</tspan><tspan x="37.1" y="0" class="st0 st9 st6">5</tspan></text>
	<text transform="matrix(1 0 0 1 399.9248 209.0547)"><tspan x="0" y="0" class="st0 st9 st6">4</tspan><tspan x="8.9" y="0" class="st0 st9 st6">.</tspan><tspan x="12" y="0" class="st0 st9 st6">8</tspan></text>
	<text transform="matrix(1 0 0 1 457.3594 209.0547)"><tspan x="0" y="0" class="st0 st9 st6">32</tspan><tspan x="16.1" y="0" class="st0 st9 st6">.0</tspan></text>
</g>
</svg>
