<?xml version="1.0" encoding="utf-8"?>
<!-- Generator: Adobe Illustrator 26.0.3, SVG Export Plug-In . SVG Version: 6.00 Build 0)  -->
<svg version="1.1" id="Capa_1" xmlns="http://www.w3.org/2000/svg" xmlns:xlink="http://www.w3.org/1999/xlink" x="0px" y="0px"
	 viewBox="0 0 315.7 225.8" style="enable-background:new 0 0 315.7 225.8;" xml:space="preserve">
<style type="text/css">
	.st0{fill:#89BAE4;}
	.st1{fill:none;stroke:#FFFFFF;stroke-width:0.5;stroke-miterlimit:10;}
	.st2{fill:#458FCC;}
	.st3{fill:#00ADEE;}
	.st4{fill:#4A5B6D;}
	.st5{fill:#8BBBEA;}
</style>
<g>
	<rect x="0.2" y="0.4" class="st0" width="22.4" height="22.4"/>
	<g>
		<rect x="0.2" y="0.5" class="st1" width="22.4" height="22.4"/>
	</g>
	<rect x="22.8" y="0.5" class="st0" width="22.4" height="22.4"/>
	<rect x="22.8" y="0.5" class="st1" width="22.4" height="22.4"/>
	<rect x="45.3" y="0.5" class="st0" width="22.4" height="22.4"/>
	<rect x="45.3" y="0.5" class="st1" width="22.4" height="22.4"/>
	<rect x="67.8" y="0.5" class="st0" width="22.4" height="22.4"/>
	<rect x="67.8" y="0.5" class="st1" width="22.4" height="22.4"/>
	<rect x="90.4" y="0.5" class="st0" width="22.4" height="22.4"/>
	<rect x="90.4" y="0.5" class="st1" width="22.4" height="22.4"/>
	<rect x="112.9" y="0.5" class="st0" width="22.4" height="22.4"/>
	<rect x="112.9" y="0.5" class="st1" width="22.4" height="22.4"/>
	<rect x="135.4" y="0.5" class="st0" width="22.4" height="22.4"/>
	<rect x="135.4" y="0.5" class="st1" width="22.4" height="22.4"/>
	<rect x="157.9" y="0.5" class="st0" width="22.4" height="22.4"/>
	<rect x="157.9" y="0.5" class="st1" width="22.4" height="22.4"/>
	<rect x="180.5" y="0.5" class="st0" width="22.4" height="22.4"/>
	<rect x="180.5" y="0.5" class="st1" width="22.4" height="22.4"/>
	<rect x="203" y="0.5" class="st0" width="22.4" height="22.4"/>
	<rect x="203" y="0.5" class="st1" width="22.4" height="22.4"/>
	<rect x="0.2" y="23" class="st0" width="22.4" height="22.4"/>
	<g>
		<rect x="0.2" y="23" class="st1" width="22.4" height="22.4"/>
	</g>
	<rect x="22.8" y="23" class="st0" width="22.4" height="22.4"/>
	<rect x="22.8" y="23" class="st1" width="22.4" height="22.4"/>
	<rect x="45.3" y="23" class="st0" width="22.4" height="22.4"/>
	<rect x="45.3" y="23" class="st1" width="22.4" height="22.4"/>
	<rect x="67.8" y="23" class="st0" width="22.4" height="22.4"/>
	<rect x="67.8" y="23" class="st1" width="22.4" height="22.4"/>
	<rect x="90.4" y="23" class="st0" width="22.4" height="22.4"/>
	<rect x="90.4" y="23" class="st1" width="22.4" height="22.4"/>
	<rect x="112.9" y="23" class="st0" width="22.4" height="22.4"/>
	<rect x="112.9" y="23" class="st1" width="22.4" height="22.4"/>
	<rect x="135.4" y="23" class="st0" width="22.4" height="22.4"/>
	<rect x="135.4" y="23" class="st1" width="22.4" height="22.4"/>
	<rect x="157.9" y="23" class="st0" width="22.4" height="22.4"/>
	<rect x="157.9" y="23" class="st1" width="22.4" height="22.4"/>
	<rect x="180.5" y="23" class="st0" width="22.4" height="22.4"/>
	<rect x="180.5" y="23" class="st1" width="22.4" height="22.4"/>
	<rect x="203" y="23" class="st0" width="22.4" height="22.4"/>
	<rect x="203" y="23" class="st1" width="22.4" height="22.4"/>
	<rect x="0.2" y="45.5" class="st0" width="22.4" height="22.4"/>
	<g>
		<rect x="0.2" y="45.5" class="st1" width="22.4" height="22.4"/>
	</g>
	<rect x="22.8" y="45.5" class="st0" width="22.4" height="22.4"/>
	<rect x="22.8" y="45.5" class="st1" width="22.4" height="22.4"/>
	<rect x="45.3" y="45.5" class="st2" width="22.4" height="22.4"/>
	<rect x="45.3" y="45.5" class="st1" width="22.4" height="22.4"/>
	<rect x="67.8" y="45.5" class="st2" width="22.4" height="22.4"/>
	<rect x="67.8" y="45.5" class="st1" width="22.4" height="22.4"/>
	<rect x="90.4" y="45.5" class="st2" width="22.4" height="22.4"/>
	<rect x="90.4" y="45.5" class="st1" width="22.4" height="22.4"/>
	<rect x="112.9" y="45.5" class="st2" width="22.4" height="22.4"/>
	<rect x="112.9" y="45.5" class="st1" width="22.4" height="22.4"/>
	<rect x="135.4" y="45.5" class="st2" width="22.4" height="22.4"/>
	<rect x="135.4" y="45.5" class="st1" width="22.4" height="22.4"/>
	<rect x="157.9" y="45.5" class="st2" width="22.4" height="22.4"/>
	<rect x="157.9" y="45.5" class="st1" width="22.4" height="22.4"/>
	<rect x="180.5" y="45.5" class="st2" width="22.4" height="22.4"/>
	<rect x="180.5" y="45.5" class="st1" width="22.4" height="22.4"/>
	<rect x="203" y="45.5" class="st2" width="22.4" height="22.4"/>
	<rect x="203" y="45.5" class="st1" width="22.4" height="22.4"/>
	<rect x="0.2" y="68" class="st2" width="22.4" height="22.4"/>
	<g>
		<rect x="0.2" y="68" class="st1" width="22.4" height="22.4"/>
	</g>
	<rect x="22.8" y="68" class="st2" width="22.4" height="22.4"/>
	<rect x="22.8" y="68" class="st1" width="22.4" height="22.4"/>
	<rect x="45.3" y="68" class="st2" width="22.4" height="22.4"/>
	<rect x="45.3" y="68" class="st1" width="22.4" height="22.4"/>
	<rect x="67.8" y="68" class="st2" width="22.4" height="22.4"/>
	<rect x="67.8" y="68" class="st1" width="22.4" height="22.4"/>
	<rect x="90.4" y="68" class="st2" width="22.4" height="22.4"/>
	<rect x="90.4" y="68" class="st1" width="22.4" height="22.4"/>
	<rect x="112.9" y="68" class="st2" width="22.4" height="22.4"/>
	<rect x="112.9" y="68" class="st1" width="22.4" height="22.4"/>
	<rect x="135.4" y="68" class="st2" width="22.4" height="22.4"/>
	<rect x="135.4" y="68" class="st1" width="22.4" height="22.4"/>
	<rect x="157.9" y="68" class="st2" width="22.4" height="22.4"/>
	<rect x="157.9" y="68" class="st1" width="22.4" height="22.4"/>
	<rect x="180.5" y="68" class="st2" width="22.4" height="22.4"/>
	<rect x="180.5" y="68" class="st1" width="22.4" height="22.4"/>
	<rect x="203" y="68" class="st2" width="22.4" height="22.4"/>
	<rect x="203" y="68" class="st1" width="22.4" height="22.4"/>
	<rect x="0.2" y="90.6" class="st2" width="22.4" height="22.4"/>
	<g>
		<rect x="0.2" y="90.6" class="st1" width="22.4" height="22.4"/>
	</g>
	<rect x="22.8" y="90.6" class="st2" width="22.4" height="22.4"/>
	<rect x="22.8" y="90.6" class="st1" width="22.4" height="22.4"/>
	<rect x="45.3" y="90.6" class="st2" width="22.4" height="22.4"/>
	<rect x="45.3" y="90.6" class="st1" width="22.4" height="22.4"/>
	<rect x="67.8" y="90.6" class="st2" width="22.4" height="22.4"/>
	<rect x="67.8" y="90.6" class="st1" width="22.4" height="22.4"/>
	<rect x="90.4" y="90.6" class="st2" width="22.4" height="22.4"/>
	<rect x="90.4" y="90.6" class="st1" width="22.4" height="22.4"/>
	<rect x="112.9" y="90.6" class="st2" width="22.4" height="22.4"/>
	<rect x="112.9" y="90.6" class="st1" width="22.4" height="22.4"/>
	<rect x="135.4" y="90.6" class="st2" width="22.4" height="22.4"/>
	<rect x="135.4" y="90.6" class="st1" width="22.4" height="22.4"/>
	<rect x="157.9" y="90.6" class="st2" width="22.4" height="22.4"/>
	<rect x="157.9" y="90.6" class="st1" width="22.4" height="22.4"/>
	<rect x="180.5" y="90.6" class="st2" width="22.4" height="22.4"/>
	<rect x="180.5" y="90.6" class="st1" width="22.4" height="22.4"/>
	<rect x="203" y="90.6" class="st2" width="22.4" height="22.4"/>
	<rect x="203" y="90.6" class="st1" width="22.4" height="22.4"/>
	<rect x="0.2" y="113.1" class="st2" width="22.4" height="22.4"/>
	<g>
		<rect x="0.2" y="113.1" class="st1" width="22.4" height="22.4"/>
	</g>
	<rect x="22.8" y="113.1" class="st2" width="22.4" height="22.4"/>
	<rect x="22.8" y="113.1" class="st1" width="22.4" height="22.4"/>
	<rect x="45.3" y="113.1" class="st2" width="22.4" height="22.4"/>
	<rect x="45.3" y="113.1" class="st1" width="22.4" height="22.4"/>
	<rect x="67.8" y="113.1" class="st2" width="22.4" height="22.4"/>
	<rect x="67.8" y="113.1" class="st1" width="22.4" height="22.4"/>
	<rect x="90.4" y="113.1" class="st2" width="22.4" height="22.4"/>
	<rect x="90.4" y="113.1" class="st1" width="22.4" height="22.4"/>
	<rect x="112.9" y="113.1" class="st3" width="22.4" height="22.4"/>
	<rect x="112.9" y="113.1" class="st1" width="22.4" height="22.4"/>
	<rect x="135.4" y="113.1" class="st3" width="22.4" height="22.4"/>
	<rect x="135.4" y="113.1" class="st1" width="22.4" height="22.4"/>
	<rect x="157.9" y="113.1" class="st3" width="22.4" height="22.4"/>
	<rect x="157.9" y="113.1" class="st1" width="22.4" height="22.4"/>
	<rect x="180.5" y="113.1" class="st3" width="22.4" height="22.4"/>
	<rect x="180.5" y="113.1" class="st1" width="22.4" height="22.4"/>
	<rect x="203" y="113.1" class="st3" width="22.4" height="22.4"/>
	<rect x="203" y="113.1" class="st1" width="22.4" height="22.4"/>
	<rect x="0.2" y="135.6" class="st3" width="22.4" height="22.4"/>
	<g>
		<rect x="0.2" y="135.6" class="st1" width="22.4" height="22.4"/>
	</g>
	<rect x="22.8" y="135.6" class="st3" width="22.4" height="22.4"/>
	<rect x="22.8" y="135.6" class="st1" width="22.4" height="22.4"/>
	<rect x="45.3" y="135.6" class="st3" width="22.4" height="22.4"/>
	<rect x="45.3" y="135.6" class="st1" width="22.4" height="22.4"/>
	<rect x="67.8" y="135.6" class="st3" width="22.4" height="22.4"/>
	<rect x="67.8" y="135.6" class="st1" width="22.4" height="22.4"/>
	<rect x="90.4" y="135.6" class="st3" width="22.4" height="22.4"/>
	<rect x="90.4" y="135.6" class="st1" width="22.4" height="22.4"/>
	<rect x="112.9" y="135.6" class="st3" width="22.4" height="22.4"/>
	<rect x="112.9" y="135.6" class="st1" width="22.4" height="22.4"/>
	<rect x="135.4" y="135.6" class="st3" width="22.4" height="22.4"/>
	<rect x="135.4" y="135.6" class="st1" width="22.4" height="22.4"/>
	<rect x="157.9" y="135.6" class="st3" width="22.4" height="22.4"/>
	<rect x="157.9" y="135.6" class="st1" width="22.4" height="22.4"/>
	<rect x="180.5" y="135.6" class="st3" width="22.4" height="22.4"/>
	<rect x="180.5" y="135.6" class="st1" width="22.4" height="22.4"/>
	<rect x="203" y="135.6" class="st3" width="22.4" height="22.4"/>
	<rect x="203" y="135.6" class="st1" width="22.4" height="22.4"/>
	<rect x="0.2" y="158.1" class="st3" width="22.4" height="22.4"/>
	<g>
		<rect x="0.2" y="158.1" class="st1" width="22.4" height="22.4"/>
	</g>
	<rect x="22.8" y="158.1" class="st3" width="22.4" height="22.4"/>
	<rect x="22.8" y="158.1" class="st1" width="22.4" height="22.4"/>
	<rect x="45.3" y="158.1" class="st3" width="22.4" height="22.4"/>
	<rect x="45.3" y="158.1" class="st1" width="22.4" height="22.4"/>
	<rect x="67.8" y="158.1" class="st3" width="22.4" height="22.4"/>
	<rect x="67.8" y="158.1" class="st1" width="22.4" height="22.4"/>
	<rect x="90.4" y="158.1" class="st3" width="22.4" height="22.4"/>
	<rect x="90.4" y="158.1" class="st1" width="22.4" height="22.4"/>
	<rect x="112.9" y="158.1" class="st3" width="22.4" height="22.4"/>
	<rect x="112.9" y="158.1" class="st1" width="22.4" height="22.4"/>
	<rect x="135.4" y="158.1" class="st3" width="22.4" height="22.4"/>
	<rect x="135.4" y="158.1" class="st1" width="22.4" height="22.4"/>
	<rect x="157.9" y="158.1" class="st3" width="22.4" height="22.4"/>
	<rect x="157.9" y="158.1" class="st1" width="22.4" height="22.4"/>
	<rect x="180.5" y="158.1" class="st3" width="22.4" height="22.4"/>
	<rect x="180.5" y="158.1" class="st1" width="22.4" height="22.4"/>
	<rect x="203" y="158.1" class="st3" width="22.4" height="22.4"/>
	<rect x="203" y="158.1" class="st1" width="22.4" height="22.4"/>
	<rect x="0.2" y="180.7" class="st3" width="22.4" height="22.4"/>
	<g>
		<rect x="0.2" y="180.7" class="st1" width="22.4" height="22.4"/>
	</g>
	<rect x="22.8" y="180.7" class="st3" width="22.4" height="22.4"/>
	<rect x="22.8" y="180.7" class="st1" width="22.4" height="22.4"/>
	<rect x="45.3" y="180.7" class="st3" width="22.4" height="22.4"/>
	<rect x="45.3" y="180.7" class="st1" width="22.4" height="22.4"/>
	<rect x="67.8" y="180.7" class="st3" width="22.4" height="22.4"/>
	<rect x="67.8" y="180.7" class="st1" width="22.4" height="22.4"/>
	<rect x="90.4" y="180.7" class="st3" width="22.4" height="22.4"/>
	<rect x="90.4" y="180.7" class="st1" width="22.4" height="22.4"/>
	<rect x="112.9" y="180.7" class="st3" width="22.4" height="22.4"/>
	<rect x="112.9" y="180.7" class="st1" width="22.4" height="22.4"/>
	<rect x="135.4" y="180.7" class="st3" width="22.4" height="22.4"/>
	<rect x="135.4" y="180.7" class="st1" width="22.4" height="22.4"/>
	<rect x="157.9" y="180.7" class="st3" width="22.4" height="22.4"/>
	<rect x="157.9" y="180.7" class="st1" width="22.4" height="22.4"/>
	<rect x="180.5" y="180.7" class="st3" width="22.4" height="22.4"/>
	<rect x="180.5" y="180.7" class="st1" width="22.4" height="22.4"/>
	<rect x="203" y="180.7" class="st3" width="22.4" height="22.4"/>
	<rect x="203" y="180.7" class="st1" width="22.4" height="22.4"/>
	<rect x="0.2" y="203.2" class="st3" width="22.4" height="22.4"/>
	<g>
		<rect x="0.2" y="203.2" class="st1" width="22.4" height="22.4"/>
	</g>
	<rect x="22.8" y="203.2" class="st3" width="22.4" height="22.4"/>
	<g>
		<rect x="22.8" y="203.2" class="st1" width="22.4" height="22.4"/>
	</g>
	<rect x="45.3" y="203.2" class="st3" width="22.4" height="22.4"/>
	<g>
		<rect x="45.3" y="203.2" class="st1" width="22.4" height="22.4"/>
	</g>
	<rect x="67.8" y="203.2" class="st3" width="22.4" height="22.4"/>
	<g>
		<rect x="67.8" y="203.2" class="st1" width="22.4" height="22.4"/>
	</g>
	<rect x="90.4" y="203.2" class="st3" width="22.4" height="22.4"/>
	<g>
		<rect x="90.4" y="203.2" class="st1" width="22.4" height="22.4"/>
	</g>
	<rect x="112.9" y="203.2" class="st3" width="22.4" height="22.4"/>
	<g>
		<rect x="112.9" y="203.2" class="st1" width="22.4" height="22.4"/>
	</g>
	<rect x="135.4" y="203.2" class="st3" width="22.4" height="22.4"/>
	<g>
		<rect x="135.4" y="203.2" class="st1" width="22.4" height="22.4"/>
	</g>
	<rect x="157.9" y="203.2" class="st3" width="22.4" height="22.4"/>
	<g>
		<rect x="157.9" y="203.2" class="st1" width="22.4" height="22.4"/>
	</g>
	<rect x="180.5" y="203.2" class="st3" width="22.4" height="22.4"/>
	<g>
		<rect x="180.5" y="203.2" class="st1" width="22.4" height="22.4"/>
	</g>
	<rect x="203" y="203.2" class="st3" width="22.4" height="22.4"/>
	<g>
		<rect x="203" y="203.2" class="st1" width="22.4" height="22.4"/>
	</g>
	<g>
		<path class="st3" d="M256.8,170.4c0.2,0,0.4,0.2,0.4,0.4v1.8c0,0.2-0.2,0.4-0.4,0.4h-8.2c-0.2,0-0.4-0.2-0.4-0.4v-0.2
			c0-0.2,0-0.2,0.3-0.6c1.3-1.8,4.1-5.5,5.2-7.2c0.3-0.4,0.5-1,0.5-1.5c0-0.8-0.7-1.5-1.8-1.5c-0.8,0-1.5,0.5-2,1
			c-0.2,0.2-0.4,0.2-0.6,0l-1.3-1.3c-0.1-0.1-0.2-0.4,0-0.5c0.8-0.8,2.1-2,4.1-2c2.9,0,4.7,1.9,4.7,4.2c0,1.1-0.3,1.7-0.8,2.7
			c-0.6,1.2-2.3,3.3-3.3,4.7v0H256.8z"/>
		<path class="st3" d="M259.4,161.7c-0.2,0-0.4-0.2-0.4-0.4v-1.9c0-0.2,0.2-0.4,0.4-0.4h8.7c0.2,0,0.3,0.1,0.3,0.3v0.1
			c0,0.1,0,0.1-0.1,0.3l-6.1,12.7c-0.2,0.5-0.5,0.6-0.8,0.6h-2c-0.2,0-0.4-0.2-0.4-0.4c0-0.2,0-0.3,0.1-0.5l5-10.5v0H259.4z"/>
		<path class="st3" d="M269.6,163.4c-0.2,0-0.4-0.2-0.4-0.4v-1.3c0-0.2,0.1-0.2,0.1-0.3l2.7-2.1c0.2-0.2,0.4-0.2,0.7-0.2h1.5
			c0.2,0,0.4,0.2,0.4,0.4v13.2c0,0.2-0.2,0.4-0.4,0.4h-2.3c-0.2,0-0.4-0.2-0.4-0.4v-9.3H269.6z"/>
		<path class="st3" d="M279,169.6c1.1,0,2.1,0.8,2.1,2.6c0,1.7-0.8,3-1.7,4.1c-0.2,0.1-0.3,0.1-0.5,0l-0.7-0.6
			c-0.1-0.2-0.1-0.3,0.1-0.5c0.5-0.6,1-1.4,1-2.1c0-0.1,0-0.1,0-0.2c-0.2,0.1-0.5,0.2-0.8,0.2c-1,0-1.5-0.8-1.5-1.7
			C277.1,170.3,277.9,169.6,279,169.6z"/>
		<path class="st3" d="M291.2,170.4c0.2,0,0.4,0.2,0.4,0.4v1.8c0,0.2-0.2,0.4-0.4,0.4h-8.2c-0.2,0-0.4-0.2-0.4-0.4v-0.2
			c0-0.2,0-0.2,0.3-0.6c1.3-1.8,4.1-5.5,5.2-7.2c0.3-0.4,0.5-1,0.5-1.5c0-0.8-0.7-1.5-1.8-1.5c-0.8,0-1.5,0.5-2,1
			c-0.2,0.2-0.4,0.2-0.6,0l-1.3-1.3c-0.1-0.1-0.2-0.4,0-0.5c0.8-0.8,2.1-2,4.1-2c2.9,0,4.7,1.9,4.7,4.2c0,1.1-0.3,1.7-0.8,2.7
			c-0.6,1.2-2.3,3.3-3.3,4.7v0H291.2z"/>
		<path class="st3" d="M293.7,170.9l1.3-1.3c0.1-0.1,0.4-0.1,0.5,0c0.8,0.6,1.5,1,2.5,1c1.1,0,2-0.8,2-2c0-1.3-0.8-2-2.1-2h-3.2
			c-0.4,0-0.6-0.4-0.6-0.7v-6.4c0-0.2,0.2-0.4,0.4-0.4h6.6c0.2,0,0.4,0.2,0.4,0.4v1.8c0,0.2-0.2,0.4-0.4,0.4h-4.2v2.2h1.5
			c2.8,0,4.7,1.8,4.7,4.6c0,2.7-2.2,4.8-5.1,4.8c-2.1,0-3.6-1.1-4.1-1.7C293.5,171.2,293.5,171.1,293.7,170.9z"/>
		<path class="st3" d="M304.6,170.9l1.3-1.3c0.1-0.1,0.4-0.1,0.5,0c0.8,0.6,1.5,1,2.5,1c1.1,0,2-0.8,2-2c0-1.3-0.8-2-2.1-2h-3.2
			c-0.4,0-0.6-0.4-0.6-0.7v-6.4c0-0.2,0.2-0.4,0.4-0.4h6.6c0.2,0,0.4,0.2,0.4,0.4v1.8c0,0.2-0.2,0.4-0.4,0.4h-4.2v2.2h1.5
			c2.8,0,4.7,1.8,4.7,4.6c0,2.7-2.2,4.8-5.1,4.8c-2.1,0-3.6-1.1-4.1-1.7C304.4,171.2,304.4,171.1,304.6,170.9z"/>
	</g>
	<g>
		<path class="st4" d="M246.1,179.8c0-0.1,0.1-0.2,0.2-0.2h5.1c0.1,0,0.2,0.1,0.2,0.2v0.4c0,0.1-0.1,0.2-0.2,0.2h-4.4v3.6h3.7
			c0.1,0,0.2,0.1,0.2,0.2v0.4c0,0.1-0.1,0.2-0.2,0.2h-3.7v3.5c0,0.1-0.1,0.2-0.2,0.2h-0.5c-0.1,0-0.2-0.1-0.2-0.2V179.8z"/>
		<path class="st4" d="M252.9,180.4c0-0.4,0.3-0.7,0.7-0.7c0.4,0,0.7,0.3,0.7,0.7c0,0.4-0.3,0.7-0.7,0.7
			C253.2,181.1,252.9,180.8,252.9,180.4z M253.1,182.9c0-0.1,0.1-0.3,0.3-0.3h0.4c0.1,0,0.3,0.1,0.3,0.3v5.4c0,0.2-0.1,0.3-0.3,0.3
			h-0.4c-0.2,0-0.3-0.1-0.3-0.3V182.9z"/>
		<path class="st4" d="M255.5,188.3l2-2.7l-2-2.6c-0.1-0.2-0.1-0.4,0.2-0.4h0.6c0.1,0,0.2,0.1,0.2,0.1l1.5,2.1h0l1.6-2.1
			c0.1-0.1,0.1-0.1,0.2-0.1h0.6c0.2,0,0.3,0.2,0.2,0.4l-2,2.5l2,2.7c0.1,0.2,0,0.4-0.2,0.4H260c-0.1,0-0.2-0.1-0.2-0.1l-1.6-2.3h0
			l-1.6,2.3c-0.1,0.1-0.1,0.1-0.2,0.1h-0.5C255.5,188.7,255.4,188.5,255.5,188.3z"/>
		<path class="st4" d="M264.5,182.5c1.6,0,2.7,1.2,2.7,2.7c0,0.1,0,0.3,0,0.4c0,0.2-0.1,0.3-0.3,0.3h-4.4c0,1,0.9,2.1,2,2.1
			c0.8,0,1.3-0.3,1.6-0.5c0.2-0.1,0.3-0.2,0.5,0l0.2,0.2c0.1,0.2,0.2,0.2-0.1,0.4c-0.4,0.3-1.2,0.7-2.2,0.7c-1.8,0-2.9-1.4-2.9-3.1
			C261.6,184,262.7,182.5,264.5,182.5z M266.3,185.1c0-0.9-0.7-1.7-1.8-1.7c-1,0-1.8,0.8-1.9,1.7H266.3z"/>
		<path class="st4" d="M271.3,182.5c1,0,1.7,0.4,1.7,0.4v-3.1c0-0.1,0.1-0.3,0.3-0.3h0.4c0.2,0,0.3,0.1,0.3,0.3v8.6
			c0,0.1-0.1,0.2-0.2,0.2c-0.4,0-0.6-0.3-0.6-0.7c-0.4,0.4-1.1,0.8-1.9,0.8c-1.5,0-2.7-1.4-2.7-3.2
			C268.5,183.9,269.5,182.5,271.3,182.5z M271.3,187.9c1.1,0,1.7-1,1.7-1v-3.2c0,0-0.7-0.3-1.5-0.3c-1.3,0-2,1.1-2,2.3
			C269.4,186.8,270.2,187.9,271.3,187.9z"/>
		<path class="st4" d="M278.1,188.3l4-8.7c0-0.1,0.1-0.1,0.2-0.1h0.1c0.1,0,0.2,0.1,0.2,0.1l3.9,8.7c0.1,0.2,0,0.3-0.2,0.3h-0.5
			c-0.1,0-0.2-0.1-0.2-0.1l-1-2.1h-4.6l-0.9,2.1c0,0.1-0.1,0.1-0.2,0.1h-0.5C278.2,188.7,278.1,188.5,278.1,188.3z M284.3,185.6
			c-0.6-1.4-1.3-2.8-1.9-4.3h-0.1l-1.9,4.3H284.3z"/>
		<path class="st4" d="M287.7,188.1c-0.1-0.1-0.1-0.2,0-0.3l0.2-0.3c0.1-0.1,0.2-0.2,0.4-0.1c0.2,0.2,0.7,0.5,1.5,0.5
			c0.6,0,1-0.3,1-0.8c0-0.6-0.5-0.8-1.3-1.2c-0.8-0.4-1.7-0.8-1.7-1.8c0-0.6,0.5-1.6,1.9-1.6c0.8,0,1.4,0.3,1.7,0.5
			c0.1,0.1,0.2,0.2,0.1,0.4l-0.1,0.2c-0.1,0.2-0.3,0.2-0.4,0.1c-0.3-0.2-0.7-0.4-1.2-0.4c-0.7,0-0.9,0.4-0.9,0.7
			c0,0.5,0.4,0.7,1.1,1.1c1,0.5,1.9,0.9,1.9,2c0,0.9-0.8,1.7-2,1.7C288.6,188.8,288,188.4,287.7,188.1z"/>
		<path class="st4" d="M292.9,188.1c-0.1-0.1-0.1-0.2,0-0.3l0.2-0.3c0.1-0.1,0.2-0.2,0.4-0.1c0.2,0.2,0.7,0.5,1.5,0.5
			c0.6,0,1-0.3,1-0.8c0-0.6-0.5-0.8-1.3-1.2c-0.8-0.4-1.7-0.8-1.7-1.8c0-0.6,0.5-1.6,1.9-1.6c0.8,0,1.4,0.3,1.7,0.5
			c0.1,0.1,0.2,0.2,0.1,0.4l-0.1,0.2c-0.1,0.2-0.3,0.2-0.4,0.1c-0.3-0.2-0.7-0.4-1.2-0.4c-0.7,0-0.9,0.4-0.9,0.7
			c0,0.5,0.4,0.7,1.1,1.1c1,0.5,1.9,0.9,1.9,2c0,0.9-0.8,1.7-2,1.7C293.9,188.8,293.2,188.4,292.9,188.1z"/>
		<path class="st4" d="M301,182.5c1.6,0,2.7,1.2,2.7,2.7c0,0.1,0,0.3,0,0.4c0,0.2-0.1,0.3-0.3,0.3h-4.4c0,1,0.9,2.1,2,2.1
			c0.8,0,1.3-0.3,1.6-0.5c0.2-0.1,0.3-0.2,0.5,0l0.2,0.2c0.1,0.2,0.2,0.2-0.1,0.4c-0.4,0.3-1.2,0.7-2.2,0.7c-1.8,0-2.9-1.4-2.9-3.1
			C298.1,184,299.2,182.5,301,182.5z M302.8,185.1c0-0.9-0.7-1.7-1.8-1.7c-1,0-1.8,0.8-1.9,1.7H302.8z"/>
		<path class="st4" d="M304.8,183.5c-0.2,0-0.3-0.1-0.3-0.3v-0.3c0-0.2,0.1-0.3,0.3-0.3h0.8V181c0-0.2,0.1-0.3,0.3-0.3l0.4,0
			c0.2,0,0.3,0.1,0.3,0.3v1.7h1.8c0.2,0,0.3,0.1,0.3,0.3v0.3c0,0.2-0.1,0.3-0.3,0.3h-1.8v3.5c0,0.6,0.4,0.9,0.8,0.9
			c0.4,0,0.7-0.1,0.9-0.3c0.2-0.1,0.3,0,0.4,0.1l0.1,0.3c0.1,0.2,0.1,0.3-0.1,0.4c-0.3,0.2-0.8,0.4-1.4,0.4c-1.1,0-1.7-0.8-1.7-1.8
			v-3.5H304.8z"/>
		<path class="st4" d="M310,188.1c-0.1-0.1-0.1-0.2,0-0.3l0.2-0.3c0.1-0.1,0.2-0.2,0.4-0.1c0.2,0.2,0.7,0.5,1.5,0.5
			c0.6,0,1-0.3,1-0.8c0-0.6-0.5-0.8-1.3-1.2c-0.8-0.4-1.7-0.8-1.7-1.8c0-0.6,0.5-1.6,1.9-1.6c0.8,0,1.4,0.3,1.7,0.5
			c0.1,0.1,0.2,0.2,0.1,0.4l-0.1,0.2c-0.1,0.2-0.3,0.2-0.4,0.1c-0.3-0.2-0.7-0.4-1.2-0.4c-0.7,0-0.9,0.4-0.9,0.7
			c0,0.5,0.4,0.7,1.1,1.1c1,0.5,1.9,0.9,1.9,2c0,0.9-0.8,1.7-2,1.7C311,188.8,310.3,188.4,310,188.1z"/>
	</g>
	<g>
		<path class="st4" d="M254.3,200.5c0.6,0,1.3,0.2,1.3,0.2c0-1.1-0.5-1.7-1.4-1.7c-0.7,0-1.1,0.3-1.4,0.4c-0.2,0.1-0.2,0-0.3-0.2
			l-0.1-0.4c-0.1-0.2,0-0.3,0.2-0.3c0.3-0.1,0.8-0.4,1.7-0.4c1.5,0,2.2,0.9,2.2,2.5v3.4c0,0.1-0.1,0.2-0.2,0.2
			c-0.4,0-0.6-0.3-0.6-0.7c-0.3,0.3-0.9,0.8-1.9,0.8c-1.1,0-1.9-0.8-1.9-2C251.9,201.3,252.7,200.5,254.3,200.5z M253.9,203.5
			c0.7,0,1.4-0.4,1.7-0.8v-1.2c-0.2-0.1-0.7-0.2-1.3-0.2c-0.8,0-1.5,0.4-1.5,1.2C252.8,203.1,253.3,203.5,253.9,203.5z"/>
		<path class="st4" d="M258.4,198.4c0-0.1,0.1-0.2,0.2-0.2c0.4,0,0.6,0.3,0.6,0.7c0.4-0.3,1.1-0.8,2-0.8c1.7,0,2.2,1.1,2.2,2.7v3.2
			c0,0.2-0.1,0.3-0.3,0.3h-0.4c-0.2,0-0.3-0.1-0.3-0.3v-3.3c0-1.1-0.4-1.7-1.3-1.7c-1.1,0-1.8,0.8-1.8,0.8v4.1
			c0,0.2-0.1,0.3-0.3,0.3h-0.4c-0.2,0-0.3-0.1-0.3-0.3V198.4z"/>
		<path class="st4" d="M267.9,198.1c1,0,1.7,0.4,1.7,0.4v-3.1c0-0.1,0.1-0.3,0.3-0.3h0.4c0.2,0,0.3,0.1,0.3,0.3v8.6
			c0,0.1-0.1,0.2-0.2,0.2c-0.4,0-0.6-0.3-0.6-0.7c-0.4,0.4-1.1,0.8-1.9,0.8c-1.5,0-2.7-1.4-2.7-3.2
			C265.1,199.5,266.1,198.1,267.9,198.1z M267.9,203.5c1.1,0,1.7-1,1.7-1v-3.2c0,0-0.7-0.3-1.5-0.3c-1.3,0-2,1.1-2,2.3
			C266,202.4,266.8,203.5,267.9,203.5z"/>
		<path class="st4" d="M280,195c2.6,0,4.7,2.1,4.7,4.7c0,2.6-2.1,4.7-4.7,4.7c-2.6,0-4.7-2.1-4.7-4.7C275.3,197.1,277.4,195,280,195
			z M280,203.5c2.1,0,3.8-1.7,3.8-3.8s-1.7-3.8-3.8-3.8c-2.1,0-3.8,1.7-3.8,3.8S277.9,203.5,280,203.5z"/>
		<path class="st4" d="M286.1,199.1c-0.2,0-0.3-0.1-0.3-0.3v-0.3c0-0.2,0.1-0.3,0.3-0.3h0.8v-1.7c0-0.2,0.1-0.3,0.3-0.3l0.4,0
			c0.2,0,0.3,0.1,0.3,0.3v1.7h1.8c0.2,0,0.3,0.1,0.3,0.3v0.3c0,0.2-0.1,0.3-0.3,0.3h-1.8v3.5c0,0.6,0.4,0.9,0.8,0.9
			c0.4,0,0.7-0.1,0.9-0.3c0.2-0.1,0.3,0,0.4,0.1l0.1,0.3c0.1,0.2,0.1,0.3-0.1,0.4c-0.3,0.2-0.8,0.4-1.4,0.4c-1.1,0-1.7-0.8-1.7-1.8
			v-3.5H286.1z"/>
		<path class="st4" d="M291.4,195.5c0-0.1,0.1-0.3,0.3-0.3h0.4c0.1,0,0.3,0.1,0.3,0.3v3.4c0,0,0.7-0.8,1.9-0.8
			c1.5,0,2.2,0.9,2.2,2.7v3.2c0,0.2-0.1,0.3-0.3,0.3h-0.4c-0.2,0-0.3-0.1-0.3-0.3v-3.2c0-1.1-0.3-1.8-1.3-1.8
			c-1.1,0-1.8,0.9-1.8,0.9v4.1c0,0.2-0.1,0.3-0.3,0.3h-0.4c-0.2,0-0.3-0.1-0.3-0.3V195.5z"/>
		<path class="st4" d="M300.9,198.1c1.6,0,2.7,1.2,2.7,2.7c0,0.1,0,0.3,0,0.4c0,0.2-0.1,0.3-0.3,0.3H299c0,1,0.9,2.1,2,2.1
			c0.8,0,1.3-0.3,1.6-0.5c0.2-0.1,0.3-0.2,0.5,0l0.2,0.2c0.1,0.2,0.2,0.2-0.1,0.4c-0.4,0.3-1.2,0.7-2.2,0.7c-1.8,0-2.9-1.4-2.9-3.1
			C298,199.6,299.1,198.1,300.9,198.1z M302.7,200.7c0-0.9-0.7-1.7-1.8-1.7c-1,0-1.8,0.8-1.9,1.7H302.7z"/>
		<path class="st4" d="M305.2,198.4c0-0.1,0.1-0.2,0.2-0.2c0.4,0,0.6,0.3,0.6,0.7c0.3-0.3,0.9-0.8,1.8-0.8c0.5,0,1.2,0.1,1.1,0.5
			l-0.2,0.5c-0.1,0.2-0.2,0.2-0.4,0.1c-0.1-0.1-0.4-0.2-0.7-0.2c-1.2,0-1.6,0.8-1.6,0.8v4.2c0,0.2-0.1,0.3-0.3,0.3h-0.4
			c-0.2,0-0.3-0.1-0.3-0.3V198.4z"/>
		<path class="st4" d="M310,203.7c-0.1-0.1-0.1-0.2,0-0.3l0.2-0.3c0.1-0.1,0.2-0.2,0.4-0.1c0.2,0.2,0.7,0.5,1.5,0.5
			c0.6,0,1-0.3,1-0.8c0-0.6-0.5-0.8-1.3-1.2c-0.8-0.4-1.7-0.8-1.7-1.8c0-0.6,0.5-1.6,1.9-1.6c0.8,0,1.4,0.3,1.7,0.5
			c0.1,0.1,0.2,0.2,0.1,0.4l-0.1,0.2c-0.1,0.2-0.3,0.2-0.4,0.1c-0.3-0.2-0.7-0.4-1.2-0.4c-0.7,0-0.9,0.4-0.9,0.7
			c0,0.5,0.4,0.7,1.1,1.1c1,0.5,1.9,0.9,1.9,2c0,0.9-0.8,1.7-2,1.7C310.9,204.4,310.3,204,310,203.7z"/>
	</g>
	<g>
		<path class="st5" d="M257.6,12.3c-0.2,0-0.4-0.2-0.4-0.4v-1.8c0-0.2,0-0.4,0.3-0.7l6.9-8.3c0.1-0.1,0.1-0.1,0.3-0.1h1.5
			c0.2,0,0.4,0.2,0.4,0.4v8.3h1.6c0.2,0,0.4,0.2,0.4,0.4v1.8c0,0.2-0.2,0.4-0.4,0.4h-1.6v2.5c0,0.2-0.2,0.4-0.4,0.4H264
			c-0.2,0-0.4-0.2-0.4-0.4v-2.5H257.6z M263.7,9.8V5.9h0l-3.2,3.9v0H263.7z"/>
		<path class="st5" d="M278.3,12.6c0.2,0,0.4,0.2,0.4,0.4v1.8c0,0.2-0.2,0.4-0.4,0.4H270c-0.2,0-0.4-0.2-0.4-0.4v-0.2
			c0-0.2,0-0.2,0.3-0.6c1.3-1.8,4.1-5.5,5.2-7.2c0.3-0.4,0.5-1,0.5-1.5c0-0.8-0.7-1.5-1.8-1.5c-0.8,0-1.5,0.5-2,1
			c-0.2,0.2-0.4,0.2-0.6,0L270,3.6c-0.1-0.1-0.2-0.4,0-0.5c0.8-0.8,2.1-2,4.1-2c2.9,0,4.7,1.9,4.7,4.2c0,1.1-0.3,1.7-0.8,2.7
			c-0.6,1.2-2.3,3.3-3.3,4.7v0H278.3z"/>
		<path class="st5" d="M282.6,11.7c1.1,0,2.1,0.8,2.1,2.6c0,1.7-0.8,3-1.7,4.1c-0.2,0.1-0.3,0.1-0.5,0l-0.7-0.6
			c-0.1-0.2-0.1-0.3,0.1-0.5c0.5-0.6,1-1.4,1-2.1c0-0.1,0-0.1,0-0.2c-0.2,0.1-0.5,0.2-0.8,0.2c-1,0-1.5-0.8-1.5-1.7
			C280.7,12.5,281.5,11.7,282.6,11.7z"/>
		<path class="st5" d="M288.7,8L288.7,8c-1.1-0.7-2.1-1.6-2.1-3.2c0-2.3,2.1-3.8,4.6-3.8c2.6,0,4.7,1.5,4.7,3.8
			c0,1.6-1.1,2.6-2.1,3.1V8c1.2,0.5,2.5,1.7,2.5,3.5c0,2.4-2,3.9-5.1,3.9c-3,0-5-1.5-5-3.9C286.2,9.7,287.7,8.4,288.7,8z
			 M291.2,12.9c1,0,1.7-0.7,1.7-1.6c0-0.8-0.6-1.5-1.7-1.9c-1.1,0.4-1.7,1.1-1.7,1.9C289.5,12.2,290.2,12.9,291.2,12.9z M292.7,4.9
			c0-0.7-0.6-1.3-1.5-1.3c-0.9,0-1.4,0.6-1.4,1.3c0,0.7,0.5,1.3,1.4,1.7C292.2,6.2,292.7,5.6,292.7,4.9z"/>
		<path class="st5" d="M297.8,5.5c-0.2,0-0.4-0.2-0.4-0.4V3.8c0-0.2,0.1-0.2,0.1-0.3l2.7-2.1c0.2-0.2,0.4-0.2,0.7-0.2h1.5
			c0.2,0,0.4,0.2,0.4,0.4v13.2c0,0.2-0.2,0.4-0.4,0.4h-2.3c-0.2,0-0.4-0.2-0.4-0.4V5.5H297.8z"/>
		<path class="st5" d="M305.6,3.8c-0.2,0-0.4-0.2-0.4-0.4V1.6c0-0.2,0.2-0.4,0.4-0.4h8.7c0.2,0,0.3,0.1,0.3,0.3v0.1
			c0,0.1,0,0.1-0.1,0.3l-6.1,12.7c-0.2,0.5-0.5,0.6-0.8,0.6h-2c-0.2,0-0.4-0.2-0.4-0.4c0-0.2,0-0.3,0.1-0.5l5-10.5v0H305.6z"/>
	</g>
	<g>
		<path class="st4" d="M292.4,21.6c1.3,0,2.3,0.5,3.1,1.2c0.1,0.1,0.1,0.3,0,0.4l-0.4,0.4c-0.1,0.1-0.2,0.1-0.3,0
			c-0.7-0.6-1.5-1-2.5-1c-2.1,0-3.6,1.7-3.6,3.7c0,2,1.6,3.7,3.6,3.7c1.1,0,1.8-0.4,2.5-1c0.1-0.1,0.2-0.1,0.3,0l0.3,0.3
			c0.1,0.1,0.1,0.3,0,0.4c-0.9,0.8-1.9,1.3-3.1,1.3c-2.6,0-4.7-2.1-4.7-4.7C287.7,23.7,289.8,21.6,292.4,21.6z"/>
		<path class="st4" d="M299.2,27c0.6,0,1.3,0.2,1.3,0.2c0-1.1-0.5-1.7-1.4-1.7c-0.7,0-1.1,0.3-1.4,0.4c-0.2,0.1-0.2,0-0.3-0.2
			l-0.1-0.4c-0.1-0.2,0-0.3,0.2-0.3c0.3-0.1,0.8-0.4,1.7-0.4c1.5,0,2.2,0.9,2.2,2.5v3.4c0,0.1-0.1,0.2-0.2,0.2
			c-0.4,0-0.6-0.3-0.6-0.7c-0.3,0.3-0.9,0.8-1.9,0.8c-1.1,0-1.9-0.8-1.9-2C296.8,27.8,297.7,27,299.2,27z M298.8,30.1
			c0.7,0,1.4-0.4,1.7-0.8V28c-0.2-0.1-0.7-0.2-1.3-0.2c-0.8,0-1.5,0.4-1.5,1.2C297.8,29.6,298.2,30.1,298.8,30.1z"/>
		<path class="st4" d="M303,30.2c-0.1-0.1-0.1-0.2,0-0.3l0.2-0.3c0.1-0.1,0.2-0.2,0.4-0.1c0.2,0.2,0.7,0.5,1.5,0.5
			c0.6,0,1-0.3,1-0.8c0-0.6-0.5-0.8-1.3-1.2c-0.8-0.4-1.7-0.8-1.7-1.8c0-0.6,0.5-1.6,1.9-1.6c0.8,0,1.4,0.3,1.7,0.5
			c0.1,0.1,0.2,0.2,0.1,0.4l-0.1,0.2c-0.1,0.2-0.3,0.2-0.4,0.1c-0.3-0.2-0.7-0.4-1.2-0.4c-0.7,0-0.9,0.4-0.9,0.7
			c0,0.5,0.4,0.7,1.1,1.1c1,0.5,1.9,0.9,1.9,2c0,0.9-0.8,1.7-2,1.7C304,30.9,303.3,30.5,303,30.2z"/>
		<path class="st4" d="M308.5,22c0-0.1,0.1-0.3,0.3-0.3h0.4c0.1,0,0.3,0.1,0.3,0.3v3.4c0,0,0.7-0.8,1.9-0.8c1.5,0,2.2,0.9,2.2,2.7
			v3.2c0,0.2-0.1,0.3-0.3,0.3h-0.4c-0.2,0-0.3-0.1-0.3-0.3v-3.2c0-1.1-0.3-1.8-1.3-1.8c-1.1,0-1.8,0.9-1.8,0.9v4.1
			c0,0.2-0.1,0.3-0.3,0.3h-0.4c-0.2,0-0.3-0.1-0.3-0.3V22z"/>
	</g>
	<g>
		<path class="st2" d="M260.3,91L260.3,91c-1.1-0.7-2.1-1.6-2.1-3.2c0-2.3,2.1-3.8,4.6-3.8c2.6,0,4.7,1.5,4.7,3.8
			c0,1.6-1.1,2.6-2.1,3.1V91c1.2,0.5,2.5,1.7,2.5,3.5c0,2.4-2,3.9-5.1,3.9c-3,0-5-1.5-5-3.9C257.8,92.7,259.3,91.4,260.3,91z
			 M262.8,95.9c1,0,1.7-0.7,1.7-1.6c0-0.8-0.6-1.5-1.7-1.9c-1.1,0.4-1.7,1.1-1.7,1.9C261.1,95.2,261.8,95.9,262.8,95.9z M264.3,87.9
			c0-0.7-0.6-1.3-1.5-1.3c-0.9,0-1.4,0.6-1.4,1.3c0,0.7,0.5,1.3,1.4,1.7C263.8,89.2,264.3,88.6,264.3,87.9z"/>
		<path class="st2" d="M269.4,91.2c0-4.5,1.9-7.2,5.3-7.2s5.3,2.7,5.3,7.2c0,4.5-1.9,7.2-5.3,7.2S269.4,95.7,269.4,91.2z
			 M276.8,91.2c0-2.7-0.9-4.3-2.1-4.3c-1.2,0-2.1,1.6-2.1,4.3c0,2.7,0.9,4.3,2.1,4.3C275.9,95.5,276.8,93.9,276.8,91.2z"/>
		<path class="st2" d="M283.2,94.7c1.1,0,2.1,0.8,2.1,2.6c0,1.7-0.8,3-1.7,4.1c-0.2,0.1-0.3,0.1-0.5,0l-0.7-0.6
			c-0.1-0.2-0.1-0.3,0.1-0.5c0.5-0.6,1-1.4,1-2.1c0-0.1,0-0.1,0-0.2c-0.2,0.1-0.5,0.2-0.8,0.2c-1,0-1.5-0.8-1.5-1.7
			C281.3,95.5,282.1,94.7,283.2,94.7z"/>
		<path class="st2" d="M287.2,96.1l1.2-1.3c0.1-0.1,0.4-0.2,0.5,0c0.5,0.4,1.2,0.9,2.3,0.9c1,0,1.8-0.6,1.8-1.6c0-1-0.9-1.7-2.4-1.7
			h-1.2c-0.2,0-0.4-0.2-0.4-0.4v-1.7c0-0.2,0.2-0.4,0.4-0.4h1.2c1.4,0,2.2-0.7,2.2-1.6c0-0.9-0.6-1.6-1.6-1.6
			c-0.9,0-1.5,0.5-1.8,0.8c-0.1,0.2-0.4,0.2-0.6,0l-1.3-1.2c-0.2-0.1-0.1-0.4,0-0.5c0.7-0.7,2-1.8,3.9-1.8c2.4,0,4.5,1.5,4.5,3.8
			c0,1.6-1.2,2.7-2.1,3.2V91c1.1,0.4,2.5,1.4,2.5,3.3c0,2.2-2,4.1-4.8,4.1c-2.6,0-3.8-1.2-4.2-1.8C287,96.5,287.1,96.2,287.2,96.1z"
			/>
		<path class="st2" d="M297.8,88.5c-0.2,0-0.4-0.2-0.4-0.4v-1.3c0-0.2,0.1-0.2,0.1-0.3l2.7-2.1c0.2-0.2,0.4-0.2,0.7-0.2h1.5
			c0.2,0,0.4,0.2,0.4,0.4v13.2c0,0.2-0.2,0.4-0.4,0.4h-2.3c-0.2,0-0.4-0.2-0.4-0.4v-9.3H297.8z"/>
		<path class="st2" d="M305.6,86.8c-0.2,0-0.4-0.2-0.4-0.4v-1.9c0-0.2,0.2-0.4,0.4-0.4h8.7c0.2,0,0.3,0.1,0.3,0.3v0.1
			c0,0.1,0,0.1-0.1,0.3l-6.1,12.7c-0.2,0.5-0.5,0.6-0.8,0.6h-2c-0.2,0-0.4-0.2-0.4-0.4c0-0.2,0-0.3,0.1-0.5l5-10.5v0H305.6z"/>
	</g>
	<g>
		<path class="st4" d="M253.8,104.9c0-0.1,0.1-0.2,0.2-0.2h0.5c0.1,0,0.2,0.1,0.2,0.2v8.6c0,0.1-0.1,0.2-0.2,0.2h-0.5
			c-0.1,0-0.2-0.1-0.2-0.2V104.9z"/>
		<path class="st4" d="M257,108c0-0.1,0.1-0.2,0.2-0.2c0.4,0,0.6,0.3,0.6,0.7c0.4-0.3,1.1-0.8,2-0.8c1.7,0,2.2,1.1,2.2,2.7v3.2
			c0,0.2-0.1,0.3-0.3,0.3h-0.4c-0.2,0-0.3-0.1-0.3-0.3v-3.3c0-1.1-0.4-1.7-1.3-1.7c-1.1,0-1.8,0.8-1.8,0.8v4.1
			c0,0.2-0.1,0.3-0.3,0.3h-0.4c-0.2,0-0.3-0.1-0.3-0.3V108z"/>
		<path class="st4" d="M263.1,108.1c-0.1-0.2,0-0.3,0.2-0.3h0.5c0.1,0,0.2,0.1,0.3,0.2l1.9,4.4h0l2-4.4c0-0.1,0.1-0.2,0.2-0.2h0.4
			c0.2,0,0.3,0.2,0.2,0.3l-2.6,5.7c0,0.1-0.1,0.2-0.2,0.2h-0.1c-0.1,0-0.2-0.1-0.2-0.2L263.1,108.1z"/>
		<path class="st4" d="M272.5,107.7c1.6,0,2.7,1.2,2.7,2.7c0,0.1,0,0.3,0,0.4c0,0.2-0.1,0.3-0.3,0.3h-4.4c0,1,0.9,2.1,2,2.1
			c0.8,0,1.3-0.3,1.6-0.5c0.2-0.1,0.3-0.2,0.5,0l0.2,0.2c0.1,0.2,0.2,0.2-0.1,0.4c-0.4,0.3-1.2,0.7-2.2,0.7c-1.8,0-2.9-1.4-2.9-3.1
			C269.6,109.1,270.7,107.7,272.5,107.7z M274.3,110.3c0-0.9-0.7-1.7-1.8-1.7c-1,0-1.8,0.8-1.9,1.7H274.3z"/>
		<path class="st4" d="M276.8,108c0-0.1,0.1-0.2,0.2-0.2c0.4,0,0.6,0.3,0.6,0.7c0.4-0.3,1.1-0.8,2-0.8c1.7,0,2.2,1.1,2.2,2.7v3.2
			c0,0.2-0.1,0.3-0.3,0.3h-0.4c-0.2,0-0.3-0.1-0.3-0.3v-3.3c0-1.1-0.4-1.7-1.3-1.7c-1.1,0-1.8,0.8-1.8,0.8v4.1
			c0,0.2-0.1,0.3-0.3,0.3h-0.4c-0.2,0-0.3-0.1-0.3-0.3V108z"/>
		<path class="st4" d="M283.2,108.6c-0.2,0-0.3-0.1-0.3-0.3v-0.3c0-0.2,0.1-0.3,0.3-0.3h0.8v-1.7c0-0.2,0.1-0.3,0.3-0.3l0.4,0
			c0.2,0,0.3,0.1,0.3,0.3v1.7h1.8c0.2,0,0.3,0.1,0.3,0.3v0.3c0,0.2-0.1,0.3-0.3,0.3H285v3.5c0,0.6,0.4,0.9,0.8,0.9
			c0.4,0,0.7-0.1,0.9-0.3c0.2-0.1,0.3,0,0.4,0.1l0.1,0.3c0.1,0.2,0.1,0.3-0.1,0.4c-0.3,0.2-0.8,0.4-1.4,0.4c-1.1,0-1.7-0.8-1.7-1.8
			v-3.5H283.2z"/>
		<path class="st4" d="M291,107.7c1.7,0,3,1.4,3,3.1c0,1.7-1.4,3.2-3,3.2s-3-1.4-3-3.2C288,109.1,289.3,107.7,291,107.7z M291,113.1
			c1.2,0,2.1-1,2.1-2.3c0-1.2-0.9-2.2-2.1-2.2c-1.2,0-2.1,1-2.1,2.2C288.9,112,289.8,113.1,291,113.1z"/>
		<path class="st4" d="M295.6,108c0-0.1,0.1-0.2,0.2-0.2c0.4,0,0.6,0.3,0.6,0.7c0.3-0.3,0.9-0.8,1.8-0.8c0.5,0,1.2,0.1,1.1,0.5
			l-0.2,0.5c-0.1,0.2-0.2,0.2-0.4,0.1c-0.1-0.1-0.4-0.2-0.7-0.2c-1.2,0-1.6,0.8-1.6,0.8v4.2c0,0.2-0.1,0.3-0.3,0.3h-0.4
			c-0.2,0-0.3-0.1-0.3-0.3V108z"/>
		<path class="st4" d="M300.4,105.5c0-0.4,0.3-0.7,0.7-0.7c0.4,0,0.7,0.3,0.7,0.7c0,0.4-0.3,0.7-0.7,0.7
			C300.7,106.2,300.4,105.9,300.4,105.5z M300.6,108.1c0-0.1,0.1-0.3,0.3-0.3h0.4c0.1,0,0.3,0.1,0.3,0.3v5.4c0,0.2-0.1,0.3-0.3,0.3
			h-0.4c-0.2,0-0.3-0.1-0.3-0.3V108.1z"/>
		<path class="st4" d="M306.1,107.7c1.6,0,2.7,1.2,2.7,2.7c0,0.1,0,0.3,0,0.4c0,0.2-0.1,0.3-0.3,0.3h-4.4c0,1,0.9,2.1,2,2.1
			c0.8,0,1.3-0.3,1.6-0.5c0.2-0.1,0.3-0.2,0.5,0l0.2,0.2c0.1,0.2,0.2,0.2-0.1,0.4c-0.4,0.3-1.2,0.7-2.2,0.7c-1.8,0-2.9-1.4-2.9-3.1
			C303.2,109.1,304.3,107.7,306.1,107.7z M307.9,110.3c0-0.9-0.7-1.7-1.8-1.7c-1,0-1.8,0.8-1.9,1.7H307.9z"/>
		<path class="st4" d="M310,113.2c-0.1-0.1-0.1-0.2,0-0.3l0.2-0.3c0.1-0.1,0.2-0.2,0.4-0.1c0.2,0.2,0.7,0.5,1.5,0.5
			c0.6,0,1-0.3,1-0.8c0-0.6-0.5-0.8-1.3-1.2c-0.8-0.4-1.7-0.8-1.7-1.8c0-0.6,0.5-1.6,1.9-1.6c0.8,0,1.4,0.3,1.7,0.5
			c0.1,0.1,0.2,0.2,0.1,0.4l-0.1,0.2c-0.1,0.2-0.3,0.2-0.4,0.1c-0.3-0.2-0.7-0.4-1.2-0.4c-0.7,0-0.9,0.4-0.9,0.7
			c0,0.5,0.4,0.7,1.1,1.1c1,0.5,1.9,0.9,1.9,2c0,0.9-0.8,1.7-2,1.7C311,113.9,310.4,113.5,310,113.2z"/>
	</g>
</g>
</svg>
