<?xml version="1.0" encoding="utf-8"?>
<!-- Generator: Adobe Illustrator 26.0.3, SVG Export Plug-In . SVG Version: 6.00 Build 0)  -->
<svg version="1.1" id="Capa_1" xmlns="http://www.w3.org/2000/svg" xmlns:xlink="http://www.w3.org/1999/xlink" x="0px" y="0px"
	 viewBox="0 0 312.5 225.8" style="enable-background:new 0 0 312.5 225.8;" xml:space="preserve">
<style type="text/css">
	.st0{fill:#007DC3;}
	.st1{fill:#4A5B6D;}
	.st2{fill:#6FCBDC;}
	.st3{fill:none;stroke:#FFFFFF;stroke-width:0.5;}
	.st4{fill:none;stroke:#FFFFFF;stroke-width:0.5;stroke-miterlimit:10;}
	.st5{fill:#60B4C3;}
</style>
<g>
	<g>
		<path class="st0" d="M258.8,171.4c0.2,0,0.4,0.2,0.4,0.4v1.8c0,0.2-0.2,0.4-0.4,0.4h-8.2c-0.2,0-0.4-0.2-0.4-0.4v-0.2
			c0-0.2,0-0.2,0.3-0.6c1.3-1.8,4.1-5.5,5.2-7.2c0.3-0.4,0.5-1,0.5-1.5c0-0.8-0.7-1.5-1.8-1.5c-0.8,0-1.5,0.5-2,1
			c-0.2,0.2-0.4,0.2-0.6,0l-1.3-1.3c-0.1-0.1-0.2-0.4,0-0.5c0.8-0.8,2.1-2,4.1-2c2.9,0,4.7,1.9,4.7,4.2c0,1.1-0.3,1.7-0.8,2.7
			c-0.6,1.2-2.3,3.3-3.3,4.7v0H258.8z"/>
		<path class="st0" d="M262.3,172.5c-0.1-0.3,0-0.5,0.4-0.6c1-0.3,3.6-1.2,4.1-3.3c-0.5,0.2-1.4,0.4-2,0.4c-1.9,0-4.1-1.4-4.1-4.5
			c0-2.6,2.1-4.7,4.7-4.7c3.2,0,5,2.4,5,5.6c0,6.1-4.8,8.4-6.9,9c-0.3,0.1-0.5,0-0.6-0.3L262.3,172.5z M267.5,164.6c0-1.1-0.9-2-2-2
			c-1.1,0-2,0.9-2,2c0,1.1,0.9,2,2,2C266.6,166.6,267.5,165.7,267.5,164.6z"/>
		<path class="st0" d="M272.2,162.6c-0.2,0-0.4-0.2-0.4-0.4v-1.9c0-0.2,0.2-0.4,0.4-0.4h8.7c0.2,0,0.3,0.1,0.3,0.3v0.1
			c0,0.1,0,0.1-0.1,0.3l-6.1,12.7c-0.2,0.5-0.5,0.6-0.8,0.6h-2c-0.2,0-0.4-0.2-0.4-0.4c0-0.2,0-0.3,0.1-0.5l5-10.5v0H272.2z"/>
		<path class="st0" d="M281.7,170.5c1.1,0,2.1,0.8,2.1,2.6c0,1.7-0.8,3-1.7,4.1c-0.2,0.1-0.3,0.1-0.5,0l-0.7-0.6
			c-0.1-0.2-0.1-0.3,0.1-0.5c0.5-0.6,1-1.4,1-2.1c0-0.1,0-0.1,0-0.2c-0.2,0.1-0.5,0.2-0.8,0.2c-1,0-1.5-0.8-1.5-1.7
			C279.8,171.3,280.6,170.5,281.7,170.5z"/>
		<path class="st0" d="M285.9,162.6c-0.2,0-0.4-0.2-0.4-0.4v-1.9c0-0.2,0.2-0.4,0.4-0.4h8.7c0.2,0,0.3,0.1,0.3,0.3v0.1
			c0,0.1,0,0.1-0.1,0.3l-6.1,12.7c-0.2,0.5-0.5,0.6-0.8,0.6h-2c-0.2,0-0.4-0.2-0.4-0.4c0-0.2,0-0.3,0.1-0.5l5-10.5v0H285.9z"/>
		<path class="st0" d="M295.9,171.8l1.3-1.3c0.1-0.1,0.4-0.1,0.5,0c0.8,0.6,1.5,1,2.5,1c1.1,0,2-0.8,2-2c0-1.3-0.8-2-2.1-2h-3.2
			c-0.4,0-0.6-0.4-0.6-0.7v-6.4c0-0.2,0.2-0.4,0.4-0.4h6.6c0.2,0,0.4,0.2,0.4,0.4v1.8c0,0.2-0.2,0.4-0.4,0.4H299v2.2h1.5
			c2.8,0,4.7,1.8,4.7,4.6c0,2.7-2.2,4.8-5.1,4.8c-2.1,0-3.6-1.1-4.1-1.7C295.7,172.2,295.7,172.1,295.9,171.8z"/>
		<path class="st0" d="M306.4,164.4c-0.2,0-0.4-0.2-0.4-0.4v-1.3c0-0.2,0.1-0.2,0.1-0.3l2.7-2.1c0.2-0.2,0.4-0.2,0.7-0.2h1.5
			c0.2,0,0.4,0.2,0.4,0.4v13.2c0,0.2-0.2,0.4-0.4,0.4h-2.3c-0.2,0-0.4-0.2-0.4-0.4v-9.3H306.4z"/>
	</g>
	<g>
		<path class="st1" d="M277.4,180.8c0-0.1,0.1-0.2,0.2-0.2h5.1c0.1,0,0.2,0.1,0.2,0.2v0.4c0,0.1-0.1,0.2-0.2,0.2h-4.4v3.2h3.7
			c0.1,0,0.2,0.1,0.2,0.2v0.4c0,0.1-0.1,0.2-0.2,0.2h-3.7v3.3h4.4c0.1,0,0.2,0.1,0.2,0.2v0.4c0,0.1-0.1,0.2-0.2,0.2h-5.1
			c-0.1,0-0.2-0.1-0.2-0.2V180.8z"/>
		<path class="st1" d="M289.1,192.7h-0.4c-0.2,0-0.3-0.1-0.3-0.3v-3.2c0,0-0.7,0.5-1.7,0.5c-1.7,0-2.8-1.4-2.8-3.1
			c0-1.7,1.2-3.1,2.8-3.1c0.8,0,1.5,0.4,1.8,0.6c0.1-0.3,0.3-0.5,0.6-0.5c0.1,0,0.2,0.1,0.2,0.2v8.6
			C289.4,192.6,289.3,192.7,289.1,192.7z M286.9,188.9c0.8,0,1.5-0.5,1.5-0.5v-3.3c0,0-0.6-0.7-1.6-0.7c-1.2,0-1.9,1.1-1.9,2.2
			C284.9,187.9,285.8,188.9,286.9,188.9z"/>
		<path class="st1" d="M291.4,183.9c0-0.1,0.1-0.3,0.3-0.3h0.4c0.2,0,0.3,0.1,0.3,0.3v3.2c0,1.2,0.4,1.7,1.3,1.7
			c0.9,0,1.4-0.6,1.7-0.9v-4.1c0-0.1,0.1-0.3,0.3-0.3h0.4c0.1,0,0.3,0.1,0.3,0.3v5.5c0,0.1-0.1,0.2-0.2,0.2c-0.4,0-0.6-0.3-0.6-0.7
			c-0.4,0.4-0.9,0.8-1.9,0.8c-1.7,0-2.1-1-2.1-2.6V183.9z"/>
		<path class="st1" d="M298,181.4c0-0.4,0.3-0.7,0.7-0.7c0.4,0,0.7,0.3,0.7,0.7c0,0.4-0.3,0.7-0.7,0.7
			C298.3,182.1,298,181.7,298,181.4z M298.2,183.9c0-0.1,0.1-0.3,0.3-0.3h0.4c0.1,0,0.3,0.1,0.3,0.3v5.4c0,0.2-0.1,0.3-0.3,0.3h-0.4
			c-0.2,0-0.3-0.1-0.3-0.3V183.9z"/>
		<path class="st1" d="M300.8,184.5c-0.2,0-0.3-0.1-0.3-0.3v-0.3c0-0.2,0.1-0.3,0.3-0.3h0.8V182c0-0.2,0.1-0.3,0.3-0.3l0.4,0
			c0.2,0,0.3,0.1,0.3,0.3v1.7h1.8c0.2,0,0.3,0.1,0.3,0.3v0.3c0,0.2-0.1,0.3-0.3,0.3h-1.8v3.5c0,0.6,0.4,0.9,0.8,0.9
			c0.4,0,0.7-0.1,0.9-0.3c0.2-0.1,0.3,0,0.4,0.1l0.1,0.3c0.1,0.2,0.1,0.3-0.1,0.4c-0.3,0.2-0.8,0.4-1.4,0.4c-1.1,0-1.7-0.8-1.7-1.8
			v-3.5H300.8z"/>
		<path class="st1" d="M306.7,192.4l1.1-2.7l-2.2-5.7c-0.1-0.2,0-0.3,0.2-0.3h0.5c0.1,0,0.2,0.1,0.3,0.2l1.7,4.8h0l2-4.8
			c0-0.1,0.1-0.2,0.3-0.2h0.5c0.2,0,0.3,0.1,0.2,0.3l-3.8,8.6c0,0.1-0.2,0.2-0.3,0.2H307C306.8,192.7,306.7,192.6,306.7,192.4z"/>
	</g>
	<g>
		<path class="st1" d="M251.8,201.4c0.6,0,1.3,0.2,1.3,0.2c0-1.1-0.5-1.7-1.4-1.7c-0.7,0-1.1,0.3-1.4,0.4c-0.2,0.1-0.2,0-0.3-0.2
			l-0.1-0.4c-0.1-0.2,0-0.3,0.2-0.3c0.3-0.1,0.8-0.4,1.7-0.4c1.5,0,2.2,0.9,2.2,2.5v3.4c0,0.1-0.1,0.2-0.2,0.2
			c-0.4,0-0.6-0.3-0.6-0.7c-0.3,0.3-0.9,0.8-1.9,0.8c-1.1,0-1.9-0.8-1.9-2C249.4,202.3,250.2,201.4,251.8,201.4z M251.4,204.5
			c0.7,0,1.4-0.4,1.7-0.8v-1.2c-0.2-0.1-0.7-0.2-1.3-0.2c-0.8,0-1.5,0.4-1.5,1.2C250.3,204,250.7,204.5,251.4,204.5z"/>
		<path class="st1" d="M255.9,199.4c0-0.1,0.1-0.2,0.2-0.2c0.4,0,0.6,0.3,0.6,0.7c0.4-0.3,1.1-0.8,2-0.8c1.7,0,2.2,1.1,2.2,2.7v3.2
			c0,0.2-0.1,0.3-0.3,0.3h-0.4c-0.2,0-0.3-0.1-0.3-0.3v-3.3c0-1.1-0.4-1.7-1.3-1.7c-1.1,0-1.8,0.8-1.8,0.8v4.1
			c0,0.2-0.1,0.3-0.3,0.3h-0.4c-0.2,0-0.3-0.1-0.3-0.3V199.4z"/>
		<path class="st1" d="M265.4,199.1c1,0,1.7,0.4,1.7,0.4v-3.1c0-0.1,0.1-0.3,0.3-0.3h0.4c0.2,0,0.3,0.1,0.3,0.3v8.6
			c0,0.1-0.1,0.2-0.2,0.2c-0.4,0-0.6-0.3-0.6-0.7c-0.4,0.4-1.1,0.8-1.9,0.8c-1.5,0-2.7-1.4-2.7-3.2
			C262.5,200.5,263.6,199.1,265.4,199.1z M265.3,204.5c1.1,0,1.7-1,1.7-1v-3.2c0,0-0.7-0.3-1.5-0.3c-1.3,0-2,1.1-2,2.3
			C263.5,203.4,264.3,204.5,265.3,204.5z"/>
		<path class="st1" d="M277.5,196c2.6,0,4.7,2.1,4.7,4.7c0,2.6-2.1,4.7-4.7,4.7c-2.6,0-4.7-2.1-4.7-4.7
			C272.8,198.1,274.9,196,277.5,196z M277.5,204.4c2.1,0,3.8-1.7,3.8-3.8s-1.7-3.8-3.8-3.8s-3.8,1.7-3.8,3.8
			S275.4,204.4,277.5,204.4z"/>
		<path class="st1" d="M283.6,200.1c-0.2,0-0.3-0.1-0.3-0.3v-0.3c0-0.2,0.1-0.3,0.3-0.3h0.8v-1.7c0-0.2,0.1-0.3,0.3-0.3l0.4,0
			c0.2,0,0.3,0.1,0.3,0.3v1.7h1.8c0.2,0,0.3,0.1,0.3,0.3v0.3c0,0.2-0.1,0.3-0.3,0.3h-1.8v3.5c0,0.6,0.4,0.9,0.8,0.9
			c0.4,0,0.7-0.1,0.9-0.3c0.2-0.1,0.3,0,0.4,0.1l0.1,0.3c0.1,0.2,0.1,0.3-0.1,0.4c-0.3,0.2-0.8,0.4-1.4,0.4c-1.1,0-1.7-0.8-1.7-1.8
			v-3.5H283.6z"/>
		<path class="st1" d="M288.9,196.4c0-0.1,0.1-0.3,0.3-0.3h0.4c0.1,0,0.3,0.1,0.3,0.3v3.4c0,0,0.7-0.8,1.9-0.8
			c1.5,0,2.2,0.9,2.2,2.7v3.2c0,0.2-0.1,0.3-0.3,0.3h-0.4c-0.2,0-0.3-0.1-0.3-0.3v-3.2c0-1.1-0.3-1.8-1.3-1.8
			c-1.1,0-1.8,0.9-1.8,0.9v4.1c0,0.2-0.1,0.3-0.3,0.3h-0.4c-0.2,0-0.3-0.1-0.3-0.3V196.4z"/>
		<path class="st1" d="M298.4,199.1c1.6,0,2.7,1.2,2.7,2.7c0,0.1,0,0.3,0,0.4c0,0.2-0.1,0.3-0.3,0.3h-4.4c0,1,0.9,2.1,2,2.1
			c0.8,0,1.3-0.3,1.6-0.5c0.2-0.1,0.3-0.2,0.5,0l0.2,0.2c0.1,0.2,0.2,0.2-0.1,0.4c-0.4,0.3-1.2,0.7-2.2,0.7c-1.8,0-2.9-1.4-2.9-3.1
			C295.5,200.5,296.6,199.1,298.4,199.1z M300.2,201.7c0-0.9-0.7-1.7-1.8-1.7c-1,0-1.8,0.8-1.9,1.7H300.2z"/>
		<path class="st1" d="M302.7,199.4c0-0.1,0.1-0.2,0.2-0.2c0.4,0,0.6,0.3,0.6,0.7c0.3-0.3,0.9-0.8,1.8-0.8c0.5,0,1.2,0.1,1.1,0.5
			l-0.2,0.5c-0.1,0.2-0.2,0.2-0.4,0.1c-0.1-0.1-0.4-0.2-0.6-0.2c-1.2,0-1.6,0.8-1.6,0.8v4.2c0,0.2-0.1,0.3-0.3,0.3H303
			c-0.2,0-0.3-0.1-0.3-0.3V199.4z"/>
		<path class="st1" d="M307.4,204.6c-0.1-0.1-0.1-0.2,0-0.3l0.2-0.3c0.1-0.1,0.2-0.2,0.4-0.1c0.2,0.2,0.7,0.5,1.5,0.5
			c0.6,0,1-0.3,1-0.8c0-0.6-0.5-0.8-1.3-1.2c-0.8-0.4-1.7-0.8-1.7-1.8c0-0.6,0.5-1.6,1.9-1.6c0.8,0,1.4,0.3,1.7,0.5
			c0.1,0.1,0.2,0.2,0.1,0.4l-0.1,0.2c-0.1,0.2-0.3,0.2-0.4,0.1c-0.3-0.2-0.7-0.4-1.2-0.4c-0.7,0-0.9,0.4-0.9,0.7
			c0,0.5,0.4,0.7,1.1,1.1c1,0.5,1.9,0.9,1.9,2c0,0.9-0.8,1.7-2,1.7C308.4,205.4,307.7,204.9,307.4,204.6z"/>
	</g>
	<rect x="0.2" y="0.4" class="st2" width="22.4" height="22.4"/>
	<g>
		<rect x="0.2" y="0.4" class="st3" width="22.4" height="22.4"/>
	</g>
	<rect x="22.8" y="0.4" class="st2" width="22.4" height="22.4"/>
	<rect x="22.8" y="0.4" class="st3" width="22.4" height="22.4"/>
	<rect x="45.3" y="0.4" class="st2" width="22.4" height="22.4"/>
	<rect x="45.3" y="0.4" class="st3" width="22.4" height="22.4"/>
	<rect x="67.8" y="0.4" class="st2" width="22.4" height="22.4"/>
	<rect x="67.8" y="0.4" class="st3" width="22.4" height="22.4"/>
	<rect x="90.4" y="0.4" class="st2" width="22.4" height="22.4"/>
	<rect x="90.4" y="0.4" class="st3" width="22.4" height="22.4"/>
	<rect x="112.9" y="0.4" class="st2" width="22.4" height="22.4"/>
	<rect x="112.9" y="0.4" class="st3" width="22.4" height="22.4"/>
	<rect x="135.4" y="0.4" class="st2" width="22.4" height="22.4"/>
	<rect x="135.4" y="0.4" class="st3" width="22.4" height="22.4"/>
	<rect x="157.9" y="0.4" class="st2" width="22.4" height="22.4"/>
	<rect x="157.9" y="0.4" class="st3" width="22.4" height="22.4"/>
	<rect x="180.5" y="0.4" class="st2" width="22.4" height="22.4"/>
	<rect x="180.5" y="0.4" class="st3" width="22.4" height="22.4"/>
	<rect x="203" y="0.4" class="st2" width="22.4" height="22.4"/>
	<rect x="203" y="0.4" class="st3" width="22.4" height="22.4"/>
	<rect x="0.2" y="22.9" class="st2" width="22.4" height="22.4"/>
	<g>
		<rect x="0.2" y="22.9" class="st3" width="22.4" height="22.4"/>
	</g>
	<rect x="22.8" y="22.9" class="st2" width="22.4" height="22.4"/>
	<rect x="22.8" y="22.9" class="st3" width="22.4" height="22.4"/>
	<rect x="45.3" y="22.9" class="st2" width="22.4" height="22.4"/>
	<rect x="45.3" y="22.9" class="st3" width="22.4" height="22.4"/>
	<rect x="67.8" y="22.9" class="st2" width="22.4" height="22.4"/>
	<rect x="67.8" y="22.9" class="st3" width="22.4" height="22.4"/>
	<rect x="90.4" y="22.9" class="st2" width="22.4" height="22.4"/>
	<rect x="90.4" y="22.9" class="st3" width="22.4" height="22.4"/>
	<rect x="112.9" y="22.9" class="st2" width="22.4" height="22.4"/>
	<rect x="112.9" y="22.9" class="st3" width="22.4" height="22.4"/>
	<rect x="135.4" y="22.9" class="st2" width="22.4" height="22.4"/>
	<rect x="135.4" y="22.9" class="st3" width="22.4" height="22.4"/>
	<rect x="157.9" y="22.9" class="st2" width="22.4" height="22.4"/>
	<rect x="157.9" y="22.9" class="st3" width="22.4" height="22.4"/>
	<rect x="180.5" y="22.9" class="st2" width="22.4" height="22.4"/>
	<rect x="180.5" y="22.9" class="st3" width="22.4" height="22.4"/>
	<rect x="203" y="22.9" class="st2" width="22.4" height="22.4"/>
	<rect x="203" y="22.9" class="st3" width="22.4" height="22.4"/>
	<rect x="0.2" y="45.5" class="st2" width="22.4" height="22.4"/>
	<g>
		<rect x="0.2" y="45.5" class="st3" width="22.4" height="22.4"/>
	</g>
	<rect x="22.8" y="45.5" class="st2" width="22.4" height="22.4"/>
	<rect x="22.8" y="45.5" class="st3" width="22.4" height="22.4"/>
	<rect x="45.3" y="45.5" class="st2" width="22.4" height="22.4"/>
	<rect x="45.3" y="45.5" class="st3" width="22.4" height="22.4"/>
	<rect x="67.8" y="45.5" class="st2" width="22.4" height="22.4"/>
	<rect x="67.8" y="45.5" class="st3" width="22.4" height="22.4"/>
	<rect x="90.4" y="45.5" class="st2" width="22.4" height="22.4"/>
	<rect x="90.4" y="45.5" class="st3" width="22.4" height="22.4"/>
	<rect x="112.9" y="45.5" class="st2" width="22.4" height="22.4"/>
	<rect x="112.9" y="45.5" class="st3" width="22.4" height="22.4"/>
	<rect x="135.4" y="45.5" class="st2" width="22.4" height="22.4"/>
	<rect x="135.4" y="45.5" class="st3" width="22.4" height="22.4"/>
	<rect x="157.9" y="45.5" class="st2" width="22.4" height="22.4"/>
	<rect x="157.9" y="45.5" class="st3" width="22.4" height="22.4"/>
	<rect x="180.5" y="45.5" class="st2" width="22.4" height="22.4"/>
	<rect x="180.5" y="45.5" class="st3" width="22.4" height="22.4"/>
	<rect x="203" y="45.5" class="st2" width="22.4" height="22.4"/>
	<rect x="203" y="45.5" class="st3" width="22.4" height="22.4"/>
	<rect x="0.2" y="68" class="st2" width="22.4" height="22.4"/>
	<g>
		<rect x="0.2" y="68" class="st3" width="22.4" height="22.4"/>
	</g>
	<rect x="22.8" y="68" class="st2" width="22.4" height="22.4"/>
	<rect x="22.8" y="68" class="st3" width="22.4" height="22.4"/>
	<rect x="45.3" y="68" class="st2" width="22.4" height="22.4"/>
	<rect x="45.3" y="68" class="st3" width="22.4" height="22.4"/>
	<rect x="67.8" y="68" class="st2" width="22.4" height="22.4"/>
	<rect x="67.8" y="68" class="st3" width="22.4" height="22.4"/>
	<rect x="90.4" y="68" class="st0" width="22.4" height="22.4"/>
	<rect x="90.4" y="68" class="st4" width="22.4" height="22.4"/>
	<rect x="112.9" y="68" class="st0" width="22.4" height="22.4"/>
	<rect x="112.9" y="68" class="st4" width="22.4" height="22.4"/>
	<rect x="135.4" y="68" class="st0" width="22.4" height="22.4"/>
	<rect x="135.4" y="68" class="st4" width="22.4" height="22.4"/>
	<rect x="157.9" y="68" class="st0" width="22.4" height="22.4"/>
	<rect x="157.9" y="68" class="st4" width="22.4" height="22.4"/>
	<rect x="180.5" y="68" class="st0" width="22.4" height="22.4"/>
	<rect x="180.5" y="68" class="st4" width="22.4" height="22.4"/>
	<rect x="203" y="68" class="st0" width="22.4" height="22.4"/>
	<rect x="203" y="68" class="st4" width="22.4" height="22.4"/>
	<rect x="0.2" y="90.5" class="st0" width="22.4" height="22.4"/>
	<g>
		<rect x="0.2" y="90.5" class="st4" width="22.4" height="22.4"/>
	</g>
	<rect x="22.8" y="90.5" class="st0" width="22.4" height="22.4"/>
	<rect x="22.8" y="90.5" class="st4" width="22.4" height="22.4"/>
	<rect x="45.3" y="90.5" class="st0" width="22.4" height="22.4"/>
	<rect x="45.3" y="90.5" class="st4" width="22.4" height="22.4"/>
	<rect x="67.8" y="90.5" class="st0" width="22.4" height="22.4"/>
	<rect x="67.8" y="90.5" class="st4" width="22.4" height="22.4"/>
	<rect x="90.4" y="90.5" class="st0" width="22.4" height="22.4"/>
	<rect x="90.4" y="90.5" class="st4" width="22.4" height="22.4"/>
	<rect x="112.9" y="90.5" class="st0" width="22.4" height="22.4"/>
	<rect x="112.9" y="90.5" class="st4" width="22.4" height="22.4"/>
	<rect x="135.4" y="90.5" class="st0" width="22.4" height="22.4"/>
	<rect x="135.4" y="90.5" class="st4" width="22.4" height="22.4"/>
	<rect x="157.9" y="90.5" class="st0" width="22.4" height="22.4"/>
	<rect x="157.9" y="90.5" class="st4" width="22.4" height="22.4"/>
	<rect x="180.5" y="90.5" class="st0" width="22.4" height="22.4"/>
	<rect x="180.5" y="90.5" class="st4" width="22.4" height="22.4"/>
	<rect x="203" y="90.5" class="st0" width="22.4" height="22.4"/>
	<rect x="203" y="90.5" class="st4" width="22.4" height="22.4"/>
	<rect x="0.2" y="113" class="st0" width="22.4" height="22.4"/>
	<g>
		<rect x="0.2" y="113" class="st4" width="22.4" height="22.4"/>
	</g>
	<rect x="22.8" y="113" class="st0" width="22.4" height="22.4"/>
	<rect x="22.8" y="113" class="st4" width="22.4" height="22.4"/>
	<rect x="45.3" y="113" class="st0" width="22.4" height="22.4"/>
	<rect x="45.3" y="113" class="st4" width="22.4" height="22.4"/>
	<rect x="67.8" y="113" class="st0" width="22.4" height="22.4"/>
	<rect x="67.8" y="113" class="st4" width="22.4" height="22.4"/>
	<rect x="90.4" y="113" class="st0" width="22.4" height="22.4"/>
	<rect x="90.4" y="113" class="st4" width="22.4" height="22.4"/>
	<rect x="112.9" y="113" class="st0" width="22.4" height="22.4"/>
	<rect x="112.9" y="113" class="st4" width="22.4" height="22.4"/>
	<rect x="135.4" y="113" class="st0" width="22.4" height="22.4"/>
	<rect x="135.4" y="113" class="st4" width="22.4" height="22.4"/>
	<rect x="157.9" y="113" class="st0" width="22.4" height="22.4"/>
	<rect x="157.9" y="113" class="st4" width="22.4" height="22.4"/>
	<rect x="180.5" y="113" class="st0" width="22.4" height="22.4"/>
	<rect x="180.5" y="113" class="st4" width="22.4" height="22.4"/>
	<rect x="203" y="113" class="st0" width="22.4" height="22.4"/>
	<rect x="203" y="113" class="st4" width="22.4" height="22.4"/>
	<rect x="0.2" y="135.6" class="st0" width="22.4" height="22.4"/>
	<g>
		<rect x="0.2" y="135.6" class="st4" width="22.4" height="22.4"/>
	</g>
	<rect x="22.8" y="135.6" class="st0" width="22.4" height="22.4"/>
	<rect x="22.8" y="135.6" class="st4" width="22.4" height="22.4"/>
	<rect x="45.3" y="135.6" class="st0" width="22.4" height="22.4"/>
	<rect x="45.3" y="135.6" class="st4" width="22.4" height="22.4"/>
	<rect x="67.8" y="135.6" class="st0" width="22.4" height="22.4"/>
	<rect x="67.8" y="135.6" class="st4" width="22.4" height="22.4"/>
	<rect x="90.4" y="135.6" class="st0" width="22.4" height="22.4"/>
	<rect x="90.4" y="135.6" class="st4" width="22.4" height="22.4"/>
	<rect x="112.9" y="135.6" class="st0" width="22.4" height="22.4"/>
	<rect x="112.9" y="135.6" class="st4" width="22.4" height="22.4"/>
	<rect x="135.4" y="135.6" class="st0" width="22.4" height="22.4"/>
	<rect x="135.4" y="135.6" class="st4" width="22.4" height="22.4"/>
	<rect x="157.9" y="135.6" class="st0" width="22.4" height="22.4"/>
	<rect x="157.9" y="135.6" class="st4" width="22.4" height="22.4"/>
	<rect x="180.5" y="135.6" class="st0" width="22.4" height="22.4"/>
	<rect x="180.5" y="135.6" class="st4" width="22.4" height="22.4"/>
	<rect x="203" y="135.6" class="st0" width="22.4" height="22.4"/>
	<rect x="203" y="135.6" class="st4" width="22.4" height="22.4"/>
	<rect x="0.2" y="158.1" class="st0" width="22.4" height="22.4"/>
	<g>
		<rect x="0.2" y="158.1" class="st4" width="22.4" height="22.4"/>
	</g>
	<rect x="22.8" y="158.1" class="st0" width="22.4" height="22.4"/>
	<rect x="22.8" y="158.1" class="st4" width="22.4" height="22.4"/>
	<rect x="45.3" y="158.1" class="st0" width="22.4" height="22.4"/>
	<rect x="45.3" y="158.1" class="st4" width="22.4" height="22.4"/>
	<rect x="67.8" y="158.1" class="st0" width="22.4" height="22.4"/>
	<rect x="67.8" y="158.1" class="st4" width="22.4" height="22.4"/>
	<rect x="90.4" y="158.1" class="st0" width="22.4" height="22.4"/>
	<rect x="90.4" y="158.1" class="st4" width="22.4" height="22.4"/>
	<rect x="112.9" y="158.1" class="st0" width="22.4" height="22.4"/>
	<rect x="112.9" y="158.1" class="st4" width="22.4" height="22.4"/>
	<rect x="135.4" y="158.1" class="st0" width="22.4" height="22.4"/>
	<rect x="135.4" y="158.1" class="st4" width="22.4" height="22.4"/>
	<rect x="157.9" y="158.1" class="st0" width="22.4" height="22.4"/>
	<rect x="157.9" y="158.1" class="st4" width="22.4" height="22.4"/>
	<rect x="180.5" y="158.1" class="st0" width="22.4" height="22.4"/>
	<rect x="180.5" y="158.1" class="st4" width="22.4" height="22.4"/>
	<rect x="203" y="158.1" class="st0" width="22.4" height="22.4"/>
	<rect x="203" y="158.1" class="st4" width="22.4" height="22.4"/>
	<rect x="0.2" y="180.6" class="st0" width="22.4" height="22.4"/>
	<g>
		<rect x="0.2" y="180.6" class="st4" width="22.4" height="22.4"/>
	</g>
	<rect x="22.8" y="180.6" class="st0" width="22.4" height="22.4"/>
	<rect x="22.8" y="180.6" class="st4" width="22.4" height="22.4"/>
	<rect x="45.3" y="180.6" class="st0" width="22.4" height="22.4"/>
	<rect x="45.3" y="180.6" class="st4" width="22.4" height="22.4"/>
	<rect x="67.8" y="180.6" class="st0" width="22.4" height="22.4"/>
	<rect x="67.8" y="180.6" class="st4" width="22.4" height="22.4"/>
	<rect x="90.4" y="180.6" class="st0" width="22.4" height="22.4"/>
	<rect x="90.4" y="180.6" class="st4" width="22.4" height="22.4"/>
	<rect x="112.9" y="180.6" class="st0" width="22.4" height="22.4"/>
	<rect x="112.9" y="180.6" class="st4" width="22.4" height="22.4"/>
	<rect x="135.4" y="180.6" class="st0" width="22.4" height="22.4"/>
	<rect x="135.4" y="180.6" class="st4" width="22.4" height="22.4"/>
	<rect x="157.9" y="180.6" class="st0" width="22.4" height="22.4"/>
	<rect x="157.9" y="180.6" class="st4" width="22.4" height="22.4"/>
	<rect x="180.5" y="180.6" class="st0" width="22.4" height="22.4"/>
	<rect x="180.5" y="180.6" class="st4" width="22.4" height="22.4"/>
	<rect x="203" y="180.6" class="st0" width="22.4" height="22.4"/>
	<rect x="203" y="180.6" class="st4" width="22.4" height="22.4"/>
	<rect x="0.2" y="203.1" class="st0" width="22.4" height="22.4"/>
	<g>
		<rect x="0.2" y="203.1" class="st4" width="22.4" height="22.4"/>
	</g>
	<rect x="22.8" y="203.1" class="st0" width="22.4" height="22.4"/>
	<g>
		<rect x="22.8" y="203.1" class="st4" width="22.4" height="22.4"/>
	</g>
	<rect x="45.3" y="203.1" class="st0" width="22.4" height="22.4"/>
	<g>
		<rect x="45.3" y="203.1" class="st4" width="22.4" height="22.4"/>
	</g>
	<rect x="67.8" y="203.1" class="st0" width="22.4" height="22.4"/>
	<g>
		<rect x="67.8" y="203.1" class="st4" width="22.4" height="22.4"/>
	</g>
	<rect x="90.4" y="203.1" class="st0" width="22.4" height="22.4"/>
	<g>
		<rect x="90.4" y="203.1" class="st4" width="22.4" height="22.4"/>
	</g>
	<rect x="112.9" y="203.1" class="st0" width="22.4" height="22.4"/>
	<g>
		<rect x="112.9" y="203.1" class="st4" width="22.4" height="22.4"/>
	</g>
	<rect x="135.4" y="203.1" class="st0" width="22.4" height="22.4"/>
	<g>
		<rect x="135.4" y="203.1" class="st4" width="22.4" height="22.4"/>
	</g>
	<rect x="157.9" y="203.1" class="st0" width="22.4" height="22.4"/>
	<g>
		<rect x="157.9" y="203.1" class="st4" width="22.4" height="22.4"/>
	</g>
	<rect x="180.5" y="203.1" class="st0" width="22.4" height="22.4"/>
	<g>
		<rect x="180.5" y="203.1" class="st4" width="22.4" height="22.4"/>
	</g>
	<rect x="203" y="203.1" class="st0" width="22.4" height="22.4"/>
	<g>
		<rect x="203" y="203.1" class="st4" width="22.4" height="22.4"/>
	</g>
	<g>
		<path class="st5" d="M253.3,14.6c-0.1-0.3,0-0.5,0.4-0.6c1-0.3,3.6-1.2,4.1-3.3c-0.5,0.2-1.4,0.4-2,0.4c-1.9,0-4.1-1.4-4.1-4.5
			c0-2.6,2.1-4.7,4.7-4.7c3.2,0,5,2.4,5,5.6c0,6.1-4.8,8.4-6.9,9c-0.3,0.1-0.5,0-0.6-0.3L253.3,14.6z M258.5,6.8c0-1.1-0.9-2-2-2
			c-1.1,0-2,0.9-2,2c0,1.1,0.9,2,2,2C257.6,8.8,258.5,7.9,258.5,6.8z"/>
		<path class="st5" d="M270,1.8c0.3-0.1,0.5,0,0.6,0.3l0.6,1.6c0.1,0.2,0,0.5-0.4,0.6c-1,0.3-3.6,1.3-4.1,3.3c0.5-0.2,1.4-0.4,2-0.4
			c1.9,0,4.1,1.4,4.1,4.5c0,2.6-2.1,4.7-4.7,4.7c-3.2,0-5-2.4-5-5.6C263.1,4.7,268.1,2.3,270,1.8z M268,13.5c1.1,0,2-0.9,2-2
			c0-1.1-0.9-2-2-2c-1.1,0-2,0.9-2,2C266,12.6,266.9,13.5,268,13.5z"/>
		<path class="st5" d="M276.1,12.7c1.1,0,2.1,0.8,2.1,2.6c0,1.7-0.8,3-1.7,4.1c-0.2,0.1-0.3,0.1-0.5,0l-0.7-0.6
			c-0.1-0.2-0.1-0.3,0.1-0.5c0.5-0.6,1-1.4,1-2.1c0-0.1,0-0.1,0-0.2c-0.2,0.1-0.5,0.2-0.8,0.2c-1,0-1.5-0.8-1.5-1.7
			C274.2,13.4,275,12.7,276.1,12.7z"/>
		<path class="st5" d="M286.7,1.8c0.3-0.1,0.5,0,0.6,0.3l0.6,1.6c0.1,0.2,0,0.5-0.4,0.6c-1,0.3-3.6,1.3-4.1,3.3
			c0.5-0.2,1.4-0.4,2-0.4c1.9,0,4.1,1.4,4.1,4.5c0,2.6-2.1,4.7-4.7,4.7c-3.2,0-5-2.4-5-5.6C279.8,4.7,284.8,2.3,286.7,1.8z
			 M284.7,13.5c1.1,0,2-0.9,2-2c0-1.1-0.9-2-2-2c-1.1,0-2,0.9-2,2C282.7,12.6,283.6,13.5,284.7,13.5z"/>
		<path class="st5" d="M290.8,14.1l1.2-1.3c0.1-0.1,0.4-0.2,0.5,0c0.5,0.4,1.2,0.9,2.3,0.9c1,0,1.8-0.6,1.8-1.6c0-1-0.9-1.7-2.4-1.7
			H293c-0.2,0-0.4-0.2-0.4-0.4V8.2c0-0.2,0.2-0.4,0.4-0.4h1.2c1.4,0,2.2-0.7,2.2-1.6c0-0.9-0.6-1.6-1.6-1.6c-0.9,0-1.5,0.5-1.8,0.8
			c-0.1,0.2-0.4,0.2-0.6,0l-1.3-1.2c-0.2-0.1-0.1-0.4,0-0.5C291.8,3,293,2,295,2c2.4,0,4.5,1.5,4.5,3.8c0,1.6-1.2,2.7-2.1,3.2V9
			c1.1,0.4,2.5,1.4,2.5,3.3c0,2.2-2,4.1-4.8,4.1c-2.6,0-3.8-1.2-4.2-1.8C290.7,14.4,290.7,14.2,290.8,14.1z"/>
		<path class="st5" d="M303.9,9L303.9,9c-1.1-0.7-2.1-1.6-2.1-3.2c0-2.3,2.1-3.8,4.6-3.8c2.6,0,4.7,1.5,4.7,3.8
			c0,1.6-1.1,2.6-2.1,3.1V9c1.2,0.5,2.5,1.7,2.5,3.5c0,2.4-2,3.9-5.1,3.9c-3,0-5-1.5-5-3.9C301.4,10.6,302.9,9.4,303.9,9z
			 M306.5,13.8c1,0,1.7-0.7,1.7-1.6c0-0.8-0.6-1.5-1.7-1.9c-1.1,0.4-1.7,1.1-1.7,1.9C304.8,13.2,305.4,13.8,306.5,13.8z M307.9,5.9
			c0-0.7-0.6-1.3-1.5-1.3c-0.9,0-1.4,0.6-1.4,1.3c0,0.7,0.5,1.3,1.4,1.7C307.4,7.2,307.9,6.6,307.9,5.9z"/>
	</g>
	<g>
		<path class="st1" d="M259.5,31.4l4-8.7c0-0.1,0.1-0.1,0.2-0.1h0.1c0.1,0,0.2,0.1,0.2,0.1l3.9,8.7c0.1,0.2,0,0.3-0.2,0.3h-0.5
			c-0.1,0-0.2-0.1-0.2-0.1l-1-2.1h-4.6l-0.9,2.1c0,0.1-0.1,0.1-0.2,0.1h-0.5C259.5,31.8,259.4,31.6,259.5,31.4z M265.6,28.7
			c-0.6-1.4-1.3-2.8-1.9-4.3h-0.1l-1.9,4.3H265.6z"/>
		<path class="st1" d="M271.7,25.6c0.9,0,1.6,0.4,2.2,1c0.1,0.1,0.1,0.3-0.1,0.4l-0.2,0.2c-0.2,0.2-0.3,0-0.4-0.1
			c-0.4-0.5-0.9-0.7-1.5-0.7c-1.1,0-2.1,1-2.1,2.3c0,1.3,0.9,2.3,2,2.3c0.9,0,1.3-0.5,1.6-0.9c0.2-0.2,0.3-0.1,0.5,0l0.1,0.1
			c0.1,0.1,0.2,0.3,0.1,0.4c-0.5,0.7-1.3,1.2-2.3,1.2c-1.8,0-3-1.3-3-3.1C268.6,27,269.9,25.6,271.7,25.6z"/>
		<path class="st1" d="M278.1,25.6c0.9,0,1.6,0.4,2.2,1c0.1,0.1,0.1,0.3-0.1,0.4l-0.2,0.2c-0.2,0.2-0.3,0-0.4-0.1
			c-0.4-0.5-0.9-0.7-1.5-0.7c-1.1,0-2.1,1-2.1,2.3c0,1.3,0.9,2.3,2,2.3c0.9,0,1.3-0.5,1.6-0.9c0.2-0.2,0.3-0.1,0.5,0l0.1,0.1
			c0.1,0.1,0.2,0.3,0.1,0.4c-0.5,0.7-1.3,1.2-2.3,1.2c-1.8,0-3-1.3-3-3.1C275,27,276.3,25.6,278.1,25.6z"/>
		<path class="st1" d="M284.4,25.6c1.7,0,3,1.4,3,3.1c0,1.7-1.4,3.2-3,3.2s-3-1.4-3-3.2C281.4,27.1,282.7,25.6,284.4,25.6z
			 M284.4,31c1.2,0,2.1-1,2.1-2.3c0-1.2-0.9-2.2-2.1-2.2c-1.2,0-2.1,1-2.1,2.2C282.3,30,283.2,31,284.4,31z"/>
		<path class="st1" d="M289,26c0-0.1,0.1-0.3,0.3-0.3h0.4c0.2,0,0.3,0.1,0.3,0.3v3.3c0,1.2,0.4,1.7,1.3,1.7c0.9,0,1.4-0.6,1.7-0.9
			V26c0-0.1,0.1-0.3,0.3-0.3h0.4c0.1,0,0.3,0.1,0.3,0.3v5.5c0,0.1-0.1,0.2-0.2,0.2c-0.4,0-0.6-0.3-0.6-0.7c-0.4,0.4-0.9,0.8-1.9,0.8
			c-1.7,0-2.1-1-2.1-2.6V26z"/>
		<path class="st1" d="M295.8,25.9c0-0.1,0.1-0.2,0.2-0.2c0.4,0,0.6,0.3,0.6,0.7c0.4-0.3,1.1-0.8,2-0.8c1.7,0,2.2,1.1,2.2,2.7v3.2
			c0,0.2-0.1,0.3-0.3,0.3h-0.4c-0.2,0-0.3-0.1-0.3-0.3v-3.3c0-1.1-0.4-1.7-1.3-1.7c-1.1,0-1.8,0.8-1.8,0.8v4.1
			c0,0.2-0.1,0.3-0.3,0.3h-0.4c-0.2,0-0.3-0.1-0.3-0.3V25.9z"/>
		<path class="st1" d="M302.3,26.6c-0.2,0-0.3-0.1-0.3-0.3V26c0-0.2,0.1-0.3,0.3-0.3h0.8v-1.7c0-0.2,0.1-0.3,0.3-0.3l0.4,0
			c0.2,0,0.3,0.1,0.3,0.3v1.7h1.8c0.2,0,0.3,0.1,0.3,0.3v0.3c0,0.2-0.1,0.3-0.3,0.3H304v3.5c0,0.6,0.4,0.9,0.8,0.9
			c0.4,0,0.7-0.1,0.9-0.3c0.2-0.1,0.3,0,0.4,0.1l0.1,0.3c0.1,0.2,0.1,0.3-0.1,0.4c-0.3,0.2-0.8,0.4-1.4,0.4c-1.1,0-1.7-0.8-1.7-1.8
			v-3.5H302.3z"/>
		<path class="st1" d="M307.4,31.2c-0.1-0.1-0.1-0.2,0-0.3l0.2-0.3c0.1-0.1,0.2-0.2,0.4-0.1c0.2,0.2,0.7,0.5,1.5,0.5
			c0.6,0,1-0.3,1-0.8c0-0.6-0.5-0.8-1.3-1.2c-0.8-0.4-1.7-0.8-1.7-1.8c0-0.6,0.5-1.6,1.9-1.6c0.8,0,1.4,0.3,1.7,0.5
			c0.1,0.1,0.2,0.2,0.1,0.4l-0.1,0.2c-0.1,0.2-0.3,0.2-0.4,0.1c-0.3-0.2-0.7-0.4-1.2-0.4c-0.7,0-0.9,0.4-0.9,0.7
			c0,0.5,0.4,0.7,1.1,1.1c1,0.5,1.9,0.9,1.9,2c0,0.9-0.8,1.7-2,1.7C308.4,31.9,307.7,31.5,307.4,31.2z"/>
	</g>
	<g>
		<path class="st1" d="M270.3,38.5c0-0.1,0.1-0.2,0.2-0.2h2.9c1.6,0,2.9,1.3,2.9,2.9c0,1.6-1.3,2.9-2.9,2.9h-2.1v3.1
			c0,0.1-0.1,0.2-0.2,0.2h-0.5c-0.1,0-0.2-0.1-0.2-0.2V38.5z M273.3,43.1c1.1,0,2-0.8,2-2c0-1.2-0.9-1.9-2-1.9h-2.1v3.8H273.3z"/>
		<path class="st1" d="M279.6,43.5c0.6,0,1.3,0.2,1.3,0.2c0-1.1-0.5-1.7-1.4-1.7c-0.7,0-1.1,0.3-1.4,0.4c-0.2,0.1-0.2,0-0.3-0.2
			l-0.1-0.4c-0.1-0.2,0-0.3,0.2-0.3c0.3-0.1,0.8-0.4,1.7-0.4c1.5,0,2.2,0.9,2.2,2.5v3.4c0,0.1-0.1,0.2-0.2,0.2
			c-0.4,0-0.6-0.3-0.6-0.7c-0.3,0.3-0.9,0.8-1.9,0.8c-1.1,0-1.9-0.8-1.9-2C277.2,44.4,278,43.5,279.6,43.5z M279.2,46.6
			c0.7,0,1.4-0.4,1.7-0.8v-1.2c-0.2-0.1-0.7-0.2-1.3-0.2c-0.8,0-1.5,0.4-1.5,1.2C278.1,46.2,278.5,46.6,279.2,46.6z"/>
		<path class="st1" d="M284,50.1l1.1-2.7l-2.2-5.7c-0.1-0.2,0-0.3,0.2-0.3h0.5c0.1,0,0.2,0.1,0.3,0.2l1.7,4.8h0l2-4.8
			c0-0.1,0.1-0.2,0.3-0.2h0.5c0.2,0,0.3,0.1,0.2,0.3l-3.8,8.6c0,0.1-0.2,0.2-0.3,0.2h-0.4C284,50.5,283.9,50.3,284,50.1z"/>
		<path class="st1" d="M291.9,43.5c0.6,0,1.3,0.2,1.3,0.2c0-1.1-0.5-1.7-1.4-1.7c-0.7,0-1.1,0.3-1.4,0.4c-0.2,0.1-0.2,0-0.3-0.2
			l-0.1-0.4c-0.1-0.2,0-0.3,0.2-0.3c0.3-0.1,0.8-0.4,1.7-0.4c1.5,0,2.2,0.9,2.2,2.5v3.4c0,0.1-0.1,0.2-0.2,0.2
			c-0.4,0-0.6-0.3-0.6-0.7c-0.3,0.3-0.9,0.8-1.9,0.8c-1.1,0-1.9-0.8-1.9-2C289.5,44.4,290.4,43.5,291.9,43.5z M291.5,46.6
			c0.7,0,1.4-0.4,1.7-0.8v-1.2c-0.2-0.1-0.7-0.2-1.3-0.2c-0.8,0-1.5,0.4-1.5,1.2C290.5,46.2,290.9,46.6,291.5,46.6z"/>
		<path class="st1" d="M296.1,38.5c0-0.1,0.1-0.3,0.3-0.3h0.4c0.1,0,0.3,0.1,0.3,0.3v3.1c0,0,0.7-0.4,1.7-0.4c1.8,0,2.8,1.4,2.8,3.1
			c0,1.7-1.2,3.2-2.7,3.2c-0.9,0-1.5-0.4-1.9-0.8c0,0.4-0.2,0.7-0.6,0.7c-0.1,0-0.2-0.1-0.2-0.2V38.5z M297,45.6c0,0,0.6,1,1.7,1
			c1.1,0,1.8-1.1,1.8-2.3c0-1.2-0.7-2.3-2-2.3c-0.8,0-1.5,0.4-1.5,0.4V45.6z"/>
		<path class="st1" d="M303.2,38.5c0-0.1,0.1-0.3,0.3-0.3h0.4c0.1,0,0.3,0.1,0.3,0.3v8.5c0,0.2-0.1,0.3-0.3,0.3h-0.4
			c-0.2,0-0.3-0.1-0.3-0.3V38.5z"/>
		<path class="st1" d="M308.7,41.2c1.6,0,2.7,1.2,2.7,2.7c0,0.1,0,0.3,0,0.4c0,0.2-0.1,0.3-0.3,0.3h-4.4c0,1,0.9,2.1,2,2.1
			c0.8,0,1.3-0.3,1.6-0.5c0.2-0.1,0.3-0.2,0.5,0l0.2,0.2c0.1,0.2,0.2,0.2-0.1,0.4c-0.4,0.3-1.2,0.7-2.2,0.7c-1.8,0-2.9-1.4-2.9-3.1
			C305.8,42.7,306.9,41.2,308.7,41.2z M310.5,43.8c0-0.9-0.7-1.7-1.8-1.7c-1,0-1.8,0.8-1.9,1.7H310.5z"/>
	</g>
</g>
</svg>
