<svg xmlns="http://www.w3.org/2000/svg" viewBox="0 0 508.07 410.93"><defs><style>.cls-1{fill:#263b80;}.cls-2{fill:#6fccdd;}</style></defs><g id="Capa_2" data-name="Capa 2"><g id="Capa_1-2" data-name="Capa 1"><rect class="cls-1" y="13.88" width="9.25" height="9.25"/><rect class="cls-1" x="13.88" width="9.26" height="9.25"/><rect class="cls-1" x="27.76" width="9.25" height="9.25"/><rect class="cls-1" x="13.88" y="13.88" width="9.25" height="9.25"/><rect class="cls-1" x="27.76" y="13.88" width="9.25" height="9.25"/><rect class="cls-1" x="41.64" y="13.88" width="9.25" height="9.25"/><rect class="cls-1" x="55.52" y="13.88" width="9.25" height="9.25"/><rect class="cls-1" x="13.88" y="27.76" width="9.25" height="9.25"/><rect class="cls-1" x="27.76" y="27.76" width="9.25" height="9.25"/><rect class="cls-1" x="41.64" y="27.76" width="9.25" height="9.25"/><rect class="cls-1" x="55.52" y="27.76" width="9.25" height="9.25"/><rect class="cls-1" x="69.4" y="27.76" width="9.25" height="9.25"/><rect class="cls-1" x="83.28" y="27.76" width="9.25" height="9.25"/><rect class="cls-1" x="97.16" y="27.76" width="9.25" height="9.25"/><rect class="cls-1" x="111.04" y="27.76" width="9.25" height="9.25"/><rect class="cls-1" x="124.93" y="27.76" width="9.25" height="9.25"/><rect class="cls-1" x="138.81" y="27.76" width="9.25" height="9.25"/><rect class="cls-1" x="152.68" y="27.76" width="9.25" height="9.25"/><rect class="cls-1" x="13.88" y="41.64" width="9.25" height="9.26"/><rect class="cls-1" x="27.76" y="41.64" width="9.25" height="9.26"/><rect class="cls-1" x="55.52" y="41.64" width="9.25" height="9.26"/><rect class="cls-1" x="69.4" y="41.64" width="9.25" height="9.26"/><rect class="cls-1" x="83.28" y="41.64" width="9.25" height="9.26"/><rect class="cls-1" x="97.16" y="41.64" width="9.25" height="9.26"/><rect class="cls-1" x="111.04" y="41.64" width="9.25" height="9.26"/><rect class="cls-1" x="124.93" y="41.64" width="9.25" height="9.26"/><rect class="cls-1" x="138.81" y="41.64" width="9.25" height="9.26"/><rect class="cls-1" x="152.68" y="41.64" width="9.25" height="9.26"/><rect class="cls-1" x="166.57" y="41.64" width="9.25" height="9.26"/><rect class="cls-1" x="27.76" y="55.52" width="9.25" height="9.25"/><rect class="cls-1" x="41.64" y="55.52" width="9.25" height="9.25"/><rect class="cls-1" x="69.4" y="55.52" width="9.25" height="9.25"/><rect class="cls-1" x="83.28" y="55.52" width="9.25" height="9.25"/><rect class="cls-1" x="97.16" y="55.52" width="9.25" height="9.25"/><rect class="cls-1" x="111.04" y="55.52" width="9.25" height="9.25"/><rect class="cls-1" x="124.93" y="55.52" width="9.25" height="9.25"/><rect class="cls-1" x="138.81" y="55.52" width="9.25" height="9.25"/><rect class="cls-1" x="152.68" y="55.52" width="9.25" height="9.25"/><rect class="cls-1" x="166.57" y="55.52" width="9.25" height="9.25"/><rect class="cls-1" x="208.21" y="55.52" width="9.25" height="9.25"/><rect class="cls-1" x="222.09" y="55.52" width="9.25" height="9.25"/><rect class="cls-1" x="41.64" y="69.4" width="9.25" height="9.25"/><rect class="cls-1" x="55.52" y="69.4" width="9.25" height="9.25"/><rect class="cls-1" x="69.4" y="69.4" width="9.25" height="9.25"/><rect class="cls-1" x="83.28" y="69.4" width="9.25" height="9.25"/><rect class="cls-1" x="97.16" y="69.4" width="9.25" height="9.25"/><rect class="cls-1" x="111.04" y="69.4" width="9.25" height="9.25"/><rect class="cls-1" x="124.93" y="69.4" width="9.25" height="9.25"/><rect class="cls-1" x="138.81" y="69.4" width="9.25" height="9.25"/><rect class="cls-1" x="152.68" y="69.4" width="9.25" height="9.25"/><rect class="cls-1" x="166.57" y="69.4" width="9.25" height="9.25"/><rect class="cls-1" x="180.45" y="69.4" width="9.25" height="9.25"/><rect class="cls-1" x="194.33" y="69.4" width="9.25" height="9.25"/><rect class="cls-1" x="208.21" y="69.4" width="9.25" height="9.25"/><rect class="cls-1" x="222.09" y="69.4" width="9.25" height="9.25"/><rect class="cls-1" x="27.76" y="83.28" width="9.25" height="9.25"/><rect class="cls-1" x="41.64" y="83.28" width="9.25" height="9.25"/><rect class="cls-1" x="55.52" y="83.28" width="9.25" height="9.25"/><rect class="cls-1" x="83.28" y="83.28" width="9.25" height="9.25"/><rect class="cls-1" x="97.16" y="83.28" width="9.25" height="9.25"/><rect class="cls-1" x="111.04" y="83.28" width="9.25" height="9.25"/><rect class="cls-1" x="124.93" y="83.28" width="9.25" height="9.25"/><rect class="cls-1" x="138.81" y="83.28" width="9.25" height="9.25"/><rect class="cls-1" x="152.68" y="83.28" width="9.25" height="9.25"/><rect class="cls-1" x="166.57" y="83.28" width="9.25" height="9.25"/><rect class="cls-1" x="180.45" y="83.28" width="9.25" height="9.25"/><rect class="cls-1" x="194.33" y="83.28" width="9.25" height="9.25"/><rect class="cls-1" x="208.21" y="83.28" width="9.25" height="9.25"/><rect class="cls-1" x="222.09" y="83.28" width="9.25" height="9.25"/><rect class="cls-1" x="235.97" y="83.28" width="9.25" height="9.25"/><rect class="cls-1" x="41.64" y="97.16" width="9.25" height="9.26"/><rect class="cls-1" x="55.52" y="97.16" width="9.25" height="9.26"/><rect class="cls-1" x="69.4" y="97.16" width="9.25" height="9.26"/><rect class="cls-1" x="97.16" y="97.16" width="9.25" height="9.26"/><rect class="cls-1" x="111.04" y="97.16" width="9.25" height="9.26"/><rect class="cls-1" x="124.93" y="97.16" width="9.25" height="9.26"/><rect class="cls-1" x="138.81" y="97.16" width="9.25" height="9.26"/><rect class="cls-1" x="152.68" y="97.16" width="9.25" height="9.26"/><rect class="cls-1" x="166.57" y="97.16" width="9.25" height="9.26"/><rect class="cls-1" x="180.45" y="97.16" width="9.25" height="9.26"/><rect class="cls-1" x="194.33" y="97.16" width="9.25" height="9.26"/><rect class="cls-1" x="208.21" y="97.16" width="9.25" height="9.26"/><rect class="cls-1" x="222.09" y="97.16" width="9.25" height="9.26"/><rect class="cls-1" x="235.97" y="97.16" width="9.25" height="9.26"/><rect class="cls-1" x="55.52" y="111.04" width="9.25" height="9.25"/><rect class="cls-1" x="69.4" y="111.04" width="9.25" height="9.25"/><rect class="cls-1" x="111.04" y="111.04" width="9.25" height="9.25"/><rect class="cls-1" x="124.93" y="111.04" width="9.25" height="9.25"/><rect class="cls-1" x="138.81" y="111.04" width="9.25" height="9.25"/><rect class="cls-1" x="152.68" y="111.04" width="9.25" height="9.25"/><rect class="cls-1" x="166.57" y="111.04" width="9.25" height="9.25"/><rect class="cls-1" x="180.45" y="111.04" width="9.25" height="9.25"/><rect class="cls-1" x="194.33" y="111.04" width="9.25" height="9.25"/><rect class="cls-1" x="208.21" y="111.04" width="9.25" height="9.25"/><rect class="cls-1" x="222.09" y="111.04" width="9.25" height="9.25"/><rect class="cls-1" x="235.97" y="111.04" width="9.25" height="9.25"/><rect class="cls-1" x="249.85" y="111.04" width="9.25" height="9.25"/><rect class="cls-1" x="263.73" y="111.04" width="9.25" height="9.25"/><rect class="cls-1" x="69.4" y="124.92" width="9.25" height="9.25"/><rect class="cls-1" x="83.28" y="124.92" width="9.25" height="9.25"/><rect class="cls-1" x="111.04" y="124.92" width="9.25" height="9.25"/><rect class="cls-1" x="124.93" y="124.92" width="9.25" height="9.25"/><rect class="cls-1" x="138.81" y="124.92" width="9.25" height="9.25"/><rect class="cls-1" x="152.68" y="124.92" width="9.25" height="9.25"/><rect class="cls-1" x="166.57" y="124.92" width="9.25" height="9.25"/><rect class="cls-1" x="180.45" y="124.92" width="9.25" height="9.25"/><rect class="cls-1" x="194.33" y="124.92" width="9.25" height="9.25"/><rect class="cls-1" x="208.21" y="124.92" width="9.25" height="9.25"/><rect class="cls-1" x="222.09" y="124.92" width="9.25" height="9.25"/><rect class="cls-1" x="235.97" y="124.92" width="9.25" height="9.25"/><rect class="cls-1" x="249.85" y="124.92" width="9.25" height="9.25"/><rect class="cls-1" x="263.73" y="124.92" width="9.25" height="9.25"/><rect class="cls-1" x="277.61" y="124.92" width="9.25" height="9.25"/><rect class="cls-1" x="69.4" y="138.81" width="9.25" height="9.25"/><rect class="cls-1" x="83.28" y="138.81" width="9.25" height="9.25"/><rect class="cls-1" x="124.93" y="138.81" width="9.25" height="9.25"/><rect class="cls-1" x="138.81" y="138.81" width="9.25" height="9.25"/><rect class="cls-1" x="152.68" y="138.81" width="9.25" height="9.25"/><rect class="cls-1" x="166.57" y="138.81" width="9.25" height="9.25"/><rect class="cls-1" x="180.45" y="138.81" width="9.25" height="9.25"/><rect class="cls-1" x="194.33" y="138.81" width="9.25" height="9.25"/><rect class="cls-1" x="208.21" y="138.81" width="9.25" height="9.25"/><rect class="cls-1" x="222.09" y="138.81" width="9.25" height="9.25"/><rect class="cls-1" x="235.97" y="138.81" width="9.25" height="9.25"/><rect class="cls-1" x="249.85" y="138.81" width="9.25" height="9.25"/><rect class="cls-1" x="263.73" y="138.81" width="9.25" height="9.25"/><rect class="cls-1" x="83.28" y="152.69" width="9.25" height="9.25"/><rect class="cls-1" x="97.16" y="152.69" width="9.25" height="9.25"/><rect class="cls-1" x="138.81" y="152.69" width="9.25" height="9.25"/><rect class="cls-1" x="152.68" y="152.69" width="9.25" height="9.25"/><rect class="cls-1" x="166.57" y="152.69" width="9.25" height="9.25"/><rect class="cls-1" x="180.45" y="152.69" width="9.25" height="9.25"/><rect class="cls-1" x="194.33" y="152.69" width="9.25" height="9.25"/><rect class="cls-1" x="208.21" y="152.69" width="9.25" height="9.25"/><rect class="cls-1" x="222.09" y="152.69" width="9.25" height="9.25"/><rect class="cls-1" x="235.97" y="152.69" width="9.25" height="9.25"/><rect class="cls-1" x="249.85" y="152.69" width="9.25" height="9.25"/><rect class="cls-1" x="263.73" y="152.69" width="9.25" height="9.25"/><rect class="cls-1" x="97.16" y="166.57" width="9.25" height="9.25"/><rect class="cls-1" x="152.68" y="166.57" width="9.25" height="9.25"/><rect class="cls-1" x="166.57" y="166.57" width="9.25" height="9.25"/><rect class="cls-1" x="180.45" y="166.57" width="9.25" height="9.25"/><rect class="cls-1" x="194.33" y="166.57" width="9.25" height="9.25"/><rect class="cls-1" x="208.21" y="166.57" width="9.25" height="9.25"/><rect class="cls-1" x="222.09" y="166.57" width="9.25" height="9.25"/><rect class="cls-1" x="235.97" y="166.57" width="9.25" height="9.25"/><rect class="cls-1" x="249.85" y="166.57" width="9.25" height="9.25"/><rect class="cls-1" x="263.73" y="166.57" width="9.25" height="9.25"/><rect class="cls-1" x="166.57" y="180.45" width="9.25" height="9.25"/><rect class="cls-1" x="180.45" y="180.45" width="9.25" height="9.25"/><rect class="cls-1" x="194.33" y="180.45" width="9.25" height="9.25"/><rect class="cls-1" x="208.21" y="180.45" width="9.25" height="9.25"/><rect class="cls-1" x="222.09" y="180.45" width="9.25" height="9.25"/><rect class="cls-1" x="235.97" y="180.45" width="9.25" height="9.25"/><rect class="cls-1" x="249.85" y="180.45" width="9.25" height="9.25"/><rect class="cls-1" x="263.73" y="180.45" width="9.25" height="9.25"/><rect class="cls-1" x="166.57" y="194.33" width="9.25" height="9.25"/><rect class="cls-1" x="180.45" y="194.33" width="9.25" height="9.25"/><rect class="cls-1" x="194.33" y="194.33" width="9.25" height="9.25"/><rect class="cls-1" x="208.21" y="194.33" width="9.25" height="9.25"/><rect class="cls-1" x="222.09" y="194.33" width="9.25" height="9.25"/><rect class="cls-1" x="235.97" y="194.33" width="9.25" height="9.25"/><rect class="cls-1" x="249.85" y="194.33" width="9.25" height="9.25"/><rect class="cls-1" x="263.73" y="194.33" width="9.25" height="9.25"/><rect class="cls-1" x="277.61" y="194.33" width="9.25" height="9.25"/><rect class="cls-1" x="374.77" y="194.33" width="9.25" height="9.25"/><rect class="cls-1" x="388.65" y="194.33" width="9.25" height="9.25"/><rect class="cls-1" x="402.54" y="194.33" width="9.25" height="9.25"/><rect class="cls-1" x="416.42" y="194.33" width="9.25" height="9.25"/><rect class="cls-1" x="166.57" y="208.21" width="9.25" height="9.25"/><rect class="cls-1" x="180.45" y="208.21" width="9.25" height="9.25"/><rect class="cls-1" x="194.33" y="208.21" width="9.25" height="9.25"/><rect class="cls-1" x="208.21" y="208.21" width="9.25" height="9.25"/><rect class="cls-1" x="222.09" y="208.21" width="9.25" height="9.25"/><rect class="cls-1" x="235.97" y="208.21" width="9.25" height="9.25"/><rect class="cls-1" x="249.85" y="208.21" width="9.25" height="9.25"/><rect class="cls-1" x="263.73" y="208.21" width="9.25" height="9.25"/><rect class="cls-1" x="277.61" y="208.21" width="9.25" height="9.25"/><rect class="cls-1" x="374.77" y="208.21" width="9.25" height="9.25"/><rect class="cls-1" x="388.65" y="208.21" width="9.25" height="9.25"/><rect class="cls-1" x="402.54" y="208.21" width="9.25" height="9.25"/><rect class="cls-1" x="416.42" y="208.21" width="9.25" height="9.25"/><rect class="cls-1" x="166.57" y="222.09" width="9.25" height="9.25"/><rect class="cls-1" x="180.45" y="222.09" width="9.25" height="9.25"/><rect class="cls-1" x="194.33" y="222.09" width="9.25" height="9.25"/><rect class="cls-1" x="208.21" y="222.09" width="9.25" height="9.25"/><rect class="cls-1" x="222.09" y="222.09" width="9.25" height="9.25"/><rect class="cls-1" x="235.97" y="222.09" width="9.25" height="9.25"/><rect class="cls-1" x="249.85" y="222.09" width="9.25" height="9.25"/><rect class="cls-1" x="263.73" y="222.09" width="9.25" height="9.25"/><rect class="cls-1" x="277.61" y="222.09" width="9.25" height="9.25"/><rect class="cls-1" x="291.49" y="222.09" width="9.25" height="9.25"/><rect class="cls-1" x="374.77" y="222.09" width="9.25" height="9.25"/><rect class="cls-1" x="388.65" y="222.09" width="9.25" height="9.25"/><rect class="cls-1" x="402.54" y="222.09" width="9.25" height="9.25"/><rect class="cls-1" x="180.45" y="235.97" width="9.25" height="9.25"/><rect class="cls-1" x="194.33" y="235.97" width="9.25" height="9.25"/><rect class="cls-1" x="208.21" y="235.97" width="9.25" height="9.25"/><rect class="cls-1" x="222.09" y="235.97" width="9.25" height="9.25"/><rect class="cls-1" x="235.97" y="235.97" width="9.25" height="9.25"/><rect class="cls-1" x="249.85" y="235.97" width="9.25" height="9.25"/><rect class="cls-1" x="263.73" y="235.97" width="9.25" height="9.25"/><rect class="cls-1" x="277.61" y="235.97" width="9.25" height="9.25"/><rect class="cls-1" x="291.49" y="235.97" width="9.25" height="9.25"/><rect class="cls-1" x="305.37" y="235.97" width="9.25" height="9.25"/><rect class="cls-1" x="333.13" y="235.97" width="9.25" height="9.25"/><rect class="cls-1" x="347.01" y="235.97" width="9.25" height="9.25"/><rect class="cls-1" x="360.89" y="235.97" width="9.25" height="9.25"/><rect class="cls-1" x="374.77" y="235.97" width="9.25" height="9.25"/><rect class="cls-1" x="388.65" y="235.97" width="9.25" height="9.25"/><rect class="cls-1" x="402.54" y="235.97" width="9.25" height="9.25"/><rect class="cls-1" x="208.21" y="249.85" width="9.25" height="9.26"/><rect class="cls-1" x="222.09" y="249.85" width="9.25" height="9.26"/><rect class="cls-1" x="235.97" y="249.85" width="9.25" height="9.26"/><rect class="cls-1" x="249.85" y="249.85" width="9.25" height="9.26"/><rect class="cls-1" x="263.73" y="249.85" width="9.25" height="9.26"/><rect class="cls-1" x="277.61" y="249.85" width="9.25" height="9.26"/><rect class="cls-1" x="291.49" y="249.85" width="9.25" height="9.26"/><rect class="cls-1" x="305.37" y="249.85" width="9.25" height="9.26"/><rect class="cls-1" x="319.25" y="249.85" width="9.25" height="9.26"/><rect class="cls-1" x="333.13" y="249.85" width="9.25" height="9.26"/><rect class="cls-1" x="347.01" y="249.85" width="9.25" height="9.26"/><rect class="cls-1" x="360.89" y="249.85" width="9.25" height="9.26"/><rect class="cls-1" x="374.77" y="249.85" width="9.25" height="9.26"/><rect class="cls-1" x="388.65" y="249.85" width="9.25" height="9.26"/><rect class="cls-1" x="235.97" y="263.73" width="9.25" height="9.25"/><rect class="cls-1" x="249.85" y="263.73" width="9.25" height="9.25"/><rect class="cls-2" x="389.33" y="262.88" width="9.25" height="9.26"/><rect class="cls-2" x="403.22" y="262.88" width="9.25" height="9.26"/><rect class="cls-2" x="417.1" y="262.88" width="9.25" height="9.26"/><rect class="cls-2" x="389.33" y="276.76" width="9.25" height="9.25"/><rect class="cls-2" x="403.22" y="276.76" width="9.25" height="9.25"/><rect class="cls-2" x="417.1" y="276.76" width="9.25" height="9.25"/><rect class="cls-2" x="389.33" y="290.64" width="9.25" height="9.25"/><rect class="cls-2" x="403.22" y="290.64" width="9.25" height="9.25"/><rect class="cls-2" x="417.1" y="290.64" width="9.25" height="9.25"/><rect class="cls-2" x="430.98" y="290.64" width="9.25" height="9.25"/><rect class="cls-2" x="444.86" y="290.64" width="9.25" height="9.25"/><rect class="cls-2" x="458.74" y="290.64" width="9.25" height="9.25"/><rect class="cls-2" x="389.33" y="304.52" width="9.25" height="9.25"/><rect class="cls-2" x="403.22" y="304.52" width="9.25" height="9.25"/><rect class="cls-2" x="417.1" y="304.52" width="9.25" height="9.25"/><rect class="cls-2" x="430.98" y="304.52" width="9.25" height="9.25"/><rect class="cls-2" x="444.86" y="304.52" width="9.25" height="9.25"/><rect class="cls-2" x="458.74" y="304.52" width="9.25" height="9.25"/><rect class="cls-2" x="389.33" y="318.4" width="9.25" height="9.25"/><rect class="cls-2" x="403.22" y="318.4" width="9.25" height="9.25"/><rect class="cls-2" x="417.1" y="318.4" width="9.25" height="9.25"/><rect class="cls-2" x="430.98" y="318.4" width="9.25" height="9.25"/><rect class="cls-2" x="444.86" y="318.4" width="9.25" height="9.25"/><rect class="cls-2" x="458.74" y="318.4" width="9.25" height="9.25"/><rect class="cls-2" x="403.22" y="332.28" width="9.25" height="9.25"/><rect class="cls-2" x="417.1" y="332.28" width="9.25" height="9.25"/><rect class="cls-2" x="430.98" y="332.28" width="9.25" height="9.25"/><rect class="cls-2" x="444.86" y="332.28" width="9.25" height="9.25"/><rect class="cls-2" x="458.74" y="332.28" width="9.25" height="9.25"/><rect class="cls-2" x="444.86" y="346.16" width="9.25" height="9.25"/><rect class="cls-2" x="458.74" y="346.16" width="9.25" height="9.25"/><rect class="cls-2" x="444.86" y="360.04" width="9.25" height="9.25"/><rect class="cls-2" x="458.74" y="360.04" width="9.25" height="9.25"/><rect class="cls-2" x="444.86" y="373.92" width="9.25" height="9.25"/><rect class="cls-2" x="458.74" y="373.92" width="9.25" height="9.25"/><rect class="cls-2" x="458.74" y="387.8" width="9.25" height="9.25"/><rect class="cls-2" x="471.58" y="290.64" width="9.25" height="9.25"/><rect class="cls-2" x="485.46" y="290.64" width="9.25" height="9.25"/><rect class="cls-2" x="471.58" y="304.52" width="9.25" height="9.25"/><rect class="cls-2" x="485.46" y="304.52" width="9.25" height="9.25"/><rect class="cls-2" x="471.58" y="318.4" width="9.25" height="9.25"/><rect class="cls-2" x="485.46" y="318.4" width="9.25" height="9.25"/><rect class="cls-2" x="471.58" y="332.28" width="9.25" height="9.25"/><rect class="cls-2" x="485.46" y="332.28" width="9.25" height="9.25"/><rect class="cls-2" x="471.58" y="346.16" width="9.25" height="9.25"/><rect class="cls-2" x="485.46" y="346.16" width="9.25" height="9.25"/><rect class="cls-2" x="471.58" y="360.04" width="9.25" height="9.25"/><rect class="cls-2" x="485.46" y="360.04" width="9.25" height="9.25"/><rect class="cls-2" x="471.58" y="373.92" width="9.25" height="9.25"/><rect class="cls-2" x="471.72" y="388.38" width="9.25" height="9.25"/><rect class="cls-2" x="485.46" y="373.92" width="9.25" height="9.25"/><rect class="cls-2" x="485.46" y="387.8" width="9.25" height="9.25"/><rect class="cls-2" x="485.46" y="401.68" width="9.25" height="9.25"/><rect class="cls-2" x="498.82" y="401.68" width="9.25" height="9.25"/><rect class="cls-2" x="498.82" y="388.37" width="9.25" height="9.25"/><rect class="cls-2" x="498.82" y="304.52" width="9.25" height="9.25"/><rect class="cls-2" x="361.23" y="291.49" width="9.25" height="9.25"/><rect class="cls-2" x="375.11" y="291.49" width="9.25" height="9.25"/><rect class="cls-1" x="347.35" y="305.37" width="9.25" height="9.25"/><rect class="cls-2" x="361.23" y="305.37" width="9.25" height="9.25"/><rect class="cls-2" x="375.11" y="305.37" width="9.25" height="9.25"/><rect class="cls-2" x="375.11" y="319.25" width="9.25" height="9.25"/><rect class="cls-1" x="263.73" y="263.73" width="9.25" height="9.25"/><rect class="cls-1" x="277.61" y="263.73" width="9.25" height="9.25"/><rect class="cls-1" x="291.49" y="263.73" width="9.25" height="9.25"/><rect class="cls-1" x="305.37" y="263.73" width="9.25" height="9.25"/><rect class="cls-1" x="319.25" y="263.73" width="9.25" height="9.25"/><rect class="cls-1" x="333.13" y="263.73" width="9.25" height="9.25"/><rect class="cls-1" x="347.01" y="263.73" width="9.25" height="9.25"/><rect class="cls-1" x="360.89" y="263.73" width="9.25" height="9.25"/><rect class="cls-2" x="374.77" y="263.73" width="9.25" height="9.25"/><rect class="cls-1" x="277.61" y="277.61" width="9.25" height="9.25"/><rect class="cls-1" x="291.49" y="277.61" width="9.25" height="9.25"/><rect class="cls-1" x="319.25" y="277.61" width="9.25" height="9.25"/><rect class="cls-1" x="333.13" y="277.61" width="9.25" height="9.25"/><rect class="cls-1" x="347.01" y="277.61" width="9.25" height="9.25"/><rect class="cls-1" x="360.89" y="277.61" width="9.25" height="9.25"/><rect class="cls-2" x="374.77" y="277.61" width="9.25" height="9.25"/><rect class="cls-1" x="347.01" y="291.49" width="9.25" height="9.25"/></g></g></svg>