<?xml version="1.0" encoding="utf-8"?>
<!-- Generator: Adobe Illustrator 26.0.3, SVG Export Plug-In . SVG Version: 6.00 Build 0)  -->
<svg version="1.1" id="Layer_1" xmlns="http://www.w3.org/2000/svg" xmlns:xlink="http://www.w3.org/1999/xlink" x="0px" y="0px"
	 viewBox="0 0 986.3 100" style="enable-background:new 0 0 986.3 100;" xml:space="preserve">
<style type="text/css">
	.st0{fill:#FFFFFF;}
</style>
<g>
	<path class="st0" d="M50.6,0.1c14,0,24.2,4.4,33.6,12.9c1.3,1.1,1.3,2.8,0.1,3.9l-8.5,8.8c-1,1.1-2.4,1.1-3.5,0
		c-5.8-5.1-13.6-8.2-21.4-8.2c-17.8,0-31,14.9-31,32.4c0,17.4,13.3,32.1,31.1,32.1c8.3,0,15.4-3.2,21.2-7.9c1.1-1,2.6-0.8,3.5,0
		l8.6,8.9c1.1,1,0.8,2.8-0.1,3.8c-9.3,9-21.2,13.3-33.6,13.3c-27.7,0-50-22.1-50-49.9S22.9,0.1,50.6,0.1z"/>
	<path class="st0" d="M141.6,0.1c27.8,0,50,22.4,50,50s-22.2,49.9-50,49.9S91.8,77.9,91.8,50.1S113.8,0.1,141.6,0.1z M141.6,81.9
		c17.5,0,31.9-14.3,31.9-31.8s-14.4-32.1-31.9-32.1s-31.8,14.6-31.8,32.1S124.1,81.9,141.6,81.9z"/>
	<path class="st0" d="M208.6,2.6c0-1.4,1.2-2.5,2.6-2.5h2.1c1,0,1.7,0.3,2.4,1l56.6,60.3h0.3V4.1c0-1.4,1.1-2.6,2.6-2.6H288
		c1.4,0,2.6,1.2,2.6,2.6v93.4c0,1.4-1.3,2.5-2.6,2.5h-1.9c-1,0-1.7-0.3-2.4-1l-56.8-62.7h-0.3V96c0,1.4-1.1,2.6-2.6,2.6h-12.6
		c-1.4,0-2.6-1.2-2.6-2.6V2.6H208.6z"/>
	<path class="st0" d="M309.7,89.2c-1.4-1.1-1.9-1.9-0.7-4.2l5-8.6c1.1-1.9,3.5-1.9,4.7-1c5.7,4.3,11.9,8.6,21,8.6
		c7.2,0,12.6-4.7,12.6-10.7c0-7.1-6-11.9-17.6-16.7c-13.1-5.3-26.1-13.6-26.1-30c0-12.4,9.2-26.7,31.3-26.7c14.2,0,25,7.2,27.8,9.3
		c1.4,0.8,1.8,3.2,0.8,4.6l-5.3,7.9c-1.1,1.7-3.2,2.8-4.9,1.7c-6-3.7-11.7-7.6-19.3-7.6c-7.9,0-12.2,4.4-12.2,9.7
		c0,6.5,5.1,11,16.4,15.6c13.5,5.4,29,13.5,29,31.4c0,14.3-12.4,27.5-31.9,27.5C322.8,100,313.8,92.6,309.7,89.2z"/>
	<path class="st0" d="M431.8,0.1c27.8,0,50,22.4,50,50s-22.2,49.9-50,49.9s-49.9-22.1-49.9-49.9S404,0.1,431.8,0.1z M431.8,81.9
		c17.5,0,31.9-14.3,31.9-31.8s-14.4-32.1-31.9-32.1S400,32.7,400,50.1S414.3,81.9,431.8,81.9z"/>
	<path class="st0" d="M498.8,4.1c0-1.4,1.1-2.6,2.6-2.6h12.8c1.4,0,2.6,1.2,2.6,2.6v77.8h35.4c1.5,0,2.6,1.2,2.6,2.6V96
		c0,1.4-1.1,2.6-2.6,2.6h-50.7c-1.5,0-2.6-1.2-2.6-2.6L498.8,4.1L498.8,4.1z"/>
	<path class="st0" d="M567,4.1c0-1.4,1.2-2.6,2.6-2.6h12.9c1.4,0,2.6,1.2,2.6,2.6V96c0,1.4-1.2,2.6-2.6,2.6h-12.9
		c-1.4,0-2.6-1.2-2.6-2.6V4.1z"/>
	<path class="st0" d="M607.9,4.1c0-1.4,1.1-2.6,2.5-2.6h32.9C670,1.5,692,23.3,692,50c0,26.9-21.9,48.8-48.8,48.8h-32.9
		c-1.4,0-2.5-1.2-2.5-2.6V4.1z M641.7,81.7c18.1,0,31.2-12.8,31.2-31.8c0-18.9-13.2-31.7-31.2-31.7h-15.8v63.4H641.7z"/>
	<path class="st0" d="M693,95l43.2-93.4c0.4-0.8,1.1-1.5,2.4-1.5h1.4c1.4,0,1.9,0.7,2.4,1.5L785,95c0.8,1.8-0.3,3.6-2.4,3.6h-12.1
		c-2.1,0-3.1-0.8-4-2.8l-6.8-15h-41.5l-6.8,15c-0.6,1.4-1.8,2.8-4,2.8h-12.1C693.3,98.6,692.2,96.8,693,95z M753,65.4l-13.9-30.6
		h-0.4l-13.6,30.6H753z"/>
	<path class="st0" d="M804.1,18.2h-21.2c-1.5,0-2.6-1.2-2.6-2.6V4.1c0-1.4,1.1-2.6,2.6-2.6h60.6c1.5,0,2.6,1.2,2.6,2.6v11.4
		c0,1.4-1.1,2.6-2.6,2.6h-21.2V96c0,1.4-1.3,2.6-2.6,2.6h-12.9c-1.4,0-2.6-1.2-2.6-2.6V18.2H804.1z"/>
	<path class="st0" d="M859.1,4.1c0-1.4,1.1-2.6,2.6-2.6h56.4c1.5,0,2.6,1.2,2.6,2.6v11.4c0,1.4-1.1,2.6-2.6,2.6H877v22.8h34.3
		c1.4,0,2.6,1.3,2.6,2.6V55c0,1.5-1.3,2.6-2.6,2.6H877v24.3h41.1c1.5,0,2.6,1.2,2.6,2.6V96c0,1.4-1.1,2.6-2.6,2.6h-56.4
		c-1.5,0-2.6-1.2-2.6-2.6V4.1z"/>
	<path class="st0" d="M939,4.1c0-1.4,1.1-2.6,2.5-2.6h32.9c26.8,0,48.8,21.8,48.8,48.5c0,26.9-21.9,48.8-48.8,48.8h-32.9
		c-1.4,0-2.5-1.2-2.5-2.6V4.1z M972.6,81.7c18.1,0,31.3-12.8,31.3-31.8c0-18.9-13.2-31.7-31.3-31.7h-15.8v63.4H972.6z"/>
</g>
</svg>
