<?xml version="1.0" encoding="utf-8"?>
<!-- Generator: Adobe Illustrator 26.0.3, SVG Export Plug-In . SVG Version: 6.00 Build 0)  -->
<svg version="1.1" id="Layer_1" xmlns="http://www.w3.org/2000/svg" xmlns:xlink="http://www.w3.org/1999/xlink" x="0px" y="0px"
	 viewBox="0 0 1217.3 100" style="enable-background:new 0 0 1217.3 100;" xml:space="preserve">
<style type="text/css">
	.st0{fill:#FFFFFF;}
</style>
<g>
	<path class="st0" d="M50.1,1c13,0,23.2,3.9,32.9,12.7c0.4,0.3,0.6,0.8,0.6,1.2c0,0.4-0.2,0.9-0.5,1.2l-8.5,8.8l0,0l0,0
		c-0.2,0.2-0.5,0.5-0.9,0.5c-0.4,0-0.7-0.2-1.1-0.5l0,0l0,0c-6.1-5.4-14.1-8.4-22-8.4c-8.8,0-16.9,3.5-22.9,9.9
		c-5.9,6.3-9.1,14.6-9.1,23.4c0,8.8,3.3,17,9.2,23.2c6,6.3,14.2,9.8,22.9,9.8c7.8,0,15.2-2.7,21.9-8.2c0.4-0.4,0.8-0.4,1.1-0.4
		c0.4,0,0.8,0.1,1,0.4l8.6,8.9l0,0l0,0c0.2,0.2,0.4,0.5,0.4,0.9c0,0.5-0.2,1.1-0.6,1.4C74.3,94.4,62.9,99,50.1,99
		C37,99,24.6,93.9,15.4,84.8C6.1,75.6,1,63.3,1,50.1C1,37,6.1,24.6,15.4,15.4S37,1,50.1,1 M50.1,0C22.4,0,0,22.4,0,50.1
		S22.4,100,50.1,100c12.4,0,24.3-4.3,33.7-13.5c1-1,1.2-2.8,0.1-3.8l-8.6-8.9c-0.4-0.4-1.1-0.7-1.7-0.7c-0.6,0-1.2,0.2-1.8,0.7
		c-5.8,4.7-12.9,7.9-21.2,7.9c-17.8,0-31.1-14.7-31.1-32.1c0-17.5,13.2-32.4,31-32.4c7.8,0,15.6,3.1,21.4,8.2
		c0.6,0.6,1.2,0.8,1.8,0.8c0.6,0,1.2-0.3,1.7-0.8l8.5-8.8c1.1-1.1,1.1-2.8-0.1-3.9C74.3,4.4,64.2,0,50.1,0L50.1,0z"/>
	<path class="st0" d="M158.8,2.4c1,0,1.6,0.9,1.6,1.6v11.4c0,0.8-0.6,1.6-1.6,1.6h-41.1h-1v1v22.8v1h1H152c0.8,0,1.6,0.8,1.6,1.6V55
		c0,1-0.9,1.6-1.6,1.6h-34.3h-1v1v24.3v1h1h41.1c1,0,1.6,0.9,1.6,1.6V96c0,0.8-0.6,1.6-1.6,1.6h-56.5c-1,0-1.6-0.9-1.6-1.6V4
		c0-0.8,0.6-1.6,1.6-1.6H158.8 M158.8,1.4h-56.5c-1.5,0-2.6,1.2-2.6,2.6V96c0,1.4,1.1,2.6,2.6,2.6h56.5c1.5,0,2.6-1.2,2.6-2.6V84.6
		c0-1.4-1.1-2.6-2.6-2.6h-41.1V57.6H152c1.4,0,2.6-1.1,2.6-2.6V43.5c0-1.4-1.2-2.6-2.6-2.6h-34.3V18.1h41.1c1.5,0,2.6-1.2,2.6-2.6V4
		C161.4,2.6,160.3,1.4,158.8,1.4L158.8,1.4z"/>
	<path class="st0" d="M184.3,1c0.7,0,1.2,0.2,1.6,0.7l56.7,60.4l0.3,0.3h0.4h0.3h1v-1V4c0-0.8,0.6-1.6,1.6-1.6H259
		c0.8,0,1.6,0.8,1.6,1.6v93.5c0,0.8-0.8,1.5-1.6,1.5h-1.9c-0.7,0-1.2-0.2-1.6-0.6l-56.9-62.8l-0.3-0.3h-0.4h-0.3h-1v1V96
		c0,0.8-0.6,1.6-1.6,1.6h-12.6c-0.8,0-1.6-0.8-1.6-1.6V2.5c0-0.8,0.8-1.5,1.6-1.5H184.3 M184.3,0h-2.1c-1.4,0-2.6,1.1-2.6,2.5V96
		c0,1.4,1.2,2.6,2.6,2.6h12.6c1.5,0,2.6-1.2,2.6-2.6V36.2h0.3L254.7,99c0.7,0.7,1.4,1,2.4,1h1.9c1.4,0,2.6-1.1,2.6-2.5V4
		c0-1.4-1.3-2.6-2.6-2.6h-12.8c-1.5,0-2.6,1.2-2.6,2.6v57.4h-0.3L186.7,1C186,0.3,185.3,0,184.3,0L184.3,0z"/>
	<path class="st0" d="M338,2.4c1,0,1.6,0.9,1.6,1.6v11.4c0,0.8-0.6,1.6-1.6,1.6h-21.3h-1v1V96c0,0.8-0.8,1.6-1.6,1.6h-12.9
		c-0.8,0-1.6-0.8-1.6-1.6V18.1v-1h-1h-21.2c-1,0-1.6-0.8-1.6-1.6V4c0-0.8,0.6-1.6,1.6-1.6H338 M338,1.4h-60.7
		c-1.5,0-2.6,1.2-2.6,2.6v11.4c0,1.4,1.1,2.6,2.6,2.6h21.2V96c0,1.4,1.3,2.6,2.6,2.6h12.9c1.4,0,2.6-1.2,2.6-2.6V18.1H338
		c1.5,0,2.6-1.2,2.6-2.6V4C340.6,2.6,339.5,1.4,338,1.4L338,1.4z"/>
	<path class="st0" d="M395.9,2.4c16.1,0,29.3,12.9,29.3,28.9c0,11.8-7.6,22.2-19.9,27.1l-1,0.4l0.5,1l19,35.3c0.3,0.6,0.3,1.3,0,1.8
		c-0.3,0.5-0.8,0.7-1.5,0.7h-14.6c-0.9,0-1.2-0.5-1.3-0.7l-18.5-36.8l-0.3-0.6H387h-15.4h-1v1V96c0,0.8-0.8,1.6-1.6,1.6h-12.8
		c-1,0-1.6-0.9-1.6-1.6V4c0-0.8,0.6-1.6,1.6-1.6H395.9 M370.7,46.7h1h22.6c8,0,14.8-6.9,14.8-15.2c0-7.8-6.8-14.5-14.8-14.5h-22.6
		h-1v1v27.6V46.7 M395.9,1.4h-39.7c-1.5,0-2.6,1.2-2.6,2.6V96c0,1.4,1.1,2.6,2.6,2.6h12.8c1.4,0,2.6-1.2,2.6-2.6V60.6H387l18.5,36.8
		c0.3,0.6,1,1.2,2.2,1.2h14.6c2.4,0,3.3-2.2,2.4-4l-19-35.3c12.1-4.9,20.6-15.3,20.6-28.1C426.1,14.7,412.5,1.4,395.9,1.4L395.9,1.4
		z M371.7,45.7V18.1h22.6c7.4,0,13.8,6.1,13.8,13.5c0,7.8-6.4,14.2-13.8,14.2H371.7L371.7,45.7z"/>
	<path class="st0" d="M481.8,1c0.8,0,1.1,0.3,1.5,0.9L526,95.4c0.3,0.5,0.2,1.1,0,1.5c-0.3,0.4-0.8,0.7-1.4,0.7h-12.1
		c-1.6,0-2.3-0.5-3.1-2.2l-6.8-15l-0.3-0.6h-0.6h-41.5h-0.6l-0.3,0.6l-6.8,15c-0.3,0.8-1.1,2.1-3.1,2.1h-12.1
		c-0.6,0-1.2-0.2-1.4-0.7c-0.3-0.4-0.3-1,0-1.5L478.9,2c0.3-0.7,0.8-1,1.5-1H481.8 M465.4,66.4h1.5h27.9h1.6l-0.6-1.4l-13.9-30.6
		l-0.3-0.6h-0.6h-0.4h-0.6l-0.3,0.6L466,65L465.4,66.4 M481.8,0h-1.4c-1.2,0-1.9,0.7-2.4,1.5L434.8,95c-0.8,1.8,0.3,3.6,2.4,3.6
		h12.1c2.2,0,3.5-1.4,4-2.8l6.8-15h41.5l6.8,15c1,1.9,1.9,2.8,4,2.8h12.1c2.1,0,3.2-1.8,2.4-3.6L484.1,1.5
		C483.7,0.7,483.1,0,481.8,0L481.8,0z M466.9,65.4l13.6-30.6h0.4l13.9,30.6H466.9L466.9,65.4z"/>
	<path class="st0" d="M553.9,2.4c0.8,0,1.6,0.8,1.6,1.6v77.9v1h1h35.4c1,0,1.6,0.9,1.6,1.6V96c0,0.8-0.6,1.6-1.6,1.6h-50.8
		c-1,0-1.6-0.9-1.6-1.6V4c0-0.8,0.6-1.6,1.6-1.6H553.9 M553.9,1.4h-12.8c-1.5,0-2.6,1.2-2.6,2.6V96c0,1.4,1.1,2.6,2.6,2.6h50.8
		c1.5,0,2.6-1.2,2.6-2.6V84.6c0-1.4-1.1-2.6-2.6-2.6h-35.4V4C556.5,2.6,555.2,1.4,553.9,1.4L553.9,1.4z"/>
	<path class="st0" d="M648.3,1c0.8,0,1.1,0.3,1.5,0.9l42.8,93.5c0.3,0.5,0.2,1.1,0,1.5c-0.3,0.4-0.8,0.7-1.4,0.7H679
		c-1.6,0-2.3-0.5-3.1-2.2l-6.8-15l-0.3-0.6h-0.6h-41.5H626l-0.3,0.6l-6.8,15c-0.3,0.8-1.1,2.1-3.1,2.1h-12.1c-0.6,0-1.2-0.2-1.4-0.7
		c-0.3-0.4-0.3-1,0-1.5L645.5,2c0.3-0.7,0.8-1,1.5-1H648.3 M631.9,66.4h1.5h27.9h1.6l-0.6-1.4l-13.9-30.6l-0.3-0.6h-0.6h-0.4h-0.6
		l-0.3,0.6L632.5,65L631.9,66.4 M648.3,0h-1.4c-1.2,0-1.9,0.7-2.4,1.5L601.4,95c-0.8,1.8,0.3,3.6,2.4,3.6h12.1c2.2,0,3.5-1.4,4-2.8
		l6.8-15h41.5l6.8,15c1,1.9,1.9,2.8,4,2.8h12.1c2.1,0,3.2-1.8,2.4-3.6L650.7,1.5C650.3,0.7,649.7,0,648.3,0L648.3,0z M633.4,65.4
		l13.6-30.6h0.4l13.9,30.6H633.4L633.4,65.4z"/>
	<path class="st0" d="M792.1,1c1.2,0,1.5,0.8,1.5,1.3l16.4,93.4c0.1,0.4,0.1,1.1-0.2,1.5c-0.3,0.3-0.7,0.5-1.3,0.5h-12.6
		c-0.8,0-1.5-0.8-1.7-1.3L786,43.7l-0.1-0.8h-0.9h-0.4H784l-0.3,0.6l-24.3,54.6l0,0l0,0c-0.2,0.5-0.7,0.8-1.4,0.8h-2.5
		c-0.7,0-1.1-0.3-1.4-0.9l-24.6-54.6l-0.3-0.6h-0.6h-0.4h-0.9l-0.1,0.8l-8.1,52.6c-0.1,0.5-0.8,1.2-1.5,1.2h-12.5
		c-0.4,0-1-0.1-1.3-0.5c-0.3-0.4-0.4-0.9-0.3-1.5l16.5-93.4c0-0.4,0.3-1.2,1.5-1.2h2.2c0.7,0,1.2,0.3,1.5,0.8l30.6,65.6l0.3,0.6h0.6
		h0.4h0.6l0.3-0.6l30.5-65.5c0.2-0.4,0.5-0.8,1.5-0.8H792.1 M792.1,0h-2.2c-1.2,0-1.9,0.6-2.4,1.4L757,66.9c-0.1,0-0.1,0-0.4,0
		L726,1.4c-0.4-0.8-1.2-1.4-2.4-1.4h-2.2c-1.5,0-2.4,1-2.5,2.1l-16.5,93.3c-0.3,1.9,0.8,3.2,2.6,3.2h12.5c1.2,0,2.4-1.1,2.5-2.1
		l8.1-52.6c0.1,0,0.4,0,0.4,0l24.6,54.6c0.4,0.8,1.1,1.5,2.4,1.5h2.5c1.3,0,2.1-0.7,2.4-1.5l24.3-54.6c0,0,0.3,0,0.4,0l8.2,52.6
		c0.3,1,1.4,2.1,2.6,2.1h12.6c1.8,0,2.9-1.2,2.5-3.2L794.6,2.1C794.5,1,793.7,0,792.1,0L792.1,0z"/>
	<path class="st0" d="M887.4,2.4c1,0,1.6,0.9,1.6,1.6v11.4c0,0.8-0.6,1.6-1.6,1.6h-41.1h-1v1v22.8v1h1h34.3c0.8,0,1.6,0.8,1.6,1.6
		V55c0,1-0.9,1.6-1.6,1.6h-34.3h-1v1v24.3v1h1h41.1c1,0,1.6,0.9,1.6,1.6V96c0,0.8-0.6,1.6-1.6,1.6h-56.5c-1,0-1.6-0.9-1.6-1.6V4
		c0-0.8,0.6-1.6,1.6-1.6H887.4 M887.4,1.4h-56.5c-1.5,0-2.6,1.2-2.6,2.6V96c0,1.4,1.1,2.6,2.6,2.6h56.5c1.5,0,2.6-1.2,2.6-2.6V84.6
		c0-1.4-1.1-2.6-2.6-2.6h-41.1V57.6h34.3c1.4,0,2.6-1.1,2.6-2.6V43.5c0-1.4-1.2-2.6-2.6-2.6h-34.3V18.1h41.1c1.5,0,2.6-1.2,2.6-2.6
		V4C890,2.6,888.9,1.4,887.4,1.4L887.4,1.4z"/>
	<path class="st0" d="M950.6,2.4c16.1,0,29.3,12.9,29.3,28.9c0,11.8-7.6,22.2-19.9,27.1l-1,0.4l0.5,1l19,35.3c0.3,0.6,0.3,1.3,0,1.8
		c-0.3,0.5-0.8,0.7-1.5,0.7h-14.6c-0.9,0-1.2-0.5-1.3-0.7l-18.5-36.8l-0.3-0.6h-0.6h-15.4h-1v1V96c0,0.8-0.8,1.6-1.6,1.6h-12.8
		c-1,0-1.6-0.9-1.6-1.6V4c0-0.8,0.6-1.6,1.6-1.6H950.6 M925.4,46.7h1H949c8,0,14.8-6.9,14.8-15.2c0-7.8-6.8-14.5-14.8-14.5h-22.6h-1
		v1v27.6V46.7 M950.6,1.4h-39.7c-1.5,0-2.6,1.2-2.6,2.6V96c0,1.4,1.1,2.6,2.6,2.6h12.8c1.4,0,2.6-1.2,2.6-2.6V60.6h15.4l18.5,36.8
		c0.3,0.6,1,1.2,2.2,1.2H977c2.4,0,3.3-2.2,2.4-4l-19-35.3c12.1-4.9,20.6-15.3,20.6-28.1C980.8,14.7,967.2,1.4,950.6,1.4L950.6,1.4z
		 M926.4,45.7V18.1H949c7.4,0,13.8,6.1,13.8,13.5c0,7.8-6.4,14.2-13.8,14.2H926.4L926.4,45.7z"/>
	<path class="st0" d="M1014.5,2.4c0.8,0,1.6,0.8,1.6,1.6V96c0,0.8-0.8,1.6-1.6,1.6h-12.9c-0.8,0-1.6-0.8-1.6-1.6V4
		c0-0.8,0.8-1.6,1.6-1.6H1014.5 M1014.5,1.4h-12.9c-1.4,0-2.6,1.2-2.6,2.6V96c0,1.4,1.2,2.6,2.6,2.6h12.9c1.4,0,2.6-1.2,2.6-2.6V4
		C1017.2,2.6,1015.9,1.4,1014.5,1.4L1014.5,1.4z"/>
	<path class="st0" d="M1084.1,1c13,0,23.2,3.9,32.9,12.7c0.4,0.3,0.6,0.8,0.6,1.2c0,0.4-0.2,0.9-0.5,1.2l-8.5,8.8l0,0l0,0
		c-0.2,0.2-0.5,0.5-0.9,0.5c-0.4,0-0.7-0.2-1.1-0.5l0,0l0,0c-6.1-5.4-14.1-8.4-22.1-8.4c-8.8,0-16.9,3.5-22.9,9.9
		c-5.9,6.3-9.1,14.6-9.1,23.4c0,8.8,3.3,17,9.2,23.2c6,6.3,14.2,9.8,22.9,9.8c7.8,0,15.2-2.7,21.9-8.2c0.4-0.4,0.8-0.4,1.1-0.4
		c0.4,0,0.8,0.1,1,0.4l8.6,8.9l0,0l0,0c0.2,0.2,0.4,0.5,0.4,0.9c0,0.5-0.2,1.1-0.6,1.4c-8.9,8.6-20.3,13.2-33,13.2
		c-13.2,0-25.5-5.1-34.8-14.2c-9.3-9.2-14.4-21.5-14.4-34.6c0-13.2,5.1-25.5,14.4-34.8C1058.6,6.1,1071,1,1084.1,1 M1084.1,0
		c-27.8,0-50.1,22.4-50.1,50.1s22.4,49.9,50.1,49.9c12.4,0,24.3-4.3,33.7-13.5c1-1,1.3-2.8,0.1-3.8l-8.6-8.9
		c-0.4-0.4-1.1-0.7-1.7-0.7c-0.6,0-1.2,0.2-1.8,0.7c-5.8,4.7-12.9,7.9-21.2,7.9c-17.8,0-31.1-14.7-31.1-32.1
		c0-17.5,13.2-32.4,31-32.4c7.8,0,15.6,3.1,21.4,8.2c0.6,0.6,1.2,0.8,1.8,0.8c0.6,0,1.2-0.3,1.7-0.8l8.5-8.8
		c1.1-1.1,1.1-2.8-0.1-3.9C1108.3,4.4,1098.2,0,1084.1,0L1084.1,0z"/>
	<path class="st0" d="M1171.8,1c0.8,0,1.1,0.3,1.5,0.9l42.8,93.5c0.3,0.6,0.2,1.1,0,1.5c-0.3,0.4-0.8,0.7-1.4,0.7h-12.1
		c-1.6,0-2.3-0.5-3.1-2.2l-6.8-15l-0.3-0.6h-0.6h-41.5h-0.6l-0.3,0.6l-6.8,15c-0.3,0.8-1.2,2.1-3.1,2.1h-12.1
		c-0.6,0-1.2-0.2-1.4-0.7c-0.3-0.4-0.3-1,0-1.5L1169,2c0.3-0.7,0.8-1,1.5-1H1171.8 M1155.4,66.4h1.5h27.9h1.6l-0.6-1.4l-13.9-30.6
		l-0.3-0.6h-0.6h-0.4h-0.6l-0.3,0.6L1156.1,65L1155.4,66.4 M1171.8,0h-1.4c-1.3,0-1.9,0.7-2.4,1.5L1124.9,95
		c-0.8,1.8,0.3,3.6,2.4,3.6h12.1c2.2,0,3.5-1.4,4-2.8l6.8-15h41.5l6.8,15c1,1.9,1.9,2.8,4,2.8h12.1c2.1,0,3.2-1.8,2.4-3.6
		l-42.8-93.5C1173.8,0.7,1173.2,0,1171.8,0L1171.8,0z M1157,65.4l13.6-30.6h0.4l13.9,30.6H1157L1157,65.4z"/>
</g>
</svg>
