<?xml version="1.0" encoding="utf-8"?>
<!-- Generator: Adobe Illustrator 26.0.3, SVG Export Plug-In . SVG Version: 6.00 Build 0)  -->
<svg version="1.1" id="Layer_1" xmlns="http://www.w3.org/2000/svg" xmlns:xlink="http://www.w3.org/1999/xlink" x="0px" y="0px"
	 viewBox="0 0 460 85" style="enable-background:new 0 0 460 85;" xml:space="preserve">
<style type="text/css">
	.st0{fill:#FFFFFF;}
</style>
<g>
	<path class="st0" d="M4.1,2.9c0-1.2,0.9-2.2,2.2-2.2h33.3c14,0,25.4,11.2,25.4,25.1c0,10.7-7.1,19.5-17.3,23.6L63.6,79
		c0.8,1.5,0,3.4-2,3.4H49.4c-1.1,0-1.6-0.6-1.8-1.1L32.1,50.4H19.2v29.7c0,1.2-1,2.2-2.2,2.2H6.3c-1.3,0-2.2-1.1-2.2-2.2V2.9
		L4.1,2.9z M38.3,37.9c6.2,0,11.5-5.4,11.5-11.9c0-6.2-5.4-11.3-11.5-11.3h-19v23.2H38.3L38.3,37.9z"/>
	<path class="st0" d="M81,2.9c0-1.2,0.9-2.2,2.2-2.2h47.4c1.3,0,2.2,1.1,2.2,2.2v9.6c0,1.2-0.9,2.2-2.2,2.2H96.1v19.1h28.8
		c1.2,0,2.2,1.1,2.2,2.2v9.7c0,1.3-1,2.2-2.2,2.2H96.1v20.4h34.5c1.3,0,2.2,1.1,2.2,2.2v9.7c0,1.2-0.9,2.2-2.2,2.2H83.1
		c-1.3,0-2.2-1.1-2.2-2.2L81,2.9L81,2.9z"/>
	<path class="st0" d="M144.1,74.4c-1.2-0.9-1.6-1.6-0.6-3.5l4.2-7.2c0.9-1.6,2.9-1.6,3.9-0.8c4.8,3.6,10,7.2,17.6,7.2
		c6,0,10.6-3.9,10.6-9c0-6-5-10-14.8-14c-11-4.4-21.9-11.4-21.9-25.2c0-10.4,7.7-22.4,26.2-22.4c11.9,0,21,6,23.3,7.8
		c1.2,0.7,1.5,2.7,0.7,3.9l-4.4,6.6c-0.9,1.4-2.7,2.3-4.1,1.4c-5-3.2-9.8-6.4-16.2-6.4c-6.6,0-10.2,3.7-10.2,8.1
		c0,5.5,4.3,9.2,13.8,13.1c11.3,4.5,24.3,11.3,24.3,26.3c0,12-10.4,23.1-26.8,23.1C155.1,83.5,147.6,77.3,144.1,74.4z"/>
	<path class="st0" d="M210.3,2.9c0-1.2,1-2.2,2.2-2.2h11.1c1.3,0,2.2,1.1,2.2,2.2v48.6c0,9.9,6.8,16.8,16.9,16.8
		c10.2,0,17-6.9,17-16.7V2.9c0-1.2,0.9-2.2,2.2-2.2H273c1.2,0,2.2,1.1,2.2,2.2v49.4c0,17.7-14.1,31.1-32.5,31.1
		c-18.3,0-32.4-13.4-32.4-31.1L210.3,2.9L210.3,2.9z"/>
	<path class="st0" d="M294.2,2.9c0-1.2,0.9-2.2,2.2-2.2h10.7c1.2,0,2.2,1.1,2.2,2.2v65.4H339c1.3,0,2.2,1.1,2.2,2.2v9.7
		c0,1.2-0.9,2.2-2.2,2.2h-42.6c-1.3,0-2.2-1.1-2.2-2.2L294.2,2.9L294.2,2.9z"/>
	<path class="st0" d="M361.7,14.8h-17.8c-1.3,0-2.2-1.1-2.2-2.2V2.9c0-1.2,0.9-2.2,2.2-2.2h50.9c1.3,0,2.2,1.1,2.2,2.2v9.6
		c0,1.2-0.9,2.2-2.2,2.2H377v65.5c0,1.2-1.1,2.2-2.2,2.2H364c-1.2,0-2.2-1.1-2.2-2.2L361.7,14.8L361.7,14.8z"/>
	<path class="st0" d="M406.5,74.4c-1.2-0.9-1.6-1.6-0.6-3.5l4.2-7.2c0.9-1.6,2.9-1.6,3.9-0.8c4.8,3.6,10,7.2,17.6,7.2
		c6,0,10.6-3.9,10.6-9c0-6-5-10-14.8-14c-11-4.4-21.9-11.4-21.9-25.2c0-10.4,7.7-22.4,26.2-22.4c11.9,0,21,6,23.3,7.8
		c1.2,0.7,1.5,2.7,0.7,3.9l-4.4,6.6c-0.9,1.4-2.7,2.3-4.1,1.4c-5-3.2-9.8-6.4-16.2-6.4c-6.6,0-10.2,3.7-10.2,8.1
		c0,5.5,4.3,9.2,13.8,13.1c11.3,4.5,24.3,11.3,24.3,26.3c0,12-10.4,23.1-26.8,23.1C417.5,83.5,409.9,77.3,406.5,74.4z"/>
</g>
</svg>
