<?xml version="1.0" encoding="utf-8"?>
<!-- Generator: Adobe Illustrator 26.0.3, SVG Export Plug-In . SVG Version: 6.00 Build 0)  -->
<svg version="1.1" id="Layer_1" xmlns="http://www.w3.org/2000/svg" xmlns:xlink="http://www.w3.org/1999/xlink" x="0px" y="0px"
	 viewBox="0 0 513.2 100" style="enable-background:new 0 0 513.2 100;" xml:space="preserve">
<style type="text/css">
	.st0{fill:#FFFFFF;}
</style>
<g id="Layer_2_00000062187508875288747540000003708633943915955116_">
	<g id="Layer_1-2">
		<path class="st0" d="M16.7,2.1c0.1-1.3,1.2-2.2,2.5-2.1h2.2c1,0,1.9,0.5,2.3,1.4L54.3,67h0.4L85.2,1.4c0.4-0.9,1.4-1.5,2.4-1.4
			h2.2c1.3-0.1,2.4,0.8,2.5,2.1l16.4,93.3c0.4,1.3-0.2,2.6-1.5,3.1c-0.3,0.1-0.7,0.2-1,0.1H93.6c-1.2-0.1-2.3-0.9-2.6-2.1l-8.3-52.6
			h-0.4L58.1,98.5c-0.4,1-1.3,1.6-2.4,1.5h-2.5c-1,0-2-0.6-2.4-1.5L26.3,43.9h-0.4l-8.1,52.6c-0.2,1.2-1.3,2-2.5,2.1H2.7
			c-1.4,0.1-2.6-1-2.7-2.4c0-0.3,0-0.5,0.1-0.8L16.7,2.1z"/>
		<path class="st0" d="M124.7,4c0-1.4,1.2-2.6,2.6-2.6h56.5c1.4,0,2.6,1.2,2.6,2.6v11.4c0,1.4-1.2,2.6-2.6,2.6h-41v22.8h34.4
			c1.4,0.1,2.6,1.2,2.6,2.6V55c0,1.4-1.2,2.6-2.6,2.6h-34.4v24.3h41.1c1.4,0,2.6,1.2,2.6,2.6V96c0,1.4-1.2,2.6-2.6,2.6h-56.6
			c-1.4,0-2.6-1.2-2.6-2.6V4z"/>
		<path class="st0" d="M222.9,48.8L195.1,5.3c-0.8-1.1-0.5-2.7,0.6-3.5c0.5-0.4,1.1-0.5,1.8-0.4h16.1c0.9,0,1.7,0.5,2.2,1.3
			l17.5,29.4h0.6l17.9-29.4c0.5-0.8,1.3-1.3,2.2-1.3h16.1c1.4-0.2,2.6,0.8,2.8,2.2c0.1,0.6-0.1,1.3-0.4,1.8l-27.9,43.5l28.8,46
			c0.8,1.1,0.6,2.6-0.5,3.5c-0.5,0.4-1.2,0.6-1.9,0.5h-15c-1,0-1.8-0.5-2.4-1.3l-19.9-31.8h-0.6l-19.5,31.8
			c-0.5,0.8-1.4,1.3-2.4,1.3h-15c-2.5,0-3.6-2.1-2.5-3.9L222.9,48.8z"/>
		<path class="st0" d="M286.3,4c0.1-1.4,1.2-2.6,2.6-2.6h12.9c1.4,0.1,2.6,1.2,2.6,2.6V96c-0.1,1.4-1.2,2.6-2.6,2.6H289
			c-1.4-0.1-2.6-1.2-2.6-2.6V4z"/>
		<path class="st0" d="M370.2,0c14,0,24.2,4.4,33.6,12.9c1.1,0.9,1.3,2.6,0.4,3.7c-0.1,0.1-0.1,0.2-0.2,0.2l-8.5,8.7
			c-0.8,1-2.2,1.1-3.2,0.3c-0.1-0.1-0.2-0.2-0.3-0.3c-5.9-5.2-13.5-8.1-21.4-8.2c-17.8,0-30.9,14.8-30.9,32.3s13.3,32.1,31.1,32.1
			c7.8-0.1,15.3-2.8,21.2-7.9c1-0.9,2.5-0.9,3.5,0l8.6,8.9c1,1.1,1,2.7-0.1,3.7c0,0,0,0,0,0c-9,8.8-21.2,13.6-33.8,13.4
			c-27.6,0.4-50.4-21.6-50.8-49.2C319,23.2,341,0.5,368.6,0C369.1,0,369.7,0,370.2,0z"/>
		<path class="st0" d="M463.1,0c27.6-0.1,50.1,22.2,50.1,49.9c0.1,27.6-22.2,50.1-49.9,50.1c-27.6,0.1-50.1-22.2-50.1-49.8
			c-0.1-27.6,22.1-50,49.6-50.2C463,0,463.1,0,463.1,0z M463.1,81.9c17.6,0.1,32-14.2,32.1-31.8s-14.2-32-31.8-32.1
			c-17.6-0.1-32,14.2-32.1,31.8c0,0.1,0,0.2,0,0.3C431.4,67.7,445.6,81.8,463.1,81.9z"/>
	</g>
</g>
</svg>
