<?xml version="1.0" encoding="utf-8"?>
<!-- Generator: Adobe Illustrator 26.0.3, SVG Export Plug-In . SVG Version: 6.00 Build 0)  -->
<svg version="1.1" id="Layer_1" xmlns="http://www.w3.org/2000/svg" xmlns:xlink="http://www.w3.org/1999/xlink" x="0px" y="0px"
	 viewBox="0 0 1023.5 100" style="enable-background:new 0 0 1023.5 100;" xml:space="preserve">
<style type="text/css">
	.st0{fill:#FFFFFF;}
</style>
<g>
	<g>
		<path class="st0" d="M50.6,1.1c13,0,23.2,3.9,32.9,12.7c0.4,0.3,0.6,0.8,0.6,1.2s-0.2,0.9-0.5,1.2L75,25l0,0l0,0
			c-0.2,0.2-0.5,0.5-0.9,0.5c-0.4,0-0.7-0.2-1.1-0.5l0,0l0,0c-6.1-5.4-14.1-8.4-22-8.4c-8.8,0-16.9,3.5-22.9,9.9
			c-5.9,6.3-9.1,14.6-9.1,23.4s3.3,17,9.2,23.2c6,6.3,14.2,9.8,22.9,9.8c7.8,0,15.2-2.7,21.9-8.2c0.4-0.4,0.8-0.4,1.1-0.4
			c0.4,0,0.8,0.1,1,0.4l8.6,8.9l0,0l0,0c0.2,0.2,0.4,0.5,0.4,0.9c0,0.5-0.2,1.1-0.6,1.4C74.7,94.4,63.3,99,50.6,99
			c-13.1,0-25.5-5.1-34.7-14.2C6.6,75.6,1.5,63.3,1.5,50.1c0-13.1,5.1-25.5,14.4-34.7S37.5,1.1,50.6,1.1 M50.6,0.1
			c-27.7,0-50,22.4-50,50s22.4,49.9,50,49.9c12.4,0,24.3-4.3,33.7-13.5c1-1,1.2-2.8,0.1-3.8l-8.6-8.9c-0.4-0.4-1.1-0.7-1.7-0.7
			c-0.6,0-1.2,0.2-1.8,0.7c-5.8,4.7-12.9,7.9-21.2,7.9C33.3,81.7,20,67,20,49.7c0-17.5,13.2-32.4,31-32.4c7.8,0,15.6,3.1,21.4,8.2
			c0.6,0.6,1.2,0.8,1.8,0.8c0.6,0,1.2-0.3,1.7-0.8l8.5-8.8c1.1-1.1,1.1-2.8-0.1-3.9C74.7,4.5,64.6,0.1,50.6,0.1L50.6,0.1z"/>
	</g>
	<g>
		<path class="st0" d="M141.6,1.1c13.2,0,25.5,5.1,34.7,14.4c9.2,9.3,14.3,21.6,14.3,34.8s-5.1,25.5-14.3,34.6
			C167,94,154.8,99,141.6,99s-25.5-5.1-34.6-14.2S92.8,63.3,92.8,50.1s5.1-25.5,14.2-34.8C116.2,6.2,128.5,1.1,141.6,1.1
			 M141.6,82.9c18.2,0,32.9-14.7,32.9-32.8c0-8.7-3.4-17-9.7-23.3c-6.3-6.3-14.5-9.8-23.2-9.8s-16.9,3.5-23.2,9.8
			c-6.2,6.3-9.6,14.6-9.6,23.3C108.8,68.2,123.5,82.9,141.6,82.9 M141.6,0.1c-27.8,0-49.9,22.4-49.9,50s22.1,49.9,49.9,49.9
			s50-22.1,50-49.9S169.3,0.1,141.6,0.1L141.6,0.1z M141.6,81.9c-17.5,0-31.8-14.3-31.8-31.8s14.3-32.1,31.8-32.1
			s31.9,14.6,31.9,32.1S159.1,81.9,141.6,81.9L141.6,81.9z"/>
	</g>
	<g>
		<path class="st0" d="M213.3,1.1c0.7,0,1.2,0.2,1.6,0.7l56.6,60.3l0.3,0.3h0.4h0.3h1v-1V4.1c0-0.8,0.6-1.6,1.6-1.6h12.8
			c0.8,0,1.6,0.8,1.6,1.6v93.4c0,0.8-0.8,1.5-1.6,1.5H286c-0.7,0-1.2-0.2-1.6-0.6l-56.8-62.7l-0.3-0.3h-0.4h-0.3h-1v1V96
			c0,0.8-0.6,1.6-1.6,1.6h-12.6c-0.8,0-1.6-0.8-1.6-1.6V2.6c0-0.8,0.8-1.5,1.6-1.5H213.3 M213.3,0.1h-2.1c-1.4,0-2.6,1.1-2.6,2.5V96
			c0,1.4,1.2,2.6,2.6,2.6h12.6c1.5,0,2.6-1.2,2.6-2.6V36.3h0.3l57,62.7c0.7,0.7,1.4,1,2.4,1h1.9c1.4,0,2.6-1.1,2.6-2.5V4.1
			c0-1.4-1.3-2.6-2.6-2.6h-12.8c-1.5,0-2.6,1.2-2.6,2.6v57.3h-0.3L215.7,1.1C215,0.4,214.3,0.1,213.3,0.1L213.3,0.1z"/>
	</g>
	<g>
		<path class="st0" d="M339.9,1.1c14.3,0,25.2,7.6,27.2,9.1l0,0l0,0c0.4,0.2,0.7,0.7,0.8,1.3c0.1,0.7,0,1.4-0.3,1.9l-5.3,7.9
			c-0.7,1-1.7,1.7-2.6,1.7c-0.3,0-0.6-0.1-0.9-0.3l-1-0.6c-5.6-3.5-11.3-7.1-18.8-7.1c-9.1,0-13.2,5.4-13.2,10.7
			c0,6.8,4.9,11.6,17,16.5c14,5.6,28.4,13.7,28.4,30.5c0,12.8-10.8,26.5-30.9,26.5c-17.6,0-26.5-7.7-29.9-10.6
			c-1-0.8-1.4-1.1-0.5-2.9l5-8.6c0.5-1,1.4-1.1,1.9-1.1c0.5,0,1,0.2,1.4,0.4c6.1,4.6,12.4,8.8,21.6,8.8c7.6,0,13.6-5.1,13.6-11.7
			c0-7.1-5.5-12.4-18.3-17.6c-10.9-4.4-25.5-12.2-25.5-29.1c0-6.4,2.6-12.7,7.1-17.3C322.1,4,330.1,1.1,339.9,1.1 M339.9,0.1
			c-22.1,0-31.3,14.3-31.3,26.7c0,16.4,13.1,24.7,26.1,30c11.7,4.7,17.6,9.6,17.6,16.7c0,6-5.4,10.7-12.6,10.7c-9,0-15.3-4.3-21-8.6
			c-0.5-0.4-1.2-0.6-2-0.6c-1,0-2.1,0.5-2.8,1.6l-5,8.6c-1.2,2.2-0.7,3.1,0.7,4.2c4,3.5,13.1,10.8,30.6,10.8
			c19.6,0,31.9-13.2,31.9-27.5c0-17.9-15.6-26-29-31.4c-11.2-4.6-16.4-9-16.4-15.6c0-5.3,4.3-9.7,12.2-9.7c7.6,0,13.3,3.9,19.3,7.6
			c0.5,0.3,1,0.4,1.5,0.4c1.3,0,2.6-0.9,3.4-2.1l5.3-7.9c1-1.4,0.6-3.8-0.8-4.6C364.8,7.3,354,0.1,339.9,0.1L339.9,0.1z"/>
	</g>
	<g>
		<path class="st0" d="M431.8,1.1c13.2,0,25.5,5.1,34.7,14.4s14.3,21.6,14.3,34.8s-5.1,25.5-14.3,34.6C457.3,94,445,99,431.8,99
			s-25.5-5.1-34.6-14.2C388,75.6,383,63.3,383,50.2c0-13.2,5.1-25.5,14.2-34.8S418.6,1.1,431.8,1.1 M431.8,82.9
			c18.2,0,32.9-14.7,32.9-32.8c0-8.7-3.4-17-9.7-23.3s-14.5-9.8-23.2-9.8s-16.9,3.5-23.2,9.8c-6.2,6.3-9.6,14.6-9.6,23.3
			C399,68.2,413.7,82.9,431.8,82.9 M431.8,0.1c-27.8,0-49.9,22.4-49.9,50S404,100,431.8,100s50-22.1,50-49.9S459.6,0.1,431.8,0.1
			L431.8,0.1z M431.8,81.9c-17.5,0-31.8-14.3-31.8-31.8s14.3-32.1,31.8-32.1s31.9,14.6,31.9,32.1S449.3,81.9,431.8,81.9L431.8,81.9z
			"/>
	</g>
	<g>
		<path class="st0" d="M514.2,2.5c0.8,0,1.6,0.8,1.6,1.6v77.8v1h1h35.4c1,0,1.6,0.9,1.6,1.6V96c0,0.8-0.6,1.6-1.6,1.6h-50.7
			c-1,0-1.6-0.9-1.6-1.6V4.1c0-0.8,0.6-1.6,1.6-1.6H514.2 M514.2,1.5h-12.8c-1.5,0-2.6,1.2-2.6,2.6V96c0,1.4,1.1,2.6,2.6,2.6h50.7
			c1.5,0,2.6-1.2,2.6-2.6V84.6c0-1.4-1.1-2.6-2.6-2.6h-35.4V4.1C516.8,2.7,515.6,1.5,514.2,1.5L514.2,1.5z"/>
	</g>
	<g>
		<path class="st0" d="M582.5,2.5c0.8,0,1.6,0.8,1.6,1.6V96c0,0.8-0.8,1.6-1.6,1.6h-12.9c-0.8,0-1.6-0.8-1.6-1.6V4.1
			c0-0.8,0.8-1.6,1.6-1.6H582.5 M582.5,1.5h-12.9c-1.4,0-2.6,1.2-2.6,2.6V96c0,1.4,1.2,2.6,2.6,2.6h12.9c1.4,0,2.6-1.2,2.6-2.6V4.1
			C585.2,2.7,583.9,1.5,582.5,1.5L582.5,1.5z"/>
	</g>
	<g>
		<path class="st0" d="M643.3,2.5C669.5,2.5,691,23.8,691,50c0,26.3-21.4,47.8-47.8,47.8h-32.9c-0.8,0-1.5-0.8-1.5-1.6v-92
			c0-0.9,0.7-1.6,1.5-1.6H643.3 M624.8,82.7h1h15.8c19,0,32.2-13.5,32.2-32.8c0-19.2-13.3-32.7-32.2-32.7h-15.8h-1v1v63.4V82.7
			 M643.3,1.5h-32.9c-1.4,0-2.5,1.2-2.5,2.6V96c0,1.4,1.1,2.6,2.5,2.6h32.9c26.8,0,48.8-21.8,48.8-48.8C692,23.3,670,1.5,643.3,1.5
			L643.3,1.5z M625.8,81.7V18.3h15.8c18.1,0,31.2,12.8,31.2,31.7c0,19-13.2,31.8-31.2,31.8H625.8L625.8,81.7z"/>
	</g>
	<g>
		<path class="st0" d="M740,1.1c0.8,0,1.1,0.3,1.5,0.9l42.8,93.4c0.3,0.6,0.2,1.1,0,1.5c-0.3,0.4-0.8,0.7-1.4,0.7h-12.1
			c-1.6,0-2.3-0.5-3.1-2.2l-6.8-15l-0.3-0.6h-0.8h-41.5h-0.6l-0.3,0.6l-6.8,15c-0.3,0.8-1.2,2.1-3.1,2.1h-12.1
			c-0.6,0-1.2-0.2-1.4-0.7c-0.3-0.4-0.3-1,0-1.5l43.1-93.2c0.3-0.7,0.8-1,1.5-1H740 M723.6,66.4h1.5H753h1.6L754,65l-13.9-30.6
			l-0.3-0.6h-0.6h-0.4h-0.6l-0.3,0.6L724.2,65L723.6,66.4 M740,0.1h-1.4c-1.3,0-1.9,0.7-2.4,1.5L693,95c-0.8,1.8,0.3,3.6,2.4,3.6
			h12.1c2.2,0,3.5-1.4,4-2.8l6.8-15h41.5l6.8,15c1,1.9,1.9,2.8,4,2.8h12.2c2.1,0,3.2-1.8,2.4-3.6L742.3,1.6
			C741.9,0.8,741.4,0.1,740,0.1L740,0.1z M725.1,65.4l13.6-30.6h0.4L753,65.4H725.1L725.1,65.4z"/>
	</g>
	<g>
		<path class="st0" d="M843.6,2.5c1,0,1.6,0.9,1.6,1.6v11.4c0,0.8-0.6,1.6-1.6,1.6h-21.2h-1v1V96c0,0.8-0.8,1.6-1.6,1.6h-12.9
			c-0.8,0-1.6-0.8-1.6-1.6V18.2v-1h-1h-21.2c-1,0-1.6-0.8-1.6-1.6V4.1c0-0.8,0.6-1.6,1.6-1.6H843.6 M843.6,1.5h-60.6
			c-1.5,0-2.6,1.2-2.6,2.6v11.4c0,1.4,1.1,2.6,2.6,2.6h21.2V96c0,1.4,1.2,2.6,2.6,2.6h13c1.4,0,2.6-1.2,2.6-2.6V18.2h21.2
			c1.5,0,2.6-1.2,2.6-2.6V4.1C846.2,2.7,845.1,1.5,843.6,1.5L843.6,1.5z"/>
	</g>
	<g>
		<path class="st0" d="M918.1,2.5c1,0,1.6,0.9,1.6,1.6v11.4c0,0.8-0.6,1.6-1.6,1.6H877h-1v1v22.8v1h1h34.3c0.8,0,1.6,0.8,1.6,1.6V55
			c0,1-0.9,1.6-1.6,1.6H877h-1v1v24.3v1h1h41.1c1,0,1.6,0.9,1.6,1.6V96c0,0.8-0.6,1.6-1.6,1.6h-56.4c-1,0-1.6-0.9-1.6-1.6V4.1
			c0-0.8,0.6-1.6,1.6-1.6H918.1 M918.1,1.5h-56.4c-1.5,0-2.6,1.2-2.6,2.6V96c0,1.4,1.1,2.6,2.6,2.6h56.4c1.5,0,2.6-1.2,2.6-2.6V84.6
			c0-1.4-1.1-2.6-2.6-2.6H877V57.6h34.3c1.4,0,2.6-1.1,2.6-2.6V43.6c0-1.4-1.3-2.6-2.6-2.6H877V18.2h41.1c1.5,0,2.6-1.2,2.6-2.6V4.1
			C920.8,2.7,919.7,1.5,918.1,1.5L918.1,1.5z"/>
	</g>
	<g>
		<path class="st0" d="M974.3,2.5c26.3,0,47.8,21.3,47.8,47.5c0,26.3-21.4,47.8-47.8,47.8h-32.9c-0.8,0-1.5-0.8-1.5-1.6v-92
			c0-0.9,0.7-1.6,1.5-1.6H974.3 M955.9,82.7h1h15.8c19,0,32.3-13.5,32.3-32.8c0-19.2-13.3-32.7-32.3-32.7h-15.8h-1v1v63.4V82.7
			 M974.3,1.5h-32.9c-1.4,0-2.5,1.2-2.5,2.6V96c0,1.4,1.1,2.6,2.5,2.6h32.9c26.8,0,48.8-21.8,48.8-48.8
			C1023,23.3,1001.1,1.5,974.3,1.5L974.3,1.5z M956.9,81.7V18.3h15.8c18.1,0,31.3,12.8,31.3,31.7c0,19-13.2,31.8-31.3,31.8H956.9
			L956.9,81.7z"/>
	</g>
</g>
</svg>
