<?xml version="1.0" encoding="utf-8"?>
<!-- Generator: Adobe Illustrator 26.0.3, SVG Export Plug-In . SVG Version: 6.00 Build 0)  -->
<svg version="1.1" id="Layer_1" xmlns="http://www.w3.org/2000/svg" xmlns:xlink="http://www.w3.org/1999/xlink" x="0px" y="0px"
	 viewBox="0 0 513.2 100" style="enable-background:new 0 0 513.2 100;" xml:space="preserve">
<style type="text/css">
	.st0{fill:#FFFFFF;}
</style>
<g id="Layer_2_00000062187508875288747540000003708633943915955116_">
	<g id="Layer_1-2">
		<path class="st0" d="M87.4,1c0,0,0.1,0,0.1,0l0,0h0h2.2h0l0,0C90,1,90,1,90,1c0.7,0,1.3,0.5,1.3,1.2l0,0l0,0l16.4,93.3l0,0.1
			l0,0.1c0.3,0.8-0.1,1.6-0.9,1.9c-0.2,0.1-0.4,0.1-0.4,0.1l-0.2-0.1h-0.2H93.7c-0.8-0.1-1.5-0.6-1.7-1.3l-8.3-52.5l-0.1-0.8h-0.9
			h-0.4h-0.7l-0.3,0.6L57.2,98.1C57,98.7,56.5,99,56,99c0,0-0.1,0-0.1,0l0,0h0h-2.5c-0.6,0-1.3-0.4-1.5-0.9L27.3,43.5L27,42.9h-0.6
			H26h-0.9L25,43.7l-8.1,52.6c-0.1,0.8-0.9,1.2-1.6,1.3H2.8h0l0,0c0,0-0.1,0-0.1,0c-0.8,0-1.4-0.6-1.5-1.4c0-0.2,0-0.3,0-0.4l0-0.1
			l0-0.1L17.7,2.3l0,0l0,0C17.8,1.5,18.3,1,19.1,1c0,0,0.1,0,0.1,0l0,0h0h2.2c0.6,0,1.2,0.3,1.4,0.8l30.6,65.6l0.3,0.6h0.6h0.4h0.6
			l0.3-0.6L86.2,1.8C86.4,1.3,86.9,1,87.4,1 M87.4,0c-0.9,0-1.8,0.6-2.2,1.4L54.7,67h-0.4L23.8,1.4C23.4,0.5,22.5,0,21.5,0h-2.2
			c-0.1,0-0.1,0-0.2,0c-1.2,0-2.2,0.9-2.3,2.1L0.2,95.4c-0.1,0.3-0.1,0.5-0.1,0.8c0.1,1.3,1.2,2.4,2.5,2.4c0.1,0,0.1,0,0.2,0h12.6
			c1.2-0.1,2.3-0.9,2.5-2.1L26,43.9h0.4l24.5,54.6c0.4,0.9,1.4,1.5,2.4,1.5h2.5c0.1,0,0.2,0,0.2,0c1,0,1.8-0.6,2.2-1.5l24.2-54.6
			h0.4L91,96.5c0.3,1.2,1.4,2,2.6,2.1h12.6c0.1,0,0.2,0,0.3,0c0.2,0,0.5-0.1,0.7-0.1c1.3-0.5,1.9-1.8,1.5-3.1L92.3,2.1
			C92.2,0.9,91.2,0,90,0c-0.1,0-0.1,0-0.2,0h-2.2C87.6,0,87.5,0,87.4,0L87.4,0z"/>
		<path class="st0" d="M183.8,2.4c0.9,0,1.6,0.7,1.6,1.6v11.4c0,0.9-0.7,1.6-1.6,1.6h-41h-1v1v22.8v1h1h34.4
			c0.9,0.1,1.6,0.8,1.6,1.6V55c0,0.9-0.7,1.6-1.6,1.6h-34.4h-1v1v24.3v1h1h41.1c0.9,0,1.6,0.7,1.6,1.6V96c0,0.9-0.7,1.6-1.6,1.6
			h-56.6c-0.9,0-1.6-0.7-1.6-1.6V4c0-0.9,0.7-1.6,1.6-1.6H183.8 M183.8,1.4h-56.5c-1.4,0-2.6,1.2-2.6,2.6v92c0,1.4,1.2,2.6,2.6,2.6
			h56.6c1.4,0,2.6-1.2,2.6-2.6V84.5c0-1.4-1.2-2.6-2.6-2.6h-41.1V57.6h34.4c1.4,0,2.6-1.2,2.6-2.6V43.4c0-1.4-1.2-2.5-2.6-2.6h-34.4
			V18h41c1.4,0,2.6-1.2,2.6-2.6V4C186.4,2.6,185.2,1.4,183.8,1.4L183.8,1.4z"/>
		<path class="st0" d="M197,2.4c0.1,0,0.2,0,0.3,0l0.1,0h0.1h16.1c0.5,0,1,0.3,1.3,0.8l17.5,29.4l0.3,0.5h0.6h0.6h0.6l0.3-0.5
			l17.9-29.4c0.3-0.5,0.8-0.8,1.4-0.8h16.1h0.1l0.1,0c0.1,0,0.1,0,0.2,0c0.7,0,1.3,0.6,1.5,1.4c0.1,0.3-0.1,0.8-0.3,1.1l-27.9,43.5
			l-0.3,0.5l0.3,0.5l28.8,46l0,0l0,0c0.5,0.7,0.4,1.6-0.3,2.1c-0.2,0.2-0.6,0.3-0.9,0.3c-0.1,0-0.1,0-0.2,0l-0.1,0H271h-15
			c-0.6,0-1.1-0.3-1.6-0.9l-19.9-31.8l-0.3-0.5h-0.6h-0.6h-0.6l-0.3,0.5l-19.5,31.8c-0.3,0.5-0.9,0.8-1.6,0.8h-15
			c-0.8,0-1.5-0.3-1.8-0.8c-0.3-0.5-0.2-1,0.1-1.5l29.2-46.2l0.3-0.5l-0.3-0.5L196,4.8l0,0l0,0c-0.2-0.3-0.3-0.7-0.2-1.1
			c0.1-0.4,0.3-0.8,0.7-1C196.5,2.4,196.7,2.4,197,2.4 M197,1.4c-0.5,0-0.9,0.1-1.3,0.4c-1.1,0.8-1.4,2.4-0.6,3.5l27.8,43.5
			L193.7,95c-1.1,1.8,0,3.9,2.5,3.9h15c1,0,1.9-0.5,2.4-1.3l19.5-31.8h0.6l19.9,31.8c0.6,0.8,1.4,1.3,2.4,1.3h15c0.1,0,0.2,0,0.4,0
			c0.6,0,1.1-0.2,1.5-0.5c1.1-0.9,1.3-2.4,0.5-3.5l-28.8-46l27.9-43.5c0.3-0.5,0.5-1.2,0.4-1.8c-0.2-1.3-1.2-2.2-2.4-2.2
			c-0.1,0-0.2,0-0.4,0H254c-0.9,0-1.7,0.5-2.2,1.3l-17.9,29.4h-0.6L215.8,2.7c-0.5-0.8-1.3-1.3-2.2-1.3h-16.1
			C197.3,1.4,197.2,1.4,197,1.4L197,1.4z"/>
		<path class="st0" d="M301.8,2.4c0.9,0.1,1.6,0.8,1.6,1.6V96c-0.1,0.9-0.8,1.6-1.6,1.6H289c-0.9-0.1-1.6-0.8-1.6-1.6V4V3.6
			c0.2-0.7,0.8-1.2,1.5-1.2H301.8 M301.8,1.4h-12.9c-1.4,0-2.5,1.2-2.6,2.6h0.1v92c0,1.4,1.2,2.5,2.6,2.6h12.8
			c1.4,0,2.5-1.2,2.6-2.6V4C304.4,2.6,303.2,1.5,301.8,1.4L301.8,1.4z"/>
		<path class="st0" d="M370.2,1c13.1,0,23.3,3.9,33,12.7c0.7,0.5,0.8,1.6,0.3,2.2l-0.2,0.2l-8.5,8.7l0,0l0,0
			c-0.2,0.3-0.6,0.5-0.9,0.5c-0.3,0-0.6-0.1-0.8-0.3l-0.1-0.1l-0.2-0.2l0,0l0,0c-6.1-5.3-13.9-8.3-22.1-8.4
			c-17.9,0-31.9,14.6-31.9,33.3c0,18.6,14.1,33.1,32.1,33.1c8.1-0.1,15.9-3,21.9-8.2c0.3-0.3,0.7-0.4,1.1-0.4c0.4,0,0.8,0.1,1.1,0.4
			l8.6,8.8c0.7,0.7,0.6,1.7-0.1,2.3c-8.7,8.5-20.1,13.1-32.3,13.1c-0.2,0-0.5,0-0.8,0c-0.2,0-0.5,0-0.7,0c-12.9,0-25.2-5-34.4-14.1
			c-9.3-9.1-14.5-21.2-14.6-34.2C320,23.7,341.6,1.5,368.6,1H370.2 M370.2,0c-0.5,0-1.1,0-1.6,0C341,0.5,319,23.2,319.4,50.6
			c0.4,27.3,22.8,49.2,50,49.2c0.2,0,0.5,0,0.7,0c0.3,0,0.5,0,0.8,0c12.3,0,24.2-4.8,33-13.4c1.1-1,1.1-2.6,0.1-3.7l-8.6-8.9
			c-0.5-0.4-1.1-0.7-1.7-0.7s-1.2,0.2-1.7,0.7c-5.9,5.1-13.4,7.8-21.2,7.9c-17.8,0-31.1-14.6-31.1-32.1s13.1-32.3,30.9-32.3
			c7.9,0.1,15.5,3,21.4,8.2c0.1,0.1,0.2,0.2,0.3,0.3c0.4,0.4,1,0.5,1.5,0.5c0.6,0,1.3-0.3,1.7-0.8l8.5-8.7c0.1,0,0.1-0.1,0.2-0.2
			c0.9-1.1,0.7-2.8-0.4-3.7C394.4,4.4,384.2,0,370.2,0L370.2,0z"/>
		<path class="st0" d="M463.2,1c27,0,48.9,21.9,48.9,48.9c0,13.1-5,25.4-14.3,34.7c-9.2,9.3-21.5,14.4-34.6,14.4l-0.2,0
			c-27,0-48.9-21.9-48.9-48.8c-0.1-26.9,21.7-49,48.6-49.2h0.3L463.2,1L463.2,1 M463.2,82.9c18,0,32.8-14.7,32.9-32.8
			c0.1-18.1-14.6-33-32.8-33.1l-0.2,0c-18,0-32.8,14.7-32.9,32.8l0,0.3c0,8.8,3.5,17,9.7,23.2c6.2,6.2,14.4,9.6,23.1,9.6L463.2,82.9
			 M463.2,0c-0.1,0-0.1,0-0.2,0c0,0-0.1,0-0.3,0c-27.5,0.2-49.7,22.6-49.6,50.2c0,27.5,22.4,49.8,49.9,49.8c0.1,0,0.1,0,0.2,0
			c27.7,0,50-22.5,49.9-50.1C513.1,22.3,490.8,0,463.2,0L463.2,0z M463.2,81.9c-0.1,0-0.1,0-0.2,0c-17.5-0.1-31.7-14.2-31.8-31.8
			c0-0.1,0-0.2,0-0.3c0.1-17.5,14.4-31.8,31.9-31.8c0.1,0,0.1,0,0.2,0c17.6,0.1,31.9,14.5,31.8,32.1C495,67.6,480.8,81.9,463.2,81.9
			L463.2,81.9z"/>
	</g>
</g>
</svg>
