<?xml version="1.0" encoding="utf-8"?>
<!-- Generator: Adobe Illustrator 26.0.3, SVG Export Plug-In . SVG Version: 6.00 Build 0)  -->
<svg version="1.1" id="Layer_1" xmlns="http://www.w3.org/2000/svg" xmlns:xlink="http://www.w3.org/1999/xlink" x="0px" y="0px"
	 viewBox="0 0 453 85" style="enable-background:new 0 0 453 85;" xml:space="preserve">
<style type="text/css">
	.st0{fill:#FFFFFF;}
</style>
<g>
	<path class="st0" d="M61.4,82.3h-12c-1.4,0-2-0.9-2.2-1.3l-15-30h-12v28.7c0,1.3-1.2,2.6-2.6,2.6H7c-1.4,0-2.6-1.2-2.6-2.6V4.2
		c0-1.4,1.2-2.6,2.6-2.6h32.7c13.9,0,25.3,11.2,25.3,25c0,10.1-6.4,18.9-16.7,23.3l15.4,28.6c0.5,0.8,0.5,1.9,0,2.7
		C63.2,81.9,62.4,82.3,61.4,82.3z M19.3,50.2h13.4L48,80.7c0.1,0.2,0.5,0.8,1.4,0.8h12c0.7,0,1.3-0.3,1.6-0.8c0.3-0.5,0.3-1.3,0-1.8
		L47.1,49.4l0.4-0.2c10.2-4.1,16.6-12.8,16.6-22.7c0-13.3-10.9-24-24.4-24H7.1c-0.9,0-1.8,0.8-1.8,1.8v75.5c0,0.9,0.8,1.8,1.8,1.8
		h10.5c0.9,0,1.8-0.8,1.8-1.8L19.3,50.2L19.3,50.2z M38.4,38.9h-19V15.4h19c6.4,0,11.7,5.3,11.7,11.5C50.2,33.3,44.8,38.9,38.4,38.9
		z M20.3,38.1h18.1c5.9,0,10.8-5.1,10.8-11.3c0-5.8-5-10.7-10.8-10.7H20.3V38.1z"/>
	<path class="st0" d="M128.8,82.3H82.4c-1.4,0-2.6-1.2-2.6-2.6V4.2c0-1.4,1.2-2.6,2.6-2.6h46.5c1.4,0,2.6,1.2,2.6,2.6v9.3
		c0,1.4-1.2,2.6-2.6,2.6H95.5V34h27.7c1.3,0,2.6,1.2,2.6,2.6v9.5c0,1.4-1.2,2.6-2.6,2.6H95.5v19.2h33.4c1.4,0,2.6,1.2,2.6,2.6v9.3
		C131.4,81.2,130.3,82.3,128.8,82.3z M82.4,2.5c-0.9,0-1.8,0.8-1.8,1.8v75.5c0,0.9,0.8,1.8,1.8,1.8h46.5c0.9,0,1.8-0.8,1.8-1.8v-9.4
		c0-0.9-0.8-1.8-1.8-1.8H94.7V47.9h28.6c0.9,0,1.8-0.8,1.8-1.8v-9.5c0-0.9-0.8-1.8-1.8-1.8H94.7V15.4h34.2c0.9,0,1.8-0.8,1.8-1.8
		V4.2c0-0.9-0.8-1.8-1.8-1.8L82.4,2.5L82.4,2.5z"/>
	<path class="st0" d="M167.1,83.5c-15,0-22.5-6.6-25.4-9c-1.3-1.1-1.8-1.9-0.7-3.9l4.1-7.1c0.4-0.8,1.2-1.3,2-1.5s1.8,0,2.4,0.6
		c4.9,3.7,9.8,7,17,7c5.6,0,10-3.7,10-8.4c0-5.3-4.3-9.2-14.2-13.3c-9.3-3.8-21.7-10.5-21.7-25c0-5.6,2.3-11.1,6.1-15
		c4.7-4.8,11.6-7.3,19.9-7.3c12.2,0,21.3,6.5,23.1,7.7c0.6,0.3,1,1,1.2,1.8c0.2,0.9,0,1.8-0.4,2.5l-4.4,6.5c-0.5,0.8-1.3,1.4-2,1.7
		c-0.9,0.3-1.8,0.3-2.5-0.3l-0.8-0.5c-4.6-2.9-9-5.7-14.8-5.7c-6.6,0-9.7,3.8-9.7,7.6c0,5,3.9,8.6,13.2,12.3
		c11.9,4.8,24.1,11.7,24.1,26.2C193.8,71.7,184.4,83.5,167.1,83.5z M147.8,62.7c-0.2,0-0.3,0-0.4,0.1c-0.4,0.1-1,0.3-1.4,1.1
		l-4.1,7.1c-0.9,1.6-0.6,2,0.5,2.9l0,0c2.8,2.4,10.2,8.8,24.9,8.8c16.8,0,25.8-11.4,25.8-22.2c0-14-11.9-20.7-23.6-25.4
		c-9.7-4-13.8-7.8-13.8-13.2c0-4.2,3.3-8.4,10.5-8.4c6,0,10.5,2.9,15.2,5.8l0.8,0.5c0.7,0.4,1.3,0.3,1.8,0.2
		c0.6-0.3,1.2-0.8,1.6-1.3l4.4-6.5c0.3-0.5,0.4-1.2,0.3-1.8c-0.2-0.6-0.4-1.1-0.8-1.3c-1.7-1.3-10.8-7.6-22.6-7.6
		c-12.2,0-25.3,6.7-25.3,21.5c0,14,12.1,20.6,21.2,24.3c10.3,4.2,14.8,8.4,14.8,14.1c0,5.1-4.7,9.2-10.8,9.2
		c-7.4,0-12.5-3.4-17.5-7.1C148.8,62.9,148.3,62.7,147.8,62.7z"/>
	<path class="st0" d="M238.5,83.5c-18.3,0-32.2-13.3-32.2-30.9V4.2c0-1.3,1.2-2.6,2.6-2.6h10.8c1.4,0,2.6,1.2,2.6,2.6v47.5
		c0,9.6,6.5,16,16.1,16s16.2-6.6,16.2-15.9V4.2c0-1.4,1.2-2.6,2.6-2.6H268c1.3,0,2.6,1.2,2.6,2.6v48.4
		C270.7,70.2,256.9,83.5,238.5,83.5z M208.9,2.5c-0.9,0-1.8,0.8-1.8,1.8v48.4c0,17.1,13.4,30.1,31.3,30.1s31.4-12.9,31.4-30.1V4.2
		c0-0.9-0.8-1.8-1.8-1.8h-10.8c-0.9,0-1.8,0.8-1.8,1.8v47.7c0,9.8-7.1,16.7-17.1,16.7c-10.2,0-17-6.8-17-16.9V4.2
		c0-0.9-0.8-1.8-1.8-1.8L208.9,2.5L208.9,2.5z"/>
	<path class="st0" d="M332.8,82.3H291c-1.4,0-2.6-1.2-2.6-2.6V4.2c0-1.4,1.2-2.6,2.6-2.6h10.5c1.3,0,2.6,1.2,2.6,2.6v63.6h28.6
		c1.4,0,2.6,1.2,2.6,2.6v9.4C335.4,81.2,334.2,82.3,332.8,82.3z M291.1,2.5c-0.9,0-1.8,0.8-1.8,1.8v75.5c0,0.9,0.8,1.8,1.8,1.8h41.8
		c0.9,0,1.8-0.8,1.8-1.8v-9.4c0-0.9-0.8-1.8-1.8-1.8h-29.5V4.2c0-0.9-0.8-1.8-1.8-1.8L291.1,2.5L291.1,2.5z"/>
	<path class="st0" d="M367.8,82.3h-10.6c-1.3,0-2.6-1.2-2.6-2.6V16.2h-17.1c-1.4,0-2.6-1.2-2.6-2.6V4.2c0-1.4,1.2-2.6,2.6-2.6h49.9
		c1.4,0,2.6,1.2,2.6,2.6v9.3c0,1.4-1.2,2.6-2.6,2.6h-17.1v63.7C370.4,81.1,369.1,82.3,367.8,82.3z M337.5,2.5
		c-0.9,0-1.8,0.8-1.8,1.8v9.3c0,0.9,0.8,1.8,1.8,1.8h17.9v64.4c0,0.9,0.8,1.8,1.8,1.8h10.6c0.9,0,1.8-0.8,1.8-1.8V15.4h17.9
		c0.9,0,1.8-0.8,1.8-1.8V4.2c0-0.9-0.8-1.8-1.8-1.8L337.5,2.5L337.5,2.5z"/>
	<path class="st0" d="M424,83.5c-15,0-22.5-6.6-25.4-9c-1.3-1.1-1.8-1.9-0.7-3.9l4.1-7.1c0.4-0.8,1.2-1.3,2-1.5s1.8,0,2.4,0.6
		c4.9,3.7,9.8,7,17,7c5.6,0,10-3.7,10-8.4c0-5.3-4.3-9.2-14.2-13.3c-9.3-3.8-21.7-10.5-21.7-25c0-5.6,2.3-11.1,6.1-15
		c4.7-4.8,11.6-7.3,19.9-7.3c12.2,0,21.3,6.5,23.1,7.7c0.6,0.3,1,1,1.2,1.8c0.2,0.9,0,1.8-0.4,2.5l-4.4,6.5c-0.5,0.8-1.3,1.4-2,1.7
		c-0.9,0.3-1.8,0.3-2.5-0.3l-0.8-0.5c-4.6-2.9-9-5.7-14.8-5.7c-6.6,0-9.7,3.8-9.7,7.6c0,5,3.9,8.6,13.2,12.3
		c11.9,4.8,24.1,11.7,24.1,26.2C450.7,71.7,441.3,83.5,424,83.5z M404.7,62.7c-0.2,0-0.3,0-0.4,0.1c-0.4,0.1-1,0.3-1.4,1.1l-4.1,7.1
		c-0.9,1.6-0.6,2,0.5,2.9l0,0c2.8,2.4,10.2,8.8,24.9,8.8c16.8,0,25.8-11.4,25.8-22.2c0-14-11.9-20.7-23.6-25.4
		c-9.7-3.9-13.7-7.8-13.7-13.2c0-4.2,3.3-8.4,10.5-8.4c6,0,10.5,2.9,15.2,5.8l0.8,0.5c0.7,0.4,1.3,0.3,1.8,0.2
		c0.6-0.3,1.2-0.8,1.6-1.3l4.4-6.5c0.3-0.5,0.4-1.2,0.3-1.8c-0.2-0.6-0.4-1.1-0.8-1.3c-1.7-1.3-10.8-7.6-22.6-7.6
		c-12.2,0-25.3,6.7-25.3,21.5c0,14,12.1,20.6,21.2,24.3c10.3,4.2,14.8,8.4,14.8,14.1c0,5.1-4.7,9.2-10.8,9.2
		c-7.4,0-12.5-3.4-17.5-7.1C405.6,62.9,405.2,62.7,404.7,62.7z"/>
</g>
</svg>
