<svg xmlns="http://www.w3.org/2000/svg" viewBox="0 0 829.25 100"><defs><style>.cls-1{fill:#fff;}</style></defs><g id="Layer_2" data-name="Layer 2"><g id="Layer_2-2" data-name="Layer 2"><path class="cls-1" d="M0,4A2.64,2.64,0,0,1,2.64,1.39H42.36A30.08,30.08,0,0,1,72.64,31.25c0,12.78-8.47,23.19-20.56,28.06l19,35.27a2.63,2.63,0,0,1-2.36,4H54.17a2.39,2.39,0,0,1-2.23-1.25L33.47,60.56H18.06V96a2.73,2.73,0,0,1-2.64,2.64H2.64A2.64,2.64,0,0,1,0,96ZM40.83,45.69c7.36,0,13.75-6.38,13.75-14.16A13.82,13.82,0,0,0,40.83,18.06H18.2V45.69Z"/><path class="cls-1" d="M90.77,4a2.64,2.64,0,0,1,2.64-2.64h56.53A2.64,2.64,0,0,1,152.58,4V15.42a2.64,2.64,0,0,1-2.64,2.64H108.83V40.83h34.3a2.73,2.73,0,0,1,2.64,2.64V55a2.64,2.64,0,0,1-2.64,2.64h-34.3v24.3h41.11a2.64,2.64,0,0,1,2.64,2.64V96a2.64,2.64,0,0,1-2.64,2.64H93.41A2.64,2.64,0,0,1,90.77,96Z"/><path class="cls-1" d="M165.85,89.17c-1.39-1.11-1.94-2-.69-4.17l5-8.61a3.21,3.21,0,0,1,4.72-1c5.69,4.3,11.94,8.61,21,8.61,7.22,0,12.64-4.72,12.64-10.7,0-7.08-6-11.94-17.64-16.66-13-5.28-26.11-13.61-26.11-30C164.74,14.31,173.91,0,196,0c14.17,0,25,7.22,27.78,9.31a3.43,3.43,0,0,1,.83,4.58l-5.28,7.92c-1.11,1.66-3.19,2.77-4.86,1.66-6-3.75-11.66-7.64-19.3-7.64-7.92,0-12.23,4.45-12.23,9.73,0,6.52,5.14,11,16.39,15.55,13.48,5.42,29,13.47,29,31.39,0,14.31-12.36,27.5-31.94,27.5C178.91,100,169.88,92.64,165.85,89.17Z"/><path class="cls-1" d="M243.18,4a2.73,2.73,0,0,1,2.64-2.64H259A2.63,2.63,0,0,1,261.65,4V61.94c0,11.81,8.06,20,20.14,20s20.28-8.19,20.28-19.86V4a2.64,2.64,0,0,1,2.64-2.64H317.9A2.73,2.73,0,0,1,320.54,4V62.92c0,21.11-16.8,37.08-38.75,37.08s-38.61-16-38.61-37.08Z"/><path class="cls-1" d="M342.66,4a2.64,2.64,0,0,1,2.64-2.64h12.78A2.73,2.73,0,0,1,360.72,4V81.94h35.42a2.63,2.63,0,0,1,2.63,2.64V96a2.63,2.63,0,0,1-2.63,2.64H345.3A2.64,2.64,0,0,1,342.66,96Z"/><path class="cls-1" d="M418.53,18.06H397.29a2.64,2.64,0,0,1-2.64-2.64V4a2.64,2.64,0,0,1,2.64-2.64H458A2.64,2.64,0,0,1,460.62,4V15.42A2.64,2.64,0,0,1,458,18.06H436.73V96a2.73,2.73,0,0,1-2.64,2.64H421.18A2.74,2.74,0,0,1,418.53,96Z"/><path class="cls-1" d="M455.75,95,499,1.53A2.48,2.48,0,0,1,501.31,0h1.39a2.35,2.35,0,0,1,2.36,1.53L547.84,95a2.45,2.45,0,0,1-2.36,3.61H533.39c-2.08,0-3-.83-4-2.78l-6.81-15H481l-6.8,15a4.2,4.2,0,0,1-4,2.78H458.11A2.45,2.45,0,0,1,455.75,95Zm60-29.58L501.87,34.86h-.42L487.84,65.42Z"/><path class="cls-1" d="M559.38,4a2.61,2.61,0,0,1,2.49-2.64h32.92c26.81,0,48.75,21.8,48.75,48.47a48.81,48.81,0,0,1-48.75,48.75H561.87A2.61,2.61,0,0,1,559.38,96Zm33.74,77.64c18.06,0,31.25-12.78,31.25-31.81s-13.19-31.67-31.25-31.67H577.29V81.67Z"/><path class="cls-1" d="M704.8,0a50,50,0,1,1,0,100,49.55,49.55,0,0,1-49.86-49.86A49.79,49.79,0,0,1,704.8,0Zm0,81.94a31.94,31.94,0,1,0,0-63.88C687.3,18.06,673,32.64,673,50.14A31.89,31.89,0,0,0,704.8,81.94Z"/><path class="cls-1" d="M766.75,89.17c-1.39-1.11-1.94-2-.69-4.17l5-8.61a3.21,3.21,0,0,1,4.72-1c5.69,4.3,12,8.61,21,8.61,7.23,0,12.64-4.72,12.64-10.7,0-7.08-6-11.94-17.64-16.66-13-5.28-26.11-13.61-26.11-30C765.64,14.31,774.81,0,796.89,0c14.17,0,25,7.22,27.78,9.31a3.43,3.43,0,0,1,.83,4.58l-5.27,7.92c-1.12,1.66-3.2,2.77-4.87,1.66-6-3.75-11.66-7.64-19.3-7.64-7.92,0-12.23,4.45-12.23,9.73,0,6.52,5.14,11,16.39,15.55,13.48,5.42,29,13.47,29,31.39,0,14.31-12.36,27.5-31.94,27.5C779.81,100,770.78,92.64,766.75,89.17Z"/></g></g></svg>