<?xml version="1.0" encoding="utf-8"?>
<!-- Generator: Adobe Illustrator 26.0.3, SVG Export Plug-In . SVG Version: 6.00 Build 0)  -->
<svg version="1.1" id="Layer_1" xmlns="http://www.w3.org/2000/svg" xmlns:xlink="http://www.w3.org/1999/xlink" x="0px" y="0px"
	 viewBox="0 0 1217.3 100" style="enable-background:new 0 0 1217.3 100;" xml:space="preserve">
<style type="text/css">
	.st0{fill:#FFFFFF;}
</style>
<g>
	<path class="st0" d="M50.1,0c14,0,24.2,4.4,33.6,12.9c1.3,1.1,1.3,2.8,0.1,3.9l-8.5,8.8c-1,1.1-2.4,1.1-3.5,0
		c-5.8-5.1-13.6-8.2-21.4-8.2c-17.8,0-31,14.9-31,32.4c0,17.4,13.3,32.1,31.1,32.1c8.3,0,15.4-3.2,21.2-7.9c1.1-1,2.6-0.8,3.5,0
		l8.6,8.9c1.1,1,0.8,2.8-0.1,3.8C74.4,95.7,62.5,100,50.1,100C22.4,100,0,77.9,0,50.1S22.4,0,50.1,0z"/>
	<path class="st0" d="M99.6,4c0-1.4,1.1-2.6,2.6-2.6h56.5c1.5,0,2.6,1.2,2.6,2.6v11.4c0,1.4-1.1,2.6-2.6,2.6h-41.1v22.8H152
		c1.4,0,2.6,1.3,2.6,2.6V55c0,1.5-1.2,2.6-2.6,2.6h-34.3v24.3h41.1c1.5,0,2.6,1.2,2.6,2.6V96c0,1.4-1.1,2.6-2.6,2.6h-56.5
		c-1.5,0-2.6-1.2-2.6-2.6V4z"/>
	<path class="st0" d="M179.6,2.5c0-1.4,1.2-2.5,2.6-2.5h2.1c1,0,1.7,0.3,2.4,1l56.7,60.4h0.3V4c0-1.4,1.1-2.6,2.6-2.6H259
		c1.4,0,2.6,1.2,2.6,2.6v93.5c0,1.4-1.3,2.5-2.6,2.5h-1.9c-1,0-1.7-0.3-2.4-1l-56.9-62.8h-0.3V96c0,1.4-1.1,2.6-2.6,2.6h-12.6
		c-1.4,0-2.6-1.2-2.6-2.6V2.5z"/>
	<path class="st0" d="M298.5,18.1h-21.2c-1.5,0-2.6-1.2-2.6-2.6V4c0-1.4,1.1-2.6,2.6-2.6H338c1.5,0,2.6,1.2,2.6,2.6v11.4
		c0,1.4-1.1,2.6-2.6,2.6h-21.3V96c0,1.4-1.2,2.6-2.6,2.6h-12.9c-1.4,0-2.6-1.2-2.6-2.6V18.1z"/>
	<path class="st0" d="M353.5,4c0-1.4,1.1-2.6,2.6-2.6h39.7c16.7,0,30.3,13.3,30.3,29.9c0,12.8-8.5,23.2-20.6,28.1l19,35.3
		c1,1.8,0,4-2.4,4h-14.6c-1.2,0-1.9-0.7-2.2-1.2L387,60.6h-15.4V96c0,1.4-1.2,2.6-2.6,2.6h-12.8c-1.5,0-2.6-1.2-2.6-2.6V4z
		 M394.3,45.7c7.4,0,13.8-6.4,13.8-14.2c0-7.4-6.4-13.5-13.8-13.5h-22.6v27.6H394.3z"/>
	<path class="st0" d="M434.8,95L478,1.5c0.4-0.8,1.1-1.5,2.4-1.5h1.4c1.4,0,1.9,0.7,2.4,1.5L526.9,95c0.8,1.8-0.3,3.6-2.4,3.6h-12.1
		c-2.1,0-3.1-0.8-4-2.8l-6.8-15h-41.5l-6.8,15c-0.6,1.4-1.8,2.8-4,2.8h-12.1C435.1,98.6,434,96.8,434.8,95z M494.8,65.4l-13.9-30.6
		h-0.4l-13.6,30.6H494.8z"/>
	<path class="st0" d="M538.4,4c0-1.4,1.1-2.6,2.6-2.6h12.8c1.4,0,2.6,1.2,2.6,2.6v77.9h35.4c1.5,0,2.6,1.2,2.6,2.6V96
		c0,1.4-1.1,2.6-2.6,2.6h-50.8c-1.5,0-2.6-1.2-2.6-2.6V4z"/>
	<path class="st0" d="M601.4,95l43.2-93.5c0.4-0.8,1.1-1.5,2.4-1.5h1.4c1.4,0,1.9,0.7,2.4,1.5L693.4,95c0.8,1.8-0.3,3.6-2.4,3.6H679
		c-2.1,0-3.1-0.8-4-2.8l-6.8-15h-41.5l-6.8,15c-0.6,1.4-1.8,2.8-4,2.8h-12.1C601.6,98.6,600.5,96.8,601.4,95z M661.4,65.4
		l-13.9-30.6h-0.4l-13.6,30.6H661.4z"/>
	<path class="st0" d="M718.9,2.1c0.1-1.1,1-2.1,2.5-2.1h2.2c1.1,0,1.9,0.6,2.4,1.4l30.6,65.6c0.3,0,0.3,0,0.4,0l30.6-65.6
		c0.4-0.8,1.1-1.4,2.4-1.4h2.2c1.5,0,2.4,1,2.5,2.1L811,95.4c0.4,1.9-0.7,3.2-2.5,3.2h-12.6c-1.3,0-2.4-1.1-2.6-2.1l-8.2-52.6
		c-0.1,0-0.4,0-0.4,0l-24.3,54.6c-0.3,0.8-1.1,1.5-2.4,1.5h-2.5c-1.2,0-1.9-0.7-2.4-1.5l-24.6-54.6c0,0-0.3,0-0.4,0l-8.1,52.6
		c-0.1,1-1.2,2.1-2.5,2.1h-12.5c-1.8,0-2.9-1.2-2.6-3.2L718.9,2.1z"/>
	<path class="st0" d="M828.2,4c0-1.4,1.1-2.6,2.6-2.6h56.5c1.5,0,2.6,1.2,2.6,2.6v11.4c0,1.4-1.1,2.6-2.6,2.6h-41.1v22.8h34.3
		c1.4,0,2.6,1.3,2.6,2.6V55c0,1.5-1.2,2.6-2.6,2.6h-34.3v24.3h41.1c1.5,0,2.6,1.2,2.6,2.6V96c0,1.4-1.1,2.6-2.6,2.6h-56.5
		c-1.5,0-2.6-1.2-2.6-2.6V4z"/>
	<path class="st0" d="M908.2,4c0-1.4,1.1-2.6,2.6-2.6h39.7c16.7,0,30.3,13.3,30.3,29.9c0,12.8-8.5,23.2-20.6,28.1l19,35.3
		c1,1.8,0,4-2.4,4h-14.6c-1.2,0-1.9-0.7-2.2-1.2l-18.5-36.8h-15.4V96c0,1.4-1.3,2.6-2.6,2.6h-12.8c-1.5,0-2.6-1.2-2.6-2.6V4z
		 M949,45.7c7.4,0,13.8-6.4,13.8-14.2c0-7.4-6.4-13.5-13.8-13.5h-22.6v27.6H949z"/>
	<path class="st0" d="M999,4c0-1.4,1.2-2.6,2.6-2.6h12.9c1.4,0,2.6,1.2,2.6,2.6V96c0,1.4-1.2,2.6-2.6,2.6h-12.9
		c-1.4,0-2.6-1.2-2.6-2.6V4z"/>
	<path class="st0" d="M1084.1,0c14,0,24.2,4.4,33.6,12.9c1.2,1.1,1.2,2.8,0.1,3.9l-8.5,8.8c-1,1.1-2.4,1.1-3.5,0
		c-5.8-5.1-13.6-8.2-21.4-8.2c-17.8,0-31,14.9-31,32.4c0,17.4,13.3,32.1,31.1,32.1c8.3,0,15.4-3.2,21.2-7.9c1.1-1,2.6-0.8,3.5,0
		l8.6,8.9c1.1,1,0.8,2.8-0.1,3.8c-9.4,9.2-21.4,13.5-33.7,13.5c-27.8,0-50.1-22.1-50.1-49.9S1056.4,0,1084.1,0z"/>
	<path class="st0" d="M1124.9,95l43.2-93.5c0.4-0.8,1.1-1.5,2.4-1.5h1.4c1.4,0,1.9,0.7,2.4,1.5L1217,95c0.8,1.8-0.3,3.6-2.4,3.6
		h-12.1c-2.1,0-3.1-0.8-4-2.8l-6.8-15h-41.5l-6.8,15c-0.6,1.4-1.8,2.8-4,2.8h-12.1C1125.2,98.6,1124.1,96.8,1124.9,95z M1184.9,65.4
		L1171,34.9h-0.4L1157,65.4H1184.9z"/>
</g>
</svg>
