<svg xmlns="http://www.w3.org/2000/svg" viewBox="0 0 753.9 479.66"><defs><style>.cls-1{fill:#fff;}.cls-2{opacity:0.3;}.cls-3{opacity:0.15;}</style></defs><g id="Layer_2" data-name="Layer 2"><g id="Layer_2-2" data-name="Layer 2"><rect class="cls-1" x="50.41" y="148.94" width="18.64" height="82.57" rx="2.24"/><path class="cls-1" d="M117.63,214.05c13.33,0,21.94-10.5,21.94-24s-8.61-23.82-21.94-23.82H105.24v47.77ZM86.84,151.18A2.21,2.21,0,0,1,89,148.94h28.79a41.29,41.29,0,1,1,0,82.57H89a2.21,2.21,0,0,1-2.12-2.24Z"/><path class="cls-1" d="M172.23,151.18a2.24,2.24,0,0,1,2.24-2.24h48.84a2.24,2.24,0,0,1,2.24,2.24V164a2.25,2.25,0,0,1-2.24,2.24H190.63V180.9h26.9a2.32,2.32,0,0,1,2.24,2.24V196a2.24,2.24,0,0,1-2.24,2.24h-26.9v15.93h32.68a2.24,2.24,0,0,1,2.24,2.24v12.86a2.24,2.24,0,0,1-2.24,2.24H174.47a2.24,2.24,0,0,1-2.24-2.24Z"/><path class="cls-1" d="M280.7,203.2l-9-19.46h-.12l-8.84,19.46Zm-48.49,25.24,36.93-79.39a2.38,2.38,0,0,1,2-1.29h1.18a2.41,2.41,0,0,1,2,1.29l36.92,79.39a2.09,2.09,0,0,1-2,3.07H296.15c-2.12,0-3.07-.71-4.13-2.95l-4.25-9.32H255.69l-4.25,9.44a4.4,4.4,0,0,1-4.25,2.83h-13a2.09,2.09,0,0,1-2-3.07"/><path class="cls-1" d="M317.7,223.61a2.67,2.67,0,0,1-.47-3.54l5.43-9.56a2.78,2.78,0,0,1,4-.7c3.3,2.24,9.32,6.48,16.75,6.48,4.72,0,8.14-2.95,8.14-7.07,0-5-4.36-8.14-12.15-11.92-11.44-5.54-22.88-11.91-22.88-26.07,0-11.68,9.08-23.47,27.25-23.47,12.26,0,21.7,6.25,25.24,8.84,1.41.83,1.18,3,.71,3.78l-6,9.08c-.82,1.3-2.83,2.24-5.19.83-2.71-1.89-9.67-6.37-15.93-6.37-4.95,0-7.19,3.06-7.19,6.49,0,3.89,4.6,7,12.86,11,10.38,5.07,23.83,10.85,23.83,26.89,0,12.15-10.5,24.42-27.84,24.42-15.34,0-23.83-6.37-26.55-9.08"/><g class="cls-2"><path class="cls-1" d="M69,132.44V84.9a2.32,2.32,0,0,0-2.24-2.24H52.65a2.32,2.32,0,0,0-2.24,2.24v47.54Z"/></g><g class="cls-2"><path class="cls-1" d="M159.15,123.83a40.66,40.66,0,0,0-.87-8.38h0a41,41,0,0,0-8-17,41.43,41.43,0,0,0-32.51-15.81H89a2.21,2.21,0,0,0-2.12,2.24v47.54h18.4V100h12.39c10.36,0,17.85,6.36,20.68,15.45a28.11,28.11,0,0,1,1.26,8.38,28.54,28.54,0,0,1-1.31,8.61h20a41.44,41.44,0,0,0,.91-8.61"/></g><g class="cls-2"><path class="cls-1" d="M225.55,97.76V84.9a2.24,2.24,0,0,0-2.24-2.24H174.47a2.24,2.24,0,0,0-2.24,2.24v47.54h18.4V132h26.89a2.25,2.25,0,0,0,2.25-2.24V116.87a2.22,2.22,0,0,0-.58-1.42,2.25,2.25,0,0,0-1.67-.82H190.63V100h32.68a2.22,2.22,0,0,0,2.1-1.53,2.42,2.42,0,0,0,.14-.71"/></g><g class="cls-2"><path class="cls-1" d="M297.42,132.44l-7.9-17-7.9-17-7.29-15.69a2.4,2.4,0,0,0-2-1.3h-1.18a2.37,2.37,0,0,0-2,1.3l-7.3,15.69-7.9,17-7.9,17H264.8l6.81-15h.12l6.9,15Z"/></g><g class="cls-3"><path class="cls-1" d="M69,66.31V35.76a2.32,2.32,0,0,0-2.24-2.24H52.65a2.32,2.32,0,0,0-2.24,2.24V66.31Z"/></g><g class="cls-3"><path class="cls-1" d="M225.55,48.61V35.76a2.25,2.25,0,0,0-2.24-2.25H174.47a2.24,2.24,0,0,0-2.24,2.25V66.31h47a2.23,2.23,0,0,0-1.67-.83H190.63V50.86h32.68a2.23,2.23,0,0,0,2.1-1.54,2.42,2.42,0,0,0,.14-.71"/></g><g class="cls-3"><path class="cls-1" d="M289.52,66.31l-7.9-17h0l-7.29-15.69a2.4,2.4,0,0,0-2-1.3h-1.18a2.37,2.37,0,0,0-2,1.3l-7.3,15.69-7.9,17Z"/></g><g class="cls-3"><path class="cls-1" d="M369,41.18c-3.54-2.59-13-8.84-25.24-8.84-14.77,0-23.54,7.79-26.3,17a22.46,22.46,0,0,0-1,6.49,21.24,21.24,0,0,0,2.62,10.5H349l-.73-.35c-8.26-4-12.86-7.08-12.86-11a6.07,6.07,0,0,1,3.39-5.66,8.54,8.54,0,0,1,3.8-.82,17.63,17.63,0,0,1,5,.82h19.22L369.73,45c.47-.83.7-3-.71-3.78"/></g><g class="cls-3"><polygon class="cls-1" points="150.26 16.99 150.26 16.99 86.84 16.99 150.26 16.99"/></g><g class="cls-3"><polygon class="cls-1" points="225.41 16.99 225.41 16.99 172.23 16.99 225.41 16.99"/></g><g class="cls-3"><polygon class="cls-1" points="347.62 16.99 347.62 16.99 366.83 16.99 347.62 16.99"/></g><g class="cls-3"><polygon class="cls-1" points="317.48 16.99 317.48 16.99 338.79 16.99 317.48 16.99"/></g><g class="cls-3"><path class="cls-1" d="M117.75,1.18H89a2.21,2.21,0,0,0-2.12,2.24V17h63.42A41.43,41.43,0,0,0,117.75,1.18"/></g><g class="cls-3"><path class="cls-1" d="M225.55,16.28V3.42a2.24,2.24,0,0,0-2.24-2.24H174.47a2.24,2.24,0,0,0-2.24,2.24V17h53.18a2.49,2.49,0,0,0,.14-.71"/></g><g class="cls-3"><path class="cls-1" d="M317.48,17h21.31a8.41,8.41,0,0,1,3.8-.83,17.65,17.65,0,0,1,5,.83h19.22l2.89-4.37c.47-.82.7-2.95-.71-3.77C365.48,6.25,356,0,343.77,0,329,0,320.24,7.8,317.48,17"/></g><path class="cls-1" d="M50.41,249.26A2.24,2.24,0,0,1,52.65,247h48.83a2.24,2.24,0,0,1,2.25,2.24v12.86a2.24,2.24,0,0,1-2.25,2.24H68.81V279H95.7a2.32,2.32,0,0,1,2.24,2.24v12.86a2.24,2.24,0,0,1-2.24,2.24H68.81v15.93h32.67a2.24,2.24,0,0,1,2.25,2.24v12.85a2.25,2.25,0,0,1-2.25,2.25H52.65a2.24,2.24,0,0,1-2.24-2.25Z"/><path class="cls-1" d="M155,245.84c11.8,0,20.53,3.66,28.55,11a2.2,2.2,0,0,1,.12,3.31l-9.2,9.55a2.06,2.06,0,0,1-3,0,23.23,23.23,0,0,0-15.93-6c-13.33,0-23.12,11.09-23.12,24.31s9.91,23.94,23.24,23.94a23.13,23.13,0,0,0,15.81-5.66,2.31,2.31,0,0,1,3.06.12l9.21,9.79a2.37,2.37,0,0,1-.12,3.18A40.48,40.48,0,0,1,155,330.78a42.47,42.47,0,1,1,0-84.94"/><path class="cls-1" d="M231.38,311.9a23.59,23.59,0,1,0-23.48-23.47,23.63,23.63,0,0,0,23.48,23.47m0-66.06A42.47,42.47,0,1,1,189,288.43a42.39,42.39,0,0,1,42.35-42.59"/><path class="cls-1" d="M282.93,321.69a2.66,2.66,0,0,1-.47-3.54l5.43-9.55a2.79,2.79,0,0,1,4-.71c3.3,2.24,9.32,6.49,16.75,6.49,4.72,0,8.14-2.95,8.14-7.08,0-4.95-4.37-8.14-12.15-11.91-11.44-5.55-22.89-11.92-22.89-26.07,0-11.68,9.09-23.48,27.25-23.48,12.27,0,21.71,6.25,25.25,8.85,1.41.83,1.18,2.95.7,3.77l-6,9.09c-.83,1.3-2.83,2.24-5.19.82-2.71-1.88-9.67-6.36-15.93-6.36-4.95,0-7.19,3.06-7.19,6.48,0,3.9,4.6,7,12.86,11,10.38,5.07,23.82,10.86,23.82,26.9,0,12.15-10.49,24.42-27.84,24.42-15.33,0-23.82-6.37-26.54-9.09"/><rect class="cls-1" x="350.52" y="247.02" width="18.64" height="82.57" rx="2.24"/><path class="cls-1" d="M383.94,321.69a2.65,2.65,0,0,1-.47-3.54l5.43-9.55a2.79,2.79,0,0,1,4-.71c3.3,2.24,9.32,6.49,16.75,6.49,4.71,0,8.14-2.95,8.14-7.08,0-4.95-4.37-8.14-12.15-11.91-11.45-5.55-22.89-11.92-22.89-26.07,0-11.68,9.08-23.48,27.25-23.48,12.27,0,21.71,6.25,25.24,8.85,1.42.83,1.18,2.95.71,3.77l-6,9.09c-.83,1.3-2.83,2.24-5.19.82-2.72-1.88-9.68-6.36-15.93-6.36-4.95,0-7.2,3.06-7.2,6.48,0,3.9,4.61,7,12.86,11,10.38,5.07,23.83,10.86,23.83,26.9,0,12.15-10.5,24.42-27.84,24.42-15.33,0-23.83-6.37-26.54-9.09"/><path class="cls-1" d="M463.9,264.36H447a2.24,2.24,0,0,1-2.24-2.24V249.26A2.24,2.24,0,0,1,447,247H499.4a2.24,2.24,0,0,1,2.25,2.24v12.86a2.24,2.24,0,0,1-2.25,2.24H482.54v63a2.33,2.33,0,0,1-2.25,2.24H466.14a2.32,2.32,0,0,1-2.24-2.24Z"/><path class="cls-1" d="M511.41,249.26a2.24,2.24,0,0,1,2.24-2.24h48.84a2.24,2.24,0,0,1,2.24,2.24v12.86a2.24,2.24,0,0,1-2.24,2.24H529.81V279h26.9a2.32,2.32,0,0,1,2.24,2.24v12.86a2.24,2.24,0,0,1-2.24,2.24h-26.9v15.93h32.68a2.24,2.24,0,0,1,2.24,2.24v12.85a2.24,2.24,0,0,1-2.24,2.25H513.65a2.25,2.25,0,0,1-2.24-2.25Z"/><path class="cls-1" d="M587.72,247.73a2.26,2.26,0,0,1,2.13-1.89h1.89a2.6,2.6,0,0,1,2,1.18l27.37,51h.23l27.37-51a2.62,2.62,0,0,1,2-1.18h1.88a2.26,2.26,0,0,1,2.13,1.89L668.06,327a2.17,2.17,0,0,1-2.24,2.6H651.9a2.42,2.42,0,0,1-2.25-1.89l-5.3-36.45h-.24l-19.82,38.22a2.74,2.74,0,0,1-2,1.3h-2.13a2.56,2.56,0,0,1-2-1.3l-19.94-38.22H598l-5.19,36.45a2.3,2.3,0,0,1-2.24,1.89H576.64a2.17,2.17,0,0,1-2.25-2.6Z"/><path class="cls-1" d="M723.11,301.29l-9-19.47H714l-8.84,19.47Zm-48.49,25.24,36.93-79.39a2.39,2.39,0,0,1,2-1.3h1.18a2.4,2.4,0,0,1,2,1.3l36.92,79.39a2.09,2.09,0,0,1-2,3.07H738.56c-2.12,0-3.07-.71-4.13-3l-4.25-9.32H698.1l-4.25,9.44a4.39,4.39,0,0,1-4.24,2.83h-13a2.09,2.09,0,0,1-2-3.07"/><g class="cls-2"><path class="cls-1" d="M265.43,380h-68a42.55,42.55,0,0,0,68,0m-144.57,0h60.7l-7-7.43a2.31,2.31,0,0,0-3.06-.12,23.13,23.13,0,0,1-15.81,5.66A22.9,22.9,0,0,1,134.08,363a24.91,24.91,0,0,1-1.62-8.84,25.77,25.77,0,0,1,1.33-8.14H113.27a43.57,43.57,0,0,0-.86,8.61,42.66,42.66,0,0,0,.83,8.37,41.79,41.79,0,0,0,7.62,17m62.8,5.54a2.37,2.37,0,0,0,.12-3.18L181.56,380h-60.7A42.48,42.48,0,0,0,155,397a40.48,40.48,0,0,0,28.67-11.45M273,363a43.43,43.43,0,0,0,.82-8.37A42.84,42.84,0,0,0,273,346H253.32a23.55,23.55,0,0,1,1.65,8.61,22.91,22.91,0,0,1-1.6,8.37,23.48,23.48,0,0,1-43.87,0,22.91,22.91,0,0,1-1.6-8.37,23.55,23.55,0,0,1,1.65-8.61H189.88a43.58,43.58,0,0,0,0,17,42.07,42.07,0,0,0,7.54,17h68A41.88,41.88,0,0,0,273,363m11.92,17-2.48,4.37a2.65,2.65,0,0,0,.47,3.53c2.72,2.72,11.21,9.09,26.55,9.09,13.75,0,23.18-7.73,26.5-17H312.05a9.7,9.7,0,0,1-3.4.59,20.24,20.24,0,0,1-4.74-.59Zm51,0a22.14,22.14,0,0,0,1.33-7.43,23,23,0,0,0-2-9.56c-4-8.82-13.29-13.17-21.14-17H284.38c4,7.26,12.13,11.63,20.26,15.57,1,.48,1.92.95,2.8,1.41h0c6,3.2,9.35,6.18,9.35,10.5a6.81,6.81,0,0,1-4.74,6.49Zm14.53,0h18.64V346H350.51v34Zm18.64,13.57V380H350.51v13.57a2.33,2.33,0,0,0,2.25,2.24h14.15a2.32,2.32,0,0,0,2.24-2.24M463.9,380h18.64V346H463.9v34Zm18.64,13.57V380H463.9v13.57a2.32,2.32,0,0,0,2.24,2.24h14.15a2.33,2.33,0,0,0,2.25-2.24M511.41,380h53.18a2.2,2.2,0,0,0-2.1-1.53H529.81V362.55h26.9a2.24,2.24,0,0,0,2.24-2.24V347.45a2.17,2.17,0,0,0-.57-1.41h-47v34Zm53.32,13.57V380.72a2.14,2.14,0,0,0-.14-.71H511.41v13.57a2.24,2.24,0,0,0,2.24,2.24h48.84a2.24,2.24,0,0,0,2.24-2.24"/></g><g class="cls-2"><path class="cls-1" d="M705.18,367.51l2-4.49L714,348h.12l6.9,15,2.07,4.49ZM680.55,380h67.18l-7.9-17-7.9-17H696.35l-7.9,17Zm73.11,12.74L747.73,380H680.55l-5.93,12.74a2.09,2.09,0,0,0,2,3.07h13a4.39,4.39,0,0,0,4.25-2.83l4.25-9.44h32.08l4.25,9.32c1.06,2.24,2,2.95,4.13,2.95h13.09a2.09,2.09,0,0,0,2-3.07"/></g><g class="cls-3"><path class="cls-1" d="M632.43,430.43H610l8.18,15.69a2.57,2.57,0,0,0,2,1.29h2.13a2.76,2.76,0,0,0,2-1.29Zm-367,0h-68a42.56,42.56,0,0,0,68,0m-215,0h53.18a2.22,2.22,0,0,0-2.11-1.54H68.81V413.44H50.41ZM103.73,444V431.13a2.35,2.35,0,0,0-.14-.7H50.41V444a2.24,2.24,0,0,0,2.24,2.24h48.83a2.24,2.24,0,0,0,2.25-2.24m161.7-13.56a42,42,0,0,0,7.59-17H253.37a23.48,23.48,0,0,1-43.87,0H189.85a42.07,42.07,0,0,0,7.55,17Zm19.51,0h19c-5.23-1.23-9.45-4.16-12-5.9a2.77,2.77,0,0,0-4,.71Zm23.71.59a20.78,20.78,0,0,1-4.74-.59h-19l-2.48,4.36a2.66,2.66,0,0,0,.47,3.54c2.72,2.71,11.21,9.08,26.55,9.08,13.75,0,23.18-7.72,26.5-17H312.05a9.93,9.93,0,0,1-3.4.59m27.33-.59a22.15,22.15,0,0,0,1.33-7.44,23,23,0,0,0-2-9.55H307.44c6,3.2,9.35,6.17,9.35,10.5a6.83,6.83,0,0,1-4.74,6.49Zm14.54,0h18.63v-17H350.52ZM369.15,444V430.43H350.52V444a2.32,2.32,0,0,0,2.24,2.24h14.15a2.32,2.32,0,0,0,2.24-2.24M386,430.43h19c-5.23-1.23-9.45-4.16-12-5.9a2.77,2.77,0,0,0-4,.71Zm23.71.59a20.78,20.78,0,0,1-4.74-.59H386l-2.48,4.36a2.65,2.65,0,0,0,.47,3.54c2.71,2.71,11.21,9.08,26.54,9.08,13.76,0,23.19-7.72,26.5-17H413.06a9.93,9.93,0,0,1-3.4.59m27.32-.59a21.92,21.92,0,0,0,1.34-7.44,23,23,0,0,0-2-9.55H408.45c6,3.2,9.35,6.17,9.35,10.5a6.83,6.83,0,0,1-4.74,6.49ZM482.54,444V413.45H463.9V444a2.32,2.32,0,0,0,2.24,2.24h14.15a2.33,2.33,0,0,0,2.25-2.24m28.87-13.56h53.18a2.2,2.2,0,0,0-2.1-1.54H529.81V413.44h-18.4ZM564.73,444V431.13a2.08,2.08,0,0,0-.14-.7H511.41V444a2.24,2.24,0,0,0,2.24,2.24h48.84a2.24,2.24,0,0,0,2.24-2.24m11.89-13.56-2.23,13.21a2.17,2.17,0,0,0,2.25,2.59h13.91a2.3,2.3,0,0,0,2.25-1.88l2-13.92Zm18.16,0,2.42-17H579.47l-2.85,17Zm37.65,0,8.81-17H622l-.64,1.18h-.23l-.64-1.18H601.12l8.86,17Zm15.2,0h18.21l-2.86-17H645.15Zm20.43,13.21-2.22-13.21H647.63l2,13.92a2.4,2.4,0,0,0,2.25,1.88h13.91a2.17,2.17,0,0,0,2.25-2.59"/></g><g class="cls-3"><path class="cls-1" d="M103.72,476.24V463.38a2.34,2.34,0,0,0-.13-.7H50.41v13.56a2.24,2.24,0,0,0,2.24,2.24h48.83a2.24,2.24,0,0,0,2.24-2.24m161.71-13.56h-68a42.56,42.56,0,0,0,68,0m103.72,13.56V462.68H350.51v13.56a2.33,2.33,0,0,0,2.25,2.24h14.15a2.32,2.32,0,0,0,2.24-2.24m113.39,0V462.68H463.9v13.56a2.32,2.32,0,0,0,2.24,2.24h14.15a2.33,2.33,0,0,0,2.25-2.24m82.19,0V463.38a2.08,2.08,0,0,0-.14-.7H511.41v13.56a2.24,2.24,0,0,0,2.24,2.24h48.84a2.24,2.24,0,0,0,2.24-2.24"/></g><path class="cls-1" d="M2.75,122.92H.3a.31.31,0,0,1-.3-.31V121.3a.3.3,0,0,1,.3-.3h7a.29.29,0,0,1,.3.3v1.31a.3.3,0,0,1-.3.31H4.85v9a.31.31,0,0,1-.3.3H3.06a.32.32,0,0,1-.31-.3Z"/><path class="cls-1" d="M16.26,121.3a.29.29,0,0,1,.3-.3h4.58a3.46,3.46,0,0,1,3.49,3.44,3.54,3.54,0,0,1-2.37,3.23l2.19,4.07a.3.3,0,0,1-.27.46H22.5a.28.28,0,0,1-.26-.14l-2.13-4.25H18.34v4.09a.32.32,0,0,1-.31.3H16.56a.29.29,0,0,1-.3-.3Zm4.7,4.8a1.63,1.63,0,0,0,1.59-1.63A1.59,1.59,0,0,0,21,122.92H18.35v3.18Z"/><path class="cls-1" d="M32.37,131.78l5-10.77a.27.27,0,0,1,.27-.17h.16a.27.27,0,0,1,.27.17L43,131.78a.28.28,0,0,1-.27.42h-1.4a.47.47,0,0,1-.46-.32l-.78-1.73H35.28l-.78,1.73a.49.49,0,0,1-.47.32H32.64A.28.28,0,0,1,32.37,131.78Zm6.91-3.41-1.6-3.52h0l-1.57,3.52Z"/><path class="cls-1" d="M51.26,121.12a.3.3,0,0,1,.31-.28h.24a.35.35,0,0,1,.27.11l6.53,7h0V121.3A.3.3,0,0,1,59,121h1.47a.31.31,0,0,1,.3.3v10.77a.3.3,0,0,1-.3.29H60.2a.36.36,0,0,1-.28-.11L53.36,125h0v6.89a.3.3,0,0,1-.31.3H51.57a.32.32,0,0,1-.31-.3Z"/><path class="cls-1" d="M69.86,131.11c-.16-.13-.23-.22-.08-.48l.57-1a.37.37,0,0,1,.55-.11,3.87,3.87,0,0,0,2.41,1,1.33,1.33,0,0,0,1.46-1.23c0-.82-.69-1.38-2-1.92-1.51-.61-3-1.57-3-3.46,0-1.43,1-3.07,3.6-3.07a5.64,5.64,0,0,1,3.2,1.07.4.4,0,0,1,.1.53l-.61.91a.42.42,0,0,1-.56.19,4.17,4.17,0,0,0-2.23-.88c-.91,0-1.41.51-1.41,1.12s.6,1.26,1.89,1.79c1.56.63,3.35,1.56,3.35,3.62a3.38,3.38,0,0,1-3.68,3.17A5,5,0,0,1,69.86,131.11Z"/><path class="cls-1" d="M85.9,121.3a.3.3,0,0,1,.31-.3h6.51a.3.3,0,0,1,.31.3v1.31a.31.31,0,0,1-.31.31H88v3h4a.31.31,0,0,1,.3.3v1.31a.32.32,0,0,1-.3.31H88v4.05a.31.31,0,0,1-.3.3H86.21a.3.3,0,0,1-.31-.3Z"/><path class="cls-1" d="M106.79,120.84a5.76,5.76,0,1,1-5.75,5.77A5.74,5.74,0,0,1,106.79,120.84Zm0,9.44a3.68,3.68,0,1,0-3.67-3.67A3.69,3.69,0,0,0,106.79,130.28Z"/><path class="cls-1" d="M121.49,121.3a.3.3,0,0,1,.3-.3h4.58a3.46,3.46,0,0,1,3.49,3.44,3.54,3.54,0,0,1-2.37,3.23l2.19,4.07a.3.3,0,0,1-.27.46h-1.68a.3.3,0,0,1-.26-.14l-2.12-4.25h-1.78v4.09a.32.32,0,0,1-.31.3h-1.47a.3.3,0,0,1-.3-.3Zm4.7,4.8a1.63,1.63,0,0,0,1.59-1.63,1.59,1.59,0,0,0-1.59-1.55h-2.61v3.18Z"/><path class="cls-1" d="M140.22,121.08a.28.28,0,0,1,.29-.24h.26a.28.28,0,0,1,.27.16l3.52,7.55h.05l3.52-7.55a.27.27,0,0,1,.27-.16h.26a.27.27,0,0,1,.29.24l1.89,10.75a.28.28,0,0,1-.29.37h-1.46a.35.35,0,0,1-.3-.24l-.95-6.07h-.05l-2.8,6.29a.26.26,0,0,1-.27.18h-.29a.29.29,0,0,1-.27-.18l-2.83-6.29h-.05l-.93,6.07a.3.3,0,0,1-.29.24h-1.44a.29.29,0,0,1-.3-.37Z"/><path class="cls-1" d="M158.5,131.78l5-10.77a.3.3,0,0,1,.28-.17h.16a.28.28,0,0,1,.27.17l4.93,10.77a.29.29,0,0,1-.28.42h-1.39a.46.46,0,0,1-.46-.32l-.79-1.73h-4.78l-.79,1.73a.47.47,0,0,1-.46.32h-1.39A.28.28,0,0,1,158.5,131.78Zm6.91-3.41-1.6-3.52h-.05l-1.57,3.52Z"/><path class="cls-1" d="M178.69,121.08a.26.26,0,0,1,.29-.24h.25a.27.27,0,0,1,.27.16l3.53,7.55h0L186.6,121a.26.26,0,0,1,.27-.16h.25a.26.26,0,0,1,.29.24l1.89,10.75a.28.28,0,0,1-.29.37h-1.45a.35.35,0,0,1-.31-.24l-.94-6.07h-.05l-2.8,6.29a.27.27,0,0,1-.27.18h-.29a.27.27,0,0,1-.27-.18l-2.84-6.29h0l-.92,6.07a.32.32,0,0,1-.29.24h-1.44a.3.3,0,0,1-.31-.37Z"/><path class="cls-1" d="M203.28,120.84a5.76,5.76,0,1,1-5.75,5.77A5.74,5.74,0,0,1,203.28,120.84Zm0,9.44a3.68,3.68,0,1,0-3.66-3.67A3.69,3.69,0,0,0,203.28,130.28Z"/><path class="cls-1" d="M217.52,131.11c-.16-.13-.23-.22-.08-.48l.58-1a.36.36,0,0,1,.54-.11,3.92,3.92,0,0,0,2.42,1,1.33,1.33,0,0,0,1.45-1.23c0-.82-.69-1.38-2-1.92-1.5-.61-3-1.57-3-3.46,0-1.43,1.06-3.07,3.6-3.07a5.64,5.64,0,0,1,3.2,1.07.4.4,0,0,1,.1.53l-.61.91a.42.42,0,0,1-.56.19,4.13,4.13,0,0,0-2.22-.88c-.92,0-1.41.51-1.41,1.12s.59,1.26,1.89,1.79c1.55.63,3.34,1.56,3.34,3.62a3.38,3.38,0,0,1-3.68,3.17A5,5,0,0,1,217.52,131.11Z"/><path class="cls-1" d="M243.84,121.3a.3.3,0,0,1,.3-.3h1.48a.31.31,0,0,1,.3.3v9H250a.3.3,0,0,1,.31.3v1.32a.3.3,0,0,1-.31.3h-5.86a.3.3,0,0,1-.3-.3Z"/><path class="cls-1" d="M257.47,131.78l5-10.77a.3.3,0,0,1,.27-.17h.16a.27.27,0,0,1,.27.17l4.93,10.77a.28.28,0,0,1-.27.42h-1.39a.48.48,0,0,1-.47-.32l-.78-1.73h-4.79l-.78,1.73a.49.49,0,0,1-.47.32h-1.39A.28.28,0,0,1,257.47,131.78Zm6.91-3.41-1.6-3.52h0l-1.57,3.52Z"/><path class="cls-1" d="M275.9,131.11c-.16-.13-.22-.22-.08-.48l.58-1a.36.36,0,0,1,.54-.11,3.92,3.92,0,0,0,2.42,1,1.34,1.34,0,0,0,1.46-1.23c0-.82-.69-1.38-2-1.92s-3-1.57-3-3.46c0-1.43,1.06-3.07,3.61-3.07a5.64,5.64,0,0,1,3.2,1.07.39.39,0,0,1,.09.53l-.6.91a.43.43,0,0,1-.57.19,4.1,4.1,0,0,0-2.22-.88c-.91,0-1.41.51-1.41,1.12s.59,1.26,1.89,1.79c1.55.63,3.35,1.56,3.35,3.62a3.39,3.39,0,0,1-3.69,3.17A5,5,0,0,1,275.9,131.11Z"/><path class="cls-1" d="M392.53,219a.3.3,0,0,1,.3-.3h6.52a.3.3,0,0,1,.3.3v1.32a.3.3,0,0,1-.3.3h-4.74v2.62h3.95a.33.33,0,0,1,.31.31v1.33a.31.31,0,0,1-.31.3h-3.95V228h4.74a.31.31,0,0,1,.3.31v1.31a.3.3,0,0,1-.3.3h-6.52a.3.3,0,0,1-.3-.3Z"/><path class="cls-1" d="M408.62,218.87a.31.31,0,0,1,.31-.29h.24a.35.35,0,0,1,.27.11l6.53,7h0V219a.3.3,0,0,1,.31-.3h1.47a.31.31,0,0,1,.3.3v10.78a.29.29,0,0,1-.3.28h-.22a.36.36,0,0,1-.28-.11l-6.56-7.23h0v6.88a.3.3,0,0,1-.31.3h-1.45a.32.32,0,0,1-.31-.3Z"/><path class="cls-1" d="M437.82,219a.32.32,0,0,1,.31-.3h1.52a.3.3,0,0,1,.3.3v6.68a2.33,2.33,0,0,0,4.66,0V219a.3.3,0,0,1,.3-.3h1.53a.31.31,0,0,1,.3.3v6.79a4.46,4.46,0,0,1-8.92,0Z"/><path class="cls-1" d="M456.22,218.87a.31.31,0,0,1,.31-.29h.24a.35.35,0,0,1,.27.11l6.53,7h0V219a.3.3,0,0,1,.31-.3h1.47a.31.31,0,0,1,.3.3v10.78a.29.29,0,0,1-.3.28h-.23a.35.35,0,0,1-.27-.11l-6.56-7.23h0v6.88a.3.3,0,0,1-.31.3h-1.45a.32.32,0,0,1-.31-.3Z"/></g></g></svg>