<svg xmlns="http://www.w3.org/2000/svg" viewBox="0 0 796.87 373.43"><defs><style>.cls-1{fill:#fff;}.cls-2{opacity:0.4;}.cls-3{opacity:0.2;}</style></defs><g id="Layer_2" data-name="Layer 2"><g id="Layer_2-2" data-name="Layer 2"><path class="cls-1" d="M271.47,144.23h-9V130.57h9a6.36,6.36,0,0,1,6.52,6.61,7.39,7.39,0,0,1-1.88,5.09,6.25,6.25,0,0,1-4.64,2m.27-26.79H250.22a1.7,1.7,0,0,0-1.7,1.7v59.12a1.69,1.69,0,0,0,1.7,1.69h10.53a1.75,1.75,0,0,0,1.7-1.69v-21h9.38a20.32,20.32,0,0,0,9.21-2.14,19.38,19.38,0,0,0,10.08-12.86,21.83,21.83,0,0,0,.62-5.09,20.46,20.46,0,0,0-1.52-7.77,19.48,19.48,0,0,0-18.48-12"/><path class="cls-1" d="M516.07,117.44H505.35a1.76,1.76,0,0,0-1.69,1.7v59.12a1.75,1.75,0,0,0,1.69,1.69h10.72a1.76,1.76,0,0,0,1.7-1.69V119.14a1.77,1.77,0,0,0-1.7-1.7"/><path class="cls-1" d="M72.76,130a17.56,17.56,0,0,1,12,4.56,1.58,1.58,0,0,0,2.24,0l5-5.18,2-2.06a1.65,1.65,0,0,0-.09-2.5,30,30,0,0,0-21.61-8.3,32.31,32.31,0,0,0-31.58,25.72,32.38,32.38,0,0,0,0,12.86A31.79,31.79,0,0,0,46.47,168a32.17,32.17,0,0,0,25.84,12.86A30.62,30.62,0,0,0,94,172.18a1.78,1.78,0,0,0,.09-2.41L92.42,168l-5.28-5.63a1.79,1.79,0,0,0-2.33-.09,17.91,17.91,0,0,1-28.33-7.14,18.84,18.84,0,0,1-1.23-6.7,19.64,19.64,0,0,1,1-6.16A17.32,17.32,0,0,1,72.76,130"/><path class="cls-1" d="M130.14,166.56a17.9,17.9,0,0,1-16.57-11.43,17.49,17.49,0,0,1,.05-12.86A17.82,17.82,0,0,1,148,148.79a17.44,17.44,0,0,1-1.21,6.34,18,18,0,0,1-16.65,11.43m25.69-37.15a32.09,32.09,0,0,0-57.11,12.86,33.13,33.13,0,0,0,0,12.86,31.93,31.93,0,0,0,31.44,25.72,32,32,0,0,0,32.15-32.06,33.22,33.22,0,0,0-.65-6.52,32,32,0,0,0-5.81-12.86"/><path class="cls-1" d="M385.27,166.56a17.89,17.89,0,0,1-16.56-11.43,17.44,17.44,0,0,1-1.21-6.34,17.78,17.78,0,0,1,34.38-6.52,17.49,17.49,0,0,1,.05,12.86,18,18,0,0,1-16.66,11.43M411,129.41a32.08,32.08,0,0,0-57.11,12.86,32.88,32.88,0,0,0,0,12.86,32.12,32.12,0,0,0,63,0,33.08,33.08,0,0,0,.62-6.34,32.47,32.47,0,0,0-.65-6.52,32,32,0,0,0-5.8-12.86"/><path class="cls-1" d="M313.25,130.21h13.21a6.56,6.56,0,0,1,6.79,6.79,7.21,7.21,0,0,1-2.17,5.27,6.61,6.61,0,0,1-4.62,1.87H313.25V130.21Zm33,12.06a18.93,18.93,0,0,0,.82-5.54,19.94,19.94,0,0,0-1.38-7.32,19,19,0,0,0-18.08-12H300.92a1.7,1.7,0,0,0-1.69,1.7v59.12a1.69,1.69,0,0,0,1.69,1.69h10.63a1.76,1.76,0,0,0,1.7-1.69V155.48h6.16L325.69,168l5.6,11.16a1.63,1.63,0,0,0,1.43.8h11.87a1.69,1.69,0,0,0,1.52-2.59L341.05,168l-6.93-12.86-.24-.45c6.33-2.38,10.68-6.8,12.39-12.41"/><path class="cls-1" d="M552.64,142.27l-.55-.27c-6.25-3-9.73-5.36-9.73-8.3a4.61,4.61,0,0,1,2.56-4.29,6.45,6.45,0,0,1,2.88-.63,13.33,13.33,0,0,1,3.81.63,31.33,31.33,0,0,1,8.25,4.2,2.77,2.77,0,0,0,3.93-.63l2.36-3.57,2.19-3.31c.36-.62.54-2.23-.53-2.85-2.68-2-9.83-6.7-19.11-6.7-11.18,0-17.82,5.9-19.91,12.86a17.11,17.11,0,0,0-.72,4.91,16,16,0,0,0,2,8c3,5.5,9.18,8.8,15.33,11.79.75.36,1.46.71,2.12,1.07,4.56,2.42,7.08,4.67,7.08,8A5.16,5.16,0,0,1,551,168a7.59,7.59,0,0,1-2.58.44,16,16,0,0,1-3.59-.44,27.39,27.39,0,0,1-9.09-4.47,2.11,2.11,0,0,0-3,.54L530.48,168l-1.88,3.3A2,2,0,0,0,529,174c2,2.05,8.48,6.88,20.09,6.88,10.42,0,17.55-5.85,20.07-12.86a16.84,16.84,0,0,0,1-5.63,17.28,17.28,0,0,0-1.49-7.23c-3-6.68-10.06-10-16-12.86"/><path class="cls-1" d="M607.86,166.56a17.87,17.87,0,0,1-16.56-11.43,17.44,17.44,0,0,1-1.21-6.34,18,18,0,0,1,17.77-17.95,18,18,0,0,1,16.61,11.43,17.72,17.72,0,0,1,1.25,6.52,17.44,17.44,0,0,1-1.21,6.34,17.92,17.92,0,0,1-16.65,11.43m31.5-24.29a32.1,32.1,0,0,0-62.91,0,32.47,32.47,0,0,0-.65,6.52,33.08,33.08,0,0,0,.62,6.34,32.12,32.12,0,0,0,63,0,33.08,33.08,0,0,0,.62-6.34,32.47,32.47,0,0,0-.65-6.52"/><path class="cls-1" d="M234.75,155.13l-2.16-12.86-2.17-12.86L228.5,118a1.7,1.7,0,0,0-1.61-1.43h-1.42a2,2,0,0,0-1.52.89l-6.43,12-6.91,12.86-6.9,12.86-.48.89h-.18l-.48-.89-6.91-12.86-6.9-12.86-6.43-12a2,2,0,0,0-1.52-.89h-1.43a1.7,1.7,0,0,0-1.6,1.43l-1.92,11.43-2.17,12.86-2.16,12.86L169.37,168l-1.68,10a1.63,1.63,0,0,0,1.69,2h10.54a1.74,1.74,0,0,0,1.7-1.43l1.5-10.53L185,155.13l.6-4.2h.18l2.18,4.2L194.62,168l6.2,11.87a1.94,1.94,0,0,0,1.52,1h1.6a2.09,2.09,0,0,0,1.52-1L211.62,168l6.67-12.86,2.17-4.2h.18l.61,4.2L223.13,168l1.53,10.53a1.81,1.81,0,0,0,1.7,1.43H236.9a1.63,1.63,0,0,0,1.69-2l-1.68-10Z"/><path class="cls-1" d="M489.88,155.13l-2.16-12.86-2.16-12.86L483.64,118a1.71,1.71,0,0,0-1.61-1.43H480.6a2,2,0,0,0-1.52.89l-6.43,12-6.9,12.86-6.91,12.86-.48.89h-.18l-.48-.89-6.9-12.86-6.91-12.86-6.42-12a2,2,0,0,0-1.52-.89h-1.43a1.7,1.7,0,0,0-1.61,1.43L431,129.41l-2.16,12.86-2.17,12.86L424.5,168l-1.68,10a1.64,1.64,0,0,0,1.7,2h10.53a1.73,1.73,0,0,0,1.7-1.43l1.5-10.53,1.83-12.86.6-4.2h.18l2.19,4.2L449.76,168,456,179.86a1.94,1.94,0,0,0,1.52,1h1.61a2.11,2.11,0,0,0,1.52-1L466.75,168l6.67-12.86,2.18-4.2h.18l.61,4.2L478.26,168l1.54,10.53a1.8,1.8,0,0,0,1.69,1.43H492a1.64,1.64,0,0,0,1.7-2L492,168Z"/><g class="cls-2"><path class="cls-1" d="M607.86,66.42a31.8,31.8,0,0,0-25.64,12.86h51.34a32,32,0,0,0-25.7-12.86"/></g><g class="cls-2"><path class="cls-1" d="M72.31,66.42A32.31,32.31,0,0,0,40.73,92.14a32.33,32.33,0,0,0,0,12.85H56.48a18.74,18.74,0,0,1-1.22-6.69,19.54,19.54,0,0,1,1-6.16A17.32,17.32,0,0,1,72.76,79.9a17.56,17.56,0,0,1,12,4.56,1.58,1.58,0,0,0,2.24,0l5-5.18,2-2.06a1.65,1.65,0,0,0-.09-2.5,30,30,0,0,0-21.61-8.3"/></g><g class="cls-2"><path class="cls-1" d="M271.47,94.1h-9V80.44h9A6.35,6.35,0,0,1,278,87a7.4,7.4,0,0,1-1.88,5.1,6.25,6.25,0,0,1-4.64,2m.27-26.79H250.22a1.69,1.69,0,0,0-1.7,1.7v36H281a19.34,19.34,0,0,0,10.08-12.85,21.85,21.85,0,0,0,.62-5.1,20.41,20.41,0,0,0-1.52-7.76,19.47,19.47,0,0,0-18.48-12"/></g><g class="cls-2"><path class="cls-1" d="M326.46,94H313.25V80.08h13.21a6.56,6.56,0,0,1,6.79,6.79,7.21,7.21,0,0,1-2.17,5.27A6.66,6.66,0,0,1,326.46,94m1.17-26.7H300.92a1.69,1.69,0,0,0-1.69,1.7v36h34.89l-.24-.44c6.33-2.39,10.68-6.81,12.39-12.41a19,19,0,0,0,.82-5.54,19.94,19.94,0,0,0-1.38-7.32,19,19,0,0,0-18.08-12"/></g><g class="cls-2"><path class="cls-1" d="M516.07,67.31H505.35a1.75,1.75,0,0,0-1.69,1.7v36h14.11V69a1.76,1.76,0,0,0-1.7-1.7"/></g><g class="cls-2"><path class="cls-1" d="M485.56,79.27l-1.92-11.43A1.71,1.71,0,0,0,482,66.42H480.6a2,2,0,0,0-1.52.89l-6.43,12-6.9,12.86L458.84,105h14.58l2.18-4.19h.18l.61,4.19h13.49l-2.16-12.86Z"/></g><g class="cls-2"><path class="cls-1" d="M443.89,79.27l-6.42-12a2,2,0,0,0-1.52-.89h-1.43a1.71,1.71,0,0,0-1.61,1.42L431,79.27l-2.16,12.86L426.67,105h13.41l.6-4.19h.18l2.19,4.19h14.66L450.8,92.13Z"/></g><g class="cls-3"><path class="cls-1" d="M182.33,30a2,2,0,0,0-1.52-.9h-1.43a1.71,1.71,0,0,0-1.6,1.43L175.86,42l-2.17,12.86h22L188.76,42Z"/></g><g class="cls-3"><path class="cls-1" d="M228.5,30.57a1.71,1.71,0,0,0-1.61-1.43h-1.42A2,2,0,0,0,224,30l-6.43,12-6.91,12.86h22L230.42,42Z"/></g><g class="cls-3"><path class="cls-1" d="M271.74,30H250.22a1.69,1.69,0,0,0-1.7,1.69V54.86h13.93V43.16h9A6.36,6.36,0,0,1,278,49.77a7.37,7.37,0,0,1-1.88,5.09h15a21.83,21.83,0,0,0,.62-5.09A20.46,20.46,0,0,0,290.22,42a19.47,19.47,0,0,0-18.48-12"/></g><g class="cls-3"><path class="cls-1" d="M327.63,30H300.92a1.69,1.69,0,0,0-1.69,1.69V54.86h14v-12h13.21a6.56,6.56,0,0,1,6.79,6.78,7.17,7.17,0,0,1-2.17,5.27h15.19a18.92,18.92,0,0,0,.82-5.53A20,20,0,0,0,345.71,42a19,19,0,0,0-18.08-12"/></g><g class="cls-3"><path class="cls-1" d="M385.27,29.14a32.12,32.12,0,0,0-31.41,25.72h14.89a17.72,17.72,0,0,1,33.13,0h14.89a32.21,32.21,0,0,0-31.5-25.72"/></g><g class="cls-3"><path class="cls-1" d="M483.64,30.57A1.72,1.72,0,0,0,482,29.14H480.6a2,2,0,0,0-1.52.9l-6.43,12-6.9,12.86h22L485.56,42Z"/></g><g class="cls-3"><path class="cls-1" d="M437.47,30a2,2,0,0,0-1.52-.9h-1.43a1.71,1.71,0,0,0-1.61,1.43L431,42l-2.16,12.86h22L443.89,42Z"/></g><g class="cls-3"><path class="cls-1" d="M516.07,30H505.35a1.75,1.75,0,0,0-1.69,1.69V54.86h14.11V31.73a1.76,1.76,0,0,0-1.7-1.69"/></g><g class="cls-3"><path class="cls-1" d="M548.7,29.14c-11.18,0-17.82,5.9-19.91,12.86a17.13,17.13,0,0,0-.72,4.92,16,16,0,0,0,2,7.94h22.59l-.55-.27c-6.25-3-9.74-5.35-9.74-8.3A4.62,4.62,0,0,1,544.92,42a6.46,6.46,0,0,1,2.88-.62,13.67,13.67,0,0,1,3.81.62,31.33,31.33,0,0,1,8.25,4.2,2.77,2.77,0,0,0,3.93-.62L566.15,42l2.19-3.3c.36-.63.54-2.23-.53-2.86-2.68-2-9.83-6.7-19.11-6.7"/></g><g class="cls-3"><path class="cls-1" d="M633.56,42a32.08,32.08,0,0,0-57.11,12.86h14.89a17.72,17.72,0,0,1,33.13,0h14.89A32.17,32.17,0,0,0,633.56,42"/></g><g class="cls-3"><path class="cls-1" d="M130.14,0A31.8,31.8,0,0,0,104.5,12.86h51.33A31.94,31.94,0,0,0,130.14,0"/></g><g class="cls-3"><path class="cls-1" d="M180.81,0h-1.43a1.7,1.7,0,0,0-1.6,1.43l-1.92,11.43h12.9l-6.43-12A2,2,0,0,0,180.81,0"/></g><g class="cls-3"><path class="cls-1" d="M226.89,0h-1.43A2,2,0,0,0,224,.89l-6.43,12h12.9L228.5,1.43A1.7,1.7,0,0,0,226.89,0"/></g><g class="cls-3"><path class="cls-1" d="M385.27,0a31.82,31.82,0,0,0-25.64,12.86H411A32,32,0,0,0,385.27,0"/></g><g class="cls-3"><path class="cls-1" d="M482,0H480.6a2,2,0,0,0-1.52.89l-6.42,12h12.9L483.64,1.43A1.71,1.71,0,0,0,482,0"/></g><g class="cls-3"><path class="cls-1" d="M436,0h-1.43a1.7,1.7,0,0,0-1.61,1.43L431,12.86h12.9l-6.42-12A2,2,0,0,0,436,0"/></g><g class="cls-3"><path class="cls-1" d="M516.07.89H505.35a1.76,1.76,0,0,0-1.69,1.7V12.86h14.11V2.59a1.77,1.77,0,0,0-1.7-1.7"/></g><g class="cls-3"><path class="cls-1" d="M567.81,6.7C565.13,4.73,558,0,548.7,0c-11.18,0-17.82,5.9-19.91,12.86h16.14a6.38,6.38,0,0,1,2.87-.63,13.33,13.33,0,0,1,3.81.63,31.33,31.33,0,0,1,8.25,4.2,2.77,2.77,0,0,0,3.93-.63l2.36-3.57,2.19-3.3c.36-.63.54-2.24-.53-2.86"/></g><path class="cls-1" d="M140.79,193.29h-11a1.7,1.7,0,0,0-1.7,1.7v37.24c0,6.52-4.73,10.18-11.16,10.18s-11-3.66-11-10.18V195a1.7,1.7,0,0,0-1.69-1.7h-11a1.77,1.77,0,0,0-1.7,1.7v37.95a22.82,22.82,0,0,0,2.74,10.9C98.5,251.61,107,256.7,117,256.7s18.57-5.09,22.78-12.86a22.72,22.72,0,0,0,2.76-10.9V195a1.77,1.77,0,0,0-1.7-1.7"/><path class="cls-1" d="M240.37,193.29H200.72A1.7,1.7,0,0,0,199,195v9.73a1.62,1.62,0,0,0,.11.54,1.67,1.67,0,0,0,1.59,1.16h12.77v47.69a1.76,1.76,0,0,0,1.69,1.7H225.9a1.77,1.77,0,0,0,1.7-1.7V206.42h12.77a1.68,1.68,0,0,0,1.59-1.16,1.62,1.62,0,0,0,.1-.54V195a1.7,1.7,0,0,0-1.69-1.7"/><path class="cls-1" d="M288.13,193.29h-37a1.7,1.7,0,0,0-1.7,1.7v59.12a1.7,1.7,0,0,0,1.7,1.7h37a1.7,1.7,0,0,0,1.69-1.7v-9.74a1.61,1.61,0,0,0-.1-.53,1.68,1.68,0,0,0-1.59-1.16H263.39V230.62h20.36a1.7,1.7,0,0,0,1.7-1.69v-9.74a1.65,1.65,0,0,0-.44-1.07,1.7,1.7,0,0,0-1.26-.63H263.39V206.42h24.74a1.68,1.68,0,0,0,1.59-1.16,1.62,1.62,0,0,0,.1-.54V195a1.7,1.7,0,0,0-1.69-1.7"/><path class="cls-1" d="M353.13,193.29H342.41a1.7,1.7,0,0,0-1.69,1.7v31.7h-.09l-8.92-8.57-13.39-12.86-12-11.52c-.72-.71-1.34-1.34-2.24-1.34h-1.34a1.68,1.68,0,0,0-1.69,1.61v11.25l0,12.86,0,12.86,0,12.86,0,10.27a1.76,1.76,0,0,0,1.69,1.7h10.63a1.7,1.7,0,0,0,1.7-1.7V220.8h.09L325.39,231l12.8,12.86L350,255.72a2.86,2.86,0,0,0,2.23,1h.89a1.58,1.58,0,0,0,1.7-1.61V195a1.77,1.77,0,0,0-1.7-1.7"/><path class="cls-1" d="M534.68,193.29H524a1.76,1.76,0,0,0-1.7,1.7v59.12a1.76,1.76,0,0,0,1.7,1.7h10.71a1.76,1.76,0,0,0,1.7-1.7V195a1.76,1.76,0,0,0-1.7-1.7"/><path class="cls-1" d="M606.24,193.29H595.52a1.77,1.77,0,0,0-1.7,1.7v59.12a1.77,1.77,0,0,0,1.7,1.7h10.72a1.76,1.76,0,0,0,1.69-1.7V195a1.76,1.76,0,0,0-1.69-1.7"/><path class="cls-1" d="M405.21,205.26a1.62,1.62,0,0,0,.1-.54V195a1.7,1.7,0,0,0-1.69-1.7H364a1.7,1.7,0,0,0-1.7,1.7v9.73a1.62,1.62,0,0,0,.11.54,1.67,1.67,0,0,0,1.59,1.16h12.77v47.69a1.75,1.75,0,0,0,1.69,1.69h10.72a1.76,1.76,0,0,0,1.7-1.69V206.42h12.77a1.68,1.68,0,0,0,1.59-1.16"/><path class="cls-1" d="M65,218.12l-.56-.27c-6.25-3-9.73-5.36-9.73-8.3a4.6,4.6,0,0,1,2.57-4.29,6.46,6.46,0,0,1,2.88-.62,13.3,13.3,0,0,1,3.8.62,31.17,31.17,0,0,1,8.25,4.2,2.76,2.76,0,0,0,3.93-.63l2.37-3.57,2.19-3.3c.35-.63.53-2.24-.54-2.86-2.68-2-9.82-6.7-19.11-6.7-11.18,0-17.81,5.9-19.91,12.86a17.11,17.11,0,0,0-.72,4.91,16.06,16.06,0,0,0,2,8c3,5.5,9.18,8.81,15.34,11.79.74.36,1.45.72,2.11,1.07,4.56,2.42,7.08,4.67,7.08,8a5.16,5.16,0,0,1-3.58,4.91,7.54,7.54,0,0,1-2.58.45,15.55,15.55,0,0,1-3.59-.45,27.39,27.39,0,0,1-9.09-4.47,2.12,2.12,0,0,0-3,.54l-2.23,3.93L41,247.14a2,2,0,0,0,.35,2.68c2.06,2.06,8.49,6.88,20.1,6.88,10.41,0,17.55-5.85,20.06-12.86a16.84,16.84,0,0,0,1-5.63A17.28,17.28,0,0,0,81,231c-3-6.68-10-10-16-12.86"/><path class="cls-1" d="M176.64,218.12l-.55-.27c-6.26-3-9.74-5.36-9.74-8.3a4.6,4.6,0,0,1,2.57-4.29,6.46,6.46,0,0,1,2.88-.62,13.3,13.3,0,0,1,3.8.62,31.26,31.26,0,0,1,8.26,4.2,2.75,2.75,0,0,0,3.92-.63l2.37-3.57,2.19-3.3c.36-.63.54-2.24-.54-2.86-2.68-2-9.82-6.7-19.11-6.7-11.18,0-17.81,5.9-19.9,12.86a17.13,17.13,0,0,0-.73,4.91,16.06,16.06,0,0,0,2,8c3,5.5,9.19,8.81,15.34,11.79.75.36,1.45.72,2.12,1.07,4.56,2.42,7.08,4.67,7.08,8a5.17,5.17,0,0,1-3.59,4.91,7.53,7.53,0,0,1-2.57.45,15.41,15.41,0,0,1-3.59-.45,27.55,27.55,0,0,1-9.1-4.47,2.1,2.1,0,0,0-3,.54l-2.23,3.93-1.88,3.3a2,2,0,0,0,.36,2.68c2,2.06,8.48,6.88,20.09,6.88,10.41,0,17.55-5.85,20.06-12.86a16.61,16.61,0,0,0,1-5.63,17.28,17.28,0,0,0-1.49-7.23c-3-6.68-10.06-10-16-12.86"/><path class="cls-1" d="M482.07,230.26h7.77a7.9,7.9,0,0,1,3.37.72,6,6,0,0,1,3.42,5.63c0,4.19-2.5,6.43-7,6.43h-7.59V230.26Zm0-24.11h7.41a5.71,5.71,0,0,1,5.81,6.08,6.37,6.37,0,0,1-3.41,5.89,5.56,5.56,0,0,1-2.4.54h-7.41V206.15ZM499.67,224v-.09a17.24,17.24,0,0,0,7.48-5.8,13.81,13.81,0,0,0,2.7-8.22,14.89,14.89,0,0,0-.76-4.64c-2.31-7-9.73-12-18.44-12H469.84a1.7,1.7,0,0,0-1.7,1.7v59.12a1.7,1.7,0,0,0,1.7,1.7H492c8.73,0,16.24-4.52,18.65-12a16.87,16.87,0,0,0,.82-5.27,14,14,0,0,0-2.08-7.59c-2.31-3.68-6.19-5.81-9.7-7"/><path class="cls-1" d="M644.71,242.59h-9.37V206.42h9.37c7.85,0,13.52,4.82,15.66,11.7a21.8,21.8,0,0,1,0,12.86c-2.17,6.85-7.82,11.61-15.62,11.61m30.78-24.47a31.53,31.53,0,0,0-30.69-24.83H623a1.68,1.68,0,0,0-1.6,1.7v59.12a1.67,1.67,0,0,0,1.6,1.69H644.8A31.48,31.48,0,0,0,675.46,231a31.76,31.76,0,0,0,.69-6.52,30.85,30.85,0,0,0-.66-6.34"/><path class="cls-1" d="M765.44,242.59h-9.38V206.42h9.38c7.85,0,13.52,4.82,15.66,11.7a21.8,21.8,0,0,1,0,12.86c-2.17,6.85-7.82,11.61-15.62,11.61m30.77-24.47a30.9,30.9,0,0,0-6.07-12.86,31.36,31.36,0,0,0-24.61-12H743.74a1.69,1.69,0,0,0-1.61,1.7v59.12a1.68,1.68,0,0,0,1.61,1.69h21.79a31.36,31.36,0,0,0,31.34-31.34,30.85,30.85,0,0,0-.66-6.34"/><path class="cls-1" d="M585.13,242.68H563.87V195a1.76,1.76,0,0,0-1.7-1.7H551.55a1.7,1.7,0,0,0-1.7,1.7v59.12a1.69,1.69,0,0,0,1.7,1.69h33.58a1.69,1.69,0,0,0,1.69-1.69v-9.74a1.91,1.91,0,0,0-.1-.53,1.68,1.68,0,0,0-1.59-1.16"/><path class="cls-1" d="M431.72,219.64h.09L437,231l1.57,3.39H425l1.54-3.39Zm25.52,24.2-6-12.86-6-12.86-6-12.86-5.53-11.88a1.81,1.81,0,0,0-1.51-1h-.9a1.84,1.84,0,0,0-1.52,1l-5.52,11.88-6,12.86-6,12.86-6,12.86-4.49,9.64a1.58,1.58,0,0,0,1.52,2.32h9.82a3.32,3.32,0,0,0,3.22-2.14l3.21-7.14H444l3.22,7c.8,1.7,1.52,2.23,3.12,2.23h9.92a1.58,1.58,0,0,0,1.52-2.32Z"/><path class="cls-1" d="M705.71,219.64h.09L711,231l1.57,3.39H699l1.55-3.39Zm25.52,24.2-6-12.86-6-12.86-6-12.86-5.53-11.88a1.81,1.81,0,0,0-1.51-1h-.9a1.81,1.81,0,0,0-1.51,1l-5.53,11.88-6,12.86-6,12.86-6,12.86-4.49,9.64a1.58,1.58,0,0,0,1.52,2.32h9.82a3.32,3.32,0,0,0,3.22-2.14l3.21-7.14H718l3.21,7c.8,1.7,1.52,2.23,3.13,2.23h9.91a1.58,1.58,0,0,0,1.52-2.32Z"/><g class="cls-2"><path class="cls-1" d="M176.64,268.28H154.05c3,5.5,9.19,8.81,15.34,11.79.75.36,1.45.72,2.12,1.07,4.56,2.42,7.08,4.68,7.08,7.95A5.16,5.16,0,0,1,175,294a7.3,7.3,0,0,1-2.57.45,15.41,15.41,0,0,1-3.59-.45,27.75,27.75,0,0,1-9.1-4.46,2.09,2.09,0,0,0-3,.53L154.48,294l-1.88,3.31A2,2,0,0,0,153,300c2,2.05,8.48,6.87,20.09,6.87,10.41,0,17.55-5.85,20.06-12.86a16.51,16.51,0,0,0,1-5.62,17.36,17.36,0,0,0-1.49-7.24c-3-6.68-10.06-10-16-12.86"/></g><g class="cls-2"><path class="cls-1" d="M213.49,281.14v23.13a1.76,1.76,0,0,0,1.69,1.7H225.9a1.77,1.77,0,0,0,1.7-1.7v-36H213.49Z"/></g><g class="cls-2"><path class="cls-1" d="M376.74,281.14v23.13a1.76,1.76,0,0,0,1.69,1.7h10.72a1.77,1.77,0,0,0,1.7-1.7v-36H376.74Z"/></g><g class="cls-2"><path class="cls-1" d="M482.07,280.43h7.77a7.9,7.9,0,0,1,3.37.71,6,6,0,0,1,3.42,5.63c0,4.2-2.5,6.43-7,6.43h-7.59V280.43Zm17.6-6.25v-.09a17.26,17.26,0,0,0,7.48-5.81H491.88a5.56,5.56,0,0,1-2.4.54h-7.41v-.54H468.14v36a1.7,1.7,0,0,0,1.7,1.7H492c8.73,0,16.24-4.52,18.65-12a16.87,16.87,0,0,0,.82-5.27,14,14,0,0,0-2.08-7.59c-2.31-3.68-6.19-5.81-9.7-7"/></g><g class="cls-2"><path class="cls-1" d="M522.27,281.14v23.13A1.76,1.76,0,0,0,524,306h10.71a1.77,1.77,0,0,0,1.7-1.7v-36H522.27Z"/></g><g class="cls-2"><path class="cls-1" d="M675.49,268.28H660.37a21.8,21.8,0,0,1,0,12.86c-2.17,6.86-7.82,11.61-15.62,11.61h-9.37V268.28H621.41v36A1.68,1.68,0,0,0,623,306H644.8a31.5,31.5,0,0,0,30.66-24.83,31.76,31.76,0,0,0,.69-6.52,30.85,30.85,0,0,0-.66-6.34"/></g><g class="cls-2"><path class="cls-1" d="M288.13,292.84H263.39V280.78h20.36a1.7,1.7,0,0,0,1.7-1.69v-9.74a1.65,1.65,0,0,0-.44-1.07H249.46v36a1.7,1.7,0,0,0,1.7,1.7h37a1.7,1.7,0,0,0,1.69-1.7v-9.73a1.62,1.62,0,0,0-.1-.54,1.68,1.68,0,0,0-1.59-1.16"/></g><g class="cls-3"><path class="cls-1" d="M128.11,319.67c0,6.52-4.73,10.18-11.16,10.18s-11-3.66-11-10.18v-1.25H91.58v2a22.82,22.82,0,0,0,2.74,10.9C98.5,339,107,344.14,117,344.14s18.57-5.1,22.78-12.86a22.72,22.72,0,0,0,2.76-10.9v-2H128.11Z"/></g><g class="cls-3"><path class="cls-1" d="M171.51,318.42c4.56,2.42,7.08,4.67,7.08,7.94a5.17,5.17,0,0,1-3.59,4.92,7.53,7.53,0,0,1-2.57.44,16,16,0,0,1-3.59-.44,27.75,27.75,0,0,1-9.1-4.47,2.1,2.1,0,0,0-3,.54l-2.23,3.93-1.88,3.3a2,2,0,0,0,.36,2.68c2,2.05,8.48,6.88,20.09,6.88,10.41,0,17.55-5.85,20.06-12.86a16.61,16.61,0,0,0,1-5.63,17.28,17.28,0,0,0-1.49-7.23Z"/></g><g class="cls-3"><path class="cls-1" d="M213.49,331.28v10.27a1.75,1.75,0,0,0,1.69,1.69H225.9a1.76,1.76,0,0,0,1.7-1.69V318.42H213.49Z"/></g><g class="cls-3"><path class="cls-1" d="M376.74,331.28v10.27a1.75,1.75,0,0,0,1.69,1.69h10.72a1.76,1.76,0,0,0,1.7-1.69V318.42H376.74Z"/></g><g class="cls-3"><path class="cls-1" d="M493.21,318.42a5.94,5.94,0,0,1,3.42,5.62c0,4.2-2.5,6.43-7,6.43h-7.59V318.42H468.14v23.13a1.7,1.7,0,0,0,1.7,1.69H492c8.72,0,16.23-4.52,18.64-12a17,17,0,0,0,.82-5.27,13.94,13.94,0,0,0-2.08-7.59Z"/></g><g class="cls-3"><path class="cls-1" d="M522.27,331.28v10.27a1.75,1.75,0,0,0,1.7,1.69h10.71a1.76,1.76,0,0,0,1.7-1.69V318.42H522.27Z"/></g><g class="cls-3"><path class="cls-1" d="M585.13,330.11H563.87V318.42h-14v23.13a1.69,1.69,0,0,0,1.7,1.69h33.58a1.69,1.69,0,0,0,1.69-1.69v-9.74a1.91,1.91,0,0,0-.1-.53,1.68,1.68,0,0,0-1.59-1.17"/></g><g class="cls-3"><path class="cls-1" d="M593.82,331.28v10.27a1.76,1.76,0,0,0,1.7,1.69h10.72a1.75,1.75,0,0,0,1.69-1.69V318.42H593.82Z"/></g><g class="cls-3"><path class="cls-1" d="M644.71,330h-9.37V318.42H621.41v23.13a1.67,1.67,0,0,0,1.6,1.69H644.8a31.48,31.48,0,0,0,30.66-24.82H660.33c-2.17,6.85-7.82,11.61-15.62,11.61"/></g><g class="cls-3"><path class="cls-1" d="M781.06,318.42c-2.17,6.85-7.82,11.61-15.62,11.61h-9.38V318.42H742.13v23.13a1.68,1.68,0,0,0,1.61,1.69h21.79a31.45,31.45,0,0,0,30.65-24.82Z"/></g><g class="cls-3"><path class="cls-1" d="M457.24,331.28l-6-12.86H437l1.57,3.39H425l1.54-3.39h-14.2l-6,12.86-4.49,9.64a1.58,1.58,0,0,0,1.52,2.32h9.82a3.33,3.33,0,0,0,3.22-2.14l3.21-7.14H444l3.22,7.05c.8,1.7,1.52,2.23,3.12,2.23h9.92a1.58,1.58,0,0,0,1.52-2.32Z"/></g><g class="cls-3"><path class="cls-1" d="M731.23,331.28l-6-12.86H711l1.57,3.39H699l1.55-3.39H686.35l-6,12.86-4.49,9.64a1.58,1.58,0,0,0,1.52,2.32h9.82a3.33,3.33,0,0,0,3.22-2.14l3.21-7.14H718l3.21,7.05c.8,1.7,1.52,2.23,3.13,2.23h9.91a1.58,1.58,0,0,0,1.52-2.32Z"/></g><g class="cls-3"><path class="cls-1" d="M60.79,361a15.55,15.55,0,0,1-3.59-.45H42.84L41,363.88a2,2,0,0,0,.35,2.68c2.06,2.05,8.49,6.87,20.1,6.87,10.41,0,17.55-5.85,20.06-12.86H63.37a7.31,7.31,0,0,1-2.58.45"/></g><g class="cls-3"><path class="cls-1" d="M117,373.43c10,0,18.57-5.09,22.78-12.86H94.32C98.5,368.34,107,373.43,117,373.43"/></g><g class="cls-3"><path class="cls-1" d="M249.46,360.57v10.27a1.7,1.7,0,0,0,1.7,1.7h37a1.7,1.7,0,0,0,1.69-1.7v-9.73a1.62,1.62,0,0,0-.1-.54Z"/></g><g class="cls-3"><path class="cls-1" d="M350,372.45a2.86,2.86,0,0,0,2.23,1h.89a1.58,1.58,0,0,0,1.7-1.61V360.57H338.19Z"/></g><g class="cls-3"><path class="cls-1" d="M301.16,370.84a1.76,1.76,0,0,0,1.69,1.7h10.63a1.7,1.7,0,0,0,1.7-1.7V360.57h-14Z"/></g><g class="cls-3"><path class="cls-1" d="M376.74,370.84a1.76,1.76,0,0,0,1.69,1.7h10.72a1.77,1.77,0,0,0,1.7-1.7V360.57H376.74Z"/></g><g class="cls-3"><path class="cls-1" d="M457.24,360.57H406.38l-4.49,9.65a1.58,1.58,0,0,0,1.52,2.32h9.82a3.33,3.33,0,0,0,3.22-2.15l3.21-7.14H444l3.22,7.06c.8,1.69,1.52,2.23,3.12,2.23h9.92a1.58,1.58,0,0,0,1.52-2.32Z"/></g><g class="cls-3"><path class="cls-1" d="M468.14,370.84a1.7,1.7,0,0,0,1.7,1.7H492c8.72,0,16.23-4.52,18.64-12H468.14Z"/></g><g class="cls-3"><path class="cls-1" d="M522.27,370.84a1.76,1.76,0,0,0,1.7,1.7h10.71a1.77,1.77,0,0,0,1.7-1.7V360.57H522.27Z"/></g><g class="cls-3"><path class="cls-1" d="M549.85,360.57v10.27a1.7,1.7,0,0,0,1.7,1.7h33.58a1.7,1.7,0,0,0,1.69-1.7v-9.73a1.91,1.91,0,0,0-.1-.54Z"/></g><g class="cls-3"><path class="cls-1" d="M742.13,360.57v10.27a1.69,1.69,0,0,0,1.61,1.7h21.79a31.32,31.32,0,0,0,24.59-12Z"/></g><path class="cls-1" d="M1.91,93.5a.27.27,0,0,1,.29-.24h.25a.3.3,0,0,1,.28.16L6.25,101h0l3.52-7.56a.26.26,0,0,1,.27-.16h.25a.26.26,0,0,1,.29.24l1.89,10.76a.27.27,0,0,1-.29.36H10.78a.34.34,0,0,1-.31-.24l-.94-6.06h0l-2.8,6.29a.27.27,0,0,1-.27.17H6.12a.3.3,0,0,1-.27-.17L3,98.32H3L2,104.38a.31.31,0,0,1-.29.24H.31a.29.29,0,0,1-.31-.36Z"/><path class="cls-1" d="M20.18,104.21l5-10.77a.29.29,0,0,1,.27-.18h.16a.26.26,0,0,1,.27.18l4.93,10.77a.28.28,0,0,1-.27.41H29.13a.47.47,0,0,1-.47-.32l-.78-1.72H23.09l-.78,1.72a.48.48,0,0,1-.46.32h-1.4A.28.28,0,0,1,20.18,104.21Zm3.57-12.68,2.71-1.79c.27-.18.67,0,.86.38s.19.82-.08.95l-3,1.36c-.18.08-.4-.07-.53-.31S23.64,91.61,23.75,91.53Zm3.35,9.27-1.61-3.52h0l-1.57,3.52Z"/><path class="cls-1" d="M38.61,103.54c-.16-.13-.22-.23-.08-.48l.58-1a.37.37,0,0,1,.54-.11,3.86,3.86,0,0,0,2.42,1,1.34,1.34,0,0,0,1.46-1.23c0-.82-.69-1.38-2-1.92s-3-1.57-3-3.46c0-1.42,1.06-3.07,3.61-3.07a5.64,5.64,0,0,1,3.2,1.07.39.39,0,0,1,.09.53l-.6.91a.43.43,0,0,1-.57.2A4,4,0,0,0,42,95.08c-.91,0-1.41.52-1.41,1.13s.59,1.26,1.89,1.79c1.55.62,3.35,1.55,3.35,3.62,0,1.64-1.43,3.16-3.69,3.16A5,5,0,0,1,38.61,103.54Z"/><path class="cls-1" d="M69.49,93.26a5.78,5.78,0,0,1,4.29,9.64l1.57,2a.3.3,0,0,1-.25.48H73.32c-.13,0-.19-.08-.26-.16l-.86-1.1a6,6,0,0,1-2.71.65,5.76,5.76,0,0,1,0-11.52Zm0,9.44a3.6,3.6,0,0,0,1.4-.27L69,99.9a.3.3,0,0,1,.26-.48H71a.32.32,0,0,1,.26.16l1.23,1.6A3.67,3.67,0,1,0,65.83,99,3.67,3.67,0,0,0,69.49,102.7Z"/><path class="cls-1" d="M84.08,93.72a.32.32,0,0,1,.31-.3h1.52a.29.29,0,0,1,.3.3v6.68a2.33,2.33,0,0,0,4.66,0V93.72a.3.3,0,0,1,.31-.3H92.7a.31.31,0,0,1,.3.3v6.79a4.46,4.46,0,0,1-8.92,0Z"/><path class="cls-1" d="M102.48,93.72a.3.3,0,0,1,.31-.3h6.51a.3.3,0,0,1,.31.3V95a.3.3,0,0,1-.31.3h-4.73V98h4a.31.31,0,0,1,.3.3V99.6a.3.3,0,0,1-.3.3h-4v2.8h4.73a.31.31,0,0,1,.31.31v1.31a.3.3,0,0,1-.31.3h-6.51a.3.3,0,0,1-.31-.3Z"/><path class="cls-1" d="M6.18,216.86a.3.3,0,0,1,.3-.3H13a.29.29,0,0,1,.3.3v1.31a.3.3,0,0,1-.3.31H8.26v2.62h4a.32.32,0,0,1,.3.31v1.32a.3.3,0,0,1-.3.31h-4v2.8H13a.29.29,0,0,1,.3.3v1.32a.29.29,0,0,1-.3.3H6.48a.3.3,0,0,1-.3-.3Z"/><path class="cls-1" d="M21.73,226.67c-.16-.13-.22-.22-.08-.48l.58-1a.37.37,0,0,1,.54-.11,3.92,3.92,0,0,0,2.42,1,1.34,1.34,0,0,0,1.46-1.23c0-.82-.69-1.38-2-1.92s-3-1.57-3-3.46c0-1.42,1.06-3.07,3.61-3.07a5.64,5.64,0,0,1,3.2,1.07.39.39,0,0,1,.09.53l-.6.91a.43.43,0,0,1-.57.19,4.1,4.1,0,0,0-2.22-.88c-.91,0-1.41.51-1.41,1.12s.59,1.27,1.89,1.79c1.55.63,3.35,1.56,3.35,3.62a3.39,3.39,0,0,1-3.69,3.17A5,5,0,0,1,21.73,226.67Z"/></g></g></svg>