<svg xmlns="http://www.w3.org/2000/svg" viewBox="0 0 750.02 396.62"><defs><style>.cls-1{fill:#fff;}.cls-2{opacity:0.4;}.cls-3{opacity:0.2;}</style></defs><g id="Layer_2" data-name="Layer 2"><g id="Layer_2-2" data-name="Layer 2"><path class="cls-1" d="M2.75,99.43H.3a.3.3,0,0,1-.3-.3V97.82a.31.31,0,0,1,.3-.31h7a.3.3,0,0,1,.3.31v1.31a.29.29,0,0,1-.3.3H4.85v9a.32.32,0,0,1-.3.31H3.06a.33.33,0,0,1-.31-.31Z"/><path class="cls-1" d="M16.26,97.82a.3.3,0,0,1,.3-.31h4.58A3.47,3.47,0,0,1,24.63,101a3.54,3.54,0,0,1-2.37,3.23l2.19,4.06a.31.31,0,0,1-.27.47H22.5a.29.29,0,0,1-.26-.15l-2.13-4.24H18.34v4.08a.33.33,0,0,1-.31.31H16.56a.3.3,0,0,1-.3-.31Zm4.7,4.8A1.64,1.64,0,0,0,22.55,101,1.6,1.6,0,0,0,21,99.43H18.35v3.19Z"/><path class="cls-1" d="M32.37,108.3l5-10.77a.27.27,0,0,1,.27-.18h.16a.27.27,0,0,1,.27.18L43,108.3a.28.28,0,0,1-.27.42H41.32a.47.47,0,0,1-.47-.32l-.78-1.73H35.28l-.78,1.73a.49.49,0,0,1-.47.32H32.64A.28.28,0,0,1,32.37,108.3Zm6.91-3.41-1.6-3.52h0l-1.56,3.52Z"/><path class="cls-1" d="M51.26,97.64a.31.31,0,0,1,.31-.29h.24a.36.36,0,0,1,.27.12l6.53,7h0V97.82a.31.31,0,0,1,.31-.31h1.47a.32.32,0,0,1,.3.31v10.77a.3.3,0,0,1-.3.29H60.2a.36.36,0,0,1-.28-.11l-6.56-7.24h0v6.88a.31.31,0,0,1-.3.31H51.57a.33.33,0,0,1-.31-.31Z"/><path class="cls-1" d="M69.86,107.63c-.16-.13-.23-.22-.08-.48l.57-1a.37.37,0,0,1,.55-.11,3.87,3.87,0,0,0,2.41,1,1.34,1.34,0,0,0,1.46-1.23c0-.82-.69-1.38-2-1.93-1.51-.6-3-1.56-3-3.45,0-1.43,1-3.08,3.6-3.08a5.63,5.63,0,0,1,3.2,1.08.39.39,0,0,1,.1.52l-.61.92a.42.42,0,0,1-.56.19,4.17,4.17,0,0,0-2.23-.88c-.91,0-1.4.51-1.4,1.12s.59,1.26,1.88,1.79c1.56.63,3.35,1.55,3.35,3.62a3.38,3.38,0,0,1-3.68,3.17A5,5,0,0,1,69.86,107.63Z"/><path class="cls-1" d="M85.9,97.82a.31.31,0,0,1,.31-.31h6.51a.31.31,0,0,1,.31.31v1.31a.3.3,0,0,1-.31.3H88v3h4a.32.32,0,0,1,.3.31v1.31a.31.31,0,0,1-.3.3H88v4a.33.33,0,0,1-.31.31H86.21a.31.31,0,0,1-.31-.31Z"/><path class="cls-1" d="M106.79,97.35a5.77,5.77,0,1,1-5.75,5.78A5.75,5.75,0,0,1,106.79,97.35Zm0,9.45a3.69,3.69,0,1,0-3.67-3.67A3.69,3.69,0,0,0,106.79,106.8Z"/><path class="cls-1" d="M121.49,97.82a.31.31,0,0,1,.3-.31h4.58a3.47,3.47,0,0,1,3.49,3.45,3.54,3.54,0,0,1-2.37,3.23l2.19,4.06a.31.31,0,0,1-.27.47h-1.68a.29.29,0,0,1-.26-.15l-2.12-4.24h-1.78v4.08a.33.33,0,0,1-.31.31h-1.47a.31.31,0,0,1-.3-.31Zm4.7,4.8a1.64,1.64,0,0,0,1.59-1.63,1.6,1.6,0,0,0-1.59-1.56h-2.61v3.19Z"/><path class="cls-1" d="M140.22,97.59a.29.29,0,0,1,.29-.24h.26a.3.3,0,0,1,.27.16l3.52,7.56h.05l3.52-7.56a.29.29,0,0,1,.27-.16h.26a.28.28,0,0,1,.29.24l1.89,10.76a.28.28,0,0,1-.29.37h-1.46a.35.35,0,0,1-.3-.24l-.95-6.07h-.05L145,108.7a.26.26,0,0,1-.27.18h-.29a.29.29,0,0,1-.27-.18l-2.83-6.29h-.05l-.93,6.07a.3.3,0,0,1-.29.24h-1.44a.3.3,0,0,1-.3-.37Z"/><path class="cls-1" d="M158.5,108.3l5-10.77a.29.29,0,0,1,.28-.18h.16a.27.27,0,0,1,.27.18l4.93,10.77a.29.29,0,0,1-.28.42h-1.39a.46.46,0,0,1-.46-.32l-.79-1.73h-4.78l-.79,1.73a.47.47,0,0,1-.46.32h-1.39A.28.28,0,0,1,158.5,108.3Zm6.91-3.41-1.6-3.52h-.05l-1.57,3.52Z"/><path class="cls-1" d="M178.69,97.59a.27.27,0,0,1,.29-.24h.25a.29.29,0,0,1,.27.16l3.53,7.56h0l3.53-7.56a.27.27,0,0,1,.27-.16h.25a.27.27,0,0,1,.29.24l1.89,10.76a.28.28,0,0,1-.29.37h-1.45a.35.35,0,0,1-.31-.24l-.94-6.07h-.05l-2.8,6.29a.27.27,0,0,1-.27.18h-.29a.27.27,0,0,1-.27-.18l-2.84-6.29h0l-.92,6.07a.32.32,0,0,1-.29.24h-1.44a.3.3,0,0,1-.31-.37Z"/><path class="cls-1" d="M203.28,97.35a5.77,5.77,0,1,1-5.74,5.78A5.75,5.75,0,0,1,203.28,97.35Zm0,9.45a3.69,3.69,0,1,0-3.66-3.67A3.69,3.69,0,0,0,203.28,106.8Z"/><path class="cls-1" d="M217.52,107.63c-.16-.13-.23-.22-.08-.48l.58-1a.36.36,0,0,1,.54-.11,3.92,3.92,0,0,0,2.42,1,1.34,1.34,0,0,0,1.45-1.23c0-.82-.68-1.38-2-1.93-1.5-.6-3-1.56-3-3.45,0-1.43,1.06-3.08,3.6-3.08a5.63,5.63,0,0,1,3.2,1.08.39.39,0,0,1,.1.52l-.61.92a.42.42,0,0,1-.56.19,4.13,4.13,0,0,0-2.22-.88c-.92,0-1.41.51-1.41,1.12s.59,1.26,1.89,1.79c1.55.63,3.34,1.55,3.34,3.62a3.38,3.38,0,0,1-3.68,3.17A5,5,0,0,1,217.52,107.63Z"/><path class="cls-1" d="M.94,202.46a.31.31,0,0,1,.31-.31H7.76a.31.31,0,0,1,.31.31v1.31a.3.3,0,0,1-.31.3H3v2.63H7a.31.31,0,0,1,.3.3v1.33a.3.3,0,0,1-.3.31H3v2.8H7.76a.3.3,0,0,1,.31.3v1.31a.31.31,0,0,1-.31.31H1.25a.31.31,0,0,1-.31-.31Z"/><path class="cls-1" d="M17,202.28a.3.3,0,0,1,.3-.29h.24a.36.36,0,0,1,.28.11l6.53,7h0v-6.61a.31.31,0,0,1,.3-.31h1.47a.33.33,0,0,1,.31.31v10.77a.31.31,0,0,1-.31.29h-.22a.35.35,0,0,1-.27-.11l-6.56-7.24h0v6.88a.3.3,0,0,1-.3.31H17.31a.32.32,0,0,1-.3-.31Z"/><path class="cls-1" d="M65.79,189.17V124.72a1.92,1.92,0,0,0-1.85-1.85H52.26a1.91,1.91,0,0,0-1.85,1.85v64.45A1.91,1.91,0,0,0,52.26,191H63.94a1.91,1.91,0,0,0,1.85-1.85M139,190.24V124.72a1.91,1.91,0,0,0-1.85-1.85H125.48a1.85,1.85,0,0,0-1.85,1.85v34.56h-.1l-9.72-9.34-14.59-14L86.15,123.36c-.78-.78-1.46-1.46-2.43-1.46H82.26a1.83,1.83,0,0,0-1.85,1.75v12.27l0,14,0,14,0,14v11.19A1.91,1.91,0,0,0,82.35,191H93.94a1.85,1.85,0,0,0,1.85-1.85V152.86h.1l11,11.1,13.95,14,12.88,13a3.15,3.15,0,0,0,2.43,1.07h1a1.71,1.71,0,0,0,1.85-1.76m30.23-1.07V124.72a1.92,1.92,0,0,0-1.85-1.85H155.7a1.92,1.92,0,0,0-1.85,1.85v64.45A1.91,1.91,0,0,0,155.7,191h11.69a1.91,1.91,0,0,0,1.85-1.85m69.39-55.49a1.81,1.81,0,0,0-.1-2.73c-6.62-6-13.83-9-23.56-9A35.11,35.11,0,0,0,179.82,157a35.77,35.77,0,0,0,.69,6.92,34.57,34.57,0,0,0,6.29,14A35.08,35.08,0,0,0,215,192a33.41,33.41,0,0,0,23.66-9.45,1.94,1.94,0,0,0,.09-2.63L236.89,178l-5.76-6.14a1.92,1.92,0,0,0-2.53-.09,19.14,19.14,0,0,1-13,4.67A18.91,18.91,0,0,1,197.71,164a20.58,20.58,0,0,1-1.34-7.31,21.3,21.3,0,0,1,1.1-6.71,18.87,18.87,0,0,1,18-13.34,19.14,19.14,0,0,1,13.14,5,1.7,1.7,0,0,0,2.43,0l5.44-5.65Zm25.19,55.49V124.72a1.91,1.91,0,0,0-1.85-1.85H250.29a1.92,1.92,0,0,0-1.85,1.85v64.45a1.91,1.91,0,0,0,1.85,1.85H262a1.91,1.91,0,0,0,1.85-1.85m46.9-21.51H295.93l1.68-3.7,5.62-12.37h.1L309,164Zm25.22,20.83L331.05,178l-6.52-14-6.52-14-6.52-14-6-12.95a2,2,0,0,0-1.66-1.07h-1a2,2,0,0,0-1.66,1.07l-6,12.95-6.52,14-6.52,14-6.52,14-4.89,10.51a1.72,1.72,0,0,0,1.66,2.53h10.71a3.64,3.64,0,0,0,3.5-2.33l3.5-7.79h26.49l3.5,7.69c.88,1.85,1.66,2.43,3.41,2.43h10.8a1.72,1.72,0,0,0,1.66-2.53M379,135.92a1.94,1.94,0,0,0,.12-.58V124.72a1.85,1.85,0,0,0-1.85-1.85H334.06a1.85,1.85,0,0,0-1.85,1.85v10.62a1.67,1.67,0,0,0,.12.58,1.83,1.83,0,0,0,1.73,1.27H348v52a1.91,1.91,0,0,0,1.85,1.85h11.69a1.91,1.91,0,0,0,1.85-1.85v-52h13.92a1.83,1.83,0,0,0,1.73-1.27m23.56,53.25V124.72a1.92,1.92,0,0,0-1.85-1.85H389.05a1.91,1.91,0,0,0-1.85,1.85v64.45a1.91,1.91,0,0,0,1.85,1.85h11.68a1.91,1.91,0,0,0,1.85-1.85m72.12-63.76a1.73,1.73,0,0,0-1.66-2.54h-13a1.89,1.89,0,0,0-1.65,1.08l-5.42,12-6.33,14-4.32,9.54h-.58l-4.31-9.54-6.34-14-5.41-12a1.92,1.92,0,0,0-1.66-1.08H411.12a1.72,1.72,0,0,0-1.65,2.54l4.87,10.51,6.5,14,6.5,14,6.5,14,6,13A1.88,1.88,0,0,0,441.5,192h1a1.87,1.87,0,0,0,1.66-1.07l6-13,6.54-14,6.54-14,6.54-14Zm32.76,42.25h-14.8l1.68-3.7L500,151.59h.1L505.75,164Zm25.21,20.83L527.78,178l-6.52-14-6.52-14-6.52-14-6-12.95a2,2,0,0,0-1.65-1.07h-1a2,2,0,0,0-1.65,1.07l-6,12.95-6.52,14-6.52,14-6.52,14-4.89,10.51A1.72,1.72,0,0,0,469.1,191h10.71a3.62,3.62,0,0,0,3.5-2.33l3.51-7.79H513.3l3.5,7.69c.88,1.85,1.66,2.43,3.41,2.43H531a1.71,1.71,0,0,0,1.65-2.53m19.93-47.9a5,5,0,0,1,2.8-4.67,7,7,0,0,1,3.14-.68,14.64,14.64,0,0,1,4.15.68,33.88,33.88,0,0,1,9,4.58,3,3,0,0,0,4.28-.69l2.58-3.89,2.38-3.6c.39-.68.59-2.44-.58-3.12-2.92-2.14-10.71-7.3-20.83-7.3-12.19,0-19.43,6.43-21.71,14a18.77,18.77,0,0,0-.78,5.35,17.56,17.56,0,0,0,2.16,8.67c3.33,6,10,9.6,16.72,12.85.82.4,1.59.78,2.31,1.17,5,2.64,7.72,5.09,7.72,8.66A5.63,5.63,0,0,1,562,178a8.08,8.08,0,0,1-2.81.48,17.09,17.09,0,0,1-3.91-.48,30,30,0,0,1-9.91-4.87,2.3,2.3,0,0,0-3.31.58L539.66,178l-2,3.6a2.19,2.19,0,0,0,.39,2.92c2.24,2.24,9.25,7.5,21.9,7.5,11.36,0,19.14-6.38,21.88-14a18.28,18.28,0,0,0,1.1-6.14,18.91,18.91,0,0,0-1.62-7.88c-3.28-7.28-11-10.87-17.44-14l-.61-.29c-6.81-3.31-10.61-5.84-10.61-9.06"/><g class="cls-2"><path class="cls-1" d="M50.41,109.31H65.79V70.07a1.92,1.92,0,0,0-1.85-1.85H52.26a1.91,1.91,0,0,0-1.85,1.85v39.24Zm103.45,0h15.38V70.07a1.92,1.92,0,0,0-1.85-1.85H155.71a1.91,1.91,0,0,0-1.85,1.85v39.24ZM238.63,79a1.81,1.81,0,0,0-.1-2.73c-6.62-6-13.83-9-23.56-9a35.11,35.11,0,0,0-35.15,35.14,35.85,35.85,0,0,0,.69,6.92h17.2a20.57,20.57,0,0,1-1.33-7.31,21.25,21.25,0,0,1,1.09-6.71,18.87,18.87,0,0,1,18-13.34,19.18,19.18,0,0,1,13.14,5,1.69,1.69,0,0,0,2.43,0l5.44-5.64Zm9.81,30.28h15.38V70.07A1.91,1.91,0,0,0,262,68.22H250.29a1.92,1.92,0,0,0-1.85,1.85v39.24Zm60.58,0h15.51l-6.52-14-6.52-14-6-13a2,2,0,0,0-1.66-1.07h-1a2,2,0,0,0-1.66,1.07l-6,13-6.52,14-6.52,14h15.49l5.62-12.37h.1Zm78.18,0h15.38V70.07a1.92,1.92,0,0,0-1.85-1.85H389.05a1.92,1.92,0,0,0-1.85,1.85v39.24Zm87.5-38.56A1.72,1.72,0,0,0,473,68.22h-13a1.9,1.9,0,0,0-1.65,1.07l-5.41,12-6.34,14-4.31,9.54h-.59l-4.31-9.54-6.34-14-5.41-12a1.93,1.93,0,0,0-1.66-1.07H411.13a1.72,1.72,0,0,0-1.66,2.53l4.87,10.52,6.5,14,6.5,14h29.37l6.54-14,6.54-14Zm31.05,38.56h15.51l-6.52-14-6.52-14-6-13a2,2,0,0,0-1.65-1.07h-1a2,2,0,0,0-1.65,1.07l-6,13-6.52,14-6.52,14h15.49L500,96.94h.1Zm75.18-31.65c.39-.68.59-2.43-.58-3.11-2.92-2.14-10.71-7.3-20.83-7.3-12.19,0-19.43,6.43-21.7,14a18.39,18.39,0,0,0-.79,5.35,17.46,17.46,0,0,0,2.17,8.67c3.32,6,10,9.6,16.71,12.85q1.23.58,2.31,1.17h23c-3.28-7.29-11-10.88-17.44-14l-.6-.3c-6.82-3.31-10.62-5.84-10.62-9a5,5,0,0,1,2.81-4.67,6.9,6.9,0,0,1,3.13-.68,14.64,14.64,0,0,1,4.15.68,34.21,34.21,0,0,1,9,4.57,3,3,0,0,0,4.28-.68l2.58-3.89Z"/></g><g class="cls-3"><path class="cls-1" d="M50.41,54.65H65.79V29.44a1.91,1.91,0,0,0-1.85-1.85H52.26a1.91,1.91,0,0,0-1.85,1.85V54.65Zm30,0h33.36l-14.59-14L86.15,28.07c-.78-.77-1.46-1.46-2.43-1.46H82.26a1.83,1.83,0,0,0-1.85,1.76V40.63Zm43.18,0H139V29.44a1.91,1.91,0,0,0-1.85-1.85H125.48a1.85,1.85,0,0,0-1.85,1.85V54.65Zm30.22,0h15.39V29.44a1.91,1.91,0,0,0-1.85-1.85H155.7a1.91,1.91,0,0,0-1.85,1.85V54.65Zm94.59,0h15.38V29.44A1.91,1.91,0,0,0,262,27.59H250.29a1.91,1.91,0,0,0-1.85,1.85V54.65Zm40.2,0H318l-6.52-14-6-12.94a2,2,0,0,0-1.66-1.08h-1a2,2,0,0,0-1.66,1.08l-6,12.94Zm90.38-14a1.87,1.87,0,0,0,.12-.58V29.44a1.85,1.85,0,0,0-1.85-1.85H334.06a1.85,1.85,0,0,0-1.85,1.85V40.05a1.62,1.62,0,0,0,.12.58,1.83,1.83,0,0,0,1.73,1.27H348V54.65h15.39V41.9h13.92A1.83,1.83,0,0,0,379,40.63m41.82,14h16.64l-6.34-14-5.41-12a1.92,1.92,0,0,0-1.66-1.07H411.12a1.72,1.72,0,0,0-1.65,2.53l4.87,10.51ZM474.7,30.12A1.72,1.72,0,0,0,473,27.59h-13a1.89,1.89,0,0,0-1.65,1.07l-5.42,12-6.33,14h16.56l6.54-14Zm10.67,24.53h29.37l-6.52-14-6-12.94a2,2,0,0,0-1.65-1.08h-1a2,2,0,0,0-1.65,1.08l-6,12.94Z"/></g><g class="cls-3"><path class="cls-1" d="M50.41,14H65.79V2.83A1.92,1.92,0,0,0,63.94,1H52.26a1.92,1.92,0,0,0-1.85,1.86Zm30,0h18.8L86.15,1.46C85.37.68,84.69,0,83.72,0H82.26a1.83,1.83,0,0,0-1.85,1.75Zm43.21,0H139V2.83A1.92,1.92,0,0,0,137.16,1H125.48a1.85,1.85,0,0,0-1.85,1.86Zm30.22,0h15.39V2.83A1.92,1.92,0,0,0,167.39,1H155.7a1.92,1.92,0,0,0-1.85,1.86Zm84.78-2.24a1.81,1.81,0,0,0-.1-2.72C231.91,3,224.7,0,215,0a35,35,0,0,0-28.08,14h49.58ZM295.16,14h16.33l-6-12.95A2,2,0,0,0,303.81,0h-1a2,2,0,0,0-1.66,1.07ZM379,14a1.94,1.94,0,0,0,.12-.59V2.83A1.85,1.85,0,0,0,377.29,1H334.06a1.85,1.85,0,0,0-1.85,1.86v10.6a1.68,1.68,0,0,0,.12.59Zm8.18,0h15.38V2.83A1.92,1.92,0,0,0,400.73,1H389.05a1.92,1.92,0,0,0-1.85,1.86Zm27.14,0h16.8l-5.41-12A1.92,1.92,0,0,0,424.07,1H411.12a1.72,1.72,0,0,0-1.65,2.54ZM474.7,3.51A1.73,1.73,0,0,0,473,1h-13a1.89,1.89,0,0,0-1.65,1.08L453,14h16.77ZM491.89,14h16.33l-6-12.95A2,2,0,0,0,500.55,0h-1a2,2,0,0,0-1.65,1.07Z"/></g><path class="cls-1" d="M109.21,216.37a1.81,1.81,0,0,0-.1-2.73c-6.62-6-13.82-9-23.56-9a35.06,35.06,0,0,0-35.14,35.15,35.74,35.74,0,0,0,.68,6.91,34.57,34.57,0,0,0,6.29,14,35.07,35.07,0,0,0,28.17,14,33.39,33.39,0,0,0,23.66-9.44,1.94,1.94,0,0,0,.09-2.63l-1.83-1.94-5.76-6.14a1.92,1.92,0,0,0-2.53-.09,19.13,19.13,0,0,1-13.05,4.67,18.91,18.91,0,0,1-17.84-12.46,20.56,20.56,0,0,1-1.33-7.3,21.31,21.31,0,0,1,1.09-6.72,18.89,18.89,0,0,1,18-13.34,19.14,19.14,0,0,1,13.14,5,1.7,1.7,0,0,0,2.43,0l5.44-5.65Zm58.85,23.37a19,19,0,0,1-1.32,6.91,19.38,19.38,0,0,1-36.21,0,19,19,0,0,1-1.31-6.91,19.64,19.64,0,0,1,19.37-19.57,19.55,19.55,0,0,1,18.1,12.46,19.15,19.15,0,0,1,1.37,7.11m14.9,6.91a35.7,35.7,0,0,0,0-14,35,35,0,0,0-68.59,0,36,36,0,0,0,0,14,35,35,0,0,0,68.64,0m83.86,24.92L265,260.67l-2.36-14-2.36-14-2.35-14-2.1-12.46a1.86,1.86,0,0,0-1.75-1.56h-1.56a2.16,2.16,0,0,0-1.66,1l-7,13-7.53,14-7.53,14-.52,1h-.19l-.53-1-7.53-14-7.53-14-7-13a2.14,2.14,0,0,0-1.66-1h-1.55a1.87,1.87,0,0,0-1.76,1.56l-2.09,12.46-2.36,14-2.36,14-2.35,14-1.84,10.9a1.78,1.78,0,0,0,1.85,2.14h11.49a1.9,1.9,0,0,0,1.85-1.56l1.64-11.48,2-14,.65-4.58h.2l2.38,4.58,7.32,14,6.75,12.95a2.11,2.11,0,0,0,1.66,1.06h1.75a2.26,2.26,0,0,0,1.65-1.06l6.72-12.95,7.27-14,2.37-4.58h.19l.67,4.58,2,14,1.67,11.48a2,2,0,0,0,1.85,1.56H265a1.78,1.78,0,0,0,1.85-2.14m62-10.9a24.84,24.84,0,0,0,3-11.88V207.41a1.9,1.9,0,0,0-1.85-1.84H318a1.84,1.84,0,0,0-1.85,1.84V248c0,7.11-5.16,11.1-12.17,11.1s-12-4-12-11.1v-40.6a1.84,1.84,0,0,0-1.85-1.84h-12a1.91,1.91,0,0,0-1.85,1.84v41.38a24.94,24.94,0,0,0,3,11.88c4.56,8.46,13.87,14,24.67,14s20.25-5.55,24.84-14m75.84,12.26V207.41a1.91,1.91,0,0,0-1.85-1.84H391.14a1.84,1.84,0,0,0-1.85,1.84V242h-.09l-9.73-9.35-14.59-14-13.07-12.56c-.78-.78-1.46-1.46-2.43-1.46h-1.46a1.83,1.83,0,0,0-1.85,1.75l0,12.27,0,14,0,14,0,14,0,11.19a1.91,1.91,0,0,0,1.85,1.85H359.6a1.85,1.85,0,0,0,1.85-1.85V235.55h.1l11,11.1,14,14,12.88,12.95a3.14,3.14,0,0,0,2.43,1.06h1a1.71,1.71,0,0,0,1.85-1.75m30.22-1.07V207.41a1.91,1.91,0,0,0-1.85-1.84H421.37a1.9,1.9,0,0,0-1.85,1.84v64.45a1.91,1.91,0,0,0,1.85,1.85h11.68a1.91,1.91,0,0,0,1.85-1.85m58.2-32.32a23.42,23.42,0,0,1-1.08,7.11c-2.37,7.47-8.53,12.65-17,12.65H464.77V219.87H475c8.56,0,14.74,5.26,17.07,12.76a23.14,23.14,0,0,1,1,6.91m15.41,7.11a34,34,0,0,0,.75-7.11,33.51,33.51,0,0,0-7.34-20.93,34.19,34.19,0,0,0-26.83-13H451.34a1.83,1.83,0,0,0-1.76,1.84v64.45a1.83,1.83,0,0,0,1.76,1.85h23.75a34.3,34.3,0,0,0,33.42-27.06m40.48,3.7h-14.8l1.68-3.7,5.62-12.37h.1l5.69,12.37Zm25.21,20.83-4.89-10.51-6.52-14-6.52-14-6.52-14-6-13a2,2,0,0,0-1.65-1.07h-1a2,2,0,0,0-1.65,1.07l-6,13-6.52,14-6.52,14-6.52,14L509,271.18a1.72,1.72,0,0,0,1.66,2.53h10.71a3.62,3.62,0,0,0,3.5-2.33l3.51-7.79h26.48l3.5,7.69c.88,1.85,1.66,2.43,3.41,2.43h10.81a1.71,1.71,0,0,0,1.65-2.53m50.51-31.64a23.42,23.42,0,0,1-1.08,7.11c-2.37,7.47-8.53,12.65-17,12.65H596.38V219.87h10.23c8.55,0,14.73,5.26,17.06,12.76a23.14,23.14,0,0,1,1,6.91m15.41,7.11a34,34,0,0,0,.75-7.11,33.51,33.51,0,0,0-7.34-20.93,34.19,34.19,0,0,0-26.83-13H583a1.83,1.83,0,0,0-1.76,1.84v64.45a1.83,1.83,0,0,0,1.76,1.85H606.7a34.33,34.33,0,0,0,33.42-27.06m55.55,25.21V261.25a1.62,1.62,0,0,0-.12-.58,1.82,1.82,0,0,0-1.73-1.27h-27V246.26h22.2a1.85,1.85,0,0,0,1.85-1.85V233.8a2,2,0,0,0-1.85-1.85h-22.2V219.87h27a1.81,1.81,0,0,0,1.73-1.26,1.67,1.67,0,0,0,.12-.58V207.41a1.84,1.84,0,0,0-1.85-1.84H653.51a1.84,1.84,0,0,0-1.85,1.84v64.45a1.85,1.85,0,0,0,1.85,1.85h40.31a1.85,1.85,0,0,0,1.85-1.85m24.08-48.58a5,5,0,0,1,2.8-4.67,6.9,6.9,0,0,1,3.13-.68,14.64,14.64,0,0,1,4.15.68,33.88,33.88,0,0,1,9,4.58,3,3,0,0,0,4.28-.69l2.58-3.89,2.38-3.6c.39-.68.59-2.44-.58-3.12-2.92-2.14-10.71-7.3-20.83-7.3-12.19,0-19.42,6.43-21.7,14a18.44,18.44,0,0,0-.79,5.35,17.46,17.46,0,0,0,2.17,8.67c3.32,6,10,9.6,16.71,12.85q1.23.59,2.31,1.17c5,2.64,7.72,5.09,7.72,8.66a5.63,5.63,0,0,1-3.91,5.36,8.08,8.08,0,0,1-2.81.48,17.09,17.09,0,0,1-3.91-.48,30.08,30.08,0,0,1-9.91-4.87,2.3,2.3,0,0,0-3.31.58l-2.43,4.29-2,3.6a2.19,2.19,0,0,0,.39,2.92c2.24,2.24,9.25,7.49,21.91,7.49,11.35,0,19.13-6.37,21.87-14a18.32,18.32,0,0,0,1.1-6.14,18.91,18.91,0,0,0-1.62-7.88c-3.28-7.28-11-10.87-17.44-14l-.6-.29c-6.82-3.31-10.61-5.84-10.61-9.06"/><g class="cls-2"><path class="cls-1" d="M109.21,319.93a1.94,1.94,0,0,0,.09-2.63l-1.83-1.95-5.76-6.13a1.93,1.93,0,0,0-2.53-.1,19.54,19.54,0,0,1-30.89-7.79A20.56,20.56,0,0,1,67,294a21.36,21.36,0,0,1,1.09-6.72H51.12a35.7,35.7,0,0,0,0,14,34.51,34.51,0,0,0,6.29,14,35.05,35.05,0,0,0,28.17,14,33.43,33.43,0,0,0,23.66-9.44m157.61,6.33L265,315.35l-2.36-14-2.36-14H236.32l-7.53,14-.52,1h-.19l-.53-1-7.53-14h-24l-2.36,14-2.35,14-1.84,10.91a1.79,1.79,0,0,0,1.85,2.14h11.49a1.9,1.9,0,0,0,1.85-1.56l1.64-11.49,2-14,.65-4.57h.2l2.38,4.57,7.32,14,6.75,12.95a2.12,2.12,0,0,0,1.66,1.07h1.75a2.27,2.27,0,0,0,1.65-1.07l6.72-12.95,7.27-14,2.37-4.57h.19l.67,4.57,2,14,1.67,11.49a2,2,0,0,0,1.85,1.56H265a1.78,1.78,0,0,0,1.85-2.14m62-10.91a24.83,24.83,0,0,0,3-11.87V287.31H316.17V302.7c0,7.1-5.16,11.09-12.17,11.09s-12-4-12-11.09V287.31H276.35v16.17a24.93,24.93,0,0,0,3,11.87c4.56,8.47,13.87,14,24.67,14s20.25-5.55,24.84-14m75.84,12.27V287.31H389.29v9.35h-.09l-9.73-9.35H346.11l0,14,0,14,0,11.2A1.91,1.91,0,0,0,348,328.4H359.6a1.85,1.85,0,0,0,1.85-1.85V290.23h.1l11,11.1,14,14,12.88,12.95a3.12,3.12,0,0,0,2.43,1.07h1a1.71,1.71,0,0,0,1.85-1.75m30.22-1.07V287.31H419.52v39.24a1.91,1.91,0,0,0,1.85,1.85h11.68a1.92,1.92,0,0,0,1.85-1.85m205.22-25.22a33.8,33.8,0,0,0,0-14H623.67a23.71,23.71,0,0,1,0,14c-2.37,7.47-8.53,12.66-17,12.66H596.38V287.31H581.19v39.24A1.83,1.83,0,0,0,583,328.4H606.7a34.35,34.35,0,0,0,33.42-27.07"/></g><g class="cls-3"><path class="cls-1" d="M109.21,360.56a1.94,1.94,0,0,0,.09-2.63L107.47,356l-5.76-6.13a1.93,1.93,0,0,0-2.53-.1A19.53,19.53,0,0,1,68.29,342H51.09a34.53,34.53,0,0,0,6.29,14,35.05,35.05,0,0,0,28.17,14,33.4,33.4,0,0,0,23.66-9.44M176.69,356A34.49,34.49,0,0,0,183,342H166.74a19.38,19.38,0,0,1-36.21,0H114.31a35.05,35.05,0,0,0,62.38,14m152.14,0a24.72,24.72,0,0,0,3-11.87V342H316.17v1.36c0,7.11-5.16,11.1-12.17,11.1s-12-4-12-11.1V342H276.35v2.14a24.93,24.93,0,0,0,3,11.87c4.56,8.47,13.87,14,24.67,14s20.25-5.55,24.83-14m32.62,11.2V342H346.13l0,14,0,11.2A1.91,1.91,0,0,0,348,369H359.6a1.85,1.85,0,0,0,1.85-1.85m43.22,1.07V342H372.59l14,14,12.88,12.95a3.12,3.12,0,0,0,2.43,1.07h1a1.7,1.7,0,0,0,1.84-1.75M501.9,356a34,34,0,0,0,6.61-14H492c-2.37,7.47-8.53,12.65-17,12.65H464.77V342H449.58v25.21a1.83,1.83,0,0,0,1.76,1.85h23.75a34.13,34.13,0,0,0,26.81-13m72.3,10.52L569.31,356l-6.52-14H547.28l1.71,3.7h-14.8l1.68-3.7H520.38l-6.52,14L509,366.5a1.72,1.72,0,0,0,1.66,2.53h10.71a3.62,3.62,0,0,0,3.5-2.34l3.51-7.78h26.48l3.5,7.69c.88,1.85,1.66,2.43,3.41,2.43h10.81a1.72,1.72,0,0,0,1.65-2.53"/></g><g class="cls-3"><path class="cls-1" d="M109.21,387.17a1.93,1.93,0,0,0,.09-2.62l-1.83-1.95H57.38a35.08,35.08,0,0,0,28.17,14,33.4,33.4,0,0,0,23.66-9.45m67.49-4.57H120.54a35.13,35.13,0,0,0,56.16,0m152.13,0h-49.5c4.56,8.47,13.87,14,24.67,14s20.25-5.55,24.83-14m32.62,11.2V382.6h-15.3l0,11.2a1.9,1.9,0,0,0,1.85,1.84H359.6a1.84,1.84,0,0,0,1.85-1.84m43.23,1.07V382.6H386.54l12.88,12.95a3.12,3.12,0,0,0,2.43,1.07h1a1.71,1.71,0,0,0,1.85-1.75m30.22-1.07V382.6H419.52v11.2a1.9,1.9,0,0,0,1.85,1.84h11.68a1.91,1.91,0,0,0,1.85-1.84m67-11.2H449.58v11.2a1.83,1.83,0,0,0,1.76,1.84h23.75a34.12,34.12,0,0,0,26.81-13"/></g></g></g></svg>