<svg xmlns="http://www.w3.org/2000/svg" viewBox="0 0 665.52 448.03"><defs><style>.cls-1{opacity:0.4;}.cls-2{fill:#eef2f4;}.cls-3{opacity:0.25;}.cls-4{fill:#fff;}</style></defs><g id="Layer_2" data-name="Layer 2"><g id="Layer_2-2" data-name="Layer 2"><g class="cls-1"><path class="cls-2" d="M114.74,120A37.47,37.47,0,0,0,78.07,74.87H52a2,2,0,0,0-1.93,2V120H66.74V90.57H78c9.39,0,16.17,5.77,18.73,14a25.28,25.28,0,0,1,1.14,7.59,26,26,0,0,1-1.18,7.8ZM248.09,86.73a2,2,0,0,0-.1-3c-7.27-6.63-15.17-9.94-25.86-9.94a38.53,38.53,0,0,0-38.57,38.57,39.47,39.47,0,0,0,.75,7.59h18.88a22.65,22.65,0,0,1-1.46-8,23.37,23.37,0,0,1,1.2-7.37c2.79-8.44,10.26-14.64,19.74-14.64a21.07,21.07,0,0,1,14.42,5.45,1.87,1.87,0,0,0,2.67,0l6-6.2ZM258.86,120h16.88V76.9a2.09,2.09,0,0,0-2-2H260.89a2.11,2.11,0,0,0-2,2V120Zm108.37,0V76.9a2.1,2.1,0,0,0-2-2H352.38a2.1,2.1,0,0,0-2,2V120Z"/></g><g class="cls-3"><path class="cls-2" d="M175.57,15.38a1.92,1.92,0,0,0,.13-.64V3.1a2,2,0,0,0-2-2H129.44a2,2,0,0,0-2,2V15.38Zm72.53-2.45a2,2,0,0,0-.11-3C240.72,3.31,232.82,0,222.13,0a38.44,38.44,0,0,0-30.81,15.38h54.41Zm10.77,2.45h16.88V3.1a2.1,2.1,0,0,0-2-2H260.89a2.1,2.1,0,0,0-2,2Zm77.38-4c.43-.75.65-2.67-.64-3.42-3.2-2.35-11.75-8-22.86-8-13.37,0-21.31,7.06-23.81,15.38h19.3a7.75,7.75,0,0,1,3.44-.74,16,16,0,0,1,4.55.74h17.41Zm131.24,4h20.62L473.77,1.6c-.86-.85-1.6-1.6-2.67-1.6h-1.6a2,2,0,0,0-2,1.92Zm64.29,0V3.1a2.1,2.1,0,0,0-2-2H516.93a2,2,0,0,0-2,2V15.38Z"/></g><g class="cls-1"><path class="cls-2" d="M96.69,60h18.09a37,37,0,0,0-7.27-15.39A37.52,37.52,0,0,0,78.07,30.28H52a2,2,0,0,0-1.93,2V60H66.74V46H78c9.39,0,16.17,5.76,18.73,14m78.88-15.39a2,2,0,0,0,.13-.64V32.31a2,2,0,0,0-2-2H129.44a2,2,0,0,0-2,2V60h42.53a2,2,0,0,0-1.51-.75H144.08V46h29.59a2,2,0,0,0,1.9-1.39M258.87,60h16.88V32.31a2.1,2.1,0,0,0-2-2H260.89a2.1,2.1,0,0,0-2,2V60Zm77.38-19.34c.43-.75.65-2.67-.64-3.42-3.2-2.35-11.75-8-22.86-8-13.37,0-21.31,7.06-23.81,15.38a20.33,20.33,0,0,0-.87,5.88A19.17,19.17,0,0,0,290.45,60h27l-.66-.32c-7.48-3.64-11.64-6.41-11.64-9.94a5.5,5.5,0,0,1,3.07-5.13,7.75,7.75,0,0,1,3.44-.74,16,16,0,0,1,4.55.74,37.56,37.56,0,0,1,9.88,5,3.3,3.3,0,0,0,4.7-.74l2.83-4.28ZM350.35,60h16.88V32.31a2.1,2.1,0,0,0-2-2H352.38a2.1,2.1,0,0,0-2,2V60Zm86.72,0h17.82A38.53,38.53,0,0,0,417.2,29.21a38,38,0,0,0-30.67,15.38A38.45,38.45,0,0,0,379.62,60h17.82a21.19,21.19,0,0,1,39.63,0m30.44,0h36.61l-16-15.39L473.77,30.81c-.86-.85-1.6-1.6-2.67-1.6h-1.6a2,2,0,0,0-2,1.92l0,13.46Zm64.27,0V32.31a2.1,2.1,0,0,0-2-2H516.93a2,2,0,0,0-2,2V60Z"/></g><path class="cls-2" d="M78,193.82c12.07,0,19.87-9.51,19.87-21.69S90,150.55,78,150.55H66.74v43.27ZM50.07,136.87a2,2,0,0,1,1.93-2H78.07a37.39,37.39,0,1,1,0,74.78H52a2,2,0,0,1-1.93-2Z"/><path class="cls-2" d="M127.41,136.87a2,2,0,0,1,2-2h44.23a2,2,0,0,1,2,2v11.65a2,2,0,0,1-2,2H144.08V163.8h24.35a2.1,2.1,0,0,1,2,2v11.64a2,2,0,0,1-2,2H144.08v14.43h29.59a2,2,0,0,1,2,2V207.6a2,2,0,0,1-2,2H129.44a2,2,0,0,1-2-2Z"/><path class="cls-2" d="M222.13,133.78c10.69,0,18.59,3.31,25.86,9.93a2,2,0,0,1,.11,3l-8.34,8.66a1.87,1.87,0,0,1-2.67,0,21,21,0,0,0-14.42-5.45c-12.08,0-20.94,10-20.94,22s9,21.69,21,21.69a21,21,0,0,0,14.32-5.13,2.12,2.12,0,0,1,2.78.1l8.33,8.87a2.15,2.15,0,0,1-.1,2.89,36.7,36.7,0,0,1-26,10.36,38.46,38.46,0,1,1,0-76.92"/><rect class="cls-2" x="258.86" y="134.85" width="16.88" height="74.79" rx="2.03"/><path class="cls-2" d="M289.14,202.47a2.4,2.4,0,0,1-.43-3.2l4.92-8.66a2.53,2.53,0,0,1,3.63-.64c3,2,8.44,5.88,15.17,5.88,4.27,0,7.37-2.67,7.37-6.41,0-4.49-3.95-7.37-11-10.79-10.37-5-20.73-10.79-20.73-23.61,0-10.58,8.23-21.26,24.68-21.26,11.11,0,19.66,5.66,22.86,8,1.29.75,1.07,2.67.64,3.42l-5.44,8.23a3.3,3.3,0,0,1-4.7.74c-2.46-1.71-8.77-5.77-14.43-5.77-4.48,0-6.51,2.78-6.51,5.88,0,3.53,4.16,6.3,11.64,9.94,9.4,4.59,21.58,9.83,21.58,24.35,0,11-9.51,22.12-25.21,22.12-13.89,0-21.58-5.77-24-8.23"/><rect class="cls-2" x="350.35" y="134.85" width="16.88" height="74.79" rx="2.03"/><path class="cls-2" d="M405.56,122.24l17-12c1.82-1.28,4.49.11,6,2.78s1.28,5.66-.54,6.52l-18.8,8.86c-1.28.65-2.78-.42-3.74-2.13-.64-1.5-.75-3.42.11-4.06m11.64,71.37a21.37,21.37,0,1,0-21.26-21.27,21.42,21.42,0,0,0,21.26,21.27m0-59.83a38.46,38.46,0,1,1-38.35,38.56,38.39,38.39,0,0,1,38.35-38.56"/><path class="cls-2" d="M467.47,135.7a2,2,0,0,1,2-1.92h1.6c1.07,0,1.81.74,2.67,1.6l41,39.42h.11V136.87a2,2,0,0,1,2-2h12.82a2.1,2.1,0,0,1,2,2v71.91a1.87,1.87,0,0,1-2,1.92h-1.06a3.44,3.44,0,0,1-2.68-1.18l-41.56-41.77h-.1V207.6a2,2,0,0,1-2,2H469.6a2.1,2.1,0,0,1-2-2Z"/><rect class="cls-2" x="50.07" y="237.44" width="16.88" height="74.79" rx="2.03"/><path class="cls-2" d="M83,238.29a2,2,0,0,1,2-1.92h1.6c1.07,0,1.82.75,2.67,1.6l41,39.43h.1V239.47a2,2,0,0,1,2-2h12.82a2.1,2.1,0,0,1,2,2v71.9a1.87,1.87,0,0,1-2,1.92h-1.06a3.43,3.43,0,0,1-2.67-1.17L100,270.34h-.11v39.85a2,2,0,0,1-2,2H85.14a2.1,2.1,0,0,1-2-2Z"/><path class="cls-2" d="M173.53,253.14H158.25a2,2,0,0,1-2-2V239.47a2,2,0,0,1,2-2h47.43a2,2,0,0,1,2,2v11.64a2,2,0,0,1-2,2H190.41v57.05a2.11,2.11,0,0,1-2,2H175.56a2.1,2.1,0,0,1-2-2Z"/><path class="cls-2" d="M216.56,239.47a2,2,0,0,1,2-2h44.23a2,2,0,0,1,2,2v11.64a2,2,0,0,1-2,2H233.23v13.25h24.36a2.1,2.1,0,0,1,2,2v11.64a2,2,0,0,1-2,2H233.23v14.43h29.59a2,2,0,0,1,2,2v11.64a2,2,0,0,1-2,2H218.59a2,2,0,0,1-2-2Z"/><path class="cls-2" d="M311.07,236.48a41.21,41.21,0,0,1,26.07,10,1.87,1.87,0,0,1,.21,2.88l-8.44,9a2.27,2.27,0,0,1-2.88.1,19.68,19.68,0,0,0-14-5.12c-11.64,0-21,9.82-21,21.58a21.29,21.29,0,0,0,21.15,21.26,25.31,25.31,0,0,0,9.51-1.71v-6.2h-6.73a1.94,1.94,0,0,1-2-1.92V275.79a2,2,0,0,1,2-2h21.47a2,2,0,0,1,1.92,2l.11,28.74a1.93,1.93,0,0,1-.85,1.71,54,54,0,0,1-26.5,6.94,38.35,38.35,0,1,1,0-76.7"/><path class="cls-2" d="M385.26,269.38a8.22,8.22,0,0,0,8.12-8.55,7.86,7.86,0,0,0-8.12-8.12H369.45v16.67Zm-32.58-29.91a2,2,0,0,1,2-2h31.94c13.57,0,23.29,10.36,23.29,23.07,0,9.83-5.87,17.74-15.81,21.48l14.64,27.14a2,2,0,0,1-1.82,3.09H392.74a2,2,0,0,1-1.71-1L376.82,283h-7.37v27.24a2.1,2.1,0,0,1-2,2H354.71a2,2,0,0,1-2-2Z"/><rect class="cls-2" x="422.6" y="237.44" width="16.88" height="74.79" rx="2.03"/><path class="cls-2" d="M483.48,296.41c12.07,0,19.87-9.51,19.87-21.69s-7.8-21.58-19.87-21.58H472.26v43.27Zm-27.89-56.94a2,2,0,0,1,1.93-2h26.06a37.39,37.39,0,1,1,0,74.78H457.52a2,2,0,0,1-1.93-2Z"/><path class="cls-2" d="M564.68,286.58,556.56,269h-.11l-8,17.63Zm-43.91,22.87,33.44-71.91a2.17,2.17,0,0,1,1.82-1.17h1.06a2.17,2.17,0,0,1,1.82,1.17l33.44,71.91a1.88,1.88,0,0,1-1.81,2.77H578.67c-1.92,0-2.77-.64-3.73-2.67l-3.85-8.44H542l-3.85,8.55a4,4,0,0,1-3.84,2.56H522.59a1.88,1.88,0,0,1-1.82-2.77"/><path class="cls-2" d="M627.91,296.41c12.07,0,19.87-9.51,19.87-21.69s-7.8-21.58-19.87-21.58H616.69v43.27ZM600,239.47a2,2,0,0,1,1.92-2H628a37.39,37.39,0,1,1,0,74.78H602a2,2,0,0,1-1.92-2Z"/><g class="cls-1"><path class="cls-2" d="M147.31,371.35V327.11H130.43v10.26h-.1l-10.68-10.26H83l0,15.39,0,15.38v12.29a2.11,2.11,0,0,0,2,2H97.85a2,2,0,0,0,2-2V330.32h.1L112.1,342.5l15.31,15.38,14.14,14.21a3.4,3.4,0,0,0,2.67,1.18h1.06a1.87,1.87,0,0,0,2-1.92m117.54-1.18V358.52a2.09,2.09,0,0,0-2-2H233.23V342.07h24.36a2,2,0,0,0,2-2V328.4a2,2,0,0,0-.52-1.29H216.56v43.06a2,2,0,0,0,2,2h44.23a2,2,0,0,0,2-2M394.42,342.5l-.29-.54c7.58-2.85,12.78-8.14,14.82-14.85H390.79a8,8,0,0,1-5.53,2.25H369.45v-2.25H352.68v43.06a2,2,0,0,0,2,2h12.71a2.1,2.1,0,0,0,2-2V342.93h7.37l7.51,14.95,6.7,13.36a2,2,0,0,0,1.71,1H407a2,2,0,0,0,1.82-3.1l-6-11.22Zm45.06,27.67V327.11H422.6v43.06a2.1,2.1,0,0,0,2,2h12.82a2.1,2.1,0,0,0,2-2m81.61-35.47a37.3,37.3,0,0,0-.79-7.59H502.21a26,26,0,0,1,0,15.39c-2.6,8.2-9.35,13.89-18.68,13.89H472.26V327.11H455.59v43.06a2,2,0,0,0,1.93,2h26.06a37.55,37.55,0,0,0,37.51-37.5"/></g><g class="cls-1"><path class="cls-2" d="M67,414.76V387.09H50.07v27.67a2.11,2.11,0,0,0,2,2H64.93a2.1,2.1,0,0,0,2-2m123.45,0V387.09H173.53v27.67a2.1,2.1,0,0,0,2,2h12.82a2.11,2.11,0,0,0,2-2m74.44,0V403.12a1.91,1.91,0,0,0-.12-.64,2,2,0,0,0-1.91-1.39H233.23v-14H216.56v27.67a2,2,0,0,0,2,2h44.23a2,2,0,0,0,2-2m73.57-5.66,0-6.62-.06-15.39H312.89v3.85a1.94,1.94,0,0,0,2,1.92h6.73v6.2a25.31,25.31,0,0,1-9.51,1.71,21.24,21.24,0,0,1-19.72-13.68h-19a38.18,38.18,0,0,0,37.61,30.66,54,54,0,0,0,26.5-6.94,1.93,1.93,0,0,0,.85-1.71m70.35,4.59-6-11.21-8.3-15.39H352.68v27.67a2,2,0,0,0,2,2h12.71a2.1,2.1,0,0,0,2-2V387.52h7.37l7.51,15,6.7,13.35a2,2,0,0,0,1.71,1H407a2,2,0,0,0,1.82-3.1m183.58.32L587,402.48l-7.15-15.39h-17l1.87,4.06H548.44l1.85-4.06h-17l-7.15,15.39L520.77,414a1.89,1.89,0,0,0,1.82,2.78h11.75a4,4,0,0,0,3.84-2.56l3.85-8.55h29.06l3.85,8.44c1,2,1.81,2.67,3.73,2.67h11.87a1.89,1.89,0,0,0,1.81-2.78"/></g><g class="cls-3"><path class="cls-2" d="M99.88,444.93V432.65H83.09v12.28a2.11,2.11,0,0,0,2,2H97.85a2,2,0,0,0,2-2m47.43,1.18V432.65h-19.9l14.14,14.2a3.4,3.4,0,0,0,2.67,1.18h1.06a1.87,1.87,0,0,0,2-1.92m43.1-1.18V432.65H173.53v12.28a2.1,2.1,0,0,0,2,2h12.82a2.11,2.11,0,0,0,2-2m148-5.66,0-6.62h-58a38.21,38.21,0,0,0,30.72,15.27,54,54,0,0,0,26.5-6.94,1.93,1.93,0,0,0,.85-1.71m101.06,5.66V432.65H422.6v12.28a2.1,2.1,0,0,0,2,2h12.82a2.1,2.1,0,0,0,2-2M513,432.65H455.59v12.28a2,2,0,0,0,1.93,2h26.06A37.46,37.46,0,0,0,513,432.65"/></g><path class="cls-4" d="M1.91,110.47a.27.27,0,0,1,.29-.24h.25a.32.32,0,0,1,.28.16L6.25,118h0l3.52-7.56a.27.27,0,0,1,.27-.16h.25a.26.26,0,0,1,.29.24l1.89,10.76a.28.28,0,0,1-.29.37H10.78a.35.35,0,0,1-.31-.24l-.94-6.07h0l-2.8,6.29a.27.27,0,0,1-.27.18H6.12a.29.29,0,0,1-.27-.18L3,115.29H3L2,121.36a.32.32,0,0,1-.29.24H.31a.3.3,0,0,1-.31-.37Z"/><path class="cls-4" d="M20.18,121.18l5-10.77a.29.29,0,0,1,.27-.18h.16a.26.26,0,0,1,.27.18l4.93,10.77a.28.28,0,0,1-.27.42H29.13a.48.48,0,0,1-.47-.32l-.78-1.73H23.09l-.78,1.73a.48.48,0,0,1-.46.32h-1.4A.28.28,0,0,1,20.18,121.18Zm3.57-12.68,2.71-1.79c.27-.18.67,0,.86.38s.19.82-.08,1l-3,1.36c-.18.08-.4-.06-.53-.3S23.64,108.58,23.75,108.5Zm3.35,9.27-1.61-3.52h0l-1.57,3.52Z"/><path class="cls-4" d="M38.61,120.51c-.16-.13-.22-.23-.08-.48l.58-1a.37.37,0,0,1,.54-.11,3.87,3.87,0,0,0,2.42,1,1.35,1.35,0,0,0,1.46-1.24c0-.81-.69-1.37-2-1.92s-3-1.57-3-3.45c0-1.43,1.06-3.08,3.61-3.08a5.64,5.64,0,0,1,3.2,1.07.39.39,0,0,1,.09.53l-.6.91a.43.43,0,0,1-.57.2,4,4,0,0,0-2.22-.88c-.91,0-1.41.51-1.41,1.12s.59,1.26,1.89,1.79c1.55.62,3.35,1.55,3.35,3.62a3.39,3.39,0,0,1-3.69,3.17A5,5,0,0,1,38.61,120.51Z"/><path class="cls-4" d="M69.8,110.23a5.79,5.79,0,0,1,4.29,9.64l1.57,2a.31.31,0,0,1-.26.49H73.62a.32.32,0,0,1-.25-.17l-.87-1.1a5.8,5.8,0,0,1-2.7.66,5.77,5.77,0,0,1,0-11.53Zm0,9.45a3.59,3.59,0,0,0,1.39-.28l-1.94-2.53a.3.3,0,0,1,.26-.48h1.78a.3.3,0,0,1,.25.16l1.24,1.61A3.68,3.68,0,1,0,66.13,116,3.68,3.68,0,0,0,69.8,119.68Z"/><path class="cls-4" d="M84.39,110.7a.32.32,0,0,1,.3-.31h1.52a.31.31,0,0,1,.31.31v6.67a2.33,2.33,0,0,0,4.66,0V110.7a.3.3,0,0,1,.3-.31H93a.32.32,0,0,1,.3.31v6.78a4.46,4.46,0,0,1-8.91,0Z"/><path class="cls-4" d="M102.79,110.7a.31.31,0,0,1,.3-.31h6.52a.31.31,0,0,1,.3.31V112a.3.3,0,0,1-.3.3h-4.74v2.63h3.95a.32.32,0,0,1,.31.3v1.33a.3.3,0,0,1-.31.3h-3.95v2.81h4.74a.3.3,0,0,1,.3.3v1.31a.31.31,0,0,1-.3.31h-6.52a.31.31,0,0,1-.3-.31Z"/><path class="cls-4" d="M128.82,110.7a.32.32,0,0,1,.3-.31h1.53a.31.31,0,0,1,.3.31v6.67a2.33,2.33,0,0,0,4.66,0V110.7a.3.3,0,0,1,.3-.31h1.52a.33.33,0,0,1,.31.31v6.78a4.46,4.46,0,0,1-8.92,0Z"/><path class="cls-4" d="M147.22,110.52a.3.3,0,0,1,.3-.29h.24a.36.36,0,0,1,.28.11l6.53,7h0V110.7a.31.31,0,0,1,.3-.31h1.48a.32.32,0,0,1,.3.31v10.77a.3.3,0,0,1-.3.29h-.23a.36.36,0,0,1-.27-.12l-6.56-7.23h0v6.88a.3.3,0,0,1-.3.31h-1.46a.32.32,0,0,1-.3-.31Z"/><path class="cls-4" d="M165,121.18l5-10.77a.27.27,0,0,1,.27-.18h.16a.27.27,0,0,1,.27.18l4.93,10.77a.28.28,0,0,1-.27.42H173.9a.47.47,0,0,1-.47-.32l-.78-1.73h-4.79l-.78,1.73a.49.49,0,0,1-.47.32h-1.39A.28.28,0,0,1,165,121.18Zm6.91-3.41-1.6-3.52h0l-1.56,3.52Z"/><path class="cls-4" d="M.61,218.94a.31.31,0,0,1,.31-.31H7.43a.31.31,0,0,1,.31.31v1.31a.3.3,0,0,1-.31.3H2.69v2.63h4a.31.31,0,0,1,.3.3v1.33a.3.3,0,0,1-.3.31h-4v2.8H7.43a.3.3,0,0,1,.31.3v1.31a.31.31,0,0,1-.31.31H.92a.31.31,0,0,1-.31-.31Z"/><path class="cls-4" d="M16.16,228.75c-.16-.13-.22-.23-.08-.48l.58-1a.38.38,0,0,1,.55-.12,3.82,3.82,0,0,0,2.41,1,1.35,1.35,0,0,0,1.46-1.24c0-.81-.69-1.37-2-1.92-1.51-.61-3-1.57-3-3.45,0-1.43,1.05-3.08,3.6-3.08a5.64,5.64,0,0,1,3.2,1.07.4.4,0,0,1,.1.53l-.61.92a.42.42,0,0,1-.56.19,4.09,4.09,0,0,0-2.23-.88c-.91,0-1.41.51-1.41,1.12s.6,1.26,1.89,1.79c1.55.62,3.35,1.55,3.35,3.62A3.38,3.38,0,0,1,19.69,230,5,5,0,0,1,16.16,228.75Z"/><path class="cls-4" d="M41.25,229.42l5-10.77a.29.29,0,0,1,.27-.18h.16a.26.26,0,0,1,.27.18l4.93,10.77a.28.28,0,0,1-.27.42H50.2a.46.46,0,0,1-.46-.32L49,227.79H44.17l-.79,1.73a.48.48,0,0,1-.46.32h-1.4A.29.29,0,0,1,41.25,229.42ZM48.17,226l-1.6-3.52h0L45,226Z"/><path class="cls-4" d="M65,218.47A5.39,5.39,0,0,1,68.87,220a.29.29,0,0,1,0,.45l-1,1a.25.25,0,0,1-.4,0,3.75,3.75,0,0,0-2.46-.95,3.72,3.72,0,0,0,0,7.43,3.86,3.86,0,0,0,2.45-.91.29.29,0,0,1,.4,0l1,1a.3.3,0,0,1,0,.43A5.5,5.5,0,0,1,65,230a5.77,5.77,0,1,1,0-11.53Z"/><path class="cls-4" d="M79.57,220.55H77.12a.3.3,0,0,1-.3-.3v-1.31a.31.31,0,0,1,.3-.31h7a.31.31,0,0,1,.3.31v1.31a.3.3,0,0,1-.3.3H81.67v9a.32.32,0,0,1-.3.31H79.88a.33.33,0,0,1-.31-.31Z"/><path class="cls-4" d="M93,218.94a.32.32,0,0,1,.3-.31h1.52a.31.31,0,0,1,.31.31v6.67a2.33,2.33,0,0,0,4.65,0v-6.69a.31.31,0,0,1,.31-.31h1.52a.32.32,0,0,1,.3.31v6.78a4.46,4.46,0,0,1-8.91,0Z"/><path class="cls-4" d="M109.7,229.42l5-10.77a.29.29,0,0,1,.27-.18h.16a.27.27,0,0,1,.27.18l4.93,10.77a.28.28,0,0,1-.27.42h-1.39a.47.47,0,0,1-.47-.32l-.78-1.73h-4.79l-.78,1.73a.49.49,0,0,1-.47.32H110A.28.28,0,0,1,109.7,229.42Zm6.91-3.41-1.6-3.52h0L113.4,226Z"/><path class="cls-4" d="M128.6,218.94a.3.3,0,0,1,.3-.31h4.58a3.47,3.47,0,0,1,3.49,3.44,3.54,3.54,0,0,1-2.37,3.24l2.19,4.06a.31.31,0,0,1-.27.47h-1.68a.27.27,0,0,1-.26-.15l-2.13-4.24h-1.77v4.08a.33.33,0,0,1-.31.31H128.9a.3.3,0,0,1-.3-.31Zm4.7,4.8a1.64,1.64,0,0,0,1.59-1.63,1.6,1.6,0,0,0-1.59-1.56h-2.61v3.19Z"/><path class="cls-4" d="M161.53,218.47A5.41,5.41,0,0,1,165.4,220a.31.31,0,0,1,0,.45l-1,1a.25.25,0,0,1-.4,0,3.75,3.75,0,0,0-2.47-.95,3.72,3.72,0,0,0,0,7.43A3.86,3.86,0,0,0,164,227a.29.29,0,0,1,.4,0l1,1a.3.3,0,0,1,0,.43,5.5,5.5,0,0,1-3.89,1.56,5.77,5.77,0,1,1,0-11.53Z"/><path class="cls-4" d="M179.13,218.47a5.77,5.77,0,1,1-5.75,5.78A5.75,5.75,0,0,1,179.13,218.47Zm0,9.45a3.69,3.69,0,1,0-3.67-3.67A3.69,3.69,0,0,0,179.13,227.92Z"/><path class="cls-4" d="M193.83,218.76a.3.3,0,0,1,.3-.29h.24a.35.35,0,0,1,.27.11l6.53,7h0v-6.61a.3.3,0,0,1,.3-.31H203a.33.33,0,0,1,.31.31v10.77a.31.31,0,0,1-.31.29h-.22a.36.36,0,0,1-.27-.12l-6.57-7.23h0v6.88a.31.31,0,0,1-.3.31h-1.46a.32.32,0,0,1-.3-.31Z"/></g></g></svg>