<?xml version="1.0" encoding="utf-8"?>
<!-- Generator: Adobe Illustrator 26.0.3, SVG Export Plug-In . SVG Version: 6.00 Build 0)  -->
<svg version="1.1" id="Capa_1" xmlns="http://www.w3.org/2000/svg" xmlns:xlink="http://www.w3.org/1999/xlink" x="0px" y="0px"
	 viewBox="0 0 820 430" style="enable-background:new 0 0 820 430;" xml:space="preserve">
<style type="text/css">
	.st0{fill:#FFFFFF;}
	.st1{opacity:0.4;}
	.st2{opacity:0.15;}
</style>
<g id="Layer_2">
	<g id="Layer_2-2">
		<path class="st0" d="M5.6,230.3c-0.1-0.1-0.2-0.2-0.1-0.4l0.5-0.9c0.1-0.2,0.3-0.2,0.5-0.1c0,0,0,0,0,0c0.6,0.6,1.4,0.9,2.3,0.9
			c0.7,0.1,1.3-0.4,1.4-1.1c0,0,0,0,0,0c0-0.8-0.6-1.3-1.9-1.8c-1.4-0.6-2.8-1.5-2.8-3.2c0-1.3,1-2.9,3.4-2.9c1.1,0,2.1,0.4,3,1
			c0.2,0.1,0.2,0.3,0.1,0.5l-0.6,0.9c-0.1,0.2-0.3,0.3-0.5,0.2c-0.6-0.5-1.3-0.8-2.1-0.8c-0.9,0-1.3,0.5-1.3,1
			c0,0.7,0.6,1.2,1.8,1.7c1.4,0.6,3.1,1.4,3.1,3.4c-0.1,1.7-1.6,3.1-3.4,3c0,0-0.1,0-0.1,0C7.7,231.5,6.5,231.1,5.6,230.3z"/>
		<path class="st0" d="M25.4,220.7c3,0,5.4,2.4,5.4,5.4c0,3-2.4,5.4-5.4,5.4c-3,0-5.4-2.4-5.4-5.4C20,223.1,22.4,220.7,25.4,220.7
			C25.4,220.7,25.4,220.7,25.4,220.7z M25.4,229.5c1.9,0,3.4-1.5,3.5-3.4c0-1.9-1.5-3.4-3.4-3.5c-1.9,0-3.4,1.5-3.5,3.4c0,0,0,0,0,0
			C22,228,23.5,229.5,25.4,229.5z"/>
		<path class="st0" d="M39.1,221c0-0.2,0.1-0.3,0.3-0.3h0.2c0.1,0,0.2,0,0.3,0.1l6.1,6.5l0,0v-6.2c0-0.2,0.1-0.3,0.3-0.3
			c0,0,0,0,0,0h1.4c0.2,0,0.3,0.1,0.3,0.3v10.1c0,0.1-0.1,0.3-0.3,0.3c0,0,0,0,0,0h-0.2c-0.1,0-0.2,0-0.3-0.1l-6.1-6.8l0,0v6.4
			c0,0.2-0.1,0.3-0.3,0.3c0,0,0,0,0,0h-1.4c-0.2,0-0.3-0.1-0.3-0.3L39.1,221z"/>
		<path class="st0" d="M5.7,119.4c0-0.1,0.1-0.2,0.3-0.2c0,0,0,0,0,0h0.2c0.1,0,0.2,0.1,0.3,0.1l3.3,7.1l0,0l3.3-7.1
			c0-0.1,0.1-0.2,0.3-0.1h0.2c0.1,0,0.3,0.1,0.3,0.2c0,0,0,0,0,0l1.8,10c0,0.1,0,0.3-0.2,0.3c0,0-0.1,0-0.1,0H14
			c-0.1,0-0.2-0.1-0.3-0.2l-0.9-5.7l0,0l-2.6,5.9c0,0.1-0.1,0.2-0.3,0.2H9.7c-0.1,0-0.2-0.1-0.3-0.2l-2.7-5.9l0,0l-0.9,5.7
			c0,0.1-0.1,0.2-0.3,0.2H4.2c-0.2,0-0.3-0.1-0.3-0.3c0,0,0-0.1,0-0.1L5.7,119.4z"/>
		<path class="st0" d="M22.8,129.4l4.7-10.1c0-0.1,0.1-0.2,0.3-0.2h0.1c0.1,0,0.2,0.1,0.3,0.2l4.6,10.1c0.1,0.1,0,0.3-0.1,0.4
			c0,0-0.1,0-0.2,0h-1.3c-0.2,0-0.4-0.1-0.4-0.3l-0.7-1.6h-4.5l-0.7,1.6c-0.1,0.2-0.2,0.3-0.4,0.3h-1.3c-0.1,0-0.3-0.1-0.3-0.2
			C22.8,129.5,22.8,129.4,22.8,129.4z M26.2,117.5l2.5-1.7c0.3-0.1,0.7,0,0.8,0.3c0,0,0,0,0,0c0.2,0.4,0.2,0.8-0.1,0.9l-2.8,1.3
			c-0.2,0.1-0.4-0.1-0.5-0.3C26,117.9,26.1,117.6,26.2,117.5z M29.3,126.2l-1.5-3.3l0,0l-1.5,3.3H29.3z"/>
		<path class="st0" d="M40,128.8c-0.1-0.1-0.2-0.2-0.1-0.4l0.5-0.9c0.1-0.2,0.3-0.2,0.5-0.1c0,0,0,0,0,0c0.6,0.6,1.4,0.9,2.3,0.9
			c0.7,0.1,1.3-0.4,1.4-1.1c0,0,0,0,0,0c0-0.8-0.6-1.3-1.9-1.8c-1.2-0.5-2.8-1.5-2.8-3.2c0-1.3,1-2.9,3.4-2.9c1.1,0,2.1,0.4,3,1
			c0.2,0.1,0.2,0.3,0.1,0.5l-0.6,0.9c-0.1,0.2-0.3,0.3-0.5,0.2c-0.6-0.5-1.3-0.8-2.1-0.8c-0.9,0-1.3,0.5-1.3,1s0.6,1.2,1.8,1.7
			c1.4,0.6,3.1,1.5,3.1,3.4c-0.1,1.7-1.6,3.1-3.4,3c0,0-0.1,0-0.1,0C42.1,130,41,129.6,40,128.8z"/>
		<path class="st0" d="M69,119.2c3,0,5.4,2.4,5.4,5.4c0,1.3-0.5,2.6-1.4,3.6l1.5,1.9c0.1,0.1,0.1,0.3-0.1,0.4
			c-0.1,0-0.1,0.1-0.2,0.1h-1.7c-0.1,0-0.2-0.1-0.2-0.1l-0.8-1c-0.8,0.4-1.6,0.6-2.5,0.6c-3,0-5.4-2.4-5.4-5.4
			C63.6,121.5,66,119.1,69,119.2L69,119.2z M69,128c0.4,0,0.9-0.1,1.3-0.3l-1.8-2.4c-0.1-0.1-0.1-0.3,0.1-0.4c0.1,0,0.1-0.1,0.2-0.1
			h1.7c0.1,0,0.2,0.1,0.2,0.1l1.2,1.5c1.1-1.5,0.8-3.7-0.7-4.8c-1.5-1.1-3.7-0.8-4.8,0.7c-0.5,0.6-0.7,1.4-0.7,2.1
			C65.6,126.5,67.1,128,69,128z"/>
		<path class="st0" d="M82.6,119.6c0-0.2,0.1-0.3,0.3-0.3h1.4c0.2,0,0.3,0.1,0.3,0.3c0,0,0,0,0,0v6.2c0.1,1.2,1.1,2.1,2.3,2
			c1.1-0.1,2-0.9,2-2v-6.3c0-0.2,0.1-0.3,0.3-0.3c0,0,0,0,0,0h1.4c0.2,0,0.3,0.1,0.3,0.3v6.3c-0.1,2.3-2.1,4.1-4.4,4
			c-2.1-0.1-3.9-1.8-4-4L82.6,119.6z"/>
		<path class="st0" d="M99.8,119.6c0-0.2,0.1-0.3,0.3-0.3h0h6.1c0.2,0,0.3,0.1,0.3,0.3v0v1.3c0,0.2-0.1,0.3-0.3,0.3h-4.4v2.4h3.7
			c0.2,0,0.3,0.1,0.3,0.3v1.2c0,0.2-0.1,0.3-0.3,0.3h-3.7v2.6h4.4c0.2,0,0.3,0.1,0.3,0.3l0,0v1.2c0,0.2-0.1,0.3-0.3,0.3h0h-6.1
			c-0.2,0-0.3-0.1-0.3-0.3v0V119.6z"/>
		<path class="st0" d="M96.4,155.4c0.1-0.2,0.1-0.4,0.1-0.6v-10.1c0-1-0.8-1.8-1.8-1.8H56.3c-1,0-1.8,0.8-1.8,1.8c0,0,0,0,0,0v61.6
			c0,1,0.8,1.8,1.8,1.8h10.9c1-0.1,1.7-0.8,1.8-1.8v-22.6h21.2c0.8,0,1.6-0.7,1.7-1.5c0-0.1,0-0.2,0.1-0.3v-10.1
			c-0.1-1-0.8-1.7-1.8-1.8H69v-13.4h25.8C95.5,156.6,96.2,156.1,96.4,155.4 M152.2,175.6c0,2.3-0.4,4.5-1.3,6.6
			c-3.7,9.6-14.4,14.3-23.9,10.7c-4.9-1.9-8.8-5.8-10.7-10.7c-0.8-2.1-1.3-4.3-1.3-6.6c0.2-10.3,8.7-18.4,19-18.1
			C144,157.6,152,165.6,152.2,175.6 M166.4,182.2c0.4-2.2,0.6-4.4,0.6-6.6c0-2.3-0.2-4.6-0.7-6.8c-3.2-15.6-16.9-26.8-32.8-26.8
			c-15.9,0-29.6,11.2-32.7,26.8c-0.4,2.2-0.7,4.5-0.7,6.8c0,2.2,0.2,4.4,0.6,6.6c3.1,15.6,16.8,26.8,32.7,26.8
			C149.5,209,163.3,197.8,166.4,182.2 M212.8,163.3c0,2.1-0.8,4-2.3,5.5c-1.3,1.2-3,1.9-4.8,2H192v-14.5h13.8
			c3.8-0.1,6.9,2.8,7.1,6.6C212.8,163,212.8,163.1,212.8,163.3 M226.4,168.8c0.6-1.9,0.9-3.8,0.9-5.8c0-2.6-0.5-5.2-1.4-7.6
			c-3.1-7.7-10.6-12.6-18.8-12.5h-27.8c-1,0-1.8,0.8-1.8,1.7c0,0,0,0,0,0v61.6c0,1,0.8,1.8,1.8,1.8h11.1c1-0.1,1.7-0.8,1.8-1.8
			v-23.7h6.4l6.5,13l5.8,11.6c0.3,0.5,0.9,0.8,1.5,0.8h12.4c1,0.1,1.8-0.7,1.9-1.7c0-0.4-0.1-0.7-0.3-1l-5.3-9.8l-7.2-13.4l-0.3-0.5
			C220.1,179.2,224.6,174.6,226.4,168.8 M277.8,155.4c0.1-0.2,0.1-0.4,0.1-0.6v-10.1c0-1-0.8-1.8-1.8-1.8l0,0h-41.3
			c-1,0-1.8,0.8-1.8,1.8v10.1c0,0.2,0,0.4,0.1,0.6c0.2,0.7,0.9,1.2,1.7,1.2h13.3v49.7c0.1,1,0.8,1.7,1.8,1.8h11.2
			c1-0.1,1.7-0.8,1.8-1.8v-49.7h13.3C276.9,156.6,277.6,156.1,277.8,155.4 M312.6,185.7h-14.1l1.6-3.5l5.4-11.8h0.1l5.4,11.8
			L312.6,185.7z M336.7,205.6l-4.7-10l-6.3-13.4l-6.2-13.4l-6.2-13.4l-5.8-12.4c-0.3-0.6-0.9-1-1.6-1h-0.9c-0.7,0-1.3,0.4-1.6,1
			l-5.8,12.4l-6.2,13.4l-6.2,13.4l-6.2,13.4l-4.7,10c-0.4,0.8-0.2,1.8,0.6,2.2c0.3,0.2,0.6,0.2,0.9,0.2h10.2c1.5,0,2.8-0.9,3.3-2.2
			l3.3-7.5h25.3l3.3,7.3c0.8,1.8,1.6,2.3,3.3,2.3h10.3c0.9,0.1,1.7-0.6,1.8-1.5C336.9,206.2,336.8,205.9,336.7,205.6 M381.9,206.2
			v-10.1c0-0.2,0-0.4-0.1-0.6c-0.2-0.7-0.9-1.2-1.7-1.2H358v-49.7c-0.1-1-0.8-1.7-1.8-1.8h-11.1c-1,0-1.8,0.8-1.8,1.8c0,0,0,0,0,0
			v61.6c0,1,0.8,1.8,1.8,1.8l0,0h35C381.1,208,381.9,207.2,381.9,206.2L381.9,206.2 M431.2,206.3v-10.1c0-0.2,0-0.4-0.1-0.6
			c-0.2-0.7-0.9-1.2-1.7-1.2h-25.8v-12.6h21.2c1,0,1.8-0.8,1.8-1.7c0,0,0,0,0,0v-10.1c-0.1-1-0.8-1.7-1.8-1.8h-21.2v-11.5h25.8
			c0.8,0,1.4-0.5,1.7-1.2c0.1-0.2,0.1-0.4,0.1-0.6v-10.1c0-1-0.8-1.8-1.8-1.8l0,0H391c-1,0-1.8,0.8-1.8,1.7c0,0,0,0,0,0v61.6
			c0,1,0.8,1.8,1.8,1.8l0,0h38.5C430.4,208,431.2,207.2,431.2,206.3L431.2,206.3 M482.6,147c0.3-0.5,0.5-1.1,0.6-1.8v-0.7
			c0-0.9-0.8-1.6-1.7-1.6c0,0,0,0,0,0h-39.5c-1,0.1-1.7,0.8-1.8,1.8v10.1c0,0.2,0,0.4,0.1,0.6c0.3,0.7,0.9,1.2,1.6,1.2h20.3v0.2
			l-6.2,12l-7,13.4l-7,13.4l-4.1,7.8c-0.4,0.7-0.6,1.5-0.6,2.2v0.7c0.1,1,0.8,1.7,1.8,1.8h40.4c1,0,1.8-0.8,1.8-1.8v0v-10.1
			c0-0.2,0-0.4-0.1-0.6c-0.2-0.7-0.9-1.2-1.7-1.2h-20.3v-0.2l5.9-12l6.6-13.4l6.6-13.4L482.6,147z M524.8,185.7h-14.2l1.6-3.5
			l5.4-11.8h0.1l5.4,11.8L524.8,185.7z M548.9,205.6l-4.7-10l-6.2-13.4l-6.2-13.4l-6.2-13.4l-5.8-12.4c-0.3-0.6-0.9-1-1.6-1h-0.9
			c-0.7,0-1.3,0.4-1.6,1l-5.7,12.4l-6.2,13.4l-6.2,13.4l-6.2,13.4l-4.7,10c-0.4,0.8-0.1,1.8,0.7,2.2c0.3,0.2,0.6,0.2,0.9,0.2h10.2
			c1.5,0,2.8-0.9,3.3-2.2l3.4-7.5h25.3l3.3,7.3c0.8,1.8,1.6,2.3,3.3,2.3h10.3c0.9,0.1,1.7-0.6,1.8-1.5
			C549.1,206.2,549,205.9,548.9,205.6 M567.9,159.8c-0.1-1.9,1-3.6,2.7-4.5c0.9-0.5,2-0.7,3-0.7c1.3,0,2.7,0.2,4,0.7
			c3.1,1,6,2.5,8.6,4.4c1.3,1,3.1,0.7,4-0.6c0,0,0-0.1,0.1-0.1l2.5-3.7l2.3-3.4c0.4-0.7,0.6-2.3-0.6-3c-2.8-2-10.2-7-19.9-7
			c-11.6,0-18.6,6.2-20.7,13.4c-0.5,1.7-0.8,3.4-0.8,5.1c0,2.9,0.7,5.7,2.1,8.3c3.2,5.7,9.6,9.2,16,12.3c0.8,0.4,1.5,0.7,2.2,1.1
			c4.7,2.5,7.4,4.9,7.4,8.3c0,2.3-1.5,4.4-3.7,5.1c-0.9,0.3-1.8,0.5-2.7,0.5c-1.3,0-2.5-0.2-3.7-0.5c-4.1-0.9-7.5-3.3-9.5-4.7
			c-1-0.7-2.3-0.5-3.1,0.4c0,0-0.1,0.1-0.1,0.1l-2.3,4.1l-1.9,3.6c-0.6,0.9-0.5,2.1,0.4,2.8c2.1,2.1,8.8,7.2,20.9,7.2
			c10.9,0,18.3-6.1,20.9-13.4c0.7-1.9,1-3.9,1.1-5.9c0-2.6-0.5-5.2-1.6-7.5c-3.1-7-10.5-10.4-16.7-13.4l-0.6-0.3
			C571.5,165.3,567.9,162.9,567.9,159.8"/>
		<g class="st1">
			<path class="st0" d="M96.4,103.2c0.1-0.2,0.1-0.4,0.1-0.6V92.5c0-1-0.8-1.8-1.8-1.8H56.3c-1,0-1.8,0.8-1.8,1.7c0,0,0,0,0,0v37.5
				h37.4c0-0.1,0.1-0.2,0.1-0.3v-10.1c-0.1-1-0.8-1.7-1.8-1.8H69v-13.4h25.8C95.5,104.4,96.2,103.9,96.4,103.2 M166.4,129.9
				c0.4-2.2,0.6-4.4,0.6-6.6c0-2.3-0.2-4.6-0.7-6.8c-3.7-18.1-21.3-29.8-39.4-26.1c-13.2,2.7-23.4,13-26.1,26.1
				c-0.4,2.2-0.7,4.5-0.7,6.8c0,2.2,0.2,4.4,0.6,6.6h15.5c-0.8-2.1-1.3-4.3-1.3-6.6c0.2-10.3,8.7-18.4,19-18.1
				c9.9,0.2,17.9,8.2,18.1,18.1c0,2.3-0.4,4.5-1.3,6.6H166.4z M212.8,111.1c0,2.1-0.8,4-2.3,5.5c-1.3,1.3-3,2-4.8,2H192V104h13.8
				c3.8-0.1,6.9,2.8,7.1,6.6C212.8,110.8,212.8,110.9,212.8,111.1 M226.4,116.5c0.6-1.9,0.9-3.8,0.9-5.8c0-2.6-0.5-5.2-1.4-7.6
				c-3.1-7.7-10.6-12.6-18.8-12.5h-27.8c-1,0-1.8,0.8-1.8,1.7c0,0,0,0,0,0v37.5h36.3l-0.3-0.5C220.1,127,224.6,122.4,226.4,116.5
				 M277.8,103.2c0.1-0.2,0.1-0.4,0.1-0.6V92.5c0-1-0.8-1.8-1.8-1.8l0,0h-41.3c-1,0-1.8,0.8-1.8,1.8v10.1c0,0.2,0,0.4,0.1,0.6
				c0.2,0.7,0.9,1.2,1.7,1.2h13.3v25.6h14.7v-25.6h13.3C277,104.4,277.6,103.9,277.8,103.2 M311,129.9h14.8l-6.2-13.4l-6.2-13.4
				l-5.8-12.4c-0.3-0.6-0.9-1-1.6-1h-0.9c-0.7,0-1.3,0.4-1.6,1l-5.8,12.4l-6.2,13.4l-6.2,13.4h14.8l5.4-11.8h0.1L311,129.9z
				 M343.4,129.9H358V92.5c-0.1-1-0.8-1.7-1.8-1.8h-11.1c-1,0-1.8,0.8-1.8,1.8c0,0,0,0,0,0L343.4,129.9L343.4,129.9z M426.7,127.8
				v-10.1c0-0.4-0.2-0.8-0.4-1.1h-37.1v13.4h14.5v-0.4h21.2C425.9,129.6,426.7,128.8,426.7,127.8
				C426.7,127.8,426.7,127.8,426.7,127.8"/>
		</g>
		<g class="st2">
			<path class="st0" d="M96.4,64.3c0.1-0.2,0.1-0.4,0.1-0.6V53.6c0-1-0.8-1.8-1.8-1.8H56.3c-1,0-1.8,0.8-1.8,1.8v24.1H69V65.6h25.8
				C95.5,65.6,96.2,65.1,96.4,64.3 M150.9,77.7h15.5c-3.7-18.1-21.3-29.8-39.4-26.1c-13.2,2.7-23.4,13-26.1,26.1h15.5
				c3.6-9.5,14.3-14.3,23.8-10.7C145.1,68.9,149,72.8,150.9,77.7 M277.8,64.3c0.1-0.2,0.1-0.4,0.1-0.6V53.6c0-1-0.8-1.8-1.8-1.8l0,0
				h-41.3c-1,0-1.8,0.8-1.8,1.8v10.1c0,0.2,0,0.4,0.1,0.6c0.2,0.7,0.9,1.2,1.7,1.2h13.3v12.2h14.7V65.5h13.3
				C276.9,65.5,277.6,65,277.8,64.3 M291.5,77.7h28l-6.2-13.4L307.6,52c-0.3-0.6-0.9-1-1.6-1h-0.9c-0.7,0-1.3,0.4-1.6,1l-5.8,12.4
				L291.5,77.7z M358,77.7V53.6c-0.1-1-0.8-1.7-1.8-1.8h-11.1c-1,0-1.8,0.8-1.8,1.8c0,0,0,0,0,0v24.1H358z"/>
		</g>
		<g class="st2">
			<path class="st0" d="M96.4,38.9c0.1-0.2,0.1-0.4,0.1-0.6V28.2c0-1-0.8-1.8-1.8-1.8H56.3c-1,0-1.8,0.8-1.8,1.8c0,0,0,0,0,0v10.7
				H96.4z M106.9,38.9h53.5c-11-14.8-32-17.8-46.7-6.7C111.1,34.1,108.8,36.3,106.9,38.9 M277.8,38.9c0.1-0.2,0.1-0.4,0.1-0.6V28.2
				c0-1-0.8-1.8-1.8-1.8l0,0h-41.3c-1,0-1.8,0.8-1.8,1.8v10.1c0,0.2,0,0.4,0.1,0.6H277.8z M297.7,38.9h15.6l-5.8-12.4
				c-0.3-0.6-0.9-1-1.6-1h-0.9c-0.7,0-1.3,0.4-1.6,1L297.7,38.9z M358,38.9V28.2c-0.1-1-0.8-1.7-1.8-1.8h-11.1c-1,0-1.8,0.8-1.8,1.8
				c0,0,0,0,0,0v10.7H358z"/>
		</g>
		<path class="st0" d="M84.2,273.1c10.3,0.1,18.7-8.2,18.7-18.5c0.1-10.3-8.2-18.7-18.5-18.7s-18.7,8.2-18.7,18.5c0,0.1,0,0.1,0,0.2
			C65.7,264.8,74,273,84.2,273.1 M84.2,221c18.5-0.1,33.5,14.9,33.6,33.4c0.1,18.5-14.9,33.5-33.4,33.6
			c-18.5,0.1-33.5-14.9-33.6-33.4C50.7,236.1,65.6,221.1,84,221C84.1,221,84.1,221,84.2,221"/>
		<path class="st0" d="M151.9,249.8c4,0,6.8-3.2,6.8-7.3c0.2-3.7-2.7-6.7-6.3-6.9c-0.1,0-0.3,0-0.4,0h-9.4v14.2H151.9z M128,223.7
			c0-1,0.8-1.8,1.8-1.8h22.4c12.3,0,20.8,9.3,20.8,20.6c0,11.5-8.6,20.9-20.8,20.9h-9.8v21.9c-0.1,1-0.8,1.7-1.8,1.8h-11
			c-1,0-1.8-0.8-1.8-1.8l0,0V223.7z"/>
		<path class="st0" d="M211.7,273.1c10.3,0.1,18.7-8.2,18.7-18.5c0.1-10.3-8.2-18.7-18.5-18.7s-18.7,8.2-18.7,18.5
			c0,0.1,0,0.1,0,0.2C193.2,264.8,201.5,273,211.7,273.1 M211.7,221c18.5-0.1,33.5,14.9,33.6,33.4c0.1,18.5-14.9,33.5-33.4,33.6
			c-18.5,0.1-33.5-14.9-33.6-33.4c-0.1-18.5,14.8-33.5,33.3-33.6C211.6,221,211.6,221,211.7,221"/>
		<path class="st0" d="M283.9,249.7c4,0,7.1-3.3,7.1-7.2c0-0.1,0-0.2,0-0.2c0.1-3.8-2.8-6.9-6.6-7.1c-0.2,0-0.3,0-0.5,0h-13.8v14.5
			L283.9,249.7z M255.5,223.7c0-1,0.8-1.8,1.8-1.8c0,0,0,0,0,0h27.8c10.9-0.2,20,8.4,20.3,19.4c0,0.2,0,0.5,0,0.7
			c0,8.6-5.1,15.4-13.8,18.7l12.8,23.6c0.5,0.8,0.3,1.9-0.6,2.4c-0.3,0.2-0.7,0.3-1,0.3h-12.4c-0.6,0-1.2-0.3-1.5-0.8l-12.4-24.7
			h-6.4v23.7c-0.1,1-0.8,1.7-1.8,1.8h-11c-1,0-1.8-0.8-1.8-1.8v0L255.5,223.7z"/>
		<path class="st0" d="M326.3,235.6h-13.3c-1,0-1.8-0.8-1.8-1.8v0v-10.2c0-1,0.8-1.8,1.8-1.8l0,0h41.3c1,0,1.8,0.8,1.8,1.7
			c0,0,0,0,0,0v10.1c0,1-0.8,1.8-1.7,1.8c0,0,0,0,0,0H341v49.7c-0.1,1-0.8,1.7-1.8,1.8H328c-1-0.1-1.7-0.8-1.8-1.8L326.3,235.6z"/>
		<path class="st0" d="M363.4,223.7c0-1,0.8-1.7,1.8-1.8h11.4c1,0,1.8,0.8,1.8,1.8v38.8c0,6.8,4.8,10.6,11.4,10.6
			c6.6,0,11.6-3.8,11.6-10.6v-38.8c0-1,0.8-1.8,1.8-1.8c0,0,0,0,0,0h11.4c1,0.1,1.7,0.8,1.8,1.8v39.5c0,14.1-11.9,24.7-26.6,24.7
			s-26.4-10.6-26.4-24.7L363.4,223.7z"/>
		<path class="st0" d="M430,222.7c0-0.9,0.8-1.7,1.8-1.7h1.4c0.9,0,1.6,0.7,2.3,1.4l35.7,34.3h0.1v-33.1c0-1,0.8-1.8,1.8-1.8h11.2
			c1,0.1,1.7,0.8,1.8,1.8v62.6c0,0.9-0.7,1.6-1.6,1.7c-0.1,0-0.1,0-0.2,0h-0.9c-0.9,0-1.7-0.3-2.3-1l-36.2-36.4h-0.1v34.7
			c0,1-0.8,1.8-1.8,1.8h0h-11.1c-1-0.1-1.7-0.8-1.8-1.8L430,222.7z"/>
		<path class="st0" d="M502,221.9h11.2c1,0,1.8,0.8,1.8,1.8v61.6c0,1-0.8,1.8-1.8,1.8H502c-1,0-1.8-0.8-1.8-1.8v-61.6
			C500.2,222.7,501,221.9,502,221.9z"/>
		<path class="st0" d="M553.2,273.3c10.5,0,17.3-8.3,17.3-18.9c0-10.6-6.8-18.8-17.3-18.8h-9.8v37.7H553.2z M528.9,223.7
			c0-0.9,0.7-1.7,1.7-1.8h22.7c18-0.3,32.8,14,33.1,32c0.3,18-14,32.8-32,33.1c-0.4,0-0.7,0-1.1,0h-22.7c-0.9,0-1.7-0.8-1.7-1.8
			L528.9,223.7z"/>
		<path class="st0" d="M623.9,264.7l-7.1-15.3h-0.1l-7,15.3H623.9z M585.7,284.6l29.1-62.6c0.3-0.6,0.9-1,1.6-1h0.9
			c0.7,0,1.3,0.4,1.6,1l29.1,62.6c0.4,0.8,0.1,1.8-0.7,2.2c-0.3,0.2-0.6,0.2-0.9,0.2h-10.3c-1.7,0-2.4-0.6-3.3-2.3l-3.3-7.3h-25.3
			l-3.4,7.5c-0.5,1.4-1.9,2.2-3.3,2.2h-10.3c-0.9,0.1-1.7-0.6-1.8-1.5C585.5,285.2,585.5,284.9,585.7,284.6"/>
		<path class="st0" d="M679,273.3c10.5,0,17.3-8.3,17.3-18.9c0-10.6-6.8-18.8-17.3-18.8h-9.8v37.7H679z M654.7,223.7
			c0-0.9,0.7-1.7,1.7-1.8h22.7c18-0.3,32.8,14,33.1,32c0.3,18-14,32.8-32,33.1c-0.4,0-0.7,0-1.1,0h-22.6c-0.9,0-1.7-0.8-1.7-1.8
			L654.7,223.7z"/>
		<path class="st0" d="M722.1,223.7c0-1,0.8-1.8,1.8-1.8c0,0,0,0,0,0h38.5c1,0,1.8,0.8,1.8,1.8v10.1c0,1-0.8,1.8-1.8,1.8l0,0h-25.8
			v11.6h21.2c1,0.1,1.7,0.8,1.8,1.8V259c0,1-0.8,1.8-1.8,1.8l0,0h-21.2v12.6h25.8c1,0,1.8,0.8,1.8,1.8v0v10.1c0,1-0.8,1.8-1.8,1.8
			l0,0h-38.5c-1,0-1.8-0.8-1.8-1.8v0L722.1,223.7z"/>
		<path class="st0" d="M773.2,280.8c-0.8-0.7-1-1.9-0.4-2.8l4.3-7.5c0.7-1,2-1.3,3-0.6c0,0,0.1,0.1,0.1,0.1
			c2.6,1.8,7.3,5.1,13.2,5.1c3.7,0,6.4-2.3,6.4-5.6c0-3.9-3.4-6.4-9.6-9.4c-9-4.4-18-9.4-18-20.6c0-9.2,7.2-18.5,21.5-18.5
			c9.7,0,17.1,4.9,19.9,7c1.1,0.7,0.9,2.3,0.6,3l-4.7,7.2c-0.9,1.3-2.7,1.6-4,0.7c0,0-0.1-0.1-0.1-0.1c-2.1-1.5-7.6-5-12.6-5
			c-3.9,0-5.7,2.4-5.7,5.1c0,3.1,3.6,5.5,10.1,8.6c8.2,4,18.8,8.6,18.8,21.2c0,9.6-8.3,19.3-22,19.3
			C782,287.9,775.3,282.9,773.2,280.8"/>
		<g class="st1">
			<path class="st0" d="M117,313.4c0.9-4.4,0.9-9,0-13.4h-15.5c0.9,2.2,1.3,4.5,1.3,6.8c0,2.3-0.4,4.5-1.3,6.6
				c-3.7,9.6-14.4,14.3-23.9,10.6c-4.9-1.9-8.8-5.8-10.6-10.6c-0.8-2.1-1.3-4.3-1.3-6.5c0-2.3,0.4-4.6,1.3-6.8H51.4
				c-0.9,4.4-0.9,9,0,13.4c3.6,18.1,21.3,29.8,39.4,26.2C104,337,114.4,326.7,117,313.4 M172.4,300.1h-15.7c-1.3,1.3-3,2.1-4.8,2
				h-9.4V300H128v37.5c0,1,0.8,1.8,1.8,1.8h0h11c1-0.1,1.7-0.8,1.8-1.8v-21.9h9.8c3.3,0,6.6-0.8,9.6-2.3
				C167.1,310.7,171,305.8,172.4,300.1 M291.9,313.4l-0.3-0.5c6.6-2.5,11.1-7.1,12.9-12.9h-15.9c-1.3,1.3-3,2-4.8,2h-13.8V300h-14.6
				v37.5c0,1,0.8,1.8,1.8,1.8c0,0,0,0,0,0h11.1c1,0,1.7-0.8,1.8-1.8v-23.7h6.4l6.5,13l5.8,11.6c0.3,0.5,0.9,0.8,1.5,0.8h12.4
				c1,0,1.8-0.7,1.8-1.7c0-0.4-0.1-0.7-0.3-1l-5.3-9.8L291.9,313.4z M341,337.5V300h-14.7v37.5c0.1,1,0.8,1.7,1.8,1.8h11.2
				C340.1,339.3,340.9,338.5,341,337.5 M413.6,326.8c1.9-3.5,2.9-7.4,2.9-11.3V300h-15v14.7c0,6.8-4.9,10.6-11.6,10.6
				c-6.7,0-11.4-3.8-11.4-10.6V300h-15v15.4c0,4,1,7.9,2.9,11.3c4.4,8.1,13.3,13.4,23.6,13.4C400.2,340.2,409.2,334.9,413.6,326.8
				 M515,337.5V300h-14.7v37.5c0.1,1,0.8,1.7,1.8,1.8h11.2C514.1,339.3,514.9,338.5,515,337.5 M623.9,317h-14.1l1.6-3.5l5.4-11.8
				h0.1l5.4,11.8L623.9,317z M648,336.9l-4.7-10l-6.2-13.4l-6.2-13.4h-28l-6.2,13.4l-6.2,13.4l-4.7,10c-0.4,0.8-0.1,1.8,0.7,2.2
				c0.3,0.2,0.6,0.2,0.9,0.2h10.3c1.5,0.1,2.8-0.8,3.3-2.2l3.4-7.5h25.3l3.3,7.3c0.8,1.8,1.6,2.3,3.3,2.3h10.3
				c0.9,0.1,1.7-0.6,1.8-1.5C648.3,337.4,648.2,337.1,648,336.9 M711,313.4c0.9-4.4,0.9-9,0-13.4h-15.7c0.7,2.1,1,4.4,1,6.6
				c0,2.3-0.3,4.6-1,6.8c-2.3,7.1-8.2,12.1-16.3,12.1h-9.8V300h-14.5v37.5c0,1,0.8,1.7,1.7,1.8h22.7
				C694.5,339.2,707.8,328.5,711,313.4 M816,321c0-2.6-0.5-5.2-1.6-7.5c-3.1-7-10.5-10.4-16.7-13.4h-23.5c3.2,5.7,9.6,9.2,16,12.3
				c0.8,0.4,1.5,0.7,2.2,1.1c4.7,2.5,7.4,4.9,7.4,8.3c0,2.3-1.5,4.4-3.7,5.1c-0.9,0.3-1.8,0.5-2.7,0.5c-1.3,0-2.5-0.2-3.7-0.5
				c-3.4-1-6.6-2.5-9.5-4.7c-1-0.7-2.3-0.5-3.1,0.4c0,0.1-0.1,0.1-0.1,0.2l-2.3,4.1l-2,3.4c-0.6,0.9-0.5,2.1,0.4,2.8
				c2.1,2.1,8.8,7.2,20.9,7.2c10.9,0,18.3-6.1,20.9-13.4C815.6,325,816,323,816,321"/>
		</g>
		<g class="st2">
			<path class="st0" d="M111,365.7c3-4,5-8.5,6-13.4h-15.5c-3.7,9.6-14.4,14.3-23.9,10.6c-4.9-1.9-8.8-5.8-10.6-10.6H51.4
				c3.7,18.1,21.4,29.8,39.5,26.1C99,376.8,106.1,372.2,111,365.7 M238.5,365.7c3-4,5-8.5,6-13.4H229c-3.7,9.6-14.4,14.3-23.9,10.6
				c-4.9-1.9-8.8-5.8-10.6-10.6h-15.5c3.7,18.1,21.3,29.8,39.5,26.2C226.5,376.8,233.7,372.3,238.5,365.7 M304.4,375.4l-5.3-9.8
				l-7.2-13.4h-36.4v24.1c0,1,0.8,1.8,1.8,1.8h0h11.1c1,0,1.7-0.8,1.8-1.8v-23.7h6.4l6.5,13l5.8,11.6c0.3,0.5,0.9,0.8,1.5,0.8h12.4
				c1,0,1.8-0.7,1.8-1.7C304.6,376.1,304.5,375.8,304.4,375.4 M341,376.4v-24.1h-14.7v24.1c0.1,1,0.8,1.7,1.8,1.8h11.2
				C340.1,378.1,340.9,377.3,341,376.4 M444.7,376.4v-24.1h-14.6v13.4v10.7c0.1,1,0.8,1.7,1.8,1.8h11.1
				C443.9,378.1,444.7,377.3,444.7,376.4L444.7,376.4 M486,377.4v-25.1h-30.6l13.3,13.4L481,378c0.6,0.7,1.4,1,2.3,1h0.9
				c0.9,0.1,1.7-0.6,1.8-1.5C486,377.5,486,377.4,486,377.4 M514.9,376.4v-24.1h-14.7v24.1c0.1,1,0.8,1.7,1.8,1.8h11.2
				C514.1,378.1,514.9,377.3,514.9,376.4 M711,352.3h-15.8c-2.3,7.1-8.2,12.1-16.3,12.1h-9.8v-12.1h-14.5v24.1
				c0,0.9,0.7,1.7,1.7,1.8h22.7C694.5,378.1,707.8,367.3,711,352.3"/>
		</g>
		<g class="st2">
			<path class="st0" d="M111,391.1H57.4c11.1,14.8,32.2,17.8,47,6.7C106.9,395.9,109.1,393.6,111,391.1 M142.5,401.8v-10.7H128v10.7
				c0,1,0.8,1.8,1.8,1.8h0h11C141.7,403.5,142.4,402.8,142.5,401.8 M238.6,391.1h-53.7c11.1,14.8,32.2,17.8,47,6.7
				C234.5,395.9,236.7,393.6,238.6,391.1 M341,401.8v-10.7h-14.7v10.7c0.1,1,0.8,1.7,1.8,1.8h11.2
				C340.1,403.5,340.9,402.8,341,401.8 M413.6,391.1h-47.3c4.4,8.1,13.3,13.4,23.6,13.4C400.2,404.5,409.2,399.2,413.6,391.1
				 M514.9,401.8v-10.7h-14.7v10.7c0.1,1,0.8,1.7,1.8,1.8h11.2C514.1,403.5,514.9,402.8,514.9,401.8 M578.9,391.1h-50v10.7
				c0,0.9,0.7,1.7,1.7,1.8h22.7C563.3,403.6,572.8,399,578.9,391.1 M648,401.2l-4.7-10h-53l-4.7,10c-0.4,0.8-0.1,1.8,0.7,2.2
				c0.3,0.1,0.6,0.2,0.9,0.2h10.3c1.5,0.1,2.8-0.8,3.3-2.2l3.4-7.5h25.3l3.3,7.3c0.8,1.8,1.6,2.3,3.3,2.3h10.3
				c0.9,0.1,1.7-0.6,1.8-1.5C648.3,401.7,648.2,401.4,648,401.2 M815,391.1h-18.9c-0.9,0.3-1.8,0.5-2.7,0.5c-1.3,0-2.5-0.2-3.7-0.5
				h-15l-2,3.4c-0.6,0.9-0.5,2.1,0.4,2.8c2.1,2.1,8.8,7.2,20.9,7.2C804.9,404.5,812.4,398.4,815,391.1"/>
		</g>
	</g>
</g>
</svg>
