<?xml version="1.0" encoding="utf-8"?>
<!-- Generator: Adobe Illustrator 26.0.3, SVG Export Plug-In . SVG Version: 6.00 Build 0)  -->
<svg version="1.1" id="Capa_1" xmlns="http://www.w3.org/2000/svg" xmlns:xlink="http://www.w3.org/1999/xlink" x="0px" y="0px"
	 viewBox="0 0 820 430" style="enable-background:new 0 0 820 430;" xml:space="preserve">
<style type="text/css">
	.st0{fill:#FFFFFF;}
	.st1{opacity:0.3;}
	.st2{opacity:0.2;}
	.st3{opacity:0.15;}
</style>
<g id="Layer_2">
	<g id="Layer_2-2">
		<path class="st0" d="M5.5,129.9c0-0.1,0.1-0.2,0.2-0.2c0,0,0,0,0,0h0.2c0.1,0,0.2,0.1,0.2,0.1l3,6.5l0,0l3-6.5
			c0-0.1,0.1-0.1,0.2-0.1h0.2c0.1,0,0.2,0.1,0.2,0.2c0,0,0,0,0,0l1.6,9.2c0,0.1,0,0.3-0.1,0.3c0,0-0.1,0-0.1,0h-1.2
			c-0.1,0-0.2-0.1-0.3-0.2l-0.8-5.2l0,0l-2.4,5.4c0,0.1-0.1,0.2-0.2,0.2H9c-0.1,0-0.2-0.1-0.2-0.2L6.4,134l0,0l-0.8,5.2
			c0,0.1-0.1,0.2-0.2,0.2H4.1c-0.1,0-0.3-0.1-0.3-0.2c0,0,0-0.1,0-0.1L5.5,129.9z"/>
		<path class="st0" d="M20.9,139.1l4.2-9.2c0-0.1,0.1-0.2,0.2-0.2h0.1c0.1,0,0.2,0.1,0.2,0.2l4.2,9.2c0.1,0.1,0,0.3-0.1,0.3
			c0,0-0.1,0-0.1,0h-1.2c-0.2,0-0.3-0.1-0.4-0.3l-0.7-1.5h-4l-0.7,1.5c-0.1,0.2-0.2,0.3-0.4,0.3h-1.2c-0.1,0-0.2-0.1-0.3-0.2
			C20.8,139.2,20.8,139.1,20.9,139.1z M23.9,128.2l2.3-1.5c0.2-0.2,0.6,0,0.7,0.3s0.2,0.7-0.1,0.8l-2.5,1.2
			c-0.2,0.1-0.3-0.1-0.4-0.3C23.7,128.6,23.8,128.3,23.9,128.2z M26.7,136.2l-1.3-3l0,0l-1.4,3H26.7z"/>
		<path class="st0" d="M36.4,138.5c-0.1-0.1-0.2-0.2-0.1-0.4l0.5-0.9c0.1-0.2,0.3-0.2,0.4-0.1c0,0,0,0,0,0c0.6,0.5,1.3,0.8,2,0.9
			c0.6,0.1,1.2-0.4,1.2-1.1c0,0,0,0,0,0c0-0.7-0.6-1.2-1.7-1.6c-1.1-0.5-2.5-1.3-2.5-3c0-1.2,0.9-2.6,3-2.6c1,0,1.9,0.3,2.7,0.9
			c0.1,0.1,0.2,0.3,0.1,0.4l-0.5,0.8c-0.1,0.2-0.3,0.3-0.5,0.2c-0.5-0.4-1.2-0.7-1.9-0.7c-0.8,0-1.2,0.4-1.2,1
			c0,0.5,0.5,1.1,1.6,1.5c1.3,0.5,2.8,1.3,2.8,3.1c-0.1,1.6-1.4,2.8-3,2.7c0,0-0.1,0-0.1,0C38.3,139.6,37.2,139.2,36.4,138.5z"/>
		<path class="st0" d="M57.5,139.1l4.2-9.2c0-0.1,0.1-0.2,0.2-0.2h0.1c0.1,0,0.2,0.1,0.2,0.2l4.2,9.2c0.1,0.1,0,0.3-0.1,0.3
			c0,0-0.1,0-0.1,0H65c-0.2,0-0.3-0.1-0.4-0.3l-0.7-1.5h-4.1l-0.7,1.5c-0.1,0.2-0.2,0.3-0.4,0.3h-1.2c-0.1,0-0.2-0.1-0.3-0.2
			C57.4,139.2,57.4,139.1,57.5,139.1z M63.3,136.2l-1.3-3l0,0l-1.4,3H63.3z"/>
		<path class="st0" d="M73.4,130.1c0-0.1,0.1-0.3,0.3-0.3h1.2c0.1,0,0.2,0.1,0.3,0.3v7.7h3.4c0.1,0,0.3,0.1,0.3,0.2c0,0,0,0,0,0v1.1
			c0,0.1-0.1,0.3-0.3,0.3h-4.9c-0.1,0-0.3-0.1-0.3-0.3V130.1z"/>
		<path class="st0" d="M86,130.1c0-0.1,0.1-0.3,0.3-0.3h1.2c0.1,0,0.2,0.1,0.3,0.3v7.7h3.4c0.1,0,0.3,0.1,0.3,0.2c0,0,0,0,0,0v1.1
			c0,0.1-0.1,0.3-0.3,0.3h-4.9c-0.1,0-0.3-0.1-0.3-0.3L86,130.1z"/>
		<path class="st0" d="M97.5,139.1l4.2-9.2c0-0.1,0.1-0.2,0.2-0.2h0.1c0.1,0,0.2,0.1,0.2,0.2l4.2,9.2c0.1,0.1,0,0.3-0.1,0.3
			c0,0-0.1,0-0.1,0H105c-0.2,0-0.3-0.1-0.4-0.3l-0.7-1.5h-4.1l-0.7,1.5c-0.1,0.2-0.2,0.3-0.4,0.3h-1.1c-0.1,0-0.3-0.1-0.3-0.2
			C97.4,139.2,97.5,139.1,97.5,139.1z M100.5,128.2l2.3-1.5c0.2-0.2,0.6,0,0.7,0.3c0.2,0.3,0.2,0.7-0.1,0.8l-2.5,1.2
			c-0.2,0.1-0.3-0.1-0.4-0.3C100.3,128.6,100.4,128.3,100.5,128.2z M103.3,136.2l-1.3-3l0,0l-1.3,3H103.3z"/>
		<path class="st0" d="M122.1,130.1c0-0.1,0.1-0.3,0.2-0.3h3.2c2.6-0.1,4.8,1.9,4.9,4.6c0.1,2.7-1.9,4.9-4.5,5c-0.1,0-0.3,0-0.4,0
			h-3.2c-0.1,0-0.2-0.1-0.2-0.3V130.1z M125.3,137.8c1.7-0.1,3-1.6,2.9-3.3c-0.1-1.6-1.3-2.9-2.9-3h-1.5v6.3H125.3z"/>
		<path class="st0" d="M137.8,130.1c0-0.1,0.1-0.3,0.3-0.3h5.5c0.1,0,0.3,0.1,0.3,0.3v1.1c0,0.1-0.1,0.3-0.3,0.3c0,0,0,0,0,0h-4.1
			v2.3h3.4c0.1,0,0.2,0.1,0.3,0.3v1.1c0,0.1-0.1,0.3-0.2,0.3c0,0,0,0,0,0h-3.4v2.4h4c0.1,0,0.3,0.1,0.3,0.2c0,0,0,0,0,0v1.1
			c0,0.1-0.1,0.3-0.3,0.3H138c-0.1,0-0.3-0.1-0.3-0.3L137.8,130.1z"/>
		<path class="st0" d="M151.3,130.1c0-0.1,0.1-0.3,0.3-0.3h1.2c0.1,0,0.2,0.1,0.3,0.3v7.7h3.4c0.1,0,0.3,0.1,0.3,0.2c0,0,0,0,0,0
			v1.1c0,0.1-0.1,0.3-0.3,0.3h-4.9c-0.1,0-0.3-0.1-0.3-0.3V130.1z"/>
		<path class="st0" d="M5.8,240.4c0-0.1,0.1-0.3,0.3-0.3h5.5c0.1,0,0.3,0.1,0.3,0.3c0,0,0,0,0,0v1.1c0,0.1-0.1,0.3-0.2,0.3
			c0,0,0,0,0,0h-4v2.3h3.3c0.1,0,0.3,0.1,0.3,0.3v1.1c0,0.1-0.1,0.3-0.3,0.3H7.5v2.4h4c0.1,0,0.2,0.1,0.3,0.2c0,0,0,0,0,0v1.1
			c0,0.1-0.1,0.3-0.2,0.3c0,0,0,0,0,0H6c-0.1,0-0.3-0.1-0.3-0.3V240.4z"/>
		<path class="st0" d="M18.8,248.8c-0.1-0.1-0.2-0.2-0.1-0.4l0.5-0.9c0.1-0.2,0.3-0.2,0.4-0.1c0,0,0,0,0,0c0.6,0.5,1.3,0.8,2,0.9
			c0.6,0.1,1.2-0.4,1.2-1c0,0,0,0,0,0c0-0.7-0.6-1.2-1.7-1.6c-1.1-0.5-2.5-1.3-2.5-3c0-1.2,0.9-2.6,3-2.6c1,0,1.9,0.3,2.7,0.9
			c0.1,0.1,0.2,0.3,0.1,0.4l-0.5,0.8c-0.1,0.2-0.3,0.2-0.5,0.2c-0.5-0.4-1.2-0.7-1.9-0.8c-0.8,0-1.2,0.4-1.2,1
			c0,0.5,0.5,1.1,1.6,1.5c1.3,0.5,2.8,1.3,2.8,3.1c-0.1,1.6-1.4,2.8-3,2.7c0,0-0.1,0-0.1,0C20.7,249.9,19.6,249.5,18.8,248.8z"/>
		<path class="st0" d="M60.5,253.2h6.7c1,0,2,0.2,2.9,0.6c1.9,0.9,3,2.8,2.9,4.9c0,3.7-2.2,5.6-6,5.6h-6.5V253.2L60.5,253.2z
			 M60.5,232h6.4c2.9,0,5,2.2,5,5.3c0.1,2.1-1.1,4.1-2.9,5.1c-0.6,0.3-1.3,0.5-2.1,0.5h-6.4V232z M75.7,247.7L75.7,247.7
			c2.6-1.1,4.8-2.9,6.4-5.2c1.5-2.1,2.3-4.6,2.3-7.2c0-1.4-0.2-2.8-0.7-4.1c-2-6.1-8.4-10.5-15.9-10.5H50c-0.8,0-1.5,0.7-1.5,1.5
			V274c0,0.8,0.7,1.5,1.5,1.5H69c7.5,0,14-4,16-10.5c0.5-1.5,0.7-3,0.7-4.6c0-2.3-0.6-4.7-1.8-6.6C82,250.6,78.7,248.7,75.7,247.7"
			/>
		<path class="st0" d="M105.7,220.8h-9.2c-0.8,0-1.4,0.7-1.5,1.5V274c0,0.8,0.7,1.5,1.5,1.5h9.2c0.8,0,1.4-0.7,1.5-1.5v-51.8
			C107.1,221.5,106.5,220.8,105.7,220.8"/>
		<path class="st0" d="M151.9,220.8h-31.8c-0.8,0-1.5,0.7-1.5,1.5V274c0,0.8,0.6,1.5,1.4,1.5c0,0,0,0,0,0h31.8
			c0.8,0,1.5-0.7,1.5-1.5c0,0,0,0,0,0v-8.5c0-0.2,0-0.3-0.1-0.5c-0.2-0.6-0.7-1-1.4-1h-21.3v-10.6h17.5c0.8,0,1.5-0.7,1.5-1.5v-8.5
			c0-0.3-0.1-0.7-0.4-0.9c-0.3-0.3-0.7-0.5-1.1-0.5h-17.5v-9.7h21.3c0.6,0,1.2-0.4,1.4-1c0.1-0.1,0.1-0.3,0.1-0.5v-8.5
			C153.4,221.5,152.8,220.8,151.9,220.8"/>
		<path class="st0" d="M207.8,220.8h-9.2c-0.8,0-1.5,0.7-1.5,1.5c0,0,0,0,0,0V250H197l-7.7-7.5l-11.5-11.2l-10.3-10.1
			c-0.5-0.6-1.2-1.1-1.9-1.2h-1.2c-0.8,0-1.4,0.6-1.5,1.4v9.9v11.3v11.3v11.3v9c0,0.8,0.7,1.5,1.5,1.5h9.2c0.8,0,1.5-0.7,1.5-1.5
			c0,0,0,0,0,0v-29.1h0.1l8.7,8.9l11,11.3l10.2,10.4c0.5,0.6,1.2,0.9,1.9,0.9h0.8c0.7,0.1,1.4-0.5,1.5-1.3c0,0,0-0.1,0-0.1v-52.6
			C209.2,221.5,208.6,220.9,207.8,220.8"/>
		<path class="st0" d="M254.2,220.8h-31.8c-0.8,0-1.5,0.7-1.5,1.5c0,0,0,0,0,0V274c0,0.8,0.6,1.5,1.4,1.5c0,0,0,0,0,0h31.8
			c0.8,0,1.5-0.7,1.5-1.5c0,0,0,0,0,0v-8.5c0-0.2,0-0.3-0.1-0.5c-0.2-0.6-0.7-1-1.4-1h-21.3v-10.6h17.5c0.8,0,1.5-0.7,1.5-1.5l0,0
			v-8.5c0-0.3-0.1-0.7-0.4-0.9c-0.3-0.3-0.7-0.5-1.1-0.5h-17.5v-9.7h21.3c0.6,0,1.2-0.4,1.4-1c0.1-0.1,0.1-0.3,0.1-0.5v-8.5
			C255.6,221.5,255,220.8,254.2,220.8C254.2,220.8,254.2,220.8,254.2,220.8"/>
		<path class="st0" d="M283.4,242.5l-0.5-0.2c-5.4-2.7-8.4-4.7-8.4-7.3c0-1.6,0.8-3,2.2-3.7c0.8-0.4,1.6-0.6,2.5-0.5
			c1.1,0,2.2,0.2,3.3,0.5c2.5,0.9,4.9,2.1,7.1,3.7c1.1,0.8,2.5,0.6,3.3-0.5c0,0,0,0,0-0.1l2-3.1l1.9-2.9c0.3-0.5,0.5-2-0.5-2.5
			c-2.3-1.7-8.4-5.9-16.5-5.9c-9.6,0-15.3,5.1-17.1,11.3c-0.4,1.4-0.6,2.8-0.6,4.3c0,2.4,0.5,4.8,1.7,7c2.6,4.8,7.9,7.7,13.2,10.3
			c0.6,0.3,1.2,0.6,1.8,0.9c3.9,2.1,6.1,4.1,6.1,7c0,2-1.2,3.7-3.1,4.3h-5.3c-2.8-0.8-5.5-2.1-7.8-3.9c-0.8-0.6-1.9-0.5-2.5,0.4
			c0,0-0.1,0.1-0.1,0.1l-1.9,3.4l-1.6,2.9c-0.5,0.7-0.4,1.8,0.3,2.3c1.8,1.8,7.3,6,17.3,6c9,0,15.1-5.1,17.3-11.3
			c0.6-1.6,0.8-3.2,0.8-4.9c0-2.2-0.4-4.3-1.3-6.3C294.5,247.9,288.5,245,283.4,242.5"/>
		<path class="st0" d="M339.5,231.3c0.1-0.2,0.1-0.3,0.1-0.5v-8.5c0-0.8-0.7-1.5-1.5-1.5c0,0,0,0,0,0h-34.1c-0.8,0-1.5,0.7-1.5,1.5
			l0,0v8.5c0,0.2,0,0.3,0.1,0.5c0.2,0.6,0.7,1,1.4,1h11v41.7c0,0.8,0.7,1.5,1.5,1.5h9.2c0.8,0,1.4-0.7,1.5-1.5v-41.8h11
			C338.7,232.3,339.3,231.9,339.5,231.3"/>
		<path class="st0" d="M362.3,243.9L362.3,243.9l4.6,9.9l1.3,3h-11.7l1.3-3L362.3,243.9z M384.2,265l-5.1-11.3l-5.1-11.3l-5.1-11.2
			l-4.8-10.4c-0.3-0.5-0.8-0.8-1.3-0.9h-0.8c-0.6,0-1.1,0.4-1.3,0.9l-4.8,10.4l-5.1,11.3l-5.1,11.3l-5.1,11.3l-3.8,8.4
			c-0.4,0.7-0.1,1.5,0.5,1.9c0.2,0.1,0.5,0.2,0.8,0.2h8.4c1.2,0,2.3-0.7,2.8-1.9l2.8-6.3h21l2.8,6.2c0.7,1.5,1.3,2,2.7,2h8.5
			c0.7,0.1,1.4-0.5,1.5-1.3c0-0.3,0-0.5-0.2-0.8L384.2,265z"/>
		<path class="st0" d="M405.6,232H417c3.1-0.1,5.7,2.4,5.8,5.6c0,0.1,0,0.3,0,0.4c0,1.7-0.6,3.4-1.9,4.6c-1.1,1-2.5,1.6-4,1.6h-11.4
			V232z M434,242.5c0.5-1.6,0.7-3.2,0.7-4.9c0-2.2-0.4-4.4-1.2-6.4c-2.5-6.5-8.7-10.6-15.6-10.5H395c-0.8,0-1.5,0.7-1.5,1.5l0,0
			v51.8c0,0.8,0.7,1.5,1.5,1.5h9.1c0.8,0,1.4-0.7,1.5-1.5v-20h5.3l5.4,10.9l4.8,9.8c0.3,0.4,0.7,0.7,1.2,0.7h10.2
			c0.8,0,1.5-0.6,1.5-1.4c0-0.3-0.1-0.6-0.2-0.9l-4.4-8.2l-6-11.3l-0.2-0.4C428.8,251.3,432.5,247.4,434,242.5"/>
		<path class="st0" d="M504.1,220.8h-10c-0.5,0-1,0.3-1.2,0.7l-6.5,9.8l-4.2,6.3l-4.2-6.3l-6.5-9.8c-0.3-0.4-0.7-0.7-1.2-0.7h-9.9
			c-0.8,0-1.4,0.6-1.5,1.4c0,0.3,0.1,0.6,0.2,0.9l5.3,8.2l7.3,11.3l4.3,6.6V274c0,0.8,0.6,1.5,1.4,1.5c0,0,0,0,0,0h9.1
			c0.8,0,1.4-0.7,1.5-1.5v-24.9l4.3-6.6l7.4-11.3l5.4-8.2c0.4-0.7,0.3-1.6-0.4-2C504.7,220.9,504.4,220.8,504.1,220.8"/>
		<path class="st0" d="M711.8,220.8H680c-0.8,0-1.5,0.7-1.5,1.5V274c0,0.8,0.6,1.5,1.4,1.5c0,0,0,0,0,0h31.8c0.8,0,1.5-0.7,1.5-1.5
			c0,0,0,0,0,0v-8.5c0-0.8-0.7-1.5-1.5-1.5h-21.3v-10.6H708c0.8,0,1.5-0.7,1.5-1.5v-8.5c-0.1-0.8-0.7-1.4-1.5-1.5h-17.5v-9.7h21.3
			c0.6,0,1.2-0.4,1.4-1c0.1-0.1,0.1-0.3,0.1-0.5v-8.5C713.2,221.5,712.6,220.8,711.8,220.8"/>
		<path class="st0" d="M603,231.8c3.8-0.1,7.5,1.4,10.4,4c0.5,0.5,1.4,0.6,1.9,0c0,0,0,0,0,0l4.3-4.5l1.7-1.8c0.6-0.5,0.6-1.5,0.1-2
			c0,0-0.1-0.1-0.1-0.1c-5-4.9-11.7-7.5-18.6-7.3c-13.2,0-24.5,9.4-27.2,22.5c-0.4,1.9-0.6,3.8-0.6,5.7c0,1.9,0.2,3.7,0.5,5.6
			c0.8,4.1,2.5,7.9,5,11.3c5.2,7.1,13.5,11.3,22.2,11.3c7,0.1,13.7-2.7,18.7-7.6c0.6-0.6,0.6-1.5,0.1-2.1L620,265l-4.5-4.9
			c-0.6-0.5-1.4-0.6-2-0.1c-2.9,2.5-6.5,3.9-10.3,3.8c-6.3,0-11.9-4-14.1-10c-0.7-1.9-1.1-3.9-1.1-5.9c0-1.8,0.3-3.7,0.8-5.4
			C590.7,236.2,596.5,231.8,603,231.8"/>
		<path class="st0" d="M652.6,231.8c3.8-0.1,7.5,1.4,10.4,4c0.5,0.5,1.4,0.6,1.9,0c0,0,0,0,0,0l4.3-4.5l1.7-1.8
			c0.6-0.5,0.6-1.5,0.1-2c0,0-0.1-0.1-0.1-0.1c-5-4.9-11.7-7.5-18.6-7.3c-13.2,0-24.5,9.4-27.2,22.5c-0.7,3.7-0.7,7.5,0,11.3
			c0.8,4.1,2.5,7.9,5,11.3c5.2,7.1,13.5,11.3,22.2,11.3c7,0.1,13.7-2.6,18.7-7.6c0.6-0.6,0.6-1.5,0.1-2.1l-1.4-1.6l-4.5-4.9
			c-0.6-0.5-1.4-0.6-2-0.1c-6.5,5.6-16.2,4.9-21.7-1.7c-1.1-1.4-2-2.9-2.7-4.6c-0.7-1.9-1.1-3.9-1.1-5.9c0-1.8,0.3-3.7,0.8-5.4
			C640.2,236.2,646,231.8,652.6,231.8"/>
		<path class="st0" d="M741,242.5l-0.5-0.2c-5.4-2.7-8.4-4.7-8.4-7.3c-0.1-1.6,0.8-3.1,2.2-3.8c0.8-0.4,1.6-0.6,2.5-0.5
			c1.1,0,2.2,0.2,3.2,0.6c2.5,0.9,4.9,2.1,7.1,3.7c1.1,0.8,2.6,0.6,3.3-0.5c0,0,0,0,0,0l2.1-3.1l1.9-2.9c0.3-0.5,0.5-2-0.5-2.5
			c-2.3-1.7-8.4-5.9-16.4-5.9c-9.6,0-15.3,5.1-17.1,11.3c-0.4,1.4-0.6,2.8-0.6,4.3c0,2.4,0.5,4.8,1.7,7c2.6,4.8,7.9,7.7,13.2,10.3
			c0.6,0.3,1.3,0.6,1.8,0.9c3.9,2.1,6.1,4.1,6.1,7c0,2-1.2,3.7-3.1,4.3c-0.7,0.3-1.5,0.4-2.2,0.4c-1,0-2.1-0.1-3.1-0.4
			c-2.8-0.8-5.5-2.1-7.8-3.9c-0.8-0.6-1.9-0.5-2.5,0.3c0,0-0.1,0.1-0.1,0.1l-1.9,3.4l-1.6,2.9c-0.5,0.7-0.4,1.8,0.3,2.3
			c1.8,1.8,7.3,6,17.3,6c9,0,15.1-5.1,17.3-11.3c0.6-1.6,0.8-3.2,0.8-4.9c0-2.2-0.4-4.3-1.3-6.3C752.2,247.9,746.1,245,741,242.5"/>
		<path class="st0" d="M788.5,263.8c-6.3,0-12-4-14.3-10c-0.7-1.8-1-3.7-1-5.6c-0.1-8.6,6.7-15.6,15.2-15.7
			c6.4-0.1,12.1,3.9,14.4,10c1.4,3.6,1.4,7.6,0,11.3C800.5,259.8,794.8,263.8,788.5,263.8 M815.5,242.5c-3-15.2-17.6-25-32.5-22
			c-10.9,2.2-19.4,10.9-21.6,22c-0.4,1.9-0.6,3.8-0.6,5.7c0,1.9,0.2,3.7,0.5,5.6c3,15.2,17.6,25.1,32.6,22
			c10.9-2.2,19.4-10.9,21.6-22c0.4-1.8,0.5-3.7,0.5-5.6C816.1,246.3,815.9,244.4,815.5,242.5"/>
		<path class="st0" d="M549.4,243.9L549.4,243.9l4.6,9.9l1.3,3h-11.7l1.3-3L549.4,243.9z M571.3,265l-5.1-11.3l-5.1-11.3l-5.1-11.2
			l-4.8-10.4c-0.3-0.5-0.8-0.8-1.3-0.9h-0.8c-0.6,0-1.1,0.4-1.3,0.9l-4.8,10.4l-5.1,11.3l-5.1,11.3l-5.1,11.3l-3.9,8.5
			c-0.4,0.7-0.1,1.5,0.5,1.9c0.2,0.1,0.5,0.2,0.8,0.2h8.4c1.2,0,2.3-0.7,2.8-1.9l2.8-6.3h20.9l2.8,6.2c0.7,1.5,1.3,2,2.7,2h8.5
			c0.7,0.1,1.4-0.5,1.5-1.3c0-0.3,0-0.5-0.2-0.8L571.3,265z"/>
		<g class="st1">
			<path class="st0" d="M810.7,308.4h-44.3c9.2,12.5,26.6,15,38.8,5.6C807.2,312.4,809.1,310.5,810.7,308.4 M175.1,308.4h-12.1v9
				c0,0.8,0.7,1.5,1.5,1.5h9.2c0.8,0,1.5-0.7,1.5-1.5c0,0,0,0,0,0L175.1,308.4z M73,302c0,3.7-2.2,5.6-6,5.6h-6.5v-11.1h6.7
				c1,0,2,0.2,2.9,0.6C71.9,298,73.1,300,73,302 M85.1,308.4c0.5-1.5,0.7-3,0.7-4.6c0-2.3-0.6-4.6-1.8-6.6c-2-3.2-5.3-5.1-8.3-6.1
				V291c2.6-1.1,4.8-2.8,6.4-5.1H68.9c-0.6,0.3-1.3,0.5-2.1,0.5h-6.4v-0.5h-12v31.5c0,0.8,0.6,1.5,1.4,1.5c0,0,0,0,0,0H69
				C76.5,318.9,83,314.9,85.1,308.4 M153.4,317.4v-8.5c0-0.2,0-0.3-0.1-0.5c-0.2-0.6-0.7-1-1.4-1h-21.3v-10.6h17.5
				c0.8,0,1.5-0.7,1.5-1.5l0,0v-8.5c0-0.3-0.1-0.7-0.4-0.9h-30.6v31.5c0,0.8,0.6,1.5,1.4,1.5c0,0,0,0,0,0h31.8
				C152.8,318.8,153.4,318.2,153.4,317.4C153.4,317.4,153.4,317.4,153.4,317.4 M209.3,318.2v-32.4h-12.1v7.5H197l-7.7-7.5h-26.3
				v11.3h12.1v-8.9h0.1l8.7,8.9l11,11.3l10.2,10.4c0.5,0.6,1.2,0.9,1.9,0.9h0.8c0.7,0.1,1.4-0.5,1.5-1.3
				C209.3,318.3,209.3,318.3,209.3,318.2 M297.6,308.4c0.6-1.6,0.8-3.2,0.8-4.9c0-2.2-0.4-4.3-1.3-6.3c-2.6-5.9-8.7-8.7-13.8-11.3
				H264c2.6,4.8,7.9,7.7,13.2,10.3c0.6,0.3,1.2,0.6,1.8,0.9c3.9,2.1,6.1,4.1,6.1,7c0,2-1.2,3.7-3.1,4.3h-5.3
				c-2.8-0.8-5.5-2.1-7.8-3.9c-0.8-0.6-1.9-0.5-2.5,0.3c0,0-0.1,0.1-0.1,0.1l-1.9,3.4l-1.6,2.9c-0.5,0.7-0.4,1.8,0.3,2.3
				c1.8,1.8,7.3,6,17.3,6C289.3,319.6,295.4,314.4,297.6,308.4 M327.2,317.3v-20.2H315v20.2c0,0.8,0.7,1.5,1.5,1.5h9.2
				C326.5,318.8,327.2,318.2,327.2,317.3 M368.2,300.1h-11.7l1.3-3l4.4-9.9h0.1l4.5,9.9L368.2,300.1z M388.1,316.8l-3.9-8.5
				l-5.1-11.3l-5.1-11.3h-23.2l-5.1,11.3l-5.1,11.3l-3.8,8.5c-0.4,0.7-0.1,1.5,0.5,1.9c0.2,0.1,0.5,0.2,0.8,0.2h8.4
				c1.2,0,2.3-0.7,2.8-1.9l2.8-6.3h21l2.8,6.2c0.7,1.5,1.3,2,2.7,2h8.5c0.7,0.1,1.4-0.5,1.5-1.3C388.3,317.3,388.2,317,388.1,316.8
				 M488.2,292.4l4.3-6.6h-20.8l4.3,6.6v24.9c0,0.8,0.6,1.5,1.4,1.5c0,0,0,0,0,0h9.1c0.8,0,1.4-0.7,1.5-1.5L488.2,292.4L488.2,292.4
				z M543.6,300.1l1.3-3l4.4-9.9h0.1l4.5,9.9l1.3,3L543.6,300.1z M527.6,308.4h43.8l-5.1-11.3l-5.1-11.3h-23.3l-5.1,11.3
				L527.6,308.4z M589.1,297.1c-0.7-1.9-1.1-3.9-1.1-5.9c0-1.8,0.3-3.7,0.8-5.4h-13.4c-0.4,1.9-0.6,3.8-0.6,5.7
				c0,1.9,0.2,3.7,0.5,5.6L589.1,297.1z M621.3,312c0.6-0.6,0.6-1.5,0.1-2.1l-1.4-1.6h-39.6c5.2,7.1,13.5,11.3,22.2,11.3
				C609.6,319.7,616.3,317,621.3,312 M670.9,312c0.6-0.6,0.6-1.5,0.1-2.1l-1.4-1.6l-4.5-4.9c-0.6-0.5-1.4-0.6-2-0.1
				c-6.5,5.6-16.2,4.9-21.7-1.7c-1.1-1.4-2-2.9-2.7-4.6H625c0.8,4.1,2.5,7.9,5,11.3c5.2,7.1,13.5,11.3,22.2,11.3
				C659.1,319.7,665.8,317,670.9,312 M713.2,317.3v-8.5c0-0.8-0.7-1.5-1.5-1.5h-21.3v-10.2h-12v20.2c0,0.8,0.6,1.5,1.4,1.5
				c0,0,0,0,0,0h31.8C712.6,318.8,713.2,318.2,713.2,317.3C713.2,317.4,713.2,317.4,713.2,317.3 M755.2,308.4
				c0.6-1.6,0.8-3.2,0.8-4.9c0-2.2-0.4-4.3-1.3-6.3c-2.6-5.9-8.7-8.7-13.8-11.3h-19.4c2.6,4.8,7.9,7.7,13.2,10.3
				c0.6,0.3,1.3,0.6,1.8,0.9c3.9,2.1,6.1,4.1,6.1,7c0,2-1.2,3.7-3.1,4.3c-0.7,0.3-1.5,0.4-2.2,0.4c-1,0-2.1-0.1-3.1-0.4
				c-2.8-0.8-5.5-2.1-7.8-3.9c-0.8-0.6-1.9-0.5-2.5,0.3c0,0-0.1,0.1-0.1,0.1l-1.9,3.4l-1.6,2.9c-0.5,0.7-0.4,1.8,0.3,2.3
				c1.8,1.8,7.3,6,17.3,6C746.9,319.6,753,314.4,755.2,308.4 M773.2,291.5c0-2,0.4-3.9,1.1-5.7h-12.8c-0.4,1.9-0.6,3.8-0.6,5.7
				c0,1.9,0.2,3.7,0.5,5.6h12.8C773.5,295.3,773.2,293.4,773.2,291.5 M816.1,291.5c0-1.9-0.2-3.8-0.6-5.7h-12.8
				c1.4,3.6,1.4,7.6,0,11.3h12.8C815.9,295.2,816.1,293.3,816.1,291.5"/>
		</g>
		<g class="st2">
			<path class="st0" d="M85.1,340.9c0.5-1.5,0.7-3.1,0.7-4.6c0-2.3-0.6-4.6-1.8-6.6H70.1c1.9,0.9,3,2.8,2.9,4.9c0,3.7-2.2,5.6-6,5.6
				h-6.5v-10.6h-12v20.3c0,0.8,0.7,1.5,1.5,1.5c0,0,0,0,0,0H69C76.5,351.4,83,347.4,85.1,340.9 M107.2,349.9v-20.3H95v20.3
				c0,0.8,0.7,1.5,1.5,1.5h9.2C106.5,351.3,107.1,350.7,107.2,349.9 M153.4,349.9v-8.5c0-0.2,0-0.3-0.1-0.5h-34.6v9
				c0,0.8,0.7,1.5,1.5,1.5l0,0h31.8C152.8,351.4,153.4,350.7,153.4,349.9L153.4,349.9 M255.6,349.9v-8.5c0-0.2,0-0.3-0.1-0.5
				c-0.2-0.6-0.7-1-1.4-1h-21.3v-10.2h-12v20.3c0,0.8,0.7,1.5,1.5,1.5c0,0,0,0,0,0h31.8C255,351.4,255.6,350.7,255.6,349.9
				C255.6,349.9,255.6,349.9,255.6,349.9 M327.2,349.9v-20.3h-12.1v20.3c0,0.8,0.7,1.5,1.5,1.5h9.2
				C326.5,351.3,327.2,350.7,327.2,349.9 M433.9,349.1l-4.4-8.2l-6-11.3h-30v20.3c0,0.8,0.7,1.5,1.5,1.5c0,0,0,0,0,0h9.1
				c0.8,0,1.4-0.7,1.5-1.5V330h5.3l5.4,10.9l4.8,9.8c0.3,0.4,0.7,0.7,1.2,0.7h10.2c0.8,0,1.5-0.6,1.5-1.4
				C434.1,349.7,434,349.4,433.9,349.1 M488.1,349.9v-20.3h-12.1v20.3c0,0.8,0.7,1.5,1.5,1.5c0,0,0,0,0,0h9.1
				C487.5,351.3,488.1,350.7,488.1,349.9 M575.2,349.3l-3.9-8.4l-5.1-11.3h-12.2l1.3,3h-11.7l1.3-3h-12.2l-5.1,11.3l-3.9,8.4
				c-0.4,0.7-0.1,1.5,0.5,1.9c0.2,0.1,0.5,0.2,0.8,0.2h8.4c1.2,0,2.3-0.7,2.8-1.9l2.8-6.3h20.9l2.8,6.2c0.7,1.5,1.3,2,2.7,2h8.5
				c0.7,0.1,1.4-0.5,1.5-1.3C575.3,349.8,575.3,349.6,575.2,349.3 M621.3,344.6c0.6-0.6,0.6-1.5,0.1-2.1l-1.4-1.6l-4.5-4.9
				c-0.6-0.5-1.4-0.6-2-0.1c-2.9,2.5-6.5,3.9-10.3,3.8c-6.3,0-11.9-4-14.1-10h-13.6c0.8,4.1,2.5,7.9,5,11.3
				c5.3,7.1,13.5,11.3,22.2,11.2C609.6,352.2,616.3,349.5,621.3,344.6 M670.9,344.6c0.6-0.6,0.6-1.5,0.1-2.1l-1.4-1.6l-4.5-4.9
				c-0.6-0.5-1.4-0.6-2-0.1c-6.5,5.6-16.2,4.9-21.7-1.7c-1.1-1.4-2.1-2.9-2.7-4.6H625c0.8,4.1,2.5,7.9,5,11.3
				c5.3,7.1,13.5,11.3,22.2,11.2C659.1,352.2,665.9,349.5,670.9,344.6 M713.2,349.9v-8.5c0-0.2,0-0.3-0.1-0.5c-0.2-0.6-0.7-1-1.4-1
				h-21.3v-10.2h-12v20.3c0,0.8,0.7,1.5,1.5,1.5h31.8C712.6,351.4,713.2,350.7,713.2,349.9 M755.2,340.9h-15.6
				c-0.7,0.3-1.5,0.4-2.2,0.4c-1,0-2.1-0.1-3.1-0.4c-2.8-0.8-5.5-2.1-7.8-3.9c-0.8-0.6-1.9-0.5-2.5,0.4c0,0-0.1,0.1-0.1,0.1
				l-1.9,3.4l-1.6,2.9c-0.5,0.7-0.4,1.8,0.3,2.3c1.8,1.8,7.3,6,17.3,6C746.9,352.1,753,347,755.2,340.9 M815.6,329.6h-12.8
				c-3,8-11.9,12.1-19.7,9c-4.1-1.6-7.3-4.8-8.8-9h-12.8c3,15.2,17.6,25.1,32.6,22C804.9,349.4,813.4,340.7,815.6,329.6"/>
		</g>
		<g class="st3">
			<path class="st0" d="M107.2,370.4v-9H95v9c0,0.8,0.7,1.5,1.5,1.5h9.2C106.5,371.8,107.1,371.2,107.2,370.4 M153.4,370.4v-8.5
				c0-0.2,0-0.3-0.1-0.5h-34.6v9c0,0.8,0.7,1.4,1.4,1.5h31.8C152.7,371.8,153.4,371.2,153.4,370.4
				C153.4,370.4,153.4,370.4,153.4,370.4 M255.6,370.4v-8.5c0-0.2,0-0.3-0.1-0.5h-34.6v9c0,0.8,0.6,1.5,1.4,1.5c0,0,0,0,0,0h31.8
				C255,371.9,255.6,371.2,255.6,370.4C255.6,370.4,255.6,370.4,255.6,370.4 M297.6,361.4H282c-0.7,0.3-1.5,0.4-2.2,0.4
				c-1,0-2.1-0.1-3.1-0.4h-12.4l-1.6,2.9c-0.5,0.7-0.4,1.8,0.3,2.3c1.8,1.8,7.3,6,17.3,6C289.3,372.6,295.4,367.5,297.6,361.4
				 M327.2,370.4v-9h-12.1v9c0,0.8,0.7,1.5,1.5,1.5h9.2C326.5,371.8,327.2,371.2,327.2,370.4 M488.1,370.4v-9h-12.1v9
				c0,0.8,0.6,1.5,1.4,1.5c0,0,0,0,0,0h9.1C487.5,371.8,488.1,371.2,488.1,370.4 M575.2,369.8l-3.9-8.5h-43.8l-3.9,8.5
				c-0.4,0.7-0.1,1.5,0.5,1.9c0.2,0.1,0.5,0.2,0.8,0.2h8.4c1.2,0,2.3-0.7,2.8-1.9l2.8-6.3h20.9l2.8,6.2c0.7,1.5,1.3,2,2.7,2h8.5
				c0.7,0.1,1.4-0.5,1.5-1.3C575.3,370.3,575.3,370.1,575.2,369.8 M621.3,365.1c0.6-0.6,0.6-1.5,0.1-2.1l-1.4-1.6h-39.6
				c5.2,7.1,13.5,11.3,22.2,11.3C609.6,372.8,616.3,370,621.3,365.1 M670.9,365.1c0.6-0.6,0.6-1.5,0.1-2.1l-1.4-1.6h-39.6
				c5.2,7.1,13.5,11.3,22.2,11.3C659.1,372.8,665.8,370.1,670.9,365.1 M713.2,370.4v-8.5c0-0.2,0-0.3-0.1-0.5h-34.6v8.9
				c0,0.8,0.6,1.5,1.4,1.5c0,0,0,0,0,0h31.8C712.6,371.9,713.2,371.2,713.2,370.4C713.2,370.4,713.2,370.4,713.2,370.4 M755.2,361.4
				h-15.6c-0.7,0.3-1.5,0.4-2.2,0.4c-1,0-2.1-0.1-3.1-0.4H722l-1.6,2.9c-0.5,0.7-0.4,1.8,0.3,2.3c1.8,1.8,7.3,6,17.3,6
				C746.9,372.6,753,367.5,755.2,361.4 M810.7,361.4h-44.3c9.2,12.5,26.6,15,38.8,5.6C807.2,365.4,809.1,363.5,810.7,361.4"/>
		</g>
		<path class="st0" d="M80.2,191.7H68.6l1.3-3l4.4-9.9h0.1l4.5,9.9L80.2,191.7z M100.2,208.4l-3.9-8.4l-5.1-11.3L86,177.4l-5.1-11.3
			l-4.8-10.4c-0.3-0.5-0.8-0.8-1.3-0.9H74c-0.6,0-1.1,0.4-1.3,0.9L68,166.1l-5.1,11.3l-5.2,11.3L52.5,200l-3.9,8.4
			c-0.4,0.7-0.1,1.5,0.5,1.9c0.2,0.1,0.5,0.2,0.8,0.2h8.4c1.2,0,2.3-0.7,2.8-1.9l2.8-6.3h20.9l2.8,6.2c0.7,1.5,1.3,2,2.7,2h8.5
			c0.7,0.1,1.4-0.5,1.5-1.3C100.3,208.9,100.3,208.6,100.2,208.4 M151.7,208.9v-51.8c0-0.8-0.7-1.5-1.5-1.5h-9.1
			c-0.8,0-1.5,0.7-1.5,1.5c0,0,0,0,0,0v19.7h-22v-19.7c0-0.8-0.7-1.5-1.5-1.5H107c-0.8,0-1.4,0.7-1.5,1.5v51.8
			c0,0.8,0.7,1.5,1.5,1.5h9.1c0.8,0,1.5-0.7,1.5-1.5v-20.6h22v20.6c0,0.8,0.7,1.5,1.5,1.5c0,0,0,0,0,0h9.1
			C151,210.4,151.7,209.8,151.7,208.9 M203.1,183.1c0,1.9-0.4,3.8-1,5.5c-3,8-11.9,12.1-19.8,9c-4.1-1.6-7.3-4.8-8.8-9
			c-1.4-3.6-1.4-7.6,0-11.3c3-8,11.8-12,19.7-9c4.1,1.6,7.3,4.8,8.8,9C202.7,179.3,203.1,181.2,203.1,183.1 M214.9,188.7
			c0.4-1.8,0.5-3.7,0.5-5.5c0-1.9-0.2-3.8-0.6-5.7c-3-15.2-17.6-25-32.5-22c-10.9,2.2-19.4,10.9-21.6,22c-0.4,1.9-0.6,3.8-0.6,5.7
			c0,1.9,0.2,3.7,0.5,5.5c3,15.2,17.6,25.1,32.6,22C204.2,208.4,212.7,199.8,214.9,188.7 M253.1,172.8c0,1.7-0.6,3.4-1.9,4.6
			c-1.1,1.1-2.5,1.6-4,1.6h-11.4v-12.2h11.4c3.1-0.1,5.7,2.4,5.8,5.6C253.1,172.6,253.1,172.7,253.1,172.8 M264.3,177.4
			c0.5-1.6,0.7-3.2,0.7-4.9c0-2.2-0.4-4.4-1.2-6.4c-2.5-6.5-8.7-10.6-15.6-10.5h-23c-0.8,0-1.5,0.7-1.5,1.5c0,0,0,0,0,0v51.8
			c0,0.8,0.7,1.5,1.5,1.5h9.1c0.8,0,1.4-0.7,1.5-1.5V189h5.3l5.4,10.9l4.8,9.8c0.3,0.4,0.7,0.7,1.2,0.7h10.2
			c0.8,0.1,1.5-0.5,1.6-1.4c0-0.3-0.1-0.6-0.2-0.9l-4.3-8.2l-6-11.3l-0.2-0.4C259.1,186.2,262.8,182.3,264.3,177.4 M303.3,172.8
			c0,1.7-0.6,3.4-1.9,4.6c-1.1,1-2.5,1.6-4,1.6h-11.4v-12.2h11.4c3.1-0.1,5.7,2.4,5.8,5.6C303.3,172.6,303.3,172.7,303.3,172.8
			 M314.5,177.4c0.5-1.6,0.7-3.2,0.7-4.9c0-2.2-0.4-4.4-1.2-6.4c-2.5-6.5-8.7-10.6-15.6-10.5h-23c-0.8,0-1.5,0.7-1.5,1.5
			c0,0,0,0,0,0v51.8c0,0.8,0.7,1.5,1.5,1.5h9.1c0.8,0,1.4-0.7,1.5-1.5V189h5.3l5.4,10.9l4.8,9.8c0.3,0.4,0.7,0.7,1.2,0.7H313
			c0.8,0,1.5-0.6,1.5-1.4c0-0.3-0.1-0.6-0.2-0.9L310,200l-6-11.3l-0.2-0.4C309.3,186.2,313,182.3,314.5,177.4 M363.3,183.1
			c0,1.9-0.4,3.8-1,5.5c-3,8-11.9,12.1-19.7,9c-4.1-1.6-7.3-4.8-8.8-9c-0.7-1.8-1-3.6-1-5.5c0-8.6,6.9-15.6,15.3-15.6
			C356.5,167.6,363.3,174.5,363.3,183.1 M375.6,183.1c0-1.9-0.2-3.8-0.6-5.7c-3-15.2-17.6-25-32.6-22c-10.9,2.2-19.4,10.9-21.6,22
			c-0.7,3.7-0.7,7.5,0,11.3c3,15.2,17.6,25.1,32.5,22c10.9-2.2,19.5-10.9,21.7-22C375.5,186.9,375.6,185,375.6,183.1"/>
		<g class="st1">
			<path class="st0" d="M78.9,144.9h12.2L86,133.6l-5.1-11.3L76.1,112c-0.3-0.5-0.8-0.8-1.3-0.9H74c-0.6,0-1,0.4-1.3,0.9L68,122.4
				l-5.1,11.3l-5.2,11.3h12.2l4.4-9.9h0.1L78.9,144.9z M139.6,144.9h12.1v-31.5c0-0.8-0.7-1.5-1.5-1.5h-9.1c-0.8,0-1.5,0.7-1.5,1.5
				v0v19.7h-22v-19.7c0-0.8-0.7-1.5-1.5-1.5H107c-0.8,0-1.4,0.7-1.5,1.5v31.5h12.1v-0.3h22L139.6,144.9z M214.8,144.9
				c0.4-1.8,0.5-3.7,0.5-5.5c0-6.1-1.9-12.1-5.6-17c-9.1-12.4-26.4-14.9-38.6-5.6c-5.4,4.1-9.2,10.1-10.5,16.9
				c-0.4,1.9-0.6,3.8-0.6,5.7c0,1.9,0.2,3.7,0.5,5.5h12.8c-1.4-3.6-1.4-7.6,0-11.3c3-8,11.8-12,19.7-9c4.1,1.6,7.3,4.8,8.8,9
				c1.4,3.6,1.4,7.6,0,11.3H214.8z M253.1,129c0,1.7-0.6,3.4-1.9,4.6c-1.1,1.1-2.5,1.7-4,1.7h-11.4v-12.2h11.4
				c3.1-0.1,5.7,2.4,5.8,5.5C253.1,128.8,253.1,128.9,253.1,129 M264.3,133.6c0.5-1.6,0.7-3.2,0.7-4.9c0-2.2-0.4-4.4-1.2-6.4
				c-2.5-6.5-8.7-10.6-15.6-10.5h-23c-0.8,0-1.5,0.7-1.5,1.5v31.5h30l-0.2-0.4C259.1,142.4,262.8,138.5,264.3,133.6 M303.3,129
				c0,1.7-0.6,3.4-1.9,4.6c-1.1,1.1-2.5,1.6-4,1.7h-11.4v-12.2h11.4c3.1-0.1,5.7,2.4,5.8,5.6C303.3,128.8,303.3,128.9,303.3,129
				 M314.5,133.6c0.5-1.6,0.7-3.2,0.7-4.9c0-2.2-0.4-4.4-1.2-6.4c-2.5-6.5-8.7-10.6-15.6-10.5h-23c-0.8,0-1.5,0.7-1.5,1.5v31.5h30
				l-0.2-0.4C309.3,142.4,313,138.5,314.5,133.6 M375.6,139.3c0-1.9-0.2-3.8-0.6-5.7c-2.7-13.1-14-22.5-27.1-22.5
				c-13.1,0-24.4,9.4-27,22.5c-0.7,3.7-0.7,7.5,0,11.3h12.8c-0.7-1.8-1-3.6-1-5.5c0-8.6,6.9-15.6,15.3-15.6c8.5,0,15.3,7,15.3,15.6
				c0,1.9-0.4,3.8-1,5.5h12.8C375.5,143.1,375.7,141.2,375.6,139.3"/>
		</g>
		<g class="st3">
			<path class="st0" d="M62.8,101.1H86l-5.1-11.2l-4.8-10.4c-0.3-0.5-0.8-0.8-1.3-0.9H74c-0.6,0-1.1,0.4-1.3,0.9L68,89.9L62.8,101.1
				z M105.6,101.1h46.1V80.8c0-0.8-0.7-1.5-1.5-1.5h-9.1c-0.8,0-1.5,0.7-1.5,1.5c0,0,0,0,0,0v19.7h-22V80.8c0-0.8-0.7-1.5-1.5-1.5
				H107c-0.8,0-1.4,0.7-1.5,1.5L105.6,101.1L105.6,101.1z M202,101.1h12.8c-2.6-13.1-14-22.5-27.1-22.5c-13.1,0-24.4,9.4-27,22.5
				h12.8c3-8,11.8-12,19.7-9C197.2,93.7,200.4,97,202,101.1 M375.1,101.1c-2.7-13.1-14-22.5-27.1-22.5c-8.7,0-16.9,4.2-22.1,11.3
				c-2.5,3.3-4.2,7.2-5,11.3h12.8c3-8,11.8-12,19.7-9c4.1,1.6,7.3,4.9,8.9,9L375.1,101.1z"/>
		</g>
		<g class="st3">
			<path class="st0" d="M117.7,59.6c0-0.8-0.6-1.5-1.4-1.5c0,0,0,0,0,0H107c-0.8,0-1.4,0.7-1.5,1.5v9h12.1L117.7,59.6z"/>
			<path class="st0" d="M151.7,59.6c0-0.8-0.7-1.5-1.5-1.5h-9.1c-0.8,0-1.5,0.7-1.5,1.5c0,0,0,0,0,0v9h12.1V59.6z"/>
			<path class="st0" d="M165.6,68.6h44.2c-9.1-12.4-26.4-15-38.6-5.7C169.1,64.5,167.2,66.4,165.6,68.6"/>
			<path class="st0" d="M248.2,58.1h-23c-0.8,0-1.5,0.7-1.5,1.5c0,0,0,0,0,0v9h40C261.3,62.1,255.1,57.9,248.2,58.1"/>
			<path class="st0" d="M298.4,58.1h-23c-0.8,0-1.5,0.7-1.5,1.5v9h40C311.5,62.1,305.3,57.9,298.4,58.1"/>
			<path class="st0" d="M325.9,68.6h44.2c-9.1-12.4-26.4-15-38.6-5.7C329.4,64.5,327.5,66.4,325.9,68.6"/>
		</g>
	</g>
</g>
</svg>
