<?xml version="1.0" encoding="utf-8"?>
<!-- Generator: Adobe Illustrator 26.0.3, SVG Export Plug-In . SVG Version: 6.00 Build 0)  -->
<svg version="1.1" id="Capa_1" xmlns="http://www.w3.org/2000/svg" xmlns:xlink="http://www.w3.org/1999/xlink" x="0px" y="0px"
	 viewBox="0 0 820 430" style="enable-background:new 0 0 820 430;" xml:space="preserve">
<style type="text/css">
	.st0{fill:#FFFFFF;}
	.st1{opacity:0.4;}
	.st2{clip-path:url(#SVGID_00000168118823789835442570000008912161894670685824_);fill:#FFFFFF;}
	.st3{opacity:0.2;}
	.st4{clip-path:url(#SVGID_00000111876093265059195400000017754423662604463490_);fill:#FFFFFF;}
	.st5{clip-path:url(#SVGID_00000125562758658215398130000001195585718479989675_);fill:#FFFFFF;}
	.st6{clip-path:url(#SVGID_00000093859195512266664960000017027699548543548584_);fill:#FFFFFF;}
	.st7{clip-path:url(#SVGID_00000093154602196547227090000017889327954136101564_);fill:#FFFFFF;}
	.st8{clip-path:url(#SVGID_00000010997473548675993830000017601637550519713958_);fill:#FFFFFF;}
</style>
<g>
	<path class="st0" d="M7.9,121.1H5.4c-0.2,0-0.3-0.1-0.3-0.3v-1.3c0-0.2,0.1-0.3,0.3-0.3h7c0.2,0,0.3,0.1,0.3,0.3v1.3
		c0,0.2-0.1,0.3-0.3,0.3H10v9c0,0.2-0.1,0.3-0.3,0.3H8.2c-0.2,0-0.3-0.1-0.3-0.3V121.1z"/>
	<path class="st0" d="M21.4,119.5c0-0.2,0.1-0.3,0.3-0.3h4.6c1.9,0,3.5,1.5,3.5,3.4c0,1.5-1,2.7-2.4,3.2l2.2,4.1
		c0.1,0.2,0,0.5-0.3,0.5h-1.7c-0.1,0-0.2-0.1-0.3-0.1l-2.1-4.2h-1.8v4.1c0,0.2-0.1,0.3-0.3,0.3h-1.5c-0.2,0-0.3-0.1-0.3-0.3V119.5z
		 M26.1,124.3c0.8,0,1.6-0.7,1.6-1.6c0-0.8-0.7-1.6-1.6-1.6h-2.6v3.2H26.1z"/>
	<path class="st0" d="M37.5,130l5-10.8c0-0.1,0.1-0.2,0.3-0.2h0.2c0.2,0,0.2,0.1,0.3,0.2l4.9,10.8c0.1,0.2,0,0.4-0.3,0.4h-1.4
		c-0.2,0-0.4-0.1-0.5-0.3l-0.8-1.7h-4.8l-0.8,1.7c-0.1,0.2-0.2,0.3-0.5,0.3h-1.4C37.5,130.4,37.4,130.2,37.5,130z M44.4,126.6
		l-1.6-3.5h0l-1.6,3.5H44.4z"/>
	<path class="st0" d="M56.4,119.3c0-0.2,0.1-0.3,0.3-0.3h0.2c0.1,0,0.2,0,0.3,0.1l6.5,7h0v-6.6c0-0.2,0.1-0.3,0.3-0.3h1.5
		c0.2,0,0.3,0.1,0.3,0.3v10.8c0,0.2-0.1,0.3-0.3,0.3h-0.2c-0.1,0-0.2,0-0.3-0.1l-6.6-7.2h0v6.9c0,0.2-0.1,0.3-0.3,0.3h-1.5
		c-0.2,0-0.3-0.1-0.3-0.3V119.3z"/>
	<path class="st0" d="M75,129.3c-0.2-0.1-0.2-0.2-0.1-0.5l0.6-1c0.1-0.2,0.4-0.2,0.5-0.1c0.7,0.5,1.4,1,2.4,1c0.8,0,1.5-0.5,1.5-1.2
		c0-0.8-0.7-1.4-2-1.9c-1.5-0.6-3-1.6-3-3.5c0-1.4,1.1-3.1,3.6-3.1c1.6,0,2.9,0.8,3.2,1.1c0.2,0.1,0.2,0.4,0.1,0.5l-0.6,0.9
		c-0.1,0.2-0.4,0.3-0.6,0.2c-0.7-0.4-1.3-0.9-2.2-0.9c-0.9,0-1.4,0.5-1.4,1.1c0,0.8,0.6,1.3,1.9,1.8c1.6,0.6,3.3,1.6,3.3,3.6
		c0,1.6-1.4,3.2-3.7,3.2C76.5,130.5,75.4,129.7,75,129.3z"/>
	<path class="st0" d="M91,119.5c0-0.2,0.1-0.3,0.3-0.3h6.5c0.2,0,0.3,0.1,0.3,0.3v1.3c0,0.2-0.1,0.3-0.3,0.3h-4.7v3h4
		c0.2,0,0.3,0.1,0.3,0.3v1.3c0,0.2-0.1,0.3-0.3,0.3h-4v4c0,0.2-0.1,0.3-0.3,0.3h-1.5c-0.2,0-0.3-0.1-0.3-0.3V119.5z"/>
	<path class="st0" d="M111.9,119c3.2,0,5.8,2.6,5.8,5.8s-2.6,5.7-5.8,5.7s-5.7-2.5-5.7-5.7S108.7,119,111.9,119z M111.9,128.5
		c2,0,3.7-1.6,3.7-3.7c0-2-1.7-3.7-3.7-3.7c-2,0-3.7,1.7-3.7,3.7C108.2,126.8,109.9,128.5,111.9,128.5z"/>
	<path class="st0" d="M126.6,119.5c0-0.2,0.1-0.3,0.3-0.3h4.6c1.9,0,3.5,1.5,3.5,3.4c0,1.5-1,2.7-2.4,3.2l2.2,4.1
		c0.1,0.2,0,0.5-0.3,0.5h-1.7c-0.1,0-0.2-0.1-0.3-0.1l-2.1-4.2h-1.8v4.1c0,0.2-0.1,0.3-0.3,0.3h-1.5c-0.2,0-0.3-0.1-0.3-0.3V119.5z
		 M131.3,124.3c0.8,0,1.6-0.7,1.6-1.6c0-0.8-0.7-1.6-1.6-1.6h-2.6v3.2H131.3z"/>
	<path class="st0" d="M145.3,119.3c0-0.1,0.1-0.2,0.3-0.2h0.3c0.1,0,0.2,0.1,0.3,0.2l3.5,7.6c0,0,0,0,0,0l3.5-7.6
		c0-0.1,0.1-0.2,0.3-0.2h0.3c0.2,0,0.3,0.1,0.3,0.2l1.9,10.8c0,0.2-0.1,0.4-0.3,0.4h-1.5c-0.1,0-0.3-0.1-0.3-0.2l-0.9-6.1
		c0,0,0,0,0,0l-2.8,6.3c0,0.1-0.1,0.2-0.3,0.2h-0.3c-0.1,0-0.2-0.1-0.3-0.2l-2.8-6.3c0,0,0,0,0,0l-0.9,6.1c0,0.1-0.1,0.2-0.3,0.2
		h-1.4c-0.2,0-0.3-0.1-0.3-0.4L145.3,119.3z"/>
	<path class="st0" d="M163.6,130l5-10.8c0-0.1,0.1-0.2,0.3-0.2h0.2c0.2,0,0.2,0.1,0.3,0.2l4.9,10.8c0.1,0.2,0,0.4-0.3,0.4h-1.4
		c-0.2,0-0.4-0.1-0.5-0.3l-0.8-1.7h-4.8l-0.8,1.7c-0.1,0.2-0.2,0.3-0.5,0.3h-1.4C163.6,130.4,163.5,130.2,163.6,130z M170.5,126.6
		l-1.6-3.5h0l-1.6,3.5H170.5z"/>
	<path class="st0" d="M183.8,119.3c0-0.1,0.1-0.2,0.3-0.2h0.3c0.1,0,0.2,0.1,0.3,0.2l3.5,7.6c0,0,0,0,0,0l3.5-7.6
		c0-0.1,0.1-0.2,0.3-0.2h0.3c0.2,0,0.3,0.1,0.3,0.2l1.9,10.8c0,0.2-0.1,0.4-0.3,0.4h-1.5c-0.1,0-0.3-0.1-0.3-0.2l-0.9-6.1
		c0,0,0,0,0,0l-2.8,6.3c0,0.1-0.1,0.2-0.3,0.2H188c-0.1,0-0.2-0.1-0.3-0.2l-2.8-6.3c0,0,0,0,0,0l-0.9,6.1c0,0.1-0.1,0.2-0.3,0.2
		h-1.4c-0.2,0-0.3-0.1-0.3-0.4L183.8,119.3z"/>
	<path class="st0" d="M208.4,119c3.2,0,5.8,2.6,5.8,5.8s-2.6,5.7-5.8,5.7s-5.7-2.5-5.7-5.7S205.2,119,208.4,119z M208.4,128.5
		c2,0,3.7-1.6,3.7-3.7c0-2-1.7-3.7-3.7-3.7c-2,0-3.7,1.7-3.7,3.7C204.7,126.8,206.4,128.5,208.4,128.5z"/>
	<path class="st0" d="M222.6,129.3c-0.2-0.1-0.2-0.2-0.1-0.5l0.6-1c0.1-0.2,0.4-0.2,0.5-0.1c0.7,0.5,1.4,1,2.4,1
		c0.8,0,1.5-0.5,1.5-1.2c0-0.8-0.7-1.4-2-1.9c-1.5-0.6-3-1.6-3-3.5c0-1.4,1.1-3.1,3.6-3.1c1.6,0,2.9,0.8,3.2,1.1
		c0.2,0.1,0.2,0.4,0.1,0.5l-0.6,0.9c-0.1,0.2-0.4,0.3-0.6,0.2c-0.7-0.4-1.3-0.9-2.2-0.9c-0.9,0-1.4,0.5-1.4,1.1
		c0,0.8,0.6,1.3,1.9,1.8c1.6,0.6,3.3,1.6,3.3,3.6c0,1.6-1.4,3.2-3.7,3.2C224.1,130.5,223.1,129.7,222.6,129.3z"/>
</g>
<g>
	<path class="st0" d="M6,224.1c0-0.2,0.1-0.3,0.3-0.3h6.5c0.2,0,0.3,0.1,0.3,0.3v1.3c0,0.2-0.1,0.3-0.3,0.3H8.1v2.6h4
		c0.2,0,0.3,0.1,0.3,0.3v1.3c0,0.2-0.1,0.3-0.3,0.3h-4v2.8h4.7c0.2,0,0.3,0.1,0.3,0.3v1.3c0,0.2-0.1,0.3-0.3,0.3H6.4
		c-0.2,0-0.3-0.1-0.3-0.3V224.1z"/>
	<path class="st0" d="M22.1,223.9c0-0.2,0.1-0.3,0.3-0.3h0.2c0.1,0,0.2,0,0.3,0.1l6.5,7h0v-6.6c0-0.2,0.1-0.3,0.3-0.3h1.5
		c0.2,0,0.3,0.1,0.3,0.3v10.8c0,0.2-0.1,0.3-0.3,0.3H31c-0.1,0-0.2,0-0.3-0.1l-6.6-7.2h0v6.9c0,0.2-0.1,0.3-0.3,0.3h-1.5
		c-0.2,0-0.3-0.1-0.3-0.3V223.9z"/>
</g>
<path class="st0" d="M70.9,210.8v-11.2v-14v-14v-14v-11.2c0-1-0.9-1.9-1.8-1.9H57.4c-1,0-1.9,0.9-1.9,1.9v11.2v14v14v14v11.2
	c0,1,0.9,1.8,1.9,1.8H69C70,212.7,70.9,211.8,70.9,210.8 M144.1,211.9v-12.3v-14v-14v-14v-11.2c0-1-0.9-1.9-1.8-1.9h-11.7
	c-1.1,0-1.8,0.9-1.8,1.9v11.2v14v9.3h-0.1l-9.7-9.3l-14.6-14L91.3,145c-0.8-0.8-1.5-1.5-2.4-1.5h-1.5c-1,0-1.9,0.8-1.9,1.8l0,12.3
	l0,14l0,14l0,14l0,11.2c0,1,0.9,1.8,1.9,1.8H99c1.1,0,1.8-0.9,1.8-1.8v-11.2v-14v-11.1h0.1l11,11.1l13.9,14l12.9,12.9
	c0.8,0.8,1.5,1.1,2.4,1.1h1C143.2,213.7,144.1,213.1,144.1,211.9 M174.3,210.8v-11.2v-14v-14v-14v-11.2c0-1-0.9-1.9-1.9-1.9h-11.7
	c-1,0-1.9,0.9-1.9,1.9v11.2v14v14v14v11.2c0,1,0.9,1.8,1.9,1.8h11.7C173.5,212.7,174.3,211.8,174.3,210.8 M243.7,155.3
	c0.8-0.8,0.8-1.9-0.1-2.7c-6.6-6-13.8-9.1-23.6-9.1c-11.5,0-21.7,5.5-28.1,14c-3.1,4.1-5.3,8.8-6.4,14c-0.5,2.3-0.7,4.7-0.7,7.1
	c0,2.4,0.2,4.7,0.7,6.9c1,5.2,3.2,9.9,6.3,14c6.4,8.5,16.6,14,28.2,14c8.7,0,17-3,23.7-9.4c0.7-0.7,0.8-1.9,0.1-2.6l-1.8-1.9
	l-5.8-6.1c-0.6-0.7-1.9-0.7-2.5-0.1c-3.5,3-7.7,4.7-13,4.7c-8.4,0-15.1-5.2-17.8-12.5c-0.9-2.3-1.3-4.7-1.3-7.3
	c0-2.3,0.4-4.6,1.1-6.7c2.5-7.7,9.4-13.3,18-13.3c4.8,0,9.2,1.5,13.1,5c0.7,0.7,1.8,0.7,2.4,0l5.4-5.6L243.7,155.3z M268.9,210.8
	v-11.2v-14v-14v-14v-11.2c0-1-0.9-1.9-1.8-1.9h-11.7c-1,0-1.8,0.9-1.8,1.9v11.2v14v14v14v11.2c0,1,0.9,1.8,1.8,1.8h11.7
	C268,212.7,268.9,211.8,268.9,210.8 M315.8,189.3H301l1.7-3.7l5.6-12.4h0.1l5.7,12.4L315.8,189.3z M341,210.2l-4.9-10.5l-6.5-14
	l-6.5-14l-6.5-14l-6-12.9c-0.3-0.6-1-1.1-1.7-1.1h-1c-0.7,0-1.4,0.5-1.7,1.1l-6,12.9l-6.5,14l-6.5,14l-6.5,14l-4.9,10.5
	c-0.6,1.3,0.2,2.5,1.7,2.5h10.7c1.9,0,3-1.2,3.5-2.3l3.5-7.8h26.5l3.5,7.7c0.9,1.8,1.7,2.4,3.4,2.4h10.8
	C340.8,212.7,341.6,211.4,341,210.2 M384.1,157.6c0.1-0.2,0.1-0.4,0.1-0.6v-10.6c0-1-0.8-1.9-1.8-1.9h-43.2c-1.1,0-1.9,0.9-1.9,1.9
	V157c0,0.2,0.1,0.4,0.1,0.6c0.2,0.7,0.9,1.3,1.7,1.3h13.9v12.8v14v14v11.2c0,1,0.9,1.8,1.8,1.8h11.7c1,0,1.9-0.9,1.9-1.8v-11.2v-14
	v-14v-12.8h13.9C383.2,158.9,383.9,158.3,384.1,157.6 M407.7,210.8v-11.2v-14v-14v-14v-11.2c0-1-0.9-1.9-1.9-1.9h-11.7
	c-1,0-1.9,0.9-1.9,1.9v11.2v14v14v14v11.2c0,1,0.9,1.8,1.9,1.8h11.7C406.8,212.7,407.7,211.8,407.7,210.8 M479.8,147.1
	c0.6-1.3-0.2-2.5-1.7-2.5h-12.9c-0.8,0-1.5,0.6-1.7,1.1l-5.4,12l-6.3,14l-4.3,9.5h-0.6l-4.3-9.5l-6.3-14l-5.4-12
	c-0.2-0.5-0.9-1.1-1.7-1.1h-12.9c-1.5,0-2.2,1.3-1.7,2.5l4.9,10.5l6.5,14l6.5,14l6.5,14l6,12.9c0.3,0.6,0.9,1.1,1.7,1.1h1
	c0.8,0,1.4-0.5,1.7-1.1l6-12.9l6.5-14l6.5-14l6.5-14L479.8,147.1z M512.6,189.3h-14.8l1.7-3.7l5.6-12.4h0.1l5.7,12.4L512.6,189.3z
	 M537.8,210.2l-4.9-10.5l-6.5-14l-6.5-14l-6.5-14l-6-12.9c-0.3-0.6-1-1.1-1.7-1.1h-1c-0.7,0-1.4,0.5-1.7,1.1l-6,12.9l-6.5,14
	l-6.5,14l-6.5,14l-4.9,10.5c-0.6,1.3,0.2,2.5,1.7,2.5h10.7c1.9,0,3-1.2,3.5-2.3l3.5-7.8h26.5l3.5,7.7c0.9,1.8,1.7,2.4,3.4,2.4h10.8
	C537.6,212.7,538.4,211.4,537.8,210.2 M557.7,162.3c0-2,0.9-3.7,2.8-4.7c0.8-0.4,1.9-0.7,3.1-0.7c1.4,0,2.8,0.3,4.1,0.7
	c3.8,1.1,7.3,3.4,9,4.6c1.9,1.2,3.6,0.4,4.3-0.7l2.6-3.9l2.4-3.6c0.4-0.7,0.6-2.4-0.6-3.1c-2.9-2.1-10.7-7.3-20.8-7.3
	c-12.2,0-19.4,6.4-21.7,14c-0.5,1.7-0.8,3.6-0.8,5.4c0,3.4,0.8,6.2,2.2,8.7c3.3,6,10,9.6,16.7,12.9c0.8,0.4,1.6,0.8,2.3,1.2
	c5,2.6,7.7,5.1,7.7,8.7c0,2.5-1.5,4.5-3.9,5.4c-0.8,0.3-1.8,0.5-2.8,0.5c-1.4,0-2.7-0.2-3.9-0.5c-4.3-1-7.8-3.4-9.9-4.9
	c-1-0.7-2.5-0.7-3.3,0.6l-2.4,4.3l-2,3.6c-0.7,1.3-0.4,2.1,0.4,2.9c2.2,2.2,9.2,7.5,21.9,7.5c11.4,0,19.1-6.4,21.9-14
	c0.7-2,1.1-4.1,1.1-6.1c0-3.1-0.6-5.6-1.6-7.9c-3.3-7.3-11-10.9-17.4-14c-0.2-0.1-0.4-0.2-0.6-0.3
	C561.5,168,557.7,165.5,557.7,162.3"/>
<g class="st1">
	<g>
		<defs>
			<rect id="SVGID_1_" x="38.5" y="75.9" width="564.9" height="56.1"/>
		</defs>
		<clipPath id="SVGID_00000002348264378580383750000005787127116488411525_">
			<use xlink:href="#SVGID_1_"  style="overflow:visible;"/>
		</clipPath>
		<path style="clip-path:url(#SVGID_00000002348264378580383750000005787127116488411525_);fill:#FFFFFF;" d="M55.5,131h15.4v-14
			v-14V91.7c0-1-0.9-1.9-1.8-1.9H57.4c-1,0-1.8,0.9-1.8,1.9v11.2v14V131z M159,131h15.4v-14v-14V91.7c0-1-0.9-1.9-1.9-1.9h-11.7
			c-1,0-1.9,0.9-1.9,1.9v11.2v14V131z M243.7,100.7c0.8-0.8,0.8-1.9-0.1-2.7c-6.6-6-13.8-9.1-23.6-9.1c-11.5,0-21.7,5.5-28.1,14
			c-3.1,4.1-5.3,8.8-6.4,14c-0.5,2.3-0.7,4.7-0.7,7.1c0,2.4,0.2,4.7,0.7,6.9h17.2c-0.9-2.3-1.3-4.7-1.3-7.3c0-2.3,0.4-4.6,1.1-6.7
			c2.5-7.7,9.4-13.3,18-13.3c4.8,0,9.2,1.5,13.1,5c0.7,0.7,1.8,0.7,2.4,0l5.4-5.6L243.7,100.7z M253.5,131h15.4v-14v-14V91.7
			c0-1-0.9-1.9-1.9-1.9h-11.7c-1,0-1.9,0.9-1.9,1.9v11.2v14V131z M314.1,131h15.5l-6.5-14l-6.5-14l-6-12.9c-0.3-0.6-1-1.1-1.7-1.1
			h-1c-0.7,0-1.4,0.5-1.7,1.1l-6,12.9l-6.5,14l-6.5,14h15.5l5.6-12.4h0.1L314.1,131z M392.3,131h15.4v-14v-14V91.7
			c0-1-0.9-1.9-1.8-1.9h-11.7c-1,0-1.9,0.9-1.9,1.9v11.2v14V131z M479.8,92.4c0.6-1.3-0.2-2.5-1.7-2.5h-12.9c-0.8,0-1.5,0.6-1.7,1.1
			l-5.4,12l-6.3,14l-4.3,9.5h-0.6l-4.3-9.5l-6.3-14l-5.4-12c-0.2-0.5-0.9-1.1-1.7-1.1h-12.9c-1.5,0-2.2,1.3-1.7,2.5l4.9,10.5l6.5,14
			l6.5,14h29.4l6.5-14l6.5-14L479.8,92.4z M510.9,131h15.5l-6.5-14l-6.5-14l-6-12.9c-0.3-0.6-1-1.1-1.7-1.1h-1
			c-0.7,0-1.4,0.5-1.7,1.1l-6,12.9l-6.5,14l-6.5,14h15.5l5.6-12.4h0.1L510.9,131z M586,99.3c0.4-0.7,0.6-2.4-0.6-3.1
			c-2.9-2.1-10.7-7.3-20.8-7.3c-12.2,0-19.4,6.4-21.7,14c-0.5,1.7-0.8,3.6-0.8,5.4c0,3.4,0.8,6.2,2.2,8.7c3.3,6,10,9.6,16.7,12.8
			c0.8,0.4,1.6,0.8,2.3,1.2h23c-3.3-7.3-11-10.9-17.4-14c-0.2-0.1-0.4-0.2-0.6-0.3c-6.8-3.3-10.6-5.8-10.6-9.1
			c0-1.9,0.9-3.7,2.8-4.7c0.8-0.4,1.9-0.7,3.1-0.7c1.4,0,2.8,0.3,4.1,0.7c3.8,1.1,7.3,3.4,9,4.6c1.9,1.2,3.6,0.4,4.3-0.7l2.6-3.9
			L586,99.3z"/>
	</g>
</g>
<g class="st3">
	<g>
		<defs>
			<rect id="SVGID_00000018229661722897443120000013310310652701611918_" x="38.5" y="35.3" width="498.3" height="42"/>
		</defs>
		<clipPath id="SVGID_00000074403380155390434450000017728392020179212217_">
			<use xlink:href="#SVGID_00000018229661722897443120000013310310652701611918_"  style="overflow:visible;"/>
		</clipPath>
		<path style="clip-path:url(#SVGID_00000074403380155390434450000017728392020179212217_);fill:#FFFFFF;" d="M55.5,76.3h15.4v-14
			V51.1c0-1-0.9-1.9-1.8-1.9H57.4c-1,0-1.9,0.9-1.9,1.9v11.2V76.3z M85.5,76.3h33.4l-14.6-14L91.3,49.7c-0.8-0.8-1.5-1.5-2.4-1.5
			h-1.5c-1,0-1.9,0.8-1.9,1.8l0,12.3L85.5,76.3z M128.7,76.3h15.4v-14V51.1c0-1-0.9-1.9-1.8-1.9h-11.7c-1.1,0-1.8,0.9-1.8,1.9v11.2
			V76.3z M159,76.3h15.4v-14V51.1c0-1-0.9-1.9-1.9-1.9h-11.7c-1,0-1.8,0.9-1.8,1.9v11.2V76.3z M253.5,76.3h15.4v-14V51.1
			c0-1-0.9-1.9-1.8-1.9h-11.7c-1,0-1.8,0.9-1.8,1.9v11.2V76.3z M293.7,76.3h29.4l-6.5-14l-6-12.9c-0.3-0.6-1-1.1-1.7-1.1h-1
			c-0.7,0-1.4,0.5-1.7,1.1l-6,12.9L293.7,76.3z M384.1,62.3c0.1-0.2,0.1-0.4,0.1-0.6V51.1c0-1-0.8-1.9-1.8-1.9h-43.2
			c-1.1,0-1.9,0.9-1.9,1.9v10.6c0,0.2,0.1,0.4,0.1,0.6c0.2,0.7,0.9,1.3,1.7,1.3h13.9v12.8h15.4V63.6h13.9
			C383.2,63.6,383.9,63,384.1,62.3 M425.9,76.3h16.6l-6.3-14l-5.4-12c-0.2-0.5-0.9-1.1-1.7-1.1h-12.9c-1.5,0-2.2,1.3-1.7,2.5
			l4.9,10.5L425.9,76.3z M479.8,51.8c0.6-1.3-0.2-2.5-1.7-2.5h-12.9c-0.8,0-1.5,0.6-1.7,1.1l-5.4,12l-6.3,14h16.6l6.5-14L479.8,51.8
			z M490.5,76.3h29.4l-6.5-14l-6-12.9c-0.3-0.6-1-1.1-1.7-1.1h-1c-0.7,0-1.4,0.5-1.7,1.1l-6,12.9L490.5,76.3z"/>
	</g>
</g>
<g class="st3">
	<g>
		<defs>
			<rect id="SVGID_00000067927495430175850550000013373209782796071613_" x="38.5" y="8.7" width="491.8" height="28"/>
		</defs>
		<clipPath id="SVGID_00000145756882944919470300000012474757858222224303_">
			<use xlink:href="#SVGID_00000067927495430175850550000013373209782796071613_"  style="overflow:visible;"/>
		</clipPath>
		<path style="clip-path:url(#SVGID_00000145756882944919470300000012474757858222224303_);fill:#FFFFFF;" d="M55.5,35.7h15.4V24.5
			c0-1-0.9-1.9-1.8-1.9H57.4c-1,0-1.9,0.9-1.9,1.9V35.7z M85.5,35.7h18.8L91.3,23.1c-0.8-0.8-1.5-1.5-2.4-1.5h-1.5
			c-1,0-1.9,0.8-1.9,1.8L85.5,35.7z M128.7,35.7h15.4V24.5c0-1-0.9-1.9-1.8-1.9h-11.7c-1.1,0-1.8,0.9-1.8,1.9V35.7z M159,35.7h15.4
			V24.5c0-1-0.9-1.9-1.9-1.9h-11.7c-1,0-1.9,0.9-1.9,1.9V35.7z M243.7,33.4c0.8-0.8,0.8-1.9-0.1-2.7c-6.6-6-13.8-9.1-23.6-9.1
			c-11.5,0-21.7,5.5-28.1,14h49.6L243.7,33.4z M300.3,35.7h16.3l-6-12.9c-0.3-0.6-1-1.1-1.7-1.1h-1c-0.7,0-1.4,0.5-1.7,1.1
			L300.3,35.7z M384.1,35.7c0.1-0.2,0.1-0.4,0.1-0.6V24.5c0-1-0.8-1.9-1.8-1.9h-43.2c-1.1,0-1.9,0.9-1.9,1.9v10.6
			c0,0.2,0.1,0.4,0.1,0.6H384.1z M392.3,35.7h15.4V24.5c0-1-0.9-1.9-1.8-1.9h-11.7c-1,0-1.9,0.9-1.9,1.9V35.7z M419.4,35.7h16.8
			l-5.4-12c-0.2-0.5-0.9-1.1-1.7-1.1h-12.9c-1.5,0-2.2,1.3-1.7,2.5L419.4,35.7z M479.8,25.2c0.6-1.3-0.2-2.5-1.7-2.5h-12.9
			c-0.8,0-1.5,0.6-1.7,1.1l-5.4,12h16.8L479.8,25.2z M497,35.7h16.3l-6-12.9c-0.3-0.6-1-1.1-1.7-1.1h-1c-0.7,0-1.4,0.5-1.7,1.1
			L497,35.7z"/>
	</g>
</g>
<path class="st0" d="M114.3,238c0.8-0.8,0.8-1.9-0.1-2.7c-6.6-6-13.8-9.1-23.6-9.1c-11.5,0-21.7,5.5-28.1,14
	c-3.1,4.1-5.3,8.8-6.4,14c-0.5,2.3-0.7,4.7-0.7,7.1c0,2.4,0.2,4.7,0.7,6.9c1,5.2,3.2,9.9,6.3,14c6.4,8.5,16.6,14,28.2,14
	c8.7,0,17-3,23.7-9.4c0.7-0.7,0.8-1.9,0.1-2.6l-1.8-1.9l-5.8-6.1c-0.6-0.7-1.8-0.7-2.5-0.1c-3.5,3-7.7,4.7-13,4.7
	c-8.4,0-15.1-5.2-17.8-12.5c-0.9-2.3-1.3-4.7-1.3-7.3c0-2.3,0.4-4.6,1.1-6.7c2.5-7.7,9.4-13.3,18-13.3c4.8,0,9.2,1.5,13.1,5
	c0.7,0.7,1.8,0.7,2.4,0l5.4-5.6L114.3,238z M173.2,261.4c0,2.4-0.5,4.8-1.3,6.9c-2.8,7.2-9.9,12.5-18.2,12.5
	c-8.2,0-15.2-5.2-18.1-12.5c-0.8-2.2-1.3-4.5-1.3-6.9c0-2.5,0.5-4.9,1.4-7.1c2.8-7.2,9.9-12.5,18-12.5c8.2,0,15.3,5.2,18.1,12.5
	C172.7,256.5,173.2,258.9,173.2,261.4 M188.1,268.3c0.4-2.2,0.7-4.5,0.7-6.9c0-2.4-0.2-4.8-0.7-7.1c-1.1-5.2-3.3-9.9-6.3-14
	c-6.4-8.5-16.5-14-28-14c-11.5,0-21.6,5.5-28,14c-3,4.1-5.2,8.8-6.3,14c-0.5,2.3-0.7,4.7-0.7,7.1c0,2.4,0.2,4.7,0.7,6.9
	c1,5.2,3.2,9.9,6.2,14c6.3,8.5,16.5,14,28,14c11.6,0,21.7-5.5,28.1-14C184.8,278.3,187,273.5,188.1,268.3 M271.9,293.2l-1.8-10.9
	l-2.4-14l-2.4-14l-2.4-14l-2.1-12.5c-0.1-0.9-1-1.6-1.8-1.6h-1.6c-0.5,0-1.4,0.4-1.7,1l-7,13l-7.5,14l-7.5,14l-0.5,1h-0.2l-0.5-1
	l-7.5-14l-7.5-14l-7-13c-0.3-0.6-1.2-1-1.7-1h-1.6c-0.8,0-1.7,0.7-1.8,1.6l-2.1,12.5l-2.4,14l-2.4,14l-2.4,14l-1.8,10.9
	c-0.2,1.3,0.7,2.1,1.9,2.1H208c1,0,1.8-0.8,1.8-1.6l1.6-11.5l2-14l0.7-4.6h0.2l2.4,4.6l7.3,14l6.8,12.9c0.3,0.6,1.1,1.1,1.7,1.1h1.8
	c0.5,0,1.4-0.5,1.7-1.1l6.7-12.9l7.3-14l2.4-4.6h0.2l0.7,4.6l2,14l1.7,11.5c0.1,0.8,1,1.6,1.8,1.6h11.5
	C271.2,295.4,272.1,294.5,271.9,293.2 M333.9,282.3c1.9-3.5,3-7.5,3-11.9v-2.1v-14v-14v-11.2c0-1-0.9-1.8-1.9-1.8h-12
	c-1.1,0-1.8,0.9-1.8,1.8v11.2v14v14v1.4c0,7.1-5.2,11.1-12.2,11.1c-6.9,0-12-4-12-11.1v-1.4v-14v-14v-11.2c0-1-0.8-1.8-1.9-1.8h-12
	c-1,0-1.9,0.9-1.9,1.8v11.2v14v14v2.1c0,4.3,1.1,8.4,3,11.9c4.6,8.5,13.9,14,24.7,14C320,296.4,329.3,290.8,333.9,282.3
	 M409.8,294.6v-12.3v-14v-14v-14v-11.2c0-1-0.9-1.8-1.9-1.8h-11.7c-1.1,0-1.9,0.9-1.9,1.8v11.2v14v9.3h-0.1l-9.7-9.3l-14.6-14
	l-13.1-12.6c-0.8-0.8-1.5-1.5-2.4-1.5H353c-1,0-1.9,0.8-1.9,1.8l0,12.3l0,14l0,14l0,14l0,11.2c0,1,0.9,1.8,1.8,1.8h11.6
	c1.1,0,1.8-0.9,1.8-1.8v-11.2v-14v-11.1h0.1l11,11.1l13.9,14l12.9,12.9c0.8,0.8,1.5,1.1,2.4,1.1h1
	C408.9,296.4,409.8,295.8,409.8,294.6 M440,293.5v-11.2v-14v-14v-14v-11.2c0-1-0.9-1.8-1.9-1.8h-11.7c-1,0-1.9,0.9-1.9,1.8v11.2v14
	v14v14v11.2c0,1,0.9,1.8,1.9,1.8h11.7C439.1,295.4,440,294.5,440,293.5 M498.2,261.2c0,2.5-0.4,4.9-1.1,7.1
	c-2.4,7.5-8.5,12.7-17,12.7h-10.2v-12.7v-14v-12.8h10.2c8.6,0,14.7,5.3,17.1,12.8C497.8,256.4,498.2,258.8,498.2,261.2 M513.6,268.3
	c0.5-2.3,0.8-4.7,0.8-7.1c0-2.4-0.3-4.7-0.7-6.9c-1.1-5.2-3.4-10-6.6-14c-6.3-7.9-16-13-26.8-13h-23.8c-1,0-1.8,0.9-1.8,1.8v11.2v14
	v14v14v11.2c0,1,0.8,1.8,1.8,1.8h23.8c10.8,0,20.5-5.1,26.8-13C510.2,278.3,512.5,273.5,513.6,268.3 M554.1,272h-14.8l1.7-3.7
	l5.6-12.4h0.1l5.7,12.4L554.1,272z M579.3,292.8l-4.9-10.5l-6.5-14l-6.5-14l-6.5-14l-6-12.9c-0.3-0.6-1-1.1-1.7-1.1h-1
	c-0.7,0-1.4,0.5-1.7,1.1l-6,12.9l-6.5,14l-6.5,14l-6.5,14l-4.9,10.5c-0.6,1.3,0.2,2.5,1.7,2.5h10.7c1.9,0,3-1.2,3.5-2.3l3.5-7.8
	h26.5l3.5,7.7c0.9,1.9,1.7,2.4,3.4,2.4h10.8C579.1,295.4,579.9,294.1,579.3,292.8 M629.8,261.2c0,2.5-0.4,4.9-1.1,7.1
	c-2.4,7.5-8.5,12.7-17,12.7h-10.2v-12.7v-14v-12.8h10.2c8.6,0,14.7,5.3,17.1,12.8C629.4,256.4,629.8,258.8,629.8,261.2 M645.2,268.3
	c0.5-2.3,0.8-4.7,0.8-7.1c0-2.4-0.3-4.7-0.7-6.9c-1.1-5.2-3.4-10-6.6-14c-6.3-7.9-16-13-26.8-13H588c-1,0-1.8,0.9-1.8,1.8v11.2v14
	v14v14v11.2c0,1,0.8,1.8,1.8,1.8h23.8c10.8,0,20.5-5.1,26.8-13C641.8,278.3,644.1,273.5,645.2,268.3 M700.8,293.5v-10.6
	c0-0.2-0.1-0.4-0.1-0.6c-0.2-0.7-0.9-1.3-1.7-1.3h-27v-12.8v-0.4h22.2c1,0,1.8-0.8,1.8-1.8v-10.6c0-0.4-0.2-0.8-0.5-1.2
	c-0.3-0.4-0.8-0.7-1.4-0.7H672v-12.1h27c0.8,0,1.5-0.6,1.7-1.3c0.1-0.2,0.1-0.4,0.1-0.6v-10.6c0-1-0.8-1.8-1.8-1.8h-40.3
	c-1.1,0-1.9,0.9-1.9,1.8v11.2v14v14v14v11.2c0,1,0.8,1.8,1.9,1.8h40.3C700,295.4,700.8,294.5,700.8,293.5 M724.8,245
	c0-2,0.9-3.7,2.8-4.7c0.8-0.4,1.9-0.7,3.1-0.7c1.4,0,2.8,0.3,4.1,0.7c3.8,1.1,7.3,3.4,9,4.6c1.9,1.2,3.6,0.4,4.3-0.7l2.6-3.9
	l2.4-3.6c0.4-0.7,0.6-2.4-0.6-3.1c-2.9-2.1-10.7-7.3-20.8-7.3c-12.2,0-19.4,6.4-21.7,14c-0.5,1.7-0.8,3.6-0.8,5.4
	c0,3.4,0.8,6.2,2.2,8.7c3.3,6,10,9.6,16.7,12.9c0.8,0.4,1.6,0.8,2.3,1.2c5,2.6,7.7,5.1,7.7,8.7c0,2.5-1.5,4.5-3.9,5.4
	c-0.8,0.3-1.8,0.5-2.8,0.5c-1.4,0-2.7-0.2-3.9-0.5c-4.3-1-7.8-3.4-9.9-4.9c-1-0.7-2.5-0.7-3.3,0.6l-2.4,4.3l-2,3.6
	c-0.7,1.3-0.4,2.1,0.4,2.9c2.2,2.2,9.2,7.5,21.9,7.5c11.4,0,19.1-6.4,21.9-14c0.7-2,1.1-4.1,1.1-6.1c0-3.1-0.6-5.6-1.6-7.9
	c-3.3-7.3-11-10.9-17.4-14c-0.2-0.1-0.4-0.2-0.6-0.3C728.6,250.7,724.8,248.2,724.8,245"/>
<g class="st1">
	<g>
		<defs>
			<rect id="SVGID_00000097466824661958591930000014827771240815696816_" x="38.5" y="296" width="624.5" height="56.1"/>
		</defs>
		<clipPath id="SVGID_00000101085352585963305770000012765860175347851446_">
			<use xlink:href="#SVGID_00000097466824661958591930000014827771240815696816_"  style="overflow:visible;"/>
		</clipPath>
		<path style="clip-path:url(#SVGID_00000101085352585963305770000012765860175347851446_);fill:#FFFFFF;" d="M114.3,341.6
			c0.7-0.7,0.8-1.9,0.1-2.6l-1.8-1.9l-5.8-6.1c-0.6-0.7-1.8-0.7-2.5-0.1c-3.5,3-7.7,4.7-13,4.7c-8.4,0-15.1-5.2-17.8-12.5
			c-0.9-2.3-1.3-4.7-1.3-7.3c0-2.3,0.4-4.6,1.1-6.7H56.2c-0.5,2.3-0.7,4.7-0.7,7.1c0,2.4,0.2,4.7,0.7,6.9c1,5.2,3.2,9.9,6.3,14
			c6.4,8.5,16.6,14,28.2,14C99.3,351,107.7,348,114.3,341.6 M271.9,347.9l-1.8-10.9l-2.4-14l-2.4-14h-24l-7.5,14l-0.5,1h-0.2l-0.5-1
			l-7.5-14h-24l-2.4,14l-2.4,14l-1.8,10.9c-0.2,1.3,0.7,2.1,1.8,2.1H208c1,0,1.8-0.8,1.9-1.6l1.6-11.5l2-14l0.7-4.6h0.2l2.4,4.6
			l7.3,14l6.8,12.9c0.3,0.6,1.1,1.1,1.7,1.1h1.8c0.5,0,1.4-0.5,1.7-1.1l6.7-12.9l7.3-14l2.4-4.6h0.2l0.7,4.6l2,14l1.7,11.5
			c0.1,0.8,1,1.6,1.8,1.6h11.5C271.2,350.1,272.1,349.2,271.9,347.9 M333.9,337c1.9-3.5,3-7.5,3-11.9V323v-14h-15.7v14v1.4
			c0,7.1-5.2,11.1-12.2,11.1c-6.9,0-12-4-12-11.1V323v-14h-15.7v14v2.1c0,4.3,1.1,8.4,3,11.9c4.6,8.5,13.9,14,24.7,14
			C320,351,329.3,345.5,333.9,337 M409.8,349.3V337v-14v-14h-15.4v9.3h-0.1l-9.7-9.3h-33.4l0,14l0,14l0,11.2c0,1,0.9,1.9,1.9,1.9
			h11.6c1.1,0,1.9-0.9,1.9-1.9V337v-14v-11.1h0.1l11,11.1l13.9,14l12.9,12.9c0.8,0.8,1.5,1.1,2.4,1.1h1
			C408.9,351,409.8,350.5,409.8,349.3 M440,348.2V337v-14v-14h-15.4v14v14v11.2c0,1,0.9,1.9,1.8,1.9h11.7
			C439.1,350.1,440,349.2,440,348.2 M645.2,323c0.5-2.3,0.8-4.7,0.8-7.1c0-2.4-0.3-4.7-0.7-6.9h-16.5c0.7,2.1,1,4.5,1,6.9
			c0,2.5-0.4,4.9-1.1,7.1c-2.4,7.5-8.5,12.7-17,12.7h-10.2V323v-14h-15.2v14v14v11.2c0,1,0.8,1.9,1.8,1.9h23.8
			c10.8,0,20.5-5.1,26.8-13C641.8,333,644.1,328.2,645.2,323"/>
	</g>
</g>
<g class="st3">
	<g>
		<defs>
			<rect id="SVGID_00000083775137286184944290000006749171657880302225_" x="39.2" y="350.6" width="557.3" height="42"/>
		</defs>
		<clipPath id="SVGID_00000117678733090330912080000015871009017173711745_">
			<use xlink:href="#SVGID_00000083775137286184944290000006749171657880302225_"  style="overflow:visible;"/>
		</clipPath>
		<path style="clip-path:url(#SVGID_00000117678733090330912080000015871009017173711745_);fill:#FFFFFF;" d="M114.3,382.2
			c0.7-0.7,0.8-1.9,0.1-2.6l-1.8-1.9l-5.8-6.1c-0.6-0.7-1.9-0.7-2.5-0.1c-3.5,3-7.7,4.7-13,4.7c-8.4,0-15.1-5.2-17.8-12.5H56.2
			c1,5.2,3.2,9.9,6.3,14c6.4,8.5,16.6,14,28.2,14C99.3,391.7,107.7,388.7,114.3,382.2 M181.8,377.7c3-4.1,5.2-8.8,6.3-14h-16.2
			c-2.8,7.2-9.9,12.5-18.2,12.5c-8.2,0-15.2-5.2-18.1-12.5h-16.2c1,5.2,3.2,9.9,6.2,14c6.3,8.5,16.5,14,28,14
			C165.3,391.7,175.4,386.2,181.8,377.7 M333.9,377.7c1.9-3.5,3-7.5,3-11.9v-2.1h-15.7v1.4c0,7.1-5.2,11.1-12.2,11.1
			c-6.9,0-12-4-12-11.1v-1.4h-15.7v2.1c0,4.3,1.1,8.4,3,11.9c4.6,8.5,13.9,14,24.7,14C320,391.7,329.3,386.1,333.9,377.7
			 M366.6,388.8v-11.2v-14h-15.3l0,14l0,11.2c0,1,0.9,1.9,1.8,1.9h11.6C365.8,390.7,366.6,389.8,366.6,388.8 M409.8,389.9v-12.3v-14
			h-32.1l13.9,14l12.9,12.9c0.8,0.8,1.5,1.1,2.4,1.1h1C408.9,391.7,409.8,391.1,409.8,389.9 M507,377.7c3.2-4,5.5-8.8,6.6-14h-16.5
			c-2.4,7.5-8.5,12.7-17,12.7h-10.2v-12.7h-15.2v14v11.2c0,1,0.8,1.9,1.8,1.9h23.8C491,390.7,500.7,385.6,507,377.7 M579.3,388.2
			l-4.9-10.5l-6.5-14h-15.5l1.7,3.7h-14.8l1.7-3.7h-15.5l-6.5,14l-4.9,10.5c-0.6,1.3,0.2,2.5,1.7,2.5h10.7c1.9,0,3-1.2,3.5-2.3
			l3.5-7.8h26.5l3.5,7.7c0.9,1.8,1.7,2.4,3.4,2.4h10.8C579.1,390.7,579.9,389.4,579.3,388.2"/>
	</g>
</g>
<g class="st3">
	<g>
		<defs>
			<rect id="SVGID_00000096753246103824587380000016502288229277515153_" x="45.5" y="391.3" width="478.5" height="28"/>
		</defs>
		<clipPath id="SVGID_00000053533246913439606200000001451446689414994336_">
			<use xlink:href="#SVGID_00000096753246103824587380000016502288229277515153_"  style="overflow:visible;"/>
		</clipPath>
		<path style="clip-path:url(#SVGID_00000053533246913439606200000001451446689414994336_);fill:#FFFFFF;" d="M114.3,408.8
			c0.7-0.7,0.8-1.9,0.1-2.6l-1.8-1.9H62.5c6.4,8.5,16.6,14,28.2,14C99.3,418.3,107.7,415.3,114.3,408.8 M181.8,404.3h-56.2
			c6.3,8.5,16.5,14,28,14S175.4,412.8,181.8,404.3 M333.9,404.3h-49.5c4.6,8.5,13.9,14,24.7,14C320,418.3,329.3,412.7,333.9,404.3
			 M366.6,415.5v-11.2h-15.3l0,11.2c0,1,0.9,1.8,1.9,1.8h11.6C365.8,417.3,366.6,416.4,366.6,415.5 M409.8,416.5v-12.3h-18.1
			l12.9,12.9c0.8,0.8,1.5,1.1,2.4,1.1h1C408.9,418.3,409.8,417.7,409.8,416.5 M440,415.5v-11.2h-15.4v11.2c0,1,0.9,1.8,1.8,1.8h11.7
			C439.1,417.3,440,416.4,440,415.5 M507,404.3h-52.3v11.2c0,1,0.8,1.8,1.8,1.8h23.8C491,417.3,500.7,412.2,507,404.3"/>
	</g>
</g>
</svg>
