<?xml version="1.0" encoding="utf-8"?>
<!-- Generator: Adobe Illustrator 26.0.3, SVG Export Plug-In . SVG Version: 6.00 Build 0)  -->
<svg version="1.1" id="Capa_1" xmlns="http://www.w3.org/2000/svg" xmlns:xlink="http://www.w3.org/1999/xlink" x="0px" y="0px"
	 viewBox="0 0 820 430" style="enable-background:new 0 0 820 430;" xml:space="preserve">
<style type="text/css">
	.st0{fill:#FFFFFF;}
	.st1{opacity:0.4;}
	.st2{clip-path:url(#SVGID_00000038374070054746883680000014180453249928388031_);fill:#FFFFFF;}
	.st3{clip-path:url(#SVGID_00000088820968087193174680000012130273695865225662_);fill:#FFFFFF;}
	.st4{clip-path:url(#SVGID_00000083080037059000431820000006328567417925914815_);fill:#FFFFFF;}
	.st5{clip-path:url(#SVGID_00000119837347021059328700000018312382058563816891_);fill:#FFFFFF;}
	.st6{clip-path:url(#SVGID_00000087373343675834833490000002999707669294848446_);fill:#FFFFFF;}
	.st7{clip-path:url(#SVGID_00000176040570188194689940000016150047471634323586_);fill:#FFFFFF;}
	.st8{clip-path:url(#SVGID_00000161628438925929889060000014733859282756259478_);fill:#FFFFFF;}
	.st9{opacity:0.2;}
	.st10{clip-path:url(#SVGID_00000025438864291419928140000012359074737532672902_);fill:#FFFFFF;}
	.st11{clip-path:url(#SVGID_00000155859106701763670960000015071163993136693946_);fill:#FFFFFF;}
	.st12{clip-path:url(#SVGID_00000083782009535702720970000010248662240822953139_);fill:#FFFFFF;}
	.st13{clip-path:url(#SVGID_00000163070700019500135340000016436844057721495428_);fill:#FFFFFF;}
	.st14{clip-path:url(#SVGID_00000113340762807708771160000003592277593210591411_);fill:#FFFFFF;}
	.st15{clip-path:url(#SVGID_00000034809655660835603590000000843797428945314717_);fill:#FFFFFF;}
	.st16{clip-path:url(#SVGID_00000145738006909409477050000012603025672297357995_);fill:#FFFFFF;}
	.st17{clip-path:url(#SVGID_00000163768191278666077090000004047932927406317441_);fill:#FFFFFF;}
	.st18{clip-path:url(#SVGID_00000058558057686418915340000002587725185277585049_);fill:#FFFFFF;}
	.st19{clip-path:url(#SVGID_00000171698007037998562250000009702240477472664237_);fill:#FFFFFF;}
	.st20{clip-path:url(#SVGID_00000087391060344309889250000006788742045267617418_);fill:#FFFFFF;}
	.st21{clip-path:url(#SVGID_00000114037557702163376020000008745025903953597862_);fill:#FFFFFF;}
	.st22{clip-path:url(#SVGID_00000136374449737923434050000002481368176539072702_);fill:#FFFFFF;}
	.st23{clip-path:url(#SVGID_00000181777873106525722840000002363261287596412853_);fill:#FFFFFF;}
	.st24{clip-path:url(#SVGID_00000065069858401046596420000000880952981130458543_);fill:#FFFFFF;}
	.st25{clip-path:url(#SVGID_00000121995644582120680850000014409814144788680090_);fill:#FFFFFF;}
	.st26{clip-path:url(#SVGID_00000165956053897796400640000005971631719097455494_);fill:#FFFFFF;}
	.st27{clip-path:url(#SVGID_00000024709983616363220870000016517999172640930731_);fill:#FFFFFF;}
	.st28{clip-path:url(#SVGID_00000092440731647926917670000005945897912798943919_);fill:#FFFFFF;}
	.st29{clip-path:url(#SVGID_00000075145521814944702010000017506994843303655045_);fill:#FFFFFF;}
	.st30{clip-path:url(#SVGID_00000047059942997347003770000002403330404839719809_);fill:#FFFFFF;}
	.st31{clip-path:url(#SVGID_00000110464357639718223190000003676383781338549689_);fill:#FFFFFF;}
	.st32{clip-path:url(#SVGID_00000037658978307946617250000006680022373757055662_);fill:#FFFFFF;}
	.st33{clip-path:url(#SVGID_00000114066393893539230510000003161646258709611961_);fill:#FFFFFF;}
	.st34{clip-path:url(#SVGID_00000090277805700841275710000002236886596849187723_);fill:#FFFFFF;}
	.st35{clip-path:url(#SVGID_00000098921688043793657560000010141225175558747305_);fill:#FFFFFF;}
	.st36{clip-path:url(#SVGID_00000022552810468779387120000004922289460070758842_);fill:#FFFFFF;}
	.st37{clip-path:url(#SVGID_00000183236653299715453910000000634143385810326971_);fill:#FFFFFF;}
	.st38{clip-path:url(#SVGID_00000124868611091883600180000011658870047837822139_);fill:#FFFFFF;}
	.st39{clip-path:url(#SVGID_00000003107114829817800350000007942085350526697919_);fill:#FFFFFF;}
	.st40{clip-path:url(#SVGID_00000132805510788151581830000016204085517200222135_);fill:#FFFFFF;}
	.st41{clip-path:url(#SVGID_00000060000452574902012530000016542950056673885866_);fill:#FFFFFF;}
	.st42{clip-path:url(#SVGID_00000160886242510310070820000007745376891717722787_);fill:#FFFFFF;}
	.st43{clip-path:url(#SVGID_00000183962505265780154910000015664372719247187077_);fill:#FFFFFF;}
	.st44{clip-path:url(#SVGID_00000183207196387017792030000008654562532399202465_);fill:#FFFFFF;}
	.st45{clip-path:url(#SVGID_00000092445403999499592200000013661925777106640298_);fill:#FFFFFF;}
	.st46{clip-path:url(#SVGID_00000164477127805183099850000012284984438105103745_);fill:#FFFFFF;}
	.st47{clip-path:url(#SVGID_00000028286787115199344750000012511852736174565779_);fill:#FFFFFF;}
	.st48{clip-path:url(#SVGID_00000160153003410060673790000014865382763396890276_);fill:#FFFFFF;}
	.st49{clip-path:url(#SVGID_00000103224044072223666800000016153979128173631150_);fill:#FFFFFF;}
	.st50{clip-path:url(#SVGID_00000004506353529148430490000001557441274406342040_);fill:#FFFFFF;}
	.st51{clip-path:url(#SVGID_00000020375201814918763250000002287334028792297636_);fill:#FFFFFF;}
	.st52{clip-path:url(#SVGID_00000109721310017280371740000012847316661186038975_);fill:#FFFFFF;}
	.st53{clip-path:url(#SVGID_00000158717840065280775640000005732321333397498789_);fill:#FFFFFF;}
	.st54{clip-path:url(#SVGID_00000112609100115249058310000008924385806328521109_);fill:#FFFFFF;}
	.st55{clip-path:url(#SVGID_00000134931115454785865620000004449355098247545480_);fill:#FFFFFF;}
	.st56{clip-path:url(#SVGID_00000020399236956289221160000011144730503003067581_);fill:#FFFFFF;}
	.st57{clip-path:url(#SVGID_00000105396790627566417090000006243758642644319878_);fill:#FFFFFF;}
</style>
<g>
	<path class="st0" d="M276.2,175.5h-9v-2v-11.7h9c3.8,0,6.5,2.9,6.5,6.6c0,2-0.7,3.8-1.9,5.1C279.7,174.8,278.1,175.5,276.2,175.5
		 M276.4,148.7h-21.5c-1,0-1.7,0.8-1.7,1.7v10.3v12.9v12.9v12.9v10.3c0,0.9,0.7,1.7,1.7,1.7h10.5c0.9,0,1.7-0.8,1.7-1.7v-10.3v-10.7
		h9.4c3.4,0,6.5-0.8,9.2-2.1c5.1-2.6,8.7-7.2,10.1-12.9c0.4-1.6,0.6-3.3,0.6-5.1c0-2.8-0.5-5.4-1.5-7.8
		C292,153.7,285.2,148.7,276.4,148.7"/>
	<path class="st0" d="M520.8,148.7h-10.7c-0.9,0-1.7,0.8-1.7,1.7v10.3v12.9v12.9v12.9v10.3c0,0.9,0.8,1.7,1.7,1.7h10.7
		c0.9,0,1.7-0.8,1.7-1.7v-10.3v-12.9v-12.9v-12.9v-10.3C522.5,149.5,521.7,148.7,520.8,148.7"/>
	<path class="st0" d="M77.5,161.3c4.4,0,8.4,1.3,12.1,4.6c0.6,0.6,1.6,0.6,2.2,0l5-5.2l2-2.1c0.7-0.7,0.7-1.8-0.1-2.5
		c-6.1-5.5-12.7-8.3-21.6-8.3c-10.6,0-19.9,5.1-25.8,12.9c-2.8,3.7-4.9,8.1-5.8,12.9c-0.4,2.1-0.7,4.3-0.7,6.5
		c0,2.2,0.2,4.3,0.6,6.3c0.9,4.8,3,9.1,5.8,12.9c5.9,7.8,15.2,12.9,25.8,12.9c7.9,0,15.6-2.8,21.7-8.7c0.6-0.6,0.7-1.8,0.1-2.4
		l-1.7-1.8l-5.3-5.6c-0.5-0.6-1.7-0.6-2.3-0.1c-3.2,2.8-7.1,4.3-12,4.3c-7.7,0-13.9-4.8-16.4-11.4c-0.8-2.1-1.2-4.3-1.2-6.7
		c0-2.2,0.4-4.2,1-6.2C63.3,166.5,69.6,161.3,77.5,161.3"/>
	<path class="st0" d="M134.8,197.8c-7.5,0-14-4.8-16.6-11.4c-0.8-2-1.2-4.1-1.2-6.3c0-2.3,0.5-4.5,1.3-6.5
		c2.6-6.7,9.1-11.4,16.5-11.4c7.5,0,14,4.8,16.6,11.4c0.8,2,1.3,4.2,1.3,6.5c0,2.2-0.4,4.4-1.2,6.3
		C148.9,193.1,142.4,197.8,134.8,197.8 M160.5,160.7c-5.8-7.8-15.1-12.9-25.7-12.9s-19.8,5.1-25.6,12.9c-2.8,3.7-4.8,8.1-5.8,12.9
		c-0.4,2.1-0.6,4.3-0.6,6.5c0,2.2,0.2,4.3,0.6,6.3c0.9,4.8,2.9,9.1,5.7,12.9c5.8,7.8,15.1,12.9,25.7,12.9c10.6,0,19.9-5,25.8-12.9
		c2.8-3.7,4.8-8.1,5.7-12.9c0.4-2,0.6-4.2,0.6-6.3c0-2.2-0.2-4.4-0.6-6.5C165.4,168.8,163.3,164.4,160.5,160.7"/>
	<path class="st0" d="M390,197.8c-7.5,0-14-4.8-16.6-11.4c-0.8-2-1.2-4.1-1.2-6.3c0-2.3,0.5-4.5,1.3-6.5c2.6-6.7,9.1-11.4,16.5-11.4
		c7.5,0,14,4.8,16.6,11.4c0.8,2,1.3,4.2,1.3,6.5c0,2.2-0.4,4.4-1.2,6.3C404,193.1,397.6,197.8,390,197.8 M415.7,160.7
		c-5.8-7.8-15.1-12.9-25.7-12.9c-10.6,0-19.8,5.1-25.6,12.9c-2.8,3.7-4.8,8.1-5.8,12.9c-0.4,2.1-0.6,4.3-0.6,6.5
		c0,2.2,0.2,4.3,0.6,6.3c0.9,4.8,2.9,9.1,5.7,12.9c5.8,7.8,15.1,12.9,25.7,12.9c10.6,0,19.9-5,25.8-12.9c2.8-3.7,4.8-8.1,5.7-12.9
		c0.4-2,0.6-4.2,0.6-6.3c0-2.2-0.2-4.4-0.6-6.5C420.5,168.8,418.5,164.4,415.7,160.7"/>
	<path class="st0" d="M318,161.5h13.2c3.7,0,6.8,2.6,6.8,6.8c0,2.2-0.8,4-2.2,5.3c-1.2,1.2-2.9,1.9-4.6,1.9H318v-1.9V161.5z
		 M351,173.6c0.5-1.7,0.8-3.6,0.8-5.5c0-2.6-0.5-5.1-1.4-7.3c-2.8-7-9.5-12-18.1-12h-26.7c-1,0-1.7,0.8-1.7,1.7v10.3v12.9v12.9v12.9
		v10.3c0,0.9,0.7,1.7,1.7,1.7h10.6c0.9,0,1.7-0.8,1.7-1.7v-10.3v-12.5h6.2l6.3,12.5l5.6,11.2c0.2,0.4,0.7,0.8,1.4,0.8h11.9
		c1.5,0,2.1-1.4,1.5-2.6l-5.1-9.4l-6.9-12.9l-0.2-0.4C344.9,183.6,349.3,179.2,351,173.6"/>
	<path class="st0" d="M557.4,173.6c-0.2-0.1-0.4-0.2-0.6-0.3c-6.3-3-9.7-5.4-9.7-8.3c0-1.8,0.8-3.4,2.6-4.3c0.8-0.4,1.7-0.6,2.9-0.6
		c1.3,0,2.5,0.2,3.8,0.6c3.5,1,6.7,3.1,8.3,4.2c1.8,1.1,3.3,0.4,3.9-0.6l2.4-3.6l2.2-3.3c0.4-0.6,0.5-2.2-0.5-2.9
		c-2.7-2-9.8-6.7-19.1-6.7c-11.2,0-17.8,5.9-19.9,12.9c-0.5,1.6-0.7,3.3-0.7,4.9c0,3.1,0.7,5.7,2,7.9c3,5.5,9.2,8.8,15.3,11.8
		c0.8,0.4,1.5,0.7,2.1,1.1c4.6,2.4,7.1,4.7,7.1,7.9c0,2.3-1.4,4.1-3.6,4.9c-0.8,0.3-1.6,0.4-2.6,0.4c-1.3,0-2.5-0.2-3.6-0.4
		c-4-0.9-7.1-3.1-9.1-4.5c-0.9-0.6-2.3-0.6-3,0.5l-2.2,3.9l-1.9,3.3c-0.6,1.2-0.4,2,0.4,2.7c2.1,2.1,8.5,6.9,20.1,6.9
		c10.4,0,17.6-5.8,20.1-12.9c0.7-1.8,1-3.7,1-5.6c0-2.8-0.6-5.2-1.5-7.2C570.3,179.7,563.3,176.4,557.4,173.6"/>
	<path class="st0" d="M612.6,197.8c-7.5,0-14-4.8-16.6-11.4c-0.8-2-1.2-4.1-1.2-6.3c0-2.3,0.5-4.5,1.3-6.5
		c2.6-6.7,9.1-11.4,16.5-11.4c7.5,0,14,4.8,16.6,11.4c0.8,2,1.3,4.2,1.3,6.5c0,2.2-0.4,4.4-1.2,6.3
		C626.6,193.1,620.1,197.8,612.6,197.8 M644.1,173.6c-1-4.8-3-9.1-5.8-12.9c-5.8-7.8-15.1-12.9-25.7-12.9s-19.8,5.1-25.6,12.9
		c-2.8,3.7-4.8,8.1-5.8,12.9c-0.4,2.1-0.6,4.3-0.6,6.5c0,2.2,0.2,4.3,0.6,6.3c0.9,4.8,2.9,9.1,5.7,12.9c5.8,7.8,15.1,12.9,25.7,12.9
		c10.6,0,19.9-5,25.8-12.9c2.8-3.7,4.8-8.1,5.7-12.9c0.4-2,0.6-4.2,0.6-6.3C644.7,177.8,644.5,175.7,644.1,173.6"/>
	<path class="st0" d="M239.5,186.4l-2.2-12.9l-2.2-12.9l-1.9-11.4c-0.1-0.8-0.9-1.4-1.6-1.4h-1.4c-0.4,0-1.3,0.4-1.5,0.9l-6.4,12
		l-6.9,12.9l-6.9,12.9l-0.5,0.9h-0.2l-0.5-0.9l-6.9-12.9l-6.9-12.9l-6.4-12c-0.3-0.5-1.1-0.9-1.5-0.9h-1.4c-0.7,0-1.5,0.6-1.6,1.4
		l-1.9,11.4l-2.2,12.9l-2.2,12.9l-2.2,12.9l-1.7,10c-0.2,1.2,0.6,2,1.7,2h10.5c0.9,0,1.6-0.7,1.7-1.4l1.5-10.5l1.8-12.9l0.6-4.2h0.2
		l2.2,4.2l6.7,12.9l6.2,11.9c0.3,0.5,1,1,1.5,1h1.6c0.4,0,1.2-0.4,1.5-1l6.2-11.9l6.7-12.9l2.2-4.2h0.2l0.6,4.2l1.9,12.9l1.5,10.5
		c0.1,0.7,0.9,1.4,1.7,1.4h10.5c1.1,0,1.9-0.8,1.7-2l-1.7-10L239.5,186.4z"/>
	<path class="st0" d="M494.6,186.4l-2.2-12.9l-2.2-12.9l-1.9-11.4c-0.1-0.8-0.9-1.4-1.6-1.4h-1.4c-0.4,0-1.2,0.4-1.5,0.9l-6.4,12
		l-6.9,12.9l-6.9,12.9l-0.5,0.9h-0.2l-0.5-0.9l-6.9-12.9l-6.9-12.9l-6.4-12c-0.3-0.5-1.1-0.9-1.5-0.9h-1.4c-0.7,0-1.5,0.6-1.6,1.4
		l-1.9,11.4l-2.2,12.9l-2.2,12.9l-2.2,12.9l-1.7,10c-0.2,1.2,0.6,2,1.7,2h10.5c0.9,0,1.6-0.7,1.7-1.4l1.5-10.5l1.8-12.9l0.6-4.2h0.2
		l2.2,4.2l6.7,12.9l6.2,11.9c0.3,0.5,1,1,1.5,1h1.6c0.4,0,1.2-0.4,1.5-1l6.2-11.9l6.7-12.9l2.2-4.2h0.2l0.6,4.2l1.9,12.9l1.5,10.5
		c0.1,0.7,0.9,1.4,1.7,1.4h10.5c1.1,0,1.9-0.8,1.7-2l-1.7-10L494.6,186.4z"/>
	<g class="st1">
		<g>
			<defs>
				<rect id="SVGID_1_" x="577.9" y="90.7" width="69.3" height="20.9"/>
			</defs>
			<clipPath id="SVGID_00000142860363364861199020000016009087567682664835_">
				<use xlink:href="#SVGID_1_"  style="overflow:visible;"/>
			</clipPath>
			<path style="clip-path:url(#SVGID_00000142860363364861199020000016009087567682664835_);fill:#FFFFFF;" d="M612.6,97.7
				c-10.6,0-19.8,5.1-25.6,12.9h51.3C632.4,102.8,623.1,97.7,612.6,97.7"/>
		</g>
	</g>
	<g class="st1">
		<g>
			<defs>
				<rect id="SVGID_00000180353388688147497630000012410757568208890774_" x="35.8" y="90.7" width="72.5" height="46.6"/>
			</defs>
			<clipPath id="SVGID_00000066514882012906787560000007173501611450617781_">
				<use xlink:href="#SVGID_00000180353388688147497630000012410757568208890774_"  style="overflow:visible;"/>
			</clipPath>
			<path style="clip-path:url(#SVGID_00000066514882012906787560000007173501611450617781_);fill:#FFFFFF;" d="M77,97.7
				c-10.6,0-19.9,5.1-25.8,12.9c-2.8,3.7-4.9,8.1-5.8,12.9c-0.4,2.1-0.7,4.3-0.7,6.5c0,2.2,0.2,4.3,0.6,6.3h15.8
				c-0.8-2.1-1.2-4.3-1.2-6.7c0-2.2,0.4-4.2,1-6.2c2.3-7.1,8.6-12.2,16.5-12.2c4.4,0,8.4,1.3,12.1,4.6c0.6,0.6,1.6,0.6,2.2,0l5-5.2
				l2-2.1c0.7-0.7,0.7-1.8-0.1-2.5C92.6,100.5,86,97.7,77,97.7"/>
		</g>
	</g>
	<g class="st1">
		<g>
			<defs>
				<rect id="SVGID_00000085239155802528494310000017340372750770543275_" x="244.2" y="91.6" width="61.2" height="45.7"/>
			</defs>
			<clipPath id="SVGID_00000105421240873950017140000018411387425038498196_">
				<use xlink:href="#SVGID_00000085239155802528494310000017340372750770543275_"  style="overflow:visible;"/>
			</clipPath>
			<path style="clip-path:url(#SVGID_00000105421240873950017140000018411387425038498196_);fill:#FFFFFF;" d="M276.2,125.4h-9v-2
				v-11.7h9c3.8,0,6.5,2.9,6.5,6.6c0,2-0.7,3.8-1.9,5.1C279.7,124.6,278.1,125.4,276.2,125.4 M276.4,98.6h-21.5
				c-1,0-1.7,0.8-1.7,1.7v10.3v12.9v12.9h32.5c5.1-2.6,8.7-7.2,10.1-12.9c0.4-1.6,0.6-3.3,0.6-5.1c0-2.8-0.5-5.4-1.5-7.8
				C292,103.6,285.2,98.6,276.4,98.6"/>
		</g>
	</g>
	<g class="st1">
		<g>
			<defs>
				<rect id="SVGID_00000115491004955401396600000004440493583265481885_" x="294.9" y="91.6" width="65.9" height="45.7"/>
			</defs>
			<clipPath id="SVGID_00000026883406808919609600000010852374786843199393_">
				<use xlink:href="#SVGID_00000115491004955401396600000004440493583265481885_"  style="overflow:visible;"/>
			</clipPath>
			<path style="clip-path:url(#SVGID_00000026883406808919609600000010852374786843199393_);fill:#FFFFFF;" d="M331.2,125.3H318
				v-1.9v-12.1h13.2c3.7,0,6.8,2.6,6.8,6.8c0,2.2-0.8,4-2.2,5.3C334.6,124.6,332.9,125.3,331.2,125.3 M332.3,98.6h-26.7
				c-1,0-1.7,0.8-1.7,1.7v10.3v12.9v12.9h34.9l-0.2-0.4c6.3-2.4,10.7-6.8,12.4-12.4c0.5-1.7,0.8-3.6,0.8-5.5c0-2.6-0.5-5.1-1.4-7.3
				C347.6,103.5,340.9,98.6,332.3,98.6"/>
		</g>
	</g>
	<g class="st1">
		<g>
			<defs>
				<rect id="SVGID_00000031922306381394961190000004165657406773633670_" x="499.4" y="91.6" width="32.1" height="45.7"/>
			</defs>
			<clipPath id="SVGID_00000093891897276212805860000005953542684366634929_">
				<use xlink:href="#SVGID_00000031922306381394961190000004165657406773633670_"  style="overflow:visible;"/>
			</clipPath>
			<path style="clip-path:url(#SVGID_00000093891897276212805860000005953542684366634929_);fill:#FFFFFF;" d="M520.8,98.6h-10.7
				c-0.9,0-1.7,0.8-1.7,1.7v10.3v12.9v12.9h14.1v-12.9v-12.9v-10.3C522.5,99.4,521.7,98.6,520.8,98.6"/>
		</g>
	</g>
	<g class="st1">
		<g>
			<defs>
				<rect id="SVGID_00000116210958694301223820000013931822136265651334_" x="454.6" y="90.7" width="49" height="46.6"/>
			</defs>
			<clipPath id="SVGID_00000084524403861058106180000017153659623010413469_">
				<use xlink:href="#SVGID_00000116210958694301223820000013931822136265651334_"  style="overflow:visible;"/>
			</clipPath>
			<path style="clip-path:url(#SVGID_00000084524403861058106180000017153659623010413469_);fill:#FFFFFF;" d="M490.3,110.6
				l-1.9-11.4c-0.1-0.8-0.9-1.4-1.6-1.4h-1.4c-0.4,0-1.2,0.4-1.5,0.9l-6.4,12l-6.9,12.9l-6.9,12.9h14.6l2.2-4.2h0.2l0.6,4.2h13.5
				l-2.2-12.9L490.3,110.6z"/>
		</g>
	</g>
	<g class="st1">
		<g>
			<defs>
				<rect id="SVGID_00000002342867821127714910000018390300310351376789_" x="422.4" y="90.7" width="49" height="46.6"/>
			</defs>
			<clipPath id="SVGID_00000129174051569658443980000013435153874440604300_">
				<use xlink:href="#SVGID_00000002342867821127714910000018390300310351376789_"  style="overflow:visible;"/>
			</clipPath>
			<path style="clip-path:url(#SVGID_00000129174051569658443980000013435153874440604300_);fill:#FFFFFF;" d="M448.6,110.6l-6.4-12
				c-0.3-0.5-1.1-0.9-1.5-0.9h-1.4c-0.7,0-1.5,0.6-1.6,1.4l-1.9,11.4l-2.2,12.9l-2.2,12.9h13.4l0.6-4.2h0.2l2.2,4.2h14.7l-6.9-12.9
				L448.6,110.6z"/>
		</g>
	</g>
	<g class="st9">
		<g>
			<defs>
				<rect id="SVGID_00000073703685732197319540000014187931844241692565_" x="169.4" y="53.4" width="40" height="33.7"/>
			</defs>
			<clipPath id="SVGID_00000103246962202314837730000013476060980053649573_">
				<use xlink:href="#SVGID_00000073703685732197319540000014187931844241692565_"  style="overflow:visible;"/>
			</clipPath>
			<path style="clip-path:url(#SVGID_00000103246962202314837730000013476060980053649573_);fill:#FFFFFF;" d="M187,61.3
				c-0.3-0.5-1.1-0.9-1.5-0.9h-1.4c-0.7,0-1.5,0.6-1.6,1.4l-1.9,11.4l-2.2,12.9h22l-6.9-12.9L187,61.3z"/>
		</g>
	</g>
	<g class="st9">
		<g>
			<defs>
				<rect id="SVGID_00000170970202765315988020000000875930708385601923_" x="206.3" y="53.4" width="40" height="33.7"/>
			</defs>
			<clipPath id="SVGID_00000052824820656293524350000015921248585809438634_">
				<use xlink:href="#SVGID_00000170970202765315988020000000875930708385601923_"  style="overflow:visible;"/>
			</clipPath>
			<path style="clip-path:url(#SVGID_00000052824820656293524350000015921248585809438634_);fill:#FFFFFF;" d="M233.2,61.9
				c-0.1-0.8-0.9-1.4-1.6-1.4h-1.4c-0.4,0-1.3,0.4-1.5,0.9l-6.4,12l-6.9,12.9h22l-2.2-12.9L233.2,61.9z"/>
		</g>
	</g>
	<g class="st9">
		<g>
			<defs>
				<rect id="SVGID_00000150094095160006527610000015975112164044270767_" x="244.2" y="54.3" width="61.2" height="32.8"/>
			</defs>
			<clipPath id="SVGID_00000127726467160138757030000001119479794328680859_">
				<use xlink:href="#SVGID_00000150094095160006527610000015975112164044270767_"  style="overflow:visible;"/>
			</clipPath>
			<path style="clip-path:url(#SVGID_00000127726467160138757030000001119479794328680859_);fill:#FFFFFF;" d="M276.4,61.3h-21.5
				c-1,0-1.7,0.8-1.7,1.7v10.3v12.9h13.9V74.4h9c3.8,0,6.5,2.9,6.5,6.6c0,2-0.7,3.8-1.9,5.1h15c0.4-1.6,0.6-3.3,0.6-5.1
				c0-2.7-0.5-5.4-1.5-7.8C292,66.3,285.2,61.3,276.4,61.3"/>
		</g>
	</g>
	<g class="st9">
		<g>
			<defs>
				<rect id="SVGID_00000072278403015793993680000013362733973375703194_" x="294.9" y="54.3" width="65.9" height="32.8"/>
			</defs>
			<clipPath id="SVGID_00000078006650986306914990000008504439968745629074_">
				<use xlink:href="#SVGID_00000072278403015793993680000013362733973375703194_"  style="overflow:visible;"/>
			</clipPath>
			<path style="clip-path:url(#SVGID_00000078006650986306914990000008504439968745629074_);fill:#FFFFFF;" d="M332.3,61.3h-26.7
				c-1,0-1.7,0.8-1.7,1.7v10.3v12.9h14V74.1h13.2c3.7,0,6.8,2.6,6.8,6.8c0,2.2-0.8,4-2.2,5.3H351c0.5-1.7,0.8-3.6,0.8-5.5
				c0-2.6-0.5-5.1-1.4-7.3C347.6,66.3,340.9,61.3,332.3,61.3"/>
		</g>
	</g>
	<g class="st9">
		<g>
			<defs>
				<rect id="SVGID_00000044899155734512635730000010408504761578663096_" x="349.6" y="53.4" width="80.9" height="33.7"/>
			</defs>
			<clipPath id="SVGID_00000160894567249706050610000005748374216217925552_">
				<use xlink:href="#SVGID_00000044899155734512635730000010408504761578663096_"  style="overflow:visible;"/>
			</clipPath>
			<path style="clip-path:url(#SVGID_00000160894567249706050610000005748374216217925552_);fill:#FFFFFF;" d="M390,60.4
				c-10.6,0-19.8,5.1-25.6,12.9c-2.8,3.7-4.8,8.1-5.8,12.9h14.9c2.6-6.7,9.1-11.4,16.5-11.4c7.5,0,14,4.8,16.6,11.4h14.9
				c-1-4.8-3-9.1-5.8-12.9C409.8,65.5,400.5,60.4,390,60.4"/>
		</g>
	</g>
	<g class="st9">
		<g>
			<defs>
				<rect id="SVGID_00000013905203438925202650000012568201646533171631_" x="461.5" y="53.4" width="40" height="33.7"/>
			</defs>
			<clipPath id="SVGID_00000009550014714931234050000011934775133556854697_">
				<use xlink:href="#SVGID_00000013905203438925202650000012568201646533171631_"  style="overflow:visible;"/>
			</clipPath>
			<path style="clip-path:url(#SVGID_00000009550014714931234050000011934775133556854697_);fill:#FFFFFF;" d="M488.3,61.9
				c-0.1-0.8-0.9-1.4-1.6-1.4h-1.4c-0.4,0-1.2,0.4-1.5,0.9l-6.4,12l-6.9,12.9h22l-2.2-12.9L488.3,61.9z"/>
		</g>
	</g>
	<g class="st9">
		<g>
			<defs>
				<rect id="SVGID_00000022540447342275029330000006449496031363640735_" x="424.5" y="53.4" width="40" height="33.7"/>
			</defs>
			<clipPath id="SVGID_00000176728851108640695040000007355444210220010664_">
				<use xlink:href="#SVGID_00000022540447342275029330000006449496031363640735_"  style="overflow:visible;"/>
			</clipPath>
			<path style="clip-path:url(#SVGID_00000176728851108640695040000007355444210220010664_);fill:#FFFFFF;" d="M442.2,61.3
				c-0.3-0.5-1.1-0.9-1.5-0.9h-1.4c-0.7,0-1.5,0.6-1.6,1.4l-1.9,11.4l-2.2,12.9h22l-6.9-12.9L442.2,61.3z"/>
		</g>
	</g>
	<g class="st9">
		<g>
			<defs>
				<rect id="SVGID_00000008109388114628204200000003684034860527535770_" x="499.4" y="54.3" width="32.1" height="32.8"/>
			</defs>
			<clipPath id="SVGID_00000011033760386495626180000009205438826441487030_">
				<use xlink:href="#SVGID_00000008109388114628204200000003684034860527535770_"  style="overflow:visible;"/>
			</clipPath>
			<path style="clip-path:url(#SVGID_00000011033760386495626180000009205438826441487030_);fill:#FFFFFF;" d="M520.8,61.3h-10.7
				c-0.9,0-1.7,0.8-1.7,1.7v10.3v12.9h14.1V73.3V63C522.5,62.1,521.7,61.3,520.8,61.3"/>
		</g>
	</g>
	<g class="st9">
		<g>
			<defs>
				<rect id="SVGID_00000088130030835794873210000004581714353868891580_" x="523.8" y="53.4" width="58.6" height="33.7"/>
			</defs>
			<clipPath id="SVGID_00000060738950384388031400000013874301731682094748_">
				<use xlink:href="#SVGID_00000088130030835794873210000004581714353868891580_"  style="overflow:visible;"/>
			</clipPath>
			<path style="clip-path:url(#SVGID_00000060738950384388031400000013874301731682094748_);fill:#FFFFFF;" d="M553.4,60.4
				c-11.2,0-17.8,5.9-19.9,12.9c-0.5,1.6-0.7,3.3-0.7,4.9c0,3.1,0.7,5.7,2,7.9h22.6c-0.2-0.1-0.4-0.2-0.6-0.3
				c-6.3-3-9.7-5.4-9.7-8.3c0-1.8,0.8-3.4,2.6-4.3c0.8-0.4,1.7-0.6,2.9-0.6c1.3,0,2.5,0.2,3.8,0.6c3.5,1,6.7,3.1,8.3,4.2
				c1.8,1.1,3.3,0.4,3.9-0.6l2.4-3.6l2.2-3.3c0.4-0.6,0.5-2.2-0.5-2.9C569.8,65.2,562.7,60.4,553.4,60.4"/>
		</g>
	</g>
	<g class="st9">
		<g>
			<defs>
				<rect id="SVGID_00000032649332679552270870000001728678192860427177_" x="572.2" y="53.4" width="80.9" height="33.7"/>
			</defs>
			<clipPath id="SVGID_00000011747098205952820880000014515833803548778402_">
				<use xlink:href="#SVGID_00000032649332679552270870000001728678192860427177_"  style="overflow:visible;"/>
			</clipPath>
			<path style="clip-path:url(#SVGID_00000011747098205952820880000014515833803548778402_);fill:#FFFFFF;" d="M638.3,73.3
				c-5.8-7.8-15.1-12.9-25.7-12.9c-10.6,0-19.8,5.1-25.6,12.9c-2.8,3.7-4.8,8.1-5.8,12.9h14.9c2.6-6.7,9.1-11.4,16.5-11.4
				c7.5,0,14,4.8,16.6,11.4h14.9C643.1,81.4,641.1,77,638.3,73.3"/>
		</g>
	</g>
	<g class="st9">
		<g>
			<defs>
				<rect id="SVGID_00000171679621778504555620000012715507118969262245_" x="100.2" y="24.3" width="69.3" height="20.9"/>
			</defs>
			<clipPath id="SVGID_00000103978820443283441750000009994826829978309548_">
				<use xlink:href="#SVGID_00000171679621778504555620000012715507118969262245_"  style="overflow:visible;"/>
			</clipPath>
			<path style="clip-path:url(#SVGID_00000103978820443283441750000009994826829978309548_);fill:#FFFFFF;" d="M134.8,31.3
				c-10.6,0-19.8,5.1-25.6,12.9h51.3C154.7,36.3,145.4,31.3,134.8,31.3"/>
		</g>
	</g>
	<g class="st9">
		<g>
			<defs>
				<rect id="SVGID_00000029762215162759666770000014626903761181748137_" x="171.6" y="24.3" width="30.9" height="20.9"/>
			</defs>
			<clipPath id="SVGID_00000158726033978152850260000002862042365596047496_">
				<use xlink:href="#SVGID_00000029762215162759666770000014626903761181748137_"  style="overflow:visible;"/>
			</clipPath>
			<path style="clip-path:url(#SVGID_00000158726033978152850260000002862042365596047496_);fill:#FFFFFF;" d="M185.5,31.3h-1.4
				c-0.7,0-1.5,0.6-1.6,1.4l-1.9,11.4h12.9l-6.4-12C186.8,31.6,186,31.3,185.5,31.3"/>
		</g>
	</g>
	<g class="st9">
		<g>
			<defs>
				<rect id="SVGID_00000045579302741712952160000007638601647293471146_" x="213.2" y="24.3" width="30.9" height="20.9"/>
			</defs>
			<clipPath id="SVGID_00000015349224248245749750000017086639294996974737_">
				<use xlink:href="#SVGID_00000045579302741712952160000007638601647293471146_"  style="overflow:visible;"/>
			</clipPath>
			<path style="clip-path:url(#SVGID_00000015349224248245749750000017086639294996974737_);fill:#FFFFFF;" d="M231.6,31.3h-1.4
				c-0.4,0-1.2,0.4-1.5,0.9l-6.4,12h12.9l-1.9-11.4C233.1,31.9,232.3,31.3,231.6,31.3"/>
		</g>
	</g>
	<g class="st9">
		<g>
			<defs>
				<rect id="SVGID_00000078750350182643878170000000034804487129684410_" x="355.3" y="24.3" width="69.3" height="20.9"/>
			</defs>
			<clipPath id="SVGID_00000078743132070895106640000002514019850890424974_">
				<use xlink:href="#SVGID_00000078750350182643878170000000034804487129684410_"  style="overflow:visible;"/>
			</clipPath>
			<path style="clip-path:url(#SVGID_00000078743132070895106640000002514019850890424974_);fill:#FFFFFF;" d="M390,31.3
				c-10.6,0-19.8,5.1-25.6,12.9h51.3C409.8,36.3,400.5,31.3,390,31.3"/>
		</g>
	</g>
	<g class="st9">
		<g>
			<defs>
				<rect id="SVGID_00000137117156035744619760000010215327494376342440_" x="468.4" y="24.3" width="30.9" height="20.9"/>
			</defs>
			<clipPath id="SVGID_00000057858644159707123710000000644110925702003618_">
				<use xlink:href="#SVGID_00000137117156035744619760000010215327494376342440_"  style="overflow:visible;"/>
			</clipPath>
			<path style="clip-path:url(#SVGID_00000057858644159707123710000000644110925702003618_);fill:#FFFFFF;" d="M486.7,31.3h-1.4
				c-0.4,0-1.2,0.4-1.5,0.9l-6.4,12h12.9l-1.9-11.4C488.3,31.9,487.5,31.3,486.7,31.3"/>
		</g>
	</g>
	<g class="st9">
		<g>
			<defs>
				<rect id="SVGID_00000016068832091321345820000000382933739707874748_" x="426.7" y="24.3" width="30.9" height="20.9"/>
			</defs>
			<clipPath id="SVGID_00000172431474512779563250000005633758826264121225_">
				<use xlink:href="#SVGID_00000016068832091321345820000000382933739707874748_"  style="overflow:visible;"/>
			</clipPath>
			<path style="clip-path:url(#SVGID_00000172431474512779563250000005633758826264121225_);fill:#FFFFFF;" d="M440.7,31.3h-1.4
				c-0.7,0-1.5,0.6-1.6,1.4l-1.9,11.4h12.9l-6.4-12C441.9,31.6,441.1,31.3,440.7,31.3"/>
		</g>
	</g>
	<g class="st9">
		<g>
			<defs>
				<rect id="SVGID_00000183250480405591830300000008727750850564043703_" x="499.4" y="25.2" width="32.1" height="20"/>
			</defs>
			<clipPath id="SVGID_00000036973024012838040540000006061113579313919640_">
				<use xlink:href="#SVGID_00000183250480405591830300000008727750850564043703_"  style="overflow:visible;"/>
			</clipPath>
			<path style="clip-path:url(#SVGID_00000036973024012838040540000006061113579313919640_);fill:#FFFFFF;" d="M520.8,32.2h-10.7
				c-0.9,0-1.7,0.8-1.7,1.7v10.3h14.1V33.9C522.5,33,521.7,32.2,520.8,32.2"/>
		</g>
	</g>
	<g class="st9">
		<g>
			<defs>
				<rect id="SVGID_00000136400959503782032770000014324594511140791998_" x="524.5" y="24.3" width="57.8" height="25.6"/>
			</defs>
			<clipPath id="SVGID_00000167362541489526290990000002961446224865681834_">
				<use xlink:href="#SVGID_00000136400959503782032770000014324594511140791998_"  style="overflow:visible;"/>
			</clipPath>
			<path style="clip-path:url(#SVGID_00000167362541489526290990000002961446224865681834_);fill:#FFFFFF;" d="M572.5,38
				c-2.7-2-9.8-6.7-19.1-6.7c-11.2,0-17.8,5.9-19.9,12.9h16.1c0.8-0.4,1.7-0.6,2.9-0.6c1.3,0,2.5,0.2,3.8,0.6c3.5,1,6.7,3.1,8.3,4.2
				c1.8,1.1,3.3,0.4,3.9-0.6l2.4-3.6l2.2-3.3C573.4,40.2,573.6,38.6,572.5,38"/>
		</g>
	</g>
	<path class="st0" d="M145.5,224.6h-11c-1,0-1.7,0.8-1.7,1.7v10.3v12.9v12.9v1.3c0,6.5-4.7,10.2-11.2,10.2c-6.3,0-11-3.7-11-10.2
		v-1.3v-12.9v-12.9v-10.3c0-0.9-0.7-1.7-1.7-1.7H98c-0.9,0-1.7,0.8-1.7,1.7v10.3v12.9v12.9v2c0,4,1,7.7,2.7,10.9
		c4.2,7.8,12.7,12.9,22.6,12.9c10,0,18.6-5.1,22.8-12.9c1.8-3.2,2.8-6.9,2.8-10.9v-2v-12.9v-12.9v-10.3
		C147.2,225.4,146.4,224.6,145.5,224.6"/>
	<path class="st0" d="M245.1,224.6h-39.7c-1,0-1.7,0.8-1.7,1.7v9.7c0,0.2,0,0.4,0.1,0.5c0.2,0.7,0.8,1.2,1.6,1.2h12.8v11.7v12.9
		v12.9v10.3c0,0.9,0.8,1.7,1.7,1.7h10.7c0.9,0,1.7-0.8,1.7-1.7v-10.3v-12.9v-12.9v-11.7h12.8c0.8,0,1.4-0.5,1.6-1.2
		c0.1-0.2,0.1-0.3,0.1-0.5v-9.7C246.8,225.4,246.1,224.6,245.1,224.6"/>
	<path class="st0" d="M292.8,224.6h-37c-1,0-1.7,0.8-1.7,1.7v10.3v12.9v12.9v12.9v10.3c0,0.9,0.7,1.7,1.7,1.7h37
		c1,0,1.7-0.8,1.7-1.7v-9.7c0-0.2,0-0.4-0.1-0.5c-0.2-0.7-0.8-1.2-1.6-1.2h-24.7v-11.7v-0.4h20.4c0.9,0,1.7-0.7,1.7-1.7v-9.7
		c0-0.4-0.2-0.8-0.4-1.1c-0.3-0.4-0.8-0.6-1.3-0.6h-20.4v-11.1h24.7c0.8,0,1.4-0.5,1.6-1.2c0.1-0.2,0.1-0.3,0.1-0.5v-9.7
		C294.5,225.4,293.8,224.6,292.8,224.6"/>
	<path class="st0" d="M357.8,224.6h-10.7c-1,0-1.7,0.8-1.7,1.7v10.3v12.9v8.6h-0.1l-8.9-8.6L323,236.5L311,225
		c-0.7-0.7-1.3-1.3-2.2-1.3h-1.3c-0.9,0-1.7,0.7-1.7,1.6l0,11.3l0,12.9l0,12.9l0,12.9l0,10.3c0,0.9,0.8,1.7,1.7,1.7h10.6
		c1,0,1.7-0.8,1.7-1.7v-10.3v-12.9v-10.2h0.1l10.1,10.2l12.8,12.9l11.8,11.9c0.7,0.7,1.3,1,2.2,1h0.9c0.9,0,1.7-0.5,1.7-1.6v-11.3
		v-12.9v-12.9v-12.9v-10.3C359.5,225.4,358.7,224.6,357.8,224.6"/>
	<path class="st0" d="M539.4,224.6h-10.7c-0.9,0-1.7,0.8-1.7,1.7v10.3v12.9v12.9v12.9v10.3c0,0.9,0.8,1.7,1.7,1.7h10.7
		c0.9,0,1.7-0.8,1.7-1.7v-10.3v-12.9v-12.9v-12.9v-10.3C541.1,225.4,540.3,224.6,539.4,224.6"/>
	<path class="st0" d="M610.9,224.6h-10.7c-0.9,0-1.7,0.8-1.7,1.7v10.3v12.9v12.9v12.9v10.3c0,0.9,0.8,1.7,1.7,1.7h10.7
		c0.9,0,1.7-0.8,1.7-1.7v-10.3v-12.9v-12.9v-12.9v-10.3C612.6,225.4,611.8,224.6,610.9,224.6"/>
	<path class="st0" d="M409.9,236.5c0.1-0.2,0.1-0.3,0.1-0.5v-9.7c0-0.9-0.7-1.7-1.7-1.7h-39.7c-1,0-1.7,0.8-1.7,1.7v9.7
		c0,0.2,0,0.4,0.1,0.5c0.2,0.7,0.8,1.2,1.6,1.2h12.8v11.7v12.9v12.9v10.3c0,0.9,0.8,1.7,1.7,1.7h10.7c0.9,0,1.7-0.8,1.7-1.7v-10.3
		v-12.9v-12.9v-11.7h12.8C409.1,237.7,409.7,237.2,409.9,236.5"/>
	<path class="st0" d="M69.7,249.4c-0.2-0.1-0.4-0.2-0.6-0.3c-6.3-3-9.7-5.4-9.7-8.3c0-1.8,0.8-3.4,2.6-4.3c0.8-0.4,1.7-0.6,2.9-0.6
		c1.3,0,2.5,0.2,3.8,0.6c3.5,1,6.7,3.1,8.3,4.2c1.8,1.1,3.3,0.4,3.9-0.6l2.4-3.6l2.2-3.3c0.4-0.6,0.5-2.2-0.5-2.9
		c-2.7-2-9.8-6.7-19.1-6.7c-11.2,0-17.8,5.9-19.9,12.9c-0.5,1.6-0.7,3.3-0.7,4.9c0,3.1,0.7,5.7,2,7.9c3,5.5,9.2,8.8,15.3,11.8
		c0.7,0.4,1.5,0.7,2.1,1.1c4.6,2.4,7.1,4.7,7.1,7.9c0,2.3-1.4,4.1-3.6,4.9c-0.8,0.3-1.6,0.4-2.6,0.4c-1.3,0-2.5-0.2-3.6-0.4
		c-4-0.9-7.1-3.1-9.1-4.5c-0.9-0.6-2.3-0.6-3,0.5l-2.2,3.9l-1.9,3.3c-0.6,1.2-0.4,2,0.4,2.7c2.1,2.1,8.5,6.9,20.1,6.9
		c10.4,0,17.6-5.9,20.1-12.9c0.7-1.8,1-3.7,1-5.6c0-2.8-0.6-5.2-1.5-7.2C82.7,255.6,75.7,252.3,69.7,249.4"/>
	<path class="st0" d="M181.3,249.4c-0.2-0.1-0.4-0.2-0.6-0.3c-6.3-3-9.7-5.4-9.7-8.3c0-1.8,0.8-3.4,2.6-4.3c0.8-0.4,1.7-0.6,2.9-0.6
		c1.3,0,2.5,0.2,3.8,0.6c3.5,1,6.7,3.1,8.3,4.2c1.8,1.1,3.3,0.4,3.9-0.6l2.4-3.6l2.2-3.3c0.4-0.6,0.5-2.2-0.5-2.9
		c-2.7-2-9.8-6.7-19.1-6.7c-11.2,0-17.8,5.9-19.9,12.9c-0.5,1.6-0.7,3.3-0.7,4.9c0,3.1,0.7,5.7,2,7.9c3,5.5,9.2,8.8,15.3,11.8
		c0.7,0.4,1.5,0.7,2.1,1.1c4.6,2.4,7.1,4.7,7.1,7.9c0,2.3-1.4,4.1-3.6,4.9c-0.8,0.3-1.6,0.4-2.6,0.4c-1.3,0-2.5-0.2-3.6-0.4
		c-4-0.9-7.2-3.1-9.1-4.5c-0.9-0.6-2.3-0.6-3,0.5l-2.2,3.9l-1.9,3.3c-0.6,1.2-0.4,2,0.4,2.7c2.1,2.1,8.5,6.9,20.1,6.9
		c10.4,0,17.6-5.9,20.1-12.9c0.7-1.8,1-3.7,1-5.6c0-2.8-0.6-5.2-1.5-7.2C194.3,255.6,187.3,252.3,181.3,249.4"/>
	<path class="st0" d="M486.8,261.5h7.8c1.3,0,2.4,0.3,3.4,0.7c2.2,1,3.4,3.1,3.4,5.6c0,4.2-2.5,6.4-7,6.4h-7.6v-12.1V261.5z
		 M486.8,237.4h7.4c3.4,0,5.8,2.5,5.8,6.1c0,2.7-1.3,4.9-3.4,5.9c-0.7,0.3-1.5,0.5-2.4,0.5h-7.4v-0.5V237.4z M504.4,255.3
		L504.4,255.3c2.8-1.2,5.5-3.2,7.5-5.9c1.6-2.2,2.7-5,2.7-8.2c0-1.6-0.3-3.2-0.8-4.6c-2.3-7-9.7-12-18.4-12h-20.8
		c-1,0-1.7,0.8-1.7,1.7v10.3v12.9v12.9v12.9v10.3c0,0.9,0.7,1.7,1.7,1.7h22.1c8.7,0,16.2-4.5,18.6-12c0.5-1.6,0.8-3.4,0.8-5.3
		c0-3.1-0.8-5.6-2.1-7.6C511.8,258.6,507.9,256.5,504.4,255.3"/>
	<path class="st0" d="M649.4,273.9H640v-11.6v-12.9v-11.7h9.4c7.8,0,13.5,4.8,15.7,11.7c0.6,2,1,4.1,1,6.3c0,2.3-0.4,4.5-1,6.5
		C662.9,269.1,657.2,273.9,649.4,273.9 M680.2,249.4c-1-4.8-3.1-9.1-6.1-12.9c-5.8-7.3-14.6-12-24.6-12h-21.8
		c-0.9,0-1.6,0.8-1.6,1.7v10.3v12.9v12.9v12.9v10.3c0,0.9,0.7,1.7,1.6,1.7h21.8c9.9,0,18.8-4.7,24.6-12c2.9-3.7,5-8.1,6.1-12.9
		c0.4-2.1,0.7-4.3,0.7-6.5C680.9,253.6,680.6,251.5,680.2,249.4"/>
	<path class="st0" d="M770.2,273.9h-9.4v-11.6v-12.9v-11.7h9.4c7.8,0,13.5,4.8,15.7,11.7c0.6,2,1,4.1,1,6.3c0,2.3-0.4,4.5-1,6.5
		C783.6,269.1,777.9,273.9,770.2,273.9 M800.9,249.4c-1-4.8-3.1-9.1-6.1-12.9c-5.8-7.3-14.6-12-24.6-12h-21.8
		c-0.9,0-1.6,0.8-1.6,1.7v10.3v12.9v12.9v12.9v10.3c0,0.9,0.7,1.7,1.6,1.7h21.8c9.9,0,18.8-4.7,24.6-12c2.9-3.7,5-8.1,6.1-12.9
		c0.4-2.1,0.7-4.3,0.7-6.5C801.6,253.6,801.4,251.5,800.9,249.4"/>
	<path class="st0" d="M589.8,274h-21.3v-11.7v-12.9v-12.9v-10.3c0-0.9-0.8-1.7-1.7-1.7h-10.6c-1,0-1.7,0.8-1.7,1.7v10.3v12.9v12.9
		v12.9v10.3c0,0.9,0.7,1.7,1.7,1.7h33.6c1,0,1.7-0.8,1.7-1.7v-9.7c0-0.2,0-0.4-0.1-0.5C591.2,274.5,590.6,274,589.8,274"/>
	<path class="st0" d="M436.4,250.9L436.4,250.9l5.3,11.3l1.6,3.4h-13.6l1.5-3.4L436.4,250.9z M462,275.1l-6-12.9l-6-12.9l-6-12.9
		l-5.5-11.9c-0.3-0.5-0.9-1-1.5-1h-0.9c-0.6,0-1.3,0.4-1.5,1l-5.5,11.9l-6,12.9l-6,12.9l-6,12.9l-4.5,9.6c-0.5,1.2,0.2,2.3,1.5,2.3
		h9.8c1.8,0,2.8-1.1,3.2-2.1l3.2-7.1h24.3l3.2,7.1c0.8,1.7,1.5,2.2,3.1,2.2h9.9c1.3,0,2.1-1.2,1.5-2.3L462,275.1z"/>
	<path class="st0" d="M710.4,250.9L710.4,250.9l5.3,11.3l1.6,3.4h-13.6l1.5-3.4L710.4,250.9z M735.9,275.1l-6-12.9l-6-12.9l-6-12.9
		l-5.5-11.9c-0.3-0.5-0.9-1-1.5-1h-0.9c-0.6,0-1.2,0.4-1.5,1l-5.5,11.9l-6,12.9l-6,12.9l-6,12.9l-4.5,9.6c-0.5,1.2,0.2,2.3,1.5,2.3
		h9.8c1.8,0,2.8-1.1,3.2-2.1l3.2-7.1h24.3l3.2,7.1c0.8,1.7,1.5,2.2,3.1,2.2h9.9c1.3,0,2.1-1.2,1.5-2.3L735.9,275.1z"/>
	<g class="st1">
		<g>
			<defs>
				<rect id="SVGID_00000067924982909568563510000004762408203330074760_" x="148" y="292.6" width="59.9" height="46.6"/>
			</defs>
			<clipPath id="SVGID_00000019669119307362577830000017862767894756848563_">
				<use xlink:href="#SVGID_00000067924982909568563510000004762408203330074760_"  style="overflow:visible;"/>
			</clipPath>
			<path style="clip-path:url(#SVGID_00000019669119307362577830000017862767894756848563_);fill:#FFFFFF;" d="M181.3,299.6h-22.6
				c3,5.5,9.2,8.8,15.3,11.8c0.7,0.4,1.5,0.7,2.1,1.1c4.6,2.4,7.1,4.7,7.1,7.9c0,2.3-1.4,4.1-3.6,4.9c-0.8,0.3-1.6,0.4-2.6,0.4
				c-1.3,0-2.5-0.2-3.6-0.4c-4-0.9-7.2-3.1-9.1-4.5c-0.9-0.6-2.3-0.6-3,0.5l-2.2,3.9l-1.9,3.3c-0.6,1.2-0.4,2,0.4,2.7
				c2.1,2.1,8.5,6.9,20.1,6.9c10.4,0,17.6-5.9,20.1-12.9c0.7-1.8,1-3.7,1-5.6c0-2.8-0.6-5.2-1.5-7.2
				C194.3,305.7,187.3,302.5,181.3,299.6"/>
		</g>
	</g>
	<g class="st1">
		<g>
			<defs>
				<rect id="SVGID_00000011020015858689384290000011525831934530127794_" x="209.2" y="292.6" width="32.1" height="45.7"/>
			</defs>
			<clipPath id="SVGID_00000115475515238288724330000006732361093033819788_">
				<use xlink:href="#SVGID_00000011020015858689384290000011525831934530127794_"  style="overflow:visible;"/>
			</clipPath>
			<path style="clip-path:url(#SVGID_00000115475515238288724330000006732361093033819788_);fill:#FFFFFF;" d="M218.2,312.4v12.9
				v10.3c0,0.9,0.8,1.7,1.7,1.7h10.7c0.9,0,1.7-0.8,1.7-1.7v-10.3v-12.9v-12.9h-14.1V312.4z"/>
		</g>
	</g>
	<g class="st1">
		<g>
			<defs>
				<rect id="SVGID_00000039094422404072970430000005852372959620077473_" x="372.4" y="292.6" width="32.1" height="45.7"/>
			</defs>
			<clipPath id="SVGID_00000182521315043119749590000015641809306221332865_">
				<use xlink:href="#SVGID_00000039094422404072970430000005852372959620077473_"  style="overflow:visible;"/>
			</clipPath>
			<path style="clip-path:url(#SVGID_00000182521315043119749590000015641809306221332865_);fill:#FFFFFF;" d="M381.4,312.4v12.9
				v10.3c0,0.9,0.8,1.7,1.7,1.7h10.7c0.9,0,1.7-0.8,1.7-1.7v-10.3v-12.9v-12.9h-14.1V312.4z"/>
		</g>
	</g>
	<g class="st1">
		<g>
			<defs>
				<rect id="SVGID_00000147909087692046200800000003460190641128334467_" x="463.9" y="292.6" width="61.3" height="45.7"/>
			</defs>
			<clipPath id="SVGID_00000096744674506010566940000004972119281132954259_">
				<use xlink:href="#SVGID_00000147909087692046200800000003460190641128334467_"  style="overflow:visible;"/>
			</clipPath>
			<path style="clip-path:url(#SVGID_00000096744674506010566940000004972119281132954259_);fill:#FFFFFF;" d="M486.8,311.7h7.8
				c1.3,0,2.4,0.3,3.4,0.7c2.2,1,3.4,3.1,3.4,5.6c0,4.2-2.5,6.4-7,6.4h-7.6v-12.1V311.7z M504.4,305.5L504.4,305.5
				c2.8-1.2,5.5-3.2,7.5-5.9h-15.3c-0.7,0.3-1.5,0.5-2.4,0.5h-7.4v-0.5h-13.9v12.9v12.9v10.3c0,0.9,0.7,1.7,1.7,1.7h22.1
				c8.7,0,16.2-4.5,18.6-12c0.5-1.6,0.8-3.4,0.8-5.3c0-3.1-0.8-5.6-2.1-7.6C511.8,308.7,507.9,306.6,504.4,305.5"/>
		</g>
	</g>
	<g class="st1">
		<g>
			<defs>
				<rect id="SVGID_00000031917817648806930580000006591420446167209108_" x="518" y="292.6" width="32.1" height="45.7"/>
			</defs>
			<clipPath id="SVGID_00000151510132467986810770000005763772231254312848_">
				<use xlink:href="#SVGID_00000031917817648806930580000006591420446167209108_"  style="overflow:visible;"/>
			</clipPath>
			<path style="clip-path:url(#SVGID_00000151510132467986810770000005763772231254312848_);fill:#FFFFFF;" d="M527,312.4v12.9v10.3
				c0,0.9,0.8,1.7,1.7,1.7h10.7c0.9,0,1.7-0.8,1.7-1.7v-10.3v-12.9v-12.9H527V312.4z"/>
		</g>
	</g>
	<g class="st1">
		<g>
			<defs>
				<rect id="SVGID_00000022542194430524939480000003942182584295052941_" x="617.1" y="292.6" width="72.7" height="45.7"/>
			</defs>
			<clipPath id="SVGID_00000057844684268087149920000007311166490134264482_">
				<use xlink:href="#SVGID_00000022542194430524939480000003942182584295052941_"  style="overflow:visible;"/>
			</clipPath>
			<path style="clip-path:url(#SVGID_00000057844684268087149920000007311166490134264482_);fill:#FFFFFF;" d="M680.2,299.6h-15.1
				c0.6,2,1,4.1,1,6.3c0,2.3-0.4,4.5-1,6.5c-2.2,6.9-7.8,11.6-15.6,11.6H640v-11.6v-12.9h-13.9v12.9v12.9v10.3
				c0,0.9,0.7,1.7,1.6,1.7h21.8c9.9,0,18.8-4.7,24.6-12c2.9-3.7,5-8.1,6.1-12.9c0.4-2.1,0.7-4.3,0.7-6.5
				C680.9,303.7,680.6,301.6,680.2,299.6"/>
		</g>
	</g>
	<g class="st1">
		<g>
			<defs>
				<rect id="SVGID_00000106147217139047883980000010486216174969995155_" x="245.2" y="292.6" width="58.4" height="45.7"/>
			</defs>
			<clipPath id="SVGID_00000182490960760473762370000013796508369255954599_">
				<use xlink:href="#SVGID_00000106147217139047883980000010486216174969995155_"  style="overflow:visible;"/>
			</clipPath>
			<path style="clip-path:url(#SVGID_00000182490960760473762370000013796508369255954599_);fill:#FFFFFF;" d="M292.8,324.1h-24.7
				v-11.7v-0.4h20.4c0.9,0,1.7-0.7,1.7-1.7v-9.7c0-0.4-0.2-0.8-0.4-1.1h-35.6v12.9v12.9v10.3c0,0.9,0.7,1.7,1.7,1.7h37
				c1,0,1.7-0.8,1.7-1.7v-9.7c0-0.2,0-0.4-0.1-0.5C294.2,324.6,293.6,324.1,292.8,324.1"/>
		</g>
	</g>
	<g class="st9">
		<g>
			<defs>
				<rect id="SVGID_00000183223036743353837850000014370421301352271032_" x="87.3" y="342.7" width="68.9" height="33.7"/>
			</defs>
			<clipPath id="SVGID_00000044862638727046175300000011039318593586437249_">
				<use xlink:href="#SVGID_00000183223036743353837850000014370421301352271032_"  style="overflow:visible;"/>
			</clipPath>
			<path style="clip-path:url(#SVGID_00000044862638727046175300000011039318593586437249_);fill:#FFFFFF;" d="M132.8,351
				c0,6.5-4.7,10.2-11.2,10.2c-6.3,0-11-3.7-11-10.2v-1.2H96.3v2c0,4,1,7.7,2.7,10.9c4.2,7.8,12.7,12.9,22.6,12.9
				c10,0,18.6-5.1,22.8-12.9c1.8-3.2,2.8-6.9,2.8-10.9v-2h-14.4V351z"/>
		</g>
	</g>
	<g class="st9">
		<g>
			<defs>
				<rect id="SVGID_00000010300621545290030110000008463794374854272670_" x="148" y="342.7" width="59.9" height="33.7"/>
			</defs>
			<clipPath id="SVGID_00000132064004352066632010000012790219286150944946_">
				<use xlink:href="#SVGID_00000010300621545290030110000008463794374854272670_"  style="overflow:visible;"/>
			</clipPath>
			<path style="clip-path:url(#SVGID_00000132064004352066632010000012790219286150944946_);fill:#FFFFFF;" d="M176.2,349.7
				c4.6,2.4,7.1,4.7,7.1,7.9c0,2.3-1.4,4.1-3.6,4.9c-0.8,0.3-1.6,0.4-2.6,0.4c-1.3,0-2.5-0.2-3.6-0.4c-4-0.9-7.1-3.1-9.1-4.5
				c-0.9-0.6-2.3-0.6-3,0.5l-2.2,3.9l-1.9,3.3c-0.6,1.2-0.4,2,0.4,2.7c2.1,2.1,8.5,6.9,20.1,6.9c10.4,0,17.6-5.8,20.1-12.9
				c0.7-1.8,1-3.7,1-5.6c0-2.8-0.6-5.2-1.5-7.2H176.2z"/>
		</g>
	</g>
	<g class="st9">
		<g>
			<defs>
				<rect id="SVGID_00000156582760806137726890000013681967119050771842_" x="209.2" y="342.7" width="32.1" height="32.8"/>
			</defs>
			<clipPath id="SVGID_00000116932579876780015570000015342252403815667122_">
				<use xlink:href="#SVGID_00000156582760806137726890000013681967119050771842_"  style="overflow:visible;"/>
			</clipPath>
			<path style="clip-path:url(#SVGID_00000116932579876780015570000015342252403815667122_);fill:#FFFFFF;" d="M218.2,362.6v10.3
				c0,0.9,0.8,1.7,1.7,1.7h10.7c0.9,0,1.7-0.8,1.7-1.7v-10.3v-12.9h-14.1V362.6z"/>
		</g>
	</g>
	<g class="st9">
		<g>
			<defs>
				<rect id="SVGID_00000005963444743337782390000018389273916768338621_" x="372.4" y="342.7" width="32.1" height="32.8"/>
			</defs>
			<clipPath id="SVGID_00000041293265143386746090000002145138499163285175_">
				<use xlink:href="#SVGID_00000005963444743337782390000018389273916768338621_"  style="overflow:visible;"/>
			</clipPath>
			<path style="clip-path:url(#SVGID_00000041293265143386746090000002145138499163285175_);fill:#FFFFFF;" d="M381.4,362.6v10.3
				c0,0.9,0.8,1.7,1.7,1.7h10.7c0.9,0,1.7-0.8,1.7-1.7v-10.3v-12.9h-14.1V362.6z"/>
		</g>
	</g>
	<g class="st9">
		<g>
			<defs>
				<rect id="SVGID_00000144312270089980209870000000980928651965189005_" x="463.9" y="342.7" width="61.3" height="32.8"/>
			</defs>
			<clipPath id="SVGID_00000139978925576836531930000016683118991173431431_">
				<use xlink:href="#SVGID_00000144312270089980209870000000980928651965189005_"  style="overflow:visible;"/>
			</clipPath>
			<path style="clip-path:url(#SVGID_00000139978925576836531930000016683118991173431431_);fill:#FFFFFF;" d="M497.9,349.7
				c2.2,1,3.4,3.1,3.4,5.6c0,4.2-2.5,6.4-7,6.4h-7.6v-12.1h-13.9v12.9v10.3c0,0.9,0.7,1.7,1.7,1.7h22.1c8.7,0,16.2-4.5,18.6-12
				c0.5-1.6,0.8-3.4,0.8-5.3c0-3.1-0.8-5.6-2.1-7.6H497.9z"/>
		</g>
	</g>
	<g class="st9">
		<g>
			<defs>
				<rect id="SVGID_00000137090601356048182900000012601893800564746942_" x="518" y="342.7" width="32.1" height="32.8"/>
			</defs>
			<clipPath id="SVGID_00000152971183686206762310000018263184450032017840_">
				<use xlink:href="#SVGID_00000137090601356048182900000012601893800564746942_"  style="overflow:visible;"/>
			</clipPath>
			<path style="clip-path:url(#SVGID_00000152971183686206762310000018263184450032017840_);fill:#FFFFFF;" d="M527,362.6v10.3
				c0,0.9,0.8,1.7,1.7,1.7h10.7c0.9,0,1.7-0.8,1.7-1.7v-10.3v-12.9H527V362.6z"/>
		</g>
	</g>
	<g class="st9">
		<g>
			<defs>
				<rect id="SVGID_00000163754651388219467550000003853529387855415694_" x="545.6" y="342.7" width="55" height="32.8"/>
			</defs>
			<clipPath id="SVGID_00000178887623336366780860000013662948602294414477_">
				<use xlink:href="#SVGID_00000163754651388219467550000003853529387855415694_"  style="overflow:visible;"/>
			</clipPath>
			<path style="clip-path:url(#SVGID_00000178887623336366780860000013662948602294414477_);fill:#FFFFFF;" d="M589.8,361.4h-21.3
				v-11.7h-14v12.9v10.3c0,0.9,0.7,1.7,1.7,1.7h33.6c1,0,1.7-0.8,1.7-1.7v-9.7c0-0.2,0-0.4-0.1-0.5
				C591.2,361.9,590.6,361.4,589.8,361.4"/>
		</g>
	</g>
	<g class="st9">
		<g>
			<defs>
				<rect id="SVGID_00000100365943983255907480000011618723264552529551_" x="589.5" y="342.7" width="32.1" height="32.8"/>
			</defs>
			<clipPath id="SVGID_00000013915317183767822190000006874815276887003793_">
				<use xlink:href="#SVGID_00000100365943983255907480000011618723264552529551_"  style="overflow:visible;"/>
			</clipPath>
			<path style="clip-path:url(#SVGID_00000013915317183767822190000006874815276887003793_);fill:#FFFFFF;" d="M598.5,362.6v10.3
				c0,0.9,0.8,1.7,1.7,1.7h10.7c0.9,0,1.7-0.8,1.7-1.7v-10.3v-12.9h-14.1V362.6z"/>
		</g>
	</g>
	<g class="st9">
		<g>
			<defs>
				<rect id="SVGID_00000123399612081435592740000003109243045386237058_" x="617.1" y="342.7" width="72.1" height="32.8"/>
			</defs>
			<clipPath id="SVGID_00000060713206474215477210000003999447760554076805_">
				<use xlink:href="#SVGID_00000123399612081435592740000003109243045386237058_"  style="overflow:visible;"/>
			</clipPath>
			<path style="clip-path:url(#SVGID_00000060713206474215477210000003999447760554076805_);fill:#FFFFFF;" d="M649.4,361.3H640
				v-11.6h-13.9v12.9v10.3c0,0.9,0.7,1.7,1.6,1.7h21.8c9.9,0,18.8-4.7,24.6-12c2.9-3.7,5.1-8.1,6.1-12.9H665
				C662.9,356.6,657.2,361.3,649.4,361.3"/>
		</g>
	</g>
	<g class="st9">
		<g>
			<defs>
				<rect id="SVGID_00000028288269599695224730000005436049409833635007_" x="737.8" y="342.7" width="72.1" height="32.8"/>
			</defs>
			<clipPath id="SVGID_00000068646750774016705230000015769771938488170375_">
				<use xlink:href="#SVGID_00000028288269599695224730000005436049409833635007_"  style="overflow:visible;"/>
			</clipPath>
			<path style="clip-path:url(#SVGID_00000068646750774016705230000015769771938488170375_);fill:#FFFFFF;" d="M785.8,349.7
				c-2.2,6.9-7.8,11.6-15.6,11.6h-9.4v-11.6h-13.9v12.9v10.3c0,0.9,0.7,1.7,1.6,1.7h21.8c9.9,0,18.8-4.7,24.6-12
				c2.9-3.7,5.1-8.1,6.1-12.9H785.8z"/>
		</g>
	</g>
	<g class="st9">
		<g>
			<defs>
				<rect id="SVGID_00000092446491335330658940000004027314982858825613_" x="397.4" y="342.7" width="78.2" height="32.8"/>
			</defs>
			<clipPath id="SVGID_00000072960845932455045920000012214929756569943941_">
				<use xlink:href="#SVGID_00000092446491335330658940000004027314982858825613_"  style="overflow:visible;"/>
			</clipPath>
			<path style="clip-path:url(#SVGID_00000072960845932455045920000012214929756569943941_);fill:#FFFFFF;" d="M462,362.6l-6-12.9
				h-14.2l1.6,3.4h-13.6l1.5-3.4h-14.2l-6,12.9l-4.5,9.6c-0.5,1.2,0.2,2.3,1.5,2.3h9.8c1.8,0,2.8-1.1,3.2-2.1l3.2-7.1h24.3l3.2,7.1
				c0.8,1.7,1.5,2.2,3.1,2.2h9.9c1.3,0,2.1-1.2,1.5-2.3L462,362.6z"/>
		</g>
	</g>
	<g class="st9">
		<g>
			<defs>
				<rect id="SVGID_00000170995864542881748500000005331108942484085927_" x="671.4" y="342.7" width="78.2" height="32.8"/>
			</defs>
			<clipPath id="SVGID_00000043436082322366858680000009192566804077087423_">
				<use xlink:href="#SVGID_00000170995864542881748500000005331108942484085927_"  style="overflow:visible;"/>
			</clipPath>
			<path style="clip-path:url(#SVGID_00000043436082322366858680000009192566804077087423_);fill:#FFFFFF;" d="M735.9,362.6l-6-12.9
				h-14.2l1.6,3.4h-13.6l1.5-3.4h-14.2l-6,12.9l-4.5,9.6c-0.5,1.2,0.2,2.3,1.5,2.3h9.8c1.8,0,2.8-1.1,3.2-2.1l3.2-7.1h24.3l3.2,7.1
				c0.8,1.7,1.5,2.2,3.1,2.2h9.9c1.3,0,2.1-1.2,1.5-2.3L735.9,362.6z"/>
		</g>
	</g>
	<g class="st9">
		<g>
			<defs>
				<rect id="SVGID_00000056408565845637007270000011999993082656329607_" x="36.3" y="384.9" width="58.9" height="20.9"/>
			</defs>
			<clipPath id="SVGID_00000083059089563856477330000001513627863236547261_">
				<use xlink:href="#SVGID_00000056408565845637007270000011999993082656329607_"  style="overflow:visible;"/>
			</clipPath>
			<path style="clip-path:url(#SVGID_00000083059089563856477330000001513627863236547261_);fill:#FFFFFF;" d="M65.5,392.3
				c-1.3,0-2.5-0.2-3.6-0.4H47.6l-1.9,3.3c-0.6,1.2-0.4,2,0.4,2.7c2.1,2.1,8.5,6.9,20.1,6.9c10.4,0,17.6-5.9,20.1-12.9H68.1
				C67.3,392.1,66.4,392.3,65.5,392.3"/>
		</g>
	</g>
	<g class="st9">
		<g>
			<defs>
				<rect id="SVGID_00000085217687445640882520000005438310533122713014_" x="90" y="384.9" width="63.4" height="20.9"/>
			</defs>
			<clipPath id="SVGID_00000002367743157056423600000005596737209567637927_">
				<use xlink:href="#SVGID_00000085217687445640882520000005438310533122713014_"  style="overflow:visible;"/>
			</clipPath>
			<path style="clip-path:url(#SVGID_00000002367743157056423600000005596737209567637927_);fill:#FFFFFF;" d="M121.7,404.7
				c10,0,18.6-5.1,22.8-12.9H99C103.2,399.6,111.8,404.7,121.7,404.7"/>
		</g>
	</g>
	<g class="st9">
		<g>
			<defs>
				<rect id="SVGID_00000083077963738910466590000015426076009781724601_" x="245.2" y="384.9" width="58.4" height="20"/>
			</defs>
			<clipPath id="SVGID_00000110449278518928454620000008022574505266192543_">
				<use xlink:href="#SVGID_00000083077963738910466590000015426076009781724601_"  style="overflow:visible;"/>
			</clipPath>
			<path style="clip-path:url(#SVGID_00000110449278518928454620000008022574505266192543_);fill:#FFFFFF;" d="M254.2,391.9v10.3
				c0,0.9,0.7,1.7,1.7,1.7h37c1,0,1.7-0.8,1.7-1.7v-9.7c0-0.2,0-0.4-0.1-0.5H254.2z"/>
		</g>
	</g>
	<g class="st9">
		<g>
			<defs>
				<rect id="SVGID_00000064314260509835005690000005394548880670310572_" x="333.9" y="384.9" width="34.6" height="20.9"/>
			</defs>
			<clipPath id="SVGID_00000007387790851403109470000010459469161821306779_">
				<use xlink:href="#SVGID_00000064314260509835005690000005394548880670310572_"  style="overflow:visible;"/>
			</clipPath>
			<path style="clip-path:url(#SVGID_00000007387790851403109470000010459469161821306779_);fill:#FFFFFF;" d="M354.7,403.7
				c0.7,0.7,1.3,1,2.2,1h0.9c0.9,0,1.7-0.5,1.7-1.6v-11.3h-16.6L354.7,403.7z"/>
		</g>
	</g>
	<g class="st9">
		<g>
			<defs>
				<rect id="SVGID_00000031890745962669583120000011701950993666110592_" x="296.9" y="384.9" width="32" height="20"/>
			</defs>
			<clipPath id="SVGID_00000039126915898936375590000012079581431333953949_">
				<use xlink:href="#SVGID_00000031890745962669583120000011701950993666110592_"  style="overflow:visible;"/>
			</clipPath>
			<path style="clip-path:url(#SVGID_00000039126915898936375590000012079581431333953949_);fill:#FFFFFF;" d="M305.9,402.1
				c0,0.9,0.8,1.7,1.7,1.7h10.6c1,0,1.7-0.8,1.7-1.7v-10.3h-14L305.9,402.1z"/>
		</g>
	</g>
	<g class="st9">
		<g>
			<defs>
				<rect id="SVGID_00000160180836383117244530000005393481318637568934_" x="372.4" y="384.9" width="32.1" height="20"/>
			</defs>
			<clipPath id="SVGID_00000145026451322550766680000000854272154829346696_">
				<use xlink:href="#SVGID_00000160180836383117244530000005393481318637568934_"  style="overflow:visible;"/>
			</clipPath>
			<path style="clip-path:url(#SVGID_00000145026451322550766680000000854272154829346696_);fill:#FFFFFF;" d="M381.4,402.1
				c0,0.9,0.8,1.7,1.7,1.7h10.7c0.9,0,1.7-0.8,1.7-1.7v-10.3h-14.1V402.1z"/>
		</g>
	</g>
	<g class="st9">
		<g>
			<defs>
				<rect id="SVGID_00000111149785447170339860000016059477441741130409_" x="397.4" y="384.9" width="78.2" height="20"/>
			</defs>
			<clipPath id="SVGID_00000062913515865696975940000002256956959278806413_">
				<use xlink:href="#SVGID_00000111149785447170339860000016059477441741130409_"  style="overflow:visible;"/>
			</clipPath>
			<path style="clip-path:url(#SVGID_00000062913515865696975940000002256956959278806413_);fill:#FFFFFF;" d="M462,391.9h-50.9
				l-4.5,9.6c-0.5,1.2,0.2,2.3,1.5,2.3h9.8c1.8,0,2.8-1.1,3.2-2.1l3.2-7.1h24.3l3.2,7.1c0.8,1.7,1.5,2.2,3.1,2.2h9.9
				c1.3,0,2.1-1.2,1.5-2.3L462,391.9z"/>
		</g>
	</g>
	<g class="st9">
		<g>
			<defs>
				<rect id="SVGID_00000013884264799226581880000013536424958474116538_" x="463.9" y="384.9" width="60.5" height="20"/>
			</defs>
			<clipPath id="SVGID_00000176020190200964480130000003480222950390717058_">
				<use xlink:href="#SVGID_00000013884264799226581880000013536424958474116538_"  style="overflow:visible;"/>
			</clipPath>
			<path style="clip-path:url(#SVGID_00000176020190200964480130000003480222950390717058_);fill:#FFFFFF;" d="M472.9,402.1
				c0,0.9,0.7,1.7,1.7,1.7h22.1c8.7,0,16.2-4.5,18.6-12h-42.5V402.1z"/>
		</g>
	</g>
	<g class="st9">
		<g>
			<defs>
				<rect id="SVGID_00000032610528204316141980000010884110763364720541_" x="518" y="384.9" width="32.1" height="20"/>
			</defs>
			<clipPath id="SVGID_00000038395811993599662600000011758422848942166457_">
				<use xlink:href="#SVGID_00000032610528204316141980000010884110763364720541_"  style="overflow:visible;"/>
			</clipPath>
			<path style="clip-path:url(#SVGID_00000038395811993599662600000011758422848942166457_);fill:#FFFFFF;" d="M527,402.1
				c0,0.9,0.8,1.7,1.7,1.7h10.7c0.9,0,1.7-0.8,1.7-1.7v-10.3H527V402.1z"/>
		</g>
	</g>
	<g class="st9">
		<g>
			<defs>
				<rect id="SVGID_00000171704305965523880510000009305669735681964437_" x="545.6" y="384.9" width="55" height="20"/>
			</defs>
			<clipPath id="SVGID_00000149358251543934046870000006675622120595375750_">
				<use xlink:href="#SVGID_00000171704305965523880510000009305669735681964437_"  style="overflow:visible;"/>
			</clipPath>
			<path style="clip-path:url(#SVGID_00000149358251543934046870000006675622120595375750_);fill:#FFFFFF;" d="M554.6,391.9v10.3
				c0,0.9,0.7,1.7,1.7,1.7h33.6c1,0,1.7-0.8,1.7-1.7v-9.7c0-0.2,0-0.4-0.1-0.5H554.6z"/>
		</g>
	</g>
	<g class="st9">
		<g>
			<defs>
				<rect id="SVGID_00000038408547487573836220000007642677389978030738_" x="737.8" y="384.9" width="66" height="20"/>
			</defs>
			<clipPath id="SVGID_00000171001620782366597200000016537889975595658644_">
				<use xlink:href="#SVGID_00000038408547487573836220000007642677389978030738_"  style="overflow:visible;"/>
			</clipPath>
			<path style="clip-path:url(#SVGID_00000171001620782366597200000016537889975595658644_);fill:#FFFFFF;" d="M746.8,391.9v10.3
				c0,0.9,0.7,1.7,1.6,1.7h21.8c9.9,0,18.8-4.7,24.6-12H746.8z"/>
		</g>
	</g>
	<g>
		<path class="st0" d="M6.6,124.8c0-0.1,0.1-0.2,0.3-0.2h0.3c0.1,0,0.2,0.1,0.3,0.2l3.5,7.6c0,0,0,0,0,0l3.5-7.6
			c0-0.1,0.1-0.2,0.3-0.2h0.3c0.2,0,0.3,0.1,0.3,0.2l1.9,10.8c0,0.2-0.1,0.4-0.3,0.4h-1.5c-0.1,0-0.3-0.1-0.3-0.2l-0.9-6.1
			c0,0,0,0,0,0l-2.8,6.3c0,0.1-0.1,0.2-0.3,0.2h-0.3c-0.1,0-0.2-0.1-0.3-0.2l-2.8-6.3c0,0,0,0,0,0l-0.9,6.1c0,0.1-0.1,0.2-0.3,0.2H5
			c-0.2,0-0.3-0.1-0.3-0.4L6.6,124.8z"/>
		<path class="st0" d="M24.9,135.5l5-10.8c0-0.1,0.1-0.2,0.3-0.2h0.2c0.2,0,0.2,0.1,0.3,0.2l4.9,10.8c0.1,0.2,0,0.4-0.3,0.4h-1.4
			c-0.2,0-0.4-0.1-0.5-0.3l-0.8-1.7h-4.8l-0.8,1.7c-0.1,0.2-0.2,0.3-0.5,0.3h-1.4C24.9,135.9,24.8,135.7,24.9,135.5z M28.5,122.8
			l2.7-1.8c0.3-0.2,0.7,0,0.9,0.4c0.2,0.4,0.2,0.8-0.1,0.9l-3,1.4c-0.2,0.1-0.4-0.1-0.5-0.3C28.3,123.2,28.3,122.9,28.5,122.8z
			 M31.8,132.1l-1.6-3.5h0l-1.6,3.5H31.8z"/>
		<path class="st0" d="M43.3,134.8c-0.2-0.1-0.2-0.2-0.1-0.5l0.6-1c0.1-0.2,0.4-0.2,0.5-0.1c0.7,0.5,1.4,1,2.4,1
			c0.8,0,1.5-0.5,1.5-1.2c0-0.8-0.7-1.4-2-1.9c-1.5-0.6-3-1.6-3-3.5c0-1.4,1.1-3.1,3.6-3.1c1.6,0,2.9,0.8,3.2,1.1
			c0.2,0.1,0.2,0.4,0.1,0.5l-0.6,0.9c-0.1,0.2-0.4,0.3-0.6,0.2c-0.7-0.4-1.3-0.9-2.2-0.9c-0.9,0-1.4,0.5-1.4,1.1
			c0,0.8,0.6,1.3,1.9,1.8c1.6,0.6,3.3,1.6,3.3,3.6c0,1.6-1.4,3.2-3.7,3.2C44.8,136.1,43.8,135.2,43.3,134.8z"/>
		<path class="st0" d="M74.2,124.5c3.2,0,5.8,2.6,5.8,5.8c0,1.5-0.6,2.8-1.5,3.9l1.6,2c0.2,0.2,0,0.5-0.3,0.5H78
			c-0.1,0-0.2-0.1-0.3-0.2l-0.9-1.1c-0.8,0.4-1.7,0.7-2.7,0.7c-3.2,0-5.7-2.5-5.7-5.7S71,124.5,74.2,124.5z M74.2,134
			c0.5,0,1-0.1,1.4-0.3l-1.9-2.5c-0.2-0.2,0-0.5,0.3-0.5h1.8c0.1,0,0.2,0.1,0.3,0.2l1.2,1.6c0.4-0.6,0.7-1.3,0.7-2.1
			c0-2-1.7-3.7-3.7-3.7c-2,0-3.7,1.7-3.7,3.7C70.5,132.3,72.2,134,74.2,134z"/>
		<path class="st0" d="M88.8,125c0-0.2,0.1-0.3,0.3-0.3h1.5c0.2,0,0.3,0.1,0.3,0.3v6.7c0,1.4,0.9,2.3,2.3,2.3s2.3-0.9,2.3-2.3V125
			c0-0.2,0.1-0.3,0.3-0.3h1.5c0.2,0,0.3,0.1,0.3,0.3v6.8c0,2.4-1.9,4.3-4.5,4.3c-2.5,0-4.4-1.8-4.4-4.3V125z"/>
		<path class="st0" d="M107.2,125c0-0.2,0.1-0.3,0.3-0.3h6.5c0.2,0,0.3,0.1,0.3,0.3v1.3c0,0.2-0.1,0.3-0.3,0.3h-4.7v2.6h4
			c0.2,0,0.3,0.1,0.3,0.3v1.3c0,0.2-0.1,0.3-0.3,0.3h-4v2.8h4.7c0.2,0,0.3,0.1,0.3,0.3v1.3c0,0.2-0.1,0.3-0.3,0.3h-6.5
			c-0.2,0-0.3-0.1-0.3-0.3V125z"/>
	</g>
	<g>
		<path class="st0" d="M10.9,248.1c0-0.2,0.1-0.3,0.3-0.3h6.5c0.2,0,0.3,0.1,0.3,0.3v1.3c0,0.2-0.1,0.3-0.3,0.3H13v2.6h4
			c0.2,0,0.3,0.1,0.3,0.3v1.3c0,0.2-0.1,0.3-0.3,0.3h-4v2.8h4.7c0.2,0,0.3,0.1,0.3,0.3v1.3c0,0.2-0.1,0.3-0.3,0.3h-6.5
			c-0.2,0-0.3-0.1-0.3-0.3V248.1z"/>
		<path class="st0" d="M26.4,258c-0.2-0.1-0.2-0.2-0.1-0.5l0.6-1c0.1-0.2,0.4-0.2,0.5-0.1c0.7,0.5,1.4,1,2.4,1
			c0.8,0,1.5-0.5,1.5-1.2c0-0.8-0.7-1.4-2-1.9c-1.5-0.6-3-1.6-3-3.5c0-1.4,1.1-3.1,3.6-3.1c1.6,0,2.9,0.8,3.2,1.1
			c0.2,0.1,0.2,0.4,0.1,0.5l-0.6,0.9c-0.1,0.2-0.4,0.3-0.6,0.2c-0.7-0.4-1.3-0.9-2.2-0.9c-0.9,0-1.4,0.5-1.4,1.1
			c0,0.8,0.6,1.3,1.9,1.8c1.6,0.6,3.3,1.6,3.3,3.6c0,1.6-1.4,3.2-3.7,3.2C27.9,259.2,26.9,258.4,26.4,258z"/>
	</g>
</g>
</svg>
