<svg id="Capa_1" data-name="Capa 1" xmlns="http://www.w3.org/2000/svg" viewBox="0 0 309.59 321.57"><defs><style>.cls-1{fill:#4a5b6d;}.cls-2{fill:#80ba27;}.cls-3{fill:#fbb800;}.cls-4{fill:#0078bf;}.cls-5{fill:#a5bcd0;}.cls-6{fill:#a0c755;}.cls-7{fill:#b7c9d9;}.cls-8{fill:#4a8fcd;}.cls-9{fill:#fdc648;}</style></defs><path class="cls-1" d="M41.67,11a.25.25,0,0,1,.24-.25h3.37a2.8,2.8,0,0,1,2.84,2.77,2.92,2.92,0,0,1-1.93,2.66L48,19.5a.25.25,0,0,1-.22.38h-.62c-.16,0-.22-.07-.29-.2l-1.69-3.37H42.67v3.32a.26.26,0,0,1-.25.25h-.51a.25.25,0,0,1-.24-.25Zm3.55,4.44a1.87,1.87,0,1,0,0-3.74H42.69v3.74Z" transform="translate(-8.5 -6.1)"/><path class="cls-1" d="M52.24,13.74A2.64,2.64,0,0,1,55,16.47c0,.1,0,.26,0,.36a.29.29,0,0,1-.28.26H50.29a2.11,2.11,0,0,0,2,2.06,2.76,2.76,0,0,0,1.62-.5c.21-.14.3-.19.46,0l.16.22c.11.19.16.25-.06.42a3.63,3.63,0,0,1-2.19.69,2.93,2.93,0,0,1-2.92-3.15A2.92,2.92,0,0,1,52.24,13.74ZM54,16.33a1.76,1.76,0,0,0-1.75-1.72,2,2,0,0,0-1.94,1.72Z" transform="translate(-8.5 -6.1)"/><path class="cls-1" d="M56.53,14.05a.22.22,0,0,1,.23-.23c.38,0,.58.28.62.67a2.64,2.64,0,0,1,1.86-.75,1.83,1.83,0,0,1,1.77.95,3.4,3.4,0,0,1,2.15-.95c1.74,0,2.15,1.13,2.15,2.68v3.17a.29.29,0,0,1-.28.29h-.39a.29.29,0,0,1-.29-.29V16.42c0-1.12-.36-1.81-1.27-1.81a2.49,2.49,0,0,0-1.74.82,6.07,6.07,0,0,1,.07,1v3.17a.29.29,0,0,1-.28.29h-.39a.3.3,0,0,1-.29-.29V16.42c0-1.15-.38-1.81-1.35-1.81a2,2,0,0,0-1.61.83v4.15a.3.3,0,0,1-.29.29h-.39a.29.29,0,0,1-.28-.29Z" transform="translate(-8.5 -6.1)"/><path class="cls-1" d="M69.9,13.74a3.14,3.14,0,1,1-3,3.12A3.09,3.09,0,0,1,69.9,13.74Zm0,5.41A2.16,2.16,0,0,0,72,16.86a2.07,2.07,0,1,0-4.12,0A2.17,2.17,0,0,0,69.9,19.15Z" transform="translate(-8.5 -6.1)"/><path class="cls-1" d="M77,13.74a3.64,3.64,0,0,1,1.66.38V11.06a.3.3,0,0,1,.29-.29h.36a.31.31,0,0,1,.3.29v8.63a.22.22,0,0,1-.23.24c-.38,0-.59-.29-.64-.68a2.73,2.73,0,0,1-4.59-2.39A2.83,2.83,0,0,1,77,13.74Zm0,5.41a2.21,2.21,0,0,0,1.7-1V15a3.91,3.91,0,0,0-1.53-.34,2.06,2.06,0,0,0-2,2.26A2.09,2.09,0,0,0,77,19.15Z" transform="translate(-8.5 -6.1)"/><path class="cls-1" d="M84.22,13.74a2.64,2.64,0,0,1,2.71,2.73c0,.1,0,.26,0,.36a.29.29,0,0,1-.28.26H82.27a2.11,2.11,0,0,0,2,2.06,2.76,2.76,0,0,0,1.62-.5c.21-.14.3-.19.46,0l.15.22c.12.19.17.25,0,.42a3.63,3.63,0,0,1-2.19.69,2.93,2.93,0,0,1-2.92-3.15A2.92,2.92,0,0,1,84.22,13.74ZM86,16.33a1.76,1.76,0,0,0-1.75-1.72,2,2,0,0,0-1.94,1.72Z" transform="translate(-8.5 -6.1)"/><path class="cls-1" d="M88.53,11.06a.3.3,0,0,1,.29-.29h.39a.31.31,0,0,1,.28.29v8.53a.3.3,0,0,1-.28.29h-.39a.29.29,0,0,1-.29-.29Z" transform="translate(-8.5 -6.1)"/><path class="cls-1" d="M93.48,16.07a5.29,5.29,0,0,1,1.29.19c0-1.1-.52-1.65-1.38-1.65A3.71,3.71,0,0,0,92,15c-.15.07-.23,0-.28-.15l-.13-.36c-.06-.18,0-.26.18-.32a3.85,3.85,0,0,1,1.68-.39c1.53,0,2.24.91,2.24,2.52v3.43a.22.22,0,0,1-.23.24c-.39,0-.6-.3-.64-.7a2.63,2.63,0,0,1-1.88.79,1.83,1.83,0,0,1-1.86-2C91.08,16.91,91.94,16.07,93.48,16.07Zm-.37,3.08a2.09,2.09,0,0,0,1.65-.81V17.12a3.21,3.21,0,0,0-1.28-.23c-.83,0-1.45.4-1.45,1.17A1,1,0,0,0,93.11,19.15Z" transform="translate(-8.5 -6.1)"/><path class="cls-1" d="M100.31,13.74a2.78,2.78,0,0,1,2.18,1,.29.29,0,0,1,0,.43l-.21.19c-.19.17-.31,0-.43-.09a1.84,1.84,0,0,0-1.5-.65,2.16,2.16,0,0,0-2.06,2.26,2.15,2.15,0,0,0,2,2.28,2,2,0,0,0,1.64-.86c.16-.2.33-.14.5,0l.08.07a.31.31,0,0,1,.08.42A2.77,2.77,0,0,1,100.3,20a3,3,0,0,1-3-3.13A3,3,0,0,1,100.31,13.74Z" transform="translate(-8.5 -6.1)"/><path class="cls-1" d="M103.82,11.62a.7.7,0,0,1,.7-.73.72.72,0,1,1,0,1.43A.7.7,0,0,1,103.82,11.62Zm.25,2.54a.3.3,0,0,1,.28-.29h.39a.31.31,0,0,1,.29.29v5.43a.3.3,0,0,1-.29.29h-.39a.29.29,0,0,1-.28-.29Z" transform="translate(-8.5 -6.1)"/><path class="cls-1" d="M109.6,13.74a3.14,3.14,0,1,1-3,3.12A3.09,3.09,0,0,1,109.6,13.74Zm0,5.41a2.16,2.16,0,0,0,2.06-2.29,2.07,2.07,0,1,0-4.12,0A2.17,2.17,0,0,0,109.6,19.15Z" transform="translate(-8.5 -6.1)"/><path class="cls-1" d="M114.24,14.05a.22.22,0,0,1,.24-.23c.38,0,.58.28.62.67a3.16,3.16,0,0,1,2-.75c1.74,0,2.17,1.13,2.17,2.68v3.17a.3.3,0,0,1-.29.29h-.39a.29.29,0,0,1-.28-.29v-3.3c0-1.15-.39-1.68-1.28-1.68a2.61,2.61,0,0,0-1.84.83v4.15a.3.3,0,0,1-.29.29h-.39a.29.29,0,0,1-.29-.29Z" transform="translate(-8.5 -6.1)"/><path class="cls-1" d="M123.79,13.74a2.64,2.64,0,0,1,2.71,2.73c0,.1,0,.26,0,.36a.29.29,0,0,1-.28.26h-4.36a2.11,2.11,0,0,0,2,2.06,2.76,2.76,0,0,0,1.62-.5c.21-.14.3-.19.46,0l.16.22c.11.19.16.25-.06.42a3.63,3.63,0,0,1-2.19.69,2.93,2.93,0,0,1-2.92-3.15A2.92,2.92,0,0,1,123.79,13.74Zm1.75,2.59a1.75,1.75,0,0,0-1.75-1.72,2,2,0,0,0-1.94,1.72Z" transform="translate(-8.5 -6.1)"/><path class="cls-1" d="M127.73,19.29a.2.2,0,0,1,0-.26l.18-.34c.08-.14.18-.19.35-.08a2.43,2.43,0,0,0,1.49.54c.62,0,1-.29,1-.76s-.47-.8-1.34-1.23-1.7-.82-1.7-1.85a1.66,1.66,0,0,1,1.86-1.57,3.09,3.09,0,0,1,1.71.47.27.27,0,0,1,.07.4l-.13.25a.29.29,0,0,1-.42.1,2.4,2.4,0,0,0-1.23-.35c-.66,0-.89.38-.89.66,0,.54.42.73,1.15,1.07,1,.48,1.94.87,1.94,2a1.85,1.85,0,0,1-2,1.72A2.9,2.9,0,0,1,127.73,19.29Z" transform="translate(-8.5 -6.1)"/><path class="cls-1" d="M43.27,39.83H41a.25.25,0,0,1-.24-.25v-.37A.25.25,0,0,1,41,39h5.52a.25.25,0,0,1,.24.25v.37a.25.25,0,0,1-.24.25H44.25v8a.25.25,0,0,1-.24.25h-.5a.25.25,0,0,1-.24-.25Z" transform="translate(-8.5 -6.1)"/><path class="cls-1" d="M48,39.81a.71.71,0,1,1,1.41,0,.71.71,0,0,1-1.41,0Zm.24,2.53a.3.3,0,0,1,.29-.29h.39a.31.31,0,0,1,.28.29v5.43a.3.3,0,0,1-.28.29h-.39a.29.29,0,0,1-.29-.29Z" transform="translate(-8.5 -6.1)"/><path class="cls-1" d="M53.67,41.92a2.64,2.64,0,0,1,2.71,2.73c0,.11,0,.26,0,.37a.3.3,0,0,1-.28.26H51.72a2.11,2.11,0,0,0,2,2,2.77,2.77,0,0,0,1.62-.49c.21-.15.3-.2.46,0l.15.22c.12.18.17.25,0,.41a3.63,3.63,0,0,1-2.19.69,3.15,3.15,0,0,1,0-6.28Zm1.75,2.59a1.77,1.77,0,0,0-1.75-1.72,2,2,0,0,0-1.94,1.72Z" transform="translate(-8.5 -6.1)"/><path class="cls-1" d="M58,42.24a.22.22,0,0,1,.23-.24c.38,0,.58.29.62.68a3.11,3.11,0,0,1,2-.76c1.74,0,2.17,1.14,2.17,2.68v3.17a.3.3,0,0,1-.29.29h-.39a.29.29,0,0,1-.28-.29v-3.3c0-1.14-.39-1.68-1.28-1.68a2.6,2.6,0,0,0-1.84.84v4.14a.3.3,0,0,1-.29.29h-.39a.29.29,0,0,1-.28-.29Z" transform="translate(-8.5 -6.1)"/><path class="cls-1" d="M67.43,41.92a3.71,3.71,0,0,1,1.67.38v-3a.3.3,0,0,1,.28-.29h.37a.31.31,0,0,1,.3.29v8.63a.22.22,0,0,1-.24.23c-.38,0-.58-.28-.64-.67a3,3,0,0,1-1.89.76A3,3,0,0,1,64.59,45,2.83,2.83,0,0,1,67.43,41.92Zm0,5.41a2.24,2.24,0,0,0,1.71-1V43.13a4,4,0,0,0-1.54-.34,2.3,2.3,0,0,0-.17,4.54Z" transform="translate(-8.5 -6.1)"/><path class="cls-1" d="M74,44.25a5.05,5.05,0,0,1,1.29.2c0-1.11-.52-1.66-1.38-1.66a3.63,3.63,0,0,0-1.39.36c-.16.06-.24,0-.29-.16l-.13-.35c0-.18,0-.26.18-.33A3.89,3.89,0,0,1,74,41.92c1.54,0,2.25.91,2.25,2.53v3.43a.22.22,0,0,1-.23.23c-.39,0-.6-.3-.64-.7a2.63,2.63,0,0,1-1.89.79,1.82,1.82,0,0,1-1.85-2C71.61,45.1,72.46,44.25,74,44.25Zm-.38,3.08a2.08,2.08,0,0,0,1.65-.8V45.3A3.11,3.11,0,0,0,74,45.07c-.83,0-1.46.4-1.46,1.17A1,1,0,0,0,73.63,47.33Z" transform="translate(-8.5 -6.1)"/><path class="cls-1" d="M77.81,47.48a.2.2,0,0,1,0-.26l.18-.34c.08-.15.18-.2.35-.08a2.5,2.5,0,0,0,1.49.53c.62,0,1-.28,1-.75s-.47-.81-1.34-1.24-1.7-.82-1.7-1.84a1.66,1.66,0,0,1,1.86-1.58,3.16,3.16,0,0,1,1.72.47.28.28,0,0,1,.06.4l-.13.25a.3.3,0,0,1-.42.11,2.3,2.3,0,0,0-1.23-.36c-.66,0-.89.38-.89.67,0,.53.42.73,1.15,1.06,1,.49,1.94.88,1.94,2a1.84,1.84,0,0,1-2,1.71A3,3,0,0,1,77.81,47.48Z" transform="translate(-8.5 -6.1)"/><path class="cls-1" d="M86.52,42.24a.22.22,0,0,1,.23-.24c.38,0,.58.29.62.68a3.11,3.11,0,0,1,2-.76c1.74,0,2.17,1.14,2.17,2.68v3.17a.3.3,0,0,1-.29.29h-.39a.29.29,0,0,1-.28-.29v-3.3c0-1.14-.39-1.68-1.28-1.68a2.6,2.6,0,0,0-1.84.84v4.14a.3.3,0,0,1-.29.29H86.8a.29.29,0,0,1-.28-.29Z" transform="translate(-8.5 -6.1)"/><path class="cls-1" d="M93.42,42.34a.29.29,0,0,1,.28-.29h.39a.3.3,0,0,1,.29.29v3.25c0,1.2.39,1.74,1.26,1.74a2.21,2.21,0,0,0,1.7-.87V42.34a.29.29,0,0,1,.28-.29H98a.3.3,0,0,1,.27.29v5.54a.22.22,0,0,1-.23.23c-.39,0-.6-.28-.64-.69a2.39,2.39,0,0,1-1.86.78c-1.73,0-2.14-1-2.14-2.62Z" transform="translate(-8.5 -6.1)"/><path class="cls-1" d="M102.86,41.92a2.64,2.64,0,0,1,2.71,2.73c0,.11,0,.26,0,.37a.3.3,0,0,1-.28.26h-4.36a2.11,2.11,0,0,0,2,2,2.77,2.77,0,0,0,1.62-.49c.21-.15.3-.2.46,0l.16.22c.11.18.16.25-.06.41a3.63,3.63,0,0,1-2.19.69,3.15,3.15,0,0,1,0-6.28Zm1.75,2.59a1.76,1.76,0,0,0-1.75-1.72,2,2,0,0,0-1.94,1.72Z" transform="translate(-8.5 -6.1)"/><path class="cls-1" d="M106.34,42.39a.22.22,0,0,1,.22-.34H107a.27.27,0,0,1,.27.17l1.86,4.42h0l2-4.42a.26.26,0,0,1,.23-.17h.42c.23,0,.31.16.23.34l-2.58,5.66a.25.25,0,0,1-.25.15h-.08a.23.23,0,0,1-.24-.15Z" transform="translate(-8.5 -6.1)"/><path class="cls-1" d="M115.27,44.25a5.05,5.05,0,0,1,1.29.2c0-1.11-.52-1.66-1.38-1.66a3.63,3.63,0,0,0-1.39.36c-.16.06-.23,0-.29-.16l-.13-.35c-.05-.18,0-.26.19-.33a3.8,3.8,0,0,1,1.67-.39c1.54,0,2.25.91,2.25,2.53v3.43a.22.22,0,0,1-.23.23c-.39,0-.6-.3-.64-.7a2.63,2.63,0,0,1-1.88.79,1.82,1.82,0,0,1-1.86-2C112.87,45.1,113.72,44.25,115.27,44.25Zm-.38,3.08a2.09,2.09,0,0,0,1.66-.8V45.3a3.21,3.21,0,0,0-1.28-.23c-.83,0-1.45.4-1.45,1.17A1,1,0,0,0,114.89,47.33Z" transform="translate(-8.5 -6.1)"/><path class="cls-1" d="M119.07,47.48a.21.21,0,0,1,0-.26l.18-.34c.08-.15.18-.2.35-.08a2.51,2.51,0,0,0,1.5.53c.61,0,1-.28,1-.75s-.46-.81-1.34-1.24-1.7-.82-1.7-1.84a1.66,1.66,0,0,1,1.86-1.58,3.16,3.16,0,0,1,1.72.47.28.28,0,0,1,.06.4l-.13.25a.29.29,0,0,1-.41.11,2.34,2.34,0,0,0-1.24-.36c-.66,0-.88.38-.88.67,0,.53.41.73,1.14,1.06,1,.49,1.94.88,1.94,2a1.84,1.84,0,0,1-2,1.71A3,3,0,0,1,119.07,47.48Z" transform="translate(-8.5 -6.1)"/><rect class="cls-2" x="0.89" width="18.44" height="18.44"/><rect class="cls-3" x="0.89" y="28.18" width="18.44" height="18.44"/><rect class="cls-4" x="144.89" y="28.18" width="18.44" height="18.44"/><path class="cls-1" d="M185.62,11a.25.25,0,0,1,.25-.25h.51a.25.25,0,0,1,.24.25v8h3.75a.25.25,0,0,1,.24.25v.38a.25.25,0,0,1-.24.25h-4.5a.25.25,0,0,1-.25-.25Z" transform="translate(-8.5 -6.1)"/><path class="cls-1" d="M194.32,13.74a3.14,3.14,0,1,1-3,3.12A3.09,3.09,0,0,1,194.32,13.74Zm0,5.41a2.16,2.16,0,0,0,2.05-2.29,2.07,2.07,0,1,0-4.12,0A2.17,2.17,0,0,0,194.32,19.15Z" transform="translate(-8.5 -6.1)"/><path class="cls-1" d="M204.07,19.91a2.49,2.49,0,0,1-2.63,2.81,3.35,3.35,0,0,1-2.09-.78.29.29,0,0,1-.07-.35l.26-.38c.1-.14.25-.14.39,0a2.43,2.43,0,0,0,1.51.64c.95,0,1.68-.52,1.68-1.93v-.42a2.86,2.86,0,0,1-4.51-2.62,2.94,2.94,0,0,1,2.81-3.13,3,3,0,0,1,1.8.62.62.62,0,0,1,.61-.54.22.22,0,0,1,.24.23Zm-2.48-.78a2.94,2.94,0,0,0,1.52-.49V15.35a2.23,2.23,0,0,0-1.59-.73,2.06,2.06,0,0,0-1.94,2.24A2.1,2.1,0,0,0,201.59,19.13Z" transform="translate(-8.5 -6.1)"/><path class="cls-1" d="M205.3,12.14l2-1.24a.4.4,0,0,1,.53.24c.11.23.11.47-.06.55l-2.21,1c-.1.05-.23,0-.31-.19S205.21,12.19,205.3,12.14Zm.78,2a.3.3,0,0,1,.29-.29h.39a.31.31,0,0,1,.29.29v5.43a.3.3,0,0,1-.29.29h-.39a.29.29,0,0,1-.29-.29Z" transform="translate(-8.5 -6.1)"/><path class="cls-1" d="M208.66,19.29a.21.21,0,0,1,0-.26l.18-.34c.08-.14.18-.19.35-.08a2.44,2.44,0,0,0,1.5.54c.61,0,1-.29,1-.76s-.47-.8-1.34-1.23-1.7-.82-1.7-1.85a1.66,1.66,0,0,1,1.86-1.57,3.16,3.16,0,0,1,1.72.47.28.28,0,0,1,.06.4l-.13.25a.28.28,0,0,1-.41.1,2.44,2.44,0,0,0-1.24-.35c-.66,0-.88.38-.88.66,0,.54.41.73,1.14,1.07,1,.48,1.94.87,1.94,2a1.84,1.84,0,0,1-2,1.72A2.93,2.93,0,0,1,208.66,19.29Z" transform="translate(-8.5 -6.1)"/><path class="cls-1" d="M213.84,14.7a.28.28,0,0,1-.3-.28v-.26a.28.28,0,0,1,.3-.29h.8V12.21a.3.3,0,0,1,.28-.29l.41,0a.27.27,0,0,1,.27.29v1.69h1.77a.29.29,0,0,1,.3.29v.26a.29.29,0,0,1-.3.28H215.6v3.55a.8.8,0,0,0,.81.9,1.88,1.88,0,0,0,.92-.26c.23-.15.32,0,.37.11l.11.26c.08.2.05.3-.11.39a3,3,0,0,1-1.41.37,1.65,1.65,0,0,1-1.65-1.77V14.7Z" transform="translate(-8.5 -6.1)"/><path class="cls-1" d="M218.89,11.62a.7.7,0,0,1,.7-.73.72.72,0,1,1,0,1.43A.7.7,0,0,1,218.89,11.62Zm.25,2.54a.3.3,0,0,1,.28-.29h.39a.31.31,0,0,1,.29.29v5.43a.3.3,0,0,1-.29.29h-.39a.29.29,0,0,1-.28-.29Z" transform="translate(-8.5 -6.1)"/><path class="cls-1" d="M224.73,13.74a2.79,2.79,0,0,1,2.18,1,.29.29,0,0,1,0,.43l-.21.19c-.2.17-.31,0-.43-.09a1.87,1.87,0,0,0-1.51-.65,2.16,2.16,0,0,0-2.05,2.26,2.14,2.14,0,0,0,2,2.28,2,2,0,0,0,1.64-.86c.17-.2.34-.14.51,0l.08.07a.3.3,0,0,1,.07.42A2.76,2.76,0,0,1,224.71,20a3,3,0,0,1-3-3.13A3,3,0,0,1,224.73,13.74Z" transform="translate(-8.5 -6.1)"/><path class="cls-1" d="M230.57,16.07a5.29,5.29,0,0,1,1.29.19c0-1.1-.52-1.65-1.38-1.65a3.71,3.71,0,0,0-1.39.35c-.15.07-.23,0-.28-.15l-.13-.36c-.06-.18,0-.26.18-.32a3.85,3.85,0,0,1,1.68-.39c1.53,0,2.24.91,2.24,2.52v3.43a.22.22,0,0,1-.23.24c-.39,0-.6-.3-.64-.7A2.61,2.61,0,0,1,230,20a1.83,1.83,0,0,1-1.86-2C228.17,16.91,229,16.07,230.57,16.07Zm-.37,3.08a2.09,2.09,0,0,0,1.65-.81V17.12a3.21,3.21,0,0,0-1.28-.23c-.83,0-1.45.4-1.45,1.17A1,1,0,0,0,230.2,19.15Z" transform="translate(-8.5 -6.1)"/><path class="cls-1" d="M188.05,41.92a1.64,1.64,0,0,1,1.82,1.56c0,1.16-1.15,2-3.25,2l-.83,0a1.64,1.64,0,0,0,1.48,2,2.13,2.13,0,0,0,1.32-.54.23.23,0,0,1,.37.08l.17.26c.08.12.12.21-.09.36a3.2,3.2,0,0,1-1.86.69,2.4,2.4,0,0,1-2.26-2.65C184.92,43.6,186.18,41.92,188.05,41.92Zm-1.32,2.73c1.41,0,2.19-.41,2.19-1.11,0-.41-.33-.77-.93-.77a2.32,2.32,0,0,0-2.08,1.84A7.88,7.88,0,0,0,186.73,44.65Z" transform="translate(-8.5 -6.1)"/><path class="cls-1" d="M196.1,38.83A3.36,3.36,0,0,1,198.76,40a.25.25,0,0,1,0,.36l-.38.3c-.13.11-.21.08-.34-.06a2.77,2.77,0,0,0-2-.87c-2,0-3.73,2-3.73,4.26,0,1.72,1.08,3.21,2.68,3.21a3.11,3.11,0,0,0,2.26-1c.12-.12.23-.09.28,0l.41.39c.1.1,0,.26-.05.35a4.36,4.36,0,0,1-3,1.26,3.88,3.88,0,0,1-3.62-4A5.08,5.08,0,0,1,196.1,38.83Z" transform="translate(-8.5 -6.1)"/><path class="cls-1" d="M202.35,41.92a2.55,2.55,0,0,1,2.33,2.69,3.4,3.4,0,0,1-3.16,3.59,2.55,2.55,0,0,1-2.31-2.71A3.39,3.39,0,0,1,202.35,41.92Zm1.41,2.77c0-1-.6-1.91-1.49-1.91a2.46,2.46,0,0,0-2.15,2.63c0,1.08.58,1.94,1.48,1.94A2.5,2.5,0,0,0,203.76,44.69Z" transform="translate(-8.5 -6.1)"/><path class="cls-1" d="M214.3,44.47l-.46,3.3a.31.31,0,0,1-.29.29h-.45a.24.24,0,0,1-.23-.29l.45-3.3c.16-1.12-.09-1.69-.85-1.69a2.31,2.31,0,0,0-1.62.89,3.68,3.68,0,0,1,0,.8l-.45,3.3a.31.31,0,0,1-.3.29h-.45a.23.23,0,0,1-.21-.29l.43-3.3c.14-1.14-.1-1.69-.88-1.69a2.1,2.1,0,0,0-1.52.89l-.56,4.1a.34.34,0,0,1-.32.29h-.42a.24.24,0,0,1-.23-.29l.77-5.56a.22.22,0,0,1,.23-.21c.34,0,.55.34.56.7a2.55,2.55,0,0,1,1.76-.78,1.49,1.49,0,0,1,1.42.93,2.73,2.73,0,0,1,2-.93C214.16,41.92,214.51,42.93,214.3,44.47Z" transform="translate(-8.5 -6.1)"/><path class="cls-1" d="M224.18,44.47l-.46,3.3a.31.31,0,0,1-.29.29H223a.24.24,0,0,1-.23-.29l.45-3.3c.16-1.12-.09-1.69-.85-1.69a2.31,2.31,0,0,0-1.62.89,3.68,3.68,0,0,1,0,.8l-.45,3.3a.31.31,0,0,1-.3.29h-.45a.23.23,0,0,1-.21-.29l.43-3.3c.14-1.14-.1-1.69-.88-1.69a2.1,2.1,0,0,0-1.52.89l-.56,4.1a.34.34,0,0,1-.32.29H216a.24.24,0,0,1-.23-.29l.77-5.56a.22.22,0,0,1,.23-.21c.34,0,.55.34.56.7a2.55,2.55,0,0,1,1.76-.78,1.49,1.49,0,0,1,1.42.93,2.73,2.73,0,0,1,2-.93C224,41.92,224.39,42.93,224.18,44.47Z" transform="translate(-8.5 -6.1)"/><path class="cls-1" d="M228.83,41.92a1.64,1.64,0,0,1,1.82,1.56c0,1.16-1.15,2-3.25,2l-.83,0a1.64,1.64,0,0,0,1.48,2,2.13,2.13,0,0,0,1.32-.54.23.23,0,0,1,.37.08l.17.26c.08.12.12.21-.09.36a3.2,3.2,0,0,1-1.86.69,2.4,2.4,0,0,1-2.26-2.65C225.7,43.6,227,41.92,228.83,41.92Zm-1.32,2.73c1.41,0,2.19-.41,2.19-1.11,0-.41-.33-.77-.93-.77a2.32,2.32,0,0,0-2.08,1.84A7.88,7.88,0,0,0,227.51,44.65Z" transform="translate(-8.5 -6.1)"/><path class="cls-1" d="M235.78,42.39l-.19.4c-.07.19-.19.16-.34.11a1.58,1.58,0,0,0-.61-.12,2.21,2.21,0,0,0-1.47.85l-.55,4.14a.38.38,0,0,1-.34.29h-.41a.24.24,0,0,1-.22-.29l.77-5.56a.22.22,0,0,1,.24-.21c.33,0,.54.33.55.7a2.26,2.26,0,0,1,1.69-.78,1.67,1.67,0,0,1,.78.15A.23.23,0,0,1,235.78,42.39Z" transform="translate(-8.5 -6.1)"/><path class="cls-1" d="M239.38,41.92a2,2,0,0,1,1.88,1,.3.3,0,0,1-.1.39l-.28.24a.23.23,0,0,1-.37-.08,1.35,1.35,0,0,0-1.15-.68,2.36,2.36,0,0,0-2.13,2.6c0,1,.53,2,1.47,2a1.86,1.86,0,0,0,1.42-.91.25.25,0,0,1,.39-.1l.31.22c.13.1.1.24,0,.39a2.57,2.57,0,0,1-2.25,1.25,2.48,2.48,0,0,1-2.36-2.69A3.32,3.32,0,0,1,239.38,41.92Z" transform="translate(-8.5 -6.1)"/><path class="cls-1" d="M245.32,41.92a1.64,1.64,0,0,1,1.82,1.56c0,1.16-1.16,2-3.25,2l-.84,0a1.65,1.65,0,0,0,1.49,2,2.13,2.13,0,0,0,1.31-.54c.14-.1.26-.09.38.08l.17.26c.07.12.11.21-.1.36a3.16,3.16,0,0,1-1.85.69,2.4,2.4,0,0,1-2.27-2.65A3.36,3.36,0,0,1,245.32,41.92ZM244,44.65c1.42,0,2.2-.41,2.2-1.11,0-.41-.34-.77-.94-.77a2.32,2.32,0,0,0-2.08,1.84A8,8,0,0,0,244,44.65Z" transform="translate(-8.5 -6.1)"/><path class="cls-1" d="M252.17,50.79l1.13-2.68-2.22-5.73c-.08-.2,0-.33.23-.33h.55a.29.29,0,0,1,.26.17l1.7,4.77h0l2-4.77a.29.29,0,0,1,.26-.17h.49c.23,0,.32.15.23.34L253.09,51a.31.31,0,0,1-.26.18h-.41C252.18,51.15,252.08,51,252.17,50.79Z" transform="translate(-8.5 -6.1)"/><path class="cls-1" d="M260.93,42.89a.29.29,0,0,1-.3-.29v-.26a.28.28,0,0,1,.3-.29h.79V40.39a.32.32,0,0,1,.29-.29l.4,0a.27.27,0,0,1,.28.28v1.69h1.76a.29.29,0,0,1,.3.29v.26a.29.29,0,0,1-.3.29h-1.76v3.55a.79.79,0,0,0,.8.89,1.72,1.72,0,0,0,.92-.26c.24-.14.33,0,.38.12l.11.26c.07.19.05.3-.11.39a3.1,3.1,0,0,1-1.42.36,1.65,1.65,0,0,1-1.65-1.76V42.89Z" transform="translate(-8.5 -6.1)"/><path class="cls-1" d="M268.61,41.92a2.64,2.64,0,0,1,2.72,2.73,2.31,2.31,0,0,1,0,.37.28.28,0,0,1-.27.26h-4.37a2.11,2.11,0,0,0,2,2,2.79,2.79,0,0,0,1.62-.49c.21-.15.3-.2.46,0l.15.22c.12.18.17.25-.05.41a3.66,3.66,0,0,1-2.2.69,3.15,3.15,0,0,1,0-6.28Zm1.76,2.59a1.77,1.77,0,0,0-1.76-1.72,2,2,0,0,0-1.93,1.72Z" transform="translate(-8.5 -6.1)"/><path class="cls-1" d="M275.58,41.92a2.8,2.8,0,0,1,2.19,1,.29.29,0,0,1-.06.43l-.2.2c-.2.16-.32,0-.43-.1a1.9,1.9,0,0,0-1.51-.65,2.17,2.17,0,0,0-2.06,2.27,2.14,2.14,0,0,0,2,2.27,2,2,0,0,0,1.64-.86c.17-.19.34-.14.5,0l.08.08c.13.13.18.26.08.41a2.73,2.73,0,0,1-2.26,1.21,3,3,0,0,1-3-3.13A3,3,0,0,1,275.58,41.92Z" transform="translate(-8.5 -6.1)"/><path class="cls-1" d="M279.34,42.24a.22.22,0,0,1,.23-.24c.38,0,.59.29.63.68a3.08,3.08,0,0,1,2-.76c1.74,0,2.17,1.14,2.17,2.68v3.17a.3.3,0,0,1-.28.29h-.39a.29.29,0,0,1-.29-.29v-3.3c0-1.14-.39-1.68-1.27-1.68a2.64,2.64,0,0,0-1.85.84v4.14a.3.3,0,0,1-.29.29h-.39a.29.29,0,0,1-.28-.29Z" transform="translate(-8.5 -6.1)"/><path class="cls-1" d="M289,41.92A3.14,3.14,0,1,1,286,45,3.09,3.09,0,0,1,289,41.92Zm0,5.41A2.28,2.28,0,1,0,286.9,45,2.17,2.17,0,0,0,289,47.33Z" transform="translate(-8.5 -6.1)"/><path class="cls-1" d="M293.64,39.25a.3.3,0,0,1,.28-.29h.39a.3.3,0,0,1,.29.29v8.52a.3.3,0,0,1-.29.29h-.39a.29.29,0,0,1-.28-.29Z" transform="translate(-8.5 -6.1)"/><path class="cls-1" d="M299.25,41.92a3.14,3.14,0,1,1-3,3.12A3.09,3.09,0,0,1,299.25,41.92Zm0,5.41A2.28,2.28,0,1,0,297.19,45,2.16,2.16,0,0,0,299.25,47.33Z" transform="translate(-8.5 -6.1)"/><path class="cls-1" d="M309,48.1a2.49,2.49,0,0,1-2.62,2.81,3.47,3.47,0,0,1-2.1-.78.3.3,0,0,1-.06-.35l.26-.38c.09-.14.25-.14.39,0a2.4,2.4,0,0,0,1.51.63c.95,0,1.68-.52,1.68-1.92v-.43a3.06,3.06,0,1,1-1.71-5.75,3,3,0,0,1,1.81.63.61.61,0,0,1,.61-.55.22.22,0,0,1,.23.24Zm-2.48-.78a2.91,2.91,0,0,0,1.52-.5V43.54a2.23,2.23,0,0,0-1.58-.73A2.05,2.05,0,0,0,304.52,45,2.11,2.11,0,0,0,306.52,47.32Z" transform="translate(-8.5 -6.1)"/><path class="cls-1" d="M310.24,40.32l2-1.23a.4.4,0,0,1,.53.23c.1.24.1.47-.06.55l-2.21,1c-.11.05-.24,0-.32-.18S310.15,40.38,310.24,40.32Zm.78,2a.3.3,0,0,1,.29-.29h.39a.31.31,0,0,1,.28.29v5.43a.3.3,0,0,1-.28.29h-.39a.29.29,0,0,1-.29-.29Z" transform="translate(-8.5 -6.1)"/><path class="cls-1" d="M315.88,44.25a5.05,5.05,0,0,1,1.29.2c0-1.11-.52-1.66-1.38-1.66a3.63,3.63,0,0,0-1.39.36c-.16.06-.24,0-.29-.16l-.13-.35c-.05-.18,0-.26.18-.33a3.89,3.89,0,0,1,1.68-.39c1.54,0,2.25.91,2.25,2.53v3.43a.22.22,0,0,1-.23.23c-.39,0-.6-.3-.64-.7a2.63,2.63,0,0,1-1.89.79,1.82,1.82,0,0,1-1.85-2C313.48,45.1,314.33,44.25,315.88,44.25Zm-.38,3.08a2.11,2.11,0,0,0,1.66-.8V45.3a3.21,3.21,0,0,0-1.28-.23c-.83,0-1.46.4-1.46,1.17A1,1,0,0,0,315.5,47.33Z" transform="translate(-8.5 -6.1)"/><rect class="cls-5" x="144.85" width="18.44" height="18.44"/><rect class="cls-5" y="272.56" width="23.93" height="23.93"/><rect class="cls-4" x="25.08" y="297.64" width="23.93" height="23.93"/><rect class="cls-4" x="50.17" y="297.64" width="23.93" height="23.93"/><rect class="cls-4" x="75.25" y="297.64" width="23.93" height="23.93"/><rect class="cls-4" x="100.34" y="297.64" width="23.93" height="23.93"/><rect class="cls-4" x="125.42" y="297.64" width="23.93" height="23.93"/><rect class="cls-4" x="150.51" y="297.64" width="23.93" height="23.93"/><rect class="cls-4" x="175.59" y="297.64" width="23.93" height="23.93"/><rect class="cls-4" x="225.76" y="297.64" width="23.93" height="23.93"/><rect class="cls-4" x="200.68" y="297.64" width="23.93" height="23.93"/><rect class="cls-4" y="297.64" width="23.93" height="23.93"/><rect class="cls-5" x="25.08" y="272.56" width="23.93" height="23.93"/><rect class="cls-5" x="50.17" y="272.56" width="23.93" height="23.93"/><rect class="cls-5" x="75.25" y="272.56" width="23.93" height="23.93"/><rect class="cls-4" x="100.34" y="272.56" width="23.93" height="23.93"/><rect class="cls-4" x="125.42" y="272.56" width="23.93" height="23.93"/><rect class="cls-4" x="150.51" y="272.56" width="23.93" height="23.93"/><rect class="cls-4" x="175.59" y="272.56" width="23.93" height="23.93"/><rect class="cls-4" x="225.76" y="272.56" width="23.93" height="23.93"/><rect class="cls-4" x="200.68" y="272.56" width="23.93" height="23.93"/><rect class="cls-5" y="247.47" width="23.93" height="23.93"/><rect class="cls-5" x="25.08" y="247.47" width="23.93" height="23.93"/><rect class="cls-5" x="50.17" y="247.47" width="23.93" height="23.93"/><rect class="cls-5" x="75.25" y="247.47" width="23.93" height="23.93"/><rect class="cls-5" x="100.34" y="247.47" width="23.93" height="23.93"/><rect class="cls-5" x="125.42" y="247.47" width="23.93" height="23.93"/><rect class="cls-5" x="150.51" y="247.47" width="23.93" height="23.93"/><rect class="cls-5" x="175.59" y="247.47" width="23.93" height="23.93"/><rect class="cls-5" x="225.76" y="247.47" width="23.93" height="23.93"/><rect class="cls-5" x="200.68" y="247.47" width="23.93" height="23.93"/><rect class="cls-3" y="222.39" width="23.93" height="23.93"/><rect class="cls-3" x="25.08" y="222.39" width="23.93" height="23.93"/><rect class="cls-3" x="50.17" y="222.39" width="23.93" height="23.93"/><rect class="cls-3" x="75.25" y="222.39" width="23.93" height="23.93"/><rect class="cls-3" x="100.34" y="222.39" width="23.93" height="23.93"/><rect class="cls-3" x="125.42" y="222.39" width="23.93" height="23.93"/><rect class="cls-3" x="150.51" y="222.39" width="23.93" height="23.93"/><rect class="cls-5" x="175.59" y="222.39" width="23.93" height="23.93"/><rect class="cls-5" x="200.68" y="222.39" width="23.93" height="23.93"/><rect class="cls-5" x="225.76" y="222.39" width="23.93" height="23.93"/><rect class="cls-3" y="197.3" width="23.93" height="23.93"/><rect class="cls-3" x="25.08" y="197.3" width="23.93" height="23.93"/><rect class="cls-3" x="50.17" y="197.3" width="23.93" height="23.93"/><rect class="cls-3" x="75.25" y="197.3" width="23.93" height="23.93"/><rect class="cls-3" x="100.34" y="197.3" width="23.93" height="23.93"/><rect class="cls-3" x="125.42" y="197.3" width="23.93" height="23.93"/><rect class="cls-3" x="150.51" y="197.3" width="23.93" height="23.93"/><rect class="cls-3" x="175.59" y="197.3" width="23.93" height="23.93"/><rect class="cls-3" x="200.68" y="197.3" width="23.93" height="23.93"/><rect class="cls-3" x="225.76" y="197.3" width="23.93" height="23.93"/><rect class="cls-2" y="172.22" width="23.93" height="23.93"/><rect class="cls-2" x="25.08" y="172.22" width="23.93" height="23.93"/><rect class="cls-2" x="50.17" y="172.22" width="23.93" height="23.93"/><rect class="cls-2" x="75.25" y="172.22" width="23.93" height="23.93"/><rect class="cls-3" x="100.34" y="172.22" width="23.93" height="23.93"/><rect class="cls-3" x="125.42" y="172.22" width="23.93" height="23.93"/><rect class="cls-3" x="150.51" y="172.22" width="23.93" height="23.93"/><rect class="cls-3" x="175.59" y="172.22" width="23.93" height="23.93"/><rect class="cls-3" x="200.68" y="172.22" width="23.93" height="23.93"/><rect class="cls-3" x="225.76" y="172.22" width="23.93" height="23.93"/><rect class="cls-2" y="147.13" width="23.93" height="23.93"/><rect class="cls-2" x="25.08" y="147.13" width="23.93" height="23.93"/><rect class="cls-2" x="50.17" y="147.13" width="23.93" height="23.93"/><rect class="cls-2" x="75.25" y="147.13" width="23.93" height="23.93"/><rect class="cls-2" x="100.34" y="147.13" width="23.93" height="23.93"/><rect class="cls-2" x="125.42" y="147.13" width="23.93" height="23.93"/><rect class="cls-2" x="150.51" y="147.13" width="23.93" height="23.93"/><rect class="cls-2" x="175.59" y="147.13" width="23.93" height="23.93"/><rect class="cls-2" x="200.68" y="147.13" width="23.93" height="23.93"/><rect class="cls-2" x="225.76" y="147.13" width="23.93" height="23.93"/><rect class="cls-2" y="122.05" width="23.93" height="23.93"/><rect class="cls-2" x="25.08" y="122.05" width="23.93" height="23.93"/><rect class="cls-2" x="50.17" y="122.05" width="23.93" height="23.93"/><rect class="cls-2" x="75.25" y="122.05" width="23.93" height="23.93"/><rect class="cls-2" x="100.34" y="122.05" width="23.93" height="23.93"/><rect class="cls-2" x="125.42" y="122.05" width="23.93" height="23.93"/><rect class="cls-2" x="150.51" y="122.05" width="23.93" height="23.93"/><rect class="cls-2" x="175.59" y="122.05" width="23.93" height="23.93"/><rect class="cls-2" x="200.68" y="122.05" width="23.93" height="23.93"/><rect class="cls-2" x="225.76" y="122.05" width="23.93" height="23.93"/><rect class="cls-2" y="96.96" width="23.93" height="23.93"/><rect class="cls-2" x="25.08" y="96.96" width="23.93" height="23.93"/><rect class="cls-2" x="50.17" y="96.96" width="23.93" height="23.93"/><rect class="cls-2" x="75.25" y="96.96" width="23.93" height="23.93"/><rect class="cls-2" x="100.34" y="96.96" width="23.93" height="23.93"/><rect class="cls-2" x="125.42" y="96.96" width="23.93" height="23.93"/><rect class="cls-2" x="150.51" y="96.96" width="23.93" height="23.93"/><rect class="cls-2" x="175.59" y="96.96" width="23.93" height="23.93"/><rect class="cls-2" x="200.68" y="96.96" width="23.93" height="23.93"/><rect class="cls-2" x="225.76" y="96.96" width="23.93" height="23.93"/><rect class="cls-2" y="71.88" width="23.93" height="23.93"/><rect class="cls-2" x="25.08" y="71.88" width="23.93" height="23.93"/><rect class="cls-2" x="50.17" y="71.88" width="23.93" height="23.93"/><rect class="cls-2" x="75.25" y="71.88" width="23.93" height="23.93"/><rect class="cls-2" x="100.34" y="71.88" width="23.93" height="23.93"/><rect class="cls-2" x="125.42" y="71.88" width="23.93" height="23.93"/><rect class="cls-2" x="150.51" y="71.88" width="23.93" height="23.93"/><rect class="cls-2" x="175.59" y="71.88" width="23.93" height="23.93"/><rect class="cls-2" x="200.68" y="71.88" width="23.93" height="23.93"/><rect class="cls-2" x="225.76" y="71.88" width="23.93" height="23.93"/><path class="cls-6" d="M266.4,90.08a.4.4,0,0,1-.4-.4V87.9a.94.94,0,0,1,.28-.74l6.92-8.26a.35.35,0,0,1,.3-.12H275a.4.4,0,0,1,.4.4v8.34H277a.37.37,0,0,1,.4.38v1.78a.4.4,0,0,1-.4.4h-1.64v2.5a.4.4,0,0,1-.38.4h-2.18a.4.4,0,0,1-.38-.4v-2.5Zm6.06-2.48V83.7h0l-3.2,3.86v0Z" transform="translate(-8.5 -6.1)"/><path class="cls-6" d="M279.38,90.08a.4.4,0,0,1-.4-.4V87.9a.94.94,0,0,1,.28-.74l6.92-8.26a.35.35,0,0,1,.3-.12H288a.4.4,0,0,1,.4.4v8.34H290a.37.37,0,0,1,.4.38v1.78a.4.4,0,0,1-.4.4h-1.64v2.5a.4.4,0,0,1-.38.4H285.8a.4.4,0,0,1-.38-.4v-2.5Zm6.06-2.48V83.7h0l-3.2,3.86v0Z" transform="translate(-8.5 -6.1)"/><path class="cls-6" d="M292,81.46a2.7,2.7,0,0,1,5.4,0,2.7,2.7,0,1,1-5.4,0Zm8.34-2.28a.42.42,0,0,1,.34-.2h1.52a.36.36,0,0,1,.34.54l-6.9,13.26a.6.6,0,0,1-.34.2h-1.48a.36.36,0,0,1-.34-.54Zm-5,2.28a.69.69,0,0,0-1.38,0,.69.69,0,1,0,1.38,0Zm6,6.32a2.7,2.7,0,1,1-2.7,2.7A2.71,2.71,0,0,1,301.4,87.78Zm0,3.38a.69.69,0,1,0-.68-.68A.7.7,0,0,0,301.4,91.16Z" transform="translate(-8.5 -6.1)"/><path class="cls-7" d="M265.9,259.46a.38.38,0,0,1-.36-.4v-1.3a.38.38,0,0,1,.12-.3l2.68-2.1a1.16,1.16,0,0,1,.72-.24h1.5a.39.39,0,0,1,.38.38v13.22a.4.4,0,0,1-.38.4h-2.28a.39.39,0,0,1-.4-.4v-9.26Z" transform="translate(-8.5 -6.1)"/><path class="cls-7" d="M273.7,257.74a.4.4,0,0,1-.4-.38V255.5a.4.4,0,0,1,.4-.38h8.74a.31.31,0,0,1,.34.3v.08a.6.6,0,0,1-.08.32l-6.08,12.7a.84.84,0,0,1-.84.6h-2a.39.39,0,0,1-.42-.4,1,1,0,0,1,.12-.48l5-10.46v0Z" transform="translate(-8.5 -6.1)"/><path class="cls-7" d="M283.58,257.6a2.7,2.7,0,0,1,5.4,0,2.7,2.7,0,0,1-5.4,0Zm8.34-2.28a.42.42,0,0,1,.34-.2h1.52a.36.36,0,0,1,.34.54l-6.9,13.26a.6.6,0,0,1-.34.2H285.4a.36.36,0,0,1-.34-.54Zm-5,2.28a.69.69,0,0,0-1.38,0,.69.69,0,1,0,1.38,0Zm6,6.32a2.7,2.7,0,1,1-2.7,2.7A2.71,2.71,0,0,1,293,263.92Zm0,3.38a.69.69,0,1,0-.68-.68A.7.7,0,0,0,293,267.3Z" transform="translate(-8.5 -6.1)"/><path class="cls-8" d="M265.9,308.44a.38.38,0,0,1-.36-.4v-1.3a.38.38,0,0,1,.12-.3l2.68-2.1a1.16,1.16,0,0,1,.72-.24h1.5a.39.39,0,0,1,.38.38V317.7a.4.4,0,0,1-.38.4h-2.28a.39.39,0,0,1-.4-.4v-9.26Z" transform="translate(-8.5 -6.1)"/><path class="cls-8" d="M280.26,303.72a.47.47,0,0,1,.64.32l.6,1.6c.08.24,0,.46-.4.6-1,.3-3.64,1.34-4.14,3.32a5.65,5.65,0,0,1,2-.42,4.13,4.13,0,0,1,4.1,4.46,4.74,4.74,0,0,1-4.72,4.72c-3.18,0-5-2.38-5-5.6C273.34,306.66,278.36,304.28,280.26,303.72Zm-2,11.76a2,2,0,0,0,0-4,2,2,0,0,0,0,4Z" transform="translate(-8.5 -6.1)"/><path class="cls-8" d="M284.7,306.58a2.7,2.7,0,0,1,5.4,0,2.7,2.7,0,0,1-5.4,0ZM293,304.3a.42.42,0,0,1,.34-.2h1.52a.36.36,0,0,1,.34.54l-6.9,13.26a.6.6,0,0,1-.34.2h-1.48a.36.36,0,0,1-.34-.54Zm-5,2.28a.69.69,0,0,0-1.38,0,.69.69,0,1,0,1.38,0Zm6,6.32a2.7,2.7,0,1,1-2.7,2.7A2.71,2.71,0,0,1,294.1,312.9Zm0,3.38a.69.69,0,1,0-.68-.68A.7.7,0,0,0,294.1,316.28Z" transform="translate(-8.5 -6.1)"/><path class="cls-9" d="M274.26,190.54a.4.4,0,0,1,.4.4v1.84a.4.4,0,0,1-.4.4H266a.38.38,0,0,1-.38-.4v-.16c0-.2,0-.24.26-.58,1.32-1.76,4.06-5.48,5.2-7.22a3.08,3.08,0,0,0,.52-1.54,1.6,1.6,0,0,0-1.8-1.5,2.94,2.94,0,0,0-2,1,.41.41,0,0,1-.58,0L266,181.54a.4.4,0,0,1,0-.54,5.53,5.53,0,0,1,4.12-2c2.94,0,4.68,1.88,4.68,4.16a5.05,5.05,0,0,1-.8,2.66c-.64,1.16-2.32,3.34-3.28,4.7v0Z" transform="translate(-8.5 -6.1)"/><path class="cls-9" d="M276.38,191.08l1.2-1.34a.38.38,0,0,1,.52,0,3.39,3.39,0,0,0,2.26.94,1.62,1.62,0,0,0,1.78-1.64c0-1-.92-1.68-2.44-1.68h-1.16a.39.39,0,0,1-.38-.38v-1.72a.38.38,0,0,1,.38-.38h1.16c1.44,0,2.2-.68,2.2-1.56a1.5,1.5,0,0,0-1.64-1.56,2.39,2.39,0,0,0-1.8.82.39.39,0,0,1-.56,0l-1.26-1.24a.38.38,0,0,1,0-.54,5.36,5.36,0,0,1,3.94-1.82c2.4,0,4.46,1.46,4.46,3.78a3.66,3.66,0,0,1-2.12,3.16V186a3.48,3.48,0,0,1,2.48,3.32c0,2.24-2,4.06-4.8,4.06a5.13,5.13,0,0,1-4.24-1.78A.42.42,0,0,1,276.38,191.08Z" transform="translate(-8.5 -6.1)"/><path class="cls-9" d="M287.14,181.66a2.7,2.7,0,0,1,5.4,0,2.7,2.7,0,0,1-5.4,0Zm8.34-2.28a.42.42,0,0,1,.34-.2h1.52a.36.36,0,0,1,.34.54L290.78,193a.6.6,0,0,1-.34.2H289a.36.36,0,0,1-.34-.54Zm-5,2.28a.69.69,0,0,0-1.38,0,.69.69,0,1,0,1.38,0Zm6,6.32a2.7,2.7,0,1,1-2.7,2.7A2.71,2.71,0,0,1,296.54,188Zm0,3.38a.69.69,0,1,0-.68-.68A.7.7,0,0,0,296.54,191.36Z" transform="translate(-8.5 -6.1)"/></svg>