<?xml version="1.0" encoding="utf-8"?>
<!-- Generator: Adobe Illustrator 26.1.0, SVG Export Plug-In . SVG Version: 6.00 Build 0)  -->
<svg version="1.1" id="Capa_1" xmlns="http://www.w3.org/2000/svg" xmlns:xlink="http://www.w3.org/1999/xlink" x="0px" y="0px"
	 viewBox="0 0 489 222" style="enable-background:new 0 0 489 222;" xml:space="preserve">
<style type="text/css">
	.st0{fill:#0078BF;}
	.st1{fill:#F9FBFE;}
	.st2{fill:none;stroke:#7AB2E1;stroke-miterlimit:10;}
	.st3{fill:none;stroke:#7AB2E1;stroke-width:0.3;stroke-miterlimit:10;}
	.st4{fill:#FFFFFF;}
</style>
<path class="st0" d="M164,222h65v-6h-65V222z M229,222h65v-6h-65L229,222z M164,24h130V0H164L164,24z"/>
<path class="st1" d="M229,192h65v24h-65L229,192z M164,192h65v24h-65V192z M229,168h65v24h-65L229,168z M164,168h65v24h-65V168z
	 M229,144h65v24h-65L229,144z M164,144h65v24h-65V144z M229,120h65v24h-65L229,120z M164,120h65v24h-65V120z M229,96h65v24h-65
	L229,96z M164,96h65v24h-65V96z M229,72h65v24h-65L229,72z M164,72h65v24h-65V72z M229,48h65v24h-65L229,48z M164,48h65v24h-65V48z
	 M229,24h65v24h-65L229,24z M164,24h65v24h-65V24z"/>
<line class="st2" x1="0" y1="24" x2="164" y2="24"/>
<line class="st2" x1="164" y1="24" x2="229" y2="24"/>
<line class="st2" x1="229" y1="24" x2="294" y2="24"/>
<line class="st2" x1="294" y1="24" x2="359" y2="24"/>
<line class="st2" x1="359" y1="24" x2="424" y2="24"/>
<line class="st2" x1="424" y1="24" x2="489" y2="24"/>
<line class="st2" x1="0" y1="48" x2="164" y2="48"/>
<line class="st2" x1="164" y1="48" x2="229" y2="48"/>
<line class="st2" x1="229" y1="48" x2="294" y2="48"/>
<line class="st2" x1="294" y1="48" x2="359" y2="48"/>
<line class="st2" x1="359" y1="48" x2="424" y2="48"/>
<line class="st2" x1="424" y1="48" x2="489" y2="48"/>
<line class="st3" x1="0" y1="72" x2="164" y2="72"/>
<line class="st3" x1="0" y1="96" x2="164" y2="96"/>
<line class="st3" x1="0" y1="120" x2="164" y2="120"/>
<line class="st3" x1="0" y1="144" x2="164" y2="144"/>
<line class="st3" x1="0" y1="168" x2="164" y2="168"/>
<line class="st3" x1="164" y1="72" x2="229" y2="72"/>
<line class="st3" x1="229" y1="72" x2="294" y2="72"/>
<line class="st3" x1="164" y1="96" x2="229" y2="96"/>
<line class="st3" x1="229" y1="96" x2="294" y2="96"/>
<line class="st3" x1="164" y1="120" x2="229" y2="120"/>
<line class="st3" x1="229" y1="120" x2="294" y2="120"/>
<line class="st3" x1="164" y1="144" x2="229" y2="144"/>
<line class="st3" x1="229" y1="144" x2="294" y2="144"/>
<line class="st3" x1="164" y1="168" x2="229" y2="168"/>
<line class="st3" x1="229" y1="168" x2="294" y2="168"/>
<line class="st3" x1="294" y1="72" x2="359" y2="72"/>
<line class="st3" x1="294" y1="96" x2="359" y2="96"/>
<line class="st3" x1="294" y1="120" x2="359" y2="120"/>
<line class="st3" x1="294" y1="144" x2="359" y2="144"/>
<line class="st3" x1="294" y1="168" x2="359" y2="168"/>
<line class="st3" x1="359" y1="72" x2="424" y2="72"/>
<line class="st3" x1="359" y1="96" x2="424" y2="96"/>
<line class="st3" x1="359" y1="120" x2="424" y2="120"/>
<line class="st3" x1="359" y1="144" x2="424" y2="144"/>
<line class="st3" x1="359" y1="168" x2="424" y2="168"/>
<line class="st3" x1="424" y1="72" x2="489" y2="72"/>
<line class="st3" x1="424" y1="96" x2="489" y2="96"/>
<line class="st3" x1="424" y1="120" x2="489" y2="120"/>
<line class="st3" x1="424" y1="144" x2="489" y2="144"/>
<line class="st3" x1="424" y1="168" x2="489" y2="168"/>
<line class="st3" x1="0" y1="192" x2="164" y2="192"/>
<line class="st3" x1="164" y1="192" x2="229" y2="192"/>
<line class="st3" x1="229" y1="192" x2="294" y2="192"/>
<line class="st3" x1="294" y1="192" x2="359" y2="192"/>
<line class="st3" x1="359" y1="192" x2="424" y2="192"/>
<line class="st3" x1="424" y1="192" x2="489" y2="192"/>
<line class="st3" x1="0" y1="216" x2="164" y2="216"/>
<line class="st3" x1="164" y1="216" x2="229" y2="216"/>
<line class="st3" x1="229" y1="216" x2="294" y2="216"/>
<line class="st3" x1="294" y1="216" x2="359" y2="216"/>
<line class="st3" x1="359" y1="216" x2="424" y2="216"/>
<line class="st3" x1="424" y1="216" x2="489" y2="216"/>
<path class="st4" d="M266.6,15.5c0.2,0,0.3,0.1,0.3,0.3v1c0,0.2-0.1,0.3-0.3,0.3h-5.9c-0.2,0-0.3-0.1-0.3-0.3c0,0,0,0,0,0v-0.2
	c0-0.1,0-0.2,0.1-0.3c1-1.2,2.8-3.6,3.8-4.8c0.4-0.5,0.7-1,0.8-1.6c0-0.8-0.7-1.4-1.4-1.4c0,0-0.1,0-0.1,0c-0.6,0.1-1.2,0.4-1.7,0.9
	c-0.1,0.1-0.3,0.1-0.4,0c0,0,0,0,0,0l-0.7-0.7c-0.1-0.1-0.1-0.3,0-0.4c0.7-0.9,1.8-1.4,2.9-1.5c1.6-0.2,3.1,1,3.3,2.6
	c0,0.1,0,0.2,0,0.4c-0.1,0.9-0.4,1.7-1,2.4c-0.6,0.9-1.8,2.3-2.5,3.3l0,0L266.6,15.5z"/>
<path class="st4" d="M268.6,12c0-3.3,1.4-5.2,3.8-5.2s3.8,2,3.8,5.2s-1.4,5.2-3.8,5.2S268.6,15.3,268.6,12z M274.2,12
	c0-2.2-0.7-3.5-1.9-3.5s-1.9,1.3-1.9,3.5s0.7,3.5,1.9,3.5S274.2,14.2,274.2,12z"/>
<path class="st4" d="M283.5,15.5c0.2,0,0.3,0.1,0.3,0.3v1c0,0.2-0.1,0.3-0.3,0.3h-5.9c-0.2,0-0.3-0.1-0.3-0.3c0,0,0,0,0,0v-0.2
	c0-0.1,0-0.2,0.1-0.3c1-1.2,2.8-3.6,3.8-4.8c0.4-0.5,0.7-1,0.8-1.6c0-0.8-0.7-1.4-1.5-1.4c0,0-0.1,0-0.1,0c-0.6,0.1-1.2,0.4-1.7,0.9
	c-0.1,0.1-0.2,0.1-0.4,0c0,0,0,0,0,0l-0.7-0.7c-0.1-0.1-0.1-0.3,0-0.4c0.7-0.9,1.8-1.4,2.9-1.5c1.6-0.2,3.1,1,3.3,2.7
	c0,0.1,0,0.2,0,0.3c-0.1,0.9-0.4,1.7-1,2.4c-0.6,0.9-1.8,2.3-2.5,3.3l0,0L283.5,15.5z"/>
<path class="st4" d="M285.6,9.9c-0.1,0-0.3-0.1-0.3-0.2c0,0,0,0,0,0L285.2,9c0-0.1,0-0.3,0.1-0.3l1.9-1.6c0.1-0.1,0.3-0.2,0.5-0.2
	h0.8c0.1,0,0.3,0.1,0.3,0.3v9.6c0,0.2-0.1,0.3-0.3,0.3h-1.3c-0.2,0-0.3-0.1-0.3-0.3c0,0,0,0,0,0V9.6L285.6,9.9z"/>
<path class="st0" d="M393,15.5c0.2,0,0.3,0.1,0.3,0.3v1c0,0.2-0.1,0.3-0.3,0.3h-5.9c-0.2,0-0.3-0.1-0.3-0.3c0,0,0,0,0,0v-0.2
	c0-0.1,0-0.2,0.1-0.3c1-1.2,2.8-3.6,3.8-4.8c0.4-0.5,0.7-1,0.8-1.6c0-0.8-0.7-1.4-1.5-1.4c0,0-0.1,0-0.1,0c-0.6,0.1-1.2,0.4-1.7,0.9
	c-0.1,0.1-0.2,0.1-0.4,0c0,0,0,0,0,0L387,8.6c-0.1-0.1-0.1-0.3,0-0.4c0.7-0.9,1.8-1.4,2.9-1.5c1.6-0.2,3.1,1,3.3,2.6
	c0,0.1,0,0.2,0,0.4c-0.1,0.9-0.4,1.7-1,2.4c-0.6,0.9-1.8,2.3-2.5,3.3l0,0L393,15.5z"/>
<path class="st0" d="M395,12c0-3.3,1.4-5.2,3.8-5.2s3.8,2,3.8,5.2s-1.4,5.2-3.8,5.2S395,15.3,395,12z M400.6,12
	c0-2.2-0.7-3.5-1.9-3.5s-1.9,1.3-1.9,3.5s0.7,3.5,1.9,3.5S400.6,14.2,400.6,12L400.6,12z"/>
<path class="st0" d="M409.9,15.5c0.2,0,0.3,0.1,0.3,0.3v1c0,0.2-0.1,0.3-0.3,0.3H404c-0.2,0-0.3-0.1-0.3-0.3v-0.2
	c0-0.1,0-0.2,0.1-0.3c1-1.2,2.8-3.6,3.8-4.8c0.4-0.5,0.7-1,0.8-1.6c0-0.8-0.7-1.4-1.5-1.4c0,0-0.1,0-0.1,0c-0.6,0.1-1.3,0.4-1.7,0.9
	c-0.1,0.1-0.3,0.1-0.4,0c0,0,0,0,0,0L404,8.6c-0.1-0.1-0.1-0.3,0-0.4c0.7-0.9,1.8-1.4,2.9-1.5c1.6-0.2,3.1,1,3.3,2.7
	c0,0.1,0,0.2,0,0.3c-0.1,0.9-0.4,1.7-1,2.4c-0.6,0.9-1.8,2.3-2.5,3.3l0,0L409.9,15.5z"/>
<path class="st0" d="M411.9,12c0-3.3,1.4-5.2,3.8-5.2s3.8,2,3.8,5.2s-1.4,5.2-3.8,5.2S411.9,15.3,411.9,12z M417.5,12
	c0-2.2-0.7-3.5-1.9-3.5s-1.9,1.3-1.9,3.5s0.7,3.5,1.9,3.5S417.5,14.2,417.5,12L417.5,12z"/>
<path class="st0" d="M463.8,7.3c-0.1-0.1,0-0.3,0.1-0.3c0,0,0.1,0,0.1,0h1.5c0.1,0,0.2,0.1,0.2,0.2l2.8,6.2h0.1l2.8-6.2
	c0-0.1,0.1-0.2,0.2-0.2h1.5c0.1,0,0.3,0.1,0.3,0.2c0,0,0,0.1,0,0.1l-4.5,9.8c0,0.1-0.1,0.2-0.2,0.2h-0.1c-0.1,0-0.2-0.1-0.2-0.2
	L463.8,7.3z"/>
<path class="st0" d="M474.5,12.8c0.4,0,0.9,0.1,1.3,0.2c0.1-0.6-0.4-1.2-1-1.3c-0.1,0-0.2,0-0.2,0c-0.5,0-1.1,0.1-1.6,0.2
	c-0.2,0.1-0.3-0.1-0.4-0.3l-0.1-0.8c-0.1-0.2,0-0.3,0.2-0.4c0,0,0,0,0,0c0.6-0.2,1.3-0.3,2-0.3c1.4-0.2,2.7,0.9,2.9,2.3
	c0,0.2,0,0.4,0,0.7v3.7c0,0.2-0.1,0.3-0.4,0.3c-0.4,0-0.9-0.3-1-0.7c-0.5,0.5-1.3,0.8-2,0.8c-1.2,0.1-2.2-0.8-2.3-2
	c0-0.1,0-0.2,0-0.3C471.9,13.8,472.8,12.8,474.5,12.8z M474.5,15.8c0.5,0,0.9-0.3,1.2-0.7v-1c-0.3-0.1-0.7-0.2-1-0.2
	c-0.8,0-1.2,0.4-1.2,1c-0.1,0.5,0.3,0.9,0.7,1C474.4,15.9,474.5,15.9,474.5,15.8L474.5,15.8z"/>
<path class="st0" d="M478.4,10.6c0-0.2,0.1-0.3,0.3-0.3c0,0,0,0,0,0c0.5,0,1,0.4,1.1,0.9c0.4-0.6,1.1-1,1.9-1c0.8,0,1.5,0.2,1.3,0.7
	l-0.4,1c-0.1,0.1-0.2,0.2-0.3,0.1c-0.2-0.1-0.4-0.1-0.6-0.1c-0.5,0-1,0.2-1.3,0.7v4.2c0,0.2-0.2,0.3-0.4,0.3h-1.1
	c-0.2,0-0.3-0.1-0.3-0.3L478.4,10.6z"/>
<path class="st0" d="M483.3,14.8c0.7,0,1.2,0.5,1.2,1.2c0,0.7-0.5,1.2-1.2,1.2s-1.2-0.5-1.2-1.2c0,0,0,0,0,0
	C482.1,15.4,482.7,14.8,483.3,14.8z"/>
<path class="st0" d="M221.9,40.7l0.1,1.4c0,0.2-0.2,0.3-0.5,0.3s-0.5-0.2-0.5-0.3l0.1-1.4c-0.9-0.1-1.7-0.5-2.4-1
	c-0.1-0.1-0.3-0.2-0.1-0.4l0.3-0.3c0.1-0.2,0.2-0.2,0.4-0.1c0.6,0.5,1.4,0.9,2.2,0.9c0.8,0.1,1.6-0.5,1.7-1.4c0,0,0,0,0-0.1
	c0-0.9-0.7-1.4-2.2-2s-2.3-1.2-2.3-2.7c0-1.3,1.2-2.4,2.5-2.4c0,0,0,0,0,0l-0.1-1.4c0-0.2,0.2-0.3,0.5-0.3s0.5,0.2,0.5,0.3l-0.1,1.4
	c0.7,0.1,1.4,0.3,1.9,0.7c0.1,0.1,0.2,0.3,0.1,0.4c0,0,0,0,0,0l-0.2,0.3c-0.1,0.2-0.3,0.2-0.5,0.1c-0.5-0.4-1.1-0.6-1.8-0.6
	c-1.3,0-1.7,0.8-1.7,1.4c0,0.9,0.6,1.3,1.7,1.7c1.7,0.7,2.9,1.4,2.9,2.9C224.3,39.6,223.2,40.7,221.9,40.7z"/>
<path class="st0" d="M280.9,32.7c0-1.1,0.9-2,2-2s2,0.9,2,2s-0.9,2-2,2c-1.1,0-2-0.8-2-1.9C280.9,32.8,280.9,32.8,280.9,32.7z
	 M283.9,32.7c-0.1-0.6-0.6-1.1-1.2-1c-0.5,0.1-1,0.5-1,1c-0.1,0.6,0.4,1.2,1,1.2c0.6,0.1,1.2-0.4,1.2-1
	C283.9,32.9,283.9,32.8,283.9,32.7z M287.2,31.1c0-0.1,0.1-0.2,0.2-0.2h0.2c0.1,0,0.3,0.1,0.3,0.2c0,0.1,0,0.1,0,0.2l-5,9.6
	c0,0.1-0.1,0.1-0.2,0.1h-0.2c-0.1,0-0.3-0.1-0.3-0.2c0-0.1,0-0.1,0-0.1L287.2,31.1z M287.4,37.3c1.1,0,2,0.9,2,2s-0.9,2-2,2
	s-2-0.9-2-2C285.4,38.2,286.3,37.3,287.4,37.3L287.4,37.3z M287.4,40.4c0.6,0,1.1-0.5,1.1-1.1s-0.5-1.1-1.1-1.1
	c-0.6,0-1.1,0.5-1.1,1.1C286.3,39.9,286.8,40.4,287.4,40.4L287.4,40.4z"/>
<path class="st0" d="M351.9,40.7l0.1,1.4c0,0.2-0.2,0.3-0.5,0.3s-0.5-0.2-0.5-0.3l0.1-1.4c-0.9-0.1-1.7-0.5-2.4-1
	c-0.1-0.1-0.3-0.2-0.1-0.4l0.3-0.3c0.1-0.2,0.2-0.2,0.4-0.1c0.6,0.5,1.4,0.9,2.2,0.9c0.8,0.1,1.6-0.5,1.6-1.4c0,0,0,0,0-0.1
	c0-0.9-0.7-1.4-2.2-2s-2.3-1.2-2.3-2.7c0-1.3,1.2-2.4,2.5-2.4c0,0,0,0,0,0l-0.1-1.4c0-0.2,0.2-0.3,0.5-0.3s0.5,0.2,0.5,0.3l-0.1,1.4
	c0.7,0.1,1.4,0.3,1.9,0.7c0.1,0.1,0.2,0.3,0.1,0.4c0,0,0,0,0,0l-0.2,0.3c-0.1,0.2-0.3,0.2-0.5,0.1c-0.5-0.4-1.1-0.6-1.8-0.6
	c-1.3,0-1.7,0.8-1.7,1.4c0,0.9,0.6,1.3,1.7,1.7c1.7,0.7,2.9,1.4,2.9,2.9C354.3,39.6,353.2,40.7,351.9,40.7z"/>
<path class="st0" d="M410.9,32.7c0-1.1,0.9-2,2-2c1.1,0,2,0.9,2,2c0,1.1-0.9,2-2,2c0,0,0,0,0,0C411.8,34.7,410.9,33.8,410.9,32.7
	C410.9,32.8,410.9,32.7,410.9,32.7z M413.9,32.7c0-0.6-0.5-1.1-1.1-1.1s-1.1,0.5-1.1,1.1c0,0.6,0.5,1.1,1.1,1.1
	C413.4,33.8,413.9,33.3,413.9,32.7z M417.2,31.1c0-0.1,0.1-0.2,0.2-0.2h0.2c0.1,0,0.3,0.1,0.3,0.3c0,0.1,0,0.1,0,0.1l-5,9.6
	c-0.1,0.1-0.1,0.1-0.2,0.1h-0.2c-0.1,0-0.3-0.1-0.3-0.2c0-0.1,0-0.1,0-0.2L417.2,31.1z M417.4,37.3c1.1,0,2,0.8,2,1.9
	c0,1.1-0.8,2-1.9,2c-1.1,0-2-0.8-2-1.9c0,0,0,0,0,0C415.5,38.2,416.3,37.4,417.4,37.3L417.4,37.3z M417.4,40.4
	c0.6,0,1.1-0.5,1.1-1.1s-0.5-1.1-1.1-1.1c-0.6,0-1.1,0.5-1.1,1.1C416.3,39.9,416.8,40.4,417.4,40.4
	C417.4,40.4,417.4,40.4,417.4,40.4L417.4,40.4z"/>
<path class="st0" d="M475.9,32.7c0-1.1,0.9-2,2-2s2,0.9,2,2s-0.9,2-2,2c-1.1,0-2-0.8-2-1.9C475.9,32.8,475.9,32.8,475.9,32.7z
	 M478.9,32.7c-0.1-0.6-0.6-1.1-1.2-1c-0.5,0.1-1,0.5-1,1c-0.1,0.6,0.4,1.2,1,1.2c0.6,0.1,1.2-0.4,1.2-1
	C478.9,32.9,478.9,32.8,478.9,32.7z M482.2,31.1c0-0.1,0.1-0.2,0.2-0.2h0.2c0.1,0,0.3,0.1,0.3,0.2c0,0.1,0,0.1,0,0.2l-5,9.6
	c0,0.1-0.1,0.1-0.2,0.1h-0.2c-0.1,0-0.3-0.1-0.3-0.2c0-0.1,0-0.1,0-0.1L482.2,31.1z M482.4,37.3c1.1,0,2,0.9,2,2s-0.9,2-2,2
	s-2-0.9-2-2C480.4,38.2,481.3,37.3,482.4,37.3L482.4,37.3z M482.4,40.4c0.6,0,1.1-0.5,1.1-1.1s-0.5-1.1-1.1-1.1
	c-0.6,0-1.1,0.5-1.1,1.1C481.3,39.9,481.8,40.4,482.4,40.4C482.4,40.4,482.4,40.4,482.4,40.4L482.4,40.4z"/>
<path class="st0" d="M11.2,55.9H8.7c-0.2,0-0.3-0.1-0.3-0.3v-0.4c0-0.2,0.1-0.3,0.3-0.3h6.1c0.2,0,0.3,0.1,0.3,0.3v0.4
	c0,0.2-0.1,0.3-0.3,0.3h-2.5v8.9c0,0.2-0.1,0.3-0.3,0.3h-0.5c-0.2,0-0.3-0.1-0.3-0.3L11.2,55.9z"/>
<path class="st0" d="M18.7,58.2c1.9-0.1,3.6,1.4,3.6,3.4c0.1,1.9-1.4,3.6-3.4,3.6c-1.9,0.1-3.6-1.4-3.6-3.4c0-0.1,0-0.1,0-0.2
	C15.3,59.8,16.8,58.3,18.7,58.2z M18.7,64.2c1.3-0.1,2.4-1.2,2.3-2.5c0,0,0,0,0,0c0.1-1.3-0.8-2.4-2.1-2.5c-1.3-0.1-2.4,0.8-2.5,2.1
	c0,0.1,0,0.3,0,0.4C16.3,63,17.3,64.2,18.7,64.2C18.7,64.3,18.7,64.3,18.7,64.2L18.7,64.2z"/>
<path class="st0" d="M23.7,59.3c-0.2,0-0.3-0.1-0.3-0.3c0,0,0,0,0,0v-0.3c0-0.2,0.1-0.3,0.3-0.3c0,0,0,0,0,0h0.9v-1.9
	c0-0.2,0.1-0.3,0.3-0.3h0.4c0.2,0,0.3,0.1,0.3,0.3c0,0,0,0,0,0v1.9h2c0.2,0,0.3,0.1,0.3,0.3c0,0,0,0,0,0V59c0,0.2-0.2,0.3-0.3,0.3
	c0,0,0,0,0,0h-2v4c-0.1,0.5,0.3,0.9,0.8,1c0,0,0.1,0,0.1,0c0.4,0,0.7-0.1,1-0.3c0.3-0.2,0.4,0,0.4,0.1l0.1,0.3
	c0.1,0.2,0.1,0.3-0.1,0.4c-0.5,0.3-1,0.4-1.6,0.4c-1,0-1.8-0.8-1.8-1.8c0-0.1,0-0.1,0-0.2v-4L23.7,59.3z"/>
<path class="st0" d="M32,60.8c0.5,0,1,0.1,1.4,0.2c0-1.2-0.6-1.8-1.5-1.8c-0.5,0-1.1,0.2-1.5,0.4c-0.2,0.1-0.3,0-0.3-0.2L29.9,59
	c-0.1-0.2,0-0.3,0.2-0.4c0.6-0.3,1.2-0.4,1.9-0.4c1.7,0,2.5,1,2.5,2.8v3.8c0,0.1-0.1,0.2-0.2,0.3c0,0,0,0,0,0
	c-0.4,0-0.7-0.3-0.7-0.8c-0.6,0.6-1.3,0.9-2.1,0.9c-1.1,0-2-0.8-2.1-1.9c0-0.1,0-0.2,0-0.3C29.3,61.8,30.3,60.8,32,60.8z M31.6,64.3
	c0.7,0,1.4-0.3,1.8-0.9V62c-0.4-0.2-0.9-0.3-1.4-0.3c-0.9,0-1.6,0.4-1.6,1.3c0,0.6,0.5,1.2,1.1,1.2C31.5,64.3,31.6,64.3,31.6,64.3z"
	/>
<path class="st0" d="M37.1,55.2c0-0.2,0.1-0.3,0.3-0.3h0.4c0.2,0,0.3,0.1,0.3,0.3v9.5c0,0.2-0.1,0.3-0.3,0.3h-0.4
	c-0.2,0-0.3-0.1-0.3-0.3c0,0,0,0,0,0V55.2z"/>
<path class="st0" d="M44.3,55.9c0-0.4,0.3-0.8,0.8-0.8c0.4,0,0.8,0.3,0.8,0.8c0,0.4-0.3,0.8-0.8,0.8c0,0,0,0,0,0
	C44.6,56.6,44.3,56.3,44.3,55.9z M44.5,58.7c0-0.2,0.1-0.3,0.3-0.3h0.4c0.2,0,0.3,0.1,0.3,0.3v6.1c0,0.2-0.1,0.3-0.3,0.3h-0.4
	c-0.2,0-0.3-0.1-0.3-0.3V58.7z"/>
<path class="st0" d="M48.2,58.6c0-0.1,0.1-0.2,0.2-0.3c0,0,0,0,0,0c0.4,0,0.7,0.3,0.7,0.8c0.6-0.5,1.4-0.8,2.2-0.8
	c1.9,0,2.4,1.3,2.4,3v3.5c0,0.2-0.1,0.3-0.3,0.3h-0.4c-0.2,0-0.3-0.1-0.3-0.3v-3.7c0-1.3-0.4-1.9-1.4-1.9c-0.8,0-1.5,0.4-2.1,0.9
	v4.6c0,0.2-0.1,0.3-0.3,0.3h-0.4c-0.2,0-0.3-0.1-0.3-0.3L48.2,58.6z"/>
<path class="st0" d="M61.9,65.1c0,2.3-1.4,3.1-2.9,3.1c-0.9,0-1.7-0.3-2.3-0.9c-0.1-0.1-0.1-0.3-0.1-0.4l0.3-0.4
	c0.1-0.2,0.3-0.2,0.4,0c0.5,0.4,1.1,0.7,1.7,0.7c1.1,0,1.9-0.6,1.9-2.2v-0.5c-0.5,0.4-1.2,0.6-1.8,0.6c-1.9-0.2-3.3-1.9-3.1-3.9
	c0.2-1.6,1.5-2.9,3.1-3.1c0.7,0,1.4,0.3,2,0.7c0-0.3,0.3-0.6,0.7-0.6c0.1,0,0.2,0.1,0.3,0.2c0,0,0,0,0,0L61.9,65.1z M59.2,64.2
	c0.6,0,1.2-0.2,1.7-0.6V60c-0.5-0.5-1.1-0.8-1.8-0.8c-1.3,0.1-2.2,1.2-2.2,2.4c0,0,0,0,0,0.1c-0.1,1.3,0.8,2.4,2.1,2.6
	C59.1,64.2,59.2,64.2,59.2,64.2z"/>
<path class="st0" d="M64.5,58.6c0-0.1,0.1-0.2,0.2-0.3c0,0,0,0,0,0c0.4,0,0.7,0.3,0.7,0.8c0.5-0.6,1.3-0.9,2.1-0.8
	c0.5,0,1.3,0.1,1.2,0.5l-0.2,0.5c0,0.1-0.2,0.2-0.3,0.2c0,0-0.1,0-0.1,0c-0.2-0.1-0.5-0.2-0.7-0.2c-0.7,0-1.4,0.3-1.8,0.8v4.6
	c0,0.2-0.1,0.3-0.3,0.3h-0.4c-0.2,0-0.3-0.1-0.3-0.3L64.5,58.6z"/>
<path class="st0" d="M73,58.2c1.7,0,3,1.3,3,3c0,0.1,0,0.3,0,0.4c0,0.2-0.1,0.3-0.3,0.3h-4.9c0,1.2,1,2.2,2.2,2.3
	c0.6,0,1.3-0.2,1.8-0.6c0.2-0.2,0.3-0.2,0.5,0l0.2,0.2c0.1,0.2,0.2,0.3-0.1,0.5c-0.7,0.5-1.6,0.8-2.4,0.8c-1.9-0.1-3.4-1.8-3.2-3.8
	C69.9,59.7,71.2,58.3,73,58.2L73,58.2z M74.9,61.1c0-1.1-0.9-1.9-1.9-1.9c-1.1,0-2,0.8-2.2,1.9H74.9z"/>
<path class="st0" d="M77.7,64.4c-0.1-0.1-0.1-0.2,0-0.3l0.2-0.4c0.1-0.2,0.2-0.2,0.4-0.1c0.5,0.4,1.1,0.6,1.7,0.6
	c0.7,0,1.1-0.3,1.1-0.8s-0.5-0.9-1.5-1.4s-1.9-0.9-1.9-2.1c0-1,0.9-1.8,1.9-1.8c0.1,0,0.1,0,0.2,0c0.7,0,1.3,0.2,1.9,0.5
	c0.1,0.1,0.2,0.3,0.1,0.4c0,0,0,0,0,0l-0.2,0.3c-0.1,0.2-0.3,0.2-0.4,0.1c0,0,0,0,0,0c-0.4-0.3-0.9-0.4-1.4-0.4c-0.7,0-1,0.4-1,0.7
	c0,0.6,0.5,0.8,1.3,1.2c1.2,0.5,2.2,1,2.2,2.2c0,1.1-1,2-2.1,1.9c-0.1,0-0.1,0-0.2,0C79.1,65.2,78.3,65,77.7,64.4z"/>
<path class="st0" d="M87.1,58.2c1.9-0.1,3.6,1.4,3.6,3.4c0.1,1.9-1.4,3.6-3.4,3.6c-1.9,0.1-3.6-1.4-3.6-3.4c0-0.1,0-0.1,0-0.2
	C83.8,59.8,85.2,58.3,87.1,58.2z M87.1,64.2c1.3-0.1,2.4-1.2,2.3-2.5c0,0,0,0,0,0c0.1-1.3-0.9-2.4-2.1-2.4s-2.4,0.9-2.4,2.1
	c0,0.1,0,0.2,0,0.3C84.7,63,85.7,64.2,87.1,64.2C87.1,64.3,87.1,64.3,87.1,64.2L87.1,64.2z"/>
<path class="st0" d="M92.3,64.4c-0.1-0.1-0.1-0.2,0-0.3l0.2-0.4c0.1-0.2,0.2-0.2,0.4-0.1c0.5,0.4,1.1,0.6,1.7,0.6
	c0.7,0,1.2-0.3,1.2-0.8s-0.5-0.9-1.5-1.4s-2-0.9-2-2c0-1,0.9-1.8,1.9-1.8c0.1,0,0.1,0,0.2,0c0.7,0,1.3,0.2,1.9,0.5
	c0.1,0.1,0.2,0.3,0.1,0.4c0,0,0,0,0,0l-0.2,0.3c-0.1,0.2-0.3,0.2-0.4,0.1c0,0,0,0,0,0c-0.4-0.3-0.9-0.4-1.4-0.4c-0.7,0-1,0.4-1,0.7
	c0,0.6,0.5,0.8,1.3,1.2c1.2,0.5,2.2,1,2.2,2.2c0,1.1-1,2-2.1,1.9c-0.1,0-0.1,0-0.2,0C93.6,65.2,92.9,65,92.3,64.4z"/>
<path class="st0" d="M170.3,56.5c-0.2,0-0.3-0.1-0.3-0.3v-1c0-0.2,0.1-0.3,0.3-0.3h6.2c0.2,0,0.3,0.1,0.3,0.3c0,0.1,0,0.2-0.1,0.2
	l-4.4,9.2c-0.1,0.2-0.3,0.4-0.5,0.4h-1.1c-0.2,0-0.4,0-0.4-0.3c0-0.1,0-0.2,0.1-0.3l3.8-8l0,0L170.3,56.5z"/>
<path class="st0" d="M177.8,63.5l0.8-0.7c0.1-0.1,0.2-0.1,0.4,0c0,0,0,0,0,0c0.5,0.5,1.1,0.8,1.8,0.8c0.8,0.1,1.5-0.5,1.6-1.3
	c0,0,0,0,0-0.1c0-0.9-0.7-1.5-2.1-1.5h-0.8c-0.1,0-0.3-0.1-0.3-0.3c0,0,0,0,0,0v-1c0-0.2,0.1-0.3,0.3-0.3h0.8c1.2,0,1.9-0.6,1.9-1.4
	c0-0.8-0.7-1.4-1.4-1.4c0,0,0,0,0,0c-0.6,0-1.1,0.3-1.5,0.7c-0.1,0.1-0.3,0.1-0.4,0c0,0,0,0,0,0l-0.7-0.7c-0.1-0.1-0.1-0.3,0-0.4
	c0,0,0,0,0,0c0.7-0.8,1.7-1.3,2.8-1.3c1.7,0,3.2,1.1,3.2,2.7c0,1-0.6,1.9-1.5,2.3v0.1c1,0.4,1.8,1.3,1.8,2.4c0,1.7-1.4,2.9-3.4,2.9
	c-1.2,0.1-2.3-0.4-3.1-1.3C177.6,63.7,177.7,63.6,177.8,63.5z"/>
<path class="st0" d="M190.8,54.7c0.2-0.1,0.3,0,0.4,0.2c0,0,0,0,0,0.1l0.3,0.9c0.1,0.2,0,0.3-0.3,0.4c-0.7,0.2-2.8,1.2-3.3,2.8
	c0.5-0.3,1.1-0.4,1.7-0.4c1.7,0,3,1.3,3,3c0,0.1,0,0.2,0,0.2c0,1.9-1.5,3.4-3.4,3.4c-2.3,0-3.6-1.9-3.6-4.1
	C185.8,56.7,189.5,55.1,190.8,54.7z M191,61.8c0-0.9-0.7-1.7-1.7-1.8c0,0,0,0-0.1,0c-0.8,0-1.5,0.5-1.7,1.3c0,1,0.5,2.2,1.7,2.2
	C190.3,63.5,191,62.8,191,61.8C191,61.8,191,61.8,191,61.8z"/>
<path class="st0" d="M195.1,62.8c0.7,0,1.3,0.6,1.3,1.7c0,1-0.4,2-1.2,2.6c-0.1,0.1-0.2,0.1-0.3,0l-0.4-0.3c-0.1-0.1,0-0.2,0.1-0.3
	c0.4-0.4,0.7-0.8,0.8-1.4c0-0.1,0-0.2,0-0.3c-0.1,0.1-0.3,0.2-0.5,0.2c-0.5,0-0.9-0.4-0.9-0.9c0,0,0,0,0-0.1c0-0.6,0.4-1.1,1-1.2
	C195.1,62.8,195.1,62.8,195.1,62.8z"/>
<path class="st0" d="M197.8,60c0-3.3,1.4-5.2,3.8-5.2s3.8,1.9,3.8,5.2s-1.4,5.2-3.8,5.2S197.8,63.3,197.8,60z M203.5,60
	c0-2.2-0.7-3.5-1.9-3.5s-1.9,1.3-1.9,3.5s0.7,3.5,1.9,3.5S203.5,62.2,203.5,60z"/>
<path class="st0" d="M207.1,62.9c-0.2,0-0.3-0.1-0.3-0.3v-0.9c0-0.2,0.1-0.4,0.2-0.5l5.1-6.2c0.1-0.1,0.2-0.2,0.4-0.2h0.7
	c0.2,0,0.3,0.1,0.3,0.3v6.3h1.2c0.1,0,0.3,0.1,0.3,0.2c0,0,0,0,0,0v1c0,0.2-0.1,0.3-0.3,0.3h-1.2v1.9c0,0.2-0.1,0.3-0.3,0.3H212
	c-0.2,0-0.3-0.1-0.3-0.3v-1.9H207.1z M211.7,61.4v-3.6l0,0l-2.9,3.6l0,0L211.7,61.4z"/>
<path class="st0" d="M216.6,62.9c-0.2,0-0.3-0.1-0.3-0.3v-0.9c0-0.2,0.1-0.4,0.2-0.5l5.1-6.2c0.1-0.1,0.2-0.2,0.4-0.2h0.7
	c0.2,0,0.3,0.1,0.3,0.3v6.3h1.2c0.1,0,0.3,0.1,0.3,0.2c0,0,0,0,0,0v1c0,0.2-0.1,0.3-0.3,0.3H223v1.9c0,0.2-0.1,0.3-0.3,0.3h-1.2
	c-0.2,0-0.3-0.1-0.3-0.3v-1.9H216.6z M221.2,61.4v-3.6l0,0l-2.9,3.6l0,0L221.2,61.4z"/>
<path class="st0" d="M255.7,57.9c-0.1,0-0.3,0-0.3-0.2c0,0,0,0,0,0l-0.1-0.7c0-0.1,0-0.3,0.1-0.3l1.9-1.6c0.1-0.1,0.3-0.2,0.5-0.2
	h0.8c0.1,0,0.3,0.1,0.3,0.3c0,0,0,0,0,0v9.6c0,0.1-0.1,0.3-0.2,0.3c0,0,0,0,0,0h-1.3c-0.2,0-0.3-0.1-0.3-0.3c0,0,0,0,0,0v-7.2
	L255.7,57.9z"/>
<path class="st0" d="M261,60c0-3.3,1.4-5.2,3.8-5.2s3.8,1.9,3.8,5.2s-1.4,5.2-3.8,5.2S261,63.3,261,60z M266.6,60
	c0-2.2-0.7-3.5-1.9-3.5s-1.9,1.3-1.9,3.5s0.7,3.5,1.9,3.5S266.6,62.2,266.6,60z"/>
<path class="st0" d="M270,60c0-3.3,1.4-5.2,3.8-5.2s3.8,1.9,3.8,5.2s-1.4,5.2-3.8,5.2S270,63.3,270,60z M275.6,60
	c0-2.2-0.7-3.5-1.9-3.5s-1.9,1.3-1.9,3.5s0.7,3.5,1.9,3.5S275.6,62.2,275.6,60z"/>
<path class="st0" d="M279.6,62.8c0.7-0.1,1.3,0.4,1.3,1.1c0.1,0.7-0.4,1.3-1.1,1.3c-0.1,0-0.1,0-0.2,0c-0.7-0.1-1.2-0.6-1.1-1.3
	C278.5,63.3,279,62.9,279.6,62.8z"/>
<path class="st0" d="M281.9,60c0-3.3,1.4-5.2,3.8-5.2s3.8,1.9,3.8,5.2s-1.4,5.2-3.8,5.2S281.9,63.3,281.9,60z M287.5,60
	c0-2.2-0.7-3.5-1.9-3.5s-1.9,1.3-1.9,3.5s0.7,3.5,1.9,3.5S287.5,62.2,287.5,60L287.5,60z"/>
<path class="st0" d="M305.9,55.9c-0.2,0-0.3-0.1-0.3-0.3v-0.4c0-0.2,0.1-0.3,0.3-0.3h6c0.1,0,0.3,0.1,0.3,0.2c0,0,0,0,0,0.1
	c0,0.1,0,0.2-0.1,0.2l-4.3,9.2c-0.1,0.2-0.3,0.4-0.5,0.4h-0.4c-0.2,0-0.3-0.1-0.3-0.3c0-0.1,0-0.3,0.1-0.4l4-8.5l0,0L305.9,55.9z"/>
<path class="st0" d="M313.2,60c0-3.3,1.3-5.2,3.6-5.2s3.6,1.9,3.6,5.2s-1.3,5.2-3.6,5.2S313.2,63.3,313.2,60z M319.4,60
	c0-2.7-0.9-4.2-2.5-4.2s-2.5,1.5-2.5,4.2s0.9,4.2,2.5,4.2S319.3,62.7,319.4,60L319.4,60z"/>
<path class="st0" d="M322.7,57.6c-0.1,0.1-0.2,0.1-0.3,0l-0.3-0.3c-0.1-0.1-0.1-0.2,0-0.3l2-1.9c0.1-0.1,0.1-0.1,0.2-0.1h0.3
	c0.2,0,0.3,0.1,0.3,0.3v9.6c0,0.2-0.1,0.3-0.3,0.3H324c-0.2,0-0.3-0.1-0.3-0.3v0v-8l0,0L322.7,57.6z"/>
<path class="st0" d="M328.2,63.5c0.7,0,1.1,0.7,1.1,1.6c0,0.8-0.3,1.5-0.9,2c-0.1,0.1-0.2,0.1-0.2,0l-0.2-0.2c-0.1-0.1,0-0.2,0-0.3
	c0.4-0.3,0.6-0.8,0.6-1.3c0-0.1,0-0.2,0-0.3c-0.1,0.1-0.3,0.1-0.5,0.1c-0.4,0-0.7-0.3-0.7-0.7c0,0,0,0,0,0c-0.1-0.4,0.3-0.8,0.7-0.9
	C328.1,63.5,328.2,63.5,328.2,63.5z"/>
<path class="st0" d="M331.1,55.9c-0.2,0-0.3-0.1-0.3-0.3v-0.4c0-0.2,0.1-0.3,0.3-0.3h6c0.1,0,0.3,0.1,0.3,0.2c0,0,0,0,0,0.1
	c0,0.1,0,0.2-0.1,0.2l-4.3,9.2c-0.1,0.2-0.3,0.4-0.5,0.4h-0.4c-0.2,0-0.3-0.1-0.3-0.3c0-0.1,0-0.3,0.1-0.4l4-8.4l0,0L331.1,55.9z"/>
<path class="st0" d="M338.8,63.5l0.4-0.3c0.1-0.1,0.3-0.1,0.4,0c0,0,0,0,0,0.1c0.6,0.6,1.4,1,2.2,1c1.1,0.1,2.1-0.8,2.1-1.9
	c0,0,0,0,0,0c0-1.1-0.8-1.9-2.6-1.9h-0.8c-0.2,0-0.3-0.1-0.3-0.3v-0.4c0-0.2,0.1-0.3,0.3-0.3h0.8c1.6,0,2.4-0.8,2.4-1.8
	c0-1-0.8-1.9-1.8-1.9c-0.1,0-0.1,0-0.2,0c-0.8,0-1.5,0.4-2,1c-0.1,0.1-0.2,0.1-0.3,0c0,0,0,0,0,0l-0.4-0.3c-0.1-0.1-0.1-0.3,0-0.4
	c0,0,0,0,0,0c0.7-0.8,1.7-1.3,2.7-1.3c1.8,0,3.1,1,3.1,2.7c0,1-0.6,1.9-1.5,2.4l0,0c1,0.4,1.7,1.3,1.8,2.4c0,1.7-1.2,2.9-3.3,2.9
	c-1.1,0-2.3-0.4-3-1.3C338.7,63.7,338.7,63.6,338.8,63.5z"/>
<path class="st0" d="M346.8,62.8c-0.2,0-0.3-0.1-0.3-0.3v-0.4c0-0.1,0-0.2,0.1-0.3l5.5-6.8c0.1-0.1,0.2-0.2,0.4-0.2h0.2
	c0.2,0,0.3,0.1,0.3,0.3v6.8h1.2c0.1,0,0.3,0.1,0.3,0.2c0,0,0,0,0,0v0.4c0,0.2-0.1,0.3-0.3,0.3H353v2c0,0.2-0.1,0.3-0.3,0.3h-0.5
	c-0.2,0-0.3-0.1-0.3-0.3v-2L346.8,62.8z M347.8,61.8L347.8,61.8l4.2,0.1v-5.2l0,0L347.8,61.8z"/>
<path class="st0" d="M398.4,57.6c-0.1,0.1-0.2,0.1-0.3,0l-0.3-0.3c-0.1-0.1-0.1-0.2,0-0.3l2-1.9c0.1-0.1,0.2-0.1,0.2-0.1h0.2
	c0.2,0,0.3,0.1,0.3,0.3v9.6c0,0.2-0.1,0.3-0.3,0.3h-0.5c-0.2,0-0.3-0.1-0.3-0.3v0v-8l0,0L398.4,57.6z"/>
<path class="st0" d="M403,60c0-3.3,1.3-5.2,3.6-5.2s3.6,1.9,3.6,5.2s-1.3,5.2-3.6,5.2S403,63.3,403,60z M409.1,60
	c0-2.7-0.9-4.2-2.5-4.2s-2.5,1.5-2.5,4.2s0.9,4.2,2.5,4.2S409.1,62.7,409.1,60z"/>
<path class="st0" d="M412,60c0-3.3,1.3-5.2,3.6-5.2s3.6,1.9,3.6,5.2s-1.3,5.2-3.6,5.2S412,63.3,412,60z M418.1,60
	c0-2.7-0.9-4.2-2.5-4.2s-2.5,1.5-2.5,4.2s0.9,4.2,2.5,4.2S418.1,62.7,418.1,60z"/>
<path class="st0" d="M465.9,62.8c-0.2,0-0.3-0.1-0.3-0.3v-0.4c0-0.1,0-0.2,0.1-0.3l5.5-6.8c0.1-0.1,0.2-0.2,0.4-0.2h0.2
	c0.2,0,0.3,0.1,0.3,0.3v6.8h1.2c0.1,0,0.3,0.1,0.3,0.3c0,0,0,0,0,0v0.4c0,0.2-0.1,0.3-0.3,0.3h-1.2v2c0,0.2-0.1,0.3-0.3,0.3h-0.5
	c-0.2,0-0.3-0.1-0.3-0.3v-2L465.9,62.8z M466.9,61.8L466.9,61.8l4.2,0.1v-5.2l0,0L466.9,61.8z"/>
<path class="st0" d="M475.6,63.5c0.5,0,0.9,0.4,0.9,0.8c0,0,0,0,0,0c0,0.5-0.4,0.9-0.9,0.9c-0.5,0-0.9-0.4-0.9-0.9
	C474.8,63.9,475.2,63.5,475.6,63.5C475.6,63.5,475.6,63.5,475.6,63.5z"/>
<path class="st0" d="M478.9,64.8c-0.1-0.2,0-0.3,0.3-0.4c0.7-0.2,3.3-1.6,3.9-3.6c-0.7,0.4-1.5,0.7-2.3,0.7c-1.7,0-3.2-1.4-3.2-3.1
	c0-0.1,0-0.1,0-0.2c0-1.9,1.4-3.4,3.3-3.4c2.4,0,3.5,1.9,3.5,4.3c0,4-3.4,5.7-4.9,6.3c-0.1,0.1-0.3,0-0.3-0.1c0,0,0,0,0,0
	L478.9,64.8z M483.2,59.5c0-0.2,0.1-0.5,0.1-0.7c0-1.4-0.7-3-2.4-3c-1.3,0-2.4,1.1-2.4,2.4s1.1,2.4,2.4,2.4l0,0
	C481.7,60.5,482.6,60.1,483.2,59.5z"/>
<path class="st0" d="M9.3,79.2c0-0.2,0.1-0.3,0.3-0.3h0.5c0.2,0,0.3,0.1,0.3,0.3v6.1c0,1.5,1.2,2.7,2.7,2.7c1.5,0,2.7-1.2,2.7-2.7
	c0,0,0,0,0,0v-6.1c0-0.1,0.1-0.3,0.3-0.3c0,0,0,0,0,0h0.5c0.2,0,0.3,0.1,0.3,0.3v6.2c0.1,2-1.5,3.7-3.6,3.8c-0.1,0-0.2,0-0.3,0
	c-2,0.1-3.7-1.5-3.8-3.5c0-0.1,0-0.2,0-0.3V79.2z"/>
<path class="st0" d="M19.1,83.3c-0.2,0-0.3-0.1-0.3-0.3c0,0,0,0,0,0v-0.3c0-0.2,0.1-0.3,0.3-0.3c0,0,0,0,0,0H20v-1.9
	c0-0.2,0.1-0.3,0.3-0.3h0.5c0.2,0,0.3,0.1,0.3,0.3c0,0,0,0,0,0v1.9h2c0.2,0,0.3,0.1,0.3,0.3c0,0,0,0,0,0V83c0,0.2-0.2,0.3-0.3,0.3
	c0,0,0,0,0,0h-2v4c-0.1,0.5,0.3,0.9,0.8,1c0,0,0.1,0,0.1,0c0.4,0,0.7-0.1,1-0.3c0.3-0.2,0.4,0,0.4,0.1l0.1,0.3
	c0.1,0.2,0,0.3-0.1,0.4c-0.5,0.3-1,0.4-1.6,0.4c-1,0-1.8-0.8-1.8-1.8c0-0.1,0-0.1,0-0.2v-4L19.1,83.3z"/>
<path class="st0" d="M25.1,79.9c0-0.4,0.4-0.8,0.8-0.8c0.4,0,0.8,0.4,0.8,0.8c0,0,0,0,0,0c0,0.4-0.4,0.8-0.8,0.8
	S25.1,80.3,25.1,79.9C25.1,79.9,25.1,79.9,25.1,79.9z M25.4,82.7c0-0.2,0.1-0.3,0.3-0.3h0.4c0.2,0,0.3,0.1,0.3,0.3v6.1
	c0,0.2-0.1,0.3-0.3,0.3h-0.4c-0.2,0-0.3-0.1-0.3-0.3V82.7z"/>
<path class="st0" d="M29.1,79.2c0-0.2,0.1-0.3,0.3-0.3h0.4c0.2,0,0.3,0.2,0.3,0.3v9.5c0,0.2-0.1,0.3-0.3,0.3h-0.4
	c-0.2,0-0.3-0.1-0.3-0.3V79.2z"/>
<path class="st0" d="M32.5,79.9c0-0.4,0.4-0.8,0.8-0.8s0.8,0.4,0.8,0.8c0,0.4-0.4,0.8-0.8,0.8C32.8,80.6,32.5,80.3,32.5,79.9z
	 M32.8,82.7c0-0.2,0.1-0.3,0.3-0.3h0.4c0.2,0,0.3,0.1,0.3,0.3v6.1c0,0.2-0.1,0.3-0.3,0.3h-0.4c-0.2,0-0.3-0.1-0.3-0.3V82.7z"/>
<path class="st0" d="M39.1,82.2c0.6,0,1.3,0.1,1.8,0.4v-3.4c0-0.2,0.1-0.3,0.3-0.3h0.4c0.2,0,0.3,0.1,0.3,0.3v9.6
	c0,0.1-0.1,0.2-0.2,0.3c0,0,0,0,0,0c-0.4,0-0.7-0.3-0.7-0.8c-1.1,1.2-3,1.3-4.2,0.1c-0.8-0.7-1.1-1.8-0.9-2.8
	c-0.2-1.7,1.1-3.3,2.8-3.5C38.9,82.2,39,82.2,39.1,82.2z M39.1,88.2c0.8,0,1.5-0.4,1.9-1.1v-3.6c-0.5-0.2-1.1-0.4-1.7-0.4
	c-1.3,0-2.3,1.1-2.2,2.3c0,0.1,0,0.1,0,0.2C37,86.9,37.8,88.1,39.1,88.2L39.1,88.2z"/>
<path class="st0" d="M46.8,84.8c0.5,0,1,0.1,1.4,0.2c0-1.2-0.6-1.8-1.5-1.8c-0.5,0-1.1,0.2-1.5,0.4c-0.2,0.1-0.3,0-0.3-0.2L44.7,83
	c-0.1-0.2,0-0.3,0.2-0.4c0.6-0.3,1.2-0.4,1.9-0.4c1.7,0,2.5,1,2.5,2.8v3.8c0,0.1-0.1,0.2-0.2,0.3c0,0,0,0,0,0
	c-0.4,0-0.7-0.3-0.7-0.8c-0.5,0.6-1.3,0.9-2.1,0.9c-1.1,0.1-2-0.8-2.1-1.9c0-0.1,0-0.2,0-0.3C44.1,85.8,45,84.8,46.8,84.8z
	 M46.3,88.3c0.7,0,1.4-0.3,1.8-0.9V86c-0.5-0.2-0.9-0.3-1.4-0.3c-0.9,0-1.6,0.4-1.6,1.3C45.1,87.7,45.6,88.2,46.3,88.3
	C46.3,88.3,46.3,88.3,46.3,88.3z"/>
<path class="st0" d="M54.5,82.2c0.6,0,1.3,0.1,1.8,0.4v-3.4c0-0.2,0.1-0.3,0.3-0.3h0.4c0.2,0,0.3,0.1,0.3,0.3v9.6
	c0,0.1-0.1,0.2-0.2,0.3c0,0,0,0,0,0c-0.4,0-0.7-0.3-0.7-0.8c-1.1,1.2-3,1.3-4.2,0.1c-0.8-0.7-1.1-1.8-0.9-2.8
	c-0.2-1.7,1.1-3.3,2.8-3.5C54.2,82.2,54.4,82.2,54.5,82.2z M54.5,88.2c0.8,0,1.5-0.4,1.9-1.1v-3.6c-0.5-0.2-1.1-0.4-1.7-0.4
	c-1.3,0-2.3,1.1-2.2,2.3c0,0.1,0,0.1,0,0.2C52.3,86.9,53.2,88.1,54.5,88.2L54.5,88.2z"/>
<path class="st0" d="M63.7,79.2c0-0.2,0.1-0.3,0.3-0.3h0.4c0.2,0,0.3,0.1,0.3,0.3v3.4c0.6-0.3,1.2-0.4,1.9-0.4
	c1.7,0,3.2,1.4,3.2,3.1c0,0.1,0,0.2,0,0.3c0.1,1.8-1.2,3.4-3,3.5c-0.8,0-1.6-0.3-2.1-0.9c0,0.4-0.3,0.8-0.7,0.8
	c-0.1,0-0.2-0.1-0.3-0.2c0,0,0,0,0,0L63.7,79.2z M64.8,87.1c0.4,0.6,1.1,1.1,1.9,1.1c1.2-0.2,2.1-1.3,2-2.5c0.1-1.3-0.8-2.4-2-2.5
	c-0.1,0-0.1,0-0.2,0c-0.6,0-1.2,0.2-1.7,0.4L64.8,87.1z"/>
<path class="st0" d="M71.9,82.6c0-0.1,0.1-0.2,0.2-0.3c0,0,0,0,0,0c0.4,0,0.7,0.3,0.7,0.8c0.5-0.5,1.2-0.8,2-0.8
	c0.5,0,1.3,0.1,1.2,0.5l-0.2,0.5c0,0.1-0.2,0.2-0.3,0.2c0,0-0.1,0-0.1,0c-0.2-0.1-0.5-0.2-0.7-0.2c-0.7,0-1.4,0.3-1.8,0.9v4.6
	c0,0.2-0.1,0.3-0.3,0.3h-0.4c-0.2,0-0.3-0.1-0.3-0.3L71.9,82.6z"/>
<path class="st0" d="M77.7,82.7c0-0.2,0.1-0.3,0.3-0.3h0.4c0.2,0,0.3,0.1,0.3,0.3v3.6c0,1.3,0.4,2,1.4,2c0.8,0,1.5-0.4,1.9-1v-4.6
	c0-0.2,0.1-0.3,0.3-0.3h0.4c0.2,0,0.3,0.1,0.3,0.3v6.2c0,0.1-0.1,0.2-0.2,0.3c0,0,0,0,0,0c-0.4,0-0.7-0.3-0.7-0.8
	c-0.5,0.6-1.3,0.9-2.1,0.9c-1.9,0-2.4-1.2-2.4-2.9V82.7z"/>
<path class="st0" d="M85.3,83.3c-0.2,0-0.3-0.1-0.3-0.3c0,0,0,0,0,0v-0.3c0-0.2,0.1-0.3,0.3-0.3c0,0,0,0,0,0h0.9v-1.9
	c0-0.2,0.1-0.3,0.3-0.3h0.4c0.2,0,0.3,0.1,0.3,0.3c0,0,0,0,0,0v1.9h2c0.2,0,0.3,0.1,0.3,0.3c0,0,0,0,0,0V83c0,0.2-0.1,0.3-0.3,0.3
	c0,0,0,0,0,0h-2v4c-0.1,0.5,0.3,0.9,0.8,1c0,0,0.1,0,0.1,0c0.4,0,0.7-0.1,1-0.3c0.3-0.2,0.4,0,0.4,0.1l0.1,0.3
	c0.1,0.2,0.1,0.3-0.1,0.4c-0.5,0.3-1,0.4-1.6,0.4c-1,0-1.8-0.8-1.8-1.8c0-0.1,0-0.1,0-0.2v-4L85.3,83.3z"/>
<path class="st0" d="M93.7,84.8c0.5,0,1,0.1,1.4,0.2c0-1.2-0.6-1.8-1.5-1.8c-0.5,0-1.1,0.2-1.6,0.4c-0.2,0.1-0.3,0-0.3-0.2L91.5,83
	c-0.1-0.2,0-0.3,0.2-0.4c0.6-0.3,1.2-0.4,1.9-0.4c1.7,0,2.5,1,2.5,2.8v3.8c0,0.1-0.1,0.2-0.2,0.3c0,0,0,0,0,0
	c-0.4,0-0.7-0.3-0.7-0.8c-0.5,0.6-1.3,0.9-2.1,0.9c-1.1,0-2-0.8-2.1-1.9c0-0.1,0-0.2,0-0.3C91,85.8,91.9,84.8,93.7,84.8z M93.2,88.3
	c0.7,0,1.4-0.3,1.8-0.9V86c-0.5-0.2-0.9-0.3-1.4-0.3c-0.9,0-1.6,0.4-1.6,1.3C92,87.7,92.5,88.2,93.2,88.3
	C93.2,88.3,93.2,88.3,93.2,88.3L93.2,88.3z"/>
<path class="st0" d="M175.8,81.9c-0.1,0-0.3,0-0.3-0.2c0,0,0,0,0,0l-0.1-0.7c0-0.1,0-0.3,0.1-0.3l1.9-1.6c0.1-0.1,0.3-0.2,0.5-0.2
	h0.8c0.2,0,0.3,0.1,0.3,0.3v9.6c0,0.2-0.1,0.3-0.3,0.3c0,0,0,0,0,0h-1.3c-0.2,0-0.3-0.1-0.3-0.3c0,0,0,0,0,0v-7.2L175.8,81.9z"/>
<path class="st0" d="M181.2,80.5c-0.2,0-0.3-0.1-0.3-0.3v-1c0-0.2,0.1-0.3,0.3-0.3h6.2c0.2,0,0.3,0.1,0.3,0.3c0,0.1,0,0.1-0.1,0.2
	l-4.4,9.2c-0.1,0.2-0.3,0.4-0.5,0.4h-1.1c-0.2,0-0.4,0-0.4-0.3c0-0.1,0-0.2,0.1-0.3l3.8-7.9l0,0L181.2,80.5z"/>
<path class="st0" d="M189.3,81.9c-0.1,0-0.3,0-0.3-0.2c0,0,0,0,0,0l-0.1-0.7c0-0.2,0-0.2,0.1-0.3l1.9-1.6c0.1-0.1,0.3-0.2,0.5-0.2
	h0.8c0.1,0,0.3,0.1,0.3,0.3c0,0,0,0,0,0v9.6c0,0.1-0.1,0.3-0.2,0.3c0,0,0,0,0,0h-1.3c-0.2,0-0.3-0.1-0.3-0.3c0,0,0,0,0,0v-7.2
	L189.3,81.9z"/>
<path class="st0" d="M195.7,86.8c0.7,0,1.3,0.6,1.3,1.7c0,1-0.4,2-1.2,2.6c-0.1,0.1-0.2,0.1-0.3,0l-0.4-0.3c-0.1-0.1,0-0.2,0.1-0.3
	c0.4-0.4,0.7-0.8,0.8-1.4c0-0.1,0-0.2,0-0.3c-0.2,0.1-0.3,0.1-0.5,0.1c-0.5,0-0.9-0.4-0.9-0.9c0,0,0,0,0-0.1
	C194.6,87.4,195,86.9,195.7,86.8C195.7,86.8,195.7,86.8,195.7,86.8z"/>
<path class="st0" d="M200.5,83.9L200.5,83.9c-0.9-0.4-1.5-1.3-1.5-2.3c0-1.7,1.4-2.7,3.2-2.7s3.3,1.1,3.3,2.7c0,1-0.6,1.9-1.5,2.3
	v0.1c1.1,0.4,1.8,1.4,1.8,2.5c0,1.6-1.4,2.8-3.6,2.8s-3.5-1.2-3.5-2.8C198.8,85.3,199.5,84.3,200.5,83.9z M202.3,87.7
	c0.8,0.1,1.5-0.5,1.5-1.2c0-0.1,0-0.1,0-0.2c-0.1-0.8-0.7-1.5-1.6-1.6c-0.8,0.1-1.5,0.8-1.6,1.6c0,0.8,0.6,1.4,1.4,1.4
	C202.2,87.7,202.2,87.7,202.3,87.7z M203.6,81.6c0-0.7-0.6-1.3-1.3-1.3c0,0-0.1,0-0.1,0c-0.7,0-1.3,0.5-1.3,1.2c0,0,0,0,0,0.1
	c0,0.7,0.4,1.2,1.4,1.4C203.2,82.8,203.6,82.2,203.6,81.6L203.6,81.6z"/>
<path class="st0" d="M207.5,86.9c-0.2,0-0.3-0.1-0.3-0.3v-0.9c0-0.2,0.1-0.4,0.2-0.5l5.1-6.2c0.1-0.1,0.2-0.2,0.4-0.2h0.7
	c0.2,0,0.3,0.1,0.3,0.3v6.3h1.2c0.1,0,0.3,0.1,0.3,0.2c0,0,0,0,0,0v1c0,0.2-0.1,0.3-0.3,0.3h-1.2v1.9c0,0.2-0.1,0.3-0.3,0.3h-1.2
	c-0.2,0-0.3-0.1-0.3-0.3v-1.9H207.5z M212.2,85.4v-3.6l0,0l-3,3.6l0,0L212.2,85.4z"/>
<path class="st0" d="M216.9,84c0-3.3,1.4-5.2,3.8-5.2s3.8,1.9,3.8,5.2s-1.4,5.2-3.8,5.2S216.9,87.3,216.9,84z M222.5,84
	c0-2.2-0.7-3.5-1.9-3.5s-1.9,1.3-1.9,3.5s0.7,3.5,1.9,3.5S222.5,86.2,222.5,84L222.5,84z"/>
<path class="st0" d="M269.4,87.5c0.2,0,0.3,0.1,0.3,0.3v1c0,0.2-0.1,0.3-0.3,0.3l0,0h-5.9c-0.2,0-0.3-0.1-0.3-0.3c0,0,0,0,0,0v-0.2
	c0-0.1,0-0.2,0.1-0.3c1-1.2,2.8-3.6,3.8-4.8c0.4-0.4,0.7-1,0.8-1.7c0-0.8-0.7-1.4-1.5-1.4c0,0-0.1,0-0.1,0c-0.6,0.1-1.3,0.4-1.7,0.9
	c-0.1,0.1-0.3,0.1-0.4,0c0,0,0,0,0,0l-0.7-0.7c-0.1-0.1-0.1-0.3,0-0.4c0.8-0.9,1.8-1.4,3-1.5c1.6-0.2,3.1,1,3.3,2.7
	c0,0.1,0,0.2,0,0.3c-0.1,0.9-0.4,1.7-1,2.4c-0.6,0.9-1.8,2.3-2.5,3.3l0,0L269.4,87.5z"/>
<path class="st0" d="M271.3,87.5l0.8-0.7c0.1-0.1,0.2-0.1,0.4,0c0,0,0,0,0,0c0.5,0.5,1.1,0.8,1.8,0.8c0.8,0.1,1.5-0.5,1.6-1.3
	c0,0,0,0,0-0.1c0-1-0.7-1.5-2.1-1.5h-0.8c-0.1,0-0.3-0.1-0.3-0.2c0,0,0,0,0,0v-0.9c0-0.2,0.1-0.3,0.3-0.3h0.8c1.2,0,1.9-0.6,1.9-1.4
	c0-0.8-0.7-1.4-1.4-1.4c0,0,0,0,0,0c-0.6,0-1.1,0.3-1.5,0.7c-0.1,0.1-0.3,0.1-0.4,0l-0.7-0.7c-0.1-0.1-0.1-0.3,0-0.4c0,0,0,0,0,0
	c0.7-0.8,1.7-1.3,2.8-1.3c1.7,0,3.2,1,3.2,2.7c0,1-0.6,1.9-1.5,2.3v0.1c1,0.4,1.8,1.3,1.8,2.4c0,1.7-1.4,2.9-3.4,2.9
	c-1.2,0.1-2.3-0.4-3.1-1.3C271.2,87.8,271.2,87.6,271.3,87.5z"/>
<path class="st0" d="M280.3,86.8c0.7,0,1.2,0.5,1.2,1.2s-0.5,1.2-1.2,1.2c-0.7,0-1.2-0.5-1.2-1.2c0,0,0,0,0,0
	C279.1,87.4,279.6,86.8,280.3,86.8z"/>
<path class="st0" d="M282.9,87.5l0.8-0.7c0.1-0.1,0.2-0.1,0.3,0c0,0,0,0,0,0c0.5,0.5,1.1,0.8,1.8,0.8c0.8,0.1,1.5-0.5,1.6-1.3
	c0,0,0,0,0-0.1c0-1-0.7-1.5-2.1-1.5h-0.8c-0.1,0-0.3-0.1-0.3-0.3c0,0,0,0,0,0v-0.9c0-0.2,0.1-0.3,0.3-0.3h0.8c1.2,0,1.9-0.6,1.9-1.4
	c0-0.8-0.7-1.4-1.4-1.4c0,0,0,0,0,0c-0.6,0-1.1,0.3-1.5,0.7c-0.1,0.1-0.3,0.1-0.4,0c0,0,0,0,0,0l-0.7-0.7c-0.1-0.1-0.1-0.3,0-0.4
	c0,0,0,0,0,0c0.7-0.8,1.7-1.3,2.8-1.3c1.7,0,3.2,1,3.2,2.7c0,1-0.6,1.9-1.5,2.3v0.1c1,0.4,1.8,1.3,1.8,2.4c0,1.7-1.4,2.9-3.4,2.9
	c-1.2,0.1-2.3-0.4-3.1-1.3C282.8,87.8,282.8,87.6,282.9,87.5z"/>
<path class="st0" d="M303.8,81.6c-0.1,0.1-0.2,0.1-0.3,0c0,0,0,0,0,0l-0.3-0.3c-0.1-0.1-0.1-0.2,0-0.3l2-1.9
	c0.1-0.1,0.2-0.1,0.2-0.1h0.3c0.2,0,0.3,0.1,0.3,0.3v9.6c0,0.2-0.1,0.3-0.3,0.3h-0.5c-0.2,0-0.3-0.1-0.3-0.3v0v-8l0,0L303.8,81.6z"
	/>
<path class="st0" d="M313.4,78.7c0.1-0.1,0.3,0,0.3,0.1c0,0,0,0,0,0l0.2,0.4c0.1,0.2,0,0.3-0.3,0.4c-0.9,0.4-3.3,1.6-3.9,3.6
	c0.7-0.4,1.5-0.7,2.3-0.7c1.7,0,3.2,1.4,3.2,3.1c0,0,0,0.1,0,0.1c0,1.8-1.4,3.4-3.3,3.4c-2.4,0-3.5-1.9-3.5-4.2
	C308.5,81,311.9,79.3,313.4,78.7z M314.2,85.9c0-1.3-1-2.3-2.2-2.3c0,0,0,0,0,0c-0.9,0-1.7,0.4-2.4,1c0,0.2-0.1,0.5-0.1,0.7
	c0,1.4,0.7,3,2.4,3C313.3,88.2,314.2,87.1,314.2,85.9L314.2,85.9z"/>
<path class="st0" d="M322.8,88.1c0.2,0,0.3,0.1,0.3,0.3v0v0.4c0,0.2-0.1,0.3-0.3,0.3l0,0h-5.7c-0.2,0-0.3-0.1-0.3-0.3c0,0,0,0,0,0
	v-0.2c0-0.2,0.1-0.3,0.2-0.4c1.2-1.2,2.3-2.5,3.5-3.8c0.8-0.7,1.3-1.7,1.5-2.7c0-1-0.8-1.9-1.9-1.9c-0.1,0-0.2,0-0.2,0
	c-0.8,0.1-1.6,0.5-2.1,1.1c-0.1,0.1-0.3,0.1-0.4,0c0,0,0,0,0,0l-0.3-0.3c-0.1-0.1-0.1-0.3,0-0.4c0.7-0.9,1.7-1.4,2.8-1.5
	c2.1,0,3.2,1.3,3.2,2.9c0,1.3-0.8,2.3-1.9,3.4l-2.8,3l0,0L322.8,88.1z"/>
<path class="st0" d="M326,87.5c0.7,0,1.1,0.7,1.1,1.6c0,0.8-0.3,1.5-0.9,2c-0.1,0.1-0.2,0.1-0.2,0l-0.2-0.2c-0.1-0.1-0.1-0.2,0-0.3
	c0,0,0,0,0,0c0.4-0.3,0.6-0.8,0.6-1.3c0-0.1,0-0.2,0-0.3c-0.1,0.1-0.3,0.1-0.5,0.1c-0.4,0-0.7-0.3-0.7-0.7c0,0,0,0,0,0
	c-0.1-0.4,0.2-0.8,0.7-0.9C325.9,87.5,325.9,87.5,326,87.5z"/>
<path class="st0" d="M328.6,84c0-3.3,1.3-5.2,3.6-5.2s3.6,1.9,3.6,5.2s-1.3,5.2-3.6,5.2S328.6,87.3,328.6,84z M334.8,84
	c0-2.7-0.9-4.2-2.5-4.2s-2.5,1.5-2.5,4.2s0.9,4.2,2.5,4.2S334.8,86.7,334.8,84L334.8,84z"/>
<path class="st0" d="M337.6,86.8c-0.2,0-0.3-0.1-0.3-0.3v-0.4c0-0.1,0-0.2,0.1-0.3l5.5-6.9c0.1-0.1,0.2-0.2,0.4-0.2h0.2
	c0.2,0,0.3,0.1,0.3,0.3v6.8h1.2c0.1,0,0.3,0.1,0.3,0.2c0,0,0,0,0,0v0.4c0,0.1-0.1,0.3-0.3,0.3h-1.2v2c0,0.2-0.1,0.3-0.3,0.3h-0.5
	c-0.2,0-0.3-0.1-0.3-0.3v-2L337.6,86.8z M338.6,85.8L338.6,85.8l4.2,0.1v-5.2l0,0L338.6,85.8z"/>
<path class="st0" d="M347,84c0-3.3,1.3-5.2,3.6-5.2s3.6,1.9,3.6,5.2s-1.3,5.2-3.6,5.2S347,87.3,347,84z M353.1,84
	c0-2.7-0.9-4.2-2.5-4.2s-2.5,1.5-2.5,4.2s0.9,4.2,2.5,4.2S353.1,86.7,353.1,84z"/>
<path class="st0" d="M403.8,88.1c0.2,0,0.3,0.1,0.3,0.3v0v0.4c0,0.2-0.1,0.3-0.3,0.3l0,0h-5.7c-0.2,0-0.3-0.1-0.3-0.3c0,0,0,0,0,0
	v-0.2c0-0.2,0.1-0.3,0.2-0.4c1.2-1.2,2.3-2.5,3.5-3.8c0.8-0.7,1.3-1.7,1.5-2.7c0-1-0.8-1.9-1.9-1.9c-0.1,0-0.2,0-0.2,0
	c-0.8,0.1-1.6,0.5-2.1,1.1c-0.1,0.1-0.3,0.1-0.4,0c0,0,0,0,0,0l-0.3-0.3c-0.1-0.1-0.1-0.3,0-0.4c0.7-0.9,1.7-1.4,2.8-1.5
	c2.1,0,3.2,1.3,3.2,2.9c0,1.3-0.8,2.3-1.9,3.4l-2.8,3l0,0L403.8,88.1z"/>
<path class="st0" d="M405.9,87.5l0.4-0.3c0.1-0.1,0.3-0.1,0.4,0c0,0,0,0,0,0.1c0.6,0.6,1.4,1,2.2,1c1.1,0.1,2.1-0.7,2.1-1.8
	c0,0,0,0,0,0c0-1.1-0.8-1.9-2.6-1.9h-0.8c-0.2,0-0.3-0.1-0.3-0.3v-0.4c0-0.2,0.1-0.3,0.3-0.3h0.8c1.6,0,2.4-0.8,2.4-1.8
	c0-1-0.8-1.9-1.8-1.9c-0.1,0-0.1,0-0.2,0c-0.8,0-1.5,0.4-2,1c-0.1,0.1-0.2,0.1-0.3,0c0,0,0,0,0,0l-0.4-0.3c-0.1-0.1-0.1-0.3,0-0.4
	c0.7-0.8,1.7-1.3,2.7-1.3c1.8,0,3.1,1,3.1,2.7c0,1-0.6,1.9-1.6,2.4l0,0c1,0.3,1.7,1.3,1.8,2.4c0,1.7-1.2,2.9-3.3,2.9
	c-1.1,0-2.3-0.4-3-1.3C405.8,87.7,405.8,87.6,405.9,87.5z"/>
<path class="st0" d="M414.4,87.5c0.5,0,0.9,0.4,0.9,0.8c0,0,0,0,0,0c0.1,0.5-0.3,0.9-0.8,1c-0.5,0.1-0.9-0.3-1-0.8
	c0-0.1,0-0.1,0-0.2C413.5,87.9,413.9,87.5,414.4,87.5C414.4,87.5,414.4,87.5,414.4,87.5z"/>
<path class="st0" d="M416.5,81.6c-0.1,0.1-0.2,0.1-0.3,0c0,0,0,0,0,0l-0.3-0.3c-0.1-0.1-0.1-0.2,0-0.3l2-1.9
	c0.1-0.1,0.2-0.1,0.2-0.1h0.3c0.2,0,0.3,0.1,0.3,0.3v9.6c0,0.2-0.1,0.3-0.3,0.3h-0.5c-0.2,0-0.3-0.1-0.3-0.3v0v-8l0,0L416.5,81.6z"
	/>
<path class="st0" d="M470.7,78.7c0.1-0.1,0.3,0,0.3,0.1c0,0,0,0,0,0l0.2,0.4c0.1,0.2,0,0.3-0.3,0.4c-0.9,0.4-3.3,1.6-3.8,3.6
	c0.7-0.4,1.5-0.7,2.3-0.7c1.7,0,3.2,1.4,3.2,3.1c0,0,0,0.1,0,0.1c0,1.8-1.4,3.4-3.3,3.4c-2.4,0-3.5-1.9-3.5-4.2
	C465.8,81,469.2,79.3,470.7,78.7z M471.5,85.9c0-1.3-1-2.3-2.2-2.3c0,0,0,0,0,0c-0.9,0-1.7,0.4-2.4,1c0,0.2-0.1,0.5,0,0.7
	c0,1.4,0.7,3,2.4,3C470.5,88.2,471.5,87.1,471.5,85.9z"/>
<path class="st0" d="M474.8,87.5c0.5,0,0.9,0.4,0.9,0.8c0,0,0,0,0,0c0.1,0.5-0.3,0.9-0.8,1c-0.5,0.1-0.9-0.3-1-0.8
	c0-0.1,0-0.1,0-0.2C474,87.9,474.4,87.5,474.8,87.5C474.8,87.5,474.8,87.5,474.8,87.5z"/>
<path class="st0" d="M477,84c0-3.3,1.3-5.2,3.6-5.2s3.6,1.9,3.6,5.2s-1.3,5.2-3.6,5.2S477,87.3,477,84z M483.2,84
	c0-2.7-0.9-4.2-2.5-4.2s-2.4,1.5-2.4,4.2s0.9,4.2,2.5,4.2S483.2,86.7,483.2,84L483.2,84z"/>
<path class="st0" d="M14,102.8c1.3,0,2.6,0.5,3.5,1.3c0.1,0.1,0.1,0.3,0,0.4c-0.1,0.1-0.3,0.3-0.4,0.4c-0.1,0.1-0.2,0.1-0.4,0
	c-0.8-0.7-1.7-1.1-2.8-1.1c-2.3,0.1-4.1,2.1-4,4.4c0.1,2.1,1.8,3.9,4,4c0.9,0,1.8-0.2,2.6-0.6v-2H15c-0.1,0-0.3-0.1-0.3-0.3
	c0,0,0,0,0,0v-0.5c0-0.1,0.1-0.3,0.3-0.3c0,0,0,0,0,0h2.5c0.1,0,0.3,0.1,0.3,0.3v3.3c0,0.1-0.1,0.2-0.1,0.2c-1.1,0.6-2.3,1-3.6,1
	c-2.9,0-5.2-2.3-5.2-5.2C8.8,105.1,11.2,102.8,14,102.8L14,102.8z"/>
<path class="st0" d="M22.3,108.8c0.5,0,1,0.1,1.4,0.2c0-1.2-0.6-1.9-1.5-1.9c-0.5,0-1.1,0.2-1.5,0.4c-0.2,0.1-0.3,0-0.3-0.2
	l-0.1-0.4c-0.1-0.2,0-0.3,0.2-0.4c0.6-0.3,1.2-0.4,1.9-0.4c1.7,0,2.5,1,2.5,2.8v3.8c0,0.1-0.1,0.2-0.2,0.3c0,0,0,0,0,0
	c-0.4,0-0.7-0.3-0.7-0.8c-0.6,0.6-1.3,0.9-2.1,0.9c-1.1,0.1-2.1-0.8-2.1-1.9c0-0.1,0-0.2,0-0.3C19.6,109.8,20.5,108.8,22.3,108.8z
	 M21.9,112.2c0.7,0,1.4-0.3,1.8-0.9V110c-0.5-0.2-0.9-0.3-1.4-0.3c-0.9,0-1.6,0.4-1.6,1.3C20.6,111.7,21.1,112.2,21.9,112.2
	C21.8,112.3,21.8,112.3,21.9,112.2z"/>
<path class="st0" d="M26.9,112.4c-0.1-0.1-0.1-0.2,0-0.3l0.2-0.4c0.1-0.2,0.2-0.2,0.4-0.1c0.5,0.4,1.1,0.6,1.7,0.6
	c0.7,0,1.2-0.3,1.2-0.8s-0.5-0.9-1.5-1.4s-1.9-0.9-1.9-2.1c0-1,0.9-1.8,1.9-1.8c0.1,0,0.1,0,0.2,0c0.7,0,1.3,0.2,1.9,0.5
	c0.1,0.1,0.2,0.3,0.1,0.4c0,0,0,0,0,0l-0.1,0.3c-0.1,0.2-0.3,0.2-0.5,0.1c0,0,0,0,0,0c-0.4-0.3-0.9-0.4-1.4-0.4c-0.7,0-1,0.4-1,0.7
	c0,0.6,0.5,0.8,1.3,1.2c1.2,0.5,2.2,1,2.2,2.2c-0.1,1.1-1.1,2-2.2,1.9c0,0-0.1,0-0.1,0C28.3,113.2,27.5,113,26.9,112.4z"/>
<path class="st0" d="M33,107.3c-0.2,0-0.3-0.1-0.3-0.3c0,0,0,0,0,0v-0.3c0-0.2,0.1-0.3,0.3-0.3c0,0,0,0,0,0h0.9v-1.9
	c0-0.2,0.1-0.3,0.3-0.3h0.5c0.2,0,0.3,0.1,0.3,0.3c0,0,0,0,0,0v1.9h2c0.2,0,0.3,0.1,0.3,0.3c0,0,0,0,0,0v0.3c0,0.2-0.1,0.3-0.3,0.3
	c0,0,0,0,0,0h-2v3.9c-0.1,0.5,0.3,0.9,0.8,1c0,0,0.1,0,0.1,0c0.4,0,0.7-0.1,1-0.3c0.3-0.2,0.4,0,0.4,0.1l0.1,0.3
	c0.1,0.2,0.1,0.3-0.1,0.4c-0.5,0.3-1,0.4-1.6,0.4c-1,0-1.8-0.8-1.8-1.8c0-0.1,0-0.1,0-0.2v-3.9H33z"/>
<path class="st0" d="M42.1,106.2c1.9-0.1,3.6,1.4,3.6,3.4c0.1,1.9-1.4,3.6-3.4,3.6s-3.6-1.4-3.6-3.4c0-0.1,0-0.1,0-0.2
	C38.7,107.8,40.2,106.3,42.1,106.2z M42.1,112.2c1.4,0.1,2.6-0.9,2.8-2.3c0.1-1.4-0.9-2.6-2.3-2.8c-1.4-0.1-2.6,0.9-2.8,2.3
	c0,0.1,0,0.1,0,0.2C39.7,111,40.7,112.2,42.1,112.2C42.1,112.2,42.1,112.2,42.1,112.2L42.1,112.2z"/>
<path class="st0" d="M47.2,112.4c-0.1-0.1-0.1-0.2,0-0.3l0.2-0.4c0.1-0.2,0.2-0.2,0.4-0.1c0.5,0.4,1.1,0.6,1.7,0.6
	c0.7,0,1.1-0.3,1.1-0.8s-0.5-0.9-1.5-1.4s-1.9-0.9-1.9-2c0-1,0.9-1.8,1.9-1.8c0.1,0,0.1,0,0.2,0c0.7,0,1.3,0.2,1.9,0.5
	c0.1,0.1,0.2,0.3,0.1,0.4c0,0,0,0,0,0l-0.2,0.3c-0.1,0.2-0.3,0.2-0.4,0.1c0,0,0,0,0,0c-0.4-0.3-0.9-0.4-1.4-0.4c-0.7,0-1,0.4-1,0.7
	c0,0.6,0.5,0.8,1.3,1.2c1.2,0.5,2.2,1,2.2,2.2c0,1.1-1,2-2.1,1.9c-0.1,0-0.1,0-0.2,0C48.6,113.3,47.8,113,47.2,112.4z"/>
<path class="st0" d="M63.2,113.1c0,2.3-1.4,3.1-2.9,3.1c-0.9,0-1.7-0.3-2.3-0.9c-0.1-0.1-0.1-0.3-0.1-0.4l0.3-0.4
	c0.1-0.2,0.3-0.2,0.4,0c0.5,0.4,1.1,0.7,1.7,0.7c1.1,0,1.9-0.6,1.9-2.1v-0.5c-0.5,0.4-1.2,0.6-1.8,0.6c-1.9-0.2-3.3-1.9-3.1-3.9
	c0.2-1.6,1.5-2.9,3.1-3.1c0.7,0,1.4,0.3,2,0.7c0-0.3,0.3-0.6,0.7-0.6c0.1,0,0.2,0.1,0.3,0.2c0,0,0,0,0,0L63.2,113.1z M60.4,112.2
	c0.6,0,1.2-0.2,1.7-0.6V108c-0.5-0.5-1.1-0.8-1.8-0.8c-1.3,0.1-2.2,1.2-2.2,2.4c0,0,0,0.1,0,0.1C58.1,111,59.1,112.1,60.4,112.2
	C60.4,112.2,60.4,112.2,60.4,112.2L60.4,112.2z"/>
<path class="st0" d="M68.6,106.2c1.6,0,3,1.3,3,2.9c0,0.1,0,0.1,0,0.2c0,0.1,0,0.3,0,0.4c0,0.2-0.1,0.3-0.3,0.3h-4.9
	c0,1.2,1,2.2,2.2,2.3c0.6,0,1.3-0.2,1.8-0.6c0.2-0.2,0.3-0.2,0.5,0.1l0.2,0.2c0.1,0.2,0.2,0.3-0.1,0.5c-0.7,0.5-1.6,0.8-2.4,0.8
	c-1.9-0.1-3.4-1.8-3.2-3.8C65.5,107.7,66.8,106.4,68.6,106.2L68.6,106.2z M70.6,109.1c0-1.1-0.9-1.9-2-1.9c-1.1,0-2,0.8-2.2,1.9
	H70.6z"/>
<path class="st0" d="M73.7,106.6c0-0.1,0.1-0.2,0.2-0.3c0,0,0,0,0,0c0.4,0,0.7,0.3,0.7,0.8c0.6-0.5,1.4-0.8,2.2-0.8
	c2,0,2.4,1.3,2.4,3v3.5c0,0.2-0.1,0.3-0.3,0.3h-0.4c-0.2,0-0.3-0.1-0.3-0.3v-3.7c0-1.3-0.4-1.9-1.4-1.9c-0.8,0-1.5,0.4-2.1,0.9v4.6
	c0,0.2-0.1,0.3-0.3,0.3H74c-0.2,0-0.3-0.1-0.3-0.3l0,0V106.6z"/>
<path class="st0" d="M84.6,106.2c1.7,0,3,1.3,3,3c0,0,0,0,0,0.1c0,0.1,0,0.3,0,0.4c0,0.2-0.1,0.3-0.3,0.3h-4.9c0,1.2,1,2.2,2.2,2.3
	c0.6,0,1.3-0.2,1.8-0.6c0.2-0.2,0.3-0.2,0.5,0.1l0.2,0.2c0.1,0.2,0.2,0.3-0.1,0.5c-0.7,0.5-1.6,0.8-2.4,0.8
	c-1.9-0.1-3.4-1.8-3.2-3.8C81.5,107.7,82.9,106.4,84.6,106.2L84.6,106.2z M86.6,109.1c0-1.1-0.9-1.9-2-1.9c-1.1,0-2,0.8-2.2,1.9
	H86.6z"/>
<path class="st0" d="M89.7,106.6c0-0.1,0.1-0.2,0.2-0.3c0,0,0,0,0,0c0.4,0,0.7,0.3,0.7,0.8c0.5-0.6,1.3-0.9,2.1-0.8
	c0.5,0,1.3,0.1,1.2,0.5l-0.2,0.5c0,0.1-0.2,0.2-0.3,0.2c0,0-0.1,0-0.1,0c-0.2-0.1-0.5-0.2-0.7-0.2c-0.7,0-1.4,0.3-1.8,0.9v4.6
	c0,0.2-0.1,0.3-0.3,0.3H90c-0.2,0-0.3-0.1-0.3-0.3l0,0V106.6z"/>
<path class="st0" d="M97.6,108.8c0.5,0,1,0.1,1.4,0.2c0-1.2-0.6-1.9-1.5-1.9c-0.5,0-1.1,0.2-1.6,0.4c-0.2,0.1-0.3,0-0.3-0.2
	l-0.2-0.4c0-0.2,0-0.3,0.2-0.4c0.6-0.3,1.2-0.4,1.9-0.4c1.7,0,2.5,1,2.5,2.8v3.8c0,0.1-0.1,0.2-0.2,0.3c0,0,0,0,0,0
	c-0.4,0-0.7-0.3-0.7-0.8c-0.6,0.6-1.3,0.9-2.1,0.9c-1.1,0-2-0.8-2.1-1.9c0-0.1,0-0.2,0-0.3C94.9,109.8,95.9,108.8,97.6,108.8z
	 M97.2,112.2c0.7,0,1.4-0.3,1.8-0.9V110c-0.5-0.2-0.9-0.3-1.4-0.3c-0.9,0-1.6,0.4-1.6,1.3c0,0.6,0.5,1.2,1.1,1.2
	C97.1,112.3,97.2,112.3,97.2,112.2z"/>
<path class="st0" d="M102.7,103.2c0-0.2,0.1-0.3,0.3-0.3h0.4c0.2,0,0.3,0.1,0.3,0.3v9.5c0,0.2-0.1,0.3-0.3,0.3H103
	c-0.2,0-0.3-0.1-0.3-0.3V103.2z"/>
<path class="st0" d="M109.2,106.2c1.7,0,3,1.3,3,3c0,0,0,0,0,0.1c0,0.1,0,0.3,0,0.4c0,0.2-0.1,0.3-0.3,0.3H107c0,1.2,1,2.2,2.2,2.3
	c0.6,0,1.3-0.2,1.8-0.6c0.2-0.2,0.3-0.2,0.5,0.1l0.2,0.2c0.1,0.2,0.2,0.3,0,0.5c-0.7,0.5-1.6,0.8-2.4,0.8c-1.9-0.1-3.4-1.8-3.2-3.8
	C106.1,107.7,107.5,106.4,109.2,106.2L109.2,106.2z M111.2,109.1c0-1.1-0.9-1.9-2-1.9c-1.1,0-2,0.8-2.2,1.9H111.2z"/>
<path class="st0" d="M113.9,112.4c-0.1-0.1-0.1-0.2,0-0.3l0.2-0.4c0-0.1,0.2-0.2,0.3-0.2c0,0,0.1,0,0.1,0.1c0.5,0.4,1.1,0.6,1.7,0.6
	c0.7,0,1.2-0.3,1.2-0.8s-0.5-0.9-1.5-1.4s-1.9-0.9-1.9-2.1c0-1,0.9-1.8,1.9-1.8c0.1,0,0.1,0,0.2,0c0.7,0,1.3,0.2,1.9,0.5
	c0.1,0.1,0.2,0.3,0.1,0.4c0,0,0,0,0,0l-0.1,0.3c-0.1,0.2-0.3,0.2-0.4,0.1c0,0,0,0,0,0c-0.4-0.3-0.9-0.4-1.4-0.4c-0.7,0-1,0.4-1,0.7
	c0,0.6,0.5,0.8,1.3,1.2c1.2,0.5,2.2,1,2.2,2.2c-0.1,1.1-1.1,2-2.2,1.9c0,0-0.1,0-0.1,0C115.3,113.2,114.5,113,113.9,112.4z"/>
<path class="st0" d="M183.6,105.9c-0.1,0-0.3,0-0.3-0.2c0,0,0,0,0,0l-0.1-0.7c0-0.1,0-0.3,0.1-0.3l1.9-1.6c0.1-0.1,0.3-0.2,0.5-0.2
	h0.8c0.2,0,0.3,0.1,0.3,0.3v9.6c0,0.2-0.1,0.3-0.3,0.3h-1.3c-0.2,0-0.3-0.1-0.3-0.3v-7.2L183.6,105.9z"/>
<path class="st0" d="M189,105.9c-0.1,0-0.3,0-0.3-0.2c0,0,0,0,0,0l-0.1-0.7c0-0.1,0-0.3,0.1-0.3l1.9-1.6c0.1-0.1,0.3-0.2,0.5-0.2
	h0.8c0.1,0,0.3,0.1,0.3,0.3l0,0v9.6c0,0.2-0.1,0.3-0.3,0.3c0,0,0,0,0,0h-1.3c-0.2,0-0.3-0.1-0.3-0.3v-7.2L189,105.9z"/>
<path class="st0" d="M194.4,108c0-3.3,1.4-5.2,3.8-5.2s3.8,2,3.8,5.2s-1.4,5.2-3.8,5.2S194.4,111.2,194.4,108z M200,108
	c0-2.2-0.7-3.5-1.9-3.5s-1.9,1.3-1.9,3.5s0.7,3.5,1.9,3.5S200,110.2,200,108z"/>
<path class="st0" d="M204.1,110.8c0.7,0,1.3,0.6,1.3,1.7c0,1-0.4,2-1.2,2.6c-0.1,0.1-0.2,0.1-0.3,0l-0.4-0.4c-0.1-0.1,0-0.2,0.1-0.3
	c0.4-0.4,0.7-0.8,0.8-1.4c0-0.1,0-0.2,0-0.3c-0.2,0.1-0.3,0.1-0.5,0.1c-0.5,0-0.9-0.4-0.9-0.9c0,0,0,0,0-0.1
	C203,111.4,203.5,110.9,204.1,110.8C204.1,110.8,204.1,110.8,204.1,110.8z"/>
<path class="st0" d="M206.6,105.9c-0.1,0-0.3,0-0.3-0.2c0,0,0,0,0,0l0-0.7c0-0.1,0-0.3,0.1-0.3l1.9-1.6c0.1-0.1,0.3-0.2,0.5-0.2h0.8
	c0.1,0,0.3,0.1,0.3,0.3l0,0v9.6c0,0.2-0.1,0.3-0.3,0.3c0,0,0,0,0,0h-1.3c-0.2,0-0.3-0.1-0.3-0.3v-7.2L206.6,105.9z"/>
<path class="st0" d="M213.7,107.9L213.7,107.9c-0.9-0.5-1.5-1.4-1.5-2.3c0-1.7,1.4-2.7,3.2-2.7s3.3,1.1,3.3,2.7c0,1-0.6,1.9-1.5,2.3
	v0.1c1.1,0.4,1.8,1.4,1.8,2.5c0,1.6-1.4,2.9-3.6,2.9s-3.5-1.2-3.5-2.9C212,109.2,212.7,108.3,213.7,107.9z M215.5,111.7
	c0.8,0.1,1.5-0.5,1.5-1.2c0-0.1,0-0.1,0-0.2c-0.1-0.8-0.7-1.5-1.6-1.6c-0.8,0.1-1.5,0.8-1.6,1.6c0,0.8,0.6,1.4,1.4,1.4
	C215.4,111.7,215.4,111.7,215.5,111.7z M216.8,105.6c0-0.7-0.6-1.3-1.3-1.3c0,0-0.1,0-0.1,0c-0.7,0-1.3,0.5-1.3,1.2c0,0,0,0,0,0.1
	c0,0.7,0.4,1.2,1.4,1.4C216.4,106.8,216.8,106.2,216.8,105.6z"/>
<path class="st0" d="M220.7,105.9c-0.1,0-0.3,0-0.3-0.2c0,0,0,0,0,0l-0.1-0.7c0-0.1,0-0.3,0.1-0.3l1.9-1.6c0.1-0.1,0.3-0.2,0.5-0.2
	h0.8c0.2,0,0.3,0.1,0.3,0.3v9.6c0,0.2-0.1,0.3-0.3,0.3h-1.3c-0.2,0-0.3-0.1-0.3-0.3c0,0,0,0,0,0v-7.2L220.7,105.9z"/>
<path class="st0" d="M265,105.9c-0.1,0-0.3,0-0.3-0.2c0,0,0,0,0,0l-0.1-0.7c0-0.1,0-0.3,0.1-0.3l1.9-1.6c0.1-0.1,0.3-0.2,0.5-0.2
	h0.8c0.2,0,0.3,0.1,0.3,0.3v9.6c0,0.2-0.1,0.3-0.3,0.3h-1.3c-0.2,0-0.3-0.1-0.3-0.3c0,0,0,0,0,0v-7.2L265,105.9z"/>
<path class="st0" d="M270.5,111.5l0.7-0.7c0.1-0.1,0.3-0.1,0.4,0c0.5,0.5,1.2,0.8,1.9,0.8c1,0,1.7-0.8,1.7-1.7c0,0,0,0,0,0
	c0-0.9-0.7-1.7-1.6-1.7c-0.1,0-0.1,0-0.2,0h-2.3c-0.3,0-0.5-0.2-0.5-0.5c0,0,0,0,0,0v-4.4c0-0.2,0.1-0.3,0.3-0.3c0,0,0,0,0,0h4.7
	c0.2,0,0.3,0.1,0.3,0.3v1c0,0.2-0.1,0.3-0.3,0.3l0,0h-3.3v2h1.3c1.7-0.1,3.3,1.2,3.4,2.9c0,0.1,0,0.3,0,0.4c0,1.9-1.6,3.5-3.6,3.4
	c0,0,0,0-0.1,0c-1.1,0-2.2-0.4-2.9-1.2C270.4,111.8,270.3,111.6,270.5,111.5z"/>
<path class="st0" d="M279.6,110.8c0.7,0,1.2,0.5,1.2,1.2s-0.5,1.2-1.2,1.2c-0.7,0-1.2-0.5-1.2-1.2
	C278.4,111.4,278.9,110.8,279.6,110.8z"/>
<path class="st0" d="M281.9,108c0-3.3,1.4-5.2,3.8-5.2s3.8,2,3.8,5.2s-1.4,5.2-3.8,5.2S281.9,111.2,281.9,108z M287.6,108
	c0-2.2-0.7-3.5-1.9-3.5s-1.9,1.3-1.9,3.5s0.7,3.5,1.9,3.5S287.6,110.2,287.6,108L287.6,108z"/>
<path class="st0" d="M304.3,105.6c-0.1,0.1-0.2,0.1-0.3,0c0,0,0,0,0,0l-0.3-0.3c-0.1-0.1-0.1-0.2,0-0.3l2-1.9
	c0.1-0.1,0.1-0.1,0.2-0.1h0.3c0.2,0,0.3,0.1,0.3,0.3v9.6c0,0.2-0.1,0.3-0.3,0.3h-0.5c-0.2,0-0.3-0.1-0.3-0.3v-8l0,0L304.3,105.6z"/>
<path class="st0" d="M309,108c0-3.3,1.3-5.2,3.6-5.2s3.6,2,3.6,5.2s-1.3,5.2-3.6,5.2S309,111.2,309,108z M315.1,108
	c0-2.7-0.9-4.2-2.5-4.2s-2.5,1.5-2.5,4.2c0,2.7,0.9,4.2,2.5,4.2S315.1,110.7,315.1,108z"/>
<path class="st0" d="M318.3,111.5c0.1-0.1,0.2-0.2,0.4-0.3s0.2-0.1,0.4,0c0.5,0.7,1.3,1.1,2.2,1.1c1.3,0,2.4-1.1,2.3-2.4
	c0-1.2-0.9-2.1-2-2.2c-0.1,0-0.2,0-0.3,0H319c-0.3,0-0.5-0.3-0.5-0.5v-3.9c0-0.2,0.1-0.3,0.3-0.3h4.5c0.2,0,0.3,0.1,0.3,0.3v0.4
	c0,0.2-0.1,0.3-0.3,0.3h-3.8v2.7h1.7c2.2,0,3.5,1.2,3.5,3.1c0,1.9-1.5,3.4-3.4,3.4c0,0-0.1,0-0.1,0c-1.1,0.1-2.2-0.4-2.9-1.2
	C318.1,111.8,318.1,111.6,318.3,111.5z"/>
<path class="st0" d="M327,111.5c0.7,0,1.1,0.7,1.1,1.6c0,0.8-0.3,1.5-0.9,2c-0.1,0.1-0.2,0.1-0.2,0l-0.2-0.2c-0.1-0.1-0.1-0.2,0-0.3
	c0,0,0,0,0,0c0.4-0.3,0.6-0.8,0.6-1.3c0-0.1,0-0.2,0-0.3c-0.1,0.1-0.3,0.1-0.5,0.1c-0.4,0-0.7-0.3-0.7-0.7c0,0,0,0,0,0
	c-0.1-0.4,0.2-0.8,0.7-0.9C326.9,111.5,326.9,111.5,327,111.5z"/>
<path class="st0" d="M329.7,108c0-3.3,1.3-5.2,3.6-5.2s3.6,2,3.6,5.2s-1.3,5.2-3.6,5.2S329.7,111.2,329.7,108z M335.8,108
	c0-2.7-0.9-4.2-2.5-4.2s-2.5,1.5-2.5,4.2c0,2.7,0.9,4.2,2.5,4.2S335.8,110.7,335.8,108z"/>
<path class="st0" d="M338.6,110.8c-0.2,0-0.3-0.1-0.3-0.3v-0.4c0-0.1,0-0.2,0.1-0.3l5.5-6.9c0.1-0.1,0.2-0.2,0.4-0.2h0.2
	c0.2,0,0.3,0.1,0.3,0.3v6.8h1.2c0.1,0,0.3,0.1,0.3,0.2c0,0,0,0,0,0v0.4c0,0.1-0.1,0.3-0.3,0.3h-1.2v2c0,0.2-0.1,0.3-0.3,0.3h-0.5
	c-0.2,0-0.3-0.1-0.3-0.3v-2H338.6z M339.6,109.8L339.6,109.8l4.2,0.1v-5.2l0,0L339.6,109.8z"/>
<path class="st0" d="M353.9,112.1c0.2,0,0.3,0.1,0.3,0.3l0,0v0.4c0,0.2-0.1,0.3-0.3,0.3h-5.7c-0.2,0-0.3-0.1-0.3-0.3c0,0,0,0,0,0
	v-0.2c0-0.2,0.1-0.3,0.2-0.4c1.1-1.2,2.3-2.5,3.5-3.8c0.8-0.7,1.3-1.7,1.5-2.7c0-1-0.8-1.9-1.9-1.9c-0.1,0-0.2,0-0.2,0
	c-0.8,0.1-1.6,0.5-2.1,1.1c-0.1,0.1-0.3,0.1-0.4,0c0,0,0,0,0,0l-0.3-0.3c-0.1-0.1-0.1-0.3,0-0.4c0.7-0.9,1.7-1.4,2.8-1.5
	c2.1,0,3.2,1.3,3.2,2.9c0,1.3-0.8,2.3-1.9,3.4l-2.8,3l0,0L353.9,112.1z"/>
<path class="st0" d="M396.6,105.6c-0.1,0.1-0.2,0.1-0.3,0c0,0,0,0,0,0l-0.3-0.3c-0.1-0.1-0.1-0.2,0-0.3l2-1.9
	c0.1-0.1,0.2-0.1,0.2-0.1h0.3c0.1,0,0.3,0.1,0.3,0.3v9.6c0,0.2-0.1,0.3-0.3,0.3H398c-0.2,0-0.3-0.1-0.3-0.3v-8l0,0L396.6,105.6z"/>
<path class="st0" d="M401.4,111.5c0.1-0.1,0.2-0.2,0.3-0.3s0.2-0.1,0.4,0c0.5,0.7,1.3,1.1,2.2,1.1c1.3,0,2.4-1.1,2.3-2.4
	c0-1.2-0.9-2.1-2-2.2c-0.1,0-0.2,0-0.3,0h-2.3c-0.3,0-0.5-0.3-0.5-0.5v-3.9c0-0.2,0.1-0.3,0.3-0.3h4.5c0.2,0,0.3,0.1,0.3,0.3v0.4
	c0,0.2-0.1,0.3-0.3,0.3h-3.8v2.7h1.7c2.2,0,3.5,1.2,3.5,3.1c0,1.9-1.5,3.4-3.4,3.4c0,0-0.1,0-0.1,0c-1.1,0.1-2.2-0.4-2.9-1.2
	C401.3,111.8,401.3,111.6,401.4,111.5z"/>
<path class="st0" d="M409.9,111.5c0.5,0,0.9,0.4,0.9,0.8c0,0,0,0,0,0c0.1,0.5-0.3,0.9-0.8,1c-0.5,0.1-0.9-0.3-1-0.8
	c0-0.1,0-0.1,0-0.2C409,111.9,409.4,111.5,409.9,111.5C409.8,111.5,409.8,111.5,409.9,111.5z"/>
<path class="st0" d="M412,108c0-3.3,1.3-5.2,3.6-5.2s3.6,2,3.6,5.2s-1.3,5.2-3.6,5.2S412,111.2,412,108z M418.2,108
	c0-2.7-0.9-4.2-2.5-4.2s-2.5,1.5-2.5,4.2s0.9,4.2,2.5,4.2S418.2,110.7,418.2,108L418.2,108z"/>
<path class="st0" d="M466,110.8c-0.2,0-0.3-0.1-0.3-0.3v-0.4c0-0.1,0-0.2,0.1-0.3l5.5-6.9c0.1-0.1,0.2-0.2,0.3-0.2h0.2
	c0.2,0,0.3,0.1,0.3,0.3v6.8h1.2c0.1,0,0.3,0.1,0.3,0.2c0,0,0,0,0,0v0.4c0,0.2-0.1,0.3-0.3,0.3h-1.2v2c0,0.2-0.1,0.3-0.3,0.3h-0.5
	c-0.2,0-0.3-0.1-0.3-0.3v-2H466z M467,109.8L467,109.8l4.2,0.1v-5.2l0,0L467,109.8z"/>
<path class="st0" d="M475.7,111.5c0.5,0,0.9,0.4,0.9,0.8c0,0,0,0,0,0c0,0.5-0.4,0.9-0.9,0.9c0,0,0,0,0,0c-0.5,0-0.9-0.4-0.9-0.9
	c0,0,0,0,0,0C474.8,111.9,475.2,111.5,475.7,111.5C475.6,111.5,475.7,111.5,475.7,111.5z"/>
<path class="st0" d="M478.9,112.8c-0.1-0.2,0-0.3,0.3-0.4c0.7-0.2,3.3-1.6,3.9-3.6c-0.7,0.4-1.5,0.7-2.3,0.7c-1.7,0-3.2-1.4-3.2-3.1
	c0-0.1,0-0.1,0-0.2c0-1.8,1.5-3.4,3.3-3.4c2.4,0,3.5,1.9,3.5,4.3c0,4-3.4,5.7-4.9,6.3c-0.1,0-0.3,0-0.3-0.2L478.9,112.8z
	 M483.2,107.5c0-0.2,0-0.5,0-0.7c0-1.4-0.7-3-2.4-3c-1.3,0-2.3,1.1-2.2,2.4c0,0,0,0,0,0c0,1.3,1,2.3,2.2,2.3c0,0,0,0,0,0
	C481.7,108.5,482.6,108.1,483.2,107.5z"/>
<path class="st0" d="M14,126.8c2.9,0,5.2,2.3,5.2,5.2s-2.3,5.2-5.2,5.2c-2.9,0-5.2-2.3-5.2-5.2c0,0,0,0,0,0
	C8.8,129.1,11.1,126.8,14,126.8C14,126.8,14,126.8,14,126.8z M14,136.2c2.3,0,4.2-1.9,4.2-4.2c0-2.3-1.9-4.2-4.2-4.2
	c-2.3,0-4.2,1.9-4.2,4.2c0,0,0,0,0,0C9.9,134.3,11.7,136.2,14,136.2z"/>
<path class="st0" d="M21,131.3c-0.2,0-0.3-0.1-0.3-0.3c0,0,0,0,0,0v-0.3c0-0.2,0.1-0.3,0.3-0.3c0,0,0,0,0,0h0.9v-1.9
	c0-0.2,0.1-0.3,0.3-0.3h0.5c0.2,0,0.3,0.1,0.3,0.3c0,0,0,0,0,0v1.9h2c0.2,0,0.3,0.1,0.3,0.3c0,0,0,0,0,0v0.3c0,0.2-0.1,0.3-0.3,0.3
	c0,0,0,0,0,0h-2v4c-0.1,0.5,0.3,0.9,0.8,1c0,0,0.1,0,0.1,0c0.4,0,0.7-0.1,1-0.3c0.3-0.2,0.4,0,0.4,0.1l0.1,0.3
	c0.1,0.2,0.1,0.3-0.1,0.4c-0.5,0.3-1,0.4-1.6,0.4c-1,0-1.8-0.8-1.8-1.8c0-0.1,0-0.1,0-0.2v-4L21,131.3z"/>
<path class="st0" d="M27.2,130.6c0-0.1,0.1-0.2,0.2-0.3c0,0,0,0,0,0c0.4,0,0.7,0.3,0.7,0.8c0.5-0.6,1.3-0.9,2.1-0.8
	c0.5,0,1.3,0.1,1.2,0.5l-0.2,0.5c-0.1,0.2-0.2,0.2-0.4,0.2c-0.2-0.1-0.5-0.2-0.7-0.2c-0.7,0-1.4,0.3-1.8,0.9v4.6
	c0,0.2-0.1,0.3-0.3,0.3h-0.5c-0.2,0-0.3-0.1-0.3-0.3l0,0L27.2,130.6z"/>
<path class="st0" d="M35.8,130.2c1.9-0.1,3.6,1.4,3.6,3.4c0.1,1.9-1.4,3.6-3.4,3.6s-3.6-1.4-3.6-3.4c0-0.1,0-0.1,0-0.2
	C32.4,131.8,33.9,130.3,35.8,130.2z M35.8,136.2c1.4,0.1,2.6-0.9,2.8-2.3c0.1-1.4-0.9-2.6-2.3-2.8c-1.4-0.1-2.6,0.9-2.8,2.3
	c0,0.1,0,0.1,0,0.2C33.4,135,34.4,136.2,35.8,136.2C35.7,136.2,35.8,136.2,35.8,136.2L35.8,136.2z"/>
<path class="st0" d="M40.9,136.4c-0.1-0.1-0.1-0.2,0-0.3l0.2-0.4c0.1-0.2,0.2-0.2,0.4-0.1c0.5,0.4,1.1,0.6,1.7,0.6
	c0.7,0,1.2-0.3,1.2-0.8s-0.5-0.9-1.5-1.4s-1.9-0.9-1.9-2.1c0-1,0.9-1.8,1.9-1.8c0,0,0.1,0,0.1,0c0.7,0,1.3,0.2,1.9,0.5
	c0.1,0.1,0.2,0.3,0.1,0.4c0,0,0,0,0,0l-0.1,0.3c-0.1,0.2-0.3,0.2-0.5,0.1c0,0,0,0,0,0c-0.4-0.3-0.9-0.4-1.4-0.4c-0.7,0-1,0.4-1,0.7
	c0,0.6,0.5,0.8,1.3,1.2c1.2,0.5,2.2,1,2.2,2.2c-0.1,1.1-1.1,2-2.2,1.9c0,0-0.1,0-0.1,0C42.3,137.2,41.5,137,40.9,136.4z"/>
<path class="st0" d="M50.9,127.9c0-0.4,0.3-0.8,0.8-0.8c0.4,0,0.8,0.3,0.8,0.8c0,0.4-0.3,0.8-0.8,0.8c0,0,0,0,0,0
	C51.3,128.6,50.9,128.3,50.9,127.9C50.9,127.9,50.9,127.9,50.9,127.9z M51.2,130.7c0-0.2,0.1-0.3,0.3-0.3H52c0.2,0,0.3,0.1,0.3,0.3
	v6.1c0,0.2-0.1,0.3-0.3,0.3h-0.4c-0.2,0-0.3-0.1-0.3-0.3l0,0V130.7z"/>
<path class="st0" d="M54.8,130.6c0-0.1,0.1-0.2,0.2-0.3c0,0,0,0,0,0c0.4,0,0.7,0.3,0.7,0.8c0.6-0.5,1.4-0.8,2.2-0.8
	c1.9,0,2.4,1.3,2.4,3v3.5c0,0.2-0.1,0.3-0.3,0.3h-0.4c-0.2,0-0.3-0.1-0.3-0.3l0,0v-3.7c0-1.3-0.4-1.9-1.4-1.9c-0.8,0-1.5,0.4-2,0.9
	v4.6c0,0.2-0.1,0.3-0.3,0.3h-0.4c-0.2,0-0.3-0.1-0.3-0.3l0,0L54.8,130.6z"/>
<path class="st0" d="M68.6,137.1c0.2,1.5-0.9,2.9-2.4,3.1c-0.2,0-0.4,0-0.6,0c-0.9,0-1.7-0.3-2.3-0.9c-0.1-0.1-0.1-0.3-0.1-0.4
	l0.3-0.4c0.1-0.2,0.3-0.2,0.4,0c0.5,0.4,1.1,0.7,1.7,0.7c1.1,0,1.9-0.6,1.9-2.1v-0.5c-1.7,0.9-3.7,0.2-4.6-1.4
	c-0.9-1.7-0.2-3.7,1.4-4.6c0.4-0.2,0.8-0.3,1.3-0.4c0.7,0,1.4,0.3,2,0.7c0-0.3,0.3-0.6,0.7-0.6c0.1,0,0.3,0.1,0.3,0.2c0,0,0,0,0,0
	L68.6,137.1z M65.9,136.2c0.6,0,1.2-0.2,1.7-0.6V132c-0.5-0.5-1.1-0.8-1.8-0.8c-1.3,0.1-2.2,1.1-2.2,2.4c0,0,0,0.1,0,0.1
	c-0.1,1.3,0.8,2.4,2.1,2.6C65.8,136.2,65.8,136.2,65.9,136.2z"/>
<path class="st0" d="M71.2,130.6c0-0.1,0.1-0.3,0.2-0.3c0,0,0,0,0,0c0.4,0,0.7,0.3,0.7,0.8c0.5-0.6,1.3-0.9,2.1-0.8
	c0.5,0,1.3,0.1,1.2,0.5l-0.2,0.5c0,0.1-0.2,0.2-0.3,0.2c0,0-0.1,0-0.1,0c-0.2-0.1-0.5-0.2-0.7-0.2c-0.7,0-1.4,0.3-1.8,0.9v4.6
	c0,0.2-0.1,0.3-0.3,0.3h-0.4c-0.2,0-0.3-0.1-0.3-0.3l0,0L71.2,130.6z"/>
<path class="st0" d="M79.7,130.2c1.7,0,3,1.3,3,3c0,0.1,0,0.3,0,0.4c0,0.2-0.1,0.3-0.3,0.3h-4.9c0,1.2,1,2.2,2.2,2.3
	c0.6,0,1.3-0.2,1.8-0.6c0.2-0.2,0.3-0.2,0.5,0l0.2,0.3c0.1,0.2,0.2,0.3-0.1,0.5c-0.7,0.5-1.6,0.8-2.4,0.8c-1.9-0.1-3.4-1.8-3.2-3.8
	C76.6,131.7,78,130.4,79.7,130.2L79.7,130.2z M81.7,133.1c0-1.1-0.9-1.9-2-1.9c-1.1,0-2,0.8-2.2,1.9H81.7z"/>
<path class="st0" d="M84.4,136.4c-0.1-0.1-0.1-0.2,0-0.3l0.2-0.4c0.1-0.2,0.2-0.2,0.4-0.1c0.5,0.4,1.1,0.6,1.7,0.6
	c0.7,0,1.2-0.3,1.2-0.8s-0.6-0.9-1.6-1.4s-1.9-0.9-1.9-2.1c0-1,0.9-1.8,1.9-1.8c0.1,0,0.1,0,0.2,0c0.7,0,1.3,0.2,1.9,0.5
	c0.1,0.1,0.2,0.3,0.1,0.4c0,0,0,0,0,0l-0.1,0.3c-0.1,0.2-0.3,0.2-0.5,0.1c0,0,0,0,0,0c-0.4-0.3-0.9-0.4-1.4-0.4c-0.7,0-1,0.4-1,0.7
	c0,0.6,0.5,0.8,1.3,1.2c1.2,0.5,2.2,1,2.2,2.2c-0.1,1.1-1.1,2-2.2,1.9c0,0-0.1,0-0.1,0C85.7,137.2,85,136.9,84.4,136.4z"/>
<path class="st0" d="M93.8,130.2c1.9-0.1,3.6,1.4,3.6,3.4c0.1,1.9-1.4,3.6-3.4,3.6c-1.9,0.1-3.6-1.4-3.6-3.4c0,0,0-0.1,0-0.1
	C90.4,131.8,91.9,130.3,93.8,130.2z M93.8,136.2c1.4,0.1,2.6-0.9,2.8-2.3c0.1-1.4-0.9-2.6-2.3-2.8c-1.4-0.1-2.6,0.9-2.8,2.3
	c0,0.1,0,0.1,0,0.2C91.4,135,92.4,136.2,93.8,136.2C93.8,136.2,93.8,136.2,93.8,136.2L93.8,136.2z"/>
<path class="st0" d="M98.9,136.4c-0.1-0.1-0.1-0.2,0-0.3l0.2-0.4c0.1-0.2,0.2-0.2,0.4-0.1c0.5,0.4,1.1,0.6,1.7,0.6
	c0.7,0,1.1-0.3,1.1-0.8s-0.5-0.9-1.5-1.4S99,133.1,99,132c0-1,0.9-1.8,1.9-1.8c0.1,0,0.1,0,0.2,0c0.7,0,1.3,0.2,1.9,0.5
	c0.1,0.1,0.2,0.3,0.1,0.4c0,0,0,0,0,0l-0.1,0.3c-0.1,0.2-0.3,0.2-0.5,0.1c0,0,0,0,0,0c-0.4-0.3-0.9-0.4-1.4-0.4c-0.7,0-1,0.4-1,0.7
	c0,0.6,0.5,0.8,1.3,1.2c1.2,0.5,2.2,1,2.2,2.2c0,1.1-1,2-2.1,1.9c-0.1,0-0.1,0-0.2,0C100.4,137.2,99.6,137,98.9,136.4z"/>
<path class="st0" d="M106,135.5c0.7,0,1.1,0.7,1.1,1.6c0,0.8-0.3,1.5-0.9,2c-0.1,0.1-0.2,0.1-0.2,0l-0.2-0.2c-0.1-0.1,0-0.2,0-0.3
	c0.4-0.3,0.6-0.8,0.7-1.3c0-0.1,0-0.2,0-0.3c-0.1,0.1-0.3,0.1-0.5,0.1c-0.4,0-0.7-0.3-0.7-0.7c0,0,0,0,0,0c-0.1-0.4,0.3-0.8,0.7-0.9
	C105.9,135.5,105.9,135.5,106,135.5z"/>
<path class="st0" d="M113,130.6c0-0.1,0.1-0.2,0.2-0.3c0,0,0,0,0,0c0.4,0,0.7,0.3,0.7,0.8c0.6-0.5,1.4-0.8,2.2-0.8
	c2,0,2.4,1.3,2.4,3v3.5c0,0.2-0.1,0.3-0.3,0.3h-0.4c-0.2,0-0.3-0.1-0.3-0.3l0,0v-3.7c0-1.3-0.4-1.9-1.4-1.9c-0.8,0-1.5,0.4-2.1,0.9
	v4.6c0,0.2-0.1,0.3-0.3,0.3h-0.4c-0.2,0-0.3-0.1-0.3-0.3l0,0V130.6z"/>
<path class="st0" d="M124,130.2c1.6,0,3,1.3,3,2.9c0,0,0,0.1,0,0.1c0,0.1,0,0.3,0,0.4c0,0.2-0.1,0.3-0.3,0.3h-4.9
	c0,1.2,1,2.2,2.2,2.3c0.6,0,1.3-0.2,1.8-0.6c0.2-0.2,0.3-0.2,0.5,0l0.2,0.2c0.1,0.2,0.2,0.3-0.1,0.5c-0.7,0.5-1.6,0.8-2.4,0.8
	c-1.9-0.1-3.4-1.8-3.2-3.8C120.9,131.6,122.2,130.3,124,130.2L124,130.2z M126,133.1c0-1.1-0.9-1.9-2-1.9c-1.1,0-2,0.8-2.2,1.9H126z
	"/>
<path class="st0" d="M128.6,131.3c-0.2,0-0.3-0.1-0.4-0.3c0,0,0,0,0,0v-0.3c0-0.2,0.1-0.3,0.3-0.3c0,0,0,0,0,0h0.9v-1.9
	c0-0.2,0.1-0.3,0.3-0.3h0.4c0.2,0,0.3,0.1,0.3,0.3c0,0,0,0,0,0v1.9h2c0.2,0,0.3,0.1,0.3,0.3c0,0,0,0,0,0v0.3c0,0.2-0.2,0.3-0.3,0.3
	c0,0,0,0,0,0h-2v4c-0.1,0.5,0.3,0.9,0.8,1c0,0,0.1,0,0.1,0c0.4,0,0.7-0.1,1-0.3c0.3-0.2,0.4,0,0.4,0.1l0.1,0.3
	c0.1,0.2,0.1,0.3-0.1,0.4c-0.5,0.3-1,0.4-1.6,0.4c-1,0-1.8-0.8-1.8-1.8c0-0.1,0-0.1,0-0.2v-4L128.6,131.3z"/>
<path class="st0" d="M137.7,130.2c1.9-0.1,3.6,1.4,3.6,3.4c0.1,1.9-1.4,3.6-3.4,3.6c-1.9,0.1-3.6-1.4-3.6-3.4c0,0,0-0.1,0-0.1
	C134.4,131.8,135.9,130.3,137.7,130.2z M137.7,136.2c1.4,0.1,2.6-0.9,2.8-2.3s-0.9-2.6-2.3-2.8s-2.6,0.9-2.8,2.3c0,0.1,0,0.1,0,0.2
	C135.3,135,136.3,136.2,137.7,136.2C137.7,136.2,137.7,136.2,137.7,136.2L137.7,136.2z"/>
<path class="st0" d="M191.1,129.9c-0.1,0-0.3,0-0.3-0.2c0,0,0,0,0,0l-0.1-0.7c0-0.1,0-0.3,0.1-0.3l1.9-1.6c0.1-0.1,0.3-0.2,0.5-0.2
	h0.8c0.1,0,0.3,0.1,0.3,0.3c0,0,0,0,0,0v9.6c0,0.1-0.1,0.3-0.2,0.3c0,0,0,0,0,0h-1.3c-0.2,0-0.3-0.1-0.3-0.3c0,0,0,0,0,0v-7.1
	L191.1,129.9z"/>
<path class="st0" d="M197.5,134.8c0.7,0,1.3,0.6,1.3,1.7c0,1-0.4,2-1.2,2.6c-0.1,0.1-0.2,0.1-0.3,0l-0.4-0.4c-0.1-0.1,0-0.2,0.1-0.3
	c0.4-0.4,0.7-0.8,0.8-1.4c0-0.1,0-0.2-0.1-0.3c-0.1,0.1-0.3,0.2-0.5,0.1c-0.5,0-0.9-0.4-0.9-0.9c0,0,0,0,0-0.1c0-0.6,0.4-1.1,1-1.1
	C197.4,134.8,197.4,134.8,197.5,134.8z"/>
<path class="st0" d="M206.5,135.5c0.2,0,0.3,0.1,0.3,0.3v1c0,0.2-0.1,0.3-0.3,0.3h-5.9c-0.1,0-0.3-0.1-0.3-0.3c0,0,0,0,0,0v-0.1
	c0-0.1,0-0.2,0.1-0.3c1-1.2,2.8-3.6,3.8-4.8c0.4-0.5,0.7-1,0.8-1.7c0-0.8-0.7-1.4-1.4-1.4c0,0-0.1,0-0.1,0c-0.7,0.1-1.3,0.4-1.7,0.9
	c-0.1,0.1-0.2,0.1-0.4,0c0,0,0,0,0,0l-0.7-0.7c-0.1-0.1-0.1-0.3,0-0.4c0.7-0.9,1.8-1.4,2.9-1.5c1.6-0.2,3.1,1,3.3,2.7
	c0,0.1,0,0.2,0,0.3c-0.1,0.9-0.4,1.7-1,2.4c-0.6,0.9-1.8,2.3-2.5,3.3l0,0L206.5,135.5z"/>
<path class="st0" d="M208.5,134.9c-0.2,0-0.3-0.1-0.3-0.3v-0.9c0-0.2,0.1-0.4,0.2-0.5l5.1-6.2c0.1-0.1,0.2-0.2,0.4-0.2h0.7
	c0.2,0,0.3,0.1,0.3,0.3v6.3h1.2c0.1,0,0.3,0.1,0.3,0.2c0,0,0,0,0,0v1c0,0.2-0.1,0.3-0.3,0.3H215v1.9c0,0.2-0.1,0.3-0.3,0.3h-1.2
	c-0.2,0-0.3-0.1-0.3-0.3v-1.9H208.5z M213.2,133.4v-3.6l0,0l-3,3.6l0,0L213.2,133.4z"/>
<path class="st0" d="M218.7,136.2c-0.1-0.2,0-0.3,0.3-0.4c0.7-0.2,2.8-1.1,3.3-2.8c-0.5,0.3-1.1,0.4-1.7,0.4c-1.7,0-3-1.4-3-3.1
	c0,0,0-0.1,0-0.1c0-1.9,1.5-3.4,3.4-3.4c2.3,0,3.6,1.9,3.6,4.1c0,4.4-3.7,6-5,6.4c-0.1,0.1-0.3,0-0.4-0.1c0,0,0-0.1,0-0.1
	L218.7,136.2z M222.7,130.7c0-1-0.5-2.2-1.7-2.2c-1,0-1.7,0.8-1.7,1.8c0,1,0.8,1.7,1.7,1.8C221.7,132,222.4,131.4,222.7,130.7z"/>
<path class="st0" d="M270.8,132c0-3.3,1.4-5.2,3.8-5.2s3.8,1.9,3.8,5.2s-1.4,5.2-3.8,5.2S270.8,135.2,270.8,132z M276.4,132
	c0-2.2-0.7-3.5-1.9-3.5s-1.9,1.3-1.9,3.5s0.7,3.5,1.9,3.5S276.4,134.2,276.4,132L276.4,132z"/>
<path class="st0" d="M280.4,134.8c0.7,0,1.2,0.5,1.2,1.2s-0.5,1.2-1.2,1.2c-0.7,0-1.2-0.5-1.2-1.2
	C279.2,135.4,279.7,134.8,280.4,134.8z"/>
<path class="st0" d="M289,135.5c0.2,0,0.3,0.1,0.3,0.3v1c0,0.2-0.1,0.3-0.3,0.3l0,0h-5.9c-0.2,0-0.3-0.1-0.3-0.3c0,0,0,0,0,0v-0.1
	c0-0.1,0-0.2,0.1-0.3c1-1.2,2.8-3.6,3.8-4.8c0.4-0.5,0.7-1,0.8-1.7c0-0.8-0.7-1.4-1.4-1.4c0,0-0.1,0-0.1,0c-0.7,0.1-1.3,0.4-1.7,0.9
	c-0.1,0.1-0.3,0.1-0.4,0c0,0,0,0,0,0l-0.7-0.7c-0.1-0.1-0.1-0.3,0-0.4c0.7-0.9,1.8-1.4,3-1.5c1.6-0.2,3.1,1,3.3,2.7
	c0,0.1,0,0.2,0,0.3c-0.1,0.9-0.4,1.7-1,2.4c-0.6,0.9-1.8,2.3-2.5,3.3l0,0L289,135.5z"/>
<path class="st0" d="M329.5,134.8c-0.2,0-0.3-0.1-0.3-0.3v-0.4c0-0.1,0-0.2,0.1-0.3l5.5-6.9c0.1-0.1,0.2-0.2,0.4-0.2h0.2
	c0.2,0,0.3,0.1,0.3,0.3v6.8h1.2c0.1,0,0.3,0.1,0.3,0.3v0.4c0,0.2-0.1,0.3-0.3,0.3h-1.2v2c0,0.2-0.1,0.3-0.3,0.3h-0.5
	c-0.2,0-0.3-0.1-0.3-0.3v-2H329.5z M330.5,133.8L330.5,133.8l4.2,0.1v-5.2l0,0L330.5,133.8z"/>
<path class="st0" d="M338.7,134.8c-0.2,0-0.3-0.1-0.3-0.3v-0.4c0-0.1,0-0.2,0.1-0.3l5.5-6.9c0.1-0.1,0.2-0.2,0.4-0.2h0.2
	c0.2,0,0.3,0.1,0.3,0.3v6.8h1.2c0.1,0,0.3,0.1,0.3,0.2c0,0,0,0,0,0v0.4c0,0.1-0.1,0.3-0.3,0.3c0,0,0,0,0,0h-1.2v2
	c0,0.2-0.1,0.3-0.3,0.3h-0.5c-0.2,0-0.3-0.1-0.3-0.3v-2H338.7z M339.7,133.8L339.7,133.8l4.2,0.1v-5.2l0,0L339.7,133.8z"/>
<path class="st0" d="M348.9,136.8c-0.1-0.2,0-0.3,0.3-0.4c0.7-0.2,3.3-1.6,3.9-3.6c-0.7,0.4-1.5,0.7-2.3,0.7c-1.7,0-3.2-1.4-3.2-3.1
	c0,0,0-0.1,0-0.1c0-1.9,1.4-3.4,3.3-3.4c2.4,0,3.5,1.9,3.5,4.3c0,4-3.4,5.7-4.9,6.3c-0.1,0.1-0.3,0-0.3-0.1c0,0,0,0,0,0L348.9,136.8
	z M353.2,131.5c0-0.2,0.1-0.5,0.1-0.7c0-1.4-0.7-3-2.4-3c-1.3,0.1-2.3,1.2-2.2,2.5c0.1,1.2,1,2.1,2.2,2.2
	C351.7,132.5,352.6,132.1,353.2,131.5L353.2,131.5z"/>
<path class="st0" d="M405.3,132c0-3.3,1.3-5.2,3.6-5.2s3.6,1.9,3.6,5.2s-1.3,5.2-3.6,5.2S405.3,135.2,405.3,132z M411.4,132
	c0-2.7-0.9-4.2-2.5-4.2s-2.5,1.5-2.5,4.2s0.9,4.2,2.5,4.2S411.4,134.7,411.4,132z"/>
<path class="st0" d="M414.5,135.5c0.5,0,0.9,0.4,0.9,0.8c0,0,0,0,0,0c0.1,0.5-0.3,0.9-0.8,1c-0.5,0.1-0.9-0.3-1-0.8
	c0-0.1,0-0.1,0-0.2C413.6,135.9,414,135.5,414.5,135.5C414.4,135.5,414.5,135.5,414.5,135.5z"/>
<path class="st0" d="M416.5,129.6c-0.1,0.1-0.2,0.1-0.3,0l-0.3-0.3c-0.1-0.1-0.1-0.2,0-0.3l2-1.9c0.1-0.1,0.1-0.1,0.2-0.1h0.3
	c0.2,0,0.3,0.1,0.3,0.3v9.6c0,0.2-0.1,0.3-0.3,0.3h-0.5c-0.2,0-0.3-0.1-0.3-0.3l0,0v-8l0,0L416.5,129.6z"/>
<path class="st0" d="M462.5,129.6c-0.1,0.1-0.2,0.1-0.3,0l-0.3-0.3c-0.1-0.1-0.1-0.2,0-0.3l2-1.9c0.1-0.1,0.1-0.1,0.2-0.1h0.3
	c0.1,0,0.3,0.1,0.3,0.3v9.6c0,0.2-0.1,0.3-0.3,0.3h-0.5c-0.2,0-0.3-0.1-0.3-0.3l0,0v-8l0,0L462.5,129.6z"/>
<path class="st0" d="M467.8,135.5c0.5,0,0.9,0.4,0.9,0.8c0,0,0,0,0,0c0.1,0.5-0.3,0.9-0.8,1c-0.5,0.1-0.9-0.3-1-0.8
	c0-0.1,0-0.1,0-0.2C466.9,135.9,467.3,135.5,467.8,135.5C467.8,135.5,467.8,135.5,467.8,135.5z"/>
<path class="st0" d="M472,131.8L472,131.8c-0.9-0.5-1.5-1.4-1.5-2.4c0-1.6,1.3-2.7,3.1-2.7s3.1,1.1,3.1,2.7c0,1-0.6,1.9-1.5,2.3v0.1
	c1,0.4,1.7,1.4,1.8,2.5c0,1.6-1.2,2.9-3.4,2.9s-3.4-1.2-3.4-2.9C470.3,133.2,471,132.2,472,131.8z M473.6,136.3
	c1.3,0,2.3-0.7,2.3-1.9c-0.1-1.2-1.2-2.1-2.5-2c-1.1,0.1-1.9,1-2,2C471.4,135.6,472.2,136.3,473.6,136.3L473.6,136.3z M475.6,129.5
	c0-1.1-0.9-2-2-2s-2,0.9-2,2c0,0.9,0.6,1.7,2,1.8C475,131.2,475.6,130.4,475.6,129.5L475.6,129.5z"/>
<path class="st0" d="M478.4,130.7c-0.1-0.2,0-0.4,0.2-0.4h0.5c0.1,0,0.3,0.1,0.3,0.2l2.1,4.9l0,0l2.2-4.9c0-0.1,0.1-0.2,0.3-0.2h0.5
	c0.3,0,0.4,0.2,0.3,0.4l-2.9,6.3c0,0.1-0.2,0.2-0.3,0.2h-0.1c-0.1,0-0.2-0.1-0.3-0.2L478.4,130.7z"/>
<path class="st0" d="M9.4,151.2c0-0.2,0.1-0.3,0.3-0.3h0.6c0.1,0,0.3,0.1,0.3,0.3c0,0,0,0,0,0v6.1c0,1.5,1.2,2.7,2.7,2.7
	s2.7-1.2,2.7-2.7c0,0,0,0,0,0v-6.1c0-0.2,0.1-0.3,0.3-0.3h0.5c0.2,0,0.3,0.1,0.3,0.3v6.2c0.1,2-1.5,3.8-3.5,3.9c-0.1,0-0.2,0-0.3,0
	c-2,0.1-3.7-1.5-3.8-3.5c0-0.1,0-0.2,0-0.3L9.4,151.2z"/>
<path class="st0" d="M19.2,155.3c-0.2,0-0.3-0.1-0.3-0.3c0,0,0,0,0,0v-0.3c0-0.2,0.1-0.3,0.3-0.3c0,0,0,0,0,0h0.9v-1.9
	c0-0.2,0.1-0.3,0.3-0.3h0.5c0.2,0,0.3,0.1,0.3,0.3c0,0,0,0,0,0v1.9h2c0.2,0,0.3,0.1,0.3,0.3c0,0,0,0,0,0v0.3c0,0.2-0.1,0.3-0.3,0.3
	c0,0,0,0,0,0h-2v4c-0.1,0.5,0.3,0.9,0.8,1c0,0,0.1,0,0.1,0c0.4,0,0.7-0.1,1-0.3c0.3-0.2,0.4,0,0.4,0.1l0.1,0.3
	c0.1,0.2,0.1,0.3-0.1,0.4c-0.5,0.3-1,0.4-1.6,0.4c-1,0-1.8-0.8-1.8-1.8c0-0.1,0-0.1,0-0.2v-4L19.2,155.3z"/>
<path class="st0" d="M25.1,151.9c0-0.4,0.3-0.8,0.8-0.8c0.4,0,0.8,0.3,0.8,0.8c0,0.4-0.3,0.8-0.8,0.8c0,0,0,0,0,0
	C25.5,152.6,25.1,152.3,25.1,151.9z M25.4,154.7c0-0.2,0.1-0.3,0.3-0.3h0.5c0.2,0,0.3,0.1,0.3,0.3v6.1c0,0.2-0.1,0.3-0.3,0.3h-0.4
	c-0.2,0-0.3-0.1-0.3-0.3l0,0L25.4,154.7z"/>
<path class="st0" d="M29.1,151.2c0-0.2,0.1-0.3,0.3-0.3h0.4c0.2,0,0.3,0.1,0.3,0.3v9.5c0,0.2-0.1,0.3-0.3,0.3h-0.4
	c-0.2,0-0.3-0.1-0.3-0.3c0,0,0,0,0,0V151.2z"/>
<path class="st0" d="M32.5,151.9c0-0.4,0.3-0.8,0.8-0.8c0.4,0,0.8,0.3,0.8,0.8c0,0.4-0.3,0.8-0.8,0.8c0,0,0,0,0,0
	C32.9,152.6,32.5,152.3,32.5,151.9z M32.8,154.7c0-0.2,0.1-0.3,0.3-0.3h0.4c0.2,0,0.3,0.1,0.3,0.3v6.1c0,0.2-0.1,0.3-0.3,0.3h-0.4
	c-0.2,0-0.3-0.1-0.3-0.3l0,0V154.7z"/>
<path class="st0" d="M39.2,154.2c0.6,0,1.3,0.1,1.9,0.4v-3.4c0-0.2,0.1-0.3,0.3-0.3h0.4c0.2,0,0.3,0.1,0.3,0.3v9.6
	c0,0.1-0.1,0.3-0.2,0.3c0,0,0,0,0,0c-0.4,0-0.7-0.3-0.7-0.8c-0.6,0.5-1.3,0.8-2.1,0.9c-1.8-0.1-3.1-1.7-3-3.5
	C36,155.7,37.2,154.2,39.2,154.2z M39.2,160.2c0.8,0,1.5-0.4,1.9-1.1v-3.6c-0.5-0.2-1.1-0.4-1.7-0.4c-1.3,0-2.3,1.1-2.3,2.3
	c0,0.1,0,0.1,0,0.2C37,158.9,37.9,160.1,39.2,160.2L39.2,160.2z"/>
<path class="st0" d="M46.8,156.8c0.5,0,0.9,0.1,1.4,0.2c0-1.2-0.6-1.8-1.5-1.8c-0.5,0-1.1,0.2-1.5,0.4c-0.2,0.1-0.3,0-0.3-0.2
	l-0.2-0.4c-0.1-0.2,0-0.3,0.2-0.4c0.6-0.3,1.2-0.4,1.9-0.4c1.7,0,2.5,1,2.5,2.8v3.8c0,0.1-0.1,0.2-0.2,0.3c0,0,0,0,0,0
	c-0.4,0-0.7-0.3-0.7-0.8c-0.6,0.6-1.3,0.9-2.1,0.9c-1.1,0-2-0.8-2-2c0-0.1,0-0.2,0-0.2C44.1,157.8,45.1,156.8,46.8,156.8z
	 M46.4,160.2c0.7,0,1.4-0.3,1.8-0.9V158c-0.4-0.2-0.9-0.3-1.4-0.3c-0.9,0-1.6,0.4-1.6,1.3C45.2,159.7,45.7,160.2,46.4,160.2
	C46.3,160.3,46.4,160.3,46.4,160.2z"/>
<path class="st0" d="M54.5,154.2c0.6,0,1.3,0.1,1.9,0.4v-3.4c0-0.2,0.1-0.3,0.3-0.3h0.4c0.2,0,0.3,0.1,0.3,0.3v9.6
	c0,0.1-0.1,0.2-0.2,0.3c0,0,0,0,0,0c-0.4,0-0.7-0.3-0.7-0.8c-0.6,0.5-1.3,0.8-2.1,0.9c-1.8-0.1-3.1-1.7-3-3.5
	C51.3,155.7,52.5,154.2,54.5,154.2z M54.5,160.2c0.8,0,1.5-0.4,1.9-1.1v-3.6c-0.5-0.2-1.1-0.4-1.7-0.4c-1.3,0-2.3,1.1-2.2,2.3
	c0,0.1,0,0.1,0,0.2C52.3,158.9,53.2,160.1,54.5,160.2L54.5,160.2z"/>
<path class="st0" d="M66.5,154.2c0.6,0,1.3,0.1,1.8,0.4v-3.4c0-0.2,0.1-0.3,0.3-0.3h0.4c0.2,0,0.3,0.1,0.3,0.3v9.6
	c0,0.1-0.1,0.2-0.2,0.3c0,0,0,0,0,0c-0.4,0-0.7-0.3-0.7-0.8c-0.6,0.5-1.3,0.8-2.1,0.9c-1.8-0.2-3.1-1.7-3-3.5
	c-0.2-1.7,1.1-3.3,2.8-3.5C66.3,154.2,66.4,154.2,66.5,154.2z M66.5,160.2c0.8,0,1.5-0.4,1.9-1.1v-3.6c-0.5-0.2-1.1-0.4-1.7-0.4
	c-1.3,0-2.3,1.1-2.2,2.4c0,0.1,0,0.1,0,0.2C64.3,158.9,65.2,160.1,66.5,160.2L66.5,160.2z"/>
<path class="st0" d="M74.8,154.2c1.7,0,3,1.3,3,3c0,0.1,0,0.3,0,0.4c0,0.2-0.1,0.3-0.3,0.3h-4.9c0,1.2,1,2.2,2.2,2.3
	c0.6,0,1.3-0.2,1.8-0.6c0.2-0.2,0.3-0.2,0.5,0l0.2,0.2c0.1,0.2,0.2,0.3-0.1,0.5c-0.7,0.5-1.6,0.8-2.4,0.8c-1.9-0.1-3.4-1.8-3.2-3.8
	C71.7,155.6,73.1,154.3,74.8,154.2L74.8,154.2z M76.8,157.1c0-1.1-0.9-1.9-2-1.9c-1.1,0-2,0.8-2.2,1.9H76.8z"/>
<path class="st0" d="M86.5,154.2c1.9-0.1,3.6,1.4,3.7,3.3c0.1,1.9-1.4,3.6-3.3,3.7c-1.9,0.1-3.6-1.4-3.7-3.3c0-0.1,0-0.1,0-0.2
	C83.2,155.8,84.7,154.3,86.5,154.2z M86.5,160.2c1.3-0.1,2.4-1.2,2.3-2.5c0,0,0,0,0,0c0.1-1.3-0.9-2.4-2.1-2.4s-2.4,0.9-2.4,2.1
	c0,0.1,0,0.2,0,0.3C84.2,159,85.2,160.2,86.5,160.2C86.5,160.2,86.5,160.2,86.5,160.2L86.5,160.2z"/>
<path class="st0" d="M93.1,164.2c0,0.2-0.1,0.3-0.3,0.3h-0.4c-0.2,0-0.3-0.1-0.3-0.3l0,0v-9.6c0-0.1,0.1-0.3,0.2-0.3c0,0,0,0,0,0
	c0.3,0,0.6,0.3,0.7,0.6c0.6-0.4,1.3-0.7,2-0.7c1.9,0.2,3.3,1.9,3.1,3.9c-0.2,1.6-1.5,2.9-3.1,3.1c-0.7,0-1.3-0.2-1.9-0.6L93.1,164.2
	z M93.1,159.7c0.5,0.4,1.1,0.6,1.7,0.6c1.3-0.1,2.3-1.1,2.2-2.4c0,0,0-0.1,0-0.1c0.1-1.3-0.8-2.4-2.1-2.5c0,0-0.1,0-0.1,0
	c-0.7,0-1.3,0.3-1.8,0.8V159.7z"/>
<path class="st0" d="M103.1,154.2c1.7,0,3,1.3,3,3c0,0.1,0,0.3,0,0.4c0,0.2-0.1,0.3-0.3,0.3h-4.9c0,1.2,1,2.2,2.2,2.3
	c0.6,0,1.3-0.2,1.8-0.6c0.2-0.2,0.3-0.2,0.5,0l0.2,0.2c0.1,0.2,0.2,0.3-0.1,0.5c-0.7,0.5-1.6,0.8-2.4,0.8c-1.9-0.1-3.4-1.8-3.2-3.8
	C100,155.6,101.3,154.3,103.1,154.2L103.1,154.2z M105.1,157.1c0-1.1-0.9-1.9-2-1.9c-1.1,0-2,0.8-2.2,1.9H105.1z"/>
<path class="st0" d="M108.1,154.6c0-0.1,0.1-0.2,0.2-0.3c0,0,0,0,0,0c0.4,0,0.7,0.3,0.7,0.8c0.5-0.6,1.3-0.9,2.1-0.8
	c0.5,0,1.3,0.1,1.2,0.5l-0.2,0.5c0,0.1-0.2,0.2-0.3,0.2c0,0-0.1,0-0.1,0c-0.2-0.1-0.5-0.2-0.7-0.2c-0.7,0-1.4,0.3-1.8,0.9v4.6
	c0,0.2-0.1,0.3-0.3,0.3h-0.4c-0.2,0-0.3-0.1-0.3-0.3l0,0V154.6z"/>
<path class="st0" d="M116.1,156.8c0.5,0,1,0.1,1.4,0.2c0-1.2-0.6-1.8-1.5-1.8c-0.5,0-1.1,0.2-1.6,0.4c-0.2,0.1-0.3,0-0.3-0.2
	L114,155c-0.1-0.2,0-0.3,0.2-0.4c0.6-0.3,1.2-0.4,1.9-0.4c1.7,0,2.5,1,2.5,2.8v3.8c0,0.1-0.1,0.2-0.2,0.3c0,0,0,0,0,0
	c-0.4,0-0.7-0.3-0.7-0.8c-0.6,0.6-1.3,0.9-2.1,0.9c-1.1,0-2-0.8-2.1-1.9c0-0.1,0-0.2,0-0.3C113.4,157.8,114.4,156.8,116.1,156.8z
	 M115.7,160.2c0.7,0,1.4-0.3,1.8-0.9V158c-0.4-0.2-0.9-0.3-1.4-0.3c-0.9,0-1.6,0.4-1.6,1.3C114.4,159.7,114.9,160.2,115.7,160.2
	C115.6,160.3,115.6,160.3,115.7,160.2z"/>
<path class="st0" d="M124,154.2c0.9,0,1.8,0.4,2.4,1.1c0.1,0.1,0.1,0.3,0,0.5c0,0,0,0,0,0l-0.2,0.2c-0.2,0.2-0.4,0-0.5-0.1
	c-0.4-0.5-1-0.8-1.7-0.7c-1.4,0.1-2.4,1.4-2.3,2.8c0.1,1.2,1.1,2.2,2.3,2.3c0.7,0,1.4-0.4,1.8-1c0.2-0.2,0.4-0.2,0.6,0l0.1,0.1
	c0.1,0.1,0.2,0.3,0.1,0.5c0,0,0,0,0,0c-0.6,0.8-1.5,1.3-2.5,1.4c-1.8,0-3.3-1.4-3.4-3.3c0-0.1,0-0.2,0-0.2
	C120.6,155.8,122.1,154.2,124,154.2C124,154.2,124,154.2,124,154.2z"/>
<path class="st0" d="M128.3,151.9c0-0.4,0.4-0.8,0.8-0.8c0.4,0,0.8,0.4,0.8,0.8s-0.4,0.8-0.8,0.8
	C128.7,152.6,128.3,152.3,128.3,151.9z M128.6,154.7c0-0.2,0.1-0.3,0.3-0.3h0.4c0.2,0,0.3,0.1,0.3,0.3v6.1c0,0.2-0.1,0.3-0.3,0.3
	h-0.4c-0.2,0-0.3-0.1-0.3-0.3v0V154.7z"/>
<path class="st0" d="M135.1,154.2c1.9-0.1,3.6,1.4,3.6,3.4c0.1,1.9-1.4,3.6-3.4,3.6c-1.9,0.1-3.6-1.4-3.6-3.4c0-0.1,0-0.1,0-0.2
	C131.8,155.8,133.3,154.3,135.1,154.2z M135.1,160.2c1.3-0.1,2.4-1.2,2.3-2.5c0,0,0,0,0,0c0.1-1.3-0.9-2.4-2.1-2.4
	c-1.3-0.1-2.4,0.9-2.4,2.1c0,0.1,0,0.2,0,0.3C132.7,159,133.7,160.2,135.1,160.2C135.1,160.2,135.1,160.2,135.1,160.2L135.1,160.2z
	 M133.7,152.4l2.3-1.4c0.2-0.1,0.5,0,0.6,0.2c0,0,0,0,0,0c0.1,0.3,0.1,0.5-0.1,0.6L134,153c-0.1,0.1-0.3,0-0.4-0.2
	S133.6,152.5,133.7,152.4L133.7,152.4z"/>
<path class="st0" d="M140.6,154.6c0-0.1,0.1-0.2,0.2-0.3c0,0,0,0,0,0c0.4,0,0.6,0.3,0.7,0.8c0.6-0.5,1.4-0.8,2.2-0.8
	c2,0,2.4,1.3,2.4,3v3.5c0,0.2-0.1,0.3-0.3,0.3h-0.4c-0.2,0-0.3-0.1-0.3-0.3v0v-3.7c0-1.3-0.4-1.9-1.4-1.9c-0.8,0-1.5,0.4-2.1,0.9
	v4.6c0,0.2-0.1,0.3-0.3,0.3h-0.4c-0.2,0-0.3-0.1-0.3-0.3v0L140.6,154.6z"/>
<path class="st0" d="M184.7,150.6c0.2-0.1,0.3,0,0.4,0.2c0,0,0,0,0,0.1l0.3,0.9c0.1,0.2,0,0.4-0.3,0.4c-0.7,0.2-2.8,1.1-3.3,2.8
	c0.5-0.3,1.1-0.4,1.7-0.4c1.7,0,3,1.3,3,3c0,0.1,0,0.2,0,0.2c0,1.9-1.5,3.4-3.4,3.4c-2.3,0-3.6-1.9-3.6-4.1
	C179.7,152.7,183.4,151.1,184.7,150.6z M185,157.8c0-0.9-0.7-1.7-1.7-1.8c0,0,0,0-0.1,0c-0.8,0-1.5,0.5-1.7,1.3c0,1,0.5,2.2,1.7,2.2
	C184.2,159.6,184.9,158.8,185,157.8C185,157.8,185,157.8,185,157.8z"/>
<path class="st0" d="M194.1,159.5c0.2,0,0.3,0.1,0.3,0.3v1c0,0.2-0.1,0.3-0.3,0.3h-5.9c-0.1,0-0.3-0.1-0.3-0.3c0,0,0,0,0,0v-0.1
	c0-0.1,0-0.2,0.1-0.3c1-1.2,2.8-3.6,3.8-4.8c0.4-0.5,0.7-1,0.8-1.6c0-0.8-0.7-1.4-1.5-1.4c0,0-0.1,0-0.1,0c-0.6,0.1-1.2,0.4-1.7,0.9
	c-0.1,0.1-0.2,0.1-0.4,0c0,0,0,0,0,0l-0.7-0.7c-0.1-0.1-0.1-0.3,0-0.4c0.7-0.9,1.8-1.4,2.9-1.5c1.6-0.2,3.1,1,3.3,2.6
	c0,0.1,0,0.2,0,0.4c-0.1,0.9-0.4,1.7-1,2.4c-0.6,0.9-1.8,2.3-2.5,3.3l0,0L194.1,159.5z"/>
<path class="st0" d="M197.4,158.8c0.7,0,1.3,0.6,1.3,1.7c0,1-0.5,2-1.2,2.6c-0.1,0.1-0.2,0.1-0.3-0.1l-0.4-0.3
	c-0.1-0.1,0-0.2,0.1-0.3c0.4-0.4,0.7-0.8,0.8-1.4c0-0.1,0-0.2,0-0.3c-0.1,0.1-0.3,0.2-0.5,0.1c-0.5,0-0.9-0.4-0.9-0.9c0,0,0,0,0-0.1
	C196.3,159.3,196.8,158.8,197.4,158.8C197.4,158.8,197.4,158.8,197.4,158.8z"/>
<path class="st0" d="M201,160.2c-0.1-0.2,0-0.3,0.3-0.4c0.7-0.2,2.8-1.1,3.3-2.8c-0.5,0.3-1.1,0.4-1.7,0.4c-1.7,0-3.1-1.4-3.1-3.1
	c0-0.1,0-0.1,0-0.2c0-1.9,1.5-3.4,3.4-3.4c2.3,0,3.6,1.9,3.6,4.1c0,4.4-3.7,6-5,6.4c-0.1,0.1-0.3,0-0.4-0.1c0,0,0-0.1,0-0.1
	L201,160.2z M205,154.7c0-1-0.5-2.2-1.7-2.2c-1,0-1.7,0.8-1.7,1.8c0,0.9,0.7,1.7,1.7,1.8C204,156,204.7,155.4,205,154.7L205,154.7z"
	/>
<path class="st0" d="M208.3,156c0-3.3,1.4-5.2,3.8-5.2s3.8,1.9,3.8,5.2s-1.4,5.2-3.8,5.2S208.3,159.2,208.3,156z M213.9,156
	c0-2.2-0.7-3.5-1.9-3.5s-1.8,1.3-1.8,3.5s0.7,3.5,1.9,3.5S213.9,158.2,213.9,156z"/>
<path class="st0" d="M219.2,155.9L219.2,155.9c-0.9-0.5-1.5-1.4-1.5-2.3c0-1.7,1.4-2.7,3.2-2.7s3.3,1.1,3.3,2.7c0,1-0.6,1.9-1.5,2.3
	v0.1c1.1,0.4,1.8,1.4,1.8,2.5c0,1.6-1.4,2.9-3.6,2.9s-3.5-1.2-3.5-2.9C217.4,157.2,218.2,156.3,219.2,155.9z M221,159.7
	c0.8,0.1,1.5-0.5,1.5-1.2c0,0,0-0.1,0-0.1c-0.1-0.8-0.7-1.5-1.6-1.6c-0.8,0.1-1.5,0.8-1.6,1.6c0,0.8,0.6,1.4,1.4,1.4
	C220.8,159.7,220.9,159.7,221,159.7L221,159.7z M222.3,153.6c0-0.7-0.6-1.3-1.3-1.3c0,0-0.1,0-0.1,0c-0.7,0-1.3,0.5-1.3,1.2
	c0,0,0,0.1,0,0.1c0,0.7,0.4,1.2,1.4,1.4C221.9,154.8,222.3,154.2,222.3,153.6L222.3,153.6z"/>
<path class="st0" d="M272.4,155.9L272.4,155.9c-0.9-0.5-1.5-1.4-1.5-2.3c0-1.7,1.4-2.7,3.2-2.7s3.3,1.1,3.3,2.7c0,1-0.6,1.9-1.5,2.3
	v0.1c1.1,0.4,1.8,1.4,1.8,2.5c0,1.6-1.4,2.9-3.6,2.9s-3.5-1.2-3.5-2.9C270.7,157.2,271.4,156.3,272.4,155.9z M274.2,159.7
	c0.8,0.1,1.5-0.5,1.5-1.2c0,0,0-0.1,0-0.1c-0.1-0.8-0.7-1.5-1.5-1.6c-0.8,0.1-1.5,0.8-1.6,1.6c0,0.8,0.6,1.4,1.4,1.4
	C274.1,159.7,274.1,159.7,274.2,159.7L274.2,159.7z M275.5,153.6c0-0.7-0.6-1.3-1.3-1.3c0,0-0.1,0-0.1,0c-0.7,0-1.3,0.5-1.3,1.2
	c0,0,0,0.1,0,0.1c0,0.7,0.4,1.2,1.4,1.4C275.1,154.8,275.5,154.2,275.5,153.6z"/>
<path class="st0" d="M280.2,158.8c0.7-0.1,1.3,0.4,1.3,1.1c0.1,0.7-0.4,1.3-1.1,1.3c-0.1,0-0.1,0-0.2,0c-0.7-0.1-1.2-0.6-1.1-1.3
	C279.2,159.3,279.6,158.9,280.2,158.8z"/>
<path class="st0" d="M283,159.5l0.7-0.7c0.1-0.1,0.3-0.1,0.4,0c0.5,0.5,1.2,0.8,1.9,0.8c0.9,0,1.7-0.8,1.7-1.7c0,0,0,0,0-0.1
	c0-0.9-0.7-1.6-1.6-1.7c-0.1,0-0.1,0-0.2,0h-2.3c-0.3,0-0.5-0.2-0.5-0.5c0,0,0,0,0,0v-4.4c0-0.2,0.1-0.3,0.3-0.3c0,0,0,0,0,0h4.7
	c0.2,0,0.3,0.1,0.3,0.3v1c0,0.2-0.1,0.3-0.3,0.3l0,0h-3.3v2h1.3c1.7-0.1,3.3,1.2,3.4,2.9c0,0.1,0,0.3,0,0.4c0,1.9-1.6,3.5-3.6,3.4
	c0,0,0,0,0,0c-1.1,0-2.2-0.4-3-1.2C282.8,159.7,282.8,159.6,283,159.5z"/>
<path class="st0" d="M312.6,159.5c0.1-0.1,0.2-0.2,0.4-0.3s0.2-0.1,0.4,0c0.5,0.7,1.3,1.1,2.2,1.1c1.3,0,2.4-1.1,2.4-2.4
	c0-1.2-0.9-2.1-2-2.2c-0.1,0-0.2,0-0.3,0h-2.3c-0.3,0-0.5-0.2-0.5-0.5v-3.9c0-0.2,0.1-0.3,0.3-0.3h4.5c0.2,0,0.3,0.1,0.3,0.3v0.4
	c0,0.2-0.1,0.3-0.3,0.3h-3.8v2.7h1.7c2.2,0,3.5,1.2,3.5,3.1c0,1.9-1.5,3.4-3.4,3.4c0,0-0.1,0-0.1,0c-1.1,0.1-2.2-0.4-2.9-1.2
	C312.5,159.7,312.5,159.6,312.6,159.5z"/>
<path class="st0" d="M320.5,151.9c-0.2,0-0.3-0.1-0.3-0.3v-0.4c0-0.2,0.1-0.3,0.3-0.3h6c0.1,0,0.3,0.1,0.3,0.2c0,0,0,0,0,0.1
	c0,0.1,0,0.2-0.1,0.2l-4.3,9.2c-0.1,0.2-0.3,0.4-0.5,0.4h-0.4c-0.2,0-0.3-0.1-0.3-0.3c0-0.1,0-0.3,0.1-0.4l4-8.5l0,0L320.5,151.9z"
	/>
<path class="st0" d="M327.5,159.5c0.7,0,1.1,0.7,1.1,1.6c0,0.8-0.3,1.5-0.9,2c-0.1,0.1-0.1,0.1-0.2,0c0,0,0,0,0,0l-0.2-0.2
	c-0.1-0.1,0-0.2,0-0.3c0.4-0.3,0.6-0.8,0.7-1.3c0-0.1,0-0.2-0.1-0.3c-0.1,0.1-0.3,0.1-0.5,0.1c-0.4,0-0.7-0.3-0.7-0.7c0,0,0,0,0,0
	c-0.1-0.4,0.2-0.8,0.7-0.9C327.4,159.5,327.5,159.5,327.5,159.5z"/>
<path class="st0" d="M330.3,158.8c-0.2,0-0.3-0.1-0.3-0.3v-0.4c0-0.1,0-0.2,0.1-0.3l5.5-6.9c0.1-0.1,0.2-0.2,0.4-0.2h0.2
	c0.2,0,0.3,0.1,0.3,0.3v6.8h1.2c0.1,0,0.3,0.1,0.3,0.3c0,0,0,0,0,0v0.4c0,0.2-0.1,0.3-0.3,0.3h-1.2v2c0,0.2-0.1,0.3-0.3,0.3h-0.5
	c-0.2,0-0.3-0.1-0.3-0.3v-2H330.3z M331.3,157.8L331.3,157.8l4.2,0.1v-5.2l0,0L331.3,157.8z"/>
<path class="st0" d="M339.5,158.8c-0.2,0-0.3-0.1-0.3-0.3v-0.4c0-0.1,0-0.2,0.1-0.3l5.5-6.9c0.1-0.1,0.2-0.2,0.4-0.2h0.2
	c0.2,0,0.3,0.1,0.3,0.3v6.8h1.2c0.1,0,0.3,0.1,0.3,0.2c0,0,0,0,0,0v0.4c0,0.2-0.1,0.3-0.3,0.3h-1.2v2c0,0.2-0.1,0.3-0.3,0.3H345
	c-0.2,0-0.3-0.1-0.3-0.3v-2H339.5z M340.5,157.8L340.5,157.8l4.2,0.1v-5.2l0,0L340.5,157.8z"/>
<path class="st0" d="M348.5,151.9c-0.2,0-0.3-0.1-0.3-0.3v-0.4c0-0.2,0.1-0.3,0.3-0.3h6c0.1,0,0.3,0.1,0.3,0.2c0,0,0,0,0,0.1
	c0,0.1,0,0.2-0.1,0.2l-4.3,9.2c-0.1,0.2-0.3,0.4-0.5,0.4h-0.4c-0.2,0-0.3-0.1-0.3-0.3c0-0.1,0-0.3,0.1-0.4l4-8.5l0,0L348.5,151.9z"
	/>
<path class="st0" d="M403.2,155.8L403.2,155.8c-0.9-0.5-1.5-1.4-1.5-2.4c0-1.6,1.3-2.7,3.1-2.7s3.1,1.1,3.1,2.7c0,1-0.6,1.9-1.5,2.3
	v0.1c1,0.4,1.7,1.4,1.8,2.5c0,1.6-1.2,2.9-3.4,2.9s-3.3-1.3-3.3-2.9C401.5,157.2,402.2,156.3,403.2,155.8z M404.8,160.3
	c1.3,0,2.3-0.7,2.3-1.9c-0.1-1.2-1.2-2.1-2.5-2c-1.1,0.1-1.9,1-2,2C402.5,159.6,403.4,160.3,404.8,160.3L404.8,160.3z M406.8,153.5
	c0-1.1-0.9-2-2-2s-2,0.9-2,2c0,0.9,0.6,1.6,2,1.8C406.1,155.2,406.8,154.4,406.8,153.5L406.8,153.5z"/>
<path class="st0" d="M410.6,159.5c0.5,0,0.9,0.4,0.9,0.8c0,0,0,0,0,0c0.1,0.5-0.3,0.9-0.8,1c-0.5,0.1-0.9-0.3-1-0.8
	c0-0.1,0-0.1,0-0.2C409.7,159.9,410.1,159.5,410.6,159.5C410.6,159.5,410.6,159.5,410.6,159.5z"/>
<path class="st0" d="M418.9,160.1c0.2,0,0.3,0.1,0.3,0.3l0,0v0.4c0,0.2-0.1,0.3-0.3,0.3l0,0h-5.7c-0.2,0-0.3-0.1-0.3-0.3
	c0,0,0,0,0,0v-0.2c0-0.2,0.1-0.3,0.2-0.4c1.2-1.2,2.3-2.5,3.5-3.8c0.8-0.7,1.3-1.7,1.5-2.7c0-1-0.8-1.9-1.9-1.9c-0.1,0-0.2,0-0.2,0
	c-0.8,0.1-1.6,0.5-2.1,1.1c-0.1,0.1-0.3,0.1-0.4,0c0,0,0,0,0,0l-0.3-0.3c-0.1-0.1-0.1-0.3,0-0.4c0.7-0.9,1.7-1.4,2.8-1.5
	c2.1,0,3.2,1.4,3.2,2.9c0,1.3-0.8,2.3-1.9,3.4l-2.8,3l0,0L418.9,160.1z"/>
<path class="st0" d="M468.3,160.8c-0.1-0.2,0-0.3,0.3-0.4c0.7-0.2,3.3-1.6,3.9-3.6c-0.7,0.4-1.5,0.7-2.3,0.7c-1.7,0-3.2-1.4-3.2-3.1
	c0,0,0-0.1,0-0.1c0-1.9,1.4-3.4,3.3-3.4c2.4,0,3.5,1.9,3.5,4.3c0,4-3.4,5.7-4.9,6.3c-0.1,0.1-0.3,0-0.3-0.1c0,0,0,0,0,0L468.3,160.8
	z M472.6,155.5c0-0.2,0.1-0.5,0.1-0.7c0-1.4-0.7-3.1-2.4-3.1c-1.3,0-2.3,1.1-2.2,2.4c0,1.3,1,2.3,2.3,2.3c0,0,0,0,0,0
	C471.2,156.4,472,156.1,472.6,155.5z"/>
<path class="st0" d="M475.5,159.5c0.5,0,0.9,0.4,0.9,0.8c0,0,0,0,0,0c0.1,0.5-0.3,0.9-0.8,1c-0.5,0.1-0.9-0.3-1-0.8
	c0-0.1,0-0.1,0-0.2C474.6,159.9,475,159.5,475.5,159.5C475.4,159.5,475.5,159.5,475.5,159.5z"/>
<path class="st0" d="M478.1,159.5c0.1-0.1,0.2-0.2,0.4-0.3s0.2-0.1,0.4,0c0.5,0.7,1.3,1.1,2.2,1.1c1.3,0,2.4-1.1,2.4-2.4
	c0-1.2-0.9-2.1-2-2.2c-0.1,0-0.2,0-0.3,0h-2.3c-0.3,0-0.5-0.2-0.5-0.5c0,0,0,0,0,0v-3.9c0-0.2,0.1-0.3,0.3-0.3h4.5
	c0.2,0,0.3,0.1,0.3,0.3v0.4c0,0.2-0.1,0.3-0.3,0.3h-3.8v2.7h1.7c2.2,0,3.5,1.2,3.5,3.1c0,1.9-1.5,3.4-3.4,3.4c0,0-0.1,0-0.1,0
	c-1.1,0.1-2.1-0.4-2.8-1.2C478,159.7,478,159.6,478.1,159.5z"/>
<path class="st0" d="M9.5,175.2c0-0.1,0.1-0.3,0.3-0.3c0,0,0,0,0,0h5.7c0.2,0,0.3,0.1,0.3,0.3v0.4c0,0.2-0.1,0.3-0.3,0.3h-4.9v3.5
	h4.2c0.2,0,0.3,0.1,0.3,0.3v0.4c0,0.2-0.1,0.3-0.3,0.3h-4.2v3.7h4.9c0.2,0,0.3,0.1,0.3,0.3v0.4c0,0.2-0.1,0.3-0.3,0.3H9.8
	c-0.1,0-0.3-0.1-0.3-0.3c0,0,0,0,0,0L9.5,175.2z"/>
<path class="st0" d="M23.1,179.9c1,0.3,1.7,1.3,1.7,2.4c0,1.6-1.3,2.8-2.9,2.8c-0.1,0-0.1,0-0.2,0h-3.4c-0.1,0-0.3-0.1-0.3-0.3
	c0,0,0,0,0,0v-9.6c0-0.1,0.1-0.3,0.3-0.3c0,0,0,0,0,0h3.2c1.5-0.1,2.8,1,2.9,2.4c0,0.1,0,0.1,0,0.2C24.5,178.5,24,179.4,23.1,179.9
	L23.1,179.9z M21.7,184.1c1,0.1,1.8-0.7,1.9-1.7c0-0.1,0-0.1,0-0.2c0-1-0.9-1.8-1.9-1.8c0,0-0.1,0-0.1,0h-2.4v3.6L21.7,184.1z
	 M21.4,179.5c1,0.1,1.8-0.6,1.9-1.6c0-0.1,0-0.1,0-0.2c0-0.9-0.7-1.7-1.6-1.8c-0.1,0-0.2,0-0.3,0h-2.2v3.6H21.4z"/>
<path class="st0" d="M27.5,175.2c0-0.2,0.1-0.3,0.3-0.3h0.6c0.2,0,0.3,0.1,0.3,0.3v9.6c0,0.2-0.1,0.3-0.3,0.3h-0.6
	c-0.2,0-0.3-0.1-0.3-0.3V175.2z"/>
<path class="st0" d="M33.4,175.9h-2.5c-0.2,0-0.3-0.1-0.3-0.3v-0.4c0-0.2,0.1-0.3,0.3-0.3h6.1c0.2,0,0.3,0.1,0.3,0.3v0.4
	c0,0.2-0.1,0.3-0.3,0.3h-2.5v8.9c0,0.2-0.1,0.3-0.3,0.3h-0.5c-0.2,0-0.3-0.1-0.3-0.3L33.4,175.9z"/>
<path class="st0" d="M39.4,175.2c0-0.1,0.1-0.3,0.3-0.3h3.3c2.8-0.1,5.2,2,5.3,4.8s-2,5.2-4.8,5.3c-0.2,0-0.3,0-0.5,0h-3.2
	c-0.1,0-0.3-0.1-0.3-0.3L39.4,175.2z M42.8,184.1c2.3,0,4.1-1.8,4.1-4.1s-1.8-4.1-4.1-4.1h-2.3v8.2H42.8z"/>
<path class="st0" d="M49,184.7l4.4-9.8c0-0.1,0.1-0.2,0.2-0.1h0.1c0.1,0,0.2,0.1,0.2,0.1l4.4,9.8c0.1,0.1,0,0.3-0.1,0.4
	c0,0-0.1,0-0.1,0h-0.6c-0.1,0-0.2-0.1-0.2-0.2l-1.1-2.4h-5.1l-1.1,2.4c0,0.1-0.1,0.2-0.2,0.2h-0.6c-0.1,0-0.3-0.1-0.3-0.3
	C49,184.8,49,184.7,49,184.7z M55.9,181.6c-0.7-1.6-1.4-3.2-2.1-4.8h-0.1l-2.1,4.8H55.9z"/>
<path class="st0" d="M186.7,179.9L186.7,179.9c-0.9-0.4-1.5-1.3-1.5-2.3c0-1.7,1.4-2.7,3.2-2.7s3.3,1.1,3.3,2.7c0,1-0.6,1.9-1.5,2.3
	v0.1c1.1,0.4,1.8,1.4,1.8,2.5c0,1.6-1.4,2.9-3.6,2.9s-3.5-1.2-3.5-2.9C185,181.3,185.7,180.3,186.7,179.9z M188.5,183.7
	c0.8,0.1,1.5-0.5,1.6-1.2c0,0,0-0.1,0-0.1c0-0.9-0.7-1.6-1.6-1.6c-0.9,0-1.6,0.7-1.6,1.6c0,0,0,0,0,0c0,0.8,0.6,1.4,1.4,1.4
	C188.4,183.7,188.4,183.7,188.5,183.7L188.5,183.7z M189.8,177.6c0-0.7-0.6-1.3-1.3-1.3c0,0-0.1,0-0.1,0c-0.7,0-1.3,0.5-1.3,1.2
	c0,0,0,0,0,0.1c0,0.7,0.4,1.2,1.4,1.4C189.4,178.8,189.8,178.2,189.8,177.6z"/>
<path class="st0" d="M193.7,177.9c-0.1,0-0.3,0-0.3-0.2c0,0,0,0,0,0l-0.1-0.7c0-0.2,0-0.2,0.1-0.3l1.9-1.6c0.1-0.1,0.3-0.2,0.5-0.2
	h0.8c0.2,0,0.3,0.1,0.3,0.3v9.6c0,0.2-0.1,0.3-0.3,0.3c0,0,0,0,0,0h-1.3c-0.2,0-0.3-0.1-0.3-0.3c0,0,0,0,0,0v-7.1L193.7,177.9z"/>
<path class="st0" d="M200.2,182.8c0.7,0,1.3,0.6,1.3,1.7c0,1-0.4,2-1.2,2.6c-0.1,0.1-0.2,0.1-0.3,0l-0.4-0.4c-0.1-0.1,0-0.2,0.1-0.3
	c0.4-0.4,0.7-0.8,0.8-1.4c0-0.1,0-0.2,0-0.3c-0.1,0.1-0.3,0.1-0.5,0.1c-0.5,0-0.9-0.4-0.9-0.9c0,0,0-0.1,0-0.1
	C199,183.4,199.5,182.8,200.2,182.8C200.1,182.8,200.1,182.8,200.2,182.8z"/>
<path class="st0" d="M209.2,183.5c0.2,0,0.3,0.1,0.3,0.3v1c0,0.2-0.1,0.3-0.3,0.3h-5.9c-0.2,0-0.3-0.1-0.3-0.3c0,0,0,0,0,0v-0.1
	c0-0.1,0-0.2,0.1-0.3c1-1.2,2.8-3.6,3.8-4.8c0.4-0.4,0.7-1,0.8-1.6c0-0.8-0.7-1.4-1.5-1.4c0,0-0.1,0-0.1,0c-0.6,0.1-1.3,0.4-1.7,0.9
	c-0.1,0.1-0.2,0.1-0.4,0c0,0,0,0,0,0l-0.7-0.7c-0.1-0.1-0.1-0.3,0-0.4c0.7-0.9,1.8-1.4,2.9-1.5c1.6-0.2,3.1,1,3.3,2.7
	c0,0.1,0,0.2,0,0.3c-0.1,0.9-0.4,1.7-1,2.4c-0.6,0.9-1.8,2.3-2.5,3.3l0,0L209.2,183.5z"/>
<path class="st0" d="M211.4,177.9c-0.1,0-0.3,0-0.3-0.2c0,0,0,0,0,0L211,177c0-0.2,0-0.2,0.1-0.3l1.9-1.6c0.1-0.1,0.3-0.2,0.5-0.2
	h0.7c0.1,0,0.3,0.1,0.3,0.3c0,0,0,0,0,0v9.6c0,0.1-0.1,0.3-0.2,0.3c0,0,0,0,0,0h-1.3c-0.2,0-0.3-0.1-0.3-0.3c0,0,0,0,0,0v-7.1
	L211.4,177.9z"/>
<path class="st0" d="M216.7,182.9c-0.2,0-0.3-0.1-0.3-0.3v-0.9c0-0.2,0.1-0.4,0.2-0.5l5.1-6.2c0.1-0.1,0.2-0.2,0.4-0.1h0.7
	c0.2,0,0.3,0.1,0.3,0.3v6.3h1.2c0.1,0,0.3,0.1,0.3,0.2c0,0,0,0,0,0v1c0,0.2-0.1,0.3-0.3,0.3h-1.2v1.9c0,0.2-0.1,0.3-0.3,0.3h-1.2
	c-0.2,0-0.3-0.1-0.3-0.3v-1.9H216.7z M221.4,181.4v-3.6l0,0l-2.9,3.6l0,0L221.4,181.4z"/>
<path class="st0" d="M268,177.9c-0.1,0-0.3,0-0.3-0.2c0,0,0,0,0,0l-0.1-0.7c0-0.2,0-0.2,0.1-0.3l1.9-1.6c0.1-0.1,0.3-0.2,0.5-0.2
	h0.8c0.1,0,0.3,0.1,0.3,0.3c0,0,0,0,0,0v9.6c0,0.1-0.1,0.3-0.2,0.3c0,0,0,0,0,0h-1.3c-0.2,0-0.3-0.1-0.3-0.3c0,0,0,0,0,0v-7.1
	L268,177.9z"/>
<path class="st0" d="M273.4,177.9c-0.1,0-0.3,0-0.3-0.2c0,0,0,0,0,0L273,177c0-0.1,0-0.3,0.1-0.3l1.9-1.6c0.1-0.1,0.3-0.2,0.5-0.2
	h0.8c0.2,0,0.3,0.1,0.3,0.3v9.6c0,0.2-0.1,0.3-0.3,0.3c0,0,0,0,0,0H275c-0.2,0-0.3-0.1-0.3-0.3c0,0,0,0,0,0v-7.1L273.4,177.9z"/>
<path class="st0" d="M279.6,182.8c0.7,0,1.2,0.5,1.2,1.2c0,0.7-0.5,1.2-1.2,1.2s-1.2-0.5-1.2-1.2c0,0,0,0,0,0
	C278.4,183.4,279,182.8,279.6,182.8z"/>
<path class="st0" d="M282,180c0-3.3,1.4-5.2,3.8-5.2s3.8,1.9,3.8,5.2s-1.4,5.2-3.8,5.2S282,183.2,282,180z M287.6,180
	c0-2.2-0.7-3.5-1.9-3.5s-1.9,1.3-1.9,3.5s0.7,3.5,1.9,3.5S287.6,182.2,287.6,180L287.6,180z"/>
<path class="st0" d="M312.6,175.9c-0.2,0-0.3-0.1-0.3-0.3v-0.4c0-0.2,0.1-0.3,0.3-0.3h6c0.1,0,0.3,0.1,0.3,0.2c0,0,0,0,0,0.1
	c0,0.1,0,0.2-0.1,0.2l-4.3,9.2c-0.1,0.2-0.3,0.4-0.5,0.4h-0.4c-0.2,0-0.3-0.1-0.3-0.3c0-0.1,0-0.3,0.1-0.4l4-8.5l0,0L312.6,175.9z"
	/>
<path class="st0" d="M320.5,183.5c0.1-0.1,0.2-0.2,0.4-0.3s0.2-0.1,0.4,0c0.5,0.7,1.3,1.1,2.2,1.1c1.3,0,2.4-1.1,2.4-2.4
	c0-1.2-0.9-2.1-2-2.2c-0.1,0-0.2,0-0.3,0h-2.3c-0.3,0-0.5-0.2-0.5-0.5v-3.9c0-0.2,0.1-0.3,0.3-0.3h4.5c0.2,0,0.3,0.1,0.3,0.3v0.4
	c0,0.2-0.1,0.3-0.3,0.3h-3.8v2.7h1.7c2.2,0,3.5,1.2,3.5,3.1c0,1.9-1.5,3.4-3.4,3.4c0,0-0.1,0-0.1,0c-1.1,0.1-2.2-0.4-2.9-1.2
	C320.3,183.7,320.3,183.6,320.5,183.5z"/>
<path class="st0" d="M329.2,183.5c0.7,0,1.1,0.7,1.1,1.6c0,0.8-0.3,1.5-0.9,2c0,0.1-0.1,0.1-0.2,0c0,0,0,0,0,0l-0.2-0.2
	c-0.1-0.1,0-0.2,0-0.3c0.4-0.3,0.6-0.8,0.6-1.3c0-0.1,0-0.2-0.1-0.3c-0.1,0.1-0.3,0.1-0.5,0.1c-0.4,0-0.7-0.3-0.7-0.7c0,0,0,0,0,0
	c-0.1-0.4,0.2-0.8,0.7-0.9C329.1,183.5,329.2,183.5,329.2,183.5z"/>
<path class="st0" d="M332.1,183.5l0.4-0.4c0.1-0.1,0.3-0.1,0.4,0c0,0,0,0,0,0.1c0.6,0.6,1.4,1,2.2,1c1.1,0.1,2.1-0.7,2.1-1.8
	c0,0,0,0,0,0c0-1.1-0.8-1.9-2.6-1.9h-0.8c-0.2,0-0.3-0.1-0.3-0.3v-0.4c0-0.2,0.1-0.3,0.3-0.3h0.8c1.6,0,2.4-0.8,2.4-1.8
	c0-1-0.8-1.9-1.8-1.9c-0.1,0-0.1,0-0.2,0c-0.8,0-1.5,0.4-2,1c-0.1,0.1-0.2,0.1-0.3,0c0,0,0,0,0,0l-0.4-0.3c-0.1-0.1-0.1-0.3,0-0.4
	c0.7-0.8,1.7-1.3,2.7-1.3c1.8,0,3.1,1,3.1,2.7c0,1-0.6,1.9-1.5,2.4v0.1c1,0.4,1.7,1.3,1.8,2.4c0,1.7-1.2,2.9-3.3,2.9
	c-1.1,0-2.3-0.4-3-1.3C331.9,183.7,332,183.6,332.1,183.5C332.1,183.5,332.1,183.5,332.1,183.5z"/>
<path class="st0" d="M342,179.8L342,179.8c-0.9-0.5-1.5-1.4-1.5-2.4c0-1.7,1.3-2.7,3.1-2.7s3.1,1,3.1,2.7c0,1-0.6,1.9-1.5,2.3v0.1
	c1,0.4,1.7,1.4,1.8,2.5c0,1.6-1.2,2.9-3.4,2.9s-3.3-1.3-3.3-2.9C340.3,181.2,341,180.3,342,179.8z M343.6,184.3
	c1.3,0,2.3-0.7,2.3-1.9c-0.1-1.2-1.2-2.1-2.5-2c-1.1,0.1-1.9,1-2,2C341.4,183.6,342.2,184.3,343.6,184.3L343.6,184.3z M345.6,177.5
	c0-1-0.8-1.9-1.9-1.9c0,0-0.1,0-0.1,0c-1-0.1-1.9,0.7-2,1.7c0,0.1,0,0.1,0,0.2c0,0.9,0.6,1.6,2,1.8
	C345,179.2,345.6,178.4,345.6,177.5L345.6,177.5z"/>
<path class="st0" d="M348.5,175.9c-0.2,0-0.3-0.1-0.3-0.3v-0.4c0-0.2,0.1-0.3,0.3-0.3h6c0.1,0,0.3,0.1,0.3,0.2c0,0,0,0,0,0.1
	c0,0.1,0,0.2-0.1,0.2l-4.3,9.2c-0.1,0.2-0.3,0.4-0.5,0.4h-0.4c-0.2,0-0.3-0.1-0.3-0.3c0-0.1,0-0.3,0.1-0.4l4-8.5l0,0L348.5,175.9z"
	/>
<path class="st0" d="M397.4,177.6c-0.1,0.1-0.2,0.1-0.3,0c0,0,0,0,0,0l-0.3-0.3c-0.1-0.1-0.1-0.2,0-0.3l2-1.9
	c0.1-0.1,0.1-0.1,0.2-0.1h0.3c0.2,0,0.3,0.1,0.3,0.3v9.6c0,0.2-0.1,0.3-0.3,0.3h-0.5c-0.2,0-0.3-0.1-0.3-0.3l0,0v-8l0,0L397.4,177.6
	z"/>
<path class="st0" d="M402,180c0-3.3,1.3-5.2,3.6-5.2s3.6,1.9,3.6,5.2s-1.3,5.2-3.6,5.2S402,183.2,402,180z M408.1,180
	c0-2.7-0.9-4.2-2.5-4.2s-2.5,1.5-2.5,4.2s0.9,4.2,2.5,4.2S408.1,182.7,408.1,180z"/>
<path class="st0" d="M411.1,183.5c0.5,0,0.9,0.4,0.9,0.8c0,0,0,0,0,0c0,0.5-0.4,0.9-0.9,0.9c0,0,0,0,0,0c-0.5,0-0.9-0.4-0.9-0.9
	c0,0,0,0,0,0C410.3,183.9,410.7,183.5,411.1,183.5C411.1,183.5,411.1,183.5,411.1,183.5z"/>
<path class="st0" d="M413.5,175.9c-0.2,0-0.3-0.1-0.3-0.3v-0.4c0-0.2,0.1-0.3,0.3-0.3h6c0.1,0,0.3,0.1,0.3,0.2c0,0,0,0,0,0.1
	c0,0.1,0,0.2-0.1,0.2l-4.3,9.2c-0.1,0.2-0.3,0.4-0.5,0.4h-0.4c-0.2,0-0.3-0.1-0.3-0.3c0-0.1,0-0.3,0.1-0.4l4-8.5l0,0L413.5,175.9z"
	/>
<path class="st0" d="M469.4,175.9c-0.2,0-0.3-0.1-0.3-0.3v-0.4c0-0.2,0.1-0.3,0.3-0.3h6c0.1,0,0.3,0.1,0.3,0.2c0,0,0,0,0,0.1
	c0,0.1,0,0.2-0.1,0.2l-4.3,9.2c-0.1,0.2-0.3,0.4-0.5,0.4h-0.4c-0.2,0-0.3-0.1-0.3-0.3c0-0.1,0-0.3,0.1-0.4l4-8.5l0,0L469.4,175.9z"
	/>
<path class="st0" d="M476.2,183.5c0.5,0,0.9,0.4,0.9,0.8c0,0,0,0,0,0c0.1,0.5-0.3,0.9-0.8,1c-0.5,0.1-0.9-0.3-1-0.8
	c0-0.1,0-0.1,0-0.2C475.3,183.9,475.7,183.5,476.2,183.5C476.2,183.5,476.2,183.5,476.2,183.5z"/>
<path class="st0" d="M478.5,175.9c-0.2,0-0.3-0.1-0.3-0.3v-0.4c0-0.2,0.1-0.3,0.3-0.3h6c0.1,0,0.3,0.1,0.3,0.2c0,0,0,0,0,0.1
	c0,0.1,0,0.2-0.1,0.2l-4.3,9.2c-0.1,0.2-0.3,0.4-0.5,0.4h-0.4c-0.2,0-0.3-0.1-0.3-0.3c0-0.1,0-0.3,0.1-0.4l4-8.5l0,0L478.5,175.9z"
	/>
<path class="st0" d="M9.4,199.2c0-0.2,0.1-0.3,0.3-0.3h0.5c0.1,0,0.3,0.1,0.3,0.3l0,0v6.1c0,1.5,1.2,2.7,2.7,2.7s2.7-1.2,2.7-2.7
	c0,0,0,0,0,0v-6.1c0-0.2,0.1-0.3,0.3-0.3h0.5c0.1,0,0.3,0.1,0.3,0.3v6.2c0.1,2-1.5,3.8-3.5,3.9c-0.1,0-0.2,0-0.3,0
	c-2,0.1-3.7-1.5-3.8-3.5c0-0.1,0-0.2,0-0.3L9.4,199.2z"/>
<path class="st0" d="M19.2,203.3c-0.2,0-0.3-0.1-0.3-0.3c0,0,0,0,0,0v-0.3c0-0.2,0.1-0.3,0.3-0.3c0,0,0,0,0,0h0.9v-1.9
	c0-0.2,0.1-0.3,0.3-0.3h0.5c0.2,0,0.3,0.1,0.3,0.3c0,0,0,0,0,0v1.9h2c0.2,0,0.3,0.1,0.3,0.3c0,0,0,0,0,0v0.3c0,0.2-0.2,0.3-0.3,0.3
	h-2v4c-0.1,0.5,0.3,0.9,0.8,1c0,0,0.1,0,0.1,0c0.4,0,0.7-0.1,1-0.3c0.3-0.2,0.4,0,0.4,0.1l0.1,0.3c0.1,0.2,0.1,0.3-0.1,0.4
	c-0.5,0.3-1,0.4-1.6,0.4c-1,0-1.8-0.8-1.8-1.8c0-0.1,0-0.1,0-0.2v-4L19.2,203.3z"/>
<path class="st0" d="M25.2,199.9c0-0.4,0.3-0.8,0.8-0.8c0.4,0,0.8,0.3,0.8,0.8c0,0.4-0.3,0.8-0.8,0.8c0,0,0,0,0,0
	C25.6,200.6,25.2,200.3,25.2,199.9z M25.5,202.7c0-0.2,0.1-0.3,0.3-0.3h0.4c0.2,0,0.3,0.1,0.3,0.3v6.1c0,0.2-0.1,0.3-0.3,0.3h-0.4
	c-0.2,0-0.3-0.1-0.3-0.3c0,0,0,0,0,0L25.5,202.7z"/>
<path class="st0" d="M29.1,199.2c0-0.2,0.1-0.3,0.3-0.3h0.4c0.2,0,0.3,0.1,0.3,0.3v9.5c0,0.2-0.1,0.3-0.3,0.3h-0.4
	c-0.2,0-0.3-0.1-0.3-0.3V199.2z"/>
<path class="st0" d="M32.6,199.9c0-0.4,0.3-0.8,0.7-0.8c0,0,0,0,0,0c0.4,0,0.8,0.3,0.9,0.7c0,0.4-0.3,0.8-0.7,0.9
	c-0.1,0-0.1,0-0.2,0C32.9,200.6,32.6,200.3,32.6,199.9z M32.8,202.7c0-0.2,0.1-0.3,0.3-0.3h0.4c0.2,0,0.3,0.1,0.3,0.3v6.1
	c0,0.2-0.1,0.3-0.3,0.3h-0.4c-0.2,0-0.3-0.1-0.3-0.3V202.7z"/>
<path class="st0" d="M39.2,202.2c0.6,0,1.3,0.1,1.9,0.4v-3.4c0-0.2,0.1-0.3,0.3-0.3h0.4c0.2,0,0.3,0.1,0.3,0.3v9.6
	c0,0.1-0.1,0.2-0.2,0.3c0,0,0,0,0,0c-0.4,0-0.7-0.3-0.7-0.8c-0.6,0.5-1.3,0.8-2.1,0.9c-1.8-0.1-3.1-1.7-3-3.5
	C36,203.7,37.2,202.2,39.2,202.2z M39.2,208.2c0.8,0,1.5-0.4,1.9-1.1v-3.6c-0.5-0.2-1.1-0.4-1.7-0.4c-1.3,0-2.3,1.1-2.3,2.3
	c0,0.1,0,0.1,0,0.2C37,207,37.9,208.1,39.2,208.2L39.2,208.2z"/>
<path class="st0" d="M46.8,204.8c0.5,0,1,0.1,1.4,0.2c0-1.2-0.6-1.8-1.5-1.8c-0.5,0-1.1,0.2-1.5,0.4c-0.2,0.1-0.3,0-0.3-0.2
	l-0.2-0.4c-0.1-0.2,0-0.3,0.2-0.4c0.6-0.3,1.2-0.4,1.9-0.4c1.7,0,2.5,1,2.5,2.8v3.8c0,0.1-0.1,0.2-0.2,0.3c0,0,0,0,0,0
	c-0.4,0-0.7-0.3-0.7-0.8c-0.6,0.6-1.3,0.9-2.1,0.9c-1.1,0-2-0.9-2-2c0-0.1,0-0.2,0-0.2C44.2,205.8,45.1,204.8,46.8,204.8z
	 M46.4,208.2c0.7,0,1.4-0.3,1.8-0.9V206c-0.5-0.2-0.9-0.3-1.4-0.3c-0.9,0-1.6,0.4-1.6,1.3C45.2,207.7,45.7,208.2,46.4,208.2
	C46.4,208.2,46.4,208.2,46.4,208.2L46.4,208.2z"/>
<path class="st0" d="M54.5,202.2c0.6,0,1.3,0.1,1.9,0.4v-3.4c0-0.2,0.1-0.3,0.3-0.3h0.4c0.2,0,0.3,0.1,0.3,0.3v9.6
	c0,0.1-0.1,0.3-0.2,0.3c0,0,0,0,0,0c-0.4,0-0.7-0.3-0.7-0.8c-0.6,0.5-1.3,0.8-2.1,0.9c-1.8-0.1-3.1-1.7-3-3.5
	C51.4,203.7,52.5,202.2,54.5,202.2z M54.5,208.2c0.8,0,1.5-0.4,1.9-1.1v-3.6c-0.5-0.2-1.1-0.4-1.7-0.4c-1.3,0-2.3,1.1-2.3,2.3
	c0,0.1,0,0.1,0,0.2C52.4,206.9,53.3,208.1,54.5,208.2L54.5,208.2z"/>
<path class="st0" d="M63.8,202.6c0-0.1,0.1-0.3,0.2-0.3c0,0,0,0,0,0c0.4,0,0.7,0.3,0.7,0.8c0.6-0.5,1.4-0.8,2.2-0.8
	c1.9,0,2.4,1.3,2.4,3v3.5c0,0.2-0.1,0.3-0.3,0.3h-0.4c-0.2,0-0.3-0.1-0.3-0.3c0,0,0,0,0,0v-3.7c0-1.3-0.4-1.9-1.4-1.9
	c-0.8,0-1.5,0.4-2.1,0.9v4.6c0,0.2-0.1,0.3-0.3,0.3h-0.4c-0.2,0-0.3-0.1-0.3-0.3V202.6z"/>
<path class="st0" d="M74.7,202.2c1.7,0,3,1.3,3,3c0,0.1,0,0.3,0,0.4c0,0.2-0.1,0.3-0.3,0.3h-4.9c0,1.2,1,2.2,2.2,2.3
	c0.6,0,1.3-0.2,1.8-0.6c0.2-0.2,0.3-0.2,0.5,0.1l0.2,0.3c0.1,0.2,0.2,0.3,0,0.5c-0.7,0.5-1.6,0.8-2.4,0.8c-1.9-0.1-3.4-1.8-3.2-3.8
	C71.7,203.7,73,202.4,74.7,202.2L74.7,202.2z M76.7,205.1c0-1.1-0.9-1.9-2-1.9c-1.1,0-2,0.8-2.2,1.9H76.7z"/>
<path class="st0" d="M79.3,203.3c-0.2,0-0.3-0.1-0.3-0.3c0,0,0,0,0,0v-0.3c0-0.2,0.1-0.3,0.3-0.3c0,0,0,0,0,0h0.9v-1.9
	c0-0.2,0.1-0.3,0.3-0.3H81c0.2,0,0.3,0.1,0.3,0.3c0,0,0,0,0,0v1.9h2c0.2,0,0.3,0.1,0.3,0.3c0,0,0,0,0,0v0.3c0,0.2-0.1,0.3-0.3,0.3
	c0,0,0,0,0,0h-2v4c-0.1,0.5,0.3,0.9,0.8,1c0,0,0.1,0,0.1,0c0.4,0,0.7-0.1,1-0.3c0.3-0.2,0.4,0,0.4,0.1l0.1,0.3
	c0.1,0.2,0.1,0.3-0.1,0.4c-0.5,0.3-1,0.4-1.6,0.4c-1,0-1.8-0.8-1.8-1.8c0-0.1,0-0.1,0-0.2v-4L79.3,203.3z"/>
<path class="st0" d="M87.7,204.8c0.5,0,1,0.1,1.5,0.2c0-1.2-0.6-1.8-1.5-1.8c-0.5,0-1.1,0.2-1.6,0.4c-0.2,0.1-0.3,0-0.3-0.2
	l-0.2-0.4c-0.1-0.2,0-0.3,0.2-0.4c0.6-0.3,1.2-0.4,1.9-0.4c1.7,0,2.5,1,2.5,2.8v3.8c0,0.1-0.1,0.2-0.2,0.3c0,0,0,0,0,0
	c-0.4,0-0.7-0.3-0.7-0.8c-0.6,0.6-1.3,0.9-2.1,0.9c-1.1,0-2-0.8-2.1-1.9c0-0.1,0-0.2,0-0.3C85,205.8,86,204.8,87.7,204.8z
	 M87.3,208.2c0.7,0,1.4-0.3,1.8-0.9V206c-0.5-0.2-0.9-0.3-1.4-0.3c-0.9,0-1.6,0.4-1.6,1.3C86.1,207.7,86.6,208.2,87.3,208.2
	C87.3,208.2,87.3,208.2,87.3,208.2L87.3,208.2z"/>
<path class="st0" d="M181.7,206.9c-0.2,0-0.3-0.1-0.3-0.3v-0.9c0-0.2,0.1-0.4,0.2-0.5l5.1-6.2c0.1-0.1,0.2-0.2,0.4-0.2h0.7
	c0.2,0,0.3,0.1,0.3,0.3v6.3h1.2c0.1,0,0.3,0.1,0.3,0.2c0,0,0,0,0,0v1c0,0.2-0.1,0.3-0.3,0.3c0,0,0,0,0,0h-1.2v1.9
	c0,0.2-0.1,0.3-0.3,0.3h-1.2c-0.2,0-0.3-0.1-0.3-0.3v-1.9L181.7,206.9z M186.4,205.4v-3.6l0,0l-2.9,3.6l0,0L186.4,205.4z"/>
<path class="st0" d="M191.2,206.9c-0.2,0-0.3-0.1-0.3-0.3v-0.9c0-0.2,0.1-0.4,0.2-0.5l5.1-6.2c0.1-0.1,0.2-0.2,0.4-0.2h0.7
	c0.2,0,0.3,0.1,0.3,0.3v6.3h1.2c0.1,0,0.3,0.1,0.3,0.2c0,0,0,0,0,0v1c0,0.2-0.1,0.3-0.3,0.3c0,0,0,0,0,0h-1.2v1.9
	c0,0.2-0.1,0.3-0.3,0.3h-1.2c-0.2,0-0.3-0.1-0.3-0.3v-1.9L191.2,206.9z M195.9,205.4v-3.6l0,0l-2.9,3.6l0,0L195.9,205.4z"/>
<path class="st0" d="M201.7,206.8c0.7,0,1.3,0.6,1.3,1.7c0,1-0.4,2-1.2,2.6c-0.1,0.1-0.2,0.1-0.3,0l-0.4-0.4c-0.1-0.1,0-0.2,0.1-0.3
	c0.4-0.4,0.7-0.8,0.8-1.4c0-0.1,0-0.2,0-0.3c-0.1,0.1-0.3,0.2-0.5,0.1c-0.5,0-0.9-0.4-0.9-0.9c0,0,0-0.1,0-0.1
	C200.5,207.4,201,206.8,201.7,206.8C201.6,206.8,201.6,206.8,201.7,206.8z"/>
<path class="st0" d="M204.1,201.9c-0.1,0-0.3,0-0.3-0.2c0,0,0,0,0,0l-0.1-0.7c0-0.1,0-0.3,0.1-0.3l1.9-1.6c0.1-0.1,0.3-0.2,0.5-0.2
	h0.8c0.1,0,0.3,0.1,0.3,0.3c0,0,0,0,0,0v9.6c0,0.1-0.1,0.3-0.2,0.3c0,0,0,0,0,0h-1.3c-0.2,0-0.3-0.1-0.3-0.3c0,0,0,0,0,0v-7.1
	L204.1,201.9z"/>
<path class="st0" d="M209.3,207.5l0.8-0.7c0.1-0.1,0.3-0.1,0.4,0c0,0,0,0,0,0c0.5,0.5,1.1,0.8,1.8,0.8c0.8,0.1,1.5-0.5,1.6-1.3
	c0,0,0-0.1,0-0.1c0-1-0.7-1.5-2.1-1.5H211c-0.1,0-0.3-0.1-0.3-0.2c0,0,0,0,0,0v-0.9c0-0.2,0.1-0.3,0.3-0.3h0.8
	c1.2,0,1.9-0.6,1.9-1.4c0-0.8-0.7-1.4-1.4-1.4c0,0,0,0,0,0c-0.6,0-1.1,0.3-1.5,0.7c-0.1,0.1-0.3,0.1-0.4,0c0,0,0,0,0,0l-0.7-0.7
	c-0.1-0.1-0.1-0.3,0-0.4c0,0,0,0,0,0c0.7-0.8,1.7-1.3,2.8-1.3c1.7,0,3.2,1.1,3.2,2.7c0,1-0.6,1.9-1.5,2.3v0.1c1,0.4,1.8,1.3,1.8,2.4
	c0,1.7-1.4,2.9-3.4,2.9c-1.2,0-2.3-0.4-3.1-1.3C209.2,207.8,209.2,207.6,209.3,207.5z"/>
<path class="st0" d="M219.2,203.9L219.2,203.9c-0.9-0.5-1.5-1.4-1.5-2.3c0-1.7,1.4-2.7,3.2-2.7s3.3,1.1,3.3,2.7c0,1-0.6,1.9-1.5,2.3
	v0.1c1.1,0.4,1.8,1.4,1.8,2.5c0,1.6-1.4,2.9-3.6,2.9s-3.5-1.2-3.5-2.9C217.5,205.2,218.2,204.2,219.2,203.9z M221,207.7
	c0.8,0.1,1.5-0.5,1.6-1.2c0,0,0-0.1,0-0.1c0-0.9-0.7-1.6-1.6-1.6c-0.9,0-1.6,0.7-1.6,1.6c0,0,0,0,0,0c0,0.8,0.6,1.4,1.4,1.4
	C220.8,207.7,220.9,207.7,221,207.7L221,207.7z M222.3,201.6c0-0.7-0.6-1.3-1.3-1.3c0,0-0.1,0-0.1,0c-0.7,0-1.3,0.5-1.3,1.2
	c0,0,0,0.1,0,0.1c0,0.7,0.4,1.2,1.4,1.4C221.9,202.8,222.3,202.2,222.3,201.6L222.3,201.6z"/>
<path class="st0" d="M275.5,198.6c0.2-0.1,0.4,0,0.4,0.2l0.4,0.9c0.1,0.2,0,0.4-0.3,0.4c-0.7,0.2-2.8,1.1-3.3,2.8
	c0.5-0.3,1.1-0.4,1.7-0.4c1.7,0,3,1.3,3,3c0,0.1,0,0.2,0,0.2c0,1.9-1.5,3.4-3.4,3.4c-2.3,0-3.5-1.9-3.5-4.1
	C270.5,200.7,274.2,199.1,275.5,198.6z M275.8,205.8c0-0.9-0.7-1.7-1.7-1.7c0,0,0,0,0,0c-0.8,0-1.5,0.5-1.7,1.3c0,1,0.5,2.2,1.7,2.2
	C275,207.5,275.7,206.8,275.8,205.8C275.8,205.8,275.8,205.8,275.8,205.8z"/>
<path class="st0" d="M279.6,206.8c0.7,0,1.2,0.5,1.2,1.2c0,0.7-0.5,1.2-1.2,1.2c0,0,0,0,0,0c-0.7,0-1.2-0.5-1.2-1.2
	C278.4,207.3,279,206.8,279.6,206.8C279.6,206.8,279.6,206.8,279.6,206.8z"/>
<path class="st0" d="M282,204c0-3.3,1.4-5.2,3.8-5.2s3.8,2,3.8,5.2s-1.4,5.2-3.8,5.2S282,207.2,282,204z M287.6,204
	c0-2.2-0.7-3.5-1.9-3.5s-1.9,1.3-1.9,3.5s0.7,3.5,1.9,3.5S287.6,206.2,287.6,204z"/>
<path class="st0" d="M310.8,207.5l0.4-0.4c0.1-0.1,0.3-0.1,0.4,0c0,0,0,0,0,0.1c0.6,0.6,1.4,1,2.2,1c1.1,0.1,2.1-0.7,2.1-1.8
	c0,0,0,0,0,0c0-1.1-0.8-1.9-2.6-1.9h-0.8c-0.2,0-0.3-0.1-0.3-0.3v-0.4c0-0.2,0.1-0.3,0.3-0.3h0.8c1.6,0,2.4-0.8,2.4-1.8
	c0-1-0.8-1.9-1.8-1.9c-0.1,0-0.1,0-0.2,0c-0.8,0-1.5,0.4-2,1c-0.1,0.1-0.2,0.1-0.3,0c0,0,0,0,0,0l-0.4-0.3c-0.1-0.1-0.1-0.3,0-0.4
	c0.7-0.8,1.7-1.3,2.7-1.3c1.8,0,3.1,1.1,3.1,2.7c0,1-0.6,1.9-1.5,2.4l0,0c1,0.4,1.7,1.3,1.8,2.4c0,1.7-1.2,2.9-3.3,2.9
	c-1.1,0-2.3-0.4-3-1.3C310.6,207.7,310.7,207.6,310.8,207.5z"/>
<path class="st0" d="M318.9,207.5l0.4-0.4c0.1-0.1,0.3-0.1,0.4,0c0,0,0,0,0,0.1c0.6,0.6,1.4,1,2.2,1c1.1,0.1,2.1-0.7,2.1-1.8
	c0,0,0,0,0,0c0-1.1-0.8-1.9-2.6-1.9h-0.8c-0.2,0-0.3-0.1-0.3-0.3v-0.4c0-0.2,0.1-0.3,0.3-0.3h0.8c1.6,0,2.4-0.8,2.4-1.8
	c0-1-0.8-1.9-1.8-1.9c-0.1,0-0.1,0-0.2,0c-0.8,0-1.5,0.4-2,1c-0.1,0.1-0.2,0.1-0.3,0c0,0,0,0,0,0l-0.4-0.3c-0.1-0.1-0.1-0.3,0-0.4
	c0.7-0.8,1.7-1.3,2.7-1.3c1.8,0,3.1,1.1,3.1,2.7c0,1-0.6,1.9-1.5,2.4l0,0c1,0.4,1.7,1.3,1.8,2.4c0,1.7-1.2,2.9-3.3,2.9
	c-1.1,0-2.3-0.4-3-1.3C318.8,207.7,318.8,207.6,318.9,207.5z"/>
<path class="st0" d="M327.6,207.5c0.7,0,1.1,0.7,1.1,1.6c0,0.8-0.3,1.5-0.9,2c-0.1,0.1-0.1,0.1-0.2,0c0,0,0,0,0,0l-0.2-0.2
	c-0.1-0.1-0.1-0.2,0-0.3c0,0,0,0,0,0c0.4-0.3,0.6-0.8,0.7-1.3c0-0.1,0-0.2-0.1-0.3c-0.1,0.1-0.3,0.1-0.5,0.1c-0.4,0-0.7-0.3-0.7-0.7
	c0,0,0,0,0,0c-0.1-0.4,0.3-0.8,0.7-0.9C327.6,207.5,327.6,207.5,327.6,207.5z"/>
<path class="st0" d="M330.5,206.8c-0.2,0-0.3-0.1-0.3-0.3v-0.4c0-0.1,0-0.2,0.1-0.3l5.5-6.9c0.1-0.1,0.2-0.2,0.4-0.2h0.2
	c0.2,0,0.3,0.1,0.3,0.3v6.8h1.2c0.1,0,0.3,0.1,0.3,0.2c0,0,0,0,0,0v0.4c0,0.2-0.1,0.3-0.3,0.3h-1.2v2c0,0.2-0.1,0.3-0.3,0.3h-0.5
	c-0.2,0-0.3-0.1-0.3-0.3v-2H330.5z M331.5,205.8L331.5,205.8l4.2,0.1v-5.2l0,0L331.5,205.8z"/>
<path class="st0" d="M339.8,207.5l0.4-0.4c0.1-0.1,0.3-0.1,0.4,0c0,0,0,0,0,0.1c0.6,0.6,1.4,1,2.2,1c1.1,0.1,2.1-0.7,2.1-1.8
	c0,0,0,0,0,0c0-1.1-0.8-1.9-2.6-1.9h-0.8c-0.2,0-0.3-0.1-0.3-0.3v-0.4c0-0.2,0.1-0.3,0.3-0.3h0.8c1.6,0,2.4-0.8,2.4-1.8
	c0-1-0.8-1.9-1.8-1.9c-0.1,0-0.1,0-0.2,0c-0.8,0-1.5,0.4-2,1c-0.1,0.1-0.2,0.1-0.3,0c0,0,0,0,0,0l-0.4-0.3c-0.1-0.1-0.1-0.3,0-0.4
	c0.7-0.8,1.7-1.3,2.7-1.3c1.8,0,3.1,1.1,3.1,2.7c0,1-0.6,1.9-1.6,2.4l0,0c1,0.4,1.7,1.3,1.8,2.4c0,1.7-1.2,2.9-3.3,2.9
	c-1.1,0-2.3-0.4-3-1.3C339.7,207.7,339.7,207.6,339.8,207.5z"/>
<path class="st0" d="M348.1,207.5c0.1-0.1,0.2-0.2,0.4-0.3s0.2-0.1,0.4,0c0.5,0.7,1.3,1.1,2.2,1.1c1.3,0,2.4-1.1,2.3-2.4
	c0-1.2-0.9-2.1-2-2.2c-0.1,0-0.2,0-0.3,0h-2.3c-0.3,0-0.5-0.3-0.5-0.5v-3.9c0-0.2,0.1-0.3,0.3-0.3h4.5c0.2,0,0.3,0.1,0.3,0.3v0.4
	c0,0.2-0.1,0.3-0.3,0.3h-3.8v2.7h1.7c2.2,0,3.5,1.2,3.5,3.1c0,1.9-1.5,3.4-3.4,3.4c0,0-0.1,0-0.1,0c-1.1,0.1-2.1-0.4-2.9-1.2
	C348,207.7,348,207.6,348.1,207.5z"/>
<path class="st0" d="M401.2,206.8c-0.2,0-0.3-0.1-0.3-0.3v-0.4c0-0.1,0-0.2,0.1-0.3l5.5-6.9c0.1-0.1,0.2-0.2,0.3-0.2h0.2
	c0.2,0,0.3,0.1,0.3,0.3v6.8h1.3c0.1,0,0.3,0.1,0.3,0.2c0,0,0,0,0,0v0.4c0,0.2-0.1,0.3-0.3,0.3h-1.2v2c0,0.2-0.1,0.3-0.3,0.3h-0.5
	c-0.2,0-0.3-0.1-0.3-0.3v-2H401.2z M402.1,205.8L402.1,205.8l4.2,0.1v-5.2l0,0L402.1,205.8z"/>
<path class="st0" d="M410.8,207.5c0.5,0,0.9,0.4,0.9,0.8c0,0,0,0,0,0c0,0.5-0.4,0.9-0.9,0.9c0,0,0,0,0,0c-0.5,0-0.9-0.4-0.9-0.9
	c0,0,0,0,0,0C410,207.9,410.4,207.5,410.8,207.5C410.8,207.5,410.8,207.5,410.8,207.5z"/>
<path class="st0" d="M414.8,203.8L414.8,203.8c-0.9-0.5-1.5-1.4-1.5-2.4c0-1.6,1.3-2.7,3.1-2.7s3.1,1.1,3.1,2.7c0,1-0.6,1.9-1.5,2.3
	v0.1c1,0.4,1.7,1.4,1.8,2.5c0,1.6-1.2,2.9-3.4,2.9s-3.3-1.3-3.3-2.9C413.1,205.2,413.8,204.3,414.8,203.8z M416.3,208.3
	c1.3,0,2.3-0.7,2.3-1.9c-0.1-1.2-1.2-2.1-2.5-2c-1.1,0.1-1.9,1-2,2C414.1,207.6,415,208.3,416.3,208.3L416.3,208.3z M418.3,201.5
	c0-1-0.8-1.9-1.9-1.9c0,0-0.1,0-0.1,0c-1-0.1-1.9,0.7-2,1.7c0,0.1,0,0.1,0,0.2c0,0.9,0.6,1.6,2,1.8
	C417.7,203.2,418.4,202.4,418.3,201.5L418.3,201.5z"/>
<path class="st0" d="M458.1,207.5l0.4-0.4c0.1-0.1,0.3-0.1,0.4,0c0,0,0,0,0,0.1c0.6,0.6,1.4,1,2.2,1c1.1,0.1,2-0.7,2.1-1.7
	c0-0.1,0-0.1,0-0.2c0-1.1-0.8-1.9-2.6-1.9h-0.9c-0.2,0-0.3-0.1-0.3-0.3v-0.4c0-0.2,0.1-0.3,0.3-0.3h0.8c1.6,0,2.4-0.8,2.4-1.8
	c0-1-0.8-1.9-1.8-1.9c-0.1,0-0.1,0-0.2,0c-0.8,0-1.5,0.4-2,1c-0.1,0.1-0.2,0.1-0.3,0c0,0,0,0,0,0l-0.4-0.3c-0.1-0.1-0.1-0.3,0-0.4
	c0,0,0,0,0,0c0.7-0.8,1.7-1.3,2.7-1.3c1.8,0,3.1,1.1,3.1,2.7c0,1-0.6,1.9-1.5,2.4l0,0c1,0.4,1.7,1.3,1.8,2.4c0,1.7-1.2,2.9-3.3,2.9
	c-1.1,0-2.3-0.4-3-1.3C457.9,207.7,458,207.6,458.1,207.5z"/>
<path class="st0" d="M472,208.1c0.2,0,0.3,0.1,0.3,0.3l0,0v0.4c0,0.2-0.1,0.3-0.3,0.3l0,0h-5.7c-0.2,0-0.3-0.1-0.3-0.3c0,0,0,0,0,0
	v-0.2c0-0.2,0.1-0.3,0.2-0.4c1.2-1.2,2.3-2.5,3.5-3.8c0.8-0.7,1.3-1.7,1.5-2.7c0-1-0.8-1.9-1.9-1.9c-0.1,0-0.2,0-0.2,0
	c-0.8,0.1-1.6,0.5-2.1,1.1c-0.1,0.1-0.3,0.1-0.4,0l-0.3-0.3c-0.1-0.1-0.1-0.3,0-0.4c0.7-0.9,1.7-1.4,2.8-1.5c2.1,0,3.2,1.4,3.2,2.9
	c0,1.3-0.8,2.3-1.9,3.4l-2.8,3l0,0L472,208.1z"/>
<path class="st0" d="M474.9,207.5c0.5,0,0.9,0.4,0.9,0.8c0,0,0,0,0,0c0.1,0.5-0.3,0.9-0.8,1c-0.5,0.1-0.9-0.3-1-0.8
	c0-0.1,0-0.1,0-0.2C474,207.9,474.4,207.5,474.9,207.5C474.9,207.5,474.9,207.5,474.9,207.5z"/>
<path class="st0" d="M477.1,204c0-3.3,1.3-5.2,3.6-5.2s3.6,2,3.6,5.2s-1.3,5.2-3.6,5.2S477.1,207.2,477.1,204z M483.2,204
	c0-2.7-0.9-4.2-2.5-4.2s-2.5,1.5-2.5,4.2s0.9,4.2,2.5,4.2S483.2,206.7,483.2,204L483.2,204z"/>
</svg>
