<svg id="Capa_1" data-name="Capa 1" xmlns="http://www.w3.org/2000/svg" viewBox="0 0 413.44 451.91"><defs><style>.cls-1{fill:#4a5b6d;}.cls-2{fill:#80ba27;}.cls-3{fill:#fbb800;}.cls-4{fill:#a5bcd0;}.cls-5{fill:#0078bf;}.cls-6{fill:#a0c755;}.cls-7{fill:#b7c9d9;}.cls-8{fill:#fdc648;}</style></defs><path class="cls-1" d="M64.53,25.74a2.28,2.28,0,0,1,1.54,2.1,2.53,2.53,0,0,1-2.74,2.51H60.27A.25.25,0,0,1,60,30.1V21.5a.25.25,0,0,1,.24-.25h2.88a2.43,2.43,0,0,1,2.64,2.39,2.4,2.4,0,0,1-1.26,2.07Zm-1.27,3.74A1.6,1.6,0,0,0,65,27.83a1.66,1.66,0,0,0-1.77-1.6H61v3.25ZM63,25.33a1.58,1.58,0,0,0,1.7-1.62A1.52,1.52,0,0,0,63,22.15H61v3.18Z" transform="translate(-20.7 -17.05)"/><path class="cls-1" d="M70.52,24.21a3.14,3.14,0,1,1-3,3.12A3.1,3.1,0,0,1,70.52,24.21Zm0,5.41a2.16,2.16,0,0,0,2-2.29,2.07,2.07,0,1,0-4.12,0A2.17,2.17,0,0,0,70.52,29.62Z" transform="translate(-20.7 -17.05)"/><path class="cls-1" d="M77.65,24.21a3.71,3.71,0,0,1,1.67.38V21.54a.3.3,0,0,1,.28-.29H80a.31.31,0,0,1,.3.29v8.63a.22.22,0,0,1-.24.23c-.37,0-.58-.28-.63-.67a3,3,0,0,1-1.9.76,3,3,0,0,1-2.69-3.16A2.83,2.83,0,0,1,77.65,24.21Zm0,5.41a2.23,2.23,0,0,0,1.7-1V25.42a4,4,0,0,0-1.53-.33,2.06,2.06,0,0,0-2,2.26A2.08,2.08,0,0,0,77.62,29.62Z" transform="translate(-20.7 -17.05)"/><path class="cls-1" d="M84.83,24.21a2.65,2.65,0,0,1,2.72,2.73,2.22,2.22,0,0,1,0,.37.28.28,0,0,1-.27.26H82.88a2.11,2.11,0,0,0,2,2.05,2.8,2.8,0,0,0,1.63-.49c.21-.14.3-.2.45,0l.16.22c.12.18.17.25,0,.42a3.77,3.77,0,0,1-2.2.68,2.91,2.91,0,0,1-2.91-3.14A2.93,2.93,0,0,1,84.83,24.21Zm1.76,2.59a1.76,1.76,0,0,0-1.76-1.71,2,2,0,0,0-1.94,1.71Z" transform="translate(-20.7 -17.05)"/><path class="cls-1" d="M94.22,30.39a2.49,2.49,0,0,1-2.63,2.81,3.41,3.41,0,0,1-2.09-.78.29.29,0,0,1-.07-.35l.26-.38c.09-.14.25-.14.39,0a2.42,2.42,0,0,0,1.51.63c1,0,1.68-.52,1.68-1.92V30a2.86,2.86,0,0,1-4.51-2.61,2.94,2.94,0,0,1,2.81-3.14,3,3,0,0,1,1.8.63.62.62,0,0,1,.61-.55.22.22,0,0,1,.24.24Zm-2.49-.78a3,3,0,0,0,1.53-.49V25.83a2.26,2.26,0,0,0-1.59-.73,2.06,2.06,0,0,0-1.94,2.23A2.11,2.11,0,0,0,91.73,29.61Z" transform="translate(-20.7 -17.05)"/><path class="cls-1" d="M98.18,26.54a5.05,5.05,0,0,1,1.29.2c0-1.11-.52-1.65-1.38-1.65a3.66,3.66,0,0,0-1.39.35c-.16.06-.23,0-.29-.16l-.13-.35c0-.18,0-.26.19-.33a3.84,3.84,0,0,1,1.67-.39c1.54,0,2.25.91,2.25,2.53v3.43a.22.22,0,0,1-.23.23c-.39,0-.6-.3-.64-.7a2.59,2.59,0,0,1-1.88.79,1.82,1.82,0,0,1-1.86-2C95.78,27.39,96.64,26.54,98.18,26.54Zm-.37,3.08a2.08,2.08,0,0,0,1.65-.8V27.59a3.21,3.21,0,0,0-1.28-.23c-.83,0-1.45.4-1.45,1.17A1,1,0,0,0,97.81,29.62Z" transform="translate(-20.7 -17.05)"/><path class="cls-1" d="M102,29.77a.21.21,0,0,1,0-.26l.18-.34c.08-.15.18-.2.35-.08a2.44,2.44,0,0,0,1.5.53c.61,0,1-.28,1-.75s-.46-.81-1.34-1.24-1.7-.82-1.7-1.84a1.66,1.66,0,0,1,1.86-1.58,3.16,3.16,0,0,1,1.72.47.29.29,0,0,1,.06.41l-.13.24a.29.29,0,0,1-.41.11,2.35,2.35,0,0,0-1.24-.35c-.66,0-.88.37-.88.66,0,.53.41.73,1.14,1.06,1,.49,1.94.88,1.94,2a1.84,1.84,0,0,1-2,1.71A3,3,0,0,1,102,29.77Z" transform="translate(-20.7 -17.05)"/><path class="cls-1" d="M111.14,33.08l1.13-2.68-2.22-5.73c-.08-.2,0-.33.23-.33h.55a.28.28,0,0,1,.26.17l1.7,4.78h0l2-4.78a.28.28,0,0,1,.26-.17h.48c.23,0,.32.15.23.34l-3.75,8.58a.34.34,0,0,1-.26.19h-.42A.25.25,0,0,1,111.14,33.08Z" transform="translate(-20.7 -17.05)"/><path class="cls-1" d="M119.9,25.18a.28.28,0,0,1-.29-.29v-.26a.27.27,0,0,1,.29-.29h.8V22.68a.31.31,0,0,1,.28-.29l.41,0a.27.27,0,0,1,.27.28v1.69h1.77a.29.29,0,0,1,.3.29v.26a.29.29,0,0,1-.3.29h-1.77v3.55a.79.79,0,0,0,.81.89,1.78,1.78,0,0,0,.92-.26c.23-.14.32,0,.38.12l.1.26c.08.2,0,.3-.1.39a3,3,0,0,1-1.42.36,1.65,1.65,0,0,1-1.65-1.76V25.18Z" transform="translate(-20.7 -17.05)"/><path class="cls-1" d="M125,22.1a.7.7,0,0,1,.7-.73.72.72,0,1,1-.7.73Zm.25,2.53a.3.3,0,0,1,.28-.29h.39a.32.32,0,0,1,.29.29v5.43a.3.3,0,0,1-.29.29h-.39a.29.29,0,0,1-.28-.29Z" transform="translate(-20.7 -17.05)"/><path class="cls-1" d="M130.67,24.21a2.65,2.65,0,0,1,2.72,2.73c0,.11,0,.27,0,.37a.28.28,0,0,1-.27.26h-4.37a2.11,2.11,0,0,0,2,2.05,2.83,2.83,0,0,0,1.63-.49c.2-.14.3-.2.45,0l.16.22c.11.18.17.25,0,.42a3.77,3.77,0,0,1-2.2.68,2.91,2.91,0,0,1-2.91-3.14A2.93,2.93,0,0,1,130.67,24.21Zm1.75,2.59a1.74,1.74,0,0,0-1.75-1.71,2,2,0,0,0-1.94,1.71Z" transform="translate(-20.7 -17.05)"/><path class="cls-1" d="M135,24.53a.22.22,0,0,1,.23-.24c.38,0,.59.29.63.68a3.08,3.08,0,0,1,2-.76c1.74,0,2.17,1.14,2.17,2.68v3.17a.3.3,0,0,1-.28.29h-.39a.29.29,0,0,1-.29-.29v-3.3c0-1.14-.39-1.67-1.27-1.67a2.65,2.65,0,0,0-1.85.83v4.14a.3.3,0,0,1-.29.29h-.39a.29.29,0,0,1-.28-.29Z" transform="translate(-20.7 -17.05)"/><path class="cls-1" d="M144.44,24.21a3.7,3.7,0,0,1,1.66.38V21.54a.3.3,0,0,1,.29-.29h.36a.31.31,0,0,1,.3.29v8.63a.22.22,0,0,1-.24.23c-.37,0-.58-.28-.63-.67a3,3,0,0,1-1.9.76,3,3,0,0,1-2.69-3.16A2.84,2.84,0,0,1,144.44,24.21Zm0,5.41a2.21,2.21,0,0,0,1.7-1V25.42a4,4,0,0,0-1.53-.33,2.06,2.06,0,0,0-2,2.26A2.08,2.08,0,0,0,144.4,29.62Z" transform="translate(-20.7 -17.05)"/><path class="cls-1" d="M151,26.54a5.05,5.05,0,0,1,1.29.2c0-1.11-.52-1.65-1.38-1.65a3.66,3.66,0,0,0-1.39.35c-.15.06-.23,0-.28-.16l-.13-.35c-.06-.18,0-.26.18-.33a3.84,3.84,0,0,1,1.67-.39c1.54,0,2.25.91,2.25,2.53v3.43a.22.22,0,0,1-.23.23c-.39,0-.6-.3-.64-.7a2.59,2.59,0,0,1-1.88.79,1.82,1.82,0,0,1-1.86-2C148.61,27.39,149.47,26.54,151,26.54Zm-.37,3.08a2.08,2.08,0,0,0,1.65-.8V27.59a3.21,3.21,0,0,0-1.28-.23c-.83,0-1.45.4-1.45,1.17A1,1,0,0,0,150.64,29.62Z" transform="translate(-20.7 -17.05)"/><path class="cls-1" d="M154.81,29.77a.21.21,0,0,1,0-.26l.18-.34c.08-.15.18-.2.35-.08a2.44,2.44,0,0,0,1.5.53c.61,0,1-.28,1-.75s-.47-.81-1.34-1.24-1.71-.82-1.71-1.84a1.66,1.66,0,0,1,1.86-1.58,3.16,3.16,0,0,1,1.72.47.29.29,0,0,1,.06.41l-.13.24a.29.29,0,0,1-.41.11,2.35,2.35,0,0,0-1.24-.35c-.66,0-.88.37-.88.66,0,.53.41.73,1.14,1.06,1,.49,1.94.88,1.94,2a1.84,1.84,0,0,1-2,1.71A3,3,0,0,1,154.81,29.77Z" transform="translate(-20.7 -17.05)"/><path class="cls-1" d="M166,24.21a3.64,3.64,0,0,1,1.66.38V21.54a.3.3,0,0,1,.29-.29h.36a.31.31,0,0,1,.3.29v8.63a.22.22,0,0,1-.23.23c-.38,0-.59-.28-.64-.67a3,3,0,0,1-1.9.76,3,3,0,0,1-2.69-3.16A2.84,2.84,0,0,1,166,24.21Zm0,5.41a2.21,2.21,0,0,0,1.7-1V25.42a4,4,0,0,0-1.53-.33,2.05,2.05,0,0,0-2,2.26A2.08,2.08,0,0,0,166,29.62Z" transform="translate(-20.7 -17.05)"/><path class="cls-1" d="M173.17,24.21a2.64,2.64,0,0,1,2.71,2.73c0,.11,0,.27,0,.37a.3.3,0,0,1-.28.26h-4.37a2.12,2.12,0,0,0,2,2.05,2.79,2.79,0,0,0,1.62-.49c.21-.14.3-.2.46,0l.15.22c.12.18.17.25,0,.42a3.7,3.7,0,0,1-2.19.68,2.92,2.92,0,0,1-2.92-3.14A2.93,2.93,0,0,1,173.17,24.21Zm1.75,2.59a1.76,1.76,0,0,0-1.75-1.71,2,2,0,0,0-1.94,1.71Z" transform="translate(-20.7 -17.05)"/><path class="cls-1" d="M62.26,39.81a3.71,3.71,0,0,1,1.67.38v-3a.3.3,0,0,1,.28-.29h.37a.31.31,0,0,1,.3.29v8.63a.22.22,0,0,1-.24.23c-.37,0-.58-.28-.63-.67a3,3,0,0,1-1.9.76,2.94,2.94,0,0,1-2.69-3.15A2.84,2.84,0,0,1,62.26,39.81Zm0,5.41a2.24,2.24,0,0,0,1.71-1V41a4,4,0,0,0-1.54-.33,2.06,2.06,0,0,0-2,2.26A2.08,2.08,0,0,0,62.22,45.22Z" transform="translate(-20.7 -17.05)"/><path class="cls-1" d="M69.43,39.81a2.64,2.64,0,0,1,2.71,2.73c0,.11,0,.27,0,.37a.3.3,0,0,1-.28.26H67.48a2.11,2.11,0,0,0,2,2,2.77,2.77,0,0,0,1.62-.49c.21-.14.3-.2.46,0l.16.22c.11.18.16.25-.06.42a3.7,3.7,0,0,1-2.19.68,3.15,3.15,0,0,1,0-6.28Zm1.75,2.59a1.75,1.75,0,0,0-1.75-1.71,2,2,0,0,0-1.94,1.71Z" transform="translate(-20.7 -17.05)"/><path class="cls-1" d="M73.37,45.37a.2.2,0,0,1,0-.26l.18-.34c.08-.15.18-.2.35-.08a2.44,2.44,0,0,0,1.49.53c.62,0,1-.28,1-.75s-.47-.81-1.34-1.24-1.7-.81-1.7-1.84a1.66,1.66,0,0,1,1.86-1.58,3.18,3.18,0,0,1,1.71.47.3.3,0,0,1,.07.41l-.13.24a.3.3,0,0,1-.42.11,2.31,2.31,0,0,0-1.23-.35c-.66,0-.89.37-.89.66,0,.53.42.73,1.15,1.07,1,.48,1.94.87,1.94,2a1.84,1.84,0,0,1-2.05,1.71A3,3,0,0,1,73.37,45.37Z" transform="translate(-20.7 -17.05)"/><path class="cls-1" d="M81.58,39.81a2.83,2.83,0,0,1,2.19,1,.29.29,0,0,1-.06.43l-.2.2c-.2.17-.32,0-.43-.09a1.87,1.87,0,0,0-1.51-.65,2.28,2.28,0,0,0,0,4.53,2,2,0,0,0,1.64-.85c.17-.2.34-.15.5,0l.08.08a.31.31,0,0,1,.08.42,2.75,2.75,0,0,1-2.26,1.2,3,3,0,0,1-3-3.13A3,3,0,0,1,81.58,39.81Z" transform="translate(-20.7 -17.05)"/><path class="cls-1" d="M85.25,40.23a.29.29,0,0,1,.28-.29h.39a.3.3,0,0,1,.29.29v3.25c0,1.2.39,1.74,1.26,1.74a2.21,2.21,0,0,0,1.7-.87V40.23a.29.29,0,0,1,.28-.29h.4a.3.3,0,0,1,.27.29v5.54a.22.22,0,0,1-.23.23c-.39,0-.6-.28-.64-.69a2.41,2.41,0,0,1-1.86.78c-1.73,0-2.14-1-2.14-2.62Z" transform="translate(-20.7 -17.05)"/><path class="cls-1" d="M94.69,39.81a2.64,2.64,0,0,1,2.71,2.73c0,.11,0,.27,0,.37a.3.3,0,0,1-.28.26H92.73a2.12,2.12,0,0,0,2,2,2.79,2.79,0,0,0,1.62-.49c.21-.14.3-.2.46,0l.15.22c.12.18.17.25-.05.42a3.7,3.7,0,0,1-2.19.68A2.92,2.92,0,0,1,91.77,43,2.93,2.93,0,0,1,94.69,39.81Zm1.75,2.59a1.76,1.76,0,0,0-1.75-1.71,2,2,0,0,0-1.94,1.71Z" transform="translate(-20.7 -17.05)"/><path class="cls-1" d="M99,40.13a.22.22,0,0,1,.24-.24c.37,0,.58.29.62.68a3.1,3.1,0,0,1,2-.76c1.75,0,2.18,1.14,2.18,2.68v3.18a.3.3,0,0,1-.29.28h-.39a.29.29,0,0,1-.29-.28V42.36c0-1.14-.39-1.67-1.27-1.67a2.65,2.65,0,0,0-1.85.83v4.15a.29.29,0,0,1-.28.28h-.39a.29.29,0,0,1-.29-.28Z" transform="translate(-20.7 -17.05)"/><path class="cls-1" d="M105.41,40.78a.29.29,0,0,1-.3-.29v-.26a.28.28,0,0,1,.3-.29h.79V38.28a.3.3,0,0,1,.29-.28l.4,0a.27.27,0,0,1,.28.28v1.69h1.76a.29.29,0,0,1,.3.29v.26a.29.29,0,0,1-.3.29h-1.76v3.55a.79.79,0,0,0,.8.89,1.75,1.75,0,0,0,.92-.26c.24-.14.33,0,.38.12l.11.26c.07.2.05.3-.11.39a3,3,0,0,1-1.42.36,1.65,1.65,0,0,1-1.65-1.76V40.78Z" transform="translate(-20.7 -17.05)"/><path class="cls-1" d="M113.14,39.81a3.14,3.14,0,1,1-3,3.13A3.1,3.1,0,0,1,113.14,39.81Zm0,5.41a2.28,2.28,0,1,0-2.06-2.28A2.16,2.16,0,0,0,113.14,45.22Z" transform="translate(-20.7 -17.05)"/><path class="cls-1" d="M117.37,45.37a.21.21,0,0,1,0-.26l.18-.34c.08-.15.18-.2.35-.08a2.44,2.44,0,0,0,1.5.53c.61,0,1-.28,1-.75s-.47-.81-1.34-1.24-1.71-.81-1.71-1.84a1.66,1.66,0,0,1,1.86-1.58,3.25,3.25,0,0,1,1.72.47.29.29,0,0,1,.06.41l-.13.24a.29.29,0,0,1-.41.11,2.35,2.35,0,0,0-1.24-.35c-.66,0-.88.37-.88.66,0,.53.41.73,1.14,1.07,1,.48,1.94.87,1.94,2a1.84,1.84,0,0,1-2,1.71A3,3,0,0,1,117.37,45.37Z" transform="translate(-20.7 -17.05)"/><path class="cls-1" d="M60,60.94a.25.25,0,0,1,.24-.25h.51a.25.25,0,0,1,.25.25v3.8h5.28v-3.8a.25.25,0,0,1,.24-.25h.51a.26.26,0,0,1,.25.25v8.61a.25.25,0,0,1-.25.24h-.51a.24.24,0,0,1-.24-.24V65.61H61v3.94a.25.25,0,0,1-.25.24h-.51a.24.24,0,0,1-.24-.24Z" transform="translate(-20.7 -17.05)"/><path class="cls-1" d="M69.3,61.54a.71.71,0,1,1,.7.7A.7.7,0,0,1,69.3,61.54Zm.24,2.53a.3.3,0,0,1,.29-.28h.39a.31.31,0,0,1,.29.28v5.44a.3.3,0,0,1-.29.28h-.39a.29.29,0,0,1-.29-.28Z" transform="translate(-20.7 -17.05)"/><path class="cls-1" d="M73.43,72.6a.3.3,0,0,1-.29.29h-.37a.29.29,0,0,1-.29-.29V64a.22.22,0,0,1,.24-.23.6.6,0,0,1,.59.54,3,3,0,0,1,1.82-.62,3.16,3.16,0,0,1,0,6.28,3,3,0,0,1-1.66-.5Zm0-4a2.84,2.84,0,0,0,1.52.52,2.1,2.1,0,0,0,2-2.29A2.06,2.06,0,0,0,75,64.53a2.26,2.26,0,0,0-1.59.73Z" transform="translate(-20.7 -17.05)"/><path class="cls-1" d="M82.13,63.66a2.63,2.63,0,0,1,2.71,2.73c0,.1,0,.26,0,.36a.27.27,0,0,1-.27.26H80.18a2.11,2.11,0,0,0,2,2.06,2.83,2.83,0,0,0,1.63-.5c.2-.14.29-.19.45,0l.16.22c.11.18.17.25-.06.42a3.7,3.7,0,0,1-2.19.69,3.15,3.15,0,0,1,0-6.28Zm1.75,2.58a1.75,1.75,0,0,0-1.75-1.71,2,2,0,0,0-1.94,1.71Z" transform="translate(-20.7 -17.05)"/><path class="cls-1" d="M86.4,64a.22.22,0,0,1,.24-.23c.38,0,.58.28.62.67a2.48,2.48,0,0,1,1.85-.75c.45,0,1.19.06,1,.48l-.17.47c-.06.19-.21.2-.35.14a1.42,1.42,0,0,0-.65-.17,1.88,1.88,0,0,0-1.62.77v4.16a.3.3,0,0,1-.29.28h-.39a.29.29,0,0,1-.29-.28Z" transform="translate(-20.7 -17.05)"/><path class="cls-1" d="M91.42,64a.22.22,0,0,1,.24-.23c.37,0,.58.28.62.67a2.62,2.62,0,0,1,1.86-.75,1.83,1.83,0,0,1,1.77,1,3.28,3.28,0,0,1,2.14-1c1.74,0,2.16,1.13,2.16,2.68v3.17a.29.29,0,0,1-.29.28h-.39a.29.29,0,0,1-.28-.28V66.34c0-1.12-.37-1.81-1.28-1.81a2.52,2.52,0,0,0-1.74.82,6,6,0,0,1,.08,1v3.17a.29.29,0,0,1-.29.28h-.39a.29.29,0,0,1-.28-.28V66.34c0-1.15-.38-1.81-1.35-1.81a2,2,0,0,0-1.62.83v4.15a.29.29,0,0,1-.28.28h-.39a.29.29,0,0,1-.29-.28Z" transform="translate(-20.7 -17.05)"/><path class="cls-1" d="M104.72,63.66a2.64,2.64,0,0,1,2.72,2.73,2.19,2.19,0,0,1,0,.36.27.27,0,0,1-.27.26h-4.37a2.12,2.12,0,0,0,2,2.06,2.8,2.8,0,0,0,1.63-.5c.21-.14.3-.19.45,0l.16.22c.12.18.17.25,0,.42a3.76,3.76,0,0,1-2.2.69,3.15,3.15,0,0,1,0-6.28Zm1.76,2.58a1.76,1.76,0,0,0-1.76-1.71,2,2,0,0,0-1.94,1.71Z" transform="translate(-20.7 -17.05)"/><path class="cls-1" d="M109,64a.22.22,0,0,1,.23-.23c.38,0,.59.28.63.67a2.46,2.46,0,0,1,1.84-.75c.46,0,1.2.06,1,.48l-.16.47c-.07.19-.21.2-.36.14a1.42,1.42,0,0,0-.65-.17,1.9,1.9,0,0,0-1.62.77v4.16a.3.3,0,0,1-.29.28h-.39a.29.29,0,0,1-.28-.28Z" transform="translate(-20.7 -17.05)"/><path class="cls-1" d="M116.46,63.66a2.78,2.78,0,0,1,2.18,1,.28.28,0,0,1,0,.42l-.21.2c-.19.17-.31,0-.43-.09a1.84,1.84,0,0,0-1.5-.65,2.28,2.28,0,0,0,0,4.54,2,2,0,0,0,1.64-.86c.16-.2.33-.15.5,0l.08.08a.31.31,0,0,1,.08.42,2.77,2.77,0,0,1-2.26,1.21,3,3,0,0,1-3-3.14A3,3,0,0,1,116.46,63.66Z" transform="translate(-20.7 -17.05)"/><path class="cls-1" d="M122.31,66a5.05,5.05,0,0,1,1.29.2c0-1.11-.52-1.65-1.38-1.65a3.66,3.66,0,0,0-1.39.35c-.16.06-.24,0-.29-.16l-.13-.35c0-.18,0-.26.18-.32a3.89,3.89,0,0,1,1.68-.39c1.53,0,2.25.91,2.25,2.52v3.43a.22.22,0,0,1-.23.24c-.39,0-.6-.3-.64-.71a2.59,2.59,0,0,1-1.89.8,1.83,1.83,0,0,1-1.86-2C119.9,66.83,120.76,66,122.31,66Zm-.38,3.09a2.09,2.09,0,0,0,1.65-.81V67a2.91,2.91,0,0,0-1.27-.24c-.83,0-1.46.41-1.46,1.17A1.05,1.05,0,0,0,121.93,69.07Z" transform="translate(-20.7 -17.05)"/><path class="cls-1" d="M129,63.66a3.79,3.79,0,0,1,1.67.37V61a.3.3,0,0,1,.28-.29h.37a.32.32,0,0,1,.3.29v8.63a.23.23,0,0,1-.24.24c-.38,0-.58-.29-.64-.68a3,3,0,0,1-1.89.77,3,3,0,0,1-2.69-3.16A2.83,2.83,0,0,1,129,63.66Zm0,5.41a2.24,2.24,0,0,0,1.71-1V64.87a4,4,0,0,0-1.54-.34,2.06,2.06,0,0,0-2,2.26A2.09,2.09,0,0,0,128.91,69.07Z" transform="translate(-20.7 -17.05)"/><path class="cls-1" d="M136.21,63.66a3.14,3.14,0,1,1-3,3.12A3.09,3.09,0,0,1,136.21,63.66Zm0,5.41a2.28,2.28,0,1,0-2.07-2.29A2.16,2.16,0,0,0,136.21,69.07Z" transform="translate(-20.7 -17.05)"/><path class="cls-1" d="M140.43,69.21a.22.22,0,0,1,0-.26l.18-.34a.22.22,0,0,1,.36-.08,2.37,2.37,0,0,0,1.49.54c.61,0,1-.29,1-.76s-.47-.8-1.34-1.23-1.7-.82-1.7-1.85a1.65,1.65,0,0,1,1.85-1.57,3.26,3.26,0,0,1,1.72.46.3.3,0,0,1,.07.41l-.13.25a.3.3,0,0,1-.42.1,2.35,2.35,0,0,0-1.24-.35c-.66,0-.88.38-.88.66,0,.53.42.73,1.14,1.07,1,.48,1.94.87,1.94,2a1.84,1.84,0,0,1-2,1.72A3,3,0,0,1,140.43,69.21Z" transform="translate(-20.7 -17.05)"/><rect class="cls-2" x="7.05" width="18.44" height="18.44"/><rect class="cls-3" x="7.05" y="39.18" width="18.44" height="18.44"/><path class="cls-1" d="M267,21.12a4.6,4.6,0,0,1,3.15,1.21.25.25,0,0,1,0,.36l-.35.35c-.1.13-.21.12-.34,0a3.8,3.8,0,0,0-2.48-1,3.74,3.74,0,0,0,0,7.47,3.5,3.5,0,0,0,2.48-1,.22.22,0,0,1,.34,0l.3.3a.25.25,0,0,1,0,.35,4.62,4.62,0,0,1-7.79-3.41A4.68,4.68,0,0,1,267,21.12Z" transform="translate(-20.7 -17.05)"/><path class="cls-1" d="M271.67,21.54a.3.3,0,0,1,.29-.29h.39a.3.3,0,0,1,.28.29v8.52a.3.3,0,0,1-.28.29H272a.29.29,0,0,1-.29-.29Z" transform="translate(-20.7 -17.05)"/><path class="cls-1" d="M274.6,24.63a.29.29,0,0,1,.28-.29h.39a.3.3,0,0,1,.29.29v3.25c0,1.2.39,1.74,1.26,1.74a2.21,2.21,0,0,0,1.7-.87V24.63a.29.29,0,0,1,.28-.29h.4a.3.3,0,0,1,.27.29v5.54a.22.22,0,0,1-.23.23c-.39,0-.6-.28-.64-.69a2.41,2.41,0,0,1-1.86.78c-1.73,0-2.14-1-2.14-2.62Z" transform="translate(-20.7 -17.05)"/><path class="cls-1" d="M281.46,21.54a.29.29,0,0,1,.27-.29h.39a.3.3,0,0,1,.29.29v3.05a3.59,3.59,0,0,1,1.66-.38,2.83,2.83,0,0,1,2.84,3.12,2.94,2.94,0,0,1-2.69,3.16,2.65,2.65,0,0,1-1.9-.76c0,.39-.25.67-.63.67a.22.22,0,0,1-.23-.23Zm1,7.09a2.2,2.2,0,0,0,1.7,1,2.08,2.08,0,0,0,1.82-2.27,2,2,0,0,0-2-2.26,3.58,3.58,0,0,0-1.52.37Z" transform="translate(-20.7 -17.05)"/><path class="cls-1" d="M291.13,24.21a2.64,2.64,0,0,1,2.72,2.73,2.22,2.22,0,0,1,0,.37.28.28,0,0,1-.27.26h-4.37a2.11,2.11,0,0,0,2,2.05,2.79,2.79,0,0,0,1.62-.49c.21-.14.3-.2.46,0l.15.22c.12.18.17.25-.05.42a3.74,3.74,0,0,1-2.2.68,2.91,2.91,0,0,1-2.91-3.14A2.93,2.93,0,0,1,291.13,24.21Zm1.76,2.59a1.76,1.76,0,0,0-1.76-1.71,2,2,0,0,0-1.94,1.71Z" transform="translate(-20.7 -17.05)"/><path class="cls-1" d="M295.07,29.77a.22.22,0,0,1,0-.26l.18-.34c.08-.15.19-.2.35-.08a2.44,2.44,0,0,0,1.5.53c.61,0,1-.28,1-.75s-.47-.81-1.34-1.24S295,26.81,295,25.79a1.66,1.66,0,0,1,1.86-1.58,3.16,3.16,0,0,1,1.72.47.3.3,0,0,1,.07.41l-.14.24a.29.29,0,0,1-.41.11,2.35,2.35,0,0,0-1.24-.35c-.66,0-.88.37-.88.66,0,.53.42.73,1.14,1.06,1,.49,1.94.88,1.94,2a1.84,1.84,0,0,1-2,1.71A3,3,0,0,1,295.07,29.77Z" transform="translate(-20.7 -17.05)"/><path class="cls-1" d="M306.25,24.21a3.64,3.64,0,0,1,1.66.38V21.54a.3.3,0,0,1,.29-.29h.36a.31.31,0,0,1,.3.29v8.63a.22.22,0,0,1-.23.23c-.38,0-.59-.28-.64-.67a3,3,0,0,1-1.9.76,3,3,0,0,1-2.69-3.16A2.84,2.84,0,0,1,306.25,24.21Zm0,5.41a2.21,2.21,0,0,0,1.7-1V25.42a4,4,0,0,0-1.53-.33,2.05,2.05,0,0,0-2,2.26A2.08,2.08,0,0,0,306.21,29.62Z" transform="translate(-20.7 -17.05)"/><path class="cls-1" d="M313.43,24.21a2.64,2.64,0,0,1,2.71,2.73c0,.11,0,.27,0,.37a.3.3,0,0,1-.28.26h-4.36a2.11,2.11,0,0,0,2,2.05,2.77,2.77,0,0,0,1.62-.49c.21-.14.3-.2.46,0l.16.22c.11.18.16.25-.06.42a3.7,3.7,0,0,1-2.19.68,2.92,2.92,0,0,1-2.92-3.14A2.93,2.93,0,0,1,313.43,24.21Zm1.75,2.59a1.75,1.75,0,0,0-1.75-1.71,2,2,0,0,0-1.94,1.71Z" transform="translate(-20.7 -17.05)"/><path class="cls-1" d="M321.79,33.16a.3.3,0,0,1-.29.29h-.38a.29.29,0,0,1-.28-.29V24.53a.22.22,0,0,1,.23-.24.61.61,0,0,1,.6.55,3,3,0,0,1,1.82-.63,2.93,2.93,0,0,1,2.79,3.14,2.93,2.93,0,0,1-2.83,3.14,3,3,0,0,1-1.66-.49Zm0-4.06a2.8,2.8,0,0,0,1.52.52,2.1,2.1,0,0,0,2-2.29,2.06,2.06,0,0,0-1.94-2.24,2.26,2.26,0,0,0-1.58.72Z" transform="translate(-20.7 -17.05)"/><path class="cls-1" d="M327.93,24.53a.23.23,0,0,1,.24-.24c.38,0,.58.29.62.68a2.48,2.48,0,0,1,1.85-.76c.45,0,1.19.07,1.05.49l-.17.46a.23.23,0,0,1-.35.15,1.42,1.42,0,0,0-.65-.17,1.88,1.88,0,0,0-1.62.76v4.16a.3.3,0,0,1-.29.29h-.39a.29.29,0,0,1-.29-.29Z" transform="translate(-20.7 -17.05)"/><path class="cls-1" d="M335.31,24.21A2.64,2.64,0,0,1,338,26.94c0,.11,0,.27,0,.37a.3.3,0,0,1-.28.26h-4.37a2.12,2.12,0,0,0,2,2.05,2.79,2.79,0,0,0,1.62-.49c.21-.14.3-.2.46,0l.15.22c.12.18.17.25-.05.42a3.7,3.7,0,0,1-2.19.68,2.92,2.92,0,0,1-2.92-3.14A2.93,2.93,0,0,1,335.31,24.21Zm1.75,2.59a1.76,1.76,0,0,0-1.75-1.71,2,2,0,0,0-1.94,1.71Z" transform="translate(-20.7 -17.05)"/><path class="cls-1" d="M342.27,24.21a2.83,2.83,0,0,1,2.19,1,.3.3,0,0,1,0,.43l-.21.2c-.2.17-.31,0-.43-.09a1.87,1.87,0,0,0-1.51-.65,2.28,2.28,0,0,0,0,4.53,2,2,0,0,0,1.64-.85c.17-.2.34-.15.51,0l.07.08c.13.13.19.26.08.42a2.75,2.75,0,0,1-2.26,1.2,3,3,0,0,1-3-3.13A3,3,0,0,1,342.27,24.21Z" transform="translate(-20.7 -17.05)"/><path class="cls-1" d="M345.78,22.1a.71.71,0,1,1,.71.7A.71.71,0,0,1,345.78,22.1Zm.25,2.53a.3.3,0,0,1,.29-.29h.39a.31.31,0,0,1,.28.29v5.43a.3.3,0,0,1-.28.29h-.39a.29.29,0,0,1-.29-.29Z" transform="translate(-20.7 -17.05)"/><path class="cls-1" d="M351.57,24.21a3.14,3.14,0,1,1-3,3.12A3.1,3.1,0,0,1,351.57,24.21Zm0,5.41a2.16,2.16,0,0,0,2.05-2.29,2.07,2.07,0,1,0-4.12,0A2.17,2.17,0,0,0,351.57,29.62Z" transform="translate(-20.7 -17.05)"/><path class="cls-1" d="M262.32,68.43l.2-.25c.13-.17.23-.23.42-.08a3.74,3.74,0,0,0,2.23,1,1.57,1.57,0,0,0,1.74-1.48c0-.9-.78-1.42-2.27-2s-2.29-1.16-2.29-2.64a2.47,2.47,0,0,1,2.77-2.32,4.22,4.22,0,0,1,2.22.67c.08,0,.22.19.08.44l-.13.22c-.1.18-.25.18-.45.06a3.12,3.12,0,0,0-1.73-.52c-1.38,0-1.8.89-1.8,1.43,0,.93.67,1.33,1.76,1.78,1.75.72,2.88,1.38,2.88,2.89a2.62,2.62,0,0,1-2.8,2.39,4.23,4.23,0,0,1-2.75-1C262.3,68.78,262.14,68.66,262.32,68.43Z" transform="translate(-20.7 -17.05)"/><path class="cls-1" d="M269.46,64.07a.29.29,0,0,1,.29-.28h.39a.29.29,0,0,1,.28.28v3.25c0,1.2.39,1.74,1.27,1.74a2.22,2.22,0,0,0,1.7-.87V64.07a.28.28,0,0,1,.27-.28h.4a.29.29,0,0,1,.28.28v5.54a.22.22,0,0,1-.24.23c-.39,0-.6-.28-.63-.68a2.46,2.46,0,0,1-1.86.78c-1.73,0-2.15-1-2.15-2.63Z" transform="translate(-20.7 -17.05)"/><path class="cls-1" d="M277.27,72.6a.3.3,0,0,1-.28.29h-.38a.29.29,0,0,1-.28-.29V64a.22.22,0,0,1,.23-.24.62.62,0,0,1,.6.55,3,3,0,1,1,1.78,5.66,3,3,0,0,1-1.67-.5Zm0-4.06a2.85,2.85,0,0,0,1.53.52,2.09,2.09,0,0,0,2-2.28,2.07,2.07,0,0,0-1.94-2.25,2.29,2.29,0,0,0-1.59.73Z" transform="translate(-20.7 -17.05)"/><path class="cls-1" d="M286,63.66a2.64,2.64,0,0,1,2.72,2.73,2.19,2.19,0,0,1,0,.36.27.27,0,0,1-.27.26H284a2.11,2.11,0,0,0,2,2,2.8,2.8,0,0,0,1.63-.49c.21-.14.3-.19.45,0l.16.22c.12.18.17.25-.05.42a3.76,3.76,0,0,1-2.2.69,3.15,3.15,0,0,1,0-6.28Zm1.76,2.58A1.76,1.76,0,0,0,286,64.53,2,2,0,0,0,284,66.24Z" transform="translate(-20.7 -17.05)"/><path class="cls-1" d="M290.25,64a.22.22,0,0,1,.23-.24c.38,0,.59.29.63.68a2.46,2.46,0,0,1,1.84-.75c.46,0,1.2.06,1.05.48l-.16.47c-.07.19-.21.2-.36.14a1.42,1.42,0,0,0-.65-.17,1.9,1.9,0,0,0-1.62.77v4.16a.3.3,0,0,1-.29.28h-.39a.29.29,0,0,1-.28-.28Z" transform="translate(-20.7 -17.05)"/><path class="cls-1" d="M295.27,64a.22.22,0,0,1,.23-.24c.38,0,.58.29.62.68a2.64,2.64,0,0,1,1.86-.75,1.83,1.83,0,0,1,1.77,1,3.34,3.34,0,0,1,2.15-1c1.74,0,2.15,1.13,2.15,2.67v3.18a.29.29,0,0,1-.28.28h-.39a.29.29,0,0,1-.29-.28V66.33c0-1.11-.36-1.8-1.27-1.8a2.49,2.49,0,0,0-1.74.82,6,6,0,0,1,.07,1v3.18a.29.29,0,0,1-.28.28h-.39a.3.3,0,0,1-.29-.28V66.33c0-1.14-.38-1.8-1.35-1.8a2,2,0,0,0-1.61.83v4.15a.3.3,0,0,1-.29.28h-.39a.29.29,0,0,1-.28-.28Z" transform="translate(-20.7 -17.05)"/><path class="cls-1" d="M308.56,63.66a2.63,2.63,0,0,1,2.72,2.73c0,.1,0,.26,0,.36A.29.29,0,0,1,311,67h-4.37a2.12,2.12,0,0,0,2,2,2.79,2.79,0,0,0,1.62-.49c.21-.14.3-.19.46,0l.15.22c.12.18.17.25-.05.42a3.73,3.73,0,0,1-2.2.69,3.15,3.15,0,0,1,0-6.28Zm1.76,2.58a1.76,1.76,0,0,0-1.76-1.71,2,2,0,0,0-1.93,1.71Z" transform="translate(-20.7 -17.05)"/><path class="cls-1" d="M312.84,64a.23.23,0,0,1,.24-.24c.37,0,.58.29.62.68a2.46,2.46,0,0,1,1.85-.75c.45,0,1.19.06,1.05.48l-.17.47a.23.23,0,0,1-.35.14,1.45,1.45,0,0,0-.65-.17,1.9,1.9,0,0,0-1.63.77v4.16a.29.29,0,0,1-.28.28h-.39a.29.29,0,0,1-.29-.28Z" transform="translate(-20.7 -17.05)"/><path class="cls-1" d="M320.3,63.66a2.82,2.82,0,0,1,2.19,1,.29.29,0,0,1-.05.43l-.21.2c-.2.17-.31,0-.43-.09a1.87,1.87,0,0,0-1.51-.65,2.28,2.28,0,0,0,0,4.53,2,2,0,0,0,1.64-.85c.17-.2.34-.15.51,0l.08.08c.12.13.18.26.07.42a2.76,2.76,0,0,1-2.26,1.21,3,3,0,0,1-3-3.14A3,3,0,0,1,320.3,63.66Z" transform="translate(-20.7 -17.05)"/><path class="cls-1" d="M326.15,66a5.05,5.05,0,0,1,1.29.2c0-1.11-.52-1.65-1.38-1.65a3.66,3.66,0,0,0-1.39.35c-.15.06-.23,0-.28-.16l-.13-.35c-.06-.18,0-.26.18-.32a3.84,3.84,0,0,1,1.67-.39c1.54,0,2.25.91,2.25,2.52v3.43a.22.22,0,0,1-.23.23c-.39,0-.6-.29-.64-.7a2.59,2.59,0,0,1-1.88.8,1.83,1.83,0,0,1-1.86-2C323.75,66.83,324.61,66,326.15,66Zm-.37,3.08a2.08,2.08,0,0,0,1.65-.8V67a3,3,0,0,0-1.28-.24c-.83,0-1.45.41-1.45,1.17A1,1,0,0,0,325.78,69.06Z" transform="translate(-20.7 -17.05)"/><path class="cls-1" d="M332.8,63.66a3.77,3.77,0,0,1,1.66.37V61a.3.3,0,0,1,.29-.29h.36a.31.31,0,0,1,.3.29v8.63a.22.22,0,0,1-.23.23c-.38,0-.59-.28-.64-.67a3,3,0,0,1-1.9.77A3,3,0,0,1,330,66.78,2.83,2.83,0,0,1,332.8,63.66Zm0,5.4a2.21,2.21,0,0,0,1.7-1V64.87a3.91,3.91,0,0,0-1.53-.34,2.06,2.06,0,0,0-2,2.26A2.09,2.09,0,0,0,332.76,69.06Z" transform="translate(-20.7 -17.05)"/><path class="cls-1" d="M340.05,63.66a3.14,3.14,0,1,1-3,3.12A3.1,3.1,0,0,1,340.05,63.66Zm0,5.4A2.27,2.27,0,1,0,338,66.78,2.15,2.15,0,0,0,340.05,69.06Z" transform="translate(-20.7 -17.05)"/><path class="cls-1" d="M344.28,69.21a.2.2,0,0,1,0-.26l.18-.34c.08-.14.18-.19.35-.08a2.44,2.44,0,0,0,1.49.53c.62,0,1-.28,1-.75s-.47-.81-1.34-1.23-1.7-.82-1.7-1.85a1.66,1.66,0,0,1,1.86-1.57,3.19,3.19,0,0,1,1.71.46.3.3,0,0,1,.07.41l-.13.24a.3.3,0,0,1-.42.11,2.31,2.31,0,0,0-1.23-.35c-.66,0-.89.37-.89.66,0,.53.42.73,1.15,1.07,1,.48,1.94.87,1.94,2a1.85,1.85,0,0,1-2.05,1.72A3,3,0,0,1,344.28,69.21Z" transform="translate(-20.7 -17.05)"/><rect class="cls-4" x="209.85" width="18.44" height="18.44"/><rect class="cls-5" x="209.85" y="39.18" width="18.44" height="18.44"/><rect class="cls-4" y="380.14" width="35.04" height="35.04"/><rect class="cls-4" x="36.73" y="416.87" width="35.04" height="35.04"/><rect class="cls-4" x="73.46" y="416.87" width="35.04" height="35.04"/><rect class="cls-4" x="110.19" y="416.87" width="35.04" height="35.04"/><rect class="cls-5" x="146.91" y="416.87" width="35.04" height="35.04"/><rect class="cls-5" x="183.64" y="416.87" width="35.04" height="35.04"/><rect class="cls-5" x="220.37" y="416.87" width="35.04" height="35.04"/><rect class="cls-5" x="257.1" y="416.87" width="35.04" height="35.04"/><rect class="cls-5" x="330.56" y="416.87" width="35.04" height="35.04"/><rect class="cls-5" x="293.83" y="416.87" width="35.04" height="35.04"/><rect class="cls-4" y="416.87" width="35.04" height="35.04"/><rect class="cls-4" x="36.73" y="380.14" width="35.04" height="35.04"/><rect class="cls-4" x="73.46" y="380.14" width="35.04" height="35.04"/><rect class="cls-4" x="110.19" y="380.14" width="35.04" height="35.04"/><rect class="cls-4" x="146.91" y="380.14" width="35.04" height="35.04"/><rect class="cls-4" x="183.64" y="380.14" width="35.04" height="35.04"/><rect class="cls-4" x="220.37" y="380.14" width="35.04" height="35.04"/><rect class="cls-4" x="257.1" y="380.14" width="35.04" height="35.04"/><rect class="cls-4" x="330.56" y="380.14" width="35.04" height="35.04"/><rect class="cls-4" x="293.83" y="380.14" width="35.04" height="35.04"/><rect class="cls-3" y="343.41" width="35.04" height="35.04"/><rect class="cls-3" x="36.73" y="343.41" width="35.04" height="35.04"/><rect class="cls-3" x="73.46" y="343.41" width="35.04" height="35.04"/><rect class="cls-4" x="110.19" y="343.41" width="35.04" height="35.04"/><rect class="cls-4" x="146.91" y="343.41" width="35.04" height="35.04"/><rect class="cls-4" x="183.64" y="343.41" width="35.04" height="35.04"/><rect class="cls-4" x="220.37" y="343.41" width="35.04" height="35.04"/><rect class="cls-4" x="257.1" y="343.41" width="35.04" height="35.04"/><rect class="cls-4" x="330.56" y="343.41" width="35.04" height="35.04"/><rect class="cls-4" x="293.83" y="343.41" width="35.04" height="35.04"/><rect class="cls-3" y="306.68" width="35.04" height="35.04"/><rect class="cls-3" x="36.73" y="306.68" width="35.04" height="35.04"/><rect class="cls-3" x="73.46" y="306.68" width="35.04" height="35.04"/><rect class="cls-3" x="110.19" y="306.68" width="35.04" height="35.04"/><rect class="cls-3" x="146.91" y="306.68" width="35.04" height="35.04"/><rect class="cls-3" x="183.64" y="306.68" width="35.04" height="35.04"/><rect class="cls-3" x="220.37" y="306.68" width="35.04" height="35.04"/><rect class="cls-3" x="257.1" y="306.68" width="35.04" height="35.04"/><rect class="cls-3" x="293.83" y="306.68" width="35.04" height="35.04"/><rect class="cls-3" x="330.56" y="306.68" width="35.04" height="35.04"/><rect class="cls-3" y="269.95" width="35.04" height="35.04"/><rect class="cls-3" x="36.73" y="269.95" width="35.04" height="35.04"/><rect class="cls-3" x="73.46" y="269.95" width="35.04" height="35.04"/><rect class="cls-3" x="110.19" y="269.95" width="35.04" height="35.04"/><rect class="cls-3" x="146.91" y="269.95" width="35.04" height="35.04"/><rect class="cls-3" x="183.64" y="269.95" width="35.04" height="35.04"/><rect class="cls-3" x="220.37" y="269.95" width="35.04" height="35.04"/><rect class="cls-3" x="257.1" y="269.95" width="35.04" height="35.04"/><rect class="cls-3" x="293.83" y="269.95" width="35.04" height="35.04"/><rect class="cls-3" x="330.56" y="269.95" width="35.04" height="35.04"/><rect class="cls-2" y="233.23" width="35.04" height="35.04"/><rect class="cls-2" x="36.73" y="233.23" width="35.04" height="35.04"/><rect class="cls-2" x="73.46" y="233.23" width="35.04" height="35.04"/><rect class="cls-2" x="110.19" y="233.23" width="35.04" height="35.04"/><rect class="cls-2" x="146.91" y="233.23" width="35.04" height="35.04"/><rect class="cls-3" x="183.64" y="233.23" width="35.04" height="35.04"/><rect class="cls-3" x="220.37" y="233.23" width="35.04" height="35.04"/><rect class="cls-3" x="257.1" y="233.23" width="35.04" height="35.04"/><rect class="cls-3" x="293.83" y="233.23" width="35.04" height="35.04"/><rect class="cls-3" x="330.56" y="233.23" width="35.04" height="35.04"/><rect class="cls-2" y="196.5" width="35.04" height="35.04"/><rect class="cls-2" x="36.73" y="196.5" width="35.04" height="35.04"/><rect class="cls-2" x="73.46" y="196.5" width="35.04" height="35.04"/><rect class="cls-2" x="110.19" y="196.5" width="35.04" height="35.04"/><rect class="cls-2" x="146.91" y="196.5" width="35.04" height="35.04"/><rect class="cls-2" x="183.64" y="196.5" width="35.04" height="35.04"/><rect class="cls-2" x="220.37" y="196.5" width="35.04" height="35.04"/><rect class="cls-2" x="257.1" y="196.5" width="35.04" height="35.04"/><rect class="cls-2" x="293.83" y="196.5" width="35.04" height="35.04"/><rect class="cls-2" x="330.56" y="196.5" width="35.04" height="35.04"/><rect class="cls-2" y="159.77" width="35.04" height="35.04"/><rect class="cls-2" x="36.73" y="159.77" width="35.04" height="35.04"/><rect class="cls-2" x="73.46" y="159.77" width="35.04" height="35.04"/><rect class="cls-2" x="110.19" y="159.77" width="35.04" height="35.04"/><rect class="cls-2" x="146.91" y="159.77" width="35.04" height="35.04"/><rect class="cls-2" x="183.64" y="159.77" width="35.04" height="35.04"/><rect class="cls-2" x="220.37" y="159.77" width="35.04" height="35.04"/><rect class="cls-2" x="257.1" y="159.77" width="35.04" height="35.04"/><rect class="cls-2" x="293.83" y="159.77" width="35.04" height="35.04"/><rect class="cls-2" x="330.56" y="159.77" width="35.04" height="35.04"/><rect class="cls-2" y="123.04" width="35.04" height="35.04"/><rect class="cls-2" x="36.73" y="123.04" width="35.04" height="35.04"/><rect class="cls-2" x="73.46" y="123.04" width="35.04" height="35.04"/><rect class="cls-2" x="110.19" y="123.04" width="35.04" height="35.04"/><rect class="cls-2" x="146.91" y="123.04" width="35.04" height="35.04"/><rect class="cls-2" x="183.64" y="123.04" width="35.04" height="35.04"/><rect class="cls-2" x="220.37" y="123.04" width="35.04" height="35.04"/><rect class="cls-2" x="257.1" y="123.04" width="35.04" height="35.04"/><rect class="cls-2" x="293.83" y="123.04" width="35.04" height="35.04"/><rect class="cls-2" x="330.56" y="123.04" width="35.04" height="35.04"/><rect class="cls-2" y="86.31" width="35.04" height="35.04"/><rect class="cls-2" x="36.73" y="86.31" width="35.04" height="35.04"/><rect class="cls-2" x="73.46" y="86.31" width="35.04" height="35.04"/><rect class="cls-2" x="110.19" y="86.31" width="35.04" height="35.04"/><rect class="cls-2" x="146.91" y="86.31" width="35.04" height="35.04"/><rect class="cls-2" x="183.64" y="86.31" width="35.04" height="35.04"/><rect class="cls-2" x="220.37" y="86.31" width="35.04" height="35.04"/><rect class="cls-2" x="257.1" y="86.31" width="35.04" height="35.04"/><rect class="cls-2" x="293.83" y="86.31" width="35.04" height="35.04"/><rect class="cls-2" x="330.56" y="86.31" width="35.04" height="35.04"/><path class="cls-6" d="M398.46,114.46a.4.4,0,0,1-.4-.4v-1.78a.94.94,0,0,1,.28-.74l6.92-8.27a.35.35,0,0,1,.3-.12H407a.4.4,0,0,1,.4.4v8.35h1.64a.37.37,0,0,1,.4.38v1.78a.4.4,0,0,1-.4.4h-1.64V117a.4.4,0,0,1-.38.4h-2.18a.4.4,0,0,1-.38-.4v-2.5Zm6.06-2.48v-3.9h0l-3.2,3.86v0Z" transform="translate(-20.7 -17.05)"/><path class="cls-6" d="M411.18,115.16l1.26-1.32a.42.42,0,0,1,.54,0,3.58,3.58,0,0,0,2.46,1,1.91,1.91,0,0,0,2-2,1.89,1.89,0,0,0-2.14-2H412.1a.69.69,0,0,1-.64-.74v-6.39a.38.38,0,0,1,.38-.38h6.64a.4.4,0,0,1,.4.38v1.82a.4.4,0,0,1-.4.38h-4.24v2.23h1.46a4.35,4.35,0,0,1,4.7,4.56,4.91,4.91,0,0,1-5.1,4.84,5.35,5.35,0,0,1-4.06-1.7C411,115.54,410.94,115.4,411.18,115.16Z" transform="translate(-20.7 -17.05)"/><path class="cls-6" d="M422,105.83a2.7,2.7,0,0,1,5.4,0,2.7,2.7,0,1,1-5.4,0Zm8.34-2.28a.42.42,0,0,1,.34-.2h1.52a.36.36,0,0,1,.34.54l-6.9,13.27a.6.6,0,0,1-.34.2h-1.48a.36.36,0,0,1-.34-.54Zm-5,2.28a.69.69,0,0,0-1.38,0,.69.69,0,1,0,1.38,0Zm6,6.33a2.7,2.7,0,1,1-2.7,2.7A2.71,2.71,0,0,1,431.42,112.16Zm0,3.38a.69.69,0,1,0-.68-.68A.7.7,0,0,0,431.42,115.54Z" transform="translate(-20.7 -17.05)"/><path class="cls-7" d="M406.32,374a.4.4,0,0,1,.4.4v1.84a.4.4,0,0,1-.4.4h-8.24a.38.38,0,0,1-.38-.4v-.16c0-.2,0-.24.26-.58,1.32-1.76,4.06-5.48,5.2-7.22a3.11,3.11,0,0,0,.52-1.55,1.61,1.61,0,0,0-1.8-1.5,2.94,2.94,0,0,0-2,1,.39.39,0,0,1-.58,0L398,365a.4.4,0,0,1,0-.54,5.53,5.53,0,0,1,4.12-2c2.94,0,4.68,1.88,4.68,4.17a5.08,5.08,0,0,1-.8,2.66c-.64,1.16-2.32,3.34-3.28,4.7v0Z" transform="translate(-20.7 -17.05)"/><path class="cls-7" d="M408.62,367a.38.38,0,0,1-.36-.41v-1.3a.34.34,0,0,1,.12-.29l2.68-2.11a1.16,1.16,0,0,1,.72-.24h1.5a.39.39,0,0,1,.38.38v13.23a.4.4,0,0,1-.38.4H411a.39.39,0,0,1-.4-.4V367Z" transform="translate(-20.7 -17.05)"/><path class="cls-7" d="M416.2,365.09a2.7,2.7,0,0,1,5.4,0,2.7,2.7,0,0,1-5.4,0Zm8.34-2.28a.42.42,0,0,1,.34-.2h1.52a.36.36,0,0,1,.34.54l-6.9,13.27a.6.6,0,0,1-.34.2H418a.36.36,0,0,1-.34-.54Zm-5,2.28a.69.69,0,0,0-1.38,0,.69.69,0,1,0,1.38,0Zm6,6.33a2.7,2.7,0,1,1-2.7,2.7A2.71,2.71,0,0,1,425.6,371.42Zm0,3.38a.69.69,0,1,0-.68-.68A.7.7,0,0,0,425.6,374.8Z" transform="translate(-20.7 -17.05)"/><path class="cls-5" d="M416.34,443a.47.47,0,0,1,.64.32l.6,1.6c.08.24,0,.46-.4.61-1,.29-3.64,1.33-4.14,3.32a5.65,5.65,0,0,1,2-.42,4.13,4.13,0,0,1,4.1,4.46,4.74,4.74,0,0,1-4.72,4.72c-3.18,0-5-2.38-5-5.6C409.42,445.92,414.44,443.53,416.34,443Zm-2,11.77a2,2,0,0,0,0-4,2,2,0,0,0,0,4Z" transform="translate(-20.7 -17.05)"/><path class="cls-5" d="M420.78,445.83a2.7,2.7,0,0,1,5.4,0,2.7,2.7,0,1,1-5.4,0Zm8.34-2.28a.42.42,0,0,1,.34-.2H431a.36.36,0,0,1,.34.54l-6.9,13.27a.6.6,0,0,1-.34.2H422.6a.36.36,0,0,1-.34-.54Zm-5,2.28a.69.69,0,0,0-1.38,0,.69.69,0,1,0,1.38,0Zm6,6.33a2.7,2.7,0,1,1-2.7,2.7A2.71,2.71,0,0,1,430.18,452.16Zm0,3.38a.69.69,0,1,0-.68-.68A.7.7,0,0,0,430.18,455.54Z" transform="translate(-20.7 -17.05)"/><path class="cls-8" d="M406.32,265.72a.4.4,0,0,1,.4.4V268a.4.4,0,0,1-.4.4h-8.24a.38.38,0,0,1-.38-.4v-.16c0-.2,0-.24.26-.58,1.32-1.76,4.06-5.48,5.2-7.22a3.08,3.08,0,0,0,.52-1.54,1.6,1.6,0,0,0-1.8-1.5,2.9,2.9,0,0,0-2,1,.41.41,0,0,1-.58,0L398,256.71a.4.4,0,0,1,0-.54,5.53,5.53,0,0,1,4.12-2c2.94,0,4.68,1.89,4.68,4.17A5.05,5.05,0,0,1,406,261c-.64,1.16-2.32,3.34-3.28,4.7v0Z" transform="translate(-20.7 -17.05)"/><path class="cls-8" d="M411.14,261.18v-.08a3.55,3.55,0,0,1-2.12-3.16c0-2.33,2.06-3.79,4.56-3.79s4.68,1.46,4.68,3.79a3.64,3.64,0,0,1-2.12,3.14v.1a3.89,3.89,0,0,1,2.52,3.46c0,2.44-2,3.92-5.08,3.92s-5-1.48-5-3.92A4,4,0,0,1,411.14,261.18Zm2.52,4.86a1.53,1.53,0,0,0,1.66-1.56,2.13,2.13,0,0,0-1.7-1.88,2.15,2.15,0,0,0-1.66,1.88A1.53,1.53,0,0,0,413.66,266Zm1.44-8a1.46,1.46,0,0,0-2.92,0c0,.73.48,1.32,1.44,1.68A1.88,1.88,0,0,0,415.1,258.06Z" transform="translate(-20.7 -17.05)"/><path class="cls-8" d="M420.4,256.83a2.7,2.7,0,0,1,5.4,0,2.7,2.7,0,1,1-5.4,0Zm8.34-2.28a.42.42,0,0,1,.34-.2h1.52a.36.36,0,0,1,.34.54L424,268.16a.6.6,0,0,1-.34.2h-1.48a.36.36,0,0,1-.34-.54Zm-5,2.28a.69.69,0,0,0-1.38,0,.69.69,0,1,0,1.38,0Zm6,6.33a2.7,2.7,0,1,1-2.7,2.7A2.71,2.71,0,0,1,429.8,263.16Zm0,3.38a.69.69,0,1,0-.68-.68A.7.7,0,0,0,429.8,266.54Z" transform="translate(-20.7 -17.05)"/></svg>