<svg id="Capa_1" data-name="Capa 1" xmlns="http://www.w3.org/2000/svg" viewBox="0 0 489 222"><defs><style>.cls-1{fill:#0078bf;}.cls-2{fill:#f9fbfe;}.cls-3,.cls-4{fill:none;stroke:#7ab2e1;stroke-miterlimit:10;}.cls-4{stroke-width:0.3px;}.cls-5{fill:#fff;}</style></defs><path class="cls-1" d="M170.79,243h65v-6h-65Zm65,0h65v-6h-65Zm-65-198h130V21h-130Z" transform="translate(-6.79 -21)"/><path class="cls-2" d="M235.79,213h65v24h-65Zm-65,0h65v24h-65Zm65-24h65v24h-65Zm-65,0h65v24h-65Zm65-24h65v24h-65Zm-65,0h65v24h-65Zm65-24h65v24h-65Zm-65,0h65v24h-65Zm65-24h65v24h-65Zm-65,0h65v24h-65Zm65-24h65v24h-65Zm-65,0h65v24h-65Zm65-24h65V93h-65Zm-65,0h65V93h-65Zm65-24h65V69h-65Zm-65,0h65V69h-65Z" transform="translate(-6.79 -21)"/><line class="cls-3" y1="24" x2="164" y2="24"/><line class="cls-3" x1="164" y1="24" x2="229" y2="24"/><line class="cls-3" x1="229" y1="24" x2="294" y2="24"/><line class="cls-3" x1="294" y1="24" x2="359" y2="24"/><line class="cls-3" x1="359" y1="24" x2="424" y2="24"/><line class="cls-3" x1="424" y1="24" x2="489" y2="24"/><line class="cls-3" y1="48" x2="164" y2="48"/><line class="cls-3" x1="164" y1="48" x2="229" y2="48"/><line class="cls-3" x1="229" y1="48" x2="294" y2="48"/><line class="cls-3" x1="294" y1="48" x2="359" y2="48"/><line class="cls-3" x1="359" y1="48" x2="424" y2="48"/><line class="cls-3" x1="424" y1="48" x2="489" y2="48"/><line class="cls-4" y1="72" x2="164" y2="72"/><line class="cls-4" y1="96" x2="164" y2="96"/><line class="cls-4" y1="120" x2="164" y2="120"/><line class="cls-4" y1="144" x2="164" y2="144"/><line class="cls-4" y1="168" x2="164" y2="168"/><line class="cls-4" x1="164" y1="72" x2="229" y2="72"/><line class="cls-4" x1="229" y1="72" x2="294" y2="72"/><line class="cls-4" x1="164" y1="96" x2="229" y2="96"/><line class="cls-4" x1="229" y1="96" x2="294" y2="96"/><line class="cls-4" x1="164" y1="120" x2="229" y2="120"/><line class="cls-4" x1="229" y1="120" x2="294" y2="120"/><line class="cls-4" x1="164" y1="144" x2="229" y2="144"/><line class="cls-4" x1="229" y1="144" x2="294" y2="144"/><line class="cls-4" x1="164" y1="168" x2="229" y2="168"/><line class="cls-4" x1="229" y1="168" x2="294" y2="168"/><line class="cls-4" x1="294" y1="72" x2="359" y2="72"/><line class="cls-4" x1="294" y1="96" x2="359" y2="96"/><line class="cls-4" x1="294" y1="120" x2="359" y2="120"/><line class="cls-4" x1="294" y1="144" x2="359" y2="144"/><line class="cls-4" x1="294" y1="168" x2="359" y2="168"/><line class="cls-4" x1="359" y1="72" x2="424" y2="72"/><line class="cls-4" x1="359" y1="96" x2="424" y2="96"/><line class="cls-4" x1="359" y1="120" x2="424" y2="120"/><line class="cls-4" x1="359" y1="144" x2="424" y2="144"/><line class="cls-4" x1="359" y1="168" x2="424" y2="168"/><line class="cls-4" x1="424" y1="72" x2="489" y2="72"/><line class="cls-4" x1="424" y1="96" x2="489" y2="96"/><line class="cls-4" x1="424" y1="120" x2="489" y2="120"/><line class="cls-4" x1="424" y1="144" x2="489" y2="144"/><line class="cls-4" x1="424" y1="168" x2="489" y2="168"/><line class="cls-4" y1="192" x2="164" y2="192"/><line class="cls-4" x1="164" y1="192" x2="229" y2="192"/><line class="cls-4" x1="229" y1="192" x2="294" y2="192"/><line class="cls-4" x1="294" y1="192" x2="359" y2="192"/><line class="cls-4" x1="359" y1="192" x2="424" y2="192"/><line class="cls-4" x1="424" y1="192" x2="489" y2="192"/><line class="cls-4" y1="216" x2="164" y2="216"/><line class="cls-4" x1="164" y1="216" x2="229" y2="216"/><line class="cls-4" x1="229" y1="216" x2="294" y2="216"/><line class="cls-4" x1="294" y1="216" x2="359" y2="216"/><line class="cls-4" x1="359" y1="216" x2="424" y2="216"/><line class="cls-4" x1="424" y1="216" x2="489" y2="216"/><path class="cls-5" d="M273.39,36.48a.29.29,0,0,1,.29.28v1a.3.3,0,0,1-.29.29H267.5a.28.28,0,0,1-.27-.29v-.15a.58.58,0,0,1,.11-.33c1-1.25,2.8-3.57,3.76-4.83a2.85,2.85,0,0,0,.75-1.65,1.4,1.4,0,0,0-1.58-1.35,2.45,2.45,0,0,0-1.66.87.26.26,0,0,1-.41,0l-.72-.71a.3.3,0,0,1,0-.39,4.15,4.15,0,0,1,2.94-1.47,3,3,0,0,1,3.34,3,4,4,0,0,1-1,2.41c-.63.9-1.76,2.29-2.54,3.29v0Z" transform="translate(-6.79 -21)"/><path class="cls-5" d="M275.39,33c0-3.27,1.38-5.22,3.76-5.22s3.77,1.95,3.77,5.22-1.38,5.22-3.77,5.22S275.39,36.26,275.39,33ZM281,33c0-2.22-.72-3.49-1.88-3.49s-1.87,1.27-1.87,3.49.72,3.51,1.87,3.51S281,35.22,281,33Z" transform="translate(-6.79 -21)"/><path class="cls-5" d="M290.3,36.48a.29.29,0,0,1,.29.28v1a.3.3,0,0,1-.29.29h-5.89a.28.28,0,0,1-.27-.29v-.15a.58.58,0,0,1,.11-.33c1-1.25,2.8-3.57,3.76-4.83a2.85,2.85,0,0,0,.75-1.65,1.41,1.41,0,0,0-1.58-1.35,2.49,2.49,0,0,0-1.67.87.25.25,0,0,1-.4,0l-.73-.71a.31.31,0,0,1,0-.39,4.15,4.15,0,0,1,2.94-1.47,3,3,0,0,1,3.33,3,4,4,0,0,1-1,2.41c-.62.9-1.75,2.29-2.53,3.29v0Z" transform="translate(-6.79 -21)"/><path class="cls-5" d="M292.41,30.93a.25.25,0,0,1-.3-.2L292,30a.3.3,0,0,1,.15-.32L294,28.12a.74.74,0,0,1,.51-.19h.76a.28.28,0,0,1,.27.27v9.59a.29.29,0,0,1-.27.29H294a.29.29,0,0,1-.29-.29V30.64Z" transform="translate(-6.79 -21)"/><path class="cls-1" d="M399.76,36.48a.29.29,0,0,1,.29.28v1a.3.3,0,0,1-.29.29h-5.89a.28.28,0,0,1-.27-.29v-.15a.58.58,0,0,1,.11-.33c1-1.25,2.8-3.57,3.76-4.83a2.85,2.85,0,0,0,.75-1.65,1.41,1.41,0,0,0-1.58-1.35,2.49,2.49,0,0,0-1.67.87.25.25,0,0,1-.4,0l-.73-.71a.31.31,0,0,1,0-.39,4.15,4.15,0,0,1,2.94-1.47,3,3,0,0,1,3.34,3,4,4,0,0,1-1,2.41c-.62.9-1.75,2.29-2.53,3.29v0Z" transform="translate(-6.79 -21)"/><path class="cls-1" d="M401.76,33c0-3.27,1.38-5.22,3.75-5.22s3.77,1.95,3.77,5.22-1.37,5.22-3.77,5.22S401.76,36.26,401.76,33Zm5.64,0c0-2.22-.73-3.49-1.89-3.49s-1.87,1.27-1.87,3.49.73,3.51,1.87,3.51S407.4,35.22,407.4,33Z" transform="translate(-6.79 -21)"/><path class="cls-1" d="M416.66,36.48a.29.29,0,0,1,.29.28v1a.3.3,0,0,1-.29.29h-5.88a.29.29,0,0,1-.28-.29v-.15a.57.57,0,0,1,.12-.33c1-1.25,2.8-3.57,3.75-4.83a2.81,2.81,0,0,0,.76-1.65,1.41,1.41,0,0,0-1.58-1.35,2.47,2.47,0,0,0-1.67.87.26.26,0,0,1-.41,0l-.72-.71a.29.29,0,0,1,0-.39,4.15,4.15,0,0,1,2.94-1.47,3,3,0,0,1,3.33,3,4,4,0,0,1-1,2.41c-.62.9-1.75,2.29-2.54,3.29v0Z" transform="translate(-6.79 -21)"/><path class="cls-1" d="M418.67,33c0-3.27,1.37-5.22,3.75-5.22s3.77,1.95,3.77,5.22-1.38,5.22-3.77,5.22S418.67,36.26,418.67,33Zm5.64,0c0-2.22-.73-3.49-1.89-3.49s-1.87,1.27-1.87,3.49.73,3.51,1.87,3.51S424.31,35.22,424.31,33Z" transform="translate(-6.79 -21)"/><path class="cls-1" d="M470.61,28.3a.25.25,0,0,1,.24-.37h1.48a.26.26,0,0,1,.25.16l2.8,6.23h.07l2.8-6.23a.24.24,0,0,1,.24-.16H480a.26.26,0,0,1,.25.37l-4.5,9.76a.24.24,0,0,1-.24.16h-.15a.24.24,0,0,1-.24-.16Z" transform="translate(-6.79 -21)"/><path class="cls-1" d="M481.31,33.84a4.89,4.89,0,0,1,1.29.19,1.15,1.15,0,0,0-1.26-1.26,5.53,5.53,0,0,0-1.56.25c-.21.07-.34-.09-.37-.29l-.15-.76a.3.3,0,0,1,.22-.4,6.34,6.34,0,0,1,2-.34,2.58,2.58,0,0,1,2.85,2.92v3.68c0,.16-.11.3-.35.3a1,1,0,0,1-1-.68,3,3,0,0,1-2,.78,2.13,2.13,0,0,1-2.26-2.29C478.64,34.76,479.61,33.84,481.31,33.84Zm0,3a1.44,1.44,0,0,0,1.2-.71v-1a2.7,2.7,0,0,0-1-.2c-.77,0-1.19.36-1.19.95A.89.89,0,0,0,481.35,36.89Z" transform="translate(-6.79 -21)"/><path class="cls-1" d="M485.24,31.62a.3.3,0,0,1,.34-.3,1,1,0,0,1,1.06.91,2.36,2.36,0,0,1,1.87-1c.8,0,1.45.22,1.26.66l-.43,1A.28.28,0,0,1,489,33a1.26,1.26,0,0,0-.63-.13,1.44,1.44,0,0,0-1.27.69v4.18c0,.24-.16.32-.38.32h-1.12a.33.33,0,0,1-.31-.32Z" transform="translate(-6.79 -21)"/><path class="cls-1" d="M490.11,35.83A1.2,1.2,0,1,1,488.9,37,1.23,1.23,0,0,1,490.11,35.83Z" transform="translate(-6.79 -21)"/><path class="cls-1" d="M228.67,61.7l.12,1.39c0,.17-.2.33-.47.33s-.47-.16-.46-.33l.1-1.39a4.38,4.38,0,0,1-2.4-1.05c-.12-.09-.28-.2-.09-.43l.26-.34c.13-.17.23-.21.41-.07a3.82,3.82,0,0,0,2.2.94A1.51,1.51,0,0,0,230,59.33c0-.88-.74-1.4-2.2-2s-2.32-1.18-2.32-2.67A2.43,2.43,0,0,1,228,52.3l-.1-1.36c0-.17.2-.33.46-.33s.48.16.47.33l-.12,1.38a4.07,4.07,0,0,1,1.93.66.3.3,0,0,1,.07.45l-.17.29c-.12.19-.26.19-.46.09a3.18,3.18,0,0,0-1.76-.57c-1.29,0-1.69.83-1.69,1.38,0,.89.62,1.29,1.73,1.73,1.7.69,2.87,1.39,2.87,2.92A2.61,2.61,0,0,1,228.67,61.7Z" transform="translate(-6.79 -21)"/><path class="cls-1" d="M287.66,53.72a2,2,0,1,1,2,2A1.95,1.95,0,0,1,287.66,53.72Zm3.06,0a1.12,1.12,0,0,0-2.23,0,1.12,1.12,0,1,0,2.23,0ZM294,52.07a.26.26,0,0,1,.25-.15h.23a.26.26,0,0,1,.24.4l-5,9.61a.27.27,0,0,1-.24.14h-.21a.26.26,0,0,1-.24-.39Zm.22,6.25a2,2,0,1,1-2,2A2,2,0,0,1,294.2,58.32Zm0,3.09a1.12,1.12,0,1,0-1.13-1.14A1.13,1.13,0,0,0,294.2,61.41Z" transform="translate(-6.79 -21)"/><path class="cls-1" d="M358.68,61.7l.12,1.39c0,.17-.21.33-.47.33s-.48-.16-.46-.33l.1-1.39a4.46,4.46,0,0,1-2.41-1.05c-.11-.09-.27-.2-.08-.43l.26-.34c.13-.17.23-.21.4-.07a3.82,3.82,0,0,0,2.21.94A1.51,1.51,0,0,0,360,59.33c0-.88-.74-1.4-2.21-2s-2.32-1.18-2.32-2.67A2.44,2.44,0,0,1,358,52.3l-.1-1.36c0-.17.2-.33.46-.33s.48.16.47.33l-.12,1.38a4.13,4.13,0,0,1,1.93.66.3.3,0,0,1,.07.45l-.17.29c-.12.19-.27.19-.47.09a3.12,3.12,0,0,0-1.75-.57c-1.29,0-1.7.83-1.7,1.38,0,.89.63,1.29,1.74,1.73,1.7.69,2.87,1.39,2.87,2.92A2.61,2.61,0,0,1,358.68,61.7Z" transform="translate(-6.79 -21)"/><path class="cls-1" d="M417.67,53.72a2,2,0,1,1,1.95,2A1.95,1.95,0,0,1,417.67,53.72Zm3.06,0a1.12,1.12,0,1,0-1.11,1.13A1.13,1.13,0,0,0,420.73,53.72ZM424,52.07a.25.25,0,0,1,.24-.15h.23a.27.27,0,0,1,.25.4l-5,9.61a.28.28,0,0,1-.25.14h-.2a.26.26,0,0,1-.25-.39Zm.21,6.25a2,2,0,1,1-1.95,2A2,2,0,0,1,424.2,58.32Zm0,3.09a1.12,1.12,0,1,0-1.13-1.14A1.13,1.13,0,0,0,424.2,61.41Z" transform="translate(-6.79 -21)"/><path class="cls-1" d="M482.67,53.72a2,2,0,1,1,2,2A1.95,1.95,0,0,1,482.67,53.72Zm3.06,0a1.12,1.12,0,0,0-2.23,0,1.12,1.12,0,1,0,2.23,0ZM489,52.07a.26.26,0,0,1,.25-.15h.23a.26.26,0,0,1,.24.4l-5,9.61a.27.27,0,0,1-.24.14h-.21a.26.26,0,0,1-.24-.39Zm.22,6.25a2,2,0,1,1-2,2A2,2,0,0,1,489.21,58.32Zm0,3.09a1.12,1.12,0,1,0-1.13-1.14A1.13,1.13,0,0,0,489.21,61.41Z" transform="translate(-6.79 -21)"/><path class="cls-1" d="M18,76.89H15.47a.28.28,0,0,1-.28-.27V76.2a.28.28,0,0,1,.28-.28h6.14a.28.28,0,0,1,.28.28v.42a.28.28,0,0,1-.28.27H19.09v8.9a.29.29,0,0,1-.28.28h-.55a.28.28,0,0,1-.27-.28Z" transform="translate(-6.79 -21)"/><path class="cls-1" d="M25.5,79.23a3.5,3.5,0,1,1-3.36,3.48A3.45,3.45,0,0,1,25.5,79.23Zm0,6a2.41,2.41,0,0,0,2.29-2.55,2.31,2.31,0,1,0-4.6,0A2.42,2.42,0,0,0,25.5,85.26Z" transform="translate(-6.79 -21)"/><path class="cls-1" d="M30.44,80.3a.31.31,0,0,1-.33-.32v-.29a.31.31,0,0,1,.33-.32h.89V77.52a.34.34,0,0,1,.32-.32l.45,0a.3.3,0,0,1,.3.32v1.88h2a.32.32,0,0,1,.34.32V80a.33.33,0,0,1-.34.32h-2v4a.9.9,0,0,0,.9,1,2,2,0,0,0,1-.29c.26-.16.36,0,.42.13l.11.29c.09.22.06.33-.11.43a3.34,3.34,0,0,1-1.58.41,1.84,1.84,0,0,1-1.84-2v-4Z" transform="translate(-6.79 -21)"/><path class="cls-1" d="M38.82,81.82a5.76,5.76,0,0,1,1.44.22c0-1.23-.58-1.84-1.54-1.84a4.11,4.11,0,0,0-1.55.39c-.17.07-.26,0-.32-.17L36.71,80c-.06-.21,0-.29.2-.37a4.37,4.37,0,0,1,1.87-.43c1.71,0,2.51,1,2.51,2.81v3.83a.24.24,0,0,1-.26.26c-.44,0-.67-.34-.71-.78a2.93,2.93,0,0,1-2.11.88A2,2,0,0,1,36.14,84C36.14,82.77,37.1,81.82,38.82,81.82Zm-.42,3.44a2.34,2.34,0,0,0,1.84-.9V83a3.33,3.33,0,0,0-1.42-.26c-.92,0-1.62.45-1.62,1.3A1.16,1.16,0,0,0,38.4,85.26Z" transform="translate(-6.79 -21)"/><path class="cls-1" d="M43.86,76.24a.33.33,0,0,1,.31-.32h.44a.34.34,0,0,1,.32.32v9.51a.33.33,0,0,1-.32.32h-.44a.31.31,0,0,1-.31-.32Z" transform="translate(-6.79 -21)"/><path class="cls-1" d="M51.05,76.87a.79.79,0,1,1,.78.78A.79.79,0,0,1,51.05,76.87Zm.27,2.82a.34.34,0,0,1,.32-.32h.44a.34.34,0,0,1,.32.32v6.06a.33.33,0,0,1-.32.32h-.44a.32.32,0,0,1-.32-.32Z" transform="translate(-6.79 -21)"/><path class="cls-1" d="M55,79.58a.24.24,0,0,1,.26-.26c.42,0,.65.31.69.75a3.53,3.53,0,0,1,2.25-.84c1.94,0,2.42,1.26,2.42,3v3.54a.33.33,0,0,1-.32.32h-.43a.32.32,0,0,1-.32-.32V82.07c0-1.28-.43-1.87-1.42-1.87a2.94,2.94,0,0,0-2.06.93v4.62a.33.33,0,0,1-.32.32h-.43a.32.32,0,0,1-.32-.32Z" transform="translate(-6.79 -21)"/><path class="cls-1" d="M68.72,86.11c0,2.29-1.4,3.14-2.93,3.14a3.85,3.85,0,0,1-2.33-.87.32.32,0,0,1-.07-.4l.29-.42c.1-.16.27-.16.43,0a2.67,2.67,0,0,0,1.68.71c1.06,0,1.87-.58,1.87-2.15v-.47a3.23,3.23,0,0,1-1.85.59,3.52,3.52,0,0,1,0-7,3.47,3.47,0,0,1,2,.69.68.68,0,0,1,.68-.6.24.24,0,0,1,.26.26ZM66,85.24a3.28,3.28,0,0,0,1.7-.55V81a2.48,2.48,0,0,0-1.77-.82,2.3,2.3,0,0,0-2.16,2.5A2.34,2.34,0,0,0,66,85.24Z" transform="translate(-6.79 -21)"/><path class="cls-1" d="M71.26,79.58a.24.24,0,0,1,.26-.26c.42,0,.65.31.7.75a2.74,2.74,0,0,1,2.06-.84c.5,0,1.33.07,1.17.53l-.19.53a.26.26,0,0,1-.39.16,1.61,1.61,0,0,0-.73-.19,2.11,2.11,0,0,0-1.81.85v4.64a.33.33,0,0,1-.32.32h-.43a.32.32,0,0,1-.32-.32Z" transform="translate(-6.79 -21)"/><path class="cls-1" d="M79.76,79.23a3,3,0,0,1,3,3c0,.12,0,.29,0,.41a.32.32,0,0,1-.31.29H77.58a2.36,2.36,0,0,0,2.19,2.29,3.14,3.14,0,0,0,1.81-.55c.23-.16.34-.22.51,0l.17.25c.13.2.19.27-.05.46a4.12,4.12,0,0,1-2.45.77,3.51,3.51,0,0,1,0-7Zm1.95,2.88a2,2,0,0,0-1.95-1.91,2.19,2.19,0,0,0-2.16,1.91Z" transform="translate(-6.79 -21)"/><path class="cls-1" d="M84.47,85.42a.24.24,0,0,1,0-.29l.2-.38c.09-.16.2-.22.39-.09a2.69,2.69,0,0,0,1.67.6c.68,0,1.14-.32,1.14-.84s-.52-.9-1.49-1.38-1.9-.91-1.9-2.06a1.84,1.84,0,0,1,2.07-1.75,3.57,3.57,0,0,1,1.92.52.32.32,0,0,1,.07.45l-.15.27a.32.32,0,0,1-.46.12,2.67,2.67,0,0,0-1.38-.39c-.74,0-1,.42-1,.74,0,.59.46.81,1.27,1.19,1.16.53,2.16,1,2.16,2.19a2,2,0,0,1-2.27,1.91A3.29,3.29,0,0,1,84.47,85.42Z" transform="translate(-6.79 -21)"/><path class="cls-1" d="M93.92,79.23a3.5,3.5,0,1,1-3.36,3.48A3.45,3.45,0,0,1,93.92,79.23Zm0,6a2.41,2.41,0,0,0,2.29-2.55,2.3,2.3,0,1,0-4.59,0A2.41,2.41,0,0,0,93.92,85.26Z" transform="translate(-6.79 -21)"/><path class="cls-1" d="M99.06,85.42a.23.23,0,0,1,0-.29l.21-.38c.08-.16.2-.22.39-.09a2.68,2.68,0,0,0,1.66.6c.69,0,1.15-.32,1.15-.84s-.52-.9-1.49-1.38S99,82.13,99,81a1.84,1.84,0,0,1,2.07-1.75,3.52,3.52,0,0,1,1.91.52.32.32,0,0,1,.08.45l-.15.27a.32.32,0,0,1-.46.12,2.7,2.7,0,0,0-1.38-.39c-.74,0-1,.42-1,.74,0,.59.47.81,1.28,1.19,1.16.53,2.16,1,2.16,2.19a2,2,0,0,1-2.28,1.91A3.26,3.26,0,0,1,99.06,85.42Z" transform="translate(-6.79 -21)"/><path class="cls-1" d="M177.05,77.53a.29.29,0,0,1-.27-.29v-1a.28.28,0,0,1,.27-.28h6.22a.3.3,0,0,1,.29.28.4.4,0,0,1-.06.22l-4.39,9.24c-.11.25-.26.41-.51.41h-1.11c-.18,0-.36,0-.36-.29a.53.53,0,0,1,.07-.3L181,77.56v0Z" transform="translate(-6.79 -21)"/><path class="cls-1" d="M184.54,84.52l.76-.74a.25.25,0,0,1,.38,0,2.42,2.42,0,0,0,1.84.81,1.44,1.44,0,0,0,1.58-1.35c0-.95-.71-1.53-2.06-1.53h-.84a.27.27,0,0,1-.27-.29v-1c0-.2.1-.3.27-.3H187c1.24,0,1.86-.59,1.86-1.36a1.4,1.4,0,0,0-1.45-1.36,1.89,1.89,0,0,0-1.51.71.27.27,0,0,1-.4,0l-.73-.68a.26.26,0,0,1,0-.39,3.55,3.55,0,0,1,2.8-1.32c1.74,0,3.19,1.06,3.19,2.74a2.49,2.49,0,0,1-1.54,2.3v.06a2.66,2.66,0,0,1,1.8,2.42c0,1.7-1.38,2.91-3.44,2.91a3.93,3.93,0,0,1-3.1-1.31A.3.3,0,0,1,184.54,84.52Z" transform="translate(-6.79 -21)"/><path class="cls-1" d="M197.55,75.66a.31.31,0,0,1,.43.21l.34.88c.08.17,0,.35-.27.43-.7.22-2.81,1.15-3.28,2.8a3.82,3.82,0,0,1,1.7-.42,3,3,0,0,1,3,3.23,3.41,3.41,0,0,1-3.38,3.42c-2.33,0-3.55-1.86-3.55-4.11C192.58,77.74,196.28,76.08,197.55,75.66Zm.28,7.11A1.72,1.72,0,0,0,196.11,81a1.84,1.84,0,0,0-1.73,1.31c0,1,.54,2.23,1.74,2.23A1.71,1.71,0,0,0,197.83,82.77Z" transform="translate(-6.79 -21)"/><path class="cls-1" d="M201.92,83.82c.73,0,1.32.61,1.32,1.74a3.3,3.3,0,0,1-1.23,2.6c-.12.11-.21.06-.31,0l-.36-.34c-.1-.12,0-.22.07-.32a2.38,2.38,0,0,0,.81-1.39.72.72,0,0,0,0-.28.86.86,0,0,1-.49.15.92.92,0,0,1-.91-1A1.08,1.08,0,0,1,201.92,83.82Z" transform="translate(-6.79 -21)"/><path class="cls-1" d="M204.63,81c0-3.28,1.38-5.22,3.76-5.22s3.77,1.94,3.77,5.22-1.38,5.21-3.77,5.21S204.63,84.26,204.63,81Zm5.64,0c0-2.22-.72-3.5-1.88-3.5s-1.87,1.28-1.87,3.5.72,3.5,1.87,3.5S210.27,83.21,210.27,81Z" transform="translate(-6.79 -21)"/><path class="cls-1" d="M213.85,83.91a.3.3,0,0,1-.29-.29v-.94a.74.74,0,0,1,.19-.51l5.13-6.23a.43.43,0,0,1,.38-.16H220a.29.29,0,0,1,.29.29v6.29h1.19a.27.27,0,0,1,.29.26v1a.29.29,0,0,1-.29.29h-1.19l0,1.87a.29.29,0,0,1-.29.29h-1.24a.3.3,0,0,1-.29-.29V83.91Zm4.67-1.51V78.79h0l-2.93,3.58v0Z" transform="translate(-6.79 -21)"/><path class="cls-1" d="M223.35,83.91a.3.3,0,0,1-.29-.29v-.94a.74.74,0,0,1,.19-.51l5.13-6.23a.42.42,0,0,1,.38-.16h.71a.29.29,0,0,1,.29.29v6.29H231a.27.27,0,0,1,.29.26v1a.29.29,0,0,1-.29.29h-1.19v1.87a.29.29,0,0,1-.29.29h-1.23a.3.3,0,0,1-.29-.29V83.91ZM228,82.4V78.79h0l-2.93,3.58v0Z" transform="translate(-6.79 -21)"/><path class="cls-1" d="M262.49,78.92a.25.25,0,0,1-.31-.2L262.1,78a.28.28,0,0,1,.14-.32l1.86-1.57a.69.69,0,0,1,.5-.19h.76a.27.27,0,0,1,.27.28v9.58a.27.27,0,0,1-.27.29h-1.28a.28.28,0,0,1-.29-.29V78.63Z" transform="translate(-6.79 -21)"/><path class="cls-1" d="M267.77,81c0-3.28,1.37-5.22,3.75-5.22s3.77,1.94,3.77,5.22-1.38,5.21-3.77,5.21S267.77,84.26,267.77,81Zm5.63,0c0-2.22-.72-3.5-1.88-3.5s-1.87,1.28-1.87,3.5.72,3.5,1.87,3.5S273.4,83.21,273.4,81Z" transform="translate(-6.79 -21)"/><path class="cls-1" d="M276.78,81c0-3.28,1.38-5.22,3.76-5.22s3.77,1.94,3.77,5.22-1.38,5.21-3.77,5.21S276.78,84.26,276.78,81Zm5.64,0c0-2.22-.72-3.5-1.88-3.5s-1.87,1.28-1.87,3.5.72,3.5,1.87,3.5S282.42,83.21,282.42,81Z" transform="translate(-6.79 -21)"/><path class="cls-1" d="M286.35,83.82a1.21,1.21,0,1,1,0,2.41,1.21,1.21,0,0,1,0-2.41Z" transform="translate(-6.79 -21)"/><path class="cls-1" d="M288.69,81c0-3.28,1.38-5.22,3.75-5.22s3.77,1.94,3.77,5.22-1.38,5.21-3.77,5.21S288.69,84.26,288.69,81Zm5.64,0c0-2.22-.73-3.5-1.89-3.5s-1.87,1.28-1.87,3.5.73,3.5,1.87,3.5S294.33,83.21,294.33,81Z" transform="translate(-6.79 -21)"/><path class="cls-1" d="M312.71,76.92a.29.29,0,0,1-.27-.29V76.2a.28.28,0,0,1,.27-.28h6a.26.26,0,0,1,.29.28.48.48,0,0,1-.08.25l-4.29,9.23a.56.56,0,0,1-.49.39h-.43a.29.29,0,0,1-.28-.29.76.76,0,0,1,.1-.36l4-8.47v0Z" transform="translate(-6.79 -21)"/><path class="cls-1" d="M320,81c0-3.28,1.32-5.22,3.63-5.22s3.64,1.94,3.64,5.22-1.32,5.21-3.64,5.21S320,84.26,320,81Zm6.14,0c0-2.71-.86-4.21-2.51-4.21s-2.5,1.5-2.5,4.21.86,4.2,2.5,4.2S326.13,83.72,326.13,81Z" transform="translate(-6.79 -21)"/><path class="cls-1" d="M329.48,78.6c-.12.09-.24.11-.34,0l-.29-.32a.23.23,0,0,1,0-.32l2-1.93a.31.31,0,0,1,.24-.1h.27a.28.28,0,0,1,.27.28v9.58a.29.29,0,0,1-.27.29h-.54a.29.29,0,0,1-.29-.29v-8h0Z" transform="translate(-6.79 -21)"/><path class="cls-1" d="M335,84.48c.71,0,1.09.71,1.09,1.59a2.45,2.45,0,0,1-.87,2c-.09.07-.16.07-.23,0l-.25-.24c-.08-.08,0-.18,0-.26a1.68,1.68,0,0,0,.65-1.29,1,1,0,0,0,0-.33,1.07,1.07,0,0,1-.48.13.69.69,0,0,1-.7-.71A.79.79,0,0,1,335,84.48Z" transform="translate(-6.79 -21)"/><path class="cls-1" d="M337.89,76.92a.3.3,0,0,1-.28-.29V76.2a.29.29,0,0,1,.28-.28h6a.26.26,0,0,1,.29.28.53.53,0,0,1-.07.25l-4.29,9.23a.59.59,0,0,1-.5.39h-.43a.29.29,0,0,1-.28-.29.76.76,0,0,1,.1-.36L342.76,77v0Z" transform="translate(-6.79 -21)"/><path class="cls-1" d="M345.54,84.53l.41-.34a.25.25,0,0,1,.4.07,3,3,0,0,0,2.24,1,2,2,0,0,0,2.14-1.89c0-1.11-.8-1.92-2.64-1.92h-.84c-.16,0-.29-.09-.29-.34v-.36c0-.23.08-.32.32-.32h.83c1.59,0,2.36-.83,2.36-1.81a1.85,1.85,0,0,0-2-1.89,2.53,2.53,0,0,0-1.95,1,.24.24,0,0,1-.38,0l-.36-.27a.27.27,0,0,1,0-.39,3.81,3.81,0,0,1,2.69-1.32c1.82,0,3.09,1,3.09,2.72a2.79,2.79,0,0,1-1.55,2.37v0a2.68,2.68,0,0,1,1.8,2.38c0,1.69-1.25,2.92-3.32,2.92a3.74,3.74,0,0,1-3-1.31A.26.26,0,0,1,345.54,84.53Z" transform="translate(-6.79 -21)"/><path class="cls-1" d="M353.56,83.77a.3.3,0,0,1-.29-.28v-.41a.43.43,0,0,1,.09-.26L358.88,76a.34.34,0,0,1,.35-.17h.25a.29.29,0,0,1,.27.29v6.78H361a.26.26,0,0,1,.27.26v.38a.28.28,0,0,1-.27.28h-1.22v2a.29.29,0,0,1-.27.29H359a.3.3,0,0,1-.29-.29v-2Zm1-1v.07h4.19v-5.2h0Z" transform="translate(-6.79 -21)"/><path class="cls-1" d="M405.14,78.6c-.12.09-.23.11-.34,0l-.29-.32a.23.23,0,0,1,0-.32l2-1.93a.32.32,0,0,1,.25-.1H407a.28.28,0,0,1,.27.28v9.58a.29.29,0,0,1-.27.29h-.54a.29.29,0,0,1-.29-.29v-8h0Z" transform="translate(-6.79 -21)"/><path class="cls-1" d="M409.75,81c0-3.28,1.32-5.22,3.62-5.22S417,77.72,417,81s-1.32,5.21-3.64,5.21S409.75,84.26,409.75,81Zm6.13,0c0-2.71-.85-4.21-2.51-4.21s-2.49,1.5-2.49,4.21.86,4.2,2.49,4.2S415.88,83.72,415.88,81Z" transform="translate(-6.79 -21)"/><path class="cls-1" d="M418.81,81c0-3.28,1.32-5.22,3.63-5.22s3.63,1.94,3.63,5.22-1.31,5.21-3.63,5.21S418.81,84.26,418.81,81Zm6.13,0c0-2.71-.85-4.21-2.5-4.21s-2.5,1.5-2.5,4.21.86,4.2,2.5,4.2S424.94,83.72,424.94,81Z" transform="translate(-6.79 -21)"/><path class="cls-1" d="M472.74,83.77a.3.3,0,0,1-.29-.28v-.41a.5.5,0,0,1,.08-.26L478.06,76a.34.34,0,0,1,.35-.17h.24a.29.29,0,0,1,.28.29v6.78h1.21a.27.27,0,0,1,.28.26v.38a.29.29,0,0,1-.28.28h-1.21v2a.29.29,0,0,1-.28.29h-.48a.3.3,0,0,1-.29-.29v-2Zm.95-1v.07h4.19v-5.2h0Z" transform="translate(-6.79 -21)"/><path class="cls-1" d="M482.42,84.49a.85.85,0,0,1,.87.86.86.86,0,1,1-1.72,0A.85.85,0,0,1,482.42,84.49Z" transform="translate(-6.79 -21)"/><path class="cls-1" d="M485.64,85.78c-.07-.17,0-.33.26-.42.68-.23,3.34-1.58,3.86-3.6a4.37,4.37,0,0,1-2.26.69,3.16,3.16,0,0,1-3.22-3.25,3.38,3.38,0,0,1,3.3-3.42c2.43,0,3.48,1.88,3.48,4.26,0,4-3.4,5.68-4.91,6.29a.25.25,0,0,1-.33-.16ZM490,80.5a3.77,3.77,0,0,0,.06-.69c0-1.41-.69-3-2.43-3a2.36,2.36,0,0,0,0,4.72A3.59,3.59,0,0,0,490,80.5Z" transform="translate(-6.79 -21)"/><path class="cls-1" d="M16.12,100.2a.28.28,0,0,1,.27-.28h.55a.28.28,0,0,1,.28.28v6.1a2.74,2.74,0,1,0,5.48,0V100.2a.27.27,0,0,1,.27-.28h.55a.29.29,0,0,1,.28.28v6.19a3.69,3.69,0,0,1-3.86,3.82,3.67,3.67,0,0,1-3.82-3.82Z" transform="translate(-6.79 -21)"/><path class="cls-1" d="M25.93,104.3a.32.32,0,0,1-.33-.32v-.29a.31.31,0,0,1,.33-.32h.89v-1.86a.33.33,0,0,1,.32-.31l.45,0a.29.29,0,0,1,.3.32v1.88h2a.32.32,0,0,1,.34.32V104a.33.33,0,0,1-.34.32h-2v4a.9.9,0,0,0,.9,1,2.15,2.15,0,0,0,1-.29c.26-.16.36,0,.42.13l.12.29c.08.21.05.33-.12.43a3.34,3.34,0,0,1-1.58.41,1.84,1.84,0,0,1-1.84-2v-4Z" transform="translate(-6.79 -21)"/><path class="cls-1" d="M31.88,100.86a.79.79,0,1,1,1.58,0,.79.79,0,1,1-1.58,0Zm.27,2.83a.34.34,0,0,1,.32-.32h.44a.34.34,0,0,1,.32.32v6.06a.34.34,0,0,1-.32.32h-.44a.33.33,0,0,1-.32-.32Z" transform="translate(-6.79 -21)"/><path class="cls-1" d="M35.85,100.24a.34.34,0,0,1,.32-.32h.44a.34.34,0,0,1,.31.32v9.51a.33.33,0,0,1-.31.32h-.44a.33.33,0,0,1-.32-.32Z" transform="translate(-6.79 -21)"/><path class="cls-1" d="M39.27,100.86a.79.79,0,1,1,.79.79A.8.8,0,0,1,39.27,100.86Zm.28,2.83a.33.33,0,0,1,.32-.32h.43a.34.34,0,0,1,.32.32v6.06a.34.34,0,0,1-.32.32h-.43a.32.32,0,0,1-.32-.32Z" transform="translate(-6.79 -21)"/><path class="cls-1" d="M45.93,103.23a4.11,4.11,0,0,1,1.85.42v-3.41a.34.34,0,0,1,.32-.32h.41a.35.35,0,0,1,.33.32v9.62a.24.24,0,0,1-.26.26c-.42,0-.65-.31-.71-.75a3,3,0,0,1-5.12-2.67A3.16,3.16,0,0,1,45.93,103.23Zm0,6a2.46,2.46,0,0,0,1.9-1.08v-3.61a4.45,4.45,0,0,0-1.71-.37,2.29,2.29,0,0,0-2.23,2.52A2.34,2.34,0,0,0,45.88,109.26Z" transform="translate(-6.79 -21)"/><path class="cls-1" d="M53.56,105.82A5.63,5.63,0,0,1,55,106c0-1.23-.58-1.84-1.54-1.84a4.11,4.11,0,0,0-1.55.39c-.17.07-.26,0-.32-.18l-.14-.39c-.06-.2,0-.29.2-.36a4.42,4.42,0,0,1,1.87-.43c1.71,0,2.51,1,2.51,2.81v3.82a.24.24,0,0,1-.26.26c-.44,0-.67-.33-.71-.78a2.89,2.89,0,0,1-2.1.89A2,2,0,0,1,50.87,108C50.87,106.76,51.83,105.82,53.56,105.82Zm-.43,3.44a2.36,2.36,0,0,0,1.85-.9V107a3.57,3.57,0,0,0-1.42-.26c-.93,0-1.63.45-1.63,1.31A1.17,1.17,0,0,0,53.13,109.26Z" transform="translate(-6.79 -21)"/><path class="cls-1" d="M61.27,103.23a4.11,4.11,0,0,1,1.85.42v-3.41a.34.34,0,0,1,.32-.32h.41a.35.35,0,0,1,.33.32v9.62a.24.24,0,0,1-.26.26c-.42,0-.65-.31-.71-.75a3,3,0,0,1-5.12-2.67A3.16,3.16,0,0,1,61.27,103.23Zm0,6a2.45,2.45,0,0,0,1.89-1.08v-3.61a4.45,4.45,0,0,0-1.71-.37,2.29,2.29,0,0,0-2.23,2.52A2.34,2.34,0,0,0,61.23,109.26Z" transform="translate(-6.79 -21)"/><path class="cls-1" d="M70.49,100.24a.32.32,0,0,1,.31-.32h.43a.34.34,0,0,1,.32.32v3.41a4.07,4.07,0,0,1,1.86-.42,3.15,3.15,0,0,1,3.16,3.47,3.28,3.28,0,0,1-3,3.53,2.92,2.92,0,0,1-2.11-.86c0,.44-.28.75-.7.75a.24.24,0,0,1-.26-.26Zm1.06,7.91a2.48,2.48,0,0,0,1.9,1.11,2.32,2.32,0,0,0,2-2.54,2.28,2.28,0,0,0-2.23-2.52,4,4,0,0,0-1.7.42Z" transform="translate(-6.79 -21)"/><path class="cls-1" d="M78.7,103.57a.24.24,0,0,1,.26-.26c.42,0,.65.32.7.76a2.73,2.73,0,0,1,2-.84c.51,0,1.34.07,1.18.53l-.19.52a.25.25,0,0,1-.39.16,1.74,1.74,0,0,0-.73-.19,2.11,2.11,0,0,0-1.81.86v4.64a.34.34,0,0,1-.32.32H79a.32.32,0,0,1-.32-.32Z" transform="translate(-6.79 -21)"/><path class="cls-1" d="M84.51,103.69a.32.32,0,0,1,.32-.32h.44a.34.34,0,0,1,.32.32v3.62c0,1.34.43,2,1.4,2a2.47,2.47,0,0,0,1.9-1v-4.59a.32.32,0,0,1,.3-.32h.45a.33.33,0,0,1,.31.32v6.17a.24.24,0,0,1-.26.26c-.44,0-.67-.31-.71-.76a2.72,2.72,0,0,1-2.08.87c-1.92,0-2.39-1.16-2.39-2.93Z" transform="translate(-6.79 -21)"/><path class="cls-1" d="M92.05,104.3a.32.32,0,0,1-.33-.32v-.29a.31.31,0,0,1,.33-.32h.89v-1.86a.33.33,0,0,1,.32-.31l.45,0a.29.29,0,0,1,.3.32v1.88h2a.31.31,0,0,1,.33.32V104a.32.32,0,0,1-.33.32H94v4a.89.89,0,0,0,.9,1,2.18,2.18,0,0,0,1-.29c.26-.16.36,0,.42.13l.11.29c.09.21.06.33-.11.43a3.34,3.34,0,0,1-1.58.41,1.84,1.84,0,0,1-1.84-2v-4Z" transform="translate(-6.79 -21)"/><path class="cls-1" d="M100.45,105.82a5.63,5.63,0,0,1,1.43.22c0-1.23-.58-1.84-1.53-1.84a4.06,4.06,0,0,0-1.55.39c-.18.07-.27,0-.32-.18l-.15-.39c-.06-.2,0-.29.2-.36a4.46,4.46,0,0,1,1.87-.43c1.71,0,2.51,1,2.51,2.81v3.82a.24.24,0,0,1-.26.26c-.43,0-.67-.33-.71-.78a2.89,2.89,0,0,1-2.1.89A2,2,0,0,1,97.77,108C97.77,106.76,98.72,105.82,100.45,105.82Zm-.42,3.44a2.35,2.35,0,0,0,1.84-.9V107a3.57,3.57,0,0,0-1.42-.26c-.93,0-1.63.45-1.63,1.31A1.17,1.17,0,0,0,100,109.26Z" transform="translate(-6.79 -21)"/><path class="cls-1" d="M182.56,102.92a.24.24,0,0,1-.3-.2l-.09-.73a.31.31,0,0,1,.15-.32l1.85-1.56a.74.74,0,0,1,.51-.19h.75a.28.28,0,0,1,.28.28v9.58a.28.28,0,0,1-.28.29h-1.27a.28.28,0,0,1-.29-.29v-7.15Z" transform="translate(-6.79 -21)"/><path class="cls-1" d="M188,101.53a.29.29,0,0,1-.27-.29v-1a.28.28,0,0,1,.27-.28h6.22a.3.3,0,0,1,.29.28.37.37,0,0,1-.06.21l-4.39,9.25c-.11.25-.26.41-.5.41h-1.12c-.18,0-.36,0-.36-.29a.59.59,0,0,1,.07-.31l3.78-7.91v0Z" transform="translate(-6.79 -21)"/><path class="cls-1" d="M196.08,102.92a.25.25,0,0,1-.31-.2l-.08-.73c0-.16,0-.21.14-.32l1.86-1.56a.69.69,0,0,1,.5-.19H199a.27.27,0,0,1,.27.28v9.58a.27.27,0,0,1-.27.29h-1.28a.28.28,0,0,1-.29-.29v-7.15Z" transform="translate(-6.79 -21)"/><path class="cls-1" d="M202.51,107.82c.73,0,1.32.61,1.32,1.74a3.26,3.26,0,0,1-1.23,2.59c-.11.12-.2.06-.3,0l-.37-.35c-.1-.11,0-.21.08-.32a2.35,2.35,0,0,0,.81-1.39,1,1,0,0,0,0-.27,1,1,0,0,1-.5.14.92.92,0,0,1-.91-1A1.08,1.08,0,0,1,202.51,107.82Z" transform="translate(-6.79 -21)"/><path class="cls-1" d="M207.33,104.86v0a2.59,2.59,0,0,1-1.54-2.3c0-1.66,1.44-2.73,3.23-2.73s3.31,1.07,3.31,2.73a2.65,2.65,0,0,1-1.54,2.28v.07a2.75,2.75,0,0,1,1.81,2.5c0,1.62-1.37,2.85-3.58,2.85s-3.5-1.23-3.5-2.85A2.81,2.81,0,0,1,207.33,104.86Zm1.74,3.83a1.39,1.39,0,0,0,1.55-1.38,1.78,1.78,0,0,0-1.55-1.58,1.8,1.8,0,0,0-1.57,1.58A1.4,1.4,0,0,0,209.07,108.69Zm1.35-6.1a1.3,1.3,0,0,0-1.4-1.28,1.26,1.26,0,0,0-1.31,1.28c0,.66.42,1.17,1.36,1.4C210,103.78,210.42,103.23,210.42,102.59Z" transform="translate(-6.79 -21)"/><path class="cls-1" d="M214.3,107.91a.3.3,0,0,1-.29-.29v-.94a.7.7,0,0,1,.19-.51l5.13-6.24a.45.45,0,0,1,.38-.15h.71a.29.29,0,0,1,.29.29v6.29h1.19a.27.27,0,0,1,.29.26v1a.3.3,0,0,1-.29.29h-1.19l0,1.87a.3.3,0,0,1-.29.29H219.2a.3.3,0,0,1-.29-.29v-1.87ZM219,106.4v-3.61h0L216,106.37v0Z" transform="translate(-6.79 -21)"/><path class="cls-1" d="M223.68,105c0-3.27,1.38-5.21,3.76-5.21s3.77,1.94,3.77,5.21-1.38,5.22-3.77,5.22S223.68,108.26,223.68,105Zm5.64,0c0-2.21-.72-3.49-1.88-3.49s-1.87,1.28-1.87,3.49.72,3.51,1.87,3.51S229.32,107.21,229.32,105Z" transform="translate(-6.79 -21)"/><path class="cls-1" d="M276.2,108.47a.29.29,0,0,1,.29.28v1a.29.29,0,0,1-.29.29h-5.88a.28.28,0,0,1-.28-.29v-.15a.51.51,0,0,1,.12-.33c1-1.25,2.8-3.57,3.75-4.83a2.76,2.76,0,0,0,.76-1.65,1.41,1.41,0,0,0-1.58-1.35,2.47,2.47,0,0,0-1.67.87.26.26,0,0,1-.41,0l-.72-.71a.3.3,0,0,1,0-.39,4.19,4.19,0,0,1,3-1.46,3,3,0,0,1,3.33,3,4,4,0,0,1-1,2.4c-.62.9-1.75,2.29-2.54,3.29v0Z" transform="translate(-6.79 -21)"/><path class="cls-1" d="M278.07,108.52l.77-.74a.25.25,0,0,1,.38,0,2.45,2.45,0,0,0,1.84.81,1.44,1.44,0,0,0,1.58-1.35c0-1-.71-1.54-2.06-1.54h-.84a.26.26,0,0,1-.27-.29v-.94c0-.2.1-.3.27-.3h.84c1.23,0,1.86-.6,1.86-1.37a1.4,1.4,0,0,0-1.45-1.36,1.92,1.92,0,0,0-1.51.71.29.29,0,0,1-.41,0l-.72-.68a.27.27,0,0,1,0-.4,3.53,3.53,0,0,1,2.8-1.31c1.74,0,3.19,1,3.19,2.73a2.5,2.5,0,0,1-1.54,2.31v.06a2.64,2.64,0,0,1,1.8,2.42c0,1.7-1.38,2.91-3.44,2.91a3.9,3.9,0,0,1-3.1-1.32A.3.3,0,0,1,278.07,108.52Z" transform="translate(-6.79 -21)"/><path class="cls-1" d="M287.06,107.82a1.21,1.21,0,1,1-1.2,1.2A1.23,1.23,0,0,1,287.06,107.82Z" transform="translate(-6.79 -21)"/><path class="cls-1" d="M289.69,108.52l.77-.74a.23.23,0,0,1,.37,0,2.45,2.45,0,0,0,1.84.81,1.44,1.44,0,0,0,1.59-1.35c0-1-.71-1.54-2.06-1.54h-.84a.27.27,0,0,1-.28-.29v-.94c0-.2.1-.3.28-.3h.84c1.23,0,1.85-.6,1.85-1.37a1.39,1.39,0,0,0-1.45-1.36,1.92,1.92,0,0,0-1.51.71.27.27,0,0,1-.4,0l-.73-.68a.27.27,0,0,1,0-.4,3.56,3.56,0,0,1,2.8-1.31c1.74,0,3.19,1,3.19,2.73a2.5,2.5,0,0,1-1.54,2.31v.06a2.64,2.64,0,0,1,1.8,2.42c0,1.7-1.37,2.91-3.43,2.91a3.93,3.93,0,0,1-3.11-1.32A.3.3,0,0,1,289.69,108.52Z" transform="translate(-6.79 -21)"/><path class="cls-1" d="M310.63,102.6a.23.23,0,0,1-.34,0l-.29-.32a.23.23,0,0,1,0-.32l2-1.93a.32.32,0,0,1,.25-.1h.26a.28.28,0,0,1,.27.28v9.58a.29.29,0,0,1-.27.29H312a.29.29,0,0,1-.29-.29v-8h0Z" transform="translate(-6.79 -21)"/><path class="cls-1" d="M320.22,99.67a.26.26,0,0,1,.34.15l.16.36c.08.18,0,.32-.26.44-.9.37-3.32,1.59-3.85,3.61a4.48,4.48,0,0,1,2.28-.67,3.15,3.15,0,0,1,3.2,3.23,3.37,3.37,0,0,1-3.29,3.42c-2.42,0-3.48-1.87-3.48-4.25C315.32,102,318.72,100.27,320.22,99.67Zm.82,7.19a2.28,2.28,0,0,0-2.25-2.33,3.65,3.65,0,0,0-2.36,1,3.15,3.15,0,0,0-.06.7c0,1.4.68,3,2.43,3A2.32,2.32,0,0,0,321,106.86Z" transform="translate(-6.79 -21)"/><path class="cls-1" d="M329.61,109.1a.29.29,0,0,1,.29.29v.39a.29.29,0,0,1-.29.29h-5.67a.28.28,0,0,1-.29-.29v-.21a.49.49,0,0,1,.19-.43c1.16-1.25,2.3-2.52,3.48-3.76a4.58,4.58,0,0,0,1.5-2.71,1.88,1.88,0,0,0-2.1-1.88,3.12,3.12,0,0,0-2.12,1.13.27.27,0,0,1-.4,0l-.29-.29a.3.3,0,0,1,0-.39,3.79,3.79,0,0,1,2.83-1.46c2.15,0,3.23,1.34,3.23,2.87,0,1.31-.84,2.29-1.87,3.39l-2.84,3v0Z" transform="translate(-6.79 -21)"/><path class="cls-1" d="M332.75,108.47c.71,0,1.09.71,1.09,1.6a2.41,2.41,0,0,1-.87,2c-.09.08-.16.08-.23,0l-.25-.23a.18.18,0,0,1,0-.26,1.7,1.7,0,0,0,.65-1.29,1,1,0,0,0-.05-.33,1.11,1.11,0,0,1-.48.13.69.69,0,0,1-.7-.71A.8.8,0,0,1,332.75,108.47Z" transform="translate(-6.79 -21)"/><path class="cls-1" d="M335.42,105c0-3.27,1.32-5.21,3.63-5.21s3.63,1.94,3.63,5.21-1.31,5.22-3.63,5.22S335.42,108.26,335.42,105Zm6.13,0c0-2.71-.85-4.2-2.5-4.2s-2.5,1.49-2.5,4.2.86,4.21,2.5,4.21S341.55,107.72,341.55,105Z" transform="translate(-6.79 -21)"/><path class="cls-1" d="M344.41,107.76a.29.29,0,0,1-.29-.27v-.41a.43.43,0,0,1,.09-.26l5.52-6.87a.34.34,0,0,1,.35-.17h.25a.29.29,0,0,1,.27.29v6.78h1.22a.25.25,0,0,1,.27.26v.38a.27.27,0,0,1-.27.27H350.6v2a.29.29,0,0,1-.27.29h-.48a.3.3,0,0,1-.29-.29v-2Zm1-1v.07h4.19v-5.2h0Z" transform="translate(-6.79 -21)"/><path class="cls-1" d="M353.78,105c0-3.27,1.32-5.21,3.62-5.21S361,101.72,361,105s-1.32,5.22-3.64,5.22S353.78,108.26,353.78,105Zm6.13,0c0-2.71-.85-4.2-2.51-4.2s-2.49,1.49-2.49,4.2.85,4.21,2.49,4.21S359.91,107.72,359.91,105Z" transform="translate(-6.79 -21)"/><path class="cls-1" d="M410.56,109.1a.29.29,0,0,1,.29.29v.39a.29.29,0,0,1-.29.29h-5.67a.28.28,0,0,1-.29-.29v-.21a.49.49,0,0,1,.19-.43c1.16-1.25,2.3-2.52,3.48-3.76a4.61,4.61,0,0,0,1.51-2.71,1.88,1.88,0,0,0-2.11-1.88,3.08,3.08,0,0,0-2.11,1.13.28.28,0,0,1-.41,0l-.29-.29a.31.31,0,0,1,0-.39,3.79,3.79,0,0,1,2.82-1.46c2.15,0,3.24,1.34,3.24,2.87,0,1.31-.84,2.29-1.87,3.39l-2.84,3v0Z" transform="translate(-6.79 -21)"/><path class="cls-1" d="M412.71,108.53l.4-.35a.26.26,0,0,1,.41.08,3,3,0,0,0,2.23,1,2,2,0,0,0,2.15-1.88c0-1.12-.8-1.93-2.64-1.93h-.84c-.16,0-.29-.09-.29-.33v-.36c0-.24.07-.32.32-.32h.82c1.6,0,2.37-.83,2.37-1.81a1.85,1.85,0,0,0-2-1.89,2.58,2.58,0,0,0-2,1,.24.24,0,0,1-.38,0l-.36-.27a.29.29,0,0,1,0-.4,3.85,3.85,0,0,1,2.7-1.31c1.81,0,3.09,1,3.09,2.72a2.76,2.76,0,0,1-1.56,2.36v0a2.66,2.66,0,0,1,1.8,2.37c0,1.7-1.24,2.93-3.32,2.93a3.74,3.74,0,0,1-3-1.32A.25.25,0,0,1,412.71,108.53Z" transform="translate(-6.79 -21)"/><path class="cls-1" d="M421.19,108.49a.85.85,0,0,1,.87.85.87.87,0,1,1-1.73,0A.85.85,0,0,1,421.19,108.49Z" transform="translate(-6.79 -21)"/><path class="cls-1" d="M423.28,102.6a.23.23,0,0,1-.34,0l-.29-.32a.23.23,0,0,1,0-.32l2-1.93a.32.32,0,0,1,.25-.1h.26a.28.28,0,0,1,.27.28v9.58a.29.29,0,0,1-.27.29h-.54a.29.29,0,0,1-.29-.29v-8h0Z" transform="translate(-6.79 -21)"/><path class="cls-1" d="M477.49,99.67a.26.26,0,0,1,.34.15l.16.36c.08.18,0,.32-.27.44-.89.37-3.32,1.59-3.84,3.61a4.48,4.48,0,0,1,2.28-.67,3.15,3.15,0,0,1,3.2,3.23,3.38,3.38,0,0,1-3.29,3.42c-2.42,0-3.48-1.87-3.48-4.25C472.59,102,476,100.27,477.49,99.67Zm.81,7.19a2.28,2.28,0,0,0-2.24-2.33,3.69,3.69,0,0,0-2.37,1,3.91,3.91,0,0,0-.05.7c0,1.4.68,3,2.43,3A2.31,2.31,0,0,0,478.3,106.86Z" transform="translate(-6.79 -21)"/><path class="cls-1" d="M481.63,108.49a.85.85,0,0,1,.87.85.87.87,0,1,1-1.73,0A.85.85,0,0,1,481.63,108.49Z" transform="translate(-6.79 -21)"/><path class="cls-1" d="M483.83,105c0-3.27,1.32-5.21,3.62-5.21s3.64,1.94,3.64,5.21-1.32,5.22-3.64,5.22S483.83,108.26,483.83,105Zm6.13,0c0-2.71-.85-4.2-2.51-4.2S485,102.28,485,105s.86,4.21,2.49,4.21S490,107.72,490,105Z" transform="translate(-6.79 -21)"/><path class="cls-1" d="M20.83,123.77a5.12,5.12,0,0,1,3.51,1.35.29.29,0,0,1,0,.41c-.13.13-.29.27-.4.4s-.22.13-.38,0a4.41,4.41,0,0,0-2.76-1.13,4.18,4.18,0,0,0,0,8.35,5.43,5.43,0,0,0,2.61-.61v-2H21.76a.27.27,0,0,1-.28-.26v-.54a.27.27,0,0,1,.28-.27h2.5a.28.28,0,0,1,.27.27V133a.35.35,0,0,1-.12.23,7.14,7.14,0,0,1-3.58,1,5.22,5.22,0,1,1,0-10.44Z" transform="translate(-6.79 -21)"/><path class="cls-1" d="M29.07,129.82a5.63,5.63,0,0,1,1.43.22c0-1.24-.58-1.85-1.54-1.85a3.9,3.9,0,0,0-1.55.4c-.17.07-.26,0-.32-.18L27,128c-.06-.2,0-.29.2-.36a4.24,4.24,0,0,1,1.87-.44c1.71,0,2.51,1,2.51,2.82v3.82a.24.24,0,0,1-.26.26c-.44,0-.67-.33-.71-.78a2.93,2.93,0,0,1-2.1.88A2,2,0,0,1,26.38,132C26.38,130.76,27.34,129.82,29.07,129.82Zm-.42,3.43a2.32,2.32,0,0,0,1.84-.9V131a3.57,3.57,0,0,0-1.42-.26c-.93,0-1.63.45-1.63,1.31A1.16,1.16,0,0,0,28.65,133.25Z" transform="translate(-6.79 -21)"/><path class="cls-1" d="M33.66,133.41a.23.23,0,0,1,0-.29l.2-.37c.09-.16.2-.22.39-.09a2.78,2.78,0,0,0,1.67.59c.68,0,1.15-.32,1.15-.84s-.53-.9-1.5-1.37-1.9-.92-1.9-2.06a1.85,1.85,0,0,1,2.08-1.76,3.43,3.43,0,0,1,1.91.53.31.31,0,0,1,.07.44l-.14.28a.34.34,0,0,1-.47.12,2.56,2.56,0,0,0-1.37-.4c-.74,0-1,.43-1,.74,0,.6.46.82,1.28,1.19,1.16.54,2.16,1,2.16,2.19a2.06,2.06,0,0,1-2.28,1.91A3.29,3.29,0,0,1,33.66,133.41Z" transform="translate(-6.79 -21)"/><path class="cls-1" d="M39.74,128.3a.33.33,0,0,1-.34-.32v-.29a.32.32,0,0,1,.34-.32h.88v-1.86a.35.35,0,0,1,.32-.32l.45,0a.29.29,0,0,1,.3.31v1.89h2a.31.31,0,0,1,.33.32V128a.32.32,0,0,1-.33.32h-2v3.95a.89.89,0,0,0,.9,1,2,2,0,0,0,1-.29c.26-.16.37,0,.42.13l.12.29c.09.22.06.34-.12.44a3.48,3.48,0,0,1-1.58.4,1.84,1.84,0,0,1-1.84-2V128.3Z" transform="translate(-6.79 -21)"/><path class="cls-1" d="M48.9,127.22a3.5,3.5,0,1,1-3.36,3.48A3.45,3.45,0,0,1,48.9,127.22Zm0,6a2.54,2.54,0,1,0-2.3-2.55A2.41,2.41,0,0,0,48.9,133.25Z" transform="translate(-6.79 -21)"/><path class="cls-1" d="M54,133.41a.23.23,0,0,1,0-.29l.2-.37c.09-.16.2-.22.39-.09a2.76,2.76,0,0,0,1.67.59c.68,0,1.14-.32,1.14-.84s-.52-.9-1.49-1.37S54,130.12,54,129a1.84,1.84,0,0,1,2.07-1.76,3.47,3.47,0,0,1,1.92.53.31.31,0,0,1,.07.44l-.15.28a.33.33,0,0,1-.46.12,2.57,2.57,0,0,0-1.38-.4c-.74,0-1,.43-1,.74,0,.6.46.82,1.27,1.19,1.16.54,2.16,1,2.16,2.19a2,2,0,0,1-2.27,1.91A3.29,3.29,0,0,1,54,133.41Z" transform="translate(-6.79 -21)"/><path class="cls-1" d="M70,134.11c0,2.29-1.4,3.13-2.93,3.13a3.79,3.79,0,0,1-2.33-.87.31.31,0,0,1-.07-.39l.29-.42c.1-.16.27-.16.43,0a2.67,2.67,0,0,0,1.68.71c1.06,0,1.87-.58,1.87-2.14v-.48a3.23,3.23,0,0,1-1.85.59,3.52,3.52,0,0,1,0-7,3.37,3.37,0,0,1,2,.7.69.69,0,0,1,.68-.61.24.24,0,0,1,.26.26Zm-2.77-.87a3.28,3.28,0,0,0,1.7-.55V129a2.49,2.49,0,0,0-1.77-.81A2.3,2.3,0,0,0,65,130.7,2.35,2.35,0,0,0,67.21,133.24Z" transform="translate(-6.79 -21)"/><path class="cls-1" d="M75.36,127.22a2.94,2.94,0,0,1,3,3.05,2.69,2.69,0,0,1,0,.4.3.3,0,0,1-.3.29H73.19a2.35,2.35,0,0,0,2.19,2.29,3.1,3.1,0,0,0,1.81-.55c.23-.16.33-.21.51.05l.17.24c.13.21.19.28-.06.47a4.1,4.1,0,0,1-2.45.76,3.51,3.51,0,0,1,0-7Zm2,2.89a2,2,0,0,0-2-1.92,2.19,2.19,0,0,0-2.16,1.92Z" transform="translate(-6.79 -21)"/><path class="cls-1" d="M80.44,127.57a.24.24,0,0,1,.26-.26c.42,0,.65.32.7.75a3.48,3.48,0,0,1,2.24-.84c2,0,2.42,1.26,2.42,3v3.54a.34.34,0,0,1-.32.32h-.43a.33.33,0,0,1-.32-.32v-3.69c0-1.27-.43-1.87-1.42-1.87a2.94,2.94,0,0,0-2.06.93v4.63a.34.34,0,0,1-.32.32h-.43a.32.32,0,0,1-.32-.32Z" transform="translate(-6.79 -21)"/><path class="cls-1" d="M91.37,127.22a3,3,0,0,1,3,3.05,2.69,2.69,0,0,1,0,.4.3.3,0,0,1-.3.29H89.2a2.35,2.35,0,0,0,2.18,2.29,3.11,3.11,0,0,0,1.82-.55c.23-.16.33-.21.5.05l.18.24c.13.21.19.28-.06.47a4.12,4.12,0,0,1-2.45.76,3.51,3.51,0,0,1,0-7Zm2,2.89a2,2,0,0,0-2-1.92,2.19,2.19,0,0,0-2.16,1.92Z" transform="translate(-6.79 -21)"/><path class="cls-1" d="M96.45,127.57a.24.24,0,0,1,.26-.26c.42,0,.65.32.69.75a2.81,2.81,0,0,1,2.06-.84c.51,0,1.34.08,1.18.54l-.19.52a.26.26,0,0,1-.39.16,1.74,1.74,0,0,0-.73-.19,2.11,2.11,0,0,0-1.81.86v4.64a.34.34,0,0,1-.32.32h-.43a.32.32,0,0,1-.32-.32Z" transform="translate(-6.79 -21)"/><path class="cls-1" d="M104.42,129.82a5.76,5.76,0,0,1,1.44.22c0-1.24-.58-1.85-1.54-1.85a3.85,3.85,0,0,0-1.55.4c-.18.07-.26,0-.32-.18l-.15-.39c0-.2,0-.29.21-.36a4.2,4.2,0,0,1,1.87-.44c1.71,0,2.5,1,2.5,2.82v3.82a.24.24,0,0,1-.26.26c-.43,0-.66-.33-.71-.78a2.89,2.89,0,0,1-2.1.88,2,2,0,0,1-2.07-2.18C101.74,130.76,102.7,129.82,104.42,129.82Zm-.42,3.43a2.31,2.31,0,0,0,1.84-.9V131a3.53,3.53,0,0,0-1.42-.26c-.93,0-1.62.45-1.62,1.31A1.15,1.15,0,0,0,104,133.25Z" transform="translate(-6.79 -21)"/><path class="cls-1" d="M109.45,124.24a.34.34,0,0,1,.32-.32h.44a.34.34,0,0,1,.32.32v9.51a.34.34,0,0,1-.32.32h-.44a.33.33,0,0,1-.32-.32Z" transform="translate(-6.79 -21)"/><path class="cls-1" d="M116,127.22a3,3,0,0,1,3,3.05c0,.11,0,.29,0,.4a.31.31,0,0,1-.31.29H113.8a2.35,2.35,0,0,0,2.19,2.29,3,3,0,0,0,1.81-.55c.23-.16.34-.21.51.05l.17.24c.13.21.19.28,0,.47a4.12,4.12,0,0,1-2.45.76,3.51,3.51,0,0,1,0-7Zm2,2.89a2,2,0,0,0-2-1.92,2.19,2.19,0,0,0-2.16,1.92Z" transform="translate(-6.79 -21)"/><path class="cls-1" d="M120.7,133.41a.23.23,0,0,1,0-.29l.2-.37a.24.24,0,0,1,.4-.09,2.75,2.75,0,0,0,1.66.59c.68,0,1.15-.32,1.15-.84s-.52-.9-1.5-1.37-1.89-.92-1.89-2.06a1.84,1.84,0,0,1,2.07-1.76,3.43,3.43,0,0,1,1.91.53.3.3,0,0,1,.07.44l-.14.28a.33.33,0,0,1-.46.12,2.6,2.6,0,0,0-1.38-.4c-.74,0-1,.43-1,.74,0,.6.47.82,1.28,1.19,1.16.54,2.16,1,2.16,2.19a2.06,2.06,0,0,1-2.28,1.91A3.31,3.31,0,0,1,120.7,133.41Z" transform="translate(-6.79 -21)"/><path class="cls-1" d="M190.35,126.92a.24.24,0,0,1-.3-.2L190,126a.28.28,0,0,1,.14-.32l1.86-1.56a.7.7,0,0,1,.51-.19h.75a.28.28,0,0,1,.28.27v9.59a.29.29,0,0,1-.28.29h-1.28a.29.29,0,0,1-.29-.29v-7.15Z" transform="translate(-6.79 -21)"/><path class="cls-1" d="M195.82,126.92a.25.25,0,0,1-.31-.2l-.09-.73a.3.3,0,0,1,.15-.32l1.86-1.56a.69.69,0,0,1,.5-.19h.76a.27.27,0,0,1,.27.27v9.59a.28.28,0,0,1-.27.29h-1.28a.29.29,0,0,1-.29-.29v-7.15Z" transform="translate(-6.79 -21)"/><path class="cls-1" d="M201.17,129c0-3.27,1.37-5.22,3.75-5.22s3.77,2,3.77,5.22-1.38,5.22-3.77,5.22S201.17,132.25,201.17,129Zm5.64,0c0-2.22-.73-3.49-1.89-3.49s-1.87,1.27-1.87,3.49.73,3.51,1.87,3.51S206.81,131.21,206.81,129Z" transform="translate(-6.79 -21)"/><path class="cls-1" d="M210.92,131.82c.73,0,1.32.61,1.32,1.74a3.29,3.29,0,0,1-1.23,2.59c-.11.12-.2.06-.3,0l-.37-.35c-.1-.11,0-.22.08-.32a2.38,2.38,0,0,0,.81-1.39.91.91,0,0,0,0-.27,1,1,0,0,1-.5.14.92.92,0,0,1-.91-1A1.08,1.08,0,0,1,210.92,131.82Z" transform="translate(-6.79 -21)"/><path class="cls-1" d="M213.35,126.92a.25.25,0,0,1-.31-.2L213,126a.28.28,0,0,1,.14-.32l1.86-1.56a.69.69,0,0,1,.5-.19h.76a.27.27,0,0,1,.27.27v9.59a.28.28,0,0,1-.27.29h-1.28a.29.29,0,0,1-.29-.29v-7.15Z" transform="translate(-6.79 -21)"/><path class="cls-1" d="M220.51,128.86v-.06a2.56,2.56,0,0,1-1.54-2.29c0-1.66,1.44-2.74,3.23-2.74s3.31,1.08,3.31,2.74a2.66,2.66,0,0,1-1.54,2.28v.07a2.74,2.74,0,0,1,1.82,2.49c0,1.63-1.38,2.86-3.59,2.86s-3.5-1.23-3.5-2.86A2.81,2.81,0,0,1,220.51,128.86Zm1.74,3.83a1.39,1.39,0,0,0,1.55-1.38,1.77,1.77,0,0,0-1.55-1.58,1.79,1.79,0,0,0-1.57,1.58A1.4,1.4,0,0,0,222.25,132.69Zm1.35-6.1a1.3,1.3,0,0,0-1.4-1.28,1.26,1.26,0,0,0-1.31,1.28c0,.66.42,1.17,1.36,1.4C223.16,127.77,223.6,127.22,223.6,126.59Z" transform="translate(-6.79 -21)"/><path class="cls-1" d="M227.48,126.92a.24.24,0,0,1-.3-.2l-.09-.73a.3.3,0,0,1,.15-.32l1.85-1.56a.74.74,0,0,1,.51-.19h.75a.28.28,0,0,1,.28.27v9.59a.29.29,0,0,1-.28.29h-1.27a.28.28,0,0,1-.29-.29v-7.15Z" transform="translate(-6.79 -21)"/><path class="cls-1" d="M271.81,126.92a.24.24,0,0,1-.3-.2l-.09-.73a.28.28,0,0,1,.14-.32l1.86-1.56a.72.72,0,0,1,.51-.19h.75a.28.28,0,0,1,.28.27v9.59a.29.29,0,0,1-.28.29h-1.27a.28.28,0,0,1-.29-.29v-7.15Z" transform="translate(-6.79 -21)"/><path class="cls-1" d="M277.32,132.47l.74-.74a.26.26,0,0,1,.36,0,3,3,0,0,0,1.93.84,1.73,1.73,0,0,0,1.73-1.77,1.64,1.64,0,0,0-1.8-1.67H278a.48.48,0,0,1-.46-.52v-4.41a.28.28,0,0,1,.29-.27h4.71a.29.29,0,0,1,.29.27v1a.29.29,0,0,1-.29.29h-3.32v2h1.29a3.17,3.17,0,0,1,3.42,3.31,3.49,3.49,0,0,1-3.61,3.42,3.76,3.76,0,0,1-2.94-1.23C277.15,132.75,277.13,132.64,277.32,132.47Z" transform="translate(-6.79 -21)"/><path class="cls-1" d="M286.38,131.82a1.2,1.2,0,1,1-1.2,1.2A1.23,1.23,0,0,1,286.38,131.82Z" transform="translate(-6.79 -21)"/><path class="cls-1" d="M288.72,129c0-3.27,1.37-5.22,3.75-5.22s3.77,2,3.77,5.22-1.38,5.22-3.77,5.22S288.72,132.25,288.72,129Zm5.64,0c0-2.22-.73-3.49-1.89-3.49s-1.87,1.27-1.87,3.49.73,3.51,1.87,3.51S294.36,131.21,294.36,129Z" transform="translate(-6.79 -21)"/><path class="cls-1" d="M311.11,126.6a.23.23,0,0,1-.34,0l-.29-.32a.23.23,0,0,1,0-.32l2-1.93a.31.31,0,0,1,.24-.1H313a.28.28,0,0,1,.28.27v9.59a.3.3,0,0,1-.28.29h-.53a.3.3,0,0,1-.29-.29v-8h0Z" transform="translate(-6.79 -21)"/><path class="cls-1" d="M315.77,129c0-3.27,1.32-5.22,3.63-5.22s3.64,2,3.64,5.22-1.32,5.22-3.64,5.22S315.77,132.25,315.77,129Zm6.14,0c0-2.71-.86-4.2-2.51-4.2s-2.5,1.49-2.5,4.2.86,4.21,2.5,4.21S321.91,131.72,321.91,129Z" transform="translate(-6.79 -21)"/><path class="cls-1" d="M325.1,132.47c.11-.1.22-.23.35-.33s.24-.15.36,0a2.71,2.71,0,0,0,2.22,1.1,2.41,2.41,0,0,0,2.34-2.45,2.09,2.09,0,0,0-2.34-2.14h-2.28a.5.5,0,0,1-.46-.52v-3.95a.29.29,0,0,1,.29-.27h4.5a.29.29,0,0,1,.29.27v.44a.3.3,0,0,1-.29.29h-3.79v2.74H328c2.24,0,3.45,1.19,3.45,3.13a3.39,3.39,0,0,1-3.47,3.42,3.52,3.52,0,0,1-2.88-1.23C324.94,132.75,324.92,132.64,325.1,132.47Z" transform="translate(-6.79 -21)"/><path class="cls-1" d="M333.78,132.47c.71,0,1.09.71,1.09,1.6a2.44,2.44,0,0,1-.87,2c-.09.07-.16.07-.23,0l-.25-.23a.18.18,0,0,1,0-.26,1.7,1.7,0,0,0,.65-1.29,1.08,1.08,0,0,0-.05-.34,1,1,0,0,1-.48.14.7.7,0,0,1-.7-.71A.8.8,0,0,1,333.78,132.47Z" transform="translate(-6.79 -21)"/><path class="cls-1" d="M336.47,129c0-3.27,1.31-5.22,3.62-5.22s3.64,2,3.64,5.22-1.32,5.22-3.64,5.22S336.47,132.25,336.47,129Zm6.13,0c0-2.71-.86-4.2-2.51-4.2s-2.49,1.49-2.49,4.2.85,4.21,2.49,4.21S342.6,131.72,342.6,129Z" transform="translate(-6.79 -21)"/><path class="cls-1" d="M345.44,131.76a.29.29,0,0,1-.29-.27v-.41a.43.43,0,0,1,.09-.26l5.52-6.87a.35.35,0,0,1,.35-.18h.25a.29.29,0,0,1,.27.29v6.79h1.22a.25.25,0,0,1,.27.26v.38a.27.27,0,0,1-.27.27h-1.22v2a.29.29,0,0,1-.27.29h-.48a.3.3,0,0,1-.29-.29v-2Zm1-1v.08h4.19v-5.21h0Z" transform="translate(-6.79 -21)"/><path class="cls-1" d="M360.66,133.09a.29.29,0,0,1,.29.29v.4a.3.3,0,0,1-.29.29H355a.28.28,0,0,1-.29-.29v-.21a.48.48,0,0,1,.19-.43c1.15-1.25,2.3-2.52,3.47-3.76a4.56,4.56,0,0,0,1.51-2.71,1.88,1.88,0,0,0-2.1-1.88,3.12,3.12,0,0,0-2.12,1.13.27.27,0,0,1-.4,0l-.29-.29a.3.3,0,0,1,0-.39,3.79,3.79,0,0,1,2.83-1.47c2.14,0,3.23,1.35,3.23,2.87,0,1.32-.84,2.29-1.87,3.4l-2.84,3v0Z" transform="translate(-6.79 -21)"/><path class="cls-1" d="M403.43,126.6a.23.23,0,0,1-.34,0l-.29-.32a.23.23,0,0,1,0-.32l2-1.93a.32.32,0,0,1,.25-.1h.26a.28.28,0,0,1,.27.27v9.59a.29.29,0,0,1-.27.29h-.54a.3.3,0,0,1-.29-.29v-8h0Z" transform="translate(-6.79 -21)"/><path class="cls-1" d="M408.23,132.47c.11-.1.21-.23.34-.33s.25-.15.37,0a2.71,2.71,0,0,0,2.22,1.1,2.41,2.41,0,0,0,2.34-2.45,2.09,2.09,0,0,0-2.34-2.14h-2.28a.5.5,0,0,1-.46-.52v-3.95a.29.29,0,0,1,.29-.27h4.5a.29.29,0,0,1,.29.27v.44a.3.3,0,0,1-.29.29h-3.79v2.74h1.74c2.24,0,3.45,1.19,3.45,3.13a3.39,3.39,0,0,1-3.47,3.42,3.52,3.52,0,0,1-2.88-1.23C408.07,132.75,408.05,132.64,408.23,132.47Z" transform="translate(-6.79 -21)"/><path class="cls-1" d="M416.64,132.49a.85.85,0,0,1,.87.85.87.87,0,1,1-1.73,0A.85.85,0,0,1,416.64,132.49Z" transform="translate(-6.79 -21)"/><path class="cls-1" d="M418.84,129c0-3.27,1.32-5.22,3.62-5.22s3.64,2,3.64,5.22-1.32,5.22-3.64,5.22S418.84,132.25,418.84,129Zm6.13,0c0-2.71-.85-4.2-2.51-4.2S420,126.28,420,129s.86,4.21,2.49,4.21S425,131.72,425,129Z" transform="translate(-6.79 -21)"/><path class="cls-1" d="M472.77,131.76a.29.29,0,0,1-.29-.27v-.41a.5.5,0,0,1,.08-.26l5.53-6.87a.33.33,0,0,1,.34-.18h.25a.29.29,0,0,1,.28.29v6.79h1.21a.26.26,0,0,1,.28.26v.38a.28.28,0,0,1-.28.27H479v2a.3.3,0,0,1-.28.29h-.48a.31.31,0,0,1-.29-.29v-2Zm1-1v.08h4.19v-5.21h0Z" transform="translate(-6.79 -21)"/><path class="cls-1" d="M482.45,132.49a.85.85,0,0,1,.87.85.87.87,0,0,1-.87.88.86.86,0,0,1-.85-.88A.84.84,0,0,1,482.45,132.49Z" transform="translate(-6.79 -21)"/><path class="cls-1" d="M485.67,133.78c-.07-.18,0-.34.26-.42.68-.24,3.34-1.58,3.86-3.6a4.41,4.41,0,0,1-2.26.68,3.16,3.16,0,0,1-3.22-3.25,3.39,3.39,0,0,1,3.3-3.42c2.42,0,3.48,1.89,3.48,4.27,0,4-3.4,5.68-4.91,6.29a.27.27,0,0,1-.34-.16ZM490,128.5a3.91,3.91,0,0,0,0-.7c0-1.4-.68-3-2.42-3a2.31,2.31,0,0,0-2.24,2.38,2.29,2.29,0,0,0,2.26,2.33A3.61,3.61,0,0,0,490,128.5Z" transform="translate(-6.79 -21)"/><path class="cls-1" d="M20.81,147.77a5.22,5.22,0,1,1-5.2,5.23A5.21,5.21,0,0,1,20.81,147.77Zm0,9.42A4.2,4.2,0,1,0,16.63,153,4.21,4.21,0,0,0,20.81,157.19Z" transform="translate(-6.79 -21)"/><path class="cls-1" d="M27.76,152.29a.31.31,0,0,1-.33-.32v-.29a.3.3,0,0,1,.33-.31h.89v-1.86a.35.35,0,0,1,.31-.32l.45,0a.31.31,0,0,1,.31.32v1.89h2a.31.31,0,0,1,.33.31V152a.32.32,0,0,1-.33.32h-2v4a.88.88,0,0,0,.9,1,2.08,2.08,0,0,0,1-.29c.26-.16.36,0,.42.13l.11.29c.09.22.06.33-.11.44a3.48,3.48,0,0,1-1.58.4,1.84,1.84,0,0,1-1.84-2v-4Z" transform="translate(-6.79 -21)"/><path class="cls-1" d="M34,151.57a.24.24,0,0,1,.26-.26c.42,0,.66.32.7.75a2.74,2.74,0,0,1,2.06-.84c.5,0,1.33.07,1.17.54l-.19.52c-.07.22-.23.23-.39.16a1.69,1.69,0,0,0-.72-.19,2.14,2.14,0,0,0-1.82.85v4.64a.32.32,0,0,1-.31.32H34.3a.32.32,0,0,1-.32-.32Z" transform="translate(-6.79 -21)"/><path class="cls-1" d="M42.58,151.22a3.5,3.5,0,1,1-3.36,3.48A3.45,3.45,0,0,1,42.58,151.22Zm0,6a2.54,2.54,0,1,0-2.31-2.55A2.41,2.41,0,0,0,42.58,157.25Z" transform="translate(-6.79 -21)"/><path class="cls-1" d="M47.71,157.41a.23.23,0,0,1,0-.29l.2-.38c.09-.16.21-.21.39-.08a2.81,2.81,0,0,0,1.67.59c.68,0,1.15-.32,1.15-.84s-.53-.9-1.5-1.38-1.9-.91-1.9-2.06a1.85,1.85,0,0,1,2.08-1.75,3.52,3.52,0,0,1,1.91.52.32.32,0,0,1,.07.45l-.14.28a.33.33,0,0,1-.47.11,2.66,2.66,0,0,0-1.37-.39c-.74,0-1,.42-1,.74,0,.6.47.81,1.28,1.19,1.16.54,2.16,1,2.16,2.19a2.06,2.06,0,0,1-2.28,1.91A3.29,3.29,0,0,1,47.71,157.41Z" transform="translate(-6.79 -21)"/><path class="cls-1" d="M57.73,148.86a.79.79,0,1,1,.79.78A.78.78,0,0,1,57.73,148.86Zm.28,2.82a.32.32,0,0,1,.32-.31h.43a.33.33,0,0,1,.32.31v6.06a.33.33,0,0,1-.32.32h-.43a.32.32,0,0,1-.32-.32Z" transform="translate(-6.79 -21)"/><path class="cls-1" d="M61.63,151.57a.24.24,0,0,1,.26-.26c.42,0,.66.32.7.75a3.48,3.48,0,0,1,2.25-.84c1.94,0,2.42,1.26,2.42,3v3.53a.33.33,0,0,1-.32.32H66.5a.32.32,0,0,1-.32-.32v-3.68c0-1.27-.43-1.87-1.42-1.87a2.9,2.9,0,0,0-2.05.93v4.62a.33.33,0,0,1-.32.32H62a.32.32,0,0,1-.32-.32Z" transform="translate(-6.79 -21)"/><path class="cls-1" d="M75.41,158.11a2.77,2.77,0,0,1-2.93,3.13,3.8,3.8,0,0,1-2.34-.87.33.33,0,0,1-.07-.39l.29-.42c.1-.16.28-.16.44,0a2.62,2.62,0,0,0,1.68.71c1.06,0,1.87-.58,1.87-2.14v-.48a3.41,3.41,0,1,1-1.9-6.41,3.35,3.35,0,0,1,2,.7.69.69,0,0,1,.68-.61.25.25,0,0,1,.27.26Zm-2.77-.87a3.26,3.26,0,0,0,1.69-.55V153a2.49,2.49,0,0,0-1.77-.81,2.29,2.29,0,0,0-2.16,2.49A2.35,2.35,0,0,0,72.64,157.24Z" transform="translate(-6.79 -21)"/><path class="cls-1" d="M77.94,151.57a.25.25,0,0,1,.27-.26c.42,0,.65.32.69.75a2.76,2.76,0,0,1,2.06-.84c.51,0,1.33.07,1.17.54l-.18.52a.26.26,0,0,1-.4.16,1.69,1.69,0,0,0-.72-.19,2.11,2.11,0,0,0-1.81.85v4.64a.33.33,0,0,1-.32.32h-.44a.32.32,0,0,1-.32-.32Z" transform="translate(-6.79 -21)"/><path class="cls-1" d="M86.44,151.22a3,3,0,0,1,3,3,2.83,2.83,0,0,1,0,.41.31.31,0,0,1-.3.29H84.27a2.35,2.35,0,0,0,2.19,2.29,3.1,3.1,0,0,0,1.81-.55c.23-.16.33-.22.5,0L89,157c.13.2.19.28-.06.46a4.09,4.09,0,0,1-2.45.77,3.51,3.51,0,0,1,0-7Zm2,2.89a2,2,0,0,0-2-1.92,2.19,2.19,0,0,0-2.16,1.92Z" transform="translate(-6.79 -21)"/><path class="cls-1" d="M91.15,157.41a.23.23,0,0,1,0-.29l.2-.38c.09-.16.21-.21.39-.08a2.81,2.81,0,0,0,1.67.59c.68,0,1.15-.32,1.15-.84S94,155.51,93,155s-1.89-.91-1.89-2.06a1.84,1.84,0,0,1,2.07-1.75,3.52,3.52,0,0,1,1.91.52.31.31,0,0,1,.07.45l-.14.28a.33.33,0,0,1-.47.11,2.63,2.63,0,0,0-1.37-.39c-.74,0-1,.42-1,.74,0,.6.47.81,1.28,1.19,1.16.54,2.16,1,2.16,2.19a2.06,2.06,0,0,1-2.28,1.91A3.31,3.31,0,0,1,91.15,157.41Z" transform="translate(-6.79 -21)"/><path class="cls-1" d="M100.61,151.22a3.5,3.5,0,1,1-3.37,3.48A3.45,3.45,0,0,1,100.61,151.22Zm0,6a2.54,2.54,0,1,0-2.31-2.55A2.41,2.41,0,0,0,100.61,157.25Z" transform="translate(-6.79 -21)"/><path class="cls-1" d="M105.74,157.41a.23.23,0,0,1,0-.29l.2-.38c.09-.16.2-.21.39-.08a2.76,2.76,0,0,0,1.67.59c.68,0,1.14-.32,1.14-.84s-.52-.9-1.49-1.38-1.9-.91-1.9-2.06a1.84,1.84,0,0,1,2.07-1.75,3.57,3.57,0,0,1,1.92.52.32.32,0,0,1,.07.45l-.14.28a.33.33,0,0,1-.47.11,2.67,2.67,0,0,0-1.38-.39c-.73,0-1,.42-1,.74,0,.6.46.81,1.27,1.19,1.16.54,2.16,1,2.16,2.19a2,2,0,0,1-2.27,1.91A3.29,3.29,0,0,1,105.74,157.41Z" transform="translate(-6.79 -21)"/><path class="cls-1" d="M112.77,156.47c.71,0,1.09.71,1.09,1.59a2.45,2.45,0,0,1-.87,2c-.09.07-.16.07-.23,0l-.25-.23c-.09-.09,0-.19,0-.26a1.7,1.7,0,0,0,.65-1.29,1,1,0,0,0,0-.34,1.11,1.11,0,0,1-.48.13.69.69,0,0,1-.7-.71A.79.79,0,0,1,112.77,156.47Z" transform="translate(-6.79 -21)"/><path class="cls-1" d="M119.82,151.57a.24.24,0,0,1,.26-.26c.42,0,.65.32.7.75a3.48,3.48,0,0,1,2.24-.84c2,0,2.42,1.26,2.42,3v3.53a.32.32,0,0,1-.31.32h-.44a.32.32,0,0,1-.32-.32v-3.68c0-1.27-.43-1.87-1.42-1.87a2.94,2.94,0,0,0-2.06.93v4.62a.33.33,0,0,1-.32.32h-.43a.32.32,0,0,1-.32-.32Z" transform="translate(-6.79 -21)"/><path class="cls-1" d="M130.75,151.22a2.94,2.94,0,0,1,3,3,2.83,2.83,0,0,1,0,.41.31.31,0,0,1-.3.29h-4.87a2.35,2.35,0,0,0,2.19,2.29,3.1,3.1,0,0,0,1.81-.55c.23-.16.33-.22.51,0l.17.25c.13.2.19.28-.06.46a4.09,4.09,0,0,1-2.45.77,3.51,3.51,0,0,1,0-7Zm2,2.89a2,2,0,0,0-2-1.92,2.19,2.19,0,0,0-2.16,1.92Z" transform="translate(-6.79 -21)"/><path class="cls-1" d="M135.36,152.29A.31.31,0,0,1,135,152v-.29a.3.3,0,0,1,.33-.31h.89v-1.86a.35.35,0,0,1,.32-.32l.45,0a.31.31,0,0,1,.3.32v1.89h2a.32.32,0,0,1,.34.31V152a.33.33,0,0,1-.34.32h-2v4a.89.89,0,0,0,.9,1,2,2,0,0,0,1-.29c.26-.16.36,0,.42.13l.12.29c.08.22.05.33-.12.44a3.48,3.48,0,0,1-1.58.4,1.84,1.84,0,0,1-1.84-2v-4Z" transform="translate(-6.79 -21)"/><path class="cls-1" d="M144.53,151.22a3.5,3.5,0,1,1-3.37,3.48A3.45,3.45,0,0,1,144.53,151.22Zm0,6a2.54,2.54,0,1,0-2.31-2.55A2.41,2.41,0,0,0,144.53,157.25Z" transform="translate(-6.79 -21)"/><path class="cls-1" d="M197.85,150.92a.25.25,0,0,1-.31-.21l-.09-.72a.3.3,0,0,1,.15-.32l1.86-1.57a.69.69,0,0,1,.5-.18h.76a.27.27,0,0,1,.27.27v9.58a.27.27,0,0,1-.27.29h-1.28a.28.28,0,0,1-.29-.29v-7.14Z" transform="translate(-6.79 -21)"/><path class="cls-1" d="M204.28,155.82c.73,0,1.32.6,1.32,1.73a3.3,3.3,0,0,1-1.23,2.6c-.12.12-.2.06-.3,0l-.37-.35c-.1-.12,0-.22.08-.32a2.38,2.38,0,0,0,.81-1.39.7.7,0,0,0-.05-.28.86.86,0,0,1-.49.15.93.93,0,0,1-.91-1A1.08,1.08,0,0,1,204.28,155.82Z" transform="translate(-6.79 -21)"/><path class="cls-1" d="M213.29,156.47a.29.29,0,0,1,.29.27v1a.29.29,0,0,1-.29.29H207.4a.27.27,0,0,1-.27-.29v-.14a.61.61,0,0,1,.11-.34c1-1.24,2.8-3.56,3.76-4.82a2.85,2.85,0,0,0,.75-1.66,1.4,1.4,0,0,0-1.58-1.34,2.45,2.45,0,0,0-1.67.87.25.25,0,0,1-.4,0l-.73-.71a.33.33,0,0,1,0-.4,4.15,4.15,0,0,1,2.94-1.46,3,3,0,0,1,3.33,3,4,4,0,0,1-1,2.41c-.62.9-1.75,2.29-2.53,3.29v0Z" transform="translate(-6.79 -21)"/><path class="cls-1" d="M215.33,155.9a.3.3,0,0,1-.29-.29v-.94a.74.74,0,0,1,.19-.51l5.13-6.23a.42.42,0,0,1,.38-.16h.71a.29.29,0,0,1,.29.29v6.29h1.19a.27.27,0,0,1,.29.26v1a.29.29,0,0,1-.29.29h-1.19v1.87a.29.29,0,0,1-.29.29h-1.23a.3.3,0,0,1-.29-.29V155.9Zm4.67-1.5v-3.61h0L217,154.37v0Z" transform="translate(-6.79 -21)"/><path class="cls-1" d="M225.53,157.24c-.08-.18,0-.34.27-.44.7-.22,2.83-1.14,3.28-2.78a4.12,4.12,0,0,1-1.7.42,3.06,3.06,0,0,1-3-3.25,3.41,3.41,0,0,1,3.37-3.42c2.34,0,3.56,1.89,3.56,4.12,0,4.36-3.7,6-5,6.43a.29.29,0,0,1-.42-.2Zm3.94-5.57c0-1-.54-2.22-1.74-2.22a1.77,1.77,0,0,0-1.71,1.77,1.74,1.74,0,0,0,1.72,1.75A1.83,1.83,0,0,0,229.47,151.67Z" transform="translate(-6.79 -21)"/><path class="cls-1" d="M277.57,153c0-3.28,1.37-5.22,3.75-5.22s3.77,1.94,3.77,5.22-1.38,5.22-3.77,5.22S277.57,156.25,277.57,153Zm5.64,0c0-2.22-.73-3.49-1.89-3.49s-1.87,1.27-1.87,3.49.73,3.51,1.87,3.51S283.21,155.21,283.21,153Z" transform="translate(-6.79 -21)"/><path class="cls-1" d="M287.14,155.82a1.2,1.2,0,1,1-1.21,1.2A1.23,1.23,0,0,1,287.14,155.82Z" transform="translate(-6.79 -21)"/><path class="cls-1" d="M295.76,156.47a.29.29,0,0,1,.29.27v1a.29.29,0,0,1-.29.29h-5.88a.28.28,0,0,1-.28-.29v-.14a.54.54,0,0,1,.12-.34c1-1.24,2.8-3.56,3.75-4.82a2.81,2.81,0,0,0,.76-1.66,1.4,1.4,0,0,0-1.58-1.34,2.43,2.43,0,0,0-1.67.87.26.26,0,0,1-.41,0l-.72-.71a.32.32,0,0,1,0-.4,4.19,4.19,0,0,1,2.95-1.46,3,3,0,0,1,3.33,3,4,4,0,0,1-1,2.41c-.62.9-1.75,2.29-2.54,3.29v0Z" transform="translate(-6.79 -21)"/><path class="cls-1" d="M336.28,155.76a.29.29,0,0,1-.29-.28v-.4a.45.45,0,0,1,.08-.26l5.53-6.88a.34.34,0,0,1,.35-.17h.24a.29.29,0,0,1,.28.29v6.78h1.22a.27.27,0,0,1,.27.27v.37a.28.28,0,0,1-.27.28h-1.22v2a.29.29,0,0,1-.28.29h-.48a.3.3,0,0,1-.29-.29v-2Zm1-1v.07h4.19v-5.2h0Z" transform="translate(-6.79 -21)"/><path class="cls-1" d="M345.5,155.76a.29.29,0,0,1-.29-.28v-.4a.39.39,0,0,1,.09-.26l5.52-6.88a.34.34,0,0,1,.35-.17h.24a.29.29,0,0,1,.28.29v6.78h1.22a.26.26,0,0,1,.27.27v.37a.27.27,0,0,1-.27.28h-1.22v2a.29.29,0,0,1-.28.29h-.47a.3.3,0,0,1-.29-.29v-2Zm1-1v.07h4.19v-5.2h0Z" transform="translate(-6.79 -21)"/><path class="cls-1" d="M355.65,157.77c-.07-.17,0-.33.26-.42.68-.23,3.33-1.58,3.86-3.59a4.42,4.42,0,0,1-2.27.68,3.16,3.16,0,0,1-3.21-3.25,3.38,3.38,0,0,1,3.3-3.42c2.42,0,3.48,1.89,3.48,4.26,0,4-3.41,5.68-4.91,6.29a.26.26,0,0,1-.34-.16Zm4.3-5.27a3.15,3.15,0,0,0,.06-.7c0-1.41-.68-3-2.42-3a2.36,2.36,0,0,0,0,4.71A3.57,3.57,0,0,0,360,152.5Z" transform="translate(-6.79 -21)"/><path class="cls-1" d="M412.07,153c0-3.28,1.32-5.22,3.62-5.22s3.64,1.94,3.64,5.22-1.32,5.22-3.64,5.22S412.07,156.25,412.07,153Zm6.13,0c0-2.71-.85-4.2-2.51-4.2s-2.49,1.49-2.49,4.2.86,4.2,2.49,4.2S418.2,155.71,418.2,153Z" transform="translate(-6.79 -21)"/><path class="cls-1" d="M421.25,156.48a.86.86,0,0,1,.87.86.87.87,0,1,1-1.73,0A.85.85,0,0,1,421.25,156.48Z" transform="translate(-6.79 -21)"/><path class="cls-1" d="M423.34,150.6c-.12.08-.24.1-.34,0l-.29-.32a.22.22,0,0,1,0-.31l2-1.93a.28.28,0,0,1,.24-.1h.26a.28.28,0,0,1,.28.27v9.58a.29.29,0,0,1-.28.29h-.53a.29.29,0,0,1-.29-.29v-8h0Z" transform="translate(-6.79 -21)"/><path class="cls-1" d="M469.29,150.6c-.12.08-.24.1-.34,0l-.29-.32a.22.22,0,0,1,0-.31l2-1.93a.28.28,0,0,1,.24-.1h.27a.28.28,0,0,1,.27.27v9.58a.29.29,0,0,1-.27.29h-.54a.29.29,0,0,1-.29-.29v-8h0Z" transform="translate(-6.79 -21)"/><path class="cls-1" d="M474.58,156.48a.86.86,0,0,1,.87.86.87.87,0,1,1-1.73,0A.85.85,0,0,1,474.58,156.48Z" transform="translate(-6.79 -21)"/><path class="cls-1" d="M478.84,152.84v-.05a2.69,2.69,0,0,1-1.54-2.31c0-1.65,1.31-2.71,3.09-2.71s3.1,1.06,3.1,2.71a2.7,2.7,0,0,1-1.53,2.31v.05a2.92,2.92,0,0,1,1.8,2.48c0,1.63-1.19,2.89-3.38,2.89S477,157,477,155.32A2.92,2.92,0,0,1,478.84,152.84Zm1.54,4.48c1.33,0,2.26-.72,2.26-1.9a2.25,2.25,0,0,0-4.48,0C478.16,156.57,479,157.32,480.38,157.32Zm2-6.8a2,2,0,0,0-4,0c0,.93.6,1.66,2,1.79C481.77,152.18,482.39,151.45,482.39,150.52Z" transform="translate(-6.79 -21)"/><path class="cls-1" d="M485.15,151.74c-.1-.2,0-.37.25-.37h.5a.31.31,0,0,1,.31.18l2.07,4.93h0l2.2-4.93a.29.29,0,0,1,.26-.18h.47c.26,0,.35.17.26.37l-2.89,6.31a.27.27,0,0,1-.27.17h-.09a.28.28,0,0,1-.27-.17Z" transform="translate(-6.79 -21)"/><path class="cls-1" d="M16.16,172.19a.29.29,0,0,1,.28-.28H17a.27.27,0,0,1,.27.28v6.1a2.74,2.74,0,1,0,5.48,0v-6.13a.28.28,0,0,1,.28-.28h.55a.28.28,0,0,1,.27.28v6.19A3.69,3.69,0,0,1,20,182.21a3.68,3.68,0,0,1-3.83-3.83Z" transform="translate(-6.79 -21)"/><path class="cls-1" d="M26,176.29a.32.32,0,0,1-.34-.32v-.29a.31.31,0,0,1,.34-.32h.88v-1.85a.34.34,0,0,1,.32-.32l.45,0a.3.3,0,0,1,.3.32v1.88h2a.32.32,0,0,1,.33.32V176a.32.32,0,0,1-.33.32h-2v4a.9.9,0,0,0,.9,1,2,2,0,0,0,1-.29c.26-.16.36,0,.42.13l.12.29c.09.22.06.33-.12.43a3.34,3.34,0,0,1-1.58.41,1.84,1.84,0,0,1-1.84-2v-4Z" transform="translate(-6.79 -21)"/><path class="cls-1" d="M31.92,172.86a.79.79,0,1,1,.79.78A.79.79,0,0,1,31.92,172.86Zm.28,2.82a.33.33,0,0,1,.32-.32H33a.34.34,0,0,1,.32.32v6.06a.33.33,0,0,1-.32.32h-.43a.32.32,0,0,1-.32-.32Z" transform="translate(-6.79 -21)"/><path class="cls-1" d="M35.9,172.23a.33.33,0,0,1,.31-.32h.44a.34.34,0,0,1,.32.32v9.51a.33.33,0,0,1-.32.32h-.44a.31.31,0,0,1-.31-.32Z" transform="translate(-6.79 -21)"/><path class="cls-1" d="M39.32,172.86a.79.79,0,1,1,.78.78A.79.79,0,0,1,39.32,172.86Zm.27,2.82a.34.34,0,0,1,.32-.32h.44a.34.34,0,0,1,.32.32v6.06a.33.33,0,0,1-.32.32h-.44a.32.32,0,0,1-.32-.32Z" transform="translate(-6.79 -21)"/><path class="cls-1" d="M46,175.22a4.18,4.18,0,0,1,1.86.42v-3.41a.33.33,0,0,1,.32-.32h.4a.35.35,0,0,1,.34.32v9.63a.25.25,0,0,1-.27.26c-.42,0-.65-.32-.71-.75a3.35,3.35,0,0,1-2.11.85,3.28,3.28,0,0,1-3-3.52C42.8,176.74,44,175.22,46,175.22Zm0,6a2.49,2.49,0,0,0,1.9-1.07v-3.61a4.42,4.42,0,0,0-1.71-.38,2.3,2.3,0,0,0-2.24,2.52A2.33,2.33,0,0,0,45.93,181.25Z" transform="translate(-6.79 -21)"/><path class="cls-1" d="M53.6,177.81A5.63,5.63,0,0,1,55,178c0-1.23-.58-1.84-1.53-1.84a4.06,4.06,0,0,0-1.55.39c-.18.07-.26,0-.32-.17l-.15-.39c-.06-.21.05-.29.21-.37a4.37,4.37,0,0,1,1.87-.43c1.71,0,2.5,1,2.5,2.81v3.83a.24.24,0,0,1-.26.26c-.43,0-.66-.33-.71-.78a2.93,2.93,0,0,1-2.1.88A2,2,0,0,1,50.92,180C50.92,178.76,51.87,177.81,53.6,177.81Zm-.42,3.44a2.32,2.32,0,0,0,1.84-.9V179a3.36,3.36,0,0,0-1.42-.26c-.93,0-1.62.45-1.62,1.3A1.16,1.16,0,0,0,53.18,181.25Z" transform="translate(-6.79 -21)"/><path class="cls-1" d="M61.31,175.22a4.18,4.18,0,0,1,1.86.42v-3.41a.33.33,0,0,1,.32-.32h.4a.35.35,0,0,1,.34.32v9.63a.24.24,0,0,1-.26.26c-.42,0-.66-.32-.71-.75a3.4,3.4,0,0,1-2.12.85,3.28,3.28,0,0,1-3-3.52C58.14,176.74,59.3,175.22,61.31,175.22Zm0,6a2.49,2.49,0,0,0,1.9-1.07v-3.61a4.36,4.36,0,0,0-1.71-.38,2.29,2.29,0,0,0-2.23,2.52A2.32,2.32,0,0,0,61.27,181.25Z" transform="translate(-6.79 -21)"/><path class="cls-1" d="M73.29,175.22a4.11,4.11,0,0,1,1.85.42v-3.41a.34.34,0,0,1,.32-.32h.41a.35.35,0,0,1,.33.32v9.63a.24.24,0,0,1-.26.26c-.42,0-.65-.32-.71-.75a3.35,3.35,0,0,1-2.11.85,3.29,3.29,0,0,1-3-3.52A3.16,3.16,0,0,1,73.29,175.22Zm0,6a2.46,2.46,0,0,0,1.89-1.07v-3.61a4.36,4.36,0,0,0-1.71-.38,2.3,2.3,0,0,0-2.23,2.52A2.33,2.33,0,0,0,73.25,181.25Z" transform="translate(-6.79 -21)"/><path class="cls-1" d="M81.57,175.22a3,3,0,0,1,3,3c0,.12,0,.29,0,.41a.32.32,0,0,1-.3.29H79.39a2.37,2.37,0,0,0,2.19,2.29,3.18,3.18,0,0,0,1.82-.55c.23-.16.33-.22.5,0l.18.25c.13.2.19.27-.06.46a4.12,4.12,0,0,1-2.45.77,3.51,3.51,0,0,1,0-7Zm2,2.88a2,2,0,0,0-2-1.91,2.19,2.19,0,0,0-2.16,1.91Z" transform="translate(-6.79 -21)"/><path class="cls-1" d="M93.34,175.22A3.5,3.5,0,1,1,90,178.7,3.45,3.45,0,0,1,93.34,175.22Zm0,6a2.41,2.41,0,0,0,2.29-2.55,2.3,2.3,0,1,0-4.59,0A2.41,2.41,0,0,0,93.34,181.25Z" transform="translate(-6.79 -21)"/><path class="cls-1" d="M99.88,185.19a.33.33,0,0,1-.32.32h-.42a.32.32,0,0,1-.32-.32v-9.62a.25.25,0,0,1,.27-.26.66.66,0,0,1,.66.6,3.32,3.32,0,0,1,2-.69,3.52,3.52,0,0,1,0,7,3.35,3.35,0,0,1-1.86-.55Zm0-4.52a3.17,3.17,0,0,0,1.7.58,2.34,2.34,0,0,0,2.23-2.55,2.3,2.3,0,0,0-2.16-2.51,2.55,2.55,0,0,0-1.77.81Z" transform="translate(-6.79 -21)"/><path class="cls-1" d="M109.86,175.22a3,3,0,0,1,3,3c0,.12,0,.29,0,.41a.32.32,0,0,1-.31.29h-4.87a2.36,2.36,0,0,0,2.19,2.29,3.12,3.12,0,0,0,1.81-.55c.24-.16.34-.22.51,0l.18.25c.13.2.18.27-.06.46a4.12,4.12,0,0,1-2.45.77,3.51,3.51,0,0,1,0-7Zm2,2.88a2,2,0,0,0-2-1.91,2.19,2.19,0,0,0-2.16,1.91Z" transform="translate(-6.79 -21)"/><path class="cls-1" d="M114.92,175.57a.24.24,0,0,1,.26-.26c.42,0,.65.31.7.75a2.73,2.73,0,0,1,2.05-.84c.51,0,1.34.07,1.18.53l-.19.53a.26.26,0,0,1-.39.16,1.61,1.61,0,0,0-.73-.19,2.11,2.11,0,0,0-1.81.85v4.64a.33.33,0,0,1-.32.32h-.43a.32.32,0,0,1-.32-.32Z" transform="translate(-6.79 -21)"/><path class="cls-1" d="M122.88,177.81a5.63,5.63,0,0,1,1.43.22c0-1.23-.58-1.84-1.53-1.84a4.06,4.06,0,0,0-1.55.39c-.18.07-.27,0-.32-.17l-.15-.39c-.06-.21,0-.29.2-.37a4.47,4.47,0,0,1,1.88-.43c1.71,0,2.5,1,2.5,2.81v3.83a.24.24,0,0,1-.26.26c-.43,0-.66-.33-.71-.78a2.93,2.93,0,0,1-2.1.88A2,2,0,0,1,120.2,180C120.2,178.76,121.15,177.81,122.88,177.81Zm-.42,3.44a2.32,2.32,0,0,0,1.84-.9V179a3.36,3.36,0,0,0-1.42-.26c-.93,0-1.62.45-1.62,1.3A1.16,1.16,0,0,0,122.46,181.25Z" transform="translate(-6.79 -21)"/><path class="cls-1" d="M130.8,175.22a3.1,3.1,0,0,1,2.43,1.1.32.32,0,0,1-.06.48l-.23.22c-.22.18-.35,0-.48-.11a2.08,2.08,0,0,0-1.68-.72,2.54,2.54,0,0,0,0,5.06,2.15,2.15,0,0,0,1.82-1c.19-.22.38-.16.57,0l.09.09a.33.33,0,0,1,.08.46,3.05,3.05,0,0,1-2.52,1.35,3.32,3.32,0,0,1-3.38-3.49A3.39,3.39,0,0,1,130.8,175.22Z" transform="translate(-6.79 -21)"/><path class="cls-1" d="M135.1,172.86a.79.79,0,1,1,1.58,0,.79.79,0,0,1-1.58,0Zm.28,2.82a.33.33,0,0,1,.32-.32h.43a.34.34,0,0,1,.32.32v6.06a.33.33,0,0,1-.32.32h-.43a.32.32,0,0,1-.32-.32Z" transform="translate(-6.79 -21)"/><path class="cls-1" d="M141.93,175.22a3.5,3.5,0,1,1-3.36,3.48A3.44,3.44,0,0,1,141.93,175.22Zm0,6a2.41,2.41,0,0,0,2.29-2.55,2.3,2.3,0,1,0-4.59,0A2.41,2.41,0,0,0,141.93,181.25Zm-1.48-7.81,2.26-1.38a.45.45,0,0,1,.6.26c.11.26.11.52-.07.61L140.77,174c-.11.06-.26,0-.35-.2S140.35,173.49,140.45,173.44Z" transform="translate(-6.79 -21)"/><path class="cls-1" d="M147.4,175.57a.24.24,0,0,1,.26-.26c.42,0,.65.31.7.75a3.48,3.48,0,0,1,2.24-.84c2,0,2.42,1.26,2.42,3v3.53a.33.33,0,0,1-.32.32h-.43a.32.32,0,0,1-.32-.32v-3.68c0-1.28-.43-1.87-1.42-1.87a2.94,2.94,0,0,0-2.06.93v4.62a.33.33,0,0,1-.32.32h-.43a.32.32,0,0,1-.32-.32Z" transform="translate(-6.79 -21)"/><path class="cls-1" d="M191.46,171.65a.31.31,0,0,1,.43.21l.34.88c.08.17,0,.35-.27.43-.7.22-2.81,1.15-3.28,2.8a3.82,3.82,0,0,1,1.7-.42,3,3,0,0,1,3,3.23,3.42,3.42,0,0,1-3.38,3.43c-2.33,0-3.55-1.87-3.55-4.12C186.49,173.73,190.19,172.07,191.46,171.65Zm.28,7.11A1.72,1.72,0,0,0,190,177a1.84,1.84,0,0,0-1.73,1.31c0,1,.54,2.23,1.74,2.23A1.71,1.71,0,0,0,191.74,178.76Z" transform="translate(-6.79 -21)"/><path class="cls-1" d="M200.92,180.47a.29.29,0,0,1,.29.27v1a.29.29,0,0,1-.29.29H195a.27.27,0,0,1-.27-.29v-.14a.61.61,0,0,1,.11-.34c1-1.24,2.8-3.56,3.76-4.83a2.8,2.8,0,0,0,.75-1.65,1.41,1.41,0,0,0-1.58-1.35,2.49,2.49,0,0,0-1.67.87.25.25,0,0,1-.4,0l-.73-.71a.31.31,0,0,1,0-.39,4.15,4.15,0,0,1,2.94-1.46,3,3,0,0,1,3.34,3,4,4,0,0,1-1,2.41c-.63.89-1.76,2.29-2.54,3.29v0Z" transform="translate(-6.79 -21)"/><path class="cls-1" d="M204.23,179.81c.72,0,1.32.61,1.32,1.74a3.3,3.3,0,0,1-1.24,2.6c-.11.11-.2.06-.3-.05l-.36-.34c-.11-.12,0-.22.07-.32a2.38,2.38,0,0,0,.81-1.39.72.72,0,0,0,0-.28.9.9,0,0,1-.5.15.93.93,0,0,1-.91-1A1.09,1.09,0,0,1,204.23,179.81Z" transform="translate(-6.79 -21)"/><path class="cls-1" d="M207.79,181.23c-.07-.17,0-.33.28-.43.69-.22,2.83-1.15,3.27-2.78a4.06,4.06,0,0,1-1.69.42,3.07,3.07,0,0,1-3.05-3.25,3.42,3.42,0,0,1,3.38-3.42c2.34,0,3.55,1.88,3.55,4.12,0,4.36-3.69,6-5,6.43a.29.29,0,0,1-.42-.2Zm4-5.56c0-1-.54-2.22-1.74-2.22a1.76,1.76,0,0,0-1.71,1.77A1.74,1.74,0,0,0,210,177,1.85,1.85,0,0,0,211.74,175.67Z" transform="translate(-6.79 -21)"/><path class="cls-1" d="M215.07,177c0-3.28,1.38-5.22,3.76-5.22s3.77,1.94,3.77,5.22-1.38,5.22-3.77,5.22S215.07,180.25,215.07,177Zm5.64,0c0-2.22-.72-3.5-1.88-3.5S217,174.77,217,177s.72,3.51,1.87,3.51S220.71,179.21,220.71,177Z" transform="translate(-6.79 -21)"/><path class="cls-1" d="M226,176.86v-.06a2.57,2.57,0,0,1-1.54-2.29c0-1.67,1.44-2.74,3.24-2.74s3.3,1.07,3.3,2.74a2.63,2.63,0,0,1-1.54,2.27v.08a2.73,2.73,0,0,1,1.82,2.49c0,1.62-1.38,2.86-3.58,2.86s-3.51-1.24-3.51-2.86A2.79,2.79,0,0,1,226,176.86Zm1.74,3.82a1.39,1.39,0,0,0,1.55-1.37,1.77,1.77,0,0,0-1.55-1.58,1.79,1.79,0,0,0-1.57,1.58A1.4,1.4,0,0,0,227.73,180.68Zm1.35-6.1a1.29,1.29,0,0,0-1.39-1.28,1.26,1.26,0,0,0-1.32,1.28c0,.67.42,1.17,1.36,1.41C228.64,175.77,229.08,175.22,229.08,174.58Z" transform="translate(-6.79 -21)"/><path class="cls-1" d="M279.22,176.86v-.06a2.57,2.57,0,0,1-1.54-2.29c0-1.67,1.44-2.74,3.24-2.74s3.3,1.07,3.3,2.74a2.63,2.63,0,0,1-1.54,2.27v.08a2.73,2.73,0,0,1,1.82,2.49c0,1.62-1.38,2.86-3.58,2.86s-3.51-1.24-3.51-2.86A2.79,2.79,0,0,1,279.22,176.86Zm1.74,3.82a1.39,1.39,0,0,0,1.55-1.37,1.77,1.77,0,0,0-1.55-1.58,1.79,1.79,0,0,0-1.57,1.58A1.4,1.4,0,0,0,281,180.68Zm1.35-6.1a1.29,1.29,0,0,0-1.39-1.28,1.26,1.26,0,0,0-1.32,1.28c0,.67.42,1.17,1.36,1.41C281.87,175.77,282.31,175.22,282.31,174.58Z" transform="translate(-6.79 -21)"/><path class="cls-1" d="M287,179.81a1.21,1.21,0,1,1,0,2.41,1.21,1.21,0,0,1,0-2.41Z" transform="translate(-6.79 -21)"/><path class="cls-1" d="M289.81,180.47l.73-.74a.28.28,0,0,1,.37,0,3,3,0,0,0,1.93.84,1.72,1.72,0,0,0,1.72-1.77,1.63,1.63,0,0,0-1.8-1.66h-2.3a.49.49,0,0,1-.47-.52v-4.41a.28.28,0,0,1,.29-.28H295a.29.29,0,0,1,.29.28v1a.29.29,0,0,1-.29.29h-3.31v2H293a3.17,3.17,0,0,1,3.42,3.3,3.5,3.5,0,0,1-3.61,3.43,3.8,3.8,0,0,1-2.95-1.24C289.63,180.74,289.62,180.64,289.81,180.47Z" transform="translate(-6.79 -21)"/><path class="cls-1" d="M319.44,180.47c.12-.11.22-.24.35-.34s.25-.14.36,0a2.75,2.75,0,0,0,2.22,1.1,2.41,2.41,0,0,0,2.35-2.45,2.1,2.1,0,0,0-2.35-2.15H320.1a.5.5,0,0,1-.47-.52v-3.94a.29.29,0,0,1,.29-.28h4.51a.29.29,0,0,1,.29.28v.43a.3.3,0,0,1-.29.29h-3.8v2.74h1.74c2.25,0,3.45,1.19,3.45,3.13a3.4,3.4,0,0,1-3.46,3.43,3.56,3.56,0,0,1-2.89-1.24C319.28,180.74,319.27,180.64,319.44,180.47Z" transform="translate(-6.79 -21)"/><path class="cls-1" d="M327.27,172.91a.29.29,0,0,1-.27-.29v-.43a.28.28,0,0,1,.27-.28h6a.26.26,0,0,1,.29.28.53.53,0,0,1-.07.25l-4.29,9.23a.57.57,0,0,1-.49.39h-.44a.29.29,0,0,1-.27-.29.76.76,0,0,1,.1-.36l4-8.47v0Z" transform="translate(-6.79 -21)"/><path class="cls-1" d="M334.31,180.47c.71,0,1.08.71,1.08,1.59a2.45,2.45,0,0,1-.87,2,.15.15,0,0,1-.23,0l-.25-.24c-.08-.08,0-.18,0-.26a1.7,1.7,0,0,0,.66-1.29,1.05,1.05,0,0,0-.06-.33,1.07,1.07,0,0,1-.48.13.7.7,0,0,1-.7-.71A.79.79,0,0,1,334.31,180.47Z" transform="translate(-6.79 -21)"/><path class="cls-1" d="M337.13,179.76a.3.3,0,0,1-.29-.28v-.41a.43.43,0,0,1,.09-.26l5.52-6.87a.34.34,0,0,1,.35-.17h.25a.29.29,0,0,1,.27.29v6.78h1.22a.27.27,0,0,1,.28.26v.38a.29.29,0,0,1-.28.28h-1.22v2a.29.29,0,0,1-.27.29h-.48a.3.3,0,0,1-.29-.29v-2Zm1-1v.07h4.19v-5.2h0Z" transform="translate(-6.79 -21)"/><path class="cls-1" d="M346.34,179.76a.3.3,0,0,1-.29-.28v-.41a.43.43,0,0,1,.09-.26l5.52-6.87a.34.34,0,0,1,.35-.17h.24a.29.29,0,0,1,.28.29v6.78h1.22a.26.26,0,0,1,.27.26v.38a.28.28,0,0,1-.27.28h-1.22v2a.29.29,0,0,1-.28.29h-.47a.3.3,0,0,1-.29-.29v-2Zm1-1v.07h4.19v-5.2h0Z" transform="translate(-6.79 -21)"/><path class="cls-1" d="M355.3,172.91a.29.29,0,0,1-.27-.29v-.43a.28.28,0,0,1,.27-.28h6a.26.26,0,0,1,.29.28.53.53,0,0,1-.07.25l-4.29,9.23a.57.57,0,0,1-.49.39h-.44a.29.29,0,0,1-.27-.29.76.76,0,0,1,.1-.36l4-8.47v0Z" transform="translate(-6.79 -21)"/><path class="cls-1" d="M410,176.84v-.06a2.67,2.67,0,0,1-1.54-2.3c0-1.65,1.31-2.71,3.09-2.71s3.1,1.06,3.1,2.71a2.68,2.68,0,0,1-1.53,2.3v.06a2.92,2.92,0,0,1,1.79,2.48c0,1.62-1.18,2.89-3.37,2.89s-3.34-1.27-3.34-2.89A2.91,2.91,0,0,1,410,176.84Zm1.54,4.48c1.33,0,2.26-.72,2.26-1.9a2.25,2.25,0,0,0-4.48,0C409.33,180.57,410.2,181.32,411.55,181.32Zm2-6.8a2,2,0,0,0-4,0c0,.93.59,1.65,2,1.79C412.94,176.17,413.56,175.45,413.56,174.52Z" transform="translate(-6.79 -21)"/><path class="cls-1" d="M417.38,180.48a.86.86,0,0,1,.87.86.87.87,0,1,1-1.73,0A.85.85,0,0,1,417.38,180.48Z" transform="translate(-6.79 -21)"/><path class="cls-1" d="M425.73,181.09a.29.29,0,0,1,.29.29v.39a.29.29,0,0,1-.29.29h-5.67a.28.28,0,0,1-.29-.29v-.2a.51.51,0,0,1,.19-.44c1.16-1.24,2.3-2.52,3.48-3.75a4.61,4.61,0,0,0,1.5-2.71,1.88,1.88,0,0,0-2.1-1.89,3.08,3.08,0,0,0-2.11,1.13.28.28,0,0,1-.41,0l-.29-.29a.29.29,0,0,1,0-.39,3.76,3.76,0,0,1,2.82-1.46c2.15,0,3.23,1.35,3.23,2.87,0,1.32-.84,2.29-1.87,3.39l-2.84,3v0Z" transform="translate(-6.79 -21)"/><path class="cls-1" d="M475.13,181.77c-.07-.17,0-.33.26-.42.68-.23,3.33-1.58,3.86-3.6a4.38,4.38,0,0,1-2.27.69,3.16,3.16,0,0,1-3.21-3.25,3.38,3.38,0,0,1,3.3-3.42c2.42,0,3.48,1.88,3.48,4.26,0,4-3.41,5.68-4.91,6.29a.26.26,0,0,1-.34-.16Zm4.3-5.28a3.06,3.06,0,0,0,.06-.69c0-1.41-.68-3.05-2.42-3.05a2.32,2.32,0,0,0-2.25,2.38,2.3,2.3,0,0,0,2.27,2.34A3.55,3.55,0,0,0,479.43,176.49Z" transform="translate(-6.79 -21)"/><path class="cls-1" d="M482.25,180.48a.86.86,0,0,1,.87.86.87.87,0,1,1-1.73,0A.85.85,0,0,1,482.25,180.48Z" transform="translate(-6.79 -21)"/><path class="cls-1" d="M484.93,180.47c.12-.11.22-.24.35-.34s.25-.14.36,0a2.73,2.73,0,0,0,2.22,1.1,2.42,2.42,0,0,0,2.35-2.45,2.1,2.1,0,0,0-2.35-2.15h-2.28a.49.49,0,0,1-.46-.52v-3.94a.29.29,0,0,1,.29-.28h4.51a.29.29,0,0,1,.29.28v.43a.3.3,0,0,1-.29.29h-3.8v2.74h1.74c2.25,0,3.45,1.19,3.45,3.13a3.4,3.4,0,0,1-3.47,3.43A3.55,3.55,0,0,1,485,181C484.77,180.74,484.76,180.64,484.93,180.47Z" transform="translate(-6.79 -21)"/><path class="cls-1" d="M16.28,196.19a.27.27,0,0,1,.27-.28h5.71a.28.28,0,0,1,.28.28v.42a.28.28,0,0,1-.28.27H17.39v3.54h4.16a.28.28,0,0,1,.28.27v.42a.28.28,0,0,1-.28.28H17.39v3.7h4.87a.28.28,0,0,1,.28.27v.42a.28.28,0,0,1-.28.28H16.55a.27.27,0,0,1-.27-.28Z" transform="translate(-6.79 -21)"/><path class="cls-1" d="M29.93,200.91a2.55,2.55,0,0,1,1.73,2.35,2.83,2.83,0,0,1-3.06,2.8H25.19a.27.27,0,0,1-.27-.28v-9.59a.27.27,0,0,1,.27-.28H28.4a2.7,2.7,0,0,1,2.94,2.67,2.66,2.66,0,0,1-1.41,2.3Zm-1.4,4.18a1.79,1.79,0,0,0,1.91-1.84,1.85,1.85,0,0,0-2-1.79H26v3.63Zm-.32-4.63a1.76,1.76,0,0,0,1.9-1.81,1.7,1.7,0,0,0-1.9-1.74H26v3.55Z" transform="translate(-6.79 -21)"/><path class="cls-1" d="M34.24,196.19a.29.29,0,0,1,.28-.28h.58a.28.28,0,0,1,.27.28v9.59a.28.28,0,0,1-.27.28h-.58a.29.29,0,0,1-.28-.28Z" transform="translate(-6.79 -21)"/><path class="cls-1" d="M40.23,196.88H37.71a.28.28,0,0,1-.28-.27v-.42a.28.28,0,0,1,.28-.28h6.14a.28.28,0,0,1,.28.28v.42a.28.28,0,0,1-.28.27H41.33v8.9a.28.28,0,0,1-.27.28h-.55a.29.29,0,0,1-.28-.28Z" transform="translate(-6.79 -21)"/><path class="cls-1" d="M46.19,196.19a.28.28,0,0,1,.26-.28H49.7a5.08,5.08,0,1,1,0,10.15H46.45a.28.28,0,0,1-.26-.28Zm3.38,8.87a4.08,4.08,0,0,0,0-8.16H47.29v8.16Z" transform="translate(-6.79 -21)"/><path class="cls-1" d="M55.77,205.68l4.41-9.76a.27.27,0,0,1,.25-.15h.14a.27.27,0,0,1,.25.15l4.38,9.76a.26.26,0,0,1-.25.38h-.58a.28.28,0,0,1-.25-.16l-1.07-2.39H57.91l-1.06,2.39a.28.28,0,0,1-.25.16H56A.26.26,0,0,1,55.77,205.68Zm6.89-3.07c-.71-1.58-1.41-3.18-2.12-4.76h-.11l-2.12,4.76Z" transform="translate(-6.79 -21)"/><path class="cls-1" d="M193.53,200.85v0a2.56,2.56,0,0,1-1.54-2.3c0-1.66,1.43-2.73,3.23-2.73s3.31,1.07,3.31,2.73a2.65,2.65,0,0,1-1.54,2.28v.07a2.75,2.75,0,0,1,1.81,2.5c0,1.62-1.38,2.85-3.58,2.85s-3.51-1.23-3.51-2.85A2.81,2.81,0,0,1,193.53,200.85Zm1.73,3.83a1.4,1.4,0,0,0,1.56-1.38,1.56,1.56,0,1,0-3.12,0A1.39,1.39,0,0,0,195.26,204.68Zm1.35-6.1a1.29,1.29,0,0,0-1.39-1.28,1.27,1.27,0,0,0-1.32,1.28c0,.66.42,1.17,1.36,1.4C196.18,199.77,196.61,199.22,196.61,198.58Z" transform="translate(-6.79 -21)"/><path class="cls-1" d="M200.5,198.91a.24.24,0,0,1-.3-.2l-.09-.73c0-.16,0-.21.14-.32l1.86-1.56a.7.7,0,0,1,.51-.19h.75a.28.28,0,0,1,.28.28v9.58a.28.28,0,0,1-.28.29h-1.28a.28.28,0,0,1-.29-.29v-7.15Z" transform="translate(-6.79 -21)"/><path class="cls-1" d="M206.94,203.81c.72,0,1.32.61,1.32,1.74a3.24,3.24,0,0,1-1.24,2.59c-.11.12-.2.06-.3,0l-.36-.35c-.1-.11,0-.21.07-.32a2.35,2.35,0,0,0,.81-1.39.7.7,0,0,0,0-.27,1,1,0,0,1-.49.14.92.92,0,0,1-.92-1A1.08,1.08,0,0,1,206.94,203.81Z" transform="translate(-6.79 -21)"/><path class="cls-1" d="M216,204.46a.29.29,0,0,1,.29.28v1a.29.29,0,0,1-.29.29h-5.88a.28.28,0,0,1-.28-.29v-.15a.57.57,0,0,1,.12-.33c1-1.25,2.8-3.57,3.75-4.83a2.76,2.76,0,0,0,.76-1.65,1.41,1.41,0,0,0-1.58-1.35,2.47,2.47,0,0,0-1.67.87.25.25,0,0,1-.4,0l-.73-.71a.29.29,0,0,1,0-.39,4.15,4.15,0,0,1,2.94-1.46,3,3,0,0,1,3.33,3,4,4,0,0,1-1,2.4c-.62.9-1.75,2.29-2.53,3.29v0Z" transform="translate(-6.79 -21)"/><path class="cls-1" d="M218.15,198.91a.25.25,0,0,1-.31-.2l-.08-.73c0-.16,0-.21.14-.32l1.86-1.56a.69.69,0,0,1,.5-.19H221a.27.27,0,0,1,.27.28v9.58a.27.27,0,0,1-.27.29h-1.28a.28.28,0,0,1-.29-.29v-7.15Z" transform="translate(-6.79 -21)"/><path class="cls-1" d="M223.47,203.9a.3.3,0,0,1-.29-.29v-.94a.7.7,0,0,1,.19-.51l5.13-6.24a.43.43,0,0,1,.37-.15h.72a.29.29,0,0,1,.28.29v6.29h1.19a.26.26,0,0,1,.29.26v1a.29.29,0,0,1-.29.29h-1.19l0,1.87a.29.29,0,0,1-.29.29h-1.23a.3.3,0,0,1-.29-.29V203.9Zm4.67-1.51v-3.61h0l-2.93,3.58v0Z" transform="translate(-6.79 -21)"/><path class="cls-1" d="M274.8,198.91a.25.25,0,0,1-.31-.2l-.08-.73c0-.16,0-.21.14-.32l1.86-1.56a.69.69,0,0,1,.5-.19h.76a.27.27,0,0,1,.27.28v9.58a.27.27,0,0,1-.27.29h-1.28a.28.28,0,0,1-.29-.29v-7.15Z" transform="translate(-6.79 -21)"/><path class="cls-1" d="M280.19,198.91a.24.24,0,0,1-.3-.2l-.09-.73a.29.29,0,0,1,.15-.32l1.85-1.56a.74.74,0,0,1,.51-.19h.75a.28.28,0,0,1,.28.28v9.58a.28.28,0,0,1-.28.29h-1.27a.28.28,0,0,1-.29-.29v-7.15Z" transform="translate(-6.79 -21)"/><path class="cls-1" d="M286.43,203.81a1.21,1.21,0,1,1-1.21,1.2A1.23,1.23,0,0,1,286.43,203.81Z" transform="translate(-6.79 -21)"/><path class="cls-1" d="M288.76,201c0-3.27,1.38-5.21,3.76-5.21s3.76,1.94,3.76,5.21-1.37,5.22-3.76,5.22S288.76,204.25,288.76,201Zm5.64,0c0-2.21-.73-3.49-1.88-3.49s-1.87,1.28-1.87,3.49.72,3.51,1.87,3.51S294.4,203.2,294.4,201Z" transform="translate(-6.79 -21)"/><path class="cls-1" d="M319.38,196.91a.29.29,0,0,1-.27-.29v-.43a.28.28,0,0,1,.27-.28h6a.26.26,0,0,1,.29.28.43.43,0,0,1-.08.24l-4.29,9.24a.56.56,0,0,1-.49.39h-.43a.29.29,0,0,1-.28-.29.76.76,0,0,1,.1-.36l4.05-8.47v0Z" transform="translate(-6.79 -21)"/><path class="cls-1" d="M327.27,204.46c.12-.1.22-.23.35-.33s.25-.15.36,0a2.73,2.73,0,0,0,2.22,1.11,2.42,2.42,0,0,0,2.35-2.45,2.1,2.1,0,0,0-2.35-2.15h-2.27a.5.5,0,0,1-.47-.52v-3.94a.29.29,0,0,1,.29-.28h4.51a.29.29,0,0,1,.29.28v.43a.3.3,0,0,1-.29.29h-3.8v2.74h1.74c2.25,0,3.45,1.19,3.45,3.13a3.39,3.39,0,0,1-3.46,3.42A3.56,3.56,0,0,1,327.3,205C327.11,204.74,327.1,204.64,327.27,204.46Z" transform="translate(-6.79 -21)"/><path class="cls-1" d="M336,204.46c.71,0,1.09.71,1.09,1.6a2.44,2.44,0,0,1-.87,2,.15.15,0,0,1-.24,0l-.24-.23c-.09-.09-.05-.19,0-.26a1.73,1.73,0,0,0,.65-1.29,1,1,0,0,0-.06-.33,1,1,0,0,1-.48.13.69.69,0,0,1-.69-.71A.8.8,0,0,1,336,204.46Z" transform="translate(-6.79 -21)"/><path class="cls-1" d="M338.89,204.52l.4-.35a.26.26,0,0,1,.41.08,3,3,0,0,0,2.23,1,2,2,0,0,0,2.15-1.88c0-1.12-.8-1.93-2.64-1.93h-.84c-.16,0-.29-.08-.29-.33v-.36c0-.23.07-.32.32-.32h.82c1.6,0,2.37-.83,2.37-1.81a1.85,1.85,0,0,0-2-1.89,2.58,2.58,0,0,0-2,1,.23.23,0,0,1-.37,0l-.37-.27a.29.29,0,0,1,0-.4,3.85,3.85,0,0,1,2.7-1.31c1.81,0,3.09,1,3.09,2.72a2.76,2.76,0,0,1-1.55,2.36v.05a2.67,2.67,0,0,1,1.79,2.37c0,1.7-1.24,2.93-3.32,2.93a3.74,3.74,0,0,1-3-1.32A.25.25,0,0,1,338.89,204.52Z" transform="translate(-6.79 -21)"/><path class="cls-1" d="M348.82,200.84v-.06a2.67,2.67,0,0,1-1.54-2.3c0-1.66,1.31-2.71,3.09-2.71s3.1,1,3.1,2.71a2.68,2.68,0,0,1-1.53,2.3v.06a2.92,2.92,0,0,1,1.79,2.48c0,1.62-1.19,2.88-3.37,2.88s-3.34-1.26-3.34-2.88A2.91,2.91,0,0,1,348.82,200.84Zm1.54,4.48c1.33,0,2.26-.73,2.26-1.9a2.25,2.25,0,0,0-4.48,0C348.14,204.56,349,205.32,350.36,205.32Zm2-6.8a1.86,1.86,0,0,0-2-1.86,1.84,1.84,0,0,0-2,1.86c0,.93.59,1.65,2,1.78C351.75,200.17,352.37,199.45,352.37,198.52Z" transform="translate(-6.79 -21)"/><path class="cls-1" d="M355.32,196.91a.3.3,0,0,1-.28-.29v-.43a.29.29,0,0,1,.28-.28h6a.26.26,0,0,1,.29.28.43.43,0,0,1-.08.24l-4.29,9.24a.56.56,0,0,1-.49.39h-.43a.29.29,0,0,1-.28-.29.76.76,0,0,1,.1-.36l4.05-8.47v0Z" transform="translate(-6.79 -21)"/><path class="cls-1" d="M404.17,198.59a.23.23,0,0,1-.34,0l-.29-.32a.23.23,0,0,1,0-.32l2-1.93a.31.31,0,0,1,.24-.1h.27a.28.28,0,0,1,.27.28v9.58a.29.29,0,0,1-.27.29h-.54a.29.29,0,0,1-.29-.29v-8h0Z" transform="translate(-6.79 -21)"/><path class="cls-1" d="M408.78,201c0-3.27,1.32-5.21,3.62-5.21S416,197.71,416,201s-1.32,5.22-3.64,5.22S408.78,204.25,408.78,201Zm6.13,0c0-2.71-.86-4.2-2.51-4.2s-2.49,1.49-2.49,4.2.85,4.21,2.49,4.21S414.91,203.71,414.91,201Z" transform="translate(-6.79 -21)"/><path class="cls-1" d="M417.94,204.48a.85.85,0,0,1,.87.85.88.88,0,0,1-.87.89.87.87,0,0,1-.85-.89A.84.84,0,0,1,417.94,204.48Z" transform="translate(-6.79 -21)"/><path class="cls-1" d="M420.32,196.91a.3.3,0,0,1-.28-.29v-.43a.29.29,0,0,1,.28-.28h6a.26.26,0,0,1,.29.28.48.48,0,0,1-.07.24l-4.29,9.24a.59.59,0,0,1-.5.39h-.43a.29.29,0,0,1-.28-.29.68.68,0,0,1,.11-.36l4-8.47v0Z" transform="translate(-6.79 -21)"/><path class="cls-1" d="M476.2,196.91a.29.29,0,0,1-.27-.29v-.43a.28.28,0,0,1,.27-.28h6a.26.26,0,0,1,.29.28.48.48,0,0,1-.07.24l-4.29,9.24a.57.57,0,0,1-.49.39h-.44a.29.29,0,0,1-.27-.29.76.76,0,0,1,.1-.36l4-8.47v0Z" transform="translate(-6.79 -21)"/><path class="cls-1" d="M483,204.48a.85.85,0,0,1,.87.85.87.87,0,1,1-1.73,0A.85.85,0,0,1,483,204.48Z" transform="translate(-6.79 -21)"/><path class="cls-1" d="M485.34,196.91a.3.3,0,0,1-.28-.29v-.43a.29.29,0,0,1,.28-.28h6a.26.26,0,0,1,.29.28.48.48,0,0,1-.07.24l-4.29,9.24a.59.59,0,0,1-.5.39h-.43a.29.29,0,0,1-.28-.29.76.76,0,0,1,.1-.36l4-8.47v0Z" transform="translate(-6.79 -21)"/><path class="cls-1" d="M16.19,220.18a.28.28,0,0,1,.28-.27H17a.27.27,0,0,1,.27.27v6.11a2.74,2.74,0,1,0,5.48,0v-6.13a.28.28,0,0,1,.28-.27h.55a.28.28,0,0,1,.27.27v6.19A3.69,3.69,0,0,1,20,230.2a3.68,3.68,0,0,1-3.83-3.83Z" transform="translate(-6.79 -21)"/><path class="cls-1" d="M26,224.29a.32.32,0,0,1-.34-.32v-.29a.31.31,0,0,1,.34-.32h.88V221.5a.35.35,0,0,1,.32-.32l.45,0a.31.31,0,0,1,.3.32v1.89h2a.32.32,0,0,1,.33.32V224a.33.33,0,0,1-.33.32H28v4a.89.89,0,0,0,.9,1,2,2,0,0,0,1-.29c.26-.16.36,0,.42.13l.12.29c.08.22.06.34-.12.44a3.48,3.48,0,0,1-1.58.4,1.84,1.84,0,0,1-1.84-2v-4Z" transform="translate(-6.79 -21)"/><path class="cls-1" d="M32,220.85a.79.79,0,1,1,.78.78A.79.79,0,0,1,32,220.85Zm.28,2.83a.33.33,0,0,1,.32-.32H33a.34.34,0,0,1,.32.32v6.06a.33.33,0,0,1-.32.31h-.43a.31.31,0,0,1-.32-.31Z" transform="translate(-6.79 -21)"/><path class="cls-1" d="M35.92,220.23a.34.34,0,0,1,.32-.32h.44a.34.34,0,0,1,.32.32v9.51a.33.33,0,0,1-.32.31h-.44a.32.32,0,0,1-.32-.31Z" transform="translate(-6.79 -21)"/><path class="cls-1" d="M39.35,220.85a.78.78,0,0,1,.78-.81.8.8,0,1,1,0,1.59A.78.78,0,0,1,39.35,220.85Zm.27,2.83a.34.34,0,0,1,.32-.32h.44a.33.33,0,0,1,.31.32v6.06a.32.32,0,0,1-.31.31h-.44a.32.32,0,0,1-.32-.31Z" transform="translate(-6.79 -21)"/><path class="cls-1" d="M46,223.21a4.18,4.18,0,0,1,1.86.42v-3.4a.33.33,0,0,1,.32-.32h.4a.34.34,0,0,1,.33.32v9.62a.24.24,0,0,1-.26.26c-.42,0-.65-.32-.71-.75a3.35,3.35,0,0,1-2.11.85,3.28,3.28,0,0,1-3-3.52C42.83,224.73,44,223.21,46,223.21Zm0,6a2.49,2.49,0,0,0,1.9-1.07v-3.61a4.42,4.42,0,0,0-1.71-.38,2.3,2.3,0,0,0-2.24,2.53A2.33,2.33,0,0,0,46,229.24Z" transform="translate(-6.79 -21)"/><path class="cls-1" d="M53.63,225.81a5.88,5.88,0,0,1,1.43.21c0-1.23-.58-1.84-1.53-1.84a3.85,3.85,0,0,0-1.55.4c-.18.07-.27,0-.32-.18l-.15-.39c-.06-.2.05-.29.2-.36a4.28,4.28,0,0,1,1.87-.44c1.72,0,2.51,1,2.51,2.81v3.83a.24.24,0,0,1-.26.26c-.43,0-.67-.33-.71-.78a2.93,2.93,0,0,1-2.1.88A2,2,0,0,1,51,228C51,226.75,51.9,225.81,53.63,225.81Zm-.42,3.43a2.32,2.32,0,0,0,1.84-.9V227a3.53,3.53,0,0,0-1.42-.26c-.93,0-1.63.45-1.63,1.31A1.16,1.16,0,0,0,53.21,229.24Z" transform="translate(-6.79 -21)"/><path class="cls-1" d="M61.34,223.21a4.18,4.18,0,0,1,1.86.42v-3.4a.33.33,0,0,1,.32-.32h.4a.35.35,0,0,1,.34.32v9.62a.25.25,0,0,1-.27.26c-.42,0-.65-.32-.71-.75a3.35,3.35,0,0,1-2.11.85,3.28,3.28,0,0,1-3-3.52C58.17,224.73,59.33,223.21,61.34,223.21Zm0,6a2.49,2.49,0,0,0,1.9-1.07v-3.61a4.42,4.42,0,0,0-1.71-.38,2.3,2.3,0,0,0-2.24,2.53A2.33,2.33,0,0,0,61.3,229.24Z" transform="translate(-6.79 -21)"/><path class="cls-1" d="M70.56,223.56a.25.25,0,0,1,.27-.26c.42,0,.65.32.69.75a3.48,3.48,0,0,1,2.25-.84c1.94,0,2.42,1.26,2.42,3v3.54a.33.33,0,0,1-.32.31h-.43a.31.31,0,0,1-.32-.31v-3.69c0-1.27-.44-1.87-1.42-1.87a2.91,2.91,0,0,0-2.06.93v4.63a.33.33,0,0,1-.32.31h-.44a.32.32,0,0,1-.32-.31Z" transform="translate(-6.79 -21)"/><path class="cls-1" d="M81.5,223.21a3,3,0,0,1,3,3c0,.11,0,.29,0,.4a.31.31,0,0,1-.31.29H79.32a2.35,2.35,0,0,0,2.19,2.29,3,3,0,0,0,1.81-.55c.23-.16.34-.22.51.05L84,229c.13.2.19.28,0,.47a4.19,4.19,0,0,1-2.45.76,3.51,3.51,0,0,1,0-7Zm2,2.89a2,2,0,0,0-2-1.92,2.19,2.19,0,0,0-2.16,1.92Z" transform="translate(-6.79 -21)"/><path class="cls-1" d="M86.12,224.29a.32.32,0,0,1-.33-.32v-.29a.31.31,0,0,1,.33-.32H87V221.5a.35.35,0,0,1,.32-.32l.45,0a.31.31,0,0,1,.3.32v1.89h2a.31.31,0,0,1,.33.32V224a.32.32,0,0,1-.33.32h-2v4a.88.88,0,0,0,.9,1,2.08,2.08,0,0,0,1-.29c.26-.16.36,0,.42.13l.11.29c.09.22.06.34-.11.44a3.48,3.48,0,0,1-1.58.4,1.83,1.83,0,0,1-1.84-2v-4Z" transform="translate(-6.79 -21)"/><path class="cls-1" d="M94.52,225.81A5.88,5.88,0,0,1,96,226c0-1.23-.58-1.84-1.53-1.84a3.85,3.85,0,0,0-1.55.4c-.18.07-.27,0-.32-.18L92.4,224c-.06-.2,0-.29.2-.36a4.28,4.28,0,0,1,1.87-.44c1.71,0,2.51,1,2.51,2.81v3.83a.24.24,0,0,1-.26.26c-.43,0-.67-.33-.71-.78a2.93,2.93,0,0,1-2.1.88A2,2,0,0,1,91.84,228C91.84,226.75,92.79,225.81,94.52,225.81Zm-.42,3.43a2.32,2.32,0,0,0,1.84-.9V227a3.57,3.57,0,0,0-1.42-.26c-.93,0-1.63.45-1.63,1.31A1.16,1.16,0,0,0,94.1,229.24Z" transform="translate(-6.79 -21)"/><path class="cls-1" d="M188.48,227.89a.3.3,0,0,1-.29-.29v-.94a.69.69,0,0,1,.19-.5l5.13-6.24a.44.44,0,0,1,.38-.16h.71a.29.29,0,0,1,.29.29v6.29h1.19a.26.26,0,0,1,.28.26v1a.28.28,0,0,1-.28.29h-1.19v1.87a.29.29,0,0,1-.29.29h-1.23a.3.3,0,0,1-.29-.29v-1.87Zm4.67-1.5v-3.61h0l-2.93,3.58v0Z" transform="translate(-6.79 -21)"/><path class="cls-1" d="M198,227.89a.3.3,0,0,1-.29-.29v-.94a.66.66,0,0,1,.19-.5l5.13-6.24a.43.43,0,0,1,.37-.16h.71a.29.29,0,0,1,.29.29v6.29h1.19a.27.27,0,0,1,.29.26v1a.28.28,0,0,1-.29.29h-1.19l0,1.87a.29.29,0,0,1-.29.29h-1.23a.3.3,0,0,1-.29-.29v-1.87Zm4.66-1.5v-3.61h0l-2.93,3.58v0Z" transform="translate(-6.79 -21)"/><path class="cls-1" d="M208.46,227.81c.72,0,1.32.61,1.32,1.74a3.29,3.29,0,0,1-1.23,2.59c-.12.12-.21.06-.31,0l-.36-.35c-.1-.12,0-.22.07-.32a2.38,2.38,0,0,0,.81-1.39.75.75,0,0,0,0-.28.86.86,0,0,1-.49.15.92.92,0,0,1-.92-1A1.08,1.08,0,0,1,208.46,227.81Z" transform="translate(-6.79 -21)"/><path class="cls-1" d="M210.87,222.91a.25.25,0,0,1-.31-.2l-.08-.73a.28.28,0,0,1,.14-.32l1.86-1.56a.69.69,0,0,1,.5-.19h.76a.27.27,0,0,1,.27.27v9.58a.27.27,0,0,1-.27.29h-1.28a.28.28,0,0,1-.29-.29v-7.14Z" transform="translate(-6.79 -21)"/><path class="cls-1" d="M216.09,228.5l.77-.74a.25.25,0,0,1,.37,0,2.42,2.42,0,0,0,1.84.82,1.43,1.43,0,0,0,1.58-1.35c0-1-.71-1.54-2.06-1.54h-.84a.26.26,0,0,1-.27-.29v-.94c0-.2.1-.3.27-.3h.84c1.24,0,1.86-.6,1.86-1.37a1.4,1.4,0,0,0-1.45-1.36,1.92,1.92,0,0,0-1.51.71.27.27,0,0,1-.4,0l-.73-.68a.26.26,0,0,1,0-.39,3.55,3.55,0,0,1,2.8-1.32c1.74,0,3.19,1.06,3.19,2.74a2.51,2.51,0,0,1-1.54,2.31v.06a2.64,2.64,0,0,1,1.8,2.42c0,1.69-1.38,2.91-3.44,2.91a3.92,3.92,0,0,1-3.1-1.32A.32.32,0,0,1,216.09,228.5Z" transform="translate(-6.79 -21)"/><path class="cls-1" d="M226,224.85v-.06a2.55,2.55,0,0,1-1.53-2.29c0-1.67,1.43-2.74,3.23-2.74s3.31,1.07,3.31,2.74a2.66,2.66,0,0,1-1.54,2.28v.07a2.73,2.73,0,0,1,1.81,2.49c0,1.63-1.38,2.86-3.58,2.86s-3.51-1.23-3.51-2.86A2.81,2.81,0,0,1,226,224.85Zm1.74,3.83a1.4,1.4,0,0,0,1.56-1.38,1.56,1.56,0,1,0-3.12,0A1.39,1.39,0,0,0,227.74,228.68Zm1.35-6.1a1.29,1.29,0,0,0-1.39-1.28,1.26,1.26,0,0,0-1.32,1.28c0,.66.42,1.17,1.36,1.4C228.66,223.76,229.09,223.21,229.09,222.58Z" transform="translate(-6.79 -21)"/><path class="cls-1" d="M282.26,219.65c.22-.06.37,0,.42.2l.35.88c.07.18,0,.35-.27.44-.7.22-2.82,1.14-3.28,2.8a3.82,3.82,0,0,1,1.7-.42,3,3,0,0,1,3,3.23,3.42,3.42,0,0,1-3.38,3.42c-2.33,0-3.55-1.87-3.55-4.12C277.29,221.72,281,220.07,282.26,219.65Zm.28,7.1a1.72,1.72,0,0,0-1.73-1.75,1.83,1.83,0,0,0-1.72,1.3c0,1,.54,2.23,1.74,2.23A1.7,1.7,0,0,0,282.54,226.75Z" transform="translate(-6.79 -21)"/><path class="cls-1" d="M286.44,227.81a1.2,1.2,0,1,1,0,2.4,1.2,1.2,0,1,1,0-2.4Z" transform="translate(-6.79 -21)"/><path class="cls-1" d="M288.78,225c0-3.27,1.37-5.22,3.75-5.22s3.77,2,3.77,5.22-1.38,5.22-3.77,5.22S288.78,228.24,288.78,225Zm5.63,0c0-2.22-.72-3.49-1.88-3.49s-1.87,1.27-1.87,3.49.72,3.51,1.87,3.51S294.41,227.2,294.41,225Z" transform="translate(-6.79 -21)"/><path class="cls-1" d="M317.56,228.52l.4-.35a.26.26,0,0,1,.41.07,3,3,0,0,0,2.23,1,2,2,0,0,0,2.15-1.88c0-1.12-.8-1.93-2.64-1.93h-.84c-.16,0-.29-.09-.29-.33v-.37c0-.23.07-.32.32-.32h.82c1.6,0,2.37-.82,2.37-1.81a1.85,1.85,0,0,0-2-1.88,2.55,2.55,0,0,0-2,1,.23.23,0,0,1-.37,0l-.37-.28a.28.28,0,0,1,0-.39,3.85,3.85,0,0,1,2.7-1.32c1.81,0,3.09,1.05,3.09,2.73a2.78,2.78,0,0,1-1.55,2.36v0a2.68,2.68,0,0,1,1.79,2.38c0,1.7-1.24,2.93-3.32,2.93a3.77,3.77,0,0,1-3-1.32A.25.25,0,0,1,317.56,228.52Z" transform="translate(-6.79 -21)"/><path class="cls-1" d="M325.68,228.52l.4-.35a.26.26,0,0,1,.41.07,3,3,0,0,0,2.23,1,2,2,0,0,0,2.15-1.88c0-1.12-.8-1.93-2.64-1.93h-.84c-.16,0-.29-.09-.29-.33v-.37c0-.23.07-.32.32-.32h.82c1.6,0,2.37-.82,2.37-1.81a1.85,1.85,0,0,0-2-1.88,2.55,2.55,0,0,0-2,1,.23.23,0,0,1-.37,0l-.37-.28a.28.28,0,0,1,0-.39,3.85,3.85,0,0,1,2.7-1.32c1.81,0,3.09,1.05,3.09,2.73a2.78,2.78,0,0,1-1.55,2.36v0a2.68,2.68,0,0,1,1.79,2.38c0,1.7-1.24,2.93-3.32,2.93a3.77,3.77,0,0,1-3-1.32A.25.25,0,0,1,325.68,228.52Z" transform="translate(-6.79 -21)"/><path class="cls-1" d="M334.44,228.46c.71,0,1.08.71,1.08,1.59a2.45,2.45,0,0,1-.87,2,.15.15,0,0,1-.23,0l-.25-.23a.18.18,0,0,1,0-.26,1.71,1.71,0,0,0,.66-1.29,1.11,1.11,0,0,0-.06-.34,1,1,0,0,1-.48.13.7.7,0,0,1-.7-.71A.8.8,0,0,1,334.44,228.46Z" transform="translate(-6.79 -21)"/><path class="cls-1" d="M337.26,227.75a.29.29,0,0,1-.29-.28v-.4a.41.41,0,0,1,.09-.26l5.52-6.87a.35.35,0,0,1,.35-.18h.25a.29.29,0,0,1,.27.29v6.79h1.22a.26.26,0,0,1,.28.26v.37a.28.28,0,0,1-.28.28h-1.22v2a.29.29,0,0,1-.27.29h-.48a.3.3,0,0,1-.29-.29v-2Zm1-1v.08h4.19v-5.21h0Z" transform="translate(-6.79 -21)"/><path class="cls-1" d="M346.59,228.52l.4-.35a.26.26,0,0,1,.41.07,3,3,0,0,0,2.23,1,2,2,0,0,0,2.15-1.88c0-1.12-.8-1.93-2.64-1.93h-.84c-.16,0-.29-.09-.29-.33v-.37c0-.23.07-.32.32-.32h.82c1.6,0,2.36-.82,2.36-1.81a1.84,1.84,0,0,0-1.95-1.88,2.53,2.53,0,0,0-2,1,.24.24,0,0,1-.38,0l-.36-.28a.28.28,0,0,1,0-.39,3.82,3.82,0,0,1,2.7-1.32c1.81,0,3.09,1.05,3.09,2.73a2.77,2.77,0,0,1-1.56,2.36v0a2.69,2.69,0,0,1,1.8,2.38c0,1.7-1.24,2.93-3.32,2.93a3.77,3.77,0,0,1-3-1.32A.25.25,0,0,1,346.59,228.52Z" transform="translate(-6.79 -21)"/><path class="cls-1" d="M354.94,228.46c.11-.1.22-.23.35-.33s.24-.15.36,0a2.71,2.71,0,0,0,2.22,1.1,2.41,2.41,0,0,0,2.34-2.45,2.09,2.09,0,0,0-2.34-2.14h-2.28a.5.5,0,0,1-.46-.52v-3.95a.29.29,0,0,1,.29-.27h4.5a.29.29,0,0,1,.29.27v.44a.3.3,0,0,1-.29.29h-3.79v2.74h1.74c2.24,0,3.45,1.19,3.45,3.13a3.39,3.39,0,0,1-3.47,3.42A3.54,3.54,0,0,1,355,229C354.78,228.74,354.76,228.63,354.94,228.46Z" transform="translate(-6.79 -21)"/><path class="cls-1" d="M398.56,227.75a.29.29,0,0,1-.29-.28v-.4a.4.4,0,0,1,.08-.26l5.53-6.87a.33.33,0,0,1,.34-.18h.25a.29.29,0,0,1,.27.29v6.79H406a.26.26,0,0,1,.28.26v.37a.28.28,0,0,1-.28.28h-1.22v2a.29.29,0,0,1-.27.29H404a.3.3,0,0,1-.29-.29v-2Zm.95-1v.08h4.19v-5.21h0Z" transform="translate(-6.79 -21)"/><path class="cls-1" d="M408.24,228.47a.86.86,0,0,1,.87.86.87.87,0,0,1-.87.88.86.86,0,0,1-.85-.88A.85.85,0,0,1,408.24,228.47Z" transform="translate(-6.79 -21)"/><path class="cls-1" d="M410.44,225c0-3.27,1.32-5.22,3.63-5.22s3.64,2,3.64,5.22-1.32,5.22-3.64,5.22S410.44,228.24,410.44,225Zm6.14,0c0-2.71-.86-4.2-2.51-4.2s-2.49,1.49-2.49,4.2.85,4.2,2.49,4.2S416.58,227.71,416.58,225Z" transform="translate(-6.79 -21)"/><path class="cls-1" d="M421.28,224.84v-.06a2.69,2.69,0,0,1-1.54-2.31c0-1.65,1.3-2.71,3.09-2.71s3.1,1.06,3.1,2.71a2.69,2.69,0,0,1-1.54,2.31v.06a2.89,2.89,0,0,1,1.8,2.48c0,1.62-1.19,2.88-3.38,2.88s-3.33-1.26-3.33-2.88A2.89,2.89,0,0,1,421.28,224.84Zm1.53,4.48c1.34,0,2.26-.73,2.26-1.9a2.25,2.25,0,0,0-4.48,0C420.59,228.56,421.46,229.32,422.81,229.32Zm2-6.8a1.86,1.86,0,0,0-2-1.86,1.84,1.84,0,0,0-2,1.86c0,.92.59,1.65,2,1.78C424.2,224.17,424.83,223.44,424.83,222.52Z" transform="translate(-6.79 -21)"/><path class="cls-1" d="M464.86,228.52l.41-.35a.26.26,0,0,1,.41.07,3,3,0,0,0,2.23,1,1.94,1.94,0,0,0,2.14-1.88c0-1.12-.79-1.93-2.63-1.93h-.85c-.16,0-.29-.09-.29-.33v-.37c0-.23.08-.32.32-.32h.83c1.59,0,2.36-.82,2.36-1.81a1.84,1.84,0,0,0-2-1.88,2.53,2.53,0,0,0-2,1,.24.24,0,0,1-.38,0l-.36-.28a.27.27,0,0,1,0-.39,3.82,3.82,0,0,1,2.7-1.32c1.81,0,3.08,1.05,3.08,2.73a2.78,2.78,0,0,1-1.55,2.36v0a2.69,2.69,0,0,1,1.8,2.38c0,1.7-1.25,2.93-3.32,2.93a3.74,3.74,0,0,1-3-1.32A.25.25,0,0,1,464.86,228.52Z" transform="translate(-6.79 -21)"/><path class="cls-1" d="M478.81,229.08a.29.29,0,0,1,.29.29v.39a.29.29,0,0,1-.29.29h-5.67a.28.28,0,0,1-.29-.29v-.2a.48.48,0,0,1,.19-.43c1.16-1.25,2.31-2.53,3.48-3.76a4.56,4.56,0,0,0,1.51-2.71,1.88,1.88,0,0,0-2.1-1.88,3.08,3.08,0,0,0-2.12,1.13.3.3,0,0,1-.41,0l-.29-.29a.32.32,0,0,1,0-.39,3.79,3.79,0,0,1,2.83-1.47c2.14,0,3.23,1.35,3.23,2.87,0,1.32-.84,2.29-1.87,3.39l-2.84,3v0Z" transform="translate(-6.79 -21)"/><path class="cls-1" d="M481.7,228.47a.86.86,0,0,1,.87.86.87.87,0,1,1-1.73,0A.85.85,0,0,1,481.7,228.47Z" transform="translate(-6.79 -21)"/><path class="cls-1" d="M483.9,225c0-3.27,1.32-5.22,3.63-5.22s3.63,2,3.63,5.22-1.31,5.22-3.63,5.22S483.9,228.24,483.9,225Zm6.13,0c0-2.71-.85-4.2-2.5-4.2s-2.5,1.49-2.5,4.2.86,4.2,2.5,4.2S490,227.71,490,225Z" transform="translate(-6.79 -21)"/></svg>