<svg id="Capa_1" data-name="Capa 1" xmlns="http://www.w3.org/2000/svg" viewBox="0 0 315.72 225.8"><defs><style>.cls-1{fill:#99c1e8;}.cls-2{fill:none;stroke:#fff;stroke-miterlimit:10;stroke-width:0.5px;}.cls-3{fill:#4a8fcd;}.cls-4{fill:#009ee2;}.cls-5{fill:#4a5b6d;}.cls-6{fill:#8bbbea;}</style></defs><rect class="cls-1" x="0.25" y="0.45" width="22.36" height="22.36"/><rect class="cls-2" x="0.25" y="0.45" width="22.36" height="22.36"/><rect class="cls-1" x="22.78" y="0.45" width="22.36" height="22.36"/><rect class="cls-2" x="22.78" y="0.45" width="22.36" height="22.36"/><rect class="cls-1" x="45.3" y="0.45" width="22.36" height="22.36"/><rect class="cls-2" x="45.3" y="0.45" width="22.36" height="22.36"/><rect class="cls-1" x="67.83" y="0.45" width="22.36" height="22.36"/><rect class="cls-2" x="67.83" y="0.45" width="22.36" height="22.36"/><rect class="cls-1" x="90.36" y="0.45" width="22.36" height="22.36"/><rect class="cls-2" x="90.36" y="0.45" width="22.36" height="22.36"/><rect class="cls-1" x="112.88" y="0.45" width="22.36" height="22.36"/><rect class="cls-2" x="112.88" y="0.45" width="22.36" height="22.36"/><rect class="cls-1" x="135.41" y="0.45" width="22.36" height="22.36"/><rect class="cls-2" x="135.41" y="0.45" width="22.36" height="22.36"/><rect class="cls-1" x="157.93" y="0.45" width="22.36" height="22.36"/><rect class="cls-2" x="157.93" y="0.45" width="22.36" height="22.36"/><rect class="cls-1" x="180.46" y="0.45" width="22.36" height="22.36"/><rect class="cls-2" x="180.46" y="0.45" width="22.36" height="22.36"/><rect class="cls-1" x="202.99" y="0.45" width="22.36" height="22.36"/><rect class="cls-2" x="202.99" y="0.45" width="22.36" height="22.36"/><rect class="cls-1" x="0.25" y="22.98" width="22.36" height="22.36"/><rect class="cls-2" x="0.25" y="22.98" width="22.36" height="22.36"/><rect class="cls-1" x="22.78" y="22.98" width="22.36" height="22.36"/><rect class="cls-2" x="22.78" y="22.98" width="22.36" height="22.36"/><rect class="cls-1" x="45.3" y="22.98" width="22.36" height="22.36"/><rect class="cls-2" x="45.3" y="22.98" width="22.36" height="22.36"/><rect class="cls-1" x="67.83" y="22.98" width="22.36" height="22.36"/><rect class="cls-2" x="67.83" y="22.98" width="22.36" height="22.36"/><rect class="cls-1" x="90.36" y="22.98" width="22.36" height="22.36"/><rect class="cls-2" x="90.36" y="22.98" width="22.36" height="22.36"/><rect class="cls-1" x="112.88" y="22.98" width="22.36" height="22.36"/><rect class="cls-2" x="112.88" y="22.98" width="22.36" height="22.36"/><rect class="cls-1" x="135.41" y="22.98" width="22.36" height="22.36"/><rect class="cls-2" x="135.41" y="22.98" width="22.36" height="22.36"/><rect class="cls-1" x="157.93" y="22.98" width="22.36" height="22.36"/><rect class="cls-2" x="157.93" y="22.98" width="22.36" height="22.36"/><rect class="cls-1" x="180.46" y="22.98" width="22.36" height="22.36"/><rect class="cls-2" x="180.46" y="22.98" width="22.36" height="22.36"/><rect class="cls-1" x="202.99" y="22.98" width="22.36" height="22.36"/><rect class="cls-2" x="202.99" y="22.98" width="22.36" height="22.36"/><rect class="cls-1" x="0.25" y="45.51" width="22.36" height="22.36"/><rect class="cls-2" x="0.25" y="45.51" width="22.36" height="22.36"/><rect class="cls-1" x="22.78" y="45.51" width="22.36" height="22.36"/><rect class="cls-2" x="22.78" y="45.51" width="22.36" height="22.36"/><rect class="cls-3" x="45.3" y="45.51" width="22.36" height="22.36"/><rect class="cls-2" x="45.3" y="45.51" width="22.36" height="22.36"/><rect class="cls-3" x="67.83" y="45.51" width="22.36" height="22.36"/><rect class="cls-2" x="67.83" y="45.51" width="22.36" height="22.36"/><rect class="cls-3" x="90.36" y="45.51" width="22.36" height="22.36"/><rect class="cls-2" x="90.36" y="45.51" width="22.36" height="22.36"/><rect class="cls-3" x="112.88" y="45.51" width="22.36" height="22.36"/><rect class="cls-2" x="112.88" y="45.51" width="22.36" height="22.36"/><rect class="cls-3" x="135.41" y="45.51" width="22.36" height="22.36"/><rect class="cls-2" x="135.41" y="45.51" width="22.36" height="22.36"/><rect class="cls-3" x="157.93" y="45.51" width="22.36" height="22.36"/><rect class="cls-2" x="157.93" y="45.51" width="22.36" height="22.36"/><rect class="cls-3" x="180.46" y="45.51" width="22.36" height="22.36"/><rect class="cls-2" x="180.46" y="45.51" width="22.36" height="22.36"/><rect class="cls-3" x="202.99" y="45.51" width="22.36" height="22.36"/><rect class="cls-2" x="202.99" y="45.51" width="22.36" height="22.36"/><rect class="cls-3" x="0.25" y="68.03" width="22.36" height="22.36"/><rect class="cls-2" x="0.25" y="68.03" width="22.36" height="22.36"/><rect class="cls-3" x="22.78" y="68.03" width="22.36" height="22.36"/><rect class="cls-2" x="22.78" y="68.03" width="22.36" height="22.36"/><rect class="cls-3" x="45.3" y="68.03" width="22.36" height="22.36"/><rect class="cls-2" x="45.3" y="68.03" width="22.36" height="22.36"/><rect class="cls-3" x="67.83" y="68.03" width="22.36" height="22.36"/><rect class="cls-2" x="67.83" y="68.03" width="22.36" height="22.36"/><rect class="cls-3" x="90.36" y="68.03" width="22.36" height="22.36"/><rect class="cls-2" x="90.36" y="68.03" width="22.36" height="22.36"/><rect class="cls-3" x="112.88" y="68.03" width="22.36" height="22.36"/><rect class="cls-2" x="112.88" y="68.03" width="22.36" height="22.36"/><rect class="cls-3" x="135.41" y="68.03" width="22.36" height="22.36"/><rect class="cls-2" x="135.41" y="68.03" width="22.36" height="22.36"/><rect class="cls-3" x="157.93" y="68.03" width="22.36" height="22.36"/><rect class="cls-2" x="157.93" y="68.03" width="22.36" height="22.36"/><rect class="cls-3" x="180.46" y="68.03" width="22.36" height="22.36"/><rect class="cls-2" x="180.46" y="68.03" width="22.36" height="22.36"/><rect class="cls-3" x="202.99" y="68.03" width="22.36" height="22.36"/><rect class="cls-2" x="202.99" y="68.03" width="22.36" height="22.36"/><rect class="cls-3" x="0.25" y="90.56" width="22.36" height="22.36"/><rect class="cls-2" x="0.25" y="90.56" width="22.36" height="22.36"/><rect class="cls-3" x="22.78" y="90.56" width="22.36" height="22.36"/><rect class="cls-2" x="22.78" y="90.56" width="22.36" height="22.36"/><rect class="cls-3" x="45.3" y="90.56" width="22.36" height="22.36"/><rect class="cls-2" x="45.3" y="90.56" width="22.36" height="22.36"/><rect class="cls-3" x="67.83" y="90.56" width="22.36" height="22.36"/><rect class="cls-2" x="67.83" y="90.56" width="22.36" height="22.36"/><rect class="cls-3" x="90.36" y="90.56" width="22.36" height="22.36"/><rect class="cls-2" x="90.36" y="90.56" width="22.36" height="22.36"/><rect class="cls-3" x="112.88" y="90.56" width="22.36" height="22.36"/><rect class="cls-2" x="112.88" y="90.56" width="22.36" height="22.36"/><rect class="cls-3" x="135.41" y="90.56" width="22.36" height="22.36"/><rect class="cls-2" x="135.41" y="90.56" width="22.36" height="22.36"/><rect class="cls-3" x="157.93" y="90.56" width="22.36" height="22.36"/><rect class="cls-2" x="157.93" y="90.56" width="22.36" height="22.36"/><rect class="cls-3" x="180.46" y="90.56" width="22.36" height="22.36"/><rect class="cls-2" x="180.46" y="90.56" width="22.36" height="22.36"/><rect class="cls-3" x="202.99" y="90.56" width="22.36" height="22.36"/><rect class="cls-2" x="202.99" y="90.56" width="22.36" height="22.36"/><rect class="cls-3" x="0.25" y="113.09" width="22.36" height="22.36"/><rect class="cls-2" x="0.25" y="113.09" width="22.36" height="22.36"/><rect class="cls-3" x="22.78" y="113.09" width="22.36" height="22.36"/><rect class="cls-2" x="22.78" y="113.09" width="22.36" height="22.36"/><rect class="cls-3" x="45.3" y="113.09" width="22.36" height="22.36"/><rect class="cls-2" x="45.3" y="113.09" width="22.36" height="22.36"/><rect class="cls-3" x="67.83" y="113.09" width="22.36" height="22.36"/><rect class="cls-2" x="67.83" y="113.09" width="22.36" height="22.36"/><rect class="cls-3" x="90.36" y="113.09" width="22.36" height="22.36"/><rect class="cls-2" x="90.36" y="113.09" width="22.36" height="22.36"/><rect class="cls-4" x="112.88" y="113.09" width="22.36" height="22.36"/><rect class="cls-2" x="112.88" y="113.09" width="22.36" height="22.36"/><rect class="cls-4" x="135.41" y="113.09" width="22.36" height="22.36"/><rect class="cls-2" x="135.41" y="113.09" width="22.36" height="22.36"/><rect class="cls-4" x="157.93" y="113.09" width="22.36" height="22.36"/><rect class="cls-2" x="157.93" y="113.09" width="22.36" height="22.36"/><rect class="cls-4" x="180.46" y="113.09" width="22.36" height="22.36"/><rect class="cls-2" x="180.46" y="113.09" width="22.36" height="22.36"/><rect class="cls-4" x="202.99" y="113.09" width="22.36" height="22.36"/><rect class="cls-2" x="202.99" y="113.09" width="22.36" height="22.36"/><rect class="cls-4" x="0.25" y="135.61" width="22.36" height="22.36"/><rect class="cls-2" x="0.25" y="135.61" width="22.36" height="22.36"/><rect class="cls-4" x="22.78" y="135.61" width="22.36" height="22.36"/><rect class="cls-2" x="22.78" y="135.61" width="22.36" height="22.36"/><rect class="cls-4" x="45.3" y="135.61" width="22.36" height="22.36"/><rect class="cls-2" x="45.3" y="135.61" width="22.36" height="22.36"/><rect class="cls-4" x="67.83" y="135.61" width="22.36" height="22.36"/><rect class="cls-2" x="67.83" y="135.61" width="22.36" height="22.36"/><rect class="cls-4" x="90.36" y="135.61" width="22.36" height="22.36"/><rect class="cls-2" x="90.36" y="135.61" width="22.36" height="22.36"/><rect class="cls-4" x="112.88" y="135.61" width="22.36" height="22.36"/><rect class="cls-2" x="112.88" y="135.61" width="22.36" height="22.36"/><rect class="cls-4" x="135.41" y="135.61" width="22.36" height="22.36"/><rect class="cls-2" x="135.41" y="135.61" width="22.36" height="22.36"/><rect class="cls-4" x="157.93" y="135.61" width="22.36" height="22.36"/><rect class="cls-2" x="157.93" y="135.61" width="22.36" height="22.36"/><rect class="cls-4" x="180.46" y="135.61" width="22.36" height="22.36"/><rect class="cls-2" x="180.46" y="135.61" width="22.36" height="22.36"/><rect class="cls-4" x="202.99" y="135.61" width="22.36" height="22.36"/><rect class="cls-2" x="202.99" y="135.61" width="22.36" height="22.36"/><rect class="cls-4" x="0.25" y="158.14" width="22.36" height="22.36"/><rect class="cls-2" x="0.25" y="158.14" width="22.36" height="22.36"/><rect class="cls-4" x="22.78" y="158.14" width="22.36" height="22.36"/><rect class="cls-2" x="22.78" y="158.14" width="22.36" height="22.36"/><rect class="cls-4" x="45.3" y="158.14" width="22.36" height="22.36"/><rect class="cls-2" x="45.3" y="158.14" width="22.36" height="22.36"/><rect class="cls-4" x="67.83" y="158.14" width="22.36" height="22.36"/><rect class="cls-2" x="67.83" y="158.14" width="22.36" height="22.36"/><rect class="cls-4" x="90.36" y="158.14" width="22.36" height="22.36"/><rect class="cls-2" x="90.36" y="158.14" width="22.36" height="22.36"/><rect class="cls-4" x="112.88" y="158.14" width="22.36" height="22.36"/><rect class="cls-2" x="112.88" y="158.14" width="22.36" height="22.36"/><rect class="cls-4" x="135.41" y="158.14" width="22.36" height="22.36"/><rect class="cls-2" x="135.41" y="158.14" width="22.36" height="22.36"/><rect class="cls-4" x="157.93" y="158.14" width="22.36" height="22.36"/><rect class="cls-2" x="157.93" y="158.14" width="22.36" height="22.36"/><rect class="cls-4" x="180.46" y="158.14" width="22.36" height="22.36"/><rect class="cls-2" x="180.46" y="158.14" width="22.36" height="22.36"/><rect class="cls-4" x="202.99" y="158.14" width="22.36" height="22.36"/><rect class="cls-2" x="202.99" y="158.14" width="22.36" height="22.36"/><rect class="cls-4" x="0.25" y="180.67" width="22.36" height="22.36"/><rect class="cls-2" x="0.25" y="180.67" width="22.36" height="22.36"/><rect class="cls-4" x="22.78" y="180.67" width="22.36" height="22.36"/><rect class="cls-2" x="22.78" y="180.67" width="22.36" height="22.36"/><rect class="cls-4" x="45.3" y="180.67" width="22.36" height="22.36"/><rect class="cls-2" x="45.3" y="180.67" width="22.36" height="22.36"/><rect class="cls-4" x="67.83" y="180.67" width="22.36" height="22.36"/><rect class="cls-2" x="67.83" y="180.67" width="22.36" height="22.36"/><rect class="cls-4" x="90.36" y="180.67" width="22.36" height="22.36"/><rect class="cls-2" x="90.36" y="180.67" width="22.36" height="22.36"/><rect class="cls-4" x="112.88" y="180.67" width="22.36" height="22.36"/><rect class="cls-2" x="112.88" y="180.67" width="22.36" height="22.36"/><rect class="cls-4" x="135.41" y="180.67" width="22.36" height="22.36"/><rect class="cls-2" x="135.41" y="180.67" width="22.36" height="22.36"/><rect class="cls-4" x="157.93" y="180.67" width="22.36" height="22.36"/><rect class="cls-2" x="157.93" y="180.67" width="22.36" height="22.36"/><rect class="cls-4" x="180.46" y="180.67" width="22.36" height="22.36"/><rect class="cls-2" x="180.46" y="180.67" width="22.36" height="22.36"/><rect class="cls-4" x="202.99" y="180.67" width="22.36" height="22.36"/><rect class="cls-2" x="202.99" y="180.67" width="22.36" height="22.36"/><rect class="cls-4" x="0.25" y="203.19" width="22.36" height="22.36"/><rect class="cls-2" x="0.25" y="203.19" width="22.36" height="22.36"/><rect class="cls-4" x="22.78" y="203.19" width="22.36" height="22.36"/><rect class="cls-2" x="22.78" y="203.19" width="22.36" height="22.36"/><rect class="cls-4" x="45.3" y="203.19" width="22.36" height="22.36"/><rect class="cls-2" x="45.3" y="203.19" width="22.36" height="22.36"/><rect class="cls-4" x="67.83" y="203.19" width="22.36" height="22.36"/><rect class="cls-2" x="67.83" y="203.19" width="22.36" height="22.36"/><rect class="cls-4" x="90.36" y="203.19" width="22.36" height="22.36"/><rect class="cls-2" x="90.36" y="203.19" width="22.36" height="22.36"/><rect class="cls-4" x="112.88" y="203.19" width="22.36" height="22.36"/><rect class="cls-2" x="112.88" y="203.19" width="22.36" height="22.36"/><rect class="cls-4" x="135.41" y="203.19" width="22.36" height="22.36"/><rect class="cls-2" x="135.41" y="203.19" width="22.36" height="22.36"/><rect class="cls-4" x="157.93" y="203.19" width="22.36" height="22.36"/><rect class="cls-2" x="157.93" y="203.19" width="22.36" height="22.36"/><rect class="cls-4" x="180.46" y="203.19" width="22.36" height="22.36"/><rect class="cls-2" x="180.46" y="203.19" width="22.36" height="22.36"/><rect class="cls-4" x="202.99" y="203.19" width="22.36" height="22.36"/><rect class="cls-2" x="202.99" y="203.19" width="22.36" height="22.36"/><path class="cls-4" d="M262.85,174.46a.39.39,0,0,1,.4.4v1.84a.4.4,0,0,1-.4.4h-8.24a.38.38,0,0,1-.38-.4v-.16c0-.2,0-.24.26-.58,1.32-1.76,4.06-5.49,5.2-7.23a3.08,3.08,0,0,0,.52-1.54,1.6,1.6,0,0,0-1.8-1.5,2.94,2.94,0,0,0-2,1,.41.41,0,0,1-.58,0l-1.26-1.28a.4.4,0,0,1,0-.54,5.53,5.53,0,0,1,4.12-2c2.94,0,4.68,1.88,4.68,4.16a5.05,5.05,0,0,1-.8,2.66c-.64,1.16-2.32,3.34-3.28,4.71v0Z" transform="translate(-5.09 -5.03)"/><path class="cls-4" d="M265.51,165.71a.4.4,0,0,1-.4-.38v-1.86a.4.4,0,0,1,.4-.38h8.74a.31.31,0,0,1,.34.3v.08a.6.6,0,0,1-.08.32l-6.08,12.71a.84.84,0,0,1-.84.6h-2a.39.39,0,0,1-.42-.4,1,1,0,0,1,.12-.48l5-10.47v0Z" transform="translate(-5.09 -5.03)"/><path class="cls-4" d="M275.65,167.43a.38.38,0,0,1-.36-.4v-1.3a.38.38,0,0,1,.12-.3l2.68-2.1a1.16,1.16,0,0,1,.72-.24h1.5a.39.39,0,0,1,.38.38V176.7a.4.4,0,0,1-.38.4H278a.39.39,0,0,1-.4-.4v-9.27Z" transform="translate(-5.09 -5.03)"/><path class="cls-4" d="M285.07,173.59c1.12,0,2.1.81,2.1,2.61a6.54,6.54,0,0,1-1.66,4.08.35.35,0,0,1-.5,0l-.66-.58c-.14-.16-.1-.34.06-.52a3.73,3.73,0,0,0,1-2.12.62.62,0,0,0,0-.18,1.31,1.31,0,0,1-.76.22,1.54,1.54,0,0,1-1.5-1.74A1.79,1.79,0,0,1,285.07,173.59Z" transform="translate(-5.09 -5.03)"/><path class="cls-4" d="M297.25,174.46a.39.39,0,0,1,.4.4v1.84a.4.4,0,0,1-.4.4H289a.38.38,0,0,1-.38-.4v-.16c0-.2,0-.24.26-.58,1.32-1.76,4.06-5.49,5.2-7.23a3.08,3.08,0,0,0,.52-1.54,1.6,1.6,0,0,0-1.8-1.5,2.94,2.94,0,0,0-2,1,.41.41,0,0,1-.58,0L289,165.45a.4.4,0,0,1,0-.54,5.53,5.53,0,0,1,4.12-2c2.94,0,4.68,1.88,4.68,4.16a5.05,5.05,0,0,1-.8,2.66c-.64,1.16-2.32,3.34-3.28,4.71v0Z" transform="translate(-5.09 -5.03)"/><path class="cls-4" d="M299.79,174.9l1.26-1.32a.41.41,0,0,1,.54,0,3.55,3.55,0,0,0,2.46,1,1.92,1.92,0,0,0,2-2,1.89,1.89,0,0,0-2.14-2h-3.16a.69.69,0,0,1-.64-.74v-6.38a.38.38,0,0,1,.38-.38h6.64a.4.4,0,0,1,.4.38v1.82a.4.4,0,0,1-.4.38h-4.24v2.22h1.46a4.36,4.36,0,0,1,4.7,4.57,4.91,4.91,0,0,1-5.1,4.84,5.35,5.35,0,0,1-4.06-1.7C299.57,175.28,299.55,175.14,299.79,174.9Z" transform="translate(-5.09 -5.03)"/><path class="cls-4" d="M310.73,174.9l1.26-1.32a.41.41,0,0,1,.54,0,3.55,3.55,0,0,0,2.46,1,1.92,1.92,0,0,0,2-2,1.89,1.89,0,0,0-2.14-2h-3.16a.69.69,0,0,1-.64-.74v-6.38a.38.38,0,0,1,.38-.38H318a.4.4,0,0,1,.4.38v1.82a.4.4,0,0,1-.4.38h-4.24v2.22h1.46a4.36,4.36,0,0,1,4.7,4.57,4.91,4.91,0,0,1-5.1,4.84,5.35,5.35,0,0,1-4.06-1.7C310.51,175.28,310.49,175.14,310.73,174.9Z" transform="translate(-5.09 -5.03)"/><path class="cls-5" d="M250.37,192.36l3.95-8.75a.23.23,0,0,1,.22-.14h.13a.23.23,0,0,1,.22.14l3.93,8.75a.23.23,0,0,1-.22.34h-.52a.23.23,0,0,1-.22-.15l-1-2.14h-4.61l-.95,2.14a.24.24,0,0,1-.22.15h-.52A.23.23,0,0,1,250.37,192.36Zm6.17-2.76c-.63-1.41-1.26-2.85-1.9-4.26h-.1l-1.9,4.26Z" transform="translate(-5.09 -5.03)"/><path class="cls-5" d="M262.56,186.56a2.8,2.8,0,0,1,2.19,1,.29.29,0,0,1-.06.43l-.2.19c-.2.17-.32,0-.43-.09a1.87,1.87,0,0,0-1.51-.65,2.28,2.28,0,0,0,0,4.54,2,2,0,0,0,1.64-.86c.17-.19.34-.14.5,0l.08.07a.31.31,0,0,1,.08.42,2.76,2.76,0,0,1-2.26,1.21,3,3,0,0,1-3-3.13A3,3,0,0,1,262.56,186.56Z" transform="translate(-5.09 -5.03)"/><path class="cls-5" d="M266.15,187.52a.28.28,0,0,1-.3-.28V187a.28.28,0,0,1,.3-.29h.79V185a.3.3,0,0,1,.29-.29l.4,0a.27.27,0,0,1,.27.29v1.69h1.77a.29.29,0,0,1,.3.29v.26a.29.29,0,0,1-.3.28H267.9v3.55a.8.8,0,0,0,.81.9,1.85,1.85,0,0,0,.92-.26c.24-.14.33,0,.38.12l.1.25c.08.2.06.3-.1.4a3.17,3.17,0,0,1-1.42.36,1.65,1.65,0,0,1-1.65-1.77v-3.55Z" transform="translate(-5.09 -5.03)"/><path class="cls-5" d="M271.18,184.44a.71.71,0,0,1,.7-.73.72.72,0,1,1,0,1.43A.7.7,0,0,1,271.18,184.44Zm.25,2.54a.3.3,0,0,1,.28-.29h.39a.3.3,0,0,1,.29.29v5.43a.3.3,0,0,1-.29.29h-.39a.29.29,0,0,1-.28-.29Z" transform="translate(-5.09 -5.03)"/><path class="cls-5" d="M273.7,187a.22.22,0,0,1,.22-.34h.46a.26.26,0,0,1,.27.17l1.86,4.42h0l2-4.42a.25.25,0,0,1,.24-.17h.41c.24,0,.31.16.24.34l-2.59,5.65a.24.24,0,0,1-.25.16h-.08a.24.24,0,0,1-.24-.16Z" transform="translate(-5.09 -5.03)"/><path class="cls-5" d="M283.13,186.56a3.14,3.14,0,1,1-3,3.12A3.09,3.09,0,0,1,283.13,186.56Zm0,5.41a2.28,2.28,0,1,0-2.07-2.29A2.16,2.16,0,0,0,283.13,192Z" transform="translate(-5.09 -5.03)"/><path class="cls-5" d="M287.35,192.11a.22.22,0,0,1,0-.26l.18-.34c.08-.14.19-.19.36-.07a2.44,2.44,0,0,0,1.49.53c.61,0,1-.29,1-.76s-.47-.8-1.34-1.23-1.7-.82-1.7-1.85a1.65,1.65,0,0,1,1.85-1.57,3.16,3.16,0,0,1,1.72.47.28.28,0,0,1,.07.4l-.13.25a.29.29,0,0,1-.42.1,2.44,2.44,0,0,0-1.24-.35c-.66,0-.88.38-.88.66,0,.54.42.73,1.14,1.07,1,.48,1.94.87,1.94,2a1.84,1.84,0,0,1-2,1.72A2.93,2.93,0,0,1,287.35,192.11Z" transform="translate(-5.09 -5.03)"/><path class="cls-5" d="M296.3,183.84a.24.24,0,0,1,.24-.24h5.12a.24.24,0,0,1,.25.24v.38a.25.25,0,0,1-.25.25H297.3V188H301a.25.25,0,0,1,.24.25v.37a.25.25,0,0,1-.24.25H297.3v3.55a.26.26,0,0,1-.25.25h-.51a.25.25,0,0,1-.24-.25Z" transform="translate(-5.09 -5.03)"/><path class="cls-5" d="M303.12,184.44a.71.71,0,1,1,.7.7A.71.71,0,0,1,303.12,184.44Zm.25,2.54a.3.3,0,0,1,.28-.29H304a.3.3,0,0,1,.29.29v5.43a.3.3,0,0,1-.29.29h-.39a.29.29,0,0,1-.28-.29Z" transform="translate(-5.09 -5.03)"/><path class="cls-5" d="M307.28,193.35c0,1.62-.71,2.36-1.7,2.57a.22.22,0,0,1-.28-.16l-.13-.39a.26.26,0,0,1,.19-.35c.61-.22,1-.54,1-1.58V187a.28.28,0,0,1,.28-.29H307a.29.29,0,0,1,.29.29Zm-1.21-8.91a.71.71,0,1,1,.7.7A.71.71,0,0,1,306.07,184.44Z" transform="translate(-5.09 -5.03)"/><path class="cls-5" d="M311.86,186.56a3.14,3.14,0,1,1-3,3.12A3.09,3.09,0,0,1,311.86,186.56Zm0,5.41a2.28,2.28,0,1,0-2.07-2.29A2.16,2.16,0,0,0,311.86,192Z" transform="translate(-5.09 -5.03)"/><path class="cls-5" d="M316.08,192.11a.22.22,0,0,1,0-.26l.18-.34a.21.21,0,0,1,.35-.07,2.51,2.51,0,0,0,1.5.53c.61,0,1-.29,1-.76s-.47-.8-1.34-1.23-1.7-.82-1.7-1.85a1.65,1.65,0,0,1,1.85-1.57,3.16,3.16,0,0,1,1.72.47.28.28,0,0,1,.07.4l-.13.25a.29.29,0,0,1-.42.1,2.44,2.44,0,0,0-1.24-.35c-.66,0-.88.38-.88.66,0,.54.42.73,1.14,1.07,1,.48,1.94.87,1.94,2a1.84,1.84,0,0,1-2,1.72A2.93,2.93,0,0,1,316.08,192.11Z" transform="translate(-5.09 -5.03)"/><path class="cls-5" d="M279.53,211l1.13-2.68-2.23-5.74c-.07-.19,0-.32.24-.32h.54a.25.25,0,0,1,.26.17l1.71,4.77h0l2-4.77a.26.26,0,0,1,.26-.17H284c.24,0,.33.14.24.34l-3.76,8.58a.33.33,0,0,1-.26.18h-.42A.24.24,0,0,1,279.53,211Z" transform="translate(-5.09 -5.03)"/><path class="cls-5" d="M293,199.07a4.68,4.68,0,1,1-4.67,4.69A4.67,4.67,0,0,1,293,199.07Zm0,8.45a3.77,3.77,0,1,0-3.76-3.76A3.78,3.78,0,0,0,293,207.52Z" transform="translate(-5.09 -5.03)"/><path class="cls-5" d="M299.12,203.12a.28.28,0,0,1-.3-.28v-.26a.28.28,0,0,1,.3-.29h.79v-1.66a.3.3,0,0,1,.29-.29l.4,0a.27.27,0,0,1,.27.29v1.69h1.77a.29.29,0,0,1,.3.29v.26a.29.29,0,0,1-.3.28h-1.77v3.55a.8.8,0,0,0,.81.9,1.88,1.88,0,0,0,.92-.26c.24-.14.33,0,.38.11l.1.26c.08.2.05.3-.1.4a3.17,3.17,0,0,1-1.42.36,1.65,1.65,0,0,1-1.65-1.77v-3.55Z" transform="translate(-5.09 -5.03)"/><path class="cls-5" d="M304.41,202.47a.22.22,0,0,1,.23-.23c.38,0,.59.28.63.67a2.49,2.49,0,0,1,1.84-.75c.46,0,1.2.06,1.06.48l-.17.47a.23.23,0,0,1-.35.14,1.65,1.65,0,0,0-.65-.17,1.9,1.9,0,0,0-1.63.77V208a.3.3,0,0,1-.29.29h-.39a.29.29,0,0,1-.28-.29Z" transform="translate(-5.09 -5.03)"/><path class="cls-5" d="M311.84,202.16a3.14,3.14,0,1,1-3,3.12A3.09,3.09,0,0,1,311.84,202.16Zm0,5.41a2.28,2.28,0,1,0-2.06-2.29A2.16,2.16,0,0,0,311.84,207.57Z" transform="translate(-5.09 -5.03)"/><path class="cls-5" d="M316.07,207.71a.21.21,0,0,1,0-.26l.18-.34c.08-.14.18-.19.35-.07a2.51,2.51,0,0,0,1.5.53c.61,0,1-.29,1-.76s-.47-.8-1.34-1.23-1.71-.82-1.71-1.85a1.66,1.66,0,0,1,1.86-1.57,3.16,3.16,0,0,1,1.72.47.28.28,0,0,1,.06.4l-.13.25a.28.28,0,0,1-.41.1,2.44,2.44,0,0,0-1.24-.35c-.66,0-.88.38-.88.66,0,.54.41.73,1.14,1.07,1,.48,1.94.87,1.94,2a1.84,1.84,0,0,1-2,1.72A2.93,2.93,0,0,1,316.07,207.71Z" transform="translate(-5.09 -5.03)"/><path class="cls-6" d="M263.71,16.33a.4.4,0,0,1-.4-.4V14.15a.94.94,0,0,1,.28-.74l6.92-8.26a.35.35,0,0,1,.3-.12h1.48a.4.4,0,0,1,.4.4v8.34h1.64a.37.37,0,0,1,.4.38v1.78a.4.4,0,0,1-.4.4h-1.64v2.5a.4.4,0,0,1-.38.4h-2.18a.4.4,0,0,1-.38-.4v-2.5Zm6.06-2.48V10h0l-3.2,3.86v0Z" transform="translate(-5.09 -5.03)"/><path class="cls-6" d="M284.37,16.59a.4.4,0,0,1,.4.4v1.84a.4.4,0,0,1-.4.4h-8.24a.38.38,0,0,1-.38-.4v-.16c0-.2,0-.24.26-.58,1.32-1.76,4.06-5.48,5.2-7.22a3.08,3.08,0,0,0,.52-1.54,1.6,1.6,0,0,0-1.8-1.5,2.94,2.94,0,0,0-2,1,.41.41,0,0,1-.58,0l-1.26-1.28a.4.4,0,0,1,0-.54,5.53,5.53,0,0,1,4.12-2c2.94,0,4.68,1.88,4.68,4.16a5.05,5.05,0,0,1-.8,2.66c-.64,1.16-2.32,3.34-3.28,4.7v0Z" transform="translate(-5.09 -5.03)"/><path class="cls-6" d="M288.65,15.73c1.12,0,2.1.8,2.1,2.6a6.54,6.54,0,0,1-1.66,4.08.35.35,0,0,1-.5,0l-.66-.58c-.14-.16-.1-.34.06-.52a3.73,3.73,0,0,0,1-2.12.62.62,0,0,0,0-.18,1.31,1.31,0,0,1-.76.22,1.54,1.54,0,0,1-1.5-1.74A1.79,1.79,0,0,1,288.65,15.73Z" transform="translate(-5.09 -5.03)"/><path class="cls-6" d="M294.81,12.05V12a3.55,3.55,0,0,1-2.12-3.16c0-2.32,2.06-3.78,4.56-3.78s4.68,1.46,4.68,3.78A3.64,3.64,0,0,1,299.81,12v.1a3.89,3.89,0,0,1,2.52,3.46c0,2.44-2,3.92-5.08,3.92s-5-1.48-5-3.92A4,4,0,0,1,294.81,12.05Zm2.52,4.86A1.53,1.53,0,0,0,299,15.35a2.13,2.13,0,0,0-1.7-1.88,2.15,2.15,0,0,0-1.66,1.88A1.53,1.53,0,0,0,297.33,16.91Zm1.44-8a1.47,1.47,0,0,0-2.92,0c0,.74.48,1.32,1.44,1.68A1.88,1.88,0,0,0,298.77,8.93Z" transform="translate(-5.09 -5.03)"/><path class="cls-6" d="M303.93,9.57a.38.38,0,0,1-.36-.4V7.87a.38.38,0,0,1,.12-.3l2.68-2.1a1.16,1.16,0,0,1,.72-.24h1.5a.39.39,0,0,1,.38.38V18.83a.4.4,0,0,1-.38.4h-2.28a.39.39,0,0,1-.4-.4V9.57Z" transform="translate(-5.09 -5.03)"/><path class="cls-6" d="M311.73,7.85a.4.4,0,0,1-.4-.38V5.61a.4.4,0,0,1,.4-.38h8.74a.31.31,0,0,1,.34.3v.08a.6.6,0,0,1-.08.32l-6.08,12.7a.84.84,0,0,1-.84.6h-2a.39.39,0,0,1-.42-.4,1,1,0,0,1,.12-.48l5-10.46v0Z" transform="translate(-5.09 -5.03)"/><path class="cls-5" d="M275.24,26a.25.25,0,0,1,.25-.25h5.12a.25.25,0,0,1,.25.25v.37a.25.25,0,0,1-.25.25h-4.37v3.17H280a.26.26,0,0,1,.25.25v.38a.25.25,0,0,1-.25.24h-3.73V34h4.37a.25.25,0,0,1,.25.25v.37a.25.25,0,0,1-.25.25h-5.12a.25.25,0,0,1-.25-.25Z" transform="translate(-5.09 -5.03)"/><path class="cls-5" d="M282.81,29.66h-1a.29.29,0,0,1-.28-.29v-.26a.28.28,0,0,1,.28-.29h1v-.94c0-1.5.7-2.28,2-2.28a2.38,2.38,0,0,1,1.65.62.28.28,0,0,1,.05.34l-.25.31c-.1.15-.2.13-.37,0a1.68,1.68,0,0,0-1.11-.42c-.69,0-1,.51-1,1.41v.94h1.78a.28.28,0,0,1,.29.29v.26a.29.29,0,0,1-.29.29h-1.78v4.88a.29.29,0,0,1-.29.29h-.39a.29.29,0,0,1-.28-.29Z" transform="translate(-5.09 -5.03)"/><path class="cls-5" d="M289.48,28.69a2.64,2.64,0,0,1,2.71,2.73c0,.11,0,.26,0,.37a.3.3,0,0,1-.28.26h-4.36a2.11,2.11,0,0,0,2,2.05,2.77,2.77,0,0,0,1.62-.49c.21-.15.3-.2.46,0l.15.22c.12.18.17.25-.05.41a3.63,3.63,0,0,1-2.19.69,2.92,2.92,0,0,1-2.92-3.14A2.93,2.93,0,0,1,289.48,28.69Zm1.75,2.59a1.77,1.77,0,0,0-1.75-1.72,2,2,0,0,0-1.94,1.72Z" transform="translate(-5.09 -5.03)"/><path class="cls-5" d="M296.44,28.69a2.8,2.8,0,0,1,2.19,1,.3.3,0,0,1-.05.43l-.21.2c-.2.16-.31,0-.43-.1a1.9,1.9,0,0,0-1.51-.65,2.17,2.17,0,0,0-2.05,2.27,2.14,2.14,0,0,0,2,2.27,2,2,0,0,0,1.64-.86c.17-.19.34-.14.51,0l.07.08c.13.13.19.26.08.41A2.73,2.73,0,0,1,296.43,35a3,3,0,0,1-3-3.13A3,3,0,0,1,296.44,28.69Z" transform="translate(-5.09 -5.03)"/><path class="cls-5" d="M300,29.66a.29.29,0,0,1-.3-.29v-.26a.28.28,0,0,1,.3-.29h.79V27.16a.32.32,0,0,1,.29-.29l.4,0a.27.27,0,0,1,.28.28v1.69h1.76a.29.29,0,0,1,.3.29v.26a.29.29,0,0,1-.3.29h-1.76v3.55a.79.79,0,0,0,.8.89,1.79,1.79,0,0,0,.93-.26c.23-.14.32,0,.37.12l.11.26c.07.19.05.3-.11.39a3.09,3.09,0,0,1-1.41.36,1.65,1.65,0,0,1-1.66-1.76V29.66Z" transform="translate(-5.09 -5.03)"/><path class="cls-5" d="M305.08,26.58a.71.71,0,1,1,1.41,0,.71.71,0,0,1-1.41,0Zm.24,2.53a.3.3,0,0,1,.29-.29H306a.31.31,0,0,1,.28.29v5.43a.3.3,0,0,1-.28.29h-.39a.29.29,0,0,1-.29-.29Z" transform="translate(-5.09 -5.03)"/><path class="cls-5" d="M307.6,29.16a.22.22,0,0,1,.22-.34h.45a.28.28,0,0,1,.28.17l1.86,4.42h0l2-4.42a.26.26,0,0,1,.23-.17h.42c.23,0,.31.16.23.34l-2.59,5.66a.22.22,0,0,1-.24.15h-.08a.26.26,0,0,1-.25-.15Z" transform="translate(-5.09 -5.03)"/><path class="cls-5" d="M317,28.69a3.14,3.14,0,1,1-3,3.12A3.09,3.09,0,0,1,317,28.69Zm0,5.41A2.28,2.28,0,1,0,315,31.81,2.16,2.16,0,0,0,317,34.1Z" transform="translate(-5.09 -5.03)"/><path class="cls-3" d="M266.39,95.05V95a3.55,3.55,0,0,1-2.12-3.16c0-2.32,2.06-3.78,4.56-3.78s4.68,1.46,4.68,3.78A3.64,3.64,0,0,1,271.39,95v.1a3.89,3.89,0,0,1,2.52,3.46c0,2.44-2,3.92-5.08,3.92s-5-1.48-5-3.92A4,4,0,0,1,266.39,95.05Zm2.52,4.86a1.53,1.53,0,0,0,1.66-1.56,2.13,2.13,0,0,0-1.7-1.88,2.15,2.15,0,0,0-1.66,1.88A1.53,1.53,0,0,0,268.91,99.91Zm1.44-8a1.47,1.47,0,0,0-2.92,0c0,.74.48,1.32,1.44,1.68A1.88,1.88,0,0,0,270.35,91.93Z" transform="translate(-5.09 -5.03)"/><path class="cls-3" d="M275.51,95.23c0-4.52,1.9-7.2,5.26-7.2s5.28,2.68,5.28,7.2-1.92,7.2-5.28,7.2S275.51,99.73,275.51,95.23Zm7.4,0c0-2.7-.88-4.28-2.14-4.28s-2.12,1.58-2.12,4.28.88,4.3,2.12,4.3S282.91,98,282.91,95.23Z" transform="translate(-5.09 -5.03)"/><path class="cls-3" d="M289.25,98.73c1.12,0,2.1.8,2.1,2.6a6.54,6.54,0,0,1-1.66,4.08.35.35,0,0,1-.5,0l-.66-.58c-.14-.16-.1-.34.06-.52a3.73,3.73,0,0,0,1-2.12.62.62,0,0,0,0-.18,1.31,1.31,0,0,1-.76.22,1.54,1.54,0,0,1-1.5-1.74A1.79,1.79,0,0,1,289.25,98.73Z" transform="translate(-5.09 -5.03)"/><path class="cls-3" d="M293.27,100.13l1.2-1.34a.38.38,0,0,1,.52,0,3.39,3.39,0,0,0,2.26.94A1.62,1.62,0,0,0,299,98.05c0-1-.92-1.68-2.44-1.68h-1.16a.39.39,0,0,1-.38-.38V94.27a.38.38,0,0,1,.38-.38h1.16c1.44,0,2.2-.68,2.2-1.56a1.5,1.5,0,0,0-1.64-1.56,2.39,2.39,0,0,0-1.8.82.39.39,0,0,1-.56,0l-1.26-1.24a.38.38,0,0,1,0-.54A5.36,5.36,0,0,1,297.47,88c2.4,0,4.46,1.46,4.46,3.78A3.66,3.66,0,0,1,299.81,95v.08a3.48,3.48,0,0,1,2.48,3.32c0,2.24-2,4.06-4.8,4.06a5.13,5.13,0,0,1-4.24-1.78A.42.42,0,0,1,293.27,100.13Z" transform="translate(-5.09 -5.03)"/><path class="cls-3" d="M303.89,92.57a.38.38,0,0,1-.36-.4v-1.3a.38.38,0,0,1,.12-.3l2.68-2.1a1.16,1.16,0,0,1,.72-.24h1.5a.39.39,0,0,1,.38.38v13.22a.4.4,0,0,1-.38.4h-2.28a.39.39,0,0,1-.4-.4V92.57Z" transform="translate(-5.09 -5.03)"/><path class="cls-3" d="M311.69,90.85a.4.4,0,0,1-.4-.38V88.61a.4.4,0,0,1,.4-.38h8.74a.31.31,0,0,1,.34.3v.08a.6.6,0,0,1-.08.32l-6.08,12.7a.84.84,0,0,1-.84.6h-2a.39.39,0,0,1-.42-.4,1,1,0,0,1,.12-.48l5-10.46v0Z" transform="translate(-5.09 -5.03)"/><path class="cls-5" d="M260.42,109a.26.26,0,0,1,.25-.25h.52a.26.26,0,0,1,.25.25v8.6a.26.26,0,0,1-.25.25h-.52a.26.26,0,0,1-.25-.25Z" transform="translate(-5.09 -5.03)"/><path class="cls-5" d="M263.65,112a.22.22,0,0,1,.23-.24c.38,0,.59.29.63.68a3.05,3.05,0,0,1,2-.76c1.74,0,2.17,1.14,2.17,2.68v3.17a.3.3,0,0,1-.29.29H268a.29.29,0,0,1-.29-.29v-3.3c0-1.14-.39-1.68-1.27-1.68a2.61,2.61,0,0,0-1.85.84v4.14a.3.3,0,0,1-.29.29h-.39a.29.29,0,0,1-.28-.29Z" transform="translate(-5.09 -5.03)"/><path class="cls-5" d="M269.76,112.16a.22.22,0,0,1,.22-.34h.45a.28.28,0,0,1,.28.17l1.85,4.42h0l2-4.42a.26.26,0,0,1,.23-.17h.42c.23,0,.31.16.23.34l-2.59,5.66a.22.22,0,0,1-.24.15h-.08a.26.26,0,0,1-.25-.15Z" transform="translate(-5.09 -5.03)"/><path class="cls-5" d="M279.12,111.69a2.64,2.64,0,0,1,2.71,2.73c0,.11,0,.26,0,.37a.3.3,0,0,1-.28.26h-4.36a2.11,2.11,0,0,0,2,2,2.77,2.77,0,0,0,1.62-.49c.21-.15.3-.2.46,0l.16.22c.11.18.16.25-.06.41a3.63,3.63,0,0,1-2.19.69,3.15,3.15,0,0,1,0-6.28Zm1.75,2.59a1.76,1.76,0,0,0-1.75-1.72,2,2,0,0,0-1.94,1.72Z" transform="translate(-5.09 -5.03)"/><path class="cls-5" d="M283.41,112a.22.22,0,0,1,.23-.24c.38,0,.59.29.62.68a3.11,3.11,0,0,1,2-.76c1.74,0,2.17,1.14,2.17,2.68v3.17a.3.3,0,0,1-.29.29h-.39a.29.29,0,0,1-.28-.29v-3.3c0-1.14-.39-1.68-1.28-1.68a2.6,2.6,0,0,0-1.84.84v4.14a.3.3,0,0,1-.29.29h-.39a.29.29,0,0,1-.28-.29Z" transform="translate(-5.09 -5.03)"/><path class="cls-5" d="M289.85,112.66a.28.28,0,0,1-.29-.29v-.26a.27.27,0,0,1,.29-.29h.8v-1.66a.31.31,0,0,1,.28-.29l.41,0a.27.27,0,0,1,.27.28v1.69h1.77a.29.29,0,0,1,.3.29v.26a.29.29,0,0,1-.3.29h-1.77v3.55a.79.79,0,0,0,.81.89,1.78,1.78,0,0,0,.92-.26c.23-.14.32,0,.38.12l.1.26c.08.19.05.3-.1.39a3.17,3.17,0,0,1-1.42.36,1.65,1.65,0,0,1-1.65-1.76v-3.55Z" transform="translate(-5.09 -5.03)"/><path class="cls-5" d="M297.19,114a5,5,0,0,1,1.28.2c0-1.11-.52-1.66-1.37-1.66a3.69,3.69,0,0,0-1.4.36c-.15.06-.23,0-.28-.16l-.13-.35c-.05-.18,0-.26.18-.33a3.89,3.89,0,0,1,1.68-.39c1.53,0,2.25.91,2.25,2.53v3.43a.22.22,0,0,1-.24.23c-.39,0-.6-.3-.63-.7a2.65,2.65,0,0,1-1.89.79,1.82,1.82,0,0,1-1.86-2C294.78,114.87,295.64,114,297.19,114Zm-.38,3.08a2.08,2.08,0,0,0,1.65-.8v-1.23a3.15,3.15,0,0,0-1.27-.23c-.84,0-1.46.4-1.46,1.17A1,1,0,0,0,296.81,117.1Z" transform="translate(-5.09 -5.03)"/><path class="cls-5" d="M301.33,112a.22.22,0,0,1,.24-.24c.37,0,.58.29.62.68a2.48,2.48,0,0,1,1.85-.76c.45,0,1.19.07,1,.48l-.17.47a.23.23,0,0,1-.35.15,1.42,1.42,0,0,0-.65-.17,1.88,1.88,0,0,0-1.62.76v4.16a.3.3,0,0,1-.29.29h-.39a.29.29,0,0,1-.29-.29Z" transform="translate(-5.09 -5.03)"/><path class="cls-5" d="M306.1,109.58a.71.71,0,1,1,.71.7A.71.71,0,0,1,306.1,109.58Zm.25,2.53a.3.3,0,0,1,.29-.29H307a.31.31,0,0,1,.28.29v5.43a.3.3,0,0,1-.28.29h-.39a.29.29,0,0,1-.29-.29Z" transform="translate(-5.09 -5.03)"/><path class="cls-5" d="M311.89,111.69a3.14,3.14,0,1,1-3,3.12A3.09,3.09,0,0,1,311.89,111.69Zm0,5.41a2.28,2.28,0,1,0-2.07-2.29A2.16,2.16,0,0,0,311.89,117.1Z" transform="translate(-5.09 -5.03)"/><path class="cls-5" d="M316.11,117.25a.22.22,0,0,1,0-.26l.19-.34c.07-.15.18-.2.35-.08a2.5,2.5,0,0,0,1.49.53c.61,0,1-.28,1-.75s-.47-.81-1.34-1.24-1.7-.82-1.7-1.84a1.66,1.66,0,0,1,1.86-1.58,3.09,3.09,0,0,1,1.71.47.29.29,0,0,1,.07.4l-.13.25a.3.3,0,0,1-.42.11,2.3,2.3,0,0,0-1.23-.36c-.67,0-.89.38-.89.67,0,.53.42.73,1.15,1.06,1,.49,1.93.88,1.93,2a1.84,1.84,0,0,1-2,1.71A3,3,0,0,1,316.11,117.25Z" transform="translate(-5.09 -5.03)"/></svg>