<svg id="Capa_1" data-name="Capa 1" xmlns="http://www.w3.org/2000/svg" viewBox="0 0 312.46 225.76"><defs><style>.cls-1{fill:#0078bf;}.cls-2{fill:#4a5b6d;}.cls-3{fill:#80cbde;}.cls-4,.cls-5{fill:none;stroke:#fff;stroke-width:0.5px;}.cls-5{stroke-miterlimit:10;}.cls-6{fill:#6eb8c9;}</style></defs><path class="cls-1" d="M264,179.46a.39.39,0,0,1,.4.4v1.84a.4.4,0,0,1-.4.4h-8.24a.38.38,0,0,1-.38-.4v-.16c0-.2,0-.24.26-.58,1.32-1.76,4.06-5.49,5.2-7.23a3.08,3.08,0,0,0,.52-1.54,1.6,1.6,0,0,0-1.8-1.5,2.94,2.94,0,0,0-2,1,.41.41,0,0,1-.58,0l-1.26-1.28a.4.4,0,0,1,0-.54,5.53,5.53,0,0,1,4.12-2c2.94,0,4.68,1.88,4.68,4.16a5.05,5.05,0,0,1-.8,2.66c-.64,1.16-2.32,3.34-3.28,4.71v0Z" transform="translate(-5.54 -6.23)"/><path class="cls-1" d="M267.46,180.56c-.08-.27,0-.48.4-.6,1-.33,3.64-1.22,4.14-3.29a6.15,6.15,0,0,1-2,.42,4.15,4.15,0,0,1-4.1-4.48,4.74,4.74,0,0,1,4.72-4.72c3.18,0,5,2.4,5,5.6a9.16,9.16,0,0,1-6.92,9,.47.47,0,0,1-.64-.32Zm5.22-7.85a2,2,0,1,0-4,0,2,2,0,1,0,4,0Z" transform="translate(-5.54 -6.23)"/><path class="cls-1" d="M277.42,170.71a.4.4,0,0,1-.4-.38v-1.86a.4.4,0,0,1,.4-.38h8.74a.31.31,0,0,1,.34.3v.08a.6.6,0,0,1-.08.32l-6.08,12.71a.84.84,0,0,1-.84.6h-2a.39.39,0,0,1-.42-.4,1,1,0,0,1,.12-.48l5-10.47v0Z" transform="translate(-5.54 -6.23)"/><path class="cls-1" d="M286.94,178.59c1.12,0,2.1.81,2.1,2.61a6.54,6.54,0,0,1-1.66,4.08.35.35,0,0,1-.5,0l-.66-.58c-.14-.16-.1-.34.06-.52a3.73,3.73,0,0,0,1-2.12.62.62,0,0,0,0-.18,1.31,1.31,0,0,1-.76.22,1.54,1.54,0,0,1-1.5-1.74A1.79,1.79,0,0,1,286.94,178.59Z" transform="translate(-5.54 -6.23)"/><path class="cls-1" d="M291.12,170.71a.4.4,0,0,1-.4-.38v-1.86a.4.4,0,0,1,.4-.38h8.74a.31.31,0,0,1,.34.3v.08a.6.6,0,0,1-.08.32L294,181.5a.84.84,0,0,1-.84.6h-2a.39.39,0,0,1-.42-.4,1,1,0,0,1,.12-.48l5-10.47v0Z" transform="translate(-5.54 -6.23)"/><path class="cls-1" d="M301.1,179.9l1.26-1.32a.41.41,0,0,1,.54,0,3.55,3.55,0,0,0,2.46,1,1.92,1.92,0,0,0,2-2,1.89,1.89,0,0,0-2.14-2H302a.69.69,0,0,1-.64-.74v-6.38a.38.38,0,0,1,.38-.38h6.64a.4.4,0,0,1,.4.38v1.82a.4.4,0,0,1-.4.38h-4.24v2.22h1.46a4.36,4.36,0,0,1,4.7,4.57,4.91,4.91,0,0,1-5.1,4.84,5.35,5.35,0,0,1-4.06-1.7C300.88,180.28,300.86,180.14,301.1,179.9Z" transform="translate(-5.54 -6.23)"/><path class="cls-1" d="M311.62,172.43a.38.38,0,0,1-.36-.4v-1.3a.38.38,0,0,1,.12-.3l2.68-2.1a1.16,1.16,0,0,1,.72-.24h1.5a.39.39,0,0,1,.38.38V181.7a.4.4,0,0,1-.38.4H314a.39.39,0,0,1-.4-.4v-9.27Z" transform="translate(-5.54 -6.23)"/><path class="cls-2" d="M284.1,188.47a4.57,4.57,0,0,1,3.14,1.2.26.26,0,0,1,0,.37l-.36.35c-.1.13-.2.12-.33,0a3.81,3.81,0,0,0-2.49-1,3.74,3.74,0,0,0,0,7.48,3.49,3.49,0,0,0,2.49-1,.21.21,0,0,1,.33,0l.3.29c.11.08.08.26,0,.36a4.62,4.62,0,0,1-3.09,1.26,4.68,4.68,0,1,1,0-9.36Z" transform="translate(-5.54 -6.23)"/><path class="cls-2" d="M290.9,193.89a5.27,5.27,0,0,1,1.28.19c0-1.1-.52-1.65-1.38-1.65a3.71,3.71,0,0,0-1.39.35c-.15.07-.23,0-.28-.15l-.13-.35c-.05-.19,0-.27.18-.33a3.85,3.85,0,0,1,1.68-.39c1.53,0,2.25.91,2.25,2.52v3.43a.23.23,0,0,1-.24.24c-.39,0-.6-.3-.64-.7a2.61,2.61,0,0,1-1.88.79,1.83,1.83,0,0,1-1.86-2C288.49,194.73,289.35,193.89,290.9,193.89Zm-.38,3.08a2.09,2.09,0,0,0,1.65-.81v-1.22a3.19,3.19,0,0,0-1.27-.23c-.84,0-1.46.4-1.46,1.17A1,1,0,0,0,290.52,197Z" transform="translate(-5.54 -6.23)"/><path class="cls-2" d="M296,200.5a.3.3,0,0,1-.28.29h-.38a.29.29,0,0,1-.29-.29v-8.63a.22.22,0,0,1,.24-.23.6.6,0,0,1,.59.54,3,3,0,0,1,1.82-.62,3.16,3.16,0,0,1,0,6.28,3,3,0,0,1-1.66-.49Zm0-4.05a2.84,2.84,0,0,0,1.52.52,2.1,2.1,0,0,0,2-2.29,2.06,2.06,0,0,0-1.93-2.25,2.26,2.26,0,0,0-1.59.73Z" transform="translate(-5.54 -6.23)"/><path class="cls-2" d="M301.85,189.44a.71.71,0,1,1,1.42,0,.71.71,0,0,1-1.42,0Zm.25,2.54a.3.3,0,0,1,.29-.29h.39a.3.3,0,0,1,.28.29v5.43a.3.3,0,0,1-.28.29h-.39a.29.29,0,0,1-.29-.29Z" transform="translate(-5.54 -6.23)"/><path class="cls-2" d="M304.65,192.52a.28.28,0,0,1-.3-.28V192a.28.28,0,0,1,.3-.29h.79V190a.3.3,0,0,1,.29-.29l.4,0a.27.27,0,0,1,.27.29v1.69h1.77a.29.29,0,0,1,.3.29v.26a.29.29,0,0,1-.3.28H306.4v3.55a.8.8,0,0,0,.81.9,1.85,1.85,0,0,0,.92-.26c.24-.14.33,0,.38.12l.1.25c.08.2.06.3-.1.4a3.17,3.17,0,0,1-1.42.36,1.65,1.65,0,0,1-1.65-1.77v-3.55Z" transform="translate(-5.54 -6.23)"/><path class="cls-2" d="M312,193.89a5.29,5.29,0,0,1,1.29.19c0-1.1-.52-1.65-1.38-1.65a3.66,3.66,0,0,0-1.39.35c-.16.07-.24,0-.29-.15l-.13-.35c-.05-.19,0-.27.18-.33a3.89,3.89,0,0,1,1.68-.39c1.54,0,2.25.91,2.25,2.52v3.43a.22.22,0,0,1-.23.24c-.39,0-.6-.3-.64-.7a2.63,2.63,0,0,1-1.88.79,1.82,1.82,0,0,1-1.86-2C309.58,194.73,310.43,193.89,312,193.89ZM311.6,197a2.11,2.11,0,0,0,1.66-.81v-1.22a3.21,3.21,0,0,0-1.28-.23c-.83,0-1.45.4-1.45,1.17A1,1,0,0,0,311.6,197Z" transform="translate(-5.54 -6.23)"/><path class="cls-2" d="M316.17,188.88a.29.29,0,0,1,.28-.28h.39a.3.3,0,0,1,.29.28v8.53a.3.3,0,0,1-.29.29h-.39a.29.29,0,0,1-.28-.29Z" transform="translate(-5.54 -6.23)"/><path class="cls-2" d="M272.37,204.07a4.61,4.61,0,0,1,3.15,1.2.27.27,0,0,1,0,.37l-.35.35c-.11.13-.21.12-.34,0a3.78,3.78,0,0,0-2.48-1,3.74,3.74,0,0,0,0,7.48,3.46,3.46,0,0,0,2.48-1,.23.23,0,0,1,.34,0l.3.3a.25.25,0,0,1,0,.36,4.58,4.58,0,0,1-3.09,1.26,4.68,4.68,0,1,1,0-9.36Z" transform="translate(-5.54 -6.23)"/><path class="cls-2" d="M279.69,207.16a3.14,3.14,0,1,1-3,3.12A3.1,3.1,0,0,1,279.69,207.16Zm0,5.41a2.28,2.28,0,1,0-2.07-2.29A2.16,2.16,0,0,0,279.69,212.57Z" transform="translate(-5.54 -6.23)"/><path class="cls-2" d="M284.33,207.47a.22.22,0,0,1,.23-.23c.38,0,.59.28.63.67a3.15,3.15,0,0,1,2-.75c1.75,0,2.17,1.13,2.17,2.68V213a.3.3,0,0,1-.28.29h-.39a.29.29,0,0,1-.29-.29v-3.3c0-1.15-.39-1.68-1.27-1.68a2.65,2.65,0,0,0-1.85.83V213a.3.3,0,0,1-.28.29h-.39a.29.29,0,0,1-.29-.29Z" transform="translate(-5.54 -6.23)"/><path class="cls-2" d="M290.78,208.12a.28.28,0,0,1-.3-.28v-.26a.28.28,0,0,1,.3-.29h.79v-1.66a.3.3,0,0,1,.29-.29l.4,0a.27.27,0,0,1,.27.29v1.69h1.77a.29.29,0,0,1,.3.29v.26a.29.29,0,0,1-.3.28h-1.77v3.55a.8.8,0,0,0,.81.9,1.88,1.88,0,0,0,.92-.26c.24-.14.33,0,.38.11l.1.26c.08.2.05.3-.1.4a3.17,3.17,0,0,1-1.42.36,1.65,1.65,0,0,1-1.65-1.77v-3.55Z" transform="translate(-5.54 -6.23)"/><path class="cls-2" d="M298.11,209.49a5.29,5.29,0,0,1,1.29.19c0-1.1-.52-1.65-1.38-1.65a3.66,3.66,0,0,0-1.39.35c-.16.07-.24,0-.29-.15l-.13-.35c0-.19,0-.27.18-.33a3.89,3.89,0,0,1,1.68-.39c1.54,0,2.25.91,2.25,2.52v3.43a.22.22,0,0,1-.23.24c-.39,0-.6-.3-.64-.7a2.63,2.63,0,0,1-1.89.79,1.83,1.83,0,0,1-1.86-2C295.7,210.33,296.56,209.49,298.11,209.49Zm-.38,3.08a2.09,2.09,0,0,0,1.65-.81v-1.22a3.11,3.11,0,0,0-1.27-.23c-.83,0-1.46.4-1.46,1.17A1,1,0,0,0,297.73,212.57Z" transform="translate(-5.54 -6.23)"/><path class="cls-2" d="M302.26,204.48a.28.28,0,0,1,.27-.28h.39a.31.31,0,0,1,.29.28v3.06a3.59,3.59,0,0,1,1.66-.38,2.83,2.83,0,0,1,2.83,3.12,2.93,2.93,0,0,1-2.69,3.16,2.63,2.63,0,0,1-1.9-.77c0,.39-.24.68-.62.68a.22.22,0,0,1-.23-.24Zm.95,7.1a2.2,2.2,0,0,0,1.7,1,2.09,2.09,0,0,0,1.82-2.28,2,2,0,0,0-2-2.26,3.51,3.51,0,0,0-1.52.38Z" transform="translate(-5.54 -6.23)"/><path class="cls-2" d="M309.39,204.48a.3.3,0,0,1,.29-.28h.39a.31.31,0,0,1,.29.28V213a.3.3,0,0,1-.29.29h-.39a.29.29,0,0,1-.29-.29Z" transform="translate(-5.54 -6.23)"/><path class="cls-2" d="M314.93,207.16a2.65,2.65,0,0,1,2.72,2.73,2.19,2.19,0,0,1,0,.36.27.27,0,0,1-.27.26H313a2.12,2.12,0,0,0,2,2.06,2.8,2.8,0,0,0,1.63-.5c.21-.14.3-.19.45,0l.16.22c.12.19.17.25-.05.42a3.69,3.69,0,0,1-2.2.69,3.15,3.15,0,0,1,0-6.28Zm1.76,2.59a1.76,1.76,0,0,0-1.76-1.72,2,2,0,0,0-1.94,1.72Z" transform="translate(-5.54 -6.23)"/><path class="cls-2" d="M277.08,231.63l1.13-2.68L276,223.21c-.07-.19,0-.32.24-.32h.54a.25.25,0,0,1,.26.17l1.71,4.77h0l2-4.77a.26.26,0,0,1,.26-.17h.48c.24,0,.33.14.24.34L278,231.81a.33.33,0,0,1-.26.18h-.42A.24.24,0,0,1,277.08,231.63Z" transform="translate(-5.54 -6.23)"/><path class="cls-2" d="M290.57,219.67a4.68,4.68,0,1,1-4.67,4.69A4.67,4.67,0,0,1,290.57,219.67Zm0,8.45a3.77,3.77,0,1,0-3.76-3.76A3.78,3.78,0,0,0,290.57,228.12Z" transform="translate(-5.54 -6.23)"/><path class="cls-2" d="M296.67,223.72a.28.28,0,0,1-.3-.28v-.26a.28.28,0,0,1,.3-.29h.79v-1.66a.3.3,0,0,1,.29-.29l.4,0a.27.27,0,0,1,.27.29v1.69h1.77a.29.29,0,0,1,.3.29v.26a.29.29,0,0,1-.3.28h-1.77v3.55a.8.8,0,0,0,.81.9,1.88,1.88,0,0,0,.92-.26c.23-.15.33,0,.38.11l.1.26c.08.2.05.3-.1.39a3,3,0,0,1-1.42.37,1.65,1.65,0,0,1-1.65-1.77v-3.55Z" transform="translate(-5.54 -6.23)"/><path class="cls-2" d="M302,223.07a.22.22,0,0,1,.23-.23c.38,0,.59.28.63.67a2.49,2.49,0,0,1,1.84-.75c.46,0,1.2.06,1.06.48l-.17.47a.23.23,0,0,1-.35.14,1.65,1.65,0,0,0-.65-.17,1.9,1.9,0,0,0-1.63.77v4.16a.3.3,0,0,1-.29.29h-.39a.29.29,0,0,1-.28-.29Z" transform="translate(-5.54 -6.23)"/><path class="cls-2" d="M309.39,222.76a3.14,3.14,0,1,1-3,3.12A3.09,3.09,0,0,1,309.39,222.76Zm0,5.41a2.28,2.28,0,1,0-2.06-2.29A2.16,2.16,0,0,0,309.39,228.17Z" transform="translate(-5.54 -6.23)"/><path class="cls-2" d="M313.62,228.31a.21.21,0,0,1,0-.26l.18-.34c.08-.14.18-.19.35-.08a2.44,2.44,0,0,0,1.5.54c.61,0,1-.29,1-.76s-.46-.8-1.33-1.23-1.71-.82-1.71-1.85a1.66,1.66,0,0,1,1.86-1.57,3.16,3.16,0,0,1,1.72.47.28.28,0,0,1,.06.4l-.13.25a.28.28,0,0,1-.41.1,2.44,2.44,0,0,0-1.24-.35c-.66,0-.88.38-.88.66,0,.54.41.73,1.14,1.07,1,.48,1.94.87,1.94,2a1.84,1.84,0,0,1-2,1.72A2.93,2.93,0,0,1,313.62,228.31Z" transform="translate(-5.54 -6.23)"/><rect class="cls-3" x="0.25" y="0.25" width="22.36" height="22.36"/><rect class="cls-4" x="0.25" y="0.25" width="22.36" height="22.36"/><rect class="cls-3" x="22.78" y="0.25" width="22.36" height="22.36"/><rect class="cls-4" x="22.78" y="0.25" width="22.36" height="22.36"/><rect class="cls-3" x="45.3" y="0.25" width="22.36" height="22.36"/><rect class="cls-4" x="45.3" y="0.25" width="22.36" height="22.36"/><rect class="cls-3" x="67.83" y="0.25" width="22.36" height="22.36"/><rect class="cls-4" x="67.83" y="0.25" width="22.36" height="22.36"/><rect class="cls-3" x="90.36" y="0.25" width="22.36" height="22.36"/><rect class="cls-4" x="90.36" y="0.25" width="22.36" height="22.36"/><rect class="cls-3" x="112.88" y="0.25" width="22.36" height="22.36"/><rect class="cls-4" x="112.88" y="0.25" width="22.36" height="22.36"/><rect class="cls-3" x="135.41" y="0.25" width="22.36" height="22.36"/><rect class="cls-4" x="135.41" y="0.25" width="22.36" height="22.36"/><rect class="cls-3" x="157.93" y="0.25" width="22.36" height="22.36"/><rect class="cls-4" x="157.93" y="0.25" width="22.36" height="22.36"/><rect class="cls-3" x="180.46" y="0.25" width="22.36" height="22.36"/><rect class="cls-4" x="180.46" y="0.25" width="22.36" height="22.36"/><rect class="cls-3" x="202.99" y="0.25" width="22.36" height="22.36"/><rect class="cls-4" x="202.99" y="0.25" width="22.36" height="22.36"/><rect class="cls-3" x="0.25" y="22.78" width="22.36" height="22.36"/><rect class="cls-4" x="0.25" y="22.78" width="22.36" height="22.36"/><rect class="cls-3" x="22.78" y="22.78" width="22.36" height="22.36"/><rect class="cls-4" x="22.78" y="22.78" width="22.36" height="22.36"/><rect class="cls-3" x="45.3" y="22.78" width="22.36" height="22.36"/><rect class="cls-4" x="45.3" y="22.78" width="22.36" height="22.36"/><rect class="cls-3" x="67.83" y="22.78" width="22.36" height="22.36"/><rect class="cls-4" x="67.83" y="22.78" width="22.36" height="22.36"/><rect class="cls-3" x="90.36" y="22.78" width="22.36" height="22.36"/><rect class="cls-4" x="90.36" y="22.78" width="22.36" height="22.36"/><rect class="cls-3" x="112.88" y="22.78" width="22.36" height="22.36"/><rect class="cls-4" x="112.88" y="22.78" width="22.36" height="22.36"/><rect class="cls-3" x="135.41" y="22.78" width="22.36" height="22.36"/><rect class="cls-4" x="135.41" y="22.78" width="22.36" height="22.36"/><rect class="cls-3" x="157.93" y="22.78" width="22.36" height="22.36"/><rect class="cls-4" x="157.93" y="22.78" width="22.36" height="22.36"/><rect class="cls-3" x="180.46" y="22.78" width="22.36" height="22.36"/><rect class="cls-4" x="180.46" y="22.78" width="22.36" height="22.36"/><rect class="cls-3" x="202.99" y="22.78" width="22.36" height="22.36"/><rect class="cls-4" x="202.99" y="22.78" width="22.36" height="22.36"/><rect class="cls-3" x="0.25" y="45.3" width="22.36" height="22.36"/><rect class="cls-4" x="0.25" y="45.3" width="22.36" height="22.36"/><rect class="cls-3" x="22.78" y="45.3" width="22.36" height="22.36"/><rect class="cls-4" x="22.78" y="45.3" width="22.36" height="22.36"/><rect class="cls-3" x="45.3" y="45.3" width="22.36" height="22.36"/><rect class="cls-4" x="45.3" y="45.3" width="22.36" height="22.36"/><rect class="cls-3" x="67.83" y="45.3" width="22.36" height="22.36"/><rect class="cls-4" x="67.83" y="45.3" width="22.36" height="22.36"/><rect class="cls-3" x="90.36" y="45.3" width="22.36" height="22.36"/><rect class="cls-4" x="90.36" y="45.3" width="22.36" height="22.36"/><rect class="cls-3" x="112.88" y="45.3" width="22.36" height="22.36"/><rect class="cls-4" x="112.88" y="45.3" width="22.36" height="22.36"/><rect class="cls-3" x="135.41" y="45.3" width="22.36" height="22.36"/><rect class="cls-4" x="135.41" y="45.3" width="22.36" height="22.36"/><rect class="cls-3" x="157.93" y="45.3" width="22.36" height="22.36"/><rect class="cls-4" x="157.93" y="45.3" width="22.36" height="22.36"/><rect class="cls-3" x="180.46" y="45.3" width="22.36" height="22.36"/><rect class="cls-4" x="180.46" y="45.3" width="22.36" height="22.36"/><rect class="cls-3" x="202.99" y="45.3" width="22.36" height="22.36"/><rect class="cls-4" x="202.99" y="45.3" width="22.36" height="22.36"/><rect class="cls-3" x="0.25" y="67.83" width="22.36" height="22.36"/><rect class="cls-4" x="0.25" y="67.83" width="22.36" height="22.36"/><rect class="cls-3" x="22.78" y="67.83" width="22.36" height="22.36"/><rect class="cls-4" x="22.78" y="67.83" width="22.36" height="22.36"/><rect class="cls-3" x="45.3" y="67.83" width="22.36" height="22.36"/><rect class="cls-4" x="45.3" y="67.83" width="22.36" height="22.36"/><rect class="cls-3" x="67.83" y="67.83" width="22.36" height="22.36"/><rect class="cls-4" x="67.83" y="67.83" width="22.36" height="22.36"/><rect class="cls-1" x="90.36" y="67.83" width="22.36" height="22.36"/><rect class="cls-5" x="90.36" y="67.83" width="22.36" height="22.36"/><rect class="cls-1" x="112.88" y="67.83" width="22.36" height="22.36"/><rect class="cls-5" x="112.88" y="67.83" width="22.36" height="22.36"/><rect class="cls-1" x="135.41" y="67.83" width="22.36" height="22.36"/><rect class="cls-5" x="135.41" y="67.83" width="22.36" height="22.36"/><rect class="cls-1" x="157.93" y="67.83" width="22.36" height="22.36"/><rect class="cls-5" x="157.93" y="67.83" width="22.36" height="22.36"/><rect class="cls-1" x="180.46" y="67.83" width="22.36" height="22.36"/><rect class="cls-5" x="180.46" y="67.83" width="22.36" height="22.36"/><rect class="cls-1" x="202.99" y="67.83" width="22.36" height="22.36"/><rect class="cls-5" x="202.99" y="67.83" width="22.36" height="22.36"/><rect class="cls-1" x="0.25" y="90.35" width="22.36" height="22.36"/><rect class="cls-5" x="0.25" y="90.35" width="22.36" height="22.36"/><rect class="cls-1" x="22.78" y="90.35" width="22.36" height="22.36"/><rect class="cls-5" x="22.78" y="90.35" width="22.36" height="22.36"/><rect class="cls-1" x="45.3" y="90.35" width="22.36" height="22.36"/><rect class="cls-5" x="45.3" y="90.35" width="22.36" height="22.36"/><rect class="cls-1" x="67.83" y="90.35" width="22.36" height="22.36"/><rect class="cls-5" x="67.83" y="90.35" width="22.36" height="22.36"/><rect class="cls-1" x="90.36" y="90.35" width="22.36" height="22.36"/><rect class="cls-5" x="90.36" y="90.35" width="22.36" height="22.36"/><rect class="cls-1" x="112.88" y="90.35" width="22.36" height="22.36"/><rect class="cls-5" x="112.88" y="90.35" width="22.36" height="22.36"/><rect class="cls-1" x="135.41" y="90.35" width="22.36" height="22.36"/><rect class="cls-5" x="135.41" y="90.35" width="22.36" height="22.36"/><rect class="cls-1" x="157.93" y="90.35" width="22.36" height="22.36"/><rect class="cls-5" x="157.93" y="90.35" width="22.36" height="22.36"/><rect class="cls-1" x="180.46" y="90.35" width="22.36" height="22.36"/><rect class="cls-5" x="180.46" y="90.35" width="22.36" height="22.36"/><rect class="cls-1" x="202.99" y="90.35" width="22.36" height="22.36"/><rect class="cls-5" x="202.99" y="90.35" width="22.36" height="22.36"/><rect class="cls-1" x="0.25" y="112.88" width="22.36" height="22.36"/><rect class="cls-5" x="0.25" y="112.88" width="22.36" height="22.36"/><rect class="cls-1" x="22.78" y="112.88" width="22.36" height="22.36"/><rect class="cls-5" x="22.78" y="112.88" width="22.36" height="22.36"/><rect class="cls-1" x="45.3" y="112.88" width="22.36" height="22.36"/><rect class="cls-5" x="45.3" y="112.88" width="22.36" height="22.36"/><rect class="cls-1" x="67.83" y="112.88" width="22.36" height="22.36"/><rect class="cls-5" x="67.83" y="112.88" width="22.36" height="22.36"/><rect class="cls-1" x="90.36" y="112.88" width="22.36" height="22.36"/><rect class="cls-5" x="90.36" y="112.88" width="22.36" height="22.36"/><rect class="cls-1" x="112.88" y="112.88" width="22.36" height="22.36"/><rect class="cls-5" x="112.88" y="112.88" width="22.36" height="22.36"/><rect class="cls-1" x="135.41" y="112.88" width="22.36" height="22.36"/><rect class="cls-5" x="135.41" y="112.88" width="22.36" height="22.36"/><rect class="cls-1" x="157.93" y="112.88" width="22.36" height="22.36"/><rect class="cls-5" x="157.93" y="112.88" width="22.36" height="22.36"/><rect class="cls-1" x="180.46" y="112.88" width="22.36" height="22.36"/><rect class="cls-5" x="180.46" y="112.88" width="22.36" height="22.36"/><rect class="cls-1" x="202.99" y="112.88" width="22.36" height="22.36"/><rect class="cls-5" x="202.99" y="112.88" width="22.36" height="22.36"/><rect class="cls-1" x="0.25" y="135.41" width="22.36" height="22.36"/><rect class="cls-5" x="0.25" y="135.41" width="22.36" height="22.36"/><rect class="cls-1" x="22.78" y="135.41" width="22.36" height="22.36"/><rect class="cls-5" x="22.78" y="135.41" width="22.36" height="22.36"/><rect class="cls-1" x="45.3" y="135.41" width="22.36" height="22.36"/><rect class="cls-5" x="45.3" y="135.41" width="22.36" height="22.36"/><rect class="cls-1" x="67.83" y="135.41" width="22.36" height="22.36"/><rect class="cls-5" x="67.83" y="135.41" width="22.36" height="22.36"/><rect class="cls-1" x="90.36" y="135.41" width="22.36" height="22.36"/><rect class="cls-5" x="90.36" y="135.41" width="22.36" height="22.36"/><rect class="cls-1" x="112.88" y="135.41" width="22.36" height="22.36"/><rect class="cls-5" x="112.88" y="135.41" width="22.36" height="22.36"/><rect class="cls-1" x="135.41" y="135.41" width="22.36" height="22.36"/><rect class="cls-5" x="135.41" y="135.41" width="22.36" height="22.36"/><rect class="cls-1" x="157.93" y="135.41" width="22.36" height="22.36"/><rect class="cls-5" x="157.93" y="135.41" width="22.36" height="22.36"/><rect class="cls-1" x="180.46" y="135.41" width="22.36" height="22.36"/><rect class="cls-5" x="180.46" y="135.41" width="22.36" height="22.36"/><rect class="cls-1" x="202.99" y="135.41" width="22.36" height="22.36"/><rect class="cls-5" x="202.99" y="135.41" width="22.36" height="22.36"/><rect class="cls-1" x="0.25" y="157.94" width="22.36" height="22.36"/><rect class="cls-5" x="0.25" y="157.93" width="22.36" height="22.36"/><rect class="cls-1" x="22.78" y="157.93" width="22.36" height="22.36"/><rect class="cls-5" x="22.78" y="157.93" width="22.36" height="22.36"/><rect class="cls-1" x="45.3" y="157.93" width="22.36" height="22.36"/><rect class="cls-5" x="45.3" y="157.93" width="22.36" height="22.36"/><rect class="cls-1" x="67.83" y="157.93" width="22.36" height="22.36"/><rect class="cls-5" x="67.83" y="157.93" width="22.36" height="22.36"/><rect class="cls-1" x="90.36" y="157.93" width="22.36" height="22.36"/><rect class="cls-5" x="90.36" y="157.93" width="22.36" height="22.36"/><rect class="cls-1" x="112.88" y="157.93" width="22.36" height="22.36"/><rect class="cls-5" x="112.88" y="157.93" width="22.36" height="22.36"/><rect class="cls-1" x="135.41" y="157.93" width="22.36" height="22.36"/><rect class="cls-5" x="135.41" y="157.93" width="22.36" height="22.36"/><rect class="cls-1" x="157.93" y="157.93" width="22.36" height="22.36"/><rect class="cls-5" x="157.93" y="157.93" width="22.36" height="22.36"/><rect class="cls-1" x="180.46" y="157.93" width="22.36" height="22.36"/><rect class="cls-5" x="180.46" y="157.93" width="22.36" height="22.36"/><rect class="cls-1" x="202.99" y="157.93" width="22.36" height="22.36"/><rect class="cls-5" x="202.99" y="157.93" width="22.36" height="22.36"/><rect class="cls-1" x="0.25" y="180.46" width="22.36" height="22.36"/><rect class="cls-5" x="0.25" y="180.46" width="22.36" height="22.36"/><rect class="cls-1" x="22.78" y="180.46" width="22.36" height="22.36"/><rect class="cls-5" x="22.78" y="180.46" width="22.36" height="22.36"/><rect class="cls-1" x="45.3" y="180.46" width="22.36" height="22.36"/><rect class="cls-5" x="45.3" y="180.46" width="22.36" height="22.36"/><rect class="cls-1" x="67.83" y="180.46" width="22.36" height="22.36"/><rect class="cls-5" x="67.83" y="180.46" width="22.36" height="22.36"/><rect class="cls-1" x="90.36" y="180.46" width="22.36" height="22.36"/><rect class="cls-5" x="90.36" y="180.46" width="22.36" height="22.36"/><rect class="cls-1" x="112.88" y="180.46" width="22.36" height="22.36"/><rect class="cls-5" x="112.88" y="180.46" width="22.36" height="22.36"/><rect class="cls-1" x="135.41" y="180.46" width="22.36" height="22.36"/><rect class="cls-5" x="135.41" y="180.46" width="22.36" height="22.36"/><rect class="cls-1" x="157.93" y="180.46" width="22.36" height="22.36"/><rect class="cls-5" x="157.93" y="180.46" width="22.36" height="22.36"/><rect class="cls-1" x="180.46" y="180.46" width="22.36" height="22.36"/><rect class="cls-5" x="180.46" y="180.46" width="22.36" height="22.36"/><rect class="cls-1" x="202.99" y="180.46" width="22.36" height="22.36"/><rect class="cls-5" x="202.99" y="180.46" width="22.36" height="22.36"/><rect class="cls-1" x="0.25" y="202.99" width="22.36" height="22.36"/><rect class="cls-5" x="0.25" y="202.99" width="22.36" height="22.36"/><rect class="cls-1" x="22.78" y="202.99" width="22.36" height="22.36"/><rect class="cls-5" x="22.78" y="202.99" width="22.36" height="22.36"/><rect class="cls-1" x="45.3" y="202.99" width="22.36" height="22.36"/><rect class="cls-5" x="45.3" y="202.99" width="22.36" height="22.36"/><rect class="cls-1" x="67.83" y="202.99" width="22.36" height="22.36"/><rect class="cls-5" x="67.83" y="202.99" width="22.36" height="22.36"/><rect class="cls-1" x="90.36" y="202.99" width="22.36" height="22.36"/><rect class="cls-5" x="90.36" y="202.99" width="22.36" height="22.36"/><rect class="cls-1" x="112.88" y="202.99" width="22.36" height="22.36"/><rect class="cls-5" x="112.88" y="202.99" width="22.36" height="22.36"/><rect class="cls-1" x="135.41" y="202.99" width="22.36" height="22.36"/><rect class="cls-5" x="135.41" y="202.99" width="22.36" height="22.36"/><rect class="cls-1" x="157.93" y="202.99" width="22.36" height="22.36"/><rect class="cls-5" x="157.93" y="202.99" width="22.36" height="22.36"/><rect class="cls-1" x="180.46" y="202.99" width="22.36" height="22.36"/><rect class="cls-5" x="180.46" y="202.99" width="22.36" height="22.36"/><rect class="cls-1" x="202.99" y="202.99" width="22.36" height="22.36"/><rect class="cls-5" x="202.99" y="202.99" width="22.36" height="22.36"/><path class="cls-6" d="M259.28,22.69c-.08-.26,0-.48.4-.6,1-.32,3.64-1.22,4.14-3.28a6.15,6.15,0,0,1-2,.42,4.15,4.15,0,0,1-4.1-4.48A4.74,4.74,0,0,1,262.48,10c3.18,0,5,2.4,5,5.6a9.15,9.15,0,0,1-6.92,9,.47.47,0,0,1-.64-.32Zm5.22-7.84a2,2,0,0,0-4,0,2,2,0,1,0,4,0Z" transform="translate(-5.54 -6.23)"/><path class="cls-6" d="M276,9.85a.47.47,0,0,1,.64.32l.6,1.6c.08.24,0,.46-.4.6-1,.3-3.64,1.34-4.14,3.32a5.65,5.65,0,0,1,2-.42,4.13,4.13,0,0,1,4.1,4.46A4.74,4.74,0,0,1,274,24.45c-3.18,0-5-2.38-5-5.6C269.06,12.79,274.08,10.41,276,9.85Zm-2,11.76a2,2,0,0,0,0-4,2,2,0,0,0,0,4Z" transform="translate(-5.54 -6.23)"/><path class="cls-6" d="M282.08,20.73c1.12,0,2.1.8,2.1,2.6a6.54,6.54,0,0,1-1.66,4.08.35.35,0,0,1-.5,0l-.66-.58c-.14-.16-.1-.34.06-.52a3.73,3.73,0,0,0,1-2.12.62.62,0,0,0,0-.18,1.31,1.31,0,0,1-.76.22,1.54,1.54,0,0,1-1.5-1.74A1.79,1.79,0,0,1,282.08,20.73Z" transform="translate(-5.54 -6.23)"/><path class="cls-6" d="M292.64,9.85a.47.47,0,0,1,.64.32l.6,1.6c.08.24,0,.46-.4.6-1,.3-3.64,1.34-4.14,3.32a5.65,5.65,0,0,1,2-.42,4.13,4.13,0,0,1,4.1,4.46,4.74,4.74,0,0,1-4.72,4.72c-3.18,0-5-2.38-5-5.6C285.72,12.79,290.74,10.41,292.64,9.85Zm-2,11.76a2,2,0,0,0,0-4,2,2,0,0,0,0,4Z" transform="translate(-5.54 -6.23)"/><path class="cls-6" d="M296.76,22.13l1.2-1.34a.38.38,0,0,1,.52,0,3.39,3.39,0,0,0,2.26.94,1.62,1.62,0,0,0,1.78-1.64c0-1-.92-1.68-2.44-1.68h-1.16a.39.39,0,0,1-.38-.38V16.27a.38.38,0,0,1,.38-.38h1.16c1.44,0,2.2-.68,2.2-1.56a1.5,1.5,0,0,0-1.64-1.56,2.39,2.39,0,0,0-1.8.82.39.39,0,0,1-.56,0L297,12.39a.38.38,0,0,1,0-.54A5.36,5.36,0,0,1,301,10c2.4,0,4.46,1.46,4.46,3.78A3.66,3.66,0,0,1,303.3,17v.08a3.48,3.48,0,0,1,2.48,3.32c0,2.24-2,4.06-4.8,4.06a5.13,5.13,0,0,1-4.24-1.78A.42.42,0,0,1,296.76,22.13Z" transform="translate(-5.54 -6.23)"/><path class="cls-6" d="M309.9,17.05V17a3.55,3.55,0,0,1-2.12-3.16c0-2.32,2.06-3.78,4.56-3.78S317,11.49,317,13.81A3.64,3.64,0,0,1,314.9,17v.1a3.89,3.89,0,0,1,2.52,3.46c0,2.44-2,3.92-5.08,3.92s-5-1.48-5-3.92A4,4,0,0,1,309.9,17.05Zm2.52,4.86a1.53,1.53,0,0,0,1.66-1.56,2.13,2.13,0,0,0-1.7-1.88,2.15,2.15,0,0,0-1.66,1.88A1.53,1.53,0,0,0,312.42,21.91Zm1.44-8a1.47,1.47,0,0,0-2.92,0c0,.74.48,1.32,1.44,1.68A1.88,1.88,0,0,0,313.86,13.93Z" transform="translate(-5.54 -6.23)"/><path class="cls-2" d="M255.27,30.6a4.53,4.53,0,0,1,3.14,1.21.25.25,0,0,1,0,.36l-.35.35c-.11.13-.21.12-.34,0a3.84,3.84,0,0,0-2.48-1,3.74,3.74,0,0,0,0,7.47,3.5,3.5,0,0,0,2.48-1,.22.22,0,0,1,.34,0l.3.3a.25.25,0,0,1,0,.35A4.6,4.6,0,0,1,255.27,40a4.68,4.68,0,1,1,0-9.36Z" transform="translate(-5.54 -6.23)"/><path class="cls-2" d="M259.86,34.11a.29.29,0,0,1,.28-.29h.39a.3.3,0,0,1,.29.29v3.25c0,1.2.39,1.74,1.26,1.74a2.21,2.21,0,0,0,1.7-.87V34.11a.29.29,0,0,1,.28-.29h.4a.3.3,0,0,1,.27.29v5.54a.22.22,0,0,1-.23.23c-.39,0-.6-.28-.64-.69A2.41,2.41,0,0,1,262,40c-1.73,0-2.14-1-2.14-2.62Z" transform="translate(-5.54 -6.23)"/><path class="cls-2" d="M269.3,33.69A2.64,2.64,0,0,1,272,36.42c0,.11,0,.26,0,.37a.3.3,0,0,1-.28.26h-4.37a2.12,2.12,0,0,0,2,2.05,2.79,2.79,0,0,0,1.62-.49c.21-.15.3-.2.46,0l.15.22c.12.18.17.25-.05.41a3.63,3.63,0,0,1-2.19.69,2.92,2.92,0,0,1-2.92-3.14A2.93,2.93,0,0,1,269.3,33.69Zm1.75,2.59a1.77,1.77,0,0,0-1.75-1.72,2,2,0,0,0-1.94,1.72Z" transform="translate(-5.54 -6.23)"/><path class="cls-2" d="M273.57,34a.22.22,0,0,1,.24-.24c.37,0,.58.29.62.68a3.11,3.11,0,0,1,2-.76c1.74,0,2.17,1.14,2.17,2.68v3.17a.3.3,0,0,1-.29.29h-.39a.29.29,0,0,1-.29-.29v-3.3c0-1.14-.39-1.68-1.27-1.68a2.64,2.64,0,0,0-1.85.84v4.14a.3.3,0,0,1-.28.29h-.39a.29.29,0,0,1-.29-.29Z" transform="translate(-5.54 -6.23)"/><path class="cls-2" d="M280,34.66a.29.29,0,0,1-.3-.29v-.26a.28.28,0,0,1,.3-.29h.79V32.16a.32.32,0,0,1,.29-.29l.4,0a.26.26,0,0,1,.27.28v1.69h1.77a.29.29,0,0,1,.3.29v.26a.29.29,0,0,1-.3.29h-1.77v3.55a.79.79,0,0,0,.81.89,1.75,1.75,0,0,0,.92-.26c.24-.14.33,0,.38.12l.1.26c.08.19.06.3-.1.39a3.17,3.17,0,0,1-1.42.36,1.65,1.65,0,0,1-1.65-1.76V34.66Z" transform="translate(-5.54 -6.23)"/><path class="cls-2" d="M287.35,36a5.05,5.05,0,0,1,1.29.2c0-1.11-.52-1.66-1.38-1.66a3.63,3.63,0,0,0-1.39.36c-.16.06-.23,0-.29-.16l-.13-.35c-.05-.18,0-.26.19-.33a3.8,3.8,0,0,1,1.67-.39c1.54,0,2.25.91,2.25,2.53v3.43a.22.22,0,0,1-.23.23c-.39,0-.6-.3-.64-.7a2.63,2.63,0,0,1-1.88.79A1.82,1.82,0,0,1,285,38C285,36.87,285.8,36,287.35,36ZM287,39.1a2.09,2.09,0,0,0,1.66-.8V37.07a3.21,3.21,0,0,0-1.28-.23c-.83,0-1.45.4-1.45,1.17A1,1,0,0,0,287,39.1Z" transform="translate(-5.54 -6.23)"/><path class="cls-2" d="M291.15,39.25a.21.21,0,0,1,0-.26l.18-.34c.08-.15.18-.2.35-.08a2.51,2.51,0,0,0,1.5.53c.61,0,1-.28,1-.75s-.46-.81-1.34-1.24-1.7-.82-1.7-1.84A1.66,1.66,0,0,1,293,33.69a3.16,3.16,0,0,1,1.72.47.28.28,0,0,1,.06.4l-.13.25a.29.29,0,0,1-.41.11,2.34,2.34,0,0,0-1.24-.36c-.66,0-.88.38-.88.67,0,.53.41.73,1.14,1.06,1,.49,1.94.88,1.94,2a1.84,1.84,0,0,1-2,1.71A3,3,0,0,1,291.15,39.25Z" transform="translate(-5.54 -6.23)"/><path class="cls-2" d="M300.81,42.64a.3.3,0,0,1-.29.28h-.38a.29.29,0,0,1-.28-.28V34a.22.22,0,0,1,.23-.24.61.61,0,0,1,.6.55,3,3,0,0,1,1.82-.63,2.93,2.93,0,0,1,2.79,3.14A2.93,2.93,0,0,1,302.47,40a3,3,0,0,1-1.66-.49Zm0-4.06a2.84,2.84,0,0,0,1.52.52,2.1,2.1,0,0,0,2-2.29,2.07,2.07,0,0,0-1.94-2.25,2.25,2.25,0,0,0-1.58.73Z" transform="translate(-5.54 -6.23)"/><path class="cls-2" d="M309.58,33.69a3.14,3.14,0,1,1-3,3.12A3.09,3.09,0,0,1,309.58,33.69Zm0,5.41a2.28,2.28,0,1,0-2.07-2.29A2.17,2.17,0,0,0,309.58,39.1Z" transform="translate(-5.54 -6.23)"/><path class="cls-2" d="M314.22,34a.22.22,0,0,1,.24-.24c.37,0,.58.29.62.68a2.48,2.48,0,0,1,1.85-.76c.45,0,1.19.07,1.05.48l-.17.47a.23.23,0,0,1-.35.15,1.42,1.42,0,0,0-.65-.17,1.91,1.91,0,0,0-1.63.76v4.16a.3.3,0,0,1-.28.29h-.39a.29.29,0,0,1-.29-.29Z" transform="translate(-5.54 -6.23)"/><path class="cls-2" d="M287.52,46.58a.25.25,0,0,1,.25-.25h2.87a2.9,2.9,0,1,1,0,5.8h-2.14v3a.26.26,0,0,1-.25.25h-.49a.25.25,0,0,1-.25-.25Zm3.06,4.59a1.94,1.94,0,0,0,2-2,1.85,1.85,0,0,0-2-1.86h-2.07v3.85Z" transform="translate(-5.54 -6.23)"/><path class="cls-2" d="M296.84,51.62a5.05,5.05,0,0,1,1.29.2c0-1.11-.52-1.66-1.38-1.66a3.45,3.45,0,0,0-1.39.36c-.16.06-.23,0-.29-.16l-.13-.35c-.05-.18,0-.26.19-.33a3.8,3.8,0,0,1,1.67-.39c1.54,0,2.25.91,2.25,2.53v3.43a.22.22,0,0,1-.23.23c-.39,0-.6-.3-.64-.7a2.63,2.63,0,0,1-1.88.79,1.82,1.82,0,0,1-1.86-2C294.44,52.47,295.29,51.62,296.84,51.62Zm-.37,3.08a2.08,2.08,0,0,0,1.65-.8V52.67a3.21,3.21,0,0,0-1.28-.23c-.83,0-1.45.4-1.45,1.17A1,1,0,0,0,296.47,54.7Z" transform="translate(-5.54 -6.23)"/><path class="cls-2" d="M306.09,55.47a2.5,2.5,0,0,1-2.63,2.81,3.41,3.41,0,0,1-2.09-.78.29.29,0,0,1-.07-.35l.26-.38c.09-.14.25-.14.39,0a2.42,2.42,0,0,0,1.51.63c1,0,1.68-.52,1.68-1.92V55a3.06,3.06,0,1,1-1.71-5.75,3,3,0,0,1,1.81.63.61.61,0,0,1,.61-.55.23.23,0,0,1,.24.24Zm-2.49-.78a2.91,2.91,0,0,0,1.52-.5V50.91a2.23,2.23,0,0,0-1.58-.73,2.05,2.05,0,0,0-1.94,2.23A2.11,2.11,0,0,0,303.6,54.69Z" transform="translate(-5.54 -6.23)"/><path class="cls-2" d="M310.05,51.62a5.05,5.05,0,0,1,1.29.2c0-1.11-.52-1.66-1.38-1.66a3.45,3.45,0,0,0-1.39.36c-.16.06-.24,0-.29-.16l-.13-.35c0-.18,0-.26.18-.33a3.89,3.89,0,0,1,1.68-.39c1.54,0,2.25.91,2.25,2.53v3.43a.22.22,0,0,1-.23.23c-.39,0-.6-.3-.64-.7a2.63,2.63,0,0,1-1.89.79,1.82,1.82,0,0,1-1.86-2C307.64,52.47,308.5,51.62,310.05,51.62Zm-.38,3.08a2.08,2.08,0,0,0,1.65-.8V52.67a3.11,3.11,0,0,0-1.27-.23c-.83,0-1.46.4-1.46,1.17A1,1,0,0,0,309.67,54.7Z" transform="translate(-5.54 -6.23)"/><path class="cls-2" d="M314.2,49.61a.22.22,0,0,1,.23-.24c.38,0,.59.29.62.68a2.5,2.5,0,0,1,1.85-.76c.46,0,1.2.07,1.05.48l-.17.47c-.06.2-.2.21-.35.15a1.42,1.42,0,0,0-.65-.17,1.9,1.9,0,0,0-1.62.76v4.16a.3.3,0,0,1-.29.29h-.39a.29.29,0,0,1-.28-.29Z" transform="translate(-5.54 -6.23)"/></svg>