<svg xmlns="http://www.w3.org/2000/svg" viewBox="0 0 869.15 100"><defs><style>.cls-1{fill:#fff;}</style></defs><g id="Layer_2" data-name="Layer 2"><g id="Layer_1-2" data-name="Layer 1"><path class="cls-1" d="M38.23,23.75c10.7,0,18.43,3.39,25.63,9.85a2,2,0,0,1,.1,3L57.5,43.24a1.7,1.7,0,0,1-2.64,0A25.06,25.06,0,0,0,38.55,37C25,37,14.93,48.32,14.93,61.66S25.1,86.13,38.65,86.13a25.43,25.43,0,0,0,16.21-6,2,2,0,0,1,2.64,0l6.57,6.78A2,2,0,0,1,64,89.73,36.32,36.32,0,0,1,38.23,100a38.13,38.13,0,1,1,0-76.25Z"/><path class="cls-1" d="M75.4,26.82a2,2,0,0,1,2-2h43.1a2,2,0,0,1,2,2v8.69a2,2,0,0,1-2,2H89.17V54.89h26.16a2.08,2.08,0,0,1,2,2v8.79a2,2,0,0,1-2,2H89.17V86.23h31.35a2,2,0,0,1,2,2v8.69a2,2,0,0,1-2,2H77.42a2,2,0,0,1-2-2Z"/><path class="cls-1" d="M134.6,25.66a2,2,0,0,1,2-1.91h1.59a2.32,2.32,0,0,1,1.8.74l43.21,46.07h.21V26.82a2,2,0,0,1,2-2h9.75a2.08,2.08,0,0,1,2,2V98.09a2,2,0,0,1-2,1.91h-1.49a2.32,2.32,0,0,1-1.8-.74L148.48,51.39h-.22V96.93a2,2,0,0,1-2,2h-9.64a2.08,2.08,0,0,1-2-2Z"/><path class="cls-1" d="M225.36,37.52h-16.2a2,2,0,0,1-2-2V26.82a2,2,0,0,1,2-2h46.28a2,2,0,0,1,2,2v8.69a2,2,0,0,1-2,2H239.23V96.93a2.08,2.08,0,0,1-2,2h-9.85a2.08,2.08,0,0,1-2-2Z"/><path class="cls-1" d="M267.4,26.82a2,2,0,0,1,2-2H299.7a22.94,22.94,0,0,1,23.09,22.77c0,9.74-6.46,17.68-15.67,21.39l14.51,26.9a2,2,0,0,1-1.8,3.07H308.71a1.82,1.82,0,0,1-1.7-1L292.93,69.92H281.17v27a2.08,2.08,0,0,1-2,2h-9.74a2,2,0,0,1-2-2Zm31.14,31.77A10.78,10.78,0,0,0,309,47.79a10.53,10.53,0,0,0-10.48-10.27H281.28V58.59Z"/><path class="cls-1" d="M369.18,23.75a38.13,38.13,0,1,1-38,38.23A38.05,38.05,0,0,1,369.18,23.75Zm0,62.48A24.36,24.36,0,1,0,344.93,62,24.4,24.4,0,0,0,369.18,86.23Z"/><path class="cls-1" d="M410.38,96.19l32.93-71.27a1.91,1.91,0,0,1,1.8-1.17h1.06a1.8,1.8,0,0,1,1.8,1.17l32.62,71.27a1.87,1.87,0,0,1-1.8,2.75h-9.22c-1.58,0-2.33-.63-3.07-2.12l-5.19-11.43H429.65l-5.19,11.43a3.19,3.19,0,0,1-3.07,2.12h-9.21A1.87,1.87,0,0,1,410.38,96.19Zm45.74-22.56-10.59-23.3h-.31l-10.38,23.3Z"/><path class="cls-1" d="M496.69,25.34a1.78,1.78,0,0,1,1.9-1.59h1.7a1.93,1.93,0,0,1,1.8,1.06l23.3,50h.31l23.3-50a1.82,1.82,0,0,1,1.8-1.06h1.7a1.78,1.78,0,0,1,1.9,1.59l12.5,71.17A1.84,1.84,0,0,1,565,98.94h-9.63a2.31,2.31,0,0,1-2-1.59L547.1,57.22h-.32L528.25,98.83a1.81,1.81,0,0,1-1.8,1.17h-1.91a1.91,1.91,0,0,1-1.8-1.17L504,57.22h-.31l-6.15,40.13a2,2,0,0,1-1.9,1.59H486.1a1.94,1.94,0,0,1-2-2.43Z"/><path class="cls-1" d="M579.08,26.82a2,2,0,0,1,2-2h43.1a2,2,0,0,1,2,2v8.69a2,2,0,0,1-2,2H592.85V54.89H619a2.09,2.09,0,0,1,2,2v8.79a2,2,0,0,1-2,2H592.85V86.23h31.34a2,2,0,0,1,2,2v8.69a2,2,0,0,1-2,2h-43.1a2,2,0,0,1-2-2Zm12.81-14.51L609.79.45c1.8-1.16,4.45,0,5.72,2.55s1.27,5.4-.53,6.24l-19.59,9c-1.17.52-2.65-.43-3.5-2S591.15,12.84,591.89,12.31Z"/><path class="cls-1" d="M638.28,26.82a2,2,0,0,1,2-2h30.29a22.94,22.94,0,0,1,23.09,22.77c0,9.74-6.46,17.68-15.68,21.39l14.51,26.9a2,2,0,0,1-1.8,3.07H679.58a1.81,1.81,0,0,1-1.69-1L663.8,69.92H652.05v27a2.08,2.08,0,0,1-2,2h-9.75a2,2,0,0,1-2-2Zm31.14,31.77a10.78,10.78,0,0,0,10.48-10.8,10.53,10.53,0,0,0-10.48-10.27H652.15V58.59Z"/><path class="cls-1" d="M706.38,26.82a2.08,2.08,0,0,1,2-2h9.85a2.08,2.08,0,0,1,2,2V96.93a2.08,2.08,0,0,1-2,2h-9.85a2.08,2.08,0,0,1-2-2Z"/><path class="cls-1" d="M770.34,23.75c10.7,0,18.43,3.39,25.63,9.85a2,2,0,0,1,.1,3l-6.46,6.68a1.7,1.7,0,0,1-2.64,0A25.06,25.06,0,0,0,770.66,37C757.1,37,747,48.32,747,61.66s10.17,24.47,23.72,24.47a25.43,25.43,0,0,0,16.21-6,2,2,0,0,1,2.64,0l6.57,6.78a2,2,0,0,1-.11,2.86A36.32,36.32,0,0,1,770.34,100a38.13,38.13,0,1,1,0-76.25Z"/><path class="cls-1" d="M798.72,96.19l32.94-71.27a1.91,1.91,0,0,1,1.8-1.17h1.06a1.8,1.8,0,0,1,1.8,1.17l32.62,71.27a1.87,1.87,0,0,1-1.8,2.75h-9.22c-1.59,0-2.33-.63-3.07-2.12l-5.19-11.43H818l-5.19,11.43a3.19,3.19,0,0,1-3.07,2.12h-9.22A1.87,1.87,0,0,1,798.72,96.19Zm45.75-22.56-10.59-23.3h-.32l-10.37,23.3Z"/></g></g></svg>