<svg xmlns="http://www.w3.org/2000/svg" viewBox="0 0 391.24 100"><defs><style>.cls-1{fill:#fff;}</style></defs><g id="Layer_2" data-name="Layer 2"><g id="Layer_1-2" data-name="Layer 1"><path class="cls-1" d="M12.63,25.34a1.8,1.8,0,0,1,1.91-1.59h1.7A2,2,0,0,1,18,24.81l23.29,50h.32l23.3-50a1.84,1.84,0,0,1,1.8-1.06h1.69a1.78,1.78,0,0,1,1.91,1.59l12.5,71.17a1.84,1.84,0,0,1-1.91,2.43H71.3a2.3,2.3,0,0,1-2-1.59L63,57.22h-.31L44.19,98.84a1.8,1.8,0,0,1-1.8,1.16h-1.9a1.89,1.89,0,0,1-1.8-1.16L19.94,57.22h-.32L13.48,97.35a2,2,0,0,1-1.9,1.59H2a1.94,1.94,0,0,1-2-2.43Z"/><path class="cls-1" d="M95,26.82a2,2,0,0,1,2-2h43.1a2,2,0,0,1,2,2v8.69a2,2,0,0,1-2,2H108.8V54.89H135a2.09,2.09,0,0,1,2,2v8.79a2,2,0,0,1-2,2H108.8V86.23h31.34a2,2,0,0,1,2,2v8.69a2,2,0,0,1-2,2H97a2,2,0,0,1-2-2Zm12.81-14.51L125.74.45c1.8-1.16,4.45,0,5.72,2.54s1.27,5.41-.53,6.25l-19.59,9c-1.17.53-2.65-.42-3.5-2S107.1,12.84,107.84,12.31Z"/><path class="cls-1" d="M169.9,60.92,148.72,27.78a1.91,1.91,0,0,1,1.8-3h12.29a2.12,2.12,0,0,1,1.69,1l13.35,22.45h.42l13.66-22.45a2,2,0,0,1,1.69-1h12.29a1.91,1.91,0,0,1,1.8,3L186.42,60.92l22,35.06a1.89,1.89,0,0,1-1.8,3H195.21a2.17,2.17,0,0,1-1.8-1L178.27,73.74h-.42L163,98a2.33,2.33,0,0,1-1.8,1H149.78c-1.9,0-2.75-1.59-1.9-3Z"/><path class="cls-1" d="M218.3,26.82a2.08,2.08,0,0,1,2-2h9.85a2.08,2.08,0,0,1,2,2V96.93a2.08,2.08,0,0,1-2,2h-9.85a2.08,2.08,0,0,1-2-2Z"/><path class="cls-1" d="M282.27,23.75c10.69,0,18.42,3.39,25.62,9.85a2,2,0,0,1,.11,3l-6.46,6.67a1.71,1.71,0,0,1-2.65,0A25,25,0,0,0,282.58,37C269,37,259,48.32,259,61.66s10.16,24.47,23.72,24.47a25.43,25.43,0,0,0,16.2-6,2,2,0,0,1,2.65,0l6.57,6.78a2,2,0,0,1-.11,2.86A36.34,36.34,0,0,1,282.27,100a38.13,38.13,0,1,1,0-76.25Z"/><path class="cls-1" d="M353.12,23.75A38.13,38.13,0,1,1,315.1,62,38.05,38.05,0,0,1,353.12,23.75Zm0,62.48A24.36,24.36,0,1,0,328.86,62,24.4,24.4,0,0,0,353.12,86.23Z"/></g></g></svg>