<svg id="Layer_1" data-name="Layer 1" xmlns="http://www.w3.org/2000/svg" viewBox="0 0 1140.11 132.06"><defs><style>.cls-1{fill:#fff;}</style></defs><path class="cls-1" d="M50.6,132.06a50.47,50.47,0,0,1-35.81-14.65A49.89,49.89,0,0,1,0,81.73a50.66,50.66,0,0,1,50.6-50.6c13.41,0,23.88,4,33.93,13a3.25,3.25,0,0,1,1.12,2.29,3.13,3.13,0,0,1-1,2.32l-8.46,8.74a2.7,2.7,0,0,1-2,1,3,3,0,0,1-2.22-1,32.3,32.3,0,0,0-21-8c-17.07,0-30.45,14-30.45,31.84C20.57,99,34,112.88,51.16,112.88c7.49,0,14.53-2.63,20.92-7.8a3,3,0,0,1,4.14,0L84.83,114a2.64,2.64,0,0,1,.86,1.91,3.5,3.5,0,0,1-1,2.54A47.94,47.94,0,0,1,50.6,132.06Zm0-99.93A49.66,49.66,0,0,0,1,81.73a48.88,48.88,0,0,0,14.5,35,49.46,49.46,0,0,0,35.1,14.36A47,47,0,0,0,84,117.74a2.49,2.49,0,0,0,.71-1.79,1.68,1.68,0,0,0-.55-1.23l-8.63-8.91a2.07,2.07,0,0,0-2.79,0c-6.59,5.34-13.84,8-21.56,8-17.71,0-31.59-14.31-31.59-32.56C19.57,62.9,33.38,48.48,51,48.48a33.31,33.31,0,0,1,21.7,8.31,2.15,2.15,0,0,0,1.51.71,1.81,1.81,0,0,0,1.26-.66L84,48.07a2.15,2.15,0,0,0,.68-1.59,2.22,2.22,0,0,0-.79-1.57C74,36.07,63.75,32.13,50.6,32.13Z"/><path class="cls-1" d="M158.45,130.67H102a3.15,3.15,0,0,1-3.14-3.14V35.65A3.14,3.14,0,0,1,102,32.52h56.49a3.14,3.14,0,0,1,3.14,3.13V47a3.15,3.15,0,0,1-3.14,3.14H117.87V71.93h33.78a3.23,3.23,0,0,1,3.14,3.14V86.59a3.15,3.15,0,0,1-3.14,3.14H117.87V113h40.58a3.14,3.14,0,0,1,3.14,3.13v11.38A3.15,3.15,0,0,1,158.45,130.67ZM102,33.52a2.13,2.13,0,0,0-2.14,2.13v91.88a2.14,2.14,0,0,0,2.14,2.14h56.49a2.14,2.14,0,0,0,2.14-2.14V116.15a2.13,2.13,0,0,0-2.14-2.13H116.87V88.73h34.78a2.14,2.14,0,0,0,2.14-2.14V75.07a2.22,2.22,0,0,0-2.14-2.14H116.87V49.17h41.58A2.14,2.14,0,0,0,160.59,47V35.65a2.13,2.13,0,0,0-2.14-2.13Z"/><path class="cls-1" d="M256.3,132.06h-1.94a3.56,3.56,0,0,1-2.72-1.12l-56.32-62.1v58.69a3.15,3.15,0,0,1-3.14,3.14H179.55a3.22,3.22,0,0,1-3.14-3.14V34.13a3.11,3.11,0,0,1,3.14-3h2.08a3.49,3.49,0,0,1,2.71,1.12l56,59.76V35.65a3.14,3.14,0,0,1,3.14-3.13H256.3a3.22,3.22,0,0,1,3.14,3.13v93.41A3.11,3.11,0,0,1,256.3,132.06Zm-62-64.71h1l.15.17,56.91,62.73a2.53,2.53,0,0,0,2,.81h1.94a2.1,2.1,0,0,0,2.14-2V35.65a2.22,2.22,0,0,0-2.14-2.13H243.53a2.13,2.13,0,0,0-2.14,2.13V93.47h-1l-.15-.15L183.62,32.94a2.53,2.53,0,0,0-2-.81h-2.08a2.1,2.1,0,0,0-2.14,2v93.4a2.22,2.22,0,0,0,2.14,2.14h12.63a2.14,2.14,0,0,0,2.14-2.14Z"/><path class="cls-1" d="M311.41,130.67H298.5a3.22,3.22,0,0,1-3.14-3.14V50.17H274.62A3.14,3.14,0,0,1,271.49,47V35.65a3.13,3.13,0,0,1,3.13-3.13h60.66a3.13,3.13,0,0,1,3.13,3.13V47a3.14,3.14,0,0,1-3.13,3.14H314.54v77.36A3.21,3.21,0,0,1,311.41,130.67ZM274.62,33.52a2.13,2.13,0,0,0-2.13,2.13V47a2.14,2.14,0,0,0,2.13,2.14h21.74v78.36a2.22,2.22,0,0,0,2.14,2.14h12.91a2.22,2.22,0,0,0,2.13-2.14V49.17h21.74A2.13,2.13,0,0,0,337.41,47V35.65a2.13,2.13,0,0,0-2.13-2.13Z"/><path class="cls-1" d="M419.67,130.67H405.09a2.89,2.89,0,0,1-2.67-1.52L384.1,92.64H369.51v34.89a3.22,3.22,0,0,1-3.14,3.14H353.6a3.15,3.15,0,0,1-3.14-3.14V35.65a3.14,3.14,0,0,1,3.14-3.13h39.69a30.59,30.59,0,0,1,30.76,30.34c0,12.23-7.78,23-20.34,28.28l18.76,34.77a3.35,3.35,0,0,1,0,3.29A3.14,3.14,0,0,1,419.67,130.67Zm-51.16-39h16.21l.14.28,18.46,36.78a1.86,1.86,0,0,0,1.77,1h14.58a2.14,2.14,0,0,0,1.94-1,2.36,2.36,0,0,0,0-2.3L402.3,90.64l.52-.21c12.48-5,20.23-15.59,20.23-27.57a29.58,29.58,0,0,0-29.76-29.34H353.6a2.13,2.13,0,0,0-2.14,2.13v91.88a2.14,2.14,0,0,0,2.14,2.14h12.77a2.22,2.22,0,0,0,2.14-2.14Zm23.26-13.85H368.64V49.17h23.13a14.3,14.3,0,0,1,14.24,14C406,71.08,399.49,77.79,391.77,77.79Zm-22.13-1h22.13C399,76.79,405,70.54,405,63.13a13.28,13.28,0,0,0-13.24-13H369.64Z"/><path class="cls-1" d="M484.35,132.06A49.8,49.8,0,0,1,434,81.73a50.47,50.47,0,0,1,14.65-35.81,49.86,49.86,0,0,1,35.68-14.79,50.59,50.59,0,0,1,50.46,50.6,50.14,50.14,0,0,1-50.46,50.33Zm0-99.93a48.86,48.86,0,0,0-35,14.49A49.48,49.48,0,0,0,435,81.73a49.4,49.4,0,1,0,98.79,0A49.59,49.59,0,0,0,484.35,32.13Zm0,81.89a32.43,32.43,0,0,1,0-64.85c17.57,0,32.42,14.91,32.42,32.56A32.4,32.4,0,0,1,484.35,114Zm0-63.85a31.43,31.43,0,1,0,31.42,31.56C515.77,64.62,501.38,50.17,484.35,50.17Z"/><path class="cls-1" d="M628,130.67H615.93c-2.46,0-3.53-1.17-4.47-3l-6.68-14.71H563.92l-6.66,14.69a4.71,4.71,0,0,1-4.48,3.07H540.7a3.1,3.1,0,0,1-2.7-1.36,3,3,0,0,1-.11-3l43.16-93.41a3,3,0,0,1,2.82-1.81h1.38a2.86,2.86,0,0,1,2.81,1.8l42.76,93.42a3,3,0,0,1-.12,3A3.1,3.1,0,0,1,628,130.67Zm-64.72-18.76h42.14l6.94,15.28c.93,1.87,1.8,2.48,3.57,2.48H628a2.12,2.12,0,0,0,1.85-.9,2.07,2.07,0,0,0,.06-2L587.16,33.36a1.87,1.87,0,0,0-1.91-1.23h-1.38A2,2,0,0,0,582,33.38l-43.16,93.39a2.07,2.07,0,0,0,.06,2,2.12,2.12,0,0,0,1.85.9h12.08a3.68,3.68,0,0,0,3.56-2.46Zm35.8-14.41H569.63l14-31.53h1.06Zm-27.91-1h26.35L584.21,67.22Z"/><path class="cls-1" d="M690.46,132.06H688a3,3,0,0,1-2.8-1.8L661,76.54l-7.9,51.62a3.2,3.2,0,0,1-3,2.51H637.58a3.18,3.18,0,0,1-2.46-1,3.36,3.36,0,0,1-.67-2.74L651,33.63a2.82,2.82,0,0,1,3-2.5h2.22A3,3,0,0,1,659,32.79l30.29,65,30.29-65a2.92,2.92,0,0,1,2.81-1.67h2.23a2.83,2.83,0,0,1,3,2.52L744,126.89a3.17,3.17,0,0,1-.51,2.72,3.07,3.07,0,0,1-2.48,1.06H728.35a3.49,3.49,0,0,1-3.11-2.44l-8-51.68-23.91,53.69A2.85,2.85,0,0,1,690.46,132.06ZM660.19,75h1.17l24.7,54.84a2,2,0,0,0,1.9,1.23h2.5a1.85,1.85,0,0,0,1.89-1.19L716.79,75H718l.06.42,8.19,52.6a2.49,2.49,0,0,0,2.14,1.66H741a2.13,2.13,0,0,0,1.7-.68,2.23,2.23,0,0,0,.31-1.91L726.61,33.8a1.85,1.85,0,0,0-2-1.67h-2.23a1.91,1.91,0,0,0-1.91,1.11L689.81,99h-1l-30.67-65.8a2,2,0,0,0-1.91-1.1H654a1.85,1.85,0,0,0-2,1.64v0l-16.51,93.27a2.36,2.36,0,0,0,.44,1.93,2.16,2.16,0,0,0,1.7.67h12.49a2.2,2.2,0,0,0,2-1.65Z"/><path class="cls-1" d="M818.57,130.67H762.08a3.14,3.14,0,0,1-3.13-3.14V35.65a3.13,3.13,0,0,1,3.13-3.13h56.49a3.14,3.14,0,0,1,3.14,3.13V47a3.15,3.15,0,0,1-3.14,3.14H778V71.93h33.78a3.23,3.23,0,0,1,3.14,3.14V86.59a3.15,3.15,0,0,1-3.14,3.14H778V113h40.58a3.14,3.14,0,0,1,3.14,3.13v11.38A3.15,3.15,0,0,1,818.57,130.67ZM762.08,33.52A2.13,2.13,0,0,0,760,35.65v91.88a2.14,2.14,0,0,0,2.13,2.14h56.49a2.14,2.14,0,0,0,2.14-2.14V116.15a2.13,2.13,0,0,0-2.14-2.13H777V88.73h34.78a2.14,2.14,0,0,0,2.14-2.14V75.07a2.22,2.22,0,0,0-2.14-2.14H777V49.17h41.58A2.14,2.14,0,0,0,820.71,47V35.65a2.13,2.13,0,0,0-2.14-2.13Zm17.84-8.42c-1.49,0-3.09-1.15-4.12-3.09s-1.17-4.84.15-5.78h0L799.42.68a4.46,4.46,0,0,1,3.66-.5,7.63,7.63,0,0,1,4.56,4,8.94,8.94,0,0,1,1,6.63,3.68,3.68,0,0,1-1.93,2.23L781,24.86A2.52,2.52,0,0,1,779.92,25.1Zm-3.39-8c-.68.49-.74,2.7.16,4.5s2.71,3,3.93,2.41l25.67-11.8a2.7,2.7,0,0,0,1.4-1.65,8,8,0,0,0-.94-5.86,6.58,6.58,0,0,0-3.94-3.5,3.43,3.43,0,0,0-2.84.36Z"/><path class="cls-1" d="M905.74,130.67H891.17a2.87,2.87,0,0,1-2.67-1.52L870.18,92.64h-14.6v34.89a3.22,3.22,0,0,1-3.14,3.14H839.67a3.14,3.14,0,0,1-3.13-3.14V35.65a3.13,3.13,0,0,1,3.13-3.13h39.7a30.58,30.58,0,0,1,30.75,30.34c0,12.23-7.77,23-20.33,28.28l18.75,34.77a3.38,3.38,0,0,1,0,3.29A3.16,3.16,0,0,1,905.74,130.67Zm-51.16-39h16.21l.14.28,18.46,36.78a1.88,1.88,0,0,0,1.78,1h14.57a2.14,2.14,0,0,0,1.94-1,2.35,2.35,0,0,0,0-2.3L888.38,90.64l.52-.21c12.47-5,20.22-15.59,20.22-27.57a29.58,29.58,0,0,0-29.75-29.34h-39.7a2.13,2.13,0,0,0-2.13,2.13v91.88a2.13,2.13,0,0,0,2.13,2.14h12.77a2.22,2.22,0,0,0,2.14-2.14Zm23.26-13.85H854.72V49.17h23.12a14.3,14.3,0,0,1,14.24,14C892.08,71.08,885.56,77.79,877.84,77.79Zm-22.12-1h22.12c7.18,0,13.24-6.25,13.24-13.66a13.28,13.28,0,0,0-13.24-13H855.72Z"/><path class="cls-1" d="M941.83,130.67H928.92a3.22,3.22,0,0,1-3.14-3.14V35.65a3.22,3.22,0,0,1,3.14-3.13h12.91A3.21,3.21,0,0,1,945,35.65v91.88A3.21,3.21,0,0,1,941.83,130.67ZM928.92,33.52a2.22,2.22,0,0,0-2.14,2.13v91.88a2.22,2.22,0,0,0,2.14,2.14h12.91a2.22,2.22,0,0,0,2.13-2.14V35.65a2.21,2.21,0,0,0-2.13-2.13Z"/><path class="cls-1" d="M1010.11,132.06a50.47,50.47,0,0,1-35.81-14.65,49.89,49.89,0,0,1-14.79-35.68,50.66,50.66,0,0,1,50.6-50.6c13.41,0,23.88,4,33.93,13a3.25,3.25,0,0,1,1.12,2.29,3.16,3.16,0,0,1-1,2.32l-8.47,8.74a2.68,2.68,0,0,1-2,1,3,3,0,0,1-2.22-1,32.3,32.3,0,0,0-21-8c-17.07,0-30.45,14-30.45,31.84,0,17.69,13.44,31.56,30.59,31.56,7.49,0,14.53-2.63,20.92-7.8a3,3,0,0,1,4.14,0l8.61,8.89a2.64,2.64,0,0,1,.86,1.91,3.53,3.53,0,0,1-1,2.54A48,48,0,0,1,1010.11,132.06Zm0-99.93a49.66,49.66,0,0,0-49.6,49.6,48.92,48.92,0,0,0,14.49,35,49.5,49.5,0,0,0,35.11,14.36,47,47,0,0,0,33.38-13.32,2.49,2.49,0,0,0,.71-1.79,1.68,1.68,0,0,0-.55-1.23l-8.63-8.91a2.07,2.07,0,0,0-2.79,0c-6.59,5.34-13.84,8-21.56,8-17.71,0-31.59-14.31-31.59-32.56,0-18.42,13.82-32.84,31.45-32.84a33.36,33.36,0,0,1,21.71,8.31,2.13,2.13,0,0,0,1.5.71,1.81,1.81,0,0,0,1.26-.66l8.48-8.77a2.15,2.15,0,0,0,.68-1.59,2.22,2.22,0,0,0-.79-1.57C1033.52,36.07,1023.26,32.13,1010.11,32.13Z"/><path class="cls-1" d="M1137,130.67H1124.9c-2.45,0-3.53-1.17-4.47-3l-6.68-14.71H1072.9l-6.67,14.69a4.68,4.68,0,0,1-4.48,3.07h-12.08a3.07,3.07,0,0,1-2.69-1.36,3,3,0,0,1-.12-3L1090,32.94a3,3,0,0,1,2.82-1.81h1.39a2.84,2.84,0,0,1,2.8,1.8l42.76,93.42a3,3,0,0,1-.12,3A3.09,3.09,0,0,1,1137,130.67Zm-64.72-18.76h42.15l6.93,15.28c.94,1.87,1.81,2.48,3.57,2.48H1137a2.13,2.13,0,0,0,1.86-.9,2,2,0,0,0,.05-2l-42.75-93.41a1.87,1.87,0,0,0-1.9-1.23h-1.39a2,2,0,0,0-1.91,1.25l-43.16,93.39a2,2,0,0,0,0,2,2.13,2.13,0,0,0,1.85.9h12.08a3.68,3.68,0,0,0,3.56-2.46Zm35.8-14.41H1078.6L1092.65,66h1.07Zm-27.9-1h26.35l-13.31-29.28Z"/></svg>