<svg id="Layer_1" data-name="Layer 1" xmlns="http://www.w3.org/2000/svg" viewBox="0 0 986.6 100.93"><defs><style>.cls-1{fill:#fff;}</style></defs><path class="cls-1" d="M50.6,100.93A50.47,50.47,0,0,1,14.79,86.28,49.86,49.86,0,0,1,0,50.6,50.66,50.66,0,0,1,50.6,0C64,0,74.48,4,84.53,13a3.21,3.21,0,0,1,1.12,2.29,3.16,3.16,0,0,1-1,2.32l-8.46,8.74a2.69,2.69,0,0,1-2,1,3,3,0,0,1-2.22-1,32.3,32.3,0,0,0-21-8c-17.07,0-30.45,14-30.45,31.84,0,17.7,13.44,31.56,30.59,31.56A32.68,32.68,0,0,0,72.08,74a3,3,0,0,1,4.14,0l8.61,8.88a2.64,2.64,0,0,1,.86,1.92,3.48,3.48,0,0,1-1,2.53A47.9,47.9,0,0,1,50.6,100.93ZM50.6,1A49.66,49.66,0,0,0,1,50.6a48.87,48.87,0,0,0,14.5,35A49.46,49.46,0,0,0,50.6,99.93,46.93,46.93,0,0,0,84,86.61a2.47,2.47,0,0,0,.71-1.79,1.66,1.66,0,0,0-.55-1.22l-8.63-8.91a2.06,2.06,0,0,0-2.79,0c-6.59,5.34-13.84,8-21.56,8-17.71,0-31.59-14.3-31.59-32.56,0-18.42,13.81-32.84,31.45-32.84a33.31,33.31,0,0,1,21.7,8.31,2.11,2.11,0,0,0,1.51.71,1.77,1.77,0,0,0,1.26-.66L84,17a2.19,2.19,0,0,0,.68-1.6,2.24,2.24,0,0,0-.79-1.57C74,4.94,63.75,1,50.6,1Z"/><path class="cls-1" d="M143.46,100.93A49.79,49.79,0,0,1,93.13,50.6a50.47,50.47,0,0,1,14.65-35.81A49.89,49.89,0,0,1,143.46,0a50.59,50.59,0,0,1,50.47,50.6,50.14,50.14,0,0,1-50.47,50.33Zm0-99.93a48.9,48.9,0,0,0-35,14.5A49.46,49.46,0,0,0,94.13,50.6a49.4,49.4,0,1,0,98.8,0A49.59,49.59,0,0,0,143.46,1Zm0,81.89a32.43,32.43,0,0,1,0-64.85C161,18,175.88,33,175.88,50.6A32.39,32.39,0,0,1,143.46,82.89Zm0-63.85A31.43,31.43,0,1,0,174.88,50.6C174.88,33.5,160.49,19,143.46,19Z"/><path class="cls-1" d="M288.36,100.93h-1.94a3.49,3.49,0,0,1-2.71-1.12L227.38,37.72V96.41a3.14,3.14,0,0,1-3.14,3.13H211.61a3.22,3.22,0,0,1-3.14-3.13V3a3.11,3.11,0,0,1,3.14-3h2.08a3.53,3.53,0,0,1,2.72,1.12l56,59.76V4.53a3.15,3.15,0,0,1,3.14-3.14h12.76a3.21,3.21,0,0,1,3.14,3.14v93.4A3.11,3.11,0,0,1,288.36,100.93Zm-62-64.7h1l.15.16,56.9,62.73a2.53,2.53,0,0,0,2,.81h1.94a2.1,2.1,0,0,0,2.14-2V4.53a2.22,2.22,0,0,0-2.14-2.14H275.6a2.14,2.14,0,0,0-2.14,2.14V62.35h-1l-.14-.16L215.69,1.81a2.55,2.55,0,0,0-2-.81h-2.08a2.1,2.1,0,0,0-2.14,2V96.41a2.22,2.22,0,0,0,2.14,2.13h12.63a2.14,2.14,0,0,0,2.14-2.13Z"/><path class="cls-1" d="M338.75,100.93C320.6,100.93,311.37,93,307.9,90c-1.61-1.28-2.17-2.38-.82-4.79l5-8.61a3.62,3.62,0,0,1,2.46-1.79,3.8,3.8,0,0,1,3,.67c5.92,4.48,12,8.5,20.65,8.5,6.81,0,12.13-4.47,12.13-10.19,0-6.43-5.17-11.28-17.31-16.19C321.67,53,306.6,44.87,306.6,27.15,306.6,14.07,316.53,0,338.33,0c14.78,0,26,7.83,28.06,9.4a3.47,3.47,0,0,1,1.47,2.26,3.92,3.92,0,0,1-.53,3l-5.26,7.9c-1.24,1.85-3.6,3.11-5.56,1.8l-1-.64c-5.63-3.55-10.94-6.91-18-6.91-8.09,0-11.71,4.63-11.71,9.22,0,6.06,4.65,10.43,16.06,15.08C356.35,47,371.17,55.29,371.17,73,371.17,86.51,359.81,100.93,338.75,100.93Zm-23.47-25.2a2.56,2.56,0,0,0-.55,0,2.62,2.62,0,0,0-1.78,1.3l-5,8.61c-1.08,1.93-.7,2.5.58,3.53h0c3.4,2.93,12.42,10.7,30.21,10.7,20.41,0,31.42-13.9,31.42-27,0-17.06-14.5-25.2-28.69-30.9-11.86-4.83-16.69-9.47-16.69-16,0-5.09,3.93-10.22,12.71-10.22,7.34,0,12.77,3.43,18.53,7.06l1,.65c1.42.95,3.21-.07,4.17-1.52l5.28-7.91a2.92,2.92,0,0,0,.37-2.24,2.47,2.47,0,0,0-1.05-1.63c-2.09-1.57-13-9.23-27.5-9.23-14.8,0-30.73,8.18-30.73,26.15,0,17.11,14.72,25,25.78,29.51,12.58,5.09,17.94,10.21,17.94,17.12,0,6.28-5.76,11.19-13.13,11.19-9,0-15.19-4.12-21.26-8.71A2.73,2.73,0,0,0,315.28,75.73Z"/><path class="cls-1" d="M429.66,100.93A49.79,49.79,0,0,1,379.33,50.6,50.51,50.51,0,0,1,394,14.79,49.89,49.89,0,0,1,429.66,0a50.59,50.59,0,0,1,50.47,50.6,50.14,50.14,0,0,1-50.47,50.33Zm0-99.93a48.9,48.9,0,0,0-35,14.5,49.46,49.46,0,0,0-14.36,35.1,49.4,49.4,0,1,0,98.8,0A49.59,49.59,0,0,0,429.66,1Zm0,81.89A32.43,32.43,0,1,1,462.08,50.6,32.32,32.32,0,0,1,429.66,82.89Zm0-63.85A31.43,31.43,0,1,0,461.08,50.6C461.08,33.5,446.69,19,429.66,19Z"/><path class="cls-1" d="M548.61,99.54h-50.8a3.13,3.13,0,0,1-3.13-3.13V4.53a3.14,3.14,0,0,1,3.13-3.14h12.77a3.22,3.22,0,0,1,3.14,3.14V81.89h34.89A3.15,3.15,0,0,1,551.75,85V96.41A3.14,3.14,0,0,1,548.61,99.54ZM497.81,2.39a2.13,2.13,0,0,0-2.13,2.14V96.41a2.13,2.13,0,0,0,2.13,2.13h50.8a2.14,2.14,0,0,0,2.14-2.13V85a2.14,2.14,0,0,0-2.14-2.14H512.72V4.53a2.22,2.22,0,0,0-2.14-2.14Z"/><path class="cls-1" d="M578.45,99.54h-12.9a3.22,3.22,0,0,1-3.14-3.13V4.53a3.22,3.22,0,0,1,3.14-3.14h12.9a3.21,3.21,0,0,1,3.14,3.14V96.41A3.21,3.21,0,0,1,578.45,99.54ZM565.55,2.39a2.22,2.22,0,0,0-2.14,2.14V96.41a2.22,2.22,0,0,0,2.14,2.13h12.9a2.22,2.22,0,0,0,2.14-2.13V4.53a2.22,2.22,0,0,0-2.14-2.14Z"/><path class="cls-1" d="M637.72,99.54H604.83a3.1,3.1,0,0,1-3-3.13V4.53a3.11,3.11,0,0,1,3-3.14h32.89a49.08,49.08,0,1,1,0,98.15ZM604.83,2.39a2.1,2.1,0,0,0-2,2.14V96.41a2.09,2.09,0,0,0,2,2.13h32.89a48.08,48.08,0,1,0,0-96.15Zm31.22,80.22H619.73V18.18h16.32c18.69,0,31.73,13.22,31.73,32.15S654.74,82.61,636.05,82.61Zm-15.32-1h15.32c18.1,0,30.73-12.86,30.73-31.28s-12.63-31.15-30.73-31.15H620.73Z"/><path class="cls-1" d="M780.12,99.54H768.05c-2.45,0-3.53-1.16-4.47-3.05L756.9,81.78H716.05l-6.67,14.7a4.69,4.69,0,0,1-4.48,3.06H692.82a3.07,3.07,0,0,1-2.69-1.36,3,3,0,0,1-.12-3L733.17,1.82A3,3,0,0,1,736,0h1.39a2.84,2.84,0,0,1,2.8,1.8l42.76,93.43a3,3,0,0,1-.12,3A3.08,3.08,0,0,1,780.12,99.54ZM715.4,80.78h42.15l6.93,15.28c.94,1.88,1.81,2.48,3.57,2.48h12.07a2.11,2.11,0,0,0,1.86-.9,2,2,0,0,0,0-2L739.28,2.24A1.86,1.86,0,0,0,737.38,1H736a2,2,0,0,0-1.91,1.25l-43.16,93.4a2,2,0,0,0,.05,2,2.11,2.11,0,0,0,1.85.9H704.9a3.68,3.68,0,0,0,3.56-2.46Zm35.8-14.41H721.75l14-31.53h1.07Zm-27.9-1h26.35L736.34,36.09Z"/><path class="cls-1" d="M827.74,99.54h-32.9a3.11,3.11,0,0,1-3-3.13V4.53a3.11,3.11,0,0,1,3-3.14h32.9a49.08,49.08,0,1,1,0,98.15ZM794.84,2.39a2.1,2.1,0,0,0-2,2.14V96.41a2.1,2.1,0,0,0,2,2.13h32.9a48.08,48.08,0,1,0,0-96.15Zm31.23,80.22H809.75V18.18h16.32c18.68,0,31.73,13.22,31.73,32.15S844.75,82.61,826.07,82.61Zm-15.32-1h15.32c18.09,0,30.73-12.86,30.73-31.28s-12.64-31.15-30.73-31.15H810.75Z"/><path class="cls-1" d="M936.14,100.93A49.79,49.79,0,0,1,885.81,50.6a50.47,50.47,0,0,1,14.65-35.81A49.86,49.86,0,0,1,936.14,0,50.59,50.59,0,0,1,986.6,50.6a50.14,50.14,0,0,1-50.46,50.33Zm0-99.93a48.87,48.87,0,0,0-35,14.5,49.46,49.46,0,0,0-14.36,35.1,49.4,49.4,0,1,0,98.79,0A49.59,49.59,0,0,0,936.14,1Zm0,81.89a32.43,32.43,0,0,1,0-64.85C953.71,18,968.56,33,968.56,50.6A32.39,32.39,0,0,1,936.14,82.89Zm0-63.85A31.43,31.43,0,1,0,967.56,50.6C967.56,33.5,953.17,19,936.14,19Z"/></svg>