<svg xmlns="http://www.w3.org/2000/svg" viewBox="0 0 829.25 100"><defs><style>.cls-1{fill:#fff;}</style></defs><g id="Layer_2" data-name="Layer 2"><g id="Layer_2-2" data-name="Layer 2"><path class="cls-1" d="M42.36,2.39A29.11,29.11,0,0,1,71.64,31.25C71.64,43,64,53.43,51.71,58.38l-1,.42.53,1,19,35.28a1.83,1.83,0,0,1,0,1.81,1.65,1.65,0,0,1-1.51.74H54.17a1.36,1.36,0,0,1-1.33-.7L34.37,60.11l-.28-.55h-17V96a1.73,1.73,0,0,1-1.64,1.64H2.64A1.64,1.64,0,0,1,1,96V4A1.64,1.64,0,0,1,2.64,2.39H42.36M17.2,46.69H40.83c8,0,14.75-6.94,14.75-15.16A14.8,14.8,0,0,0,40.83,17.06H17.2V46.69M42.36,1.39H2.64A2.64,2.64,0,0,0,0,4V96a2.64,2.64,0,0,0,2.64,2.64H15.42A2.73,2.73,0,0,0,18.06,96V60.56H33.47l18.47,36.8a2.39,2.39,0,0,0,2.23,1.25H68.75a2.63,2.63,0,0,0,2.36-4l-19-35.27C64.17,54.44,72.64,44,72.64,31.25A30.08,30.08,0,0,0,42.36,1.39ZM18.2,45.69V18.06H40.83A13.82,13.82,0,0,1,54.58,31.53c0,7.78-6.39,14.16-13.75,14.16Z"/><path class="cls-1" d="M149.94,2.39A1.64,1.64,0,0,1,151.58,4V15.42a1.65,1.65,0,0,1-1.64,1.64H107.83V41.83h35.3a1.72,1.72,0,0,1,1.64,1.64V55a1.64,1.64,0,0,1-1.64,1.64h-35.3v26.3h42.11a1.65,1.65,0,0,1,1.64,1.64V96a1.64,1.64,0,0,1-1.64,1.64H93.41A1.64,1.64,0,0,1,91.77,96V4a1.64,1.64,0,0,1,1.64-1.64h56.53m0-1H93.41A2.64,2.64,0,0,0,90.77,4V96a2.64,2.64,0,0,0,2.64,2.64h56.53A2.64,2.64,0,0,0,152.58,96V84.58a2.64,2.64,0,0,0-2.64-2.64H108.83V57.64h34.3A2.64,2.64,0,0,0,145.77,55V43.47a2.73,2.73,0,0,0-2.64-2.64h-34.3V18.06h41.11a2.64,2.64,0,0,0,2.64-2.64V4a2.64,2.64,0,0,0-2.64-2.64Z"/><path class="cls-1" d="M196,1c14.32,0,25.15,7.58,27.18,9.11l0,0,0,0a2,2,0,0,1,.82,1.32,2.45,2.45,0,0,1-.3,1.85l-5.28,7.92a3.44,3.44,0,0,1-2.56,1.67,1.67,1.67,0,0,1-.94-.29L214,22c-5.56-3.52-11.32-7.15-18.8-7.15-9.14,0-13.23,5.39-13.23,10.73,0,6.78,4.93,11.55,17,16.48,14,5.65,28.4,13.68,28.4,30.46,0,12.85-10.84,26.5-30.94,26.5-17.62,0-26.55-7.69-29.93-10.61-1-.84-1.44-1.15-.46-2.89l5-8.61a2.1,2.1,0,0,1,1.89-1.11,2.23,2.23,0,0,1,1.36.43c6.14,4.65,12.41,8.82,21.57,8.82,7.65,0,13.64-5.14,13.64-11.7,0-7.15-5.46-12.41-18.26-17.59-10.94-4.42-25.49-12.25-25.49-29.07A24.75,24.75,0,0,1,172.8,9.4C178.22,3.9,186.24,1,196,1m0-1c-22.08,0-31.25,14.31-31.25,26.67,0,16.39,13.06,24.72,26.11,30,11.67,4.72,17.64,9.58,17.64,16.66,0,6-5.42,10.7-12.64,10.7-9,0-15.28-4.31-21-8.61a3.2,3.2,0,0,0-2-.64,3.11,3.11,0,0,0-2.76,1.61l-5,8.61c-1.25,2.22-.7,3.06.69,4.17,4,3.47,13.06,10.83,30.56,10.83,19.58,0,31.94-13.19,31.94-27.5,0-17.92-15.55-26-29-31.39-11.25-4.58-16.39-9-16.39-15.55,0-5.28,4.31-9.73,12.23-9.73,7.64,0,13.33,3.89,19.3,7.64a2.64,2.64,0,0,0,1.47.45,4.39,4.39,0,0,0,3.39-2.11l5.28-7.92a3.43,3.43,0,0,0-.83-4.58C221,7.22,210.16,0,196,0Z"/><path class="cls-1" d="M317.9,2.39A1.72,1.72,0,0,1,319.54,4V62.92c0,20.57-16.23,36.08-37.75,36.08A38.38,38.38,0,0,1,255,88.65a35.27,35.27,0,0,1-10.82-25.73V4a1.73,1.73,0,0,1,1.64-1.64H259A1.64,1.64,0,0,1,260.65,4V61.94c0,12.37,8.7,21,21.14,21s21.28-8.57,21.28-20.86V4a1.64,1.64,0,0,1,1.64-1.64H317.9m0-1H304.71A2.64,2.64,0,0,0,302.07,4V62.08c0,11.67-8.19,19.86-20.28,19.86s-20.14-8.19-20.14-20V4A2.63,2.63,0,0,0,259,1.39h-13.2A2.73,2.73,0,0,0,243.18,4V62.92C243.18,84,260,100,281.79,100s38.75-16,38.75-37.08V4a2.73,2.73,0,0,0-2.64-2.64Z"/><path class="cls-1" d="M358.08,2.39A1.73,1.73,0,0,1,359.72,4V82.94h36.42a1.64,1.64,0,0,1,1.63,1.64V96a1.64,1.64,0,0,1-1.63,1.64H345.3A1.64,1.64,0,0,1,343.66,96V4a1.64,1.64,0,0,1,1.64-1.64h12.78m0-1H345.3A2.64,2.64,0,0,0,342.66,4V96a2.64,2.64,0,0,0,2.64,2.64h50.84A2.63,2.63,0,0,0,398.77,96V84.58a2.63,2.63,0,0,0-2.63-2.64H360.72V4a2.73,2.73,0,0,0-2.64-2.64Z"/><path class="cls-1" d="M458,2.39A1.64,1.64,0,0,1,459.62,4V15.42A1.65,1.65,0,0,1,458,17.06H435.73V96a1.73,1.73,0,0,1-1.64,1.64H421.18A1.73,1.73,0,0,1,419.53,96V17.06H397.29a1.64,1.64,0,0,1-1.64-1.64V4a1.64,1.64,0,0,1,1.64-1.64H458m0-1H397.29A2.64,2.64,0,0,0,394.65,4V15.42a2.64,2.64,0,0,0,2.64,2.64h21.24V96a2.74,2.74,0,0,0,2.65,2.64h12.91A2.73,2.73,0,0,0,436.73,96V18.06H458a2.64,2.64,0,0,0,2.64-2.64V4A2.64,2.64,0,0,0,458,1.39Z"/><path class="cls-1" d="M502.7,1a1.37,1.37,0,0,1,1.45.94l42.78,93.48a1.57,1.57,0,0,1,0,1.52,1.63,1.63,0,0,1-1.43.67H533.39c-1.57,0-2.27-.5-3.11-2.19l-6.81-15-.26-.59H480.39l-.27.59-6.82,15a3.2,3.2,0,0,1-3.1,2.15H458.11a1.63,1.63,0,0,1-1.43-.67,1.6,1.6,0,0,1,0-1.52L499.84,2a1.5,1.5,0,0,1,1.47-1h1.39M486.3,66.42h31L516.66,65,502.78,34.45l-.27-.59H500.8l-.26.59L486.92,65l-.62,1.41M502.7,0h-1.39A2.48,2.48,0,0,0,499,1.53L455.75,95a2.45,2.45,0,0,0,2.36,3.61H470.2a4.2,4.2,0,0,0,4-2.78l6.8-15h41.53l6.81,15c1,2,1.94,2.78,4,2.78h12.09A2.45,2.45,0,0,0,547.84,95L505.06,1.53A2.35,2.35,0,0,0,502.7,0ZM487.84,65.42l13.61-30.56h.42l13.88,30.56Z"/><path class="cls-1" d="M594.79,2.39a47.61,47.61,0,1,1,0,95.22H561.87A1.61,1.61,0,0,1,560.38,96V4a1.61,1.61,0,0,1,1.49-1.64h32.92m-18.5,80.28h16.83c19,0,32.25-13.49,32.25-32.81s-13.26-32.67-32.25-32.67H576.29V82.67m18.5-81.28H561.87A2.61,2.61,0,0,0,559.38,4V96a2.61,2.61,0,0,0,2.49,2.64h32.92a48.81,48.81,0,0,0,48.75-48.75c0-26.67-21.94-48.47-48.75-48.47Zm-17.5,80.28V18.19h15.83c18.06,0,31.25,12.78,31.25,31.67s-13.19,31.81-31.25,31.81Z"/><path class="cls-1" d="M704.8,1a48.91,48.91,0,0,1,49,49.14,48.93,48.93,0,1,1-97.86,0,49,49,0,0,1,14.22-34.78A48.43,48.43,0,0,1,704.8,1m0,81.94a32.94,32.94,0,0,0,0-65.88,32.41,32.41,0,0,0-23.18,9.77A32.87,32.87,0,0,0,704.8,82.94M704.8,0a49.79,49.79,0,0,0-49.86,50.14,49.93,49.93,0,0,0,99.86,0A49.91,49.91,0,0,0,704.8,0Zm0,81.94A31.89,31.89,0,0,1,673,50.14c0-17.5,14.31-32.08,31.81-32.08a31.94,31.94,0,1,1,0,63.88Z"/><path class="cls-1" d="M796.89,1c14.32,0,25.15,7.58,27.18,9.11l0,0,0,0a2,2,0,0,1,.82,1.32,2.45,2.45,0,0,1-.3,1.85l-5.28,7.92a3.42,3.42,0,0,1-2.56,1.67,1.62,1.62,0,0,1-.93-.29l-1-.65c-5.56-3.52-11.32-7.15-18.8-7.15-9.14,0-13.23,5.39-13.23,10.73,0,6.78,4.93,11.55,17,16.48,14,5.65,28.4,13.68,28.4,30.46,0,12.85-10.84,26.5-30.94,26.5-17.62,0-26.54-7.69-29.93-10.61-1-.84-1.44-1.15-.46-2.89l5-8.61a2.1,2.1,0,0,1,1.89-1.11,2.23,2.23,0,0,1,1.36.43c6.14,4.65,12.41,8.82,21.57,8.82,7.65,0,13.64-5.14,13.64-11.7,0-7.15-5.46-12.41-18.26-17.59-10.94-4.42-25.49-12.25-25.49-29.07A24.75,24.75,0,0,1,773.7,9.4C779.12,3.9,787.14,1,796.89,1m0-1c-22.08,0-31.25,14.31-31.25,26.67,0,16.39,13.06,24.72,26.11,30,11.67,4.72,17.64,9.58,17.64,16.66,0,6-5.41,10.7-12.64,10.7-9,0-15.28-4.31-21-8.61a3.2,3.2,0,0,0-2-.64,3.11,3.11,0,0,0-2.76,1.61l-5,8.61c-1.25,2.22-.7,3.06.69,4.17,4,3.47,13.06,10.83,30.56,10.83,19.58,0,31.94-13.19,31.94-27.5,0-17.92-15.55-26-29-31.39-11.25-4.58-16.39-9-16.39-15.55,0-5.28,4.31-9.73,12.23-9.73,7.64,0,13.33,3.89,19.3,7.64a2.64,2.64,0,0,0,1.47.45,4.43,4.43,0,0,0,3.4-2.11l5.27-7.92a3.43,3.43,0,0,0-.83-4.58C821.89,7.22,811.06,0,796.89,0Z"/></g></g></svg>