<svg xmlns="http://www.w3.org/2000/svg" viewBox="0 0 986.28 100"><defs><style>.cls-1{fill:#fff;}</style></defs><g id="Layer_2" data-name="Layer 2"><g id="Layer_1-2" data-name="Layer 1"><path class="cls-1" d="M50.14,0c14,0,24.16,4.44,33.61,12.92a2.58,2.58,0,0,1,.14,3.89l-8.47,8.75a2.23,2.23,0,0,1-3.48,0,32.84,32.84,0,0,0-21.38-8.2c-17.78,0-31,14.86-31,32.36S32.92,81.81,50.69,81.81a33.33,33.33,0,0,0,21.25-7.92,2.57,2.57,0,0,1,3.48,0L84,82.78a2.65,2.65,0,0,1-.14,3.75A47.71,47.71,0,0,1,50.14,100a50,50,0,1,1,0-100Z"/><path class="cls-1" d="M143.06,0a50,50,0,1,1,0,100A49.55,49.55,0,0,1,93.2,50.14,49.79,49.79,0,0,1,143.06,0Zm0,81.94a31.94,31.94,0,1,0,0-63.88c-17.5,0-31.81,14.58-31.81,32.08A31.89,31.89,0,0,0,143.06,81.94Z"/><path class="cls-1" d="M208.62,2.5A2.61,2.61,0,0,1,211.26,0h2.08a3.05,3.05,0,0,1,2.36,1l56.67,60.42h.27V4a2.64,2.64,0,0,1,2.64-2.64h12.78A2.73,2.73,0,0,1,290.7,4V97.5a2.61,2.61,0,0,1-2.64,2.5h-1.94a3,3,0,0,1-2.36-1L226.81,36.25h-.28V96a2.63,2.63,0,0,1-2.63,2.64H211.26A2.73,2.73,0,0,1,208.62,96Z"/><path class="cls-1" d="M307.93,89.17c-1.39-1.11-1.95-2-.7-4.17l5-8.61a3.21,3.21,0,0,1,4.72-1c5.7,4.3,11.95,8.61,21,8.61,7.23,0,12.64-4.72,12.64-10.7,0-7.08-6-11.94-17.64-16.66-13.05-5.28-26.11-13.61-26.11-30C306.81,14.31,316,0,338.06,0c14.17,0,25,7.22,27.78,9.31a3.42,3.42,0,0,1,.83,4.58l-5.27,7.92c-1.11,1.66-3.2,2.77-4.86,1.66-6-3.75-11.67-7.64-19.31-7.64-7.92,0-12.22,4.45-12.22,9.73,0,6.52,5.14,11,16.39,15.55,13.47,5.42,29,13.47,29,31.39,0,14.31-12.37,27.5-31.95,27.5C321,100,312,92.64,307.93,89.17Z"/><path class="cls-1" d="M429.46,0a50,50,0,1,1,0,100,49.56,49.56,0,0,1-49.87-49.86A49.8,49.8,0,0,1,429.46,0Zm0,81.94a31.94,31.94,0,1,0,0-63.88c-17.5,0-31.81,14.58-31.81,32.08A31.89,31.89,0,0,0,429.46,81.94Z"/><path class="cls-1" d="M495,4a2.64,2.64,0,0,1,2.64-2.64h12.78A2.73,2.73,0,0,1,513.07,4V81.94h35.42a2.64,2.64,0,0,1,2.64,2.64V96a2.64,2.64,0,0,1-2.64,2.64H497.65A2.64,2.64,0,0,1,495,96Z"/><path class="cls-1" d="M562.79,4a2.73,2.73,0,0,1,2.64-2.64h12.92A2.73,2.73,0,0,1,581,4V96a2.73,2.73,0,0,1-2.64,2.64H565.43A2.73,2.73,0,0,1,562.79,96Z"/><path class="cls-1" d="M602.24,4a2.61,2.61,0,0,1,2.5-2.64h32.92c26.8,0,48.75,21.8,48.75,48.47a48.81,48.81,0,0,1-48.75,48.75H604.74a2.61,2.61,0,0,1-2.5-2.64ZM636,81.67c18,0,31.25-12.78,31.25-31.81S654,18.2,636,18.2H620.16V81.67Z"/><path class="cls-1" d="M690.44,95,733.63,1.53A2.49,2.49,0,0,1,736,0h1.39a2.35,2.35,0,0,1,2.36,1.53L782.52,95a2.45,2.45,0,0,1-2.36,3.61H768.07c-2.08,0-3.05-.83-4-2.78l-6.81-15H715.71l-6.8,15a4.2,4.2,0,0,1-4,2.78H692.8A2.45,2.45,0,0,1,690.44,95Zm60-29.58L736.55,34.86h-.42L722.52,65.42Z"/><path class="cls-1" d="M792.38,4a2.62,2.62,0,0,1,2.51-2.64H827.8c26.81,0,48.75,21.8,48.75,48.47A48.81,48.81,0,0,1,827.8,98.61H794.89A2.62,2.62,0,0,1,792.38,96Zm33.76,77.64c18.05,0,31.24-12.78,31.24-31.81S844.19,18.2,826.14,18.2H810.3V81.67Z"/><path class="cls-1" d="M936.28,0a50,50,0,1,1,0,100,49.56,49.56,0,0,1-49.87-49.86A49.8,49.8,0,0,1,936.28,0Zm0,81.94a31.94,31.94,0,1,0,0-63.88c-17.5,0-31.81,14.58-31.81,32.08A31.89,31.89,0,0,0,936.28,81.94Z"/></g></g></svg>