<svg id="Layer_1" data-name="Layer 1" xmlns="http://www.w3.org/2000/svg" viewBox="0 0 513.76 132.06"><defs><style>.cls-1{fill:#fff;}</style></defs><path class="cls-1" d="M56.06,132.06h-2.5a3,3,0,0,1-2.8-1.8L26.56,76.54l-7.9,51.62a3.19,3.19,0,0,1-3,2.51H3.18a3.16,3.16,0,0,1-2.46-1,3.32,3.32,0,0,1-.67-2.74L16.57,33.63a2.81,2.81,0,0,1,3-2.5h2.22a3.07,3.07,0,0,1,2.81,1.66l30.29,65,30.29-65A2.91,2.91,0,0,1,88,31.13H90.2a2.83,2.83,0,0,1,3,2.52l16.37,93.24a3.17,3.17,0,0,1-.51,2.72,3.1,3.1,0,0,1-2.48,1.06H94a3.51,3.51,0,0,1-3.12-2.44l-8-51.68-23.9,53.68A2.87,2.87,0,0,1,56.06,132.06ZM25.79,75H27l24.7,54.84a2,2,0,0,0,1.9,1.23h2.5A1.85,1.85,0,0,0,58,129.87L82.39,75h1.16l.07.42L91.81,128A2.51,2.51,0,0,0,94,129.67h12.63a2.1,2.1,0,0,0,1.7-.69,2.2,2.2,0,0,0,.31-1.9L92.21,33.8a1.86,1.86,0,0,0-2-1.67H88a1.91,1.91,0,0,0-1.91,1.11L55.41,99H54.35L23.68,33.22a2,2,0,0,0-1.9-1.09H19.56a1.84,1.84,0,0,0-2,1.64v0L1,127.06A2.33,2.33,0,0,0,1.48,129a2.16,2.16,0,0,0,1.7.67H15.67a2.2,2.2,0,0,0,2-1.65Z"/><path class="cls-1" d="M184.17,130.67H127.68a3.14,3.14,0,0,1-3.13-3.14V35.65a3.14,3.14,0,0,1,3.13-3.14h56.49a3.15,3.15,0,0,1,3.14,3.14V47a3.15,3.15,0,0,1-3.14,3.14H143.59V71.93h33.78a3.23,3.23,0,0,1,3.14,3.14V86.59a3.15,3.15,0,0,1-3.14,3.14H143.59V113h40.58a3.15,3.15,0,0,1,3.14,3.14v11.38A3.15,3.15,0,0,1,184.17,130.67ZM127.68,33.51a2.13,2.13,0,0,0-2.13,2.14v91.88a2.13,2.13,0,0,0,2.13,2.14h56.49a2.14,2.14,0,0,0,2.14-2.14V116.15a2.14,2.14,0,0,0-2.14-2.14H142.59V88.73h34.78a2.14,2.14,0,0,0,2.14-2.14V75.07a2.22,2.22,0,0,0-2.14-2.14H142.59V49.17h41.58A2.14,2.14,0,0,0,186.31,47V35.65a2.14,2.14,0,0,0-2.14-2.14Zm17.83-8.41C144,25.1,142.43,24,141.4,22s-1.17-4.84.15-5.78h0L165,.68a4.44,4.44,0,0,1,3.65-.5,7.62,7.62,0,0,1,4.57,4,9,9,0,0,1,1,6.63,3.68,3.68,0,0,1-1.93,2.23l-25.68,11.8A2.57,2.57,0,0,1,145.51,25.1Zm-3.39-8c-.67.49-.73,2.7.17,4.5s2.71,3,3.92,2.4l25.68-11.79a2.7,2.7,0,0,0,1.4-1.65,8,8,0,0,0-.94-5.86,6.63,6.63,0,0,0-3.94-3.5,3.43,3.43,0,0,0-2.84.36Z"/><path class="cls-1" d="M271.34,130.67h-15a3.31,3.31,0,0,1-2.81-1.53l-19.68-31.5-19.28,31.54a3.59,3.59,0,0,1-2.79,1.49h-15a3.35,3.35,0,0,1-3.07-1.59,3,3,0,0,1,.15-3.06l28.7-45.67L195,37.17a3,3,0,0,1-.15-3.1,3.27,3.27,0,0,1,2.94-1.56h16.1A3.23,3.23,0,0,1,216.5,34l17.36,29.22L251.62,34a3.05,3.05,0,0,1,2.64-1.49h16.1a3.27,3.27,0,0,1,2.94,1.56,3,3,0,0,1-.15,3.09L245.42,80.35,274.12,126a3.1,3.1,0,0,1,.14,3.17A3.23,3.23,0,0,1,271.34,130.67Zm-38-34h1.12l.14.23,19.85,31.79a2.33,2.33,0,0,0,1.94,1h15a2.28,2.28,0,0,0,2.06-1,2.13,2.13,0,0,0-.14-2.15l-29-46.19L272.3,36.63a2,2,0,0,0,.13-2.07,2.25,2.25,0,0,0-2.07-1.05h-16.1a2.05,2.05,0,0,0-1.77,1l-18.07,29.7H233.3L215.67,34.52a2.23,2.23,0,0,0-1.79-1h-16.1a2.25,2.25,0,0,0-2.07,1.05,2,2,0,0,0,.13,2.08l27.93,43.7-29,46.21a2,2,0,0,0-.13,2,2.39,2.39,0,0,0,2.2,1.08h15a2.54,2.54,0,0,0,2-1Z"/><path class="cls-1" d="M302.15,130.67H289.24a3.22,3.22,0,0,1-3.13-3.14V35.65a3.22,3.22,0,0,1,3.13-3.14h12.91a3.23,3.23,0,0,1,3.14,3.14v91.88A3.23,3.23,0,0,1,302.15,130.67ZM289.24,33.51a2.22,2.22,0,0,0-2.13,2.14v91.88a2.22,2.22,0,0,0,2.13,2.14h12.91a2.22,2.22,0,0,0,2.14-2.14V35.65a2.22,2.22,0,0,0-2.14-2.14Z"/><path class="cls-1" d="M370.44,132.06a50.47,50.47,0,0,1-35.82-14.65,49.93,49.93,0,0,1-14.79-35.68,50.67,50.67,0,0,1,50.61-50.6c13.41,0,23.87,4,33.92,13a3.17,3.17,0,0,1,1.12,2.29,3.13,3.13,0,0,1-1,2.32l-8.46,8.74a2.76,2.76,0,0,1-2,1,3.09,3.09,0,0,1-2.22-1,32.35,32.35,0,0,0-21-8c-17.07,0-30.45,14-30.45,31.83s13.44,31.57,30.59,31.57c7.49,0,14.53-2.63,20.93-7.8a3,3,0,0,1,4.13,0l8.61,8.89a2.6,2.6,0,0,1,.86,1.91,3.49,3.49,0,0,1-1,2.54A48,48,0,0,1,370.44,132.06Zm0-99.93a49.66,49.66,0,0,0-49.61,49.6,48.88,48.88,0,0,0,14.5,35,49.48,49.48,0,0,0,35.11,14.36,47,47,0,0,0,33.38-13.32,2.54,2.54,0,0,0,.7-1.79,1.64,1.64,0,0,0-.55-1.23l-8.63-8.91a2.05,2.05,0,0,0-2.78,0c-6.59,5.34-13.84,8-21.57,8-17.71,0-31.59-14.31-31.59-32.57,0-18.41,13.82-32.83,31.45-32.83a33.36,33.36,0,0,1,21.71,8.31,2.13,2.13,0,0,0,1.51.71,1.79,1.79,0,0,0,1.25-.66l8.49-8.77a2.16,2.16,0,0,0,.67-1.59,2.2,2.2,0,0,0-.79-1.57C393.84,36.07,383.58,32.13,370.44,32.13Z"/><path class="cls-1" d="M463.29,132.06A49.79,49.79,0,0,1,413,81.73a50.47,50.47,0,0,1,14.65-35.81,49.85,49.85,0,0,1,35.67-14.79,50.59,50.59,0,0,1,50.47,50.6,50.14,50.14,0,0,1-50.47,50.33Zm0-99.93a48.85,48.85,0,0,0-35,14.49A49.48,49.48,0,0,0,414,81.73a49.4,49.4,0,1,0,98.79,0A49.59,49.59,0,0,0,463.29,32.13Zm0,81.88a32.42,32.42,0,1,1,32.43-32.28A32.32,32.32,0,0,1,463.29,114Zm0-63.84a31.42,31.42,0,1,0,31.43,31.56C494.72,64.62,480.33,50.17,463.29,50.17Z"/></svg>