<?xml version="1.0" encoding="utf-8"?>
<!-- Generator: Adobe Illustrator 25.4.1, SVG Export Plug-In . SVG Version: 6.00 Build 0)  -->
<svg version="1.1" id="Capa_1" xmlns="http://www.w3.org/2000/svg" xmlns:xlink="http://www.w3.org/1999/xlink" x="0px" y="0px"
	 viewBox="0 0 271.9 113.4" style="enable-background:new 0 0 271.9 113.4;" xml:space="preserve">
<style type="text/css">
	.st0{fill:#007DC3;}
	.st1{fill:#FFB71B;}
</style>
<g>
	<path class="st0" d="M9.7,95.6c2.2,0,4.3,0.9,6,2.3c0.2,0.2,0.2,0.5,0,0.7l-1.5,1.6c-0.2,0.2-0.4,0.2-0.6,0
		c-1.1-0.9-2.4-1.4-3.7-1.4c-3.1,0-5.5,2.6-5.5,5.7c0,3.1,2.4,5.6,5.5,5.6c1.4,0,2.4-0.4,2.9-0.6v-2.1h-2c-0.3,0-0.5-0.2-0.5-0.4
		v-1.9c0-0.3,0.2-0.5,0.5-0.5h4.7c0.2,0,0.4,0.2,0.4,0.5v6.3c0,0.2-0.1,0.3-0.2,0.4c0,0-2.5,1.6-6.1,1.6c-4.9,0-8.8-3.9-8.8-8.8
		S4.8,95.6,9.7,95.6z"/>
	<path class="st0" d="M27.4,95.6c4.9,0,8.9,4,8.9,8.9s-3.9,8.8-8.9,8.8c-4.9,0-8.8-3.9-8.8-8.8S22.4,95.6,27.4,95.6z M27.4,110.2
		c3.1,0,5.7-2.5,5.7-5.6c0-3.1-2.6-5.7-5.7-5.7s-5.6,2.6-5.6,5.7C21.7,107.6,24.3,110.2,27.4,110.2z"/>
	<path class="st0" d="M39.4,96.4c0-0.2,0.2-0.5,0.5-0.5h2.3c0.2,0,0.5,0.2,0.5,0.5v16.3c0,0.2-0.2,0.5-0.5,0.5h-2.3
		c-0.2,0-0.5-0.2-0.5-0.5V96.4z"/>
	<path class="st0" d="M46.8,96.1c0-0.2,0.2-0.4,0.5-0.4h0.4c0.2,0,0.3,0,0.4,0.2l10,10.7h0V96.4c0-0.2,0.2-0.5,0.5-0.5h2.3
		c0.2,0,0.5,0.2,0.5,0.5v16.6c0,0.2-0.2,0.4-0.5,0.4h-0.3c-0.2,0-0.3,0-0.4-0.2L50,102.1h0v10.6c0,0.2-0.2,0.5-0.5,0.5h-2.2
		c-0.2,0-0.5-0.2-0.5-0.5V96.1z"/>
	<path class="st0" d="M73.4,95.6c2.2,0,4.3,0.9,6,2.3c0.2,0.2,0.2,0.5,0,0.7l-1.5,1.6c-0.2,0.2-0.4,0.2-0.6,0
		c-1.1-0.9-2.4-1.4-3.7-1.4c-3.1,0-5.5,2.6-5.5,5.7c0,3.1,2.4,5.6,5.5,5.6c1.4,0,2.4-0.4,2.9-0.6v-2.1h-2c-0.3,0-0.5-0.2-0.5-0.4
		v-1.9c0-0.3,0.2-0.5,0.5-0.5h4.7c0.2,0,0.4,0.2,0.4,0.5v6.3c0,0.2-0.1,0.3-0.2,0.4c0,0-2.5,1.6-6.1,1.6c-4.9,0-8.8-3.9-8.8-8.8
		S68.5,95.6,73.4,95.6z"/>
	<path class="st0" d="M97.9,104.4c1.4,0.5,3,1.6,3,4c0,2.8-2.4,4.8-5.4,4.8h-6c-0.3,0-0.5-0.2-0.5-0.5V96.4c0-0.2,0.2-0.5,0.5-0.5
		h5.6c2.9,0,5.2,2,5.2,4.6c0,1.8-1.2,3.2-2.5,3.8V104.4z M95,103.1c1.3,0,2.1-1,2.1-2.2s-0.8-2.1-2.1-2.1h-2.7v4.3H95z M95.3,110.2
		c1.2,0,2.2-1,2.2-2.2c0-1.2-0.9-2.1-2.2-2.1h-3v4.4H95.3z"/>
	<path class="st0" d="M104.3,96.4c0-0.2,0.2-0.5,0.5-0.5h10c0.3,0,0.5,0.2,0.5,0.5v2c0,0.2-0.2,0.5-0.5,0.5h-7.3v4h6.1
		c0.2,0,0.5,0.2,0.5,0.5v2c0,0.3-0.2,0.5-0.5,0.5h-6.1v4.3h7.3c0.3,0,0.5,0.2,0.5,0.5v2c0,0.2-0.2,0.5-0.5,0.5h-10
		c-0.3,0-0.5-0.2-0.5-0.5V96.4z"/>
	<path class="st0" d="M122,104.8l-5.6-8.2c-0.2-0.3,0-0.7,0.4-0.7h2.5c0.2,0,0.3,0.1,0.4,0.2l3.9,5.7l3.9-5.7
		c0.1-0.1,0.2-0.2,0.4-0.2h2.5c0.4,0,0.6,0.4,0.4,0.7l-5.7,8.2v7.9c0,0.2-0.2,0.5-0.5,0.5h-2.3c-0.3,0-0.5-0.2-0.5-0.5V104.8z"/>
	<path class="st0" d="M140.1,95.6c4.9,0,8.9,4,8.9,8.9s-3.9,8.8-8.9,8.8c-4.9,0-8.8-3.9-8.8-8.8S135.2,95.6,140.1,95.6z
		 M140.1,110.2c3.1,0,5.7-2.5,5.7-5.6c0-3.1-2.6-5.7-5.7-5.7c-3.1,0-5.6,2.6-5.6,5.7C134.5,107.6,137,110.2,140.1,110.2z"/>
	<path class="st0" d="M152.2,96.1c0-0.2,0.2-0.4,0.5-0.4h0.4c0.2,0,0.3,0,0.4,0.2l10,10.7h0V96.4c0-0.2,0.2-0.5,0.5-0.5h2.3
		c0.2,0,0.5,0.2,0.5,0.5v16.6c0,0.2-0.2,0.4-0.5,0.4h-0.3c-0.2,0-0.3,0-0.4-0.2l-10.1-11.1h0v10.6c0,0.2-0.2,0.5-0.5,0.5h-2.2
		c-0.2,0-0.5-0.2-0.5-0.5V96.1z"/>
	<path class="st0" d="M170.9,96.4c0-0.2,0.2-0.5,0.4-0.5h5.8c4.8,0,8.6,3.9,8.6,8.6c0,4.8-3.9,8.6-8.6,8.6h-5.8
		c-0.2,0-0.4-0.2-0.4-0.5V96.4z M176.9,110.1c3.2,0,5.5-2.3,5.5-5.6c0-3.3-2.3-5.6-5.5-5.6h-2.8v11.2H176.9z"/>
	<path class="st0" d="M194.9,96.4c0-0.2,0.2-0.5,0.5-0.5h7c3,0,5.4,2.4,5.4,5.3c0,2.3-1.5,4.1-3.6,5l3.4,6.3c0.2,0.3,0,0.7-0.4,0.7
		h-2.6c-0.2,0-0.3-0.1-0.4-0.2l-3.3-6.5h-2.7v6.3c0,0.2-0.2,0.5-0.5,0.5h-2.3c-0.3,0-0.5-0.2-0.5-0.5V96.4z M202.1,103.7
		c1.3,0,2.4-1.1,2.4-2.5c0-1.3-1.1-2.4-2.4-2.4h-4v4.9H202.1z"/>
	<path class="st0" d="M211.1,96.4c0-0.2,0.2-0.5,0.5-0.5h10c0.3,0,0.5,0.2,0.5,0.5v2c0,0.2-0.2,0.5-0.5,0.5h-7.3v4h6.1
		c0.2,0,0.5,0.2,0.5,0.5v2c0,0.3-0.2,0.5-0.5,0.5h-6.1v4.3h7.3c0.3,0,0.5,0.2,0.5,0.5v2c0,0.2-0.2,0.5-0.5,0.5h-10
		c-0.3,0-0.5-0.2-0.5-0.5V96.4z"/>
	<path class="st0" d="M228.1,98.8h-3.8c-0.3,0-0.5-0.2-0.5-0.5v-2c0-0.2,0.2-0.5,0.5-0.5h10.8c0.3,0,0.5,0.2,0.5,0.5v2
		c0,0.2-0.2,0.5-0.5,0.5h-3.8v13.8c0,0.2-0.2,0.5-0.5,0.5h-2.3c-0.2,0-0.5-0.2-0.5-0.5V98.8z"/>
	<path class="st0" d="M235.2,112.5l7.7-16.6c0.1-0.1,0.2-0.3,0.4-0.3h0.2c0.2,0,0.3,0.1,0.4,0.3l7.6,16.6c0.1,0.3,0,0.6-0.4,0.6
		h-2.1c-0.4,0-0.5-0.1-0.7-0.5L247,110h-7.4l-1.2,2.7c-0.1,0.2-0.3,0.5-0.7,0.5h-2.1C235.2,113.1,235,112.8,235.2,112.5z
		 M245.8,107.2l-2.5-5.4h-0.1l-2.4,5.4H245.8z"/>
	<path class="st0" d="M253.6,96.4c0-0.2,0.2-0.5,0.5-0.5h2.3c0.2,0,0.5,0.2,0.5,0.5v16.3c0,0.2-0.2,0.5-0.5,0.5h-2.3
		c-0.2,0-0.5-0.2-0.5-0.5V96.4z"/>
	<path class="st0" d="M261,96.4c0-0.2,0.2-0.5,0.5-0.5h2.3c0.2,0,0.5,0.2,0.5,0.5v13.8h6.3c0.3,0,0.5,0.2,0.5,0.5v2
		c0,0.2-0.2,0.5-0.5,0.5h-9c-0.3,0-0.5-0.2-0.5-0.5V96.4z"/>
</g>
<path class="st1" d="M34.3,26c1.8,0,3.3-0.9,3.5-2.2l1.8-20.2c0-2-2.3-3.6-5.3-3.6s-5.3,1.6-5.3,3.6l1.8,20.2
	C31.1,25,32.6,26,34.3,26L34.3,26z"/>
<path class="st1" d="M23.4,32.3c0.9-1.6,0.8-3.3-0.1-4.1L6.7,16.5c-1.7-1-4.3,0.2-5.8,2.8s-1.2,5.4,0.5,6.4l18.4,8.5
	C21,34.6,22.6,33.8,23.4,32.3L23.4,32.3z"/>
<path class="st1" d="M45.3,32.3c0.9,1.6,2.5,2.4,3.6,2l18.4-8.5c1.7-1,2-3.8,0.5-6.4s-4.1-3.7-5.8-2.8L45.4,28.2
	C44.5,29,44.4,30.7,45.3,32.3L45.3,32.3z"/>
<path class="st1" d="M45.3,44.9c0.9-1.6,2.5-2.4,3.6-2l18.4,8.5c1.7,1,2,3.8,0.5,6.4s-4.1,3.7-5.8,2.7L45.4,49
	C44.5,48.2,44.4,46.4,45.3,44.9L45.3,44.9z"/>
<path class="st1" d="M23.4,44.9c0.9,1.6,0.8,3.3-0.1,4.1L6.7,60.6c-1.7,1-4.3-0.2-5.8-2.7s-1.2-5.4,0.5-6.4l18.4-8.5
	C21,42.5,22.6,43.3,23.4,44.9L23.4,44.9z"/>
<path class="st1" d="M34.3,51.2c1.8,0,3.3,0.9,3.5,2.2l1.8,20.2c0,2-2.3,3.6-5.3,3.6s-5.3-1.6-5.3-3.6l1.8-20.2
	C31.1,52.1,32.6,51.2,34.3,51.2L34.3,51.2z"/>
<path class="st1" d="M42.5,73c0.8-0.1,1.6,0.5,1.7,1.3s-0.5,1.6-1.3,1.7c-0.1,0-0.2,0-0.3,0c-0.8,0.1-1.6-0.5-1.7-1.3
	s0.5-1.6,1.3-1.7C42.2,73,42.4,73,42.5,73z M42.5,73.4c-0.6,0-1.1,0.5-1.1,1.2c0,0,0,0,0,0c0,0.6,0.5,1.1,1.1,1.1c0,0,0,0,0,0
	c0.6,0,1.1-0.5,1.1-1.1c0,0,0,0,0-0.1C43.6,73.9,43.1,73.4,42.5,73.4C42.5,73.4,42.5,73.4,42.5,73.4L42.5,73.4z M42.3,75.3h-0.4
	v-1.4c0.2,0,0.4,0,0.6-0.1c0.2,0,0.4,0,0.5,0.1c0.1,0.1,0.2,0.2,0.2,0.3c0,0.2-0.1,0.3-0.3,0.3l0,0c0.2,0.1,0.3,0.2,0.3,0.4
	c0,0.1,0.1,0.2,0.1,0.3h-0.4c-0.1-0.1-0.1-0.2-0.1-0.3c0-0.1-0.1-0.2-0.2-0.2c0,0,0,0,0,0h-0.2L42.3,75.3z M42.3,74.5h0.1
	c0.2,0,0.3-0.1,0.3-0.2s-0.1-0.2-0.3-0.2h-0.2V74.5z"/>
</svg>
