<svg xmlns="http://www.w3.org/2000/svg" viewBox="0 0 150 165"><defs><style>.cls-1{fill:#7ac143;}.cls-2{fill:#fff;}</style></defs><g id="Layer_2" data-name="Layer 2"><g id="Layer_1-2" data-name="Layer 1"><rect class="cls-1" width="150" height="165"/><circle class="cls-2" cx="75" cy="57.6" r="38.5"/><path class="cls-2" d="M47.84,127.33l3.93-8.81a.16.16,0,0,1,.15-.09h0a.17.17,0,0,1,.16.09L56,127.33c0,.07,0,.15-.12.15h-.33a.21.21,0,0,1-.18-.11l-1-2.35H49.48l-1,2.35a.21.21,0,0,1-.18.11h-.36C47.84,127.48,47.8,127.43,47.84,127.33Zm6.3-2.81L52,119.45h0l-2.22,5.07Z"/><path class="cls-2" d="M57.26,121.75c0-.14.05-.21.17-.21s.36.24.36.65v.14a2.42,2.42,0,0,1,1.93-.86,1.94,1.94,0,0,1,1.82,1,2.61,2.61,0,0,1,2.06-1c1.61,0,2.13,1.08,2.13,2.59v3.23a.18.18,0,0,1-.19.19h-.22c-.09,0-.15-.06-.15-.19v-3.23c0-1.36-.51-2-1.62-2a2.27,2.27,0,0,0-1.82,1,3.46,3.46,0,0,1,.12,1v3.23a.21.21,0,0,1-.2.19h-.19c-.11,0-.17-.06-.17-.19v-3.23c0-1.36-.53-2-1.64-2a2.12,2.12,0,0,0-1.83,1v4.27a.17.17,0,0,1-.19.19h-.2a.17.17,0,0,1-.17-.19Z"/><path class="cls-2" d="M70.36,127.62a2.88,2.88,0,0,1-2-.83v.09c0,.41-.19.65-.37.65s-.17-.06-.17-.2v-8.58a.21.21,0,0,1,.18-.19h.19a.18.18,0,0,1,.19.19V122a3.24,3.24,0,0,1,1.86-.57A2.9,2.9,0,0,1,73,124.54,2.86,2.86,0,0,1,70.36,127.62ZM70.12,122a2.84,2.84,0,0,0-1.79.67v3.4a2.48,2.48,0,0,0,2,1,2.35,2.35,0,0,0,2.15-2.53A2.42,2.42,0,0,0,70.12,122Z"/><path class="cls-2" d="M74.48,119.48A.5.5,0,0,1,75,119a.49.49,0,0,1,.49.5A.48.48,0,0,1,75,120,.49.49,0,0,1,74.48,119.48Zm.24,2.3a.19.19,0,0,1,.19-.19h.18a.2.2,0,0,1,.19.19v5.51a.17.17,0,0,1-.19.19h-.2a.17.17,0,0,1-.17-.19Z"/><path class="cls-2" d="M79.8,121.47a2.58,2.58,0,0,1,2.64,2.67c0,.23,0,.58-.22.58h-4.7a2.33,2.33,0,0,0,2.28,2.35,3.21,3.21,0,0,0,1.81-.58c.13-.08.19-.09.26,0l.14.21s0,.16-.07.23a3.76,3.76,0,0,1-2.14.69,3.08,3.08,0,0,1,0-6.15Zm2.08,2.72A2,2,0,0,0,79.8,122a2.24,2.24,0,0,0-2.26,2.18Z"/><path class="cls-2" d="M84.09,121.75c0-.14,0-.21.16-.21s.37.24.37.65v.16a2.79,2.79,0,0,1,2-.88c1.67,0,2.22,1,2.22,2.57v3.25a.2.2,0,0,1-.19.19h-.18a.2.2,0,0,1-.19-.19v-3.23c0-1.36-.55-2-1.68-2a2.66,2.66,0,0,0-2,1v4.27a.17.17,0,0,1-.19.19h-.21c-.11,0-.16-.09-.16-.19Z"/><path class="cls-2" d="M90.33,122.14c-.15,0-.19-.08-.19-.19v-.2c0-.12.08-.16.19-.16h.72V120c0-.12.08-.18.2-.19l.16,0a.19.19,0,0,1,.2.2v1.61h2.07a.2.2,0,0,1,.21.19V122a.19.19,0,0,1-.21.19H91.61v3.75c0,.76.25,1.18,1,1.18a2.19,2.19,0,0,0,1.15-.41.15.15,0,0,1,.23.06l.1.17a.16.16,0,0,1,0,.23,2.66,2.66,0,0,1-1.44.5c-1.2,0-1.55-.78-1.55-1.73v-3.75Z"/><path class="cls-2" d="M97.47,123.68A5.27,5.27,0,0,1,99,124c0-1.18-.3-2-1.56-2a4.23,4.23,0,0,0-1.52.39.15.15,0,0,1-.23-.09l-.07-.17c-.06-.12,0-.18.08-.22a3.89,3.89,0,0,1,1.79-.43c1.77,0,2.08,1.16,2.08,2.56v3.3c0,.14-.06.2-.17.2s-.37-.24-.37-.65v-.09h0a3.06,3.06,0,0,1-2.07.84,1.83,1.83,0,0,1-1.91-2C95,124.54,95.93,123.68,97.47,123.68ZM97,127.07a2.77,2.77,0,0,0,2-.89v-1.69a4,4,0,0,0-1.51-.31c-1.12,0-1.9.61-1.9,1.48A1.37,1.37,0,0,0,97,127.07Z"/><path class="cls-2" d="M101.61,118.75a.19.19,0,0,1,.19-.19H102a.2.2,0,0,1,.19.19v8.54a.17.17,0,0,1-.19.19h-.2a.17.17,0,0,1-.17-.19Z"/><path class="cls-1" d="M68.29,73.44a.52.52,0,0,1-.38-.16.53.53,0,0,1,0-.75l1.68-1.7-6.44-6.49L61.47,66a.53.53,0,0,1-.75-.75l2.05-2.07a.55.55,0,0,1,.38-.16h0a.55.55,0,0,1,.38.16l.26.27h0l2.65-2.67a4.7,4.7,0,0,1,1.93-1.17l1.27-1.92a3.09,3.09,0,0,1,2.58-1.39h1.49l.63-.64a3.08,3.08,0,0,1,2.19-.91H77a9.76,9.76,0,0,1,.51-3.49,5.08,5.08,0,0,1,0-5.07c-1.29-1.59-4.58-1.71-6.9-1.39a15.21,15.21,0,0,1,.63,1.8,7.29,7.29,0,0,0,1.49,3.13,4.22,4.22,0,0,0,2.71,1.39.55.55,0,0,1,.53.54.54.54,0,0,1-.53.53A5.28,5.28,0,0,1,72,50.5a8.2,8.2,0,0,1-1.76-3.57,8.49,8.49,0,0,0-.88-2.21.55.55,0,0,1,0-.5.52.52,0,0,1,.38-.31c2.32-.47,6.63-.65,8.55,1.5a5.65,5.65,0,0,1,.51-.39,11.78,11.78,0,0,1,5.3-1.6c1.3-.16,2.41-.3,2.77-.84a.53.53,0,0,1,.6-.22.54.54,0,0,1,.37.51,11.89,11.89,0,0,1-3.34,7.84,5.54,5.54,0,0,1-4.43,1.49.53.53,0,1,1,.11-1.05,4.55,4.55,0,0,0,3.61-1.23A10.73,10.73,0,0,0,86.67,44a10.56,10.56,0,0,1-2.46.5,10.7,10.7,0,0,0-4.84,1.42A3.41,3.41,0,0,0,78.14,50a15.21,15.21,0,0,1,5.29-4.51.54.54,0,0,1,.73.19.55.55,0,0,1-.19.73c-5.55,3.26-5.88,5.56-5.9,8.33h1.48a3,3,0,0,1,2.19.91l1.82,1.84a.53.53,0,0,1,0,.75.53.53,0,0,1-.75,0L81,56.43a2,2,0,0,0-1.44-.6h-3a2,2,0,0,0-1.44.6l-.79.8a.51.51,0,0,1-.37.15H72.23a2,2,0,0,0-1.69.92l-.75,1.13H76.6a2.67,2.67,0,0,1,2.6,2.07h1.87l2.3-.83,1.43-1.31a3.1,3.1,0,0,1,4.17.09,1.58,1.58,0,0,1,.47,1.09,1.5,1.5,0,0,1-.47,1.1L85.7,64.88l-.09.07-5.44,3.37A4.59,4.59,0,0,1,76.9,69l-4.84-.75L70.27,70l.45.46a.54.54,0,0,1,0,.75l-2.06,2.07A.54.54,0,0,1,68.29,73.44Zm-3.75-9.21,5,5,2-1.91A.56.56,0,0,1,72,67.2l5.11.79a3.51,3.51,0,0,0,2.52-.56L85,64.08l3.23-3.19a.47.47,0,0,0,.14-.33.44.44,0,0,0-.14-.33,2,2,0,0,0-2.72-.06L84,61.53a.49.49,0,0,1-.18.11l-2.49.9a1.35,1.35,0,0,1-.18,0h-2a1.59,1.59,0,0,1-1.38,1.11l-5.89.44a.53.53,0,0,1-.09-1.06l5.9-.44a.5.5,0,0,0,.46-.51,1.6,1.6,0,0,0-1.6-1.61H69.74a3.56,3.56,0,0,0-2.53,1l-2.65,2.67Z"/></g></g></svg>