<svg xmlns="http://www.w3.org/2000/svg" viewBox="0 0 150 165"><defs><style>.cls-1{fill:#fdb71a;}.cls-2{fill:#fff;}</style></defs><g id="Layer_2" data-name="Layer 2"><g id="Layer_1-2" data-name="Layer 1"><rect class="cls-1" width="150" height="165"/><circle class="cls-2" cx="75" cy="57.6" r="38.5"/><path class="cls-2" d="M62.65,121.17a.17.17,0,0,1,.17-.16h5.1a.17.17,0,0,1,.17.16v.22a.17.17,0,0,1-.17.16H63.26v3.52h4a.18.18,0,0,1,.17.17v.21a.18.18,0,0,1-.17.17h-4v3.77h4.66a.18.18,0,0,1,.17.17v.2a.18.18,0,0,1-.17.17h-5.1a.18.18,0,0,1-.17-.17ZM64.42,120a.18.18,0,0,1-.25-.09.2.2,0,0,1,.09-.28l2-1.11a.26.26,0,0,1,.37.13c.09.18.07.34-.11.42Z"/><path class="cls-2" d="M69,124.59c-.16,0-.19-.08-.19-.19v-.21c0-.11.07-.15.19-.15h.71v-1.61c0-.11.09-.17.2-.19h.17a.19.19,0,0,1,.19.19V124h2.08a.19.19,0,0,1,.2.19v.17a.18.18,0,0,1-.2.19H70.27v3.74c0,.77.26,1.19,1,1.19a2.18,2.18,0,0,0,1.14-.41c.13-.08.2,0,.23,0l.11.18a.17.17,0,0,1-.05.23,2.69,2.69,0,0,1-1.44.5c-1.2,0-1.56-.78-1.56-1.74v-3.74Z"/><path class="cls-2" d="M73.83,121.92a.5.5,0,0,1,.51-.49.48.48,0,0,1,.49.49.48.48,0,0,1-.49.49A.5.5,0,0,1,73.83,121.92Zm.24,2.31a.19.19,0,0,1,.19-.19h.18a.2.2,0,0,1,.19.19v5.5c0,.13-.06.2-.19.2h-.21c-.11,0-.16-.09-.16-.2Z"/><path class="cls-2" d="M79.32,123.91a2.84,2.84,0,0,1,2.17.91.18.18,0,0,1,0,.26l-.1.11c-.11.11-.22.07-.32,0a2.56,2.56,0,0,0-1.73-.7,2.53,2.53,0,0,0,0,5.06,2.48,2.48,0,0,0,1.86-.91.17.17,0,0,1,.28,0l.12.1c.07.08.09.16,0,.23a3,3,0,0,1-2.31,1.14,3.08,3.08,0,0,1,0-6.16Z"/><path class="cls-2" d="M85.27,126.13a5.36,5.36,0,0,1,1.52.27c0-1.19-.31-2-1.57-2a4,4,0,0,0-1.52.4.15.15,0,0,1-.22-.09l-.08-.18a.16.16,0,0,1,.09-.22,4,4,0,0,1,1.78-.43c1.77,0,2.08,1.16,2.08,2.56v3.3c0,.14,0,.21-.17.21s-.37-.25-.37-.65v-.11a3,3,0,0,1-2.06.85,1.83,1.83,0,0,1-1.91-1.95C82.83,127,83.73,126.13,85.27,126.13Zm-.47,3.39a2.84,2.84,0,0,0,2-.89v-1.7a4.08,4.08,0,0,0-1.52-.3c-1.12,0-1.9.61-1.9,1.47A1.37,1.37,0,0,0,84.8,129.52Z"/><path class="cls-1" d="M72.77,53.48c.15,0,.45.14.6.14l5.93,5.94c.15.15.15.3.15.59v2.67l.74.74,6.38-6.38-.74-.74H83.16c-.15,0-.45-.15-.59-.15l-5.94-5.93c0-.15-.15-.44-.15-.59V47.1l-.74-.75-6.38,6.38.74.75Zm-3,7.71h0l-6.38,6.38,1.93,1.93,6.38-6.38ZM65.36,71.28c-.15,0-.45-.15-.6-.15l-3-3a.71.71,0,0,1,0-1l7.41-7.41a1.14,1.14,0,0,1,.6-.3c.15,0,.44.15.59.15l.89.89L74.7,57,72.48,55H69.81c-.15,0-.45-.15-.6-.15l-1.48-1.48c0-.15-.15-.45-.15-.6s.15-.44.15-.59l7.42-7.42a.73.73,0,0,1,1,0l1.48,1.49a1.08,1.08,0,0,1,.3.59v2.67L83.46,55h2.67c.14,0,.44.15.59.15l1.48,1.48a.71.71,0,0,1,0,1l-7.41,7.42c-.15.15-.3.15-.6.15-.15,0-.44-.15-.59-.15l-1.48-1.49C78,63.42,78,63.27,78,63V60.3l-2.23-2.23-3.41,3.42.89.89c.15.15.15.29.15.59s-.15.45-.15.59L65.8,71c0,.15-.3.3-.44.3"/></g></g></svg>