<svg xmlns="http://www.w3.org/2000/svg" viewBox="0 0 150 165"><defs><style>.cls-1{fill:#f47b20;}.cls-2{fill:#fff;}</style></defs><g id="Layer_2" data-name="Layer 2"><g id="Layer_1-2" data-name="Layer 1"><rect class="cls-1" width="150" height="165"/><circle class="cls-2" cx="75" cy="57.6" r="38.5"/><path class="cls-2" d="M48.07,118.6a.18.18,0,0,1,.17-.17H51a2.88,2.88,0,0,1,0,5.75H48.67v3c0,.09-.08.16-.2.16h-.23a.17.17,0,0,1-.17-.16Zm2.88,5a2.27,2.27,0,0,0,2.31-2.32A2.22,2.22,0,0,0,50.94,119H48.67v4.56Z"/><path class="cls-2" d="M55.31,121.62c0-.14,0-.21.16-.21s.37.25.37.65v.13a2.44,2.44,0,0,1,1.85-.85,3,3,0,0,1,.92.16.21.21,0,0,1,.15.27l-.07.23c0,.12-.14.13-.25.08a1.68,1.68,0,0,0-.79-.19,2.14,2.14,0,0,0-1.78,1v4.27a.17.17,0,0,1-.19.19h-.21c-.11,0-.16-.09-.16-.19Z"/><path class="cls-2" d="M59.83,119.35a.5.5,0,0,1,.51-.5.5.5,0,0,1,.5.5.48.48,0,0,1-.5.48A.49.49,0,0,1,59.83,119.35Zm.25,2.31a.18.18,0,0,1,.19-.19h.18a.21.21,0,0,1,.19.19v5.5a.17.17,0,0,1-.19.19h-.21c-.11,0-.16-.09-.16-.19Z"/><path class="cls-2" d="M62,121.68c-.06-.11,0-.21.08-.21h.29c.08,0,.14,0,.19.14l2.15,5h0l2.19-5a.19.19,0,0,1,.19-.14h.3c.12,0,.15.1.07.21l-2.55,5.67c0,.09-.1.14-.17.14H64.7c-.07,0-.13,0-.18-.14Z"/><path class="cls-2" d="M70.77,123.56a5.37,5.37,0,0,1,1.51.26c0-1.18-.3-2-1.56-2a4,4,0,0,0-1.52.4.15.15,0,0,1-.23-.09l-.08-.18c0-.12,0-.18.09-.22a4,4,0,0,1,1.79-.43c1.77,0,2.07,1.16,2.07,2.56v3.3c0,.14,0,.2-.16.2s-.37-.24-.37-.65v-.09h0a3.06,3.06,0,0,1-2.07.84,1.83,1.83,0,0,1-1.91-1.95C68.32,124.41,69.23,123.56,70.77,123.56Zm-.47,3.38a2.77,2.77,0,0,0,2-.89v-1.69a4,4,0,0,0-1.51-.31c-1.12,0-1.9.61-1.9,1.48A1.37,1.37,0,0,0,70.3,126.94Z"/><path class="cls-2" d="M77.54,121.34a2.83,2.83,0,0,1,2.16.9.19.19,0,0,1,0,.27l-.1.1c-.12.12-.22.08-.32,0a2.55,2.55,0,1,0,.14,3.45.17.17,0,0,1,.28,0l.11.1a.17.17,0,0,1,0,.23,2.92,2.92,0,0,1-2.3,1.13,3.08,3.08,0,0,1,0-6.15Z"/><path class="cls-2" d="M81.09,119.35a.5.5,0,0,1,.51-.5.5.5,0,0,1,.5.5.48.48,0,0,1-.5.48A.49.49,0,0,1,81.09,119.35Zm.24,2.31a.19.19,0,0,1,.19-.19h.18a.2.2,0,0,1,.19.19v5.5a.17.17,0,0,1-.19.19h-.2a.17.17,0,0,1-.17-.19Z"/><path class="cls-2" d="M86.42,121.34a3.24,3.24,0,0,1,1.86.57v-3.29a.18.18,0,0,1,.19-.19h.19a.2.2,0,0,1,.18.19v8.58c0,.14,0,.2-.17.2s-.37-.24-.37-.65v-.09a2.88,2.88,0,0,1-2,.83,2.85,2.85,0,0,1-2.67-3.08A2.89,2.89,0,0,1,86.42,121.34Zm-.13,5.6a2.46,2.46,0,0,0,2-1v-3.4a2.86,2.86,0,0,0-1.79-.66,2.41,2.41,0,0,0-2.35,2.52A2.35,2.35,0,0,0,86.29,126.94Z"/><path class="cls-2" d="M92.91,123.56a5.37,5.37,0,0,1,1.51.26c0-1.18-.3-2-1.57-2a3.89,3.89,0,0,0-1.51.4.15.15,0,0,1-.23-.09L91,122c0-.12,0-.18.09-.22a4,4,0,0,1,1.79-.43c1.77,0,2.07,1.16,2.07,2.56v3.3c0,.14,0,.2-.16.2s-.37-.24-.37-.65v-.09h0a3,3,0,0,1-2.06.84,1.83,1.83,0,0,1-1.91-1.95C90.46,124.41,91.36,123.56,92.91,123.56Zm-.48,3.38a2.78,2.78,0,0,0,2-.89v-1.69a4,4,0,0,0-1.51-.31c-1.13,0-1.9.61-1.9,1.48A1.36,1.36,0,0,0,92.43,126.94Z"/><path class="cls-2" d="M99.51,121.34a3.24,3.24,0,0,1,1.86.57v-3.29a.18.18,0,0,1,.19-.19h.19a.2.2,0,0,1,.18.19v8.58c0,.14-.05.2-.17.2s-.37-.24-.37-.65v-.09a2.88,2.88,0,0,1-2,.83,2.85,2.85,0,0,1-2.67-3.08A2.89,2.89,0,0,1,99.51,121.34Zm-.13,5.6a2.46,2.46,0,0,0,2-1v-3.4a2.86,2.86,0,0,0-1.79-.66,2.41,2.41,0,0,0-2.35,2.52A2.35,2.35,0,0,0,99.38,126.94Z"/><path class="cls-1" d="M88.49,51.93h-27a.41.41,0,0,1-.42-.41.42.42,0,0,1,.42-.42h27a.42.42,0,0,1,.42.42A.41.41,0,0,1,88.49,51.93Zm0-2.16h-27a.41.41,0,1,1,0-.82h27a.41.41,0,1,1,0,.82Zm-11,17.68a2,2,0,1,1,1.94-2A2,2,0,0,1,77.48,67.45Zm0-3.25a1.22,1.22,0,1,0,1.12,1.21A1.16,1.16,0,0,0,77.48,64.2Zm4-2.59h-.83V60a3.16,3.16,0,1,0-6.3,0v1.62h-.82V60a4,4,0,1,1,7.95,0Zm-2,0H78.6V60a1.12,1.12,0,1,0-2.23,0v1.62h-.82V60a1.94,1.94,0,1,1,3.87,0Zm2.73,9.65h-9.6A1.55,1.55,0,0,1,71,69.72V63a2.08,2.08,0,0,1,2.1-2.06h8.53A2.08,2.08,0,0,1,83.71,63v6.76A1.55,1.55,0,0,1,82.15,71.26ZM73.08,61.9A1.08,1.08,0,0,0,72,63v6.76a.55.55,0,0,0,.57.54h9.6a.55.55,0,0,0,.56-.54V63a1.08,1.08,0,0,0-1.1-1.06Zm13.65,3.51H85.56a.5.5,0,0,1,0-1h1.17A1.26,1.26,0,0,0,88,63.16V46.77a1.27,1.27,0,0,0-1.27-1.26H63.27A1.27,1.27,0,0,0,62,46.77V63.16a1.26,1.26,0,0,0,1.27,1.25h5.86a.5.5,0,0,1,0,1H63.27A2.26,2.26,0,0,1,61,63.16V46.77a2.27,2.27,0,0,1,2.27-2.26H86.73A2.27,2.27,0,0,1,89,46.77V63.16A2.26,2.26,0,0,1,86.73,65.41Z"/></g></g></svg>