<svg xmlns="http://www.w3.org/2000/svg" viewBox="0 0 150 165"><defs><style>.cls-1{fill:#6caddf;}.cls-2{fill:#fff;}</style></defs><g id="Layer_2" data-name="Layer 2"><g id="Layer_1-2" data-name="Layer 1"><rect class="cls-1" width="150" height="165"/><circle class="cls-2" cx="75" cy="57.6" r="38.5"/><path class="cls-2" d="M32.75,127.33l3.92-8.81a.19.19,0,0,1,.15-.09h0a.18.18,0,0,1,.17.09l3.88,8.81c0,.07,0,.15-.11.15h-.33a.2.2,0,0,1-.18-.11l-1-2.35H34.39l-1,2.35a.21.21,0,0,1-.18.11h-.35C32.75,127.48,32.71,127.43,32.75,127.33ZM39,124.52l-2.18-5.07h0l-2.22,5.07Z"/><path class="cls-2" d="M44.76,127.62a2.88,2.88,0,0,1-2-.83v.09c0,.41-.19.65-.37.65s-.16-.06-.16-.2v-8.58a.2.2,0,0,1,.18-.19h.19a.18.18,0,0,1,.19.19V122a3.2,3.2,0,0,1,1.86-.57,2.89,2.89,0,0,1,2.84,3.07A2.86,2.86,0,0,1,44.76,127.62ZM44.52,122a2.8,2.8,0,0,0-1.78.67v3.4a2.43,2.43,0,0,0,2,1,2.36,2.36,0,0,0,2.16-2.53A2.42,2.42,0,0,0,44.52,122Z"/><path class="cls-2" d="M51.12,123.68a5.28,5.28,0,0,1,1.52.27c0-1.18-.31-2-1.57-2a4.15,4.15,0,0,0-1.51.39.15.15,0,0,1-.23-.09l-.08-.17c0-.12,0-.18.09-.22a3.87,3.87,0,0,1,1.78-.43c1.77,0,2.08,1.16,2.08,2.56v3.3c0,.14-.05.2-.17.2s-.36-.24-.36-.65v-.09h0a3,3,0,0,1-2.06.84,1.83,1.83,0,0,1-1.91-2C48.68,124.54,49.58,123.68,51.12,123.68Zm-.47,3.39a2.8,2.8,0,0,0,2-.89v-1.69a4,4,0,0,0-1.52-.31c-1.12,0-1.9.61-1.9,1.48A1.37,1.37,0,0,0,50.65,127.07Z"/><path class="cls-2" d="M54.81,126.75l.11-.2a.18.18,0,0,1,.27,0,2.65,2.65,0,0,0,1.6.58c.9,0,1.47-.44,1.47-1.06s-.71-1-1.71-1.36-1.76-.78-1.76-1.71c0-.64.54-1.5,1.89-1.5a3.26,3.26,0,0,1,1.66.44.21.21,0,0,1,.07.27l-.07.14c-.05.1-.16.1-.26.05a3.32,3.32,0,0,0-1.4-.38c-.93,0-1.32.52-1.32,1s.58.9,1.45,1.22c1.09.41,2,.74,2,1.86,0,.89-.84,1.58-2,1.58a3.06,3.06,0,0,1-1.92-.65A.17.17,0,0,1,54.81,126.75Z"/><path class="cls-2" d="M60,122.14c-.15,0-.19-.08-.19-.19v-.2c0-.12.08-.16.19-.16h.72V120c0-.12.08-.18.2-.19l.16,0a.19.19,0,0,1,.2.2v1.61h2.07a.2.2,0,0,1,.21.19V122a.19.19,0,0,1-.21.19H61.26v3.75c0,.76.25,1.18,1,1.18a2.19,2.19,0,0,0,1.15-.41.15.15,0,0,1,.23.06l.1.17a.16.16,0,0,1-.05.23,2.66,2.66,0,0,1-1.44.5c-1.2,0-1.55-.78-1.55-1.73v-3.75Z"/><path class="cls-2" d="M67.36,121.47A2.58,2.58,0,0,1,70,124.14c0,.23,0,.58-.22.58h-4.7a2.32,2.32,0,0,0,2.28,2.35,3.24,3.24,0,0,0,1.81-.58c.13-.08.19-.09.25,0l.14.21s0,.16-.06.23a3.76,3.76,0,0,1-2.14.69,3.08,3.08,0,0,1,0-6.15Zm2.08,2.72A2.05,2.05,0,0,0,67.36,122a2.25,2.25,0,0,0-2.27,2.18Z"/><path class="cls-2" d="M74.32,121.47a2.83,2.83,0,0,1,2.16.9.18.18,0,0,1,0,.27l-.1.1c-.12.12-.22.08-.32,0a2.56,2.56,0,0,0-1.73-.7,2.53,2.53,0,0,0,0,5.06,2.48,2.48,0,0,0,1.86-.9.17.17,0,0,1,.28,0l.12.11a.17.17,0,0,1,0,.23,3,3,0,0,1-2.3,1.13,3.08,3.08,0,0,1,0-6.15Z"/><path class="cls-2" d="M77.89,119.48a.5.5,0,0,1,.51-.5.49.49,0,0,1,.49.5.48.48,0,0,1-.49.48A.49.49,0,0,1,77.89,119.48Zm.24,2.3a.19.19,0,0,1,.19-.19h.18a.2.2,0,0,1,.19.19v5.51a.17.17,0,0,1-.19.19h-.2a.17.17,0,0,1-.17-.19Z"/><path class="cls-2" d="M80.74,121.75c0-.14.05-.21.17-.21s.37.24.37.65v.14a2.4,2.4,0,0,1,1.92-.86,1.92,1.92,0,0,1,1.82,1,2.63,2.63,0,0,1,2.07-1c1.6,0,2.12,1.08,2.12,2.59v3.23a.18.18,0,0,1-.19.19h-.21c-.09,0-.16-.06-.16-.19v-3.23c0-1.36-.51-2-1.61-2a2.3,2.3,0,0,0-1.83,1,3.46,3.46,0,0,1,.12,1v3.23a.2.2,0,0,1-.19.19H85c-.12,0-.18-.06-.18-.19v-3.23c0-1.36-.52-2-1.63-2a2.14,2.14,0,0,0-1.84,1v4.27a.17.17,0,0,1-.19.19h-.2a.17.17,0,0,1-.17-.19Z"/><path class="cls-2" d="M91,119.48a.5.5,0,0,1,.51-.5.5.5,0,0,1,.5.5.48.48,0,0,1-.5.48A.49.49,0,0,1,91,119.48Zm.24,2.3a.19.19,0,0,1,.2-.19h.17a.2.2,0,0,1,.19.19v5.51a.17.17,0,0,1-.19.19h-.2a.17.17,0,0,1-.17-.19Z"/><path class="cls-2" d="M96.33,121.47A2.58,2.58,0,0,1,99,124.14c0,.23,0,.58-.22.58h-4.7a2.32,2.32,0,0,0,2.28,2.35,3.24,3.24,0,0,0,1.81-.58c.12-.08.19-.09.25,0l.14.21s0,.16-.06.23a3.76,3.76,0,0,1-2.14.69,3.08,3.08,0,0,1,0-6.15Zm2.08,2.72A2.05,2.05,0,0,0,96.33,122a2.25,2.25,0,0,0-2.27,2.18Z"/><path class="cls-2" d="M100.61,121.75c0-.14,0-.21.17-.21s.37.24.37.65v.16a2.77,2.77,0,0,1,2-.88c1.67,0,2.22,1,2.22,2.57v3.25a.2.2,0,0,1-.2.19H105a.2.2,0,0,1-.19-.19v-3.23c0-1.36-.54-2-1.68-2a2.66,2.66,0,0,0-2,1v4.27a.17.17,0,0,1-.19.19h-.2a.17.17,0,0,1-.17-.19Z"/><path class="cls-2" d="M106.86,122.14c-.16,0-.19-.08-.19-.19v-.2c0-.12.07-.16.19-.16h.71V120a.19.19,0,0,1,.2-.19l.17,0a.19.19,0,0,1,.19.2v1.61h2.08a.19.19,0,0,1,.2.19V122a.19.19,0,0,1-.2.19h-2.08v3.75c0,.76.25,1.18,1,1.18a2.18,2.18,0,0,0,1.14-.41.15.15,0,0,1,.23.06l.1.17a.15.15,0,0,1,0,.23,2.66,2.66,0,0,1-1.44.5c-1.19,0-1.55-.78-1.55-1.73v-3.75Z"/><path class="cls-2" d="M114.31,121.47a3.08,3.08,0,1,1-3,3A3,3,0,0,1,114.31,121.47Zm0,5.6a2.53,2.53,0,1,0-2.39-2.55A2.45,2.45,0,0,0,114.31,127.07Z"/><path class="cls-2" d="M42.2,134a.16.16,0,0,1,.17-.16h3.16a2.73,2.73,0,0,1,2.84,2.68,2.82,2.82,0,0,1-2.1,2.7l1.86,3.3c.06.11,0,.23-.09.23h-.33c-.16,0-.21,0-.27-.15l-1.82-3.3H42.8v3.28c0,.09-.07.16-.2.16h-.23a.17.17,0,0,1-.17-.16Zm3.3,4.73a2.22,2.22,0,0,0,2.26-2.21,2.17,2.17,0,0,0-2.27-2.1H42.81v4.31Z"/><path class="cls-2" d="M52.44,136.76a2.58,2.58,0,0,1,2.63,2.68c0,.23,0,.57-.21.57h-4.7a2.32,2.32,0,0,0,2.28,2.36,3.26,3.26,0,0,0,1.81-.59c.12-.08.19-.09.25,0l.14.22c0,.05,0,.15-.06.23a3.79,3.79,0,0,1-2.14.68,3.08,3.08,0,0,1,0-6.15Zm2.07,2.73a2,2,0,0,0-2.07-2.18,2.24,2.24,0,0,0-2.27,2.18Z"/><path class="cls-2" d="M56.34,142.05l.11-.21a.17.17,0,0,1,.27,0,2.66,2.66,0,0,0,1.6.57c.9,0,1.47-.43,1.47-1.06s-.71-1-1.71-1.36-1.76-.78-1.76-1.71c0-.63.54-1.5,1.89-1.5a3.25,3.25,0,0,1,1.66.45.19.19,0,0,1,.07.26l-.07.14c-.06.11-.16.11-.26,0a3.48,3.48,0,0,0-1.4-.38c-.93,0-1.33.53-1.33,1,0,.59.59.91,1.46,1.22,1.09.41,2,.74,2,1.86,0,.9-.84,1.58-2,1.58a3,3,0,0,1-1.92-.65A.16.16,0,0,1,56.34,142.05Z"/><path class="cls-2" d="M62.44,145.61a.21.21,0,0,1-.2.2h-.17a.19.19,0,0,1-.19-.2V137c0-.14,0-.2.17-.2s.34.21.37.58a3.21,3.21,0,0,1,2-.66,2.86,2.86,0,0,1,2.79,3.06,3,3,0,0,1-2.93,3.09,2.84,2.84,0,0,1-1.79-.61Zm0-4a2.72,2.72,0,0,0,1.77.72,2.39,2.39,0,0,0,2.38-2.56,2.32,2.32,0,0,0-2.25-2.5,2.6,2.6,0,0,0-1.9.78Z"/><path class="cls-2" d="M71.46,136.76a3.08,3.08,0,0,1,0,6.15,3.08,3.08,0,0,1,0-6.15Zm0,5.61a2.53,2.53,0,1,0-2.39-2.55A2.45,2.45,0,0,0,71.46,142.37Z"/><path class="cls-2" d="M76.13,137c0-.14.05-.2.17-.2s.37.24.37.65v.15a2.79,2.79,0,0,1,2-.88c1.67,0,2.21,1,2.21,2.57v3.25a.19.19,0,0,1-.19.19h-.18a.19.19,0,0,1-.19-.19v-3.22c0-1.36-.54-2.05-1.68-2.05a2.7,2.7,0,0,0-2,1v4.27a.17.17,0,0,1-.19.19h-.2c-.12,0-.17-.08-.17-.19Z"/><path class="cls-2" d="M82.51,142.05l.12-.21c.05-.09.16-.1.27,0a2.63,2.63,0,0,0,1.6.57c.89,0,1.47-.43,1.47-1.06s-.72-1-1.71-1.36-1.76-.78-1.76-1.71c0-.63.54-1.5,1.89-1.5a3.2,3.2,0,0,1,1.65.45.2.2,0,0,1,.08.26l-.08.14c-.05.11-.15.11-.25,0a3.48,3.48,0,0,0-1.4-.38c-.93,0-1.33.53-1.33,1,0,.59.59.91,1.45,1.22,1.1.41,2,.74,2,1.86,0,.9-.84,1.58-2,1.58a3,3,0,0,1-1.92-.65C82.51,142.21,82.46,142.14,82.51,142.05Z"/><path class="cls-2" d="M90.19,139a5.37,5.37,0,0,1,1.51.26c0-1.18-.3-2-1.56-2a3.9,3.9,0,0,0-1.52.4.15.15,0,0,1-.23-.09l-.08-.18a.17.17,0,0,1,.09-.22,4,4,0,0,1,1.79-.43c1.77,0,2.07,1.16,2.07,2.56v3.3c0,.14-.05.2-.16.2s-.37-.24-.37-.64v-.11a3.06,3.06,0,0,1-2.07.84A1.83,1.83,0,0,1,87.74,141C87.74,139.83,88.64,139,90.19,139Zm-.48,3.39a2.78,2.78,0,0,0,2-.9v-1.69a4,4,0,0,0-1.51-.31c-1.12,0-1.9.62-1.9,1.48A1.37,1.37,0,0,0,89.71,142.37Z"/><path class="cls-2" d="M96.89,142.91a2.93,2.93,0,0,1-2-.82v.09c0,.4-.19.64-.37.64s-.17-.06-.17-.2v-8.57a.2.2,0,0,1,.18-.19h.19a.17.17,0,0,1,.19.19v3.28a3.24,3.24,0,0,1,1.86-.57,2.9,2.9,0,0,1,2.84,3.07A2.85,2.85,0,0,1,96.89,142.91Zm-.24-5.6a2.86,2.86,0,0,0-1.79.66v3.4a2.43,2.43,0,0,0,2,1A2.36,2.36,0,0,0,99,139.83,2.41,2.41,0,0,0,96.65,137.31Z"/><path class="cls-2" d="M101.34,134.05a.18.18,0,0,1,.19-.19h.18a.2.2,0,0,1,.19.19v8.53a.17.17,0,0,1-.19.19h-.21c-.11,0-.16-.08-.16-.19Z"/><path class="cls-2" d="M106.49,136.76a2.58,2.58,0,0,1,2.63,2.68c0,.23,0,.57-.21.57h-4.7a2.32,2.32,0,0,0,2.28,2.36,3.26,3.26,0,0,0,1.81-.59c.12-.08.19-.09.25,0l.14.22c0,.05,0,.15-.06.23a3.79,3.79,0,0,1-2.14.68,3.08,3.08,0,0,1,0-6.15Zm2.07,2.73a2,2,0,0,0-2.07-2.18,2.24,2.24,0,0,0-2.27,2.18Z"/><path class="cls-1" d="M90.26,64.72H59.74a.5.5,0,0,1-.5-.5V49.12a.5.5,0,0,1,.5-.5H81.12a.5.5,0,0,1,.5.5V52.8h5.62a.49.49,0,0,1,.42.24l3,4.86a.5.5,0,0,1,.08.26v6.06A.5.5,0,0,1,90.26,64.72Zm-8.64-1h8.14V58.31L87,53.8H81.62Zm-21.38,0H80.62V62.33H60.24Zm0-2.39H80.62V49.62H60.24Zm27-2.67h-3.1a.5.5,0,0,1-.5-.5v-3a.5.5,0,0,1,.5-.5H86a.51.51,0,0,1,.42.22l1.2,1.79a.47.47,0,0,1,.09.28v1.19A.5.5,0,0,1,87.24,58.66Zm-2.6-1h2.1v-.54l-1-1.44H84.64Z"/><path class="cls-1" d="M65.77,67.16a2.79,2.79,0,1,1,2.79-2.79A2.79,2.79,0,0,1,65.77,67.16Zm0-4.58a1.79,1.79,0,1,0,1.79,1.79A1.79,1.79,0,0,0,65.77,62.58Z"/><path class="cls-1" d="M83.62,67.16a2.79,2.79,0,1,1,2.79-2.79A2.79,2.79,0,0,1,83.62,67.16Zm0-4.58a1.79,1.79,0,1,0,1.79,1.79A1.79,1.79,0,0,0,83.62,62.58Z"/></g></g></svg>