<svg xmlns="http://www.w3.org/2000/svg" viewBox="0 0 150 165"><defs><style>.cls-1{fill:#007dc3;}.cls-2{fill:#fff;}</style></defs><g id="Layer_2" data-name="Layer 2"><g id="Layer_1-2" data-name="Layer 1"><rect class="cls-1" width="150" height="165"/><circle class="cls-2" cx="75" cy="57.6" r="38.5"/><path class="cls-2" d="M29.3,118.43a4.39,4.39,0,0,1,3.1,1.19.16.16,0,0,1,0,.23l-.2.21c-.08.08-.14.07-.22,0a4,4,0,1,0-2.69,7A4,4,0,0,0,32,126c.08-.06.15-.07.21,0l.21.21a.14.14,0,0,1,0,.22,4.39,4.39,0,0,1-3.11,1.24,4.59,4.59,0,1,1,0-9.18Z"/><path class="cls-2" d="M36.58,121.47a3.08,3.08,0,1,1-3,3A3,3,0,0,1,36.58,121.47Zm0,5.6a2.53,2.53,0,1,0-2.39-2.55A2.45,2.45,0,0,0,36.58,127.07Z"/><path class="cls-2" d="M41.25,121.75c0-.14,0-.21.16-.21s.37.24.37.65v.14a2.4,2.4,0,0,1,1.93-.86,1.94,1.94,0,0,1,1.82,1,2.61,2.61,0,0,1,2.06-1c1.61,0,2.13,1.08,2.13,2.59v3.23a.19.19,0,0,1-.19.19h-.22c-.09,0-.15-.06-.15-.19v-3.23c0-1.36-.51-2-1.62-2a2.25,2.25,0,0,0-1.82,1,3.47,3.47,0,0,1,.11,1v3.23a.2.2,0,0,1-.19.19h-.19a.17.17,0,0,1-.18-.19v-3.23c0-1.36-.52-2-1.63-2a2.1,2.1,0,0,0-1.83,1v4.27a.17.17,0,0,1-.19.19h-.21c-.11,0-.16-.09-.16-.19Z"/><path class="cls-2" d="M54.24,121.47a2.58,2.58,0,0,1,2.64,2.67c0,.23,0,.58-.21.58H52a2.33,2.33,0,0,0,2.28,2.35,3.21,3.21,0,0,0,1.81-.58c.13-.08.2-.09.26,0l.14.21s0,.16-.06.23a3.8,3.8,0,0,1-2.15.69,3.08,3.08,0,0,1,0-6.15Zm2.08,2.72A2,2,0,0,0,54.24,122,2.24,2.24,0,0,0,52,124.19Z"/><path class="cls-2" d="M58.54,121.75c0-.14.05-.21.17-.21s.37.24.37.65v.13a2.39,2.39,0,0,1,1.84-.85,2.62,2.62,0,0,1,.92.16.2.2,0,0,1,.15.27l-.07.23c0,.11-.14.13-.25.08a1.63,1.63,0,0,0-.78-.2,2.15,2.15,0,0,0-1.79,1v4.27a.17.17,0,0,1-.19.19h-.2a.17.17,0,0,1-.17-.19Z"/><path class="cls-2" d="M65.7,121.47a2.86,2.86,0,0,1,2.17.9.19.19,0,0,1,0,.27l-.11.1c-.11.12-.21.08-.31,0a2.6,2.6,0,0,0-1.74-.7,2.53,2.53,0,1,0,1.88,4.16.17.17,0,0,1,.28,0l.11.11a.16.16,0,0,1,0,.23,3,3,0,0,1-2.31,1.13,3.08,3.08,0,0,1,0-6.15Z"/><path class="cls-2" d="M69.27,119.48a.5.5,0,0,1,.51-.5.5.5,0,0,1,.5.5.48.48,0,0,1-.5.48A.49.49,0,0,1,69.27,119.48Zm.24,2.3a.19.19,0,0,1,.19-.19h.18a.21.21,0,0,1,.2.19v5.51c0,.13-.07.19-.2.19h-.2a.17.17,0,0,1-.17-.19Z"/><path class="cls-2" d="M74.69,121.47a3.08,3.08,0,1,1-3,3A3,3,0,0,1,74.69,121.47Zm0,5.6a2.53,2.53,0,1,0-2.4-2.55A2.44,2.44,0,0,0,74.69,127.07Z"/><path class="cls-2" d="M82.62,118.73a.17.17,0,0,1,.16-.17h5.11a.18.18,0,0,1,.17.17v.21a.18.18,0,0,1-.17.17H83.23v3.52h4a.16.16,0,0,1,.16.16V123a.16.16,0,0,1-.16.16h-4v3.77h4.66a.18.18,0,0,1,.17.17v.2a.18.18,0,0,1-.17.17H82.78a.17.17,0,0,1-.16-.17Z"/><path class="cls-2" d="M91.45,124.46l-2-2.66a.12.12,0,0,1,.1-.21h.29a.32.32,0,0,1,.23.14l1.75,2.36h0l1.79-2.36a.24.24,0,0,1,.21-.14h.31c.13,0,.18.11.08.21l-2,2.65,2.13,2.83c.09.1,0,.2-.09.2h-.3a.28.28,0,0,1-.23-.13l-1.86-2.56h0l-1.88,2.56a.26.26,0,0,1-.21.13h-.32c-.11,0-.16-.1-.09-.2Z"/><path class="cls-2" d="M95.56,122.14c-.15,0-.19-.08-.19-.19v-.2c0-.12.08-.16.19-.16h.72V120a.19.19,0,0,1,.2-.19l.17,0a.19.19,0,0,1,.19.2v1.61h2.07a.2.2,0,0,1,.21.19V122a.19.19,0,0,1-.21.19H96.84v3.75c0,.76.25,1.18,1,1.18a2.19,2.19,0,0,0,1.15-.41.15.15,0,0,1,.23.06l.1.17a.16.16,0,0,1,0,.23,2.66,2.66,0,0,1-1.44.5c-1.2,0-1.55-.78-1.55-1.73v-3.75Z"/><path class="cls-2" d="M102.94,121.47a2.58,2.58,0,0,1,2.64,2.67c0,.23,0,.58-.22.58h-4.7a2.33,2.33,0,0,0,2.28,2.35,3.21,3.21,0,0,0,1.81-.58c.13-.08.19-.09.26,0l.14.21s0,.16-.07.23a3.76,3.76,0,0,1-2.14.69,3.08,3.08,0,0,1,0-6.15Zm2.08,2.72a2,2,0,0,0-2.08-2.18,2.26,2.26,0,0,0-2.27,2.18Z"/><path class="cls-2" d="M107.24,121.75c0-.14.05-.21.16-.21s.37.24.37.65v.13a2.42,2.42,0,0,1,1.85-.85,2.73,2.73,0,0,1,.92.16.21.21,0,0,1,.15.27l-.08.23c0,.11-.14.13-.24.08a1.64,1.64,0,0,0-.79-.2,2.14,2.14,0,0,0-1.78,1v4.27a.17.17,0,0,1-.19.19h-.21c-.11,0-.16-.09-.16-.19Z"/><path class="cls-2" d="M111.76,119.48a.5.5,0,0,1,.51-.5.5.5,0,0,1,.5.5.48.48,0,0,1-.5.48A.49.49,0,0,1,111.76,119.48Zm.24,2.3a.19.19,0,0,1,.2-.19h.17a.21.21,0,0,1,.2.19v5.51c0,.13-.07.19-.2.19h-.2a.17.17,0,0,1-.17-.19Z"/><path class="cls-2" d="M117.18,121.47a3.08,3.08,0,1,1-3,3A3,3,0,0,1,117.18,121.47Zm0,5.6a2.53,2.53,0,1,0-2.4-2.55A2.45,2.45,0,0,0,117.18,127.07Z"/><path class="cls-2" d="M121.84,121.75c0-.14,0-.21.17-.21s.37.24.37.65v.13a2.4,2.4,0,0,1,1.85-.85,2.6,2.6,0,0,1,.91.16.22.22,0,0,1,.16.27l-.08.23a.16.16,0,0,1-.24.08,1.68,1.68,0,0,0-.79-.2,2.15,2.15,0,0,0-1.79,1v4.27a.17.17,0,0,1-.19.19H122a.17.17,0,0,1-.17-.19Z"/><polygon class="cls-1" points="57.39 52.56 66.31 48.13 66.31 47.57 57.17 52.12 57.17 53.01 62.52 55.63 63.08 55.35 57.39 52.56"/><polygon class="cls-1" points="86.33 55.32 86.41 55.27 83.78 54.06 83.78 54.07 86.33 55.32"/><polygon class="cls-1" points="86.54 61.72 86.54 68.48 74.88 74.27 63.22 68.48 63.22 61.58 62.72 61.33 62.72 68.48 63 68.93 74.66 74.72 74.88 74.58 75.1 74.72 86.76 68.93 87.04 68.48 87.04 61.47 86.54 61.72"/><polygon class="cls-1" points="63.6 55.24 66.31 53.91 66.31 53.35 63.22 54.86 58.52 52.56 66.31 48.69 66.31 48.13 57.39 52.56 63.08 55.35 63.45 55.16 63.6 55.24"/><polygon class="cls-1" points="74.38 61.56 74.38 73.47 63.72 68.17 63.72 61.83 63.22 61.58 63.22 68.48 74.88 74.27 74.88 61.3 74.38 61.56"/><polygon class="cls-1" points="86.04 68.17 75.38 73.47 75.38 61.52 75.51 61.46 75.04 61.22 74.88 61.3 74.88 74.27 86.54 68.48 86.54 61.72 86.04 61.97 86.04 68.17"/><polygon class="cls-1" points="83.78 54.07 83.78 54.62 85.41 55.42 74.88 60.66 64.35 55.42 66.31 54.46 66.31 53.91 63.6 55.24 75.04 60.96 86.33 55.32 83.78 54.07"/><polygon class="cls-1" points="86.99 55.39 87.04 55.42 87.04 55.93 91.93 58.45 87.04 60.91 87.04 61.47 93.04 58.45 87.09 55.39 87.08 55.39 86.99 55.39"/><polygon class="cls-1" points="76.07 61.18 75.51 61.46 81.27 64.38 86.04 61.97 86.04 61.41 81.27 63.81 76.07 61.18"/><polygon class="cls-1" points="86.54 61.16 86.54 61.72 87.04 61.47 87.04 60.91 86.54 61.16"/><polygon class="cls-1" points="86.41 55.27 86.33 55.32 86.54 55.42 86.54 55.77 86.64 55.72 87.04 55.93 87.04 55.42 86.99 55.39 86.66 55.39 86.41 55.27"/><polygon class="cls-1" points="75.89 61.09 86.54 55.77 86.54 55.42 75.22 61.05 75.31 61.09 75.04 61.22 75.51 61.46 76.07 61.18 75.89 61.09"/><polygon class="cls-1" points="86.04 61.41 86.04 61.97 86.54 61.72 86.54 61.16 86.04 61.41"/><polygon class="cls-1" points="86.54 55.42 86.33 55.32 75.04 60.96 75.22 61.05 86.54 55.42"/><polygon class="cls-1" points="90.83 58.44 87.04 60.35 87.04 60.91 91.93 58.45 87.04 55.93 87.04 56.49 90.83 58.44"/><polygon class="cls-1" points="81.27 63.25 77.01 61.09 86.04 56.58 86.04 56.23 76.07 61.18 81.27 63.81 86.04 61.41 86.04 60.85 81.27 63.25"/><polygon class="cls-1" points="86.54 60.6 86.54 61.16 87.04 60.91 87.04 60.35 86.54 60.6"/><polygon class="cls-1" points="86.54 55.77 86.54 56.33 86.64 56.28 87.04 56.49 87.04 55.93 86.64 55.72 86.54 55.77"/><polygon class="cls-1" points="76.07 61.18 86.04 56.23 86.04 56.58 86.54 56.33 86.54 55.77 75.89 61.09 76.07 61.18"/><polygon class="cls-1" points="86.04 60.85 86.04 61.41 86.54 61.16 86.54 60.6 86.04 60.85"/><polygon class="cls-1" points="58.08 58.44 62.72 56.09 62.72 55.73 62.52 55.63 56.96 58.45 62.72 61.33 62.72 60.77 58.08 58.44"/><polygon class="cls-1" points="73.86 61.26 68.82 63.81 63.72 61.27 63.72 61.83 68.82 64.38 74.38 61.56 74.38 61.52 73.86 61.26"/><polygon class="cls-1" points="62.72 56.09 63.22 55.84 63.22 55.42 63.08 55.35 62.52 55.63 62.72 55.73 62.72 56.09"/><polygon class="cls-1" points="63.22 61.02 62.72 60.77 62.72 61.33 63.22 61.58 63.22 61.02"/><polygon class="cls-1" points="63.45 55.16 63.08 55.35 63.22 55.42 63.6 55.24 63.45 55.16"/><polygon class="cls-1" points="74.96 61.18 74.78 61.09 75.04 60.96 63.6 55.24 63.22 55.42 74.88 61.22 74.96 61.18"/><polygon class="cls-1" points="74.19 61.09 73.86 61.26 74.38 61.52 74.38 61.56 74.88 61.3 74.88 61.22 63.22 55.42 63.22 55.84 63.45 55.72 74.19 61.09"/><polygon class="cls-1" points="74.88 61.22 74.88 61.3 75.04 61.22 74.96 61.18 74.88 61.22"/><polygon class="cls-1" points="63.72 61.27 63.22 61.02 63.22 61.58 63.72 61.83 63.72 61.27"/><polygon class="cls-1" points="75.04 60.96 74.78 61.09 74.96 61.18 75.22 61.05 75.04 60.96"/><polygon class="cls-1" points="75.22 61.05 74.96 61.18 75.04 61.22 75.31 61.09 75.22 61.05"/><polygon class="cls-1" points="59.19 58.44 62.72 56.65 62.72 56.09 58.08 58.44 62.72 60.77 62.72 60.21 59.19 58.44"/><polygon class="cls-1" points="73.86 61.26 63.72 56.23 63.72 56.42 73.08 61.09 68.82 63.26 63.72 60.71 63.72 61.27 68.82 63.81 73.86 61.26"/><polygon class="cls-1" points="62.72 60.21 62.72 60.77 63.22 61.02 63.22 60.46 62.72 60.21"/><polygon class="cls-1" points="63.22 56.4 63.22 55.84 62.72 56.09 62.72 56.65 63.22 56.4"/><polygon class="cls-1" points="63.45 56.28 63.72 56.42 63.72 56.23 73.86 61.26 74.19 61.09 63.45 55.72 63.22 55.84 63.22 56.4 63.45 56.28"/><polygon class="cls-1" points="63.72 60.71 63.22 60.46 63.22 61.02 63.72 61.27 63.72 60.71"/><polygon class="cls-1" points="92.63 52.24 86.87 54.94 83.79 53.52 86.76 54.97 86.76 55.22 87.09 55.39 92.84 52.7 92.84 51.79 83.78 47.52 83.78 48.07 92.63 52.24"/><polygon class="cls-1" points="83.78 54.06 86.41 55.27 86.64 55.16 86.76 55.22 86.76 54.97 83.79 53.52 83.78 53.51 83.78 54.06"/><polygon class="cls-1" points="86.76 55.25 86.99 55.39 87.08 55.39 87.09 55.39 86.76 55.22 86.76 55.25"/><polygon class="cls-1" points="86.41 55.27 86.66 55.39 86.99 55.39 86.76 55.25 86.76 55.22 86.64 55.16 86.41 55.27"/><polygon class="cls-1" points="91.45 52.24 86.87 54.39 83.78 52.96 83.78 53.51 83.79 53.52 86.87 54.94 92.63 52.24 83.78 48.07 83.78 48.63 91.45 52.24"/><polygon class="cls-1" points="83.78 53.51 83.79 53.52 83.78 53.51 83.78 53.51"/><polygon class="cls-1" points="66.57 45.34 75.04 41.51 83.52 45.34 83.35 45.41 83.73 45.64 83.73 44.88 75.25 41.06 74.84 41.06 66.36 44.88 66.36 45.64 66.73 45.41 66.57 45.34"/><polygon class="cls-1" points="74.98 49.13 73.81 48.61 74.98 49.2 74.98 49.13"/><polygon class="cls-1" points="73.81 48.61 72.87 48.18 74.89 49.2 74.98 49.35 74.98 49.2 73.81 48.61"/><polygon class="cls-1" points="75.1 49.26 75.15 49.28 75.2 49.2 77.22 48.18 75.04 49.16 74.98 49.13 74.98 49.2 75.1 49.26"/><polygon class="cls-1" points="75.15 49.28 75.1 49.26 74.98 49.2 74.98 49.35 75.04 49.46 75.15 49.28"/><path class="cls-1" d="M69.2,46.32h.08l4.53,2.29,1.17.52v0l5.84-2.77h.06l2.17-1.1.3.18.17-.07L75,41.51l-8.47,3.83.16.07.31-.18ZM75,42.06l7.26,3.28L75,48.61l-7.26-3.27Z"/><polygon class="cls-1" points="69.28 46.32 69.2 46.32 72.87 48.18 73.81 48.61 69.28 46.32"/><polygon class="cls-1" points="77.22 48.18 80.88 46.33 80.82 46.33 74.98 49.1 74.98 49.13 75.04 49.16 77.22 48.18"/><polygon class="cls-1" points="66.81 46 66.36 45.8 66.36 45.64 66.31 45.67 66.31 47.57 66.81 47.33 66.81 46"/><polygon class="cls-1" points="66.58 55.11 74.44 59.08 75.04 58.71 74.93 58.64 74.93 50.29 74.88 50.26 74.66 50.37 74.66 58.64 66.81 54.66 66.81 54.22 66.31 54.46 66.31 54.66 66.58 55.11"/><polygon class="cls-1" points="66.81 48.44 66.31 48.69 66.31 53.35 66.81 53.11 66.81 48.44"/><polygon class="cls-1" points="66.81 47.88 66.81 47.33 66.31 47.57 66.31 48.13 66.81 47.88"/><polygon class="cls-1" points="74.93 49.73 74.93 49.65 74.94 49.62 74.84 49.62 73.6 49.06 74.88 49.71 74.93 49.73"/><polygon class="cls-1" points="66.81 48.44 66.81 47.88 66.31 48.13 66.31 48.69 66.81 48.44"/><polygon class="cls-1" points="74.66 49.65 74.66 49.81 74.88 49.71 73.6 49.06 72.65 48.63 74.66 49.65"/><polygon class="cls-1" points="74.88 50.26 74.93 50.29 74.93 49.73 74.88 49.71 74.66 49.81 74.66 50.37 74.88 50.26"/><polygon class="cls-1" points="66.81 54.22 66.81 53.66 66.31 53.91 66.31 54.46 66.81 54.22"/><polygon class="cls-1" points="66.81 53.11 66.31 53.35 66.31 53.91 66.81 53.66 66.81 53.11"/><polygon class="cls-1" points="66.81 46 66.81 45.67 68.45 46.51 68.79 46.34 66.73 45.41 66.36 45.64 66.36 45.8 66.81 46"/><polygon class="cls-1" points="69.05 46.77 73.6 49.06 74.84 49.62 74.94 49.62 74.98 49.56 74.98 49.35 74.89 49.2 72.87 48.18 68.79 46.34 68.45 46.51 69.01 46.79 69.05 46.77"/><polygon class="cls-1" points="73.6 49.06 69.05 46.77 69.01 46.79 72.65 48.63 73.6 49.06"/><polygon class="cls-1" points="74.98 49.35 74.98 49.56 75.04 49.46 74.98 49.35"/><polygon class="cls-1" points="69.2 46.32 67.03 45.23 66.73 45.41 68.79 46.34 68.83 46.32 69.2 46.32"/><polygon class="cls-1" points="69.2 46.32 68.83 46.32 68.79 46.34 72.87 48.18 69.2 46.32"/><polygon class="cls-1" points="67.31 46.49 67.9 46.78 68.21 46.63 66.81 46 66.81 47.33 67.31 47.08 67.31 46.49"/><polygon class="cls-1" points="67.31 52.86 67.31 48.19 66.81 48.44 66.81 53.11 67.31 52.86"/><polygon class="cls-1" points="69.05 47.33 69.01 47.35 73.7 49.73 73.76 49.7 69.05 47.33"/><polygon class="cls-1" points="74.66 58.64 74.66 50.37 74.16 50.62 74.16 57.82 67.31 54.35 67.31 53.97 66.81 54.22 66.81 54.66 74.66 58.64"/><polygon class="cls-1" points="68.8 46.9 68.21 46.63 67.9 46.78 68.45 47.07 68.8 46.9"/><polygon class="cls-1" points="67.31 47.08 66.81 47.33 66.81 47.88 67.31 47.63 67.31 47.08"/><polygon class="cls-1" points="67.31 48.19 67.31 47.63 66.81 47.88 66.81 48.44 67.31 48.19"/><polygon class="cls-1" points="69.01 47.35 69.05 47.33 73.76 49.7 73.7 49.73 74.16 49.96 74.16 50.06 74.66 49.81 74.66 49.65 72.65 48.63 68.8 46.9 68.45 47.07 69.01 47.35"/><polygon class="cls-1" points="74.66 50.37 74.66 49.81 74.16 50.06 74.16 50.62 74.66 50.37"/><polygon class="cls-1" points="67.31 53.42 66.81 53.66 66.81 54.22 67.31 53.97 67.31 53.42"/><polygon class="cls-1" points="67.31 52.86 66.81 53.11 66.81 53.66 67.31 53.42 67.31 52.86"/><polygon class="cls-1" points="68.45 46.51 66.81 45.67 66.81 46 68.21 46.63 68.45 46.51"/><polygon class="cls-1" points="68.8 46.9 69.01 46.79 68.45 46.51 68.21 46.63 68.8 46.9"/><polygon class="cls-1" points="69.01 46.79 68.8 46.9 72.65 48.63 69.01 46.79"/><polygon class="cls-1" points="83.28 46 83.28 47.28 83.78 47.52 83.78 45.67 83.73 45.64 83.73 45.8 83.28 46"/><polygon class="cls-1" points="83.28 54.66 75.42 58.64 75.42 50.53 75.16 50.4 75.16 58.64 75.04 58.71 75.65 59.08 83.5 55.11 83.78 54.66 83.78 54.62 83.28 54.38 83.28 54.66"/><polygon class="cls-1" points="83.78 54.07 83.78 54.06 83.59 53.97 83.78 54.07"/><polygon class="cls-1" points="75.16 50.09 75.16 50.4 75.42 50.53 75.42 50.21 75.16 50.09"/><polygon class="cls-1" points="83.28 53.83 83.28 54.38 83.78 54.62 83.78 54.07 83.59 53.97 83.28 53.83"/><polygon class="cls-1" points="83.78 52.96 83.78 48.63 83.28 48.39 83.28 52.73 83.78 52.96"/><polygon class="cls-1" points="83.28 47.84 83.78 48.07 83.78 47.52 83.28 47.28 83.28 47.84"/><polygon class="cls-1" points="83.28 53.82 83.59 53.97 83.78 54.06 83.78 53.51 83.28 53.28 83.28 53.82"/><polygon class="cls-1" points="75.16 49.84 75.42 49.97 75.42 49.66 75.3 49.6 75.25 49.62 75.14 49.62 75.16 49.65 75.16 49.84"/><polygon class="cls-1" points="75.42 49.97 75.16 49.84 75.16 50.09 75.42 50.21 75.42 49.97"/><polygon class="cls-1" points="83.59 53.97 83.28 53.82 83.28 53.83 83.59 53.97"/><polygon class="cls-1" points="83.28 53.26 83.78 53.51 83.78 52.96 83.28 52.73 83.28 53.26"/><polygon class="cls-1" points="77.43 48.63 75.56 49.48 75.66 49.53 77.43 48.63"/><polygon class="cls-1" points="83.78 48.63 83.78 48.07 83.28 47.84 83.28 48.39 83.78 48.63"/><polygon class="cls-1" points="83.28 53.28 83.78 53.51 83.78 53.51 83.28 53.26 83.28 53.28"/><polygon class="cls-1" points="75.42 49.65 75.66 49.53 75.56 49.48 75.3 49.6 75.42 49.66 75.42 49.65"/><polygon class="cls-1" points="81.28 46.35 81.63 46.51 83.28 45.67 83.28 46 83.73 45.8 83.73 45.64 83.35 45.41 81.28 46.35"/><polygon class="cls-1" points="75.2 49.2 75.15 49.28 75.45 49.43 81.03 46.78 81.06 46.8 81.63 46.51 81.28 46.35 77.22 48.18 75.2 49.2"/><polygon class="cls-1" points="75.14 49.62 75.25 49.62 75.3 49.6 75.19 49.55 75.45 49.43 75.15 49.28 75.04 49.46 75.14 49.62"/><polygon class="cls-1" points="77.43 48.63 81.06 46.8 81.03 46.78 75.45 49.43 75.56 49.48 77.43 48.63"/><polygon class="cls-1" points="75.3 49.6 75.56 49.48 75.45 49.43 75.19 49.55 75.3 49.6"/><polygon class="cls-1" points="80.88 46.33 81.24 46.33 81.28 46.35 83.35 45.41 83.05 45.23 80.88 46.33"/><polygon class="cls-1" points="80.88 46.33 77.22 48.18 81.28 46.35 81.24 46.33 80.88 46.33"/><polygon class="cls-1" points="74.93 58.64 75.04 58.71 75.16 58.64 75.16 50.4 74.93 50.29 74.93 58.64"/><polygon class="cls-1" points="74.93 49.73 74.98 49.76 74.98 49.62 74.94 49.62 74.93 49.65 74.93 49.73"/><polygon class="cls-1" points="75.16 50.4 75.16 50.09 74.98 50 74.98 49.76 74.93 49.73 74.93 50.29 75.16 50.4"/><polygon class="cls-1" points="75.16 49.65 75.14 49.62 74.98 49.62 74.98 49.76 75.16 49.84 75.16 49.65"/><polygon class="cls-1" points="75.16 50.09 75.16 49.84 74.98 49.76 74.98 50 75.16 50.09"/><polygon class="cls-1" points="74.98 49.56 74.94 49.62 74.98 49.62 74.98 49.56"/><polygon class="cls-1" points="75.14 49.62 75.04 49.46 74.98 49.56 74.98 49.62 75.14 49.62"/><polygon class="cls-1" points="82.2 46.78 82.78 46.49 82.78 47.05 83.28 47.28 83.28 46 81.88 46.63 82.2 46.78"/><polygon class="cls-1" points="82.78 54.35 75.93 57.82 75.93 50.78 75.42 50.53 75.42 58.64 83.28 54.66 83.28 54.38 82.78 54.13 82.78 54.35"/><polygon class="cls-1" points="75.93 50.44 75.42 50.21 75.42 50.53 75.93 50.78 75.93 50.44"/><polygon class="cls-1" points="82.78 54.13 83.28 54.38 83.28 53.83 82.78 53.6 82.78 54.13"/><polygon class="cls-1" points="83.28 52.73 83.28 48.39 82.78 48.16 82.78 52.5 83.28 52.73"/><polygon class="cls-1" points="81.03 47.33 76.37 49.54 76.57 49.63 81.07 47.35 81.03 47.33"/><polygon class="cls-1" points="82.2 46.78 81.88 46.63 81.28 46.9 81.64 47.06 82.2 46.78"/><polygon class="cls-1" points="82.78 47.6 83.28 47.84 83.28 47.28 82.78 47.05 82.78 47.6"/><polygon class="cls-1" points="75.93 49.96 76 49.92 75.42 49.66 75.42 49.97 75.93 50.22 75.93 49.96"/><polygon class="cls-1" points="82.78 53.58 83.28 53.82 83.28 53.28 82.78 53.05 82.78 53.58"/><polygon class="cls-1" points="75.93 50.44 75.93 50.22 75.42 49.97 75.42 50.21 75.93 50.44"/><polygon class="cls-1" points="82.78 53.6 83.28 53.83 83.28 53.82 82.78 53.58 82.78 53.6"/><polygon class="cls-1" points="75.66 49.53 76.22 49.81 76.57 49.63 76.37 49.54 81.03 47.33 81.07 47.35 81.64 47.06 81.28 46.9 77.43 48.63 75.66 49.53"/><polygon class="cls-1" points="82.78 48.16 83.28 48.39 83.28 47.84 82.78 47.6 82.78 48.16"/><polygon class="cls-1" points="83.28 53.26 83.28 52.73 82.78 52.5 82.78 53.02 83.28 53.26"/><polygon class="cls-1" points="75.42 49.66 76 49.92 76.22 49.81 75.66 49.53 75.42 49.65 75.42 49.66"/><polygon class="cls-1" points="82.78 53.05 83.28 53.28 83.28 53.26 82.78 53.02 82.78 53.05"/><polygon class="cls-1" points="83.28 46 83.28 45.67 81.63 46.51 81.88 46.63 83.28 46"/><polygon class="cls-1" points="81.28 46.9 81.88 46.63 81.63 46.51 81.06 46.8 81.28 46.9"/><polygon class="cls-1" points="81.28 46.9 81.06 46.8 77.43 48.63 81.28 46.9"/></g></g></svg>