<svg xmlns="http://www.w3.org/2000/svg" viewBox="0 0 29.09 40"><defs><style>.cls-1{fill:#fff;}</style></defs><g id="Layer_2" data-name="Layer 2"><g id="Layer_1-2" data-name="Layer 1"><path class="cls-1" d="M19.09,27.27H6.36a.91.91,0,1,1,0-1.82H19.09a.91.91,0,1,1,0,1.82m-3.64,3.64H6.36a.91.91,0,1,1,0-1.82h9.09a.91.91,0,1,1,0,1.82M12.73,7.27a3.64,3.64,0,1,0,3.63,3.64,3.65,3.65,0,0,0-3.63-3.64M10,15.64,7.64,17.09a2.66,2.66,0,0,0-1.28,2.36V20H19.09v-.73a3.08,3.08,0,0,0-1.27-2.36l-2.37-1.46a5,5,0,0,1-2.72.73A3.62,3.62,0,0,1,10,15.64M12.73,5.46a5.35,5.35,0,0,1,5.45,5.45,4.79,4.79,0,0,1-1.27,3.45l1.82,1.09a4.5,4.5,0,0,1,2.18,3.82V20h2.73V4.54a2.8,2.8,0,0,0-2.73-2.72H4.55A2.79,2.79,0,0,0,1.82,4.54V20H4.55v-.73a4.43,4.43,0,0,1,2.18-3.82l1.82-1.09a5.28,5.28,0,0,1,.72-7.63,4.8,4.8,0,0,1,3.46-1.27M1.82,21.82v10a2.79,2.79,0,0,0,2.73,2.72H20.91a2.8,2.8,0,0,0,2.73-2.72v-10ZM5.64,36.36a2.73,2.73,0,0,0,2.54,1.82H24.55a2.79,2.79,0,0,0,2.72-2.73V8.18a2.71,2.71,0,0,0-1.82-2.54V31.82a4.5,4.5,0,0,1-4.54,4.54ZM24.55,40H8.18a4.85,4.85,0,0,1-4.54-3.64A4.5,4.5,0,0,1,0,31.82V4.54A4.5,4.5,0,0,1,4.55,0H20.91a4.85,4.85,0,0,1,4.54,3.64,4.5,4.5,0,0,1,3.64,4.54V35.45A4.5,4.5,0,0,1,24.55,40"/></g></g></svg>