<svg xmlns="http://www.w3.org/2000/svg" viewBox="0 0 150 165"><defs><style>.cls-1{fill:#a5adb7;}.cls-2{fill:#fff;}.cls-3{fill:#4b5b6d;}</style></defs><g id="Layer_2" data-name="Layer 2"><g id="Layer_1-2" data-name="Layer 1"><rect class="cls-1" width="150" height="165"/><circle class="cls-2" cx="75" cy="57.6" r="38.5"/><path class="cls-2" d="M36.9,118.6a.17.17,0,0,1,.16-.17H39.8a2.88,2.88,0,0,1,0,5.75H37.5v3c0,.09-.08.16-.21.16h-.23a.16.16,0,0,1-.16-.16Zm2.88,5a2.27,2.27,0,0,0,2.31-2.32A2.22,2.22,0,0,0,39.77,119H37.5v4.56Z"/><path class="cls-2" d="M44.14,121.62c0-.14,0-.21.17-.21s.36.25.36.65v.13a2.44,2.44,0,0,1,1.85-.85,3,3,0,0,1,.92.16.21.21,0,0,1,.15.27l-.07.23c0,.12-.14.13-.25.08a1.68,1.68,0,0,0-.79-.19,2.14,2.14,0,0,0-1.78,1v4.27a.17.17,0,0,1-.19.19h-.2a.17.17,0,0,1-.17-.19Z"/><path class="cls-2" d="M51.15,121.34A2.58,2.58,0,0,1,53.79,124c0,.23,0,.58-.22.58h-4.7a2.32,2.32,0,0,0,2.28,2.35,3.24,3.24,0,0,0,1.81-.58c.12-.08.19-.09.25,0l.14.21a.16.16,0,0,1-.06.23,3.79,3.79,0,0,1-2.14.69,3.08,3.08,0,0,1,0-6.15Zm2.08,2.72a2,2,0,0,0-2.08-2.17,2.24,2.24,0,0,0-2.27,2.17Z"/><path class="cls-2" d="M54.59,121.68c-.06-.11-.05-.21.08-.21H55c.08,0,.14,0,.19.14l2.15,5h0l2.19-5a.19.19,0,0,1,.19-.14H60c.13,0,.16.1.08.21l-2.55,5.67c-.05.09-.1.14-.18.14h-.06c-.08,0-.13,0-.18-.14Z"/><path class="cls-2" d="M63.71,121.34A2.58,2.58,0,0,1,66.35,124c0,.23,0,.58-.22.58h-4.7a2.33,2.33,0,0,0,2.28,2.35,3.21,3.21,0,0,0,1.81-.58c.13-.08.19-.09.26,0l.14.21c0,.06,0,.16-.07.23a3.76,3.76,0,0,1-2.14.69,3.08,3.08,0,0,1,0-6.15Zm2.08,2.72a2,2,0,0,0-2.08-2.17,2.23,2.23,0,0,0-2.26,2.17Z"/><path class="cls-2" d="M68,121.62c0-.14,0-.21.16-.21s.37.25.37.65v.16a2.83,2.83,0,0,1,2-.88c1.67,0,2.22,1,2.22,2.57v3.25a.2.2,0,0,1-.19.19h-.18a.2.2,0,0,1-.19-.19v-3.22c0-1.37-.55-2-1.68-2a2.7,2.7,0,0,0-2,1v4.27a.17.17,0,0,1-.19.19h-.21c-.11,0-.16-.09-.16-.19Z"/><path class="cls-2" d="M77.5,121.34a2.86,2.86,0,0,1,2.17.9.19.19,0,0,1,0,.27l-.11.1c-.11.12-.21.08-.31,0a2.55,2.55,0,0,0-1.74-.7A2.53,2.53,0,1,0,79.38,126a.17.17,0,0,1,.28,0l.11.1a.17.17,0,0,1,0,.23,2.93,2.93,0,0,1-2.31,1.13,3.08,3.08,0,0,1,0-6.15Z"/><path class="cls-2" d="M81.07,119.35a.5.5,0,0,1,.51-.5.5.5,0,0,1,.5.5.48.48,0,0,1-.5.48A.49.49,0,0,1,81.07,119.35Zm.24,2.31a.19.19,0,0,1,.2-.19h.17a.21.21,0,0,1,.2.19v5.5c0,.13-.07.19-.2.19h-.2a.17.17,0,0,1-.17-.19Z"/><path class="cls-2" d="M86.49,121.34a3.08,3.08,0,1,1-3,3.06A3,3,0,0,1,86.49,121.34Zm0,5.6a2.53,2.53,0,1,0-2.4-2.54A2.45,2.45,0,0,0,86.49,126.94Zm-1-6.74a.16.16,0,0,1-.25-.09.2.2,0,0,1,.08-.28l2-1.1a.26.26,0,0,1,.37.12c.09.18.07.35-.11.42Z"/><path class="cls-2" d="M91.15,121.62c0-.14,0-.21.17-.21s.37.25.37.65v.16a2.83,2.83,0,0,1,2-.88c1.67,0,2.22,1,2.22,2.57v3.25a.2.2,0,0,1-.19.19h-.18a.2.2,0,0,1-.19-.19v-3.22c0-1.37-.55-2-1.69-2a2.75,2.75,0,0,0-2,1v4.27a.17.17,0,0,1-.19.19h-.2a.17.17,0,0,1-.17-.19Z"/><path class="cls-2" d="M103.54,121.34a3.24,3.24,0,0,1,1.86.57v-3.29a.18.18,0,0,1,.19-.19h.19a.2.2,0,0,1,.18.19v8.58c0,.14,0,.2-.16.2s-.37-.24-.37-.65v-.09a2.94,2.94,0,0,1-2.06.83,2.86,2.86,0,0,1-2.67-3.08A2.89,2.89,0,0,1,103.54,121.34Zm-.13,5.6a2.44,2.44,0,0,0,2-1v-3.4a2.82,2.82,0,0,0-1.78-.66,2.42,2.42,0,0,0-2.36,2.52A2.36,2.36,0,0,0,103.41,126.94Z"/><path class="cls-2" d="M110.54,121.34a2.58,2.58,0,0,1,2.64,2.67c0,.23,0,.58-.22.58h-4.7a2.32,2.32,0,0,0,2.28,2.35,3.24,3.24,0,0,0,1.81-.58c.12-.08.19-.09.25,0l.14.21a.16.16,0,0,1-.06.23,3.79,3.79,0,0,1-2.14.69,3.08,3.08,0,0,1,0-6.15Zm2.07,2.72a2,2,0,0,0-2.07-2.17,2.24,2.24,0,0,0-2.27,2.17Z"/><path class="cls-2" d="M28,133.89a.16.16,0,0,1,.16-.16h.28a.16.16,0,0,1,.16.16v8.22h4.06c.15,0,.17.08.17.17v.23a.15.15,0,0,1-.17.14h-4.5a.17.17,0,0,1-.16-.17Z"/><path class="cls-2" d="M36.19,138.85a5.27,5.27,0,0,1,1.51.27c0-1.19-.3-2-1.56-2a3.9,3.9,0,0,0-1.52.4.15.15,0,0,1-.23-.09l-.08-.18a.17.17,0,0,1,.09-.22,4,4,0,0,1,1.79-.43c1.77,0,2.07,1.16,2.07,2.56v3.3c0,.14,0,.21-.16.21s-.37-.25-.37-.65v-.11a3.07,3.07,0,0,1-2.07.85,1.83,1.83,0,0,1-1.91-1.95C33.74,139.7,34.64,138.85,36.19,138.85Zm-.48,3.39a2.82,2.82,0,0,0,2-.89v-1.7a4,4,0,0,0-1.51-.3c-1.13,0-1.9.61-1.9,1.47A1.37,1.37,0,0,0,35.71,142.24Z"/><path class="cls-2" d="M39.39,137c-.07-.12-.06-.22.07-.22h.3a.19.19,0,0,1,.19.14l2.15,5h0l2.2-5a.18.18,0,0,1,.19-.14h.29c.13,0,.15.1.08.22l-2.55,5.67c0,.08-.1.14-.18.14h-.06c-.08,0-.13,0-.18-.14Z"/><path class="cls-2" d="M48.17,138.85a5.27,5.27,0,0,1,1.51.27c0-1.19-.3-2-1.57-2a3.89,3.89,0,0,0-1.51.4.15.15,0,0,1-.23-.09l-.08-.18a.17.17,0,0,1,.09-.22,4,4,0,0,1,1.79-.43c1.77,0,2.07,1.16,2.07,2.56v3.3c0,.14-.05.21-.16.21s-.37-.25-.37-.65V142l0,0a3,3,0,0,1-2.06.85,1.83,1.83,0,0,1-1.91-1.95C45.72,139.7,46.62,138.85,48.17,138.85Zm-.48,3.39a2.82,2.82,0,0,0,2-.89v-1.7a4,4,0,0,0-1.51-.3c-1.13,0-1.9.61-1.9,1.47A1.37,1.37,0,0,0,47.69,142.24Z"/><path class="cls-2" d="M54.77,136.63a3.2,3.2,0,0,1,1.86.58v-3.29a.18.18,0,0,1,.19-.19H57a.2.2,0,0,1,.18.19v8.57c0,.14,0,.21-.17.21s-.37-.25-.37-.65V142a2.93,2.93,0,0,1-2,.83,2.86,2.86,0,0,1-2.67-3.09A2.9,2.9,0,0,1,54.77,136.63Zm-.13,5.61a2.43,2.43,0,0,0,2-1v-3.4a2.86,2.86,0,0,0-1.79-.66,2.41,2.41,0,0,0-2.35,2.52A2.35,2.35,0,0,0,54.64,142.24Z"/><path class="cls-2" d="M61.85,136.63a3.08,3.08,0,1,1-3,3.06A3,3,0,0,1,61.85,136.63Zm0,5.61a2.53,2.53,0,1,0-2.39-2.55A2.45,2.45,0,0,0,61.85,142.24Z"/><path class="cls-2" d="M72.05,136.63a3.2,3.2,0,0,1,1.86.58v-3.29a.18.18,0,0,1,.19-.19h.19a.2.2,0,0,1,.18.19v8.57c0,.14,0,.21-.17.21s-.36-.25-.36-.65V142a3,3,0,0,1-2.06.83,2.86,2.86,0,0,1-2.67-3.09A2.9,2.9,0,0,1,72.05,136.63Zm-.13,5.61a2.43,2.43,0,0,0,2-1v-3.4a2.82,2.82,0,0,0-1.78-.66,2.41,2.41,0,0,0-2.36,2.52A2.36,2.36,0,0,0,71.92,142.24Z"/><path class="cls-2" d="M79.05,136.63a2.58,2.58,0,0,1,2.63,2.68c0,.23,0,.57-.21.57h-4.7a2.32,2.32,0,0,0,2.28,2.36,3.2,3.2,0,0,0,1.8-.59c.13-.07.2-.09.26,0l.14.22s0,.15-.06.23a3.79,3.79,0,0,1-2.14.69,3.09,3.09,0,0,1,0-6.16Zm2.07,2.73a2,2,0,0,0-2.07-2.18,2.24,2.24,0,0,0-2.27,2.18Z"/><path class="cls-2" d="M86.62,133.89a.16.16,0,0,1,.15-.16h2.7a4.46,4.46,0,1,1,0,8.92h-2.7a.17.17,0,0,1-.15-.17Zm2.75,8.21a3.92,3.92,0,1,0,0-7.83H87.22v7.83Z"/><path class="cls-2" d="M95.5,134.65a.5.5,0,0,1,.51-.5.49.49,0,1,1,0,1A.5.5,0,0,1,95.5,134.65Zm.24,2.3a.19.19,0,0,1,.19-.19h.18a.2.2,0,0,1,.19.19v5.5c0,.13-.06.2-.19.2h-.2c-.12,0-.17-.09-.17-.2Z"/><path class="cls-2" d="M98.35,136.91c0-.14.05-.2.17-.2s.37.24.37.65v.15a2.83,2.83,0,0,1,2-.88c1.67,0,2.22,1,2.22,2.58v3.24a.2.2,0,0,1-.19.2h-.18a.2.2,0,0,1-.19-.2v-3.22c0-1.36-.55-2-1.69-2a2.71,2.71,0,0,0-2,1v4.26c0,.13-.06.2-.19.2h-.2c-.12,0-.17-.09-.17-.2Z"/><path class="cls-2" d="M107.67,136.63a2.58,2.58,0,0,1,2.64,2.68c0,.23,0,.57-.22.57h-4.7a2.34,2.34,0,0,0,2.28,2.36,3.23,3.23,0,0,0,1.81-.59c.13-.07.19-.09.25,0l.14.22c.06,0,0,.15-.06.23a3.76,3.76,0,0,1-2.14.69,3.09,3.09,0,0,1,0-6.16Zm2.08,2.73a2,2,0,0,0-2.08-2.18,2.26,2.26,0,0,0-2.27,2.18Z"/><path class="cls-2" d="M112,136.91c0-.14,0-.2.17-.2s.37.24.37.65v.13a2.4,2.4,0,0,1,1.85-.86,2.52,2.52,0,0,1,.91.17.21.21,0,0,1,.16.26l-.08.23c0,.12-.14.13-.24.08a1.77,1.77,0,0,0-.79-.19,2.15,2.15,0,0,0-1.79,1v4.26c0,.13-.06.2-.19.2h-.2c-.12,0-.17-.09-.17-.2Z"/><path class="cls-2" d="M119,136.63a3.08,3.08,0,1,1-3,3.06A3,3,0,0,1,119,136.63Zm0,5.61a2.53,2.53,0,1,0-2.39-2.55A2.45,2.45,0,0,0,119,142.24Z"/><path class="cls-3" d="M89.79,68.27a.75.75,0,0,1,0,1.49H61.6a.75.75,0,0,1,0-1.49H89.79M60.86,66.05a.71.71,0,0,0,.75.74H89.79a.74.74,0,0,0,0-1.48H61.61a.58.58,0,0,0-.19,0l-.37.19a.75.75,0,0,0-.19.52m28.19-6.68h-.74a2.29,2.29,0,0,0-2.23,2.23v.74h.75a2.28,2.28,0,0,0,2.22-2.23ZM90.53,50V60.11a3.67,3.67,0,0,1-3.7,3.71H64.57l-.24,0,2.77-1.46H84.6V61.6a3.67,3.67,0,0,1,3.71-3.71h.74V52h-.74a3.79,3.79,0,0,1-1.18-.2ZM65.31,47.5h-.74a2.28,2.28,0,0,0-2.22,2.23v.74h.74a2.28,2.28,0,0,0,2.22-2.22Zm19.29.55V47.5H66.8v.75A3.67,3.67,0,0,1,63.09,52h-.74v5.94h.74a3.84,3.84,0,0,1,1.9.53l-1.82,1h-.82v.45l-1.44.76a3.75,3.75,0,0,1,0-.47V49.73A3.68,3.68,0,0,1,64.57,46H86.83a3.7,3.7,0,0,1,1.21.21ZM75.7,59.37a4.62,4.62,0,0,1-2-.49l-1.48.78a5.87,5.87,0,0,0,3.53,1.2,6,6,0,0,0,5.93-5.94c0-.09,0-.17,0-.25l-1.51.8a4.35,4.35,0,0,1-4.4,3.9m-4.45-4.45a4.37,4.37,0,0,1,4.45-4.45,4.47,4.47,0,0,1,2.67.87l1.38-.72a5.85,5.85,0,0,0-4-1.63,6,6,0,0,0-5.94,5.93,5.75,5.75,0,0,0,.1.93l1.41-.75a1.1,1.1,0,0,1,0-.18M61.05,65.53l.37-.19a.66.66,0,0,0-.37.19M59.16,65c.14,0,.47,0,.51-.16L91,47.82a.73.73,0,1,0-.7-1.29L59,63.59c0,.14-.27.39-.31.53a.7.7,0,0,0,.5.92"/></g></g></svg>