<svg xmlns="http://www.w3.org/2000/svg" viewBox="0 0 150 165"><defs><style>.cls-1{fill:#007dc3;}.cls-2{fill:#fff;}</style></defs><g id="Layer_2" data-name="Layer 2"><g id="Layer_1-2" data-name="Layer 1"><rect class="cls-1" width="150" height="165"/><circle class="cls-2" cx="75" cy="57.6" r="38.5"/><path class="cls-2" d="M20.85,126.3l.11-.16c.09-.1.18-.14.28,0a3.69,3.69,0,0,0,2.36,1c1.16,0,2.14-.62,2.14-1.71s-.93-1.64-2.47-2.16-2.46-1-2.46-2.51c0-1,.77-2.26,2.75-2.26a4.18,4.18,0,0,1,2.19.65.19.19,0,0,1,.06.27l-.11.17c-.06.11-.15.14-.28.06a3.79,3.79,0,0,0-1.87-.6c-1.57,0-2.15,1-2.15,1.7,0,1.08.83,1.55,2.11,2,1.75.6,2.86,1.21,2.86,2.69s-1.32,2.27-2.78,2.27a4.08,4.08,0,0,1-2.7-1C20.81,126.5,20.75,126.44,20.85,126.3Z"/><path class="cls-2" d="M30.51,121.47a2.58,2.58,0,0,1,2.64,2.67c0,.23,0,.58-.22.58h-4.7a2.32,2.32,0,0,0,2.28,2.35,3.24,3.24,0,0,0,1.81-.58c.13-.08.19-.09.25,0l.14.21s0,.16-.06.23a3.76,3.76,0,0,1-2.14.69,3.08,3.08,0,0,1,0-6.15Zm2.08,2.72A2.05,2.05,0,0,0,30.51,122a2.25,2.25,0,0,0-2.27,2.18Z"/><path class="cls-2" d="M37.1,130.27a3.11,3.11,0,0,1-2-.76c-.09-.09-.08-.14,0-.22l.13-.17c.08-.09.14-.09.26,0a2.82,2.82,0,0,0,1.63.6,1.92,1.92,0,0,0,2-2.09V127a2.83,2.83,0,0,1-1.78.61,3,3,0,0,1-2.94-3.1,2.85,2.85,0,0,1,2.8-3,3.17,3.17,0,0,1,1.94.66c0-.37.21-.59.37-.59s.17.07.17.21v5.88A2.46,2.46,0,0,1,37.1,130.27Zm2-7.48a2.65,2.65,0,0,0-1.9-.78,2.33,2.33,0,0,0-2.25,2.5,2.39,2.39,0,0,0,2.38,2.56,2.73,2.73,0,0,0,1.77-.71Z"/><path class="cls-2" d="M41.74,121.78a.2.2,0,0,1,.19-.19h.19a.19.19,0,0,1,.18.19v3.3c0,1.37.46,2,1.67,2A2.28,2.28,0,0,0,45.83,126v-4.2a.17.17,0,0,1,.19-.19h.19a.2.2,0,0,1,.18.19v5.55c0,.14,0,.2-.17.2s-.37-.24-.37-.65v-.13a2.46,2.46,0,0,1-1.92.87c-1.66,0-2.19-.88-2.19-2.54Z"/><path class="cls-2" d="M48.47,121.75c0-.14.05-.21.16-.21s.37.24.37.65v.13a2.4,2.4,0,0,1,1.85-.85,2.73,2.73,0,0,1,.92.16.21.21,0,0,1,.15.27l-.08.23a.16.16,0,0,1-.24.08,1.64,1.64,0,0,0-.79-.2A2.12,2.12,0,0,0,49,123v4.27a.17.17,0,0,1-.19.19h-.21c-.11,0-.16-.09-.16-.19Z"/><path class="cls-2" d="M53,119.48a.5.5,0,0,1,.51-.5.5.5,0,0,1,.5.5.48.48,0,0,1-.5.48A.49.49,0,0,1,53,119.48Zm.24,2.3a.19.19,0,0,1,.19-.19h.18a.2.2,0,0,1,.19.19v5.51a.17.17,0,0,1-.19.19h-.2a.17.17,0,0,1-.17-.19Z"/><path class="cls-2" d="M58.33,121.47a3.24,3.24,0,0,1,1.86.57v-3.29a.18.18,0,0,1,.19-.19h.19a.2.2,0,0,1,.18.19v8.58c0,.14,0,.2-.16.2s-.37-.24-.37-.65v-.09a2.94,2.94,0,0,1-2.06.83,2.86,2.86,0,0,1-2.67-3.08A2.89,2.89,0,0,1,58.33,121.47Zm-.13,5.6a2.46,2.46,0,0,0,2-1v-3.4a2.8,2.8,0,0,0-1.78-.67,2.42,2.42,0,0,0-2.36,2.53A2.36,2.36,0,0,0,58.2,127.07Z"/><path class="cls-2" d="M64.82,123.68a5.27,5.27,0,0,1,1.51.27c0-1.18-.3-2-1.56-2a4.16,4.16,0,0,0-1.52.39.15.15,0,0,1-.23-.09l-.08-.17c0-.12,0-.18.09-.22a3.89,3.89,0,0,1,1.79-.43c1.77,0,2.07,1.16,2.07,2.56v3.3c0,.14,0,.2-.16.2s-.37-.24-.37-.65v-.09h0a3.06,3.06,0,0,1-2.07.84,1.83,1.83,0,0,1-1.91-2C62.37,124.54,63.28,123.68,64.82,123.68Zm-.47,3.39a2.77,2.77,0,0,0,2-.89v-1.69a4,4,0,0,0-1.51-.31c-1.12,0-1.9.61-1.9,1.48A1.37,1.37,0,0,0,64.35,127.07Z"/><path class="cls-2" d="M71.42,121.47a3.24,3.24,0,0,1,1.86.57v-3.29a.18.18,0,0,1,.19-.19h.19a.2.2,0,0,1,.18.19v8.58c0,.14,0,.2-.17.2s-.37-.24-.37-.65v-.09a2.88,2.88,0,0,1-2,.83,2.85,2.85,0,0,1-2.67-3.08A2.89,2.89,0,0,1,71.42,121.47Zm-.13,5.6a2.46,2.46,0,0,0,2-1v-3.4A2.8,2.8,0,0,0,71.5,122a2.42,2.42,0,0,0-2.36,2.53A2.36,2.36,0,0,0,71.29,127.07Z"/><path class="cls-2" d="M81.47,121.47a2.58,2.58,0,0,1,2.64,2.67c0,.23,0,.58-.21.58H79.19a2.33,2.33,0,0,0,2.28,2.35,3.21,3.21,0,0,0,1.81-.58c.13-.08.2-.09.26,0l.14.21s0,.16-.06.23a3.82,3.82,0,0,1-2.15.69,3.08,3.08,0,0,1,0-6.15Zm2.08,2.72A2,2,0,0,0,81.47,122a2.24,2.24,0,0,0-2.26,2.18Z"/><path class="cls-2" d="M89,118.73a.18.18,0,0,1,.17-.17h.27a.16.16,0,0,1,.16.17v3.91h5.72v-3.91a.18.18,0,0,1,.17-.17h.27a.16.16,0,0,1,.16.17v8.58a.16.16,0,0,1-.16.17h-.27a.18.18,0,0,1-.17-.17v-4.14H89.63v4.14a.16.16,0,0,1-.16.17H89.2a.18.18,0,0,1-.17-.17Z"/><path class="cls-2" d="M98,119.48a.5.5,0,0,1,.51-.5.5.5,0,0,1,.5.5.48.48,0,0,1-.5.48A.49.49,0,0,1,98,119.48Zm.24,2.3a.19.19,0,0,1,.19-.19h.18a.2.2,0,0,1,.19.19v5.51a.17.17,0,0,1-.19.19h-.2a.17.17,0,0,1-.17-.19Z"/><path class="cls-2" d="M103.19,130.27a3.11,3.11,0,0,1-2-.76c-.09-.09-.07-.14,0-.22l.13-.17c.07-.09.14-.09.25,0a2.82,2.82,0,0,0,1.63.6,1.92,1.92,0,0,0,2-2.09V127a2.8,2.8,0,0,1-1.78.61,2.94,2.94,0,0,1-2.93-3.1,2.85,2.85,0,0,1,2.79-3,3.21,3.21,0,0,1,2,.66c0-.37.2-.59.37-.59s.16.07.16.21v5.88A2.46,2.46,0,0,1,103.19,130.27Zm2-7.48a2.6,2.6,0,0,0-1.9-.78,2.33,2.33,0,0,0-2.25,2.5,2.39,2.39,0,0,0,2.38,2.56,2.67,2.67,0,0,0,1.77-.71Z"/><path class="cls-2" d="M107.64,119.48a.5.5,0,0,1,.51-.5.5.5,0,0,1,.5.5.48.48,0,0,1-.5.48A.49.49,0,0,1,107.64,119.48Zm.24,2.3a.19.19,0,0,1,.19-.19h.18a.2.2,0,0,1,.19.19v5.51a.17.17,0,0,1-.19.19h-.2a.17.17,0,0,1-.17-.19Z"/><path class="cls-2" d="M113,121.47a2.58,2.58,0,0,1,2.64,2.67c0,.23,0,.58-.22.58h-4.7a2.32,2.32,0,0,0,2.28,2.35,3.24,3.24,0,0,0,1.81-.58c.13-.08.19-.09.25,0l.14.21s0,.16-.06.23a3.76,3.76,0,0,1-2.14.69,3.08,3.08,0,0,1,0-6.15Zm2.08,2.72A2.05,2.05,0,0,0,113,122a2.26,2.26,0,0,0-2.27,2.18Z"/><path class="cls-2" d="M117.26,121.75c0-.14,0-.21.17-.21s.37.24.37.65v.16a2.77,2.77,0,0,1,2-.88c1.67,0,2.22,1,2.22,2.57v3.25a.2.2,0,0,1-.2.19h-.17a.2.2,0,0,1-.2-.19v-3.23c0-1.36-.54-2-1.68-2a2.69,2.69,0,0,0-2,1v4.27a.17.17,0,0,1-.19.19h-.2a.17.17,0,0,1-.17-.19Z"/><path class="cls-2" d="M126.57,121.47a2.58,2.58,0,0,1,2.63,2.67c0,.23,0,.58-.21.58h-4.71a2.33,2.33,0,0,0,2.29,2.35,3.2,3.2,0,0,0,1.8-.58c.13-.08.2-.09.26,0l.14.21s0,.16-.06.23a3.79,3.79,0,0,1-2.14.69,3.08,3.08,0,0,1,0-6.15Zm2.07,2.72a2,2,0,0,0-2.07-2.18,2.24,2.24,0,0,0-2.27,2.18Z"/><path class="cls-1" d="M79.8,43.07,69.73,43a.83.83,0,0,0,0,1.66h2.73v2.51H70.17a.49.49,0,0,0-.48.48v4.64a.48.48,0,0,0,0,.22,6.91,6.91,0,0,0-3,3.16,7.75,7.75,0,0,0-.7,3.31V70.24a2.5,2.5,0,0,0,2.39,2.55h8.65a3.8,3.8,0,0,0,2.23-.37,2.48,2.48,0,0,0,1.15-2.07V58.79a7.34,7.34,0,0,0-3.66-6.31.61.61,0,0,0,.06-.25V47.65a.49.49,0,0,0-.49-.48H74.12V44.68l4,0,1.71,0a2.49,2.49,0,0,1,2.46,2.48.83.83,0,0,0,1.66,0A4.18,4.18,0,0,0,79.8,43.07ZM77.56,54.22a6.27,6.27,0,0,1,2,4.33c0,.5,0,1,0,1.49v9.63c0,.71,0,1.49-.67,1.91a3.72,3.72,0,0,1-1.93.24h-8.4a1.5,1.5,0,0,1-1.48-1.48V58.76a6.24,6.24,0,0,1,10.51-4.54Zm-1.64-6.08V52a6.46,6.46,0,0,0-.78-.25,7.44,7.44,0,0,0-4.48.28V48.14h2.26a1,1,0,0,0,.74,0ZM74.36,60.58H72.23a.5.5,0,0,0-.49.49v1.4h-1.4a.49.49,0,0,0-.49.49v2.13a.5.5,0,0,0,.49.49h1.4V67a.49.49,0,0,0,.49.48h2.13a.49.49,0,0,0,.48-.48v-1.4h1.4a.5.5,0,0,0,.49-.49V63a.49.49,0,0,0-.14-.35.47.47,0,0,0-.35-.14h-1.4v-1.4A.5.5,0,0,0,74.36,60.58Zm1.4,2.87V64.6h-1.4a.49.49,0,0,0-.49.49v1.4H72.71v-1.4a.49.49,0,0,0-.48-.49h-1.4V63.45h1.4a.5.5,0,0,0,.48-.49v-1.4h1.16V63a.5.5,0,0,0,.49.49Zm-7-5.55h9.4a.49.49,0,0,1,.39.77.42.42,0,0,1-.39.2h-9.4a.47.47,0,0,1-.47-.51A.45.45,0,0,1,68.79,57.9ZM78.2,71.15H68.79a.5.5,0,0,1-.29-.88.44.44,0,0,1,.29-.1H78.2a.4.4,0,0,1,.22.06A.49.49,0,0,1,78.2,71.15Z"/></g></g></svg>