<svg xmlns="http://www.w3.org/2000/svg" viewBox="0 0 150 165"><defs><style>.cls-1{fill:#6caddf;}.cls-2{fill:#fff;}</style></defs><g id="Layer_2" data-name="Layer 2"><g id="Layer_1-2" data-name="Layer 1"><rect class="cls-1" width="150" height="165"/><circle class="cls-2" cx="75" cy="57.6" r="38.5"/><path class="cls-2" d="M28.85,126.3l.12-.16c.09-.1.18-.14.28,0a3.69,3.69,0,0,0,2.36,1c1.16,0,2.14-.62,2.14-1.71s-.93-1.64-2.48-2.16-2.45-1-2.45-2.51c0-1,.76-2.26,2.75-2.26a4.18,4.18,0,0,1,2.19.65.19.19,0,0,1,.05.27l-.1.17a.17.17,0,0,1-.28.06,3.79,3.79,0,0,0-1.87-.6c-1.57,0-2.16,1-2.16,1.7,0,1.08.83,1.55,2.12,2,1.74.6,2.85,1.21,2.85,2.69s-1.31,2.27-2.78,2.27a4.13,4.13,0,0,1-2.7-1C28.82,126.5,28.75,126.44,28.85,126.3Z"/><path class="cls-2" d="M38.06,123.68a5.27,5.27,0,0,1,1.51.27c0-1.18-.3-2-1.57-2a4.15,4.15,0,0,0-1.51.39.15.15,0,0,1-.23-.09l-.08-.17c0-.12,0-.18.09-.22a3.89,3.89,0,0,1,1.79-.43c1.77,0,2.07,1.16,2.07,2.56v3.3c0,.14-.05.2-.16.2s-.37-.24-.37-.65v-.09h0a3,3,0,0,1-2.06.84,1.83,1.83,0,0,1-1.91-2C35.61,124.54,36.51,123.68,38.06,123.68Zm-.48,3.39a2.78,2.78,0,0,0,2-.89v-1.69a4,4,0,0,0-1.51-.31c-1.13,0-1.9.61-1.9,1.48A1.36,1.36,0,0,0,37.58,127.07Z"/><path class="cls-2" d="M42.2,118.75a.18.18,0,0,1,.19-.19h.18a.2.2,0,0,1,.19.19v8.54a.17.17,0,0,1-.19.19h-.21c-.11,0-.16-.09-.16-.19Z"/><path class="cls-2" d="M44.81,121.78a.2.2,0,0,1,.19-.19h.19a.19.19,0,0,1,.18.19v3.3c0,1.37.46,2,1.67,2A2.28,2.28,0,0,0,48.9,126v-4.2a.17.17,0,0,1,.19-.19h.19a.2.2,0,0,1,.18.19v5.55c0,.14-.05.2-.17.2s-.36-.24-.36-.65v-.13a2.48,2.48,0,0,1-1.93.87c-1.65,0-2.19-.88-2.19-2.54Z"/><path class="cls-2" d="M54,121.47a3.2,3.2,0,0,1,1.86.57v-3.29a.18.18,0,0,1,.19-.19h.2a.2.2,0,0,1,.17.19v8.58c0,.14,0,.2-.16.2s-.37-.24-.37-.65v-.09A3,3,0,1,1,54,121.47Zm-.12,5.6a2.43,2.43,0,0,0,2-1v-3.4A2.8,2.8,0,0,0,54.1,122a2.42,2.42,0,0,0-2.36,2.53A2.36,2.36,0,0,0,53.9,127.07Z"/><path class="cls-2" d="M60.92,121.84c-.05-.13,0-.25.09-.25h.27a.2.2,0,0,1,.2.14l2.08,5.09h0l2.16-5.09a.21.21,0,0,1,.19-.14h.28c.14,0,.16.12.09.25l-3.68,8.56a.24.24,0,0,1-.19.11h-.29c-.13,0-.18-.06-.12-.2l1.22-2.84Z"/><path class="cls-2" d="M75.18,122.94a2.1,2.1,0,0,1,1.62,2.12A2.52,2.52,0,0,1,74,127.48H71.17a.18.18,0,0,1-.17-.17v-8.58a.18.18,0,0,1,.17-.17h2.71a2.35,2.35,0,0,1,2.64,2.31,2.16,2.16,0,0,1-1.34,2ZM74,122.69a1.79,1.79,0,1,0-.09-3.57H71.59v3.57Zm.08,4.25a1.89,1.89,0,0,0,2.1-1.89,1.85,1.85,0,0,0-2.09-1.81H71.59v3.7Z"/><path class="cls-2" d="M78.47,119.48A.5.5,0,0,1,79,119a.5.5,0,0,1,.5.5.48.48,0,0,1-.5.48A.49.49,0,0,1,78.47,119.48Zm.24,2.3a.19.19,0,0,1,.19-.19h.18a.2.2,0,0,1,.19.19v5.51a.17.17,0,0,1-.19.19h-.2a.17.17,0,0,1-.17-.19Z"/><path class="cls-2" d="M83.8,121.47a2.58,2.58,0,0,1,2.63,2.67c0,.23,0,.58-.21.58h-4.7a2.31,2.31,0,0,0,2.28,2.35,3.2,3.2,0,0,0,1.8-.58c.13-.08.2-.09.26,0l.14.21s0,.16-.06.23a3.79,3.79,0,0,1-2.14.69,3.08,3.08,0,0,1,0-6.15Zm2.07,2.72A2,2,0,0,0,83.8,122a2.24,2.24,0,0,0-2.27,2.18Z"/><path class="cls-2" d="M88.08,121.75c0-.14,0-.21.16-.21s.37.24.37.65v.16a2.79,2.79,0,0,1,2-.88c1.67,0,2.22,1,2.22,2.57v3.25a.2.2,0,0,1-.19.19h-.18a.2.2,0,0,1-.19-.19v-3.23c0-1.36-.55-2-1.68-2a2.66,2.66,0,0,0-2,1v4.27a.17.17,0,0,1-.19.19h-.21c-.11,0-.16-.09-.16-.19Z"/><path class="cls-2" d="M97.39,121.47a2.58,2.58,0,0,1,2.64,2.67c0,.23,0,.58-.22.58h-4.7a2.33,2.33,0,0,0,2.28,2.35,3.21,3.21,0,0,0,1.81-.58c.13-.08.19-.09.26,0l.14.21c.05,0,0,.16-.07.23a3.76,3.76,0,0,1-2.14.69,3.08,3.08,0,0,1,0-6.15Zm2.08,2.72A2,2,0,0,0,97.39,122a2.24,2.24,0,0,0-2.26,2.18Z"/><path class="cls-2" d="M101.31,126.75l.11-.2a.18.18,0,0,1,.27,0,2.65,2.65,0,0,0,1.61.58c.89,0,1.46-.44,1.46-1.06s-.71-1-1.71-1.36-1.75-.78-1.75-1.71c0-.64.53-1.5,1.88-1.5a3.26,3.26,0,0,1,1.66.44.21.21,0,0,1,.07.27l-.07.14c0,.1-.16.1-.26.05a3.27,3.27,0,0,0-1.4-.38c-.93,0-1.32.52-1.32,1s.58.9,1.45,1.22c1.09.41,2,.74,2,1.86,0,.89-.84,1.58-2,1.58a3.07,3.07,0,0,1-1.93-.65A.17.17,0,0,1,101.31,126.75Z"/><path class="cls-2" d="M106.48,122.14c-.15,0-.19-.08-.19-.19v-.2c0-.12.08-.16.19-.16h.71V120c0-.12.09-.18.21-.19l.16,0a.19.19,0,0,1,.2.2v1.61h2.07a.2.2,0,0,1,.21.19V122a.19.19,0,0,1-.21.19h-2.07v3.75c0,.76.25,1.18,1,1.18a2.19,2.19,0,0,0,1.15-.41.15.15,0,0,1,.23.06l.1.17a.16.16,0,0,1,0,.23,2.66,2.66,0,0,1-1.44.5c-1.2,0-1.56-.78-1.56-1.73v-3.75Z"/><path class="cls-2" d="M113.63,123.68a5.36,5.36,0,0,1,1.52.27c0-1.18-.31-2-1.57-2a4.23,4.23,0,0,0-1.52.39.16.16,0,0,1-.23-.09l-.07-.17a.16.16,0,0,1,.09-.22,3.87,3.87,0,0,1,1.78-.43c1.77,0,2.08,1.16,2.08,2.56v3.3c0,.14,0,.2-.17.2s-.37-.24-.37-.65v-.09h0a3,3,0,0,1-2.06.84,1.83,1.83,0,0,1-1.92-2C111.18,124.54,112.09,123.68,113.63,123.68Zm-.47,3.39a2.8,2.8,0,0,0,2-.89v-1.69a4,4,0,0,0-1.52-.31c-1.12,0-1.9.61-1.9,1.48A1.37,1.37,0,0,0,113.16,127.07Z"/><path class="cls-2" d="M117.73,121.75c0-.14.06-.21.17-.21s.37.24.37.65v.13a2.4,2.4,0,0,1,1.85-.85,2.6,2.6,0,0,1,.91.16.21.21,0,0,1,.16.27l-.08.23a.16.16,0,0,1-.24.08,1.64,1.64,0,0,0-.79-.2,2.1,2.1,0,0,0-1.78,1v4.27c0,.13-.07.19-.2.19h-.2a.17.17,0,0,1-.17-.19Z"/><path class="cls-1" d="M65.5,56.41a.7.7,0,0,0-.74.74V67.53a.7.7,0,0,0,.74.74h3a.69.69,0,0,0,.74-.74V57.15a.69.69,0,0,0-.74-.74Zm9.35-8.91a1.1,1.1,0,0,0-1.19,1.19V49a10,10,0,0,1-1,4.6L70.7,57.3v8.75a2.27,2.27,0,0,0,2.22,2.22h9.2a2.26,2.26,0,0,0,2.23-2.07l.89-8.9a2.1,2.1,0,0,0-1.93-2.38H77.37a.68.68,0,0,1-.74-.59L76,48.69a1.18,1.18,0,0,0-1.19-1.19m7.27,22.26h-9.2a3.25,3.25,0,0,1-2.52-1,2.55,2.55,0,0,1-1.93,1h-3a2.28,2.28,0,0,1-2.22-2.23V57.15a2.28,2.28,0,0,1,2.22-2.23h3a1.9,1.9,0,0,1,1.49.6l1.33-2.68A8.67,8.67,0,0,0,72.18,49v-.3a2.75,2.75,0,0,1,5.49-.15l.45,4.9H83a3.67,3.67,0,0,1,3.71,3.71v.29l-.89,8.91a3.72,3.72,0,0,1-3.71,3.41"/></g></g></svg>