<?xml version="1.0" encoding="utf-8"?>
<!-- Generator: Adobe Illustrator 26.0.3, SVG Export Plug-In . SVG Version: 6.00 Build 0)  -->
<svg version="1.1" id="Capa_1" xmlns="http://www.w3.org/2000/svg" xmlns:xlink="http://www.w3.org/1999/xlink" x="0px" y="0px"
	 viewBox="0 0 150 165" style="enable-background:new 0 0 150 165;" xml:space="preserve">
<style type="text/css">
	.st0{fill:#FDB71A;}
</style>
<path class="st0" d="M75,64.2L75,64.2z M75,26.4c-4.3,0-7.7,2.4-7.7,5.3L69.9,61c0.3,1.8,2.5,3.2,5.1,3.2c2.6,0,4.8-1.4,5.1-3.2
	l2.6-29.4C82.7,28.8,79.3,26.4,75,26.4z M27.1,63.7l26.7,12.4c1.6,0.6,3.9-0.6,5.3-2.8l0,0c1.3-2.3,1.2-4.8-0.2-6L34.8,50.4
	c-2.5-1.4-6.3,0.3-8.4,4C24.3,58.1,24.6,62.3,27.1,63.7z M90.9,73.3c1.3,2.3,3.6,3.5,5.3,2.8l26.7-12.4c2.5-1.5,2.9-5.6,0.7-9.3
	s-5.9-5.5-8.4-4L91,67.4C89.7,68.5,89.6,71.1,90.9,73.3L90.9,73.3z M122.9,101.3L96.1,88.8c-1.7-0.6-3.9,0.6-5.3,2.8
	c-1.3,2.3-1.2,4.8,0.2,6l24.1,16.9c2.5,1.4,6.3-0.3,8.4-4C125.7,106.9,125.4,102.7,122.9,101.3L122.9,101.3z M59.1,91.7
	c-1.3-2.3-3.6-3.5-5.3-2.8l-26.7,12.4c-2.5,1.4-2.9,5.6-0.7,9.3s5.9,5.5,8.4,4L59,97.6C60.3,96.5,60.4,93.9,59.1,91.7L59.1,91.7z
	 M75,100.8L75,100.8z M75,100.8c-2.6,0-4.8,1.4-5.1,3.2l-2.6,29.3c0,2.9,3.4,5.3,7.7,5.3s7.7-2.4,7.7-5.3L80.1,104
	C79.8,102.2,77.6,100.8,75,100.8z M89,134.8c0,1.2-1,2.2-2.2,2.2c0,0,0,0-0.1,0c-1.2,0-2.2-1-2.2-2.2c0-1.2,1-2.2,2.2-2.2l0,0l0,0
	C88,132.6,89,133.6,89,134.8C89,134.8,89,134.8,89,134.8z M88.4,134.8c0.1-0.9-0.6-1.6-1.5-1.7c0,0-0.1,0-0.1,0l0,0
	c-0.9,0.1-1.6,0.9-1.5,1.9c0.1,0.8,0.7,1.4,1.5,1.5C87.7,136.5,88.4,135.8,88.4,134.8C88.4,134.9,88.4,134.9,88.4,134.8L88.4,134.8z
	 M87.7,135.4c0,0.2,0.1,0.3,0.2,0.5h-0.6c-0.1-0.2-0.1-0.3-0.2-0.5c0-0.2-0.1-0.3-0.4-0.3h-0.2v0.8h-0.6v-2.1
	c0.3-0.1,0.6-0.1,0.9-0.1c0.3,0,0.5,0,0.8,0.2c0.2,0.1,0.2,0.3,0.2,0.4c0,0.2-0.2,0.4-0.5,0.5l0,0C87.6,134.9,87.8,135.1,87.7,135.4
	L87.7,135.4z M87.2,134.4c0-0.2-0.1-0.3-0.4-0.3h-0.3v0.5h0.2C87,134.7,87.2,134.6,87.2,134.4L87.2,134.4z"/>
</svg>
