<svg xmlns="http://www.w3.org/2000/svg" viewBox="0 0 150 165"><defs><style>.cls-1{fill:#a6bdd1;}.cls-2{fill:#fff;}</style></defs><g id="Layer_2" data-name="Layer 2"><g id="Layer_1-2" data-name="Layer 1"><rect class="cls-1" width="150" height="165"/><circle class="cls-2" cx="75" cy="57.6" r="38.5"/><path class="cls-2" d="M20.38,118.6a.18.18,0,0,1,.17-.17h.28a.17.17,0,0,1,.15.17v8.22h4.07c.15,0,.16.07.16.16v.23a.14.14,0,0,1-.16.14h-4.5a.17.17,0,0,1-.17-.16Z"/><path class="cls-2" d="M26.27,119.35a.5.5,0,0,1,.51-.5.5.5,0,0,1,.5.5.48.48,0,0,1-.5.48A.49.49,0,0,1,26.27,119.35Zm.24,2.31a.19.19,0,0,1,.19-.19h.18a.2.2,0,0,1,.19.19v5.5a.17.17,0,0,1-.19.19h-.2a.17.17,0,0,1-.17-.19Z"/><path class="cls-2" d="M31.78,121.34a2.83,2.83,0,0,1,2.16.9.18.18,0,0,1,0,.27l-.1.1c-.12.12-.22.08-.32,0a2.55,2.55,0,1,0,.14,3.45.17.17,0,0,1,.28,0l.11.1a.17.17,0,0,1,0,.23,2.92,2.92,0,0,1-2.3,1.13,3.08,3.08,0,0,1,0-6.15Z"/><path class="cls-2" d="M38.05,121.34A2.58,2.58,0,0,1,40.68,124c0,.23,0,.58-.21.58h-4.7a2.31,2.31,0,0,0,2.28,2.35,3.27,3.27,0,0,0,1.81-.58c.12-.08.19-.09.25,0l.14.21a.16.16,0,0,1-.06.23,3.79,3.79,0,0,1-2.14.69,3.08,3.08,0,0,1,0-6.15Zm2.07,2.72a2,2,0,0,0-2.07-2.17,2.24,2.24,0,0,0-2.27,2.17Z"/><path class="cls-2" d="M42.33,121.62c0-.14.05-.21.16-.21s.37.25.37.65v.16a2.84,2.84,0,0,1,2.06-.88c1.66,0,2.21,1,2.21,2.57v3.25a.2.2,0,0,1-.19.19h-.18a.2.2,0,0,1-.19-.19v-3.22c0-1.37-.55-2-1.68-2a2.7,2.7,0,0,0-2,1v4.27a.17.17,0,0,1-.19.19h-.21c-.11,0-.16-.09-.16-.19Z"/><path class="cls-2" d="M51.84,121.34a2.83,2.83,0,0,1,2.16.9.18.18,0,0,1,0,.27l-.1.1c-.12.12-.22.08-.32,0a2.55,2.55,0,1,0,.14,3.45.17.17,0,0,1,.28,0l.11.1a.17.17,0,0,1,0,.23,2.92,2.92,0,0,1-2.3,1.13,3.08,3.08,0,0,1,0-6.15Z"/><path class="cls-2" d="M55.4,119.35a.51.51,0,0,1,.51-.5.49.49,0,0,1,.5.5.48.48,0,0,1-.5.48A.5.5,0,0,1,55.4,119.35Zm.25,2.31a.18.18,0,0,1,.19-.19H56a.2.2,0,0,1,.19.19v5.5a.17.17,0,0,1-.19.19h-.21c-.11,0-.16-.09-.16-.19Z"/><path class="cls-2" d="M60.2,123.56a5.37,5.37,0,0,1,1.51.26c0-1.18-.3-2-1.56-2a3.9,3.9,0,0,0-1.52.4.15.15,0,0,1-.23-.09l-.08-.18c0-.12,0-.18.09-.22a4,4,0,0,1,1.79-.43c1.77,0,2.07,1.16,2.07,2.56v3.3c0,.14-.05.2-.16.2s-.37-.24-.37-.65v-.09h0a3.06,3.06,0,0,1-2.07.84,1.83,1.83,0,0,1-1.91-1.95C57.75,124.41,58.65,123.56,60.2,123.56Zm-.47,3.38a2.77,2.77,0,0,0,2-.89v-1.69a4,4,0,0,0-1.51-.31c-1.13,0-1.9.61-1.9,1.48A1.37,1.37,0,0,0,59.73,126.94Z"/><path class="cls-2" d="M63.88,126.63l.11-.21a.17.17,0,0,1,.27,0,2.76,2.76,0,0,0,1.61.57c.89,0,1.46-.43,1.46-1.06s-.71-1-1.7-1.36-1.76-.78-1.76-1.71c0-.64.53-1.5,1.88-1.5a3.33,3.33,0,0,1,1.66.44.21.21,0,0,1,.08.27l-.08.14c0,.1-.15.1-.26,0a3.42,3.42,0,0,0-1.4-.38c-.93,0-1.32.52-1.32,1s.58.9,1.45,1.22c1.1.41,2,.74,2,1.86,0,.89-.84,1.58-2,1.58a3.07,3.07,0,0,1-1.93-.65A.16.16,0,0,1,63.88,126.63Z"/><path class="cls-2" d="M71.86,121.71c0-.13,0-.24.09-.24h.27a.2.2,0,0,1,.2.14l2.08,5.08h0l2.17-5.08a.19.19,0,0,1,.19-.14h.28c.14,0,.15.11.09.24l-3.68,8.56a.22.22,0,0,1-.19.11h-.3c-.12,0-.17-.06-.11-.2l1.22-2.84Z"/><path class="cls-2" d="M81.94,118.6a.18.18,0,0,1,.17-.17h2.73a2.88,2.88,0,0,1,0,5.75H82.54v3c0,.09-.08.16-.21.16h-.22a.17.17,0,0,1-.17-.16Zm2.88,5a2.27,2.27,0,0,0,2.31-2.32A2.22,2.22,0,0,0,84.81,119H82.54v4.56Z"/><path class="cls-2" d="M91.5,121.34A2.58,2.58,0,0,1,94.13,124c0,.23,0,.58-.21.58h-4.7a2.32,2.32,0,0,0,2.28,2.35,3.27,3.27,0,0,0,1.81-.58c.12-.08.19-.09.25,0l.14.21a.16.16,0,0,1-.06.23,3.79,3.79,0,0,1-2.14.69,3.08,3.08,0,0,1,0-6.15Zm2.07,2.72a2,2,0,0,0-2.07-2.17,2.24,2.24,0,0,0-2.27,2.17Z"/><path class="cls-2" d="M95.78,121.62c0-.14,0-.21.17-.21s.37.25.37.65v.13a2.39,2.39,0,0,1,1.84-.85,3,3,0,0,1,.92.16.21.21,0,0,1,.15.27l-.07.23c0,.12-.14.13-.25.08a1.68,1.68,0,0,0-.79-.19,2.14,2.14,0,0,0-1.78,1v4.27a.17.17,0,0,1-.19.19H96a.17.17,0,0,1-.17-.19Z"/><path class="cls-2" d="M100.55,121.62c0-.14,0-.21.16-.21s.37.25.37.65v.14a2.4,2.4,0,0,1,1.93-.86,1.94,1.94,0,0,1,1.82,1,2.61,2.61,0,0,1,2.06-1c1.61,0,2.13,1.08,2.13,2.6v3.22a.19.19,0,0,1-.19.19h-.22c-.09,0-.15-.06-.15-.19v-3.22c0-1.37-.51-2-1.62-2a2.25,2.25,0,0,0-1.82,1,3.51,3.51,0,0,1,.11,1v3.22a.2.2,0,0,1-.19.19h-.19a.17.17,0,0,1-.18-.19v-3.22c0-1.37-.52-2-1.63-2a2.12,2.12,0,0,0-1.83,1v4.27a.17.17,0,0,1-.19.19h-.21c-.11,0-.16-.09-.16-.19Z"/><path class="cls-2" d="M110.81,119.35a.5.5,0,0,1,.51-.5.49.49,0,0,1,.49.5.48.48,0,0,1-.49.48A.49.49,0,0,1,110.81,119.35Zm.24,2.31a.18.18,0,0,1,.19-.19h.18a.2.2,0,0,1,.19.19v5.5a.17.17,0,0,1-.19.19h-.21c-.11,0-.16-.09-.16-.19Z"/><path class="cls-2" d="M113.21,126.63l.12-.21c0-.09.16-.1.27,0a2.69,2.69,0,0,0,1.6.57c.89,0,1.47-.43,1.47-1.06s-.72-1-1.71-1.36-1.76-.78-1.76-1.71c0-.64.54-1.5,1.89-1.5a3.32,3.32,0,0,1,1.65.44.21.21,0,0,1,.08.27l-.08.14c0,.1-.15.1-.25,0a3.48,3.48,0,0,0-1.4-.38c-.93,0-1.33.52-1.33,1s.59.9,1.46,1.22c1.09.41,2,.74,2,1.86,0,.89-.84,1.58-2,1.58a3.06,3.06,0,0,1-1.92-.65C113.21,126.79,113.16,126.72,113.21,126.63Z"/><path class="cls-2" d="M121.38,121.34a3.08,3.08,0,0,1,0,6.15,3.08,3.08,0,0,1,0-6.15Zm0,5.6A2.53,2.53,0,1,0,119,124.4,2.44,2.44,0,0,0,121.38,126.94Z"/><path class="cls-2" d="M125.6,126.63l.12-.21c0-.09.16-.1.26,0a2.76,2.76,0,0,0,1.61.57c.89,0,1.47-.43,1.47-1.06s-.72-1-1.71-1.36-1.76-.78-1.76-1.71c0-.64.53-1.5,1.89-1.5a3.32,3.32,0,0,1,1.65.44.21.21,0,0,1,.08.27l-.08.14c0,.1-.15.1-.25,0a3.48,3.48,0,0,0-1.4-.38c-.93,0-1.33.52-1.33,1s.59.9,1.45,1.22c1.1.41,2,.74,2,1.86,0,.89-.85,1.58-2,1.58a3,3,0,0,1-1.92-.65C125.6,126.79,125.55,126.72,125.6,126.63Z"/><path class="cls-1" d="M80.19,53.44H69.81a.75.75,0,0,1,0-1.49H80.19a.75.75,0,0,1,0,1.49m0,4.45H69.81a.75.75,0,0,1,0-1.49H80.19a.75.75,0,0,1,0,1.49m-3,4.45H69.81a.74.74,0,0,1,0-1.48h7.42a.74.74,0,0,1,0,1.48M84.64,65a5.2,5.2,0,0,1-1.48.3,2.28,2.28,0,0,0-2.23,2.22A5.24,5.24,0,0,1,80.64,69a8.78,8.78,0,0,0,4-4M66.84,46a2.28,2.28,0,0,0-2.22,2.23V67.53a2.28,2.28,0,0,0,2.22,2.23H77.23a2.28,2.28,0,0,0,2.22-2.23,3.67,3.67,0,0,1,3.71-3.71,2.28,2.28,0,0,0,2.23-2.22V48.25A2.29,2.29,0,0,0,83.16,46ZM77.23,71.24H66.84a3.67,3.67,0,0,1-3.71-3.71V48.25a3.67,3.67,0,0,1,3.71-3.71H83.16a3.67,3.67,0,0,1,3.71,3.71V61.6a9.62,9.62,0,0,1-9.64,9.64"/></g></g></svg>