<svg xmlns="http://www.w3.org/2000/svg" viewBox="0 0 150 165"><defs><style>.cls-1{fill:#6caddf;}.cls-2{fill:#fff;}</style></defs><g id="Layer_2" data-name="Layer 2"><g id="Layer_1-2" data-name="Layer 1"><rect class="cls-1" width="150" height="165"/><circle class="cls-2" cx="75" cy="57.6" r="38.5"/><path class="cls-2" d="M29,118.6a.18.18,0,0,1,.17-.17h.28a.17.17,0,0,1,.15.17v8.22h4.06c.16,0,.17.07.17.16v.23a.15.15,0,0,1-.17.14H29.13a.17.17,0,0,1-.17-.16Z"/><path class="cls-2" d="M37.13,123.56a5.55,5.55,0,0,1,1.52.26c0-1.18-.31-2-1.57-2a4,4,0,0,0-1.52.4.15.15,0,0,1-.23-.09l-.07-.18c-.06-.12,0-.18.08-.22a4.08,4.08,0,0,1,1.79-.43c1.77,0,2.08,1.16,2.08,2.56v3.3c0,.14-.05.2-.17.2s-.37-.24-.37-.65v-.09h0a3.06,3.06,0,0,1-2.07.84,1.83,1.83,0,0,1-1.91-1.95C34.68,124.41,35.59,123.56,37.13,123.56Zm-.47,3.38a2.82,2.82,0,0,0,2-.89v-1.69a4.08,4.08,0,0,0-1.52-.31c-1.12,0-1.9.61-1.9,1.48A1.37,1.37,0,0,0,36.66,126.94Z"/><path class="cls-2" d="M43.83,127.49a2.88,2.88,0,0,1-2-.83v.09c0,.41-.19.65-.37.65s-.16-.06-.16-.2v-8.58a.2.2,0,0,1,.17-.19h.2a.18.18,0,0,1,.19.19v3.29a3.2,3.2,0,0,1,1.86-.57,2.89,2.89,0,0,1,2.84,3.07A2.86,2.86,0,0,1,43.83,127.49Zm-.24-5.6a2.82,2.82,0,0,0-1.78.66V126a2.43,2.43,0,0,0,2,1A2.36,2.36,0,0,0,46,124.41,2.42,2.42,0,0,0,43.59,121.89Z"/><path class="cls-2" d="M50.82,121.34a3.08,3.08,0,1,1-3,3.06A3,3,0,0,1,50.82,121.34Zm0,5.6a2.53,2.53,0,1,0-2.4-2.54A2.44,2.44,0,0,0,50.82,126.94Z"/><path class="cls-2" d="M55.48,121.62c0-.14.05-.21.17-.21s.37.25.37.65v.13a2.39,2.39,0,0,1,1.84-.85,2.89,2.89,0,0,1,.92.16.21.21,0,0,1,.15.27l-.07.23c0,.12-.14.13-.24.08a1.77,1.77,0,0,0-.79-.19,2.15,2.15,0,0,0-1.79,1v4.27a.17.17,0,0,1-.19.19h-.2a.17.17,0,0,1-.17-.19Z"/><path class="cls-2" d="M62.17,123.56a5.39,5.39,0,0,1,1.52.26c0-1.18-.31-2-1.57-2a3.89,3.89,0,0,0-1.51.4c-.13,0-.2,0-.23-.09L60.3,122a.16.16,0,0,1,.09-.22,4,4,0,0,1,1.78-.43c1.77,0,2.08,1.16,2.08,2.56v3.3c0,.14,0,.2-.17.2s-.37-.24-.37-.65v-.09h0a3,3,0,0,1-2.06.84,1.83,1.83,0,0,1-1.91-1.95C59.73,124.41,60.63,123.56,62.17,123.56Zm-.47,3.38a2.8,2.8,0,0,0,2-.89v-1.69a4,4,0,0,0-1.52-.31c-1.12,0-1.9.61-1.9,1.48A1.37,1.37,0,0,0,61.7,126.94Z"/><path class="cls-2" d="M66.31,118.62a.19.19,0,0,1,.2-.19h.17a.21.21,0,0,1,.2.19v8.54c0,.13-.07.19-.2.19h-.2a.17.17,0,0,1-.17-.19Z"/><path class="cls-2" d="M71.44,121.71c0-.13,0-.24.09-.24h.26a.2.2,0,0,1,.21.14l2.07,5.08h0l2.17-5.08a.18.18,0,0,1,.19-.14h.28c.14,0,.15.11.09.24l-3.68,8.56a.22.22,0,0,1-.19.11h-.3c-.12,0-.18-.06-.11-.2l1.22-2.84Z"/><path class="cls-2" d="M81.53,118.6a.18.18,0,0,1,.17-.17h5.11a.17.17,0,0,1,.16.17v.22a.16.16,0,0,1-.16.16H82.14v3.52h4a.17.17,0,0,1,.17.16v.22a.18.18,0,0,1-.17.17h-4v3.77h4.67A.16.16,0,0,1,87,127v.21a.16.16,0,0,1-.16.16H81.7a.17.17,0,0,1-.17-.16Z"/><path class="cls-2" d="M88.52,121.62c0-.14,0-.21.16-.21s.37.25.37.65v.14a2.4,2.4,0,0,1,1.93-.86,1.94,1.94,0,0,1,1.82,1,2.61,2.61,0,0,1,2.06-1c1.61,0,2.13,1.08,2.13,2.6v3.22a.19.19,0,0,1-.19.19h-.22c-.09,0-.15-.06-.15-.19v-3.22c0-1.37-.51-2-1.62-2a2.25,2.25,0,0,0-1.82,1,3.51,3.51,0,0,1,.11,1v3.22a.2.2,0,0,1-.19.19h-.19a.17.17,0,0,1-.18-.19v-3.22c0-1.37-.52-2-1.63-2a2.12,2.12,0,0,0-1.83,1v4.27a.17.17,0,0,1-.19.19h-.21c-.11,0-.16-.09-.16-.19Z"/><path class="cls-2" d="M99.59,130.19a.21.21,0,0,1-.2.19h-.17a.18.18,0,0,1-.19-.19v-8.57c0-.14,0-.21.17-.21s.34.22.37.59a3.15,3.15,0,0,1,1.94-.66,2.86,2.86,0,0,1,2.8,3.06,3,3,0,0,1-2.94,3.09,2.83,2.83,0,0,1-1.78-.61Zm0-4a2.73,2.73,0,0,0,1.77.71,2.39,2.39,0,0,0,2.38-2.56,2.32,2.32,0,0,0-2.25-2.49,2.65,2.65,0,0,0-1.9.77Z"/><path class="cls-2" d="M106.07,118.62a.18.18,0,0,1,.19-.19h.17a.21.21,0,0,1,.2.19v8.54c0,.13-.07.19-.2.19h-.2c-.11,0-.16-.09-.16-.19Z"/><path class="cls-2" d="M111.21,121.34a2.58,2.58,0,0,1,2.64,2.67c0,.23,0,.58-.22.58h-4.7a2.33,2.33,0,0,0,2.28,2.35,3.21,3.21,0,0,0,1.81-.58c.13-.08.19-.09.26,0l.14.21c0,.06,0,.16-.07.23a3.76,3.76,0,0,1-2.14.69,3.08,3.08,0,0,1,0-6.15Zm2.08,2.72a2,2,0,0,0-2.08-2.17,2.23,2.23,0,0,0-2.26,2.17Z"/><path class="cls-2" d="M118.08,121.34a3.08,3.08,0,0,1,0,6.15,3.08,3.08,0,0,1,0-6.15Zm0,5.6a2.53,2.53,0,1,0-2.39-2.54A2.44,2.44,0,0,0,118.08,126.94Z"/><path class="cls-1" d="M63.8,66.81a3.67,3.67,0,0,1-3.71-3.71V61.91a3.55,3.55,0,0,1,2.08-3.26l5-2.52a7.39,7.39,0,0,1-.89-10.54,7.49,7.49,0,0,1,10.53-.74A5.91,5.91,0,0,1,78,46.33a.73.73,0,0,1-.15,1c-.15,0-.15.15-.29.15a.8.8,0,0,1-.6-.29,6.08,6.08,0,0,0-8.31-1.64,6,6,0,0,0-1.63,8.31,5.14,5.14,0,0,0,1.78,1.78.91.91,0,0,1,.3,1c-.15,0-.15.15-.3.15L62.76,60a2.15,2.15,0,0,0-1.19,1.93V63.1a2.28,2.28,0,0,0,2.23,2.22.75.75,0,0,1,0,1.49M77.89,50.49a5.94,5.94,0,1,0,5.94,5.93,5.95,5.95,0,0,0-5.94-5.93m-3,12.76-6.09,2.82A1.9,1.9,0,0,0,67.51,68v1a2.28,2.28,0,0,0,2.22,2.23H86.05A2.29,2.29,0,0,0,88.28,69V68a2.23,2.23,0,0,0-1.34-2.08l-6.08-2.67a7.75,7.75,0,0,1-5.93,0m11.12,9.49H69.73a4.22,4.22,0,0,1-2.67-1A4.28,4.28,0,0,1,66,69V68a3.76,3.76,0,0,1,2.23-3.42l5.19-2.37a7.4,7.4,0,1,1,10.39-1.34,11.29,11.29,0,0,1-1.34,1.34l5.19,2.37A3.76,3.76,0,0,1,89.91,68v1a4.28,4.28,0,0,1-1,2.67,5,5,0,0,1-2.82,1"/></g></g></svg>