<svg xmlns="http://www.w3.org/2000/svg" viewBox="0 0 150 165"><defs><style>.cls-1{fill:#6caddf;}.cls-2{fill:#fff;}.cls-3{fill:none;stroke:#6caddf;stroke-miterlimit:10;stroke-width:0.97px;}</style></defs><g id="Layer_2" data-name="Layer 2"><g id="Layer_1-2" data-name="Layer 1"><rect class="cls-1" width="150" height="165"/><circle class="cls-2" cx="75" cy="57.6" r="38.5"/><path class="cls-2" d="M34.34,127.33l3.92-8.81a.19.19,0,0,1,.16-.09h0a.18.18,0,0,1,.17.09l3.89,8.81c0,.07,0,.15-.12.15h-.33a.21.21,0,0,1-.18-.11l-1-2.35H36l-1,2.35a.2.2,0,0,1-.17.11h-.36C34.34,127.48,34.3,127.43,34.34,127.33Zm6.29-2.81-2.18-5.07h0l-2.22,5.07Z"/><path class="cls-2" d="M43.76,121.75c0-.14.05-.21.16-.21s.37.24.37.65v.16a2.79,2.79,0,0,1,2.05-.88c1.67,0,2.22,1,2.22,2.57v3.25a.2.2,0,0,1-.19.19h-.18a.2.2,0,0,1-.19-.19v-3.23c0-1.36-.55-2-1.68-2a2.66,2.66,0,0,0-2,1v4.27a.17.17,0,0,1-.19.19h-.21c-.11,0-.16-.09-.16-.19Z"/><path class="cls-2" d="M50,122.14c-.15,0-.19-.08-.19-.19v-.2c0-.12.08-.16.19-.16h.72V120c0-.12.08-.18.2-.19l.17,0a.19.19,0,0,1,.19.2v1.61h2.07a.2.2,0,0,1,.21.19V122a.19.19,0,0,1-.21.19H51.28v3.75c0,.76.25,1.18,1,1.18a2.19,2.19,0,0,0,1.15-.41.15.15,0,0,1,.23.06l.1.17a.16.16,0,0,1,0,.23,2.66,2.66,0,0,1-1.44.5c-1.2,0-1.55-.78-1.55-1.73v-3.75Z"/><path class="cls-2" d="M54.83,119.48a.5.5,0,0,1,.51-.5.5.5,0,0,1,.5.5.48.48,0,0,1-.5.48A.49.49,0,0,1,54.83,119.48Zm.24,2.3a.19.19,0,0,1,.19-.19h.18a.2.2,0,0,1,.19.19v5.51a.17.17,0,0,1-.19.19h-.2a.17.17,0,0,1-.17-.19Z"/><path class="cls-2" d="M60.32,121.47a2.84,2.84,0,0,1,2.17.9.19.19,0,0,1,0,.27l-.1.1c-.12.12-.22.08-.32,0a2.6,2.6,0,0,0-1.74-.7,2.53,2.53,0,1,0,1.88,4.16.17.17,0,0,1,.28,0l.11.11a.16.16,0,0,1,0,.23,3,3,0,0,1-2.31,1.13,3.08,3.08,0,0,1,0-6.15Z"/><path class="cls-2" d="M66.68,121.47a3.08,3.08,0,1,1-3,3A3,3,0,0,1,66.68,121.47Zm0,5.6a2.53,2.53,0,1,0-2.39-2.55A2.44,2.44,0,0,0,66.68,127.07Z"/><path class="cls-2" d="M71.35,121.75c0-.14.05-.21.16-.21s.37.24.37.65v.13a2.44,2.44,0,0,1,1.85-.85,2.73,2.73,0,0,1,.92.16.2.2,0,0,1,.15.27l-.07.23c0,.11-.14.13-.25.08a1.64,1.64,0,0,0-.79-.2,2.14,2.14,0,0,0-1.78,1v4.27a.17.17,0,0,1-.19.19h-.21c-.11,0-.16-.09-.16-.19Z"/><path class="cls-2" d="M76.12,121.75c0-.14,0-.21.16-.21s.37.24.37.65v.13a2.4,2.4,0,0,1,1.85-.85,2.73,2.73,0,0,1,.92.16.21.21,0,0,1,.15.27l-.08.23a.16.16,0,0,1-.24.08,1.64,1.64,0,0,0-.79-.2,2.1,2.1,0,0,0-1.78,1v4.27a.17.17,0,0,1-.19.19h-.21c-.11,0-.16-.09-.16-.19Z"/><path class="cls-2" d="M80.84,121.78a.2.2,0,0,1,.2-.19h.19a.18.18,0,0,1,.17.19v3.3c0,1.37.46,2,1.67,2A2.28,2.28,0,0,0,84.93,126v-4.2a.18.18,0,0,1,.2-.19h.19a.19.19,0,0,1,.17.19v5.55c0,.14,0,.2-.16.2s-.37-.24-.37-.65v-.13a2.46,2.46,0,0,1-1.92.87c-1.66,0-2.2-.88-2.2-2.54Z"/><path class="cls-2" d="M88.12,130.32a.21.21,0,0,1-.2.19h-.17a.19.19,0,0,1-.19-.19v-8.57c0-.14,0-.21.17-.21s.34.22.37.59a3.18,3.18,0,0,1,2-.66,2.85,2.85,0,0,1,2.79,3,3,3,0,0,1-2.94,3.1,2.83,2.83,0,0,1-1.78-.61Zm0-4a2.73,2.73,0,0,0,1.77.71,2.39,2.39,0,0,0,2.38-2.56A2.33,2.33,0,0,0,90,122a2.65,2.65,0,0,0-1.9.78Z"/><path class="cls-2" d="M97.23,121.47a2.86,2.86,0,0,1,2.17.9.19.19,0,0,1,0,.27l-.11.1c-.11.12-.21.08-.31,0a2.6,2.6,0,0,0-1.74-.7,2.53,2.53,0,1,0,1.88,4.16.17.17,0,0,1,.28,0l.11.11a.16.16,0,0,1,0,.23,3,3,0,0,1-2.31,1.13,3.08,3.08,0,0,1,0-6.15Z"/><path class="cls-2" d="M100.8,119.48a.5.5,0,0,1,.51-.5.5.5,0,0,1,.5.5.48.48,0,0,1-.5.48A.49.49,0,0,1,100.8,119.48Zm.24,2.3a.19.19,0,0,1,.2-.19h.17a.2.2,0,0,1,.19.19v5.51a.17.17,0,0,1-.19.19h-.2a.17.17,0,0,1-.17-.19Z"/><path class="cls-2" d="M106.21,121.47a3.08,3.08,0,1,1-3,3A3,3,0,0,1,106.21,121.47Zm0,5.6a2.53,2.53,0,1,0-2.4-2.55A2.44,2.44,0,0,0,106.21,127.07Zm-1-6.74a.18.18,0,0,1-.26-.09.21.21,0,0,1,.09-.28l2-1.11a.26.26,0,0,1,.37.13c.09.18.06.35-.12.42Z"/><path class="cls-2" d="M110.87,121.75c0-.14,0-.21.17-.21s.37.24.37.65v.16a2.77,2.77,0,0,1,2-.88c1.67,0,2.21,1,2.21,2.57v3.25a.19.19,0,0,1-.19.19h-.18a.2.2,0,0,1-.19-.19v-3.23c0-1.36-.54-2-1.68-2a2.66,2.66,0,0,0-2,1v4.27a.17.17,0,0,1-.19.19H111a.17.17,0,0,1-.17-.19Z"/><path class="cls-3" d="M76.54,66.93c-1.13,1.81-4.14.31-4.14.31L62.34,60.43l-.69,2-5.19-.08,1.8-13.6,5.18.75,6.25-.29m0,0-6.24.29-5.18-.75-1.8,13.59,5.19.08.69-2,10.06,6.81s3,1.5,4.14-.31M69.69,49.21l-6.25.29-5.18-.75-1.8,13.6,5.19.08.69-2L72.4,67.24s3,1.5,4.14-.31M69.7,49.23l-6.24.29-5.18-.75-1.8,13.59,5.19.08.69-2,10.06,6.81s3,1.5,4.14-.31M62.29,60.41s2.21-8.48,1.3-10.79m-1.3,10.91s2.21-8.66,1.3-11m9.13,14.15L75,65.6S78.3,68.41,80,66m-7.32-2.35,2.35,2s3.3,2.82,5,.38m-5-4.55,2.32,1.92s3.55,3.65,5.83.36m-8.2-2.31,2.34,1.94s3.59,3.67,5.89.36m2.33-13.22S73.7,45.75,69.57,49.24s-2,11,2.65,4.23l2.13-.41S80.53,56.93,83,58.7a5.21,5.21,0,0,1,2.21,2.56,1.53,1.53,0,0,1-1.76,1.84,12.61,12.61,0,0,1-5.67-3.62m7.68-9S73.7,45.75,69.57,49.24s-2,11,2.65,4.23l2.13-.41S80.53,56.93,83,58.7a5.19,5.19,0,0,1,2.2,2.56,1.53,1.53,0,0,1-1.75,1.84,12.61,12.61,0,0,1-5.67-3.62m6.82,3.2a21,21,0,0,0,2.36-3m-2.41,3a22.18,22.18,0,0,0,2.43-3m1.21,3.47,5.32-.08L91.7,49.37l-5.32.75c-.78,2.36,1.13,11,1.13,11Zm0,0,5.31-.08L91.68,49.39l-5.3.75c-.78,2.35,1.13,11,1.13,11Z"/></g></g></svg>