<svg xmlns="http://www.w3.org/2000/svg" viewBox="0 0 150 165"><defs><style>.cls-1{fill:#fdb71a;}.cls-2{fill:#fff;}</style></defs><g id="Layer_2" data-name="Layer 2"><g id="Layer_1-2" data-name="Layer 1"><rect class="cls-1" width="150" height="165"/><circle class="cls-2" cx="75" cy="57.6" r="38.5"/><path class="cls-2" d="M39.68,126.3l.12-.16c.09-.1.18-.14.28,0a3.69,3.69,0,0,0,2.36,1c1.16,0,2.14-.62,2.14-1.71s-.93-1.64-2.47-2.16-2.46-1-2.46-2.51c0-1,.76-2.26,2.75-2.26a4.18,4.18,0,0,1,2.19.65.19.19,0,0,1,0,.27l-.1.17c-.06.11-.15.14-.28.06a3.79,3.79,0,0,0-1.87-.6c-1.57,0-2.16,1-2.16,1.7,0,1.08.83,1.55,2.12,2,1.74.6,2.85,1.21,2.85,2.69s-1.31,2.27-2.78,2.27a4.13,4.13,0,0,1-2.7-1C39.65,126.5,39.58,126.44,39.68,126.3Z"/><path class="cls-2" d="M49.34,121.47A2.58,2.58,0,0,1,52,124.14c0,.23,0,.58-.21.58H47.06a2.33,2.33,0,0,0,2.28,2.35,3.21,3.21,0,0,0,1.81-.58c.13-.08.19-.09.26,0l.14.21c.05,0,0,.16-.06.23a3.82,3.82,0,0,1-2.15.69,3.08,3.08,0,0,1,0-6.15Zm2.08,2.72A2,2,0,0,0,49.34,122a2.24,2.24,0,0,0-2.26,2.18Z"/><path class="cls-2" d="M55.93,130.27a3,3,0,0,1-2-.76c-.09-.09-.08-.14,0-.22l.13-.17c.07-.09.14-.09.25,0a2.82,2.82,0,0,0,1.63.6A1.93,1.93,0,0,0,58,127.63V127a2.87,2.87,0,0,1-1.79.61,2.94,2.94,0,0,1-2.93-3.1,2.85,2.85,0,0,1,2.79-3,3.21,3.21,0,0,1,1.95.66c0-.37.2-.59.37-.59s.17.07.17.21v5.88A2.47,2.47,0,0,1,55.93,130.27ZM58,122.79a2.65,2.65,0,0,0-1.9-.78,2.34,2.34,0,0,0-2.26,2.5,2.39,2.39,0,0,0,2.38,2.56,2.74,2.74,0,0,0,1.78-.71Z"/><path class="cls-2" d="M60.57,121.78a.2.2,0,0,1,.19-.19H61a.18.18,0,0,1,.18.19v3.3c0,1.37.46,2,1.67,2A2.28,2.28,0,0,0,64.66,126v-4.2a.17.17,0,0,1,.19-.19H65a.2.2,0,0,1,.18.19v5.55c0,.14,0,.2-.16.2s-.37-.24-.37-.65v-.13a2.47,2.47,0,0,1-1.93.87c-1.65,0-2.19-.88-2.19-2.54Z"/><path class="cls-2" d="M67.3,121.75c0-.14,0-.21.17-.21s.37.24.37.65v.13a2.39,2.39,0,0,1,1.84-.85,2.62,2.62,0,0,1,.92.16.2.2,0,0,1,.15.27l-.07.23a.16.16,0,0,1-.24.08,1.72,1.72,0,0,0-.79-.2,2.15,2.15,0,0,0-1.79,1v4.27a.17.17,0,0,1-.19.19h-.2a.17.17,0,0,1-.17-.19Z"/><path class="cls-2" d="M71.83,119.48a.5.5,0,0,1,.51-.5.49.49,0,0,1,.49.5.48.48,0,0,1-.49.48A.49.49,0,0,1,71.83,119.48Zm.24,2.3a.19.19,0,0,1,.19-.19h.18a.2.2,0,0,1,.19.19v5.51a.17.17,0,0,1-.19.19h-.21c-.11,0-.16-.09-.16-.19Z"/><path class="cls-2" d="M77.15,121.47A3.2,3.2,0,0,1,79,122v-3.29a.18.18,0,0,1,.19-.19h.2a.2.2,0,0,1,.17.19v8.58c0,.14,0,.2-.16.2s-.37-.24-.37-.65v-.09a3,3,0,1,1-1.89-5.32Zm-.12,5.6a2.43,2.43,0,0,0,2-1v-3.4a2.8,2.8,0,0,0-1.78-.67,2.42,2.42,0,0,0-2.36,2.53A2.36,2.36,0,0,0,77,127.07Z"/><path class="cls-2" d="M83.64,123.68a5.36,5.36,0,0,1,1.52.27c0-1.18-.31-2-1.57-2a4.23,4.23,0,0,0-1.52.39.16.16,0,0,1-.23-.09l-.07-.17a.16.16,0,0,1,.09-.22,3.82,3.82,0,0,1,1.78-.43c1.77,0,2.08,1.16,2.08,2.56v3.3c0,.14,0,.2-.17.2s-.37-.24-.37-.65v-.09h0a3.06,3.06,0,0,1-2.06.84,1.83,1.83,0,0,1-1.92-2C81.19,124.54,82.1,123.68,83.64,123.68Zm-.47,3.39a2.8,2.8,0,0,0,2-.89v-1.69a4,4,0,0,0-1.52-.31c-1.12,0-1.9.61-1.9,1.48A1.37,1.37,0,0,0,83.17,127.07Z"/><path class="cls-2" d="M90.24,121.47a3.2,3.2,0,0,1,1.86.57v-3.29a.18.18,0,0,1,.19-.19h.19a.2.2,0,0,1,.18.19v8.58c0,.14,0,.2-.16.2s-.37-.24-.37-.65v-.09a2.91,2.91,0,0,1-2,.83,2.86,2.86,0,0,1-2.68-3.08A2.89,2.89,0,0,1,90.24,121.47Zm-.13,5.6a2.44,2.44,0,0,0,2-1v-3.4a2.8,2.8,0,0,0-1.78-.67A2.42,2.42,0,0,0,88,124.54,2.36,2.36,0,0,0,90.11,127.07Z"/><path class="cls-2" d="M100.31,121.47a3.24,3.24,0,0,1,1.86.57v-3.29a.18.18,0,0,1,.19-.19h.19a.2.2,0,0,1,.18.19v8.58c0,.14,0,.2-.16.2s-.37-.24-.37-.65v-.09a2.94,2.94,0,0,1-2.06.83,2.85,2.85,0,0,1-2.67-3.08A2.89,2.89,0,0,1,100.31,121.47Zm-.13,5.6a2.46,2.46,0,0,0,2-1v-3.4a2.8,2.8,0,0,0-1.78-.67A2.42,2.42,0,0,0,98,124.54,2.36,2.36,0,0,0,100.18,127.07Z"/><path class="cls-2" d="M107.31,121.47a2.58,2.58,0,0,1,2.63,2.67c0,.23,0,.58-.21.58H105a2.32,2.32,0,0,0,2.28,2.35,3.27,3.27,0,0,0,1.81-.58c.12-.08.19-.09.25,0l.14.21s0,.16-.06.23a3.79,3.79,0,0,1-2.14.69,3.08,3.08,0,0,1,0-6.15Zm2.07,2.72a2,2,0,0,0-2.07-2.18,2.24,2.24,0,0,0-2.27,2.18Z"/><path class="cls-2" d="M38.54,134.05a.18.18,0,0,1,.19-.19h.18a.2.2,0,0,1,.19.19v8.53a.17.17,0,0,1-.19.19H38.7c-.11,0-.16-.08-.16-.19Z"/><path class="cls-2" d="M43.78,136.76a3.08,3.08,0,1,1-3,3.06A3,3,0,0,1,43.78,136.76Zm0,5.61a2.53,2.53,0,1,0-2.4-2.55A2.45,2.45,0,0,0,43.78,142.37Z"/><path class="cls-2" d="M48,142.05l.12-.21c0-.09.16-.1.27,0a2.63,2.63,0,0,0,1.6.57c.89,0,1.47-.43,1.47-1.06s-.72-1-1.71-1.36S48,139.19,48,138.26c0-.63.54-1.5,1.89-1.5a3.2,3.2,0,0,1,1.65.45.2.2,0,0,1,.08.26l-.08.14c-.05.11-.15.11-.25,0a3.48,3.48,0,0,0-1.4-.38c-.93,0-1.33.53-1.33,1,0,.59.59.91,1.45,1.22,1.1.41,2,.74,2,1.86,0,.9-.84,1.58-2,1.58a3,3,0,0,1-1.92-.65C48,142.21,47.94,142.14,48,142.05Z"/><path class="cls-2" d="M56.91,134a.17.17,0,0,1,.17-.16h2.74a2.87,2.87,0,1,1,0,5.74H57.51v3c0,.09-.07.16-.2.16h-.23a.17.17,0,0,1-.17-.16Zm2.88,5a2.28,2.28,0,0,0,2.31-2.32,2.23,2.23,0,0,0-2.32-2.25H57.51V139Z"/><path class="cls-2" d="M64.15,137c0-.14,0-.2.17-.2s.37.24.37.65v.12a2.4,2.4,0,0,1,1.85-.85,2.52,2.52,0,0,1,.91.17.2.2,0,0,1,.16.26l-.08.23c0,.12-.14.13-.24.08a1.72,1.72,0,0,0-.79-.19,2.17,2.17,0,0,0-1.79,1v4.27a.17.17,0,0,1-.19.19h-.2c-.12,0-.17-.08-.17-.19Z"/><path class="cls-2" d="M71.23,136.76a3.08,3.08,0,1,1-3,3.06A3,3,0,0,1,71.23,136.76Zm0,5.61a2.53,2.53,0,1,0-2.4-2.55A2.45,2.45,0,0,0,71.23,142.37Z"/><path class="cls-2" d="M78.38,136.76a3.24,3.24,0,0,1,1.86.57v-3.28a.17.17,0,0,1,.19-.19h.19a.2.2,0,0,1,.18.19v8.57c0,.14,0,.2-.17.2s-.37-.24-.37-.64v-.09a2.93,2.93,0,0,1-2.05.82,2.86,2.86,0,0,1-2.68-3.08A2.91,2.91,0,0,1,78.38,136.76Zm-.13,5.61a2.43,2.43,0,0,0,2-1V138a2.86,2.86,0,0,0-1.79-.66,2.41,2.41,0,0,0-2.35,2.52A2.36,2.36,0,0,0,78.25,142.37Z"/><path class="cls-2" d="M82.82,137.08a.2.2,0,0,1,.2-.19h.19a.19.19,0,0,1,.18.19v3.3c0,1.36.45,2,1.66,2a2.26,2.26,0,0,0,1.86-1.1v-4.19c0-.13.07-.19.2-.19h.19a.2.2,0,0,1,.18.19v5.54c0,.14-.06.2-.17.2s-.37-.24-.37-.64v-.13a2.49,2.49,0,0,1-1.92.86c-1.66,0-2.2-.88-2.2-2.53Z"/><path class="cls-2" d="M92.23,136.76a2.88,2.88,0,0,1,2.17.9.19.19,0,0,1,0,.27l-.1.1c-.11.12-.21.08-.32,0a2.56,2.56,0,0,0-1.73-.7,2.53,2.53,0,1,0,1.87,4.15.17.17,0,0,1,.28,0l.12.1c.07.08.09.15,0,.23a3,3,0,0,1-2.31,1.13,3.08,3.08,0,0,1,0-6.15Z"/><path class="cls-2" d="M95.77,137.44c-.15,0-.19-.08-.19-.2V137c0-.11.08-.15.19-.15h.72v-1.61a.2.2,0,0,1,.2-.19h.17a.19.19,0,0,1,.19.19v1.62h2.07a.2.2,0,0,1,.21.19v.16a.19.19,0,0,1-.21.2H97.05v3.74c0,.77.25,1.19,1,1.19A2.19,2.19,0,0,0,99.2,142a.15.15,0,0,1,.23,0l.1.18a.16.16,0,0,1,0,.23,2.66,2.66,0,0,1-1.44.49c-1.2,0-1.55-.77-1.55-1.73v-3.74Z"/><path class="cls-2" d="M103.23,136.76a3.08,3.08,0,1,1-3,3.06A3,3,0,0,1,103.23,136.76Zm0,5.61a2.53,2.53,0,1,0-2.4-2.55A2.46,2.46,0,0,0,103.23,142.37Z"/><path class="cls-2" d="M107.45,142.05l.11-.21a.17.17,0,0,1,.27,0,2.67,2.67,0,0,0,1.61.57c.89,0,1.46-.43,1.46-1.06s-.71-1-1.71-1.36-1.75-.78-1.75-1.71c0-.63.53-1.5,1.88-1.5a3.25,3.25,0,0,1,1.66.45.19.19,0,0,1,.07.26l-.07.14c0,.11-.16.11-.26,0a3.42,3.42,0,0,0-1.4-.38c-.93,0-1.32.53-1.32,1,0,.59.58.91,1.45,1.22,1.09.41,2,.74,2,1.86,0,.9-.84,1.58-2,1.58a3,3,0,0,1-1.93-.65A.16.16,0,0,1,107.45,142.05Z"/><path class="cls-1" d="M60.91,53.44a.71.71,0,0,1-.75-.74v-3A3.68,3.68,0,0,1,63.87,46h3a.74.74,0,1,1,0,1.48h-3a2.28,2.28,0,0,0-2.22,2.23v3a.7.7,0,0,1-.74.74m28.18,0a.7.7,0,0,1-.74-.74v-3a2.28,2.28,0,0,0-2.22-2.23h-3a.74.74,0,1,1,0-1.48h3a3.68,3.68,0,0,1,3.71,3.71v3a.71.71,0,0,1-.75.74M65.36,65.31a.71.71,0,0,1-.75-.75V51.21a.75.75,0,0,1,1.49,0V64.56a.71.71,0,0,1-.74.75m4.45,0a.7.7,0,0,1-.74-.75V51.21a.74.74,0,0,1,1.48,0V64.56a.71.71,0,0,1-.74.75m3,0a.71.71,0,0,1-.74-.75V51.21a.75.75,0,0,1,1.49,0V64.56a.71.71,0,0,1-.75.75m3,0a.71.71,0,0,1-.74-.75V51.21a.74.74,0,1,1,1.48,0V64.56a.7.7,0,0,1-.74.75m5.94,0a.71.71,0,0,1-.75-.75V51.21a.75.75,0,0,1,1.49,0V64.56a.71.71,0,0,1-.74.75m3,0a.71.71,0,0,1-.74-.75V51.21a.74.74,0,1,1,1.48,0V64.56a.7.7,0,0,1-.74.75m-17.8,4.45h-3a3.68,3.68,0,0,1-3.71-3.71v-3a.75.75,0,0,1,1.49,0v3a2.27,2.27,0,0,0,2.22,2.22h3a.75.75,0,0,1,0,1.49m19.29,0h-3a.75.75,0,0,1,0-1.49h3a2.27,2.27,0,0,0,2.22-2.22v-3a.75.75,0,0,1,1.49,0v3a3.68,3.68,0,0,1-3.71,3.71"/></g></g></svg>