<svg xmlns="http://www.w3.org/2000/svg" viewBox="0 0 150 165"><defs><style>.cls-1{fill:#387c2b;}.cls-2{fill:#fff;}</style></defs><g id="Layer_2" data-name="Layer 2"><g id="Layer_1-2" data-name="Layer 1"><rect class="cls-1" width="150" height="165"/><circle class="cls-2" cx="75" cy="57.6" r="38.5"/><path class="cls-2" d="M17.11,118.73a.17.17,0,0,1,.16-.17h.28a.18.18,0,0,1,.17.17v8.58a.17.17,0,0,1-.18.17h-.27a.17.17,0,0,1-.16-.17Z"/><path class="cls-2" d="M20,121.75c0-.14.05-.21.17-.21s.37.24.37.65v.16a2.77,2.77,0,0,1,2.05-.88c1.67,0,2.21,1,2.21,2.57v3.25a.19.19,0,0,1-.19.19h-.18a.2.2,0,0,1-.19-.19v-3.23c0-1.36-.54-2-1.68-2a2.66,2.66,0,0,0-2,1v4.27a.17.17,0,0,1-.19.19h-.2a.17.17,0,0,1-.17-.19Z"/><path class="cls-2" d="M29.42,121.47a3.08,3.08,0,1,1-3,3A3,3,0,0,1,29.42,121.47Zm0,5.6a2.53,2.53,0,1,0-2.4-2.55A2.44,2.44,0,0,0,29.42,127.07Z"/><path class="cls-2" d="M36.75,121.47a2.83,2.83,0,0,1,2.16.9.18.18,0,0,1,0,.27l-.1.1c-.12.12-.22.08-.32,0a2.56,2.56,0,0,0-1.73-.7,2.53,2.53,0,1,0,1.87,4.16.17.17,0,0,1,.28,0l.11.11a.16.16,0,0,1,0,.23,3,3,0,0,1-2.3,1.13,3.08,3.08,0,0,1,0-6.15Z"/><path class="cls-2" d="M40.47,121.78a.2.2,0,0,1,.19-.19h.19a.19.19,0,0,1,.18.19v3.3c0,1.37.46,2,1.67,2A2.28,2.28,0,0,0,44.56,126v-4.2a.17.17,0,0,1,.19-.19h.19a.2.2,0,0,1,.18.19v5.55c0,.14,0,.2-.17.2s-.37-.24-.37-.65v-.13a2.44,2.44,0,0,1-1.92.87c-1.66,0-2.19-.88-2.19-2.54Z"/><path class="cls-2" d="M47,119.48a.5.5,0,0,1,.51-.5.49.49,0,0,1,.49.5.48.48,0,0,1-.49.48A.49.49,0,0,1,47,119.48Zm.24,2.3a.18.18,0,0,1,.19-.19h.18a.2.2,0,0,1,.19.19v5.51a.17.17,0,0,1-.19.19h-.21c-.11,0-.16-.09-.16-.19Z"/><path class="cls-2" d="M52.3,121.47a3.24,3.24,0,0,1,1.86.57v-3.29a.18.18,0,0,1,.19-.19h.19a.21.21,0,0,1,.18.19v8.58c0,.14-.06.2-.17.2s-.37-.24-.37-.65v-.09a3,3,0,1,1-1.88-5.32Zm-.13,5.6a2.48,2.48,0,0,0,2-1v-3.4a2.84,2.84,0,0,0-1.79-.67A2.42,2.42,0,0,0,50,124.54,2.36,2.36,0,0,0,52.17,127.07Z"/><path class="cls-2" d="M58.78,123.68a5.36,5.36,0,0,1,1.52.27c0-1.18-.31-2-1.57-2a4.09,4.09,0,0,0-1.51.39c-.13.05-.2,0-.23-.09l-.08-.17a.16.16,0,0,1,.09-.22,3.87,3.87,0,0,1,1.78-.43c1.77,0,2.08,1.16,2.08,2.56v3.3c0,.14,0,.2-.17.2s-.37-.24-.37-.65v-.09h0a3,3,0,0,1-2.06.84,1.83,1.83,0,0,1-1.91-2C56.34,124.54,57.24,123.68,58.78,123.68Zm-.47,3.39a2.8,2.8,0,0,0,2-.89v-1.69a4,4,0,0,0-1.52-.31c-1.12,0-1.9.61-1.9,1.48A1.37,1.37,0,0,0,58.31,127.07Z"/><path class="cls-2" d="M65.38,121.47a3.2,3.2,0,0,1,1.86.57v-3.29a.18.18,0,0,1,.19-.19h.2a.2.2,0,0,1,.17.19v8.58c0,.14,0,.2-.16.2s-.37-.24-.37-.65v-.09a3,3,0,1,1-1.89-5.32Zm-.12,5.6a2.43,2.43,0,0,0,2-1v-3.4a2.8,2.8,0,0,0-1.78-.67,2.42,2.42,0,0,0-2.36,2.53A2.36,2.36,0,0,0,65.26,127.07Z"/><path class="cls-2" d="M72,127.33l3.92-8.81a.19.19,0,0,1,.16-.09h0a.17.17,0,0,1,.16.09l3.89,8.81c0,.07,0,.15-.12.15h-.33a.21.21,0,0,1-.18-.11l-1-2.35H73.6l-1,2.35a.21.21,0,0,1-.18.11h-.36C72,127.48,71.92,127.43,72,127.33Zm6.3-2.81-2.18-5.07h0l-2.22,5.07Z"/><path class="cls-2" d="M81.43,118.75a.19.19,0,0,1,.19-.19h.18a.2.2,0,0,1,.19.19v8.54a.17.17,0,0,1-.19.19h-.21c-.11,0-.16-.09-.16-.19Z"/><path class="cls-2" d="M83.85,119.48a.5.5,0,0,1,.51-.5.5.5,0,0,1,.5.5.48.48,0,0,1-.5.48A.49.49,0,0,1,83.85,119.48Zm.24,2.3a.19.19,0,0,1,.19-.19h.18a.2.2,0,0,1,.19.19v5.51a.17.17,0,0,1-.19.19h-.2a.17.17,0,0,1-.17-.19Z"/><path class="cls-2" d="M86.71,121.75c0-.14.05-.21.16-.21s.37.24.37.65v.14a2.4,2.4,0,0,1,1.93-.86,1.94,1.94,0,0,1,1.82,1,2.61,2.61,0,0,1,2.06-1c1.61,0,2.13,1.08,2.13,2.59v3.23a.19.19,0,0,1-.19.19h-.22c-.09,0-.15-.06-.15-.19v-3.23c0-1.36-.51-2-1.62-2a2.25,2.25,0,0,0-1.82,1,3.47,3.47,0,0,1,.11,1v3.23a.2.2,0,0,1-.19.19h-.19a.17.17,0,0,1-.18-.19v-3.23c0-1.36-.52-2-1.63-2a2.1,2.1,0,0,0-1.83,1v4.27a.17.17,0,0,1-.19.19h-.21c-.11,0-.16-.09-.16-.19Z"/><path class="cls-2" d="M99.69,121.47a2.58,2.58,0,0,1,2.64,2.67c0,.23,0,.58-.22.58h-4.7a2.33,2.33,0,0,0,2.28,2.35,3.24,3.24,0,0,0,1.81-.58c.13-.08.19-.09.26,0l.14.21s0,.16-.07.23a3.76,3.76,0,0,1-2.14.69,3.08,3.08,0,0,1,0-6.15Zm2.08,2.72A2,2,0,0,0,99.69,122a2.26,2.26,0,0,0-2.27,2.18Z"/><path class="cls-2" d="M104,121.75c0-.14.06-.21.17-.21s.37.24.37.65v.16a2.79,2.79,0,0,1,2-.88c1.67,0,2.22,1,2.22,2.57v3.25a.2.2,0,0,1-.19.19h-.18a.2.2,0,0,1-.19-.19v-3.23c0-1.36-.55-2-1.68-2a2.66,2.66,0,0,0-2,1v4.27c0,.13-.07.19-.2.19h-.2a.17.17,0,0,1-.17-.19Z"/><path class="cls-2" d="M110.23,122.14c-.15,0-.19-.08-.19-.19v-.2c0-.12.08-.16.19-.16H111V120a.19.19,0,0,1,.2-.19l.17,0a.19.19,0,0,1,.19.2v1.61h2.07a.2.2,0,0,1,.21.19V122a.19.19,0,0,1-.21.19h-2.07v3.75c0,.76.25,1.18,1,1.18a2.19,2.19,0,0,0,1.15-.41.15.15,0,0,1,.23.06l.1.17a.16.16,0,0,1,0,.23,2.66,2.66,0,0,1-1.44.5c-1.2,0-1.55-.78-1.55-1.73v-3.75Z"/><path class="cls-2" d="M117.38,123.68a5.28,5.28,0,0,1,1.52.27c0-1.18-.31-2-1.57-2a4.23,4.23,0,0,0-1.52.39.15.15,0,0,1-.22-.09l-.08-.17a.16.16,0,0,1,.09-.22,3.87,3.87,0,0,1,1.78-.43c1.77,0,2.08,1.16,2.08,2.56v3.3c0,.14,0,.2-.17.2s-.37-.24-.37-.65v-.09h0a3,3,0,0,1-2.06.84,1.83,1.83,0,0,1-1.91-2C114.94,124.54,115.84,123.68,117.38,123.68Zm-.47,3.39a2.8,2.8,0,0,0,2-.89v-1.69a4,4,0,0,0-1.52-.31c-1.12,0-1.9.61-1.9,1.48A1.37,1.37,0,0,0,116.91,127.07Z"/><path class="cls-2" d="M121.5,121.75c0-.14,0-.21.16-.21s.37.24.37.65v.13a2.42,2.42,0,0,1,1.85-.85,2.73,2.73,0,0,1,.92.16.2.2,0,0,1,.15.27l-.07.23a.17.17,0,0,1-.25.08,1.64,1.64,0,0,0-.79-.2,2.14,2.14,0,0,0-1.78,1v4.27a.17.17,0,0,1-.19.19h-.21c-.11,0-.16-.09-.16-.19Z"/><path class="cls-2" d="M126,119.48a.5.5,0,0,1,.51-.5.5.5,0,0,1,.5.5.48.48,0,0,1-.5.48A.49.49,0,0,1,126,119.48Zm.24,2.3a.19.19,0,0,1,.2-.19h.17a.21.21,0,0,1,.2.19v5.51c0,.13-.07.19-.2.19h-.2a.17.17,0,0,1-.17-.19Z"/><path class="cls-2" d="M130.81,123.68a5.28,5.28,0,0,1,1.52.27c0-1.18-.31-2-1.57-2a4.15,4.15,0,0,0-1.51.39.15.15,0,0,1-.23-.09l-.08-.17c-.05-.12,0-.18.09-.22a3.87,3.87,0,0,1,1.78-.43c1.78,0,2.08,1.16,2.08,2.56v3.3c0,.14,0,.2-.16.2s-.37-.24-.37-.65v-.09h0a3,3,0,0,1-2.06.84,1.83,1.83,0,0,1-1.91-2C128.37,124.54,129.27,123.68,130.81,123.68Zm-.47,3.39a2.8,2.8,0,0,0,2-.89v-1.69a4,4,0,0,0-1.52-.31c-1.12,0-1.89.61-1.89,1.48A1.36,1.36,0,0,0,130.34,127.07Z"/><path class="cls-1" d="M78.3,72.45a6.5,6.5,0,0,1-2.16-.37,5.37,5.37,0,0,1-.56-.21h0a1.56,1.56,0,0,0-1.18,0l-.51.19a6.67,6.67,0,0,1-7.32-2,16.59,16.59,0,0,1-3.78-9.2,11.51,11.51,0,0,1,.6-5.08c2.23-6.15,8-5.14,10.45-4.43a4,4,0,0,0,2.32,0c2.4-.71,8.22-1.71,10.45,4.43a11.44,11.44,0,0,1,.6,5.06A16.57,16.57,0,0,1,83.46,70,6.74,6.74,0,0,1,78.3,72.45ZM76,71l.51.19a5.73,5.73,0,0,0,6.24-1.77,15.65,15.65,0,0,0,3.51-8.65,10.38,10.38,0,0,0-.54-4.62c-1.87-5.15-6.58-4.6-9.23-3.81a5,5,0,0,1-2.88,0C70.91,51.5,66.2,51,64.33,56.1a10.48,10.48,0,0,0-.54,4.65,15.57,15.57,0,0,0,3.54,8.65,5.71,5.71,0,0,0,6.24,1.73L74,71A2.51,2.51,0,0,1,76,71Zm8.16-9.86h0a.5.5,0,0,1-.45-.55,8,8,0,0,0-.39-3.42,3.66,3.66,0,0,0-3.82-2.74,9,9,0,0,0-2.42.38.5.5,0,0,1-.62-.33.5.5,0,0,1,.34-.63,9.87,9.87,0,0,1,2.7-.42,4.65,4.65,0,0,1,4.76,3.4,8.88,8.88,0,0,1,.44,3.85A.5.5,0,0,1,84.11,61.09ZM73.34,50.56a.5.5,0,0,1-.49-.4,7.24,7.24,0,0,1,1.08-6l.24-.31,2.29,1-.39.51a5.53,5.53,0,0,0-.93,2.93.5.5,0,0,1-.5.48h0a.51.51,0,0,1-.48-.52,6.92,6.92,0,0,1,.81-3l-.46-.2A6.53,6.53,0,0,0,73.83,50a.51.51,0,0,1-.39.59Zm4,0a.5.5,0,0,1-.5-.48.51.51,0,0,1,.49-.52,8.09,8.09,0,0,0,4.59-1.36A5.49,5.49,0,0,0,84,44.56a6.48,6.48,0,0,0-7.91,4.34.5.5,0,0,1-.62.33.51.51,0,0,1-.33-.63c0-.07,2.21-6.88,9.53-4.91l.36.1v.38A6.39,6.39,0,0,1,82.52,49a9,9,0,0,1-5.16,1.56Z"/></g></g></svg>