<svg xmlns="http://www.w3.org/2000/svg" viewBox="0 0 150 165"><defs><style>.cls-1{fill:#f47b20;}.cls-2{fill:#fff;}</style></defs><g id="Layer_2" data-name="Layer 2"><g id="Layer_1-2" data-name="Layer 1"><rect class="cls-1" width="150" height="165"/><circle class="cls-2" cx="75" cy="57.6" r="38.5"/><path class="cls-2" d="M40.31,118.6a.18.18,0,0,1,.17-.17h2.74a2.88,2.88,0,1,1,0,5.75H40.91v3c0,.09-.07.16-.2.16h-.23a.17.17,0,0,1-.17-.16Zm2.88,5a2.27,2.27,0,0,0,2.31-2.32A2.22,2.22,0,0,0,43.18,119H40.91v4.56Z"/><path class="cls-2" d="M47.55,121.62c0-.14.05-.21.17-.21s.37.25.37.65v.13a2.4,2.4,0,0,1,1.85-.85,2.87,2.87,0,0,1,.91.16.21.21,0,0,1,.16.27l-.08.23c0,.12-.14.13-.24.08a1.72,1.72,0,0,0-.79-.19,2.15,2.15,0,0,0-1.79,1v4.27a.17.17,0,0,1-.19.19h-.2a.17.17,0,0,1-.17-.19Z"/><path class="cls-2" d="M54.63,121.34a3.08,3.08,0,1,1-3,3.06A3,3,0,0,1,54.63,121.34Zm0,5.6a2.53,2.53,0,1,0-2.4-2.54A2.44,2.44,0,0,0,54.63,126.94Z"/><path class="cls-2" d="M58.67,122c-.16,0-.19-.07-.19-.19v-.2c0-.12.07-.15.19-.15h.71v-1.61a.2.2,0,0,1,.21-.19h.16c.1,0,.19.09.19.19v1.62H62a.19.19,0,0,1,.2.19v.16a.18.18,0,0,1-.2.19H59.94v3.75c0,.76.26,1.18,1,1.18a2.24,2.24,0,0,0,1.14-.4c.13-.08.2,0,.23,0l.11.18a.17.17,0,0,1,0,.23,2.78,2.78,0,0,1-1.44.49c-1.2,0-1.56-.77-1.56-1.73V122Z"/><path class="cls-2" d="M66.05,121.34A2.58,2.58,0,0,1,68.68,124c0,.23,0,.58-.21.58H63.76a2.33,2.33,0,0,0,2.29,2.35,3.2,3.2,0,0,0,1.8-.58c.13-.08.2-.09.26,0l.14.21a.16.16,0,0,1-.06.23,3.82,3.82,0,0,1-2.14.69,3.08,3.08,0,0,1,0-6.15Zm2.07,2.72a2,2,0,0,0-2.07-2.17,2.24,2.24,0,0,0-2.27,2.17Z"/><path class="cls-2" d="M73,121.34a2.84,2.84,0,0,1,2.17.9.19.19,0,0,1,0,.27l-.11.1c-.11.12-.21.08-.31,0a2.55,2.55,0,0,0-1.74-.7A2.53,2.53,0,1,0,74.88,126a.17.17,0,0,1,.28,0l.11.1a.17.17,0,0,1,0,.23A2.93,2.93,0,0,1,73,127.49a3.08,3.08,0,0,1,0-6.15Z"/><path class="cls-2" d="M79.45,121.34a2.86,2.86,0,0,1,2.17.9.19.19,0,0,1,0,.27l-.11.1c-.11.12-.21.08-.31,0a2.55,2.55,0,0,0-1.74-.7A2.53,2.53,0,1,0,81.33,126a.17.17,0,0,1,.28,0l.11.1a.17.17,0,0,1,0,.23,2.93,2.93,0,0,1-2.31,1.13,3.08,3.08,0,0,1,0-6.15Z"/><path class="cls-2" d="M83,119.35a.5.5,0,0,1,.51-.5.5.5,0,0,1,.5.5.48.48,0,0,1-.5.48A.49.49,0,0,1,83,119.35Zm.24,2.31a.19.19,0,0,1,.2-.19h.17a.2.2,0,0,1,.19.19v5.5a.17.17,0,0,1-.19.19h-.2a.17.17,0,0,1-.17-.19Z"/><path class="cls-2" d="M88.44,121.34a3.08,3.08,0,1,1-3,3.06A3,3,0,0,1,88.44,121.34Zm0,5.6A2.53,2.53,0,1,0,86,124.4,2.45,2.45,0,0,0,88.44,126.94Zm-1-6.74a.17.17,0,0,1-.26-.09.21.21,0,0,1,.09-.28l2-1.1a.26.26,0,0,1,.37.12c.09.18.07.35-.11.42Z"/><path class="cls-2" d="M93.1,121.62c0-.14.05-.21.17-.21s.37.25.37.65v.16a2.81,2.81,0,0,1,2-.88c1.67,0,2.22,1,2.22,2.57v3.25a.2.2,0,0,1-.2.19h-.17a.19.19,0,0,1-.19-.19v-3.22c0-1.37-.55-2-1.69-2a2.72,2.72,0,0,0-2,1v4.27a.17.17,0,0,1-.19.19h-.2a.17.17,0,0,1-.17-.19Z"/><path class="cls-2" d="M105,123.56a5.47,5.47,0,0,1,1.52.26c0-1.18-.31-2-1.57-2a4,4,0,0,0-1.52.4.16.16,0,0,1-.23-.09l-.07-.18a.16.16,0,0,1,.09-.22,4,4,0,0,1,1.78-.43c1.77,0,2.08,1.16,2.08,2.56v3.3c0,.14,0,.2-.17.2s-.37-.24-.37-.65v-.09h0a3,3,0,0,1-2.06.84,1.83,1.83,0,0,1-1.92-1.95C102.53,124.41,103.44,123.56,105,123.56Zm-.47,3.38a2.8,2.8,0,0,0,2-.89v-1.69a4,4,0,0,0-1.52-.31c-1.12,0-1.9.61-1.9,1.48A1.37,1.37,0,0,0,104.51,126.94Z"/><path class="cls-2" d="M109.12,118.62a.19.19,0,0,1,.19-.19h.18a.2.2,0,0,1,.19.19v8.54a.17.17,0,0,1-.19.19h-.2a.17.17,0,0,1-.17-.19Z"/><path class="cls-2" d="M46.83,133.6a4.37,4.37,0,0,1,3.09,1.18.16.16,0,0,1,0,.23l-.2.22c-.08.08-.14.06-.22,0a4,4,0,1,0-2.68,7,4,4,0,0,0,2.68-1.07c.08-.06.16-.08.21,0l.21.22a.14.14,0,0,1,0,.22,4.38,4.38,0,0,1-3.1,1.23,4.59,4.59,0,1,1,0-9.17Z"/><path class="cls-2" d="M54.1,136.63a3.08,3.08,0,1,1-3,3.06A3,3,0,0,1,54.1,136.63Zm0,5.61a2.53,2.53,0,1,0-2.39-2.55A2.45,2.45,0,0,0,54.1,142.24Z"/><path class="cls-2" d="M58.77,136.91c0-.14,0-.2.16-.2s.37.24.37.65v.15a2.83,2.83,0,0,1,2.05-.88c1.67,0,2.22,1,2.22,2.58v3.24a.2.2,0,0,1-.19.2H63.2a.2.2,0,0,1-.19-.2v-3.22c0-1.36-.55-2-1.68-2a2.66,2.66,0,0,0-2,1v4.26a.18.18,0,0,1-.19.2h-.21c-.11,0-.16-.09-.16-.2Z"/><path class="cls-2" d="M65.14,141.92l.11-.2a.17.17,0,0,1,.27,0,2.7,2.7,0,0,0,1.61.57c.89,0,1.46-.43,1.46-1s-.71-1-1.7-1.37-1.76-.77-1.76-1.7c0-.64.53-1.51,1.88-1.51a3.21,3.21,0,0,1,1.66.45.21.21,0,0,1,.08.27l-.08.14c0,.1-.15.1-.25,0a3.34,3.34,0,0,0-1.41-.39c-.93,0-1.32.53-1.32,1,0,.59.58.91,1.45,1.23,1.1.4,2,.74,2,1.86,0,.89-.84,1.58-2,1.58a3.07,3.07,0,0,1-1.93-.65A.17.17,0,0,1,65.14,141.92Z"/><path class="cls-2" d="M70.59,137a.2.2,0,0,1,.2-.19H71a.19.19,0,0,1,.18.19v3.3c0,1.36.45,2,1.66,2a2.24,2.24,0,0,0,1.86-1.1V137c0-.13.07-.19.2-.19h.19a.2.2,0,0,1,.18.19v5.54c0,.14-.06.21-.17.21s-.37-.25-.37-.65v-.13a2.46,2.46,0,0,1-1.92.87c-1.66,0-2.2-.88-2.2-2.54Z"/><path class="cls-2" d="M77.32,136.91c0-.14.06-.2.17-.2s.37.24.37.65v.14a2.4,2.4,0,0,1,1.92-.87,1.93,1.93,0,0,1,1.83,1.05,2.59,2.59,0,0,1,2.06-1.05c1.6,0,2.13,1.09,2.13,2.6v3.22a.19.19,0,0,1-.19.2h-.22c-.09,0-.15-.07-.15-.2v-3.22c0-1.36-.51-2-1.62-2a2.25,2.25,0,0,0-1.82,1,3.59,3.59,0,0,1,.11,1v3.22a.21.21,0,0,1-.19.2h-.19c-.12,0-.18-.07-.18-.2v-3.22c0-1.36-.52-2-1.63-2a2.14,2.14,0,0,0-1.84,1v4.26c0,.13-.06.2-.19.2h-.2a.18.18,0,0,1-.17-.2Z"/><path class="cls-2" d="M87.58,134.65a.5.5,0,0,1,.51-.5.49.49,0,1,1,0,1A.5.5,0,0,1,87.58,134.65Zm.25,2.3a.18.18,0,0,1,.19-.19h.18a.2.2,0,0,1,.19.19v5.5a.18.18,0,0,1-.19.2H88c-.11,0-.16-.09-.16-.2Z"/><path class="cls-2" d="M92.91,136.63a3.2,3.2,0,0,1,1.86.58v-3.29a.18.18,0,0,1,.19-.19h.19a.2.2,0,0,1,.18.19v8.57c0,.14,0,.21-.16.21s-.37-.25-.37-.65V142a3,3,0,0,1-2.06.83,2.86,2.86,0,0,1-2.67-3.09A2.9,2.9,0,0,1,92.91,136.63Zm-.13,5.61a2.41,2.41,0,0,0,2-1v-3.4a2.82,2.82,0,0,0-1.78-.66,2.42,2.42,0,0,0-2.36,2.52A2.36,2.36,0,0,0,92.78,142.24Z"/><path class="cls-2" d="M100,136.63a3.08,3.08,0,1,1-3,3.06A3,3,0,0,1,100,136.63Zm0,5.61a2.53,2.53,0,1,0-2.4-2.55A2.45,2.45,0,0,0,100,142.24Z"/><path class="cls-2" d="M104.66,136.91c0-.14,0-.2.17-.2s.37.24.37.65v.13a2.39,2.39,0,0,1,1.84-.86,2.59,2.59,0,0,1,.92.17.2.2,0,0,1,.15.26l-.07.23c0,.12-.14.13-.24.08a1.77,1.77,0,0,0-.79-.19,2.15,2.15,0,0,0-1.79,1v4.26c0,.13-.06.2-.19.2h-.2c-.12,0-.17-.09-.17-.2Z"/><path class="cls-1" d="M83.32,71.58h0a.5.5,0,0,1-.45-.54c.24-2.5,1.58-4.24,2.88-5.92A19.45,19.45,0,0,0,87.76,62c1.31-2.64,1.28-6,1.26-8.91a27.62,27.62,0,0,0-.31-4.42l0-.24c-.07-.42-.24-1.54-.61-1.7-.2-.09-.27,0-.3,0-.32.22-.83,1.24-.67,5.62a4.88,4.88,0,0,1,0,.51.53.53,0,0,1-.51.48.51.51,0,0,1-.49-.51,3.8,3.8,0,0,0,0-.45c-.1-2.76,0-5.69,1.11-6.47a1.23,1.23,0,0,1,1.26-.08c.88.38,1.08,1.69,1.19,2.47l0,.22A28.57,28.57,0,0,1,90,53.08c0,3.09,0,6.54-1.37,9.4a19.64,19.64,0,0,1-2.16,3.24c-1.27,1.64-2.46,3.19-2.67,5.4A.5.5,0,0,1,83.32,71.58Zm-16.64,0a.5.5,0,0,1-.5-.46c-.21-2.21-1.4-3.76-2.67-5.4a19.64,19.64,0,0,1-2.16-3.24C59.93,59.63,60,56.17,60,53.12a29.47,29.47,0,0,1,.32-4.59l0-.23c.12-.77.31-2.08,1.19-2.46a1.25,1.25,0,0,1,1.27.08c1.15.78,1.2,3.71,1.1,6.48a3.62,3.62,0,0,0,0,.44.51.51,0,0,1-.49.51h0a.48.48,0,0,1-.5-.48,4.88,4.88,0,0,1,0-.51c.16-4.38-.35-5.4-.67-5.62,0,0-.1-.07-.3,0-.37.16-.54,1.27-.61,1.69l0,.25A26.94,26.94,0,0,0,61,53.08c0,3,0,6.31,1.26,9a19.45,19.45,0,0,0,2.06,3.08c1.3,1.68,2.64,3.42,2.88,5.92a.5.5,0,0,1-.45.54ZM77,71.48a.5.5,0,0,1-.5-.5,17.72,17.72,0,0,0-.33-2.77c-.42-2.39-.85-4.85,1.27-7a10.76,10.76,0,0,1,1.8-1.38,11,11,0,0,0,1.46-1.08,12,12,0,0,0,1.67-2c.26-.36.52-.72.79-1.07l.13-.17c.56-.72,1.6-2.07,2.78-1.67.67.22,1.34,1,.79,3.25a11.3,11.3,0,0,1-2.09,3.84,13.46,13.46,0,0,0-1.68,2.71.5.5,0,0,1-.92-.38A14.94,14.94,0,0,1,84,60.33a10.33,10.33,0,0,0,1.93-3.49c.28-1.15.22-1.94-.14-2.06s-1.32.88-1.66,1.33l-.14.18c-.27.33-.52.68-.77,1a12.86,12.86,0,0,1-1.8,2.19,12.48,12.48,0,0,1-1.59,1.17,10.55,10.55,0,0,0-1.65,1.26c-1.75,1.75-1.38,3.86-1,6.09a18.27,18.27,0,0,1,.35,3,.5.5,0,0,1-.5.5Zm-4,0h0a.5.5,0,0,1-.5-.5,18.27,18.27,0,0,1,.35-3c.39-2.23.76-4.34-1-6.09a10.55,10.55,0,0,0-1.65-1.26,12.48,12.48,0,0,1-1.59-1.17,13.42,13.42,0,0,1-1.81-2.19c-.25-.35-.49-.7-.76-1l-.14-.18c-.35-.45-1.16-1.5-1.66-1.33s-.42.91-.14,2.06a10.33,10.33,0,0,0,1.93,3.49,14.94,14.94,0,0,1,1.79,2.92.5.5,0,0,1-.92.38,13.92,13.92,0,0,0-1.68-2.71,11.3,11.3,0,0,1-2.09-3.84c-.55-2.28.12-3,.79-3.25,1.18-.4,2.22,1,2.77,1.67l.14.17c.27.35.53.71.79,1.07a12.38,12.38,0,0,0,1.67,2,11,11,0,0,0,1.46,1.08,10.76,10.76,0,0,1,1.8,1.38c2.12,2.13,1.69,4.59,1.27,7A17.72,17.72,0,0,0,73.51,71,.5.5,0,0,1,73,71.48Zm2-12.64a.45.45,0,0,1-.25-.07l-.2-.11c-.33-.2-8.15-4.8-8.15-9.82a4.73,4.73,0,0,1,4.81-4.64A4.89,4.89,0,0,1,75,46a4.89,4.89,0,0,1,3.79-1.78,4.73,4.73,0,0,1,4.81,4.64c0,5-7.82,9.62-8.15,9.82l-.2.11A.43.43,0,0,1,75,58.84ZM71.21,45.2a3.73,3.73,0,0,0-3.81,3.64c0,3.53,4.94,7.36,7.6,8.92.67-.4,7.6-4.66,7.6-8.92a3.73,3.73,0,0,0-3.81-3.64,3.82,3.82,0,0,0-3.35,1.91.52.52,0,0,1-.87,0A3.85,3.85,0,0,0,71.21,45.2Zm9.24,4.14a.5.5,0,0,1-.5-.5,1.13,1.13,0,0,0-1.16-1.09.5.5,0,0,1-.5-.5.5.5,0,0,1,.5-.5A2.12,2.12,0,0,1,81,48.84.5.5,0,0,1,80.45,49.34Z"/></g></g></svg>