<svg xmlns="http://www.w3.org/2000/svg" viewBox="0 0 150 165"><defs><style>.cls-1{fill:#fdb71a;}.cls-2{fill:#fff;}</style></defs><g id="Layer_2" data-name="Layer 2"><g id="Layer_1-2" data-name="Layer 1"><rect class="cls-1" width="150" height="165"/><circle class="cls-2" cx="75" cy="57.6" r="38.5"/><path class="cls-2" d="M34.89,127.33l3.93-8.81a.17.17,0,0,1,.15-.09h0a.16.16,0,0,1,.16.09l3.89,8.81c0,.07,0,.15-.11.15h-.34a.2.2,0,0,1-.17-.11l-1-2.35H36.54l-1,2.35a.21.21,0,0,1-.18.11H35Q34.85,127.48,34.89,127.33Zm6.3-2.81L39,119.45h0l-2.21,5.07Z"/><path class="cls-2" d="M44.31,121.75c0-.14,0-.21.17-.21s.37.24.37.65v.16a2.77,2.77,0,0,1,2-.88c1.67,0,2.22,1,2.22,2.57v3.25a.2.2,0,0,1-.2.19h-.17a.2.2,0,0,1-.2-.19v-3.23c0-1.36-.54-2-1.68-2a2.66,2.66,0,0,0-2,1v4.27a.17.17,0,0,1-.19.19h-.2a.17.17,0,0,1-.17-.19Z"/><path class="cls-2" d="M50.56,122.14c-.16,0-.19-.08-.19-.19v-.2c0-.12.07-.16.19-.16h.71V120a.19.19,0,0,1,.2-.19l.17,0a.19.19,0,0,1,.19.2v1.61h2.08a.19.19,0,0,1,.2.19V122a.18.18,0,0,1-.2.19H51.83v3.75c0,.76.26,1.18,1,1.18a2.18,2.18,0,0,0,1.14-.41.15.15,0,0,1,.23.06l.11.17a.16.16,0,0,1-.06.23,2.62,2.62,0,0,1-1.43.5c-1.2,0-1.56-.78-1.56-1.73v-3.75Z"/><path class="cls-2" d="M55.39,119.48a.5.5,0,0,1,.51-.5.49.49,0,0,1,.49.5.48.48,0,0,1-.49.48A.49.49,0,0,1,55.39,119.48Zm.24,2.3a.19.19,0,0,1,.19-.19H56a.2.2,0,0,1,.19.19v5.51a.17.17,0,0,1-.19.19h-.21c-.11,0-.16-.09-.16-.19Z"/><path class="cls-2" d="M58.24,121.75c0-.14,0-.21.17-.21s.37.24.37.65v.14a2.4,2.4,0,0,1,1.92-.86,1.92,1.92,0,0,1,1.82,1,2.63,2.63,0,0,1,2.07-1c1.6,0,2.12,1.08,2.12,2.59v3.23a.18.18,0,0,1-.19.19h-.21c-.09,0-.16-.06-.16-.19v-3.23c0-1.36-.51-2-1.61-2a2.3,2.3,0,0,0-1.83,1,3.46,3.46,0,0,1,.12,1v3.23a.2.2,0,0,1-.19.19h-.19c-.12,0-.18-.06-.18-.19v-3.23c0-1.36-.52-2-1.63-2a2.14,2.14,0,0,0-1.84,1v4.27a.17.17,0,0,1-.19.19h-.2a.17.17,0,0,1-.17-.19Z"/><path class="cls-2" d="M71.33,121.47a3.08,3.08,0,1,1-3,3A3,3,0,0,1,71.33,121.47Zm0,5.6a2.53,2.53,0,1,0-2.4-2.55A2.45,2.45,0,0,0,71.33,127.07Z"/><path class="cls-2" d="M76,121.75c0-.14,0-.21.17-.21s.37.24.37.65v.16a2.77,2.77,0,0,1,2-.88c1.67,0,2.22,1,2.22,2.57v3.25a.2.2,0,0,1-.2.19h-.17a.19.19,0,0,1-.19-.19v-3.23c0-1.36-.55-2-1.69-2a2.69,2.69,0,0,0-2,1v4.27a.17.17,0,0,1-.19.19h-.2a.17.17,0,0,1-.17-.19Z"/><path class="cls-2" d="M85.39,121.47a3.08,3.08,0,1,1-3,3A3,3,0,0,1,85.39,121.47Zm0,5.6a2.53,2.53,0,1,0-2.4-2.55A2.44,2.44,0,0,0,85.39,127.07Z"/><path class="cls-2" d="M90.61,130.32a.21.21,0,0,1-.2.19h-.17a.19.19,0,0,1-.19-.19v-8.57c0-.14,0-.21.17-.21s.34.22.37.59a3.21,3.21,0,0,1,2-.66,2.85,2.85,0,0,1,2.79,3,3,3,0,0,1-2.93,3.1,2.84,2.84,0,0,1-1.79-.61Zm0-4a2.73,2.73,0,0,0,1.77.71,2.4,2.4,0,0,0,2.39-2.56,2.34,2.34,0,0,0-2.26-2.5,2.65,2.65,0,0,0-1.9.78Z"/><path class="cls-2" d="M99.64,121.47a3.08,3.08,0,1,1-3,3A3,3,0,0,1,99.64,121.47Zm0,5.6a2.53,2.53,0,1,0-2.4-2.55A2.44,2.44,0,0,0,99.64,127.07Z"/><path class="cls-2" d="M104.34,118.75a.18.18,0,0,1,.19-.19h.18a.2.2,0,0,1,.19.19v8.54a.17.17,0,0,1-.19.19h-.21c-.11,0-.16-.09-.16-.19Z"/><path class="cls-2" d="M106.76,119.48a.5.5,0,0,1,.51-.5.5.5,0,0,1,.5.5.48.48,0,0,1-.5.48A.49.49,0,0,1,106.76,119.48Zm.24,2.3a.19.19,0,0,1,.19-.19h.18a.2.2,0,0,1,.19.19v5.51a.17.17,0,0,1-.19.19h-.2a.17.17,0,0,1-.17-.19Z"/><path class="cls-2" d="M112.16,121.47a3.08,3.08,0,1,1-3,3A3,3,0,0,1,112.16,121.47Zm0,5.6a2.53,2.53,0,1,0-2.39-2.55A2.44,2.44,0,0,0,112.16,127.07Z"/><path class="cls-1" d="M72,47.5h1.49V46H72Zm13.36,0h1.48V46H85.39ZM63.13,56.4h1.49V54.92H63.13ZM73.52,49v8.9h.74a.7.7,0,0,1,.74.74v.74h8.9v-.74a.7.7,0,0,1,.74-.74h.75V49h-.75a.7.7,0,0,1-.74-.74V47.5H75v.75a.7.7,0,0,1-.74.74ZM72,60.86h1.49V59.37H72Zm13.36,0h1.48V59.37H85.39Zm-20.77-3v8.9h.74a.7.7,0,0,1,.74.74v.74H75v-.74a.7.7,0,0,1,.74-.74h.74V60.86H75v.74a.7.7,0,0,1-.74.74h-3a.7.7,0,0,1-.74-.74v-3a.7.7,0,0,1,.74-.74H72V56.4H66.1v.75a.7.7,0,0,1-.74.74ZM63.13,69.76h1.49V68.27H63.13Zm13.35,0H78V68.27H76.48Zm2.23,1.48h-3A.7.7,0,0,1,75,70.5v-.74H66.1v.74a.7.7,0,0,1-.74.74h-3a.7.7,0,0,1-.74-.74v-3a.7.7,0,0,1,.74-.74h.74v-8.9h-.74a.7.7,0,0,1-.74-.74v-3a.7.7,0,0,1,.74-.74h3a.7.7,0,0,1,.74.74v.74H72V49h-.74a.7.7,0,0,1-.74-.74v-3a.7.7,0,0,1,.74-.74h3a.7.7,0,0,1,.74.74V46h8.9v-.74a.7.7,0,0,1,.74-.74h3a.69.69,0,0,1,.74.74v3a.7.7,0,0,1-.74.74h-.74v8.9h.74a.7.7,0,0,1,.74.74v3a.7.7,0,0,1-.74.74h-3a.7.7,0,0,1-.74-.74v-.74H78v5.93h.74a.7.7,0,0,1,.74.74v3a.7.7,0,0,1-.74.74"/></g></g></svg>