<svg xmlns="http://www.w3.org/2000/svg" viewBox="0 0 221.9 80.61"><defs><style>.cls-1{fill:none;stroke:#fff;stroke-miterlimit:8.95;stroke-width:0.31px;}</style></defs><g id="Layer_2" data-name="Layer 2"><g id="Layer_1-2" data-name="Layer 1"><path class="cls-1" d="M.15,21.69a1.61,1.61,0,0,1,1.62-1.61H36.38A1.61,1.61,0,0,1,38,21.69v7a1.61,1.61,0,0,1-1.61,1.61H11.21V44.23h21a1.67,1.67,0,0,1,1.62,1.61V52.9a1.62,1.62,0,0,1-1.62,1.62h-21V69.4H36.38A1.61,1.61,0,0,1,38,71v7a1.61,1.61,0,0,1-1.61,1.61H1.77A1.61,1.61,0,0,1,.15,78ZM10.44,10,24.81.52c1.45-.94,3.58,0,4.6,2s1,4.34-.43,5L13.25,14.8c-.94.43-2.13-.34-2.81-1.61S9.85,10.47,10.44,10Z"/><path class="cls-1" d="M57.29,30.28h-13a1.61,1.61,0,0,1-1.61-1.61v-7a1.61,1.61,0,0,1,1.61-1.61H81.45a1.61,1.61,0,0,1,1.61,1.61v7a1.61,1.61,0,0,1-1.61,1.61h-13V78a1.66,1.66,0,0,1-1.61,1.61H58.91A1.67,1.67,0,0,1,57.29,78Z"/><path class="cls-1" d="M91.05,21.69a1.67,1.67,0,0,1,1.62-1.61h7.9a1.66,1.66,0,0,1,1.62,1.61V78a1.66,1.66,0,0,1-1.62,1.61h-7.9A1.67,1.67,0,0,1,91.05,78Z"/><path class="cls-1" d="M142.41,19.23A28.77,28.77,0,0,1,163,27.14a1.58,1.58,0,0,1,.09,2.38l-5.19,5.35a1.37,1.37,0,0,1-2.13,0,20.13,20.13,0,0,0-13.09-5c-10.89,0-19,9.1-19,19.81s8.17,19.64,19,19.64a20.41,20.41,0,0,0,13-4.84,1.57,1.57,0,0,1,2.13,0l5.27,5.44a1.62,1.62,0,0,1-.08,2.29,29.18,29.18,0,0,1-20.67,8.25,30.61,30.61,0,1,1,0-61.22Z"/><path class="cls-1" d="M165.2,77.39l26.44-57.23a1.53,1.53,0,0,1,1.45-.93h.85a1.43,1.43,0,0,1,1.44.93l26.2,57.23a1.5,1.5,0,0,1-1.45,2.21h-7.4a2.44,2.44,0,0,1-2.46-1.7l-4.17-9.18H180.67l-4.16,9.18A2.57,2.57,0,0,1,174,79.6h-7.4A1.5,1.5,0,0,1,165.2,77.39Zm36.73-18.11-8.5-18.71h-.26l-8.33,18.71Z"/></g></g></svg>