<svg xmlns="http://www.w3.org/2000/svg" viewBox="0 0 484.98 61.54"><defs><style>.cls-1{fill:none;stroke:#fff;stroke-miterlimit:8.95;stroke-width:0.31px;}</style></defs><g id="Layer_2" data-name="Layer 2"><g id="Layer_1-2" data-name="Layer 1"><path class="cls-1" d="M.15,2.62A1.68,1.68,0,0,1,1.77,1H9.68a1.67,1.67,0,0,1,1.61,1.62v56.3a1.67,1.67,0,0,1-1.61,1.61H1.77A1.68,1.68,0,0,1,.15,58.92Z"/><path class="cls-1" d="M24.3,1.68A1.6,1.6,0,0,1,25.92.15h1.27a1.86,1.86,0,0,1,1.45.6l34.69,37h.17V2.62A1.62,1.62,0,0,1,65.12,1h7.82a1.68,1.68,0,0,1,1.62,1.62V59.85a1.6,1.6,0,0,1-1.62,1.53H71.75a1.87,1.87,0,0,1-1.44-.59L35.44,22.35h-.17V58.92a1.61,1.61,0,0,1-1.61,1.61H25.92a1.68,1.68,0,0,1-1.62-1.61Z"/><path class="cls-1" d="M97.17,11.21h-13a1.62,1.62,0,0,1-1.61-1.62v-7A1.62,1.62,0,0,1,84.16,1h37.16a1.62,1.62,0,0,1,1.62,1.62v7a1.62,1.62,0,0,1-1.62,1.62h-13V58.92a1.67,1.67,0,0,1-1.61,1.61H98.79a1.68,1.68,0,0,1-1.62-1.61Z"/><path class="cls-1" d="M130.93,2.62A1.62,1.62,0,0,1,132.55,1h34.61a1.62,1.62,0,0,1,1.61,1.62v7a1.62,1.62,0,0,1-1.61,1.62H142v14h21a1.67,1.67,0,0,1,1.62,1.61v7.06A1.62,1.62,0,0,1,163,35.44H142V50.33h25.18a1.61,1.61,0,0,1,1.61,1.61v7a1.61,1.61,0,0,1-1.61,1.61H132.55a1.62,1.62,0,0,1-1.62-1.61Z"/><path class="cls-1" d="M205.5.15a32.14,32.14,0,0,1,20.75,7.91,1.65,1.65,0,0,1,.09,2.38L221.06,16a1.45,1.45,0,0,1-2.21,0A19.26,19.26,0,0,0,206,11c-10.63,0-19,9.1-19,19.73A19.34,19.34,0,0,0,206.1,50.24a26.64,26.64,0,0,0,10.12-2.12V40.89h-6.81a1.54,1.54,0,0,1-1.61-1.53V32.64A1.56,1.56,0,0,1,209.41,31h16.33a1.6,1.6,0,0,1,1.53,1.62V54.41a1.64,1.64,0,0,1-.68,1.36A43,43,0,0,1,205.5,61.3a30.58,30.58,0,0,1,0-61.15Z"/><path class="cls-1" d="M238.07,2.62A1.62,1.62,0,0,1,239.68,1H264a18.42,18.42,0,0,1,18.54,18.29c0,7.82-5.18,14.2-12.58,17.18l11.65,21.59a1.61,1.61,0,0,1-1.45,2.47h-8.93a1.45,1.45,0,0,1-1.36-.77L258.56,37.23h-9.44V58.92a1.67,1.67,0,0,1-1.61,1.61h-7.83a1.61,1.61,0,0,1-1.61-1.61Zm25,25.51a8.66,8.66,0,0,0,8.42-8.67,8.46,8.46,0,0,0-8.42-8.25H249.21V28.13Z"/><path class="cls-1" d="M292.74,2.62A1.68,1.68,0,0,1,294.36,1h7.91a1.67,1.67,0,0,1,1.61,1.62v56.3a1.67,1.67,0,0,1-1.61,1.61h-7.91a1.68,1.68,0,0,1-1.62-1.61Z"/><path class="cls-1" d="M316.89,2.62A1.6,1.6,0,0,1,318.42,1h20.16a29.77,29.77,0,1,1,0,59.53H318.42a1.6,1.6,0,0,1-1.53-1.61Zm20.66,47.54c11.06,0,19.14-7.83,19.14-19.48s-8.08-19.39-19.14-19.39h-9.69V50.16Z"/><path class="cls-1" d="M370.88,58.32,397.33,1.09a1.54,1.54,0,0,1,1.45-.94h.85a1.44,1.44,0,0,1,1.44.94l26.19,57.23a1.5,1.5,0,0,1-1.44,2.21h-7.4a2.45,2.45,0,0,1-2.47-1.7l-4.16-9.18H386.36l-4.17,9.18a2.55,2.55,0,0,1-2.46,1.7h-7.4A1.5,1.5,0,0,1,370.88,58.32Zm36.74-18.11-8.5-18.71h-.26l-8.33,18.71Z"/><path class="cls-1" d="M433.3,2.62A1.6,1.6,0,0,1,434.83,1H455a29.77,29.77,0,1,1,0,59.53H434.83a1.6,1.6,0,0,1-1.53-1.61ZM454,50.16c11.06,0,19.13-7.83,19.13-19.48S465,11.29,454,11.29h-9.69V50.16Z"/></g></g></svg>