<svg xmlns="http://www.w3.org/2000/svg" viewBox="0 0 221.59 80.3"><defs><style>.cls-1{fill:#fff;}</style></defs><g id="Layer_2" data-name="Layer 2"><g id="Layer_1-2" data-name="Layer 1"><path class="cls-1" d="M0,21.54a1.62,1.62,0,0,1,1.62-1.62H36.23a1.62,1.62,0,0,1,1.61,1.62v7a1.62,1.62,0,0,1-1.61,1.62H11.06V44.07h21a1.67,1.67,0,0,1,1.61,1.62v7.06a1.61,1.61,0,0,1-1.61,1.61h-21V69.24H36.23a1.62,1.62,0,0,1,1.61,1.62v7a1.62,1.62,0,0,1-1.61,1.62H1.62A1.62,1.62,0,0,1,0,77.83ZM10.29,9.89,24.66.36c1.45-.93,3.57,0,4.59,2s1,4.34-.42,5L13.1,14.65c-.94.43-2.13-.34-2.81-1.62S9.69,10.31,10.29,9.89Z"/><path class="cls-1" d="M57.14,30.13h-13a1.62,1.62,0,0,1-1.62-1.62v-7a1.62,1.62,0,0,1,1.62-1.62H81.29a1.62,1.62,0,0,1,1.62,1.62v7a1.62,1.62,0,0,1-1.62,1.62h-13v47.7a1.67,1.67,0,0,1-1.61,1.62H58.76a1.68,1.68,0,0,1-1.62-1.62Z"/><path class="cls-1" d="M90.9,21.54a1.67,1.67,0,0,1,1.61-1.62h7.91A1.68,1.68,0,0,1,102,21.54V77.83a1.68,1.68,0,0,1-1.62,1.62H92.51a1.67,1.67,0,0,1-1.61-1.62Z"/><path class="cls-1" d="M142.26,19.07A28.78,28.78,0,0,1,162.84,27a1.58,1.58,0,0,1,.08,2.38l-5.18,5.36a1.37,1.37,0,0,1-2.13,0,20.11,20.11,0,0,0-13.1-5c-10.88,0-19,9.1-19,19.82s8.16,19.64,19,19.64a20.42,20.42,0,0,0,13-4.85,1.58,1.58,0,0,1,2.13,0L163,69.75a1.62,1.62,0,0,1-.09,2.3,29.18,29.18,0,0,1-20.66,8.25,30.62,30.62,0,1,1,0-61.23Z"/><path class="cls-1" d="M165,77.24,191.49,20a1.54,1.54,0,0,1,1.45-.94h.85a1.44,1.44,0,0,1,1.44.94l26.19,57.23A1.5,1.5,0,0,1,220,79.45h-7.4a2.45,2.45,0,0,1-2.47-1.7L206,68.56H180.52l-4.17,9.19a2.55,2.55,0,0,1-2.46,1.7h-7.4A1.5,1.5,0,0,1,165,77.24Zm36.74-18.12-8.5-18.7H193l-8.33,18.7Z"/></g></g></svg>