<svg xmlns="http://www.w3.org/2000/svg" viewBox="0 0 484.68 61.23"><defs><style>.cls-1{fill:#fff;}</style></defs><g id="Layer_2" data-name="Layer 2"><g id="Layer_1-2" data-name="Layer 1"><path class="cls-1" d="M0,2.47A1.68,1.68,0,0,1,1.62.85h7.9a1.67,1.67,0,0,1,1.62,1.62V58.76a1.67,1.67,0,0,1-1.62,1.62H1.62A1.68,1.68,0,0,1,0,58.76Z"/><path class="cls-1" d="M24.15,1.53A1.59,1.59,0,0,1,25.76,0H27a1.9,1.9,0,0,1,1.45.59l34.69,37h.17V2.47A1.62,1.62,0,0,1,65,.85h7.82a1.68,1.68,0,0,1,1.62,1.62V59.7a1.6,1.6,0,0,1-1.62,1.53H71.6a1.86,1.86,0,0,1-1.45-.6L35.29,22.19h-.17V58.76a1.62,1.62,0,0,1-1.62,1.62H25.76a1.67,1.67,0,0,1-1.61-1.62Z"/><path class="cls-1" d="M97,11.05H84a1.61,1.61,0,0,1-1.62-1.61v-7A1.62,1.62,0,0,1,84,.85h37.16a1.62,1.62,0,0,1,1.62,1.62v7a1.61,1.61,0,0,1-1.62,1.61h-13V58.76a1.68,1.68,0,0,1-1.62,1.62h-7.9A1.68,1.68,0,0,1,97,58.76Z"/><path class="cls-1" d="M130.78,2.47A1.62,1.62,0,0,1,132.39.85H167a1.62,1.62,0,0,1,1.62,1.62v7A1.61,1.61,0,0,1,167,11.05H141.83V25h21a1.67,1.67,0,0,1,1.61,1.62v7.05a1.61,1.61,0,0,1-1.61,1.62h-21V50.17H167a1.62,1.62,0,0,1,1.62,1.62v7A1.62,1.62,0,0,1,167,60.38H132.39a1.62,1.62,0,0,1-1.61-1.62Z"/><path class="cls-1" d="M205.35,0A32.16,32.16,0,0,1,226.1,7.91a1.64,1.64,0,0,1,.08,2.38l-5.27,5.53a1.45,1.45,0,0,1-2.21,0,19.24,19.24,0,0,0-12.84-4.94c-10.63,0-19.05,9.1-19.05,19.73A19.35,19.35,0,0,0,206,50.09,26.54,26.54,0,0,0,216.06,48V40.73h-6.8a1.54,1.54,0,0,1-1.61-1.53V32.48a1.56,1.56,0,0,1,1.61-1.61h16.33a1.59,1.59,0,0,1,1.53,1.61V54.25a1.63,1.63,0,0,1-.68,1.36,43,43,0,0,1-21.09,5.53,30.57,30.57,0,0,1,0-61.14Z"/><path class="cls-1" d="M237.91,2.47A1.62,1.62,0,0,1,239.53.85h24.32a18.42,18.42,0,0,1,18.54,18.28c0,7.83-5.19,14.2-12.59,17.18l11.65,21.6A1.61,1.61,0,0,1,280,60.38h-8.93a1.45,1.45,0,0,1-1.36-.77L258.41,37.08H249V58.76a1.68,1.68,0,0,1-1.62,1.62h-7.82a1.62,1.62,0,0,1-1.62-1.62Zm25,25.51a8.66,8.66,0,0,0,8.41-8.68,8.46,8.46,0,0,0-8.41-8.25H249.05V28Z"/><path class="cls-1" d="M292.59,2.47A1.67,1.67,0,0,1,294.2.85h7.91a1.68,1.68,0,0,1,1.62,1.62V58.76a1.68,1.68,0,0,1-1.62,1.62H294.2a1.67,1.67,0,0,1-1.61-1.62Z"/><path class="cls-1" d="M316.74,2.47A1.6,1.6,0,0,1,318.27.85h20.15a29.77,29.77,0,1,1,0,59.53H318.27a1.6,1.6,0,0,1-1.53-1.62ZM337.4,50c11.06,0,19.13-7.82,19.13-19.47s-8.07-19.39-19.13-19.39h-9.69V50Z"/><path class="cls-1" d="M370.73,58.17,397.18.93A1.52,1.52,0,0,1,398.62,0h.85a1.45,1.45,0,0,1,1.45.93l26.19,57.24a1.5,1.5,0,0,1-1.45,2.21h-7.39a2.45,2.45,0,0,1-2.47-1.71l-4.17-9.18H386.21L382,58.67a2.55,2.55,0,0,1-2.47,1.71h-7.39A1.5,1.5,0,0,1,370.73,58.17Zm36.74-18.12L399,21.34h-.25l-8.34,18.71Z"/><path class="cls-1" d="M433.14,2.47A1.6,1.6,0,0,1,434.67.85h20.16a29.77,29.77,0,1,1,0,59.53H434.67a1.6,1.6,0,0,1-1.53-1.62ZM453.81,50c11.05,0,19.13-7.82,19.13-19.47s-8.08-19.39-19.13-19.39h-9.7V50Z"/></g></g></svg>