<svg xmlns="http://www.w3.org/2000/svg" viewBox="0 0 39.58 67.45"><defs><style>.cls-1{fill:#fff;}</style></defs><g id="Layer_2" data-name="Layer 2"><g id="Layer_1-2" data-name="Layer 1"><path class="cls-1" d="M38.08,67.45H1.5A1.5,1.5,0,0,1,0,66V19.28a8.25,8.25,0,0,1,6.86-8V1.5A1.5,1.5,0,0,1,8.36,0H31.23a1.5,1.5,0,0,1,1.5,1.5v9.74a8.25,8.25,0,0,1,6.85,8V66A1.5,1.5,0,0,1,38.08,67.45ZM3,64.45H36.58V19.28a5.27,5.27,0,0,0-5.35-5.17H8.36A5.27,5.27,0,0,0,3,19.28ZM9.86,11.11H29.73V3H9.86Zm.79,47.45a1.5,1.5,0,0,1-1.5-1.5V34.84a1.5,1.5,0,0,1,3,0V57.06A1.5,1.5,0,0,1,10.65,58.56Zm0-31.11A1.5,1.5,0,0,1,9.15,26V21.5a1.5,1.5,0,0,1,3,0V26A1.51,1.51,0,0,1,10.65,27.45Z"/></g></g></svg>