<svg xmlns="http://www.w3.org/2000/svg" viewBox="0 0 407.78 18.44"><defs><style>.cls-1{fill:#4b5b6d;}.cls-2{fill:#fff;}.cls-3{fill:#7ac143;}.cls-4{fill:#a6bdd1;}.cls-5{fill:#00539b;}.cls-6{fill:#60b4c3;}</style></defs><g id="Layer_2" data-name="Layer 2"><g id="Layer_1-2" data-name="Layer 1"><path class="cls-1" d="M88.25,6.58a.16.16,0,0,1,.15-.16h1.88a1.79,1.79,0,1,1,0,3.57h-1v1.88a.15.15,0,0,1-.15.15H88.4a.15.15,0,0,1-.15-.15Zm2,2.44A.8.8,0,0,0,91,8.18a.76.76,0,0,0-.79-.77h-1V9Z"/><path class="cls-1" d="M92.43,8.46c0-.09.06-.16.19-.16a.55.55,0,0,1,.58.5,1.31,1.31,0,0,1,1-.55c.43,0,.79.12.69.36l-.24.54a.16.16,0,0,1-.22.08.69.69,0,0,0-.34-.07.8.8,0,0,0-.7.38v2.31c0,.13-.09.17-.21.17H92.6a.18.18,0,0,1-.17-.17Z"/><path class="cls-1" d="M96.82,8.25a1.93,1.93,0,1,1-1.89,1.92A1.91,1.91,0,0,1,96.82,8.25Zm0,2.95a1,1,0,0,0,1-1,1,1,0,0,0-1-1,1,1,0,0,0-1,1A1,1,0,0,0,96.82,11.2Z"/><path class="cls-1" d="M100.79,13.85a2.48,2.48,0,0,1-1.32-.41.17.17,0,0,1,0-.21l.24-.52a.14.14,0,0,1,.21-.05,1.88,1.88,0,0,0,.88.28c.57,0,.87-.19.87-.88V12a2.75,2.75,0,0,1-.88.15,1.81,1.81,0,0,1-1.83-1.93,1.8,1.8,0,0,1,1.76-1.93,1.58,1.58,0,0,1,1.18.52.55.55,0,0,1,.58-.47c.13,0,.19.07.19.16v3.6A1.7,1.7,0,0,1,100.79,13.85Zm.84-4.18a.83.83,0,0,0-.81-.51.92.92,0,0,0-.87,1,.94.94,0,0,0,.92,1,1.42,1.42,0,0,0,.76-.21Z"/><path class="cls-1" d="M103.29,8.46c0-.09.07-.16.19-.16a.56.56,0,0,1,.59.5,1.29,1.29,0,0,1,1-.55c.44,0,.8.12.69.36l-.24.54a.15.15,0,0,1-.21.08.77.77,0,0,0-.35-.07.82.82,0,0,0-.7.38v2.31c0,.13-.09.17-.21.17h-.61a.18.18,0,0,1-.18-.17Z"/><path class="cls-1" d="M107.66,8.25A1.65,1.65,0,0,1,109.35,10a2,2,0,0,1,0,.24.2.2,0,0,1-.18.17h-2.37a.89.89,0,0,0,.92.85,1.23,1.23,0,0,0,.8-.27.16.16,0,0,1,.24,0l.31.42a.16.16,0,0,1,0,.24,2.08,2.08,0,0,1-1.37.5,1.86,1.86,0,0,1-1.87-1.94A1.86,1.86,0,0,1,107.66,8.25Zm.69,1.46a.68.68,0,0,0-.72-.64.74.74,0,0,0-.78.64Z"/><path class="cls-1" d="M109.63,11.77a.16.16,0,0,1,0-.2l.24-.48A.14.14,0,0,1,110,11a1.49,1.49,0,0,0,.81.24c.28,0,.41-.1.41-.26s-.21-.32-.7-.52c-.71-.27-1-.6-1-1.16s.43-1.08,1.33-1.08a2,2,0,0,1,1.09.27.21.21,0,0,1,.09.26l-.21.42a.19.19,0,0,1-.24.07,1.73,1.73,0,0,0-.73-.18c-.25,0-.35.12-.35.24s.18.25.53.4c.71.28,1.22.54,1.22,1.28,0,.58-.5,1.1-1.43,1.1A2,2,0,0,1,109.63,11.77Z"/><path class="cls-1" d="M112.56,11.77a.17.17,0,0,1,0-.2l.24-.48A.13.13,0,0,1,113,11a1.53,1.53,0,0,0,.82.24c.28,0,.4-.1.4-.26s-.2-.32-.69-.52c-.71-.27-1-.6-1-1.16s.42-1.08,1.32-1.08a2,2,0,0,1,1.1.27.21.21,0,0,1,.08.26l-.21.42a.18.18,0,0,1-.23.07,1.78,1.78,0,0,0-.74-.18c-.24,0-.35.12-.35.24s.19.25.53.4c.71.28,1.22.54,1.22,1.28,0,.58-.49,1.1-1.42,1.1A2,2,0,0,1,112.56,11.77Z"/><rect class="cls-2" x="62.31" width="18.44" height="18.44"/><path class="cls-1" d="M28.49,6.34a3,3,0,0,1,2,.75.16.16,0,0,1,0,.22l-.5.52q-.09.11-.21,0a1.8,1.8,0,0,0-1.2-.46,1.84,1.84,0,0,0,0,3.68,2.43,2.43,0,0,0,1-.2v-.68h-.64A.15.15,0,0,1,28.7,10V9.4a.15.15,0,0,1,.16-.15h1.53a.15.15,0,0,1,.15.15v2a.15.15,0,0,1-.07.12,4,4,0,0,1-2,.52,2.88,2.88,0,0,1,0-5.75Z"/><path class="cls-1" d="M33.07,8.25a1.93,1.93,0,1,1-1.89,1.92A1.92,1.92,0,0,1,33.07,8.25Zm0,2.95a1,1,0,0,0,1-1,1,1,0,1,0-1.92,0A1,1,0,0,0,33.07,11.2Z"/><path class="cls-1" d="M36.85,9.69a2.75,2.75,0,0,1,.71.1.63.63,0,0,0-.69-.7,3.28,3.28,0,0,0-.86.14c-.12,0-.19-.05-.21-.16l-.08-.41a.18.18,0,0,1,.12-.23,3.75,3.75,0,0,1,1.08-.18,1.43,1.43,0,0,1,1.58,1.6v2c0,.08-.07.16-.2.16a.56.56,0,0,1-.55-.37,1.62,1.62,0,0,1-1.12.43,1.17,1.17,0,0,1-1.25-1.26C35.38,10.19,35.91,9.69,36.85,9.69Zm0,1.68a.8.8,0,0,0,.67-.4v-.54a1.52,1.52,0,0,0-.55-.11c-.42,0-.65.2-.65.53A.49.49,0,0,0,36.87,11.37Z"/><path class="cls-1" d="M39.38,6.6a.19.19,0,0,1,.17-.18h.65a.19.19,0,0,1,.18.18v5.25a.18.18,0,0,1-.18.17h-.65a.18.18,0,0,1-.17-.17Z"/><path class="cls-1" d="M41.18,11.77a.16.16,0,0,1,0-.2l.24-.48a.14.14,0,0,1,.22-.06,1.49,1.49,0,0,0,.81.24c.28,0,.41-.1.41-.26s-.21-.32-.7-.52c-.71-.27-1-.6-1-1.16s.43-1.08,1.33-1.08a2,2,0,0,1,1.09.27.21.21,0,0,1,.08.26l-.2.42a.18.18,0,0,1-.23.07,1.83,1.83,0,0,0-.74-.18c-.25,0-.35.12-.35.24s.18.25.53.4c.71.28,1.22.54,1.22,1.28,0,.58-.5,1.1-1.42,1.1A2,2,0,0,1,41.18,11.77Z"/><rect class="cls-3" width="18.44" height="18.44"/><path class="cls-4" d="M182,18.44a9.22,9.22,0,1,1,9.22-9.22A9.22,9.22,0,0,1,182,18.44"/><path class="cls-1" d="M201.26,6.34a2.72,2.72,0,0,1,1.94.75.14.14,0,0,1,0,.22l-.48.5a.12.12,0,0,1-.2,0,1.94,1.94,0,0,0-1.23-.47,1.86,1.86,0,0,0,0,3.71,2,2,0,0,0,1.23-.45.14.14,0,0,1,.2,0l.49.51a.15.15,0,0,1,0,.22,2.76,2.76,0,0,1-1.94.77,2.88,2.88,0,1,1,0-5.76Z"/><path class="cls-1" d="M205.62,8.25a1.93,1.93,0,1,1-1.88,1.92A1.92,1.92,0,0,1,205.62,8.25Zm0,2.95a1,1,0,0,0,1-1,1,1,0,1,0-1.93,0A1,1,0,0,0,205.62,11.2Z"/><path class="cls-1" d="M208.23,8.46c0-.09.06-.16.19-.16a.55.55,0,0,1,.58.47,1.53,1.53,0,0,1,1.19-.52c1.18,0,1.48.79,1.48,1.68v1.92a.18.18,0,0,1-.18.17h-.64a.18.18,0,0,1-.18-.17V9.93c0-.48-.19-.77-.64-.77a.82.82,0,0,0-.8.57v2.12c0,.13-.06.17-.23.17h-.59a.18.18,0,0,1-.18-.17Z"/><path class="cls-1" d="M212.46,11.77a.16.16,0,0,1-.05-.2l.24-.48a.14.14,0,0,1,.22-.06,1.53,1.53,0,0,0,.82.24c.28,0,.4-.1.4-.26s-.2-.32-.69-.52c-.71-.27-1-.6-1-1.16s.42-1.08,1.32-1.08a2,2,0,0,1,1.1.27.2.2,0,0,1,.08.25l-.21.43a.18.18,0,0,1-.23.07,1.78,1.78,0,0,0-.74-.18c-.24,0-.35.12-.35.24s.19.25.53.4c.71.28,1.22.54,1.22,1.28,0,.58-.49,1.1-1.42,1.1A2,2,0,0,1,212.46,11.77Z"/><path class="cls-1" d="M217.46,8.25a1.93,1.93,0,1,1-1.88,1.92A1.92,1.92,0,0,1,217.46,8.25Zm0,2.95a1,1,0,0,0,1-1,1,1,0,1,0-1.93,0A1,1,0,0,0,217.46,11.2Z"/><path class="cls-1" d="M220.08,6.6a.19.19,0,0,1,.17-.18h.65a.19.19,0,0,1,.18.18v5.25a.18.18,0,0,1-.18.17h-.65a.18.18,0,0,1-.17-.17Z"/><path class="cls-1" d="M221.89,7.06a.62.62,0,0,1,.63-.64.64.64,0,1,1-.63.64ZM222,8.5a.18.18,0,0,1,.18-.17h.64a.18.18,0,0,1,.18.17v3.35a.18.18,0,0,1-.18.17h-.64a.18.18,0,0,1-.18-.17Z"/><path class="cls-1" d="M225.58,8.25a2.89,2.89,0,0,1,.89.15V6.6a.19.19,0,0,1,.17-.18h.65a.19.19,0,0,1,.18.18v5.29a.17.17,0,0,1-.19.16.55.55,0,0,1-.58-.46,1.58,1.58,0,0,1-1.18.52,1.81,1.81,0,0,1-1.77-1.94A1.81,1.81,0,0,1,225.58,8.25Zm.89,1.12a1.48,1.48,0,0,0-.77-.21.93.93,0,0,0-.92,1,.93.93,0,0,0,.87,1,.86.86,0,0,0,.82-.51Z"/><path class="cls-1" d="M229.63,9.69a2.75,2.75,0,0,1,.71.1.63.63,0,0,0-.69-.7,3.28,3.28,0,0,0-.86.14c-.12,0-.19-.05-.21-.16l-.08-.42a.17.17,0,0,1,.12-.22,3.75,3.75,0,0,1,1.08-.18,1.43,1.43,0,0,1,1.58,1.6v2c0,.08-.07.16-.2.16a.56.56,0,0,1-.55-.37,1.62,1.62,0,0,1-1.12.43,1.17,1.17,0,0,1-1.25-1.26C228.16,10.19,228.69,9.69,229.63,9.69Zm0,1.68a.8.8,0,0,0,.67-.4v-.54a1.52,1.52,0,0,0-.55-.11c-.42,0-.65.2-.65.53A.49.49,0,0,0,229.65,11.37Z"/><path class="cls-1" d="M232.08,9.22a.18.18,0,0,1-.17-.17V8.5a.16.16,0,0,1,.17-.17h.36v-1a.18.18,0,0,1,.17-.17h.66a.17.17,0,0,1,.17.17v1h.86a.17.17,0,0,1,.18.17v.55a.18.18,0,0,1-.18.17h-.86v1.49c0,.36.16.5.39.5a1.53,1.53,0,0,0,.47-.08c.11,0,.19,0,.21.09l.1.48a.17.17,0,0,1-.1.22,2,2,0,0,1-.85.19,1.18,1.18,0,0,1-1.22-1.33V9.22Z"/><path class="cls-1" d="M236.87,8.25A1.65,1.65,0,0,1,238.56,10a2,2,0,0,1,0,.24.2.2,0,0,1-.18.17H236a.88.88,0,0,0,.92.85,1.22,1.22,0,0,0,.79-.27.16.16,0,0,1,.24,0l.31.42a.15.15,0,0,1,0,.23,2,2,0,0,1-1.37.51A1.86,1.86,0,0,1,235,10.17,1.86,1.86,0,0,1,236.87,8.25Zm.69,1.46a.68.68,0,0,0-.71-.64.74.74,0,0,0-.79.64Z"/><path class="cls-1" d="M240.84,8.25a2.89,2.89,0,0,1,.89.15V6.6a.19.19,0,0,1,.18-.18h.65a.18.18,0,0,1,.17.18v5.29a.17.17,0,0,1-.19.16.55.55,0,0,1-.58-.46,1.56,1.56,0,0,1-1.18.52A1.81,1.81,0,0,1,239,10.17,1.81,1.81,0,0,1,240.84,8.25Zm.89,1.12a1.44,1.44,0,0,0-.77-.21.92.92,0,0,0-.91,1,.92.92,0,0,0,.87,1,.85.85,0,0,0,.81-.51Z"/><path class="cls-1" d="M277.94,6.46a.14.14,0,0,1,.14-.12h.13a.17.17,0,0,1,.14.08l1.76,3.78h0l1.76-3.78a.14.14,0,0,1,.14-.08h.12a.14.14,0,0,1,.15.12l.94,5.38a.13.13,0,0,1-.14.18h-.73a.16.16,0,0,1-.15-.12l-.47-3h0L280.32,12a.12.12,0,0,1-.13.09H280a.13.13,0,0,1-.13-.09l-1.42-3.14h0l-.47,3a.14.14,0,0,1-.14.12h-.72a.14.14,0,0,1-.15-.18Z"/><path class="cls-1" d="M285.65,8.25a1.66,1.66,0,0,1,1.7,1.71,2.12,2.12,0,0,1,0,.24.19.19,0,0,1-.17.17h-2.37a.89.89,0,0,0,.92.85,1.2,1.2,0,0,0,.79-.27c.09-.07.18-.08.24,0l.31.42a.15.15,0,0,1,0,.23,2.06,2.06,0,0,1-1.38.51,1.87,1.87,0,0,1-1.87-1.94A1.86,1.86,0,0,1,285.65,8.25Zm.69,1.46a.67.67,0,0,0-.71-.64.74.74,0,0,0-.79.64Z"/><path class="cls-1" d="M287.68,11.75l1.17-1.61L287.73,8.6a.16.16,0,0,1,.12-.27h.73a.32.32,0,0,1,.3.12l.62,1h0l.63-1a.29.29,0,0,1,.28-.12h.78c.16,0,.2.15.11.27l-1.14,1.53,1.14,1.62c.09.12.05.27-.1.27h-.77a.26.26,0,0,1-.25-.15l-.68-1h0l-.72,1.1a.21.21,0,0,1-.15.07h-.83C287.64,12,287.6,11.87,287.68,11.75Z"/><path class="cls-1" d="M291.82,7.06a.62.62,0,0,1,.63-.64.64.64,0,1,1-.63.64ZM292,8.5a.18.18,0,0,1,.18-.17h.65a.17.17,0,0,1,.17.17v3.35a.18.18,0,0,1-.17.17h-.65a.18.18,0,0,1-.18-.17Z"/><path class="cls-1" d="M295.6,8.25a1.81,1.81,0,0,1,1.38.62c.08.08,0,.18,0,.26l-.34.37c-.08.09-.16.05-.24,0a1,1,0,0,0-.73-.32,1,1,0,0,0-1,1,1,1,0,0,0,1,1,1,1,0,0,0,.78-.41.18.18,0,0,1,.24,0l.35.3c.09.08.13.17.07.26a1.65,1.65,0,0,1-1.46.78,1.93,1.93,0,1,1,0-3.86Z"/><path class="cls-1" d="M299.35,8.25a1.93,1.93,0,1,1-1.89,1.92A1.91,1.91,0,0,1,299.35,8.25Zm0,2.95a1,1,0,0,0,1-1,1,1,0,0,0-1-1,1,1,0,0,0-1,1A1,1,0,0,0,299.35,11.2Z"/><path class="cls-5" d="M260.57,18.44a9.22,9.22,0,1,1,9.22-9.22,9.22,9.22,0,0,1-9.22,9.22"/><path class="cls-1" d="M355.61,6.35a2.67,2.67,0,0,1,1.93.74.14.14,0,0,1,0,.22l-.49.51a.12.12,0,0,1-.19,0,1.89,1.89,0,0,0-1.24-.47,1.86,1.86,0,0,0,0,3.71,2,2,0,0,0,1.23-.46.13.13,0,0,1,.19,0l.5.51a.16.16,0,0,1,0,.22,2.76,2.76,0,0,1-1.94.77,2.88,2.88,0,1,1,0-5.75Z"/><path class="cls-1" d="M360,8.25A1.65,1.65,0,0,1,361.64,10a1.94,1.94,0,0,1,0,.24.18.18,0,0,1-.17.17h-2.37a.89.89,0,0,0,.92.85,1.18,1.18,0,0,0,.79-.27c.09-.07.19-.08.24,0l.31.42a.15.15,0,0,1,0,.24,2.11,2.11,0,0,1-1.38.5,1.87,1.87,0,0,1-1.87-1.93A1.87,1.87,0,0,1,360,8.25Zm.68,1.46a.67.67,0,0,0-.71-.64.73.73,0,0,0-.78.64Z"/><path class="cls-1" d="M362.31,8.47a.18.18,0,0,1,.2-.17.55.55,0,0,1,.57.48,1.5,1.5,0,0,1,1.19-.53c1.18,0,1.48.79,1.48,1.69v1.91a.18.18,0,0,1-.17.17h-.65a.18.18,0,0,1-.18-.17V9.94c0-.48-.19-.78-.64-.78a.81.81,0,0,0-.8.58v2.11c0,.13-.05.17-.23.17h-.59a.18.18,0,0,1-.18-.17Z"/><path class="cls-1" d="M366.55,9.22a.17.17,0,0,1-.17-.17V8.51a.17.17,0,0,1,.17-.18h.36v-1a.18.18,0,0,1,.17-.18h.66a.18.18,0,0,1,.17.18v1h.86a.17.17,0,0,1,.18.18v.54a.18.18,0,0,1-.18.17h-.86v1.49c0,.36.16.51.39.51a1.51,1.51,0,0,0,.47-.09.15.15,0,0,1,.21.09l.1.48a.17.17,0,0,1-.1.22,2,2,0,0,1-.85.19,1.18,1.18,0,0,1-1.22-1.33V9.22Z"/><path class="cls-1" d="M369.7,8.47a.17.17,0,0,1,.19-.17.55.55,0,0,1,.58.5,1.33,1.33,0,0,1,1-.55c.44,0,.8.12.69.36l-.24.54a.15.15,0,0,1-.21.08.77.77,0,0,0-.35-.07.8.8,0,0,0-.7.38v2.31c0,.13-.09.17-.21.17h-.62a.18.18,0,0,1-.17-.17Z"/><path class="cls-1" d="M373.93,9.69a2.75,2.75,0,0,1,.71.1A.63.63,0,0,0,374,9.1a3.32,3.32,0,0,0-.86.13c-.12,0-.19-.05-.21-.16l-.08-.41a.18.18,0,0,1,.12-.23A3.75,3.75,0,0,1,374,8.25a1.43,1.43,0,0,1,1.58,1.61v2a.18.18,0,0,1-.2.17.55.55,0,0,1-.55-.38,1.62,1.62,0,0,1-1.12.43,1.17,1.17,0,0,1-1.25-1.26C372.46,10.19,373,9.69,373.93,9.69Zm0,1.68a.82.82,0,0,0,.67-.39v-.55a1.52,1.52,0,0,0-.55-.11c-.42,0-.65.2-.65.53A.49.49,0,0,0,374,11.37Z"/><path class="cls-1" d="M376.5,6.6a.18.18,0,0,1,.17-.17h.65a.18.18,0,0,1,.18.17v5.25a.18.18,0,0,1-.18.17h-.65a.18.18,0,0,1-.17-.17Z"/><path class="cls-1" d="M379.79,11.81l2.49-5.38a.17.17,0,0,1,.14-.08h.08a.13.13,0,0,1,.13.08l2.47,5.38A.15.15,0,0,1,385,12h-.7c-.12,0-.17,0-.23-.16l-.39-.86h-2.39l-.39.86a.24.24,0,0,1-.23.16h-.7A.15.15,0,0,1,379.79,11.81Zm3.46-1.7-.8-1.76h0l-.79,1.76Z"/><path class="cls-1" d="M385.55,8.47a.18.18,0,0,1,.2-.17.55.55,0,0,1,.57.46,1.41,1.41,0,0,1,1.11-.51,1.27,1.27,0,0,1,1.11.56,1.55,1.55,0,0,1,1.19-.56c1.18,0,1.46.75,1.46,1.71v1.89A.18.18,0,0,1,391,12h-.64a.18.18,0,0,1-.18-.17V9.94c0-.48-.17-.78-.64-.78a.72.72,0,0,0-.69.38s0,.19,0,.36v1.95a.18.18,0,0,1-.18.17h-.65a.18.18,0,0,1-.18-.17V9.94c0-.48-.13-.78-.6-.78a.73.73,0,0,0-.72.58v2.11a.18.18,0,0,1-.17.17h-.65a.18.18,0,0,1-.18-.17Z"/><path class="cls-1" d="M393.74,8.25A1.65,1.65,0,0,1,395.43,10c0,.06,0,.18,0,.24a.19.19,0,0,1-.18.17h-2.37a.89.89,0,0,0,.92.85,1.18,1.18,0,0,0,.79-.27c.09-.07.19-.08.25,0l.31.42a.16.16,0,0,1,0,.24,2.11,2.11,0,0,1-1.38.5,1.87,1.87,0,0,1-1.87-1.93A1.87,1.87,0,0,1,393.74,8.25Zm.68,1.46a.67.67,0,0,0-.71-.64.74.74,0,0,0-.78.64Z"/><path class="cls-1" d="M396.11,8.47a.17.17,0,0,1,.19-.17.56.56,0,0,1,.58.5,1.3,1.3,0,0,1,1-.55c.44,0,.8.12.7.36l-.24.54a.16.16,0,0,1-.22.08.69.69,0,0,0-.34-.07.8.8,0,0,0-.7.38v2.31c0,.13-.09.17-.21.17h-.62a.18.18,0,0,1-.17-.17Z"/><path class="cls-1" d="M399,7.06a.62.62,0,0,1,.63-.63.63.63,0,0,1,.64.63.64.64,0,0,1-.64.64A.63.63,0,0,1,399,7.06Zm.14,1.45a.18.18,0,0,1,.18-.18H400a.18.18,0,0,1,.17.18v3.34A.18.18,0,0,1,400,12h-.65a.18.18,0,0,1-.18-.17Z"/><path class="cls-1" d="M402.8,8.25a1.86,1.86,0,0,1,1.38.62c.08.08,0,.19,0,.27l-.34.36c-.08.09-.17.05-.24,0a1,1,0,0,0-.73-.32,1,1,0,0,0-1,1,1,1,0,0,0,1.75.61.17.17,0,0,1,.23,0l.36.3c.09.08.13.17.07.27a1.68,1.68,0,0,1-1.47.77,1.93,1.93,0,1,1,0-3.86Z"/><path class="cls-1" d="M406.14,9.69a2.85,2.85,0,0,1,.71.1.63.63,0,0,0-.7-.69,3.24,3.24,0,0,0-.85.13c-.12,0-.19-.05-.21-.16L405,8.66a.18.18,0,0,1,.12-.23,3.75,3.75,0,0,1,1.08-.18,1.42,1.42,0,0,1,1.57,1.61v2a.17.17,0,0,1-.19.17.54.54,0,0,1-.55-.38,1.63,1.63,0,0,1-1.13.43,1.17,1.17,0,0,1-1.24-1.26C404.67,10.19,405.2,9.69,406.14,9.69Zm0,1.68a.82.82,0,0,0,.67-.39v-.55a1.52,1.52,0,0,0-.55-.11c-.42,0-.65.2-.65.53A.49.49,0,0,0,406.16,11.37Z"/><path class="cls-6" d="M336.33,18.44a9.22,9.22,0,1,1,9.22-9.22,9.22,9.22,0,0,1-9.22,9.22"/></g></g></svg>