<?xml version="1.0" encoding="utf-8"?>
<!-- Generator: Adobe Illustrator 26.0.3, SVG Export Plug-In . SVG Version: 6.00 Build 0)  -->
<svg version="1.1" id="Layer_1" xmlns="http://www.w3.org/2000/svg" xmlns:xlink="http://www.w3.org/1999/xlink" x="0px" y="0px"
	 viewBox="0 0 1027.9 100" style="enable-background:new 0 0 1027.9 100;" xml:space="preserve">
<style type="text/css">
	.st0{fill:#FFFFFF;}
</style>
<g>
	<path class="st0" d="M1.4,89.2C0,88.1-0.6,87.2,0.7,85l5-8.6c1.1-1.9,3.5-1.9,4.7-1c5.7,4.3,11.9,8.6,21,8.6
		C38.6,84,44,79.3,44,73.3c0-7.1-6-11.9-17.6-16.7c-13.1-5.3-26.1-13.6-26.1-30C0.3,14.3,9.4,0,31.5,0c14.2,0,25,7.2,27.8,9.3
		c1.4,0.8,1.8,3.2,0.8,4.6l-5.3,7.9c-1.1,1.7-3.2,2.8-4.9,1.7c-6-3.7-11.7-7.6-19.3-7.6c-7.9,0-12.2,4.4-12.2,9.7
		c0,6.5,5.1,11,16.4,15.6c13.5,5.4,29,13.5,29,31.4c0,14.3-12.4,27.5-31.9,27.5C14.4,100,5.4,92.6,1.4,89.2z"/>
	<path class="st0" d="M78.7,4c0-1.4,1.2-2.6,2.6-2.6h13.2c1.5,0,2.6,1.2,2.6,2.6v57.9c0,11.8,8.1,20,20.1,20
		c12.1,0,20.3-8.2,20.3-19.9V4c0-1.4,1.1-2.6,2.6-2.6h13.2c1.4,0,2.6,1.2,2.6,2.6v58.9c0,21.1-16.8,37.1-38.7,37.1
		c-21.8,0-38.6-16-38.6-37.1V4z"/>
	<path class="st0" d="M173.5,89.2c-1.4-1.1-1.9-1.9-0.7-4.2l5-8.6c1.1-1.9,3.5-1.9,4.7-1c5.7,4.3,11.9,8.6,21,8.6
		c7.2,0,12.6-4.7,12.6-10.7c0-7.1-6-11.9-17.6-16.7c-13.1-5.3-26.1-13.6-26.1-30c0-12.4,9.2-26.7,31.3-26.7c14.2,0,25,7.2,27.8,9.3
		c1.4,0.8,1.8,3.2,0.8,4.6l-5.3,7.9c-1.1,1.7-3.2,2.8-4.9,1.7c-6-3.7-11.7-7.6-19.3-7.6c-7.9,0-12.2,4.4-12.2,9.7
		c0,6.5,5.1,11,16.4,15.6c13.5,5.4,29,13.5,29,31.4c0,14.3-12.4,27.5-31.9,27.5C186.5,100,177.5,92.6,173.5,89.2z"/>
	<path class="st0" d="M268,18.1h-21.2c-1.5,0-2.6-1.2-2.6-2.6V4c0-1.4,1.1-2.6,2.6-2.6h60.7c1.5,0,2.6,1.2,2.6,2.6v11.4
		c0,1.4-1.1,2.6-2.6,2.6h-21.3V96c0,1.4-1.2,2.6-2.6,2.6h-12.9c-1.4,0-2.6-1.2-2.6-2.6V18.1z"/>
	<path class="st0" d="M305.2,95l43.2-93.5c0.4-0.8,1.1-1.5,2.4-1.5h1.4c1.4,0,1.9,0.7,2.4,1.5L397.3,95c0.8,1.8-0.3,3.6-2.4,3.6
		h-12.1c-2.1,0-3.1-0.8-4-2.8l-6.8-15h-41.5l-6.8,15c-0.6,1.4-1.8,2.8-4,2.8h-12.1C305.5,98.6,304.4,96.8,305.2,95z M365.2,65.4
		l-13.9-30.6h-0.4l-13.6,30.6H365.2z"/>
	<path class="st0" d="M408.9,4c0-1.4,1.2-2.6,2.6-2.6h12.9c1.4,0,2.6,1.2,2.6,2.6V96c0,1.4-1.2,2.6-2.6,2.6h-12.9
		c-1.4,0-2.6-1.2-2.6-2.6V4z"/>
	<path class="st0" d="M449.8,2.5c0-1.4,1.2-2.5,2.6-2.5h2.1c1,0,1.7,0.3,2.4,1l56.7,60.4h0.3V4c0-1.4,1.1-2.6,2.6-2.6h12.8
		c1.4,0,2.6,1.2,2.6,2.6v93.5c0,1.4-1.2,2.5-2.6,2.5h-1.9c-1,0-1.7-0.3-2.4-1L468,36.2h-0.3V96c0,1.4-1.1,2.6-2.6,2.6h-12.6
		c-1.4,0-2.6-1.2-2.6-2.6V2.5z"/>
	<path class="st0" d="M543.4,95l43.2-93.5c0.4-0.8,1.1-1.5,2.4-1.5h1.4c1.4,0,1.9,0.7,2.4,1.5L635.5,95c0.8,1.8-0.3,3.6-2.4,3.6H621
		c-2.1,0-3.1-0.8-4-2.8l-6.8-15h-41.5l-6.8,15c-0.6,1.4-1.8,2.8-4,2.8h-12.1C543.7,98.6,542.5,96.8,543.4,95z M603.4,65.4
		l-13.9-30.6h-0.4l-13.6,30.6H603.4z"/>
	<path class="st0" d="M696.9,49.4c8.1,2.8,16.7,9.3,16.7,22.4c0,15.6-13.3,26.8-30.3,26.8h-33.6c-1.5,0-2.6-1.2-2.6-2.6V4
		c0-1.4,1.1-2.6,2.6-2.6h31.8c16.5,0,29.3,11.1,29.3,25.7c0,10.4-6.7,18.1-13.9,21.7V49.4z M680.1,42.2c7.1,0,11.7-5.6,11.7-12.5
		s-4.6-11.8-11.7-11.8h-15.1v24.3H680.1z M682,82.2c6.9,0,12.2-5.4,12.2-12.6c0-6.9-5.3-12.1-12.2-12.1h-17.1v24.7H682z"/>
	<path class="st0" d="M731.9,4c0-1.4,1.2-2.6,2.6-2.6h12.9c1.4,0,2.6,1.2,2.6,2.6V96c0,1.4-1.2,2.6-2.6,2.6h-12.9
		c-1.4,0-2.6-1.2-2.6-2.6V4z"/>
	<path class="st0" d="M772.8,4c0-1.4,1.1-2.6,2.6-2.6h12.8c1.4,0,2.6,1.2,2.6,2.6v77.9h35.4c1.5,0,2.6,1.2,2.6,2.6V96
		c0,1.4-1.1,2.6-2.6,2.6h-50.8c-1.5,0-2.6-1.2-2.6-2.6V4z"/>
	<path class="st0" d="M841.1,4c0-1.4,1.2-2.6,2.6-2.6h12.9c1.4,0,2.6,1.2,2.6,2.6V96c0,1.4-1.3,2.6-2.6,2.6h-12.9
		c-1.4,0-2.6-1.2-2.6-2.6V4z"/>
	<path class="st0" d="M895.9,18.1h-21.2c-1.5,0-2.6-1.2-2.6-2.6V4c0-1.4,1.1-2.6,2.6-2.6h60.7c1.5,0,2.6,1.2,2.6,2.6v11.4
		c0,1.4-1.1,2.6-2.6,2.6h-21.2V96c0,1.4-1.2,2.6-2.6,2.6h-12.9c-1.4,0-2.6-1.2-2.6-2.6V18.1z"/>
	<path class="st0" d="M977.3,51.8L945.6,5.4c-1.1-1.8,0-4,2.2-4H962c1.1,0,1.8,0.7,2.2,1.2l22.2,31.9l22.2-31.9
		c0.4-0.6,1.1-1.2,2.2-1.2h14.3c2.2,0,3.3,2.2,2.2,4l-32.1,46.3V96c0,1.4-1.2,2.6-2.6,2.6h-12.8c-1.5,0-2.6-1.2-2.6-2.6V51.8z"/>
</g>
</svg>
