<?xml version="1.0" encoding="utf-8"?>
<!-- Generator: Adobe Illustrator 26.0.3, SVG Export Plug-In . SVG Version: 6.00 Build 0)  -->
<svg version="1.1" id="Layer_1" xmlns="http://www.w3.org/2000/svg" xmlns:xlink="http://www.w3.org/1999/xlink" x="0px" y="0px"
	 viewBox="0 0 1027.9 100" style="enable-background:new 0 0 1027.9 100;" xml:space="preserve">
<style type="text/css">
	.st0{fill:#FFFFFF;}
</style>
<g>
	<path class="st0" d="M31.5,1c14.3,0,25.2,7.6,27.2,9.1l0,0l0,0c0.4,0.2,0.7,0.7,0.8,1.3c0.1,0.7,0,1.4-0.3,1.9L54,21.2
		c-0.7,1-1.7,1.7-2.6,1.7c-0.3,0-0.6-0.1-0.9-0.3l-1-0.7c-5.6-3.5-11.3-7.1-18.8-7.1c-9.1,0-13.2,5.4-13.2,10.7
		c0,6.8,4.9,11.6,17,16.5c14,5.6,28.4,13.7,28.4,30.5C62.9,85.3,52,99,31.9,99C14.3,99,5.4,91.3,2,88.4c-1-0.8-1.4-1.1-0.5-2.9
		l5-8.6c0.5-1,1.4-1.1,1.9-1.1c0.5,0,1,0.2,1.4,0.4C16,80.9,22.2,85,31.4,85C39,85,45,79.9,45,73.3c0-7.1-5.5-12.4-18.3-17.6
		C15.8,51.3,1.3,43.5,1.3,26.7c0-6.4,2.6-12.7,7.1-17.3C13.8,3.9,21.8,1,31.5,1 M31.5,0C9.4,0,0.3,14.3,0.3,26.7
		c0,16.4,13.1,24.7,26.1,30C38.1,61.4,44,66.3,44,73.3c0,6-5.4,10.7-12.6,10.7c-9,0-15.3-4.3-21-8.6c-0.5-0.4-1.2-0.6-2-0.6
		c-1,0-2.1,0.5-2.8,1.6l-5,8.6c-1.2,2.2-0.7,3.1,0.7,4.2c4,3.5,13.1,10.8,30.6,10.8c19.6,0,31.9-13.2,31.9-27.5
		c0-17.9-15.6-26-29-31.4c-11.2-4.6-16.4-9-16.4-15.6c0-5.3,4.3-9.7,12.2-9.7c7.6,0,13.3,3.9,19.3,7.6c0.5,0.3,1,0.4,1.5,0.4
		c1.3,0,2.6-0.9,3.4-2.1l5.3-7.9c1-1.4,0.6-3.8-0.8-4.6C56.5,7.2,45.7,0,31.5,0L31.5,0z"/>
	<path class="st0" d="M153.4,2.4c0.8,0,1.6,0.8,1.6,1.6v58.9c0,20.6-16.2,36.1-37.7,36.1c-10.3,0-19.8-3.7-26.8-10.3
		c-7-6.7-10.8-15.8-10.8-25.7V4c0-0.8,0.8-1.6,1.6-1.6h13.2c1,0,1.6,0.9,1.6,1.6v57.9c0,12.4,8.7,21,21.1,21
		c12.5,0,21.3-8.6,21.3-20.9V4c0-0.8,0.6-1.6,1.6-1.6H153.4 M153.4,1.4h-13.2c-1.5,0-2.6,1.2-2.6,2.6v58.1
		c0,11.7-8.2,19.9-20.3,19.9c-12.1,0-20.1-8.2-20.1-20V4c0-1.4-1.1-2.6-2.6-2.6H81.4c-1.4,0-2.6,1.2-2.6,2.6v58.9
		c0,21.1,16.8,37.1,38.6,37.1c21.9,0,38.7-16,38.7-37.1V4C156.1,2.6,154.8,1.4,153.4,1.4L153.4,1.4z"/>
	<path class="st0" d="M203.6,1c14.3,0,25.2,7.6,27.2,9.1l0,0l0,0c0.4,0.2,0.7,0.7,0.8,1.3c0.1,0.7,0,1.4-0.3,1.9l-5.3,7.9
		c-0.7,1-1.7,1.7-2.6,1.7c-0.3,0-0.6-0.1-0.9-0.3l-1-0.7c-5.6-3.5-11.3-7.1-18.8-7.1c-9.1,0-13.2,5.4-13.2,10.7
		c0,6.8,4.9,11.6,17,16.5c14,5.6,28.4,13.7,28.4,30.5C235,85.3,224.1,99,204,99c-17.6,0-26.5-7.7-29.9-10.6c-1-0.8-1.4-1.1-0.5-2.9
		l5-8.6c0.5-1,1.4-1.1,1.9-1.1c0.5,0,1,0.2,1.4,0.4c6.1,4.6,12.4,8.8,21.6,8.8c7.6,0,13.6-5.1,13.6-11.7c0-7.1-5.5-12.4-18.3-17.6
		c-10.9-4.4-25.5-12.2-25.5-29.1c0-6.4,2.6-12.7,7.1-17.3C185.8,3.9,193.9,1,203.6,1 M203.6,0c-22.1,0-31.3,14.3-31.3,26.7
		c0,16.4,13.1,24.7,26.1,30c11.7,4.7,17.6,9.6,17.6,16.7c0,6-5.4,10.7-12.6,10.7c-9,0-15.3-4.3-21-8.6c-0.5-0.4-1.2-0.6-2-0.6
		c-1,0-2.1,0.5-2.8,1.6l-5,8.6c-1.2,2.2-0.7,3.1,0.7,4.2c4,3.5,13.1,10.8,30.6,10.8c19.6,0,31.9-13.2,31.9-27.5
		c0-17.9-15.6-26-29-31.4c-11.2-4.6-16.4-9-16.4-15.6c0-5.3,4.3-9.7,12.2-9.7c7.6,0,13.3,3.9,19.3,7.6c0.5,0.3,1,0.4,1.5,0.4
		c1.3,0,2.6-0.9,3.4-2.1l5.3-7.9c1-1.4,0.6-3.8-0.8-4.6C228.6,7.2,217.8,0,203.6,0L203.6,0z"/>
	<path class="st0" d="M307.5,2.4c1,0,1.6,0.9,1.6,1.6v11.4c0,0.8-0.6,1.6-1.6,1.6h-21.3h-1v1V96c0,0.8-0.8,1.6-1.6,1.6h-12.9
		c-0.8,0-1.6-0.8-1.6-1.6V18.1v-1h-1h-21.2c-1,0-1.6-0.8-1.6-1.6V4c0-0.8,0.6-1.6,1.6-1.6H307.5 M307.5,1.4h-60.7
		c-1.5,0-2.6,1.2-2.6,2.6v11.4c0,1.4,1.1,2.6,2.6,2.6H268V96c0,1.4,1.3,2.6,2.6,2.6h12.9c1.4,0,2.6-1.2,2.6-2.6V18.1h21.3
		c1.5,0,2.6-1.2,2.6-2.6V4C310.1,2.6,309,1.4,307.5,1.4L307.5,1.4z"/>
	<path class="st0" d="M352.2,1c0.8,0,1.1,0.3,1.5,0.9l42.8,93.5c0.3,0.5,0.2,1.1,0,1.5c-0.3,0.4-0.8,0.7-1.4,0.7h-12.1
		c-1.6,0-2.3-0.5-3.1-2.2l-6.8-15l-0.3-0.6H372h-41.5h-0.6l-0.3,0.6l-6.8,15c-0.3,0.8-1.1,2.1-3.1,2.1h-12.1c-0.6,0-1.2-0.2-1.4-0.7
		c-0.3-0.4-0.3-1,0-1.5L349.3,2c0.3-0.7,0.8-1,1.5-1H352.2 M335.8,66.4h1.5h27.9h1.6l-0.6-1.4l-13.9-30.6l-0.3-0.6h-0.6h-0.4h-0.6
		l-0.3,0.6L336.4,65L335.8,66.4 M352.2,0h-1.4c-1.2,0-1.9,0.7-2.4,1.5L305.2,95c-0.8,1.8,0.3,3.6,2.4,3.6h12.1c2.2,0,3.5-1.4,4-2.8
		l6.8-15H372l6.8,15c1,1.9,1.9,2.8,4,2.8h12.1c2.1,0,3.2-1.8,2.4-3.6L354.5,1.5C354.1,0.7,353.6,0,352.2,0L352.2,0z M337.3,65.4
		l13.6-30.6h0.4l13.9,30.6H337.3L337.3,65.4z"/>
	<path class="st0" d="M424.4,2.4c0.8,0,1.6,0.8,1.6,1.6V96c0,0.8-0.8,1.6-1.6,1.6h-12.9c-0.8,0-1.6-0.8-1.6-1.6V4
		c0-0.8,0.8-1.6,1.6-1.6H424.4 M424.4,1.4h-12.9c-1.4,0-2.6,1.2-2.6,2.6V96c0,1.4,1.2,2.6,2.6,2.6h12.9c1.4,0,2.6-1.2,2.6-2.6V4
		C427,2.6,425.8,1.4,424.4,1.4L424.4,1.4z"/>
	<path class="st0" d="M454.5,1c0.7,0,1.2,0.2,1.6,0.7l56.7,60.4l0.3,0.3h0.4h0.3h1v-1V4c0-0.8,0.6-1.6,1.6-1.6h12.8
		c0.8,0,1.6,0.8,1.6,1.6v93.5c0,0.8-0.8,1.5-1.6,1.5h-1.9c-0.7,0-1.1-0.2-1.6-0.7l-56.9-62.8l-0.3-0.3H468h-0.3h-1v1V96
		c0,0.8-0.6,1.6-1.6,1.6h-12.6c-0.8,0-1.6-0.8-1.6-1.6V2.5c0-0.8,0.8-1.5,1.6-1.5H454.5 M454.5,0h-2.1c-1.4,0-2.6,1.1-2.6,2.5V96
		c0,1.4,1.2,2.6,2.6,2.6H465c1.5,0,2.6-1.2,2.6-2.6V36.2h0.3L524.9,99c0.7,0.7,1.4,1,2.4,1h1.9c1.4,0,2.6-1.1,2.6-2.5V4
		c0-1.4-1.2-2.6-2.6-2.6h-12.8c-1.5,0-2.6,1.2-2.6,2.6v57.4h-0.3L456.8,1C456.2,0.3,455.5,0,454.5,0L454.5,0z"/>
	<path class="st0" d="M590.3,1c0.8,0,1.1,0.3,1.5,0.9l42.8,93.5c0.3,0.6,0.2,1.1,0,1.5c-0.3,0.4-0.8,0.7-1.4,0.7H621
		c-1.6,0-2.3-0.5-3.1-2.2l-6.8-15l-0.3-0.6h-0.6h-41.5H568l-0.3,0.6l-6.8,15c-0.3,0.8-1.2,2.1-3.1,2.1h-12.1c-0.6,0-1.2-0.2-1.4-0.7
		c-0.3-0.4-0.3-1,0-1.5L587.5,2c0.3-0.7,0.8-1,1.5-1H590.3 M573.9,66.4h1.5h27.9h1.6l-0.6-1.4l-13.9-30.6l-0.3-0.6h-0.6h-0.4h-0.6
		l-0.3,0.6L574.6,65L573.9,66.4 M590.3,0h-1.4c-1.3,0-1.9,0.7-2.4,1.5L543.4,95c-0.8,1.8,0.3,3.6,2.4,3.6h12.1c2.2,0,3.5-1.4,4-2.8
		l6.8-15h41.5l6.8,15c1,1.9,1.9,2.8,4,2.8h12.1c2.1,0,3.2-1.8,2.4-3.6L592.7,1.5C592.3,0.7,591.7,0,590.3,0L590.3,0z M575.5,65.4
		l13.6-30.6h0.4l13.9,30.6H575.5L575.5,65.4z"/>
	<path class="st0" d="M681.5,2.4c7.8,0,14.9,2.5,20.2,7.1c5.2,4.6,8.1,10.8,8.1,17.6c0,10.4-6.9,17.5-13.3,20.8l-0.6,0.3v0.6v0.7
		v0.7l0.7,0.2c6,2.1,16,7.6,16,21.4c0,14.7-12.6,25.8-29.3,25.8h-33.6c-1,0-1.6-0.9-1.6-1.6V4c0-0.8,0.6-1.6,1.6-1.6H681.5
		 M663.9,43.2h1h15.1c7.3,0,12.7-5.7,12.7-13.5c0-7.7-5.1-12.8-12.7-12.8h-15.1h-1v1v24.3V43.2 M663.9,83.2h1H682
		c7.5,0,13.2-5.9,13.2-13.6c0-7.5-5.7-13.1-13.2-13.1h-17.1h-1v1v24.7V83.2 M681.5,1.4h-31.8c-1.5,0-2.6,1.2-2.6,2.6V96
		c0,1.4,1.1,2.6,2.6,2.6h33.6c16.9,0,30.3-11.2,30.3-26.8c0-13.1-8.6-19.6-16.7-22.4v-0.7c7.2-3.6,13.9-11.2,13.9-21.7
		C710.8,12.5,698,1.4,681.5,1.4L681.5,1.4z M664.9,42.2V17.9h15.1c7.1,0,11.7,4.9,11.7,11.8c0,6.9-4.6,12.5-11.7,12.5H664.9
		L664.9,42.2z M664.9,82.2V57.5H682c6.9,0,12.2,5.1,12.2,12.1c0,7.2-5.3,12.6-12.2,12.6H664.9L664.9,82.2z"/>
	<path class="st0" d="M747.4,2.4c0.8,0,1.6,0.8,1.6,1.6V96c0,0.8-0.8,1.6-1.6,1.6h-12.9c-0.8,0-1.6-0.8-1.6-1.6V4
		c0-0.8,0.8-1.6,1.6-1.6H747.4 M747.4,1.4h-12.9c-1.4,0-2.6,1.2-2.6,2.6V96c0,1.4,1.2,2.6,2.6,2.6h12.9c1.4,0,2.6-1.2,2.6-2.6V4
		C750.1,2.6,748.8,1.4,747.4,1.4L747.4,1.4z"/>
	<path class="st0" d="M788.2,2.4c0.8,0,1.6,0.8,1.6,1.6v77.9v1h1h35.4c1,0,1.6,0.9,1.6,1.6V96c0,0.8-0.6,1.6-1.6,1.6h-50.8
		c-1,0-1.6-0.9-1.6-1.6V4c0-0.8,0.6-1.6,1.6-1.6H788.2 M788.2,1.4h-12.8c-1.5,0-2.6,1.2-2.6,2.6V96c0,1.4,1.1,2.6,2.6,2.6h50.8
		c1.5,0,2.6-1.2,2.6-2.6V84.6c0-1.4-1.1-2.6-2.6-2.6h-35.4V4C790.8,2.6,789.6,1.4,788.2,1.4L788.2,1.4z"/>
	<path class="st0" d="M856.7,2.4c0.8,0,1.6,0.8,1.6,1.6V96c0,0.8-0.8,1.6-1.6,1.6h-12.9c-0.8,0-1.6-0.8-1.6-1.6V4
		c0-0.8,0.8-1.6,1.6-1.6H856.7 M856.7,1.4h-12.9c-1.4,0-2.6,1.2-2.6,2.6V96c0,1.4,1.2,2.6,2.6,2.6h12.9c1.4,0,2.6-1.2,2.6-2.6V4
		C859.3,2.6,858.1,1.4,856.7,1.4L856.7,1.4z"/>
	<path class="st0" d="M935.4,2.4c1,0,1.6,0.9,1.6,1.6v11.4c0,0.8-0.6,1.6-1.6,1.6h-21.2h-1v1V96c0,0.8-0.8,1.6-1.6,1.6h-12.9
		c-0.8,0-1.6-0.8-1.6-1.6V18.1v-1h-1h-21.2c-1,0-1.6-0.8-1.6-1.6V4c0-0.8,0.6-1.6,1.6-1.6H935.4 M935.4,1.4h-60.7
		c-1.5,0-2.6,1.2-2.6,2.6v11.4c0,1.4,1.1,2.6,2.6,2.6h21.2V96c0,1.4,1.2,2.6,2.6,2.6h12.9c1.4,0,2.6-1.2,2.6-2.6V18.1h21.2
		c1.5,0,2.6-1.2,2.6-2.6V4C938,2.6,936.9,1.4,935.4,1.4L935.4,1.4z"/>
	<path class="st0" d="M1025.2,2.4c0.7,0,1.2,0.3,1.5,0.8c0.3,0.5,0.3,1.1-0.1,1.7l-32.1,46.2l-0.2,0.3v0.3V96c0,0.8-0.8,1.6-1.6,1.6
		h-12.8c-1,0-1.6-0.9-1.6-1.6V51.8v-0.3l-0.2-0.3L946.5,4.9c-0.3-0.6-0.4-1.2-0.1-1.7c0.3-0.5,0.8-0.8,1.5-0.8H962
		c0.5,0,1,0.3,1.4,0.8l22.2,31.9l0.8,1.2l0.8-1.2l22.2-31.9c0.4-0.6,0.9-0.8,1.4-0.8H1025.2 M1025.2,1.4h-14.3
		c-1.1,0-1.8,0.7-2.2,1.2l-22.2,31.9L964.2,2.6c-0.4-0.6-1.1-1.2-2.2-1.2h-14.2c-2.2,0-3.3,2.2-2.2,4l31.7,46.4V96
		c0,1.4,1.1,2.6,2.6,2.6h12.8c1.4,0,2.6-1.2,2.6-2.6V51.7l32.1-46.3C1028.6,3.6,1027.4,1.4,1025.2,1.4L1025.2,1.4z"/>
</g>
</svg>
