<?xml version="1.0" encoding="utf-8"?>
<!-- Generator: Adobe Illustrator 25.4.1, SVG Export Plug-In . SVG Version: 6.00 Build 0)  -->
<svg version="1.1" id="Layer_1" xmlns="http://www.w3.org/2000/svg" xmlns:xlink="http://www.w3.org/1999/xlink" x="0px" y="0px"
	 viewBox="0 0 750 396.6" style="enable-background:new 0 0 750 396.6;" xml:space="preserve">
<style type="text/css">
	.st0{fill:#FFFFFF;}
	.st1{opacity:0.3;}
	.st2{opacity:0.15;}
</style>
<g>
	<g>
		<path class="st0" d="M434.5,206.9h-12c-1.1,0-1.8,0.9-1.8,1.8v11.2v14v14v1.4c0,7.1-5.2,11.1-12.1,11.1c-6.9,0-12-4-12-11.1v-1.4
			v-14v-14v-11.2c0-1-0.8-1.8-1.8-1.8h-12c-1,0-1.8,0.9-1.8,1.8v11.2v14v14v2.1c0,4.3,1.1,8.3,3,11.9c4.5,8.5,13.8,14,24.6,14
			c10.8,0,20.2-5.5,24.8-14c1.9-3.5,3-7.5,3-11.9v-2.1v-14v-14v-11.2C436.4,207.8,435.5,206.9,434.5,206.9"/>
		<path class="st0" d="M507.1,206.9h-11.7c-1.1,0-1.8,0.9-1.8,1.8v11.2v14v9.3h-0.1l-9.7-9.3l-14.6-14l-13-12.5
			c-0.8-0.8-1.5-1.5-2.4-1.5h-1.5c-1,0-1.8,0.8-1.8,1.7l0,12.2l0,14l0,14l0,14l0,11.2c0,1,0.9,1.8,1.8,1.8H464
			c1.1,0,1.8-0.9,1.8-1.8v-11.2v-14v-11.1h0.1l11,11.1l13.9,14l12.9,12.9c0.8,0.8,1.5,1.1,2.4,1.1h1c1,0,1.8-0.6,1.8-1.7v-12.2v-14
			v-14v-14v-11.2C509,207.8,508.1,206.9,507.1,206.9"/>
		<path class="st0" d="M537.2,206.9h-11.7c-1,0-1.8,0.9-1.8,1.8v11.2v14v14v14v11.2c0,1,0.9,1.8,1.8,1.8h11.7c1,0,1.8-0.9,1.8-1.8
			v-11.2v-14v-14v-14v-11.2C539,207.8,538.2,206.9,537.2,206.9"/>
		<path class="st0" d="M591.9,206.9h-43.1c-1.1,0-1.8,0.9-1.8,1.8v10.6c0,0.2,0.1,0.4,0.1,0.6c0.2,0.7,0.9,1.3,1.7,1.3h13.9v12.7v14
			v14v11.2c0,1,0.9,1.8,1.8,1.8h11.7c1,0,1.8-0.9,1.8-1.8v-11.2v-14v-14v-12.7h13.9c0.8,0,1.5-0.6,1.7-1.3c0.1-0.2,0.1-0.4,0.1-0.6
			v-10.6C593.7,207.8,592.9,206.9,591.9,206.9"/>
		<path class="st0" d="M615.2,206.9h-11.7c-1,0-1.8,0.9-1.8,1.8v11.2v14v14v14v11.2c0,1,0.9,1.8,1.8,1.8h11.7c1,0,1.8-0.9,1.8-1.8
			v-11.2v-14v-14v-14v-11.2C617,207.8,616.1,206.9,615.2,206.9"/>
		<path class="st0" d="M673.7,206.9h-40.2c-1.1,0-1.8,0.9-1.8,1.8v11.2v14v14v14v11.2c0,1,0.8,1.8,1.8,1.8h40.2
			c1.1,0,1.8-0.9,1.8-1.8v-10.6c0-0.2-0.1-0.4-0.1-0.6c-0.2-0.7-0.9-1.3-1.7-1.3h-26.9v-12.7v-0.4h22.2c1,0,1.8-0.8,1.8-1.8v-10.6
			c0-0.4-0.2-0.8-0.5-1.2c-0.3-0.4-0.8-0.7-1.4-0.7h-22.2v-12h26.9c0.8,0,1.5-0.6,1.7-1.3c0.1-0.2,0.1-0.4,0.1-0.6v-10.6
			C675.5,207.8,674.7,206.9,673.7,206.9"/>
		<path class="st0" d="M107.1,220.6c4.8,0,9.1,1.5,13.1,5c0.7,0.7,1.7,0.7,2.4,0l5.4-5.6l2.2-2.2c0.8-0.8,0.8-1.9-0.1-2.7
			c-6.6-6-13.8-9-23.5-9c-11.5,0-21.6,5.5-28,14c-3.1,4.1-5.3,8.8-6.3,14c-0.5,2.3-0.7,4.7-0.7,7.1c0,2.4,0.2,4.7,0.7,6.9
			c1,5.2,3.2,9.9,6.3,14c6.4,8.5,16.6,14,28.1,14c8.7,0,17-3,23.6-9.4c0.7-0.7,0.8-1.9,0.1-2.6l-1.8-1.9l-5.8-6.1
			c-0.6-0.7-1.8-0.7-2.5-0.1c-3.5,3-7.7,4.7-13,4.7c-8.4,0-15.1-5.2-17.8-12.4c-0.9-2.3-1.3-4.7-1.3-7.3c0-2.3,0.4-4.6,1.1-6.7
			C91.6,226.3,98.4,220.6,107.1,220.6"/>
		<path class="st0" d="M169.4,260.4c-8.2,0-15.2-5.2-18-12.4c-0.8-2.2-1.3-4.5-1.3-6.9c0-2.5,0.5-4.9,1.4-7.1
			c2.8-7.2,9.9-12.4,18-12.4c8.2,0,15.2,5.2,18.1,12.4c0.9,2.2,1.4,4.6,1.4,7.1c0,2.4-0.5,4.7-1.3,6.9
			C184.7,255.2,177.6,260.4,169.4,260.4 M197.4,219.9c-6.4-8.5-16.5-14-28-14c-11.5,0-21.6,5.5-27.9,14c-3,4.1-5.2,8.8-6.3,14
			c-0.5,2.3-0.7,4.7-0.7,7.1c0,2.4,0.2,4.7,0.7,6.9c1,5.2,3.2,9.9,6.2,14c6.3,8.5,16.4,14,28,14c11.6,0,21.7-5.5,28.1-14
			c3-4.1,5.2-8.8,6.2-14c0.4-2.2,0.7-4.5,0.7-6.9c0-2.4-0.2-4.8-0.7-7.1C202.6,228.7,200.4,224,197.4,219.9"/>
		<path class="st0" d="M283.1,247.9l-2.4-14l-2.4-14l-2.1-12.4c-0.1-0.9-1-1.6-1.7-1.6H273c-0.5,0-1.4,0.4-1.7,1l-7,13l-7.5,14
			l-7.5,14l-0.5,1h-0.2l-0.5-1l-7.5-14l-7.5-14l-7-13c-0.3-0.6-1.2-1-1.7-1h-1.6c-0.8,0-1.7,0.7-1.7,1.6l-2.1,12.4l-2.4,14l-2.4,14
			l-2.4,14l-1.8,10.9c-0.2,1.3,0.7,2.1,1.8,2.1h11.5c1,0,1.7-0.8,1.8-1.6l1.6-11.5l2-14l0.7-4.6h0.2l2.4,4.6l7.3,14l6.7,12.9
			c0.3,0.6,1.1,1.1,1.7,1.1h1.7c0.5,0,1.4-0.5,1.7-1.1l6.7-12.9l7.3-14l2.4-4.6h0.2l0.7,4.6l2,14l1.7,11.5c0.1,0.8,1,1.6,1.8,1.6
			h11.5c1.2,0,2-0.9,1.8-2.1l-1.8-10.9L283.1,247.9z"/>
		<path class="st0" d="M367.4,247.9l-2.4-14l-2.4-14l-2.1-12.4c-0.1-0.9-1-1.6-1.7-1.6h-1.6c-0.5,0-1.4,0.4-1.7,1l-7,13l-7.5,14
			l-7.5,14l-0.5,1h-0.2l-0.5-1l-7.5-14l-7.5-14l-7-13c-0.3-0.6-1.2-1-1.7-1h-1.6c-0.8,0-1.7,0.7-1.7,1.6l-2.1,12.4l-2.4,14l-2.4,14
			l-2.4,14l-1.8,10.9c-0.2,1.3,0.7,2.1,1.8,2.1h11.5c1,0,1.8-0.8,1.8-1.6l1.6-11.5l2-14l0.6-4.6h0.2l2.4,4.6l7.3,14l6.7,12.9
			c0.3,0.6,1.1,1.1,1.7,1.1h1.7c0.5,0,1.4-0.5,1.7-1.1l6.7-12.9l7.3-14l2.4-4.6h0.2l0.7,4.6l2,14l1.7,11.5c0.1,0.8,1,1.6,1.8,1.6
			h11.5c1.2,0,2-0.9,1.8-2.1l-1.8-10.9L367.4,247.9z"/>
		<path class="st0" d="M728.1,247.9c-3.3-7.3-10.9-10.9-17.4-14c-0.2-0.1-0.4-0.2-0.6-0.3c-6.8-3.3-10.6-5.8-10.6-9
			c0-1.9,0.9-3.7,2.8-4.7c0.8-0.4,1.9-0.7,3.1-0.7c1.4,0,2.8,0.3,4.1,0.7c3.8,1.1,7.3,3.4,9,4.6c1.9,1.2,3.6,0.4,4.3-0.7l2.6-3.9
			l2.4-3.6c0.4-0.7,0.6-2.4-0.6-3.1c-2.9-2.1-10.7-7.3-20.8-7.3c-12.2,0-19.4,6.4-21.7,14c-0.5,1.7-0.8,3.5-0.8,5.3
			c0,3.4,0.8,6.2,2.2,8.6c3.3,6,10,9.6,16.7,12.8c0.8,0.4,1.6,0.8,2.3,1.2c5,2.6,7.7,5.1,7.7,8.6c0,2.5-1.5,4.5-3.9,5.3
			c-0.8,0.3-1.8,0.5-2.8,0.5c-1.4,0-2.7-0.2-3.9-0.5c-4.3-1-7.8-3.4-9.9-4.9c-1-0.7-2.5-0.7-3.3,0.6l-2.4,4.3l-2,3.6
			c-0.7,1.3-0.4,2.1,0.4,2.9c2.2,2.2,9.2,7.5,21.9,7.5c11.3,0,19.1-6.4,21.8-14c0.7-2,1.1-4.1,1.1-6.1
			C729.7,252.8,729.1,250.2,728.1,247.9"/>
		<path class="st0" d="M85,125.7H73.3c-1,0-1.8,0.9-1.8,1.8v11.2v14v14v14v11.2c0,1,0.9,1.8,1.8,1.8H85c1,0,1.8-0.9,1.8-1.8v-11.2
			v-14v-14v-14v-11.2C86.8,126.5,86,125.7,85,125.7"/>
		<path class="st0" d="M158,125.7h-11.7c-1.1,0-1.8,0.9-1.8,1.8v11.2v14v9.3h-0.1l-9.7-9.3l-14.6-14l-13-12.5
			c-0.8-0.8-1.5-1.5-2.4-1.5h0h-1.5h0c-1,0-1.8,0.8-1.8,1.7l0,12.2l0,14l0,14l0,14l0,11.2c0,1,0.9,1.8,1.8,1.8h11.6
			c1.1,0,1.8-0.9,1.8-1.8v-11.2v-14v-11.1h0.1l11,11.1l13.9,14l12.9,12.9c0.8,0.8,1.5,1.1,2.4,1.1h1c1,0,1.8-0.6,1.8-1.7v-12.2v-14
			v-14v-14v-11.2C159.8,126.5,159,125.7,158,125.7"/>
		<path class="st0" d="M188.1,125.7h-11.7c-1,0-1.8,0.9-1.8,1.8v11.2v14v14v14v11.2c0,1,0.9,1.8,1.8,1.8h11.7c1,0,1.8-0.9,1.8-1.8
			v-11.2v-14v-14v-14v-11.2C189.9,126.5,189,125.7,188.1,125.7"/>
		<path class="st0" d="M242.8,125.7h-43.1c-1.1,0-1.8,0.9-1.8,1.8v10.6c0,0.2,0.1,0.4,0.1,0.6c0.2,0.7,0.9,1.3,1.7,1.3h13.9v12.7v14
			v14v11.2c0,1,0.9,1.8,1.8,1.8H227c1,0,1.8-0.9,1.8-1.8v-11.2v-14v-14v-12.7h13.9c0.8,0,1.5-0.6,1.7-1.3c0.1-0.2,0.1-0.4,0.1-0.6
			v-10.6C244.6,126.5,243.8,125.7,242.8,125.7"/>
		<path class="st0" d="M266.1,125.7h-11.7c-1,0-1.8,0.9-1.8,1.8v11.2v14v14v14v11.2c0,1,0.9,1.8,1.8,1.8h11.7c1,0,1.8-0.9,1.8-1.8
			v-11.2v-14v-14v-14v-11.2C267.9,126.5,267,125.7,266.1,125.7"/>
		<path class="st0" d="M380.9,125.7h-43.1c-1.1,0-1.8,0.9-1.8,1.8v10.6c0,0.2,0.1,0.4,0.1,0.6c0.2,0.7,0.9,1.3,1.7,1.3h13.9v12.7v14
			v14v11.2c0,1,0.9,1.8,1.8,1.8h11.7c1,0,1.8-0.9,1.8-1.8v-11.2v-14v-14v-12.7h13.9c0.8,0,1.5-0.6,1.7-1.3c0.1-0.2,0.1-0.4,0.1-0.6
			v-10.6C382.8,126.5,382,125.7,380.9,125.7"/>
		<path class="st0" d="M404.2,125.7h-11.7c-1,0-1.8,0.9-1.8,1.8v11.2v14v14v14v11.2c0,1,0.9,1.8,1.8,1.8h11.7c1,0,1.8-0.9,1.8-1.8
			v-11.2v-14v-14v-14v-11.2C406.1,126.5,405.2,125.7,404.2,125.7"/>
		<path class="st0" d="M476.3,125.7h-12.9c-0.8,0-1.5,0.6-1.7,1.1l-5.4,12l-6.3,14l-4.3,9.5h-0.6l-4.3-9.5l-6.3-14l-5.4-12
			c-0.2-0.5-0.9-1.1-1.7-1.1h-12.9c-1.5,0-2.2,1.3-1.7,2.5l4.9,10.5l6.5,14l6.5,14l6.5,14l6,12.9c0.3,0.6,0.9,1.1,1.7,1.1h1
			c0.8,0,1.4-0.5,1.7-1.1l6-12.9l6.5-14l6.5-14l6.5-14l4.9-10.5C478.6,126.9,477.8,125.7,476.3,125.7"/>
		<path class="st0" d="M526.9,125.7h-40.2c-1.1,0-1.8,0.9-1.8,1.8v11.2v14v14v14v11.2c0,1,0.8,1.8,1.8,1.8h40.2
			c1.1,0,1.8-0.9,1.8-1.8v-10.6c0-0.2-0.1-0.4-0.1-0.6c-0.2-0.7-0.9-1.3-1.7-1.3H500v-12.7v-0.4h22.2c1,0,1.8-0.8,1.8-1.8v-10.6
			c0-0.4-0.2-0.8-0.5-1.2c-0.3-0.4-0.8-0.7-1.4-0.7H500v-12.1h26.9c0.8,0,1.5-0.6,1.7-1.3c0.1-0.2,0.1-0.4,0.1-0.6v-10.6
			C528.7,126.5,528,125.7,526.9,125.7"/>
		<path class="st0" d="M581.3,166.7c-3.3-7.3-10.9-10.9-17.4-14c-0.2-0.1-0.4-0.2-0.6-0.3c-6.8-3.3-10.6-5.8-10.6-9
			c0-1.9,0.9-3.7,2.8-4.7c0.8-0.4,1.9-0.7,3.1-0.7c1.4,0,2.8,0.3,4.1,0.7c3.8,1.1,7.3,3.4,9,4.6c1.9,1.2,3.6,0.4,4.3-0.7l2.6-3.9
			l2.4-3.6c0.4-0.7,0.6-2.4-0.6-3.1c-2.9-2.1-10.7-7.3-20.8-7.3h0h0c-12.2,0-19.4,6.4-21.7,14c-0.5,1.7-0.8,3.5-0.8,5.3
			c0,3.4,0.8,6.2,2.2,8.6c3.3,6,10,9.6,16.7,12.8c0.8,0.4,1.6,0.8,2.3,1.2c5,2.6,7.7,5.1,7.7,8.6c0,2.5-1.5,4.5-3.9,5.3
			c-0.8,0.3-1.8,0.5-2.8,0.5c-1.4,0-2.7-0.2-3.9-0.5c-4.3-1-7.8-3.4-9.9-4.9c-1-0.7-2.5-0.7-3.3,0.6l-2.4,4.3l-2,3.6
			c-0.7,1.3-0.4,2.1,0.4,2.9c2.2,2.2,9.2,7.5,21.9,7.5c11.3,0,19.1-6.4,21.8-14c0.7-2,1.1-4.1,1.1-6.1
			C582.9,171.5,582.3,168.9,581.3,166.7"/>
		<path class="st0" d="M307.1,154.3L307.1,154.3l5.8,12.3l1.7,3.7h-14.8l1.7-3.7L307.1,154.3z M334.9,180.7l-6.5-14l-6.5-14l-6.5-14
			l-6-12.9c-0.3-0.6-1-1.1-1.7-1.1h0h-1h0c-0.7,0-1.4,0.5-1.7,1.1l-6,12.9l-6.5,14l-6.5,14l-6.5,14l-4.9,10.5
			c-0.6,1.3,0.2,2.5,1.7,2.5H287c1.9,0,3-1.2,3.5-2.3l3.5-7.8h26.4l3.5,7.7c0.9,1.8,1.7,2.4,3.4,2.4h10.8c1.5,0,2.2-1.3,1.7-2.5
			L334.9,180.7z"/>
		<g class="st1">
			<g>
				<path class="st0" d="M187.5,290.2c0.9,2.2,1.4,4.6,1.4,7.1c0,2.4-0.5,4.7-1.3,6.9c-2.8,7.2-9.9,12.4-18.1,12.4
					c-8.2,0-15.2-5.2-18-12.4c-0.8-2.2-1.3-4.5-1.3-6.9c0-2.5,0.5-4.9,1.4-7.1h-16.2c-0.5,2.3-0.7,4.7-0.7,7.1
					c0,2.4,0.2,4.7,0.7,6.9c1,5.2,3.2,9.9,6.2,14c6.3,8.5,16.4,14,28,14c11.6,0,21.7-5.5,28.1-14c3-4.1,5.2-8.8,6.2-14
					c0.4-2.2,0.7-4.5,0.7-6.9c0-2.4-0.2-4.8-0.7-7.1H187.5z"/>
				<path class="st0" d="M420.7,304.2v1.4c0,7.1-5.2,11.1-12.1,11.1c-6.9,0-12-4-12-11.1v-1.4v-14H381v14v2.1c0,4.3,1.1,8.3,3,11.9
					c4.5,8.5,13.8,14,24.6,14c10.8,0,20.2-5.5,24.8-14c1.9-3.5,3-7.5,3-11.9v-2.1v-14h-15.6V304.2z"/>
				<path class="st0" d="M493.6,299.5L493.6,299.5l-9.8-9.3h-33.3l0,14l0,14l0,11.2c0,1,0.9,1.8,1.8,1.8H464c1.1,0,1.8-0.9,1.8-1.8
					v-11.2v-14v-11.1h0.1l11,11.1l13.9,14l12.9,12.9c0.8,0.8,1.5,1.1,2.4,1.1h1c1,0,1.8-0.6,1.8-1.7v-12.2v-14v-14h-15.4V299.5z"/>
				<path class="st0" d="M562.6,304.2v14v11.2c0,1,0.9,1.8,1.8,1.8h11.7c1,0,1.8-0.9,1.8-1.8v-11.2v-14v-14h-15.4V304.2z"/>
				<path class="st0" d="M601.7,304.2v14v11.2c0,1,0.9,1.8,1.8,1.8h11.7c1,0,1.8-0.9,1.8-1.8v-11.2v-14v-14h-15.4V304.2z"/>
				<path class="st0" d="M283.1,304.2l-2.4-14h-23.9l-7.5,14l-0.5,1h-0.2l-0.5-1l-7.5-14h-23.9l-2.4,14l-2.4,14l-1.8,10.9
					c-0.2,1.3,0.7,2.1,1.8,2.1h11.5c1,0,1.7-0.8,1.8-1.6l1.6-11.5l2-14l0.7-4.6h0.2l2.4,4.6l7.3,14l6.7,12.9
					c0.3,0.6,1.1,1.1,1.7,1.1h1.7c0.5,0,1.4-0.5,1.7-1.1l6.7-12.9l7.3-14l2.4-4.6h0.2l0.7,4.6l2,14l1.7,11.5c0.1,0.8,1,1.6,1.8,1.6
					h11.5c1.2,0,2-0.9,1.8-2.1l-1.8-10.9L283.1,304.2z"/>
				<path class="st0" d="M367.4,304.2l-2.4-14h-23.9l-7.5,14l-0.5,1h-0.2l-0.5-1l-7.5-14h-23.9l-2.4,14l-2.4,14l-1.8,10.9
					c-0.2,1.3,0.7,2.1,1.8,2.1h11.5c1,0,1.8-0.8,1.8-1.6l1.6-11.5l2-14l0.6-4.6h0.2l2.4,4.6l7.3,14l6.7,12.9
					c0.3,0.6,1.1,1.1,1.7,1.1h1.7c0.5,0,1.4-0.5,1.7-1.1l6.7-12.9l7.3-14l2.4-4.6h0.2l0.7,4.6l2,14l1.7,11.5c0.1,0.8,1,1.6,1.8,1.6
					h11.5c1.2,0,2-0.9,1.8-2.1l-1.8-10.9L367.4,304.2z"/>
				<path class="st0" d="M728.1,304.2c-3.3-7.3-10.9-10.9-17.4-14h-24.6c3.3,6,10,9.6,16.7,12.8c0.8,0.4,1.6,0.8,2.3,1.2
					c5,2.6,7.7,5.1,7.7,8.6c0,2.5-1.5,4.5-3.9,5.3c-0.8,0.3-1.8,0.5-2.8,0.5c-1.4,0-2.7-0.2-3.9-0.5c-4.3-1-7.8-3.4-9.9-4.9
					c-1-0.7-2.5-0.7-3.3,0.6l-2.4,4.3l-2,3.6c-0.7,1.3-0.4,2.1,0.4,2.9c2.2,2.2,9.2,7.5,21.9,7.5c11.3,0,19.1-6.4,21.8-14
					c0.7-2,1.1-4.1,1.1-6.1C729.7,309,729.1,306.4,728.1,304.2"/>
				<path class="st0" d="M128.5,318.2l-5.8-6.1c-0.6-0.7-1.8-0.7-2.5-0.1c-3.5,3-7.7,4.7-13,4.7c-8.4,0-15.1-5.2-17.8-12.4
					c-0.9-2.3-1.3-4.7-1.3-7.3c0-2.3,0.4-4.6,1.1-6.7H72.2c-0.5,2.3-0.7,4.7-0.7,7.1c0,2.4,0.2,4.7,0.7,6.9c1,5.2,3.2,9.9,6.3,14
					c6.4,8.5,16.6,14,28.1,14c8.6,0,17-3,23.6-9.4c0.7-0.7,0.8-1.9,0.1-2.6L128.5,318.2z"/>
			</g>
		</g>
		<g class="st2">
			<g>
				<path class="st0" d="M169.4,355.3c-8.2,0-15.2-5.2-18-12.4h-16.2c1,5.2,3.2,9.9,6.2,14c6.3,8.5,16.4,14,28,14
					c11.6,0,21.7-5.5,28.1-14c3-4.1,5.2-8.8,6.2-14h-16.2C184.7,350.1,177.6,355.3,169.4,355.3"/>
				<path class="st0" d="M248.8,343.8h-0.2l-0.5-1h-15.9l7.3,14l6.7,12.9c0.3,0.6,1.1,1.1,1.7,1.1h1.7c0.5,0,1.4-0.5,1.7-1.1
					l6.7-12.9l7.3-14h-15.9L248.8,343.8z"/>
				<path class="st0" d="M210.1,367.7c-0.2,1.3,0.7,2.1,1.8,2.1h11.5c1,0,1.7-0.8,1.8-1.6l1.6-11.5l2-14h-14.6"/>
				<path class="st0" d="M283.1,342.8h-14.7l2,14l1.7,11.5c0.1,0.8,1,1.6,1.8,1.6h11.5c1.2,0,2-0.9,1.8-2.1l-1.8-10.9L283.1,342.8z"
					/>
				<path class="st0" d="M367.4,342.8h-14.7l2,14l1.7,11.5c0.1,0.8,1,1.6,1.8,1.6h11.5c1.2,0,2-0.9,1.8-2.1l-1.8-10.9L367.4,342.8z"
					/>
				<path class="st0" d="M420.7,344.2c0,7.1-5.2,11.1-12.1,11.1c-6.9,0-12-4-12-11.1v-1.4H381v2.1c0,4.3,1.1,8.3,3,11.9
					c4.5,8.5,13.8,14,24.6,14c10.8,0,20.2-5.5,24.8-14c1.9-3.5,3-7.5,3-11.9v-2.1h-15.6V344.2z"/>
				<path class="st0" d="M490.9,356.8l12.9,12.9c0.8,0.8,1.5,1.1,2.4,1.1h1c1,0,1.8-0.6,1.8-1.7v-12.2v-14h-32L490.9,356.8z"/>
				<path class="st0" d="M523.7,356.8V368c0,1,0.9,1.8,1.8,1.8h11.7c1,0,1.8-0.9,1.8-1.8v-11.2v-14h-15.4V356.8z"/>
				<path class="st0" d="M601.7,356.8V368c0,1,0.9,1.8,1.8,1.8h11.7c1,0,1.8-0.9,1.8-1.8v-11.2v-14h-15.4V356.8z"/>
				<path class="st0" d="M673.7,355.6h-26.9v-12.7h-15.2v14V368c0,1,0.8,1.8,1.8,1.8h40.2c1.1,0,1.8-0.9,1.8-1.8v-10.6
					c0-0.2-0.1-0.4-0.1-0.6C675.2,356.1,674.5,355.6,673.7,355.6"/>
			</g>
		</g>
		<g class="st2">
			<g>
				<path class="st0" d="M197.5,382.6h-56.1c6.3,8.5,16.4,14,28,14C180.9,396.6,191.1,391.1,197.5,382.6"/>
				<path class="st0" d="M210.1,393.5c-0.2,1.3,0.7,2.1,1.8,2.1h11.5c1,0,1.7-0.8,1.8-1.6l1.6-11.5h-15L210.1,393.5z"/>
				<path class="st0" d="M272.1,394.1c0.1,0.8,1,1.6,1.8,1.6h11.5c1.2,0,2-0.9,1.8-2.1l-1.8-10.9h-15L272.1,394.1z"/>
				<path class="st0" d="M251.3,395.6l6.7-12.9h-18.5l6.7,12.9c0.3,0.6,1.1,1.1,1.7,1.1h1.7C250.1,396.6,251,396.1,251.3,395.6"/>
				<path class="st0" d="M356.4,394.1c0.1,0.8,1,1.6,1.8,1.6h11.5c1.2,0,2-0.9,1.8-2.1l-1.8-10.9h-15L356.4,394.1z"/>
				<path class="st0" d="M294.4,393.5c-0.2,1.3,0.7,2.1,1.8,2.1h11.5c1,0,1.8-0.8,1.8-1.6l1.6-11.5h-15L294.4,393.5z"/>
				<path class="st0" d="M335.5,395.6l6.7-12.9h-18.5l6.7,12.9c0.3,0.6,1.1,1.1,1.7,1.1h1.7C334.4,396.6,335.2,396.1,335.5,395.6"/>
				<path class="st0" d="M509,394.9v-12.2h-18.1l12.9,12.9c0.8,0.8,1.5,1.1,2.4,1.1h1C508.1,396.6,509,396,509,394.9"/>
				<path class="st0" d="M450.6,393.8c0,1,0.9,1.8,1.8,1.8H464c1.1,0,1.8-0.9,1.8-1.8v-11.2h-15.3L450.6,393.8z"/>
				<path class="st0" d="M562.6,393.8c0,1,0.9,1.8,1.8,1.8h11.7c1,0,1.8-0.9,1.8-1.8v-11.2h-15.4V393.8z"/>
				<path class="st0" d="M728.6,382.6h-19.7c-0.8,0.3-1.8,0.5-2.8,0.5c-1.4,0-2.7-0.2-3.9-0.5h-15.6l-2,3.6
					c-0.7,1.3-0.4,2.1,0.4,2.9c2.2,2.2,9.2,7.5,21.9,7.5C718.1,396.6,725.8,390.3,728.6,382.6"/>
			</g>
		</g>
		<g class="st1">
			<g>
				<path class="st0" d="M85,70.6H73.3c-1,0-1.8,0.9-1.8,1.8v11.2v14v14h15.4v-14v-14V72.4C86.8,71.4,86,70.6,85,70.6"/>
				<path class="st0" d="M158,70.6h-11.7c-1.1,0-1.8,0.9-1.8,1.8v11.2v14v9.3h-0.1l-9.7-9.3l-14.6-14l-13-12.5
					c-0.8-0.8-1.5-1.5-2.4-1.5h0h-1.5h0c-1,0-1.8,0.8-1.8,1.7l0,12.2l0,14l0,14h15.3v-11.1h0.1l11,11.1h32v-14v-14V72.4
					C159.8,71.4,159,70.6,158,70.6"/>
				<path class="st0" d="M242.8,70.6h-43.1c-1.1,0-1.8,0.9-1.8,1.8V83c0,0.2,0.1,0.4,0.1,0.6c0.2,0.7,0.9,1.3,1.7,1.3h13.9v12.7v14
					h15.4v-14V84.9h13.9c0.8,0,1.5-0.6,1.7-1.3c0.1-0.2,0.1-0.4,0.1-0.6V72.4C244.6,71.4,243.8,70.6,242.8,70.6"/>
				<path class="st0" d="M266.1,70.6h-11.7c-1,0-1.8,0.9-1.8,1.8v11.2v14v14h15.4v-14v-14V72.4C267.9,71.4,267,70.6,266.1,70.6"/>
				<path class="st0" d="M380.9,70.6h-43.1c-1.1,0-1.8,0.9-1.8,1.8V83c0,0.2,0.1,0.4,0.1,0.6c0.2,0.7,0.9,1.3,1.7,1.3h13.9v12.7v14
					H367v-14V84.9h13.9c0.8,0,1.5-0.6,1.7-1.3c0.1-0.2,0.1-0.4,0.1-0.6V72.4C382.8,71.4,382,70.6,380.9,70.6"/>
				<path class="st0" d="M476.3,70.6h-12.9c-0.8,0-1.5,0.6-1.7,1.1l-5.4,12l-6.3,14l-4.3,9.5h-0.6l-4.3-9.5l-6.3-14l-5.4-12
					c-0.2-0.5-0.9-1.1-1.7-1.1h-12.9c-1.5,0-2.2,1.3-1.7,2.5l4.9,10.5l6.5,14l6.5,14H460l6.5-14l6.5-14l4.9-10.5
					C478.6,71.8,477.8,70.6,476.3,70.6"/>
				<path class="st0" d="M526.9,70.6h-40.2c-1.1,0-1.8,0.9-1.8,1.8v11.2v14v14H500v-0.4h22.2c1,0,1.8-0.8,1.8-1.8V98.7
					c0-0.4-0.2-0.8-0.5-1.2c-0.3-0.4-0.8-0.7-1.4-0.7H500V84.9h26.9c0.8,0,1.5-0.6,1.7-1.3c0.1-0.2,0.1-0.4,0.1-0.6V72.4
					C528.7,71.4,528,70.6,526.9,70.6"/>
				<path class="st0" d="M315.4,83.6l-6-12.9c-0.3-0.6-1-1.1-1.7-1.1h0h-1h0c-0.7,0-1.4,0.5-1.7,1.1l-6,12.9l-6.5,14l-6.5,14h15.5
					l5.6-12.3h0.1l5.7,12.3h15.5l-6.5-14L315.4,83.6z"/>
				<path class="st0" d="M563.9,97.6c-0.2-0.1-0.4-0.2-0.6-0.3c-6.8-3.3-10.6-5.8-10.6-9c0-1.9,0.9-3.7,2.8-4.7
					c0.8-0.4,1.9-0.7,3.1-0.7c1.4,0,2.8,0.3,4.1,0.7c3.8,1.1,7.3,3.4,9,4.6c1.9,1.2,3.6,0.4,4.3-0.7l2.6-3.9L581,80
					c0.4-0.7,0.6-2.4-0.6-3.1c-2.9-2.1-10.7-7.3-20.8-7.3h0h0c-12.2,0-19.4,6.4-21.7,14c-0.5,1.7-0.8,3.5-0.8,5.3
					c0,3.4,0.8,6.2,2.2,8.6c3.3,6,10,9.6,16.7,12.8c0.8,0.4,1.6,0.8,2.3,1.2h23C578,104.3,570.3,100.7,563.9,97.6"/>
			</g>
		</g>
		<g class="st2">
			<g>
				<path class="st0" d="M85,31.9H73.3c-1,0-1.8,0.9-1.8,1.8v11.2v14h15.4v-14V33.8C86.8,32.8,86,31.9,85,31.9"/>
				<path class="st0" d="M107.1,32.4c-0.8-0.8-1.5-1.5-2.4-1.5h0h-1.5h0c-1,0-1.8,0.8-1.8,1.8l0,12.2l0,14h33.3l-14.6-14L107.1,32.4
					z"/>
				<path class="st0" d="M158,31.9h-11.7c-1.1,0-1.8,0.9-1.8,1.8v11.2v14h15.4v-14V33.8C159.8,32.8,159,31.9,158,31.9"/>
				<path class="st0" d="M242.8,31.9h-43.1c-1.1,0-1.8,0.9-1.8,1.8v10.6c0,0.2,0.1,0.4,0.1,0.6c0.2,0.7,0.9,1.3,1.7,1.3h13.9v12.7
					h15.4V46.2h13.9c0.8,0,1.5-0.6,1.7-1.3c0.1-0.2,0.1-0.4,0.1-0.6V33.8C244.6,32.8,243.8,31.9,242.8,31.9"/>
				<path class="st0" d="M266.1,31.9h-11.7c-1,0-1.8,0.9-1.8,1.8v11.2v14h15.4v-14V33.8C267.9,32.8,267,31.9,266.1,31.9"/>
				<path class="st0" d="M309.4,32c-0.3-0.6-1-1.1-1.7-1.1h0h-1h0c-0.7,0-1.4,0.5-1.7,1.1l-6,12.9l-6.5,14h29.3l-6.5-14L309.4,32z"
					/>
				<path class="st0" d="M404.2,31.9h-11.7c-1,0-1.8,0.9-1.8,1.8v11.2v14h15.4v-14V33.8C406.1,32.8,405.2,31.9,404.2,31.9"/>
				<path class="st0" d="M429.1,33c-0.2-0.5-0.9-1.1-1.7-1.1h-12.9c-1.5,0-2.2,1.3-1.7,2.5l4.9,10.5l6.5,14h16.6l-6.3-14L429.1,33z"
					/>
				<path class="st0" d="M580.4,38.2c-2.9-2.1-10.7-7.3-20.8-7.3h0h0c-12.2,0-19.4,6.4-21.7,14c-0.5,1.7-0.8,3.5-0.8,5.3
					c0,3.4,0.8,6.2,2.2,8.6h24.6c-0.2-0.1-0.4-0.2-0.6-0.3c-6.8-3.3-10.6-5.8-10.6-9c0-1.9,0.9-3.7,2.8-4.7c0.8-0.4,1.9-0.7,3.1-0.7
					c1.4,0,2.8,0.3,4.1,0.7c3.8,1.1,7.3,3.4,9,4.6c1.9,1.2,3.6,0.4,4.3-0.7l2.6-3.9l2.4-3.6C581.4,40.7,581.5,38.9,580.4,38.2"/>
			</g>
		</g>
		<g class="st2">
			<g>
				<path class="st0" d="M537.9,14h17.6c0.8-0.4,1.9-0.7,3.1-0.7c1.4,0,2.8,0.3,4.1,0.7h15.8l2.4-3.6c0.4-0.7,0.6-2.4-0.6-3.1
					C577.5,5.1,569.7,0,559.6,0h0C547.4,0,540.2,6.4,537.9,14 M478,3.5c0.6-1.3-0.2-2.5-1.7-2.5h-12.9c-0.8,0-1.5,0.6-1.7,1.1
					l-5.4,12h16.7L478,3.5z M429.1,2c-0.2-0.5-0.9-1.1-1.7-1.1h-12.9c-1.5,0-2.2,1.3-1.7,2.5l4.9,10.5h16.8L429.1,2z M305.1,1.1
					l-6,12.9h16.3l-6-12.9c-0.3-0.6-1-1.1-1.7-1.1h-1C306.1,0,305.4,0.5,305.1,1.1 M267.9,2.8c0-1-0.9-1.8-1.8-1.8h-11.7
					c-1,0-1.8,0.9-1.8,1.8V14h15.4V2.8z M244.6,13.4V2.8c0-1-0.8-1.8-1.8-1.8h-43.1c-1.1,0-1.8,0.9-1.8,1.8v10.6
					c0,0.2,0.1,0.4,0.1,0.6h46.6C244.6,13.8,244.6,13.6,244.6,13.4 M101.3,1.7l0,12.2h18.8l-13-12.5c-0.8-0.8-1.5-1.5-2.4-1.5h-1.5
					C102.2,0,101.3,0.8,101.3,1.7 M86.8,2.8C86.8,1.8,86,1,85,1H73.3c-1,0-1.8,0.9-1.8,1.8V14h15.4V2.8z M559.6,0L559.6,0L559.6,0
					L559.6,0z M307.7,0h-1h0H307.7L307.7,0z M104.7,0h-1.5h0H104.7L104.7,0z"/>
			</g>
		</g>
		<g>
			<path class="st0" d="M20.4,101.4c-0.1-0.2,0.1-0.4,0.3-0.4H22c0.1,0,0.2,0.1,0.3,0.2l1.6,6h0.1l2.4-6.2c0-0.1,0.1-0.2,0.3-0.2
				h0.3c0.2,0,0.2,0.1,0.3,0.2l2.4,6.2h0.1l1.5-6c0-0.1,0.2-0.2,0.3-0.2h1.4c0.2,0,0.3,0.1,0.3,0.4l-2.8,10.1c0,0.1-0.2,0.2-0.3,0.2
				h-0.2c-0.1,0-0.2-0.1-0.3-0.2l-2.7-6.8h-0.1l-2.7,6.8c0,0.1-0.1,0.2-0.3,0.2h-0.2c-0.1,0-0.2-0.1-0.3-0.2L20.4,101.4z"/>
			<path class="st0" d="M41.1,101.3c0-0.2,0.1-0.3,0.3-0.3h6.1c0.2,0,0.3,0.1,0.3,0.3v1.2c0,0.2-0.1,0.3-0.3,0.3H43v2.5h3.7
				c0.2,0,0.3,0.1,0.3,0.3v1.2c0,0.2-0.1,0.3-0.3,0.3H43v2.6h4.4c0.2,0,0.3,0.1,0.3,0.3v1.2c0,0.1-0.1,0.3-0.3,0.3h-6.1
				c-0.2,0-0.3-0.1-0.3-0.3V101.3z"/>
			<path class="st0" d="M65.9,102.8h-2.3c-0.2,0-0.3-0.1-0.3-0.3v-1.2c0-0.2,0.1-0.3,0.3-0.3h6.6c0.2,0,0.3,0.1,0.3,0.3v1.2
				c0,0.2-0.1,0.3-0.3,0.3h-2.3v8.4c0,0.1-0.1,0.3-0.3,0.3h-1.4c-0.2,0-0.3-0.1-0.3-0.3V102.8z"/>
			<path class="st0" d="M78.6,101.3c0-0.2,0.1-0.3,0.3-0.3h4.3c1.8,0,3.3,1.4,3.3,3.2c0,1.4-0.9,2.5-2.2,3l2.1,3.8
				c0.1,0.2,0,0.4-0.3,0.4h-1.6c-0.1,0-0.2-0.1-0.2-0.1l-2-4h-1.7v3.8c0,0.1-0.1,0.3-0.3,0.3h-1.4c-0.2,0-0.3-0.1-0.3-0.3V101.3z
				 M83,105.8c0.8,0,1.5-0.7,1.5-1.5c0-0.8-0.7-1.5-1.5-1.5h-2.4v3H83z"/>
			<path class="st0" d="M93.7,111.1l4.7-10.1c0-0.1,0.1-0.2,0.3-0.2h0.2c0.1,0,0.2,0.1,0.3,0.2l4.6,10.1c0.1,0.2,0,0.4-0.3,0.4h-1.3
				c-0.2,0-0.3-0.1-0.4-0.3l-0.7-1.6h-4.5l-0.7,1.6c-0.1,0.2-0.2,0.3-0.4,0.3H94C93.7,111.5,93.6,111.3,93.7,111.1z M100.2,107.9
				l-1.5-3.3h0l-1.5,3.3H100.2z"/>
			<path class="st0" d="M111.4,101.1c0-0.2,0.1-0.3,0.3-0.3h0.2c0.1,0,0.2,0,0.3,0.1l6.1,6.5h0v-6.2c0-0.2,0.1-0.3,0.3-0.3h1.4
				c0.2,0,0.3,0.1,0.3,0.3v10.1c0,0.2-0.1,0.3-0.3,0.3h-0.2c-0.1,0-0.2,0-0.3-0.1l-6.2-6.8h0v6.5c0,0.1-0.1,0.3-0.3,0.3h-1.4
				c-0.2,0-0.3-0.1-0.3-0.3V101.1z"/>
			<path class="st0" d="M128.9,110.5c-0.2-0.1-0.2-0.2-0.1-0.5l0.5-0.9c0.1-0.2,0.4-0.2,0.5-0.1c0.6,0.5,1.3,0.9,2.3,0.9
				c0.8,0,1.4-0.5,1.4-1.2c0-0.8-0.6-1.3-1.9-1.8c-1.4-0.6-2.8-1.5-2.8-3.2c0-1.3,1-2.9,3.4-2.9c1.5,0,2.7,0.8,3,1
				c0.1,0.1,0.2,0.3,0.1,0.5l-0.6,0.9c-0.1,0.2-0.3,0.3-0.5,0.2c-0.6-0.4-1.3-0.8-2.1-0.8c-0.9,0-1.3,0.5-1.3,1.1
				c0,0.7,0.6,1.2,1.8,1.7c1.5,0.6,3.1,1.5,3.1,3.4c0,1.5-1.3,3-3.5,3C130.3,111.7,129.3,110.9,128.9,110.5z"/>
			<path class="st0" d="M144,101.3c0-0.2,0.1-0.3,0.3-0.3h6.1c0.2,0,0.3,0.1,0.3,0.3v1.2c0,0.2-0.1,0.3-0.3,0.3h-4.4v2.8h3.7
				c0.2,0,0.3,0.1,0.3,0.3v1.2c0,0.2-0.1,0.3-0.3,0.3h-3.7v3.8c0,0.1-0.1,0.3-0.3,0.3h-1.4c-0.2,0-0.3-0.1-0.3-0.3V101.3z"/>
			<path class="st0" d="M163.6,100.9c3,0,5.4,2.4,5.4,5.4s-2.4,5.4-5.4,5.4s-5.4-2.4-5.4-5.4S160.6,100.9,163.6,100.9z M163.6,109.7
				c1.9,0,3.5-1.5,3.5-3.4c0-1.9-1.6-3.5-3.5-3.5c-1.9,0-3.4,1.6-3.4,3.5C160.1,108.2,161.7,109.7,163.6,109.7z"/>
			<path class="st0" d="M177.4,101.3c0-0.2,0.1-0.3,0.3-0.3h4.3c1.8,0,3.3,1.4,3.3,3.2c0,1.4-0.9,2.5-2.2,3l2.1,3.8
				c0.1,0.2,0,0.4-0.3,0.4h-1.6c-0.1,0-0.2-0.1-0.2-0.1l-2-4h-1.7v3.8c0,0.1-0.1,0.3-0.3,0.3h-1.4c-0.2,0-0.3-0.1-0.3-0.3V101.3z
				 M181.8,105.8c0.8,0,1.5-0.7,1.5-1.5c0-0.8-0.7-1.5-1.5-1.5h-2.4v3H181.8z"/>
			<path class="st0" d="M195,101.1c0-0.1,0.1-0.2,0.3-0.2h0.2c0.1,0,0.2,0.1,0.3,0.2l3.3,7.1c0,0,0,0,0,0l3.3-7.1
				c0-0.1,0.1-0.2,0.3-0.2h0.2c0.2,0,0.3,0.1,0.3,0.2l1.8,10.1c0,0.2-0.1,0.3-0.3,0.3h-1.4c-0.1,0-0.3-0.1-0.3-0.2l-0.9-5.7
				c0,0,0,0,0,0l-2.6,5.9c0,0.1-0.1,0.2-0.3,0.2h-0.3c-0.1,0-0.2-0.1-0.3-0.2l-2.7-5.9c0,0,0,0,0,0l-0.9,5.7c0,0.1-0.1,0.2-0.3,0.2
				h-1.4c-0.2,0-0.3-0.1-0.3-0.3L195,101.1z"/>
		</g>
		<g>
			<path class="st0" d="M21.3,203.3c0-0.2,0.1-0.3,0.3-0.3H23c0.2,0,0.3,0.1,0.3,0.3v9.9c0,0.1-0.1,0.3-0.3,0.3h-1.4
				c-0.2,0-0.3-0.1-0.3-0.3V203.3z"/>
			<path class="st0" d="M32.3,203.1c0-0.2,0.1-0.3,0.3-0.3h0.2c0.1,0,0.2,0,0.3,0.1l6.1,6.5h0v-6.2c0-0.2,0.1-0.3,0.3-0.3h1.4
				c0.2,0,0.3,0.1,0.3,0.3v10.1c0,0.2-0.1,0.3-0.3,0.3h-0.2c-0.1,0-0.2,0-0.3-0.1l-6.2-6.8h0v6.5c0,0.1-0.1,0.3-0.3,0.3h-1.4
				c-0.2,0-0.3-0.1-0.3-0.3V203.1z"/>
			<path class="st0" d="M51.9,204.8h-2.3c-0.2,0-0.3-0.1-0.3-0.3v-1.2c0-0.2,0.1-0.3,0.3-0.3h6.6c0.2,0,0.3,0.1,0.3,0.3v1.2
				c0,0.2-0.1,0.3-0.3,0.3h-2.3v8.4c0,0.1-0.1,0.3-0.3,0.3h-1.4c-0.2,0-0.3-0.1-0.3-0.3V204.8z"/>
			<path class="st0" d="M69.1,202.8c3,0,5.4,2.4,5.4,5.4s-2.4,5.4-5.4,5.4c-3,0-5.4-2.4-5.4-5.4S66,202.8,69.1,202.8z M69.1,211.7
				c1.9,0,3.5-1.5,3.5-3.4c0-1.9-1.6-3.5-3.5-3.5c-1.9,0-3.4,1.6-3.4,3.5C65.6,210.2,67.2,211.7,69.1,211.7z"/>
		</g>
	</g>
</g>
</svg>
