<svg xmlns="http://www.w3.org/2000/svg" viewBox="0 0 52.58 52.58"><defs><style>.cls-1,.cls-2{fill:#fff;}.cls-1{opacity:0.3;}.cls-3{fill:none;stroke:#fff;stroke-width:2px;}</style></defs><g id="Layer_2" data-name="Layer 2"><g id="Layer_1-2" data-name="Layer 1"><path class="cls-1" d="M26.29,51.58A25.29,25.29,0,1,0,1,26.29,25.29,25.29,0,0,0,26.29,51.58Z"/><path class="cls-2" d="M38.45,14.21V23.5H37.24V16.29l-3.3,3.31L22.67,30.91l-.87-.86L33.08,18.74l3.3-3.31H29.16V14.21Zm-4,22.95H15.35V18.07H26.92V16.85H14.13V38.37H35.65V25.58H34.43Z"/><path class="cls-3" d="M26.29,51.58A25.29,25.29,0,1,0,1,26.29,25.29,25.29,0,0,0,26.29,51.58Z"/></g></g></svg>