<svg xmlns="http://www.w3.org/2000/svg" viewBox="0 0 31.5 31.5"><defs><style>.cls-1{fill:#fff;}</style></defs><g id="Layer_2" data-name="Layer 2"><g id="Layer_1-2" data-name="Layer 1"><path class="cls-1" d="M14.93,8.83h0a9.89,9.89,0,0,0-2.41-5.75,8.89,8.89,0,0,0-5-1.55,9,9,0,0,0,1.55,5c1.11,1.11,4.06,1.92,5.85,2.31Zm1.63,0c1.8-.39,4.75-1.2,5.86-2.31a8.89,8.89,0,0,0,1.55-5,9,9,0,0,0-5,1.55A10,10,0,0,0,16.56,8.83ZM15,15.75V10.37c-1.55-.3-5.38-1.19-7-2.79C6,5.58,6,1,6,.75A.75.75,0,0,1,6.75,0c.2,0,4.83,0,6.83,2a9.43,9.43,0,0,1,2.17,3.6A9.3,9.3,0,0,1,17.92,2c2-2,6.63-2,6.83-2a.75.75,0,0,1,.75.75c0,.2,0,4.83-2,6.83-1.6,1.6-5.43,2.49-7,2.79v5.38a.75.75,0,0,1-1.5,0ZM1,25.06a6.74,6.74,0,0,1-1-3.47V11.25A3.74,3.74,0,0,1,1.32,8.39a3.79,3.79,0,0,1,3.05-.84A3.86,3.86,0,0,1,7.5,11.41v4.13h0a3.41,3.41,0,0,1,2.1-.61,3.73,3.73,0,0,1,2.69,1.38L15,19.62h0a6.92,6.92,0,0,1,.76,1.2,6.92,6.92,0,0,1,.76-1.2l2.7-3.32a3.73,3.73,0,0,1,2.69-1.38,3.41,3.41,0,0,1,2.1.61V11.41a3.86,3.86,0,0,1,3.13-3.86,3.79,3.79,0,0,1,3.05.84,3.74,3.74,0,0,1,1.32,2.86V21.59a6.74,6.74,0,0,1-1,3.47l-3.65,6.08a.75.75,0,1,1-1.28-.78l3.64-6.07a5.26,5.26,0,0,0,.75-2.7V11.25a2.22,2.22,0,0,0-.8-1.72A2.26,2.26,0,0,0,27.37,9,2.42,2.42,0,0,0,26,9.88a2.37,2.37,0,0,0-.5,1.53v7.34a.65.65,0,0,1,0,.2,3.63,3.63,0,0,1-1,2.09l-2.16,2.68a.75.75,0,0,1-1,.11.76.76,0,0,1-.12-1l2.2-2.72a2.23,2.23,0,0,0,0-3.11A1.78,1.78,0,0,0,22,16.42a2.21,2.21,0,0,0-1.6.82l-2.7,3.33a5.22,5.22,0,0,0-1.17,3.31v6.87a.75.75,0,0,1-1.5,0V23.88a5.22,5.22,0,0,0-1.17-3.31l-2.7-3.33a2.21,2.21,0,0,0-1.6-.82A1.77,1.77,0,0,0,8.12,17a2.21,2.21,0,0,0-.62,1.5v.05A2.18,2.18,0,0,0,8.1,20l2.23,2.77a.75.75,0,0,1-.11,1,.76.76,0,0,1-1.06-.11L7,21A3.55,3.55,0,0,1,6,18.89a.35.35,0,0,1,0-.14V11.41a2.37,2.37,0,0,0-.5-1.53A2.42,2.42,0,0,0,4.13,9a2.26,2.26,0,0,0-1.83.5,2.22,2.22,0,0,0-.8,1.72V21.59a5.26,5.26,0,0,0,.75,2.7l3.64,6.07a.75.75,0,1,1-1.28.78Z"/></g></g></svg>