<svg xmlns="http://www.w3.org/2000/svg" viewBox="0 0 34.1 33.35"><defs><style>.cls-1{fill:#fff;}</style></defs><g id="Layer_2" data-name="Layer 2"><g id="Layer_1-2" data-name="Layer 1"><path class="cls-1" d="M22.14,21.65c-4.74,4.63-7.22,6-8.44,6.32h0a22.25,22.25,0,0,1-5.28.5.73.73,0,0,0-.29,0l-3.91-2.8a3.5,3.5,0,0,1,.32-.4A18.63,18.63,0,0,1,9,21.18a19.23,19.23,0,0,1,2.15-.68c.47-.11,1.73-.5,1.73-.5a8.27,8.27,0,0,1,3-.58c.15,0,.43.36.76.86l-1.44.83a18.94,18.94,0,0,1-3.48,1.08l-.26,0a1,1,0,0,0,.4,1.91l.25,0a21.37,21.37,0,0,0,4-1.26c1.36-.71,2.3-1.29,2.33-1.29s2.2-1.29,2.45-1.4a.92.92,0,0,1,1.29.18A1,1,0,0,1,22.14,21.65ZM5.61,31.17,2.13,28.69c.14-.18.29-.43.43-.65l.5-.72,3.42,2.45ZM19.88,18.45c-.22.15-.83.47-1.55.9a3.56,3.56,0,0,0-2.15-1.83,9,9,0,0,0-3.92.64s-1.22.36-1.65.47a20.35,20.35,0,0,0-2.41.76C6.87,20,4.43,22.3,3,24.09c-.46.61-1.29,1.8-2,2.88-.29.39-.5.75-.72,1a1.46,1.46,0,0,0,.36,2l4.31,3.05a1.48,1.48,0,0,0,1.12.25s.07,0,.07,0A1.73,1.73,0,0,0,7,32.68l1.4-2.23a24.6,24.6,0,0,0,5.75-.57h0c2.12-.58,5.29-2.88,9.31-6.83a2.91,2.91,0,0,0,.21-3.88A2.76,2.76,0,0,0,19.88,18.45Z"/><path class="cls-1" d="M31.51,5.27,31,6,27.6,3.54l.9-1.4L32,4.62c-.18.22-.32.43-.47.65M29.57,8a18.63,18.63,0,0,1-4.45,4.13,19.48,19.48,0,0,1-2.16.68c-.46.11-1.72.5-1.72.5a8.36,8.36,0,0,1-3,.58,2.4,2.4,0,0,1-.75-.86c.57-.33,1.11-.65,1.44-.83a18.94,18.94,0,0,1,3.48-1.08l.25,0a1,1,0,0,0-.39-1.91l-.26,0a21.26,21.26,0,0,0-4,1.26c-1.37.71-2.3,1.29-2.34,1.29s-2.19,1.29-2.44,1.4A.92.92,0,0,1,11.94,13a1,1,0,0,1,0-1.29c4.74-4.64,7.19-6,8.44-6.32h0a22.2,22.2,0,0,1,5.28-.51,1,1,0,0,0,.29,0l3.91,2.8A4.07,4.07,0,0,0,29.57,8Zm3.92-4.67L29.18.27A1.55,1.55,0,0,0,28.07,0S28,0,28,.06a1.67,1.67,0,0,0-.86.61L25.73,2.9A24.07,24.07,0,0,0,20,3.47h0c-2.12.58-5.28,2.87-9.31,6.83a2.9,2.9,0,0,0-.21,3.88,2.86,2.86,0,0,0,3.84.68c.22-.15.83-.47,1.55-.9A3.54,3.54,0,0,0,18,15.79a9,9,0,0,0,3.92-.64s1.22-.36,1.65-.47A21,21,0,0,0,26,13.92c1.33-.57,3.77-2.91,5.21-4.7.46-.61,1.29-1.8,2-2.88.28-.39.5-.75.72-1A1.48,1.48,0,0,0,33.49,3.33Z"/></g></g></svg>