<?xml version="1.0" encoding="utf-8"?>
<!-- Generator: Adobe Illustrator 25.4.1, SVG Export Plug-In . SVG Version: 6.00 Build 0)  -->
<svg version="1.1" id="Layer_1" xmlns="http://www.w3.org/2000/svg" xmlns:xlink="http://www.w3.org/1999/xlink" x="0px" y="0px"
	 viewBox="0 0 754 100.9" style="enable-background:new 0 0 754 100.9;" xml:space="preserve">
<style type="text/css">
	.st0{fill:#F7B844;}
</style>
<g>
	<path class="st0" d="M92.9,100.6c-18,0-27.2-7.9-30.7-10.9c-1.5-1.2-2-2.1-0.7-4.4l5-8.6c0.5-0.9,1.3-1.4,2.2-1.6
		c1-0.2,2,0,2.7,0.6c6,4.5,12.1,8.6,20.9,8.6c7,0,12.5-4.6,12.5-10.5c0-6.6-5.2-11.6-17.5-16.5c-11.3-4.5-26.2-12.6-26.2-30.1
		c0-6.7,2.7-13.3,7.4-18.1c5.6-5.7,13.9-8.7,24-8.7c14.7,0,25.8,7.8,27.9,9.3c0.7,0.4,1.1,1.1,1.3,2.1c0.2,1,0,2-0.5,2.7l-5.3,7.9
		c-0.6,0.9-1.4,1.6-2.3,1.9c-1,0.4-2,0.3-2.8-0.2l-1-0.7c-5.7-3.6-11-7-18.2-7c-8.3,0-12.1,4.8-12.1,9.6c0,6.2,4.7,10.7,16.3,15.4
		c14.4,5.8,29.1,14.1,29.1,31.5c0,7.3-3.1,14.1-8.7,19.2C110.4,97.6,102.1,100.6,92.9,100.6z M69.4,75.4c-0.2,0-0.4,0-0.6,0.1
		c-0.6,0.1-1.4,0.5-2,1.5l-5,8.6c-1.2,2.1-0.7,2.9,0.7,4l0,0c3.4,3,12.5,10.8,30.5,10.8c9.1,0,17.4-3,23.2-8.3
		c5.5-5.1,8.6-11.8,8.6-19c0-17.3-14.6-25.5-28.9-31.3C84.1,36.9,79.3,32.4,79.3,26c0-4.9,3.8-9.9,12.4-9.9c7.2,0,12.6,3.4,18.3,7
		l1,0.7c0.9,0.6,1.9,0.4,2.5,0.2c0.8-0.3,1.6-1,2.2-1.8l5.3-7.9c0.5-0.7,0.6-1.6,0.4-2.5c-0.2-0.8-0.6-1.5-1.2-1.9
		c-2.1-1.6-13.1-9.3-27.7-9.3c-10,0-18.2,3-23.8,8.7c-4.6,4.7-7.3,11.2-7.3,17.9c0,17.3,14.9,25.3,26,29.9
		c12.4,5,17.7,10.1,17.7,16.8c0,6.1-5.6,10.8-12.8,10.8c-8.9,0-15-4.1-21.1-8.6C70.8,75.6,70.1,75.4,69.4,75.4z"/>
	<path class="st0" d="M201.3,99.2h-56.5c-1.5,0-2.8-1.3-2.8-2.8v-92c0-1.5,1.3-2.8,2.8-2.8h56.5c1.5,0,2.8,1.3,2.8,2.8v11.4
		c0,1.5-1.3,2.8-2.8,2.8h-41v22.5h34.2c1.5,0,2.8,1.3,2.8,2.8v11.5c0,1.5-1.3,2.8-2.8,2.8h-34.2v24h41c1.5,0,2.8,1.2,2.8,2.8v11.4
		C204.1,98,202.8,99.2,201.3,99.2z M144.8,2c-1.4,0-2.5,1.1-2.5,2.5v92c0,1.4,1.1,2.5,2.5,2.5h56.5c1.4,0,2.5-1.1,2.5-2.5V85
		c0-1.4-1.1-2.5-2.5-2.5H160V57.9h34.5c1.4,0,2.5-1.1,2.5-2.5V43.9c0-1.3-1.2-2.5-2.5-2.5H160V18.4h41.3c1.4,0,2.5-1.1,2.5-2.5V4.5
		c0-1.4-1.1-2.5-2.5-2.5H144.8z"/>
	<path class="st0" d="M265.1,100.6c-13.5,0-26.1-5.2-35.6-14.6c-9.5-9.4-14.7-22-14.7-35.5c0-13.5,5.2-26.1,14.7-35.6
		c9.5-9.5,22.1-14.7,35.6-14.7c13.3,0,23.7,4,33.7,13c0.6,0.6,1,1.3,1,2c0,0.8-0.3,1.5-0.9,2.1l-8.5,8.7c-0.5,0.6-1.1,0.9-1.7,0.9
		c-0.7,0-1.4-0.3-2-0.9c-5.9-5.2-13.6-8.2-21.3-8.2c-8.4,0-16.3,3.4-22,9.6c-5.7,6.1-8.8,14.1-8.8,22.6c0,8.5,3.1,16.4,8.8,22.5
		c5.8,6.1,13.7,9.5,22.1,9.5c7.6,0,14.7-2.7,21.2-7.9c1.2-1.1,2.8-0.8,3.7,0l8.6,8.9c0.5,0.4,0.7,1,0.8,1.7c0,0.8-0.3,1.7-0.9,2.3
		C289.8,95.9,278.1,100.6,265.1,100.6z M265.1,0.6c-13.4,0-26,5.2-35.4,14.6c-9.4,9.4-14.6,22-14.6,35.4c0,13.4,5.2,25.9,14.6,35.2
		c9.4,9.3,22,14.5,35.4,14.5c13,0,24.6-4.6,33.6-13.4c0.5-0.5,0.8-1.3,0.8-2.1c0-0.4-0.1-1-0.7-1.5l-8.6-8.9c-0.7-0.7-2.2-0.9-3.3,0
		c-6.5,5.3-13.7,8-21.4,8c-8.5,0-16.5-3.4-22.3-9.6c-5.8-6.1-8.9-14.1-8.9-22.7c0-8.6,3.1-16.7,8.9-22.8c5.8-6.2,13.7-9.7,22.3-9.7
		c7.7,0,15.5,3,21.5,8.2c0.5,0.5,1.1,0.8,1.8,0.8c0.6,0,1.1-0.3,1.5-0.8l8.5-8.8c0.5-0.5,0.8-1.2,0.8-1.9c0-0.7-0.3-1.3-0.9-1.8
		C288.7,4.6,278.4,0.6,265.1,0.6z"/>
	<path class="st0" d="M353.9,100.6c-10.6,0-20.4-3.8-27.6-10.7c-7.2-6.9-11.2-16.3-11.2-26.6V4.5c0-1.5,1.3-2.8,2.8-2.8h13.2
		c1.5,0,2.8,1.3,2.8,2.8v57.9c0,11.9,8,19.9,20,19.9c11.9,0,20.1-8.1,20.1-19.7V4.5c0-1.5,1.3-2.8,2.8-2.8H390
		c1.5,0,2.8,1.3,2.8,2.8v58.9c0,10.2-4,19.7-11.2,26.6C374.4,96.8,364.6,100.6,353.9,100.6z M317.9,2c-1.3,0-2.5,1.2-2.5,2.5v58.9
		c0,10.2,3.9,19.5,11.1,26.4c7.1,6.8,16.9,10.6,27.4,10.6c10.6,0,20.4-3.8,27.5-10.6c7.2-6.8,11.1-16.2,11.1-26.4V4.5
		c0-1.3-1.2-2.5-2.5-2.5h-13.2c-1.4,0-2.5,1.1-2.5,2.5v58.1c0,11.8-8.4,20-20.4,20c-12.1,0-20.3-8.1-20.3-20.2V4.5
		c0-1.4-1.1-2.5-2.5-2.5H317.9z"/>
	<path class="st0" d="M484.1,99.2h-14.6c-1.6,0-2.2-1-2.4-1.3l-18.4-36.7h-15.2v35.3c0,1.5-1.3,2.8-2.8,2.8H418
		c-1.5,0-2.8-1.3-2.8-2.8v-92c0-1.5,1.3-2.8,2.8-2.8h39.7c16.8,0,30.4,13.5,30.4,30c0,12.2-7.8,23-20.5,28.1L486.6,95
		c0.5,1,0.5,2.1,0,2.9C486.1,98.7,485.2,99.2,484.1,99.2z M433.3,60.9h15.7l0,0.1l18.5,36.8c0.1,0.3,0.7,1.2,2.1,1.2h14.6
		c1,0,1.8-0.4,2.2-1.2c0.5-0.8,0.5-1.8,0-2.6l-19.1-35.4l0.2-0.1c12.6-5.1,20.5-15.8,20.5-27.9c0-16.4-13.5-29.7-30.1-29.7H418
		c-1.4,0-2.5,1.1-2.5,2.5v92c0,1.4,1.1,2.5,2.5,2.5h12.8c1.3,0,2.5-1.2,2.5-2.5V60.9z M456.2,46.3h-22.8V18.4h22.8
		c7.5,0,13.9,6.2,13.9,13.6C470.1,39.7,463.7,46.3,456.2,46.3z M433.7,46h22.5c7.4,0,13.6-6.4,13.6-14c0-7.2-6.2-13.3-13.6-13.3
		h-22.5V46z"/>
	<path class="st0" d="M522.6,99.2h-12.9c-1.5,0-2.8-1.3-2.8-2.8v-92c0-1.5,1.3-2.8,2.8-2.8h12.9c1.5,0,2.8,1.3,2.8,2.8v92
		C525.4,97.9,524.1,99.2,522.6,99.2z M509.7,2c-1.3,0-2.5,1.2-2.5,2.5v92c0,1.3,1.2,2.5,2.5,2.5h12.9c1.3,0,2.5-1.2,2.5-2.5v-92
		c0-1.3-1.2-2.5-2.5-2.5H509.7z"/>
	<path class="st0" d="M580.2,99.2h-12.9c-1.5,0-2.8-1.3-2.8-2.8V18.7h-21.1c-1.5,0-2.8-1.3-2.8-2.8V4.5c0-1.5,1.2-2.8,2.8-2.8h60.7
		c1.5,0,2.8,1.3,2.8,2.8v11.4c0,1.5-1.3,2.8-2.8,2.8H583v77.8C583,97.9,581.6,99.2,580.2,99.2z M543.4,2c-1.4,0-2.5,1.1-2.5,2.5
		v11.4c0,1.4,1.1,2.5,2.5,2.5h21.4v78.1c0,1.3,1.2,2.5,2.5,2.5h12.9c1.3,0,2.5-1.2,2.5-2.5V18.4h21.4c1.4,0,2.5-1.1,2.5-2.5V4.5
		c0-1.4-1.1-2.5-2.5-2.5H543.4z"/>
	<path class="st0" d="M657.9,99.2h-12.8c-1.5,0-2.8-1.3-2.8-2.8V52.3L610.7,5.9c-0.6-0.9-0.6-2-0.1-2.9c0.5-0.9,1.4-1.4,2.5-1.4
		h14.2c0.9,0,1.7,0.4,2.3,1.3l22.1,31.8L673.7,3c0.7-0.9,1.4-1.3,2.3-1.3h14.3c1.1,0,2,0.5,2.5,1.4c0.5,0.9,0.4,2-0.1,2.9
		l-32.1,46.2v44.3C660.7,97.9,659.3,99.2,657.9,99.2z M613,2c-1,0-1.8,0.4-2.2,1.2c-0.4,0.8-0.4,1.8,0.1,2.6l31.7,46.4v44.2
		c0,1.4,1.1,2.5,2.5,2.5h12.8c1.3,0,2.5-1.2,2.5-2.5V52.1l0,0l32.1-46.3C693,5,693,4,692.6,3.2c-0.4-0.8-1.2-1.2-2.2-1.2h-14.3
		c-0.8,0-1.5,0.4-2.1,1.2l-22.3,32.1l-0.1-0.2l-22.2-32C628.7,2.4,628,2,627.2,2H613z"/>
</g>
</svg>
