<?xml version="1.0" encoding="utf-8"?>
<!-- Generator: Adobe Illustrator 25.4.1, SVG Export Plug-In . SVG Version: 6.00 Build 0)  -->
<svg version="1.1" id="Layer_1" xmlns="http://www.w3.org/2000/svg" xmlns:xlink="http://www.w3.org/1999/xlink" x="0px" y="0px"
	 viewBox="0 0 994.4 101" style="enable-background:new 0 0 994.4 101;" xml:space="preserve">
<style type="text/css">
	.st0{fill:#FFFFFF;}
</style>
<g>
	<path class="st0" d="M81.4,99.4c-13.2,0-25.5-5-34.7-14.2c-9.2-9.2-14.3-21.5-14.3-34.6c0-13.2,5.1-25.5,14.3-34.7
		C56,6.6,68.3,1.6,81.4,1.6c13,0,23.2,3.9,32.9,12.6c0.6,0.5,1,1.3,1,2c0,0.7-0.3,1.4-0.8,2l-8.3,8.5c-0.5,0.5-1.1,0.8-1.7,0.9
		c-0.7,0-1.3-0.3-1.9-0.9c-5.7-5.1-13.3-8-20.8-8c-8.2,0-15.9,3.3-21.5,9.3c-5.5,5.9-8.6,13.8-8.6,22.1c0,8.3,3.1,16,8.6,21.9
		c5.7,6,13.3,9.3,21.6,9.3c7.4,0,14.3-2.6,20.6-7.7c1.2-1,2.8-0.8,3.6,0l8.4,8.7c0.5,0.4,0.7,1,0.7,1.6c0,0.8-0.3,1.7-0.9,2.2
		C105.6,94.9,94.2,99.4,81.4,99.4z M81.4,1.9c-13.1,0-25.3,5.1-34.5,14.3c-9.2,9.2-14.3,21.5-14.3,34.5c0,13.1,5.1,25.3,14.3,34.4
		c9.2,9.1,21.4,14.1,34.5,14.1c12.6,0,24-4.5,32.8-13.1c0.5-0.5,0.8-1.3,0.8-2c0-0.4-0.1-1-0.6-1.4l-8.4-8.7c-0.7-0.7-2.1-0.9-3.2,0
		c-6.4,5.2-13.4,7.8-20.8,7.8c-8.3,0-16.1-3.3-21.8-9.3c-5.6-5.9-8.7-13.8-8.7-22.1c0-8.4,3.1-16.3,8.6-22.3
		c5.7-6.1,13.4-9.4,21.7-9.4c7.5,0,15.2,2.9,21,8c0.5,0.5,1.1,0.8,1.7,0.8c0.5,0,1-0.3,1.5-0.8l8.3-8.5c0.5-0.5,0.8-1.1,0.8-1.8
		c0-0.7-0.3-1.3-0.9-1.8C104.5,5.7,94.4,1.9,81.4,1.9z"/>
	<path class="st0" d="M172.3,99.4c-13.2,0-25.4-5-34.6-14.2c-9.2-9.2-14.2-21.5-14.2-34.6c0-13.2,5-25.5,14.2-34.7
		c9.2-9.3,21.5-14.3,34.6-14.3c13.1,0,25.5,5.1,34.7,14.3c9.2,9.2,14.3,21.6,14.3,34.7c0,13.1-5.1,25.4-14.3,34.6
		C197.8,94.4,185.5,99.4,172.3,99.4z M172.3,1.9c-13.1,0-25.3,5.1-34.4,14.3c-9.1,9.2-14.1,21.4-14.1,34.5c0,13.1,5,25.3,14.1,34.4
		c9.1,9.1,21.3,14.1,34.4,14.1c13.1,0,25.3-5,34.5-14.1c9.1-9.1,14.2-21.3,14.2-34.4c0-13.1-5-25.3-14.2-34.5
		C197.6,6.9,185.4,1.9,172.3,1.9z M172.3,81.8c-17.2,0-31.2-14-31.2-31.2c0-8.3,3.3-16.2,9.2-22.2c5.9-6,13.7-9.3,22-9.3
		c8.3,0,16.1,3.3,22.1,9.3c5.9,6,9.2,13.9,9.2,22.2c0,8.3-3.3,16.1-9.2,22C188.5,78.6,180.6,81.8,172.3,81.8z M172.3,19.5
		c-8.2,0-16,3.3-21.8,9.2c-5.9,5.9-9.1,13.7-9.1,22c0,17,13.9,30.9,30.9,30.9c8.2,0,16-3.2,21.9-9.1c5.9-5.9,9.1-13.6,9.1-21.8
		c0-8.2-3.2-16-9.1-22C188.3,22.7,180.5,19.5,172.3,19.5z"/>
	<path class="st0" d="M286.9,99.4h-2.4c-1.1,0-1.9-0.5-2.4-1.6l-24-53.2h-0.2L250,95.9c-0.1,1-1.3,2.2-2.6,2.2h-12.2
		c-0.9,0-1.6-0.3-2.1-0.9c-0.5-0.6-0.7-1.4-0.6-2.4l16.1-91.1c0.1-1,0.9-2.2,2.6-2.2h2.2c1.1,0,2,0.5,2.4,1.4l29.8,63.9h0.2L315.6,3
		c0.5-1,1.3-1.4,2.4-1.4h2.2c1.7,0,2.5,1.2,2.6,2.2l16,91.1c0.2,0.9,0.1,1.8-0.4,2.4c-0.5,0.6-1.2,0.9-2.2,0.9h-12.3
		c-1.3,0-2.4-1.1-2.7-2.1l-8-51.3H313l-23.7,53.2C289,98.8,288.1,99.4,286.9,99.4z M257.6,44.4h0.6l0,0.1l24,53.3
		c0.5,0.9,1.2,1.4,2.2,1.4h2.4c1.3,0,1.9-0.7,2.2-1.4l23.8-53.4h0.6l0,0.1l8,51.4c0.3,0.9,1.3,1.9,2.4,1.9h12.3
		c0.8,0,1.5-0.3,1.9-0.8c0.4-0.5,0.6-1.3,0.4-2.1l-16-91.1c-0.1-0.9-0.8-1.9-2.3-1.9h-2.2c-1,0-1.7,0.4-2.2,1.3L286,67.2h-0.6l0-0.1
		l-29.8-64c-0.4-0.8-1.2-1.3-2.2-1.3h-2.2c-1.5,0-2.2,1-2.3,1.9l0,0l-16.1,91.1c-0.1,0.9,0.1,1.6,0.5,2.2c0.4,0.5,1.1,0.8,1.9,0.8
		h12.2c1.1,0,2.2-1,2.3-1.9L257.6,44.4z"/>
	<path class="st0" d="M405.7,99.4h-2.4c-1.1,0-1.9-0.5-2.4-1.6l-24-53.2h-0.2l-7.8,51.2c-0.1,1-1.3,2.2-2.6,2.2h-12.2
		c-0.9,0-1.6-0.3-2.1-0.9c-0.5-0.6-0.7-1.4-0.6-2.4l16.1-91.1c0.2-1.3,1.2-2.2,2.6-2.2h2.2c1.1,0,2,0.5,2.4,1.4l29.8,63.9h0.2
		L434.4,3c0.5-1,1.3-1.4,2.4-1.4h2.2c1.7,0,2.5,1.2,2.6,2.2l16,91.1c0.2,1,0.1,1.8-0.4,2.4c-0.5,0.6-1.2,0.9-2.2,0.9h-12.3
		c-1.3,0-2.4-1.1-2.7-2.1l-8-51.3h-0.2l-23.7,53.2C407.8,98.8,406.9,99.4,405.7,99.4z M376.4,44.4h0.6l0,0.1l24,53.3
		c0.5,0.9,1.2,1.4,2.2,1.4h2.4c1.3,0,1.9-0.7,2.2-1.4l23.8-53.4h0.6l0,0.1l8,51.4c0.3,0.9,1.3,1.9,2.4,1.9H455
		c0.8,0,1.5-0.3,1.9-0.8c0.4-0.5,0.6-1.3,0.4-2.1l-16-91.1c-0.1-0.9-0.8-1.9-2.3-1.9h-2.2c-1,0-1.7,0.4-2.2,1.3l-29.9,64.1h-0.6
		l0-0.1l-29.8-64c-0.4-0.8-1.2-1.3-2.2-1.3h-2.2c-1.5,0-2.2,1-2.3,1.9l0,0l-16.1,91.1c-0.1,0.9,0.1,1.6,0.5,2.2
		c0.4,0.5,1.1,0.8,1.9,0.8h12.2c1.1,0,2.2-1,2.3-1.9L376.4,44.4z"/>
	<path class="st0" d="M511.1,99.4c-10.3,0-19.9-3.7-26.9-10.4c-7-6.7-10.9-15.9-10.9-25.9V5.6c0-1.4,1.3-2.7,2.7-2.7h12.9
		c1.5,0,2.7,1.2,2.7,2.7v56.5c0,11.6,7.8,19.4,19.5,19.4c11.6,0,19.6-7.9,19.6-19.2V5.6c0-1.5,1.2-2.7,2.7-2.7h12.9
		c1.4,0,2.7,1.3,2.7,2.7v57.5c0,10-3.9,19.2-10.9,25.9C531.1,95.8,521.5,99.4,511.1,99.4z M476,3.2c-1.3,0-2.4,1.2-2.4,2.4v57.5
		c0,9.9,3.8,19,10.8,25.7c7,6.7,16.4,10.3,26.7,10.3c10.3,0,19.9-3.7,26.8-10.3c7-6.7,10.8-15.8,10.8-25.7V5.6
		c0-1.3-1.2-2.4-2.4-2.4h-12.9c-1.3,0-2.4,1.1-2.4,2.4v56.7c0,11.5-8.2,19.5-19.9,19.5c-11.8,0-19.8-7.9-19.8-19.7V5.6
		c0-1.3-1.1-2.4-2.4-2.4H476z"/>
	<path class="st0" d="M648.6,99.4h-1.9c-1,0-1.7-0.3-2.4-1l-55.5-61.2h-0.1v58.1c0,1.5-1.2,2.7-2.7,2.7h-12.3
		c-1.4,0-2.7-1.3-2.7-2.7V4.1c0-1.4,1.2-2.6,2.7-2.6h2c1,0,1.7,0.3,2.4,1l55.3,58.9h0.1V5.6c0-1.5,1.2-2.7,2.7-2.7h12.5
		c1.4,0,2.7,1.3,2.7,2.7v91.2C651.3,98.3,650,99.4,648.6,99.4z M588.4,36.9h0.5l0,0l55.6,61.3c0.6,0.6,1.3,0.9,2.2,0.9h1.9
		c1.3,0,2.4-1,2.4-2.3V5.6c0-1.3-1.2-2.4-2.4-2.4h-12.5c-1.3,0-2.4,1.1-2.4,2.4v56.1h-0.5l0,0l-55.3-59c-0.6-0.6-1.3-0.9-2.2-0.9h-2
		c-1.3,0-2.4,1-2.4,2.3v91.2c0,1.3,1.2,2.4,2.4,2.4h12.3c1.3,0,2.4-1.1,2.4-2.4V36.9z"/>
	<path class="st0" d="M689.4,98.1h-12.6c-1.4,0-2.7-1.3-2.7-2.7V5.6c0-1.4,1.3-2.7,2.7-2.7h12.6c1.4,0,2.7,1.3,2.7,2.7v89.7
		C692.1,96.8,690.8,98.1,689.4,98.1z M676.8,3.2c-1.3,0-2.4,1.2-2.4,2.4v89.7c0,1.3,1.2,2.4,2.4,2.4h12.6c1.3,0,2.4-1.2,2.4-2.4V5.6
		c0-1.3-1.2-2.4-2.4-2.4H676.8z"/>
	<path class="st0" d="M745.5,98.1h-12.6c-1.4,0-2.7-1.3-2.7-2.7V19.5h-20.6c-1.5,0-2.7-1.2-2.7-2.7V5.6c0-1.5,1.2-2.7,2.7-2.7h59.2
		c1.5,0,2.7,1.2,2.7,2.7v11.1c0,1.5-1.2,2.7-2.7,2.7h-20.6v75.9C748.3,96.8,747,98.1,745.5,98.1z M709.6,3.2c-1.3,0-2.4,1.1-2.4,2.4
		v11.1c0,1.3,1.1,2.4,2.4,2.4h20.9v76.2c0,1.3,1.2,2.4,2.4,2.4h12.6c1.3,0,2.4-1.2,2.4-2.4V19.2h20.9c1.3,0,2.4-1.1,2.4-2.4V5.6
		c0-1.3-1.1-2.4-2.4-2.4H709.6z"/>
	<path class="st0" d="M801.7,98.1h-12.6c-1.4,0-2.7-1.3-2.7-2.7V5.6c0-1.4,1.3-2.7,2.7-2.7h12.6c1.4,0,2.7,1.3,2.7,2.7v89.7
		C804.4,96.8,803.1,98.1,801.7,98.1z M789.1,3.2c-1.3,0-2.4,1.2-2.4,2.4v89.7c0,1.3,1.2,2.4,2.4,2.4h12.6c1.3,0,2.4-1.2,2.4-2.4V5.6
		c0-1.3-1.2-2.4-2.4-2.4H789.1z"/>
	<path class="st0" d="M885.1,98.1h-55.2c-1.5,0-2.7-1.2-2.7-2.7V5.6c0-1.5,1.2-2.7,2.7-2.7h55.2c1.5,0,2.7,1.2,2.7,2.7v11.1
		c0,1.5-1.2,2.7-2.7,2.7h-40v21.9h33.3c1.4,0,2.7,1.3,2.7,2.7v11.3c0,1.5-1.2,2.7-2.7,2.7h-33.3v23.4h40c1.5,0,2.7,1.2,2.7,2.7v11.1
		C887.8,96.9,886.6,98.1,885.1,98.1z M829.9,3.2c-1.3,0-2.4,1.1-2.4,2.4v89.7c0,1.3,1.1,2.4,2.4,2.4h55.2c1.3,0,2.4-1.1,2.4-2.4
		V84.3c0-1.3-1.1-2.4-2.4-2.4h-40.3v-24h33.6c1.3,0,2.4-1.1,2.4-2.4V44.1c0-1.3-1.2-2.4-2.4-2.4h-33.6V19.2h40.3
		c1.3,0,2.4-1.1,2.4-2.4V5.6c0-1.3-1.1-2.4-2.4-2.4H829.9z"/>
	<path class="st0" d="M930.7,99.4c-17.6,0-26.5-7.7-29.9-10.6c-1.5-1.2-1.9-2.1-0.7-4.3l4.9-8.4c0.5-0.8,1.2-1.4,2.2-1.6
		c0.9-0.2,2,0,2.7,0.6c5.8,4.4,11.8,8.4,20.4,8.4c6.8,0,12.2-4.5,12.2-10.3c0-6.4-5.1-11.3-17.1-16.1c-11-4.4-25.6-12.3-25.6-29.4
		c0-6.6,2.6-13,7.2-17.6c5.5-5.6,13.6-8.5,23.4-8.5c14.3,0,25.2,7.6,27.2,9.1c0.6,0.4,1.1,1.1,1.3,2c0.2,1,0,2-0.5,2.7l-5.1,7.7
		c-0.7,1.1-1.8,1.9-2.8,2.1c-0.8,0.2-1.5,0-2.1-0.4l-1-0.6c-5.5-3.5-10.8-6.8-17.8-6.8c-8.1,0-11.8,4.7-11.8,9.3
		c0,6.1,4.6,10.4,15.9,15c14.1,5.6,28.4,13.7,28.4,30.8c0,7.1-3,13.7-8.5,18.8C947.8,96.5,939.6,99.4,930.7,99.4z M907.7,74.8
		c-0.2,0-0.4,0-0.6,0.1c-0.6,0.1-1.4,0.5-2,1.4l-4.9,8.4c-1.2,2.1-0.7,2.8,0.6,3.9l0,0c3.3,2.9,12.2,10.5,29.7,10.5
		c8.9,0,16.9-2.9,22.7-8.1c5.4-5,8.4-11.5,8.4-18.5c0-16.9-14.3-24.9-28.2-30.5c-11.4-4.7-16.1-9.1-16.1-15.3
		c0-4.8,3.7-9.6,12.1-9.6c7.1,0,12.3,3.3,17.9,6.9l1,0.6c0.6,0.4,1.2,0.5,1.9,0.4c1-0.2,2-0.9,2.7-1.9l5.1-7.7
		c0.4-0.6,0.6-1.5,0.4-2.4c-0.2-0.8-0.6-1.5-1.2-1.8c-2-1.5-12.8-9.1-27-9.1c-9.7,0-17.8,2.9-23.2,8.4c-4.5,4.6-7.1,10.9-7.1,17.4
		c0,16.9,14.5,24.7,25.4,29.1c12.1,4.9,17.3,9.8,17.3,16.4c0,5.9-5.5,10.6-12.5,10.6c-8.7,0-14.7-4-20.6-8.4
		C909.1,75,908.4,74.8,907.7,74.8z"/>
</g>
</svg>
