<?xml version="1.0" encoding="utf-8"?>
<!-- Generator: Adobe Illustrator 26.0.3, SVG Export Plug-In . SVG Version: 6.00 Build 0)  -->
<svg version="1.1" id="Layer_1" xmlns="http://www.w3.org/2000/svg" xmlns:xlink="http://www.w3.org/1999/xlink" x="0px" y="0px"
	 viewBox="0 0 657.5 100" style="enable-background:new 0 0 657.5 100;" xml:space="preserve">
<style type="text/css">
	.st0{opacity:0.6;}
	.st1{fill:#FDB71A;}
</style>
<g class="st0">
	<path class="st1" d="M44.4,1c14.3,0,25.2,7.6,27.2,9.1l0,0l0,0c0.4,0.2,0.7,0.7,0.8,1.3c0.1,0.7,0,1.4-0.3,1.9l-5.3,7.9
		c-0.7,1-1.7,1.7-2.6,1.7c-0.3,0-0.6-0.1-0.9-0.3l-1-0.7c-5.6-3.5-11.3-7.1-18.8-7.1c-9.1,0-13.2,5.4-13.2,10.7
		c0,6.8,4.9,11.6,17,16.5c14,5.6,28.4,13.7,28.4,30.5C75.8,85.3,64.9,99,44.8,99c-17.6,0-26.5-7.7-29.9-10.6c-1-0.8-1.4-1.1-0.5-2.9
		l5-8.6c0.6-1,1.4-1.1,1.9-1.1s1,0.2,1.4,0.4c6.1,4.6,12.4,8.8,21.6,8.8c7.6,0,13.6-5.1,13.6-11.7c0-7.2-5.5-12.4-18.3-17.6
		c-10.9-4.4-25.5-12.2-25.5-29.1c0-6.4,2.6-12.7,7.1-17.3C26.6,3.9,34.6,1,44.4,1 M44.4,0C22.3,0,13.1,14.3,13.1,26.7
		c0,16.4,13.1,24.7,26.1,30c11.7,4.7,17.6,9.6,17.6,16.7c0,6-5.4,10.7-12.6,10.7c-9,0-15.3-4.3-21-8.6c-0.5-0.4-1.2-0.6-2-0.6
		c-1,0-2.1,0.5-2.8,1.6l-5,8.6c-1.2,2.2-0.7,3.1,0.7,4.2c4,3.5,13.1,10.8,30.6,10.8c19.6,0,31.9-13.2,31.9-27.5
		c0-17.9-15.6-26-29-31.4c-11.3-4.6-16.4-9-16.4-15.6c0-5.3,4.3-9.7,12.2-9.7c7.6,0,13.3,3.9,19.3,7.6c0.5,0.3,1,0.4,1.5,0.4
		c1.3,0,2.6-0.9,3.4-2.1l5.3-7.9c1-1.4,0.6-3.7-0.8-4.6C69.4,7.2,58.6,0,44.4,0L44.4,0z"/>
	<path class="st1" d="M153.2,2.4c1,0,1.6,0.9,1.6,1.6v11.4c0,0.8-0.6,1.6-1.6,1.6H112h-1v1v22.8v1h1h34.3c0.8,0,1.6,0.8,1.6,1.6V55
		c0,1-0.9,1.6-1.6,1.6H112h-1v1v24.3v1h1h41.1c1,0,1.6,0.9,1.6,1.6V96c0,0.8-0.6,1.6-1.6,1.6H96.6c-1,0-1.6-0.9-1.6-1.6V4
		c0-0.8,0.6-1.6,1.6-1.6H153.2 M153.2,1.4H96.6C95.1,1.4,94,2.6,94,4v92c0,1.4,1.1,2.6,2.6,2.6h56.5c1.5,0,2.6-1.3,2.6-2.6V84.6
		c0-1.4-1.1-2.6-2.6-2.6H112V57.6h34.3c1.4,0,2.6-1.1,2.6-2.6V43.5c0-1.4-1.3-2.6-2.6-2.6H112V18.1h41.1c1.5,0,2.6-1.3,2.6-2.6V4
		C155.8,2.6,154.7,1.4,153.2,1.4L153.2,1.4z"/>
	<path class="st1" d="M216.9,1c13,0,23.2,3.9,32.9,12.7c0.4,0.3,0.6,0.8,0.6,1.2s-0.2,0.9-0.5,1.2l-8.5,8.8l0,0l0,0
		c-0.2,0.2-0.5,0.5-0.9,0.5s-0.7-0.2-1.1-0.5l0,0l0,0c-6.1-5.4-14.1-8.4-22.1-8.4c-8.8,0-16.9,3.5-22.9,9.9
		c-5.9,6.3-9.1,14.6-9.1,23.4s3.3,17,9.2,23.2c6,6.3,14.2,9.8,22.9,9.8c7.8,0,15.2-2.7,21.9-8.2c0.4-0.4,0.8-0.4,1.1-0.4
		c0.4,0,0.8,0.1,1,0.4l8.6,8.9l0,0l0,0c0.2,0.2,0.4,0.5,0.4,0.9c0,0.5-0.2,1.1-0.6,1.4c-8.9,8.6-20.3,13.2-33.1,13.2
		c-13.2,0-25.5-5.1-34.8-14.2c-9.3-9.2-14.4-21.5-14.4-34.6c0-13.2,5.1-25.5,14.4-34.8C191.4,6.1,203.8,1,216.9,1 M216.9,0
		c-27.8,0-50.1,22.4-50.1,50.1s22.4,49.9,50.1,49.9c12.4,0,24.3-4.3,33.7-13.5c1-1,1.3-2.8,0.1-3.8l-8.6-8.9
		c-0.4-0.4-1.1-0.7-1.7-0.7c-0.6,0-1.2,0.2-1.8,0.7c-5.8,4.7-12.9,7.9-21.3,7.9c-17.8,0-31.1-14.7-31.1-32.1
		c0-17.5,13.2-32.4,31-32.4c7.8,0,15.6,3.1,21.4,8.2c0.6,0.6,1.2,0.8,1.8,0.8s1.2-0.3,1.7-0.8l8.5-8.8c1.1-1.1,1.1-2.8-0.1-3.9
		C241.1,4.4,230.9,0,216.9,0L216.9,0z"/>
	<path class="st1" d="M341.8,2.4c0.8,0,1.6,0.8,1.6,1.6v58.9c0,20.6-16.2,36.1-37.7,36.1c-10.3,0-19.8-3.7-26.8-10.3
		c-7-6.7-10.8-15.8-10.8-25.7V4c0-0.8,0.8-1.6,1.6-1.6h13.2c1,0,1.6,0.9,1.6,1.6v57.9c0,12.4,8.7,21,21.1,21
		c12.5,0,21.3-8.6,21.3-20.9V4c0-0.8,0.6-1.6,1.6-1.6H341.8 M341.8,1.4h-13.2c-1.5,0-2.6,1.3-2.6,2.6v58.1
		c0,11.7-8.2,19.9-20.3,19.9c-12.1,0-20.1-8.2-20.1-20V4c0-1.4-1.1-2.6-2.6-2.6h-13.2c-1.4,0-2.6,1.3-2.6,2.6v58.9
		c0,21.1,16.8,37.1,38.6,37.1c21.9,0,38.7-16,38.7-37.1V4C344.4,2.6,343.2,1.4,341.8,1.4L341.8,1.4z"/>
	<path class="st1" d="M409.4,2.4c16.1,0,29.3,12.9,29.3,28.9c0,11.8-7.6,22.2-19.9,27.1l-1,0.4l0.5,1l19,35.3c0.3,0.6,0.3,1.3,0,1.8
		s-0.8,0.7-1.5,0.7h-14.6c-0.9,0-1.2-0.5-1.3-0.7l-18.5-36.8l-0.3-0.6h-0.6h-15.4h-1v1V96c0,0.8-0.8,1.6-1.6,1.6h-12.8
		c-1,0-1.6-0.9-1.6-1.6V4c0-0.8,0.6-1.6,1.6-1.6H409.4 M384.3,46.7h1h22.6c8,0,14.8-6.9,14.8-15.2c0-7.8-6.8-14.5-14.8-14.5h-22.6
		h-1v1v27.6V46.7 M409.4,1.4h-39.7c-1.5,0-2.6,1.3-2.6,2.6v92c0,1.4,1.1,2.6,2.6,2.6h12.8c1.4,0,2.6-1.3,2.6-2.6V60.6h15.4L419,97.4
		c0.3,0.6,1,1.3,2.2,1.3h14.6c2.4,0,3.3-2.2,2.4-4l-19-35.3c12.1-4.9,20.6-15.3,20.6-28.1C439.7,14.7,426.1,1.4,409.4,1.4L409.4,1.4
		z M385.3,45.7V18.1h22.6c7.4,0,13.8,6.1,13.8,13.5c0,7.8-6.4,14.2-13.8,14.2L385.3,45.7L385.3,45.7z"/>
	<path class="st1" d="M474.3,2.4c0.8,0,1.6,0.8,1.6,1.6v92c0,0.8-0.8,1.6-1.6,1.6h-12.9c-0.8,0-1.6-0.8-1.6-1.6V4
		c0-0.8,0.8-1.6,1.6-1.6H474.3 M474.3,1.4h-12.9c-1.4,0-2.6,1.3-2.6,2.6v92c0,1.4,1.2,2.6,2.6,2.6h12.9c1.4,0,2.6-1.3,2.6-2.6V4
		C477,2.6,475.7,1.4,474.3,1.4L474.3,1.4z"/>
	<path class="st1" d="M555.7,2.4c1,0,1.6,0.9,1.6,1.6v11.4c0,0.8-0.6,1.6-1.6,1.6h-21.3h-1v1v78c0,0.8-0.8,1.6-1.6,1.6h-12.9
		c-0.8,0-1.6-0.8-1.6-1.6V18.1v-1h-1H495c-1,0-1.6-0.9-1.6-1.6V4c0-0.8,0.6-1.6,1.6-1.6H555.7 M555.7,1.4H495
		c-1.5,0-2.6,1.3-2.6,2.6v11.4c0,1.4,1.1,2.6,2.6,2.6h21.2v78c0,1.4,1.3,2.6,2.6,2.6h12.9c1.4,0,2.6-1.3,2.6-2.6V18.1h21.3
		c1.5,0,2.6-1.3,2.6-2.6V4C558.4,2.6,557.2,1.4,555.7,1.4L555.7,1.4z"/>
	<path class="st1" d="M642,2.4c0.7,0,1.2,0.3,1.5,0.8s0.3,1.1-0.1,1.7l-32.1,46.2l-0.2,0.3v0.3V96c0,0.8-0.8,1.6-1.6,1.6h-12.8
		c-1,0-1.6-0.9-1.6-1.6V51.8v-0.3l-0.2-0.3L563.2,4.9c-0.3-0.6-0.4-1.2-0.1-1.7c0.3-0.5,0.8-0.8,1.5-0.8h14.2c0.5,0,1,0.3,1.4,0.8
		l22.2,31.9l0.8,1.2l0.8-1.2l22.2-31.9c0.4-0.6,0.9-0.8,1.4-0.8L642,2.4 M642,1.4h-14.3c-1.1,0-1.8,0.7-2.2,1.3l-22.2,31.9L581,2.6
		c-0.4-0.6-1.1-1.3-2.2-1.3h-14.2c-2.2,0-3.3,2.2-2.2,4l31.7,46.4V96c0,1.4,1.1,2.6,2.6,2.6h12.8c1.4,0,2.6-1.3,2.6-2.6V51.7
		l32.1-46.2C645.3,3.6,644.2,1.4,642,1.4L642,1.4z"/>
</g>
</svg>
