<?xml version="1.0" encoding="utf-8"?>
<!-- Generator: Adobe Illustrator 26.0.3, SVG Export Plug-In . SVG Version: 6.00 Build 0)  -->
<svg version="1.1" id="Layer_1" xmlns="http://www.w3.org/2000/svg" xmlns:xlink="http://www.w3.org/1999/xlink" x="0px" y="0px"
	 viewBox="0 0 527.5 100" style="enable-background:new 0 0 527.5 100;" xml:space="preserve">
<style type="text/css">
	.st0{fill:#FFFFFF;}
</style>
<g>
	<path class="st0" d="M12.7,95L55.9,1.5C56.3,0.7,57,0,58.3,0h1.4c1.4,0,1.9,0.7,2.4,1.5L104.8,95c0.8,1.8-0.3,3.6-2.4,3.6H90.4
		c-2.1,0-3.1-0.8-4-2.8l-6.8-15H38l-6.8,15c-0.6,1.4-1.8,2.8-4,2.8H15.1C13,98.6,11.9,96.8,12.7,95z M72.7,65.4L58.8,34.9h-0.4
		L44.8,65.4H72.7z"/>
	<path class="st0" d="M159.1,0c14,0,24.2,4.4,33.6,12.9c1.3,1.1,1.3,2.8,0.1,3.9l-8.5,8.8c-1,1.1-2.4,1.1-3.5,0
		c-5.8-5.1-13.6-8.2-21.4-8.2c-17.8,0-31,14.9-31,32.4c0,17.4,13.3,32.1,31.1,32.1c8.3,0,15.4-3.2,21.3-7.9c1.1-1,2.6-0.8,3.5,0
		l8.6,8.9c1.1,1,0.8,2.8-0.1,3.8c-9.4,9.2-21.4,13.5-33.7,13.5c-27.8,0-50.1-22.1-50.1-49.9S131.4,0,159.1,0z"/>
	<path class="st0" d="M252.5,0c14,0,24.2,4.4,33.6,12.9c1.3,1.1,1.3,2.8,0.1,3.9l-8.5,8.8c-1,1.1-2.4,1.1-3.5,0
		c-5.8-5.1-13.6-8.2-21.4-8.2c-17.8,0-31,14.9-31,32.4c0,17.4,13.3,32.1,31.1,32.1c8.3,0,15.4-3.2,21.2-7.9c1.1-1,2.6-0.8,3.5,0
		l8.6,8.9c1.1,1,0.8,2.8-0.1,3.8c-9.4,9.2-21.4,13.5-33.7,13.5c-27.8,0-50.1-22.1-50.1-49.9S224.7,0,252.5,0z"/>
	<path class="st0" d="M303.6,4c0-1.4,1.1-2.6,2.6-2.6h56.5c1.5,0,2.6,1.3,2.6,2.6v11.4c0,1.4-1.1,2.6-2.6,2.6h-41.1v22.8H356
		c1.4,0,2.6,1.3,2.6,2.6V55c0,1.5-1.3,2.6-2.6,2.6h-34.3v24.3h41.1c1.5,0,2.6,1.3,2.6,2.6V96c0,1.4-1.1,2.6-2.6,2.6h-56.5
		c-1.5,0-2.6-1.3-2.6-2.6V4z"/>
	<path class="st0" d="M378.9,89.2c-1.4-1.1-1.9-1.9-0.7-4.2l5-8.6c1.1-1.9,3.5-1.9,4.7-1c5.7,4.3,11.9,8.6,21,8.6
		c7.2,0,12.6-4.7,12.6-10.7c0-7.1-6-11.9-17.6-16.7c-13.1-5.3-26.1-13.6-26.1-30C377.8,14.3,387,0,409,0c14.2,0,25,7.2,27.8,9.3
		c1.4,0.8,1.8,3.2,0.8,4.6l-5.3,7.9c-1.1,1.7-3.2,2.8-4.9,1.7c-6-3.7-11.7-7.6-19.3-7.6c-7.9,0-12.2,4.4-12.2,9.7
		c0,6.5,5.1,11,16.4,15.6c13.5,5.4,29,13.5,29,31.4c0,14.3-12.4,27.5-31.9,27.5C391.9,100,382.9,92.6,378.9,89.2z"/>
	<path class="st0" d="M454.6,89.2c-1.4-1.1-1.9-1.9-0.7-4.2l5-8.6c1.1-1.9,3.5-1.9,4.7-1c5.7,4.3,11.9,8.6,21,8.6
		c7.2,0,12.6-4.7,12.6-10.7c0-7.1-6-11.9-17.6-16.7c-13.1-5.3-26.1-13.6-26.1-30c0-12.4,9.2-26.7,31.3-26.7c14.2,0,25,7.2,27.8,9.3
		c1.4,0.8,1.8,3.2,0.8,4.6l-5.3,7.9c-1.1,1.7-3.2,2.8-4.9,1.7c-6-3.7-11.7-7.6-19.3-7.6c-7.9,0-12.2,4.4-12.2,9.7
		c0,6.5,5.1,11,16.4,15.6c13.5,5.4,29,13.5,29,31.4c0,14.3-12.4,27.5-31.9,27.5C467.7,100,458.6,92.6,454.6,89.2z"/>
</g>
</svg>
