<?xml version="1.0" encoding="utf-8"?>
<!-- Generator: Adobe Illustrator 25.4.1, SVG Export Plug-In . SVG Version: 6.00 Build 0)  -->
<svg version="1.1" id="Layer_1" xmlns="http://www.w3.org/2000/svg" xmlns:xlink="http://www.w3.org/1999/xlink" x="0px" y="0px"
	 viewBox="0 0 993.4 100" style="enable-background:new 0 0 993.4 100;" xml:space="preserve">
<style type="text/css">
	.st0{fill:#FFFFFF;}
</style>
<g>
	<path class="st0" d="M80.9,1.2c13.7,0,23.6,4.3,32.8,12.6c1.2,1.1,1.2,2.7,0.1,3.8l-8.3,8.5c-0.9,1.1-2.3,1.1-3.4,0
		c-5.7-5-13.3-8-20.9-8c-17.3,0-30.2,14.5-30.2,31.6c0,16.9,13,31.3,30.4,31.3c8.1,0,15-3.1,20.7-7.7c1.1-0.9,2.6-0.8,3.4,0L114,82
		c1.1,0.9,0.8,2.7-0.1,3.7c-9.2,8.9-20.9,13.1-32.9,13.1C53.8,98.8,32,77.2,32,50.1S53.8,1.2,80.9,1.2z"/>
	<path class="st0" d="M171.8,1.2c27.1,0,48.8,21.8,48.8,48.9s-21.7,48.7-48.8,48.7c-27.1,0-48.7-21.6-48.7-48.7S144.7,1.2,171.8,1.2
		z M171.8,81.2c17.1,0,31.2-14,31.2-31c0-17.1-14.1-31.3-31.2-31.3s-31,14.2-31,31.3C140.8,67.2,154.7,81.2,171.8,81.2z"/>
	<path class="st0" d="M248.3,3.2c0.1-1.1,0.9-2,2.4-2h2.2c1.1,0,1.9,0.5,2.3,1.4l29.8,64c0.3,0,0.3,0,0.4,0l29.8-64
		c0.4-0.8,1.1-1.4,2.3-1.4h2.2c1.5,0,2.3,0.9,2.4,2l16,91.1c0.4,1.9-0.7,3.1-2.4,3.1h-12.3c-1.2,0-2.3-1.1-2.6-2l-8-51.4
		c-0.1,0-0.4,0-0.4,0l-23.7,53.3c-0.3,0.8-1.1,1.5-2.3,1.5H284c-1.2,0-1.9-0.7-2.3-1.5l-24-53.3c0,0-0.3,0-0.4,0l-7.9,51.4
		c-0.1,0.9-1.2,2-2.4,2h-12.2c-1.8,0-2.8-1.2-2.6-3.1L248.3,3.2z"/>
	<path class="st0" d="M367.1,3.2c0.1-1.1,0.9-2,2.4-2h2.2c1.1,0,1.9,0.5,2.3,1.4l29.8,64c0.3,0,0.3,0,0.4,0l29.8-64
		c0.4-0.8,1.1-1.4,2.3-1.4h2.2c1.5,0,2.3,0.9,2.4,2l16,91.1c0.4,1.9-0.7,3.1-2.4,3.1h-12.3c-1.2,0-2.3-1.1-2.6-2l-8-51.4
		c-0.1,0-0.4,0-0.4,0l-23.7,53.3c-0.3,0.8-1.1,1.5-2.3,1.5h-2.4c-1.2,0-1.9-0.7-2.3-1.5l-24-53.3c0,0-0.3,0-0.4,0l-7.9,51.4
		c-0.1,0.9-1.2,2-2.4,2h-12.2c-1.8,0-2.8-1.2-2.6-3.1L367.1,3.2z"/>
	<path class="st0" d="M472.9,5.1c0-1.3,1.2-2.6,2.6-2.6h12.9c1.5,0,2.6,1.2,2.6,2.6v56.5c0,11.5,7.9,19.5,19.7,19.5
		c11.8,0,19.8-8,19.8-19.4V5.1c0-1.3,1.1-2.6,2.6-2.6h12.9c1.4,0,2.6,1.2,2.6,2.6v57.5c0,20.6-16.4,36.2-37.8,36.2
		c-21.3,0-37.7-15.6-37.7-36.2V5.1z"/>
	<path class="st0" d="M570.5,3.6c0-1.3,1.2-2.4,2.6-2.4h2c0.9,0,1.6,0.3,2.3,0.9l55.3,59h0.3v-56c0-1.3,1.1-2.6,2.6-2.6h12.5
		c1.4,0,2.6,1.2,2.6,2.6v91.2c0,1.4-1.2,2.4-2.6,2.4h-1.9c-0.9,0-1.6-0.3-2.3-0.9l-55.6-61.3H588v58.3c0,1.3-1.1,2.6-2.6,2.6h-12.3
		c-1.4,0-2.6-1.2-2.6-2.6V3.6z"/>
	<path class="st0" d="M673.7,5.1c0-1.3,1.2-2.6,2.6-2.6h12.6c1.4,0,2.6,1.2,2.6,2.6v89.7c0,1.3-1.2,2.6-2.6,2.6h-12.6
		c-1.4,0-2.6-1.2-2.6-2.6V5.1z"/>
	<path class="st0" d="M729.9,18.8h-20.7c-1.5,0-2.6-1.2-2.6-2.6V5.1c0-1.3,1.1-2.6,2.6-2.6h59.2c1.5,0,2.6,1.2,2.6,2.6v11.1
		c0,1.3-1.1,2.6-2.6,2.6h-20.7v76c0,1.3-1.2,2.6-2.6,2.6h-12.6c-1.4,0-2.6-1.2-2.6-2.6V18.8z"/>
	<path class="st0" d="M786,5.1c0-1.3,1.2-2.6,2.6-2.6h12.6c1.4,0,2.6,1.2,2.6,2.6v89.7c0,1.3-1.2,2.6-2.6,2.6h-12.6
		c-1.4,0-2.6-1.2-2.6-2.6V5.1z"/>
	<path class="st0" d="M826.8,5.1c0-1.3,1.1-2.6,2.6-2.6h55.2c1.5,0,2.6,1.2,2.6,2.6v11.1c0,1.3-1.1,2.6-2.6,2.6h-40.1v22.2h33.5
		c1.4,0,2.6,1.2,2.6,2.6v11.3c0,1.5-1.2,2.6-2.6,2.6h-33.5v23.7h40.1c1.5,0,2.6,1.2,2.6,2.6v11.1c0,1.3-1.1,2.6-2.6,2.6h-55.2
		c-1.5,0-2.6-1.2-2.6-2.6V5.1z"/>
	<path class="st0" d="M900.3,88.2c-1.4-1.1-1.9-1.9-0.7-4.1l4.9-8.4c1.1-1.9,3.4-1.9,4.6-0.9c5.6,4.2,11.7,8.4,20.5,8.4
		c7,0,12.3-4.6,12.3-10.4c0-6.9-5.8-11.7-17.2-16.3c-12.7-5.2-25.5-13.3-25.5-29.3c0-12.1,8.9-26,30.5-26c13.8,0,24.4,7.1,27.1,9.1
		c1.4,0.8,1.8,3.1,0.8,4.5l-5.1,7.7c-1.1,1.6-3.1,2.7-4.7,1.6c-5.8-3.7-11.4-7.5-18.8-7.5c-7.7,0-11.9,4.3-11.9,9.5
		c0,6.4,5,10.7,16,15.2c13.1,5.3,28.3,13.1,28.3,30.6c0,14-12.1,26.8-31.2,26.8C913.1,98.8,904.3,91.6,900.3,88.2z"/>
</g>
</svg>
