<?xml version="1.0" encoding="utf-8"?>
<!-- Generator: Adobe Illustrator 26.0.3, SVG Export Plug-In . SVG Version: 6.00 Build 0)  -->
<svg version="1.1" id="Layer_1" xmlns="http://www.w3.org/2000/svg" xmlns:xlink="http://www.w3.org/1999/xlink" x="0px" y="0px"
	 viewBox="0 0 527.5 100" style="enable-background:new 0 0 527.5 100;" xml:space="preserve">
<style type="text/css">
	.st0{fill:#FFFFFF;}
</style>
<g>
	<path class="st0" d="M59.7,1c0.8,0,1.1,0.3,1.5,0.9l42.8,93.5c0.3,0.6,0.2,1.1,0,1.5c-0.3,0.4-0.8,0.7-1.4,0.7H90.4
		c-1.6,0-2.3-0.5-3.1-2.2l-6.8-15l-0.3-0.6h-0.6H38h-0.6l-0.3,0.6l-6.8,15c-0.3,0.8-1.2,2.1-3.1,2.1H15.1c-0.6,0-1.2-0.2-1.4-0.7
		c-0.3-0.4-0.3-1,0-1.5L56.8,2c0.3-0.7,0.8-1,1.5-1H59.7 M43.3,66.4h1.5h27.9h1.6L73.6,65L59.8,34.4l-0.3-0.6h-0.6h-0.4h-0.6
		l-0.3,0.6L43.9,65L43.3,66.4 M59.7,0h-1.4c-1.3,0-1.9,0.7-2.4,1.5L12.7,95c-0.8,1.8,0.3,3.6,2.4,3.6h12.1c2.2,0,3.5-1.4,4-2.8
		l6.8-15h41.5l6.8,15c1,1.9,1.9,2.8,4,2.8h12.1c2.1,0,3.2-1.8,2.4-3.6L62,1.5C61.6,0.7,61.1,0,59.7,0L59.7,0z M44.8,65.4l13.6-30.6
		h0.4l13.9,30.6H44.8L44.8,65.4z"/>
	<path class="st0" d="M159.1,1c13,0,23.2,3.9,32.9,12.7c0.4,0.3,0.6,0.8,0.6,1.2c0,0.4-0.2,0.9-0.5,1.2l-8.5,8.8l0,0l0,0
		c-0.2,0.2-0.5,0.5-0.9,0.5c-0.4,0-0.7-0.2-1.1-0.5l0,0l0,0c-6.1-5.4-14.1-8.4-22.1-8.4c-8.8,0-16.9,3.5-22.9,9.9
		c-5.9,6.3-9.1,14.6-9.1,23.4c0,8.8,3.3,17,9.2,23.2c6,6.3,14.2,9.8,22.9,9.8c7.8,0,15.2-2.7,21.9-8.2c0.4-0.4,0.8-0.4,1.1-0.4
		c0.4,0,0.8,0.1,1,0.4l8.6,8.9l0,0l0,0c0.2,0.2,0.4,0.5,0.4,0.9c0,0.5-0.2,1.1-0.6,1.4c-8.9,8.6-20.3,13.2-33.1,13.2
		c-13.2,0-25.5-5.1-34.8-14.2c-9.3-9.2-14.4-21.5-14.4-34.6c0-13.2,5.1-25.5,14.4-34.8C133.6,6.1,146,1,159.1,1 M159.1,0
		C131.4,0,109,22.4,109,50.1s22.4,49.9,50.1,49.9c12.4,0,24.3-4.3,33.7-13.5c1-1,1.3-2.8,0.1-3.8l-8.6-8.9c-0.4-0.4-1.1-0.7-1.7-0.7
		c-0.6,0-1.2,0.2-1.8,0.7c-5.8,4.7-12.9,7.9-21.3,7.9c-17.8,0-31.1-14.7-31.1-32.1c0-17.5,13.2-32.4,31-32.4
		c7.8,0,15.6,3.1,21.4,8.2c0.6,0.6,1.2,0.8,1.8,0.8c0.6,0,1.2-0.3,1.7-0.8l8.5-8.8c1.1-1.1,1.1-2.8-0.1-3.9
		C183.3,4.4,173.2,0,159.1,0L159.1,0z"/>
	<path class="st0" d="M252.5,1c13,0,23.2,3.9,32.9,12.7c0.4,0.3,0.6,0.8,0.6,1.2c0,0.4-0.2,0.9-0.5,1.2l-8.5,8.8l0,0l0,0
		c-0.2,0.2-0.5,0.5-0.9,0.5c-0.4,0-0.7-0.2-1.1-0.5l0,0l0,0c-6.1-5.4-14.1-8.4-22-8.4c-8.8,0-16.9,3.5-22.9,9.9
		c-5.9,6.3-9.1,14.6-9.1,23.4c0,8.8,3.3,17,9.2,23.2c6,6.3,14.2,9.8,22.9,9.8c7.8,0,15.2-2.7,21.9-8.2c0.4-0.4,0.8-0.4,1.1-0.4
		c0.4,0,0.8,0.1,1,0.4l8.6,8.9l0,0l0,0c0.2,0.2,0.4,0.5,0.4,0.9c0,0.5-0.2,1.1-0.6,1.4c-8.9,8.6-20.3,13.2-33.1,13.2
		c-13.2,0-25.5-5.1-34.8-14.2c-9.3-9.2-14.4-21.5-14.4-34.6c0-13.2,5.1-25.5,14.4-34.8C227,6.1,239.3,1,252.5,1 M252.5,0
		c-27.8,0-50.1,22.4-50.1,50.1s22.4,49.9,50.1,49.9c12.4,0,24.3-4.3,33.7-13.5c1-1,1.3-2.8,0.1-3.8l-8.6-8.9
		c-0.4-0.4-1.1-0.7-1.7-0.7c-0.6,0-1.2,0.2-1.8,0.7c-5.8,4.7-12.9,7.9-21.2,7.9c-17.8,0-31.1-14.7-31.1-32.1
		c0-17.5,13.2-32.4,31-32.4c7.8,0,15.6,3.1,21.4,8.2c0.6,0.6,1.2,0.8,1.8,0.8s1.2-0.3,1.7-0.8l8.5-8.8c1.1-1.1,1.1-2.8-0.1-3.9
		C276.6,4.4,266.5,0,252.5,0L252.5,0z"/>
	<path class="st0" d="M362.8,2.4c1,0,1.6,0.9,1.6,1.6v11.4c0,0.8-0.6,1.6-1.6,1.6h-41.1h-1v1v22.8v1h1H356c0.8,0,1.6,0.8,1.6,1.6V55
		c0,1-0.9,1.6-1.6,1.6h-34.3h-1v1v24.3v1h1h41.1c1,0,1.6,0.9,1.6,1.6V96c0,0.8-0.6,1.6-1.6,1.6h-56.5c-1,0-1.6-0.9-1.6-1.6V4
		c0-0.8,0.6-1.6,1.6-1.6H362.8 M362.8,1.4h-56.5c-1.5,0-2.6,1.3-2.6,2.6V96c0,1.4,1.1,2.6,2.6,2.6h56.5c1.5,0,2.6-1.3,2.6-2.6V84.6
		c0-1.4-1.1-2.6-2.6-2.6h-41.1V57.6H356c1.4,0,2.6-1.1,2.6-2.6V43.5c0-1.4-1.3-2.6-2.6-2.6h-34.3V18.1h41.1c1.5,0,2.6-1.3,2.6-2.6V4
		C365.4,2.6,364.3,1.4,362.8,1.4L362.8,1.4z"/>
	<path class="st0" d="M409,1c14.3,0,25.2,7.6,27.2,9.1l0,0l0,0c0.4,0.2,0.7,0.7,0.8,1.3c0.1,0.7,0,1.4-0.3,1.9l-5.3,7.9
		c-0.7,1-1.7,1.7-2.6,1.7c-0.3,0-0.6-0.1-0.9-0.3l-1-0.7c-5.6-3.5-11.3-7.1-18.8-7.1c-9.1,0-13.2,5.4-13.2,10.7
		c0,6.8,4.9,11.6,17,16.5c14,5.6,28.4,13.7,28.4,30.5c0,12.8-10.8,26.5-30.9,26.5c-17.6,0-26.5-7.7-29.9-10.6
		c-1-0.8-1.4-1.1-0.5-2.9l5-8.6c0.6-1,1.4-1.1,1.9-1.1c0.5,0,1,0.2,1.4,0.4c6.1,4.6,12.4,8.8,21.6,8.8c7.6,0,13.6-5.1,13.6-11.7
		c0-7.2-5.5-12.4-18.3-17.6c-10.9-4.4-25.5-12.2-25.5-29.1c0-6.4,2.6-12.7,7.1-17.3C391.3,3.9,399.3,1,409,1 M409,0
		c-22.1,0-31.3,14.3-31.3,26.7c0,16.4,13.1,24.7,26.1,30c11.7,4.7,17.6,9.6,17.6,16.7c0,6-5.4,10.7-12.6,10.7c-9,0-15.3-4.3-21-8.6
		c-0.5-0.4-1.2-0.6-2-0.6c-1,0-2.1,0.5-2.8,1.6l-5,8.6c-1.2,2.2-0.7,3.1,0.7,4.2c4,3.5,13.1,10.8,30.6,10.8
		c19.6,0,31.9-13.2,31.9-27.5c0-17.9-15.6-26-29-31.4c-11.3-4.6-16.4-9-16.4-15.6c0-5.3,4.3-9.7,12.2-9.7c7.6,0,13.3,3.9,19.3,7.6
		c0.5,0.3,1,0.4,1.5,0.4c1.3,0,2.6-0.9,3.4-2.1l5.3-7.9c1-1.4,0.6-3.7-0.8-4.6C434,7.2,423.2,0,409,0L409,0z"/>
	<path class="st0" d="M484.7,1c14.3,0,25.2,7.6,27.2,9.1l0,0l0,0c0.4,0.2,0.7,0.7,0.8,1.3c0.1,0.7,0,1.4-0.3,1.9l-5.3,7.9
		c-0.7,1-1.7,1.7-2.6,1.7c-0.3,0-0.6-0.1-0.9-0.3l-1-0.7c-5.6-3.5-11.3-7.1-18.8-7.1c-9.1,0-13.2,5.4-13.2,10.7
		c0,6.8,4.9,11.6,17,16.5c14,5.6,28.4,13.7,28.4,30.5c0,12.8-10.8,26.5-30.9,26.5c-17.6,0-26.5-7.7-29.9-10.6
		c-1-0.8-1.4-1.1-0.5-2.9l5-8.6c0.6-1,1.4-1.1,1.9-1.1c0.5,0,1,0.2,1.4,0.4c6.1,4.6,12.4,8.8,21.6,8.8c7.6,0,13.6-5.1,13.6-11.7
		c0-7.2-5.5-12.4-18.3-17.6c-10.9-4.4-25.5-12.3-25.5-29.1c0-6.4,2.6-12.7,7.1-17.3C467,3.9,475,1,484.7,1 M484.7,0
		c-22.1,0-31.3,14.3-31.3,26.7c0,16.4,13.1,24.7,26.1,30c11.7,4.7,17.6,9.6,17.6,16.7c0,6-5.4,10.7-12.6,10.7c-9,0-15.3-4.3-21-8.6
		c-0.5-0.4-1.2-0.6-2-0.6c-1,0-2.1,0.5-2.8,1.6l-5,8.6c-1.3,2.2-0.7,3.1,0.7,4.2c4,3.5,13.1,10.8,30.6,10.8
		c19.6,0,31.9-13.2,31.9-27.5c0-17.9-15.6-26-29-31.4c-11.3-4.6-16.4-9-16.4-15.6c0-5.3,4.3-9.7,12.2-9.7c7.6,0,13.3,3.9,19.3,7.6
		c0.5,0.3,1,0.4,1.5,0.4c1.3,0,2.6-0.9,3.4-2.1l5.3-7.9c1-1.4,0.6-3.7-0.8-4.6C509.7,7.2,498.9,0,484.7,0L484.7,0z"/>
</g>
</svg>
