<?xml version="1.0" encoding="utf-8"?>
<!-- Generator: Adobe Illustrator 25.4.1, SVG Export Plug-In . SVG Version: 6.00 Build 0)  -->
<svg version="1.1" id="Layer_1" xmlns="http://www.w3.org/2000/svg" xmlns:xlink="http://www.w3.org/1999/xlink" x="0px" y="0px"
	 viewBox="0 0 533.8 100" style="enable-background:new 0 0 533.8 100;" xml:space="preserve">
<style type="text/css">
	.st0{fill:#FFFFFF;}
</style>
<g>
	<path class="st0" d="M18.4,95L61.6,1.5C62,0.6,62.9,0,63.9,0h1.4c1-0.1,2,0.6,2.4,1.5L110.5,95c0.6,1.2,0.2,2.7-1,3.3
		c-0.4,0.2-0.9,0.3-1.4,0.3H96c-2.1,0-3.1-0.8-4-2.8l-6.8-15H43.7l-6.8,15c-0.6,1.7-2.2,2.8-4,2.8H20.7c-1.3,0.1-2.5-0.9-2.6-2.2
		C18.1,95.9,18.2,95.4,18.4,95z M78.4,65.4L64.5,34.9h-0.4L50.5,65.4H78.4z"/>
	<path class="st0" d="M164.8,0c14,0,24.2,4.4,33.6,12.9c1.1,0.9,1.3,2.5,0.4,3.6c-0.1,0.1-0.2,0.2-0.2,0.3l-8.4,8.8
		c-0.8,1-2.2,1.1-3.1,0.4c-0.1-0.1-0.2-0.2-0.4-0.4c-5.9-5.2-13.5-8.1-21.4-8.2c-17.8,0-31,14.9-31,32.4s13.3,32.1,31.1,32.1
		c7.8-0.1,15.3-2.9,21.2-7.9c1-0.9,2.5-0.9,3.5,0l8.6,8.9c1,1.1,0.9,2.7-0.1,3.7l0,0c-9,8.8-21.2,13.6-33.8,13.5
		c-27.6,0-50-22.4-50-50S137.2,0,164.8,0z"/>
	<path class="st0" d="M258,0c14,0,24.2,4.4,33.6,12.9c1.1,0.9,1.3,2.5,0.4,3.6c-0.1,0.1-0.2,0.2-0.2,0.3l-8.5,8.8
		c-0.8,1-2.2,1.1-3.1,0.3c-0.1-0.1-0.2-0.2-0.3-0.3c-5.9-5.2-13.5-8.1-21.4-8.2c-17.8,0-31,14.9-31,32.4s13.3,32.1,31.1,32.1
		c7.8-0.1,15.3-2.9,21.2-7.9c1-0.9,2.5-0.9,3.5,0l8.6,8.9c1,1.1,0.9,2.7-0.1,3.7l0,0c-9,8.8-21.1,13.6-33.7,13.5
		c-27.6,0-50-22.4-50-50S230.4,0,258,0z"/>
	<path class="st0" d="M306.7,4c0-1.5,1.2-2.6,2.6-2.6l0,0h56.5c1.5,0,2.6,1.2,2.6,2.6v11.4c0,1.5-1.2,2.6-2.6,2.6l0,0h-41.1v22.8
		h34.4c1.4,0,2.6,1.2,2.6,2.6V55c0,1.5-1.2,2.6-2.6,2.6l0,0h-34.3v24.3h41.1c1.5,0,2.6,1.2,2.6,2.6l0,0V96c0,1.5-1.2,2.6-2.6,2.6
		l0,0h-56.5c-1.5,0-2.6-1.2-2.6-2.6l0,0V4H306.7z"/>
	<path class="st0" d="M380.3,89.2c-1.4-1.1-1.9-2-0.7-4.2l5-8.6c0.9-1.5,2.8-2.1,4.4-1.2c0.1,0.1,0.2,0.1,0.3,0.2
		c5.7,4.3,12,8.6,21,8.6c7.2,0,12.6-4.7,12.6-10.7c0-7.1-6-11.9-17.6-16.7c-13-5.3-26.1-13.6-26.1-30c0-12.3,9.1-26.6,31.2-26.6
		c14.2,0,25,7.2,27.8,9.3c1.4,1.1,1.8,3.1,0.8,4.6l-5.3,7.9c-1.1,1.7-3.2,2.8-4.9,1.7c-6-3.8-11.7-7.6-19.3-7.6
		c-7.9,0-12.2,4.5-12.2,9.7c0,6.5,5.1,11,16.4,15.5c13.5,5.4,29,13.5,29,31.4c0,14.3-12.4,27.5-31.9,27.5
		C393.4,100,384.4,92.6,380.3,89.2z"/>
	<path class="st0" d="M453.4,89.2c-1.4-1.1-1.9-2-0.7-4.2l5-8.6c0.9-1.5,2.8-2.1,4.4-1.2c0.1,0.1,0.2,0.1,0.3,0.2
		c5.7,4.3,12,8.6,21,8.6c7.2,0,12.6-4.7,12.6-10.7c0-7.1-6-11.9-17.6-16.7c-13-5.3-26.1-13.6-26.1-30c0-12.3,9.1-26.6,31.2-26.6
		c14.2,0,25,7.2,27.8,9.3c1.4,1.1,1.8,3.1,0.8,4.6l-5.3,7.9c-1.1,1.7-3.2,2.8-4.9,1.7c-6-3.8-11.7-7.6-19.3-7.6
		c-7.9,0-12.2,4.5-12.2,9.7c0,6.5,5.1,11,16.4,15.5c13.5,5.4,29,13.5,29,31.4c0,14.3-12.4,27.5-31.9,27.5
		C466.4,100,457.4,92.6,453.4,89.2z"/>
</g>
</svg>
