<?xml version="1.0" encoding="utf-8"?>
<!-- Generator: Adobe Illustrator 26.0.3, SVG Export Plug-In . SVG Version: 6.00 Build 0)  -->
<svg version="1.1" id="Layer_1" xmlns="http://www.w3.org/2000/svg" xmlns:xlink="http://www.w3.org/1999/xlink" x="0px" y="0px"
	 viewBox="0 0 657.5 100" style="enable-background:new 0 0 657.5 100;" xml:space="preserve">
<style type="text/css">
	.st0{opacity:0.6;}
	.st1{fill:#FDB71A;}
</style>
<g class="st0">
	<path class="st1" d="M14.3,89.2c-1.4-1.1-1.9-1.9-0.7-4.2l5-8.6c1.1-1.9,3.5-1.9,4.7-1c5.7,4.3,11.9,8.6,21,8.6
		c7.2,0,12.6-4.7,12.6-10.7c0-7.1-6-11.9-17.6-16.7c-13.1-5.3-26.1-13.6-26.1-30C13.1,14.3,22.3,0,44.4,0c14.2,0,25,7.2,27.8,9.3
		c1.4,0.8,1.8,3.2,0.8,4.6l-5.3,7.9c-1.1,1.7-3.2,2.8-4.9,1.7c-6-3.7-11.7-7.6-19.3-7.6c-7.9,0-12.2,4.4-12.2,9.7
		c0,6.5,5.1,11,16.4,15.6c13.5,5.4,29,13.5,29,31.4c0,14.3-12.4,27.5-31.9,27.5C27.3,100,18.3,92.6,14.3,89.2z"/>
	<path class="st1" d="M94,4c0-1.4,1.1-2.6,2.6-2.6h56.5c1.5,0,2.6,1.3,2.6,2.6v11.4c0,1.4-1.1,2.6-2.6,2.6H112v22.8h34.3
		c1.4,0,2.6,1.3,2.6,2.6V55c0,1.5-1.3,2.6-2.6,2.6H112v24.3h41.1c1.5,0,2.6,1.3,2.6,2.6V96c0,1.4-1.1,2.6-2.6,2.6H96.6
		c-1.5,0-2.6-1.3-2.6-2.6V4z"/>
	<path class="st1" d="M216.9,0c14,0,24.2,4.4,33.6,12.9c1.3,1.1,1.3,2.8,0.1,3.9l-8.5,8.8c-1,1.1-2.4,1.1-3.5,0
		c-5.8-5.1-13.6-8.2-21.4-8.2c-17.8,0-31,14.9-31,32.4c0,17.4,13.3,32.1,31.1,32.1c8.3,0,15.4-3.2,21.3-7.9c1.1-1,2.6-0.8,3.5,0
		l8.6,8.9c1.1,1,0.8,2.8-0.1,3.8c-9.4,9.2-21.4,13.5-33.7,13.5c-27.8,0-50.1-22.1-50.1-49.9S189.1,0,216.9,0z"/>
	<path class="st1" d="M267.1,4c0-1.4,1.3-2.6,2.6-2.6h13.2c1.5,0,2.6,1.3,2.6,2.6v57.9c0,11.8,8.1,20,20.1,20
		c12.1,0,20.3-8.2,20.3-19.9V4c0-1.4,1.1-2.6,2.6-2.6h13.2c1.4,0,2.6,1.3,2.6,2.6v58.9c0,21.1-16.8,37.1-38.7,37.1
		c-21.8,0-38.6-16-38.6-37.1L267.1,4L267.1,4z"/>
	<path class="st1" d="M367.1,4c0-1.4,1.1-2.6,2.6-2.6h39.7c16.7,0,30.3,13.3,30.3,29.9c0,12.8-8.5,23.2-20.6,28.1l19,35.3
		c1,1.8,0,4-2.4,4h-14.6c-1.3,0-1.9-0.7-2.2-1.3l-18.5-36.8H385V96c0,1.4-1.2,2.6-2.6,2.6h-12.8c-1.5,0-2.6-1.3-2.6-2.6V4H367.1z
		 M407.9,45.7c7.4,0,13.8-6.4,13.8-14.2c0-7.4-6.4-13.5-13.8-13.5h-22.6v27.6h22.6V45.7z"/>
	<path class="st1" d="M458.8,4c0-1.4,1.2-2.6,2.6-2.6h12.9c1.4,0,2.6,1.3,2.6,2.6v92c0,1.4-1.3,2.6-2.6,2.6h-12.9
		c-1.4,0-2.6-1.3-2.6-2.6V4z"/>
	<path class="st1" d="M516.3,18.1H495c-1.5,0-2.6-1.3-2.6-2.6V4c0-1.4,1.1-2.6,2.6-2.6h60.7c1.5,0,2.6,1.3,2.6,2.6v11.4
		c0,1.4-1.1,2.6-2.6,2.6h-21.3v78c0,1.4-1.3,2.6-2.6,2.6h-12.9c-1.4,0-2.6-1.3-2.6-2.6L516.3,18.1L516.3,18.1z"/>
	<path class="st1" d="M594.1,51.8L562.4,5.4c-1.1-1.8,0-4,2.2-4h14.2c1.1,0,1.8,0.7,2.2,1.3l22.2,31.9l22.2-31.9
		c0.4-0.6,1.1-1.3,2.2-1.3H642c2.2,0,3.3,2.2,2.2,4l-32.1,46.2V96c0,1.4-1.3,2.6-2.6,2.6h-12.8c-1.5,0-2.6-1.3-2.6-2.6L594.1,51.8
		L594.1,51.8z"/>
</g>
</svg>
