<?xml version="1.0" encoding="utf-8"?>
<!-- Generator: Adobe Illustrator 25.4.1, SVG Export Plug-In . SVG Version: 6.00 Build 0)  -->
<svg version="1.1" id="Layer_1" xmlns="http://www.w3.org/2000/svg" xmlns:xlink="http://www.w3.org/1999/xlink" x="0px" y="0px"
	 viewBox="0 0 534.4 100.9" style="enable-background:new 0 0 534.4 100.9;" xml:space="preserve">
<style type="text/css">
	.st0{fill:#FFFFFF;}
</style>
<g>
	<path class="st0" d="M20.6,98.7c-1.3,0-2.5-1-2.6-2.4c0-0.5,0.1-1,0.3-1.5L61.5,1.4c0.4-1,1.4-1.6,2.5-1.6h1.4
		c1.1-0.1,2.1,0.6,2.5,1.6l42.8,93.5c0.7,1.3,0.2,2.8-1,3.5c-0.4,0.2-1,0.3-1.5,0.3l-12.1,0c-2,0-3.1-0.8-4.1-2.9l-6.8-14.9H43.8
		L37,95.9c-0.6,1.7-2.3,2.9-4.1,2.9c0,0,0,0-0.1,0H20.8C20.7,98.7,20.6,98.7,20.6,98.7z M63.9,0.1c-0.9,0-1.8,0.6-2.2,1.4L18.6,95
		c-0.2,0.4-0.3,0.8-0.3,1.3c0.1,1.3,1.2,2.2,2.5,2.1l12.1,0c0,0,0,0,0.1,0c1.7,0,3.2-1.1,3.8-2.7l6.9-15.1h41.7l0,0.1l6.8,15
		c1,2,1.9,2.7,3.9,2.7h12.1c0.5,0,0.9-0.1,1.3-0.3c1.1-0.6,1.5-2,0.9-3.1L67.6,1.6c-0.3-0.9-1.2-1.5-2.2-1.4L63.9,0.1
		C64,0.1,63.9,0.1,63.9,0.1z M78.7,65.5H50.3l0.1-0.2L64,34.7h0.6l0,0.1L78.7,65.5z M50.7,65.2h27.5L64.4,35h-0.2L50.7,65.2z"/>
	<path class="st0" d="M165.4,100.1c-0.2,0-0.4,0-0.6,0c-27.7,0-50.1-22.5-50.1-50.2c0-27.7,22.5-50.1,50.1-50.1
		c13.3,0,23.7,4,33.7,13c1.2,0.9,1.3,2.7,0.4,3.8c-0.1,0.1-0.2,0.2-0.3,0.3l-8.4,8.7c-0.8,1-2.3,1.2-3.3,0.4
		c-0.1-0.1-0.3-0.2-0.4-0.4c-5.9-5.2-13.4-8.1-21.3-8.1c-8.4,0-16.3,3.4-22.1,9.6c-5.7,6.1-8.8,14.1-8.8,22.6
		c0,8.5,3.1,16.5,8.8,22.5c5.8,6.1,13.6,9.4,22.1,9.4c7.7-0.1,15.3-2.9,21.2-7.9c1-0.9,2.6-0.9,3.7,0l8.6,8.9c1.1,1.1,1,2.9-0.1,4
		l0,0C189.7,95.3,177.9,100.1,165.4,100.1z M164.8,0.1C137.3,0.1,115,22.5,115,50s22.4,49.8,49.9,49.8c0.2,0,0.4,0,0.6,0
		c12.4,0,24.2-4.8,33.1-13.4l0,0c1-0.9,1.1-2.5,0.1-3.5L190,74c-0.9-0.8-2.3-0.8-3.3,0c-6,5.1-13.5,7.9-21.4,8
		c-8.6,0-16.5-3.4-22.3-9.5c-5.8-6-8.9-14.1-8.9-22.7c0-8.6,3.2-16.7,8.9-22.8c5.8-6.2,13.7-9.7,22.3-9.7c7.9,0.1,15.5,3,21.5,8.2
		c0.1,0.1,0.2,0.2,0.3,0.3c0.9,0.7,2.2,0.6,2.9-0.3l8.4-8.8c0.1-0.1,0.2-0.2,0.2-0.3c0.8-1,0.7-2.6-0.4-3.4
		C188.4,4.1,178.1,0.1,164.8,0.1z"/>
	<path class="st0" d="M258.5,100.1c-0.2,0-0.3,0-0.5,0c-27.7,0-50.1-22.5-50.1-50.2c0-27.7,22.5-50.1,50.1-50.1
		c13.3,0,23.7,4,33.7,13c1.2,0.9,1.3,2.7,0.4,3.8c-0.1,0.1-0.2,0.2-0.3,0.3l-8.5,8.7c-0.8,1-2.3,1.2-3.3,0.4
		c-0.1-0.1-0.3-0.2-0.4-0.4c-5.9-5.2-13.4-8.1-21.3-8.1c-8.4,0-16.3,3.4-22.1,9.6c-5.7,6.1-8.8,14.1-8.8,22.6
		c0,8.5,3.1,16.5,8.9,22.5c5.8,6.1,13.6,9.4,22.1,9.4c7.7-0.1,15.3-2.9,21.2-7.9c1-0.9,2.6-0.9,3.7,0l8.6,8.9c1.1,1.1,1,2.9-0.1,4
		l0,0C282.8,95.3,271,100.1,258.5,100.1z M258,0.1c-27.5,0-49.9,22.4-49.9,49.9s22.4,49.8,49.9,49.8c12.6,0.1,24.5-4.6,33.6-13.4
		l0,0c1-0.9,1-2.5,0.1-3.5l-8.6-8.9c-0.9-0.8-2.4-0.8-3.3,0c-6,5.1-13.5,7.9-21.4,8c-8.5,0-16.5-3.4-22.3-9.5
		c-5.8-6-8.9-14.1-8.9-22.7c0-8.6,3.2-16.7,8.9-22.8c5.8-6.2,13.7-9.7,22.3-9.7c7.9,0.1,15.5,3,21.5,8.2c0.1,0.1,0.2,0.2,0.3,0.3
		c0.9,0.7,2.2,0.6,2.9-0.3l8.5-8.8c0.1-0.1,0.2-0.2,0.2-0.3c0.8-1,0.7-2.6-0.4-3.4C281.6,4.1,271.3,0.1,258,0.1z"/>
	<path class="st0" d="M366,98.8h-56.5c-1.5,0-2.8-1.3-2.8-2.8V4c0-1.5,1.3-2.8,2.8-2.8h56.5c1.5,0,2.8,1.3,2.8,2.8v11.4
		c0,1.5-1.3,2.8-2.8,2.8h-41v22.5h34.2c1.5,0,2.7,1.3,2.8,2.8V55c0,1.5-1.3,2.8-2.8,2.8H325v24h41c1.5,0,2.8,1.3,2.8,2.8V96
		C368.7,97.5,367.5,98.8,366,98.8z M309.4,1.5c-1.4,0-2.5,1.1-2.5,2.5v92c0,1.4,1.1,2.5,2.5,2.5H366c1.4,0,2.5-1.1,2.5-2.5V84.5
		c0-1.4-1.1-2.5-2.5-2.5h-41.3V57.5h34.5c1.4,0,2.5-1.1,2.5-2.5V43.4c0-1.4-1.1-2.4-2.5-2.5h-34.5V17.9h41.3c1.4,0,2.5-1.1,2.5-2.5
		V4c0-1.4-1.1-2.5-2.5-2.5H309.4z"/>
	<path class="st0" d="M410.9,100.1c-18,0-27.2-7.9-30.6-10.9c-1.5-1.2-2-2.2-0.7-4.4l5-8.6c0.4-0.8,1.2-1.3,2-1.6
		c0.9-0.2,1.8-0.1,2.6,0.3c0.1,0.1,0.2,0.1,0.4,0.2c6,4.5,12.1,8.6,20.9,8.6c7.1,0,12.5-4.5,12.5-10.5c0-6.6-5.2-11.5-17.5-16.5
		c-11.2-4.6-26.2-12.6-26.2-30.1c0-6.8,2.7-13.4,7.5-18.2c5.6-5.7,13.9-8.6,23.9-8.6c14.7,0,25.8,7.8,27.9,9.3
		c1.5,1.1,1.9,3.2,0.9,4.8l-5.3,7.9c-1.1,1.7-3.3,2.9-5.1,1.7l-1.1-0.7c-5.6-3.5-11-6.9-18.1-6.9c-8.3,0-12.1,4.8-12.1,9.6
		c0,6.3,4.7,10.7,16.3,15.4C428.3,46.7,443,55,443,72.5c0,7.3-3.1,14.1-8.7,19.2C428.4,97.1,420.1,100.1,410.9,100.1z M387.5,74.9
		c-0.3,0-0.6,0-0.8,0.1c-0.8,0.2-1.4,0.7-1.8,1.4l-5,8.6c-1.2,2-0.7,2.9,0.7,4l0,0c3.4,3,12.5,10.8,30.4,10.8c9.1,0,17.4-3,23.2-8.3
		c5.5-5.1,8.6-11.8,8.6-19c0-17.3-14.6-25.5-28.9-31.3c-11.7-4.7-16.5-9.3-16.5-15.7c0-4.9,3.8-9.9,12.4-9.9
		c7.2,0,12.6,3.4,18.3,6.9l1.1,0.7c1.6,1.1,3.6,0,4.7-1.6l5.3-7.9c0.9-1.4,0.6-3.4-0.8-4.4c-2.1-1.5-13.1-9.3-27.7-9.3
		c-9.9,0-18.1,3-23.7,8.6c-4.7,4.7-7.4,11.3-7.4,17.9c0,17.3,14.8,25.3,26,29.9c12.4,5,17.7,10.1,17.7,16.8
		c0,6.1-5.6,10.9-12.8,10.9c-8.9,0-15.1-4.1-21.1-8.6c-0.1-0.1-0.2-0.2-0.3-0.2C388.5,75,388,74.9,387.5,74.9z"/>
	<path class="st0" d="M484,100.1c-18,0-27.2-7.9-30.6-10.9c-1.5-1.2-2-2.2-0.7-4.4l5-8.6c0.4-0.8,1.2-1.3,2-1.6
		c0.9-0.2,1.8-0.1,2.6,0.3c0.1,0.1,0.2,0.1,0.4,0.2c6,4.5,12.1,8.6,20.9,8.6c7.1,0,12.5-4.5,12.5-10.5c0-6.6-5.2-11.5-17.5-16.5
		c-11.2-4.5-26.2-12.6-26.2-30.1c0-6.8,2.7-13.4,7.5-18.2c5.6-5.7,13.9-8.6,23.9-8.6c14.7,0,25.8,7.8,27.9,9.3
		c1.5,1.1,1.9,3.2,0.9,4.8l-5.3,7.9c-1.1,1.7-3.3,2.9-5.1,1.7l-1.1-0.7c-5.6-3.5-11-6.9-18.1-6.9c-8.3,0-12.1,4.8-12.1,9.6
		c0,6.3,4.7,10.7,16.3,15.4c14.4,5.8,29.1,14.1,29.1,31.5c0,7.3-3.1,14.1-8.7,19.2C501.5,97.1,493.2,100.1,484,100.1z M460.5,74.9
		c-0.3,0-0.6,0-0.8,0.1c-0.8,0.2-1.4,0.7-1.8,1.4l-5,8.6c-1.2,2-0.7,2.9,0.7,4l0,0c3.4,3,12.5,10.8,30.4,10.8c9.1,0,17.4-3,23.2-8.3
		c5.5-5.1,8.6-11.8,8.6-19c0-17.3-14.6-25.5-28.9-31.3c-11.7-4.7-16.5-9.3-16.5-15.7c0-4.9,3.8-9.9,12.4-9.9
		c7.2,0,12.6,3.4,18.3,6.9l1.1,0.7c1.6,1.1,3.6,0,4.7-1.6l5.3-7.9c0.9-1.4,0.6-3.4-0.8-4.4c-2.1-1.5-13.1-9.3-27.7-9.3
		c-9.9,0-18.1,3-23.7,8.6c-4.7,4.7-7.4,11.3-7.4,17.9c0,17.3,14.8,25.3,26,29.9c12.4,5,17.7,10.1,17.7,16.8
		c0,6.1-5.6,10.9-12.8,10.9c-8.9,0-15.1-4.1-21.1-8.6c-0.1-0.1-0.2-0.2-0.3-0.2C461.6,75,461.1,74.9,460.5,74.9z"/>
</g>
</svg>
