<?xml version="1.0" encoding="utf-8"?>
<!-- Generator: Adobe Illustrator 25.4.1, SVG Export Plug-In . SVG Version: 6.00 Build 0)  -->
<svg version="1.1" id="Capa_1" xmlns="http://www.w3.org/2000/svg" xmlns:xlink="http://www.w3.org/1999/xlink" x="0px" y="0px"
	 viewBox="0 0 753.5 100" style="enable-background:new 0 0 753.5 100;" xml:space="preserve">
<style type="text/css">
	.st0{opacity:0.5;}
	.st1{fill:#F7B844;}
</style>
<g class="st0">
	<path class="st1" d="M62.1,89.2c-1.4-1.1-1.9-1.9-0.7-4.2l5-8.6c1.1-1.9,3.5-1.9,4.7-1c5.7,4.3,11.9,8.6,21,8.6
		c7.2,0,12.6-4.7,12.6-10.7c0-7.1-6-11.9-17.6-16.7C74.1,51.4,61,43.1,61,26.7C61,14.3,70.2,0,92.3,0c14.2,0,25,7.2,27.8,9.3
		c1.4,0.8,1.8,3.2,0.8,4.6l-5.3,7.9c-1.1,1.7-3.2,2.8-4.9,1.7c-6-3.7-11.7-7.6-19.3-7.6c-7.9,0-12.2,4.4-12.2,9.7
		c0,6.5,5.1,11,16.4,15.6c13.5,5.4,29,13.5,29,31.4c0,14.3-12.4,27.5-32,27.5C75.2,100,66.1,92.6,62.1,89.2z"/>
	<path class="st1" d="M141.9,4c0-1.4,1.1-2.6,2.6-2.6h56.5c1.5,0,2.6,1.2,2.6,2.6v11.4c0,1.4-1.1,2.6-2.6,2.6h-41.1v22.8h34.3
		c1.4,0,2.6,1.2,2.6,2.6V55c0,1.5-1.3,2.6-2.6,2.6h-34.3v24.3h41.1c1.5,0,2.6,1.2,2.6,2.6V96c0,1.4-1.1,2.6-2.6,2.6h-56.5
		c-1.5,0-2.6-1.2-2.6-2.6V4z"/>
	<path class="st1" d="M264.9,0c14,0,24.2,4.4,33.6,12.9c1.2,1.1,1.2,2.8,0.1,3.9l-8.5,8.7c-1,1.1-2.4,1.1-3.5,0
		c-5.8-5.1-13.6-8.2-21.4-8.2c-17.8,0-31,14.9-31,32.4c0,17.4,13.3,32.1,31.1,32.1c8.3,0,15.4-3.2,21.3-7.9c1.1-1,2.6-0.8,3.5,0
		l8.6,8.9c1.1,1,0.8,2.8-0.1,3.7c-9.4,9.2-21.4,13.5-33.7,13.5c-27.8,0-50.1-22.1-50.1-49.9C214.7,22.4,237.1,0,264.9,0z"/>
	<path class="st1" d="M315.1,4c0-1.4,1.2-2.6,2.6-2.6h13.2c1.5,0,2.6,1.2,2.6,2.6v57.9c0,11.8,8.1,20,20.1,20s20.3-8.2,20.3-19.9V4
		c0-1.4,1.1-2.6,2.6-2.6h13.2c1.4,0,2.6,1.2,2.6,2.6v58.9c0,21.1-16.8,37.1-38.8,37.1c-21.8,0-38.6-16-38.6-37.1V4z"/>
	<path class="st1" d="M415.1,4c0-1.4,1.1-2.6,2.6-2.6h39.7c16.7,0,30.3,13.3,30.3,29.9c0,12.8-8.5,23.2-20.6,28.1l19,35.3
		c1,1.8,0,4-2.4,4h-14.6c-1.2,0-1.9-0.7-2.2-1.2l-18.5-36.8h-15.4V96c0,1.4-1.2,2.6-2.6,2.6h-12.8c-1.5,0-2.6-1.2-2.6-2.6V4z
		 M456,45.7c7.4,0,13.8-6.4,13.8-14.2c0-7.4-6.4-13.5-13.8-13.5h-22.6v27.6H456z"/>
	<path class="st1" d="M506.8,4c0-1.4,1.2-2.6,2.6-2.6h12.9c1.4,0,2.6,1.2,2.6,2.6v92c0,1.4-1.2,2.6-2.6,2.6h-12.9
		c-1.4,0-2.6-1.2-2.6-2.6V4z"/>
	<path class="st1" d="M564.4,18.1h-21.3c-1.5,0-2.6-1.2-2.6-2.6V4c0-1.4,1.1-2.6,2.6-2.6h60.7c1.5,0,2.6,1.2,2.6,2.6v11.4
		c0,1.4-1.1,2.6-2.6,2.6h-21.3V96c0,1.4-1.2,2.6-2.6,2.6H567c-1.4,0-2.6-1.2-2.6-2.6V18.1z"/>
	<path class="st1" d="M642.2,51.8L610.5,5.4c-1.1-1.8,0-4,2.2-4h14.2c1.1,0,1.8,0.7,2.2,1.2l22.2,32l22.2-32
		c0.4-0.6,1.1-1.2,2.2-1.2h14.3c2.2,0,3.3,2.2,2.2,4l-32.1,46.3V96c0,1.4-1.2,2.6-2.6,2.6h-12.8c-1.5,0-2.6-1.2-2.6-2.6V51.8z"/>
</g>
</svg>
