<?xml version="1.0" encoding="utf-8"?>
<!-- Generator: Adobe Illustrator 26.0.3, SVG Export Plug-In . SVG Version: 6.00 Build 0)  -->
<svg version="1.1" id="Layer_1" xmlns="http://www.w3.org/2000/svg" xmlns:xlink="http://www.w3.org/1999/xlink" x="0px" y="0px"
	 viewBox="0 0 853.5 100" style="enable-background:new 0 0 853.5 100;" xml:space="preserve">
<style type="text/css">
	.st0{fill:#FFFFFF;}
</style>
<g>
	<path class="st0" d="M58.6,0c14,0,24.2,4.4,33.6,12.9c1.3,1.1,1.3,2.8,0.1,3.9l-8.5,8.8c-1,1.1-2.4,1.1-3.5,0
		c-5.8-5.1-13.6-8.2-21.4-8.2c-17.8,0-31,14.9-31,32.4c0,17.4,13.3,32.1,31.1,32.1c8.3,0,15.4-3.2,21.2-7.9c1.1-1,2.6-0.8,3.5,0
		l8.6,8.9c1.1,1,0.8,2.8-0.1,3.7C82.9,95.7,70.9,100,58.6,100C30.8,100,8.4,77.9,8.4,50.1S30.8,0,58.6,0z"/>
	<path class="st0" d="M149.6,0c27.8,0,50,22.4,50,50.1s-22.2,49.9-50,49.9S99.8,77.9,99.8,50.1S121.9,0,149.6,0z M149.6,81.9
		c17.5,0,31.9-14.3,31.9-31.8s-14.4-32.1-31.9-32.1s-31.8,14.6-31.8,32.1S132.1,81.9,149.6,81.9z"/>
	<path class="st0" d="M226.2,2.1c0.1-1.1,1-2.1,2.5-2.1h2.2c1.1,0,1.9,0.6,2.4,1.4l30.6,65.6c0.3,0,0.3,0,0.4,0l30.6-65.6
		c0.4-0.8,1.1-1.4,2.4-1.4h2.2c1.5,0,2.4,1,2.5,2.1l16.4,93.3c0.4,1.9-0.7,3.2-2.5,3.2h-12.6c-1.3,0-2.4-1.1-2.6-2.1l-8.2-52.6
		c-0.1,0-0.4,0-0.4,0l-24.3,54.6c-0.3,0.8-1.1,1.5-2.4,1.5h-2.5c-1.2,0-1.9-0.7-2.4-1.5l-24.6-54.6c0,0-0.3,0-0.4,0l-8.1,52.6
		c-0.1,1-1.2,2.1-2.5,2.1h-12.5c-1.8,0-2.9-1.2-2.6-3.2L226.2,2.1z"/>
	<path class="st0" d="M346.8,2.1c0.1-1.1,1-2.1,2.5-2.1h2.2c1.1,0,1.9,0.6,2.4,1.4l30.6,65.6c0.3,0,0.3,0,0.4,0l30.6-65.6
		c0.4-0.8,1.1-1.4,2.4-1.4h2.2c1.5,0,2.4,1,2.5,2.1l16.4,93.3c0.4,1.9-0.7,3.2-2.5,3.2h-12.6c-1.3,0-2.4-1.1-2.6-2.1l-8.2-52.6
		c-0.1,0-0.4,0-0.4,0l-24.3,54.6c-0.3,0.8-1.1,1.5-2.4,1.5h-2.5c-1.2,0-1.9-0.7-2.4-1.5l-24.6-54.6c0,0-0.3,0-0.4,0l-8.1,52.6
		c-0.1,1-1.2,2.1-2.5,2.1h-12.5c-1.8,0-2.9-1.2-2.6-3.2L346.8,2.1z"/>
	<path class="st0" d="M453.8,4c0-1.4,1.3-2.6,2.6-2.6h13.2c1.5,0,2.6,1.2,2.6,2.6v57.9c0,11.8,8.1,20,20.1,20
		c12.1,0,20.3-8.2,20.3-19.9V4c0-1.4,1.1-2.6,2.6-2.6h13.2c1.4,0,2.6,1.2,2.6,2.6v58.9c0,21.1-16.8,37.1-38.8,37.1
		c-21.8,0-38.6-16-38.6-37.1V4z"/>
	<path class="st0" d="M553.3,2.5c0-1.4,1.2-2.5,2.6-2.5h2.1c1,0,1.7,0.3,2.4,1L617,61.4h0.3V4c0-1.4,1.1-2.6,2.6-2.6h12.8
		c1.4,0,2.6,1.2,2.6,2.6v93.5c0,1.4-1.3,2.5-2.6,2.5h-1.9c-1,0-1.7-0.3-2.4-1l-56.9-62.8h-0.3V96c0,1.4-1.1,2.6-2.6,2.6h-12.6
		c-1.4,0-2.6-1.2-2.6-2.6V2.5z"/>
	<path class="st0" d="M658.3,4c0-1.4,1.2-2.6,2.6-2.6h12.9c1.4,0,2.6,1.2,2.6,2.6V96c0,1.4-1.2,2.6-2.6,2.6H661
		c-1.4,0-2.6-1.2-2.6-2.6V4z"/>
	<path class="st0" d="M713.1,18.1h-21.2c-1.5,0-2.6-1.2-2.6-2.6V4c0-1.4,1.1-2.6,2.6-2.6h60.7c1.5,0,2.6,1.2,2.6,2.6v11.4
		c0,1.4-1.1,2.6-2.6,2.6h-21.3V96c0,1.4-1.2,2.6-2.6,2.6h-12.9c-1.4,0-2.6-1.2-2.6-2.6V18.1z"/>
	<path class="st0" d="M794.5,51.8L762.8,5.4c-1.1-1.8,0-4,2.2-4h14.2c1.1,0,1.8,0.7,2.2,1.2l22.2,31.9l22.2-31.9
		c0.4-0.6,1.1-1.2,2.2-1.2h14.3c2.2,0,3.3,2.2,2.2,4l-32.1,46.2V96c0,1.4-1.2,2.6-2.6,2.6h-12.8c-1.5,0-2.6-1.2-2.6-2.6V51.8z"/>
</g>
</svg>
