<?xml version="1.0" encoding="utf-8"?>
<!-- Generator: Adobe Illustrator 26.0.3, SVG Export Plug-In . SVG Version: 6.00 Build 0)  -->
<svg version="1.1" id="Layer_1" xmlns="http://www.w3.org/2000/svg" xmlns:xlink="http://www.w3.org/1999/xlink" x="0px" y="0px"
	 viewBox="0 0 853.5 100" style="enable-background:new 0 0 853.5 100;" xml:space="preserve">
<style type="text/css">
	.st0{fill:#FFFFFF;}
</style>
<g>
	<path class="st0" d="M58.6,1c13,0,23.2,3.9,32.9,12.7c0.4,0.3,0.6,0.8,0.6,1.2c0,0.4-0.2,0.9-0.5,1.2l-8.5,8.8
		c-0.2,0.2-0.5,0.5-0.9,0.5c-0.4,0-0.7-0.2-1.1-0.5l0,0l0,0c-6.1-5.4-14.1-8.4-22-8.4c-8.8,0-16.9,3.5-22.9,9.9
		C30.2,32.6,27,40.9,27,49.7c0,8.8,3.3,17,9.2,23.2c6,6.3,14.2,9.8,22.9,9.8c7.8,0,15.2-2.7,21.9-8.2c0.4-0.4,0.8-0.4,1.1-0.4
		c0.4,0,0.8,0.1,1,0.4l8.6,8.9l0,0l0,0c0.2,0.2,0.4,0.5,0.4,0.9c0,0.5-0.2,1.1-0.6,1.4C82.7,94.4,71.3,99,58.6,99
		C45.4,99,33,93.9,23.8,84.8C14.5,75.6,9.4,63.3,9.4,50.1c0-13.2,5.1-25.5,14.4-34.8C33.1,6.1,45.4,1,58.6,1 M58.6,0
		C30.8,0,8.4,22.4,8.4,50.1S30.8,100,58.6,100c12.4,0,24.3-4.3,33.7-13.5c1-1,1.2-2.8,0.1-3.7l-8.6-8.9c-0.4-0.4-1.1-0.7-1.7-0.7
		c-0.6,0-1.2,0.2-1.8,0.7c-5.8,4.7-12.9,7.9-21.2,7.9C41.4,81.8,28,67.1,28,49.7c0-17.5,13.2-32.4,31-32.4c7.8,0,15.6,3.1,21.4,8.2
		c0.6,0.6,1.2,0.8,1.8,0.8c0.6,0,1.2-0.3,1.7-0.8l8.5-8.8c1.1-1.1,1.1-2.8-0.1-3.9C82.7,4.4,72.6,0,58.6,0L58.6,0z"/>
	<path class="st0" d="M149.6,1c13.2,0,25.5,5.1,34.7,14.4c9.2,9.3,14.3,21.6,14.3,34.8c0,13.2-5.1,25.5-14.3,34.6
		c-9.2,9.2-21.5,14.2-34.7,14.2c-13.2,0-25.5-5.1-34.6-14.2c-9.2-9.2-14.2-21.5-14.2-34.6c0-13.2,5.1-25.5,14.2-34.8
		C124.2,6.1,136.5,1,149.6,1 M149.6,82.9c18.2,0,32.9-14.7,32.9-32.8c0-8.7-3.4-17-9.7-23.3c-6.3-6.3-14.5-9.8-23.2-9.8
		c-8.7,0-16.9,3.5-23.2,9.8c-6.2,6.3-9.6,14.6-9.6,23.3C116.8,68.2,131.6,82.9,149.6,82.9 M149.6,0c-27.8,0-49.9,22.4-49.9,50.1
		s22.1,49.9,49.9,49.9s50-22.1,50-49.9S177.4,0,149.6,0L149.6,0z M149.6,81.9c-17.5,0-31.8-14.3-31.8-31.8s14.3-32.1,31.8-32.1
		s31.9,14.6,31.9,32.1S167.1,81.9,149.6,81.9L149.6,81.9z"/>
	<path class="st0" d="M299.4,1c1.2,0,1.5,0.8,1.5,1.3l16.4,93.4c0.1,0.4,0.1,1.1-0.2,1.5c-0.3,0.3-0.7,0.5-1.3,0.5h-12.6
		c-0.8,0-1.5-0.8-1.7-1.3l-8.2-52.6l-0.1-0.8h-0.9h-0.4h-0.6l-0.3,0.6l-24.3,54.6l0,0l0,0c-0.1,0.4-0.6,0.8-1.4,0.8h-2.5
		c-0.7,0-1.1-0.3-1.5-0.9l-24.6-54.6l-0.3-0.6h-0.6h-0.4h-0.9l-0.1,0.8l-8.1,52.6c-0.1,0.5-0.7,1.2-1.5,1.2h-12.5
		c-0.4,0-1-0.1-1.3-0.5c-0.3-0.4-0.4-0.9-0.3-1.5l16.5-93.3l0,0l0,0c0-0.4,0.3-1.2,1.5-1.2h2.2c0.7,0,1.2,0.3,1.5,0.8l30.6,65.6
		l0.3,0.6h0.6h0.4h0.6l0.3-0.6l30.5-65.5c0.3-0.5,0.6-0.8,1.5-0.8H299.4 M299.4,0h-2.2c-1.3,0-1.9,0.6-2.4,1.4l-30.6,65.6
		c-0.1,0-0.1,0-0.4,0L233.3,1.4C232.9,0.6,232,0,230.9,0h-2.2c-1.5,0-2.4,1-2.5,2.1l-16.5,93.3c-0.3,1.9,0.8,3.2,2.6,3.2h12.5
		c1.3,0,2.4-1.1,2.5-2.1l8.1-52.6c0.1,0,0.4,0,0.4,0l24.6,54.6c0.4,0.8,1.1,1.5,2.4,1.5h2.5c1.2,0,2.1-0.7,2.4-1.5l24.3-54.6
		c0,0,0.3,0,0.4,0l8.2,52.6c0.3,1,1.4,2.1,2.6,2.1h12.6c1.8,0,2.9-1.2,2.5-3.2L301.9,2.1C301.8,1,300.9,0,299.4,0L299.4,0z"/>
	<path class="st0" d="M419.9,1c1.2,0,1.5,0.8,1.5,1.3l16.4,93.4c0.1,0.4,0.1,1.1-0.2,1.5c-0.3,0.3-0.7,0.5-1.3,0.5h-12.6
		c-0.8,0-1.5-0.8-1.7-1.3l-8.2-52.6l-0.1-0.8h-0.9h-0.4h-0.6l-0.3,0.6l-24.3,54.6l0,0l0,0c-0.1,0.4-0.6,0.9-1.4,0.9h-2.5
		c-0.7,0-1.1-0.3-1.5-0.9l-24.6-54.6l-0.3-0.6h-0.6h-0.4h-0.9l-0.1,0.8l-8.1,52.6c-0.1,0.5-0.7,1.2-1.5,1.2h-12.5
		c-0.4,0-1-0.1-1.3-0.5c-0.3-0.4-0.4-0.9-0.3-1.5l16.5-93.3l0,0l0,0c0-0.4,0.3-1.2,1.5-1.2h2.2c0.7,0,1.2,0.3,1.5,0.8l30.6,65.6
		l0.3,0.6h0.6h0.4h0.6l0.3-0.6l30.5-65.5c0.2-0.4,0.5-0.8,1.5-0.8H419.9 M419.9,0h-2.2c-1.2,0-1.9,0.6-2.4,1.4l-30.6,65.6
		c-0.1,0-0.1,0-0.4,0L353.8,1.4c-0.4-0.8-1.2-1.4-2.4-1.4h-2.2c-1.5,0-2.4,1-2.5,2.1l-16.5,93.3c-0.3,1.9,0.8,3.2,2.6,3.2h12.5
		c1.3,0,2.4-1.1,2.5-2.1l8.1-52.6c0.1,0,0.4,0,0.4,0l24.6,54.6c0.4,0.8,1.1,1.5,2.4,1.5h2.5c1.3,0,2.1-0.7,2.4-1.5l24.3-54.6
		c0,0,0.3,0,0.4,0l8.2,52.6c0.3,1,1.4,2.1,2.6,2.1h12.6c1.8,0,2.9-1.2,2.5-3.2L422.4,2.1C422.3,1,421.5,0,419.9,0L419.9,0z"/>
	<path class="st0" d="M528.5,2.4c0.8,0,1.6,0.8,1.6,1.6v58.9c0,20.6-16.2,36.1-37.8,36.1c-10.3,0-19.8-3.7-26.8-10.3
		c-7-6.7-10.8-15.8-10.8-25.7V4c0-0.8,0.8-1.6,1.6-1.6h13.2c1,0,1.6,0.9,1.6,1.6v57.9c0,12.4,8.7,21,21.1,21
		c12.5,0,21.3-8.6,21.3-20.9V4c0-0.8,0.6-1.6,1.6-1.6H528.5 M528.5,1.4h-13.2c-1.5,0-2.6,1.2-2.6,2.6v58.1
		c0,11.7-8.2,19.9-20.3,19.9s-20.1-8.2-20.1-20V4c0-1.4-1.1-2.6-2.6-2.6h-13.2c-1.4,0-2.6,1.2-2.6,2.6v58.9
		c0,21.1,16.8,37.1,38.6,37.1c21.9,0,38.8-16,38.8-37.1V4C531.2,2.6,529.9,1.4,528.5,1.4L528.5,1.4z"/>
	<path class="st0" d="M558,1c0.7,0,1.2,0.2,1.6,0.7l56.7,60.4l0.3,0.3h0.4h0.3h1v-1V4c0-0.8,0.6-1.6,1.6-1.6h12.8
		c0.8,0,1.6,0.8,1.6,1.6v93.5c0,0.8-0.8,1.5-1.6,1.5h-1.9c-0.7,0-1.2-0.2-1.6-0.6l-56.9-62.8l-0.3-0.3h-0.4h-0.3h-1v1V96
		c0,0.8-0.6,1.6-1.6,1.6h-12.6c-0.8,0-1.6-0.8-1.6-1.6V2.5c0-0.8,0.8-1.5,1.6-1.5H558 M558,0h-2.1c-1.4,0-2.6,1.1-2.6,2.5V96
		c0,1.4,1.2,2.6,2.6,2.6h12.6c1.5,0,2.6-1.2,2.6-2.6V36.3h0.3L628.4,99c0.7,0.7,1.4,1,2.4,1h1.9c1.4,0,2.6-1.1,2.6-2.5V4
		c0-1.4-1.3-2.6-2.6-2.6H620c-1.5,0-2.6,1.2-2.6,2.6v57.4H617L560.4,1C559.7,0.3,559,0,558,0L558,0z"/>
	<path class="st0" d="M673.9,2.4c0.8,0,1.6,0.8,1.6,1.6V96c0,0.8-0.8,1.6-1.6,1.6H661c-0.8,0-1.6-0.8-1.6-1.6V4
		c0-0.8,0.8-1.6,1.6-1.6H673.9 M673.9,1.4H661c-1.4,0-2.6,1.2-2.6,2.6V96c0,1.4,1.2,2.6,2.6,2.6h12.9c1.4,0,2.6-1.2,2.6-2.6V4
		C676.5,2.6,675.3,1.4,673.9,1.4L673.9,1.4z"/>
	<path class="st0" d="M752.6,2.4c1,0,1.6,0.9,1.6,1.6v11.4c0,0.8-0.6,1.6-1.6,1.6h-21.3h-1v1V96c0,0.8-0.8,1.6-1.6,1.6h-12.9
		c-0.8,0-1.6-0.8-1.6-1.6V18.1v-1h-1h-21.2c-1,0-1.6-0.8-1.6-1.6V4c0-0.8,0.6-1.6,1.6-1.6H752.6 M752.6,1.4h-60.7
		c-1.5,0-2.6,1.2-2.6,2.6v11.4c0,1.4,1.1,2.6,2.6,2.6h21.2V96c0,1.4,1.3,2.6,2.6,2.6h12.9c1.4,0,2.6-1.2,2.6-2.6V18.1h21.3
		c1.5,0,2.6-1.2,2.6-2.6V4C755.2,2.6,754.1,1.4,752.6,1.4L752.6,1.4z"/>
	<path class="st0" d="M842.4,2.4c0.7,0,1.2,0.3,1.5,0.8c0.3,0.5,0.3,1.1-0.1,1.7l-32.1,46.2l-0.2,0.3v0.3V96c0,0.8-0.8,1.6-1.6,1.6
		h-12.8c-1,0-1.6-0.8-1.6-1.6V51.8v-0.3l-0.2-0.3L763.7,4.9c-0.3-0.6-0.4-1.2-0.1-1.7c0.3-0.5,0.8-0.8,1.5-0.8h14.2
		c0.5,0,1,0.3,1.4,0.8l22.2,31.9l0.8,1.2l0.8-1.2l22.2-31.9c0.4-0.6,0.9-0.9,1.4-0.9H842.4 M842.4,1.4h-14.3c-1.1,0-1.8,0.7-2.2,1.2
		l-22.2,31.9L781.4,2.6c-0.4-0.6-1.1-1.2-2.2-1.2H765c-2.2,0-3.3,2.2-2.2,4l31.7,46.4V96c0,1.4,1.1,2.6,2.6,2.6h12.8
		c1.4,0,2.6-1.2,2.6-2.6V51.7l32.1-46.2C845.7,3.6,844.6,1.4,842.4,1.4L842.4,1.4z"/>
</g>
</svg>
