<svg id="Capa_1" data-name="Capa 1" xmlns="http://www.w3.org/2000/svg" viewBox="0 0 79.49 76"><defs><style>.cls-1{fill:#fff;}</style></defs><path class="cls-1" d="M67.85,27V17H57.91a1.89,1.89,0,0,1-2-2,1.89,1.89,0,0,1,2-2h9.94V3a2,2,0,1,1,4,0V13H82.55a.39.39,0,0,1,.4.4.39.39,0,0,1,.4.4l.39.4v1.6a2.17,2.17,0,0,1-2,1.2H71.82V27a2,2,0,1,1-4,0M28.9,57A10.23,10.23,0,0,1,19,48.6l-.79-5.2L13.4,14.2a6,6,0,0,0-6-5.2H6.24a1.88,1.88,0,0,1-2-2,1.88,1.88,0,0,1,2-2h1.2a10.18,10.18,0,0,1,9.93,8H46a1.89,1.89,0,0,1,2,2,1.89,1.89,0,0,1-2,2H17.77l4,24H72.22l2-7.6V33h0a1.89,1.89,0,1,1,3.58,1.2l-2,9.2a2.63,2.63,0,0,1-2,1.6H22.54l.4,3.2a6,6,0,0,0,6,4.8H73.81a2,2,0,0,1,0,4ZM24.13,69a3.77,3.77,0,0,0,4,4,4,4,0,0,0,0-8,3.77,3.77,0,0,0-4,4m-4,0a8,8,0,1,1,8,8,8,8,0,0,1-8-8M59.9,69a4,4,0,1,0,4-4,3.77,3.77,0,0,0-4,4m-4,0a8,8,0,1,1,7.95,8,8,8,0,0,1-7.95-8" transform="translate(-4.26 -1)"/></svg>