<?xml version="1.0" encoding="utf-8"?>
<!-- Generator: Adobe Illustrator 25.4.1, SVG Export Plug-In . SVG Version: 6.00 Build 0)  -->
<svg version="1.1" id="Layer_1" xmlns="http://www.w3.org/2000/svg" xmlns:xlink="http://www.w3.org/1999/xlink" x="0px" y="0px"
	 viewBox="0 0 85.2 15.6" style="enable-background:new 0 0 85.2 15.6;" xml:space="preserve">
<style type="text/css">
	.st0{fill:#007DC3;}
	.st1{clip-path:url(#SVGID_00000017484085031840310430000006347567500602268546_);fill:#FFFFFF;}
	.st2{fill:#FFFFFF;}
	.st3{clip-path:url(#SVGID_00000012440460585503334290000002470478842361847206_);fill:#007DC3;}
	.st4{clip-path:url(#SVGID_00000091702512531408686960000014384475836017924769_);fill:#007DC3;}
	.st5{clip-path:url(#SVGID_00000091702512531408686960000014384475836017924769_);fill:#0071CE;}
	.st6{fill:#0071CE;}
	.st7{fill:#FFB71B;}
	.st8{fill:#73B924;}
	.st9{fill:#F9B848;}
</style>
<g>
	<rect y="0" class="st0" width="21.7" height="15.6"/>
	<g>
		<defs>
			<rect id="SVGID_1_" y="0" width="85.2" height="15.6"/>
		</defs>
		<clipPath id="SVGID_00000106135291487450613110000008658039021354724232_">
			<use xlink:href="#SVGID_1_"  style="overflow:visible;"/>
		</clipPath>
		<path style="clip-path:url(#SVGID_00000106135291487450613110000008658039021354724232_);fill:#FFFFFF;" d="M11.3,6.9h1.8V8h-1.8
			V6.9z M8.7,6.9h1.6v2.8H8.7V6.9z M11.2,6.7L11.2,6.7C11.2,6.7,11.1,6.7,11.2,6.7l-0.1,1.4c0,0.1,0,0.1,0.1,0.1h1.9
			c0,0,0.1,0,0.1-0.1V6.8c0-0.1,0-0.1-0.1-0.1H11.2z M8.5,5.4c0.1,0.3,0.4,0.5,0.8,0.5c0.4,0,0.7-0.2,0.8-0.5
			c0.1,0.3,0.4,0.5,0.8,0.5c0.4,0,0.7-0.2,0.8-0.5c0.1,0.3,0.4,0.5,0.8,0.5c0.4,0,0.7-0.2,0.8-0.5c0.1,0.3,0.4,0.5,0.8,0.5
			c0,0,0.1,0,0.1,0v3.7h-3.7V6.8c0-0.1,0-0.1-0.1-0.1H8.6c0,0-0.1,0-0.1,0.1v2.9H7.6V5.9c0,0,0.1,0,0.1,0C8,5.9,8.3,5.7,8.5,5.4z
			 M8.1,2.8h5.6l1.1,1.8V5c0,0.4-0.3,0.7-0.7,0.7c-0.4,0-0.7-0.3-0.7-0.7h-0.2c0,0.4-0.3,0.7-0.7,0.7c-0.4,0-0.7-0.3-0.7-0.7h-0.2
			c0,0.4-0.3,0.7-0.7,0.7c-0.4,0-0.7-0.3-0.7-0.7H10c0,0.4-0.3,0.7-0.7,0.7C8.9,5.8,8.6,5.4,8.6,5H8.4c0,0.4-0.3,0.7-0.7,0.7
			C7.3,5.8,7,5.4,7,5l0-0.4L8.1,2.8z M8,2.6L8,2.6L6.8,4.5l0,0V5c0,0.4,0.3,0.8,0.6,0.9v3.8c0,0.1,0,0.1,0.1,0.1h6.7
			c0,0,0.1,0,0.1-0.1V5.9c0.4-0.1,0.6-0.5,0.6-0.9V4.5l0,0l-1.1-1.8l0,0H8z"/>
	</g>
	<g>
		<path class="st2" d="M6.9,13.6C6.8,13.5,6.8,13.5,6.9,13.6l0.1-0.2c0,0,0.1,0,0.1,0c0.1,0.1,0.2,0.1,0.3,0.1
			c0.1,0,0.2-0.1,0.2-0.2c0-0.1-0.1-0.2-0.3-0.3c-0.2-0.1-0.4-0.2-0.4-0.5c0-0.2,0.1-0.4,0.5-0.4c0.2,0,0.4,0.1,0.4,0.1
			c0,0,0,0,0,0.1l-0.1,0.1c0,0,0,0-0.1,0c-0.1-0.1-0.2-0.1-0.3-0.1c-0.1,0-0.2,0.1-0.2,0.2c0,0.1,0.1,0.2,0.3,0.2
			c0.2,0.1,0.4,0.2,0.4,0.5c0,0.2-0.2,0.4-0.5,0.4C7.1,13.7,6.9,13.6,6.9,13.6z"/>
		<path class="st2" d="M8.4,12.5H8.1c0,0,0,0,0,0v-0.2c0,0,0,0,0,0H9c0,0,0,0,0,0v0.2c0,0,0,0,0,0H8.7v1.2c0,0,0,0,0,0H8.5
			c0,0,0,0,0,0V12.5z"/>
		<path class="st2" d="M10,12.2c0.4,0,0.8,0.3,0.8,0.8c0,0.4-0.3,0.8-0.8,0.8c-0.4,0-0.8-0.3-0.8-0.8C9.3,12.5,9.6,12.2,10,12.2z
			 M10,13.4c0.3,0,0.5-0.2,0.5-0.5c0-0.3-0.2-0.5-0.5-0.5S9.6,12.7,9.6,13C9.6,13.2,9.8,13.4,10,13.4z"/>
		<path class="st2" d="M11.2,12.2C11.2,12.2,11.2,12.2,11.2,12.2l0.7,0c0.3,0,0.5,0.2,0.5,0.5c0,0.2-0.1,0.4-0.3,0.4l0.3,0.5
			c0,0,0,0.1,0,0.1H12c0,0,0,0,0,0l-0.3-0.6h-0.2v0.5c0,0,0,0,0,0h-0.2c0,0,0,0,0,0V12.2z M11.8,12.9c0.1,0,0.2-0.1,0.2-0.2
			c0-0.1-0.1-0.2-0.2-0.2h-0.3v0.4H11.8z"/>
		<path class="st2" d="M12.7,12.2C12.7,12.2,12.7,12.2,12.7,12.2l0.9,0c0,0,0,0,0,0v0.2c0,0,0,0,0,0H13v0.4h0.5c0,0,0,0,0,0V13
			c0,0,0,0,0,0H13v0.4h0.6c0,0,0,0,0,0v0.2c0,0,0,0,0,0h-0.9c0,0,0,0,0,0V12.2z"/>
		<path class="st2" d="M13.9,13.6C13.9,13.5,13.9,13.5,13.9,13.6l0.1-0.2c0,0,0.1,0,0.1,0c0.1,0.1,0.2,0.1,0.3,0.1
			c0.1,0,0.2-0.1,0.2-0.2c0-0.1-0.1-0.2-0.3-0.3c-0.2-0.1-0.4-0.2-0.4-0.5c0-0.2,0.1-0.4,0.5-0.4c0.2,0,0.4,0.1,0.4,0.1
			c0,0,0,0,0,0.1l-0.1,0.1c0,0,0,0-0.1,0c-0.1-0.1-0.2-0.1-0.3-0.1c-0.1,0-0.2,0.1-0.2,0.2c0,0.1,0.1,0.2,0.3,0.2
			c0.2,0.1,0.4,0.2,0.4,0.5c0,0.2-0.2,0.4-0.5,0.4C14.1,13.7,14,13.6,13.9,13.6z"/>
	</g>
	<rect x="21.8" y="0.1" class="st2" width="31.7" height="15.4"/>
	<g>
		<defs>
			<rect id="SVGID_00000022520823469275000370000007406741516689316026_" y="0" width="85.2" height="15.6"/>
		</defs>
		<clipPath id="SVGID_00000029022894479221619140000011531937736349522074_">
			<use xlink:href="#SVGID_00000022520823469275000370000007406741516689316026_"  style="overflow:visible;"/>
		</clipPath>
		<path style="clip-path:url(#SVGID_00000029022894479221619140000011531937736349522074_);fill:#007DC3;" d="M53.5,15.6H21.7V0
			h31.8V15.6z M21.9,15.4h31.5V0.1H21.9V15.4z"/>
	</g>
	<rect x="53.5" y="0.1" class="st2" width="31.7" height="15.4"/>
	<g>
		<defs>
			<rect id="SVGID_00000070081302456065274940000004658572364228373695_" y="0" width="85.2" height="15.6"/>
		</defs>
		<clipPath id="SVGID_00000170959881960121140020000003102669079772788889_">
			<use xlink:href="#SVGID_00000070081302456065274940000004658572364228373695_"  style="overflow:visible;"/>
		</clipPath>
		<path style="clip-path:url(#SVGID_00000170959881960121140020000003102669079772788889_);fill:#007DC3;" d="M85.2,15.6H53.4V0
			h31.8V15.6z M53.5,15.4h31.5V0.1H53.5V15.4z"/>
		<path style="clip-path:url(#SVGID_00000170959881960121140020000003102669079772788889_);fill:#0071CE;" d="M41,7.2
			c0-0.6-0.3-1.1-1.1-1.1c-0.4,0-0.8,0.1-1,0.2L39,6.8c0.2-0.1,0.5-0.2,0.7-0.2c0.4,0,0.5,0.2,0.5,0.4v0c-0.9,0-1.5,0.3-1.5,1
			c0,0.4,0.3,0.8,0.8,0.8c0.3,0,0.6-0.1,0.8-0.3h0c0,0,0.1,0.5,0.7,0.3c0-0.2,0-0.4,0-0.6V7.2z M40.3,7.8c0,0,0,0.1,0,0.1
			c-0.1,0.2-0.2,0.3-0.5,0.3c-0.2,0-0.4-0.1-0.4-0.3c0-0.4,0.4-0.5,0.8-0.5V7.8z"/>
		<path style="clip-path:url(#SVGID_00000170959881960121140020000003102669079772788889_);fill:#0071CE;" d="M26.2,5.3
			c0,0,0.6,2.5,0.7,2.9c0.1,0.5,0.3,0.7,0.9,0.5l0.4-1.6c0.1-0.4,0.2-0.7,0.2-1.1h0c0,0.4,0.1,0.7,0.2,1.1c0,0,0.2,0.7,0.2,1.1
			c0.1,0.4,0.3,0.6,0.9,0.5l0.9-3.5H30l-0.3,1.5c-0.1,0.4-0.2,0.8-0.2,1.2h0c-0.1-0.4-0.1-0.7-0.2-1.1l-0.3-1.5h-0.8l-0.4,1.5
			c-0.1,0.5-0.2,0.8-0.3,1.2h0c-0.1-0.4-0.1-0.8-0.2-1.3c0,0-0.2-1.1-0.3-1.4H26.2z"/>
		<path style="clip-path:url(#SVGID_00000170959881960121140020000003102669079772788889_);fill:#0071CE;" d="M32.8,7.2
			c0-0.6-0.3-1.1-1.1-1.1c-0.4,0-0.8,0.1-1,0.2l0.1,0.5c0.2-0.1,0.5-0.2,0.7-0.2c0.4,0,0.5,0.2,0.5,0.4v0c-0.9,0-1.5,0.3-1.5,1
			c0,0.4,0.3,0.8,0.8,0.8c0.3,0,0.6-0.1,0.8-0.3h0c0,0,0.1,0.5,0.7,0.3c0-0.2,0-0.4,0-0.6V7.2z M32.1,7.8c0,0,0,0.1,0,0.1
			c-0.1,0.2-0.2,0.3-0.5,0.3c-0.2,0-0.4-0.1-0.4-0.3c0-0.4,0.4-0.5,0.8-0.5V7.8z"/>
	</g>
	<polygon class="st6" points="34,8 34,5.3 33.3,5.3 33.3,8.7 34,8.7 	"/>
	<g>
		<path class="st6" d="M43.3,5.3v2.6c0,0.4,0.1,0.6,0.2,0.8c0.1,0.1,0.3,0.2,0.6,0.2c0.2,0,0.4,0,0.5-0.1l0-0.6c-0.1,0-0.2,0-0.3,0
			c-0.2,0-0.3-0.2-0.3-0.5v-1h0.6V6.1H44V5.3H43.3z"/>
		<path class="st6" d="M41.5,6.1v2.6h0.7V7.4c0-0.1,0-0.1,0-0.2c0.1-0.3,0.3-0.5,0.6-0.5c0.1,0,0.1,0,0.2,0V6.1c-0.1,0-0.1,0-0.2,0
			c-0.3,0-0.6,0.2-0.7,0.6h0V6.1H41.5z"/>
		<path class="st6" d="M34.5,6.1v2.6h0.7V7.2c0-0.1,0-0.1,0-0.2c0.1-0.2,0.2-0.3,0.4-0.3c0.3,0,0.4,0.2,0.4,0.6v1.5h0.7V7.2
			c0-0.1,0-0.2,0-0.2c0.1-0.2,0.2-0.3,0.4-0.3c0.3,0,0.4,0.2,0.4,0.6v1.4h0.7V7.2c0-0.8-0.4-1.1-0.9-1.1c-0.2,0-0.4,0.1-0.5,0.1
			c-0.1,0.1-0.2,0.2-0.3,0.3h0c-0.1-0.3-0.4-0.5-0.7-0.5c-0.4,0-0.6,0.2-0.8,0.4h0V6.1H34.5z"/>
		<path class="st7" d="M47.7,6.2c0.1,0,0.2-0.1,0.2-0.1l0.1-1.3c0-0.1-0.1-0.2-0.3-0.2c-0.2,0-0.3,0.1-0.3,0.2l0.1,1.3
			C47.5,6.1,47.6,6.2,47.7,6.2L47.7,6.2z"/>
		<path class="st7" d="M47.1,6.6c0.1-0.1,0.1-0.2,0-0.3L46,5.6c-0.1-0.1-0.3,0-0.4,0.2c-0.1,0.2-0.1,0.3,0,0.4l1.2,0.5
			C46.9,6.8,47,6.7,47.1,6.6L47.1,6.6z"/>
		<path class="st7" d="M48.4,6.6c0.1,0.1,0.2,0.2,0.2,0.1l1.2-0.5c0.1-0.1,0.1-0.2,0-0.4c-0.1-0.2-0.3-0.2-0.4-0.2l-1.1,0.7
			C48.4,6.4,48.4,6.5,48.4,6.6L48.4,6.6z"/>
		<path class="st7" d="M47.7,7.8c0.1,0,0.2,0.1,0.2,0.1l0.1,1.3c0,0.1-0.1,0.2-0.3,0.2c-0.2,0-0.3-0.1-0.3-0.2l0.1-1.3
			C47.5,7.9,47.6,7.8,47.7,7.8L47.7,7.8z"/>
		<path class="st7" d="M48.4,7.4c0.1-0.1,0.2-0.2,0.2-0.1l1.2,0.5c0.1,0.1,0.1,0.2,0,0.4c-0.1,0.2-0.3,0.2-0.4,0.2l-1.1-0.7
			C48.4,7.6,48.4,7.5,48.4,7.4L48.4,7.4z"/>
		<path class="st7" d="M47.1,7.4c0.1,0.1,0.1,0.2,0,0.3L46,8.4c-0.1,0.1-0.3,0-0.4-0.2c-0.1-0.2-0.1-0.3,0-0.4l1.2-0.5
			C46.9,7.3,47,7.3,47.1,7.4L47.1,7.4z"/>
		<path class="st7" d="M50.2,8.2c0.1,0,0.1,0.1,0.1,0.1c0,0.1-0.1,0.1-0.1,0.1c-0.1,0-0.1-0.1-0.1-0.1C50.1,8.2,50.1,8.2,50.2,8.2
			L50.2,8.2z M50.2,8.2c-0.1,0-0.1,0-0.1,0.1c0,0.1,0,0.1,0.1,0.1c0.1,0,0.1,0,0.1-0.1C50.3,8.2,50.3,8.2,50.2,8.2L50.2,8.2z
			 M50.2,8.4L50.2,8.4l0-0.1c0,0,0,0,0,0c0,0,0,0,0,0C50.3,8.3,50.3,8.3,50.2,8.4C50.3,8.3,50.2,8.3,50.2,8.4L50.2,8.4
			C50.2,8.3,50.3,8.3,50.2,8.4C50.3,8.4,50.3,8.4,50.2,8.4L50.2,8.4C50.2,8.4,50.2,8.4,50.2,8.4C50.2,8.3,50.2,8.3,50.2,8.4
			L50.2,8.4L50.2,8.4z M50.2,8.3L50.2,8.3C50.2,8.3,50.2,8.3,50.2,8.3C50.2,8.3,50.2,8.3,50.2,8.3C50.2,8.3,50.2,8.3,50.2,8.3
			L50.2,8.3z"/>
		<path class="st8" d="M76.4,11.7c0,0.5-0.4,0.8-0.8,0.8l-16.6,0c-0.5,0-0.8-0.4-0.8-0.8v-1.2c0-0.5,0.4-0.8,0.8-0.8l16.6,0
			c0.5,0,0.8,0.4,0.8,0.8V11.7z"/>
		<path class="st2" d="M63.6,10.3C63.6,10.3,63.6,10.3,63.6,10.3l0.9,0c0,0,0,0,0,0v0.2c0,0,0,0,0,0h-0.6v0.3h0.5c0,0,0,0,0,0v0.2
			c0,0,0,0,0,0h-0.5v0.4h0.6c0,0,0,0,0,0v0.2c0,0,0,0,0,0h-0.8c0,0,0,0,0,0V10.3z"/>
		<path class="st2" d="M64.8,11.6l0.3-0.4l-0.3-0.4c0,0,0-0.1,0-0.1H65c0,0,0.1,0,0.1,0l0.2,0.3h0l0.2-0.3c0,0,0,0,0.1,0h0.2
			c0,0,0.1,0,0,0.1l-0.3,0.4l0.3,0.4c0,0,0,0.1,0,0.1h-0.2c0,0,0,0-0.1,0l-0.2-0.3h0l-0.2,0.3c0,0,0,0,0,0L64.8,11.6
			C64.8,11.7,64.8,11.7,64.8,11.6"/>
		<path class="st2" d="M66.3,11.4c0,0,0.1,0.1,0.2,0.1c0.2,0,0.2-0.1,0.2-0.3c0-0.1-0.1-0.3-0.2-0.3c-0.1,0-0.2,0.1-0.2,0.1V11.4z
			 M66.5,11.7c-0.1,0-0.2,0-0.2,0v0.5c0,0,0,0,0,0h-0.2c0,0,0,0,0,0v-1.4c0,0,0,0,0,0c0.1,0,0.1,0.1,0.1,0.1
			c0.1-0.1,0.2-0.1,0.3-0.1c0.3,0,0.5,0.2,0.5,0.5C67,11.5,66.8,11.7,66.5,11.7"/>
		<path class="st2" d="M67.3,10.8C67.3,10.8,67.3,10.7,67.3,10.8c0.1,0,0.2,0,0.2,0.1c0,0,0.1-0.1,0.3-0.1c0.1,0,0.2,0,0.2,0.1
			L67.9,11c0,0,0,0-0.1,0c0,0,0,0-0.1,0c-0.1,0-0.2,0.1-0.2,0.1v0.6c0,0,0,0-0.1,0h-0.2c0,0,0,0,0,0V10.8z"/>
		<path class="st2" d="M68.8,11.1c0-0.1-0.1-0.2-0.2-0.2c-0.1,0-0.2,0.1-0.2,0.2H68.8z M68.6,10.7c0.2,0,0.4,0.2,0.4,0.4
			c0,0,0,0,0,0.1c0,0,0,0,0,0h-0.6c0,0.1,0.1,0.2,0.2,0.2c0.1,0,0.2,0,0.2-0.1c0,0,0,0,0.1,0l0.1,0.1c0,0,0,0,0,0.1
			c-0.1,0.1-0.2,0.1-0.4,0.1c-0.3,0-0.5-0.2-0.5-0.5C68.1,11,68.3,10.7,68.6,10.7"/>
		<path class="st2" d="M69.3,11.6C69.3,11.6,69.3,11.6,69.3,11.6l0-0.2c0,0,0,0,0.1,0c0,0,0.1,0.1,0.2,0.1c0.1,0,0.1,0,0.1-0.1
			c0,0-0.1-0.1-0.2-0.1c-0.2-0.1-0.3-0.2-0.3-0.3c0-0.1,0.1-0.3,0.3-0.3c0.1,0,0.2,0,0.3,0.1c0,0,0,0,0,0.1L69.9,11c0,0,0,0-0.1,0
			c0,0-0.1,0-0.2,0c-0.1,0-0.1,0-0.1,0.1c0,0,0,0.1,0.1,0.1c0.2,0.1,0.3,0.1,0.3,0.3c0,0.2-0.1,0.3-0.4,0.3
			C69.5,11.7,69.4,11.7,69.3,11.6"/>
		<path class="st2" d="M70.3,11.6C70.3,11.6,70.3,11.6,70.3,11.6l0-0.2c0,0,0,0,0.1,0c0,0,0.1,0.1,0.2,0.1c0.1,0,0.1,0,0.1-0.1
			c0,0-0.1-0.1-0.2-0.1c-0.2-0.1-0.3-0.2-0.3-0.3c0-0.1,0.1-0.3,0.3-0.3c0.1,0,0.2,0,0.3,0.1c0,0,0,0,0,0.1L70.9,11c0,0,0,0-0.1,0
			c0,0-0.1,0-0.2,0c-0.1,0-0.1,0-0.1,0.1c0,0,0,0.1,0.1,0.1c0.2,0.1,0.3,0.1,0.3,0.3c0,0.2-0.1,0.3-0.4,0.3
			C70.4,11.7,70.3,11.7,70.3,11.6"/>
		<path class="st8" d="M67.1,6.2v0.4h0c0.1-0.2,0.3-0.4,0.8-0.4c0.3,0,0.6,0.2,0.7,0.5h0c0.1-0.1,0.2-0.2,0.3-0.3
			c0.1-0.1,0.3-0.1,0.5-0.1c0.5,0,0.9,0.3,0.9,1.1v1.5h-0.7V7.3c0-0.4-0.1-0.6-0.4-0.6c-0.2,0-0.4,0.1-0.4,0.3c0,0.1,0,0.1,0,0.2
			v1.5H68V7.3c0-0.3-0.1-0.6-0.4-0.6c-0.2,0-0.4,0.2-0.4,0.3c0,0.1,0,0.1,0,0.2v1.5h-0.7V6.2H67.1z M74,6.2v0.5h0
			c0.1-0.4,0.4-0.5,0.7-0.5c0.1,0,0.1,0,0.2,0v0.7c-0.1,0-0.1,0-0.2,0c-0.3,0-0.5,0.2-0.6,0.5c0,0.1,0,0.1,0,0.2v1.3h-0.7V6.2H74z
			 M75.8,5.3v0.8h0.6v0.7h-0.6v1c0,0.3,0.1,0.5,0.3,0.5c0.1,0,0.2,0,0.3,0l0,0.5c-0.1,0-0.3,0.1-0.5,0.1c-0.2,0-0.4-0.1-0.6-0.2
			c-0.1-0.2-0.2-0.4-0.2-0.8V5.3H75.8z M65.9,8.8h-0.7V5.3h0.7V8.8z M64,7.8c0,0,0,0.1,0,0.1c-0.1,0.2-0.2,0.3-0.5,0.3
			c-0.2,0-0.3-0.1-0.3-0.3c0-0.4,0.4-0.5,0.8-0.5V7.8z M64.8,7.2c0-0.6-0.3-1.1-1.1-1.1c-0.4,0-0.8,0.1-1,0.2l0.1,0.5
			c0.2-0.1,0.4-0.2,0.7-0.2C64,6.6,64,6.8,64,7v0c-0.9,0-1.5,0.3-1.5,1c0,0.4,0.3,0.8,0.8,0.8c0.3,0,0.6-0.1,0.8-0.3h0
			c0,0,0.1,0.5,0.7,0.3c0-0.2,0-0.4,0-0.6V7.2z M59,5.3c0.1,0.4,0.3,1.4,0.3,1.4c0.1,0.4,0.2,0.9,0.2,1.3h0c0.1-0.4,0.2-0.8,0.2-1.2
			l0.3-1.5h0.8l0.3,1.5c0.1,0.4,0.2,0.8,0.2,1.1h0c0.1-0.4,0.1-0.7,0.2-1.2l0.3-1.5h0.7l-0.9,3.5c-0.6,0.1-0.8-0.1-0.9-0.5
			c-0.1-0.4-0.2-1.1-0.2-1.1c-0.1-0.4-0.1-0.7-0.2-1.1h0c-0.1,0.4-0.1,0.7-0.2,1.1l-0.4,1.6c-0.6,0.1-0.8-0.1-0.9-0.5
			c-0.1-0.4-0.7-2.9-0.7-2.9H59z M72.1,7.8c0,0,0,0.1,0,0.1c-0.1,0.2-0.2,0.3-0.5,0.3c-0.2,0-0.3-0.1-0.3-0.3c0-0.4,0.4-0.5,0.8-0.5
			V7.8z M72.8,7.2c0-0.6-0.3-1.1-1.1-1.1c-0.4,0-0.8,0.1-1,0.2l0.1,0.5c0.2-0.1,0.4-0.2,0.7-0.2c0.4,0,0.5,0.2,0.5,0.4v0
			c-0.9,0-1.5,0.3-1.5,1c0,0.4,0.3,0.8,0.8,0.8c0.3,0,0.6-0.1,0.8-0.3h0c0,0,0.1,0.5,0.7,0.3c0-0.2,0-0.4,0-0.6V7.2z"/>
		<path class="st9" d="M78.8,7.4c0.1,0.1,0.1,0.2,0,0.3l-1.1,0.7c-0.1,0.1-0.3,0-0.4-0.2c-0.1-0.2-0.1-0.3,0-0.4l1.2-0.5
			C78.7,7.3,78.8,7.3,78.8,7.4 M80.2,7.4c0.1-0.1,0.2-0.2,0.2-0.1l1.2,0.5c0.1,0.1,0.1,0.2,0,0.4c-0.1,0.2-0.3,0.2-0.4,0.2l-1.1-0.7
			C80.2,7.6,80.2,7.5,80.2,7.4 M79.5,7.8c0.1,0,0.2,0.1,0.2,0.1l0.1,1.3c0,0.1-0.1,0.2-0.3,0.2c-0.2,0-0.3-0.1-0.3-0.2L79.3,8
			C79.3,7.9,79.4,7.8,79.5,7.8 M80.2,6.4l1.1-0.7c0.1-0.1,0.3,0,0.4,0.2c0.1,0.2,0.1,0.3,0,0.4l-1.2,0.5c-0.1,0-0.2,0-0.2-0.1
			C80.2,6.5,80.2,6.4,80.2,6.4 M78.6,6.7l-1.2-0.5c-0.1-0.1-0.1-0.2,0-0.4c0.1-0.2,0.3-0.2,0.4-0.2l1.1,0.7c0.1,0,0.1,0.2,0,0.3
			C78.8,6.7,78.7,6.8,78.6,6.7 M79.3,6.1l-0.1-1.3c0-0.1,0.1-0.2,0.3-0.2c0.2,0,0.3,0.1,0.3,0.2l-0.1,1.3c0,0.1-0.1,0.1-0.2,0.1
			C79.4,6.2,79.3,6.2,79.3,6.1 M81.9,8.4L81.9,8.4L81.9,8.4C82,8.4,82,8.4,81.9,8.4C82,8.4,82,8.4,81.9,8.4L81.9,8.4z M81.9,8.5
			C81.9,8.5,81.9,8.5,81.9,8.5L81.9,8.5C81.9,8.5,81.9,8.5,81.9,8.5L81.9,8.5L81.9,8.5L81.9,8.5C82,8.5,82,8.5,81.9,8.5L81.9,8.5
			C82,8.5,82,8.5,81.9,8.5C82,8.5,82,8.5,81.9,8.5C82,8.5,82,8.4,81.9,8.5C82,8.4,82,8.4,82,8.4h0c0,0,0,0,0,0V8.5z M81.9,8.4
			C81.9,8.4,81.9,8.3,81.9,8.4c0.1-0.1,0.2-0.1,0.2,0C82.1,8.5,82,8.5,81.9,8.4C81.9,8.5,81.9,8.5,81.9,8.4 M81.8,8.4
			c0,0.1,0.1,0.1,0.1,0.1c0.1,0,0.1-0.1,0.1-0.1S82,8.3,82,8.3C81.9,8.3,81.8,8.4,81.8,8.4"/>
	</g>
</g>
</svg>
