<?xml version="1.0" encoding="utf-8"?>
<!-- Generator: Adobe Illustrator 25.4.1, SVG Export Plug-In . SVG Version: 6.00 Build 0)  -->
<svg version="1.1" id="Layer_1" xmlns="http://www.w3.org/2000/svg" xmlns:xlink="http://www.w3.org/1999/xlink" x="0px" y="0px"
	 viewBox="0 0 55.3 15.4" style="enable-background:new 0 0 55.3 15.4;" xml:space="preserve">
<style type="text/css">
	.st0{fill:#007DC3;}
	.st1{fill:#FFFFFF;}
	.st2{font-family:'Bogle-Bold';}
	.st3{font-size:2.1312px;}
	.st4{fill:#3DAE2B;}
	.st5{fill:#FBD800;}
	.st6{fill:#DD141C;}
	.st7{fill:#D5171A;}
	.st8{fill:#FFD100;}
	.st9{fill:#F4F4F4;}
</style>
<g>
	<rect y="0" class="st0" width="21.6" height="15.5"/>
	<g>
		<path class="st1" d="M11.2,6.8H13v1.1h-1.8V6.8z M8.6,6.8h1.6v2.8H8.6V6.8z M11.1,6.6L11.1,6.6C11.1,6.6,11.1,6.7,11.1,6.6L11.1,8
			c0,0.1,0,0.1,0.1,0.1h1.9c0,0,0.1,0,0.1-0.1V6.7c0-0.1,0-0.1-0.1-0.1H11.1z M8.4,5.4c0.1,0.3,0.4,0.5,0.8,0.5
			c0.4,0,0.6-0.2,0.8-0.5c0.1,0.3,0.4,0.5,0.8,0.5s0.6-0.2,0.8-0.5c0.1,0.3,0.4,0.5,0.8,0.5c0.4,0,0.6-0.2,0.8-0.5
			c0.1,0.3,0.4,0.5,0.8,0.5c0,0,0.1,0,0.1,0v3.7h-3.7V6.7c0-0.1,0-0.1-0.1-0.1H8.5c0,0-0.1,0-0.1,0.1v2.8H7.5V5.9c0,0,0.1,0,0.1,0
			C8,5.9,8.3,5.7,8.4,5.4z M8,2.8h5.5l1.1,1.8V5c0,0.4-0.3,0.7-0.7,0.7c-0.4,0-0.7-0.3-0.7-0.7h-0.2c0,0.4-0.3,0.7-0.7,0.7
			c-0.4,0-0.7-0.3-0.7-0.7h-0.2c0,0.4-0.3,0.7-0.7,0.7c-0.4,0-0.7-0.3-0.7-0.7H9.9c0,0.4-0.3,0.7-0.7,0.7C8.8,5.7,8.5,5.4,8.5,5H8.3
			c0,0.4-0.3,0.7-0.7,0.7C7.2,5.7,6.9,5.4,6.9,5l0-0.4L8,2.8z M7.9,2.6L7.9,2.6L6.8,4.5l0,0V5c0,0.4,0.3,0.8,0.6,0.9v3.8
			c0,0.1,0,0.1,0.1,0.1h6.7c0,0,0.1,0,0.1-0.1V5.9c0.4-0.1,0.6-0.5,0.6-0.9V4.5l0,0l-1.1-1.8l0,0H7.9z"/>
	</g>
	<text transform="matrix(1 0 0 1 6.7071 13.6126)"><tspan x="0" y="0" class="st1 st2 st3">S</tspan><tspan x="1.2" y="0" class="st1 st2 st3">T</tspan><tspan x="2.4" y="0" class="st1 st2 st3">OR</tspan><tspan x="5.7" y="0" class="st1 st2 st3">E</tspan><tspan x="7" y="0" class="st1 st2 st3">S</tspan></text>
	<rect x="21.7" y="0.1" class="st1" width="33.5" height="15.3"/>
	<g>
		<path class="st0" d="M55.3,15.5H21.6V0h33.7V15.5z M21.7,15.3h33.4V0.1H21.7V15.3z"/>
		<path class="st4" d="M28,3.7c-0.6,0-1,0.4-1,1v5.9c0,0.5,0.4,1,1,1h22c0.5,0,1-0.4,1-1V4.7c0-0.6-0.4-1-1-1H28z"/>
		<path class="st5" d="M48.5,6.8L50,8.6c0,0,0.2,0.2,0.2-0.1V7.9c0-0.2,0-0.4,0-0.6c0-0.2-0.2-0.5-0.3-0.7c-0.1-0.2-0.3-0.4-0.5-0.6
			c0,0-0.2-0.1-0.4,0.2C48.7,6.5,48.5,6.8,48.5,6.8"/>
		<path class="st6" d="M46.8,8.5c0-0.1,0.1-0.1,0.1-0.2c0.1-0.1,0.2-0.3,0.4-0.4c0.2-0.2,0.3-0.4,0.5-0.6C48,7.2,48.1,7,48.3,6.8
			c0.2-0.2,0.4-0.4,0.5-0.6c0.1-0.1,0.3-0.4,0.5-0.3c0.1,0,0.3,0.3,0.3,0.3c0,0-0.2-0.2-0.3-0.3c-0.1-0.1-0.5-0.6-0.7-0.8
			c0,0-0.1-0.1-0.1-0.1c0,0-0.2-0.3-0.5,0c-0.3,0.3-1,1.2-1,1.2s-0.5,0.7-0.5,0.9c0,0.2,0,0.4,0,0.6c0,0.2,0,0.4,0,0.6
			C46.6,8.5,46.7,8.7,46.8,8.5"/>
		<path class="st7" d="M31.9,10.9c-1.7,0-3.8-0.2-4.8-0.7l0,1.1l23.8,0l0-0.4C50.3,10.9,33.9,10.9,31.9,10.9"/>
		<path class="st8" d="M34.9,10.1c0,0-5.1,0.1-7.7-4.5l0,4.1c0.6,0.5,2.3,0.8,4.8,0.8c2,0,18.8,0,19,0l0-0.4H34.9z"/>
	</g>
	<path class="st1" d="M38.6,6.5L38.6,6.5l-0.2,0.7h0.4L38.6,6.5z M38.4,6.1h0.5l0.6,1.8H39l-0.1-0.4h-0.6l-0.1,0.4h-0.4L38.4,6.1z"
		/>
	<g>
		<path class="st1" d="M40.7,7.9h-0.4V7.7h0c-0.1,0.2-0.2,0.3-0.4,0.3c-0.3,0-0.4-0.3-0.4-0.5V6.6h0.4v0.6c0,0.2,0.1,0.3,0.2,0.3
			c0.2,0,0.2-0.1,0.2-0.4V6.6h0.4V7.9z"/>
		<path class="st1" d="M41.7,6.9c0,0-0.1,0-0.1,0c-0.2,0-0.3,0.2-0.3,0.4v0.6h-0.4V6.6h0.4v0.2h0c0.1-0.2,0.2-0.3,0.3-0.3
			c0,0,0.1,0,0.1,0L41.7,6.9z"/>
		<path class="st1" d="M42.6,6.9c0,0-0.1,0-0.1,0c-0.2,0-0.3,0.2-0.3,0.4v0.6h-0.4V6.6h0.4v0.2h0c0.1-0.2,0.2-0.3,0.3-0.3
			c0,0,0.1,0,0.1,0L42.6,6.9z"/>
		<path class="st1" d="M43.4,7.1c0-0.2-0.1-0.3-0.2-0.3C43,6.8,43,7,43,7.1H43.4z M43,7.4c0,0.2,0.1,0.3,0.3,0.3
			c0.1,0,0.2,0,0.3-0.1v0.3c-0.1,0.1-0.3,0.1-0.4,0.1c-0.4,0-0.7-0.3-0.7-0.7c0-0.4,0.3-0.7,0.6-0.7c0.4,0,0.6,0.3,0.6,0.7v0.1H43z"
			/>
		<path class="st1" d="M44.7,6.9c0,0-0.1,0-0.1,0c-0.2,0-0.3,0.2-0.3,0.4v0.6h-0.4V6.6h0.4v0.2h0c0.1-0.2,0.2-0.3,0.3-0.3
			c0,0,0.1,0,0.1,0L44.7,6.9z"/>
		<path class="st1" d="M45.3,7.6c0.1,0,0.2-0.2,0.2-0.3c-0.1,0-0.1,0-0.2,0c-0.1,0-0.2,0-0.2,0.2C45.1,7.6,45.2,7.6,45.3,7.6
			 M45.5,7.9c0-0.1,0-0.1,0-0.2h0c-0.1,0.2-0.2,0.2-0.4,0.2c-0.2,0-0.4-0.1-0.4-0.4c0-0.4,0.4-0.5,0.6-0.5c0.1,0,0.1,0,0.2,0
			c0-0.2-0.1-0.2-0.3-0.2c-0.1,0-0.2,0-0.4,0.1l0-0.3c0.1-0.1,0.3-0.1,0.4-0.1c0.3,0,0.5,0.1,0.5,0.5v0.5c0,0.1,0,0.2,0,0.3H45.5z"
			/>
		<path class="st1" d="M31.6,6.8c0.1,0,0.2,0,0.2-0.1c0.1,0,0.1-0.1,0.1-0.3c0-0.1,0-0.2-0.1-0.2c-0.1,0-0.1,0-0.2,0h-0.2v0.6H31.6z
			 M31.6,7.7c0.1,0,0.2,0,0.3-0.1C31.9,7.6,32,7.5,32,7.4c0-0.2-0.1-0.2-0.1-0.3c-0.1,0-0.2-0.1-0.3-0.1h-0.1v0.7H31.6z M31.2,7.9
			V6.1v0h0.4c0.1,0,0.3,0,0.3,0.1c0.1,0.1,0.2,0.2,0.2,0.4c0,0.2-0.1,0.3-0.2,0.4c0.2,0.1,0.3,0.2,0.3,0.4c0,0.2-0.1,0.3-0.2,0.4
			c-0.1,0.1-0.3,0.1-0.4,0.1H31.2z"/>
		<path class="st1" d="M32.8,7.7c0.1,0,0.2-0.1,0.2-0.2c0.1-0.1,0.1-0.2,0.1-0.4c0-0.1,0-0.3-0.1-0.4c-0.1-0.1-0.1-0.1-0.2-0.1
			c-0.1,0-0.2,0.1-0.2,0.1c-0.1,0.1-0.1,0.2-0.1,0.4c0,0.1,0,0.3,0.1,0.4C32.6,7.7,32.7,7.7,32.8,7.7 M32.8,6.5
			c0.2,0,0.3,0.1,0.4,0.2c0.1,0.1,0.1,0.3,0.1,0.5c0,0.2,0,0.4-0.1,0.5c-0.1,0.1-0.2,0.2-0.4,0.2h0c-0.2,0-0.3-0.1-0.4-0.2
			c-0.1-0.1-0.1-0.3-0.1-0.5c0-0.2,0-0.4,0.1-0.5C32.5,6.6,32.6,6.5,32.8,6.5"/>
		<path class="st1" d="M33.9,7.7c0.1,0,0.2-0.1,0.2-0.2c0-0.1,0.1-0.2,0.1-0.4c0-0.1,0-0.3-0.1-0.4c0-0.1-0.1-0.2-0.2-0.2
			c-0.1,0-0.2,0.1-0.2,0.2c0,0.1-0.1,0.2-0.1,0.4c0,0.1,0,0.3,0.1,0.4C33.8,7.7,33.8,7.7,33.9,7.7 M33.9,7.9c-0.2,0-0.3-0.1-0.4-0.2
			c-0.1-0.1-0.1-0.3-0.1-0.5c0-0.2,0-0.4,0.1-0.5c0.1-0.1,0.2-0.2,0.4-0.2c0.1,0,0.2,0.1,0.3,0.1c0,0,0,0,0.1,0.1V5.9h0.2v2v0
			l-0.2,0V7.8C34.2,7.9,34.1,7.9,33.9,7.9L33.9,7.9z"/>
		<path class="st1" d="M35.3,7.1c0-0.1,0-0.2-0.1-0.3c0-0.1-0.1-0.1-0.2-0.1c-0.1,0-0.2,0.1-0.2,0.1c0,0.1-0.1,0.2-0.1,0.3H35.3z
			 M34.7,7.7c-0.1-0.1-0.1-0.3-0.1-0.5c0-0.2,0-0.4,0.1-0.5c0.1-0.1,0.2-0.2,0.4-0.2c0.2,0,0.3,0.1,0.4,0.2c0.1,0.1,0.1,0.3,0.1,0.5
			v0.1h-0.8c0,0.1,0,0.2,0.1,0.3c0.1,0.1,0.1,0.1,0.2,0.1c0.1,0,0.2-0.1,0.3-0.1l0,0v0.2v0l0,0c-0.1,0-0.2,0.1-0.3,0.1h0
			C34.9,7.9,34.8,7.9,34.7,7.7"/>
		<path class="st1" d="M36.1,7.7c0.1,0,0.2-0.1,0.2-0.2c0.1-0.1,0.1-0.2,0.1-0.3c0-0.2,0-0.3-0.1-0.4c0-0.1-0.1-0.1-0.2-0.1
			c-0.1,0-0.2,0.1-0.2,0.2c0,0.1-0.1,0.2-0.1,0.4c0,0.1,0,0.3,0.1,0.3C35.9,7.7,36,7.7,36.1,7.7 M36.1,8.5c-0.1,0-0.3-0.1-0.3-0.1
			l0,0l0-0.2l0,0c0.1,0,0.2,0.1,0.3,0.1c0.2,0,0.2-0.1,0.3-0.2c0-0.1,0.1-0.2,0.1-0.4c-0.1,0.1-0.2,0.2-0.3,0.2
			c-0.2,0-0.3-0.1-0.4-0.2c-0.1-0.1-0.1-0.3-0.1-0.4c0-0.2,0-0.4,0.1-0.5c0.1-0.1,0.2-0.2,0.4-0.2c0.1,0,0.2,0,0.3,0.1V6.5l0.2,0
			v1.2c0,0.2,0,0.4-0.1,0.5C36.4,8.4,36.3,8.5,36.1,8.5L36.1,8.5z"/>
		<path class="st1" d="M37.1,7.3c-0.1,0-0.2,0.1-0.2,0.2c0,0.1,0,0.1,0.1,0.2c0,0,0.1,0,0.1,0c0.1,0,0.2-0.1,0.3-0.2
			c0-0.1,0-0.2,0-0.3V7.2h0h0C37.3,7.2,37.2,7.3,37.1,7.3 M36.8,7.8c-0.1-0.1-0.1-0.2-0.1-0.2c0-0.2,0.1-0.4,0.2-0.4
			c0.1-0.1,0.3-0.1,0.5-0.1v0c0-0.1,0-0.2-0.1-0.2c0-0.1-0.1-0.1-0.2-0.1c-0.1,0-0.2,0-0.3,0.1l0,0V6.6l0,0c0.1-0.1,0.2-0.1,0.3-0.1
			c0.1,0,0.2,0,0.3,0.1c0.1,0.1,0.1,0.2,0.1,0.4v0.6c0,0.1,0,0.2,0,0.3l0,0l-0.2,0V7.8c-0.1,0.1-0.2,0.2-0.3,0.2h0
			C37,7.9,36.9,7.9,36.8,7.8"/>
	</g>
	<polygon class="st1" points="33.6,8.8 33.7,8.8 33.7,9.3 33.9,9.3 33.9,9.4 33.6,9.4 	"/>
	<g>
		<path class="st1" d="M34.2,9.2c-0.1,0-0.1,0-0.1,0.1c0,0,0,0,0.1,0C34.2,9.3,34.2,9.3,34.2,9.2C34.2,9.2,34.2,9.2,34.2,9.2
			L34.2,9.2z M34.3,9.3C34.3,9.3,34.3,9.4,34.3,9.3l-0.1,0.1l0,0h0c0,0-0.1,0.1-0.1,0.1C34,9.4,34,9.3,34,9.3c0-0.1,0.1-0.2,0.2-0.2
			v0c0,0,0-0.1-0.1-0.1c0,0-0.1,0-0.1,0L34,9c0,0,0.1,0,0.2,0c0.1,0,0.2,0.1,0.2,0.2V9.3z"/>
		<path class="st1" d="M34.9,9.4c0,0-0.1,0-0.1,0c-0.1,0-0.2-0.1-0.2-0.2c0-0.1,0.1-0.2,0.2-0.2c0,0,0.1,0,0.1,0l0,0.1
			c0,0,0,0-0.1,0c-0.1,0-0.1,0-0.1,0.1C34.7,9.2,34.8,9.3,34.9,9.4C34.9,9.3,34.9,9.3,34.9,9.4L34.9,9.4z"/>
		<path class="st1" d="M35.2,9.2c-0.1,0-0.1,0-0.1,0.1c0,0,0,0,0,0C35.2,9.3,35.2,9.3,35.2,9.2C35.2,9.2,35.2,9.2,35.2,9.2L35.2,9.2
			z M35.3,9.3C35.3,9.3,35.3,9.4,35.3,9.3l-0.1,0.1l0,0h0c0,0-0.1,0.1-0.1,0.1C35,9.4,35,9.3,35,9.3c0-0.1,0.1-0.2,0.2-0.2v0
			c0,0,0-0.1-0.1-0.1c0,0-0.1,0-0.1,0L35,9c0,0,0.1,0,0.2,0c0.1,0,0.2,0.1,0.2,0.2V9.3z"/>
		<path class="st1" d="M35.4,9.1c0-0.1,0-0.1,0-0.1h0.1l0,0.1h0c0,0,0.1-0.1,0.1-0.1c0.1,0,0.1,0,0.1,0.1h0c0,0,0,0,0.1,0
			c0,0,0,0,0.1,0C36,9,36,9,36,9.1v0.2h-0.1V9.2c0-0.1,0-0.1-0.1-0.1c0,0,0,0-0.1,0c0,0,0,0,0,0v0.2h-0.1V9.1c0-0.1,0-0.1-0.1-0.1
			c0,0-0.1,0-0.1,0c0,0,0,0,0,0v0.2h-0.1V9.1z"/>
		<path class="st1" d="M36.3,9.2C36.3,9.2,36.3,9.2,36.3,9.2C36.3,9.3,36.3,9.3,36.3,9.2c0.1,0.1,0.2,0,0.2,0c0-0.1,0-0.1-0.1-0.1
			C36.3,9.1,36.3,9.1,36.3,9.2C36.3,9.1,36.3,9.1,36.3,9.2L36.3,9.2z M36.1,9.1c0-0.1,0-0.1,0-0.1h0.1l0,0.1h0c0,0,0.1-0.1,0.1-0.1
			c0.1,0,0.2,0.1,0.2,0.2c0,0.1-0.1,0.2-0.2,0.2c0,0-0.1,0-0.1,0h0v0.2h-0.1V9.1z"/>
		<path class="st1" d="M36.9,9.1C36.9,9.1,36.9,9,36.9,9.1c-0.1-0.1-0.1,0-0.1,0H36.9z M36.7,9.2c0,0.1,0.1,0.1,0.1,0.1
			c0,0,0.1,0,0.1,0l0,0.1c0,0-0.1,0-0.1,0c-0.1,0-0.2-0.1-0.2-0.2c0-0.1,0.1-0.2,0.2-0.2C37,9,37,9.1,37,9.2c0,0,0,0,0,0H36.7z"/>
		<path class="st1" d="M37.3,9.3c0.1,0,0.1,0,0.1-0.1c0-0.1,0-0.1-0.1-0.1c-0.1,0-0.1,0.1-0.1,0.1C37.2,9.2,37.2,9.3,37.3,9.3
			 M37.3,9.4c-0.1,0-0.2-0.1-0.2-0.2C37.1,9,37.1,9,37.3,9c0.1,0,0.2,0.1,0.2,0.2C37.5,9.3,37.4,9.4,37.3,9.4"/>
		<path class="st1" d="M37.6,9.1c0-0.1,0-0.1,0-0.1h0.1l0,0.1h0c0,0,0.1-0.1,0.1-0.1c0.1,0,0.1,0.1,0.1,0.2v0.2h-0.1V9.2
			c0-0.1,0-0.1-0.1-0.1c0,0-0.1,0-0.1,0c0,0,0,0,0,0v0.2h-0.1V9.1z"/>
		<path class="st1" d="M38.3,9.2c-0.1,0-0.1,0-0.1,0.1c0,0,0,0,0,0C38.2,9.3,38.2,9.3,38.3,9.2C38.3,9.2,38.3,9.2,38.3,9.2L38.3,9.2
			z M38.4,9.3C38.4,9.3,38.4,9.4,38.4,9.3l-0.1,0.1l0,0h0c0,0-0.1,0.1-0.1,0.1c-0.1,0-0.1-0.1-0.1-0.1c0-0.1,0.1-0.2,0.2-0.2v0
			c0,0,0-0.1-0.1-0.1c0,0-0.1,0-0.1,0L38,9c0,0,0.1,0,0.2,0c0.1,0,0.2,0.1,0.2,0.2V9.3z"/>
		<path class="st1" d="M38.9,9.1C38.9,9.1,38.9,9.1,38.9,9.1C38.9,9.1,38.9,9.1,38.9,9.1c-0.1-0.1-0.2,0-0.2,0c0,0.1,0,0.1,0.1,0.1
			C38.9,9.3,38.9,9.3,38.9,9.1C38.9,9.2,38.9,9.2,38.9,9.1L38.9,9.1z M39,8.8v0.5c0,0,0,0.1,0,0.1h-0.1l0-0.1h0c0,0-0.1,0.1-0.1,0.1
			c-0.1,0-0.2-0.1-0.2-0.2C38.6,9,38.7,9,38.8,9c0,0,0.1,0,0.1,0h0V8.8H39z"/>
		<path class="st1" d="M39.4,9.1C39.4,9.1,39.4,9,39.4,9.1c-0.1-0.1-0.1,0-0.1,0H39.4z M39.2,9.2c0,0.1,0.1,0.1,0.1,0.1
			c0,0,0.1,0,0.1,0l0,0.1c0,0-0.1,0-0.1,0c-0.1,0-0.2-0.1-0.2-0.2c0-0.1,0.1-0.2,0.2-0.2c0.1,0,0.2,0.1,0.2,0.2c0,0,0,0,0,0H39.2z"
			/>
		<path class="st1" d="M28,3.9c-0.5,0-0.9,0.4-0.9,0.9v5.9c0,0.5,0.4,0.9,0.9,0.9h22c0.5,0,0.9-0.4,0.9-0.9V4.8
			c0-0.5-0.4-0.9-0.9-0.9H28z M50,11.8H28c-0.6,0-1.1-0.5-1.1-1.1V4.8c0-0.6,0.5-1.1,1.1-1.1h22c0.6,0,1.1,0.5,1.1,1.1v5.9
			C51.2,11.3,50.7,11.8,50,11.8"/>
		<path class="st9" d="M50,5.1L50,5.1C50,5.1,50.1,5,50,5.1C50.1,5,50.1,5,50,5.1C50,5,50,5,50,5.1L50,5.1z M50,5.1L50,5.1L50,5
			c0,0,0,0,0.1,0c0,0,0,0,0,0c0,0,0,0,0,0C50.1,5,50.1,5.1,50,5.1C50.1,5.1,50.1,5.1,50,5.1C50.1,5.1,50.1,5.1,50,5.1L50,5.1
			C50.1,5.1,50.1,5.1,50,5.1C50.1,5.1,50,5.1,50,5.1L50,5.1L50,5.1z M49.9,5.1c0,0.1,0,0.1,0.1,0.1c0.1,0,0.1-0.1,0.1-0.1
			c0-0.1,0-0.1-0.1-0.1C50,4.9,49.9,5,49.9,5.1 M50.2,5.1c0,0.1-0.1,0.1-0.1,0.1c-0.1,0-0.1-0.1-0.1-0.1C49.9,5,50,4.9,50,4.9
			C50.1,4.9,50.2,5,50.2,5.1"/>
	</g>
	<rect x="39.9" y="8.8" class="st1" width="0.1" height="0.6"/>
	<g>
		<path class="st1" d="M40.3,9.3c0,0,0.1,0,0.1-0.1c0-0.1,0-0.1-0.1-0.1c-0.1,0-0.1,0.1-0.1,0.1C40.2,9.2,40.2,9.3,40.3,9.3
			L40.3,9.3z M40.3,9.4c-0.1,0-0.2-0.1-0.2-0.2C40.1,9,40.1,9,40.3,9c0.1,0,0.2,0.1,0.2,0.2C40.5,9.3,40.4,9.4,40.3,9.4L40.3,9.4z"
			/>
		<path class="st1" d="M40.6,9.3c0,0,0.1,0,0.1,0c0,0,0.1,0,0.1,0c0,0,0,0-0.1,0c-0.1,0-0.1-0.1-0.1-0.1C40.5,9,40.6,9,40.7,9
			c0,0,0.1,0,0.1,0l0,0.1c0,0-0.1,0-0.1,0c0,0,0,0,0,0c0,0,0,0,0.1,0c0.1,0,0.1,0.1,0.1,0.1c0,0.1-0.1,0.1-0.2,0.1
			C40.6,9.4,40.6,9.4,40.6,9.3L40.6,9.3z"/>
		<path class="st1" d="M41.2,9.2C41.2,9.2,41.2,9.2,41.2,9.2C41.2,9.3,41.3,9.3,41.2,9.2c0.1,0.1,0.2,0,0.2,0c0-0.1,0-0.1-0.1-0.1
			C41.3,9.1,41.2,9.1,41.2,9.2C41.2,9.1,41.2,9.1,41.2,9.2L41.2,9.2z M41.1,9.1c0-0.1,0-0.1,0-0.1h0.1l0,0.1h0c0,0,0.1-0.1,0.1-0.1
			c0.1,0,0.2,0.1,0.2,0.2c0,0.1-0.1,0.2-0.2,0.2c0,0-0.1,0-0.1,0h0v0.2h-0.1V9.1z"/>
		<path class="st1" d="M41.6,9.1c0-0.1,0-0.1,0-0.1h0.1l0,0.1h0C41.7,9,41.8,9,41.8,9c0,0,0,0,0,0v0.1c0,0,0,0,0,0
			c0,0-0.1,0-0.1,0.1c0,0,0,0,0,0v0.2h-0.1L41.6,9.1z"/>
		<path class="st1" d="M42.1,9.1C42.1,9.1,42.1,9,42.1,9.1C42,9,42,9.1,42,9.1H42.1z M42,9.2c0,0.1,0.1,0.1,0.1,0.1c0,0,0.1,0,0.1,0
			l0,0.1c0,0-0.1,0-0.1,0c-0.1,0-0.2-0.1-0.2-0.2c0-0.1,0.1-0.2,0.2-0.2c0.1,0,0.2,0.1,0.2,0.2c0,0,0,0,0,0.1L42,9.2z"/>
		<path class="st1" d="M42.6,9.4c0,0-0.1,0-0.1,0c-0.1,0-0.2-0.1-0.2-0.2c0-0.1,0.1-0.2,0.2-0.2c0,0,0.1,0,0.1,0l0,0.1
			c0,0,0,0-0.1,0c-0.1,0-0.1,0-0.1,0.1C42.4,9.2,42.5,9.3,42.6,9.4C42.6,9.3,42.6,9.3,42.6,9.4L42.6,9.4z"/>
		<path class="st1" d="M42.7,9h0.1v0.4h-0.1V9z M42.8,8.9C42.7,8.9,42.7,8.9,42.8,8.9c-0.1-0.1,0-0.1,0-0.1
			C42.8,8.8,42.8,8.8,42.8,8.9C42.8,8.9,42.8,8.9,42.8,8.9L42.8,8.9z"/>
		<path class="st1" d="M43.1,9.3c0,0,0.1,0,0.1-0.1c0-0.1,0-0.1-0.1-0.1c-0.1,0-0.1,0.1-0.1,0.1C43,9.2,43.1,9.3,43.1,9.3L43.1,9.3z
			 M43.1,9.4c-0.1,0-0.2-0.1-0.2-0.2C42.9,9,43,9,43.1,9c0.1,0,0.2,0.1,0.2,0.2C43.3,9.3,43.2,9.4,43.1,9.4L43.1,9.4z"/>
		<path class="st1" d="M43.4,9.3c0,0,0.1,0,0.1,0c0,0,0.1,0,0.1,0c0,0,0,0-0.1,0c-0.1,0-0.1-0.1-0.1-0.1C43.4,9,43.5,9,43.6,9
			c0,0,0.1,0,0.1,0l0,0.1c0,0-0.1,0-0.1,0c0,0,0,0,0,0c0,0,0,0,0.1,0c0.1,0,0.1,0.1,0.1,0.1c0,0.1-0.1,0.1-0.2,0.1
			C43.5,9.4,43.4,9.4,43.4,9.3L43.4,9.3z"/>
		<path class="st1" d="M44.1,9.2C44.1,9.2,44.1,9.2,44.1,9.2C44.1,9.3,44.1,9.3,44.1,9.2c0.1,0.1,0.2,0,0.2,0c0-0.1,0-0.1-0.1-0.1
			C44.1,9.1,44.1,9.1,44.1,9.2C44.1,9.1,44.1,9.1,44.1,9.2L44.1,9.2z M43.9,8.8h0.1V9h0c0,0,0.1-0.1,0.1-0.1c0.1,0,0.2,0.1,0.2,0.2
			c0,0.1-0.1,0.2-0.2,0.2c0,0-0.1,0-0.1-0.1h0l0,0.1h-0.1c0,0,0-0.1,0-0.1V8.8z"/>
		<path class="st1" d="M44.7,9.2c-0.1,0-0.1,0-0.1,0.1c0,0,0,0,0,0C44.6,9.3,44.6,9.3,44.7,9.2C44.7,9.2,44.7,9.2,44.7,9.2L44.7,9.2
			z M44.8,9.3C44.8,9.3,44.8,9.4,44.8,9.3l-0.1,0.1l0,0h0c0,0-0.1,0-0.1,0c-0.1,0-0.1-0.1-0.1-0.1c0-0.1,0.1-0.2,0.2-0.2v0
			c0,0,0-0.1-0.1-0.1c0,0-0.1,0-0.1,0l0-0.1c0,0,0.1,0,0.2,0c0.1,0,0.2,0.1,0.2,0.2V9.3z"/>
		<path class="st1" d="M45,8.9C44.9,8.9,44.9,8.9,45,8.9c-0.1-0.1,0-0.1,0-0.1C45,8.8,45,8.8,45,8.9C45,8.9,45,8.9,45,8.9L45,8.9z
			 M44.8,9.5C44.8,9.5,44.8,9.4,44.8,9.5c0.1,0,0.1-0.1,0.1-0.2V9H45v0.4c0,0.1,0,0.1-0.1,0.2C44.9,9.5,44.9,9.6,44.8,9.5L44.8,9.5z
			"/>
		<path class="st1" d="M45.3,9.3c0,0,0.1,0,0.1-0.1c0-0.1,0-0.1-0.1-0.1c-0.1,0-0.1,0.1-0.1,0.1C45.2,9.2,45.3,9.3,45.3,9.3
			L45.3,9.3z M45.3,9.4c-0.1,0-0.2-0.1-0.2-0.2C45.1,9,45.2,9,45.3,9c0.1,0,0.2,0.1,0.2,0.2C45.5,9.3,45.4,9.4,45.3,9.4L45.3,9.4z"
			/>
		<path class="st1" d="M45.6,9.3c0,0,0.1,0,0.1,0c0,0,0.1,0,0.1,0c0,0,0,0-0.1,0c-0.1,0-0.1-0.1-0.1-0.1C45.6,9,45.6,9,45.7,9
			c0,0,0.1,0,0.1,0l0,0.1c0,0-0.1,0-0.1,0c0,0,0,0,0,0c0,0,0,0,0.1,0c0.1,0,0.1,0.1,0.1,0.1c0,0.1-0.1,0.1-0.2,0.1
			C45.6,9.4,45.6,9.4,45.6,9.3L45.6,9.3z"/>
	</g>
</g>
</svg>
