<svg xmlns="http://www.w3.org/2000/svg" viewBox="0 0 5.12 5.12"><defs><style>.cls-1{fill:#007ac2;}.cls-2{fill:#ff8300;}.cls-3{fill:#fff;}</style></defs><g id="Layer_2" data-name="Layer 2"><g id="Layer_1-2" data-name="Layer 1"><circle class="cls-1" cx="2.56" cy="2.56" r="2.56"/><path class="cls-2" d="M2.55,2.22A.47.47,0,0,0,2,1.58c-.41.06-.68.26-.66.52a.13.13,0,0,0,0,.06,1.3,1.3,0,0,1,.41-.07.91.91,0,0,1,.58.21.33.33,0,0,1,.19-.08"/><path class="cls-2" d="M3.19,1.58a.48.48,0,0,0-.54.64.4.4,0,0,1,.2.08.87.87,0,0,1,.58-.21,1.3,1.3,0,0,1,.41.07s0,0,0-.06c0-.26-.25-.46-.66-.52"/><path class="cls-2" d="M3.49,2.17a.89.89,0,0,0-.6.21,0,0,0,0,1,0,0,.12.12,0,0,1,0,.09c.31.08.54.29.54.54a.32.32,0,0,1,0,.14h.13c.42,0,.75-.23.75-.51s-.33-.51-.75-.51"/><path class="cls-2" d="M2.77,2.56a.39.39,0,0,1-.17,0,.47.47,0,0,1-.17,0c-.3.06-.52.25-.52.49s.31.5.69.5.7-.23.7-.5-.22-.43-.53-.49"/><path class="cls-2" d="M2.31,2.38a.85.85,0,0,0-.6-.21c-.41,0-.75.23-.75.51s.34.51.75.51h.14a.32.32,0,0,1,0-.14.62.62,0,0,1,.53-.54.15.15,0,0,1,0-.09v0"/><path class="cls-3" d="M2.81,2.41c0,.07-.09.13-.21.13s-.2-.06-.2-.13.09-.13.2-.13.21.05.21.13"/></g></g></svg>