<svg xmlns="http://www.w3.org/2000/svg" viewBox="0 0 11.81 14.1"><defs><style>.cls-1{fill:#fdb71a;}</style></defs><g id="Layer_2" data-name="Layer 2"><g id="Layer_1-2" data-name="Layer 1"><path class="cls-1" d="M5.82,2.18A.23.23,0,0,0,6.05,2V.23a.23.23,0,1,0-.45,0V2A.22.22,0,0,0,5.82,2.18Z"/><path class="cls-1" d="M9,5.51c0-.89-1.64-1.36-3.19-1.36s-3.19.47-3.19,1.36V8.29a2.91,2.91,0,1,0,2.9,4.11c1.65,0,2.74-.25,3.24-.75a.76.76,0,0,0,.24-.5V5.51ZM5.84,4.6c1.7,0,2.74.53,2.74.91s-1,.92-2.74.92S3.1,5.89,3.1,5.51,4.14,4.6,5.84,4.6ZM2.91,13.65a2.46,2.46,0,1,1,2.45-2.46A2.46,2.46,0,0,1,2.91,13.65ZM5.46,9.81a2.84,2.84,0,0,0-.58-.75,6.71,6.71,0,0,0,2.64-.15.22.22,0,1,0-.09-.44,5.34,5.34,0,0,1-3.51-.16c-.42-.17-.63-.31-.71-.48a1.15,1.15,0,0,1-.1-.5l.1,0a.23.23,0,0,0,.29-.14A.21.21,0,0,0,3.37,7c-.17-.06-.24-.38-.25-.52a.3.3,0,0,0,0-.1V6.24a6.27,6.27,0,0,0,5.48,0v.07s0,.05,0,.07A.8.8,0,0,1,8.16,7,4.25,4.25,0,0,1,6,7.49a4.92,4.92,0,0,1-1.84-.26.25.25,0,0,0-.3.13A.23.23,0,0,0,4,7.65a5.71,5.71,0,0,0,2,.29,4.52,4.52,0,0,0,2.46-.56l.14-.12v.46c-.06.15-.22.42-.39.46a.23.23,0,0,0,.12.44.87.87,0,0,0,.27-.14v.35a.74.74,0,0,1-.25.43A5.84,5.84,0,0,1,5.46,9.81Zm1.67,1.4a4.46,4.46,0,0,0,1.34-.41l.11-.08v.42c0,.22-.59.78-2.87.81a2.59,2.59,0,0,0,.1-.63,3.77,3.77,0,0,0,.48,0,.21.21,0,0,0,.19-.25.22.22,0,0,0-.25-.19H5.79a2.45,2.45,0,0,0-.13-.61,5.63,5.63,0,0,0,2.91-.62h0V10s0,.19-.34.38a4,4,0,0,1-1.16.34.23.23,0,0,0-.19.26A.22.22,0,0,0,7.13,11.21Z"/><path class="cls-1" d="M3,3.21a.2.2,0,0,0,.14.06.25.25,0,0,0,.18-.08.23.23,0,0,0,0-.32L2,1.76a.23.23,0,0,0-.32,0,.22.22,0,0,0,0,.32Z"/><path class="cls-1" d="M8.53,3.29a.22.22,0,0,0,.15-.06L10,2.13a.22.22,0,1,0-.29-.34L8.39,2.89a.21.21,0,0,0,0,.31A.21.21,0,0,0,8.53,3.29Z"/><path class="cls-1" d="M.23,6.52H2a.23.23,0,0,0,0-.46H.23a.23.23,0,0,0,0,.46Z"/><path class="cls-1" d="M11.59,6.06H9.86a.23.23,0,0,0,0,.46h1.73a.23.23,0,0,0,0-.46Z"/><path class="cls-1" d="M2.94,10.93c-.29,0-.3-.14-.3-.3,0,0,0-.35.27-.35s.29.23.3.26a.22.22,0,0,0,.28.15.21.21,0,0,0,.15-.27.81.81,0,0,0-.49-.55V9.66a.23.23,0,1,0-.45,0v.2a.81.81,0,0,0-.51.77.69.69,0,0,0,.68.74c.25,0,.33.09.34.34a.41.41,0,0,1-.08.29.34.34,0,0,1-.2.09h0a.45.45,0,0,1-.34-.23.21.21,0,0,0-.24-.21.22.22,0,0,0-.21.24.81.81,0,0,0,.56.61v.24a.23.23,0,1,0,.45,0V12.5a.79.79,0,0,0,.31-.2.84.84,0,0,0,.21-.62A.74.74,0,0,0,2.94,10.93Z"/></g></g></svg>