<svg id="Capa_1" data-name="Capa 1" xmlns="http://www.w3.org/2000/svg" viewBox="0 0 63.28 77"><defs><style>.cls-1{fill:#fbb800;}</style></defs><path class="cls-1" d="M54.2,54.4a5.69,5.69,0,0,0,1.24-.91l.38-.39c.38,0,.38-.38.76-.76a22.18,22.18,0,0,0,3.25-4.28l.18,2a33.7,33.7,0,0,1,6.48,2.67A2.53,2.53,0,0,0,69.16,52a39.6,39.6,0,0,0,4.19-17.54C73.35,15.75,60,.5,44,.5,27.61.5,14.65,15.75,14.65,34.42A38.4,38.4,0,0,0,18.84,52a2.19,2.19,0,0,0,2.67.76A33.44,33.44,0,0,1,28,50.05l-1.14-3.81a18.24,18.24,0,0,0-4.2,1.53l-1.52.38-.76-1.53a37.3,37.3,0,0,1-2.67-13c0-16.39,11.43-30.11,25.54-30.11S68.78,16.89,68.78,33.66a30.45,30.45,0,0,1-2.67,13l-.76,1.53-1.53-.76a24.22,24.22,0,0,1-3-1.14,44.79,44.79,0,0,0,3.76-11.44c0-1.15.39-2.67.39-4.2a1.37,1.37,0,0,0-.39-1.14c-.38,0-.76-.38-1.14-.38h-16l-.38-5.34a2.52,2.52,0,0,0-1.91-1.52,1.74,1.74,0,0,0-1.9,1.52l-.38,5.34H40.57L39,18c-.38-.76-.76-1.52-1.9-1.52A1.74,1.74,0,0,0,35.23,18L33.71,29.09H24.18a1.43,1.43,0,0,0-1.15.38,1.4,1.4,0,0,0-.38,1.14,15.73,15.73,0,0,0,.38,4.2C25,43.69,28.39,50.3,33,54.27c-11.85,2-20.6,11.71-20.6,23.23h4.19c0-11.44,10.68-19.44,21-19.44v-.89a16.25,16.25,0,0,0,4.57,1.27h4.2a1.4,1.4,0,0,1,1.14-.38h.76a1.33,1.33,0,0,1,.77-.38h.38c.38,0,.76-.38,1.14-.38l.38-.38v1.52c9.91,0,20.59,6.86,20.59,19.06h4.19C75.64,65.61,66.33,55.67,54.2,54.4Zm-4.1-.91a2.92,2.92,0,0,1-1.14.76,3,3,0,0,0-1.15.38c0,.38-.38.38-.76.38H45.52a5.09,5.09,0,0,0-1.9.38H42.09A12.29,12.29,0,0,1,37.52,54v-.11h-.19C32.09,51,28.16,44.22,26.08,34.43a2.89,2.89,0,0,1-.38-1.91h9.15A1.74,1.74,0,0,0,36.76,31a2.52,2.52,0,0,0,1.9,1.53H61.15c0,.76-.38,1.14-.38,1.91-1.52,6.86-3.81,12.19-7.24,16l-.76.76-.38.38c-.38.38-.38.76-1.15,1.14C50.86,52.72,50.86,53.1,50.1,53.49Z" transform="translate(-12.36 -0.5)"/><path class="cls-1" d="M36.76,34.43a1.91,1.91,0,1,0,1.9,1.9A2,2,0,0,0,36.76,34.43Z" transform="translate(-12.36 -0.5)"/><path class="cls-1" d="M53.15,36.33c.38-.76-.76-1.9-1.91-1.9a1.91,1.91,0,1,0,1.91,1.9Z" transform="translate(-12.36 -0.5)"/></svg>