<?xml version="1.0" encoding="utf-8"?>
<!-- Generator: Adobe Illustrator 25.4.1, SVG Export Plug-In . SVG Version: 6.00 Build 0)  -->
<svg version="1.1" id="Capa_1" xmlns="http://www.w3.org/2000/svg" xmlns:xlink="http://www.w3.org/1999/xlink" x="0px" y="0px"
	 viewBox="0 0 626 174.3" style="enable-background:new 0 0 626 174.3;" xml:space="preserve">
<style type="text/css">
	.st0{fill:#4A5B6D;}
	.st1{fill:#007DC3;}
	.st2{fill:#FFFFFF;}
	.st3{fill:#FDB71A;}
</style>
<g>
	<path class="st0" d="M3.1,124.8c0-0.1,0.1-0.2,0.2-0.2h3.3c1.6,0,3,1.2,3,2.8c0,1.3-0.9,2.5-2.2,2.8l1.9,3.4c0.1,0.1,0,0.2-0.1,0.2
		H8.8c-0.2,0-0.2,0-0.3-0.2l-1.9-3.4c-0.2,0-0.3,0-0.5,0H3.7v3.4c0,0.1-0.1,0.2-0.2,0.2H3.3c-0.1,0-0.2-0.1-0.2-0.2V124.8z
		 M6.5,129.7c1.3,0,2.4-1,2.4-2.3c0-1.3-1.1-2.2-2.4-2.2H3.7v4.5H6.5z M13.8,127.6c1.6,0,2.7,1.2,2.7,2.8c0,0.2,0,0.6-0.2,0.6h-4.9
		c0,1.4,1.1,2.5,2.4,2.5c0.9,0,1.5-0.4,1.9-0.6c0.1-0.1,0.2-0.1,0.3,0l0.1,0.2c0.1,0.1,0,0.2-0.1,0.2c-0.4,0.3-1.3,0.7-2.2,0.7
		c-1.8,0-3-1.4-3-3.2C10.8,129.1,12,127.6,13.8,127.6z M15.9,130.5c0-1.2-0.8-2.3-2.2-2.3c-1.3,0-2.3,1-2.4,2.3H15.9z M18.8,136.8
		c0,0.1-0.1,0.2-0.2,0.2h-0.2c-0.1,0-0.2-0.1-0.2-0.2v-8.9c0-0.1,0.1-0.2,0.2-0.2c0.2,0,0.4,0.2,0.4,0.6c0.2-0.2,1-0.7,2-0.7
		c1.7,0,2.9,1.4,2.9,3.2c0,1.8-1.3,3.2-3.1,3.2c-1,0-1.7-0.5-1.9-0.6V136.8z M18.8,132.7c0.1,0.1,0.8,0.7,1.8,0.7
		c1.5,0,2.5-1.2,2.5-2.7c0-1.4-0.9-2.6-2.4-2.6c-1.2,0-1.9,0.7-2,0.8V132.7z M28.2,127.6c1.7,0,3.1,1.4,3.1,3.2
		c0,1.8-1.4,3.2-3.1,3.2c-1.8,0-3.1-1.4-3.1-3.2C25.1,129.1,26.5,127.6,28.2,127.6z M28.2,133.5c1.4,0,2.5-1.2,2.5-2.7
		c0-1.4-1.1-2.6-2.5-2.6c-1.4,0-2.5,1.2-2.5,2.6C25.7,132.3,26.8,133.5,28.2,133.5z M33.1,127.9c0-0.1,0.1-0.2,0.2-0.2
		c0.2,0,0.4,0.3,0.4,0.7v0.1c0.2-0.2,0.8-0.9,1.9-0.9c0.5,0,0.8,0.1,1,0.2c0.1,0,0.2,0.2,0.2,0.3l-0.1,0.2c0,0.1-0.1,0.1-0.3,0.1
		c-0.1,0-0.4-0.2-0.8-0.2c-1.2,0-1.8,1-1.9,1v4.5c0,0.1-0.1,0.2-0.2,0.2h-0.2c-0.1,0-0.2-0.1-0.2-0.2V127.9z M38.1,126.1
		c0-0.1,0.1-0.2,0.2-0.2l0.2,0c0.1,0,0.2,0.1,0.2,0.2v1.7h2.2c0.1,0,0.2,0.1,0.2,0.2v0.2c0,0.1-0.1,0.2-0.2,0.2h-2.2v3.9
		c0,0.8,0.3,1.2,1,1.2c0.5,0,1-0.3,1.2-0.4c0.1-0.1,0.2,0,0.2,0.1l0.1,0.2c0.1,0.1,0,0.2-0.1,0.2c-0.2,0.2-0.9,0.5-1.5,0.5
		c-1.2,0-1.6-0.8-1.6-1.8V126.1z M42.4,125.5c0-0.3,0.2-0.5,0.5-0.5s0.5,0.2,0.5,0.5c0,0.3-0.2,0.5-0.5,0.5S42.4,125.8,42.4,125.5z
		 M42.6,127.9c0-0.1,0.1-0.2,0.2-0.2H43c0.1,0,0.2,0.1,0.2,0.2v5.7c0,0.1-0.1,0.2-0.2,0.2h-0.2c-0.1,0-0.2-0.1-0.2-0.2V127.9z
		 M45.4,127.9c0-0.1,0.1-0.2,0.2-0.2c0.2,0,0.4,0.3,0.4,0.7v0.2c0.2-0.3,1-0.9,2.1-0.9c1.7,0,2.3,1.1,2.3,2.7v3.4
		c0,0.1-0.1,0.2-0.2,0.2H50c-0.1,0-0.2-0.1-0.2-0.2v-3.4c0-1.4-0.6-2.1-1.8-2.1c-1.2,0-2,1-2.1,1v4.5c0,0.1-0.1,0.2-0.2,0.2h-0.2
		c-0.1,0-0.2-0.1-0.2-0.2V127.9z M54.9,136.8c-1,0-1.8-0.5-2.1-0.8c-0.1-0.1-0.1-0.1,0-0.2l0.1-0.2c0.1-0.1,0.1-0.1,0.3,0
		c0.2,0.2,0.9,0.6,1.7,0.6c1.2,0,2.1-0.7,2.1-2.2v-0.7c-0.2,0.1-0.8,0.6-1.9,0.6c-1.8,0-3.1-1.4-3.1-3.2c0-1.8,1.2-3.2,2.9-3.2
		c1.1,0,1.8,0.5,2,0.7c0-0.4,0.2-0.6,0.4-0.6c0.1,0,0.2,0.1,0.2,0.2v6.1C57.6,135.8,56.4,136.8,54.9,136.8z M57,129
		c-0.1-0.1-0.8-0.8-2-0.8c-1.4,0-2.4,1.2-2.4,2.6c0,1.5,1,2.7,2.5,2.7c1,0,1.8-0.7,1.8-0.7V129z M62.5,128.3c-0.2,0-0.2-0.1-0.2-0.2
		v-0.2c0-0.1,0.1-0.2,0.2-0.2h0.7v-1.7c0-0.1,0.1-0.2,0.2-0.2l0.2,0c0.1,0,0.2,0.1,0.2,0.2v1.7H66c0.1,0,0.2,0.1,0.2,0.2v0.2
		c0,0.1-0.1,0.2-0.2,0.2h-2.2v3.9c0,0.8,0.3,1.2,1,1.2c0.5,0,1-0.3,1.2-0.4c0.1-0.1,0.2,0,0.2,0.1l0.1,0.2c0.1,0.1,0,0.2-0.1,0.2
		c-0.2,0.2-0.9,0.5-1.5,0.5c-1.2,0-1.6-0.8-1.6-1.8v-3.9H62.5z M67.8,124.8c0-0.1,0.1-0.2,0.2-0.2h0.2c0.1,0,0.2,0.1,0.2,0.2v3.8
		c0.2-0.2,0.9-1,2.1-1c1.6,0,2.3,1,2.3,2.7v3.4c0,0.1-0.1,0.2-0.2,0.2h-0.2c-0.1,0-0.2-0.1-0.2-0.2v-3.4c0-1.4-0.6-2.1-1.7-2.1
		c-1.2,0-1.9,0.9-2.1,1.1v4.4c0,0.1-0.1,0.2-0.2,0.2H68c-0.1,0-0.2-0.1-0.2-0.2V124.8z M77.5,127.6c1.6,0,2.7,1.2,2.7,2.8
		c0,0.2,0,0.6-0.2,0.6h-4.9c0,1.4,1.1,2.5,2.4,2.5c0.9,0,1.5-0.4,1.9-0.6c0.1-0.1,0.2-0.1,0.3,0l0.1,0.2c0.1,0.1,0,0.2-0.1,0.2
		c-0.4,0.3-1.3,0.7-2.2,0.7c-1.8,0-3-1.4-3-3.2C74.5,129.1,75.7,127.6,77.5,127.6z M79.7,130.5c0-1.2-0.8-2.3-2.2-2.3
		c-1.3,0-2.3,1-2.4,2.3H79.7z M84.8,133.1l0.1-0.2c0.1-0.1,0.2-0.1,0.3,0c0.2,0.1,0.8,0.6,1.7,0.6c0.9,0,1.5-0.5,1.5-1.1
		c0-0.7-0.7-1-1.8-1.4c-1.1-0.4-1.8-0.8-1.8-1.8c0-0.7,0.6-1.6,2-1.6c0.8,0,1.4,0.3,1.7,0.5c0.1,0.1,0.1,0.2,0.1,0.3l-0.1,0.1
		c-0.1,0.1-0.2,0.1-0.3,0.1c-0.1-0.1-0.8-0.4-1.5-0.4c-1,0-1.4,0.5-1.4,1c0,0.6,0.6,0.9,1.5,1.3c1.1,0.4,2.1,0.8,2.1,1.9
		c0,0.9-0.9,1.6-2.1,1.6c-1,0-1.7-0.4-2-0.7C84.8,133.3,84.7,133.2,84.8,133.1z M90.1,128.3c-0.2,0-0.2-0.1-0.2-0.2v-0.2
		c0-0.1,0.1-0.2,0.2-0.2h0.7v-1.7c0-0.1,0.1-0.2,0.2-0.2l0.2,0c0.1,0,0.2,0.1,0.2,0.2v1.7h2.2c0.1,0,0.2,0.1,0.2,0.2v0.2
		c0,0.1-0.1,0.2-0.2,0.2h-2.2v3.9c0,0.8,0.3,1.2,1,1.2c0.5,0,1-0.3,1.2-0.4c0.1-0.1,0.2,0,0.2,0.1l0.1,0.2c0.1,0.1,0,0.2-0.1,0.2
		c-0.2,0.2-0.9,0.5-1.5,0.5c-1.2,0-1.6-0.8-1.6-1.8v-3.9H90.1z M97.6,129.9c0.7,0,1.4,0.2,1.6,0.3c0-1.2-0.3-2-1.6-2
		c-0.8,0-1.5,0.4-1.6,0.4c-0.1,0.1-0.2,0-0.2-0.1l-0.1-0.2c-0.1-0.1,0-0.2,0.1-0.2c0,0,0.8-0.5,1.9-0.5c1.8,0,2.2,1.2,2.2,2.7v3.4
		c0,0.1-0.1,0.2-0.2,0.2c-0.2,0-0.4-0.3-0.4-0.7v-0.1l0,0c-0.4,0.4-1.2,0.9-2.2,0.9c-1.1,0-2-0.8-2-2C95,130.8,96,129.9,97.6,129.9z
		 M97.1,133.5c0.9,0,1.8-0.6,2.1-0.9v-1.8c-0.2-0.1-0.9-0.3-1.6-0.3c-1.2,0-2,0.6-2,1.5C95.6,132.9,96.3,133.5,97.1,133.5z
		 M101.3,128.3c-0.2,0-0.2-0.1-0.2-0.2v-0.2c0-0.1,0.1-0.2,0.2-0.2h0.7v-1.7c0-0.1,0.1-0.2,0.2-0.2l0.2,0c0.1,0,0.2,0.1,0.2,0.2v1.7
		h2.2c0.1,0,0.2,0.1,0.2,0.2v0.2c0,0.1-0.1,0.2-0.2,0.2h-2.2v3.9c0,0.8,0.3,1.2,1,1.2c0.5,0,1-0.3,1.2-0.4c0.1-0.1,0.2,0,0.2,0.1
		l0.1,0.2c0.1,0.1,0,0.2-0.1,0.2c-0.2,0.2-0.9,0.5-1.5,0.5c-1.2,0-1.6-0.8-1.6-1.8v-3.9H101.3z M106.4,127.9c0-0.1,0.1-0.2,0.2-0.2
		h0.2c0.1,0,0.2,0.1,0.2,0.2v3.4c0,1.4,0.5,2.1,1.7,2.1c1.2,0,1.8-0.9,1.9-1.1v-4.4c0-0.1,0.1-0.2,0.2-0.2h0.2
		c0.1,0,0.2,0.1,0.2,0.2v5.8c0,0.1-0.1,0.2-0.2,0.2c-0.2,0-0.4-0.3-0.4-0.7v-0.1c-0.2,0.2-0.8,0.9-2,0.9c-1.7,0-2.3-0.9-2.3-2.6
		V127.9z M113,133.1l0.1-0.2c0.1-0.1,0.2-0.1,0.3,0c0.2,0.1,0.8,0.6,1.7,0.6c0.9,0,1.5-0.5,1.5-1.1c0-0.7-0.7-1-1.8-1.4
		c-1.1-0.4-1.8-0.8-1.8-1.8c0-0.7,0.6-1.6,2-1.6c0.8,0,1.4,0.3,1.7,0.5c0.1,0.1,0.1,0.2,0.1,0.3l-0.1,0.1c-0.1,0.1-0.2,0.1-0.3,0.1
		c-0.1-0.1-0.8-0.4-1.5-0.4c-1,0-1.4,0.5-1.4,1c0,0.6,0.6,0.9,1.5,1.3c1.1,0.4,2.1,0.8,2.1,1.9c0,0.9-0.9,1.6-2.1,1.6
		c-1,0-1.7-0.4-2-0.7C113,133.3,112.9,133.2,113,133.1z"/>
	<g>
		<path class="st0" d="M25.2,146.3c1.7,0,3.1,1.4,3.1,3.2c0,1.8-1.4,3.2-3.1,3.2c-1.8,0-3.1-1.4-3.1-3.2
			C22.1,147.7,23.4,146.3,25.2,146.3z M25.2,152.1c1.4,0,2.5-1.2,2.5-2.7c0-1.4-1.1-2.6-2.5-2.6c-1.4,0-2.5,1.2-2.5,2.6
			C22.7,151,23.8,152.1,25.2,152.1z"/>
		<path class="st0" d="M30.2,147h-1c-0.1,0-0.2-0.1-0.2-0.2v-0.2c0-0.1,0.1-0.2,0.2-0.2h1v-0.9c0-1.4,0.7-2.4,2-2.4
			c0.8,0,1.4,0.4,1.7,0.7c0.1,0.1,0.1,0.2,0,0.3l-0.1,0.2c-0.1,0.1-0.2,0.1-0.3,0c-0.4-0.3-0.8-0.5-1.4-0.5c-1,0-1.4,0.6-1.4,1.8
			v0.9h2.3c0.1,0,0.2,0.1,0.2,0.2v0.2c0,0.1-0.1,0.2-0.2,0.2h-2.3v5.4c0,0.1-0.1,0.2-0.2,0.2h-0.2c-0.1,0-0.2-0.1-0.2-0.2V147z"/>
		<path class="st0" d="M37.5,147c-0.2,0-0.2-0.1-0.2-0.2v-0.2c0-0.1,0.1-0.2,0.2-0.2h0.7v-1.7c0-0.1,0.1-0.2,0.2-0.2l0.2,0
			c0.1,0,0.2,0.1,0.2,0.2v1.7H41c0.1,0,0.2,0.1,0.2,0.2v0.2c0,0.1-0.1,0.2-0.2,0.2h-2.2v3.9c0,0.8,0.3,1.2,1,1.2
			c0.5,0,1-0.3,1.2-0.4c0.1-0.1,0.2,0,0.2,0.1l0.1,0.2c0.1,0.1,0,0.2-0.1,0.2c-0.2,0.2-0.9,0.5-1.5,0.5c-1.2,0-1.6-0.8-1.6-1.8V147
			H37.5z"/>
		<path class="st0" d="M42.8,143.5c0-0.1,0.1-0.2,0.2-0.2h0.2c0.1,0,0.2,0.1,0.2,0.2v3.8c0.2-0.2,0.9-1,2.1-1c1.6,0,2.3,1,2.3,2.7
			v3.4c0,0.1-0.1,0.2-0.2,0.2h-0.2c-0.1,0-0.2-0.1-0.2-0.2V149c0-1.4-0.6-2.1-1.7-2.1c-1.2,0-1.9,0.9-2.1,1.1v4.4
			c0,0.1-0.1,0.2-0.2,0.2h-0.2c-0.1,0-0.2-0.1-0.2-0.2V143.5z"/>
		<path class="st0" d="M52.4,146.3c1.6,0,2.8,1.2,2.8,2.8c0,0.2,0,0.6-0.2,0.6h-4.9c0,1.4,1.1,2.5,2.4,2.5c0.9,0,1.5-0.4,1.9-0.6
			c0.1-0.1,0.2-0.1,0.3,0l0.1,0.2c0.1,0.1,0,0.2-0.1,0.2c-0.4,0.3-1.3,0.7-2.2,0.7c-1.8,0-3-1.4-3-3.2
			C49.5,147.7,50.6,146.3,52.4,146.3z M54.6,149.1c0-1.2-0.8-2.3-2.2-2.3c-1.3,0-2.3,1-2.4,2.3H54.6z"/>
		<path class="st0" d="M56.6,144.2c0-0.3,0.2-0.5,0.5-0.5c0.3,0,0.5,0.2,0.5,0.5c0,0.3-0.2,0.5-0.5,0.5
			C56.9,144.7,56.6,144.5,56.6,144.2z M56.9,146.6c0-0.1,0.1-0.2,0.2-0.2h0.2c0.1,0,0.2,0.1,0.2,0.2v5.7c0,0.1-0.1,0.2-0.2,0.2H57
			c-0.1,0-0.2-0.1-0.2-0.2V146.6z"/>
		<path class="st0" d="M59.6,146.6c0-0.1,0.1-0.2,0.2-0.2c0.2,0,0.4,0.3,0.4,0.7v0.1c0.2-0.2,0.8-0.9,1.9-0.9c0.5,0,0.8,0.1,1,0.2
			c0.1,0,0.2,0.2,0.2,0.3l-0.1,0.2c0,0.1-0.1,0.1-0.3,0.1c-0.1,0-0.4-0.2-0.8-0.2c-1.2,0-1.8,1-1.9,1v4.5c0,0.1-0.1,0.2-0.2,0.2
			h-0.2c-0.1,0-0.2-0.1-0.2-0.2V146.6z"/>
		<path class="st0" d="M70.4,146.3c1.7,0,3.1,1.4,3.1,3.2c0,1.8-1.4,3.2-3.1,3.2c-1.8,0-3.1-1.4-3.1-3.2
			C67.3,147.7,68.7,146.3,70.4,146.3z M70.4,152.1c1.4,0,2.5-1.2,2.5-2.7c0-1.4-1.1-2.6-2.5-2.6c-1.4,0-2.5,1.2-2.5,2.6
			C67.9,151,69,152.1,70.4,152.1z"/>
		<path class="st0" d="M75.3,146.6c0-0.1,0.1-0.2,0.2-0.2c0.2,0,0.4,0.3,0.4,0.7v0.1c0.2-0.2,0.8-0.9,1.9-0.9c0.5,0,0.8,0.1,1,0.2
			c0.1,0,0.2,0.2,0.2,0.3l-0.1,0.2c0,0.1-0.1,0.1-0.3,0.1c-0.1,0-0.4-0.2-0.8-0.2c-1.2,0-1.8,1-1.9,1v4.5c0,0.1-0.1,0.2-0.2,0.2
			h-0.2c-0.1,0-0.2-0.1-0.2-0.2V146.6z"/>
		<path class="st0" d="M82.5,146.3c1.2,0,1.9,0.6,1.9,0.6v-3.4c0-0.1,0.1-0.2,0.2-0.2h0.2c0.1,0,0.2,0.1,0.2,0.2v8.9
			c0,0.1-0.1,0.2-0.2,0.2c-0.2,0-0.4-0.3-0.4-0.7v-0.1c-0.2,0.2-1,0.9-2.1,0.9c-1.6,0-2.8-1.4-2.8-3.2
			C79.6,147.7,80.8,146.3,82.5,146.3z M82.4,152.1c1.3,0,2-1,2.1-1v-3.5c0,0-0.7-0.7-1.9-0.7c-1.4,0-2.5,1.2-2.5,2.6
			C80.2,150.9,81.1,152.1,82.4,152.1z"/>
		<path class="st0" d="M89.8,146.3c1.6,0,2.8,1.2,2.8,2.8c0,0.2,0,0.6-0.2,0.6h-4.9c0,1.4,1.1,2.5,2.4,2.5c0.9,0,1.5-0.4,1.9-0.6
			c0.1-0.1,0.2-0.1,0.3,0l0.1,0.2c0.1,0.1,0,0.2-0.1,0.2c-0.4,0.3-1.3,0.7-2.2,0.7c-1.8,0-3-1.4-3-3.2
			C86.9,147.7,88,146.3,89.8,146.3z M92,149.1c0-1.2-0.8-2.3-2.2-2.3c-1.3,0-2.3,1-2.4,2.3H92z"/>
		<path class="st0" d="M94.3,146.6c0-0.1,0.1-0.2,0.2-0.2c0.2,0,0.4,0.3,0.4,0.7v0.1c0.2-0.2,0.8-0.9,1.9-0.9c0.5,0,0.8,0.1,1,0.2
			c0.1,0,0.2,0.2,0.2,0.3l-0.1,0.2c0,0.1-0.1,0.1-0.3,0.1c-0.1,0-0.4-0.2-0.8-0.2c-1.2,0-1.8,1-1.9,1v4.5c0,0.1-0.1,0.2-0.2,0.2
			h-0.2c-0.1,0-0.2-0.1-0.2-0.2V146.6z"/>
	</g>
	<g>
		<path class="st0" d="M136.6,132.6l0.1-0.2c0.1-0.1,0.2-0.1,0.3-0.1c0.1,0.1,1.1,1,2.5,1c1.2,0,2.2-0.7,2.2-1.8
			c0-1.2-1-1.7-2.6-2.3c-1.5-0.5-2.6-1.1-2.6-2.6c0-1,0.8-2.4,2.9-2.4c1.3,0,2.3,0.7,2.3,0.7c0.1,0,0.1,0.1,0.1,0.3l-0.1,0.2
			c-0.1,0.1-0.2,0.1-0.3,0.1c0,0-0.9-0.6-2-0.6c-1.6,0-2.2,1-2.2,1.8c0,1.1,0.9,1.6,2.2,2.1c1.8,0.6,3,1.3,3,2.8
			c0,1.5-1.4,2.4-2.9,2.4c-1.6,0-2.6-0.9-2.8-1.1C136.5,132.9,136.5,132.8,136.6,132.6z"/>
		<path class="st0" d="M146.6,127.6c1.6,0,2.8,1.2,2.8,2.8c0,0.2,0,0.6-0.2,0.6h-4.9c0,1.4,1.1,2.5,2.4,2.5c0.9,0,1.5-0.4,1.9-0.6
			c0.1-0.1,0.2-0.1,0.3,0l0.1,0.2c0.1,0.1,0,0.2-0.1,0.2c-0.4,0.3-1.3,0.7-2.2,0.7c-1.8,0-3-1.4-3-3.2
			C143.7,129.1,144.8,127.6,146.6,127.6z M148.8,130.5c0-1.2-0.8-2.3-2.2-2.3c-1.3,0-2.3,1-2.4,2.3H148.8z"/>
		<path class="st0" d="M151.1,127.9c0-0.1,0.1-0.2,0.2-0.2c0.2,0,0.4,0.3,0.4,0.7v0.2c0.2-0.3,1-0.9,2.1-0.9c1.7,0,2.3,1.1,2.3,2.7
			v3.4c0,0.1-0.1,0.2-0.2,0.2h-0.2c-0.1,0-0.2-0.1-0.2-0.2v-3.4c0-1.4-0.6-2.1-1.8-2.1c-1.2,0-2,1-2.1,1v4.5c0,0.1-0.1,0.2-0.2,0.2
			h-0.2c-0.1,0-0.2-0.1-0.2-0.2V127.9z"/>
		<path class="st0" d="M160.8,127.6c1.2,0,1.9,0.6,1.9,0.6v-3.4c0-0.1,0.1-0.2,0.2-0.2h0.2c0.1,0,0.2,0.1,0.2,0.2v8.9
			c0,0.1-0.1,0.2-0.2,0.2c-0.2,0-0.4-0.3-0.4-0.7v-0.1c-0.2,0.2-1,0.9-2.1,0.9c-1.6,0-2.8-1.4-2.8-3.2
			C157.8,129,159,127.6,160.8,127.6z M160.6,133.5c1.3,0,2-1,2.1-1v-3.5c0,0-0.7-0.7-1.9-0.7c-1.4,0-2.5,1.2-2.5,2.6
			C158.4,132.2,159.4,133.5,160.6,133.5z"/>
		<path class="st0" d="M165.2,125.5c0-0.3,0.2-0.5,0.5-0.5c0.3,0,0.5,0.2,0.5,0.5c0,0.3-0.2,0.5-0.5,0.5
			C165.4,126,165.2,125.8,165.2,125.5z M165.5,127.9c0-0.1,0.1-0.2,0.2-0.2h0.2c0.1,0,0.2,0.1,0.2,0.2v5.7c0,0.1-0.1,0.2-0.2,0.2
			h-0.2c-0.1,0-0.2-0.1-0.2-0.2V127.9z"/>
		<path class="st0" d="M168.2,127.9c0-0.1,0.1-0.2,0.2-0.2c0.2,0,0.4,0.3,0.4,0.7v0.2c0.2-0.3,1-0.9,2.1-0.9c1.7,0,2.3,1.1,2.3,2.7
			v3.4c0,0.1-0.1,0.2-0.2,0.2h-0.2c-0.1,0-0.2-0.1-0.2-0.2v-3.4c0-1.4-0.6-2.1-1.8-2.1c-1.2,0-2,1-2.1,1v4.5c0,0.1-0.1,0.2-0.2,0.2
			h-0.2c-0.1,0-0.2-0.1-0.2-0.2V127.9z"/>
		<path class="st0" d="M177.7,136.8c-1,0-1.8-0.5-2.1-0.8c-0.1-0.1-0.1-0.1,0-0.2l0.1-0.2c0.1-0.1,0.1-0.1,0.3,0
			c0.2,0.2,0.9,0.6,1.7,0.6c1.2,0,2.1-0.7,2.1-2.2v-0.7c-0.2,0.1-0.8,0.6-1.9,0.6c-1.8,0-3.1-1.4-3.1-3.2c0-1.8,1.2-3.2,2.9-3.2
			c1.1,0,1.8,0.5,2,0.7c0-0.4,0.2-0.6,0.4-0.6c0.1,0,0.2,0.1,0.2,0.2v6.1C180.4,135.8,179.2,136.8,177.7,136.8z M179.8,129
			c-0.1-0.1-0.8-0.8-2-0.8c-1.4,0-2.4,1.2-2.4,2.6c0,1.5,1,2.7,2.5,2.7c1,0,1.8-0.7,1.8-0.7V129z"/>
		<path class="st0" d="M185.6,125.5c0-0.3,0.2-0.5,0.5-0.5c0.3,0,0.5,0.2,0.5,0.5c0,0.3-0.2,0.5-0.5,0.5
			C185.8,126,185.6,125.8,185.6,125.5z M185.8,127.9c0-0.1,0.1-0.2,0.2-0.2h0.2c0.1,0,0.2,0.1,0.2,0.2v5.7c0,0.1-0.1,0.2-0.2,0.2
			H186c-0.1,0-0.2-0.1-0.2-0.2V127.9z"/>
		<path class="st0" d="M188.5,127.9c0-0.1,0.1-0.2,0.2-0.2c0.2,0,0.4,0.3,0.4,0.7v0.1c0.2-0.3,0.8-0.9,2-0.9c0.9,0,1.5,0.4,1.9,1.1
			c0.2-0.2,0.9-1.1,2.2-1.1c1.7,0,2.2,1.1,2.2,2.7v3.4c0,0.1-0.1,0.2-0.2,0.2H197c-0.1,0-0.2-0.1-0.2-0.2v-3.4
			c0-1.4-0.5-2.1-1.7-2.1c-1.1,0-1.7,0.8-1.9,1.1c0.1,0.3,0.1,0.7,0.1,1.1v3.4c0,0.1-0.1,0.2-0.2,0.2h-0.2c-0.1,0-0.2-0.1-0.2-0.2
			v-3.4c0-1.4-0.5-2.1-1.7-2.1c-1.2,0-1.8,0.9-1.9,1v4.5c0,0.1-0.1,0.2-0.2,0.2h-0.2c-0.1,0-0.2-0.1-0.2-0.2V127.9z"/>
		<path class="st0" d="M201.5,129.9c0.7,0,1.4,0.2,1.6,0.3c0-1.2-0.3-2-1.6-2c-0.8,0-1.5,0.4-1.6,0.4c-0.1,0.1-0.2,0-0.2-0.1
			l-0.1-0.2c-0.1-0.1,0-0.2,0.1-0.2c0,0,0.8-0.5,1.9-0.5c1.8,0,2.2,1.2,2.2,2.7v3.4c0,0.1-0.1,0.2-0.2,0.2c-0.2,0-0.4-0.3-0.4-0.7
			v-0.1l0,0c-0.4,0.4-1.2,0.9-2.2,0.9c-1.1,0-2-0.8-2-2C199,130.8,199.9,129.9,201.5,129.9z M201,133.5c0.9,0,1.8-0.6,2.1-0.9v-1.8
			c-0.2-0.1-0.9-0.3-1.6-0.3c-1.2,0-2,0.6-2,1.5C199.6,132.9,200.2,133.5,201,133.5z"/>
		<path class="st0" d="M208.2,136.8c-1,0-1.8-0.5-2.1-0.8c-0.1-0.1-0.1-0.1,0-0.2l0.1-0.2c0.1-0.1,0.1-0.1,0.3,0
			c0.2,0.2,0.9,0.6,1.7,0.6c1.2,0,2.1-0.7,2.1-2.2v-0.7c-0.2,0.1-0.8,0.6-1.9,0.6c-1.8,0-3.1-1.4-3.1-3.2c0-1.8,1.2-3.2,2.9-3.2
			c1.1,0,1.8,0.5,2,0.7c0-0.4,0.2-0.6,0.4-0.6c0.1,0,0.2,0.1,0.2,0.2v6.1C210.9,135.8,209.7,136.8,208.2,136.8z M210.3,129
			c-0.1-0.1-0.8-0.8-2-0.8c-1.4,0-2.4,1.2-2.4,2.6c0,1.5,1,2.7,2.5,2.7c1,0,1.8-0.7,1.8-0.7V129z"/>
		<path class="st0" d="M215.7,127.6c1.6,0,2.8,1.2,2.8,2.8c0,0.2,0,0.6-0.2,0.6h-4.9c0,1.4,1.1,2.5,2.4,2.5c0.9,0,1.5-0.4,1.9-0.6
			c0.1-0.1,0.2-0.1,0.3,0l0.1,0.2c0.1,0.1,0,0.2-0.1,0.2c-0.4,0.3-1.3,0.7-2.2,0.7c-1.8,0-3-1.4-3-3.2
			C212.7,129.1,213.9,127.6,215.7,127.6z M217.9,130.5c0-1.2-0.8-2.3-2.2-2.3c-1.3,0-2.3,1-2.4,2.3H217.9z"/>
		<path class="st0" d="M219.8,133.1l0.1-0.2c0.1-0.1,0.2-0.1,0.3,0c0.2,0.1,0.8,0.6,1.7,0.6c0.9,0,1.5-0.5,1.5-1.1
			c0-0.7-0.7-1-1.8-1.4c-1.1-0.4-1.8-0.8-1.8-1.8c0-0.7,0.6-1.6,2-1.6c0.8,0,1.4,0.3,1.7,0.5c0.1,0.1,0.1,0.2,0.1,0.3l-0.1,0.1
			c-0.1,0.1-0.2,0.1-0.3,0.1c-0.1-0.1-0.8-0.4-1.5-0.4c-1,0-1.4,0.5-1.4,1c0,0.6,0.6,0.9,1.5,1.3c1.1,0.4,2.1,0.8,2.1,1.9
			c0,0.9-0.9,1.6-2.1,1.6c-1,0-1.7-0.4-2-0.7C219.8,133.3,219.7,133.2,219.8,133.1z"/>
		<path class="st0" d="M231.5,127.6c1.7,0,3.1,1.4,3.1,3.2c0,1.8-1.4,3.2-3.1,3.2c-1.8,0-3.1-1.4-3.1-3.2
			C228.4,129.1,229.7,127.6,231.5,127.6z M231.5,133.5c1.4,0,2.5-1.2,2.5-2.7c0-1.4-1.1-2.6-2.5-2.6c-1.4,0-2.5,1.2-2.5,2.6
			C229,132.3,230.1,133.5,231.5,133.5z"/>
		<path class="st0" d="M236.5,128.3h-1c-0.1,0-0.2-0.1-0.2-0.2v-0.2c0-0.1,0.1-0.2,0.2-0.2h1v-0.9c0-1.4,0.7-2.4,2-2.4
			c0.8,0,1.4,0.4,1.7,0.7c0.1,0.1,0.1,0.2,0,0.3l-0.1,0.2c-0.1,0.1-0.2,0.1-0.3,0c-0.4-0.3-0.8-0.5-1.4-0.5c-1,0-1.4,0.6-1.4,1.8
			v0.9h2.3c0.1,0,0.2,0.1,0.2,0.2v0.2c0,0.1-0.1,0.2-0.2,0.2h-2.3v5.4c0,0.1-0.1,0.2-0.2,0.2h-0.2c-0.1,0-0.2-0.1-0.2-0.2V128.3z"/>
	</g>
	<g>
		<path class="st0" d="M158.6,147c-0.2,0-0.2-0.1-0.2-0.2v-0.2c0-0.1,0.1-0.2,0.2-0.2h0.7v-1.7c0-0.1,0.1-0.2,0.2-0.2l0.2,0
			c0.1,0,0.2,0.1,0.2,0.2v1.7h2.2c0.1,0,0.2,0.1,0.2,0.2v0.2c0,0.1-0.1,0.2-0.2,0.2H160v3.9c0,0.8,0.3,1.2,1,1.2
			c0.5,0,1-0.3,1.2-0.4c0.1-0.1,0.2,0,0.2,0.1l0.1,0.2c0.1,0.1,0,0.2-0.1,0.2c-0.2,0.2-0.9,0.5-1.5,0.5c-1.2,0-1.6-0.8-1.6-1.8V147
			H158.6z"/>
		<path class="st0" d="M163.9,143.5c0-0.1,0.1-0.2,0.2-0.2h0.2c0.1,0,0.2,0.1,0.2,0.2v3.8c0.2-0.2,0.9-1,2.1-1c1.6,0,2.3,1,2.3,2.7
			v3.4c0,0.1-0.1,0.2-0.2,0.2h-0.2c-0.1,0-0.2-0.1-0.2-0.2V149c0-1.4-0.6-2.1-1.7-2.1s-1.9,0.9-2.1,1.1v4.4c0,0.1-0.1,0.2-0.2,0.2
			h-0.2c-0.1,0-0.2-0.1-0.2-0.2V143.5z"/>
		<path class="st0" d="M173.6,146.3c1.6,0,2.8,1.2,2.8,2.8c0,0.2,0,0.6-0.2,0.6h-4.9c0,1.4,1.1,2.5,2.4,2.5c0.9,0,1.5-0.4,1.9-0.6
			c0.1-0.1,0.2-0.1,0.3,0l0.1,0.2c0.1,0.1,0,0.2-0.1,0.2c-0.4,0.3-1.3,0.7-2.2,0.7c-1.8,0-3-1.4-3-3.2
			C170.6,147.7,171.8,146.3,173.6,146.3z M175.8,149.1c0-1.2-0.8-2.3-2.2-2.3c-1.3,0-2.3,1-2.4,2.3H175.8z"/>
		<path class="st0" d="M186.1,155.7H186c-0.1,0-0.2-0.1-0.2-0.2v-3.5c-0.2,0.1-0.8,0.6-1.9,0.6c-1.8,0-3.1-1.4-3.1-3.2
			c0-1.8,1.2-3.2,2.9-3.2c1.1,0,1.8,0.5,2,0.7c0-0.4,0.2-0.6,0.4-0.6c0.1,0,0.2,0.1,0.2,0.2v8.9
			C186.3,155.6,186.3,155.7,186.1,155.7z M185.8,147.7c-0.1-0.1-0.8-0.8-2-0.8c-1.4,0-2.4,1.2-2.4,2.6c0,1.5,1,2.7,2.5,2.7
			c1,0,1.8-0.7,1.8-0.7V147.7z"/>
		<path class="st0" d="M188.5,146.6c0-0.1,0.1-0.2,0.2-0.2h0.2c0.1,0,0.2,0.1,0.2,0.2v3.4c0,1.4,0.5,2.1,1.7,2.1
			c1.2,0,1.8-0.9,1.9-1.1v-4.4c0-0.1,0.1-0.2,0.2-0.2h0.2c0.1,0,0.2,0.1,0.2,0.2v5.8c0,0.1-0.1,0.2-0.2,0.2c-0.2,0-0.4-0.3-0.4-0.7
			v-0.1c-0.2,0.2-0.8,0.9-2,0.9c-1.7,0-2.3-0.9-2.3-2.6V146.6z"/>
		<path class="st0" d="M197.5,148.6c0.7,0,1.4,0.2,1.6,0.3c0-1.2-0.3-2-1.6-2c-0.8,0-1.5,0.4-1.6,0.4c-0.1,0.1-0.2,0-0.2-0.1
			l-0.1-0.2c-0.1-0.1,0-0.2,0.1-0.2c0,0,0.8-0.5,1.9-0.5c1.8,0,2.2,1.2,2.2,2.7v3.4c0,0.1-0.1,0.2-0.2,0.2c-0.2,0-0.4-0.3-0.4-0.7
			v-0.1l0,0c-0.4,0.4-1.2,0.9-2.2,0.9c-1.1,0-2-0.8-2-2C195,149.5,195.9,148.6,197.5,148.6z M197,152.1c0.9,0,1.8-0.6,2.1-0.9v-1.8
			c-0.2-0.1-0.9-0.3-1.6-0.3c-1.2,0-2,0.6-2,1.5C195.5,151.5,196.2,152.1,197,152.1z"/>
		<path class="st0" d="M201.8,143.5c0-0.1,0.1-0.2,0.2-0.2h0.2c0.1,0,0.2,0.1,0.2,0.2v8.9c0,0.1-0.1,0.2-0.2,0.2H202
			c-0.1,0-0.2-0.1-0.2-0.2V143.5z"/>
		<path class="st0" d="M204.4,144.2c0-0.3,0.2-0.5,0.5-0.5c0.3,0,0.5,0.2,0.5,0.5c0,0.3-0.2,0.5-0.5,0.5
			C204.6,144.7,204.4,144.5,204.4,144.2z M204.6,146.6c0-0.1,0.1-0.2,0.2-0.2h0.2c0.1,0,0.2,0.1,0.2,0.2v5.7c0,0.1-0.1,0.2-0.2,0.2
			h-0.2c-0.1,0-0.2-0.1-0.2-0.2V146.6z"/>
		<path class="st0" d="M206.8,147c-0.2,0-0.2-0.1-0.2-0.2v-0.2c0-0.1,0.1-0.2,0.2-0.2h0.7v-1.7c0-0.1,0.1-0.2,0.2-0.2l0.2,0
			c0.1,0,0.2,0.1,0.2,0.2v1.7h2.2c0.1,0,0.2,0.1,0.2,0.2v0.2c0,0.1-0.1,0.2-0.2,0.2h-2.2v3.9c0,0.8,0.3,1.2,1,1.2
			c0.5,0,1-0.3,1.2-0.4c0.1-0.1,0.2,0,0.2,0.1l0.1,0.2c0.1,0.1,0,0.2-0.1,0.2c-0.2,0.2-0.9,0.5-1.5,0.5c-1.2,0-1.6-0.8-1.6-1.8V147
			H206.8z"/>
		<path class="st0" d="M211.7,146.7c-0.1-0.1,0-0.3,0.1-0.3h0.3c0.1,0,0.2,0,0.2,0.1l2.2,5.3h0l2.3-5.3c0-0.1,0.1-0.1,0.2-0.1h0.3
			c0.1,0,0.2,0.1,0.1,0.3l-3.8,8.9c0,0.1-0.1,0.1-0.2,0.1H213c-0.1,0-0.2-0.1-0.1-0.2l1.3-3L211.7,146.7z"/>
	</g>
	<g>
		<path class="st0" d="M260.7,132.6l0.1-0.2c0.1-0.1,0.2-0.1,0.3-0.1c0.1,0.1,1.1,1,2.5,1c1.2,0,2.2-0.7,2.2-1.8
			c0-1.2-1-1.7-2.6-2.3c-1.5-0.5-2.6-1.1-2.6-2.6c0-1,0.8-2.4,2.9-2.4c1.3,0,2.3,0.7,2.3,0.7c0.1,0,0.1,0.1,0.1,0.3l-0.1,0.2
			c-0.1,0.1-0.2,0.1-0.3,0.1c0,0-0.9-0.6-2-0.6c-1.6,0-2.2,1-2.2,1.8c0,1.1,0.9,1.6,2.2,2.1c1.8,0.6,3,1.3,3,2.8
			c0,1.5-1.4,2.4-2.9,2.4c-1.6,0-2.6-0.9-2.8-1.1C260.7,132.9,260.6,132.8,260.7,132.6z"/>
		<path class="st0" d="M268.1,127.9c0-0.1,0.1-0.2,0.2-0.2h0.2c0.1,0,0.2,0.1,0.2,0.2v3.4c0,1.4,0.5,2.1,1.7,2.1
			c1.2,0,1.8-0.9,1.9-1.1v-4.4c0-0.1,0.1-0.2,0.2-0.2h0.2c0.1,0,0.2,0.1,0.2,0.2v5.8c0,0.1-0.1,0.2-0.2,0.2c-0.2,0-0.4-0.3-0.4-0.7
			v-0.1c-0.2,0.2-0.8,0.9-2,0.9c-1.7,0-2.3-0.9-2.3-2.6V127.9z"/>
		<path class="st0" d="M277.6,136.8c-1,0-1.8-0.5-2.1-0.8c-0.1-0.1-0.1-0.1,0-0.2l0.1-0.2c0.1-0.1,0.1-0.1,0.3,0
			c0.2,0.2,0.9,0.6,1.7,0.6c1.2,0,2.1-0.7,2.1-2.2v-0.7c-0.2,0.1-0.8,0.6-1.9,0.6c-1.8,0-3.1-1.4-3.1-3.2c0-1.8,1.2-3.2,2.9-3.2
			c1.1,0,1.8,0.5,2,0.7c0-0.4,0.2-0.6,0.4-0.6c0.1,0,0.2,0.1,0.2,0.2v6.1C280.3,135.8,279.1,136.8,277.6,136.8z M279.7,129
			c-0.1-0.1-0.8-0.8-2-0.8c-1.4,0-2.4,1.2-2.4,2.6c0,1.5,1,2.7,2.5,2.7c1,0,1.8-0.7,1.8-0.7V129z"/>
		<path class="st0" d="M284.9,136.8c-1,0-1.8-0.5-2.1-0.8c-0.1-0.1-0.1-0.1,0-0.2l0.1-0.2c0.1-0.1,0.1-0.1,0.3,0
			c0.2,0.2,0.9,0.6,1.7,0.6c1.2,0,2.1-0.7,2.1-2.2v-0.7c-0.2,0.1-0.8,0.6-1.9,0.6c-1.8,0-3.1-1.4-3.1-3.2c0-1.8,1.2-3.2,2.9-3.2
			c1.1,0,1.8,0.5,2,0.7c0-0.4,0.2-0.6,0.4-0.6c0.1,0,0.2,0.1,0.2,0.2v6.1C287.6,135.8,286.4,136.8,284.9,136.8z M287,129
			c-0.1-0.1-0.8-0.8-2-0.8c-1.4,0-2.4,1.2-2.4,2.6c0,1.5,1,2.7,2.5,2.7c1,0,1.8-0.7,1.8-0.7V129z"/>
		<path class="st0" d="M292.4,127.6c1.6,0,2.8,1.2,2.8,2.8c0,0.2,0,0.6-0.2,0.6H290c0,1.4,1.1,2.5,2.4,2.5c0.9,0,1.5-0.4,1.9-0.6
			c0.1-0.1,0.2-0.1,0.3,0l0.1,0.2c0.1,0.1,0,0.2-0.1,0.2c-0.4,0.3-1.3,0.7-2.2,0.7c-1.8,0-3-1.4-3-3.2
			C289.4,129.1,290.6,127.6,292.4,127.6z M294.5,130.5c0-1.2-0.8-2.3-2.2-2.3c-1.3,0-2.3,1-2.4,2.3H294.5z"/>
		<path class="st0" d="M296.4,133.1l0.1-0.2c0.1-0.1,0.2-0.1,0.3,0c0.2,0.1,0.8,0.6,1.7,0.6c0.9,0,1.5-0.5,1.5-1.1
			c0-0.7-0.7-1-1.8-1.4c-1.1-0.4-1.8-0.8-1.8-1.8c0-0.7,0.6-1.6,2-1.6c0.8,0,1.4,0.3,1.7,0.5c0.1,0.1,0.1,0.2,0.1,0.3l-0.1,0.1
			c-0.1,0.1-0.2,0.1-0.3,0.1c-0.1-0.1-0.8-0.4-1.5-0.4c-1,0-1.4,0.5-1.4,1c0,0.6,0.6,0.9,1.5,1.3c1.1,0.4,2.1,0.8,2.1,1.9
			c0,0.9-0.9,1.6-2.1,1.6c-1,0-1.7-0.4-2-0.7C296.4,133.3,296.4,133.2,296.4,133.1z"/>
		<path class="st0" d="M301.8,128.3c-0.2,0-0.2-0.1-0.2-0.2v-0.2c0-0.1,0.1-0.2,0.2-0.2h0.7v-1.7c0-0.1,0.1-0.2,0.2-0.2l0.2,0
			c0.1,0,0.2,0.1,0.2,0.2v1.7h2.2c0.1,0,0.2,0.1,0.2,0.2v0.2c0,0.1-0.1,0.2-0.2,0.2h-2.2v3.9c0,0.8,0.3,1.2,1,1.2
			c0.5,0,1-0.3,1.2-0.4c0.1-0.1,0.2,0,0.2,0.1l0.1,0.2c0.1,0.1,0,0.2-0.1,0.2c-0.2,0.2-0.9,0.5-1.5,0.5c-1.2,0-1.6-0.8-1.6-1.8v-3.9
			H301.8z"/>
		<path class="st0" d="M306.8,125.5c0-0.3,0.2-0.5,0.5-0.5c0.3,0,0.5,0.2,0.5,0.5c0,0.3-0.2,0.5-0.5,0.5
			C307.1,126,306.8,125.8,306.8,125.5z M307.1,127.9c0-0.1,0.1-0.2,0.2-0.2h0.2c0.1,0,0.2,0.1,0.2,0.2v5.7c0,0.1-0.1,0.2-0.2,0.2
			h-0.2c-0.1,0-0.2-0.1-0.2-0.2V127.9z"/>
		<path class="st0" d="M309.8,127.9c0-0.1,0.1-0.2,0.2-0.2c0.2,0,0.4,0.3,0.4,0.7v0.2c0.2-0.3,1-0.9,2.1-0.9c1.7,0,2.3,1.1,2.3,2.7
			v3.4c0,0.1-0.1,0.2-0.2,0.2h-0.2c-0.1,0-0.2-0.1-0.2-0.2v-3.4c0-1.4-0.6-2.1-1.8-2.1c-1.2,0-2,1-2.1,1v4.5c0,0.1-0.1,0.2-0.2,0.2
			H310c-0.1,0-0.2-0.1-0.2-0.2V127.9z"/>
		<path class="st0" d="M319.3,136.8c-1,0-1.8-0.5-2.1-0.8c-0.1-0.1-0.1-0.1,0-0.2l0.1-0.2c0.1-0.1,0.1-0.1,0.3,0
			c0.2,0.2,0.9,0.6,1.7,0.6c1.2,0,2.1-0.7,2.1-2.2v-0.7c-0.2,0.1-0.8,0.6-1.9,0.6c-1.8,0-3.1-1.4-3.1-3.2c0-1.8,1.2-3.2,2.9-3.2
			c1.1,0,1.8,0.5,2,0.7c0-0.4,0.2-0.6,0.4-0.6c0.1,0,0.2,0.1,0.2,0.2v6.1C322.1,135.8,320.9,136.8,319.3,136.8z M321.5,129
			c-0.1-0.1-0.8-0.8-2-0.8c-1.4,0-2.4,1.2-2.4,2.6c0,1.5,1,2.7,2.5,2.7c1,0,1.8-0.7,1.8-0.7V129z"/>
		<path class="st0" d="M328.1,136.8c0,0.1-0.1,0.2-0.2,0.2h-0.2c-0.1,0-0.2-0.1-0.2-0.2v-8.9c0-0.1,0.1-0.2,0.2-0.2
			c0.2,0,0.4,0.2,0.4,0.6c0.2-0.2,1-0.7,2-0.7c1.7,0,2.9,1.4,2.9,3.2c0,1.8-1.3,3.2-3.1,3.2c-1,0-1.7-0.5-1.9-0.6V136.8z
			 M328.1,132.7c0.1,0.1,0.8,0.7,1.8,0.7c1.5,0,2.5-1.2,2.5-2.7c0-1.4-0.9-2.6-2.4-2.6c-1.2,0-1.9,0.7-2,0.8V132.7z"/>
		<path class="st0" d="M334.8,127.9c0-0.1,0.1-0.2,0.2-0.2c0.2,0,0.4,0.3,0.4,0.7v0.1c0.2-0.2,0.8-0.9,1.9-0.9c0.5,0,0.8,0.1,1,0.2
			c0.1,0,0.2,0.2,0.2,0.3l-0.1,0.2c0,0.1-0.1,0.1-0.3,0.1c-0.1,0-0.4-0.2-0.8-0.2c-1.2,0-1.8,1-1.9,1v4.5c0,0.1-0.1,0.2-0.2,0.2H335
			c-0.1,0-0.2-0.1-0.2-0.2V127.9z"/>
		<path class="st0" d="M342.1,127.6c1.7,0,3.1,1.4,3.1,3.2c0,1.8-1.4,3.2-3.1,3.2c-1.8,0-3.1-1.4-3.1-3.2
			C339.1,129.1,340.4,127.6,342.1,127.6z M342.1,133.5c1.4,0,2.5-1.2,2.5-2.7c0-1.4-1.1-2.6-2.5-2.6c-1.4,0-2.5,1.2-2.5,2.6
			C339.7,132.3,340.8,133.5,342.1,133.5z"/>
		<path class="st0" d="M349.6,127.6c1.2,0,1.9,0.6,1.9,0.6v-3.4c0-0.1,0.1-0.2,0.2-0.2h0.2c0.1,0,0.2,0.1,0.2,0.2v8.9
			c0,0.1-0.1,0.2-0.2,0.2c-0.2,0-0.4-0.3-0.4-0.7v-0.1c-0.2,0.2-1,0.9-2.1,0.9c-1.6,0-2.8-1.4-2.8-3.2
			C346.6,129,347.9,127.6,349.6,127.6z M349.5,133.5c1.3,0,2-1,2.1-1v-3.5c0,0-0.7-0.7-1.9-0.7c-1.4,0-2.5,1.2-2.5,2.6
			C347.2,132.2,348.2,133.5,349.5,133.5z"/>
		<path class="st0" d="M354.2,127.9c0-0.1,0.1-0.2,0.2-0.2h0.2c0.1,0,0.2,0.1,0.2,0.2v3.4c0,1.4,0.5,2.1,1.7,2.1
			c1.2,0,1.8-0.9,1.9-1.1v-4.4c0-0.1,0.1-0.2,0.2-0.2h0.2c0.1,0,0.2,0.1,0.2,0.2v5.8c0,0.1-0.1,0.2-0.2,0.2c-0.2,0-0.4-0.3-0.4-0.7
			v-0.1c-0.2,0.2-0.8,0.9-2,0.9c-1.7,0-2.3-0.9-2.3-2.6V127.9z"/>
		<path class="st0" d="M364,127.6c1.2,0,2,0.6,2.3,0.9c0.1,0.1,0.1,0.2,0,0.3l-0.1,0.1c-0.1,0.1-0.2,0.1-0.3,0
			c-0.1-0.2-0.8-0.7-1.8-0.7c-1.4,0-2.6,1.2-2.6,2.6c0,1.5,1.1,2.7,2.6,2.7c1.1,0,1.8-0.8,1.9-0.9c0.1-0.1,0.2-0.1,0.3,0l0.1,0.1
			c0.1,0.1,0.1,0.2,0,0.2c-0.3,0.4-1.1,1.2-2.4,1.2c-1.7,0-3.2-1.4-3.2-3.2C360.8,129,362.3,127.6,364,127.6z"/>
		<path class="st0" d="M367.7,128.3c-0.2,0-0.2-0.1-0.2-0.2v-0.2c0-0.1,0.1-0.2,0.2-0.2h0.7v-1.7c0-0.1,0.1-0.2,0.2-0.2l0.2,0
			c0.1,0,0.2,0.1,0.2,0.2v1.7h2.2c0.1,0,0.2,0.1,0.2,0.2v0.2c0,0.1-0.1,0.2-0.2,0.2H369v3.9c0,0.8,0.3,1.2,1,1.2
			c0.5,0,1-0.3,1.2-0.4c0.1-0.1,0.2,0,0.2,0.1l0.1,0.2c0.1,0.1,0,0.2-0.1,0.2c-0.2,0.2-0.9,0.5-1.5,0.5c-1.2,0-1.6-0.8-1.6-1.8v-3.9
			H367.7z"/>
	</g>
	<g>
		<path class="st0" d="M280.7,151.8l0.1-0.2c0.1-0.1,0.2-0.1,0.3,0c0.2,0.1,0.8,0.6,1.7,0.6c0.9,0,1.5-0.5,1.5-1.1
			c0-0.7-0.7-1-1.8-1.4c-1.1-0.4-1.8-0.8-1.8-1.8c0-0.7,0.6-1.6,2-1.6c0.8,0,1.4,0.3,1.7,0.5c0.1,0.1,0.1,0.2,0.1,0.3l-0.1,0.1
			c-0.1,0.1-0.2,0.1-0.3,0.1c-0.1-0.1-0.8-0.4-1.5-0.4c-1,0-1.4,0.5-1.4,1c0,0.6,0.6,0.9,1.5,1.3c1.1,0.4,2.1,0.8,2.1,1.9
			c0,0.9-0.9,1.6-2.1,1.6c-1,0-1.7-0.4-2-0.7C280.7,152,280.7,151.9,280.7,151.8z"/>
		<path class="st0" d="M286.4,146.6c0-0.1,0.1-0.2,0.2-0.2h0.2c0.1,0,0.2,0.1,0.2,0.2v3.4c0,1.4,0.5,2.1,1.7,2.1
			c1.2,0,1.8-0.9,1.9-1.1v-4.4c0-0.1,0.1-0.2,0.2-0.2h0.2c0.1,0,0.2,0.1,0.2,0.2v5.8c0,0.1-0.1,0.2-0.2,0.2c-0.2,0-0.4-0.3-0.4-0.7
			v-0.1c-0.2,0.2-0.8,0.9-2,0.9c-1.7,0-2.3-0.9-2.3-2.6V146.6z"/>
		<path class="st0" d="M296.1,152.7c-1.2,0-1.9-0.6-2.1-0.9v0.1c0,0.4-0.2,0.7-0.4,0.7c-0.1,0-0.2-0.1-0.2-0.2v-8.9
			c0-0.1,0.1-0.2,0.2-0.2h0.2c0.1,0,0.2,0.1,0.2,0.2v3.4c0,0,0.8-0.6,1.9-0.6c1.7,0,3,1.4,3,3.2
			C298.9,151.3,297.7,152.7,296.1,152.7z M295.9,146.9c-1.1,0-1.9,0.7-1.9,0.7v3.5c0,0.1,0.7,1,2.1,1c1.3,0,2.2-1.2,2.2-2.6
			C298.3,148,297.3,146.9,295.9,146.9z"/>
		<path class="st0" d="M300.2,151.8l0.1-0.2c0.1-0.1,0.2-0.1,0.3,0c0.2,0.1,0.8,0.6,1.7,0.6c0.9,0,1.5-0.5,1.5-1.1
			c0-0.7-0.7-1-1.8-1.4c-1.1-0.4-1.8-0.8-1.8-1.8c0-0.7,0.6-1.6,2-1.6c0.8,0,1.4,0.3,1.7,0.5c0.1,0.1,0.1,0.2,0.1,0.3l-0.1,0.1
			c-0.1,0.1-0.2,0.1-0.3,0.1c-0.1-0.1-0.8-0.4-1.5-0.4c-1,0-1.4,0.5-1.4,1c0,0.6,0.6,0.9,1.5,1.3c1.1,0.4,2.1,0.8,2.1,1.9
			c0,0.9-0.9,1.6-2.1,1.6c-1,0-1.7-0.4-2-0.7C300.2,152,300.2,151.9,300.2,151.8z"/>
		<path class="st0" d="M305.6,147c-0.2,0-0.2-0.1-0.2-0.2v-0.2c0-0.1,0.1-0.2,0.2-0.2h0.7v-1.7c0-0.1,0.1-0.2,0.2-0.2l0.2,0
			c0.1,0,0.2,0.1,0.2,0.2v1.7h2.2c0.1,0,0.2,0.1,0.2,0.2v0.2c0,0.1-0.1,0.2-0.2,0.2H307v3.9c0,0.8,0.3,1.2,1,1.2
			c0.5,0,1-0.3,1.2-0.4c0.1-0.1,0.2,0,0.2,0.1l0.1,0.2c0.1,0.1,0,0.2-0.1,0.2c-0.2,0.2-0.9,0.5-1.5,0.5c-1.2,0-1.6-0.8-1.6-1.8V147
			H305.6z"/>
		<path class="st0" d="M310.7,144.2c0-0.3,0.2-0.5,0.5-0.5c0.3,0,0.5,0.2,0.5,0.5c0,0.3-0.2,0.5-0.5,0.5
			C310.9,144.7,310.7,144.5,310.7,144.2z M310.9,146.6c0-0.1,0.1-0.2,0.2-0.2h0.2c0.1,0,0.2,0.1,0.2,0.2v5.7c0,0.1-0.1,0.2-0.2,0.2
			h-0.2c-0.1,0-0.2-0.1-0.2-0.2V146.6z"/>
		<path class="st0" d="M313.1,147c-0.2,0-0.2-0.1-0.2-0.2v-0.2c0-0.1,0.1-0.2,0.2-0.2h0.7v-1.7c0-0.1,0.1-0.2,0.2-0.2l0.2,0
			c0.1,0,0.2,0.1,0.2,0.2v1.7h2.2c0.1,0,0.2,0.1,0.2,0.2v0.2c0,0.1-0.1,0.2-0.2,0.2h-2.2v3.9c0,0.8,0.3,1.2,1,1.2
			c0.5,0,1-0.3,1.2-0.4c0.1-0.1,0.2,0,0.2,0.1l0.1,0.2c0.1,0.1,0,0.2-0.1,0.2c-0.2,0.2-0.9,0.5-1.5,0.5c-1.2,0-1.6-0.8-1.6-1.8V147
			H313.1z"/>
		<path class="st0" d="M318.3,146.6c0-0.1,0.1-0.2,0.2-0.2h0.2c0.1,0,0.2,0.1,0.2,0.2v3.4c0,1.4,0.5,2.1,1.7,2.1
			c1.2,0,1.8-0.9,1.9-1.1v-4.4c0-0.1,0.1-0.2,0.2-0.2h0.2c0.1,0,0.2,0.1,0.2,0.2v5.8c0,0.1-0.1,0.2-0.2,0.2c-0.2,0-0.4-0.3-0.4-0.7
			v-0.1c-0.2,0.2-0.8,0.9-2,0.9c-1.7,0-2.3-0.9-2.3-2.6V146.6z"/>
		<path class="st0" d="M324.8,147c-0.2,0-0.2-0.1-0.2-0.2v-0.2c0-0.1,0.1-0.2,0.2-0.2h0.7v-1.7c0-0.1,0.1-0.2,0.2-0.2l0.2,0
			c0.1,0,0.2,0.1,0.2,0.2v1.7h2.2c0.1,0,0.2,0.1,0.2,0.2v0.2c0,0.1-0.1,0.2-0.2,0.2h-2.2v3.9c0,0.8,0.3,1.2,1,1.2
			c0.5,0,1-0.3,1.2-0.4c0.1-0.1,0.2,0,0.2,0.1l0.1,0.2c0.1,0.1,0,0.2-0.1,0.2c-0.2,0.2-0.9,0.5-1.5,0.5c-1.2,0-1.6-0.8-1.6-1.8V147
			H324.8z"/>
		<path class="st0" d="M329.8,144.2c0-0.3,0.2-0.5,0.5-0.5c0.3,0,0.5,0.2,0.5,0.5c0,0.3-0.2,0.5-0.5,0.5
			C330.1,144.7,329.8,144.5,329.8,144.2z M330.1,146.6c0-0.1,0.1-0.2,0.2-0.2h0.2c0.1,0,0.2,0.1,0.2,0.2v5.7c0,0.1-0.1,0.2-0.2,0.2
			h-0.2c-0.1,0-0.2-0.1-0.2-0.2V146.6z"/>
		<path class="st0" d="M335.5,146.3c1.7,0,3.1,1.4,3.1,3.2c0,1.8-1.4,3.2-3.1,3.2c-1.8,0-3.1-1.4-3.1-3.2
			C332.4,147.7,333.7,146.3,335.5,146.3z M335.5,152.1c1.4,0,2.5-1.2,2.5-2.7c0-1.4-1.1-2.6-2.5-2.6c-1.4,0-2.5,1.2-2.5,2.6
			C333,151,334.1,152.1,335.5,152.1z"/>
		<path class="st0" d="M340.3,146.6c0-0.1,0.1-0.2,0.2-0.2c0.2,0,0.4,0.3,0.4,0.7v0.2c0.2-0.3,1-0.9,2.1-0.9c1.7,0,2.3,1.1,2.3,2.7
			v3.4c0,0.1-0.1,0.2-0.2,0.2H345c-0.1,0-0.2-0.1-0.2-0.2V149c0-1.4-0.6-2.1-1.8-2.1c-1.2,0-2,1-2.1,1v4.5c0,0.1-0.1,0.2-0.2,0.2
			h-0.2c-0.1,0-0.2-0.1-0.2-0.2V146.6z"/>
		<path class="st0" d="M347,151.8l0.1-0.2c0.1-0.1,0.2-0.1,0.3,0c0.2,0.1,0.8,0.6,1.7,0.6c0.9,0,1.5-0.5,1.5-1.1
			c0-0.7-0.7-1-1.8-1.4c-1.1-0.4-1.8-0.8-1.8-1.8c0-0.7,0.6-1.6,2-1.6c0.8,0,1.4,0.3,1.7,0.5c0.1,0.1,0.1,0.2,0.1,0.3l-0.1,0.1
			c-0.1,0.1-0.2,0.1-0.3,0.1c-0.1-0.1-0.8-0.4-1.5-0.4c-1,0-1.4,0.5-1.4,1c0,0.6,0.6,0.9,1.5,1.3c1.1,0.4,2.1,0.8,2.1,1.9
			c0,0.9-0.9,1.6-2.1,1.6c-1,0-1.7-0.4-2-0.7C347,152,346.9,151.9,347,151.8z"/>
	</g>
	<g>
		<path class="st0" d="M397.1,124.4c2.7,0,4.8,2.1,4.8,4.8c0,2.7-2.1,4.8-4.8,4.8c-2.7,0-4.8-2.1-4.8-4.8
			C392.4,126.6,394.5,124.4,397.1,124.4z M397.1,133.4c2.3,0,4.2-1.9,4.2-4.2c0-2.3-1.9-4.2-4.2-4.2c-2.3,0-4.2,1.9-4.2,4.2
			C392.9,131.6,394.8,133.4,397.1,133.4z"/>
		<path class="st0" d="M404.3,128.3h-1c-0.1,0-0.2-0.1-0.2-0.2v-0.2c0-0.1,0.1-0.2,0.2-0.2h1v-0.9c0-1.4,0.7-2.4,2-2.4
			c0.8,0,1.4,0.4,1.7,0.7c0.1,0.1,0.1,0.2,0,0.3l-0.1,0.2c-0.1,0.1-0.2,0.1-0.3,0c-0.4-0.3-0.8-0.5-1.4-0.5c-1,0-1.4,0.6-1.4,1.8
			v0.9h2.3c0.1,0,0.2,0.1,0.2,0.2v0.2c0,0.1-0.1,0.2-0.2,0.2h-2.3v5.4c0,0.1-0.1,0.2-0.2,0.2h-0.2c-0.1,0-0.2-0.1-0.2-0.2V128.3z"/>
		<path class="st0" d="M409.5,128.3h-1c-0.1,0-0.2-0.1-0.2-0.2v-0.2c0-0.1,0.1-0.2,0.2-0.2h1v-0.9c0-1.4,0.7-2.4,2-2.4
			c0.8,0,1.4,0.4,1.7,0.7c0.1,0.1,0.1,0.2,0,0.3l-0.1,0.2c-0.1,0.1-0.2,0.1-0.3,0c-0.4-0.3-0.8-0.5-1.4-0.5c-1,0-1.4,0.6-1.4,1.8
			v0.9h2.3c0.1,0,0.2,0.1,0.2,0.2v0.2c0,0.1-0.1,0.2-0.2,0.2h-2.3v5.4c0,0.1-0.1,0.2-0.2,0.2h-0.2c-0.1,0-0.2-0.1-0.2-0.2V128.3z"/>
		<path class="st0" d="M416.3,127.6c1.6,0,2.7,1.2,2.7,2.8c0,0.2,0,0.6-0.2,0.6h-4.9c0,1.4,1.1,2.5,2.4,2.5c0.9,0,1.5-0.4,1.9-0.6
			c0.1-0.1,0.2-0.1,0.3,0l0.1,0.2c0.1,0.1,0,0.2-0.1,0.2c-0.4,0.3-1.3,0.7-2.2,0.7c-1.8,0-3-1.4-3-3.2
			C413.3,129.1,414.5,127.6,416.3,127.6z M418.5,130.5c0-1.2-0.8-2.3-2.2-2.3c-1.3,0-2.3,1-2.4,2.3H418.5z"/>
		<path class="st0" d="M420.8,127.9c0-0.1,0.1-0.2,0.2-0.2c0.2,0,0.4,0.3,0.4,0.7v0.1c0.2-0.2,0.8-0.9,1.9-0.9c0.5,0,0.8,0.1,1,0.2
			c0.1,0,0.2,0.2,0.2,0.3l-0.1,0.2c0,0.1-0.1,0.1-0.3,0.1c-0.1,0-0.4-0.2-0.8-0.2c-1.2,0-1.8,1-1.9,1v4.5c0,0.1-0.1,0.2-0.2,0.2
			h-0.2c-0.1,0-0.2-0.1-0.2-0.2V127.9z"/>
		<path class="st0" d="M425.5,125.5c0-0.3,0.2-0.5,0.5-0.5s0.5,0.2,0.5,0.5c0,0.3-0.2,0.5-0.5,0.5S425.5,125.8,425.5,125.5z
			 M425.7,127.9c0-0.1,0.1-0.2,0.2-0.2h0.2c0.1,0,0.2,0.1,0.2,0.2v5.7c0,0.1-0.1,0.2-0.2,0.2h-0.2c-0.1,0-0.2-0.1-0.2-0.2V127.9z"/>
		<path class="st0" d="M428.5,127.9c0-0.1,0.1-0.2,0.2-0.2c0.2,0,0.4,0.3,0.4,0.7v0.2c0.2-0.3,1-0.9,2.1-0.9c1.7,0,2.3,1.1,2.3,2.7
			v3.4c0,0.1-0.1,0.2-0.2,0.2h-0.2c-0.1,0-0.2-0.1-0.2-0.2v-3.4c0-1.4-0.6-2.1-1.8-2.1c-1.2,0-2,1-2.1,1v4.5c0,0.1-0.1,0.2-0.2,0.2
			h-0.2c-0.1,0-0.2-0.1-0.2-0.2V127.9z"/>
		<path class="st0" d="M438,136.8c-1,0-1.8-0.5-2.1-0.8c-0.1-0.1-0.1-0.1,0-0.2l0.1-0.2c0.1-0.1,0.1-0.1,0.3,0
			c0.2,0.2,0.9,0.6,1.7,0.6c1.2,0,2.1-0.7,2.1-2.2v-0.7c-0.2,0.1-0.8,0.6-1.9,0.6c-1.8,0-3.1-1.4-3.1-3.2c0-1.8,1.2-3.2,2.9-3.2
			c1.1,0,1.8,0.5,2,0.7c0-0.4,0.2-0.6,0.4-0.6c0.1,0,0.2,0.1,0.2,0.2v6.1C440.7,135.8,439.5,136.8,438,136.8z M440.1,129
			c-0.1-0.1-0.8-0.8-2-0.8c-1.4,0-2.4,1.2-2.4,2.6c0,1.5,1,2.7,2.5,2.7c1,0,1.8-0.7,1.8-0.7V129z"/>
		<path class="st0" d="M446.7,136.8c0,0.1-0.1,0.2-0.2,0.2h-0.2c-0.1,0-0.2-0.1-0.2-0.2v-8.9c0-0.1,0.1-0.2,0.2-0.2
			c0.2,0,0.4,0.2,0.4,0.6c0.2-0.2,1-0.7,2-0.7c1.7,0,2.9,1.4,2.9,3.2c0,1.8-1.3,3.2-3.1,3.2c-1,0-1.7-0.5-1.9-0.6V136.8z
			 M446.7,132.7c0.1,0.1,0.8,0.7,1.8,0.7c1.5,0,2.5-1.2,2.5-2.7c0-1.4-0.9-2.6-2.4-2.6c-1.2,0-1.9,0.7-2,0.8V132.7z"/>
		<path class="st0" d="M453.4,127.9c0-0.1,0.1-0.2,0.2-0.2c0.2,0,0.4,0.3,0.4,0.7v0.1c0.2-0.2,0.8-0.9,1.9-0.9c0.5,0,0.8,0.1,1,0.2
			c0.1,0,0.2,0.2,0.2,0.3l-0.1,0.2c0,0.1-0.1,0.1-0.3,0.1c-0.1,0-0.4-0.2-0.8-0.2c-1.2,0-1.8,1-1.9,1v4.5c0,0.1-0.1,0.2-0.2,0.2
			h-0.2c-0.1,0-0.2-0.1-0.2-0.2V127.9z"/>
		<path class="st0" d="M460.8,127.6c1.7,0,3.1,1.4,3.1,3.2c0,1.8-1.4,3.2-3.1,3.2c-1.8,0-3.1-1.4-3.1-3.2
			C457.7,129.1,459,127.6,460.8,127.6z M460.8,133.5c1.4,0,2.5-1.2,2.5-2.7c0-1.4-1.1-2.6-2.5-2.6c-1.4,0-2.5,1.2-2.5,2.6
			C458.3,132.3,459.4,133.5,460.8,133.5z"/>
		<path class="st0" d="M468.2,127.6c1.2,0,1.9,0.6,1.9,0.6v-3.4c0-0.1,0.1-0.2,0.2-0.2h0.2c0.1,0,0.2,0.1,0.2,0.2v8.9
			c0,0.1-0.1,0.2-0.2,0.2c-0.2,0-0.4-0.3-0.4-0.7v-0.1c-0.2,0.2-1,0.9-2.1,0.9c-1.6,0-2.8-1.4-2.8-3.2
			C465.3,129,466.5,127.6,468.2,127.6z M468.1,133.5c1.3,0,2-1,2.1-1v-3.5c0,0-0.7-0.7-1.9-0.7c-1.4,0-2.5,1.2-2.5,2.6
			C465.9,132.2,466.8,133.5,468.1,133.5z"/>
		<path class="st0" d="M472.9,127.9c0-0.1,0.1-0.2,0.2-0.2h0.2c0.1,0,0.2,0.1,0.2,0.2v3.4c0,1.4,0.5,2.1,1.7,2.1
			c1.2,0,1.8-0.9,1.9-1.1v-4.4c0-0.1,0.1-0.2,0.2-0.2h0.2c0.1,0,0.2,0.1,0.2,0.2v5.8c0,0.1-0.1,0.2-0.2,0.2c-0.2,0-0.4-0.3-0.4-0.7
			v-0.1c-0.2,0.2-0.8,0.9-2,0.9c-1.7,0-2.3-0.9-2.3-2.6V127.9z"/>
		<path class="st0" d="M482.7,127.6c1.2,0,2,0.6,2.3,0.9c0.1,0.1,0.1,0.2,0,0.3l-0.1,0.1c-0.1,0.1-0.2,0.1-0.3,0
			c-0.1-0.2-0.8-0.7-1.8-0.7c-1.4,0-2.6,1.2-2.6,2.6c0,1.5,1.1,2.7,2.6,2.7c1.1,0,1.8-0.8,1.9-0.9c0.1-0.1,0.2-0.1,0.3,0l0.1,0.1
			c0.1,0.1,0.1,0.2,0,0.2c-0.3,0.4-1.1,1.2-2.4,1.2c-1.7,0-3.2-1.4-3.2-3.2C479.5,129,480.9,127.6,482.7,127.6z"/>
		<path class="st0" d="M486.4,128.3c-0.2,0-0.2-0.1-0.2-0.2v-0.2c0-0.1,0.1-0.2,0.2-0.2h0.7v-1.7c0-0.1,0.1-0.2,0.2-0.2l0.2,0
			c0.1,0,0.2,0.1,0.2,0.2v1.7h2.2c0.1,0,0.2,0.1,0.2,0.2v0.2c0,0.1-0.1,0.2-0.2,0.2h-2.2v3.9c0,0.8,0.3,1.2,1.1,1.2
			c0.5,0,1-0.3,1.2-0.4c0.1-0.1,0.2,0,0.2,0.1l0.1,0.2c0.1,0.1,0,0.2-0.1,0.2c-0.2,0.2-0.9,0.5-1.5,0.5c-1.2,0-1.6-0.8-1.6-1.8v-3.9
			H486.4z"/>
		<path class="st0" d="M491.5,133.1l0.1-0.2c0.1-0.1,0.2-0.1,0.3,0c0.2,0.1,0.8,0.6,1.7,0.6c0.9,0,1.5-0.5,1.5-1.1
			c0-0.7-0.7-1-1.8-1.4c-1.1-0.4-1.8-0.8-1.8-1.8c0-0.7,0.6-1.6,2-1.6c0.8,0,1.4,0.3,1.7,0.5c0.1,0.1,0.1,0.2,0.1,0.3l-0.1,0.1
			c-0.1,0.1-0.2,0.1-0.3,0.1c-0.1-0.1-0.8-0.4-1.5-0.4c-1,0-1.4,0.5-1.4,1c0,0.6,0.6,0.9,1.5,1.3c1.1,0.4,2.1,0.8,2.1,1.9
			c0,0.9-0.9,1.6-2.1,1.6c-1,0-1.7-0.4-2-0.7C491.5,133.3,491.4,133.2,491.5,133.1z"/>
	</g>
	<g>
		<path class="st0" d="M408.7,146.3c1.7,0,3.1,1.4,3.1,3.2c0,1.8-1.4,3.2-3.1,3.2c-1.8,0-3.1-1.4-3.1-3.2
			C405.6,147.7,407,146.3,408.7,146.3z M408.7,152.1c1.4,0,2.5-1.2,2.5-2.7c0-1.4-1.1-2.6-2.5-2.6c-1.4,0-2.5,1.2-2.5,2.6
			C406.2,151,407.3,152.1,408.7,152.1z"/>
		<path class="st0" d="M413.6,146.6c0-0.1,0.1-0.2,0.2-0.2c0.2,0,0.4,0.3,0.4,0.7v0.2c0.2-0.3,1-0.9,2.1-0.9c1.7,0,2.3,1.1,2.3,2.7
			v3.4c0,0.1-0.1,0.2-0.2,0.2h-0.2c-0.1,0-0.2-0.1-0.2-0.2V149c0-1.4-0.6-2.1-1.8-2.1c-1.2,0-2,1-2.1,1v4.5c0,0.1-0.1,0.2-0.2,0.2
			h-0.2c-0.1,0-0.2-0.1-0.2-0.2V146.6z"/>
		<path class="st0" d="M424.5,155.5c0,0.1-0.1,0.2-0.2,0.2h-0.2c-0.1,0-0.2-0.1-0.2-0.2v-8.9c0-0.1,0.1-0.2,0.2-0.2
			c0.2,0,0.4,0.2,0.4,0.6c0.2-0.2,1-0.7,2-0.7c1.7,0,2.9,1.4,2.9,3.2c0,1.8-1.3,3.2-3.1,3.2c-1,0-1.7-0.5-1.9-0.6V155.5z
			 M424.5,151.4c0.1,0.1,0.8,0.7,1.8,0.7c1.5,0,2.5-1.2,2.5-2.7c0-1.4-0.9-2.6-2.4-2.6c-1.2,0-1.9,0.7-2,0.8V151.4z"/>
		<path class="st0" d="M431.3,146.6c0-0.1,0.1-0.2,0.2-0.2c0.2,0,0.4,0.3,0.4,0.7v0.1c0.2-0.2,0.8-0.9,1.9-0.9c0.5,0,0.8,0.1,1,0.2
			c0.1,0,0.2,0.2,0.2,0.3l-0.1,0.2c0,0.1-0.1,0.1-0.3,0.1c-0.1,0-0.4-0.2-0.8-0.2c-1.2,0-1.8,1-1.9,1v4.5c0,0.1-0.1,0.2-0.2,0.2
			h-0.2c-0.1,0-0.2-0.1-0.2-0.2V146.6z"/>
		<path class="st0" d="M438.6,146.3c1.7,0,3.1,1.4,3.1,3.2c0,1.8-1.4,3.2-3.1,3.2c-1.8,0-3.1-1.4-3.1-3.2
			C435.5,147.7,436.9,146.3,438.6,146.3z M438.6,152.1c1.4,0,2.5-1.2,2.5-2.7c0-1.4-1.1-2.6-2.5-2.6c-1.4,0-2.5,1.2-2.5,2.6
			C436.1,151,437.2,152.1,438.6,152.1z"/>
		<path class="st0" d="M443.5,146.6c0-0.1,0.1-0.2,0.2-0.2c0.2,0,0.4,0.3,0.4,0.7v0.1c0.2-0.3,0.8-0.9,2-0.9c0.9,0,1.5,0.4,1.9,1.1
			c0.2-0.2,0.9-1.1,2.2-1.1c1.7,0,2.2,1.1,2.2,2.7v3.4c0,0.1-0.1,0.2-0.2,0.2h-0.2c-0.1,0-0.2-0.1-0.2-0.2V149
			c0-1.4-0.5-2.1-1.7-2.1c-1.1,0-1.7,0.8-1.9,1.1c0.1,0.3,0.1,0.7,0.1,1.1v3.4c0,0.1-0.1,0.2-0.2,0.2h-0.2c-0.1,0-0.2-0.1-0.2-0.2
			V149c0-1.4-0.5-2.1-1.7-2.1c-1.2,0-1.8,0.9-1.9,1v4.5c0,0.1-0.1,0.2-0.2,0.2h-0.2c-0.1,0-0.2-0.1-0.2-0.2V146.6z"/>
		<path class="st0" d="M457.1,146.3c1.7,0,3.1,1.4,3.1,3.2c0,1.8-1.4,3.2-3.1,3.2c-1.8,0-3.1-1.4-3.1-3.2
			C454,147.7,455.4,146.3,457.1,146.3z M457.1,152.1c1.4,0,2.5-1.2,2.5-2.7c0-1.4-1.1-2.6-2.5-2.6c-1.4,0-2.5,1.2-2.5,2.6
			C454.6,151,455.7,152.1,457.1,152.1z"/>
		<path class="st0" d="M461.3,147c-0.2,0-0.2-0.1-0.2-0.2v-0.2c0-0.1,0.1-0.2,0.2-0.2h0.7v-1.7c0-0.1,0.1-0.2,0.2-0.2l0.2,0
			c0.1,0,0.2,0.1,0.2,0.2v1.7h2.2c0.1,0,0.2,0.1,0.2,0.2v0.2c0,0.1-0.1,0.2-0.2,0.2h-2.2v3.9c0,0.8,0.3,1.2,1.1,1.2
			c0.5,0,1-0.3,1.2-0.4c0.1-0.1,0.2,0,0.2,0.1l0.1,0.2c0.1,0.1,0,0.2-0.1,0.2c-0.2,0.2-0.9,0.5-1.5,0.5c-1.2,0-1.6-0.8-1.6-1.8V147
			H461.3z"/>
		<path class="st0" d="M466.4,144.2c0-0.3,0.2-0.5,0.5-0.5s0.5,0.2,0.5,0.5c0,0.3-0.2,0.5-0.5,0.5S466.4,144.5,466.4,144.2z
			 M466.6,146.6c0-0.1,0.1-0.2,0.2-0.2h0.2c0.1,0,0.2,0.1,0.2,0.2v5.7c0,0.1-0.1,0.2-0.2,0.2h-0.2c-0.1,0-0.2-0.1-0.2-0.2V146.6z"/>
		<path class="st0" d="M472,146.3c1.7,0,3.1,1.4,3.1,3.2c0,1.8-1.4,3.2-3.1,3.2c-1.8,0-3.1-1.4-3.1-3.2
			C468.9,147.7,470.2,146.3,472,146.3z M472,152.1c1.4,0,2.5-1.2,2.5-2.7c0-1.4-1.1-2.6-2.5-2.6c-1.4,0-2.5,1.2-2.5,2.6
			C469.5,151,470.6,152.1,472,152.1z"/>
		<path class="st0" d="M476.8,146.6c0-0.1,0.1-0.2,0.2-0.2c0.2,0,0.4,0.3,0.4,0.7v0.2c0.2-0.3,1-0.9,2.1-0.9c1.7,0,2.3,1.1,2.3,2.7
			v3.4c0,0.1-0.1,0.2-0.2,0.2h-0.2c-0.1,0-0.2-0.1-0.2-0.2V149c0-1.4-0.6-2.1-1.8-2.1c-1.2,0-2,1-2.1,1v4.5c0,0.1-0.1,0.2-0.2,0.2
			H477c-0.1,0-0.2-0.1-0.2-0.2V146.6z"/>
	</g>
	<g>
		<path class="st0" d="M519.9,133.7l4.1-9.2c0-0.1,0.1-0.1,0.2-0.1h0c0.1,0,0.1,0,0.2,0.1l4.1,9.2c0,0.1,0,0.2-0.1,0.2H528
			c-0.1,0-0.2-0.1-0.2-0.1l-1.1-2.4h-5.1l-1.1,2.4c0,0.1-0.1,0.1-0.2,0.1H520C519.9,133.9,519.9,133.8,519.9,133.7z M526.5,130.8
			l-2.3-5.3h0l-2.3,5.3H526.5z"/>
		<path class="st0" d="M532.2,127.6c1.2,0,1.9,0.6,1.9,0.6v-3.4c0-0.1,0.1-0.2,0.2-0.2h0.2c0.1,0,0.2,0.1,0.2,0.2v8.9
			c0,0.1-0.1,0.2-0.2,0.2c-0.2,0-0.4-0.3-0.4-0.7v-0.1c-0.2,0.2-1,0.9-2.1,0.9c-1.6,0-2.8-1.4-2.8-3.2
			C529.3,129,530.5,127.6,532.2,127.6z M532.1,133.5c1.3,0,2-1,2.1-1v-3.5c0,0-0.7-0.7-1.9-0.7c-1.4,0-2.5,1.2-2.5,2.6
			C529.8,132.2,530.8,133.5,532.1,133.5z"/>
		<path class="st0" d="M539.5,127.6c1.2,0,1.9,0.6,1.9,0.6v-3.4c0-0.1,0.1-0.2,0.2-0.2h0.2c0.1,0,0.2,0.1,0.2,0.2v8.9
			c0,0.1-0.1,0.2-0.2,0.2c-0.2,0-0.4-0.3-0.4-0.7v-0.1c-0.2,0.2-1,0.9-2.1,0.9c-1.6,0-2.8-1.4-2.8-3.2
			C536.5,129,537.8,127.6,539.5,127.6z M539.4,133.5c1.3,0,2-1,2.1-1v-3.5c0,0-0.7-0.7-1.9-0.7c-1.4,0-2.5,1.2-2.5,2.6
			C537.1,132.2,538.1,133.5,539.4,133.5z"/>
		<path class="st0" d="M549.5,129.9c0.7,0,1.4,0.2,1.6,0.3c0-1.2-0.3-2-1.6-2c-0.8,0-1.5,0.4-1.6,0.4c-0.1,0.1-0.2,0-0.2-0.1
			l-0.1-0.2c-0.1-0.1,0-0.2,0.1-0.2c0,0,0.8-0.5,1.9-0.5c1.8,0,2.2,1.2,2.2,2.7v3.4c0,0.1-0.1,0.2-0.2,0.2c-0.2,0-0.4-0.3-0.4-0.7
			v-0.1l0,0c-0.4,0.4-1.2,0.9-2.2,0.9c-1.1,0-2-0.8-2-2C546.9,130.8,547.9,129.9,549.5,129.9z M549,133.5c0.9,0,1.8-0.6,2.1-0.9
			v-1.8c-0.2-0.1-0.9-0.3-1.6-0.3c-1.2,0-2,0.6-2,1.5C547.5,132.9,548.1,133.5,549,133.5z"/>
		<path class="st0" d="M553.7,127.9c0-0.1,0.1-0.2,0.2-0.2c0.2,0,0.4,0.3,0.4,0.7v0.2c0.2-0.3,1-0.9,2.1-0.9c1.7,0,2.3,1.1,2.3,2.7
			v3.4c0,0.1-0.1,0.2-0.2,0.2h-0.2c-0.1,0-0.2-0.1-0.2-0.2v-3.4c0-1.4-0.6-2.1-1.8-2.1c-1.2,0-2,1-2.1,1v4.5c0,0.1-0.1,0.2-0.2,0.2
			h-0.2c-0.1,0-0.2-0.1-0.2-0.2V127.9z"/>
		<path class="st0" d="M559.9,128c-0.1-0.1,0-0.3,0.1-0.3h0.3c0.1,0,0.2,0,0.2,0.1l2.2,5.3h0l2.3-5.3c0-0.1,0.1-0.1,0.2-0.1h0.3
			c0.1,0,0.2,0.1,0.1,0.3l-3.8,8.9c0,0.1-0.1,0.1-0.2,0.1h-0.3c-0.1,0-0.2-0.1-0.1-0.2l1.3-3L559.9,128z"/>
		<path class="st0" d="M572.2,129.9c0.7,0,1.4,0.2,1.6,0.3c0-1.2-0.3-2-1.6-2c-0.8,0-1.5,0.4-1.6,0.4c-0.1,0.1-0.2,0-0.2-0.1
			l-0.1-0.2c-0.1-0.1,0-0.2,0.1-0.2c0,0,0.8-0.5,1.9-0.5c1.8,0,2.2,1.2,2.2,2.7v3.4c0,0.1-0.1,0.2-0.2,0.2c-0.2,0-0.4-0.3-0.4-0.7
			v-0.1l0,0c-0.4,0.4-1.2,0.9-2.2,0.9c-1.1,0-2-0.8-2-2C569.7,130.8,570.6,129.9,572.2,129.9z M571.8,133.5c0.9,0,1.8-0.6,2.1-0.9
			v-1.8c-0.2-0.1-0.9-0.3-1.6-0.3c-1.2,0-2,0.6-2,1.5C570.3,132.9,570.9,133.5,571.8,133.5z"/>
		<path class="st0" d="M579.1,127.6c1.2,0,1.9,0.6,1.9,0.6v-3.4c0-0.1,0.1-0.2,0.2-0.2h0.2c0.1,0,0.2,0.1,0.2,0.2v8.9
			c0,0.1-0.1,0.2-0.2,0.2c-0.2,0-0.4-0.3-0.4-0.7v-0.1c-0.2,0.2-1,0.9-2.1,0.9c-1.6,0-2.8-1.4-2.8-3.2
			C576.2,129,577.4,127.6,579.1,127.6z M579,133.5c1.3,0,2-1,2.1-1v-3.5c0,0-0.7-0.7-1.9-0.7c-1.4,0-2.5,1.2-2.5,2.6
			C576.7,132.2,577.7,133.5,579,133.5z"/>
		<path class="st0" d="M586.4,127.6c1.2,0,1.9,0.6,1.9,0.6v-3.4c0-0.1,0.1-0.2,0.2-0.2h0.2c0.1,0,0.2,0.1,0.2,0.2v8.9
			c0,0.1-0.1,0.2-0.2,0.2c-0.2,0-0.4-0.3-0.4-0.7v-0.1c-0.2,0.2-1,0.9-2.1,0.9c-1.6,0-2.8-1.4-2.8-3.2
			C583.5,129,584.7,127.6,586.4,127.6z M586.3,133.5c1.3,0,2-1,2.1-1v-3.5c0,0-0.7-0.7-1.9-0.7c-1.4,0-2.5,1.2-2.5,2.6
			C584,132.2,585,133.5,586.3,133.5z"/>
		<path class="st0" d="M590.8,125.5c0-0.3,0.2-0.5,0.5-0.5c0.3,0,0.5,0.2,0.5,0.5c0,0.3-0.2,0.5-0.5,0.5
			C591.1,126,590.8,125.8,590.8,125.5z M591.1,127.9c0-0.1,0.1-0.2,0.2-0.2h0.2c0.1,0,0.2,0.1,0.2,0.2v5.7c0,0.1-0.1,0.2-0.2,0.2
			h-0.2c-0.1,0-0.2-0.1-0.2-0.2V127.9z"/>
		<path class="st0" d="M593.3,128.3c-0.2,0-0.2-0.1-0.2-0.2v-0.2c0-0.1,0.1-0.2,0.2-0.2h0.7v-1.7c0-0.1,0.1-0.2,0.2-0.2l0.2,0
			c0.1,0,0.2,0.1,0.2,0.2v1.7h2.2c0.1,0,0.2,0.1,0.2,0.2v0.2c0,0.1-0.1,0.2-0.2,0.2h-2.2v3.9c0,0.8,0.3,1.2,1.1,1.2
			c0.5,0,1-0.3,1.2-0.4c0.1-0.1,0.2,0,0.2,0.1l0.1,0.2c0.1,0.1,0,0.2-0.1,0.2c-0.2,0.2-0.9,0.5-1.5,0.5c-1.2,0-1.6-0.8-1.6-1.8v-3.9
			H593.3z"/>
		<path class="st0" d="M598.4,125.5c0-0.3,0.2-0.5,0.5-0.5s0.5,0.2,0.5,0.5c0,0.3-0.2,0.5-0.5,0.5S598.4,125.8,598.4,125.5z
			 M598.6,127.9c0-0.1,0.1-0.2,0.2-0.2h0.2c0.1,0,0.2,0.1,0.2,0.2v5.7c0,0.1-0.1,0.2-0.2,0.2h-0.2c-0.1,0-0.2-0.1-0.2-0.2V127.9z"/>
		<path class="st0" d="M604,127.6c1.7,0,3.1,1.4,3.1,3.2c0,1.8-1.4,3.2-3.1,3.2c-1.8,0-3.1-1.4-3.1-3.2
			C600.9,129.1,602.2,127.6,604,127.6z M604,133.5c1.4,0,2.5-1.2,2.5-2.7c0-1.4-1.1-2.6-2.5-2.6c-1.4,0-2.5,1.2-2.5,2.6
			C601.5,132.3,602.6,133.5,604,133.5z"/>
		<path class="st0" d="M608.9,127.9c0-0.1,0.1-0.2,0.2-0.2c0.2,0,0.4,0.3,0.4,0.7v0.2c0.2-0.3,1-0.9,2.1-0.9c1.7,0,2.3,1.1,2.3,2.7
			v3.4c0,0.1-0.1,0.2-0.2,0.2h-0.2c-0.1,0-0.2-0.1-0.2-0.2v-3.4c0-1.4-0.6-2.1-1.8-2.1c-1.2,0-2,1-2.1,1v4.5c0,0.1-0.1,0.2-0.2,0.2
			H609c-0.1,0-0.2-0.1-0.2-0.2V127.9z"/>
		<path class="st0" d="M618,129.9c0.7,0,1.4,0.2,1.6,0.3c0-1.2-0.3-2-1.6-2c-0.8,0-1.5,0.4-1.6,0.4c-0.1,0.1-0.2,0-0.2-0.1l-0.1-0.2
			c-0.1-0.1,0-0.2,0.1-0.2c0,0,0.8-0.5,1.9-0.5c1.8,0,2.2,1.2,2.2,2.7v3.4c0,0.1-0.1,0.2-0.2,0.2c-0.2,0-0.4-0.3-0.4-0.7v-0.1l0,0
			c-0.4,0.4-1.2,0.9-2.2,0.9c-1.1,0-2-0.8-2-2C615.5,130.8,616.4,129.9,618,129.9z M617.5,133.5c0.9,0,1.8-0.6,2.1-0.9v-1.8
			c-0.2-0.1-0.9-0.3-1.6-0.3c-1.2,0-2,0.6-2,1.5C616,132.9,616.7,133.5,617.5,133.5z"/>
		<path class="st0" d="M622.3,124.8c0-0.1,0.1-0.2,0.2-0.2h0.2c0.1,0,0.2,0.1,0.2,0.2v8.9c0,0.1-0.1,0.2-0.2,0.2h-0.2
			c-0.1,0-0.2-0.1-0.2-0.2V124.8z"/>
	</g>
	<g>
		<path class="st0" d="M543.2,155.5c0,0.1-0.1,0.2-0.2,0.2h-0.2c-0.1,0-0.2-0.1-0.2-0.2v-8.9c0-0.1,0.1-0.2,0.2-0.2
			c0.2,0,0.4,0.2,0.4,0.6c0.2-0.2,1-0.7,2-0.7c1.7,0,2.9,1.4,2.9,3.2c0,1.8-1.3,3.2-3.1,3.2c-1,0-1.7-0.5-1.9-0.6V155.5z
			 M543.2,151.4c0.1,0.1,0.8,0.7,1.8,0.7c1.5,0,2.5-1.2,2.5-2.7c0-1.4-0.9-2.6-2.4-2.6c-1.2,0-1.9,0.7-2,0.8V151.4z"/>
		<path class="st0" d="M549.9,146.6c0-0.1,0.1-0.2,0.2-0.2c0.2,0,0.4,0.3,0.4,0.7v0.1c0.2-0.2,0.8-0.9,1.9-0.9c0.5,0,0.8,0.1,1,0.2
			c0.1,0,0.2,0.2,0.2,0.3l-0.1,0.2c0,0.1-0.1,0.1-0.3,0.1c-0.1,0-0.4-0.2-0.8-0.2c-1.2,0-1.8,1-1.9,1v4.5c0,0.1-0.1,0.2-0.2,0.2
			h-0.2c-0.1,0-0.2-0.1-0.2-0.2V146.6z"/>
		<path class="st0" d="M557.3,146.3c1.7,0,3.1,1.4,3.1,3.2c0,1.8-1.4,3.2-3.1,3.2c-1.8,0-3.1-1.4-3.1-3.2
			C554.2,147.7,555.6,146.3,557.3,146.3z M557.3,152.1c1.4,0,2.5-1.2,2.5-2.7c0-1.4-1.1-2.6-2.5-2.6c-1.4,0-2.5,1.2-2.5,2.6
			C554.8,151,555.9,152.1,557.3,152.1z"/>
		<path class="st0" d="M564.8,146.3c1.2,0,1.9,0.6,1.9,0.6v-3.4c0-0.1,0.1-0.2,0.2-0.2h0.2c0.1,0,0.2,0.1,0.2,0.2v8.9
			c0,0.1-0.1,0.2-0.2,0.2c-0.2,0-0.4-0.3-0.4-0.7v-0.1c-0.2,0.2-1,0.9-2.1,0.9c-1.6,0-2.8-1.4-2.8-3.2
			C561.8,147.7,563,146.3,564.8,146.3z M564.6,152.1c1.3,0,2-1,2.1-1v-3.5c0,0-0.7-0.7-1.9-0.7c-1.4,0-2.5,1.2-2.5,2.6
			C562.4,150.9,563.3,152.1,564.6,152.1z"/>
		<path class="st0" d="M569.4,146.6c0-0.1,0.1-0.2,0.2-0.2h0.2c0.1,0,0.2,0.1,0.2,0.2v3.4c0,1.4,0.5,2.1,1.7,2.1
			c1.2,0,1.8-0.9,1.9-1.1v-4.4c0-0.1,0.1-0.2,0.2-0.2h0.2c0.1,0,0.2,0.1,0.2,0.2v5.8c0,0.1-0.1,0.2-0.2,0.2c-0.2,0-0.4-0.3-0.4-0.7
			v-0.1c-0.2,0.2-0.8,0.9-2,0.9c-1.7,0-2.3-0.9-2.3-2.6V146.6z"/>
		<path class="st0" d="M579.2,146.3c1.2,0,2,0.6,2.3,0.9c0.1,0.1,0.1,0.2,0,0.3l-0.1,0.1c-0.1,0.1-0.2,0.1-0.3,0
			c-0.1-0.2-0.8-0.7-1.8-0.7c-1.4,0-2.6,1.2-2.6,2.6c0,1.5,1.1,2.7,2.6,2.7c1.1,0,1.8-0.8,1.9-0.9c0.1-0.1,0.2-0.1,0.3,0l0.1,0.1
			c0.1,0.1,0.1,0.2,0,0.2c-0.3,0.4-1.1,1.2-2.4,1.2c-1.7,0-3.2-1.4-3.2-3.2C576,147.6,577.5,146.3,579.2,146.3z"/>
		<path class="st0" d="M582.9,147c-0.2,0-0.2-0.1-0.2-0.2v-0.2c0-0.1,0.1-0.2,0.2-0.2h0.7v-1.7c0-0.1,0.1-0.2,0.2-0.2l0.2,0
			c0.1,0,0.2,0.1,0.2,0.2v1.7h2.2c0.1,0,0.2,0.1,0.2,0.2v0.2c0,0.1-0.1,0.2-0.2,0.2h-2.2v3.9c0,0.8,0.3,1.2,1.1,1.2
			c0.5,0,1-0.3,1.2-0.4c0.1-0.1,0.2,0,0.2,0.1l0.1,0.2c0.1,0.1,0,0.2-0.1,0.2c-0.2,0.2-0.9,0.5-1.5,0.5c-1.2,0-1.6-0.8-1.6-1.8V147
			H582.9z"/>
		<path class="st0" d="M590.9,147c-0.2,0-0.2-0.1-0.2-0.2v-0.2c0-0.1,0.1-0.2,0.2-0.2h0.7v-1.7c0-0.1,0.1-0.2,0.2-0.2l0.2,0
			c0.1,0,0.2,0.1,0.2,0.2v1.7h2.2c0.1,0,0.2,0.1,0.2,0.2v0.2c0,0.1-0.1,0.2-0.2,0.2h-2.2v3.9c0,0.8,0.3,1.2,1.1,1.2
			c0.5,0,1-0.3,1.2-0.4c0.1-0.1,0.2,0,0.2,0.1l0.1,0.2c0.1,0.1,0,0.2-0.1,0.2c-0.2,0.2-0.9,0.5-1.5,0.5c-1.2,0-1.6-0.8-1.6-1.8V147
			H590.9z"/>
		<path class="st0" d="M598.7,146.3c1.7,0,3.1,1.4,3.1,3.2c0,1.8-1.4,3.2-3.1,3.2c-1.8,0-3.1-1.4-3.1-3.2
			C595.6,147.7,596.9,146.3,598.7,146.3z M598.7,152.1c1.4,0,2.5-1.2,2.5-2.7c0-1.4-1.1-2.6-2.5-2.6c-1.4,0-2.5,1.2-2.5,2.6
			C596.2,151,597.3,152.1,598.7,152.1z"/>
	</g>
	<g>
		<path class="st0" d="M542.2,165.4c-0.1-0.1,0-0.3,0.1-0.3h0.3c0.1,0,0.2,0,0.2,0.1l2.2,5.3h0l2.3-5.3c0-0.1,0.1-0.1,0.2-0.1h0.3
			c0.1,0,0.2,0.1,0.1,0.3l-3.8,8.9c0,0.1-0.1,0.1-0.2,0.1h-0.3c-0.1,0-0.2-0.1-0.1-0.2l1.3-3L542.2,165.4z"/>
		<path class="st0" d="M551.8,165c1.7,0,3.1,1.4,3.1,3.2c0,1.8-1.4,3.2-3.1,3.2c-1.8,0-3.1-1.4-3.1-3.2
			C548.7,166.4,550,165,551.8,165z M551.8,170.8c1.4,0,2.5-1.2,2.5-2.7c0-1.4-1.1-2.6-2.5-2.6c-1.4,0-2.5,1.2-2.5,2.6
			C549.3,169.6,550.4,170.8,551.8,170.8z"/>
		<path class="st0" d="M556.5,165.3c0-0.1,0.1-0.2,0.2-0.2h0.2c0.1,0,0.2,0.1,0.2,0.2v3.4c0,1.4,0.5,2.1,1.7,2.1
			c1.2,0,1.8-0.9,1.9-1.1v-4.4c0-0.1,0.1-0.2,0.2-0.2h0.2c0.1,0,0.2,0.1,0.2,0.2v5.8c0,0.1-0.1,0.2-0.2,0.2c-0.2,0-0.4-0.3-0.4-0.7
			v-0.1c-0.2,0.2-0.8,0.9-2,0.9c-1.7,0-2.3-0.9-2.3-2.6V165.3z"/>
		<path class="st0" d="M563.5,165.3c0-0.1,0.1-0.2,0.2-0.2c0.2,0,0.4,0.3,0.4,0.7v0.1c0.2-0.2,0.8-0.9,1.9-0.9c0.5,0,0.8,0.1,1,0.2
			c0.1,0,0.2,0.2,0.2,0.3l-0.1,0.2c0,0.1-0.1,0.1-0.3,0.1c-0.1,0-0.4-0.2-0.8-0.2c-1.2,0-1.8,1-1.9,1v4.5c0,0.1-0.1,0.2-0.2,0.2
			h-0.2c-0.1,0-0.2-0.1-0.2-0.2V165.3z"/>
		<path class="st0" d="M574.4,165c1.7,0,3.1,1.4,3.1,3.2c0,1.8-1.4,3.2-3.1,3.2c-1.8,0-3.1-1.4-3.1-3.2
			C571.3,166.4,572.6,165,574.4,165z M574.4,170.8c1.4,0,2.5-1.2,2.5-2.7c0-1.4-1.1-2.6-2.5-2.6c-1.4,0-2.5,1.2-2.5,2.6
			C571.9,169.6,573,170.8,574.4,170.8z"/>
		<path class="st0" d="M579.2,165.3c0-0.1,0.1-0.2,0.2-0.2c0.2,0,0.4,0.3,0.4,0.7v0.1c0.2-0.2,0.8-0.9,1.9-0.9c0.5,0,0.8,0.1,1,0.2
			c0.1,0,0.2,0.2,0.2,0.3l-0.1,0.2c0,0.1-0.1,0.1-0.3,0.1c-0.1,0-0.4-0.2-0.8-0.2c-1.2,0-1.8,1-1.9,1v4.5c0,0.1-0.1,0.2-0.2,0.2
			h-0.2c-0.1,0-0.2-0.1-0.2-0.2V165.3z"/>
		<path class="st0" d="M586.5,165c1.2,0,1.9,0.6,1.9,0.6v-3.4c0-0.1,0.1-0.2,0.2-0.2h0.2c0.1,0,0.2,0.1,0.2,0.2v8.9
			c0,0.1-0.1,0.2-0.2,0.2c-0.2,0-0.4-0.3-0.4-0.7v-0.1c-0.2,0.2-1,0.9-2.1,0.9c-1.6,0-2.8-1.4-2.8-3.2
			C583.5,166.4,584.7,165,586.5,165z M586.3,170.8c1.3,0,2-1,2.1-1v-3.5c0,0-0.7-0.7-1.9-0.7c-1.4,0-2.5,1.2-2.5,2.6
			C584.1,169.6,585.1,170.8,586.3,170.8z"/>
		<path class="st0" d="M593.8,165c1.6,0,2.7,1.2,2.7,2.8c0,0.2,0,0.6-0.2,0.6h-4.9c0,1.4,1.1,2.5,2.4,2.5c0.9,0,1.5-0.4,1.9-0.6
			c0.1-0.1,0.2-0.1,0.3,0l0.1,0.2c0.1,0.1,0,0.2-0.1,0.2c-0.4,0.3-1.3,0.7-2.2,0.7c-1.8,0-3-1.4-3-3.2
			C590.8,166.4,592,165,593.8,165z M595.9,167.8c0-1.2-0.8-2.3-2.2-2.3c-1.3,0-2.3,1-2.4,2.3H595.9z"/>
		<path class="st0" d="M598.2,165.3c0-0.1,0.1-0.2,0.2-0.2c0.2,0,0.4,0.3,0.4,0.7v0.1c0.2-0.2,0.8-0.9,1.9-0.9c0.5,0,0.8,0.1,1,0.2
			c0.1,0,0.2,0.2,0.2,0.3l-0.1,0.2c0,0.1-0.1,0.1-0.3,0.1c-0.1,0-0.4-0.2-0.8-0.2c-1.2,0-1.8,1-1.9,1v4.5c0,0.1-0.1,0.2-0.2,0.2
			h-0.2c-0.1,0-0.2-0.1-0.2-0.2V165.3z"/>
	</g>
	<rect x="59.8" y="96.9" class="st1" width="512.5" height="0.5"/>
	<g>
		<path class="st2" d="M59.8,104.7c4.2,0,7.6-3.4,7.6-7.6c0-4.2-3.4-7.6-7.6-7.6c-4.2,0-7.6,3.4-7.6,7.6
			C52.1,101.3,55.5,104.7,59.8,104.7"/>
		<path class="st1" d="M59.8,105.1c-4.4,0-8-3.6-8-8c0-4.4,3.6-8,8-8c4.4,0,8,3.6,8,8C67.7,101.5,64.2,105.1,59.8,105.1z M59.8,89.9
			c-4,0-7.2,3.3-7.2,7.2c0,4,3.3,7.2,7.2,7.2s7.2-3.2,7.2-7.2C67,93.1,63.7,89.9,59.8,89.9z"/>
		<path class="st1" d="M59.8,101.5c2.4,0,4.4-2,4.4-4.4c0-2.4-2-4.4-4.4-4.4c-2.4,0-4.4,2-4.4,4.4C55.3,99.5,57.3,101.5,59.8,101.5"
			/>
		<path class="st2" d="M187.8,104.7c4.2,0,7.6-3.4,7.6-7.6c0-4.2-3.4-7.6-7.6-7.6c-4.2,0-7.6,3.4-7.6,7.6
			C180.2,101.3,183.6,104.7,187.8,104.7"/>
		<path class="st1" d="M187.8,105.1c-4.4,0-8-3.6-8-8c0-4.4,3.6-8,8-8c4.4,0,8,3.6,8,8C195.8,101.5,192.2,105.1,187.8,105.1z
			 M187.8,89.9c-4,0-7.2,3.3-7.2,7.2c0,4,3.3,7.2,7.2,7.2c4,0,7.2-3.2,7.2-7.2C195.1,93.1,191.8,89.9,187.8,89.9z"/>
		<path class="st1" d="M187.8,101.5c2.4,0,4.4-2,4.4-4.4c0-2.4-2-4.4-4.4-4.4c-2.4,0-4.4,2-4.4,4.4
			C183.4,99.5,185.4,101.5,187.8,101.5"/>
		<path class="st2" d="M315.9,104.7c4.2,0,7.6-3.4,7.6-7.6c0-4.2-3.4-7.6-7.6-7.6c-4.2,0-7.6,3.4-7.6,7.6
			C308.2,101.3,311.7,104.7,315.9,104.7"/>
		<path class="st1" d="M315.9,105.1c-4.4,0-8-3.6-8-8c0-4.4,3.6-8,8-8s8,3.6,8,8C323.8,101.5,320.3,105.1,315.9,105.1z M315.9,89.9
			c-4,0-7.2,3.3-7.2,7.2c0,4,3.3,7.2,7.2,7.2s7.2-3.2,7.2-7.2C323.1,93.1,319.9,89.9,315.9,89.9z"/>
		<path class="st1" d="M315.9,101.5c2.4,0,4.4-2,4.4-4.4c0-2.4-2-4.4-4.4-4.4c-2.4,0-4.4,2-4.4,4.4
			C311.4,99.5,313.4,101.5,315.9,101.5"/>
		<path class="st2" d="M443.9,104.7c4.2,0,7.6-3.4,7.6-7.6c0-4.2-3.4-7.6-7.6-7.6c-4.2,0-7.6,3.4-7.6,7.6
			C436.3,101.3,439.7,104.7,443.9,104.7"/>
		<path class="st1" d="M443.9,105.1c-4.4,0-8-3.6-8-8c0-4.4,3.6-8,8-8c4.4,0,8,3.6,8,8C451.9,101.5,448.3,105.1,443.9,105.1z
			 M443.9,89.9c-4,0-7.2,3.3-7.2,7.2c0,4,3.3,7.2,7.2,7.2s7.2-3.2,7.2-7.2C451.2,93.1,447.9,89.9,443.9,89.9z"/>
		<path class="st1" d="M443.9,101.5c2.4,0,4.4-2,4.4-4.4c0-2.4-2-4.4-4.4-4.4c-2.4,0-4.4,2-4.4,4.4
			C439.5,99.5,441.5,101.5,443.9,101.5"/>
		<path class="st2" d="M570.4,104.7c4.2,0,7.6-3.4,7.6-7.6c0-4.2-3.4-7.6-7.6-7.6c-4.2,0-7.6,3.4-7.6,7.6
			C562.8,101.3,566.2,104.7,570.4,104.7"/>
		<path class="st1" d="M570.4,105.1c-4.4,0-8-3.6-8-8c0-4.4,3.6-8,8-8s8,3.6,8,8C578.4,101.5,574.8,105.1,570.4,105.1z M570.4,89.9
			c-4,0-7.2,3.3-7.2,7.2c0,4,3.3,7.2,7.2,7.2c4,0,7.2-3.2,7.2-7.2C577.6,93.1,574.4,89.9,570.4,89.9z"/>
		<path class="st1" d="M570.4,101.5c2.4,0,4.4-2,4.4-4.4c0-2.4-2-4.4-4.4-4.4c-2.4,0-4.4,2-4.4,4.4
			C566,99.5,567.9,101.5,570.4,101.5"/>
		<path class="st3" d="M54.3,71.7c-0.4,0-0.8-0.1-1.1-0.2c-1.1-0.5-1.9-1.5-1.9-2.8v-7h-6.6c-4,0-7.2-3.2-7.2-7.2V23
			c0-4,3.2-7.2,7.2-7.2h31.7c4,0,7.2,3.2,7.2,7.2v31.6c0,4-3.2,7.2-7.2,7.2H65l-8.4,9.1C55.9,71.4,55.2,71.7,54.3,71.7z M44.7,17.7
			c-2.9,0-5.2,2.3-5.2,5.2v31.6c0,2.9,2.3,5.2,5.2,5.2h7.6c0.5,0,1,0.4,1,1v8c0,0.4,0.2,0.8,0.6,0.9c0.4,0.2,0.8,0.1,1.1-0.2
			l8.7-9.4c0.2-0.2,0.4-0.3,0.7-0.3h11.9c2.9,0,5.2-2.3,5.2-5.2V23c0-2.9-2.3-5.2-5.2-5.2H44.7z"/>
		<path class="st3" d="M58.1,35.3c0-0.5,0.4-0.9,0.9-0.9h3.3c0.4,0,0.9,0.4,0.9,0.9v17c0,0.5-0.4,0.9-0.9,0.9H59
			c-0.4,0-0.9-0.4-0.9-0.9V35.3z M57.3,27.9c0-1.8,1.4-3.2,3.2-3.2c1.8,0,3.2,1.4,3.2,3.2c0,1.8-1.4,3.2-3.2,3.2
			C58.7,31.2,57.3,29.7,57.3,27.9"/>
		<path class="st3" d="M213.3,63.9h-26.4c-0.5,0-1-0.4-1-1v-1.7c-1.9,1.9-4.4,3-6.9,2.6c-0.8-0.1-1.5-0.3-2.2-0.7
			c-0.8-0.4-1.7-0.4-2.5,0c-0.7,0.3-1.4,0.6-2.2,0.7c-4.9,0.7-9.8-4.1-10.6-10.5c-0.6-4.3,0.1-7.7,1.8-9.9c1.3-1.7,3.3-2.6,5.7-2.9
			c1.9-0.2,3.7,0.3,5.3,1.4c0-0.4,0-0.8-0.1-1.2l-0.1-1.2c0,0,0-0.1,0-0.1c-0.3-2-1-3.9-2-5.7c-0.3-0.5-0.1-1.1,0.4-1.3
			c0.5-0.3,1.1-0.1,1.3,0.4c0.5,0.9,0.9,1.8,1.3,2.7c0.1-0.1,0.2-0.2,0.3-0.4c1-1.3,2.4-2.1,4-2.2l2.5-0.3c0.3,0,0.5,0,0.7,0.2
			c0.2,0.2,0.3,0.4,0.4,0.7l0.3,2.5c0.2,1.6-0.2,3.1-1.2,4.4c-0.1,0.1-0.1,0.2-0.2,0.2c0.1,0,0.2,0,0.3,0c1.5,0.1,2.7,0.5,3.8,1.2
			V29.5c0-0.1,0-0.3,0.1-0.4c0,0,0,0,0,0c0,0,0,0,0,0v0c0-0.1,0.1-0.2,0.1-0.2l5.4-6.9v-4.7c0-0.5,0.4-1,1-1h15.8c0.5,0,1,0.4,1,1
			V22l4.8,6.9c0.1,0.2,0.2,0.4,0.2,0.6v33.4C214.3,63.4,213.8,63.9,213.3,63.9z M204.1,61.9h8.2V29.8l-4-5.8l-4.2,5.7V61.9z
			 M187.9,61.9h14.2V30.4l-14.2,0.1v12.6c0,0.1,0,0.2-0.1,0.3c1.8,2.2,2.4,5.7,1.9,10c-0.3,1.9-0.9,3.7-1.8,5.3V61.9z M175.6,60.9
			c0.7,0,1.5,0.2,2.1,0.5c0.5,0.2,1,0.4,1.6,0.5c2.5,0.3,5-1.3,6.7-3.9c0-0.1,0.1-0.2,0.2-0.3c0.8-1.3,1.3-2.9,1.6-4.6
			c0.4-2.8,0.4-6.5-1.7-8.7c0,0,0,0,0,0c-1-1.1-2.4-1.7-4.1-1.8c-1.7-0.2-3.3,0.4-4.7,1.7c-0.9,0.8-2.2,0.8-3.1,0
			c-1.4-1.2-3-1.8-4.7-1.7c-1.9,0.2-3.4,0.9-4.4,2.1c-1.8,2.3-1.8,5.8-1.4,8.4c0.7,5.3,4.5,9.3,8.4,8.8c0.5-0.1,1.1-0.2,1.6-0.5
			C174.2,61.1,174.9,60.9,175.6,60.9z M176.3,40.5l0,0.3l1.5-0.2c1.1-0.1,2-0.7,2.7-1.5c0.7-0.8,0.9-1.9,0.8-2.9l-0.2-1.5l-1.5,0.2
			c-1.1,0.1-2,0.7-2.7,1.5c-0.6,0.8-0.9,1.8-0.8,2.8C176.2,39.6,176.3,40.1,176.3,40.5z M193,23.2l-4.1,5.2l13.7-0.1l3.8-5.1H193z
			 M193.5,21.3h13.8v-3.1h-13.8V21.3z"/>
		<path class="st3" d="M339,65.2h-46c-0.5,0-1-0.4-1-1V40.7c0-3.3,0.6-6.5,1.8-9.7l1.3-3.5c0.3-0.8,0.5-1.7,0.5-2.6v-1.5h-0.1
			c-0.5,0-1-0.4-1-1V20c0-2.1,1.7-3.8,3.8-3.8h8.4c2.1,0,3.8,1.7,3.8,3.8v2.4c0,0.5-0.4,1-1,1h-0.1v1.5c0,0.9,0.2,1.7,0.5,2.6
			l1.1,2.9v-0.6c0-0.1,0-0.2,0.1-0.4c0,0,0,0,0,0c0,0,0,0,0,0c0,0,0,0,0,0c0-0.1,0.1-0.2,0.1-0.3l5.5-7.1v-4.9c0-0.5,0.4-1,1-1h16.2
			c0.5,0,1,0.4,1,1v4.9l5,7.1c0.1,0.2,0.2,0.4,0.2,0.6v34.4C340,64.7,339.5,65.2,339,65.2z M329.5,63.2h8.5V30.1l-4.2-6l-4.3,5.9
			V63.2z M312.9,63.2h14.7V30.7l-14.7,0.1V63.2z M294,63.2h16.9V40.7c0-3.1-0.6-6.1-1.6-9l-0.4-1H296l-0.4,1c-1.1,2.9-1.6,5.9-1.6,9
			V63.2z M318.1,23.4l-4.2,5.4l14.1-0.1l3.9-5.3H318.1z M296.7,28.7h11.4l-0.2-0.5c-0.4-1.1-0.6-2.2-0.6-3.3v-1.5h-9.8v1.5
			c0,1.1-0.2,2.2-0.6,3.3L296.7,28.7z M318.6,21.4h14.3v-3.2h-14.3V21.4z M308.3,21.4h0.1V20c0-1-0.8-1.8-1.8-1.8h-8.4
			c-1,0-1.8,0.8-1.8,1.8v1.4H308.3z"/>
	</g>
	<path class="st3" d="M594,71.3h-47.2c-0.5,0-1-0.4-1-1V32.8c0-0.4,0.2-0.7,0.5-0.9c0.3-0.2,0.7-0.1,1,0.1l5.3,3.9L558,32
		c0.3-0.3,0.8-0.3,1.2,0l5.3,3.9l5.3-3.9c0.3-0.3,0.8-0.3,1.2,0l5.3,3.9l5.3-3.9c0.3-0.3,0.8-0.3,1.2,0l5.3,3.9l5.3-3.9
		c0.3-0.2,0.7-0.3,1-0.1c0.3,0.2,0.5,0.5,0.5,0.9v37.5C595,70.8,594.5,71.3,594,71.3z M547.8,69.3H593V34.7l-4.3,3.2
		c-0.3,0.3-0.8,0.3-1.2,0l-5.3-3.9l-5.3,3.9c-0.3,0.3-0.8,0.3-1.2,0l-5.3-3.9l-5.3,3.9c-0.3,0.3-0.8,0.3-1.2,0l-5.3-3.9l-5.3,3.9
		c-0.3,0.3-0.8,0.3-1.2,0l-4.3-3.2V69.3z"/>
	<g>
		<path class="st3" d="M555.4,25.8l4.4-2.3c1.1-0.6,1.7-1.8,1.5-3l-0.4-2.7l-2.6,1.4c-1.1,0.6-1.7,1.8-1.5,3l0.2,1.2l-0.9-0.8
			c-0.9-0.8-2.2-1-3.3-0.4l-2.6,1.4l2,1.8C553,26.2,554.3,26.3,555.4,25.8"/>
		<path class="st3" d="M553.4,36.6c-0.4,0-0.8-0.3-1-0.7c-0.2-0.8-0.3-1.7-0.3-2.6c0-5.5,4.5-10.1,10.1-10.1s10.1,4.5,10.1,10.1
			c0,0.5-0.4,1-1,1s-1-0.4-1-1c0-4.5-3.6-8.1-8.1-8.1s-8.1,3.6-8.1,8.1c0,0.7,0.1,1.4,0.3,2.1c0.1,0.5-0.2,1.1-0.7,1.2
			C553.6,36.6,553.5,36.6,553.4,36.6z"/>
		<path class="st3" d="M567.1,53.9l-4.5,2.1c-0.4,0.2-0.5,0.9-0.1,1.6c0.4,0.6,1,0.9,1.4,0.7l4.1-2.9c0.2-0.2,0.3-0.6,0-1
			C567.7,54,567.4,53.8,567.1,53.9"/>
		<path class="st3" d="M577.4,47.4l-4.1,2.9c-0.2,0.2-0.3,0.6,0,1c0.2,0.4,0.6,0.6,0.9,0.5l4.5-2.1c0.4-0.2,0.5-0.9,0.1-1.6
			C578.5,47.4,577.9,47.1,577.4,47.4"/>
		<path class="st3" d="M563.8,47.4c-0.4-0.2-1.1,0.1-1.4,0.7c-0.4,0.6-0.3,1.3,0.1,1.6l4.5,2.1c0.3,0.1,0.7-0.1,0.9-0.5
			c0.2-0.4,0.2-0.8,0-1L563.8,47.4z"/>
		<path class="st3" d="M574.2,53.9c-0.3-0.1-0.7,0.1-0.9,0.5c-0.2,0.4-0.2,0.8,0,1l4.1,2.9c0.4,0.2,1.1-0.1,1.4-0.7
			c0.4-0.6,0.3-1.3-0.1-1.6L574.2,53.9z"/>
		<path class="st3" d="M570.6,55.9c-0.4,0-0.8,0.2-0.9,0.5l-0.4,5c0,0.5,0.6,0.9,1.3,0.9c0.7,0,1.3-0.4,1.3-0.9l-0.4-5
			C571.4,56.1,571.1,55.9,570.6,55.9"/>
		<path class="st3" d="M570.6,43.3c-0.7,0-1.3,0.4-1.3,0.9l0.4,5c0,0.3,0.4,0.5,0.9,0.5c0.4,0,0.8-0.2,0.9-0.5l0.4-5
			C571.9,43.7,571.4,43.3,570.6,43.3"/>
		<path class="st3" d="M585.8,36.4c-0.1,0-0.3,0-0.4-0.1c-0.5-0.2-0.7-0.8-0.5-1.3l3.5-8.4c1.3-3.1-0.2-6.7-3.3-8
			c-1.5-0.6-3.2-0.6-4.7,0c-1.5,0.6-2.7,1.8-3.3,3.3l-4.9,11.9c-0.2,0.5-0.8,0.7-1.3,0.5c-0.5-0.2-0.7-0.8-0.5-1.3l4.9-11.9
			c0.8-2,2.4-3.5,4.4-4.4c2-0.8,4.2-0.8,6.2,0c4.1,1.7,6.1,6.4,4.4,10.5l-3.5,8.4C586.6,36.2,586.2,36.4,585.8,36.4z"/>
		<path class="st3" d="M440.9,12.2c0.4,0,0.7,0.2,0.9,0.6c0.1,0.3,0.1,0.7-0.2,1c-0.3,0.3-0.7,0.3-1,0.2c-0.3-0.1-0.6-0.5-0.6-0.9
			C440,12.6,440.4,12.2,440.9,12.2z M440.9,15.8c0.7,0,1.4-0.3,1.9-0.8c0.5-0.5,0.8-1.2,0.8-1.9c0-0.7-0.3-1.4-0.8-1.9
			c-0.5-0.5-1.2-0.8-1.9-0.8c-0.7,0-1.4,0.3-1.9,0.8c-0.5,0.5-0.8,1.2-0.8,1.9c0,0.7,0.3,1.4,0.8,1.9
			C439.6,15.5,440.2,15.8,440.9,15.8z"/>
		<path class="st3" d="M447.8,19.1c0,0.4-0.2,0.7-0.6,0.9c-0.3,0.1-0.7,0.1-1-0.2c-0.3-0.3-0.3-0.7-0.2-1c0.1-0.3,0.5-0.6,0.9-0.6
			C447.4,18.2,447.8,18.6,447.8,19.1L447.8,19.1z M444.3,19.1c0,0.7,0.3,1.4,0.8,1.9c0.5,0.5,1.2,0.8,1.9,0.8c0.7,0,1.4-0.3,1.9-0.8
			c0.5-0.5,0.8-1.2,0.8-1.9c0-0.7-0.3-1.4-0.8-1.9c-0.5-0.5-1.2-0.8-1.9-0.8c-0.7,0-1.4,0.3-1.9,0.8
			C444.6,17.8,444.3,18.4,444.3,19.1z"/>
		<path class="st3" d="M439.5,20.6c0.2,0.2,0.4,0.2,0.6,0.2s0.4-0.1,0.6-0.2l7.7-7.7c0.2-0.2,0.3-0.4,0.3-0.6c0-0.2-0.1-0.4-0.2-0.6
			c-0.2-0.2-0.4-0.2-0.6-0.2c-0.2,0-0.4,0.1-0.6,0.3l-7.7,7.7v0C439.1,19.7,439.1,20.3,439.5,20.6z"/>
		<path class="st3" d="M443.9,6.9c2.5,0,4.8,1,6.5,2.7c1.7,1.7,2.7,4.1,2.7,6.5c0,2.5-1,4.8-2.7,6.5c-1.7,1.7-4.1,2.7-6.5,2.7
			s-4.8-1-6.5-2.7c-1.7-1.7-2.7-4.1-2.7-6.5c0-2.5,1-4.8,2.7-6.5C439.1,7.8,441.5,6.9,443.9,6.9z M443.9,27.1c2.9,0,5.7-1.2,7.7-3.2
			c2.1-2.1,3.2-4.8,3.2-7.7c0-2.9-1.2-5.7-3.2-7.7c-2.1-2.1-4.8-3.2-7.7-3.2s-5.7,1.2-7.7,3.2c-2.1,2.1-3.2,4.8-3.2,7.7
			c0,2.9,1.2,5.7,3.2,7.7C438.2,25.9,441,27.1,443.9,27.1"/>
		<path class="st3" d="M463.5,16.1c0,0.5,0.4,0.8,0.8,0.8h4c0.5,0,0.8-0.4,0.8-0.8c0-0.5-0.4-0.8-0.8-0.8h-4
			C463.9,15.3,463.5,15.7,463.5,16.1"/>
		<path class="st3" d="M466.4,7.6l-4,3c-0.4,0.3-0.4,0.8-0.2,1.2c0.3,0.4,0.8,0.4,1.2,0.2l4-3c0.4-0.3,0.4-0.8,0.2-1.2
			C467.3,7.4,466.8,7.3,466.4,7.6L466.4,7.6z"/>
		<path class="st3" d="M462.4,21.6l4,3c0.4,0.3,0.9,0.2,1.2-0.2c0.1-0.2,0.2-0.4,0.2-0.6c0-0.2-0.2-0.4-0.3-0.6l-4-3
			c-0.4-0.3-0.9-0.2-1.2,0.2C461.9,20.8,462,21.4,462.4,21.6L462.4,21.6z"/>
		<path class="st3" d="M418.6,16.1c0,0.5,0.4,0.8,0.8,0.8h4c0.5,0,0.8-0.4,0.8-0.8c0-0.5-0.4-0.8-0.8-0.8h-4
			C419,15.3,418.6,15.7,418.6,16.1"/>
		<path class="st3" d="M424.5,20.3l-4,3c-0.4,0.3-0.4,0.8-0.2,1.2c0.3,0.4,0.8,0.5,1.2,0.2l4-3c0.4-0.3,0.4-0.8,0.2-1.2
			C425.4,20.1,424.8,20,424.5,20.3L424.5,20.3z"/>
		<path class="st3" d="M425.5,10.6l-4-3c-0.4-0.3-0.9-0.2-1.2,0.2c-0.3,0.4-0.2,0.9,0.2,1.2l4,3c0.4,0.3,0.9,0.2,1.2-0.2
			C425.9,11.4,425.8,10.9,425.5,10.6L425.5,10.6z"/>
		<path class="st3" d="M448.9,49.4l-3.8-7.6l20.4-10.2l3.7,7L448.9,49.4z M464.5,57.9l-19.8,9.6V45l3,5.9c0.1,0.3,0.4,0.5,0.8,0.5
			c0.1,0,0.3,0,0.4-0.1l15.7-8.3L464.5,57.9z M443.9,40.4l-12.5-6.2c-0.4-0.2-0.8-0.1-1.1,0.3h0c-0.1,0.2-0.2,0.5-0.1,0.7
			c0.1,0.2,0.2,0.4,0.4,0.5l12.1,6l-3.8,7.6l-20.3-10.8l3.7-7l3.2,1.6c0.4,0.2,0.9,0,1.1-0.4c0.2-0.4,0-0.9-0.4-1.1l-2.2-1.1
			l9.5-3.2l0.7,1.3c0.3,0.6,0.8,1.2,1.4,1.5c0.6,0.4,1.3,0.5,2,0.5l1.6-0.1c0.4,0,0.8,0.1,1.2,0.3l1.3,0.9h0c0.6,0.4,1.3,0.6,2,0.6
			c0.7,0,1.4-0.2,2-0.6l1.3-0.9c0.4-0.2,0.8-0.3,1.2-0.3l1.6,0.1c0.7,0,1.4-0.1,2-0.5c0.6-0.4,1.1-0.9,1.4-1.5l0.7-1.3l9.5,3.3
			L443.9,40.4z M443.1,67.4l-19.8-9.6V42.9l15.7,8.3c0.1,0.1,0.3,0.1,0.4,0.1c0.1,0,0.2,0,0.3,0c0.2-0.1,0.4-0.2,0.5-0.4l3-5.9
			L443.1,67.4z M432.2,24.2c-0.3-0.2-0.6-0.4-0.8-0.8c-0.2-0.3-0.3-0.7-0.3-1.1l0.1-1.6c0-0.8-0.2-1.6-0.6-2.2l-0.9-1.3
			c-0.2-0.3-0.3-0.7-0.3-1.1c0-0.4,0.1-0.8,0.3-1.1l0.9-1.3c0.4-0.7,0.6-1.4,0.6-2.2l-0.1-1.6c0-0.4,0.1-0.8,0.3-1.1
			c0.2-0.3,0.5-0.6,0.8-0.8l1.4-0.7c0.7-0.4,1.3-0.9,1.6-1.6l0.7-1.4h0c0.2-0.3,0.4-0.6,0.8-0.8c0.3-0.2,0.7-0.3,1.1-0.3l1.6,0.1
			c0.8,0,1.6-0.2,2.2-0.6l1.3-0.9c0.3-0.2,0.7-0.3,1.1-0.3c0.4,0,0.8,0.1,1.1,0.3l1.3,0.9c0.7,0.4,1.4,0.6,2.2,0.6l1.6-0.1
			c0.4,0,0.8,0.1,1.1,0.3c0.3,0.2,0.6,0.5,0.8,0.8l0.7,1.4c0.4,0.7,0.9,1.3,1.6,1.6l1.4,0.7c0.3,0.2,0.6,0.4,0.8,0.8
			c0.2,0.3,0.3,0.7,0.3,1.1l-0.1,1.6v0c0,0.8,0.2,1.6,0.6,2.2l0.9,1.3c0.2,0.3,0.3,0.7,0.3,1.1c0,0.4-0.1,0.8-0.3,1.1l-0.9,1.3
			c-0.4,0.7-0.6,1.4-0.6,2.2l0.1,1.6h0c0,0.4-0.1,0.8-0.3,1.1c-0.2,0.3-0.5,0.6-0.8,0.8l-1.4,0.7c-0.7,0.4-1.3,0.9-1.6,1.6l-0.7,1.4
			c-0.2,0.3-0.4,0.6-0.8,0.8c-0.3,0.2-0.7,0.3-1.1,0.3l-1.6-0.1h0c-0.8,0-1.6,0.2-2.2,0.6l-1.3,0.9c-0.3,0.2-0.7,0.3-1.1,0.3
			c-0.4,0-0.8-0.1-1.1-0.3l-1.3-0.9c-0.6-0.4-1.3-0.6-2-0.6c-0.1,0-0.1,0-0.2,0l-1.6,0.1c-0.4,0-0.8-0.1-1.1-0.3
			c-0.3-0.2-0.6-0.5-0.8-0.8l-0.7-1.4c-0.4-0.7-0.9-1.3-1.6-1.6L432.2,24.2z M466.6,30c-0.1-0.2-0.3-0.4-0.5-0.4l-10.4-3.6l0.7-0.4
			l0,0c0.6-0.3,1.2-0.8,1.5-1.4c0.4-0.6,0.5-1.3,0.5-2l-0.1-1.6c0-0.4,0.1-0.8,0.3-1.2l0.9-1.3c0.4-0.6,0.6-1.3,0.6-2
			c0-0.7-0.2-1.4-0.6-2l-0.9-1.3h0c-0.2-0.4-0.3-0.8-0.3-1.2l0.1-1.6c0-0.7-0.1-1.4-0.5-2c-0.4-0.6-0.9-1.1-1.5-1.4L455,5.9h0
			c-0.4-0.2-0.7-0.5-0.9-0.9l-0.7-1.4c-0.3-0.6-0.8-1.2-1.4-1.5c-0.6-0.4-1.3-0.5-2-0.5l-1.6,0.1c-0.4,0-0.8-0.1-1.2-0.3l-1.3-0.9h0
			c-0.6-0.4-1.3-0.6-2-0.6c-0.7,0-1.4,0.2-2,0.6l-1.3,0.9c-0.4,0.2-0.8,0.3-1.2,0.3l-1.6-0.1c-0.7,0-1.4,0.1-2,0.5
			c-0.6,0.4-1.1,0.9-1.4,1.5L433.7,5c-0.2,0.4-0.5,0.7-0.9,0.9l-1.4,0.7v0c-0.6,0.3-1.2,0.8-1.5,1.4c-0.4,0.6-0.5,1.3-0.5,2l0.1,1.6
			v0c0,0.4-0.1,0.8-0.3,1.2l-0.9,1.3c-0.4,0.6-0.6,1.3-0.6,2c0,0.7,0.2,1.4,0.6,2l0.9,1.3c0.2,0.4,0.3,0.8,0.3,1.2l-0.1,1.6
			c0,0.7,0.1,1.4,0.5,2c0.4,0.6,0.9,1.1,1.5,1.4l0.8,0.4l-10.4,3.5c-0.2,0-0.4,0.2-0.5,0.4l-4.5,8.5c-0.2,0.4,0,0.9,0.4,1.1l4.5,2.4
			v16.4c0,0.3,0.2,0.6,0.5,0.8l21.5,10.4h0c0.1,0.1,0.2,0.1,0.4,0.1c0.1,0,0.3,0,0.4-0.1l21.5-10.4c0.3-0.1,0.5-0.4,0.5-0.8V42
			l4.5-2.4c0.4-0.2,0.6-0.7,0.4-1.1L466.6,30z"/>
		<path class="st3" d="M425.4,46.1c-0.5,0-0.8,0.4-0.8,0.8v0.8c0,0.5,0.4,0.8,0.8,0.8s0.8-0.4,0.8-0.8v-0.8
			C426.3,46.4,425.9,46.1,425.4,46.1"/>
		<path class="st3" d="M425.4,49.5c-0.5,0-0.8,0.4-0.8,0.8v5.7c0,0.5,0.4,0.8,0.8,0.8s0.8-0.4,0.8-0.8v-5.7
			C426.3,49.9,425.9,49.5,425.4,49.5"/>
	</g>
</g>
</svg>
