<svg xmlns="http://www.w3.org/2000/svg" viewBox="0 0 6.58 4.8"><defs><style>.cls-1{fill:#fdb71a;}</style></defs><g id="Layer_2" data-name="Layer 2"><g id="Layer_1-2" data-name="Layer 1"><path class="cls-1" d="M.43,1h.89A.15.15,0,0,0,1.47.8.15.15,0,0,0,1.32.65H.43A.15.15,0,0,0,.28.8.15.15,0,0,0,.43,1Z"/><path class="cls-1" d="M1,1.51a.15.15,0,0,0-.15-.15H.15a.15.15,0,1,0,0,.3H.81A.15.15,0,0,0,1,1.51Z"/><path class="cls-1" d="M6.54,2.61,6,2.08,5.48.81A.48.48,0,0,0,5,.51H4.82v0A.48.48,0,0,0,4.34,0H.81A.15.15,0,0,0,.66.15.15.15,0,0,0,.81.3H4.34a.18.18,0,0,1,.18.17v1.7a.15.15,0,0,0,.15.15H5.79l.49.46v1H5.87a.83.83,0,0,0-1.6.09H2.91a.82.82,0,0,0-1.62,0H.58V2.24a.15.15,0,0,0-.15-.15.15.15,0,0,0-.15.15V4a.15.15,0,0,0,.15.15h.86a.82.82,0,0,0,1.62,0H4.27a.83.83,0,0,0,.81.68A.81.81,0,0,0,5.9,4h.53a.15.15,0,0,0,.15-.15V2.72A.15.15,0,0,0,6.54,2.61ZM4.82,2V.81H5A.17.17,0,0,1,5.2.92L5.63,2ZM2.1,4.5A.53.53,0,0,1,1.57,4a.52.52,0,0,1,.53-.52A.52.52,0,0,1,2.62,4,.52.52,0,0,1,2.1,4.5Zm3,0A.52.52,0,0,1,4.56,4a.52.52,0,0,1,.52-.52.53.53,0,0,1,.52.42h0v0a.11.11,0,0,1,0,.05A.53.53,0,0,1,5.08,4.5Z"/></g></g></svg>