<svg xmlns="http://www.w3.org/2000/svg" viewBox="0 0 12.65 12.6"><defs><style>.cls-1{fill:#fdb71a;}</style></defs><g id="Layer_2" data-name="Layer 2"><g id="Layer_1-2" data-name="Layer 1"><path class="cls-1" d="M1.57,10.08A1.55,1.55,0,0,1,0,8.51V8A1.5,1.5,0,0,1,.88,6.62L3,5.55a3.14,3.14,0,0,1-.38-4.47A3.18,3.18,0,0,1,7.11.77a2.36,2.36,0,0,1,.5.63c.13.13.07.31-.06.44s-.06.06-.13.06a.35.35,0,0,1-.25-.12,2.58,2.58,0,0,0-3.52-.7A2.52,2.52,0,0,0,3,4.61a2.24,2.24,0,0,0,.75.75.39.39,0,0,1,.13.44c-.06,0-.06.07-.13.07L1.13,7.19A.9.9,0,0,0,.63,8v.5a1,1,0,0,0,.94.94.3.3,0,0,1,.32.32.3.3,0,0,1-.32.31m6-6.92a2.52,2.52,0,1,0,2.52,2.52A2.53,2.53,0,0,0,7.55,3.16M6.29,8.57,3.71,9.77a.8.8,0,0,0-.56.82V11a1,1,0,0,0,.94.94H11A1,1,0,0,0,12,11v-.44a1,1,0,0,0-.56-.89L8.81,8.57a2.81,2.81,0,0,1-1.26.25,2.81,2.81,0,0,1-1.26-.25m4.72,4H4.09A1.8,1.8,0,0,1,3,12.16,1.82,1.82,0,0,1,2.52,11v-.44a1.58,1.58,0,0,1,.94-1.45l2.2-1a3.14,3.14,0,1,1,4.41-.56,6.09,6.09,0,0,1-.57.56l2.2,1a1.59,1.59,0,0,1,1,1.45V11a1.82,1.82,0,0,1-.44,1.13,2.18,2.18,0,0,1-1.2.44"/></g></g></svg>