<svg xmlns="http://www.w3.org/2000/svg" viewBox="0 0 5.12 5.12"><defs><style>.cls-1{fill:#0071ce;}.cls-2{fill:#ffb71b;}</style></defs><g id="Layer_2" data-name="Layer 2"><g id="Layer_1-2" data-name="Layer 1"><circle class="cls-1" cx="2.56" cy="2.56" r="2.56"/><path class="cls-2" d="M2.89,4.14h0Zm0,0h0V4.11h0v0h0v0h0Zm0-.07a0,0,0,0,0,0,0,0,0,0,0,0,0,0,0,0,0,0,0,0-.08Zm0,0a.05.05,0,0,1,0,.1s-.06,0-.06-.05,0,0,.06,0Z"/><path class="cls-2" d="M2.13,2.31a.13.13,0,0,0,0-.16l-.66-.47c-.07,0-.17,0-.23.11S1.19,2,1.26,2L2,2.39a.15.15,0,0,0,.14-.08Z"/><path class="cls-2" d="M2.13,2.81c0,.07,0,.14,0,.17l-.66.45c-.07,0-.18,0-.23-.11s-.05-.21,0-.25L2,2.73a.16.16,0,0,1,.15.08Z"/><path class="cls-2" d="M2.56,3.06a.14.14,0,0,1,.14.09l.06.8c0,.08-.09.15-.21.14S2.34,4,2.34,4l.08-.8a.14.14,0,0,1,.14-.09Z"/><path class="cls-2" d="M3,2.82a.16.16,0,0,1,.15-.08l.73.35c.07,0,.08.15,0,.25s-.17.15-.24.11L3,3a.13.13,0,0,1,0-.16Z"/><path class="cls-2" d="M3,2.32a.14.14,0,0,0,.14.08l.74-.34a.19.19,0,0,0,0-.25c-.06-.1-.16-.15-.23-.11L3,2.15a.15.15,0,0,0,0,.17Z"/><path class="cls-2" d="M2.57,2.06c.07,0,.13,0,.14-.08l.07-.8c0-.08-.09-.15-.21-.15s-.21.06-.21.14L2.43,2s.06.08.14.08Z"/></g></g></svg>