<?xml version="1.0" encoding="utf-8"?>
<!-- Generator: Adobe Illustrator 25.4.1, SVG Export Plug-In . SVG Version: 6.00 Build 0)  -->
<svg version="1.1" id="Layer_1" xmlns="http://www.w3.org/2000/svg" xmlns:xlink="http://www.w3.org/1999/xlink" x="0px" y="0px"
	 viewBox="0 0 55.3 15.5" style="enable-background:new 0 0 55.3 15.5;" xml:space="preserve">
<style type="text/css">
	.st0{fill:#007DC3;}
	.st1{clip-path:url(#SVGID_00000062179097883898632000000008243276439824738980_);fill:#FFFFFF;}
	.st2{fill:#FFFFFF;}
	.st3{clip-path:url(#SVGID_00000140010733698741281430000012260789226661877639_);fill:#007DC3;}
	.st4{clip-path:url(#SVGID_00000140010733698741281430000012260789226661877639_);fill:#0066A0;}
	.st5{fill:#0066A0;}
</style>
<g>
	<rect y="0" class="st0" width="21.6" height="15.5"/>
	<g>
		<defs>
			<rect id="SVGID_1_" y="0" width="55.3" height="15.5"/>
		</defs>
		<clipPath id="SVGID_00000081606755789705831740000008763790425793901708_">
			<use xlink:href="#SVGID_1_"  style="overflow:visible;"/>
		</clipPath>
		<path style="clip-path:url(#SVGID_00000081606755789705831740000008763790425793901708_);fill:#FFFFFF;" d="M11.2,6.8H13v1.1h-1.8
			V6.8z M8.6,6.8h1.6v2.8H8.6V6.8z M11.1,6.7L11.1,6.7C11.1,6.7,11.1,6.7,11.1,6.7L11.1,8c0,0.1,0,0.1,0.1,0.1h1.9
			c0,0,0.1,0,0.1-0.1V6.7c0-0.1,0-0.1-0.1-0.1H11.1z M8.4,5.4c0.1,0.3,0.4,0.5,0.8,0.5c0.4,0,0.6-0.2,0.8-0.5
			c0.1,0.3,0.4,0.5,0.8,0.5c0.4,0,0.6-0.2,0.8-0.5c0.1,0.3,0.4,0.5,0.8,0.5c0.4,0,0.6-0.2,0.8-0.5c0.1,0.3,0.4,0.5,0.8,0.5
			c0,0,0.1,0,0.1,0v3.7h-3.7V6.7c0-0.1,0-0.1-0.1-0.1H8.5c0,0-0.1,0-0.1,0.1v2.8H7.6V5.9c0,0,0.1,0,0.1,0C8,5.9,8.3,5.7,8.4,5.4z
			 M8,2.8h5.5l1.1,1.8V5c0,0.4-0.3,0.7-0.7,0.7c-0.4,0-0.7-0.3-0.7-0.7h-0.2c0,0.4-0.3,0.7-0.7,0.7c-0.4,0-0.7-0.3-0.7-0.7h-0.2
			c0,0.4-0.3,0.7-0.7,0.7c-0.4,0-0.7-0.3-0.7-0.7H9.9c0,0.4-0.3,0.7-0.7,0.7C8.8,5.7,8.5,5.4,8.5,5H8.3c0,0.4-0.3,0.7-0.7,0.7
			C7.2,5.7,6.9,5.4,6.9,5l0-0.4L8,2.8z M7.9,2.6L7.9,2.6L6.8,4.5l0,0V5c0,0.4,0.3,0.8,0.6,0.9v3.8c0,0.1,0,0.1,0.1,0.1h6.7
			c0,0,0.1,0,0.1-0.1V5.9c0.4-0.1,0.6-0.5,0.6-0.9V4.5l0,0l-1.1-1.8l0,0H7.9z"/>
	</g>
	<g>
		<path class="st2" d="M6.8,13.5C6.8,13.5,6.8,13.5,6.8,13.5l0.1-0.2c0,0,0.1,0,0.1,0c0.1,0.1,0.2,0.1,0.3,0.1
			c0.1,0,0.2-0.1,0.2-0.2c0-0.1-0.1-0.2-0.3-0.3c-0.2-0.1-0.4-0.2-0.4-0.5c0-0.2,0.1-0.4,0.5-0.4c0.2,0,0.4,0.1,0.4,0.1
			c0,0,0,0,0,0.1l-0.1,0.1c0,0,0,0-0.1,0c-0.1-0.1-0.2-0.1-0.3-0.1c-0.1,0-0.2,0.1-0.2,0.1c0,0.1,0.1,0.2,0.3,0.2
			c0.2,0.1,0.4,0.2,0.4,0.5c0,0.2-0.2,0.4-0.5,0.4C7,13.7,6.9,13.5,6.8,13.5z"/>
		<path class="st2" d="M8.4,12.4H8.1c0,0,0,0,0,0v-0.2c0,0,0,0,0,0H9c0,0,0,0,0,0v0.2c0,0,0,0,0,0H8.7v1.2c0,0,0,0,0,0H8.4
			c0,0,0,0,0,0V12.4z"/>
		<path class="st2" d="M10,12.1c0.4,0,0.8,0.3,0.8,0.8c0,0.4-0.3,0.8-0.8,0.8s-0.8-0.3-0.8-0.8C9.2,12.5,9.6,12.1,10,12.1z M10,13.4
			c0.3,0,0.5-0.2,0.5-0.5c0-0.3-0.2-0.5-0.5-0.5c-0.3,0-0.5,0.2-0.5,0.5C9.5,13.2,9.7,13.4,10,13.4z"/>
		<path class="st2" d="M11.1,12.2C11.1,12.2,11.1,12.1,11.1,12.2l0.6,0c0.3,0,0.5,0.2,0.5,0.5c0,0.2-0.1,0.4-0.3,0.4l0.3,0.5
			c0,0,0,0.1,0,0.1h-0.2c0,0,0,0,0,0l-0.3-0.6h-0.2v0.5c0,0,0,0,0,0h-0.2c0,0,0,0,0,0V12.2z M11.7,12.8c0.1,0,0.2-0.1,0.2-0.2
			c0-0.1-0.1-0.2-0.2-0.2h-0.3v0.4H11.7z"/>
		<path class="st2" d="M12.6,12.2C12.6,12.2,12.6,12.1,12.6,12.2l0.9,0c0,0,0,0,0,0v0.2c0,0,0,0,0,0h-0.6v0.3h0.5c0,0,0,0,0,0V13
			c0,0,0,0,0,0h-0.5v0.4h0.6c0,0,0,0,0,0v0.2c0,0,0,0,0,0h-0.9c0,0,0,0,0,0V12.2z"/>
		<path class="st2" d="M13.8,13.5C13.8,13.5,13.8,13.5,13.8,13.5l0.1-0.2c0,0,0.1,0,0.1,0c0.1,0.1,0.2,0.1,0.3,0.1
			c0.1,0,0.2-0.1,0.2-0.2c0-0.1-0.1-0.2-0.3-0.3c-0.2-0.1-0.4-0.2-0.4-0.5c0-0.2,0.1-0.4,0.5-0.4c0.2,0,0.4,0.1,0.4,0.1
			c0,0,0,0,0,0.1l-0.1,0.1c0,0,0,0-0.1,0c-0.1-0.1-0.2-0.1-0.3-0.1c-0.1,0-0.2,0.1-0.2,0.1c0,0.1,0.1,0.2,0.3,0.2
			c0.2,0.1,0.4,0.2,0.4,0.5c0,0.2-0.2,0.4-0.5,0.4C14,13.7,13.9,13.5,13.8,13.5z"/>
	</g>
	<rect x="21.7" y="0.1" class="st2" width="33.6" height="15.3"/>
	<g>
		<defs>
			<rect id="SVGID_00000049223809125179422220000014949396224707096215_" y="0" width="55.3" height="15.5"/>
		</defs>
		<clipPath id="SVGID_00000161605795087312982680000002790207102447491715_">
			<use xlink:href="#SVGID_00000049223809125179422220000014949396224707096215_"  style="overflow:visible;"/>
		</clipPath>
		<path style="clip-path:url(#SVGID_00000161605795087312982680000002790207102447491715_);fill:#007DC3;" d="M55.3,15.5H21.6V0
			h33.7V15.5z M21.7,15.3h33.4V0.2H21.7V15.3z"/>
		<path style="clip-path:url(#SVGID_00000161605795087312982680000002790207102447491715_);fill:#0066A0;" d="M25,9.1l0.2-0.4
			c0.2,0.1,0.5,0.3,0.7,0.3c0.3,0,0.4-0.1,0.4-0.3c0-0.2-0.1-0.2-0.4-0.3c-0.5-0.1-0.8-0.3-0.8-0.8c0-0.4,0.3-0.7,0.9-0.7
			c0.3,0,0.6,0.1,0.8,0.2l-0.2,0.4c-0.1-0.1-0.3-0.2-0.6-0.2c-0.2,0-0.3,0.1-0.3,0.2c0,0.1,0.1,0.2,0.4,0.3c0.5,0.2,0.8,0.4,0.8,0.8
			c0,0.5-0.4,0.8-0.9,0.8C25.6,9.4,25.2,9.3,25,9.1"/>
		<path style="clip-path:url(#SVGID_00000161605795087312982680000002790207102447491715_);fill:#0066A0;" d="M28.3,7.3
			c-0.4,0-0.7,0.3-0.7,0.8c0,0.5,0.3,0.8,0.7,0.8c0.4,0,0.7-0.4,0.7-0.8C29,7.7,28.7,7.3,28.3,7.3 M29.1,8.9
			c-0.2,0.4-0.5,0.5-0.9,0.5c-0.6,0-1.1-0.5-1.1-1.3c0-0.8,0.5-1.3,1.1-1.3c0.4,0,0.7,0.2,0.9,0.5V6.9h0.5v2.5h-0.5V8.9z"/>
		<path style="clip-path:url(#SVGID_00000161605795087312982680000002790207102447491715_);fill:#0066A0;" d="M32.1,9.4h-0.5V7.9
			c0-0.3-0.2-0.5-0.5-0.5c-0.4,0-0.6,0.3-0.6,0.7v1.3H30V6.9h0.5v0.4c0.1-0.3,0.4-0.5,0.7-0.5c0.3,0,0.6,0.2,0.7,0.5
			c0.2-0.3,0.5-0.5,0.8-0.5c0.5,0,0.9,0.4,0.9,1v1.5h-0.5V7.9c0-0.3-0.2-0.5-0.5-0.5c-0.4,0-0.6,0.3-0.6,0.7V9.4z"/>
	</g>
	<polygon class="st5" points="33.9,6.2 34.5,6.2 34.2,7.2 33.8,7.2 	"/>
	<g>
		<path class="st5" d="M34.3,9.1l0.2-0.4c0.2,0.1,0.5,0.3,0.7,0.3c0.3,0,0.4-0.1,0.4-0.3c0-0.2-0.1-0.2-0.4-0.3
			c-0.5-0.1-0.8-0.3-0.8-0.8c0-0.4,0.3-0.7,0.9-0.7c0.3,0,0.6,0.1,0.8,0.2l-0.2,0.4c-0.1-0.1-0.3-0.2-0.6-0.2
			c-0.2,0-0.3,0.1-0.3,0.2c0,0.1,0.1,0.2,0.4,0.3c0.5,0.2,0.8,0.4,0.8,0.8c0,0.5-0.4,0.8-0.9,0.8C34.8,9.4,34.5,9.3,34.3,9.1"/>
		<path class="st5" d="M37.5,8.1c0-0.8,0.5-1.3,1.3-1.3c0.4,0,0.7,0.1,0.9,0.4l-0.3,0.4c-0.2-0.2-0.4-0.3-0.6-0.3
			c-0.5,0-0.8,0.3-0.8,0.8c0,0.5,0.3,0.8,0.8,0.8c0.2,0,0.4-0.1,0.6-0.3L39.8,9c-0.2,0.2-0.6,0.4-0.9,0.4
			C38.1,9.4,37.5,8.9,37.5,8.1"/>
		<path class="st5" d="M40.8,9.4c-0.5,0-0.8-0.2-0.8-0.8V6l0.5-0.1v2.6c0,0.2,0.1,0.3,0.3,0.3h0.1v0.5C40.9,9.4,40.8,9.4,40.8,9.4"
			/>
		<path class="st5" d="M41.1,8.3V6.9h0.5v1.5c0,0.3,0.2,0.5,0.6,0.5c0.3,0,0.6-0.2,0.6-0.5V6.9h0.5v1.4c0,0.7-0.4,1.1-1,1.1
			C41.5,9.4,41.1,9,41.1,8.3"/>
		<path class="st5" d="M44.9,8.9c0.4,0,0.7-0.3,0.7-0.8c0-0.5-0.3-0.8-0.7-0.8c-0.4,0-0.7,0.4-0.7,0.8C44.2,8.6,44.5,8.9,44.9,8.9
			 M45,9.4c-0.4,0-0.7-0.2-0.9-0.5v0.5h-0.5V6l0.5-0.1v1.5C44.3,7,44.7,6.8,45,6.8c0.6,0,1.1,0.5,1.1,1.3C46.2,8.9,45.7,9.4,45,9.4"
			/>
		<path class="st5" d="M46.4,9.2L46.4,9.2L46.4,9.2L46.4,9.2C46.4,9.2,46.4,9.2,46.4,9.2C46.4,9.2,46.4,9.2,46.4,9.2 M46.5,9.3
			L46.5,9.3L46.5,9.3l-0.1-0.1v0.1h-0.1V9.1h0.1c0,0,0.1,0,0.1,0.1C46.5,9.2,46.5,9.2,46.5,9.3L46.5,9.3z M46.4,9.1
			c-0.1,0-0.1,0.1-0.1,0.1c0,0.1,0.1,0.1,0.1,0.1c0.1,0,0.1-0.1,0.1-0.1C46.5,9.2,46.5,9.1,46.4,9.1 M46.4,9.4
			c-0.1,0-0.2-0.1-0.2-0.2s0.1-0.2,0.2-0.2c0.1,0,0.2,0.1,0.2,0.2S46.5,9.4,46.4,9.4"/>
		<path class="st5" d="M49.8,5.8l-0.3-0.3l-2.1,2.1c-0.1,0.1-0.1,0.3,0,0.4l2.1,2.1l0.3-0.3c0.1-0.1,0.1-0.3,0-0.4l-1.5-1.5l1.5-1.5
			C49.9,6.1,49.9,5.9,49.8,5.8"/>
		<path class="st5" d="M52.6,7.6l-2.1-2.1l-0.4,0.4c-0.1,0.1-0.1,0.3,0,0.4l1.6,1.6l-1.6,1.6c-0.1,0.1-0.1,0.3,0,0.4l0.4,0.4
			l2.1-2.1C52.7,7.8,52.7,7.7,52.6,7.6"/>
	</g>
</g>
</svg>
