<svg xmlns="http://www.w3.org/2000/svg" viewBox="0 0 13.04 12.91"><defs><style>.cls-1{fill:#fdb71a;}</style></defs><g id="Layer_2" data-name="Layer 2"><g id="Layer_1-2" data-name="Layer 1"><path class="cls-1" d="M4.54,5.22h.65V4.58H4.54Zm.65.64H4.54a.61.61,0,0,1-.65-.64V4.58a.61.61,0,0,1,.65-.64h.65a.6.6,0,0,1,.64.64v.64a.6.6,0,0,1-.64.64m-.33,3.2a.3.3,0,0,1-.32-.32.24.24,0,0,1,.06-.19L7.84,4.07a.33.33,0,0,1,.26-.13.34.34,0,0,1,.33.32c0,.06,0,.13-.07.13L5.12,8.87a.26.26,0,0,1-.26.19m2.92-.64h.65V7.78H7.78Zm.65.64H7.78a.61.61,0,0,1-.65-.64V7.78a.61.61,0,0,1,.65-.64h.65a.61.61,0,0,1,.65.64v.64a.61.61,0,0,1-.65.64M6.48,11.3c.07,0,.13,0,.13.07l1.49.83.78-1.47c.07-.13.13-.19.26-.19l1.69-.07L10.7,8.81a.32.32,0,0,1,.13-.26l1.36-1-1-1.35c-.06-.06-.06-.19-.06-.32l.58-1.53-1.56-.58a.26.26,0,0,1-.19-.26L9.59,1.89,8,2.27H7.91a.48.48,0,0,1-.26-.12L6.48.86,5.32,2.08a.33.33,0,0,1-.26.13H5L3.37,1.76,3.05,3.43c0,.12-.13.19-.2.25l-1.62.58L1.82,5.8c.06.12,0,.19-.07.32l-1,1.34,1.43,1a.53.53,0,0,1,.13.26l-.13,1.66,1.69.07c.12,0,.19.06.25.19l.78,1.47,1.49-.83c0,.06.07.06.13.06M4.73,12.91c-.13,0-.26-.07-.26-.2l-.84-1.6L1.75,11a.55.55,0,0,1-.26-.12c-.06-.07-.06-.13-.06-.26l.13-1.79-1.43-1A.31.31,0,0,1,0,7.53a.4.4,0,0,1,.06-.26L1.17,5.86.52,4.13a.26.26,0,0,1,.19-.38l1.75-.64.39-1.8c0-.13.2-.25.33-.25h.06L5,1.44,6.29.1a.31.31,0,0,1,.45,0L8,1.38,9.79,1a.38.38,0,0,1,.26.07c.06.06.13.12.13.19L10.57,3l1.75.64a.29.29,0,0,1,.19.39L11.86,5.8,13,7.27c.13.13.06.32-.07.45L11.41,8.81l.13,1.79a.3.3,0,0,1-.32.32l-1.82.13-.84,1.6a.39.39,0,0,1-.46.13L6.48,12l-1.62.89c0,.07-.06.07-.13.07"/></g></g></svg>