<svg xmlns="http://www.w3.org/2000/svg" viewBox="0 0 5.12 5.12"><defs><style>.cls-1{fill:#0067a0;}.cls-2{fill:#fff;}</style></defs><g id="Layer_2" data-name="Layer 2"><g id="Layer_1-2" data-name="Layer 1"><circle class="cls-1" cx="2.56" cy="2.56" r="2.56"/><path class="cls-2" d="M2.47,1.49,2.28,1.3,1.12,2.46a.13.13,0,0,0,0,.2L2.28,3.83l.19-.2a.15.15,0,0,0,0-.21l-.86-.86.86-.86A.14.14,0,0,0,2.47,1.49Z"/><path class="cls-2" d="M4,2.47,2.84,1.3l-.19.19a.14.14,0,0,0,0,.21l.86.86-.87.87a.14.14,0,0,0,0,.19l.2.21L4,2.66A.14.14,0,0,0,4,2.47Z"/></g></g></svg>