<svg xmlns="http://www.w3.org/2000/svg" viewBox="0 0 12.27 12.85"><defs><style>.cls-1{fill:#fdb71a;}</style></defs><g id="Layer_2" data-name="Layer 2"><g id="Layer_1-2" data-name="Layer 1"><path class="cls-1" d="M2.31.65A1.59,1.59,0,0,0,.71,2.26a1.58,1.58,0,0,0,1.6,1.6,1.58,1.58,0,0,0,1.6-1.6A1.59,1.59,0,0,0,2.31.65M10,3.86a1.61,1.61,0,1,0,1.6,1.61A1.59,1.59,0,0,0,10,3.86M2.31,9a1.61,1.61,0,0,0,0,3.21A1.61,1.61,0,0,0,2.31,9m0,3.85H2.18A2.32,2.32,0,0,1,0,10.54,2.4,2.4,0,0,1,2,8.35V4.5A2.34,2.34,0,0,1,.06,1.94,2.31,2.31,0,0,1,2.63,0,2.32,2.32,0,0,1,4.56,2.58,2.49,2.49,0,0,1,2.63,4.5V8.35a2.33,2.33,0,0,1,1.93,1.93H7.44A2.28,2.28,0,0,0,9.69,8V7.71A2.34,2.34,0,0,1,7.76,5.15a2.31,2.31,0,0,1,2.57-1.93,2.35,2.35,0,0,1,1.93,2.57,2.31,2.31,0,0,1-1.93,1.92V8a2.87,2.87,0,0,1-2.89,2.89H4.56a2.35,2.35,0,0,1-2.25,1.93"/></g></g></svg>