<?xml version="1.0" encoding="utf-8"?>
<!-- Generator: Adobe Illustrator 26.0.3, SVG Export Plug-In . SVG Version: 6.00 Build 0)  -->
<svg version="1.1" id="Capa_1" xmlns="http://www.w3.org/2000/svg" xmlns:xlink="http://www.w3.org/1999/xlink" x="0px" y="0px"
	 viewBox="0 0 89.7 59" style="enable-background:new 0 0 89.7 59;" xml:space="preserve">
<style type="text/css">
	.st0{fill:none;stroke:#0078BF;stroke-width:3;stroke-linecap:round;stroke-linejoin:round;}
	.st1{fill:#0078BF;}
	.st2{fill:#FBB800;stroke:#0078BF;stroke-width:3;stroke-linecap:round;stroke-linejoin:round;}
</style>
<path class="st0" d="M1.5,24.6h86.7 M79.2,57.5H10.5c-5,0-9-4-9-9V10.5c0-5,4-9,9-9h68.6c5,0,9,4,9,9v37.9
	C88.2,53.4,84.2,57.4,79.2,57.5C79.2,57.5,79.2,57.5,79.2,57.5z"/>
<path class="st1" d="M71.8,43.6c0.1,0.4,0.4,0.7,0.8,0.6c0.4,0,0.8-0.2,0.8-0.6l0.1-2l2-0.1c0.5-0.1,0.7-0.6,0.6-1.1
	c-0.1-0.3-0.3-0.5-0.6-0.6l-1.9-0.1l-0.1-2c-0.1-0.4-0.4-0.7-0.8-0.6c-0.4,0-0.8,0.2-0.8,0.6l-0.1,2l-2,0.1
	c-0.5,0.1-0.7,0.6-0.6,1.1c0.1,0.3,0.3,0.5,0.6,0.6l2,0.1L71.8,43.6z"/>
<path class="st1" d="M72,35.3l-0.4-4c0-0.4,0.5-0.7,1-0.7s1.1,0.3,1.1,0.7l-0.4,4c0,0.2-0.3,0.4-0.7,0.4S72,35.5,72,35.3"/>
<path class="st1" d="M77.1,44l3.3,2.3c0.3,0.2,0.9,0,1.2-0.5s0.2-1.1-0.1-1.3l-3.6-1.7c-0.3-0.1-0.6,0.1-0.7,0.4
	C76.9,43.5,76.9,43.8,77.1,44"/>
<path class="st1" d="M77,38.2c0.2,0.3,0.5,0.5,0.7,0.4l3.7-1.7c0.4-0.2,0.4-0.8,0.1-1.3s-0.8-0.8-1.2-0.5L77,37.3
	C76.8,37.6,76.8,37.9,77,38.2"/>
<path class="st1" d="M72,46.2l-0.4,4c0,0.4,0.5,0.7,1,0.7s1.1-0.3,1.1-0.7l-0.4-4c0-0.2-0.3-0.4-0.7-0.4S72,46,72,46.2"/>
<path class="st1" d="M59.3,36.1c0.2,0.9,0.7,3.7,0.7,3.7c0.2,1.1,0.4,2.3,0.6,3.2l0,0c0.2-1,0.4-1.9,0.6-3.1l0.9-3.8h2L65,40
	c0.2,1.1,0.4,1.9,0.5,3l0,0c0.2-1,0.3-1.9,0.6-3l0.8-3.8h1.9l-2.4,8.9c-1.5,0.3-2.1-0.3-2.3-1.2s-0.6-2.8-0.6-2.8
	c-0.2-0.9-0.4-1.8-0.5-2.7l0,0c-0.2,1-0.3,1.7-0.6,2.7l-1,4c-1.5,0.3-2.1-0.2-2.3-1.4c-0.3-1-1.8-7.5-1.8-7.5L59.3,36.1z"/>
<line class="st2" x1="1.5" y1="13.9" x2="88.2" y2="13.9"/>
</svg>
