<svg id="Capa_1" data-name="Capa 1" xmlns="http://www.w3.org/2000/svg" viewBox="0 0 76.73 73.57"><defs><style>.cls-1{fill:#fff;}</style></defs><path class="cls-1" d="M68.48,72.83l-3.6-3.46a1.3,1.3,0,0,0-.77-.35l-7.66-.82L46.86,59h0a1.2,1.2,0,0,1,0-1.71,1.32,1.32,0,0,1,1.77,0l5.42,5.2,1.8-1.73L39.66,45.16a1.17,1.17,0,0,1,0-1.73,1.35,1.35,0,0,1,1.8,0L53.17,54.67l.9.87,1.8-1.73-3.61-3.47a1.18,1.18,0,0,1,0-1.7,1.32,1.32,0,0,1,1.77,0l3.61,3.46,1.8-1.73-2.7-2.59a1.19,1.19,0,0,1,0-1.73,1.3,1.3,0,0,1,1.8,0l.89.86,1.8,1.73,1.8-1.73-1.79-1.73a1.2,1.2,0,0,1,0-1.73,1.35,1.35,0,0,1,1.8,0l9.74,9.35,2.6,5.83h0a1.36,1.36,0,0,0,.27.39l3.61,3.45ZM37.85,46.89l.9.86a4,4,0,0,1-2.51.93,3.91,3.91,0,0,1-2.53-.89,3.63,3.63,0,0,1-1.29-2.26A3.56,3.56,0,0,1,33,43a3.85,3.85,0,0,1,2.17-1.52,3.92,3.92,0,0,1,2.68.23,3.58,3.58,0,0,0,0,5.18ZM51.49,69.47a3.58,3.58,0,0,1-1.12,2.59,3.87,3.87,0,0,1-2.7,1.08H12a3.91,3.91,0,0,1-2.7-1.08,3.58,3.58,0,0,1-1.12-2.59V8.33A3.57,3.57,0,0,1,9.3,5.74,3.91,3.91,0,0,1,12,4.66h6.37V7.11a2.39,2.39,0,0,0,.75,1.73,2.6,2.6,0,0,0,1.8.71H38.76a2.6,2.6,0,0,0,1.8-.71,2.42,2.42,0,0,0,.74-1.73V4.66h6.37a3.87,3.87,0,0,1,2.7,1.08,3.57,3.57,0,0,1,1.12,2.59V46.2a3.51,3.51,0,0,0-1.76,1.72L43.26,41.7a3.84,3.84,0,0,0-2.6-1.05,6.54,6.54,0,0,0-8.94,0,5.92,5.92,0,0,0-.1,8.58A6.45,6.45,0,0,0,36,51.13a6.54,6.54,0,0,0,4.51-1.64l5.58,5.34A3.63,3.63,0,0,0,44,57.51a3.56,3.56,0,0,0,1.08,3.22l6.43,6.17ZM20.92,4.66H38.75V7.11H20.92ZM82,61.59l-4.33-4.16-2.6-5.83a1.3,1.3,0,0,0-.27-.39L64.88,41.7a4,4,0,0,0-5.4,0,3.65,3.65,0,0,0-1,1.62,3.93,3.93,0,0,0-2.75.39A3.63,3.63,0,0,0,54,45.8V8.33A6,6,0,0,0,52.17,4a6.47,6.47,0,0,0-4.5-1.79H12A6.47,6.47,0,0,0,7.5,4,6.06,6.06,0,0,0,5.63,8.33V69.47A6.06,6.06,0,0,0,7.5,73.79,6.47,6.47,0,0,0,12,75.58H47.67a6.47,6.47,0,0,0,4.5-1.79A6,6,0,0,0,54,69.47v-.12l.93.89a1.31,1.31,0,0,0,.76.35l7.67.82,4.18,4a1.31,1.31,0,0,0,.9.36,1.28,1.28,0,0,0,.9-.36L82,63.32A1.19,1.19,0,0,0,82,61.59Z" transform="translate(-5.63 -2.22)"/><path class="cls-1" d="M39.8,21.78,37.85,33a1.25,1.25,0,0,1-1.25,1H23.08a1.25,1.25,0,0,1-1.26-1L19.88,21.78ZM23.08,36.45H36.6a3.87,3.87,0,0,0,2.47-.86,3.67,3.67,0,0,0,1.3-2.2l2.19-12.63a1.16,1.16,0,0,0-.29-1,1.27,1.27,0,0,0-1-.44H37.71l1-5.91L36.22,13l-1.09,6.31H24.55L23.45,13l-2.51.4,1,5.91H18.37a1.28,1.28,0,0,0-1,.44,1.15,1.15,0,0,0-.28,1l2.19,12.63h0a3.58,3.58,0,0,0,1.29,2.2A3.9,3.9,0,0,0,23.08,36.45Z" transform="translate(-5.63 -2.22)"/><rect class="cls-1" x="22.93" y="22.01" width="2.55" height="7.34"/><rect class="cls-1" x="28.03" y="22.01" width="2.55" height="7.34"/><rect class="cls-1" x="17.83" y="22.01" width="2.55" height="7.34"/><rect class="cls-1" x="7.64" y="36.68" width="2.55" height="2.45"/><rect class="cls-1" x="12.74" y="36.68" width="7.64" height="2.45"/><rect class="cls-1" x="7.64" y="41.57" width="12.74" height="2.45"/><rect class="cls-1" x="7.64" y="46.46" width="12.74" height="2.45"/><rect class="cls-1" x="7.64" y="53.8" width="15.29" height="2.45"/><rect class="cls-1" x="25.48" y="53.8" width="2.55" height="2.45"/><rect class="cls-1" x="30.57" y="53.8" width="2.55" height="2.45"/><rect class="cls-1" x="7.64" y="58.69" width="25.48" height="2.45"/></svg>