<svg xmlns="http://www.w3.org/2000/svg" viewBox="0 0 15 12.52"><defs><style>.cls-1{fill:#fdb71a;}</style></defs><g id="Layer_2" data-name="Layer 2"><g id="Layer_1-2" data-name="Layer 1"><path class="cls-1" d="M3.18,2.05a.38.38,0,0,0-.39.38v5a.39.39,0,0,0,.77,0v-5A.38.38,0,0,0,3.18,2.05Z"/><path class="cls-1" d="M5.3,2.05a.38.38,0,0,0-.38.38v5a.39.39,0,0,0,.77,0v-5A.38.38,0,0,0,5.3,2.05Z"/><path class="cls-1" d="M2.47,9.11H.77V.77h1.7A.39.39,0,0,0,2.86.38.39.39,0,0,0,2.47,0H.38A.38.38,0,0,0,0,.38V9.49a.38.38,0,0,0,.38.39H2.47a.39.39,0,1,0,0-.77Z"/><path class="cls-1" d="M12.46.77h1.71V8.36a.38.38,0,1,0,.76,0v-8A.38.38,0,0,0,14.55,0H12.46a.38.38,0,0,0-.38.38A.38.38,0,0,0,12.46.77Z"/><path class="cls-1" d="M11.69,7.85a.39.39,0,0,0,.39-.38v-5a.39.39,0,0,0-.39-.38.38.38,0,0,0-.38.38v5A.38.38,0,0,0,11.69,7.85Z"/><path class="cls-1" d="M10,2.43a.39.39,0,0,0-.39-.38.38.38,0,0,0-.38.38v5a.38.38,0,0,0,.38.38A.39.39,0,0,0,10,7.47Z"/><rect class="cls-1" x="6.54" y="2.05" width="1.78" height="5.81" rx="0.38"/><path class="cls-1" d="M14.86,10.2l-2-1.63a.38.38,0,0,0-.47.6l1.18.95H10.31a.38.38,0,0,0,0,.76h3.21l-1.18.95a.38.38,0,0,0-.06.54.36.36,0,0,0,.3.15.35.35,0,0,0,.23-.09l2-1.63a.39.39,0,0,0,0-.6Z"/></g></g></svg>