<svg xmlns="http://www.w3.org/2000/svg" viewBox="0 0 6.58 6.4"><defs><style>.cls-1{fill:#fdb71a;}</style></defs><g id="Layer_2" data-name="Layer 2"><g id="Layer_1-2" data-name="Layer 1"><path class="cls-1" d="M6.54,4.21,6,3.68l-.5-1.27A.48.48,0,0,0,5,2.11H4.82v0a.47.47,0,0,0-.43-.46l.2-.5a.83.83,0,0,0,0-.62A.81.81,0,0,0,4.15.06a.79.79,0,0,0-1,.44l-.28.68A1,1,0,0,0,2,.65a1,1,0,0,0-.17,0A.25.25,0,0,0,1.87.45l0-.24L1.6.33a.28.28,0,0,0-.14.28V.72L1.39.65A.28.28,0,0,0,1.08.6L.84.73,1,.9A.25.25,0,0,0,1.24,1,.91.91,0,0,0,1,1.6H.81a.15.15,0,1,0,0,.3H4.34a.18.18,0,0,1,.18.17v1.7a.15.15,0,0,0,.15.15H5.79l.49.46v.94H5.87a.83.83,0,0,0-1.6.1H2.91a.82.82,0,0,0-1.62,0H.58V3.84a.15.15,0,0,0-.15-.15.15.15,0,0,0-.15.15V5.57a.15.15,0,0,0,.15.15h.86a.82.82,0,0,0,1.62,0H4.27a.84.84,0,0,0,.81.68.82.82,0,0,0,.82-.78h.53a.14.14,0,0,0,.15-.15V4.32A.15.15,0,0,0,6.54,4.21ZM3.38.61a.5.5,0,0,1,.93,0,.48.48,0,0,1,0,.39l-.25.6H3ZM2,1a.68.68,0,0,1,.68.65H1.27A.7.7,0,0,1,2,1ZM4.82,3.62V2.41H5a.17.17,0,0,1,.16.11l.43,1.1ZM2.1,6.1a.53.53,0,0,1-.53-.53.53.53,0,0,1,1.05,0A.53.53,0,0,1,2.1,6.1Zm3,0a.52.52,0,0,1-.52-.53.52.52,0,0,1,.52-.52.53.53,0,0,1,.52.43v0a.43.43,0,0,1,0,.05A.53.53,0,0,1,5.08,6.1Z"/><path class="cls-1" d="M.43,2.55h.89a.15.15,0,1,0,0-.3H.43a.15.15,0,1,0,0,.3Z"/><path class="cls-1" d="M1,3.11A.15.15,0,0,0,.81,3H.15a.15.15,0,1,0,0,.3H.81A.15.15,0,0,0,1,3.11Z"/><path class="cls-1" d="M2.1,3.74c-.05,0-.05.11,0,.18s.11.1.15.07l.45-.31s0-.07,0-.11-.07-.07-.1-.06Z"/><path class="cls-1" d="M3.9,2.87c0-.07-.11-.1-.16-.07l-.45.31a.09.09,0,0,0,0,.11.08.08,0,0,0,.1.06L3.88,3C3.93,3,3.94,2.94,3.9,2.87Z"/><path class="cls-1" d="M2.69,3.11,2.24,2.8s-.11,0-.15.07,0,.15,0,.17l.5.24s.07,0,.1-.06S2.72,3.13,2.69,3.11Z"/><path class="cls-1" d="M3.39,3.51a.08.08,0,0,0-.1.06.09.09,0,0,0,0,.11L3.74,4s.12,0,.16-.07a.13.13,0,0,0,0-.18Z"/><path class="cls-1" d="M3,4.44c.08,0,.15,0,.15-.1l-.05-.55a.1.1,0,0,0-.1,0c-.05,0-.09,0-.09,0l0,.55C2.85,4.4,2.91,4.44,3,4.44Z"/><path class="cls-1" d="M3.09,3l.05-.54c0-.06-.07-.1-.15-.1s-.14,0-.14.1L2.9,3s0,.06.09.06A.09.09,0,0,0,3.09,3Z"/></g></g></svg>