<svg xmlns="http://www.w3.org/2000/svg" viewBox="0 0 7.19 7.19"><defs><style>.cls-1{fill:#007dc3;}.cls-2{fill:#f9b848;}</style></defs><g id="Layer_2" data-name="Layer 2"><g id="Layer_1-2" data-name="Layer 1"><path class="cls-1" d="M3.59,7.19a3.6,3.6,0,1,1,3.6-3.6A3.6,3.6,0,0,1,3.59,7.19Zm0-7.11A3.51,3.51,0,1,0,7.1,3.59,3.52,3.52,0,0,0,3.59.08Z"/><path class="cls-2" d="M2.61,4.47H2.39a.11.11,0,0,1-.11-.11.1.1,0,0,1,.11-.11h.22a.1.1,0,0,1,.11.11.11.11,0,0,1-.11.11m.65,0H3.05a.1.1,0,0,1-.11-.11.1.1,0,0,1,.11-.11h.21a.1.1,0,0,1,.11.11.1.1,0,0,1-.11.11m.66,0H3.7a.1.1,0,0,1-.11-.11.1.1,0,0,1,.11-.11h.22A.1.1,0,0,1,4,4.36a.11.11,0,0,1-.11.11m.65,0H4.35a.1.1,0,0,1-.1-.11.1.1,0,0,1,.1-.11h.22a.1.1,0,0,1,.11.11.1.1,0,0,1-.11.11M2.39,4.9H2.17a.1.1,0,0,1-.11-.11.11.11,0,0,1,.11-.11h.22a.1.1,0,0,1,.11.11.1.1,0,0,1-.11.11m1.31,0H2.83a.1.1,0,0,1-.11-.11.1.1,0,0,1,.11-.11H3.7a.1.1,0,0,1,.11.11.1.1,0,0,1-.11.11m.65,0H4.14A.1.1,0,0,1,4,4.79a.1.1,0,0,1,.11-.11h.21a.1.1,0,0,1,.11.11.1.1,0,0,1-.11.11M5,4.9H4.79a.1.1,0,0,1-.11-.11.11.11,0,0,1,.11-.11H5a.11.11,0,0,1,.11.11A.1.1,0,0,1,5,4.9M2.39,2.07a.34.34,0,0,0-.33.32V3.81H5.12V2.39a.33.33,0,0,0-.33-.32ZM2,4,1.63,5a.12.12,0,0,0,.06.15H5.45A.1.1,0,0,0,5.55,5V5L5.16,4ZM5.45,5.34H1.74A.33.33,0,0,1,1.41,5a.3.3,0,0,1,0-.13l.42-1V2.39a.54.54,0,0,1,.54-.54h2.4a.54.54,0,0,1,.55.54V3.9l.41,1a.34.34,0,0,1-.17.44.32.32,0,0,1-.13,0"/><path class="cls-2" d="M3.27,3.38a0,0,0,0,1-.08,0s0,0,0,0,0,0,0,0m0-.18a.15.15,0,0,0-.15.16.15.15,0,0,0,.3,0,.15.15,0,0,0-.15-.16"/><path class="cls-2" d="M3.86,3.38a0,0,0,0,1,0,0s0,0,0,0a.06.06,0,0,1,0,0s0,0,0,0m0-.18a.15.15,0,0,0-.15.16.15.15,0,0,0,.3,0,.15.15,0,0,0-.15-.16"/><path class="cls-2" d="M4.17,2.44h0s0,0,0,0H4V2.31c0-.05,0-.07-.06-.07s-.07,0-.07.07v.13H3.71s-.07,0-.07.06a.06.06,0,0,0,.07.07h.13V2.7a.06.06,0,0,0,.07.07S4,2.74,4,2.7V2.57H4.1a.13.13,0,0,0,.07,0V2.44h0"/><path class="cls-2" d="M4,2.74s0,0,0,0v0l0,.11H3.16L3.1,2.57h.43c.05,0,.07,0,.07-.07s0-.06-.07-.06H3.08a.19.19,0,0,0-.18-.13h0s-.07,0-.07.06a.06.06,0,0,0,.07.07h0S3,2.46,3,2.5L3.05,3l0,.09a.18.18,0,0,0,.19.15H4s.07,0,.07-.06A.06.06,0,0,0,4,3.09H3.27s-.06,0-.06,0V3H4s0,0,.07,0l0-.15v0s0,0,0,0L4,2.74"/></g></g></svg>