<svg xmlns="http://www.w3.org/2000/svg" viewBox="0 0 5.12 5.12"><defs><style>.cls-1{fill:#3dae2b;}.cls-2{fill:#ffdb00;}.cls-3{fill:#e10e18;}.cls-4{fill:#fff;}</style></defs><g id="Layer_2" data-name="Layer 2"><g id="Layer_1-2" data-name="Layer 1"><circle class="cls-1" cx="2.56" cy="2.56" r="2.56"/><path class="cls-2" d="M2.61,2.42,3.7,3.71s.15.13.15-.1v-.4a3.69,3.69,0,0,0,0-.47,1.08,1.08,0,0,0-.2-.47,1.45,1.45,0,0,0-.37-.41S3.14,1.78,3,2l-.35.42"/><path class="cls-3" d="M1.45,3.66l.1-.11c.08-.11.17-.21.25-.31S2,3,2.14,2.84l.36-.42L2.89,2c.08-.09.2-.26.35-.19s.22.2.24.2a2.76,2.76,0,0,0-.19-.21l-.47-.55-.06-.07a.24.24,0,0,0-.38,0c-.21.21-.71.84-.71.84a2.89,2.89,0,0,0-.39.65,3.2,3.2,0,0,0,0,.44c0,.15,0,.3,0,.46s.07.24.17.12"/><path class="cls-4" d="M3.86,1.16a.1.1,0,0,1-.11.1.09.09,0,0,1-.1-.1.1.1,0,0,1,.1-.11A.11.11,0,0,1,3.86,1.16Zm-.19,0a.08.08,0,0,0,.08.08.07.07,0,0,0,.08-.08.07.07,0,0,0-.08-.08A.08.08,0,0,0,3.67,1.16Zm.07.05h0v-.1h.08s0,0,0,0a0,0,0,0,1,0,0h0l0,0v0h0s0,0,0,0a0,0,0,0,0,0,0h0Zm0-.06h0s0,0,0,0,0,0,0,0h0Z"/></g></g></svg>