<svg xmlns="http://www.w3.org/2000/svg" viewBox="0 0 12.99 11.69"><defs><style>.cls-1{fill:#fdb71a;}</style></defs><g id="Layer_2" data-name="Layer 2"><g id="Layer_1-2" data-name="Layer 1"><path class="cls-1" d="M2.21,2l.65,3.9h8.25L12.21,2Zm9.16,6.49H4A1.67,1.67,0,0,1,2.4,7.08l-.13-.84L1.49,1.49a1,1,0,0,0-1-.84H.32A.31.31,0,0,1,0,.32.3.3,0,0,1,.32,0h.2A1.65,1.65,0,0,1,2.14,1.3H12.66a.31.31,0,0,1,.33.32v.07l-1.3,4.55a.42.42,0,0,1-.32.25H3L3.05,7a1,1,0,0,0,1,.84h7.34a.33.33,0,0,1,0,.65M3.9,9.74a.65.65,0,1,0,0,1.3.65.65,0,1,0,0-1.3m0,1.95a1.3,1.3,0,1,1,1.3-1.3,1.3,1.3,0,0,1-1.3,1.3M9.74,9.74a.65.65,0,1,0,.65.65.61.61,0,0,0-.65-.65m0,1.95a1.3,1.3,0,1,1,1.3-1.3,1.3,1.3,0,0,1-1.3,1.3"/></g></g></svg>