<svg xmlns="http://www.w3.org/2000/svg" viewBox="0 0 11.21 12.57"><defs><style>.cls-1{fill:#fdb71a;}</style></defs><g id="Layer_2" data-name="Layer 2"><g id="Layer_1-2" data-name="Layer 1"><path class="cls-1" d="M5.29.66A2.65,2.65,0,1,0,7.94,3.31,2.65,2.65,0,0,0,5.29.66M5,10.58H1.65A1.63,1.63,0,0,1,0,8.93V8.47A1.67,1.67,0,0,1,1,7L3.31,5.89A3.29,3.29,0,1,1,8.6,3.31,3.25,3.25,0,0,1,7.34,5.89l1.72.73a.33.33,0,0,1,.2.46.34.34,0,0,1-.46.2L6.62,6.35a3,3,0,0,1-1.33.27A3,3,0,0,1,4,6.35L1.26,7.61a.85.85,0,0,0-.6.86v.46a1,1,0,0,0,1,1H5a.31.31,0,0,1,.33.33.31.31,0,0,1-.33.33m4,2a.31.31,0,0,1-.33-.33c0-.07.07-.2.07-.27l1.39-1.39H6.88a.31.31,0,0,1-.33-.33.31.31,0,0,1,.33-.33h3.18L8.67,8.53a.3.3,0,0,1,0-.46.32.32,0,0,1,.46,0l2,2a.3.3,0,0,1,0,.46l-2,2a.62.62,0,0,1-.2.07"/></g></g></svg>