<svg xmlns="http://www.w3.org/2000/svg" viewBox="0 0 13.6 10.93"><defs><style>.cls-1{fill:#fdb71a;}</style></defs><g id="Layer_2" data-name="Layer 2"><g id="Layer_1-2" data-name="Layer 1"><path class="cls-1" d="M10.56,5.48c-.07,0-.21-.06-.28-.06a.34.34,0,0,1,0-.48,2.05,2.05,0,0,0,0-2.93.34.34,0,0,1,.48-.48,2.72,2.72,0,0,1,0,3.89.81.81,0,0,1-.2.06m1.36,1.37a.32.32,0,0,1-.34-.34.59.59,0,0,1,.13-.28A3.7,3.7,0,0,0,12,.92L11.71.65a.43.43,0,0,1-.06-.48A.44.44,0,0,1,12.12.1a4.51,4.51,0,0,1,.34,6.34l-.34.34a.24.24,0,0,1-.2.07M5.45.72A2.72,2.72,0,1,0,8.17,3.44,2.73,2.73,0,0,0,5.45.72M4.09,6.57l-2.8,1.3a.87.87,0,0,0-.61.88v.48a1.05,1.05,0,0,0,1,1H9.19a1,1,0,0,0,1-1V8.75a1,1,0,0,0-.61-1L6.81,6.57a3,3,0,0,1-1.36.28,2.94,2.94,0,0,1-1.36-.28m5.1,4.36H1.7A1.69,1.69,0,0,1,0,9.23V8.75A1.71,1.71,0,0,1,1,7.19L3.4,6.1a3.39,3.39,0,0,1-.61-4.77A3.4,3.4,0,0,1,8.17,5.48a5.05,5.05,0,0,1-.61.62L9.94,7.19a1.7,1.7,0,0,1,1,1.56v.48a1.78,1.78,0,0,1-1.77,1.7"/></g></g></svg>