<svg xmlns="http://www.w3.org/2000/svg" viewBox="0 0 11.21 11.21"><defs><style>.cls-1{fill:#fdb71a;}</style></defs><g id="Layer_2" data-name="Layer 2"><g id="Layer_1-2" data-name="Layer 1"><path class="cls-1" d="M5.3,4.36H2.18a.29.29,0,0,1-.31-.31.29.29,0,0,1,.31-.31H5.3a.31.31,0,0,1,0,.62m0,1.25H2.18a.32.32,0,0,1,0-.63H5.3a.32.32,0,0,1,0,.63M4.05,6.85H2.18a.31.31,0,1,1,0-.62H4.05a.31.31,0,0,1,0,.62M2.8,8.1a.31.31,0,0,0,0,.62H4.67a.31.31,0,0,0,0-.62ZM4.67,9.34H2.8a.93.93,0,0,1,0-1.86H4.67a.93.93,0,1,1,0,1.86m3.12-5a.29.29,0,0,0-.31.31V8.41a.29.29,0,0,0,.31.31h.62a.29.29,0,0,0,.31-.31V4.67a.29.29,0,0,0-.31-.31Zm.62,5H7.79a1,1,0,0,1-.94-.93V4.67a1,1,0,0,1,.94-.93h.62a1,1,0,0,1,.93.93V8.41a1,1,0,0,1-.93.93M1.56.62a1,1,0,0,0-.94.94v.31h10V1.56A1,1,0,0,0,9.66.62ZM.62,2.49V9.66a1,1,0,0,0,.94.93h8.1a1,1,0,0,0,.93-.93V2.49Zm9,8.72H1.56A1.54,1.54,0,0,1,0,9.66V1.56A1.55,1.55,0,0,1,1.56,0h8.1a1.54,1.54,0,0,1,1.55,1.56v8.1a1.53,1.53,0,0,1-1.55,1.55"/></g></g></svg>