<svg id="Capa_1" data-name="Capa 1" xmlns="http://www.w3.org/2000/svg" viewBox="0 0 84.26 74.76"><defs><style>.cls-1{fill:#fdb71a;}</style></defs><path class="cls-1" d="M48.58,45.71H66.9v11.5H48.58Zm-27.48,0H37.59V74.46H21.1Zm26.56-1.92h0a.94.94,0,0,0-.91,1V58.17a.94.94,0,0,0,.91,1H67.81a.94.94,0,0,0,.92-1V44.75a.94.94,0,0,0-.92-1ZM19.27,30.55a9.12,9.12,0,0,0,8.24,5.57,9.12,9.12,0,0,0,8.25-5.57,8.88,8.88,0,0,0,16.48,0,8.89,8.89,0,0,0,16.49,0A9.11,9.11,0,0,0,77,36.12c.31,0,.62,0,.92,0V74.46H39.42V44.75h0a.94.94,0,0,0-.92-1H20.19a.94.94,0,0,0-.92,1V74.46H10.11V36.09a7,7,0,0,0,.92,0,9.11,9.11,0,0,0,8.24-5.57Zm-4.09-27H72.82L84.3,22v4.52a7.34,7.34,0,1,1-14.66,0H67.81a7.33,7.33,0,1,1-14.65,0H51.33a7.34,7.34,0,1,1-14.66,0H34.84a7.47,7.47,0,0,1-7.33,7.67,7.47,7.47,0,0,1-7.32-7.67H18.35A7.47,7.47,0,0,1,11,34.21,7.47,7.47,0,0,1,3.7,26.54V22Zm-1-1.92L13.92,2,2,21.21l-.14.24v5.09A9.58,9.58,0,0,0,8.28,35.7V75.42h0a.94.94,0,0,0,.92,1H78.8a.94.94,0,0,0,.92-1V35.7a9.58,9.58,0,0,0,6.41-9.16V21.45L86,21.21,74.08,2l-.29-.42H14.21Z" transform="translate(-1.87 -1.62)"/></svg>