<?xml version="1.0" encoding="utf-8"?>
<!-- Generator: Adobe Illustrator 25.4.1, SVG Export Plug-In . SVG Version: 6.00 Build 0)  -->
<svg version="1.1" id="Capa_1" xmlns="http://www.w3.org/2000/svg" xmlns:xlink="http://www.w3.org/1999/xlink" x="0px" y="0px"
	 viewBox="0 0 535 59.7" style="enable-background:new 0 0 535 59.7;" xml:space="preserve">
<style type="text/css">
	.st0{fill:#FFFFFF;}
</style>
<g>
	<path class="st0" d="M26,7.8c14.5,0,26,11.6,26,26.1c0,14.5-11.6,26-26,26c-14.5,0-26-11.5-26-26C0,19.4,11.5,7.8,26,7.8z M26,50.4
		c9.1,0,16.6-7.4,16.6-16.6S35.1,17.2,26,17.2S9.4,24.8,9.4,33.9S16.8,50.4,26,50.4z"/>
	<path class="st0" d="M66.8,8.9c0.1-0.6,0.5-1.1,1.3-1.1h1.2c0.6,0,1,0.3,1.2,0.7l15.9,34.1c0.1,0,0.1,0,0.2,0l15.9-34.1
		c0.2-0.4,0.6-0.7,1.2-0.7h1.2c0.8,0,1.2,0.5,1.3,1.1l8.5,48.6c0.2,1-0.4,1.7-1.3,1.7h-6.6c-0.7,0-1.2-0.6-1.4-1.1l-4.3-27.4
		c-0.1,0-0.2,0-0.2,0L88.3,59.1c-0.1,0.4-0.6,0.8-1.2,0.8h-1.3c-0.7,0-1-0.4-1.2-0.8L71.8,30.6c0,0-0.1,0-0.2,0L67.3,58
		c-0.1,0.5-0.7,1.1-1.3,1.1h-6.5c-0.9,0-1.5-0.7-1.4-1.7L66.8,8.9z"/>
	<path class="st0" d="M124.3,9.1c0-0.7,0.7-1.3,1.4-1.3h1.1c0.5,0,0.9,0.1,1.2,0.5l29.5,31.5h0.1V9.9c0-0.7,0.6-1.4,1.4-1.4h6.7
		c0.7,0,1.4,0.7,1.4,1.4v48.7c0,0.7-0.7,1.3-1.4,1.3h-1c-0.5,0-0.9-0.1-1.2-0.5l-29.6-32.7h-0.1v31.1c0,0.7-0.6,1.4-1.4,1.4h-6.6
		c-0.7,0-1.4-0.7-1.4-1.4V9.1z"/>
	<path class="st0" d="M179.3,9.9c0-0.7,0.7-1.4,1.4-1.4h6.7c0.7,0,1.4,0.7,1.4,1.4v47.9c0,0.7-0.7,1.4-1.4,1.4h-6.7
		c-0.7,0-1.4-0.7-1.4-1.4V9.9z"/>
	<path class="st0" d="M224.3,7.8c7.3,0,12.6,2.3,17.5,6.7c0.7,0.6,0.7,1.4,0.1,2l-4.4,4.6c-0.5,0.6-1.2,0.6-1.8,0
		c-3-2.7-7.1-4.3-11.1-4.3c-9.3,0-16.1,7.7-16.1,16.8c0,9,6.9,16.7,16.2,16.7c4.3,0,8-1.7,11.1-4.1c0.6-0.5,1.4-0.4,1.8,0l4.5,4.6
		c0.6,0.5,0.4,1.4-0.1,2c-4.9,4.8-11.1,7-17.6,7c-14.5,0-26.1-11.5-26.1-26C198.2,19.4,209.8,7.8,224.3,7.8z"/>
	<path class="st0" d="M250.9,9.9c0-0.7,0.7-1.4,1.4-1.4h6.7c0.8,0,1.4,0.7,1.4,1.4V29h23.6V9.9c0-0.7,0.6-1.4,1.4-1.4h6.7
		c0.7,0,1.4,0.7,1.4,1.4v47.9c0,0.7-0.7,1.4-1.4,1.4h-6.7c-0.8,0-1.4-0.7-1.4-1.4v-20h-23.6v20c0,0.7-0.6,1.4-1.4,1.4h-6.7
		c-0.7,0-1.4-0.7-1.4-1.4V9.9z"/>
	<path class="st0" d="M299.7,57.2l22.5-48.7c0.2-0.4,0.6-0.8,1.2-0.8h0.7c0.7,0,1,0.4,1.2,0.8l22.3,48.7c0.4,0.9-0.1,1.9-1.2,1.9
		h-6.3c-1.1,0-1.6-0.4-2.1-1.4l-3.5-7.8h-21.6l-3.5,7.8c-0.3,0.7-0.9,1.4-2.1,1.4h-6.3C299.8,59.1,299.2,58.2,299.7,57.2z
		 M330.9,41.8l-7.2-15.9h-0.2l-7.1,15.9H330.9z"/>
	<path class="st0" d="M354,9.1c0-0.7,0.7-1.3,1.4-1.3h1.1c0.5,0,0.9,0.1,1.2,0.5l29.5,31.5h0.1V9.9c0-0.7,0.6-1.4,1.4-1.4h6.7
		c0.7,0,1.4,0.7,1.4,1.4v48.7c0,0.7-0.7,1.3-1.4,1.3h-1c-0.5,0-0.9-0.1-1.2-0.5l-29.6-32.7h-0.1v31.1c0,0.7-0.6,1.4-1.4,1.4h-6.6
		c-0.7,0-1.4-0.7-1.4-1.4V9.1z"/>
	<path class="st0" d="M409.1,9.1c0-0.7,0.7-1.3,1.4-1.3h1.1c0.5,0,0.9,0.1,1.2,0.5l29.5,31.5h0.1V9.9c0-0.7,0.6-1.4,1.4-1.4h6.7
		c0.7,0,1.4,0.7,1.4,1.4v48.7c0,0.7-0.7,1.3-1.4,1.3h-1c-0.5,0-0.9-0.1-1.2-0.5l-29.6-32.7h-0.1v31.1c0,0.7-0.6,1.4-1.4,1.4h-6.6
		c-0.7,0-1.4-0.7-1.4-1.4V9.1z"/>
	<path class="st0" d="M464.1,9.9c0-0.7,0.6-1.4,1.4-1.4h29.4c0.8,0,1.4,0.7,1.4,1.4v5.9c0,0.7-0.6,1.4-1.4,1.4h-21.4V29h17.9
		c0.7,0,1.4,0.7,1.4,1.4v6c0,0.8-0.7,1.4-1.4,1.4h-17.9v12.7h21.4c0.8,0,1.4,0.7,1.4,1.4v5.9c0,0.7-0.6,1.4-1.4,1.4h-29.4
		c-0.8,0-1.4-0.7-1.4-1.4V9.9z"/>
	<path class="st0" d="M505.8,9.9c0-0.7,0.6-1.4,1.4-1.4h6.7c0.7,0,1.4,0.7,1.4,1.4v40.6h18.4c0.8,0,1.4,0.7,1.4,1.4v5.9
		c0,0.7-0.6,1.4-1.4,1.4h-26.5c-0.8,0-1.4-0.7-1.4-1.4V9.9z"/>
</g>
</svg>
