<?xml version="1.0" encoding="utf-8"?>
<!-- Generator: Adobe Illustrator 25.4.1, SVG Export Plug-In . SVG Version: 6.00 Build 0)  -->
<svg version="1.1" id="Capa_1" xmlns="http://www.w3.org/2000/svg" xmlns:xlink="http://www.w3.org/1999/xlink" x="0px" y="0px"
	 viewBox="0 0 487.6 56" style="enable-background:new 0 0 487.6 56;" xml:space="preserve">
<style type="text/css">
	.st0{fill:#FFFFFF;}
</style>
<g>
	<path class="st0" d="M44.8,0c15.6,0,28,12.5,28,28.1c0,15.6-12.4,27.9-28,27.9c-15.6,0-27.9-12.4-27.9-27.9
		C16.9,12.5,29.3,0,44.8,0z M44.8,45.9c9.8,0,17.9-8,17.9-17.8c0-9.8-8.1-18-17.9-18S27,18.3,27,28.1C27,37.9,35,45.9,44.8,45.9z"/>
	<path class="st0" d="M82.9,1.4c0-0.8,0.7-1.4,1.5-1.4h1.2c0.5,0,0.9,0.2,1.3,0.5l31.7,33.8h0.2V2.3c0-0.8,0.6-1.5,1.5-1.5h7.2
		c0.8,0,1.5,0.7,1.5,1.5v52.3c0,0.8-0.7,1.4-1.5,1.4h-1.1c-0.5,0-0.9-0.2-1.3-0.5L93.1,20.3h-0.2v33.4c0,0.8-0.6,1.5-1.5,1.5h-7.1
		c-0.8,0-1.5-0.7-1.5-1.5V1.4z"/>
	<path class="st0" d="M142.1,2.3c0-0.8,0.6-1.5,1.4-1.5H162c15,0,27.3,12.2,27.3,27.1c0,15.1-12.3,27.3-27.3,27.3h-18.4
		c-0.8,0-1.4-0.7-1.4-1.5V2.3z M161,45.7c10.1,0,17.5-7.2,17.5-17.8c0-10.6-7.4-17.7-17.5-17.7h-8.9v35.5H161z"/>
	<path class="st0" d="M199.3,2.3c0-0.8,0.6-1.5,1.5-1.5h31.7c0.9,0,1.5,0.7,1.5,1.5v6.4c0,0.8-0.6,1.5-1.5,1.5h-23v12.8h19.2
		c0.8,0,1.5,0.7,1.5,1.5v6.5c0,0.9-0.7,1.5-1.5,1.5h-19.2v13.6h23c0.9,0,1.5,0.7,1.5,1.5v6.4c0,0.8-0.6,1.5-1.5,1.5h-31.7
		c-0.9,0-1.5-0.7-1.5-1.5V2.3z"/>
	<path class="st0" d="M250.5,1.2c0.1-0.6,0.5-1.2,1.4-1.2h1.2c0.6,0,1.1,0.3,1.3,0.8l17.1,36.7c0.2,0,0.2,0,0.2,0l17.1-36.7
		c0.2-0.5,0.6-0.8,1.3-0.8h1.2c0.9,0,1.3,0.5,1.4,1.2l9.2,52.3c0.2,1.1-0.4,1.8-1.4,1.8h-7.1c-0.7,0-1.3-0.6-1.5-1.2l-4.6-29.5
		c-0.1,0-0.2,0-0.2,0l-13.6,30.6c-0.2,0.5-0.6,0.9-1.3,0.9h-1.4c-0.7,0-1.1-0.4-1.3-0.9l-13.8-30.6c0,0-0.2,0-0.2,0l-4.5,29.5
		c-0.1,0.5-0.7,1.2-1.4,1.2h-7c-1,0-1.6-0.7-1.5-1.8L250.5,1.2z"/>
	<path class="st0" d="M305.9,53.2l24.2-52.3c0.2-0.5,0.6-0.9,1.3-0.9h0.8c0.8,0,1.1,0.4,1.3,0.9l24,52.3c0.5,1-0.2,2-1.3,2h-6.8
		c-1.2,0-1.7-0.5-2.3-1.6l-3.8-8.4H320l-3.8,8.4c-0.3,0.8-1,1.6-2.3,1.6h-6.8C306,55.2,305.4,54.2,305.9,53.2z M339.5,36.6
		l-7.8-17.1h-0.2l-7.6,17.1H339.5z"/>
	<path class="st0" d="M364.3,1.4c0-0.8,0.7-1.4,1.5-1.4h1.2c0.5,0,0.9,0.2,1.3,0.5L400,34.4h0.2V2.3c0-0.8,0.6-1.5,1.5-1.5h7.2
		c0.8,0,1.5,0.7,1.5,1.5v52.3c0,0.8-0.7,1.4-1.5,1.4h-1.1c-0.5,0-0.9-0.2-1.3-0.5l-31.9-35.2h-0.2v33.4c0,0.8-0.6,1.5-1.5,1.5h-7.1
		c-0.8,0-1.5-0.7-1.5-1.5V1.4z"/>
	<path class="st0" d="M423.5,2.3c0-0.8,0.6-1.5,1.4-1.5h18.4c15,0,27.3,12.2,27.3,27.1c0,15.1-12.3,27.3-27.3,27.3h-18.4
		c-0.8,0-1.4-0.7-1.4-1.5V2.3z M442.4,45.7c10.1,0,17.5-7.2,17.5-17.8c0-10.6-7.4-17.7-17.5-17.7h-8.9v35.5H442.4z"/>
</g>
</svg>
