<?xml version="1.0" encoding="utf-8"?>
<!-- Generator: Adobe Illustrator 25.4.1, SVG Export Plug-In . SVG Version: 6.00 Build 0)  -->
<svg version="1.1" id="Capa_1" xmlns="http://www.w3.org/2000/svg" xmlns:xlink="http://www.w3.org/1999/xlink" x="0px" y="0px"
	 viewBox="0 0 522.5 56" style="enable-background:new 0 0 522.5 56;" xml:space="preserve">
<style type="text/css">
	.st0{fill:#FFFFFF;}
</style>
<g>
	<path class="st0" d="M61.1,54.5H30.5c-0.9,0-1.6-0.7-1.6-1.6V3.1c0-0.9,0.7-1.6,1.6-1.6h30.6c0.9,0,1.6,0.7,1.6,1.6v6.2
		c0,0.9-0.7,1.6-1.6,1.6H39v12h18.4c0.8,0,1.6,0.7,1.6,1.6v6.2c0,0.9-0.7,1.6-1.6,1.6H39v12.9h22.1c0.9,0,1.6,0.7,1.6,1.6v6.2
		C62.7,53.8,62,54.5,61.1,54.5z M30.5,1.8c-0.7,0-1.3,0.6-1.3,1.3v49.8c0,0.7,0.6,1.3,1.3,1.3h30.6c0.7,0,1.3-0.6,1.3-1.3v-6.2
		c0-0.7-0.6-1.3-1.3-1.3H38.7V32h18.7c0.7,0,1.3-0.6,1.3-1.3v-6.2c0-0.7-0.6-1.3-1.3-1.3H38.7V10.5h22.4c0.7,0,1.3-0.6,1.3-1.3V3.1
		c0-0.7-0.6-1.3-1.3-1.3H30.5z"/>
	<path class="st0" d="M95.7,55.3c-7.3,0-14.2-2.8-19.3-7.9c-5.2-5.1-8-12-8-19.3c0-7.3,2.8-14.2,8-19.3c5.1-5.1,12-8,19.3-8
		c7.2,0,12.9,2.2,18.3,7c0.4,0.3,0.6,0.7,0.6,1.2c0,0.4-0.2,0.8-0.5,1.2l-4.6,4.7c-0.3,0.3-0.6,0.5-1,0.5c-0.4,0-0.8-0.2-1.1-0.5
		c-3.2-2.8-7.4-4.4-11.5-4.4c-9.3,0-16.6,7.6-16.6,17.4c0,4.6,1.7,8.9,4.8,12.1c3.1,3.3,7.4,5.1,11.9,5.1c4.1,0,7.9-1.4,11.4-4.3
		c0.7-0.6,1.6-0.5,2.1,0l4.7,4.8c0.3,0.2,0.4,0.6,0.4,1c0,0.5-0.2,1-0.5,1.3C109.1,52.7,102.8,55.3,95.7,55.3z M95.7,1
		c-7.2,0-14,2.8-19.1,7.9c-5.1,5.1-7.9,11.9-7.9,19.1c0,7.2,2.8,14,7.9,19.1c5.1,5,11.9,7.8,19.1,7.8c7,0,13.3-2.5,18.2-7.3
		c0.3-0.3,0.4-0.7,0.4-1.1c0-0.2-0.1-0.5-0.3-0.7l-4.7-4.8c-0.4-0.4-1.1-0.5-1.7,0c-3.6,2.9-7.5,4.3-11.6,4.3c-4.6,0-9-1.9-12.2-5.2
		c-3.1-3.3-4.9-7.7-4.9-12.3c0-9.9,7.4-17.7,16.9-17.7c4.2,0,8.5,1.6,11.7,4.5c0.3,0.3,0.6,0.4,0.9,0.4c0,0,0,0,0,0
		c0.3,0,0.5-0.1,0.8-0.4l4.6-4.7c0.3-0.3,0.4-0.6,0.4-1c0-0.3-0.2-0.7-0.5-0.9C108.4,3.2,102.8,1,95.7,1z"/>
	<path class="st0" d="M146.2,55.3c-7.3,0-14.2-2.8-19.3-7.9c-5.1-5.1-7.9-11.9-7.9-19.3c0-7.3,2.8-14.2,7.9-19.3
		c5.1-5.2,12-8,19.3-8c7.3,0,14.2,2.8,19.3,8c5.1,5.1,7.9,12,7.9,19.3c0,7.3-2.8,14.2-7.9,19.3C160.3,52.4,153.5,55.3,146.2,55.3z
		 M146.2,1c-7.2,0-14,2.8-19.1,7.9c-5,5.1-7.8,11.9-7.8,19.1c0,7.2,2.8,14,7.8,19.1c5,5,11.8,7.8,19.1,7.8c7.2,0,14-2.8,19.1-7.8
		c5.1-5.1,7.9-11.8,7.9-19.1c0-7.2-2.8-14-7.9-19.1C160.2,3.9,153.4,1,146.2,1z M146.2,45.5c-9.6,0-17.4-7.8-17.4-17.4
		c0-9.7,7.8-17.5,17.4-17.5c4.6,0,9,1.8,12.3,5.2c3.3,3.3,5.1,7.7,5.1,12.4C163.6,37.7,155.8,45.5,146.2,45.5z M146.2,10.8
		c-9.4,0-17.1,7.7-17.1,17.2c0,9.4,7.7,17.1,17.1,17.1c9.5,0,17.2-7.7,17.2-17.1c0-4.6-1.8-8.9-5.1-12.1
		C155,12.6,150.7,10.8,146.2,10.8z"/>
	<path class="st0" d="M209.8,55.3h-1.4c-0.6,0-1.1-0.3-1.4-0.9l-13.3-29.5l-4.3,28.4c-0.1,0.6-0.7,1.3-1.5,1.3h-6.8
		c-0.5,0-1-0.2-1.2-0.5c-0.3-0.3-0.4-0.8-0.3-1.4l9-50.6c0.1-0.6,0.5-1.3,1.5-1.3h1.2c0.6,0,1.1,0.3,1.4,0.8L209.2,37h0l16.5-35.5
		c0.3-0.6,0.7-0.8,1.4-0.8h1.2c1,0,1.4,0.7,1.5,1.3l8.9,50.6c0.1,0.5,0,1-0.3,1.4c-0.3,0.3-0.7,0.5-1.2,0.5h-6.9
		c-0.7,0-1.4-0.6-1.6-1.2l-4.4-28.4l-13.1,29.5C211,54.9,210.5,55.3,209.8,55.3z M193.5,24.5h0.5l0,0.1l13.3,29.6
		c0.2,0.5,0.6,0.7,1.1,0.7h1.4c0.7,0,1-0.4,1.1-0.7l13.2-29.7h0.5l0,0.1l4.4,28.5c0.1,0.5,0.7,1,1.3,1h6.9c0.4,0,0.8-0.1,1-0.4
		c0.2-0.3,0.3-0.7,0.2-1.1L229.5,2c-0.1-0.5-0.4-1-1.2-1h-1.2c-0.6,0-0.9,0.2-1.1,0.7l-16.6,35.6H209l0-0.1L192.4,1.7
		c-0.2-0.4-0.6-0.7-1.1-0.7H190c-0.8,0-1.1,0.5-1.2,1l0,0l-9,50.6c-0.1,0.5,0,0.9,0.3,1.1c0.2,0.3,0.6,0.4,1,0.4h6.8
		c0.6,0,1.1-0.5,1.2-1L193.5,24.5z"/>
	<path class="st0" d="M275.8,55.3h-1.4c-0.6,0-1.1-0.3-1.4-0.9l-13.3-29.5l-4.3,28.4c-0.1,0.6-0.7,1.3-1.5,1.3h-6.8
		c-0.5,0-1-0.2-1.2-0.5c-0.3-0.3-0.4-0.8-0.3-1.4l9-50.6c0.1-0.6,0.5-1.3,1.5-1.3h1.2c0.6,0,1.1,0.3,1.4,0.8L275.1,37h0l16.5-35.5
		c0.3-0.6,0.7-0.8,1.4-0.8h1.2c1,0,1.4,0.7,1.5,1.3l8.9,50.6c0.1,0.5,0,1-0.3,1.4c-0.3,0.3-0.7,0.5-1.2,0.5h-6.9
		c-0.7,0-1.4-0.6-1.6-1.2l-4.4-28.4l-13.1,29.5C277,54.9,276.5,55.3,275.8,55.3z M259.5,24.5h0.5l0,0.1l13.3,29.6
		c0.2,0.5,0.6,0.7,1.1,0.7h1.4c0.7,0,1-0.4,1.1-0.7l13.2-29.7h0.5l0,0.1l4.4,28.5c0.1,0.5,0.7,1,1.3,1h6.9c0.4,0,0.8-0.1,1-0.4
		c0.2-0.3,0.3-0.7,0.2-1.1L295.5,2c-0.1-0.5-0.4-1-1.2-1h-1.2c-0.6,0-0.9,0.2-1.1,0.7l-16.6,35.6h-0.4l0-0.1L258.3,1.7
		c-0.2-0.4-0.6-0.7-1.1-0.7H256c-0.8,0-1.1,0.5-1.2,1l0,0l-9,50.6c-0.1,0.5,0,0.9,0.3,1.1c0.2,0.3,0.6,0.4,1,0.4h6.8
		c0.6,0,1.1-0.5,1.2-1L259.5,24.5z"/>
	<path class="st0" d="M346.6,54.5H316c-0.9,0-1.6-0.7-1.6-1.6V3.1c0-0.9,0.7-1.6,1.6-1.6h30.6c0.9,0,1.6,0.7,1.6,1.6v6.2
		c0,0.9-0.7,1.6-1.6,1.6h-22.1v12h18.4c0.8,0,1.6,0.7,1.6,1.6v6.2c0,0.9-0.7,1.6-1.6,1.6h-18.4v12.9h22.1c0.9,0,1.6,0.7,1.6,1.6v6.2
		C348.2,53.8,347.5,54.5,346.6,54.5z M316,1.8c-0.7,0-1.3,0.6-1.3,1.3v49.8c0,0.7,0.6,1.3,1.3,1.3h30.6c0.7,0,1.3-0.6,1.3-1.3v-6.2
		c0-0.7-0.6-1.3-1.3-1.3h-22.4V32h18.7c0.7,0,1.3-0.6,1.3-1.3v-6.2c0-0.7-0.6-1.3-1.3-1.3h-18.7V10.5h22.4c0.7,0,1.3-0.6,1.3-1.3
		V3.1c0-0.7-0.6-1.3-1.3-1.3H316z"/>
	<path class="st0" d="M395.2,54.5h-7.9c-0.9,0-1.2-0.6-1.3-0.8l-10-19.9h-8.1v19c0,0.8-0.7,1.6-1.6,1.6h-6.9c-0.9,0-1.6-0.7-1.6-1.6
		V3.1c0-0.9,0.7-1.6,1.6-1.6h21.5c9.1,0,16.6,7.3,16.6,16.3c0,6.6-4.2,12.5-11.1,15.3l10.2,19c0.3,0.5,0.3,1.2,0,1.7
		C396.3,54.2,395.8,54.5,395.2,54.5z M367.6,33.6h8.6l0,0.1l10,20c0.1,0.1,0.4,0.6,1.1,0.6h7.9c0.5,0,0.9-0.2,1.2-0.6
		c0.2-0.4,0.2-0.9,0-1.4L385.9,33l0.2-0.1c6.8-2.7,11-8.5,11-15.1c0-8.8-7.3-16-16.3-16h-21.5c-0.7,0-1.3,0.6-1.3,1.3v49.8
		c0,0.7,0.6,1.3,1.3,1.3h6.9c0.7,0,1.3-0.6,1.3-1.3V33.6z M380.1,25.8h-12.4V10.5h12.4c4.1,0,7.6,3.4,7.6,7.5
		C387.7,22.2,384.2,25.8,380.1,25.8z M367.9,25.5h12.1c4,0,7.3-3.4,7.3-7.5c0-3.9-3.3-7.2-7.3-7.2h-12.1V25.5z"/>
	<path class="st0" d="M431.7,55.3c-7.3,0-14.2-2.8-19.3-7.9c-5.2-5.1-8-12-8-19.3c0-7.3,2.8-14.2,8-19.3c5.1-5.1,12-8,19.3-8
		c7.2,0,12.9,2.2,18.3,7c0.4,0.3,0.6,0.7,0.6,1.2c0,0.4-0.2,0.8-0.5,1.2l-4.6,4.7c-0.3,0.3-0.6,0.5-1,0.5c-0.4,0-0.8-0.2-1.1-0.5
		c-3.2-2.8-7.4-4.4-11.5-4.4c-9.3,0-16.6,7.6-16.6,17.4c0,4.6,1.7,8.9,4.8,12.1c3.1,3.3,7.4,5.1,11.9,5.1c4.1,0,7.9-1.4,11.4-4.3
		c0.7-0.6,1.6-0.5,2.1,0l4.7,4.8c0.3,0.2,0.4,0.6,0.4,1c0,0.5-0.2,1-0.5,1.3C445.2,52.7,438.8,55.3,431.7,55.3z M431.7,1
		c-7.2,0-14,2.8-19.1,7.9c-5.1,5.1-7.9,11.9-7.9,19.1c0,7.2,2.8,14,7.9,19.1c5.1,5,11.9,7.8,19.1,7.8c7,0,13.3-2.5,18.2-7.3
		c0.3-0.3,0.4-0.7,0.4-1.1c0-0.2-0.1-0.5-0.3-0.7l-4.7-4.8c-0.4-0.4-1.1-0.5-1.7,0c-3.6,2.9-7.5,4.3-11.6,4.3c-4.6,0-9-1.9-12.2-5.2
		c-3.1-3.3-4.9-7.7-4.9-12.3c0-9.9,7.4-17.7,16.9-17.7c4.2,0,8.5,1.6,11.7,4.5c0.3,0.3,0.6,0.4,0.9,0.4c0.3,0,0.5-0.1,0.8-0.4
		l4.6-4.7c0.3-0.3,0.4-0.6,0.4-1c0-0.3-0.2-0.7-0.5-0.9C444.5,3.2,438.9,1,431.7,1z"/>
	<path class="st0" d="M491.5,54.5h-30.6c-0.9,0-1.6-0.7-1.6-1.6V3.1c0-0.9,0.7-1.6,1.6-1.6h30.6c0.9,0,1.6,0.7,1.6,1.6v6.2
		c0,0.9-0.7,1.6-1.6,1.6h-22.1v12h18.4c0.8,0,1.6,0.7,1.6,1.6v6.2c0,0.9-0.7,1.6-1.6,1.6h-18.4v12.9h22.1c0.9,0,1.6,0.7,1.6,1.6v6.2
		C493.1,53.8,492.4,54.5,491.5,54.5z M460.9,1.8c-0.7,0-1.3,0.6-1.3,1.3v49.8c0,0.7,0.6,1.3,1.3,1.3h30.6c0.7,0,1.3-0.6,1.3-1.3
		v-6.2c0-0.7-0.6-1.3-1.3-1.3h-22.4V32h18.7c0.7,0,1.3-0.6,1.3-1.3v-6.2c0-0.7-0.6-1.3-1.3-1.3h-18.7V10.5h22.4
		c0.7,0,1.3-0.6,1.3-1.3V3.1c0-0.7-0.6-1.3-1.3-1.3H460.9z"/>
</g>
</svg>
