<svg id="Capa_1" data-name="Capa 1" xmlns="http://www.w3.org/2000/svg" viewBox="0 0 517.98 55.07"><defs><style>.cls-1{fill:#fff;}</style></defs><path class="cls-1" d="M37.51,57.71a27.54,27.54,0,1,1,0-55.07A25.94,25.94,0,0,1,56,9.76a1.85,1.85,0,0,1,.09,2.75l-4.59,4.73a1.65,1.65,0,0,1-1.18.59A1.83,1.83,0,0,1,49,17.25a17.29,17.29,0,0,0-11.27-4.31c-9.17,0-16.34,7.5-16.34,17.09S28.61,47,37.81,47a17.6,17.6,0,0,0,11.24-4.19,1.81,1.81,0,0,1,2.47,0l4.67,4.82a1.55,1.55,0,0,1,.51,1.15,2.05,2.05,0,0,1-.59,1.5A26.17,26.17,0,0,1,37.51,57.71Zm0-54.18a26.65,26.65,0,1,0,0,53.3,25.27,25.27,0,0,0,18-7.18,1.19,1.19,0,0,0,.33-.84.75.75,0,0,0-.24-.54l-4.69-4.84a.94.94,0,0,0-1.27,0,18.46,18.46,0,0,1-11.81,4.39c-9.7,0-17.3-7.83-17.3-17.82s7.57-18,17.23-18A18.26,18.26,0,0,1,49.62,16.6a1,1,0,0,0,.7.34.79.79,0,0,0,.55-.3l4.61-4.76a1,1,0,0,0,.32-.73,1,1,0,0,0-.37-.73A25.1,25.1,0,0,0,37.51,3.53Z" transform="translate(-9.9 -2.64)"/><path class="cls-1" d="M104.71,57h-7.9A1.75,1.75,0,0,1,95.2,56l-9.88-19.7H77.68V55.09A1.92,1.92,0,0,1,75.81,57H68.89A1.88,1.88,0,0,1,67,55.09V5.27A1.88,1.88,0,0,1,68.89,3.4H90.41A16.75,16.75,0,0,1,107.26,20c0,6.65-4.19,12.52-11,15.42l10.08,18.69a2,2,0,0,1,0,1.95A1.86,1.86,0,0,1,104.71,57ZM76.8,35.45h9.07L96,55.64a.85.85,0,0,0,.81.43h7.9a1,1,0,0,0,.9-.45,1.1,1.1,0,0,0,0-1.07L95.05,35l.46-.19c6.7-2.7,10.86-8.36,10.86-14.79a15.87,15.87,0,0,0-16-15.74H68.89a1,1,0,0,0-1,1V55.09a1,1,0,0,0,1,1h6.92a1,1,0,0,0,1-1Zm12.78-7.16H76.87V12.43H89.58a7.92,7.92,0,0,1,7.89,7.74A8.11,8.11,0,0,1,89.58,28.29ZM77.76,27.4H89.58a7.22,7.22,0,0,0,7-7.23,7,7,0,0,0-7-6.86H77.76Z" transform="translate(-9.9 -2.64)"/><path class="cls-1" d="M151.43,57H120.81a1.88,1.88,0,0,1-1.88-1.87V5.27a1.88,1.88,0,0,1,1.88-1.87h30.62a1.88,1.88,0,0,1,1.88,1.87v6.17a1.88,1.88,0,0,1-1.88,1.87H129.6V24.77h18.15a1.92,1.92,0,0,1,1.87,1.87v6.25a1.87,1.87,0,0,1-1.87,1.87H129.6V47h21.83a1.88,1.88,0,0,1,1.88,1.88v6.17A1.88,1.88,0,0,1,151.43,57ZM120.81,4.28a1,1,0,0,0-1,1V55.09a1,1,0,0,0,1,1h30.62a1,1,0,0,0,1-1V48.92a1,1,0,0,0-1-1H128.72V33.87h19a1,1,0,0,0,1-1V26.64a1,1,0,0,0-1-1h-19V12.43h22.71a1,1,0,0,0,1-1V5.27a1,1,0,0,0-1-1Z" transform="translate(-9.9 -2.64)"/><path class="cls-1" d="M188.23,57.71a27.54,27.54,0,1,1,0-55.07,26,26,0,0,1,18.51,7.12,1.91,1.91,0,0,1,.66,1.36,1.93,1.93,0,0,1-.57,1.39l-4.59,4.73a1.65,1.65,0,0,1-1.18.59,1.85,1.85,0,0,1-1.33-.58,17.29,17.29,0,0,0-11.28-4.31c-9.16,0-16.33,7.5-16.33,17.09S179.33,47,188.53,47a17.6,17.6,0,0,0,11.24-4.19,1.81,1.81,0,0,1,2.47,0l4.67,4.82a1.59,1.59,0,0,1,.51,1.15,2.05,2.05,0,0,1-.59,1.5A26.17,26.17,0,0,1,188.23,57.71Zm0-54.18a26.65,26.65,0,1,0,0,53.3,25.29,25.29,0,0,0,18-7.18,1.19,1.19,0,0,0,.33-.84.75.75,0,0,0-.24-.54l-4.69-4.84a.94.94,0,0,0-1.27,0,18.46,18.46,0,0,1-11.81,4.39c-9.7,0-17.3-7.83-17.3-17.82s7.57-18,17.22-18a18.29,18.29,0,0,1,11.89,4.55,1,1,0,0,0,.69.34.81.81,0,0,0,.56-.3l4.61-4.76a1,1,0,0,0,.31-.73,1,1,0,0,0-.36-.73A25.1,25.1,0,0,0,188.23,3.53Z" transform="translate(-9.9 -2.64)"/><path class="cls-1" d="M226.6,57h-7a1.93,1.93,0,0,1-1.87-1.87V5.27A1.92,1.92,0,0,1,219.6,3.4h7a1.92,1.92,0,0,1,1.88,1.87V55.09A1.93,1.93,0,0,1,226.6,57Zm-7-52.68a1,1,0,0,0-1,1V55.09a1,1,0,0,0,1,1h7a1,1,0,0,0,1-1V5.27a1,1,0,0,0-1-1Z" transform="translate(-9.9 -2.64)"/><path class="cls-1" d="M270.32,57.71H269a1.79,1.79,0,0,1-1.68-1.07L254.41,28l-4.19,27.42a1.92,1.92,0,0,1-1.8,1.5h-6.77a1.9,1.9,0,0,1-1.46-.61,2,2,0,0,1-.41-1.63l9-50.57a1.72,1.72,0,0,1,1.79-1.51h1.21a1.83,1.83,0,0,1,1.67,1l16.27,34.91L286,3.65a1.75,1.75,0,0,1,1.68-1h1.2a1.73,1.73,0,0,1,1.8,1.52l8.88,50.55a1.88,1.88,0,0,1-.32,1.61,1.85,1.85,0,0,1-1.48.64h-6.84A2.08,2.08,0,0,1,289,55.51L284.73,28,272,56.62A1.72,1.72,0,0,1,270.32,57.71ZM253.76,26.43h.89l13.44,29.83a.91.91,0,0,0,.88.57h1.35a.83.83,0,0,0,.86-.53l13.3-29.87h.9l4.49,28.89a1.22,1.22,0,0,0,1,.75h6.84a1,1,0,0,0,.79-.3,1,1,0,0,0,.14-.89L289.75,4.29a.83.83,0,0,0-.92-.76h-1.2a.86.86,0,0,0-.88.51L270.08,39.8h-.79L252.61,4a.92.92,0,0,0-.87-.5h-1.21a.83.83,0,0,0-.91.74v0l-9,50.57a1.08,1.08,0,0,0,.2.91,1,1,0,0,0,.79.3h6.77a1,1,0,0,0,.92-.74Z" transform="translate(-9.9 -2.64)"/><path class="cls-1" d="M319.68,57h-7a1.93,1.93,0,0,1-1.87-1.87V5.27a1.92,1.92,0,0,1,1.87-1.87h7a1.91,1.91,0,0,1,1.87,1.87V55.09A1.92,1.92,0,0,1,319.68,57Zm-7-52.68a1,1,0,0,0-1,1V55.09a1,1,0,0,0,1,1h7a1,1,0,0,0,1-1V5.27a1,1,0,0,0-1-1Z" transform="translate(-9.9 -2.64)"/><path class="cls-1" d="M368.22,57H337.59a1.87,1.87,0,0,1-1.87-1.87V5.27a1.87,1.87,0,0,1,1.87-1.87h30.63a1.87,1.87,0,0,1,1.87,1.87v6.17a1.87,1.87,0,0,1-1.87,1.87H346.39V24.77h18.14a1.91,1.91,0,0,1,1.87,1.87v6.25a1.87,1.87,0,0,1-1.87,1.87H346.39V47h21.83a1.88,1.88,0,0,1,1.87,1.88v6.17A1.87,1.87,0,0,1,368.22,57ZM337.59,4.28a1,1,0,0,0-1,1V55.09a1,1,0,0,0,1,1h30.63a1,1,0,0,0,1-1V48.92a1,1,0,0,0-1-1H345.5V33.87h19a1,1,0,0,0,1-1V26.64a1,1,0,0,0-1-1h-19V12.43h22.72a1,1,0,0,0,1-1V5.27a1,1,0,0,0-1-1Z" transform="translate(-9.9 -2.64)"/><path class="cls-1" d="M422.55,57.71h-1.06a2.12,2.12,0,0,1-1.59-.65L389.65,23.71V55.09A1.87,1.87,0,0,1,387.78,57h-6.85a1.92,1.92,0,0,1-1.87-1.87V4.44a1.87,1.87,0,0,1,1.87-1.8h1.13a2.1,2.1,0,0,1,1.59.66l30.1,32.09V5.27a1.87,1.87,0,0,1,1.87-1.87h6.93a1.92,1.92,0,0,1,1.87,1.87V55.92A1.86,1.86,0,0,1,422.55,57.71ZM388.77,22.29h.79l.13.14,30.85,34a1.22,1.22,0,0,0,.95.38h1.06a1,1,0,0,0,1-.91V5.27a1,1,0,0,0-1-1h-6.93a1,1,0,0,0-1,1V36.79h-.79l-.13-.14L383,3.92a1.2,1.2,0,0,0-1-.39h-1.13a1,1,0,0,0-1,.91V55.09a1,1,0,0,0,1,1h6.85a1,1,0,0,0,1-1Z" transform="translate(-9.9 -2.64)"/><path class="cls-1" d="M453.7,57h-7a1.92,1.92,0,0,1-1.87-1.87V13.31H433.75a1.87,1.87,0,0,1-1.87-1.87V5.27a1.87,1.87,0,0,1,1.87-1.87h32.89a1.87,1.87,0,0,1,1.87,1.87v6.17a1.87,1.87,0,0,1-1.87,1.87H455.57V55.09A1.93,1.93,0,0,1,453.7,57ZM433.75,4.28a1,1,0,0,0-1,1v6.17a1,1,0,0,0,1,1h12V55.09a1,1,0,0,0,1,1h7a1,1,0,0,0,1-1V12.43h12a1,1,0,0,0,1-1V5.27a1,1,0,0,0-1-1Z" transform="translate(-9.9 -2.64)"/><path class="cls-1" d="M500.35,57.71a27.17,27.17,0,0,1-27.46-27.46,27.5,27.5,0,1,1,55,0A27.2,27.2,0,0,1,500.35,57.71Zm0-54.18a26.68,26.68,0,0,0-26.57,26.72,26.61,26.61,0,0,0,53.22,0A26.72,26.72,0,0,0,500.35,3.53Zm0,44.4A17.75,17.75,0,1,1,518.1,30.25,17.7,17.7,0,0,1,500.35,47.93Zm0-34.62a16.87,16.87,0,1,0,16.87,16.94A17.14,17.14,0,0,0,500.35,13.31Z" transform="translate(-9.9 -2.64)"/></svg>