<?xml version="1.0" encoding="utf-8"?>
<!-- Generator: Adobe Illustrator 25.4.1, SVG Export Plug-In . SVG Version: 6.00 Build 0)  -->
<svg version="1.1" id="Capa_1" xmlns="http://www.w3.org/2000/svg" xmlns:xlink="http://www.w3.org/1999/xlink" x="0px" y="0px"
	 viewBox="0 0 540.2 59.8" style="enable-background:new 0 0 540.2 59.8;" xml:space="preserve">
<style type="text/css">
	.st0{fill:#FFFFFF;}
</style>
<g>
	<path class="st0" d="M28,59.8c-7.1,0-13.6-2.7-18.6-7.6c-4.9-4.9-7.6-11.5-7.6-18.5C1.9,26.6,4.6,20,9.5,15
		c4.9-5,11.5-7.7,18.6-7.7c7,0,13.6,2.7,18.6,7.7c4.9,5,7.7,11.6,7.7,18.6c0,7-2.7,13.6-7.7,18.5C41.7,57.1,35.1,59.8,28,59.8z
		 M28,7.6c-7,0-13.5,2.7-18.3,7.6c-4.9,4.9-7.5,11.4-7.5,18.4c0,7,2.7,13.5,7.5,18.3s11.4,7.5,18.3,7.5c7,0,13.5-2.7,18.4-7.5
		c4.9-4.9,7.6-11.4,7.6-18.3c0-7-2.7-13.5-7.6-18.4C41.5,10.3,35,7.6,28,7.6z M28,50.4c-9.2,0-16.7-7.5-16.7-16.7
		c0-9.3,7.5-16.9,16.7-16.9c4.5,0,8.7,1.8,11.9,5c3.2,3.2,5,7.4,5,11.9C44.8,42.9,37.3,50.4,28,50.4z M28,17
		c-9.1,0-16.4,7.4-16.4,16.6c0,9.1,7.4,16.4,16.4,16.4c9.1,0,16.5-7.4,16.5-16.4c0-4.4-1.7-8.5-4.9-11.7C36.5,18.8,32.4,17,28,17z"
		/>
	<path class="st0" d="M89.3,59.8H88c-0.6,0-1.1-0.3-1.4-0.9L73.8,30.5l-4.2,27.3c-0.1,0.6-0.7,1.2-1.5,1.2h-6.5
		c-0.5,0-0.9-0.2-1.2-0.5c-0.3-0.3-0.4-0.8-0.3-1.3l8.6-48.7c0.1-0.6,0.5-1.2,1.5-1.2h1.2c0.6,0,1.1,0.3,1.4,0.8l15.9,34.1h0
		l15.9-34.1c0.3-0.5,0.7-0.8,1.4-0.8h1.2c1,0,1.4,0.7,1.5,1.2l8.5,48.7c0.1,0.5,0,1-0.2,1.3c-0.3,0.3-0.7,0.5-1.2,0.5h-6.6
		c-0.7,0-1.4-0.6-1.5-1.2l-4.3-27.3L90.7,58.9C90.5,59.4,89.9,59.8,89.3,59.8z M73.6,30.2H74l0,0.1l12.8,28.5
		c0.2,0.5,0.6,0.7,1.1,0.7h1.3c0.6,0,1-0.4,1.1-0.7l12.7-28.6h0.4l0,0.1l4.3,27.5c0.1,0.4,0.7,1,1.2,1h6.6c0.4,0,0.8-0.1,1-0.4
		c0.2-0.3,0.3-0.6,0.2-1.1l-8.6-48.7c-0.1-0.5-0.4-1-1.2-1H106c-0.5,0-0.9,0.2-1.1,0.6l-16,34.3h-0.4l0-0.1L72.5,8.3
		c-0.2-0.4-0.6-0.6-1.1-0.6h-1.2c-0.8,0-1.1,0.5-1.2,1l0,0l-8.6,48.7c-0.1,0.5,0,0.8,0.3,1.1c0.2,0.3,0.6,0.4,1,0.4h6.5
		c0.6,0,1.1-0.5,1.2-1L73.6,30.2z"/>
	<path class="st0" d="M168,59.8h-1c-0.6,0-1-0.2-1.3-0.6l-29.6-32.6v30.9c0,0.8-0.7,1.5-1.5,1.5H128c-0.8,0-1.5-0.7-1.5-1.5V8.8
		c0-0.8,0.7-1.5,1.5-1.5h1.1c0.6,0,1,0.2,1.3,0.6l29.5,31.4V9.6c0-0.8,0.7-1.5,1.5-1.5h6.7c0.8,0,1.5,0.7,1.5,1.5v48.8
		C169.6,59.1,168.9,59.8,168,59.8z M135.8,26.2h0.4l0,0L165.9,59c0.3,0.3,0.7,0.5,1.1,0.5h1c0.7,0,1.2-0.5,1.2-1.2V9.6
		c0-0.6-0.6-1.2-1.2-1.2h-6.7c-0.7,0-1.2,0.6-1.2,1.2v30.1h-0.4l0,0L130.2,8.1c-0.3-0.3-0.6-0.5-1.1-0.5H128c-0.7,0-1.2,0.5-1.2,1.2
		v48.8c0,0.6,0.6,1.2,1.2,1.2h6.6c0.7,0,1.2-0.6,1.2-1.2V26.2z"/>
	<path class="st0" d="M189.9,59.1h-6.7c-0.8,0-1.5-0.7-1.5-1.5v-48c0-0.8,0.7-1.5,1.5-1.5h6.7c0.8,0,1.5,0.7,1.5,1.5v48
		C191.4,58.4,190.7,59.1,189.9,59.1z M183.1,8.3c-0.6,0-1.2,0.6-1.2,1.2v48c0,0.6,0.6,1.2,1.2,1.2h6.7c0.6,0,1.2-0.6,1.2-1.2v-48
		c0-0.6-0.6-1.2-1.2-1.2H183.1z"/>
	<path class="st0" d="M226.8,59.8c-7.1,0-13.7-2.7-18.6-7.6c-5-4.9-7.7-11.5-7.7-18.6c0-14.5,11.8-26.3,26.3-26.3
		c7,0,12.4,2.1,17.6,6.8c0.3,0.3,0.5,0.7,0.5,1.1c0,0.4-0.2,0.8-0.5,1.1l-4.4,4.6c-0.3,0.3-0.6,0.5-0.9,0.5c-0.4,0-0.8-0.2-1.1-0.5
		c-3-2.7-7.1-4.2-11.1-4.2c-9,0-16,7.4-16,16.7c0,4.4,1.6,8.5,4.6,11.7c3,3.2,7.1,4.9,11.5,4.9c3.9,0,7.6-1.4,11-4.1
		c0.7-0.6,1.6-0.5,2,0l4.5,4.6c0.3,0.2,0.4,0.5,0.4,0.9c0,0.4-0.2,0.9-0.5,1.2C239.7,57.4,233.6,59.8,226.8,59.8z M226.8,7.6
		c-14.3,0-26,11.7-26,26c0,7,2.7,13.5,7.6,18.3c4.9,4.9,11.4,7.5,18.4,7.5c6.7,0,12.8-2.4,17.5-7c0.3-0.3,0.4-0.7,0.4-1
		c0-0.2-0.1-0.5-0.3-0.7l-4.5-4.6c-0.4-0.4-1.1-0.5-1.6,0c-3.4,2.8-7.2,4.2-11.2,4.2c-4.5,0-8.6-1.8-11.7-5c-3-3.2-4.7-7.4-4.7-11.9
		c0-9.6,7.2-17,16.3-17c4,0,8.2,1.6,11.3,4.3c0.3,0.3,0.6,0.4,0.9,0.4c0.3,0,0.5-0.1,0.7-0.4l4.4-4.6c0.3-0.3,0.4-0.6,0.4-0.9
		c0-0.3-0.2-0.7-0.4-0.9C239,9.7,233.7,7.6,226.8,7.6z"/>
	<path class="st0" d="M294.6,59.1H288c-0.8,0-1.5-0.7-1.5-1.5V37.7h-23.3v19.8c0,0.8-0.7,1.5-1.5,1.5h-6.7c-0.8,0-1.5-0.7-1.5-1.5
		v-48c0-0.8,0.7-1.5,1.5-1.5h6.7c0.8,0,1.5,0.7,1.5,1.5v19.1h23.3V9.6c0-0.8,0.7-1.5,1.5-1.5h6.7c0.8,0,1.5,0.7,1.5,1.5v48
		C296.2,58.4,295.4,59.1,294.6,59.1z M262.8,37.4h23.9v20.2c0,0.7,0.6,1.2,1.2,1.2h6.7c0.6,0,1.2-0.6,1.2-1.2v-48
		c0-0.6-0.6-1.2-1.2-1.2H288c-0.7,0-1.2,0.6-1.2,1.2v19.4h-23.9V9.6c0-0.7-0.5-1.2-1.2-1.2h-6.7c-0.6,0-1.2,0.6-1.2,1.2v48
		c0,0.6,0.6,1.2,1.2,1.2h6.7c0.7,0,1.2-0.6,1.2-1.2V37.4z"/>
	<path class="st0" d="M349.2,59.1h-6.3c-1.2,0-1.8-0.6-2.2-1.5l-3.5-7.7h-21.5l-3.5,7.7c-0.2,0.5-0.8,1.5-2.2,1.5h-6.3
		c-0.6,0-1-0.2-1.3-0.7c-0.3-0.4-0.3-0.9-0.1-1.4h0l22.5-48.8c0.3-0.6,0.8-0.9,1.4-0.9h0.7c0.8,0,1.1,0.4,1.4,0.9L350.5,57
		c0.2,0.5,0.2,1-0.1,1.4C350.2,58.8,349.7,59.1,349.2,59.1z M315.4,49.5h21.9l0,0.1l3.5,7.8c0.5,1,1,1.4,2,1.4h6.3
		c0.5,0,0.8-0.2,1.1-0.5c0.2-0.3,0.2-0.7,0-1.2L327.9,8.3c-0.2-0.4-0.5-0.7-1.1-0.7h-0.7c-0.5,0-0.9,0.2-1.1,0.7l-22.5,48.8
		c-0.2,0.4-0.2,0.8,0,1.2c0.2,0.3,0.6,0.5,1.1,0.5h6.3c1.3,0,1.8-0.9,2-1.4L315.4,49.5z M333.9,41.8h-15l0.1-0.2l7.1-16h0.4
		L333.9,41.8z M319.3,41.5h14.1l-7.1-15.6h0L319.3,41.5z"/>
	<path class="st0" d="M398.2,59.8h-1c-0.5,0-0.9-0.2-1.3-0.6l-29.6-32.6v30.9c0,0.8-0.7,1.5-1.5,1.5h-6.6c-0.8,0-1.5-0.7-1.5-1.5
		V8.8c0-0.8,0.7-1.5,1.5-1.5h1.1c0.6,0,1,0.2,1.3,0.6L390,39.3V9.6c0-0.8,0.7-1.5,1.5-1.5h6.7c0.8,0,1.5,0.7,1.5,1.5v48.8
		C399.8,59.1,399.1,59.8,398.2,59.8z M366,26.2h0.4l0,0L396.1,59c0.3,0.3,0.7,0.5,1.1,0.5h1c0.7,0,1.2-0.5,1.2-1.2V9.6
		c0-0.6-0.6-1.2-1.2-1.2h-6.7c-0.7,0-1.2,0.6-1.2,1.2v30.1H390l0,0L360.4,8.1c-0.3-0.3-0.7-0.5-1.1-0.5h-1.1c-0.7,0-1.2,0.5-1.2,1.2
		v48.8c0,0.6,0.6,1.2,1.2,1.2h6.6c0.7,0,1.2-0.6,1.2-1.2V26.2z"/>
	<path class="st0" d="M453.4,59.8h-1c-0.5,0-0.9-0.2-1.3-0.6l-29.6-32.6v30.9c0,0.8-0.7,1.5-1.5,1.5h-6.6c-0.8,0-1.5-0.7-1.5-1.5
		V8.8c0-0.8,0.7-1.5,1.5-1.5h1.1c0.6,0,1,0.2,1.3,0.6l29.5,31.4V9.6c0-0.8,0.7-1.5,1.5-1.5h6.7c0.8,0,1.5,0.7,1.5,1.5v48.8
		C454.9,59.1,454.2,59.8,453.4,59.8z M421.2,26.2h0.4l0,0L451.3,59c0.3,0.3,0.7,0.5,1.1,0.5h1c0.7,0,1.2-0.5,1.2-1.2V9.6
		c0-0.6-0.6-1.2-1.2-1.2h-6.7c-0.7,0-1.2,0.6-1.2,1.2v30.1h-0.4l0,0L415.6,8.1c-0.3-0.3-0.7-0.5-1.1-0.5h-1.1
		c-0.7,0-1.2,0.5-1.2,1.2v48.8c0,0.6,0.6,1.2,1.2,1.2h6.6c0.7,0,1.2-0.6,1.2-1.2V26.2z"/>
	<path class="st0" d="M498,59.1h-29.5c-0.8,0-1.5-0.7-1.5-1.5v-48c0-0.8,0.7-1.5,1.5-1.5H498c0.8,0,1.5,0.7,1.5,1.5v5.9
		c0,0.8-0.7,1.5-1.5,1.5h-21.3v11.6h17.7c0.8,0,1.5,0.7,1.5,1.5v6c0,0.8-0.7,1.5-1.5,1.5h-17.7v12.4H498c0.8,0,1.5,0.7,1.5,1.5v5.9
		C499.5,58.4,498.9,59.1,498,59.1z M468.5,8.3c-0.7,0-1.2,0.6-1.2,1.2v48c0,0.7,0.6,1.2,1.2,1.2H498c0.7,0,1.2-0.6,1.2-1.2v-5.9
		c0-0.7-0.6-1.2-1.2-1.2h-21.6v-13h18.1c0.7,0,1.2-0.6,1.2-1.2v-6c0-0.6-0.6-1.2-1.2-1.2h-18.1V16.7H498c0.7,0,1.2-0.6,1.2-1.2V9.6
		c0-0.7-0.6-1.2-1.2-1.2H468.5z"/>
	<path class="st0" d="M536.8,59.1h-26.5c-0.8,0-1.5-0.7-1.5-1.5v-48c0-0.8,0.7-1.5,1.5-1.5h6.7c0.8,0,1.5,0.7,1.5,1.5v40.5h18.3
		c0.8,0,1.5,0.7,1.5,1.5v5.9C538.3,58.4,537.7,59.1,536.8,59.1z M510.3,8.3c-0.7,0-1.2,0.6-1.2,1.2v48c0,0.7,0.6,1.2,1.2,1.2h26.5
		c0.7,0,1.2-0.6,1.2-1.2v-5.9c0-0.7-0.6-1.2-1.2-1.2h-18.6V9.6c0-0.6-0.6-1.2-1.2-1.2H510.3z"/>
</g>
</svg>
