<?xml version="1.0" encoding="utf-8"?>
<!-- Generator: Adobe Illustrator 25.4.1, SVG Export Plug-In . SVG Version: 6.00 Build 0)  -->
<svg version="1.1" id="Capa_1" xmlns="http://www.w3.org/2000/svg" xmlns:xlink="http://www.w3.org/1999/xlink" x="0px" y="0px"
	 viewBox="0 0 519.5 53.9" style="enable-background:new 0 0 519.5 53.9;" xml:space="preserve">
<style type="text/css">
	.st0{fill:#FFFFFF;}
</style>
<g>
	<path class="st0" d="M27.8,2c0-0.8,0.6-1.4,1.4-1.4h30.6c0.8,0,1.4,0.7,1.4,1.4v6.2c0,0.8-0.6,1.4-1.4,1.4H37.5V22h18.6
		c0.8,0,1.4,0.7,1.4,1.4v6.2c0,0.8-0.7,1.4-1.4,1.4H37.5v13.2h22.3c0.8,0,1.4,0.7,1.4,1.4v6.2c0,0.8-0.6,1.4-1.4,1.4H29.2
		c-0.8,0-1.4-0.7-1.4-1.4V2z"/>
	<path class="st0" d="M94.4-0.2c7.6,0,13.1,2.4,18.2,7c0.7,0.6,0.7,1.5,0.1,2.1l-4.6,4.7c-0.5,0.6-1.3,0.6-1.9,0
		c-3.2-2.8-7.4-4.4-11.6-4.4c-9.6,0-16.8,8.1-16.8,17.5c0,9.4,7.2,17.4,16.9,17.4c4.5,0,8.4-1.7,11.5-4.3c0.6-0.5,1.4-0.5,1.9,0
		l4.7,4.8c0.6,0.5,0.5,1.5-0.1,2c-5.1,5-11.6,7.3-18.3,7.3c-15.1,0-27.2-12-27.2-27C67.2,12,79.4-0.2,94.4-0.2z"/>
	<path class="st0" d="M144.9-0.2C159.9-0.2,172,12,172,27c0,15.1-12,27-27.1,27c-15.1,0-27-12-27-27C117.9,12,129.8-0.2,144.9-0.2z
		 M144.9,44.3c9.5,0,17.3-7.8,17.3-17.2s-7.8-17.4-17.3-17.4s-17.2,7.9-17.2,17.4S135.4,44.3,144.9,44.3z"/>
	<path class="st0" d="M187.4,1c0.1-0.6,0.5-1.1,1.4-1.1h1.2c0.6,0,1.1,0.3,1.3,0.8l16.6,35.5c0.2,0,0.2,0,0.2,0l16.6-35.5
		c0.2-0.5,0.6-0.8,1.3-0.8h1.2c0.8,0,1.3,0.5,1.4,1.1l8.9,50.6c0.2,1.1-0.4,1.7-1.4,1.7h-6.9c-0.7,0-1.3-0.6-1.4-1.1l-4.4-28.5
		c-0.1,0-0.2,0-0.2,0l-13.2,29.6c-0.2,0.5-0.6,0.8-1.3,0.8h-1.4c-0.7,0-1.1-0.4-1.3-0.8l-13.3-29.6c0,0-0.2,0-0.2,0L188,52.2
		c-0.1,0.5-0.7,1.1-1.4,1.1h-6.8c-1,0-1.6-0.7-1.4-1.7L187.4,1z"/>
	<path class="st0" d="M253.4,1c0.1-0.6,0.5-1.1,1.4-1.1h1.2c0.6,0,1.1,0.3,1.3,0.8l16.6,35.5c0.2,0,0.2,0,0.2,0l16.6-35.5
		c0.2-0.5,0.6-0.8,1.3-0.8h1.2c0.8,0,1.3,0.5,1.4,1.1l8.9,50.6c0.2,1.1-0.4,1.7-1.4,1.7h-6.9c-0.7,0-1.3-0.6-1.4-1.1l-4.4-28.5
		c-0.1,0-0.2,0-0.2,0l-13.2,29.6c-0.2,0.5-0.6,0.8-1.3,0.8h-1.4c-0.7,0-1.1-0.4-1.3-0.8l-13.3-29.6c0,0-0.2,0-0.2,0L254,52.2
		c-0.1,0.5-0.7,1.1-1.4,1.1h-6.8c-1,0-1.6-0.7-1.4-1.7L253.4,1z"/>
	<path class="st0" d="M313.3,2c0-0.8,0.6-1.4,1.4-1.4h30.6c0.8,0,1.4,0.7,1.4,1.4v6.2c0,0.8-0.6,1.4-1.4,1.4h-22.3V22h18.6
		c0.8,0,1.4,0.7,1.4,1.4v6.2c0,0.8-0.7,1.4-1.4,1.4h-18.6v13.2h22.3c0.8,0,1.4,0.7,1.4,1.4v6.2c0,0.8-0.6,1.4-1.4,1.4h-30.6
		c-0.8,0-1.4-0.7-1.4-1.4V2z"/>
	<path class="st0" d="M356.7,2c0-0.8,0.6-1.4,1.4-1.4h21.5c9,0,16.4,7.2,16.4,16.2c0,6.9-4.6,12.6-11.1,15.2l10.3,19.1
		c0.5,1,0,2.2-1.3,2.2H386c-0.7,0-1.1-0.4-1.2-0.7l-10-20h-8.4v19.2c0,0.8-0.7,1.4-1.4,1.4h-6.9c-0.8,0-1.4-0.7-1.4-1.4V2z
		 M378.8,24.6c4,0,7.5-3.5,7.5-7.7c0-4-3.5-7.3-7.5-7.3h-12.3v15H378.8z"/>
	<path class="st0" d="M430.5-0.2c7.6,0,13.1,2.4,18.2,7c0.7,0.6,0.7,1.5,0.1,2.1l-4.6,4.7c-0.5,0.6-1.3,0.6-1.9,0
		c-3.2-2.8-7.4-4.4-11.6-4.4c-9.6,0-16.8,8.1-16.8,17.5c0,9.4,7.2,17.4,16.9,17.4c4.5,0,8.4-1.7,11.5-4.3c0.6-0.5,1.4-0.5,1.9,0
		l4.7,4.8c0.6,0.5,0.5,1.5-0.1,2c-5.1,5-11.6,7.3-18.3,7.3c-15.1,0-27.2-12-27.2-27C403.3,12,415.4-0.2,430.5-0.2z"/>
	<path class="st0" d="M458.2,2c0-0.8,0.6-1.4,1.4-1.4h30.6c0.8,0,1.4,0.7,1.4,1.4v6.2c0,0.8-0.6,1.4-1.4,1.4H468V22h18.6
		c0.8,0,1.4,0.7,1.4,1.4v6.2c0,0.8-0.7,1.4-1.4,1.4H468v13.2h22.3c0.8,0,1.4,0.7,1.4,1.4v6.2c0,0.8-0.6,1.4-1.4,1.4h-30.6
		c-0.8,0-1.4-0.7-1.4-1.4V2z"/>
</g>
</svg>
