<?xml version="1.0" encoding="utf-8"?>
<!-- Generator: Adobe Illustrator 25.4.1, SVG Export Plug-In . SVG Version: 6.00 Build 0)  -->
<svg version="1.1" id="Capa_1" xmlns="http://www.w3.org/2000/svg" xmlns:xlink="http://www.w3.org/1999/xlink" x="0px" y="0px"
	 viewBox="0 0 488.1 57.5" style="enable-background:new 0 0 488.1 57.5;" xml:space="preserve">
<style type="text/css">
	.st0{fill:#FFFFFF;}
</style>
<g>
	<path class="st0" d="M45.1,56.9c-7.6,0-14.6-2.9-19.9-8.2C19.9,43.5,17,36.4,17,28.8c0-7.6,2.9-14.7,8.2-20
		c5.3-5.3,12.3-8.2,19.9-8.2c7.6,0,14.6,2.9,19.9,8.2c5.3,5.3,8.2,12.4,8.2,20c0,7.6-2.9,14.6-8.2,19.9C59.8,54,52.7,56.9,45.1,56.9
		z M45.1,0.9c-7.5,0-14.5,2.9-19.7,8.2c-5.2,5.3-8.1,12.3-8.1,19.8c0,7.5,2.9,14.5,8.1,19.7s12.2,8.1,19.7,8.1
		c7.5,0,14.5-2.9,19.7-8.1c5.2-5.2,8.1-12.2,8.1-19.7c0-7.5-2.9-14.5-8.1-19.8C59.6,3.8,52.6,0.9,45.1,0.9z M45.1,46.8
		c-9.9,0-18-8.1-18-18c0-10,8.1-18.1,18-18.1c4.8,0,9.3,1.9,12.7,5.4c3.4,3.4,5.3,8,5.3,12.8C63.1,38.7,55.1,46.8,45.1,46.8z
		 M45.1,11c-9.7,0-17.7,8-17.7,17.8c0,9.7,7.9,17.7,17.7,17.7c9.8,0,17.7-7.9,17.7-17.7c0-4.7-1.9-9.2-5.2-12.6
		C54.2,12.9,49.8,11,45.1,11z"/>
	<path class="st0" d="M127.7,56.9h-1.1c-0.6,0-1-0.2-1.4-0.6l-31.8-35v33.2c0,0.9-0.7,1.6-1.6,1.6h-7.1c-0.9,0-1.6-0.8-1.6-1.6V2.2
		c0-0.8,0.7-1.5,1.6-1.5h1.2c0.6,0,1,0.2,1.4,0.6l31.6,33.7V3c0-0.9,0.7-1.6,1.6-1.6h7.2c0.9,0,1.6,0.8,1.6,1.6v52.3
		C129.3,56.2,128.5,56.9,127.7,56.9z M93.1,20.9h0.4l0,0l31.9,35.2c0.4,0.3,0.7,0.5,1.2,0.5h1.1c0.7,0,1.3-0.6,1.3-1.2V3
		c0-0.7-0.6-1.3-1.3-1.3h-7.2c-0.7,0-1.3,0.6-1.3,1.3v32.3h-0.4l0,0L87,1.4c-0.4-0.4-0.7-0.5-1.2-0.5h-1.2c-0.7,0-1.3,0.6-1.3,1.2
		v52.3c0,0.7,0.6,1.3,1.3,1.3h7.1c0.7,0,1.3-0.6,1.3-1.3V20.9z"/>
	<path class="st0" d="M162.2,56.1h-18.4c-0.8,0-1.5-0.7-1.5-1.6V3c0-0.9,0.7-1.6,1.5-1.6h18.4c15.1,0,27.5,12.2,27.5,27.3
		C189.7,43.8,177.4,56.1,162.2,56.1z M143.8,1.7c-0.7,0-1.2,0.6-1.2,1.3v51.5c0,0.7,0.6,1.3,1.2,1.3h18.4c15,0,27.2-12.2,27.2-27.2
		c0-14.9-12.2-27-27.2-27H143.8z M161.3,46.6h-9V10.8h9c10.4,0,17.6,7.4,17.6,17.9C178.9,39.3,171.7,46.6,161.3,46.6z M152.6,46.3
		h8.7c10.2,0,17.3-7.3,17.3-17.7c0-10.4-7.1-17.6-17.3-17.6h-8.7V46.3z"/>
	<path class="st0" d="M232.7,56.1h-31.7c-0.9,0-1.6-0.7-1.6-1.6V3c0-0.9,0.7-1.6,1.6-1.6h31.7c0.9,0,1.6,0.7,1.6,1.6v6.4
		c0,0.9-0.7,1.6-1.6,1.6h-22.9v12.5h19.1c0.9,0,1.6,0.8,1.6,1.6v6.5c0,0.9-0.7,1.6-1.6,1.6h-19.1v13.3h22.9c0.9,0,1.6,0.7,1.6,1.6
		v6.4C234.4,55.4,233.6,56.1,232.7,56.1z M201.1,1.7c-0.7,0-1.3,0.6-1.3,1.3v51.5c0,0.7,0.6,1.3,1.3,1.3h31.7c0.7,0,1.3-0.6,1.3-1.3
		v-6.4c0-0.7-0.6-1.3-1.3-1.3h-23.2V32.9h19.4c0.7,0,1.3-0.6,1.3-1.3v-6.5c0-0.7-0.6-1.3-1.3-1.3h-19.4V10.7h23.2
		c0.7,0,1.3-0.6,1.3-1.3V3c0-0.7-0.6-1.3-1.3-1.3H201.1z"/>
	<path class="st0" d="M272.6,56.9h-1.4c-0.7,0-1.1-0.3-1.5-0.9L256,25.5l-4.5,29.4c-0.1,0.6-0.8,1.3-1.5,1.3h-7
		c-0.5,0-1-0.2-1.3-0.5c-0.3-0.4-0.4-0.9-0.3-1.4l9.3-52.3c0.1-0.6,0.5-1.3,1.5-1.3h1.2c0.6,0,1.2,0.3,1.5,0.9l17.1,36.6h0L289,1.5
		c0.3-0.6,0.8-0.9,1.5-0.9h1.2c1,0,1.5,0.7,1.5,1.3l9.2,52.3c0.1,0.6,0,1.1-0.3,1.4c-0.3,0.4-0.7,0.5-1.3,0.5h-7.1
		c-0.8,0-1.4-0.7-1.6-1.3l-4.6-29.4L274,56C273.8,56.5,273.3,56.9,272.6,56.9z M255.7,25.2h0.5l0,0.1L270,55.8
		c0.3,0.5,0.6,0.8,1.2,0.8h1.4c0.7,0,1.1-0.4,1.2-0.8l13.7-30.7h0.5l0,0.1l4.6,29.5c0.1,0.5,0.7,1,1.3,1h7.1c0.5,0,0.8-0.2,1.1-0.4
		c0.2-0.3,0.3-0.7,0.2-1.2L293,2c-0.1-0.5-0.4-1-1.3-1h-1.2c-0.6,0-1,0.2-1.2,0.7l-17.1,36.8h-0.4l0-0.1L254.5,1.6
		c-0.2-0.4-0.7-0.7-1.2-0.7h-1.2c-0.8,0-1.2,0.5-1.3,1l0,0l-9.3,52.3c-0.1,0.5,0,0.9,0.3,1.2c0.2,0.3,0.6,0.4,1.1,0.4h7
		c0.6,0,1.2-0.6,1.3-1L255.7,25.2z"/>
	<path class="st0" d="M356.4,56.1h-6.8c-1.3,0-1.9-0.6-2.4-1.6l-3.8-8.3h-23.1l-3.8,8.3c-0.2,0.5-0.8,1.6-2.4,1.6h-6.8
		c-0.6,0-1.1-0.3-1.4-0.7c-0.3-0.4-0.3-1-0.1-1.5l24.2-52.3c0.3-0.6,0.8-0.9,1.5-0.9h0.8c0.9,0,1.2,0.5,1.5,0.9l24,52.4
		c0.2,0.5,0.2,1.1-0.1,1.5C357.5,55.9,357,56.1,356.4,56.1z M320.2,45.9h23.4l0,0.1l3.8,8.4c0.6,1.1,1.1,1.5,2.1,1.5h6.8
		c0.5,0,0.9-0.2,1.1-0.6c0.2-0.4,0.2-0.8,0-1.2l-24-52.3c-0.2-0.5-0.5-0.8-1.2-0.8h-0.8c-0.5,0-0.9,0.3-1.2,0.8L306.3,54
		c-0.2,0.4-0.2,0.9,0,1.2c0.2,0.4,0.6,0.6,1.1,0.6h6.8c1.4,0,1.9-1,2.1-1.5L320.2,45.9z M340,37.5h-16.1l0.1-0.2l7.7-17.2h0.4
		L340,37.5z M324.3,37.2h15.2l-7.6-16.8h0L324.3,37.2z"/>
	<path class="st0" d="M409.1,56.9H408c-0.6,0-1-0.2-1.4-0.6l-31.8-35.1v33.2c0,0.9-0.7,1.6-1.6,1.6H366c-0.9,0-1.6-0.8-1.6-1.6V2.2
		c0-0.8,0.7-1.5,1.6-1.5h1.2c0.6,0,1,0.2,1.4,0.6l31.6,33.7V3c0-0.9,0.7-1.6,1.6-1.6h7.2c0.9,0,1.6,0.8,1.6,1.6v52.3
		C410.7,56.2,409.9,56.9,409.1,56.9z M374.5,20.9h0.4l0,0l31.9,35.2c0.4,0.3,0.7,0.5,1.2,0.5h1.1c0.7,0,1.3-0.6,1.3-1.2V3
		c0-0.7-0.6-1.3-1.3-1.3h-7.2c-0.7,0-1.3,0.6-1.3,1.3v32.3h-0.4l0,0L368.4,1.4c-0.3-0.4-0.7-0.5-1.2-0.5H366c-0.7,0-1.3,0.6-1.3,1.2
		v52.3c0,0.7,0.6,1.3,1.3,1.3h7.1c0.7,0,1.3-0.6,1.3-1.3V20.9z"/>
	<path class="st0" d="M443.6,56.1h-18.4c-0.8,0-1.5-0.7-1.5-1.6V3c0-0.9,0.7-1.6,1.5-1.6h18.4c15.1,0,27.5,12.2,27.5,27.3
		C471.1,43.8,458.8,56.1,443.6,56.1z M425.2,1.7c-0.7,0-1.2,0.6-1.2,1.3v51.5c0,0.7,0.6,1.3,1.2,1.3h18.4c15,0,27.2-12.2,27.2-27.2
		c0-14.9-12.2-27-27.2-27H425.2z M442.7,46.6h-9V10.8h9c10.4,0,17.7,7.4,17.7,17.9C460.3,39.3,453.1,46.6,442.7,46.6z M434,46.3h8.7
		c10.2,0,17.4-7.3,17.4-17.7c0-10.4-7.1-17.6-17.4-17.6H434V46.3z"/>
</g>
</svg>
