<?xml version="1.0" encoding="utf-8"?>
<!-- Generator: Adobe Illustrator 25.4.1, SVG Export Plug-In . SVG Version: 6.00 Build 0)  -->
<svg version="1.1" id="Capa_1" xmlns="http://www.w3.org/2000/svg" xmlns:xlink="http://www.w3.org/1999/xlink" x="0px" y="0px"
	 viewBox="0 0 1066.1 168" style="enable-background:new 0 0 1066.1 168;" xml:space="preserve">
<style type="text/css">
	.st0{opacity:0.6;}
	.st1{fill:#FFFFFF;}
	.st2{fill:none;stroke:#FFFFFF;stroke-miterlimit:3.11;}
</style>
<g class="st0">
	<path class="st1" d="M7.9,8c0-1,0.8-1.9,1.9-1.9h41.8c1.1,0,1.9,0.9,1.9,1.9v8.4c0,1-0.8,1.9-1.9,1.9H21.3v16.8h25.3
		c1,0,1.9,0.9,1.9,1.9v8.5c0,1.1-0.9,1.9-1.9,1.9H21.3v18h30.4c1.1,0,1.9,0.9,1.9,1.9V76c0,1-0.8,1.9-1.9,1.9H9.9
		c-1.1,0-1.9-0.9-1.9-1.9V8z"/>
	<path class="st1" d="M98.7,5.1c10.4,0,17.8,3.3,24.8,9.5c0.9,0.8,0.9,2.1,0.1,2.9l-6.3,6.5c-0.7,0.8-1.7,0.8-2.6,0
		c-4.3-3.8-10.1-6.1-15.8-6.1c-13.1,0-22.9,11-22.9,23.9c0,12.8,9.8,23.7,23,23.7c6.2,0,11.4-2.4,15.7-5.8c0.8-0.7,1.9-0.6,2.6,0
		l6.4,6.6c0.8,0.7,0.6,2.1-0.1,2.8c-7,6.8-15.8,10-24.9,10c-20.5,0-37-16.3-37-36.8C61.7,21.6,78.2,5.1,98.7,5.1z"/>
	<path class="st1" d="M167.4,5.1c20.5,0,36.9,16.5,36.9,37c0,20.5-16.4,36.8-36.9,36.8s-36.8-16.3-36.8-36.8
		C130.6,21.6,146.9,5.1,167.4,5.1z M167.4,65.6c12.9,0,23.6-10.6,23.6-23.5s-10.7-23.7-23.6-23.7S144,29.2,144,42.1
		S154.5,65.6,167.4,65.6z"/>
	<path class="st1" d="M225.3,6.6c0.1-0.8,0.7-1.5,1.8-1.5h1.6c0.8,0,1.4,0.4,1.7,1l22.6,48.4c0.2,0,0.2,0,0.3,0L276,6.1
		c0.3-0.6,0.8-1,1.7-1h1.6c1.1,0,1.7,0.7,1.8,1.5l12.1,68.9c0.3,1.4-0.5,2.4-1.8,2.4h-9.3c-0.9,0-1.7-0.8-1.9-1.5l-6.1-38.9
		c-0.1,0-0.3,0-0.3,0l-18,40.3c-0.2,0.6-0.8,1.1-1.7,1.1h-1.8c-0.9,0-1.4-0.5-1.7-1.1l-18.2-40.3c0,0-0.2,0-0.3,0l-6,38.9
		c-0.1,0.7-0.9,1.5-1.8,1.5h-9.2c-1.3,0-2.2-0.9-1.9-2.4L225.3,6.6z"/>
	<path class="st1" d="M315.2,6.6c0.1-0.8,0.7-1.5,1.8-1.5h1.6c0.8,0,1.4,0.4,1.7,1L343,54.5c0.2,0,0.2,0,0.3,0l22.6-48.4
		c0.3-0.6,0.8-1,1.7-1h1.6c1.1,0,1.7,0.7,1.8,1.5l12.1,68.9c0.3,1.4-0.5,2.4-1.8,2.4H372c-0.9,0-1.7-0.8-1.9-1.5L364,37.5
		c-0.1,0-0.3,0-0.3,0l-18,40.3c-0.2,0.6-0.8,1.1-1.7,1.1h-1.8c-0.9,0-1.4-0.5-1.7-1.1l-18.2-40.3c0,0-0.2,0-0.3,0l-6,38.9
		c-0.1,0.7-0.9,1.5-1.8,1.5h-9.2c-1.3,0-2.2-0.9-1.9-2.4L315.2,6.6z"/>
	<path class="st1" d="M396.7,8c0-1,0.8-1.9,1.9-1.9h41.8c1.1,0,1.9,0.9,1.9,1.9v8.4c0,1-0.8,1.9-1.9,1.9h-30.4v16.8h25.3
		c1,0,1.9,0.9,1.9,1.9v8.5c0,1.1-0.9,1.9-1.9,1.9h-25.3v18h30.4c1.1,0,1.9,0.9,1.9,1.9V76c0,1-0.8,1.9-1.9,1.9h-41.8
		c-1.1,0-1.9-0.9-1.9-1.9V8z"/>
	<path class="st1" d="M455.8,8c0-1,0.8-1.9,1.9-1.9h29.3c12.3,0,22.4,9.8,22.4,22.1c0,9.4-6.3,17.1-15.2,20.7l14.1,26.1
		c0.7,1.3,0,3-1.7,3h-10.8c-0.9,0-1.4-0.5-1.6-0.9l-13.6-27.2h-11.4V76c0,1-0.9,1.9-1.9,1.9h-9.4c-1.1,0-1.9-0.9-1.9-1.9V8z
		 M486,38.8c5.4,0,10.2-4.7,10.2-10.5c0-5.4-4.7-10-10.2-10h-16.7v20.4H486z"/>
	<path class="st1" d="M556.4,5.1c10.4,0,17.9,3.3,24.8,9.5c0.9,0.8,0.9,2.1,0.1,2.9l-6.3,6.5c-0.7,0.8-1.7,0.8-2.6,0
		c-4.3-3.8-10.1-6.1-15.8-6.1c-13.1,0-22.9,11-22.9,23.9c0,12.8,9.8,23.7,23,23.7c6.2,0,11.4-2.4,15.7-5.8c0.8-0.7,1.9-0.6,2.6,0
		l6.4,6.6c0.8,0.7,0.6,2.1-0.1,2.8c-7,6.8-15.8,10-24.9,10c-20.5,0-37-16.3-37-36.8C519.3,21.6,535.9,5.1,556.4,5.1z"/>
	<path class="st1" d="M594.1,8c0-1,0.8-1.9,1.9-1.9h41.8c1.1,0,1.9,0.9,1.9,1.9v8.4c0,1-0.8,1.9-1.9,1.9h-30.4v16.8h25.3
		c1,0,1.9,0.9,1.9,1.9v8.5c0,1.1-0.9,1.9-1.9,1.9h-25.3v18h30.4c1.1,0,1.9,0.9,1.9,1.9V76c0,1-0.8,1.9-1.9,1.9h-41.8
		c-1.1,0-1.9-0.9-1.9-1.9V8z"/>
	<path class="st2" d="M653.2,8c0-1,0.8-1.9,1.9-1.9h41.8c1.1,0,1.9,0.9,1.9,1.9v8.4c0,1-0.8,1.9-1.9,1.9h-30.4v16.8h25.3
		c1,0,1.9,0.9,1.9,1.9v8.5c0,1.1-0.9,1.9-1.9,1.9h-25.3v18h30.4c1.1,0,1.9,0.9,1.9,1.9V76c0,1-0.8,1.9-1.9,1.9h-41.8
		c-1.1,0-1.9-0.9-1.9-1.9V8z"/>
	<path class="st2" d="M744,5.1c10.4,0,17.8,3.3,24.8,9.5c0.9,0.8,0.9,2.1,0.1,2.9l-6.3,6.5c-0.7,0.8-1.7,0.8-2.6,0
		c-4.3-3.8-10.1-6.1-15.8-6.1c-13.1,0-22.9,11-22.9,23.9c0,12.8,9.8,23.7,23,23.7c6.2,0,11.4-2.4,15.7-5.8c0.8-0.7,1.9-0.6,2.6,0
		l6.4,6.6c0.8,0.7,0.6,2.1-0.1,2.8c-7,6.8-15.8,10-24.9,10c-20.5,0-37-16.3-37-36.8C707,21.6,723.5,5.1,744,5.1z"/>
	<path class="st2" d="M812.7,5.1c20.5,0,36.9,16.5,36.9,37c0,20.5-16.4,36.8-36.9,36.8s-36.8-16.3-36.8-36.8
		C775.9,21.6,792.2,5.1,812.7,5.1z M812.7,65.6c12.9,0,23.6-10.6,23.6-23.5s-10.7-23.7-23.6-23.7s-23.5,10.8-23.5,23.7
		S799.8,65.6,812.7,65.6z"/>
	<path class="st2" d="M870.6,6.6c0.1-0.8,0.7-1.5,1.8-1.5h1.6c0.8,0,1.4,0.4,1.7,1l22.6,48.4c0.2,0,0.2,0,0.3,0l22.6-48.4
		c0.3-0.6,0.8-1,1.7-1h1.6c1.1,0,1.7,0.7,1.8,1.5l12.1,68.9c0.3,1.4-0.5,2.4-1.8,2.4h-9.3c-0.9,0-1.7-0.8-1.9-1.5l-6.1-38.9
		c-0.1,0-0.3,0-0.3,0l-18,40.3c-0.2,0.6-0.8,1.1-1.7,1.1h-1.8c-0.9,0-1.4-0.5-1.7-1.1l-18.2-40.3c0,0-0.2,0-0.3,0l-6,38.9
		c-0.1,0.7-0.9,1.5-1.8,1.5h-9.2c-1.3,0-2.2-0.9-1.9-2.4L870.6,6.6z"/>
	<path class="st2" d="M960.5,6.6c0.1-0.8,0.7-1.5,1.8-1.5h1.6c0.8,0,1.4,0.4,1.7,1l22.6,48.4c0.2,0,0.2,0,0.3,0l22.6-48.4
		c0.3-0.6,0.8-1,1.7-1h1.6c1.1,0,1.7,0.7,1.8,1.5l12.1,68.9c0.3,1.4-0.5,2.4-1.8,2.4h-9.3c-0.9,0-1.7-0.8-1.9-1.5l-6.1-38.9
		c-0.1,0-0.3,0-0.3,0l-18,40.3c-0.2,0.6-0.8,1.1-1.7,1.1h-1.8c-0.9,0-1.4-0.5-1.7-1.1l-18.2-40.3c0,0-0.2,0-0.3,0l-6,38.9
		c-0.1,0.7-0.9,1.5-1.8,1.5h-9.2c-1.3,0-2.2-0.9-1.9-2.4L960.5,6.6z"/>
	<path class="st2" d="M1042,8c0-1,0.8-1.9,1.9-1.9h41.8c1.1,0,1.9,0.9,1.9,1.9v8.4c0,1-0.8,1.9-1.9,1.9h-30.4v16.8h25.3
		c1,0,1.9,0.9,1.9,1.9v8.5c0,1.1-0.9,1.9-1.9,1.9h-25.3v18h30.4c1.1,0,1.9,0.9,1.9,1.9V76c0,1-0.8,1.9-1.9,1.9H1044
		c-1.1,0-1.9-0.9-1.9-1.9V8z"/>
	<path class="st2" d="M7.9,92c0-1,0.8-1.9,1.9-1.9h41.8c1.1,0,1.9,0.9,1.9,1.9v8.4c0,1-0.8,1.9-1.9,1.9H21.3v16.8h25.3
		c1,0,1.9,0.9,1.9,1.9v8.5c0,1.1-0.9,1.9-1.9,1.9H21.3v18h30.4c1.1,0,1.9,0.9,1.9,1.9v8.4c0,1-0.8,1.9-1.9,1.9H9.9
		c-1.1,0-1.9-0.9-1.9-1.9V92z"/>
	<path class="st2" d="M67,92c0-1,0.8-1.9,1.9-1.9h29.3c12.3,0,22.4,9.8,22.4,22.1c0,9.4-6.3,17.1-15.2,20.7l14.1,26.1
		c0.7,1.3,0,3-1.7,3H107c-0.9,0-1.4-0.5-1.6-0.9l-13.6-27.2H80.3V160c0,1-0.9,1.9-1.9,1.9H69c-1.1,0-1.9-0.9-1.9-1.9V92z
		 M97.2,122.8c5.4,0,10.2-4.7,10.2-10.5c0-5.4-4.7-10-10.2-10H80.5v20.4H97.2z"/>
	<path class="st2" d="M167.5,89.1c10.4,0,17.8,3.3,24.8,9.5c0.9,0.8,0.9,2.1,0.1,2.9l-6.3,6.5c-0.7,0.8-1.7,0.8-2.6,0
		c-4.3-3.8-10.1-6.1-15.8-6.1c-13.1,0-22.9,11-22.9,23.9c0,12.8,9.8,23.7,23,23.7c6.2,0,11.4-2.4,15.7-5.8c0.8-0.7,1.9-0.6,2.6,0
		l6.4,6.6c0.8,0.7,0.6,2.1-0.1,2.8c-7,6.8-15.8,10-24.9,10c-20.5,0-37-16.3-37-36.8C130.5,105.6,147,89.1,167.5,89.1z"/>
	<path class="st2" d="M205.3,92c0-1,0.8-1.9,1.9-1.9H249c1.1,0,1.9,0.9,1.9,1.9v8.4c0,1-0.8,1.9-1.9,1.9h-30.4v16.8H244
		c1,0,1.9,0.9,1.9,1.9v8.5c0,1.1-0.9,1.9-1.9,1.9h-25.3v18H249c1.1,0,1.9,0.9,1.9,1.9v8.4c0,1-0.8,1.9-1.9,1.9h-41.8
		c-1.1,0-1.9-0.9-1.9-1.9V92z"/>
	<path class="st2" d="M264.4,92c0-1,0.8-1.9,1.9-1.9h41.8c1.1,0,1.9,0.9,1.9,1.9v8.4c0,1-0.8,1.9-1.9,1.9h-30.4v16.8h25.3
		c1,0,1.9,0.9,1.9,1.9v8.5c0,1.1-0.9,1.9-1.9,1.9h-25.3v18h30.4c1.1,0,1.9,0.9,1.9,1.9v8.4c0,1-0.8,1.9-1.9,1.9h-41.8
		c-1.1,0-1.9-0.9-1.9-1.9V92z"/>
	<path class="st2" d="M355.2,89.1c10.4,0,17.8,3.3,24.8,9.5c0.9,0.8,0.9,2.1,0.1,2.9l-6.3,6.5c-0.7,0.8-1.7,0.8-2.6,0
		c-4.3-3.8-10.1-6.1-15.8-6.1c-13.1,0-22.9,11-22.9,23.9c0,12.8,9.8,23.7,23,23.7c6.2,0,11.4-2.4,15.7-5.8c0.8-0.7,1.9-0.6,2.6,0
		l6.4,6.6c0.8,0.7,0.6,2.1-0.1,2.8c-7,6.8-15.8,10-24.9,10c-20.5,0-37-16.3-37-36.8C318.2,105.6,334.7,89.1,355.2,89.1z"/>
	<path class="st2" d="M423.9,89.1c20.5,0,36.9,16.5,36.9,37c0,20.5-16.4,36.8-36.9,36.8s-36.8-16.3-36.8-36.8
		C387.1,105.6,403.4,89.1,423.9,89.1z M423.9,149.6c12.9,0,23.6-10.6,23.6-23.5s-10.7-23.7-23.6-23.7s-23.5,10.8-23.5,23.7
		S411,149.6,423.9,149.6z"/>
	<path class="st2" d="M481.8,90.6c0.1-0.8,0.7-1.5,1.8-1.5h1.6c0.8,0,1.4,0.4,1.7,1l22.6,48.4c0.2,0,0.2,0,0.3,0l22.6-48.4
		c0.3-0.6,0.8-1,1.7-1h1.6c1.1,0,1.7,0.7,1.8,1.5l12.1,68.9c0.3,1.4-0.5,2.4-1.8,2.4h-9.3c-0.9,0-1.7-0.8-1.9-1.5l-6.1-38.9
		c-0.1,0-0.3,0-0.3,0l-18,40.3c-0.2,0.6-0.8,1.1-1.7,1.1h-1.8c-0.9,0-1.4-0.5-1.7-1.1l-18.2-40.3c0,0-0.2,0-0.3,0l-6,38.9
		c-0.1,0.7-0.9,1.5-1.8,1.5h-9.2c-1.3,0-2.2-0.9-1.9-2.4L481.8,90.6z"/>
	<path class="st2" d="M571.7,90.6c0.1-0.8,0.7-1.5,1.8-1.5h1.6c0.8,0,1.4,0.4,1.7,1l22.6,48.4c0.2,0,0.2,0,0.3,0l22.6-48.4
		c0.3-0.6,0.8-1,1.7-1h1.6c1.1,0,1.7,0.7,1.8,1.5l12.1,68.9c0.3,1.4-0.5,2.4-1.8,2.4h-9.3c-0.9,0-1.7-0.8-1.9-1.5l-6.1-38.9
		c-0.1,0-0.3,0-0.3,0l-18,40.3c-0.2,0.6-0.8,1.1-1.7,1.1h-1.8c-0.9,0-1.4-0.5-1.7-1.1l-18.2-40.3c0,0-0.2,0-0.3,0l-6,38.9
		c-0.1,0.7-0.9,1.5-1.8,1.5h-9.2c-1.3,0-2.2-0.9-1.9-2.4L571.7,90.6z"/>
	<path class="st2" d="M653.2,92c0-1,0.8-1.9,1.9-1.9h41.8c1.1,0,1.9,0.9,1.9,1.9v8.4c0,1-0.8,1.9-1.9,1.9h-30.4v16.8h25.3
		c1,0,1.9,0.9,1.9,1.9v8.5c0,1.1-0.9,1.9-1.9,1.9h-25.3v18h30.4c1.1,0,1.9,0.9,1.9,1.9v8.4c0,1-0.8,1.9-1.9,1.9h-41.8
		c-1.1,0-1.9-0.9-1.9-1.9V92z"/>
	<path class="st2" d="M712.3,92c0-1,0.8-1.9,1.9-1.9h29.3c12.3,0,22.4,9.8,22.4,22.1c0,9.4-6.3,17.1-15.2,20.7l14.1,26.1
		c0.7,1.3,0,3-1.7,3h-10.8c-0.9,0-1.4-0.5-1.6-0.9L737,133.8h-11.4V160c0,1-0.9,1.9-1.9,1.9h-9.4c-1.1,0-1.9-0.9-1.9-1.9V92z
		 M742.5,122.8c5.4,0,10.2-4.7,10.2-10.5c0-5.4-4.7-10-10.2-10h-16.7v20.4H742.5z"/>
	<path class="st2" d="M812.8,89.1c10.4,0,17.8,3.3,24.8,9.5c0.9,0.8,0.9,2.1,0.1,2.9l-6.3,6.5c-0.7,0.8-1.7,0.8-2.6,0
		c-4.3-3.8-10.1-6.1-15.8-6.1c-13.1,0-22.9,11-22.9,23.9c0,12.8,9.8,23.7,23,23.7c6.2,0,11.4-2.4,15.7-5.8c0.8-0.7,1.9-0.6,2.6,0
		l6.4,6.6c0.8,0.7,0.6,2.1-0.1,2.8c-7,6.8-15.8,10-24.9,10c-20.5,0-37-16.3-37-36.8C775.8,105.6,792.3,89.1,812.8,89.1z"/>
	<path class="st2" d="M850.6,92c0-1,0.8-1.9,1.9-1.9h41.8c1.1,0,1.9,0.9,1.9,1.9v8.4c0,1-0.8,1.9-1.9,1.9h-30.4v16.8h25.3
		c1,0,1.9,0.9,1.9,1.9v8.5c0,1.1-0.9,1.9-1.9,1.9h-25.3v18h30.4c1.1,0,1.9,0.9,1.9,1.9v8.4c0,1-0.8,1.9-1.9,1.9h-41.8
		c-1.1,0-1.9-0.9-1.9-1.9V92z"/>
	<path class="st2" d="M909.7,92c0-1,0.8-1.9,1.9-1.9h41.8c1.1,0,1.9,0.9,1.9,1.9v8.4c0,1-0.8,1.9-1.9,1.9H923v16.8h25.3
		c1,0,1.9,0.9,1.9,1.9v8.5c0,1.1-0.9,1.9-1.9,1.9H923v18h30.4c1.1,0,1.9,0.9,1.9,1.9v8.4c0,1-0.8,1.9-1.9,1.9h-41.8
		c-1.1,0-1.9-0.9-1.9-1.9V92z"/>
	<path class="st2" d="M1000.5,89.1c10.4,0,17.8,3.3,24.8,9.5c0.9,0.8,0.9,2.1,0.1,2.9l-6.3,6.5c-0.7,0.8-1.7,0.8-2.6,0
		c-4.3-3.8-10.1-6.1-15.8-6.1c-13.1,0-22.9,11-22.9,23.9c0,12.8,9.8,23.7,23,23.7c6.2,0,11.4-2.4,15.7-5.8c0.8-0.7,1.9-0.6,2.6,0
		l6.4,6.6c0.8,0.7,0.6,2.1-0.1,2.8c-7,6.8-15.8,10-24.9,10c-20.5,0-37-16.3-37-36.8C963.5,105.6,980,89.1,1000.5,89.1z"/>
	<path class="st2" d="M1069.2,89.1c20.5,0,36.9,16.5,36.9,37c0,20.5-16.4,36.8-36.9,36.8s-36.8-16.3-36.8-36.8
		C1032.4,105.6,1048.7,89.1,1069.2,89.1z M1069.2,149.6c12.9,0,23.6-10.6,23.6-23.5s-10.7-23.7-23.6-23.7s-23.5,10.8-23.5,23.7
		S1056.3,149.6,1069.2,149.6z"/>
</g>
</svg>
