<?xml version="1.0" encoding="utf-8"?>
<!-- Generator: Adobe Illustrator 25.4.1, SVG Export Plug-In . SVG Version: 6.00 Build 0)  -->
<svg version="1.1" id="Capa_1" xmlns="http://www.w3.org/2000/svg" xmlns:xlink="http://www.w3.org/1999/xlink" x="0px" y="0px"
	 viewBox="0 0 977.2 168" style="enable-background:new 0 0 977.2 168;" xml:space="preserve">
<style type="text/css">
	.st0{opacity:0.6;}
	.st1{fill:#FFFFFF;}
	.st2{fill:none;stroke:#FFFFFF;}
</style>
<g class="st0">
	<path class="st1" d="M39.9,3c20.8,0,37.5,16.7,37.5,37.6C77.4,61.4,60.7,78,39.9,78C19.1,78,2.6,61.4,2.6,40.6
		C2.6,19.8,19.1,3,39.9,3z M39.9,64.4c13.1,0,23.9-10.7,23.9-23.8s-10.8-24-23.9-24s-23.8,10.9-23.8,24S26.8,64.4,39.9,64.4z"/>
	<path class="st1" d="M90.8,4.9c0-1,0.9-1.9,2-1.9h1.6c0.7,0,1.2,0.2,1.8,0.7L138.6,49h0.2v-43c0-1,0.8-2,2-2h9.6c1,0,2,0.9,2,2v70
		c0,1-0.9,1.9-2,1.9h-1.5c-0.7,0-1.2-0.2-1.8-0.7l-42.7-47h-0.2v44.7c0,1-0.8,2-2,2h-9.5c-1,0-2-0.9-2-2V4.9z"/>
	<path class="st1" d="M170,6.1c0-1,0.8-2,1.9-2h24.7c20.1,0,36.5,16.3,36.5,36.3c0,20.2-16.4,36.5-36.5,36.5h-24.7
		c-1,0-1.9-0.9-1.9-2V6.1z M195.3,64.2c13.5,0,23.4-9.6,23.4-23.8c0-14.1-9.9-23.7-23.4-23.7h-11.9v47.5H195.3z"/>
	<path class="st1" d="M246.4,6.1c0-1,0.8-2,2-2h42.3c1.1,0,2,0.9,2,2v8.5c0,1-0.8,2-2,2H260v17.1h25.7c1,0,2,0.9,2,2v8.6
		c0,1.1-0.9,2-2,2H260v18.2h30.8c1.1,0,2,0.9,2,2v8.5c0,1-0.8,2-2,2h-42.3c-1.1,0-2-0.9-2-2V6.1z"/>
	<path class="st1" d="M314.8,4.6c0.1-0.8,0.7-1.6,1.9-1.6h1.7c0.8,0,1.5,0.4,1.8,1L343,53.2c0.2,0,0.2,0,0.3,0l22.9-49.1
		c0.3-0.6,0.8-1,1.8-1h1.7c1.1,0,1.8,0.7,1.9,1.6l12.3,69.9c0.3,1.5-0.5,2.4-1.9,2.4h-9.5c-0.9,0-1.8-0.8-2-1.6l-6.1-39.4
		c-0.1,0-0.3,0-0.3,0l-18.2,40.9c-0.2,0.6-0.8,1.1-1.8,1.1h-1.9c-0.9,0-1.5-0.5-1.8-1.1L322,35.9c0,0-0.2,0-0.3,0l-6,39.4
		c-0.1,0.7-0.9,1.6-1.9,1.6h-9.4c-1.4,0-2.2-0.9-2-2.4L314.8,4.6z"/>
	<path class="st1" d="M388.9,74.2l32.4-70c0.3-0.6,0.8-1.1,1.8-1.1h1c1,0,1.5,0.5,1.8,1.1l32,70c0.6,1.4-0.2,2.7-1.8,2.7H447
		c-1.6,0-2.3-0.6-3-2.1l-5.1-11.2h-31.1l-5.1,11.2c-0.4,1-1.4,2.1-3,2.1h-9.1C389.1,76.9,388.3,75.6,388.9,74.2z M433.8,52
		l-10.4-22.9h-0.3L412.9,52H433.8z"/>
	<path class="st1" d="M467,4.9c0-1,0.9-1.9,2-1.9h1.6c0.7,0,1.2,0.2,1.8,0.7L514.8,49h0.2v-43c0-1,0.8-2,2-2h9.6c1,0,2,0.9,2,2v70
		c0,1-0.9,1.9-2,1.9h-1.5c-0.7,0-1.2-0.2-1.8-0.7l-42.7-47h-0.2v44.7c0,1-0.8,2-2,2H469c-1,0-2-0.9-2-2V4.9z"/>
	<path class="st1" d="M546.2,6.1c0-1,0.8-2,1.9-2h24.7c20.1,0,36.5,16.3,36.5,36.3c0,20.2-16.4,36.5-36.5,36.5h-24.7
		c-1,0-1.9-0.9-1.9-2V6.1z M571.5,64.2c13.5,0,23.4-9.6,23.4-23.8c0-14.1-9.9-23.7-23.4-23.7h-11.9v47.5H571.5z"/>
	<path class="st2" d="M655.7,3c20.8,0,37.5,16.7,37.5,37.6c0,20.8-16.6,37.3-37.5,37.3s-37.3-16.5-37.3-37.3
		C618.4,19.8,634.9,3,655.7,3z M655.7,64.4c13.1,0,23.9-10.7,23.9-23.8s-10.8-24-23.9-24s-23.8,10.9-23.8,24S642.6,64.4,655.7,64.4z
		"/>
	<path class="st2" d="M706.6,4.9c0-1,0.9-1.9,2-1.9h1.6c0.7,0,1.2,0.2,1.8,0.7L754.4,49h0.2v-43c0-1,0.8-2,2-2h9.6c1,0,2,0.9,2,2v70
		c0,1-0.9,1.9-2,1.9h-1.5c-0.7,0-1.2-0.2-1.8-0.7l-42.7-47H720v44.7c0,1-0.8,2-2,2h-9.5c-1,0-2-0.9-2-2V4.9z"/>
	<path class="st2" d="M785.8,6.1c0-1,0.8-2,1.9-2h24.7c20.1,0,36.5,16.3,36.5,36.3c0,20.2-16.4,36.5-36.5,36.5h-24.7
		c-1,0-1.9-0.9-1.9-2V6.1z M811.1,64.2c13.5,0,23.4-9.6,23.4-23.8c0-14.1-9.9-23.7-23.4-23.7h-11.9v47.5H811.1z"/>
	<path class="st2" d="M862.2,6.1c0-1,0.8-2,2-2h42.3c1.1,0,2,0.9,2,2v8.5c0,1-0.8,2-2,2h-30.8v17.1h25.7c1,0,2,0.9,2,2v8.6
		c0,1.1-0.9,2-2,2h-25.7v18.2h30.8c1.1,0,2,0.9,2,2v8.5c0,1-0.8,2-2,2h-42.3c-1.1,0-2-0.9-2-2V6.1z"/>
	<path class="st2" d="M930.6,4.6c0.1-0.8,0.7-1.6,1.9-1.6h1.7c0.8,0,1.5,0.4,1.8,1l22.9,49.1c0.2,0,0.2,0,0.3,0L982,4.1
		c0.3-0.6,0.8-1,1.8-1h1.7c1.1,0,1.8,0.7,1.9,1.6l12.3,69.9c0.3,1.5-0.5,2.4-1.9,2.4h-9.5c-0.9,0-1.8-0.8-2-1.6l-6.1-39.4
		c-0.1,0-0.3,0-0.3,0l-18.2,40.9c-0.2,0.6-0.8,1.1-1.8,1.1H958c-0.9,0-1.5-0.5-1.8-1.1l-18.4-40.9c0,0-0.2,0-0.3,0l-6,39.4
		c-0.1,0.7-0.9,1.6-1.9,1.6h-9.4c-1.4,0-2.2-0.9-2-2.4L930.6,4.6z"/>
	<path class="st2" d="M1004.7,74.2l32.4-70c0.3-0.6,0.8-1.1,1.8-1.1h1c1,0,1.5,0.5,1.8,1.1l32,70c0.6,1.4-0.2,2.7-1.8,2.7h-9.1
		c-1.6,0-2.3-0.6-3-2.1l-5.1-11.2h-31.1l-5.1,11.2c-0.4,1-1.4,2.1-3,2.1h-9.1C1004.9,76.9,1004.1,75.6,1004.7,74.2z M1049.6,52
		l-10.4-22.9h-0.3L1028.7,52H1049.6z"/>
	<path class="st2" d="M1082.8,4.9c0-1,0.9-1.9,2-1.9h1.6c0.7,0,1.2,0.2,1.8,0.7l42.4,45.3h0.2v-43c0-1,0.8-2,2-2h9.6c1,0,2,0.9,2,2
		v70c0,1-0.9,1.9-2,1.9h-1.5c-0.7,0-1.2-0.2-1.8-0.7l-42.7-47h-0.2v44.7c0,1-0.8,2-2,2h-9.5c-1,0-2-0.9-2-2V4.9z"/>
	<path class="st2" d="M1162,6.1c0-1,0.8-2,1.9-2h24.7c20.1,0,36.5,16.3,36.5,36.3c0,20.2-16.4,36.5-36.5,36.5h-24.7
		c-1,0-1.9-0.9-1.9-2V6.1z M1187.3,64.2c13.5,0,23.4-9.6,23.4-23.8c0-14.1-9.9-23.7-23.4-23.7h-11.9v47.5H1187.3z"/>
	<path class="st2" d="M1271.5,3c20.8,0,37.5,16.7,37.5,37.6c0,20.8-16.6,37.3-37.5,37.3s-37.3-16.5-37.3-37.3
		C1234.2,19.8,1250.7,3,1271.5,3z M1271.5,64.4c13.1,0,23.9-10.7,23.9-23.8s-10.8-24-23.9-24s-23.8,10.9-23.8,24
		S1258.4,64.4,1271.5,64.4z"/>
	<path class="st2" d="M1322.4,4.9c0-1,0.9-1.9,2-1.9h1.6c0.7,0,1.2,0.2,1.8,0.7l42.4,45.3h0.2v-43c0-1,0.8-2,2-2h9.6c1,0,2,0.9,2,2
		v70c0,1-0.9,1.9-2,1.9h-1.5c-0.7,0-1.2-0.2-1.8-0.7l-42.7-47h-0.2v44.7c0,1-0.8,2-2,2h-9.5c-1,0-2-0.9-2-2V4.9z"/>
	<path class="st2" d="M1401.6,6.1c0-1,0.8-2,1.9-2h24.7c20.1,0,36.5,16.3,36.5,36.3c0,20.2-16.4,36.5-36.5,36.5h-24.7
		c-1,0-1.9-0.9-1.9-2V6.1z M1426.9,64.2c13.5,0,23.4-9.6,23.4-23.8c0-14.1-9.9-23.7-23.4-23.7H1415v47.5H1426.9z"/>
	<path class="st2" d="M1478,6.1c0-1,0.8-2,2-2h42.3c1.1,0,2,0.9,2,2v8.5c0,1-0.8,2-2,2h-30.8v17.1h25.7c1,0,2,0.9,2,2v8.6
		c0,1.1-0.9,2-2,2h-25.7v18.2h30.8c1.1,0,2,0.9,2,2v8.5c0,1-0.8,2-2,2H1480c-1.1,0-2-0.9-2-2V6.1z"/>
	<path class="st2" d="M1546.4,4.6c0.1-0.8,0.7-1.6,1.9-1.6h1.7c0.8,0,1.5,0.4,1.8,1l22.9,49.1c0.2,0,0.2,0,0.3,0l22.9-49.1
		c0.3-0.6,0.8-1,1.8-1h1.7c1.1,0,1.8,0.7,1.9,1.6l12.3,69.9c0.3,1.5-0.5,2.4-1.9,2.4h-9.5c-0.9,0-1.8-0.8-2-1.6l-6.1-39.4
		c-0.1,0-0.3,0-0.3,0l-18.2,40.9c-0.2,0.6-0.8,1.1-1.8,1.1h-1.9c-0.9,0-1.5-0.5-1.8-1.1l-18.4-40.9c0,0-0.2,0-0.3,0l-6,39.4
		c-0.1,0.7-0.9,1.6-1.9,1.6h-9.4c-1.4,0-2.2-0.9-2-2.4L1546.4,4.6z"/>
	<path class="st2" d="M6.8,93.1c0-1,0.8-2,1.9-2h24.7c20.1,0,36.5,16.3,36.5,36.3c0,20.2-16.4,36.5-36.5,36.5H8.7
		c-1,0-1.9-0.9-1.9-2V93.1z M32.1,151.2c13.5,0,23.4-9.6,23.4-23.8c0-14.1-9.9-23.7-23.4-23.7H20.3v47.5H32.1z"/>
	<path class="st2" d="M83.3,93.1c0-1,0.8-2,2-2h42.3c1.1,0,2,0.9,2,2v8.5c0,1-0.8,2-2,2H96.8v17.1h25.7c1,0,2,0.9,2,2v8.6
		c0,1.1-0.9,2-2,2H96.8v18.2h30.8c1.1,0,2,0.9,2,2v8.5c0,1-0.8,2-2,2H85.3c-1.1,0-2-0.9-2-2V93.1z"/>
	<path class="st2" d="M151.7,91.6c0.1-0.8,0.7-1.6,1.9-1.6h1.7c0.8,0,1.5,0.4,1.8,1l22.9,49.1c0.2,0,0.2,0,0.3,0l22.9-49.1
		c0.3-0.6,0.8-1,1.8-1h1.7c1.1,0,1.8,0.7,1.9,1.6l12.3,69.9c0.3,1.5-0.5,2.4-1.9,2.4h-9.5c-0.9,0-1.8-0.8-2-1.6l-6.1-39.4
		c-0.1,0-0.3,0-0.3,0l-18.2,40.9c-0.2,0.6-0.8,1.1-1.8,1.1H179c-0.9,0-1.5-0.5-1.8-1.1l-18.4-40.9c0,0-0.2,0-0.3,0l-6,39.4
		c-0.1,0.7-0.9,1.6-1.9,1.6h-9.4c-1.4,0-2.2-0.9-2-2.4L151.7,91.6z"/>
	<path class="st2" d="M225.7,161.2l32.4-70c0.3-0.6,0.8-1.1,1.8-1.1h1c1,0,1.5,0.5,1.8,1.1l32,70c0.6,1.4-0.2,2.7-1.8,2.7h-9.1
		c-1.6,0-2.3-0.6-3-2.1l-5.1-11.2h-31.1l-5.1,11.2c-0.4,1-1.4,2.1-3,2.1h-9.1C226,163.9,225.1,162.6,225.7,161.2z M270.7,139
		l-10.4-22.9H260L249.8,139H270.7z"/>
	<path class="st2" d="M303.9,91.9c0-1,0.9-1.9,2-1.9h1.6c0.7,0,1.2,0.2,1.8,0.7l42.4,45.3h0.2v-43c0-1,0.8-2,2-2h9.6c1,0,2,0.9,2,2
		v70c0,1-0.9,1.9-2,1.9h-1.5c-0.7,0-1.2-0.2-1.8-0.7l-42.7-47h-0.2v44.7c0,1-0.8,2-2,2h-9.5c-1,0-2-0.9-2-2V91.9z"/>
	<path class="st2" d="M383,93.1c0-1,0.8-2,1.9-2h24.7c20.1,0,36.5,16.3,36.5,36.3c0,20.2-16.4,36.5-36.5,36.5h-24.7
		c-1,0-1.9-0.9-1.9-2V93.1z M408.3,151.2c13.5,0,23.4-9.6,23.4-23.8c0-14.1-9.9-23.7-23.4-23.7h-11.9v47.5H408.3z"/>
	<path class="st2" d="M492.6,90c20.8,0,37.5,16.7,37.5,37.6c0,20.8-16.6,37.3-37.5,37.3c-20.8,0-37.3-16.5-37.3-37.3
		C455.3,106.8,471.8,90,492.6,90z M492.6,151.4c13.1,0,23.9-10.7,23.9-23.8s-10.8-24-23.9-24c-13.1,0-23.8,10.9-23.8,24
		S479.5,151.4,492.6,151.4z"/>
	<path class="st2" d="M543.5,91.9c0-1,0.9-1.9,2-1.9h1.6c0.7,0,1.2,0.2,1.8,0.7l42.4,45.3h0.2v-43c0-1,0.8-2,2-2h9.6c1,0,2,0.9,2,2
		v70c0,1-0.9,1.9-2,1.9h-1.5c-0.7,0-1.2-0.2-1.8-0.7l-42.7-47h-0.2v44.7c0,1-0.8,2-2,2h-9.5c-1,0-2-0.9-2-2V91.9z"/>
	<path class="st2" d="M622.6,93.1c0-1,0.8-2,1.9-2h24.7c20.1,0,36.5,16.3,36.5,36.3c0,20.2-16.4,36.5-36.5,36.5h-24.7
		c-1,0-1.9-0.9-1.9-2V93.1z M647.9,151.2c13.5,0,23.4-9.6,23.4-23.8c0-14.1-9.9-23.7-23.4-23.7h-11.9v47.5H647.9z"/>
	<path class="st2" d="M699.1,93.1c0-1,0.8-2,2-2h42.3c1.1,0,2,0.9,2,2v8.5c0,1-0.8,2-2,2h-30.8v17.1h25.7c1,0,2,0.9,2,2v8.6
		c0,1.1-0.9,2-2,2h-25.7v18.2h30.8c1.1,0,2,0.9,2,2v8.5c0,1-0.8,2-2,2h-42.3c-1.1,0-2-0.9-2-2V93.1z"/>
	<path class="st2" d="M767.5,91.6c0.1-0.8,0.7-1.6,1.9-1.6h1.7c0.8,0,1.5,0.4,1.8,1l22.9,49.1c0.2,0,0.2,0,0.3,0l22.9-49.1
		c0.3-0.6,0.8-1,1.8-1h1.7c1.1,0,1.8,0.7,1.9,1.6l12.3,69.9c0.3,1.5-0.5,2.4-1.9,2.4h-9.5c-0.9,0-1.8-0.8-2-1.6l-6.1-39.4
		c-0.1,0-0.3,0-0.3,0l-18.2,40.9c-0.2,0.6-0.8,1.1-1.8,1.1h-1.9c-0.9,0-1.5-0.5-1.8-1.1l-18.4-40.9c0,0-0.2,0-0.3,0l-6,39.4
		c-0.1,0.7-0.9,1.6-1.9,1.6h-9.4c-1.4,0-2.2-0.9-2-2.4L767.5,91.6z"/>
	<path class="st2" d="M841.5,161.2l32.4-70c0.3-0.6,0.8-1.1,1.8-1.1h1c1,0,1.5,0.5,1.8,1.1l32,70c0.6,1.4-0.2,2.7-1.8,2.7h-9.1
		c-1.6,0-2.3-0.6-3-2.1l-5.1-11.2h-31.1l-5.1,11.2c-0.4,1-1.4,2.1-3,2.1h-9.1C841.8,163.9,840.9,162.6,841.5,161.2z M886.5,139
		l-10.4-22.9h-0.3L865.6,139H886.5z"/>
	<path class="st2" d="M919.7,91.9c0-1,0.9-1.9,2-1.9h1.6c0.7,0,1.2,0.2,1.8,0.7l42.4,45.3h0.2v-43c0-1,0.8-2,2-2h9.6c1,0,2,0.9,2,2
		v70c0,1-0.9,1.9-2,1.9h-1.5c-0.7,0-1.2-0.2-1.8-0.7l-42.7-47h-0.2v44.7c0,1-0.8,2-2,2h-9.5c-1,0-2-0.9-2-2V91.9z"/>
	<path class="st2" d="M998.8,93.1c0-1,0.8-2,1.9-2h24.7c20.1,0,36.5,16.3,36.5,36.3c0,20.2-16.4,36.5-36.5,36.5h-24.7
		c-1,0-1.9-0.9-1.9-2V93.1z M1024.1,151.2c13.5,0,23.4-9.6,23.4-23.8c0-14.1-9.9-23.7-23.4-23.7h-11.9v47.5H1024.1z"/>
	<path class="st2" d="M1108.4,90c20.8,0,37.5,16.7,37.5,37.6c0,20.8-16.6,37.3-37.5,37.3s-37.3-16.5-37.3-37.3
		C1071.1,106.8,1087.6,90,1108.4,90z M1108.4,151.4c13.1,0,23.9-10.7,23.9-23.8s-10.8-24-23.9-24s-23.8,10.9-23.8,24
		S1095.3,151.4,1108.4,151.4z"/>
	<path class="st2" d="M1159.3,91.9c0-1,0.9-1.9,2-1.9h1.6c0.7,0,1.2,0.2,1.8,0.7L1207,136h0.2v-43c0-1,0.8-2,2-2h9.6c1,0,2,0.9,2,2
		v70c0,1-0.9,1.9-2,1.9h-1.5c-0.7,0-1.2-0.2-1.8-0.7l-42.7-47h-0.2v44.7c0,1-0.8,2-2,2h-9.5c-1,0-2-0.9-2-2V91.9z"/>
	<path class="st2" d="M1238.4,93.1c0-1,0.8-2,1.9-2h24.7c20.1,0,36.5,16.3,36.5,36.3c0,20.2-16.4,36.5-36.5,36.5h-24.7
		c-1,0-1.9-0.9-1.9-2V93.1z M1263.7,151.2c13.5,0,23.4-9.6,23.4-23.8c0-14.1-9.9-23.7-23.4-23.7h-11.9v47.5H1263.7z"/>
	<path class="st2" d="M1314.9,93.1c0-1,0.8-2,2-2h42.3c1.1,0,2,0.9,2,2v8.5c0,1-0.8,2-2,2h-30.8v17.1h25.7c1,0,2,0.9,2,2v8.6
		c0,1.1-0.9,2-2,2h-25.7v18.2h30.8c1.1,0,2,0.9,2,2v8.5c0,1-0.8,2-2,2h-42.3c-1.1,0-2-0.9-2-2V93.1z"/>
	<path class="st2" d="M1383.3,91.6c0.1-0.8,0.7-1.6,1.9-1.6h1.7c0.8,0,1.5,0.4,1.8,1l22.9,49.1c0.2,0,0.2,0,0.3,0l22.9-49.1
		c0.3-0.6,0.8-1,1.8-1h1.7c1.1,0,1.8,0.7,1.9,1.6l12.3,69.9c0.3,1.5-0.5,2.4-1.9,2.4h-9.5c-0.9,0-1.8-0.8-2-1.6l-6.1-39.4
		c-0.1,0-0.3,0-0.3,0l-18.2,40.9c-0.2,0.6-0.8,1.1-1.8,1.1h-1.9c-0.9,0-1.5-0.5-1.8-1.1l-18.4-40.9c0,0-0.2,0-0.3,0l-6,39.4
		c-0.1,0.7-0.9,1.6-1.9,1.6h-9.4c-1.4,0-2.2-0.9-2-2.4L1383.3,91.6z"/>
	<path class="st2" d="M1457.3,161.2l32.4-70c0.3-0.6,0.8-1.1,1.8-1.1h1c1,0,1.5,0.5,1.8,1.1l32,70c0.6,1.4-0.2,2.7-1.8,2.7h-9.1
		c-1.6,0-2.3-0.6-3-2.1l-5.1-11.2h-31.1l-5.1,11.2c-0.4,1-1.4,2.1-3,2.1h-9.1C1457.6,163.9,1456.7,162.6,1457.3,161.2z M1502.3,139
		l-10.4-22.9h-0.3l-10.2,22.9H1502.3z"/>
	<path class="st2" d="M1535.5,91.9c0-1,0.9-1.9,2-1.9h1.6c0.7,0,1.2,0.2,1.8,0.7l42.4,45.3h0.2v-43c0-1,0.8-2,2-2h9.6c1,0,2,0.9,2,2
		v70c0,1-0.9,1.9-2,1.9h-1.5c-0.7,0-1.2-0.2-1.8-0.7l-42.7-47h-0.2v44.7c0,1-0.8,2-2,2h-9.5c-1,0-2-0.9-2-2V91.9z"/>
</g>
</svg>
