<?xml version="1.0" encoding="utf-8"?>
<!-- Generator: Adobe Illustrator 26.0.3, SVG Export Plug-In . SVG Version: 6.00 Build 0)  -->
<svg version="1.1" id="Capa_1" xmlns="http://www.w3.org/2000/svg" xmlns:xlink="http://www.w3.org/1999/xlink" x="0px" y="0px"
	 viewBox="0 0 977.2 168" style="enable-background:new 0 0 977.2 168;" xml:space="preserve">
<style type="text/css">
	.st0{opacity:0.59;}
	.st1{fill:none;stroke:#FFFFFF;stroke-miterlimit:3.11;}
	.st2{fill:#FFFFFF;}
</style>
<g class="st0">
	<path class="st1" d="M14.2,93.4c0.1-1.1,0.9-1.9,2-2h22.4c16.4,0,28.2,14.8,28.2,31.6c0,22.5-15.7,41.1-38.3,41.1H5.9
		c-0.8-0.1-1.5-0.8-1.4-1.6c0-0.1,0-0.3,0.1-0.4L14.2,93.4z M29.2,151.5c12.7,0,23.2-11.9,23.2-27.5c0-11.3-6.4-20-16.4-20h-9.8
		l-6.6,47.5L29.2,151.5z"/>
	<path class="st1" d="M90.1,93.4c0.1-1.1,0.9-1.9,2-2h38.4c0.9,0,1.6,0.8,1.6,1.7c0,0.1,0,0.2,0,0.3l-1.2,8.5c-0.1,1.1-1,1.9-2.1,2
		h-26.6l-2.4,17h22c0.9,0.1,1.6,0.9,1.6,1.8c0,0.1,0,0.1,0,0.2l-1.2,8.6c-0.1,1.1-1,1.9-2.1,2H98l-2.6,18.2h26.7c1,0,1.6,0.9,1.4,2
		l-1.1,8.5c-0.1,1.1-1,1.9-2.1,2H81.8c-0.9,0-1.5-0.7-1.5-1.5c0-0.2,0-0.3,0.1-0.5L90.1,93.4z"/>
	<path class="st1" d="M158.3,92c0.2-0.9,1-1.6,2-1.6h1.4c0.7,0,1.2,0.4,1.5,1l14.1,47.1h0.2l28.2-47.1c0.4-0.6,1-1,1.8-1h1.6
		c0.8,0.1,1.4,0.7,1.5,1.6l0.9,69.8c0.1,1.2-0.7,2.3-1.9,2.4c0,0-0.1,0-0.1,0h-10c-0.8,0-1.5-0.7-1.6-1.5c0,0,0,0,0-0.1l0.8-37.3
		h-0.3l-21.7,38.8c-0.3,0.7-1,1.1-1.8,1.1h-1.7c-0.7,0-1.3-0.5-1.5-1.1l-10.6-38.8H161l-10,37.3c-0.2,0.9-1,1.6-2,1.6h-9.8
		c-1.1,0-1.9-0.9-1.5-2.4L158.3,92z"/>
	<path class="st1" d="M223,161.5l39.1-69.9c0.3-0.7,1-1.1,1.8-1.1h0.9c0.7,0,1.3,0.5,1.5,1.1l19.1,69.9c0.4,1-0.1,2.2-1.2,2.6
		c-0.3,0.1-0.5,0.1-0.8,0.1h-9c-1.6,0-2.4-0.5-2.7-2.1l-2.6-11.5h-25.8l-6,11.5c-0.6,1.3-1.9,2.1-3.3,2.1h-9.6
		C222.8,164.2,222.3,162.8,223,161.5z M265.7,139.3l-4.9-22.7h-0.2l-11.3,22.7H265.7z"/>
	<path class="st1" d="M309.9,92.3c0.1-1,1-1.8,2-1.9h1.1c1.1,0,1.5,0,2.7,1.7l30.5,43.2h0.1l5.6-41.9c0.1-1.1,0.9-1.9,2-2h10
		c0.9,0.1,1.6,0.9,1.6,1.8c0,0.1,0,0.1,0,0.2l-9.9,69.9c-0.1,1-1,1.8-2,1.9h-1c-1.6,0-2-0.3-3-1.9L319.4,119h-0.1l-5.6,43.2
		c-0.1,1.1-1,1.9-2.1,2h-10c-0.9-0.1-1.5-0.8-1.5-1.7c0,0,0,0,0-0.1L309.9,92.3z"/>
	<path class="st1" d="M388.1,93.4c0.1-1.1,0.9-1.9,2-2h22.4c16.4,0,28.2,14.8,28.2,31.6c0,22.5-15.7,41.1-38.3,41.1h-22.6
		c-0.8-0.1-1.5-0.8-1.4-1.6c0-0.1,0-0.3,0.1-0.4L388.1,93.4z M403.1,151.5c12.7,0,23.2-11.9,23.2-27.5c0-11.3-6.4-20-16.4-20h-9.8
		l-6.6,47.5L403.1,151.5z"/>
	<path class="st1" d="M493.9,90.4c16.8,0,29.2,14.9,29.2,32.5c0,23.4-16.9,42.3-38.9,42.3c-16.9,0-29.2-15-29.2-32.2
		C455,109.5,471.8,90.4,493.9,90.4z M509.1,124.6c0-11.2-6.4-20.7-16.7-20.7c-12.5,0-23.3,12.6-23.3,27.3c0,11.2,6.3,20.5,16.6,20.5
		C498.4,151.7,509.1,139.4,509.1,124.6z"/>
	<path class="st1" d="M546.6,92.3c0.1-1,1-1.8,2-1.9h1.1c1.1,0,1.6,0,2.7,1.7l30.5,43.2h0.1l5.6-41.9c0.1-1.1,0.9-1.9,2-2h10.1
		c0.9,0.1,1.7,0.9,1.6,1.9c0,0,0,0.1,0,0.1l-9.9,69.9c-0.1,1-1,1.8-2,1.9h-1c-1.6,0-2-0.3-3-1.9L556,119h-0.1l-5.6,43.2
		c-0.1,1.1-1,1.9-2.1,2h-10c-0.9-0.1-1.5-0.8-1.5-1.7c0,0,0-0.1,0-0.1L546.6,92.3z"/>
	<path class="st1" d="M624.8,93.4c0.1-1.1,0.9-1.9,2-2h22.4c16.4,0,28.2,14.8,28.2,31.6c0,22.5-15.7,41.1-38.3,41.1h-22.6
		c-0.8-0.1-1.5-0.8-1.4-1.6c0-0.1,0-0.2,0.1-0.4L624.8,93.4z M639.8,151.5c12.7,0,23.2-11.9,23.2-27.5c0-11.3-6.4-20-16.4-20h-9.8
		l-6.7,47.5L639.8,151.5z"/>
	<path class="st1" d="M700.7,93.4c0.1-1.1,0.9-1.9,2-2h38.4c0.9,0,1.6,0.8,1.6,1.7c0,0.1,0,0.2,0,0.3l-1.2,8.5c-0.1,1.1-1,1.9-2.1,2
		h-26.6l-2.4,17h22c0.9,0.1,1.6,0.9,1.6,1.8c0,0.1,0,0.1,0,0.2l-1.2,8.6c-0.1,1.1-1,1.9-2.1,2h-22l-2.5,18.1h26.7c1,0,1.6,0.9,1.5,2
		l-1.2,8.5c-0.1,1.1-1,1.9-2.1,2h-38.5c-0.8,0-1.5-0.7-1.5-1.5c0-0.2,0-0.3,0.1-0.5L700.7,93.4z"/>
	<path class="st1" d="M768.9,92c0.2-0.9,1-1.6,2-1.6h1.5c0.7,0,1.2,0.4,1.5,1l14.1,47.1h0.2l28.3-47.1c0.4-0.6,1-1,1.8-1h1.6
		c0.8,0.1,1.4,0.8,1.4,1.6l0.9,69.8c0.1,1.2-0.7,2.3-1.9,2.4c0,0-0.1,0-0.1,0h-10c-0.8,0-1.5-0.7-1.6-1.5c0,0,0,0,0-0.1l0.8-37.3
		H809l-21.7,38.7c-0.3,0.7-1,1.1-1.8,1.1h-1.7c-0.7,0-1.3-0.5-1.5-1.1l-10.6-38.8h-0.2l-10,37.3c-0.2,0.9-1,1.6-2,1.6h-9.9
		c-1.1,0-1.9-0.9-1.5-2.4L768.9,92z"/>
	<path class="st1" d="M833.6,161.5l39.1-69.9c0.3-0.7,1-1.1,1.8-1.1h0.9c0.7,0,1.3,0.5,1.5,1.1l19.1,69.9c0.4,1.1-0.2,2.2-1.3,2.6
		c-0.2,0.1-0.5,0.1-0.7,0.1h-9c-1.6,0-2.4-0.5-2.7-2.1l-2.6-11.5h-25.9l-6,11.5c-0.6,1.3-1.9,2.1-3.3,2.1h-9.6
		C833.4,164.2,832.9,162.8,833.6,161.5z M876.3,139.3l-4.9-22.7h-0.2l-11.3,22.7H876.3z"/>
	<path class="st1" d="M920.5,92.3c0.1-1,1-1.8,2-1.9h1.1c1.2,0,1.6,0,2.7,1.7l30.5,43.2h0.1l5.6-41.9c0.1-1.1,0.9-1.9,2-2h10.1
		c0.9,0.1,1.7,0.9,1.6,1.9c0,0,0,0.1,0,0.1l-9.9,69.9c-0.1,1-1,1.8-2,1.9h-1c-1.6,0-2-0.3-3-1.9L930,119h-0.1l-5.6,43.2
		c-0.1,1.1-1,1.9-2.1,2h-10c-0.9-0.1-1.5-0.8-1.5-1.7c0,0,0-0.1,0-0.1L920.5,92.3z"/>
	<path class="st1" d="M998.7,93.4c0.1-1.1,0.9-1.9,2-2h22.5c16.4,0,28.1,14.8,28.1,31.6c0,22.5-15.7,41.1-38.3,41.1h-22.6
		c-0.8-0.1-1.5-0.8-1.4-1.6c0-0.1,0-0.3,0.1-0.4L998.7,93.4z M1013.7,151.5c12.7,0,23.2-11.9,23.2-27.5c0-11.3-6.4-20-16.4-20h-9.8
		l-6.7,47.5H1013.7z"/>
	<path class="st1" d="M1104.5,90.4c16.8,0,29.2,14.9,29.2,32.5c0,23.4-16.9,42.3-38.9,42.3c-16.9,0-29.2-15-29.2-32.2
		C1065.6,109.5,1082.4,90.4,1104.5,90.4z M1119.7,124.6c0-11.2-6.4-20.7-16.7-20.7c-12.5,0-23.3,12.6-23.3,27.3
		c0,11.2,6.3,20.5,16.6,20.5C1109,151.7,1119.7,139.4,1119.7,124.6z"/>
	<path class="st1" d="M1157.2,92.3c0.1-1,1-1.8,2-1.9h1.2c1.1,0,1.6,0,2.7,1.7l30.6,43.2h0.1l5.6-41.9c0.1-1.1,0.9-1.9,2-2h10.1
		c0.9,0.1,1.6,0.9,1.6,1.8c0,0.1,0,0.1,0,0.2l-9.9,69.9c-0.1,1-1,1.8-2,1.9h-1c-1.6,0-2-0.3-3-1.9l-30.4-44.4h-0.1l-5.6,43.2
		c-0.1,1.1-1,1.9-2.1,2h-10c-0.9-0.1-1.5-0.8-1.5-1.7c0,0,0,0,0-0.1L1157.2,92.3z"/>
	<path class="st1" d="M1235.4,93.4c0.1-1.1,0.9-1.9,2-2h22.4c16.4,0,28.2,14.8,28.2,31.6c0,22.5-15.7,41.1-38.3,41.1h-22.6
		c-0.8-0.1-1.5-0.8-1.4-1.6c0-0.1,0-0.3,0.1-0.4L1235.4,93.4z M1250.4,151.5c12.7,0,23.2-11.9,23.2-27.5c0-11.3-6.4-20-16.4-20h-9.8
		l-6.7,47.5L1250.4,151.5z"/>
	<path class="st1" d="M1311.1,93.4c0.1-1.1,0.9-1.9,2-2h38.4c0.9,0,1.6,0.8,1.6,1.7c0,0.1,0,0.2,0,0.3l-1.2,8.5
		c-0.1,1.1-1,1.9-2.1,2h-26.6l-2.4,17h22c0.9,0.1,1.6,0.9,1.6,1.8c0,0.1,0,0.1,0,0.2l-1.2,8.6c-0.1,1.1-1,1.9-2.1,2h-22l-2.6,18.2
		h26.7c1,0,1.6,0.9,1.4,2l-1.1,8.5c-0.1,1.1-1,1.9-2.1,2H1303c-0.9,0-1.5-0.7-1.5-1.5c0-0.2,0-0.3,0.1-0.5L1311.1,93.4z"/>
	<path class="st1" d="M1379.4,92c0.2-0.9,1-1.6,2-1.6h1.4c0.7,0,1.2,0.4,1.5,1l14.1,47.1h0.2l28.3-47.1c0.4-0.6,1-1,1.8-1h1.6
		c0.8,0.1,1.4,0.7,1.5,1.6l0.9,69.8c0.1,1.2-0.7,2.3-1.9,2.4c0,0-0.1,0-0.1,0h-10c-0.8,0-1.5-0.7-1.6-1.5c0,0,0,0,0-0.1l0.8-37.3
		h-0.3l-21.7,38.8c-0.3,0.7-1,1.1-1.8,1.1h-1.7c-0.7,0-1.3-0.5-1.5-1.1l-10.6-38.8h-0.2l-10,37.3c-0.2,0.9-1,1.6-2,1.6h-9.9
		c-1.1,0-1.9-0.9-1.4-2.4L1379.4,92z"/>
	<path class="st1" d="M1444.1,161.5l39.1-69.9c0.3-0.7,1-1.1,1.8-1.1h0.9c0.7,0,1.3,0.5,1.4,1.1l19.1,69.9c0.4,1-0.1,2.2-1.2,2.6
		c-0.3,0.1-0.5,0.1-0.8,0.1h-9c-1.6,0-2.4-0.5-2.7-2.1l-2.6-11.5h-25.9l-6,11.5c-0.6,1.3-1.9,2.1-3.3,2.1h-9.6
		C1443.9,164.2,1443.4,162.8,1444.1,161.5z M1486.8,139.3l-4.8-22.6h-0.2l-11.3,22.6H1486.8z"/>
	<path class="st1" d="M1531,92.3c0.1-1,1-1.8,2-1.9h1.1c1.2,0,1.6,0,2.7,1.7l30.5,43.2h0.1l5.6-41.9c0.1-1.1,0.9-1.9,2-2h10.1
		c0.9,0.1,1.6,0.9,1.6,1.8c0,0.1,0,0.1,0,0.2l-9.9,69.9c-0.1,1-1,1.8-2,1.9h-1c-1.6,0-2-0.3-3-1.9l-30.4-44.4h-0.1l-5.6,43.2
		c-0.1,1.1-1,1.9-2.1,2h-10c-0.9-0.1-1.5-0.8-1.5-1.7c0,0,0-0.1,0-0.1L1531,92.3z"/>
</g>
<g class="st0">
	<path class="st2" d="M44.1,3.2c16.9,0,29.2,14.9,29.2,32.5C73.3,59.1,56.4,78,34.5,78C17.5,78,5.3,63,5.3,45.8
		C5.3,22.3,22,3.2,44.1,3.2z M59.3,37.4c0-11.2-6.5-20.7-16.7-20.7c-12.5,0-23.3,12.6-23.3,27.3c0,11.2,6.3,20.5,16.6,20.5
		C48.6,64.5,59.3,52.3,59.3,37.4z"/>
	<path class="st2" d="M96.8,5.1c0.1-1,1-1.8,2-1.9h1.2c1.1,0,1.6,0,2.7,1.7l30.5,43.2h0.1l5.6-41.9c0.1-1.1,0.9-1.9,2-2H151
		c0.9,0.1,1.6,0.9,1.6,1.8c0,0.1,0,0.1,0,0.2l-9.9,69.9c-0.1,1-1,1.8-2,1.9h-1c-1.6,0-2-0.3-3-1.9l-30.4-44.4h-0.1L100.6,75
		c-0.1,1.1-1,1.9-2.1,2h-10c-0.9-0.1-1.5-0.8-1.5-1.7c0,0,0-0.1,0-0.1L96.8,5.1z"/>
	<path class="st2" d="M175,6.2c0.1-1.1,0.9-1.9,2-2h22.4c16.4,0,28.2,14.8,28.2,31.6c0,22.6-15.7,41.2-38.3,41.2h-22.6
		c-0.8-0.1-1.5-0.8-1.4-1.6c0-0.1,0-0.3,0.1-0.4L175,6.2z M190,64.3c12.7,0,23.2-12,23.2-27.5c0-11.3-6.4-20-16.4-20H187l-6.6,47.5
		L190,64.3z"/>
	<path class="st2" d="M250.9,6.2c0.1-1.1,0.9-1.9,2-2h38.4c0.9,0,1.6,0.8,1.6,1.7c0,0.1,0,0.2,0,0.3l-1.2,8.5c-0.1,1.1-1,1.9-2.1,2
		h-26.6l-2.4,17h22c0.9,0.1,1.7,0.9,1.6,1.9c0,0,0,0.1,0,0.1l-1.2,8.6c-0.1,1.1-1,1.9-2.1,2h-22l-2.6,18.2h26.7c1,0,1.6,0.9,1.5,2
		l-1.1,8.4c-0.1,1.1-1,1.9-2.1,2h-38.4c-0.9,0-1.5-0.7-1.5-1.5c0-0.2,0-0.3,0.1-0.5L250.9,6.2z"/>
	<path class="st2" d="M319.1,4.8c0.2-0.9,1-1.6,2-1.6h1.5c0.7,0,1.2,0.4,1.5,1l14.1,47.1h0.2l28.2-47c0.4-0.6,1-1,1.8-1h1.6
		c0.8,0.1,1.4,0.7,1.5,1.6l0.9,69.8c0.1,1.2-0.8,2.2-2,2.4c0,0-0.1,0-0.1,0h-10c-0.8,0-1.5-0.7-1.6-1.5c0,0,0,0,0-0.1l0.8-37.3h-0.3
		l-21.7,38.7c-0.3,0.7-1,1.1-1.8,1.1h-1.7c-0.7,0-1.3-0.5-1.5-1.1l-10.6-38.7h-0.2l-10,37.3c-0.2,0.9-1,1.6-2,1.6H300
		c-1.1,0-1.9-0.9-1.5-2.4L319.1,4.8z"/>
	<path class="st2" d="M383.9,74.3l39.1-69.9c0.3-0.7,1-1.1,1.8-1.1h0.9c0.7,0,1.3,0.5,1.5,1.1l19.1,69.9c0.4,1-0.1,2.2-1.2,2.6
		c-0.3,0.1-0.5,0.1-0.8,0.1h-9c-1.6,0-2.4-0.5-2.7-2.1l-2.6-11.5H404l-6,11.5c-0.6,1.3-1.9,2.1-3.3,2.1h-9.6
		C383.7,77,383.1,75.6,383.9,74.3z M426.6,52.2l-4.9-22.6h-0.2l-11.3,22.6L426.6,52.2z"/>
	<path class="st2" d="M470.7,5.1c0.1-1,1-1.8,2-1.9h1.1c1.1,0,1.6,0,2.7,1.7l30.5,43.2h0.1l5.6-41.9c0.1-1.1,0.9-1.9,2-2h10.1
		c0.9,0.1,1.6,0.9,1.6,1.8c0,0.1,0,0.1,0,0.2l-9.9,69.9c-0.1,1-1,1.8-2,1.9h-1c-1.6,0-2-0.3-3-1.9l-30.4-44.4h-0.1L474.5,75
		c-0.1,1.1-1,1.9-2.1,2h-10c-0.9-0.1-1.5-0.9-1.4-1.7c0,0,0,0,0,0L470.7,5.1z"/>
	<path class="st2" d="M549,6.2c0.1-1.1,0.9-1.9,2-2h22.4c16.4,0,28.2,14.8,28.2,31.6C601.5,58.4,585.8,77,563.2,77h-22.5
		c-0.8-0.1-1.5-0.8-1.4-1.6c0-0.1,0-0.2,0.1-0.4L549,6.2z M564,64.3c12.7,0,23.2-12,23.2-27.5c0-11.3-6.5-20-16.4-20H561l-6.7,47.5
		L564,64.3z"/>
</g>
<g class="st0">
	<path class="st1" d="M654.7,3.2c16.8,0,29.2,14.9,29.2,32.5c0,23.4-16.9,42.3-38.9,42.3c-16.9,0-29.2-15-29.2-32.2
		C615.9,22.3,632.6,3.2,654.7,3.2z M669.9,37.4c0-11.2-6.4-20.7-16.7-20.7c-12.5,0-23.3,12.6-23.3,27.3c0,11.2,6.3,20.5,16.6,20.5
		C659.2,64.5,669.9,52.3,669.9,37.4z"/>
	<path class="st1" d="M707.3,5.1c0.1-1,1-1.8,2-1.9h1.1c1.2,0,1.6,0,2.7,1.7l30.5,43.2h0.1l5.6-41.9c0.1-1.1,0.9-1.9,2-2h10.1
		c0.9,0.1,1.7,0.9,1.6,1.9c0,0,0,0.1,0,0.1l-9.9,69.9c-0.1,1-1,1.8-2,1.9h-1c-1.6,0-2-0.3-3-1.9l-30.4-44.4h-0.1L711,75
		c-0.1,1.1-1,1.9-2,2h-10c-0.9-0.1-1.5-0.8-1.5-1.7c0,0,0-0.1,0-0.1L707.3,5.1z"/>
	<path class="st1" d="M785.5,6.2c0.1-1.1,0.9-1.9,2-2H810c16.4,0,28.2,14.8,28.2,31.6c0,22.6-15.7,41.2-38.4,41.2h-22.6
		c-0.8-0.1-1.5-0.8-1.4-1.6c0-0.1,0-0.3,0.1-0.4L785.5,6.2z M800.5,64.3c12.7,0,23.2-12,23.2-27.5c0-11.3-6.4-20-16.4-20h-9.8
		l-6.7,47.5L800.5,64.3z"/>
	<path class="st1" d="M861.4,6.2c0.1-1.1,0.9-1.9,2-2h38.4c0.9,0,1.6,0.8,1.6,1.7c0,0.1,0,0.2,0,0.3l-1.2,8.5c-0.1,1.1-1,1.9-2.1,2
		h-26.6l-2.4,17h22c0.9,0.1,1.6,0.9,1.6,1.8c0,0.1,0,0.1,0,0.2l-1.2,8.6c-0.1,1.1-1,1.9-2.1,2h-22l-2.6,18.2h26.7c1,0,1.6,0.9,1.5,2
		l-1.1,8.4c-0.1,1.1-1,1.9-2.1,2h-38.4c-0.9,0-1.5-0.7-1.5-1.5c0-0.2,0-0.3,0.1-0.5L861.4,6.2z"/>
	<path class="st1" d="M929.6,4.8c0.2-0.9,1-1.6,2-1.6h1.5c0.7,0,1.2,0.4,1.5,1l14.1,47.1h0.2l28.2-47c0.4-0.6,1-1,1.8-1h1.5
		c0.8,0.1,1.4,0.7,1.5,1.6l0.9,69.8c0.1,1.2-0.8,2.2-2,2.4c0,0-0.1,0-0.1,0h-10c-0.8,0-1.5-0.7-1.6-1.5c0,0,0,0,0-0.1l0.8-37.3h-0.3
		L948,76.9c-0.3,0.7-1,1.1-1.7,1.1h-1.7c-0.7,0-1.3-0.5-1.5-1.1l-10.6-38.8h-0.2l-10,37.3c-0.2,0.9-1,1.6-2,1.6h-9.9
		c-1.2,0-1.9-0.9-1.5-2.4L929.6,4.8z"/>
	<path class="st1" d="M994.4,74.3l39.1-69.9c0.3-0.7,1-1.1,1.8-1.1h0.9c0.7,0,1.3,0.5,1.4,1.1l19.1,69.9c0.4,1-0.1,2.2-1.2,2.6
		c-0.3,0.1-0.5,0.1-0.8,0.1h-9c-1.6,0-2.4-0.5-2.7-2.1l-2.6-11.5h-25.9l-6,11.5c-0.6,1.3-1.9,2.1-3.3,2.1h-9.6
		C994.2,77,993.6,75.6,994.4,74.3z M1037.1,52.2l-4.9-22.6h-0.2l-11.3,22.6H1037.1z"/>
	<path class="st1" d="M1081.2,5.1c0.1-1,1-1.8,2-1.9h1.2c1.1,0,1.6,0,2.7,1.7l30.6,43.2h0.1l5.6-41.9c0.1-1.1,0.9-1.9,2-2h10.1
		c0.9,0.1,1.6,0.9,1.6,1.8c0,0.1,0,0.1,0,0.2l-9.9,69.9c-0.1,1-1,1.8-2,1.9h-1c-1.6,0-2-0.3-3-1.9l-30.4-44.4h-0.1L1085,75
		c-0.1,1.1-1,1.9-2.1,2h-10c-0.9-0.1-1.5-0.8-1.5-1.7c0,0,0-0.1,0-0.1L1081.2,5.1z"/>
	<path class="st1" d="M1159.5,6.2c0.1-1.1,0.9-1.9,2-2h22.4c16.4,0,28.1,14.8,28.1,31.6c0,22.6-15.7,41.2-38.3,41.2h-22.6
		c-0.8-0.1-1.5-0.8-1.4-1.6c0-0.1,0-0.3,0.1-0.4L1159.5,6.2z M1174.5,64.3c12.7,0,23.2-12,23.2-27.5c0-11.3-6.4-20-16.4-20h-9.8
		l-6.7,47.5L1174.5,64.3z"/>
	<path class="st1" d="M1265.2,3.2c16.8,0,29.2,14.9,29.2,32.5c0,23.4-16.9,42.3-38.9,42.3c-16.9,0-29.2-15-29.2-32.2
		C1226.4,22.3,1243.1,3.2,1265.2,3.2z M1280.4,37.4c0-11.2-6.4-20.7-16.7-20.7c-12.5,0-23.3,12.6-23.3,27.3
		c0,11.2,6.3,20.5,16.6,20.5C1269.7,64.5,1280.4,52.3,1280.4,37.4z"/>
	<path class="st1" d="M1317.8,5.1c0.1-1,1-1.8,2-1.9h1.2c1.1,0,1.6,0,2.7,1.7l30.6,43.2h0.1l5.6-41.9c0.1-1.1,0.9-1.9,2-2h10.1
		c0.9,0.1,1.6,0.9,1.6,1.8c0,0.1,0,0.1,0,0.2l-9.9,69.9c-0.1,1-1,1.8-2,1.9h-1c-1.6,0-2-0.3-3-1.9l-30.4-44.4h-0.1l-5.6,43.2
		c-0.1,1.1-1,1.9-2.1,2h-10c-0.9-0.1-1.5-0.8-1.5-1.7c0,0,0,0,0-0.1L1317.8,5.1z"/>
	<path class="st1" d="M1396,6.2c0.1-1.1,0.9-1.9,2-2h22.4c16.4,0,28.2,14.8,28.2,31.6c0,22.5-15.7,41.1-38.3,41.1h-22.6
		c-0.8-0.1-1.5-0.8-1.4-1.6c0-0.1,0-0.3,0.1-0.4L1396,6.2z M1411,64.3c12.7,0,23.2-12,23.2-27.5c0-11.3-6.4-20-16.4-20h-9.8
		l-6.7,47.5L1411,64.3z"/>
	<path class="st1" d="M1471.9,6.2c0.1-1.1,0.9-1.9,2-2h38.4c0.9,0,1.6,0.8,1.6,1.7c0,0.1,0,0.2,0,0.3l-1.2,8.5c-0.1,1.1-1,1.9-2.1,2
		H1484l-2.4,17h22c0.9,0.1,1.7,0.9,1.6,1.9c0,0.1,0,0.1,0,0.1l-1.2,8.6c-0.1,1.1-1,1.9-2.1,2h-22l-2.6,18.2h26.7c1,0,1.6,0.9,1.4,2
		l-1.2,8.4c-0.1,1.1-1,1.9-2.1,2h-38.4c-0.9,0-1.5-0.7-1.5-1.5c0-0.2,0-0.3,0.1-0.5L1471.9,6.2z"/>
	<path class="st1" d="M1540.1,4.8c0.2-0.9,1-1.6,2-1.6h1.4c0.7,0,1.2,0.4,1.5,1l14.1,47.1h0.2l28.3-47.1c0.4-0.6,1-1,1.8-1h1.6
		c0.8,0.1,1.4,0.7,1.4,1.6l0.9,69.8c0.1,1.2-0.7,2.3-1.9,2.4c0,0-0.1,0-0.1,0h-10c-0.8,0-1.5-0.7-1.6-1.5c0,0,0,0,0-0.1l0.8-37.3
		h-0.3l-21.7,38.8c-0.3,0.7-1,1.1-1.8,1.1h-1.7c-0.7,0-1.3-0.5-1.5-1.1l-10.6-38.8h-0.2l-10,37.3c-0.2,0.9-1,1.6-2,1.6h-9.9
		c-1.1,0-1.9-0.9-1.5-2.4L1540.1,4.8z"/>
</g>
</svg>
