<svg id="Capa_1" data-name="Capa 1" xmlns="http://www.w3.org/2000/svg" viewBox="0 0 784.54 158.79"><defs><style>.cls-1{opacity:0.6;}.cls-2{fill:none;stroke:#fff;stroke-miterlimit:3.11;}.cls-3{fill:#fff;}</style></defs><g class="cls-1"><path class="cls-2" d="M8.49,159.45,41,89.16A1.89,1.89,0,0,1,42.75,88h1a1.77,1.77,0,0,1,1.78,1.15l32.17,70.29A1.85,1.85,0,0,1,76,162.17H66.88c-1.57,0-2.3-.63-3-2.09L58.73,148.8H27.5l-5.12,11.28a3.16,3.16,0,0,1-3,2.09H10.26A1.85,1.85,0,0,1,8.49,159.45ZM53.61,137.2l-10.44-23h-.32l-10.23,23Z" transform="translate(-7.78 -4.93)"/><path class="cls-2" d="M89.12,155.07c-1.05-.84-1.46-1.47-.52-3.14l3.76-6.47a2.42,2.42,0,0,1,3.55-.74c4.28,3.24,9,6.48,15.77,6.48,5.43,0,9.51-3.55,9.51-8,0-5.33-4.49-9-13.27-12.54-9.82-4-19.64-10.23-19.64-22.56,0-9.29,6.9-20,23.51-20a36.76,36.76,0,0,1,20.89,7,2.58,2.58,0,0,1,.62,3.44l-4,6c-.83,1.25-2.4,2.09-3.65,1.25-4.49-2.82-8.78-5.75-14.52-5.75-6,0-9.19,3.35-9.19,7.32,0,4.91,3.86,8.25,12.32,11.7,10.13,4.07,21.83,10.13,21.83,23.6,0,10.76-9.29,20.68-24,20.68C98.94,163.21,92.15,157.68,89.12,155.07Z" transform="translate(-7.78 -4.93)"/><path class="cls-2" d="M166.1,101.59h-16a2,2,0,0,1-2-2V91a2,2,0,0,1,2-2h45.65a2,2,0,0,1,2,2V99.6a2,2,0,0,1-2,2h-16v58.59a2.06,2.06,0,0,1-2,2h-9.71a2.05,2.05,0,0,1-2-2Z" transform="translate(-7.78 -4.93)"/><path class="cls-2" d="M214.56,91a2.05,2.05,0,0,1,2-2h9.71a2.06,2.06,0,0,1,2,2v69.14a2.06,2.06,0,0,1-2,2h-9.71a2.05,2.05,0,0,1-2-2Z" transform="translate(-7.78 -4.93)"/><path class="cls-2" d="M251.11,91a2,2,0,0,1,2-2h42.51a2,2,0,0,1,2,2V99.6a2,2,0,0,1-2,2H264.69v17.13h25.8a2.05,2.05,0,0,1,2,2v8.67a2,2,0,0,1-2,2h-25.8v18.28h30.92a2,2,0,0,1,2,2v8.56a2,2,0,0,1-2,2H253.1a2,2,0,0,1-2-2Z" transform="translate(-7.78 -4.93)"/><path class="cls-2" d="M316.49,89.89a2,2,0,0,1,2-1.88H320a2.31,2.31,0,0,1,1.78.73l42.61,45.43h.21V91a2,2,0,0,1,2-2h9.61a2.05,2.05,0,0,1,2,2v70.29a2,2,0,0,1-2,1.88h-1.46a2.29,2.29,0,0,1-1.78-.73l-42.83-47.21H330v44.91a2,2,0,0,1-2,2h-9.5a2.06,2.06,0,0,1-2-2Z" transform="translate(-7.78 -4.93)"/><path class="cls-2" d="M401.19,91a2,2,0,0,1,1.88-2h24.76a36.56,36.56,0,1,1,0,73.12H403.07a2,2,0,0,1-1.88-2Zm25.39,58.38c13.57,0,23.5-9.6,23.5-23.91s-9.93-23.82-23.5-23.82H414.67v47.73Z" transform="translate(-7.78 -4.93)"/><path class="cls-2" d="M472.84,159.45l32.48-70.29A1.89,1.89,0,0,1,507.1,88h1a1.77,1.77,0,0,1,1.78,1.15l32.17,70.29a1.85,1.85,0,0,1-1.77,2.72h-9.09c-1.57,0-2.3-.63-3-2.09l-5.12-11.28H491.85l-5.12,11.28a3.16,3.16,0,0,1-3,2.09h-9.08A1.85,1.85,0,0,1,472.84,159.45ZM518,137.2l-10.44-23h-.32L497,137.2Z" transform="translate(-7.78 -4.93)"/><path class="cls-2" d="M553.47,155.07c-1-.84-1.46-1.47-.52-3.14l3.76-6.47a2.42,2.42,0,0,1,3.55-.74c4.28,3.24,9,6.48,15.77,6.48,5.43,0,9.51-3.55,9.51-8,0-5.33-4.49-9-13.27-12.54-9.82-4-19.64-10.23-19.64-22.56,0-9.29,6.9-20,23.51-20A36.76,36.76,0,0,1,597,95a2.57,2.57,0,0,1,.62,3.44l-4,6c-.84,1.25-2.41,2.09-3.66,1.25-4.49-2.82-8.78-5.75-14.52-5.75-6,0-9.19,3.35-9.19,7.32,0,4.91,3.86,8.25,12.32,11.7,10.14,4.07,21.83,10.13,21.83,23.6,0,10.76-9.29,20.68-24,20.68C563.29,163.21,556.5,157.68,553.47,155.07Z" transform="translate(-7.78 -4.93)"/><path class="cls-2" d="M630.45,101.59h-16a2,2,0,0,1-2-2V91a2,2,0,0,1,2-2h45.64a2,2,0,0,1,2,2V99.6a2,2,0,0,1-2,2h-16v58.59a2.05,2.05,0,0,1-2,2h-9.72a2.05,2.05,0,0,1-2-2Z" transform="translate(-7.78 -4.93)"/><path class="cls-2" d="M678.8,91a2.06,2.06,0,0,1,2-2h9.71a2.06,2.06,0,0,1,2,2v69.14a2.06,2.06,0,0,1-2,2h-9.71a2.06,2.06,0,0,1-2-2Z" transform="translate(-7.78 -4.93)"/><path class="cls-2" d="M715.46,91a2,2,0,0,1,2-2H760a2,2,0,0,1,2,2V99.6a2,2,0,0,1-2,2H729v17.13h25.8a2.05,2.05,0,0,1,2,2v8.67a2,2,0,0,1-2,2H729v18.28H760a2,2,0,0,1,2,2v8.56a2,2,0,0,1-2,2H717.45a2,2,0,0,1-2-2Z" transform="translate(-7.78 -4.93)"/></g><g class="cls-1"><path class="cls-3" d="M29,19H13a2,2,0,0,1-2-2V8.45a2,2,0,0,1,2-2H58.63a2,2,0,0,1,2,2V17a2,2,0,0,1-2,2h-16V77.6a2.05,2.05,0,0,1-2,2H31a2.06,2.06,0,0,1-2-2Z" transform="translate(-7.78 -4.93)"/><path class="cls-3" d="M77.42,8.45a2.05,2.05,0,0,1,2-2h9.71a2.05,2.05,0,0,1,2,2V77.6a2.05,2.05,0,0,1-2,2H79.41a2.06,2.06,0,0,1-2-2Z" transform="translate(-7.78 -4.93)"/><path class="cls-3" d="M114.08,8.45a2,2,0,0,1,2-2h42.51a2,2,0,0,1,2,2V17a2,2,0,0,1-2,2H127.66V36.13h25.8a2.05,2.05,0,0,1,2,2v8.67a2,2,0,0,1-2,2h-25.8V67.05h30.92a2,2,0,0,1,2,2V77.6a2,2,0,0,1-2,2H116.07a2,2,0,0,1-2-2Z" transform="translate(-7.78 -4.93)"/><path class="cls-3" d="M179.46,7.31a2,2,0,0,1,2-1.88H183a2.27,2.27,0,0,1,1.78.73L227.4,51.59h.21V8.45a2,2,0,0,1,2-2h9.61a2.05,2.05,0,0,1,2,2v70.3a2,2,0,0,1-2,1.88h-1.47A2.28,2.28,0,0,1,236,79.9L193.14,32.69h-.2V77.6a2,2,0,0,1-2,2h-9.5a2.06,2.06,0,0,1-2-2Z" transform="translate(-7.78 -4.93)"/><path class="cls-3" d="M264.16,8.45a2,2,0,0,1,1.88-2H290.8a36.56,36.56,0,1,1,0,73.12H266a2,2,0,0,1-1.88-2Zm25.39,58.39c13.57,0,23.5-9.61,23.5-23.92s-9.93-23.81-23.5-23.81H277.64V66.84Z" transform="translate(-7.78 -4.93)"/><path class="cls-3" d="M335.81,76.87l32.48-70.3a1.89,1.89,0,0,1,1.78-1.14h1a1.78,1.78,0,0,1,1.78,1.14l32.17,70.3a1.85,1.85,0,0,1-1.77,2.72H394.2c-1.57,0-2.3-.63-3-2.09l-5.12-11.28H354.82L349.7,77.5a3.16,3.16,0,0,1-3,2.09h-9.08A1.85,1.85,0,0,1,335.81,76.87Zm45.12-22.25-10.44-23h-.32l-10.23,23Z" transform="translate(-7.78 -4.93)"/><path class="cls-3" d="M416.44,72.48c-1-.83-1.46-1.46-.52-3.13l3.76-6.48a2.42,2.42,0,0,1,3.55-.73c4.28,3.24,9,6.48,15.77,6.48,5.43,0,9.51-3.55,9.51-8,0-5.33-4.49-9-13.27-12.54-9.82-4-19.63-10.23-19.63-22.56,0-9.3,6.89-20,23.5-20a36.85,36.85,0,0,1,20.89,7,2.59,2.59,0,0,1,.62,3.45l-4,6c-.83,1.26-2.4,2.09-3.65,1.26-4.49-2.82-8.77-5.75-14.52-5.75-6,0-9.19,3.35-9.19,7.31,0,4.91,3.86,8.26,12.32,11.7,10.14,4.08,21.83,10.14,21.83,23.61,0,10.76-9.29,20.68-24,20.68C426.26,80.63,419.47,75.1,416.44,72.48Z" transform="translate(-7.78 -4.93)"/></g><g class="cls-1"><path class="cls-2" d="M493.42,19h-16a2,2,0,0,1-2-2V8.45a2,2,0,0,1,2-2h45.65a2,2,0,0,1,2,2V17a2,2,0,0,1-2,2h-16V77.6a2,2,0,0,1-2,2h-9.71a2.06,2.06,0,0,1-2-2Z" transform="translate(-7.78 -4.93)"/><path class="cls-2" d="M541.88,8.45a2.05,2.05,0,0,1,2-2h9.71a2,2,0,0,1,2,2V77.6a2,2,0,0,1-2,2h-9.71a2.06,2.06,0,0,1-2-2Z" transform="translate(-7.78 -4.93)"/><path class="cls-2" d="M578.44,8.45a2,2,0,0,1,2-2h42.51a2,2,0,0,1,2,2V17a2,2,0,0,1-2,2H592V36.13h25.79a2.06,2.06,0,0,1,2,2v8.67a2,2,0,0,1-2,2H592V67.05h30.91a2,2,0,0,1,2,2V77.6a2,2,0,0,1-2,2H580.42a2,2,0,0,1-2-2Z" transform="translate(-7.78 -4.93)"/><path class="cls-2" d="M643.82,7.31a2,2,0,0,1,2-1.88h1.57a2.25,2.25,0,0,1,1.77.73l42.62,45.43H692V8.45a2,2,0,0,1,2-2h9.61a2.05,2.05,0,0,1,2,2v70.3a2,2,0,0,1-2,1.88H702.1a2.28,2.28,0,0,1-1.77-.73L657.5,32.69h-.21V77.6a2,2,0,0,1-2,2H645.8a2.05,2.05,0,0,1-2-2Z" transform="translate(-7.78 -4.93)"/><path class="cls-2" d="M728.52,8.45a2,2,0,0,1,1.88-2h24.76a36.56,36.56,0,1,1,0,73.12H730.4a2,2,0,0,1-1.88-2ZM753.9,66.84c13.58,0,23.5-9.61,23.5-23.92s-9.92-23.81-23.5-23.81H742V66.84Z" transform="translate(-7.78 -4.93)"/></g></svg>