<?xml version="1.0" encoding="utf-8"?>
<!-- Generator: Adobe Illustrator 26.0.3, SVG Export Plug-In . SVG Version: 6.00 Build 0)  -->
<svg version="1.1" id="Capa_1" xmlns="http://www.w3.org/2000/svg" xmlns:xlink="http://www.w3.org/1999/xlink" x="0px" y="0px"
	 viewBox="0 0 1066.1 168" style="enable-background:new 0 0 1066.1 168;" xml:space="preserve">
<style type="text/css">
	.st0{opacity:0.6;}
	.st1{fill:none;stroke:#FFFFFF;stroke-miterlimit:3.11;}
	.st2{fill:#FFFFFF;}
</style>
<g class="st0">
	<path class="st1" d="M16.9,91c0.1-1.1,0.9-1.9,2-2h38.6c0.9,0,1.6,0.8,1.6,1.7c0,0.1,0,0.2,0,0.3l-1.2,8.6c-0.1,1.1-1,1.9-2.1,2H29
		l-2.4,17.1h22.1c1,0.1,1.7,0.9,1.6,1.9c0,0,0,0.1,0,0.1l-1.2,8.7c-0.1,1.1-1,1.9-2.1,2H24.8l-2.6,18.3h26.8c1,0,1.6,0.9,1.5,2
		l-1.2,8.6c-0.1,1.1-1,1.9-2.1,2H8.7c-0.9,0-1.5-0.7-1.5-1.6c0-0.1,0-0.3,0.1-0.4L16.9,91z"/>
	<path class="st1" d="M78,91c0.1-1.1,0.9-1.9,2-2h27.6c10.2,0,17.7,8.8,17.7,19.5c0,12.7-6.7,21-16.6,24.1l8.6,26.7
		c0.4,1.4-0.2,2.7-1.8,2.7h-9.9c-1.1,0.1-2.1-0.6-2.3-1.7l-7.6-26.9h-9.9l-3.8,26.6c-0.1,1.1-0.9,1.9-2,2H69.7
		c-0.9,0-1.5-0.7-1.5-1.6c0-0.1,0-0.3,0.1-0.4L78,91z M100.3,122.3c6.6,0,11-5.5,11-12.1c0-5.7-2.9-8.7-6.8-8.7H90.2l-2.9,20.8
		H100.3z"/>
	<path class="st1" d="M177.7,88c8.4-0.1,16.3,3.5,21.7,9.9c0.6,0.9,0.5,2.2-0.4,2.9l-5.6,5.4c-0.9,1-2.4,1-3.3,0.1
		c0,0-0.1-0.1-0.1-0.1c-3.5-3.4-8.1-5.2-12.9-5.3c-12.5,0-23.4,13-23.4,27.9c0,11.1,5.9,20.6,16,20.6c6.1,0,10.8-3,14.3-6.2
		c1.4-1.1,2.5-0.9,3.3,0.1l5.4,6.8c0.5,1,0.2,2.1-0.5,2.8c-7.3,7-15.2,10.1-23.6,10.1c-18.1,0-29.8-14.5-29.8-32.5
		C138.8,106.2,156.1,88,177.7,88z"/>
	<path class="st1" d="M218.5,91c0.1-1.1,0.9-1.9,2-2h38.6c0.9,0,1.6,0.8,1.6,1.7c0,0.1,0,0.2,0,0.3l-1.2,8.6c-0.1,1.1-1,1.9-2.1,2
		h-26.8l-2.4,17.1h22.1c0.9,0.1,1.7,0.9,1.6,1.9c0,0,0,0.1,0,0.1l-1.2,8.7c-0.1,1.1-1,1.9-2.1,2h-22.1l-2.6,18.3h26.8
		c1,0,1.6,0.9,1.5,2l-1.1,8.5c-0.1,1.1-1,1.9-2.1,2h-38.6c-0.9,0-1.5-0.7-1.5-1.6c0-0.1,0-0.3,0.1-0.4L218.5,91z"/>
	<path class="st1" d="M279.6,91c0.1-1.1,0.9-1.9,2-2h38.6c0.9,0,1.6,0.8,1.6,1.7c0,0.1,0,0.2,0,0.3l-1.2,8.6c-0.1,1.1-1,1.9-2.1,2
		h-26.8l-2.4,17.1h22.1c1,0.1,1.7,0.9,1.6,1.9c0,0,0,0.1,0,0.1l-1.2,8.7c-0.1,1.1-1,1.9-2.1,2h-22.1l-2.6,18.3h26.8
		c1,0,1.6,0.9,1.5,2l-1.1,8.6c-0.1,1.1-1,1.9-2.1,2h-38.6c-0.9,0-1.5-0.7-1.5-1.6c0-0.1,0-0.3,0.1-0.4L279.6,91z"/>
	<path class="st1" d="M369.7,88c8.4-0.1,16.3,3.5,21.7,9.9c0.7,0.9,0.5,2.2-0.4,2.9l-5.6,5.4c-0.9,0.9-2.4,1-3.3,0.1
		c0,0-0.1-0.1-0.1-0.1c-3.5-3.3-8.1-5.2-12.9-5.3c-12.5,0-23.4,13-23.4,27.9c0,11.1,6,20.6,16,20.6c6,0,10.8-3,14.3-6.2
		c1.4-1.1,2.5-0.9,3.3,0.1l5.4,6.8c0.5,1,0.2,2.1-0.5,2.8c-7.3,7-15.2,10.1-23.6,10.1c-18.1,0-29.8-14.5-29.8-32.5
		C330.8,106.2,348.1,88,369.7,88z"/>
	<path class="st1" d="M439.1,88c16.9,0,29.3,14.9,29.3,32.7c0,23.5-17,42.5-39,42.5c-17,0-29.3-15-29.3-32.4
		C400.1,107.2,416.9,88,439.1,88z M454.4,122.3c0-11.3-6.5-20.8-16.8-20.8c-12.5,0-23.4,12.6-23.4,27.5c0,11.3,6.4,20.6,16.7,20.6
		C443.6,149.6,454.4,137.3,454.4,122.3L454.4,122.3z"/>
	<path class="st1" d="M499.3,89.6c0.2-0.9,1-1.6,2-1.6h1.5c0.7,0,1.2,0.4,1.5,1l14.2,47.3h0.2L547,89c0.4-0.6,1-1,1.8-1h1.6
		c0.8,0.1,1.5,0.7,1.5,1.6l0.9,70.2c0.1,1.2-0.7,2.3-1.9,2.4c0,0-0.1,0-0.1,0h-10c-0.9,0-1.6-0.7-1.6-1.5c0,0,0,0,0-0.1l0.8-37.5
		h-0.3L517.8,162c-0.3,0.7-1,1.1-1.8,1.1h-1.7c-0.7,0-1.3-0.5-1.5-1.1l-10.7-38.9H502l-10,37.5c-0.2,0.9-1,1.6-2,1.6h-9.9
		c-1.1,0-1.9-0.9-1.5-2.4L499.3,89.6z"/>
	<path class="st1" d="M589.1,89.6c0.2-0.9,1-1.6,2-1.6h1.5c0.7,0,1.3,0.4,1.5,1l14.2,47.3h0.2L636.8,89c0.4-0.6,1-1,1.8-1h1.6
		c0.8,0.1,1.5,0.7,1.5,1.6l0.9,70.2c0.1,1.2-0.7,2.3-1.9,2.4c0,0-0.1,0-0.1,0h-10c-0.8,0-1.5-0.7-1.6-1.5c0,0,0,0,0-0.1l0.8-37.5
		h-0.3L607.5,162c-0.3,0.7-1,1.1-1.8,1.1h-1.7c-0.7,0-1.3-0.5-1.5-1.1L592,123.1h-0.2l-10,37.5c-0.2,0.9-1,1.6-2,1.6h-9.9
		c-1.2,0-1.9-0.9-1.5-2.4L589.1,89.6z"/>
	<path class="st1" d="M671.3,91c0.1-1.1,0.9-1.9,2-2H712c0.9,0,1.6,0.8,1.6,1.7c0,0.1,0,0.2,0,0.3l-1.2,8.6c-0.1,1.1-1,1.9-2.1,2
		h-26.8l-2.4,17.1h22.1c1,0.1,1.7,0.9,1.6,1.9c0,0,0,0.1,0,0.1l-1.2,8.7c-0.1,1.1-1,1.9-2.1,2h-22.1l-2.6,18.3h26.8
		c1,0,1.6,0.9,1.5,2l-1.2,8.6c-0.1,1.1-1,1.9-2.1,2h-38.6c-0.9,0-1.5-0.7-1.5-1.6c0-0.1,0-0.3,0.1-0.4L671.3,91z"/>
	<path class="st1" d="M732.4,91c0.1-1.1,0.9-1.9,2-2H762c10.2,0,17.7,8.8,17.7,19.5c0,12.7-6.7,21-16.6,24.1l8.6,26.7
		c0.4,1.4-0.2,2.7-1.8,2.7h-9.9c-1.1,0.1-2.1-0.6-2.3-1.7l-7.6-26.9h-10l-3.8,26.6c-0.1,1.1-0.9,1.9-2,2h-10.1
		c-0.9,0-1.5-0.7-1.5-1.6c0-0.1,0-0.3,0.1-0.4L732.4,91z M754.8,122.3c6.6,0,11-5.5,11-12.1c0-5.7-2.9-8.7-6.8-8.7h-14.3l-2.9,20.8
		H754.8z"/>
	<path class="st1" d="M832.1,88c8.4-0.1,16.3,3.5,21.7,9.9c0.6,0.9,0.5,2.2-0.4,2.9l-5.6,5.4c-0.9,1-2.4,1-3.3,0.1
		c0,0-0.1-0.1-0.1-0.1c-3.5-3.4-8.1-5.2-12.9-5.3c-12.5,0-23.4,13-23.4,27.9c0,11.1,6,20.6,16,20.6c6.1,0,10.8-3,14.3-6.2
		c1.3-1.1,2.5-0.9,3.3,0.1l5.4,6.8c0.5,1,0.2,2.1-0.5,2.8c-7.3,7-15.2,10.1-23.6,10.1c-18.1,0-29.8-14.5-29.8-32.5
		C793.2,106.2,810.5,88,832.1,88z"/>
	<path class="st1" d="M873,91c0.1-1.1,0.9-1.9,2-2h38.6c0.9,0,1.6,0.8,1.6,1.7c0,0.1,0,0.2,0,0.3l-1.2,8.6c-0.1,1.1-1,1.9-2.1,2
		h-26.8l-2.4,17.1h22.1c0.9,0.1,1.7,0.9,1.6,1.9c0,0,0,0.1,0,0.1l-1.2,8.7c-0.1,1.1-1,1.9-2.1,2h-22.1l-2.6,18.3h26.8
		c1,0,1.6,0.9,1.5,2l-1.2,8.6c-0.1,1.1-1,1.9-2.1,2h-38.6c-0.9,0-1.5-0.7-1.5-1.6c0-0.1,0-0.3,0.1-0.4L873,91z"/>
	<path class="st1" d="M934,91c0.1-1.1,0.9-1.9,2-2h38.6c0.9,0,1.6,0.8,1.6,1.7c0,0.1,0,0.2,0,0.3l-1.2,8.6c-0.1,1.1-1,1.9-2.1,2
		h-26.8l-2.4,17.1h22.1c1,0.1,1.7,0.9,1.6,1.9c0,0,0,0.1,0,0.1l-1.2,8.7c-0.1,1.1-1,1.9-2.1,2H942l-2.6,18.3h26.8c1,0,1.6,0.9,1.5,2
		l-1.2,8.6c-0.1,1.1-1,1.9-2.1,2h-38.7c-0.9,0-1.5-0.7-1.5-1.6c0-0.1,0-0.3,0.1-0.4L934,91z"/>
	<path class="st1" d="M1024.1,88c8.4-0.1,16.3,3.5,21.7,9.9c0.7,0.9,0.5,2.2-0.4,2.9l-5.6,5.4c-0.9,0.9-2.4,1-3.3,0.1
		c0,0-0.1-0.1-0.1-0.1c-3.5-3.4-8.1-5.2-12.9-5.3c-12.5,0-23.4,13-23.4,27.9c0,11.1,6,20.6,16,20.6c6,0,10.8-3,14.3-6.2
		c1.4-1.1,2.5-0.9,3.3,0.1l5.4,6.8c0.5,1,0.2,2.1-0.5,2.8c-7.3,7-15.2,10.1-23.6,10.1c-18.1,0-29.8-14.5-29.8-32.5
		C985.2,106.2,1002.5,88,1024.1,88z"/>
	<path class="st1" d="M1093.6,88c16.9,0,29.3,14.9,29.3,32.7c0,23.5-17,42.5-39.1,42.5c-17,0-29.3-15-29.3-32.4
		C1054.5,107.2,1071.3,88,1093.6,88z M1108.8,122.3c0-11.3-6.5-20.8-16.8-20.8c-12.5,0-23.4,12.6-23.4,27.5
		c0,11.3,6.4,20.6,16.7,20.6C1098.1,149.6,1108.8,137.3,1108.8,122.3L1108.8,122.3z"/>
</g>
<g class="st0">
	<path class="st2" d="M16.9,8.4c0.1-1.1,0.9-1.9,2-2h38.6c0.9,0,1.6,0.8,1.6,1.7c0,0.1,0,0.2,0,0.3L57.8,17c-0.1,1.1-1,1.9-2.1,2H29
		l-2.4,17.1h22.1c1,0.1,1.7,0.9,1.6,1.9c0,0,0,0.1,0,0.1l-1.2,8.7c-0.1,1.1-1,1.9-2.1,2H24.8L22.2,67h26.8c1,0,1.6,0.9,1.5,2
		l-1.2,8.6c-0.1,1.1-1,1.9-2.1,2H8.7c-0.9,0-1.5-0.7-1.5-1.5c0-0.2,0-0.3,0.1-0.5L16.9,8.4z"/>
	<path class="st2" d="M107,5.4c8.4-0.1,16.3,3.5,21.7,9.9c0.7,0.9,0.5,2.2-0.4,2.9l-5.6,5.4c-0.9,1-2.4,1-3.4,0.1
		c0,0-0.1-0.1-0.1-0.1c-3.5-3.3-8.2-5.2-13-5.2c-12.5,0-23.4,13-23.4,27.9c0,11.1,6,20.6,16,20.6c6,0,10.8-3,14.3-6.2
		c1.4-1.2,2.5-0.9,3.3,0.1l5.4,6.8c0.5,1,0.2,2.1-0.5,2.8c-7.3,7-15.2,10.1-23.6,10.1C79.7,80.6,68,66.1,68,48.1
		C68.1,23.6,85.4,5.4,107,5.4z"/>
	<path class="st2" d="M176.4,5.4c16.9,0,29.3,14.9,29.3,32.7c0,23.5-17,42.5-39.1,42.5c-17,0-29.3-15-29.3-32.4
		C137.4,24.6,154.2,5.4,176.4,5.4z M191.7,39.8c0-11.3-6.5-20.8-16.8-20.8c-12.5,0-23.4,12.6-23.4,27.5c0,11.3,6.4,20.6,16.7,20.6
		C180.9,67,191.7,54.7,191.7,39.8z"/>
	<path class="st2" d="M236.7,7c0.2-0.9,1-1.6,2-1.6h1.5c0.7,0,1.3,0.4,1.5,1l14.2,47.3h0.2l28.4-47.3c0.4-0.6,1-1,1.8-1h1.6
		c0.8,0.1,1.4,0.7,1.5,1.6l0.9,70.2c0.1,1.2-0.7,2.3-1.9,2.4c0,0-0.1,0-0.1,0H278c-0.8,0-1.5-0.7-1.5-1.5c0,0,0,0,0,0l0.8-37.5H277
		l-21.8,39c-0.3,0.7-1,1.1-1.8,1.2h-1.7c-0.7,0-1.3-0.5-1.5-1.2l-10.6-39h-0.2l-10,37.5c-0.2,0.9-1,1.6-2,1.6h-9.9
		c-1.1,0-1.9-0.9-1.5-2.4L236.7,7z"/>
	<path class="st2" d="M326.4,7c0.2-0.9,1-1.6,2-1.6h1.5c0.7,0,1.3,0.4,1.5,1l14.2,47.3h0.2l28.4-47.3c0.4-0.6,1-1,1.8-1h1.6
		c0.8,0.1,1.4,0.7,1.5,1.6l0.9,70.2c0.1,1.2-0.7,2.3-1.9,2.4c0,0-0.1,0-0.1,0h-10c-0.8,0-1.6-0.6-1.6-1.5c0,0,0-0.1,0-0.1l0.8-37.5
		h-0.3l-21.8,39c-0.3,0.7-1,1.1-1.8,1.2h-1.7c-0.7,0-1.3-0.5-1.4-1.2l-10.7-39h-0.2l-10,37.5c-0.2,0.9-1,1.6-2,1.6h-9.9
		c-1.1,0-1.9-0.9-1.5-2.4L326.4,7z"/>
	<path class="st2" d="M408.6,8.4c0.1-1.1,0.9-1.9,2-2h38.6c0.9,0,1.6,0.8,1.6,1.7c0,0.1,0,0.2,0,0.3l-1.3,8.6c-0.1,1.1-1,1.9-2.1,2
		h-26.7l-2.4,17.1h22.1c1,0.1,1.7,0.9,1.6,1.9c0,0,0,0.1,0,0.1l-1.2,8.7c-0.1,1.1-1,1.9-2.1,2h-22.1L414,67h26.8c1,0,1.6,0.9,1.5,2
		l-1.1,8.6c-0.1,1.1-1,1.9-2.1,2h-38.7c-0.9,0-1.5-0.7-1.5-1.5c0-0.2,0-0.3,0.1-0.5L408.6,8.4z"/>
	<path class="st2" d="M469.7,8.4c0.1-1.1,0.9-1.9,2-2h27.6c10.2,0,17.6,8.8,17.6,19.5c0,12.7-6.7,21-16.6,24.1l8.6,26.7
		c0.4,1.3-0.2,2.7-1.8,2.7h-9.9c-1.1,0.1-2.1-0.6-2.3-1.7L487.3,51h-9.9l-3.8,26.6c-0.1,1.1-0.9,1.9-2,2h-10.1
		c-0.9,0-1.5-0.7-1.5-1.6c0-0.1,0-0.3,0.1-0.4L469.7,8.4z M492.1,39.8c6.6,0,11-5.5,11-12.1c0-5.8-2.9-8.7-6.8-8.7h-14.4L479,39.8
		H492.1z"/>
	<path class="st2" d="M569.4,5.4c8.4-0.1,16.3,3.5,21.7,9.9c0.6,0.9,0.5,2.2-0.4,2.9l-5.6,5.4c-0.9,1-2.4,1-3.4,0.1
		c0,0-0.1-0.1-0.1-0.1c-3.5-3.3-8.1-5.2-12.9-5.2c-12.5,0-23.4,13-23.4,27.9c0,11.1,6,20.6,16,20.6c6.1,0,10.8-3,14.3-6.2
		c1.4-1.2,2.5-0.9,3.3,0.1l5.4,6.8c0.5,1,0.2,2.1-0.5,2.8c-7.3,7-15.2,10.1-23.6,10.1c-18.1,0-29.8-14.5-29.8-32.5
		C530.5,23.6,547.8,5.4,569.4,5.4z"/>
	<path class="st2" d="M610.3,8.4c0.1-1.1,0.9-1.9,2-2h38.6c0.9,0,1.6,0.8,1.6,1.7c0,0.1,0,0.2,0,0.3l-1.3,8.6c-0.1,1.1-1,1.9-2.1,2
		h-26.7L620,36.1h22.1c1,0.1,1.7,0.9,1.6,1.9c0,0,0,0.1,0,0.1l-1.2,8.7c-0.1,1.1-1,1.9-2.1,2h-22.2L615.6,67h26.8c1,0,1.6,0.9,1.5,2
		l-1.2,8.6c-0.1,1.1-1,1.9-2.1,2H602c-0.9,0-1.5-0.7-1.5-1.5c0-0.2,0-0.3,0.1-0.5L610.3,8.4z"/>
</g>
<g class="st0">
	<path class="st1" d="M671.5,8.4c0.1-1.1,0.9-1.9,2-2h38.6c0.9,0,1.6,0.8,1.6,1.7c0,0.1,0,0.2,0,0.3l-1.3,8.6c-0.1,1.1-1,1.9-2.1,2
		h-26.7l-2.4,17.1h22.1c0.9,0.1,1.7,0.9,1.6,1.9c0,0,0,0.1,0,0.1l-1.2,8.7c-0.1,1.1-1,1.9-2.1,2h-22.1L676.8,67h26.8
		c1,0,1.6,0.9,1.5,2l-1.2,8.6c-0.1,1.1-1,1.9-2.1,2h-38.6c-0.9,0-1.5-0.7-1.5-1.6c0-0.1,0-0.3,0.1-0.4L671.5,8.4z"/>
	<path class="st1" d="M761.5,5.4c8.4-0.1,16.3,3.5,21.7,9.9c0.7,0.9,0.5,2.2-0.4,2.9l-5.6,5.4c-0.9,1-2.4,1-3.4,0.1
		c0,0-0.1-0.1-0.1-0.1c-3.5-3.3-8.1-5.2-13-5.2c-12.5,0-23.4,13-23.4,27.9c0,11.1,6,20.6,16,20.6c6.1,0,10.8-3,14.3-6.2
		c1.4-1.2,2.5-0.9,3.3,0.1l5.4,6.8c0.5,1,0.2,2.1-0.5,2.8c-7.3,7-15.2,10.1-23.6,10.1c-18.1,0-29.8-14.5-29.8-32.5
		C722.6,23.6,739.9,5.4,761.5,5.4z"/>
	<path class="st1" d="M831,5.4c16.9,0,29.3,14.9,29.3,32.7c0,23.5-17,42.5-39,42.5c-17,0-29.3-15-29.3-32.4
		C791.9,24.6,808.8,5.4,831,5.4z M846.2,39.8c0-11.3-6.5-20.8-16.8-20.8C816.9,19,806,31.6,806,46.5c0,11.3,6.4,20.5,16.7,20.5
		C835.5,67,846.2,54.7,846.2,39.8L846.2,39.8z"/>
	<path class="st1" d="M891.2,7c0.2-0.9,1-1.6,2-1.6h1.5c0.7,0,1.3,0.4,1.5,1l14.2,47.3h0.2L939,6.5c0.4-0.6,1-1,1.8-1h1.6
		c0.8,0.1,1.4,0.7,1.4,1.5l0.9,70.2c0.1,1.2-0.7,2.3-1.9,2.4c0,0-0.1,0-0.1,0h-10c-0.8,0-1.6-0.6-1.6-1.5c0,0,0-0.1,0-0.1l0.8-37.5
		h-0.3l-21.8,39c-0.3,0.7-1,1.1-1.8,1.2h-1.7c-0.7,0-1.3-0.5-1.5-1.2l-10.6-39h-0.2l-10,37.5c-0.2,0.9-1,1.6-2,1.6H872
		c-1.1,0-1.9-0.9-1.5-2.4L891.2,7z"/>
	<path class="st1" d="M980.9,7c0.2-0.9,1-1.6,2-1.6h1.5c0.7,0,1.3,0.4,1.5,1l14.2,47.3h0.2l28.4-47.3c0.4-0.6,1-1,1.8-1h1.6
		c0.8,0.1,1.4,0.7,1.4,1.6l0.9,70.2c0.1,1.2-0.7,2.3-1.9,2.4c0,0-0.1,0-0.1,0h-10c-0.8,0-1.6-0.6-1.6-1.5c0,0,0-0.1,0-0.1l0.8-37.5
		h-0.3l-21.8,39c-0.3,0.7-1,1.1-1.8,1.2H996c-0.7,0-1.3-0.5-1.5-1.2l-10.7-39h-0.2l-10,37.5c-0.2,0.9-1,1.6-2,1.6h-9.9
		c-1.2,0-1.9-0.9-1.5-2.4L980.9,7z"/>
	<path class="st1" d="M1063.2,8.4c0.1-1.1,0.9-1.9,2-2h38.6c0.9,0,1.6,0.8,1.6,1.7c0,0.1,0,0.2,0,0.3l-1.3,8.6c-0.1,1.1-1,1.9-2.1,2
		h-26.7l-2.4,17.1h22.1c1,0.1,1.7,0.9,1.6,1.9c0,0,0,0.1,0,0.1l-1.2,8.7c-0.1,1.1-1,1.9-2.1,2h-22.1l-2.6,18.2h26.8
		c1,0,1.6,0.9,1.5,2l-1.2,8.6c-0.1,1.1-1,1.9-2.1,2h-38.6c-0.9,0-1.5-0.7-1.5-1.5c0-0.2,0-0.3,0.1-0.5L1063.2,8.4z"/>
</g>
</svg>
