<?xml version="1.0" encoding="utf-8"?>
<!-- Generator: Adobe Illustrator 25.4.1, SVG Export Plug-In . SVG Version: 6.00 Build 0)  -->
<svg version="1.1" id="Capa_1" xmlns="http://www.w3.org/2000/svg" xmlns:xlink="http://www.w3.org/1999/xlink" x="0px" y="0px"
	 viewBox="0 0 1094.9 168" style="enable-background:new 0 0 1094.9 168;" xml:space="preserve">
<style type="text/css">
	.st0{opacity:0.6;fill:#EFB000;enable-background:new    ;}
	.st1{opacity:0.6;fill:none;stroke:#EFB000;stroke-miterlimit:3.11;enable-background:new    ;}
</style>
<g>
	<path class="st0" d="M9,28.2c0-0.8,0.7-1.7,1.7-1.7h35.5c0.9,0,1.7,0.8,1.7,1.7v7.2c0,0.8-0.7,1.7-1.7,1.7H20.4v14.3H42
		c0.8,0,1.7,0.8,1.7,1.7v7.3c0,0.9-0.8,1.7-1.7,1.7H20.4v15.2h25.8c0.9,0,1.7,0.8,1.7,1.7v7.2c0,0.8-0.7,1.7-1.7,1.7H10.7
		c-0.9,0-1.7-0.8-1.7-1.7V28.2z"/>
	<path class="st0" d="M72.2,56.2L54.7,28.9c-0.7-1.1,0-2.5,1.5-2.5h10.1c0.7,0,1.1,0.4,1.3,0.8l11.1,18.5H79l11.2-18.5
		c0.2-0.3,0.7-0.8,1.3-0.8h10.1c1.5,0,2.2,1.3,1.5,2.5L85.7,56.2L103.9,85c0.7,1.2,0,2.5-1.5,2.5H93c-0.7,0-1.3-0.4-1.5-0.8
		L79.1,66.8h-0.3L66.4,86.7c-0.3,0.3-0.8,0.8-1.5,0.8h-9.4c-1.6,0-2.3-1.3-1.6-2.5L72.2,56.2z"/>
	<path class="st0" d="M123.3,36.9h-13.4c-0.9,0-1.7-0.8-1.7-1.7v-7.2c0-0.8,0.7-1.7,1.7-1.7h38c0.9,0,1.7,0.8,1.7,1.7v7.3
		c0,0.8-0.7,1.7-1.7,1.7h-13.4v48.8c0,0.8-0.8,1.7-1.7,1.7h-8.1c-0.8,0-1.7-0.8-1.7-1.7V36.9H123.3z"/>
	<path class="st0" d="M159.3,28.2c0-0.8,0.7-1.7,1.7-1.7h35.5c0.9,0,1.7,0.8,1.7,1.7v7.2c0,0.8-0.7,1.7-1.7,1.7h-25.8v14.3h21.6
		c0.8,0,1.7,0.8,1.7,1.7v7.3c0,0.9-0.8,1.7-1.7,1.7h-21.6v15.2h25.8c0.9,0,1.7,0.8,1.7,1.7v7.2c0,0.8-0.7,1.7-1.7,1.7H161
		c-0.9,0-1.7-0.8-1.7-1.7L159.3,28.2L159.3,28.2z"/>
	<path class="st0" d="M209.5,27.2c0-0.8,0.8-1.6,1.7-1.6h1.3c0.6,0,1,0.2,1.5,0.6l35.6,37.9h0.2v-36c0-0.8,0.7-1.7,1.7-1.7h8
		c0.8,0,1.7,0.8,1.7,1.7v58.7c0,0.8-0.8,1.6-1.7,1.6h-1.2c-0.6,0-1-0.2-1.5-0.6l-35.8-39.4h-0.2v37.4c0,0.8-0.7,1.7-1.7,1.7h-7.9
		c-0.8,0-1.7-0.8-1.7-1.7V27.2z"/>
	<path class="st0" d="M275.7,28.2c0-0.8,0.7-1.7,1.6-1.7h20.6c16.8,0,30.6,13.7,30.6,30.4c0,16.9-13.8,30.6-30.6,30.6h-20.5
		c-0.8,0-1.6-0.8-1.6-1.7V28.2H275.7z M297,76.8c11.3,0,19.6-8,19.6-19.9c0-11.8-8.3-19.9-19.6-19.9h-10v39.8H297z"/>
	<path class="st0" d="M339.8,28.2c0-0.8,0.7-1.7,1.7-1.7h35.5c0.9,0,1.7,0.8,1.7,1.7v7.2c0,0.8-0.7,1.7-1.7,1.7h-25.8v14.3h21.6
		c0.8,0,1.7,0.8,1.7,1.7v7.3c0,0.9-0.8,1.7-1.7,1.7h-21.6v15.2h25.8c0.9,0,1.7,0.8,1.7,1.7v7.2c0,0.8-0.7,1.7-1.7,1.7h-35.5
		c-0.9,0-1.7-0.8-1.7-1.7L339.8,28.2L339.8,28.2z"/>
	<path class="st0" d="M390,28.2c0-0.8,0.7-1.7,1.6-1.7h20.6c16.8,0,30.6,13.7,30.6,30.4c0,16.9-13.8,30.6-30.6,30.6h-20.6
		c-0.8,0-1.6-0.8-1.6-1.7V28.2z M411.1,76.8c11.3,0,19.6-8,19.6-19.9c0-11.8-8.3-19.9-19.6-19.9h-10v39.8H411.1z"/>
	<path class="st1" d="M454,28.2c0-0.8,0.7-1.7,1.7-1.7h35.5c0.9,0,1.7,0.8,1.7,1.7v7.2c0,0.8-0.7,1.7-1.7,1.7h-25.8v14.3h21.5
		c0.8,0,1.7,0.8,1.7,1.7v7.3c0,0.9-0.8,1.7-1.7,1.7h-21.6v15.2H491c0.9,0,1.7,0.8,1.7,1.7v7.2c0,0.8-0.7,1.7-1.7,1.7h-35.3
		c-0.9,0-1.7-0.8-1.7-1.7V28.2z"/>
	<path class="st1" d="M517.1,56.2l-17.4-27.3c-0.7-1.1,0-2.5,1.5-2.5h10.1c0.7,0,1.1,0.4,1.3,0.8l11.1,18.5h0.3l11.2-18.5
		c0.2-0.3,0.7-0.8,1.3-0.8h10.1c1.5,0,2.2,1.3,1.5,2.5l-17.5,27.3L548.6,85c0.7,1.2,0,2.5-1.5,2.5h-9.4c-0.7,0-1.3-0.4-1.5-0.8
		l-12.4-19.9h-0.3l-12.2,19.9c-0.3,0.3-0.8,0.8-1.5,0.8h-9.4c-1.6,0-2.3-1.3-1.6-2.5L517.1,56.2z"/>
	<path class="st1" d="M568.2,36.9h-13.4c-0.9,0-1.7-0.8-1.7-1.7v-7.2c0-0.8,0.7-1.7,1.7-1.7h38c0.9,0,1.7,0.8,1.7,1.7v7.3
		c0,0.8-0.7,1.7-1.7,1.7h-13.4v48.8c0,0.8-0.8,1.7-1.7,1.7h-8.1c-0.8,0-1.7-0.8-1.7-1.7V36.9H568.2z"/>
	<path class="st1" d="M604.2,28.2c0-0.8,0.7-1.7,1.7-1.7h35.5c0.9,0,1.7,0.8,1.7,1.7v7.2c0,0.8-0.7,1.7-1.7,1.7h-25.8v14.3h21.6
		c0.8,0,1.7,0.8,1.7,1.7v7.3c0,0.9-0.8,1.7-1.7,1.7h-21.6v15.2h25.8c0.9,0,1.7,0.8,1.7,1.7v7.2c0,0.8-0.7,1.7-1.7,1.7h-35.5
		c-0.9,0-1.7-0.8-1.7-1.7L604.2,28.2L604.2,28.2z"/>
	<path class="st1" d="M654.4,27.2c0-0.8,0.8-1.6,1.7-1.6h1.3c0.6,0,1,0.2,1.5,0.6l35.6,37.9h0.2v-36c0-0.8,0.7-1.7,1.7-1.7h8
		c0.8,0,1.7,0.8,1.7,1.7v58.7c0,0.8-0.8,1.6-1.7,1.6H703c-0.6,0-1-0.2-1.5-0.6l-35.8-39.4h-0.2v37.4c0,0.8-0.7,1.7-1.7,1.7h-7.9
		c-0.8,0-1.7-0.8-1.7-1.7V27.2z"/>
	<path class="st1" d="M720.8,28.2c0-0.8,0.7-1.7,1.6-1.7h20.6c16.8,0,30.6,13.7,30.6,30.4c0,16.9-13.8,30.6-30.6,30.6h-20.6
		c-0.8,0-1.6-0.8-1.6-1.7V28.2z M741.9,76.8c11.3,0,19.6-8,19.6-19.9c0-11.8-8.3-19.9-19.6-19.9h-10v39.8H741.9z"/>
	<path class="st1" d="M784.7,28.2c0-0.8,0.7-1.7,1.7-1.7h35.5c0.9,0,1.7,0.8,1.7,1.7v7.2c0,0.8-0.7,1.7-1.7,1.7H796v14.3h21.6
		c0.8,0,1.7,0.8,1.7,1.7v7.3c0,0.9-0.8,1.7-1.7,1.7H796v15.2h25.8c0.9,0,1.7,0.8,1.7,1.7v7.2c0,0.8-0.7,1.7-1.7,1.7h-35.5
		c-0.9,0-1.7-0.8-1.7-1.7V28.2z"/>
	<path class="st1" d="M834.9,28.2c0-0.8,0.7-1.7,1.6-1.7h20.6c16.8,0,30.6,13.7,30.6,30.4c0,16.9-13.8,30.6-30.6,30.6h-20.6
		c-0.8,0-1.6-0.8-1.6-1.7V28.2z M856,76.8c11.3,0,19.6-8,19.6-19.9c0-11.8-8.3-19.9-19.6-19.9h-10v39.8H856z"/>
	<path class="st1" d="M899,28.2c0-0.8,0.7-1.7,1.7-1.7h35.5c0.9,0,1.7,0.8,1.7,1.7v7.2c0,0.8-0.7,1.7-1.7,1.7h-25.8v14.3h21.6
		c0.8,0,1.7,0.8,1.7,1.7v7.3c0,0.9-0.8,1.7-1.7,1.7h-21.6v15.2h25.8c0.9,0,1.7,0.8,1.7,1.7v7.2c0,0.8-0.7,1.7-1.7,1.7h-35.5
		c-0.9,0-1.7-0.8-1.7-1.7V28.2z"/>
	<path class="st1" d="M962,56.2l-17.4-27.3c-0.7-1.1,0-2.5,1.5-2.5h10.1c0.7,0,1.1,0.4,1.3,0.8l11.1,18.5h0.3L980,27.3
		c0.2-0.3,0.7-0.8,1.3-0.8h10.1c1.5,0,2.2,1.3,1.5,2.5l-17.5,27.3L993.7,85c0.7,1.2,0,2.5-1.5,2.5h-9.4c-0.7,0-1.3-0.4-1.5-0.8
		l-12.4-19.9h-0.3l-12.2,19.9c-0.3,0.3-0.8,0.8-1.5,0.8h-9.4c-1.6,0-2.3-1.3-1.6-2.5L962,56.2z"/>
	<path class="st1" d="M1013.2,36.9h-13.4c-0.9,0-1.7-0.8-1.7-1.7v-7.2c0-0.8,0.7-1.7,1.7-1.7h38c0.9,0,1.7,0.8,1.7,1.7v7.3
		c0,0.8-0.7,1.7-1.7,1.7h-13.4v48.8c0,0.8-0.8,1.7-1.7,1.7h-8.1c-0.8,0-1.7-0.8-1.7-1.7V36.9H1013.2z"/>
	<path class="st1" d="M1049.2,28.2c0-0.8,0.7-1.7,1.7-1.7h35.5c0.9,0,1.7,0.8,1.7,1.7v7.2c0,0.8-0.7,1.7-1.7,1.7h-25.8v14.3h21.6
		c0.8,0,1.7,0.8,1.7,1.7v7.3c0,0.9-0.8,1.7-1.7,1.7h-21.6v15.2h25.8c0.9,0,1.7,0.8,1.7,1.7v7.2c0,0.8-0.7,1.7-1.7,1.7h-35.5
		c-0.9,0-1.7-0.8-1.7-1.7V28.2L1049.2,28.2z"/>
	<path class="st1" d="M1099.3,27.2c0-0.8,0.8-1.6,1.7-1.6h1.3c0.6,0,1,0.2,1.5,0.6l35.6,37.9h0.2v-36c0-0.8,0.7-1.7,1.7-1.7h8
		c0.8,0,1.7,0.8,1.7,1.7v58.7c0,0.8-0.8,1.6-1.7,1.6h-1.2c-0.6,0-1-0.2-1.5-0.6l-35.8-39.4h-0.2v37.4c0,0.8-0.7,1.7-1.7,1.7h-7.9
		c-0.8,0-1.7-0.8-1.7-1.7L1099.3,27.2L1099.3,27.2z"/>
	<path class="st0" d="M1.9,164l27.1-58.7c0.3-0.5,0.7-0.9,1.5-0.9h0.8c0.8,0,1.2,0.4,1.5,0.9L59.5,164c0.5,1.1-0.2,2.3-1.5,2.3h-7.6
		c-1.3,0-1.9-0.5-2.5-1.8l-4.3-9.4h-26l-4.3,9.4c-0.3,0.8-1.1,1.8-2.5,1.8H3.3C2,166.3,1.4,165.1,1.9,164z M39.5,145.4l-8.7-19.2
		h-0.3L22,145.4H39.5z"/>
	<path class="st0" d="M64.7,160.4c-0.8-0.7-1.2-1.2-0.4-2.6l3.1-5.4c0.7-1.2,2.2-1.2,3-0.6c3.5,2.7,7.5,5.4,13.2,5.4
		c4.6,0,7.9-3,7.9-6.7c0-4.5-3.7-7.5-11.1-10.5c-8.2-3.3-16.4-8.5-16.4-18.9c0-7.8,5.7-16.7,19.6-16.7c8.9,0,15.7,4.6,17.4,5.8
		c0.8,0.5,1.1,2,0.5,2.9l-3.3,5c-0.7,1-2,1.8-3,1c-3.7-2.4-7.4-4.8-12.1-4.8c-5,0-7.7,2.8-7.7,6.1c0,4,3.2,6.8,10.3,9.7
		c8.5,3.4,18.2,8.5,18.2,19.7c0,9-7.8,17.2-20,17.2C72.9,167.1,67.3,162.5,64.7,160.4z"/>
	<path class="st0" d="M112.2,160.4c-0.8-0.7-1.2-1.2-0.4-2.6l3.1-5.4c0.7-1.2,2.2-1.2,3-0.6c3.5,2.7,7.5,5.4,13.2,5.4
		c4.6,0,7.9-3,7.9-6.7c0-4.5-3.7-7.5-11.1-10.5c-8.2-3.3-16.4-8.5-16.4-18.9c0-7.8,5.7-16.7,19.6-16.7c8.9,0,15.7,4.6,17.4,5.8
		c0.8,0.5,1.1,2,0.5,2.9l-3.3,5c-0.7,1-2,1.8-3,1c-3.7-2.4-7.4-4.8-12.1-4.8c-5,0-7.7,2.8-7.7,6.1c0,4,3.2,6.8,10.3,9.7
		c8.5,3.4,18.2,8.5,18.2,19.7c0,9-7.8,17.2-20,17.2C120.4,167.1,114.8,162.5,112.2,160.4z"/>
	<path class="st0" d="M189.9,104.4c17.4,0,31.4,14,31.4,31.4s-13.9,31.3-31.4,31.3s-31.3-13.9-31.3-31.3S172.5,104.4,189.9,104.4z
		 M189.9,155.8c11,0,20-9,20-19.9c0-11-9-20.1-20-20.1s-19.9,9.1-19.9,20.1C169.9,146.8,178.9,155.8,189.9,155.8z"/>
	<path class="st0" d="M232.5,107c0-0.8,0.7-1.7,1.7-1.7h24.9c10.5,0,19,8.4,19,18.8c0,8-5.3,14.5-12.9,17.6l11.9,22.1
		c0.6,1.1,0,2.5-1.5,2.5h-9.1c-0.8,0-1.2-0.4-1.3-0.8l-11.6-23.1h-9.6v22.2c0,0.8-0.8,1.7-1.7,1.7h-8c-0.9,0-1.7-0.8-1.7-1.7V107
		H232.5z M258.1,133.1c4.7,0,8.6-4,8.6-8.9c0-4.7-4-8.5-8.6-8.5h-14.2V133h14.2V133.1z"/>
	<path class="st0" d="M299.8,115.7h-13.4c-0.9,0-1.7-0.8-1.7-1.7v-7.2c0-0.8,0.7-1.7,1.7-1.7h38c0.9,0,1.7,0.8,1.7,1.7v7.2
		c0,0.8-0.7,1.7-1.7,1.7h-13.4v48.8c0,0.8-0.8,1.7-1.7,1.7h-8.1c-0.8,0-1.7-0.8-1.7-1.7v-48.8H299.8z"/>
	<path class="st0" d="M340.6,105.7c0.1-0.7,0.6-1.3,1.6-1.3h1.3c0.7,0,1.2,0.3,1.5,0.8l19.2,41.2c0.2,0,0.2,0,0.3,0l19.2-41.2
		c0.3-0.5,0.7-0.8,1.5-0.8h1.3c0.9,0,1.5,0.6,1.6,1.3l10.3,58.6c0.3,1.2-0.4,2-1.6,2h-7.9c-0.8,0-1.5-0.7-1.7-1.3l-5.2-33
		c-0.1,0-0.3,0-0.3,0l-15.2,34.2c-0.2,0.5-0.7,0.9-1.5,0.9h-1.6c-0.8,0-1.2-0.4-1.5-0.9L346.5,132c0,0-0.2,0-0.3,0l-5.1,33
		c-0.1,0.6-0.8,1.3-1.6,1.3h-7.9c-1.1,0-1.9-0.8-1.7-2L340.6,105.7z"/>
	<path class="st0" d="M409.9,107c0-0.8,0.7-1.7,1.7-1.7H447c0.9,0,1.7,0.8,1.7,1.7v7.2c0,0.8-0.7,1.7-1.7,1.7h-25.8v14.3h21.6
		c0.8,0,1.7,0.8,1.7,1.7v7.3c0,0.9-0.8,1.7-1.7,1.7h-21.6v15.2H447c0.9,0,1.7,0.8,1.7,1.7v7.2c0,0.8-0.7,1.7-1.7,1.7h-35.5
		c-0.9,0-1.7-0.8-1.7-1.7V107z"/>
	<path class="st0" d="M460.1,105.9c0-0.8,0.8-1.6,1.7-1.6h1.3c0.6,0,1,0.2,1.5,0.6l35.6,37.9h0.2v-36c0-0.8,0.7-1.7,1.7-1.7h8
		c0.8,0,1.7,0.8,1.7,1.7v58.7c0,0.8-0.8,1.6-1.7,1.6h-1.2c-0.6,0-1-0.2-1.5-0.6l-35.8-39.4h-0.2v37.4c0,0.8-0.7,1.7-1.7,1.7h-7.9
		c-0.8,0-1.7-0.8-1.7-1.7L460.1,105.9L460.1,105.9z"/>
	<path class="st0" d="M536.1,115.7h-13.4c-0.9,0-1.7-0.8-1.7-1.7v-7.2c0-0.8,0.7-1.7,1.7-1.7h38c0.9,0,1.7,0.8,1.7,1.7v7.2
		c0,0.8-0.7,1.7-1.7,1.7h-13.4v48.8c0,0.8-0.8,1.7-1.7,1.7h-8.1c-0.8,0-1.7-0.8-1.7-1.7v-48.8H536.1z"/>
	<path class="st1" d="M561.1,164l27.1-58.7c0.3-0.5,0.7-0.9,1.5-0.9h0.8c0.8,0,1.2,0.4,1.5,0.9l26.8,58.7c0.5,1.1-0.2,2.3-1.5,2.3
		h-7.6c-1.3,0-1.9-0.5-2.5-1.8l-4.3-9.4h-26l-4.3,9.4c-0.3,0.8-1.1,1.8-2.5,1.8h-7.6C561.3,166.3,560.6,165.1,561.1,164z
		 M598.8,145.4l-8.7-19.2h-0.3l-8.5,19.2H598.8z"/>
	<path class="st1" d="M624,160.4c-0.8-0.7-1.2-1.2-0.4-2.6l3.1-5.4c0.7-1.2,2.2-1.2,3-0.6c3.5,2.7,7.5,5.4,13.2,5.4
		c4.6,0,7.9-3,7.9-6.7c0-4.5-3.7-7.5-11.1-10.5c-8.2-3.3-16.4-8.5-16.4-18.9c0-7.8,5.7-16.7,19.6-16.7c8.9,0,15.7,4.6,17.4,5.8
		c0.8,0.5,1.1,2,0.5,2.9l-3.3,5c-0.7,1-2,1.8-3,1c-3.7-2.4-7.4-4.8-12.1-4.8c-5,0-7.7,2.8-7.7,6.1c0,4,3.2,6.8,10.3,9.7
		c8.5,3.4,18.2,8.5,18.2,19.7c0,9-7.8,17.2-20,17.2C632.2,167.1,626.5,162.5,624,160.4z"/>
	<path class="st1" d="M671.5,160.4c-0.8-0.7-1.2-1.2-0.4-2.6l3.1-5.4c0.7-1.2,2.2-1.2,3-0.6c3.5,2.7,7.5,5.4,13.2,5.4
		c4.6,0,7.9-3,7.9-6.7c0-4.5-3.7-7.5-11.1-10.5c-8.2-3.3-16.4-8.5-16.4-18.9c0-7.8,5.7-16.7,19.6-16.7c8.9,0,15.7,4.6,17.4,5.8
		c0.8,0.5,1.1,2,0.5,2.9l-3.3,5c-0.7,1-2,1.8-3,1c-3.7-2.4-7.4-4.8-12.1-4.8c-5,0-7.7,2.8-7.7,6.1c0,4,3.2,6.8,10.3,9.7
		c8.5,3.4,18.2,8.5,18.2,19.7c0,9-7.8,17.2-20,17.2C679.7,167.1,674,162.5,671.5,160.4z"/>
	<path class="st1" d="M749.2,104.4c17.4,0,31.4,14,31.4,31.4s-13.9,31.3-31.4,31.3c-17.5,0-31.2-13.8-31.2-31.2
		S731.8,104.4,749.2,104.4z M749.2,155.8c11,0,20-9,20-19.9c0-11-9-20.1-20-20.1s-19.9,9.1-19.9,20.1
		C729.3,146.8,738.3,155.8,749.2,155.8z"/>
	<path class="st1" d="M791.8,107c0-0.8,0.7-1.7,1.7-1.7h24.9c10.5,0,19,8.4,19,18.8c0,8-5.3,14.5-12.9,17.6l11.9,22.1
		c0.6,1.1,0,2.5-1.5,2.5h-9.1c-0.8,0-1.2-0.4-1.3-0.8l-11.6-23.1h-9.6v22.2c0,0.8-0.8,1.7-1.7,1.7h-8c-0.9,0-1.7-0.8-1.7-1.7V107
		H791.8z M817.4,133.1c4.7,0,8.6-4,8.6-8.9c0-4.7-4-8.5-8.6-8.5h-14.2V133h14.2V133.1z"/>
	<path class="st1" d="M859.2,115.7h-13.4c-0.9,0-1.7-0.8-1.7-1.7v-7.2c0-0.8,0.7-1.7,1.7-1.7h38c0.9,0,1.7,0.8,1.7,1.7v7.2
		c0,0.8-0.7,1.7-1.7,1.7h-13.4v48.8c0,0.8-0.8,1.7-1.7,1.7h-8.1c-0.8,0-1.7-0.8-1.7-1.7v-48.8H859.2z"/>
	<path class="st1" d="M899.9,105.7c0.1-0.7,0.6-1.3,1.6-1.3h1.3c0.7,0,1.2,0.3,1.5,0.8l19.2,41.2c0.2,0,0.2,0,0.3,0l19.2-41.2
		c0.3-0.5,0.7-0.8,1.5-0.8h1.3c0.9,0,1.5,0.6,1.6,1.3l10.3,58.6c0.3,1.2-0.4,2-1.6,2h-7.9c-0.8,0-1.5-0.7-1.7-1.3l-5.2-33
		c-0.1,0-0.3,0-0.3,0l-15.2,34.2c-0.2,0.5-0.7,0.9-1.5,0.9h-1.6c-0.8,0-1.2-0.4-1.5-0.9L905.8,132c0,0-0.2,0-0.3,0l-5.1,33
		c-0.1,0.6-0.8,1.3-1.6,1.3H891c-1.1,0-1.9-0.8-1.7-2L899.9,105.7z"/>
	<path class="st1" d="M969.1,107c0-0.8,0.7-1.7,1.7-1.7h35.5c0.9,0,1.7,0.8,1.7,1.7v7.2c0,0.8-0.7,1.7-1.7,1.7h-25.8v14.3h21.6
		c0.8,0,1.7,0.8,1.7,1.7v7.3c0,0.9-0.8,1.7-1.7,1.7h-21.6v15.2h25.8c0.9,0,1.7,0.8,1.7,1.7v7.2c0,0.8-0.7,1.7-1.7,1.7h-35.5
		c-0.9,0-1.7-0.8-1.7-1.7L969.1,107L969.1,107z"/>
	<path class="st1" d="M1019.3,105.9c0-0.8,0.8-1.6,1.7-1.6h1.3c0.6,0,1,0.2,1.5,0.6l35.6,37.9h0.2v-36c0-0.8,0.7-1.7,1.7-1.7h8
		c0.8,0,1.7,0.8,1.7,1.7v58.7c0,0.8-0.8,1.6-1.7,1.6h-1.2c-0.6,0-1-0.2-1.5-0.6l-35.8-39.4h-0.2v37.4c0,0.8-0.7,1.7-1.7,1.7h-7.9
		c-0.8,0-1.7-0.8-1.7-1.7V105.9z"/>
	<path class="st1" d="M1095.5,115.7h-13.4c-0.9,0-1.7-0.8-1.7-1.7v-7.2c0-0.8,0.7-1.7,1.7-1.7h38c0.9,0,1.7,0.8,1.7,1.7v7.2
		c0,0.8-0.7,1.7-1.7,1.7h-13.4v48.8c0,0.8-0.8,1.7-1.7,1.7h-8.1c-0.8,0-1.7-0.8-1.7-1.7v-48.8H1095.5z"/>
	<path class="st1" d="M1120.5,164l27.1-58.7c0.3-0.5,0.7-0.9,1.5-0.9h0.8c0.8,0,1.2,0.4,1.5,0.9l26.8,58.7c0.5,1.1-0.2,2.3-1.5,2.3
		h-7.6c-1.3,0-1.9-0.5-2.5-1.8l-4.3-9.4h-26l-4.2,9.4c-0.3,0.8-1.1,1.8-2.5,1.8h-7.6C1120.7,166.3,1120,165.1,1120.5,164z
		 M1158.1,145.4l-8.7-19.2h-0.3l-8.5,19.2H1158.1z"/>
</g>
</svg>
