<?xml version="1.0" encoding="utf-8"?>
<!-- Generator: Adobe Illustrator 25.4.1, SVG Export Plug-In . SVG Version: 6.00 Build 0)  -->
<svg version="1.1" id="Capa_1" xmlns="http://www.w3.org/2000/svg" xmlns:xlink="http://www.w3.org/1999/xlink" x="0px" y="0px"
	 viewBox="0 0 784.5 158.8" style="enable-background:new 0 0 784.5 158.8;" xml:space="preserve">
<style type="text/css">
	.st0{opacity:0.6;}
	.st1{fill:#FFFFFF;}
	.st2{fill:none;stroke:#FFFFFF;stroke-miterlimit:3.11;}
</style>
<g class="st0">
	<path class="st1" d="M3.3,66.6c-1-0.8-1.5-1.5-0.5-3.1l3.7-6.5c0.8-1.5,2.6-1.5,3.5-0.7c4.3,3.2,8.9,6.4,15.7,6.4
		c5.4,0,9.5-3.5,9.5-8c0-5.3-4.5-8.9-13.2-12.5c-9.8-4-19.6-10.2-19.6-22.5c0-9.3,6.9-20,23.4-20c10.6,0,18.7,5.4,20.8,7
		c1,0.6,1.4,2.4,0.6,3.4l-4,5.9c-0.8,1.2-2.4,2.1-3.6,1.2c-4.5-2.8-8.7-5.7-14.5-5.7c-5.9,0-9.2,3.3-9.2,7.3
		c0,4.9,3.8,8.2,12.3,11.7c10.1,4.1,21.7,10.1,21.7,23.5c0,10.7-9.3,20.6-23.9,20.6C13.1,74.8,6.3,69.2,3.3,66.6z"/>
	<path class="st1" d="M74.8,13.4H58.9c-1.1,0-2-0.9-2-2V2.9c0-1,0.8-2,2-2h45.5c1.1,0,2,0.9,2,2v8.5c0,1-0.8,2-2,2H88.4v58.4
		c0,1-0.9,2-2,2h-9.7c-1,0-2-0.9-2-2V13.4z"/>
	<path class="st1" d="M149.1-0.1c20.8,0,37.5,16.7,37.5,37.6c0,20.8-16.6,37.3-37.5,37.3c-20.8,0-37.3-16.5-37.3-37.3
		C111.7,16.6,128.3-0.1,149.1-0.1z M149.1,61.2c13.1,0,23.9-10.7,23.9-23.8s-10.8-24-23.9-24s-23.8,10.9-23.8,24
		S136,61.2,149.1,61.2z"/>
	<path class="st1" d="M199.9,2.9c0-1,0.8-2,2-2h29.8c12.5,0,22.7,10,22.7,22.4c0,9.6-6.3,17.4-15.4,21l14.3,26.4c0.7,1.4,0,3-1.8,3
		h-10.9c-0.9,0-1.5-0.5-1.7-0.9L225,45.2h-11.5v26.5c0,1-0.9,2-2,2h-9.6c-1.1,0-2-0.9-2-2V2.9z M230.5,34.1
		c5.5,0,10.3-4.8,10.3-10.6c0-5.5-4.8-10.1-10.3-10.1h-17v20.7H230.5z"/>
	<path class="st1" d="M268.6,2.9c0-1,0.8-2,2-2h42.3c1.1,0,2,0.9,2,2v8.5c0,1-0.8,2-2,2h-30.8v17.1h25.7c1,0,2,0.9,2,2v8.6
		c0,1.1-0.9,2-2,2h-25.7v18.2h30.8c1.1,0,2,0.9,2,2v8.5c0,1-0.8,2-2,2h-42.3c-1.1,0-2-0.9-2-2V2.9z"/>
	<path class="st1" d="M325,66.6c-1-0.8-1.5-1.5-0.5-3.1l3.7-6.5c0.8-1.5,2.6-1.5,3.5-0.7c4.3,3.2,8.9,6.4,15.7,6.4
		c5.4,0,9.5-3.5,9.5-8c0-5.3-4.5-8.9-13.2-12.5c-9.8-4-19.6-10.2-19.6-22.5c0-9.3,6.9-20,23.4-20c10.6,0,18.7,5.4,20.8,7
		c1,0.6,1.4,2.4,0.6,3.4l-4,5.9c-0.8,1.2-2.4,2.1-3.6,1.2c-4.5-2.8-8.7-5.7-14.5-5.7c-5.9,0-9.2,3.3-9.2,7.3
		c0,4.9,3.8,8.2,12.3,11.7c10.1,4.1,21.7,10.1,21.7,23.5c0,10.7-9.3,20.6-23.9,20.6C334.8,74.8,328,69.2,325,66.6z"/>
	<path class="st2" d="M381.7,66.6c-1-0.8-1.5-1.5-0.5-3.1l3.7-6.5c0.8-1.5,2.6-1.5,3.5-0.7c4.3,3.2,8.9,6.4,15.7,6.4
		c5.4,0,9.5-3.5,9.5-8c0-5.3-4.5-8.9-13.2-12.5c-9.8-4-19.6-10.2-19.6-22.5c0-9.3,6.9-20,23.4-20c10.6,0,18.7,5.4,20.8,7
		c1,0.6,1.4,2.4,0.6,3.4l-4,5.9c-0.8,1.2-2.4,2.1-3.6,1.2c-4.5-2.8-8.7-5.7-14.5-5.7c-5.9,0-9.2,3.3-9.2,7.3
		c0,4.9,3.8,8.2,12.3,11.7c10.1,4.1,21.7,10.1,21.7,23.5c0,10.7-9.3,20.6-23.9,20.6C391.5,74.8,384.7,69.2,381.7,66.6z"/>
	<path class="st2" d="M453.2,13.4h-15.9c-1.1,0-2-0.9-2-2V2.9c0-1,0.8-2,2-2h45.5c1.1,0,2,0.9,2,2v8.5c0,1-0.8,2-2,2h-15.9v58.4
		c0,1-0.9,2-2,2h-9.7c-1,0-2-0.9-2-2V13.4z"/>
	<path class="st2" d="M527.5-0.1c20.8,0,37.5,16.7,37.5,37.6c0,20.8-16.6,37.3-37.5,37.3s-37.3-16.5-37.3-37.3
		C490.1,16.6,506.7-0.1,527.5-0.1z M527.5,61.2c13.1,0,23.9-10.7,23.9-23.8s-10.8-24-23.9-24s-23.8,10.9-23.8,24
		S514.4,61.2,527.5,61.2z"/>
	<path class="st2" d="M578.3,2.9c0-1,0.8-2,2-2h29.8c12.5,0,22.7,10,22.7,22.4c0,9.6-6.3,17.4-15.4,21l14.3,26.4c0.7,1.4,0,3-1.8,3
		h-10.9c-0.9,0-1.5-0.5-1.7-0.9l-13.8-27.6h-11.5v26.5c0,1-0.9,2-2,2h-9.6c-1.1,0-2-0.9-2-2V2.9z M608.9,34.1
		c5.5,0,10.3-4.8,10.3-10.6c0-5.5-4.8-10.1-10.3-10.1h-17v20.7H608.9z"/>
	<path class="st2" d="M647,2.9c0-1,0.8-2,2-2h42.3c1.1,0,2,0.9,2,2v8.5c0,1-0.8,2-2,2h-30.8v17.1h25.7c1,0,2,0.9,2,2v8.6
		c0,1.1-0.9,2-2,2h-25.7v18.2h30.8c1.1,0,2,0.9,2,2v8.5c0,1-0.8,2-2,2H649c-1.1,0-2-0.9-2-2V2.9z"/>
	<path class="st2" d="M703.4,66.6c-1-0.8-1.5-1.5-0.5-3.1l3.7-6.5c0.8-1.5,2.6-1.5,3.5-0.7c4.3,3.2,8.9,6.4,15.7,6.4
		c5.4,0,9.5-3.5,9.5-8c0-5.3-4.5-8.9-13.2-12.5c-9.8-4-19.6-10.2-19.6-22.5c0-9.3,6.9-20,23.4-20c10.6,0,18.7,5.4,20.8,7
		c1,0.6,1.4,2.4,0.6,3.4l-4,5.9c-0.8,1.2-2.4,2.1-3.6,1.2c-4.5-2.8-8.7-5.7-14.5-5.7c-5.9,0-9.2,3.3-9.2,7.3
		c0,4.9,3.8,8.2,12.3,11.7c10.1,4.1,21.7,10.1,21.7,23.5c0,10.7-9.3,20.6-23.9,20.6C713.2,74.8,706.4,69.2,703.4,66.6z"/>
	<path class="st2" d="M760.1,66.6c-1-0.8-1.5-1.5-0.5-3.1l3.7-6.5c0.8-1.5,2.6-1.5,3.5-0.7c4.3,3.2,8.9,6.4,15.7,6.4
		c5.4,0,9.5-3.5,9.5-8c0-5.3-4.5-8.9-13.2-12.5c-9.8-4-19.6-10.2-19.6-22.5c0-9.3,6.9-20,23.4-20c10.6,0,18.7,5.4,20.8,7
		c1,0.6,1.4,2.4,0.6,3.4l-4,5.9c-0.8,1.2-2.4,2.1-3.6,1.2c-4.5-2.8-8.7-5.7-14.5-5.7c-5.9,0-9.2,3.3-9.2,7.3
		c0,4.9,3.8,8.2,12.3,11.7c10.1,4.1,21.7,10.1,21.7,23.5c0,10.7-9.3,20.6-23.9,20.6C769.9,74.8,763.1,69.2,760.1,66.6z"/>
</g>
<g class="st0">
	<path class="st2" d="M6.3,85.7c0-1,0.8-2,2-2h29.8c12.5,0,22.7,10,22.7,22.4c0,9.6-6.3,17.4-15.4,21l14.3,26.4c0.7,1.4,0,3-1.8,3
		H46.9c-0.9,0-1.5-0.5-1.7-0.9l-13.8-27.6H19.9v26.5c0,1-0.9,2-2,2H8.3c-1.1,0-2-0.9-2-2V85.7z M36.9,116.9
		c5.5,0,10.3-4.8,10.3-10.6c0-5.5-4.8-10.1-10.3-10.1H20v20.7H36.9z"/>
	<path class="st2" d="M75,85.7c0-1,0.8-2,2-2h42.3c1.1,0,2,0.9,2,2v8.5c0,1-0.8,2-2,2H88.5v17.1h25.7c1,0,2,0.9,2,2v8.6
		c0,1.1-0.9,2-2,2H88.5v18.2h30.8c1.1,0,2,0.9,2,2v8.5c0,1-0.8,2-2,2H77c-1.1,0-2-0.9-2-2V85.7z"/>
	<path class="st2" d="M131.4,149.5c-1-0.8-1.5-1.5-0.5-3.1l3.7-6.5c0.8-1.5,2.6-1.5,3.5-0.7c4.3,3.2,8.9,6.5,15.7,6.5
		c5.4,0,9.5-3.5,9.5-8c0-5.3-4.5-8.9-13.2-12.5c-9.8-4-19.6-10.2-19.6-22.5c0-9.3,6.9-20,23.4-20c10.6,0,18.7,5.4,20.8,7
		c1,0.6,1.4,2.4,0.6,3.4l-4,5.9c-0.8,1.2-2.4,2.1-3.6,1.2c-4.5-2.8-8.7-5.7-14.5-5.7c-5.9,0-9.2,3.3-9.2,7.3
		c0,4.9,3.8,8.2,12.3,11.7c10.1,4.1,21.7,10.1,21.7,23.5c0,10.7-9.3,20.6-23.9,20.6C141.2,157.6,134.4,152.1,131.4,149.5z"/>
	<path class="st2" d="M188.1,149.5c-1-0.8-1.5-1.5-0.5-3.1l3.7-6.5c0.8-1.5,2.6-1.5,3.5-0.7c4.3,3.2,8.9,6.5,15.7,6.5
		c5.4,0,9.5-3.5,9.5-8c0-5.3-4.5-8.9-13.2-12.5c-9.8-4-19.6-10.2-19.6-22.5c0-9.3,6.9-20,23.4-20c10.6,0,18.7,5.4,20.8,7
		c1,0.6,1.4,2.4,0.6,3.4l-4,5.9c-0.8,1.2-2.4,2.1-3.6,1.2c-4.5-2.8-8.7-5.7-14.5-5.7c-5.9,0-9.2,3.3-9.2,7.3
		c0,4.9,3.8,8.2,12.3,11.7c10.1,4.1,21.7,10.1,21.7,23.5c0,10.7-9.3,20.6-23.9,20.6C197.9,157.6,191.1,152.1,188.1,149.5z"/>
	<path class="st2" d="M259.6,96.2h-15.9c-1.1,0-2-0.9-2-2v-8.5c0-1,0.8-2,2-2h45.5c1.1,0,2,0.9,2,2v8.5c0,1-0.8,2-2,2h-15.9v58.4
		c0,1-0.9,2-2,2h-9.7c-1,0-2-0.9-2-2V96.2z"/>
	<path class="st2" d="M333.8,82.7c20.8,0,37.5,16.7,37.5,37.6c0,20.8-16.6,37.3-37.5,37.3s-37.3-16.5-37.3-37.3
		C296.5,99.4,313,82.7,333.8,82.7z M333.8,144.1c13.1,0,23.9-10.7,23.9-23.8s-10.8-24-23.9-24s-23.8,10.9-23.8,24
		S320.7,144.1,333.8,144.1z"/>
	<path class="st2" d="M384.7,85.7c0-1,0.8-2,2-2h29.8c12.5,0,22.7,10,22.7,22.4c0,9.6-6.3,17.4-15.4,21l14.3,26.4c0.7,1.4,0,3-1.8,3
		h-10.9c-0.9,0-1.5-0.5-1.7-0.9l-13.8-27.6h-11.5v26.5c0,1-0.9,2-2,2h-9.6c-1.1,0-2-0.9-2-2V85.7z M415.3,116.9
		c5.5,0,10.3-4.8,10.3-10.6c0-5.5-4.8-10.1-10.3-10.1h-17v20.7H415.3z"/>
	<path class="st2" d="M453.4,85.7c0-1,0.8-2,2-2h42.3c1.1,0,2,0.9,2,2v8.5c0,1-0.8,2-2,2h-30.8v17.1h25.7c1,0,2,0.9,2,2v8.6
		c0,1.1-0.9,2-2,2h-25.7v18.2h30.8c1.1,0,2,0.9,2,2v8.5c0,1-0.8,2-2,2h-42.3c-1.1,0-2-0.9-2-2V85.7z"/>
	<path class="st2" d="M509.8,149.5c-1-0.8-1.5-1.5-0.5-3.1l3.7-6.5c0.8-1.5,2.6-1.5,3.5-0.7c4.3,3.2,8.9,6.5,15.7,6.5
		c5.4,0,9.5-3.5,9.5-8c0-5.3-4.5-8.9-13.2-12.5c-9.8-4-19.6-10.2-19.6-22.5c0-9.3,6.9-20,23.4-20c10.6,0,18.7,5.4,20.8,7
		c1,0.6,1.4,2.4,0.6,3.4l-4,5.9c-0.8,1.2-2.4,2.1-3.6,1.2c-4.5-2.8-8.7-5.7-14.5-5.7c-5.9,0-9.2,3.3-9.2,7.3
		c0,4.9,3.8,8.2,12.3,11.7c10.1,4.1,21.7,10.1,21.7,23.5c0,10.7-9.3,20.6-23.9,20.6C519.6,157.6,512.8,152.1,509.8,149.5z"/>
	<path class="st2" d="M566.5,149.5c-1-0.8-1.5-1.5-0.5-3.1l3.7-6.5c0.8-1.5,2.6-1.5,3.5-0.7c4.3,3.2,8.9,6.5,15.7,6.5
		c5.4,0,9.5-3.5,9.5-8c0-5.3-4.5-8.9-13.2-12.5c-9.8-4-19.6-10.2-19.6-22.5c0-9.3,6.9-20,23.4-20c10.6,0,18.7,5.4,20.8,7
		c1,0.6,1.4,2.4,0.6,3.4l-4,5.9c-0.8,1.2-2.4,2.1-3.6,1.2c-4.5-2.8-8.7-5.7-14.5-5.7c-5.9,0-9.2,3.3-9.2,7.3
		c0,4.9,3.8,8.2,12.3,11.7c10.1,4.1,21.7,10.1,21.7,23.5c0,10.7-9.3,20.6-23.9,20.6C576.3,157.6,569.5,152.1,566.5,149.5z"/>
	<path class="st2" d="M638,96.2H622c-1.1,0-2-0.9-2-2v-8.5c0-1,0.8-2,2-2h45.5c1.1,0,2,0.9,2,2v8.5c0,1-0.8,2-2,2h-15.9v58.4
		c0,1-0.9,2-2,2h-9.7c-1,0-2-0.9-2-2V96.2z"/>
	<path class="st2" d="M712.2,82.7c20.8,0,37.5,16.7,37.5,37.6c0,20.8-16.6,37.3-37.5,37.3s-37.3-16.5-37.3-37.3
		C674.9,99.4,691.4,82.7,712.2,82.7z M712.2,144.1c13.1,0,23.9-10.7,23.9-23.8s-10.8-24-23.9-24s-23.8,10.9-23.8,24
		S699.1,144.1,712.2,144.1z"/>
	<path class="st2" d="M763.1,85.7c0-1,0.8-2,2-2h29.8c12.5,0,22.7,10,22.7,22.4c0,9.6-6.3,17.4-15.4,21l14.3,26.4c0.7,1.4,0,3-1.8,3
		h-10.9c-0.9,0-1.5-0.5-1.7-0.9l-13.8-27.6h-11.5v26.5c0,1-0.9,2-2,2h-9.6c-1.1,0-2-0.9-2-2V85.7z M793.7,116.9
		c5.5,0,10.3-4.8,10.3-10.6c0-5.5-4.8-10.1-10.3-10.1h-17v20.7H793.7z"/>
</g>
</svg>
