<?xml version="1.0" encoding="utf-8"?>
<!-- Generator: Adobe Illustrator 26.0.3, SVG Export Plug-In . SVG Version: 6.00 Build 0)  -->
<svg version="1.1" id="Capa_1" xmlns="http://www.w3.org/2000/svg" xmlns:xlink="http://www.w3.org/1999/xlink" x="0px" y="0px"
	 viewBox="0 0 742.2 386.2" style="enable-background:new 0 0 742.2 386.2;" xml:space="preserve">
<style type="text/css">
	.st0{fill:none;stroke:#FFFFFF;stroke-width:0.26;stroke-miterlimit:4.2;}
	.st1{fill:#FFFFFF;}
</style>
<path class="st0" d="M0.1,82c0-1,0.8-1.8,1.8-1.8c0,0,0,0,0,0h27.6c11.5-0.1,20.9,9.2,21,20.7c0,8.9-5.9,16.1-14.3,19.5l13.2,24.5
	c0.5,0.8,0.3,2-0.6,2.5c-0.3,0.2-0.7,0.3-1.1,0.3H37.8c-0.6,0-1.2-0.3-1.5-0.9l-12.8-25.6H12.7v24.6c0,1-0.8,1.8-1.8,1.8H2
	c-1,0-1.8-0.8-1.8-1.8c0,0,0,0,0,0V82z M28.5,111c5.3-0.1,9.6-4.5,9.5-9.8c-0.1-5.2-4.4-9.3-9.5-9.3H12.8V111H28.5z"/>
<path class="st0" d="M68.5,82c0-1,0.8-1.8,1.8-1.8l0,0h39.3c1,0,1.8,0.8,1.8,1.8l0,0v7.9c0,1-0.8,1.8-1.8,1.8c0,0,0,0,0,0H81.1v15.8
	h23.8c1,0,1.8,0.8,1.8,1.8v8c0,1-0.8,1.8-1.8,1.8l0,0H81.1v16.9h28.6c1,0,1.8,0.8,1.8,1.8l0,0v7.9c0,1-0.8,1.8-1.8,1.8c0,0,0,0,0,0
	H70.4c-1,0-1.8-0.8-1.8-1.8c0,0,0,0,0,0L68.5,82z"/>
<path class="st0" d="M158.5,79.2c8.7,0.1,17,3.3,23.5,9c0.8,0.7,0.8,1.9,0.2,2.6c0,0,0,0.1-0.1,0.1l-6,6.3c-0.6,0.7-1.6,0.8-2.3,0.2
	c-0.1-0.1-0.1-0.1-0.2-0.2c-4-3.6-9.2-5.6-14.6-5.6c-12.1,0-21.6,10.3-21.6,22.4c-0.1,12.1,9.6,21.9,21.7,22.1c4,0,7.9-0.9,11.5-2.4
	v-8.2h-7.7c-1,0-1.8-0.7-1.8-1.7c0,0,0,0,0-0.1v-7.6c0-1,0.7-1.8,1.7-1.8c0,0,0.1,0,0.1,0h18.5c1,0,1.8,0.8,1.7,1.8v24.7
	c0,0.6-0.3,1.2-0.8,1.5c-7.3,4.1-15.5,6.3-23.9,6.3c-19.2-0.3-34.4-16.1-34.1-35.3C124.7,94.6,139.8,79.6,158.5,79.2L158.5,79.2z"/>
<path class="st0" d="M201.8,82c0-1,0.8-1.8,1.8-1.8c0,0,0,0,0,0h39.3c1,0,1.8,0.8,1.8,1.8l0,0v7.9c0,1-0.8,1.8-1.8,1.8c0,0,0,0,0,0
	h-28.6v15.8h23.8c1,0,1.8,0.8,1.8,1.8v8c0,1-0.8,1.8-1.8,1.8l0,0h-23.8v16.9h28.6c1,0,1.8,0.8,1.8,1.8l0,0v7.9c0,1-0.8,1.8-1.8,1.8
	c0,0,0,0,0,0h-39.2c-1,0-1.8-0.8-1.8-1.8c0,0,0,0,0,0L201.8,82z"/>
<path class="st0" d="M262.1,81c0-1,0.9-1.8,1.8-1.7h1.4c0.6,0,1.2,0.2,1.6,0.7l39.4,42h0.2V82c0-1,0.8-1.8,1.8-1.8h8.9
	c1,0,1.8,0.8,1.8,1.8V147c0,1-0.8,1.8-1.8,1.7h-1.4c-0.6,0-1.2-0.2-1.6-0.7l-39.6-43.6h-0.2v41.5c0,1-0.8,1.8-1.8,1.8c0,0,0,0,0,0
	h-8.8c-1,0-1.8-0.8-1.8-1.8V81z"/>
<path class="st0" d="M340.2,82c0-1,0.8-1.8,1.8-1.8h39.3c1,0,1.8,0.8,1.8,1.8v7.9c0,1-0.8,1.8-1.8,1.8c0,0,0,0,0,0h-28.6v15.8h23.9
	c1,0,1.8,0.8,1.8,1.8v8c0,1-0.8,1.8-1.8,1.9c0,0,0,0,0,0h-23.9v16.9h28.6c1,0,1.8,0.8,1.8,1.8v7.9c0,1-0.8,1.8-1.8,1.8c0,0,0,0,0,0
	H342c-1,0-1.8-0.8-1.8-1.8c0,0,0,0,0,0L340.2,82z"/>
<path class="st0" d="M400.5,82c0-1,0.8-1.8,1.8-1.8c0,0,0,0,0,0h27.6c11.5-0.1,20.9,9.2,21,20.7c0,8.9-5.9,16.1-14.3,19.5l13.2,24.5
	c0.5,0.8,0.3,2-0.6,2.5c-0.3,0.2-0.7,0.3-1.1,0.3h-10.1c-0.6,0-1.2-0.3-1.5-0.9l-12.8-25.6h-10.7v24.6c0,1-0.8,1.8-1.8,1.8h-8.9
	c-1,0-1.8-0.8-1.8-1.8c0,0,0,0,0,0L400.5,82z M428.9,111c5.3-0.1,9.6-4.5,9.5-9.8c-0.1-5.2-4.4-9.3-9.5-9.3h-15.7V111H428.9z"/>
<path class="st0" d="M460.9,145.2l30-64.9c0.3-0.7,0.9-1.1,1.6-1.1h1c0.7,0,1.4,0.4,1.6,1.1l29.7,64.9c0.4,0.8,0.1,1.9-0.7,2.3
	c-0.3,0.2-0.6,0.2-0.9,0.2h-8.4c-1.5,0-2.1-0.6-2.8-1.9l-4.7-10.4h-28.9l-4.7,10.4c-0.4,1.2-1.5,2-2.8,1.9h-8.4
	c-0.9,0.1-1.8-0.6-1.8-1.6C460.7,145.9,460.7,145.5,460.9,145.2z M502.6,124.7l-9.6-21.2h-0.4l-9.5,21.2H502.6z"/>
<path class="st0" d="M544.6,91.8h-14.8c-1,0-1.8-0.8-1.8-1.8c0,0,0,0,0,0V82c0-1,0.8-1.8,1.8-1.8c0,0,0,0,0,0H572
	c1,0,1.8,0.8,1.8,1.8c0,0,0,0,0,0v7.9c0,1-0.8,1.8-1.8,1.8c0,0,0,0,0,0h-14.8v54.1c0,1-0.8,1.8-1.8,1.8h-9c-1,0-1.8-0.8-1.8-1.8
	V91.8z"/>
<path class="st0" d="M589.2,82c0-1,0.8-1.8,1.8-1.8h9c1,0,1.8,0.8,1.8,1.8v63.9c0,1-0.8,1.8-1.8,1.8h-9c-1,0-1.8-0.8-1.8-1.8V82z"/>
<path class="st0" d="M614.8,82.7c-0.4-0.8-0.1-1.9,0.7-2.3c0.3-0.2,0.6-0.2,0.9-0.2h9.8c0.7,0,1.4,0.4,1.6,1.1l18.6,41.5h0.5
	l18.6-41.5c0.3-0.7,0.9-1.1,1.6-1.1h9.8c0.9-0.1,1.8,0.6,1.8,1.5c0,0.3,0,0.7-0.2,1l-29.9,64.9c-0.3,0.7-0.9,1.1-1.6,1.1h-1
	c-0.7,0-1.4-0.4-1.6-1.1L614.8,82.7z"/>
<path class="st0" d="M678,145.2l30-64.9c0.3-0.7,0.9-1.1,1.7-1.1h1c0.7,0,1.3,0.4,1.6,1.1l29.7,64.9c0.4,0.8,0.1,1.9-0.7,2.3
	c-0.3,0.2-0.6,0.2-0.9,0.2h-8.4c-1.5,0-2.1-0.6-2.8-1.9l-4.7-10.4h-28.8l-4.7,10.4c-0.4,1.2-1.5,2-2.8,1.9h-8.4
	c-0.9,0.1-1.8-0.6-1.9-1.5C677.7,145.9,677.8,145.5,678,145.2z M719.6,124.7l-9.6-21.2h-0.3l-9.5,21.2H719.6z"/>
<path class="st0" d="M0.1,2.9c0-1,0.8-1.8,1.8-1.8h27.6c11.5-0.1,21,9.2,21.1,20.7c0,0,0,0,0,0c0,8.9-5.9,16.1-14.3,19.5l13.2,24.5
	c0.5,0.8,0.3,2-0.6,2.5c-0.3,0.2-0.7,0.3-1.1,0.3H37.8c-0.6,0-1.2-0.3-1.5-0.9L23.4,42.2H12.7v24.6c0,1-0.8,1.8-1.8,1.8H2
	c-1,0-1.8-0.8-1.8-1.8c0,0,0,0,0,0V2.9z M28.5,31.9c5.3-0.1,9.6-4.5,9.5-9.8c-0.1-5.2-4.4-9.3-9.5-9.4H12.8v19.2H28.5z"/>
<path class="st0" d="M68.5,2.9c0-1,0.8-1.8,1.8-1.8l0,0h39.3c1,0,1.8,0.8,1.8,1.8c0,0,0,0,0,0v7.9c0,1-0.8,1.8-1.8,1.8c0,0,0,0,0,0
	H81.1v15.8h23.8c1,0,1.8,0.8,1.8,1.8v8c0,1-0.8,1.8-1.8,1.8l0,0H81.1v16.9h28.6c1,0,1.8,0.8,1.8,1.8l0,0v7.9c0,1-0.8,1.8-1.8,1.8
	c0,0,0,0,0,0H70.4c-1,0-1.8-0.8-1.8-1.8c0,0,0,0,0,0L68.5,2.9z"/>
<path class="st0" d="M158.5,0.1c8.7,0.1,17,3.3,23.5,9c0.8,0.7,0.8,1.9,0.2,2.6c0,0,0,0.1-0.1,0.1l-6,6.3c-0.6,0.7-1.6,0.8-2.3,0.2
	c-0.1-0.1-0.1-0.1-0.2-0.2c-4-3.6-9.2-5.6-14.6-5.6c-12.1,0-21.6,10.3-21.6,22.4c0,12.1,9.7,21.9,21.7,22.1c4,0,7.9-0.9,11.5-2.4
	v-8.2h-7.7c-1,0-1.8-0.7-1.8-1.7c0,0,0,0,0-0.1V37c0-1,0.7-1.8,1.7-1.8c0,0,0.1,0,0.1,0h18.5c1,0,1.8,0.9,1.7,1.8v24.7
	c0,0.6-0.3,1.2-0.8,1.5c-7.3,4.1-15.5,6.3-23.9,6.3c-19.2-0.3-34.4-16.1-34.1-35.3C124.7,15.5,139.8,0.4,158.5,0.1L158.5,0.1z"/>
<path class="st0" d="M201.8,2.9c0-1,0.8-1.8,1.8-1.8c0,0,0,0,0,0h39.3c1,0,1.8,0.8,1.8,1.8c0,0,0,0,0,0v7.9c0,1-0.8,1.8-1.8,1.8
	c0,0,0,0,0,0h-28.6v15.8h23.8c1,0,1.8,0.8,1.8,1.8v8c0,1-0.8,1.8-1.8,1.8l0,0h-23.8v16.9h28.6c1,0,1.8,0.8,1.8,1.8l0,0v7.9
	c0,1-0.8,1.8-1.8,1.8c0,0,0,0,0,0h-39.2c-1,0-1.8-0.8-1.8-1.8c0,0,0,0,0,0L201.8,2.9z"/>
<path class="st0" d="M262.1,1.9c0-1,0.9-1.8,1.8-1.7h1.4c0.6,0,1.2,0.2,1.6,0.7l39.4,42h0.2V2.9c0-1,0.8-1.8,1.8-1.8h8.9
	c1,0,1.8,0.8,1.8,1.8v64.9c0,1-0.8,1.8-1.8,1.7h-1.4c-0.6,0-1.2-0.2-1.6-0.7l-39.6-43.6h-0.2v41.5c0,1-0.8,1.8-1.8,1.8c0,0,0,0,0,0
	h-8.8c-1,0-1.8-0.8-1.8-1.8L262.1,1.9z"/>
<path class="st0" d="M340.2,2.9c0-1,0.8-1.8,1.8-1.8h39.3c1,0,1.8,0.8,1.8,1.8v7.9c0,1-0.8,1.8-1.8,1.8c0,0,0,0,0,0h-28.6v15.8h23.9
	c1,0.1,1.7,0.8,1.8,1.8v8c0,1-0.8,1.8-1.8,1.9h-23.9v16.9h28.6c1,0,1.8,0.8,1.8,1.8v7.9c0,1-0.8,1.8-1.8,1.8c0,0,0,0,0,0H342
	c-1,0-1.8-0.8-1.8-1.8c0,0,0,0,0,0L340.2,2.9z"/>
<path class="st0" d="M400.5,2.9c0-1,0.8-1.8,1.8-1.8c0,0,0,0,0,0h27.6c11.5-0.1,20.9,9.2,21,20.7c0,8.9-5.9,16.1-14.3,19.5
	l13.2,24.5c0.5,0.8,0.3,2-0.6,2.5c-0.3,0.2-0.7,0.3-1.1,0.3h-10.1c-0.6,0-1.2-0.3-1.5-0.9l-12.8-25.6h-10.7v24.6
	c0,1-0.8,1.8-1.8,1.8h-8.9c-1,0-1.8-0.8-1.8-1.8c0,0,0,0,0,0L400.5,2.9z M428.9,31.9c5.3-0.1,9.6-4.5,9.5-9.8
	c-0.1-5.2-4.4-9.3-9.5-9.4h-15.7v19.2H428.9z"/>
<path class="st0" d="M460.9,66.1l30-64.9c0.3-0.7,0.9-1.1,1.6-1.1h1c0.7,0,1.4,0.4,1.6,1.1l29.7,64.9c0.4,0.8,0.1,1.9-0.7,2.3
	c-0.3,0.2-0.6,0.2-0.9,0.2h-8.4c-1.5,0-2.1-0.6-2.8-1.9l-4.7-10.4h-28.8l-4.7,10.4c-0.4,1.2-1.5,2-2.8,1.9h-8.4
	c-0.9,0.1-1.8-0.6-1.8-1.6C460.7,66.8,460.7,66.4,460.9,66.1z M502.6,45.6l-9.7-21.3h-0.3l-9.5,21.2L502.6,45.6z"/>
<path class="st0" d="M544.6,12.7h-14.8c-1,0-1.8-0.8-1.8-1.8c0,0,0,0,0,0V2.9c0-1,0.8-1.8,1.8-1.8c0,0,0,0,0,0H572
	c1,0,1.8,0.8,1.8,1.8c0,0,0,0,0,0v7.9c0,1-0.8,1.8-1.8,1.8c0,0,0,0,0,0h-14.8v54.1c0,1-0.8,1.8-1.8,1.8h-9c-1,0-1.8-0.8-1.8-1.8
	V12.7z"/>
<path class="st0" d="M589.2,2.9c0-1,0.8-1.8,1.8-1.8h9c1,0,1.8,0.8,1.8,1.8v63.9c0,1-0.8,1.8-1.8,1.8h-9c-1,0-1.8-0.8-1.8-1.8V2.9z"
	/>
<path class="st0" d="M614.8,3.6c-0.4-0.8-0.1-1.9,0.7-2.3c0.3-0.2,0.6-0.2,0.9-0.2h9.8c0.7,0,1.4,0.4,1.6,1.1l18.6,41.5h0.5
	l18.6-41.5c0.3-0.7,0.9-1.1,1.6-1.1h9.8c0.9-0.1,1.8,0.6,1.8,1.5c0,0.3,0,0.7-0.2,1l-29.9,64.9c-0.3,0.7-0.9,1.1-1.6,1.1h-1
	c-0.7,0-1.3-0.4-1.6-1.1L614.8,3.6z"/>
<path class="st0" d="M678,66.1l30-64.9c0.3-0.7,0.9-1.1,1.7-1.1h1c0.7-0.1,1.4,0.4,1.6,1.1l29.7,64.9c0.4,0.8,0.1,1.9-0.7,2.3
	c-0.3,0.2-0.6,0.2-0.9,0.2h-8.4c-1.5,0-2.1-0.6-2.8-1.9l-4.7-10.4h-28.8l-4.7,10.4c-0.4,1.2-1.5,2-2.8,1.9h-8.4
	c-0.9,0.1-1.8-0.6-1.9-1.5C677.7,66.8,677.8,66.4,678,66.1z M719.6,45.6L710,24.3h-0.3l-9.5,21.2L719.6,45.6z"/>
<path class="st0" d="M0.1,319.4c0-1,0.8-1.8,1.8-1.8h27.6c11.5-0.1,21,9.2,21.1,20.7c0,0,0,0,0,0c0,8.9-5.9,16.1-14.3,19.5
	l13.2,24.5c0.5,0.8,0.3,2-0.6,2.5c-0.3,0.2-0.7,0.3-1.1,0.3H37.8c-0.6,0-1.2-0.3-1.5-0.9l-12.8-25.6H12.7v24.6c0,1-0.8,1.8-1.8,1.8
	H2c-1,0-1.8-0.8-1.8-1.8c0,0,0,0,0,0V319.4z M28.5,348.3c5.3-0.1,9.6-4.5,9.5-9.8c-0.1-5.2-4.4-9.3-9.5-9.4H12.8v19.2H28.5z"/>
<path class="st0" d="M68.5,319.4c0-1,0.8-1.8,1.8-1.8h39.3c1,0,1.8,0.8,1.8,1.8v7.9c0,1-0.8,1.8-1.8,1.8c0,0,0,0,0,0H81.1V345h23.8
	c1,0,1.8,0.8,1.8,1.8v8c0,1-0.8,1.8-1.8,1.8H81.1v16.9h28.6c1,0,1.8,0.8,1.8,1.8v7.9c0,1-0.8,1.8-1.8,1.8c0,0,0,0,0,0H70.4
	c-1,0-1.8-0.8-1.8-1.8c0,0,0,0,0,0L68.5,319.4z"/>
<path class="st0" d="M158.5,316.6c8.7,0.1,17,3.3,23.5,9c0.8,0.7,0.8,1.9,0.2,2.6c0,0,0,0.1-0.1,0.1l-6,6.3
	c-0.6,0.7-1.6,0.8-2.3,0.2c-0.1-0.1-0.1-0.1-0.2-0.2c-4-3.6-9.2-5.6-14.6-5.6c-12.1,0-21.6,10.3-21.6,22.4
	c-0.1,12.1,9.6,21.9,21.7,22.1c4,0,7.9-0.9,11.5-2.4v-8.2h-7.7c-1,0-1.8-0.7-1.8-1.7c0,0,0,0,0-0.1v-7.6c0-1,0.7-1.8,1.7-1.8
	c0,0,0.1,0,0.1,0h18.5c1,0,1.8,0.8,1.7,1.8v24.7c0,0.6-0.3,1.2-0.8,1.5c-7.3,4.1-15.5,6.3-23.9,6.3c-19.2-0.3-34.4-16.1-34.1-35.3
	C124.7,332,139.8,316.9,158.5,316.6L158.5,316.6z"/>
<path class="st0" d="M201.8,319.4c0-1,0.8-1.8,1.8-1.8h39.3c1,0,1.8,0.8,1.8,1.8v7.9c0,1-0.8,1.8-1.8,1.8c0,0,0,0,0,0h-28.6V345
	h23.8c1,0,1.8,0.8,1.8,1.8v8c0,1-0.8,1.8-1.8,1.8h-23.8v16.9h28.6c1,0,1.8,0.8,1.8,1.8v7.9c0,1-0.8,1.8-1.8,1.8c0,0,0,0,0,0h-39.2
	c-1,0-1.8-0.8-1.8-1.8c0,0,0,0,0,0L201.8,319.4z"/>
<path class="st0" d="M262.1,318.3c0-1,0.9-1.8,1.8-1.7h1.4c0.6,0,1.2,0.2,1.6,0.7l39.4,42h0.2v-39.9c0-1,0.8-1.8,1.8-1.8h8.9
	c1,0,1.8,0.8,1.8,1.8v64.9c0,1-0.8,1.8-1.8,1.7h-1.4c-0.6,0-1.2-0.2-1.6-0.7l-39.6-43.6h-0.2v41.5c0,1-0.8,1.8-1.8,1.8c0,0,0,0,0,0
	h-8.8c-1,0-1.8-0.8-1.8-1.8V318.3z"/>
<path class="st0" d="M340.2,319.4c0-1,0.8-1.8,1.8-1.8h39.3c1,0,1.8,0.8,1.8,1.8v7.9c0,1-0.8,1.8-1.8,1.8c0,0,0,0,0,0h-28.6V345
	h23.9c1,0,1.8,0.8,1.8,1.8v8c0,1-0.8,1.8-1.8,1.8h-23.9v16.9h28.6c1,0,1.8,0.8,1.8,1.8v7.9c0,1-0.8,1.8-1.8,1.8c0,0,0,0,0,0H342
	c-1,0-1.8-0.8-1.8-1.8c0,0,0,0,0,0L340.2,319.4z"/>
<path class="st0" d="M400.5,319.4c0-1,0.8-1.8,1.8-1.8c0,0,0,0,0,0h27.6c11.5-0.1,20.9,9.2,21,20.7c0,8.9-5.9,16.1-14.3,19.5
	l13.2,24.5c0.5,0.8,0.3,2-0.6,2.5c-0.3,0.2-0.7,0.3-1.1,0.3h-10.1c-0.6,0-1.2-0.3-1.5-0.9l-12.8-25.6h-10.7v24.6
	c0,1-0.8,1.8-1.8,1.8h-8.9c-1,0-1.8-0.8-1.8-1.8c0,0,0,0,0,0L400.5,319.4z M428.9,348.3c5.3-0.1,9.6-4.5,9.5-9.8
	c-0.1-5.2-4.4-9.3-9.5-9.4h-15.7v19.2H428.9z"/>
<path class="st0" d="M460.9,382.6l30-64.9c0.3-0.7,0.9-1.1,1.6-1.1h1c0.7,0,1.4,0.4,1.6,1.1l29.7,64.9c0.4,0.8,0.1,1.9-0.7,2.3
	c-0.3,0.2-0.6,0.2-0.9,0.2h-8.4c-1.5,0-2.1-0.6-2.8-1.9l-4.7-10.4h-28.9l-4.7,10.4c-0.4,1.2-1.5,2-2.8,1.9h-8.4
	c-0.9,0.1-1.8-0.6-1.8-1.6C460.7,383.2,460.7,382.9,460.9,382.6z M502.6,362l-9.6-21.2h-0.4l-9.5,21.2H502.6z"/>
<path class="st0" d="M544.6,329.1h-14.8c-1,0-1.8-0.8-1.8-1.8c0,0,0,0,0,0v-7.9c0-1,0.8-1.8,1.8-1.8c0,0,0,0,0,0H572
	c1,0,1.8,0.8,1.8,1.8l0,0v7.9c0,1-0.8,1.8-1.8,1.8c0,0,0,0,0,0h-14.8v54.1c0,1-0.8,1.8-1.8,1.8h-9c-1,0-1.8-0.8-1.8-1.8L544.6,329.1
	z"/>
<path class="st0" d="M589.2,319.4c0-1,0.8-1.8,1.8-1.8h9c1,0,1.8,0.8,1.8,1.8v63.9c0,1-0.8,1.8-1.8,1.8h-9c-1,0-1.8-0.8-1.8-1.8
	V319.4z"/>
<path class="st0" d="M614.8,320c-0.4-0.8-0.1-1.9,0.7-2.3c0.3-0.2,0.6-0.2,0.9-0.2h9.8c0.7,0,1.4,0.4,1.6,1.1l18.6,41.5h0.5
	l18.6-41.5c0.3-0.7,0.9-1.1,1.6-1.1h9.8c0.9-0.1,1.8,0.6,1.8,1.5c0,0.3,0,0.7-0.2,1L648.8,385c-0.3,0.7-0.9,1.1-1.6,1.1h-1
	c-0.7,0-1.4-0.4-1.6-1.1L614.8,320z"/>
<path class="st0" d="M678,382.6l30-64.9c0.3-0.7,0.9-1.1,1.6-1.1h1c0.7,0,1.4,0.4,1.6,1.1l29.7,64.9c0.4,0.8,0.1,1.9-0.7,2.3
	c-0.3,0.2-0.6,0.2-0.9,0.2h-8.4c-1.5,0-2.1-0.6-2.8-1.9l-4.7-10.4h-28.9l-4.7,10.4c-0.4,1.2-1.5,2-2.8,1.9h-8.4
	c-0.9,0.1-1.8-0.6-1.9-1.5C677.7,383.2,677.8,382.9,678,382.6z M719.6,362l-9.6-21.2h-0.3l-9.5,21.2H719.6z"/>
<path class="st1" d="M0.1,161.1c0-1,0.8-1.8,1.8-1.8c0,0,0,0,0,0h27.6c11.5-0.1,20.9,9.2,21,20.7c0,8.9-5.9,16.1-14.3,19.5
	l13.2,24.5c0.5,0.8,0.3,2-0.6,2.5c-0.3,0.2-0.7,0.3-1.1,0.3H37.8c-0.6,0-1.2-0.3-1.5-0.9l-12.8-25.6H12.7V225c0,1-0.8,1.8-1.8,1.8H2
	c-1,0-1.8-0.8-1.8-1.8c0,0,0,0,0,0V161.1z M28.5,190.1c5.3-0.2,9.6-4.5,9.5-9.9c-0.1-5.2-4.4-9.3-9.5-9.4H12.8v19.2L28.5,190.1z"/>
<path class="st1" d="M68.5,161.1c0-1,0.8-1.8,1.8-1.8c0,0,0,0,0,0h39.3c1,0,1.8,0.8,1.8,1.8l0,0v7.9c0,1-0.8,1.8-1.8,1.8
	c0,0,0,0,0,0H81.1v15.8h23.8c1,0,1.8,0.8,1.8,1.8v8c0,1-0.8,1.8-1.8,1.8l0,0H81.1v16.9h28.6c1,0,1.8,0.8,1.8,1.8l0,0v7.9
	c0,1-0.8,1.8-1.8,1.8c0,0,0,0,0,0H70.4c-1,0-1.8-0.8-1.8-1.8c0,0,0,0,0,0L68.5,161.1z"/>
<path class="st1" d="M158.5,158.3c8.7,0.1,17,3.3,23.5,9c0.8,0.7,0.8,1.9,0.2,2.6c0,0,0,0.1-0.1,0.1l-6,6.3
	c-0.6,0.7-1.6,0.8-2.3,0.2c-0.1-0.1-0.1-0.1-0.2-0.2c-4-3.6-9.2-5.6-14.6-5.6c-12.1,0-21.6,10.3-21.6,22.4
	c-0.1,12.1,9.6,21.9,21.7,22.1c4,0,7.9-0.8,11.5-2.4v-8.2h-7.7c-1,0-1.8-0.7-1.8-1.7c0,0,0,0,0-0.1v-7.6c0-1,0.7-1.8,1.7-1.8
	c0,0,0.1,0,0.1,0h18.5c1,0,1.8,0.8,1.7,1.8v24.7c0,0.6-0.3,1.2-0.8,1.5c-7.3,4.1-15.5,6.3-23.9,6.3c-19.2-0.3-34.4-16.1-34.1-35.3
	C124.7,173.7,139.8,158.7,158.5,158.3L158.5,158.3z"/>
<path class="st1" d="M201.8,161.1c0-1,0.8-1.8,1.8-1.8c0,0,0,0,0,0h39.3c1,0,1.8,0.8,1.8,1.8l0,0v7.9c0,1-0.8,1.8-1.8,1.8
	c0,0,0,0,0,0h-28.6v15.8h23.8c1,0,1.8,0.8,1.8,1.8v8c0,1-0.8,1.8-1.8,1.8l0,0h-23.8v16.9h28.6c1,0,1.8,0.8,1.8,1.8l0,0v7.9
	c0,1-0.8,1.8-1.8,1.8c0,0,0,0,0,0h-39.2c-1,0-1.8-0.8-1.8-1.8c0,0,0,0,0,0L201.8,161.1z"/>
<path class="st1" d="M262.1,160.1c0-1,0.9-1.8,1.8-1.7h1.4c0.6,0,1.2,0.2,1.6,0.7l39.4,42h0.2v-39.9c0-1,0.8-1.8,1.8-1.8h8.9
	c1,0,1.8,0.8,1.8,1.8v64.9c0,1-0.8,1.8-1.8,1.7h-1.4c-0.6,0-1.2-0.2-1.6-0.7l-39.6-43.6h-0.2V225c0,1-0.8,1.8-1.8,1.8c0,0,0,0,0,0
	h-8.8c-1,0-1.8-0.8-1.8-1.8V160.1z"/>
<path class="st1" d="M340.2,161.1c0-1,0.8-1.8,1.8-1.8h39.3c1,0,1.8,0.8,1.8,1.8v7.9c0,1-0.8,1.8-1.8,1.8c0,0,0,0,0,0h-28.6v15.8
	h23.9c1,0,1.8,0.8,1.8,1.8v8c0,1-0.8,1.8-1.8,1.8h-23.9v16.9h28.6c1,0,1.8,0.8,1.8,1.8v7.9c0,1-0.8,1.8-1.8,1.8c0,0,0,0,0,0H342
	c-1,0-1.8-0.8-1.8-1.8c0,0,0,0,0,0L340.2,161.1z"/>
<path class="st1" d="M400.5,161.1c0-1,0.8-1.8,1.8-1.8c0,0,0,0,0,0h27.6c11.5-0.1,20.9,9.2,21,20.7c0,8.9-5.9,16.1-14.3,19.5
	l13.2,24.5c0.5,0.8,0.3,2-0.6,2.5c-0.3,0.2-0.7,0.3-1.1,0.3h-10.1c-0.6,0-1.2-0.3-1.5-0.9l-12.8-25.6h-10.7V225c0,1-0.8,1.8-1.8,1.8
	h-8.9c-1,0-1.8-0.8-1.8-1.8c0,0,0,0,0,0L400.5,161.1z M428.9,190.1c5.3-0.2,9.6-4.5,9.5-9.9c-0.1-5.2-4.4-9.3-9.5-9.4h-15.7v19.2
	L428.9,190.1z"/>
<path class="st1" d="M460.9,224.3l30-64.9c0.3-0.7,0.9-1.1,1.6-1.1h1c0.7,0,1.4,0.4,1.6,1.1l29.7,64.9c0.4,0.8,0.1,1.9-0.7,2.3
	c-0.3,0.2-0.6,0.2-0.9,0.2h-8.4c-1.5,0-2.1-0.6-2.8-1.9l-4.7-10.4h-28.9l-4.7,10.4c-0.4,1.2-1.6,1.9-2.8,1.9h-8.4
	c-0.9,0.1-1.8-0.6-1.8-1.6C460.7,224.9,460.7,224.6,460.9,224.3z M502.6,203.8l-9.6-21.2h-0.4l-9.5,21.2H502.6z"/>
<path class="st1" d="M544.6,170.9h-14.8c-1,0-1.8-0.8-1.8-1.8c0,0,0,0,0,0v-7.9c0-1,0.8-1.8,1.8-1.8c0,0,0,0,0,0H572
	c1,0,1.8,0.8,1.8,1.8v0v7.9c0,1-0.8,1.8-1.8,1.8c0,0,0,0,0,0h-14.8V225c0,1-0.8,1.8-1.8,1.8h-9c-1,0-1.8-0.8-1.8-1.8L544.6,170.9z"
	/>
<path class="st1" d="M589.2,161.1c0-1,0.8-1.8,1.8-1.8h9c1,0,1.8,0.8,1.8,1.8V225c0,1-0.8,1.8-1.8,1.8h-9c-1,0-1.8-0.8-1.8-1.8
	V161.1z"/>
<path class="st1" d="M614.8,161.8c-0.4-0.8-0.1-1.9,0.7-2.3c0.3-0.2,0.6-0.2,0.9-0.2h9.8c0.7,0,1.4,0.4,1.6,1.1l18.6,41.5h0.5
	l18.6-41.5c0.3-0.7,0.9-1.1,1.6-1.1h9.8c0.9-0.1,1.8,0.6,1.8,1.5c0,0.3,0,0.7-0.2,1l-29.9,64.9c-0.3,0.7-0.9,1.1-1.6,1.1h-1
	c-0.7,0-1.4-0.4-1.6-1.1L614.8,161.8z"/>
<path class="st1" d="M678,224.3l30-64.9c0.3-0.7,0.9-1.1,1.7-1.1h1c0.7,0,1.4,0.4,1.6,1.1l29.7,64.9c0.4,0.8,0.1,1.9-0.7,2.3
	c-0.3,0.2-0.6,0.2-0.9,0.2h-8.4c-1.5,0-2.1-0.6-2.8-1.9l-4.7-10.4h-28.8l-4.7,10.4c-0.4,1.2-1.6,1.9-2.8,1.9h-8.4
	c-0.9,0.1-1.8-0.6-1.9-1.5C677.7,225,677.8,224.6,678,224.3z M719.6,203.8l-9.6-21.2h-0.3l-9.5,21.2H719.6z"/>
<path class="st0" d="M0.1,240.3c0-1,0.8-1.8,1.8-1.8c0,0,0,0,0,0h27.6c11.5-0.1,20.9,9.2,21,20.7c0,8.9-5.9,16.1-14.3,19.5
	l13.2,24.5c0.5,0.9,0.3,2-0.6,2.5c-0.3,0.2-0.7,0.3-1.1,0.3H37.8c-0.6,0-1.2-0.3-1.5-0.9l-12.8-25.6H12.7v24.6c0,1-0.8,1.8-1.8,1.8
	H2c-1,0-1.8-0.8-1.8-1.8c0,0,0,0,0,0V240.3z M28.5,269.3c5.3-0.2,9.6-4.5,9.5-9.8c-0.1-5.2-4.4-9.3-9.5-9.4H12.8v19.2L28.5,269.3z"
	/>
<path class="st0" d="M68.5,240.3c0-1,0.8-1.8,1.8-1.8l0,0h39.3c1,0,1.8,0.8,1.8,1.8l0,0v7.9c0,1-0.8,1.8-1.8,1.8H81.1v15.8h23.8
	c1,0,1.8,0.8,1.8,1.8v8c0,1-0.8,1.8-1.8,1.8H81.1v16.9h28.6c1,0,1.8,0.8,1.8,1.8v7.9c0,1-0.8,1.8-1.8,1.8c0,0,0,0,0,0H70.4
	c-1,0-1.8-0.8-1.8-1.8c0,0,0,0,0,0L68.5,240.3z"/>
<path class="st0" d="M158.5,237.5c8.7,0.1,17,3.3,23.5,9c0.8,0.7,0.8,1.9,0.2,2.6c0,0,0,0.1-0.1,0.1l-6,6.3
	c-0.6,0.7-1.6,0.8-2.3,0.2c-0.1-0.1-0.1-0.1-0.2-0.2c-4-3.6-9.2-5.6-14.6-5.6c-12.1,0-21.6,10.3-21.6,22.4
	c0,12.1,9.7,21.9,21.7,22.1c4,0,7.9-0.9,11.5-2.4v-8.2h-7.7c-1,0-1.8-0.7-1.8-1.7c0,0,0,0,0-0.1v-7.6c0-1,0.7-1.8,1.7-1.8
	c0,0,0.1,0,0.1,0h18.5c1,0,1.8,0.8,1.7,1.8V299c0,0.6-0.3,1.2-0.8,1.5c-7.3,4.1-15.5,6.3-23.9,6.3c-19.2-0.3-34.4-16.1-34.1-35.3
	C124.7,252.9,139.8,237.8,158.5,237.5L158.5,237.5z"/>
<path class="st0" d="M201.8,240.3c0-1,0.8-1.8,1.8-1.8l0,0h39.3c1,0,1.8,0.8,1.8,1.8l0,0v7.9c0,1-0.8,1.8-1.8,1.8h-28.6v15.8h23.8
	c1,0,1.8,0.8,1.8,1.8v8c0,1-0.8,1.8-1.8,1.8h-23.8v16.9h28.6c1,0,1.8,0.8,1.8,1.8v7.9c0,1-0.8,1.8-1.8,1.8c0,0,0,0,0,0h-39.2
	c-1,0-1.8-0.8-1.8-1.8c0,0,0,0,0,0L201.8,240.3z"/>
<path class="st0" d="M262.1,239.2c0-1,0.9-1.7,1.8-1.7h1.4c0.6,0,1.2,0.2,1.6,0.7l39.4,42h0.2v-39.8c0-1,0.8-1.8,1.8-1.8h8.9
	c1,0,1.8,0.8,1.8,1.8v64.9c0,1-0.9,1.7-1.8,1.7h-1.4c-0.6,0-1.2-0.2-1.6-0.7l-39.6-43.6h-0.2v41.5c0,1-0.8,1.8-1.8,1.8c0,0,0,0,0,0
	h-8.8c-1,0-1.8-0.8-1.8-1.8V239.2z"/>
<path class="st0" d="M340.2,240.3c0-1,0.8-1.8,1.8-1.8h39.3c1,0,1.8,0.8,1.8,1.8v7.9c0,1-0.8,1.8-1.8,1.8h-28.6v15.8h23.9
	c1,0,1.8,0.8,1.8,1.8v8c0,1-0.8,1.8-1.8,1.8h-23.9v16.9h28.6c1,0,1.8,0.8,1.8,1.8v7.9c0,1-0.8,1.8-1.8,1.8c0,0,0,0,0,0H342
	c-1,0-1.8-0.8-1.8-1.8c0,0,0,0,0,0L340.2,240.3z"/>
<path class="st0" d="M400.5,240.3c0-1,0.8-1.8,1.8-1.8c0,0,0,0,0,0h27.6c11.5-0.1,20.9,9.2,21,20.7c0,8.9-5.9,16.1-14.3,19.5
	l13.2,24.5c0.5,0.9,0.3,2-0.6,2.5c-0.3,0.2-0.7,0.3-1.1,0.3h-10.1c-0.6,0-1.2-0.3-1.5-0.9l-12.8-25.6h-10.7v24.6
	c0,1-0.8,1.8-1.8,1.8h-8.9c-1,0-1.8-0.8-1.8-1.8c0,0,0,0,0,0L400.5,240.3z M428.9,269.3c5.3-0.2,9.6-4.5,9.5-9.8
	c-0.1-5.2-4.4-9.3-9.5-9.4h-15.7v19.2L428.9,269.3z"/>
<path class="st0" d="M460.9,303.5l30-64.9c0.3-0.7,0.9-1.1,1.6-1.1h1c0.7,0,1.4,0.4,1.6,1.1l29.7,64.9c0.5,0.8,0.1,1.9-0.7,2.3
	c-0.3,0.2-0.6,0.2-1,0.2h-8.4c-1.5,0-2.1-0.6-2.8-1.9l-4.7-10.4h-28.9l-4.7,10.4c-0.4,1.2-1.5,2-2.8,1.9h-8.4
	c-0.9,0.1-1.8-0.6-1.8-1.5C460.7,304.1,460.7,303.8,460.9,303.5z M502.6,282.9l-9.6-21.2h-0.4l-9.5,21.2H502.6z"/>
<path class="st0" d="M544.6,250h-14.8c-1,0-1.8-0.8-1.8-1.8c0,0,0,0,0,0v-7.9c0-1,0.8-1.8,1.8-1.8c0,0,0,0,0,0H572
	c1,0,1.8,0.8,1.8,1.8v0v7.9c0,1-0.8,1.8-1.8,1.8l0,0h-14.8v54.1c0,1-0.8,1.8-1.8,1.8h-9c-1,0-1.8-0.8-1.8-1.8L544.6,250z"/>
<path class="st0" d="M589.2,240.3c0-1,0.8-1.8,1.8-1.8h9c1,0,1.8,0.8,1.8,1.8v63.9c0,1-0.8,1.8-1.8,1.8h-9c-1,0-1.8-0.8-1.8-1.8
	V240.3z"/>
<path class="st0" d="M614.8,240.9c-0.4-0.8-0.1-1.9,0.7-2.3c0.3-0.2,0.6-0.2,0.9-0.2h9.8c0.7,0,1.4,0.4,1.6,1.1l18.6,41.5h0.5
	l18.6-41.5c0.3-0.7,0.9-1.1,1.6-1.1h9.8c0.9-0.1,1.8,0.6,1.8,1.5c0,0.3,0,0.7-0.2,1l-29.9,64.9c-0.3,0.7-0.9,1.1-1.6,1.1h-1
	c-0.7,0-1.4-0.4-1.6-1.1L614.8,240.9z"/>
<path class="st0" d="M678,303.5l30-64.9c0.3-0.7,0.9-1.1,1.6-1.1h1c0.7-0.1,1.4,0.4,1.6,1.1l29.7,64.9c0.5,0.8,0.1,1.9-0.7,2.3
	c-0.3,0.2-0.6,0.2-1,0.2h-8.4c-1.5,0-2.1-0.6-2.8-1.9l-4.7-10.4h-28.9l-4.7,10.4c-0.4,1.2-1.5,2-2.8,1.9h-8.4
	c-0.9,0.1-1.8-0.6-1.9-1.5C677.7,304.1,677.8,303.8,678,303.5z M719.6,282.9l-9.6-21.2h-0.3l-9.5,21.2H719.6z"/>
</svg>
