<?xml version="1.0" encoding="utf-8"?>
<!-- Generator: Adobe Illustrator 26.0.3, SVG Export Plug-In . SVG Version: 6.00 Build 0)  -->
<svg version="1.1" id="Capa_1" xmlns="http://www.w3.org/2000/svg" xmlns:xlink="http://www.w3.org/1999/xlink" x="0px" y="0px"
	 viewBox="0 0 742.2 386.2" style="enable-background:new 0 0 742.2 386.2;" xml:space="preserve">
<style type="text/css">
	.st0{fill:#FFFFFF;}
</style>
<g>
	<path class="st0" d="M0.1,95.6c0-1.1,0.9-2,2-2h30.5c12.8,0,23.3,10.3,23.3,23c0,9.8-6.5,17.8-15.8,21.6l14.6,27.1
		c0.7,1.4,0,3.1-1.8,3.1H41.7c-1,0-1.5-0.5-1.7-1l-14.2-28.3H13.9v27.2c0,1.1-1,2-2,2H2.1c-1.2,0-2-1-2-2V95.6z M31.5,127.7
		c5.7,0,10.6-4.9,10.6-10.9c0-5.7-4.9-10.4-10.6-10.4H14.1v21.3H31.5z"/>
	<path class="st0" d="M68.5,95.6c0-1.1,0.9-2,2-2H114c1.2,0,2,1,2,2v8.8c0,1.1-0.9,2-2,2H82.4v17.5h26.4c1.1,0,2,1,2,2v8.9
		c0,1.2-1,2-2,2H82.4v18.7H114c1.2,0,2,1,2,2v8.8c0,1.1-0.9,2-2,2H70.5c-1.2,0-2-1-2-2V95.6z"/>
	<path class="st0" d="M160.7,92.5c9.6,0,18.8,3.7,26.1,9.9c0.9,0.9,1,2.1,0.1,3l-6.6,6.9c-0.9,0.9-1.8,0.9-2.8,0
		c-4.6-4.1-10.3-6.2-16.1-6.2c-13.4,0-23.9,11.4-23.9,24.8c0,13.2,10.6,24.5,24,24.5c6,0,10.6-1.8,12.7-2.7v-9.1h-8.5
		c-1.2,0-2-0.9-2-1.9v-8.4c0-1.2,0.9-2,2-2h20.5c1.1,0,1.9,1,1.9,2v27.3c0,0.9-0.4,1.4-0.9,1.7c0,0-11,6.9-26.5,6.9
		c-21.3,0-38.3-16.9-38.3-38.2S139.5,92.5,160.7,92.5z"/>
	<path class="st0" d="M202.2,95.6c0-1.1,0.9-2,2-2h43.5c1.2,0,2,1,2,2v8.8c0,1.1-0.9,2-2,2h-31.6v17.5h26.4c1.1,0,2,1,2,2v8.9
		c0,1.2-1,2-2,2h-26.4v18.7h31.6c1.2,0,2,1,2,2v8.8c0,1.1-0.9,2-2,2h-43.5c-1.2,0-2-1-2-2V95.6z"/>
	<path class="st0" d="M262.4,94.4c0-1.1,1-1.9,2-1.9h1.6c0.7,0,1.3,0.2,1.8,0.7l43.6,46.5h0.2V95.6c0-1.1,0.9-2,2-2h9.8
		c1.1,0,2,1,2,2v71.9c0,1.1-1,1.9-2,1.9H322c-0.7,0-1.3-0.2-1.8-0.7l-43.8-48.3h-0.2v45.9c0,1.1-0.9,2-2,2h-9.7c-1.1,0-2-1-2-2V94.4
		z"/>
	<path class="st0" d="M341.8,95.6c0-1.1,0.9-2,2-2h43.5c1.2,0,2,1,2,2v8.8c0,1.1-0.9,2-2,2h-31.6v17.5h26.4c1.1,0,2,1,2,2v8.9
		c0,1.2-1,2-2,2h-26.4v18.7h31.6c1.2,0,2,1,2,2v8.8c0,1.1-0.9,2-2,2h-43.5c-1.2,0-2-1-2-2V95.6z"/>
	<path class="st0" d="M402,95.6c0-1.1,0.9-2,2-2h30.5c12.8,0,23.3,10.3,23.3,23c0,9.8-6.5,17.8-15.8,21.6l14.6,27.1
		c0.7,1.4,0,3.1-1.8,3.1h-11.2c-1,0-1.5-0.5-1.7-1l-14.2-28.3h-11.9v27.2c0,1.1-1,2-2,2H404c-1.2,0-2-1-2-2V95.6z M433.4,127.7
		c5.7,0,10.6-4.9,10.6-10.9c0-5.7-4.9-10.4-10.6-10.4H416v21.3H433.4z"/>
	<path class="st0" d="M463.3,165.6l33.2-71.9c0.3-0.6,0.9-1.2,1.8-1.2h1.1c1.1,0,1.5,0.5,1.8,1.2l32.9,71.9c0.6,1.4-0.2,2.8-1.8,2.8
		H523c-1.6,0-2.3-0.6-3.1-2.1l-5.2-11.5h-31.9l-5.2,11.5c-0.4,1.1-1.4,2.1-3.1,2.1h-9.3C463.5,168.4,462.6,167,463.3,165.6z
		 M509.4,142.8l-10.7-23.5h-0.3l-10.5,23.5H509.4z"/>
	<path class="st0" d="M547,106.4h-16.3c-1.2,0-2-1-2-2v-8.8c0-1.1,0.9-2,2-2h46.7c1.2,0,2,1,2,2v8.8c0,1.1-0.9,2-2,2H561v59.9
		c0,1.1-1,2-2,2H549c-1.1,0-2-1-2-2V106.4z"/>
	<path class="st0" d="M587.8,95.6c0-1.1,1-2,2-2h9.9c1.1,0,2,1,2,2v70.7c0,1.1-1,2-2,2h-9.9c-1.1,0-2-1-2-2V95.6z"/>
	<path class="st0" d="M609.1,96.4c-0.6-1.4,0.2-2.8,1.8-2.8h10.9c1,0,1.6,0.6,1.8,1.2l20.6,45.9h0.5l20.6-45.9
		c0.2-0.5,0.9-1.2,1.8-1.2h10.9c1.6,0,2.5,1.4,1.8,2.8l-33.1,71.9c-0.3,0.6-0.9,1.2-1.8,1.2h-1.1c-1,0-1.5-0.5-1.8-1.2L609.1,96.4z"
		/>
	<path class="st0" d="M671.1,165.6l33.2-71.9c0.3-0.6,0.9-1.2,1.8-1.2h1.1c1.1,0,1.5,0.5,1.8,1.2l32.9,71.9c0.6,1.4-0.2,2.8-1.8,2.8
		h-9.3c-1.6,0-2.3-0.6-3.1-2.1l-5.2-11.5h-31.9l-5.2,11.5c-0.4,1.1-1.4,2.1-3.1,2.1h-9.3C671.3,168.4,670.5,167,671.1,165.6z
		 M717.3,142.8l-10.7-23.5h-0.3l-10.5,23.5H717.3z"/>
</g>
<g>
	<path class="st0" d="M32.6,186.9c12.4,0,22.5,10,22.5,22.2c0,9.1-5.9,17.1-15.3,20.9l-0.8,0.3l0.4,0.7l14.6,27.1
		c0.3,0.5,0.3,1,0,1.4c-0.2,0.4-0.6,0.6-1.2,0.6H41.7c-0.7,0-1-0.4-1-0.6l-14.2-28.3l-0.2-0.4h-0.5H13.9h-0.7v0.7v27.2
		c0,0.7-0.6,1.3-1.3,1.3H2.1c-0.8,0-1.3-0.7-1.3-1.3v-70.7c0-0.6,0.5-1.3,1.3-1.3H32.6 M13.3,220.9h0.7h17.4
		c6.1,0,11.3-5.3,11.3-11.6c0-6-5.2-11.1-11.3-11.1H14.1h-0.7v0.7v21.3V220.9 M32.6,186.1H2.1c-1.2,0-2,1-2,2v70.7c0,1.1,0.9,2,2,2
		h9.8c1.1,0,2-1,2-2v-27.2h11.9L40,259.9c0.2,0.4,0.7,1,1.7,1h11.2c1.8,0,2.6-1.7,1.8-3.1l-14.6-27.1c9.3-3.7,15.8-11.7,15.8-21.6
		C55.9,196.4,45.5,186.1,32.6,186.1L32.6,186.1z M14.1,220.2v-21.3h17.4c5.7,0,10.6,4.7,10.6,10.4c0,6-4.9,10.9-10.6,10.9H14.1
		L14.1,220.2z"/>
	<path class="st0" d="M114,186.9c0.8,0,1.3,0.7,1.3,1.3v8.8c0,0.6-0.5,1.3-1.3,1.3H82.4h-0.7v0.7v17.5v0.7h0.7h26.4
		c0.7,0,1.3,0.6,1.3,1.3v8.9c0,0.8-0.7,1.3-1.3,1.3H82.4h-0.7v0.7v18.7v0.7h0.7H114c0.8,0,1.3,0.7,1.3,1.3v8.8
		c0,0.6-0.5,1.3-1.3,1.3H70.5c-0.8,0-1.3-0.7-1.3-1.3v-70.7c0-0.6,0.5-1.3,1.3-1.3H114 M114,186.1H70.5c-1.2,0-2,1-2,2v70.7
		c0,1.1,0.9,2,2,2H114c1.2,0,2-1,2-2v-8.8c0-1.1-0.9-2-2-2H82.4v-18.7h26.4c1.1,0,2-0.9,2-2v-8.9c0-1.1-1-2-2-2H82.4v-17.5H114
		c1.2,0,2-1,2-2v-8.8C116,187.1,115.2,186.1,114,186.1L114,186.1z"/>
	<path class="st0" d="M160.7,185.8c9.1,0,18.2,3.5,25.6,9.7c0.5,0.5,0.7,1.3,0.1,1.9l-6.6,6.9c-0.3,0.3-0.6,0.4-0.8,0.4
		c-0.3,0-0.6-0.2-0.9-0.5c-4.7-4.2-10.5-6.4-16.6-6.4c-6.6,0-12.8,2.7-17.5,7.6c-4.6,4.8-7.2,11.2-7.2,17.9
		c0,13.9,11.1,25.2,24.8,25.2c6.2,0,10.9-1.9,13-2.7l0.5-0.2v-0.5v-9.1v-0.7h-0.7h-8.5c-0.7,0-1.3-0.5-1.3-1.2v-8.4
		c0-0.8,0.5-1.3,1.3-1.3h20.5c0.6,0,1.2,0.6,1.2,1.3v27.3c0,0.5-0.2,0.8-0.5,1.1c-0.6,0.4-11.3,6.8-26.1,6.8
		c-10.1,0-19.6-3.9-26.6-10.9c-7.1-7-11-16.5-11-26.6c0-10.1,3.9-19.6,11-26.8C141.2,189.7,150.6,185.8,160.7,185.8 M160.7,185
		c-21.3,0-38.3,17.2-38.3,38.6s17.1,38.2,38.3,38.2c15.5,0,26.5-6.9,26.5-6.9c0.4-0.3,0.9-0.9,0.9-1.7v-27.3c0-1.1-0.9-2-1.9-2
		h-20.5c-1.2,0-2,0.9-2,2v8.4c0,1.1,0.9,1.9,2,1.9h8.5v9.1c-2.1,0.9-6.7,2.7-12.7,2.7c-13.5,0-24-11.2-24-24.5
		c0-13.4,10.6-24.8,23.9-24.8c5.9,0,11.5,2.1,16.1,6.2c0.5,0.4,1,0.6,1.4,0.6c0.5,0,0.9-0.2,1.3-0.6l6.6-6.9c0.9-0.9,0.7-2.1-0.1-3
		C179.5,188.8,170.3,185,160.7,185L160.7,185z"/>
	<path class="st0" d="M247.7,186.9c0.8,0,1.3,0.7,1.3,1.3v8.8c0,0.6-0.5,1.3-1.3,1.3h-31.6h-0.7v0.7v17.5v0.7h0.7h26.4
		c0.7,0,1.3,0.6,1.3,1.3v8.9c0,0.8-0.7,1.3-1.3,1.3h-26.4h-0.7v0.7v18.7v0.7h0.7h31.6c0.8,0,1.3,0.7,1.3,1.3v8.8
		c0,0.6-0.5,1.3-1.3,1.3h-43.5c-0.8,0-1.3-0.7-1.3-1.3v-70.7c0-0.6,0.5-1.3,1.3-1.3H247.7 M247.7,186.1h-43.5c-1.2,0-2,1-2,2v70.7
		c0,1.1,0.9,2,2,2h43.5c1.2,0,2-1,2-2v-8.8c0-1.1-0.9-2-2-2h-31.6v-18.7h26.4c1.1,0,2-0.9,2-2v-8.9c0-1.1-1-2-2-2h-26.4v-17.5h31.6
		c1.2,0,2-1,2-2v-8.8C249.8,187.1,248.9,186.1,247.7,186.1L247.7,186.1z"/>
	<path class="st0" d="M266,185.8c0.6,0,0.9,0.1,1.3,0.5l43.6,46.5l0.2,0.2h0.3h0.2h0.7v-0.7v-44.1c0-0.6,0.5-1.3,1.3-1.3h9.8
		c0.7,0,1.3,0.6,1.3,1.3V260c0,0.6-0.6,1.2-1.3,1.2H322c-0.6,0-0.9-0.1-1.3-0.5L277,212.4l-0.2-0.2h-0.3h-0.2h-0.7v0.7v45.9
		c0,0.6-0.5,1.3-1.3,1.3h-9.7c-0.7,0-1.3-0.6-1.3-1.3V187c0-0.6,0.6-1.2,1.3-1.2H266 M266,185h-1.6c-1.1,0-2,0.9-2,1.9v71.9
		c0,1.1,1,2,2,2h9.7c1.2,0,2-1,2-2v-45.9h0.2l43.8,48.3c0.5,0.5,1.1,0.7,1.8,0.7h1.5c1.1,0,2-0.9,2-1.9v-71.9c0-1.1-1-2-2-2h-9.8
		c-1.2,0-2,1-2,2v44.1h-0.2l-43.6-46.5C267.3,185.3,266.8,185,266,185L266,185z"/>
	<path class="st0" d="M387.3,186.9c0.8,0,1.3,0.7,1.3,1.3v8.8c0,0.6-0.5,1.3-1.3,1.3h-31.6H355v0.7v17.5v0.7h0.7h26.4
		c0.7,0,1.3,0.6,1.3,1.3v8.9c0,0.8-0.7,1.3-1.3,1.3h-26.4H355v0.7v18.7v0.7h0.7h31.6c0.8,0,1.3,0.7,1.3,1.3v8.8
		c0,0.6-0.5,1.3-1.3,1.3h-43.5c-0.8,0-1.3-0.7-1.3-1.3v-70.7c0-0.6,0.5-1.3,1.3-1.3H387.3 M387.3,186.1h-43.5c-1.2,0-2,1-2,2v70.7
		c0,1.1,0.9,2,2,2h43.5c1.2,0,2-1,2-2v-8.8c0-1.1-0.9-2-2-2h-31.6v-18.7h26.4c1.1,0,2-0.9,2-2v-8.9c0-1.1-1-2-2-2h-26.4v-17.5h31.6
		c1.2,0,2-1,2-2v-8.8C389.3,187.1,388.5,186.1,387.3,186.1L387.3,186.1z"/>
	<path class="st0" d="M434.6,186.9c12.4,0,22.5,10,22.5,22.2c0,9.1-5.9,17.1-15.3,20.9l-0.8,0.3l0.4,0.7l14.6,27.1
		c0.3,0.5,0.3,1,0,1.4c-0.2,0.4-0.6,0.6-1.2,0.6h-11.2c-0.7,0-1-0.4-1-0.6l-14.2-28.3l-0.2-0.4h-0.5h-11.9h-0.7v0.7v27.2
		c0,0.7-0.6,1.3-1.3,1.3H404c-0.8,0-1.3-0.7-1.3-1.3v-70.7c0-0.6,0.5-1.3,1.3-1.3H434.6 M415.2,220.9h0.7h17.4
		c6.1,0,11.3-5.3,11.3-11.6c0-6-5.2-11.1-11.3-11.1H416h-0.7v0.7v21.3V220.9 M434.6,186.1H404c-1.2,0-2,1-2,2v70.7c0,1.1,0.9,2,2,2
		h9.8c1.1,0,2-1,2-2v-27.2h11.9l14.2,28.3c0.2,0.4,0.7,1,1.7,1h11.2c1.8,0,2.6-1.7,1.8-3.1l-14.6-27.1c9.3-3.7,15.8-11.7,15.8-21.6
		C457.9,196.4,447.4,186.1,434.6,186.1L434.6,186.1z M416,220.2v-21.3h17.4c5.7,0,10.6,4.7,10.6,10.4c0,6-4.9,10.9-10.6,10.9H416
		L416,220.2z"/>
	<path class="st0" d="M499.4,185.8c0.7,0,0.9,0.2,1.1,0.7l32.9,71.9c0.2,0.4,0.2,0.9,0,1.2c-0.2,0.3-0.6,0.5-1.1,0.5H523
		c-1.2,0-1.8-0.4-2.4-1.7l-5.2-11.5l-0.2-0.4h-0.5h-31.9h-0.5l-0.2,0.4l-5.2,11.6c-0.2,0.6-0.9,1.7-2.4,1.7h-9.3
		c-0.5,0-0.9-0.2-1.1-0.5c-0.2-0.3-0.2-0.8,0-1.2l33.2-71.9c0.3-0.5,0.6-0.8,1.2-0.8H499.4 M486.8,236.1h1.1h21.5h1.2l-0.5-1.1
		l-10.7-23.5l-0.2-0.4h-0.5h-0.3h-0.5l-0.2,0.4l-10.5,23.5L486.8,236.1 M499.4,185h-1.1c-1,0-1.5,0.5-1.8,1.2l-33.2,71.9
		c-0.6,1.4,0.2,2.8,1.8,2.8h9.3c1.7,0,2.7-1.1,3.1-2.1l5.2-11.5h31.9l5.2,11.5c0.7,1.5,1.5,2.1,3.1,2.1h9.3c1.6,0,2.5-1.4,1.8-2.8
		l-32.9-71.9C500.9,185.6,500.4,185,499.4,185L499.4,185z M487.9,235.4l10.5-23.5h0.3l10.7,23.5H487.9L487.9,235.4z"/>
	<path class="st0" d="M577.3,186.9c0.8,0,1.3,0.7,1.3,1.3v8.8c0,0.6-0.5,1.3-1.3,1.3H561h-0.7v0.7v59.9c0,0.7-0.6,1.3-1.3,1.3H549
		c-0.7,0-1.3-0.6-1.3-1.3v-59.9v-0.7H547h-16.3c-0.8,0-1.3-0.7-1.3-1.3v-8.8c0-0.6,0.5-1.3,1.3-1.3H577.3 M577.3,186.1h-46.7
		c-1.2,0-2,1-2,2v8.8c0,1.1,0.9,2,2,2H547v59.9c0,1.1,1,2,2,2h9.9c1.1,0,2-1,2-2v-59.9h16.3c1.2,0,2-1,2-2v-8.8
		C579.3,187.1,578.5,186.1,577.3,186.1L577.3,186.1z"/>
	<path class="st0" d="M599.7,186.9c0.7,0,1.3,0.6,1.3,1.3v70.7c0,0.7-0.6,1.3-1.3,1.3h-9.9c-0.7,0-1.3-0.6-1.3-1.3v-70.7
		c0-0.7,0.6-1.3,1.3-1.3H599.7 M599.7,186.1h-9.9c-1.1,0-2,1-2,2v70.7c0,1.1,1,2,2,2h9.9c1.1,0,2-1,2-2v-70.7
		C601.8,187.1,600.8,186.1,599.7,186.1L599.7,186.1z"/>
	<path class="st0" d="M678.1,186.9c0.5,0,0.9,0.2,1.1,0.5c0.2,0.3,0.2,0.8,0,1.2l-33.1,71.9c-0.3,0.5-0.6,0.8-1.2,0.8h-1.1
		c-0.5,0-0.9-0.2-1.1-0.7l-33-71.9c-0.2-0.4-0.2-0.9,0-1.2c0.2-0.3,0.6-0.5,1.1-0.5h10.9c0.6,0,1,0.4,1.1,0.7l20.6,45.9l0.2,0.4h0.5
		h0.5h0.5l0.2-0.4l20.6-46c0.1-0.3,0.5-0.7,1.1-0.7H678.1 M678.1,186.1h-10.9c-1,0-1.6,0.6-1.8,1.2l-20.6,45.9h-0.5l-20.6-45.9
		c-0.2-0.5-0.9-1.2-1.8-1.2h-10.9c-1.6,0-2.5,1.4-1.8,2.8l33,71.9c0.3,0.6,0.9,1.2,1.8,1.2h1.1c1,0,1.5-0.5,1.8-1.2l33.1-71.9
		C680.5,187.5,679.7,186.1,678.1,186.1L678.1,186.1z"/>
	<path class="st0" d="M707.2,185.8c0.7,0,0.9,0.2,1.1,0.7l32.9,71.9c0.2,0.4,0.2,0.9,0,1.2c-0.2,0.3-0.6,0.5-1.1,0.5h-9.3
		c-1.2,0-1.8-0.4-2.4-1.7l-5.2-11.5l-0.2-0.4h-0.5h-31.9h-0.5l-0.2,0.4l-5.2,11.6c-0.2,0.6-0.9,1.7-2.4,1.7h-9.3
		c-0.5,0-0.9-0.2-1.1-0.5c-0.2-0.3-0.2-0.8,0-1.2l33.2-71.9c0.3-0.5,0.6-0.8,1.2-0.8H707.2 M694.6,236.1h1.1h21.5h1.2l-0.5-1.1
		l-10.7-23.5l-0.2-0.4h-0.5h-0.3h-0.5l-0.2,0.4l-10.5,23.5L694.6,236.1 M707.2,185h-1.1c-1,0-1.5,0.5-1.8,1.2l-33.2,71.9
		c-0.6,1.4,0.2,2.8,1.8,2.8h9.3c1.7,0,2.7-1.1,3.1-2.1l5.2-11.5h31.9l5.2,11.5c0.7,1.5,1.5,2.1,3.1,2.1h9.3c1.6,0,2.5-1.4,1.8-2.8
		L709,186.2C708.7,185.6,708.3,185,707.2,185L707.2,185z M695.8,235.4l10.5-23.5h0.3l10.7,23.5H695.8L695.8,235.4z"/>
</g>
<g>
	<path class="st0" d="M32.6,279.4c12.4,0,22.5,10,22.5,22.2c0,9.1-5.9,17.1-15.3,20.9l-0.8,0.3l0.4,0.7l14.6,27.1
		c0.3,0.5,0.3,1,0,1.4c-0.2,0.4-0.6,0.6-1.2,0.6H41.7c-0.7,0-1-0.4-1-0.6l-14.2-28.3l-0.2-0.4h-0.5H13.9h-0.7v0.7v27.2
		c0,0.7-0.6,1.3-1.3,1.3H2.1c-0.8,0-1.3-0.7-1.3-1.3v-70.7c0-0.6,0.5-1.3,1.3-1.3H32.6 M13.3,313.5h0.7h17.4
		c6.1,0,11.3-5.3,11.3-11.6c0-6-5.2-11.1-11.3-11.1H14.1h-0.7v0.7v21.3V313.5 M32.6,278.6H2.1c-1.2,0-2,1-2,2v70.7c0,1.1,0.9,2,2,2
		h9.8c1.1,0,2-1,2-2v-27.2h11.9L40,352.4c0.2,0.4,0.7,1,1.7,1h11.2c1.8,0,2.6-1.7,1.8-3.1l-14.6-27.1c9.3-3.7,15.8-11.7,15.8-21.6
		C55.9,288.9,45.5,278.6,32.6,278.6L32.6,278.6z M14.1,312.7v-21.3h17.4c5.7,0,10.6,4.7,10.6,10.4c0,6-4.9,10.9-10.6,10.9H14.1
		L14.1,312.7z"/>
	<path class="st0" d="M114,279.4c0.8,0,1.3,0.7,1.3,1.3v8.8c0,0.6-0.5,1.3-1.3,1.3H82.4h-0.7v0.7V309v0.7h0.7h26.4
		c0.7,0,1.3,0.6,1.3,1.3v8.9c0,0.8-0.7,1.3-1.3,1.3H82.4h-0.7v0.7v18.7v0.7h0.7H114c0.8,0,1.3,0.7,1.3,1.3v8.8
		c0,0.6-0.5,1.3-1.3,1.3H70.5c-0.8,0-1.3-0.7-1.3-1.3v-70.7c0-0.6,0.5-1.3,1.3-1.3H114 M114,278.6H70.5c-1.2,0-2,1-2,2v70.7
		c0,1.1,0.9,2,2,2H114c1.2,0,2-1,2-2v-8.8c0-1.1-0.9-2-2-2H82.4v-18.7h26.4c1.1,0,2-0.9,2-2V311c0-1.1-1-2-2-2H82.4v-17.5H114
		c1.2,0,2-1,2-2v-8.8C116,279.6,115.2,278.6,114,278.6L114,278.6z"/>
	<path class="st0" d="M160.7,278.3c9.1,0,18.2,3.5,25.6,9.7c0.5,0.5,0.7,1.3,0.1,1.9l-6.6,6.9c-0.3,0.3-0.6,0.4-0.8,0.4
		c-0.3,0-0.6-0.2-0.9-0.5c-4.7-4.2-10.5-6.4-16.6-6.4c-6.6,0-12.8,2.7-17.5,7.6c-4.6,4.8-7.2,11.2-7.2,17.9
		c0,13.9,11.1,25.2,24.8,25.2c6.2,0,10.9-1.9,13-2.7l0.5-0.2v-0.5v-9.1V328h-0.7h-8.5c-0.7,0-1.3-0.5-1.3-1.2v-8.4
		c0-0.8,0.5-1.3,1.3-1.3h20.5c0.6,0,1.2,0.6,1.2,1.3v27.3c0,0.5-0.2,0.8-0.5,1.1c-0.6,0.4-11.3,6.8-26.1,6.8
		c-10.1,0-19.6-3.9-26.6-10.9c-7.1-7-11-16.5-11-26.6c0-10.1,3.9-19.6,11-26.8C141.2,282.2,150.6,278.3,160.7,278.3 M160.7,277.6
		c-21.3,0-38.3,17.2-38.3,38.6c0,21.4,17.1,38.2,38.3,38.2c15.5,0,26.5-6.9,26.5-6.9c0.4-0.3,0.9-0.9,0.9-1.7v-27.3
		c0-1.1-0.9-2-1.9-2h-20.5c-1.2,0-2,0.9-2,2v8.4c0,1.1,0.9,1.9,2,1.9h8.5v9.1c-2.1,0.9-6.7,2.7-12.7,2.7c-13.5,0-24-11.2-24-24.5
		c0-13.4,10.6-24.8,23.9-24.8c5.9,0,11.5,2.1,16.1,6.2c0.5,0.4,1,0.6,1.4,0.6c0.5,0,0.9-0.2,1.3-0.6l6.6-6.9c0.9-0.9,0.7-2.1-0.1-3
		C179.5,281.3,170.3,277.6,160.7,277.6L160.7,277.6z"/>
	<path class="st0" d="M247.7,279.4c0.8,0,1.3,0.7,1.3,1.3v8.8c0,0.6-0.5,1.3-1.3,1.3h-31.6h-0.7v0.7V309v0.7h0.7h26.4
		c0.7,0,1.3,0.6,1.3,1.3v8.9c0,0.8-0.7,1.3-1.3,1.3h-26.4h-0.7v0.7v18.7v0.7h0.7h31.6c0.8,0,1.3,0.7,1.3,1.3v8.8
		c0,0.6-0.5,1.3-1.3,1.3h-43.5c-0.8,0-1.3-0.7-1.3-1.3v-70.7c0-0.6,0.5-1.3,1.3-1.3H247.7 M247.7,278.6h-43.5c-1.2,0-2,1-2,2v70.7
		c0,1.1,0.9,2,2,2h43.5c1.2,0,2-1,2-2v-8.8c0-1.1-0.9-2-2-2h-31.6v-18.7h26.4c1.1,0,2-0.9,2-2V311c0-1.1-1-2-2-2h-26.4v-17.5h31.6
		c1.2,0,2-1,2-2v-8.8C249.8,279.6,248.9,278.6,247.7,278.6L247.7,278.6z"/>
	<path class="st0" d="M266,278.3c0.6,0,0.9,0.1,1.3,0.5l43.6,46.5l0.2,0.2h0.3h0.2h0.7v-0.7v-44.1c0-0.6,0.5-1.3,1.3-1.3h9.8
		c0.7,0,1.3,0.6,1.3,1.3v71.9c0,0.6-0.6,1.2-1.3,1.2H322c-0.6,0-0.9-0.1-1.3-0.5L277,305l-0.2-0.2h-0.3h-0.2h-0.7v0.7v45.9
		c0,0.6-0.5,1.3-1.3,1.3h-9.7c-0.7,0-1.3-0.6-1.3-1.3v-71.9c0-0.6,0.6-1.2,1.3-1.2H266 M266,277.6h-1.6c-1.1,0-2,0.9-2,1.9v71.9
		c0,1.1,1,2,2,2h9.7c1.2,0,2-1,2-2v-45.9h0.2l43.8,48.3c0.5,0.5,1.1,0.7,1.8,0.7h1.5c1.1,0,2-0.9,2-1.9v-71.9c0-1.1-1-2-2-2h-9.8
		c-1.2,0-2,1-2,2v44.1h-0.2l-43.6-46.5C267.3,277.8,266.8,277.6,266,277.6L266,277.6z"/>
	<path class="st0" d="M387.3,279.4c0.8,0,1.3,0.7,1.3,1.3v8.8c0,0.6-0.5,1.3-1.3,1.3h-31.6H355v0.7V309v0.7h0.7h26.4
		c0.7,0,1.3,0.6,1.3,1.3v8.9c0,0.8-0.7,1.3-1.3,1.3h-26.4H355v0.7v18.7v0.7h0.7h31.6c0.8,0,1.3,0.7,1.3,1.3v8.8
		c0,0.6-0.5,1.3-1.3,1.3h-43.5c-0.8,0-1.3-0.7-1.3-1.3v-70.7c0-0.6,0.5-1.3,1.3-1.3H387.3 M387.3,278.6h-43.5c-1.2,0-2,1-2,2v70.7
		c0,1.1,0.9,2,2,2h43.5c1.2,0,2-1,2-2v-8.8c0-1.1-0.9-2-2-2h-31.6v-18.7h26.4c1.1,0,2-0.9,2-2V311c0-1.1-1-2-2-2h-26.4v-17.5h31.6
		c1.2,0,2-1,2-2v-8.8C389.3,279.6,388.5,278.6,387.3,278.6L387.3,278.6z"/>
	<path class="st0" d="M434.6,279.4c12.4,0,22.5,10,22.5,22.2c0,9.1-5.9,17.1-15.3,20.9l-0.8,0.3l0.4,0.7l14.6,27.1
		c0.3,0.5,0.3,1,0,1.4c-0.2,0.4-0.6,0.6-1.2,0.6h-11.2c-0.7,0-1-0.4-1-0.6l-14.2-28.3l-0.2-0.4h-0.5h-11.9h-0.7v0.7v27.2
		c0,0.7-0.6,1.3-1.3,1.3H404c-0.8,0-1.3-0.7-1.3-1.3v-70.7c0-0.6,0.5-1.3,1.3-1.3H434.6 M415.2,313.5h0.7h17.4
		c6.1,0,11.3-5.3,11.3-11.6c0-6-5.2-11.1-11.3-11.1H416h-0.7v0.7v21.3V313.5 M434.6,278.6H404c-1.2,0-2,1-2,2v70.7c0,1.1,0.9,2,2,2
		h9.8c1.1,0,2-1,2-2v-27.2h11.9l14.2,28.3c0.2,0.4,0.7,1,1.7,1h11.2c1.8,0,2.6-1.7,1.8-3.1l-14.6-27.1c9.3-3.7,15.8-11.7,15.8-21.6
		C457.9,288.9,447.4,278.6,434.6,278.6L434.6,278.6z M416,312.7v-21.3h17.4c5.7,0,10.6,4.7,10.6,10.4c0,6-4.9,10.9-10.6,10.9H416
		L416,312.7z"/>
	<path class="st0" d="M499.4,278.3c0.7,0,0.9,0.2,1.1,0.7l32.9,71.9c0.2,0.4,0.2,0.9,0,1.2c-0.2,0.3-0.6,0.5-1.1,0.5H523
		c-1.2,0-1.8-0.4-2.4-1.7l-5.2-11.5l-0.2-0.4h-0.5h-31.9h-0.5l-0.2,0.4l-5.2,11.6c-0.2,0.6-0.9,1.7-2.4,1.7h-9.3
		c-0.5,0-0.9-0.2-1.1-0.5c-0.2-0.3-0.2-0.8,0-1.2l33.2-71.9c0.3-0.5,0.6-0.8,1.2-0.8H499.4 M486.8,328.6h1.1h21.5h1.2l-0.5-1.1
		l-10.7-23.5l-0.2-0.4h-0.5h-0.3h-0.5l-0.2,0.4l-10.5,23.5L486.8,328.6 M499.4,277.6h-1.1c-1,0-1.5,0.5-1.8,1.2l-33.2,71.9
		c-0.6,1.4,0.2,2.8,1.8,2.8h9.3c1.7,0,2.7-1.1,3.1-2.1l5.2-11.5h31.9l5.2,11.5c0.7,1.5,1.5,2.1,3.1,2.1h9.3c1.6,0,2.5-1.4,1.8-2.8
		l-32.9-71.9C500.9,278.1,500.4,277.6,499.4,277.6L499.4,277.6z M487.9,327.9l10.5-23.5h0.3l10.7,23.5H487.9L487.9,327.9z"/>
	<path class="st0" d="M577.3,279.4c0.8,0,1.3,0.7,1.3,1.3v8.8c0,0.6-0.5,1.3-1.3,1.3H561h-0.7v0.7v59.9c0,0.7-0.6,1.3-1.3,1.3H549
		c-0.7,0-1.3-0.6-1.3-1.3v-59.9v-0.7H547h-16.3c-0.8,0-1.3-0.7-1.3-1.3v-8.8c0-0.6,0.5-1.3,1.3-1.3H577.3 M577.3,278.6h-46.7
		c-1.2,0-2,1-2,2v8.8c0,1.1,0.9,2,2,2H547v59.9c0,1.1,1,2,2,2h9.9c1.1,0,2-1,2-2v-59.9h16.3c1.2,0,2-1,2-2v-8.8
		C579.3,279.6,578.5,278.6,577.3,278.6L577.3,278.6z"/>
	<path class="st0" d="M599.7,279.4c0.7,0,1.3,0.6,1.3,1.3v70.7c0,0.7-0.6,1.3-1.3,1.3h-9.9c-0.7,0-1.3-0.6-1.3-1.3v-70.7
		c0-0.7,0.6-1.3,1.3-1.3H599.7 M599.7,278.6h-9.9c-1.1,0-2,1-2,2v70.7c0,1.1,1,2,2,2h9.9c1.1,0,2-1,2-2v-70.7
		C601.8,279.6,600.8,278.6,599.7,278.6L599.7,278.6z"/>
	<path class="st0" d="M678.1,279.4c0.5,0,0.9,0.2,1.1,0.5c0.2,0.3,0.2,0.8,0,1.2L646.1,353c-0.3,0.5-0.6,0.8-1.2,0.8h-1.1
		c-0.5,0-0.9-0.2-1.1-0.7l-33-71.9c-0.2-0.4-0.2-0.9,0-1.2c0.2-0.3,0.6-0.5,1.1-0.5h10.9c0.6,0,1,0.4,1.1,0.7l20.6,45.9l0.2,0.4h0.5
		h0.5h0.5l0.2-0.4l20.6-46c0.1-0.3,0.5-0.7,1.1-0.7H678.1 M678.1,278.6h-10.9c-1,0-1.6,0.6-1.8,1.2l-20.6,45.9h-0.5l-20.6-45.9
		c-0.2-0.5-0.9-1.2-1.8-1.2h-10.9c-1.6,0-2.5,1.4-1.8,2.8l33,71.9c0.3,0.6,0.9,1.2,1.8,1.2h1.1c1,0,1.5-0.5,1.8-1.2l33.1-71.9
		C680.5,280,679.7,278.6,678.1,278.6L678.1,278.6z"/>
	<path class="st0" d="M707.2,278.3c0.7,0,0.9,0.2,1.1,0.7l32.9,71.9c0.2,0.4,0.2,0.9,0,1.2c-0.2,0.3-0.6,0.5-1.1,0.5h-9.3
		c-1.2,0-1.8-0.4-2.4-1.7l-5.2-11.5L723,339h-0.5h-31.9h-0.5l-0.2,0.4l-5.2,11.6c-0.2,0.6-0.9,1.7-2.4,1.7h-9.3
		c-0.5,0-0.9-0.2-1.1-0.5c-0.2-0.3-0.2-0.8,0-1.2l33.2-71.9c0.3-0.5,0.6-0.8,1.2-0.8H707.2 M694.6,328.6h1.1h21.5h1.2l-0.5-1.1
		l-10.7-23.5l-0.2-0.4h-0.5h-0.3h-0.5l-0.2,0.4l-10.5,23.5L694.6,328.6 M707.2,277.6h-1.1c-1,0-1.5,0.5-1.8,1.2l-33.2,71.9
		c-0.6,1.4,0.2,2.8,1.8,2.8h9.3c1.7,0,2.7-1.1,3.1-2.1l5.2-11.5h31.9l5.2,11.5c0.7,1.5,1.5,2.1,3.1,2.1h9.3c1.6,0,2.5-1.4,1.8-2.8
		L709,278.7C708.7,278.1,708.3,277.6,707.2,277.6L707.2,277.6z M695.8,327.9l10.5-23.5h0.3l10.7,23.5H695.8L695.8,327.9z"/>
</g>
<g>
	<path class="st0" d="M32.6,1.8c12.4,0,22.5,10,22.5,22.2c0,9.1-5.9,17.1-15.3,20.9l-0.8,0.3l0.4,0.7l14.6,27.1c0.3,0.5,0.3,1,0,1.4
		c-0.2,0.4-0.6,0.6-1.2,0.6H41.7c-0.7,0-1-0.4-1-0.6L26.5,46.2l-0.2-0.4h-0.5H13.9h-0.7v0.7v27.2c0,0.7-0.6,1.3-1.3,1.3H2.1
		c-0.8,0-1.3-0.7-1.3-1.3V3.1c0-0.6,0.5-1.3,1.3-1.3H32.6 M13.3,35.9h0.7h17.4c6.1,0,11.3-5.3,11.3-11.6c0-6-5.2-11.1-11.3-11.1
		H14.1h-0.7v0.7v21.3V35.9 M32.6,1.1H2.1c-1.2,0-2,1-2,2v70.7c0,1.1,0.9,2,2,2h9.8c1.1,0,2-1,2-2V46.6h11.9L40,74.9
		c0.2,0.4,0.7,1,1.7,1h11.2c1.8,0,2.6-1.7,1.8-3.1L40.1,45.6c9.3-3.7,15.8-11.7,15.8-21.6C55.9,11.3,45.5,1.1,32.6,1.1L32.6,1.1z
		 M14.1,35.1V13.9h17.4c5.7,0,10.6,4.7,10.6,10.4c0,6-4.9,10.9-10.6,10.9H14.1L14.1,35.1z"/>
	<path class="st0" d="M114,1.8c0.8,0,1.3,0.7,1.3,1.3v8.8c0,0.6-0.5,1.3-1.3,1.3H82.4h-0.7v0.7v17.5v0.7h0.7h26.4
		c0.7,0,1.3,0.6,1.3,1.3v8.9c0,0.8-0.7,1.3-1.3,1.3H82.4h-0.7v0.7V63v0.7h0.7H114c0.8,0,1.3,0.7,1.3,1.3v8.8c0,0.6-0.5,1.3-1.3,1.3
		H70.5c-0.8,0-1.3-0.7-1.3-1.3V3.1c0-0.6,0.5-1.3,1.3-1.3H114 M114,1.1H70.5c-1.2,0-2,1-2,2v70.7c0,1.1,0.9,2,2,2H114c1.2,0,2-1,2-2
		V65c0-1.1-0.9-2-2-2H82.4V44.3h26.4c1.1,0,2-0.9,2-2v-8.9c0-1.1-1-2-2-2H82.4V13.9H114c1.2,0,2-1,2-2V3.1C116,2,115.2,1.1,114,1.1
		L114,1.1z"/>
	<path class="st0" d="M160.7,0.7c9.1,0,18.2,3.5,25.6,9.7c0.5,0.5,0.7,1.3,0.1,1.9l-6.6,6.9c-0.3,0.3-0.6,0.4-0.8,0.4
		c-0.3,0-0.6-0.2-0.9-0.5c-4.7-4.2-10.5-6.4-16.6-6.4c-6.6,0-12.8,2.7-17.5,7.6c-4.6,4.8-7.2,11.2-7.2,17.9
		c0,13.9,11.1,25.2,24.8,25.2c6.2,0,10.9-1.9,13-2.7l0.5-0.2v-0.5v-9.1v-0.7h-0.7h-8.5c-0.7,0-1.3-0.5-1.3-1.2v-8.4
		c0-0.8,0.5-1.3,1.3-1.3h20.5c0.6,0,1.2,0.6,1.2,1.3v27.3c0,0.5-0.2,0.8-0.5,1.1c-0.6,0.4-11.3,6.8-26.1,6.8
		c-10.1,0-19.6-3.9-26.6-10.9c-7.1-7-11-16.5-11-26.6c0-10.1,3.9-19.6,11-26.8C141.2,4.7,150.6,0.7,160.7,0.7 M160.7,0
		c-21.3,0-38.3,17.2-38.3,38.6s17.1,38.2,38.3,38.2c15.5,0,26.5-6.9,26.5-6.9c0.4-0.3,0.9-0.9,0.9-1.7V40.8c0-1.1-0.9-2-1.9-2h-20.5
		c-1.2,0-2,0.9-2,2v8.4c0,1.1,0.9,1.9,2,1.9h8.5v9.1c-2.1,0.9-6.7,2.7-12.7,2.7c-13.5,0-24-11.2-24-24.5c0-13.4,10.6-24.8,23.9-24.8
		c5.9,0,11.5,2.1,16.1,6.2c0.5,0.4,1,0.6,1.4,0.6c0.5,0,0.9-0.2,1.3-0.6l6.6-6.9c0.9-0.9,0.7-2.1-0.1-3C179.5,3.7,170.3,0,160.7,0
		L160.7,0z"/>
	<path class="st0" d="M247.7,1.8c0.8,0,1.3,0.7,1.3,1.3v8.8c0,0.6-0.5,1.3-1.3,1.3h-31.6h-0.7v0.7v17.5v0.7h0.7h26.4
		c0.7,0,1.3,0.6,1.3,1.3v8.9c0,0.8-0.7,1.3-1.3,1.3h-26.4h-0.7v0.7V63v0.7h0.7h31.6c0.8,0,1.3,0.7,1.3,1.3v8.8
		c0,0.6-0.5,1.3-1.3,1.3h-43.5c-0.8,0-1.3-0.7-1.3-1.3V3.1c0-0.6,0.5-1.3,1.3-1.3H247.7 M247.7,1.1h-43.5c-1.2,0-2,1-2,2v70.7
		c0,1.1,0.9,2,2,2h43.5c1.2,0,2-1,2-2V65c0-1.1-0.9-2-2-2h-31.6V44.3h26.4c1.1,0,2-0.9,2-2v-8.9c0-1.1-1-2-2-2h-26.4V13.9h31.6
		c1.2,0,2-1,2-2V3.1C249.8,2,248.9,1.1,247.7,1.1L247.7,1.1z"/>
	<path class="st0" d="M266,0.7c0.6,0,0.9,0.1,1.3,0.5l43.6,46.5l0.2,0.2h0.3h0.2h0.7v-0.7V3.1c0-0.6,0.5-1.3,1.3-1.3h9.8
		c0.7,0,1.3,0.6,1.3,1.3V75c0,0.6-0.6,1.2-1.3,1.2H322c-0.6,0-0.9-0.1-1.3-0.5L277,27.4l-0.2-0.2h-0.3h-0.2h-0.7v0.7v45.9
		c0,0.6-0.5,1.3-1.3,1.3h-9.7c-0.7,0-1.3-0.6-1.3-1.3V1.9c0-0.6,0.6-1.2,1.3-1.2H266 M266,0h-1.6c-1.1,0-2,0.9-2,1.9v71.9
		c0,1.1,1,2,2,2h9.7c1.2,0,2-1,2-2V27.9h0.2l43.8,48.3c0.5,0.5,1.1,0.7,1.8,0.7h1.5c1.1,0,2-0.9,2-1.9V3.1c0-1.1-1-2-2-2h-9.8
		c-1.2,0-2,1-2,2v44.1h-0.2L267.9,0.7C267.3,0.2,266.8,0,266,0L266,0z"/>
	<path class="st0" d="M387.3,1.8c0.8,0,1.3,0.7,1.3,1.3v8.8c0,0.6-0.5,1.3-1.3,1.3h-31.6H355v0.7v17.5v0.7h0.7h26.4
		c0.7,0,1.3,0.6,1.3,1.3v8.9c0,0.8-0.7,1.3-1.3,1.3h-26.4H355v0.7V63v0.7h0.7h31.6c0.8,0,1.3,0.7,1.3,1.3v8.8c0,0.6-0.5,1.3-1.3,1.3
		h-43.5c-0.8,0-1.3-0.7-1.3-1.3V3.1c0-0.6,0.5-1.3,1.3-1.3H387.3 M387.3,1.1h-43.5c-1.2,0-2,1-2,2v70.7c0,1.1,0.9,2,2,2h43.5
		c1.2,0,2-1,2-2V65c0-1.1-0.9-2-2-2h-31.6V44.3h26.4c1.1,0,2-0.9,2-2v-8.9c0-1.1-1-2-2-2h-26.4V13.9h31.6c1.2,0,2-1,2-2V3.1
		C389.3,2,388.5,1.1,387.3,1.1L387.3,1.1z"/>
	<path class="st0" d="M434.6,1.8c12.4,0,22.5,10,22.5,22.2c0,9.1-5.9,17.1-15.3,20.9l-0.8,0.3l0.4,0.7L456,73.1c0.3,0.5,0.3,1,0,1.4
		c-0.2,0.4-0.6,0.6-1.2,0.6h-11.2c-0.7,0-1-0.4-1-0.6l-14.2-28.3l-0.2-0.4h-0.5h-11.9h-0.7v0.7v27.2c0,0.7-0.6,1.3-1.3,1.3H404
		c-0.8,0-1.3-0.7-1.3-1.3V3.1c0-0.6,0.5-1.3,1.3-1.3H434.6 M415.2,35.9h0.7h17.4c6.1,0,11.3-5.3,11.3-11.6c0-6-5.2-11.1-11.3-11.1
		H416h-0.7v0.7v21.3V35.9 M434.6,1.1H404c-1.2,0-2,1-2,2v70.7c0,1.1,0.9,2,2,2h9.8c1.1,0,2-1,2-2V46.6h11.9l14.2,28.3
		c0.2,0.4,0.7,1,1.7,1h11.2c1.8,0,2.6-1.7,1.8-3.1l-14.6-27.1c9.3-3.7,15.8-11.7,15.8-21.6C457.9,11.3,447.4,1.1,434.6,1.1
		L434.6,1.1z M416,35.1V13.9h17.4c5.7,0,10.6,4.7,10.6,10.4c0,6-4.9,10.9-10.6,10.9H416L416,35.1z"/>
	<path class="st0" d="M499.4,0.7c0.7,0,0.9,0.2,1.1,0.7l32.9,71.9c0.2,0.4,0.2,0.9,0,1.2c-0.2,0.3-0.6,0.5-1.1,0.5H523
		c-1.2,0-1.8-0.4-2.4-1.7l-5.2-11.5l-0.2-0.4h-0.5h-31.9h-0.5l-0.2,0.4l-5.2,11.6c-0.2,0.6-0.9,1.7-2.4,1.7h-9.3
		c-0.5,0-0.9-0.2-1.1-0.5c-0.2-0.3-0.2-0.8,0-1.2l33.2-71.9c0.3-0.5,0.6-0.8,1.2-0.8H499.4 M486.8,51.1h1.1h21.5h1.2l-0.5-1.1
		l-10.7-23.5l-0.2-0.4h-0.5h-0.3h-0.5l-0.2,0.4L487.3,50L486.8,51.1 M499.4,0h-1.1c-1,0-1.5,0.5-1.8,1.2l-33.2,71.9
		c-0.6,1.4,0.2,2.8,1.8,2.8h9.3c1.7,0,2.7-1.1,3.1-2.1l5.2-11.5h31.9l5.2,11.5c0.7,1.5,1.5,2.1,3.1,2.1h9.3c1.6,0,2.5-1.4,1.8-2.8
		L501.2,1.2C500.9,0.5,500.4,0,499.4,0L499.4,0z M487.9,50.3l10.5-23.5h0.3l10.7,23.5H487.9L487.9,50.3z"/>
	<path class="st0" d="M577.3,1.8c0.8,0,1.3,0.7,1.3,1.3v8.8c0,0.6-0.5,1.3-1.3,1.3H561h-0.7v0.7v59.9c0,0.7-0.6,1.3-1.3,1.3H549
		c-0.7,0-1.3-0.6-1.3-1.3V13.9v-0.7H547h-16.3c-0.8,0-1.3-0.7-1.3-1.3V3.1c0-0.6,0.5-1.3,1.3-1.3H577.3 M577.3,1.1h-46.7
		c-1.2,0-2,1-2,2v8.8c0,1.1,0.9,2,2,2H547v59.9c0,1.1,1,2,2,2h9.9c1.1,0,2-1,2-2V13.9h16.3c1.2,0,2-1,2-2V3.1
		C579.3,2,578.5,1.1,577.3,1.1L577.3,1.1z"/>
	<path class="st0" d="M599.7,1.8c0.7,0,1.3,0.6,1.3,1.3v70.7c0,0.7-0.6,1.3-1.3,1.3h-9.9c-0.7,0-1.3-0.6-1.3-1.3V3.1
		c0-0.7,0.6-1.3,1.3-1.3H599.7 M599.7,1.1h-9.9c-1.1,0-2,1-2,2v70.7c0,1.1,1,2,2,2h9.9c1.1,0,2-1,2-2V3.1
		C601.8,2,600.8,1.1,599.7,1.1L599.7,1.1z"/>
	<path class="st0" d="M678.1,1.8c0.5,0,0.9,0.2,1.1,0.5c0.2,0.3,0.2,0.8,0,1.2l-33.1,71.9c-0.3,0.5-0.6,0.8-1.2,0.8h-1.1
		c-0.5,0-0.9-0.2-1.1-0.7l-33-71.9c-0.2-0.4-0.2-0.9,0-1.2c0.2-0.3,0.6-0.5,1.1-0.5h10.9c0.6,0,1,0.4,1.1,0.7l20.6,45.9l0.2,0.4h0.5
		h0.5h0.5l0.2-0.4l20.6-46c0.1-0.3,0.5-0.7,1.1-0.7H678.1 M678.1,1.1h-10.9c-1,0-1.6,0.6-1.8,1.2l-20.6,45.9h-0.5L623.6,2.2
		c-0.2-0.5-0.9-1.2-1.8-1.2h-10.9c-1.6,0-2.5,1.4-1.8,2.8l33,71.9c0.3,0.6,0.9,1.2,1.8,1.2h1.1c1,0,1.5-0.5,1.8-1.2l33.1-71.9
		C680.5,2.5,679.7,1.1,678.1,1.1L678.1,1.1z"/>
	<path class="st0" d="M707.2,0.7c0.7,0,0.9,0.2,1.1,0.7l32.9,71.9c0.2,0.4,0.2,0.9,0,1.2c-0.2,0.3-0.6,0.5-1.1,0.5h-9.3
		c-1.2,0-1.8-0.4-2.4-1.7l-5.2-11.5l-0.2-0.4h-0.5h-31.9h-0.5l-0.2,0.4l-5.2,11.6c-0.2,0.6-0.9,1.7-2.4,1.7h-9.3
		c-0.5,0-0.9-0.2-1.1-0.5c-0.2-0.3-0.2-0.8,0-1.2L705,1.5c0.3-0.5,0.6-0.8,1.2-0.8H707.2 M694.6,51.1h1.1h21.5h1.2l-0.5-1.1
		l-10.7-23.5l-0.2-0.4h-0.5h-0.3h-0.5l-0.2,0.4L695.1,50L694.6,51.1 M707.2,0h-1.1c-1,0-1.5,0.5-1.8,1.2l-33.2,71.9
		c-0.6,1.4,0.2,2.8,1.8,2.8h9.3c1.7,0,2.7-1.1,3.1-2.1l5.2-11.5h31.9l5.2,11.5c0.7,1.5,1.5,2.1,3.1,2.1h9.3c1.6,0,2.5-1.4,1.8-2.8
		L709,1.2C708.7,0.5,708.3,0,707.2,0L707.2,0z M695.8,50.3l10.5-23.5h0.3l10.7,23.5H695.8L695.8,50.3z"/>
</g>
</svg>
