<svg id="Capa_1" data-name="Capa 1" xmlns="http://www.w3.org/2000/svg" xmlns:xlink="http://www.w3.org/1999/xlink" viewBox="0 0 569.6 412"><defs><style>.cls-1{fill:none;}.cls-2{opacity:0.2;}.cls-3{clip-path:url(#clip-path);}.cls-4{fill:#fff;}.cls-5{clip-path:url(#clip-path-2);}.cls-6{clip-path:url(#clip-path-3);}.cls-7{opacity:0.25;}.cls-8{clip-path:url(#clip-path-4);}.cls-9{clip-path:url(#clip-path-5);}.cls-10{clip-path:url(#clip-path-6);}</style><clipPath id="clip-path" transform="translate(-45.6 -11.1)"><rect class="cls-1" x="37.9" y="75.5" width="409" height="51.3"/></clipPath><clipPath id="clip-path-2" transform="translate(-45.6 -11.1)"><rect class="cls-1" x="121.9" y="33.4" width="324.3" height="36.8"/></clipPath><clipPath id="clip-path-3" transform="translate(-45.6 -11.1)"><rect class="cls-1" x="44.6" y="5.2" width="395.4" height="22.4"/></clipPath><clipPath id="clip-path-4" transform="translate(-45.6 -11.1)"><rect class="cls-1" x="41.9" y="360.3" width="581.1" height="36.2"/></clipPath><clipPath id="clip-path-5" transform="translate(-45.6 -11.1)"><rect class="cls-1" x="119.2" y="402.4" width="424.1" height="21.6"/></clipPath><clipPath id="clip-path-6" transform="translate(-45.6 -11.1)"><rect class="cls-1" x="41.9" y="303.3" width="508.6" height="50.9"/></clipPath></defs><g class="cls-2"><g class="cls-3"><path class="cls-4" d="M107.2,93.9a1.86,1.86,0,0,0-.1-2.8c-6.9-6.3-14.5-9.5-24.7-9.5a36.7,36.7,0,0,0-30,15.5,36.15,36.15,0,0,0-6.1,14.5,38.24,38.24,0,0,0-.7,6.8,37.66,37.66,0,0,0,.8,7.6H64.5a21.46,21.46,0,0,1-1.5-8,22.5,22.5,0,0,1,.9-6.4A20,20,0,0,1,81,97.1a12.75,12.75,0,0,1,2-.1,14.77,14.77,0,0,1,2.1.1,19.85,19.85,0,0,1,11.7,5.1,1.75,1.75,0,0,0,2.5,0l4.9-5.1ZM151.5,126h16.2L161,111.5,154.3,97l-6.7-14.4a2,2,0,0,0-1.7-1.1h-1a2,2,0,0,0-1.7,1.1L136.5,97l-6.7,14.5L123,126h16.2l6.1-13.3h.1Zm56.7,0H225l-7.8-14.5L209.4,97l-7.8-14.5a2.21,2.21,0,0,0-1.7-1h-1.6a1.91,1.91,0,0,0-1.8,1.6l-2.3,13.8-2.4,14.5-2.4,14.5h15.3l.7-5.2h.2Zm37.9,0h15.4l-2.4-14.5L256.7,97l-2.3-13.8a1.91,1.91,0,0,0-1.8-1.6H251a2.21,2.21,0,0,0-1.7,1l-7.8,14.5-7.8,14.5-7.8,14.5h16.6l2.7-5.2h.2Zm92.6,0h16.1V84.5a2,2,0,0,0-1.9-1.9H340.7a2,2,0,0,0-1.9,1.9V126Zm100.4-7.7a38.22,38.22,0,0,0-.6-6.8A37.38,37.38,0,0,0,432.4,97a36.6,36.6,0,0,0-65.9,14.5,38.22,38.22,0,0,0-.6,6.8,37.66,37.66,0,0,0,.8,7.6h17a19.44,19.44,0,0,1-1.5-7.6,19.07,19.07,0,0,1,1.2-6.8,20.28,20.28,0,0,1,38.3,0,19.07,19.07,0,0,1,1.2,6.8,21,21,0,0,1-1.5,7.6h17a45.65,45.65,0,0,0,.7-7.6" transform="translate(-45.6 -11.1)"/></g></g><g class="cls-2"><g class="cls-5"><path class="cls-4" d="M129.7,69.4H161L154.3,55l-6.7-14.4a2,2,0,0,0-1.7-1.1h-1a2,2,0,0,0-1.7,1.1L136.5,55Zm62,0h25.5L209.4,55l-7.8-14.5a2.21,2.21,0,0,0-1.7-1h-1.6a1.91,1.91,0,0,0-1.8,1.6L194.1,55Zm41.9,0h25.5L256.7,55l-2.3-13.8a1.91,1.91,0,0,0-1.8-1.6H251a2.21,2.21,0,0,0-1.7,1L241.4,55Zm87.5,0a16,16,0,0,0,3.5-10,16.84,16.84,0,0,0-.6-4.5c-2.3-8.4-11-14.5-21.3-14.5H279a1.9,1.9,0,0,0-1.9,1.9V69.5H293V55.2h8.5c3.9,0,6.6,2.8,6.6,6.9s-2.7,7.3-6.6,7.3Zm17.6,0h16.1v-27a2,2,0,0,0-1.9-1.9H340.7a2,2,0,0,0-1.9,1.9v27Zm99.7,0a37.38,37.38,0,0,0-6.1-14.5,36.6,36.6,0,0,0-65.9,14.5h16.9a20.28,20.28,0,0,1,38.3,0Z" transform="translate(-45.6 -11.1)"/></g></g><g class="cls-2"><g class="cls-6"><path class="cls-4" d="M107.2,23.5a2,2,0,0,0-.1-2.9c-6.9-6.3-14.5-9.5-24.7-9.5a36.7,36.7,0,0,0-30,15.5H81a12.75,12.75,0,0,1,2-.1,14.77,14.77,0,0,1,2.1.1h19.1Zm86.9,3.2h15.3l-7.8-14.5a2.21,2.21,0,0,0-1.7-1h-1.6a1.91,1.91,0,0,0-1.8,1.6Zm47.3,0h15.3l-2.3-13.8a1.91,1.91,0,0,0-1.8-1.6H251a2.21,2.21,0,0,0-1.7,1Zm35.7,0h47c-2.3-8.4-11-14.5-21.3-14.5H279a1.9,1.9,0,0,0-1.9,1.9Zm155.2,0a36.59,36.59,0,0,0-59.8,0Z" transform="translate(-45.6 -11.1)"/></g></g><g class="cls-7"><g class="cls-8"><path class="cls-4" d="M95.8,392.7V381.6c0-.2-.1-.4-.1-.6a2,2,0,0,0-1.8-1.3H65.6V366.4H49.7v26.3a1.9,1.9,0,0,0,1.9,1.9H93.8a1.81,1.81,0,0,0,2-1.9M144,381l6.8-14.7H120.1l6.8,14.7,6.3,13.5a1.91,1.91,0,0,0,1.7,1.1h1a1.91,1.91,0,0,0,1.7-1.1Zm91.3,0a36.4,36.4,0,0,0,6.6-14.7h-17a20.31,20.31,0,0,1-37.9,0H170a38.29,38.29,0,0,0,6.5,14.7,36.75,36.75,0,0,0,58.8,0m60.6,11.7V381.6c0-.2-.1-.4-.1-.6a2,2,0,0,0-1.8-1.3H269.7V366.4h-16v26.3a1.9,1.9,0,0,0,1.9,1.9H294a1.78,1.78,0,0,0,1.9-1.9M357.2,381a25.91,25.91,0,0,0,3.1-12.4v-2.2H343.9v1.4c0,7.4-5.4,11.6-12.7,11.6s-12.5-4.2-12.5-11.6v-1.4H302.3v2.2a25.91,25.91,0,0,0,3.1,12.4c4.8,8.9,14.5,14.7,25.8,14.7s21.2-5.8,26-14.7m75,4.8a2,2,0,0,0,.1-2.7l-1.9-2-6-6.4a2,2,0,0,0-2.6-.1,20.51,20.51,0,0,1-32.4-8.1h-18a36.73,36.73,0,0,0,36.1,29.4,36.12,36.12,0,0,0,24.7-10.1m26.3,6.9V366.3H442.4v26.4a2,2,0,0,0,1.9,1.9h12.2a1.86,1.86,0,0,0,2-1.9m77-11.7a36.4,36.4,0,0,0,6.6-14.7h-17a20.31,20.31,0,0,1-37.9,0h-17a38.29,38.29,0,0,0,6.5,14.7,36.75,36.75,0,0,0,58.8,0M570,392.7V366.3H554v26.4a2,2,0,0,0,1.9,1.9H568a1.81,1.81,0,0,0,2-1.9m45.2,3V366.3H581.6L596.2,381l13.5,13.5a3.21,3.21,0,0,0,2.5,1.1h3Z" transform="translate(-45.6 -11.1)"/></g></g><g class="cls-7"><g class="cls-9"><path class="cls-4" d="M137.7,422l6.3-13.5H126.9l6.3,13.5a1.91,1.91,0,0,0,1.7,1.1h1a2,2,0,0,0,1.8-1.1m158.2-1.9V409c0-.2-.1-.4-.1-.6H253.7v11.7a1.9,1.9,0,0,0,1.9,1.9H294a1.78,1.78,0,0,0,1.9-1.9m162.6,0V408.4H442.4v11.7a2,2,0,0,0,1.9,1.9h12.2a1.86,1.86,0,0,0,2-1.9m77-11.7H476.7a36.75,36.75,0,0,0,58.8,0" transform="translate(-45.6 -11.1)"/></g></g><g class="cls-7"><g class="cls-10"><path class="cls-4" d="M95.8,350.4V339.3c0-.2-.1-.4-.1-.6a2,2,0,0,0-1.8-1.3H65.6V323.6H88.8a1.9,1.9,0,0,0,1.9-1.9V310.6a1.66,1.66,0,0,0-.5-1.2H49.7v41a1.9,1.9,0,0,0,1.9,1.9H93.8a1.92,1.92,0,0,0,2-1.9m146-26.4a33.83,33.83,0,0,0,.7-7.2,45.25,45.25,0,0,0-.7-7.4h-17a20.28,20.28,0,0,1,1.4,7.4,19.24,19.24,0,0,1-1.4,7.2,20.31,20.31,0,0,1-37.9,0,19.63,19.63,0,0,1-1.4-7.2,20.28,20.28,0,0,1,1.4-7.4h-17a36.4,36.4,0,0,0-.7,7.4,33.83,33.83,0,0,0,.7,7.2,38.29,38.29,0,0,0,6.5,14.7,36.75,36.75,0,0,0,58.8,0,33.9,33.9,0,0,0,6.6-14.7m54.1,26.4V339.3c0-.2-.1-.4-.1-.6a2,2,0,0,0-1.8-1.3H269.8V309.3h-16v41.1a1.9,1.9,0,0,0,1.9,1.9H294a1.9,1.9,0,0,0,1.9-1.9m61.3-11.7a25.91,25.91,0,0,0,3.1-12.4v-17H343.9v16.1c0,7.4-5.4,11.6-12.7,11.6s-12.5-4.2-12.5-11.6V309.3H302.3v16.9a25.91,25.91,0,0,0,3.1,12.4c4.8,8.9,14.5,14.7,25.8,14.7s21.2-5.8,26-14.6m75,4.8a2,2,0,0,0,.1-2.7l-1.9-2-6-6.4a2.1,2.1,0,0,0-2.7-.1,20.51,20.51,0,0,1-32.4-8.1,21.36,21.36,0,0,1-1.4-7.6,22.81,22.81,0,0,1,1.1-7H371.3a36.4,36.4,0,0,0-.7,7.4,41.85,41.85,0,0,0,.7,7.2,36.73,36.73,0,0,0,36.1,29.4c9.1-.3,17.9-3.4,24.8-10.1m26.3,6.9V309.3H442.4v41.1a2,2,0,0,0,1.9,1.9h12.2a2,2,0,0,0,2-1.9m84.2-33.6a45.25,45.25,0,0,0-.7-7.4H525a20.28,20.28,0,0,1,1.4,7.4A19.24,19.24,0,0,1,525,324a20.31,20.31,0,0,1-37.9,0,19.63,19.63,0,0,1-1.4-7.2,20.28,20.28,0,0,1,1.4-7.4h-17a36.4,36.4,0,0,0-.7,7.4,33.83,33.83,0,0,0,.7,7.2,38.29,38.29,0,0,0,6.5,14.7A36.74,36.74,0,0,0,542,324a33.83,33.83,0,0,0,.7-7.2" transform="translate(-45.6 -11.1)"/></g></g></svg>