<svg xmlns="http://www.w3.org/2000/svg" viewBox="0 0 985.67 100"><defs><style>.cls-1{fill:#fff;}</style></defs><g id="Layer_2" data-name="Layer 2"><g id="Layer_2-2" data-name="Layer 2"><path class="cls-1" d="M42.36,2.39A29.1,29.1,0,0,1,71.64,31.25C71.64,43,64,53.43,51.71,58.38l-1,.42.53,1,19,35.28a1.83,1.83,0,0,1,0,1.81,1.65,1.65,0,0,1-1.51.74H54.17a1.36,1.36,0,0,1-1.33-.7L34.37,60.11l-.28-.55h-17V96a1.72,1.72,0,0,1-1.64,1.64H2.64A1.64,1.64,0,0,1,1,96V4A1.64,1.64,0,0,1,2.64,2.39H42.36M17.2,46.69H40.83c8,0,14.75-6.94,14.75-15.16A14.81,14.81,0,0,0,40.83,17.05H17.2V46.69M42.36,1.39H2.64A2.64,2.64,0,0,0,0,4V96a2.64,2.64,0,0,0,2.64,2.64H15.42A2.74,2.74,0,0,0,18.06,96V60.56H33.47L52,97.36a2.36,2.36,0,0,0,2.22,1.25H68.75a2.63,2.63,0,0,0,2.36-4l-19-35.27C64.17,54.44,72.64,44,72.64,31.25A30.08,30.08,0,0,0,42.36,1.39ZM18.2,45.69V18.05H40.83A13.83,13.83,0,0,1,54.58,31.53c0,7.78-6.39,14.16-13.75,14.16Z"/><path class="cls-1" d="M149.94,2.39A1.64,1.64,0,0,1,151.58,4V15.42a1.64,1.64,0,0,1-1.64,1.63H107.83V41.83h35.3a1.72,1.72,0,0,1,1.64,1.64V55a1.64,1.64,0,0,1-1.64,1.64h-35.3v26.3h42.11a1.64,1.64,0,0,1,1.64,1.64V96a1.64,1.64,0,0,1-1.64,1.64H93.41A1.64,1.64,0,0,1,91.77,96V4a1.64,1.64,0,0,1,1.64-1.64h56.53m0-1H93.41A2.64,2.64,0,0,0,90.77,4V96a2.64,2.64,0,0,0,2.64,2.64h56.53A2.64,2.64,0,0,0,152.58,96V84.58a2.64,2.64,0,0,0-2.64-2.64H108.83V57.64h34.3A2.63,2.63,0,0,0,145.77,55V43.47a2.73,2.73,0,0,0-2.64-2.64h-34.3V18.05h41.11a2.63,2.63,0,0,0,2.64-2.63V4a2.64,2.64,0,0,0-2.64-2.64Z"/><path class="cls-1" d="M212.59,1A51.51,51.51,0,0,1,245.8,13.65a2,2,0,0,1,.58,1.26,1.52,1.52,0,0,1-.48,1.2l-8.6,9a1.58,1.58,0,0,1-1.05.54,1.9,1.9,0,0,1-1.19-.59,32.29,32.29,0,0,0-21.64-8.3c-17.7,0-32.11,14.9-32.11,33.22,0,18.09,14.47,32.8,32.25,32.8a44.54,44.54,0,0,0,16.9-3.54l.63-.25V65.53H219a1.52,1.52,0,0,1-1.64-1.5v-11A1.55,1.55,0,0,1,219,51.42h26.67a1.61,1.61,0,0,1,1.49,1.64V88.61a1.67,1.67,0,0,1-.67,1.4,70.08,70.08,0,0,1-33.88,8.85A49,49,0,0,1,178,15.36,48.44,48.44,0,0,1,212.59,1m0-1a49.93,49.93,0,0,0,0,99.86,70.13,70.13,0,0,0,34.44-9,2.65,2.65,0,0,0,1.11-2.22V53.06a2.61,2.61,0,0,0-2.49-2.64H219a2.55,2.55,0,0,0-2.64,2.64V64a2.52,2.52,0,0,0,2.64,2.5h11.11v11.8a43.49,43.49,0,0,1-16.53,3.47c-17.5,0-31.25-14.58-31.25-31.8s13.75-32.22,31.11-32.22a31.55,31.55,0,0,1,21,8,2.82,2.82,0,0,0,1.85.84,2.49,2.49,0,0,0,1.76-.84l8.61-9a2.68,2.68,0,0,0-.14-3.88A52.5,52.5,0,0,0,212.59,0Z"/><path class="cls-1" d="M327.46,2.39A1.64,1.64,0,0,1,329.1,4V15.42a1.64,1.64,0,0,1-1.64,1.63H285.35V41.83h35.3a1.72,1.72,0,0,1,1.64,1.64V55a1.64,1.64,0,0,1-1.64,1.64h-35.3v26.3h42.11a1.64,1.64,0,0,1,1.64,1.64V96a1.64,1.64,0,0,1-1.64,1.64H270.93A1.64,1.64,0,0,1,269.29,96V4a1.64,1.64,0,0,1,1.64-1.64h56.53m0-1H270.93A2.64,2.64,0,0,0,268.29,4V96a2.64,2.64,0,0,0,2.64,2.64h56.53A2.64,2.64,0,0,0,330.1,96V84.58a2.64,2.64,0,0,0-2.64-2.64H286.35V57.64h34.3A2.64,2.64,0,0,0,323.29,55V43.47a2.73,2.73,0,0,0-2.64-2.64h-34.3V18.05h41.11a2.63,2.63,0,0,0,2.64-2.63V4a2.64,2.64,0,0,0-2.64-2.64Z"/><path class="cls-1" d="M353,1a2,2,0,0,1,1.63.66l56.67,60.41.3.32h1.71V4A1.64,1.64,0,0,1,415,2.39h12.78A1.72,1.72,0,0,1,429.37,4V97.5a1.61,1.61,0,0,1-1.63,1.5h-1.95a2,2,0,0,1-1.62-.64L367.22,35.58l-.29-.33h-1.72V96a1.64,1.64,0,0,1-1.64,1.64H350.93A1.72,1.72,0,0,1,349.29,96V2.5A1.62,1.62,0,0,1,350.93,1H353m0-1h-2.08a2.61,2.61,0,0,0-2.64,2.5V96a2.73,2.73,0,0,0,2.64,2.64h12.64A2.64,2.64,0,0,0,366.21,96V36.25h.27L423.43,99a3.05,3.05,0,0,0,2.36,1h1.95a2.61,2.61,0,0,0,2.63-2.5V4a2.73,2.73,0,0,0-2.63-2.64H415A2.64,2.64,0,0,0,412.32,4V61.39H412L355.37,1A3.05,3.05,0,0,0,353,0Z"/><path class="cls-1" d="M512.48,2.39A1.64,1.64,0,0,1,514.12,4V15.42a1.64,1.64,0,0,1-1.64,1.63H470.37V41.83h35.3a1.72,1.72,0,0,1,1.64,1.64V55a1.64,1.64,0,0,1-1.64,1.64h-35.3v26.3h42.11a1.64,1.64,0,0,1,1.64,1.64V96a1.64,1.64,0,0,1-1.64,1.64H456A1.64,1.64,0,0,1,454.31,96V4A1.64,1.64,0,0,1,456,2.39h56.53m0-1H456A2.64,2.64,0,0,0,453.31,4V96A2.64,2.64,0,0,0,456,98.61h56.53A2.64,2.64,0,0,0,515.12,96V84.58a2.64,2.64,0,0,0-2.64-2.64H471.37V57.64h34.3A2.64,2.64,0,0,0,508.31,55V43.47a2.73,2.73,0,0,0-2.64-2.64h-34.3V18.05h41.11a2.63,2.63,0,0,0,2.64-2.63V4a2.64,2.64,0,0,0-2.64-2.64Z"/><path class="cls-1" d="M575.67,2.39A29.1,29.1,0,0,1,605,31.25C605,43,597.31,53.43,585,58.38l-1,.42.53,1,19,35.28a1.83,1.83,0,0,1,0,1.81,1.65,1.65,0,0,1-1.51.74H587.48a1.36,1.36,0,0,1-1.33-.7l-18.48-36.8-.27-.55h-17V96a1.73,1.73,0,0,1-1.65,1.64H536A1.64,1.64,0,0,1,534.31,96V4A1.64,1.64,0,0,1,536,2.39h39.72M550.5,46.69h23.64c8,0,14.75-6.94,14.75-15.16a14.81,14.81,0,0,0-14.75-14.48H550.5V46.69m25.17-45.3H536A2.64,2.64,0,0,0,533.31,4V96A2.64,2.64,0,0,0,536,98.61h12.77A2.74,2.74,0,0,0,551.37,96V60.56h15.41l18.47,36.8a2.39,2.39,0,0,0,2.23,1.25h14.58a2.63,2.63,0,0,0,2.36-4l-19-35.27C597.48,54.44,606,44,606,31.25A30.08,30.08,0,0,0,575.67,1.39ZM551.5,45.69V18.05h22.64a13.83,13.83,0,0,1,13.75,13.48c0,7.78-6.39,14.16-13.75,14.16Z"/><path class="cls-1" d="M661.57,1a1.37,1.37,0,0,1,1.45.94L705.8,95.42a1.57,1.57,0,0,1,0,1.52,1.62,1.62,0,0,1-1.43.67H692.26c-1.58,0-2.26-.48-3.11-2.19l-6.81-15-.27-.59H639.26l-.27.59-6.82,15a3.21,3.21,0,0,1-3.1,2.15H617a1.63,1.63,0,0,1-1.43-.67,1.6,1.6,0,0,1,0-1.52L658.71,2a1.51,1.51,0,0,1,1.47-1h1.39m-16.4,65.42h31L675.54,65,661.65,34.45l-.27-.59h-1.71l-.27.59L645.79,65l-.62,1.41M661.57,0h-1.39a2.49,2.49,0,0,0-2.36,1.53L614.62,95A2.45,2.45,0,0,0,617,98.61h12.09a4.2,4.2,0,0,0,4-2.78l6.8-15h41.53l6.8,15c1,2,1.95,2.78,4,2.78h12.09A2.45,2.45,0,0,0,706.71,95L663.93,1.53A2.35,2.35,0,0,0,661.57,0ZM646.71,65.42l13.61-30.56h.42l13.89,30.56Z"/><path class="cls-1" d="M765.25,2.39A1.64,1.64,0,0,1,766.89,4V15.42a1.64,1.64,0,0,1-1.64,1.63H743V96a1.72,1.72,0,0,1-1.64,1.64H728.44A1.72,1.72,0,0,1,726.8,96V17.05H704.55a1.64,1.64,0,0,1-1.64-1.63V4a1.64,1.64,0,0,1,1.64-1.64h60.7m0-1h-60.7A2.64,2.64,0,0,0,701.91,4V15.42a2.64,2.64,0,0,0,2.64,2.63H725.8V96a2.73,2.73,0,0,0,2.64,2.64h12.92A2.73,2.73,0,0,0,744,96V18.05h21.25a2.63,2.63,0,0,0,2.64-2.63V4a2.64,2.64,0,0,0-2.64-2.64Z"/><path class="cls-1" d="M796.33,2.39A1.73,1.73,0,0,1,798,4V96a1.72,1.72,0,0,1-1.64,1.64H783.41A1.72,1.72,0,0,1,781.77,96V4a1.73,1.73,0,0,1,1.64-1.64h12.92m0-1H783.41A2.73,2.73,0,0,0,780.77,4V96a2.73,2.73,0,0,0,2.64,2.64h12.92A2.73,2.73,0,0,0,799,96V4a2.73,2.73,0,0,0-2.64-2.64Z"/><path class="cls-1" d="M900,2.39a1.64,1.64,0,0,1,1.44.67,1.6,1.6,0,0,1,0,1.52L858.36,98a1.5,1.5,0,0,1-1.47,1h-1.38a1.49,1.49,0,0,1-1.46-1L811.14,4.58a1.54,1.54,0,0,1,0-1.52,1.61,1.61,0,0,1,1.43-.67h14.17a1.6,1.6,0,0,1,1.45.94L855,63.05l.27.59h2l.27-.59L884.35,3.29a1.58,1.58,0,0,1,1.44-.9H900m0-1H885.79a2.56,2.56,0,0,0-2.37,1.53l-26.8,59.72h-.7L829.12,2.92a2.55,2.55,0,0,0-2.36-1.53H812.59A2.45,2.45,0,0,0,810.23,5l42.92,93.47a2.48,2.48,0,0,0,2.36,1.53h1.38a2.5,2.5,0,0,0,2.37-1.53L902.31,5A2.45,2.45,0,0,0,900,1.39Z"/><path class="cls-1" d="M940.25,1a1.37,1.37,0,0,1,1.45.94l42.78,93.48a1.54,1.54,0,0,1,0,1.52,1.61,1.61,0,0,1-1.43.67H971c-1.57,0-2.27-.5-3.12-2.19l-6.81-15-.26-.59H917.94l-.26.59-6.83,15a3.21,3.21,0,0,1-3.1,2.15H895.67a1.61,1.61,0,0,1-1.43-.67,1.54,1.54,0,0,1,0-1.52L937.4,2a1.49,1.49,0,0,1,1.46-1h1.39m-16.4,65.42h31L954.22,65,940.33,34.45l-.27-.59h-1.71l-.26.59L924.48,65l-.63,1.41M940.25,0h-1.39a2.49,2.49,0,0,0-2.36,1.53L893.31,95a2.45,2.45,0,0,0,2.36,3.61h12.08a4.2,4.2,0,0,0,4-2.78l6.81-15h41.52l6.81,15c1,2,2,2.78,4,2.78H983A2.45,2.45,0,0,0,985.39,95L942.61,1.53A2.35,2.35,0,0,0,940.25,0ZM925.39,65.42,939,34.86h.42l13.89,30.56Z"/></g></g></svg>