<svg xmlns="http://www.w3.org/2000/svg" viewBox="0 0 985.67 100"><defs><style>.cls-1{fill:#fff;}</style></defs><g id="Layer_2" data-name="Layer 2"><g id="Layer_2-2" data-name="Layer 2"><path class="cls-1" d="M0,4A2.64,2.64,0,0,1,2.64,1.39H42.36A30.08,30.08,0,0,1,72.64,31.25c0,12.78-8.47,23.19-20.56,28.06l19,35.27a2.63,2.63,0,0,1-2.36,4H54.17A2.36,2.36,0,0,1,52,97.36L33.47,60.56H18.06V96a2.74,2.74,0,0,1-2.64,2.64H2.64A2.64,2.64,0,0,1,0,96ZM40.83,45.69c7.36,0,13.75-6.39,13.75-14.16A13.83,13.83,0,0,0,40.83,18.05H18.2V45.69Z"/><path class="cls-1" d="M90.77,4a2.64,2.64,0,0,1,2.64-2.64h56.53A2.64,2.64,0,0,1,152.58,4V15.42a2.63,2.63,0,0,1-2.64,2.63H108.83V40.83h34.3a2.73,2.73,0,0,1,2.64,2.64V55a2.63,2.63,0,0,1-2.64,2.64h-34.3v24.3h41.11a2.64,2.64,0,0,1,2.64,2.64V96a2.64,2.64,0,0,1-2.64,2.64H93.41A2.64,2.64,0,0,1,90.77,96Z"/><path class="cls-1" d="M212.59,0a52.5,52.5,0,0,1,33.89,12.92,2.68,2.68,0,0,1,.14,3.88l-8.61,9a2.37,2.37,0,0,1-3.61,0,31.55,31.55,0,0,0-21-8c-17.36,0-31.11,14.86-31.11,32.22s13.75,31.8,31.25,31.8a43.49,43.49,0,0,0,16.53-3.47V66.53H219a2.52,2.52,0,0,1-2.64-2.5v-11A2.55,2.55,0,0,1,219,50.42h26.67a2.61,2.61,0,0,1,2.49,2.64V88.61A2.65,2.65,0,0,1,247,90.83a70.13,70.13,0,0,1-34.44,9,49.93,49.93,0,0,1,0-99.86Z"/><path class="cls-1" d="M268.29,4a2.64,2.64,0,0,1,2.64-2.64h56.53A2.64,2.64,0,0,1,330.1,4V15.42a2.63,2.63,0,0,1-2.64,2.63H286.35V40.83h34.3a2.73,2.73,0,0,1,2.64,2.64V55a2.64,2.64,0,0,1-2.64,2.64h-34.3v24.3h41.11a2.64,2.64,0,0,1,2.64,2.64V96a2.64,2.64,0,0,1-2.64,2.64H270.93A2.64,2.64,0,0,1,268.29,96Z"/><path class="cls-1" d="M348.29,2.5A2.61,2.61,0,0,1,350.93,0H353a3.05,3.05,0,0,1,2.36,1L412,61.39h.28V4A2.64,2.64,0,0,1,415,1.39h12.78A2.73,2.73,0,0,1,430.37,4V97.5a2.61,2.61,0,0,1-2.63,2.5h-1.95a3.05,3.05,0,0,1-2.36-1L366.48,36.25h-.27V96a2.64,2.64,0,0,1-2.64,2.64H350.93A2.73,2.73,0,0,1,348.29,96Z"/><path class="cls-1" d="M453.31,4A2.64,2.64,0,0,1,456,1.39h56.53A2.64,2.64,0,0,1,515.12,4V15.42a2.63,2.63,0,0,1-2.64,2.63H471.37V40.83h34.3a2.73,2.73,0,0,1,2.64,2.64V55a2.64,2.64,0,0,1-2.64,2.64h-34.3v24.3h41.11a2.64,2.64,0,0,1,2.64,2.64V96a2.64,2.64,0,0,1-2.64,2.64H456A2.64,2.64,0,0,1,453.31,96Z"/><path class="cls-1" d="M533.31,4A2.64,2.64,0,0,1,536,1.39h39.72A30.08,30.08,0,0,1,606,31.25c0,12.78-8.48,23.19-20.56,28.06l19,35.27a2.63,2.63,0,0,1-2.36,4H587.48a2.39,2.39,0,0,1-2.23-1.25l-18.47-36.8H551.37V96a2.74,2.74,0,0,1-2.65,2.64H536A2.64,2.64,0,0,1,533.31,96Zm40.83,41.66c7.36,0,13.75-6.39,13.75-14.16a13.83,13.83,0,0,0-13.75-13.48H551.5V45.69Z"/><path class="cls-1" d="M614.62,95l43.2-93.47A2.49,2.49,0,0,1,660.18,0h1.39a2.35,2.35,0,0,1,2.36,1.53L706.71,95a2.45,2.45,0,0,1-2.36,3.61H692.26c-2.08,0-3-.83-4-2.78l-6.8-15H639.9l-6.8,15a4.2,4.2,0,0,1-4,2.78H617A2.45,2.45,0,0,1,614.62,95Zm60-29.58L660.74,34.86h-.42L646.71,65.42Z"/><path class="cls-1" d="M725.8,18.05H704.55a2.64,2.64,0,0,1-2.64-2.63V4a2.64,2.64,0,0,1,2.64-2.64h60.7A2.64,2.64,0,0,1,767.89,4V15.42a2.63,2.63,0,0,1-2.64,2.63H744V96a2.73,2.73,0,0,1-2.64,2.64H728.44A2.73,2.73,0,0,1,725.8,96Z"/><path class="cls-1" d="M780.77,4a2.73,2.73,0,0,1,2.64-2.64h12.92A2.73,2.73,0,0,1,799,4V96a2.73,2.73,0,0,1-2.64,2.64H783.41A2.73,2.73,0,0,1,780.77,96Z"/><path class="cls-1" d="M810.23,5a2.45,2.45,0,0,1,2.36-3.61h14.17a2.55,2.55,0,0,1,2.36,1.53l26.8,59.72h.7l26.8-59.72a2.56,2.56,0,0,1,2.36-1.53H900A2.45,2.45,0,0,1,902.31,5l-43,93.47a2.5,2.5,0,0,1-2.37,1.53h-1.38a2.48,2.48,0,0,1-2.36-1.53Z"/><path class="cls-1" d="M893.31,95,936.5,1.53A2.49,2.49,0,0,1,938.86,0h1.39a2.35,2.35,0,0,1,2.36,1.53L985.39,95A2.45,2.45,0,0,1,983,98.61H971c-2.09,0-3.06-.83-4-2.78l-6.81-15H918.59l-6.81,15a4.2,4.2,0,0,1-4,2.78H895.67A2.45,2.45,0,0,1,893.31,95Zm60-29.58L939.42,34.86H939L925.39,65.42Z"/></g></g></svg>