<?xml version="1.0" encoding="utf-8"?>
<!-- Generator: Adobe Illustrator 25.4.1, SVG Export Plug-In . SVG Version: 6.00 Build 0)  -->
<svg version="1.1" id="Layer_1" xmlns="http://www.w3.org/2000/svg" xmlns:xlink="http://www.w3.org/1999/xlink" x="0px" y="0px"
	 viewBox="0 0 470.3 61.5" style="enable-background:new 0 0 470.3 61.5;" xml:space="preserve">
<style type="text/css">
	.st0{fill:#FFFFFF;}
</style>
<g>
	<path class="st0" d="M54.4,61.6c-11.1,0-16.7-4.8-18.8-6.7c-0.9-0.8-1.2-1.4-0.5-2.7l3.1-5.3c0.3-0.5,0.8-0.9,1.4-1
		c0.6-0.1,1.3,0,1.7,0.4c3.7,2.8,7.4,5.2,12.8,5.2c4.3,0,7.6-2.8,7.6-6.4c0-4-3.2-7-10.7-10.1c-6.9-2.8-16.1-7.8-16.1-18.5
		c0-4.1,1.7-8.2,4.5-11.1C42.9,1.8,48,0,54.2,0c9,0,15.8,4.8,17.1,5.7C71.7,6,72,6.4,72.1,7c0.1,0.6,0,1.3-0.3,1.7l-3.2,4.8
		c-0.4,0.5-0.9,1-1.4,1.2c-0.6,0.2-1.2,0.2-1.8-0.1l-0.6-0.4C61.3,12.1,58,10,53.6,10c-5.1,0-7.3,2.9-7.3,5.8c0,3.8,2.9,6.5,9.9,9.4
		c8.8,3.6,17.9,8.6,17.9,19.4C74.1,52.8,67.2,61.6,54.4,61.6z M40,46.1c-0.1,0-0.2,0-0.4,0c-0.4,0.1-0.9,0.3-1.2,0.9l-3.1,5.3
		c-0.7,1.3-0.4,1.7,0.4,2.4l0,0c2.1,1.8,7.7,6.6,18.6,6.6c12.6,0,19.4-8.6,19.4-16.7c0-10.6-8.9-15.6-17.7-19.1
		C48.9,22.5,46,19.7,46,15.8c0-3,2.4-6.1,7.6-6.1c4.5,0,7.8,2.1,11.3,4.3l0.6,0.4c0.5,0.4,1.1,0.3,1.5,0.1c0.5-0.2,1-0.6,1.3-1.1
		l3.2-4.9c0.3-0.4,0.4-0.9,0.3-1.5c-0.1-0.5-0.4-0.9-0.7-1.1c-1.3-1-8-5.7-16.9-5.7c-9.1,0-19,5.1-19,16.2
		c0,10.6,9.1,15.5,15.9,18.2C58.7,37.8,62,40.9,62,45.1c0,3.8-3.5,6.7-7.9,6.7c-5.5,0-9.2-2.5-12.9-5.3C40.8,46.2,40.4,46.1,40,46.1
		z"/>
	<path class="st0" d="M103.7,60.7h-7.9c-0.9,0-1.8-0.8-1.8-1.8V11.4H81.2c-1,0-1.8-0.8-1.8-1.8v-7c0-1,0.8-1.8,1.8-1.8h37.2
		c1,0,1.8,0.8,1.8,1.8v7c0,1-0.8,1.8-1.8,1.8h-12.9v47.6C105.5,59.9,104.7,60.7,103.7,60.7z M81.2,1.1c-0.8,0-1.5,0.7-1.5,1.5v7
		c0,0.8,0.7,1.5,1.5,1.5h13.2v47.9c0,0.8,0.7,1.5,1.5,1.5h7.9c0.8,0,1.5-0.7,1.5-1.5V11h13.2c0.8,0,1.5-0.7,1.5-1.5v-7
		c0-0.8-0.7-1.5-1.5-1.5H81.2z"/>
	<path class="st0" d="M171.6,60.7h-8.9c-1,0-1.4-0.7-1.5-0.9l-11.3-22.5h-9.2v21.5c0,0.9-0.8,1.8-1.8,1.8h-7.8c-1,0-1.8-0.8-1.8-1.8
		V2.6c0-1,0.8-1.8,1.8-1.8h24.3c10.3,0,18.7,8.3,18.7,18.5c0,7.5-4.8,14.1-12.5,17.3L173.1,58c0.3,0.6,0.3,1.3,0,1.9
		C172.8,60.4,172.3,60.7,171.6,60.7z M140.3,37.1h9.7l0,0.1l11.3,22.6c0.1,0.2,0.4,0.7,1.2,0.7h8.9c0.6,0,1.1-0.2,1.3-0.7
		c0.3-0.5,0.3-1,0-1.6l-11.7-21.8l0.2-0.1c7.7-3.1,12.5-9.6,12.5-17c0-10-8.3-18.1-18.4-18.1h-24.3c-0.8,0-1.5,0.7-1.5,1.5v56.3
		c0,0.8,0.7,1.5,1.5,1.5h7.8c0.8,0,1.5-0.7,1.5-1.5V37.1z M154.5,28.3h-14V11h14c4.7,0,8.6,3.9,8.6,8.4
		C163,24.2,159.1,28.3,154.5,28.3z M140.7,28h13.7c4.5,0,8.3-3.9,8.3-8.5c0-4.4-3.8-8.1-8.3-8.1h-13.7V28z"/>
	<path class="st0" d="M233.5,60.7h-7.4c-1.4,0-2-0.7-2.6-1.8l-4.1-9.1h-25.2l-4.1,9.1c-0.2,0.5-0.9,1.8-2.6,1.8H180
		c-0.7,0-1.2-0.3-1.5-0.8c-0.3-0.5-0.3-1.1-0.1-1.7v0L204.9,1c0.3-0.7,0.9-1,1.6-1h0.8c0.9,0,1.3,0.5,1.6,1l26.2,57.3
		c0.3,0.6,0.2,1.2-0.1,1.7C234.8,60.4,234.2,60.7,233.5,60.7z M194,49.5h25.6l4.2,9.3c0.6,1.2,1.2,1.6,2.3,1.6h7.4
		c0.5,0,1-0.2,1.3-0.6c0.2-0.4,0.3-0.9,0-1.4L208.6,1.1c-0.3-0.5-0.6-0.8-1.3-0.8h-0.8c-0.6,0-1,0.3-1.3,0.9l-26.5,57.3
		c-0.2,0.5-0.2,1,0,1.4c0.3,0.4,0.7,0.6,1.3,0.6h7.4c1.5,0,2.1-1.1,2.3-1.6L194,49.5z M215.6,40.4H198l0.1-0.2l8.4-18.8h0.5l0,0.1
		L215.6,40.4z M198.5,40.1h16.6l-8.4-18.4h-0.1L198.5,40.1z"/>
	<path class="st0" d="M257.8,60.7h-7.9c-0.9,0-1.8-0.8-1.8-1.8V11.4h-12.9c-1,0-1.8-0.8-1.8-1.8v-7c0-1,0.8-1.8,1.8-1.8h37.2
		c1,0,1.8,0.8,1.8,1.8v7c0,1-0.8,1.8-1.8,1.8h-12.9v47.6C259.6,59.9,258.8,60.7,257.8,60.7z M235.3,1.1c-0.8,0-1.5,0.7-1.5,1.5v7
		c0,0.8,0.7,1.5,1.5,1.5h13.2v47.9c0,0.8,0.7,1.5,1.5,1.5h7.9c0.8,0,1.5-0.7,1.5-1.5V11h13.2c0.8,0,1.5-0.7,1.5-1.5v-7
		c0-0.8-0.7-1.5-1.5-1.5H235.3z"/>
	<path class="st0" d="M319.8,60.7h-34.6c-1,0-1.8-0.8-1.8-1.8V2.6c0-1,0.8-1.8,1.8-1.8h34.6c1,0,1.8,0.8,1.8,1.8v7
		c0,1-0.8,1.8-1.8,1.8h-25V25h20.9c0.9,0,1.8,0.8,1.8,1.8v7.1c0,1-0.8,1.8-1.8,1.8h-20.9v14.6h25c1,0,1.8,0.8,1.8,1.8v7
		C321.6,59.9,320.8,60.7,319.8,60.7z M285.2,1.1c-0.8,0-1.5,0.7-1.5,1.5v56.3c0,0.8,0.7,1.5,1.5,1.5h34.6c0.8,0,1.5-0.7,1.5-1.5v-7
		c0-0.8-0.7-1.5-1.5-1.5h-25.3V35.3h21.2c0.8,0,1.5-0.7,1.5-1.5v-7.1c0-0.8-0.7-1.5-1.5-1.5h-21.2V11h25.3c0.8,0,1.5-0.7,1.5-1.5v-7
		c0-0.8-0.7-1.5-1.5-1.5H285.2z"/>
	<path class="st0" d="M358.7,61.5c-8.2,0-16-3.2-21.7-8.9c-5.8-5.8-9-13.5-9-21.7c0-8.3,3.2-16,9-21.9c5.8-5.8,13.5-9,21.7-9
		c7.4,0,14.9,2.8,20.9,8c0.8,0.8,0.8,1.9,0.1,2.6l-5.3,5.5c-0.7,0.7-1.6,0.7-2.4,0c-3.6-3.2-8-4.9-12.7-4.9
		c-10.4,0-18.9,8.8-18.9,19.6c0,10.7,8.5,19.3,19,19.3c4.7,0,8.3-1.4,10-2.1v-7h-6.7c-1,0-1.8-0.7-1.8-1.7v-6.7c0-1,0.7-1.8,1.8-1.8
		H379c0.9,0,1.7,0.8,1.7,1.8v21.8c0,0.8-0.4,1.2-0.7,1.5C379.8,56,371,61.5,358.7,61.5z M358.7,0.3c-8.1,0-15.8,3.2-21.5,8.9
		c-5.7,5.8-8.9,13.4-8.9,21.6c0,8.2,3.2,15.8,8.9,21.5c5.7,5.7,13.4,8.8,21.5,8.8c12.1,0,20.9-5.5,21-5.5c0.4-0.3,0.6-0.7,0.6-1.2
		V32.6c0-0.8-0.6-1.5-1.4-1.5h-16.3c-0.8,0-1.5,0.6-1.5,1.5v6.7c0,0.8,0.6,1.4,1.5,1.4h7v7.5l-0.1,0c-1.6,0.6-5.4,2.1-10.2,2.1
		c-10.6,0-19.3-8.8-19.3-19.6c0-11,8.6-19.9,19.2-19.9c4.8,0,9.3,1.7,13,5c0.7,0.6,1.4,0.6,2,0l5.3-5.5c0.6-0.6,0.6-1.5-0.1-2.2
		C373.4,3.1,366.1,0.3,358.7,0.3z"/>
	<path class="st0" d="M413.9,60.7h-7.8c-1,0-1.8-0.8-1.8-1.8v-27L384.9,3.5c-0.4-0.6-0.4-1.3-0.1-1.8c0.3-0.5,0.9-0.9,1.6-0.9h8.7
		c0.6,0,1.1,0.3,1.5,0.8l13.5,19.4l13.5-19.4c0.4-0.6,0.9-0.8,1.5-0.8h8.8c0.7,0,1.3,0.3,1.6,0.9c0.3,0.6,0.3,1.2-0.1,1.8
		l-19.6,28.3v27.1C415.7,59.9,414.8,60.7,413.9,60.7z M386.4,1.1c-0.6,0-1,0.3-1.3,0.7c-0.3,0.5-0.2,1,0.1,1.5l19.4,28.5v27.1
		c0,0.8,0.7,1.5,1.5,1.5h7.8c0.8,0,1.5-0.7,1.5-1.5V31.7l0,0l19.7-28.3c0.3-0.5,0.3-1.1,0.1-1.5c-0.3-0.5-0.7-0.7-1.3-0.7h-8.8
		c-0.5,0-0.9,0.2-1.2,0.7l-13.7,19.8l-0.1-0.2L396.3,1.8c-0.4-0.5-0.8-0.7-1.2-0.7H386.4z"/>
</g>
</svg>
