<svg xmlns="http://www.w3.org/2000/svg" viewBox="0 0 348.29 61.23"><defs><style>.cls-1{fill:#fff;}</style></defs><g id="Layer_2" data-name="Layer 2"><g id="Layer_1-2" data-name="Layer 1"><path class="cls-1" d="M.85,54.59C0,53.91-.34,53.4.43,52l3.06-5.27a2,2,0,0,1,2.89-.6c3.49,2.64,7.31,5.28,12.84,5.28,4.42,0,7.74-2.89,7.74-6.55,0-4.34-3.66-7.31-10.8-10.21-8-3.23-16-8.33-16-18.36C.17,8.76,5.78,0,19.3,0a29.89,29.89,0,0,1,17,5.7,2.09,2.09,0,0,1,.51,2.8l-3.23,4.85c-.68,1-2,1.7-3,1C27,12.08,23.47,9.69,18.79,9.69c-4.84,0-7.48,2.73-7.48,6,0,4,3.15,6.71,10,9.52,8.24,3.32,17.77,8.25,17.77,19.22,0,8.76-7.57,16.84-19.56,16.84C8.84,61.23,3.32,56.72.85,54.59Z"/><path class="cls-1" d="M47.62,2.47A1.67,1.67,0,0,1,49.23.85h8.08a1.62,1.62,0,0,1,1.62,1.62V37.93c0,7.22,4.93,12.24,12.33,12.24s12.41-5,12.41-12.16V2.47A1.63,1.63,0,0,1,85.29.85h8.08A1.67,1.67,0,0,1,95,2.47V38.52C95,51.45,84.7,61.23,71.26,61.23S47.62,51.45,47.62,38.52Z"/><path class="cls-1" d="M107.4,2.47A1.62,1.62,0,0,1,109,.85h24.32a18.41,18.41,0,0,1,18.54,18.28c0,7.83-5.19,14.2-12.58,17.18l11.64,21.6a1.61,1.61,0,0,1-1.44,2.47h-8.93a1.45,1.45,0,0,1-1.36-.77L127.89,37.08h-9.44V58.76a1.67,1.67,0,0,1-1.62,1.62H109a1.62,1.62,0,0,1-1.61-1.62ZM132.4,28a8.67,8.67,0,0,0,8.42-8.68,8.47,8.47,0,0,0-8.42-8.25H118.54V28Z"/><path class="cls-1" d="M171.68,11.05h-13a1.61,1.61,0,0,1-1.62-1.61v-7A1.62,1.62,0,0,1,158.67.85h37.16a1.62,1.62,0,0,1,1.62,1.62v7a1.61,1.61,0,0,1-1.62,1.61h-13V58.76a1.68,1.68,0,0,1-1.62,1.62h-7.91a1.67,1.67,0,0,1-1.61-1.62Z"/><path class="cls-1" d="M205.44,2.47A1.67,1.67,0,0,1,207.05.85H215a1.68,1.68,0,0,1,1.62,1.62V58.76A1.68,1.68,0,0,1,215,60.38h-7.91a1.67,1.67,0,0,1-1.61-1.62Z"/><path class="cls-1" d="M229.58,2.47A1.6,1.6,0,0,1,231.12.85h20.15a29.77,29.77,0,1,1,0,59.53H231.12a1.6,1.6,0,0,1-1.54-1.62ZM250.25,50c11.05,0,19.13-7.82,19.13-19.47s-8.08-19.39-19.13-19.39h-9.7V50Z"/><path class="cls-1" d="M317.68,0a30.62,30.62,0,0,1,0,61.23A30.34,30.34,0,0,1,287.15,30.7,30.49,30.49,0,0,1,317.68,0Zm0,50.17A19.56,19.56,0,1,0,298.2,30.7,19.6,19.6,0,0,0,317.68,50.17Z"/></g></g></svg>