<?xml version="1.0" encoding="utf-8"?>
<!-- Generator: Adobe Illustrator 25.4.1, SVG Export Plug-In . SVG Version: 6.00 Build 0)  -->
<svg version="1.1" id="Layer_1" xmlns="http://www.w3.org/2000/svg" xmlns:xlink="http://www.w3.org/1999/xlink" x="0px" y="0px"
	 viewBox="0 0 470 61.2" style="enable-background:new 0 0 470 61.2;" xml:space="preserve">
<style type="text/css">
	.st0{fill:#FFFFFF;}
</style>
<g>
	<path class="st0" d="M35.5,54.6c-0.9-0.7-1.2-1.2-0.4-2.6l3.1-5.3c0.7-1.2,2.1-1.2,2.9-0.6c3.5,2.6,7.3,5.3,12.9,5.3
		c4.4,0,7.7-2.9,7.7-6.6c0-4.3-3.7-7.3-10.8-10.2c-8-3.2-16-8.3-16-18.4C34.9,8.7,40.5,0,54,0c8.7,0,15.3,4.4,17,5.7
		c0.9,0.5,1.1,2,0.5,2.8l-3.2,4.9c-0.7,1-2,1.7-3,1c-3.7-2.3-7.1-4.7-11.8-4.7c-4.9,0-7.5,2.7-7.5,6c0,4,3.1,6.7,10,9.5
		c8.3,3.3,17.8,8.3,17.8,19.2c0,8.8-7.6,16.9-19.6,16.9C43.5,61.3,38,56.7,35.5,54.6z"/>
	<path class="st0" d="M94,11H81c-0.9,0-1.6-0.8-1.6-1.6v-7c0-0.9,0.7-1.6,1.6-1.6h37.2c0.9,0,1.6,0.8,1.6,1.6v7
		c0,0.9-0.7,1.6-1.6,1.6h-13v47.7c0,0.9-0.8,1.6-1.6,1.6h-7.9c-0.9,0-1.6-0.8-1.6-1.6V11z"/>
	<path class="st0" d="M129.3,2.4c0-0.9,0.7-1.6,1.6-1.6h24.3c10.2,0,18.6,8.2,18.6,18.3c0,7.8-5.2,14.2-12.6,17.2l11.7,21.6
		c0.6,1.1,0,2.5-1.4,2.5h-8.9c-0.8,0-1.2-0.4-1.4-0.8l-11.3-22.6h-9.4v21.7c0,0.9-0.8,1.6-1.6,1.6h-7.8c-0.9,0-1.6-0.8-1.6-1.6V2.4z
		 M154.3,28c4.5,0,8.4-3.9,8.4-8.7c0-4.5-3.9-8.3-8.4-8.3h-13.9V28H154.3z"/>
	<path class="st0" d="M178.4,58.2l26.5-57.3c0.3-0.5,0.7-0.9,1.4-0.9h0.8c0.9,0,1.2,0.4,1.4,0.9l26.2,57.3c0.5,1.1-0.2,2.2-1.4,2.2
		H226c-1.3,0-1.9-0.5-2.5-1.7l-4.2-9.2h-25.4l-4.2,9.2c-0.3,0.8-1.1,1.7-2.5,1.7h-7.4C178.6,60.4,177.9,59.3,178.4,58.2z
		 M215.2,40.1l-8.5-18.7h-0.3l-8.3,18.7H215.2z"/>
	<path class="st0" d="M248.1,11h-13c-0.9,0-1.6-0.8-1.6-1.6v-7c0-0.9,0.7-1.6,1.6-1.6h37.2c0.9,0,1.6,0.8,1.6,1.6v7
		c0,0.9-0.7,1.6-1.6,1.6h-13v47.7c0,0.9-0.8,1.6-1.6,1.6h-7.9c-0.9,0-1.6-0.8-1.6-1.6V11z"/>
	<path class="st0" d="M283.4,2.4c0-0.9,0.7-1.6,1.6-1.6h34.6c0.9,0,1.6,0.8,1.6,1.6v7c0,0.9-0.7,1.6-1.6,1.6h-25.2v14h21
		c0.8,0,1.6,0.8,1.6,1.6v7.1c0,0.9-0.8,1.6-1.6,1.6h-21v14.9h25.2c0.9,0,1.6,0.8,1.6,1.6v7c0,0.9-0.7,1.6-1.6,1.6H285
		c-0.9,0-1.6-0.8-1.6-1.6V2.4z"/>
	<path class="st0" d="M358.6,0c7.7,0,15,3,20.8,7.9c0.7,0.7,0.8,1.7,0.1,2.4l-5.3,5.5c-0.7,0.7-1.4,0.7-2.2,0
		c-3.7-3.2-8.2-4.9-12.9-4.9c-10.6,0-19.1,9.1-19.1,19.7c0,10.6,8.4,19.5,19.1,19.5c4.8,0,8.4-1.4,10.1-2.1v-7.2h-6.8
		c-0.9,0-1.6-0.7-1.6-1.5v-6.7c0-0.9,0.7-1.6,1.6-1.6h16.3c0.8,0,1.5,0.8,1.5,1.6v21.8c0,0.7-0.3,1.1-0.7,1.4c0,0-8.8,5.5-21.1,5.5
		c-16.9,0-30.6-13.4-30.6-30.5C328,13.7,341.6,0,358.6,0z"/>
	<path class="st0" d="M404.3,31.7L384.9,3.3c-0.7-1.1,0-2.5,1.4-2.5h8.7c0.7,0,1.1,0.4,1.4,0.8l13.6,19.6l13.6-19.6
		c0.3-0.3,0.7-0.8,1.4-0.8h8.8c1.4,0,2,1.4,1.4,2.5l-19.7,28.3v27.1c0,0.9-0.8,1.6-1.6,1.6h-7.8c-0.9,0-1.6-0.8-1.6-1.6V31.7z"/>
</g>
</svg>
