<?xml version="1.0" encoding="utf-8"?>
<!-- Generator: Adobe Illustrator 25.4.1, SVG Export Plug-In . SVG Version: 6.00 Build 0)  -->
<svg version="1.1" id="Layer_1" xmlns="http://www.w3.org/2000/svg" xmlns:xlink="http://www.w3.org/1999/xlink" x="0px" y="0px"
	 viewBox="0 0 481.5 61.2" style="enable-background:new 0 0 481.5 61.2;" xml:space="preserve">
<style type="text/css">
	.st0{fill:#FFFFFF;}
</style>
<g>
	<path class="st0" d="M30.1,2.5c0-0.9,0.7-1.6,1.5-1.6h20.2c16.4,0,29.9,13.4,29.9,29.7c0,16.5-13.4,29.9-29.9,29.9H31.6
		c-0.9,0-1.5-0.8-1.5-1.6V2.5z M50.8,50.1c11.1,0,19.1-7.8,19.1-19.5c0-11.6-8.1-19.4-19.1-19.4h-9.7v38.9
		C41.1,50.1,50.8,50.1,50.8,50.1z"/>
	<path class="st0" d="M92.7,2.5c0-0.9,0.8-1.6,1.6-1.6h7.9c0.8,0,1.6,0.8,1.6,1.6v56.3c0,0.9-0.8,1.6-1.6,1.6h-7.9
		c-0.9,0-1.6-0.8-1.6-1.6V2.5z"/>
	<path class="st0" d="M115.8,54.7c-0.9-0.7-1.2-1.2-0.4-2.6l3.1-5.3c0.7-1.2,2.1-1.2,2.9-0.6c3.5,2.6,7.3,5.3,12.8,5.3
		c4.4,0,7.7-2.9,7.7-6.6c0-4.3-3.7-7.3-10.8-10.2c-8-3.2-16-8.3-16-18.4c0-7.6,5.6-16.3,19.1-16.3c8.7,0,15.3,4.4,17,5.7
		c0.9,0.5,1.1,2,0.5,2.8l-3.2,4.9c-0.7,1-2,1.7-3,1c-3.7-2.3-7.1-4.7-11.8-4.7c-4.9,0-7.5,2.7-7.5,6c0,4,3.1,6.7,10,9.5
		c8.3,3.3,17.8,8.3,17.8,19.2c0,8.8-7.6,16.9-19.6,16.9C123.8,61.3,118.3,56.8,115.8,54.7z"/>
	<path class="st0" d="M191.9,0c8.6,0,14.8,2.7,20.6,7.9c0.8,0.7,0.8,1.7,0.1,2.4l-5.2,5.4c-0.6,0.7-1.4,0.7-2.1,0
		c-3.6-3.1-8.3-5-13.1-5c-10.9,0-19,9.1-19,19.8c0,10.6,8.2,19.7,19.1,19.7c5.1,0,9.4-2,13-4.9c0.7-0.6,1.6-0.5,2.1,0l5.3,5.4
		c0.7,0.6,0.5,1.7-0.1,2.3c-5.8,5.6-13.1,8.3-20.7,8.3c-17,0-30.7-13.5-30.7-30.5C161.2,13.7,174.9,0,191.9,0z"/>
	<path class="st0" d="M249,0c17,0,30.6,13.7,30.6,30.7S266,61.2,249,61.2s-30.5-13.5-30.5-30.5C218.4,13.7,232,0,249,0z M249,50.2
		c10.7,0,19.6-8.8,19.6-19.5S259.8,11,249,11s-19.5,8.9-19.5,19.7S238.3,50.2,249,50.2z"/>
	<path class="st0" d="M290,2.5c0-0.9,0.8-1.6,1.6-1.6h8.1c0.9,0,1.6,0.8,1.6,1.6V38c0,7.2,4.9,12.3,12.3,12.3s12.4-5,12.4-12.2V2.5
		c0-0.9,0.7-1.6,1.6-1.6h8.1c0.9,0,1.6,0.8,1.6,1.6v36.1c0,12.9-10.3,22.7-23.7,22.7c-13.4,0-23.7-9.8-23.7-22.7V2.5H290z"/>
	<path class="st0" d="M351.3,1.6c0-0.9,0.8-1.5,1.6-1.5h1.3c0.6,0,1,0.2,1.4,0.6l34.7,37h0.2V2.5c0-0.9,0.7-1.6,1.6-1.6h7.8
		c0.8,0,1.6,0.8,1.6,1.6v57.3c0,0.8-0.8,1.5-1.6,1.5h-1.2c-0.6,0-1-0.2-1.4-0.6l-34.9-38.5h-0.2v36.6c0,0.9-0.7,1.6-1.6,1.6h-7.7
		c-0.8,0-1.6-0.8-1.6-1.6L351.3,1.6L351.3,1.6z"/>
	<path class="st0" d="M425.7,11.1h-13c-0.9,0-1.6-0.8-1.6-1.6v-7c0-0.9,0.7-1.6,1.6-1.6h37.2c0.9,0,1.6,0.8,1.6,1.6v7
		c0,0.9-0.7,1.6-1.6,1.6h-13v47.7c0,0.9-0.8,1.6-1.6,1.6h-7.9c-0.9,0-1.6-0.8-1.6-1.6V11.1H425.7z"/>
</g>
</svg>
