<svg xmlns="http://www.w3.org/2000/svg" viewBox="0 0 475.5 80.3"><defs><style>.cls-1{fill:#fff;}</style></defs><g id="Layer_2" data-name="Layer 2"><g id="Layer_1-2" data-name="Layer 1"><path class="cls-1" d="M30.53,19.07A30.62,30.62,0,1,1,0,49.77,30.55,30.55,0,0,1,30.53,19.07Zm0,50.17A19.56,19.56,0,1,0,11.05,49.77,19.6,19.6,0,0,0,30.53,69.24Z"/><path class="cls-1" d="M70.66,21.54a1.62,1.62,0,0,1,1.62-1.62h20a19,19,0,1,1,.09,37.93H81.72v20a1.68,1.68,0,0,1-1.62,1.62H72.28a1.62,1.62,0,0,1-1.62-1.62ZM91.92,47.48c4.76,0,8.42-3.83,8.42-8.85a8.19,8.19,0,0,0-8.42-8.25H81.72v17.1Z"/><path class="cls-1" d="M119.3,21.54a1.62,1.62,0,0,1,1.61-1.62h34.61a1.62,1.62,0,0,1,1.62,1.62v7a1.62,1.62,0,0,1-1.62,1.62H130.35V44.07h21A1.67,1.67,0,0,1,153,45.69v7.06a1.61,1.61,0,0,1-1.61,1.61h-21V69.24h25.17a1.62,1.62,0,0,1,1.62,1.62v7a1.62,1.62,0,0,1-1.62,1.62H120.91a1.62,1.62,0,0,1-1.61-1.62Z"/><path class="cls-1" d="M166.83,21.54a1.62,1.62,0,0,1,1.62-1.62h24.32A18.42,18.42,0,0,1,211.3,38.21c0,7.82-5.18,14.2-12.58,17.17L210.37,77a1.61,1.61,0,0,1-1.45,2.47H200a1.47,1.47,0,0,1-1.36-.77L187.32,56.15h-9.44V77.83a1.67,1.67,0,0,1-1.61,1.62h-7.82a1.62,1.62,0,0,1-1.62-1.62Zm25,25.51a8.66,8.66,0,0,0,8.42-8.67,8.46,8.46,0,0,0-8.42-8.25H178V47.05Z"/><path class="cls-1" d="M214.45,77.24,240.89,20a1.54,1.54,0,0,1,1.45-.94h.85a1.44,1.44,0,0,1,1.44.94l26.2,57.23a1.5,1.5,0,0,1-1.45,2.21H262a2.44,2.44,0,0,1-2.46-1.7l-4.17-9.19H229.92l-4.16,9.19a2.57,2.57,0,0,1-2.47,1.7h-7.4A1.5,1.5,0,0,1,214.45,77.24Zm36.73-18.12-8.5-18.7h-.26l-8.33,18.7Z"/><path class="cls-1" d="M304.07,19.07A28.77,28.77,0,0,1,324.65,27a1.58,1.58,0,0,1,.09,2.38l-5.19,5.36a1.37,1.37,0,0,1-2.13,0,20.09,20.09,0,0,0-13.09-5c-10.89,0-19,9.1-19,19.82s8.17,19.64,19.05,19.64a20.42,20.42,0,0,0,13-4.85,1.58,1.58,0,0,1,2.13,0l5.27,5.44a1.63,1.63,0,0,1-.08,2.3,29.22,29.22,0,0,1-20.67,8.25,30.62,30.62,0,1,1,0-61.23Z"/><path class="cls-1" d="M333.92,21.54a1.67,1.67,0,0,1,1.61-1.62h7.91a1.67,1.67,0,0,1,1.61,1.62V77.83a1.67,1.67,0,0,1-1.61,1.62h-7.91a1.67,1.67,0,0,1-1.61-1.62Z"/><path class="cls-1" d="M385.11,19.07a30.62,30.62,0,1,1-30.53,30.7A30.56,30.56,0,0,1,385.11,19.07Zm0,50.17a19.56,19.56,0,1,0-19.48-19.47A19.59,19.59,0,0,0,385.11,69.24ZM376,9.89,390.38.36c1.44-.93,3.57,0,4.59,2s1,4.34-.43,5l-15.73,7.23c-.93.43-2.12-.34-2.8-1.62S375.41,10.31,376,9.89Z"/><path class="cls-1" d="M425.24,20.6a1.59,1.59,0,0,1,1.61-1.53h1.28a1.84,1.84,0,0,1,1.44.6l34.7,37h.17V21.54a1.62,1.62,0,0,1,1.62-1.62h7.82a1.68,1.68,0,0,1,1.62,1.62V78.77a1.6,1.6,0,0,1-1.62,1.53h-1.19a1.86,1.86,0,0,1-1.45-.6L436.38,41.27h-.17V77.83a1.62,1.62,0,0,1-1.62,1.62h-7.74a1.67,1.67,0,0,1-1.61-1.62Z"/></g></g></svg>