<?xml version="1.0" encoding="utf-8"?>
<!-- Generator: Adobe Illustrator 25.4.1, SVG Export Plug-In . SVG Version: 6.00 Build 0)  -->
<svg version="1.1" id="Layer_1" xmlns="http://www.w3.org/2000/svg" xmlns:xlink="http://www.w3.org/1999/xlink" x="0px" y="0px"
	 viewBox="0 0 481.8 61.5" style="enable-background:new 0 0 481.8 61.5;" xml:space="preserve">
<style type="text/css">
	.st0{fill:#FFFFFF;}
</style>
<g>
	<path class="st0" d="M51.9,60.8H31.7c-1,0-1.6-0.9-1.6-1.8V2.6c0-1,0.7-1.8,1.6-1.8h20.2c8,0,15.5,3.1,21.2,8.8
		c5.7,5.7,8.8,13.1,8.8,21.1C81.9,47.3,68.5,60.8,51.9,60.8z M31.7,1.1c-0.7,0-1.4,0.7-1.4,1.5V59c0,0.7,0.5,1.4,1.4,1.4h20.2
		c16.4,0,29.8-13.3,29.8-29.7c0-7.8-3.1-15.2-8.8-20.9c-5.6-5.6-13.1-8.7-21-8.7H31.7z M50.9,50.4h-9.8V11.1h9.8
		c11.3,0,19.2,8,19.2,19.6C70.1,42.3,62.2,50.4,50.9,50.4z M41.4,50h9.5c11.2,0,19-8,19-19.3c0-11.3-7.8-19.3-19-19.3h-9.5V50z"/>
	<path class="st0" d="M102.3,60.7h-7.9c-0.9,0-1.8-0.8-1.8-1.8V2.6c0-0.9,0.8-1.8,1.8-1.8h7.9c0.9,0,1.8,0.9,1.8,1.8v56.3
		C104,59.8,103.2,60.7,102.3,60.7z M94.4,1.1c-0.7,0-1.5,0.6-1.5,1.5v56.3c0,0.7,0.6,1.4,1.5,1.4h7.9c0.7,0,1.5-0.6,1.5-1.4V2.6
		c0-0.7-0.7-1.5-1.5-1.5H94.4z"/>
	<path class="st0" d="M134.5,61.6c-10.8,0-16.3-4.6-18.7-6.6c-1-0.8-1.3-1.3-0.4-2.8l3.1-5.3c0.4-0.7,1-0.9,1.4-1
		c0.6-0.1,1.2,0,1.7,0.4c3.2,2.3,7.1,5.3,12.7,5.3c4.3,0,7.6-2.8,7.6-6.4c0-4-3.2-7-10.7-10.1c-6.9-2.8-16.1-7.7-16.1-18.5
		c0-4.1,1.7-8.2,4.5-11.1C123,1.8,128.1,0,134.3,0c9.1,0,15.8,4.8,17.1,5.7c0.4,0.2,0.7,0.7,0.8,1.3c0.1,0.6,0,1.3-0.3,1.7l-3.2,4.9
		c-0.4,0.5-0.9,1-1.5,1.2c-0.6,0.3-1.2,0.2-1.8-0.2c-0.3-0.2-0.6-0.4-0.9-0.6c-3.4-2.1-6.5-4.1-10.8-4.1c-4.5,0-7.4,2.3-7.4,5.9
		c0,3.8,2.9,6.5,9.9,9.4c8.8,3.5,17.9,8.6,17.9,19.3C154.2,52.8,147.3,61.6,134.5,61.6z M120.3,46.1c-0.1,0-0.2,0-0.4,0
		c-0.4,0.1-0.8,0.3-1.2,0.9l-3.1,5.3c-0.8,1.3-0.5,1.8,0.4,2.4l0,0c2.3,2,7.8,6.6,18.5,6.6c12.6,0,19.5-8.6,19.5-16.8
		c0-10.6-9-15.6-17.7-19.1c-7.2-2.9-10.1-5.7-10.1-9.6c0-4.2,3.8-6.1,7.6-6.1c4.4,0,7.6,2,11,4.2c0.3,0.2,0.6,0.4,0.9,0.6
		c0.9,0.7,2.1,0,2.8-1l3.2-4.9c0.3-0.4,0.4-1,0.3-1.5c-0.1-0.5-0.4-0.9-0.7-1.1c-1.3-1-7.9-5.7-16.9-5.7c-6.1,0-11.1,1.8-14.5,5.3
		c-2.8,2.9-4.4,6.8-4.4,10.9c0,10.7,9.1,15.5,15.9,18.3c7.6,3.1,10.9,6.2,10.9,10.3c0,3.8-3.4,6.8-7.9,6.8c-5.7,0-9.7-3-12.9-5.3
		C121.1,46.2,120.7,46.1,120.3,46.1z"/>
	<path class="st0" d="M192,61.6c-8.3,0-16-3.2-21.8-8.9c-5.8-5.8-9-13.5-9-21.7c0-8.3,3.2-16.1,9-21.9c5.8-5.8,13.6-9,21.8-9
		c8.2,0,14.6,2.4,20.7,7.9c0.4,0.4,0.6,0.8,0.7,1.3c0,0.5-0.2,0.9-0.6,1.3l-5.2,5.4c-0.3,0.4-0.7,0.6-1.1,0.6
		c-0.4,0-0.9-0.2-1.2-0.6c-3.7-3.1-8.4-5-13-5c-10.6,0-18.9,8.6-18.9,19.7c0,10.8,8.5,19.5,19,19.5c4.6,0,8.9-1.6,12.9-4.9
		c0.8-0.7,1.8-0.5,2.3,0l5.3,5.4c0.3,0.3,0.5,0.6,0.5,1c0,0.5-0.2,1.1-0.6,1.5C207.2,58.7,200,61.6,192,61.6z M192,0.2
		c-8.2,0-15.9,3.2-21.6,8.9c-5.8,5.8-8.9,13.5-8.9,21.7c0,8.2,3.2,15.8,8.9,21.5c5.7,5.7,13.4,8.8,21.6,8.8c7.9,0,15-2.9,20.6-8.3
		c0.3-0.3,0.5-0.8,0.5-1.2c0-0.2-0.1-0.6-0.4-0.8l-5.3-5.4c-0.4-0.4-1.2-0.6-1.9,0c-4.1,3.3-8.5,4.9-13.1,4.9
		c-10.6,0-19.2-8.9-19.2-19.9c0-5.3,1.9-10.3,5.5-14c3.6-3.8,8.5-5.9,13.7-5.9c4.7,0,9.5,1.8,13.2,5c0.3,0.3,0.7,0.5,1,0.5
		c0.3,0,0.6-0.2,0.9-0.5l5.2-5.4c0.3-0.3,0.5-0.7,0.5-1.1c0-0.4-0.2-0.8-0.6-1.1C206.4,2.7,200.1,0.2,192,0.2z"/>
	<path class="st0" d="M249.1,61.5c-8.3,0-16-3.2-21.7-8.9c-5.8-5.8-8.9-13.5-8.9-21.7c0-8.3,3.1-16,8.9-21.8c5.8-5.8,13.5-9,21.8-9
		s16,3.2,21.8,9c5.8,5.8,9,13.6,9,21.8c0,8.3-3.2,16-9,21.7C265.1,58.3,257.4,61.5,249.1,61.5z M249.1,0.2c-8.2,0-15.8,3.2-21.5,8.9
		c-5.7,5.8-8.9,13.4-8.8,21.6c0,8.2,3.1,15.8,8.8,21.5c5.7,5.7,13.3,8.8,21.5,8.8c8.2,0,15.8-3.1,21.6-8.8
		c5.7-5.7,8.9-13.3,8.9-21.5c0-8.2-3.2-15.9-8.9-21.6C264.9,3.4,257.3,0.2,249.1,0.2z M249.1,50.5c-10.8,0-19.6-8.8-19.6-19.7
		c0-10.9,8.8-19.8,19.6-19.8c5.2,0,10.2,2.1,14,5.9c3.7,3.8,5.8,8.7,5.8,14c0,5.2-2.1,10.1-5.8,13.9
		C259.3,48.4,254.3,50.5,249.1,50.5z M249.1,11.2c-10.7,0-19.3,8.8-19.3,19.5c0,10.7,8.7,19.3,19.3,19.3c5.1,0,10-2,13.7-5.7
		c3.7-3.7,5.7-8.5,5.7-13.7c0-5.2-2-10-5.7-13.8C259.1,13.3,254.3,11.2,249.1,11.2z"/>
	<path class="st0" d="M313.7,61.6c-6.5,0-12.6-2.3-17-6.6c-4.4-4.2-6.9-10-6.9-16.3V2.5h0.1c0.1-0.9,0.9-1.6,1.7-1.6h8.1
		c0.9,0,1.8,0.8,1.8,1.8v35.5c0,7.3,4.9,12.2,12.1,12.2c7.3,0,12.2-4.8,12.2-12V2.6c0-1,0.8-1.8,1.8-1.8h8.1c0.9,0,1.8,0.8,1.8,1.8
		v36.1c0,6.3-2.4,12.1-6.9,16.3C326.3,59.2,320.2,61.6,313.7,61.6z M290.2,2.8v36c0,6.2,2.4,11.9,6.8,16.1
		c4.4,4.2,10.3,6.5,16.8,6.5c6.4,0,12.4-2.3,16.8-6.5c4.4-4.2,6.8-9.9,6.8-16.1V2.6c0-0.7-0.6-1.5-1.5-1.5h-8.1
		c-0.8,0-1.5,0.6-1.5,1.5v35.6c0,7.3-5.2,12.4-12.5,12.4c-7.3,0-12.5-5.1-12.5-12.5V2.6c0-0.7-0.6-1.5-1.5-1.5h-8.1
		c-0.7,0-1.5,0.6-1.5,1.5L290.2,2.8L290.2,2.8z"/>
	<path class="st0" d="M400,61.6h-1.2c-0.6,0-1.1-0.2-1.5-0.6l-34.8-38.4v36.4c0,1-0.8,1.8-1.8,1.8H353c-0.9,0-1.8-0.9-1.8-1.8V1.7
		c0-1,0.9-1.6,1.8-1.6h1.3c0.6,0,1.1,0.2,1.5,0.6l34.6,36.9v-35c0-1,0.8-1.8,1.8-1.8h7.8c0.9,0,1.8,0.9,1.8,1.8v57.3
		C401.8,60.8,400.9,61.6,400,61.6z M362.1,22.1h0.4l0,0l34.9,38.5c0.4,0.4,0.8,0.6,1.3,0.6h1.2c0.7,0,1.4-0.7,1.4-1.3V2.6
		c0-0.7-0.7-1.5-1.4-1.5h-7.8c-0.8,0-1.5,0.6-1.5,1.5V38h-0.4l0,0l-34.7-37c-0.4-0.4-0.8-0.6-1.3-0.6H353c-0.7,0-1.4,0.5-1.4,1.4
		v57.2c0,0.7,0.7,1.4,1.4,1.4h7.7c0.8,0,1.4-0.6,1.4-1.4V22.1z"/>
	<path class="st0" d="M435.4,60.7h-7.9c-0.9,0-1.8-0.8-1.8-1.8V11.4h-13c-0.9,0-1.8-0.8-1.8-1.8v-7c0-1,0.8-1.8,1.8-1.8H450
		c0.9,0,1.8,0.8,1.8,1.8v7c0,1-0.8,1.8-1.8,1.8h-12.8v47.6C437.2,59.8,436.3,60.7,435.4,60.7z M412.8,1.1c-0.8,0-1.4,0.6-1.4,1.5v7
		c0,0.7,0.6,1.5,1.4,1.5h13.3v47.9c0,0.7,0.6,1.4,1.4,1.4h7.9c0.7,0,1.4-0.6,1.4-1.4V11.1H450c0.8,0,1.4-0.6,1.4-1.5v-7
		c0-0.7-0.6-1.5-1.4-1.5H412.8z"/>
</g>
</svg>
