<?xml version="1.0" encoding="utf-8"?>
<!-- Generator: Adobe Illustrator 26.0.3, SVG Export Plug-In . SVG Version: 6.00 Build 0)  -->
<svg version="1.1" id="Capa_1" xmlns="http://www.w3.org/2000/svg" xmlns:xlink="http://www.w3.org/1999/xlink" x="0px" y="0px"
	 viewBox="0 0 271.9 113.4" style="enable-background:new 0 0 271.9 113.4;" xml:space="preserve">
<style type="text/css">
	.st0{fill:#FFB71B;}
	.st1{fill:#007DC3;}
</style>
<path class="st0" d="M34.3,26c1.8,0,3.3-0.9,3.5-2.2l1.8-20.2c0-2-2.3-3.6-5.3-3.6s-5.3,1.6-5.3,3.6l1.8,20.2
	C31.1,25,32.6,26,34.3,26L34.3,26z"/>
<path class="st0" d="M23.4,32.3c0.9-1.6,0.8-3.3-0.1-4.1L6.7,16.5c-1.7-1-4.3,0.2-5.8,2.8s-1.2,5.4,0.5,6.4l18.4,8.5
	C21,34.6,22.6,33.8,23.4,32.3L23.4,32.3z"/>
<path class="st0" d="M45.3,32.3c0.9,1.6,2.5,2.4,3.6,2l18.4-8.5c1.7-1,2-3.8,0.5-6.4s-4.1-3.7-5.8-2.8L45.4,28.2
	C44.5,29,44.4,30.7,45.3,32.3L45.3,32.3z"/>
<path class="st0" d="M45.3,44.9c0.9-1.6,2.5-2.4,3.6-2l18.4,8.5c1.7,1,2,3.8,0.5,6.4s-4.1,3.7-5.8,2.7L45.4,49
	C44.5,48.2,44.4,46.4,45.3,44.9L45.3,44.9z"/>
<path class="st0" d="M23.4,44.9c0.9,1.6,0.8,3.3-0.1,4.1L6.7,60.6c-1.7,1-4.3-0.2-5.8-2.7s-1.2-5.4,0.5-6.4l18.4-8.5
	C21,42.5,22.6,43.3,23.4,44.9L23.4,44.9z"/>
<path class="st0" d="M34.3,51.2c1.8,0,3.3,0.9,3.5,2.2l1.8,20.2c0,2-2.3,3.6-5.3,3.6s-5.3-1.6-5.3-3.6l1.8-20.2
	C31.1,52.1,32.6,51.2,34.3,51.2L34.3,51.2z"/>
<path class="st0" d="M42.5,73c0.8-0.1,1.6,0.5,1.7,1.3s-0.5,1.6-1.3,1.7c-0.1,0-0.2,0-0.3,0c-0.8,0.1-1.6-0.5-1.7-1.3
	s0.5-1.6,1.3-1.7C42.2,73,42.4,73,42.5,73z M42.5,73.4c-0.6,0-1.1,0.5-1.1,1.2c0,0,0,0,0,0c0,0.6,0.5,1.1,1.1,1.1c0,0,0,0,0,0
	c0.6,0,1.1-0.5,1.1-1.1c0,0,0,0,0-0.1C43.6,73.9,43.1,73.4,42.5,73.4C42.5,73.4,42.5,73.4,42.5,73.4L42.5,73.4z M42.3,75.3h-0.4
	v-1.4c0.2,0,0.4,0,0.6-0.1c0.2,0,0.4,0,0.5,0.1c0.1,0.1,0.2,0.2,0.2,0.3c0,0.2-0.1,0.3-0.3,0.3l0,0c0.2,0.1,0.3,0.2,0.3,0.4
	c0,0.1,0.1,0.2,0.1,0.3h-0.4c-0.1-0.1-0.1-0.2-0.1-0.3c0-0.1-0.1-0.2-0.2-0.2c0,0,0,0,0,0h-0.2L42.3,75.3z M42.3,74.5h0.1
	c0.2,0,0.3-0.1,0.3-0.2s-0.1-0.2-0.3-0.2h-0.2V74.5z"/>
<g>
	<path class="st1" d="M0,99c-0.1-0.3,0-0.5,0.3-0.5h2c0.2,0,0.3,0.1,0.3,0.2l3.8,8.4h0.1l3.8-8.4c0-0.1,0.2-0.2,0.3-0.2h2
		c0.3,0,0.4,0.3,0.3,0.5l-6.1,13.2c-0.1,0.1-0.2,0.2-0.3,0.2H6.4c-0.2,0-0.3-0.1-0.3-0.2L0,99z"/>
	<path class="st1" d="M11.9,111.7l6.1-13.2c0.1-0.1,0.2-0.2,0.3-0.2h0.2c0.2,0,0.3,0.1,0.3,0.2l6,13.2c0.1,0.3,0,0.5-0.3,0.5h-1.7
		c-0.3,0-0.4-0.1-0.6-0.4l-1-2.1h-5.8l-1,2.1c-0.1,0.2-0.3,0.4-0.6,0.4h-1.7C11.9,112.2,11.8,111.9,11.9,111.7z M20.3,107.5l-2-4.3
		h-0.1l-1.9,4.3H20.3z"/>
	<path class="st1" d="M28.1,98.6c0-0.2,0.1-0.3,0.4-0.3h0.3c0.2,0,0.3,0.1,0.3,0.2l4.3,9.2c0,0,0,0,0.1,0l4.3-9.2
		c0.1-0.1,0.2-0.2,0.3-0.2h0.3c0.2,0,0.3,0.1,0.4,0.3l2.3,13.1c0.1,0.3-0.1,0.4-0.4,0.4H39c-0.2,0-0.3-0.2-0.4-0.3l-1.2-7.4
		c0,0-0.1,0-0.1,0l-3.4,7.7c0,0.1-0.2,0.2-0.3,0.2h-0.4c-0.2,0-0.3-0.1-0.3-0.2l-3.5-7.7c0,0,0,0-0.1,0l-1.1,7.4
		c0,0.1-0.2,0.3-0.4,0.3h-1.8c-0.3,0-0.4-0.2-0.4-0.4L28.1,98.6z"/>
	<path class="st1" d="M49.8,98.3c3.9,0,7,3.1,7,7.1c0,3.9-3.1,7-7,7c-3.9,0-7-3.1-7-7C42.8,101.4,45.9,98.3,49.8,98.3z M49.8,109.8
		c2.5,0,4.5-2,4.5-4.5c0-2.5-2-4.5-4.5-4.5s-4.5,2.1-4.5,4.5C45.3,107.8,47.3,109.8,49.8,109.8z"/>
	<path class="st1" d="M58.8,110.8c-0.2-0.2-0.3-0.3-0.1-0.6l0.7-1.2c0.2-0.3,0.5-0.3,0.7-0.1c0.8,0.6,1.7,1.2,3,1.2
		c1,0,1.8-0.7,1.8-1.5c0-1-0.8-1.7-2.5-2.3c-1.8-0.7-3.7-1.9-3.7-4.2c0-1.7,1.3-3.8,4.4-3.8c2,0,3.5,1,3.9,1.3
		c0.2,0.1,0.3,0.5,0.1,0.6l-0.7,1.1c-0.2,0.2-0.4,0.4-0.7,0.2c-0.8-0.5-1.6-1.1-2.7-1.1c-1.1,0-1.7,0.6-1.7,1.4
		c0,0.9,0.7,1.5,2.3,2.2c1.9,0.8,4.1,1.9,4.1,4.4c0,2-1.7,3.9-4.5,3.9C60.6,112.4,59.3,111.3,58.8,110.8z"/>
	<path class="st1" d="M76.3,98.6c0-0.2,0.1-0.3,0.4-0.3h0.3c0.2,0,0.3,0.1,0.3,0.2l4.3,9.2c0,0,0,0,0.1,0l4.3-9.2
		c0.1-0.1,0.2-0.2,0.3-0.2h0.3c0.2,0,0.3,0.1,0.4,0.3l2.3,13.1c0.1,0.3-0.1,0.4-0.4,0.4h-1.8c-0.2,0-0.3-0.2-0.4-0.3l-1.2-7.4
		c0,0-0.1,0-0.1,0l-3.4,7.7c0,0.1-0.2,0.2-0.3,0.2h-0.4c-0.2,0-0.3-0.1-0.3-0.2l-3.5-7.7c0,0,0,0-0.1,0l-1.1,7.4
		c0,0.1-0.2,0.3-0.4,0.3h-1.8c-0.3,0-0.4-0.2-0.4-0.4L76.3,98.6z"/>
	<path class="st1" d="M90.2,111.7l6.1-13.2c0.1-0.1,0.2-0.2,0.3-0.2h0.2c0.2,0,0.3,0.1,0.3,0.2l6,13.2c0.1,0.3,0,0.5-0.3,0.5h-1.7
		c-0.3,0-0.4-0.1-0.6-0.4l-1-2.1h-5.8l-1,2.1c-0.1,0.2-0.3,0.4-0.6,0.4h-1.7C90.2,112.2,90.1,111.9,90.2,111.7z M94.5,96.2l3.3-2.2
		c0.3-0.2,0.8,0,1.1,0.5c0.3,0.5,0.2,1-0.1,1.2l-3.6,1.7c-0.2,0.1-0.5-0.1-0.6-0.4C94.4,96.6,94.4,96.3,94.5,96.2z M98.6,107.5
		l-2-4.3h-0.1l-1.9,4.3H98.6z"/>
	<path class="st1" d="M104.3,110.8c-0.2-0.2-0.3-0.3-0.1-0.6l0.7-1.2c0.2-0.3,0.5-0.3,0.7-0.1c0.8,0.6,1.7,1.2,2.9,1.2
		c1,0,1.8-0.7,1.8-1.5c0-1-0.8-1.7-2.5-2.3c-1.8-0.7-3.7-1.9-3.7-4.2c0-1.7,1.3-3.8,4.4-3.8c2,0,3.5,1,3.9,1.3
		c0.2,0.1,0.3,0.5,0.1,0.6l-0.7,1.1c-0.2,0.2-0.4,0.4-0.7,0.2c-0.8-0.5-1.6-1.1-2.7-1.1c-1.1,0-1.7,0.6-1.7,1.4
		c0,0.9,0.7,1.5,2.3,2.2c1.9,0.8,4.1,1.9,4.1,4.4c0,2-1.7,3.9-4.5,3.9C106.1,112.4,104.9,111.3,104.3,110.8z"/>
	<path class="st1" d="M118.6,111.7l6.1-13.2c0.1-0.1,0.2-0.2,0.3-0.2h0.2c0.2,0,0.3,0.1,0.3,0.2l6,13.2c0.1,0.3,0,0.5-0.3,0.5h-1.7
		c-0.3,0-0.4-0.1-0.6-0.4l-1-2.1h-5.8l-1,2.1c-0.1,0.2-0.3,0.4-0.6,0.4h-1.7C118.6,112.2,118.5,111.9,118.6,111.7z M127,107.5
		l-2-4.3H125l-1.9,4.3H127z"/>
	<path class="st1" d="M133.3,98.9c0-0.2,0.2-0.4,0.4-0.4h1.8c0.2,0,0.4,0.2,0.4,0.4v11h5c0.2,0,0.4,0.2,0.4,0.4v1.6
		c0,0.2-0.2,0.4-0.4,0.4h-7.2c-0.2,0-0.4-0.2-0.4-0.4V98.9z"/>
	<path class="st1" d="M143.1,98.9c0-0.2,0.2-0.4,0.4-0.4h1.8c0.2,0,0.4,0.2,0.4,0.4v11h5c0.2,0,0.4,0.2,0.4,0.4v1.6
		c0,0.2-0.2,0.4-0.4,0.4h-7.2c-0.2,0-0.4-0.2-0.4-0.4V98.9z"/>
	<path class="st1" d="M151.4,111.7l6.1-13.2c0.1-0.1,0.2-0.2,0.3-0.2h0.2c0.2,0,0.3,0.1,0.3,0.2l6,13.2c0.1,0.3,0,0.5-0.3,0.5h-1.7
		c-0.3,0-0.4-0.1-0.6-0.4l-1-2.1H155l-1,2.1c-0.1,0.2-0.3,0.4-0.6,0.4h-1.7C151.4,112.2,151.3,111.9,151.4,111.7z M155.8,96.2
		l3.3-2.2c0.3-0.2,0.8,0,1.1,0.5c0.3,0.5,0.2,1-0.1,1.2l-3.6,1.7c-0.2,0.1-0.5-0.1-0.6-0.4C155.6,96.6,155.6,96.3,155.8,96.2z
		 M159.8,107.5l-2-4.3h-0.1l-1.9,4.3H159.8z"/>
	<path class="st1" d="M170.8,98.9c0-0.2,0.2-0.4,0.4-0.4h4.6c3.8,0,6.9,3.1,6.9,6.8c0,3.8-3.1,6.9-6.9,6.9h-4.6
		c-0.2,0-0.4-0.2-0.4-0.4V98.9z M175.5,109.8c2.5,0,4.4-1.8,4.4-4.5c0-2.7-1.9-4.5-4.4-4.5h-2.2v8.9H175.5z"/>
	<path class="st1" d="M185.1,98.9c0-0.2,0.2-0.4,0.4-0.4h8c0.2,0,0.4,0.2,0.4,0.4v1.6c0,0.2-0.2,0.4-0.4,0.4h-5.8v3.2h4.8
		c0.2,0,0.4,0.2,0.4,0.4v1.6c0,0.2-0.2,0.4-0.4,0.4h-4.8v3.4h5.8c0.2,0,0.4,0.2,0.4,0.4v1.6c0,0.2-0.2,0.4-0.4,0.4h-8
		c-0.2,0-0.4-0.2-0.4-0.4V98.9z"/>
	<path class="st1" d="M196.4,98.9c0-0.2,0.2-0.4,0.4-0.4h1.8c0.2,0,0.4,0.2,0.4,0.4v11h5c0.2,0,0.4,0.2,0.4,0.4v1.6
		c0,0.2-0.2,0.4-0.4,0.4h-7.2c-0.2,0-0.4-0.2-0.4-0.4V98.9z"/>
	<path class="st1" d="M211,98.9c0-0.2,0.2-0.4,0.4-0.4h5.6c2.3,0,4.3,1.9,4.3,4.2c0,1.8-1.2,3.3-2.9,3.9l2.7,5
		c0.1,0.3,0,0.6-0.3,0.6h-2.1c-0.2,0-0.3-0.1-0.3-0.2l-2.6-5.2h-2.2v5c0,0.2-0.2,0.4-0.4,0.4h-1.8c-0.2,0-0.4-0.2-0.4-0.4V98.9z
		 M216.7,104.7c1,0,1.9-0.9,1.9-2c0-1-0.9-1.9-1.9-1.9h-3.2v3.9H216.7z"/>
	<path class="st1" d="M223.9,98.9c0-0.2,0.2-0.4,0.4-0.4h8c0.2,0,0.4,0.2,0.4,0.4v1.6c0,0.2-0.2,0.4-0.4,0.4h-5.8v3.2h4.8
		c0.2,0,0.4,0.2,0.4,0.4v1.6c0,0.2-0.2,0.4-0.4,0.4h-4.8v3.4h5.8c0.2,0,0.4,0.2,0.4,0.4v1.6c0,0.2-0.2,0.4-0.4,0.4h-8
		c-0.2,0-0.4-0.2-0.4-0.4V98.9z"/>
	<path class="st1" d="M237.3,100.8h-3c-0.2,0-0.4-0.2-0.4-0.4v-1.6c0-0.2,0.2-0.4,0.4-0.4h8.5c0.2,0,0.4,0.2,0.4,0.4v1.6
		c0,0.2-0.2,0.4-0.4,0.4h-3v11c0,0.2-0.2,0.4-0.4,0.4h-1.8c-0.2,0-0.4-0.2-0.4-0.4V100.8z"/>
	<path class="st1" d="M243,111.7l6.1-13.2c0.1-0.1,0.2-0.2,0.3-0.2h0.2c0.2,0,0.3,0.1,0.3,0.2l6,13.2c0.1,0.3,0,0.5-0.3,0.5h-1.7
		c-0.3,0-0.4-0.1-0.6-0.4l-1-2.1h-5.8l-1,2.1c-0.1,0.2-0.3,0.4-0.6,0.4h-1.7C243,112.2,242.8,111.9,243,111.7z M251.4,107.5l-2-4.3
		h-0.1l-1.9,4.3H251.4z"/>
	<path class="st1" d="M257.6,98.9c0-0.2,0.2-0.4,0.4-0.4h1.8c0.2,0,0.4,0.2,0.4,0.4v12.9c0,0.2-0.2,0.4-0.4,0.4H258
		c-0.2,0-0.4-0.2-0.4-0.4V98.9z"/>
	<path class="st1" d="M263.5,98.9c0-0.2,0.2-0.4,0.4-0.4h1.8c0.2,0,0.4,0.2,0.4,0.4v11h5c0.2,0,0.4,0.2,0.4,0.4v1.6
		c0,0.2-0.2,0.4-0.4,0.4h-7.2c-0.2,0-0.4-0.2-0.4-0.4V98.9z"/>
</g>
</svg>
