<?xml version="1.0" encoding="utf-8"?>
<!-- Generator: Adobe Illustrator 25.4.1, SVG Export Plug-In . SVG Version: 6.00 Build 0)  -->
<svg version="1.1" id="Capa_1" xmlns="http://www.w3.org/2000/svg" xmlns:xlink="http://www.w3.org/1999/xlink" x="0px" y="0px"
	 viewBox="0 0 713.8 713.8" style="enable-background:new 0 0 713.8 713.8;" xml:space="preserve">
<style type="text/css">
	.st0{clip-path:url(#SVGID_00000106140233609561318420000001917451157925223595_);}
	.st1{fill:#6AAAE4;}
	.st2{fill:none;stroke:#FFFFFF;stroke-width:3;stroke-miterlimit:10;}
	.st3{fill:#4A5B6D;}
	.st4{fill:#EE7402;}
	.st5{fill:#76BC21;}
	.st6{fill:#FFFFFF;}
	.st7{clip-path:url(#SVGID_00000046306709685178946210000011204623460386060726_);}
	.st8{fill:#FBB800;}
	.st9{fill:#004B93;}
</style>
<g>
	<defs>
		<rect id="SVGID_1_" x="-0.3" y="-0.3" width="714.4" height="714.4"/>
	</defs>
	<clipPath id="SVGID_00000093873309259724399950000004000270444547464120_">
		<use xlink:href="#SVGID_1_"  style="overflow:visible;"/>
	</clipPath>
	<g style="clip-path:url(#SVGID_00000093873309259724399950000004000270444547464120_);">
		<path class="st1" d="M356.7,356.7H1.5c0-196.2,159-355.2,355.2-355.2V356.7z"/>
		<path class="st2" d="M356.7,356.7H1.5c0-196.2,159-355.2,355.2-355.2V356.7z"/>
		<path class="st3" d="M356.7,357.1v355.2c-196.2,0-355.2-159-355.2-355.2L356.7,357.1z"/>
		<path class="st2" d="M356.7,357.1v355.2c-196.2,0-355.2-159-355.2-355.2L356.7,357.1z"/>
		<path class="st4" d="M357.1,357.1h355.2c0,196.2-159,355.2-355.2,355.2L357.1,357.1z"/>
		<path class="st2" d="M357.1,357.1h355.2c0,196.2-159,355.2-355.2,355.2L357.1,357.1z"/>
		<path class="st5" d="M357.1,356.7V1.5c196.2,0,355.2,159,355.2,355.2H357.1z"/>
		<path class="st2" d="M357.1,356.7V1.5c196.2,0,355.2,159,355.2,355.2H357.1z"/>
		<path class="st6" d="M355.7,671c173.4,0,314-140.6,314-314S529.1,43,355.7,43s-314,140.6-314,314S182.3,671,355.7,671"/>
	</g>
</g>
<g>
	<defs>
		<rect id="SVGID_00000075870848206291623400000007896221874585062809_" x="-0.3" y="-0.3" width="714.4" height="714.4"/>
	</defs>
	<clipPath id="SVGID_00000067953541833269968660000007254504082989766286_">
		<use xlink:href="#SVGID_00000075870848206291623400000007896221874585062809_"  style="overflow:visible;"/>
	</clipPath>
	<g style="clip-path:url(#SVGID_00000067953541833269968660000007254504082989766286_);">
		<path class="st8" d="M357.2,263.6c14,0,25.4-7.3,27-16.6l13.7-155.8c0-15.4-18-28-40.7-28s-40.7,12.6-40.7,28L330.3,247
			C331.8,256.3,343.3,263.6,357.2,263.6L357.2,263.6z"/>
		<path class="st8" d="M273,312.2c7-12.1,6.4-25.7-0.9-31.7l-128-89.8c-13.3-7.7-33.3,1.6-44.6,21.2s-9.4,41.5,3.9,49.2l141.8,66
			C254.1,330.6,266.1,324.2,273,312.2L273,312.2z"/>
		<path class="st8" d="M441.5,312.2c7,12,19,18.4,27.9,15l141.8-66c13.3-7.7,15.3-29.6,4-49.2s-31.3-28.9-44.7-21.2l-128,89.8
			C435.1,286.5,434.6,300.2,441.5,312.2L441.5,312.2z"/>
		<path class="st8" d="M441.5,409.5c7-12.1,19-18.4,27.9-15.1l141.8,66c13.3,7.7,15.3,29.6,4,49.3c-11.3,19.6-31.3,28.9-44.7,21.2
			l-128-89.8C435.1,435.1,434.6,421.5,441.5,409.5L441.5,409.5z"/>
		<path class="st8" d="M273,409.5c7,12,6.4,25.6-0.9,31.7l-128,89.8c-13.3,7.7-33.3-1.6-44.6-21.2c-11.3-19.6-9.4-41.6,3.9-49.3
			l141.8-66c8.9-3.3,20.9,3,27.9,15.1L273,409.5z"/>
		<path class="st8" d="M357.2,458.1c14,0,25.4,7.2,27,16.6l13.7,155.8c0,15.4-18,28.1-40.7,28.1s-40.7-12.7-40.7-28.1l13.8-155.8
			C331.8,465.4,343.3,458.1,357.2,458.1L357.2,458.1z"/>
		<path class="st8" d="M357.2,263.6c14,0,25.4-7.3,27-16.6l13.7-155.8c0-15.4-18-28-40.7-28s-40.7,12.6-40.7,28L330.3,247
			C331.8,256.3,343.3,263.6,357.2,263.6L357.2,263.6z"/>
		<path class="st8" d="M273,312.2c7-12.1,6.4-25.7-0.9-31.7l-128-89.8c-13.3-7.7-33.3,1.6-44.6,21.2s-9.4,41.5,3.9,49.2l141.8,66
			C254.1,330.6,266.1,324.2,273,312.2L273,312.2z"/>
		<path class="st8" d="M441.5,312.2c7,12,19,18.4,27.9,15l141.8-66c13.3-7.7,15.3-29.6,4-49.2s-31.3-28.9-44.7-21.2l-128,89.8
			C435.1,286.5,434.6,300.2,441.5,312.2L441.5,312.2z"/>
		<path class="st8" d="M441.5,409.5c7-12.1,19-18.4,27.9-15.1l141.8,66c13.3,7.7,15.3,29.6,4,49.3c-11.3,19.6-31.3,28.9-44.7,21.2
			l-128-89.8C435.1,435.1,434.6,421.5,441.5,409.5L441.5,409.5z"/>
		<path class="st8" d="M273,409.5c7,12,6.4,25.6-0.9,31.7l-128,89.8c-13.3,7.7-33.3-1.6-44.6-21.2c-11.3-19.6-9.4-41.6,3.9-49.3
			l141.8-66c8.9-3.3,20.9,3,27.9,15.1L273,409.5z"/>
		<path class="st8" d="M357.2,458.1c14,0,25.4,7.2,27,16.6l13.7,155.8c0,15.4-18,28.1-40.7,28.1s-40.7-12.7-40.7-28.1l13.8-155.8
			C331.8,465.4,343.3,458.1,357.2,458.1L357.2,458.1z"/>
		<path class="st8" d="M416.3,623.5c5.2-0.2,9.5,3.9,9.7,9.1c0.2,5.2-3.9,9.5-9.1,9.7c-0.2,0-0.4,0-0.6,0c-5.2,0.2-9.5-3.9-9.7-9.1
			c-0.2-5.2,3.9-9.5,9.1-9.7C415.8,623.5,416,623.5,416.3,623.5L416.3,623.5z M416.2,625.6c-4,0.2-7.1,3.5-7,7.6
			c0.2,3.8,3.2,6.8,7,7c4-0.1,7.1-3.5,7-7.5C423.1,628.8,420,625.8,416.2,625.6L416.2,625.6z M414.9,637.5h-2.4v-9
			c1.2-0.2,2.5-0.3,3.7-0.3c1.9,0,2.7,0.3,3.3,0.7c0.7,0.4,1,1.2,1,1.9c0,1-0.8,1.7-2,2.1v0.1c1,0.4,1.6,1.2,1.7,2.3
			c0.1,0.7,0.3,1.5,0.7,2.2h-2.7c-0.3-0.6-0.6-1.3-0.7-2.1c-0.1-0.8-0.7-1.4-1.5-1.3c0,0-0.1,0-0.1,0h-0.9V637.5z M414.9,632.4h1
			c1,0,1.8-0.4,1.8-1.2s-0.6-1.2-1.7-1.2c-0.5,0-0.8,0.1-1,0.1L414.9,632.4z"/>
	</g>
</g>
<g>
	<g>
		<path class="st9" d="M259,340.9c0-0.3,0.2-0.5,0.5-0.5h8c3.4,0,5.9,2.6,5.9,5.8c0,2.5-1.5,4.5-4,5.4l3.7,6.8
			c0.2,0.3,0,0.8-0.5,0.8H269c-0.2,0-0.4-0.1-0.4-0.2l-3.6-7.1h-1.9v6.9c0,0.3-0.2,0.5-0.5,0.5h-3.2c-0.3,0-0.5-0.2-0.5-0.5
			L259,340.9L259,340.9z M267.2,348.5c1.1,0,2-0.9,2-2.1s-0.9-2-2-2h-4v4.2h4V348.5z"/>
		<path class="st9" d="M277.2,340.9c0-0.3,0.2-0.5,0.5-0.5h11.1c0.3,0,0.5,0.2,0.5,0.5v2.9c0,0.3-0.2,0.5-0.5,0.5h-7.4v3.3h6.1
			c0.3,0,0.5,0.2,0.5,0.5v2.9c0,0.3-0.2,0.5-0.5,0.5h-6.1v3.6h7.4c0.3,0,0.5,0.2,0.5,0.5v2.9c0,0.3-0.2,0.5-0.5,0.5h-11.1
			c-0.3,0-0.5-0.2-0.5-0.5V340.9z"/>
		<path class="st9" d="M301.5,340.2c2.3,0,4.7,0.9,6.6,2.5c0.2,0.2,0.3,0.5,0.1,0.7l-2.1,2.3c-0.2,0.2-0.5,0.2-0.7,0
			c-1-0.9-2.2-1.3-3.5-1.3c-2.9,0-5.3,2.5-5.3,5.4s2.4,5.3,5.3,5.3c0.8,0,1.6-0.1,2.4-0.4v-1.6h-1.7c-0.3,0-0.5-0.2-0.5-0.5v-2.7
			c0-0.3,0.2-0.5,0.5-0.5h5.4c0.3,0,0.5,0.2,0.5,0.5v7.2c0,0.2-0.1,0.3-0.2,0.4c0,0-2.8,1.7-6.7,1.7c-5.3,0-9.6-4.2-9.6-9.6
			S296.2,340.2,301.5,340.2z"/>
		<path class="st9" d="M312.6,340.9c0-0.3,0.2-0.5,0.5-0.5h11.1c0.3,0,0.5,0.2,0.5,0.5v2.9c0,0.3-0.2,0.5-0.5,0.5h-7.4v3.3h6.1
			c0.3,0,0.5,0.2,0.5,0.5v2.9c0,0.3-0.2,0.5-0.5,0.5h-6.1v3.6h7.4c0.3,0,0.5,0.2,0.5,0.5v2.9c0,0.3-0.2,0.5-0.5,0.5h-11.1
			c-0.3,0-0.5-0.2-0.5-0.5V340.9z"/>
		<path class="st9" d="M328.7,340.7c0-0.3,0.2-0.5,0.5-0.5h0.4c0.3,0,0.5,0.2,0.7,0.4l10.3,9.9l0,0V341c0-0.3,0.2-0.5,0.5-0.5h3.2
			c0.3,0,0.5,0.2,0.5,0.5v18c0,0.3-0.2,0.5-0.5,0.5H344c-0.3,0-0.5-0.1-0.7-0.3L333,348.7l0,0v10c0,0.3-0.2,0.5-0.5,0.5h-3.2
			c-0.3,0-0.5-0.2-0.5-0.5L328.7,340.7z"/>
		<path class="st9" d="M349.6,340.9c0-0.3,0.2-0.5,0.5-0.5h11.1c0.3,0,0.5,0.2,0.5,0.5v2.9c0,0.3-0.2,0.5-0.5,0.5h-7.4v3.3h6.1
			c0.3,0,0.5,0.2,0.5,0.5v2.9c0,0.3-0.2,0.5-0.5,0.5h-6.1v3.6h7.4c0.3,0,0.5,0.2,0.5,0.5v2.9c0,0.3-0.2,0.5-0.5,0.5h-11.1
			c-0.3,0-0.5-0.2-0.5-0.5V340.9z"/>
		<path class="st9" d="M365.8,340.9c0-0.3,0.2-0.5,0.5-0.5h8c3.4,0,5.9,2.6,5.9,5.8c0,2.5-1.5,4.5-4,5.4l3.7,6.8
			c0.2,0.3,0,0.8-0.5,0.8h-3.6c-0.2,0-0.4-0.1-0.4-0.2l-3.6-7.1H370v6.9c0,0.3-0.2,0.5-0.5,0.5h-3.2c-0.3,0-0.5-0.2-0.5-0.5V340.9z
			 M374,348.5c1.1,0,2-0.9,2-2.1s-0.9-2-2-2h-4v4.2h4V348.5z"/>
		<path class="st9" d="M382.2,358.5l8.4-18.1c0.1-0.2,0.3-0.3,0.5-0.3h0.3c0.2,0,0.4,0.1,0.5,0.3l8.4,18.1c0.2,0.3-0.1,0.7-0.5,0.7
			h-3c-0.5,0-0.7-0.2-0.9-0.7l-1-2.1h-7.3l-1,2.1c-0.1,0.3-0.4,0.6-1,0.6h-3C382.2,359.2,382,358.9,382.2,358.5z M393.2,352.8
			l-2-4.4l0,0l-2,4.4H393.2z"/>
		<path class="st9" d="M404.1,344.4h-3.8c-0.3,0-0.5-0.2-0.5-0.5V341c0-0.3,0.2-0.5,0.5-0.5h11.9c0.3,0,0.5,0.2,0.5,0.5v2.9
			c0,0.3-0.2,0.5-0.5,0.5h-3.8v14.3c0,0.3-0.2,0.5-0.5,0.5h-3.2c-0.3,0-0.5-0.2-0.5-0.5v-14.3H404.1z"/>
		<path class="st9" d="M415.5,340.9c0-0.3,0.2-0.5,0.5-0.5h3.2c0.3,0,0.5,0.2,0.5,0.5v17.8c0,0.3-0.2,0.5-0.5,0.5H416
			c-0.3,0-0.5-0.2-0.5-0.5V340.9z"/>
		<path class="st9" d="M435.8,340.7c0.1-0.1,0.2-0.3,0.5-0.3h3.6c0.4,0,0.6,0.3,0.5,0.7l-8.4,18.1c-0.1,0.2-0.2,0.3-0.5,0.3h-0.3
			c-0.2,0-0.4-0.1-0.5-0.3l-8.4-18.1c-0.2-0.3,0.1-0.7,0.5-0.7h3.6c0.2,0,0.4,0.2,0.5,0.3l4.4,9.8h0.2L435.8,340.7z"/>
		<path class="st9" d="M442.8,340.9c0-0.3,0.2-0.5,0.5-0.5h11.1c0.3,0,0.5,0.2,0.5,0.5v2.9c0,0.3-0.2,0.5-0.5,0.5H447v3.3h6.1
			c0.3,0,0.5,0.2,0.5,0.5v2.9c0,0.3-0.2,0.5-0.5,0.5H447v3.6h7.4c0.3,0,0.5,0.2,0.5,0.5v2.9c0,0.3-0.2,0.5-0.5,0.5h-11.1
			c-0.3,0-0.5-0.2-0.5-0.5L442.8,340.9L442.8,340.9z"/>
	</g>
	<g>
		<path class="st9" d="M300.6,372.4c2.7,0,4.7,0.8,6.5,2.5c0.2,0.2,0.2,0.5,0,0.8l-2.1,2.2c-0.2,0.2-0.5,0.2-0.7,0
			c-1.1-1-2.3-1.4-3.6-1.4c-3,0-5.3,2.5-5.3,5.5s2.3,5.5,5.3,5.5c1.5,0,2.6-0.5,3.6-1.3c0.2-0.2,0.5-0.2,0.7,0l2.1,2.2
			c0.2,0.2,0.2,0.5,0,0.7c-1.8,1.8-4.1,2.6-6.5,2.6c-5.4,0-9.7-4.3-9.7-9.6S295.2,372.4,300.6,372.4z"/>
		<path class="st9" d="M318.6,372.4c5.4,0,9.7,4.3,9.7,9.7s-4.3,9.6-9.7,9.6s-9.6-4.3-9.6-9.6S313.3,372.4,318.6,372.4z
			 M318.6,387.5c3,0,5.4-2.4,5.4-5.3c0-3-2.4-5.4-5.4-5.4c-2.9,0-5.3,2.4-5.3,5.4C313.3,385,315.7,387.5,318.6,387.5z"/>
		<path class="st9" d="M333.6,372.8c0-0.2,0.3-0.4,0.5-0.4h0.4c0.1,0,0.4,0.1,0.5,0.3l6.2,11.6h0.1l6.2-11.6
			c0.1-0.2,0.3-0.3,0.5-0.3h0.4c0.2,0,0.5,0.2,0.5,0.4l3,18.1c0.1,0.3-0.2,0.6-0.5,0.6h-3.2c-0.2,0-0.5-0.2-0.5-0.4l-1.2-8.3h-0.1
			l-4.5,8.7c-0.1,0.2-0.3,0.3-0.5,0.3H341c-0.2,0-0.4-0.1-0.5-0.3l-4.5-8.7h-0.1l-1.2,8.3c0,0.2-0.2,0.4-0.5,0.4H331
			c-0.3,0-0.6-0.2-0.5-0.6L333.6,372.8z"/>
		<path class="st9" d="M355.4,373.2c0-0.3,0.2-0.5,0.5-0.5h6.5c3.5,0,6,2.7,6,5.9c0,3.3-2.5,6-6,6h-2.8v6.3c0,0.3-0.2,0.5-0.5,0.5
			H356c-0.3,0-0.5-0.2-0.5-0.5L355.4,373.2L355.4,373.2z M362.4,380.7c1.2,0,2-0.9,2-2.1c0-1.1-0.8-2-2-2h-2.7v4.1H362.4z"/>
		<path class="st9" d="M367.9,390.8l8.4-18.1c0.1-0.2,0.3-0.3,0.5-0.3h0.3c0.2,0,0.4,0.1,0.5,0.3l8.4,18.1c0.2,0.3-0.1,0.7-0.5,0.7
			h-3c-0.5,0-0.7-0.2-0.9-0.7l-1-2.1h-7.3l-1,2.2c-0.1,0.3-0.4,0.6-1,0.6h-3C367.9,391.5,367.7,391.1,367.9,390.8z M378.9,385
			l-2-4.4l0,0l-2,4.4H378.9z"/>
		<path class="st9" d="M388.4,372.9c0-0.3,0.2-0.5,0.5-0.5h0.4c0.3,0,0.5,0.2,0.7,0.4l10.3,9.9l0,0v-9.5c0-0.3,0.2-0.5,0.5-0.5h3.2
			c0.3,0,0.5,0.2,0.5,0.5v18.1c0,0.3-0.2,0.5-0.5,0.5h-0.3c-0.3,0-0.5-0.1-0.7-0.3L392.7,381l0,0v10c0,0.3-0.2,0.5-0.5,0.5H389
			c-0.3,0-0.5-0.2-0.5-0.5L388.4,372.9z"/>
		<path class="st9" d="M413.1,382.4l-5.9-9c-0.2-0.3,0-0.8,0.4-0.8h3.5c0.2,0,0.3,0.1,0.4,0.2l3.7,5.5l3.7-5.5
			c0.1-0.1,0.2-0.2,0.4-0.2h3.5c0.4,0,0.6,0.4,0.4,0.8l-6,8.9v8.6c0,0.3-0.2,0.5-0.5,0.5h-3.2c-0.3,0-0.5-0.2-0.5-0.5L413.1,382.4
			L413.1,382.4z"/>
	</g>
</g>
</svg>
