<?xml version="1.0" encoding="utf-8"?>
<!-- Generator: Adobe Illustrator 26.0.3, SVG Export Plug-In . SVG Version: 6.00 Build 0)  -->
<svg version="1.1" id="Capa_1" xmlns="http://www.w3.org/2000/svg" xmlns:xlink="http://www.w3.org/1999/xlink" x="0px" y="0px"
	 viewBox="0 0 152.5 190.2" style="enable-background:new 0 0 152.5 190.2;" xml:space="preserve">
<style type="text/css">
	.st0{fill:#1F334F;}
</style>
<path class="st0" d="M9.5,24.7l-4-16.1H10l2.1,9.1h0.1l2.2-9.1h4l2.1,9.1h0l2.1-9.1h4.3l-4,16.1h-4.3l-2.4-9.6h-0.1l-2.5,9.6H9.5z
	 M39.6,21H32v-2.7h6.2v-3.6H32v-2.6h7.6V8.6H27.4v16.1h12.2V21z M53.1,21.5c-1.6,0-3.2-0.9-4.2-1.8l-2.5,2.9c1.9,1.8,4.2,2.4,7,2.4
	c3.2,0,6.6-1.6,6.6-5.4c0-2.3-1.5-3.8-3.9-4.5l-2.4-0.7c-1.2-0.3-2.1-0.5-2.1-1.4c0-0.9,0.9-1.2,2-1.2c1.1,0,2.5,0.5,3.3,1.3
	l2.6-2.7C58,9,56.3,8.3,53.4,8.3c-3.8,0-6.3,2.4-6.3,5.4c0,2.5,1.6,3.9,3.8,4.5l2.8,0.8c0.9,0.2,1.6,0.5,1.6,1.4
	C55.3,21.2,54.1,21.5,53.1,21.5z M67.7,24.9c3.8,0,7-2.1,7-6.2V8.6h-4.4v10.1c0,1.7-0.9,2.7-2.3,2.7c-1.5,0-2.5-0.9-2.5-2.7V8.6
	h-4.5v10.3C60.9,23,63.4,24.9,67.7,24.9z M80.7,24.7h-4.5V8.6h7.6c3.8,0,5.7,2.4,5.7,5.2c0,2.7-1.6,5.5-5.7,5.5h-3.1V24.7z
	 M80.7,15.9H83c1.3,0,2.1-0.9,2.1-1.9c0-1.1-0.7-1.9-2.1-1.9h-2.3V15.9z M95.1,24.7h-4.5V8.6h7.6c3.8,0,5.7,2.4,5.7,5.2
	c0,2.7-1.6,5.5-5.7,5.5h-3.1V24.7z M95.1,15.9h2.3c1.3,0,2.1-0.9,2.1-1.9c0-1.1-0.7-1.9-2.1-1.9h-2.3V15.9z M104.6,18.9v-4.4
	c0-4.2,3.4-6.2,6.9-6.2c3.6,0,7.1,1.7,7.1,6.2v4.3c0,4.4-3.5,6.2-7,6.2C107.9,24.9,104.6,23.3,104.6,18.9z M109.1,18.8
	c0,1.6,1,2.5,2.5,2.5c1.4,0,2.4-0.8,2.4-2.4v-4.6c0-1.6-1.2-2.4-2.5-2.4c-1.4,0-2.4,0.7-2.4,2.4V18.8z M124.8,24.7h-4.5V8.6h7.4
	c4,0,5.9,2.3,5.9,5.1c0,2-0.9,3.9-3,4.8l3.5,6.2h-5l-2.9-5.5h-1.4V24.7z M124.8,15.9h2.2c1.3,0,2.1-0.8,2.1-1.9
	c0-1.1-0.7-1.9-2.1-1.9h-2.3V15.9z M134.4,8.6v3.6h4.5v12.5h4.6V12.1h4.5V8.6H134.4z M11.5,122.6c0,0-3.5,14,4.7,21
	c1.6,1.3,4.8,4.3,5.4,5.2c0,0-0.4-1.2-0.7-2.7c-0.4-1.5-0.9-5.2-2.4-8.4C17.4,135.2,12.4,127,11.5,122.6z M105.7,82.5
	c0,0,0.6,0.7,0.9,0.7c0.3,0,0.5-0.6,0.5-0.6c0.8-2,0.9-4.8,0.1-6.9c-0.8-1.9-3.4-3.8-3.4-3.8c-3.9-3-8.2-4.9-10.3-5.7
	c0.4,0.6,0.6,1.3,0.6,2c0,1.2-0.5,2.3-1.6,3.5C97.7,74.7,102,78.2,105.7,82.5z M22.1,84.8c-3.5-1.3-6.9-2.5-10.4-3.8
	c0-0.6,0-1.1,0-1.7c-0.2-0.1-0.3-0.1-0.5-0.2c-0.5,1.3-1,2.7-1.5,4c0.2,0.1,0.3,0.1,0.5,0.2c0.4-0.4,0.7-0.8,1.1-1.2
	c2.2,0.8,4.4,1.6,6.6,2.4c-3.3,1.1-6.5,2.2-9.7,3.4C7.7,89,7.3,90.2,7,91.4c0.2,0,0.3,0.1,0.5,0.2c0.4-0.4,0.7-0.9,1.1-1.3
	c3.1,1,6.2,2,9.3,3c0,0.5,0.1,1.1,0.1,1.6c0.2,0.1,0.3,0.1,0.5,0.2c0.4-1.3,0.8-2.6,1.3-3.9c-0.2-0.1-0.3-0.1-0.5-0.2
	c-0.4,0.4-0.7,0.8-1.1,1.2c-2.6-0.9-5.2-1.7-7.9-2.6c3.8-1.4,7.6-2.7,11.5-3.9C21.9,85.4,22,85.1,22.1,84.8z M31.8,68.5l0.4,0.4
	c3-3.1,6-6,6-6l-2-2.4l-0.5,0.5l0.8,2.4l-2.2,2.1l-7-7.1l0.6-1.5l-0.4-0.3l-3.8,3.7l0.4,0.4l1.5-0.6l6.9,7L31.8,68.5z M102.8,55.6
	c-3-1.5-3.9-4.6-2.4-7.8c1.7-3.6,5-4.9,8.5-3.1c3.3,1.7,4,4.8,2.4,7.8C109.5,55.9,106.1,57.3,102.8,55.6z M103.6,54.9
	c1.7,0.9,3.9-0.4,5.5-3.1c1.5-2.7,1.3-5.2-0.8-6.3c-2.2-1.2-4.2,0.1-5.5,3C101.4,51.5,101.9,54,103.6,54.9z M73,48.7l0,0.5
	c3.7-0.1,8.3,0.1,8.3,0.1l0.3-3.1l-0.7,0l-1.2,2.2l-2.8-0.1L77,38.2l1.5-0.6l0-0.5c0,0-2.6-0.1-5.3,0l0,0.5l1.5,0.7L74.5,48L73,48.7
	z M28.3,74c0.7-1,1.1-2,1.8-3.6l-2.7-2l0.4-1.6l-0.4-0.3l-3.1,4.3l0.4,0.3l1.4-0.9l2.4,1.7c0,0,0,0.3-0.3,0.7
	c-1.7,2.4-4.3,2.7-6.8,1c-2.9-2-3.6-4.6-1.3-7.6c0.2-0.3,0.5-0.6,0.8-0.8l2.4,0.7l0.5-0.7l-2.4-1.7l-0.2,0.2c-1.2,1.1-2,1.9-2.6,2.8
	c-2.7,3.7-1.7,6.9,1.4,9.1C23,77.7,26.1,77.1,28.3,74z M133.8,66.4c1.1,1.4,1.4,2.3,1.4,3.3c0,1-0.4,1.9-1.3,2.5
	c-1.8,1.3-4,0.6-5.7-1.6l-0.7-1l-3.1,2.3l0.4,1.6l-0.4,0.3c-1.5-2.1-3.2-4.2-3.2-4.2l0.4-0.3l1.4,0.8l7.7-6l-0.4-1.5l0.4-0.3
	L133.8,66.4z M133.1,66.7l-0.7-0.9l-4.2,3.3l0.4,0.5c0.6,0.8,1,1.1,1.5,1.2c0.8,0.2,1.6,0.1,2.4-0.5c0.7-0.5,1.1-1.1,1.2-1.8
	C133.7,67.9,133.6,67.4,133.1,66.7z M130.9,148.8c0.6-0.9,3.8-3.9,5.4-5.2c8.2-7,4.7-21,4.7-21c-0.9,4.5-5.9,12.6-7,15.1
	c-1.5,3.2-2,6.9-2.4,8.4C131.2,147.6,130.9,148.8,130.9,148.8z M140.1,76.4l0.4,1l-8.2,8.7l0,1.5l-0.5,0.2c-1-2.4-2-4.7-2-4.7
	l0.5-0.2l1.2,0.9l2.5-2.6l-1.7-3.3l-3.7,0.3l0.1,1.5l-0.5,0.2c-0.9-1.7-2-3.5-2-3.5l0.5-0.3l1.2,1L140.1,76.4z M137.7,77.4l-4.5,0.3
	l1.3,2.8L137.7,77.4z M142.9,95.5l2.9-0.8c0-1.5-0.1-2.8-0.4-3.9c-1.1-4-4.1-5.9-7.9-4.6c-3.6,1.2-5.2,3.7-4.2,7.3
	c0.3,1,0.7,1.9,1.5,3.3l0.1,0.2l2.9-0.6l-0.2-0.8l-2.6-0.3l0-0.1c-0.2-0.4-0.3-0.6-0.4-1.1c-0.8-2.8,0.6-4.9,3.6-5.9
	c3.1-1,5.5,0.2,6.5,3.6c0.1,0.4,0.2,0.8,0.2,1.1l-2.1,1.5L142.9,95.5z M76,74.2c4.8,0,14.9-1.7,14.9-5.8c0-3.7-5.3-5.6-15-5.7
	c-29.3,0-45,25.4-45,45.5c0,24.3,20.7,45.5,44.5,45.5c0-0.4-0.3-5.7-0.3-5.7c0-0.6-0.2-0.8-0.9-0.9c0,0-10.4-0.8-13.8-2.5
	c-0.1-0.1-0.1-0.2,0.1-0.2c0,0,7,1.2,13.7,1.2c0,0,0.8,0,0.8-0.8c0-0.8-0.3-17.3-0.3-17.3c0-1.2-0.2-1.4-1.4-1.5
	c-7.2-0.3-14.3-1.9-20.4-4.4c-0.2-0.1-0.2-0.1-0.3,0c-0.1,0.1-0.1,0.3-0.1,0.3c-0.5,7.6,0.3,15.1,0.3,15.1c0,0.1,0,0.2-0.1,0.2
	c-0.1,0-0.2-0.1-0.2-0.1c-1.1-4.1-1.6-8.6-1.6-13.4c0-0.3,0-2.3,0-2.3c0-0.5-0.2-0.8-0.7-1.1c-2.9-1.4-5.5-3.2-7.8-5.1
	c0,0-0.2-0.1,0-0.3c0.1-0.1,0.3,0,0.3,0c2.4,1.5,5.1,2.8,7.9,4l0.3,0c0.2-0.1,0.2-0.3,0.2-0.7c0.4-7.1,2.4-14.5,5.1-21.6
	c0.1-0.2,0.1-0.3,0.1-0.4c0-0.2-0.1-0.3-0.5-0.5c-4.5-2-7.9-4.6-10.1-7.5c0,0-0.1-0.2,0-0.3c0.1-0.1,0.3,0,0.3,0
	c2.5,2.5,6.2,4.5,10.5,6.1c0.2,0.1,0.3,0.1,0.4,0.1c0.2,0,0.3-0.1,0.6-0.7c2.9-6.7,6.7-12.9,10.9-18.1c-3.6-0.9-7.3-2.8-8.2-4.9
	c0,0-0.1-0.2,0-0.3c0.2-0.1,0.4,0.1,0.4,0.1C64.4,74.5,76,74.2,76,74.2z M75.4,76.4c-2,0-4.4-0.4-6-0.7c-4.2,5.5-7.8,11.6-10.6,18.4
	c-0.3,0.6-0.2,0.8-0.2,0.8c0.1,0.1,0.3,0.2,0.3,0.2c3.4,1.1,10,2.2,14.6,2.2c0.5,0,0.8-0.1,1-0.3c0.2-0.2,0.3-0.5,0.3-1.2
	C74.9,89.4,75.1,82.8,75.4,76.4z M77.4,123.1c0.1,0.1,0.4,0.2,0.8,0.2c3.2-0.2,11.3-0.7,19.5-3.9c1.1-0.4,1.4-1,1.4-1.8
	c0-0.2,0-0.5,0-0.7c-0.8-6.3-2.3-12.6-4.4-18.8c-0.3-0.8-0.4-1-0.7-1c-0.1,0-0.4,0-0.7,0.2c-4.5,1.5-9.5,2.4-14.8,2.5
	c-1,0-1.3,0.7-1.3,1.5c0,3.3,0.1,8.4,0.1,15.3c0,1.7,0,4.1,0,5.8C77.2,122.3,77.2,122.9,77.4,123.1z M73.4,99.8
	c-5.3-0.2-10.5-1.2-15-2.8c-0.2-0.1-0.4-0.1-0.5-0.1c-0.2,0-0.3,0.1-0.4,0.4c-4.2,10.5-5,21.9-5,21.9c0,0.5,0.1,0.6,0.5,0.8
	c0,0,8.9,3.4,20.3,3.4c0,0,0.8,0,1-0.2c0.3-0.3,0.3-0.5,0.3-1.4c0-5.6,0.1-20.5,0.1-20.5C74.7,100.3,74.2,99.8,73.4,99.8z
	 M104.8,171.3c-8-3.3-16.3-7.4-25.9-5.4c-1.1,0.2-2,0.4-2.9,0.4c-1,0-1.8-0.2-2.9-0.4c-9.7-2-18,2.2-26,5.4c-6,2.2-13.8,1.8-19-1.6
	c2.6,3,6.1,4.9,9.7,6.2c6.7,2.5,14.6,0.8,20.1-2.8c4.7-2.5,8.8-7.4,15-5.5c-6.3,2.8-12.1,6.6-17.4,11.6l3.3,2.5
	c0,0,6.2-8.3,17.2-13.3c11.1,5,17.2,13.3,17.2,13.3l3.3-2.5c-5.3-5-11.1-8.8-17.4-11.6c6.2-1.8,10.3,3,15,5.5
	c5.5,3.6,13.4,5.3,20.1,2.8c3.6-1.3,7.1-3.2,9.7-6.2C118.5,173.1,110.7,173.4,104.8,171.3z M83.4,75.8c-1.8,0.3-5.5,0.6-6.8,0.6
	c0.2,6.6,0.4,13.2,0.5,19.5c0,0.6,0.1,0.9,0.3,1c0.1,0.1,0.4,0.2,0.7,0.2c4.3,0,10.6-1.3,14.1-2.7c0.4-0.1,0.6-0.2,0.7-0.5
	c0.1-0.3-0.2-0.9-0.2-0.9C90.1,86.4,86.8,80.5,83.4,75.8z M37.4,48.5c3.1-2,6.2-1.1,8,1.9c2,3.2,1.4,6.8-1.6,8.8
	c-2.8,1.9-5.9,1.1-7.9-1.8C33.5,54.2,34.1,50.6,37.4,48.5z M37.7,49.4c-2.1,1.4-2,3.7-0.1,6.3c1.9,2.7,4.3,3.6,5.9,2.5
	c1.6-1,1.7-3.6,0-6.3C41.9,49.2,39.7,48.1,37.7,49.4z M17.7,102.7c0.1-1.3-0.1-2.4-0.6-3.4c-0.6-1.1-1.6-1.7-3.3-1.9
	c-2.2-0.3-4.5-0.5-6.7-0.8C7,96,6.9,95.5,6.7,94.9c-0.2,0-0.3,0-0.5-0.1c-0.2,1.5-0.4,3-0.5,4.6c0.2,0,0.3,0,0.5,0.1
	C6.5,99,6.7,98.5,7,98c2.3,0.3,4.7,0.5,7,0.8c1.3,0.1,2,0.5,2.4,1.2c0.3,0.5,0.4,1.2,0.3,2.1c-0.2,1.8-1.2,2.6-3.1,2.4
	c-2.4-0.2-4.8-0.4-7.3-0.6c-0.2-0.5-0.3-1-0.5-1.6c-0.2,0-0.3,0-0.5,0c-0.2,1.8-0.3,3.7-0.5,5.5c0.2,0,0.3,0,0.5,0
	c0.3-0.5,0.5-1,0.8-1.5c2.4,0.2,4.9,0.4,7.3,0.6C16,107,17.5,105.5,17.7,102.7z M59.4,50.9l1.2-0.8l2.7-12l0.9-0.2l6.2,10.3l1.4,0.4
	l0.1,0.5l-5.2,0.7l-0.1-0.5l1.2-0.9l-1.8-3.2L62.5,46l-0.7,3.7l1.5,0.4l0.1,0.5l-4,0.9L59.4,50.9z M62.7,45.1l3-0.6l-2.1-3.8
	L62.7,45.1z M45.4,44.6l-0.2-0.5l5.5-2.3c1.3-0.5,2.1-0.6,3-0.3c0.8,0.3,1.3,0.8,1.6,1.5c0.6,1.5-0.2,3-2.2,4.1
	c2.4-0.8,4-0.4,4.7,1.4c0.4,0.9,0.2,2-0.3,2.7c-0.5,0.8-1.3,1.3-2.8,1.9l-4.7,2.1l-0.2-0.5l1.2-1.1L47,44.6L45.4,44.6z M52.1,48.1
	l-0.8,0.4l1.9,4.5l0.6-0.3c1-0.4,1.4-0.7,1.7-1.3c0.3-0.6,0.3-1.3,0-2C54.9,47.9,53.7,47.4,52.1,48.1z M49.1,43.4l1.8,4.3l0.7-0.3
	c1.3-0.5,2-1.8,1.4-3.2c-0.5-1.4-1.6-1.9-3-1.3L49.1,43.4z M143.3,97.8l0.1,0.7l2.6,0.7l0.2,2.5l-9.9,0.8l-0.8-1.9l-0.5,0
	c0,0,0.4,3,0.5,6.2l0.5,0l0.5-2l9.9-0.7l0.2,2.5l-2.4,1.1l0.1,0.7l3.4-0.3c0-5.2-0.8-10.6-0.8-10.6L143.3,97.8z M92.3,51.5
	c1,0.3,2,0.4,3.7,0.4l0.3,0l0.9-2.8l-0.8-0.2L94.8,51c-0.5,0-0.8-0.1-1.2-0.2c-2.7-0.7-4-3.1-3.3-6.1c0.7-2.9,2.6-4.8,6.4-3.8
	c0.5,0.1,0.9,0.4,0.9,0.4l0.2,2.6l0.8,0.2l0.8-2.9c-1.3-0.7-2.4-1.2-3.4-1.5c-4.5-1.1-7.2,0.7-8,4.5C87.2,47.8,88.8,50.5,92.3,51.5z
	 M125.9,154.9c-1.1,1.1-2.2,2.1-3.4,2.7l-0.1-0.1c1.3-1.4,2.9-3,3.8-4.9c3.4-5.6,2.2-13.4,4.7-19.4c-2.3,3.3-4.4,6.7-5.8,10.4
	c-2.1,6.1-2.9,12.9-7.6,17.5c5.2-2,11.2-1.6,15.8-5.3c4.9-3.8,9.5-9.8,10.4-16.6C140.3,148.5,131.7,149.3,125.9,154.9z M57,165.8
	c0.8,0,1.3-0.2,1.3-0.2c-4.5-1-8.3-1.8-12.1-5c-5.1-4.2-9-8.5-14.6-12c0.7,0.4,3.9,7,6.6,10.9c1.9,2.7,4.9,4.3,7.5,4.9
	c2.3,0.6,2.7,0.8,2.7,0.8s-0.4,0.2-1.2,0c0,0-7.5-1.6-11.5-1.6c-16.1,0-20.2-6.1-20.2-6.1c4.8,8.6,14.6,11.8,21,11.8
	C45.7,169.3,52.6,165.8,57,165.8z M116.7,163.6c-4,0-11.5,1.6-11.5,1.6c-0.8,0.2-1.2,0-1.2,0s0.5-0.2,2.8-0.8
	c2.6-0.6,5.6-2.2,7.5-4.9c2.7-3.9,5.9-10.5,6.6-10.9c-5.6,3.5-9.5,7.8-14.6,12c-3.9,3.2-7.6,4-12.1,5c0,0,0.6,0.2,1.3,0.2
	c4.4,0,11.3,3.5,20.5,3.5c6.4,0,16.2-3.2,21-11.8C136.9,157.5,132.8,163.6,116.7,163.6z M19.1,155.9c4.6,3.7,10.7,3.2,15.8,5.3
	c-4.8-4.6-5.6-11.4-7.7-17.5c-1.4-3.7-3.5-7.1-5.8-10.4c2.5,6,1.3,13.8,4.7,19.4c0.9,1.8,2.5,3.5,3.8,4.9l-0.1,0.1
	c-1.2-0.7-2.3-1.6-3.4-2.7c-5.8-5.6-14.4-6.4-17.9-15.6C9.7,146.1,14.3,152,19.1,155.9z M116.8,49.6l-0.3,0.4l0.7,1.5l-6.2,7.5
	l-1.6-0.5l-0.3,0.4l3.4,2.5l0.3-0.4l-0.7-1.4l5-6.2l-2.7,9.7l0.3,0.3l9.1-4.1l-5.5,5.8l-1.5-0.5l-0.3,0.4c0,0,1.8,1.7,3.6,3.5
	l0.3-0.4l-0.8-1.5l6.8-7l1.6,0.5l0.3-0.4l-2.7-2.7l-8.3,3.8l2.5-8.8L116.8,49.6z M85.2,75.4c3.9,4.7,7.3,10.2,10.2,16.3
	c0.3,0.6,0.5,1,0.7,1c0.3,0.1,0.7-0.1,0.9-0.3c2.7-1.4,5.2-3.2,6.9-4.9c0.3-0.4,0.5-0.7,0.5-1c0-0.4-0.2-0.8-0.5-1.3
	c-3.7-5.1-8.1-9.2-12.8-12.2C89.6,74,87.5,74.8,85.2,75.4z M77.6,145.6c6.9-0.4,13.5-1.9,19.5-4.4c0.9-0.4,1-0.9,1.3-1.9
	c1.6-6.6,1.2-15.4,1.2-15.4s0-1.1-0.4-1.3c-0.3-0.2-1.2,0.1-1.2,0.1c-6.1,2.2-12.7,3.3-19.6,3.5c-1.3,0.1-1.2,0.4-1.3,1.4
	c-0.1,6.1-0.2,11.9-0.3,17.1c0,0,0,0.5,0.1,0.7C77.1,145.6,77.6,145.6,77.6,145.6z M93.6,150.3c1.2-1.6,2.2-3.5,3.1-5.5
	c0.1-0.2,0.2-0.4,0.2-0.6c0-0.1-0.1-0.1-0.1-0.1c-0.1,0-0.3,0.1-0.9,0.2c-7.6,2.4-14.2,3-18.4,3c-0.6,0-0.8,0.2-0.8,0.9l-0.3,5.6
	C76.4,153.8,84.9,154,93.6,150.3z M102.7,116.8c0.2,0.2,1.1-0.3,1.2-0.3c3.5-2.1,6.8-4.8,8.7-6.7c0.7-0.7,1-1.3,1-2.1
	c0-0.4-0.1-0.9-0.2-1.5c-1.4-5.7-3.5-11-6.3-15.9c-0.2-0.4-0.4-0.5-0.5-0.5h0c-0.1,0-0.3,0.1-0.7,0.4c-1.9,1.9-4.4,3.7-7.5,5.2
	c-0.7,0.4-0.9,0.6-0.9,0.9c0,0.2,0.1,0.5,0.2,0.8c2.3,6.1,3.9,12.2,4.7,18.4C102.3,115.3,102.4,116.5,102.7,116.8z M119.6,95
	c0-0.3,0-0.5,0-0.7c-1.3-5.7-4.3-11.1-8.9-16.1c0.1,0.5,0.1,0.9,0.1,1.4c0,1.7-0.4,3.5-1.2,5.4c-0.3,0.7-0.4,1.1-0.4,1.4
	c0,0.4,0.2,0.6,0.4,1c0,0,4.6,6.3,7.2,16.6C119.6,99.1,119.6,95,119.6,95z M111.4,136c-3.2,2.6-6.9,4.8-11.1,6.6
	c-0.8,0.3-1.5,1.3-1.9,2c-0.8,1.7-1.7,3.2-2.8,4.7C101.1,146.6,107.3,141.4,111.4,136z M121.8,107.2c0-2.1-0.2-4.2-0.5-6.4
	c-0.4,2.2-1.2,4.3-2.4,6.3c-0.8,1.4-1.1,2.3-1,3.2c0.3,3,0.3,5.7,0.3,5.7c0,3.1-0.3,6.2-0.9,9.1
	C119.7,120.9,121.8,114.6,121.8,107.2z M114.7,126c0.9-7.7-0.1-12.9-0.1-12.9c0-0.2-0.2,0-0.2,0c-2,2-5.7,4.7-10.1,7
	c-1.4,0.7-1.5,1.2-1.6,2.5c0.1,7-0.8,12.4-2.3,16.9c0,0-0.1,0.3,0.3,0.1c0.4-0.2,6.7-3.2,11.1-7.6
	C113.4,130.4,114.5,128.2,114.7,126z"/>
</svg>
