<?xml version="1.0" encoding="utf-8"?>
<!-- Generator: Adobe Illustrator 26.0.3, SVG Export Plug-In . SVG Version: 6.00 Build 0)  -->
<svg version="1.1" id="Capa_1" xmlns="http://www.w3.org/2000/svg" xmlns:xlink="http://www.w3.org/1999/xlink" x="0px" y="0px"
	 viewBox="0 0 742.2 386.2" style="enable-background:new 0 0 742.2 386.2;" xml:space="preserve">
<style type="text/css">
	.st0{fill:#FFFFFF;}
</style>
<g>
	<g>
		<path class="st0" d="M32.3,1.8c12.3,0,22.3,9.8,22.3,22c0,9-5.8,16.9-15.2,20.6l-0.8,0.3l0.4,0.7l14.5,26.8c0.2,0.5,0.3,1,0,1.4
			c-0.2,0.4-0.6,0.6-1.1,0.6H41.3c-0.7,0-0.9-0.4-1-0.5l-14.1-28L26,45.3h-0.5H13.8H13v0.8V73c0,0.6-0.6,1.2-1.2,1.2H2.1
			c-0.8,0-1.2-0.6-1.2-1.2V3.1c0-0.6,0.5-1.2,1.2-1.2H32.3 M13.1,35.5h0.8h17.2c6.1,0,11.2-5.3,11.2-11.5c0-6-5.1-11-11.2-11H13.9
			h-0.8v0.8v21V35.5 M32.3,1.1H2.1c-1.2,0-2,1-2,2V73c0,1.1,0.8,2,2,2h9.7c1.1,0,2-1,2-2V46.1h11.7l14.1,28c0.2,0.4,0.7,1,1.7,1
			h11.1c1.8,0,2.5-1.7,1.8-3.1L39.7,45.1c9.2-3.7,15.6-11.6,15.6-21.3C55.3,11.2,45,1.1,32.3,1.1L32.3,1.1z M13.9,34.8v-21h17.2
			c5.6,0,10.5,4.6,10.5,10.2c0,5.9-4.9,10.8-10.5,10.8H13.9L13.9,34.8z"/>
		<path class="st0" d="M114.1,1.8c0.8,0,1.2,0.6,1.2,1.2v8.7c0,0.6-0.5,1.2-1.2,1.2H82.9h-0.8v0.8v17.3v0.8h0.8h26.1
			c0.6,0,1.2,0.6,1.2,1.2v8.8c0,0.8-0.6,1.2-1.2,1.2H82.9h-0.8v0.8v18.5v0.8h0.8h31.3c0.8,0,1.2,0.6,1.2,1.2V73
			c0,0.6-0.5,1.2-1.2,1.2h-43c-0.8,0-1.2-0.6-1.2-1.2V3.1c0-0.6,0.5-1.2,1.2-1.2H114.1 M114.1,1.1h-43c-1.2,0-2,1-2,2V73
			c0,1.1,0.8,2,2,2h43c1.2,0,2-1,2-2v-8.7c0-1.1-0.8-2-2-2H82.9V43.8h26.1c1.1,0,2-0.8,2-2v-8.8c0-1.1-1-2-2-2H82.9V13.7h31.3
			c1.2,0,2-1,2-2V3.1C116.1,2,115.3,1.1,114.1,1.1L114.1,1.1z"/>
		<path class="st0" d="M161.8,0.8c9,0,18,3.4,25.3,9.6c0.5,0.5,0.7,1.3,0.1,1.9l-6.5,6.9c-0.3,0.3-0.5,0.4-0.8,0.4
			c-0.3,0-0.6-0.1-0.9-0.4c-4.6-4.1-10.5-6.3-16.5-6.3C148.9,12.8,138,24.1,138,38c0,13.8,11,25,24.5,25c6.1,0,10.8-1.9,12.9-2.7
			l0.5-0.2v-0.5v-9v-0.8h-0.8h-8.5c-0.7,0-1.2-0.5-1.2-1.1v-8.3c0-0.7,0.5-1.2,1.2-1.2h20.3c0.6,0,1.1,0.6,1.1,1.2v27
			c0,0.4-0.2,0.8-0.5,1.1c-0.6,0.4-11.2,6.7-25.8,6.7c-10,0-19.3-3.8-26.3-10.8c-7-7-10.9-16.3-10.9-26.3c0-10,3.9-19.4,10.9-26.5
			C142.5,4.6,151.8,0.8,161.8,0.8 M161.8,0c-21,0-37.9,17-37.9,38.1S140.8,76,161.8,76c15.3,0,26.2-6.9,26.2-6.9
			c0.4-0.3,0.8-0.8,0.8-1.7v-27c0-1.1-0.8-2-1.9-2h-20.3c-1.2,0-2,0.8-2,2v8.3c0,1.1,0.8,1.9,2,1.9h8.5v9c-2.1,0.8-6.7,2.6-12.6,2.6
			c-13.3,0-23.8-11.1-23.8-24.2c0-13.2,10.5-24.5,23.7-24.5c5.8,0,11.4,2.1,16,6.1c0.5,0.4,1,0.6,1.4,0.6c0.5,0,0.9-0.2,1.3-0.6
			l6.6-6.9c0.8-0.8,0.7-2.1-0.1-3C180.4,3.7,171.3,0,161.8,0L161.8,0z"/>
		<path class="st0" d="M249.2,1.8c0.8,0,1.2,0.6,1.2,1.2v8.7c0,0.6-0.5,1.2-1.2,1.2h-31.3h-0.8v0.8v17.3v0.8h0.8H244
			c0.6,0,1.2,0.6,1.2,1.2v8.8c0,0.8-0.6,1.2-1.2,1.2h-26.1h-0.8v0.8v18.5v0.8h0.8h31.3c0.8,0,1.2,0.6,1.2,1.2V73
			c0,0.6-0.5,1.2-1.2,1.2h-43c-0.8,0-1.2-0.6-1.2-1.2V3.1c0-0.6,0.5-1.2,1.2-1.2H249.2 M249.2,1.1h-43c-1.2,0-2,1-2,2V73
			c0,1.1,0.8,2,2,2h43c1.2,0,2-1,2-2v-8.7c0-1.1-0.8-2-2-2h-31.3V43.8H244c1.1,0,2-0.8,2-2v-8.8c0-1.1-1-2-2-2h-26.1V13.7h31.3
			c1.2,0,2-1,2-2V3.1C251.2,2,250.3,1.1,249.2,1.1L249.2,1.1z"/>
		<path class="st0" d="M268.6,0.8c0.5,0,0.9,0.1,1.2,0.5l43.1,46l0.2,0.2h0.3h0.2h0.8v-0.8V3.1c0-0.6,0.5-1.2,1.2-1.2h9.7
			c0.6,0,1.2,0.6,1.2,1.2v71.1c0,0.6-0.6,1.1-1.2,1.1H324c-0.5,0-0.9-0.1-1.2-0.5l-43.3-47.8l-0.2-0.2h-0.3h-0.2h-0.8v0.8V73
			c0,0.6-0.5,1.2-1.2,1.2H267c-0.6,0-1.2-0.6-1.2-1.2V1.9c0-0.6,0.6-1.1,1.2-1.1H268.6 M268.6,0H267c-1.1,0-2,0.8-2,1.9V73
			c0,1.1,1,2,2,2h9.6c1.2,0,2-1,2-2V27.6h0.2l43.3,47.8c0.5,0.5,1.1,0.7,1.8,0.7h1.5c1.1,0,2-0.8,2-1.9V3.1c0-1.1-1-2-2-2h-9.7
			c-1.2,0-2,1-2,2v43.6h-0.2l-43.1-46C269.9,0.2,269.3,0,268.6,0L268.6,0z"/>
		<path class="st0" d="M389.9,1.8c0.8,0,1.2,0.6,1.2,1.2v8.7c0,0.6-0.5,1.2-1.2,1.2h-31.3h-0.8v0.8v17.3v0.8h0.8h26.1
			c0.6,0,1.2,0.6,1.2,1.2v8.8c0,0.8-0.6,1.2-1.2,1.2h-26.1h-0.8v0.8v18.5v0.8h0.8h31.3c0.8,0,1.2,0.6,1.2,1.2V73
			c0,0.6-0.5,1.2-1.2,1.2h-43c-0.8,0-1.2-0.6-1.2-1.2V3.1c0-0.6,0.5-1.2,1.2-1.2H389.9 M389.9,1.1h-43c-1.2,0-2,1-2,2V73
			c0,1.1,0.8,2,2,2h43c1.2,0,2-1,2-2v-8.7c0-1.1-0.8-2-2-2h-31.3V43.8h26.1c1.1,0,2-0.8,2-2v-8.8c0-1.1-1-2-2-2h-26.1V13.7h31.3
			c1.2,0,2-1,2-2V3.1C391.9,2,391.1,1.1,389.9,1.1L389.9,1.1z"/>
		<path class="st0" d="M438,1.8c12.3,0,22.3,9.8,22.3,22c0,9-5.8,16.9-15.2,20.6l-0.8,0.3l0.4,0.7l14.5,26.8c0.2,0.5,0.3,1,0,1.4
			c-0.2,0.4-0.6,0.6-1.2,0.6H447c-0.7,0-0.9-0.4-1-0.5l-14.1-28l-0.2-0.4h-0.5h-11.7h-0.8v0.8V73c0,0.6-0.6,1.2-1.2,1.2h-9.7
			c-0.8,0-1.2-0.6-1.2-1.2V3.1c0-0.6,0.5-1.2,1.2-1.2H438 M418.8,35.5h0.8h17.2c6.1,0,11.2-5.3,11.2-11.5c0-6-5.1-11-11.2-11h-17.2
			h-0.8v0.8v21V35.5 M438,1.1h-30.2c-1.2,0-2,1-2,2V73c0,1.1,0.8,2,2,2h9.7c1.1,0,2-1,2-2V46.1h11.7l14.1,28c0.2,0.4,0.7,1,1.7,1
			h11.1c1.8,0,2.5-1.7,1.8-3.1l-14.5-26.8c9.2-3.7,15.6-11.6,15.6-21.3C461,11.2,450.7,1.1,438,1.1L438,1.1z M419.6,34.8v-21h17.2
			c5.6,0,10.5,4.6,10.5,10.2c0,5.9-4.9,10.8-10.5,10.8H419.6L419.6,34.8z"/>
		<path class="st0" d="M503.3,0.8c0.6,0,0.9,0.2,1.1,0.7L537,72.6c0.2,0.4,0.2,0.8,0,1.2c-0.2,0.3-0.6,0.5-1.1,0.5h-9.2
			c-1.2,0-1.7-0.4-2.4-1.7l-5.2-11.4l-0.2-0.4h-0.5h-31.6h-0.5l-0.2,0.4L481,72.6c-0.2,0.6-0.9,1.6-2.4,1.6h-9.2
			c-0.5,0-0.9-0.2-1.1-0.5c-0.2-0.3-0.2-0.7,0-1.2l32.8-71.1c0.3-0.5,0.6-0.7,1.1-0.7H503.3 M490.8,50.5h1.2h21.2h1.2l-0.5-1.1
			l-10.6-23.2l-0.2-0.4h-0.5h-0.3h-0.5l-0.2,0.5l-10.4,23.2L490.8,50.5 M503.3,0h-1.1c-1,0-1.5,0.5-1.8,1.2l-32.9,71.1
			c-0.6,1.4,0.2,2.7,1.8,2.7h9.2c1.7,0,2.6-1.1,3.1-2.1l5.2-11.4h31.6l5.2,11.4c0.7,1.5,1.5,2.1,3.1,2.1h9.2c1.6,0,2.4-1.4,1.8-2.7
			L505.1,1.2C504.8,0.5,504.4,0,503.3,0L503.3,0z M492,49.8l10.4-23.2h0.3l10.6,23.2H492L492,49.8z"/>
		<path class="st0" d="M582.2,1.8c0.8,0,1.2,0.6,1.2,1.2v8.7c0,0.6-0.5,1.2-1.2,1.2H566h-0.8v0.8V73c0,0.6-0.6,1.2-1.2,1.2h-9.8
			c-0.6,0-1.2-0.6-1.2-1.2V13.7V13h-0.8H536c-0.8,0-1.2-0.6-1.2-1.2V3.1c0-0.6,0.5-1.2,1.2-1.2H582.2 M582.2,1.1H536c-1.2,0-2,1-2,2
			v8.7c0,1.1,0.8,2,2,2h16.2V73c0,1.1,1,2,2,2h9.8c1.1,0,2-1,2-2V13.7h16.2c1.2,0,2-1,2-2V3.1C584.2,2,583.4,1.1,582.2,1.1
			L582.2,1.1z"/>
		<path class="st0" d="M605.8,1.8c0.6,0,1.2,0.6,1.2,1.2V73c0,0.6-0.6,1.2-1.2,1.2H596c-0.6,0-1.2-0.6-1.2-1.2V3.1
			c0-0.6,0.6-1.2,1.2-1.2H605.8 M605.8,1.1H596c-1.1,0-2,1-2,2V73c0,1.1,1,2,2,2h9.8c1.1,0,2-1,2-2V3.1C607.8,2,606.9,1.1,605.8,1.1
			L605.8,1.1z"/>
		<path class="st0" d="M684.7,1.8c0.5,0,0.9,0.2,1.1,0.5c0.2,0.3,0.2,0.7,0,1.2L653,74.6c-0.3,0.5-0.6,0.7-1.1,0.7h-1.1
			c-0.5,0-0.9-0.2-1.1-0.7L617.1,3.5c-0.2-0.4-0.2-0.8,0-1.2c0.2-0.3,0.6-0.5,1.1-0.5H629c0.6,0,1,0.4,1.1,0.7L650.5,48l0.2,0.4h0.5
			h0.5h0.5l0.2-0.4l20.4-45.5c0.1-0.3,0.5-0.7,1.1-0.7H684.7 M684.7,1.1h-10.8c-1,0-1.6,0.6-1.8,1.2l-20.4,45.4h-0.5L630.8,2.2
			c-0.2-0.5-0.8-1.2-1.8-1.2h-10.8c-1.6,0-2.4,1.4-1.8,2.7l32.6,71.1c0.3,0.6,0.8,1.2,1.8,1.2h1.1c1,0,1.5-0.5,1.8-1.2l32.8-71.1
			C687.1,2.4,686.2,1.1,684.7,1.1L684.7,1.1z"/>
		<path class="st0" d="M740.1,1.8c0.8,0,1.2,0.6,1.2,1.2v8.7c0,0.6-0.5,1.2-1.2,1.2h-31.3h-0.8v0.8v17.3v0.8h0.8H735
			c0.6,0,1.2,0.6,1.2,1.2v8.8c0,0.8-0.6,1.2-1.2,1.2h-26.1h-0.8v0.8v18.5v0.8h0.8h31.3c0.8,0,1.2,0.6,1.2,1.2V73
			c0,0.6-0.5,1.2-1.2,1.2h-43c-0.8,0-1.2-0.6-1.2-1.2V3.1c0-0.6,0.5-1.2,1.2-1.2H740.1 M740.1,1.1h-43c-1.2,0-2,1-2,2V73
			c0,1.1,0.8,2,2,2h43c1.2,0,2-1,2-2v-8.7c0-1.1-0.8-2-2-2h-31.3V43.8H735c1.1,0,2-0.8,2-2v-8.8c0-1.1-1-2-2-2h-26.1V13.7h31.3
			c1.2,0,2-1,2-2V3.1C742.1,2,741.3,1.1,740.1,1.1L740.1,1.1z"/>
	</g>
	<g>
		<path class="st0" d="M32.3,183.3c12.3,0,22.3,9.8,22.3,22c0,9-5.8,16.9-15.2,20.6l-0.8,0.3L39,227l14.5,26.8c0.2,0.5,0.3,1,0,1.4
			c-0.2,0.4-0.6,0.6-1.1,0.6H41.3c-0.7,0-0.9-0.4-1-0.5l-14.1-28l-0.2-0.4h-0.5H13.8H13v0.8v26.9c0,0.6-0.6,1.2-1.2,1.2H2.1
			c-0.8,0-1.2-0.6-1.2-1.2v-69.9c0-0.6,0.5-1.2,1.2-1.2H32.3 M13.1,217h0.8h17.2c6.1,0,11.2-5.3,11.2-11.5c0-6-5.1-11-11.2-11H13.9
			h-0.8v0.8v21V217 M32.3,182.6H2.1c-1.2,0-2,1-2,2v69.9c0,1.1,0.8,2,2,2h9.7c1.1,0,2-1,2-2v-26.9h11.7l14.1,28c0.2,0.4,0.7,1,1.7,1
			h11.1c1.8,0,2.5-1.7,1.8-3.1l-14.5-26.8c9.2-3.7,15.6-11.6,15.6-21.3C55.3,192.7,45,182.6,32.3,182.6L32.3,182.6z M13.9,216.3v-21
			h17.2c5.6,0,10.5,4.6,10.5,10.2c0,5.9-4.9,10.8-10.5,10.8H13.9L13.9,216.3z"/>
		<path class="st0" d="M114.1,183.3c0.8,0,1.2,0.6,1.2,1.2v8.7c0,0.6-0.5,1.2-1.2,1.2H82.9h-0.8v0.8v17.3v0.8h0.8h26.1
			c0.6,0,1.2,0.6,1.2,1.2v8.8c0,0.8-0.6,1.2-1.2,1.2H82.9h-0.8v0.8v18.5v0.8h0.8h31.3c0.8,0,1.2,0.6,1.2,1.2v8.7
			c0,0.6-0.5,1.2-1.2,1.2h-43c-0.8,0-1.2-0.6-1.2-1.2v-69.9c0-0.6,0.5-1.2,1.2-1.2H114.1 M114.1,182.6h-43c-1.2,0-2,1-2,2v69.9
			c0,1.1,0.8,2,2,2h43c1.2,0,2-1,2-2v-8.7c0-1.1-0.8-2-2-2H82.9v-18.5h26.1c1.1,0,2-0.8,2-2v-8.8c0-1.1-1-2-2-2H82.9v-17.3h31.3
			c1.2,0,2-1,2-2v-8.7C116.1,183.5,115.3,182.6,114.1,182.6L114.1,182.6z"/>
		<path class="st0" d="M161.8,182.3c9,0,18,3.4,25.3,9.6c0.5,0.5,0.7,1.3,0.1,1.9l-6.5,6.9c-0.3,0.3-0.5,0.4-0.8,0.4
			c-0.3,0-0.6-0.1-0.9-0.4c-4.6-4.1-10.5-6.3-16.5-6.3c-13.5,0-24.4,11.3-24.4,25.3c0,13.8,11,25,24.5,25c6.1,0,10.8-1.9,12.9-2.7
			l0.5-0.2v-0.5v-9v-0.8h-0.8h-8.5c-0.7,0-1.2-0.5-1.2-1.1v-8.3c0-0.7,0.5-1.2,1.2-1.2h20.3c0.6,0,1.1,0.6,1.1,1.2v27
			c0,0.4-0.2,0.8-0.5,1.1c-0.6,0.4-11.2,6.7-25.8,6.7c-10,0-19.3-3.8-26.3-10.8c-7-7-10.9-16.3-10.9-26.3c0-10,3.9-19.4,10.9-26.5
			C142.5,186.2,151.8,182.3,161.8,182.3 M161.8,181.5c-21,0-37.9,17-37.9,38.1s16.9,37.8,37.9,37.8c15.3,0,26.2-6.9,26.2-6.9
			c0.4-0.3,0.8-0.8,0.8-1.7v-27c0-1.1-0.8-2-1.9-2h-20.3c-1.2,0-2,0.8-2,2v8.3c0,1.1,0.8,1.9,2,1.9h8.5v9c-2.1,0.8-6.7,2.6-12.6,2.6
			c-13.3,0-23.8-11.1-23.8-24.2c0-13.2,10.5-24.5,23.7-24.5c5.8,0,11.4,2.1,16,6.1c0.5,0.4,1,0.6,1.4,0.6s0.9-0.2,1.3-0.6l6.6-6.9
			c0.8-0.8,0.7-2.1-0.1-3C180.4,185.2,171.3,181.5,161.8,181.5L161.8,181.5z"/>
		<path class="st0" d="M249.2,183.3c0.8,0,1.2,0.6,1.2,1.2v8.7c0,0.6-0.5,1.2-1.2,1.2h-31.3h-0.8v0.8v17.3v0.8h0.8H244
			c0.6,0,1.2,0.6,1.2,1.2v8.8c0,0.8-0.6,1.2-1.2,1.2h-26.1h-0.8v0.8v18.5v0.8h0.8h31.3c0.8,0,1.2,0.6,1.2,1.2v8.7
			c0,0.6-0.5,1.2-1.2,1.2h-43c-0.8,0-1.2-0.6-1.2-1.2v-69.9c0-0.6,0.5-1.2,1.2-1.2H249.2 M249.2,182.6h-43c-1.2,0-2,1-2,2v69.9
			c0,1.1,0.8,2,2,2h43c1.2,0,2-1,2-2v-8.7c0-1.1-0.8-2-2-2h-31.3v-18.5H244c1.1,0,2-0.8,2-2v-8.8c0-1.1-1-2-2-2h-26.1v-17.3h31.3
			c1.2,0,2-1,2-2v-8.7C251.2,183.5,250.3,182.6,249.2,182.6L249.2,182.6z"/>
		<path class="st0" d="M268.6,182.3c0.5,0,0.9,0.1,1.2,0.5l43.1,46l0.2,0.2h0.3h0.2h0.8v-0.8v-43.6c0-0.6,0.5-1.2,1.2-1.2h9.7
			c0.6,0,1.2,0.6,1.2,1.2v71.1c0,0.6-0.6,1.1-1.2,1.1H324c-0.5,0-0.9-0.1-1.2-0.5l-43.3-47.8l-0.2-0.2h-0.3h-0.2h-0.8v0.8v45.4
			c0,0.6-0.5,1.2-1.2,1.2H267c-0.6,0-1.2-0.6-1.2-1.2v-71.1c0-0.6,0.6-1.1,1.2-1.1H268.6 M268.6,181.5H267c-1.1,0-2,0.8-2,1.9v71.1
			c0,1.1,1,2,2,2h9.6c1.2,0,2-1,2-2v-45.4h0.2l43.3,47.8c0.5,0.5,1.1,0.7,1.8,0.7h1.5c1.1,0,2-0.8,2-1.9v-71.1c0-1.1-1-2-2-2h-9.7
			c-1.2,0-2,1-2,2v43.6h-0.2l-43.1-46C269.9,181.7,269.3,181.5,268.6,181.5L268.6,181.5z"/>
		<path class="st0" d="M389.9,183.3c0.8,0,1.2,0.6,1.2,1.2v8.7c0,0.6-0.5,1.2-1.2,1.2h-31.3h-0.8v0.8v17.3v0.8h0.8h26.1
			c0.6,0,1.2,0.6,1.2,1.2v8.8c0,0.8-0.6,1.2-1.2,1.2h-26.1h-0.8v0.8v18.5v0.8h0.8h31.3c0.8,0,1.2,0.6,1.2,1.2v8.7
			c0,0.6-0.5,1.2-1.2,1.2h-43c-0.8,0-1.2-0.6-1.2-1.2v-69.9c0-0.6,0.5-1.2,1.2-1.2H389.9 M389.9,182.6h-43c-1.2,0-2,1-2,2v69.9
			c0,1.1,0.8,2,2,2h43c1.2,0,2-1,2-2v-8.7c0-1.1-0.8-2-2-2h-31.3v-18.5h26.1c1.1,0,2-0.8,2-2v-8.8c0-1.1-1-2-2-2h-26.1v-17.3h31.3
			c1.2,0,2-1,2-2v-8.7C391.9,183.5,391.1,182.6,389.9,182.6L389.9,182.6z"/>
		<path class="st0" d="M438,183.3c12.3,0,22.3,9.8,22.3,22c0,9-5.8,16.9-15.2,20.6l-0.8,0.3l0.4,0.7l14.5,26.8c0.2,0.5,0.3,1,0,1.4
			c-0.2,0.4-0.6,0.6-1.2,0.6H447c-0.7,0-0.9-0.4-1-0.5l-14.1-28l-0.2-0.4h-0.5h-11.7h-0.8v0.8v26.9c0,0.6-0.6,1.2-1.2,1.2h-9.7
			c-0.8,0-1.2-0.6-1.2-1.2v-69.9c0-0.6,0.5-1.2,1.2-1.2H438 M418.8,217h0.8h17.2c6.1,0,11.2-5.3,11.2-11.5c0-6-5.1-11-11.2-11h-17.2
			h-0.8v0.8v21V217 M438,182.6h-30.2c-1.2,0-2,1-2,2v69.9c0,1.1,0.8,2,2,2h9.7c1.1,0,2-1,2-2v-26.9h11.7l14.1,28
			c0.2,0.4,0.7,1,1.7,1h11.1c1.8,0,2.5-1.7,1.8-3.1l-14.5-26.8c9.2-3.7,15.6-11.6,15.6-21.3C461,192.7,450.7,182.6,438,182.6
			L438,182.6z M419.6,216.3v-21h17.2c5.6,0,10.5,4.6,10.5,10.2c0,5.9-4.9,10.8-10.5,10.8H419.6L419.6,216.3z"/>
		<path class="st0" d="M503.3,182.3c0.6,0,0.9,0.2,1.1,0.7l32.5,71.1c0.2,0.4,0.2,0.8,0,1.2c-0.2,0.3-0.6,0.5-1.1,0.5h-9.2
			c-1.2,0-1.7-0.4-2.4-1.7l-5.2-11.4l-0.2-0.4h-0.5h-31.6h-0.5l-0.2,0.4l-5.2,11.4c-0.2,0.6-0.9,1.6-2.4,1.6h-9.2
			c-0.5,0-0.9-0.2-1.1-0.5c-0.2-0.3-0.2-0.7,0-1.2l32.8-71.1c0.3-0.5,0.6-0.7,1.1-0.7H503.3 M490.8,232h1.2h21.2h1.2l-0.5-1.1
			l-10.6-23.2l-0.2-0.4h-0.5h-0.3h-0.5l-0.2,0.5L491.3,231L490.8,232 M503.3,181.5h-1.1c-1,0-1.5,0.5-1.8,1.2l-32.9,71.1
			c-0.6,1.4,0.2,2.7,1.8,2.7h9.2c1.7,0,2.6-1.1,3.1-2.1l5.2-11.4h31.6l5.2,11.4c0.7,1.5,1.5,2.1,3.1,2.1h9.2c1.6,0,2.4-1.4,1.8-2.7
			l-32.5-71.1C504.8,182,504.4,181.5,503.3,181.5L503.3,181.5z M492,231.3l10.4-23.2h0.3l10.6,23.2H492L492,231.3z"/>
		<path class="st0" d="M582.2,183.3c0.8,0,1.2,0.6,1.2,1.2v8.7c0,0.6-0.5,1.2-1.2,1.2H566h-0.8v0.8v59.3c0,0.6-0.6,1.2-1.2,1.2h-9.8
			c-0.6,0-1.2-0.6-1.2-1.2v-59.3v-0.8h-0.8H536c-0.8,0-1.2-0.6-1.2-1.2v-8.7c0-0.6,0.5-1.2,1.2-1.2H582.2 M582.2,182.6H536
			c-1.2,0-2,1-2,2v8.7c0,1.1,0.8,2,2,2h16.2v59.3c0,1.1,1,2,2,2h9.8c1.1,0,2-1,2-2v-59.3h16.2c1.2,0,2-1,2-2v-8.7
			C584.2,183.5,583.4,182.6,582.2,182.6L582.2,182.6z"/>
		<path class="st0" d="M605.8,183.3c0.6,0,1.2,0.6,1.2,1.2v69.9c0,0.6-0.6,1.2-1.2,1.2H596c-0.6,0-1.2-0.6-1.2-1.2v-69.9
			c0-0.6,0.6-1.2,1.2-1.2H605.8 M605.8,182.6H596c-1.1,0-2,1-2,2v69.9c0,1.1,1,2,2,2h9.8c1.1,0,2-1,2-2v-69.9
			C607.8,183.5,606.9,182.6,605.8,182.6L605.8,182.6z"/>
		<path class="st0" d="M684.7,183.3c0.5,0,0.9,0.2,1.1,0.5c0.2,0.3,0.2,0.7,0,1.2L653,256.1c-0.3,0.5-0.6,0.7-1.1,0.7h-1.1
			c-0.5,0-0.9-0.2-1.1-0.7L617.1,185c-0.2-0.4-0.2-0.8,0-1.2c0.2-0.3,0.6-0.5,1.1-0.5H629c0.6,0,1,0.4,1.1,0.7l20.4,45.4l0.2,0.4
			h0.5h0.5h0.5l0.2-0.4l20.4-45.5c0.1-0.3,0.5-0.7,1.1-0.7H684.7 M684.7,182.6h-10.8c-1,0-1.6,0.6-1.8,1.2l-20.4,45.4h-0.5
			l-20.4-45.4c-0.2-0.5-0.8-1.2-1.8-1.2h-10.8c-1.6,0-2.4,1.4-1.8,2.7l32.6,71.1c0.3,0.6,0.8,1.2,1.8,1.2h1.1c1,0,1.5-0.5,1.8-1.2
			l32.8-71.1C687.1,183.9,686.2,182.6,684.7,182.6L684.7,182.6z"/>
		<path class="st0" d="M740.1,183.3c0.8,0,1.2,0.6,1.2,1.2v8.7c0,0.6-0.5,1.2-1.2,1.2h-31.3h-0.8v0.8v17.3v0.8h0.8H735
			c0.6,0,1.2,0.6,1.2,1.2v8.8c0,0.8-0.6,1.2-1.2,1.2h-26.1h-0.8v0.8v18.5v0.8h0.8h31.3c0.8,0,1.2,0.6,1.2,1.2v8.7
			c0,0.6-0.5,1.2-1.2,1.2h-43c-0.8,0-1.2-0.6-1.2-1.2v-69.9c0-0.6,0.5-1.2,1.2-1.2H740.1 M740.1,182.6h-43c-1.2,0-2,1-2,2v69.9
			c0,1.1,0.8,2,2,2h43c1.2,0,2-1,2-2v-8.7c0-1.1-0.8-2-2-2h-31.3v-18.5H735c1.1,0,2-0.8,2-2v-8.8c0-1.1-1-2-2-2h-26.1v-17.3h31.3
			c1.2,0,2-1,2-2v-8.7C742.1,183.5,741.3,182.6,740.1,182.6L740.1,182.6z"/>
	</g>
	<g>
		<path class="st0" d="M32.3,274.1c12.3,0,22.3,9.8,22.3,22c0,9-5.8,16.9-15.2,20.6l-0.8,0.3l0.4,0.7l14.5,26.8c0.2,0.5,0.3,1,0,1.4
			c-0.2,0.4-0.6,0.6-1.1,0.6H41.3c-0.7,0-0.9-0.4-1-0.5l-14.1-28l-0.2-0.4h-0.5H13.8H13v0.8v26.9c0,0.6-0.6,1.2-1.2,1.2H2.1
			c-0.8,0-1.2-0.6-1.2-1.2v-69.9c0-0.6,0.5-1.2,1.2-1.2H32.3 M13.1,307.8h0.8h17.2c6.1,0,11.2-5.3,11.2-11.5c0-6-5.1-11-11.2-11
			H13.9h-0.8v0.8v21V307.8 M32.3,273.3H2.1c-1.2,0-2,1-2,2v69.9c0,1.1,0.8,2,2,2h9.7c1.1,0,2-1,2-2v-26.9h11.7l14.1,28
			c0.2,0.4,0.7,1,1.7,1h11.1c1.8,0,2.5-1.7,1.8-3.1l-14.5-26.8c9.2-3.7,15.6-11.6,15.6-21.3C55.3,283.5,45,273.3,32.3,273.3
			L32.3,273.3z M13.9,307v-21h17.2c5.6,0,10.5,4.6,10.5,10.2c0,5.9-4.9,10.8-10.5,10.8H13.9L13.9,307z"/>
		<path class="st0" d="M114.1,274.1c0.8,0,1.2,0.6,1.2,1.2v8.7c0,0.6-0.5,1.2-1.2,1.2H82.9h-0.8v0.8v17.3v0.8h0.8h26.1
			c0.6,0,1.2,0.6,1.2,1.2v8.8c0,0.8-0.6,1.2-1.2,1.2H82.9h-0.8v0.8v18.5v0.8h0.8h31.3c0.8,0,1.2,0.6,1.2,1.2v8.7
			c0,0.6-0.5,1.2-1.2,1.2h-43c-0.8,0-1.2-0.6-1.2-1.2v-69.9c0-0.6,0.5-1.2,1.2-1.2H114.1 M114.1,273.3h-43c-1.2,0-2,1-2,2v69.9
			c0,1.1,0.8,2,2,2h43c1.2,0,2-1,2-2v-8.7c0-1.1-0.8-2-2-2H82.9v-18.5h26.1c1.1,0,2-0.8,2-2v-8.8c0-1.1-1-2-2-2H82.9V286h31.3
			c1.2,0,2-1,2-2v-8.7C116.1,274.3,115.3,273.3,114.1,273.3L114.1,273.3z"/>
		<path class="st0" d="M161.8,273c9,0,18,3.4,25.3,9.6c0.5,0.5,0.7,1.3,0.1,1.9l-6.5,6.9c-0.3,0.3-0.5,0.4-0.8,0.4
			c-0.3,0-0.6-0.1-0.9-0.4c-4.6-4.1-10.5-6.3-16.5-6.3c-13.5,0-24.4,11.3-24.4,25.3c0,13.8,11,25,24.5,25c6.1,0,10.8-1.9,12.9-2.7
			l0.5-0.2v-0.5v-9v-0.8h-0.8h-8.5c-0.7,0-1.2-0.5-1.2-1.1v-8.3c0-0.7,0.5-1.2,1.2-1.2h20.3c0.6,0,1.1,0.6,1.1,1.2v27
			c0,0.4-0.2,0.8-0.5,1.1c-0.6,0.4-11.2,6.7-25.8,6.7c-10,0-19.3-3.8-26.3-10.8c-7-7-10.9-16.3-10.9-26.3c0-10,3.9-19.4,10.9-26.5
			C142.5,276.9,151.8,273,161.8,273 M161.8,272.3c-21,0-37.9,17-37.9,38.1s16.9,37.8,37.9,37.8c15.3,0,26.2-6.9,26.2-6.9
			c0.4-0.3,0.8-0.8,0.8-1.7v-27c0-1.1-0.8-2-1.9-2h-20.3c-1.2,0-2,0.8-2,2v8.3c0,1.1,0.8,1.9,2,1.9h8.5v9c-2.1,0.8-6.7,2.6-12.6,2.6
			c-13.3,0-23.8-11.1-23.8-24.2c0-13.2,10.5-24.5,23.7-24.5c5.8,0,11.4,2.1,16,6.1c0.5,0.4,1,0.6,1.4,0.6s0.9-0.2,1.3-0.6l6.6-6.9
			c0.8-0.8,0.7-2.1-0.1-3C180.4,276,171.3,272.3,161.8,272.3L161.8,272.3z"/>
		<path class="st0" d="M249.2,274.1c0.8,0,1.2,0.6,1.2,1.2v8.7c0,0.6-0.5,1.2-1.2,1.2h-31.3h-0.8v0.8v17.3v0.8h0.8H244
			c0.6,0,1.2,0.6,1.2,1.2v8.8c0,0.8-0.6,1.2-1.2,1.2h-26.1h-0.8v0.8v18.5v0.8h0.8h31.3c0.8,0,1.2,0.6,1.2,1.2v8.7
			c0,0.6-0.5,1.2-1.2,1.2h-43c-0.8,0-1.2-0.6-1.2-1.2v-69.9c0-0.6,0.5-1.2,1.2-1.2H249.2 M249.2,273.3h-43c-1.2,0-2,1-2,2v69.9
			c0,1.1,0.8,2,2,2h43c1.2,0,2-1,2-2v-8.7c0-1.1-0.8-2-2-2h-31.3v-18.5H244c1.1,0,2-0.8,2-2v-8.8c0-1.1-1-2-2-2h-26.1V286h31.3
			c1.2,0,2-1,2-2v-8.7C251.2,274.3,250.3,273.3,249.2,273.3L249.2,273.3z"/>
		<path class="st0" d="M268.6,273c0.5,0,0.9,0.1,1.2,0.5l43.1,46l0.2,0.2h0.3h0.2h0.8V319v-43.6c0-0.6,0.5-1.2,1.2-1.2h9.7
			c0.6,0,1.2,0.6,1.2,1.2v71.1c0,0.6-0.6,1.1-1.2,1.1H324c-0.5,0-0.9-0.1-1.2-0.5l-43.3-47.8l-0.2-0.2h-0.3h-0.2h-0.8v0.8v45.4
			c0,0.6-0.5,1.2-1.2,1.2H267c-0.6,0-1.2-0.6-1.2-1.2v-71.1c0-0.6,0.6-1.1,1.2-1.1H268.6 M268.6,272.3H267c-1.1,0-2,0.8-2,1.9v71.1
			c0,1.1,1,2,2,2h9.6c1.2,0,2-1,2-2v-45.4h0.2l43.3,47.8c0.5,0.5,1.1,0.7,1.8,0.7h1.5c1.1,0,2-0.8,2-1.9v-71.1c0-1.1-1-2-2-2h-9.7
			c-1.2,0-2,1-2,2V319h-0.2l-43.1-46C269.9,272.5,269.3,272.3,268.6,272.3L268.6,272.3z"/>
		<path class="st0" d="M389.9,274.1c0.8,0,1.2,0.6,1.2,1.2v8.7c0,0.6-0.5,1.2-1.2,1.2h-31.3h-0.8v0.8v17.3v0.8h0.8h26.1
			c0.6,0,1.2,0.6,1.2,1.2v8.8c0,0.8-0.6,1.2-1.2,1.2h-26.1h-0.8v0.8v18.5v0.8h0.8h31.3c0.8,0,1.2,0.6,1.2,1.2v8.7
			c0,0.6-0.5,1.2-1.2,1.2h-43c-0.8,0-1.2-0.6-1.2-1.2v-69.9c0-0.6,0.5-1.2,1.2-1.2H389.9 M389.9,273.3h-43c-1.2,0-2,1-2,2v69.9
			c0,1.1,0.8,2,2,2h43c1.2,0,2-1,2-2v-8.7c0-1.1-0.8-2-2-2h-31.3v-18.5h26.1c1.1,0,2-0.8,2-2v-8.8c0-1.1-1-2-2-2h-26.1V286h31.3
			c1.2,0,2-1,2-2v-8.7C391.9,274.3,391.1,273.3,389.9,273.3L389.9,273.3z"/>
		<path class="st0" d="M438,274.1c12.3,0,22.3,9.8,22.3,22c0,9-5.8,16.9-15.2,20.6l-0.8,0.3l0.4,0.7l14.5,26.8c0.2,0.5,0.3,1,0,1.4
			c-0.2,0.4-0.6,0.6-1.2,0.6H447c-0.7,0-0.9-0.4-1-0.5l-14.1-28l-0.2-0.4h-0.5h-11.7h-0.8v0.8v26.9c0,0.6-0.6,1.2-1.2,1.2h-9.7
			c-0.8,0-1.2-0.6-1.2-1.2v-69.9c0-0.6,0.5-1.2,1.2-1.2H438 M418.8,307.8h0.8h17.2c6.1,0,11.2-5.3,11.2-11.5c0-6-5.1-11-11.2-11
			h-17.2h-0.8v0.8v21V307.8 M438,273.3h-30.2c-1.2,0-2,1-2,2v69.9c0,1.1,0.8,2,2,2h9.7c1.1,0,2-1,2-2v-26.9h11.7l14.1,28
			c0.2,0.4,0.7,1,1.7,1h11.1c1.8,0,2.5-1.7,1.8-3.1l-14.5-26.8c9.2-3.7,15.6-11.6,15.6-21.3C461,283.5,450.7,273.3,438,273.3
			L438,273.3z M419.6,307v-21h17.2c5.6,0,10.5,4.6,10.5,10.2c0,5.9-4.9,10.8-10.5,10.8H419.6L419.6,307z"/>
		<path class="st0" d="M503.3,273c0.6,0,0.9,0.2,1.1,0.7l32.5,71.1c0.2,0.4,0.2,0.8,0,1.2c-0.2,0.3-0.6,0.5-1.1,0.5h-9.2
			c-1.2,0-1.7-0.4-2.4-1.7l-5.2-11.4l-0.2-0.4h-0.5h-31.6h-0.5l-0.2,0.4l-5.2,11.4c-0.2,0.6-0.9,1.6-2.4,1.6h-9.2
			c-0.5,0-0.9-0.2-1.1-0.5c-0.2-0.3-0.2-0.7,0-1.2l32.8-71.1c0.3-0.5,0.6-0.7,1.1-0.7H503.3 M490.8,322.8h1.2h21.2h1.2l-0.5-1.1
			l-10.6-23.2l-0.2-0.4h-0.5h-0.3h-0.5l-0.2,0.5l-10.4,23.2L490.8,322.8 M503.3,272.3h-1.1c-1,0-1.5,0.5-1.8,1.2l-32.9,71.1
			c-0.6,1.4,0.2,2.7,1.8,2.7h9.2c1.7,0,2.6-1.1,3.1-2.1l5.2-11.4h31.6l5.2,11.4c0.7,1.5,1.5,2.1,3.1,2.1h9.2c1.6,0,2.4-1.4,1.8-2.7
			l-32.5-71.1C504.8,272.8,504.4,272.3,503.3,272.3L503.3,272.3z M492,322l10.4-23.2h0.3l10.6,23.2H492L492,322z"/>
		<path class="st0" d="M582.2,274.1c0.8,0,1.2,0.6,1.2,1.2v8.7c0,0.6-0.5,1.2-1.2,1.2H566h-0.8v0.8v59.3c0,0.6-0.6,1.2-1.2,1.2h-9.8
			c-0.6,0-1.2-0.6-1.2-1.2V286v-0.8h-0.8H536c-0.8,0-1.2-0.6-1.2-1.2v-8.7c0-0.6,0.5-1.2,1.2-1.2H582.2 M582.2,273.3H536
			c-1.2,0-2,1-2,2v8.7c0,1.1,0.8,2,2,2h16.2v59.3c0,1.1,1,2,2,2h9.8c1.1,0,2-1,2-2V286h16.2c1.2,0,2-1,2-2v-8.7
			C584.2,274.3,583.4,273.3,582.2,273.3L582.2,273.3z"/>
		<path class="st0" d="M605.8,274.1c0.6,0,1.2,0.6,1.2,1.2v69.9c0,0.6-0.6,1.2-1.2,1.2H596c-0.6,0-1.2-0.6-1.2-1.2v-69.9
			c0-0.6,0.6-1.2,1.2-1.2H605.8 M605.8,273.3H596c-1.1,0-2,1-2,2v69.9c0,1.1,1,2,2,2h9.8c1.1,0,2-1,2-2v-69.9
			C607.8,274.3,606.9,273.3,605.8,273.3L605.8,273.3z"/>
		<path class="st0" d="M684.7,274.1c0.5,0,0.9,0.2,1.1,0.5c0.2,0.3,0.2,0.7,0,1.2L653,346.8c-0.3,0.5-0.6,0.7-1.1,0.7h-1.1
			c-0.5,0-0.9-0.2-1.1-0.7l-32.6-71.1c-0.2-0.4-0.2-0.8,0-1.2c0.2-0.3,0.6-0.5,1.1-0.5H629c0.6,0,1,0.4,1.1,0.7l20.4,45.4l0.2,0.4
			h0.5h0.5h0.5l0.2-0.4l20.4-45.5c0.1-0.3,0.5-0.7,1.1-0.7H684.7 M684.7,273.3h-10.8c-1,0-1.6,0.6-1.8,1.2l-20.4,45.4h-0.5
			l-20.4-45.4c-0.2-0.5-0.8-1.2-1.8-1.2h-10.8c-1.6,0-2.4,1.4-1.8,2.7l32.6,71.1c0.3,0.6,0.8,1.2,1.8,1.2h1.1c1,0,1.5-0.5,1.8-1.2
			l32.8-71.1C687.1,274.7,686.2,273.3,684.7,273.3L684.7,273.3z"/>
		<path class="st0" d="M740.1,274.1c0.8,0,1.2,0.6,1.2,1.2v8.7c0,0.6-0.5,1.2-1.2,1.2h-31.3h-0.8v0.8v17.3v0.8h0.8H735
			c0.6,0,1.2,0.6,1.2,1.2v8.8c0,0.8-0.6,1.2-1.2,1.2h-26.1h-0.8v0.8v18.5v0.8h0.8h31.3c0.8,0,1.2,0.6,1.2,1.2v8.7
			c0,0.6-0.5,1.2-1.2,1.2h-43c-0.8,0-1.2-0.6-1.2-1.2v-69.9c0-0.6,0.5-1.2,1.2-1.2H740.1 M740.1,273.3h-43c-1.2,0-2,1-2,2v69.9
			c0,1.1,0.8,2,2,2h43c1.2,0,2-1,2-2v-8.7c0-1.1-0.8-2-2-2h-31.3v-18.5H735c1.1,0,2-0.8,2-2v-8.8c0-1.1-1-2-2-2h-26.1V286h31.3
			c1.2,0,2-1,2-2v-8.7C742.1,274.3,741.3,273.3,740.1,273.3L740.1,273.3z"/>
	</g>
	<g>
		<path class="st0" d="M0.1,93.8c0-1.1,0.8-2,2-2h30.2c12.7,0,23,10.1,23,22.7c0,9.7-6.4,17.6-15.6,21.3l14.5,26.8
			c0.7,1.4,0,3.1-1.8,3.1H41.3c-1,0-1.5-0.5-1.7-1l-14.1-28H13.8v26.9c0,1.1-0.9,2-2,2H2.1c-1.2,0-2-1-2-2V93.8z M31.1,125.5
			c5.6,0,10.5-4.9,10.5-10.8c0-5.6-4.9-10.2-10.5-10.2H13.9v21H31.1z"/>
		<path class="st0" d="M69.1,93.8c0-1.1,0.8-2,2-2h43c1.2,0,2,1,2,2v8.7c0,1.1-0.8,2-2,2H82.8v17.3h26.1c1.1,0,2,1,2,2v8.8
			c0,1.2-0.9,2-2,2H82.8v18.5h31.3c1.2,0,2,1,2,2v8.7c0,1.1-0.8,2-2,2h-43c-1.2,0-2-1-2-2V93.8z"/>
		<path class="st0" d="M161.8,90.8c9.5,0,18.6,3.7,25.8,9.8c0.8,0.8,0.9,2.1,0.1,3l-6.6,6.9c-0.8,0.8-1.8,0.8-2.7,0
			c-4.5-4-10.1-6.1-16-6.1c-13.2,0-23.7,11.3-23.7,24.5c0,13.1,10.5,24.2,23.8,24.2c5.9,0,10.5-1.8,12.6-2.6v-9h-8.5
			c-1.2,0-2-0.8-2-1.9v-8.3c0-1.2,0.8-2,2-2h20.3c1.1,0,1.9,1,1.9,2v27c0,0.8-0.4,1.4-0.8,1.7c0,0-10.9,6.9-26.2,6.9
			c-21,0-37.9-16.7-37.9-37.8S140.8,90.8,161.8,90.8z"/>
		<path class="st0" d="M204.2,93.8c0-1.1,0.8-2,2-2h43c1.2,0,2,1,2,2v8.7c0,1.1-0.8,2-2,2h-31.3v17.3H244c1.1,0,2,1,2,2v8.8
			c0,1.2-1,2-2,2h-26.1v18.5h31.3c1.2,0,2,1,2,2v8.7c0,1.1-0.8,2-2,2h-43c-1.2,0-2-1-2-2V93.8z"/>
		<path class="st0" d="M265,92.7c0-1.1,1-1.9,2-1.9h1.6c0.7,0,1.3,0.2,1.8,0.7l43.1,46h0.2V93.8c0-1.1,0.8-2,2-2h9.7c1.1,0,2,1,2,2
			v71.1c0,1.1-1,1.9-2,1.9H324c-0.7,0-1.3-0.2-1.8-0.7l-43.3-47.8h-0.2v45.4c0,1.1-0.8,2-2,2H267c-1.1,0-2-1-2-2V92.7z"/>
		<path class="st0" d="M344.9,93.8c0-1.1,0.8-2,2-2h43c1.2,0,2,1,2,2v8.7c0,1.1-0.8,2-2,2h-31.3v17.3h26.1c1.1,0,2,1,2,2v8.8
			c0,1.2-0.9,2-2,2h-26.1v18.5h31.3c1.2,0,2,1,2,2v8.7c0,1.1-0.8,2-2,2h-43c-1.2,0-2-1-2-2V93.8z"/>
		<path class="st0" d="M405.7,93.8c0-1.1,0.8-2,2-2H438c12.7,0,23,10.1,23,22.7c0,9.7-6.4,17.6-15.6,21.3l14.5,26.8
			c0.7,1.4,0,3.1-1.8,3.1H447c-1,0-1.5-0.5-1.7-1l-14.1-28h-11.7v26.9c0,1.1-1,2-2,2h-9.7c-1.2,0-2-1-2-2V93.8z M436.8,125.5
			c5.6,0,10.5-4.9,10.5-10.8c0-5.6-4.9-10.2-10.5-10.2h-17.2v21H436.8z"/>
		<path class="st0" d="M467.6,163l32.9-71.1c0.3-0.6,0.8-1.2,1.8-1.2h1.1c1.1,0,1.5,0.5,1.8,1.2l32.5,71.1c0.6,1.4-0.2,2.7-1.8,2.7
			h-9.2c-1.6,0-2.3-0.6-3.1-2.1l-5.2-11.4h-31.6l-5.2,11.4c-0.4,1.1-1.4,2.1-3.1,2.1h-9.2C467.8,165.8,467,164.4,467.6,163z
			 M513.2,140.5l-10.6-23.2h-0.3L492,140.5H513.2z"/>
		<path class="st0" d="M552.2,104.5H536c-1.2,0-2-1-2-2v-8.7c0-1.1,0.8-2,2-2h46.2c1.2,0,2,1,2,2v8.7c0,1.1-0.8,2-2,2H566v59.3
			c0,1.1-1,2-2,2h-9.8c-1.1,0-2-1-2-2V104.5z"/>
		<path class="st0" d="M594,93.8c0-1.1,1-2,2-2h9.8c1.1,0,2,1,2,2v69.9c0,1.1-0.9,2-2,2H596c-1.1,0-2-1-2-2V93.8z"/>
		<path class="st0" d="M616.4,94.6c-0.6-1.4,0.2-2.7,1.8-2.7H629c0.9,0,1.6,0.6,1.8,1.2l20.4,45.4h0.5L672.1,93
			c0.2-0.5,0.8-1.2,1.8-1.2h10.8c1.6,0,2.4,1.4,1.8,2.7l-32.8,71.1c-0.3,0.6-0.8,1.2-1.8,1.2h-1.1c-1,0-1.5-0.5-1.8-1.2L616.4,94.6z
			"/>
		<path class="st0" d="M695.1,93.8c0-1.1,0.8-2,2-2h43c1.2,0,2,1,2,2v8.7c0,1.1-0.8,2-2,2h-31.3v17.3H735c1.1,0,2,1,2,2v8.8
			c0,1.2-0.9,2-2,2h-26.1v18.5h31.3c1.2,0,2,1,2,2v8.7c0,1.1-0.8,2-2,2h-43c-1.2,0-2-1-2-2V93.8z"/>
	</g>
</g>
</svg>
