<?xml version="1.0" encoding="utf-8"?>
<!-- Generator: Adobe Illustrator 25.4.1, SVG Export Plug-In . SVG Version: 6.00 Build 0)  -->
<svg version="1.1" id="Capa_1" xmlns="http://www.w3.org/2000/svg" xmlns:xlink="http://www.w3.org/1999/xlink" x="0px" y="0px"
	 viewBox="0 0 742.2 386.2" style="enable-background:new 0 0 742.2 386.2;" xml:space="preserve">
<style type="text/css">
	.st0{fill:#FFFFFF;}
</style>
<g>
	<path class="st0" d="M48.8,70.1H38.5c-1.1,0-1.6-0.7-1.7-1l-13.1-26H13v25c0,1.1-0.9,2-2,2H1.9c-1.1,0-2-0.9-2-2V2.9
		c0-1.1,0.9-2,2-2h28.2c11.9,0,21.6,9.6,21.6,21.3c0,8.7-5.6,16.3-14.5,20l13.4,24.9c0.4,0.7,0.4,1.5,0,2.1
		C50.3,69.8,49.6,70.1,48.8,70.1z M12.7,42.8h11.2l0,0.1L37,69c0.1,0.2,0.5,0.8,1.4,0.8h10.4c0.7,0,1.2-0.3,1.6-0.8
		c0.3-0.5,0.3-1.2,0-1.8L36.8,42l0.2-0.1c8.9-3.6,14.5-11.2,14.5-19.8c0-11.6-9.6-21-21.3-21H1.9c-1,0-1.7,0.8-1.7,1.7v65.3
		c0,1,0.8,1.7,1.7,1.7h9.1c0.9,0,1.7-0.8,1.7-1.7V42.8z M29,32.6H12.8V12.7H29c5.4,0,9.9,4.4,9.9,9.7C38.9,27.9,34.4,32.6,29,32.6z
		 M13.1,32.3H29c5.2,0,9.6-4.5,9.6-9.9c0-5.1-4.4-9.4-9.6-9.4H13.1V32.3z"/>
	<path class="st0" d="M107.1,70.1H66.9c-1.1,0-2-0.9-2-2V2.9c0-1.1,0.9-2,2-2h40.1c1.1,0,2,0.9,2,2v8.1c0,1.1-0.9,2-2,2H78v15.9
		h24.2c1.1,0,2,0.9,2,2V39c0,1.1-0.9,2-2,2H78v17h29c1.1,0,2,0.9,2,2v8.1C109.1,69.2,108.2,70.1,107.1,70.1z M66.9,1.1
		c-1,0-1.7,0.8-1.7,1.7v65.3c0,1,0.8,1.7,1.7,1.7h40.1c1,0,1.7-0.8,1.7-1.7V60c0-1-0.8-1.7-1.7-1.7H77.7V40.8h24.5
		c1,0,1.7-0.8,1.7-1.7v-8.2c0-0.9-0.8-1.7-1.7-1.7H77.7V12.7h29.3c1,0,1.7-0.8,1.7-1.7V2.9c0-1-0.8-1.7-1.7-1.7H66.9z"/>
	<path class="st0" d="M152.1,71c-9.5,0-18.5-3.7-25.2-10.3c-6.7-6.7-10.4-15.6-10.4-25.1c0-9.6,3.7-18.6,10.4-25.3
		c6.7-6.7,15.6-10.4,25.2-10.4c8.6,0,17.2,3.3,24.2,9.2c0.9,0.9,0.9,2.2,0.1,3l-6.1,6.4c-0.8,0.8-1.8,0.8-2.8,0
		c-4.2-3.7-9.3-5.7-14.8-5.7c-12.1,0-21.9,10.2-21.9,22.7c0,12.4,9.9,22.4,22,22.4c5.5,0,9.7-1.7,11.6-2.4v-8.1h-7.7
		c-1.2,0-2-0.8-2-1.9v-7.8c0-1.2,0.9-2,2-2h18.9c1,0,1.9,0.9,1.9,2v25.2c0,0.9-0.5,1.4-0.8,1.7C176.6,64.7,166.3,71,152.1,71z
		 M152.1,0.2c-9.4,0-18.3,3.7-24.9,10.4c-6.6,6.7-10.3,15.6-10.3,25.1c0,9.5,3.7,18.3,10.3,24.9c6.6,6.6,15.5,10.2,24.9,10.2
		c14.1,0,24.3-6.3,24.4-6.4c0.5-0.4,0.7-0.8,0.7-1.4V37.7c0-0.9-0.7-1.7-1.6-1.7h-18.9c-1,0-1.7,0.7-1.7,1.7v7.8
		c0,0.9,0.7,1.6,1.7,1.6h8v8.6l-0.1,0c-1.9,0.7-6.2,2.5-11.8,2.5c-12.3,0-22.3-10.2-22.3-22.7c0-12.7,10-23,22.2-23
		c5.5,0,10.7,2,15,5.8c0.8,0.7,1.6,0.7,2.4,0l6.1-6.4c0.7-0.7,0.7-1.8-0.1-2.6C169.2,3.4,160.7,0.2,152.1,0.2z"/>
	<path class="st0" d="M233.6,70.1h-40.1c-1.1,0-2-0.9-2-2V2.9c0-1.1,0.9-2,2-2h40.1c1.1,0,2,0.9,2,2v8.1c0,1.1-0.9,2-2,2h-29v15.9
		h24.2c1.1,0,2,0.9,2,2V39c0,1.1-0.9,2-2,2h-24.2v17h29c1.1,0,2,0.9,2,2v8.1C235.6,69.2,234.7,70.1,233.6,70.1z M193.4,1.1
		c-1,0-1.7,0.8-1.7,1.7v65.3c0,1,0.8,1.7,1.7,1.7h40.1c1,0,1.7-0.8,1.7-1.7V60c0-1-0.8-1.7-1.7-1.7h-29.3V40.8h24.5
		c1,0,1.7-0.8,1.7-1.7v-8.2c0-0.9-0.8-1.7-1.7-1.7h-24.5V12.7h29.3c1,0,1.7-0.8,1.7-1.7V2.9c0-1-0.8-1.7-1.7-1.7H193.4z"/>
	<path class="st0" d="M304.7,71.1h-1.4c-0.7,0-1.3-0.2-1.8-0.7l-40.4-44.5v42.2c0,1.1-0.9,2-2,2h-9c-1.1,0-2-0.9-2-2V1.8
		c0-1,0.9-1.9,2-1.9h1.5c0.7,0,1.3,0.2,1.8,0.7l40.2,42.8V2.9c0-1.1,0.9-2,2-2h9.1c1.1,0,2,0.9,2,2v66.4
		C306.8,70.3,305.8,71.1,304.7,71.1z M260.9,25.6h0.4l0,0l40.4,44.6c0.5,0.5,0.9,0.6,1.6,0.6h1.4c0.9,0,1.7-0.7,1.7-1.6V2.9
		c0-0.9-0.8-1.7-1.7-1.7h-9.1c-1,0-1.7,0.8-1.7,1.7v40.9h-0.4L253.3,0.8c-0.5-0.5-0.9-0.6-1.6-0.6h-1.5c-0.9,0-1.7,0.7-1.7,1.6v66.4
		c0,0.9,0.8,1.7,1.7,1.7h9c1,0,1.7-0.8,1.7-1.7V25.6z"/>
	<path class="st0" d="M365.4,70.1h-40.1c-1.1,0-2-0.9-2-2V2.9c0-1.1,0.9-2,2-2h40.1c1.1,0,2,0.9,2,2v8.1c0,1.1-0.9,2-2,2h-29v15.9
		h24.2c1.1,0,2,0.9,2,2V39c0,1.1-0.9,2-2,2h-24.2v17h29c1.1,0,2,0.9,2,2v8.1C367.4,69.2,366.5,70.1,365.4,70.1z M325.3,1.1
		c-1,0-1.7,0.8-1.7,1.7v65.3c0,1,0.8,1.7,1.7,1.7h40.1c1,0,1.7-0.8,1.7-1.7V60c0-1-0.8-1.7-1.7-1.7H336V40.8h24.5
		c1,0,1.7-0.8,1.7-1.7v-8.2c0-0.9-0.8-1.7-1.7-1.7H336V12.7h29.3c1,0,1.7-0.8,1.7-1.7V2.9c0-1-0.8-1.7-1.7-1.7H325.3z"/>
	<path class="st0" d="M429,70.1h-10.4c-1.1,0-1.6-0.7-1.7-1l-13.1-26h-10.7v25c0,1.1-0.9,2-2,2H382c-1.1,0-2-0.9-2-2V2.9
		c0-1.1,0.9-2,2-2h28.2c11.9,0,21.6,9.6,21.6,21.3c0,8.7-5.6,16.3-14.5,20l13.4,24.9c0.4,0.7,0.4,1.5,0,2.1
		C430.4,69.8,429.8,70.1,429,70.1z M392.8,42.8H404l0,0.1L417.2,69c0.1,0.2,0.5,0.8,1.4,0.8H429c0.7,0,1.2-0.3,1.6-0.8
		c0.3-0.5,0.3-1.2,0-1.8L416.9,42l0.2-0.1c8.9-3.6,14.5-11.2,14.5-19.8c0-11.6-9.6-21-21.3-21H382c-1,0-1.7,0.8-1.7,1.7v65.3
		c0,1,0.8,1.7,1.7,1.7h9.1c0.9,0,1.7-0.8,1.7-1.7V42.8z M409.2,32.6h-16.2V12.7h16.2c5.4,0,9.9,4.4,9.9,9.7
		C419.1,27.9,414.5,32.6,409.2,32.6z M393.2,32.3h15.9c5.2,0,9.6-4.5,9.6-9.9c0-5.1-4.4-9.4-9.6-9.4h-15.9V32.3z"/>
	<path class="st0" d="M500.7,70.1h-8.6c-1.6,0-2.3-0.8-3-2.1l-4.8-10.6h-29.3l-4.8,10.6c-0.2,0.6-1,2.1-3,2.1h-8.6
		c-0.8,0-1.4-0.3-1.7-0.9c-0.4-0.5-0.4-1.2-0.1-1.9L467.6,1c0.4-0.8,1-1.2,1.8-1.2h1c1.1,0,1.5,0.6,1.8,1.2l30.4,66.4
		c0.3,0.7,0.3,1.4-0.1,1.9C502.1,69.8,501.5,70.1,500.7,70.1z M454.9,57.2h29.7l4.9,10.7c0.7,1.4,1.4,1.9,2.7,1.9h8.6
		c0.6,0,1.2-0.3,1.5-0.7c0.3-0.5,0.3-1,0.1-1.6L471.9,1.1c-0.3-0.6-0.7-1-1.5-1h-1c-0.7,0-1.2,0.3-1.5,1l-30.7,66.3
		c-0.3,0.6-0.2,1.2,0.1,1.6c0.3,0.5,0.8,0.7,1.5,0.7h8.6c1.8,0,2.5-1.3,2.7-1.9L454.9,57.2z M479.9,46.6h-20.3l0.1-0.2l9.7-21.8h0.5
		l0,0.1L479.9,46.6z M460.1,46.3h19.4l-9.7-21.4h-0.1L460.1,46.3z"/>
	<path class="st0" d="M528.8,70.1h-9.2c-1.1,0-2-0.9-2-2V13h-14.9c-1.1,0-2-0.9-2-2V2.9c0-1.1,0.9-2,2-2h43.1c1.1,0,2,0.9,2,2v8.1
		c0,1.1-0.9,2-2,2h-14.9v55.2C530.9,69.2,529.9,70.1,528.8,70.1z M502.7,1.1c-1,0-1.7,0.8-1.7,1.7v8.1c0,1,0.8,1.7,1.7,1.7h15.2
		v55.5c0,0.9,0.8,1.7,1.7,1.7h9.2c0.9,0,1.7-0.8,1.7-1.7V12.7h15.2c1,0,1.7-0.8,1.7-1.7V2.9c0-1-0.8-1.7-1.7-1.7H502.7z"/>
	<path class="st0" d="M569.7,70.1h-9.2c-1.1,0-2-0.9-2-2V2.9c0-1.1,0.9-2,2-2h9.2c1.1,0,2,0.9,2,2v65.3
		C571.7,69.2,570.7,70.1,569.7,70.1z M560.5,1.1c-0.9,0-1.7,0.8-1.7,1.7v65.3c0,0.9,0.8,1.7,1.7,1.7h9.2c0.9,0,1.7-0.8,1.7-1.7V2.9
		c0-0.9-0.8-1.7-1.7-1.7H560.5z"/>
	<path class="st0" d="M613.1,71.1h-1c-0.8,0-1.4-0.4-1.8-1.2L579.9,3.6c-0.3-0.7-0.3-1.4,0.1-1.9c0.4-0.6,1-0.9,1.7-0.9h10.1
		c0.9,0,1.6,0.6,1.8,1.2l19,42.3h0.3l19-42.3c0.2-0.6,0.9-1.2,1.8-1.2h10.1c0.8,0,1.4,0.3,1.7,0.9c0.4,0.5,0.4,1.2,0.1,1.9L615,70
		C614.6,70.7,614,71.1,613.1,71.1z M581.7,1.1c-0.6,0-1.2,0.3-1.5,0.7c-0.3,0.5-0.3,1-0.1,1.6l0,0l30.5,66.4c0.3,0.7,0.8,1,1.5,1h1
		c0.7,0,1.2-0.3,1.5-1l30.6-66.3c0.3-0.6,0.2-1.2-0.1-1.6c-0.3-0.5-0.8-0.7-1.5-0.7h-10.1c-0.8,0-1.3,0.5-1.5,1L613,44.6h-0.7l0-0.1
		l-19-42.4c-0.2-0.5-0.8-1-1.5-1H581.7z"/>
	<path class="st0" d="M695.9,70.1h-40.1c-1.1,0-2-0.9-2-2V2.9c0-1.1,0.9-2,2-2h40.1c1.1,0,2,0.9,2,2v8.1c0,1.1-0.9,2-2,2h-29v15.9
		H691c1.1,0,2,0.9,2,2V39c0,1.1-0.9,2-2,2h-24.2v17h29c1.1,0,2,0.9,2,2v8.1C697.9,69.2,697,70.1,695.9,70.1z M655.7,1.1
		c-1,0-1.7,0.8-1.7,1.7v65.3c0,1,0.8,1.7,1.7,1.7h40.1c1,0,1.7-0.8,1.7-1.7V60c0-1-0.8-1.7-1.7-1.7h-29.3V40.8H691
		c1,0,1.7-0.8,1.7-1.7v-8.2c0-0.9-0.8-1.7-1.7-1.7h-24.5V12.7h29.3c1,0,1.7-0.8,1.7-1.7V2.9c0-1-0.8-1.7-1.7-1.7H655.7z"/>
	<path class="st0" d="M48.8,148.9H38.5c-1.1,0-1.6-0.7-1.7-1l-13.1-26H13v25c0,1.1-0.9,2-2,2H1.9c-1.1,0-2-0.9-2-2V81.7
		c0-1.1,0.9-2,2-2h28.2c11.9,0,21.6,9.6,21.6,21.3c0,8.7-5.6,16.3-14.5,20l13.4,24.9c0.4,0.7,0.4,1.5,0,2.1
		C50.3,148.6,49.6,148.9,48.8,148.9z M12.7,121.6h11.2l0,0.1L37,147.8c0.1,0.2,0.5,0.8,1.4,0.8h10.4c0.7,0,1.2-0.3,1.6-0.8
		c0.3-0.5,0.3-1.2,0-1.8l-13.6-25.2l0.2-0.1c8.9-3.6,14.5-11.2,14.5-19.8c0-11.6-9.6-21-21.3-21H1.9c-1,0-1.7,0.8-1.7,1.7v65.3
		c0,1,0.8,1.7,1.7,1.7h9.1c0.9,0,1.7-0.8,1.7-1.7V121.6z M29,111.4H12.8V91.5H29c5.4,0,9.9,4.4,9.9,9.7
		C38.9,106.7,34.4,111.4,29,111.4z M13.1,111.1H29c5.2,0,9.6-4.5,9.6-9.9c0-5.1-4.4-9.4-9.6-9.4H13.1V111.1z"/>
	<path class="st0" d="M107.1,148.9H66.9c-1.1,0-2-0.9-2-2V81.7c0-1.1,0.9-2,2-2h40.1c1.1,0,2,0.9,2,2v8.1c0,1.1-0.9,2-2,2H78v15.9
		h24.2c1.1,0,2,0.9,2,2v8.2c0,1.1-0.9,2-2,2H78v17h29c1.1,0,2,0.9,2,2v8.1C109.1,148,108.2,148.9,107.1,148.9z M66.9,79.9
		c-1,0-1.7,0.8-1.7,1.7v65.3c0,1,0.8,1.7,1.7,1.7h40.1c1,0,1.7-0.8,1.7-1.7v-8.1c0-1-0.8-1.7-1.7-1.7H77.7v-17.6h24.5
		c1,0,1.7-0.8,1.7-1.7v-8.2c0-0.9-0.8-1.7-1.7-1.7H77.7V91.5h29.3c1,0,1.7-0.8,1.7-1.7v-8.1c0-1-0.8-1.7-1.7-1.7H66.9z"/>
	<path class="st0" d="M152.1,149.8c-9.5,0-18.5-3.7-25.2-10.3c-6.7-6.7-10.4-15.6-10.4-25.1c0-9.6,3.7-18.6,10.4-25.3
		c6.7-6.7,15.6-10.4,25.2-10.4c8.6,0,17.2,3.3,24.2,9.2c0.4,0.4,0.7,0.9,0.7,1.5c0,0.6-0.2,1.1-0.6,1.5l-6.1,6.4
		c-0.8,0.8-1.8,0.8-2.8,0c-4.2-3.7-9.3-5.7-14.8-5.7c-12.1,0-21.9,10.2-21.9,22.7c0,12.4,9.9,22.4,22,22.4c5.5,0,9.7-1.7,11.6-2.4
		v-8.1h-7.7c-1.2,0-2-0.8-2-1.9v-7.8c0-1.2,0.9-2,2-2h18.9c1,0,1.9,0.9,1.9,2v25.2c0,0.9-0.5,1.4-0.8,1.7
		C176.6,143.5,166.3,149.8,152.1,149.8z M152.1,78.9c-9.4,0-18.3,3.7-24.9,10.4c-6.6,6.7-10.3,15.6-10.3,25.1
		c0,9.5,3.7,18.3,10.3,24.9c6.6,6.6,15.5,10.2,24.9,10.2c14.1,0,24.3-6.3,24.4-6.4c0.5-0.4,0.7-0.8,0.7-1.5v-25.2
		c0-0.9-0.7-1.7-1.6-1.7h-18.9c-1,0-1.7,0.7-1.7,1.7v7.8c0,0.9,0.7,1.6,1.7,1.6h8v8.6l-0.1,0c-1.9,0.7-6.2,2.5-11.8,2.5
		c-12.3,0-22.3-10.2-22.3-22.7c0-12.7,10-23,22.2-23c5.5,0,10.7,2,15,5.8c0.8,0.7,1.6,0.7,2.4,0l6.1-6.4c0.3-0.3,0.5-0.8,0.5-1.3
		c0-0.5-0.2-0.9-0.6-1.3C169.2,82.2,160.7,78.9,152.1,78.9z"/>
	<path class="st0" d="M233.6,148.9h-40.1c-1.1,0-2-0.9-2-2V81.7c0-1.1,0.9-2,2-2h40.1c1.1,0,2,0.9,2,2v8.1c0,1.1-0.9,2-2,2h-29v15.9
		h24.2c1.1,0,2,0.9,2,2v8.2c0,1.1-0.9,2-2,2h-24.2v17h29c1.1,0,2,0.9,2,2v8.1C235.6,148,234.7,148.9,233.6,148.9z M193.4,79.9
		c-1,0-1.7,0.8-1.7,1.7v65.3c0,1,0.8,1.7,1.7,1.7h40.1c1,0,1.7-0.8,1.7-1.7v-8.1c0-1-0.8-1.7-1.7-1.7h-29.3v-17.6h24.5
		c1,0,1.7-0.8,1.7-1.7v-8.2c0-0.9-0.8-1.7-1.7-1.7h-24.5V91.5h29.3c1,0,1.7-0.8,1.7-1.7v-8.1c0-1-0.8-1.7-1.7-1.7H193.4z"/>
	<path class="st0" d="M304.7,149.9h-1.4c-0.7,0-1.3-0.2-1.8-0.7l-40.4-44.5v42.2c0,1.1-0.9,2-2,2h-9c-1.1,0-2-0.9-2-2V80.6
		c0-1,0.9-1.9,2-1.9h1.5c0.7,0,1.3,0.2,1.8,0.7l40.2,42.8V81.7c0-1.1,0.9-2,2-2h9.1c1.1,0,2,0.9,2,2V148
		C306.8,149.1,305.8,149.9,304.7,149.9z M260.9,104.4h0.4l0,0l40.4,44.6c0.5,0.5,0.9,0.6,1.6,0.6h1.4c0.9,0,1.7-0.7,1.7-1.6V81.7
		c0-0.9-0.8-1.7-1.7-1.7h-9.1c-1,0-1.7,0.8-1.7,1.7v40.9h-0.4l-40.3-42.9c-0.5-0.5-0.9-0.6-1.6-0.6h-1.5c-0.9,0-1.7,0.7-1.7,1.6
		v66.4c0,0.9,0.8,1.7,1.7,1.7h9c1,0,1.7-0.8,1.7-1.7V104.4z"/>
	<path class="st0" d="M365.4,148.9h-40.1c-1.1,0-2-0.9-2-2V81.7c0-1.1,0.9-2,2-2h40.1c1.1,0,2,0.9,2,2v8.1c0,1.1-0.9,2-2,2h-29v15.9
		h24.2c1.1,0,2,0.9,2,2v8.2c0,1.1-0.9,2-2,2h-24.2v17h29c1.1,0,2,0.9,2,2v8.1C367.4,148,366.5,148.9,365.4,148.9z M325.3,79.9
		c-1,0-1.7,0.8-1.7,1.7v65.3c0,1,0.8,1.7,1.7,1.7h40.1c1,0,1.7-0.8,1.7-1.7v-8.1c0-1-0.8-1.7-1.7-1.7H336v-17.6h24.5
		c1,0,1.7-0.8,1.7-1.7v-8.2c0-0.9-0.8-1.7-1.7-1.7H336V91.5h29.3c1,0,1.7-0.8,1.7-1.7v-8.1c0-1-0.8-1.7-1.7-1.7H325.3z"/>
	<path class="st0" d="M429,148.9h-10.4c-1.1,0-1.6-0.7-1.7-1l-13.1-26h-10.7v25c0,1.1-0.9,2-2,2H382c-1.1,0-2-0.9-2-2V81.7
		c0-1.1,0.9-2,2-2h28.2c11.9,0,21.6,9.6,21.6,21.3c0,8.7-5.6,16.3-14.5,20l13.4,24.9c0.4,0.7,0.4,1.5,0,2.1
		C430.4,148.6,429.8,148.9,429,148.9z M392.8,121.6H404l0,0.1l13.1,26.1c0.1,0.2,0.5,0.8,1.4,0.8H429c0.7,0,1.2-0.3,1.6-0.8
		c0.3-0.5,0.3-1.2,0-1.8l-13.6-25.2l0.2-0.1c8.9-3.6,14.5-11.2,14.5-19.8c0-11.6-9.6-21-21.3-21H382c-1,0-1.7,0.8-1.7,1.7v65.3
		c0,1,0.8,1.7,1.7,1.7h9.1c0.9,0,1.7-0.8,1.7-1.7V121.6z M409.2,111.4h-16.2V91.5h16.2c5.4,0,9.9,4.4,9.9,9.7
		C419.1,106.7,414.5,111.4,409.2,111.4z M393.2,111.1h15.9c5.2,0,9.6-4.5,9.6-9.9c0-5.1-4.4-9.4-9.6-9.4h-15.9V111.1z"/>
	<path class="st0" d="M500.7,148.9h-8.6c-1.6,0-2.3-0.8-3-2.1l-4.8-10.6h-29.3l-4.8,10.6c-0.2,0.6-1,2.1-3,2.1h-8.6
		c-0.8,0-1.4-0.3-1.7-0.9c-0.4-0.5-0.4-1.2-0.1-1.9l30.7-66.4c0.4-0.8,1-1.2,1.8-1.2h1c1.1,0,1.5,0.6,1.8,1.2l30.4,66.4
		c0.3,0.7,0.3,1.4-0.1,1.9C502.1,148.6,501.5,148.9,500.7,148.9z M454.9,136h29.7l4.9,10.7c0.7,1.4,1.4,1.9,2.7,1.9h8.6
		c0.6,0,1.2-0.3,1.5-0.7c0.3-0.5,0.3-1,0.1-1.6l-30.4-66.4c-0.3-0.6-0.7-1-1.5-1h-1c-0.7,0-1.2,0.3-1.5,1l-30.7,66.3
		c-0.3,0.6-0.2,1.2,0.1,1.6c0.3,0.5,0.8,0.7,1.5,0.7h8.6c1.8,0,2.5-1.3,2.7-1.9L454.9,136z M479.9,125.4h-20.3l0.1-0.2l9.7-21.8h0.5
		l0,0.1L479.9,125.4z M460.1,125.1h19.4l-9.7-21.4h-0.1L460.1,125.1z"/>
	<path class="st0" d="M528.8,148.9h-9.2c-1.1,0-2-1-2-2V91.8h-14.9c-1.1,0-2-0.9-2-2v-8.1c0-1.1,0.9-2,2-2h43.1c1.1,0,2,0.9,2,2v8.1
		c0,1.1-0.9,2-2,2h-14.9v55.2C530.9,148,529.9,148.9,528.8,148.9z M502.7,79.9c-1,0-1.7,0.8-1.7,1.7v8.1c0,1,0.8,1.7,1.7,1.7h15.2
		v55.5c0,0.9,0.8,1.7,1.7,1.7h9.2c0.9,0,1.7-0.8,1.7-1.7V91.5h15.2c1,0,1.7-0.8,1.7-1.7v-8.1c0-1-0.8-1.7-1.7-1.7H502.7z"/>
	<path class="st0" d="M569.7,148.9h-9.2c-1.1,0-2-0.9-2-2V81.7c0-1.1,0.9-2,2-2h9.2c1.1,0,2,0.9,2,2v65.3
		C571.7,148,570.7,148.9,569.7,148.9z M560.5,79.9c-0.9,0-1.7,0.8-1.7,1.7v65.3c0,0.9,0.8,1.7,1.7,1.7h9.2c0.9,0,1.7-0.8,1.7-1.7
		V81.7c0-0.9-0.8-1.7-1.7-1.7H560.5z"/>
	<path class="st0" d="M613.1,149.9h-1c-0.8,0-1.4-0.4-1.8-1.2l-30.5-66.4c-0.3-0.7-0.3-1.4,0.1-1.9c0.4-0.6,1-0.9,1.7-0.9h10.1
		c0.9,0,1.6,0.6,1.8,1.2l19,42.3h0.3l19-42.3c0.2-0.6,0.9-1.2,1.8-1.2h10.1c0.8,0,1.4,0.3,1.7,0.9c0.4,0.5,0.4,1.2,0.1,1.9
		L615,148.8C614.6,149.5,614,149.9,613.1,149.9z M581.7,79.9c-0.6,0-1.2,0.3-1.5,0.7c-0.3,0.5-0.3,1-0.1,1.6l0,0l30.5,66.4
		c0.3,0.7,0.8,1,1.5,1h1c0.7,0,1.2-0.3,1.5-1l30.6-66.3c0.3-0.6,0.2-1.2,0-1.6c-0.3-0.5-0.8-0.7-1.5-0.7h-10.1c-0.8,0-1.3,0.5-1.5,1
		L613,123.4h-0.7l0-0.1l-19-42.4c-0.2-0.5-0.8-1-1.5-1H581.7z"/>
	<path class="st0" d="M695.9,148.9h-40.1c-1.1,0-2-0.9-2-2V81.7c0-1.1,0.9-2,2-2h40.1c1.1,0,2,0.9,2,2v8.1c0,1.1-0.9,2-2,2h-29v15.9
		H691c1.1,0,2,0.9,2,2v8.2c0,1.1-0.9,2-2,2h-24.2v17h29c1.1,0,2,0.9,2,2v8.1C697.9,148,697,148.9,695.9,148.9z M655.7,79.9
		c-1,0-1.7,0.8-1.7,1.7v65.3c0,1,0.8,1.7,1.7,1.7h40.1c1,0,1.7-0.8,1.7-1.7v-8.1c0-1-0.8-1.7-1.7-1.7h-29.3v-17.6H691
		c1,0,1.7-0.8,1.7-1.7v-8.2c0-0.9-0.8-1.7-1.7-1.7h-24.5V91.5h29.3c1,0,1.7-0.8,1.7-1.7v-8.1c0-1-0.8-1.7-1.7-1.7H655.7z"/>
	<path class="st0" d="M48.8,227.7H38.5c-1.1,0-1.6-0.7-1.7-1l-13.1-26H13v25c0,1.1-0.9,2-2,2H1.9c-1.1,0-2-0.9-2-2v-65.3
		c0-1.1,0.9-2,2-2h28.2c11.9,0,21.6,9.6,21.6,21.3c0,8.7-5.6,16.3-14.5,20l13.4,24.9c0.4,0.7,0.4,1.5,0,2.1
		C50.3,227.4,49.6,227.7,48.8,227.7z M12.7,200.4h11.2l0,0.1L37,226.6c0.1,0.2,0.5,0.8,1.4,0.8h10.4c0.7,0,1.2-0.3,1.6-0.8
		c0.3-0.5,0.3-1.2,0-1.8l-13.6-25.2l0.2-0.1c8.9-3.6,14.5-11.2,14.5-19.8c0-11.6-9.6-21-21.3-21H1.9c-1,0-1.7,0.8-1.7,1.7v65.3
		c0,1,0.8,1.7,1.7,1.7h9.1c0.9,0,1.7-0.8,1.7-1.7V200.4z M29,190.2H12.8v-19.9H29c5.4,0,9.9,4.4,9.9,9.7
		C38.9,185.5,34.4,190.2,29,190.2z M13.1,189.9H29c5.2,0,9.6-4.5,9.6-9.9c0-5.1-4.4-9.4-9.6-9.4H13.1V189.9z"/>
	<path class="st0" d="M107.1,227.7H66.9c-1.1,0-2-0.9-2-2v-65.3c0-1.1,0.9-2,2-2h40.1c1.1,0,2,0.9,2,2v8.1c0,1.1-0.9,2-2,2H78v15.9
		h24.2c1.1,0,2,0.9,2,2v8.2c0,1.1-0.9,2-2,2H78v17h29c1.1,0,2,0.9,2,2v8.1C109.1,226.8,108.2,227.7,107.1,227.7z M66.9,158.7
		c-1,0-1.7,0.8-1.7,1.7v65.3c0,1,0.8,1.7,1.7,1.7h40.1c1,0,1.7-0.8,1.7-1.7v-8.1c0-1-0.8-1.7-1.7-1.7H77.7v-17.6h24.5
		c1,0,1.7-0.8,1.7-1.7v-8.2c0-0.9-0.8-1.7-1.7-1.7H77.7v-16.5h29.3c1,0,1.7-0.8,1.7-1.7v-8.1c0-1-0.8-1.7-1.7-1.7H66.9z"/>
	<path class="st0" d="M152.1,228.6c-9.5,0-18.5-3.7-25.2-10.3c-6.7-6.7-10.4-15.6-10.4-25.1c0-9.6,3.7-18.6,10.4-25.3
		c6.7-6.7,15.6-10.4,25.2-10.4c8.6,0,17.2,3.3,24.2,9.2c0.9,0.9,0.9,2.2,0.1,3l-6.1,6.4c-0.8,0.8-1.8,0.8-2.8,0
		c-4.2-3.7-9.3-5.7-14.8-5.7c-12.1,0-21.9,10.2-21.9,22.7c0,12.4,9.9,22.4,22,22.4c5.5,0,9.7-1.7,11.6-2.4V205h-7.7
		c-1.2,0-2-0.8-2-1.9v-7.8c0-1.2,0.9-2,2-2h18.9c1,0,1.9,0.9,1.9,2v25.2c0,0.9-0.5,1.4-0.8,1.7C176.6,222.3,166.3,228.6,152.1,228.6
		z M152.1,157.7c-9.4,0-18.3,3.7-24.9,10.4c-6.6,6.7-10.3,15.6-10.3,25.1c0,9.5,3.7,18.3,10.3,24.9c6.6,6.6,15.5,10.2,24.9,10.2
		c14.1,0,24.3-6.3,24.4-6.4c0.5-0.4,0.7-0.8,0.7-1.4v-25.2c0-0.9-0.7-1.7-1.6-1.7h-18.9c-1,0-1.7,0.7-1.7,1.7v7.8
		c0,0.9,0.7,1.6,1.7,1.6h8v8.6l-0.1,0c-1.9,0.7-6.2,2.5-11.8,2.5c-12.3,0-22.3-10.2-22.3-22.7c0-12.7,10-23,22.2-23
		c5.5,0,10.7,2,15,5.8c0.8,0.7,1.6,0.7,2.4,0l6.1-6.4c0.7-0.7,0.7-1.8-0.1-2.6C169.2,161,160.7,157.7,152.1,157.7z"/>
	<path class="st0" d="M233.6,227.7h-40.1c-1.1,0-2-0.9-2-2v-65.3c0-1.1,0.9-2,2-2h40.1c1.1,0,2,0.9,2,2v8.1c0,1.1-0.9,2-2,2h-29
		v15.9h24.2c1.1,0,2,0.9,2,2v8.2c0,1.1-0.9,2-2,2h-24.2v17h29c1.1,0,2,0.9,2,2v8.1C235.6,226.8,234.7,227.7,233.6,227.7z
		 M193.4,158.7c-1,0-1.7,0.8-1.7,1.7v65.3c0,1,0.8,1.7,1.7,1.7h40.1c1,0,1.7-0.8,1.7-1.7v-8.1c0-1-0.8-1.7-1.7-1.7h-29.3v-17.6h24.5
		c1,0,1.7-0.8,1.7-1.7v-8.2c0-0.9-0.8-1.7-1.7-1.7h-24.5v-16.5h29.3c1,0,1.7-0.8,1.7-1.7v-8.1c0-1-0.8-1.7-1.7-1.7H193.4z"/>
	<path class="st0" d="M304.7,228.7h-1.4c-0.7,0-1.3-0.2-1.8-0.7l-40.4-44.5v42.2c0,1.1-0.9,2-2,2h-9c-1.1,0-2-0.9-2-2v-66.4
		c0-1,0.9-1.9,2-1.9h1.5c0.7,0,1.3,0.2,1.8,0.7l40.2,42.8v-40.5c0-1.1,0.9-2,2-2h9.1c1.1,0,2,0.9,2,2v66.4
		C306.8,227.8,305.8,228.7,304.7,228.7z M260.9,183.2h0.4l0,0l40.4,44.6c0.5,0.5,0.9,0.6,1.6,0.6h1.4c0.9,0,1.7-0.7,1.7-1.6v-66.4
		c0-0.9-0.8-1.7-1.7-1.7h-9.1c-1,0-1.7,0.8-1.7,1.7v40.9h-0.4l0,0l-40.2-42.9c-0.5-0.5-0.9-0.6-1.6-0.6h-1.5c-0.9,0-1.7,0.7-1.7,1.6
		v66.4c0,0.9,0.8,1.7,1.7,1.7h9c1,0,1.7-0.8,1.7-1.7V183.2z"/>
	<path class="st0" d="M365.4,227.7h-40.1c-1.1,0-2-0.9-2-2v-65.3c0-1.1,0.9-2,2-2h40.1c1.1,0,2,0.9,2,2v8.1c0,1.1-0.9,2-2,2h-29
		v15.9h24.2c1.1,0,2,0.9,2,2v8.2c0,1.1-0.9,2-2,2h-24.2v17h29c1.1,0,2,0.9,2,2v8.1C367.4,226.8,366.5,227.7,365.4,227.7z
		 M325.3,158.7c-1,0-1.7,0.8-1.7,1.7v65.3c0,1,0.8,1.7,1.7,1.7h40.1c1,0,1.7-0.8,1.7-1.7v-8.1c0-1-0.8-1.7-1.7-1.7H336v-17.6h24.5
		c1,0,1.7-0.8,1.7-1.7v-8.2c0-0.9-0.8-1.7-1.7-1.7H336v-16.5h29.3c1,0,1.7-0.8,1.7-1.7v-8.1c0-1-0.8-1.7-1.7-1.7H325.3z"/>
	<path class="st0" d="M429,227.7h-10.4c-1.1,0-1.6-0.7-1.7-1l-13.1-26h-10.7v25c0,1.1-0.9,2-2,2H382c-1.1,0-2-0.9-2-2v-65.3
		c0-1.1,0.9-2,2-2h28.2c11.9,0,21.6,9.6,21.6,21.3c0,8.7-5.6,16.3-14.5,20l13.4,24.9c0.4,0.7,0.4,1.5,0,2.1
		C430.4,227.4,429.8,227.7,429,227.7z M392.8,200.4H404l0,0.1l13.1,26.1c0.1,0.2,0.5,0.8,1.4,0.8H429c0.7,0,1.2-0.3,1.6-0.8
		c0.3-0.5,0.3-1.2,0-1.8l-13.6-25.2l0.2-0.1c8.9-3.6,14.5-11.2,14.5-19.8c0-11.6-9.6-21-21.3-21H382c-1,0-1.7,0.8-1.7,1.7v65.3
		c0,1,0.8,1.7,1.7,1.7h9.1c0.9,0,1.7-0.8,1.7-1.7V200.4z M409.2,190.2h-16.2v-19.9h16.2c5.4,0,9.9,4.4,9.9,9.7
		C419.1,185.5,414.5,190.2,409.2,190.2z M393.2,189.9h15.9c5.2,0,9.6-4.5,9.6-9.9c0-5.1-4.4-9.4-9.6-9.4h-15.9V189.9z"/>
	<path class="st0" d="M500.7,227.7h-8.6c-1.6,0-2.3-0.8-3-2.1l-4.8-10.6h-29.3l-4.8,10.6c-0.2,0.6-1,2.1-3,2.1h-8.6
		c-0.8,0-1.4-0.3-1.7-0.9c-0.4-0.5-0.4-1.2-0.1-1.9l30.7-66.4c0.4-0.8,1-1.2,1.8-1.2h1c1.1,0,1.5,0.6,1.8,1.2l30.4,66.4
		c0.3,0.7,0.3,1.4-0.1,1.9C502.1,227.4,501.5,227.7,500.7,227.7z M454.9,214.8h29.7l0,0.1l4.8,10.6c0.7,1.4,1.4,1.9,2.7,1.9h8.6
		c0.6,0,1.2-0.3,1.5-0.7c0.3-0.5,0.3-1,0.1-1.6l-30.4-66.4c-0.3-0.6-0.7-1-1.5-1h-1c-0.7,0-1.2,0.3-1.5,1l-30.7,66.3
		c-0.3,0.6-0.2,1.2,0.1,1.6c0.3,0.5,0.8,0.7,1.5,0.7h8.6c1.8,0,2.5-1.3,2.7-1.9L454.9,214.8z M479.9,204.2h-20.3l0.1-0.2l9.7-21.8
		h0.5l0,0.1L479.9,204.2z M460.1,203.9h19.4l-9.7-21.4h-0.1L460.1,203.9z"/>
	<path class="st0" d="M528.8,227.7h-9.2c-1.1,0-2-1-2-2v-55.2h-14.9c-1.1,0-2-0.9-2-2v-8.1c0-1.1,0.9-2,2-2h43.1c1.1,0,2,0.9,2,2
		v8.1c0,1.1-0.9,2-2,2h-14.9v55.2C530.9,226.8,529.9,227.7,528.8,227.7z M502.7,158.7c-1,0-1.7,0.8-1.7,1.7v8.1c0,1,0.8,1.7,1.7,1.7
		h15.2v55.5c0,0.9,0.8,1.7,1.7,1.7h9.2c0.9,0,1.7-0.8,1.7-1.7v-55.5h15.2c1,0,1.7-0.8,1.7-1.7v-8.1c0-1-0.8-1.7-1.7-1.7H502.7z"/>
	<path class="st0" d="M569.7,227.7h-9.2c-1.1,0-2-0.9-2-2v-65.3c0-1.1,0.9-2,2-2h9.2c1.1,0,2,0.9,2,2v65.3
		C571.7,226.8,570.7,227.7,569.7,227.7z M560.5,158.7c-0.9,0-1.7,0.8-1.7,1.7v65.3c0,0.9,0.8,1.7,1.7,1.7h9.2c0.9,0,1.7-0.8,1.7-1.7
		v-65.3c0-0.9-0.8-1.7-1.7-1.7H560.5z"/>
	<path class="st0" d="M613.1,228.7h-1c-0.8,0-1.4-0.4-1.8-1.2l-30.5-66.4c-0.3-0.7-0.3-1.4,0.1-1.9c0.4-0.6,1-0.9,1.7-0.9h10.1
		c0.9,0,1.6,0.6,1.8,1.2l19,42.3h0.3l19-42.3c0.2-0.6,0.9-1.2,1.8-1.2h10.1c0.8,0,1.4,0.3,1.7,0.9c0.4,0.5,0.4,1.2,0.1,1.9
		L615,227.6C614.6,228.3,614,228.7,613.1,228.7z M581.7,158.7c-0.6,0-1.2,0.3-1.5,0.7c-0.3,0.5-0.3,1-0.1,1.6l0,0l30.5,66.4
		c0.3,0.7,0.8,1,1.5,1h1c0.7,0,1.2-0.3,1.5-1l30.6-66.3c0.3-0.6,0.2-1.2,0-1.6c-0.3-0.5-0.8-0.7-1.5-0.7h-10.1c-0.8,0-1.3,0.5-1.5,1
		L613,202.2h-0.7l0-0.1l-19-42.4c-0.2-0.5-0.8-1-1.5-1H581.7z"/>
	<path class="st0" d="M695.9,227.7h-40.1c-1.1,0-2-0.9-2-2v-65.3c0-1.1,0.9-2,2-2h40.1c1.1,0,2,0.9,2,2v8.1c0,1.1-0.9,2-2,2h-29
		v15.9H691c1.1,0,2,0.9,2,2v8.2c0,1.1-0.9,2-2,2h-24.2v17h29c1.1,0,2,0.9,2,2v8.1C697.9,226.8,697,227.7,695.9,227.7z M655.7,158.7
		c-1,0-1.7,0.8-1.7,1.7v65.3c0,1,0.8,1.7,1.7,1.7h40.1c1,0,1.7-0.8,1.7-1.7v-8.1c0-1-0.8-1.7-1.7-1.7h-29.3v-17.6H691
		c1,0,1.7-0.8,1.7-1.7v-8.2c0-0.9-0.8-1.7-1.7-1.7h-24.5v-16.5h29.3c1,0,1.7-0.8,1.7-1.7v-8.1c0-1-0.8-1.7-1.7-1.7H655.7z"/>
	<path class="st0" d="M0,239.2c0-1,0.8-1.9,1.9-1.9h28.2c11.8,0,21.5,9.5,21.5,21.2c0,9.1-6,16.5-14.6,19.9l13.5,25
		c0.7,1.3,0,2.9-1.7,2.9H38.5c-0.9,0-1.4-0.5-1.6-0.9l-13.1-26.1H12.8v25.1c0,1-0.9,1.9-1.9,1.9H1.9c-1.1,0-1.9-0.9-1.9-1.9V239.2z
		 M29,268.8c5.2,0,9.8-4.5,9.8-10.1c0-5.2-4.5-9.6-9.8-9.6H12.9v19.6H29z"/>
	<path class="st0" d="M65.1,239.2c0-1,0.8-1.9,1.9-1.9h40.1c1.1,0,1.9,0.9,1.9,1.9v8.1c0,1-0.8,1.9-1.9,1.9H77.9v16.2h24.4
		c1,0,1.9,0.9,1.9,1.9v8.2c0,1.1-0.9,1.9-1.9,1.9H77.9v17.3h29.2c1.1,0,1.9,0.9,1.9,1.9v8.1c0,1-0.8,1.9-1.9,1.9H66.9
		c-1.1,0-1.9-0.9-1.9-1.9V239.2z"/>
	<path class="st0" d="M152.1,236.4c8.9,0,17.4,3.5,24.1,9.2c0.8,0.8,0.9,2,0.1,2.8l-6.1,6.4c-0.8,0.8-1.7,0.8-2.6,0
		c-4.2-3.7-9.5-5.7-14.9-5.7c-12.3,0-22.1,10.5-22.1,22.9c0,12.2,9.8,22.6,22.2,22.6c5.5,0,9.8-1.7,11.7-2.5v-8.4h-7.9
		c-1.1,0-1.9-0.8-1.9-1.8V274c0-1.1,0.8-1.9,1.9-1.9h18.9c1,0,1.8,0.9,1.8,1.9v25.2c0,0.8-0.4,1.3-0.8,1.6c0,0-10.2,6.4-24.5,6.4
		c-19.6,0-35.4-15.6-35.4-35.3C116.7,252.3,132.5,236.4,152.1,236.4z"/>
	<path class="st0" d="M191.6,239.2c0-1,0.8-1.9,1.9-1.9h40.1c1.1,0,1.9,0.9,1.9,1.9v8.1c0,1-0.8,1.9-1.9,1.9h-29.2v16.2h24.4
		c1,0,1.9,0.9,1.9,1.9v8.2c0,1.1-0.9,1.9-1.9,1.9h-24.4v17.3h29.2c1.1,0,1.9,0.9,1.9,1.9v8.1c0,1-0.8,1.9-1.9,1.9h-40.1
		c-1.1,0-1.9-0.9-1.9-1.9V239.2z"/>
	<path class="st0" d="M248.4,238.2c0-1,0.9-1.8,1.9-1.8h1.5c0.7,0,1.2,0.2,1.7,0.7l40.2,42.9h0.2v-40.7c0-1,0.8-1.9,1.9-1.9h9.1
		c1,0,1.9,0.9,1.9,1.9v66.4c0,1-0.9,1.8-1.9,1.8h-1.4c-0.7,0-1.2-0.2-1.7-0.7l-40.4-44.6h-0.2v42.4c0,1-0.8,1.9-1.9,1.9h-9
		c-1,0-1.9-0.9-1.9-1.9V238.2z"/>
	<path class="st0" d="M323.4,239.2c0-1,0.8-1.9,1.9-1.9h40.1c1.1,0,1.9,0.9,1.9,1.9v8.1c0,1-0.8,1.9-1.9,1.9h-29.2v16.2h24.4
		c1,0,1.9,0.9,1.9,1.9v8.2c0,1.1-0.9,1.9-1.9,1.9h-24.4v17.3h29.2c1.1,0,1.9,0.9,1.9,1.9v8.1c0,1-0.8,1.9-1.9,1.9h-40.1
		c-1.1,0-1.9-0.9-1.9-1.9V239.2z"/>
	<path class="st0" d="M380.2,239.2c0-1,0.8-1.9,1.9-1.9h28.2c11.8,0,21.5,9.5,21.5,21.2c0,9.1-6,16.5-14.6,19.9l13.5,25
		c0.7,1.3,0,2.9-1.7,2.9h-10.4c-0.9,0-1.4-0.5-1.6-0.9l-13.1-26.1H393v25.1c0,1-0.9,1.9-1.9,1.9H382c-1.1,0-1.9-0.9-1.9-1.9V239.2z
		 M409.2,268.8c5.2,0,9.8-4.5,9.8-10.1c0-5.2-4.5-9.6-9.8-9.6h-16.1v19.6H409.2z"/>
	<path class="st0" d="M437.1,303.8l30.7-66.4c0.3-0.6,0.8-1.1,1.7-1.1h1c1,0,1.4,0.5,1.7,1.1l30.4,66.4c0.6,1.3-0.2,2.6-1.7,2.6
		h-8.6c-1.5,0-2.2-0.6-2.9-2l-4.8-10.6H455l-4.8,10.6c-0.4,1-1.3,2-2.9,2h-8.6C437.2,306.4,436.5,305.1,437.1,303.8z M479.6,282.8
		l-9.9-21.7h-0.3l-9.7,21.7H479.6z"/>
	<path class="st0" d="M517.8,249.2h-15.1c-1.1,0-1.9-0.9-1.9-1.9v-8.1c0-1,0.8-1.9,1.9-1.9h43.1c1.1,0,1.9,0.9,1.9,1.9v8.1
		c0,1-0.8,1.9-1.9,1.9h-15.1v55.3c0,1-0.9,1.9-1.9,1.9h-9.2c-1,0-1.9-0.9-1.9-1.9V249.2z"/>
	<path class="st0" d="M558.6,239.2c0-1,0.9-1.9,1.9-1.9h9.2c1,0,1.9,0.9,1.9,1.9v65.3c0,1-0.9,1.9-1.9,1.9h-9.2
		c-1,0-1.9-0.9-1.9-1.9V239.2z"/>
	<path class="st0" d="M580,239.9c-0.6-1.3,0.2-2.6,1.7-2.6h10.1c0.9,0,1.5,0.6,1.7,1.1l19,42.4h0.5l19-42.4c0.2-0.5,0.8-1.1,1.7-1.1
		h10.1c1.5,0,2.3,1.3,1.7,2.6l-30.6,66.4c-0.3,0.6-0.8,1.1-1.7,1.1h-1c-0.9,0-1.4-0.5-1.7-1.1L580,239.9z"/>
	<path class="st0" d="M653.9,239.2c0-1,0.8-1.9,1.9-1.9h40.1c1.1,0,1.9,0.9,1.9,1.9v8.1c0,1-0.8,1.9-1.9,1.9h-29.2v16.2H691
		c1,0,1.9,0.9,1.9,1.9v8.2c0,1.1-0.9,1.9-1.9,1.9h-24.4v17.3h29.2c1.1,0,1.9,0.9,1.9,1.9v8.1c0,1-0.8,1.9-1.9,1.9h-40.1
		c-1.1,0-1.9-0.9-1.9-1.9V239.2z"/>
	<path class="st0" d="M48.8,385.3H38.5c-1.1,0-1.6-0.7-1.7-1l-13.1-26H13v25c0,1.1-0.9,2-2,2H1.9c-1.1,0-2-0.9-2-2V318
		c0-1.1,0.9-2,2-2h28.2c11.9,0,21.6,9.6,21.6,21.3c0,8.7-5.6,16.3-14.5,20l13.4,24.9c0.4,0.7,0.4,1.5,0,2.1
		C50.3,385,49.6,385.3,48.8,385.3z M12.7,358h11.2l0,0.1L37,384.2c0.1,0.2,0.5,0.8,1.4,0.8h10.4c0.7,0,1.2-0.3,1.6-0.8
		c0.3-0.5,0.3-1.2,0-1.8l-13.6-25.2l0.2-0.1c8.9-3.6,14.5-11.2,14.5-19.8c0-11.6-9.6-21-21.3-21H1.9c-1,0-1.7,0.8-1.7,1.7v65.3
		c0,1,0.8,1.7,1.7,1.7h9.1c0.9,0,1.7-0.8,1.7-1.7V358z M29,347.8H12.8v-19.9H29c5.4,0,9.9,4.4,9.9,9.7
		C38.9,343.1,34.4,347.8,29,347.8z M13.1,347.5H29c5.2,0,9.6-4.5,9.6-9.9c0-5.1-4.4-9.4-9.6-9.4H13.1V347.5z"/>
	<path class="st0" d="M107.1,385.3H66.9c-1.1,0-2-0.9-2-2V318c0-1.1,0.9-2,2-2h40.1c1.1,0,2,0.9,2,2v8.1c0,1.1-0.9,2-2,2H78V344
		h24.2c1.1,0,2,0.9,2,2v8.2c0,1.1-0.9,2-2,2H78v17h29c1.1,0,2,0.9,2,2v8.1C109.1,384.4,108.2,385.3,107.1,385.3z M66.9,316.3
		c-1,0-1.7,0.8-1.7,1.7v65.3c0,1,0.8,1.7,1.7,1.7h40.1c1,0,1.7-0.8,1.7-1.7v-8.1c0-1-0.8-1.7-1.7-1.7H77.7v-17.6h24.5
		c1,0,1.7-0.8,1.7-1.7V346c0-0.9-0.8-1.7-1.7-1.7H77.7v-16.5h29.3c1,0,1.7-0.8,1.7-1.7V318c0-1-0.8-1.7-1.7-1.7H66.9z"/>
	<path class="st0" d="M152.1,386.2c-9.5,0-18.5-3.7-25.2-10.3c-6.7-6.7-10.4-15.6-10.4-25.1c0-9.6,3.7-18.6,10.4-25.3
		c6.7-6.7,15.6-10.4,25.2-10.4c8.6,0,17.2,3.3,24.2,9.2c0.9,0.9,0.9,2.2,0.1,3l-6.1,6.4c-0.8,0.8-1.8,0.8-2.8,0
		c-4.2-3.7-9.3-5.7-14.8-5.7c-12.1,0-21.9,10.2-21.9,22.7c0,12.4,9.9,22.4,22,22.4c5.5,0,9.7-1.7,11.6-2.4v-8.1h-7.7
		c-1.2,0-2-0.8-2-1.9v-7.8c0-1.2,0.9-2,2-2h18.9c1,0,1.9,0.9,1.9,2v25.2c0,0.9-0.5,1.4-0.8,1.7C176.6,379.9,166.3,386.2,152.1,386.2
		z M152.1,315.3c-9.4,0-18.3,3.7-24.9,10.4c-6.6,6.7-10.3,15.6-10.3,25.1c0,9.5,3.7,18.3,10.3,24.9c6.6,6.6,15.5,10.2,24.9,10.2
		c14.1,0,24.3-6.3,24.4-6.4c0.5-0.4,0.7-0.8,0.7-1.5v-25.2c0-0.9-0.7-1.7-1.6-1.7h-18.9c-1,0-1.7,0.7-1.7,1.7v7.8
		c0,0.9,0.7,1.6,1.7,1.6h8v8.6l-0.1,0c-1.8,0.7-6.2,2.5-11.8,2.5c-12.3,0-22.3-10.2-22.3-22.7c0-12.7,10-23,22.2-23
		c5.5,0,10.7,2,15,5.8c0.8,0.7,1.6,0.7,2.4,0l6.1-6.4c0.7-0.7,0.7-1.8-0.1-2.6C169.2,318.6,160.7,315.3,152.1,315.3z"/>
	<path class="st0" d="M233.6,385.3h-40.1c-1.1,0-2-0.9-2-2V318c0-1.1,0.9-2,2-2h40.1c1.1,0,2,0.9,2,2v8.1c0,1.1-0.9,2-2,2h-29V344
		h24.2c1.1,0,2,0.9,2,2v8.2c0,1.1-0.9,2-2,2h-24.2v17h29c1.1,0,2,0.9,2,2v8.1C235.6,384.4,234.7,385.3,233.6,385.3z M193.4,316.3
		c-1,0-1.7,0.8-1.7,1.7v65.3c0,1,0.8,1.7,1.7,1.7h40.1c1,0,1.7-0.8,1.7-1.7v-8.1c0-1-0.8-1.7-1.7-1.7h-29.3v-17.6h24.5
		c1,0,1.7-0.8,1.7-1.7V346c0-0.9-0.8-1.7-1.7-1.7h-24.5v-16.5h29.3c1,0,1.7-0.8,1.7-1.7V318c0-1-0.8-1.7-1.7-1.7H193.4z"/>
	<path class="st0" d="M304.7,386.3h-1.4c-0.7,0-1.3-0.2-1.8-0.7l-40.4-44.5v42.2c0,1.1-0.9,2-2,2h-9c-1.1,0-2-0.9-2-2V317
		c0-1,0.9-1.9,2-1.9h1.5c0.7,0,1.3,0.2,1.8,0.7l40.2,42.8V318c0-1.1,0.9-2,2-2h9.1c1.1,0,2,0.9,2,2v66.4
		C306.8,385.4,305.8,386.3,304.7,386.3z M260.9,340.8h0.4l0,0l40.4,44.6c0.5,0.5,0.9,0.6,1.6,0.6h1.4c0.9,0,1.7-0.7,1.7-1.6V318
		c0-0.9-0.8-1.7-1.7-1.7h-9.1c-1,0-1.7,0.8-1.7,1.7v40.9h-0.4l0,0L253.3,316c-0.5-0.5-0.9-0.6-1.6-0.6h-1.5c-0.9,0-1.7,0.7-1.7,1.6
		v66.4c0,0.9,0.8,1.7,1.7,1.7h9c1,0,1.7-0.8,1.7-1.7V340.8z"/>
	<path class="st0" d="M365.4,385.3h-40.1c-1.1,0-2-0.9-2-2V318c0-1.1,0.9-2,2-2h40.1c1.1,0,2,0.9,2,2v8.1c0,1.1-0.9,2-2,2h-29V344
		h24.2c1.1,0,2,0.9,2,2v8.2c0,1.1-0.9,2-2,2h-24.2v17h29c1.1,0,2,0.9,2,2v8.1C367.4,384.4,366.5,385.3,365.4,385.3z M325.3,316.3
		c-1,0-1.7,0.8-1.7,1.7v65.3c0,1,0.8,1.7,1.7,1.7h40.1c1,0,1.7-0.8,1.7-1.7v-8.1c0-1-0.8-1.7-1.7-1.7H336v-17.6h24.5
		c1,0,1.7-0.8,1.7-1.7V346c0-0.9-0.8-1.7-1.7-1.7H336v-16.5h29.3c1,0,1.7-0.8,1.7-1.7V318c0-1-0.8-1.7-1.7-1.7H325.3z"/>
	<path class="st0" d="M429,385.3h-10.4c-1.1,0-1.6-0.7-1.7-1l-13.1-26h-10.7v25c0,1.1-0.9,2-2,2H382c-1.1,0-2-0.9-2-2V318
		c0-1.1,0.9-2,2-2h28.2c11.9,0,21.6,9.6,21.6,21.3c0,8.7-5.6,16.3-14.5,20l13.4,24.9c0.4,0.7,0.4,1.5,0,2.1
		C430.4,385,429.8,385.3,429,385.3z M392.8,358H404l0,0.1l13.1,26.1c0.1,0.2,0.5,0.8,1.4,0.8H429c0.7,0,1.2-0.3,1.6-0.8
		c0.3-0.5,0.3-1.2,0-1.8l-13.6-25.2l0.2-0.1c8.9-3.6,14.5-11.2,14.5-19.8c0-11.6-9.6-21-21.3-21H382c-1,0-1.7,0.8-1.7,1.7v65.3
		c0,1,0.8,1.7,1.7,1.7h9.1c0.9,0,1.7-0.8,1.7-1.7V358z M409.2,347.8h-16.2v-19.9h16.2c5.4,0,9.9,4.4,9.9,9.7
		C419.1,343.1,414.5,347.8,409.2,347.8z M393.2,347.5h15.9c5.2,0,9.6-4.5,9.6-9.9c0-5.1-4.4-9.4-9.6-9.4h-15.9V347.5z"/>
	<path class="st0" d="M500.7,385.3h-8.6c-1.6,0-2.3-0.8-3-2.1l-4.8-10.6h-29.3l-4.8,10.6c-0.2,0.6-1,2.1-3,2.1h-8.6
		c-0.8,0-1.4-0.3-1.7-0.9c-0.4-0.5-0.4-1.2-0.1-1.9h0l30.7-66.4c0.4-0.8,1-1.2,1.8-1.2h1c1.1,0,1.5,0.6,1.8,1.2l30.4,66.4
		c0.3,0.7,0.3,1.4-0.1,1.9C502.1,385,501.5,385.3,500.7,385.3z M454.9,372.4h29.7l0,0.1l4.8,10.6c0.7,1.4,1.4,1.9,2.7,1.9h8.6
		c0.6,0,1.2-0.3,1.5-0.7c0.3-0.5,0.3-1,0.1-1.6l-30.4-66.4c-0.3-0.6-0.7-1-1.5-1h-1c-0.7,0-1.2,0.3-1.5,1l-30.7,66.3
		c-0.3,0.6-0.2,1.2,0.1,1.6c0.3,0.5,0.8,0.7,1.5,0.7h8.6c1.8,0,2.5-1.3,2.7-1.9L454.9,372.4z M479.9,361.8h-20.3l0.1-0.2l9.7-21.8
		h0.5l0,0.1L479.9,361.8z M460.1,361.5h19.4l-9.7-21.4h-0.1L460.1,361.5z"/>
	<path class="st0" d="M528.8,385.3h-9.2c-1.1,0-2-0.9-2-2v-55.2h-14.9c-1.1,0-2-0.9-2-2V318c0-1.1,0.9-2,2-2h43.1c1.1,0,2,0.9,2,2
		v8.1c0,1.1-0.9,2-2,2h-14.9v55.2C530.9,384.4,529.9,385.3,528.8,385.3z M502.7,316.3c-1,0-1.7,0.8-1.7,1.7v8.1c0,1,0.8,1.7,1.7,1.7
		h15.2v55.5c0,0.9,0.8,1.7,1.7,1.7h9.2c0.9,0,1.7-0.8,1.7-1.7v-55.5h15.2c1,0,1.7-0.8,1.7-1.7V318c0-1-0.8-1.7-1.7-1.7H502.7z"/>
	<path class="st0" d="M569.7,385.3h-9.2c-1.1,0-2-0.9-2-2V318c0-1.1,0.9-2,2-2h9.2c1.1,0,2,0.9,2,2v65.3
		C571.7,384.4,570.7,385.3,569.7,385.3z M560.5,316.3c-0.9,0-1.7,0.8-1.7,1.7v65.3c0,0.9,0.8,1.7,1.7,1.7h9.2c0.9,0,1.7-0.8,1.7-1.7
		V318c0-0.9-0.8-1.7-1.7-1.7H560.5z"/>
	<path class="st0" d="M613.1,386.3h-1c-0.8,0-1.4-0.4-1.8-1.2l-30.5-66.4c-0.3-0.7-0.3-1.4,0.1-1.9c0.4-0.6,1-0.9,1.7-0.9h10.1
		c0.9,0,1.6,0.6,1.8,1.2l19,42.3h0.3l19-42.3c0.2-0.6,0.9-1.2,1.8-1.2h10.1c0.8,0,1.4,0.3,1.7,0.9c0.4,0.5,0.4,1.2,0.1,1.9
		L615,385.1C614.6,385.9,614,386.3,613.1,386.3z M581.7,316.3c-0.6,0-1.2,0.3-1.5,0.7c-0.3,0.5-0.3,1-0.1,1.6l30.5,66.4
		c0.3,0.7,0.8,1,1.5,1h1c0.7,0,1.2-0.3,1.5-1l30.6-66.3c0.3-0.6,0.2-1.2,0-1.6c-0.3-0.5-0.8-0.7-1.5-0.7h-10.1c-0.8,0-1.3,0.5-1.5,1
		L613,359.8h-0.7l0-0.1l-19-42.4c-0.2-0.5-0.8-1-1.5-1H581.7z"/>
	<path class="st0" d="M695.9,385.3h-40.1c-1.1,0-2-0.9-2-2V318c0-1.1,0.9-2,2-2h40.1c1.1,0,2,0.9,2,2v8.1c0,1.1-0.9,2-2,2h-29V344
		H691c1.1,0,2,0.9,2,2v8.2c0,1.1-0.9,2-2,2h-24.2v17h29c1.1,0,2,0.9,2,2v8.1C697.9,384.4,697,385.3,695.9,385.3z M655.7,316.3
		c-1,0-1.7,0.8-1.7,1.7v65.3c0,1,0.8,1.7,1.7,1.7h40.1c1,0,1.7-0.8,1.7-1.7v-8.1c0-1-0.8-1.7-1.7-1.7h-29.3v-17.6H691
		c1,0,1.7-0.8,1.7-1.7V346c0-0.9-0.8-1.7-1.7-1.7h-24.5v-16.5h29.3c1,0,1.7-0.8,1.7-1.7V318c0-1-0.8-1.7-1.7-1.7H655.7z"/>
</g>
</svg>
