<?xml version="1.0" encoding="utf-8"?>
<!-- Generator: Adobe Illustrator 26.0.3, SVG Export Plug-In . SVG Version: 6.00 Build 0)  -->
<svg version="1.1" id="Layer_1" xmlns="http://www.w3.org/2000/svg" xmlns:xlink="http://www.w3.org/1999/xlink" x="0px" y="0px"
	 viewBox="0 0 1003.5 100" style="enable-background:new 0 0 1003.5 100;" xml:space="preserve">
<style type="text/css">
	.st0{fill:#FFFFFF;}
</style>
<g>
	<path class="st0" d="M24,4c0-1.4,1.1-2.6,2.6-2.6h39.7c16.7,0,30.3,13.3,30.3,29.9c0,12.8-8.5,23.2-20.6,28.1l19,35.3
		c1,1.8,0,4-2.4,4H78.2c-1.3,0-1.9-0.7-2.2-1.2L57.5,60.6H42.1V96c0,1.4-1.2,2.6-2.6,2.6H26.7c-1.5,0-2.6-1.2-2.6-2.6V4z M64.9,45.7
		c7.4,0,13.8-6.4,13.8-14.2c0-7.4-6.4-13.5-13.8-13.5H42.2v27.6H64.9z"/>
	<path class="st0" d="M113,4c0-1.4,1.1-2.6,2.6-2.6h56.5c1.5,0,2.6,1.2,2.6,2.6v11.4c0,1.4-1.1,2.6-2.6,2.6h-41.1v22.8h34.3
		c1.4,0,2.6,1.3,2.6,2.6V55c0,1.5-1.2,2.6-2.6,2.6h-34.3v24.3h41.1c1.5,0,2.6,1.3,2.6,2.6V96c0,1.4-1.1,2.6-2.6,2.6h-56.5
		c-1.5,0-2.6-1.2-2.6-2.6V4z"/>
	<path class="st0" d="M232.9,0c12.5,0,24.4,4.9,33.9,12.9c1.1,1.1,1.2,2.8,0.1,3.9l-8.6,9c-1.1,1.1-2.4,1.1-3.6,0
		c-6-5.3-13.3-8.1-21-8.1c-17.4,0-31.1,14.9-31.1,32.2c0,17.2,13.8,31.8,31.3,31.8c7.8,0,13.7-2.4,16.5-3.5V66.5h-11.1
		c-1.5,0-2.6-1.1-2.6-2.5v-11c0-1.5,1.1-2.6,2.6-2.6H266c1.4,0,2.5,1.2,2.5,2.6v35.6c0,1.1-0.6,1.8-1.1,2.2c0,0-14.3,9-34.4,9
		c-27.6,0-49.9-21.9-49.9-49.7S205.3,0,232.9,0z"/>
	<path class="st0" d="M286.9,4c0-1.4,1.1-2.6,2.6-2.6h56.5c1.5,0,2.6,1.2,2.6,2.6v11.4c0,1.4-1.1,2.6-2.6,2.6H305v22.8h34.3
		c1.4,0,2.6,1.3,2.6,2.6V55c0,1.5-1.2,2.6-2.6,2.6H305v24.3h41.1c1.5,0,2.6,1.3,2.6,2.6V96c0,1.4-1.1,2.6-2.6,2.6h-56.5
		c-1.5,0-2.6-1.2-2.6-2.6V4z"/>
	<path class="st0" d="M365.2,2.5c0-1.4,1.3-2.5,2.6-2.5h2.1c1,0,1.7,0.3,2.4,1l56.7,60.4h0.3V4c0-1.4,1.1-2.6,2.6-2.6h12.8
		c1.4,0,2.6,1.2,2.6,2.6v93.5c0,1.4-1.2,2.5-2.6,2.5h-1.9c-1,0-1.7-0.3-2.4-1l-56.9-62.8h-0.3V96c0,1.4-1.1,2.6-2.6,2.6h-12.6
		c-1.4,0-2.6-1.2-2.6-2.6V2.5z"/>
	<path class="st0" d="M468.4,4c0-1.4,1.1-2.6,2.6-2.6h56.5c1.5,0,2.6,1.2,2.6,2.6v11.4c0,1.4-1.1,2.6-2.6,2.6h-41.1v22.8h34.3
		c1.4,0,2.6,1.3,2.6,2.6V55c0,1.5-1.2,2.6-2.6,2.6h-34.3v24.3h41.1c1.5,0,2.6,1.3,2.6,2.6V96c0,1.4-1.1,2.6-2.6,2.6h-56.5
		c-1.5,0-2.6-1.2-2.6-2.6V4z"/>
	<path class="st0" d="M546.7,4c0-1.4,1.1-2.6,2.6-2.6H589c16.7,0,30.3,13.3,30.3,29.9c0,12.8-8.5,23.2-20.6,28.1l19,35.3
		c1,1.8,0,4-2.4,4h-14.6c-1.3,0-1.9-0.7-2.2-1.2l-18.5-36.8h-15.4V96c0,1.4-1.2,2.6-2.6,2.6h-12.8c-1.5,0-2.6-1.2-2.6-2.6V4z
		 M587.5,45.7c7.4,0,13.8-6.4,13.8-14.2c0-7.4-6.4-13.5-13.8-13.5h-22.6v27.6H587.5z"/>
	<path class="st0" d="M626.4,95l43.2-93.5c0.4-0.8,1.1-1.5,2.4-1.5h1.4c1.4,0,1.9,0.7,2.4,1.5L718.4,95c0.8,1.8-0.3,3.6-2.4,3.6H704
		c-2.1,0-3.1-0.8-4-2.8l-6.8-15h-41.5l-6.8,15c-0.6,1.4-1.8,2.8-4,2.8h-12.1C626.6,98.6,625.5,96.8,626.4,95z M686.4,65.4
		l-13.9-30.6H672l-13.6,30.6H686.4z"/>
	<path class="st0" d="M735.2,18.1h-21.2c-1.5,0-2.6-1.3-2.6-2.6V4c0-1.4,1.1-2.6,2.6-2.6h60.7c1.5,0,2.6,1.2,2.6,2.6v11.4
		c0,1.4-1.1,2.6-2.6,2.6h-21.3V96c0,1.4-1.2,2.6-2.6,2.6h-12.9c-1.4,0-2.6-1.2-2.6-2.6V18.1z"/>
	<path class="st0" d="M788.2,4c0-1.4,1.3-2.6,2.6-2.6h12.9c1.4,0,2.6,1.2,2.6,2.6V96c0,1.4-1.2,2.6-2.6,2.6h-12.9
		c-1.4,0-2.6-1.2-2.6-2.6V4z"/>
	<path class="st0" d="M815.9,5c-0.8-1.8,0.3-3.6,2.4-3.6h14.2c1.2,0,2.1,0.8,2.4,1.5l26.8,59.7h0.7l26.8-59.7
		c0.3-0.7,1.1-1.5,2.4-1.5h14.2c2.1,0,3.2,1.8,2.4,3.6L865,98.5c-0.4,0.8-1.1,1.5-2.4,1.5h-1.4c-1.3,0-1.9-0.7-2.4-1.5L815.9,5z"/>
	<path class="st0" d="M917.7,4c0-1.4,1.1-2.6,2.6-2.6h56.5c1.5,0,2.6,1.2,2.6,2.6v11.4c0,1.4-1.1,2.6-2.6,2.6h-41.1v22.8H970
		c1.4,0,2.6,1.3,2.6,2.6V55c0,1.5-1.2,2.6-2.6,2.6h-34.3v24.3h41.1c1.5,0,2.6,1.3,2.6,2.6V96c0,1.4-1.1,2.6-2.6,2.6h-56.5
		c-1.5,0-2.6-1.2-2.6-2.6V4z"/>
</g>
</svg>
