<?xml version="1.0" encoding="utf-8"?>
<!-- Generator: Adobe Illustrator 25.4.1, SVG Export Plug-In . SVG Version: 6.00 Build 0)  -->
<svg version="1.1" id="Layer_1" xmlns="http://www.w3.org/2000/svg" xmlns:xlink="http://www.w3.org/1999/xlink" x="0px" y="0px"
	 viewBox="0 0 985.7 100" style="enable-background:new 0 0 985.7 100;" xml:space="preserve">
<style type="text/css">
	.st0{fill:#FFFFFF;}
</style>
<g>
	<path class="st0" d="M2.8,4.1c0-1.4,1.1-2.7,2.7-2.7h39.6c16.6,0,30.2,13.3,30.2,29.8c0,12.8-8.4,23.2-20.5,27.9l19,35.1
		c1,1.8,0,4.1-2.4,4.1H56.9c-1.3,0-2-0.7-2.2-1.3L36.2,60.4H20.8v35.3c0,1.4-1.3,2.7-2.7,2.7H5.5c-1.5,0-2.7-1.3-2.7-2.7V4.1z
		 M43.5,45.6c7.3,0,13.8-6.3,13.8-14.2C57.3,24.2,51,18,43.5,18H20.9v27.5h22.6V45.6z"/>
	<path class="st0" d="M94.2,4.1c0-1.4,1.1-2.7,2.7-2.7h56.3c1.5,0,2.7,1.3,2.7,2.7v11.4c0,1.4-1.1,2.7-2.7,2.7h-41v22.8h34.3
		c1.4,0,2.7,1.3,2.7,2.7v11.5c0,1.5-1.3,2.7-2.7,2.7h-34.3V82h41c1.5,0,2.7,1.3,2.7,2.7v11.4c0,1.4-1.1,2.7-2.7,2.7H96.8
		c-1.5,0-2.7-1.3-2.7-2.7v-92H94.2z"/>
	<path class="st0" d="M216.4,0.1c12.5,0,24.4,4.9,33.8,12.9c1.1,1.1,1.3,2.8,0.1,3.9l-8.6,9c-1.1,1.1-2.4,1.1-3.7,0
		c-5.9-5.2-13.3-8-20.9-8c-17.3,0-31,14.7-31,32.2c0,17.1,13.8,31.7,31.2,31.7c7.7,0,13.8-2.4,16.4-3.5V66.6h-11.1
		c-1.5,0-2.7-1.1-2.7-2.5V52.9c0-1.5,1.1-2.7,2.7-2.7h26.5c1.4,0,2.5,1.3,2.5,2.7v35.4c0,1.1-0.6,1.8-1.1,2.2c0,0-14.3,9-34.4,9
		c-27.5,0-49.7-21.9-49.7-49.6C166.7,22.5,188.9,0.1,216.4,0.1z"/>
	<path class="st0" d="M271.9,4.1c0-1.4,1.1-2.7,2.7-2.7h56.3c1.5,0,2.7,1.3,2.7,2.7v11.4c0,1.4-1.1,2.7-2.7,2.7h-41v22.8h34.3
		c1.4,0,2.7,1.3,2.7,2.7v11.5c0,1.5-1.3,2.7-2.7,2.7h-34.3V82h41c1.5,0,2.7,1.3,2.7,2.7v11.4c0,1.4-1.1,2.7-2.7,2.7h-56.3
		c-1.5,0-2.7-1.3-2.7-2.7V4.1z"/>
	<path class="st0" d="M351.7,2.7c0-1.4,1.3-2.5,2.7-2.5h2.1c1,0,1.7,0.3,2.4,1l56.5,60.3h0.3V4.2c0-1.4,1.1-2.7,2.7-2.7H431
		c1.4,0,2.7,1.3,2.7,2.7v93.3c0,1.4-1.3,2.5-2.7,2.5h-2c-1,0-1.7-0.3-2.4-1l-56.7-62.6h-0.3v59.6c0,1.4-1.1,2.7-2.7,2.7h-12.6
		c-1.4,0-2.7-1.3-2.7-2.7V2.7z"/>
	<path class="st0" d="M457,4.1c0-1.4,1.1-2.7,2.7-2.7H516c1.5,0,2.7,1.3,2.7,2.7v11.4c0,1.4-1.1,2.7-2.7,2.7h-41v22.8h34.3
		c1.4,0,2.7,1.3,2.7,2.7v11.5c0,1.5-1.3,2.7-2.7,2.7H475V82h41c1.5,0,2.7,1.3,2.7,2.7v11.4c0,1.4-1.1,2.7-2.7,2.7h-56.3
		c-1.5,0-2.7-1.3-2.7-2.7V4.1z"/>
	<path class="st0" d="M536.8,4.1c0-1.4,1.1-2.7,2.7-2.7h39.6c16.6,0,30.2,13.3,30.2,29.8c0,12.8-8.4,23.2-20.5,27.9l19,35.1
		c1,1.8,0,4.1-2.4,4.1h-14.6c-1.3,0-2-0.7-2.2-1.3l-18.4-36.7h-15.3v35.3c0,1.4-1.3,2.7-2.7,2.7h-12.8c-1.5,0-2.7-1.3-2.7-2.7V4.1
		H536.8z M577.5,45.6c7.3,0,13.8-6.3,13.8-14.2c0-7.3-6.3-13.5-13.8-13.5h-22.6v27.5h22.6V45.6z"/>
	<path class="st0" d="M616.7,94.8l43.1-93.3c0.4-0.8,1.1-1.5,2.4-1.5h1.4c1.4,0,2,0.7,2.4,1.5l42.7,93.3c0.8,1.8-0.3,3.7-2.4,3.7
		h-12.1c-2.1,0-3.1-0.8-4.1-2.8l-6.7-14.9h-41.6l-6.7,14.9c-0.6,1.4-1.8,2.8-4.1,2.8H619C616.9,98.5,615.9,96.6,616.7,94.8z
		 M676.4,65.3l-13.9-30.5h-0.4l-13.6,30.5H676.4z"/>
	<path class="st0" d="M730.1,18.1h-21.2c-1.5,0-2.7-1.3-2.7-2.7V4.1c0-1.4,1.1-2.7,2.7-2.7h60.5c1.5,0,2.7,1.3,2.7,2.7v11.4
		c0,1.4-1.1,2.7-2.7,2.7h-21.2v77.7c0,1.4-1.3,2.7-2.7,2.7h-12.9c-1.4,0-2.7-1.3-2.7-2.7V18.1H730.1z"/>
	<path class="st0" d="M787.4,4.1c0-1.4,1.3-2.7,2.7-2.7h12.9c1.4,0,2.7,1.3,2.7,2.7v91.7c0,1.4-1.3,2.7-2.7,2.7H790
		c-1.4,0-2.7-1.3-2.7-2.7V4.1z"/>
	<path class="st0" d="M817.4,5.1c-0.8-1.8,0.3-3.7,2.4-3.7H834c1.3,0,2.1,0.8,2.4,1.5l26.7,59.6h0.7l26.7-59.6
		c0.3-0.7,1.1-1.5,2.4-1.5H907c2.1,0,3.2,1.8,2.4,3.7l-43,93.3c-0.4,0.8-1.1,1.5-2.4,1.5h-1.4c-1.3,0-2-0.7-2.4-1.5L817.4,5.1z"/>
	<path class="st0" d="M921.2,4.1c0-1.4,1.1-2.7,2.7-2.7h56.3c1.5,0,2.7,1.3,2.7,2.7v11.4c0,1.4-1.1,2.7-2.7,2.7h-41v22.8h34.1
		c1.4,0,2.7,1.3,2.7,2.7v11.5c0,1.5-1.3,2.7-2.7,2.7H939V82h41c1.5,0,2.7,1.3,2.7,2.7v11.4c0,1.4-1.1,2.7-2.7,2.7h-56.3
		c-1.5,0-2.7-1.3-2.7-2.7v-92H921.2z"/>
</g>
</svg>
