<?xml version="1.0" encoding="utf-8"?>
<!-- Generator: Adobe Illustrator 26.0.3, SVG Export Plug-In . SVG Version: 6.00 Build 0)  -->
<svg version="1.1" id="Layer_1" xmlns="http://www.w3.org/2000/svg" xmlns:xlink="http://www.w3.org/1999/xlink" x="0px" y="0px"
	 viewBox="0 0 1003.5 100" style="enable-background:new 0 0 1003.5 100;" xml:space="preserve">
<style type="text/css">
	.st0{fill:#FFFFFF;}
</style>
<g>
	<path class="st0" d="M66.4,2.4c16.1,0,29.3,12.9,29.3,28.9c0,11.8-7.6,22.2-19.9,27.1l-1,0.4l0.5,1l19,35.3c0.3,0.6,0.3,1.3,0,1.8
		c-0.3,0.5-0.8,0.7-1.5,0.7H78.2c-0.9,0-1.2-0.5-1.3-0.7L58.4,60.1l-0.3-0.6h-0.6H42.1h-1v1V96c0,0.8-0.8,1.6-1.6,1.6H26.7
		c-1,0-1.6-0.9-1.6-1.6V4c0-0.8,0.6-1.6,1.6-1.6H66.4 M41.2,46.7h1h22.6c8,0,14.8-6.9,14.8-15.2c0-7.8-6.8-14.5-14.8-14.5H42.2h-1v1
		v27.6V46.7 M66.4,1.4H26.7C25.2,1.4,24,2.6,24,4V96c0,1.4,1.1,2.6,2.6,2.6h12.8c1.4,0,2.6-1.2,2.6-2.6V60.6h15.4L76,97.4
		c0.3,0.6,1,1.2,2.2,1.2h14.6c2.4,0,3.3-2.2,2.4-4l-19-35.3C88.2,54.4,96.7,44,96.7,31.2C96.7,14.7,83.1,1.4,66.4,1.4L66.4,1.4z
		 M42.2,45.7V18.1h22.6c7.4,0,13.8,6.1,13.8,13.5c0,7.8-6.4,14.2-13.8,14.2H42.2L42.2,45.7z"/>
	<path class="st0" d="M172.2,2.4c1,0,1.6,0.9,1.6,1.6v11.4c0,0.8-0.6,1.6-1.6,1.6h-41.1h-1v1v22.8v1h1h34.3c0.8,0,1.6,0.8,1.6,1.6
		V55c0,1-0.9,1.6-1.6,1.6h-34.3h-1v1v24.3v1h1h41.1c1,0,1.6,0.9,1.6,1.6V96c0,0.8-0.6,1.6-1.6,1.6h-56.5c-1,0-1.6-0.9-1.6-1.6V4
		c0-0.8,0.6-1.6,1.6-1.6H172.2 M172.2,1.4h-56.5c-1.5,0-2.6,1.2-2.6,2.6V96c0,1.4,1.1,2.6,2.6,2.6h56.5c1.5,0,2.6-1.2,2.6-2.6V84.6
		c0-1.4-1.1-2.6-2.6-2.6h-41.1V57.6h34.3c1.4,0,2.6-1.1,2.6-2.6V43.5c0-1.4-1.2-2.6-2.6-2.6h-34.3V18.1h41.1c1.5,0,2.6-1.3,2.6-2.6
		V4C174.8,2.6,173.7,1.4,172.2,1.4L172.2,1.4z"/>
	<path class="st0" d="M232.9,1c11.8,0,23.6,4.5,33.2,12.6c0.6,0.7,0.9,1.7,0.1,2.5l-8.6,9c-0.4,0.4-0.7,0.5-1,0.5
		c-0.4,0-0.8-0.2-1.2-0.6c-6.1-5.4-13.6-8.3-21.6-8.3c-17.7,0-32.1,14.9-32.1,33.2c0,18.1,14.5,32.8,32.3,32.8
		c8,0,14.2-2.5,16.9-3.5l0.6-0.3v-0.7V66.5v-1h-1h-11.1c-0.9,0-1.6-0.6-1.6-1.5v-11c0-1,0.7-1.6,1.6-1.6H266c0.8,0,1.5,0.8,1.5,1.6
		v35.6c0,0.6-0.2,1-0.7,1.4c-0.8,0.5-14.8,8.9-33.9,8.9c-13.1,0-25.4-5-34.6-14.2c-9.2-9.1-14.3-21.4-14.3-34.6
		c0-13.2,5.1-25.5,14.3-34.8C207.6,6.1,219.8,1,232.9,1 M232.9,0c-27.6,0-49.9,22.4-49.9,50.1s22.2,49.7,49.9,49.7
		c20.1,0,34.4-9,34.4-9c0.6-0.4,1.1-1.1,1.1-2.2V53.1c0-1.4-1.1-2.6-2.5-2.6h-26.7c-1.5,0-2.6,1.1-2.6,2.6v11c0,1.4,1.1,2.5,2.6,2.5
		h11.1v11.8c-2.8,1.1-8.7,3.5-16.5,3.5c-17.5,0-31.3-14.6-31.3-31.8c0-17.4,13.8-32.2,31.1-32.2c7.6,0,15,2.8,21,8.1
		c0.6,0.6,1.2,0.8,1.9,0.8c0.6,0,1.2-0.3,1.8-0.8l8.6-9c1.1-1.1,1-2.8-0.1-3.9C257.4,4.9,245.4,0,232.9,0L232.9,0z"/>
	<path class="st0" d="M346.1,2.4c1,0,1.6,0.9,1.6,1.6v11.4c0,0.8-0.6,1.6-1.6,1.6H305h-1v1v22.8v1h1h34.3c0.8,0,1.6,0.8,1.6,1.6V55
		c0,1-0.9,1.6-1.6,1.6H305h-1v1v24.3v1h1h41.1c1,0,1.6,0.9,1.6,1.6V96c0,0.8-0.6,1.6-1.6,1.6h-56.5c-1,0-1.6-0.9-1.6-1.6V4
		c0-0.8,0.6-1.6,1.6-1.6H346.1 M346.1,1.4h-56.5c-1.5,0-2.6,1.2-2.6,2.6V96c0,1.4,1.1,2.6,2.6,2.6h56.5c1.5,0,2.6-1.2,2.6-2.6V84.6
		c0-1.4-1.1-2.6-2.6-2.6H305V57.6h34.3c1.4,0,2.6-1.1,2.6-2.6V43.5c0-1.4-1.2-2.6-2.6-2.6H305V18.1h41.1c1.5,0,2.6-1.3,2.6-2.6V4
		C348.7,2.6,347.6,1.4,346.1,1.4L346.1,1.4z"/>
	<path class="st0" d="M369.9,1c0.7,0,1.2,0.2,1.6,0.7l56.7,60.4l0.3,0.3h0.4h0.3h1v-1V4c0-0.8,0.6-1.6,1.6-1.6h12.8
		c0.8,0,1.6,0.8,1.6,1.6v93.5c0,0.8-0.8,1.5-1.6,1.5h-1.9c-0.7,0-1.2-0.2-1.6-0.6l-56.9-62.8l-0.3-0.3h-0.4h-0.3h-1v1V96
		c0,0.8-0.6,1.6-1.6,1.6h-12.6c-0.8,0-1.6-0.8-1.6-1.6V2.5c0-0.8,0.8-1.5,1.6-1.5H369.9 M369.9,0h-2.1c-1.4,0-2.6,1.1-2.6,2.5V96
		c0,1.4,1.3,2.6,2.6,2.6h12.6c1.5,0,2.6-1.2,2.6-2.6V36.2h0.3L440.3,99c0.7,0.7,1.4,1,2.4,1h1.9c1.4,0,2.6-1.1,2.6-2.5V4
		c0-1.4-1.2-2.6-2.6-2.6h-12.8c-1.5,0-2.6,1.2-2.6,2.6v57.4h-0.3L372.3,1C371.6,0.3,370.9,0,369.9,0L369.9,0z"/>
	<path class="st0" d="M527.6,2.4c1,0,1.6,0.9,1.6,1.6v11.4c0,0.8-0.6,1.6-1.6,1.6h-41.1h-1v1v22.8v1h1h34.3c0.8,0,1.6,0.8,1.6,1.6
		V55c0,1-0.9,1.6-1.6,1.6h-34.3h-1v1v24.3v1h1h41.1c1,0,1.6,0.9,1.6,1.6V96c0,0.8-0.6,1.6-1.6,1.6h-56.5c-1,0-1.6-0.9-1.6-1.6V4
		c0-0.8,0.6-1.6,1.6-1.6H527.6 M527.6,1.4h-56.5c-1.5,0-2.6,1.2-2.6,2.6V96c0,1.4,1.1,2.6,2.6,2.6h56.5c1.5,0,2.6-1.2,2.6-2.6V84.6
		c0-1.4-1.1-2.6-2.6-2.6h-41.1V57.6h34.3c1.4,0,2.6-1.1,2.6-2.6V43.5c0-1.4-1.2-2.6-2.6-2.6h-34.3V18.1h41.1c1.5,0,2.6-1.3,2.6-2.6
		V4C530.2,2.6,529.1,1.4,527.6,1.4L527.6,1.4z"/>
	<path class="st0" d="M589,2.4c16.1,0,29.3,12.9,29.3,28.9c0,11.8-7.6,22.2-19.9,27.1l-1,0.4l0.5,1l19,35.3c0.3,0.6,0.3,1.3,0,1.8
		c-0.3,0.5-0.8,0.7-1.5,0.7h-14.6c-0.9,0-1.2-0.5-1.3-0.7L581,60.1l-0.3-0.6h-0.6h-15.4h-1v1V96c0,0.8-0.8,1.6-1.6,1.6h-12.8
		c-1,0-1.6-0.9-1.6-1.6V4c0-0.8,0.6-1.6,1.6-1.6H589 M563.9,46.7h1h22.6c8,0,14.8-6.9,14.8-15.2c0-7.8-6.8-14.5-14.8-14.5h-22.6h-1
		v1v27.6V46.7 M589,1.4h-39.7c-1.5,0-2.6,1.2-2.6,2.6V96c0,1.4,1.1,2.6,2.6,2.6h12.8c1.4,0,2.6-1.2,2.6-2.6V60.6h15.4l18.5,36.8
		c0.3,0.6,1,1.2,2.2,1.2h14.6c2.4,0,3.3-2.2,2.4-4l-19-35.3c12.1-4.9,20.6-15.3,20.6-28.1C619.3,14.7,605.7,1.4,589,1.4L589,1.4z
		 M564.9,45.7V18.1h22.6c7.4,0,13.8,6.1,13.8,13.5c0,7.8-6.4,14.2-13.8,14.2H564.9L564.9,45.7z"/>
	<path class="st0" d="M673.3,1c0.8,0,1.1,0.3,1.5,0.9l42.8,93.5c0.3,0.6,0.2,1.1,0,1.5c-0.3,0.4-0.8,0.7-1.4,0.7H704
		c-1.6,0-2.3-0.5-3.1-2.2l-6.8-15l-0.3-0.6h-0.6h-41.5H651l-0.3,0.6l-6.8,15c-0.3,0.8-1.2,2.1-3.1,2.1h-12.1c-0.6,0-1.2-0.2-1.4-0.7
		c-0.3-0.4-0.3-1,0-1.5L670.4,2c0.3-0.7,0.8-1,1.5-1H673.3 M656.9,66.4h1.5h27.9h1.6l-0.6-1.4l-13.9-30.6l-0.3-0.6h-0.6H672h-0.6
		l-0.3,0.6L657.5,65L656.9,66.4 M673.3,0h-1.4c-1.3,0-1.9,0.7-2.4,1.5L626.4,95c-0.8,1.8,0.3,3.6,2.4,3.6h12.1c2.2,0,3.5-1.4,4-2.8
		l6.8-15h41.5l6.8,15c1,1.9,1.9,2.8,4,2.8h12.1c2.1,0,3.2-1.8,2.4-3.6L675.7,1.5C675.2,0.7,674.7,0,673.3,0L673.3,0z M658.4,65.4
		L672,34.9h0.4l13.9,30.6H658.4L658.4,65.4z"/>
	<path class="st0" d="M774.6,2.4c1,0,1.6,0.9,1.6,1.6v11.4c0,0.8-0.6,1.6-1.6,1.6h-21.3h-1v1V96c0,0.8-0.8,1.6-1.6,1.6h-12.9
		c-0.8,0-1.6-0.8-1.6-1.6V18.1v-1h-1h-21.2c-1,0-1.6-0.9-1.6-1.6V4c0-0.8,0.6-1.6,1.6-1.6H774.6 M774.6,1.4h-60.7
		c-1.5,0-2.6,1.2-2.6,2.6v11.4c0,1.4,1.1,2.6,2.6,2.6h21.2V96c0,1.4,1.3,2.6,2.6,2.6h12.9c1.4,0,2.6-1.2,2.6-2.6V18.1h21.3
		c1.5,0,2.6-1.3,2.6-2.6V4C777.3,2.6,776.2,1.4,774.6,1.4L774.6,1.4z"/>
	<path class="st0" d="M803.8,2.4c0.8,0,1.6,0.8,1.6,1.6V96c0,0.8-0.8,1.6-1.6,1.6h-12.9c-0.8,0-1.6-0.8-1.6-1.6V4
		c0-0.8,0.8-1.6,1.6-1.6H803.8 M803.8,1.4h-12.9c-1.4,0-2.6,1.2-2.6,2.6V96c0,1.4,1.3,2.6,2.6,2.6h12.9c1.4,0,2.6-1.2,2.6-2.6V4
		C806.4,2.6,805.2,1.4,803.8,1.4L803.8,1.4z"/>
	<path class="st0" d="M905.6,2.4c0.6,0,1.2,0.2,1.4,0.7c0.3,0.4,0.3,1,0,1.5l-43,93.4c-0.3,0.7-0.8,1-1.5,1h-1.4
		c-0.7,0-1.1-0.3-1.5-0.9L816.8,4.6c-0.3-0.6-0.2-1.1,0-1.5c0.3-0.4,0.8-0.7,1.4-0.7h14.2c0.8,0,1.3,0.5,1.4,0.9L860.7,63l0.3,0.6
		h0.6h0.7h0.6l0.3-0.6L890,3.3c0.1-0.4,0.6-0.9,1.4-0.9H905.6 M905.6,1.4h-14.2c-1.2,0-2.1,0.8-2.4,1.5l-26.8,59.7h-0.7L834.8,2.9
		c-0.3-0.7-1.1-1.5-2.4-1.5h-14.2c-2.1,0-3.2,1.8-2.4,3.6l42.9,93.5c0.4,0.8,1.1,1.5,2.4,1.5h1.4c1.3,0,1.9-0.7,2.4-1.5L908,5
		C908.8,3.2,907.7,1.4,905.6,1.4L905.6,1.4z"/>
	<path class="st0" d="M976.8,2.4c1,0,1.6,0.9,1.6,1.6v11.4c0,0.8-0.6,1.6-1.6,1.6h-41.1h-1v1v22.8v1h1H970c0.8,0,1.6,0.8,1.6,1.6V55
		c0,1-0.9,1.6-1.6,1.6h-34.3h-1v1v24.3v1h1h41.1c1,0,1.6,0.9,1.6,1.6V96c0,0.8-0.6,1.6-1.6,1.6h-56.5c-1,0-1.6-0.9-1.6-1.6V4
		c0-0.8,0.6-1.6,1.6-1.6H976.8 M976.8,1.4h-56.5c-1.5,0-2.6,1.2-2.6,2.6V96c0,1.4,1.1,2.6,2.6,2.6h56.5c1.5,0,2.6-1.2,2.6-2.6V84.6
		c0-1.4-1.1-2.6-2.6-2.6h-41.1V57.6H970c1.4,0,2.6-1.1,2.6-2.6V43.5c0-1.4-1.2-2.6-2.6-2.6h-34.3V18.1h41.1c1.5,0,2.6-1.3,2.6-2.6V4
		C979.5,2.6,978.3,1.4,976.8,1.4L976.8,1.4z"/>
</g>
</svg>
