<?xml version="1.0" encoding="utf-8"?>
<!-- Generator: Adobe Illustrator 25.4.1, SVG Export Plug-In . SVG Version: 6.00 Build 0)  -->
<svg version="1.1" id="Layer_1" xmlns="http://www.w3.org/2000/svg" xmlns:xlink="http://www.w3.org/1999/xlink" x="0px" y="0px"
	 viewBox="0 0 985.7 100" style="enable-background:new 0 0 985.7 100;" xml:space="preserve">
<style type="text/css">
	.st0{fill:#FFFFFF;}
</style>
<g>
	<path class="st0" d="M71.3,98.5H56.9c-1.6,0-2.2-1-2.4-1.3L36.1,60.5H20.9v35.1c0,1.5-1.3,2.8-2.8,2.8H5.5c-1.6,0-2.8-1.3-2.8-2.8
		V4.1c0-1.6,1.3-2.8,2.8-2.8h39.6c16.7,0,30.3,13.4,30.3,29.9c0,12.3-7.8,23-20.4,28l18.9,35c0.5,1,0.5,2.1,0,3
		C73.4,98,72.5,98.5,71.3,98.5z M20.6,60.2h15.7l0,0.1L54.8,97c0.1,0.3,0.7,1.2,2.1,1.2h14.5c1,0,1.8-0.4,2.3-1.2
		c0.5-0.8,0.5-1.8,0-2.7l-19-35.3l0.2-0.1c12.6-5,20.4-15.6,20.4-27.8c0-16.3-13.5-29.6-30-29.6H5.5C4.1,1.6,3,2.7,3,4.1v91.6
		c0,1.4,1.1,2.5,2.5,2.5h12.6c1.3,0,2.5-1.2,2.5-2.5V60.2z M43.5,45.8h-0.1v-0.1H20.8V17.8h22.8c7.5,0,13.9,6.2,13.9,13.6
		C57.5,39.2,51.1,45.8,43.5,45.8z M21.1,45.4h22.6v0.1c7.3-0.1,13.5-6.5,13.5-14c0-7.2-6.2-13.3-13.6-13.3H21.1V45.4z"/>
	<path class="st0" d="M153.2,98.9H96.8c-1.6,0-2.8-1.3-2.8-2.8V3.9h0.1c0.1-1.5,1.3-2.7,2.8-2.7h56.3c1.6,0,2.8,1.3,2.8,2.8v11.4
		c0,1.6-1.3,2.8-2.8,2.8h-40.9v22.5h34.1c1.5,0,2.8,1.3,2.8,2.8v11.5c0,1.6-1.3,2.8-2.8,2.8h-34.1v24h40.9c1.6,0,2.8,1.3,2.8,2.8
		v11.4C156,97.6,154.8,98.9,153.2,98.9z M94.2,4.2v91.8c0,1.4,1.1,2.5,2.5,2.5h56.5c1.4,0,2.5-1.1,2.5-2.5V84.7
		c0-1.4-1.1-2.5-2.5-2.5h-41.2V57.6h34.4c1.4,0,2.5-1.1,2.5-2.5V43.5c0-1.3-1.2-2.5-2.5-2.5h-34.4V18h41.2c1.4,0,2.5-1.1,2.5-2.5
		V4.1c0-1.4-1.1-2.5-2.5-2.5H96.9c-1.4,0-2.5,1.1-2.5,2.5v0.1H94.2z"/>
	<path class="st0" d="M216.3,99.7c-13.4,0-25.9-5.1-35.3-14.5c-9.4-9.3-14.6-21.9-14.6-35.3c0.1-13.4,5.3-25.9,14.7-35.4
		c9.4-9.4,22-14.7,35.3-14.7c12.1,0,24.1,4.6,33.9,13c0.6,0.6,0.9,1.3,1,2.1c0,0.8-0.3,1.5-0.8,2.1l-8.6,9c-1.2,1.2-2.5,1.2-3.9,0
		c-5.8-5.1-13.2-8-20.8-8c-8.3,0-16,3.4-21.9,9.5c-5.8,6.1-9,14.1-9,22.5c0,17.4,13.9,31.6,31,31.6c7.9,0,14.1-2.6,16.3-3.5V66.7
		h-10.9c-1.6,0-2.8-1.2-2.8-2.7V52.9c0-1.6,1.2-2.8,2.8-2.8h26.5c1.5,0,2.7,1.3,2.7,2.8v35.4c0,1-0.4,1.8-1.2,2.4
		C250.6,90.8,236.2,99.7,216.3,99.7z M216.4,0.3c-13.3,0-25.7,5.2-35.1,14.6c-9.4,9.4-14.5,21.9-14.6,35.1
		c0,13.3,5.1,25.8,14.5,35.1c9.3,9.3,21.8,14.4,35.1,14.4c19.8,0,34.2-8.9,34.3-9c0.7-0.5,1.1-1.2,1.1-2.1V52.9
		c0-1.4-1.1-2.5-2.4-2.5h-26.5c-1.5,0-2.5,1.1-2.5,2.5V64c0,1.4,1.1,2.4,2.5,2.4H234v12l-0.1,0c-2.1,0.9-8.4,3.5-16.5,3.5
		c-17.3,0-31.3-14.3-31.3-31.9c0-8.5,3.2-16.6,9.1-22.7c5.9-6.2,13.8-9.6,22.1-9.6c7.7,0,15.1,2.9,21,8c1.2,1.1,2.4,1.1,3.4,0l8.6-9
		c0.5-0.5,0.8-1.2,0.7-1.9c0-0.7-0.3-1.3-0.9-1.9C240.4,4.9,228.4,0.3,216.4,0.3z"/>
	<path class="st0" d="M330.9,98.9h-56.3c-1.6,0-2.8-1.3-2.8-2.8v-92c0-1.6,1.3-2.8,2.8-2.8h56.3c1.6,0,2.8,1.3,2.8,2.8v11.4
		c0,1.6-1.3,2.8-2.8,2.8H290v22.5h34.1c1.5,0,2.8,1.3,2.8,2.8v11.5c0,1.6-1.3,2.8-2.8,2.8H290v24h40.9c1.6,0,2.8,1.3,2.8,2.8v11.4
		C333.7,97.6,332.5,98.9,330.9,98.9z M274.6,1.6c-1.4,0-2.5,1.1-2.5,2.5v92c0,1.4,1.1,2.5,2.5,2.5h56.3c1.4,0,2.5-1.1,2.5-2.5V84.7
		c0-1.4-1.1-2.5-2.5-2.5h-41.2V57.6h34.4c1.4,0,2.5-1.1,2.5-2.5V43.5c0-1.3-1.2-2.5-2.5-2.5h-34.4V18h41.2c1.4,0,2.5-1.1,2.5-2.5
		V4.1c0-1.4-1.1-2.5-2.5-2.5H274.6z"/>
	<path class="st0" d="M431,100.1h-2c-1,0-1.8-0.3-2.5-1l-56.7-62.6h-0.1v59.4c0,1.6-1.3,2.8-2.8,2.8h-12.6c-1.5,0-2.8-1.3-2.8-2.8
		V2.7c0-1.5,1.3-2.7,2.8-2.7h2.1c1,0,1.8,0.3,2.5,1l56.4,60.2h0.1v-57c0-1.6,1.3-2.8,2.8-2.8H431c1.5,0,2.8,1.3,2.8,2.8v93.3
		C433.9,98.9,432.6,100.1,431,100.1z M369.5,36.2h0.5l0,0l56.7,62.6c0.7,0.7,1.3,0.9,2.3,0.9h2c1.4,0,2.5-1.1,2.5-2.4V4.2
		c0-1.3-1.2-2.5-2.5-2.5h-12.8c-1.4,0-2.5,1.1-2.5,2.5v57.3h-0.5l0,0L358.7,1.2c-0.7-0.7-1.3-0.9-2.3-0.9h-2.1
		c-1.4,0-2.5,1.1-2.5,2.4v93.3c0,1.3,1.2,2.5,2.5,2.5H367c1.4,0,2.5-1.1,2.5-2.5V36.2z"/>
	<path class="st0" d="M516,98.9h-56.3c-1.6,0-2.8-1.3-2.8-2.8v-92c0-1.6,1.3-2.8,2.8-2.8H516c1.6,0,2.8,1.3,2.8,2.8v11.4
		c0,1.6-1.3,2.8-2.8,2.8h-40.9v22.5h34.1c1.5,0,2.8,1.3,2.8,2.8v11.5c0,1.6-1.3,2.8-2.8,2.8h-34.1v24H516c1.6,0,2.8,1.3,2.8,2.8
		v11.4C518.8,97.6,517.6,98.9,516,98.9z M459.7,1.6c-1.4,0-2.5,1.1-2.5,2.5v92c0,1.4,1.1,2.5,2.5,2.5H516c1.4,0,2.5-1.1,2.5-2.5
		V84.7c0-1.4-1.1-2.5-2.5-2.5h-41.2V57.6h34.4c1.4,0,2.5-1.1,2.5-2.5V43.5c0-1.3-1.2-2.5-2.5-2.5h-34.4V18H516
		c1.4,0,2.5-1.1,2.5-2.5V4.1c0-1.4-1.1-2.5-2.5-2.5H459.7z"/>
	<path class="st0" d="M605.3,98.5h-14.6c-1.6,0-2.2-1-2.4-1.3L570,60.5h-15.1v35.1c0,1.5-1.3,2.8-2.8,2.8h-12.8
		c-1.6,0-2.8-1.3-2.8-2.8V3.9h0.1c0.1-1.5,1.3-2.7,2.8-2.7h39.6c16.7,0,30.3,13.4,30.3,29.9c0,12.3-7.8,23-20.4,28l18.9,35
		c0.5,1,0.5,2.1,0,3C607.4,98,606.4,98.5,605.3,98.5z M554.6,60.2h15.6l0,0.1L588.6,97c0.1,0.3,0.7,1.2,2.1,1.2h14.6
		c1,0,1.8-0.4,2.3-1.2c0.5-0.8,0.5-1.8,0-2.7l-19-35.3l0.2-0.1c12.6-5,20.4-15.6,20.4-27.8c0-16.3-13.5-29.6-30-29.6h-39.6
		c-1.4,0-2.5,1.1-2.5,2.5v0.1h-0.1v91.4c0,1.4,1.1,2.5,2.5,2.5h12.8c1.3,0,2.5-1.2,2.5-2.5V60.2z M577.5,45.8h-0.2v-0.1h-22.6V17.8
		h22.8c7.5,0,13.9,6.2,13.9,13.6C591.4,39.2,585.1,45.8,577.5,45.8z M555.1,45.4h22.6v0.1c7.3-0.1,13.5-6.5,13.5-14
		c0-7.2-6.2-13.3-13.6-13.3h-22.5V45.4z"/>
	<path class="st0" d="M706.3,98.6h-12.1c-2.3,0-3.3-1.1-4.2-2.9l-6.7-14.8h-41.4l-6.7,14.8c-0.3,0.9-1.5,2.9-4.2,2.9H619
		c-1,0-1.8-0.4-2.3-1.1c-0.5-0.8-0.5-1.8-0.1-2.7l43.1-93.3c0.5-1.1,1.4-1.6,2.5-1.6h1.4c1.5,0,2.1,0.8,2.5,1.6l42.7,93.3
		c0.4,0.9,0.4,1.9-0.1,2.7C708.3,98.2,707.4,98.6,706.3,98.6z M641.8,80.6h41.8l0,0.1l6.7,14.9c1,2,2,2.7,3.9,2.7h12.1
		c0.9,0,1.7-0.4,2.2-1.1c0.4-0.7,0.5-1.5,0.1-2.4L665.9,1.6c-0.4-0.9-1-1.5-2.3-1.5h-1.4c-1,0-1.8,0.5-2.3,1.5l-43.1,93.3
		c-0.4,0.9-0.4,1.8,0,2.4c0.4,0.6,1.1,1,2.1,1H631c2.6,0,3.6-1.9,3.9-2.7L641.8,80.6z M676.6,65.5h-28.4l0.1-0.2L662,34.7h0.6
		L676.6,65.5z M648.7,65.2h27.5L662.4,35h-0.2L648.7,65.2z"/>
	<path class="st0" d="M745.5,98.6h-12.9c-1.5,0-2.8-1.3-2.8-2.8V18.3h-20.9c-1.6,0-2.8-1.3-2.8-2.8V4.1c0-1.6,1.3-2.8,2.8-2.8h60.5
		c1.6,0,2.8,1.3,2.8,2.8v11.4c0,1.6-1.3,2.8-2.8,2.8h-21.1v77.5C748.3,97.3,747,98.6,745.5,98.6z M730.1,18.1L730.1,18.1l0,77.7
		c0,1.3,1.2,2.5,2.5,2.5h12.9c1.3,0,2.5-1.2,2.5-2.5V18h21.4c1.4,0,2.5-1.1,2.5-2.5V4.1c0-1.4-1.1-2.5-2.5-2.5h-60.5
		c-1.4,0-2.5,1.1-2.5,2.5v11.4c0,1.4,1.1,2.5,2.5,2.5h21.2V18.1z"/>
	<path class="st0" d="M802.9,98.6H790c-1.5,0-2.8-1.3-2.8-2.8V4.1c0-1.5,1.3-2.8,2.8-2.8h12.9c1.5,0,2.8,1.3,2.8,2.8v91.7
		C805.8,97.3,804.4,98.6,802.9,98.6z M790,1.6c-1.3,0-2.5,1.2-2.5,2.5v91.7c0,1.3,1.2,2.5,2.5,2.5h12.9c1.3,0,2.5-1.2,2.5-2.5V4.1
		c0-1.3-1.2-2.5-2.5-2.5H790z"/>
	<path class="st0" d="M864,100h-1.4c-1.1,0-2-0.5-2.5-1.6L817.3,5.1c-0.4-0.9-0.4-1.9,0.1-2.7c0.5-0.8,1.4-1.2,2.4-1.2H834
		c1.3,0,2.2,0.8,2.5,1.6l26.6,59.5h0.5l26.6-59.5c0.3-0.8,1.2-1.6,2.5-1.6H907c1,0,1.9,0.4,2.4,1.2c0.5,0.8,0.5,1.7,0.1,2.7
		l-43,93.3C866,99.5,865.2,100,864,100z M819.8,1.6c-0.9,0-1.7,0.4-2.2,1.1c-0.4,0.7-0.5,1.5-0.1,2.4l0,0l42.8,93.3
		c0.5,1,1.2,1.5,2.3,1.5h1.4c1,0,1.8-0.5,2.3-1.5l43-93.3c0.4-0.8,0.4-1.7-0.1-2.4c-0.4-0.7-1.2-1.1-2.2-1.1h-14.2
		c-1.1,0-2,0.8-2.2,1.5l-26.7,59.6H863l0-0.1L836.2,3c-0.3-0.7-1.1-1.5-2.3-1.5H819.8z"/>
	<path class="st0" d="M980.1,98.9h-56.3c-1.6,0-2.8-1.3-2.8-2.8V3.9h0.1c0.1-1.5,1.3-2.7,2.8-2.7h56.3c1.6,0,2.8,1.3,2.8,2.8v11.4
		c0,1.6-1.3,2.8-2.8,2.8h-40.9v22.5h34c1.5,0,2.8,1.3,2.8,2.8v11.5c0,1.6-1.3,2.8-2.8,2.8h-34.1v24h40.9c1.6,0,2.8,1.3,2.8,2.8v11.4
		C982.9,97.6,981.6,98.9,980.1,98.9z M921.2,4.2v91.8c0,1.4,1.1,2.5,2.5,2.5h56.3c1.4,0,2.5-1.1,2.5-2.5V84.7c0-1.4-1.1-2.5-2.5-2.5
		h-41.2V57.6h34.4c1.4,0,2.5-1.1,2.5-2.5V43.5c0-1.3-1.2-2.5-2.5-2.5H939V18h41.2c1.4,0,2.5-1.1,2.5-2.5V4.1c0-1.4-1.1-2.5-2.5-2.5
		h-56.3c-1.4,0-2.5,1.1-2.5,2.5v0.1H921.2z"/>
</g>
</svg>
