<svg xmlns="http://www.w3.org/2000/svg" viewBox="0 0 470.28 61.54"><defs><style>.cls-1{fill:none;stroke:#fff;stroke-miterlimit:8.95;stroke-width:0.31px;}</style></defs><g id="Layer_2" data-name="Layer 2"><g id="Layer_1-2" data-name="Layer 1"><path class="cls-1" d="M.15,2.62A1.62,1.62,0,0,1,1.77,1H36.38A1.62,1.62,0,0,1,38,2.62v7a1.62,1.62,0,0,1-1.62,1.62H11.21v14h21a1.67,1.67,0,0,1,1.62,1.61v7.06a1.62,1.62,0,0,1-1.62,1.61h-21V50.33H36.38A1.61,1.61,0,0,1,38,51.94v7a1.62,1.62,0,0,1-1.62,1.61H1.77A1.62,1.62,0,0,1,.15,58.92Z"/><path class="cls-1" d="M45.22,54.75c-.85-.68-1.19-1.19-.43-2.55l3.07-5.27a2,2,0,0,1,2.89-.6C54.23,49,58.06,51.6,63.59,51.6c4.42,0,7.74-2.89,7.74-6.55,0-4.33-3.66-7.31-10.8-10.2-8-3.23-16-8.33-16-18.37C44.54,8.91,50.15.15,63.67.15a30,30,0,0,1,17,5.7,2.11,2.11,0,0,1,.51,2.81L78,13.51c-.68,1-2,1.7-3,1-3.65-2.3-7.14-4.68-11.82-4.68-4.85,0-7.48,2.72-7.48,6,0,4,3.15,6.72,10,9.53C74,28.64,83.49,33.57,83.49,44.54c0,8.76-7.57,16.84-19.56,16.84C53.21,61.38,47.69,56.87,45.22,54.75Z"/><path class="cls-1" d="M102.19,11.21h-13a1.63,1.63,0,0,1-1.62-1.62v-7A1.63,1.63,0,0,1,89.18,1h37.16A1.62,1.62,0,0,1,128,2.62v7a1.62,1.62,0,0,1-1.62,1.62h-13V58.92a1.67,1.67,0,0,1-1.61,1.61h-7.91a1.68,1.68,0,0,1-1.62-1.61Z"/><path class="cls-1" d="M136,2.62A1.62,1.62,0,0,1,137.56,1h24.32a18.42,18.42,0,0,1,18.54,18.29c0,7.82-5.18,14.2-12.58,17.18l11.65,21.59A1.61,1.61,0,0,1,178,60.53h-8.93a1.45,1.45,0,0,1-1.36-.77L156.44,37.23H147V58.92a1.67,1.67,0,0,1-1.61,1.61h-7.83A1.61,1.61,0,0,1,136,58.92Zm25,25.51a8.66,8.66,0,0,0,8.42-8.67A8.46,8.46,0,0,0,161,11.21H147.09V28.13Z"/><path class="cls-1" d="M183.56,58.32,210,1.09a1.54,1.54,0,0,1,1.45-.94h.85a1.44,1.44,0,0,1,1.44.94l26.19,57.23a1.5,1.5,0,0,1-1.44,2.21h-7.4a2.45,2.45,0,0,1-2.47-1.7l-4.16-9.18H199l-4.17,9.18a2.55,2.55,0,0,1-2.46,1.7H185A1.5,1.5,0,0,1,183.56,58.32ZM220.3,40.21,211.8,21.5h-.26l-8.33,18.71Z"/><path class="cls-1" d="M255.59,11.21h-13A1.62,1.62,0,0,1,241,9.59v-7A1.62,1.62,0,0,1,242.58,1h37.16a1.62,1.62,0,0,1,1.61,1.62v7a1.62,1.62,0,0,1-1.61,1.62h-13V58.92a1.68,1.68,0,0,1-1.62,1.61H257.2a1.67,1.67,0,0,1-1.61-1.61Z"/><path class="cls-1" d="M289.34,2.62A1.62,1.62,0,0,1,291,1h34.61a1.61,1.61,0,0,1,1.61,1.62v7a1.61,1.61,0,0,1-1.61,1.62H300.4v14h21A1.67,1.67,0,0,1,323,26.77v7.06a1.62,1.62,0,0,1-1.62,1.61h-21V50.33h25.17a1.6,1.6,0,0,1,1.61,1.61v7a1.61,1.61,0,0,1-1.61,1.61H291a1.62,1.62,0,0,1-1.62-1.61Z"/><path class="cls-1" d="M363.92.15a32.18,32.18,0,0,1,20.75,7.91,1.65,1.65,0,0,1,.08,2.38L379.48,16a1.45,1.45,0,0,1-2.21,0A19.3,19.3,0,0,0,364.43,11c-10.63,0-19.05,9.1-19.05,19.73a19.34,19.34,0,0,0,19.13,19.47,26.64,26.64,0,0,0,10.12-2.12V40.89h-6.8a1.55,1.55,0,0,1-1.62-1.53V32.64A1.57,1.57,0,0,1,367.83,31h16.33a1.6,1.6,0,0,1,1.53,1.62V54.41a1.64,1.64,0,0,1-.68,1.36,43,43,0,0,1-21.09,5.53,30.58,30.58,0,0,1,0-61.15Z"/><path class="cls-1" d="M396.48,2.62A1.68,1.68,0,0,1,398.1,1H406a1.67,1.67,0,0,1,1.61,1.62v56.3A1.67,1.67,0,0,1,406,60.53H398.1a1.68,1.68,0,0,1-1.62-1.61Z"/><path class="cls-1" d="M413.57,58.32,440,1.09a1.52,1.52,0,0,1,1.44-.94h.85a1.45,1.45,0,0,1,1.45.94L470,58.32a1.5,1.5,0,0,1-1.44,2.21h-7.4a2.45,2.45,0,0,1-2.47-1.7l-4.17-9.18H429.05l-4.17,9.18a2.55,2.55,0,0,1-2.46,1.7H415A1.5,1.5,0,0,1,413.57,58.32Zm36.74-18.11L441.8,21.5h-.25l-8.33,18.71Z"/></g></g></svg>