<?xml version="1.0" encoding="utf-8"?>
<!-- Generator: Adobe Illustrator 26.1.0, SVG Export Plug-In . SVG Version: 6.00 Build 0)  -->
<svg version="1.1" id="Capa_1" xmlns="http://www.w3.org/2000/svg" xmlns:xlink="http://www.w3.org/1999/xlink" x="0px" y="0px"
	 viewBox="0 0 470.3 61.5" style="enable-background:new 0 0 470.3 61.5;" xml:space="preserve">
<style type="text/css">
	.st0{opacity:0.3;}
	.st1{fill:none;stroke:#00B60B;stroke-miterlimit:10;}
</style>
<g id="Layer_2" class="st0">
	<g id="Layer_1-2">
		<path class="st1" d="M0.2,2.6C0.2,1.7,0.9,1,1.8,1h34.6C37.3,1,38,1.7,38,2.6v7c0,0.9-0.7,1.6-1.6,1.6H11.2v14h21
			c0.9,0,1.6,0.7,1.6,1.6v7.1c0,0.9-0.7,1.6-1.6,1.6h-21v14.8h25.2c0.9,0,1.6,0.7,1.6,1.6c0,0,0,0,0,0v7c0,0.9-0.7,1.6-1.6,1.6H1.8
			c-0.9,0-1.6-0.7-1.6-1.6c0,0,0,0,0,0V2.6z"/>
		<path class="st1" d="M45.2,54.8c-0.8-0.7-1.2-1.2-0.4-2.5l3.1-5.3c0.6-0.9,1.8-1.3,2.7-0.7c0.1,0,0.1,0.1,0.1,0.1
			c3.5,2.7,7.3,5.3,12.8,5.3c4.4,0,7.7-2.9,7.7-6.5c0-4.3-3.7-7.3-10.8-10.2c-8-3.2-16-8.3-16-18.4c0-7.6,5.6-16.3,19.1-16.3
			c6.1,0.1,12,2.1,17,5.7c0.9,0.7,1.1,1.9,0.5,2.8L78,13.5c-0.7,1-2,1.7-3,1c-3.7-2.3-7.1-4.7-11.8-4.7c-4.8,0-7.5,2.7-7.5,6
			c0,4,3.2,6.7,10,9.5c8.3,3.3,17.8,8.2,17.8,19.2c0,8.8-7.6,16.8-19.6,16.8C53.2,61.4,47.7,56.9,45.2,54.8z"/>
		<path class="st1" d="M102.2,11.2h-13c-0.9,0-1.6-0.7-1.6-1.6v-7c0-0.9,0.7-1.6,1.6-1.6h37.2c0.9,0,1.6,0.7,1.7,1.6c0,0,0,0,0,0v7
			c0,0.9-0.7,1.6-1.6,1.6l0,0h-13v47.7c0,0.9-0.7,1.6-1.6,1.6h-7.9c-0.9,0-1.6-0.7-1.6-1.6L102.2,11.2z"/>
		<path class="st1" d="M136,2.6c0-0.9,0.7-1.6,1.6-1.6h24.3c10.2-0.1,18.5,8.1,18.5,18.3c0,7.8-5.2,14.2-12.6,17.2l11.6,21.6
			c0.5,0.7,0.3,1.7-0.5,2.2c-0.3,0.2-0.6,0.3-1,0.2h-8.9c-0.6,0-1.1-0.3-1.4-0.8l-11.3-22.5H147v21.7c0,0.9-0.7,1.6-1.6,1.6h-7.8
			c-0.9,0-1.6-0.7-1.6-1.6V2.6z M161,28.1c4.7-0.1,8.4-4,8.4-8.7c-0.1-4.6-3.8-8.2-8.4-8.3h-13.9v16.9L161,28.1z"/>
		<path class="st1" d="M183.6,58.3L210,1.1c0.2-0.6,0.8-1,1.4-0.9h0.9c0.6,0,1.2,0.3,1.4,0.9l26.2,57.2c0.4,0.7,0.1,1.6-0.6,2
			c-0.3,0.1-0.5,0.2-0.8,0.2h-7.4c-1.1,0.1-2.1-0.6-2.5-1.7l-4.2-9.2H199l-4.2,9.2c-0.4,1-1.4,1.7-2.5,1.7H185
			c-0.8,0.1-1.5-0.5-1.6-1.4C183.4,58.9,183.4,58.6,183.6,58.3z M220.3,40.2l-8.5-18.7h-0.3l-8.3,18.7H220.3z"/>
		<path class="st1" d="M255.6,11.2h-13c-0.9,0-1.6-0.7-1.6-1.6v-7c0-0.9,0.7-1.6,1.6-1.6h37.2c0.9,0,1.6,0.7,1.6,1.6v7
			c0,0.9-0.7,1.6-1.6,1.6h-13v47.7c0,0.9-0.7,1.6-1.6,1.6h-7.9c-0.9,0-1.6-0.7-1.6-1.6L255.6,11.2z"/>
		<path class="st1" d="M289.3,2.6c0-0.9,0.7-1.6,1.6-1.6c0,0,0,0,0,0h34.6c0.9,0,1.6,0.7,1.6,1.6c0,0,0,0,0,0v7
			c0,0.9-0.7,1.6-1.6,1.6c0,0,0,0,0,0h-25.2v14h21c0.8,0,1.5,0.7,1.6,1.5v7.1c0,0.9-0.7,1.6-1.6,1.6h-21v14.9h25.2
			c0.9,0,1.6,0.7,1.6,1.6c0,0,0,0,0,0v7c0,0.9-0.7,1.6-1.6,1.6H291c-0.9,0-1.6-0.7-1.6-1.6L289.3,2.6z"/>
		<path class="st1" d="M363.9,0.2c7.6,0.1,15,2.9,20.8,7.9c0.7,0.6,0.7,1.7,0.1,2.3c0,0,0,0,0,0l-5.3,5.6c-0.5,0.6-1.4,0.7-2,0.2
			c-0.1-0.1-0.1-0.1-0.2-0.2c-3.5-3.2-8.1-5-12.8-5c-10.6,0-19,9.1-19,19.7c-0.1,10.7,8.5,19.4,19.1,19.5c3.5,0,6.9-0.8,10.1-2.1
			v-7.2h-6.8c-0.9,0-1.6-0.6-1.6-1.5c0,0,0,0,0-0.1v-6.7c0-0.9,0.6-1.6,1.5-1.6c0,0,0.1,0,0.1,0h16.3c0.9,0,1.5,0.8,1.5,1.6v21.8
			c0,0.5-0.2,1-0.7,1.4c-6.4,3.6-13.7,5.5-21.1,5.5c-16.9-0.3-30.3-14.2-30-31.1C334.2,13.7,347.5,0.4,363.9,0.2L363.9,0.2z"/>
		<path class="st1" d="M396.5,2.6c0-0.9,0.7-1.6,1.6-1.6h7.9c0.9,0,1.6,0.7,1.6,1.6v56.3c0,0.9-0.7,1.6-1.6,1.6h-7.9
			c-0.9,0-1.6-0.7-1.6-1.6V2.6z"/>
		<path class="st1" d="M413.6,58.3L440,1.1c0.2-0.6,0.8-1,1.4-0.9h0.9c0.6,0,1.2,0.3,1.5,0.9L470,58.3c0.4,0.7,0.1,1.6-0.6,2
			c-0.3,0.1-0.5,0.2-0.8,0.2h-7.4c-1.1,0.1-2.1-0.6-2.5-1.7l-4.2-9.2H429l-4.2,9.2c-0.4,1-1.4,1.7-2.5,1.7H415
			c-0.8,0.1-1.5-0.6-1.6-1.4C413.4,58.9,413.4,58.6,413.6,58.3z M450.3,40.2l-8.5-18.7h-0.2l-8.3,18.7H450.3z"/>
	</g>
</g>
</svg>
