<svg xmlns="http://www.w3.org/2000/svg" viewBox="0 0 481.53 61.23"><defs><style>.cls-1{fill:#fff;}</style></defs><g id="Layer_2" data-name="Layer 2"><g id="Layer_1-2" data-name="Layer 1"><path class="cls-1" d="M0,2.47A1.6,1.6,0,0,1,1.53.85H21.68a29.77,29.77,0,1,1,0,59.53H1.53A1.6,1.6,0,0,1,0,58.76ZM20.66,50C31.72,50,39.8,42.18,39.8,30.53S31.72,11.14,20.66,11.14H11V50Z"/><path class="cls-1" d="M61.05,2.47A1.62,1.62,0,0,1,62.67.85H97.28a1.62,1.62,0,0,1,1.61,1.62v7a1.61,1.61,0,0,1-1.61,1.61H72.11V25h21a1.68,1.68,0,0,1,1.62,1.62v7.05a1.62,1.62,0,0,1-1.62,1.62h-21V50.17H97.28a1.62,1.62,0,0,1,1.61,1.62v7a1.62,1.62,0,0,1-1.61,1.62H62.67a1.62,1.62,0,0,1-1.62-1.62Z"/><path class="cls-1" d="M106.12,54.59c-.85-.68-1.19-1.19-.43-2.55l3.06-5.27a2,2,0,0,1,2.89-.6c3.49,2.64,7.32,5.28,12.85,5.28,4.42,0,7.73-2.89,7.73-6.55,0-4.34-3.65-7.31-10.8-10.21-8-3.23-16-8.33-16-18.36C105.44,8.76,111.05,0,124.57,0a29.92,29.92,0,0,1,17,5.7,2.1,2.1,0,0,1,.51,2.8l-3.23,4.85c-.68,1-2,1.7-3,1-3.66-2.29-7.14-4.68-11.82-4.68-4.85,0-7.48,2.73-7.48,6,0,4,3.14,6.71,10,9.52,8.25,3.32,17.77,8.25,17.77,19.22,0,8.76-7.56,16.84-19.55,16.84C114.11,61.23,108.58,56.72,106.12,54.59Z"/><path class="cls-1" d="M180.69,0a28.77,28.77,0,0,1,20.58,7.91,1.58,1.58,0,0,1,.09,2.38l-5.19,5.36a1.37,1.37,0,0,1-2.13,0,20.09,20.09,0,0,0-13.09-5c-10.89,0-19,9.1-19,19.81S170.15,50.09,181,50.09a20.42,20.42,0,0,0,13-4.85,1.57,1.57,0,0,1,2.13,0l5.27,5.44a1.63,1.63,0,0,1-.08,2.3,29.22,29.22,0,0,1-20.67,8.25,30.62,30.62,0,1,1,0-61.23Z"/><path class="cls-1" d="M209.94,2.47A1.68,1.68,0,0,1,211.55.85h8.08a1.62,1.62,0,0,1,1.62,1.62V37.93c0,7.22,4.93,12.24,12.33,12.24S246,45.15,246,38V2.47A1.62,1.62,0,0,1,247.61.85h8.08a1.67,1.67,0,0,1,1.61,1.62V38.52c0,12.93-10.28,22.71-23.72,22.71s-23.64-9.78-23.64-22.71Z"/><path class="cls-1" d="M269.72,2.47A1.62,1.62,0,0,1,271.33.85h34.61a1.62,1.62,0,0,1,1.62,1.62v7a1.61,1.61,0,0,1-1.62,1.61H280.77V25h21a1.67,1.67,0,0,1,1.61,1.62v7.05a1.61,1.61,0,0,1-1.61,1.62h-21V50.17h25.17a1.62,1.62,0,0,1,1.62,1.62v7a1.62,1.62,0,0,1-1.62,1.62H271.33a1.62,1.62,0,0,1-1.61-1.62Z"/><path class="cls-1" d="M317.25,1.53A1.59,1.59,0,0,1,318.86,0h1.28a1.85,1.85,0,0,1,1.44.59l34.7,37h.17V2.47A1.62,1.62,0,0,1,358.07.85h7.82a1.68,1.68,0,0,1,1.62,1.62V59.7a1.6,1.6,0,0,1-1.62,1.53H364.7a1.86,1.86,0,0,1-1.45-.6L328.39,22.19h-.17V58.76a1.62,1.62,0,0,1-1.62,1.62h-7.74a1.67,1.67,0,0,1-1.61-1.62Z"/><path class="cls-1" d="M390.12,11.05h-13a1.61,1.61,0,0,1-1.62-1.61v-7A1.62,1.62,0,0,1,377.11.85h37.16a1.62,1.62,0,0,1,1.62,1.62v7a1.61,1.61,0,0,1-1.62,1.61h-13V58.76a1.68,1.68,0,0,1-1.62,1.62h-7.9a1.67,1.67,0,0,1-1.62-1.62Z"/><path class="cls-1" d="M450.92,0a30.62,30.62,0,0,1,0,61.23A30.34,30.34,0,0,1,420.39,30.7,30.49,30.49,0,0,1,450.92,0Zm0,50.17A19.56,19.56,0,1,0,431.44,30.7,19.6,19.6,0,0,0,450.92,50.17Z"/></g></g></svg>