<?xml version="1.0" encoding="utf-8"?>
<!-- Generator: Adobe Illustrator 26.1.0, SVG Export Plug-In . SVG Version: 6.00 Build 0)  -->
<svg version="1.1" id="Capa_1" xmlns="http://www.w3.org/2000/svg" xmlns:xlink="http://www.w3.org/1999/xlink" x="0px" y="0px"
	 viewBox="0 0 470 61.2" style="enable-background:new 0 0 470 61.2;" xml:space="preserve">
<style type="text/css">
	.st0{opacity:0.4;}
	.st1{fill:#00B60B;}
</style>
<g id="Layer_2" class="st0">
	<g id="Layer_1-2">
		<path class="st1" d="M0,2.5c0-0.9,0.7-1.6,1.6-1.6c0,0,0,0,0,0h34.6c0.9,0,1.6,0.7,1.6,1.6v7c0,0.9-0.7,1.6-1.6,1.6l0,0H11.1V25
			h21c0.9,0,1.6,0.7,1.6,1.6v7.1c0,0.9-0.7,1.6-1.6,1.6c0,0,0,0,0,0H11v14.9h25.2c0.9,0,1.6,0.7,1.6,1.6v7c0,0.9-0.7,1.6-1.6,1.6
			H1.6c-0.9,0-1.6-0.7-1.6-1.6c0,0,0,0,0,0V2.5z"/>
		<path class="st1" d="M45.1,54.6c-0.9-0.7-1.2-1.2-0.4-2.5l3.1-5.3c0.6-0.9,1.8-1.3,2.7-0.7c0.1,0,0.1,0.1,0.1,0.1
			c3.5,2.6,7.3,5.3,12.8,5.3c4.4,0,7.7-2.9,7.7-6.5c0-4.3-3.7-7.3-10.8-10.2c-8-3.2-16-8.3-16-18.4C44.4,8.8,50,0,63.5,0
			c6.1,0.1,12,2.1,17,5.7c0.9,0.7,1.1,1.9,0.5,2.8l-3.2,4.9c-0.7,1-2,1.7-3,1c-3.6-2.3-7.1-4.7-11.8-4.7c-4.8,0-7.5,2.7-7.5,6
			c0,4,3.1,6.7,10,9.5c8.2,3.3,17.8,8.2,17.8,19.2c0,8.8-7.6,16.8-19.6,16.8C53.1,61.2,47.5,56.7,45.1,54.6z"/>
		<path class="st1" d="M102,11.1H89c-0.9,0-1.6-0.7-1.6-1.6c0,0,0,0,0,0v-7c0-0.9,0.7-1.6,1.6-1.6h37.2c0.9,0,1.6,0.7,1.6,1.6v7
			c0,0.9-0.7,1.6-1.6,1.6l0,0h-13v47.7c0,0.9-0.7,1.6-1.6,1.6h-7.9c-0.9,0-1.6-0.7-1.6-1.6V11.1z"/>
		<path class="st1" d="M135.8,2.5c0-0.9,0.7-1.6,1.6-1.6c0,0,0,0,0,0h24.3c10.2-0.1,18.5,8.1,18.5,18.3c0,7.8-5.2,14.2-12.6,17.2
			l11.6,21.6c0.5,0.8,0.3,1.7-0.5,2.2c-0.3,0.2-0.6,0.3-0.9,0.2H169c-0.6,0-1.1-0.3-1.4-0.8l-11.4-22.5h-9.4v21.7
			c0,0.9-0.7,1.6-1.6,1.6h-7.8c-0.9,0-1.6-0.7-1.6-1.6V2.5z M160.8,28c4.7-0.1,8.4-4,8.4-8.7c-0.1-4.6-3.8-8.2-8.4-8.2h-13.9v17
			L160.8,28z"/>
		<path class="st1" d="M183.4,58.2l26.4-57.2c0.2-0.6,0.8-0.9,1.4-0.9h0.9c0.6,0,1.2,0.3,1.4,0.9l26.2,57.2c0.4,0.7,0.1,1.6-0.6,2
			c-0.3,0.1-0.6,0.2-0.8,0.2H231c-1.1,0.1-2.1-0.6-2.5-1.7l-4.2-9.2h-25.5l-4.2,9.2c-0.4,1-1.4,1.7-2.5,1.7h-7.4
			c-0.8,0.1-1.6-0.5-1.6-1.4C183.2,58.7,183.3,58.4,183.4,58.2z M220.2,40l-8.5-18.7h-0.2L203.1,40H220.2z"/>
		<path class="st1" d="M255.4,11.1h-13c-0.9,0-1.6-0.7-1.6-1.6l0,0v-7c0-0.9,0.7-1.6,1.6-1.6h37.2c0.9,0,1.6,0.7,1.6,1.6v7
			c0,0.9-0.7,1.6-1.6,1.6c0,0,0,0,0,0h-13v47.7c0,0.9-0.7,1.6-1.6,1.6h-7.9c-0.9,0-1.6-0.7-1.6-1.6L255.4,11.1z"/>
		<path class="st1" d="M289.2,2.5c0-0.9,0.7-1.6,1.6-1.6h34.6c0.9,0,1.6,0.7,1.6,1.6v7c0,0.9-0.7,1.6-1.6,1.6h-25.2V25h21
			c0.9,0,1.6,0.7,1.6,1.6v7.1c0,0.9-0.7,1.6-1.6,1.6c0,0,0,0,0,0h-21v14.9h25.2c0.9,0,1.6,0.7,1.6,1.6v7c0,0.9-0.7,1.6-1.6,1.6
			h-34.6c-0.9,0-1.6-0.7-1.6-1.6V2.5z"/>
		<path class="st1" d="M363.8,0c7.6,0.1,15,2.9,20.8,7.9c0.7,0.6,0.7,1.6,0.1,2.3c0,0,0,0,0,0.1l-5.3,5.5c-0.5,0.6-1.4,0.7-2,0.2
			c-0.1-0.1-0.1-0.1-0.2-0.2c-3.5-3.2-8.1-4.9-12.8-4.9c-10.6,0-19,9.1-19,19.7c-0.1,10.7,8.5,19.4,19.1,19.5
			c3.5,0,6.9-0.7,10.1-2.1v-7.3h-6.8c-0.8,0-1.6-0.6-1.6-1.5c0,0,0,0,0-0.1v-6.7c0-0.9,0.6-1.6,1.5-1.6c0,0,0.1,0,0.1,0H384
			c0.9,0,1.5,0.7,1.5,1.6v21.8c0,0.5-0.2,1-0.7,1.4c-6.4,3.6-13.7,5.5-21.1,5.5c-16.9,0-30.6-13.7-30.6-30.6
			C333.2,13.7,346.9,0,363.8,0z"/>
		<path class="st1" d="M396.3,2.5c0-0.9,0.7-1.6,1.6-1.6h7.9c0.9,0,1.6,0.7,1.6,1.6v56.3c0,0.9-0.7,1.6-1.6,1.6h-7.9
			c-0.9,0-1.6-0.7-1.6-1.6L396.3,2.5z"/>
		<path class="st1" d="M413.4,58.2l26.4-57.2c0.2-0.6,0.8-0.9,1.5-0.9h0.9c0.6,0,1.2,0.3,1.5,0.9l26.2,57.2c0.4,0.7,0.1,1.6-0.6,2
			c-0.3,0.1-0.6,0.2-0.8,0.2H461c-1.1,0.1-2.1-0.6-2.5-1.7l-4.2-9.2h-25.5l-4.2,9.2c-0.4,1-1.4,1.7-2.5,1.7h-7.4
			c-0.8,0.1-1.5-0.5-1.6-1.4C413.2,58.7,413.3,58.4,413.4,58.2z M450.2,40l-8.5-18.7h-0.3L433.1,40H450.2z"/>
	</g>
</g>
</svg>
