<svg xmlns="http://www.w3.org/2000/svg" viewBox="0 0 475.8 80.61"><defs><style>.cls-1{fill:none;stroke:#fff;stroke-miterlimit:8.95;stroke-width:0.31px;}</style></defs><g id="Layer_2" data-name="Layer 2"><g id="Layer_1-2" data-name="Layer 1"><path class="cls-1" d="M30.68,19.23A30.61,30.61,0,1,1,.15,49.93,30.56,30.56,0,0,1,30.68,19.23Zm0,50.17A19.56,19.56,0,1,0,11.21,49.93,19.6,19.6,0,0,0,30.68,69.4Z"/><path class="cls-1" d="M70.82,21.69a1.61,1.61,0,0,1,1.61-1.61h20A19,19,0,1,1,92.5,58H81.87V78a1.67,1.67,0,0,1-1.62,1.61H72.43A1.61,1.61,0,0,1,70.82,78ZM92.07,47.63c4.77,0,8.42-3.83,8.42-8.85a8.18,8.18,0,0,0-8.42-8.24H81.87V47.63Z"/><path class="cls-1" d="M119.45,21.69a1.61,1.61,0,0,1,1.62-1.61h34.61a1.61,1.61,0,0,1,1.61,1.61v7a1.61,1.61,0,0,1-1.61,1.61H130.51V44.23h21a1.67,1.67,0,0,1,1.62,1.61V52.9a1.62,1.62,0,0,1-1.62,1.62h-21V69.4h25.17A1.61,1.61,0,0,1,157.29,71v7a1.61,1.61,0,0,1-1.61,1.61H121.07A1.61,1.61,0,0,1,119.45,78Z"/><path class="cls-1" d="M167,21.69a1.61,1.61,0,0,1,1.62-1.61h24.32a18.41,18.41,0,0,1,18.54,18.28c0,7.82-5.19,14.2-12.59,17.18l11.65,21.6a1.6,1.6,0,0,1-1.44,2.46h-8.93a1.45,1.45,0,0,1-1.36-.76L187.48,56.3H178V78a1.67,1.67,0,0,1-1.62,1.61H168.6A1.61,1.61,0,0,1,167,78ZM192,47.2a8.66,8.66,0,0,0,8.41-8.67A8.46,8.46,0,0,0,192,30.28H178.12V47.2Z"/><path class="cls-1" d="M214.6,77.39l26.45-57.23a1.52,1.52,0,0,1,1.44-.93h.85a1.45,1.45,0,0,1,1.45.93L271,77.39a1.5,1.5,0,0,1-1.44,2.21h-7.4a2.45,2.45,0,0,1-2.47-1.7l-4.17-9.18H230.08l-4.17,9.18a2.56,2.56,0,0,1-2.47,1.7h-7.39A1.5,1.5,0,0,1,214.6,77.39Zm36.74-18.11-8.51-18.71h-.25l-8.34,18.71Z"/><path class="cls-1" d="M304.23,19.23a28.78,28.78,0,0,1,20.58,7.91,1.58,1.58,0,0,1,.08,2.38l-5.19,5.35a1.36,1.36,0,0,1-2.12,0,20.16,20.16,0,0,0-13.1-5c-10.88,0-19,9.1-19,19.81s8.16,19.64,19.05,19.64a20.41,20.41,0,0,0,13-4.84,1.55,1.55,0,0,1,2.12,0L325,69.91a1.61,1.61,0,0,1-.09,2.29,29.14,29.14,0,0,1-20.66,8.25,30.61,30.61,0,1,1,0-61.22Z"/><path class="cls-1" d="M334.07,21.69a1.66,1.66,0,0,1,1.61-1.61h7.91a1.67,1.67,0,0,1,1.62,1.61V78a1.67,1.67,0,0,1-1.62,1.61h-7.91A1.66,1.66,0,0,1,334.07,78Z"/><path class="cls-1" d="M385.26,19.23a30.61,30.61,0,1,1-30.53,30.7A30.55,30.55,0,0,1,385.26,19.23Zm0,50.17a19.56,19.56,0,1,0-19.47-19.47A19.6,19.6,0,0,0,385.26,69.4ZM376.16,10,390.53.52c1.45-.94,3.57,0,4.59,2s1,4.34-.42,5L379,14.8c-.94.43-2.13-.34-2.81-1.61S375.57,10.47,376.16,10Z"/><path class="cls-1" d="M425.39,20.76A1.6,1.6,0,0,1,427,19.23h1.27a1.89,1.89,0,0,1,1.45.59l34.7,37h.16V21.69a1.61,1.61,0,0,1,1.62-1.61H474a1.67,1.67,0,0,1,1.62,1.61V78.92A1.6,1.6,0,0,1,474,80.45h-1.19a1.87,1.87,0,0,1-1.44-.59L436.53,41.42h-.17V78a1.61,1.61,0,0,1-1.61,1.61H427A1.67,1.67,0,0,1,425.39,78Z"/></g></g></svg>