<svg xmlns="http://www.w3.org/2000/svg" viewBox="0 0 481.84 61.54"><defs><style>.cls-1{fill:none;stroke:#fff;stroke-miterlimit:8.95;stroke-width:0.31px;}</style></defs><g id="Layer_2" data-name="Layer 2"><g id="Layer_1-2" data-name="Layer 1"><path class="cls-1" d="M.15,2.62A1.6,1.6,0,0,1,1.68,1H21.84a29.77,29.77,0,1,1,0,59.53H1.68A1.6,1.6,0,0,1,.15,58.92ZM20.82,50.16C31.87,50.16,40,42.33,40,30.68S31.87,11.29,20.82,11.29h-9.7V50.16Z"/><path class="cls-1" d="M61.21,2.62A1.62,1.62,0,0,1,62.82,1H97.43a1.62,1.62,0,0,1,1.62,1.62v7a1.62,1.62,0,0,1-1.62,1.62H72.26v14h21a1.66,1.66,0,0,1,1.62,1.61v7.06a1.61,1.61,0,0,1-1.62,1.61h-21V50.33H97.43a1.61,1.61,0,0,1,1.62,1.61v7a1.62,1.62,0,0,1-1.62,1.61H62.82a1.61,1.61,0,0,1-1.61-1.61Z"/><path class="cls-1" d="M106.27,54.75c-.85-.68-1.19-1.19-.42-2.55l3.06-5.27a2,2,0,0,1,2.89-.6c3.49,2.64,7.31,5.27,12.84,5.27,4.42,0,7.74-2.89,7.74-6.55,0-4.33-3.66-7.31-10.8-10.2-8-3.23-16-8.33-16-18.37,0-7.57,5.61-16.33,19.13-16.33a30,30,0,0,1,17,5.7,2.11,2.11,0,0,1,.51,2.81L139,13.51c-.68,1-2,1.7-3,1-3.65-2.3-7.14-4.68-11.82-4.68-4.84,0-7.48,2.72-7.48,6,0,4,3.15,6.72,10,9.53,8.25,3.31,17.78,8.24,17.78,19.21,0,8.76-7.57,16.84-19.56,16.84C114.26,61.38,108.74,56.87,106.27,54.75Z"/><path class="cls-1" d="M180.85.15a28.84,28.84,0,0,1,20.58,7.91,1.58,1.58,0,0,1,.08,2.38l-5.19,5.36a1.36,1.36,0,0,1-2.12,0,20.11,20.11,0,0,0-13.1-5c-10.88,0-19,9.1-19,19.82s8.16,19.64,19.05,19.64a20.36,20.36,0,0,0,13-4.85,1.56,1.56,0,0,1,2.12,0l5.27,5.45a1.62,1.62,0,0,1-.08,2.29,29.2,29.2,0,0,1-20.66,8.25,30.62,30.62,0,1,1,0-61.23Z"/><path class="cls-1" d="M210.09,2.62A1.68,1.68,0,0,1,211.71,1h8.08a1.62,1.62,0,0,1,1.61,1.62V38.08c0,7.23,4.94,12.25,12.33,12.25s12.42-5,12.42-12.16V2.62A1.62,1.62,0,0,1,247.77,1h8.07a1.68,1.68,0,0,1,1.62,1.62V38.68c0,12.92-10.29,22.7-23.73,22.7s-23.64-9.78-23.64-22.7Z"/><path class="cls-1" d="M269.87,2.62A1.62,1.62,0,0,1,271.49,1H306.1a1.62,1.62,0,0,1,1.61,1.62v7a1.62,1.62,0,0,1-1.61,1.62H280.93v14h21a1.67,1.67,0,0,1,1.62,1.61v7.06a1.62,1.62,0,0,1-1.62,1.61h-21V50.33H306.1a1.61,1.61,0,0,1,1.61,1.61v7a1.61,1.61,0,0,1-1.61,1.61H271.49a1.62,1.62,0,0,1-1.62-1.61Z"/><path class="cls-1" d="M317.4,1.68A1.6,1.6,0,0,1,319,.15h1.27a1.86,1.86,0,0,1,1.45.6l34.69,37h.17V2.62A1.62,1.62,0,0,1,358.22,1H366a1.68,1.68,0,0,1,1.62,1.62V59.85A1.6,1.6,0,0,1,366,61.38h-1.19a1.87,1.87,0,0,1-1.44-.59L328.54,22.35h-.17V58.92a1.61,1.61,0,0,1-1.61,1.61H319a1.68,1.68,0,0,1-1.62-1.61Z"/><path class="cls-1" d="M390.27,11.21h-13a1.62,1.62,0,0,1-1.61-1.62v-7A1.62,1.62,0,0,1,377.26,1h37.17A1.62,1.62,0,0,1,416,2.62v7a1.62,1.62,0,0,1-1.61,1.62h-13V58.92a1.67,1.67,0,0,1-1.61,1.61h-7.91a1.68,1.68,0,0,1-1.62-1.61Z"/><path class="cls-1" d="M451.07.15a30.62,30.62,0,1,1,0,61.23,30.34,30.34,0,0,1-30.53-30.53A30.49,30.49,0,0,1,451.07.15Zm0,50.18A19.56,19.56,0,1,0,431.6,30.85,19.6,19.6,0,0,0,451.07,50.33Z"/></g></g></svg>