<svg xmlns="http://www.w3.org/2000/svg" viewBox="0 0 335.33 61.54"><defs><style>.cls-1{fill:none;stroke:#fff;stroke-miterlimit:8.95;stroke-width:0.31px;}</style></defs><g id="Layer_2" data-name="Layer 2"><g id="Layer_1-2" data-name="Layer 1"><path class="cls-1" d="M.15,2.62A1.62,1.62,0,0,1,1.77,1h20a19,19,0,0,1,19,18.8,19.13,19.13,0,0,1-19,19.13H11.21v20a1.68,1.68,0,0,1-1.62,1.61H1.77A1.62,1.62,0,0,1,.15,58.92ZM21.41,28.56c4.77,0,8.42-3.83,8.42-8.85a8.19,8.19,0,0,0-8.42-8.25H11.21v17.1Z"/><path class="cls-1" d="M48.79,2.62A1.62,1.62,0,0,1,50.41,1H74.73A18.43,18.43,0,0,1,93.27,19.29c0,7.82-5.19,14.2-12.59,17.18L92.33,58.06a1.61,1.61,0,0,1-1.45,2.47H82a1.45,1.45,0,0,1-1.37-.77L69.28,37.23H59.85V58.92a1.68,1.68,0,0,1-1.62,1.61H50.41a1.62,1.62,0,0,1-1.62-1.61Zm25,25.51a8.66,8.66,0,0,0,8.42-8.67,8.46,8.46,0,0,0-8.42-8.25H59.93V28.13Z"/><path class="cls-1" d="M103.47,2.62A1.62,1.62,0,0,1,105.08,1h34.61a1.62,1.62,0,0,1,1.62,1.62v7a1.62,1.62,0,0,1-1.62,1.62H114.52v14h21a1.66,1.66,0,0,1,1.62,1.61v7.06a1.61,1.61,0,0,1-1.62,1.61h-21V50.33h25.17a1.61,1.61,0,0,1,1.62,1.61v7a1.62,1.62,0,0,1-1.62,1.61H105.08a1.61,1.61,0,0,1-1.61-1.61Z"/><path class="cls-1" d="M178.21.15a28.81,28.81,0,0,1,20.58,7.91,1.58,1.58,0,0,1,.08,2.38l-5.18,5.36a1.37,1.37,0,0,1-2.13,0,20.09,20.09,0,0,0-13.1-5c-10.88,0-19,9.1-19,19.82s8.16,19.64,19.05,19.64a20.36,20.36,0,0,0,13-4.85,1.58,1.58,0,0,1,2.13,0L199,50.84a1.61,1.61,0,0,1-.09,2.29,29.18,29.18,0,0,1-20.66,8.25,30.62,30.62,0,1,1,0-61.23Z"/><path class="cls-1" d="M208.05,2.62A1.68,1.68,0,0,1,209.67,1h7.91a1.67,1.67,0,0,1,1.61,1.62v56.3a1.67,1.67,0,0,1-1.61,1.61h-7.91a1.68,1.68,0,0,1-1.62-1.61Z"/><path class="cls-1" d="M259.24.15a30.62,30.62,0,1,1,0,61.23,30.35,30.35,0,0,1-30.53-30.53A30.49,30.49,0,0,1,259.24.15Zm0,50.18a19.56,19.56,0,1,0-19.47-19.48A19.6,19.6,0,0,0,259.24,50.33Z"/><path class="cls-1" d="M296.91,54.75c-.85-.68-1.19-1.19-.43-2.55l3.07-5.27a2,2,0,0,1,2.89-.6c3.48,2.64,7.31,5.27,12.84,5.27,4.42,0,7.73-2.89,7.73-6.55,0-4.33-3.65-7.31-10.79-10.2-8-3.23-16-8.33-16-18.37,0-7.57,5.61-16.33,19.13-16.33a30,30,0,0,1,17,5.7,2.12,2.12,0,0,1,.51,2.81l-3.23,4.85c-.68,1-2,1.7-3,1-3.66-2.3-7.14-4.68-11.82-4.68-4.85,0-7.48,2.72-7.48,6,0,4,3.14,6.72,10,9.53,8.25,3.31,17.78,8.24,17.78,19.21,0,8.76-7.57,16.84-19.56,16.84C304.9,61.38,299.38,56.87,296.91,54.75Z"/></g></g></svg>