<svg xmlns="http://www.w3.org/2000/svg" viewBox="0 0 335.02 61.23"><defs><style>.cls-1{fill:#fff;}</style></defs><g id="Layer_2" data-name="Layer 2"><g id="Layer_1-2" data-name="Layer 1"><path class="cls-1" d="M0,2.47A1.62,1.62,0,0,1,1.62.85h20a19,19,0,0,1,19,18.79,19.13,19.13,0,0,1-19,19.14H11.06v20a1.68,1.68,0,0,1-1.62,1.62H1.62A1.62,1.62,0,0,1,0,58.76ZM21.26,28.4c4.76,0,8.42-3.82,8.42-8.84a8.19,8.19,0,0,0-8.42-8.25H11.06V28.4Z"/><path class="cls-1" d="M48.64,2.47A1.62,1.62,0,0,1,50.25.85H74.57A18.41,18.41,0,0,1,93.11,19.13c0,7.83-5.19,14.2-12.58,17.18l11.65,21.6a1.61,1.61,0,0,1-1.45,2.47H81.8a1.47,1.47,0,0,1-1.36-.77L69.13,37.08H59.69V58.76a1.67,1.67,0,0,1-1.61,1.62H50.25a1.62,1.62,0,0,1-1.61-1.62ZM73.64,28a8.66,8.66,0,0,0,8.42-8.68,8.47,8.47,0,0,0-8.42-8.25H59.78V28Z"/><path class="cls-1" d="M103.31,2.47A1.62,1.62,0,0,1,104.93.85h34.61a1.62,1.62,0,0,1,1.61,1.62v7a1.61,1.61,0,0,1-1.61,1.61H114.37V25h21A1.68,1.68,0,0,1,137,26.62v7.05a1.62,1.62,0,0,1-1.62,1.62h-21V50.17h25.17a1.62,1.62,0,0,1,1.61,1.62v7a1.62,1.62,0,0,1-1.61,1.62H104.93a1.62,1.62,0,0,1-1.62-1.62Z"/><path class="cls-1" d="M178.06,0a28.76,28.76,0,0,1,20.57,7.91,1.58,1.58,0,0,1,.09,2.38l-5.19,5.36a1.36,1.36,0,0,1-2.12,0,20.13,20.13,0,0,0-13.1-5c-10.88,0-19,9.1-19,19.81s8.16,19.65,19.05,19.65a20.44,20.44,0,0,0,13-4.85,1.55,1.55,0,0,1,2.12,0l5.27,5.44a1.62,1.62,0,0,1-.08,2.3,29.2,29.2,0,0,1-20.66,8.25,30.62,30.62,0,1,1,0-61.23Z"/><path class="cls-1" d="M207.9,2.47A1.67,1.67,0,0,1,209.51.85h7.91A1.68,1.68,0,0,1,219,2.47V58.76a1.68,1.68,0,0,1-1.62,1.62h-7.91a1.67,1.67,0,0,1-1.61-1.62Z"/><path class="cls-1" d="M259.09,0a30.62,30.62,0,0,1,0,61.23A30.34,30.34,0,0,1,228.56,30.7,30.49,30.49,0,0,1,259.09,0Zm0,50.17A19.56,19.56,0,1,0,239.62,30.7,19.6,19.6,0,0,0,259.09,50.17Z"/><path class="cls-1" d="M296.76,54.59c-.85-.68-1.19-1.19-.43-2.55l3.06-5.27a2,2,0,0,1,2.89-.6c3.49,2.64,7.32,5.28,12.84,5.28,4.43,0,7.74-2.89,7.74-6.55,0-4.34-3.65-7.31-10.8-10.21-8-3.23-16-8.33-16-18.36C296.08,8.76,301.69,0,315.21,0a29.92,29.92,0,0,1,17,5.7,2.1,2.1,0,0,1,.51,2.8l-3.23,4.85c-.69,1-2,1.7-3,1-3.66-2.29-7.14-4.68-11.82-4.68-4.85,0-7.49,2.73-7.49,6,0,4,3.15,6.71,10,9.52C325.5,28.49,335,33.42,335,44.39c0,8.76-7.57,16.84-19.56,16.84C304.75,61.23,299.22,56.72,296.76,54.59Z"/></g></g></svg>