<svg xmlns="http://www.w3.org/2000/svg" viewBox="0 0 348.6 61.54"><defs><style>.cls-1{fill:none;stroke:#fff;stroke-miterlimit:8.95;stroke-width:0.31px;}</style></defs><g id="Layer_2" data-name="Layer 2"><g id="Layer_1-2" data-name="Layer 1"><path class="cls-1" d="M1,54.75C.16,54.07-.18,53.56.58,52.2l3.06-5.27a2,2,0,0,1,2.89-.6C10,49,13.85,51.6,19.37,51.6c4.43,0,7.74-2.89,7.74-6.55,0-4.33-3.65-7.31-10.8-10.2-8-3.23-16-8.33-16-18.37C.33,8.91,5.94.15,19.46.15a30,30,0,0,1,17,5.7A2.12,2.12,0,0,1,37,8.66l-3.24,4.85c-.67,1-2,1.7-3,1C27.11,12.23,23.63,9.85,19,9.85c-4.85,0-7.48,2.72-7.48,6,0,4,3.14,6.72,10,9.53,8.25,3.31,17.77,8.24,17.77,19.21,0,8.76-7.57,16.84-19.56,16.84C9,61.38,3.47,56.87,1,54.75Z"/><path class="cls-1" d="M47.77,2.62A1.68,1.68,0,0,1,49.39,1h8.08a1.62,1.62,0,0,1,1.61,1.62V38.08c0,7.23,4.94,12.25,12.33,12.25s12.42-5,12.42-12.16V2.62A1.62,1.62,0,0,1,85.45,1h8.07a1.68,1.68,0,0,1,1.62,1.62V38.68c0,12.92-10.29,22.7-23.73,22.7S47.77,51.6,47.77,38.68Z"/><path class="cls-1" d="M107.55,2.62A1.62,1.62,0,0,1,109.17,1h24.32A18.43,18.43,0,0,1,152,19.29c0,7.82-5.19,14.2-12.59,17.18l11.65,21.59a1.61,1.61,0,0,1-1.45,2.47h-8.93a1.45,1.45,0,0,1-1.36-.77L128,37.23h-9.43V58.92A1.68,1.68,0,0,1,117,60.53h-7.82a1.62,1.62,0,0,1-1.62-1.61Zm25,25.51A8.66,8.66,0,0,0,141,19.46a8.46,8.46,0,0,0-8.42-8.25H118.69V28.13Z"/><path class="cls-1" d="M171.83,11.21h-13a1.62,1.62,0,0,1-1.61-1.62v-7A1.62,1.62,0,0,1,158.82,1H196a1.62,1.62,0,0,1,1.61,1.62v7A1.62,1.62,0,0,1,196,11.21H183V58.92a1.67,1.67,0,0,1-1.61,1.61h-7.91a1.68,1.68,0,0,1-1.62-1.61Z"/><path class="cls-1" d="M205.59,2.62A1.68,1.68,0,0,1,207.21,1h7.9a1.68,1.68,0,0,1,1.62,1.62v56.3a1.68,1.68,0,0,1-1.62,1.61h-7.9a1.68,1.68,0,0,1-1.62-1.61Z"/><path class="cls-1" d="M229.74,2.62A1.6,1.6,0,0,1,231.27,1h20.15a29.77,29.77,0,1,1,0,59.53H231.27a1.6,1.6,0,0,1-1.53-1.61ZM250.4,50.16c11.06,0,19.14-7.83,19.14-19.48s-8.08-19.39-19.14-19.39h-9.69V50.16Z"/><path class="cls-1" d="M317.83.15a30.62,30.62,0,1,1,0,61.23A30.35,30.35,0,0,1,287.3,30.85,30.49,30.49,0,0,1,317.83.15Zm0,50.18a19.56,19.56,0,1,0-19.47-19.48A19.6,19.6,0,0,0,317.83,50.33Z"/></g></g></svg>