<svg xmlns="http://www.w3.org/2000/svg" viewBox="0 0 469.97 61.23"><defs><style>.cls-1{fill:#fff;}</style></defs><g id="Layer_2" data-name="Layer 2"><g id="Layer_1-2" data-name="Layer 1"><path class="cls-1" d="M0,2.47A1.62,1.62,0,0,1,1.62.85H36.23a1.62,1.62,0,0,1,1.61,1.62v7a1.61,1.61,0,0,1-1.61,1.61H11.05V25h21a1.67,1.67,0,0,1,1.61,1.62v7.05a1.61,1.61,0,0,1-1.61,1.62h-21V50.17H36.23a1.62,1.62,0,0,1,1.61,1.62v7a1.62,1.62,0,0,1-1.61,1.62H1.62A1.62,1.62,0,0,1,0,58.76Z"/><path class="cls-1" d="M45.07,54.59c-.86-.68-1.19-1.19-.43-2.55l3.06-5.27a2,2,0,0,1,2.89-.6c3.49,2.64,7.32,5.28,12.84,5.28,4.43,0,7.74-2.89,7.74-6.55,0-4.34-3.65-7.31-10.8-10.21-8-3.23-16-8.33-16-18.36C44.39,8.76,50,0,63.52,0a29.92,29.92,0,0,1,17,5.7A2.1,2.1,0,0,1,81,8.5L77.8,13.35c-.68,1-2,1.7-3,1C71.17,12.08,67.69,9.69,63,9.69c-4.85,0-7.48,2.73-7.48,6,0,4,3.14,6.71,10,9.52,8.25,3.32,17.77,8.25,17.77,19.22,0,8.76-7.57,16.84-19.56,16.84C53.06,61.23,47.53,56.72,45.07,54.59Z"/><path class="cls-1" d="M102,11.05H89a1.61,1.61,0,0,1-1.62-1.61v-7A1.62,1.62,0,0,1,89,.85h37.16a1.62,1.62,0,0,1,1.61,1.62v7a1.61,1.61,0,0,1-1.61,1.61h-13V58.76a1.68,1.68,0,0,1-1.62,1.62h-7.91A1.67,1.67,0,0,1,102,58.76Z"/><path class="cls-1" d="M135.79,2.47A1.62,1.62,0,0,1,137.41.85h24.32a18.42,18.42,0,0,1,18.54,18.28c0,7.83-5.19,14.2-12.59,17.18l11.65,21.6a1.61,1.61,0,0,1-1.44,2.47H169a1.45,1.45,0,0,1-1.36-.77L156.29,37.08h-9.44V58.76a1.68,1.68,0,0,1-1.62,1.62h-7.82a1.62,1.62,0,0,1-1.62-1.62Zm25,25.51a8.66,8.66,0,0,0,8.42-8.68,8.47,8.47,0,0,0-8.42-8.25H146.93V28Z"/><path class="cls-1" d="M183.41,58.17,209.86.93A1.52,1.52,0,0,1,211.3,0h.85a1.45,1.45,0,0,1,1.45.93l26.19,57.24a1.5,1.5,0,0,1-1.45,2.21H231a2.45,2.45,0,0,1-2.47-1.71l-4.17-9.18H198.89l-4.17,9.18a2.56,2.56,0,0,1-2.47,1.71h-7.39A1.5,1.5,0,0,1,183.41,58.17Zm36.74-18.12-8.51-18.71h-.25l-8.34,18.71Z"/><path class="cls-1" d="M255.43,11.05h-13a1.61,1.61,0,0,1-1.61-1.61v-7A1.62,1.62,0,0,1,242.42.85h37.16a1.62,1.62,0,0,1,1.62,1.62v7a1.61,1.61,0,0,1-1.62,1.61h-13V58.76A1.67,1.67,0,0,1,265,60.38h-7.91a1.68,1.68,0,0,1-1.62-1.62Z"/><path class="cls-1" d="M289.19,2.47A1.62,1.62,0,0,1,290.8.85h34.62A1.62,1.62,0,0,1,327,2.47v7a1.61,1.61,0,0,1-1.61,1.61H300.24V25h21a1.67,1.67,0,0,1,1.61,1.62v7.05a1.61,1.61,0,0,1-1.61,1.62h-21V50.17h25.18A1.62,1.62,0,0,1,327,51.79v7a1.62,1.62,0,0,1-1.61,1.62H290.8a1.62,1.62,0,0,1-1.61-1.62Z"/><path class="cls-1" d="M363.76,0a32.14,32.14,0,0,1,20.75,7.91,1.65,1.65,0,0,1,.09,2.38l-5.28,5.53a1.45,1.45,0,0,1-2.21,0,19.22,19.22,0,0,0-12.84-4.94c-10.63,0-19,9.1-19,19.73a19.35,19.35,0,0,0,19.14,19.48A26.6,26.6,0,0,0,374.48,48V40.73h-6.81a1.54,1.54,0,0,1-1.61-1.53V32.48a1.56,1.56,0,0,1,1.61-1.61H384a1.59,1.59,0,0,1,1.53,1.61V54.25a1.63,1.63,0,0,1-.68,1.36,43,43,0,0,1-21.09,5.53,30.57,30.57,0,0,1,0-61.14Z"/><path class="cls-1" d="M396.33,2.47A1.67,1.67,0,0,1,397.94.85h7.91a1.68,1.68,0,0,1,1.62,1.62V58.76a1.68,1.68,0,0,1-1.62,1.62h-7.91a1.67,1.67,0,0,1-1.61-1.62Z"/><path class="cls-1" d="M413.42,58.17,439.86.93A1.53,1.53,0,0,1,441.31,0h.85a1.45,1.45,0,0,1,1.45.93L469.8,58.17a1.5,1.5,0,0,1-1.45,2.21H461a2.43,2.43,0,0,1-2.46-1.71l-4.17-9.18H428.89l-4.16,9.18a2.56,2.56,0,0,1-2.47,1.71h-7.4A1.5,1.5,0,0,1,413.42,58.17Zm36.73-18.12-8.5-18.71h-.26l-8.33,18.71Z"/></g></g></svg>