<?xml version="1.0" encoding="utf-8"?>
<!-- Generator: Adobe Illustrator 25.4.1, SVG Export Plug-In . SVG Version: 6.00 Build 0)  -->
<svg version="1.1" id="Capa_1" xmlns="http://www.w3.org/2000/svg" xmlns:xlink="http://www.w3.org/1999/xlink" x="0px" y="0px"
	 viewBox="0 0 522 59.5" style="enable-background:new 0 0 522 59.5;" xml:space="preserve">
<style type="text/css">
	.st0{opacity:0.2;}
	.st1{fill:#7AB2E1;}
</style>
<g class="st0">
	<path class="st1" d="M11.9,27.8h-9c-0.5,0-0.8-0.4-0.8-0.9V1.6c0-0.5,0.4-0.9,0.8-0.9h9c7.5,0,13.5,6,13.5,13.5
		C25.5,21.7,19.4,27.8,11.9,27.8z M2.9,1C2.6,1,2.4,1.3,2.4,1.6v25.3c0,0.3,0.2,0.6,0.5,0.6h9c7.3,0,13.2-5.9,13.2-13.2
		C25.2,7,19.2,1,11.9,1H2.9z M11.5,23.1H7V5.4h4.5c5.1,0,8.7,3.6,8.7,8.9C20.2,19.4,16.6,23.1,11.5,23.1z M7.3,22.8h4.2
		c5,0,8.4-3.5,8.4-8.6c0-5-3.5-8.6-8.4-8.6H7.3V22.8z"/>
	<path class="st1" d="M34.5,27.8H31c-0.5,0-0.9-0.4-0.9-0.9V1.6c0-0.5,0.4-0.9,0.9-0.9h3.5c0.5,0,0.9,0.4,0.9,0.9v25.3
		C35.4,27.3,35,27.8,34.5,27.8z M31,1c-0.3,0-0.6,0.3-0.6,0.6v25.3c0,0.3,0.3,0.6,0.6,0.6h3.5c0.3,0,0.6-0.3,0.6-0.6V1.6
		c0-0.3-0.3-0.6-0.6-0.6H31z"/>
	<path class="st1" d="M49,28.1c-5,0-7.5-2.2-8.5-3c-0.4-0.4-0.6-0.7-0.2-1.3l1.4-2.4c0.2-0.3,0.4-0.4,0.7-0.5c0.3-0.1,0.6,0,0.8,0.2
		c1.6,1.2,3.3,2.3,5.7,2.3c1.9,0,3.3-1.2,3.3-2.8c0-1.8-1.4-3.1-4.8-4.4c-3.1-1.3-7.3-3.5-7.3-8.4c0-3.6,2.7-7.5,8.7-7.5
		c4.1,0,7.1,2.2,7.7,2.6c0.2,0.1,0.3,0.3,0.4,0.6c0.1,0.3,0,0.6-0.1,0.8l-1.4,2.2c-0.2,0.3-0.4,0.5-0.7,0.6
		c-0.3,0.1-0.6,0.1-0.9-0.1l-0.3-0.2c-1.5-1-3-1.9-4.9-1.9c-2.2,0-3.2,1.3-3.2,2.5c0,1.7,1.3,2.9,4.4,4.1c4,1.6,8.1,3.9,8.1,8.8
		C58,24.2,54.8,28.1,49,28.1z M42.6,21.2c0,0-0.1,0-0.1,0c-0.1,0-0.3,0.1-0.5,0.4l-1.4,2.4c-0.3,0.5-0.2,0.7,0.2,1l0,0
		c0.9,0.8,3.4,2.9,8.3,2.9c5.6,0,8.6-3.8,8.6-7.4c0-4.7-4-6.9-7.9-8.5c-3.3-1.3-4.6-2.6-4.6-4.4c0-1.4,1.1-2.8,3.5-2.8
		c2,0,3.6,1,5.1,1.9l0.3,0.2c0.2,0.1,0.4,0.1,0.6,0c0.2-0.1,0.4-0.2,0.5-0.5l1.5-2.2c0.1-0.2,0.1-0.4,0.1-0.6c0-0.2-0.1-0.4-0.3-0.4
		c-0.6-0.4-3.6-2.5-7.6-2.5c-4.1,0-8.4,2.2-8.4,7.2c0,4.7,4,6.9,7.1,8.1c3.5,1.4,4.9,2.8,4.9,4.7c0,1.7-1.6,3.1-3.6,3.1
		c-2.5,0-4.2-1.1-5.9-2.4C42.9,21.3,42.7,21.2,42.6,21.2z"/>
	<path class="st1" d="M74.8,28.1c-7.7,0-13.9-6.2-13.9-13.9c0-7.7,6.2-13.9,13.9-13.9c3.7,0,6.6,1.1,9.3,3.6
		c0.2,0.2,0.3,0.4,0.3,0.6c0,0.2-0.1,0.5-0.3,0.6l-2.3,2.4c-0.1,0.2-0.3,0.3-0.5,0.3c-0.2,0-0.4-0.1-0.6-0.3
		c-1.6-1.4-3.7-2.2-5.8-2.2c-4.7,0-8.4,3.8-8.4,8.7c0,4.9,3.7,8.7,8.4,8.7c2.1,0,4-0.7,5.7-2.1c0.4-0.3,0.9-0.3,1.2,0l2.4,2.4
		c0.1,0.1,0.2,0.3,0.2,0.5c0,0.3-0.1,0.5-0.3,0.7C81.6,26.8,78.4,28.1,74.8,28.1z M74.8,0.7c-7.5,0-13.6,6.1-13.6,13.6
		c0,7.5,6.1,13.6,13.6,13.6c3.5,0,6.7-1.3,9.2-3.7c0.1-0.1,0.2-0.3,0.2-0.5c0-0.1,0-0.2-0.1-0.3l-2.4-2.5c-0.2-0.2-0.5-0.2-0.7,0
		c-1.8,1.5-3.8,2.2-5.9,2.2c-4.9,0-8.7-3.9-8.7-9c0-5.1,3.8-9,8.7-9c2.1,0,4.3,0.8,6,2.3c0.1,0.1,0.3,0.2,0.4,0.2
		c0.1,0,0.2-0.1,0.3-0.2L83.9,5c0.1-0.1,0.2-0.3,0.2-0.4c0-0.2-0.1-0.3-0.2-0.4C81.2,1.7,78.4,0.7,74.8,0.7z"/>
	<path class="st1" d="M100.3,28.1c-7.8,0-13.9-6.1-13.9-13.9c0-7.7,6.2-13.9,13.9-13.9c7.7,0,13.9,6.2,13.9,13.9
		C114.2,22.1,108.1,28.1,100.3,28.1z M100.3,0.7c-7.5,0-13.6,6.1-13.6,13.6c0,7.6,6,13.6,13.6,13.6c7.6,0,13.6-6,13.6-13.6
		C113.9,6.8,107.8,0.7,100.3,0.7z M100.3,23.2c-4.9,0-8.9-4-8.9-8.9c0-4.9,4-9,8.9-9c4.9,0,8.9,4,8.9,9
		C109.3,19.2,105.3,23.2,100.3,23.2z M100.3,5.6c-4.7,0-8.6,3.9-8.6,8.7c0,4.7,3.9,8.6,8.6,8.6c4.8,0,8.6-3.9,8.6-8.6
		C109,9.6,105,5.6,100.3,5.6z"/>
	<path class="st1" d="M129.3,28.1c-6.1,0-10.8-4.4-10.8-10.3V1.6c0-0.5,0.4-0.9,0.9-0.9h3.6c0.5,0,0.9,0.4,0.9,0.9v15.9
		c0,3.2,2.2,5.3,5.4,5.3c3.2,0,5.4-2.2,5.4-5.3v-16c0-0.5,0.4-0.9,0.9-0.9h3.6c0.5,0,0.9,0.4,0.9,0.9v16.2
		C140.1,23.7,135.5,28.1,129.3,28.1z M119.5,1c-0.3,0-0.6,0.3-0.6,0.6v16.2c0,5.7,4.5,10,10.5,10c6,0,10.5-4.3,10.5-10V1.6
		c0-0.3-0.3-0.6-0.6-0.6h-3.6c-0.3,0-0.6,0.3-0.6,0.6v16c0,3.3-2.4,5.6-5.7,5.6c-3.4,0-5.7-2.3-5.7-5.6V1.6c0-0.3-0.3-0.6-0.6-0.6
		H119.5z"/>
	<path class="st1" d="M168,28.1h-0.5c-0.3,0-0.5-0.1-0.8-0.3l-15.5-17.1v16.1c0,0.5-0.4,0.9-0.9,0.9h-3.5c-0.5,0-0.9-0.4-0.9-0.9
		V1.2c0-0.5,0.4-0.8,0.9-0.8h0.6c0.3,0,0.5,0.1,0.8,0.3l15.4,16.4V1.6c0-0.5,0.4-0.9,0.9-0.9h3.5c0.5,0,0.9,0.4,0.9,0.9v25.7
		C168.9,27.8,168.5,28.1,168,28.1z M151,10.3h0.3l0,0L167,27.6c0.2,0.2,0.3,0.2,0.5,0.2h0.5c0.3,0,0.6-0.3,0.6-0.5V1.6
		c0-0.3-0.3-0.6-0.6-0.6h-3.5c-0.3,0-0.6,0.3-0.6,0.6v15.9h-0.3L148,0.9c-0.2-0.2-0.3-0.2-0.5-0.2h-0.6c-0.3,0-0.6,0.2-0.6,0.5v25.7
		c0,0.3,0.3,0.6,0.6,0.6h3.5c0.3,0,0.6-0.3,0.6-0.6V10.3z"/>
	<path class="st1" d="M183.8,27.8h-3.5c-0.5,0-0.9-0.4-0.9-0.9V5.6h-5.7c-0.5,0-0.9-0.4-0.9-0.9V1.6c0-0.5,0.4-0.9,0.9-0.9h16.7
		c0.5,0,0.9,0.4,0.9,0.9v3.1c0,0.5-0.4,0.9-0.9,0.9h-5.7v21.3C184.7,27.3,184.3,27.8,183.8,27.8z M173.7,1c-0.3,0-0.6,0.3-0.6,0.6
		v3.1c0,0.3,0.3,0.6,0.6,0.6h6v21.6c0,0.3,0.3,0.6,0.6,0.6h3.5c0.3,0,0.6-0.3,0.6-0.6V5.3h6c0.3,0,0.6-0.3,0.6-0.6V1.6
		c0-0.3-0.3-0.6-0.6-0.6H173.7z"/>
	<path class="st1" d="M14.3,59.1c-7.8,0-13.9-6.1-13.9-13.9c0-7.7,6.2-13.9,13.9-13.9c7.7,0,13.9,6.2,13.9,13.9
		C28.2,53.1,22.1,59.1,14.3,59.1z M14.3,31.7c-7.5,0-13.6,6.1-13.6,13.6c0,7.6,6,13.5,13.6,13.5c7.6,0,13.6-6,13.6-13.5
		C27.9,37.8,21.8,31.7,14.3,31.7z M14.3,54.2c-4.9,0-8.9-4-8.9-8.9c0-4.9,4-9,8.9-9c4.9,0,8.9,4,8.9,9
		C23.3,50.2,19.3,54.2,14.3,54.2z M14.3,36.6c-4.7,0-8.6,3.9-8.6,8.7c0,4.7,3.9,8.6,8.6,8.6c4.8,0,8.6-3.9,8.6-8.6
		C23,40.6,19,36.6,14.3,36.6z"/>
	<path class="st1" d="M43.4,59.1c-6.1,0-10.8-4.4-10.8-10.3V32.6c0-0.5,0.4-0.9,0.9-0.9h3.6c0.5,0,0.9,0.4,0.9,0.9v15.9
		c0,3.2,2.2,5.3,5.4,5.3c3.2,0,5.4-2.2,5.4-5.3v-16c0-0.5,0.4-0.9,0.9-0.9h3.6c0.5,0,0.9,0.4,0.9,0.9v16.2
		C54.1,54.7,49.5,59.1,43.4,59.1z M33.5,32c-0.3,0-0.6,0.3-0.6,0.6v16.2c0,5.7,4.5,10,10.5,10c6,0,10.5-4.3,10.5-10V32.6
		c0-0.3-0.3-0.6-0.6-0.6h-3.6c-0.3,0-0.6,0.3-0.6,0.6v16c0,3.3-2.4,5.6-5.7,5.6c-3.4,0-5.7-2.3-5.7-5.6V32.6c0-0.3-0.3-0.6-0.6-0.6
		H33.5z"/>
	<path class="st1" d="M82.1,59.1h-0.5c-0.3,0-0.5-0.1-0.8-0.3L65.3,41.8v16.1c0,0.5-0.4,0.9-0.9,0.9h-3.5c-0.5,0-0.9-0.4-0.9-0.9
		V32.2c0-0.5,0.4-0.8,0.9-0.8h0.6c0.3,0,0.5,0.1,0.8,0.3l15.4,16.4V32.6c0-0.5,0.4-0.9,0.9-0.9h3.5c0.5,0,0.9,0.4,0.9,0.9v25.7
		C82.9,58.8,82.5,59.1,82.1,59.1z M65,41.3h0.3l0,0L81,58.6c0.2,0.2,0.3,0.2,0.5,0.2h0.5c0.3,0,0.6-0.2,0.6-0.5V32.6
		c0-0.3-0.3-0.6-0.6-0.6h-3.5c-0.3,0-0.6,0.3-0.6,0.6v15.9h-0.3l0,0L62.1,31.9c-0.2-0.2-0.3-0.2-0.5-0.2h-0.6
		c-0.3,0-0.6,0.2-0.6,0.5v25.7c0,0.3,0.3,0.6,0.6,0.6h3.5c0.3,0,0.6-0.3,0.6-0.6V41.3z"/>
	<path class="st1" d="M97.9,58.8h-3.5c-0.5,0-0.9-0.4-0.9-0.9V36.6h-5.7c-0.5,0-0.9-0.4-0.9-0.9v-3.1c0-0.5,0.4-0.9,0.9-0.9h16.7
		c0.5,0,0.9,0.4,0.9,0.9v3.1c0,0.5-0.4,0.9-0.9,0.9h-5.7v21.3C98.7,58.3,98.3,58.8,97.9,58.8z M87.7,32c-0.3,0-0.6,0.3-0.6,0.6v3.1
		c0,0.3,0.3,0.6,0.6,0.6h6v21.6c0,0.3,0.3,0.6,0.6,0.6h3.5c0.3,0,0.6-0.3,0.6-0.6V36.3h6c0.3,0,0.6-0.3,0.6-0.6v-3.1
		c0-0.3-0.3-0.6-0.6-0.6H87.7z"/>
	<path class="st1" d="M119.1,58.8h-9c-0.5,0-0.8-0.4-0.8-0.9V32.6c0-0.5,0.4-0.9,0.8-0.9h9c7.5,0,13.5,6,13.5,13.5
		C132.7,52.7,126.6,58.8,119.1,58.8z M110.1,32c-0.3,0-0.5,0.3-0.5,0.6v25.3c0,0.3,0.2,0.6,0.5,0.6h9c7.3,0,13.2-5.9,13.2-13.2
		c0-7.3-5.9-13.2-13.2-13.2H110.1z M118.7,54.1h-4.5V36.4h4.5c5.1,0,8.7,3.6,8.7,8.9C127.4,50.4,123.8,54.1,118.7,54.1z M114.5,53.8
		h4.2c5,0,8.4-3.5,8.4-8.6c0-5-3.5-8.6-8.4-8.6h-4.2V53.8z"/>
	<path class="st1" d="M141.7,58.8h-3.5c-0.5,0-0.9-0.4-0.9-0.9V32.6c0-0.5,0.4-0.9,0.9-0.9h3.5c0.5,0,0.9,0.4,0.9,0.9v25.3
		C142.6,58.3,142.2,58.8,141.7,58.8z M138.2,32c-0.3,0-0.6,0.3-0.6,0.6v25.3c0,0.3,0.3,0.6,0.6,0.6h3.5c0.3,0,0.6-0.3,0.6-0.6V32.6
		c0-0.3-0.3-0.6-0.6-0.6H138.2z"/>
	<path class="st1" d="M156.2,59.1c-5,0-7.5-2.2-8.5-3c-0.4-0.4-0.6-0.7-0.2-1.3l1.4-2.4c0.2-0.3,0.4-0.4,0.7-0.5
		c0.3-0.1,0.6,0,0.8,0.2c1.6,1.2,3.3,2.3,5.7,2.3c1.9,0,3.3-1.2,3.3-2.8c0-1.8-1.4-3.1-4.8-4.4c-3.1-1.3-7.3-3.5-7.3-8.4
		c0-3.6,2.7-7.5,8.7-7.5c4.1,0,7.1,2.2,7.7,2.6c0.2,0.1,0.3,0.3,0.4,0.6c0.1,0.3,0,0.6-0.1,0.8l-1.4,2.2c-0.2,0.3-0.4,0.5-0.7,0.6
		c-0.3,0.1-0.6,0.1-0.9-0.1l-0.3-0.2c-1.5-1-3-1.9-4.9-1.9c-2.2,0-3.2,1.3-3.2,2.5c0,1.7,1.3,2.9,4.4,4.1c4,1.6,8.1,3.9,8.1,8.8
		C165.1,55.2,162,59.1,156.2,59.1z M149.8,52.2c-0.1,0-0.1,0-0.1,0c-0.1,0-0.3,0.1-0.5,0.4l-1.4,2.4c-0.3,0.5-0.2,0.7,0.2,1l0,0
		c0.9,0.8,3.4,2.9,8.3,2.9c5.6,0,8.6-3.8,8.6-7.4c0-4.7-4-6.9-7.9-8.5c-3.3-1.3-4.6-2.6-4.6-4.4c0-1.4,1.1-2.8,3.5-2.8
		c2,0,3.6,1,5.1,1.9l0.3,0.2c0.2,0.1,0.4,0.1,0.6,0c0.2-0.1,0.4-0.2,0.5-0.5l1.5-2.2c0.1-0.2,0.1-0.4,0.1-0.6c0-0.2-0.1-0.4-0.3-0.4
		c-0.6-0.4-3.6-2.5-7.6-2.5c-4.1,0-8.4,2.2-8.4,7.2c0,4.7,4,6.9,7.1,8.1c3.5,1.4,4.9,2.8,4.9,4.7c0,1.7-1.6,3.1-3.6,3.1
		c-2.5,0-4.2-1.1-5.9-2.4C150.1,52.3,149.9,52.2,149.8,52.2z"/>
	<path class="st1" d="M181.9,59.1c-7.7,0-13.9-6.2-13.9-13.9c0-7.7,6.2-13.9,13.9-13.9c3.7,0,6.6,1.1,9.3,3.6
		c0.2,0.2,0.3,0.4,0.3,0.6c0,0.2-0.1,0.5-0.3,0.6l-2.3,2.4c-0.1,0.2-0.3,0.3-0.5,0.3c-0.2,0-0.4-0.1-0.6-0.3
		c-1.6-1.4-3.7-2.2-5.8-2.2c-4.7,0-8.4,3.8-8.4,8.7c0,4.9,3.7,8.7,8.4,8.7c2.1,0,4-0.7,5.7-2.1c0.4-0.3,0.9-0.3,1.2,0l2.4,2.4
		c0.1,0.1,0.2,0.3,0.2,0.5c0,0.3-0.1,0.5-0.3,0.7C188.8,57.8,185.5,59.1,181.9,59.1z M181.9,31.7c-7.5,0-13.6,6.1-13.6,13.6
		c0,7.5,6.1,13.5,13.6,13.5c3.5,0,6.7-1.3,9.2-3.7c0.1-0.1,0.2-0.3,0.2-0.5c0-0.1,0-0.2-0.1-0.3l-2.4-2.5c-0.2-0.2-0.5-0.2-0.7,0
		c-1.8,1.5-3.8,2.2-5.9,2.2c-4.9,0-8.7-3.9-8.7-9c0-5.1,3.8-9,8.7-9c2.1,0,4.3,0.8,6,2.3c0.1,0.1,0.3,0.2,0.4,0.2
		c0.1,0,0.2-0.1,0.3-0.2l2.3-2.4c0.1-0.1,0.2-0.3,0.2-0.4c0-0.2-0.1-0.3-0.2-0.4C188.4,32.7,185.5,31.7,181.9,31.7z"/>
	<path class="st1" d="M207.5,59.1c-7.8,0-13.9-6.1-13.9-13.9c0-7.7,6.2-13.9,13.9-13.9c7.7,0,13.9,6.2,13.9,13.9
		C221.4,53.1,215.3,59.1,207.5,59.1z M207.5,31.7c-7.5,0-13.6,6.1-13.6,13.6c0,7.6,6,13.5,13.6,13.5c7.6,0,13.6-6,13.6-13.5
		C221.1,37.8,215,31.7,207.5,31.7z M207.5,54.2c-4.9,0-8.9-4-8.9-8.9c0-4.9,4-9,8.9-9c4.9,0,8.9,4,8.9,9
		C216.4,50.2,212.4,54.2,207.5,54.2z M207.5,36.6c-4.7,0-8.6,3.9-8.6,8.7c0,4.7,3.9,8.6,8.6,8.6c4.8,0,8.6-3.9,8.6-8.6
		C216.1,40.6,212.2,36.6,207.5,36.6z"/>
	<path class="st1" d="M236.5,59.1c-6.1,0-10.8-4.4-10.8-10.3V32.6c0-0.5,0.4-0.9,0.9-0.9h3.6c0.5,0,0.9,0.4,0.9,0.9v15.9
		c0,3.2,2.2,5.3,5.4,5.3c3.2,0,5.4-2.2,5.4-5.3v-16c0-0.5,0.4-0.9,0.9-0.9h3.6c0.5,0,0.9,0.4,0.9,0.9v16.2
		C247.3,54.7,242.7,59.1,236.5,59.1z M226.6,32c-0.3,0-0.6,0.3-0.6,0.6v16.2c0,5.7,4.5,10,10.5,10c6,0,10.5-4.3,10.5-10V32.6
		c0-0.3-0.3-0.6-0.6-0.6h-3.6c-0.3,0-0.6,0.3-0.6,0.6v16c0,3.3-2.4,5.6-5.7,5.6c-3.4,0-5.7-2.3-5.7-5.6V32.6c0-0.3-0.3-0.6-0.6-0.6
		H226.6z"/>
	<path class="st1" d="M275.2,59.1h-0.5c-0.3,0-0.5-0.1-0.8-0.3l-15.5-17.1v16.1c0,0.5-0.4,0.9-0.9,0.9h-3.5c-0.5,0-0.9-0.4-0.9-0.9
		V32.2c0-0.5,0.4-0.8,0.9-0.8h0.6c0.3,0,0.5,0.1,0.8,0.3l15.4,16.4V32.6c0-0.5,0.4-0.9,0.9-0.9h3.5c0.5,0,0.9,0.4,0.9,0.9v25.7
		C276.1,58.8,275.7,59.1,275.2,59.1z M258.1,41.3h0.3l0,0l15.6,17.2c0.2,0.2,0.3,0.2,0.5,0.2h0.5c0.3,0,0.6-0.2,0.6-0.5V32.6
		c0-0.3-0.3-0.6-0.6-0.6h-3.5c-0.3,0-0.6,0.3-0.6,0.6v15.9h-0.3l0,0l-15.6-16.6c-0.2-0.2-0.3-0.2-0.5-0.2h-0.6
		c-0.3,0-0.6,0.2-0.6,0.5v25.7c0,0.3,0.3,0.6,0.6,0.6h3.5c0.3,0,0.6-0.3,0.6-0.6V41.3z"/>
	<path class="st1" d="M291,58.8h-3.5c-0.5,0-0.9-0.4-0.9-0.9V36.6h-5.7c-0.5,0-0.9-0.4-0.9-0.9v-3.1c0-0.5,0.4-0.9,0.9-0.9h16.7
		c0.5,0,0.9,0.4,0.9,0.9v3.1c0,0.5-0.4,0.9-0.9,0.9h-5.7v21.3C291.9,58.3,291.5,58.8,291,58.8z M280.9,32c-0.3,0-0.6,0.3-0.6,0.6
		v3.1c0,0.3,0.3,0.6,0.6,0.6h6v21.6c0,0.3,0.3,0.6,0.6,0.6h3.5c0.3,0,0.6-0.3,0.6-0.6V36.3h6c0.3,0,0.6-0.3,0.6-0.6v-3.1
		c0-0.3-0.3-0.6-0.6-0.6H280.9z"/>
	<path class="st1" d="M312.3,58.8h-9c-0.5,0-0.8-0.4-0.8-0.9V32.6c0-0.5,0.4-0.9,0.8-0.9h9c7.5,0,13.5,6,13.5,13.5
		C325.8,52.7,319.7,58.8,312.3,58.8z M303.2,32c-0.3,0-0.5,0.3-0.5,0.6v25.3c0,0.3,0.2,0.6,0.5,0.6h9c7.3,0,13.2-5.9,13.2-13.2
		c0-7.3-5.9-13.2-13.2-13.2H303.2z M311.8,54.1h-4.5V36.4h4.5c5.1,0,8.7,3.6,8.7,8.9C320.5,50.4,316.9,54.1,311.8,54.1z M307.6,53.8
		h4.2c5,0,8.4-3.5,8.4-8.6c0-5-3.5-8.6-8.4-8.6h-4.2V53.8z"/>
	<path class="st1" d="M334.9,58.8h-3.5c-0.5,0-0.9-0.4-0.9-0.9V32.6c0-0.5,0.4-0.9,0.9-0.9h3.5c0.5,0,0.9,0.4,0.9,0.9v25.3
		C335.7,58.3,335.3,58.8,334.9,58.8z M331.3,32c-0.3,0-0.6,0.3-0.6,0.6v25.3c0,0.3,0.3,0.6,0.6,0.6h3.5c0.3,0,0.6-0.3,0.6-0.6V32.6
		c0-0.3-0.3-0.6-0.6-0.6H331.3z"/>
	<path class="st1" d="M349.4,59.1c-5,0-7.5-2.2-8.5-3c-0.4-0.4-0.6-0.7-0.2-1.3l1.4-2.4c0.2-0.3,0.4-0.4,0.7-0.5
		c0.3-0.1,0.6,0,0.8,0.2c1.6,1.2,3.3,2.3,5.7,2.3c1.9,0,3.3-1.2,3.3-2.8c0-1.8-1.4-3.1-4.8-4.4c-3.1-1.3-7.3-3.5-7.3-8.4
		c0-3.6,2.7-7.5,8.7-7.5c4.1,0,7.1,2.2,7.7,2.6c0.2,0.1,0.3,0.3,0.4,0.6c0.1,0.3,0,0.6-0.1,0.8l-1.4,2.2c-0.2,0.3-0.5,0.6-0.9,0.6
		c-0.2,0-0.5,0-0.7-0.1l-0.3-0.2c-1.5-1-3-1.9-4.9-1.9c-2.2,0-3.2,1.3-3.2,2.5c0,1.7,1.3,2.9,4.4,4.1c4,1.6,8.1,3.9,8.1,8.8
		C358.3,55.2,355.2,59.1,349.4,59.1z M342.9,52.2c0,0-0.1,0-0.1,0c-0.1,0-0.3,0.1-0.5,0.4l-1.4,2.4c-0.3,0.5-0.2,0.7,0.2,1l0,0
		c0.9,0.8,3.4,2.9,8.3,2.9c5.6,0,8.6-3.8,8.6-7.4c0-4.7-4-6.9-7.9-8.5c-3.3-1.3-4.6-2.6-4.6-4.4c0-1.4,1.1-2.8,3.5-2.8
		c2,0,3.5,0.9,5.1,1.9l0.3,0.2c0.1,0.1,0.3,0.1,0.5,0.1c0.2,0,0.5-0.2,0.7-0.5l1.5-2.2c0.1-0.2,0.1-0.4,0.1-0.6
		c0-0.2-0.1-0.4-0.3-0.4c-0.6-0.4-3.6-2.5-7.6-2.5c-4.1,0-8.4,2.2-8.4,7.2c0,4.7,4,6.9,7.1,8.1c3.5,1.4,4.9,2.8,4.9,4.7
		c0,1.7-1.6,3.1-3.6,3.1c-2.5,0-4.2-1.1-5.9-2.4C343.2,52.3,343.1,52.2,342.9,52.2z"/>
	<path class="st1" d="M375.1,59.1c-7.7,0-13.9-6.2-13.9-13.9c0-7.7,6.2-13.9,13.9-13.9c3.7,0,6.6,1.1,9.3,3.6
		c0.2,0.2,0.3,0.4,0.3,0.6c0,0.2-0.1,0.5-0.3,0.6l-2.3,2.4c-0.1,0.2-0.3,0.3-0.5,0.3c0,0,0,0,0,0c-0.2,0-0.4-0.1-0.6-0.3
		c-1.6-1.4-3.7-2.2-5.8-2.2c-4.7,0-8.4,3.8-8.4,8.7c0,4.9,3.7,8.7,8.4,8.7c2.1,0,4-0.7,5.7-2.1c0.4-0.3,0.9-0.3,1.2,0l2.4,2.4
		c0.1,0.1,0.2,0.3,0.2,0.5c0,0.3-0.1,0.5-0.3,0.7C381.9,57.8,378.7,59.1,375.1,59.1z M375.1,31.7c-7.5,0-13.6,6.1-13.6,13.6
		c0,7.5,6.1,13.5,13.6,13.5c3.5,0,6.7-1.3,9.2-3.7c0.1-0.1,0.2-0.3,0.2-0.5c0-0.1,0-0.2-0.1-0.3l-2.4-2.5c-0.2-0.2-0.5-0.2-0.7,0
		c-1.8,1.5-3.8,2.2-5.9,2.2c-4.9,0-8.7-3.9-8.7-9c0-5.1,3.8-9,8.7-9c2.1,0,4.3,0.8,6,2.3c0.1,0.1,0.3,0.2,0.4,0.2c0,0,0,0,0,0
		c0.1,0,0.2-0.1,0.3-0.2l2.3-2.4c0.1-0.1,0.2-0.3,0.2-0.4c0-0.2-0.1-0.3-0.2-0.4C381.5,32.7,378.7,31.7,375.1,31.7z"/>
	<path class="st1" d="M400.7,59.1c-7.8,0-13.9-6.1-13.9-13.9c0-7.7,6.2-13.9,13.9-13.9c7.7,0,13.9,6.2,13.9,13.9
		C414.5,53.1,408.4,59.1,400.7,59.1z M400.7,31.7c-7.5,0-13.5,6.1-13.5,13.6c0,7.6,6,13.5,13.5,13.5c7.6,0,13.6-6,13.6-13.5
		C414.2,37.8,408.1,31.7,400.7,31.7z M400.7,54.2c-4.9,0-8.9-4-8.9-8.9c0-4.9,4-9,8.9-9c4.9,0,8.9,4,8.9,9
		C409.6,50.2,405.6,54.2,400.7,54.2z M400.7,36.6c-4.7,0-8.6,3.9-8.6,8.7c0,4.7,3.9,8.6,8.6,8.6c4.8,0,8.6-3.9,8.6-8.6
		C409.3,40.6,405.3,36.6,400.7,36.6z"/>
	<path class="st1" d="M429.7,59.1c-6.1,0-10.8-4.4-10.8-10.3V32.6c0-0.5,0.4-0.9,0.9-0.9h3.6c0.5,0,0.9,0.4,0.9,0.9v15.9
		c0,3.2,2.2,5.3,5.4,5.3c3.2,0,5.4-2.2,5.4-5.3v-16c0-0.5,0.4-0.9,0.9-0.9h3.6c0.5,0,0.9,0.4,0.9,0.9v16.2
		C440.5,54.7,435.8,59.1,429.7,59.1z M419.8,32c-0.3,0-0.6,0.3-0.6,0.6v16.2c0,5.7,4.5,10,10.5,10c6,0,10.5-4.3,10.5-10V32.6
		c0-0.3-0.3-0.6-0.6-0.6H436c-0.3,0-0.6,0.3-0.6,0.6v16c0,3.3-2.4,5.6-5.7,5.6c-3.4,0-5.7-2.3-5.7-5.6V32.6c0-0.3-0.3-0.6-0.6-0.6
		H419.8z"/>
	<path class="st1" d="M468.4,59.1h-0.5c-0.3,0-0.5-0.1-0.8-0.3l-15.5-17v16.1c0,0.5-0.4,0.9-0.9,0.9h-3.5c-0.5,0-0.9-0.4-0.9-0.9
		V32.2c0-0.5,0.4-0.8,0.9-0.8h0.6c0.3,0,0.5,0.1,0.8,0.3L464,48.1V32.6c0-0.5,0.4-0.9,0.9-0.9h3.5c0.5,0,0.9,0.4,0.9,0.9v25.7
		C469.2,58.8,468.8,59.1,468.4,59.1z M451.3,41.3h0.3l0,0l15.6,17.2c0.2,0.2,0.3,0.2,0.5,0.2h0.5c0.3,0,0.6-0.2,0.6-0.5V32.6
		c0-0.3-0.3-0.6-0.6-0.6h-3.5c-0.3,0-0.6,0.3-0.6,0.6v15.9H464l0,0l-15.6-16.6c-0.2-0.2-0.3-0.2-0.5-0.2h-0.6
		c-0.3,0-0.6,0.2-0.6,0.5v25.7c0,0.3,0.3,0.6,0.6,0.6h3.5c0.3,0,0.6-0.3,0.6-0.6V41.3z"/>
	<path class="st1" d="M484.2,58.8h-3.5c-0.5,0-0.9-0.4-0.9-0.9V36.6H474c-0.5,0-0.9-0.4-0.9-0.9v-3.1c0-0.5,0.4-0.9,0.9-0.9h16.7
		c0.5,0,0.9,0.4,0.9,0.9v3.1c0,0.5-0.4,0.9-0.9,0.9H485v21.3C485,58.3,484.6,58.8,484.2,58.8z M474,32c-0.3,0-0.6,0.3-0.6,0.6v3.1
		c0,0.3,0.3,0.6,0.6,0.6h6v21.6c0,0.3,0.3,0.6,0.6,0.6h3.5c0.3,0,0.6-0.3,0.6-0.6V36.3h6c0.3,0,0.6-0.3,0.6-0.6v-3.1
		c0-0.3-0.3-0.6-0.6-0.6H474z"/>
	<path class="st1" d="M505.4,58.8h-9c-0.5,0-0.8-0.4-0.8-0.9V32.6c0-0.5,0.4-0.9,0.8-0.9h9c7.5,0,13.5,6,13.5,13.5
		C519,52.7,512.9,58.8,505.4,58.8z M496.4,32c-0.3,0-0.5,0.3-0.5,0.6v25.3c0,0.3,0.2,0.6,0.5,0.6h9c7.3,0,13.2-5.9,13.2-13.2
		c0-7.3-5.9-13.2-13.2-13.2H496.4z M505,54.1h-4.5V36.4h4.5c5.1,0,8.7,3.6,8.7,8.9C513.7,50.4,510.1,54.1,505,54.1z M500.8,53.8h4.2
		c5,0,8.4-3.5,8.4-8.6c0-5-3.5-8.6-8.4-8.6h-4.2V53.8z"/>
</g>
</svg>
