<?xml version="1.0" encoding="utf-8"?>
<!-- Generator: Adobe Illustrator 25.4.1, SVG Export Plug-In . SVG Version: 6.00 Build 0)  -->
<svg version="1.1" id="Capa_1" xmlns="http://www.w3.org/2000/svg" xmlns:xlink="http://www.w3.org/1999/xlink" x="0px" y="0px"
	 viewBox="0 0 515 58.2" style="enable-background:new 0 0 515 58.2;" xml:space="preserve">
<style type="text/css">
	.st0{opacity:0.2;}
	.st1{fill:#7AB2E1;}
</style>
<g class="st0">
	<path class="st1" d="M17.3,27H2.1c-0.5,0-0.9-0.4-0.9-0.9V1.4c0-0.5,0.4-0.9,0.9-0.9h15.3c0.5,0,0.9,0.4,0.9,0.9v3.1
		c0,0.5-0.4,0.9-0.9,0.9H6.4v5.8h9.1c0.5,0,0.9,0.4,0.9,0.9v3.1c0,0.5-0.4,0.9-0.9,0.9H6.4v6.3h10.9c0.5,0,0.9,0.4,0.9,0.9v3.1
		C18.2,26.7,17.8,27,17.3,27z M2.1,0.8c-0.3,0-0.6,0.3-0.6,0.6v24.8c0,0.3,0.3,0.6,0.6,0.6h15.3c0.3,0,0.6-0.3,0.6-0.6v-3.1
		c0-0.3-0.3-0.6-0.6-0.6H6.1v-6.9h9.4c0.3,0,0.6-0.3,0.6-0.6V12c0-0.3-0.3-0.6-0.6-0.6H6.1V5h11.2c0.3,0,0.6-0.3,0.6-0.6V1.4
		c0-0.3-0.3-0.6-0.6-0.6H2.1z"/>
	<path class="st1" d="M34.6,27.4c-7.5,0-13.7-6.1-13.7-13.6c0-7.5,6.1-13.7,13.7-13.7c3.6,0,6.5,1.1,9.2,3.5C43.9,3.8,44,4,44,4.3
		c0,0.2-0.1,0.5-0.3,0.6l-2.3,2.4c-0.1,0.2-0.3,0.3-0.5,0.3c-0.2,0-0.4-0.1-0.6-0.3c-1.6-1.4-3.6-2.2-5.7-2.2
		c-4.6,0-8.2,3.8-8.2,8.6c0,4.8,3.6,8.5,8.2,8.5c2,0,3.9-0.7,5.6-2.1c0.4-0.3,0.9-0.3,1.1,0l2.3,2.4c0.1,0.1,0.2,0.3,0.2,0.5
		c0,0.3-0.1,0.5-0.3,0.7C41.3,26.1,38.1,27.4,34.6,27.4z M34.6,0.4c-7.4,0-13.4,6-13.4,13.4c0,7.3,6,13.3,13.4,13.3
		c3.5,0,6.6-1.2,9-3.6c0.1-0.1,0.2-0.3,0.2-0.5c0-0.1,0-0.2-0.1-0.3l-2.3-2.4c-0.2-0.2-0.5-0.2-0.7,0c-1.8,1.4-3.7,2.2-5.8,2.2
		c-4.8,0-8.5-3.9-8.5-8.8c0-5,3.7-8.9,8.5-8.9c2.1,0,4.2,0.8,5.9,2.2c0.1,0.1,0.3,0.2,0.4,0.2c0.1,0,0.2-0.1,0.3-0.2l2.3-2.4
		c0.1-0.1,0.2-0.3,0.2-0.4c0-0.2-0.1-0.3-0.2-0.4C40.9,1.5,38.1,0.4,34.6,0.4z"/>
	<path class="st1" d="M59.7,27.4c-7.6,0-13.6-6-13.6-13.6c0-7.5,6.1-13.7,13.6-13.7c7.5,0,13.6,6.1,13.6,13.7
		C73.3,21.4,67.3,27.4,59.7,27.4z M59.7,0.4c-7.3,0-13.3,6-13.3,13.4c0,7.5,5.8,13.3,13.3,13.3c7.5,0,13.3-5.8,13.3-13.3
		C73,6.4,67,0.4,59.7,0.4z M59.7,22.5c-4.8,0-8.7-3.9-8.7-8.7C50.9,9,54.9,5,59.7,5c4.8,0,8.8,4,8.8,8.8
		C68.4,18.6,64.5,22.5,59.7,22.5z M59.7,5.3c-4.7,0-8.4,3.8-8.4,8.5c0,4.7,3.8,8.4,8.4,8.4c4.7,0,8.5-3.8,8.5-8.4
		C68.1,9.2,64.3,5.3,59.7,5.3z"/>
	<path class="st1" d="M85.2,27.4c-4.9,0-7.4-2.1-8.3-3c-0.4-0.3-0.6-0.7-0.2-1.3l1.4-2.3c0.1-0.3,0.4-0.4,0.7-0.5
		c0.3-0.1,0.6,0,0.8,0.2c1.6,1.2,3.2,2.3,5.6,2.3c1.8,0,3.3-1.2,3.3-2.7c0-1.7-1.4-3-4.7-4.4c-3.1-1.2-7.1-3.4-7.1-8.2
		c0-3.5,2.7-7.3,8.6-7.3c4,0,7,2.1,7.6,2.5C92.8,2.8,93,3,93.1,3.3c0.1,0.3,0,0.6-0.1,0.8l-1.4,2.1c-0.3,0.5-1,0.8-1.5,0.5l-0.3-0.2
		c-1.5-1-3-1.9-4.9-1.9c-2.2,0-3.1,1.2-3.1,2.5c0,1.6,1.3,2.8,4.3,4.1c3.9,1.6,7.9,3.8,7.9,8.6C93.9,23.5,90.9,27.4,85.2,27.4z
		 M78.8,20.6c0,0-0.1,0-0.1,0c-0.1,0-0.3,0.1-0.5,0.3l-1.4,2.3c-0.3,0.5-0.2,0.7,0.2,0.9l0,0c0.9,0.8,3.3,2.9,8.1,2.9
		c5.5,0,8.5-3.7,8.5-7.3c0-4.6-3.9-6.8-7.7-8.3c-3.2-1.3-4.5-2.6-4.5-4.3c0-1.4,1.1-2.8,3.4-2.8c2,0,3.5,1,5,1.9l0.3,0.2
		c0.4,0.3,0.9,0,1.1-0.4l1.4-2.1c0.1-0.2,0.1-0.4,0.1-0.6c0-0.2-0.1-0.4-0.3-0.4c-0.6-0.4-3.5-2.5-7.4-2.5c-4,0-8.3,2.2-8.3,7
		c0,4.6,4,6.8,7,8c3.4,1.4,4.9,2.8,4.9,4.6c0,1.7-1.6,3-3.6,3c-2.4,0-4.1-1.1-5.8-2.4C79.2,20.7,79,20.6,78.8,20.6z"/>
	<path class="st1" d="M107.8,27h-3.4c-0.5,0-0.9-0.4-0.9-0.9V14.3L95,1.8c-0.2-0.3-0.2-0.6,0-0.9c0.1-0.3,0.4-0.4,0.8-0.4h3.8
		c0.3,0,0.5,0.1,0.7,0.4l5.9,8.5l5.9-8.4c0.2-0.3,0.4-0.4,0.7-0.4h3.9c0.3,0,0.6,0.2,0.8,0.4c0.2,0.3,0.1,0.6,0,0.9l-8.6,12.5v11.9
		C108.7,26.6,108.3,27,107.8,27z M95.7,0.8c-0.2,0-0.4,0.1-0.5,0.3c-0.1,0.2-0.1,0.4,0,0.6l8.6,12.6v12c0,0.3,0.3,0.6,0.6,0.6h3.4
		c0.3,0,0.6-0.3,0.6-0.6v-12l0,0l8.7-12.5c0.1-0.2,0.1-0.4,0-0.6c-0.1-0.2-0.3-0.3-0.5-0.3h-3.9c-0.2,0-0.3,0.1-0.5,0.3l-6.1,8.8
		L100,1.1c-0.1-0.2-0.3-0.3-0.5-0.3H95.7z"/>
	<path class="st1" d="M127.3,27.4c-4.9,0-7.4-2.1-8.3-3c-0.4-0.3-0.6-0.7-0.2-1.3l1.4-2.3c0.1-0.3,0.4-0.4,0.7-0.5
		c0.3-0.1,0.6,0,0.8,0.2c1.6,1.2,3.2,2.3,5.6,2.3c1.8,0,3.3-1.2,3.3-2.7c0-1.7-1.4-3-4.7-4.4c-3.1-1.2-7.1-3.4-7.1-8.2
		c0-3.5,2.7-7.3,8.6-7.3c4,0,7,2.1,7.6,2.5c0.2,0.1,0.3,0.3,0.4,0.6c0.1,0.3,0,0.6-0.1,0.8l-1.4,2.1c-0.3,0.5-1,0.8-1.5,0.5
		l-0.3-0.2c-1.5-1-3-1.9-4.9-1.9c-2.2,0-3.1,1.2-3.1,2.5c0,1.6,1.3,2.8,4.3,4.1c3.9,1.6,7.9,3.8,7.9,8.6
		C136.1,23.5,133,27.4,127.3,27.4z M120.9,20.6c0,0-0.1,0-0.1,0c-0.1,0-0.3,0.1-0.5,0.3l-1.4,2.3c-0.3,0.5-0.2,0.7,0.2,0.9l0,0
		c0.9,0.8,3.3,2.9,8.1,2.9c5.5,0,8.5-3.7,8.5-7.3c0-4.6-3.9-6.8-7.7-8.3c-3.2-1.3-4.5-2.6-4.5-4.3c0-1.4,1.1-2.8,3.4-2.8
		c2,0,3.5,1,5,1.9l0.3,0.2c0.4,0.3,0.9,0,1.1-0.4l1.4-2.1c0.1-0.2,0.1-0.4,0.1-0.6c0-0.2-0.1-0.4-0.3-0.4c-0.6-0.4-3.5-2.5-7.4-2.5
		c-4,0-8.3,2.2-8.3,7c0,4.6,4,6.8,7,8c3.4,1.4,4.9,2.8,4.9,4.6c0,1.7-1.6,3-3.6,3c-2.4,0-4.1-1.1-5.8-2.4
		C121.3,20.7,121.1,20.6,120.9,20.6z"/>
	<path class="st1" d="M149,27h-3.5c-0.5,0-0.9-0.4-0.9-0.9V5.3h-5.6c-0.5,0-0.9-0.4-0.9-0.9V1.4c0-0.5,0.4-0.9,0.9-0.9h16.4
		c0.5,0,0.9,0.4,0.9,0.9v3.1c0,0.5-0.4,0.9-0.9,0.9h-5.6v20.9C149.9,26.6,149.5,27,149,27z M139.1,0.8c-0.3,0-0.6,0.3-0.6,0.6v3.1
		c0,0.3,0.3,0.6,0.6,0.6h5.9v21.2c0,0.3,0.3,0.6,0.6,0.6h3.5c0.3,0,0.6-0.3,0.6-0.6V5h5.9c0.3,0,0.6-0.3,0.6-0.6V1.4
		c0-0.3-0.3-0.6-0.6-0.6H139.1z"/>
	<path class="st1" d="M176.3,27H161c-0.5,0-0.9-0.4-0.9-0.9V1.4c0-0.5,0.4-0.9,0.9-0.9h15.3c0.5,0,0.9,0.4,0.9,0.9v3.1
		c0,0.5-0.4,0.9-0.9,0.9h-10.9v5.8h9.1c0.5,0,0.9,0.4,0.9,0.9v3.1c0,0.5-0.4,0.9-0.9,0.9h-9.1v6.3h10.9c0.5,0,0.9,0.4,0.9,0.9v3.1
		C177.2,26.7,176.8,27,176.3,27z M161,0.8c-0.3,0-0.6,0.3-0.6,0.6v24.8c0,0.3,0.3,0.6,0.6,0.6h15.3c0.3,0,0.6-0.3,0.6-0.6v-3.1
		c0-0.3-0.3-0.6-0.6-0.6H165v-6.9h9.4c0.3,0,0.6-0.3,0.6-0.6V12c0-0.3-0.3-0.6-0.6-0.6H165V5h11.2c0.3,0,0.6-0.3,0.6-0.6V1.4
		c0-0.3-0.3-0.6-0.6-0.6H161z"/>
	<path class="st1" d="M195.5,27.4h-0.7c-0.3,0-0.6-0.2-0.8-0.5l-6.5-14.5l-2.1,13.9c0,0.3-0.4,0.7-0.8,0.7h-3.4
		c-0.3,0-0.5-0.1-0.7-0.3c-0.2-0.2-0.2-0.5-0.2-0.8l4.5-25.2c0-0.3,0.3-0.7,0.8-0.7h0.6c0.3,0,0.6,0.2,0.8,0.5l8.2,17.5l8.2-17.5
		c0.2-0.3,0.4-0.5,0.8-0.5h0.6c0.5,0,0.8,0.3,0.8,0.7L210,26c0.1,0.3,0,0.6-0.1,0.7c-0.2,0.2-0.4,0.3-0.7,0.3h-3.4
		c-0.4,0-0.8-0.3-0.9-0.7l-2.2-13.9l-6.4,14.5C196.2,27.2,195.9,27.4,195.5,27.4z M187.3,12h0.3l0,0.1l6.6,14.7
		c0.1,0.2,0.3,0.3,0.5,0.3h0.7c0.3,0,0.4-0.2,0.5-0.3l6.6-14.8h0.3l0,0.1l2.2,14.2c0.1,0.2,0.3,0.4,0.6,0.4h3.4
		c0.2,0,0.4-0.1,0.4-0.2c0.1-0.1,0.1-0.3,0.1-0.5l-4.4-25.2c0-0.2-0.2-0.4-0.5-0.4h-0.6c-0.2,0-0.4,0.1-0.5,0.3l-8.3,17.8H195l0-0.1
		l-8.2-17.7c-0.1-0.2-0.3-0.3-0.5-0.3h-0.6c-0.3,0-0.5,0.2-0.5,0.4l0,0l-4.5,25.2c0,0.2,0,0.4,0.1,0.5c0.1,0.1,0.3,0.2,0.4,0.2h3.4
		c0.3,0,0.5-0.2,0.5-0.4L187.3,12z"/>
	<path class="st1" d="M230.7,27h-15.3c-0.5,0-0.9-0.4-0.9-0.9V1.4c0-0.5,0.4-0.9,0.9-0.9h15.3c0.5,0,0.9,0.4,0.9,0.9v3.1
		c0,0.5-0.4,0.9-0.9,0.9h-10.9v5.8h9.1c0.5,0,0.9,0.4,0.9,0.9v3.1c0,0.5-0.4,0.9-0.9,0.9h-9.1v6.3h10.9c0.5,0,0.9,0.4,0.9,0.9v3.1
		C231.6,26.7,231.2,27,230.7,27z M215.5,0.8c-0.3,0-0.6,0.3-0.6,0.6v24.8c0,0.3,0.3,0.6,0.6,0.6h15.3c0.3,0,0.6-0.3,0.6-0.6v-3.1
		c0-0.3-0.3-0.6-0.6-0.6h-11.2v-6.9h9.4c0.3,0,0.6-0.3,0.6-0.6V12c0-0.3-0.3-0.6-0.6-0.6h-9.4V5h11.2c0.3,0,0.6-0.3,0.6-0.6V1.4
		c0-0.3-0.3-0.6-0.6-0.6H215.5z"/>
	<path class="st1" d="M248,27.4c-7.5,0-13.7-6.1-13.7-13.6c0-7.5,6.1-13.7,13.7-13.7c3.6,0,6.5,1.1,9.2,3.5c0.2,0.2,0.3,0.4,0.3,0.6
		c0,0.2-0.1,0.5-0.3,0.6l-2.3,2.4c-0.1,0.2-0.3,0.3-0.5,0.3c-0.2,0-0.4-0.1-0.6-0.3c-1.6-1.4-3.6-2.2-5.7-2.2
		c-4.6,0-8.2,3.8-8.2,8.6c0,4.8,3.6,8.5,8.2,8.5c2,0,3.9-0.7,5.6-2.1c0.4-0.3,0.9-0.3,1.1,0l2.3,2.4c0.1,0.1,0.2,0.3,0.2,0.5
		c0,0.3-0.1,0.5-0.3,0.7C254.7,26.1,251.5,27.4,248,27.4z M248,0.4c-7.4,0-13.4,6-13.4,13.4c0,7.3,6,13.3,13.4,13.3
		c3.5,0,6.6-1.2,9-3.6c0.1-0.1,0.2-0.3,0.2-0.5c0-0.1,0-0.2-0.1-0.3l-2.3-2.4c-0.2-0.2-0.5-0.2-0.7,0c-1.8,1.4-3.7,2.2-5.8,2.2
		c-4.8,0-8.5-3.9-8.5-8.8c0-5,3.7-8.9,8.5-8.9c2.1,0,4.2,0.8,5.9,2.2c0.1,0.1,0.3,0.2,0.4,0.2c0.1,0,0.2-0.1,0.3-0.2l2.3-2.4
		c0.1-0.1,0.2-0.3,0.2-0.4c0-0.2-0.1-0.3-0.2-0.4C254.3,1.5,251.5,0.4,248,0.4z"/>
	<path class="st1" d="M273.1,27.4c-7.6,0-13.6-6-13.6-13.6c0-7.5,6.1-13.7,13.6-13.7c7.5,0,13.6,6.1,13.6,13.7
		C286.7,21.4,280.7,27.4,273.1,27.4z M273.1,0.4c-7.3,0-13.3,6-13.3,13.4c0,7.5,5.8,13.3,13.3,13.3c7.5,0,13.3-5.8,13.3-13.3
		C286.4,6.4,280.4,0.4,273.1,0.4z M273.1,22.5c-4.8,0-8.7-3.9-8.7-8.7c0-4.9,3.9-8.8,8.7-8.8c4.8,0,8.8,4,8.8,8.8
		C281.9,18.6,277.9,22.5,273.1,22.5z M273.1,5.3c-4.7,0-8.4,3.8-8.4,8.5c0,4.7,3.8,8.4,8.4,8.4c4.7,0,8.5-3.8,8.5-8.4
		C281.5,9.2,277.7,5.3,273.1,5.3z"/>
	<path class="st1" d="M298.6,27.4c-4.9,0-7.4-2.1-8.3-3c-0.4-0.3-0.6-0.7-0.2-1.3l1.4-2.3c0.1-0.3,0.4-0.4,0.7-0.5
		c0.3-0.1,0.6,0,0.8,0.2c1.6,1.2,3.2,2.3,5.6,2.3c1.8,0,3.3-1.2,3.3-2.7c0-1.7-1.4-3-4.7-4.4c-3.1-1.2-7.1-3.4-7.1-8.2
		c0-3.5,2.7-7.3,8.6-7.3c4,0,7,2.1,7.6,2.5c0.2,0.1,0.3,0.3,0.4,0.6c0.1,0.3,0,0.6-0.1,0.8l-1.4,2.1c-0.2,0.3-0.5,0.6-0.9,0.6
		c-0.2,0-0.5,0-0.7-0.1l-0.3-0.2c-1.5-1-3-1.9-4.9-1.9c-2.2,0-3.1,1.2-3.1,2.5c0,1.6,1.3,2.8,4.3,4.1c3.9,1.6,7.9,3.8,7.9,8.6
		C307.4,23.5,304.3,27.4,298.6,27.4z M292.2,20.6c0,0-0.1,0-0.1,0c-0.1,0-0.3,0.1-0.5,0.3l-1.3,2.3c-0.3,0.5-0.2,0.7,0.2,0.9l0,0
		c0.9,0.8,3.4,2.9,8.2,2.9c5.5,0,8.5-3.7,8.5-7.3c0-4.6-3.9-6.8-7.7-8.3c-3.2-1.3-4.5-2.6-4.5-4.3c0-1.4,1.1-2.8,3.4-2.8
		c2,0,3.5,1,5,1.9l0.3,0.2c0.1,0.1,0.3,0.1,0.4,0.1c0.2,0,0.5-0.2,0.7-0.5l1.4-2.1c0.1-0.2,0.1-0.4,0.1-0.6c0-0.2-0.1-0.4-0.3-0.4
		c-0.6-0.4-3.5-2.5-7.4-2.5c-4,0-8.3,2.2-8.3,7c0,4.6,4,6.8,7,8c3.4,1.4,4.9,2.8,4.9,4.6c0,1.7-1.6,3-3.6,3c-2.4,0-4.1-1.1-5.8-2.4
		C292.6,20.7,292.4,20.6,292.2,20.6z"/>
	<path class="st1" d="M321.2,27h-3.4c-0.5,0-0.9-0.4-0.9-0.9V14.3l-8.5-12.5c-0.2-0.3-0.2-0.6,0-0.9c0.1-0.3,0.4-0.4,0.8-0.4h3.8
		c0.3,0,0.5,0.1,0.7,0.4l5.9,8.5l5.9-8.4c0.2-0.3,0.4-0.4,0.7-0.4h3.9c0.3,0,0.6,0.2,0.8,0.4c0.2,0.3,0.1,0.6,0,0.9l-8.6,12.5v11.9
		C322.1,26.6,321.7,27,321.2,27z M309.1,0.8c-0.2,0-0.4,0.1-0.5,0.3c-0.1,0.2-0.1,0.4,0,0.6l8.6,12.6v12c0,0.3,0.3,0.6,0.6,0.6h3.4
		c0.3,0,0.6-0.3,0.6-0.6v-12l0,0l8.7-12.5c0.1-0.2,0.1-0.4,0-0.6c-0.1-0.2-0.3-0.3-0.5-0.3h-3.9c-0.2,0-0.3,0.1-0.5,0.3l-6.1,8.8
		l-6.1-8.8c-0.1-0.2-0.3-0.3-0.5-0.3H309.1z"/>
	<path class="st1" d="M340.7,27.4c-4.9,0-7.4-2.1-8.3-3c-0.4-0.3-0.6-0.7-0.2-1.3l1.4-2.3c0.1-0.3,0.4-0.4,0.7-0.5
		c0.3-0.1,0.6,0,0.8,0.2c1.6,1.2,3.2,2.3,5.6,2.3c1.8,0,3.3-1.2,3.3-2.7c0-1.7-1.4-3-4.7-4.4c-3.1-1.2-7.1-3.4-7.1-8.2
		c0-3.5,2.7-7.3,8.6-7.3c4,0,7,2.1,7.6,2.5c0.2,0.1,0.3,0.3,0.4,0.6c0.1,0.3,0,0.6-0.1,0.8L347,6.2c-0.2,0.3-0.5,0.6-0.9,0.6
		c-0.2,0-0.5,0-0.7-0.1l-0.3-0.2c-1.5-1-3-1.9-4.9-1.9c-2.2,0-3.1,1.2-3.1,2.5c0,1.6,1.3,2.8,4.3,4.1c3.9,1.6,7.9,3.8,7.9,8.6
		C349.5,23.5,346.4,27.4,340.7,27.4z M334.3,20.6c0,0-0.1,0-0.1,0c-0.1,0-0.3,0.1-0.5,0.3l-1.3,2.3c-0.3,0.5-0.2,0.7,0.2,0.9l0,0
		c0.9,0.8,3.4,2.9,8.2,2.9c5.5,0,8.5-3.7,8.5-7.3c0-4.6-3.9-6.8-7.7-8.3c-3.2-1.3-4.5-2.6-4.5-4.3c0-1.4,1.1-2.8,3.4-2.8
		c2,0,3.5,1,5,1.9l0.3,0.2c0.1,0.1,0.3,0.1,0.4,0.1c0.2,0,0.5-0.2,0.7-0.5l1.4-2.1c0.1-0.2,0.1-0.4,0.1-0.6c0-0.2-0.1-0.4-0.3-0.4
		c-0.6-0.4-3.5-2.5-7.4-2.5c-4,0-8.3,2.2-8.3,7c0,4.6,4,6.8,7,8c3.4,1.4,4.9,2.8,4.9,4.6c0,1.7-1.6,3-3.6,3c-2.4,0-4.1-1.1-5.8-2.4
		C334.7,20.7,334.5,20.6,334.3,20.6z"/>
	<path class="st1" d="M362.4,27h-3.5c-0.5,0-0.9-0.4-0.9-0.9V5.3h-5.6c-0.5,0-0.9-0.4-0.9-0.9V1.4c0-0.5,0.4-0.9,0.9-0.9h16.4
		c0.5,0,0.9,0.4,0.9,0.9v3.1c0,0.5-0.4,0.9-0.9,0.9h-5.6v20.9C363.3,26.6,362.9,27,362.4,27z M352.5,0.8c-0.3,0-0.6,0.3-0.6,0.6v3.1
		c0,0.3,0.3,0.6,0.6,0.6h5.9v21.2c0,0.3,0.3,0.6,0.6,0.6h3.5c0.3,0,0.6-0.3,0.6-0.6V5h5.9c0.3,0,0.6-0.3,0.6-0.6V1.4
		c0-0.3-0.3-0.6-0.6-0.6H352.5z"/>
	<path class="st1" d="M389.7,27h-15.3c-0.5,0-0.9-0.4-0.9-0.9V1.4c0-0.5,0.4-0.9,0.9-0.9h15.3c0.5,0,0.9,0.4,0.9,0.9v3.1
		c0,0.5-0.4,0.9-0.9,0.9h-10.9v5.8h9.1c0.5,0,0.9,0.4,0.9,0.9v3.1c0,0.5-0.4,0.9-0.9,0.9h-9.1v6.3h10.9c0.5,0,0.9,0.4,0.9,0.9v3.1
		C390.6,26.7,390.2,27,389.7,27z M374.4,0.8c-0.3,0-0.6,0.3-0.6,0.6v24.8c0,0.3,0.3,0.6,0.6,0.6h15.3c0.3,0,0.6-0.3,0.6-0.6v-3.1
		c0-0.3-0.3-0.6-0.6-0.6h-11.2v-6.9h9.4c0.3,0,0.6-0.3,0.6-0.6V12c0-0.3-0.3-0.6-0.6-0.6h-9.4V5h11.2c0.3,0,0.6-0.3,0.6-0.6V1.4
		c0-0.3-0.3-0.6-0.6-0.6H374.4z"/>
	<path class="st1" d="M408.9,27.4h-0.7c-0.3,0-0.6-0.2-0.8-0.5l-6.5-14.5l-2.1,13.9c0,0.3-0.4,0.7-0.8,0.7h-3.4
		c-0.3,0-0.5-0.1-0.7-0.3c-0.2-0.2-0.2-0.5-0.2-0.8l4.5-25.2c0-0.3,0.3-0.7,0.8-0.7h0.6c0.3,0,0.6,0.2,0.8,0.5l8.2,17.5l8.2-17.5
		c0.2-0.3,0.4-0.5,0.8-0.5h0.6c0.4,0,0.8,0.3,0.8,0.7l4.4,25.2c0.1,0.3,0,0.6-0.1,0.7c-0.2,0.2-0.4,0.3-0.7,0.3h-3.4
		c-0.4,0-0.8-0.3-0.9-0.7l-2.2-13.9l-6.4,14.5C409.6,27.2,409.3,27.4,408.9,27.4z M400.7,12h0.3l0,0.1l6.6,14.7
		c0.1,0.2,0.3,0.3,0.5,0.3h0.7c0.3,0,0.4-0.2,0.5-0.3L416,12h0.3l0,0.1l2.2,14.2c0.1,0.2,0.3,0.4,0.6,0.4h3.4c0.2,0,0.4-0.1,0.4-0.2
		c0.1-0.1,0.1-0.3,0.1-0.5l-4.4-25.2c0-0.2-0.2-0.4-0.5-0.4h-0.6c-0.2,0-0.4,0.1-0.5,0.3l-8.3,17.8h-0.3l0-0.1l-8.2-17.7
		c-0.1-0.2-0.3-0.3-0.5-0.3H399c-0.3,0-0.5,0.2-0.5,0.4l0,0L394,26.1c0,0.2,0,0.4,0.1,0.5c0.1,0.1,0.3,0.2,0.4,0.2h3.4
		c0.3,0,0.5-0.2,0.5-0.4L400.7,12z"/>
	<path class="st1" d="M444.1,27h-15.3c-0.5,0-0.9-0.4-0.9-0.9V1.4c0-0.5,0.4-0.9,0.9-0.9h15.3c0.5,0,0.9,0.4,0.9,0.9v3.1
		c0,0.5-0.4,0.9-0.9,0.9h-10.9v5.8h9.1c0.5,0,0.9,0.4,0.9,0.9v3.1c0,0.5-0.4,0.9-0.9,0.9h-9.1v6.3h10.9c0.5,0,0.9,0.4,0.9,0.9v3.1
		C445,26.7,444.6,27,444.1,27z M428.9,0.8c-0.3,0-0.6,0.3-0.6,0.6v24.8c0,0.3,0.3,0.6,0.6,0.6h15.3c0.3,0,0.6-0.3,0.6-0.6v-3.1
		c0-0.3-0.3-0.6-0.6-0.6h-11.2v-6.9h9.4c0.3,0,0.6-0.3,0.6-0.6V12c0-0.3-0.3-0.6-0.6-0.6h-9.4V5h11.2c0.3,0,0.6-0.3,0.6-0.6V1.4
		c0-0.3-0.3-0.6-0.6-0.6H428.9z"/>
	<path class="st1" d="M461.4,27.4c-7.5,0-13.7-6.1-13.7-13.6c0-7.5,6.1-13.7,13.7-13.7c3.6,0,6.5,1.1,9.2,3.5
		c0.2,0.2,0.3,0.4,0.3,0.6c0,0.2-0.1,0.5-0.3,0.6l-2.3,2.4c-0.1,0.2-0.3,0.3-0.5,0.3c0,0,0,0,0,0c-0.2,0-0.4-0.1-0.6-0.3
		c-1.6-1.4-3.6-2.2-5.7-2.2c-4.6,0-8.2,3.8-8.2,8.6c0,4.8,3.6,8.5,8.2,8.5c2,0,3.9-0.7,5.6-2.1c0.4-0.3,0.9-0.3,1.1,0l2.3,2.4
		c0.1,0.1,0.2,0.3,0.2,0.5c0,0.3-0.1,0.5-0.3,0.7C468.1,26.1,464.9,27.4,461.4,27.4z M461.4,0.4c-7.4,0-13.4,6-13.4,13.4
		c0,7.3,6,13.3,13.4,13.3c3.5,0,6.6-1.2,9-3.6c0.1-0.1,0.2-0.3,0.2-0.5c0-0.1,0-0.2-0.1-0.3l-2.3-2.4c-0.2-0.2-0.5-0.2-0.7,0
		c-1.8,1.4-3.7,2.2-5.8,2.2c-4.8,0-8.5-3.9-8.5-8.8c0-5,3.7-8.9,8.5-8.9c2.1,0,4.2,0.8,5.9,2.2c0.1,0.1,0.3,0.2,0.4,0.2c0,0,0,0,0,0
		c0.1,0,0.2-0.1,0.3-0.2l2.3-2.4c0.1-0.1,0.2-0.3,0.2-0.4c0-0.2-0.1-0.3-0.2-0.4C467.7,1.5,464.9,0.4,461.4,0.4z"/>
	<path class="st1" d="M486.5,27.4c-7.6,0-13.6-6-13.6-13.6c0-7.5,6.1-13.7,13.6-13.7c7.5,0,13.6,6.1,13.6,13.7
		C500.1,21.4,494.1,27.4,486.5,27.4z M486.5,0.4c-7.3,0-13.3,6-13.3,13.4c0,7.5,5.8,13.3,13.3,13.3c7.5,0,13.3-5.8,13.3-13.3
		C499.8,6.4,493.8,0.4,486.5,0.4z M486.5,22.5c-4.8,0-8.7-3.9-8.7-8.7c0-4.9,3.9-8.8,8.7-8.8c4.8,0,8.8,4,8.8,8.8
		C495.3,18.6,491.3,22.5,486.5,22.5z M486.5,5.3c-4.7,0-8.4,3.8-8.4,8.5c0,4.7,3.8,8.4,8.4,8.4c4.7,0,8.5-3.8,8.5-8.4
		C495,9.2,491.1,5.3,486.5,5.3z"/>
	<path class="st1" d="M512,27.4c-4.9,0-7.4-2.1-8.3-3c-0.4-0.3-0.6-0.7-0.2-1.3l1.4-2.3c0.1-0.3,0.4-0.4,0.7-0.5
		c0.3-0.1,0.6,0,0.8,0.2c1.6,1.2,3.2,2.3,5.6,2.3c1.8,0,3.3-1.2,3.3-2.7c0-1.7-1.4-3-4.7-4.4c-3.1-1.2-7.1-3.4-7.1-8.2
		c0-3.5,2.7-7.3,8.6-7.3c4,0,7,2.1,7.6,2.5c0.2,0.1,0.3,0.3,0.4,0.6c0.1,0.3,0,0.6-0.1,0.8l-1.4,2.1c-0.2,0.3-0.5,0.6-0.9,0.6
		c-0.2,0-0.5,0-0.7-0.1l-0.3-0.2c-1.5-1-3-1.9-4.9-1.9c-2.2,0-3.1,1.2-3.1,2.5c0,1.6,1.3,2.8,4.3,4.1c3.9,1.6,7.9,3.8,7.9,8.6
		C520.8,23.5,517.7,27.4,512,27.4z M505.6,20.6c0,0-0.1,0-0.1,0c-0.1,0-0.3,0.1-0.5,0.3l-1.3,2.3c-0.3,0.5-0.2,0.7,0.2,0.9l0,0
		c0.9,0.8,3.4,2.9,8.2,2.9c5.5,0,8.5-3.7,8.5-7.3c0-4.6-3.9-6.8-7.7-8.3c-3.2-1.3-4.5-2.6-4.5-4.3c0-1.4,1.1-2.8,3.4-2.8
		c2,0,3.5,1,5,1.9l0.3,0.2c0.1,0.1,0.3,0.1,0.4,0.1c0.2,0,0.5-0.2,0.7-0.5l1.4-2.1c0.1-0.2,0.1-0.4,0.1-0.6c0-0.2-0.1-0.4-0.3-0.4
		c-0.6-0.4-3.5-2.5-7.4-2.5c-4,0-8.3,2.2-8.3,7c0,4.6,4,6.8,7,8c3.4,1.4,4.9,2.8,4.9,4.6c0,1.7-1.6,3-3.6,3c-2.4,0-4.1-1.1-5.8-2.4
		C506,20.7,505.8,20.6,505.6,20.6z"/>
	<path class="st1" d="M11,57H7.6c-0.5,0-0.9-0.4-0.9-0.9V44.3l-8.5-12.5c-0.2-0.3-0.2-0.6,0-0.9c0.1-0.3,0.4-0.4,0.8-0.4h3.8
		c0.3,0,0.5,0.1,0.7,0.4l5.9,8.5l5.9-8.4c0.2-0.3,0.4-0.4,0.7-0.4h3.9c0.3,0,0.6,0.2,0.8,0.4c0.2,0.3,0.1,0.6,0,0.9l-8.6,12.5v11.9
		C11.9,56.6,11.5,57,11,57z M-1.1,30.8c-0.2,0-0.4,0.1-0.5,0.3c-0.1,0.2-0.1,0.4,0,0.6L7,44.2v12c0,0.3,0.3,0.6,0.6,0.6H11
		c0.3,0,0.6-0.3,0.6-0.6v-12l0,0l8.7-12.5c0.1-0.2,0.1-0.4,0-0.6c-0.1-0.2-0.3-0.3-0.5-0.3h-3.9c-0.2,0-0.3,0.1-0.5,0.3l-6.1,8.8
		l-6.1-8.8c-0.1-0.2-0.3-0.3-0.5-0.3H-1.1z"/>
	<path class="st1" d="M30.5,57.4c-4.9,0-7.4-2.1-8.3-3c-0.4-0.3-0.6-0.7-0.2-1.3l1.4-2.3c0.1-0.3,0.4-0.4,0.7-0.5
		c0.3-0.1,0.6,0,0.8,0.2c1.6,1.2,3.2,2.3,5.6,2.3c1.8,0,3.3-1.2,3.3-2.7c0-1.7-1.4-3-4.7-4.4c-3.1-1.2-7.1-3.4-7.1-8.2
		c0-3.5,2.7-7.3,8.6-7.3c4,0,7,2.1,7.6,2.5c0.2,0.1,0.3,0.3,0.4,0.6c0.1,0.3,0,0.6-0.1,0.8l-1.4,2.1c-0.3,0.5-1,0.8-1.5,0.5L35,36.6
		c-1.5-1-3-1.9-4.9-1.9c-2.2,0-3.1,1.2-3.1,2.5c0,1.6,1.3,2.8,4.3,4.1c3.9,1.6,7.9,3.8,7.9,8.6C39.2,53.5,36.2,57.4,30.5,57.4z
		 M24.1,50.6c0,0-0.1,0-0.1,0c-0.1,0-0.3,0.1-0.5,0.3l-1.4,2.3c-0.3,0.5-0.2,0.7,0.2,0.9l0,0c0.9,0.8,3.3,2.9,8.1,2.9
		c5.5,0,8.5-3.7,8.5-7.3c0-4.6-3.9-6.8-7.7-8.3c-3.2-1.3-4.5-2.6-4.5-4.3c0-1.4,1.1-2.8,3.4-2.8c2,0,3.5,1,5,1.9l0.3,0.2
		c0.4,0.3,0.9,0,1.1-0.4l1.4-2.1c0.1-0.2,0.1-0.4,0.1-0.6c0-0.2-0.1-0.4-0.3-0.4c-0.6-0.4-3.5-2.5-7.4-2.5c-4,0-8.3,2.2-8.3,7
		c0,4.6,4,6.8,7,8c3.4,1.4,4.9,2.8,4.9,4.6c0,1.7-1.6,3-3.6,3c-2.4,0-4.1-1.1-5.8-2.4C24.4,50.7,24.3,50.6,24.1,50.6z"/>
	<path class="st1" d="M52.2,57h-3.5c-0.5,0-0.9-0.4-0.9-0.9V35.3h-5.6c-0.5,0-0.9-0.4-0.9-0.9v-3.1c0-0.5,0.4-0.9,0.9-0.9h16.4
		c0.5,0,0.9,0.4,0.9,0.9v3.1c0,0.5-0.4,0.9-0.9,0.9H53v20.9C53,56.6,52.6,57,52.2,57z M42.2,30.8c-0.3,0-0.6,0.3-0.6,0.6v3.1
		c0,0.3,0.3,0.6,0.6,0.6h5.9v21.2c0,0.3,0.3,0.6,0.6,0.6h3.5c0.3,0,0.6-0.3,0.6-0.6V35h5.9c0.3,0,0.6-0.3,0.6-0.6v-3.1
		c0-0.3-0.3-0.6-0.6-0.6H42.2z"/>
	<path class="st1" d="M79.5,57H64.2c-0.5,0-0.9-0.4-0.9-0.9V31.4c0-0.5,0.4-0.9,0.9-0.9h15.3c0.5,0,0.9,0.4,0.9,0.9v3.1
		c0,0.5-0.4,0.9-0.9,0.9H68.5v5.8h9.1c0.5,0,0.9,0.4,0.9,0.9v3.1c0,0.5-0.4,0.9-0.9,0.9h-9.1v6.3h10.9c0.5,0,0.9,0.4,0.9,0.9v3.1
		C80.3,56.7,79.9,57,79.5,57z M64.2,30.8c-0.3,0-0.6,0.3-0.6,0.6v24.8c0,0.3,0.3,0.6,0.6,0.6h15.3c0.3,0,0.6-0.3,0.6-0.6v-3.1
		c0-0.3-0.3-0.6-0.6-0.6H68.2v-6.9h9.4c0.3,0,0.6-0.3,0.6-0.6V42c0-0.3-0.3-0.6-0.6-0.6h-9.4V35h11.2c0.3,0,0.6-0.3,0.6-0.6v-3.1
		c0-0.3-0.3-0.6-0.6-0.6H64.2z"/>
	<path class="st1" d="M98.7,57.4H98c-0.3,0-0.6-0.2-0.8-0.5l-6.5-14.5l-2.1,13.9c0,0.3-0.4,0.7-0.8,0.7h-3.4c-0.3,0-0.5-0.1-0.7-0.3
		c-0.2-0.2-0.2-0.5-0.2-0.8L88,30.8c0.1-0.4,0.4-0.7,0.8-0.7h0.6c0.3,0,0.6,0.2,0.8,0.5l8.2,17.5l8.2-17.5c0.2-0.3,0.4-0.5,0.8-0.5
		h0.6c0.4,0,0.8,0.3,0.8,0.7l4.4,25.2c0.1,0.3,0,0.6-0.1,0.7c-0.2,0.2-0.4,0.3-0.7,0.3h-3.4c-0.4,0-0.8-0.3-0.9-0.7l-2.2-13.9
		l-6.4,14.5C99.3,57.2,99,57.4,98.7,57.4z M90.5,42h0.3l0,0.1l6.6,14.7c0.1,0.2,0.3,0.3,0.5,0.3h0.7c0.3,0,0.4-0.2,0.5-0.3l6.6-14.8
		h0.3l0,0.1l2.2,14.2c0.1,0.2,0.3,0.4,0.6,0.4h3.4c0.2,0,0.4-0.1,0.4-0.2c0.1-0.1,0.1-0.3,0.1-0.5l-4.4-25.2c0-0.1-0.1-0.4-0.5-0.4
		h-0.6c-0.2,0-0.4,0.1-0.5,0.3l-8.3,17.8h-0.3l0-0.1l-8.2-17.7c-0.1-0.2-0.3-0.3-0.5-0.3h-0.6c-0.4,0-0.5,0.3-0.5,0.4l0,0l-4.5,25.2
		c0,0.2,0,0.4,0.1,0.5c0.1,0.1,0.3,0.2,0.4,0.2h3.4c0.3,0,0.5-0.2,0.5-0.4L90.5,42z"/>
	<path class="st1" d="M133.9,57h-15.3c-0.5,0-0.9-0.4-0.9-0.9V31.4c0-0.5,0.4-0.9,0.9-0.9h15.3c0.5,0,0.9,0.4,0.9,0.9v3.1
		c0,0.5-0.4,0.9-0.9,0.9H123v5.8h9.1c0.5,0,0.9,0.4,0.9,0.9v3.1c0,0.5-0.4,0.9-0.9,0.9H123v6.3h10.9c0.5,0,0.9,0.4,0.9,0.9v3.1
		C134.8,56.7,134.4,57,133.9,57z M118.7,30.8c-0.3,0-0.6,0.3-0.6,0.6v24.8c0,0.3,0.3,0.6,0.6,0.6h15.3c0.3,0,0.6-0.3,0.6-0.6v-3.1
		c0-0.3-0.3-0.6-0.6-0.6h-11.2v-6.9h9.4c0.3,0,0.6-0.3,0.6-0.6V42c0-0.3-0.3-0.6-0.6-0.6h-9.4V35h11.2c0.3,0,0.6-0.3,0.6-0.6v-3.1
		c0-0.3-0.3-0.6-0.6-0.6H118.7z"/>
	<path class="st1" d="M151.1,57.4c-7.5,0-13.7-6.1-13.7-13.6c0-7.5,6.1-13.7,13.7-13.7c3.6,0,6.5,1.1,9.2,3.5
		c0.2,0.2,0.3,0.4,0.3,0.6c0,0.2-0.1,0.5-0.3,0.6l-2.3,2.4c-0.1,0.2-0.3,0.3-0.5,0.3c0,0,0,0,0,0c-0.2,0-0.4-0.1-0.6-0.3
		c-1.6-1.4-3.6-2.2-5.7-2.2c-4.6,0-8.2,3.8-8.2,8.6c0,4.8,3.6,8.5,8.2,8.5c2,0,3.9-0.7,5.6-2.1c0.4-0.3,0.9-0.3,1.1,0l2.3,2.4
		c0.1,0.1,0.2,0.3,0.2,0.5c0,0.3-0.1,0.5-0.3,0.7C157.9,56.1,154.7,57.4,151.1,57.4z M151.1,30.4c-7.4,0-13.4,6-13.4,13.4
		c0,7.3,6,13.3,13.4,13.3c3.5,0,6.6-1.2,9-3.6c0.1-0.1,0.2-0.3,0.2-0.5c0-0.1,0-0.2-0.1-0.3l-2.3-2.4c-0.2-0.2-0.5-0.2-0.7,0
		c-1.8,1.4-3.7,2.2-5.8,2.2c-4.8,0-8.5-3.9-8.5-8.8c0-5,3.7-8.9,8.5-8.9c2.1,0,4.2,0.8,5.9,2.3c0.1,0.1,0.3,0.2,0.4,0.2c0,0,0,0,0,0
		c0.1,0,0.2-0.1,0.3-0.2l2.3-2.4c0.1-0.1,0.2-0.3,0.2-0.4c0-0.2-0.1-0.3-0.2-0.4C157.4,31.5,154.7,30.4,151.1,30.4z"/>
	<path class="st1" d="M176.3,57.4c-7.6,0-13.6-6-13.6-13.6c0-7.5,6.1-13.7,13.6-13.7c7.5,0,13.6,6.1,13.6,13.7
		C189.9,51.4,183.9,57.4,176.3,57.4z M176.3,30.4c-7.3,0-13.3,6-13.3,13.4c0,7.5,5.8,13.3,13.3,13.3c7.5,0,13.3-5.8,13.3-13.3
		C189.6,36.4,183.6,30.4,176.3,30.4z M176.3,52.5c-4.8,0-8.7-3.9-8.7-8.7c0-4.9,3.9-8.8,8.7-8.8c4.8,0,8.8,4,8.8,8.8
		C185,48.6,181.1,52.5,176.3,52.5z M176.3,35.3c-4.7,0-8.4,3.8-8.4,8.5c0,4.7,3.8,8.4,8.4,8.4c4.7,0,8.5-3.8,8.5-8.4
		C184.7,39.2,180.8,35.3,176.3,35.3z"/>
	<path class="st1" d="M201.8,57.4c-4.9,0-7.4-2.1-8.3-3c-0.4-0.3-0.6-0.7-0.2-1.3l1.4-2.3c0.1-0.3,0.4-0.4,0.7-0.5
		c0.3-0.1,0.6,0,0.8,0.2c1.6,1.2,3.2,2.3,5.6,2.3c1.8,0,3.3-1.2,3.3-2.7c0-1.7-1.4-3-4.7-4.4c-3.1-1.2-7.1-3.4-7.1-8.2
		c0-3.5,2.7-7.3,8.6-7.3c4,0,7,2.1,7.6,2.5c0.2,0.1,0.3,0.3,0.4,0.6c0.1,0.3,0,0.6-0.1,0.8l-1.4,2.1c-0.3,0.5-1,0.8-1.5,0.5
		l-0.3-0.2c-1.5-1-3-1.9-4.9-1.9c-2.2,0-3.1,1.2-3.1,2.5c0,1.6,1.3,2.8,4.3,4.1c3.9,1.6,7.9,3.8,7.9,8.6
		C210.5,53.5,207.5,57.4,201.8,57.4z M195.4,50.6c0,0-0.1,0-0.1,0c-0.1,0-0.3,0.1-0.5,0.3l-1.4,2.3c-0.3,0.5-0.2,0.7,0.2,0.9l0,0
		c0.9,0.8,3.3,2.9,8.1,2.9c5.5,0,8.5-3.7,8.5-7.3c0-4.6-3.9-6.8-7.7-8.3c-3.2-1.3-4.5-2.6-4.5-4.3c0-1.4,1.1-2.8,3.4-2.8
		c2,0,3.5,1,5,1.9l0.3,0.2c0.4,0.3,0.9,0,1.1-0.4l1.4-2.1c0.1-0.2,0.1-0.4,0.1-0.6c0-0.2-0.1-0.4-0.3-0.4c-0.6-0.4-3.5-2.5-7.4-2.5
		c-4,0-8.3,2.2-8.3,7c0,4.6,4,6.8,7,8c3.4,1.4,4.9,2.8,4.9,4.6c0,1.7-1.6,3-3.6,3c-2.4,0-4.1-1.1-5.8-2.4
		C195.7,50.7,195.6,50.6,195.4,50.6z"/>
	<path class="st1" d="M224.4,57H221c-0.5,0-0.9-0.4-0.9-0.9V44.3l-8.5-12.5c-0.2-0.3-0.2-0.6,0-0.9c0.1-0.3,0.4-0.4,0.8-0.4h3.8
		c0.3,0,0.5,0.1,0.7,0.4l5.9,8.5l5.9-8.4c0.2-0.3,0.4-0.4,0.7-0.4h3.9c0.3,0,0.6,0.2,0.8,0.4c0.2,0.3,0.1,0.6,0,0.9l-8.6,12.5v11.9
		C225.3,56.6,224.9,57,224.4,57z M212.3,30.8c-0.2,0-0.4,0.1-0.5,0.3c-0.1,0.2-0.1,0.4,0,0.6l8.6,12.6v12c0,0.3,0.3,0.6,0.6,0.6h3.4
		c0.3,0,0.6-0.3,0.6-0.6v-12l0,0l8.7-12.5c0.1-0.2,0.1-0.4,0-0.6c-0.1-0.2-0.3-0.3-0.5-0.3h-3.9c-0.2,0-0.3,0.1-0.5,0.3l-6.1,8.8
		l-6.1-8.8c-0.1-0.2-0.3-0.3-0.5-0.3H212.3z"/>
	<path class="st1" d="M243.9,57.4c-4.9,0-7.4-2.1-8.3-3c-0.4-0.3-0.6-0.7-0.2-1.3l1.4-2.3c0.1-0.3,0.4-0.4,0.7-0.5
		c0.3-0.1,0.6,0,0.8,0.2c1.6,1.2,3.2,2.3,5.6,2.3c1.8,0,3.3-1.2,3.3-2.7c0-1.7-1.4-3-4.7-4.4c-3.1-1.2-7.1-3.4-7.1-8.2
		c0-3.5,2.7-7.3,8.6-7.3c4,0,7,2.1,7.6,2.5c0.2,0.1,0.3,0.3,0.4,0.6c0.1,0.3,0,0.6-0.1,0.8l-1.4,2.1c-0.3,0.5-1,0.8-1.5,0.5
		l-0.3-0.2c-1.5-1-3-1.9-4.9-1.9c-2.2,0-3.1,1.2-3.1,2.5c0,1.6,1.3,2.8,4.3,4.1c3.9,1.6,7.9,3.8,7.9,8.6
		C252.6,53.5,249.6,57.4,243.9,57.4z M237.5,50.6c0,0-0.1,0-0.1,0c-0.1,0-0.3,0.1-0.5,0.3l-1.4,2.3c-0.3,0.5-0.2,0.7,0.2,0.9l0,0
		c0.9,0.8,3.3,2.9,8.1,2.9c5.5,0,8.5-3.7,8.5-7.3c0-4.6-3.9-6.8-7.7-8.3c-3.2-1.3-4.5-2.6-4.5-4.3c0-1.4,1.1-2.8,3.4-2.8
		c2,0,3.5,1,5,1.9l0.3,0.2c0.4,0.3,0.9,0,1.1-0.4l1.4-2.1c0.1-0.2,0.1-0.4,0.1-0.6c0-0.2-0.1-0.4-0.3-0.4c-0.6-0.4-3.5-2.5-7.4-2.5
		c-4,0-8.3,2.2-8.3,7c0,4.6,4,6.8,7,8c3.4,1.4,4.9,2.8,4.9,4.6c0,1.7-1.6,3-3.6,3c-2.4,0-4.1-1.1-5.8-2.4
		C237.8,50.7,237.7,50.6,237.5,50.6z"/>
	<path class="st1" d="M265.6,57h-3.5c-0.5,0-0.9-0.4-0.9-0.9V35.3h-5.6c-0.5,0-0.9-0.4-0.9-0.9v-3.1c0-0.5,0.4-0.9,0.9-0.9H272
		c0.5,0,0.9,0.4,0.9,0.9v3.1c0,0.5-0.4,0.9-0.9,0.9h-5.6v20.9C266.4,56.6,266,57,265.6,57z M255.6,30.8c-0.3,0-0.6,0.3-0.6,0.6v3.1
		c0,0.3,0.3,0.6,0.6,0.6h5.9v21.2c0,0.3,0.3,0.6,0.6,0.6h3.5c0.3,0,0.6-0.3,0.6-0.6V35h5.9c0.3,0,0.6-0.3,0.6-0.6v-3.1
		c0-0.3-0.3-0.6-0.6-0.6H255.6z"/>
	<path class="st1" d="M292.9,57h-15.3c-0.5,0-0.9-0.4-0.9-0.9V31.4c0-0.5,0.4-0.9,0.9-0.9h15.3c0.5,0,0.9,0.4,0.9,0.9v3.1
		c0,0.5-0.4,0.9-0.9,0.9h-10.9v5.8h9.1c0.5,0,0.9,0.4,0.9,0.9v3.1c0,0.5-0.4,0.9-0.9,0.9h-9.1v6.3h10.9c0.5,0,0.9,0.4,0.9,0.9v3.1
		C293.7,56.7,293.4,57,292.9,57z M277.6,30.8c-0.3,0-0.6,0.3-0.6,0.6v24.8c0,0.3,0.3,0.6,0.6,0.6h15.3c0.3,0,0.6-0.3,0.6-0.6v-3.1
		c0-0.3-0.3-0.6-0.6-0.6h-11.2v-6.9h9.4c0.3,0,0.6-0.3,0.6-0.6V42c0-0.3-0.3-0.6-0.6-0.6h-9.4V35h11.2c0.3,0,0.6-0.3,0.6-0.6v-3.1
		c0-0.3-0.3-0.6-0.6-0.6H277.6z"/>
	<path class="st1" d="M312.1,57.4h-0.7c-0.3,0-0.6-0.2-0.8-0.5l-6.5-14.5L302,56.4c0,0.3-0.4,0.7-0.8,0.7h-3.4
		c-0.3,0-0.5-0.1-0.7-0.3c-0.2-0.2-0.2-0.5-0.2-0.8l4.5-25.2c0.1-0.4,0.4-0.7,0.8-0.7h0.6c0.3,0,0.6,0.2,0.8,0.5l8.2,17.5l8.2-17.5
		c0.2-0.3,0.4-0.5,0.8-0.5h0.6c0.4,0,0.8,0.3,0.8,0.7l4.4,25.2c0.1,0.3,0,0.6-0.1,0.7c-0.2,0.2-0.4,0.3-0.7,0.3h-3.4
		c-0.4,0-0.8-0.3-0.9-0.7l-2.2-13.9l-6.4,14.5C312.8,57.2,312.4,57.4,312.1,57.4z M303.9,42h0.3l6.7,14.8c0.1,0.2,0.3,0.3,0.5,0.3
		h0.7c0.3,0,0.4-0.2,0.5-0.3l6.6-14.8h0.3l0,0.1l2.2,14.2c0.1,0.2,0.3,0.4,0.6,0.4h3.4c0.2,0,0.4-0.1,0.4-0.2
		c0.1-0.1,0.1-0.3,0.1-0.5l-4.4-25.2c0-0.1-0.1-0.4-0.5-0.4h-0.6c-0.2,0-0.4,0.1-0.5,0.3l-8.3,17.8h-0.3l0-0.1l-8.2-17.7
		c-0.1-0.2-0.3-0.3-0.5-0.3h-0.6c-0.3,0-0.5,0.2-0.5,0.4l0,0l-4.5,25.2c0,0.2,0,0.4,0.1,0.5c0.1,0.1,0.3,0.2,0.4,0.2h3.4
		c0.3,0,0.5-0.2,0.5-0.4L303.9,42z"/>
	<path class="st1" d="M347.3,57h-15.3c-0.5,0-0.9-0.4-0.9-0.9V31.4c0-0.5,0.4-0.9,0.9-0.9h15.3c0.5,0,0.9,0.4,0.9,0.9v3.1
		c0,0.5-0.4,0.9-0.9,0.9h-10.9v5.8h9.1c0.5,0,0.9,0.4,0.9,0.9v3.1c0,0.5-0.4,0.9-0.9,0.9h-9.1v6.3h10.9c0.5,0,0.9,0.4,0.9,0.9v3.1
		C348.2,56.7,347.8,57,347.3,57z M332.1,30.8c-0.3,0-0.6,0.3-0.6,0.6v24.8c0,0.3,0.3,0.6,0.6,0.6h15.3c0.3,0,0.6-0.3,0.6-0.6v-3.1
		c0-0.3-0.3-0.6-0.6-0.6h-11.2v-6.9h9.4c0.3,0,0.6-0.3,0.6-0.6V42c0-0.3-0.3-0.6-0.6-0.6h-9.4V35h11.2c0.3,0,0.6-0.3,0.6-0.6v-3.1
		c0-0.3-0.3-0.6-0.6-0.6H332.1z"/>
	<path class="st1" d="M364.5,57.4c-7.5,0-13.7-6.1-13.7-13.6c0-7.5,6.1-13.7,13.7-13.7c3.6,0,6.5,1.1,9.2,3.5
		c0.2,0.2,0.3,0.4,0.3,0.6c0,0.2-0.1,0.5-0.3,0.6l-2.3,2.4c-0.1,0.2-0.3,0.3-0.5,0.3c0,0,0,0,0,0c-0.2,0-0.4-0.1-0.6-0.3
		c-1.6-1.4-3.6-2.2-5.7-2.2c-4.6,0-8.2,3.8-8.2,8.6c0,4.8,3.6,8.5,8.2,8.5c2,0,3.9-0.7,5.6-2.1c0.4-0.3,0.9-0.3,1.1,0l2.3,2.4
		c0.1,0.1,0.2,0.3,0.2,0.5c0,0.3-0.1,0.5-0.3,0.7C371.3,56.1,368.1,57.4,364.5,57.4z M364.5,30.4c-7.4,0-13.4,6-13.4,13.4
		c0,7.3,6,13.3,13.4,13.3c3.5,0,6.6-1.2,9-3.6c0.1-0.1,0.2-0.3,0.2-0.5c0-0.1,0-0.2-0.1-0.3l-2.3-2.4c-0.2-0.2-0.5-0.2-0.7,0
		c-1.8,1.4-3.7,2.2-5.8,2.2c-4.8,0-8.5-3.9-8.5-8.8c0-5,3.7-8.9,8.5-8.9c2.1,0,4.2,0.8,5.9,2.3c0.1,0.1,0.3,0.2,0.4,0.2c0,0,0,0,0,0
		c0.1,0,0.2-0.1,0.3-0.2l2.3-2.4c0.1-0.1,0.2-0.3,0.2-0.4c0-0.2-0.1-0.3-0.2-0.4C370.8,31.5,368.1,30.4,364.5,30.4z"/>
	<path class="st1" d="M389.7,57.4c-7.6,0-13.6-6-13.6-13.6c0-7.5,6.1-13.7,13.6-13.7c7.5,0,13.6,6.1,13.6,13.7
		C403.3,51.4,397.3,57.4,389.7,57.4z M389.7,30.4c-7.3,0-13.3,6-13.3,13.4c0,7.5,5.8,13.3,13.3,13.3c7.5,0,13.3-5.8,13.3-13.3
		C403,36.4,397,30.4,389.7,30.4z M389.7,52.5c-4.8,0-8.7-3.9-8.7-8.7c0-4.9,3.9-8.8,8.7-8.8c4.8,0,8.8,4,8.8,8.8
		C398.4,48.6,394.5,52.5,389.7,52.5z M389.7,35.3c-4.7,0-8.4,3.8-8.4,8.5c0,4.7,3.8,8.4,8.4,8.4c4.7,0,8.5-3.8,8.5-8.4
		C398.1,39.2,394.3,35.3,389.7,35.3z"/>
	<path class="st1" d="M415.2,57.4c-4.9,0-7.4-2.1-8.3-3c-0.4-0.3-0.6-0.7-0.2-1.3l1.4-2.3c0.1-0.3,0.4-0.4,0.7-0.5
		c0.3-0.1,0.6,0,0.8,0.2c1.6,1.2,3.2,2.3,5.6,2.3c1.8,0,3.3-1.2,3.3-2.7c0-1.7-1.4-3-4.7-4.4c-3.1-1.2-7.1-3.4-7.1-8.2
		c0-3.5,2.7-7.3,8.6-7.3c4,0,7,2.1,7.6,2.5c0.2,0.1,0.3,0.3,0.4,0.6c0.1,0.3,0,0.6-0.1,0.8l-1.4,2.1c-0.2,0.3-0.5,0.6-0.9,0.6
		c-0.2,0-0.5,0-0.7-0.1l-0.3-0.2c-1.5-1-3-1.9-4.9-1.9c-2.2,0-3.1,1.2-3.1,2.5c0,1.6,1.3,2.8,4.3,4.1c3.9,1.6,7.9,3.8,7.9,8.6
		C423.9,53.5,420.9,57.4,415.2,57.4z M408.8,50.6c0,0-0.1,0-0.1,0c-0.1,0-0.3,0.1-0.5,0.3l-1.3,2.3c-0.3,0.5-0.2,0.7,0.2,0.9l0,0
		c0.9,0.8,3.3,2.9,8.2,2.9c5.5,0,8.5-3.7,8.5-7.3c0-4.6-3.9-6.8-7.7-8.3c-3.2-1.3-4.5-2.6-4.5-4.3c0-1.4,1.1-2.8,3.4-2.8
		c2,0,3.5,1,5,1.9l0.3,0.2c0.1,0.1,0.3,0.1,0.4,0.1c0.2,0,0.5-0.2,0.7-0.5l1.4-2.1c0.1-0.2,0.1-0.4,0.1-0.6c0-0.2-0.1-0.4-0.3-0.4
		c-0.6-0.4-3.5-2.5-7.4-2.5c-4,0-8.3,2.2-8.3,7c0,4.6,4,6.8,7,8c3.4,1.4,4.9,2.8,4.9,4.6c0,1.7-1.6,3-3.6,3c-2.4,0-4.1-1.1-5.8-2.4
		C409.1,50.7,409,50.6,408.8,50.6z"/>
	<path class="st1" d="M437.8,57h-3.4c-0.5,0-0.9-0.4-0.9-0.9V44.3L425,31.8c-0.2-0.3-0.2-0.6,0-0.9c0.1-0.3,0.4-0.4,0.8-0.4h3.8
		c0.3,0,0.5,0.1,0.7,0.4l5.9,8.5l5.9-8.4c0.2-0.3,0.4-0.4,0.7-0.4h3.9c0.3,0,0.6,0.2,0.8,0.4c0.2,0.3,0.1,0.6,0,0.9l-8.6,12.5v11.9
		C438.7,56.6,438.3,57,437.8,57z M425.7,30.8c-0.2,0-0.4,0.1-0.5,0.3c-0.1,0.2-0.1,0.4,0,0.6l8.6,12.6v12c0,0.3,0.3,0.6,0.6,0.6h3.4
		c0.3,0,0.6-0.3,0.6-0.6v-12l0,0l8.7-12.5c0.1-0.2,0.1-0.4,0-0.6c-0.1-0.2-0.3-0.3-0.5-0.3h-3.9c-0.2,0-0.3,0.1-0.5,0.3l-6.1,8.8
		l-6.1-8.8c-0.1-0.2-0.3-0.3-0.5-0.3H425.7z"/>
	<path class="st1" d="M457.3,57.4c-4.9,0-7.4-2.1-8.3-3c-0.4-0.3-0.6-0.7-0.2-1.3l1.4-2.3c0.1-0.3,0.4-0.4,0.7-0.5
		c0.3-0.1,0.6,0,0.8,0.2c1.6,1.2,3.2,2.3,5.6,2.3c1.8,0,3.3-1.2,3.3-2.7c0-1.7-1.4-3-4.7-4.4c-3.1-1.2-7.1-3.4-7.1-8.2
		c0-3.5,2.7-7.3,8.6-7.3c4,0,7,2.1,7.6,2.5c0.2,0.1,0.3,0.3,0.4,0.6c0.1,0.3,0,0.6-0.1,0.8l-1.4,2.1c-0.2,0.3-0.5,0.6-0.9,0.6
		c-0.2,0-0.5,0-0.7-0.1l-0.3-0.2c-1.5-1-3-1.9-4.9-1.9c-2.2,0-3.1,1.2-3.1,2.5c0,1.6,1.3,2.8,4.3,4.1c3.9,1.6,7.9,3.8,7.9,8.6
		C466,53.5,463,57.4,457.3,57.4z M450.9,50.6c0,0-0.1,0-0.1,0c-0.1,0-0.3,0.1-0.5,0.3l-1.3,2.3c-0.3,0.5-0.2,0.7,0.2,0.9l0,0
		c0.9,0.8,3.3,2.9,8.2,2.9c5.5,0,8.5-3.7,8.5-7.3c0-4.6-3.9-6.8-7.7-8.3c-3.2-1.3-4.5-2.6-4.5-4.3c0-1.4,1.1-2.8,3.4-2.8
		c2,0,3.5,1,5,1.9l0.3,0.2c0.1,0.1,0.3,0.1,0.4,0.1c0.2,0,0.5-0.2,0.7-0.5l1.4-2.1c0.1-0.2,0.1-0.4,0.1-0.6c0-0.2-0.1-0.4-0.3-0.4
		c-0.6-0.4-3.5-2.5-7.4-2.5c-4,0-8.3,2.2-8.3,7c0,4.6,4,6.8,7,8c3.4,1.4,4.9,2.8,4.9,4.6c0,1.7-1.6,3-3.6,3c-2.4,0-4.1-1.1-5.8-2.4
		C451.2,50.7,451.1,50.6,450.9,50.6z"/>
	<path class="st1" d="M479,57h-3.5c-0.5,0-0.9-0.4-0.9-0.9V35.3H469c-0.5,0-0.9-0.4-0.9-0.9v-3.1c0-0.5,0.4-0.9,0.9-0.9h16.4
		c0.5,0,0.9,0.4,0.9,0.9v3.1c0,0.5-0.4,0.9-0.9,0.9h-5.6v20.9C479.8,56.6,479.4,57,479,57z M469,30.8c-0.3,0-0.6,0.3-0.6,0.6v3.1
		c0,0.3,0.3,0.6,0.6,0.6h5.9v21.2c0,0.3,0.3,0.6,0.6,0.6h3.5c0.3,0,0.6-0.3,0.6-0.6V35h5.9c0.3,0,0.6-0.3,0.6-0.6v-3.1
		c0-0.3-0.3-0.6-0.6-0.6H469z"/>
	<path class="st1" d="M506.3,57H491c-0.5,0-0.9-0.4-0.9-0.9V31.4c0-0.5,0.4-0.9,0.9-0.9h15.3c0.5,0,0.9,0.4,0.9,0.9v3.1
		c0,0.5-0.4,0.9-0.9,0.9h-10.9v5.8h9.1c0.5,0,0.9,0.4,0.9,0.9v3.1c0,0.5-0.4,0.9-0.9,0.9h-9.1v6.3h10.9c0.5,0,0.9,0.4,0.9,0.9v3.1
		C507.1,56.7,506.8,57,506.3,57z M491,30.8c-0.3,0-0.6,0.3-0.6,0.6v24.8c0,0.3,0.3,0.6,0.6,0.6h15.3c0.3,0,0.6-0.3,0.6-0.6v-3.1
		c0-0.3-0.3-0.6-0.6-0.6H495v-6.9h9.4c0.3,0,0.6-0.3,0.6-0.6V42c0-0.3-0.3-0.6-0.6-0.6H495V35h11.2c0.3,0,0.6-0.3,0.6-0.6v-3.1
		c0-0.3-0.3-0.6-0.6-0.6H491z"/>
	<path class="st1" d="M525.5,57.4h-0.7c-0.3,0-0.6-0.2-0.8-0.5l-6.5-14.5l-2.1,13.9c0,0.3-0.4,0.7-0.8,0.7h-3.4
		c-0.3,0-0.5-0.1-0.7-0.3c-0.2-0.2-0.2-0.5-0.2-0.8l4.5-25.2c0.1-0.4,0.4-0.7,0.8-0.7h0.6c0.3,0,0.6,0.2,0.8,0.5l8.2,17.5l8.2-17.5
		c0.2-0.3,0.4-0.5,0.8-0.5h0.6c0.4,0,0.8,0.3,0.8,0.7l4.4,25.2c0.1,0.3,0,0.6-0.1,0.7c-0.2,0.2-0.4,0.3-0.7,0.3h-3.4
		c-0.4,0-0.8-0.3-0.9-0.7l-2.2-13.9l-6.4,14.5C526.2,57.2,525.8,57.4,525.5,57.4z M517.3,42h0.3l6.7,14.8c0.1,0.2,0.3,0.3,0.5,0.3
		h0.7c0.3,0,0.4-0.2,0.5-0.3l6.6-14.8h0.3l0,0.1l2.2,14.2c0.1,0.2,0.3,0.4,0.6,0.4h3.4c0.2,0,0.4-0.1,0.4-0.2
		c0.1-0.1,0.1-0.3,0.1-0.5l-4.4-25.2c0-0.1-0.1-0.4-0.5-0.4h-0.6c-0.2,0-0.4,0.1-0.5,0.3l-8.3,17.8H525l0-0.1l-8.2-17.7
		c-0.1-0.2-0.3-0.3-0.5-0.3h-0.6c-0.3,0-0.5,0.2-0.5,0.4l0,0l-4.5,25.2c0,0.2,0,0.4,0.1,0.5c0.1,0.1,0.3,0.2,0.4,0.2h3.4
		c0.3,0,0.5-0.2,0.5-0.4L517.3,42z"/>
</g>
</svg>
