<?xml version="1.0" encoding="utf-8"?>
<!-- Generator: Adobe Illustrator 25.4.1, SVG Export Plug-In . SVG Version: 6.00 Build 0)  -->
<svg version="1.1" id="Capa_1" xmlns="http://www.w3.org/2000/svg" xmlns:xlink="http://www.w3.org/1999/xlink" x="0px" y="0px"
	 viewBox="0 0 511.7 56.4" style="enable-background:new 0 0 511.7 56.4;" xml:space="preserve">
<style type="text/css">
	.st0{opacity:0.2;}
	.st1{fill:#7AB2E1;}
</style>
<g class="st0">
	<path class="st1" d="M20.6,26.5h-3.9c-0.5,0-0.7-0.3-0.7-0.4L11,16.2H7.1v9.4c0,0.5-0.4,0.9-0.9,0.9H2.8c-0.5,0-0.9-0.4-0.9-0.9
		V0.8c0-0.5,0.4-0.9,0.9-0.9h10.7c4.6,0,8.3,3.7,8.3,8.2c0,3.3-2.1,6.2-5.5,7.6l5.1,9.4c0.2,0.3,0.2,0.6,0,0.9
		C21.2,26.3,20.9,26.5,20.6,26.5z M6.8,15.9h4.4l5,10c0,0.1,0.2,0.3,0.5,0.3h3.9c0.2,0,0.4-0.1,0.5-0.3c0.1-0.2,0.1-0.4,0-0.6
		l-5.2-9.7l0.2-0.1c3.4-1.4,5.5-4.2,5.5-7.4c0-4.4-3.6-7.9-8-7.9H2.8c-0.3,0-0.6,0.3-0.6,0.6v24.8c0,0.3,0.3,0.6,0.6,0.6h3.4
		c0.3,0,0.6-0.3,0.6-0.6V15.9z M13.1,12.2H6.8V4.4h6.3c2.1,0,3.9,1.7,3.9,3.8C16.9,10.4,15.2,12.2,13.1,12.2z M7.1,11.9h6
		c1.9,0,3.6-1.7,3.6-3.7c0-1.9-1.6-3.5-3.6-3.5h-6V11.9z"/>
	<path class="st1" d="M42.8,26.5H27.5c-0.5,0-0.9-0.4-0.9-0.9V0.8c0-0.5,0.4-0.9,0.9-0.9h15.2c0.5,0,0.9,0.4,0.9,0.9v3.1
		c0,0.5-0.4,0.9-0.9,0.9H31.8v5.8h9.1c0.5,0,0.9,0.4,0.9,0.9v3.1c0,0.5-0.4,0.9-0.9,0.9h-9.1v6.3h10.9c0.5,0,0.9,0.4,0.9,0.9v3.1
		C43.6,26.1,43.2,26.5,42.8,26.5z M27.5,0.2c-0.3,0-0.6,0.3-0.6,0.6v24.8c0,0.3,0.3,0.6,0.6,0.6h15.2c0.3,0,0.6-0.3,0.6-0.6v-3.1
		c0-0.3-0.3-0.6-0.6-0.6H31.5v-6.9h9.4c0.3,0,0.6-0.3,0.6-0.6v-3.1c0-0.3-0.3-0.6-0.6-0.6h-9.4V4.4h11.2c0.3,0,0.6-0.3,0.6-0.6V0.8
		c0-0.3-0.3-0.6-0.6-0.6H27.5z"/>
	<path class="st1" d="M59.9,26.8c-7.6,0-13.6-6-13.6-13.6c0-7.5,6.1-13.7,13.6-13.7c3.3,0,6.6,1.2,9.2,3.5c0.2,0.2,0.3,0.4,0.3,0.6
		c0,0.2-0.1,0.5-0.2,0.6l-2.3,2.4c-0.4,0.4-0.8,0.4-1.2,0c-1.6-1.4-3.5-2.1-5.6-2.1c-4.5,0-8.2,3.8-8.2,8.5c0,4.6,3.7,8.4,8.3,8.4
		c2,0,3.6-0.6,4.3-0.9v-2.9h-2.8c-0.5,0-0.9-0.4-0.9-0.8v-3c0-0.5,0.4-0.9,0.9-0.9h7.2c0.4,0,0.8,0.4,0.8,0.9v9.6
		c0,0.3-0.1,0.5-0.4,0.7C69.2,24.4,65.3,26.8,59.9,26.8z M59.9-0.1c-7.3,0-13.3,6-13.3,13.4c0,7.4,5.8,13.3,13.3,13.3
		c5.3,0,9.2-2.4,9.2-2.4c0.1-0.1,0.2-0.3,0.2-0.5V14c0-0.3-0.2-0.6-0.5-0.6h-7.2c-0.3,0-0.6,0.2-0.6,0.6v3c0,0.3,0.2,0.5,0.6,0.5
		h3.1v3.4l-0.1,0c-0.7,0.3-2.4,0.9-4.5,0.9c-4.7,0-8.6-3.9-8.6-8.7c0-4.9,3.8-8.8,8.5-8.8c2.1,0,4.1,0.8,5.8,2.2
		c0.3,0.2,0.5,0.3,0.8,0l2.3-2.4c0.1-0.1,0.2-0.3,0.2-0.4c0-0.2-0.1-0.3-0.2-0.4C66.3,1.1,63.1-0.1,59.9-0.1z"/>
	<path class="st1" d="M90.8,26.5H75.6c-0.5,0-0.9-0.4-0.9-0.9V0.8c0-0.5,0.4-0.9,0.9-0.9h15.2c0.5,0,0.9,0.4,0.9,0.9v3.1
		c0,0.5-0.4,0.9-0.9,0.9H79.9v5.8H89c0.5,0,0.9,0.4,0.9,0.9v3.1c0,0.5-0.4,0.9-0.9,0.9h-9.1v6.3h10.9c0.5,0,0.9,0.4,0.9,0.9v3.1
		C91.7,26.1,91.3,26.5,90.8,26.5z M75.6,0.2c-0.3,0-0.6,0.3-0.6,0.6v24.8c0,0.3,0.3,0.6,0.6,0.6h15.2c0.3,0,0.6-0.3,0.6-0.6v-3.1
		c0-0.3-0.3-0.6-0.6-0.6H79.6v-6.9H89c0.3,0,0.6-0.3,0.6-0.6v-3.1c0-0.3-0.3-0.6-0.6-0.6h-9.4V4.4h11.2c0.3,0,0.6-0.3,0.6-0.6V0.8
		c0-0.3-0.3-0.6-0.6-0.6H75.6z"/>
	<path class="st1" d="M117.9,26.8h-0.5c-0.3,0-0.5-0.1-0.7-0.3L101.4,9.8v15.8c0,0.5-0.4,0.9-0.9,0.9h-3.4c-0.5,0-0.9-0.4-0.9-0.9
		V0.4c0-0.4,0.4-0.8,0.9-0.8h0.6c0.3,0,0.5,0.1,0.7,0.3L113.6,16V0.8c0-0.5,0.4-0.9,0.9-0.9h3.4c0.5,0,0.9,0.4,0.9,0.9V26
		C118.7,26.5,118.3,26.8,117.9,26.8z M101.1,9.3h0.3l0,0l15.4,16.9c0.2,0.2,0.3,0.2,0.5,0.2h0.5c0.3,0,0.6-0.2,0.6-0.5V0.8
		c0-0.3-0.3-0.6-0.6-0.6h-3.4c-0.3,0-0.6,0.3-0.6,0.6v15.6h-0.3L98.2,0.1c-0.2-0.2-0.3-0.2-0.5-0.2h-0.6c-0.3,0-0.6,0.2-0.6,0.5
		v25.2c0,0.3,0.3,0.6,0.6,0.6h3.4c0.3,0,0.6-0.3,0.6-0.6V9.3z"/>
	<path class="st1" d="M140.9,26.5h-15.2c-0.5,0-0.9-0.4-0.9-0.9V0.8c0-0.5,0.4-0.9,0.9-0.9h15.2c0.5,0,0.9,0.4,0.9,0.9v3.1
		c0,0.5-0.4,0.9-0.9,0.9H130v5.8h9.1c0.5,0,0.9,0.4,0.9,0.9v3.1c0,0.5-0.4,0.9-0.9,0.9H130v6.3h10.9c0.5,0,0.9,0.4,0.9,0.9v3.1
		C141.8,26.1,141.4,26.5,140.9,26.5z M125.7,0.2c-0.3,0-0.6,0.3-0.6,0.6v24.8c0,0.3,0.3,0.6,0.6,0.6h15.2c0.3,0,0.6-0.3,0.6-0.6
		v-3.1c0-0.3-0.3-0.6-0.6-0.6h-11.2v-6.9h9.4c0.3,0,0.6-0.3,0.6-0.6v-3.1c0-0.3-0.3-0.6-0.6-0.6h-9.4V4.4h11.2
		c0.3,0,0.6-0.3,0.6-0.6V0.8c0-0.3-0.3-0.6-0.6-0.6H125.7z"/>
	<path class="st1" d="M165.1,26.5h-3.9c-0.5,0-0.7-0.3-0.7-0.4l-4.9-9.8h-3.9v9.4c0,0.5-0.4,0.9-0.9,0.9h-3.4
		c-0.5,0-0.9-0.4-0.9-0.9V0.8c0-0.5,0.4-0.9,0.9-0.9H158c4.6,0,8.3,3.7,8.3,8.2c0,3.3-2.1,6.2-5.5,7.6l5.1,9.4
		c0.2,0.3,0.2,0.6,0,0.9C165.7,26.3,165.4,26.5,165.1,26.5z M151.2,15.9h4.4l5,10c0,0.1,0.2,0.3,0.5,0.3h3.9c0.2,0,0.4-0.1,0.5-0.3
		c0.1-0.2,0.1-0.4,0-0.6l-5.2-9.7l0.2-0.1c3.4-1.4,5.5-4.2,5.5-7.4c0-4.4-3.6-7.9-8-7.9h-10.7c-0.3,0-0.6,0.3-0.6,0.6v24.8
		c0,0.3,0.3,0.6,0.6,0.6h3.4c0.3,0,0.6-0.3,0.6-0.6V15.9z M157.5,12.2h-6.3V4.4h6.3c2.1,0,3.9,1.7,3.9,3.8
		C161.4,10.4,159.6,12.2,157.5,12.2z M151.6,11.9h6c1.9,0,3.6-1.7,3.6-3.7c0-1.9-1.6-3.5-3.6-3.5h-6V11.9z"/>
	<path class="st1" d="M192.3,26.5h-3.3c-0.7,0-1-0.3-1.2-0.8l-1.8-4h-11l-1.8,4c-0.1,0.2-0.4,0.8-1.2,0.8h-3.3
		c-0.3,0-0.6-0.1-0.7-0.4c-0.2-0.2-0.2-0.5,0-0.8l11.7-25.2c0.2-0.3,0.4-0.5,0.8-0.5h0.4c0.5,0,0.6,0.2,0.8,0.5l11.5,25.2
		c0.1,0.3,0.1,0.6,0,0.8C192.9,26.3,192.7,26.5,192.3,26.5z M174.9,21.4h11.4l1.9,4.1c0.3,0.5,0.5,0.7,0.9,0.7h3.3
		c0.2,0,0.4-0.1,0.5-0.2c0.1-0.1,0.1-0.3,0-0.5L181.3,0.2c-0.1-0.2-0.2-0.3-0.5-0.3h-0.4c-0.2,0-0.4,0.1-0.5,0.3l-11.6,25.2
		c-0.1,0.2-0.1,0.4,0,0.5c0.1,0.1,0.3,0.2,0.5,0.2h3.3c0.6,0,0.8-0.4,0.9-0.7L174.9,21.4z M184.6,17.5h-8l3.8-8.5h0.3L184.6,17.5z
		 M177,17.2h7.1l-3.6-7.9L177,17.2z"/>
	<path class="st1" d="M203,26.5h-3.5c-0.5,0-0.9-0.4-0.9-0.9V4.7h-5.6c-0.5,0-0.9-0.4-0.9-0.9V0.8c0-0.5,0.4-0.9,0.9-0.9h16.4
		c0.5,0,0.9,0.4,0.9,0.9v3.1c0,0.5-0.4,0.9-0.9,0.9h-5.6v20.9C203.9,26.1,203.5,26.5,203,26.5z M193.1,0.2c-0.3,0-0.6,0.3-0.6,0.6
		v3.1c0,0.3,0.3,0.6,0.6,0.6h5.9v21.2c0,0.3,0.3,0.6,0.6,0.6h3.5c0.3,0,0.6-0.3,0.6-0.6V4.4h5.9c0.3,0,0.6-0.3,0.6-0.6V0.8
		c0-0.3-0.3-0.6-0.6-0.6H193.1z"/>
	<path class="st1" d="M218.5,26.5H215c-0.5,0-0.9-0.4-0.9-0.9V0.8c0-0.5,0.4-0.9,0.9-0.9h3.5c0.5,0,0.9,0.4,0.9,0.9v24.8
		C219.4,26.1,219,26.5,218.5,26.5z M215,0.2c-0.3,0-0.6,0.3-0.6,0.6v24.8c0,0.3,0.3,0.6,0.6,0.6h3.5c0.3,0,0.6-0.3,0.6-0.6V0.8
		c0-0.3-0.3-0.6-0.6-0.6H215z"/>
	<path class="st1" d="M235.1,26.8h-0.4c-0.3,0-0.6-0.2-0.8-0.5L222.3,1.1c-0.1-0.3-0.1-0.6,0-0.8c0.2-0.2,0.4-0.4,0.7-0.4h3.8
		c0.4,0,0.7,0.3,0.8,0.5l7.2,16l7.2-16c0.1-0.2,0.4-0.5,0.8-0.5h3.8c0.3,0,0.6,0.1,0.7,0.4c0.2,0.2,0.2,0.5,0,0.8l-11.6,25.2
		C235.7,26.7,235.4,26.8,235.1,26.8z M223.1,0.2c-0.2,0-0.4,0.1-0.5,0.2c-0.1,0.1-0.1,0.3,0,0.5v0l11.6,25.2
		c0.1,0.2,0.3,0.3,0.5,0.3h0.4c0.2,0,0.4-0.1,0.5-0.3L247.2,1c0.1-0.2,0.1-0.4,0-0.5c-0.1-0.1-0.3-0.2-0.5-0.2h-3.8
		c-0.3,0-0.5,0.2-0.5,0.3l-7.3,16.2h-0.4l0-0.1l-7.2-16.1c0-0.1-0.2-0.3-0.5-0.3H223.1z"/>
	<path class="st1" d="M266.5,26.5h-15.2c-0.5,0-0.9-0.4-0.9-0.9V0.8c0-0.5,0.4-0.9,0.9-0.9h15.2c0.5,0,0.9,0.4,0.9,0.9v3.1
		c0,0.5-0.4,0.9-0.9,0.9h-10.9v5.8h9.1c0.5,0,0.9,0.4,0.9,0.9v3.1c0,0.5-0.4,0.9-0.9,0.9h-9.1v6.3h10.9c0.5,0,0.9,0.4,0.9,0.9v3.1
		C267.3,26.1,267,26.5,266.5,26.5z M251.2,0.2c-0.3,0-0.6,0.3-0.6,0.6v24.8c0,0.3,0.3,0.6,0.6,0.6h15.2c0.3,0,0.6-0.3,0.6-0.6v-3.1
		c0-0.3-0.3-0.6-0.6-0.6h-11.2v-6.9h9.4c0.3,0,0.6-0.3,0.6-0.6v-3.1c0-0.3-0.3-0.6-0.6-0.6h-9.4V4.4h11.2c0.3,0,0.6-0.3,0.6-0.6V0.8
		c0-0.3-0.3-0.6-0.6-0.6H251.2z"/>
	<path class="st1" d="M290.6,26.5h-3.9c-0.5,0-0.7-0.3-0.7-0.4l-4.9-9.8h-3.9v9.4c0,0.5-0.4,0.9-0.9,0.9h-3.4
		c-0.5,0-0.9-0.4-0.9-0.9V0.8c0-0.5,0.4-0.9,0.9-0.9h10.7c4.6,0,8.3,3.7,8.3,8.2c0,3.3-2.1,6.2-5.5,7.6l5.1,9.4
		c0.2,0.3,0.2,0.6,0,0.9C291.3,26.3,291,26.5,290.6,26.5z M276.8,15.9h4.4l0,0.1l5,9.9c0,0.1,0.2,0.3,0.5,0.3h3.9
		c0.2,0,0.4-0.1,0.5-0.3c0.1-0.2,0.1-0.4,0-0.6l-5.2-9.7l0.2-0.1c3.4-1.4,5.5-4.2,5.5-7.4c0-4.4-3.6-7.9-8-7.9h-10.7
		c-0.3,0-0.6,0.3-0.6,0.6v24.8c0,0.3,0.3,0.6,0.6,0.6h3.4c0.3,0,0.6-0.3,0.6-0.6V15.9z M283.1,12.2h-6.3V4.4h6.3
		c2.1,0,3.9,1.7,3.9,3.8C287,10.4,285.2,12.2,283.1,12.2z M277.2,11.9h6c1.9,0,3.6-1.7,3.6-3.7c0-1.9-1.6-3.5-3.6-3.5h-6V11.9z"/>
	<path class="st1" d="M312.8,26.5h-15.2c-0.5,0-0.9-0.4-0.9-0.9V0.8c0-0.5,0.4-0.9,0.9-0.9h15.2c0.5,0,0.9,0.4,0.9,0.9v3.1
		c0,0.5-0.4,0.9-0.9,0.9h-10.9v5.8h9.1c0.5,0,0.9,0.4,0.9,0.9v3.1c0,0.5-0.4,0.9-0.9,0.9h-9.1v6.3h10.9c0.5,0,0.9,0.4,0.9,0.9v3.1
		C313.6,26.1,313.3,26.5,312.8,26.5z M297.5,0.2c-0.3,0-0.6,0.3-0.6,0.6v24.8c0,0.3,0.3,0.6,0.6,0.6h15.2c0.3,0,0.6-0.3,0.6-0.6
		v-3.1c0-0.3-0.3-0.6-0.6-0.6h-11.2v-6.9h9.4c0.3,0,0.6-0.3,0.6-0.6v-3.1c0-0.3-0.3-0.6-0.6-0.6h-9.4V4.4h11.2
		c0.3,0,0.6-0.3,0.6-0.6V0.8c0-0.3-0.3-0.6-0.6-0.6H297.5z"/>
	<path class="st1" d="M329.9,26.8c-7.6,0-13.6-6-13.6-13.6c0-7.5,6.1-13.7,13.6-13.7c3.3,0,6.6,1.2,9.2,3.5c0.4,0.4,0.4,0.9,0,1.3
		l-2.3,2.4c-0.4,0.4-0.8,0.4-1.2,0c-1.6-1.4-3.5-2.1-5.6-2.1c-4.5,0-8.2,3.8-8.2,8.5c0,4.6,3.7,8.4,8.3,8.4c2,0,3.6-0.6,4.3-0.9
		v-2.9h-2.8c-0.5,0-0.9-0.4-0.9-0.8v-3c0-0.5,0.4-0.9,0.9-0.9h7.2c0.4,0,0.8,0.4,0.8,0.9v9.6c0,0.3-0.1,0.5-0.4,0.7
		C339.2,24.4,335.3,26.8,329.9,26.8z M329.9-0.1c-7.3,0-13.3,6-13.3,13.4c0,7.4,5.8,13.3,13.3,13.3c5.3,0,9.2-2.4,9.2-2.4
		c0.1-0.1,0.2-0.3,0.2-0.5V14c0-0.3-0.2-0.6-0.5-0.6h-7.2c-0.3,0-0.6,0.2-0.6,0.6v3c0,0.3,0.2,0.5,0.6,0.5h3.1v3.4l-0.1,0
		c-0.7,0.3-2.4,0.9-4.5,0.9c-4.7,0-8.6-3.9-8.6-8.7c0-4.9,3.8-8.8,8.5-8.8c2.1,0,4.1,0.8,5.8,2.2c0.3,0.3,0.5,0.2,0.8,0l2.3-2.4
		c0.2-0.2,0.2-0.6,0-0.8C336.3,1.1,333.1-0.1,329.9-0.1z"/>
	<path class="st1" d="M360.9,26.5h-15.2c-0.5,0-0.9-0.4-0.9-0.9V0.8c0-0.5,0.4-0.9,0.9-0.9h15.2c0.5,0,0.9,0.4,0.9,0.9v3.1
		c0,0.5-0.4,0.9-0.9,0.9h-10.9v5.8h9.1c0.5,0,0.9,0.4,0.9,0.9v3.1c0,0.5-0.4,0.9-0.9,0.9h-9.1v6.3h10.9c0.5,0,0.9,0.4,0.9,0.9v3.1
		C361.7,26.1,361.3,26.5,360.9,26.5z M345.6,0.2c-0.3,0-0.6,0.3-0.6,0.6v24.8c0,0.3,0.3,0.6,0.6,0.6h15.2c0.3,0,0.6-0.3,0.6-0.6
		v-3.1c0-0.3-0.3-0.6-0.6-0.6h-11.2v-6.9h9.4c0.3,0,0.6-0.3,0.6-0.6v-3.1c0-0.3-0.3-0.6-0.6-0.6h-9.4V4.4h11.2
		c0.3,0,0.6-0.3,0.6-0.6V0.8c0-0.3-0.3-0.6-0.6-0.6H345.6z"/>
	<path class="st1" d="M387.9,26.8h-0.5c-0.3,0-0.5-0.1-0.7-0.3L371.5,9.8v15.8c0,0.5-0.4,0.9-0.9,0.9h-3.4c-0.5,0-0.9-0.4-0.9-0.9
		V0.4c0-0.4,0.4-0.8,0.9-0.8h0.6c0.3,0,0.5,0.1,0.7,0.3L383.6,16V0.8c0-0.5,0.4-0.9,0.9-0.9h3.4c0.5,0,0.9,0.4,0.9,0.9V26
		C388.8,26.5,388.4,26.8,387.9,26.8z M371.2,9.3h0.3l0,0l15.4,16.9c0.2,0.2,0.3,0.2,0.5,0.2h0.5c0.3,0,0.6-0.2,0.6-0.5V0.8
		c0-0.3-0.3-0.6-0.6-0.6h-3.4c-0.3,0-0.6,0.3-0.6,0.6v15.6h-0.3l0,0L368.3,0.1c-0.2-0.2-0.3-0.2-0.5-0.2h-0.6
		c-0.3,0-0.6,0.2-0.6,0.5v25.2c0,0.3,0.3,0.6,0.6,0.6h3.4c0.3,0,0.6-0.3,0.6-0.6V9.3z"/>
	<path class="st1" d="M410.9,26.5h-15.2c-0.5,0-0.9-0.4-0.9-0.9V0.8c0-0.5,0.4-0.9,0.9-0.9h15.2c0.5,0,0.9,0.4,0.9,0.9v3.1
		c0,0.5-0.4,0.9-0.9,0.9H400v5.8h9.1c0.5,0,0.9,0.4,0.9,0.9v3.1c0,0.5-0.4,0.9-0.9,0.9H400v6.3h10.9c0.5,0,0.9,0.4,0.9,0.9v3.1
		C411.8,26.1,411.4,26.5,410.9,26.5z M395.7,0.2c-0.3,0-0.6,0.3-0.6,0.6v24.8c0,0.3,0.3,0.6,0.6,0.6h15.2c0.3,0,0.6-0.3,0.6-0.6
		v-3.1c0-0.3-0.3-0.6-0.6-0.6h-11.2v-6.9h9.4c0.3,0,0.6-0.3,0.6-0.6v-3.1c0-0.3-0.3-0.6-0.6-0.6h-9.4V4.4h11.2
		c0.3,0,0.6-0.3,0.6-0.6V0.8c0-0.3-0.3-0.6-0.6-0.6H395.7z"/>
	<path class="st1" d="M435.1,26.5h-3.9c-0.5,0-0.7-0.3-0.7-0.4l-4.9-9.8h-3.9v9.4c0,0.5-0.4,0.9-0.9,0.9h-3.4
		c-0.5,0-0.9-0.4-0.9-0.9V0.8c0-0.5,0.4-0.9,0.9-0.9H428c4.6,0,8.3,3.7,8.3,8.2c0,3.3-2.1,6.2-5.5,7.6l5.1,9.4
		c0.2,0.3,0.2,0.6,0,0.9C435.7,26.3,435.4,26.5,435.1,26.5z M421.3,15.9h4.4l0,0.1l5,9.9c0,0.1,0.2,0.3,0.5,0.3h3.9
		c0.2,0,0.4-0.1,0.5-0.3c0.1-0.2,0.1-0.4,0-0.6l-5.2-9.7l0.2-0.1c3.4-1.4,5.4-4.2,5.4-7.4c0-4.4-3.6-7.9-8-7.9h-10.7
		c-0.3,0-0.6,0.3-0.6,0.6v24.8c0,0.3,0.3,0.6,0.6,0.6h3.4c0.3,0,0.6-0.3,0.6-0.6V15.9z M427.6,12.2h-6.3V4.4h6.3
		c2.1,0,3.9,1.7,3.9,3.8C431.4,10.4,429.7,12.2,427.6,12.2z M421.6,11.9h6c1.9,0,3.6-1.7,3.6-3.7c0-1.9-1.6-3.5-3.6-3.5h-6V11.9z"/>
	<path class="st1" d="M462.4,26.5h-3.3c-0.7,0-1-0.3-1.2-0.8l-1.8-4h-11l-1.8,4c-0.1,0.2-0.4,0.8-1.2,0.8h-3.3
		c-0.3,0-0.6-0.1-0.7-0.4c-0.2-0.2-0.2-0.5,0-0.8l11.6-25.2c0.2-0.3,0.4-0.5,0.8-0.5h0.4c0.5,0,0.6,0.2,0.8,0.5l11.5,25.2
		c0.1,0.3,0.1,0.6,0,0.8C463,26.3,462.7,26.5,462.4,26.5z M444.9,21.4h11.4l1.9,4.1c0.3,0.5,0.5,0.7,1,0.7h3.3
		c0.2,0,0.4-0.1,0.5-0.2c0.1-0.1,0.1-0.3,0-0.5L451.3,0.2c-0.1-0.2-0.2-0.3-0.5-0.3h-0.4c-0.2,0-0.4,0.1-0.5,0.3l-11.6,25.2
		c-0.1,0.2-0.1,0.4,0,0.5c0.1,0.1,0.3,0.2,0.5,0.2h3.3c0.6,0,0.8-0.4,0.9-0.7L444.9,21.4z M454.6,17.5h-8l0.1-0.2l3.7-8.3h0.3
		L454.6,17.5z M447.1,17.2h7.1l-3.6-7.9L447.1,17.2z"/>
	<path class="st1" d="M473.1,26.5h-3.5c-0.5,0-0.9-0.4-0.9-0.9V4.7h-5.6c-0.5,0-0.9-0.4-0.9-0.9V0.8c0-0.5,0.4-0.9,0.9-0.9h16.4
		c0.5,0,0.9,0.4,0.9,0.9v3.1c0,0.5-0.4,0.9-0.9,0.9h-5.6v20.9C473.9,26.1,473.5,26.5,473.1,26.5z M463.1,0.2c-0.3,0-0.6,0.3-0.6,0.6
		v3.1c0,0.3,0.3,0.6,0.6,0.6h5.9v21.2c0,0.3,0.3,0.6,0.6,0.6h3.5c0.3,0,0.6-0.3,0.6-0.6V4.4h5.9c0.3,0,0.6-0.3,0.6-0.6V0.8
		c0-0.3-0.3-0.6-0.6-0.6H463.1z"/>
	<path class="st1" d="M488.6,26.5h-3.5c-0.5,0-0.9-0.4-0.9-0.9V0.8c0-0.5,0.4-0.9,0.9-0.9h3.5c0.5,0,0.9,0.4,0.9,0.9v24.8
		C489.4,26.1,489,26.5,488.6,26.5z M485.1,0.2c-0.3,0-0.6,0.3-0.6,0.6v24.8c0,0.3,0.3,0.6,0.6,0.6h3.5c0.3,0,0.6-0.3,0.6-0.6V0.8
		c0-0.3-0.3-0.6-0.6-0.6H485.1z"/>
	<path class="st1" d="M505.1,26.8h-0.4c-0.3,0-0.6-0.2-0.8-0.5L492.4,1.1c-0.1-0.3-0.1-0.6,0-0.8c0.2-0.2,0.4-0.4,0.7-0.4h3.8
		c0.4,0,0.7,0.3,0.8,0.5l7.2,16l7.2-16c0.1-0.2,0.4-0.5,0.8-0.5h3.8c0.3,0,0.6,0.1,0.7,0.4c0.2,0.2,0.2,0.5,0,0.8l-11.6,25.2
		C505.7,26.7,505.4,26.8,505.1,26.8z M493.1,0.2c-0.2,0-0.4,0.1-0.5,0.2c-0.1,0.1-0.1,0.3,0,0.5l0,0l11.6,25.2
		c0.1,0.2,0.3,0.3,0.5,0.3h0.4c0.2,0,0.4-0.1,0.5-0.3L517.2,1c0.1-0.2,0.1-0.4,0-0.5c-0.1-0.1-0.3-0.2-0.5-0.2h-3.8
		c-0.3,0-0.5,0.2-0.5,0.3l-7.3,16.2h-0.4l0-0.1l-7.2-16.1c0-0.1-0.2-0.3-0.5-0.3H493.1z"/>
	<path class="st1" d="M536.5,26.5h-15.2c-0.5,0-0.9-0.4-0.9-0.9V0.8c0-0.5,0.4-0.9,0.9-0.9h15.2c0.5,0,0.9,0.4,0.9,0.9v3.1
		c0,0.5-0.4,0.9-0.9,0.9h-10.9v5.8h9.1c0.5,0,0.9,0.4,0.9,0.9v3.1c0,0.5-0.4,0.9-0.9,0.9h-9.1v6.3h10.9c0.5,0,0.9,0.4,0.9,0.9v3.1
		C537.4,26.1,537,26.5,536.5,26.5z M521.3,0.2c-0.3,0-0.6,0.3-0.6,0.6v24.8c0,0.3,0.3,0.6,0.6,0.6h15.2c0.3,0,0.6-0.3,0.6-0.6v-3.1
		c0-0.3-0.3-0.6-0.6-0.6h-11.2v-6.9h9.4c0.3,0,0.6-0.3,0.6-0.6v-3.1c0-0.3-0.3-0.6-0.6-0.6h-9.4V4.4h11.2c0.3,0,0.6-0.3,0.6-0.6V0.8
		c0-0.3-0.3-0.6-0.6-0.6H521.3z"/>
	<path class="st1" d="M20.6,56.5h-3.9c-0.5,0-0.7-0.3-0.7-0.4L11,46.2H7.1v9.4c0,0.5-0.4,0.9-0.9,0.9H2.8c-0.5,0-0.9-0.4-0.9-0.9
		V30.8c0-0.5,0.4-0.9,0.9-0.9h10.7c4.6,0,8.3,3.7,8.3,8.2c0,3.3-2.1,6.2-5.5,7.6l5.1,9.4c0.2,0.3,0.2,0.6,0,0.9
		C21.2,56.3,20.9,56.5,20.6,56.5z M6.8,45.9h4.4l5,10c0,0.1,0.2,0.3,0.5,0.3h3.9c0.2,0,0.4-0.1,0.5-0.3c0.1-0.2,0.1-0.4,0-0.6
		l-5.2-9.7l0.2-0.1c3.4-1.4,5.5-4.2,5.5-7.4c0-4.4-3.6-7.9-8-7.9H2.8c-0.3,0-0.6,0.3-0.6,0.6v24.8c0,0.3,0.3,0.6,0.6,0.6h3.4
		c0.3,0,0.6-0.3,0.6-0.6V45.9z M13.1,42.2H6.8v-7.8h6.3c2.1,0,3.9,1.7,3.9,3.8C16.9,40.4,15.2,42.2,13.1,42.2z M7.1,41.9h6
		c1.9,0,3.6-1.7,3.6-3.7c0-1.9-1.6-3.5-3.6-3.5h-6V41.9z"/>
	<path class="st1" d="M47.9,56.5h-3.3c-0.7,0-1-0.3-1.2-0.8l-1.8-4h-11l-1.8,4c-0.1,0.2-0.4,0.8-1.2,0.8h-3.3
		c-0.3,0-0.6-0.1-0.7-0.4c-0.2-0.2-0.2-0.5,0-0.8l11.7-25.2c0.2-0.3,0.4-0.5,0.8-0.5h0.4c0.5,0,0.6,0.3,0.8,0.5l11.5,25.2
		c0.1,0.3,0.1,0.6,0,0.8C48.5,56.3,48.2,56.5,47.9,56.5z M30.4,51.4h11.4l1.9,4.1c0.3,0.5,0.5,0.7,0.9,0.7h3.3
		c0.2,0,0.4-0.1,0.5-0.2c0.1-0.1,0.1-0.3,0-0.5L36.8,30.2c-0.1-0.2-0.2-0.3-0.5-0.3H36c-0.2,0-0.4,0.1-0.5,0.3L23.8,55.4
		c-0.1,0.2-0.1,0.4,0,0.5c0.1,0.1,0.3,0.2,0.5,0.2h3.3c0.6,0,0.8-0.4,0.9-0.7L30.4,51.4z M40.1,47.5h-8l0.1-0.2l3.7-8.3h0.3
		L40.1,47.5z M32.6,47.2h7.1l-3.6-7.8L32.6,47.2z"/>
	<path class="st1" d="M58.6,56.5h-3.5c-0.5,0-0.9-0.4-0.9-0.9V34.7h-5.6c-0.5,0-0.9-0.4-0.9-0.9v-3.1c0-0.5,0.4-0.9,0.9-0.9H65
		c0.5,0,0.9,0.4,0.9,0.9v3.1c0,0.5-0.4,0.9-0.9,0.9h-5.6v20.9C59.4,56.1,59,56.5,58.6,56.5z M48.6,30.2c-0.3,0-0.6,0.3-0.6,0.6v3.1
		c0,0.3,0.3,0.6,0.6,0.6h5.9v21.2c0,0.3,0.3,0.6,0.6,0.6h3.5c0.3,0,0.6-0.3,0.6-0.6V34.4H65c0.3,0,0.6-0.3,0.6-0.6v-3.1
		c0-0.3-0.3-0.6-0.6-0.6H48.6z"/>
	<path class="st1" d="M74.1,56.5h-3.5c-0.5,0-0.9-0.4-0.9-0.9V30.8c0-0.5,0.4-0.9,0.9-0.9h3.5c0.5,0,0.9,0.4,0.9,0.9v24.8
		C74.9,56.1,74.5,56.5,74.1,56.5z M70.6,30.2c-0.3,0-0.6,0.3-0.6,0.6v24.8c0,0.3,0.3,0.6,0.6,0.6h3.5c0.3,0,0.6-0.3,0.6-0.6V30.8
		c0-0.3-0.3-0.6-0.6-0.6H70.6z"/>
	<path class="st1" d="M90.6,56.8h-0.4c-0.3,0-0.6-0.2-0.8-0.5L77.9,31.1c-0.1-0.3-0.1-0.6,0-0.8c0.2-0.2,0.4-0.4,0.7-0.4h3.8
		c0.4,0,0.7,0.3,0.8,0.5l7.2,16l7.2-16c0.1-0.2,0.4-0.5,0.8-0.5h3.8c0.3,0,0.6,0.1,0.7,0.4c0.2,0.2,0.2,0.5,0,0.8L91.4,56.3
		C91.2,56.7,90.9,56.8,90.6,56.8z M78.6,30.2c-0.2,0-0.4,0.1-0.5,0.2c-0.1,0.1-0.1,0.3,0,0.5l11.6,25.2c0.1,0.2,0.3,0.3,0.5,0.3h0.4
		c0.2,0,0.4-0.1,0.5-0.3L102.7,31c0.1-0.2,0.1-0.4,0-0.5c-0.1-0.1-0.3-0.2-0.5-0.2h-3.8c-0.3,0-0.5,0.2-0.5,0.3l-7.3,16.2h-0.4
		l0-0.1L83,30.6c0-0.1-0.2-0.3-0.5-0.3H78.6z"/>
	<path class="st1" d="M122,56.5h-15.2c-0.5,0-0.9-0.4-0.9-0.9V30.8c0-0.5,0.4-0.9,0.9-0.9H122c0.5,0,0.9,0.4,0.9,0.9v3.1
		c0,0.5-0.4,0.9-0.9,0.9h-10.9v5.8h9.1c0.5,0,0.9,0.4,0.9,0.9v3.1c0,0.5-0.4,0.9-0.9,0.9h-9.1v6.3H122c0.5,0,0.9,0.4,0.9,0.9v3.1
		C122.9,56.1,122.5,56.5,122,56.5z M106.8,30.2c-0.3,0-0.6,0.3-0.6,0.6v24.8c0,0.3,0.3,0.6,0.6,0.6H122c0.3,0,0.6-0.3,0.6-0.6v-3.1
		c0-0.3-0.3-0.6-0.6-0.6h-11.2v-6.9h9.4c0.3,0,0.6-0.3,0.6-0.6v-3.1c0-0.3-0.3-0.6-0.6-0.6h-9.4v-6.4H122c0.3,0,0.6-0.3,0.6-0.6
		v-3.1c0-0.3-0.3-0.6-0.6-0.6H106.8z"/>
	<path class="st1" d="M139.2,56.8c-7.5,0-13.7-6.1-13.7-13.6c0-7.5,6.1-13.7,13.7-13.7c3.6,0,6.5,1.1,9.2,3.5
		c0.2,0.2,0.3,0.4,0.3,0.6c0,0.2-0.1,0.5-0.3,0.6l-2.3,2.4c-0.1,0.2-0.3,0.3-0.5,0.3c0,0,0,0,0,0c-0.2,0-0.4-0.1-0.6-0.3
		c-1.6-1.4-3.6-2.2-5.7-2.2c-4.6,0-8.2,3.8-8.2,8.6c0,4.8,3.6,8.5,8.2,8.5c2,0,3.9-0.7,5.6-2.1c0.4-0.3,0.9-0.3,1.1,0l2.3,2.4
		c0.1,0.1,0.2,0.3,0.2,0.5c0,0.3-0.1,0.5-0.3,0.7C146,55.6,142.8,56.8,139.2,56.8z M139.2,29.9c-7.4,0-13.4,6-13.4,13.4
		c0,7.3,6,13.3,13.4,13.3c3.5,0,6.6-1.2,9-3.6c0.1-0.1,0.2-0.3,0.2-0.5c0-0.1,0-0.2-0.1-0.3l-2.3-2.4c-0.2-0.2-0.5-0.2-0.7,0
		c-1.8,1.4-3.7,2.2-5.8,2.2c-4.8,0-8.5-3.9-8.5-8.8c0-5,3.7-8.9,8.5-8.9c2.1,0,4.2,0.8,5.9,2.2c0.1,0.1,0.3,0.2,0.4,0.2c0,0,0,0,0,0
		c0.1,0,0.2-0.1,0.3-0.2l2.3-2.4c0.1-0.1,0.2-0.3,0.2-0.4c0-0.2-0.1-0.3-0.2-0.4C145.5,30.9,142.8,29.9,139.2,29.9z"/>
	<path class="st1" d="M164.3,56.8c-7.6,0-13.6-6-13.6-13.6c0-7.5,6.1-13.7,13.6-13.7c7.5,0,13.6,6.1,13.6,13.7
		C178,50.9,172,56.8,164.3,56.8z M164.3,29.9c-7.3,0-13.3,6-13.3,13.4c0,7.5,5.8,13.3,13.3,13.3c7.5,0,13.3-5.8,13.3-13.3
		C177.7,35.9,171.7,29.9,164.3,29.9z M164.3,52c-4.8,0-8.7-3.9-8.7-8.7c0-4.9,3.9-8.8,8.7-8.8c4.8,0,8.8,4,8.8,8.8
		C173.1,48.1,169.2,52,164.3,52z M164.3,34.7c-4.6,0-8.4,3.8-8.4,8.5c0,4.6,3.8,8.4,8.4,8.4c4.7,0,8.5-3.8,8.5-8.4
		C172.8,38.6,168.9,34.7,164.3,34.7z"/>
	<path class="st1" d="M196,56.8h-0.7c-0.3,0-0.6-0.2-0.8-0.5L188,41.9l-2.1,13.9c0,0.3-0.4,0.7-0.8,0.7h-3.4c-0.3,0-0.5-0.1-0.7-0.3
		c-0.2-0.2-0.2-0.5-0.2-0.8l4.5-25.2c0.1-0.4,0.4-0.7,0.8-0.7h0.6c0.3,0,0.6,0.2,0.8,0.5l8.2,17.5l8.2-17.5c0.2-0.3,0.4-0.5,0.8-0.5
		h0.6c0.4,0,0.8,0.3,0.8,0.7l4.4,25.2c0.1,0.3,0,0.6-0.1,0.7c-0.2,0.2-0.4,0.3-0.7,0.3h-3.4c-0.4,0-0.8-0.3-0.9-0.7l-2.2-13.9
		l-6.4,14.4C196.7,56.6,196.3,56.8,196,56.8z M187.8,41.4h0.3l0,0.1l6.6,14.7c0.1,0.2,0.3,0.3,0.5,0.3h0.7c0.3,0,0.4-0.2,0.5-0.3
		l6.6-14.8h0.3l0,0.1l2.2,14.2c0.1,0.2,0.3,0.4,0.6,0.4h3.4c0.2,0,0.4-0.1,0.4-0.2c0.1-0.1,0.1-0.3,0.1-0.5l-4.4-25.2
		c0-0.1-0.1-0.4-0.5-0.4h-0.6c-0.2,0-0.4,0.1-0.5,0.3l-8.3,17.8h-0.3l0-0.1l-8.2-17.7c-0.1-0.2-0.3-0.3-0.5-0.3h-0.6
		c-0.4,0-0.5,0.3-0.5,0.4l0,0l-4.5,25.2c0,0.2,0,0.4,0.1,0.5c0.1,0.1,0.3,0.2,0.4,0.2h3.4c0.3,0,0.5-0.2,0.5-0.4L187.8,41.4z"/>
	<path class="st1" d="M219.4,56.5h-3.4c-0.5,0-0.9-0.4-0.9-0.9V30.8c0-0.5,0.4-0.9,0.9-0.9h8.8c4.7,0,8.5,3.8,8.5,8.4
		c0,4.7-3.8,8.6-8.5,8.6h-4.5v8.7C220.3,56.1,219.9,56.5,219.4,56.5z M215.9,30.2c-0.3,0-0.6,0.3-0.6,0.6v24.8
		c0,0.3,0.3,0.6,0.6,0.6h3.4c0.3,0,0.6-0.3,0.6-0.6v-9h4.8c4.5,0,8.2-3.7,8.2-8.3c0-4.5-3.7-8.1-8.2-8.1H215.9z M224.6,42.4H220
		v-7.8h4.6c2.2,0,3.9,1.6,3.9,3.8C228.5,40.6,226.8,42.4,224.6,42.4z M220.3,42.1h4.3c2,0,3.6-1.6,3.6-3.7c0-2-1.5-3.5-3.6-3.5h-4.3
		V42.1z"/>
	<path class="st1" d="M256.3,56.5H253c-0.7,0-1-0.3-1.2-0.8l-1.8-4h-11l-1.8,4c-0.1,0.2-0.4,0.8-1.2,0.8h-3.3
		c-0.3,0-0.6-0.1-0.7-0.4c-0.2-0.2-0.2-0.5,0-0.8l11.7-25.2c0.2-0.3,0.4-0.5,0.8-0.5h0.4c0.5,0,0.6,0.3,0.8,0.5l11.5,25.2
		c0.1,0.3,0.1,0.6,0,0.8C256.9,56.3,256.6,56.5,256.3,56.5z M238.8,51.4h11.4l1.9,4.1c0.3,0.5,0.5,0.7,0.9,0.7h3.3
		c0.2,0,0.4-0.1,0.5-0.2c0.1-0.1,0.1-0.3,0-0.5l-11.5-25.2c-0.1-0.2-0.2-0.3-0.5-0.3h-0.4c-0.2,0-0.4,0.1-0.5,0.3l-11.6,25.2
		c-0.1,0.2-0.1,0.4,0,0.5c0.1,0.1,0.3,0.2,0.5,0.2h3.3c0.6,0,0.8-0.4,0.9-0.7L238.8,51.4z M248.5,47.5h-8l0.1-0.2l3.7-8.3h0.3
		L248.5,47.5z M241,47.2h7.1l-3.6-7.8L241,47.2z"/>
	<path class="st1" d="M281.7,56.8h-0.5c-0.3,0-0.5-0.1-0.7-0.3l-15.2-16.7v15.8c0,0.5-0.4,0.9-0.9,0.9h-3.4c-0.5,0-0.9-0.4-0.9-0.9
		V30.4c0-0.4,0.4-0.8,0.9-0.8h0.6c0.3,0,0.5,0.1,0.7,0.3L277.3,46V30.8c0-0.5,0.4-0.9,0.9-0.9h3.4c0.5,0,0.9,0.4,0.9,0.9V56
		C282.5,56.5,282.1,56.8,281.7,56.8z M264.9,39.3h0.3l0,0l15.4,16.9c0.2,0.2,0.3,0.2,0.5,0.2h0.5c0.3,0,0.6-0.2,0.6-0.5V30.8
		c0-0.3-0.3-0.6-0.6-0.6h-3.4c-0.3,0-0.6,0.3-0.6,0.6v15.6h-0.3l0,0L262,30.1c-0.2-0.2-0.3-0.2-0.5-0.2h-0.6c-0.3,0-0.6,0.2-0.6,0.5
		v25.2c0,0.3,0.3,0.6,0.6,0.6h3.4c0.3,0,0.6-0.3,0.6-0.6V39.3z"/>
	<path class="st1" d="M298.4,56.5h-3.4c-0.5,0-0.9-0.4-0.9-0.9V43.7l-8.5-12.5c-0.2-0.3-0.2-0.6,0-0.9c0.1-0.3,0.4-0.4,0.8-0.4h3.8
		c0.3,0,0.5,0.1,0.7,0.4l5.9,8.4l5.9-8.4c0.2-0.3,0.4-0.4,0.7-0.4h3.9c0.3,0,0.6,0.2,0.8,0.4c0.2,0.3,0.1,0.6,0,0.9l-8.6,12.4v11.9
		C299.2,56.1,298.8,56.5,298.4,56.5z M286.3,30.2c-0.2,0-0.4,0.1-0.5,0.3c-0.1,0.2-0.1,0.4,0,0.6l8.6,12.5v12c0,0.3,0.3,0.6,0.6,0.6
		h3.4c0.3,0,0.6-0.3,0.6-0.6v-12l0,0l8.7-12.5c0.1-0.2,0.1-0.4,0-0.6c-0.1-0.2-0.3-0.3-0.5-0.3h-3.9c-0.2,0-0.3,0.1-0.5,0.3
		l-6.1,8.8l-6.1-8.8c-0.1-0.2-0.3-0.3-0.5-0.3H286.3z"/>
	<path class="st1" d="M329.5,56.5h-3.9c-0.5,0-0.7-0.3-0.7-0.4l-4.9-9.8H316v9.4c0,0.5-0.4,0.9-0.9,0.9h-3.4c-0.5,0-0.9-0.4-0.9-0.9
		V30.8c0-0.5,0.4-0.9,0.9-0.9h10.7c4.6,0,8.3,3.7,8.3,8.2c0,3.3-2.1,6.2-5.5,7.6l5.1,9.4c0.2,0.3,0.2,0.6,0,0.9
		C330.1,56.3,329.8,56.5,329.5,56.5z M315.7,45.9h4.4l0,0.1l5,9.9c0,0.1,0.2,0.3,0.5,0.3h3.9c0.2,0,0.4-0.1,0.5-0.3
		c0.1-0.2,0.1-0.4,0-0.6l-5.2-9.7l0.2-0.1c3.4-1.4,5.5-4.2,5.5-7.4c0-4.4-3.6-7.9-8-7.9h-10.7c-0.3,0-0.6,0.3-0.6,0.6v24.8
		c0,0.3,0.3,0.6,0.6,0.6h3.4c0.3,0,0.6-0.3,0.6-0.6V45.9z M322,42.2h-6.3v-7.8h6.3c2.1,0,3.9,1.7,3.9,3.8
		C325.8,40.4,324.1,42.2,322,42.2z M316,41.9h6c1.9,0,3.6-1.7,3.6-3.7c0-1.9-1.6-3.5-3.6-3.5h-6V41.9z"/>
	<path class="st1" d="M351.6,56.5h-15.2c-0.5,0-0.9-0.4-0.9-0.9V30.8c0-0.5,0.4-0.9,0.9-0.9h15.2c0.5,0,0.9,0.4,0.9,0.9v3.1
		c0,0.5-0.4,0.9-0.9,0.9h-10.9v5.8h9.1c0.5,0,0.9,0.4,0.9,0.9v3.1c0,0.5-0.4,0.9-0.9,0.9h-9.1v6.3h10.9c0.5,0,0.9,0.4,0.9,0.9v3.1
		C352.5,56.1,352.1,56.5,351.6,56.5z M336.4,30.2c-0.3,0-0.6,0.3-0.6,0.6v24.8c0,0.3,0.3,0.6,0.6,0.6h15.2c0.3,0,0.6-0.3,0.6-0.6
		v-3.1c0-0.3-0.3-0.6-0.6-0.6h-11.2v-6.9h9.4c0.3,0,0.6-0.3,0.6-0.6v-3.1c0-0.3-0.3-0.6-0.6-0.6h-9.4v-6.4h11.2
		c0.3,0,0.6-0.3,0.6-0.6v-3.1c0-0.3-0.3-0.6-0.6-0.6H336.4z"/>
	<path class="st1" d="M368.8,56.8c-7.6,0-13.6-6-13.6-13.6c0-7.5,6.1-13.7,13.6-13.7c3.3,0,6.6,1.2,9.2,3.5c0.4,0.4,0.4,0.9,0,1.3
		l-2.3,2.4c-0.4,0.4-0.8,0.4-1.2,0c-1.6-1.4-3.5-2.1-5.6-2.1c-4.5,0-8.2,3.8-8.2,8.5c0,4.6,3.7,8.4,8.3,8.4c2,0,3.6-0.6,4.3-0.9
		v-2.9h-2.8c-0.5,0-0.9-0.4-0.9-0.8v-3c0-0.5,0.4-0.9,0.9-0.9h7.2c0.4,0,0.8,0.4,0.8,0.9v9.6c0,0.3-0.1,0.5-0.4,0.7
		C378.1,54.4,374.2,56.8,368.8,56.8z M368.8,29.9c-7.3,0-13.3,6-13.3,13.4c0,7.4,5.8,13.3,13.3,13.3c5.3,0,9.2-2.4,9.2-2.4
		c0.1-0.1,0.2-0.3,0.2-0.5V44c0-0.3-0.2-0.6-0.5-0.6h-7.2c-0.3,0-0.6,0.2-0.6,0.6v3c0,0.3,0.2,0.5,0.6,0.5h3.1v3.4l-0.1,0
		c-0.7,0.3-2.4,0.9-4.5,0.9c-4.7,0-8.6-3.9-8.6-8.7c0-4.9,3.8-8.8,8.5-8.8c2.1,0,4.1,0.8,5.8,2.2c0.3,0.3,0.5,0.3,0.8,0l2.3-2.4
		c0.2-0.2,0.2-0.6,0-0.8C375.2,31.1,372,29.9,368.8,29.9z"/>
	<path class="st1" d="M399.7,56.5h-15.2c-0.5,0-0.9-0.4-0.9-0.9V30.8c0-0.5,0.4-0.9,0.9-0.9h15.2c0.5,0,0.9,0.4,0.9,0.9v3.1
		c0,0.5-0.4,0.9-0.9,0.9h-10.9v5.8h9.1c0.5,0,0.9,0.4,0.9,0.9v3.1c0,0.5-0.4,0.9-0.9,0.9h-9.1v6.3h10.9c0.5,0,0.9,0.4,0.9,0.9v3.1
		C400.6,56.1,400.2,56.5,399.7,56.5z M384.5,30.2c-0.3,0-0.6,0.3-0.6,0.6v24.8c0,0.3,0.3,0.6,0.6,0.6h15.2c0.3,0,0.6-0.3,0.6-0.6
		v-3.1c0-0.3-0.3-0.6-0.6-0.6h-11.2v-6.9h9.4c0.3,0,0.6-0.3,0.6-0.6v-3.1c0-0.3-0.3-0.6-0.6-0.6h-9.4v-6.4h11.2
		c0.3,0,0.6-0.3,0.6-0.6v-3.1c0-0.3-0.3-0.6-0.6-0.6H384.5z"/>
	<path class="st1" d="M426.7,56.8h-0.5c-0.3,0-0.5-0.1-0.7-0.3l-15.2-16.7v15.8c0,0.5-0.4,0.9-0.9,0.9H406c-0.5,0-0.9-0.4-0.9-0.9
		V30.4c0-0.4,0.4-0.8,0.9-0.8h0.6c0.3,0,0.5,0.1,0.7,0.3L422.4,46V30.8c0-0.5,0.4-0.9,0.9-0.9h3.4c0.5,0,0.9,0.4,0.9,0.9V56
		C427.6,56.5,427.2,56.8,426.7,56.8z M410,39.3h0.3l0,0l15.4,16.9c0.2,0.2,0.3,0.2,0.5,0.2h0.5c0.3,0,0.6-0.2,0.6-0.5V30.8
		c0-0.3-0.3-0.6-0.6-0.6h-3.4c-0.3,0-0.6,0.3-0.6,0.6v15.6h-0.3l0,0l-15.3-16.3c-0.2-0.2-0.3-0.2-0.5-0.2H406
		c-0.3,0-0.6,0.2-0.6,0.5v25.2c0,0.3,0.3,0.6,0.6,0.6h3.4c0.3,0,0.6-0.3,0.6-0.6V39.3z"/>
	<path class="st1" d="M449.8,56.5h-15.2c-0.5,0-0.9-0.4-0.9-0.9V30.8c0-0.5,0.4-0.9,0.9-0.9h15.2c0.5,0,0.9,0.4,0.9,0.9v3.1
		c0,0.5-0.4,0.9-0.9,0.9h-10.9v5.8h9.1c0.5,0,0.9,0.4,0.9,0.9v3.1c0,0.5-0.4,0.9-0.9,0.9h-9.1v6.3h10.9c0.5,0,0.9,0.4,0.9,0.9v3.1
		C450.7,56.1,450.3,56.5,449.8,56.5z M434.5,30.2c-0.3,0-0.6,0.3-0.6,0.6v24.8c0,0.3,0.3,0.6,0.6,0.6h15.2c0.3,0,0.6-0.3,0.6-0.6
		v-3.1c0-0.3-0.3-0.6-0.6-0.6h-11.2v-6.9h9.4c0.3,0,0.6-0.3,0.6-0.6v-3.1c0-0.3-0.3-0.6-0.6-0.6h-9.4v-6.4h11.2
		c0.3,0,0.6-0.3,0.6-0.6v-3.1c0-0.3-0.3-0.6-0.6-0.6H434.5z"/>
	<path class="st1" d="M474,56.5H470c-0.5,0-0.7-0.3-0.7-0.4l-4.9-9.8h-3.9v9.4c0,0.5-0.4,0.9-0.9,0.9h-3.4c-0.5,0-0.9-0.4-0.9-0.9
		V30.8c0-0.5,0.4-0.9,0.9-0.9h10.7c4.6,0,8.3,3.7,8.3,8.2c0,3.3-2.1,6.2-5.5,7.6l5.1,9.4c0.2,0.3,0.2,0.6,0,0.9
		C474.6,56.3,474.3,56.5,474,56.5z M460.1,45.9h4.4l0,0.1l5,9.9c0,0.1,0.2,0.3,0.5,0.3h3.9c0.2,0,0.4-0.1,0.5-0.3
		c0.1-0.2,0.1-0.4,0-0.6l-5.2-9.7l0.2-0.1c3.4-1.4,5.5-4.2,5.5-7.4c0-4.4-3.6-7.9-8-7.9h-10.7c-0.3,0-0.6,0.3-0.6,0.6v24.8
		c0,0.3,0.3,0.6,0.6,0.6h3.4c0.3,0,0.6-0.3,0.6-0.6V45.9z M466.4,42.2h-6.3v-7.8h6.3c2.1,0,3.9,1.7,3.9,3.8
		C470.3,40.4,468.5,42.2,466.4,42.2z M460.5,41.9h6c1.9,0,3.6-1.7,3.6-3.7c0-1.9-1.6-3.5-3.6-3.5h-6V41.9z"/>
	<path class="st1" d="M501.2,56.5H498c-0.7,0-1-0.3-1.2-0.8l-1.8-4h-11l-1.8,4c-0.1,0.2-0.4,0.8-1.2,0.8h-3.3
		c-0.3,0-0.6-0.1-0.7-0.4c-0.2-0.2-0.2-0.5,0-0.8l11.6-25.2c0.2-0.3,0.4-0.5,0.8-0.5h0.4c0.5,0,0.6,0.3,0.8,0.5L502,55.3
		c0.1,0.3,0.1,0.6,0,0.8C501.8,56.3,501.5,56.5,501.2,56.5z M483.7,51.4h11.4l1.9,4.1c0.3,0.5,0.5,0.7,1,0.7h3.3
		c0.2,0,0.4-0.1,0.5-0.2c0.1-0.1,0.1-0.3,0-0.5l-11.5-25.2c-0.1-0.2-0.2-0.3-0.5-0.3h-0.4c-0.2,0-0.4,0.1-0.5,0.3l-11.6,25.2
		c-0.1,0.2-0.1,0.4,0,0.5c0.1,0.2,0.3,0.2,0.5,0.2h3.3c0.6,0,0.8-0.4,0.9-0.7L483.7,51.4z M493.4,47.5h-8l3.8-8.5h0.3L493.4,47.5z
		 M485.9,47.2h7.1l-3.6-7.8L485.9,47.2z"/>
	<path class="st1" d="M511.9,56.5h-3.5c-0.5,0-0.9-0.4-0.9-0.9V34.7H502c-0.5,0-0.9-0.4-0.9-0.9v-3.1c0-0.5,0.4-0.9,0.9-0.9h16.4
		c0.5,0,0.9,0.4,0.9,0.9v3.1c0,0.5-0.4,0.9-0.9,0.9h-5.6v20.9C512.8,56.1,512.4,56.5,511.9,56.5z M502,30.2c-0.3,0-0.6,0.3-0.6,0.6
		v3.1c0,0.3,0.3,0.6,0.6,0.6h5.9v21.2c0,0.3,0.3,0.6,0.6,0.6h3.5c0.3,0,0.6-0.3,0.6-0.6V34.4h5.9c0.3,0,0.6-0.3,0.6-0.6v-3.1
		c0-0.3-0.3-0.6-0.6-0.6H502z"/>
	<path class="st1" d="M527.4,56.5h-3.5c-0.5,0-0.9-0.4-0.9-0.9V30.8c0-0.5,0.4-0.9,0.9-0.9h3.5c0.5,0,0.9,0.4,0.9,0.9v24.8
		C528.3,56.1,527.9,56.5,527.4,56.5z M523.9,30.2c-0.3,0-0.6,0.3-0.6,0.6v24.8c0,0.3,0.3,0.6,0.6,0.6h3.5c0.3,0,0.6-0.3,0.6-0.6
		V30.8c0-0.3-0.3-0.6-0.6-0.6H523.9z"/>
</g>
</svg>
