<?xml version="1.0" encoding="utf-8"?>
<!-- Generator: Adobe Illustrator 25.4.1, SVG Export Plug-In . SVG Version: 6.00 Build 0)  -->
<svg version="1.1" id="Capa_1" xmlns="http://www.w3.org/2000/svg" xmlns:xlink="http://www.w3.org/1999/xlink" x="0px" y="0px"
	 viewBox="0 0 511.7 56.4" style="enable-background:new 0 0 511.7 56.4;" xml:space="preserve">
<style type="text/css">
	.st0{opacity:0.2;}
	.st1{fill:#FFFFFF;}
</style>
<g class="st0">
	<path class="st1" d="M289.9,26.4H286c-0.5,0-0.7-0.3-0.7-0.4l-4.9-9.8h-3.9v9.4c0,0.5-0.4,0.9-0.9,0.9h-3.4c-0.5,0-0.9-0.4-0.9-0.9
		V0.7c0-0.5,0.4-0.9,0.9-0.9H283c4.6,0,8.3,3.7,8.3,8.2c0,3.3-2.1,6.2-5.5,7.6l5.1,9.4c0.2,0.3,0.2,0.6,0,0.9
		C290.6,26.1,290.3,26.4,289.9,26.4z M276.1,15.8h4.4v0.1l5,9.9c0,0.1,0.2,0.3,0.5,0.3h3.9c0.2,0,0.4-0.1,0.5-0.3
		c0.1-0.2,0.1-0.4,0-0.6l-5.2-9.7l0.2-0.1c3.4-1.4,5.5-4.2,5.5-7.4c0-4.4-3.6-7.9-8-7.9h-10.7c-0.3,0-0.6,0.3-0.6,0.6v24.8
		c0,0.3,0.3,0.6,0.6,0.6h3.4c0.3,0,0.6-0.3,0.6-0.6L276.1,15.8L276.1,15.8z M282.4,12.1h-6.3V4.3h6.3c2.1,0,3.9,1.7,3.9,3.8
		C286.3,10.2,284.5,12.1,282.4,12.1z M276.5,11.8h6c1.9,0,3.6-1.7,3.6-3.7c0-1.9-1.6-3.5-3.6-3.5h-6V11.8z"/>
	<path class="st1" d="M312.1,26.4h-15.2c-0.5,0-0.9-0.4-0.9-0.9V0.7c0-0.5,0.4-0.9,0.9-0.9h15.2c0.5,0,0.9,0.4,0.9,0.9v3.1
		c0,0.5-0.4,0.9-0.9,0.9h-10.9v5.8h9.1c0.5,0,0.9,0.4,0.9,0.9v3.1c0,0.5-0.4,0.9-0.9,0.9h-9.1v6.3h10.9c0.5,0,0.9,0.4,0.9,0.9v3.1
		C312.9,26,312.6,26.4,312.1,26.4z M296.8,0.1c-0.3,0-0.6,0.3-0.6,0.6v24.8c0,0.3,0.3,0.6,0.6,0.6H312c0.3,0,0.6-0.3,0.6-0.6v-3.1
		c0-0.3-0.3-0.6-0.6-0.6h-11.2v-6.9h9.4c0.3,0,0.6-0.3,0.6-0.6v-3.1c0-0.3-0.3-0.6-0.6-0.6h-9.4V4.3H312c0.3,0,0.6-0.3,0.6-0.6v-3
		c0-0.3-0.3-0.6-0.6-0.6C312,0.1,296.8,0.1,296.8,0.1z"/>
	<path class="st1" d="M329.2,26.6c-7.6,0-13.6-6-13.6-13.6c0-7.5,6.1-13.7,13.6-13.7c3.3,0,6.6,1.2,9.2,3.5c0.4,0.4,0.4,0.9,0,1.3
		l-2.3,2.4c-0.4,0.4-0.8,0.4-1.2,0c-1.6-1.4-3.5-2.1-5.6-2.1c-4.5,0-8.2,3.8-8.2,8.5c0,4.6,3.7,8.4,8.3,8.4c2,0,3.6-0.6,4.3-0.9
		v-2.9h-2.8c-0.5,0-0.9-0.4-0.9-0.8v-3c0-0.5,0.4-0.9,0.9-0.9h7.2c0.4,0,0.8,0.4,0.8,0.9v9.6c0,0.3-0.1,0.5-0.4,0.7
		C338.5,24.2,334.6,26.6,329.2,26.6z M329.2-0.2c-7.3,0-13.3,6-13.3,13.4s5.8,13.3,13.3,13.3c5.3,0,9.2-2.4,9.2-2.4
		c0.1-0.1,0.2-0.3,0.2-0.5v-9.7c0-0.3-0.2-0.6-0.5-0.6h-7.2c-0.3,0-0.6,0.2-0.6,0.6v3c0,0.3,0.2,0.5,0.6,0.5h3.1v3.4h-0.1
		c-0.7,0.3-2.4,0.9-4.5,0.9c-4.7,0-8.6-3.9-8.6-8.7c0-4.9,3.8-8.8,8.5-8.8c2.1,0,4.1,0.8,5.8,2.2c0.3,0.3,0.5,0.2,0.8,0l2.3-2.4
		c0.2-0.2,0.2-0.6,0-0.8C335.6,1,332.4-0.2,329.2-0.2z"/>
	<path class="st1" d="M360.2,26.4H345c-0.5,0-0.9-0.4-0.9-0.9V0.7c0-0.5,0.4-0.9,0.9-0.9h15.2c0.5,0,0.9,0.4,0.9,0.9v3.1
		c0,0.5-0.4,0.9-0.9,0.9h-10.9v5.8h9.1c0.5,0,0.9,0.4,0.9,0.9v3.1c0,0.5-0.4,0.9-0.9,0.9h-9.1v6.3h10.9c0.5,0,0.9,0.4,0.9,0.9v3.1
		C361,26,360.6,26.4,360.2,26.4z M344.9,0.1c-0.3,0-0.6,0.3-0.6,0.6v24.8c0,0.3,0.3,0.6,0.6,0.6h15.2c0.3,0,0.6-0.3,0.6-0.6v-3.1
		c0-0.3-0.3-0.6-0.6-0.6h-11.2v-6.9h9.4c0.3,0,0.6-0.3,0.6-0.6v-3.1c0-0.3-0.3-0.6-0.6-0.6h-9.4V4.3h11.2c0.3,0,0.6-0.3,0.6-0.6v-3
		c0-0.3-0.3-0.6-0.6-0.6C360.1,0.1,344.9,0.1,344.9,0.1z"/>
	<path class="st1" d="M387.2,26.6h-0.5c-0.3,0-0.5-0.1-0.7-0.3L370.8,9.7v15.8c0,0.5-0.4,0.9-0.9,0.9h-3.4c-0.5,0-0.9-0.4-0.9-0.9
		V0.3c0-0.4,0.4-0.8,0.9-0.8h0.6c0.3,0,0.5,0.1,0.7,0.3l15.1,16.1V0.7c0-0.5,0.4-0.9,0.9-0.9h3.4c0.5,0,0.9,0.4,0.9,0.9v25.2
		C388.1,26.4,387.7,26.6,387.2,26.6z M370.5,9.2h0.3l0,0l15.4,16.9c0.2,0.2,0.3,0.2,0.5,0.2h0.5c0.3,0,0.6-0.2,0.6-0.5V0.7
		c0-0.3-0.3-0.6-0.6-0.6h-3.4c-0.3,0-0.6,0.3-0.6,0.6v15.6h-0.3l0,0L367.6,0c-0.2-0.2-0.3-0.2-0.5-0.2h-0.6c-0.3,0-0.6,0.2-0.6,0.5
		v25.2c0,0.3,0.3,0.6,0.6,0.6h3.4c0.3,0,0.6-0.3,0.6-0.6L370.5,9.2L370.5,9.2z"/>
	<path class="st1" d="M410.2,26.4H395c-0.5,0-0.9-0.4-0.9-0.9V0.7c0-0.5,0.4-0.9,0.9-0.9h15.2c0.5,0,0.9,0.4,0.9,0.9v3.1
		c0,0.5-0.4,0.9-0.9,0.9h-10.9v5.8h9.1c0.5,0,0.9,0.4,0.9,0.9v3.1c0,0.5-0.4,0.9-0.9,0.9h-9.1v6.3h10.9c0.5,0,0.9,0.4,0.9,0.9v3.1
		C411.1,26,410.7,26.4,410.2,26.4z M395,0.1c-0.3,0-0.6,0.3-0.6,0.6v24.8c0,0.3,0.3,0.6,0.6,0.6h15.2c0.3,0,0.6-0.3,0.6-0.6v-3.1
		c0-0.3-0.3-0.6-0.6-0.6H399v-6.9h9.4c0.3,0,0.6-0.3,0.6-0.6v-3.1c0-0.3-0.3-0.6-0.6-0.6H399V4.3h11.2c0.3,0,0.6-0.3,0.6-0.6v-3
		c0-0.3-0.3-0.6-0.6-0.6C410.2,0.1,395,0.1,395,0.1z"/>
	<path class="st1" d="M434.4,26.4h-3.9c-0.5,0-0.7-0.3-0.7-0.4l-4.9-9.8H421v9.4c0,0.5-0.4,0.9-0.9,0.9h-3.4c-0.5,0-0.9-0.4-0.9-0.9
		V0.7c0-0.5,0.4-0.9,0.9-0.9h10.6c4.6,0,8.3,3.7,8.3,8.2c0,3.3-2.1,6.2-5.5,7.6l5.1,9.4c0.2,0.3,0.2,0.6,0,0.9
		C435,26.1,434.7,26.4,434.4,26.4z M420.6,15.8h4.4v0.1l5,9.9c0,0.1,0.2,0.3,0.5,0.3h3.9c0.2,0,0.4-0.1,0.5-0.3
		c0.1-0.2,0.1-0.4,0-0.6l-5.2-9.7l0.2-0.1c3.4-1.4,5.4-4.2,5.4-7.4c0-4.4-3.6-7.9-8-7.9h-10.7c-0.3,0-0.6,0.3-0.6,0.6v24.8
		c0,0.3,0.3,0.6,0.6,0.6h3.4c0.3,0,0.6-0.3,0.6-0.6L420.6,15.8L420.6,15.8z M426.9,12.1h-6.3V4.3h6.3c2.1,0,3.9,1.7,3.9,3.8
		C430.7,10.2,429,12.1,426.9,12.1z M420.9,11.8h6c1.9,0,3.6-1.7,3.6-3.7c0-1.9-1.6-3.5-3.6-3.5h-6V11.8z"/>
	<path class="st1" d="M461.7,26.4h-3.3c-0.7,0-1-0.3-1.2-0.8l-1.8-4h-11l-1.8,4c-0.1,0.2-0.4,0.8-1.2,0.8h-3.3
		c-0.3,0-0.6-0.1-0.7-0.4c-0.2-0.2-0.2-0.5,0-0.8L449,0c0.2-0.3,0.4-0.5,0.8-0.5h0.4c0.5,0,0.6,0.2,0.8,0.5l11.5,25.2
		c0.1,0.3,0.1,0.6,0,0.8C462.3,26.1,462,26.4,461.7,26.4z M444.2,21.2h11.4l1.9,4.1c0.3,0.5,0.5,0.7,1,0.7h3.3
		c0.2,0,0.4-0.1,0.5-0.2s0.1-0.3,0-0.5L450.6,0.1c-0.1-0.2-0.2-0.3-0.5-0.3h-0.4c-0.2,0-0.4,0.1-0.5,0.3l-11.6,25.2
		c-0.1,0.2-0.1,0.4,0,0.5s0.3,0.2,0.5,0.2h3.3c0.6,0,0.8-0.4,0.9-0.7L444.2,21.2z M453.9,17.4h-8l0.1-0.2l3.7-8.3h0.3L453.9,17.4z
		 M446.4,17.1h7.1l-3.6-7.9L446.4,17.1z"/>
	<path class="st1" d="M472.4,26.4h-3.5c-0.5,0-0.9-0.4-0.9-0.9V4.6h-5.6c-0.5,0-0.9-0.4-0.9-0.9v-3c0-0.5,0.4-0.9,0.9-0.9h16.4
		c0.5,0,0.9,0.4,0.9,0.9v3.1c0,0.5-0.4,0.9-0.9,0.9h-5.6v20.9C473.2,26,472.8,26.4,472.4,26.4z M462.4,0.1c-0.3,0-0.6,0.3-0.6,0.6
		v3.1c0,0.3,0.3,0.6,0.6,0.6h5.9v21.2c0,0.3,0.3,0.6,0.6,0.6h3.5c0.3,0,0.6-0.3,0.6-0.6V4.3h5.9c0.3,0,0.6-0.3,0.6-0.6v-3
		c0-0.3-0.3-0.6-0.6-0.6C478.9,0.1,462.4,0.1,462.4,0.1z"/>
	<path class="st1" d="M487.9,26.4h-3.5c-0.5,0-0.9-0.4-0.9-0.9V0.7c0-0.5,0.4-0.9,0.9-0.9h3.5c0.5,0,0.9,0.4,0.9,0.9v24.8
		C488.7,26,488.3,26.4,487.9,26.4z M484.4,0.1c-0.3,0-0.6,0.3-0.6,0.6v24.8c0,0.3,0.3,0.6,0.6,0.6h3.5c0.3,0,0.6-0.3,0.6-0.6V0.7
		c0-0.3-0.3-0.6-0.6-0.6C487.9,0.1,484.4,0.1,484.4,0.1z"/>
	<path class="st1" d="M504.4,26.6H504c-0.3,0-0.6-0.2-0.8-0.5L491.7,1c-0.1-0.3-0.1-0.6,0-0.8c0.2-0.2,0.4-0.4,0.7-0.4h3.8
		c0.4,0,0.7,0.3,0.8,0.5l7.2,16l7.2-16c0.1-0.2,0.4-0.5,0.8-0.5h3.8c0.3,0,0.6,0.1,0.7,0.4c0.2,0.2,0.2,0.5,0,0.8l-11.6,25.2
		C505,26.6,504.7,26.6,504.4,26.6z M492.4,0.1c-0.2,0-0.4,0.1-0.5,0.2s-0.1,0.3,0,0.5l0,0L503.5,26c0.1,0.2,0.3,0.3,0.5,0.3h0.4
		c0.2,0,0.4-0.1,0.5-0.3l11.6-25.1c0.1-0.2,0.1-0.4,0-0.5s-0.3-0.2-0.5-0.2h-3.8c-0.3,0-0.5,0.2-0.5,0.3l-7.3,16.2h-0.4v-0.1
		l-7.2-16.1c0-0.1-0.2-0.3-0.5-0.3h-3.9V0.1z"/>
	<path class="st1" d="M535.8,26.4h-15.2c-0.5,0-0.9-0.4-0.9-0.9V0.7c0-0.5,0.4-0.9,0.9-0.9h15.2c0.5,0,0.9,0.4,0.9,0.9v3.1
		c0,0.5-0.4,0.9-0.9,0.9h-10.9v5.8h9.1c0.5,0,0.9,0.4,0.9,0.9v3.1c0,0.5-0.4,0.9-0.9,0.9h-9.1v6.3h10.9c0.5,0,0.9,0.4,0.9,0.9v3.1
		C536.8,26,536.3,26.4,535.8,26.4z M520.6,0.1c-0.3,0-0.6,0.3-0.6,0.6v24.8c0,0.3,0.3,0.6,0.6,0.6h15.2c0.3,0,0.6-0.3,0.6-0.6v-3.1
		c0-0.3-0.3-0.6-0.6-0.6h-11.2v-6.9h9.4c0.3,0,0.6-0.3,0.6-0.6v-3.1c0-0.3-0.3-0.6-0.6-0.6h-9.4V4.3h11.2c0.3,0,0.6-0.3,0.6-0.6v-3
		c0-0.3-0.3-0.6-0.6-0.6C535.8,0.1,520.6,0.1,520.6,0.1z"/>
	<path class="st1" d="M19.9,56.4H16c-0.5,0-0.7-0.3-0.7-0.4l-5-9.9H6.4v9.4c0,0.5-0.4,0.9-0.9,0.9H2.1c-0.5,0-0.9-0.4-0.9-0.9V30.6
		c0-0.5,0.4-0.9,0.9-0.9h10.7c4.6,0,8.3,3.7,8.3,8.2c0,3.3-2.1,6.2-5.5,7.6l5.1,9.4c0.2,0.3,0.2,0.6,0,0.9
		C20.5,56.2,20.2,56.4,19.9,56.4z M6.1,45.8h4.4l5,10c0,0.1,0.2,0.3,0.5,0.3h3.9c0.2,0,0.4-0.1,0.5-0.3s0.1-0.4,0-0.6l-5.2-9.7
		l0.2-0.1c3.4-1.4,5.5-4.2,5.5-7.4c0-4.4-3.6-7.9-8-7.9H2.1c-0.3,0-0.6,0.3-0.6,0.6v24.8c0,0.3,0.3,0.6,0.6,0.6h3.4
		c0.3,0,0.6-0.3,0.6-0.6C6.1,55.5,6.1,45.8,6.1,45.8z M12.4,42.1H6.1v-7.8h6.3c2.1,0,3.9,1.7,3.9,3.8C16.2,40.3,14.5,42.1,12.4,42.1
		z M6.4,41.8h6c1.9,0,3.6-1.7,3.6-3.7c0-1.9-1.6-3.5-3.6-3.5h-6C6.4,34.6,6.4,41.8,6.4,41.8z"/>
	<path class="st1" d="M47.2,56.4h-3.3c-0.7,0-1-0.3-1.2-0.8l-1.8-4h-11l-1.8,4c-0.1,0.2-0.4,0.8-1.2,0.8h-3.3
		c-0.3,0-0.6-0.1-0.7-0.4c-0.2-0.2-0.2-0.5,0-0.8l11.7-25.2c0.2-0.3,0.4-0.5,0.8-0.5h0.4c0.5,0,0.6,0.3,0.8,0.5l11.5,25.2
		c0.1,0.3,0.1,0.6,0,0.8C47.8,56.2,47.5,56.4,47.2,56.4z M29.7,51.3h11.4l1.9,4.1c0.3,0.5,0.5,0.7,0.9,0.7h3.3
		c0.2,0,0.4-0.1,0.5-0.2c0.1-0.1,0.1-0.3,0-0.5L36.1,30.1c-0.1-0.2-0.2-0.3-0.5-0.3h-0.3c-0.2,0-0.4,0.1-0.5,0.3L23.1,55.3
		c-0.1,0.2-0.1,0.4,0,0.5s0.3,0.2,0.5,0.2h3.3c0.6,0,0.8-0.4,0.9-0.7L29.7,51.3z M39.4,47.4h-8l0.1-0.2l3.7-8.3h0.3L39.4,47.4z
		 M31.9,47.1H39l-3.6-7.8L31.9,47.1z"/>
	<path class="st1" d="M57.9,56.4h-3.5c-0.5,0-0.9-0.4-0.9-0.9V34.6h-5.6c-0.5,0-0.9-0.4-0.9-0.9v-3.1c0-0.5,0.4-0.9,0.9-0.9h16.4
		c0.5,0,0.9,0.4,0.9,0.9v3.1c0,0.5-0.4,0.9-0.9,0.9h-5.6v20.9C58.7,56,58.3,56.4,57.9,56.4z M47.9,30.1c-0.3,0-0.6,0.3-0.6,0.6v3.1
		c0,0.3,0.3,0.6,0.6,0.6h5.9v21.2c0,0.3,0.3,0.6,0.6,0.6h3.5c0.3,0,0.6-0.3,0.6-0.6V34.3h5.8c0.3,0,0.6-0.3,0.6-0.6v-3.1
		c0-0.3-0.3-0.6-0.6-0.6L47.9,30.1L47.9,30.1z"/>
	<path class="st1" d="M73.4,56.4h-3.5c-0.5,0-0.9-0.4-0.9-0.9V30.6c0-0.5,0.4-0.9,0.9-0.9h3.5c0.5,0,0.9,0.4,0.9,0.9v24.8
		C74.2,56,73.8,56.4,73.4,56.4z M69.9,30.1c-0.3,0-0.6,0.3-0.6,0.6v24.8c0,0.3,0.3,0.6,0.6,0.6h3.5c0.3,0,0.6-0.3,0.6-0.6V30.6
		c0-0.3-0.3-0.6-0.6-0.6C73.4,30,69.9,30,69.9,30.1z"/>
	<path class="st1" d="M89.9,56.7h-0.4c-0.3,0-0.6-0.2-0.8-0.5L77.2,31c-0.1-0.3-0.1-0.6,0-0.8c0.2-0.2,0.4-0.4,0.7-0.4h3.8
		c0.4,0,0.7,0.3,0.8,0.5l7.2,16l7.2-16c0.1-0.2,0.4-0.5,0.8-0.5h3.8c0.3,0,0.6,0.1,0.7,0.4c0.2,0.2,0.2,0.5,0,0.8L90.7,56.2
		C90.5,56.6,90.2,56.7,89.9,56.7z M77.9,30.1c-0.2,0-0.4,0.1-0.5,0.2s-0.1,0.3,0,0.5L89,56c0.1,0.2,0.3,0.3,0.5,0.3h0.4
		c0.2,0,0.4-0.1,0.5-0.3L102,30.9c0.1-0.2,0.1-0.4,0-0.5s-0.3-0.2-0.5-0.2h-3.8c-0.3,0-0.5,0.2-0.5,0.3l-7.3,16.2h-0.4v-0.1
		l-7.2-16.1c0-0.1-0.2-0.3-0.5-0.3h-3.9V30.1z"/>
	<path class="st1" d="M121.3,56.4h-15.2c-0.5,0-0.9-0.4-0.9-0.9V30.6c0-0.5,0.4-0.9,0.9-0.9h15.2c0.5,0,0.9,0.4,0.9,0.9v3.1
		c0,0.5-0.4,0.9-0.9,0.9h-10.9v5.8h9.1c0.5,0,0.9,0.4,0.9,0.9v3.1c0,0.5-0.4,0.9-0.9,0.9h-9.1v6.3h10.9c0.5,0,0.9,0.4,0.9,0.9v3.1
		C122.2,56,121.8,56.4,121.3,56.4z M106.1,30.1c-0.3,0-0.6,0.3-0.6,0.6v24.8c0,0.3,0.3,0.6,0.6,0.6h15.2c0.3,0,0.6-0.3,0.6-0.6v-3.1
		c0-0.3-0.3-0.6-0.6-0.6h-11.2v-6.9h9.4c0.3,0,0.6-0.3,0.6-0.6v-3.1c0-0.3-0.3-0.6-0.6-0.6h-9.4v-6.4h11.2c0.3,0,0.6-0.3,0.6-0.6
		v-3.1c0-0.3-0.3-0.6-0.6-0.6h-15.2V30.1z"/>
	<path class="st1" d="M138.5,56.7c-7.5,0-13.7-6.1-13.7-13.6s6.1-13.7,13.7-13.7c3.6,0,6.5,1.1,9.2,3.5c0.2,0.2,0.3,0.4,0.3,0.6
		c0,0.2-0.1,0.5-0.3,0.6l-2.3,2.4c-0.1,0.2-0.3,0.3-0.5,0.3l0,0c-0.2,0-0.4-0.1-0.6-0.3c-1.6-1.4-3.6-2.2-5.7-2.2
		c-4.6,0-8.2,3.8-8.2,8.6s3.6,8.5,8.2,8.5c2,0,3.9-0.7,5.6-2.1c0.4-0.3,0.9-0.3,1.1,0l2.3,2.4c0.1,0.1,0.2,0.3,0.2,0.5
		c0,0.3-0.1,0.5-0.3,0.7C145.3,55.5,142.1,56.7,138.5,56.7z M138.5,29.8c-7.4,0-13.4,6-13.4,13.4c0,7.3,6,13.3,13.4,13.3
		c3.5,0,6.6-1.2,9-3.6c0.1-0.1,0.2-0.3,0.2-0.5c0-0.1,0-0.2-0.1-0.3l-2.3-2.4c-0.2-0.2-0.5-0.2-0.7,0c-1.8,1.4-3.7,2.2-5.8,2.2
		c-4.8,0-8.5-3.9-8.5-8.8c0-5,3.7-8.9,8.5-8.9c2.1,0,4.2,0.8,5.9,2.2c0.1,0.1,0.3,0.2,0.4,0.2l0,0c0.1,0,0.2-0.1,0.3-0.2l2.3-2.4
		c0.1-0.1,0.2-0.3,0.2-0.4c0-0.2-0.1-0.3-0.2-0.4C144.8,30.8,142.1,29.8,138.5,29.8z"/>
	<path class="st1" d="M163.6,56.7c-7.6,0-13.6-6-13.6-13.6c0-7.5,6.1-13.7,13.6-13.7s13.6,6.1,13.6,13.7
		C177.3,50.8,171.3,56.7,163.6,56.7z M163.6,29.8c-7.3,0-13.3,6-13.3,13.4c0,7.5,5.8,13.3,13.3,13.3s13.3-5.8,13.3-13.3
		C177,35.8,171,29.8,163.6,29.8z M163.6,51.9c-4.8,0-8.7-3.9-8.7-8.7c0-4.9,3.9-8.8,8.7-8.8s8.8,4,8.8,8.8S168.5,51.9,163.6,51.9z
		 M163.6,34.6c-4.6,0-8.4,3.8-8.4,8.5c0,4.6,3.8,8.4,8.4,8.4c4.7,0,8.5-3.8,8.5-8.4S168.2,34.6,163.6,34.6z"/>
	<path class="st1" d="M195.3,56.7h-0.7c-0.3,0-0.6-0.2-0.8-0.5l-6.5-14.4l-2.1,13.9c0,0.3-0.4,0.7-0.8,0.7H181
		c-0.3,0-0.5-0.1-0.7-0.3s-0.2-0.5-0.2-0.8l4.5-25.2c0.1-0.4,0.4-0.7,0.8-0.7h0.6c0.3,0,0.6,0.2,0.8,0.5l8.2,17.5l8.2-17.5
		c0.2-0.3,0.4-0.5,0.8-0.5h0.6c0.4,0,0.8,0.3,0.8,0.7l4.4,25.2c0.1,0.3,0,0.6-0.1,0.7c-0.2,0.2-0.4,0.3-0.7,0.3h-3.4
		c-0.4,0-0.8-0.3-0.9-0.7l-2.2-13.9l-6.4,14.4C196,56.5,195.6,56.7,195.3,56.7z M187.1,41.3h0.3v0.1l6.6,14.7
		c0.1,0.2,0.3,0.3,0.5,0.3h0.7c0.3,0,0.4-0.2,0.5-0.3l6.6-14.8h0.3v0.1l2.2,14.2c0.1,0.2,0.3,0.4,0.6,0.4h3.4c0.2,0,0.4-0.1,0.4-0.2
		c0.1-0.1,0.1-0.3,0.1-0.5L205,30.1c0-0.1-0.1-0.4-0.5-0.4h-0.6c-0.2,0-0.4,0.1-0.5,0.3l-8.3,17.8h-0.3v-0.1L186.6,30
		c-0.1-0.2-0.3-0.3-0.5-0.3h-0.6c-0.4,0-0.5,0.3-0.5,0.4l0,0l-4.5,25.2c0,0.2,0,0.4,0.1,0.5s0.3,0.2,0.4,0.2h3.4
		c0.3,0,0.5-0.2,0.5-0.4L187.1,41.3z"/>
	<path class="st1" d="M218.7,56.4h-3.4c-0.5,0-0.9-0.4-0.9-0.9V30.6c0-0.5,0.4-0.9,0.9-0.9h8.8c4.7,0,8.5,3.8,8.5,8.4
		c0,4.7-3.8,8.6-8.5,8.6h-4.5v8.7C219.6,56,219.2,56.4,218.7,56.4z M215.2,30.1c-0.3,0-0.6,0.3-0.6,0.6v24.8c0,0.3,0.3,0.6,0.6,0.6
		h3.4c0.3,0,0.6-0.3,0.6-0.6v-9h4.8c4.5,0,8.2-3.7,8.2-8.3c0-4.5-3.7-8.1-8.2-8.1C224,30,215.2,30,215.2,30.1z M223.9,42.3h-4.6
		v-7.8h4.6c2.2,0,3.9,1.6,3.9,3.8C227.8,40.5,226.1,42.3,223.9,42.3z M219.6,42h4.3c2,0,3.6-1.6,3.6-3.7c0-2-1.5-3.5-3.6-3.5h-4.3
		V42z"/>
	<path class="st1" d="M255.6,56.4h-3.3c-0.7,0-1-0.3-1.2-0.8l-1.8-4h-11l-1.8,4c-0.1,0.2-0.4,0.8-1.2,0.8H232
		c-0.3,0-0.6-0.1-0.7-0.4c-0.2-0.2-0.2-0.5,0-0.8L243,29.9c0.2-0.3,0.4-0.5,0.8-0.5h0.4c0.5,0,0.6,0.3,0.8,0.5l11.5,25.2
		c0.1,0.3,0.1,0.6,0,0.8C256.2,56.2,255.9,56.4,255.6,56.4z M238.1,51.3h11.4l1.9,4.1c0.3,0.5,0.5,0.7,0.9,0.7h3.3
		c0.2,0,0.4-0.1,0.5-0.2c0.1-0.1,0.1-0.3,0-0.5l-11.5-25.2c-0.1-0.2-0.2-0.3-0.5-0.3h-0.4c-0.2,0-0.4,0.1-0.5,0.3l-11.6,25.2
		c-0.1,0.2-0.1,0.4,0,0.5s0.3,0.2,0.5,0.2h3.3c0.6,0,0.8-0.4,0.9-0.7L238.1,51.3z M247.8,47.4h-8l0.1-0.2l3.7-8.3h0.3L247.8,47.4z
		 M240.3,47.1h7.1l-3.6-7.8L240.3,47.1z"/>
	<path class="st1" d="M281,56.7h-0.5c-0.3,0-0.5-0.1-0.7-0.3l-15.2-16.7v15.8c0,0.5-0.4,0.9-0.9,0.9h-3.4c-0.5,0-0.9-0.4-0.9-0.9
		V30.2c0-0.4,0.4-0.8,0.9-0.8h0.6c0.3,0,0.5,0.1,0.7,0.3l15,16.1V30.6c0-0.5,0.4-0.9,0.9-0.9h3.4c0.5,0,0.9,0.4,0.9,0.9v25.2
		C281.8,56.4,281.4,56.7,281,56.7z M264.2,39.2h0.3l0,0L279.9,56c0.2,0.2,0.3,0.2,0.5,0.2h0.5c0.3,0,0.6-0.2,0.6-0.5V30.6
		c0-0.3-0.3-0.6-0.6-0.6h-3.4c-0.3,0-0.6,0.3-0.6,0.6v15.6h-0.3l0,0L261.3,30c-0.2-0.2-0.3-0.2-0.5-0.2h-0.6c-0.3,0-0.6,0.2-0.6,0.5
		v25.2c0,0.3,0.3,0.6,0.6,0.6h3.4c0.3,0,0.6-0.3,0.6-0.6V39.2z"/>
	<path class="st1" d="M297.7,56.4h-3.4c-0.5,0-0.9-0.4-0.9-0.9V43.6l-8.5-12.5c-0.2-0.3-0.2-0.6,0-0.9c0.1-0.3,0.4-0.4,0.8-0.4h3.8
		c0.3,0,0.5,0.1,0.7,0.4l5.9,8.4l5.9-8.4c0.2-0.3,0.4-0.4,0.7-0.4h3.9c0.3,0,0.6,0.2,0.8,0.4c0.2,0.3,0.1,0.6,0,0.9l-8.6,12.4v11.9
		C298.5,56,298.1,56.4,297.7,56.4z M285.6,30.1c-0.2,0-0.4,0.1-0.5,0.3c-0.1,0.2-0.1,0.4,0,0.6l8.6,12.5v12c0,0.3,0.3,0.6,0.6,0.6
		h3.4c0.3,0,0.6-0.3,0.6-0.6v-12l0,0l8.7-12.5c0.1-0.2,0.1-0.4,0-0.6s-0.3-0.3-0.5-0.3h-3.9c-0.2,0-0.3,0.1-0.5,0.3l-6.1,8.8
		l-6.1-8.8c-0.1-0.2-0.3-0.3-0.5-0.3H285.6z"/>
	<path class="st1" d="M328.8,56.4h-3.9c-0.5,0-0.7-0.3-0.7-0.4l-4.9-9.8h-4v9.4c0,0.5-0.4,0.9-0.9,0.9H311c-0.5,0-0.9-0.4-0.9-0.9
		V30.6c0-0.5,0.4-0.9,0.9-0.9h10.7c4.6,0,8.3,3.7,8.3,8.2c0,3.3-2.1,6.2-5.5,7.6l5.1,9.4c0.2,0.3,0.2,0.6,0,0.9
		C329.4,56.2,329.1,56.4,328.8,56.4z M315,45.8h4.4v0.1l5,9.9c0,0.1,0.2,0.3,0.5,0.3h3.9c0.2,0,0.4-0.1,0.5-0.3s0.1-0.4,0-0.6
		l-5.2-9.7l0.2-0.1c3.4-1.4,5.5-4.2,5.5-7.4c0-4.4-3.6-7.9-8-7.9h-10.7c-0.3,0-0.6,0.3-0.6,0.6v24.8c0,0.3,0.3,0.6,0.6,0.6h3.4
		c0.3,0,0.6-0.3,0.6-0.6L315,45.8L315,45.8z M321.3,42.1H315v-7.8h6.3c2.1,0,3.9,1.7,3.9,3.8C325.1,40.3,323.4,42.1,321.3,42.1z
		 M315.3,41.8h6c1.9,0,3.6-1.7,3.6-3.7c0-1.9-1.6-3.5-3.6-3.5h-6V41.8z"/>
	<path class="st1" d="M350.9,56.4h-15.2c-0.5,0-0.9-0.4-0.9-0.9V30.6c0-0.5,0.4-0.9,0.9-0.9h15.2c0.5,0,0.9,0.4,0.9,0.9v3.1
		c0,0.5-0.4,0.9-0.9,0.9H340v5.8h9.1c0.5,0,0.9,0.4,0.9,0.9v3.1c0,0.5-0.4,0.9-0.9,0.9H340v6.3h10.9c0.5,0,0.9,0.4,0.9,0.9v3.1
		C351.8,56,351.4,56.4,350.9,56.4z M335.7,30.1c-0.3,0-0.6,0.3-0.6,0.6v24.8c0,0.3,0.3,0.6,0.6,0.6h15.2c0.3,0,0.6-0.3,0.6-0.6v-3.1
		c0-0.3-0.3-0.6-0.6-0.6h-11.2v-6.9h9.4c0.3,0,0.6-0.3,0.6-0.6v-3.1c0-0.3-0.3-0.6-0.6-0.6h-9.4v-6.4h11.2c0.3,0,0.6-0.3,0.6-0.6
		v-3.1c0-0.3-0.3-0.6-0.6-0.6h-15.2V30.1z"/>
	<path class="st1" d="M368.1,56.7c-7.6,0-13.6-6-13.6-13.6c0-7.5,6.1-13.7,13.6-13.7c3.3,0,6.6,1.2,9.2,3.5c0.4,0.4,0.4,0.9,0,1.3
		l-2.3,2.4c-0.4,0.4-0.8,0.4-1.2,0c-1.6-1.4-3.5-2.1-5.6-2.1c-4.5,0-8.2,3.8-8.2,8.5c0,4.6,3.7,8.4,8.3,8.4c2,0,3.6-0.6,4.3-0.9
		v-2.9h-2.8c-0.5,0-0.9-0.4-0.9-0.8v-3c0-0.5,0.4-0.9,0.9-0.9h7.2c0.4,0,0.8,0.4,0.8,0.9v9.6c0,0.3-0.1,0.5-0.4,0.7
		C377.4,54.3,373.5,56.7,368.1,56.7z M368.1,29.8c-7.3,0-13.3,6-13.3,13.4s5.8,13.3,13.3,13.3c5.3,0,9.2-2.4,9.2-2.4
		c0.1-0.1,0.2-0.3,0.2-0.5v-9.7c0-0.3-0.2-0.6-0.5-0.6h-7.2c-0.3,0-0.6,0.2-0.6,0.6v3c0,0.3,0.2,0.5,0.6,0.5h3.1v3.4h-0.1
		c-0.7,0.3-2.4,0.9-4.5,0.9c-4.7,0-8.6-3.9-8.6-8.7c0-4.9,3.8-8.8,8.5-8.8c2.1,0,4.1,0.8,5.8,2.2c0.3,0.3,0.5,0.3,0.8,0l2.3-2.4
		c0.2-0.2,0.2-0.6,0-0.8C374.5,31,371.3,29.8,368.1,29.8z"/>
	<path class="st1" d="M399,56.4h-15.2c-0.5,0-0.9-0.4-0.9-0.9V30.6c0-0.5,0.4-0.9,0.9-0.9H399c0.5,0,0.9,0.4,0.9,0.9v3.1
		c0,0.5-0.4,0.9-0.9,0.9h-10.9v5.8h9.1c0.5,0,0.9,0.4,0.9,0.9v3.1c0,0.5-0.4,0.9-0.9,0.9h-9.1v6.3H399c0.5,0,0.9,0.4,0.9,0.9v3.1
		C399.9,56,399.5,56.4,399,56.4z M383.8,30.1c-0.3,0-0.6,0.3-0.6,0.6v24.8c0,0.3,0.3,0.6,0.6,0.6H399c0.3,0,0.6-0.3,0.6-0.6v-3.1
		c0-0.3-0.3-0.6-0.6-0.6h-11.2v-6.9h9.4c0.3,0,0.6-0.3,0.6-0.6v-3.1c0-0.3-0.3-0.6-0.6-0.6h-9.4v-6.4H399c0.3,0,0.6-0.3,0.6-0.6
		v-3.1c0-0.3-0.3-0.6-0.6-0.6h-15.2V30.1z"/>
	<path class="st1" d="M426,56.7h-0.5c-0.3,0-0.5-0.1-0.7-0.3l-15.2-16.7v15.8c0,0.5-0.4,0.9-0.9,0.9h-3.4c-0.5,0-0.9-0.4-0.9-0.9
		V30.2c0-0.4,0.4-0.8,0.9-0.8h0.6c0.3,0,0.5,0.1,0.7,0.3l15.1,16.1V30.6c0-0.5,0.4-0.9,0.9-0.9h3.4c0.5,0,0.9,0.4,0.9,0.9v25.2
		C426.9,56.4,426.5,56.7,426,56.7z M409.3,39.2h0.3l0,0L425,56c0.2,0.2,0.3,0.2,0.5,0.2h0.5c0.3,0,0.6-0.2,0.6-0.5V30.6
		c0-0.3-0.3-0.6-0.6-0.6h-3.4c-0.3,0-0.6,0.3-0.6,0.6v15.6h-0.3l0,0L406.4,30c-0.2-0.2-0.3-0.2-0.5-0.2h-0.6c-0.3,0-0.6,0.2-0.6,0.5
		v25.2c0,0.3,0.3,0.6,0.6,0.6h3.4c0.3,0,0.6-0.3,0.6-0.6V39.2z"/>
	<path class="st1" d="M449.1,56.4h-15.2c-0.5,0-0.9-0.4-0.9-0.9V30.6c0-0.5,0.4-0.9,0.9-0.9h15.2c0.5,0,0.9,0.4,0.9,0.9v3.1
		c0,0.5-0.4,0.9-0.9,0.9h-10.9v5.8h9.1c0.5,0,0.9,0.4,0.9,0.9v3.1c0,0.5-0.4,0.9-0.9,0.9h-9.1v6.3h10.9c0.5,0,0.9,0.4,0.9,0.9v3.1
		C450,56,449.6,56.4,449.1,56.4z M433.8,30.1c-0.3,0-0.6,0.3-0.6,0.6v24.8c0,0.3,0.3,0.6,0.6,0.6H449c0.3,0,0.6-0.3,0.6-0.6v-3.1
		c0-0.3-0.3-0.6-0.6-0.6h-11.2v-6.9h9.4c0.3,0,0.6-0.3,0.6-0.6v-3.1c0-0.3-0.3-0.6-0.6-0.6h-9.4v-6.4H449c0.3,0,0.6-0.3,0.6-0.6
		v-3.1c0-0.3-0.3-0.6-0.6-0.6h-15.2V30.1z"/>
	<path class="st1" d="M473.3,56.4h-4c-0.5,0-0.7-0.3-0.7-0.4l-4.9-9.8h-3.9v9.4c0,0.5-0.4,0.9-0.9,0.9h-3.4c-0.5,0-0.9-0.4-0.9-0.9
		V30.6c0-0.5,0.4-0.9,0.9-0.9h10.7c4.6,0,8.3,3.7,8.3,8.2c0,3.3-2.1,6.2-5.5,7.6l5.1,9.4c0.2,0.3,0.2,0.6,0,0.9
		C473.9,56.2,473.6,56.4,473.3,56.4z M459.4,45.8h4.4v0.1l5,9.9c0,0.1,0.2,0.3,0.5,0.3h3.9c0.2,0,0.4-0.1,0.5-0.3s0.1-0.4,0-0.6
		l-5.2-9.7l0.2-0.1c3.4-1.4,5.5-4.2,5.5-7.4c0-4.4-3.6-7.9-8-7.9h-10.7c-0.3,0-0.6,0.3-0.6,0.6v24.8c0,0.3,0.3,0.6,0.6,0.6h3.4
		c0.3,0,0.6-0.3,0.6-0.6L459.4,45.8L459.4,45.8z M465.7,42.1h-6.3v-7.8h6.3c2.1,0,3.9,1.7,3.9,3.8C469.6,40.3,467.8,42.1,465.7,42.1
		z M459.8,41.8h6c1.9,0,3.6-1.7,3.6-3.7c0-1.9-1.6-3.5-3.6-3.5h-6V41.8z"/>
	<path class="st1" d="M500.5,56.4h-3.2c-0.7,0-1-0.3-1.2-0.8l-1.8-4h-11l-1.8,4c-0.1,0.2-0.4,0.8-1.2,0.8H477
		c-0.3,0-0.6-0.1-0.7-0.4c-0.2-0.2-0.2-0.5,0-0.8l11.6-25.2c0.2-0.3,0.4-0.5,0.8-0.5h0.4c0.5,0,0.6,0.3,0.8,0.5l11.4,25.2
		c0.1,0.3,0.1,0.6,0,0.8C501.1,56.2,500.8,56.4,500.5,56.4z M483,51.3h11.4l1.9,4.1c0.3,0.5,0.5,0.7,1,0.7h3.3
		c0.2,0,0.4-0.1,0.5-0.2c0.1-0.1,0.1-0.3,0-0.5l-11.5-25.2c-0.1-0.2-0.2-0.3-0.5-0.3h-0.4c-0.2,0-0.4,0.1-0.5,0.3l-11.6,25.2
		c-0.1,0.2-0.1,0.4,0,0.5c0.1,0.2,0.3,0.2,0.5,0.2h3.3c0.6,0,0.8-0.4,0.9-0.7L483,51.3z M492.7,47.4h-8l3.8-8.5h0.3L492.7,47.4z
		 M485.2,47.1h7.1l-3.6-7.8L485.2,47.1z"/>
	<path class="st1" d="M511.2,56.4h-3.5c-0.5,0-0.9-0.4-0.9-0.9V34.6h-5.5c-0.5,0-0.9-0.4-0.9-0.9v-3.1c0-0.5,0.4-0.9,0.9-0.9h16.4
		c0.5,0,0.9,0.4,0.9,0.9v3.1c0,0.5-0.4,0.9-0.9,0.9h-5.6v20.9C512.1,56,511.8,56.4,511.2,56.4z M501.3,30.1c-0.3,0-0.6,0.3-0.6,0.6
		v3.1c0,0.3,0.3,0.6,0.6,0.6h5.9v21.2c0,0.3,0.3,0.6,0.6,0.6h3.5c0.3,0,0.6-0.3,0.6-0.6V34.3h5.9c0.3,0,0.6-0.3,0.6-0.6v-3.1
		c0-0.3-0.3-0.6-0.6-0.6L501.3,30.1L501.3,30.1z"/>
	<path class="st1" d="M526.8,56.4h-3.5c-0.5,0-0.9-0.4-0.9-0.9V30.6c0-0.5,0.4-0.9,0.9-0.9h3.5c0.5,0,0.9,0.4,0.9,0.9v24.8
		C527.6,56,527.2,56.4,526.8,56.4z M523.2,30.1c-0.3,0-0.6,0.3-0.6,0.6v24.8c0,0.3,0.3,0.6,0.6,0.6h3.5c0.3,0,0.6-0.3,0.6-0.6V30.6
		c0-0.3-0.3-0.6-0.6-0.6C526.8,30,523.2,30,523.2,30.1z"/>
	<g>
		<path class="st1" d="M15.1,15.6c3.1-1.2,5.2-4.1,5.3-7.4c0-4.5-3.7-8.1-8.2-8.1H1.8c-0.5,0-0.9,0.4-0.9,0.9v24
			c0,0.5,0.4,0.9,0.9,0.9c0,0,0,0,0,0h3.3c0.5,0,0.9-0.4,0.9-0.9v-9h3.6l4.8,9.5c0.2,0.3,0.5,0.5,0.8,0.5h3.8c0.3,0,0.6-0.1,0.8-0.4
			c0.2-0.3,0.2-0.7,0-1L15.1,15.6z M11.8,12.2H5.6V4.4h6.2c2.1,0,3.8,1.7,3.8,3.8C15.6,10.4,13.9,12.1,11.8,12.2z"/>
		<path class="st1" d="M41.7,26H26.9c-0.5,0-0.9-0.4-0.9-0.9c0,0,0,0,0,0l0,0v-24c0-0.5,0.4-0.9,0.9-0.9h14.8c0.5,0,0.9,0.4,0.9,0.9
			v3c0,0.5-0.4,0.9-0.9,0.9H31.2v5.4h8.7c0.5,0,0.9,0.4,0.9,0.9v3c0,0.5-0.4,0.9-0.9,0.9h-8.7v5.9h10.5c0.5,0,0.9,0.4,0.9,0.9v3
			C42.6,25.6,42.2,26,41.7,26z"/>
		<path class="st1" d="M58.9,26.4c-7.2,0.1-13.2-5.7-13.3-13c0,0,0,0,0,0v-0.3c0-7.3,5.9-13.3,13.3-13.3c3.3,0,6.5,1.3,9,3.4
			c0.4,0.4,0.4,1,0,1.4l-2.2,2.4c-0.3,0.4-0.9,0.4-1.2,0.1c0,0,0,0,0,0l-0.1-0.1c-1.5-1.3-3.4-2-5.3-2c-4.4,0.1-7.9,3.7-7.9,8.1
			c0,0,0,0,0,0l0,0c0,4.4,3.5,8,7.9,8.1c1.4,0,2.8-0.3,4.1-0.8v-2.7h-2.6c-0.5,0-0.9-0.4-0.9-0.9c0,0,0,0,0,0v-2.8
			c0-0.5,0.4-0.9,0.9-0.9c0,0,0,0,0,0h7.1c0.5,0,0.9,0.4,0.9,0.9c0,0,0,0,0,0v9.3c0,0.3-0.1,0.6-0.4,0.8
			C65.3,25.5,62.1,26.4,58.9,26.4z"/>
		<path class="st1" d="M89.8,26H75c-0.5,0-0.9-0.4-0.9-0.9c0,0,0,0,0,0l0,0v-24c0-0.5,0.4-0.9,0.9-0.9h14.8c0.5,0,0.9,0.4,0.9,0.9v3
			c0,0.5-0.4,0.9-0.9,0.9H79.3v5.4H88c0.5,0,0.9,0.4,0.9,0.9v3c0,0.5-0.4,0.9-0.9,0.9h-8.7v5.9h10.5c0.5,0,0.9,0.4,0.9,0.9v3
			C90.7,25.6,90.3,26,89.8,26z"/>
		<path class="st1" d="M116.6,26.4H116c-0.3,0-0.6-0.1-0.8-0.3l-14.5-16v15c0,0.5-0.4,0.9-0.9,0.9l0,0h-3.3c-0.5,0-0.9-0.4-0.9-0.9
			V0.7c0-0.5,0.4-0.9,0.9-0.9c0,0,0,0,0,0H97c0.3,0,0.6,0.1,0.8,0.3l14.4,15.4V1.1c0-0.5,0.4-0.9,0.9-0.9h3.3c0.5,0,0.9,0.4,0.9,0.9
			v24.4C117.5,26,117.1,26.4,116.6,26.4C116.6,26.4,116.6,26.4,116.6,26.4z"/>
		<path class="st1" d="M139.9,26h-14.8c-0.5,0-0.9-0.4-0.9-0.9v-24c0-0.5,0.4-0.9,0.9-0.9h14.8c0.5,0,0.9,0.4,0.9,0.9v3
			c0,0.5-0.4,0.9-0.9,0.9l0,0h-10.5v5.4h8.7c0.5,0,0.9,0.4,0.9,0.9v3c0,0.5-0.4,0.9-0.9,0.9h-8.7v5.9h10.5c0.5,0,0.9,0.4,0.9,0.9
			c0,0,0,0,0,0l0,0v3C140.8,25.6,140.4,26,139.9,26z"/>
		<path class="st1" d="M265.5,26h-14.8c-0.5,0-0.9-0.4-0.9-0.9v-24c0-0.5,0.4-0.9,0.9-0.9h14.8c0.5,0,0.9,0.4,0.9,0.9v3
			c0,0.5-0.4,0.9-0.9,0.9l0,0H255v5.4h8.7c0.5,0,0.9,0.4,0.9,0.9v3c0,0.5-0.4,0.9-0.9,0.9H255v5.9h10.5c0.5,0,0.9,0.4,0.9,0.9
			c0,0,0,0,0,0l0,0v3C266.4,25.6,266,26,265.5,26z"/>
		<path class="st1" d="M160.1,15.7c3.1-1.2,5.2-4.1,5.3-7.5c0-4.5-3.7-8.1-8.2-8.1h-10.4c-0.5,0-0.9,0.4-0.9,0.9v24
			c0,0.5,0.4,0.9,0.9,0.9l0,0h3.3c0.5,0,0.9-0.4,0.9-0.9v-9h3.6l4.8,9.5c0.2,0.3,0.5,0.5,0.8,0.5h3.8c0.3,0,0.6-0.1,0.8-0.4
			c0.2-0.3,0.2-0.7,0-1L160.1,15.7z M156.8,12.2h-6.2V4.4h6.2c2.1,0,3.8,1.7,3.8,3.8C160.6,10.4,158.9,12.1,156.8,12.2L156.8,12.2z"
			/>
		<path class="st1" d="M191.8,24.8L180.6,0.3c-0.1-0.3-0.5-0.6-0.8-0.5h-0.4c-0.4,0-0.7,0.2-0.8,0.6l-11.3,24.5
			c-0.2,0.3-0.2,0.6,0,0.9c0.2,0.3,0.5,0.4,0.8,0.4h3.2c0.6,0,1.1-0.3,1.3-0.9l1.7-3.8h10.5l1.7,3.7c0.2,0.5,0.7,0.9,1.3,0.9h3.2
			c0.5,0,0.9-0.3,0.9-0.8C191.9,25,191.9,24.9,191.8,24.8L191.8,24.8z M175.5,17.4l3.8-8.5h0.4l3.9,8.5H175.5z"/>
		<path class="st1" d="M202.1,26h-3.4c-0.5,0-0.9-0.4-0.9-0.9V5h-5.3c-0.5,0-0.9-0.4-0.9-0.9c0,0,0,0,0,0l0,0V1
			c0-0.5,0.4-0.9,0.9-0.9h15.9c0.5,0,0.9,0.4,0.9,0.9v3c0,0.5-0.4,0.9-0.9,0.9l0,0H203v20.1C203,25.6,202.6,26,202.1,26z"/>
		<path class="st1" d="M217.8,26h-3.4c-0.5,0-0.9-0.4-0.9-0.9v-24c0-0.5,0.4-0.9,0.9-0.9h3.4c0.5,0,0.9,0.4,0.9,0.9v24
			C218.7,25.6,218.3,26,217.8,26z"/>
		<path class="st1" d="M234.1,26.4h-0.4c-0.4,0-0.7-0.2-0.8-0.5L221.7,1.4c-0.2-0.4-0.1-1,0.4-1.2c0,0,0,0,0,0
			c0.1-0.1,0.3-0.1,0.5-0.1h3.7c0.4,0,0.7,0.2,0.9,0.6l6.9,15.3l6.9-15.3c0.1-0.3,0.5-0.6,0.9-0.6h3.8c0.3,0,0.6,0.1,0.8,0.4
			c0.2,0.3,0.2,0.6,0,0.9L235,25.8C234.9,26.2,234.5,26.5,234.1,26.4z"/>
	</g>
</g>
</svg>
