<?xml version="1.0" encoding="utf-8"?>
<!-- Generator: Adobe Illustrator 25.4.1, SVG Export Plug-In . SVG Version: 6.00 Build 0)  -->
<svg version="1.1" id="Capa_1" xmlns="http://www.w3.org/2000/svg" xmlns:xlink="http://www.w3.org/1999/xlink" x="0px" y="0px"
	 viewBox="0 0 513.6 67.2" style="enable-background:new 0 0 513.6 67.2;" xml:space="preserve">
<style type="text/css">
	.st0{opacity:0.2;}
	.st1{fill:#7AB2E1;}
</style>
<g class="st0">
	<path class="st1" d="M14.4,31.2c-7.6,0-13.6-6-13.6-13.6c0-7.5,6.1-13.7,13.6-13.7c7.5,0,13.6,6.1,13.6,13.7
		C28,25.2,22,31.2,14.4,31.2z M14.4,4.2c-7.3,0-13.3,6-13.3,13.4c0,7.5,5.8,13.3,13.3,13.3c7.5,0,13.3-5.8,13.3-13.3
		C27.7,10.2,21.7,4.2,14.4,4.2z M14.4,26.3c-4.8,0-8.7-3.9-8.7-8.7c0-4.9,3.9-8.8,8.7-8.8c4.8,0,8.8,4,8.8,8.8
		C23.1,22.4,19.2,26.3,14.4,26.3z M14.4,9.1c-4.6,0-8.4,3.8-8.4,8.5c0,4.6,3.8,8.4,8.4,8.4c4.7,0,8.5-3.8,8.5-8.4
		C22.8,13,18.9,9.1,14.4,9.1z"/>
	<path class="st1" d="M46,31.2h-0.7c-0.3,0-0.6-0.2-0.8-0.5l-6.5-14.5l-2.1,13.9c0,0.3-0.4,0.7-0.8,0.7h-3.4c-0.3,0-0.5-0.1-0.7-0.3
		c-0.2-0.2-0.2-0.5-0.2-0.8l4.5-25.2c0.1-0.4,0.4-0.7,0.8-0.7h0.6c0.3,0,0.6,0.2,0.8,0.5l8.2,17.5l8.2-17.5c0.2-0.3,0.4-0.5,0.8-0.5
		h0.6c0.4,0,0.8,0.3,0.8,0.7l4.4,25.2c0.1,0.3,0,0.6-0.1,0.7c-0.2,0.2-0.4,0.3-0.7,0.3h-3.4c-0.4,0-0.8-0.3-0.9-0.7l-2.2-13.9
		l-6.4,14.4C46.7,31,46.4,31.2,46,31.2z M37.8,15.8h0.3l0,0.1l6.6,14.7c0.1,0.2,0.3,0.3,0.5,0.3H46c0.3,0,0.4-0.2,0.5-0.3l6.6-14.8
		h0.3l0,0.1l2.2,14.2c0.1,0.2,0.3,0.4,0.6,0.4h3.4c0.2,0,0.4-0.1,0.4-0.2c0.1-0.1,0.1-0.3,0.1-0.5L55.8,4.7c0-0.2-0.2-0.4-0.5-0.4
		h-0.6c-0.2,0-0.4,0.1-0.5,0.3l-8.3,17.8h-0.3l0-0.1L37.3,4.5c-0.1-0.2-0.3-0.3-0.5-0.3h-0.6c-0.3,0-0.5,0.2-0.5,0.4l0,0l-4.5,25.2
		c0,0.2,0,0.4,0.1,0.5c0.1,0.1,0.3,0.2,0.4,0.2h3.4c0.3,0,0.5-0.2,0.5-0.4L37.8,15.8z"/>
	<path class="st1" d="M86.7,31.2h-0.5c-0.3,0-0.5-0.1-0.7-0.3L70.3,14.2V30c0,0.5-0.4,0.9-0.9,0.9H66c-0.5,0-0.9-0.4-0.9-0.9V4.8
		c0-0.4,0.4-0.8,0.9-0.8h0.6c0.3,0,0.5,0.1,0.7,0.3l15.1,16.1V5.2c0-0.5,0.4-0.9,0.9-0.9h3.4c0.5,0,0.9,0.4,0.9,0.9v25.2
		C87.6,30.8,87.2,31.2,86.7,31.2z M70,13.7h0.3l0,0l15.4,16.9c0.2,0.2,0.3,0.2,0.5,0.2h0.5c0.3,0,0.6-0.2,0.6-0.5V5.2
		c0-0.3-0.3-0.6-0.6-0.6h-3.4c-0.3,0-0.6,0.3-0.6,0.6v15.6h-0.3L67.1,4.5c-0.2-0.2-0.3-0.2-0.5-0.2H66c-0.3,0-0.6,0.2-0.6,0.5V30
		c0,0.3,0.3,0.6,0.6,0.6h3.4c0.3,0,0.6-0.3,0.6-0.6V13.7z"/>
	<path class="st1" d="M98,30.8h-3.5c-0.5,0-0.9-0.4-0.9-0.9V5.2c0-0.5,0.4-0.9,0.9-0.9H98c0.5,0,0.9,0.4,0.9,0.9V30
		C98.8,30.4,98.4,30.8,98,30.8z M94.5,4.6c-0.3,0-0.6,0.3-0.6,0.6V30c0,0.3,0.3,0.6,0.6,0.6H98c0.3,0,0.6-0.3,0.6-0.6V5.2
		c0-0.3-0.3-0.6-0.6-0.6H94.5z"/>
	<path class="st1" d="M117,31.2c-7.5,0-13.7-6.1-13.7-13.6c0-7.5,6.1-13.7,13.7-13.7c3.6,0,6.5,1.1,9.2,3.5c0.2,0.2,0.3,0.4,0.3,0.6
		c0,0.2-0.1,0.5-0.3,0.6l-2.3,2.4c-0.1,0.2-0.3,0.3-0.5,0.3c-0.2,0-0.4-0.1-0.6-0.3c-1.6-1.4-3.6-2.2-5.7-2.2
		c-4.6,0-8.2,3.8-8.2,8.6c0,4.8,3.6,8.5,8.2,8.5c2,0,3.9-0.7,5.6-2.1c0.4-0.3,0.9-0.3,1.1,0l2.3,2.4c0.1,0.1,0.2,0.3,0.2,0.5
		c0,0.3-0.1,0.5-0.3,0.7C123.8,29.9,120.6,31.2,117,31.2z M117,4.2c-7.4,0-13.4,6-13.4,13.4c0,7.3,6,13.3,13.4,13.3
		c3.5,0,6.6-1.2,9-3.6c0.1-0.1,0.2-0.3,0.2-0.5c0-0.1,0-0.2-0.1-0.3l-2.3-2.4c-0.2-0.2-0.5-0.2-0.7,0c-1.8,1.4-3.7,2.2-5.8,2.2
		c-4.8,0-8.5-3.9-8.5-8.8c0-5,3.7-8.9,8.5-8.9c2.1,0,4.2,0.8,5.9,2.2c0.1,0.1,0.3,0.2,0.4,0.2c0,0,0,0,0,0c0.1,0,0.2-0.1,0.3-0.2
		l2.3-2.4c0.1-0.1,0.2-0.3,0.2-0.4c0-0.2-0.1-0.3-0.2-0.4C123.4,5.3,120.6,4.2,117,4.2z"/>
	<path class="st1" d="M152.1,30.8h-3.4c-0.5,0-0.9-0.4-0.9-0.9V19.8h-11.9V30c0,0.5-0.4,0.9-0.9,0.9h-3.5c-0.5,0-0.9-0.4-0.9-0.9
		V5.2c0-0.5,0.4-0.9,0.9-0.9h3.5c0.5,0,0.9,0.4,0.9,0.9V15h11.9V5.2c0-0.5,0.4-0.9,0.9-0.9h3.4c0.5,0,0.9,0.4,0.9,0.9V30
		C153,30.4,152.6,30.8,152.1,30.8z M135.6,19.5h12.5V30c0,0.3,0.3,0.6,0.6,0.6h3.4c0.3,0,0.6-0.3,0.6-0.6V5.2c0-0.3-0.3-0.6-0.6-0.6
		h-3.4c-0.3,0-0.6,0.3-0.6,0.6v10.1h-12.5V5.2c0-0.3-0.3-0.6-0.6-0.6h-3.5c-0.3,0-0.6,0.3-0.6,0.6V30c0,0.3,0.3,0.6,0.6,0.6h3.5
		c0.3,0,0.6-0.3,0.6-0.6V19.5z"/>
	<path class="st1" d="M180.3,30.8H177c-0.7,0-1-0.3-1.2-0.8l-1.8-4h-11l-1.8,4c-0.1,0.2-0.4,0.8-1.2,0.8h-3.3
		c-0.3,0-0.6-0.1-0.7-0.4c-0.2-0.2-0.2-0.5,0-0.8l11.7-25.2c0.2-0.3,0.4-0.5,0.8-0.5h0.4c0.5,0,0.6,0.2,0.8,0.5l11.5,25.2
		c0.1,0.3,0.1,0.6,0,0.8C180.9,30.7,180.6,30.8,180.3,30.8z M162.8,25.7h11.4l1.9,4.1c0.3,0.5,0.5,0.7,0.9,0.7h3.3
		c0.2,0,0.4-0.1,0.5-0.2c0.1-0.1,0.1-0.3,0-0.5L169.2,4.6c-0.1-0.2-0.2-0.3-0.5-0.3h-0.4c-0.2,0-0.4,0.1-0.5,0.3l-11.6,25.2
		c-0.1,0.2-0.1,0.4,0,0.5c0.1,0.1,0.3,0.2,0.5,0.2h3.3c0.6,0,0.8-0.4,0.9-0.7L162.8,25.7z M172.5,21.9h-8l3.8-8.5h0.3L172.5,21.9z
		 M165,21.6h7.1l-3.6-7.9L165,21.6z"/>
	<path class="st1" d="M205.6,31.2h-0.5c-0.3,0-0.5-0.1-0.7-0.3l-15.2-16.7V30c0,0.5-0.4,0.9-0.9,0.9h-3.4c-0.5,0-0.9-0.4-0.9-0.9
		V4.8c0-0.4,0.4-0.8,0.9-0.8h0.6c0.3,0,0.5,0.1,0.7,0.3l15.1,16.1V5.2c0-0.5,0.4-0.9,0.9-0.9h3.4c0.5,0,0.9,0.4,0.9,0.9v25.2
		C206.5,30.8,206.1,31.2,205.6,31.2z M188.9,13.7h0.3l0,0l15.4,16.9c0.2,0.2,0.3,0.2,0.5,0.2h0.5c0.3,0,0.6-0.2,0.6-0.5V5.2
		c0-0.3-0.3-0.6-0.6-0.6h-3.4c-0.3,0-0.6,0.3-0.6,0.6v15.6h-0.3L186,4.5c-0.2-0.2-0.3-0.2-0.5-0.2h-0.6c-0.3,0-0.6,0.2-0.6,0.5V30
		c0,0.3,0.3,0.6,0.6,0.6h3.4c0.3,0,0.6-0.3,0.6-0.6V13.7z"/>
	<path class="st1" d="M234.2,31.2h-0.5c-0.3,0-0.5-0.1-0.7-0.3l-15.2-16.7V30c0,0.5-0.4,0.9-0.9,0.9h-3.4c-0.5,0-0.9-0.4-0.9-0.9
		V4.8c0-0.4,0.4-0.8,0.9-0.8h0.6c0.3,0,0.5,0.1,0.7,0.3l15.1,16.1V5.2c0-0.5,0.4-0.9,0.9-0.9h3.4c0.5,0,0.9,0.4,0.9,0.9v25.2
		C235,30.8,234.6,31.2,234.2,31.2z M217.4,13.7h0.3l0,0l15.4,16.9c0.2,0.2,0.3,0.2,0.5,0.2h0.5c0.3,0,0.6-0.2,0.6-0.5V5.2
		c0-0.3-0.3-0.6-0.6-0.6h-3.4c-0.3,0-0.6,0.3-0.6,0.6v15.6h-0.3L214.5,4.5c-0.2-0.2-0.3-0.2-0.5-0.2h-0.6c-0.3,0-0.6,0.2-0.6,0.5V30
		c0,0.3,0.3,0.6,0.6,0.6h3.4c0.3,0,0.6-0.3,0.6-0.6V13.7z"/>
	<path class="st1" d="M257.2,30.8h-15.2c-0.5,0-0.9-0.4-0.9-0.9V5.2c0-0.5,0.4-0.9,0.9-0.9h15.2c0.5,0,0.9,0.4,0.9,0.9v3.1
		c0,0.5-0.4,0.9-0.9,0.9h-10.9V15h9.1c0.5,0,0.9,0.4,0.9,0.9v3.1c0,0.5-0.4,0.9-0.9,0.9h-9.1V26h10.9c0.5,0,0.9,0.4,0.9,0.9V30
		C258.1,30.5,257.7,30.8,257.2,30.8z M241.9,4.6c-0.3,0-0.6,0.3-0.6,0.6V30c0,0.3,0.3,0.6,0.6,0.6h15.2c0.3,0,0.6-0.3,0.6-0.6v-3.1
		c0-0.3-0.3-0.6-0.6-0.6H246v-6.9h9.4c0.3,0,0.6-0.3,0.6-0.6v-3.1c0-0.3-0.3-0.6-0.6-0.6H246V8.8h11.2c0.3,0,0.6-0.3,0.6-0.6V5.2
		c0-0.3-0.3-0.6-0.6-0.6H241.9z"/>
	<path class="st1" d="M277.2,30.8h-13.7c-0.5,0-0.9-0.4-0.9-0.9V5.2c0-0.5,0.4-0.9,0.9-0.9h3.4c0.5,0,0.9,0.4,0.9,0.9V26h9.4
		c0.5,0,0.9,0.4,0.9,0.9V30C278.1,30.5,277.7,30.8,277.2,30.8z M263.5,4.6c-0.3,0-0.6,0.3-0.6,0.6V30c0,0.3,0.3,0.6,0.6,0.6h13.7
		c0.3,0,0.6-0.3,0.6-0.6v-3.1c0-0.3-0.3-0.6-0.6-0.6h-9.7V5.2c0-0.3-0.3-0.6-0.6-0.6H263.5z"/>
	<path class="st1" d="M293,31.2c-7.6,0-13.6-6-13.6-13.6c0-7.5,6.1-13.7,13.6-13.7c7.5,0,13.6,6.1,13.6,13.7
		C306.6,25.2,300.6,31.2,293,31.2z M293,4.2c-7.3,0-13.3,6-13.3,13.4c0,7.5,5.8,13.3,13.3,13.3c7.5,0,13.3-5.8,13.3-13.3
		C306.3,10.2,300.3,4.2,293,4.2z M293,26.3c-4.8,0-8.7-3.9-8.7-8.7c0-4.9,3.9-8.8,8.7-8.8c4.8,0,8.8,4,8.8,8.8
		C301.7,22.4,297.8,26.3,293,26.3z M293,9.1c-4.6,0-8.4,3.8-8.4,8.5c0,4.6,3.8,8.4,8.4,8.4c4.7,0,8.5-3.8,8.5-8.4
		C301.4,13,297.6,9.1,293,9.1z"/>
	<path class="st1" d="M324.6,31.2H324c-0.3,0-0.6-0.2-0.8-0.5l-6.5-14.5l-2.1,13.9c0,0.3-0.4,0.7-0.8,0.7h-3.4
		c-0.3,0-0.5-0.1-0.7-0.3c-0.2-0.2-0.2-0.5-0.2-0.8L314,4.6c0-0.3,0.3-0.7,0.8-0.7h0.6c0.3,0,0.6,0.2,0.8,0.5l8.2,17.5l8.2-17.5
		c0.2-0.3,0.4-0.5,0.8-0.5h0.6c0.4,0,0.8,0.3,0.8,0.7l4.4,25.2c0.1,0.3,0,0.6-0.1,0.7c-0.2,0.2-0.4,0.3-0.7,0.3h-3.4
		c-0.4,0-0.8-0.3-0.9-0.7l-2.2-13.9l-6.4,14.4C325.3,31,325,31.2,324.6,31.2z M316.4,15.8h0.3l0,0.1l6.6,14.7
		c0.1,0.2,0.3,0.3,0.5,0.3h0.7c0.3,0,0.4-0.2,0.5-0.3l6.6-14.8h0.3l0,0.1l2.2,14.2c0.1,0.2,0.3,0.4,0.6,0.4h3.4
		c0.2,0,0.4-0.1,0.4-0.2c0.1-0.1,0.1-0.3,0.1-0.5l-4.4-25.2c0-0.2-0.2-0.4-0.5-0.4h-0.6c-0.2,0-0.4,0.1-0.5,0.3l-8.3,17.8h-0.3
		l0-0.1l-8.2-17.7c-0.1-0.2-0.3-0.3-0.5-0.3h-0.6c-0.3,0-0.5,0.2-0.5,0.4l0,0l-4.5,25.2c0,0.2,0,0.4,0.1,0.5
		c0.1,0.1,0.3,0.2,0.4,0.2h3.4c0.3,0,0.5-0.2,0.5-0.4L316.4,15.8z"/>
	<path class="st1" d="M365.3,31.2h-0.5c-0.3,0-0.5-0.1-0.7-0.3l-15.2-16.7V30c0,0.5-0.4,0.9-0.9,0.9h-3.4c-0.5,0-0.9-0.4-0.9-0.9
		V4.8c0-0.4,0.4-0.8,0.9-0.8h0.6c0.3,0,0.5,0.1,0.7,0.3L361,20.4V5.2c0-0.5,0.4-0.9,0.9-0.9h3.4c0.5,0,0.9,0.4,0.9,0.9v25.2
		C366.2,30.8,365.8,31.2,365.3,31.2z M348.6,13.7h0.3l0,0l15.4,16.9c0.2,0.2,0.3,0.2,0.5,0.2h0.5c0.3,0,0.6-0.2,0.6-0.5V5.2
		c0-0.3-0.3-0.6-0.6-0.6h-3.4c-0.3,0-0.6,0.3-0.6,0.6v15.6H361l0,0L345.7,4.5c-0.2-0.2-0.3-0.2-0.5-0.2h-0.6c-0.3,0-0.6,0.2-0.6,0.5
		V30c0,0.3,0.3,0.6,0.6,0.6h3.4c0.3,0,0.6-0.3,0.6-0.6V13.7z"/>
	<path class="st1" d="M376.6,30.8h-3.5c-0.5,0-0.9-0.4-0.9-0.9V5.2c0-0.5,0.4-0.9,0.9-0.9h3.5c0.5,0,0.9,0.4,0.9,0.9V30
		C377.5,30.4,377,30.8,376.6,30.8z M373.1,4.6c-0.3,0-0.6,0.3-0.6,0.6V30c0,0.3,0.3,0.6,0.6,0.6h3.5c0.3,0,0.6-0.3,0.6-0.6V5.2
		c0-0.3-0.3-0.6-0.6-0.6H373.1z"/>
	<path class="st1" d="M395.7,31.2c-7.5,0-13.7-6.1-13.7-13.6c0-7.5,6.1-13.7,13.7-13.7c3.6,0,6.4,1.1,9.2,3.5
		c0.2,0.2,0.3,0.4,0.3,0.6c0,0.2-0.1,0.5-0.3,0.6l-2.3,2.4c-0.1,0.2-0.3,0.3-0.5,0.3c-0.2,0-0.4-0.1-0.6-0.3
		c-1.6-1.4-3.6-2.2-5.7-2.2c-4.6,0-8.2,3.8-8.2,8.6c0,4.8,3.6,8.5,8.2,8.5c2,0,3.9-0.7,5.6-2.1c0.4-0.3,0.9-0.3,1.1,0l2.3,2.4
		c0.1,0.1,0.2,0.3,0.2,0.5c0,0.3-0.1,0.5-0.3,0.7C402.4,29.9,399.2,31.2,395.7,31.2z M395.7,4.2c-7.4,0-13.4,6-13.4,13.4
		c0,7.3,6,13.3,13.4,13.3c3.5,0,6.6-1.2,9-3.6c0.1-0.1,0.2-0.3,0.2-0.5c0-0.1,0-0.2-0.1-0.3l-2.3-2.4c-0.2-0.2-0.5-0.2-0.7,0
		c-1.8,1.4-3.7,2.2-5.8,2.2c-4.8,0-8.5-3.9-8.5-8.8c0-5,3.7-8.9,8.5-8.9c2.1,0,4.2,0.8,5.9,2.2c0.1,0.1,0.3,0.2,0.4,0.2c0,0,0,0,0,0
		c0.1,0,0.2-0.1,0.3-0.2l2.3-2.4c0.1-0.1,0.2-0.3,0.2-0.4c0-0.2-0.1-0.3-0.2-0.4C402,5.3,399.2,4.2,395.7,4.2z"/>
	<path class="st1" d="M430.7,30.8h-3.4c-0.5,0-0.9-0.4-0.9-0.9V19.8h-11.9V30c0,0.5-0.4,0.9-0.9,0.9h-3.5c-0.5,0-0.9-0.4-0.9-0.9
		V5.2c0-0.5,0.4-0.9,0.9-0.9h3.5c0.5,0,0.9,0.4,0.9,0.9V15h11.9V5.2c0-0.5,0.4-0.9,0.9-0.9h3.4c0.5,0,0.9,0.4,0.9,0.9V30
		C431.6,30.4,431.2,30.8,430.7,30.8z M414.2,19.5h12.5V30c0,0.3,0.3,0.6,0.6,0.6h3.4c0.3,0,0.6-0.3,0.6-0.6V5.2
		c0-0.3-0.3-0.6-0.6-0.6h-3.4c-0.3,0-0.6,0.3-0.6,0.6v10.1h-12.5V5.2c0-0.3-0.3-0.6-0.6-0.6h-3.5c-0.3,0-0.6,0.3-0.6,0.6V30
		c0,0.3,0.3,0.6,0.6,0.6h3.5c0.3,0,0.6-0.3,0.6-0.6V19.5z"/>
	<path class="st1" d="M458.9,30.8h-3.3c-0.7,0-1-0.3-1.2-0.8l-1.8-4h-11l-1.8,4c-0.1,0.2-0.4,0.8-1.2,0.8h-3.3
		c-0.3,0-0.6-0.1-0.7-0.4c-0.2-0.2-0.2-0.5,0-0.8l11.6-25.2c0.2-0.3,0.4-0.5,0.8-0.5h0.4c0.5,0,0.6,0.2,0.8,0.5l11.5,25.2
		c0.1,0.3,0.1,0.6,0,0.8C459.5,30.7,459.2,30.8,458.9,30.8z M441.4,25.7h11.4l1.9,4.1c0.3,0.5,0.5,0.7,1,0.7h3.3
		c0.2,0,0.4-0.1,0.5-0.2c0.1-0.1,0.1-0.3,0-0.5L447.9,4.6c-0.1-0.2-0.2-0.3-0.5-0.3H447c-0.2,0-0.4,0.1-0.5,0.3l-11.6,25.2
		c-0.1,0.2-0.1,0.4,0,0.5c0.1,0.1,0.3,0.2,0.5,0.2h3.3c0.6,0,0.8-0.4,0.9-0.7L441.4,25.7z M451.1,21.9h-8l0.1-0.2l3.7-8.3h0.3
		L451.1,21.9z M443.6,21.6h7.1l-3.6-7.9L443.6,21.6z"/>
	<path class="st1" d="M484.3,31.2h-0.5c-0.3,0-0.5-0.1-0.7-0.3l-15.2-16.7V30c0,0.5-0.4,0.9-0.9,0.9h-3.4c-0.5,0-0.9-0.4-0.9-0.9
		V4.8c0-0.4,0.4-0.8,0.9-0.8h0.6c0.3,0,0.5,0.1,0.7,0.3l15.1,16.1V5.2c0-0.5,0.4-0.9,0.9-0.9h3.4c0.5,0,0.9,0.4,0.9,0.9v25.2
		C485.1,30.8,484.7,31.2,484.3,31.2z M467.5,13.7h0.3l0,0l15.4,16.9c0.2,0.2,0.3,0.2,0.5,0.2h0.5c0.3,0,0.6-0.2,0.6-0.5V5.2
		c0-0.3-0.3-0.6-0.6-0.6h-3.4c-0.3,0-0.6,0.3-0.6,0.6v15.6H480l0,0L464.6,4.5c-0.2-0.2-0.3-0.2-0.5-0.2h-0.6c-0.3,0-0.6,0.2-0.6,0.5
		V30c0,0.3,0.3,0.6,0.6,0.6h3.4c0.3,0,0.6-0.3,0.6-0.6V13.7z"/>
	<path class="st1" d="M512.8,31.2h-0.5c-0.3,0-0.5-0.1-0.7-0.3l-15.2-16.7V30c0,0.5-0.4,0.9-0.9,0.9h-3.4c-0.5,0-0.9-0.4-0.9-0.9
		V4.8c0-0.4,0.4-0.8,0.9-0.8h0.6c0.3,0,0.5,0.1,0.7,0.3l15.1,16.1V5.2c0-0.5,0.4-0.9,0.9-0.9h3.4c0.5,0,0.9,0.4,0.9,0.9v25.2
		C513.6,30.8,513.2,31.2,512.8,31.2z M496,13.7h0.3l0,0l15.4,16.9c0.2,0.2,0.3,0.2,0.5,0.2h0.5c0.3,0,0.6-0.2,0.6-0.5V5.2
		c0-0.3-0.3-0.6-0.6-0.6h-3.4c-0.3,0-0.6,0.3-0.6,0.6v15.6h-0.3l0,0L493.1,4.5c-0.2-0.2-0.3-0.2-0.5-0.2h-0.6
		c-0.3,0-0.6,0.2-0.6,0.5V30c0,0.3,0.3,0.6,0.6,0.6h3.4c0.3,0,0.6-0.3,0.6-0.6V13.7z"/>
	<path class="st1" d="M23.5,62.8h-3.3c-0.7,0-1-0.3-1.2-0.8l-1.8-4h-11l-1.8,4c-0.1,0.2-0.4,0.8-1.2,0.8H0c-0.3,0-0.6-0.1-0.7-0.4
		c-0.2-0.2-0.2-0.5,0-0.8l11.7-25.2c0.2-0.3,0.4-0.5,0.8-0.5H12c0.5,0,0.6,0.3,0.8,0.5l11.5,25.2c0.1,0.3,0.1,0.6,0,0.8
		C24.1,62.7,23.9,62.8,23.5,62.8z M6.1,57.7h11.4l1.9,4.1c0.3,0.5,0.5,0.7,0.9,0.7h3.3c0.2,0,0.4-0.1,0.5-0.2c0.1-0.1,0.1-0.3,0-0.5
		L12.5,36.6c-0.1-0.2-0.2-0.3-0.5-0.3h-0.4c-0.2,0-0.4,0.1-0.5,0.3L-0.5,61.8c-0.1,0.2-0.1,0.4,0,0.5c0.1,0.1,0.3,0.2,0.5,0.2h3.3
		c0.6,0,0.8-0.4,0.9-0.7L6.1,57.7z M15.8,53.9h-8l0.1-0.2l3.7-8.3h0.3L15.8,53.9z M8.2,53.6h7.1l-3.6-7.8L8.2,53.6z"/>
	<path class="st1" d="M48.9,63.2h-0.5c-0.3,0-0.5-0.1-0.7-0.3L32.5,46.2V62c0,0.5-0.4,0.9-0.9,0.9h-3.4c-0.5,0-0.9-0.4-0.9-0.9V36.8
		c0-0.4,0.4-0.8,0.9-0.8h0.6c0.3,0,0.5,0.1,0.7,0.3l15.1,16.1V37.2c0-0.5,0.4-0.9,0.9-0.9h3.4c0.5,0,0.9,0.4,0.9,0.9v25.2
		C49.8,62.8,49.4,63.2,48.9,63.2z M32.2,45.7h0.3l0,0l15.4,16.9c0.2,0.2,0.3,0.2,0.5,0.2h0.5c0.3,0,0.6-0.2,0.6-0.5V37.2
		c0-0.3-0.3-0.6-0.6-0.6h-3.4c-0.3,0-0.6,0.3-0.6,0.6v15.6h-0.3l0,0L29.3,36.5c-0.2-0.2-0.3-0.2-0.5-0.2h-0.6
		c-0.3,0-0.6,0.2-0.6,0.5V62c0,0.3,0.3,0.6,0.6,0.6h3.4c0.3,0,0.6-0.3,0.6-0.6V45.7z"/>
	<path class="st1" d="M77.4,63.2h-0.5c-0.3,0-0.5-0.1-0.7-0.3L61,46.2V62c0,0.5-0.4,0.9-0.9,0.9h-3.4c-0.5,0-0.9-0.4-0.9-0.9V36.8
		c0-0.4,0.4-0.8,0.9-0.8h0.6c0.3,0,0.5,0.1,0.7,0.3l15.1,16.1V37.2c0-0.5,0.4-0.9,0.9-0.9h3.4c0.5,0,0.9,0.4,0.9,0.9v25.2
		C78.3,62.8,77.9,63.2,77.4,63.2z M60.7,45.7H61l0,0l15.4,16.9c0.2,0.2,0.3,0.2,0.5,0.2h0.5c0.3,0,0.6-0.2,0.6-0.5V37.2
		c0-0.3-0.3-0.6-0.6-0.6H74c-0.3,0-0.6,0.3-0.6,0.6v15.6h-0.3l0,0L57.8,36.5c-0.2-0.2-0.3-0.2-0.5-0.2h-0.6c-0.3,0-0.6,0.2-0.6,0.5
		V62c0,0.3,0.3,0.6,0.6,0.6h3.4c0.3,0,0.6-0.3,0.6-0.6V45.7z"/>
	<path class="st1" d="M100.4,62.8H85.2c-0.5,0-0.9-0.4-0.9-0.9V37.2c0-0.5,0.4-0.9,0.9-0.9h15.2c0.5,0,0.9,0.4,0.9,0.9v3.1
		c0,0.5-0.4,0.9-0.9,0.9H89.5V47h9.1c0.5,0,0.9,0.4,0.9,0.9v3.1c0,0.5-0.4,0.9-0.9,0.9h-9.1V58h10.9c0.5,0,0.9,0.4,0.9,0.9V62
		C101.3,62.5,100.9,62.8,100.4,62.8z M85.2,36.6c-0.3,0-0.6,0.3-0.6,0.6V62c0,0.3,0.3,0.6,0.6,0.6h15.2c0.3,0,0.6-0.3,0.6-0.6v-3.1
		c0-0.3-0.3-0.6-0.6-0.6H89.2v-6.9h9.4c0.3,0,0.6-0.3,0.6-0.6v-3.1c0-0.3-0.3-0.6-0.6-0.6h-9.4v-6.4h11.2c0.3,0,0.6-0.3,0.6-0.6
		v-3.1c0-0.3-0.3-0.6-0.6-0.6H85.2z"/>
	<path class="st1" d="M120.5,62.8h-13.7c-0.5,0-0.9-0.4-0.9-0.9V37.2c0-0.5,0.4-0.9,0.9-0.9h3.4c0.5,0,0.9,0.4,0.9,0.9V58h9.4
		c0.5,0,0.9,0.4,0.9,0.9V62C121.4,62.5,121,62.8,120.5,62.8z M106.8,36.6c-0.3,0-0.6,0.3-0.6,0.6V62c0,0.3,0.3,0.6,0.6,0.6h13.7
		c0.3,0,0.6-0.3,0.6-0.6v-3.1c0-0.3-0.3-0.6-0.6-0.6h-9.7V37.2c0-0.3-0.3-0.6-0.6-0.6H106.8z"/>
	<path class="st1" d="M136.2,63.2c-7.6,0-13.6-6-13.6-13.6c0-7.5,6.1-13.7,13.6-13.7c7.5,0,13.6,6.1,13.6,13.7
		C149.9,57.2,143.9,63.2,136.2,63.2z M136.2,36.2c-7.3,0-13.3,6-13.3,13.4c0,7.5,5.8,13.3,13.3,13.3c7.5,0,13.3-5.8,13.3-13.3
		C149.6,42.2,143.6,36.2,136.2,36.2z M136.2,58.3c-4.8,0-8.7-3.9-8.7-8.7c0-4.9,3.9-8.8,8.7-8.8c4.8,0,8.8,4,8.8,8.8
		C145,54.4,141.1,58.3,136.2,58.3z M136.2,41.1c-4.6,0-8.4,3.8-8.4,8.5c0,4.6,3.8,8.4,8.4,8.4c4.7,0,8.5-3.8,8.5-8.4
		C144.7,45,140.8,41.1,136.2,41.1z"/>
	<path class="st1" d="M167.9,63.2h-0.7c-0.3,0-0.6-0.2-0.8-0.5l-6.5-14.5l-2.1,13.9c0,0.3-0.4,0.7-0.8,0.7h-3.4
		c-0.3,0-0.5-0.1-0.7-0.3c-0.2-0.2-0.2-0.5-0.2-0.8l4.5-25.2c0-0.3,0.3-0.7,0.8-0.7h0.6c0.3,0,0.6,0.2,0.8,0.5l8.2,17.5l8.2-17.5
		c0.2-0.3,0.4-0.5,0.8-0.5h0.6c0.4,0,0.8,0.3,0.8,0.7l4.4,25.2c0.1,0.3,0,0.6-0.1,0.7c-0.2,0.2-0.4,0.3-0.7,0.3h-3.4
		c-0.4,0-0.8-0.3-0.9-0.7l-2.2-13.9l-6.4,14.4C168.6,63,168.3,63.2,167.9,63.2z M159.7,47.8h0.3l0,0.1l6.6,14.7
		c0.1,0.2,0.3,0.3,0.5,0.3h0.7c0.3,0,0.4-0.2,0.5-0.3l6.6-14.8h0.3l0,0.1l2.2,14.2c0.1,0.2,0.3,0.4,0.6,0.4h3.4
		c0.2,0,0.4-0.1,0.4-0.2c0.1-0.1,0.1-0.3,0.1-0.5l-4.4-25.2c0-0.2-0.2-0.4-0.5-0.4h-0.6c-0.2,0-0.4,0.1-0.5,0.3l-8.3,17.8h-0.3
		l0-0.1l-8.2-17.7c-0.1-0.2-0.3-0.3-0.5-0.3H158c-0.3,0-0.5,0.2-0.5,0.4l0,0L153,61.9c0,0.2,0,0.4,0.1,0.5c0.1,0.1,0.3,0.2,0.4,0.2
		h3.4c0.3,0,0.5-0.2,0.5-0.4L159.7,47.8z"/>
	<path class="st1" d="M208.6,63.2H208c-0.3,0-0.5-0.1-0.7-0.3l-15.2-16.7V62c0,0.5-0.4,0.9-0.9,0.9h-3.4c-0.5,0-0.9-0.4-0.9-0.9
		V36.8c0-0.4,0.4-0.8,0.9-0.8h0.6c0.3,0,0.5,0.1,0.7,0.3l15.1,16.1V37.2c0-0.5,0.4-0.9,0.9-0.9h3.4c0.5,0,0.9,0.4,0.9,0.9v25.2
		C209.4,62.8,209,63.2,208.6,63.2z M191.8,45.7h0.3l0,0l15.4,16.9c0.2,0.2,0.3,0.2,0.5,0.2h0.5c0.3,0,0.6-0.2,0.6-0.5V37.2
		c0-0.3-0.3-0.6-0.6-0.6h-3.4c-0.3,0-0.6,0.3-0.6,0.6v15.6h-0.3l0,0l-15.3-16.3c-0.2-0.2-0.3-0.2-0.5-0.2h-0.6
		c-0.3,0-0.6,0.2-0.6,0.5V62c0,0.3,0.3,0.6,0.6,0.6h3.4c0.3,0,0.6-0.3,0.6-0.6V45.7z"/>
	<path class="st1" d="M219.8,62.8h-3.5c-0.5,0-0.9-0.4-0.9-0.9V37.2c0-0.5,0.4-0.9,0.9-0.9h3.5c0.5,0,0.9,0.4,0.9,0.9V62
		C220.7,62.4,220.3,62.8,219.8,62.8z M216.4,36.6c-0.3,0-0.6,0.3-0.6,0.6V62c0,0.3,0.3,0.6,0.6,0.6h3.5c0.3,0,0.6-0.3,0.6-0.6V37.2
		c0-0.3-0.3-0.6-0.6-0.6H216.4z"/>
	<path class="st1" d="M238.9,63.2c-7.5,0-13.7-6.1-13.7-13.6c0-7.5,6.1-13.7,13.7-13.7c3.6,0,6.4,1.1,9.2,3.5
		c0.2,0.2,0.3,0.4,0.3,0.6c0,0.2-0.1,0.5-0.3,0.6l-2.3,2.4c-0.1,0.2-0.3,0.3-0.5,0.3c-0.2,0-0.4-0.1-0.6-0.3
		c-1.6-1.4-3.6-2.2-5.7-2.2c-4.6,0-8.2,3.8-8.2,8.6c0,4.8,3.6,8.5,8.2,8.5c2,0,3.9-0.7,5.6-2.1c0.4-0.3,0.9-0.3,1.1,0l2.3,2.4
		c0.1,0.1,0.2,0.3,0.2,0.5c0,0.3-0.1,0.5-0.3,0.7C245.6,61.9,242.5,63.2,238.9,63.2z M238.9,36.2c-7.4,0-13.4,6-13.4,13.4
		c0,7.3,6,13.3,13.4,13.3c3.5,0,6.6-1.2,9-3.6c0.1-0.1,0.2-0.3,0.2-0.5c0-0.1,0-0.2-0.1-0.3l-2.3-2.4c-0.2-0.2-0.5-0.2-0.7,0
		c-1.8,1.4-3.7,2.2-5.8,2.2c-4.8,0-8.5-3.9-8.5-8.8c0-5,3.7-8.9,8.5-8.9c2.1,0,4.2,0.8,5.9,2.2c0.1,0.1,0.3,0.2,0.4,0.2c0,0,0,0,0,0
		c0.1,0,0.2-0.1,0.3-0.2l2.3-2.4c0.1-0.1,0.2-0.3,0.2-0.4c0-0.2-0.1-0.3-0.2-0.4C245.2,37.3,242.5,36.2,238.9,36.2z"/>
	<path class="st1" d="M274,62.8h-3.4c-0.5,0-0.9-0.4-0.9-0.9V51.8h-11.9V62c0,0.5-0.4,0.9-0.9,0.9h-3.5c-0.5,0-0.9-0.4-0.9-0.9V37.2
		c0-0.5,0.4-0.9,0.9-0.9h3.5c0.5,0,0.9,0.4,0.9,0.9V47h11.9v-9.8c0-0.5,0.4-0.9,0.9-0.9h3.4c0.5,0,0.9,0.4,0.9,0.9V62
		C274.8,62.4,274.4,62.8,274,62.8z M257.5,51.5H270V62c0,0.3,0.3,0.6,0.6,0.6h3.4c0.3,0,0.6-0.3,0.6-0.6V37.2c0-0.3-0.3-0.6-0.6-0.6
		h-3.4c-0.3,0-0.6,0.3-0.6,0.6v10.1h-12.5V37.2c0-0.3-0.3-0.6-0.6-0.6h-3.5c-0.3,0-0.6,0.3-0.6,0.6V62c0,0.3,0.3,0.6,0.6,0.6h3.5
		c0.3,0,0.6-0.3,0.6-0.6V51.5z"/>
	<path class="st1" d="M302.1,62.8h-3.3c-0.7,0-1-0.3-1.2-0.8l-1.8-4h-11l-1.8,4c-0.1,0.2-0.4,0.8-1.2,0.8h-3.3
		c-0.3,0-0.6-0.1-0.7-0.4c-0.2-0.2-0.2-0.5,0-0.8l11.6-25.2c0.2-0.3,0.4-0.5,0.8-0.5h0.4c0.5,0,0.6,0.3,0.8,0.5l11.5,25.2
		c0.1,0.3,0.1,0.6,0,0.8C302.7,62.7,302.5,62.8,302.1,62.8z M284.7,57.7h11.4l1.9,4.1c0.3,0.5,0.5,0.7,1,0.7h3.3
		c0.2,0,0.4-0.1,0.5-0.2c0.1-0.1,0.1-0.3,0-0.5l-11.5-25.2c-0.1-0.2-0.2-0.3-0.5-0.3h-0.4c-0.2,0-0.4,0.1-0.5,0.3l-11.6,25.2
		c-0.1,0.2-0.1,0.4,0,0.5c0.1,0.1,0.3,0.2,0.5,0.2h3.3c0.6,0,0.8-0.4,0.9-0.7L284.7,57.7z M294.4,53.9h-8l3.8-8.5h0.3L294.4,53.9z
		 M286.8,53.6h7.1l-3.6-7.8L286.8,53.6z"/>
	<path class="st1" d="M327.5,63.2H327c-0.3,0-0.5-0.1-0.7-0.3l-15.2-16.7V62c0,0.5-0.4,0.9-0.9,0.9h-3.4c-0.5,0-0.9-0.4-0.9-0.9
		V36.8c0-0.4,0.4-0.8,0.9-0.8h0.6c0.3,0,0.5,0.1,0.7,0.3l15.1,16.1V37.2c0-0.5,0.4-0.9,0.9-0.9h3.4c0.5,0,0.9,0.4,0.9,0.9v25.2
		C328.4,62.8,328,63.2,327.5,63.2z M310.8,45.7h0.3l0,0l15.4,16.9c0.2,0.2,0.3,0.2,0.5,0.2h0.5c0.3,0,0.6-0.2,0.6-0.5V37.2
		c0-0.3-0.3-0.6-0.6-0.6h-3.4c-0.3,0-0.6,0.3-0.6,0.6v15.6h-0.3l0,0l-15.3-16.3c-0.2-0.2-0.3-0.2-0.5-0.2h-0.6
		c-0.3,0-0.6,0.2-0.6,0.5V62c0,0.3,0.3,0.6,0.6,0.6h3.4c0.3,0,0.6-0.3,0.6-0.6V45.7z"/>
	<path class="st1" d="M356,63.2h-0.5c-0.3,0-0.5-0.1-0.7-0.3l-15.2-16.7V62c0,0.5-0.4,0.9-0.9,0.9h-3.4c-0.5,0-0.9-0.4-0.9-0.9V36.8
		c0-0.4,0.4-0.8,0.9-0.8h0.6c0.3,0,0.5,0.1,0.7,0.3l15.1,16.1V37.2c0-0.5,0.4-0.9,0.9-0.9h3.4c0.5,0,0.9,0.4,0.9,0.9v25.2
		C356.9,62.8,356.5,63.2,356,63.2z M339.3,45.7h0.3l0,0L355,62.7c0.2,0.2,0.3,0.2,0.5,0.2h0.5c0.3,0,0.6-0.2,0.6-0.5V37.2
		c0-0.3-0.3-0.6-0.6-0.6h-3.4c-0.3,0-0.6,0.3-0.6,0.6v15.6h-0.3l0,0l-15.3-16.3c-0.2-0.2-0.3-0.2-0.5-0.2h-0.6
		c-0.3,0-0.6,0.2-0.6,0.5V62c0,0.3,0.3,0.6,0.6,0.6h3.4c0.3,0,0.6-0.3,0.6-0.6V45.7z"/>
	<path class="st1" d="M379.1,62.8h-15.2c-0.5,0-0.9-0.4-0.9-0.9V37.2c0-0.5,0.4-0.9,0.9-0.9h15.2c0.5,0,0.9,0.4,0.9,0.9v3.1
		c0,0.5-0.4,0.9-0.9,0.9h-10.9V47h9.1c0.5,0,0.9,0.4,0.9,0.9v3.1c0,0.5-0.4,0.9-0.9,0.9h-9.1V58h10.9c0.5,0,0.9,0.4,0.9,0.9V62
		C379.9,62.5,379.5,62.8,379.1,62.8z M363.8,36.6c-0.3,0-0.6,0.3-0.6,0.6V62c0,0.3,0.3,0.6,0.6,0.6h15.2c0.3,0,0.6-0.3,0.6-0.6v-3.1
		c0-0.3-0.3-0.6-0.6-0.6h-11.2v-6.9h9.4c0.3,0,0.6-0.3,0.6-0.6v-3.1c0-0.3-0.3-0.6-0.6-0.6h-9.4v-6.4h11.2c0.3,0,0.6-0.3,0.6-0.6
		v-3.1c0-0.3-0.3-0.6-0.6-0.6H363.8z"/>
	<path class="st1" d="M399.1,62.8h-13.7c-0.5,0-0.9-0.4-0.9-0.9V37.2c0-0.5,0.4-0.9,0.9-0.9h3.4c0.5,0,0.9,0.4,0.9,0.9V58h9.4
		c0.5,0,0.9,0.4,0.9,0.9V62C400,62.5,399.6,62.8,399.1,62.8z M385.4,36.6c-0.3,0-0.6,0.3-0.6,0.6V62c0,0.3,0.3,0.6,0.6,0.6h13.7
		c0.3,0,0.6-0.3,0.6-0.6v-3.1c0-0.3-0.3-0.6-0.6-0.6h-9.7V37.2c0-0.3-0.3-0.6-0.6-0.6H385.4z"/>
	<path class="st1" d="M414.8,63.2c-7.6,0-13.6-6-13.6-13.6c0-7.5,6.1-13.7,13.6-13.7c7.5,0,13.6,6.1,13.6,13.7
		C428.5,57.2,422.5,63.2,414.8,63.2z M414.8,36.2c-7.3,0-13.3,6-13.3,13.4c0,7.5,5.8,13.3,13.3,13.3c7.5,0,13.3-5.8,13.3-13.3
		C428.2,42.2,422.2,36.2,414.8,36.2z M414.8,58.3c-4.8,0-8.7-3.9-8.7-8.7c0-4.9,3.9-8.8,8.7-8.8c4.8,0,8.8,4,8.8,8.8
		C423.6,54.4,419.7,58.3,414.8,58.3z M414.8,41.1c-4.6,0-8.4,3.8-8.4,8.5c0,4.6,3.8,8.4,8.4,8.4c4.7,0,8.5-3.8,8.5-8.4
		C423.3,45,419.4,41.1,414.8,41.1z"/>
	<path class="st1" d="M446.5,63.2h-0.7c-0.3,0-0.6-0.2-0.8-0.5l-6.5-14.5l-2.1,13.9c0,0.3-0.4,0.7-0.8,0.7h-3.4
		c-0.3,0-0.5-0.1-0.7-0.3c-0.2-0.2-0.2-0.5-0.2-0.8l4.5-25.2c0-0.3,0.3-0.7,0.8-0.7h0.6c0.3,0,0.6,0.2,0.8,0.5l8.2,17.5l8.2-17.5
		c0.2-0.3,0.4-0.5,0.8-0.5h0.6c0.4,0,0.8,0.3,0.8,0.7l4.4,25.2c0.1,0.3,0,0.6-0.1,0.7c-0.2,0.2-0.4,0.3-0.7,0.3h-3.4
		c-0.4,0-0.8-0.3-0.9-0.7l-2.2-13.9l-6.4,14.4C447.2,63,446.9,63.2,446.5,63.2z M438.3,47.8h0.3l6.7,14.8c0.1,0.2,0.3,0.3,0.5,0.3
		h0.7c0.3,0,0.4-0.2,0.5-0.3l6.6-14.8h0.3l0,0.1l2.2,14.2c0.1,0.2,0.3,0.4,0.6,0.4h3.4c0.2,0,0.4-0.1,0.4-0.2
		c0.1-0.1,0.1-0.3,0.1-0.5l-4.4-25.2c0-0.2-0.2-0.4-0.5-0.4h-0.6c-0.2,0-0.4,0.1-0.5,0.3l-8.3,17.8H446l0-0.1l-8.2-17.7
		c-0.1-0.2-0.3-0.3-0.5-0.3h-0.6c-0.3,0-0.5,0.2-0.5,0.4l0,0l-4.5,25.2c0,0.2,0,0.4,0.1,0.5c0.1,0.1,0.3,0.2,0.4,0.2h3.4
		c0.3,0,0.5-0.2,0.5-0.4L438.3,47.8z"/>
	<path class="st1" d="M487.2,63.2h-0.5c-0.3,0-0.5-0.1-0.7-0.3l-15.2-16.7V62c0,0.5-0.4,0.9-0.9,0.9h-3.4c-0.5,0-0.9-0.4-0.9-0.9
		V36.8c0-0.4,0.4-0.8,0.9-0.8h0.6c0.3,0,0.5,0.1,0.7,0.3l15.1,16.1V37.2c0-0.5,0.4-0.9,0.9-0.9h3.4c0.5,0,0.9,0.4,0.9,0.9v25.2
		C488,62.8,487.6,63.2,487.2,63.2z M470.4,45.7h0.3l0,0l15.4,16.9c0.2,0.2,0.3,0.2,0.5,0.2h0.5c0.3,0,0.6-0.2,0.6-0.5V37.2
		c0-0.3-0.3-0.6-0.6-0.6h-3.4c-0.3,0-0.6,0.3-0.6,0.6v15.6h-0.3l0,0l-15.3-16.3c-0.2-0.2-0.3-0.2-0.5-0.2h-0.6
		c-0.3,0-0.6,0.2-0.6,0.5V62c0,0.3,0.3,0.6,0.6,0.6h3.4c0.3,0,0.6-0.3,0.6-0.6V45.7z"/>
	<path class="st1" d="M498.5,62.8H495c-0.5,0-0.9-0.4-0.9-0.9V37.2c0-0.5,0.4-0.9,0.9-0.9h3.5c0.5,0,0.9,0.4,0.9,0.9V62
		C499.3,62.4,498.9,62.8,498.5,62.8z M495,36.6c-0.3,0-0.6,0.3-0.6,0.6V62c0,0.3,0.3,0.6,0.6,0.6h3.5c0.3,0,0.6-0.3,0.6-0.6V37.2
		c0-0.3-0.3-0.6-0.6-0.6H495z"/>
	<path class="st1" d="M517.5,63.2c-7.5,0-13.7-6.1-13.7-13.6c0-7.5,6.1-13.7,13.7-13.7c3.6,0,6.4,1.1,9.2,3.5
		c0.2,0.2,0.3,0.4,0.3,0.6c0,0.2-0.1,0.5-0.3,0.6l-2.3,2.4c-0.1,0.2-0.3,0.3-0.5,0.3c-0.2,0-0.4-0.1-0.6-0.3
		c-1.6-1.4-3.6-2.2-5.7-2.2c-4.6,0-8.2,3.8-8.2,8.6c0,4.8,3.6,8.5,8.2,8.5c2,0,3.9-0.7,5.6-2.1c0.4-0.3,0.9-0.3,1.1,0l2.3,2.4
		c0.1,0.1,0.2,0.3,0.2,0.5c0,0.3-0.1,0.5-0.3,0.7C524.3,61.9,521.1,63.2,517.5,63.2z M517.5,36.2c-7.4,0-13.4,6-13.4,13.4
		c0,7.3,6,13.3,13.4,13.3c3.5,0,6.6-1.2,9-3.6c0.1-0.1,0.2-0.3,0.2-0.5c0-0.1,0-0.2-0.1-0.3l-2.3-2.4c-0.2-0.2-0.5-0.2-0.7,0
		c-1.8,1.4-3.7,2.2-5.8,2.2c-4.8,0-8.5-3.9-8.5-8.8c0-5,3.7-8.9,8.5-8.9c2.1,0,4.2,0.8,5.9,2.2c0.1,0.1,0.3,0.2,0.4,0.2c0,0,0,0,0,0
		c0.1,0,0.2-0.1,0.3-0.2l2.3-2.4c0.1-0.1,0.2-0.3,0.2-0.4c0-0.2-0.1-0.3-0.2-0.4C523.8,37.3,521.1,36.2,517.5,36.2z"/>
</g>
</svg>
