<svg id="Capa_1" data-name="Capa 1" xmlns="http://www.w3.org/2000/svg" viewBox="0 0 24.98 27.76"><defs><style>.cls-1{fill:#fff;}</style></defs><path class="cls-1" d="M5.08,21.59ZM5,21.46a2.06,2.06,0,0,1-2.81-.77A2.06,2.06,0,0,1,3,17.88a2,2,0,0,1,1-.28,2.1,2.1,0,0,1,1.79,1A2.14,2.14,0,0,1,5,21.46M4,6.63a2,2,0,0,1,1,.28,2.06,2.06,0,0,1,.77,2.81,2.12,2.12,0,0,1-1.25,1,2.06,2.06,0,0,1-1.56-.2A2,2,0,0,1,2,9.24a2,2,0,0,1,.2-1.56,2,2,0,0,1,1.26-1A1.84,1.84,0,0,1,4,6.63m18,.28h0a2,2,0,0,1,1-.28,2,2,0,0,1,2,2.57,2.05,2.05,0,0,1-3.76.52,2.12,2.12,0,0,1,.77-2.81M15.54,25.16a2.07,2.07,0,0,1-3.49,1.41,1.88,1.88,0,0,1-.6-1.38,2,2,0,0,1,2.05-2,2,2,0,0,1,2,2M12,4.63a2,2,0,0,1-.6-1.42A1.91,1.91,0,0,1,12,1.8a2,2,0,0,1,1.44-.57,2,2,0,0,1,2.05,2,1.84,1.84,0,0,1-.6,1.38,2.12,2.12,0,0,1-2.89,0M14.8,19.1a5.11,5.11,0,0,1-6.23-3.59,5.1,5.1,0,0,1,3.59-6.24,5,5,0,0,1,1.3-.14h0A5,5,0,0,1,16,9.81a5.06,5.06,0,0,1,1.87,6.92A5.18,5.18,0,0,1,14.8,19.1M23,17.6a2,2,0,0,1,1,.28,2,2,0,0,1,1,1.24,2.26,2.26,0,0,1-.23,1.54,2,2,0,1,1-3.55-2,2,2,0,0,1,1.26-1A1.84,1.84,0,0,1,23,17.6m2.83,1.27a2.89,2.89,0,0,0-1.38-1.8,2.93,2.93,0,0,0-3.78.73l-1.8-1a5.85,5.85,0,0,0,.37-4.16,5.33,5.33,0,0,0-.39-1l1.77-1.05a2.94,2.94,0,0,0,3.77.73,2.95,2.95,0,0,0,1.06-4,3,3,0,0,0-4.05-1.06A3,3,0,0,0,20,8a3,3,0,0,0,.1,1.84l-1.77,1A6.09,6.09,0,0,0,16.41,9a6,6,0,0,0-2.55-.77V6.18a2.7,2.7,0,0,0,1.63-.85,2.9,2.9,0,0,0,.87-2.05,2.83,2.83,0,0,0-.82-2.09,2.94,2.94,0,1,0-2.56,5V8.23a7.8,7.8,0,0,0-1.11.17,5.94,5.94,0,0,0-3.39,2.41l-1.81-1A3.08,3.08,0,0,0,6.78,8,2.93,2.93,0,0,0,5.4,6.16a3.07,3.07,0,0,0-2.25-.29,2.9,2.9,0,0,0-1.8,1.38A3,3,0,0,0,1.06,9.5a2.87,2.87,0,0,0,1.38,1.8,3,3,0,0,0,2.25.29,3,3,0,0,0,1.53-1l1.8,1a6,6,0,0,0,0,5.19l-1.77,1a3,3,0,0,0-3.78-.7,2.95,2.95,0,0,0-1.06,4.05,3,3,0,0,0,1.8,1.38,3.06,3.06,0,0,0,2.25-.29,2.94,2.94,0,0,0,1.27-3.63l1.78-1.05a6.09,6.09,0,0,0,2,1.82,6,6,0,0,0,2.55.77v2.07a3,3,0,0,0-2.5,2.94,2.84,2.84,0,0,0,.87,2,2.95,2.95,0,1,0,2.54-5v-2A9.52,9.52,0,0,0,15,20a6,6,0,0,0,3.39-2.41l1.81,1a3,3,0,0,0,1.27,3.63,3,3,0,0,0,4.06-1.1,3.18,3.18,0,0,0,.28-2.3" transform="translate(-0.96 -0.32)"/><path class="cls-1" d="M12.37,16.42a.19.19,0,0,1-.2.21.19.19,0,0,1-.21-.21.19.19,0,0,1,.21-.2.18.18,0,0,1,.2.2m-.2-.7a.71.71,0,1,0,.7.7.7.7,0,0,0-.7-.7" transform="translate(-0.96 -0.32)"/><path class="cls-1" d="M15.11,16.42a.19.19,0,0,1-.21.21.19.19,0,0,1-.2-.21.18.18,0,0,1,.2-.2.19.19,0,0,1,.21.2m-.21-.7a.71.71,0,0,0,0,1.41.71.71,0,1,0,0-1.41" transform="translate(-0.96 -0.32)"/><path class="cls-1" d="M15.93,12.58l-.46,1.62h-3.7l-.27-1.62Zm0,1.93.6-2.13v-.05a.24.24,0,0,0-.25-.25H11.42a.87.87,0,0,0-.83-.61H10.5a.24.24,0,0,0-.25.25.24.24,0,0,0,.25.25h.09a.37.37,0,0,1,.36.31l.36,2.22.06.39a.88.88,0,0,0,.86.72h3.43a.24.24,0,0,0,.25-.25.24.24,0,0,0-.25-.25H12.23a.36.36,0,0,1-.36-.31v-.1h3.8a.31.31,0,0,0,.25-.19" transform="translate(-0.96 -0.32)"/></svg>