<?xml version="1.0" encoding="utf-8"?>
<!-- Generator: Adobe Illustrator 26.0.3, SVG Export Plug-In . SVG Version: 6.00 Build 0)  -->
<svg version="1.1" id="Capa_1" xmlns="http://www.w3.org/2000/svg" xmlns:xlink="http://www.w3.org/1999/xlink" x="0px" y="0px"
	 viewBox="0 0 25 27.6" style="enable-background:new 0 0 25 27.6;" xml:space="preserve">
<style type="text/css">
	.st0{fill:#FDB71A;}
</style>
<path class="st0" d="M11.4,16.1c0,0.1-0.1,0.2-0.2,0.2c0,0,0,0,0,0c-0.1,0-0.2-0.1-0.2-0.2c0,0,0,0,0,0c0-0.1,0.1-0.2,0.2-0.2
	c0,0,0,0,0,0C11.3,15.9,11.4,15.9,11.4,16.1C11.4,16,11.4,16,11.4,16.1 M11.2,15.4c-0.4,0-0.7,0.3-0.7,0.7c0,0.4,0.3,0.7,0.7,0.7
	c0.4,0,0.7-0.3,0.7-0.7c0,0,0,0,0,0C11.9,15.7,11.6,15.4,11.2,15.4"/>
<path class="st0" d="M14.1,16.1c0,0.1-0.1,0.2-0.2,0.2c0,0,0,0,0,0c-0.1,0-0.2-0.1-0.2-0.2c0,0,0,0,0,0c0-0.1,0.1-0.2,0.2-0.2
	c0,0,0,0,0,0C14,15.9,14.1,15.9,14.1,16.1C14.1,16,14.1,16.1,14.1,16.1 M13.9,15.4c-0.4,0-0.7,0.4-0.6,0.8c0,0.3,0.3,0.6,0.6,0.6
	c0.4,0,0.7-0.2,0.8-0.6c0-0.4-0.2-0.7-0.6-0.8C14,15.4,13.9,15.4,13.9,15.4"/>
<path class="st0" d="M14.9,12.3l-0.5,1.6h-3.7l-0.3-1.6H14.9z M14.9,14.2l0.6-2.1v0c0-0.1-0.1-0.2-0.2-0.2c0,0,0,0,0,0h-4.8
	c-0.1-0.4-0.4-0.6-0.8-0.6H9.5c-0.1,0-0.2,0.1-0.2,0.2c0,0,0,0,0,0c0,0.1,0.1,0.2,0.2,0.2c0,0,0,0,0,0h0.1c0.2,0,0.3,0.1,0.4,0.3
	l0.4,2.2l0.1,0.4c0.1,0.4,0.4,0.7,0.9,0.7h3.4c0.1,0,0.2-0.1,0.2-0.2c0,0,0,0,0,0c0-0.1-0.1-0.2-0.2-0.2c0,0,0,0,0,0h-3.4
	c-0.2,0-0.3-0.1-0.4-0.3v-0.1h3.8C14.8,14.3,14.9,14.3,14.9,14.2"/>
<path class="st0" d="M23.4,16.7c-1.1-0.6-2.7-0.4-3.8,0.7l-1.8-1c0.6-1.3,0.8-2.8,0.4-4.1c-0.1-0.3-0.2-0.7-0.4-1l1.8-1
	c0.9,1.1,2.5,1.4,3.7,0.7c1.4-0.8,1.8-2.6,1.1-4c-0.8-1.4-2.6-1.8-4-1.1c-0.7,0.4-1.2,1-1.4,1.7c-0.2,0.6-0.1,1.2,0.1,1.8l-1.8,1
	c-0.5-0.7-1.1-1.4-1.9-1.8c-0.8-0.4-1.6-0.7-2.5-0.8v-2c0.6-0.1,1.2-0.4,1.6-0.8c0.5-0.5,0.9-1.3,0.9-2c0-0.8-0.3-1.5-0.8-2.1
	c-1.2-1.1-3-1.1-4.1,0.1s-1.1,3,0.1,4.1c0.4,0.4,1,0.7,1.5,0.8v2c-0.4,0-0.7,0.1-1.1,0.2c-1.4,0.4-2.6,1.2-3.4,2.4l-1.8-1
	C6,8.9,6,8.3,5.9,7.7C5.7,6.9,5.2,6.3,4.5,5.9C3.8,5.5,3,5.4,2.3,5.6C1.5,5.8,0.9,6.3,0.5,7C0.1,7.6,0,8.4,0.2,9.2
	C0.4,10,0.9,10.6,1.6,11c0.7,0.4,1.5,0.5,2.2,0.3c0.6-0.2,1.1-0.5,1.5-1l1.8,1c-0.8,1.6-0.8,3.5,0,5.2l-1.8,1
	c-0.9-1.1-2.5-1.4-3.8-0.7c-1.4,0.8-1.9,2.6-1.1,4c0,0,0,0,0,0c0.4,0.7,1,1.2,1.8,1.4c0.8,0.2,1.6,0.1,2.2-0.3
	c1.3-0.7,1.8-2.3,1.3-3.6l1.8-1c0.5,0.7,1.2,1.4,2,1.8c0.8,0.4,1.6,0.7,2.5,0.8v2.1c-1.4,0.2-2.5,1.5-2.5,2.9c0,0.8,0.3,1.5,0.9,2
	c1.1,1.1,3,1.1,4.1,0c1.1-1.1,1.1-3,0-4.1c-0.4-0.4-1-0.7-1.6-0.8v-2c0.3,0,0.7-0.1,1-0.1c1.4-0.4,2.6-1.2,3.4-2.4l1.8,1
	c-0.5,1.4,0.1,2.9,1.3,3.6c1.1,0.7,2.6,0.5,3.4-0.3C25.3,20.3,25,17.6,23.4,16.7z M21.9,6.2c1.2,0,2.3,1,2.3,2.3s-1,2.3-2.3,2.3
	s-2.3-1-2.3-2.3S20.6,6.2,21.9,6.2z M3,10.7c-1.2,0-2.3-1-2.3-2.3s1-2.3,2.3-2.3s2.3,1,2.3,2.3S4.2,10.7,3,10.7z M3,21.5
	c-1.2,0-2.3-1-2.3-2.3S1.7,17,3,17s2.3,1,2.3,2.3S4.2,21.5,3,21.5z M10.2,3c0-1.2,1-2.3,2.3-2.3c1.2,0,2.3,1,2.3,2.3s-1,2.3-2.3,2.3
	C11.2,5.3,10.2,4.2,10.2,3z M14.8,24.7c0,1.2-1,2.3-2.3,2.3c-1.2,0-2.3-1-2.3-2.3s1-2.3,2.3-2.3C13.7,22.4,14.8,23.4,14.8,24.7z
	 M12.5,19c-2.8,0-5.1-2.3-5.1-5.1s2.3-5.1,5.1-5.1c2.8,0,5.1,2.3,5.1,5.1S15.3,19,12.5,19z M21.9,21.6c-1.3,0-2.3-1-2.3-2.3
	c0-1.3,1-2.3,2.3-2.3c1.3,0,2.3,1,2.3,2.3C24.2,20.6,23.2,21.6,21.9,21.6z"/>
</svg>
