<svg id="Capa_1" data-name="Capa 1" xmlns="http://www.w3.org/2000/svg" viewBox="0 0 23.88 27.71"><defs><style>.cls-1{fill:#fdb71a;}</style></defs><path class="cls-1" d="M20.2,6.9c-.16-.27-.44-.41-.63-.3L17.76,7.87a.37.37,0,0,0,0,.45.33.33,0,0,0,.39.21l2-.93c.19-.11.21-.42.05-.7" transform="translate(0)"/><path class="cls-1" d="M20.15,10.42l-2-.93a.33.33,0,0,0-.39.21.38.38,0,0,0,0,.45l1.81,1.27c.19.11.47,0,.63-.3a.51.51,0,0,0-.05-.7" transform="translate(0)"/><path class="cls-1" d="M16.55,4.8c-.32,0-.57.18-.57.39l.19,2.21c0,.13.19.23.38.23a.38.38,0,0,0,.39-.23l.19-2.21c0-.21-.25-.39-.58-.39" transform="translate(0)"/><path class="cls-1" d="M4.49,19.31A.51.51,0,0,1,4,18.8H4a.51.51,0,1,1,1-.2.67.67,0,0,1,0,.2.51.51,0,0,1-.51.51h0m7.46-1a.51.51,0,0,1,.51.51h0a.52.52,0,0,1-1,0,.51.51,0,0,1,.51-.51h0M10.89,18a1.35,1.35,0,1,0,1.48-.46.41.41,0,0,0-.41-.38H4.1l.84-1h7.6a.41.41,0,0,0,.38-.25L15.41,10a.39.39,0,0,0,0-.39.42.42,0,0,0-.35-.19H4.77a.42.42,0,0,0,0,.84h9.62l-2.13,5.07H3.64V8.55a.42.42,0,0,0-.42-.42H.42A.42.42,0,0,0,.42,9H2.8V15.7a.41.41,0,0,0,.41.41h.65l-1,1.18a.43.43,0,0,0,0,.45.42.42,0,0,0,.38.24h.2a1.35,1.35,0,1,0,2.42.82A1.31,1.31,0,0,0,5.49,18Z" transform="translate(0)"/><path class="cls-1" d="M12.12,25a.42.42,0,0,0,.42.42h5.95a.41.41,0,0,0,.29-.52.42.42,0,0,0-.29-.29h-5.9a.42.42,0,0,0-.42.42h0" transform="translate(0)"/><path class="cls-1" d="M16.58,1.91H14.09a.42.42,0,1,0,0,.84h2.49a.42.42,0,1,0,0-.84h0" transform="translate(0)"/><path class="cls-1" d="M18.49,1.91h-.62a.42.42,0,0,0,0,.84h.62a.42.42,0,1,0,0-.84h0" transform="translate(0)"/><path class="cls-1" d="M20.93,0H9.74A3,3,0,0,0,6.79,3V6.5a.46.46,0,0,0,.4.53.47.47,0,0,0,.53-.39.33.33,0,0,0,0-.14V3a2,2,0,0,1,2-2H20.93a2,2,0,0,1,2,2V24.71a2,2,0,0,1-2,2H9.74a2,2,0,0,1-2-2V20a.48.48,0,0,0-.53-.4.47.47,0,0,0-.4.4v4.71a3,3,0,0,0,3,3H20.93a3,3,0,0,0,2.95-3V3A3,3,0,0,0,20.93,0" transform="translate(0)"/></svg>