<svg id="Capa_1" data-name="Capa 1" xmlns="http://www.w3.org/2000/svg" viewBox="0 0 24.39 27.65"><defs><style>.cls-1{fill:#fff;}</style></defs><path class="cls-1" d="M12.17,5.73a.41.41,0,0,0,.32-.23L13.7,3.06,14.9,5.5a.41.41,0,0,0,.32.23l2.7.39L16,8a.45.45,0,0,0-.13.38l.46,2.68L13.89,9.82a.34.34,0,0,0-.19-.05.35.35,0,0,0-.2.05l-2.41,1.26.46-2.68A.44.44,0,0,0,11.43,8L9.48,6.12Zm-4,0a.41.41,0,0,0,.11.43l2.4,2.35-.57,3.31a.45.45,0,0,0,.17.42.49.49,0,0,0,.25.08.46.46,0,0,0,.2,0l3-1.57,3,1.57a.43.43,0,0,0,.62-.45l-.57-3.31,2.41-2.35a.42.42,0,0,0,.1-.43.41.41,0,0,0-.34-.29l-3.32-.49-1.49-3a.42.42,0,0,0-.38-.24.43.43,0,0,0-.39.24l-1.48,3L8.5,5.41a.41.41,0,0,0-.34.29" transform="translate(-1.26 -0.38)"/><path class="cls-1" d="M9.89,3.8a.44.44,0,0,0,.6,0,.42.42,0,0,0,0-.6L7.94.64a.43.43,0,0,0-.6,0,.42.42,0,0,0,0,.6Z" transform="translate(-1.26 -0.38)"/><path class="cls-1" d="M16.43,3.64a.39.39,0,0,0,.3-.13L19.14,1.1a.43.43,0,0,0,0-.6.43.43,0,0,0-.6,0L16.13,2.91a.42.42,0,0,0,0,.6.39.39,0,0,0,.3.13" transform="translate(-1.26 -0.38)"/><path class="cls-1" d="M18.68,9.15a.42.42,0,0,0,0,.6l2.13,2.13a.42.42,0,0,0,.3.12.46.46,0,0,0,.3-.12.43.43,0,0,0,0-.6L19.28,9.15a.42.42,0,0,0-.6,0" transform="translate(-1.26 -0.38)"/><path class="cls-1" d="M6.93,12.29a.43.43,0,0,0,.3-.13L9.36,10a.43.43,0,0,0-.61-.61L6.63,11.56a.42.42,0,0,0,0,.6.43.43,0,0,0,.3.13" transform="translate(-1.26 -0.38)"/><path class="cls-1" d="M9.08,14.84H17.7V26.89H9.08ZM25.22,18.1H18.55V14.84h1.71a.43.43,0,0,0,0-.85H6.65a.43.43,0,1,0,0,.85H8.23v3H1.68a.42.42,0,0,0-.42.42V27a.42.42,0,0,0,.42.43H6.5a.43.43,0,1,0,0-.85H2.11V18.67H8.23v8.65a.42.42,0,0,0,.42.43h9.48a.42.42,0,0,0,.42-.43V19h6.24v8.22H20.68a.43.43,0,0,0,0,.85h4.54a.42.42,0,0,0,.42-.42V18.52a.42.42,0,0,0-.42-.42" transform="translate(-1.26 -0.38)"/><path class="cls-1" d="M13.73,18H12a.43.43,0,0,0,0,.85h1.28v5.53a.43.43,0,0,0,.85,0v-6a.42.42,0,0,0-.43-.42" transform="translate(-1.26 -0.38)"/></svg>