<svg xmlns="http://www.w3.org/2000/svg" viewBox="0 0 89.22 99.15"><defs><style>.cls-1{fill:#fdb71a;}</style></defs><g id="Layer_2" data-name="Layer 2"><g id="Layer_1-2" data-name="Layer 1"><path class="cls-1" d="M88.87,66.26a10.33,10.33,0,0,0-4.94-6.43,10.81,10.81,0,0,0-8.05-1,10.94,10.94,0,0,0-5.44,3.62L64,58.78a20.92,20.92,0,0,0,1.33-14.86,19.87,19.87,0,0,0-1.41-3.67l6.31-3.73a10.56,10.56,0,0,0,13.47,2.59,10.33,10.33,0,0,0,4.91-6.38A10.6,10.6,0,0,0,73.05,20.86a10.8,10.8,0,0,0-5,6.44,10.5,10.5,0,0,0,.39,6.55l-6.33,3.73a21.69,21.69,0,0,0-7-6.49,21.25,21.25,0,0,0-9.09-2.76V20.94a9.8,9.8,0,0,0,5.83-3A10.49,10.49,0,0,0,55,10.57a10.26,10.26,0,0,0-2.92-7.46,10.53,10.53,0,1,0-9.17,17.72v7.4a30.44,30.44,0,0,0-4,.63,21.21,21.21,0,0,0-12.13,8.62l-6.45-3.65a11.22,11.22,0,0,0,.4-6.54,10.4,10.4,0,0,0-4.94-6.43,10.82,10.82,0,0,0-8-1,10.41,10.41,0,0,0-6.44,4.93,10.8,10.8,0,0,0-1,8,10.39,10.39,0,0,0,4.94,6.44,10.87,10.87,0,0,0,8,1,10.41,10.41,0,0,0,5.45-3.63l6.43,3.65a21.31,21.31,0,0,0,0,18.51l-6.34,3.74A10.62,10.62,0,0,0,5.4,60,10.35,10.35,0,0,0,.49,66.42,10.48,10.48,0,0,0,1.6,74.5,10.76,10.76,0,0,0,8,79.44a11,11,0,0,0,8-1,10.54,10.54,0,0,0,4.55-13L27,61.68A21.18,21.18,0,0,0,43,70.94v7.39A10.56,10.56,0,0,0,34.1,88.81a10.18,10.18,0,0,0,3.1,7.35,10.54,10.54,0,1,0,9.1-17.84V71a30.6,30.6,0,0,0,4-.63,21.57,21.57,0,0,0,12.12-8.62l6.43,3.65a10.54,10.54,0,0,0,4.56,13,10.68,10.68,0,0,0,14.48-3.92A11.47,11.47,0,0,0,88.87,66.26ZM78.76,61.71a6.86,6.86,0,0,1,3.65,1,7.22,7.22,0,0,1,3.45,4.44A8,8,0,0,1,85,72.66a7.28,7.28,0,0,1-12.67-7.19A7.3,7.3,0,0,1,76.86,62,6.25,6.25,0,0,1,78.76,61.71ZM49.42,67.07A18.16,18.16,0,0,1,40,32a17.71,17.71,0,0,1,4.65-.53h.11A18.16,18.16,0,0,1,62.22,44.88a17.87,17.87,0,0,1-1.79,13.73A18.4,18.4,0,0,1,49.42,67.07Zm-10-51.67a7,7,0,0,1-2.13-5.06,6.94,6.94,0,0,1,2.13-5.06,7.39,7.39,0,0,1,12.47,5.17,6.61,6.61,0,0,1-2.12,5,7.64,7.64,0,0,1-10.35,0ZM52.07,88.71A7.4,7.4,0,0,1,39.6,93.77a6.75,6.75,0,0,1-2.13-5,7.3,7.3,0,0,1,14.6-.11ZM74.9,23.54h0a6.82,6.82,0,0,1,3.63-1,7.35,7.35,0,0,1,3.65,13.68,7.44,7.44,0,0,1-10-2.62A7.55,7.55,0,0,1,74.9,23.54Zm-64.23-1a6.81,6.81,0,0,1,3.65,1A7.26,7.26,0,0,1,17.77,28a7.12,7.12,0,0,1-.7,5.57A7.51,7.51,0,0,1,12.6,37,7.17,7.17,0,0,1,7,36.32a7.28,7.28,0,0,1-3.46-4.46,7.12,7.12,0,0,1,.71-5.57,7.25,7.25,0,0,1,4.5-3.46A6.23,6.23,0,0,1,10.67,22.53Zm3.76,53a7.15,7.15,0,0,1-5.58.71,7.27,7.27,0,0,1-4.46-3.45,7.13,7.13,0,0,1-.71-5.57,7.25,7.25,0,0,1,3.47-4.47,6.83,6.83,0,0,1,3.63-1,7.48,7.48,0,0,1,6.39,3.63A7.6,7.6,0,0,1,14.43,75.5Zm.27.47Z"/><path class="cls-1" d="M40,55a2.52,2.52,0,1,0,2.52,2.52A2.51,2.51,0,0,0,40,55Zm.74,2.52a.68.68,0,0,1-.74.74.68.68,0,0,1-.73-.74.67.67,0,0,1,.73-.73A.68.68,0,0,1,40.77,57.52Z"/><path class="cls-1" d="M49.79,55a2.52,2.52,0,1,0,2.52,2.52A2.52,2.52,0,0,0,49.79,55Zm.74,2.52a.68.68,0,0,1-.74.74.68.68,0,0,1-.73-.74.67.67,0,0,1,.73-.73A.68.68,0,0,1,50.53,57.52Z"/><path class="cls-1" d="M53.39,50.68l2.16-7.59,0-.21a.86.86,0,0,0-.89-.89H37.37a3.11,3.11,0,0,0-3-2.17h-.32a.9.9,0,0,0,0,1.79h.32a1.29,1.29,0,0,1,1.29,1.11L37,50.64l.21,1.41a3.13,3.13,0,0,0,3.06,2.57H52.51a.9.9,0,0,0,0-1.79H40.25A1.28,1.28,0,0,1,39,51.73l0-.36H52.51A1.08,1.08,0,0,0,53.39,50.68Zm.06-6.91-1.64,5.81H38.6l-1-5.81Z"/></g></g></svg>