<svg id="Capa_1" data-name="Capa 1" xmlns="http://www.w3.org/2000/svg" viewBox="0 0 67.71 79.67"><defs><style>.cls-1{fill:#fdb71a;}</style></defs><path class="cls-1" d="M43.85,9.47l3.88-6c.33-.62-.13-1.51-1-2s-1.91-.36-2.23.26L41.69,8.32a1.15,1.15,0,0,0,.73,1.24A1.16,1.16,0,0,0,43.85,9.47Z" transform="translate(-7.15 -1.17)"/><path class="cls-1" d="M45.57,14.51l7.11.37c.7,0,1.24-.87,1.21-1.9s-.64-1.83-1.35-1.8l-7.06.88a1.16,1.16,0,0,0-.71,1.25A1.17,1.17,0,0,0,45.57,14.51Z" transform="translate(-7.15 -1.17)"/><path class="cls-1" d="M33.14,2c-.87.55-1.26,1.48-.89,2.07l4.3,5.68a1.17,1.17,0,0,0,1.44,0,1.16,1.16,0,0,0,.64-1.29L35.39,2.08A1.67,1.67,0,0,0,33.14,2Z" transform="translate(-7.15 -1.17)"/><path class="cls-1" d="M35.11,52.44a1.35,1.35,0,0,0,1.33,1.35h11a1.34,1.34,0,0,0,1.35-1.33v-11a1.34,1.34,0,0,0-1.35-1.35h-11a1.35,1.35,0,0,0-1.35,1.35h0Zm2.7-9.65h8.3v8.3h-8.3Z" transform="translate(-7.15 -1.17)"/><path class="cls-1" d="M69,36.09a5.85,5.85,0,0,0-5.69,4.5H55.84V33.44a1.34,1.34,0,0,0-1.35-1.35h-5v-7.3H63.92a5.85,5.85,0,1,0-.75-2.85v.15h-15a1.36,1.36,0,0,0-1.35,1.35v8.65H36.9V23.72a5.82,5.82,0,1,0-2.7-.23v8.6H29.55a1.35,1.35,0,0,0-1.35,1.35h0v2.65H16.4V23.63a5.84,5.84,0,1,0-2.7,0V37.44A1.35,1.35,0,0,0,15,38.79H28.14v8.49a1.23,1.23,0,0,0-.65-.19H18.77a5.83,5.83,0,1,0-.23,2.7h9a1.45,1.45,0,0,0,.65-.19V60.44a1.35,1.35,0,0,0,1.33,1.35h5.25v7.3h-16a5.83,5.83,0,1,0-.23,2.7H36a1.34,1.34,0,0,0,1.35-1.33V61.79h9.34V69.1a5.87,5.87,0,1,0,2.7.55V61.79h5a1.34,1.34,0,0,0,1.35-1.33V57.79h6.3v9A5.85,5.85,0,1,0,64.93,66h-.15v-9.6a1.34,1.34,0,0,0-1.35-1.35H55.78V43.29h7.46a5.85,5.85,0,1,0,5.69-7.2Zm0-17.3a3.15,3.15,0,1,1-3.15,3.15h0A3.15,3.15,0,0,1,69,18.79Zm-36.15-.85A3.15,3.15,0,1,1,36,21.09h0A3.16,3.16,0,0,1,32.81,18v0Zm-21,0A3.15,3.15,0,1,1,15,21.09h0A3.16,3.16,0,0,1,11.81,18v0ZM13,51.09a3.15,3.15,0,1,1,3.15-3.15h0A3.15,3.15,0,0,1,13,51.09Zm0,22a3.15,3.15,0,1,1,3.15-3.15h0A3.15,3.15,0,0,1,13,73.09Zm34,5a3.15,3.15,0,1,1,3.15-3.15h0A3.15,3.15,0,0,1,47,78.09Zm21.15-6.15A3.15,3.15,0,1,1,65,68.79h0a3.14,3.14,0,0,1,3.12,3.15Zm-15-12.85H30.84V34.79h22.3ZM69,45.09a3.15,3.15,0,1,1,3.15-3.15h0A3.15,3.15,0,0,1,69,45.09Z" transform="translate(-7.15 -1.17)"/></svg>