<svg id="Capa_1" data-name="Capa 1" xmlns="http://www.w3.org/2000/svg" viewBox="0 0 54.93 75.56"><defs><style>.cls-1{fill:#fdb71a;}</style></defs><path class="cls-1" d="M33,67.85a1.2,1.2,0,0,0,1.39.58l4-2.46a.76.76,0,0,0-.24-1.14,1.11,1.11,0,0,0-.6-.14L33.12,66.5C32.69,66.71,32.61,67.31,33,67.85Z" transform="translate(-13.54 -3.22)"/><path class="cls-1" d="M44.49,62.84,48.91,61A.92.92,0,0,0,49,59.7a1.2,1.2,0,0,0-1.4-.59l-4,2.47a.76.76,0,0,0,.26,1.14,1.06,1.06,0,0,0,.58.13Z" transform="translate(-13.54 -3.22)"/><path class="cls-1" d="M37.5,62.84a.81.81,0,0,0,.87-.41.62.62,0,0,0,0-.86l-4-2.47a1.12,1.12,0,0,0-1.38.59c-.35.59-.3,1.13.12,1.34Z" transform="translate(-13.54 -3.22)"/><path class="cls-1" d="M43.65,66l4,2.46a1.15,1.15,0,0,0,1.4-.58c.36-.58.28-1.14-.13-1.35l-4.42-1.81a.81.81,0,0,0-.86.41A.65.65,0,0,0,43.65,66Z" transform="translate(-13.54 -3.22)"/><path class="cls-1" d="M41,66.43a.8.8,0,0,0-.84.46l-.43,4.27c0,.42.57.77,1.27.77s1.26-.35,1.26-.77l-.42-4.27A.83.83,0,0,0,41,66.43Z" transform="translate(-13.54 -3.22)"/><path class="cls-1" d="M41,55.6c-.7,0-1.27.35-1.27.77l.43,4.27a.8.8,0,0,0,.84.46.83.83,0,0,0,.84-.46l.42-4.27C42.26,56,41.7,55.6,41,55.6Z" transform="translate(-13.54 -3.22)"/><path class="cls-1" d="M59,3.22H23c-5.24,0-9.48,3.74-9.48,8.35V70.43c0,4.61,4.24,8.34,9.48,8.35H59c5.24,0,9.49-3.74,9.49-8.35h0V11.57C68.46,7,64.21,3.22,59,3.22Zm6.49,67.21c0,3.16-2.9,5.71-6.49,5.72H23c-3.59,0-6.49-2.56-6.49-5.72V11.57c0-3.15,2.9-5.71,6.49-5.71H59c3.59,0,6.49,2.56,6.49,5.71Z" transform="translate(-13.54 -3.22)"/><path class="cls-1" d="M52.48,15.52h-23A4.3,4.3,0,0,0,25,19.47V46.71a4.29,4.29,0,0,0,4.49,4h23a4.3,4.3,0,0,0,4.55-4V19.47A4.31,4.31,0,0,0,52.48,15.52ZM54,46.71A1.42,1.42,0,0,1,52.49,48h-23A1.41,1.41,0,0,1,28,46.72V19.47a1.41,1.41,0,0,1,1.49-1.31h23A1.42,1.42,0,0,1,54,19.47Z" transform="translate(-13.54 -3.22)"/><path class="cls-1" d="M38.5,12h5A1.42,1.42,0,0,0,45,10.72a1.42,1.42,0,0,0-1.5-1.32h-5A1.42,1.42,0,0,0,37,10.72,1.42,1.42,0,0,0,38.5,12Z" transform="translate(-13.54 -3.22)"/><path class="cls-1" d="M41.32,37.49a9.91,9.91,0,0,0-7,2.31A7.93,7.93,0,0,0,32,45.62a1,1,0,0,0,1,.82h.06a.93.93,0,0,0,.94-.93h0A6.27,6.27,0,0,1,35.77,41a7.93,7.93,0,0,1,5.55-1.75A8.52,8.52,0,0,1,47.19,41a5.15,5.15,0,0,1,1.6,3.68.92.92,0,0,0,.94.93h0a1,1,0,0,0,1.05-.83,6.76,6.76,0,0,0-2.12-5C47,38.27,44.52,37.49,41.32,37.49Z" transform="translate(-13.54 -3.22)"/><path class="cls-1" d="M41.61,36.59c4.55,0,8.23-3.24,8.23-7.24s-3.68-7.24-8.23-7.24-8.23,3.24-8.23,7.24h0C33.38,33.35,37.07,36.59,41.61,36.59Zm0-12.72c3.44,0,6.23,2.45,6.23,5.48s-2.79,5.48-6.23,5.48-6.23-2.45-6.23-5.48S38.18,23.88,41.61,23.87Z" transform="translate(-13.54 -3.22)"/><path class="cls-1" d="M41.85,33.69a6.09,6.09,0,0,0,4-1.46A.82.82,0,0,0,45.52,31a1.12,1.12,0,0,0-1.08,0,4.12,4.12,0,0,1-5.18,0,1.1,1.1,0,0,0-1.41-.11.82.82,0,0,0-.12,1.24l.12.11A6.14,6.14,0,0,0,41.85,33.69Z" transform="translate(-13.54 -3.22)"/></svg>