<svg xmlns="http://www.w3.org/2000/svg" viewBox="0 0 755.65 422.52"><defs><style>.cls-1{fill:#fff;}.cls-2{opacity:0.3;}.cls-3{opacity:0.15;}</style></defs><g id="Layer_2" data-name="Layer 2"><g id="Layer_2-2" data-name="Layer 2"><path class="cls-1" d="M441.22,220.43H428.48a2,2,0,0,0-2,2v43.17c0,7.56-5.49,11.8-12.95,11.8s-12.73-4.24-12.73-11.8V222.4a2,2,0,0,0-2-2H386.14a2,2,0,0,0-2,2v44A26.55,26.55,0,0,0,387.34,279c4.85,9,14.75,14.9,26.23,14.9S435.11,288,440,279a26.33,26.33,0,0,0,3.19-12.63v-44a2,2,0,0,0-2-2"/><path class="cls-1" d="M518.56,220.43H506.14a2,2,0,0,0-2,2v36.75h-.11l-10.34-9.94L478.21,234.3,464.31,221c-.83-.83-1.55-1.56-2.59-1.56h-1.55a2,2,0,0,0-2,1.87l0,13,0,14.91,0,14.91,0,14.91,0,11.9a2,2,0,0,0,2,2h12.32a2,2,0,0,0,2-2V252.32h.1l11.74,11.8L501.24,279l13.7,13.77a3.32,3.32,0,0,0,2.58,1.13h1a1.81,1.81,0,0,0,2-1.86V222.4a2,2,0,0,0-2-2"/><path class="cls-1" d="M550.59,220.43H538.16a2,2,0,0,0-2,2v68.53a2,2,0,0,0,2,2h12.43a2,2,0,0,0,2-2V222.4a2,2,0,0,0-2-2"/><path class="cls-1" d="M608.85,220.43h-46a2,2,0,0,0-2,2v11.28a2.13,2.13,0,0,0,.12.62,2,2,0,0,0,1.85,1.35h14.8v55.28a2,2,0,0,0,2,2h12.42a2,2,0,0,0,2-2V235.65h14.81a1.94,1.94,0,0,0,1.84-1.35,1.85,1.85,0,0,0,.12-.62V222.4a2,2,0,0,0-2-2"/><path class="cls-1" d="M633.66,220.43H621.24a2,2,0,0,0-2,2v68.53a2,2,0,0,0,2,2h12.42a2,2,0,0,0,2-2V222.4a2,2,0,0,0-2-2"/><path class="cls-1" d="M696,220.43H653.12a2,2,0,0,0-2,2v68.53a2,2,0,0,0,2,2H696a2,2,0,0,0,2-2V279.65a1.86,1.86,0,0,0-.13-.62,1.93,1.93,0,0,0-1.84-1.35H667.3v-14h23.61a2,2,0,0,0,2-2V250.45a1.93,1.93,0,0,0-.5-1.24,2,2,0,0,0-1.46-.72H667.3V235.65H696a1.93,1.93,0,0,0,1.84-1.35,1.86,1.86,0,0,0,.13-.62V222.4a2,2,0,0,0-2-2"/><path class="cls-1" d="M92.38,235a20.35,20.35,0,0,1,14,5.28,1.82,1.82,0,0,0,2.59,0l5.78-6,2.3-2.38a1.93,1.93,0,0,0-.11-2.9c-7-6.42-14.7-9.63-25-9.63a37.46,37.46,0,0,0-36.62,29.82,38.38,38.38,0,0,0-.75,7.56,37.77,37.77,0,0,0,.72,7.35A36.75,36.75,0,0,0,61.9,279a37.3,37.3,0,0,0,30,14.9,35.56,35.56,0,0,0,25.16-10,2.07,2.07,0,0,0,.1-2.79l-2-2.07L109,272.5a2,2,0,0,0-2.69-.1,20.77,20.77,0,0,1-32.85-8.28,22,22,0,0,1-1.42-7.77,22.54,22.54,0,0,1,1.17-7.14A20.08,20.08,0,0,1,92.38,235"/><path class="cls-1" d="M158.79,277.37a20.73,20.73,0,0,1-19.2-13.25,20.06,20.06,0,0,1-1.4-7.35,20.51,20.51,0,0,1,1.45-7.56,20.54,20.54,0,0,1,38.4,0,20.51,20.51,0,0,1,1.45,7.56,20.27,20.27,0,0,1-1.4,7.35,20.79,20.79,0,0,1-19.3,13.25m29.79-43.07a37.19,37.19,0,0,0-66.21,14.91,38.38,38.38,0,0,0-.75,7.56,37.85,37.85,0,0,0,.72,7.35,37.23,37.23,0,0,0,73,0,37.68,37.68,0,0,0,0-14.91,37.19,37.19,0,0,0-6.72-14.91"/><path class="cls-1" d="M279.94,264.12l-2.51-14.91-2.51-14.91-2.22-13.25a2,2,0,0,0-1.87-1.66h-1.66a2.29,2.29,0,0,0-1.75,1L260,234.3l-8,14.91-8,14.91-.55,1h-.21l-.56-1-8-14.91-8-14.91-7.45-13.87a2.29,2.29,0,0,0-1.76-1h-1.65a2,2,0,0,0-1.87,1.66l-2.23,13.25-2.5,14.91-2.51,14.91L204.14,279l-1.95,11.59a1.9,1.9,0,0,0,2,2.28h12.22a2,2,0,0,0,2-1.66L220.08,279l2.13-14.91.69-4.87h.21l2.53,4.87L233.42,279l7.18,13.77a2.24,2.24,0,0,0,1.76,1.13h1.87A2.44,2.44,0,0,0,246,292.8L253.12,279l7.73-14.91,2.53-4.87h.2l.71,4.87L266.46,279l1.78,12.21a2.12,2.12,0,0,0,2,1.66h12.22a1.89,1.89,0,0,0,2-2.28L282.44,279Z"/><path class="cls-1" d="M369.71,264.12l-2.51-14.91-2.51-14.91-2.22-13.25a2,2,0,0,0-1.87-1.66H359a2.29,2.29,0,0,0-1.76,1l-7.45,13.87-8,14.91-8,14.91-.56,1H333l-.55-1-8-14.91-8-14.91-7.45-13.87a2.29,2.29,0,0,0-1.75-1h-1.66a2,2,0,0,0-1.87,1.66l-2.22,13.25-2.51,14.91-2.51,14.91L293.92,279,292,290.62a1.89,1.89,0,0,0,2,2.28h12.22a2,2,0,0,0,2-1.66L309.86,279,312,264.12l.69-4.87h.21l2.54,4.87L323.19,279l7.18,13.77a2.24,2.24,0,0,0,1.76,1.13H334a2.41,2.41,0,0,0,1.76-1.13L342.9,279l7.73-14.91,2.52-4.87h.21l.71,4.87L356.24,279,358,291.24a2.1,2.1,0,0,0,2,1.66H372.2a1.9,1.9,0,0,0,2-2.28L372.22,279Z"/><path class="cls-1" d="M753.93,264.12c-3.49-7.74-11.66-11.56-18.55-14.91l-.64-.31c-7.25-3.52-11.29-6.21-11.29-9.63a5.35,5.35,0,0,1,3-5,7.47,7.47,0,0,1,3.34-.72,15.82,15.82,0,0,1,4.41.72,36,36,0,0,1,9.57,4.87c2.07,1.24,3.83.41,4.55-.73L751,234.3l2.54-3.83c.42-.72.62-2.58-.62-3.31-3.11-2.28-11.39-7.77-22.15-7.77-13,0-20.66,6.85-23.08,14.91a19.77,19.77,0,0,0-.84,5.7,18.48,18.48,0,0,0,2.31,9.21c3.53,6.38,10.64,10.21,17.77,13.67.87.42,1.69.83,2.46,1.24,5.29,2.8,8.21,5.42,8.21,9.21a6,6,0,0,1-4.16,5.7,8.6,8.6,0,0,1-3,.51,18.15,18.15,0,0,1-4.16-.51c-4.59-1.08-8.28-3.65-10.54-5.18a2.45,2.45,0,0,0-3.52.62L709.69,279l-2.18,3.83a2.32,2.32,0,0,0,.42,3.1c2.38,2.38,9.83,8,23.29,8,12.07,0,20.35-6.78,23.26-14.9a19.35,19.35,0,0,0,1.17-6.53,20.18,20.18,0,0,0-1.72-8.38"/><path class="cls-1" d="M68.88,133.86H56.45a2,2,0,0,0-2,2v68.54a2,2,0,0,0,2,2H68.88a2,2,0,0,0,2-2V135.82a2,2,0,0,0-2-2"/><path class="cls-1" d="M146.65,133.86H134.23a2,2,0,0,0-2,2v36.75h-.1l-10.35-9.93L106.3,147.73,92.4,134.37c-.83-.82-1.55-1.55-2.58-1.55H88.26a2,2,0,0,0-2,1.86l0,13,0,14.91,0,14.9,0,14.91,0,11.91a2,2,0,0,0,2,2h12.32a2,2,0,0,0,2-2V165.74h.1l11.75,11.8,14.83,14.91L143,206.22a3.31,3.31,0,0,0,2.58,1.14h1a1.82,1.82,0,0,0,2-1.86V135.82a2,2,0,0,0-2-2"/><path class="cls-1" d="M178.68,133.86H166.25a2,2,0,0,0-2,2v68.54a2,2,0,0,0,2,2h12.43a2,2,0,0,0,2-2V135.82a2,2,0,0,0-2-2"/><path class="cls-1" d="M236.94,133.86H191a2,2,0,0,0-2,2v11.29a1.91,1.91,0,0,0,.13.62,1.93,1.93,0,0,0,1.84,1.34h14.81v55.29a2,2,0,0,0,2,2h12.43a2,2,0,0,0,2-2V149.07h14.81a1.93,1.93,0,0,0,1.84-1.34,1.9,1.9,0,0,0,.12-.62V135.82a2,2,0,0,0-2-2"/><path class="cls-1" d="M261.75,133.86H249.33a2,2,0,0,0-2,2v68.54a2,2,0,0,0,2,2h12.42a2,2,0,0,0,2-2V135.82a2,2,0,0,0-2-2"/><path class="cls-1" d="M384.14,133.86h-46a2,2,0,0,0-2,2v11.29a1.91,1.91,0,0,0,.13.62,1.93,1.93,0,0,0,1.84,1.34H353v55.29a2,2,0,0,0,2,2h12.43a2,2,0,0,0,2-2V149.07h14.81a1.93,1.93,0,0,0,1.84-1.34,1.91,1.91,0,0,0,.13-.62V135.82a2,2,0,0,0-2-2"/><path class="cls-1" d="M409,133.86H396.53a2,2,0,0,0-2,2v68.54a2,2,0,0,0,2,2H409a2,2,0,0,0,2-2V135.82a2,2,0,0,0-2-2"/><path class="cls-1" d="M485.76,133.86H472a2,2,0,0,0-1.76,1.13l-5.76,12.74-6.74,14.91-4.58,10.14h-.63l-4.58-10.14-6.74-14.91L435.44,135a2,2,0,0,0-1.76-1.13H419.91a1.83,1.83,0,0,0-1.76,2.69l5.19,11.18,6.91,14.91,6.91,14.9,6.91,14.91,6.38,13.77a2,2,0,0,0,1.76,1.14h1a2,2,0,0,0,1.76-1.14l6.42-13.77,7-14.91,6.95-14.9,7-14.91,5.21-11.18a1.82,1.82,0,0,0-1.75-2.69"/><path class="cls-1" d="M539.63,133.86H496.77a2,2,0,0,0-2,2v68.54a2,2,0,0,0,2,2h42.86a2,2,0,0,0,2-2V193.07a1.91,1.91,0,0,0-.13-.62,1.93,1.93,0,0,0-1.84-1.34H511v-14h23.61a2,2,0,0,0,2-2V163.88a1.88,1.88,0,0,0-.5-1.24,2,2,0,0,0-1.46-.73H511V149.07h28.68a1.93,1.93,0,0,0,1.84-1.34,1.91,1.91,0,0,0,.13-.62V135.82a2,2,0,0,0-2-2"/><path class="cls-1" d="M597.58,177.54c-3.49-7.74-11.66-11.56-18.55-14.9l-.64-.31c-7.25-3.52-11.28-6.22-11.28-9.63a5.32,5.32,0,0,1,3-5,7.36,7.36,0,0,1,3.34-.73,15.42,15.42,0,0,1,4.41.73,36.32,36.32,0,0,1,9.57,4.86c2.07,1.25,3.83.42,4.55-.72l2.74-4.14,2.54-3.83c.42-.73.62-2.59-.62-3.32-3.11-2.27-11.39-7.76-22.15-7.76h0c-13,0-20.65,6.84-23.07,14.91a19.7,19.7,0,0,0-.84,5.69,18.52,18.52,0,0,0,2.31,9.22c3.53,6.37,10.64,10.21,17.78,13.66.86.42,1.68.83,2.45,1.24,5.29,2.81,8.21,5.42,8.21,9.22a6,6,0,0,1-4.16,5.69,8.6,8.6,0,0,1-3,.52,18.15,18.15,0,0,1-4.16-.52c-4.59-1.08-8.29-3.65-10.54-5.18a2.44,2.44,0,0,0-3.52.63l-2.58,4.55-2.18,3.83a2.34,2.34,0,0,0,.42,3.11c2.38,2.38,9.83,8,23.29,8,12.07,0,20.35-6.78,23.26-14.91a19.33,19.33,0,0,0,1.17-6.52,20.2,20.2,0,0,0-1.72-8.39"/><path class="cls-1" d="M305.53,164.4h.1l6.06,13.14,1.81,3.94H297.76l1.79-3.94Zm29.58,28-6.93-14.91-6.93-14.9-6.93-14.91L307.91,134a2.1,2.1,0,0,0-1.76-1.14h-1a2.1,2.1,0,0,0-1.76,1.14L297,147.73,290,162.64l-6.93,14.9-6.94,14.91L271,203.63a1.83,1.83,0,0,0,1.76,2.69H284.1a3.86,3.86,0,0,0,3.73-2.48l3.72-8.28h28.16l3.73,8.18c.93,2,1.76,2.58,3.62,2.58h11.5a1.83,1.83,0,0,0,1.76-2.69Z"/><g class="cls-2"><path class="cls-1" d="M178,309.14a20.51,20.51,0,0,1,1.45,7.56,20.27,20.27,0,0,1-1.4,7.35,20.61,20.61,0,0,1-38.5,0,20.06,20.06,0,0,1-1.4-7.35,20.51,20.51,0,0,1,1.45-7.56H122.37a38.38,38.38,0,0,0-.75,7.56,37.85,37.85,0,0,0,.72,7.35,37.06,37.06,0,0,0,36.45,29.81,37.12,37.12,0,0,0,36.54-29.81,37.68,37.68,0,0,0,0-14.91Z"/><path class="cls-1" d="M426.52,324.05v1.45c0,7.55-5.49,11.8-12.95,11.8s-12.73-4.25-12.73-11.8V309.14H384.17v17.18A26.52,26.52,0,0,0,387.34,339c4.85,9,14.75,14.91,26.23,14.91S435.11,348,440,339a26.3,26.3,0,0,0,3.19-12.63V309.14H426.52Z"/><path class="cls-1" d="M504.17,319.08h-.11l-10.34-9.94H458.24l0,14.91,0,14.91,0,11.9a2,2,0,0,0,2,2h12.32a2,2,0,0,0,2-2V312.25h.1l11.74,11.8L501.24,339l13.7,13.76a3.3,3.3,0,0,0,2.58,1.14h1a1.81,1.81,0,0,0,2-1.86V309.14H504.17Z"/><path class="cls-1" d="M577.68,324.05v26.81a2,2,0,0,0,2,2h12.42a2,2,0,0,0,2-2V309.14H577.68Z"/><path class="cls-1" d="M619.27,324.05v26.81a2,2,0,0,0,2,2h12.42a2,2,0,0,0,2-2V309.14H619.27Z"/><path class="cls-1" d="M279.94,324.05l-2.51-14.91H252l-8,14.91-.55,1h-.21l-.56-1-8-14.91H209.16l-2.51,14.91L204.14,339l-1.95,11.6a1.9,1.9,0,0,0,2,2.28h12.22a2,2,0,0,0,2-1.66L220.08,339l2.13-14.9.69-4.87h.21l2.53,4.87,7.78,14.9,7.18,13.77a2.23,2.23,0,0,0,1.76,1.14h1.87a2.43,2.43,0,0,0,1.76-1.14L253.12,339l7.73-14.9,2.53-4.87h.2l.71,4.87,2.17,14.9,1.78,12.22a2.12,2.12,0,0,0,2,1.66h12.22a1.89,1.89,0,0,0,2-2.28L282.44,339Z"/><path class="cls-1" d="M369.71,324.05l-2.51-14.91H341.73l-8,14.91-.56,1H333l-.55-1-8-14.91H298.93l-2.51,14.91-2.5,14.9L292,350.55a1.89,1.89,0,0,0,2,2.28h12.22a2,2,0,0,0,2-1.66L309.86,339l2.12-14.9.69-4.87h.21l2.54,4.87,7.77,14.9,7.18,13.77a2.23,2.23,0,0,0,1.76,1.14H334a2.39,2.39,0,0,0,1.76-1.14L342.9,339l7.73-14.9,2.52-4.87h.21l.71,4.87,2.17,14.9L358,351.17a2.1,2.1,0,0,0,2,1.66H372.2a1.9,1.9,0,0,0,2-2.28L372.22,339Z"/><path class="cls-1" d="M753.93,324.05c-3.49-7.75-11.66-11.56-18.55-14.91H709.2c3.53,6.37,10.64,10.21,17.77,13.66.87.43,1.69.84,2.46,1.25,5.29,2.8,8.21,5.41,8.21,9.21a6,6,0,0,1-4.16,5.69,8.6,8.6,0,0,1-3,.52,17.62,17.62,0,0,1-4.16-.52c-4.59-1.08-8.28-3.64-10.54-5.17a2.43,2.43,0,0,0-3.52.62L709.69,339l-2.18,3.83a2.34,2.34,0,0,0,.42,3.11c2.38,2.38,9.83,8,23.29,8,12.07,0,20.35-6.78,23.26-14.91a19.24,19.24,0,0,0,1.17-6.52,20.18,20.18,0,0,0-1.72-8.38"/><path class="cls-1" d="M115.17,339,109,332.43a2,2,0,0,0-2.69-.1,20.77,20.77,0,0,1-32.85-8.28,22,22,0,0,1-1.42-7.77,22.54,22.54,0,0,1,1.17-7.14h-18a38.38,38.38,0,0,0-.75,7.56,37.85,37.85,0,0,0,.72,7.35A36.75,36.75,0,0,0,61.9,339a37.3,37.3,0,0,0,30,14.9,35.56,35.56,0,0,0,25.16-10,2.07,2.07,0,0,0,.1-2.79Z"/></g><g class="cls-3"><path class="cls-1" d="M158.79,378.48a20.73,20.73,0,0,1-19.2-13.25H122.34a37.23,37.23,0,0,0,73,0H178.09a20.79,20.79,0,0,1-19.3,13.25"/><path class="cls-1" d="M243.4,366.26h-.21l-.56-1h-17l7.78,14.91,7.18,13.77a2.24,2.24,0,0,0,1.76,1.13h1.87a2.44,2.44,0,0,0,1.76-1.13l7.13-13.77,7.73-14.91H244Z"/><path class="cls-1" d="M202.19,391.73a1.9,1.9,0,0,0,2,2.28h12.22a2,2,0,0,0,2-1.66l1.74-12.21,2.13-14.91H206.65"/><path class="cls-1" d="M279.94,365.23H264.29l2.17,14.91,1.78,12.21a2.12,2.12,0,0,0,2,1.66h12.22a1.89,1.89,0,0,0,2-2.28l-1.95-11.59Z"/><path class="cls-1" d="M369.71,365.23H354.07l2.17,14.91L358,392.35a2.1,2.1,0,0,0,2,1.66H372.2a1.9,1.9,0,0,0,2-2.28l-1.95-11.59Z"/><path class="cls-1" d="M426.52,366.68c0,7.56-5.49,11.8-12.95,11.8s-12.73-4.24-12.73-11.8v-1.45H384.17v2.28a26.55,26.55,0,0,0,3.17,12.63c4.85,9,14.75,14.9,26.23,14.9s21.54-5.9,26.42-14.9a26.33,26.33,0,0,0,3.19-12.63v-2.28H426.52Z"/><path class="cls-1" d="M501.24,380.14l13.7,13.77a3.32,3.32,0,0,0,2.58,1.13h1a1.81,1.81,0,0,0,2-1.86V365.23H486.4Z"/><path class="cls-1" d="M536.2,380.14V392a2,2,0,0,0,2,2h12.43a2,2,0,0,0,2-2V365.23H536.2Z"/><path class="cls-1" d="M619.27,380.14V392a2,2,0,0,0,2,2h12.42a2,2,0,0,0,2-2V365.23H619.27Z"/><path class="cls-1" d="M696,378.79H667.3V365.23H651.15V392a2,2,0,0,0,2,2H696a2,2,0,0,0,2-2V380.76a1.86,1.86,0,0,0-.13-.62,1.93,1.93,0,0,0-1.84-1.35"/></g><g class="cls-3"><path class="cls-1" d="M188.68,407.61H129a37.36,37.36,0,0,0,59.72,0"/><path class="cls-1" d="M202.19,419.21a1.9,1.9,0,0,0,2,2.27h12.22a2,2,0,0,0,2-1.65l1.74-12.22H204.14Z"/><path class="cls-1" d="M268.24,419.83a2.12,2.12,0,0,0,2,1.65h12.22a1.89,1.89,0,0,0,2-2.27l-1.95-11.6h-16Z"/><path class="cls-1" d="M246,421.38l7.13-13.77h-19.7l7.18,13.77a2.26,2.26,0,0,0,1.76,1.14h1.87a2.46,2.46,0,0,0,1.76-1.14"/><path class="cls-1" d="M358,419.83a2.1,2.1,0,0,0,2,1.65H372.2a1.9,1.9,0,0,0,2-2.27l-1.95-11.6h-16Z"/><path class="cls-1" d="M292,419.21a1.89,1.89,0,0,0,2,2.27h12.22a2,2,0,0,0,2-1.65l1.74-12.22H293.92Z"/><path class="cls-1" d="M335.76,421.38l7.14-13.77H323.19l7.18,13.77a2.26,2.26,0,0,0,1.76,1.14H334a2.42,2.42,0,0,0,1.76-1.14"/><path class="cls-1" d="M520.52,420.65v-13H501.24l13.7,13.77a3.3,3.3,0,0,0,2.58,1.14h1a1.82,1.82,0,0,0,2-1.87"/><path class="cls-1" d="M458.31,419.52a2,2,0,0,0,2,2h12.32a2,2,0,0,0,2-2V407.61H458.29Z"/><path class="cls-1" d="M577.68,419.52a2,2,0,0,0,2,2h12.42a2,2,0,0,0,2-2V407.61H577.68Z"/><path class="cls-1" d="M754.48,407.61h-21a8.6,8.6,0,0,1-3,.52,18.15,18.15,0,0,1-4.16-.52H709.69l-2.18,3.83a2.34,2.34,0,0,0,.42,3.11c2.38,2.38,9.83,8,23.29,8,12.07,0,20.35-6.78,23.26-14.91"/></g><g class="cls-2"><path class="cls-1" d="M68.88,75.17H56.45a2,2,0,0,0-2,2v41.72H70.84V77.14a2,2,0,0,0-2-2"/><path class="cls-1" d="M146.65,75.17H134.23a2,2,0,0,0-2,2v36.75h-.1L121.81,104,106.3,89.05,92.4,75.69c-.83-.83-1.55-1.55-2.58-1.55H88.26a2,2,0,0,0-2,1.86l0,13,0,14.9,0,14.91h16.29v-11.8h.1l11.75,11.8h34.12V77.14a2,2,0,0,0-2-2"/><path class="cls-1" d="M236.94,75.17H191a2,2,0,0,0-2,2V88.43a1.91,1.91,0,0,0,.13.62A1.93,1.93,0,0,0,191,90.39h14.81v28.47h16.35V90.39h14.81a1.93,1.93,0,0,0,1.84-1.34,1.9,1.9,0,0,0,.12-.62V77.14a2,2,0,0,0-2-2"/><path class="cls-1" d="M261.75,75.17H249.33a2,2,0,0,0-2,2v41.72h16.36V77.14a2,2,0,0,0-2-2"/><path class="cls-1" d="M384.14,75.17h-46a2,2,0,0,0-2,2V88.43a1.91,1.91,0,0,0,.13.62,1.93,1.93,0,0,0,1.84,1.34H353v28.47h16.35V90.39h14.81A1.93,1.93,0,0,0,386,89.05a1.91,1.91,0,0,0,.13-.62V77.14a2,2,0,0,0-2-2"/><path class="cls-1" d="M485.76,75.17H472a2,2,0,0,0-1.76,1.14l-5.76,12.74L457.73,104l-4.58,10.15h-.63L447.94,104l-6.74-14.9-5.76-12.74a2,2,0,0,0-1.76-1.14H419.91a1.83,1.83,0,0,0-1.76,2.7l5.19,11.18,6.91,14.9,6.91,14.91h31.23L475.34,104l7-14.9,5.21-11.18a1.83,1.83,0,0,0-1.75-2.7"/><path class="cls-1" d="M539.63,75.17H496.77a2,2,0,0,0-2,2v41.72H511v-.41h23.61a2,2,0,0,0,2-2V105.2A1.93,1.93,0,0,0,536,104a2,2,0,0,0-1.46-.72H511V90.39h28.68a1.93,1.93,0,0,0,1.84-1.34,1.91,1.91,0,0,0,.13-.62V77.14a2,2,0,0,0-2-2"/><path class="cls-1" d="M314.32,89.05l-6.41-13.77a2.1,2.1,0,0,0-1.76-1.14h-1a2.1,2.1,0,0,0-1.76,1.14L297,89.05,290,104l-6.93,14.91h16.46l6-13.15h.1l6.06,13.15h16.49L321.25,104Z"/><path class="cls-1" d="M579,104l-.64-.32c-7.25-3.52-11.28-6.21-11.28-9.62a5.32,5.32,0,0,1,3-5,7.36,7.36,0,0,1,3.34-.73,15.42,15.42,0,0,1,4.41.73,36.32,36.32,0,0,1,9.57,4.86c2.07,1.25,3.83.42,4.55-.72l2.74-4.14,2.54-3.83c.42-.73.62-2.59-.62-3.32-3.11-2.27-11.39-7.76-22.15-7.76h0c-13,0-20.65,6.84-23.07,14.91a19.65,19.65,0,0,0-.84,5.69,18.55,18.55,0,0,0,2.31,9.22c3.53,6.37,10.64,10.21,17.78,13.66.86.42,1.68.83,2.45,1.24h24.5c-3.49-7.74-11.66-11.56-18.55-14.9"/></g><g class="cls-3"><path class="cls-1" d="M68.88,34H56.45a2,2,0,0,0-2,2V62.77H70.84V36a2,2,0,0,0-2-2"/><path class="cls-1" d="M92.4,34.51c-.83-.83-1.55-1.55-2.58-1.55H88.26a2,2,0,0,0-2,1.86l0,13,0,14.9h35.47L106.3,47.87Z"/><path class="cls-1" d="M146.65,34H134.23a2,2,0,0,0-2,2V62.77h16.36V36a2,2,0,0,0-2-2"/><path class="cls-1" d="M236.94,34H191a2,2,0,0,0-2,2V47.25a1.91,1.91,0,0,0,.13.62A1.93,1.93,0,0,0,191,49.21h14.81V62.77h16.35V49.21h14.81a1.93,1.93,0,0,0,1.84-1.34,1.9,1.9,0,0,0,.12-.62V36a2,2,0,0,0-2-2"/><path class="cls-1" d="M261.75,34H249.33a2,2,0,0,0-2,2V62.77h16.36V36a2,2,0,0,0-2-2"/><path class="cls-1" d="M307.91,34.1A2.1,2.1,0,0,0,306.15,33h-1a2.1,2.1,0,0,0-1.76,1.14L297,47.87,290,62.77h31.23l-6.93-14.9Z"/><path class="cls-1" d="M409,34H396.53a2,2,0,0,0-2,2V62.77h16.36V36a2,2,0,0,0-2-2"/><path class="cls-1" d="M435.44,35.13A2,2,0,0,0,433.68,34H419.91a1.83,1.83,0,0,0-1.76,2.7l5.19,11.18,6.91,14.9h17.69l-6.74-14.9Z"/><path class="cls-1" d="M596.61,40.72C593.5,38.45,585.22,33,574.46,33h0c-13,0-20.65,6.84-23.07,14.91a19.65,19.65,0,0,0-.84,5.69,18.48,18.48,0,0,0,2.31,9.21H579l-.64-.31c-7.25-3.52-11.28-6.21-11.28-9.62a5.32,5.32,0,0,1,3-5,7.36,7.36,0,0,1,3.34-.73,15.42,15.42,0,0,1,4.41.73,36.32,36.32,0,0,1,9.57,4.86c2.07,1.25,3.83.42,4.55-.72l2.74-4.14L597.23,44c.42-.73.62-2.59-.62-3.32"/></g><g class="cls-3"><path class="cls-1" d="M551.38,14.91h18.7a7.36,7.36,0,0,1,3.34-.73,15.42,15.42,0,0,1,4.41.73h16.86l2.54-3.83c.42-.73.62-2.59-.62-3.31C593.5,5.49,585.22,0,574.46,0h0c-13,0-20.65,6.84-23.07,14.91M487.51,3.73A1.82,1.82,0,0,0,485.76,1H472a2,2,0,0,0-1.76,1.13l-5.76,12.74H482.3ZM435.44,2.17A2,2,0,0,0,433.68,1H419.91a1.83,1.83,0,0,0-1.76,2.69l5.19,11.18H441.2Zm-132.08-1L297,14.91h17.37L307.91,1.14A2.1,2.1,0,0,0,306.15,0h-1a2.1,2.1,0,0,0-1.76,1.14M263.72,3a2,2,0,0,0-2-2H249.33a2,2,0,0,0-2,2V14.91h16.36ZM238.9,14.29V3a2,2,0,0,0-2-2H191a2,2,0,0,0-2,2V14.29a1.91,1.91,0,0,0,.13.62h49.65a1.9,1.9,0,0,0,.12-.62M86.29,1.86l0,13.05h20L92.4,1.55C91.57.73,90.85,0,89.82,0H88.26a2,2,0,0,0-2,1.86M70.84,3a2,2,0,0,0-2-2H56.45a2,2,0,0,0-2,2V14.91H70.84ZM574.46,0h0ZM306.15,0h0ZM89.81,0h0Z"/></g><path class="cls-1" d="M0,108a.28.28,0,0,1,.28-.39H1.78a.34.34,0,0,1,.29.23l1.66,6.38h.06l2.55-6.59a.25.25,0,0,1,.27-.18H6.9a.25.25,0,0,1,.27.18l2.56,6.59H9.8l1.63-6.38a.32.32,0,0,1,.29-.23h1.47a.29.29,0,0,1,.29.39l-3,10.75a.31.31,0,0,1-.29.23H9.91a.26.26,0,0,1-.27-.18l-2.87-7.25H6.69L3.86,118.8a.27.27,0,0,1-.27.18H3.33a.31.31,0,0,1-.29-.23Z"/><path class="cls-1" d="M22.07,107.92a.3.3,0,0,1,.3-.31h6.51a.31.31,0,0,1,.31.31v1.31a.3.3,0,0,1-.31.3H24.15v2.63h4a.31.31,0,0,1,.3.3v1.33a.29.29,0,0,1-.3.3h-4v2.8h4.73a.31.31,0,0,1,.31.31v1.31a.31.31,0,0,1-.31.31H22.37a.3.3,0,0,1-.3-.31Z"/><path class="cls-1" d="M48.55,109.53H46.1a.3.3,0,0,1-.31-.3v-1.31a.31.31,0,0,1,.31-.31h7a.31.31,0,0,1,.31.31v1.31a.3.3,0,0,1-.31.3H50.64v9a.32.32,0,0,1-.3.31H48.85a.32.32,0,0,1-.3-.31Z"/><path class="cls-1" d="M62,107.92a.31.31,0,0,1,.31-.31h4.57a3.47,3.47,0,0,1,3.49,3.44A3.51,3.51,0,0,1,68,114.28l2.2,4.07a.31.31,0,0,1-.27.47H68.28a.27.27,0,0,1-.26-.15l-2.13-4.24H64.11v4.08a.32.32,0,0,1-.3.31H62.34a.31.31,0,0,1-.31-.31Zm4.71,4.8a1.63,1.63,0,0,0,1.58-1.64,1.59,1.59,0,0,0-1.58-1.55H64.13v3.19Z"/><path class="cls-1" d="M78.14,118.4l5-10.77a.29.29,0,0,1,.27-.18h.16a.28.28,0,0,1,.28.18l4.93,10.77a.29.29,0,0,1-.28.42H87.09a.46.46,0,0,1-.46-.32l-.79-1.73H81.06l-.79,1.73a.48.48,0,0,1-.46.32H78.42A.29.29,0,0,1,78.14,118.4ZM85.06,115l-1.6-3.52h0L81.84,115Z"/><path class="cls-1" d="M97,107.74a.3.3,0,0,1,.3-.29h.24a.36.36,0,0,1,.28.11l6.53,7h0v-6.6a.31.31,0,0,1,.3-.31h1.48a.32.32,0,0,1,.3.31v10.77a.3.3,0,0,1-.3.29H106a.36.36,0,0,1-.27-.12l-6.56-7.23h0v6.88a.31.31,0,0,1-.31.31H97.34a.32.32,0,0,1-.3-.31Z"/><path class="cls-1" d="M115.63,117.73c-.16-.13-.22-.23-.08-.48l.58-1a.37.37,0,0,1,.54-.12,3.86,3.86,0,0,0,2.42,1,1.34,1.34,0,0,0,1.46-1.23c0-.81-.69-1.38-2-1.92-1.5-.61-3-1.57-3-3.46,0-1.42,1.06-3.07,3.61-3.07a5.64,5.64,0,0,1,3.2,1.07.4.4,0,0,1,.09.53l-.61.91a.42.42,0,0,1-.56.2,4,4,0,0,0-2.22-.89c-.91,0-1.41.52-1.41,1.13s.59,1.26,1.89,1.79c1.55.62,3.34,1.55,3.34,3.62a3.38,3.38,0,0,1-3.68,3.17A5,5,0,0,1,115.63,117.73Z"/><path class="cls-1" d="M131.7,107.92a.3.3,0,0,1,.3-.31h6.51a.31.31,0,0,1,.31.31v1.31a.3.3,0,0,1-.31.3h-4.73v3h3.95a.32.32,0,0,1,.3.31v1.31a.31.31,0,0,1-.3.3h-3.95v4.05a.33.33,0,0,1-.31.31H132a.3.3,0,0,1-.3-.31Z"/><path class="cls-1" d="M152.58,107.45a5.77,5.77,0,1,1-5.75,5.78A5.75,5.75,0,0,1,152.58,107.45Zm0,9.44a3.68,3.68,0,1,0-3.67-3.66A3.69,3.69,0,0,0,152.58,116.89Z"/><path class="cls-1" d="M167.28,107.92a.31.31,0,0,1,.3-.31h4.58a3.47,3.47,0,0,1,3.49,3.44,3.52,3.52,0,0,1-2.37,3.23l2.2,4.07a.31.31,0,0,1-.28.47h-1.68a.26.26,0,0,1-.25-.15l-2.13-4.24h-1.78v4.08a.32.32,0,0,1-.3.31h-1.48a.31.31,0,0,1-.3-.31Zm4.71,4.8a1.64,1.64,0,0,0,1.58-1.64,1.6,1.6,0,0,0-1.58-1.55h-2.61v3.19Z"/><path class="cls-1" d="M186,107.69a.26.26,0,0,1,.28-.24h.26a.3.3,0,0,1,.27.16l3.52,7.56h.05l3.52-7.56a.29.29,0,0,1,.27-.16h.26a.27.27,0,0,1,.29.24l1.89,10.76a.28.28,0,0,1-.29.37h-1.46a.35.35,0,0,1-.3-.24l-.94-6.07h0l-2.8,6.29a.28.28,0,0,1-.28.18h-.28a.29.29,0,0,1-.28-.18l-2.83-6.29h-.05l-.93,6.07a.3.3,0,0,1-.28.24h-1.44a.3.3,0,0,1-.31-.37Z"/><path class="cls-1" d="M1,216.55a.31.31,0,0,1,.3-.3H2.82a.31.31,0,0,1,.3.3v10.6a.31.31,0,0,1-.3.3H1.33a.31.31,0,0,1-.3-.3Z"/><path class="cls-1" d="M12.72,216.38a.3.3,0,0,1,.31-.29h.24a.35.35,0,0,1,.27.11l6.53,7h0v-6.62a.3.3,0,0,1,.3-.3h1.48a.31.31,0,0,1,.3.3v10.78a.29.29,0,0,1-.3.28h-.23a.35.35,0,0,1-.27-.11l-6.56-7.23h0v6.88a.3.3,0,0,1-.31.3H13a.31.31,0,0,1-.31-.3Z"/><path class="cls-1" d="M33.59,218.17H31.14a.3.3,0,0,1-.31-.3v-1.32a.3.3,0,0,1,.31-.3h7a.3.3,0,0,1,.31.3v1.32a.3.3,0,0,1-.31.3H35.68v9a.31.31,0,0,1-.3.3H33.89a.31.31,0,0,1-.3-.3Z"/><path class="cls-1" d="M51.87,216.09a5.76,5.76,0,1,1-5.74,5.78A5.76,5.76,0,0,1,51.87,216.09Zm0,9.44a3.68,3.68,0,1,0-3.66-3.66A3.69,3.69,0,0,0,51.87,225.53Z"/></g></g></svg>