<svg xmlns="http://www.w3.org/2000/svg" viewBox="0 0 526.49 390.41"><defs><style>.cls-1{fill:#263b80;}.cls-2{fill:#fdb71a;}</style></defs><g id="Layer_2" data-name="Layer 2"><g id="Layer_1-2" data-name="Layer 1"><path class="cls-1" d="M17,0H33.19V16.18H17ZM34,16.18H50.2V0H34Zm-34,17H16.18V17H0Zm17,0H33.19V17H17Zm17,0H50.2V17H34Zm17,0H67.21V17H51Zm17,0H84.22V17H68Zm-51,17H33.19V34H17Zm17,0H50.2V34H34Zm17,0H67.21V34H51Zm17,0H84.22V34H68Zm17,0h16.18V34H85.05Zm17,0h16.18V34H102.06Zm17,0h16.18V34H119.07Zm17,0h16.18V34H136.08Zm17,0h16.18V34H153.09Zm17,0h16.18V34H170.1Zm17,0h16.17V34H187.12ZM17,67.21H33.19V51H17Zm17,0H50.2V51H34Zm34,0H84.22V51H68Zm17,0h16.18V51H85.05Zm17,0h16.18V51H102.06Zm17,0h16.18V51H119.07Zm17,0h16.18V51H136.08Zm17,0h16.18V51H153.09Zm17,0h16.18V51H170.1Zm17,0h16.17V51H187.12Zm17,0H220.3V51H204.13ZM34,84.22H50.2V68H34Zm17,0H67.21V68H51Zm34,0h16.18V68H85.05Zm17,0h16.18V68H102.06Zm17,0h16.18V68H119.07Zm17,0h16.18V68H136.08Zm17,0h16.18V68H153.09Zm17,0h16.18V68H170.1Zm17,0h16.17V68H187.12Zm17,0H220.3V68H204.13Zm51,0h16.17V68H255.16Zm17,0h16.17V68H272.17ZM51,101.23H67.21V85.05H51Zm17,0H84.22V85.05H68Zm17,0h16.18V85.05H85.05Zm17,0h16.18V85.05H102.06Zm17,0h16.18V85.05H119.07Zm17,0h16.18V85.05H136.08Zm17,0h16.18V85.05H153.09Zm17,0h16.18V85.05H170.1Zm17,0h16.17V85.05H187.12Zm17,0H220.3V85.05H204.13Zm17,0h16.17V85.05H221.14Zm17,0h16.17V85.05H238.15Zm17,0h16.17V85.05H255.16Zm17,0h16.17V85.05H272.17ZM34,118.24H50.2V102.06H34Zm17,0H67.21V102.06H51Zm17,0H84.22V102.06H68Zm34,0h16.18V102.06H102.06Zm17,0h16.18V102.06H119.07Zm17,0h16.18V102.06H136.08Zm17,0h16.18V102.06H153.09Zm17,0h16.18V102.06H170.1Zm17,0h16.17V102.06H187.12Zm17,0H220.3V102.06H204.13Zm17,0h16.17V102.06H221.14Zm17,0h16.17V102.06H238.15Zm17,0h16.17V102.06H255.16Zm17,0h16.17V102.06H272.17Zm17,0h16.17V102.06H289.18ZM51,135.25H67.21V119.07H51Zm17,0H84.22V119.07H68Zm17,0h16.18V119.07H85.05Zm34,0h16.18V119.07H119.07Zm17,0h16.18V119.07H136.08Zm17,0h16.18V119.07H153.09Zm17,0h16.18V119.07H170.1Zm17,0h16.17V119.07H187.12Zm17,0H220.3V119.07H204.13Zm17,0h16.17V119.07H221.14Zm17,0h16.17V119.07H238.15Zm17,0h16.17V119.07H255.16Zm17,0h16.17V119.07H272.17Zm17,0h16.17V119.07H289.18ZM68,152.26H84.22V136.08H68Zm17,0h16.18V136.08H85.05Zm51,0h16.18V136.08H136.08Zm17,0h16.18V136.08H153.09Zm17,0h16.18V136.08H170.1Zm17,0h16.17V136.08H187.12Zm17,0H220.3V136.08H204.13Zm17,0h16.17V136.08H221.14Zm17,0h16.17V136.08H238.15Zm17,0h16.17V136.08H255.16Zm17,0h16.17V136.08H272.17Zm17,0h16.17V136.08H289.18Zm17,0h16.17V136.08H306.19Zm17,0h16.17V136.08H323.2Zm-238.15,17h16.18V153.09H85.05Zm17,0h16.18V153.09H102.06Zm34,0h16.18V153.09H136.08Zm17,0h16.18V153.09H153.09Zm17,0h16.18V153.09H170.1Zm17,0h16.17V153.09H187.12Zm17,0H220.3V153.09H204.13Zm17,0h16.17V153.09H221.14Zm17,0h16.17V153.09H238.15Zm17,0h16.17V153.09H255.16Zm17,0h16.17V153.09H272.17Zm17,0h16.17V153.09H289.18Zm17,0h16.17V153.09H306.19Zm17,0h16.17V153.09H323.2Zm17,0h16.18V153.09H340.21Zm-255.16,17h16.18V170.1H85.05Zm17,0h16.18V170.1H102.06Zm51,0h16.18V170.1H153.09Zm17,0h16.18V170.1H170.1Zm17,0h16.17V170.1H187.12Zm17,0H220.3V170.1H204.13Zm17,0h16.17V170.1H221.14Zm17,0h16.17V170.1H238.15Zm17,0h16.17V170.1H255.16Zm17,0h16.17V170.1H272.17Zm17,0h16.17V170.1H289.18Zm17,0h16.17V170.1H306.19Zm17,0h16.17V170.1H323.2Zm-221.14,17h16.18V187.11H102.06Zm17,0h16.18V187.11H119.07Zm51,0h16.18V187.11H170.1Zm17,0h16.17V187.11H187.12Zm17,0H220.3V187.11H204.13Zm17,0h16.17V187.11H221.14Zm17,0h16.17V187.11H238.15Zm17,0h16.17V187.11H255.16Zm17,0h16.17V187.11H272.17Zm17,0h16.17V187.11H289.18Zm17,0h16.17V187.11H306.19Zm17,0h16.17V187.11H323.2Zm-204.13,17h16.18V204.13H119.07Zm68.05,0h16.17V204.13H187.12Zm17,0H220.3V204.13H204.13Zm17,0h16.17V204.13H221.14Zm17,0h16.17V204.13H238.15Zm17,0h16.17V204.13H255.16Zm17,0h16.17V204.13H272.17Zm17,0h16.17V204.13H289.18Zm17,0h16.17V204.13H306.19Zm17,0h16.17V204.13H323.2Zm-119.07,17H220.3V221.14H204.13Zm17,0h16.17V221.14H221.14Zm17,0h16.17V221.14H238.15Zm17,0h16.17V221.14H255.16Zm17,0h16.17V221.14H272.17Zm17,0h16.17V221.14H289.18Zm17,0h16.17V221.14H306.19Zm17,0h16.17V221.14H323.2Zm-119.07,17H220.3V238.15H204.13Zm17,0h16.17V238.15H221.14Zm17,0h16.17V238.15H238.15Zm17,0h16.17V238.15H255.16Zm17,0h16.17V238.15H272.17Zm17,0h16.17V238.15H289.18Zm17,0h16.17V238.15H306.19Zm17,0h16.17V238.15H323.2Zm17,0h16.18V238.15H340.21Zm119.07,0h16.18V238.15H459.28Zm17,0h16.18V238.15H476.29Zm17,0h16.18V238.15H493.3Zm17-16.17v16.17h16.18V238.15ZM204.13,271.33H220.3V255.16H204.13Zm17,0h16.17V255.16H221.14Zm17,0h16.17V255.16H238.15Zm17,0h16.17V255.16H255.16Zm17,0h16.17V255.16H272.17Zm17,0h16.17V255.16H289.18Zm17,0h16.17V255.16H306.19Zm17,0h16.17V255.16H323.2Zm17,0h16.18V255.16H340.21Zm119.07,0h16.18V255.16H459.28Zm17,0h16.18V255.16H476.29Zm17,0h16.18V255.16H493.3Zm17,0h16.18V255.16H510.31Zm-306.18,17H220.3V272.17H204.13Zm17,0h16.17V272.17H221.14Zm17,0h16.17V272.17H238.15Zm17,0h16.17V272.17H255.16Zm17,0h16.17V272.17H272.17Zm17,0h16.17V272.17H289.18Zm17,0h16.17V272.17H306.19Zm17,0h16.17V272.17H323.2Zm17,0h16.18V272.17H340.21Zm17,0H373.4V272.17H357.22Zm102.06,0h16.18V272.17H459.28Zm17,0h16.18V272.17H476.29Zm17,0h16.18V272.17H493.3Zm-272.16,17h16.17V289.18H221.14Zm17,0h16.17V289.18H238.15Zm17,0h16.17V289.18H255.16Zm17,0h16.17V289.18H272.17Zm17,0h16.17V289.18H289.18Zm17,0h16.17V289.18H306.19Zm17,0h16.17V289.18H323.2Zm17,0h16.18V289.18H340.21Zm17,0H373.4V289.18H357.22Zm17,0h16.18V289.18H374.23Zm34,0h16.18V289.18H408.25Zm33.19-16.17H425.26v16.17h16.18Zm.83,16.17h16.18V289.18H442.27Zm17,0h16.18V289.18H459.28Zm17,0h16.18V289.18H476.29Zm17,0h16.18V289.18H493.3Zm-238.14,17h16.17V306.19H255.16Zm17,0h16.17V306.19H272.17Zm17,0h16.17V306.19H289.18Zm17,0h16.17V306.19H306.19Zm17,0h16.17V306.19H323.2Zm17,0h16.18V306.19H340.21Zm17,0H373.4V306.19H357.22Zm17,0h16.18V306.19H374.23Zm17,0h16.18V306.19H391.24Zm17,0h16.18V306.19H408.25Zm33.19-16.18H425.26v16.18h16.18Zm.83,16.18h16.18V306.19H442.27Zm17,0h16.18V306.19H459.28Zm17,0h16.18V306.19H476.29Zm-187.11,17h16.17V323.2H289.18Zm17,0h16.17V323.2H306.19Zm119.49,51h16.17V374.23H425.68Zm-102.48-51h16.17V323.2H323.2Zm17,0h16.18V323.2H340.21Zm17,0H373.4V323.2H357.22Zm17,0h16.18V323.2H374.23Zm17,0h16.18V323.2H391.24Zm17,0h16.18V323.2H408.25Zm33.19-16.17H425.26v16.17h16.18Zm.83,16.17h16.18V323.2H442.27Zm-102.06,17h16.18V340.21H340.21Zm17,0H373.4V340.21H357.22Zm34,0h16.18V340.21H391.24Zm17,0h16.18V340.21H408.25Zm33.19-16.18H425.26v16.18h16.18Zm.83,16.18h16.18V340.21H442.27Zm-.83.83H425.26V373.4h16.18Z"/><path class="cls-2" d="M151.15,51a3.21,3.21,0,0,1,3.21-3.2h0a.21.21,0,0,0,.21-.24,2.77,2.77,0,0,1,5.4-1.19.22.22,0,0,0,.27.14.2.2,0,0,0,.14-.26,3.2,3.2,0,0,0-1-1.55,4.05,4.05,0,0,1,7.23.43.22.22,0,0,0,.22.13,2.36,2.36,0,0,1,2.5,3.21.19.19,0,0,0,0,.23,3.2,3.2,0,0,1-2.23,5.5h-.64v1.5a.21.21,0,0,1-.21.21.21.21,0,0,1-.22-.21v-1.5h-1.7v1.5a.21.21,0,0,1-.22.21.21.21,0,0,1-.21-.21v-1.5h-1.71v1.5a.21.21,0,1,1-.42,0v-1.5h-1.71v1.5a.21.21,0,0,1-.22.21.21.21,0,0,1-.21-.21v-1.5H158v1.5a.21.21,0,1,1-.42,0v-1.5h-1.71v1.5a.21.21,0,0,1-.21.21.21.21,0,0,1-.22-.21v-1.5h-1.06A3.21,3.21,0,0,1,151.15,51Zm15.37,6.41a.21.21,0,0,0-.21-.22.22.22,0,0,0-.22.22v.42a.22.22,0,0,0,.22.22.21.21,0,0,0,.21-.22Zm0,2.13a.21.21,0,0,0-.21-.21.21.21,0,0,0-.22.21V60a.22.22,0,0,0,.22.21.21.21,0,0,0,.21-.21Zm-.21,1.92a.22.22,0,0,0-.22.21v.43a.22.22,0,0,0,.22.22.21.21,0,0,0,.21-.22v-.43A.21.21,0,0,0,166.31,61.45Zm-1.92-4.05a.22.22,0,0,0-.22-.22.21.21,0,0,0-.21.22v.42a.21.21,0,0,0,.21.22.22.22,0,0,0,.22-.22Zm0,2.13a.21.21,0,0,0-.22-.21.21.21,0,0,0-.21.21V60a.21.21,0,0,0,.21.21.22.22,0,0,0,.22-.21Zm-.22,1.92a.21.21,0,0,0-.21.21v.43a.21.21,0,0,0,.21.22.22.22,0,0,0,.22-.22v-.43A.22.22,0,0,0,164.17,61.45Zm-1.92-4.05a.21.21,0,1,0-.42,0v.42a.21.21,0,1,0,.42,0Zm0,2.13a.21.21,0,0,0-.42,0V60a.21.21,0,1,0,.42,0ZM162,61.45a.21.21,0,0,0-.21.21v.43a.21.21,0,1,0,.42,0v-.43A.21.21,0,0,0,162,61.45Zm-1.92-4.05a.22.22,0,1,0-.43,0v.42a.22.22,0,1,0,.43,0Zm0,2.13a.21.21,0,0,0-.22-.21.21.21,0,0,0-.21.21V60a.22.22,0,0,0,.43,0Zm-.22,1.92a.22.22,0,0,0-.21.21v.43a.22.22,0,1,0,.43,0v-.43A.22.22,0,0,0,159.9,61.45ZM158,57.4a.21.21,0,1,0-.42,0v.42a.21.21,0,1,0,.42,0Zm0,2.13a.21.21,0,0,0-.42,0V60a.21.21,0,1,0,.42,0Zm-.21,1.92a.21.21,0,0,0-.21.21v.43a.21.21,0,1,0,.42,0v-.43A.21.21,0,0,0,157.77,61.45Zm-1.92-4.05a.22.22,0,1,0-.43,0v.42a.22.22,0,1,0,.43,0Zm0,2.13a.21.21,0,0,0-.21-.21.21.21,0,0,0-.22.21V60a.22.22,0,0,0,.43,0Zm-.21,1.92a.22.22,0,0,0-.22.21v.43a.22.22,0,1,0,.43,0v-.43A.22.22,0,0,0,155.64,61.45Zm32.47,61h1.06v1.5a.21.21,0,0,0,.22.21.21.21,0,0,0,.21-.21v-1.5h1.71v1.5a.21.21,0,0,0,.42,0v-1.5h1.71v1.5a.21.21,0,0,0,.21.21.21.21,0,0,0,.22-.21v-1.5h1.71v1.5a.21.21,0,0,0,.42,0v-1.5h1.71v1.5a.21.21,0,0,0,.21.21.21.21,0,0,0,.22-.21v-1.5h1.7v1.5a.21.21,0,0,0,.22.21.21.21,0,0,0,.21-.21v-1.5h.64a3.2,3.2,0,0,0,2.23-5.5.19.19,0,0,1,0-.23,2.36,2.36,0,0,0-2.5-3.21.22.22,0,0,1-.22-.13,4.05,4.05,0,0,0-7.23-.43,3.2,3.2,0,0,1,1,1.55.2.2,0,0,1-.14.26.22.22,0,0,1-.27-.14,2.77,2.77,0,0,0-5.4,1.19.21.21,0,0,1-.21.24h0a3.2,3.2,0,1,0,0,6.4Zm12.16,3.21a.21.21,0,0,0-.21-.22.22.22,0,0,0-.22.22v.42a.22.22,0,0,0,.22.22.21.21,0,0,0,.21-.22Zm0,2.13a.21.21,0,0,0-.21-.21.21.21,0,0,0-.22.21v.43a.22.22,0,0,0,.22.21.21.21,0,0,0,.21-.21Zm-.21,1.92a.22.22,0,0,0-.22.21v.43a.22.22,0,0,0,.22.22.21.21,0,0,0,.21-.22v-.43A.21.21,0,0,0,200.06,129.7Zm-1.92-4a.22.22,0,0,0-.22-.22.21.21,0,0,0-.21.22v.42a.21.21,0,0,0,.21.22.22.22,0,0,0,.22-.22Zm0,2.13a.21.21,0,0,0-.22-.21.21.21,0,0,0-.21.21v.43a.21.21,0,0,0,.21.21.22.22,0,0,0,.22-.21Zm-.22,1.92a.21.21,0,0,0-.21.21v.43a.21.21,0,0,0,.21.22.22.22,0,0,0,.22-.22v-.43A.22.22,0,0,0,197.92,129.7Zm-1.92-4a.21.21,0,1,0-.42,0v.42a.21.21,0,1,0,.42,0Zm0,2.13a.21.21,0,1,0-.42,0v.43a.21.21,0,1,0,.42,0Zm-.21,1.92a.21.21,0,0,0-.21.21v.43a.21.21,0,1,0,.42,0v-.43A.21.21,0,0,0,195.79,129.7Zm-1.92-4a.22.22,0,1,0-.43,0v.42a.22.22,0,1,0,.43,0Zm0,2.13a.21.21,0,0,0-.22-.21.21.21,0,0,0-.21.21v.43a.22.22,0,0,0,.43,0Zm-.22,1.92a.22.22,0,0,0-.21.21v.43a.22.22,0,1,0,.43,0v-.43A.22.22,0,0,0,193.65,129.7Zm-1.92-4a.21.21,0,1,0-.42,0v.42a.21.21,0,1,0,.42,0Zm0,2.13a.21.21,0,1,0-.42,0v.43a.21.21,0,1,0,.42,0Zm-.21,1.92a.21.21,0,0,0-.21.21v.43a.21.21,0,1,0,.42,0v-.43A.21.21,0,0,0,191.52,129.7Zm-1.92-4a.22.22,0,1,0-.43,0v.42a.22.22,0,1,0,.43,0Zm0,2.13a.21.21,0,0,0-.21-.21.21.21,0,0,0-.22.21v.43a.22.22,0,0,0,.43,0Zm-.21,1.92a.22.22,0,0,0-.22.21v.43a.22.22,0,1,0,.43,0v-.43A.22.22,0,0,0,189.39,129.7Zm116.72,108a3.18,3.18,0,0,0-1-2.3.19.19,0,0,1-.05-.23,2.36,2.36,0,0,0-2.5-3.21.22.22,0,0,1-.22-.13,4.05,4.05,0,0,0-7.23-.43,3.2,3.2,0,0,1,1,1.55.2.2,0,0,1-.14.26.22.22,0,0,1-.27-.14,2.77,2.77,0,0,0-5.4,1.19.21.21,0,0,1-.21.24h0a3.2,3.2,0,1,0,0,6.4h1.06v1.5a.21.21,0,0,0,.22.21.21.21,0,0,0,.21-.21v-1.5h1.71v1.5a.21.21,0,0,0,.42,0v-1.5h1.71v1.5a.21.21,0,0,0,.21.21.21.21,0,0,0,.22-.21v-1.5h1.71v1.5a.21.21,0,1,0,.42,0v-1.5h1.71v1.5a.21.21,0,0,0,.21.21.21.21,0,0,0,.22-.21v-1.5h1.7v1.5a.21.21,0,0,0,.22.21.21.21,0,0,0,.21-.21v-1.5h.64A3.2,3.2,0,0,0,306.11,237.74Zm-4.05,6.19a.22.22,0,0,0-.22.22v.42a.22.22,0,0,0,.22.22.21.21,0,0,0,.21-.22v-.42A.21.21,0,0,0,302.06,243.93Zm0,2.14a.21.21,0,0,0-.22.21v.43a.22.22,0,0,0,.22.21.21.21,0,0,0,.21-.21v-.43A.21.21,0,0,0,302.06,246.07Zm0,2.13a.22.22,0,0,0-.22.21v.43a.22.22,0,0,0,.22.22.21.21,0,0,0,.21-.22v-.43A.21.21,0,0,0,302.06,248.2Zm-2.14-4.27a.21.21,0,0,0-.21.22v.42a.21.21,0,0,0,.21.22.22.22,0,0,0,.22-.22v-.42A.22.22,0,0,0,299.92,243.93Zm0,2.14a.21.21,0,0,0-.21.21v.43a.21.21,0,0,0,.21.21.22.22,0,0,0,.22-.21v-.43A.21.21,0,0,0,299.92,246.07Zm0,2.13a.21.21,0,0,0-.21.21v.43a.21.21,0,0,0,.21.22.22.22,0,0,0,.22-.22v-.43A.22.22,0,0,0,299.92,248.2Zm-2.13-4.27a.21.21,0,0,0-.21.22v.42a.21.21,0,1,0,.42,0v-.42A.21.21,0,0,0,297.79,243.93Zm0,2.14a.21.21,0,0,0-.21.21v.43a.21.21,0,1,0,.42,0v-.43A.21.21,0,0,0,297.79,246.07Zm0,2.13a.21.21,0,0,0-.21.21v.43a.21.21,0,1,0,.42,0v-.43A.21.21,0,0,0,297.79,248.2Zm-2.14-4.27a.22.22,0,0,0-.21.22v.42a.22.22,0,1,0,.43,0v-.42A.22.22,0,0,0,295.65,243.93Zm0,2.14a.21.21,0,0,0-.21.21v.43a.22.22,0,0,0,.43,0v-.43A.21.21,0,0,0,295.65,246.07Zm0,2.13a.22.22,0,0,0-.21.21v.43a.22.22,0,1,0,.43,0v-.43A.22.22,0,0,0,295.65,248.2Zm-2.13-4.27a.21.21,0,0,0-.21.22v.42a.21.21,0,1,0,.42,0v-.42A.21.21,0,0,0,293.52,243.93Zm0,2.14a.21.21,0,0,0-.21.21v.43a.21.21,0,0,0,.42,0v-.43A.21.21,0,0,0,293.52,246.07Zm0,2.13a.21.21,0,0,0-.21.21v.43a.21.21,0,1,0,.42,0v-.43A.21.21,0,0,0,293.52,248.2Zm-2.13-4.27a.22.22,0,0,0-.22.22v.42a.22.22,0,1,0,.43,0v-.42A.22.22,0,0,0,291.39,243.93Zm0,2.14a.21.21,0,0,0-.22.21v.43a.22.22,0,0,0,.43,0v-.43A.21.21,0,0,0,291.39,246.07Zm0,2.13a.22.22,0,0,0-.22.21v.43a.22.22,0,1,0,.43,0v-.43A.22.22,0,0,0,291.39,248.2Zm-17.53-71.76h1.06v1.5a.21.21,0,0,0,.22.21.21.21,0,0,0,.21-.21v-1.5h1.71v1.5a.21.21,0,0,0,.42,0v-1.5h1.71v1.5a.21.21,0,0,0,.21.21.21.21,0,0,0,.22-.21v-1.5h1.71v1.5a.21.21,0,1,0,.42,0v-1.5h1.71v1.5a.21.21,0,0,0,.21.21.21.21,0,0,0,.22-.21v-1.5h1.7v1.5a.21.21,0,0,0,.22.21.21.21,0,0,0,.21-.21v-1.5h.64a3.2,3.2,0,0,0,2.23-5.5.19.19,0,0,1-.05-.23,2.36,2.36,0,0,0-2.5-3.21.22.22,0,0,1-.22-.13,4.05,4.05,0,0,0-7.23-.43,3.2,3.2,0,0,1,1,1.55.2.2,0,0,1-.14.26.22.22,0,0,1-.27-.14,2.77,2.77,0,0,0-5.4,1.19.21.21,0,0,1-.21.24h0a3.2,3.2,0,1,0,0,6.4ZM286,179.65a.21.21,0,0,0-.21-.22.22.22,0,0,0-.22.22v.42a.22.22,0,0,0,.22.22.21.21,0,0,0,.21-.22Zm0,2.13a.21.21,0,0,0-.21-.21.21.21,0,0,0-.22.21v.43a.22.22,0,0,0,.22.21.21.21,0,0,0,.21-.21Zm-.21,1.92a.22.22,0,0,0-.22.21v.43a.22.22,0,0,0,.22.22.21.21,0,0,0,.21-.22v-.43A.21.21,0,0,0,285.81,183.7Zm-1.92-4a.22.22,0,0,0-.22-.22.21.21,0,0,0-.21.22v.42a.21.21,0,0,0,.21.22.22.22,0,0,0,.22-.22Zm0,2.13a.21.21,0,0,0-.22-.21.21.21,0,0,0-.21.21v.43a.21.21,0,0,0,.21.21.22.22,0,0,0,.22-.21Zm-.22,1.92a.21.21,0,0,0-.21.21v.43a.21.21,0,0,0,.21.22.22.22,0,0,0,.22-.22v-.43A.22.22,0,0,0,283.67,183.7Zm-1.92-4a.21.21,0,1,0-.42,0v.42a.21.21,0,1,0,.42,0Zm0,2.13a.21.21,0,1,0-.42,0v.43a.21.21,0,0,0,.42,0Zm-.21,1.92a.21.21,0,0,0-.21.21v.43a.21.21,0,1,0,.42,0v-.43A.21.21,0,0,0,281.54,183.7Zm-1.92-4a.22.22,0,1,0-.43,0v.42a.22.22,0,1,0,.43,0Zm0,2.13a.21.21,0,0,0-.22-.21.21.21,0,0,0-.21.21v.43a.22.22,0,0,0,.43,0Zm-.22,1.92a.22.22,0,0,0-.21.21v.43a.22.22,0,1,0,.43,0v-.43A.22.22,0,0,0,279.4,183.7Zm-1.92-4a.21.21,0,1,0-.42,0v.42a.21.21,0,1,0,.42,0Zm0,2.13a.21.21,0,0,0-.42,0v.43a.21.21,0,0,0,.42,0Zm-.21,1.92a.21.21,0,0,0-.21.21v.43a.21.21,0,1,0,.42,0v-.43A.21.21,0,0,0,277.27,183.7Zm-1.92-4a.22.22,0,1,0-.43,0v.42a.22.22,0,1,0,.43,0Zm0,2.13a.21.21,0,0,0-.21-.21.21.21,0,0,0-.22.21v.43a.22.22,0,0,0,.43,0Zm-.21,1.92a.22.22,0,0,0-.22.21v.43a.22.22,0,1,0,.43,0v-.43A.22.22,0,0,0,275.14,183.7Zm-52.49-43.76h1.06v1.5a.21.21,0,0,0,.22.21.21.21,0,0,0,.21-.21v-1.5h1.71v1.5a.21.21,0,0,0,.42,0v-1.5H228v1.5a.21.21,0,0,0,.22.21.21.21,0,0,0,.21-.21v-1.5h1.71v1.5a.21.21,0,0,0,.42,0v-1.5h1.71v1.5a.21.21,0,0,0,.21.21.21.21,0,0,0,.22-.21v-1.5h1.7v1.5a.21.21,0,0,0,.22.21.21.21,0,0,0,.21-.21v-1.5h.64a3.2,3.2,0,0,0,2.23-5.5.22.22,0,0,1-.05-.23,2.35,2.35,0,0,0-2.49-3.21.22.22,0,0,1-.23-.13,4.05,4.05,0,0,0-7.23-.43,3.2,3.2,0,0,1,1,1.55.2.2,0,0,1-.14.26.22.22,0,0,1-.27-.14,2.77,2.77,0,0,0-5.4,1.19.21.21,0,0,1-.21.24h0a3.2,3.2,0,1,0,0,6.4Zm12.16,3.21a.21.21,0,1,0-.42,0v.42a.21.21,0,1,0,.42,0Zm0,2.13a.21.21,0,0,0-.42,0v.43a.21.21,0,1,0,.42,0Zm-.21,1.92a.21.21,0,0,0-.21.21v.43a.21.21,0,1,0,.42,0v-.43A.21.21,0,0,0,234.6,147.2Zm-1.92-4a.22.22,0,1,0-.43,0v.42a.22.22,0,1,0,.43,0Zm0,2.13a.21.21,0,0,0-.22-.21.21.21,0,0,0-.21.21v.43a.22.22,0,0,0,.43,0Zm-.22,1.92a.22.22,0,0,0-.21.21v.43a.22.22,0,1,0,.43,0v-.43A.22.22,0,0,0,232.46,147.2Zm-1.92-4a.21.21,0,1,0-.42,0v.42a.21.21,0,1,0,.42,0Zm0,2.13a.21.21,0,1,0-.42,0v.43a.21.21,0,1,0,.42,0Zm-.21,1.92a.21.21,0,0,0-.21.21v.43a.21.21,0,1,0,.42,0v-.43A.21.21,0,0,0,230.33,147.2Zm-1.92-4a.22.22,0,1,0-.43,0v.42a.22.22,0,1,0,.43,0Zm0,2.13a.21.21,0,0,0-.21-.21.21.21,0,0,0-.22.21v.43a.22.22,0,0,0,.43,0Zm-.21,1.92a.22.22,0,0,0-.22.21v.43a.22.22,0,1,0,.43,0v-.43A.22.22,0,0,0,228.2,147.2Zm-1.93-4a.21.21,0,1,0-.42,0v.42a.21.21,0,1,0,.42,0Zm0,2.13a.21.21,0,0,0-.42,0v.43a.21.21,0,1,0,.42,0Zm-.21,1.92a.21.21,0,0,0-.21.21v.43a.21.21,0,1,0,.42,0v-.43A.21.21,0,0,0,226.06,147.2Zm-1.92-4a.22.22,0,1,0-.43,0v.42a.22.22,0,1,0,.43,0Zm0,2.13a.21.21,0,0,0-.21-.21.21.21,0,0,0-.22.21v.43a.22.22,0,0,0,.43,0Zm-.21,1.92a.22.22,0,0,0-.22.21v.43a.22.22,0,1,0,.43,0v-.43A.22.22,0,0,0,223.93,147.2Zm-70.07-27a3.18,3.18,0,0,0-1-2.3.19.19,0,0,1,0-.23,2.36,2.36,0,0,0-2.5-3.21.22.22,0,0,1-.22-.13,4.05,4.05,0,0,0-7.23-.43,3.2,3.2,0,0,1,1,1.55.2.2,0,0,1-.14.26.22.22,0,0,1-.27-.14,2.77,2.77,0,0,0-5.4,1.19.21.21,0,0,1-.21.24h0a3.2,3.2,0,1,0,0,6.4h1.06v1.5a.21.21,0,0,0,.22.21.21.21,0,0,0,.21-.21v-1.5h1.71v1.5a.21.21,0,1,0,.42,0v-1.5h1.71v1.5a.21.21,0,0,0,.21.21.21.21,0,0,0,.22-.21v-1.5h1.71v1.5a.21.21,0,0,0,.42,0v-1.5h1.71v1.5a.21.21,0,0,0,.21.21.21.21,0,0,0,.22-.21v-1.5h1.7v1.5a.21.21,0,0,0,.22.21.21.21,0,0,0,.21-.21v-1.5h.64A3.2,3.2,0,0,0,153.86,120.24Zm-4.05,6.19a.22.22,0,0,0-.22.22v.42a.22.22,0,0,0,.22.22.21.21,0,0,0,.21-.22v-.42A.21.21,0,0,0,149.81,126.43Zm0,2.14a.21.21,0,0,0-.22.21v.43a.22.22,0,0,0,.22.21.21.21,0,0,0,.21-.21v-.43A.21.21,0,0,0,149.81,128.57Zm0,2.13a.22.22,0,0,0-.22.21v.43a.22.22,0,0,0,.22.22.21.21,0,0,0,.21-.22v-.43A.21.21,0,0,0,149.81,130.7Zm-2.14-4.27a.21.21,0,0,0-.21.22v.42a.21.21,0,0,0,.21.22.22.22,0,0,0,.22-.22v-.42A.22.22,0,0,0,147.67,126.43Zm0,2.14a.21.21,0,0,0-.21.21v.43a.21.21,0,0,0,.21.21.22.22,0,0,0,.22-.21v-.43A.21.21,0,0,0,147.67,128.57Zm0,2.13a.21.21,0,0,0-.21.21v.43a.21.21,0,0,0,.21.22.22.22,0,0,0,.22-.22v-.43A.22.22,0,0,0,147.67,130.7Zm-2.13-4.27a.21.21,0,0,0-.21.22v.42a.21.21,0,1,0,.42,0v-.42A.21.21,0,0,0,145.54,126.43Zm0,2.14a.21.21,0,0,0-.21.21v.43a.21.21,0,0,0,.42,0v-.43A.21.21,0,0,0,145.54,128.57Zm0,2.13a.21.21,0,0,0-.21.21v.43a.21.21,0,1,0,.42,0v-.43A.21.21,0,0,0,145.54,130.7Zm-2.14-4.27a.22.22,0,0,0-.21.22v.42a.22.22,0,1,0,.43,0v-.42A.22.22,0,0,0,143.4,126.43Zm0,2.14a.21.21,0,0,0-.21.21v.43a.22.22,0,0,0,.43,0v-.43A.21.21,0,0,0,143.4,128.57Zm0,2.13a.22.22,0,0,0-.21.21v.43a.22.22,0,1,0,.43,0v-.43A.22.22,0,0,0,143.4,130.7Zm-2.13-4.27a.21.21,0,0,0-.21.22v.42a.21.21,0,1,0,.42,0v-.42A.21.21,0,0,0,141.27,126.43Zm0,2.14a.21.21,0,0,0-.21.21v.43a.21.21,0,1,0,.42,0v-.43A.21.21,0,0,0,141.27,128.57Zm0,2.13a.21.21,0,0,0-.21.21v.43a.21.21,0,1,0,.42,0v-.43A.21.21,0,0,0,141.27,130.7Zm-2.13-4.27a.22.22,0,0,0-.22.22v.42a.22.22,0,1,0,.43,0v-.42A.22.22,0,0,0,139.14,126.43Zm0,2.14a.21.21,0,0,0-.22.21v.43a.22.22,0,0,0,.43,0v-.43A.21.21,0,0,0,139.14,128.57Zm0,2.13a.22.22,0,0,0-.22.21v.43a.22.22,0,1,0,.43,0v-.43A.22.22,0,0,0,139.14,130.7Zm-37.8-98a2.36,2.36,0,0,0-2.5-3.21.22.22,0,0,1-.22-.13,4.05,4.05,0,0,0-7.23-.43,3.2,3.2,0,0,1,1,1.55.2.2,0,0,1-.14.26.22.22,0,0,1-.27-.14,2.77,2.77,0,0,0-5.4,1.19.21.21,0,0,1-.21.24h0a3.2,3.2,0,1,0,0,6.4h1.06v1.5a.21.21,0,0,0,.22.21.21.21,0,0,0,.21-.21v-1.5h1.71v1.5a.21.21,0,0,0,.42,0v-1.5h1.71v1.5a.21.21,0,0,0,.21.21.21.21,0,0,0,.22-.21v-1.5h1.71v1.5a.21.21,0,1,0,.42,0v-1.5H96v1.5a.21.21,0,0,0,.21.21.21.21,0,0,0,.22-.21v-1.5h1.7v1.5a.21.21,0,0,0,.22.21.21.21,0,0,0,.21-.21v-1.5h.64a3.2,3.2,0,0,0,2.23-5.5A.19.19,0,0,1,101.34,32.71Zm-3,8.72a.22.22,0,0,0-.22.22v.42a.22.22,0,0,0,.22.22.21.21,0,0,0,.21-.22v-.42A.21.21,0,0,0,98.31,41.43Zm0,2.14a.21.21,0,0,0-.22.21v.43a.22.22,0,0,0,.22.21.21.21,0,0,0,.21-.21v-.43A.21.21,0,0,0,98.31,43.57Zm0,2.13a.22.22,0,0,0-.22.21v.43a.22.22,0,0,0,.22.22.21.21,0,0,0,.21-.22v-.43A.21.21,0,0,0,98.31,45.7Zm-2.14-4.27a.21.21,0,0,0-.21.22v.42a.21.21,0,0,0,.21.22.22.22,0,0,0,.22-.22v-.42A.22.22,0,0,0,96.17,41.43Zm0,2.14a.21.21,0,0,0-.21.21v.43a.21.21,0,0,0,.21.21.22.22,0,0,0,.22-.21v-.43A.21.21,0,0,0,96.17,43.57Zm0,2.13a.21.21,0,0,0-.21.21v.43a.21.21,0,0,0,.21.22.22.22,0,0,0,.22-.22v-.43A.22.22,0,0,0,96.17,45.7ZM94,41.43a.21.21,0,0,0-.21.22v.42a.21.21,0,1,0,.42,0v-.42A.21.21,0,0,0,94,41.43Zm0,2.14a.21.21,0,0,0-.21.21v.43a.21.21,0,1,0,.42,0v-.43A.21.21,0,0,0,94,43.57Zm0,2.13a.21.21,0,0,0-.21.21v.43a.21.21,0,1,0,.42,0v-.43A.21.21,0,0,0,94,45.7ZM91.9,41.43a.22.22,0,0,0-.21.22v.42a.22.22,0,1,0,.43,0v-.42A.22.22,0,0,0,91.9,41.43Zm0,2.14a.21.21,0,0,0-.21.21v.43a.22.22,0,0,0,.43,0v-.43A.21.21,0,0,0,91.9,43.57Zm0,2.13a.22.22,0,0,0-.21.21v.43a.22.22,0,1,0,.43,0v-.43A.22.22,0,0,0,91.9,45.7Zm-2.13-4.27a.21.21,0,0,0-.21.22v.42a.21.21,0,1,0,.42,0v-.42A.21.21,0,0,0,89.77,41.43Zm0,2.14a.21.21,0,0,0-.21.21v.43a.21.21,0,0,0,.42,0v-.43A.21.21,0,0,0,89.77,43.57Zm0,2.13a.21.21,0,0,0-.21.21v.43a.21.21,0,1,0,.42,0v-.43A.21.21,0,0,0,89.77,45.7Zm-2.13-4.27a.22.22,0,0,0-.22.22v.42a.22.22,0,1,0,.43,0v-.42A.22.22,0,0,0,87.64,41.43Zm0,2.14a.21.21,0,0,0-.22.21v.43a.22.22,0,0,0,.43,0v-.43A.21.21,0,0,0,87.64,43.57Zm0,2.13a.22.22,0,0,0-.22.21v.43a.22.22,0,1,0,.43,0v-.43A.22.22,0,0,0,87.64,45.7Zm234.7,207a2.36,2.36,0,0,0-2.5-3.21.22.22,0,0,1-.22-.13,4.05,4.05,0,0,0-7.23-.43,3.2,3.2,0,0,1,1,1.55.2.2,0,0,1-.14.26.22.22,0,0,1-.27-.14,2.77,2.77,0,0,0-5.4,1.19.21.21,0,0,1-.21.24h0a3.2,3.2,0,1,0,0,6.4h1.06v1.5a.21.21,0,0,0,.22.21.21.21,0,0,0,.21-.21v-1.5h1.71v1.5a.21.21,0,0,0,.42,0v-1.5h1.71v1.5a.21.21,0,0,0,.21.21.21.21,0,0,0,.22-.21v-1.5h1.71v1.5a.21.21,0,1,0,.42,0v-1.5H317v1.5a.21.21,0,0,0,.21.21.21.21,0,0,0,.22-.21v-1.5h1.7v1.5a.21.21,0,0,0,.22.21.21.21,0,0,0,.21-.21v-1.5h.64a3.2,3.2,0,0,0,2.23-5.5A.19.19,0,0,1,322.34,252.71Zm-3,8.72a.22.22,0,0,0-.22.22v.42a.22.22,0,0,0,.22.22.21.21,0,0,0,.21-.22v-.42A.21.21,0,0,0,319.31,261.43Zm0,2.14a.21.21,0,0,0-.22.21v.43a.22.22,0,0,0,.22.21.21.21,0,0,0,.21-.21v-.43A.21.21,0,0,0,319.31,263.57Zm0,2.13a.22.22,0,0,0-.22.21v.43a.22.22,0,0,0,.22.22.21.21,0,0,0,.21-.22v-.43A.21.21,0,0,0,319.31,265.7Zm-2.14-4.27a.21.21,0,0,0-.21.22v.42a.21.21,0,0,0,.21.22.22.22,0,0,0,.22-.22v-.42A.22.22,0,0,0,317.17,261.43Zm0,2.14a.21.21,0,0,0-.21.21v.43a.21.21,0,0,0,.21.21.22.22,0,0,0,.22-.21v-.43A.21.21,0,0,0,317.17,263.57Zm0,2.13a.21.21,0,0,0-.21.21v.43a.21.21,0,0,0,.21.22.22.22,0,0,0,.22-.22v-.43A.22.22,0,0,0,317.17,265.7ZM315,261.43a.21.21,0,0,0-.21.22v.42a.21.21,0,1,0,.42,0v-.42A.21.21,0,0,0,315,261.43Zm0,2.14a.21.21,0,0,0-.21.21v.43a.21.21,0,1,0,.42,0v-.43A.21.21,0,0,0,315,263.57Zm0,2.13a.21.21,0,0,0-.21.21v.43a.21.21,0,1,0,.42,0v-.43A.21.21,0,0,0,315,265.7Zm-2.14-4.27a.22.22,0,0,0-.21.22v.42a.22.22,0,1,0,.43,0v-.42A.22.22,0,0,0,312.9,261.43Zm0,2.14a.21.21,0,0,0-.21.21v.43a.22.22,0,0,0,.43,0v-.43A.21.21,0,0,0,312.9,263.57Zm0,2.13a.22.22,0,0,0-.21.21v.43a.22.22,0,1,0,.43,0v-.43A.22.22,0,0,0,312.9,265.7Zm-2.13-4.27a.21.21,0,0,0-.21.22v.42a.21.21,0,1,0,.42,0v-.42A.21.21,0,0,0,310.77,261.43Zm0,2.14a.21.21,0,0,0-.21.21v.43a.21.21,0,0,0,.42,0v-.43A.21.21,0,0,0,310.77,263.57Zm0,2.13a.21.21,0,0,0-.21.21v.43a.21.21,0,1,0,.42,0v-.43A.21.21,0,0,0,310.77,265.7Zm-2.13-4.27a.22.22,0,0,0-.22.22v.42a.22.22,0,1,0,.43,0v-.42A.22.22,0,0,0,308.64,261.43Zm0,2.14a.21.21,0,0,0-.22.21v.43a.22.22,0,0,0,.43,0v-.43A.21.21,0,0,0,308.64,263.57Zm0,2.13a.22.22,0,0,0-.22.21v.43a.22.22,0,1,0,.43,0v-.43A.22.22,0,0,0,308.64,265.7Zm-36.8,5.51a2.36,2.36,0,0,0-2.5-3.21.22.22,0,0,1-.22-.13,4.05,4.05,0,0,0-7.23-.43,3.2,3.2,0,0,1,1,1.55.2.2,0,0,1-.14.26.22.22,0,0,1-.27-.14,2.77,2.77,0,0,0-5.4,1.19.21.21,0,0,1-.21.24h0a3.2,3.2,0,1,0,0,6.4h1.06v1.5a.21.21,0,0,0,.22.21.21.21,0,0,0,.21-.21v-1.5h1.71v1.5a.21.21,0,0,0,.42,0v-1.5h1.71v1.5a.21.21,0,0,0,.21.21.21.21,0,0,0,.22-.21v-1.5h1.71v1.5a.21.21,0,1,0,.42,0v-1.5h1.71v1.5a.21.21,0,0,0,.21.21.21.21,0,0,0,.22-.21v-1.5h1.7v1.5a.21.21,0,0,0,.22.21.21.21,0,0,0,.21-.21v-1.5h.64a3.2,3.2,0,0,0,2.23-5.5A.19.19,0,0,1,271.84,271.21Zm-3,8.72a.22.22,0,0,0-.22.22v.42a.22.22,0,0,0,.22.22.21.21,0,0,0,.21-.22v-.42A.21.21,0,0,0,268.81,279.93Zm0,2.14a.21.21,0,0,0-.22.21v.43a.22.22,0,0,0,.22.21.21.21,0,0,0,.21-.21v-.43A.21.21,0,0,0,268.81,282.07Zm0,2.13a.22.22,0,0,0-.22.21v.43a.22.22,0,0,0,.22.22.21.21,0,0,0,.21-.22v-.43A.21.21,0,0,0,268.81,284.2Zm-2.14-4.27a.21.21,0,0,0-.21.22v.42a.21.21,0,0,0,.21.22.22.22,0,0,0,.22-.22v-.42A.22.22,0,0,0,266.67,279.93Zm0,2.14a.21.21,0,0,0-.21.21v.43a.21.21,0,0,0,.21.21.22.22,0,0,0,.22-.21v-.43A.21.21,0,0,0,266.67,282.07Zm0,2.13a.21.21,0,0,0-.21.21v.43a.21.21,0,0,0,.21.22.22.22,0,0,0,.22-.22v-.43A.22.22,0,0,0,266.67,284.2Zm-2.13-4.27a.21.21,0,0,0-.21.22v.42a.21.21,0,1,0,.42,0v-.42A.21.21,0,0,0,264.54,279.93Zm0,2.14a.21.21,0,0,0-.21.21v.43a.21.21,0,1,0,.42,0v-.43A.21.21,0,0,0,264.54,282.07Zm0,2.13a.21.21,0,0,0-.21.21v.43a.21.21,0,1,0,.42,0v-.43A.21.21,0,0,0,264.54,284.2Zm-2.14-4.27a.22.22,0,0,0-.21.22v.42a.22.22,0,1,0,.43,0v-.42A.22.22,0,0,0,262.4,279.93Zm0,2.14a.21.21,0,0,0-.21.21v.43a.22.22,0,0,0,.43,0v-.43A.21.21,0,0,0,262.4,282.07Zm0,2.13a.22.22,0,0,0-.21.21v.43a.22.22,0,1,0,.43,0v-.43A.22.22,0,0,0,262.4,284.2Zm-2.13-4.27a.21.21,0,0,0-.21.22v.42a.21.21,0,1,0,.42,0v-.42A.21.21,0,0,0,260.27,279.93Zm0,2.14a.21.21,0,0,0-.21.21v.43a.21.21,0,0,0,.42,0v-.43A.21.21,0,0,0,260.27,282.07Zm0,2.13a.21.21,0,0,0-.21.21v.43a.21.21,0,1,0,.42,0v-.43A.21.21,0,0,0,260.27,284.2Zm-2.13-4.27a.22.22,0,0,0-.22.22v.42a.22.22,0,1,0,.43,0v-.42A.22.22,0,0,0,258.14,279.93Zm0,2.14a.21.21,0,0,0-.22.21v.43a.22.22,0,0,0,.43,0v-.43A.21.21,0,0,0,258.14,282.07Zm0,2.13a.22.22,0,0,0-.22.21v.43a.22.22,0,1,0,.43,0v-.43A.22.22,0,0,0,258.14,284.2Zm-37.55-62a2.36,2.36,0,0,0-2.5-3.21.22.22,0,0,1-.22-.13,4.05,4.05,0,0,0-7.23-.43,3.2,3.2,0,0,1,1,1.55.2.2,0,0,1-.14.26.22.22,0,0,1-.27-.14,2.77,2.77,0,0,0-5.4,1.19.21.21,0,0,1-.21.24h0a3.2,3.2,0,1,0,0,6.4h1.06v1.5a.21.21,0,0,0,.22.21.21.21,0,0,0,.21-.21v-1.5h1.71v1.5a.21.21,0,1,0,.42,0v-1.5h1.71v1.5a.21.21,0,0,0,.21.21.21.21,0,0,0,.22-.21v-1.5h1.71v1.5a.21.21,0,0,0,.42,0v-1.5h1.71v1.5a.21.21,0,0,0,.21.21.21.21,0,0,0,.22-.21v-1.5h1.7v1.5a.21.21,0,0,0,.22.21.21.21,0,0,0,.21-.21v-1.5h.64a3.2,3.2,0,0,0,2.23-5.5A.19.19,0,0,1,220.59,222.21Zm-3,8.72a.22.22,0,0,0-.22.22v.42a.22.22,0,0,0,.22.22.21.21,0,0,0,.21-.22v-.42A.21.21,0,0,0,217.56,230.93Zm0,2.14a.21.21,0,0,0-.22.21v.43a.22.22,0,0,0,.22.21.21.21,0,0,0,.21-.21v-.43A.21.21,0,0,0,217.56,233.07Zm0,2.13a.22.22,0,0,0-.22.21v.43a.22.22,0,0,0,.22.22.21.21,0,0,0,.21-.22v-.43A.21.21,0,0,0,217.56,235.2Zm-2.14-4.27a.21.21,0,0,0-.21.22v.42a.21.21,0,0,0,.21.22.22.22,0,0,0,.22-.22v-.42A.22.22,0,0,0,215.42,230.93Zm0,2.14a.21.21,0,0,0-.21.21v.43a.21.21,0,0,0,.21.21.22.22,0,0,0,.22-.21v-.43A.21.21,0,0,0,215.42,233.07Zm0,2.13a.21.21,0,0,0-.21.21v.43a.21.21,0,0,0,.21.22.22.22,0,0,0,.22-.22v-.43A.22.22,0,0,0,215.42,235.2Zm-2.13-4.27a.21.21,0,0,0-.21.22v.42a.21.21,0,1,0,.42,0v-.42A.21.21,0,0,0,213.29,230.93Zm0,2.14a.21.21,0,0,0-.21.21v.43a.21.21,0,0,0,.42,0v-.43A.21.21,0,0,0,213.29,233.07Zm0,2.13a.21.21,0,0,0-.21.21v.43a.21.21,0,1,0,.42,0v-.43A.21.21,0,0,0,213.29,235.2Zm-2.14-4.27a.22.22,0,0,0-.21.22v.42a.22.22,0,1,0,.43,0v-.42A.22.22,0,0,0,211.15,230.93Zm0,2.14a.21.21,0,0,0-.21.21v.43a.22.22,0,0,0,.43,0v-.43A.21.21,0,0,0,211.15,233.07Zm0,2.13a.22.22,0,0,0-.21.21v.43a.22.22,0,1,0,.43,0v-.43A.22.22,0,0,0,211.15,235.2ZM209,230.93a.21.21,0,0,0-.21.22v.42a.21.21,0,1,0,.42,0v-.42A.21.21,0,0,0,209,230.93Zm0,2.14a.21.21,0,0,0-.21.21v.43a.21.21,0,1,0,.42,0v-.43A.21.21,0,0,0,209,233.07Zm0,2.13a.21.21,0,0,0-.21.21v.43a.21.21,0,1,0,.42,0v-.43A.21.21,0,0,0,209,235.2Zm-2.13-4.27a.22.22,0,0,0-.22.22v.42a.22.22,0,1,0,.43,0v-.42A.22.22,0,0,0,206.89,230.93Zm0,2.14a.21.21,0,0,0-.22.21v.43a.22.22,0,0,0,.43,0v-.43A.21.21,0,0,0,206.89,233.07Zm0,2.13a.22.22,0,0,0-.22.21v.43a.22.22,0,1,0,.43,0v-.43A.22.22,0,0,0,206.89,235.2Zm132.45-32.49a2.36,2.36,0,0,0-2.5-3.21.22.22,0,0,1-.22-.13,4.05,4.05,0,0,0-7.23-.43,3.2,3.2,0,0,1,1,1.55.2.2,0,0,1-.14.26.22.22,0,0,1-.27-.14,2.77,2.77,0,0,0-5.4,1.19.21.21,0,0,1-.21.24h0a3.2,3.2,0,1,0,0,6.4h1.06v1.5a.21.21,0,0,0,.22.21.21.21,0,0,0,.21-.21v-1.5h1.71v1.5a.21.21,0,0,0,.42,0v-1.5h1.71v1.5a.21.21,0,0,0,.21.21.21.21,0,0,0,.22-.21v-1.5h1.71v1.5a.21.21,0,1,0,.42,0v-1.5H334v1.5a.21.21,0,0,0,.21.21.21.21,0,0,0,.22-.21v-1.5h1.7v1.5a.21.21,0,0,0,.22.21.21.21,0,0,0,.21-.21v-1.5h.64a3.2,3.2,0,0,0,2.23-5.5A.19.19,0,0,1,339.34,202.71Zm-3,8.72a.22.22,0,0,0-.22.22v.42a.22.22,0,0,0,.22.22.21.21,0,0,0,.21-.22v-.42A.21.21,0,0,0,336.31,211.43Zm0,2.14a.21.21,0,0,0-.22.21v.43a.22.22,0,0,0,.22.21.21.21,0,0,0,.21-.21v-.43A.21.21,0,0,0,336.31,213.57Zm0,2.13a.22.22,0,0,0-.22.21v.43a.22.22,0,0,0,.22.22.21.21,0,0,0,.21-.22v-.43A.21.21,0,0,0,336.31,215.7Zm-2.14-4.27a.21.21,0,0,0-.21.22v.42a.21.21,0,0,0,.21.22.22.22,0,0,0,.22-.22v-.42A.22.22,0,0,0,334.17,211.43Zm0,2.14a.21.21,0,0,0-.21.21v.43a.21.21,0,0,0,.21.21.22.22,0,0,0,.22-.21v-.43A.21.21,0,0,0,334.17,213.57Zm0,2.13a.21.21,0,0,0-.21.21v.43a.21.21,0,0,0,.21.22.22.22,0,0,0,.22-.22v-.43A.22.22,0,0,0,334.17,215.7ZM332,211.43a.21.21,0,0,0-.21.22v.42a.21.21,0,1,0,.42,0v-.42A.21.21,0,0,0,332,211.43Zm0,2.14a.21.21,0,0,0-.21.21v.43a.21.21,0,1,0,.42,0v-.43A.21.21,0,0,0,332,213.57Zm0,2.13a.21.21,0,0,0-.21.21v.43a.21.21,0,1,0,.42,0v-.43A.21.21,0,0,0,332,215.7Zm-2.14-4.27a.22.22,0,0,0-.21.22v.42a.22.22,0,1,0,.43,0v-.42A.22.22,0,0,0,329.9,211.43Zm0,2.14a.21.21,0,0,0-.21.21v.43a.22.22,0,0,0,.43,0v-.43A.21.21,0,0,0,329.9,213.57Zm0,2.13a.22.22,0,0,0-.21.21v.43a.22.22,0,1,0,.43,0v-.43A.22.22,0,0,0,329.9,215.7Zm-2.13-4.27a.21.21,0,0,0-.21.22v.42a.21.21,0,1,0,.42,0v-.42A.21.21,0,0,0,327.77,211.43Zm0,2.14a.21.21,0,0,0-.21.21v.43a.21.21,0,0,0,.42,0v-.43A.21.21,0,0,0,327.77,213.57Zm0,2.13a.21.21,0,0,0-.21.21v.43a.21.21,0,1,0,.42,0v-.43A.21.21,0,0,0,327.77,215.7Zm-2.13-4.27a.22.22,0,0,0-.22.22v.42a.22.22,0,1,0,.43,0v-.42A.22.22,0,0,0,325.64,211.43Zm0,2.14a.21.21,0,0,0-.22.21v.43a.22.22,0,0,0,.43,0v-.43A.21.21,0,0,0,325.64,213.57Zm0,2.13a.22.22,0,0,0-.22.21v.43a.22.22,0,1,0,.43,0v-.43A.22.22,0,0,0,325.64,215.7ZM237,206a4.31,4.31,0,0,0-8.25-1.36,3.91,3.91,0,0,0-1-.13,3.7,3.7,0,0,0,0,7.39h8A3.08,3.08,0,0,0,237,206Zm-9.4,8.18a.62.62,0,0,0-.87-.87l-1.85,1.85a.62.62,0,0,0,.44,1.05.6.6,0,0,0,.43-.18Zm6.51-.87-1.84,1.84a.63.63,0,0,0,0,.88.61.61,0,0,0,.43.18.59.59,0,0,0,.44-.19l1.84-1.84a.62.62,0,0,0-.87-.87Zm-2.82,0a.62.62,0,0,0-.87,0l-4.92,4.92a.62.62,0,0,0,.87.87l4.92-4.92A.62.62,0,0,0,231.28,213.34Zm-7.64-.62-.61.62a.62.62,0,0,0,0,.87.6.6,0,0,0,.43.18.62.62,0,0,0,.44-.18l.61-.62a.62.62,0,0,0-.87-.87Zm7.21,4.13a.62.62,0,0,0-.62.62.61.61,0,0,0,.62.61.61.61,0,0,0,.61-.61A.61.61,0,0,0,230.85,216.85Zm-8-8.62a4.93,4.93,0,0,1,4.92-4.92h.31a5.5,5.5,0,0,1,2.94-2.21,4.3,4.3,0,0,0-7.2,1.1,3.54,3.54,0,0,0-1-.13,3.7,3.7,0,1,0,0,7.39H223A5.08,5.08,0,0,1,222.85,208.23Zm-18.25.62a3.07,3.07,0,0,0-1.86-2.82,4.31,4.31,0,0,0-8.25-1.36,3.91,3.91,0,0,0-1-.13,3.7,3.7,0,0,0,0,7.39h8A3.08,3.08,0,0,0,204.6,208.85Zm-11.26,5.36a.62.62,0,0,0-.87-.87l-1.85,1.85a.62.62,0,0,0,.44,1.05.6.6,0,0,0,.43-.18Zm6.51-.87L198,215.18a.63.63,0,0,0,0,.88.61.61,0,0,0,.43.18.59.59,0,0,0,.44-.19l1.84-1.84a.62.62,0,0,0-.87-.87Zm-2.82,0a.62.62,0,0,0-.87,0l-4.92,4.92a.62.62,0,0,0,.87.87l4.92-4.92A.62.62,0,0,0,197,213.34Zm-7.64-.62-.61.62a.62.62,0,0,0,0,.87.6.6,0,0,0,.43.18.62.62,0,0,0,.44-.18l.61-.62a.62.62,0,0,0-.87-.87Zm7.21,4.13a.62.62,0,0,0-.62.62.61.61,0,0,0,.62.61.61.61,0,0,0,.61-.61A.61.61,0,0,0,196.6,216.85Zm-8-8.62a4.93,4.93,0,0,1,4.92-4.92h.31a5.5,5.5,0,0,1,2.94-2.21,4.3,4.3,0,0,0-7.2,1.1,3.54,3.54,0,0,0-1-.13,3.7,3.7,0,1,0,0,7.39h.16A5.08,5.08,0,0,1,188.6,208.23Zm134.89,23.6a4.31,4.31,0,0,0-8.25-1.36,3.91,3.91,0,0,0-1-.13,3.7,3.7,0,0,0,0,7.39h8a3.08,3.08,0,0,0,1.22-5.9Zm-10.27,7.31L311.37,241a.62.62,0,0,0,.44,1,.6.6,0,0,0,.43-.18l1.85-1.85a.62.62,0,0,0-.87-.87Zm6,2.9a.59.59,0,0,0,.44-.19l1.84-1.84a.62.62,0,0,0-.87-.87L318.76,241a.63.63,0,0,0,0,.88A.61.61,0,0,0,319.19,242Zm-2.28-2.9L312,244.06a.62.62,0,0,0,.87.87l4.92-4.92a.62.62,0,1,0-.87-.87Zm-6.77-.62-.61.62a.62.62,0,0,0,0,.87.6.6,0,0,0,.43.18.62.62,0,0,0,.44-.18l.61-.62a.62.62,0,1,0-.87-.87Zm6.59,4.75a.61.61,0,0,0,.62.61.61.61,0,0,0,.61-.61.61.61,0,0,0-.61-.62A.62.62,0,0,0,316.73,243.27Zm-2.46-14.16h.31a5.5,5.5,0,0,1,2.94-2.21,4.3,4.3,0,0,0-7.2,1.1,3.54,3.54,0,0,0-1-.13,3.7,3.7,0,1,0,0,7.39h.16a5.08,5.08,0,0,1-.16-1.24A4.93,4.93,0,0,1,314.27,229.11ZM169,136.58a4.31,4.31,0,0,0-8.25-1.36,3.91,3.91,0,0,0-1-.13,3.7,3.7,0,0,0,0,7.39h8a3.08,3.08,0,0,0,1.22-5.9Zm-9.4,8.18a.62.62,0,0,0-.87-.87l-1.85,1.85a.62.62,0,0,0,.44,1,.6.6,0,0,0,.43-.18Zm6.51-.87-1.84,1.84a.63.63,0,0,0,0,.88.61.61,0,0,0,.43.18.59.59,0,0,0,.44-.19l1.84-1.84a.62.62,0,0,0-.87-.87Zm-2.82,0a.62.62,0,0,0-.87,0l-4.92,4.92a.62.62,0,0,0,.87.87l4.92-4.92A.62.62,0,0,0,163.28,143.89Zm-7.64-.62-.61.62a.62.62,0,0,0,0,.87.6.6,0,0,0,.43.18.62.62,0,0,0,.44-.18l.61-.62a.62.62,0,1,0-.87-.87Zm7.21,4.13a.62.62,0,0,0-.62.62.61.61,0,0,0,.62.61.61.61,0,0,0,.61-.61A.61.61,0,0,0,162.85,147.4Zm-8-8.62a4.93,4.93,0,0,1,4.92-4.92h.31a5.5,5.5,0,0,1,2.94-2.21,4.3,4.3,0,0,0-7.2,1.1,3.54,3.54,0,0,0-1-.13,3.7,3.7,0,1,0,0,7.39H155A5.08,5.08,0,0,1,154.85,138.78Zm158.79-3a3.49,3.49,0,0,0-1-.13,3.69,3.69,0,0,0,0,7.38h8a3.08,3.08,0,0,0,1.22-5.9,4.31,4.31,0,0,0-8.25-1.35Zm-2,8.66-1.85,1.85a.62.62,0,0,0,.44,1.05.6.6,0,0,0,.43-.18l1.85-1.85a.62.62,0,0,0-.87-.87Zm6.41,2.72,1.84-1.85a.62.62,0,0,0-.87-.87l-1.84,1.85a.62.62,0,0,0,.87.87Zm-2.72-2.72-4.92,4.93a.62.62,0,0,0,.87.87l4.92-4.93a.62.62,0,0,0-.87-.87Zm-6.77-.61-.61.61a.62.62,0,0,0,0,.87.6.6,0,0,0,.43.18.62.62,0,0,0,.44-.18l.61-.61a.62.62,0,0,0-.87-.87Zm6.59,4.74a.61.61,0,0,0,.62.61.61.61,0,0,0,.61-.61.61.61,0,0,0-.61-.62A.62.62,0,0,0,315.13,148.6Zm-7.38-8h.16a5,5,0,0,1-.16-1.23,4.92,4.92,0,0,1,4.92-4.92H313a5.52,5.52,0,0,1,2.94-2.22,4.3,4.3,0,0,0-7.2,1.11,3.55,3.55,0,0,0-1-.14,3.7,3.7,0,1,0,0,7.39Zm-18.1,68.25a3.05,3.05,0,0,0-1.86-2.82,4.31,4.31,0,0,0-8.24-1.36,4,4,0,0,0-1-.13,3.7,3.7,0,1,0,0,7.39h8A3.08,3.08,0,0,0,289.65,208.85Zm-11.25,5.36a.62.62,0,0,0-.87-.87l-1.85,1.85a.62.62,0,0,0,.87.87Zm6.51-.87-1.85,1.84a.63.63,0,0,0,0,.88.62.62,0,0,0,.44.18.57.57,0,0,0,.43-.19l1.85-1.84a.62.62,0,1,0-.87-.87Zm-2.82,0a.62.62,0,0,0-.87,0l-4.92,4.92a.62.62,0,0,0,.43,1.05.62.62,0,0,0,.44-.18l4.92-4.92A.62.62,0,0,0,282.09,213.34Zm-7.64-.62-.62.62a.62.62,0,0,0,.44,1,.6.6,0,0,0,.43-.18l.62-.62a.62.62,0,0,0-.87-.87Zm7.2,4.13a.61.61,0,0,0-.61.62.61.61,0,0,0,.61.61.61.61,0,0,0,.62-.61A.62.62,0,0,0,281.65,216.85Zm-8-8.62a4.93,4.93,0,0,1,4.93-4.92h.31a5.5,5.5,0,0,1,2.94-2.21,4.3,4.3,0,0,0-7.2,1.1,3.62,3.62,0,0,0-1-.13,3.7,3.7,0,0,0,0,7.39h.16A5.08,5.08,0,0,1,273.65,208.23Zm74.84,26.35a15.15,15.15,0,0,1,4.58,2.75,3.39,3.39,0,0,1,1.3,2l1.19-1.06a6.17,6.17,0,0,0-1.52-2,16.65,16.65,0,0,0-5-3,18.25,18.25,0,0,0-6.37-1.22v1.44a16.4,16.4,0,0,1,5.84,1.1Zm-3.34,1.95a9.35,9.35,0,0,1,2.49.61,10.69,10.69,0,0,1,1.69.85,14.2,14.2,0,0,0,2.88.54l-.11-.13a10.58,10.58,0,0,0-1.28-1,11.15,11.15,0,0,0-2.79-1.58c-1.5-.6-3.54-1.06-4.57-.45a1.33,1.33,0,0,0-.61.8c-.12.5-.06,1.31,1.1,2.29a9.81,9.81,0,0,0,2.79,1.64,19.17,19.17,0,0,0,4.58,1.24l.74.06,1.77-1.56a6.14,6.14,0,0,1-2.34.07,17.57,17.57,0,0,1-4.22-1.14,10.18,10.18,0,0,1-2.38-1.3,3,3,0,0,1-.81-.81A2.43,2.43,0,0,1,345.15,236.53Zm-.78,11.21a9.87,9.87,0,0,0,3.68,1l.07-1.4a8.62,8.62,0,0,1-3.06-.84Zm-.83-7.87h0l-.87,1.14a16,16,0,0,0,6.18,2.7l.45.09,1.38-1.22c-.44-.06-1-.16-1.55-.29A14.61,14.61,0,0,1,343.54,239.87Zm-.11,4.74a17.36,17.36,0,0,0,6.19,2v-1.44a15.81,15.81,0,0,1-5.48-1.77Zm17.6-.53v6.34h-4.28v-3.73h-1.43v3.73H351v-6.34l5-4.34Zm-1.44.65L356,241.67l-3.55,3.06V249h1.4v-3.74h4.31V249h1.4ZM345.88,249v0a.72.72,0,0,0-.71.71.69.69,0,0,0,.21.51.67.67,0,0,0,.5.21.71.71,0,0,0,.51-.21.74.74,0,0,0,.21-.51.72.72,0,0,0-.22-.49A.7.7,0,0,0,345.88,249Z"/></g></g></svg>