<svg xmlns="http://www.w3.org/2000/svg" viewBox="0 0 52.58 52.58"><defs><style>.cls-1,.cls-3{fill:#fff;}.cls-1{opacity:0.3;}.cls-2{fill:none;stroke:#fff;stroke-width:2px;}</style></defs><g id="Layer_2" data-name="Layer 2"><g id="Layer_1-2" data-name="Layer 1"><path class="cls-1" d="M26.29,51.58A25.29,25.29,0,1,0,1,26.29,25.29,25.29,0,0,0,26.29,51.58Z"/><path class="cls-2" d="M26.29,51.58A25.29,25.29,0,1,0,1,26.29,25.29,25.29,0,0,0,26.29,51.58Z"/><path class="cls-3" d="M17.14,16.58a.61.61,0,0,1,0,.11v.39a.43.43,0,0,0,0,.05.69.69,0,0,1-.66.43.66.66,0,0,1-.68-.68.86.86,0,0,1,0-.27.66.66,0,0,1,.63-.4.76.76,0,0,1,.62.32S17.13,16.57,17.14,16.58Zm8.39,6.11c-1.16-1.05-2.1-.64-2.11.93l-.06,8.78,2-2.13a.62.62,0,0,1,1.09.18L28,33.88a1.25,1.25,0,0,0,1.58.62A1.2,1.2,0,0,0,30.19,33l-2-4.38,2,.05c1.08,0,1-.8-.15-1.85Zm15.26-6.55v20.3a1.94,1.94,0,0,1-1.93,1.93H13.72a1.94,1.94,0,0,1-1.93-1.93V16.14a1.94,1.94,0,0,1,1.93-1.93H38.86A1.94,1.94,0,0,1,40.79,16.14ZM39.5,22.23a2.83,2.83,0,0,0-2.83-2.83H15.91a2.83,2.83,0,0,0-2.83,2.83V36.62a.65.65,0,0,0,.64.47H38.86a.65.65,0,0,0,.64-.47V22.23Zm0-6.09a.64.64,0,0,0-.64-.64H13.72a.64.64,0,0,0-.64.64v2H36.67c1.56,0,2.83-.44,2.83-1Zm-20.65.26a.7.7,0,0,0-1,0,.68.68,0,0,0,.46,1.17.66.66,0,0,0,.68-.68A.67.67,0,0,0,18.85,16.4Zm-4.22-.19a.66.66,0,0,0-.68.67h0a.68.68,0,0,0,.68.68.72.72,0,0,0,.64-.37.61.61,0,0,0,0-.11h0v-.39h0a.61.61,0,0,0,0-.11A.7.7,0,0,0,14.63,16.21Z"/></g></g></svg>