<svg xmlns="http://www.w3.org/2000/svg" viewBox="0 0 52.58 52.58"><defs><style>.cls-1,.cls-3{fill:#fff;}.cls-1{opacity:0.3;}.cls-2{fill:none;stroke:#fff;stroke-width:2px;}</style></defs><g id="Layer_2" data-name="Layer 2"><g id="Layer_1-2" data-name="Layer 1"><path class="cls-1" d="M26.29,51.58A25.29,25.29,0,1,0,1,26.29,25.29,25.29,0,0,0,26.29,51.58Z"/><path class="cls-2" d="M26.29,51.58A25.29,25.29,0,1,0,1,26.29,25.29,25.29,0,0,0,26.29,51.58Z"/><path class="cls-3" d="M23.3,26.29a2.92,2.92,0,0,1,.57-1.74,3,3,0,0,1,4.85,0,3,3,0,1,1-5.42,1.74Zm9.53-3.66V19.75H30v2.88ZM43.3,26.29a17,17,0,1,1-17-17A17,17,0,0,1,43.3,26.29Zm-8.5-5.22a3.29,3.29,0,0,0-3.29-3.28H21.08a3.28,3.28,0,0,0-3.29,3.28V31.51a3.29,3.29,0,0,0,3.29,3.29H31.51a3.3,3.3,0,0,0,3.29-3.29V21.07Zm-3.86,5.22a4.65,4.65,0,0,1-9.3,0A4.58,4.58,0,0,1,22,24.55H19.45v7a1.63,1.63,0,0,0,1.63,1.63H31.51a1.63,1.63,0,0,0,1.63-1.63v-7H30.6A4.57,4.57,0,0,1,30.94,26.29Z"/></g></g></svg>