<svg xmlns="http://www.w3.org/2000/svg" viewBox="0 0 35.88 41"><defs><style>.cls-1{fill:#fff;}</style></defs><g id="Layer_2" data-name="Layer 2"><g id="Layer_1-2" data-name="Layer 1"><path class="cls-1" d="M30.75,32.67v7H20.5V21.78a.64.64,0,0,1,1.28,0v2.56a.64.64,0,1,0,1.28,0V19.86a.64.64,0,0,1,.64-.64.64.64,0,0,1,.64.64v4.48a.64.64,0,0,0,1.28,0v-6.4a.65.65,0,0,1,1.29,0v6.4a.64.64,0,0,0,1.28,0V19.86a.64.64,0,0,1,.64-.64.64.64,0,0,1,.64.64v7.05a.63.63,0,0,0,.3.54.64.64,0,0,0,.63,0,7,7,0,0,1,2.91-.57,1.13,1.13,0,0,1,1.23.91c-2.37,1.19-3.79,2.05-3.79,4.85m-19.22,7H1.28V25.62a.64.64,0,0,1,1.28,0v2.57a.64.64,0,0,0,.64.64.64.64,0,0,0,.64-.64V23.7a.64.64,0,0,1,.64-.64.64.64,0,0,1,.64.64v4.49a.65.65,0,0,0,1.29,0V21.78a.64.64,0,0,1,.64-.64.64.64,0,0,1,.64.64v6.41a.64.64,0,0,0,.64.64A.64.64,0,0,0,9,28.19V23.7a.64.64,0,1,1,1.28,0v7.05a.65.65,0,0,0,.3.55.67.67,0,0,0,.63,0,7.22,7.22,0,0,1,2.91-.57,1.15,1.15,0,0,1,1.24.91c-2.38,1.2-3.8,2.05-3.8,4.86Zm0-33.95a.64.64,0,1,1,1.28,0V8.33a.64.64,0,0,0,.64.64.64.64,0,0,0,.64-.64V3.84a.65.65,0,0,1,1.29,0V8.33A.64.64,0,0,0,16,9a.65.65,0,0,0,.65-.64V1.92a.64.64,0,0,1,.64-.64.64.64,0,0,1,.64.64V8.33a.64.64,0,0,0,.64.64.64.64,0,0,0,.64-.64V3.84a.64.64,0,0,1,1.28,0v7.05a.65.65,0,0,0,.3.55.67.67,0,0,0,.63,0,7.22,7.22,0,0,1,2.91-.57,1.15,1.15,0,0,1,1.24.91c-2.38,1.2-3.8,2-3.8,4.86V20a2,2,0,0,0-.64-.11,1.92,1.92,0,0,0-1.92,1.92V39.72H12.81v-3.2c0-2.17.95-2.65,3.49-3.91a.66.66,0,0,0,.36-.58,2.5,2.5,0,0,0-2.57-2.56,9.16,9.16,0,0,0-2.56.36ZM33.31,25.62a9.11,9.11,0,0,0-2.56.37V19.86a1.92,1.92,0,0,0-2.56-1.81v-.11a1.93,1.93,0,0,0-3.85,0v.11a1.91,1.91,0,0,0-.64-.11,1.73,1.73,0,0,0-.64.12v-1.4c0-2.17,1-2.65,3.49-3.91a.64.64,0,0,0,.36-.58,2.5,2.5,0,0,0-2.57-2.56,9.16,9.16,0,0,0-2.56.36V3.84A1.92,1.92,0,0,0,19.22,2V1.92a1.92,1.92,0,1,0-3.84,0V2a2,2,0,0,0-.65-.11,1.92,1.92,0,0,0-1.92,1.92V4a1.92,1.92,0,0,0-2.56,1.82V21.9a2,2,0,0,0-.64-.12,1.91,1.91,0,0,0-.64.11v-.11a1.93,1.93,0,0,0-3.85,0v.11A1.92,1.92,0,0,0,2.56,23.7v.11A1.92,1.92,0,0,0,0,25.62V40.36A.64.64,0,0,0,.64,41H31.39a.64.64,0,0,0,.64-.64V32.67c0-2.16.95-2.64,3.49-3.91a.64.64,0,0,0,.36-.57A2.5,2.5,0,0,0,33.31,25.62Z"/></g></g></svg>