<svg xmlns="http://www.w3.org/2000/svg" viewBox="0 0 19.21 19.64"><defs><style>.cls-1{fill:#fdb71a;}</style></defs><g id="Layer_2" data-name="Layer 2"><g id="Layer_1-2" data-name="Layer 1"><path class="cls-1" d="M19.21,8.32A3.21,3.21,0,0,1,16,11.53h-.64V13a.21.21,0,0,1-.22.21.21.21,0,0,1-.21-.21V11.53H13.23V13a.21.21,0,0,1-.42,0V11.53H11.1V13a.21.21,0,0,1-.22.21.21.21,0,0,1-.21-.21V11.53H9V13a.21.21,0,0,1-.42,0V11.53H6.83V13a.21.21,0,0,1-.21.21A.21.21,0,0,1,6.4,13V11.53H4.7V13a.21.21,0,0,1-.22.21A.21.21,0,0,1,4.27,13V11.53H3.2a3.21,3.21,0,0,1,0-6.41h0a.21.21,0,0,0,.21-.24A2.78,2.78,0,0,1,8.85,3.69a.2.2,0,0,0,.26.14.21.21,0,0,0,.15-.26A3.2,3.2,0,0,0,8.23,2a4.06,4.06,0,0,1,7.24.44.2.2,0,0,0,.22.12,2.35,2.35,0,0,1,2.49,3.21.22.22,0,0,0,.05.23A3.18,3.18,0,0,1,19.21,8.32Zm-4.06,6.19a.22.22,0,0,0-.21.22v.42a.22.22,0,1,0,.43,0v-.42A.22.22,0,0,0,15.15,14.51Zm0,2.14a.21.21,0,0,0-.21.21v.43a.21.21,0,0,0,.21.21.21.21,0,0,0,.22-.21v-.43A.21.21,0,0,0,15.15,16.65Zm0,2.13a.22.22,0,0,0-.21.22v.42a.22.22,0,1,0,.43,0V19A.22.22,0,0,0,15.15,18.78ZM13,14.51a.21.21,0,0,0-.21.22v.42a.21.21,0,1,0,.42,0v-.42A.21.21,0,0,0,13,14.51Zm0,2.14a.21.21,0,0,0-.21.21v.43a.21.21,0,0,0,.42,0v-.43A.21.21,0,0,0,13,16.65Zm0,2.13a.21.21,0,0,0-.21.22v.42a.21.21,0,1,0,.42,0V19A.21.21,0,0,0,13,18.78Zm-2.14-4.27a.22.22,0,0,0-.21.22v.42a.22.22,0,1,0,.43,0v-.42A.22.22,0,0,0,10.88,14.51Zm0,2.14a.21.21,0,0,0-.21.21v.43a.21.21,0,0,0,.21.21.21.21,0,0,0,.22-.21v-.43A.21.21,0,0,0,10.88,16.65Zm0,2.13a.22.22,0,0,0-.21.22v.42a.22.22,0,1,0,.43,0V19A.22.22,0,0,0,10.88,18.78ZM8.75,14.51a.21.21,0,0,0-.21.22v.42a.21.21,0,1,0,.42,0v-.42A.21.21,0,0,0,8.75,14.51Zm0,2.14a.21.21,0,0,0-.21.21v.43a.21.21,0,0,0,.42,0v-.43A.21.21,0,0,0,8.75,16.65Zm0,2.13a.21.21,0,0,0-.21.22v.42a.21.21,0,1,0,.42,0V19A.21.21,0,0,0,8.75,18.78ZM6.62,14.51a.22.22,0,0,0-.22.22v.42a.22.22,0,1,0,.43,0v-.42A.22.22,0,0,0,6.62,14.51Zm0,2.14a.21.21,0,0,0-.22.21v.43a.21.21,0,0,0,.22.21.21.21,0,0,0,.21-.21v-.43A.21.21,0,0,0,6.62,16.65Zm0,2.13A.22.22,0,0,0,6.4,19v.42a.22.22,0,1,0,.43,0V19A.22.22,0,0,0,6.62,18.78ZM4.48,14.51a.21.21,0,0,0-.21.22v.42a.21.21,0,0,0,.21.22.22.22,0,0,0,.22-.22v-.42A.22.22,0,0,0,4.48,14.51Zm0,2.14a.21.21,0,0,0-.21.21v.43a.21.21,0,0,0,.21.21.21.21,0,0,0,.22-.21v-.43A.21.21,0,0,0,4.48,16.65Zm0,2.13a.21.21,0,0,0-.21.22v.42a.21.21,0,0,0,.21.22.22.22,0,0,0,.22-.22V19A.22.22,0,0,0,4.48,18.78Z"/></g></g></svg>