<svg xmlns="http://www.w3.org/2000/svg" viewBox="0 0 19.69 19.69"><defs><style>.cls-1{fill:#fdb71a;}</style></defs><g id="Layer_2" data-name="Layer 2"><g id="Layer_1-2" data-name="Layer 1"><path class="cls-1" d="M19.69,9.23a3.08,3.08,0,0,1-3.07,3.08h-8a3.7,3.7,0,1,1,0-7.39,4,4,0,0,1,1,.13,4.31,4.31,0,0,1,8.24,1.36A3.06,3.06,0,0,1,19.69,9.23ZM8.43,14.59a.6.6,0,0,0,0-.87.62.62,0,0,0-.87,0L5.72,15.57a.62.62,0,0,0,.87.87ZM15,13.72,13.1,15.57a.62.62,0,0,0,.44,1.05.6.6,0,0,0,.43-.18l1.85-1.85a.62.62,0,0,0-.87-.87Zm-2.82,0a.62.62,0,0,0-.87,0L6.33,18.64a.62.62,0,0,0,.44,1.05.6.6,0,0,0,.43-.18l4.93-4.92A.62.62,0,0,0,12.13,13.72ZM5.36,13.1a.62.62,0,0,0-.87,0l-.62.62a.62.62,0,0,0,.44,1,.6.6,0,0,0,.43-.18L5.36,14A.62.62,0,0,0,5.36,13.1Zm6.33,4.13a.61.61,0,0,0-.61.62.61.61,0,0,0,.61.61.61.61,0,0,0,.62-.61A.62.62,0,0,0,11.69,17.23Zm-8-8.61A4.93,4.93,0,0,1,8.62,3.69h.31a5.55,5.55,0,0,1,2.94-2.21,4.3,4.3,0,0,0-7.2,1.1,4.06,4.06,0,0,0-1-.13,3.7,3.7,0,0,0,0,7.39h.16A5.06,5.06,0,0,1,3.69,8.62Z"/></g></g></svg>