<svg xmlns="http://www.w3.org/2000/svg" viewBox="0 0 18.38 18.38"><defs><style>.cls-1{fill:#fdb71a;}</style></defs><g id="Layer_2" data-name="Layer 2"><g id="Layer_1-2" data-name="Layer 1"><path class="cls-1" d="M5.84,2.54A16.4,16.4,0,0,0,0,1.44V0A18.25,18.25,0,0,1,6.37,1.22a16.65,16.65,0,0,1,5,3,6.14,6.14,0,0,1,1.51,2L11.72,7.25a3.42,3.42,0,0,0-1.3-2A15.15,15.15,0,0,0,5.84,2.54Zm-3.35,2A9.33,9.33,0,0,1,5,5.1,10.69,10.69,0,0,1,6.68,6a14.07,14.07,0,0,0,2.88.54l-.12-.12a9.08,9.08,0,0,0-1.27-1A11.15,11.15,0,0,0,5.38,3.74C3.87,3.14,1.84,2.68.81,3.3a1.31,1.31,0,0,0-.61.79C.07,4.59.14,5.4,1.3,6.38A9.67,9.67,0,0,0,4.09,8,19.17,19.17,0,0,0,8.67,9.26l.74.07,1.77-1.57a6.14,6.14,0,0,1-2.34.07A17.31,17.31,0,0,1,4.61,6.69a10.32,10.32,0,0,1-2.37-1.3,2.84,2.84,0,0,1-.81-.81A2.38,2.38,0,0,1,2.49,4.49ZM1.72,15.7a9.78,9.78,0,0,0,3.67,1l.08-1.41a8.62,8.62,0,0,1-3.06-.84ZM.89,7.83h0L0,9a16.13,16.13,0,0,0,6.18,2.69l.44.09L8,10.54c-.44-.06-1-.15-1.56-.28A14.74,14.74,0,0,1,.89,7.83ZM.78,12.57a17.16,17.16,0,0,0,6.19,2V13.12a15.93,15.93,0,0,1-5.49-1.77ZM13.36,7.7,8.38,12v6.34h4.29V14.65h1.42v3.73h4.29V12ZM3.23,17v0a.71.71,0,0,0-.51.21.73.73,0,0,0-.21.5.72.72,0,1,0,1.44,0,.76.76,0,0,0-.22-.49A.7.7,0,0,0,3.23,17Z"/></g></g></svg>