<svg xmlns="http://www.w3.org/2000/svg" viewBox="0 0 26.04 31.6"><defs><style>.cls-1{fill:#fff;}</style></defs><g id="Layer_2" data-name="Layer 2"><g id="Layer_1-2" data-name="Layer 1"><path class="cls-1" d="M20.39,28.12c-1.76,2.06-5.82.86-6.62.6a2.69,2.69,0,0,0-.73-.14,1.84,1.84,0,0,0-.74.14c-.79.26-4.86,1.43-6.62-.6C3.08,25.09.52,15.9,4,11.84c3.32-3.89,8.18-.73,8.38-.6a1.14,1.14,0,0,0,1.3,0c.2-.13,5-3.29,8.39.6C25.52,15.94,23,25.09,20.39,28.12Zm3.4-17.78c-3.06-3.56-7.22-3-9.89-1.83A13.24,13.24,0,0,1,17.36,2a.94.94,0,0,0-.5-1.57.28.28,0,0,1-.13,0,3.19,3.19,0,0,0-3.06,1.43c-1.3,2-1.57,4.76-1.57,6.69-2.66-1.17-6.79-1.7-9.85,1.86-4.63,5.4-1.13,16.05,1.67,19.28,2.63,3.09,7.62,1.76,9.15,1.29a13.83,13.83,0,0,0,4.09.67,6.26,6.26,0,0,0,5-2C24.92,26.39,28.42,15.74,23.79,10.34Z"/><path class="cls-1" d="M9.77,6.52a.89.89,0,0,0,1.1-.9A6.23,6.23,0,0,0,9.67,2,6.07,6.07,0,0,0,6.35,0a.89.89,0,0,0-1.1.9,6.18,6.18,0,0,0,1.2,3.66A6.54,6.54,0,0,0,9.77,6.52"/></g></g></svg>