<svg id="Layer_1" data-name="Layer 1" xmlns="http://www.w3.org/2000/svg" viewBox="0 0 534.4 100.93"><defs><style>.cls-1{fill:#fff;}</style></defs><path class="cls-1" d="M90.44,99.54H78.37c-2.46,0-3.53-1.16-4.48-3.05L67.22,81.78H26.36L19.7,96.48a4.72,4.72,0,0,1-4.49,3.06H3.14a3.1,3.1,0,0,1-2.7-1.36,3,3,0,0,1-.11-3L43.49,1.82A3,3,0,0,1,46.3,0h1.39A2.86,2.86,0,0,1,50.5,1.8L93.26,95.23a3,3,0,0,1-.12,3A3.1,3.1,0,0,1,90.44,99.54ZM25.72,80.78H67.86L74.8,96.06c.93,1.88,1.8,2.48,3.57,2.48H90.44a2.09,2.09,0,0,0,1.85-.9,2.06,2.06,0,0,0,.06-2L49.6,2.24A1.87,1.87,0,0,0,47.69,1H46.3a2,2,0,0,0-1.91,1.25L1.23,95.65a2.06,2.06,0,0,0,.06,2,2.09,2.09,0,0,0,1.85.9H15.21a3.69,3.69,0,0,0,3.57-2.46Zm35.8-14.41H32.07l14-31.53h1.06Zm-27.91-1H60L46.65,36.09Z"/><path class="cls-1" d="M147.07,100.93a50.47,50.47,0,0,1-35.81-14.65A49.86,49.86,0,0,1,96.47,50.6,50.66,50.66,0,0,1,147.07,0C160.48,0,171,4,181,13a3.08,3.08,0,0,1,.16,4.61l-8.46,8.74a2.73,2.73,0,0,1-2,1,3.07,3.07,0,0,1-2.22-1,32.34,32.34,0,0,0-21-8c-17.08,0-30.45,14-30.45,31.84,0,17.7,13.43,31.56,30.59,31.56A32.68,32.68,0,0,0,168.55,74a3,3,0,0,1,4.14,0l8.61,8.88a2.68,2.68,0,0,1,.86,1.92,3.48,3.48,0,0,1-1,2.53A47.9,47.9,0,0,1,147.07,100.93Zm0-99.93a49.66,49.66,0,0,0-49.6,49.6,48.9,48.9,0,0,0,14.49,35,49.48,49.48,0,0,0,35.11,14.36,46.93,46.93,0,0,0,33.38-13.32,2.47,2.47,0,0,0,.71-1.79,1.7,1.7,0,0,0-.55-1.22L172,74.69a2.05,2.05,0,0,0-2.78,0c-6.59,5.34-13.84,8-21.56,8-17.72,0-31.59-14.3-31.59-32.56,0-18.42,13.81-32.84,31.45-32.84a33.33,33.33,0,0,1,21.7,8.31,2.09,2.09,0,0,0,1.51.71,1.77,1.77,0,0,0,1.26-.66L180.44,17a2.08,2.08,0,0,0-.11-3.17C170.48,4.94,160.22,1,147.07,1Z"/><path class="cls-1" d="M240.21,100.93a50.47,50.47,0,0,1-35.82-14.65A49.86,49.86,0,0,1,189.6,50.6,50.66,50.66,0,0,1,240.21,0c13.41,0,23.87,4,33.92,13a3.08,3.08,0,0,1,.16,4.61l-8.46,8.74a2.74,2.74,0,0,1-2,1,3,3,0,0,1-2.23-1,32.3,32.3,0,0,0-21-8c-17.07,0-30.45,14-30.45,31.84,0,17.7,13.44,31.56,30.59,31.56A32.68,32.68,0,0,0,261.68,74a3,3,0,0,1,4.14,0l8.61,8.88a2.64,2.64,0,0,1,.86,1.92,3.47,3.47,0,0,1-1,2.53A47.93,47.93,0,0,1,240.21,100.93Zm0-99.93A49.66,49.66,0,0,0,190.6,50.6a48.87,48.87,0,0,0,14.5,35,49.48,49.48,0,0,0,35.11,14.36,46.91,46.91,0,0,0,33.37-13.32,2.47,2.47,0,0,0,.71-1.79,1.66,1.66,0,0,0-.55-1.22l-8.63-8.91a2.05,2.05,0,0,0-2.78,0c-6.6,5.34-13.85,8-21.57,8-17.71,0-31.59-14.3-31.59-32.56,0-18.42,13.82-32.84,31.45-32.84a33.36,33.36,0,0,1,21.71,8.31,2.08,2.08,0,0,0,1.5.71,1.75,1.75,0,0,0,1.26-.66L273.57,17a2.19,2.19,0,0,0,.68-1.6,2.24,2.24,0,0,0-.79-1.57C263.61,4.94,253.35,1,240.21,1Z"/><path class="cls-1" d="M348.05,99.54H291.56a3.14,3.14,0,0,1-3.14-3.13V4.53a3.15,3.15,0,0,1,3.14-3.14h56.49a3.15,3.15,0,0,1,3.14,3.14V15.91A3.14,3.14,0,0,1,348.05,19H307.47V40.81h33.78a3.22,3.22,0,0,1,3.14,3.13V55.46a3.15,3.15,0,0,1-3.14,3.14H307.47V81.89h40.58A3.15,3.15,0,0,1,351.19,85V96.41A3.14,3.14,0,0,1,348.05,99.54ZM291.56,2.39a2.14,2.14,0,0,0-2.14,2.14V96.41a2.14,2.14,0,0,0,2.14,2.13h56.49a2.14,2.14,0,0,0,2.14-2.13V85a2.14,2.14,0,0,0-2.14-2.14H306.47V57.6h34.78a2.14,2.14,0,0,0,2.14-2.14V43.94a2.22,2.22,0,0,0-2.14-2.13H306.47V18h41.58a2.14,2.14,0,0,0,2.14-2.13V4.53a2.14,2.14,0,0,0-2.14-2.14Z"/><path class="cls-1" d="M393,100.93c-18.15,0-27.37-7.94-30.85-10.94-1.6-1.28-2.17-2.38-.81-4.79l5-8.61a3.58,3.58,0,0,1,2.45-1.79,3.82,3.82,0,0,1,3,.67c5.92,4.48,12,8.5,20.65,8.5,6.8,0,12.13-4.47,12.13-10.19,0-6.43-5.18-11.28-17.32-16.19C376,53,360.88,44.87,360.88,27.15,360.88,14.07,370.81,0,392.61,0c14.77,0,26,7.83,28.05,9.4a3.4,3.4,0,0,1,1.47,2.26,3.92,3.92,0,0,1-.52,3l-5.27,7.9a5.55,5.55,0,0,1-2.45,2.06,3.23,3.23,0,0,1-3.1-.26l-1-.64c-5.62-3.55-10.94-6.91-18-6.91-8.09,0-11.71,4.63-11.71,9.22,0,6.06,4.65,10.43,16.07,15.08C410.62,47,425.45,55.29,425.45,73,425.45,86.51,414.08,100.93,393,100.93Zm-23.46-25.2a2.5,2.5,0,0,0-.55,0,2.58,2.58,0,0,0-1.78,1.3l-5,8.61c-1.09,1.93-.71,2.5.57,3.53h0c3.4,2.93,12.42,10.7,30.21,10.7,20.41,0,31.43-13.9,31.43-27,0-17.06-14.51-25.2-28.7-30.9-11.86-4.83-16.69-9.47-16.69-16,0-5.09,3.93-10.22,12.71-10.22,7.34,0,12.77,3.43,18.53,7.06l1,.65a2.3,2.3,0,0,0,2.19.17,4.5,4.5,0,0,0,2-1.69l5.27-7.91a2.86,2.86,0,0,0,.37-2.23,2.42,2.42,0,0,0-1-1.64C418,8.66,407.07,1,392.61,1c-14.8,0-30.73,8.18-30.73,26.15,0,17.11,14.71,25,25.78,29.51,12.57,5.09,17.94,10.21,17.94,17.12,0,6.28-5.77,11.19-13.13,11.19-9,0-15.19-4.12-21.26-8.71A2.78,2.78,0,0,0,369.56,75.73Z"/><path class="cls-1" d="M483.94,100.93A49.79,49.79,0,0,1,433.61,50.6a50.47,50.47,0,0,1,14.65-35.81A49.86,49.86,0,0,1,483.94,0,50.59,50.59,0,0,1,534.4,50.6a50.14,50.14,0,0,1-50.46,50.33Zm0-99.93a48.87,48.87,0,0,0-35,14.5,49.46,49.46,0,0,0-14.36,35.1,49.4,49.4,0,1,0,98.79,0A49.59,49.59,0,0,0,483.94,1Zm0,81.89a32.43,32.43,0,0,1,0-64.85C501.51,18,516.36,33,516.36,50.6A32.39,32.39,0,0,1,483.94,82.89Zm0-63.85A31.43,31.43,0,1,0,515.36,50.6C515.36,33.5,501,19,483.94,19Z"/></svg>