<svg xmlns="http://www.w3.org/2000/svg" viewBox="0 0 534.77 101"><defs><style>.cls-1{fill:#fff;}</style></defs><g id="Layer_2" data-name="Layer 2"><g id="Layer_1-2" data-name="Layer 1"><path class="cls-1" d="M90.5,99.61H78.42c-2.46,0-3.53-1.17-4.48-3L67.26,81.83H26.38L19.71,96.54a4.71,4.71,0,0,1-4.49,3.07H3.14a3.1,3.1,0,0,1-2.7-1.36,3,3,0,0,1-.11-3L43.52,1.82A3,3,0,0,1,46.33,0h1.39a2.85,2.85,0,0,1,2.81,1.8L93.32,95.29a3,3,0,0,1-.12,3A3.09,3.09,0,0,1,90.5,99.61ZM25.74,80.83H67.91l6.94,15.3c.93,1.87,1.81,2.48,3.57,2.48H90.5a2.13,2.13,0,0,0,1.86-.9,2,2,0,0,0,0-2L49.63,2.24A1.87,1.87,0,0,0,47.72,1H46.33a2,2,0,0,0-1.91,1.25L1.23,95.71a2.07,2.07,0,0,0,.06,2,2.12,2.12,0,0,0,1.85.9H15.22a3.69,3.69,0,0,0,3.57-2.46ZM61.56,66.42H32.09L46.15,34.86h1.06Zm-27.93-1H60L46.69,36.12Z"/><path class="cls-1" d="M147.17,101a50.55,50.55,0,0,1-35.84-14.66,49.93,49.93,0,0,1-14.8-35.7A50.7,50.7,0,0,1,147.17,0c13.42,0,23.89,4,34,13a3.25,3.25,0,0,1,1.12,2.3,3.19,3.19,0,0,1-1,2.32l-8.47,8.74a2.72,2.72,0,0,1-2,1,3,3,0,0,1-2.23-1,32.28,32.28,0,0,0-21-8c-17.09,0-30.47,14-30.47,31.86s13.44,31.59,30.61,31.59c7.49,0,14.53-2.63,20.93-7.81a3,3,0,0,1,4.14,0l8.62,8.89a2.64,2.64,0,0,1,.86,1.91,3.49,3.49,0,0,1-1,2.54A48,48,0,0,1,147.17,101Zm0-100A49.7,49.7,0,0,0,97.53,50.64a48.94,48.94,0,0,0,14.51,35A49.5,49.5,0,0,0,147.17,100a47,47,0,0,0,33.4-13.33,2.49,2.49,0,0,0,.71-1.79,1.68,1.68,0,0,0-.55-1.23l-8.64-8.91a2,2,0,0,0-2.78,0c-6.6,5.34-13.86,8-21.58,8-17.73,0-31.61-14.32-31.61-32.59,0-18.42,13.82-32.86,31.47-32.86a33.34,33.34,0,0,1,21.72,8.32,2.19,2.19,0,0,0,1.51.71,1.83,1.83,0,0,0,1.26-.66L180.56,17a2.18,2.18,0,0,0,.68-1.59,2.24,2.24,0,0,0-.79-1.58C170.59,4.94,160.33,1,147.17,1Z"/><path class="cls-1" d="M240.37,101a50.53,50.53,0,0,1-35.84-14.66,49.93,49.93,0,0,1-14.8-35.7A50.7,50.7,0,0,1,240.37,0c13.42,0,23.89,4,33.94,13a3.18,3.18,0,0,1,1.12,2.3,3.11,3.11,0,0,1-1,2.32L266,26.4a2.72,2.72,0,0,1-2,1,3,3,0,0,1-2.22-1,32.3,32.3,0,0,0-21-8c-17.09,0-30.48,14-30.48,31.86s13.45,31.59,30.61,31.59c7.5,0,14.54-2.63,20.94-7.81A3,3,0,0,1,266,74l8.62,8.89a2.67,2.67,0,0,1,.86,1.91,3.5,3.5,0,0,1-1,2.54A48,48,0,0,1,240.37,101Zm0-100a49.7,49.7,0,0,0-49.64,49.64,48.9,48.9,0,0,0,14.51,35A49.48,49.48,0,0,0,240.37,100a47,47,0,0,0,33.4-13.33,2.49,2.49,0,0,0,.71-1.79,1.72,1.72,0,0,0-.55-1.23l-8.64-8.91a2,2,0,0,0-2.79,0c-6.59,5.34-13.85,8-21.58,8-17.72,0-31.61-14.32-31.61-32.59,0-18.42,13.83-32.86,31.48-32.86a33.38,33.38,0,0,1,21.72,8.32,2.15,2.15,0,0,0,1.5.71,1.79,1.79,0,0,0,1.26-.66L273.76,17a2.08,2.08,0,0,0-.11-3.17C263.79,4.94,253.52,1,240.37,1Z"/><path class="cls-1" d="M348.29,99.61H291.76a3.15,3.15,0,0,1-3.14-3.14V4.53a3.15,3.15,0,0,1,3.14-3.14h56.53a3.15,3.15,0,0,1,3.14,3.14V15.92a3.15,3.15,0,0,1-3.14,3.14H307.68V40.83h33.8A3.22,3.22,0,0,1,344.62,44V55.5a3.15,3.15,0,0,1-3.14,3.14h-33.8V82h40.61a3.14,3.14,0,0,1,3.14,3.13V96.47A3.15,3.15,0,0,1,348.29,99.61ZM291.76,2.39a2.14,2.14,0,0,0-2.14,2.14V96.47a2.14,2.14,0,0,0,2.14,2.14h56.53a2.14,2.14,0,0,0,2.14-2.14V85.08A2.13,2.13,0,0,0,348.29,83H306.68V57.64h34.8a2.14,2.14,0,0,0,2.14-2.14V44a2.22,2.22,0,0,0-2.14-2.14h-34.8V18.06h41.61a2.14,2.14,0,0,0,2.14-2.14V4.53a2.14,2.14,0,0,0-2.14-2.14Z"/><path class="cls-1" d="M393.29,101c-18.16,0-27.39-8-30.87-11-1.61-1.28-2.17-2.38-.82-4.79l5-8.62a3.61,3.61,0,0,1,2.45-1.79,3.83,3.83,0,0,1,3,.67C378,80,384,84,392.74,84c6.8,0,12.13-4.48,12.13-10.2,0-6.44-5.18-11.29-17.32-16.2C376.2,53,361.12,44.9,361.12,27.17,361.12,14.08,371.06,0,392.87,0c14.8,0,26,7.84,28.08,9.41a3.44,3.44,0,0,1,1.47,2.26,3.92,3.92,0,0,1-.53,3l-5.27,7.9c-1.23,1.85-3.59,3.11-5.55,1.81l-1-.65c-5.63-3.55-11-6.91-18-6.91-8.1,0-11.72,4.64-11.72,9.23,0,6.06,4.66,10.44,16.08,15.09C410.9,47,425.74,55.33,425.74,73,425.74,86.57,414.36,101,393.29,101ZM369.81,75.78a3.31,3.31,0,0,0-.55,0,2.57,2.57,0,0,0-1.78,1.31l-5,8.61c-1.08,1.93-.7,2.5.58,3.53h0c3.4,2.93,12.43,10.71,30.23,10.71,20.42,0,31.45-13.91,31.45-27,0-17.08-14.52-25.22-28.72-30.92-11.86-4.84-16.7-9.48-16.7-16,0-5.09,3.93-10.23,12.72-10.23,7.34,0,12.78,3.44,18.54,7.07l1,.65c1.43.95,3.22-.08,4.18-1.52l5.28-7.92a2.88,2.88,0,0,0,.37-2.24,2.47,2.47,0,0,0-1.05-1.63C418.3,8.67,407.35,1,392.87,1c-14.81,0-30.75,8.19-30.75,26.17,0,17.12,14.73,25.06,25.8,29.53,12.58,5.1,17.95,10.22,17.95,17.13,0,6.28-5.77,11.2-13.13,11.2-9,0-15.21-4.12-21.28-8.71A2.72,2.72,0,0,0,369.81,75.78Z"/><path class="cls-1" d="M484.27,101A49.83,49.83,0,0,1,433.9,50.64,50.53,50.53,0,0,1,448.56,14.8,49.94,49.94,0,0,1,484.27,0a50.63,50.63,0,0,1,50.5,50.64A50.19,50.19,0,0,1,484.27,101Zm0-100a49,49,0,0,0-35,14.5A49.56,49.56,0,0,0,434.9,50.64a49.44,49.44,0,1,0,98.87,0A49.63,49.63,0,0,0,484.27,1Zm0,82a32.45,32.45,0,0,1,0-64.89c17.58,0,32.44,14.92,32.44,32.58A32.41,32.41,0,0,1,484.27,83Zm0-63.89a31.45,31.45,0,1,0,31.44,31.58C515.71,33.52,501.31,19.06,484.27,19.06Z"/></g></g></svg>