<svg xmlns="http://www.w3.org/2000/svg" viewBox="0 0 993.66 100.3"><defs><style>.cls-1{fill:#fff;}</style></defs><g id="Layer_2" data-name="Layer 2"><g id="Layer_1-2" data-name="Layer 1"><path class="cls-1" d="M50.29,100.3A50.16,50.16,0,0,1,14.7,85.74a50.26,50.26,0,0,1,0-71A50,50,0,0,1,50.29,0C63.62,0,74,4,84,13a2.84,2.84,0,0,1,1,2,2.74,2.74,0,0,1-.86,2.06l-8.47,8.75a2.37,2.37,0,0,1-1.72.88h-.07A2.67,2.67,0,0,1,72,25.81a32.68,32.68,0,0,0-21.28-8.15,29.89,29.89,0,0,0-22,9.57,33,33,0,0,0-8.78,22.64,32.4,32.4,0,0,0,8.85,22.45,30.2,30.2,0,0,0,22.11,9.49c7.58,0,14.7-2.66,21.16-7.89a2.7,2.7,0,0,1,3.67,0l8.61,8.89A2.26,2.26,0,0,1,85,84.51a3.11,3.11,0,0,1-.9,2.27A47.58,47.58,0,0,1,50.29,100.3Zm0-100a49.88,49.88,0,0,0-50,50A49.27,49.27,0,0,0,14.91,85.53,49.87,49.87,0,0,0,50.29,100,47.29,47.29,0,0,0,83.93,86.57a2.87,2.87,0,0,0,.82-2A2.06,2.06,0,0,0,84.08,83l-8.62-8.9a2.42,2.42,0,0,0-3.27,0c-6.52,5.28-13.7,8-21.35,8a30.55,30.55,0,0,1-22.33-9.58,32.72,32.72,0,0,1-8.93-22.66A33.27,33.27,0,0,1,28.44,27a30.17,30.17,0,0,1,22.27-9.67,33,33,0,0,1,21.48,8.23,2.47,2.47,0,0,0,1.75.8,2.1,2.1,0,0,0,1.51-.78l8.48-8.76A2.49,2.49,0,0,0,84.7,15a2.56,2.56,0,0,0-.9-1.82C73.87,4.27,63.54.3,50.29.3Z"/><path class="cls-1" d="M143.21,100.3a49.7,49.7,0,0,1-50-50A50.19,50.19,0,0,1,107.75,14.7a50.19,50.19,0,0,1,71,0,50.08,50.08,0,0,1-35.52,85.6Zm0-100A49.27,49.27,0,0,0,108,14.91,49.87,49.87,0,0,0,93.5,50.29a49.78,49.78,0,1,0,85-35.38A49.5,49.5,0,0,0,143.21.3Zm0,82a32,32,0,0,1-22.57-54.67,31.6,31.6,0,0,1,45.21,0,32,32,0,0,1,9.45,22.71,31.63,31.63,0,0,1-9.45,22.57A32,32,0,0,1,143.21,82.25Zm0-63.89a31.26,31.26,0,0,0-22.36,9.43,31.7,31.7,0,1,0,44.79,44.86A31.36,31.36,0,0,0,175,50.29a32.08,32.08,0,0,0-31.79-31.93Z"/><path class="cls-1" d="M259,100.3h-2.5a2.63,2.63,0,0,1-2.49-1.61L229.5,44.19h-.19l-8,52.51a2.84,2.84,0,0,1-2.65,2.21h-12.5a2.8,2.8,0,0,1-2.2-.9,3,3,0,0,1-.59-2.47L219.87,2.21A2.49,2.49,0,0,1,222.52,0h2.22a2.66,2.66,0,0,1,2.49,1.47l30.52,65.47H258L288.49,1.48A2.56,2.56,0,0,1,291,0h2.22a2.49,2.49,0,0,1,2.65,2.21l16.39,93.33A2.81,2.81,0,0,1,311.8,98a2.73,2.73,0,0,1-2.2.93H297a3.16,3.16,0,0,1-2.78-2.19L286,44.19h-.19L261.54,98.68A2.51,2.51,0,0,1,259,100.3Zm-30-56.41h.65l24.62,54.67a2.32,2.32,0,0,0,2.22,1.44H259a2.2,2.2,0,0,0,2.22-1.43l24.35-54.68h.65l0,.13,8.19,52.63a2.85,2.85,0,0,0,2.49,2H309.6a2.47,2.47,0,0,0,2-.81,2.56,2.56,0,0,0,.38-2.2L295.56,2.26a2.19,2.19,0,0,0-2.35-2H291a2.25,2.25,0,0,0-2.23,1.31L258.17,67.25h-.61l0-.09L227,1.6A2.38,2.38,0,0,0,224.74.3h-2.22a2.17,2.17,0,0,0-2.35,2h0L203.64,95.59a2.74,2.74,0,0,0,.52,2.23,2.5,2.5,0,0,0,2,.79h12.5a2.54,2.54,0,0,0,2.35-2Z"/><path class="cls-1" d="M365.72,100.3a39.53,39.53,0,0,1-27.59-10.67A36.35,36.35,0,0,1,327,63.07V4.18a2.89,2.89,0,0,1,2.78-2.79h13.2a2.79,2.79,0,0,1,2.79,2.79V62.09c0,11.88,8,19.85,20,19.85s20.12-8.1,20.12-19.71v-58a2.79,2.79,0,0,1,2.79-2.79h13.2a2.9,2.9,0,0,1,2.79,2.79V63.07a36.31,36.31,0,0,1-11.2,26.56A39.75,39.75,0,0,1,365.72,100.3Zm-36-98.61a2.58,2.58,0,0,0-2.48,2.49V63.07a36.06,36.06,0,0,0,11.08,26.35,40.87,40.87,0,0,0,54.88,0,36.08,36.08,0,0,0,11.1-26.35V4.18a2.59,2.59,0,0,0-2.49-2.49h-13.2a2.5,2.5,0,0,0-2.49,2.49V62.23c0,11.79-8.4,20-20.42,20s-20.29-8.1-20.29-20.16V4.18a2.5,2.5,0,0,0-2.49-2.49Z"/><path class="cls-1" d="M504.19,100.3h-1.94a3.18,3.18,0,0,1-2.47-1l-56.9-62.73h-.07V96.12A2.79,2.79,0,0,1,440,98.91H427.39a2.9,2.9,0,0,1-2.79-2.79V2.65A2.76,2.76,0,0,1,427.39,0h2.08a3.2,3.2,0,0,1,2.47,1l56.62,60.37h.06V4.18a2.8,2.8,0,0,1,2.79-2.79h12.78A2.9,2.9,0,0,1,507,4.18V97.65A2.76,2.76,0,0,1,504.19,100.3Zm-61.68-64h.5l0,0L500,99.08a2.9,2.9,0,0,0,2.25.92h1.94a2.46,2.46,0,0,0,2.49-2.35V4.18a2.59,2.59,0,0,0-2.49-2.49H491.41a2.49,2.49,0,0,0-2.48,2.49V61.69h-.5l0,0L431.72,1.22A2.92,2.92,0,0,0,429.47.3h-2.08a2.46,2.46,0,0,0-2.49,2.35V96.12a2.58,2.58,0,0,0,2.49,2.49H440a2.48,2.48,0,0,0,2.48-2.49Z"/><path class="cls-1" d="M543.64,98.91H530.72a2.9,2.9,0,0,1-2.79-2.79V4.18a2.9,2.9,0,0,1,2.79-2.79h12.92a2.9,2.9,0,0,1,2.79,2.79V96.12A2.9,2.9,0,0,1,543.64,98.91ZM530.72,1.69a2.59,2.59,0,0,0-2.49,2.49V96.12a2.59,2.59,0,0,0,2.49,2.49h12.92a2.59,2.59,0,0,0,2.49-2.49V4.18a2.59,2.59,0,0,0-2.49-2.49Z"/><path class="cls-1" d="M603,98.91H570a2.76,2.76,0,0,1-2.65-2.79V4.18A2.76,2.76,0,0,1,570,1.39H603a48.76,48.76,0,1,1,0,97.52ZM570,1.69a2.45,2.45,0,0,0-2.35,2.49V96.12A2.45,2.45,0,0,0,570,98.61H603a48.46,48.46,0,1,0,0-96.92ZM601.28,82h-16V18.19h16c18.49,0,31.4,13.09,31.4,31.82S619.77,82,601.28,82Zm-15.68-.3h15.68c18.31,0,31.1-13,31.1-31.66S619.59,18.5,601.28,18.5H585.6Z"/><path class="cls-1" d="M745.45,98.91H733.36c-2.28,0-3.25-1-4.16-2.86l-6.77-14.92H681.1l-6.77,14.92a4.37,4.37,0,0,1-4.16,2.86H658.09a2.78,2.78,0,0,1-2.41-1.2,2.7,2.7,0,0,1-.09-2.62l.14.06-.14-.06L698.78,1.62A2.65,2.65,0,0,1,701.28,0h1.39a2.49,2.49,0,0,1,2.49,1.61L748,95.09a2.7,2.7,0,0,1-.1,2.62A2.76,2.76,0,0,1,745.45,98.91ZM680.91,80.83h41.72l0,.09,6.8,15c1,2,2,2.69,3.89,2.69h12.09a2.48,2.48,0,0,0,2.15-1.06,2.42,2.42,0,0,0,.07-2.34L704.89,1.74A2.21,2.21,0,0,0,702.67.3h-1.39a2.34,2.34,0,0,0-2.23,1.45L655.86,95.21a2.39,2.39,0,0,0,.08,2.34,2.47,2.47,0,0,0,2.15,1.06h12.08a4.07,4.07,0,0,0,3.89-2.68ZM716,65.72H687.58l.09-.22,13.65-30.64h.61l0,.09ZM688,65.42h27.45L701.74,35.16h-.22Z"/><path class="cls-1" d="M793.09,98.91H760.17a2.77,2.77,0,0,1-2.65-2.79V4.18a2.77,2.77,0,0,1,2.65-2.79h32.92a48.76,48.76,0,1,1,0,97.52ZM760.17,1.69a2.46,2.46,0,0,0-2.35,2.49V96.12a2.46,2.46,0,0,0,2.35,2.49h32.92a48.46,48.46,0,1,0,0-96.92ZM791.42,82h-16V18.19h16c18.49,0,31.4,13.09,31.4,31.82S809.91,82,791.42,82Zm-15.68-.3h15.68c18.31,0,31.1-13,31.1-31.66S809.73,18.5,791.42,18.5H775.74Z"/><path class="cls-1" d="M916.56,98.91H860a2.79,2.79,0,0,1-2.79-2.79V4.18A2.79,2.79,0,0,1,860,1.39h56.52a2.79,2.79,0,0,1,2.79,2.79V15.57a2.8,2.8,0,0,1-2.79,2.79h-41V40.83h34.16a2.9,2.9,0,0,1,2.79,2.79V55.15a2.79,2.79,0,0,1-2.79,2.79H875.6v24h41a2.8,2.8,0,0,1,2.79,2.79V96.12A2.79,2.79,0,0,1,916.56,98.91ZM860,1.69a2.5,2.5,0,0,0-2.49,2.49V96.12A2.49,2.49,0,0,0,860,98.61h56.52a2.48,2.48,0,0,0,2.49-2.49V84.73a2.48,2.48,0,0,0-2.49-2.48H875.3V57.64h34.46a2.5,2.5,0,0,0,2.49-2.49V43.62a2.59,2.59,0,0,0-2.49-2.49H875.3V18.06h41.26a2.49,2.49,0,0,0,2.49-2.49V4.18a2.49,2.49,0,0,0-2.49-2.49Z"/><path class="cls-1" d="M961.57,100.3c-18,0-27.2-7.89-30.65-10.87-1.52-1.21-2-2.13-.73-4.35l5-8.62a3.3,3.3,0,0,1,2.22-1.62,3.45,3.45,0,0,1,2.72.61C946.11,80,952.21,84,961,84c7,0,12.49-4.63,12.49-10.55,0-6.6-5.25-11.55-17.54-16.52-11.25-4.55-26.21-12.62-26.21-30.14a25.91,25.91,0,0,1,7.39-18.08C942.78,3,951.08,0,961.15,0,975.83,0,986.94,7.78,989,9.34a3.07,3.07,0,0,1,1.33,2.05,3.52,3.52,0,0,1-.47,2.73L984.61,22c-1.14,1.71-3.31,2.88-5.07,1.71l-1-.65c-5.68-3.58-11-7-18.19-7-8.34,0-12.07,4.81-12.07,9.58,0,6.23,4.72,10.7,16.29,15.41,14.4,5.79,29.12,14.07,29.12,31.53A25.94,25.94,0,0,1,985,91.88C979.07,97.31,970.75,100.3,961.57,100.3ZM938.08,75.08a3.34,3.34,0,0,0-.62.06,2.92,2.92,0,0,0-2,1.47l-5,8.62c-1.21,2.14-.7,2.88.65,4h0c3.43,3,12.53,10.8,30.46,10.8,9.11,0,17.35-3,23.21-8.35a25.66,25.66,0,0,0,8.58-19c0-17.29-14.62-25.5-28.93-31.25-11.71-4.77-16.49-9.32-16.49-15.69,0-4.92,3.83-9.88,12.38-9.88,7.24,0,12.64,3.41,18.35,7l1,.65c1.61,1.07,3.6,0,4.66-1.63L989.64,14a3.29,3.29,0,0,0,.42-2.51,2.86,2.86,0,0,0-1.21-1.87C986.77,8,975.73.3,961.15.3c-10,0-18.22,3-23.8,8.65a25.64,25.64,0,0,0-7.3,17.87c0,17.34,14.85,25.34,26,29.86,12.43,5,17.73,10.06,17.73,16.8,0,6.08-5.62,10.85-12.79,10.85-8.89,0-15-4.09-21.06-8.64A3.06,3.06,0,0,0,938.08,75.08Z"/></g></g></svg>