<svg xmlns="http://www.w3.org/2000/svg" viewBox="0 0 993.36 100"><defs><style>.cls-1{fill:#fff;}</style></defs><g id="Layer_2" data-name="Layer 2"><g id="Layer_1-2" data-name="Layer 1"><path class="cls-1" d="M50.14,0c14,0,24.17,4.44,33.61,12.92a2.58,2.58,0,0,1,.14,3.89l-8.47,8.75a2.23,2.23,0,0,1-3.48,0,32.84,32.84,0,0,0-21.38-8.2c-17.78,0-31,14.86-31,32.36S32.92,81.81,50.69,81.81a33.33,33.33,0,0,0,21.25-7.92,2.57,2.57,0,0,1,3.48,0L84,82.78a2.65,2.65,0,0,1-.14,3.75A47.71,47.71,0,0,1,50.14,100a50,50,0,1,1,0-100Z"/><path class="cls-1" d="M143.06,0a50,50,0,1,1,0,100A49.55,49.55,0,0,1,93.2,50.14,49.79,49.79,0,0,1,143.06,0Zm0,81.94a31.94,31.94,0,1,0,0-63.88c-17.5,0-31.81,14.58-31.81,32.08A31.89,31.89,0,0,0,143.06,81.94Z"/><path class="cls-1" d="M219.87,2.08A2.34,2.34,0,0,1,222.37,0h2.22A2.54,2.54,0,0,1,227,1.39L257.51,67h.41L288.48,1.39A2.39,2.39,0,0,1,290.84,0h2.22a2.34,2.34,0,0,1,2.5,2.08L312,95.42a2.41,2.41,0,0,1-2.5,3.19H296.81a3,3,0,0,1-2.64-2.08L286,43.89h-.42l-24.3,54.58a2.37,2.37,0,0,1-2.37,1.53h-2.5A2.5,2.5,0,0,1,254,98.47L229.45,43.89H229L221,96.53a2.69,2.69,0,0,1-2.5,2.08H206a2.54,2.54,0,0,1-2.64-3.19Z"/><path class="cls-1" d="M327,4a2.73,2.73,0,0,1,2.64-2.64h13.2A2.64,2.64,0,0,1,345.43,4V61.94c0,11.81,8.05,20,20.14,20s20.27-8.19,20.27-19.86V4a2.64,2.64,0,0,1,2.64-2.64h13.2A2.73,2.73,0,0,1,404.32,4V62.92C404.32,84,387.51,100,365.57,100S327,84,327,62.92Z"/><path class="cls-1" d="M424.6,2.5A2.61,2.61,0,0,1,427.24,0h2.08a3.05,3.05,0,0,1,2.36,1l56.67,60.42h.28V4a2.63,2.63,0,0,1,2.63-2.64H504A2.73,2.73,0,0,1,506.68,4V97.5A2.61,2.61,0,0,1,504,100H502.1a3,3,0,0,1-2.36-1L442.79,36.25h-.28V96a2.64,2.64,0,0,1-2.64,2.64H427.24A2.73,2.73,0,0,1,424.6,96Z"/><path class="cls-1" d="M527.93,4a2.73,2.73,0,0,1,2.64-2.64h12.92A2.73,2.73,0,0,1,546.13,4V96a2.73,2.73,0,0,1-2.64,2.64H530.57A2.73,2.73,0,0,1,527.93,96Z"/><path class="cls-1" d="M567.38,4a2.61,2.61,0,0,1,2.5-2.64h32.91c26.81,0,48.76,21.8,48.76,48.47a48.81,48.81,0,0,1-48.76,48.75H569.88a2.61,2.61,0,0,1-2.5-2.64Zm33.75,77.64c18,0,31.25-12.78,31.25-31.81S619.18,18.2,601.13,18.2H585.3V81.67Z"/><path class="cls-1" d="M655.58,95,698.77,1.53A2.49,2.49,0,0,1,701.13,0h1.39a2.35,2.35,0,0,1,2.36,1.53L747.66,95a2.45,2.45,0,0,1-2.36,3.61H733.21c-2.08,0-3.05-.83-4-2.78l-6.81-15H680.85l-6.8,15a4.2,4.2,0,0,1-4,2.78H657.94A2.45,2.45,0,0,1,655.58,95Zm60-29.58L701.69,34.86h-.42L687.66,65.42Z"/><path class="cls-1" d="M757.52,4A2.61,2.61,0,0,1,760,1.39h32.92c26.81,0,48.75,21.8,48.75,48.47a48.81,48.81,0,0,1-48.75,48.75H760a2.61,2.61,0,0,1-2.5-2.64Zm33.75,77.64c18.06,0,31.25-12.78,31.25-31.81S809.33,18.2,791.27,18.2H775.44V81.67Z"/><path class="cls-1" d="M857.25,4a2.64,2.64,0,0,1,2.64-2.64h56.52A2.64,2.64,0,0,1,919.05,4V15.42a2.64,2.64,0,0,1-2.64,2.64H875.3V40.83h34.31a2.73,2.73,0,0,1,2.64,2.64V55a2.64,2.64,0,0,1-2.64,2.64H875.3v24.3h41.11a2.64,2.64,0,0,1,2.64,2.64V96a2.64,2.64,0,0,1-2.64,2.64H859.89A2.64,2.64,0,0,1,857.25,96Z"/><path class="cls-1" d="M930.86,89.17c-1.39-1.11-1.94-2-.69-4.17l5-8.61a3.21,3.21,0,0,1,4.72-1c5.69,4.3,11.94,8.61,21,8.61,7.22,0,12.64-4.72,12.64-10.7,0-7.08-6-11.94-17.64-16.66-13.05-5.28-26.11-13.61-26.11-30C929.75,14.31,938.92,0,961,0c14.17,0,25,7.22,27.78,9.31a3.43,3.43,0,0,1,.83,4.58l-5.28,7.92c-1.11,1.66-3.19,2.77-4.86,1.66-6-3.75-11.66-7.64-19.3-7.64-7.92,0-12.23,4.45-12.23,9.73,0,6.52,5.14,11,16.39,15.55,13.48,5.42,29,13.47,29,31.39,0,14.31-12.36,27.5-31.94,27.5C943.92,100,934.89,92.64,930.86,89.17Z"/></g></g></svg>