<svg xmlns="http://www.w3.org/2000/svg" viewBox="0 0 994.36 101"><defs><style>.cls-1{fill:#fff;}</style></defs><g id="Layer_2" data-name="Layer 2"><g id="Layer_1-2" data-name="Layer 1"><path class="cls-1" d="M50.64,101A50.53,50.53,0,0,1,14.8,86.34,49.93,49.93,0,0,1,0,50.64,50.7,50.7,0,0,1,50.64,0C64.06,0,74.53,4,84.58,13a3.18,3.18,0,0,1,1.12,2.3,3.11,3.11,0,0,1-1,2.32L76.28,26.4a2.72,2.72,0,0,1-2,1,3.08,3.08,0,0,1-2.23-1,32.31,32.31,0,0,0-21-8c-17.08,0-30.47,14-30.47,31.86S34,81.81,51.19,81.81c7.5,0,14.54-2.63,20.94-7.81a3,3,0,0,1,4.14,0l8.62,8.89a2.63,2.63,0,0,1,.85,1.91,3.45,3.45,0,0,1-1,2.54A48,48,0,0,1,50.64,101Zm0-100A49.7,49.7,0,0,0,1,50.64a48.93,48.93,0,0,0,14.5,35A49.52,49.52,0,0,0,50.64,100,47,47,0,0,0,84,86.67a2.53,2.53,0,0,0,.71-1.79,1.72,1.72,0,0,0-.55-1.23l-8.64-8.91a2.06,2.06,0,0,0-2.79,0c-6.59,5.33-13.85,8-21.58,8-17.72,0-31.61-14.32-31.61-32.59,0-18.42,13.83-32.86,31.47-32.86a33.32,33.32,0,0,1,21.72,8.32,2.24,2.24,0,0,0,1.51.71,1.81,1.81,0,0,0,1.26-.66L84,17a2.1,2.1,0,0,0-.11-3.17C74.06,4.94,63.79,1,50.64,1Z"/><path class="cls-1" d="M143.56,101A49.82,49.82,0,0,1,93.2,50.64,50.49,50.49,0,0,1,107.86,14.8,49.93,49.93,0,0,1,143.56,0a50.63,50.63,0,0,1,50.5,50.64A50.17,50.17,0,0,1,143.56,101Zm0-100a48.91,48.91,0,0,0-35,14.5A49.52,49.52,0,0,0,94.2,50.64a49.43,49.43,0,1,0,98.86,0A49.63,49.63,0,0,0,143.56,1Zm0,81.94a32.44,32.44,0,0,1,0-64.88C161.14,18.06,176,33,176,50.64A32.41,32.41,0,0,1,143.56,82.94Zm0-63.88A31.44,31.44,0,1,0,175,50.64C175,33.52,160.6,19.06,143.56,19.06Z"/><path class="cls-1" d="M259.39,101h-2.5a3,3,0,0,1-2.8-1.8L229.88,45.45,222,97.1a3.2,3.2,0,0,1-3,2.51h-12.5a3.16,3.16,0,0,1-2.46-1,3.36,3.36,0,0,1-.68-2.74L219.87,2.51a2.83,2.83,0,0,1,3-2.51h2.22a3,3,0,0,1,2.81,1.67l30.31,65,30.32-65A2.9,2.9,0,0,1,291.34,0h2.22a2.83,2.83,0,0,1,3,2.52l16.38,93.31a3.14,3.14,0,0,1-.52,2.72A3,3,0,0,1,310,99.61H297.31a3.51,3.51,0,0,1-3.12-2.45l-8.05-51.71L262.21,99.18A2.85,2.85,0,0,1,259.39,101ZM229.1,43.89h1.17L255,98.77a2,2,0,0,0,1.9,1.23h2.5a1.85,1.85,0,0,0,1.89-1.19l24.46-54.92h1.17l.06.42L295.17,97a2.51,2.51,0,0,0,2.14,1.66H310a2.1,2.1,0,0,0,1.7-.69A2.2,2.2,0,0,0,312,96L295.57,2.67a1.86,1.86,0,0,0-2-1.67h-2.22a1.89,1.89,0,0,0-1.91,1.11L258.74,68h-1.05L227,2.1A2.06,2.06,0,0,0,225.09,1h-2.22a1.85,1.85,0,0,0-2,1.64v0L204.33,96a2.41,2.41,0,0,0,.44,1.94,2.2,2.2,0,0,0,1.71.67H219A2.18,2.18,0,0,0,221,97Z"/><path class="cls-1" d="M366.07,101C343.77,101,327,84.84,327,63.42V4.53a3.22,3.22,0,0,1,3.13-3.14h13.2a3.15,3.15,0,0,1,3.14,3.14V62.44c0,11.67,7.89,19.5,19.64,19.5s19.77-8,19.77-19.36v-58A3.15,3.15,0,0,1,389,1.39h13.2a3.23,3.23,0,0,1,3.14,3.14V63.42C405.32,84.84,388.44,101,366.07,101Zm-36-98.61A2.22,2.22,0,0,0,328,4.53V63.42C328,84.27,344.34,100,366.07,100s38.25-15.73,38.25-36.58V4.53a2.22,2.22,0,0,0-2.14-2.14H389a2.14,2.14,0,0,0-2.14,2.14V62.58c0,12-8.54,20.36-20.77,20.36s-20.64-8.23-20.64-20.5V4.53a2.14,2.14,0,0,0-2.14-2.14Z"/><path class="cls-1" d="M504.54,101H502.6a3.53,3.53,0,0,1-2.72-1.12L443.51,37.74V96.47a3.14,3.14,0,0,1-3.13,3.14H427.74a3.22,3.22,0,0,1-3.14-3.14V3a3.11,3.11,0,0,1,3.14-3h2.08a3.49,3.49,0,0,1,2.71,1.12l56.09,59.8V4.53a3.15,3.15,0,0,1,3.14-3.14h12.78a3.23,3.23,0,0,1,3.14,3.14V98A3.11,3.11,0,0,1,504.54,101Zm-62-64.75h1l.15.16,56.95,62.78a2.51,2.51,0,0,0,2,.81h1.94a2.1,2.1,0,0,0,2.14-2V4.53a2.22,2.22,0,0,0-2.14-2.14H491.76a2.14,2.14,0,0,0-2.14,2.14V62.39h-1l-.15-.16L431.82,1.81a2.56,2.56,0,0,0-2-.81h-2.08a2.1,2.1,0,0,0-2.14,2V96.47a2.22,2.22,0,0,0,2.14,2.14h12.64a2.14,2.14,0,0,0,2.13-2.14Z"/><path class="cls-1" d="M544,99.61H531.07a3.23,3.23,0,0,1-3.14-3.14V4.53a3.23,3.23,0,0,1,3.14-3.14H544a3.23,3.23,0,0,1,3.14,3.14V96.47A3.23,3.23,0,0,1,544,99.61ZM531.07,2.39a2.22,2.22,0,0,0-2.14,2.14V96.47a2.22,2.22,0,0,0,2.14,2.14H544a2.22,2.22,0,0,0,2.14-2.14V4.53A2.22,2.22,0,0,0,544,2.39Z"/><path class="cls-1" d="M603.29,99.61H570.38a3.11,3.11,0,0,1-3-3.14V4.53a3.11,3.11,0,0,1,3-3.14h32.91a49.11,49.11,0,1,1,0,98.22ZM570.38,2.39a2.1,2.1,0,0,0-2,2.14V96.47a2.1,2.1,0,0,0,2,2.14h32.91a48.11,48.11,0,1,0,0-96.22Zm31.25,80.28H585.29V18.2h16.34c18.69,0,31.75,13.22,31.75,32.16S620.32,82.67,601.63,82.67Zm-15.34-1h15.34c18.1,0,30.75-12.88,30.75-31.31S619.73,19.2,601.63,19.2H586.29Z"/><path class="cls-1" d="M745.8,99.61H733.71c-2.45,0-3.53-1.17-4.47-3l-6.68-14.73H681.67L675,96.54a4.68,4.68,0,0,1-4.48,3.07H658.44a3.09,3.09,0,0,1-2.7-1.36,3,3,0,0,1-.12-3l43.2-93.47A3,3,0,0,1,701.63,0H703a2.86,2.86,0,0,1,2.81,1.8l42.78,93.49a3,3,0,0,1-.12,3A3.07,3.07,0,0,1,745.8,99.61ZM681,80.83H723.2l6.94,15.3c.94,1.87,1.81,2.48,3.57,2.48H745.8a2.12,2.12,0,0,0,1.85-.9,2,2,0,0,0,.05-2L704.92,2.24A1.85,1.85,0,0,0,703,1h-1.39a2,2,0,0,0-1.91,1.25L656.53,95.71a2,2,0,0,0,.05,2,2.13,2.13,0,0,0,1.86.9h12.08a3.68,3.68,0,0,0,3.56-2.46Zm35.82-14.41H687.39l14.06-31.56h1.06Zm-27.92-1H715.3L702,36.12Z"/><path class="cls-1" d="M793.44,99.61H760.52a3.12,3.12,0,0,1-3-3.14V4.53a3.12,3.12,0,0,1,3-3.14h32.92a49.11,49.11,0,1,1,0,98.22ZM760.52,2.39a2.1,2.1,0,0,0-2,2.14V96.47a2.1,2.1,0,0,0,2,2.14h32.92a48.11,48.11,0,1,0,0-96.22Zm31.25,80.28H775.44V18.2h16.33c18.7,0,31.75,13.22,31.75,32.16S810.47,82.67,791.77,82.67Zm-15.33-1h15.33c18.11,0,30.75-12.88,30.75-31.31S809.88,19.2,791.77,19.2H776.44Z"/><path class="cls-1" d="M916.91,99.61H860.39a3.15,3.15,0,0,1-3.14-3.14V4.53a3.15,3.15,0,0,1,3.14-3.14h56.52a3.14,3.14,0,0,1,3.14,3.14V15.92a3.14,3.14,0,0,1-3.14,3.14H876.3V40.83h33.81A3.23,3.23,0,0,1,913.25,44V55.5a3.15,3.15,0,0,1-3.14,3.14H876.3v23.3h40.61a3.14,3.14,0,0,1,3.14,3.14V96.47A3.14,3.14,0,0,1,916.91,99.61ZM860.39,2.39a2.14,2.14,0,0,0-2.14,2.14V96.47a2.14,2.14,0,0,0,2.14,2.14h56.52a2.14,2.14,0,0,0,2.14-2.14V85.08a2.14,2.14,0,0,0-2.14-2.14H875.3V57.64h34.81a2.14,2.14,0,0,0,2.14-2.14V44a2.22,2.22,0,0,0-2.14-2.14H875.3V18.06h41.61a2.14,2.14,0,0,0,2.14-2.14V4.53a2.14,2.14,0,0,0-2.14-2.14Z"/><path class="cls-1" d="M961.92,101c-18.17,0-27.4-8-30.88-11-1.6-1.28-2.17-2.38-.81-4.8l5-8.61a3.62,3.62,0,0,1,2.46-1.79,3.83,3.83,0,0,1,3,.67c5.92,4.48,12,8.51,20.66,8.51,6.81,0,12.14-4.48,12.14-10.2,0-6.44-5.18-11.28-17.33-16.2C944.83,53,929.75,44.9,929.75,27.17,929.75,14.08,939.68,0,961.5,0c14.79,0,26,7.83,28.08,9.41A3.4,3.4,0,0,1,991,11.66a3.89,3.89,0,0,1-.52,3l-5.27,7.9c-1.23,1.85-3.6,3.11-5.56,1.81l-1-.65c-5.63-3.55-10.95-6.91-18-6.91-8.1,0-11.73,4.64-11.73,9.23,0,6.06,4.66,10.44,16.08,15.09C979.53,47,994.36,55.33,994.36,73,994.36,86.57,983,101,961.92,101ZM938.43,75.78a2.56,2.56,0,0,0-.55,0,2.61,2.61,0,0,0-1.78,1.31l-5,8.61c-1.09,1.93-.71,2.5.57,3.53h0c3.39,2.93,12.42,10.71,30.23,10.71,20.42,0,31.44-13.91,31.44-27,0-17.08-14.51-25.22-28.71-30.92-11.87-4.84-16.71-9.48-16.71-16,0-5.09,3.94-10.23,12.73-10.23,7.34,0,12.78,3.43,18.53,7.07l1,.65c1.42.95,3.21-.08,4.18-1.52l5.27-7.92a2.92,2.92,0,0,0,.38-2.24A2.51,2.51,0,0,0,989,10.23C986.93,8.67,976,1,961.5,1c-14.81,0-30.75,8.19-30.75,26.17,0,17.12,14.72,25.06,25.8,29.53,12.58,5.1,18,10.22,18,17.13,0,6.28-5.77,11.2-13.14,11.2-9,0-15.2-4.12-21.27-8.71A2.73,2.73,0,0,0,938.43,75.78Z"/></g></g></svg>