<?xml version="1.0" encoding="utf-8"?>
<!-- Generator: Adobe Illustrator 26.0.3, SVG Export Plug-In . SVG Version: 6.00 Build 0)  -->
<svg version="1.1" id="Layer_1" xmlns="http://www.w3.org/2000/svg" xmlns:xlink="http://www.w3.org/1999/xlink" x="0px" y="0px"
	 viewBox="0 0 754 100.9" style="enable-background:new 0 0 754 100.9;" xml:space="preserve">
<style type="text/css">
	.st0{fill:#F7B844;}
</style>
<path class="st0" d="M32.4,100.9C14.3,100.9,5.1,93,1.6,90c-1.6-1.3-2.2-2.4-0.8-4.8l5-8.6c0.5-0.9,1.4-1.6,2.5-1.8
	c1-0.2,2.1,0,3,0.7c5.9,4.5,12,8.5,20.7,8.5C38.7,84,44,79.5,44,73.8c0-6.4-5.2-11.3-17.3-16.2C15.4,53,0.3,44.9,0.3,27.1
	C0.3,14.1,10.2,0,32,0c14.8,0,26,7.8,28.1,9.4c0.8,0.5,1.3,1.3,1.5,2.3c0.2,1,0,2.1-0.5,3l-5.3,7.9c-0.6,0.9-1.4,1.6-2.5,2.1
	c-1,0.4-2.2,0.3-3.1-0.3l-1-0.6c-5.6-3.5-11-6.9-18-6.9c-8.1,0-11.7,4.6-11.7,9.2c0,6.1,4.7,10.4,16.1,15.1C50,47,64.8,55.3,64.8,73
	C64.8,86.5,53.5,100.9,32.4,100.9z M9,75.7c-0.2,0-0.4,0-0.6,0C7.7,75.9,7,76.4,6.7,77l-5,8.6c-1.1,1.9-0.7,2.5,0.6,3.5l0,0
	c3.4,2.9,12.4,10.7,30.2,10.7c20.4,0,31.4-13.9,31.4-27c0-17.1-14.5-25.2-28.7-30.9c-11.9-4.8-16.7-9.5-16.7-16
	c0-5.1,3.9-10.2,12.7-10.2c7.3,0,12.8,3.4,18.5,7.1l1,0.6c0.7,0.4,1.5,0.5,2.2,0.2c0.8-0.4,1.5-0.9,2-1.7l5.3-7.9
	c0.4-0.7,0.6-1.5,0.4-2.2c-0.1-0.7-0.5-1.3-1-1.6C57.4,8.7,46.5,1,32,1C17.2,1,1.3,9.2,1.3,27.1c0,17.1,14.7,25,25.8,29.5
	C39.6,61.8,45,66.9,45,73.8C45,80.1,39.2,85,31.9,85c-9,0-15.2-4.1-21.3-8.7C10.1,75.9,9.6,75.7,9,75.7z"/>
<path class="st0" d="M138.3,99.5H81.8c-1.7,0-3.1-1.4-3.1-3.1V4.5c0-1.7,1.4-3.1,3.1-3.1h56.5c1.7,0,3.1,1.4,3.1,3.1v11.4
	c0,1.7-1.4,3.1-3.1,3.1H97.8v21.8h33.8c1.7,0,3.1,1.4,3.1,3.1v11.5c0,1.7-1.4,3.1-3.1,3.1H97.8v23.3h40.6c1.7,0,3.1,1.4,3.1,3.1
	v11.4C141.5,98.1,140.1,99.5,138.3,99.5z M81.8,2.4c-1.2,0-2.1,1-2.1,2.1v91.9c0,1.2,1,2.1,2.1,2.1c0,0,0,0,0,0h56.5
	c1.2,0,2.1-0.9,2.1-2.1c0,0,0,0,0,0V85c0-1.2-1-2.1-2.1-2.1H96.8V57.6h34.8c1.2,0,2.1-1,2.1-2.1V43.9c0-1.2-1-2.1-2.1-2.1H96.8V18
	h41.6c1.2,0,2.1-1,2.1-2.1V4.5c0-1.2-1-2.1-2.1-2.1H81.8z"/>
<path class="st0" d="M200.9,100.8c-27.8-0.4-50.1-23.3-49.7-51.1c0.4-27.3,22.4-49.3,49.7-49.7c12.6,0.1,24.7,4.7,34.2,13
	c1.3,1.2,1.4,3.2,0.3,4.5c0,0-0.1,0.1-0.1,0.1l-8.6,9c-1,1.2-2.9,1.3-4.1,0.2c-0.1-0.1-0.2-0.2-0.2-0.2c-5.7-5.1-13-7.9-20.6-7.9
	c-16.9,0-30.6,14.2-30.6,31.7c0,17.2,13.8,31.3,30.7,31.3c5.5-0.1,10.9-1.2,16-3.3v-11h-10.6c-1.7,0.1-3.1-1.2-3.1-2.9
	c0,0,0-0.1,0-0.1v-11c0-1.7,1.3-3.1,3-3.1c0.1,0,0.1,0,0.2,0H234c1.7,0.1,3,1.5,3,3.1v35.7c0,1-0.5,2-1.3,2.6
	C225.1,97.6,213.1,100.8,200.9,100.8z M200.9,1c-27.3,0.1-49.4,22.3-49.3,49.6c-0.1,27.1,21.7,49.1,48.8,49.2c0.2,0,0.3,0,0.5,0
	c12,0,23.7-3.1,34.2-8.9c0.6-0.4,0.9-1.1,0.9-1.8V53.5c0-1.1-0.9-2.1-2-2.1h-26.7c-1.1-0.1-2.1,0.8-2.1,1.9c0,0.1,0,0.2,0,0.3v11
	c0,1.1,0.9,2,2,2c0,0,0.1,0,0.1,0h11.6v12.6l-0.3,0.1c-5.3,2.2-11,3.4-16.7,3.5c-17.5,0-31.7-14.5-31.7-32.3
	c0-18,14.2-32.7,31.6-32.7c7.9,0,15.5,2.9,21.3,8.2c0.6,0.8,1.8,1,2.6,0.4c0.1-0.1,0.2-0.2,0.3-0.3l8.6-9c0.8-0.9,0.8-2.2,0-3.1
	c0,0-0.1-0.1-0.1-0.1C225.2,5.7,213.3,1.2,200.9,1z"/>
<path class="st0" d="M291.7,100.9c-22.3,0-39.1-16.1-39.1-37.6V4.5c0-1.7,1.4-3.1,3.1-3.1h13.2c1.7,0,3.1,1.4,3.1,3.1v57.9
	c0,11.7,7.9,19.5,19.6,19.5s19.8-8,19.8-19.3v-58c0-1.7,1.4-3.1,3.1-3.1h13.2c1.7,0,3.1,1.4,3.1,3.1v58.8
	C330.9,84.8,314.1,100.9,291.7,100.9z M255.8,2.4c-1.2,0-2.1,1-2.1,2.1v58.8c0,20.9,16.4,36.6,38.1,36.6s38.2-15.7,38.2-36.6V4.5
	c0-1.2-1-2.1-2.1-2.1h-13.2c-1.2,0-2.1,1-2.1,2.1v58c0,12-8.5,20.3-20.8,20.3s-20.6-8.2-20.6-20.5V4.5c0-1.2-1-2.1-2.1-2.1l0,0
	H255.8z"/>
<path class="st0" d="M419.4,99.5h-14.6c-1.1,0.1-2.2-0.5-2.7-1.5l-18.3-36.5h-14.6v34.9c0,1.7-1.4,3.1-3.1,3.1h-12.8
	c-1.7,0-3.1-1.4-3.1-3.1V4.5c0-1.7,1.4-3.1,3.1-3.1H393c16.9-0.1,30.6,13.5,30.8,30.3c0,12.2-7.8,23-20.3,28.3l18.8,34.8
	c0.6,1,0.6,2.3,0,3.3C421.6,99,420.5,99.6,419.4,99.5z M368.2,60.5h16.2L403,97.6c0.3,0.7,1,1,1.8,1h14.6c0.8,0,1.5-0.3,1.9-1
	c0.4-0.7,0.4-1.6,0-2.3L402,59.5l0.5-0.2c12.5-5,20.2-15.6,20.2-27.6C422.6,15.4,409.3,2.3,393,2.4h-39.7c-1.2,0-2.1,1-2.1,2.1
	c0,0,0,0,0,0v91.9c0,1.2,1,2.1,2.1,2.1c0,0,0,0,0,0h12.8c1.2,0,2.1-1,2.1-2.1L368.2,60.5z M391.5,46.7h-23.1V18h23.1
	c7.8,0,14.1,6.2,14.2,14C405.7,40,399.2,46.7,391.5,46.7z M369.4,45.7h22.1c7.2,0,13.2-6.2,13.2-13.6c-0.1-7.2-6-13-13.2-13h-22.1
	V45.7z"/>
<path class="st0" d="M455.5,99.5h-12.9c-1.7,0-3.1-1.4-3.1-3.1V4.5c0-1.7,1.4-3.1,3.1-3.1h12.9c1.7,0,3.1,1.4,3.1,3.1v91.9
	C458.6,98.1,457.2,99.5,455.5,99.5z M442.6,2.4c-1.2,0-2.1,1-2.1,2.1v91.9c0,1.2,1,2.1,2.1,2.1h12.9c1.2,0,2.1-1,2.1-2.1V4.5
	c0-1.2-1-2.1-2.1-2.1H442.6z"/>
<path class="st0" d="M514.8,99.5h-32.9c-1.7-0.1-3-1.4-3-3.1V4.5c0-1.7,1.3-3.1,3-3.1h32.9c27.1-0.4,49.4,21.3,49.8,48.4
	c0.4,27.1-21.3,49.4-48.4,49.8C515.7,99.5,515.2,99.5,514.8,99.5z M481.9,2.4c-1.1,0.1-2,1-2,2.1v91.9c0,1.1,0.9,2.1,2,2.1h32.9
	c26.6,0.4,48.4-20.8,48.8-47.4c0.4-26.6-20.8-48.4-47.4-48.8c-0.5,0-0.9,0-1.4,0L481.9,2.4z M513.1,82.6h-16.3V18.2h16.3
	c18.7,0,31.7,13.2,31.7,32.2S531.8,82.6,513.1,82.6L513.1,82.6z M497.8,81.6h15.3c18.1,0,30.7-12.9,30.7-31.3s-12.6-31.1-30.7-31.1
	h-15.3L497.8,81.6z"/>
<path class="st0" d="M657.2,99.5h-12.1c-2.5,0-3.5-1.2-4.5-3.1l-6.7-14.7h-40.9l-6.7,14.7c-0.7,1.9-2.5,3.1-4.5,3.1h-12.1
	c-1.1,0-2.1-0.5-2.7-1.4c-0.6-0.9-0.6-2.1-0.1-3l0,0l43.2-93.4c0.5-1.1,1.6-1.8,2.8-1.8h1.4c1.2-0.1,2.4,0.7,2.8,1.8L660,95.2
	c0.5,0.9,0.5,2.1-0.1,3C659.3,99.1,658.2,99.6,657.2,99.5z M592.4,80.8h42.2l6.9,15.3c0.9,1.9,1.8,2.5,3.6,2.5h12.1
	c0.7,0,1.4-0.3,1.8-0.9c0.3-0.6,0.3-1.4,0-2L616.3,2.2c-0.3-0.8-1.1-1.3-1.9-1.2H613c-0.8,0-1.6,0.5-1.9,1.2L568,95.7
	c-0.3,0.6-0.3,1.4,0,2c0.4,0.6,1.1,0.9,1.8,0.9h12.1c1.6,0,3-1,3.6-2.5L592.4,80.8z M628.2,66.4h-29.4l14-31.5h1.1L628.2,66.4z
	 M600.3,65.4h26.3l-13.3-29.3L600.3,65.4z"/>
<path class="st0" d="M704.8,99.5h-32.9c-1.7-0.1-3-1.4-3-3.1V4.5c0-1.7,1.3-3.1,3-3.1h32.9c27.1-0.4,49.4,21.3,49.8,48.4
	c0.4,27.1-21.3,49.4-48.4,49.8C705.7,99.5,705.2,99.5,704.8,99.5z M671.9,2.4c-1.1,0.1-2,1-2,2.1v91.9c0,1.1,0.9,2.1,2,2.1h32.9
	c26.6,0.4,48.4-20.8,48.8-47.4c0.4-26.6-20.8-48.4-47.4-48.8c-0.5,0-0.9,0-1.4,0L671.9,2.4z M703.1,82.6h-16.3V18.2h16.3
	c18.7,0,31.7,13.2,31.7,32.2S721.8,82.6,703.1,82.6z M687.8,81.6h15.3c18.1,0,30.7-12.9,30.7-31.3s-12.6-31.2-30.7-31.2h-15.3
	L687.8,81.6z"/>
</svg>
