<?xml version="1.0" encoding="utf-8"?>
<!-- Generator: Adobe Illustrator 26.0.3, SVG Export Plug-In . SVG Version: 6.00 Build 0)  -->
<svg version="1.1" id="Capa_1" xmlns="http://www.w3.org/2000/svg" xmlns:xlink="http://www.w3.org/1999/xlink" x="0px" y="0px"
	 viewBox="0 0 753.5 100" style="enable-background:new 0 0 753.5 100;" xml:space="preserve">
<style type="text/css">
	.st0{opacity:0.5;}
	.st1{fill:#F7B844;}
</style>
<g id="Layer_2" class="st0">
	<g id="Layer_1-2">
		<path class="st1" d="M1.4,89.2C0,88.1-0.6,87.2,0.7,85l5-8.6c0.9-1.5,2.8-2.1,4.4-1.2c0.1,0.1,0.2,0.1,0.3,0.2
			c5.7,4.3,11.9,8.6,21,8.6C38.6,84,44,79.3,44,73.3c0-7.1-6-11.9-17.6-16.7c-13-5.3-26.1-13.6-26.1-30C0.3,14.3,9.4,0,31.5,0
			c14.2,0,25,7.2,27.8,9.3c1.4,1.1,1.8,3.1,0.8,4.6l-5.3,7.9c-1.1,1.7-3.2,2.8-4.9,1.7c-6-3.8-11.7-7.6-19.3-7.6
			c-7.9,0-12.2,4.5-12.2,9.7c0,6.5,5.1,11,16.4,15.5c13.5,5.4,29,13.5,29,31.4C63.9,86.8,51.5,100,32,100
			C14.4,100,5.4,92.6,1.4,89.2z"/>
		<path class="st1" d="M78.8,4c0-1.5,1.2-2.6,2.6-2.6h56.5c1.5,0,2.6,1.2,2.6,2.6v11.4c0,1.5-1.2,2.6-2.6,2.6H96.8v22.8h34.3
			c1.4,0.1,2.6,1.2,2.6,2.6V55c0,1.5-1.2,2.6-2.6,2.6c0,0,0,0,0,0H96.8v24.3h41.1c1.5,0,2.6,1.2,2.6,2.6V96c0,1.5-1.2,2.6-2.6,2.6
			H81.4c-1.5,0-2.6-1.2-2.6-2.6V4z"/>
		<path class="st1" d="M200.6,0C213,0.1,225,4.7,234.4,12.9c1.1,1,1.2,2.7,0.2,3.8c0,0-0.1,0.1-0.1,0.1l-8.6,9
			c-0.8,1-2.3,1.1-3.3,0.3c-0.1-0.1-0.2-0.2-0.3-0.3c-5.8-5.2-13.3-8-21-8c-17.4,0-31.1,14.8-31.1,32.2s13.7,31.8,31.2,31.8
			c5.7-0.1,11.3-1.2,16.5-3.5V66.5H207c-1.4,0.1-2.6-1-2.6-2.4c0,0,0-0.1,0-0.1V53c0-1.4,1.1-2.6,2.5-2.6c0.1,0,0.1,0,0.2,0h26.7
			c1.4,0.1,2.5,1.2,2.5,2.6v35.6c0,0.9-0.4,1.7-1.2,2.2c-10.5,5.9-22.4,9-34.4,9c-27.6,0-49.9-22.4-49.9-49.9S173,0,200.6,0L200.6,0
			z"/>
		<path class="st1" d="M252.8,4c0-1.4,1.2-2.6,2.6-2.6h13.2c1.5,0,2.6,1.2,2.6,2.6c0,0,0,0,0,0v57.9c0,11.8,8,20,20.1,20
			s20.3-8.2,20.3-19.9V4c0-1.5,1.2-2.6,2.6-2.6c0,0,0,0,0,0h13.2c1.4,0,2.6,1.2,2.6,2.6v58.9c0,21.1-16.8,37.1-38.8,37.1
			s-38.6-16-38.6-37.1V4z"/>
		<path class="st1" d="M350.4,4c0-1.5,1.2-2.6,2.6-2.6l0,0h39.7c16.6-0.1,30.2,13.3,30.3,29.9c0,12.8-8.5,23.2-20.6,28.1l19,35.3
			c0.8,1.2,0.4,2.9-0.9,3.6c-0.4,0.3-1,0.4-1.5,0.4h-14.6c-0.9,0-1.8-0.4-2.2-1.2l-18.5-36.7h-15.4V96c0,1.4-1.2,2.6-2.6,2.6h-12.8
			c-1.5,0-2.6-1.2-2.6-2.6c0,0,0,0,0,0V4z M391.3,45.7c7.4,0,13.8-6.4,13.8-14.2c-0.2-7.5-6.3-13.4-13.8-13.5h-22.6v27.7L391.3,45.7
			z"/>
		<path class="st1" d="M439.7,4c0-1.4,1.2-2.6,2.6-2.6h12.9c1.4,0,2.6,1.2,2.6,2.6v92c0,1.4-1.2,2.6-2.6,2.6h-12.9
			c-1.4,0-2.6-1.2-2.6-2.6V4z"/>
		<path class="st1" d="M479.2,4c0-1.4,1.1-2.6,2.5-2.6h32.9c26.8,0,48.8,21.8,48.8,48.5c0,26.9-21.8,48.7-48.8,48.8h-32.9
			c-1.4-0.1-2.5-1.2-2.5-2.6V4z M512.9,81.6c18.1,0,31.2-12.8,31.2-31.8S531,18.2,512.9,18.2h-15.8v63.5L512.9,81.6z"/>
		<path class="st1" d="M567.4,95l43.2-93.5c0.4-0.9,1.3-1.6,2.4-1.5h1.4c1-0.1,2,0.6,2.4,1.5L659.5,95c0.6,1.2,0.2,2.7-1,3.3
			c-0.4,0.2-0.9,0.3-1.4,0.3H645c-2.1,0-3.1-0.8-4-2.8l-6.8-15h-41.5l-6.8,15c-0.6,1.7-2.2,2.8-4,2.8h-12.1
			c-1.3,0.1-2.5-0.9-2.6-2.2C567.1,95.9,567.2,95.4,567.4,95z M627.4,65.4l-13.9-30.6h-0.4l-13.6,30.6H627.4z"/>
		<path class="st1" d="M669.3,4c0-1.4,1.1-2.6,2.5-2.6h32.9c26.8,0,48.8,21.8,48.8,48.5c0,26.9-21.8,48.7-48.8,48.8h-32.9
			c-1.4-0.1-2.5-1.2-2.5-2.6V4z M703.1,81.6c18,0,31.2-12.8,31.2-31.8s-13.2-31.6-31.2-31.6h-15.8v63.5L703.1,81.6z"/>
	</g>
</g>
</svg>
