<svg xmlns="http://www.w3.org/2000/svg" viewBox="0 0 533.76 100"><defs><style>.cls-1{fill:#fff;}</style></defs><g id="Layer_2" data-name="Layer 2"><g id="Layer_1-2" data-name="Layer 1"><path class="cls-1" d="M.28,95,43.47,1.53A2.49,2.49,0,0,1,45.83,0h1.39a2.35,2.35,0,0,1,2.36,1.53L92.36,95A2.45,2.45,0,0,1,90,98.61H77.92c-2.09,0-3.06-.83-4-2.78l-6.81-15H25.56l-6.81,15a4.19,4.19,0,0,1-4,2.78H2.64A2.45,2.45,0,0,1,.28,95Zm60-29.58L46.39,34.86H46L32.36,65.42Z"/><path class="cls-1" d="M146.67,0c14,0,24.17,4.44,33.61,12.92a2.58,2.58,0,0,1,.14,3.89L172,25.56a2.22,2.22,0,0,1-3.47,0,32.87,32.87,0,0,0-21.39-8.2c-17.78,0-31,14.86-31,32.36s13.33,32.09,31.11,32.09a33.37,33.37,0,0,0,21.25-7.92,2.56,2.56,0,0,1,3.47,0l8.61,8.89a2.65,2.65,0,0,1-.14,3.75A47.69,47.69,0,0,1,146.67,100a50,50,0,1,1,0-100Z"/><path class="cls-1" d="M239.87,0c14,0,24.16,4.44,33.61,12.92a2.58,2.58,0,0,1,.14,3.89l-8.47,8.75a2.23,2.23,0,0,1-3.48,0,32.85,32.85,0,0,0-21.39-8.2c-17.77,0-31,14.86-31,32.36s13.34,32.09,31.11,32.09a33.33,33.33,0,0,0,21.25-7.92,2.57,2.57,0,0,1,3.48,0l8.61,8.89a2.65,2.65,0,0,1-.14,3.75A47.71,47.71,0,0,1,239.87,100a50,50,0,1,1,0-100Z"/><path class="cls-1" d="M288.62,4a2.64,2.64,0,0,1,2.64-2.64h56.53A2.64,2.64,0,0,1,350.43,4V15.42a2.64,2.64,0,0,1-2.64,2.64H306.68V40.83H341a2.73,2.73,0,0,1,2.64,2.64V55A2.64,2.64,0,0,1,341,57.64h-34.3v24.3h41.11a2.64,2.64,0,0,1,2.64,2.64V96a2.64,2.64,0,0,1-2.64,2.64H291.26A2.64,2.64,0,0,1,288.62,96Z"/><path class="cls-1" d="M362.23,89.17c-1.38-1.11-1.94-2-.69-4.17l5-8.61a3.21,3.21,0,0,1,4.72-1c5.7,4.3,11.95,8.61,21,8.61,7.23,0,12.64-4.72,12.64-10.7,0-7.08-6-11.94-17.64-16.66-13.05-5.28-26.11-13.61-26.11-30C361.12,14.31,370.29,0,392.37,0c14.17,0,25,7.22,27.78,9.31a3.42,3.42,0,0,1,.83,4.58l-5.27,7.92c-1.12,1.66-3.2,2.77-4.86,1.66-6-3.75-11.67-7.64-19.31-7.64-7.92,0-12.22,4.45-12.22,9.73,0,6.52,5.14,11,16.39,15.55,13.47,5.42,29,13.47,29,31.39,0,14.31-12.36,27.5-31.94,27.5C375.29,100,366.26,92.64,362.23,89.17Z"/><path class="cls-1" d="M483.76,0a50,50,0,1,1,0,100A49.56,49.56,0,0,1,433.9,50.14,49.8,49.8,0,0,1,483.76,0Zm0,81.94a31.94,31.94,0,1,0,0-63.88c-17.5,0-31.8,14.58-31.8,32.08A31.88,31.88,0,0,0,483.76,81.94Z"/></g></g></svg>