<svg id="Capa_1" data-name="Capa 1" xmlns="http://www.w3.org/2000/svg" viewBox="0 0 65 65"><defs><style>.cls-1{fill:#ea1d2d;}.cls-2{fill:#fff;}.cls-3{fill:none;stroke:#fff;stroke-linecap:round;stroke-miterlimit:10;stroke-width:0.42px;}</style></defs><rect class="cls-1" width="65" height="65"/><path class="cls-2" d="M50.06,31a1.8,1.8,0,1,1,1.8,1.8,1.8,1.8,0,0,1-1.8-1.8"/><path class="cls-2" d="M54,33.5a2.39,2.39,0,0,1,2.17,2.39v5a.7.7,0,1,1-1.39,0V36.6c0-.16-.05-.38-.34-.38s-.25.22-.25.35V49.41a1,1,0,0,1-2,0V42a.27.27,0,0,0-.28-.29.27.27,0,0,0-.29.29v7.4a1,1,0,0,1-2,0V36.57c0-.13-.05-.35-.25-.35s-.34.22-.34.38v4.28a.7.7,0,0,1-1.4,0v-5a2.4,2.4,0,0,1,2.19-2.39H54"/><path class="cls-2" d="M39.36,32A1.71,1.71,0,1,0,36,32a1.71,1.71,0,0,0,3.41,0"/><path class="cls-2" d="M34.22,35.82,32.8,40.43s-.25.84.47,1,.93-.61.93-.61L35.34,37s.06-.3.28-.23.14.38.14.38l-2,7.21h1.84v5.17a.89.89,0,0,0,1.78,0V44.38h.5v5.17a.89.89,0,0,0,1.78,0V44.38h1.85l-2-7.21s-.08-.32.14-.38S40,37,40,37l1.14,3.85s.22.82.93.61.46-1,.46-1l-1.41-4.61s-.51-1.34-1.63-1.34H35.85c-1.12,0-1.63,1.34-1.63,1.34"/><path class="cls-2" d="M29.15,32a1.71,1.71,0,1,0-1.7,1.7,1.71,1.71,0,0,0,1.7-1.7"/><path class="cls-2" d="M24,35.82,22.6,40.43s-.26.84.46,1,.93-.61.93-.61L25.14,37s.06-.3.28-.23.14.38.14.38l-2,7.21h1.85v5.17a.89.89,0,0,0,1.77,0V44.38h.51v5.17a.89.89,0,0,0,1.77,0V44.38h1.85l-2-7.21s-.09-.32.13-.38.29.23.29.23l1.14,3.85s.22.82.93.61.47-1,.47-1l-1.42-4.61s-.51-1.34-1.63-1.34H25.64c-1.12,0-1.63,1.34-1.63,1.34"/><path class="cls-2" d="M45.08,41.49a1.42,1.42,0,1,0-1.42-1.42,1.42,1.42,0,0,0,1.42,1.42"/><path class="cls-2" d="M41.68,45.9a.49.49,0,0,0,.2.67.48.48,0,0,0,.61-.2l.77-2.46s.14-.16.14,0v5.79h0a.73.73,0,0,0,.73.72.72.72,0,0,0,.72-.72V47.42s0-.32.22-.32.22.32.22.32v2.29a.73.73,0,0,0,1.46,0V43.92c0-.17.09-.05.09-.05l.61,1.68a4.27,4.27,0,0,0,.34.79.54.54,0,0,0,.7-.29.53.53,0,0,0-.05-.52h0c0-.05-.9-2.22-1-2.53-.32-.93-.9-.92-1.46-.94h-.9s-.35,0-1.09,0-1,.4-1.79,2.5c-.12.3-.51,1.28-.52,1.34Z"/><path class="cls-2" d="M13.93,31a1.8,1.8,0,1,0-1.8,1.8,1.8,1.8,0,0,0,1.8-1.8"/><path class="cls-2" d="M10,33.5a2.4,2.4,0,0,0-2.18,2.39v5a.7.7,0,0,0,1.4,0V36.6c0-.16.05-.38.34-.38s.24.22.25.35V49.41a1,1,0,0,0,2,0V42a.27.27,0,0,1,.28-.29.27.27,0,0,1,.29.29v7.4a1,1,0,0,0,2,0V36.57c0-.13.05-.35.25-.35s.34.22.34.38v4.28a.7.7,0,1,0,1.39,0v-5a2.4,2.4,0,0,0-2.18-2.39H10"/><line class="cls-3" x1="8.42" y1="41.65" x2="6.91" y2="50.03"/><path class="cls-2" d="M17.27,40.75a.52.52,0,0,0-.44-.24.51.51,0,0,0-.52.51,1,1,0,0,0,.05.23l1.43,2.59a.91.91,0,0,1,.09.34v5.55h0a.7.7,0,0,0,1.4,0V47.54s0-.31.21-.31.21.31.21.31v2.19a.7.7,0,0,0,1.4,0V44.18a.91.91,0,0,1,.09-.34l1.32-2.39a2.48,2.48,0,0,0,.16-.43.51.51,0,0,0-.52-.51.5.5,0,0,0-.43.24h0S21,42,20.79,42.18a.6.6,0,0,1-.44.21H18.63a.59.59,0,0,1-.43-.21c-.23-.22-.89-1.4-.93-1.43Z"/><path class="cls-2" d="M19.49,41.49a1.42,1.42,0,1,0-1.42-1.42,1.41,1.41,0,0,0,1.42,1.42"/><polygon class="cls-2" points="19.49 43.48 21.1 44.65 21.86 47.46 19.49 47.46 17.13 47.46 17.89 44.65 19.49 43.48"/><polygon class="cls-2" points="9.07 8.55 9.1 8.55 9.1 18.58 11.3 18.58 11.3 5.48 9.54 5.48 7.51 7.85 7.51 10.15 7.53 10.15 9.07 8.55"/><polygon class="cls-2" points="15.36 5.5 17.53 5.5 17.53 6.26 16.29 6.26 16.29 7.83 17.22 7.83 17.22 8.58 16.29 8.58 16.29 11.01 15.36 11.01 15.36 5.5"/><rect class="cls-2" x="17.94" y="5.5" width="0.92" height="5.51"/><polygon class="cls-2" points="20.18 7.55 20.18 11.01 19.4 11.01 19.4 5.5 20.31 5.5 21.31 8.66 21.31 5.5 22.08 5.5 22.08 11.01 21.27 11.01 20.18 7.55"/><path class="cls-2" d="M18.13,14.7v2.55c0,.84-.34,1.48-1.34,1.48H15.36V13.22h1.43c1,0,1.34.62,1.34,1.48M16.68,18c.38,0,.53-.23.53-.56V14.52a.49.49,0,0,0-.53-.55h-.39v4Z"/><polygon class="cls-2" points="18.66 13.22 20.87 13.22 20.87 13.97 19.59 13.97 19.59 15.55 20.5 15.55 20.5 16.3 19.59 16.3 19.59 17.97 20.87 17.97 20.87 18.73 18.66 18.73 18.66 13.22"/><polygon class="cls-2" points="22.22 13.22 23.14 13.22 23.14 17.97 24.25 17.97 24.25 18.73 22.22 18.73 22.22 13.22"/><path class="cls-2" d="M24.52,18.73l1-5.51h1.06l1.05,5.51h-1l-.17-1h-1l-.16,1ZM25.69,17h.73l-.36-2.21h0Z"/><path class="cls-2" d="M28.9,13.22h1.37c.94,0,1.28.46,1.28,1.23v1.16c0,.78-.34,1.25-1.28,1.25h-.44v1.87H28.9Zm.93.75v2.17h.34a.39.39,0,0,0,.45-.45V14.42a.39.39,0,0,0-.45-.45Z"/><path class="cls-2" d="M32,17.3V14.64a1.4,1.4,0,1,1,2.8,0V17.3a1.4,1.4,0,1,1-2.8,0m1.87.15v-3c0-.33-.14-.57-.48-.57s-.47.24-.47.57v3c0,.33.15.57.47.57s.48-.24.48-.57"/><path class="cls-2" d="M35.36,13.22H36.7c.92,0,1.23.43,1.23,1.21V15a.81.81,0,0,1-.55.88.83.83,0,0,1,.69.91v.73c0,.78-.35,1.22-1.28,1.22H35.36Zm.92,2.32h.33c.3,0,.44-.15.44-.45v-.67A.39.39,0,0,0,36.6,14h-.32Zm0,.71V18h.41a.39.39,0,0,0,.45-.45v-.83c0-.29-.14-.44-.46-.44Z"/><path class="cls-2" d="M39.46,16.2v2.53h-.93V13.22h1.35c.93,0,1.27.46,1.27,1.23v.71c0,.59-.21.94-.73,1.06l.88,2.51h-1Zm0-2.23v1.72h.31a.4.4,0,0,0,.45-.46v-.81a.39.39,0,0,0-.45-.45Z"/><polygon class="cls-2" points="41.66 13.22 43.87 13.22 43.87 13.97 42.58 13.97 42.58 15.55 43.5 15.55 43.5 16.3 42.58 16.3 42.58 17.97 43.87 17.97 43.87 18.73 41.66 18.73 41.66 13.22"/><polygon class="cls-2" points="45.26 17.97 46.67 17.97 46.67 18.73 44.3 18.73 44.3 17.97 45.75 13.97 44.44 13.97 44.44 13.22 46.73 13.22 46.73 13.97 45.26 17.97"/><path class="cls-2" d="M47,18.73l1-5.51h1.06l1.05,5.51h-1l-.17-1h-1l-.16,1ZM48.19,17h.74l-.37-2.21h0Z"/></svg>