<svg id="Capa_1" data-name="Capa 1" xmlns="http://www.w3.org/2000/svg" viewBox="0 0 65.23 65.23"><defs><style>.cls-1{fill:#8f1838;}.cls-2{fill:#fff;}</style></defs><rect class="cls-1" width="65.23" height="65.23"/><path class="cls-2" d="M43.78,34.43l-6,5.72a1,1,0,0,0-.34.86V57.06a.34.34,0,0,0,.34.34H44a.34.34,0,0,0,.34-.34V34.57c0-.19-.15-.54-.54-.14"/><path class="cls-2" d="M26.44,41.89l-6,5.72a1,1,0,0,0-.35.86v8.59a.35.35,0,0,0,.35.34h6.22a.34.34,0,0,0,.34-.34V42c0-.19-.15-.54-.54-.14"/><path class="cls-2" d="M46.51,27.48a.15.15,0,0,0,0-.13.22.22,0,0,0-.11-.05h-.08l-4.61,1h-.08a.13.13,0,0,0-.09,0,.18.18,0,0,0,0,.25l0,.05,1.05,1.05L32.15,40.2l-4.82-4.83a.15.15,0,0,0-.2,0l-1.31,1.31h0l-7.73,7.73a.12.12,0,0,0,0,.19l1.31,1.31a.12.12,0,0,0,.19,0l7.64-7.63,3.5,3.5v0l1.31,1.3a.13.13,0,0,0,.2,0L44.1,31.26l1.1,1.11a.18.18,0,0,0,.25,0,.21.21,0,0,0,0-.12h0l1-4.71Z"/><path class="cls-2" d="M35.14,42.89l-2.91,2.94a.15.15,0,0,1-.19,0L29.4,43.13c-.48-.48-.58-.09-.58.1V57.06a.34.34,0,0,0,.34.34h6.22a.34.34,0,0,0,.34-.34V43c0-.19-.15-.54-.58-.11"/><path class="cls-2" d="M12.63,15.4V14a2.6,2.6,0,0,0-1.47-2.64A2.31,2.31,0,0,0,12.43,9V8.5c0-2.06-1.06-3.17-3.1-3.17S6.27,6.44,6.27,8.5V9a2.33,2.33,0,0,0,1.24,2.29A2.58,2.58,0,0,0,6.05,14V15.4c0,2,1,3.4,3.28,3.4s3.3-1.4,3.3-3.4m-4.29-7c0-.8.27-1.26,1-1.26s1,.46,1,1.26v.89c0,.8-.27,1.26-1,1.26s-1-.46-1-1.26Zm2.08,7.27c0,.8-.29,1.36-1.09,1.36s-1.07-.56-1.07-1.36V13.5c0-.8.29-1.36,1.07-1.36s1.09.56,1.09,1.36Z"/><polygon class="cls-2" points="16.74 5.45 19.21 5.45 19.21 6.21 18.45 6.21 18.45 10.98 17.51 10.98 17.51 6.21 16.74 6.21 16.74 5.45"/><path class="cls-2" d="M20.57,8.44V11h-.93V5.45H21c.93,0,1.28.47,1.28,1.24V7.4a.94.94,0,0,1-.75,1.07L22.42,11h-1Zm0-2.23V7.93h.31a.4.4,0,0,0,.46-.46V6.66c0-.3-.14-.45-.46-.45Z"/><path class="cls-2" d="M22.63,11l1.05-5.53h1.06L25.79,11h-1l-.17-1h-1l-.17,1ZM23.8,9.23h.74L24.17,7h0Z"/><path class="cls-2" d="M26.17,5.45h1.34c.93,0,1.24.43,1.24,1.22v.56a.81.81,0,0,1-.55.88.83.83,0,0,1,.69.92v.73c0,.79-.35,1.22-1.28,1.22H26.17Zm.93,2.33h.33c.3,0,.44-.15.44-.45V6.66a.39.39,0,0,0-.45-.45H27.1Zm0,.71v1.73h.41A.39.39,0,0,0,28,9.77V8.94a.4.4,0,0,0-.46-.45Z"/><path class="cls-2" d="M29.17,11l1-5.53h1.06L32.32,11h-.95l-.17-1h-1l-.16,1Zm1.16-1.75h.75L30.71,7h0Z"/><path class="cls-2" d="M35.09,5.45V9.72A1.15,1.15,0,0,1,33.81,11c-1,0-1.22-.53-1.22-1.23V8.71h.88V9.83c0,.28.1.44.34.44s.35-.16.35-.45V5.45Z"/><path class="cls-2" d="M35.61,9.55V6.88a1.41,1.41,0,1,1,2.82,0V9.55a1.41,1.41,0,1,1-2.82,0m1.89.15v-3c0-.33-.15-.57-.48-.57s-.48.24-.48.57v3c0,.33.15.57.48.57s.48-.24.48-.57"/><path class="cls-2" d="M42.59,6.93V9.49c0,.85-.35,1.49-1.34,1.49H39.81V5.45h1.44c1,0,1.34.63,1.34,1.48m-1.46,3.29c.38,0,.53-.23.53-.56V6.76a.49.49,0,0,0-.53-.55h-.39v4Z"/><polygon class="cls-2" points="43.12 5.45 45.34 5.45 45.34 6.21 44.05 6.21 44.05 7.79 44.97 7.79 44.97 8.54 44.05 8.54 44.05 10.22 45.34 10.22 45.34 10.98 43.12 10.98 43.12 5.45"/><path class="cls-2" d="M45.75,9.55V6.88a1.3,1.3,0,0,1,1.39-1.49c1,0,1.31.57,1.31,1.38v.65H47.6V6.7c0-.34-.11-.54-.45-.54s-.47.24-.47.57v3c0,.33.14.57.47.57s.45-.21.45-.54v-1h.85v1c0,.79-.33,1.37-1.31,1.37a1.31,1.31,0,0,1-1.39-1.49"/><polygon class="cls-2" points="48.95 5.45 51.17 5.45 51.17 6.21 49.88 6.21 49.88 7.79 50.8 7.79 50.8 8.54 49.88 8.54 49.88 10.22 51.17 10.22 51.17 10.98 48.95 10.98 48.95 5.45"/><polygon class="cls-2" points="52.45 7.5 52.45 10.98 51.67 10.98 51.67 5.45 52.58 5.45 53.58 8.62 53.58 5.45 54.36 5.45 54.36 10.98 53.54 10.98 52.45 7.5"/><polygon class="cls-2" points="54.78 5.45 57.25 5.45 57.25 6.21 56.48 6.21 56.48 10.98 55.55 10.98 55.55 6.21 54.78 6.21 54.78 5.45"/><polygon class="cls-2" points="57.68 5.45 59.9 5.45 59.9 6.21 58.61 6.21 58.61 7.79 59.53 7.79 59.53 8.54 58.61 8.54 58.61 10.22 59.9 10.22 59.9 10.98 57.68 10.98 57.68 5.45"/><polygon class="cls-2" points="18.66 16.21 18.66 18.31 17.73 18.31 17.73 16.21 16.69 12.78 17.66 12.78 18.23 14.88 18.23 14.88 18.8 12.78 19.68 12.78 18.66 16.21"/><path class="cls-2" d="M20.91,16.89V14.21a1.31,1.31,0,0,1,1.39-1.49c1,0,1.31.57,1.31,1.39v.65h-.85V14c0-.34-.11-.54-.44-.54s-.48.24-.48.57v3c0,.34.14.57.48.57s.44-.21.44-.53v-1h.85V17c0,.79-.32,1.38-1.31,1.38a1.31,1.31,0,0,1-1.39-1.49"/><path class="cls-2" d="M25.05,15.78v2.53h-.93V12.79h1.35c.94,0,1.28.46,1.28,1.23v.71c0,.6-.21.95-.74,1.07l.89,2.51h-1Zm0-2.24v1.72h.31a.4.4,0,0,0,.45-.45V14a.39.39,0,0,0-.45-.45Z"/><polygon class="cls-2" points="27.25 12.79 29.47 12.79 29.47 13.54 28.18 13.54 28.18 15.13 29.1 15.13 29.1 15.88 28.18 15.88 28.18 17.55 29.47 17.55 29.47 18.31 27.25 18.31 27.25 12.79"/><path class="cls-2" d="M29.89,16.89V14.21c0-.86.4-1.49,1.38-1.49s1.31.57,1.31,1.39v.65h-.84V14c0-.34-.12-.54-.45-.54s-.48.24-.48.57v3c0,.34.14.57.48.57s.45-.21.45-.53v-1h.84V17c0,.79-.32,1.38-1.31,1.38a1.3,1.3,0,0,1-1.38-1.49"/><rect class="cls-2" x="33.09" y="12.78" width="0.93" height="5.53"/><polygon class="cls-2" points="37.12 14.72 37.09 14.72 36.46 18.31 36.03 18.31 35.34 14.72 35.32 14.72 35.32 18.31 34.55 18.31 34.55 12.78 35.64 12.78 36.24 15.9 36.25 15.9 36.79 12.78 37.96 12.78 37.96 18.31 37.12 18.31 37.12 14.72"/><rect class="cls-2" x="38.49" y="12.78" width="0.93" height="5.53"/><polygon class="cls-2" points="39.96 12.79 42.17 12.79 42.17 13.54 40.89 13.54 40.89 15.13 41.81 15.13 41.81 15.88 40.89 15.88 40.89 17.55 42.17 17.55 42.17 18.31 39.96 18.31 39.96 12.79"/><polygon class="cls-2" points="43.45 14.84 43.45 18.31 42.67 18.31 42.67 12.79 43.58 12.79 44.59 15.96 44.59 12.79 45.36 12.79 45.36 18.31 44.55 18.31 43.45 14.84"/><polygon class="cls-2" points="45.78 12.79 48.25 12.79 48.25 13.54 47.49 13.54 47.49 18.31 46.55 18.31 46.55 13.54 45.78 13.54 45.78 12.79"/><path class="cls-2" d="M48.56,16.89V14.21a1.41,1.41,0,1,1,2.82,0v2.68a1.41,1.41,0,1,1-2.82,0m1.89.14v-3c0-.33-.15-.57-.48-.57s-.48.24-.48.57v3c0,.34.15.57.48.57s.48-.23.48-.57"/><polygon class="cls-2" points="16.85 20.12 19.07 20.12 19.07 20.88 17.78 20.88 17.78 22.46 18.7 22.46 18.7 23.21 17.78 23.21 17.78 24.89 19.07 24.89 19.07 25.65 16.85 25.65 16.85 20.12"/><path class="cls-2" d="M19.48,24.22V21.55c0-.87.41-1.5,1.39-1.5s1.31.57,1.31,1.39v.65h-.85v-.72c0-.35-.11-.54-.45-.54s-.47.23-.47.57v3c0,.33.14.57.47.57s.45-.21.45-.54v-1h.85v.95c0,.8-.33,1.38-1.31,1.38a1.31,1.31,0,0,1-1.39-1.49"/><path class="cls-2" d="M22.68,24.22V21.55a1.41,1.41,0,1,1,2.81,0v2.67a1.41,1.41,0,1,1-2.81,0m1.89.15v-3c0-.34-.15-.57-.49-.57s-.47.23-.47.57v3c0,.33.15.57.47.57s.49-.24.49-.57"/><polygon class="cls-2" points="26.81 22.17 26.81 25.65 26.02 25.65 26.02 20.12 26.94 20.12 27.94 23.29 27.94 20.12 28.71 20.12 28.71 25.65 27.9 25.65 26.81 22.17"/><path class="cls-2" d="M29.24,24.22V21.55a1.41,1.41,0,1,1,2.81,0v2.67a1.41,1.41,0,1,1-2.81,0m2.16-4.49-1.46.18v-.52l1.46-.31Zm-.27,4.64v-3c0-.34-.15-.57-.49-.57s-.47.23-.47.57v3c0,.33.15.57.47.57s.49-.24.49-.57"/><polygon class="cls-2" points="35.14 22.06 35.12 22.06 34.49 25.65 34.06 25.65 33.37 22.06 33.35 22.06 33.35 25.65 32.58 25.65 32.58 20.12 33.67 20.12 34.27 23.23 34.28 23.23 34.82 20.12 35.99 20.12 35.99 25.65 35.14 25.65 35.14 22.06"/><rect class="cls-2" x="36.52" y="20.12" width="0.93" height="5.53"/><path class="cls-2" d="M38,24.22V21.55c0-.87.4-1.5,1.38-1.5s1.31.57,1.31,1.39v.65h-.84v-.72c0-.35-.12-.54-.45-.54s-.48.23-.48.57v3c0,.33.14.57.48.57s.45-.21.45-.54v-1h.84v.95c0,.8-.32,1.38-1.31,1.38S38,25.08,38,24.22"/><path class="cls-2" d="M41.19,24.22V21.55a1.41,1.41,0,1,1,2.81,0v2.67a1.41,1.41,0,1,1-2.81,0m1.88.15v-3c0-.34-.15-.57-.48-.57s-.47.23-.47.57v3c0,.33.14.57.47.57s.48-.24.48-.57"/></svg>