<svg id="Capa_1" data-name="Capa 1" xmlns="http://www.w3.org/2000/svg" viewBox="0 0 619.27 61.98"><defs><style>.cls-1{fill:#fff;}</style></defs><path class="cls-1" d="M34.44,67a31,31,0,1,1,0-62,29.18,29.18,0,0,1,20.83,8A2,2,0,0,1,56,14.47a2,2,0,0,1-.61,1.47l-5.18,5.35a1.75,1.75,0,0,1-1.25.63,2,2,0,0,1-1.41-.62A19.75,19.75,0,0,0,34.7,16.39c-10.43,0-18.59,8.54-18.59,19.44S24.31,55.1,34.78,55.1a20,20,0,0,0,12.78-4.77,1.93,1.93,0,0,1,2.62,0l5.28,5.45A1.62,1.62,0,0,1,56,57a2.19,2.19,0,0,1-.63,1.6A29.45,29.45,0,0,1,34.44,67Zm0-61.23a30.24,30.24,0,1,0,0,60.48,28.72,28.72,0,0,0,20.4-8.14,1.42,1.42,0,0,0,.41-1.05.92.92,0,0,0-.31-.7l-5.29-5.46a1.18,1.18,0,0,0-1.61,0,20.73,20.73,0,0,1-13.26,4.94c-10.89,0-19.42-8.79-19.42-20S23.85,15.64,34.7,15.64A20.48,20.48,0,0,1,48,20.75a1.25,1.25,0,0,0,.87.42,1,1,0,0,0,.73-.38l5.2-5.37a1.29,1.29,0,0,0,.39-.93,1.25,1.25,0,0,0-.46-.91A28.47,28.47,0,0,0,34.44,5.76Z" transform="translate(-3.37 -5.01)"/><path class="cls-1" d="M91.5,67A30.58,30.58,0,0,1,60.59,36.08a31,31,0,1,1,61.9,0A30.63,30.63,0,0,1,91.5,67Zm0-61.23A30.27,30.27,0,0,0,61.34,36.08a30.2,30.2,0,0,0,60.4,0A30.32,30.32,0,0,0,91.5,5.76Zm0,50.17a19.93,19.93,0,1,1,19.93-19.85A19.87,19.87,0,0,1,91.5,55.93Zm0-39.11a19.18,19.18,0,1,0,19.18,19.26A19.48,19.48,0,0,0,91.5,16.82Z" transform="translate(-3.37 -5.01)"/><path class="cls-1" d="M163.43,67H161.9a1.9,1.9,0,0,1-1.78-1.14l-14.73-32.7-4.8,31.39a2,2,0,0,1-1.9,1.6H131a2,2,0,0,1-1.55-.65,2.12,2.12,0,0,1-.43-1.74L139.17,6.61a1.81,1.81,0,0,1,1.9-1.6h1.36a1.94,1.94,0,0,1,1.78,1.06l18.5,39.69,18.5-39.68A1.84,1.84,0,0,1,183,5h1.36a1.82,1.82,0,0,1,1.9,1.61l10,57.12a2,2,0,0,1-.33,1.72,2,2,0,0,1-1.57.68h-7.74a2.22,2.22,0,0,1-2-1.55l-4.9-31.44L165.22,65.83A1.81,1.81,0,0,1,163.43,67Zm-18.6-35.11h.82L160.8,65.52a1.14,1.14,0,0,0,1.1.72h1.53a1.07,1.07,0,0,0,1.09-.68l15-33.68h.82l5.06,32.55a1.48,1.48,0,0,0,1.25,1h7.74a1.19,1.19,0,0,0,1-.4,1.25,1.25,0,0,0,.18-1.1l-10-57.16a1.06,1.06,0,0,0-1.16-1H183a1.1,1.1,0,0,0-1.11.64l-18.8,40.35h-.74L143.53,6.39a1.19,1.19,0,0,0-1.1-.63h-1.36a1.06,1.06,0,0,0-1.16,1v0L129.79,63.87A1.38,1.38,0,0,0,130,65a1.29,1.29,0,0,0,1,.39h7.66a1.29,1.29,0,0,0,1.16-1Z" transform="translate(-3.37 -5.01)"/><path class="cls-1" d="M229.5,67c-13.69,0-24-9.92-24-23.08V7.85a2,2,0,0,1,2-2h8.07a2,2,0,0,1,2,2V43.31c0,7.1,4.81,11.87,12,11.87s12-4.84,12-11.78V7.85a2,2,0,0,1,2-2h8.08a2,2,0,0,1,2,2V43.91C253.6,57.07,243.24,67,229.5,67Zm-22-60.38a1.3,1.3,0,0,0-1.24,1.24V43.91c0,12.73,10,22.33,23.26,22.33s23.35-9.6,23.35-22.33V7.85a1.3,1.3,0,0,0-1.24-1.24h-8.08a1.25,1.25,0,0,0-1.24,1.24V43.4c0,7.38-5.26,12.53-12.79,12.53s-12.71-5.07-12.71-12.62V7.85a1.24,1.24,0,0,0-1.24-1.24Z" transform="translate(-3.37 -5.01)"/><path class="cls-1" d="M315.72,67h-1.19a2.22,2.22,0,0,1-1.71-.71L278.43,28.37V64.15a2,2,0,0,1-2,2H268.7a2,2,0,0,1-2-2V6.92a2,2,0,0,1,2-1.91H270a2.19,2.19,0,0,1,1.71.71l34.23,36.49V7.85a2,2,0,0,1,2-2h7.82a2,2,0,0,1,2,2V65.08A2,2,0,0,1,315.72,67Zm-38-39.78h.71l35,38.56a1.48,1.48,0,0,0,1.16.47h1.19A1.23,1.23,0,0,0,317,65.08V7.85a1.3,1.3,0,0,0-1.24-1.24H307.9a1.25,1.25,0,0,0-1.24,1.24v35.5H306l-.11-.12-34.69-37A1.51,1.51,0,0,0,270,5.76H268.7a1.22,1.22,0,0,0-1.24,1.16V64.15a1.3,1.3,0,0,0,1.24,1.24h7.74a1.25,1.25,0,0,0,1.24-1.24Z" transform="translate(-3.37 -5.01)"/><path class="cls-1" d="M341.31,66.14h-7.9a2,2,0,0,1-2-2V7.85a2,2,0,0,1,2-2h7.9a2,2,0,0,1,2,2v56.3A2,2,0,0,1,341.31,66.14Zm-7.9-59.53a1.3,1.3,0,0,0-1.24,1.24v56.3a1.3,1.3,0,0,0,1.24,1.24h7.9a1.31,1.31,0,0,0,1.25-1.24V7.85a1.31,1.31,0,0,0-1.25-1.24Z" transform="translate(-3.37 -5.01)"/><path class="cls-1" d="M379.07,66.14H358.92a2,2,0,0,1-1.91-2V7.85a2,2,0,0,1,1.91-2h20.15a30.14,30.14,0,1,1,0,60.28ZM358.92,6.61a1.23,1.23,0,0,0-1.16,1.24v56.3a1.23,1.23,0,0,0,1.16,1.24h20.15a29.39,29.39,0,1,0,0-58.78Zm19.13,49.15H368V16.15h10.07c11.49,0,19.51,8.13,19.51,19.77S389.54,55.76,378.05,55.76ZM368.73,55h9.32c11,0,18.76-7.85,18.76-19.09s-7.72-19-18.76-19h-9.32Z" transform="translate(-3.37 -5.01)"/><path class="cls-1" d="M466.48,66.14h-7.4a2.82,2.82,0,0,1-2.8-1.91l-4.07-9H427.27l-4.07,9a2.92,2.92,0,0,1-2.81,1.92H413a2,2,0,0,1-1.71-.87,2,2,0,0,1-.07-1.88L437.65,6.16A1.91,1.91,0,0,1,439.44,5h.85a1.81,1.81,0,0,1,1.78,1.14l26.2,57.25a1.91,1.91,0,0,1-.08,1.87A2,2,0,0,1,466.48,66.14ZM426.78,54.5h25.91L457,63.91c.56,1.13,1.06,1.48,2.12,1.48h7.4a1.23,1.23,0,0,0,1.08-.52,1.19,1.19,0,0,0,0-1.16L441.4,6.48a1.08,1.08,0,0,0-1.11-.72h-.85a1.15,1.15,0,0,0-1.11.73L411.89,63.71a1.19,1.19,0,0,0,0,1.16,1.22,1.22,0,0,0,1.07.52h7.4a2.2,2.2,0,0,0,2.12-1.47Zm22.09-8.69H430.61l8.67-19.45H440Zm-17.1-.75H447.7l-8.05-17.7Z" transform="translate(-3.37 -5.01)"/><path class="cls-1" d="M497.09,66.14H476.94a2,2,0,0,1-1.91-2V7.85a2,2,0,0,1,1.91-2h20.15a30.14,30.14,0,1,1,0,60.28ZM476.94,6.61a1.23,1.23,0,0,0-1.16,1.24v56.3a1.23,1.23,0,0,0,1.16,1.24h20.15a29.39,29.39,0,1,0,0-58.78Zm19.13,49.15H486V16.15h10.07c11.49,0,19.51,8.13,19.51,19.77S507.56,55.76,496.07,55.76ZM486.75,55h9.32c11.05,0,18.76-7.85,18.76-19.09s-7.71-19-18.76-19h-9.32Z" transform="translate(-3.37 -5.01)"/><path class="cls-1" d="M574.13,66.14H539.52a2,2,0,0,1-2-2V7.85a2,2,0,0,1,2-2h34.61a2,2,0,0,1,2,2v7a2,2,0,0,1-2,2h-24.8V30H570a2.05,2.05,0,0,1,2,2v7.06a2,2,0,0,1-2,2H549.33V55.18h24.8a2,2,0,0,1,2,2v7A2,2,0,0,1,574.13,66.14ZM539.52,6.61a1.25,1.25,0,0,0-1.24,1.24v56.3a1.24,1.24,0,0,0,1.24,1.24h34.61a1.24,1.24,0,0,0,1.24-1.24v-7a1.25,1.25,0,0,0-1.24-1.24H548.58V40.3H570a1.24,1.24,0,0,0,1.25-1.24V32A1.31,1.31,0,0,0,570,30.76H548.58V16.07h25.55a1.25,1.25,0,0,0,1.24-1.24v-7a1.25,1.25,0,0,0-1.24-1.24Z" transform="translate(-3.37 -5.01)"/><path class="cls-1" d="M602.7,67c-11.14,0-16.81-4.88-19-6.72-1-.79-1.36-1.51-.51-3L586.3,52a2.26,2.26,0,0,1,1.55-1.13,2.39,2.39,0,0,1,1.9.43c3.62,2.73,7.31,5.19,12.61,5.19,4.13,0,7.36-2.71,7.36-6.17,0-3.92-3.16-6.86-10.56-9.86-7-2.82-16.22-7.82-16.22-18.72,0-8,6.1-16.7,19.5-16.7a30.54,30.54,0,0,1,17.24,5.77,2.17,2.17,0,0,1,.92,1.43,2.44,2.44,0,0,1-.33,1.89L617,19a3.47,3.47,0,0,1-1.53,1.28,2.06,2.06,0,0,1-2-.16l-.63-.4c-3.44-2.17-6.69-4.21-11-4.21-4.91,0-7.1,2.8-7.1,5.57,0,3.68,2.83,6.34,9.8,9.18,8.9,3.58,18,8.7,18,19.57C622.63,58.12,615.65,67,602.7,67ZM588.32,51.54a1.65,1.65,0,0,0-.32,0,1.52,1.52,0,0,0-1,.76l-3.06,5.28c-.67,1.19-.38,1.49.33,2.07h0c2.08,1.79,7.6,6.54,18.47,6.54,12.46,0,19.18-8.48,19.18-16.46,0-10.42-8.86-15.39-17.54-18.87-7.29-3-10.26-5.84-10.26-9.88,0-3.15,2.42-6.32,7.85-6.32,4.52,0,8,2.2,11.39,4.33l.63.4c.84.56,1.9-.05,2.47-.91l3.23-4.85a1.72,1.72,0,0,0,.22-1.32,1.43,1.43,0,0,0-.61-.95,29.74,29.74,0,0,0-16.82-5.65c-9,0-18.75,5-18.75,16,0,10.45,9,15.29,15.75,18,7.73,3.13,11,6.29,11,10.56,0,3.88-3.56,6.92-8.11,6.92-5.53,0-9.34-2.53-13.07-5.35A1.61,1.61,0,0,0,588.32,51.54Z" transform="translate(-3.37 -5.01)"/></svg>