<svg id="Capa_1" data-name="Capa 1" xmlns="http://www.w3.org/2000/svg" viewBox="0 0 619.6 62.23"><defs><style>.cls-1{fill:#fff;}</style></defs><path class="cls-1" d="M34.4,67.11a31.11,31.11,0,1,1,0-62.22,29.33,29.33,0,0,1,20.91,8,2.15,2.15,0,0,1,.75,1.54A2.11,2.11,0,0,1,55.42,16l-5.19,5.35A1.79,1.79,0,0,1,48.9,22a2,2,0,0,1-1.5-.65,19.59,19.59,0,0,0-12.75-4.87C24.3,16.52,16.19,25,16.19,35.83S24.34,55,34.74,55a19.85,19.85,0,0,0,12.69-4.73,2.06,2.06,0,0,1,2.8,0l5.28,5.45a1.82,1.82,0,0,1,.58,1.3,2.35,2.35,0,0,1-.67,1.7A29.6,29.6,0,0,1,34.4,67.11Zm0-61.22a30.11,30.11,0,1,0,0,60.22A28.58,28.58,0,0,0,54.71,58a1.37,1.37,0,0,0,.38-1,.87.87,0,0,0-.27-.61L49.52,51a1.08,1.08,0,0,0-1.44,0,20.8,20.8,0,0,1-13.34,5c-11,0-19.55-8.84-19.55-20.14s8.55-20.31,19.46-20.31a20.6,20.6,0,0,1,13.43,5.14,1.11,1.11,0,0,0,.79.38.91.91,0,0,0,.63-.34l5.2-5.37a1.11,1.11,0,0,0,.36-.84,1.15,1.15,0,0,0-.41-.82A28.41,28.41,0,0,0,34.4,5.89Z" transform="translate(-3.2 -4.89)"/><path class="cls-1" d="M91.45,67.11a30.7,30.7,0,0,1-31-31,31.08,31.08,0,1,1,62.15,0A30.74,30.74,0,0,1,91.45,67.11Zm0-61.22a30.15,30.15,0,0,0-30,30.19,30.08,30.08,0,0,0,60.15,0A30.19,30.19,0,0,0,91.45,5.89Zm0,50.17a20.06,20.06,0,1,1,20.06-20A20,20,0,0,1,91.45,56.06Zm0-39.12a19.06,19.06,0,1,0,19.06,19.14A19.36,19.36,0,0,0,91.45,16.94Z" transform="translate(-3.2 -4.89)"/><path class="cls-1" d="M163.39,67.11h-1.53A2,2,0,0,1,160,65.9L145.41,33.58l-4.74,31a2.15,2.15,0,0,1-2,1.7H131a2.1,2.1,0,0,1-1.65-.69,2.26,2.26,0,0,1-.46-1.83L139,6.59a1.93,1.93,0,0,1,2-1.7h1.37A2.06,2.06,0,0,1,144.28,6l18.39,39.45L181.05,6A2,2,0,0,1,183,4.89h1.36a2,2,0,0,1,2,1.71l10,57.12a2.13,2.13,0,0,1-.36,1.82,2.08,2.08,0,0,1-1.67.72H186.6a2.34,2.34,0,0,1-2.09-1.64l-4.84-31L165.29,65.88A1.93,1.93,0,0,1,163.39,67.11ZM144.68,31.76h1l15.19,33.71a1,1,0,0,0,1,.64h1.53a1,1,0,0,0,1-.59l15-33.76h1l5.08,32.65a1.36,1.36,0,0,0,1.12.85h7.74a1.1,1.1,0,0,0,.89-.35,1.16,1.16,0,0,0,.15-1l-10-57.16a1,1,0,0,0-1-.86H183a1,1,0,0,0-1,.57L163.11,46.87h-.89L143.38,6.45a1,1,0,0,0-1-.56H141a.93.93,0,0,0-1,.83v0L129.87,63.89a1.26,1.26,0,0,0,.22,1,1.18,1.18,0,0,0,.9.34h7.65a1.15,1.15,0,0,0,1-.84Z" transform="translate(-3.2 -4.89)"/><path class="cls-1" d="M229.54,67.11c-13.76,0-24.14-10-24.14-23.2V7.85a2.17,2.17,0,0,1,2.12-2.11h8.08a2.12,2.12,0,0,1,2.11,2.11V43.31c0,7,4.76,11.75,11.83,11.75s11.92-4.8,11.92-11.66V7.85a2.12,2.12,0,0,1,2.11-2.11h8.08a2.17,2.17,0,0,1,2.12,2.11V43.91C253.77,57.14,243.35,67.11,229.54,67.11Zm-22-60.37a1.18,1.18,0,0,0-1.12,1.11V43.91c0,12.66,9.95,22.2,23.14,22.2s23.23-9.54,23.23-22.2V7.85a1.17,1.17,0,0,0-1.12-1.11h-8.08a1.12,1.12,0,0,0-1.11,1.11V43.4c0,7.45-5.31,12.66-12.92,12.66s-12.83-5.12-12.83-12.75V7.85a1.11,1.11,0,0,0-1.11-1.11Z" transform="translate(-3.2 -4.89)"/><path class="cls-1" d="M315.77,67.11h-1.19a2.36,2.36,0,0,1-1.8-.74L278.6,28.69V64.15a2.12,2.12,0,0,1-2.12,2.11h-7.74a2.16,2.16,0,0,1-2.11-2.11V6.92a2.1,2.1,0,0,1,2.11-2H270a2.39,2.39,0,0,1,1.8.74l34,36.26v-34a2.12,2.12,0,0,1,2.11-2.11h7.83a2.17,2.17,0,0,1,2.11,2.11V65.08A2.1,2.1,0,0,1,315.77,67.11Zm-38.17-40h.89l.15.17L313.5,65.68a1.36,1.36,0,0,0,1.08.43h1.19a1.1,1.1,0,0,0,1.11-1V7.85a1.17,1.17,0,0,0-1.11-1.11h-7.83a1.11,1.11,0,0,0-1.11,1.11V43.47h-.89l-.15-.16-34.69-37A1.38,1.38,0,0,0,270,5.89h-1.28a1.1,1.1,0,0,0-1.11,1V64.15a1.17,1.17,0,0,0,1.11,1.11h7.74a1.12,1.12,0,0,0,1.12-1.11Z" transform="translate(-3.2 -4.89)"/><path class="cls-1" d="M341.36,66.26h-7.91a2.17,2.17,0,0,1-2.12-2.11V7.85a2.17,2.17,0,0,1,2.12-2.11h7.91a2.17,2.17,0,0,1,2.11,2.11v56.3A2.17,2.17,0,0,1,341.36,66.26ZM333.45,6.74a1.18,1.18,0,0,0-1.12,1.11v56.3a1.18,1.18,0,0,0,1.12,1.11h7.91a1.17,1.17,0,0,0,1.11-1.11V7.85a1.17,1.17,0,0,0-1.11-1.11Z" transform="translate(-3.2 -4.89)"/><path class="cls-1" d="M379.11,66.26H359a2.1,2.1,0,0,1-2-2.11V7.85a2.1,2.1,0,0,1,2-2.11h20.15a30.26,30.26,0,1,1,0,60.52ZM359,6.74a1.1,1.1,0,0,0-1,1.11v56.3a1.1,1.1,0,0,0,1,1.11h20.15a29.26,29.26,0,1,0,0-58.52Zm19.13,49.15H367.9V16h10.19c11.56,0,19.63,8.18,19.63,19.89S389.65,55.89,378.09,55.89Zm-9.19-1h9.19c11,0,18.63-7.8,18.63-19S389.06,17,378.09,17H368.9Z" transform="translate(-3.2 -4.89)"/><path class="cls-1" d="M466.52,66.26h-7.39a2.92,2.92,0,0,1-2.92-2l-4-8.9H427.39l-4,8.89a3,3,0,0,1-2.93,2H413a2.09,2.09,0,0,1-1.82-.92,2.05,2.05,0,0,1-.08-2h0L437.58,6.11a2,2,0,0,1,1.9-1.22h.85a2,2,0,0,1,1.9,1.21l26.19,57.24a2.05,2.05,0,0,1-.08,2A2.09,2.09,0,0,1,466.52,66.26ZM426.74,54.38h26.08l4.3,9.47c.54,1.09,1,1.41,2,1.41h7.39a1.14,1.14,0,0,0,1-.46,1.09,1.09,0,0,0,0-1L441.32,6.53a1,1,0,0,0-1-.64h-.85a1,1,0,0,0-1,.66L412,63.76a1.09,1.09,0,0,0,0,1,1.14,1.14,0,0,0,1,.46h7.39a2.09,2.09,0,0,0,2-1.38Zm22.36-8.44H430.46l8.78-19.71h.9Zm-17.1-1h15.55L439.7,27.67Z" transform="translate(-3.2 -4.89)"/><path class="cls-1" d="M497.13,66.26H477a2.1,2.1,0,0,1-2-2.11V7.85a2.1,2.1,0,0,1,2-2.11h20.15a30.26,30.26,0,1,1,0,60.52ZM477,6.74a1.1,1.1,0,0,0-1,1.11v56.3a1.1,1.1,0,0,0,1,1.11h20.15a29.26,29.26,0,1,0,0-58.52Zm19.13,49.15H485.92V16h10.19c11.56,0,19.64,8.18,19.64,19.89S507.67,55.89,496.11,55.89Zm-9.19-1h9.19c11,0,18.64-7.8,18.64-19S507.08,17,496.11,17h-9.19Z" transform="translate(-3.2 -4.89)"/><path class="cls-1" d="M574.17,66.26H539.56a2.12,2.12,0,0,1-2.11-2.11V7.85a2.12,2.12,0,0,1,2.11-2.11h34.61a2.12,2.12,0,0,1,2.12,2.11v7a2.12,2.12,0,0,1-2.12,2.11H549.5v13H570A2.17,2.17,0,0,1,572.12,32v7.06A2.12,2.12,0,0,1,570,41.18H549.5V55.06h24.67a2.12,2.12,0,0,1,2.12,2.11v7A2.12,2.12,0,0,1,574.17,66.26ZM539.56,6.74a1.11,1.11,0,0,0-1.11,1.11v56.3a1.11,1.11,0,0,0,1.11,1.11h34.61a1.12,1.12,0,0,0,1.12-1.11v-7a1.12,1.12,0,0,0-1.12-1.11H548.5V40.18H570a1.12,1.12,0,0,0,1.11-1.12V32A1.17,1.17,0,0,0,570,30.89H548.5V15.94h25.67a1.12,1.12,0,0,0,1.12-1.11v-7a1.12,1.12,0,0,0-1.12-1.11Z" transform="translate(-3.2 -4.89)"/><path class="cls-1" d="M602.74,67.11c-11.19,0-16.88-4.89-19-6.75-1-.81-1.43-1.6-.54-3.18l3.07-5.27a2.38,2.38,0,0,1,1.63-1.19,2.52,2.52,0,0,1,2,.45c3.6,2.72,7.27,5.16,12.53,5.16,4.06,0,7.24-2.65,7.24-6,0-3.86-3.14-6.77-10.49-9.75-7-2.82-16.3-7.85-16.3-18.83,0-8.1,6.15-16.82,19.64-16.82a30.66,30.66,0,0,1,17.3,5.79,2.34,2.34,0,0,1,1,1.5,2.59,2.59,0,0,1-.36,2L617.19,19c-.81,1.21-2.37,2-3.67,1.16l-.63-.39c-3.42-2.16-6.65-4.2-10.91-4.2-4.83,0-7,2.74-7,5.45,0,3.63,2.82,6.25,9.73,9.06,8.94,3.6,18.08,8.75,18.08,19.69C622.8,58.18,615.77,67.11,602.74,67.11ZM588.36,51.67a1.53,1.53,0,0,0-.3,0,1.42,1.42,0,0,0-1,.7L584,57.68c-.61,1.09-.4,1.34.31,1.91h0c2.07,1.78,7.55,6.51,18.38,6.51,12.38,0,19.06-8.41,19.06-16.33,0-10.34-8.83-15.29-17.46-18.76C597,28,594,25.13,594,21c0-3.21,2.47-6.45,8-6.45,4.54,0,8,2.21,11.45,4.35l.63.4a1.18,1.18,0,0,0,1.17.09,2.63,2.63,0,0,0,1.13-1l3.23-4.85a1.62,1.62,0,0,0,.2-1.22,1.39,1.39,0,0,0-.55-.88,29.66,29.66,0,0,0-16.75-5.62c-9,0-18.64,5-18.64,15.82,0,10.37,8.95,15.19,15.68,17.91,7.79,3.15,11.11,6.34,11.11,10.67,0,4-3.62,7-8.24,7-5.57,0-9.39-2.54-13.14-5.37A1.47,1.47,0,0,0,588.36,51.67Z" transform="translate(-3.2 -4.89)"/></svg>