<svg id="Capa_1" data-name="Capa 1" xmlns="http://www.w3.org/2000/svg" viewBox="0 0 618.6 61.23"><defs><style>.cls-1{fill:#fff;}</style></defs><path class="cls-1" d="M34.4,5.39A28.82,28.82,0,0,1,55,13.29a1.59,1.59,0,0,1,.08,2.39L49.88,21a1.37,1.37,0,0,1-2.13,0,20.14,20.14,0,0,0-13.1-5c-10.88,0-19,9.1-19,19.81s8.16,19.64,19.05,19.64a20.41,20.41,0,0,0,13-4.84,1.57,1.57,0,0,1,2.13,0l5.27,5.44a1.61,1.61,0,0,1-.09,2.29A29.14,29.14,0,0,1,34.4,66.61a30.61,30.61,0,1,1,0-61.22Z" transform="translate(-3.7 -5.39)"/><path class="cls-1" d="M91.45,5.39A30.61,30.61,0,1,1,60.92,36.08,30.56,30.56,0,0,1,91.45,5.39Zm0,50.17A19.56,19.56,0,1,0,72,36.08,19.6,19.6,0,0,0,91.45,55.56Z" transform="translate(-3.7 -5.39)"/><path class="cls-1" d="M139.49,6.66A1.44,1.44,0,0,1,141,5.39h1.37a1.54,1.54,0,0,1,1.44.85l18.71,40.13h.25L181.5,6.24A1.47,1.47,0,0,1,183,5.39h1.36a1.44,1.44,0,0,1,1.53,1.27l10,57.15a1.47,1.47,0,0,1-1.53,2H186.6A1.85,1.85,0,0,1,185,64.49l-5-32.23h-.25L164.84,65.68a1.45,1.45,0,0,1-1.45.93h-1.53a1.53,1.53,0,0,1-1.45-.93l-15-33.42h-.25l-4.94,32.23a1.64,1.64,0,0,1-1.53,1.27H131a1.55,1.55,0,0,1-1.62-2Z" transform="translate(-3.7 -5.39)"/><path class="cls-1" d="M205.9,7.85a1.67,1.67,0,0,1,1.62-1.61h8.08a1.61,1.61,0,0,1,1.61,1.61V43.31c0,7.23,4.93,12.25,12.33,12.25S242,50.54,242,43.4V7.85a1.61,1.61,0,0,1,1.61-1.61h8.08a1.67,1.67,0,0,1,1.62,1.61V43.91c0,12.92-10.29,22.7-23.73,22.7s-23.64-9.78-23.64-22.7Z" transform="translate(-3.7 -5.39)"/><path class="cls-1" d="M267.12,6.92a1.6,1.6,0,0,1,1.62-1.53H270a1.87,1.87,0,0,1,1.44.59l34.7,37h.17V7.85a1.61,1.61,0,0,1,1.61-1.61h7.83a1.66,1.66,0,0,1,1.61,1.61V65.08a1.59,1.59,0,0,1-1.61,1.53h-1.19a1.89,1.89,0,0,1-1.45-.59L278.27,27.58h-.18V64.15a1.61,1.61,0,0,1-1.61,1.61h-7.74a1.67,1.67,0,0,1-1.62-1.61Z" transform="translate(-3.7 -5.39)"/><path class="cls-1" d="M331.83,7.85a1.67,1.67,0,0,1,1.62-1.61h7.91A1.66,1.66,0,0,1,343,7.85v56.3a1.66,1.66,0,0,1-1.61,1.61h-7.91a1.67,1.67,0,0,1-1.62-1.61Z" transform="translate(-3.7 -5.39)"/><path class="cls-1" d="M357.43,7.85A1.59,1.59,0,0,1,359,6.24h20.15a29.76,29.76,0,1,1,0,59.52H359a1.59,1.59,0,0,1-1.53-1.61Zm20.66,47.54c11.06,0,19.13-7.83,19.13-19.47s-8.07-19.39-19.13-19.39H368.4V55.39Z" transform="translate(-3.7 -5.39)"/><path class="cls-1" d="M411.59,63.55,438,6.32a1.52,1.52,0,0,1,1.44-.93h.85a1.45,1.45,0,0,1,1.45.93L468,63.55a1.5,1.5,0,0,1-1.45,2.21h-7.39a2.45,2.45,0,0,1-2.47-1.7l-4.17-9.18H427.07l-4.17,9.18a2.57,2.57,0,0,1-2.47,1.7H413A1.5,1.5,0,0,1,411.59,63.55Zm36.74-18.11-8.51-18.71h-.25l-8.34,18.71Z" transform="translate(-3.7 -5.39)"/><path class="cls-1" d="M475.45,7.85A1.59,1.59,0,0,1,477,6.24h20.15a29.76,29.76,0,1,1,0,59.52H477a1.59,1.59,0,0,1-1.53-1.61Zm20.66,47.54c11.06,0,19.14-7.83,19.14-19.47s-8.08-19.39-19.14-19.39h-9.69V55.39Z" transform="translate(-3.7 -5.39)"/><path class="cls-1" d="M538,7.85a1.61,1.61,0,0,1,1.61-1.61h34.61a1.61,1.61,0,0,1,1.62,1.61v7a1.61,1.61,0,0,1-1.62,1.61H549v14h21A1.66,1.66,0,0,1,571.62,32v7.06A1.61,1.61,0,0,1,570,40.68H549V55.56h25.17a1.61,1.61,0,0,1,1.62,1.61v7a1.61,1.61,0,0,1-1.62,1.61H539.56A1.61,1.61,0,0,1,538,64.15Z" transform="translate(-3.7 -5.39)"/><path class="cls-1" d="M584,60c-.85-.68-1.19-1.19-.42-2.55l3.06-5.27a2,2,0,0,1,2.89-.6c3.49,2.64,7.31,5.27,12.84,5.27,4.42,0,7.74-2.89,7.74-6.54,0-4.34-3.66-7.32-10.8-10.21-8-3.23-16-8.33-16-18.37,0-7.56,5.62-16.32,19.14-16.32a30,30,0,0,1,17,5.69,2.11,2.11,0,0,1,.51,2.81l-3.23,4.85c-.68,1-1.95,1.7-3,1-3.66-2.3-7.15-4.68-11.82-4.68-4.85,0-7.49,2.72-7.49,6,0,4,3.15,6.72,10,9.53,8.25,3.31,17.77,8.25,17.77,19.22,0,8.75-7.57,16.83-19.56,16.83C592,66.61,586.5,62.11,584,60Z" transform="translate(-3.7 -5.39)"/></svg>